<?xml version="1.0" encoding="UTF-8" standalone="no"?>
<svg
   width="16.844999"
   height="13.68"
   viewBox="0 0 16.844999 13.68"
   version="1.1"
   xml:space="preserve"
   style="clip-rule:evenodd;fill-rule:evenodd;stroke-linejoin:round;stroke-miterlimit:2"
   id="svg20568"
   sodipodi:docname="emojis.svg"
   xmlns:inkscape="http://www.inkscape.org/namespaces/inkscape"
   xmlns:sodipodi="http://sodipodi.sourceforge.net/DTD/sodipodi-0.dtd"
   xmlns="http://www.w3.org/2000/svg"
   xmlns:svg="http://www.w3.org/2000/svg"><defs
     id="defs20572" /><sodipodi:namedview
     id="namedview20570"
     pagecolor="#505050"
     bordercolor="#eeeeee"
     borderopacity="1"
     inkscape:pageshadow="0"
     inkscape:pageopacity="0"
     inkscape:pagecheckerboard="0" /><g
     transform="matrix(0.24,0,0,0.24,-736.3998,-498.33)"
     id="g20566"><g
       transform="matrix(62.5,0,0,62.5,3060.52,2120.25)"
       id="g10034"><path
         d="M 0.81,0.21 C 0.767,0.21 0.723,0.206 0.68,0.197 0.636,0.187 0.595,0.173 0.557,0.153 0.519,0.133 0.485,0.108 0.455,0.077 0.425,0.046 0.403,0.008 0.388,-0.036 0.362,-0.037 0.337,-0.04 0.313,-0.046 0.289,-0.052 0.267,-0.061 0.246,-0.072 0.225,-0.084 0.207,-0.099 0.19,-0.116 0.174,-0.134 0.16,-0.155 0.15,-0.18 0.142,-0.199 0.136,-0.219 0.131,-0.239 0.127,-0.259 0.125,-0.279 0.125,-0.3 c 0,-0.041 0.007,-0.079 0.022,-0.115 0.015,-0.035 0.035,-0.068 0.061,-0.098 0.025,-0.029 0.054,-0.056 0.088,-0.079 0.033,-0.024 0.069,-0.044 0.106,-0.06 0.038,-0.016 0.076,-0.029 0.115,-0.037 0.039,-0.008 0.076,-0.013 0.112,-0.013 0.035,0 0.069,0.004 0.101,0.012 0.033,0.008 0.063,0.02 0.091,0.036 0.027,0.016 0.052,0.036 0.074,0.06 0.022,0.025 0.04,0.054 0.054,0.087 0.012,0.029 0.018,0.059 0.018,0.089 v 0.012 c 0.019,0.004 0.039,0.009 0.06,0.015 0.021,0.006 0.042,0.014 0.063,0.024 0.021,0.009 0.041,0.02 0.06,0.032 0.019,0.013 0.036,0.027 0.05,0.043 0.015,0.016 0.026,0.033 0.035,0.052 0.009,0.02 0.013,0.041 0.013,0.064 v 0.035 c 0,0.04 -0.006,0.077 -0.018,0.11 C 1.218,0.002 1.202,0.031 1.181,0.057 1.161,0.083 1.136,0.106 1.108,0.125 1.08,0.144 1.05,0.16 1.018,0.173 0.985,0.186 0.951,0.195 0.916,0.201 0.88,0.207 0.845,0.21 0.81,0.21 Z"
         style="fill-rule:nonzero"
         id="path10024" /><path
         d="m 0.441,-0.176 c 0,-0.015 0.004,-0.03 0.011,-0.043 0.007,-0.014 0.017,-0.026 0.029,-0.037 0.012,-0.011 0.025,-0.02 0.04,-0.029 0.016,-0.009 0.031,-0.017 0.048,-0.023 0.016,-0.007 0.031,-0.012 0.047,-0.017 0.015,-0.004 0.029,-0.008 0.041,-0.01 0.025,-0.006 0.051,-0.01 0.076,-0.012 0.025,-0.003 0.051,-0.004 0.077,-0.004 0.025,0 0.05,0.001 0.076,0.004 0.025,0.002 0.05,0.006 0.075,0.012 0.012,0.002 0.026,0.006 0.042,0.01 0.015,0.005 0.031,0.01 0.047,0.017 0.016,0.006 0.032,0.014 0.047,0.023 0.015,0.009 0.029,0.018 0.041,0.029 0.012,0.011 0.021,0.023 0.029,0.037 0.007,0.013 0.011,0.028 0.011,0.043 0,0.029 -0.006,0.054 -0.019,0.076 -0.012,0.021 -0.028,0.04 -0.048,0.056 -0.02,0.015 -0.043,0.028 -0.069,0.039 C 1.016,0.005 0.99,0.014 0.962,0.02 0.935,0.026 0.908,0.031 0.882,0.033 0.855,0.036 0.831,0.037 0.81,0.037 0.788,0.037 0.764,0.036 0.737,0.033 0.71,0.031 0.683,0.026 0.656,0.02 0.629,0.014 0.602,0.006 0.576,-0.005 0.551,-0.015 0.528,-0.028 0.508,-0.044 0.488,-0.06 0.471,-0.079 0.459,-0.1 0.447,-0.122 0.441,-0.147 0.441,-0.176 Z"
         style="fill:#f7d7c4;fill-rule:nonzero"
         id="path10026" /><path
         d="m 1.178,-0.176 v 0.035 c 0,0.033 -0.005,0.063 -0.016,0.09 C 1.152,-0.025 1.138,-0.001 1.12,0.02 1.102,0.041 1.081,0.059 1.057,0.074 1.033,0.089 1.008,0.102 0.98,0.112 0.953,0.122 0.925,0.129 0.896,0.134 0.866,0.139 0.837,0.141 0.809,0.141 0.781,0.141 0.752,0.139 0.723,0.134 0.694,0.129 0.666,0.122 0.638,0.112 0.611,0.102 0.585,0.089 0.561,0.074 0.537,0.059 0.516,0.041 0.499,0.02 0.481,-0.001 0.467,-0.025 0.456,-0.051 0.446,-0.078 0.441,-0.108 0.441,-0.141 v -0.035 c 0,0.017 0.004,0.033 0.013,0.047 0.008,0.014 0.019,0.027 0.033,0.039 0.013,0.011 0.029,0.022 0.047,0.031 0.017,0.009 0.035,0.016 0.053,0.023 0.018,0.006 0.036,0.012 0.053,0.016 0.017,0.004 0.032,0.007 0.045,0.01 C 0.726,-0.003 0.768,0 0.81,0 0.851,0 0.893,-0.003 0.934,-0.01 0.947,-0.013 0.962,-0.016 0.979,-0.02 0.996,-0.025 1.014,-0.03 1.032,-0.037 1.05,-0.043 1.068,-0.051 1.085,-0.06 1.103,-0.069 1.118,-0.079 1.132,-0.09 1.146,-0.102 1.157,-0.115 1.165,-0.129 1.174,-0.143 1.178,-0.159 1.178,-0.176 Z M 0.884,-0.463 c 0,0.018 -0.004,0.037 -0.012,0.057 C 0.863,-0.387 0.853,-0.368 0.839,-0.349 0.826,-0.33 0.81,-0.311 0.792,-0.293 0.774,-0.276 0.756,-0.259 0.737,-0.244 0.718,-0.229 0.7,-0.215 0.681,-0.204 0.662,-0.193 0.645,-0.184 0.629,-0.178 0.612,-0.172 0.593,-0.166 0.572,-0.16 0.551,-0.155 0.53,-0.15 0.508,-0.147 0.486,-0.143 0.464,-0.14 0.443,-0.138 0.422,-0.136 0.402,-0.135 0.383,-0.135 0.368,-0.135 0.352,-0.136 0.335,-0.137 0.319,-0.139 0.302,-0.143 0.287,-0.148 0.271,-0.153 0.257,-0.16 0.244,-0.17 0.231,-0.179 0.221,-0.192 0.214,-0.208 0.201,-0.237 0.195,-0.268 0.195,-0.3 c 0,-0.034 0.006,-0.065 0.02,-0.095 0.013,-0.029 0.031,-0.056 0.053,-0.081 0.022,-0.024 0.048,-0.046 0.077,-0.066 0.03,-0.019 0.06,-0.035 0.092,-0.049 0.032,-0.013 0.065,-0.023 0.098,-0.03 0.033,-0.007 0.064,-0.011 0.093,-0.011 0.026,0 0.051,0.003 0.076,0.008 0.026,0.006 0.049,0.014 0.071,0.025 0.023,0.012 0.043,0.026 0.061,0.044 0.018,0.018 0.032,0.039 0.043,0.064 0.002,0.004 0.004,0.009 0.004,0.014 0.001,0.005 0.001,0.01 0.001,0.014 z"
         style="fill:#eba300;fill-rule:nonzero"
         id="path10028" /><path
         d="m 0.967,-0.176 c 0,0.01 -0.003,0.018 -0.009,0.025 -0.006,0.007 -0.014,0.013 -0.023,0.018 -0.009,0.005 -0.02,0.01 -0.032,0.013 -0.012,0.004 -0.024,0.007 -0.035,0.009 -0.012,0.002 -0.023,0.003 -0.033,0.004 -0.011,0.001 -0.019,0.002 -0.025,0.002 -0.011,0 -0.024,-0.001 -0.04,-0.003 C 0.754,-0.11 0.738,-0.113 0.721,-0.118 0.705,-0.122 0.691,-0.128 0.678,-0.136 0.665,-0.144 0.656,-0.154 0.653,-0.166 0.634,-0.158 0.614,-0.15 0.593,-0.142 0.573,-0.135 0.552,-0.129 0.531,-0.123 0.51,-0.118 0.488,-0.113 0.467,-0.11 0.445,-0.107 0.424,-0.105 0.403,-0.105 0.384,-0.105 0.366,-0.107 0.348,-0.11 0.329,-0.113 0.312,-0.118 0.296,-0.126 0.279,-0.133 0.264,-0.143 0.251,-0.155 0.238,-0.167 0.227,-0.182 0.218,-0.2 c 0.01,0.009 0.021,0.016 0.033,0.021 0.012,0.006 0.024,0.01 0.037,0.014 0.013,0.003 0.026,0.006 0.039,0.007 0.013,0.002 0.027,0.002 0.04,0.002 0.039,0 0.079,-0.005 0.119,-0.015 0.041,-0.01 0.079,-0.022 0.115,-0.037 C 0.619,-0.215 0.638,-0.224 0.658,-0.234 0.679,-0.244 0.7,-0.256 0.72,-0.269 0.741,-0.282 0.761,-0.296 0.78,-0.311 0.799,-0.327 0.816,-0.343 0.831,-0.361 0.846,-0.379 0.858,-0.398 0.867,-0.418 0.875,-0.439 0.88,-0.46 0.88,-0.482 L 0.879,-0.491 c 0.006,0.011 0.01,0.023 0.013,0.034 0.003,0.012 0.005,0.024 0.005,0.037 0,0.018 -0.003,0.035 -0.009,0.052 -0.006,0.016 -0.015,0.032 -0.025,0.047 -0.01,0.014 -0.021,0.028 -0.034,0.041 -0.013,0.013 -0.026,0.024 -0.04,0.035 0.004,0 0.007,-0.001 0.01,-0.001 H 0.81 c 0.006,0 0.014,0.001 0.024,0.002 0.011,0 0.022,0.002 0.033,0.004 0.012,0.002 0.024,0.005 0.036,0.008 0.011,0.004 0.022,0.008 0.032,0.013 0.009,0.005 0.017,0.012 0.023,0.019 0.006,0.007 0.009,0.015 0.009,0.024 z M 0.432,-0.352 c -0.007,0 -0.014,0 -0.022,-0.001 C 0.402,-0.354 0.395,-0.356 0.388,-0.359 0.381,-0.362 0.376,-0.366 0.371,-0.371 0.366,-0.376 0.364,-0.383 0.364,-0.391 0.364,-0.403 0.368,-0.415 0.377,-0.426 0.386,-0.438 0.397,-0.448 0.41,-0.458 0.422,-0.467 0.435,-0.476 0.449,-0.483 0.462,-0.49 0.474,-0.496 0.483,-0.5 0.5,-0.506 0.517,-0.511 0.535,-0.516 0.553,-0.52 0.571,-0.522 0.588,-0.522 c 0.007,0 0.014,0 0.021,0.001 0.008,0.001 0.016,0.003 0.023,0.006 0.007,0.003 0.012,0.007 0.017,0.012 0.005,0.005 0.007,0.012 0.007,0.02 0,0.008 -0.002,0.016 -0.006,0.024 C 0.646,-0.452 0.64,-0.444 0.633,-0.437 0.626,-0.43 0.619,-0.423 0.61,-0.417 0.602,-0.41 0.593,-0.404 0.584,-0.399 0.575,-0.393 0.567,-0.389 0.558,-0.385 0.55,-0.38 0.543,-0.377 0.537,-0.375 0.52,-0.368 0.503,-0.363 0.485,-0.358 0.467,-0.354 0.449,-0.352 0.432,-0.352 Z"
         style="fill:#d48c00;fill-rule:nonzero"
         id="path10030" /><path
         d="M 0.428,-0.386 C 0.438,-0.396 0.45,-0.405 0.464,-0.414 0.478,-0.423 0.493,-0.43 0.508,-0.437 0.524,-0.443 0.54,-0.448 0.556,-0.452 0.572,-0.455 0.587,-0.457 0.601,-0.457 H 0.605 C 0.595,-0.447 0.583,-0.438 0.569,-0.429 0.555,-0.42 0.541,-0.413 0.525,-0.406 0.509,-0.4 0.493,-0.395 0.477,-0.391 0.461,-0.388 0.446,-0.386 0.432,-0.386 Z m 0.284,0.228 c 0.016,-0.007 0.032,-0.011 0.048,-0.014 0.016,-0.002 0.033,-0.004 0.05,-0.004 0.016,0 0.033,0.002 0.049,0.004 0.017,0.003 0.032,0.008 0.048,0.014 -0.016,0.007 -0.031,0.011 -0.048,0.014 -0.016,0.002 -0.033,0.003 -0.049,0.003 -0.017,0 -0.034,-0.001 -0.05,-0.004 C 0.743,-0.147 0.727,-0.152 0.712,-0.158 Z"
         style="fill:#ffffff;fill-rule:nonzero"
         id="path10032" /></g></g></svg>
