<?xml version="1.0" encoding="UTF-8" standalone="no"?>
<svg
   width="16.844999"
   height="16.844999"
   viewBox="0 0 16.844999 16.844999"
   version="1.1"
   xml:space="preserve"
   style="clip-rule:evenodd;fill-rule:evenodd;stroke-linejoin:round;stroke-miterlimit:2"
   id="svg20568"
   sodipodi:docname="emojis.svg"
   xmlns:inkscape="http://www.inkscape.org/namespaces/inkscape"
   xmlns:sodipodi="http://sodipodi.sourceforge.net/DTD/sodipodi-0.dtd"
   xmlns="http://www.w3.org/2000/svg"
   xmlns:svg="http://www.w3.org/2000/svg"><defs
     id="defs20572" /><sodipodi:namedview
     id="namedview20570"
     pagecolor="#505050"
     bordercolor="#eeeeee"
     borderopacity="1"
     inkscape:pageshadow="0"
     inkscape:pageopacity="0"
     inkscape:pagecheckerboard="0" /><g
     transform="matrix(0.24,0,0,0.24,-663.363,-495.165)"
     id="g20566"><g
       transform="matrix(62.5,0,0,62.5,2756.2,2120.25)"
       id="g10000"><path
         d="M 0.715,0.21 C 0.673,0.21 0.632,0.206 0.592,0.196 0.552,0.187 0.514,0.173 0.477,0.155 0.441,0.137 0.406,0.115 0.375,0.089 0.343,0.062 0.314,0.033 0.289,-0.001 0.267,-0.007 0.249,-0.019 0.236,-0.039 0.221,-0.06 0.208,-0.083 0.197,-0.108 0.185,-0.132 0.176,-0.157 0.168,-0.183 0.161,-0.209 0.155,-0.235 0.152,-0.261 0.148,-0.288 0.146,-0.314 0.146,-0.341 0.146,-0.368 0.148,-0.396 0.152,-0.423 0.143,-0.432 0.137,-0.441 0.132,-0.452 0.127,-0.463 0.125,-0.475 0.125,-0.487 c 0,-0.007 0.001,-0.015 0.003,-0.022 0.008,-0.032 0.019,-0.062 0.033,-0.092 0.014,-0.03 0.031,-0.058 0.05,-0.085 0.019,-0.027 0.041,-0.052 0.064,-0.076 0.024,-0.024 0.049,-0.045 0.076,-0.065 0.027,-0.019 0.055,-0.036 0.085,-0.05 0.03,-0.014 0.061,-0.025 0.092,-0.033 0.007,-0.002 0.015,-0.003 0.023,-0.003 0.012,0 0.023,0.003 0.034,0.007 0.012,0.005 0.021,0.012 0.029,0.02 0.014,-0.002 0.028,-0.004 0.041,-0.005 0.014,-0.001 0.028,-0.001 0.042,-0.001 0.026,0 0.052,0.002 0.079,0.006 0.027,0.004 0.053,0.009 0.079,0.017 0.026,0.007 0.051,0.017 0.075,0.028 0.025,0.011 0.048,0.024 0.069,0.039 0.019,0.014 0.032,0.031 0.038,0.053 0.033,0.026 0.063,0.054 0.089,0.086 0.026,0.032 0.049,0.066 0.067,0.102 0.018,0.037 0.031,0.075 0.041,0.115 0.009,0.04 0.014,0.081 0.014,0.123 v 0.01 c 0,0.006 0,0.012 0,0.018 C 1.247,-0.289 1.246,-0.283 1.245,-0.278 1.242,-0.264 1.236,-0.25 1.229,-0.239 1.222,-0.227 1.212,-0.217 1.202,-0.208 1.191,-0.2 1.179,-0.193 1.166,-0.189 1.153,-0.184 1.139,-0.182 1.125,-0.182 1.107,-0.182 1.091,-0.185 1.076,-0.191 1.061,-0.198 1.048,-0.207 1.037,-0.218 1.026,-0.229 1.017,-0.242 1.011,-0.257 1.004,-0.272 1.001,-0.288 1.001,-0.305 1.001,-0.32 0.998,-0.334 0.993,-0.348 0.988,-0.362 0.981,-0.374 0.972,-0.385 0.963,-0.396 0.952,-0.405 0.94,-0.413 0.928,-0.42 0.914,-0.426 0.899,-0.429 L 0.885,-0.4 0.876,-0.398 c -0.01,0.002 -0.018,0.004 -0.025,0.006 -0.007,0.002 -0.013,0.005 -0.018,0.008 -0.006,0.003 -0.012,0.007 -0.017,0.011 -0.006,0.005 -0.013,0.012 -0.021,0.02 0,0.016 -0.003,0.03 -0.009,0.043 -0.005,0.013 -0.013,0.025 -0.023,0.035 -0.01,0.01 -0.022,0.018 -0.035,0.024 C 0.715,-0.246 0.7,-0.243 0.685,-0.243 0.677,-0.235 0.67,-0.228 0.665,-0.222 0.66,-0.216 0.656,-0.211 0.653,-0.205 0.65,-0.199 0.648,-0.193 0.646,-0.186 0.644,-0.179 0.642,-0.171 0.64,-0.16 l -0.002,0.008 -0.029,0.014 c 0.003,0.014 0.008,0.028 0.016,0.04 0.007,0.013 0.017,0.023 0.028,0.033 0.01,0.009 0.023,0.016 0.036,0.021 0.014,0.005 0.028,0.007 0.043,0.007 0.017,0 0.033,0.004 0.049,0.01 C 0.796,-0.02 0.809,-0.012 0.82,0 0.831,0.011 0.84,0.024 0.846,0.039 0.853,0.054 0.856,0.07 0.856,0.087 0.856,0.102 0.853,0.116 0.848,0.13 0.843,0.144 0.835,0.156 0.825,0.168 0.816,0.179 0.805,0.188 0.792,0.196 0.779,0.203 0.765,0.208 0.75,0.209 0.746,0.21 0.743,0.21 0.74,0.21 Z"
         style="fill-rule:nonzero"
         id="path9994" /><path
         d="m 1.177,-0.309 c 0,0.016 -0.004,0.029 -0.013,0.04 -0.009,0.012 -0.022,0.018 -0.039,0.018 -0.008,0 -0.015,-0.002 -0.021,-0.005 C 1.097,-0.258 1.091,-0.262 1.086,-0.267 1.082,-0.272 1.078,-0.278 1.075,-0.284 1.072,-0.291 1.071,-0.298 1.071,-0.305 1.071,-0.332 1.066,-0.358 1.055,-0.381 1.045,-0.405 1.031,-0.426 1.013,-0.444 0.996,-0.461 0.975,-0.475 0.951,-0.486 0.927,-0.496 0.902,-0.501 0.875,-0.501 H 0.866 c -0.003,0 -0.006,0 -0.009,0.001 l -0.02,0.04 c -0.011,0.002 -0.022,0.006 -0.032,0.011 -0.01,0.005 -0.02,0.011 -0.029,0.018 -0.003,-0.001 -0.007,-0.002 -0.01,-0.002 -0.005,0 -0.01,0.001 -0.016,0.004 -0.006,0.002 -0.011,0.005 -0.015,0.008 l -0.016,0.045 c 0.002,0.003 0.003,0.007 0.004,0.011 0.001,0.004 0.002,0.008 0.002,0.012 0,0.011 -0.004,0.02 -0.012,0.028 -0.008,0.008 -0.017,0.012 -0.028,0.012 -0.004,0 -0.008,0 -0.012,-0.001 C 0.669,-0.315 0.665,-0.317 0.661,-0.318 l -0.057,0.009 c -0.002,0.003 -0.004,0.006 -0.005,0.01 0,0.004 -0.001,0.008 -0.001,0.011 0,0.01 0.003,0.019 0.008,0.027 -0.007,0.009 -0.013,0.018 -0.018,0.028 -0.005,0.011 -0.008,0.021 -0.011,0.032 -0.008,0.004 -0.015,0.008 -0.022,0.011 -0.007,0.002 -0.013,0.006 -0.017,0.01 -0.005,0.004 -0.009,0.009 -0.012,0.014 -0.003,0.006 -0.004,0.014 -0.004,0.024 0,0.009 0.002,0.017 0.005,0.023 0.003,0.005 0.009,0.01 0.018,0.014 0.006,0.021 0.015,0.039 0.028,0.056 0.012,0.018 0.026,0.032 0.043,0.044 0.016,0.012 0.035,0.022 0.054,0.028 0.02,0.007 0.041,0.01 0.062,0.01 0.008,0 0.015,0.002 0.021,0.004 0.007,0.003 0.013,0.007 0.018,0.012 0.004,0.005 0.008,0.01 0.011,0.017 0.003,0.006 0.004,0.013 0.004,0.021 0,0.014 -0.004,0.025 -0.012,0.034 C 0.766,0.13 0.756,0.136 0.743,0.139 0.742,0.139 0.741,0.14 0.74,0.14 c -0.002,0 -0.003,0 -0.004,0 H 0.715 C 0.682,0.14 0.649,0.137 0.617,0.13 0.584,0.123 0.554,0.113 0.524,0.099 0.495,0.086 0.467,0.07 0.44,0.051 0.414,0.031 0.389,0.009 0.367,-0.016 0.37,-0.024 0.372,-0.031 0.372,-0.038 0.372,-0.045 0.371,-0.051 0.368,-0.055 0.365,-0.06 0.361,-0.063 0.356,-0.066 0.352,-0.069 0.347,-0.07 0.341,-0.072 0.335,-0.073 0.33,-0.074 0.324,-0.074 0.321,-0.073 0.319,-0.072 0.317,-0.071 0.315,-0.069 0.312,-0.069 0.31,-0.069 0.303,-0.069 0.298,-0.072 0.294,-0.077 0.281,-0.095 0.27,-0.115 0.26,-0.137 0.25,-0.158 0.242,-0.18 0.236,-0.203 0.229,-0.226 0.224,-0.249 0.221,-0.272 0.217,-0.295 0.216,-0.318 0.216,-0.341 c 0,-0.008 0,-0.017 0.001,-0.025 0,-0.008 0.001,-0.016 0.001,-0.025 0.008,-0.003 0.014,-0.008 0.02,-0.015 0.006,-0.006 0.009,-0.014 0.009,-0.023 0,-0.006 -0.002,-0.012 -0.006,-0.017 C 0.238,-0.452 0.235,-0.457 0.231,-0.461 0.228,-0.462 0.224,-0.463 0.22,-0.465 0.216,-0.466 0.212,-0.467 0.208,-0.469 0.205,-0.47 0.201,-0.473 0.199,-0.475 0.197,-0.478 0.195,-0.482 0.195,-0.486 c 0,-0.002 0,-0.004 0.001,-0.005 0.011,-0.042 0.028,-0.082 0.05,-0.12 0.022,-0.038 0.048,-0.072 0.079,-0.102 0.03,-0.03 0.064,-0.056 0.102,-0.079 0.037,-0.022 0.077,-0.038 0.12,-0.05 0.001,0 0.002,0 0.004,0 0.005,0 0.008,0.001 0.011,0.004 0.003,0.002 0.005,0.005 0.007,0.009 0.001,0.003 0.003,0.007 0.004,0.011 0.001,0.004 0.002,0.008 0.003,0.011 0.004,0.005 0.009,0.009 0.014,0.012 0.005,0.004 0.01,0.005 0.017,0.005 0.009,0 0.018,-0.002 0.024,-0.008 0.007,-0.005 0.012,-0.013 0.016,-0.021 0.008,-0.001 0.017,-0.002 0.025,-0.002 0.008,-0.001 0.016,-0.001 0.025,-0.001 0.022,0 0.045,0.002 0.068,0.005 0.024,0.004 0.047,0.009 0.069,0.015 0.023,0.007 0.045,0.015 0.067,0.025 0.021,0.009 0.041,0.021 0.059,0.034 0.006,0.004 0.009,0.009 0.009,0.015 0,0.003 -0.001,0.005 -0.002,0.007 -0.001,0.003 -0.002,0.005 -0.004,0.007 0,0.002 0,0.005 0,0.007 -0.001,0.002 -0.001,0.005 -0.001,0.007 0,0.011 0.003,0.02 0.009,0.026 0.006,0.007 0.015,0.01 0.026,0.01 0.009,0 0.017,-0.002 0.024,-0.006 0.025,0.022 0.047,0.046 0.067,0.073 0.019,0.026 0.035,0.054 0.049,0.084 0.013,0.029 0.023,0.06 0.03,0.092 0.007,0.032 0.011,0.065 0.011,0.098 z"
         style="fill:#eba300;fill-rule:nonzero"
         id="path9996" /><path
         d="m 0.23,-0.461 0.431,0.143 c -0.009,0.009 -0.019,0.018 -0.028,0.027 -0.01,0.01 -0.019,0.019 -0.027,0.03 L 0.218,-0.391 C 0.22,-0.403 0.221,-0.415 0.223,-0.427 0.225,-0.438 0.228,-0.45 0.23,-0.461 Z m 0.546,0.03 c -0.01,0.007 -0.02,0.016 -0.029,0.026 -0.009,0.01 -0.018,0.019 -0.027,0.029 L 0.576,-0.807 C 0.588,-0.81 0.6,-0.812 0.611,-0.814 0.623,-0.816 0.635,-0.818 0.647,-0.819 Z m -0.239,0.268 c 0,0.02 0.002,0.039 0.008,0.058 L 0.368,-0.017 C 0.36,-0.026 0.352,-0.035 0.345,-0.044 0.338,-0.054 0.331,-0.064 0.324,-0.074 l 0.213,-0.107 c 0,0.003 0,0.006 0,0.009 z M 1.021,-0.67 0.932,-0.493 C 0.924,-0.495 0.915,-0.497 0.905,-0.499 0.894,-0.5 0.884,-0.501 0.875,-0.501 h -0.01 c -0.003,0 -0.005,0 -0.008,0.001 l 0.106,-0.213 c 0.011,0.006 0.021,0.013 0.03,0.02 0.01,0.007 0.019,0.015 0.028,0.023 z"
         style="fill:#ffc83d;fill-rule:nonzero"
         id="path9998" /></g></g></svg>
