<?xml version="1.0" encoding="UTF-8" standalone="no"?>
<svg
   width="16.844999"
   height="16.844999"
   viewBox="0 0 16.844999 16.844999"
   version="1.1"
   xml:space="preserve"
   style="clip-rule:evenodd;fill-rule:evenodd;stroke-linejoin:round;stroke-miterlimit:2"
   id="svg20568"
   sodipodi:docname="emojis.svg"
   xmlns:inkscape="http://www.inkscape.org/namespaces/inkscape"
   xmlns:sodipodi="http://sodipodi.sourceforge.net/DTD/sodipodi-0.dtd"
   xmlns="http://www.w3.org/2000/svg"
   xmlns:svg="http://www.w3.org/2000/svg"><defs
     id="defs20572" /><sodipodi:namedview
     id="namedview20570"
     pagecolor="#505050"
     bordercolor="#eeeeee"
     borderopacity="1"
     inkscape:pageshadow="0"
     inkscape:pageopacity="0"
     inkscape:pagecheckerboard="0" /><g
     transform="matrix(0.24,0,0,0.24,-13.213584,-512.1354)"
     id="g20566"><g
       transform="matrix(62.5,0,0,62.5,47.2441,2190.96)"
       id="g10074"><path
         d="M 0.265,0.21 C 0.246,0.21 0.228,0.207 0.211,0.199 0.194,0.192 0.179,0.182 0.166,0.169 0.153,0.157 0.143,0.142 0.136,0.125 0.129,0.108 0.125,0.09 0.125,0.07 v -0.527 c 0,-0.012 0.002,-0.024 0.005,-0.036 0.004,-0.012 0.008,-0.023 0.014,-0.034 0.006,-0.011 0.014,-0.02 0.023,-0.029 0.008,-0.009 0.018,-0.016 0.029,-0.022 l 0.59,-0.319 C 0.791,-0.9 0.796,-0.902 0.802,-0.904 0.809,-0.906 0.815,-0.908 0.821,-0.909 0.827,-0.91 0.834,-0.911 0.84,-0.912 c 0.006,0 0.012,-0.001 0.018,-0.001 0.011,0 0.022,0.002 0.034,0.004 0.012,0.003 0.024,0.006 0.036,0.011 0.011,0.005 0.022,0.01 0.032,0.017 0.011,0.007 0.019,0.015 0.025,0.024 l 0.235,0.316 c 0.009,0.013 0.016,0.026 0.021,0.04 0.005,0.014 0.007,0.029 0.007,0.044 V 0.07 C 1.248,0.09 1.244,0.108 1.237,0.125 1.229,0.141 1.219,0.156 1.206,0.169 1.193,0.182 1.178,0.192 1.161,0.199 1.144,0.207 1.126,0.21 1.107,0.21 Z"
         style="fill-rule:nonzero"
         id="path10064" /><path
         d="m 0.23,-0.517 0.283,-0.152 c 0,-0.001 0.002,-0.001 0.004,-0.002 l 0.022,-0.004 c 0.019,-0.006 0.037,-0.013 0.054,-0.023 0.008,-0.004 0.016,-0.009 0.023,-0.014 0.008,-0.006 0.015,-0.011 0.022,-0.017 0.003,-0.003 0.007,-0.006 0.01,-0.01 0.003,-0.004 0.006,-0.007 0.01,-0.01 0.01,-0.007 0.021,-0.013 0.033,-0.019 0.011,-0.006 0.023,-0.011 0.034,-0.017 0.015,-0.008 0.031,-0.016 0.046,-0.025 0.015,-0.008 0.03,-0.016 0.046,-0.024 0.006,-0.003 0.013,-0.005 0.02,-0.006 0.007,-0.002 0.014,-0.002 0.021,-0.002 0.006,0 0.012,0 0.019,0.002 0.007,0.001 0.014,0.003 0.021,0.006 0.007,0.003 0.014,0.006 0.02,0.01 0.006,0.003 0.011,0.008 0.014,0.012 l 0.232,0.313 z"
         style="fill:#eba300;fill-rule:nonzero"
         id="path10066" /><path
         d="m 1.107,-0.526 c 0.01,0 0.019,0.001 0.028,0.005 0.008,0.004 0.016,0.009 0.022,0.015 0.006,0.006 0.011,0.014 0.015,0.022 0.004,0.009 0.006,0.018 0.006,0.027 v 0.281 c 0,0.006 -10e-4,0.012 -0.003,0.018 -0.002,0.006 -0.004,0.012 -0.005,0.017 -0.002,0.012 -0.004,0.023 -0.005,0.035 -0.001,0.012 -0.001,0.024 -0.001,0.036 0,0.011 0,0.023 0.001,0.035 C 1.166,-0.023 1.168,-0.011 1.17,0 1.171,0.006 1.173,0.012 1.175,0.018 1.177,0.023 1.178,0.029 1.178,0.035 V 0.07 C 1.178,0.08 1.176,0.089 1.172,0.098 1.168,0.106 1.163,0.114 1.157,0.12 1.151,0.126 1.143,0.131 1.135,0.135 1.126,0.138 1.117,0.14 1.107,0.14 H 0.265 C 0.255,0.14 0.246,0.138 0.238,0.135 0.229,0.131 0.222,0.126 0.216,0.12 0.209,0.114 0.204,0.106 0.201,0.098 0.197,0.089 0.195,0.08 0.195,0.07 v -0.527 c 0,-0.009 0.002,-0.018 0.006,-0.027 0.003,-0.008 0.008,-0.016 0.015,-0.022 0.006,-0.006 0.013,-0.011 0.022,-0.015 0.008,-0.004 0.017,-0.005 0.027,-0.005 z"
         style="fill:#ffc83d;fill-rule:nonzero"
         id="path10068" /><path
         d="m 0.844,-0.737 c 0.007,0 0.014,0.001 0.021,0.004 0.006,0.003 0.011,0.006 0.016,0.011 0.005,0.005 0.009,0.011 0.012,0.017 0.003,0.007 0.004,0.013 0.004,0.02 0,0.008 -0.001,0.015 -0.004,0.021 C 0.89,-0.657 0.886,-0.652 0.882,-0.647 0.877,-0.642 0.871,-0.639 0.865,-0.636 0.858,-0.633 0.851,-0.632 0.844,-0.632 0.837,-0.632 0.83,-0.633 0.823,-0.636 0.817,-0.639 0.812,-0.643 0.807,-0.647 0.803,-0.652 0.799,-0.658 0.796,-0.664 0.793,-0.671 0.792,-0.677 0.792,-0.685 c 0,-0.007 0.001,-0.013 0.004,-0.02 0.003,-0.006 0.007,-0.012 0.011,-0.017 0.005,-0.005 0.011,-0.008 0.017,-0.011 0.006,-0.003 0.013,-0.004 0.02,-0.004 z M 0.513,-0.67 0.658,-0.749 c 0.009,0.009 0.016,0.019 0.021,0.03 0.005,0.01 0.008,0.022 0.008,0.034 0,0.013 -0.003,0.024 -0.007,0.035 -0.005,0.01 -0.011,0.02 -0.019,0.028 -0.008,0.008 -0.017,0.014 -0.028,0.018 -0.011,0.005 -0.022,0.007 -0.034,0.007 -0.011,0 -0.021,-0.002 -0.031,-0.005 C 0.559,-0.606 0.55,-0.611 0.542,-0.618 0.535,-0.624 0.528,-0.632 0.523,-0.641 0.518,-0.65 0.514,-0.66 0.513,-0.67 Z"
         style="fill:#d48c00;fill-rule:nonzero"
         id="path10070" /><path
         d="m 0.406,-0.105 c 0.01,0 0.019,0.001 0.027,0.005 0.009,0.004 0.016,0.009 0.022,0.015 0.007,0.007 0.012,0.014 0.015,0.022 0.004,0.009 0.006,0.018 0.006,0.028 0,0.01 -0.002,0.019 -0.006,0.027 C 0.467,0.001 0.462,0.008 0.455,0.014 0.449,0.021 0.442,0.026 0.433,0.03 0.425,0.033 0.416,0.035 0.406,0.035 0.396,0.035 0.387,0.033 0.378,0.03 0.37,0.026 0.363,0.021 0.356,0.014 0.35,0.008 0.345,0.001 0.341,-0.008 0.337,-0.016 0.335,-0.025 0.335,-0.035 c 0,-0.01 0.002,-0.019 0.006,-0.027 C 0.345,-0.071 0.35,-0.078 0.356,-0.085 0.363,-0.091 0.37,-0.096 0.378,-0.1 0.387,-0.104 0.396,-0.105 0.406,-0.105 Z m 0.667,0.035 c 0,-0.015 0.003,-0.029 0.008,-0.041 0.006,-0.013 0.013,-0.024 0.023,-0.034 0.009,-0.009 0.02,-0.017 0.033,-0.022 0.012,-0.006 0.026,-0.009 0.041,-0.009 V 0.035 C 1.163,0.035 1.149,0.032 1.137,0.027 1.124,0.021 1.113,0.014 1.104,0.004 1.094,-0.005 1.087,-0.017 1.081,-0.029 1.076,-0.042 1.073,-0.056 1.073,-0.07 Z M 0.529,-0.316 c 0.007,0 0.014,0.001 0.02,0.004 0.007,0.003 0.012,0.007 0.017,0.012 0.004,0.005 0.008,0.01 0.011,0.017 0.003,0.006 0.004,0.013 0.004,0.02 0,0.007 -0.001,0.014 -0.004,0.02 C 0.574,-0.237 0.57,-0.231 0.566,-0.226 0.561,-0.221 0.555,-0.217 0.549,-0.215 0.543,-0.212 0.536,-0.21 0.529,-0.21 0.522,-0.21 0.515,-0.212 0.509,-0.215 0.502,-0.217 0.497,-0.221 0.492,-0.226 0.487,-0.231 0.483,-0.237 0.48,-0.243 0.477,-0.249 0.476,-0.256 0.476,-0.263 0.476,-0.27 0.477,-0.277 0.48,-0.284 0.483,-0.29 0.487,-0.296 0.491,-0.301 0.496,-0.305 0.502,-0.309 0.508,-0.312 0.514,-0.315 0.521,-0.316 0.529,-0.316 Z M 0.81,-0.351 c 0.016,0 0.032,0.003 0.047,0.01 0.015,0.006 0.028,0.015 0.039,0.026 0.011,0.012 0.02,0.025 0.026,0.039 0.007,0.015 0.01,0.031 0.01,0.048 0,0.017 -0.003,0.033 -0.01,0.048 -0.006,0.014 -0.015,0.027 -0.026,0.038 -0.011,0.011 -0.024,0.02 -0.039,0.027 -0.015,0.006 -0.031,0.01 -0.047,0.01 -0.017,0 -0.033,-0.004 -0.048,-0.01 C 0.747,-0.121 0.734,-0.13 0.723,-0.141 0.712,-0.152 0.703,-0.165 0.696,-0.18 0.69,-0.195 0.687,-0.211 0.687,-0.228 c 0,-0.017 0.003,-0.033 0.009,-0.048 0.007,-0.015 0.016,-0.028 0.027,-0.039 0.011,-0.011 0.024,-0.02 0.039,-0.026 0.015,-0.007 0.031,-0.01 0.048,-0.01 z m 0.21,-0.106 c 0.007,0 0.014,0.002 0.02,0.005 0.007,0.002 0.012,0.006 0.017,0.011 0.005,0.005 0.009,0.011 0.012,0.017 0.002,0.006 0.004,0.013 0.004,0.02 0,0.007 -0.002,0.014 -0.004,0.02 -0.003,0.007 -0.007,0.012 -0.012,0.017 -0.005,0.005 -0.01,0.009 -0.017,0.012 -0.006,0.003 -0.013,0.004 -0.02,0.004 -0.007,0 -0.014,-0.001 -0.021,-0.004 C 0.993,-0.358 0.987,-0.362 0.983,-0.366 0.978,-0.371 0.974,-0.377 0.971,-0.383 0.969,-0.389 0.967,-0.396 0.967,-0.404 c 0,-0.007 0.002,-0.014 0.004,-0.02 C 0.974,-0.43 0.978,-0.436 0.983,-0.441 0.988,-0.446 0.993,-0.45 1,-0.452 1.006,-0.455 1.013,-0.457 1.02,-0.457 Z M 0.3,-0.421 c 0.01,0 0.018,0.003 0.025,0.01 0.007,0.007 0.01,0.015 0.01,0.025 0,0.01 -0.003,0.018 -0.01,0.025 -0.007,0.007 -0.015,0.01 -0.025,0.01 -0.009,0 -0.017,-0.004 -0.024,-0.011 -0.007,-0.007 -0.011,-0.015 -0.011,-0.024 0,-0.01 0.004,-0.018 0.011,-0.025 0.007,-0.007 0.015,-0.01 0.024,-0.01 z"
         style="fill:#eba300;fill-rule:nonzero"
         id="path10072" /></g></g></svg>
