<?xml version="1.0" encoding="UTF-8" standalone="no"?>
<svg
   width="16.844999"
   height="16.844999"
   viewBox="0 0 16.844999 16.844999"
   version="1.1"
   xml:space="preserve"
   style="clip-rule:evenodd;fill-rule:evenodd;stroke-linejoin:round;stroke-miterlimit:2"
   id="svg20568"
   sodipodi:docname="emojis.svg"
   xmlns:inkscape="http://www.inkscape.org/namespaces/inkscape"
   xmlns:sodipodi="http://sodipodi.sourceforge.net/DTD/sodipodi-0.dtd"
   xmlns="http://www.w3.org/2000/svg"
   xmlns:svg="http://www.w3.org/2000/svg"><defs
     id="defs20572" /><sodipodi:namedview
     id="namedview20570"
     pagecolor="#505050"
     bordercolor="#eeeeee"
     borderopacity="1"
     inkscape:pageshadow="0"
     inkscape:pageopacity="0"
     inkscape:pagecheckerboard="0" /><g
     transform="matrix(0.24,0,0,0.24,-33.8094,-512.1354)"
     id="g20566"><g
       transform="matrix(62.5,0,0,62.5,133.06,2190.96)"
       id="g10086"><path
         d="m 0.269,-0.562 c -0.02,0 -0.039,-0.003 -0.056,-0.01 C 0.195,-0.579 0.18,-0.589 0.167,-0.602 0.154,-0.614 0.144,-0.629 0.136,-0.646 0.129,-0.663 0.125,-0.682 0.125,-0.702 c 0,-0.014 0.002,-0.027 0.006,-0.04 0.004,-0.013 0.009,-0.025 0.016,-0.036 0.008,-0.011 0.016,-0.021 0.026,-0.03 0.01,-0.009 0.022,-0.017 0.035,-0.022 0.005,-0.012 0.012,-0.024 0.021,-0.034 0.009,-0.01 0.019,-0.019 0.031,-0.026 0.011,-0.007 0.023,-0.013 0.036,-0.017 0.013,-0.004 0.026,-0.006 0.039,-0.006 0.02,0 0.039,0.004 0.056,0.012 0.017,0.007 0.032,0.017 0.045,0.03 0.012,0.013 0.022,0.029 0.029,0.046 0.007,0.017 0.011,0.036 0.011,0.056 0.028,-0.012 0.056,-0.022 0.086,-0.028 0.029,-0.007 0.059,-0.01 0.089,-0.01 0.04,0 0.076,0.008 0.108,0.025 0.033,0.017 0.061,0.04 0.087,0.07 l 0.005,0.006 c 0.008,0.012 0.015,0.025 0.02,0.039 0.006,0.014 0.012,0.027 0.018,0.04 0.007,0.013 0.014,0.026 0.023,0.037 0.009,0.011 0.02,0.02 0.034,0.027 l 0.079,0.04 c 0.011,0.005 0.021,0.012 0.032,0.021 0.026,0.023 0.047,0.051 0.063,0.084 0.015,0.032 0.023,0.066 0.023,0.102 0,0.031 -0.004,0.061 -0.01,0.09 -0.007,0.029 -0.016,0.058 -0.029,0.085 0.02,0 0.039,0.004 0.056,0.011 0.018,0.007 0.033,0.017 0.046,0.03 0.013,0.012 0.023,0.027 0.031,0.044 C 1.244,-0.038 1.248,-0.02 1.248,0 1.248,0.014 1.246,0.027 1.242,0.04 1.238,0.053 1.233,0.065 1.226,0.076 1.218,0.087 1.21,0.097 1.199,0.106 1.189,0.115 1.178,0.122 1.166,0.128 1.16,0.141 1.153,0.152 1.144,0.162 1.135,0.172 1.125,0.181 1.114,0.188 1.103,0.195 1.091,0.201 1.078,0.205 1.065,0.208 1.051,0.21 1.038,0.21 1.017,0.21 0.999,0.207 0.982,0.199 0.965,0.192 0.95,0.181 0.937,0.168 0.925,0.155 0.915,0.14 0.908,0.123 0.901,0.105 0.897,0.087 0.897,0.067 0.869,0.08 0.841,0.089 0.812,0.095 0.782,0.102 0.752,0.105 0.722,0.105 0.69,0.105 0.66,0.099 0.632,0.088 0.604,0.076 0.578,0.06 0.555,0.039 0.55,0.034 0.546,0.03 0.542,0.026 0.538,0.021 0.534,0.017 0.529,0.012 0.461,-0.057 0.392,-0.125 0.323,-0.194 0.319,-0.198 0.314,-0.203 0.31,-0.207 0.305,-0.21 0.301,-0.215 0.297,-0.219 0.276,-0.242 0.259,-0.268 0.248,-0.296 0.236,-0.325 0.23,-0.355 0.23,-0.386 c 0,-0.031 0.004,-0.061 0.01,-0.09 0.006,-0.029 0.016,-0.058 0.029,-0.086 z"
         style="fill-rule:nonzero"
         id="path10076" /><path
         d="M 0.928,-0.038 C 0.926,-0.039 0.922,-0.041 0.917,-0.042 0.911,-0.044 0.906,-0.047 0.9,-0.049 0.895,-0.052 0.89,-0.054 0.885,-0.056 0.88,-0.058 0.877,-0.06 0.876,-0.062 L 0.809,-0.136 c -0.005,-0.005 -0.007,-0.012 -0.007,-0.02 0,-0.01 0.002,-0.02 0.006,-0.03 0.005,-0.009 0.011,-0.018 0.018,-0.026 0.007,-0.007 0.016,-0.014 0.025,-0.018 0.01,-0.005 0.02,-0.007 0.03,-0.007 0.003,0 0.007,0 0.011,0.002 0.004,10e-4 0.008,0.003 0.012,0.005 0.004,0.002 0.007,0.005 0.011,0.007 0.003,0.003 0.006,0.005 0.009,0.008 l 0.066,0.063 c 0.002,0.001 0.003,0.004 0.004,0.008 0.002,0.003 0.003,0.008 0.003,0.012 0.001,0.004 0.002,0.009 0.002,0.013 0,0.004 0.001,0.008 0.001,0.01 0.015,0.012 0.032,0.022 0.051,0.029 0.018,0.006 0.037,0.01 0.056,0.01 0.01,0 0.019,0.002 0.028,0.005 0.008,0.004 0.016,0.009 0.022,0.015 0.006,0.007 0.011,0.014 0.015,0.023 C 1.176,-0.019 1.178,-0.01 1.178,0 1.178,0.01 1.176,0.019 1.172,0.027 1.168,0.036 1.163,0.043 1.157,0.05 1.151,0.056 1.143,0.061 1.135,0.065 1.126,0.068 1.117,0.07 1.107,0.07 1.107,0.08 1.106,0.089 1.102,0.098 1.098,0.106 1.094,0.114 1.087,0.12 1.081,0.126 1.073,0.131 1.065,0.135 1.056,0.138 1.047,0.14 1.038,0.14 1.028,0.14 1.019,0.138 1.01,0.135 1.002,0.131 0.994,0.126 0.988,0.12 0.982,0.114 0.977,0.106 0.973,0.098 0.969,0.089 0.967,0.08 0.967,0.07 0.967,0.05 0.964,0.031 0.957,0.013 0.95,-0.005 0.941,-0.022 0.928,-0.038 Z M 0.406,-0.562 C 0.388,-0.583 0.367,-0.6 0.344,-0.613 0.32,-0.625 0.293,-0.632 0.265,-0.632 0.255,-0.632 0.246,-0.634 0.238,-0.637 0.229,-0.641 0.222,-0.646 0.216,-0.653 0.209,-0.659 0.204,-0.666 0.201,-0.675 0.197,-0.683 0.195,-0.692 0.195,-0.702 c 0,-0.01 0.002,-0.019 0.006,-0.027 0.003,-0.009 0.008,-0.016 0.015,-0.023 0.006,-0.006 0.013,-0.011 0.022,-0.015 0.008,-0.003 0.017,-0.005 0.027,-0.005 0,-0.01 0.002,-0.019 0.006,-0.027 0.003,-0.009 0.009,-0.016 0.015,-0.023 0.006,-0.006 0.014,-0.011 0.022,-0.015 0.009,-0.003 0.018,-0.005 0.027,-0.005 0.01,0 0.019,0.002 0.028,0.005 0.008,0.004 0.016,0.009 0.022,0.015 0.006,0.007 0.011,0.014 0.015,0.023 0.004,0.008 0.006,0.017 0.006,0.027 0,0.028 0.006,0.054 0.019,0.078 0.013,0.024 0.03,0.045 0.051,0.062 z"
         style="fill:#f2f2f2;fill-rule:nonzero"
         id="path10078" /><path
         d="M 0.722,0.035 C 0.7,0.035 0.679,0.031 0.659,0.023 0.639,0.015 0.621,0.003 0.604,-0.011 0.6,-0.015 0.596,-0.019 0.592,-0.023 0.589,-0.027 0.585,-0.031 0.581,-0.035 L 0.371,-0.246 C 0.367,-0.25 0.363,-0.253 0.358,-0.257 0.354,-0.26 0.35,-0.264 0.347,-0.269 0.332,-0.285 0.321,-0.303 0.313,-0.323 0.304,-0.343 0.3,-0.364 0.3,-0.386 c 0,-0.032 0.004,-0.064 0.013,-0.093 0.008,-0.03 0.02,-0.058 0.035,-0.084 0.015,-0.027 0.034,-0.05 0.055,-0.072 0.021,-0.021 0.045,-0.039 0.071,-0.054 0.026,-0.016 0.054,-0.028 0.084,-0.036 0.03,-0.008 0.061,-0.012 0.093,-0.012 0.024,0 0.047,0.004 0.068,0.014 0.022,0.01 0.041,0.023 0.058,0.039 0,0.001 0.001,0.002 0.003,0.004 0.001,0.001 0.003,0.003 0.005,0.004 0.001,0.002 0.003,0.004 0.004,0.006 0.002,0.001 0.003,0.002 0.003,0.003 0.007,0.015 0.015,0.029 0.022,0.044 0.007,0.015 0.014,0.03 0.022,0.044 0.008,0.017 0.018,0.031 0.03,0.042 0.011,0.012 0.024,0.022 0.038,0.03 0.013,0.009 0.028,0.017 0.043,0.024 0.016,0.007 0.031,0.015 0.047,0.023 0.003,0.001 0.005,0.003 0.008,0.004 0.003,0.002 0.005,0.004 0.008,0.006 0.019,0.017 0.034,0.037 0.046,0.06 0.011,0.024 0.017,0.048 0.017,0.074 -0.006,-0.002 -0.013,-0.003 -0.021,-0.003 -0.008,0 -0.015,0 -0.021,0 -0.028,0 -0.055,0.004 -0.081,0.011 -0.027,0.008 -0.051,0.019 -0.075,0.033 -0.023,0.014 -0.044,0.03 -0.063,0.05 -0.02,0.019 -0.036,0.041 -0.05,0.064 -0.014,0.023 -0.025,0.048 -0.032,0.075 -0.008,0.026 -0.012,0.053 -0.012,0.081 0,0.006 0.001,0.013 0.001,0.02 0,0.007 0.001,0.014 0.003,0.02 z"
         style="fill:#ca5010;fill-rule:nonzero"
         id="path10080" /><path
         d="m 0.634,-0.632 c -0.005,0 -0.009,-0.002 -0.013,-0.005 -0.003,-0.003 -0.005,-0.008 -0.005,-0.012 0,-0.005 0.002,-0.009 0.005,-0.013 0.004,-0.003 0.008,-0.005 0.013,-0.005 0.005,0 0.009,0.002 0.012,0.005 0.004,0.004 0.005,0.008 0.005,0.013 0,0.004 -0.001,0.009 -0.005,0.012 -0.003,0.003 -0.007,0.005 -0.012,0.005 z m 0.07,0.07 c -0.005,0 -0.009,-10e-4 -0.012,-0.005 -0.004,-0.003 -0.005,-0.007 -0.005,-0.012 0,-0.005 10e-4,-0.009 0.005,-0.013 0.003,-0.003 0.007,-0.005 0.012,-0.005 0.005,0 0.009,0.002 0.013,0.005 0.003,0.004 0.005,0.008 0.005,0.013 0,0.005 -0.002,0.009 -0.005,0.012 -0.004,0.004 -0.008,0.005 -0.013,0.005 z m 0,-0.07 c -0.005,0 -0.009,-0.002 -0.012,-0.005 -0.004,-0.003 -0.005,-0.008 -0.005,-0.012 0,-0.005 10e-4,-0.009 0.005,-0.013 0.003,-0.003 0.007,-0.005 0.012,-0.005 0.005,0 0.009,0.002 0.013,0.005 0.003,0.004 0.005,0.008 0.005,0.013 0,0.004 -0.002,0.009 -0.005,0.012 -0.004,0.003 -0.008,0.005 -0.013,0.005 z m 0.104,0.468 c 0,0.006 0,0.012 0.002,0.018 0.002,0.005 0.005,0.01 0.009,0.015 l 0.065,0.065 c 0,0 0.001,0.001 0.003,0.001 L 0.9,-0.064 h 0.004 c 0.01,0.008 0.018,0.017 0.024,0.026 -0.013,0.01 -0.027,0.02 -0.042,0.028 C 0.872,-0.001 0.856,0.007 0.84,0.014 0.824,0.02 0.808,0.025 0.791,0.029 0.774,0.033 0.757,0.035 0.741,0.035 0.701,0.035 0.671,0.024 0.649,0.002 0.627,-0.019 0.616,-0.05 0.616,-0.089 c 0,-0.027 0.005,-0.053 0.014,-0.08 0.009,-0.027 0.021,-0.052 0.037,-0.077 0.016,-0.024 0.035,-0.047 0.056,-0.069 0.021,-0.021 0.044,-0.04 0.069,-0.055 0.024,-0.016 0.05,-0.029 0.077,-0.038 0.026,-0.009 0.053,-0.013 0.079,-0.013 0.04,0 0.07,0.011 0.092,0.032 0.022,0.022 0.033,0.053 0.033,0.092 0,0.017 -0.002,0.033 -0.006,0.05 C 1.063,-0.23 1.058,-0.214 1.051,-0.198 1.045,-0.181 1.037,-0.166 1.028,-0.151 1.019,-0.136 1.01,-0.122 1,-0.109 0.995,-0.112 0.99,-0.116 0.986,-0.121 0.982,-0.125 0.977,-0.129 0.973,-0.134 c 0.001,-0.002 0.001,-0.005 0.002,-0.008 0.001,-0.003 0.001,-0.006 0.001,-0.009 0,-0.002 0,-0.002 0,-0.003 L 0.923,-0.211 C 0.921,-0.213 0.918,-0.215 0.914,-0.217 0.91,-0.219 0.905,-0.221 0.901,-0.223 0.896,-0.224 0.891,-0.226 0.886,-0.227 0.882,-0.228 0.878,-0.228 0.875,-0.228 c -0.021,0 -0.038,0.005 -0.05,0.016 -0.011,0.01 -0.017,0.026 -0.017,0.048 z"
         style="fill:#ee9889;fill-rule:nonzero"
         id="path10082" /><path
         d="m 0.827,-0.162 c 0,0.014 0.005,0.026 0.014,0.036 0.011,0.01 0.021,0.021 0.031,0.032 0.01,0.01 0.021,0.021 0.032,0.03 -0.011,0.009 -0.023,0.017 -0.036,0.025 -0.013,0.007 -0.027,0.014 -0.041,0.02 -0.014,0.006 -0.028,0.01 -0.043,0.014 C 0.77,-0.002 0.755,0 0.741,0 c -0.06,0 -0.09,-0.03 -0.09,-0.089 0,-0.023 0.004,-0.046 0.013,-0.07 0.008,-0.024 0.019,-0.047 0.033,-0.069 0.015,-0.022 0.031,-0.042 0.051,-0.062 0.019,-0.019 0.039,-0.036 0.061,-0.05 0.022,-0.014 0.045,-0.025 0.069,-0.034 0.024,-0.008 0.047,-0.012 0.07,-0.012 0.059,0 0.089,0.029 0.089,0.089 0,0.014 -0.002,0.028 -0.005,0.043 -0.003,0.015 -0.008,0.029 -0.014,0.043 -0.005,0.014 -0.012,0.028 -0.02,0.041 -0.007,0.014 -0.016,0.026 -0.024,0.037 L 0.911,-0.196 C 0.901,-0.206 0.89,-0.21 0.876,-0.21 c -0.007,0 -0.013,0.001 -0.019,0.003 -0.006,0.003 -0.012,0.007 -0.016,0.011 -0.004,0.004 -0.008,0.009 -0.01,0.015 -0.003,0.006 -0.004,0.013 -0.004,0.019 z"
         style="fill:#e84757;fill-rule:nonzero"
         id="path10084" /></g></g></svg>
