<?xml version="1.0" encoding="UTF-8" standalone="no"?>
<svg
   width="16.844999"
   height="14.73"
   viewBox="0 0 16.844999 14.73"
   version="1.1"
   xml:space="preserve"
   style="clip-rule:evenodd;fill-rule:evenodd;stroke-linejoin:round;stroke-miterlimit:2"
   id="svg20568"
   sodipodi:docname="emojis.svg"
   xmlns:inkscape="http://www.inkscape.org/namespaces/inkscape"
   xmlns:sodipodi="http://sodipodi.sourceforge.net/DTD/sodipodi-0.dtd"
   xmlns="http://www.w3.org/2000/svg"
   xmlns:svg="http://www.w3.org/2000/svg"><defs
     id="defs20572" /><sodipodi:namedview
     id="namedview20570"
     pagecolor="#505050"
     bordercolor="#eeeeee"
     borderopacity="1"
     inkscape:pageshadow="0"
     inkscape:pageopacity="0"
     inkscape:pagecheckerboard="0" /><g
     transform="matrix(0.24,0,0,0.24,-715.803,-496.23)"
     id="g20566"><g
       transform="matrix(62.5,0,0,62.5,2974.7,2120.25)"
       id="g10022"><path
         d="M 1.194,-0.071 C 1.207,-0.049 1.213,-0.026 1.213,0 1.213,0.019 1.209,0.037 1.202,0.054 1.195,0.072 1.185,0.086 1.172,0.099 1.159,0.112 1.144,0.122 1.127,0.129 1.111,0.136 1.092,0.14 1.073,0.14 1.049,0.14 1.028,0.136 1.012,0.127 0.995,0.118 0.981,0.107 0.968,0.092 0.955,0.078 0.944,0.062 0.935,0.044 0.925,0.026 0.915,0.008 0.904,-0.01 0.87,0.005 0.834,0.016 0.798,0.023 0.761,0.031 0.724,0.034 0.687,0.034 0.649,0.034 0.612,0.031 0.575,0.023 0.539,0.016 0.503,0.005 0.469,-0.01 0.458,0.008 0.448,0.026 0.438,0.044 0.429,0.062 0.418,0.078 0.405,0.092 0.392,0.107 0.378,0.118 0.361,0.127 0.345,0.136 0.324,0.14 0.3,0.14 0.281,0.14 0.262,0.136 0.245,0.129 0.228,0.121 0.213,0.111 0.201,0.099 0.188,0.086 0.178,0.071 0.171,0.054 0.164,0.036 0.16,0.018 0.16,-0.001 0.16,-0.014 0.162,-0.026 0.165,-0.038 0.168,-0.049 0.173,-0.06 0.179,-0.071 L 0.245,-0.183 C 0.206,-0.235 0.176,-0.288 0.156,-0.345 0.136,-0.401 0.125,-0.462 0.125,-0.526 c 0,-0.044 0.009,-0.085 0.025,-0.123 0.017,-0.039 0.039,-0.072 0.068,-0.101 0.028,-0.028 0.062,-0.051 0.1,-0.067 0.038,-0.017 0.079,-0.025 0.123,-0.025 0.021,0 0.044,0.002 0.067,0.006 0.023,0.004 0.045,0.011 0.066,0.019 0.022,0.009 0.043,0.019 0.062,0.032 0.019,0.013 0.036,0.027 0.051,0.044 0.014,-0.017 0.031,-0.031 0.05,-0.044 0.019,-0.013 0.039,-0.023 0.061,-0.032 0.022,-0.008 0.044,-0.015 0.067,-0.019 0.023,-0.004 0.045,-0.006 0.067,-0.006 0.029,0 0.057,0.003 0.084,0.011 0.027,0.007 0.052,0.018 0.075,0.032 0.024,0.014 0.045,0.03 0.064,0.049 0.019,0.02 0.036,0.041 0.05,0.064 0.014,0.023 0.024,0.049 0.032,0.076 0.007,0.027 0.011,0.055 0.011,0.084 0,0.063 -0.01,0.124 -0.031,0.181 -0.021,0.058 -0.05,0.112 -0.089,0.162 z"
         style="fill-rule:nonzero"
         id="path10014" /><path
         d="M 1.133,-0.036 C 1.14,-0.025 1.143,-0.013 1.143,0 1.143,0.012 1.14,0.024 1.134,0.035 1.127,0.045 1.119,0.054 1.108,0.061 L 0.932,-0.102 C 0.894,-0.08 0.855,-0.063 0.813,-0.052 0.772,-0.041 0.73,-0.035 0.687,-0.035 0.643,-0.035 0.601,-0.041 0.56,-0.052 0.518,-0.063 0.479,-0.08 0.441,-0.102 L 0.265,0.061 C 0.254,0.054 0.246,0.045 0.24,0.035 0.233,0.024 0.23,0.012 0.23,0 c 0,-0.013 0.003,-0.025 0.01,-0.036 L 0.33,-0.19 C 0.323,-0.197 0.316,-0.204 0.311,-0.212 0.305,-0.22 0.299,-0.228 0.293,-0.235 0.262,-0.279 0.237,-0.324 0.22,-0.373 0.204,-0.421 0.195,-0.472 0.195,-0.526 c 0,-0.034 0.007,-0.066 0.02,-0.096 0.012,-0.03 0.03,-0.056 0.052,-0.078 0.022,-0.022 0.048,-0.04 0.078,-0.053 0.03,-0.013 0.062,-0.019 0.096,-0.019 0.035,0 0.07,0.006 0.102,0.018 0.033,0.013 0.062,0.031 0.088,0.057 l 0.056,0.055 0.055,-0.055 c 0.026,-0.026 0.055,-0.044 0.087,-0.057 0.033,-0.012 0.067,-0.018 0.103,-0.018 0.033,0 0.065,0.006 0.095,0.019 0.03,0.013 0.056,0.031 0.079,0.053 0.022,0.022 0.04,0.048 0.052,0.078 0.013,0.029 0.02,0.061 0.02,0.096 0,0.052 -0.009,0.104 -0.025,0.153 C 1.136,-0.323 1.111,-0.277 1.08,-0.235 1.074,-0.228 1.068,-0.22 1.062,-0.212 1.056,-0.204 1.05,-0.197 1.043,-0.19 Z M 0.496,-0.217 c 0.026,0.02 0.055,0.034 0.087,0.043 0.032,0.008 0.064,0.013 0.097,0.013 0.035,0 0.071,-0.005 0.106,-0.014 C 0.822,-0.184 0.855,-0.197 0.885,-0.214 0.856,-0.259 0.824,-0.301 0.79,-0.343 0.757,-0.384 0.722,-0.424 0.686,-0.463 0.651,-0.425 0.618,-0.385 0.586,-0.344 0.555,-0.302 0.525,-0.26 0.496,-0.217 Z M 1,-0.317 C 1.011,-0.333 1.021,-0.349 1.029,-0.366 1.037,-0.384 1.044,-0.402 1.049,-0.42 1.054,-0.439 1.057,-0.458 1.06,-0.477 1.062,-0.496 1.063,-0.515 1.063,-0.535 1.063,-0.55 1.059,-0.564 1.051,-0.577 1.043,-0.59 1.032,-0.602 1.02,-0.613 1.008,-0.623 0.995,-0.632 0.98,-0.64 0.966,-0.647 0.952,-0.653 0.939,-0.657 0.934,-0.658 0.929,-0.659 0.922,-0.659 c -0.009,0 -0.019,0.002 -0.031,0.006 -0.011,0.003 -0.022,0.008 -0.033,0.013 -0.011,0.006 -0.021,0.012 -0.031,0.019 -0.01,0.007 -0.018,0.013 -0.025,0.02 l -0.017,0.06 C 0.85,-0.47 0.91,-0.394 0.964,-0.315 Z M 0.409,-0.315 C 0.463,-0.394 0.523,-0.47 0.588,-0.541 L 0.591,-0.583 C 0.582,-0.592 0.572,-0.601 0.561,-0.61 0.55,-0.619 0.538,-0.627 0.526,-0.635 0.514,-0.642 0.501,-0.648 0.488,-0.653 0.475,-0.658 0.462,-0.66 0.448,-0.66 c -0.014,0 -0.03,0.003 -0.046,0.01 -0.016,0.007 -0.03,0.017 -0.044,0.028 -0.013,0.011 -0.024,0.024 -0.033,0.039 -0.009,0.015 -0.013,0.03 -0.013,0.045 0,0.02 0.002,0.039 0.005,0.058 0.004,0.02 0.008,0.039 0.015,0.057 0.006,0.019 0.014,0.037 0.023,0.054 0.01,0.018 0.02,0.034 0.031,0.049 z"
         style="fill:#eba300;fill-rule:nonzero"
         id="path10016" /><path
         d="m 0.953,-0.203 c 0,0 0,0.001 0.001,0.002 0.001,0 0.003,0.003 0.005,0.008 0.003,0.005 0.008,0.012 0.014,0.023 0.006,0.011 0.015,0.026 0.027,0.045 0.011,0.02 0.025,0.044 0.043,0.074 C 1.061,-0.02 1.082,0.017 1.108,0.061 1.097,0.067 1.085,0.07 1.073,0.07 1.06,0.07 1.049,0.067 1.038,0.061 1.027,0.055 1.019,0.046 1.012,0.036 0.999,0.013 0.985,-0.01 0.972,-0.033 0.959,-0.056 0.945,-0.079 0.932,-0.102 0.926,-0.112 0.92,-0.122 0.914,-0.132 c -0.007,-0.01 -0.013,-0.02 -0.019,-0.03 -0.032,0.019 -0.065,0.033 -0.1,0.043 -0.036,0.009 -0.072,0.014 -0.108,0.014 -0.036,0 -0.072,-0.005 -0.108,-0.014 -0.035,-0.01 -0.069,-0.024 -0.1,-0.043 -0.007,0.01 -0.013,0.02 -0.019,0.03 -0.006,0.01 -0.012,0.02 -0.018,0.03 -0.014,0.023 -0.027,0.046 -0.04,0.069 C 0.388,-0.01 0.375,0.013 0.361,0.036 0.355,0.046 0.347,0.054 0.336,0.061 0.325,0.067 0.313,0.07 0.301,0.07 0.288,0.07 0.276,0.067 0.265,0.061 0.296,0.007 0.326,-0.043 0.353,-0.091 0.381,-0.138 0.409,-0.184 0.437,-0.228 0.466,-0.273 0.496,-0.316 0.528,-0.359 0.56,-0.402 0.597,-0.446 0.638,-0.49 0.62,-0.508 0.603,-0.527 0.585,-0.545 0.568,-0.563 0.55,-0.581 0.532,-0.598 0.519,-0.61 0.506,-0.619 0.49,-0.624 0.475,-0.629 0.459,-0.632 0.441,-0.632 c -0.014,0 -0.028,0.003 -0.041,0.008 -0.013,0.006 -0.024,0.014 -0.034,0.023 -0.009,0.01 -0.017,0.021 -0.022,0.034 -0.006,0.012 -0.009,0.026 -0.009,0.041 0,0.037 0.007,0.075 0.019,0.111 0.013,0.037 0.031,0.07 0.055,0.1 L 0.371,-0.25 C 0.354,-0.271 0.339,-0.293 0.326,-0.314 0.313,-0.335 0.302,-0.356 0.293,-0.378 0.284,-0.401 0.277,-0.424 0.272,-0.448 0.267,-0.472 0.265,-0.498 0.265,-0.526 c 0,-0.025 0.005,-0.048 0.014,-0.069 0.009,-0.021 0.022,-0.04 0.038,-0.056 0.015,-0.015 0.034,-0.028 0.055,-0.037 0.022,-0.01 0.045,-0.014 0.069,-0.014 0.027,0 0.052,0.004 0.076,0.013 0.023,0.008 0.045,0.022 0.064,0.042 0.018,0.017 0.035,0.035 0.053,0.052 0.018,0.017 0.036,0.035 0.053,0.053 l 0.01,0.011 c 0.05,0.05 0.096,0.102 0.138,0.156 0.042,0.055 0.081,0.112 0.118,0.172 z M 0.516,-0.221 c 0.026,0.014 0.054,0.026 0.083,0.033 0.029,0.008 0.058,0.012 0.088,0.012 0.03,0 0.059,-0.004 0.088,-0.012 C 0.804,-0.195 0.832,-0.206 0.858,-0.221 0.832,-0.26 0.805,-0.297 0.776,-0.334 0.748,-0.37 0.718,-0.405 0.687,-0.44 0.625,-0.372 0.568,-0.299 0.516,-0.221 Z m 0.416,-0.411 c -0.016,0 -0.033,0.003 -0.048,0.008 -0.016,0.005 -0.03,0.014 -0.042,0.026 L 0.785,-0.541 0.737,-0.592 0.752,-0.607 C 0.766,-0.621 0.778,-0.634 0.791,-0.646 0.803,-0.657 0.815,-0.667 0.829,-0.676 0.843,-0.684 0.858,-0.69 0.874,-0.695 0.891,-0.7 0.91,-0.702 0.932,-0.702 c 0.025,0 0.047,0.004 0.069,0.014 0.021,0.009 0.04,0.022 0.055,0.037 0.016,0.016 0.029,0.035 0.038,0.056 0.009,0.021 0.014,0.044 0.014,0.069 0,0.028 -0.002,0.054 -0.007,0.078 C 1.096,-0.424 1.089,-0.401 1.08,-0.378 1.071,-0.356 1.06,-0.335 1.047,-0.314 1.034,-0.293 1.02,-0.271 1.003,-0.25 L 0.964,-0.315 c 0.024,-0.03 0.043,-0.063 0.055,-0.1 0.013,-0.036 0.019,-0.074 0.019,-0.111 0,-0.015 -0.003,-0.029 -0.008,-0.041 C 1.024,-0.58 1.017,-0.591 1.007,-0.601 0.997,-0.61 0.986,-0.618 0.973,-0.624 0.961,-0.629 0.947,-0.632 0.932,-0.632 Z"
         style="fill:#d48c00;fill-rule:nonzero"
         id="path10018" /><path
         d="M 0.511,-0.72 0.494,-0.702 0.476,-0.72 0.494,-0.737 Z m -0.14,0 L 0.353,-0.702 0.335,-0.72 0.353,-0.737 Z M 0.757,-0.579 0.739,-0.562 0.722,-0.579 0.739,-0.597 Z M 0.739,-0.667 0.757,-0.649 0.739,-0.632 0.722,-0.649 Z M 0.792,-0.509 0.774,-0.491 0.757,-0.509 0.774,-0.526 Z M 0.599,-0.526 0.616,-0.509 0.599,-0.491 0.581,-0.509 Z M 1.125,-0.632 1.143,-0.614 1.125,-0.597 1.107,-0.614 Z M 0.581,-0.685 0.563,-0.667 0.546,-0.685 0.563,-0.702 Z M 1.02,-0.737 1.038,-0.72 1.02,-0.702 1.002,-0.72 Z m -0.141,0 L 0.897,-0.72 0.879,-0.702 0.862,-0.72 Z M 0.95,-0.702 0.967,-0.685 0.95,-0.667 0.932,-0.685 Z M 0.441,-0.685 0.423,-0.667 0.406,-0.685 0.423,-0.702 Z m -0.141,0 -0.017,0.018 -0.018,-0.018 0.018,-0.017 z m 0.351,0.036 -0.017,0.017 -0.018,-0.017 0.018,-0.018 z m 0,0.07 -0.017,0.017 -0.018,-0.017 0.018,-0.018 z M 0.95,-0.772 0.967,-0.755 0.95,-0.737 0.932,-0.755 Z m 0.14,0.07 0.017,0.017 L 1.09,-0.667 1.073,-0.685 Z M 0.265,-0.614 0.248,-0.597 0.23,-0.614 0.248,-0.632 Z M 0.441,-0.755 0.423,-0.737 0.406,-0.755 0.423,-0.772 Z M 0.81,-0.702 0.827,-0.685 0.81,-0.667 0.792,-0.685 Z"
         style="fill:#ffffff;fill-rule:nonzero"
         id="path10020" /></g></g></svg>
