<?xml version="1.0" encoding="UTF-8" standalone="no"?>
<svg
   width="16.844999"
   height="16.844999"
   viewBox="0 0 16.844999 16.844999"
   version="1.1"
   xml:space="preserve"
   style="clip-rule:evenodd;fill-rule:evenodd;stroke-linejoin:round;stroke-miterlimit:2"
   id="svg20568"
   sodipodi:docname="emojis.svg"
   xmlns:inkscape="http://www.inkscape.org/namespaces/inkscape"
   xmlns:sodipodi="http://sodipodi.sourceforge.net/DTD/sodipodi-0.dtd"
   xmlns="http://www.w3.org/2000/svg"
   xmlns:svg="http://www.w3.org/2000/svg"><defs
     id="defs20572" /><sodipodi:namedview
     id="namedview20570"
     pagecolor="#505050"
     bordercolor="#eeeeee"
     borderopacity="1"
     inkscape:pageshadow="0"
     inkscape:pageopacity="0"
     inkscape:pagecheckerboard="0" /><g
     transform="matrix(0.24,0,0,0.24,-260.3622,-110.71908)"
     id="g20566"><g
       transform="matrix(62.5,0,0,62.5,1077.03,518.392)"
       id="g1004"><path
         d="M 0.142,-0.487 C 0.131,-0.511 0.125,-0.536 0.125,-0.563 c 0,-0.015 0.002,-0.031 0.006,-0.047 0.005,-0.015 0.011,-0.03 0.019,-0.044 l 0.149,-0.259 0.061,0.106 c 0.048,-0.035 0.1,-0.061 0.155,-0.079 0.055,-0.018 0.112,-0.027 0.172,-0.027 0.051,0 0.101,0.007 0.149,0.02 0.048,0.014 0.092,0.033 0.134,0.057 0.041,0.024 0.079,0.054 0.113,0.088 0.035,0.034 0.064,0.072 0.088,0.113 0.025,0.042 0.044,0.087 0.057,0.135 0.013,0.047 0.02,0.097 0.02,0.149 0,0.052 -0.007,0.101 -0.02,0.149 C 1.215,-0.154 1.196,-0.109 1.171,-0.068 1.147,-0.026 1.118,0.012 1.083,0.046 1.049,0.08 1.011,0.109 0.97,0.134 0.928,0.158 0.884,0.177 0.836,0.19 0.788,0.204 0.738,0.21 0.687,0.21 0.635,0.21 0.585,0.204 0.537,0.19 0.489,0.177 0.445,0.158 0.403,0.134 0.362,0.109 0.324,0.08 0.29,0.046 0.255,0.012 0.226,-0.026 0.202,-0.068 0.177,-0.109 0.158,-0.154 0.145,-0.202 0.132,-0.25 0.125,-0.299 0.125,-0.351 c 0,-0.046 0.006,-0.091 0.017,-0.136 z"
         style="fill-rule:nonzero"
         id="path996" /><path
         d="m 0.195,-0.351 c 0,-0.045 0.006,-0.089 0.018,-0.131 0.012,-0.042 0.028,-0.081 0.049,-0.117 0.022,-0.037 0.047,-0.07 0.077,-0.099 0.03,-0.03 0.063,-0.056 0.099,-0.077 0.037,-0.021 0.076,-0.038 0.118,-0.05 0.042,-0.011 0.085,-0.017 0.131,-0.017 0.045,0 0.088,0.006 0.13,0.017 0.042,0.012 0.081,0.029 0.118,0.05 0.036,0.021 0.069,0.047 0.099,0.077 0.03,0.029 0.055,0.062 0.077,0.099 0.021,0.036 0.037,0.075 0.049,0.117 0.012,0.042 0.018,0.086 0.018,0.131 0,0.045 -0.006,0.089 -0.018,0.131 -0.012,0.041 -0.028,0.081 -0.049,0.117 -0.022,0.036 -0.047,0.07 -0.077,0.099 C 1.004,0.026 0.971,0.052 0.935,0.073 0.898,0.094 0.859,0.111 0.817,0.123 0.775,0.134 0.732,0.14 0.687,0.14 0.641,0.14 0.598,0.134 0.556,0.123 0.514,0.111 0.475,0.094 0.438,0.073 0.402,0.052 0.369,0.026 0.339,-0.004 0.309,-0.033 0.284,-0.067 0.262,-0.103 0.241,-0.139 0.225,-0.179 0.213,-0.22 0.201,-0.262 0.195,-0.306 0.195,-0.351 Z"
         style="fill:#ffc83d;fill-rule:nonzero"
         id="path998" /><path
         d="m 0.299,-0.772 0.089,0.153 c 0.005,0.009 0.008,0.018 0.011,0.027 0.003,0.01 0.004,0.02 0.004,0.029 0,0.015 -0.002,0.029 -0.008,0.041 -0.005,0.013 -0.013,0.024 -0.022,0.033 -0.009,0.009 -0.02,0.017 -0.033,0.022 -0.013,0.005 -0.026,0.008 -0.041,0.008 -0.014,0 -0.028,-0.003 -0.04,-0.008 C 0.246,-0.472 0.235,-0.48 0.226,-0.489 0.216,-0.498 0.209,-0.509 0.203,-0.521 0.198,-0.534 0.195,-0.547 0.195,-0.562 c 0,-0.01 0.002,-0.02 0.004,-0.03 0.003,-0.009 0.007,-0.018 0.012,-0.027 z"
         style="fill:#00bcf2;fill-rule:nonzero"
         id="path1000" /><path
         d="m 0.897,-0.386 c 0.015,0 0.028,0.003 0.041,0.008 0.013,0.006 0.024,0.013 0.033,0.023 0.01,0.009 0.018,0.021 0.023,0.033 0.006,0.013 0.008,0.027 0.008,0.041 H 0.967 c 0,-0.01 -0.003,-0.018 -0.01,-0.025 C 0.95,-0.313 0.942,-0.316 0.932,-0.316 H 0.827 c -0.01,0 -0.018,0.004 -0.025,0.011 -0.007,0.007 -0.01,0.015 -0.01,0.024 H 0.757 c 0,-0.014 0.003,-0.028 0.008,-0.041 0.006,-0.012 0.013,-0.024 0.023,-0.033 0.009,-0.01 0.02,-0.017 0.033,-0.023 0.012,-0.005 0.026,-0.008 0.041,-0.008 z m -0.316,0.105 c 0,-0.01 -0.003,-0.018 -0.01,-0.025 -0.007,-0.006 -0.015,-0.01 -0.025,-0.01 H 0.441 c -0.01,0 -0.018,0.004 -0.025,0.01 -0.007,0.007 -0.01,0.015 -0.01,0.025 H 0.371 c 0,-0.014 0.002,-0.028 0.008,-0.041 0.005,-0.012 0.013,-0.024 0.023,-0.033 0.009,-0.01 0.02,-0.017 0.033,-0.023 0.013,-0.005 0.026,-0.008 0.041,-0.008 h 0.035 c 0.015,0 0.029,0.003 0.041,0.008 0.013,0.006 0.024,0.013 0.033,0.023 0.01,0.009 0.017,0.021 0.023,0.033 0.005,0.013 0.008,0.027 0.008,0.041 z m -0.105,0.228 c 0,-0.013 0.005,-0.022 0.016,-0.03 0.013,-0.009 0.028,-0.018 0.044,-0.025 0.016,-0.007 0.032,-0.013 0.049,-0.018 0.016,-0.004 0.034,-0.008 0.051,-0.01 0.017,-0.003 0.034,-0.004 0.051,-0.004 0.016,0 0.033,0.001 0.05,0.004 0.017,0.002 0.035,0.006 0.051,0.01 0.017,0.005 0.033,0.011 0.049,0.018 0.016,0.007 0.031,0.016 0.044,0.025 0.011,0.008 0.016,0.017 0.016,0.03 0,0.01 -0.003,0.018 -0.01,0.025 -0.007,0.007 -0.015,0.01 -0.025,0.01 -0.004,0 -0.007,-0.001 -0.01,-0.002 C 0.848,-0.021 0.845,-0.022 0.842,-0.024 0.817,-0.039 0.792,-0.05 0.768,-0.058 0.743,-0.066 0.716,-0.07 0.687,-0.07 c -0.015,0 -0.03,0.001 -0.043,0.003 -0.013,0.002 -0.026,0.004 -0.039,0.008 -0.012,0.004 -0.025,0.009 -0.037,0.015 -0.012,0.006 -0.025,0.013 -0.037,0.02 -0.003,0.002 -0.006,0.003 -0.01,0.004 -0.003,0.001 -0.006,0.002 -0.01,0.002 -0.01,0 -0.018,-0.003 -0.025,-0.01 -0.007,-0.007 -0.01,-0.015 -0.01,-0.025 z"
         style="fill-rule:nonzero"
         id="path1002" /></g></g></svg>
