<?xml version="1.0" encoding="UTF-8" standalone="no"?>
<svg
   width="16.844999"
   height="13.68"
   viewBox="0 0 16.844999 13.68"
   version="1.1"
   xml:space="preserve"
   style="clip-rule:evenodd;fill-rule:evenodd;stroke-linejoin:round;stroke-miterlimit:2"
   id="svg20568"
   sodipodi:docname="emojis.svg"
   xmlns:inkscape="http://www.inkscape.org/namespaces/inkscape"
   xmlns:sodipodi="http://sodipodi.sourceforge.net/DTD/sodipodi-0.dtd"
   xmlns="http://www.w3.org/2000/svg"
   xmlns:svg="http://www.w3.org/2000/svg"><defs
     id="defs20572" /><sodipodi:namedview
     id="namedview20570"
     pagecolor="#505050"
     bordercolor="#eeeeee"
     borderopacity="1"
     inkscape:pageshadow="0"
     inkscape:pageopacity="0"
     inkscape:pagecheckerboard="0" /><g
     transform="matrix(0.24,0,0,0.24,-75.0006,-513.7254)"
     id="g20566"><g
       transform="matrix(62.5,0,0,62.5,304.69,2190.96)"
       id="g10112"><path
         d="M 0.406,0.105 C 0.367,0.105 0.331,0.098 0.297,0.083 0.263,0.068 0.233,0.048 0.208,0.022 0.182,-0.003 0.162,-0.033 0.147,-0.067 0.132,-0.101 0.125,-0.137 0.125,-0.176 v -0.14 c 0,-0.034 0.006,-0.066 0.019,-0.095 0.013,-0.03 0.031,-0.056 0.053,-0.079 0.022,-0.022 0.048,-0.039 0.078,-0.052 0.03,-0.013 0.062,-0.02 0.096,-0.02 0.02,0 0.039,-0.002 0.056,-0.007 0.018,-0.004 0.034,-0.011 0.05,-0.02 0.016,-0.008 0.03,-0.019 0.044,-0.03 0.014,-0.012 0.028,-0.026 0.041,-0.04 L 0.581,-0.68 c 0.002,-0.003 0.005,-0.006 0.008,-0.009 0.003,-0.003 0.007,-0.007 0.012,-0.011 0.035,-0.034 0.076,-0.06 0.12,-0.079 0.044,-0.019 0.091,-0.028 0.141,-0.028 0.035,0 0.069,0.004 0.102,0.014 0.033,0.009 0.064,0.022 0.093,0.038 0.028,0.017 0.054,0.037 0.078,0.061 0.023,0.024 0.043,0.05 0.06,0.078 0.017,0.029 0.03,0.059 0.039,0.092 0.009,0.033 0.014,0.067 0.014,0.103 v 0.14 c 0,0.036 -0.005,0.07 -0.014,0.103 -0.009,0.033 -0.022,0.063 -0.039,0.092 -0.017,0.028 -0.037,0.054 -0.06,0.078 C 1.111,0.016 1.085,0.036 1.057,0.052 1.028,0.069 0.997,0.082 0.964,0.091 0.931,0.1 0.897,0.105 0.862,0.105 Z"
         style="fill-rule:nonzero"
         id="path10098" /><path
         d="m 1.178,-0.421 v 0.14 c 0,0.029 -0.004,0.057 -0.011,0.084 -0.008,0.027 -0.019,0.052 -0.032,0.076 -0.014,0.023 -0.031,0.044 -0.05,0.063 -0.019,0.02 -0.04,0.036 -0.064,0.05 C 0.998,0.006 0.973,0.016 0.946,0.024 0.919,0.031 0.891,0.035 0.862,0.035 H 0.406 C 0.376,0.035 0.349,0.03 0.323,0.019 0.298,0.007 0.276,-0.008 0.257,-0.027 0.238,-0.046 0.223,-0.068 0.212,-0.094 0.201,-0.119 0.195,-0.147 0.195,-0.176 v -0.14 z"
         style="fill:#d8b094;fill-rule:nonzero"
         id="path10100" /><path
         d="m 0.195,-0.316 c 0,-0.024 0.005,-0.047 0.014,-0.068 0.009,-0.021 0.022,-0.04 0.038,-0.056 0.016,-0.016 0.034,-0.028 0.055,-0.038 0.021,-0.009 0.044,-0.013 0.069,-0.013 0.025,0 0.049,-0.003 0.072,-0.009 0.022,-0.006 0.044,-0.014 0.064,-0.025 0.02,-0.011 0.039,-0.024 0.057,-0.039 0.019,-0.015 0.036,-0.032 0.052,-0.05 0.016,-0.019 0.034,-0.036 0.052,-0.051 0.018,-0.015 0.037,-0.028 0.057,-0.039 0.021,-0.01 0.042,-0.019 0.065,-0.025 0.022,-0.005 0.046,-0.008 0.072,-0.008 0.029,0 0.057,0.003 0.084,0.011 0.027,0.007 0.052,0.018 0.075,0.032 0.024,0.014 0.045,0.03 0.064,0.049 0.019,0.02 0.036,0.041 0.05,0.064 0.013,0.023 0.024,0.049 0.032,0.076 0.007,0.027 0.011,0.055 0.011,0.084 0,0.029 -0.004,0.057 -0.011,0.084 -0.008,0.027 -0.019,0.052 -0.032,0.075 -0.014,0.024 -0.03,0.045 -0.05,0.064 -0.019,0.019 -0.04,0.036 -0.064,0.05 -0.023,0.013 -0.048,0.024 -0.075,0.031 -0.027,0.008 -0.055,0.012 -0.084,0.012 H 0.406 C 0.377,-0.105 0.35,-0.111 0.324,-0.122 0.298,-0.133 0.276,-0.148 0.257,-0.167 0.238,-0.186 0.223,-0.209 0.212,-0.234 0.201,-0.26 0.195,-0.287 0.195,-0.316 Z"
         style="fill:#f7d7c4;fill-rule:nonzero"
         id="path10102" /><path
         d="M 0.406,-0.141 C 0.382,-0.141 0.359,-0.145 0.338,-0.154 0.316,-0.163 0.298,-0.176 0.282,-0.192 0.266,-0.208 0.253,-0.226 0.244,-0.248 0.235,-0.269 0.23,-0.292 0.23,-0.316 c 0,-0.019 0.004,-0.037 0.011,-0.054 0.008,-0.017 0.018,-0.032 0.03,-0.045 0.013,-0.013 0.028,-0.023 0.045,-0.03 0.017,-0.008 0.035,-0.012 0.055,-0.012 0.028,0 0.054,-0.003 0.079,-0.009 0.026,-0.006 0.05,-0.015 0.072,-0.027 0.023,-0.012 0.044,-0.026 0.064,-0.043 0.02,-0.017 0.039,-0.035 0.058,-0.056 0.014,-0.016 0.03,-0.031 0.045,-0.045 0.016,-0.013 0.033,-0.025 0.051,-0.035 0.019,-0.01 0.038,-0.017 0.058,-0.022 0.02,-0.006 0.041,-0.008 0.064,-0.008 0.039,0 0.075,0.007 0.109,0.022 0.034,0.015 0.064,0.035 0.089,0.06 0.025,0.026 0.046,0.055 0.06,0.089 0.015,0.034 0.023,0.071 0.023,0.11 0,0.038 -0.008,0.075 -0.023,0.109 -0.014,0.034 -0.035,0.063 -0.06,0.089 -0.025,0.025 -0.055,0.045 -0.089,0.06 -0.034,0.015 -0.07,0.022 -0.109,0.022 z"
         style="fill:#e81224;fill-rule:nonzero"
         id="path10104" /><path
         d="m 0.712,-0.28 c 0.003,0.003 0.005,0.005 0.007,0.008 0.001,0.002 0.002,0.005 0.002,0.009 0,0.004 -0.002,0.008 -0.005,0.012 -0.003,0.004 -0.007,0.005 -0.012,0.005 -0.003,0 -0.006,0 -0.009,-0.002 L 0.687,-0.256 0.641,-0.21 c 0.003,0.002 0.006,0.005 0.008,0.007 0.001,0.003 0.002,0.006 0.002,0.01 0,0.005 -0.001,0.009 -0.005,0.012 -0.003,0.004 -0.007,0.006 -0.012,0.006 -0.004,0 -0.008,-0.001 -0.01,-0.004 C 0.621,-0.181 0.619,-0.183 0.616,-0.186 L 0.615,-0.184 C 0.612,-0.181 0.61,-0.179 0.608,-0.178 0.606,-0.176 0.603,-0.175 0.599,-0.175 0.594,-0.175 0.59,-0.177 0.586,-0.181 0.583,-0.184 0.581,-0.188 0.581,-0.193 c 0,-0.003 0.001,-0.006 0.002,-0.009 L 0.591,-0.21 0.546,-0.256 0.501,-0.21 c 0.003,0.002 0.005,0.005 0.007,0.008 0.002,0.002 0.003,0.005 0.003,0.009 0,0.005 -0.002,0.009 -0.005,0.012 -0.004,0.004 -0.008,0.006 -0.013,0.006 -0.004,0 -0.007,-0.001 -0.01,-0.003 C 0.481,-0.181 0.479,-0.183 0.476,-0.186 0.473,-0.183 0.471,-0.181 0.469,-0.179 0.466,-0.176 0.463,-0.175 0.458,-0.175 0.453,-0.175 0.449,-0.177 0.446,-0.181 0.442,-0.184 0.44,-0.188 0.44,-0.193 0.44,-0.197 0.441,-0.2 0.443,-0.202 0.444,-0.204 0.447,-0.207 0.449,-0.209 L 0.451,-0.21 0.406,-0.256 c -0.003,0.003 -0.005,0.005 -0.008,0.007 -0.003,0.002 -0.006,0.003 -0.01,0.003 -0.005,0 -0.009,-0.001 -0.012,-0.005 -0.004,-0.004 -0.005,-0.008 -0.005,-0.012 0,-0.004 0,-0.007 0.002,-0.009 L 0.381,-0.281 C 0.378,-0.284 0.376,-0.286 0.374,-0.289 0.372,-0.291 0.371,-0.294 0.371,-0.298 c 0,-0.005 0.001,-0.009 0.005,-0.013 0.003,-0.003 0.007,-0.005 0.012,-0.005 0.004,0 0.007,0.001 0.009,0.003 l 0.009,0.007 0.045,-0.045 C 0.448,-0.354 0.445,-0.357 0.443,-0.359 0.441,-0.362 0.44,-0.365 0.44,-0.369 c 0,-0.004 0.002,-0.008 0.006,-0.012 0.003,-0.003 0.007,-0.005 0.012,-0.005 0.004,0 0.008,0.001 0.01,0.003 0.002,0.002 0.005,0.004 0.008,0.007 L 0.521,-0.421 C 0.519,-0.424 0.516,-0.426 0.514,-0.429 0.512,-0.431 0.511,-0.434 0.511,-0.438 c 0,-0.005 0.002,-0.01 0.005,-0.013 0.004,-0.003 0.008,-0.005 0.012,-0.005 0.004,0 0.007,0.001 0.01,0.002 0.002,0.002 0.004,0.004 0.007,0.007 0.004,-0.002 0.007,-0.004 0.009,-0.006 0.002,-0.002 0.006,-0.003 0.009,-0.003 0.005,0 0.01,0.002 0.013,0.005 0.003,0.003 0.005,0.008 0.005,0.013 0,0.003 -0.001,0.006 -0.003,0.009 -0.001,0.002 -0.004,0.004 -0.006,0.007 l 0.044,0.046 c 0.003,-0.003 0.006,-0.005 0.008,-0.007 0.003,-0.002 0.006,-0.003 0.01,-0.003 0.005,0 0.009,0.002 0.012,0.005 0.004,0.004 0.005,0.008 0.005,0.012 0,0.005 -0.001,0.008 -0.003,0.01 -0.002,0.003 -0.004,0.005 -0.007,0.008 l 0.046,0.045 c 0.002,-0.003 0.005,-0.005 0.007,-0.007 0.003,-0.002 0.006,-0.003 0.01,-0.003 0.005,0 0.009,0.002 0.012,0.005 0.003,0.004 0.005,0.008 0.005,0.013 0,0.004 -0.001,0.007 -0.003,0.009 -0.002,0.003 -0.004,0.006 -0.006,0.009 z m -0.05,-0.001 -0.046,-0.045 -0.045,0.045 0.045,0.046 z m -0.141,0 -0.045,-0.045 -0.045,0.045 0.045,0.046 z m -0.02,-0.07 0.045,0.045 0.045,-0.045 -0.045,-0.045 z"
         style="fill:#af0d1a;fill-rule:nonzero"
         id="path10106" /><path
         d="m 1.002,-0.351 c -0.018,0 -0.034,-0.006 -0.048,-0.019 -0.009,0.016 -0.022,0.03 -0.039,0.039 -0.016,0.01 -0.034,0.015 -0.053,0.015 -0.015,0 -0.029,-0.003 -0.041,-0.008 C 0.808,-0.33 0.797,-0.337 0.788,-0.347 0.778,-0.357 0.771,-0.368 0.765,-0.38 0.76,-0.393 0.757,-0.407 0.757,-0.421 c 0,-0.02 0.005,-0.037 0.014,-0.054 0.01,-0.016 0.023,-0.029 0.04,-0.038 -0.013,-0.014 -0.019,-0.03 -0.019,-0.049 h 0.035 c 0,0.01 0.003,0.018 0.01,0.025 0.007,0.007 0.015,0.011 0.025,0.011 0.014,0 0.028,0.002 0.041,0.008 0.013,0.005 0.024,0.013 0.033,0.022 0.01,0.01 0.017,0.021 0.023,0.034 0.006,0.012 0.008,0.026 0.008,0.041 0,0.009 0.004,0.018 0.011,0.025 0.006,0.006 0.015,0.01 0.024,0.01 z"
         style="fill:#f2f2f2;fill-rule:nonzero"
         id="path10108" /><path
         d="m 0.932,-0.421 c 0,0.009 -0.002,0.019 -0.005,0.027 -0.004,0.009 -0.009,0.016 -0.016,0.023 -0.006,0.006 -0.013,0.011 -0.022,0.015 -0.008,0.003 -0.017,0.005 -0.027,0.005 -0.01,0 -0.019,-0.002 -0.028,-0.006 C 0.826,-0.36 0.819,-0.365 0.812,-0.372 0.806,-0.378 0.801,-0.386 0.797,-0.394 0.794,-0.403 0.792,-0.412 0.792,-0.421 c 0,-0.01 0.002,-0.019 0.005,-0.028 0.004,-0.008 0.009,-0.016 0.015,-0.022 0.007,-0.006 0.014,-0.011 0.022,-0.015 0.009,-0.003 0.018,-0.005 0.028,-0.005 0.01,0 0.019,0.002 0.027,0.005 0.009,0.004 0.016,0.009 0.022,0.015 0.007,0.006 0.012,0.014 0.016,0.022 0.003,0.009 0.005,0.018 0.005,0.028 z"
         style="fill:#af0d1a;fill-rule:nonzero"
         id="path10110" /></g></g></svg>
