<?xml version="1.0" encoding="UTF-8" standalone="no"?>
<svg
   width="16.844999"
   height="14.73"
   viewBox="0 0 16.844999 14.73"
   version="1.1"
   xml:space="preserve"
   style="clip-rule:evenodd;fill-rule:evenodd;stroke-linejoin:round;stroke-miterlimit:2"
   id="svg20568"
   sodipodi:docname="emojis.svg"
   xmlns:inkscape="http://www.inkscape.org/namespaces/inkscape"
   xmlns:sodipodi="http://sodipodi.sourceforge.net/DTD/sodipodi-0.dtd"
   xmlns="http://www.w3.org/2000/svg"
   xmlns:svg="http://www.w3.org/2000/svg"><defs
     id="defs20572" /><sodipodi:namedview
     id="namedview20570"
     pagecolor="#505050"
     bordercolor="#eeeeee"
     borderopacity="1"
     inkscape:pageshadow="0"
     inkscape:pageopacity="0"
     inkscape:pagecheckerboard="0" /><g
     transform="matrix(0.24,0,0,0.24,-193.84356,-513.2004)"
     id="g20566"><g
       transform="matrix(62.5,0,0,62.5,799.869,2190.96)"
       id="g10188"><path
         d="m 1.248,-0.325 c 0,0.022 -0.005,0.042 -0.014,0.06 -0.009,0.019 -0.022,0.035 -0.039,0.048 0.006,0.011 0.01,0.022 0.013,0.034 0.003,0.012 0.005,0.024 0.005,0.036 0,0.027 -0.007,0.051 -0.02,0.073 C 1.179,-0.053 1.16,-0.036 1.136,-0.024 1.131,-0.005 1.123,0.013 1.112,0.029 1.101,0.044 1.088,0.058 1.073,0.069 1.059,0.08 1.042,0.089 1.024,0.095 1.006,0.102 0.987,0.105 0.967,0.105 H 0.602 C 0.583,0.116 0.563,0.125 0.541,0.131 0.52,0.137 0.498,0.14 0.476,0.14 0.444,0.14 0.413,0.134 0.384,0.122 0.355,0.11 0.33,0.094 0.308,0.073 0.286,0.052 0.268,0.028 0.254,0 0.241,-0.028 0.233,-0.059 0.231,-0.091 0.22,-0.103 0.212,-0.117 0.206,-0.133 0.199,-0.149 0.196,-0.165 0.196,-0.182 c 0,-0.003 0,-0.007 0.001,-0.01 0,-0.004 0,-0.008 0,-0.011 -0.022,-0.013 -0.04,-0.03 -0.052,-0.051 -0.013,-0.021 -0.02,-0.045 -0.02,-0.071 0,-0.019 0.004,-0.037 0.011,-0.055 C 0.143,-0.397 0.154,-0.413 0.167,-0.425 0.166,-0.432 0.164,-0.439 0.163,-0.446 0.162,-0.453 0.161,-0.46 0.161,-0.468 c 0,-0.025 0.006,-0.047 0.018,-0.068 0.013,-0.021 0.03,-0.038 0.051,-0.05 v -0.011 c 0,-0.034 0.007,-0.065 0.02,-0.095 0.013,-0.03 0.03,-0.056 0.052,-0.078 0.023,-0.023 0.049,-0.04 0.079,-0.053 0.029,-0.013 0.061,-0.019 0.095,-0.019 0.022,0 0.044,0.003 0.065,0.009 0.022,0.006 0.042,0.014 0.061,0.026 h 0.365 c 0.024,0 0.047,0.005 0.068,0.014 0.022,0.009 0.04,0.022 0.056,0.037 0.016,0.016 0.028,0.035 0.038,0.056 0.009,0.021 0.014,0.044 0.014,0.068 v 0.108 c 0.009,0.011 0.017,0.023 0.023,0.036 0.005,0.013 0.009,0.027 0.011,0.041 0.022,0.013 0.04,0.03 0.052,0.051 0.013,0.022 0.019,0.046 0.019,0.071 z"
         style="fill-rule:nonzero"
         id="path10168" /><path
         d="m 1.073,-0.198 v 0.128 c 0,0.014 -0.003,0.028 -0.009,0.041 C 1.059,-0.017 1.051,-0.005 1.042,0.004 1.032,0.014 1.021,0.021 1.008,0.027 0.996,0.032 0.982,0.035 0.967,0.035 H 0.58 C 0.577,0.033 0.574,0.03 0.57,0.027 0.566,0.024 0.562,0.022 0.558,0.019 0.554,0.016 0.55,0.014 0.545,0.012 0.541,0.01 0.537,0.009 0.534,0.009 0.529,0.009 0.524,0.012 0.519,0.017 0.513,0.022 0.507,0.028 0.502,0.034 0.496,0.041 0.491,0.048 0.487,0.055 0.482,0.062 0.478,0.067 0.476,0.07 0.452,0.07 0.429,0.066 0.407,0.056 0.386,0.047 0.368,0.035 0.352,0.019 0.336,0.003 0.323,-0.016 0.314,-0.037 0.305,-0.058 0.3,-0.081 0.3,-0.105 v -0.093 z"
         style="fill:#eba300;fill-rule:nonzero"
         id="path10170" /><path
         d="m 0.476,-0.057 c 0.017,0 0.033,-0.003 0.049,-0.009 0.016,-0.007 0.03,-0.015 0.043,-0.026 H 0.581 V 0.035 C 0.565,0.047 0.549,0.055 0.531,0.061 0.513,0.067 0.495,0.07 0.476,0.07 Z"
         style="fill:#d48c00;fill-rule:nonzero"
         id="path10172" /><path
         d="M 1.038,-0.07 H 0.568 C 0.555,-0.059 0.541,-0.051 0.525,-0.044 0.509,-0.038 0.493,-0.035 0.476,-0.035 0.459,-0.035 0.443,-0.038 0.427,-0.044 0.41,-0.05 0.396,-0.059 0.383,-0.07 0.38,-0.073 0.376,-0.079 0.371,-0.087 0.366,-0.096 0.361,-0.105 0.356,-0.115 0.351,-0.125 0.346,-0.134 0.342,-0.143 0.338,-0.152 0.336,-0.159 0.336,-0.164 h 0.702 z"
         style="fill:#fce100;fill-rule:nonzero"
         id="path10174" /><path
         d="m 1.002,-0.176 c 0.01,0 0.019,0.002 0.028,0.006 0.008,0.004 0.016,0.009 0.022,0.015 0.006,0.006 0.011,0.014 0.015,0.022 0.004,0.009 0.006,0.018 0.006,0.028 v 0.045 c 0,0.007 -0.003,0.013 -0.008,0.018 -0.004,0.004 -0.01,0.007 -0.018,0.007 -0.006,0 -0.012,-0.003 -0.017,-0.007 L 0.967,-0.105 H 0.476 C 0.471,-0.103 0.466,-0.1 0.459,-0.097 0.453,-0.094 0.447,-0.091 0.44,-0.088 0.434,-0.085 0.427,-0.082 0.421,-0.079 0.415,-0.076 0.41,-0.073 0.406,-0.07 0.402,-0.068 0.399,-0.065 0.395,-0.061 0.392,-0.057 0.388,-0.053 0.385,-0.049 0.382,-0.045 0.378,-0.042 0.374,-0.039 0.37,-0.036 0.365,-0.035 0.36,-0.035 0.354,-0.035 0.348,-0.037 0.343,-0.042 0.338,-0.047 0.335,-0.053 0.335,-0.06 v -0.045 c 0,-0.01 0.002,-0.019 0.006,-0.028 C 0.345,-0.141 0.35,-0.149 0.356,-0.155 0.363,-0.161 0.37,-0.166 0.378,-0.17 0.387,-0.174 0.396,-0.176 0.406,-0.176 Z"
         style="fill:#fff100;fill-rule:nonzero"
         id="path10176" /><path
         d="M 0.984,-0.477 C 0.991,-0.484 1,-0.49 1.01,-0.494 1.02,-0.498 1.03,-0.5 1.04,-0.5 c 0.009,0 0.018,0.002 0.027,0.005 0.008,0.004 0.015,0.009 0.021,0.015 0.006,0.007 0.011,0.014 0.015,0.022 0.003,0.009 0.005,0.017 0.005,0.027 0,0.006 -0.001,0.013 -0.003,0.019 -0.002,0.006 -0.004,0.011 -0.007,0.017 h 0.009 c 0.01,0 0.019,0.002 0.028,0.006 0.008,0.003 0.016,0.008 0.022,0.015 0.006,0.006 0.011,0.014 0.015,0.022 0.004,0.009 0.006,0.018 0.006,0.028 0,0.01 -0.002,0.02 -0.007,0.028 C 1.167,-0.287 1.162,-0.28 1.155,-0.274 1.148,-0.268 1.139,-0.263 1.13,-0.26 1.121,-0.256 1.112,-0.254 1.102,-0.254 H 1.073 v 0.004 l 0.046,0.047 c 0.008,0.008 0.013,0.016 0.017,0.026 0.005,0.01 0.007,0.02 0.007,0.03 0,0.009 -0.002,0.018 -0.006,0.027 -0.003,0.008 -0.008,0.015 -0.015,0.021 -0.006,0.007 -0.013,0.011 -0.022,0.015 -0.008,0.003 -0.017,0.005 -0.026,0.005 -0.01,0 -0.019,-0.002 -0.027,-0.005 C 1.038,-0.088 1.03,-0.093 1.024,-0.1 L 0.968,-0.155 v 0.068 c 0,0.009 -0.001,0.017 -0.004,0.025 -0.003,0.008 -0.007,0.015 -0.012,0.022 -0.005,0.006 -0.011,0.012 -0.019,0.016 -0.007,0.005 -0.015,0.008 -0.024,0.009 -0.001,0 -0.003,0 -0.005,10e-4 -0.002,0 -0.004,0 -0.006,0 C 0.889,-0.014 0.88,-0.016 0.871,-0.02 0.863,-0.024 0.855,-0.029 0.849,-0.035 0.843,-0.041 0.838,-0.049 0.834,-0.057 0.83,-0.066 0.829,-0.075 0.829,-0.084 0.829,-0.094 0.825,-0.103 0.818,-0.109 0.812,-0.116 0.803,-0.12 0.793,-0.12 c -0.009,0 -0.017,0.004 -0.024,0.011 -0.007,0.007 -0.011,0.015 -0.011,0.025 0,0.01 -0.001,0.019 -0.005,0.028 -0.003,0.009 -0.008,0.018 -0.014,0.025 -0.006,0.007 -0.014,0.012 -0.022,0.016 -0.009,0.004 -0.019,0.006 -0.029,0.006 -0.01,0 -0.019,-0.002 -0.027,-0.005 C 0.652,-0.018 0.645,-0.023 0.638,-0.03 0.632,-0.036 0.627,-0.043 0.624,-0.052 0.62,-0.06 0.618,-0.069 0.618,-0.079 0.618,-0.09 0.615,-0.1 0.61,-0.108 0.604,-0.116 0.595,-0.12 0.583,-0.12 c -0.01,0 -0.018,0.004 -0.025,0.011 -0.007,0.006 -0.01,0.015 -0.01,0.025 0,0.009 -0.002,0.018 -0.006,0.027 -0.003,0.008 -0.008,0.016 -0.014,0.022 -0.007,0.006 -0.014,0.011 -0.023,0.015 -0.008,0.004 -0.017,0.006 -0.027,0.006 -0.01,0 -0.02,-0.002 -0.029,-0.006 C 0.441,-0.024 0.433,-0.03 0.427,-0.037 0.421,-0.044 0.416,-0.052 0.413,-0.061 0.409,-0.07 0.408,-0.08 0.408,-0.09 V -0.15 C 0.406,-0.152 0.405,-0.152 0.405,-0.152 c -0.001,0 -0.001,0 -0.003,0.002 l -0.01,0.009 C 0.391,-0.139 0.39,-0.138 0.39,-0.138 0.382,-0.13 0.374,-0.124 0.364,-0.12 0.354,-0.116 0.344,-0.114 0.334,-0.114 0.325,-0.114 0.316,-0.116 0.307,-0.12 0.299,-0.124 0.292,-0.129 0.286,-0.135 0.279,-0.141 0.275,-0.149 0.271,-0.157 0.268,-0.165 0.266,-0.174 0.266,-0.184 c 0,-0.007 0.001,-0.013 0.003,-0.019 0.001,-0.005 0.003,-0.01 0.006,-0.015 0.003,-0.004 0.006,-0.009 0.01,-0.013 L 0.3,-0.247 V -0.254 H 0.271 C 0.261,-0.254 0.252,-0.256 0.243,-0.26 0.234,-0.263 0.226,-0.268 0.219,-0.274 0.212,-0.28 0.206,-0.287 0.202,-0.296 0.197,-0.304 0.195,-0.314 0.195,-0.324 c 0,-0.011 0.002,-0.021 0.006,-0.03 C 0.205,-0.363 0.211,-0.37 0.218,-0.376 0.225,-0.382 0.233,-0.387 0.242,-0.39 0.251,-0.393 0.261,-0.395 0.271,-0.395 0.266,-0.4 0.261,-0.405 0.256,-0.41 0.251,-0.415 0.246,-0.421 0.243,-0.427 0.239,-0.432 0.236,-0.438 0.234,-0.445 0.232,-0.451 0.231,-0.459 0.231,-0.467 c 0,-0.01 0.002,-0.019 0.006,-0.027 0.003,-0.008 0.008,-0.015 0.015,-0.021 0.006,-0.006 0.013,-0.011 0.022,-0.015 0.008,-0.003 0.017,-0.005 0.026,-0.005 0.01,0 0.019,0.002 0.027,0.005 0.009,0.004 0.017,0.009 0.023,0.015 z"
         style="fill:#13a10e;fill-rule:nonzero"
         id="path10178" /><path
         d="m 0.649,-0.255 c 0.001,0.004 0.001,0.009 0.002,0.013 0,0.005 0,0.009 0,0.014 0,0.02 -0.004,0.04 -0.011,0.058 -0.008,0.018 -0.019,0.034 -0.032,0.047 -0.013,0.014 -0.029,0.024 -0.047,0.032 -0.019,0.008 -0.038,0.012 -0.059,0.012 -0.013,0 -0.026,-0.002 -0.037,-0.004 C 0.454,-0.086 0.444,-0.09 0.434,-0.096 0.425,-0.101 0.415,-0.107 0.406,-0.115 0.398,-0.122 0.389,-0.131 0.379,-0.14 0.365,-0.154 0.355,-0.17 0.347,-0.188 0.339,-0.206 0.335,-0.225 0.335,-0.245 l 0.001,-0.01 z m 0.386,0 c -0.005,0.03 -0.019,0.057 -0.041,0.08 -0.01,0.009 -0.019,0.018 -0.028,0.025 -0.008,0.008 -0.018,0.014 -0.027,0.019 -0.01,0.005 -0.02,0.009 -0.031,0.012 -0.011,0.003 -0.024,0.005 -0.037,0.005 -0.02,0 -0.039,-0.004 -0.057,-0.011 C 0.797,-0.133 0.781,-0.143 0.768,-0.155 0.755,-0.168 0.744,-0.183 0.736,-0.2 0.727,-0.217 0.723,-0.236 0.722,-0.255 Z"
         style="fill:#e81224;fill-rule:nonzero"
         id="path10180" /><path
         d="m 0.967,-0.724 c 0.013,0 0.025,0.002 0.036,0.007 0.011,0.005 0.021,0.012 0.029,0.02 0.009,0.009 0.015,0.018 0.02,0.03 0.005,0.011 0.008,0.022 0.008,0.035 v 0.281 c 0,0.013 -0.003,0.025 -0.008,0.036 -0.005,0.011 -0.011,0.021 -0.02,0.029 -0.008,0.008 -0.018,0.015 -0.029,0.02 -0.011,0.005 -0.023,0.007 -0.036,0.007 H 0.576 c -0.014,0.012 -0.03,0.02 -0.047,0.026 -0.017,0.006 -0.035,0.009 -0.053,0.009 -0.022,0 -0.043,-0.004 -0.063,-0.012 C 0.393,-0.245 0.376,-0.256 0.361,-0.271 0.346,-0.286 0.335,-0.303 0.326,-0.323 0.318,-0.343 0.313,-0.364 0.313,-0.386 v -0.211 c 0,-0.022 0.005,-0.043 0.013,-0.063 0.009,-0.02 0.021,-0.037 0.035,-0.051 0.015,-0.015 0.032,-0.027 0.052,-0.035 0.02,-0.009 0.041,-0.013 0.063,-0.013 0.019,0 0.036,0.003 0.053,0.009 0.016,0.006 0.032,0.015 0.047,0.026 z"
         style="fill:#ffd679;fill-rule:nonzero"
         id="path10182" /><path
         d="m 0.967,-0.737 c 0.015,0 0.029,0.002 0.041,0.008 0.013,0.006 0.024,0.013 0.034,0.023 0.009,0.009 0.017,0.02 0.022,0.033 0.006,0.013 0.009,0.027 0.009,0.041 v 0.351 c 0,0.015 -0.003,0.029 -0.009,0.041 -0.005,0.013 -0.013,0.024 -0.022,0.033 -0.01,0.01 -0.021,0.017 -0.034,0.023 -0.012,0.005 -0.026,0.008 -0.041,0.008 H 0.58 C 0.577,-0.177 0.574,-0.179 0.569,-0.181 0.565,-0.184 0.561,-0.185 0.556,-0.187 0.552,-0.189 0.547,-0.191 0.542,-0.192 0.538,-0.193 0.534,-0.193 0.531,-0.193 c -0.005,0 -0.01,0.002 -0.015,0.006 C 0.51,-0.183 0.505,-0.178 0.5,-0.173 0.495,-0.167 0.49,-0.161 0.486,-0.155 0.482,-0.149 0.478,-0.144 0.476,-0.141 0.452,-0.141 0.429,-0.145 0.408,-0.154 0.387,-0.163 0.368,-0.176 0.352,-0.192 0.336,-0.208 0.323,-0.226 0.314,-0.248 0.305,-0.269 0.3,-0.292 0.3,-0.316 v -0.281 c 0,-0.024 0.005,-0.047 0.014,-0.068 0.009,-0.021 0.022,-0.04 0.038,-0.056 0.016,-0.016 0.034,-0.028 0.055,-0.037 0.022,-0.009 0.045,-0.014 0.069,-0.014 0.019,0 0.037,0.003 0.055,0.009 0.018,0.006 0.034,0.014 0.049,0.026 z m 0.071,0.105 c 0,-0.01 -0.002,-0.019 -0.006,-0.027 C 1.028,-0.668 1.023,-0.675 1.017,-0.681 1.01,-0.688 1.003,-0.693 0.995,-0.697 0.986,-0.7 0.977,-0.702 0.967,-0.702 H 0.568 C 0.555,-0.713 0.541,-0.722 0.525,-0.728 0.509,-0.734 0.493,-0.737 0.476,-0.737 c -0.019,0 -0.038,0.003 -0.055,0.011 -0.017,0.007 -0.032,0.017 -0.045,0.03 -0.012,0.012 -0.022,0.027 -0.03,0.044 -0.007,0.017 -0.011,0.036 -0.011,0.055 v 0.211 c 0,0.019 0.004,0.038 0.011,0.055 0.008,0.017 0.018,0.032 0.03,0.044 0.013,0.013 0.028,0.023 0.045,0.03 0.017,0.008 0.036,0.011 0.055,0.011 0.006,0.005 0.013,0.009 0.02,0.012 0.008,0.004 0.015,0.005 0.023,0.005 0.007,0 0.014,-0.001 0.021,-0.004 0.006,-0.003 0.012,-0.007 0.017,-0.012 0.006,-0.005 0.01,-0.011 0.014,-0.017 0.004,-0.006 0.007,-0.013 0.01,-0.019 h 0.386 c 0.01,0 0.019,-0.002 0.028,-0.005 C 1.003,-0.29 1.01,-0.295 1.017,-0.302 1.023,-0.308 1.028,-0.315 1.032,-0.324 1.036,-0.332 1.038,-0.341 1.038,-0.351 Z M 0.897,-0.658 c 0.005,0 0.009,0.002 0.012,0.005 0.004,0.003 0.006,0.007 0.006,0.012 0,0.005 -0.002,0.009 -0.006,0.013 -0.003,0.003 -0.007,0.005 -0.012,0.005 -0.005,0 -0.009,-0.002 -0.012,-0.005 -0.004,-0.004 -0.006,-0.008 -0.006,-0.013 0,-0.005 0.002,-0.009 0.006,-0.012 0.003,-0.003 0.007,-0.005 0.012,-0.005 z m 0.07,0.07 c 0.005,0 0.009,0.002 0.013,0.005 0.003,0.004 0.005,0.008 0.005,0.013 0,0.005 -0.002,0.009 -0.005,0.012 -0.004,0.004 -0.008,0.005 -0.013,0.005 -0.005,0 -0.009,-0.001 -0.012,-0.005 C 0.951,-0.561 0.95,-0.565 0.95,-0.57 c 0,-0.005 0.001,-0.009 0.005,-0.013 0.003,-0.003 0.007,-0.005 0.012,-0.005 z m 0,-0.07 c 0.005,0 0.009,0.002 0.013,0.005 0.003,0.003 0.005,0.007 0.005,0.012 0,0.005 -0.002,0.009 -0.005,0.013 -0.004,0.003 -0.008,0.005 -0.013,0.005 -0.005,0 -0.009,-0.002 -0.012,-0.005 C 0.951,-0.632 0.95,-0.636 0.95,-0.641 c 0,-0.005 0.001,-0.009 0.005,-0.012 0.003,-0.003 0.007,-0.005 0.012,-0.005 z"
         style="fill:#eba300;fill-rule:nonzero"
         id="path10184" /><path
         d="m 0.476,-0.246 c 0.017,0 0.033,-0.003 0.049,-0.009 0.016,-0.006 0.03,-0.015 0.043,-0.026 h 0.013 v 0.105 c -0.016,0.012 -0.032,0.02 -0.05,0.026 -0.018,0.006 -0.036,0.009 -0.055,0.009 z"
         style="fill:#d48c00;fill-rule:nonzero"
         id="path10186" /></g></g></svg>
