<?xml version="1.0" encoding="UTF-8" standalone="no"?>
<svg
   width="16.844999"
   height="16.844999"
   viewBox="0 0 16.844999 16.844999"
   version="1.1"
   xml:space="preserve"
   style="clip-rule:evenodd;fill-rule:evenodd;stroke-linejoin:round;stroke-miterlimit:2"
   id="svg20568"
   sodipodi:docname="emojis.svg"
   xmlns:inkscape="http://www.inkscape.org/namespaces/inkscape"
   xmlns:sodipodi="http://sodipodi.sourceforge.net/DTD/sodipodi-0.dtd"
   xmlns="http://www.w3.org/2000/svg"
   xmlns:svg="http://www.w3.org/2000/svg"><defs
     id="defs20572" /><sodipodi:namedview
     id="namedview20570"
     pagecolor="#505050"
     bordercolor="#eeeeee"
     borderopacity="1"
     inkscape:pageshadow="0"
     inkscape:pageopacity="0"
     inkscape:pagecheckerboard="0" /><g
     transform="matrix(0.24,0,0,0.24,-95.59644,-512.1354)"
     id="g20566"><g
       transform="matrix(62.5,0,0,62.5,390.506,2190.96)"
       id="g10120"><path
         d="M 0.476,-0.807 V -0.913 H 0.827 V -0.7 c 0.03,0.005 0.057,0.014 0.083,0.028 0.026,0.014 0.048,0.032 0.067,0.053 0.019,0.021 0.034,0.046 0.044,0.073 0.011,0.027 0.017,0.056 0.017,0.087 v 0.075 c 0.029,0.004 0.057,0.014 0.083,0.028 0.025,0.014 0.048,0.032 0.067,0.053 0.018,0.022 0.033,0.046 0.044,0.073 0.011,0.027 0.016,0.056 0.016,0.086 V 0.105 H 0.897 V 0.21 H 0.546 V 0 C 0.546,-0.004 0.545,-0.008 0.543,-0.013 0.541,-0.017 0.538,-0.021 0.535,-0.024 0.532,-0.028 0.528,-0.03 0.524,-0.032 0.52,-0.034 0.515,-0.035 0.511,-0.035 0.487,-0.035 0.464,-0.04 0.443,-0.049 0.422,-0.058 0.403,-0.071 0.387,-0.087 0.371,-0.102 0.359,-0.121 0.349,-0.142 0.34,-0.164 0.335,-0.186 0.335,-0.21 V -0.316 C 0.335,-0.325 0.332,-0.333 0.325,-0.34 0.318,-0.347 0.309,-0.351 0.3,-0.351 0.276,-0.351 0.253,-0.356 0.232,-0.365 0.211,-0.374 0.192,-0.386 0.176,-0.402 0.16,-0.418 0.148,-0.437 0.139,-0.458 0.13,-0.48 0.125,-0.502 0.125,-0.526 v -0.281 z"
         style="fill-rule:nonzero"
         id="path10114" /><path
         d="m 0.967,-0.316 h 0.035 c 0.024,0 0.047,0.005 0.068,0.014 0.021,0.008 0.04,0.021 0.055,0.036 0.016,0.016 0.029,0.034 0.039,0.055 0.009,0.021 0.014,0.044 0.014,0.067 V 0.035 H 1.107 L 1.073,0.003 1.038,0.035 H 0.967 v -0.14 C 0.967,-0.119 0.964,-0.133 0.959,-0.146 0.953,-0.159 0.945,-0.17 0.936,-0.179 0.926,-0.189 0.915,-0.196 0.902,-0.202 0.889,-0.208 0.876,-0.21 0.862,-0.21 0.847,-0.21 0.833,-0.213 0.821,-0.219 0.808,-0.224 0.797,-0.232 0.788,-0.241 0.778,-0.251 0.771,-0.262 0.765,-0.275 0.76,-0.288 0.757,-0.301 0.757,-0.316 v -0.105 c 0,-0.014 -0.003,-0.028 -0.009,-0.04 C 0.743,-0.474 0.735,-0.485 0.725,-0.495 0.715,-0.504 0.704,-0.512 0.691,-0.518 0.679,-0.524 0.665,-0.526 0.651,-0.526 0.637,-0.526 0.623,-0.529 0.61,-0.535 0.598,-0.54 0.587,-0.548 0.577,-0.557 0.567,-0.567 0.56,-0.578 0.554,-0.591 0.549,-0.604 0.546,-0.617 0.546,-0.632 v -0.21 h 0.07 l 0.035,0.032 0.036,-0.032 h 0.07 v 0.21 h 0.035 c 0.024,0 0.046,0.005 0.067,0.014 0.022,0.009 0.04,0.021 0.056,0.036 0.016,0.016 0.029,0.034 0.038,0.055 0.01,0.021 0.014,0.044 0.014,0.068 z M 0.616,-0.21 h 0.035 c 0.024,0 0.047,0.004 0.068,0.013 0.021,0.009 0.039,0.021 0.055,0.037 0.016,0.015 0.029,0.034 0.039,0.055 0.009,0.021 0.014,0.043 0.014,0.067 V 0.14 H 0.757 L 0.722,0.122 0.687,0.14 H 0.616 V 0 C 0.616,-0.014 0.613,-0.027 0.608,-0.04 0.602,-0.053 0.594,-0.064 0.585,-0.074 0.575,-0.083 0.564,-0.091 0.551,-0.097 0.539,-0.103 0.525,-0.105 0.511,-0.105 0.497,-0.105 0.483,-0.108 0.47,-0.114 0.458,-0.119 0.446,-0.127 0.437,-0.136 0.427,-0.146 0.42,-0.157 0.414,-0.169 0.409,-0.182 0.406,-0.196 0.406,-0.21 V -0.316 C 0.406,-0.33 0.403,-0.343 0.397,-0.356 0.392,-0.369 0.384,-0.38 0.374,-0.39 0.365,-0.399 0.353,-0.407 0.341,-0.413 0.328,-0.419 0.314,-0.421 0.3,-0.421 0.286,-0.421 0.272,-0.424 0.259,-0.43 0.247,-0.435 0.236,-0.443 0.226,-0.452 0.217,-0.462 0.209,-0.473 0.204,-0.485 0.198,-0.498 0.195,-0.512 0.195,-0.526 v -0.211 h 0.07 L 0.3,-0.691 0.335,-0.737 h 0.071 v 0.211 h 0.035 c 0.024,0 0.046,0.004 0.067,0.013 0.021,0.009 0.04,0.021 0.056,0.037 0.016,0.016 0.029,0.034 0.038,0.055 0.009,0.021 0.014,0.043 0.014,0.067 z"
         style="fill:#da3b01;fill-rule:nonzero"
         id="path10116" /><path
         d="m 0.897,-0.316 h 0.018 c 0.026,0 0.051,0.005 0.074,0.015 0.023,0.01 0.044,0.023 0.061,0.041 0.018,0.017 0.032,0.037 0.042,0.06 0.01,0.023 0.015,0.048 0.015,0.074 V 0.035 H 1.038 V -0.126 C 1.038,-0.148 1.033,-0.168 1.025,-0.187 1.016,-0.205 1.005,-0.222 0.991,-0.236 0.976,-0.25 0.96,-0.261 0.94,-0.269 0.921,-0.277 0.901,-0.281 0.879,-0.281 L 0.858,-0.28 c -0.003,0 -0.006,0 -0.01,0 C 0.844,-0.281 0.841,-0.281 0.838,-0.283 0.835,-0.284 0.832,-0.286 0.83,-0.288 0.828,-0.291 0.827,-0.294 0.827,-0.298 v -0.144 c 0,-0.021 -0.005,-0.042 -0.013,-0.06 C 0.806,-0.521 0.794,-0.538 0.78,-0.552 0.765,-0.566 0.749,-0.577 0.73,-0.585 0.711,-0.593 0.69,-0.597 0.669,-0.597 l -0.023,0.001 c -0.003,0 -0.007,0 -0.01,0 C 0.633,-0.597 0.629,-0.597 0.626,-0.599 0.624,-0.6 0.621,-0.602 0.619,-0.604 0.617,-0.607 0.616,-0.61 0.616,-0.614 v -0.228 h 0.071 v 0.21 h 0.017 c 0.026,0 0.051,0.005 0.075,0.015 0.023,0.01 0.043,0.023 0.061,0.041 0.017,0.017 0.031,0.037 0.042,0.06 0.01,0.023 0.015,0.048 0.015,0.074 z M 0.546,-0.21 h 0.017 c 0.027,0 0.052,0.005 0.075,0.014 0.024,0.01 0.044,0.024 0.062,0.041 0.017,0.017 0.031,0.037 0.041,0.06 0.011,0.023 0.016,0.048 0.016,0.074 V 0.14 h -0.07 v -0.161 c 0,-0.021 -0.005,-0.041 -0.013,-0.06 C 0.665,-0.1 0.654,-0.116 0.64,-0.13 0.625,-0.144 0.609,-0.155 0.59,-0.164 0.571,-0.172 0.55,-0.176 0.529,-0.176 l -0.023,0.001 c -0.003,0 -0.007,0 -0.01,0 C 0.492,-0.176 0.489,-0.176 0.486,-0.178 0.483,-0.179 0.481,-0.181 0.479,-0.183 0.477,-0.186 0.476,-0.189 0.476,-0.193 V -0.336 C 0.476,-0.358 0.472,-0.378 0.463,-0.397 0.455,-0.416 0.444,-0.432 0.429,-0.446 0.415,-0.46 0.398,-0.471 0.379,-0.479 0.36,-0.487 0.339,-0.491 0.318,-0.491 L 0.296,-0.49 c -0.003,0 -0.006,0 -0.01,-0.001 -0.003,0 -0.007,-0.001 -0.01,-0.002 C 0.273,-0.494 0.27,-0.496 0.268,-0.499 0.266,-0.501 0.265,-0.505 0.265,-0.509 v -0.228 h 0.07 v 0.211 h 0.018 c 0.026,0 0.051,0.005 0.074,0.015 0.024,0.009 0.044,0.023 0.062,0.04 0.017,0.017 0.031,0.037 0.042,0.06 0.01,0.023 0.015,0.048 0.015,0.075 z"
         style="fill:#f7b189;fill-rule:nonzero"
         id="path10118" /></g></g></svg>
