<?xml version="1.0" encoding="UTF-8" standalone="no"?>
<svg
   width="16.844999"
   height="14.205"
   viewBox="0 0 16.844999 14.205"
   version="1.1"
   xml:space="preserve"
   style="clip-rule:evenodd;fill-rule:evenodd;stroke-linejoin:round;stroke-miterlimit:2"
   id="svg20568"
   sodipodi:docname="emojis.svg"
   xmlns:inkscape="http://www.inkscape.org/namespaces/inkscape"
   xmlns:sodipodi="http://sodipodi.sourceforge.net/DTD/sodipodi-0.dtd"
   xmlns="http://www.w3.org/2000/svg"
   xmlns:svg="http://www.w3.org/2000/svg"><defs
     id="defs20572" /><sodipodi:namedview
     id="namedview20570"
     pagecolor="#505050"
     bordercolor="#eeeeee"
     borderopacity="1"
     inkscape:pageshadow="0"
     inkscape:pageopacity="0"
     inkscape:pagecheckerboard="0" /><g
     transform="matrix(0.24,0,0,0.24,-116.19204,-513.2004)"
     id="g20566"><g
       transform="matrix(62.5,0,0,62.5,476.321,2190.96)"
       id="g10134"><path
         d="m 1.178,-0.297 c 0.021,0.012 0.038,0.029 0.051,0.05 0.013,0.021 0.019,0.045 0.019,0.071 0,0.027 -0.006,0.051 -0.019,0.072 -0.013,0.021 -0.03,0.038 -0.051,0.05 v 0.019 c 0,0.019 -0.004,0.037 -0.011,0.054 C 1.159,0.036 1.149,0.051 1.137,0.064 1.124,0.077 1.109,0.087 1.092,0.094 1.075,0.101 1.057,0.105 1.038,0.105 H 0.335 C 0.316,0.105 0.298,0.101 0.281,0.094 0.264,0.087 0.249,0.077 0.236,0.064 0.224,0.051 0.214,0.036 0.206,0.019 0.199,0.002 0.195,-0.016 0.195,-0.035 V -0.054 C 0.174,-0.066 0.157,-0.083 0.144,-0.104 0.131,-0.125 0.125,-0.149 0.125,-0.176 c 0,-0.026 0.006,-0.05 0.019,-0.071 0.013,-0.021 0.03,-0.038 0.051,-0.05 C 0.187,-0.303 0.181,-0.309 0.176,-0.315 0.171,-0.321 0.167,-0.329 0.164,-0.336 0.161,-0.344 0.16,-0.352 0.16,-0.36 c 0,-0.011 0.002,-0.021 0.007,-0.03 0.007,-0.015 0.018,-0.026 0.034,-0.033 0.006,-0.04 0.016,-0.078 0.031,-0.114 0.015,-0.036 0.034,-0.07 0.056,-0.101 0.023,-0.031 0.048,-0.059 0.077,-0.084 0.03,-0.025 0.061,-0.047 0.095,-0.065 0.034,-0.018 0.07,-0.031 0.108,-0.041 0.038,-0.009 0.078,-0.014 0.119,-0.014 0.04,0 0.08,0.005 0.118,0.014 0.038,0.01 0.074,0.023 0.108,0.041 0.034,0.018 0.065,0.04 0.095,0.065 0.029,0.025 0.054,0.053 0.077,0.084 0.022,0.031 0.041,0.065 0.056,0.101 0.015,0.036 0.026,0.074 0.031,0.114 0.008,0.003 0.014,0.008 0.02,0.014 0.006,0.005 0.01,0.012 0.014,0.019 0.005,0.01 0.007,0.021 0.007,0.031 0,0.017 -0.005,0.031 -0.016,0.044 -0.005,0.006 -0.011,0.012 -0.019,0.018 z"
         style="fill-rule:nonzero"
         id="path10122" /><path
         d="m 1.178,-0.176 c 0,0.01 -0.002,0.019 -0.006,0.027 C 1.169,-0.14 1.164,-0.133 1.158,-0.127 1.152,-0.12 1.144,-0.115 1.136,-0.112 1.128,-0.108 1.119,-0.106 1.109,-0.105 H 1.107 L 0.68,-0.058 C 0.611,-0.066 0.552,-0.073 0.505,-0.078 0.458,-0.083 0.419,-0.088 0.388,-0.091 0.357,-0.095 0.333,-0.098 0.316,-0.1 0.299,-0.102 0.287,-0.103 0.28,-0.104 L 0.264,-0.105 C 0.254,-0.106 0.245,-0.108 0.237,-0.112 0.229,-0.115 0.222,-0.12 0.215,-0.127 0.209,-0.133 0.204,-0.14 0.201,-0.149 0.197,-0.157 0.195,-0.166 0.195,-0.176 c 0,-0.01 0.002,-0.019 0.006,-0.027 0.003,-0.008 0.008,-0.015 0.015,-0.022 0.006,-0.006 0.013,-0.011 0.022,-0.014 0.008,-0.004 0.017,-0.006 0.027,-0.007 l 0.413,-0.02 0.429,0.02 h 0.002 c 0.01,0.001 0.019,0.003 0.027,0.006 0.008,0.004 0.016,0.009 0.022,0.015 0.006,0.007 0.011,0.014 0.014,0.022 0.004,0.009 0.006,0.018 0.006,0.027 z"
         style="fill:#8e562e;fill-rule:nonzero"
         id="path10124" /><path
         d="m 0.265,-0.351 c 0,-0.039 0.005,-0.076 0.015,-0.112 0.01,-0.036 0.025,-0.069 0.043,-0.1 0.018,-0.032 0.04,-0.06 0.066,-0.086 0.025,-0.025 0.054,-0.047 0.085,-0.065 0.031,-0.019 0.065,-0.033 0.101,-0.043 0.036,-0.01 0.073,-0.015 0.112,-0.015 0.038,0 0.076,0.005 0.111,0.015 0.036,0.01 0.07,0.024 0.101,0.043 0.031,0.018 0.06,0.04 0.085,0.065 0.026,0.026 0.048,0.054 0.066,0.086 0.018,0.031 0.032,0.064 0.042,0.1 0.01,0.036 0.015,0.073 0.015,0.112 z m 0.842,0.316 c 0,0.01 -10e-4,0.019 -0.005,0.027 C 1.098,0.001 1.094,0.008 1.087,0.014 1.081,0.021 1.073,0.026 1.065,0.03 1.056,0.033 1.047,0.035 1.038,0.035 H 0.335 C 0.326,0.035 0.317,0.033 0.308,0.03 0.3,0.026 0.292,0.021 0.286,0.014 0.28,0.008 0.274,0.001 0.271,-0.008 0.267,-0.016 0.265,-0.025 0.265,-0.035 v -0.07 h 0.842 z"
         style="fill:#eba300;fill-rule:nonzero"
         id="path10126" /><path
         d="m 0.511,-0.246 c -0.01,0 -0.018,0.004 -0.025,0.011 -0.007,0.006 -0.01,0.015 -0.01,0.025 0,0.009 -0.003,0.017 -0.01,0.024 -0.007,0.007 -0.015,0.01 -0.025,0.01 H 0.438 c -0.001,0 -0.002,0 -0.003,0 C 0.426,-0.178 0.419,-0.182 0.414,-0.189 0.408,-0.196 0.406,-0.204 0.406,-0.212 v -0.016 c 0,-0.005 -0.002,-0.009 -0.005,-0.012 -0.004,-0.004 -0.008,-0.006 -0.013,-0.006 -0.005,0 -0.009,0.002 -0.012,0.006 -0.004,0.003 -0.005,0.007 -0.005,0.012 0,0.005 -0.002,0.009 -0.006,0.012 C 0.362,-0.212 0.358,-0.21 0.353,-0.21 0.348,-0.21 0.344,-0.212 0.341,-0.216 0.337,-0.219 0.335,-0.223 0.335,-0.228 v -0.018 h -0.07 c 0,-0.009 0.004,-0.018 0.011,-0.025 0.007,-0.006 0.015,-0.01 0.024,-0.01 l 0.362,-0.026 0.411,0.026 c 0.009,0 0.017,0.004 0.024,0.01 0.007,0.007 0.01,0.016 0.01,0.025 z m 0.07,-0.245 c 0,0.009 -0.003,0.017 -0.01,0.024 -0.007,0.007 -0.015,0.01 -0.025,0.01 0,-0.009 0.003,-0.017 0.01,-0.024 0.007,-0.007 0.016,-0.01 0.025,-0.01 z m 0.211,-0.211 c 0,0.01 -0.004,0.018 -0.011,0.025 -0.007,0.007 -0.015,0.01 -0.024,0.01 0,-0.01 0.003,-0.018 0.01,-0.025 0.007,-0.007 0.015,-0.01 0.025,-0.01 z m -0.457,0.211 c 0,0.009 -0.003,0.017 -0.01,0.024 -0.007,0.007 -0.015,0.01 -0.025,0.01 0,-0.009 0.004,-0.017 0.011,-0.024 0.006,-0.007 0.015,-0.01 0.024,-0.01 z m 0.141,-0.106 c 0,0.01 -0.003,0.018 -0.01,0.025 -0.007,0.007 -0.015,0.01 -0.025,0.01 0,-0.009 0.003,-0.018 0.01,-0.024 0.007,-0.007 0.015,-0.011 0.025,-0.011 z m 0.351,0.14 c 0,-0.009 -0.004,-0.017 -0.011,-0.024 -0.006,-0.007 -0.015,-0.01 -0.024,-0.01 0,0.009 0.003,0.017 0.01,0.024 0.007,0.007 0.015,0.01 0.025,0.01 z M 0.722,-0.562 c 0,-0.009 -0.004,-0.018 -0.011,-0.024 -0.006,-0.007 -0.015,-0.011 -0.024,-0.011 0,0.01 0.003,0.018 0.01,0.025 0.007,0.007 0.015,0.01 0.025,0.01 z M 0.616,-0.667 c 0,-0.01 -0.003,-0.018 -0.01,-0.025 -0.007,-0.007 -0.015,-0.01 -0.025,-0.01 0,0.01 0.003,0.018 0.01,0.025 0.007,0.007 0.015,0.01 0.025,0.01 z m 0.457,0.21 c 0,-0.009 -0.004,-0.017 -0.011,-0.024 -0.007,-0.007 -0.015,-0.01 -0.024,-0.01 0,0.009 0.003,0.017 0.01,0.024 0.007,0.007 0.015,0.01 0.025,0.01 z M 0.932,-0.562 c 0,-0.009 -0.003,-0.018 -0.01,-0.024 -0.007,-0.007 -0.015,-0.011 -0.025,-0.011 0,0.01 0.003,0.018 0.01,0.025 0.007,0.007 0.015,0.01 0.025,0.01 z"
         style="fill:#ffc83d;fill-rule:nonzero"
         id="path10128" /><rect
         x="0.30000001"
         y="-0.35100001"
         width="0.77200001"
         height="0.07"
         style="fill:#f03a17;fill-rule:nonzero"
         id="rect10130" /><path
         d="m 1.125,-0.369 c 0.005,0.006 0.011,0.009 0.018,0.009 -0.005,0.006 -0.01,0.01 -0.016,0.013 -0.006,0.003 -0.012,0.005 -0.02,0.005 -0.006,0 -0.012,0.003 -0.017,0.009 -0.004,0.005 -0.01,0.009 -0.016,0.012 -0.006,0.004 -0.012,0.005 -0.019,0.005 -0.007,0 -0.013,-0.001 -0.019,-0.005 C 1.03,-0.324 1.025,-0.328 1.02,-0.333 1.015,-0.339 1.009,-0.342 1.002,-0.342 0.996,-0.342 0.99,-0.339 0.985,-0.333 0.98,-0.328 0.974,-0.325 0.967,-0.325 0.96,-0.325 0.955,-0.328 0.95,-0.333 0.945,-0.339 0.939,-0.342 0.932,-0.342 c -0.007,0 -0.013,0.003 -0.017,0.009 -0.005,0.005 -0.01,0.009 -0.016,0.012 -0.006,0.004 -0.013,0.005 -0.02,0.005 -0.006,0 -0.013,-0.001 -0.019,-0.005 C 0.854,-0.324 0.849,-0.328 0.844,-0.333 0.839,-0.339 0.833,-0.342 0.827,-0.342 0.82,-0.342 0.814,-0.339 0.81,-0.333 0.805,-0.328 0.8,-0.324 0.794,-0.321 0.788,-0.317 0.781,-0.316 0.774,-0.316 0.768,-0.316 0.761,-0.317 0.755,-0.321 0.749,-0.324 0.744,-0.328 0.739,-0.333 0.734,-0.339 0.729,-0.342 0.722,-0.342 c -0.007,0 -0.013,0.003 -0.018,0.009 -0.005,0.005 -0.011,0.008 -0.017,0.008 -0.007,0 -0.013,-0.003 -0.018,-0.008 -0.005,-0.006 -0.011,-0.009 -0.018,-0.009 -0.006,0 -0.012,0.003 -0.017,0.009 -0.005,0.005 -0.01,0.009 -0.016,0.012 -0.006,0.004 -0.013,0.005 -0.019,0.005 -0.007,0 -0.014,-0.001 -0.02,-0.005 C 0.573,-0.324 0.568,-0.328 0.563,-0.333 0.559,-0.339 0.553,-0.342 0.546,-0.342 c -0.007,0 -0.012,0.003 -0.017,0.009 -0.005,0.005 -0.01,0.009 -0.016,0.012 C 0.507,-0.317 0.5,-0.316 0.494,-0.316 0.487,-0.316 0.48,-0.317 0.474,-0.321 0.468,-0.324 0.463,-0.328 0.458,-0.333 0.454,-0.339 0.448,-0.342 0.441,-0.342 c -0.007,0 -0.013,0.003 -0.018,0.009 -0.005,0.005 -0.01,0.008 -0.017,0.008 -0.007,0 -0.013,-0.003 -0.018,-0.008 -0.005,-0.006 -0.011,-0.009 -0.017,-0.009 -0.007,0 -0.013,0.003 -0.018,0.009 -0.005,0.005 -0.01,0.009 -0.016,0.012 -0.006,0.004 -0.012,0.005 -0.019,0.005 -0.007,0 -0.013,-0.001 -0.019,-0.005 C 0.293,-0.324 0.287,-0.328 0.283,-0.333 0.278,-0.339 0.272,-0.342 0.265,-0.342 0.258,-0.342 0.252,-0.344 0.246,-0.347 0.24,-0.35 0.235,-0.354 0.23,-0.36 c 0.007,0 0.013,-0.003 0.018,-0.009 0.005,-0.005 0.01,-0.009 0.016,-0.013 0.006,-0.003 0.012,-0.004 0.019,-0.004 0.007,0 0.013,0.001 0.019,0.004 0.006,0.004 0.011,0.008 0.016,0.013 0.005,0.006 0.011,0.009 0.017,0.009 0.007,0 0.013,-0.003 0.018,-0.009 0.005,-0.006 0.011,-0.008 0.018,-0.008 0.006,0 0.012,0.002 0.017,0.008 0.005,0.006 0.011,0.009 0.018,0.009 0.007,0 0.012,-0.003 0.017,-0.009 0.005,-0.005 0.01,-0.009 0.016,-0.013 0.006,-0.003 0.013,-0.004 0.019,-0.004 0.007,0 0.014,0.001 0.02,0.004 0.006,0.004 0.011,0.008 0.016,0.013 0.005,0.006 0.01,0.009 0.017,0.009 0.007,0 0.013,-0.003 0.018,-0.009 0.005,-0.006 0.01,-0.008 0.017,-0.008 0.007,0 0.013,0.002 0.017,0.008 0.006,0.006 0.012,0.009 0.018,0.009 0.007,0 0.013,-0.003 0.018,-0.009 0.004,-0.005 0.009,-0.009 0.016,-0.013 0.006,-0.003 0.012,-0.004 0.019,-0.004 0.007,0 0.013,0.001 0.019,0.004 0.006,0.004 0.011,0.008 0.016,0.013 0.005,0.006 0.011,0.009 0.018,0.009 0.006,0 0.012,-0.003 0.017,-0.009 0.005,-0.005 0.01,-0.009 0.016,-0.013 0.006,-0.003 0.012,-0.004 0.019,-0.004 0.007,0 0.014,0.001 0.02,0.004 0.006,0.004 0.011,0.008 0.015,0.013 0.005,0.006 0.011,0.009 0.018,0.009 0.007,0 0.012,-0.003 0.018,-0.009 0.004,-0.006 0.01,-0.008 0.017,-0.008 0.006,0 0.012,0.002 0.017,0.008 0.005,0.006 0.011,0.009 0.018,0.009 0.007,0 0.013,-0.003 0.017,-0.009 0.005,-0.005 0.01,-0.009 0.016,-0.013 0.006,-0.003 0.013,-0.004 0.02,-0.004 0.006,0 0.013,0.001 0.019,0.004 0.006,0.004 0.011,0.008 0.016,0.013 0.005,0.006 0.01,0.009 0.017,0.009 0.007,0 0.013,-0.003 0.018,-0.009 0.005,-0.006 0.011,-0.008 0.017,-0.008 0.007,0 0.013,0.002 0.018,0.008 0.005,0.006 0.011,0.009 0.018,0.009 0.006,0 0.012,-0.003 0.017,-0.009 0.005,-0.005 0.01,-0.009 0.016,-0.013 0.006,-0.003 0.012,-0.004 0.019,-0.004 0.007,0 0.014,0.001 0.019,0.004 0.006,0.004 0.011,0.008 0.016,0.013 z"
         style="fill:#13a10e;fill-rule:nonzero"
         id="path10132" /></g></g></svg>
