<?xml version="1.0" encoding="UTF-8" standalone="no"?>
<svg
   width="16.844999"
   height="16.844999"
   viewBox="0 0 16.844999 16.844999"
   version="1.1"
   xml:space="preserve"
   style="clip-rule:evenodd;fill-rule:evenodd;stroke-linejoin:round;stroke-miterlimit:2"
   id="svg20568"
   sodipodi:docname="emojis.svg"
   xmlns:inkscape="http://www.inkscape.org/namespaces/inkscape"
   xmlns:sodipodi="http://sodipodi.sourceforge.net/DTD/sodipodi-0.dtd"
   xmlns="http://www.w3.org/2000/svg"
   xmlns:svg="http://www.w3.org/2000/svg"><defs
     id="defs20572" /><sodipodi:namedview
     id="namedview20570"
     pagecolor="#505050"
     bordercolor="#eeeeee"
     borderopacity="1"
     inkscape:pageshadow="0"
     inkscape:pageopacity="0"
     inkscape:pagecheckerboard="0" /><g
     transform="matrix(0.24,0,0,0.24,-280.9566,-110.71908)"
     id="g20566"><g
       transform="matrix(62.5,0,0,62.5,1162.84,518.392)"
       id="g1018"><path
         d="m 1.248,-0.351 c 0,0.052 -0.007,0.101 -0.02,0.149 C 1.215,-0.154 1.196,-0.109 1.171,-0.068 1.147,-0.026 1.118,0.012 1.083,0.046 1.049,0.08 1.011,0.109 0.97,0.134 0.928,0.158 0.884,0.177 0.836,0.19 0.788,0.204 0.738,0.21 0.687,0.21 0.635,0.21 0.585,0.204 0.537,0.19 0.489,0.177 0.445,0.158 0.403,0.134 0.362,0.109 0.324,0.08 0.29,0.046 0.255,0.012 0.226,-0.026 0.202,-0.068 0.177,-0.109 0.158,-0.154 0.145,-0.202 0.132,-0.25 0.125,-0.299 0.125,-0.351 c 0,-0.052 0.007,-0.102 0.02,-0.149 0.013,-0.048 0.032,-0.093 0.057,-0.135 0.024,-0.041 0.053,-0.079 0.088,-0.113 0.034,-0.034 0.072,-0.064 0.113,-0.088 0.042,-0.024 0.086,-0.043 0.134,-0.057 0.048,-0.013 0.098,-0.02 0.15,-0.02 0.051,0 0.101,0.007 0.149,0.02 0.048,0.014 0.092,0.033 0.134,0.057 0.041,0.024 0.079,0.054 0.113,0.088 0.035,0.034 0.064,0.072 0.088,0.113 0.025,0.042 0.044,0.087 0.057,0.135 0.013,0.047 0.02,0.097 0.02,0.149 z"
         style="fill-rule:nonzero"
         id="path1006" /><path
         d="m 0.195,-0.351 c 0,-0.045 0.006,-0.089 0.018,-0.131 0.012,-0.042 0.028,-0.081 0.049,-0.117 0.022,-0.037 0.047,-0.07 0.077,-0.099 0.03,-0.03 0.063,-0.056 0.099,-0.077 0.037,-0.021 0.076,-0.038 0.118,-0.05 0.042,-0.011 0.085,-0.017 0.131,-0.017 0.045,0 0.088,0.006 0.13,0.017 0.042,0.012 0.081,0.029 0.118,0.05 0.036,0.021 0.069,0.047 0.099,0.077 0.03,0.029 0.055,0.062 0.077,0.099 0.021,0.036 0.037,0.075 0.049,0.117 0.012,0.042 0.018,0.086 0.018,0.131 0,0.045 -0.006,0.089 -0.018,0.131 -0.012,0.041 -0.028,0.081 -0.049,0.117 -0.022,0.036 -0.047,0.07 -0.077,0.099 C 1.004,0.026 0.971,0.052 0.935,0.073 0.898,0.094 0.859,0.111 0.817,0.123 0.775,0.134 0.732,0.14 0.687,0.14 0.641,0.14 0.598,0.134 0.556,0.123 0.514,0.111 0.475,0.094 0.438,0.073 0.402,0.052 0.369,0.026 0.339,-0.004 0.309,-0.033 0.284,-0.067 0.262,-0.103 0.241,-0.139 0.225,-0.179 0.213,-0.22 0.201,-0.262 0.195,-0.306 0.195,-0.351 Z"
         style="fill:#ffc83d;fill-rule:nonzero"
         id="path1008" /><path
         d="m 0.406,-0.526 c -0.01,0 -0.018,-0.004 -0.025,-0.011 -0.007,-0.007 -0.01,-0.015 -0.01,-0.025 0,-0.009 0.003,-0.018 0.01,-0.024 0.007,-0.007 0.015,-0.011 0.025,-0.011 0.021,0 0.041,-0.003 0.061,-0.011 0.037,-0.014 0.064,-0.038 0.082,-0.074 0.004,-0.006 0.008,-0.011 0.013,-0.015 0.006,-0.003 0.012,-0.005 0.02,-0.005 0.009,0 0.017,0.003 0.024,0.01 0.007,0.007 0.01,0.016 0.01,0.025 0,0.005 -0.001,0.01 -0.003,0.015 -0.009,0.02 -0.02,0.038 -0.035,0.053 -0.015,0.016 -0.032,0.029 -0.05,0.039 -0.019,0.011 -0.038,0.019 -0.059,0.025 -0.021,0.006 -0.042,0.009 -0.063,0.009 z m 0.561,0 C 0.946,-0.526 0.926,-0.529 0.905,-0.535 0.884,-0.541 0.864,-0.549 0.845,-0.56 0.827,-0.57 0.81,-0.583 0.795,-0.599 0.78,-0.614 0.769,-0.632 0.76,-0.652 0.758,-0.656 0.757,-0.661 0.757,-0.667 c 0,-0.009 0.003,-0.018 0.01,-0.025 0.007,-0.007 0.015,-0.01 0.025,-0.01 0.007,0 0.013,0.002 0.019,0.005 0.005,0.004 0.009,0.009 0.013,0.015 0.018,0.036 0.045,0.06 0.082,0.074 0.02,0.008 0.04,0.011 0.061,0.011 0.01,0 0.018,0.004 0.025,0.011 0.007,0.006 0.01,0.015 0.01,0.024 0,0.01 -0.003,0.018 -0.01,0.025 -0.007,0.007 -0.015,0.011 -0.025,0.011 z"
         style="fill:#d48c00;fill-rule:nonzero"
         id="path1010" /><path
         d="m 0.406,-0.035 c 0,-0.039 0.007,-0.075 0.022,-0.11 0.014,-0.034 0.034,-0.063 0.06,-0.089 0.025,-0.025 0.055,-0.045 0.089,-0.06 0.034,-0.015 0.071,-0.022 0.11,-0.022 0.038,0 0.075,0.007 0.109,0.022 0.034,0.015 0.064,0.035 0.089,0.06 0.026,0.026 0.046,0.055 0.06,0.089 0.015,0.035 0.022,0.071 0.022,0.11 z M 0.608,-0.51 c 0.006,0.012 0.008,0.025 0.008,0.04 0,0.011 -0.001,0.021 -0.004,0.031 -0.004,0.01 -0.008,0.019 -0.013,0.027 -0.006,0.009 -0.013,0.016 -0.021,0.023 -0.008,0.007 -0.017,0.012 -0.027,0.016 l -0.032,0.014 c -0.012,0.005 -0.026,0.008 -0.04,0.008 -0.011,0 -0.021,-0.002 -0.031,-0.005 C 0.438,-0.359 0.429,-0.363 0.42,-0.369 0.412,-0.375 0.404,-0.381 0.397,-0.389 0.391,-0.397 0.385,-0.406 0.381,-0.416 L 0.414,-0.43 c 0.002,0.007 0.006,0.012 0.013,0.016 0.006,0.004 0.012,0.006 0.019,0.006 0.004,0 0.011,-0.002 0.022,-0.006 0.01,-0.004 0.021,-0.008 0.032,-0.013 0.012,-0.004 0.023,-0.009 0.033,-0.014 0.011,-0.004 0.019,-0.008 0.024,-0.01 0.006,-0.002 0.011,-0.007 0.016,-0.012 0.004,-0.006 0.006,-0.013 0.006,-0.02 0,-0.004 -0.001,-0.009 -0.003,-0.014 z m 0.157,0 0.032,0.013 c -0.002,0.005 -0.003,0.01 -0.003,0.014 0,0.007 0.002,0.013 0.006,0.019 0.004,0.006 0.009,0.011 0.016,0.013 0.005,0.002 0.013,0.006 0.023,0.01 0.011,0.005 0.022,0.01 0.034,0.014 0.011,0.005 0.022,0.009 0.033,0.013 0.01,0.004 0.017,0.006 0.021,0.006 0.007,0 0.014,-0.002 0.02,-0.006 0.006,-0.004 0.01,-0.009 0.012,-0.016 l 0.033,0.014 c -0.008,0.02 -0.021,0.036 -0.039,0.047 -0.018,0.012 -0.037,0.018 -0.059,0.018 -0.014,0 -0.028,-0.003 -0.04,-0.008 L 0.822,-0.373 C 0.812,-0.377 0.803,-0.382 0.795,-0.389 0.787,-0.396 0.78,-0.403 0.774,-0.412 0.769,-0.42 0.765,-0.429 0.761,-0.439 0.758,-0.449 0.757,-0.459 0.757,-0.47 c 0,-0.015 0.002,-0.028 0.008,-0.04 z"
         style="fill-rule:nonzero"
         id="path1012" /><path
         d="M 0.858,-0.21 H 0.515 c 0.023,-0.023 0.049,-0.041 0.079,-0.053 0.029,-0.012 0.06,-0.018 0.093,-0.018 0.032,0 0.063,0.006 0.092,0.018 0.03,0.012 0.056,0.03 0.079,0.053 z"
         style="fill:#ffffff;fill-rule:nonzero"
         id="path1014" /><path
         d="m 0.587,-0.07 c 0.004,-0.011 0.01,-0.02 0.016,-0.029 0.007,-0.009 0.014,-0.016 0.023,-0.022 0.008,-0.006 0.018,-0.011 0.028,-0.014 0.01,-0.004 0.021,-0.006 0.033,-0.006 0.011,0 0.021,0.002 0.032,0.006 0.01,0.003 0.02,0.008 0.028,0.014 0.009,0.006 0.017,0.013 0.023,0.022 0.007,0.009 0.012,0.018 0.016,0.029 z"
         style="fill:#f03a17;fill-rule:nonzero"
         id="path1016" /></g></g></svg>
