<?xml version="1.0" encoding="UTF-8" standalone="no"?>
<svg
   width="16.844999"
   height="16.844999"
   viewBox="0 0 16.844999 16.844999"
   version="1.1"
   xml:space="preserve"
   style="clip-rule:evenodd;fill-rule:evenodd;stroke-linejoin:round;stroke-miterlimit:2"
   id="svg20568"
   sodipodi:docname="emojis.svg"
   xmlns:inkscape="http://www.inkscape.org/namespaces/inkscape"
   xmlns:sodipodi="http://sodipodi.sourceforge.net/DTD/sodipodi-0.dtd"
   xmlns="http://www.w3.org/2000/svg"
   xmlns:svg="http://www.w3.org/2000/svg"><defs
     id="defs20572" /><sodipodi:namedview
     id="namedview20570"
     pagecolor="#505050"
     bordercolor="#eeeeee"
     borderopacity="1"
     inkscape:pageshadow="0"
     inkscape:pageopacity="0"
     inkscape:pagecheckerboard="0" /><g
     transform="matrix(0.24,0,0,0.24,-157.38348,-76.77852)"
     id="g20566"><g
       transform="matrix(62.5,0,0,62.5,647.952,376.973)"
       id="g102"><path
         d="m 1.248,-0.351 c 0,0.019 -10e-4,0.038 -0.003,0.057 -0.002,0.019 -0.005,0.038 -0.008,0.056 0.007,0.021 0.011,0.041 0.011,0.062 0,0.018 -0.003,0.036 -0.008,0.053 C 1.234,-0.105 1.226,-0.089 1.216,-0.075 1.206,-0.06 1.194,-0.048 1.18,-0.037 1.166,-0.026 1.15,-0.017 1.133,-0.011 1.106,0.024 1.076,0.055 1.043,0.083 1.009,0.11 0.974,0.133 0.936,0.152 0.897,0.171 0.857,0.185 0.815,0.195 0.773,0.205 0.73,0.21 0.687,0.21 0.643,0.21 0.6,0.205 0.558,0.196 0.516,0.186 0.476,0.171 0.438,0.152 0.399,0.133 0.364,0.11 0.33,0.083 0.297,0.055 0.267,0.024 0.24,-0.011 0.223,-0.017 0.207,-0.026 0.193,-0.037 0.179,-0.048 0.167,-0.06 0.157,-0.075 0.147,-0.089 0.139,-0.105 0.133,-0.123 0.128,-0.14 0.125,-0.158 0.125,-0.176 0.125,-0.197 0.129,-0.217 0.136,-0.238 0.133,-0.256 0.13,-0.275 0.128,-0.294 0.126,-0.313 0.125,-0.332 0.125,-0.351 c 0,-0.052 0.007,-0.101 0.02,-0.149 0.013,-0.048 0.032,-0.093 0.057,-0.134 0.024,-0.042 0.053,-0.08 0.088,-0.114 0.034,-0.034 0.072,-0.064 0.113,-0.088 0.042,-0.024 0.087,-0.043 0.134,-0.057 0.048,-0.013 0.098,-0.02 0.15,-0.02 0.051,0 0.101,0.007 0.148,0.02 0.048,0.014 0.093,0.033 0.135,0.057 0.041,0.024 0.079,0.054 0.113,0.088 0.035,0.034 0.064,0.072 0.088,0.114 0.025,0.041 0.044,0.086 0.057,0.134 0.013,0.048 0.02,0.097 0.02,0.149 z"
         style="fill-rule:nonzero"
         id="path88" /><path
         d="m 1.178,-0.351 c 0,0.045 -0.006,0.089 -0.018,0.131 -0.012,0.041 -0.028,0.081 -0.049,0.117 -0.022,0.036 -0.047,0.07 -0.077,0.099 C 1.004,0.026 0.971,0.052 0.935,0.073 0.898,0.094 0.859,0.111 0.817,0.123 0.775,0.134 0.732,0.14 0.687,0.14 0.641,0.14 0.598,0.134 0.556,0.123 0.514,0.111 0.475,0.094 0.438,0.073 0.402,0.052 0.369,0.026 0.339,-0.004 0.309,-0.033 0.284,-0.067 0.262,-0.103 0.241,-0.139 0.225,-0.179 0.213,-0.22 0.201,-0.262 0.195,-0.306 0.195,-0.351 c 0,-0.045 0.006,-0.089 0.018,-0.131 0.012,-0.042 0.028,-0.081 0.049,-0.117 0.022,-0.037 0.047,-0.07 0.077,-0.099 0.03,-0.03 0.063,-0.056 0.099,-0.077 0.037,-0.021 0.076,-0.038 0.118,-0.05 0.042,-0.011 0.085,-0.017 0.131,-0.017 0.045,0 0.088,0.006 0.13,0.017 0.042,0.012 0.081,0.029 0.118,0.05 0.036,0.021 0.069,0.047 0.099,0.077 0.03,0.029 0.055,0.062 0.077,0.099 0.021,0.036 0.037,0.075 0.049,0.117 0.012,0.042 0.018,0.086 0.018,0.131 z"
         style="fill:#ffc83d;fill-rule:nonzero"
         id="path90" /><path
         d="m 0.581,-0.632 c 0.01,0 0.018,0.004 0.025,0.01 0.007,0.007 0.01,0.016 0.01,0.025 0,0.01 -0.003,0.018 -0.01,0.025 -0.007,0.007 -0.015,0.01 -0.025,0.01 -0.037,0 -0.071,0.008 -0.101,0.022 -0.03,0.015 -0.057,0.035 -0.083,0.061 -0.004,0.004 -0.008,0.007 -0.012,0.01 -0.004,0.002 -0.009,0.003 -0.014,0.003 -0.005,0 -0.009,-0.001 -0.014,-0.003 C 0.353,-0.471 0.349,-0.474 0.346,-0.477 0.343,-0.48 0.34,-0.484 0.338,-0.488 0.336,-0.493 0.335,-0.497 0.335,-0.502 0.335,-0.51 0.338,-0.517 0.344,-0.525 0.358,-0.542 0.374,-0.557 0.393,-0.57 0.411,-0.584 0.43,-0.595 0.451,-0.604 0.472,-0.613 0.493,-0.62 0.515,-0.625 0.537,-0.629 0.559,-0.632 0.581,-0.632 Z m 0.211,0 c 0.022,0 0.044,0.003 0.066,0.007 0.022,0.005 0.043,0.012 0.064,0.021 0.021,0.009 0.04,0.02 0.058,0.034 0.018,0.013 0.034,0.028 0.049,0.045 0.006,0.008 0.009,0.015 0.009,0.023 0,0.005 -0.001,0.009 -0.003,0.014 C 1.033,-0.484 1.03,-0.48 1.027,-0.477 1.024,-0.474 1.02,-0.471 1.016,-0.469 1.011,-0.467 1.007,-0.466 1.002,-0.466 0.997,-0.466 0.992,-0.467 0.988,-0.469 0.984,-0.472 0.98,-0.475 0.976,-0.479 0.95,-0.505 0.923,-0.525 0.893,-0.54 0.863,-0.554 0.829,-0.562 0.792,-0.562 c -0.01,0 -0.018,-0.003 -0.025,-0.01 -0.007,-0.007 -0.01,-0.015 -0.01,-0.025 0,-0.009 0.003,-0.018 0.01,-0.025 0.007,-0.006 0.015,-0.01 0.025,-0.01 z"
         style="fill:#d48c00;fill-rule:nonzero"
         id="path92" /><path
         d="m 0.967,-0.246 c 0,0.039 -0.007,0.076 -0.022,0.11 C 0.93,-0.102 0.91,-0.073 0.885,-0.047 0.859,-0.022 0.83,-0.002 0.796,0.013 0.762,0.028 0.725,0.035 0.687,0.035 0.648,0.035 0.611,0.028 0.577,0.013 0.543,-0.002 0.514,-0.022 0.488,-0.047 0.463,-0.073 0.443,-0.102 0.428,-0.136 0.413,-0.17 0.406,-0.207 0.406,-0.246 Z M 0.616,-0.351 H 0.581 c 0,-0.01 -0.003,-0.018 -0.01,-0.025 -0.007,-0.007 -0.015,-0.01 -0.025,-0.01 H 0.441 c -0.01,0 -0.018,0.003 -0.025,0.01 -0.007,0.007 -0.01,0.015 -0.01,0.025 H 0.371 c 0,-0.015 0.002,-0.028 0.008,-0.041 0.005,-0.013 0.013,-0.024 0.023,-0.034 0.009,-0.009 0.02,-0.017 0.033,-0.022 0.013,-0.006 0.026,-0.009 0.041,-0.009 h 0.035 c 0.015,0 0.029,0.003 0.041,0.009 0.013,0.005 0.024,0.013 0.033,0.022 0.01,0.01 0.017,0.021 0.023,0.034 0.005,0.013 0.008,0.026 0.008,0.041 z m 0.141,0 c 0,-0.015 0.003,-0.028 0.008,-0.041 0.006,-0.013 0.013,-0.024 0.023,-0.034 0.009,-0.009 0.02,-0.017 0.033,-0.022 0.012,-0.006 0.026,-0.009 0.041,-0.009 h 0.035 c 0.015,0 0.028,0.003 0.041,0.009 0.013,0.005 0.024,0.013 0.033,0.022 0.01,0.01 0.018,0.021 0.023,0.034 0.006,0.013 0.008,0.026 0.008,0.041 H 0.967 c 0,-0.01 -0.003,-0.018 -0.01,-0.025 C 0.95,-0.383 0.942,-0.386 0.932,-0.386 H 0.827 c -0.01,0 -0.018,0.003 -0.025,0.01 -0.007,0.007 -0.01,0.015 -0.01,0.025 z"
         style="fill-rule:nonzero"
         id="path94" /><path
         d="M 0.464,-0.141 C 0.454,-0.162 0.447,-0.185 0.443,-0.21 H 0.93 c -0.004,0.024 -0.011,0.047 -0.022,0.069 z"
         style="fill:#ffffff;fill-rule:nonzero"
         id="path96" /><path
         d="M 0.791,-0.023 C 0.774,-0.016 0.757,-0.01 0.74,-0.006 0.722,-0.002 0.704,0 0.687,0 0.668,0 0.65,-0.002 0.633,-0.006 0.616,-0.01 0.599,-0.016 0.582,-0.023 0.595,-0.038 0.611,-0.05 0.629,-0.058 0.647,-0.066 0.666,-0.07 0.687,-0.07 c 0.02,0 0.039,0.004 0.057,0.012 0.018,0.008 0.033,0.019 0.047,0.035 z"
         style="fill:#f03a17;fill-rule:nonzero"
         id="path98" /><path
         d="m 1.178,-0.176 c 0,0.015 -0.003,0.029 -0.009,0.041 C 1.164,-0.122 1.156,-0.111 1.147,-0.101 1.138,-0.092 1.126,-0.084 1.114,-0.079 1.101,-0.073 1.087,-0.07 1.073,-0.07 1.058,-0.07 1.044,-0.073 1.031,-0.079 1.019,-0.084 1.007,-0.092 0.998,-0.101 0.989,-0.111 0.981,-0.122 0.976,-0.135 0.97,-0.147 0.967,-0.161 0.967,-0.176 v -0.175 l 0.155,0.082 c 0.017,0.009 0.031,0.022 0.041,0.039 0.01,0.017 0.015,0.035 0.015,0.054 z M 0.406,-0.351 v 0.175 c 0,0.015 -0.003,0.029 -0.009,0.041 -0.005,0.013 -0.013,0.024 -0.022,0.034 -0.01,0.009 -0.021,0.017 -0.034,0.022 C 0.329,-0.073 0.315,-0.07 0.3,-0.07 0.286,-0.07 0.272,-0.073 0.259,-0.079 0.247,-0.084 0.236,-0.092 0.226,-0.101 0.217,-0.111 0.209,-0.122 0.204,-0.135 0.198,-0.147 0.195,-0.161 0.195,-0.176 0.195,-0.195 0.2,-0.213 0.21,-0.23 0.22,-0.247 0.234,-0.26 0.251,-0.269 Z"
         style="fill:#00bcf2;fill-rule:nonzero"
         id="path100" /></g></g></svg>
