<?xml version="1.0" encoding="UTF-8" standalone="no"?>
<svg
   width="16.844999"
   height="16.844999"
   viewBox="0 0 16.844999 16.844999"
   version="1.1"
   xml:space="preserve"
   style="clip-rule:evenodd;fill-rule:evenodd;stroke-linejoin:round;stroke-miterlimit:2"
   id="svg20568"
   sodipodi:docname="emojis.svg"
   xmlns:inkscape="http://www.inkscape.org/namespaces/inkscape"
   xmlns:sodipodi="http://sodipodi.sourceforge.net/DTD/sodipodi-0.dtd"
   xmlns="http://www.w3.org/2000/svg"
   xmlns:svg="http://www.w3.org/2000/svg"><defs
     id="defs20572" /><sodipodi:namedview
     id="namedview20570"
     pagecolor="#505050"
     bordercolor="#eeeeee"
     borderopacity="1"
     inkscape:pageshadow="0"
     inkscape:pageopacity="0"
     inkscape:pagecheckerboard="0" /><g
     transform="matrix(0.24,0,0,0.24,-255.6294,-512.1354)"
     id="g20566"><g
       transform="matrix(62.5,0,0,62.5,1057.31,2190.96)"
       id="g10256"><path
         d="M 0.687,0.21 C 0.639,0.21 0.593,0.205 0.548,0.193 0.504,0.182 0.462,0.166 0.422,0.144 0.383,0.123 0.346,0.097 0.312,0.066 0.278,0.035 0.248,0 0.22,-0.039 L 0.216,-0.044 C 0.203,-0.049 0.19,-0.056 0.179,-0.065 0.168,-0.074 0.158,-0.084 0.15,-0.095 0.142,-0.107 0.136,-0.12 0.132,-0.133 0.127,-0.147 0.125,-0.161 0.125,-0.176 c 0,-0.02 0.004,-0.039 0.012,-0.057 C 0.146,-0.252 0.158,-0.267 0.173,-0.281 0.158,-0.294 0.146,-0.31 0.137,-0.328 0.129,-0.346 0.125,-0.366 0.125,-0.386 0.125,-0.4 0.127,-0.413 0.131,-0.425 0.134,-0.438 0.14,-0.45 0.146,-0.461 0.153,-0.472 0.162,-0.481 0.171,-0.49 0.181,-0.499 0.192,-0.506 0.204,-0.512 0.198,-0.528 0.195,-0.544 0.195,-0.562 c 0,-0.019 0.004,-0.037 0.011,-0.054 0.008,-0.017 0.018,-0.032 0.03,-0.045 0.013,-0.012 0.028,-0.022 0.045,-0.03 0.017,-0.007 0.035,-0.011 0.054,-0.011 0,-0.02 0.004,-0.038 0.011,-0.055 0.008,-0.017 0.018,-0.032 0.03,-0.044 0.013,-0.013 0.028,-0.023 0.045,-0.03 0.017,-0.008 0.036,-0.011 0.055,-0.011 0.017,0 0.033,0.003 0.049,0.009 0.006,-0.013 0.013,-0.023 0.022,-0.033 0.009,-0.01 0.019,-0.018 0.03,-0.025 0.011,-0.007 0.023,-0.012 0.035,-0.016 0.013,-0.004 0.026,-0.006 0.039,-0.006 0.021,0 0.04,0.005 0.058,0.013 0.018,0.008 0.034,0.02 0.048,0.035 0.013,-0.015 0.029,-0.027 0.047,-0.035 0.018,-0.008 0.038,-0.013 0.058,-0.013 0.014,0 0.029,0.003 0.042,0.007 0.014,0.004 0.027,0.011 0.038,0.019 0.012,0.008 0.022,0.017 0.031,0.028 0.008,0.012 0.015,0.024 0.021,0.038 L 1,-0.817 c 0.012,0.009 0.024,0.018 0.035,0.027 0.012,0.009 0.023,0.018 0.035,0.029 0.028,0.026 0.053,0.055 0.076,0.087 0.022,0.031 0.04,0.064 0.055,0.099 0.016,0.035 0.027,0.071 0.035,0.109 0.008,0.038 0.012,0.076 0.012,0.115 0,0.052 -0.007,0.101 -0.02,0.149 C 1.215,-0.154 1.196,-0.11 1.171,-0.068 1.147,-0.026 1.118,0.012 1.083,0.046 1.049,0.08 1.011,0.109 0.97,0.134 0.928,0.158 0.883,0.177 0.835,0.19 0.788,0.204 0.738,0.21 0.687,0.21 Z"
         style="fill-rule:nonzero"
         id="path10232" /><path
         d="m 0.871,-0.167 c -0.031,0.014 -0.065,0.026 -0.1,0.037 -0.035,0.012 -0.072,0.021 -0.109,0.029 -0.037,0.008 -0.074,0.014 -0.111,0.018 -0.037,0.005 -0.072,0.007 -0.105,0.007 -0.031,0 -0.061,-0.002 -0.092,-0.006 -0.03,-0.003 -0.06,-0.009 -0.09,-0.018 l 0.001,-0.005 c -0.01,0 -0.019,-0.002 -0.027,-0.006 C 0.229,-0.115 0.222,-0.12 0.216,-0.126 0.209,-0.133 0.204,-0.14 0.201,-0.148 0.197,-0.157 0.195,-0.166 0.195,-0.176 c 0,-0.01 0.002,-0.019 0.006,-0.027 0.003,-0.009 0.008,-0.016 0.015,-0.022 0.006,-0.007 0.013,-0.012 0.022,-0.015 0.008,-0.004 0.017,-0.006 0.027,-0.006 0.01,0 0.018,-0.003 0.025,-0.01 0.007,-0.007 0.01,-0.015 0.01,-0.025 0,-0.01 -0.003,-0.018 -0.01,-0.025 -0.007,-0.006 -0.015,-0.01 -0.025,-0.01 -0.01,0 -0.019,-0.002 -0.027,-0.006 C 0.229,-0.325 0.222,-0.33 0.216,-0.337 0.209,-0.343 0.204,-0.35 0.201,-0.359 0.197,-0.367 0.195,-0.376 0.195,-0.386 c 0,-0.01 0.002,-0.019 0.006,-0.028 0.003,-0.008 0.008,-0.015 0.015,-0.022 0.006,-0.006 0.013,-0.011 0.022,-0.015 0.008,-0.004 0.017,-0.006 0.027,-0.006 H 0.342 L 0.286,-0.512 C 0.28,-0.519 0.274,-0.526 0.271,-0.535 0.267,-0.543 0.265,-0.552 0.265,-0.562 0.265,-0.571 0.267,-0.58 0.271,-0.589 0.274,-0.597 0.28,-0.605 0.286,-0.611 0.292,-0.617 0.3,-0.622 0.308,-0.626 0.317,-0.63 0.326,-0.632 0.335,-0.632 c 0.011,0 0.019,0.002 0.025,0.005 0.007,0.002 0.013,0.006 0.017,0.01 0.005,0.003 0.01,0.007 0.014,0.01 0.004,0.003 0.009,0.004 0.015,0.004 0.008,0 0.015,-0.003 0.02,-0.008 0.006,-0.006 0.009,-0.013 0.009,-0.021 0,-0.005 -0.002,-0.01 -0.005,-0.014 C 0.427,-0.651 0.424,-0.655 0.42,-0.66 0.416,-0.665 0.413,-0.671 0.41,-0.677 0.407,-0.683 0.406,-0.692 0.406,-0.702 c 0,-0.009 0.002,-0.019 0.005,-0.027 0.004,-0.008 0.009,-0.016 0.015,-0.022 0.006,-0.007 0.014,-0.012 0.022,-0.015 0.009,-0.004 0.018,-0.006 0.028,-0.006 0.009,0 0.018,0.002 0.027,0.005 0.008,0.004 0.016,0.009 0.022,0.016 l 0.056,0.055 v -0.076 c 0,-0.01 0.002,-0.019 0.006,-0.027 0.003,-0.009 0.008,-0.016 0.015,-0.023 0.006,-0.006 0.014,-0.011 0.022,-0.015 0.008,-0.003 0.018,-0.005 0.027,-0.005 0.01,0 0.019,0.002 0.028,0.005 0.008,0.004 0.016,0.009 0.022,0.015 0.006,0.007 0.011,0.014 0.015,0.023 0.004,0.008 0.006,0.017 0.006,0.027 0,0.009 0.003,0.018 0.01,0.024 0.007,0.007 0.015,0.011 0.025,0.011 0.009,0 0.017,-0.004 0.024,-0.011 0.007,-0.006 0.011,-0.015 0.011,-0.024 0,-0.01 0.002,-0.019 0.005,-0.027 0.004,-0.009 0.009,-0.016 0.015,-0.023 0.007,-0.006 0.014,-0.011 0.022,-0.015 0.009,-0.003 0.018,-0.005 0.028,-0.005 0.01,0 0.019,0.002 0.027,0.005 0.009,0.004 0.016,0.009 0.022,0.015 0.007,0.007 0.012,0.014 0.016,0.023 0.003,0.008 0.005,0.017 0.005,0.027 l 0.006,-0.001 c 0.002,0.004 0.004,0.009 0.005,0.014 0.001,0.006 0.002,0.012 0.003,0.018 0,0.006 0,0.012 0.001,0.018 0,0.006 0,0.011 0,0.016 0,0.038 -0.003,0.077 -0.007,0.115 C 0.935,-0.554 0.93,-0.516 0.925,-0.478 0.917,-0.426 0.909,-0.374 0.9,-0.322 0.891,-0.27 0.881,-0.219 0.871,-0.167 Z"
         style="fill:#13a10e;fill-rule:nonzero"
         id="path10234" /><path
         d="m 0.971,-0.722 c -0.01,0.055 -0.026,0.108 -0.047,0.159 -0.021,0.051 -0.047,0.099 -0.077,0.144 -0.03,0.045 -0.064,0.087 -0.103,0.126 -0.038,0.038 -0.08,0.072 -0.125,0.102 -0.045,0.03 -0.093,0.056 -0.144,0.077 -0.051,0.021 -0.104,0.037 -0.16,0.048 C 0.31,-0.087 0.306,-0.108 0.304,-0.129 0.302,-0.151 0.3,-0.172 0.3,-0.193 c 0,-0.05 0.007,-0.099 0.02,-0.145 0.013,-0.046 0.031,-0.089 0.055,-0.13 0.023,-0.04 0.052,-0.077 0.085,-0.11 0.033,-0.033 0.069,-0.061 0.11,-0.085 0.04,-0.023 0.083,-0.042 0.13,-0.055 0.046,-0.013 0.094,-0.019 0.144,-0.019 0.022,0 0.043,0.001 0.064,0.004 0.021,0.002 0.042,0.006 0.063,0.011 z"
         style="fill:#107c10;fill-rule:nonzero"
         id="path10236" /><path
         d="m 0.353,-0.333 c 0.012,0 0.023,0.002 0.034,0.006 0.011,0.005 0.02,0.011 0.028,0.019 0.008,0.008 0.015,0.017 0.019,0.028 0.005,0.011 0.007,0.022 0.007,0.034 0,0.012 -0.002,0.024 -0.007,0.034 C 0.43,-0.201 0.423,-0.192 0.415,-0.184 0.407,-0.176 0.398,-0.17 0.387,-0.165 0.376,-0.16 0.365,-0.158 0.353,-0.158 0.341,-0.158 0.33,-0.16 0.319,-0.165 0.308,-0.17 0.299,-0.176 0.291,-0.184 0.283,-0.192 0.277,-0.201 0.272,-0.212 0.267,-0.222 0.265,-0.234 0.265,-0.246 0.265,-0.258 0.267,-0.269 0.272,-0.28 0.277,-0.291 0.283,-0.3 0.291,-0.308 0.299,-0.316 0.308,-0.322 0.319,-0.327 0.33,-0.331 0.341,-0.333 0.353,-0.333 Z m 0.439,-0.439 c 0.012,0 0.023,0.002 0.034,0.007 0.011,0.004 0.02,0.011 0.028,0.019 0.008,0.008 0.014,0.017 0.019,0.027 0.004,0.011 0.006,0.022 0.006,0.034 0,0.012 -0.002,0.024 -0.006,0.035 -0.005,0.01 -0.011,0.02 -0.019,0.028 -0.008,0.008 -0.017,0.014 -0.028,0.018 -0.011,0.005 -0.022,0.007 -0.034,0.007 -0.012,0 -0.023,-0.002 -0.034,-0.007 C 0.747,-0.608 0.738,-0.614 0.73,-0.622 0.722,-0.63 0.715,-0.64 0.711,-0.65 0.706,-0.661 0.704,-0.673 0.704,-0.685 c 0,-0.012 0.002,-0.023 0.007,-0.034 0.004,-0.01 0.011,-0.019 0.019,-0.027 0.008,-0.008 0.017,-0.015 0.028,-0.019 0.011,-0.005 0.022,-0.007 0.034,-0.007 z m -0.404,0.246 c 0.012,0 0.024,0.002 0.034,0.006 0.011,0.005 0.02,0.011 0.028,0.019 0.008,0.008 0.015,0.018 0.019,0.028 0.005,0.011 0.007,0.022 0.007,0.034 0,0.012 -0.002,0.023 -0.007,0.034 -0.004,0.011 -0.011,0.02 -0.019,0.028 -0.008,0.008 -0.017,0.015 -0.028,0.019 -0.01,0.005 -0.022,0.007 -0.034,0.007 -0.012,0 -0.023,-0.002 -0.034,-0.007 C 0.343,-0.362 0.334,-0.369 0.326,-0.377 0.318,-0.385 0.312,-0.394 0.307,-0.405 0.303,-0.416 0.3,-0.427 0.3,-0.439 c 0,-0.012 0.003,-0.023 0.007,-0.034 0.005,-0.01 0.011,-0.02 0.019,-0.028 0.008,-0.008 0.017,-0.014 0.028,-0.019 0.011,-0.004 0.022,-0.006 0.034,-0.006 z"
         style="fill:#8e562e;fill-rule:nonzero"
         id="path10238" /><path
         d="m 0.722,-0.386 c 0,0.024 -0.005,0.047 -0.014,0.068 -0.01,0.022 -0.022,0.04 -0.038,0.056 C 0.654,-0.246 0.636,-0.234 0.615,-0.224 0.593,-0.215 0.57,-0.21 0.546,-0.21 0.521,-0.21 0.499,-0.215 0.478,-0.224 0.456,-0.234 0.438,-0.246 0.422,-0.262 0.406,-0.278 0.393,-0.297 0.384,-0.318 0.375,-0.339 0.371,-0.362 0.371,-0.386 c 0,-0.024 0.004,-0.047 0.013,-0.068 0.009,-0.022 0.022,-0.04 0.038,-0.056 0.016,-0.016 0.034,-0.028 0.056,-0.038 0.021,-0.009 0.044,-0.014 0.068,-0.014 0.024,0 0.047,0.005 0.068,0.014 0.021,0.009 0.04,0.022 0.056,0.038 0.016,0.016 0.028,0.034 0.038,0.055 0.009,0.022 0.014,0.044 0.014,0.069 z"
         style="fill:#bb9167;fill-rule:nonzero"
         id="path10240" /><path
         d="M 0.546,-0.246 C 0.527,-0.246 0.509,-0.249 0.491,-0.257 0.474,-0.264 0.459,-0.274 0.447,-0.287 0.434,-0.3 0.424,-0.315 0.417,-0.332 0.409,-0.349 0.406,-0.367 0.406,-0.386 c 0,-0.019 0.003,-0.038 0.011,-0.055 0.007,-0.017 0.017,-0.032 0.03,-0.044 0.012,-0.013 0.027,-0.023 0.044,-0.03 0.018,-0.008 0.036,-0.011 0.055,-0.011 0.019,0 0.037,0.003 0.054,0.011 0.017,0.007 0.032,0.017 0.045,0.03 0.013,0.012 0.023,0.027 0.03,0.044 0.008,0.017 0.012,0.036 0.012,0.055 0,0.019 -0.004,0.038 -0.011,0.055 -0.008,0.017 -0.018,0.032 -0.03,0.044 -0.013,0.013 -0.028,0.023 -0.045,0.03 -0.017,0.008 -0.036,0.011 -0.055,0.011 z"
         style="fill:#613d30;fill-rule:nonzero"
         id="path10242" /><path
         d="m 0.862,-0.526 c 0,0.024 -0.005,0.046 -0.014,0.068 -0.009,0.021 -0.022,0.04 -0.038,0.056 -0.015,0.016 -0.034,0.028 -0.055,0.037 -0.022,0.009 -0.044,0.014 -0.068,0.014 -0.025,0 -0.047,-0.005 -0.069,-0.014 C 0.597,-0.374 0.578,-0.386 0.563,-0.402 0.547,-0.418 0.534,-0.437 0.525,-0.458 0.516,-0.48 0.511,-0.502 0.511,-0.526 c 0,-0.025 0.005,-0.048 0.014,-0.069 0.009,-0.021 0.022,-0.04 0.038,-0.056 0.015,-0.015 0.034,-0.028 0.055,-0.037 0.021,-0.01 0.044,-0.014 0.069,-0.014 0.024,0 0.047,0.004 0.068,0.014 0.021,0.009 0.04,0.022 0.056,0.038 0.015,0.016 0.028,0.034 0.037,0.056 0.009,0.021 0.014,0.044 0.014,0.068 z"
         style="fill:#af0d1a;fill-rule:nonzero"
         id="path10244" /><path
         d="M 0.687,-0.386 C 0.667,-0.386 0.649,-0.39 0.632,-0.397 0.615,-0.405 0.6,-0.415 0.587,-0.427 0.575,-0.44 0.565,-0.455 0.557,-0.472 0.55,-0.489 0.546,-0.507 0.546,-0.526 c 0,-0.02 0.004,-0.038 0.011,-0.055 0.007,-0.017 0.017,-0.032 0.03,-0.045 0.013,-0.013 0.028,-0.023 0.045,-0.03 0.017,-0.007 0.035,-0.011 0.055,-0.011 0.019,0 0.037,0.004 0.054,0.011 0.017,0.007 0.032,0.017 0.045,0.03 0.012,0.013 0.022,0.028 0.03,0.045 0.007,0.017 0.011,0.035 0.011,0.055 0,0.019 -0.004,0.037 -0.011,0.054 -0.008,0.017 -0.018,0.032 -0.03,0.045 -0.013,0.012 -0.028,0.022 -0.045,0.03 -0.017,0.007 -0.035,0.011 -0.054,0.011 z"
         style="fill:#f03a17;fill-rule:nonzero"
         id="path10246" /><path
         d="M 0.932,-0.369 0.704,-0.105 H 0.476 c -0.01,0 -0.019,-0.002 -0.027,-0.006 C 0.44,-0.115 0.433,-0.12 0.427,-0.126 0.42,-0.133 0.415,-0.14 0.411,-0.148 0.408,-0.157 0.406,-0.166 0.406,-0.176 c 0,-0.01 0.002,-0.019 0.005,-0.027 C 0.415,-0.212 0.42,-0.219 0.427,-0.225 0.433,-0.232 0.44,-0.237 0.449,-0.24 0.457,-0.244 0.466,-0.246 0.476,-0.246 v -0.035 c 0,-0.01 0.002,-0.019 0.005,-0.027 C 0.485,-0.317 0.49,-0.324 0.496,-0.33 0.503,-0.337 0.51,-0.342 0.519,-0.345 0.527,-0.349 0.536,-0.351 0.546,-0.351 H 0.625 C 0.619,-0.362 0.616,-0.374 0.616,-0.386 c 0,-0.01 0.002,-0.019 0.006,-0.028 0.004,-0.008 0.009,-0.015 0.015,-0.022 0.006,-0.006 0.014,-0.011 0.022,-0.015 0.009,-0.004 0.018,-0.006 0.028,-0.006 v -0.069 c 0,-0.01 10e-4,-0.019 0.005,-0.028 C 0.695,-0.562 0.7,-0.57 0.707,-0.576 0.713,-0.582 0.721,-0.587 0.729,-0.591 0.738,-0.595 0.747,-0.597 0.757,-0.597 h 0.035 c 0,-0.009 0.002,-0.019 0.005,-0.027 0.004,-0.008 0.009,-0.016 0.015,-0.022 0.007,-0.007 0.014,-0.012 0.022,-0.015 0.009,-0.004 0.018,-0.006 0.028,-0.006 0.01,0 0.019,0.002 0.027,0.006 0.009,0.003 0.016,0.008 0.022,0.015 0.007,0.006 0.012,0.014 0.016,0.022 0.003,0.008 0.005,0.018 0.005,0.027 z"
         style="fill:#79db75;fill-rule:nonzero"
         id="path10248" /><path
         d="m 0.941,-0.75 c 0.002,0 0.003,0.001 0.006,0.001 0.003,0 0.006,-0.001 0.008,-0.003 0.003,-0.001 0.005,-0.002 0.008,-0.002 0.002,0 0.004,0 0.006,0.002 0.033,0.023 0.062,0.05 0.088,0.079 0.026,0.03 0.048,0.062 0.066,0.096 0.018,0.034 0.031,0.07 0.041,0.108 0.009,0.038 0.014,0.078 0.014,0.118 0,0.045 -0.006,0.089 -0.018,0.131 -0.012,0.041 -0.028,0.081 -0.049,0.117 -0.022,0.036 -0.047,0.07 -0.077,0.099 C 1.004,0.026 0.971,0.052 0.935,0.073 0.898,0.094 0.859,0.111 0.817,0.123 0.775,0.134 0.732,0.14 0.687,0.14 0.647,0.14 0.609,0.135 0.57,0.126 0.532,0.117 0.495,0.103 0.46,0.085 0.425,0.067 0.393,0.045 0.363,0.02 0.333,-0.006 0.307,-0.035 0.285,-0.068 L 0.284,-0.07 c 0,-0.003 0.001,-0.005 0.004,-0.007 l 0.019,-0.012 c 0.003,-0.002 0.004,-0.004 0.004,-0.007 0,0 0,-0.001 -0.001,-0.002 0.087,-0.015 0.166,-0.041 0.237,-0.079 0.071,-0.038 0.133,-0.085 0.187,-0.142 0.054,-0.056 0.098,-0.121 0.133,-0.194 0.035,-0.073 0.06,-0.152 0.074,-0.237 z"
         style="fill:#d8b094;fill-rule:nonzero"
         id="path10250" /><path
         d="m 0.969,-0.752 c -0.011,0.058 -0.027,0.113 -0.049,0.166 -0.022,0.054 -0.048,0.104 -0.08,0.151 -0.031,0.047 -0.067,0.09 -0.107,0.13 -0.04,0.04 -0.084,0.076 -0.131,0.107 -0.047,0.032 -0.097,0.059 -0.15,0.081 -0.053,0.022 -0.109,0.038 -0.167,0.049 L 0.264,-0.1 c 0.057,-0.009 0.113,-0.025 0.165,-0.046 0.053,-0.021 0.103,-0.047 0.15,-0.078 0.047,-0.031 0.09,-0.066 0.129,-0.105 0.04,-0.04 0.075,-0.083 0.106,-0.13 0.03,-0.046 0.056,-0.096 0.078,-0.149 0.021,-0.053 0.036,-0.108 0.046,-0.165 z"
         style="fill:#f7d7c4;fill-rule:nonzero"
         id="path10252" /><path
         d="m 0.668,-0.177 c 0.007,0 0.014,0.002 0.02,0.004 0.007,0.003 0.012,0.007 0.017,0.012 0.005,0.005 0.009,0.01 0.012,0.017 0.002,0.006 0.004,0.013 0.004,0.02 0,0.007 -0.002,0.014 -0.004,0.02 C 0.714,-0.097 0.71,-0.092 0.705,-0.087 0.7,-0.082 0.695,-0.078 0.688,-0.075 0.682,-0.073 0.675,-0.071 0.668,-0.071 0.66,-0.071 0.654,-0.073 0.647,-0.075 0.641,-0.078 0.635,-0.082 0.631,-0.087 0.626,-0.091 0.622,-0.097 0.619,-0.103 0.617,-0.11 0.615,-0.117 0.615,-0.124 c 0,-0.007 0.002,-0.014 0.004,-0.021 0.003,-0.006 0.007,-0.012 0.012,-0.016 0.004,-0.005 0.01,-0.009 0.016,-0.012 0.007,-0.002 0.013,-0.004 0.021,-0.004 z M 0.546,0 c 0.01,0 0.018,0.003 0.025,0.01 0.007,0.007 0.01,0.015 0.01,0.025 0,0.01 -0.003,0.018 -0.01,0.025 C 0.564,0.067 0.555,0.07 0.546,0.07 0.536,0.07 0.528,0.067 0.521,0.06 0.515,0.053 0.511,0.045 0.511,0.035 0.511,0.026 0.515,0.017 0.521,0.01 0.528,0.003 0.536,0 0.546,0 Z m 0.527,-0.457 c 0.009,0 0.017,0.004 0.024,0.011 0.007,0.007 0.01,0.015 0.01,0.025 0,0.009 -0.003,0.017 -0.01,0.024 -0.007,0.007 -0.015,0.011 -0.024,0.011 -0.01,0 -0.018,-0.004 -0.025,-0.01 -0.007,-0.007 -0.01,-0.016 -0.01,-0.025 0,-0.01 0.003,-0.018 0.01,-0.025 0.007,-0.007 0.015,-0.011 0.025,-0.011 z m -0.229,0.352 c 0.007,0 0.014,0.001 0.021,0.004 0.006,0.002 0.012,0.006 0.017,0.011 0.004,0.005 0.008,0.01 0.011,0.017 0.003,0.006 0.004,0.013 0.004,0.02 0,0.008 -0.001,0.015 -0.004,0.021 C 0.89,-0.026 0.886,-0.02 0.882,-0.015 0.877,-0.011 0.871,-0.007 0.865,-0.004 0.858,-0.001 0.851,0 0.844,0 0.837,0 0.83,-0.001 0.823,-0.004 0.817,-0.007 0.812,-0.011 0.807,-0.016 0.803,-0.021 0.799,-0.026 0.796,-0.032 0.793,-0.039 0.792,-0.046 0.792,-0.053 c 0,-0.007 0.001,-0.014 0.004,-0.02 0.003,-0.006 0.007,-0.012 0.011,-0.017 0.005,-0.005 0.01,-0.009 0.016,-0.011 0.007,-0.003 0.014,-0.004 0.021,-0.004 z"
         style="fill:#bb9167;fill-rule:nonzero"
         id="path10254" /></g></g></svg>
