<?xml version="1.0" encoding="UTF-8" standalone="no"?>
<svg
   width="16.844999"
   height="16.844999"
   viewBox="0 0 16.844999 16.844999"
   version="1.1"
   xml:space="preserve"
   style="clip-rule:evenodd;fill-rule:evenodd;stroke-linejoin:round;stroke-miterlimit:2"
   id="svg20568"
   sodipodi:docname="emojis.svg"
   xmlns:inkscape="http://www.inkscape.org/namespaces/inkscape"
   xmlns:sodipodi="http://sodipodi.sourceforge.net/DTD/sodipodi-0.dtd"
   xmlns="http://www.w3.org/2000/svg"
   xmlns:svg="http://www.w3.org/2000/svg"><defs
     id="defs20572" /><sodipodi:namedview
     id="namedview20570"
     pagecolor="#505050"
     bordercolor="#eeeeee"
     borderopacity="1"
     inkscape:pageshadow="0"
     inkscape:pageopacity="0"
     inkscape:pagecheckerboard="0" /><g
     transform="matrix(0.24,0,0,0.24,-235.03476,-512.1354)"
     id="g20566"><g
       transform="matrix(62.5,0,0,62.5,971.499,2190.96)"
       id="g10230"><path
         d="M 0.932,0.21 C 0.911,0.21 0.891,0.208 0.87,0.205 0.85,0.201 0.83,0.195 0.81,0.187 0.791,0.18 0.773,0.17 0.755,0.159 0.738,0.147 0.722,0.134 0.707,0.12 L 0.156,-0.435 C 0.146,-0.445 0.138,-0.456 0.133,-0.469 0.128,-0.482 0.125,-0.496 0.125,-0.509 0.125,-0.52 0.127,-0.531 0.13,-0.542 0.134,-0.552 0.138,-0.562 0.145,-0.57 0.151,-0.579 0.158,-0.587 0.167,-0.594 0.176,-0.6 0.185,-0.605 0.196,-0.609 0.197,-0.625 0.202,-0.64 0.21,-0.655 0.218,-0.67 0.229,-0.682 0.242,-0.691 0.255,-0.713 0.27,-0.732 0.288,-0.75 c 0.017,-0.018 0.037,-0.033 0.058,-0.046 0.01,-0.013 0.022,-0.023 0.037,-0.031 0.014,-0.008 0.029,-0.013 0.046,-0.014 0.003,-0.011 0.008,-0.021 0.015,-0.03 0.006,-0.008 0.014,-0.016 0.023,-0.022 0.009,-0.006 0.018,-0.011 0.029,-0.014 0.01,-0.004 0.021,-0.006 0.032,-0.006 0.014,0 0.027,0.003 0.04,0.008 0.013,0.006 0.025,0.013 0.035,0.023 l 0.554,0.551 c 0.015,0.015 0.028,0.031 0.039,0.049 0.012,0.017 0.021,0.036 0.029,0.055 0.008,0.019 0.013,0.039 0.017,0.06 0.004,0.02 0.006,0.041 0.006,0.062 v 0.07 C 1.248,-0.001 1.242,0.031 1.229,0.06 1.216,0.09 1.198,0.116 1.176,0.138 1.154,0.161 1.128,0.178 1.098,0.191 1.068,0.204 1.036,0.21 1.002,0.21 Z"
         style="fill-rule:nonzero"
         id="path10212" /><path
         d="M 0.68,-0.695 0.344,-0.359 C 0.338,-0.364 0.331,-0.368 0.325,-0.372 0.318,-0.376 0.312,-0.381 0.307,-0.386 0.3,-0.393 0.294,-0.403 0.289,-0.414 0.283,-0.426 0.279,-0.438 0.275,-0.451 0.272,-0.464 0.269,-0.477 0.267,-0.49 0.266,-0.503 0.265,-0.514 0.265,-0.524 c 0,-0.034 0.006,-0.067 0.019,-0.097 0.013,-0.03 0.031,-0.057 0.053,-0.079 0.023,-0.023 0.049,-0.04 0.08,-0.053 0.03,-0.013 0.062,-0.02 0.097,-0.02 0.01,0 0.021,0.001 0.034,0.003 0.013,0.002 0.025,0.004 0.038,0.008 0.013,0.003 0.025,0.007 0.037,0.013 0.011,0.005 0.021,0.011 0.028,0.018 0.006,0.006 0.011,0.012 0.015,0.018 0.004,0.006 0.008,0.012 0.014,0.018 z"
         style="fill:#8e562e;fill-rule:nonzero"
         id="path10214" /><path
         d="m 0.195,-0.509 c 0,-0.01 0.004,-0.018 0.011,-0.025 0.006,-0.007 0.015,-0.01 0.024,-0.01 0.008,0 0.016,0.002 0.023,0.008 0.006,0.005 0.013,0.011 0.018,0.018 0.006,0.006 0.011,0.012 0.017,0.018 0.005,0.006 0.011,0.008 0.017,0.008 0.004,0 0.008,-0.001 0.012,-0.005 0.003,-0.004 0.005,-0.008 0.005,-0.012 0,-0.006 -0.003,-0.012 -0.009,-0.017 C 0.307,-0.532 0.301,-0.538 0.293,-0.544 0.286,-0.551 0.28,-0.558 0.274,-0.566 0.268,-0.575 0.265,-0.584 0.265,-0.595 c 0,-0.007 0.002,-0.014 0.004,-0.021 0.003,-0.006 0.007,-0.012 0.012,-0.017 0.004,-0.004 0.01,-0.008 0.016,-0.011 0.006,-0.003 0.013,-0.004 0.021,-0.004 0.007,0 0.014,0.001 0.019,0.004 0.006,0.002 0.011,0.005 0.015,0.009 0.005,0.003 0.009,0.007 0.013,0.012 0.003,0.004 0.007,0.008 0.011,0.012 0.004,0.003 0.008,0.006 0.012,0.009 0.005,0.002 0.01,0.003 0.016,0.003 0.009,0 0.017,-0.003 0.024,-0.01 0.007,-0.007 0.011,-0.015 0.011,-0.024 0,-0.009 -0.003,-0.016 -0.008,-0.023 C 0.426,-0.662 0.42,-0.667 0.414,-0.673 0.408,-0.679 0.402,-0.686 0.397,-0.693 0.392,-0.7 0.389,-0.708 0.389,-0.719 c 0,-0.007 0.002,-0.014 0.004,-0.021 0.003,-0.006 0.007,-0.011 0.012,-0.016 0.005,-0.005 0.01,-0.009 0.017,-0.012 0.006,-0.003 0.013,-0.004 0.02,-0.004 0.011,0 0.021,0.003 0.029,0.009 0.008,0.006 0.015,0.013 0.022,0.02 0.006,0.007 0.012,0.013 0.018,0.019 0.005,0.006 0.011,0.009 0.017,0.009 0.004,0 0.008,-0.002 0.012,-0.005 0.004,-0.004 0.005,-0.008 0.005,-0.012 0,-0.006 -0.002,-0.012 -0.008,-0.017 C 0.532,-0.755 0.526,-0.76 0.519,-0.766 0.513,-0.772 0.507,-0.778 0.501,-0.784 0.496,-0.791 0.493,-0.799 0.493,-0.807 c 0,-0.01 0.004,-0.018 0.01,-0.025 0.007,-0.007 0.015,-0.01 0.025,-0.01 0.009,0 0.017,0.003 0.025,0.01 l 0.098,0.095 0.022,0.049 -0.321,0.321 -0.051,-0.02 -0.095,-0.098 C 0.199,-0.492 0.195,-0.5 0.195,-0.509 Z"
         style="fill:#13a10e;fill-rule:nonzero"
         id="path10216" /><path
         d="m 0.616,-0.702 h 0.035 l 0.028,0.014 v 0.337 H 0.352 L 0.335,-0.386 v -0.035 c 0,-0.01 0.002,-0.019 0.006,-0.028 C 0.345,-0.457 0.35,-0.465 0.356,-0.471 0.363,-0.477 0.37,-0.482 0.378,-0.486 0.387,-0.489 0.396,-0.491 0.406,-0.491 H 0.451 C 0.448,-0.497 0.445,-0.502 0.444,-0.508 0.442,-0.514 0.441,-0.52 0.441,-0.526 c 0,-0.01 0.002,-0.019 0.005,-0.028 0.004,-0.008 0.009,-0.016 0.015,-0.022 0.007,-0.006 0.014,-0.011 0.023,-0.015 0.008,-0.004 0.017,-0.006 0.027,-0.006 0.006,0 0.012,0.001 0.018,0.003 0.006,0.002 0.011,0.004 0.017,0.007 v -0.045 c 0,-0.01 0.002,-0.019 0.006,-0.027 C 0.555,-0.668 0.56,-0.675 0.567,-0.681 0.573,-0.688 0.58,-0.693 0.589,-0.697 0.597,-0.7 0.606,-0.702 0.616,-0.702 Z"
         style="fill:#ffffff;fill-rule:nonzero"
         id="path10218" /><path
         d="m 0.74,-0.578 c -0.037,0.057 -0.078,0.109 -0.125,0.156 -0.048,0.046 -0.099,0.088 -0.156,0.125 l -0.07,-0.071 0.28,-0.281 z"
         style="fill:#af0d1a;fill-rule:nonzero"
         id="path10220" /><path
         d="M 0.74,-0.578 0.823,-0.495 0.542,-0.214 0.459,-0.297 Z"
         style="fill:#ffb900;fill-rule:nonzero"
         id="path10222" /><path
         d="m 0.651,-0.737 0.456,0.456 c 0.017,0.017 0.03,0.034 0.039,0.051 0.01,0.017 0.017,0.035 0.022,0.053 0.004,0.018 0.007,0.037 0.009,0.057 10e-4,0.02 10e-4,0.041 10e-4,0.063 0,0.015 -10e-4,0.031 -0.002,0.046 C 1.174,0.004 1.17,0.019 1.164,0.033 L 0.651,-0.351 Z"
         style="fill:#f7d7c4;fill-rule:nonzero"
         id="path10224" /><path
         d="m 0.687,-0.386 c 0.018,0 0.036,0.003 0.053,0.01 0.017,0.007 0.032,0.017 0.046,0.031 L 1.164,0.033 C 1.157,0.049 1.148,0.064 1.137,0.077 1.126,0.091 1.114,0.102 1.099,0.111 1.085,0.12 1.07,0.128 1.053,0.133 1.037,0.138 1.02,0.14 1.002,0.14 H 0.932 C 0.899,0.14 0.868,0.134 0.837,0.123 0.807,0.111 0.78,0.094 0.757,0.07 L 0.3,-0.386 Z m 0.228,0 c 0.007,0 0.014,0.001 0.02,0.004 0.007,0.003 0.012,0.006 0.017,0.011 0.005,0.005 0.008,0.01 0.011,0.017 0.003,0.007 0.004,0.013 0.004,0.021 0,0.007 -0.001,0.014 -0.004,0.02 -0.003,0.007 -0.006,0.012 -0.011,0.017 -0.005,0.005 -0.01,0.008 -0.017,0.011 -0.006,0.003 -0.013,0.004 -0.02,0.004 -0.008,0 -0.014,-10e-4 -0.021,-0.004 C 0.888,-0.288 0.882,-0.292 0.877,-0.296 0.873,-0.301 0.869,-0.307 0.866,-0.313 0.863,-0.32 0.862,-0.326 0.862,-0.333 c 0,-0.008 0.001,-0.014 0.004,-0.021 0.003,-0.006 0.007,-0.012 0.011,-0.017 0.005,-0.004 0.011,-0.008 0.017,-0.011 0.007,-0.003 0.013,-0.004 0.021,-0.004 z M 0.757,-0.562 c 0.009,0 0.017,0.004 0.024,0.011 0.007,0.007 0.011,0.015 0.011,0.025 0,0.009 -0.004,0.017 -0.011,0.024 -0.007,0.007 -0.015,0.011 -0.024,0.011 -0.01,0 -0.018,-0.004 -0.025,-0.011 -0.007,-0.007 -0.01,-0.015 -0.01,-0.024 0,-0.01 0.003,-0.018 0.01,-0.025 0.007,-0.007 0.015,-0.011 0.025,-0.011 z"
         style="fill:#d8b094;fill-rule:nonzero"
         id="path10226" /><path
         d="m 0.563,-0.316 c 0.008,0 0.014,0.001 0.021,0.004 0.006,0.003 0.012,0.007 0.017,0.011 0.005,0.005 0.008,0.011 0.011,0.017 0.003,0.007 0.004,0.014 0.004,0.021 0,0.007 -0.001,0.014 -0.004,0.02 C 0.609,-0.237 0.605,-0.231 0.601,-0.226 0.596,-0.221 0.59,-0.217 0.584,-0.215 0.577,-0.212 0.571,-0.21 0.563,-0.21 0.556,-0.21 0.55,-0.212 0.543,-0.215 0.537,-0.217 0.531,-0.221 0.527,-0.226 0.522,-0.231 0.518,-0.237 0.515,-0.243 0.513,-0.249 0.511,-0.256 0.511,-0.263 c 0,-0.007 0.002,-0.014 0.004,-0.02 0.003,-0.007 0.007,-0.012 0.011,-0.017 0.005,-0.005 0.01,-0.009 0.017,-0.012 0.006,-0.003 0.013,-0.004 0.02,-0.004 z m 0.159,0.035 c 0.009,0 0.018,0.004 0.025,0.01 0.006,0.007 0.01,0.016 0.01,0.025 0,0.01 -0.004,0.018 -0.011,0.025 -0.007,0.007 -0.015,0.011 -0.024,0.011 -0.01,0 -0.018,-0.004 -0.025,-0.011 -0.007,-0.007 -0.01,-0.015 -0.01,-0.025 0,-0.009 0.003,-0.018 0.01,-0.025 0.007,-0.006 0.015,-0.01 0.025,-0.01 z m 0.193,0.211 c 0.007,0 0.014,0.001 0.02,0.004 0.007,0.003 0.012,0.006 0.017,0.011 0.005,0.005 0.008,0.01 0.011,0.017 0.003,0.006 0.004,0.013 0.004,0.02 0,0.008 -0.001,0.014 -0.004,0.021 C 0.96,0.009 0.957,0.015 0.952,0.02 0.947,0.024 0.941,0.028 0.935,0.031 0.928,0.034 0.922,0.035 0.915,0.035 0.907,0.035 0.901,0.034 0.894,0.031 0.888,0.028 0.882,0.024 0.877,0.02 0.873,0.015 0.869,0.009 0.866,0.003 0.863,-0.004 0.862,-0.01 0.862,-0.018 c 0,-0.007 0.001,-0.013 0.004,-0.02 C 0.869,-0.044 0.873,-0.05 0.877,-0.055 0.882,-0.06 0.888,-0.063 0.894,-0.066 0.901,-0.069 0.907,-0.07 0.915,-0.07 Z"
         style="fill:#bb9167;fill-rule:nonzero"
         id="path10228" /></g></g></svg>
