<?xml version="1.0" encoding="UTF-8" standalone="no"?>
<svg
   width="16.844999"
   height="13.155"
   viewBox="0 0 16.844999 13.155"
   version="1.1"
   xml:space="preserve"
   style="clip-rule:evenodd;fill-rule:evenodd;stroke-linejoin:round;stroke-miterlimit:2"
   id="svg20568"
   sodipodi:docname="emojis.svg"
   xmlns:inkscape="http://www.inkscape.org/namespaces/inkscape"
   xmlns:sodipodi="http://sodipodi.sourceforge.net/DTD/sodipodi-0.dtd"
   xmlns="http://www.w3.org/2000/svg"
   xmlns:svg="http://www.w3.org/2000/svg"><defs
     id="defs20572" /><sodipodi:namedview
     id="namedview20570"
     pagecolor="#505050"
     bordercolor="#eeeeee"
     borderopacity="1"
     inkscape:pageshadow="0"
     inkscape:pageopacity="0"
     inkscape:pagecheckerboard="0" /><g
     transform="matrix(0.24,0,0,0.24,-214.43916,-514.2504)"
     id="g20566"><g
       transform="matrix(62.5,0,0,62.5,885.684,2190.96)"
       id="g10210"><path
         d="m 1.248,-0.281 c 0,0.017 -0.003,0.034 -0.009,0.05 -0.006,0.016 -0.015,0.03 -0.026,0.043 v 0.118 c 0,0.024 -0.005,0.046 -0.014,0.068 C 1.19,0.019 1.177,0.038 1.161,0.053 1.146,0.069 1.127,0.082 1.106,0.091 1.084,0.1 1.062,0.105 1.038,0.105 H 0.3 C 0.276,0.105 0.253,0.1 0.232,0.091 0.211,0.082 0.192,0.07 0.176,0.054 0.16,0.038 0.148,0.019 0.139,-0.002 0.13,-0.024 0.125,-0.046 0.125,-0.07 v -0.211 c 0,-0.025 0.006,-0.048 0.018,-0.069 0.012,-0.021 0.028,-0.038 0.05,-0.051 C 0.182,-0.413 0.174,-0.427 0.169,-0.443 0.163,-0.458 0.16,-0.475 0.16,-0.491 c 0,-0.02 0.004,-0.038 0.011,-0.055 0.007,-0.017 0.017,-0.032 0.03,-0.045 0.013,-0.013 0.028,-0.023 0.045,-0.03 0.017,-0.007 0.035,-0.011 0.054,-0.011 0.013,0 0.026,0.002 0.039,0.006 0.003,-0.016 0.01,-0.031 0.018,-0.045 0.009,-0.013 0.019,-0.025 0.031,-0.035 0.012,-0.01 0.026,-0.017 0.041,-0.023 0.015,-0.006 0.03,-0.008 0.047,-0.008 0.017,0 0.033,0.003 0.048,0.008 0.016,0.006 0.03,0.014 0.042,0.025 0.013,-0.022 0.03,-0.038 0.051,-0.05 0.022,-0.012 0.045,-0.018 0.07,-0.018 0.024,0 0.047,0.006 0.069,0.018 0.021,0.012 0.038,0.028 0.051,0.05 0.012,-0.011 0.026,-0.019 0.042,-0.025 0.015,-0.005 0.031,-0.008 0.048,-0.008 0.017,0 0.032,0.002 0.047,0.008 0.015,0.006 0.029,0.013 0.041,0.023 0.012,0.01 0.022,0.022 0.031,0.035 0.008,0.014 0.015,0.029 0.018,0.045 0.014,-0.004 0.026,-0.006 0.039,-0.006 0.019,0 0.038,0.004 0.054,0.011 0.017,0.007 0.032,0.017 0.045,0.03 0.013,0.013 0.023,0.028 0.03,0.045 0.007,0.017 0.011,0.035 0.011,0.055 0,0.016 -0.003,0.032 -0.009,0.048 -0.005,0.015 -0.013,0.029 -0.024,0.042 0.022,0.013 0.038,0.03 0.05,0.051 0.012,0.021 0.018,0.044 0.018,0.069 z"
         style="fill-rule:nonzero"
         id="path10190" /><path
         d="m 0.195,-0.141 c 0,-0.035 0.005,-0.069 0.014,-0.102 0.009,-0.033 0.022,-0.064 0.039,-0.092 0.017,-0.029 0.037,-0.055 0.06,-0.078 0.024,-0.024 0.05,-0.044 0.078,-0.061 0.029,-0.017 0.06,-0.03 0.093,-0.039 0.032,-0.009 0.067,-0.013 0.102,-0.013 v 0.53 L 0.316,0.035 c -0.002,0 -0.005,10e-4 -0.007,10e-4 -0.002,0 -0.004,0 -0.006,0 C 0.288,0.036 0.274,0.033 0.261,0.028 0.248,0.022 0.237,0.015 0.227,0.005 0.217,-0.004 0.21,-0.016 0.204,-0.029 0.198,-0.042 0.195,-0.056 0.195,-0.07 Z"
         style="fill:#eba300;fill-rule:nonzero"
         id="path10192" /><path
         d="M 0.335,0 C 0.321,0 0.307,-0.003 0.294,-0.008 0.282,-0.014 0.271,-0.021 0.261,-0.031 0.252,-0.041 0.244,-0.052 0.239,-0.064 0.233,-0.077 0.23,-0.091 0.23,-0.105 v -0.036 c 0.013,-0.005 0.025,-0.009 0.038,-0.011 0.013,-0.003 0.026,-0.004 0.04,-0.004 0.017,0 0.033,0.002 0.049,0.004 0.017,0.003 0.033,0.007 0.049,0.011 V 0 Z"
         style="fill:#613d30;fill-rule:nonzero"
         id="path10194" /><path
         d="m 0.265,-0.21 c 0.021,-0.012 0.044,-0.017 0.068,-0.017 0.013,0 0.025,0.001 0.037,0.004 0.013,0.003 0.024,0.007 0.036,0.013 v 0.069 H 0.23 v -0.035 c 0,-0.009 0.004,-0.017 0.011,-0.024 0.007,-0.007 0.015,-0.01 0.024,-0.01 z"
         style="fill:#af0d1a;fill-rule:nonzero"
         id="path10196" /><path
         d="m 1.031,-0.351 h 0.076 c 0.01,0 0.019,0.002 0.028,0.006 0.008,0.003 0.016,0.008 0.022,0.015 0.006,0.006 0.011,0.013 0.015,0.022 0.004,0.008 0.006,0.017 0.006,0.027 0,0.01 -0.002,0.019 -0.006,0.028 C 1.168,-0.245 1.163,-0.238 1.157,-0.231 1.151,-0.225 1.143,-0.22 1.135,-0.216 1.126,-0.212 1.117,-0.21 1.107,-0.21 H 0.265 C 0.255,-0.21 0.246,-0.212 0.238,-0.216 0.229,-0.22 0.222,-0.225 0.216,-0.231 0.209,-0.238 0.204,-0.245 0.201,-0.253 0.197,-0.262 0.195,-0.271 0.195,-0.281 0.195,-0.291 0.197,-0.3 0.201,-0.308 0.204,-0.317 0.209,-0.324 0.216,-0.33 0.222,-0.337 0.229,-0.342 0.238,-0.345 0.246,-0.349 0.255,-0.351 0.265,-0.351 H 0.342 L 0.251,-0.442 C 0.237,-0.456 0.23,-0.472 0.23,-0.491 c 0,-0.01 0.002,-0.019 0.006,-0.028 0.003,-0.008 0.008,-0.015 0.015,-0.022 0.006,-0.006 0.013,-0.011 0.022,-0.015 0.008,-0.004 0.018,-0.006 0.027,-0.006 0.01,0 0.019,0.002 0.027,0.006 0.009,0.003 0.017,0.008 0.023,0.015 l 0.056,0.056 v -0.112 c 0,-0.009 0.002,-0.019 0.005,-0.027 0.004,-0.008 0.009,-0.016 0.016,-0.022 0.006,-0.007 0.013,-0.012 0.022,-0.015 0.008,-0.004 0.017,-0.006 0.027,-0.006 0.01,0 0.019,0.002 0.027,0.006 0.009,0.003 0.016,0.008 0.023,0.015 0.006,0.006 0.011,0.014 0.015,0.022 0.003,0.008 0.005,0.018 0.005,0.027 0,0.01 0.003,0.018 0.01,0.025 0.007,0.007 0.016,0.01 0.025,0.01 0.008,0 0.015,-10e-4 0.019,-0.004 0.005,-0.003 0.008,-0.007 0.011,-0.012 0.002,-0.005 0.004,-0.01 0.004,-0.016 0.001,-0.006 0.001,-0.013 0.001,-0.019 v -0.019 c 0,-0.01 0.002,-0.019 0.006,-0.027 0.004,-0.009 0.009,-0.016 0.015,-0.022 0.006,-0.007 0.014,-0.012 0.022,-0.016 0.009,-0.003 0.018,-0.005 0.028,-0.005 0.009,0 0.018,0.002 0.027,0.005 0.008,0.004 0.016,0.009 0.022,0.016 0.006,0.006 0.011,0.013 0.015,0.022 0.004,0.008 0.006,0.017 0.006,0.027 v 0.018 c 0,0.007 0,0.013 0.001,0.019 0,0.006 0.002,0.012 0.004,0.017 0.003,0.005 0.006,0.009 0.011,0.012 0.005,0.003 0.011,0.004 0.019,0.004 0.009,0 0.018,-0.003 0.024,-0.01 0.007,-0.007 0.011,-0.015 0.011,-0.025 0,-0.009 0.002,-0.019 0.005,-0.027 0.004,-0.008 0.009,-0.016 0.015,-0.022 0.007,-0.007 0.014,-0.012 0.023,-0.015 0.008,-0.004 0.017,-0.006 0.027,-0.006 0.01,0 0.019,0.002 0.027,0.006 0.009,0.003 0.016,0.008 0.023,0.015 0.006,0.006 0.011,0.014 0.015,0.022 0.003,0.008 0.005,0.018 0.005,0.027 v 0.112 l 0.056,-0.056 c 0.014,-0.014 0.03,-0.021 0.049,-0.021 0.01,0 0.019,0.002 0.028,0.006 0.008,0.004 0.015,0.009 0.022,0.015 0.006,0.007 0.011,0.014 0.015,0.022 0.004,0.009 0.006,0.018 0.006,0.028 0,0.019 -0.007,0.035 -0.021,0.049 z"
         style="fill:#13a10e;fill-rule:nonzero"
         id="path10198" /><path
         d="M 0.3,-0.281 H 0.406 V -0.21 H 0.265 v -0.036 c 0,-0.009 0.004,-0.017 0.011,-0.024 0.007,-0.007 0.015,-0.011 0.024,-0.011 z"
         style="fill:#ffffff;fill-rule:nonzero"
         id="path10200" /><path
         d="m 0.651,-0.544 c 0,-0.005 0.002,-0.009 0.006,-0.013 l 0.034,-0.035 c 0.004,-0.003 0.008,-0.005 0.013,-0.005 0.005,0 0.009,0.002 0.012,0.005 0.004,0.004 0.005,0.008 0.005,0.013 0,0.005 -0.001,0.009 -0.005,0.012 L 0.681,-0.532 C 0.678,-0.528 0.674,-0.526 0.669,-0.526 0.664,-0.526 0.66,-0.528 0.657,-0.532 0.653,-0.535 0.651,-0.539 0.651,-0.544 Z M 0.3,-0.333 c 0,-0.005 0.002,-0.009 0.006,-0.013 l 0.035,-0.035 c 0.003,-0.003 0.007,-0.005 0.012,-0.005 0.005,0 0.009,0.002 0.012,0.005 0.004,0.003 0.006,0.007 0.006,0.012 0,0.005 -0.002,0.009 -0.005,0.013 L 0.331,-0.321 C 0.327,-0.318 0.323,-0.316 0.318,-0.316 0.313,-0.316 0.309,-0.318 0.306,-0.321 0.302,-0.325 0.3,-0.329 0.3,-0.333 Z m 0.158,-0.229 c 0.005,0 0.009,0.002 0.013,0.005 l 0.035,0.036 c 0.003,0.003 0.005,0.007 0.005,0.012 0,0.005 -0.002,0.009 -0.006,0.012 -0.003,0.004 -0.007,0.006 -0.012,0.006 -0.004,0 -0.008,-0.002 -0.012,-0.006 L 0.446,-0.532 C 0.442,-0.535 0.44,-0.539 0.44,-0.544 c 0,-0.005 0.002,-0.009 0.006,-0.012 0.003,-0.004 0.007,-0.006 0.012,-0.006 z m 0.562,0.071 c 0.005,0 0.009,0.001 0.012,0.005 l 0.035,0.035 c 0.004,0.003 0.005,0.007 0.005,0.013 0,0.004 -0.002,0.008 -0.005,0.012 -0.004,0.003 -0.008,0.005 -0.012,0.005 -0.005,0 -0.009,-0.002 -0.013,-0.005 L 1.007,-0.461 C 1.004,-0.465 1.002,-0.469 1.002,-0.474 c 0,-0.004 0.002,-0.008 0.005,-0.012 0.004,-0.003 0.008,-0.005 0.013,-0.005 z"
         style="fill:#e5e5e5;fill-rule:nonzero"
         id="path10202" /><path
         d="m 0.476,-0.457 c 0.01,0 0.018,0.004 0.025,0.011 0.007,0.007 0.01,0.015 0.01,0.025 v 0.035 c 0,0.009 -0.003,0.017 -0.01,0.024 -0.007,0.007 -0.015,0.011 -0.025,0.011 H 0.441 c -0.01,0 -0.018,-0.003 -0.025,-0.01 -0.007,-0.007 -0.01,-0.015 -0.01,-0.025 v -0.035 c 0,-0.01 0.003,-0.018 0.01,-0.025 0.007,-0.007 0.015,-0.011 0.025,-0.011 z m 0.095,-0.175 c 0.005,0 0.011,0.002 0.018,0.007 0.007,0.004 0.014,0.009 0.02,0.015 0.006,0.006 0.011,0.013 0.016,0.02 0.004,0.007 0.006,0.013 0.006,0.018 0,0.006 -0.002,0.012 -0.006,0.019 C 0.62,-0.546 0.615,-0.54 0.609,-0.534 0.603,-0.528 0.597,-0.522 0.59,-0.518 0.583,-0.514 0.576,-0.512 0.571,-0.512 0.565,-0.512 0.559,-0.514 0.552,-0.518 0.545,-0.522 0.538,-0.527 0.532,-0.533 0.526,-0.539 0.521,-0.546 0.517,-0.553 0.513,-0.56 0.511,-0.566 0.511,-0.572 c 0,-0.005 0.002,-0.011 0.007,-0.018 0.004,-0.007 0.009,-0.014 0.015,-0.02 0.006,-0.006 0.012,-0.011 0.019,-0.015 0.007,-0.005 0.013,-0.007 0.019,-0.007 z m 0.326,0.07 c 0.01,0 0.018,0.004 0.025,0.011 0.007,0.007 0.01,0.015 0.01,0.025 v 0.035 c 0,0.009 -0.003,0.017 -0.01,0.024 -0.007,0.007 -0.016,0.01 -0.025,0.01 H 0.862 c -0.01,0 -0.018,-0.003 -0.025,-0.01 -0.007,-0.007 -0.01,-0.015 -0.01,-0.024 v -0.035 c 0,-0.01 0.003,-0.018 0.01,-0.025 0.007,-0.007 0.015,-0.011 0.025,-0.011 z"
         style="fill:#ef6950;fill-rule:nonzero"
         id="path10204" /><path
         d="m 0.757,-0.526 c 0.035,0 0.069,0.004 0.102,0.013 0.033,0.009 0.064,0.022 0.092,0.039 0.029,0.017 0.055,0.037 0.079,0.061 0.023,0.023 0.043,0.049 0.06,0.078 0.017,0.028 0.03,0.059 0.039,0.092 0.009,0.033 0.014,0.067 0.014,0.102 v 0.071 c 0,0.014 -0.003,0.028 -0.009,0.041 C 1.129,-0.017 1.121,-0.005 1.112,0.004 1.102,0.014 1.091,0.021 1.079,0.027 1.066,0.032 1.052,0.035 1.038,0.035 H 0.303 C 0.313,0.035 0.322,0.033 0.33,0.029 0.338,0.025 0.345,0.02 0.351,0.014 0.357,0.008 0.362,0 0.365,-0.008 0.369,-0.017 0.371,-0.026 0.371,-0.035 v -0.106 c 0,-0.035 0.004,-0.069 0.014,-0.102 0.009,-0.033 0.022,-0.064 0.039,-0.092 0.016,-0.029 0.036,-0.055 0.06,-0.078 0.023,-0.024 0.049,-0.044 0.078,-0.061 0.029,-0.017 0.059,-0.03 0.092,-0.039 0.033,-0.009 0.067,-0.013 0.103,-0.013 z"
         style="fill:#ffc83d;fill-rule:nonzero"
         id="path10206" /><path
         d="m 0.862,-0.176 c 0.01,0 0.019,0.002 0.027,0.006 0.009,0.004 0.016,0.009 0.022,0.015 0.007,0.006 0.012,0.014 0.016,0.022 0.003,0.009 0.005,0.018 0.005,0.028 0,0.009 -0.002,0.018 -0.005,0.027 -0.004,0.009 -0.009,0.016 -0.016,0.023 -0.006,0.006 -0.013,0.011 -0.022,0.014 -0.008,0.004 -0.017,0.006 -0.027,0.006 -0.01,0 -0.019,-0.002 -0.028,-0.006 C 0.826,-0.045 0.819,-0.05 0.812,-0.056 0.806,-0.062 0.801,-0.07 0.797,-0.078 0.794,-0.087 0.792,-0.096 0.792,-0.105 c 0,-0.01 0.002,-0.019 0.005,-0.028 0.004,-0.008 0.009,-0.016 0.015,-0.022 0.007,-0.006 0.014,-0.011 0.022,-0.015 0.009,-0.004 0.018,-0.006 0.028,-0.006 z m 0.14,-0.105 c 0.01,0 0.019,0.004 0.025,0.01 0.007,0.007 0.011,0.016 0.011,0.025 0,0.01 -0.004,0.018 -0.011,0.025 C 1.02,-0.214 1.012,-0.21 1.002,-0.21 0.993,-0.21 0.985,-0.214 0.978,-0.221 0.971,-0.228 0.967,-0.236 0.967,-0.246 c 0,-0.009 0.004,-0.018 0.011,-0.025 0.006,-0.006 0.015,-0.01 0.024,-0.01 z m -0.28,-0.14 c 0.009,0 0.018,0.003 0.025,0.01 0.006,0.007 0.01,0.015 0.01,0.025 0,0.01 -0.004,0.018 -0.01,0.025 -0.007,0.007 -0.016,0.01 -0.025,0.01 -0.01,0 -0.018,-0.003 -0.025,-0.01 -0.007,-0.007 -0.01,-0.015 -0.01,-0.025 0,-0.01 0.003,-0.018 0.01,-0.025 0.007,-0.007 0.015,-0.01 0.025,-0.01 z m -0.159,0.175 c 0.008,0 0.014,0.002 0.021,0.005 0.006,0.002 0.012,0.006 0.017,0.011 0.004,0.004 0.008,0.01 0.011,0.016 0.003,0.007 0.004,0.013 0.004,0.021 0,0.007 -0.001,0.014 -0.004,0.02 -0.003,0.007 -0.006,0.012 -0.011,0.017 -0.005,0.005 -0.011,0.008 -0.017,0.011 -0.007,0.003 -0.013,0.004 -0.021,0.004 -0.007,0 -0.014,-0.001 -0.02,-0.004 C 0.536,-0.148 0.531,-0.151 0.526,-0.156 0.522,-0.161 0.518,-0.167 0.515,-0.173 0.513,-0.179 0.511,-0.186 0.511,-0.193 c 0,-0.008 0.002,-0.014 0.004,-0.021 0.003,-0.006 0.007,-0.012 0.012,-0.016 0.004,-0.005 0.01,-0.009 0.016,-0.011 0.007,-0.003 0.013,-0.005 0.02,-0.005 z"
         style="fill:#eba300;fill-rule:nonzero"
         id="path10208" /></g></g></svg>
