<?xml version="1.0" encoding="UTF-8" standalone="no"?>
<svg
   width="16.844999"
   height="16.844999"
   viewBox="0 0 16.844999 16.844999"
   version="1.1"
   xml:space="preserve"
   style="clip-rule:evenodd;fill-rule:evenodd;stroke-linejoin:round;stroke-miterlimit:2"
   id="svg20568"
   sodipodi:docname="emojis.svg"
   xmlns:inkscape="http://www.inkscape.org/namespaces/inkscape"
   xmlns:sodipodi="http://sodipodi.sourceforge.net/DTD/sodipodi-0.dtd"
   xmlns="http://www.w3.org/2000/svg"
   xmlns:svg="http://www.w3.org/2000/svg"><defs
     id="defs20572" /><sodipodi:namedview
     id="namedview20570"
     pagecolor="#505050"
     bordercolor="#eeeeee"
     borderopacity="1"
     inkscape:pageshadow="0"
     inkscape:pageopacity="0"
     inkscape:pagecheckerboard="0" /><g
     transform="matrix(0.24,0,0,0.24,-374.9934,-512.1354)"
     id="g20566"><g
       transform="matrix(62.5,0,0,62.5,1554.66,2190.96)"
       id="g10362"><path
         d="m 1.248,-0.755 c 0,0.022 -0.005,0.044 -0.014,0.064 -0.009,0.021 -0.022,0.039 -0.038,0.053 -0.015,0.013 -0.029,0.025 -0.043,0.038 -0.015,0.012 -0.029,0.024 -0.044,0.037 0.019,0.011 0.037,0.025 0.053,0.04 0.017,0.015 0.032,0.031 0.045,0.049 0.012,0.017 0.022,0.036 0.03,0.057 0.007,0.021 0.011,0.042 0.011,0.066 0,0.052 -0.007,0.101 -0.02,0.149 C 1.215,-0.154 1.196,-0.11 1.171,-0.068 1.147,-0.026 1.118,0.012 1.083,0.046 1.049,0.08 1.011,0.109 0.97,0.134 0.928,0.158 0.883,0.177 0.835,0.19 0.788,0.204 0.738,0.21 0.687,0.21 0.635,0.21 0.585,0.204 0.537,0.19 0.49,0.177 0.445,0.158 0.403,0.134 0.362,0.109 0.324,0.08 0.29,0.046 0.255,0.012 0.226,-0.026 0.202,-0.068 0.177,-0.11 0.158,-0.154 0.145,-0.202 0.132,-0.25 0.125,-0.3 0.125,-0.351 c 0,-0.028 0.005,-0.053 0.015,-0.077 0.01,-0.024 0.023,-0.046 0.04,-0.065 0.017,-0.02 0.037,-0.038 0.059,-0.054 0.022,-0.015 0.046,-0.029 0.07,-0.042 0.024,-0.012 0.049,-0.022 0.075,-0.031 0.025,-0.008 0.049,-0.016 0.072,-0.021 0.038,-0.009 0.076,-0.016 0.115,-0.02 0.038,-0.004 0.077,-0.006 0.116,-0.006 0.019,0 0.038,0.001 0.058,0.002 0.019,0.001 0.038,0.002 0.058,0.004 l 0.168,-0.196 c 0.014,-0.018 0.032,-0.032 0.053,-0.041 0.022,-0.01 0.044,-0.015 0.066,-0.015 h 0.035 c 0.017,0 0.033,0.004 0.048,0.01 0.015,0.007 0.028,0.015 0.039,0.027 0.011,0.011 0.02,0.024 0.026,0.039 0.007,0.015 0.01,0.031 0.01,0.047 z"
         style="fill-rule:nonzero"
         id="path10346" /><path
         d="m 1.178,-0.351 c 0,0.045 -0.006,0.089 -0.018,0.131 -0.012,0.041 -0.028,0.081 -0.049,0.117 -0.022,0.036 -0.047,0.07 -0.077,0.099 C 1.004,0.026 0.971,0.052 0.935,0.073 0.898,0.094 0.859,0.111 0.817,0.123 0.775,0.134 0.732,0.14 0.687,0.14 0.641,0.14 0.598,0.134 0.556,0.123 0.514,0.111 0.475,0.094 0.438,0.073 0.402,0.052 0.369,0.026 0.339,-0.004 0.309,-0.033 0.284,-0.067 0.262,-0.103 0.241,-0.139 0.225,-0.179 0.213,-0.22 0.201,-0.262 0.195,-0.306 0.195,-0.351 Z"
         style="fill:#f03a17;fill-rule:nonzero"
         id="path10348" /><path
         d="m 0.195,-0.351 c 0,-0.022 0.005,-0.043 0.015,-0.062 0.01,-0.018 0.023,-0.036 0.04,-0.051 0.016,-0.016 0.035,-0.03 0.056,-0.042 0.021,-0.012 0.042,-0.023 0.065,-0.033 0.022,-0.009 0.044,-0.017 0.065,-0.023 0.022,-0.007 0.042,-0.012 0.059,-0.016 0.032,-0.006 0.063,-0.011 0.095,-0.014 0.032,-0.003 0.064,-0.005 0.097,-0.005 0.032,0 0.064,0.002 0.096,0.005 0.032,0.003 0.063,0.008 0.095,0.014 0.018,0.004 0.037,0.009 0.059,0.016 0.021,0.006 0.043,0.014 0.065,0.023 0.023,0.01 0.044,0.021 0.065,0.033 0.021,0.012 0.04,0.026 0.056,0.042 0.017,0.015 0.03,0.033 0.04,0.051 0.01,0.019 0.015,0.04 0.015,0.062 0,0.022 -0.005,0.043 -0.015,0.062 -0.01,0.018 -0.023,0.036 -0.04,0.051 -0.016,0.016 -0.035,0.03 -0.056,0.042 C 1.046,-0.184 1.025,-0.173 1.002,-0.164 0.98,-0.154 0.958,-0.146 0.937,-0.14 0.915,-0.133 0.896,-0.128 0.878,-0.125 0.846,-0.118 0.815,-0.113 0.783,-0.11 0.751,-0.107 0.719,-0.105 0.687,-0.105 0.654,-0.105 0.622,-0.107 0.59,-0.11 0.558,-0.113 0.527,-0.118 0.495,-0.125 0.478,-0.128 0.458,-0.133 0.436,-0.14 0.415,-0.146 0.393,-0.154 0.371,-0.164 0.348,-0.173 0.327,-0.184 0.306,-0.196 0.285,-0.208 0.266,-0.222 0.25,-0.238 0.233,-0.253 0.22,-0.271 0.21,-0.289 0.2,-0.308 0.195,-0.329 0.195,-0.351 Z"
         style="fill:#ef6950;fill-rule:nonzero"
         id="path10350" /><path
         d="m 1.143,-0.351 c 0,0.013 -0.003,0.024 -0.007,0.035 H 0.237 C 0.233,-0.327 0.23,-0.338 0.23,-0.351 c 0,-0.02 0.006,-0.038 0.016,-0.055 0.01,-0.017 0.023,-0.032 0.039,-0.045 0.016,-0.014 0.035,-0.026 0.056,-0.037 0.02,-0.011 0.041,-0.02 0.063,-0.028 0.021,-0.007 0.042,-0.014 0.062,-0.019 0.02,-0.005 0.038,-0.009 0.054,-0.012 0.027,-0.005 0.055,-0.009 0.083,-0.011 0.028,-0.002 0.056,-0.004 0.084,-0.004 0.028,0 0.055,0.002 0.083,0.004 0.028,0.002 0.055,0.006 0.083,0.011 0.015,0.003 0.033,0.007 0.053,0.012 0.02,0.005 0.041,0.012 0.063,0.019 0.021,0.008 0.042,0.017 0.063,0.028 0.021,0.011 0.04,0.023 0.056,0.037 0.016,0.013 0.029,0.028 0.039,0.045 0.011,0.016 0.016,0.035 0.016,0.055 z"
         style="fill:#f03a17;fill-rule:nonzero"
         id="path10352" /><path
         d="M 0.687,-0.141 C 0.66,-0.141 0.633,-0.142 0.606,-0.144 0.579,-0.146 0.553,-0.15 0.526,-0.154 0.511,-0.157 0.494,-0.16 0.475,-0.165 0.457,-0.169 0.438,-0.175 0.418,-0.181 0.399,-0.188 0.38,-0.195 0.361,-0.204 0.342,-0.212 0.324,-0.222 0.308,-0.234 0.292,-0.245 0.278,-0.257 0.265,-0.271 0.253,-0.284 0.243,-0.299 0.237,-0.316 c 0.006,-0.016 0.016,-0.031 0.028,-0.045 0.013,-0.014 0.027,-0.026 0.043,-0.037 0.016,-0.011 0.034,-0.021 0.053,-0.03 0.019,-0.009 0.038,-0.016 0.057,-0.023 0.02,-0.006 0.039,-0.012 0.057,-0.016 0.019,-0.004 0.036,-0.008 0.051,-0.011 0.027,-0.004 0.053,-0.008 0.08,-0.01 0.027,-0.002 0.054,-0.003 0.081,-0.003 0.027,0 0.053,0.001 0.08,0.003 0.027,0.002 0.053,0.006 0.08,0.01 0.015,0.003 0.032,0.007 0.051,0.011 0.019,0.004 0.037,0.01 0.057,0.016 0.019,0.007 0.038,0.014 0.057,0.023 0.019,0.009 0.037,0.019 0.053,0.03 0.016,0.011 0.031,0.023 0.043,0.037 0.012,0.014 0.022,0.029 0.028,0.045 -0.006,0.017 -0.016,0.032 -0.028,0.045 -0.012,0.014 -0.027,0.026 -0.043,0.037 -0.016,0.012 -0.034,0.022 -0.053,0.03 -0.019,0.009 -0.038,0.016 -0.057,0.023 -0.02,0.006 -0.038,0.012 -0.057,0.016 -0.019,0.005 -0.036,0.008 -0.051,0.011 -0.027,0.004 -0.053,0.008 -0.08,0.01 -0.027,0.002 -0.053,0.003 -0.08,0.003 z"
         style="fill:#ffd679;fill-rule:nonzero"
         id="path10354" /><path
         d="m 0.353,-0.369 c 0.005,0 0.009,0.002 0.012,0.005 0.004,0.004 0.006,0.008 0.006,0.013 0,0.005 -0.002,0.009 -0.006,0.012 -0.003,0.004 -0.007,0.006 -0.012,0.006 -0.005,0 -0.009,-0.002 -0.012,-0.006 -0.004,-0.003 -0.006,-0.007 -0.006,-0.012 0,-0.005 0.002,-0.009 0.006,-0.013 0.003,-0.003 0.007,-0.005 0.012,-0.005 z m 0,0.071 c 0.005,0 0.009,0.001 0.012,0.005 0.004,0.003 0.006,0.007 0.006,0.012 0,0.005 -0.002,0.009 -0.006,0.013 -0.003,0.003 -0.007,0.005 -0.012,0.005 -0.005,0 -0.009,-0.002 -0.012,-0.005 -0.004,-0.004 -0.006,-0.008 -0.006,-0.013 0,-0.005 0.002,-0.009 0.006,-0.012 0.003,-0.004 0.007,-0.005 0.012,-0.005 z m 0.07,0 c 0.005,0 0.009,0.001 0.013,0.005 0.003,0.003 0.005,0.007 0.005,0.012 0,0.005 -0.002,0.009 -0.005,0.013 -0.004,0.003 -0.008,0.005 -0.013,0.005 -0.005,0 -0.009,-0.002 -0.012,-0.005 -0.004,-0.004 -0.005,-0.008 -0.005,-0.013 0,-0.005 10e-4,-0.009 0.005,-0.012 0.003,-0.004 0.007,-0.005 0.012,-0.005 z"
         style="fill:#eba300;fill-rule:nonzero"
         id="path10356" /><path
         d="m 1.125,-0.842 c 0.007,0 0.014,0.001 0.021,0.004 0.006,0.003 0.012,0.006 0.016,0.011 0.005,0.005 0.009,0.01 0.012,0.017 0.002,0.006 0.004,0.013 0.004,0.02 v 0.013 c 0,0.008 0,0.016 -10e-4,0.024 0,0.007 -0.001,0.015 -0.003,0.022 -0.002,0.008 -0.005,0.015 -0.008,0.022 -0.004,0.006 -0.01,0.013 -0.017,0.019 L 0.752,-0.351 H 0.631 L 1.024,-0.812 C 1.032,-0.821 1.042,-0.829 1.054,-0.834 1.066,-0.84 1.078,-0.842 1.09,-0.842 Z"
         style="fill:#cccccc;fill-rule:nonzero"
         id="path10358" /><path
         d="m 0.827,-0.491 c 0.025,-0.032 0.05,-0.063 0.075,-0.094 0.025,-0.03 0.051,-0.061 0.076,-0.093 0.003,-0.004 0.008,-0.01 0.014,-0.018 0.007,-0.008 0.014,-0.016 0.021,-0.025 0.007,-0.009 0.014,-0.018 0.02,-0.025 0.007,-0.008 0.012,-0.013 0.015,-0.016 0.004,-0.003 0.008,-0.005 0.011,-0.007 0.004,-0.002 0.008,-0.003 0.013,-0.003 0.01,0 0.018,0.003 0.025,0.01 0.007,0.007 0.01,0.015 0.01,0.025 0,0.005 0,0.01 -0.002,0.013 C 1.103,-0.72 1.1,-0.716 1.097,-0.712 1.095,-0.709 1.089,-0.704 1.082,-0.698 1.074,-0.691 1.066,-0.684 1.057,-0.677 1.048,-0.67 1.039,-0.663 1.031,-0.657 1.023,-0.65 1.017,-0.646 1.013,-0.643 0.982,-0.617 0.951,-0.592 0.92,-0.567 0.889,-0.542 0.858,-0.517 0.827,-0.491 Z"
         style="fill:#f2f2f2;fill-rule:nonzero"
         id="path10360" /></g></g></svg>
