<?xml version="1.0" encoding="UTF-8" standalone="no"?>
<svg
   width="16.32"
   height="12.165"
   viewBox="0 0 16.32 12.165"
   version="1.1"
   xml:space="preserve"
   style="clip-rule:evenodd;fill-rule:evenodd;stroke-linejoin:round;stroke-miterlimit:2"
   id="svg20568"
   sodipodi:docname="emojis.svg"
   xmlns:inkscape="http://www.inkscape.org/namespaces/inkscape"
   xmlns:sodipodi="http://sodipodi.sourceforge.net/DTD/sodipodi-0.dtd"
   xmlns="http://www.w3.org/2000/svg"
   xmlns:svg="http://www.w3.org/2000/svg"><defs
     id="defs20572" /><sodipodi:namedview
     id="namedview20570"
     pagecolor="#505050"
     bordercolor="#eeeeee"
     borderopacity="1"
     inkscape:pageshadow="0"
     inkscape:pageopacity="0"
     inkscape:pagecheckerboard="0" /><g
     transform="matrix(0.24,0,0,0.24,-432.5694,-516.6804)"
     id="g20566"><g
       transform="matrix(62.5,0,0,62.5,1794.56,2190.96)"
       id="g10412"><path
         d="M 0.125,0.008 V -0.114 L 0.23,-0.167 v -0.092 c 0,-0.009 0.002,-0.019 0.004,-0.028 C 0.237,-0.296 0.241,-0.305 0.245,-0.313 0.25,-0.322 0.256,-0.329 0.263,-0.336 0.27,-0.342 0.277,-0.348 0.286,-0.352 0.298,-0.358 0.31,-0.364 0.323,-0.37 0.335,-0.376 0.348,-0.38 0.362,-0.381 0.366,-0.386 0.37,-0.39 0.375,-0.395 0.38,-0.399 0.386,-0.402 0.391,-0.405 L 0.781,-0.6 c 0.007,-0.003 0.014,-0.006 0.022,-0.007 0.008,-0.002 0.016,-0.003 0.024,-0.003 0.007,0 0.015,0.001 0.022,0.002 0.008,0.002 0.015,0.004 0.022,0.007 l 0.18,0.09 c 0.009,0.005 0.016,0.01 0.023,0.017 0.007,0.007 0.013,0.014 0.018,0.022 0.005,0.008 0.009,0.017 0.012,0.026 0.002,0.01 0.003,0.019 0.003,0.029 v 0.093 l 0.106,0.053 V -0.15 L 0.511,0.201 Z"
         style="fill-rule:nonzero"
         id="path10396" /><path
         d="M 0.616,0.035 0.511,0.1 0.195,-0.07 0.827,-0.386 Z"
         style="fill:#e5e5e5;fill-rule:nonzero"
         id="path10398" /><path
         d="M 1.041,-0.169 0.837,-0.052 0.616,0.035 H 0.511 v -0.07 l 0.386,-0.316 0.246,0.123 z"
         style="fill:#a6a6a6;fill-rule:nonzero"
         id="path10400" /><path
         d="M 0.511,0.123 0.499,0.1 0.511,0.087 1.143,-0.228 v 0.035 z"
         style="fill:#757575;fill-rule:nonzero"
         id="path10402" /><path
         d="M 0.195,-0.035 V -0.07 l 0.316,0.157 v 0.036 z"
         style="fill:#cccccc;fill-rule:nonzero"
         id="path10404" /><path
         d="M 0.576,-0.208 0.511,-0.141 0.306,-0.278 c 0.002,-0.003 0.005,-0.007 0.01,-0.01 0.004,-0.003 0.009,-0.006 0.014,-0.008 l 0.026,-0.013 c 0.006,-0.002 0.01,-0.003 0.015,-0.003 0.006,0 0.012,0.002 0.018,0.005 0.005,0.004 0.011,0.006 0.017,0.009 l 0.068,0.024 c 0.006,0.002 0.012,0.004 0.016,0.005 0.005,0.001 0.011,0.003 0.017,0.006 0.004,0.002 0.008,0.004 0.013,0.008 0.005,0.003 0.011,0.006 0.016,0.01 0.006,0.003 0.011,0.007 0.016,0.011 0.006,0.003 0.01,0.006 0.014,0.008 L 0.411,-0.331 C 0.412,-0.333 0.414,-0.335 0.417,-0.337 0.419,-0.34 0.422,-0.341 0.424,-0.343 l 0.388,-0.194 c 0.005,-0.002 0.009,-0.003 0.015,-0.003 0.005,0 0.01,0.001 0.014,0.003 l 0.178,0.089 c 0.005,0.003 0.009,0.006 0.013,0.012 L 0.618,-0.191 0.57,-0.223 c 0.002,0.002 0.003,0.004 0.003,0.007 0,0.003 0.001,0.006 0.003,0.008 z"
         style="fill:#faec6e;fill-rule:nonzero"
         id="path10406" /><path
         d="m 0.6,-0.158 0.016,-0.049 0.001,-0.006 c 0.001,-0.006 0.003,-0.011 0.007,-0.015 0.003,-0.004 0.007,-0.007 0.012,-0.01 l 0.396,-0.198 c 10e-4,0.003 0.003,0.006 0.004,0.009 10e-4,0.003 0.002,0.006 0.002,0.01 v 0.167 c 0,0.006 -0.001,0.011 -0.003,0.015 C 1.033,-0.231 1.03,-0.228 1.027,-0.225 1.024,-0.222 1.02,-0.22 1.016,-0.217 1.011,-0.215 1.007,-0.213 1.002,-0.21 l -0.371,0.185 c -0.002,0.001 -0.005,0.002 -0.007,0.003 -0.003,0 -0.005,0 -0.008,0 L 0.593,-0.113 0.581,-0.035 C 0.58,-0.031 0.58,-0.026 0.58,-0.022 c 0,0.004 0,0.008 -0.001,0.012 C 0.578,-0.007 0.576,-0.003 0.574,0 0.572,0.003 0.568,0.006 0.563,0.009 0.559,0.011 0.556,0.013 0.551,0.015 0.547,0.018 0.543,0.02 0.538,0.022 0.534,0.025 0.529,0.027 0.524,0.028 0.52,0.03 0.515,0.031 0.511,0.031 L 0.472,-0.088 0.511,-0.154 c 0,-0.006 0.002,-0.012 0.005,-0.018 0.004,-0.006 0.008,-0.01 0.014,-0.013 l 0.046,-0.023 c 0.001,0.002 0.002,0.005 0.005,0.01 0.003,0.005 0.005,0.01 0.008,0.016 0.003,0.005 0.005,0.01 0.007,0.015 0.003,0.004 0.004,0.007 0.004,0.009 z"
         style="fill:#dfbe00;fill-rule:nonzero"
         id="path10408" /><path
         d="M 0.511,-0.154 V 0.031 C 0.505,0.031 0.499,0.029 0.493,0.026 0.488,0.023 0.482,0.021 0.476,0.018 L 0.319,-0.061 C 0.313,-0.064 0.308,-0.068 0.305,-0.074 0.302,-0.08 0.3,-0.086 0.3,-0.092 v -0.167 c 0,-0.004 0.001,-0.007 0.002,-0.01 0.001,-0.003 0.003,-0.006 0.004,-0.009 l 0.186,0.093 c 0.006,0.003 0.01,0.007 0.014,0.013 0.003,0.006 0.005,0.012 0.005,0.018 z m 0.105,-0.053 v 0.185 C 0.61,-0.022 0.604,-0.023 0.598,-0.026 0.593,-0.029 0.587,-0.032 0.581,-0.035 V -0.189 C 0.581,-0.195 0.579,-0.201 0.576,-0.207 0.573,-0.213 0.569,-0.217 0.563,-0.22 L 0.406,-0.298 v -0.014 c 0,-0.006 0.002,-0.012 0.005,-0.019 l 0.186,0.093 c 0.006,0.003 0.011,0.007 0.014,0.013 0.004,0.005 0.005,0.012 0.005,0.018 z"
         style="fill:#fce100;fill-rule:nonzero"
         id="path10410" /></g></g></svg>
