<?xml version="1.0" encoding="UTF-8" standalone="no"?>
<svg
   width="16.860001"
   height="15.255"
   viewBox="0 0 16.860001 15.255"
   version="1.1"
   xml:space="preserve"
   style="clip-rule:evenodd;fill-rule:evenodd;stroke-linejoin:round;stroke-miterlimit:2"
   id="svg20568"
   sodipodi:docname="emojis.svg"
   xmlns:inkscape="http://www.inkscape.org/namespaces/inkscape"
   xmlns:sodipodi="http://sodipodi.sourceforge.net/DTD/sodipodi-0.dtd"
   xmlns="http://www.w3.org/2000/svg"
   xmlns:svg="http://www.w3.org/2000/svg"><defs
     id="defs20572" /><sodipodi:namedview
     id="namedview20570"
     pagecolor="#505050"
     bordercolor="#eeeeee"
     borderopacity="1"
     inkscape:pageshadow="0"
     inkscape:pageopacity="0"
     inkscape:pagecheckerboard="0" /><g
     transform="matrix(0.24,0,0,0.24,-541.9566,-513.2004)"
     id="g20566"><g
       transform="matrix(62.5,0,0,62.5,2250.34,2190.96)"
       id="g10532"><path
         d="M 0.546,0.175 C 0.507,0.175 0.47,0.17 0.434,0.16 0.398,0.15 0.365,0.136 0.334,0.118 0.303,0.099 0.274,0.077 0.249,0.052 0.223,0.026 0.201,-0.002 0.183,-0.033 0.164,-0.065 0.15,-0.098 0.14,-0.134 0.13,-0.17 0.125,-0.207 0.125,-0.246 v -0.07 c 0,-0.012 0.002,-0.023 0.005,-0.033 0.004,-0.011 0.009,-0.021 0.016,-0.029 0.006,-0.009 0.014,-0.017 0.023,-0.023 0.01,-0.007 0.02,-0.012 0.031,-0.016 0.005,-0.04 0.015,-0.079 0.03,-0.115 0.015,-0.037 0.034,-0.072 0.056,-0.103 0.023,-0.031 0.048,-0.06 0.078,-0.085 0.029,-0.026 0.06,-0.048 0.094,-0.066 0.035,-0.018 0.071,-0.032 0.109,-0.042 0.039,-0.009 0.079,-0.014 0.12,-0.014 0.041,0 0.08,0.005 0.119,0.014 0.038,0.01 0.074,0.024 0.109,0.042 0.034,0.018 0.065,0.04 0.095,0.066 0.029,0.025 0.054,0.054 0.077,0.085 0.022,0.031 0.041,0.066 0.056,0.103 0.015,0.036 0.025,0.075 0.03,0.115 0.017,0.005 0.03,0.012 0.04,0.021 0.01,0.008 0.017,0.018 0.023,0.03 0.005,0.011 0.008,0.024 0.01,0.038 0.002,0.013 0.003,0.028 0.003,0.043 l -0.001,0.039 c 0,0.039 -0.005,0.076 -0.015,0.112 C 1.223,-0.098 1.209,-0.065 1.19,-0.033 1.172,-0.002 1.15,0.026 1.125,0.052 1.099,0.077 1.07,0.099 1.039,0.118 1.008,0.136 0.974,0.15 0.938,0.16 0.903,0.17 0.865,0.175 0.827,0.175 Z"
         style="fill-rule:nonzero"
         id="path10518" /><path
         d="m 0.265,-0.351 c 0,-0.039 0.005,-0.076 0.015,-0.112 0.01,-0.036 0.025,-0.069 0.043,-0.1 0.018,-0.032 0.04,-0.06 0.066,-0.086 0.025,-0.025 0.054,-0.047 0.085,-0.065 0.031,-0.019 0.065,-0.033 0.101,-0.043 0.036,-0.01 0.073,-0.015 0.112,-0.015 0.038,0 0.076,0.005 0.111,0.015 0.036,0.01 0.07,0.024 0.101,0.043 0.031,0.018 0.06,0.04 0.085,0.065 0.026,0.026 0.048,0.054 0.066,0.086 0.018,0.031 0.032,0.064 0.042,0.1 0.01,0.036 0.015,0.073 0.015,0.112 -0.07,0.009 -0.141,0.015 -0.211,0.02 -0.07,0.005 -0.14,0.007 -0.211,0.007 -0.071,0 -0.141,-0.002 -0.21,-0.007 -0.07,-0.004 -0.14,-0.011 -0.21,-0.02 z"
         style="fill:#f2f2f2;fill-rule:nonzero"
         id="path10520" /><path
         d="m 1.143,-0.351 c 0.009,0 0.018,0.003 0.024,0.01 0.007,0.007 0.011,0.015 0.011,0.025 v 0.07 c 0,0.007 0,0.013 -10e-4,0.018 0,0.006 -0.001,0.012 -0.001,0.019 -0.005,0.006 -0.009,0.014 -0.012,0.022 -0.003,0.008 -0.004,0.016 -0.004,0.024 0,0.009 0,0.016 0.002,0.022 C 1.15,-0.104 1.134,-0.07 1.112,-0.04 1.09,-0.01 1.064,0.016 1.034,0.037 1.005,0.059 0.972,0.075 0.937,0.087 0.902,0.099 0.865,0.105 0.827,0.105 H 0.546 C 0.508,0.105 0.471,0.099 0.436,0.087 0.4,0.075 0.368,0.059 0.338,0.037 0.309,0.015 0.283,-0.011 0.261,-0.041 0.24,-0.071 0.223,-0.104 0.211,-0.141 0.214,-0.15 0.215,-0.159 0.215,-0.168 0.215,-0.176 0.214,-0.184 0.21,-0.191 0.207,-0.198 0.203,-0.205 0.197,-0.21 0.196,-0.222 0.195,-0.234 0.195,-0.246 v -0.07 c 0,-0.01 0.004,-0.018 0.011,-0.025 0.006,-0.007 0.015,-0.01 0.024,-0.01 z"
         style="fill:#f03a17;fill-rule:nonzero"
         id="path10522" /><path
         d="M 0.197,-0.21 H 1.176 C 1.174,-0.186 1.169,-0.163 1.162,-0.141 H 0.211 C 0.204,-0.163 0.199,-0.186 0.197,-0.21 Z"
         style="fill:#af0d1a;fill-rule:nonzero"
         id="path10524" /><path
         d="m 0.423,-0.421 c -0.005,0 -0.009,-0.002 -0.012,-0.005 L 0.376,-0.461 C 0.372,-0.465 0.371,-0.469 0.371,-0.474 c 0,-0.005 0.001,-0.009 0.005,-0.012 0.003,-0.004 0.007,-0.005 0.012,-0.005 0.005,0 0.009,0.001 0.012,0.005 l 0.036,0.035 c 0.003,0.003 0.004,0.007 0.004,0.013 0,0.004 -0.001,0.008 -0.005,0.011 -0.003,0.004 -0.007,0.006 -0.012,0.006 z M 0.81,-0.562 c -0.005,0 -0.009,-10e-4 -0.013,-0.005 -0.004,-0.003 -0.005,-0.007 -0.005,-0.012 0,-0.005 0.001,-0.009 0.005,-0.013 l 0.035,-0.034 c 0.003,-0.004 0.007,-0.005 0.012,-0.005 0.005,0 0.009,0.001 0.013,0.005 0.003,0.003 0.005,0.007 0.005,0.012 0,0.005 -0.002,0.009 -0.005,0.012 L 0.822,-0.567 C 0.818,-0.563 0.814,-0.562 0.81,-0.562 Z"
         style="fill:#ffffff;fill-rule:nonzero"
         id="path10526" /><path
         d="m 0.985,-0.421 c -0.005,0 -0.01,-0.002 -0.013,-0.005 L 0.938,-0.461 C 0.934,-0.465 0.932,-0.469 0.932,-0.474 c 0,-0.005 0.002,-0.009 0.005,-0.012 0.004,-0.004 0.008,-0.005 0.013,-0.005 0.005,0 0.009,0.001 0.012,0.005 l 0.035,0.035 C 1,-0.448 1.002,-0.444 1.002,-0.438 1.002,-0.434 1,-0.43 0.997,-0.427 0.993,-0.423 0.989,-0.421 0.985,-0.421 Z M 0.563,-0.562 c -0.004,0 -0.008,-10e-4 -0.012,-0.005 L 0.516,-0.602 C 0.513,-0.606 0.511,-0.61 0.511,-0.614 c 0,-0.005 0.002,-0.009 0.005,-0.012 0.004,-0.004 0.008,-0.005 0.012,-0.005 0.006,0 0.01,0.001 0.013,0.005 l 0.035,0.034 c 0.003,0.003 0.005,0.008 0.005,0.013 0,0.004 -0.002,0.009 -0.005,0.012 -0.004,0.004 -0.008,0.005 -0.013,0.005 z"
         style="fill:#e5e5e5;fill-rule:nonzero"
         id="path10528" /><path
         d="M 0.669,-0.421 C 0.664,-0.421 0.66,-0.423 0.657,-0.427 0.653,-0.43 0.651,-0.434 0.651,-0.438 c 0,-0.005 0.002,-0.01 0.006,-0.013 l 0.034,-0.035 c 0.004,-0.004 0.008,-0.005 0.013,-0.005 0.005,0 0.009,0.002 0.012,0.005 0.003,0.004 0.005,0.008 0.005,0.012 0,0.005 -0.001,0.009 -0.005,0.013 l -0.035,0.035 c -0.003,0.003 -0.007,0.005 -0.012,0.005 z m 0.035,-0.246 c -0.005,0 -0.009,-0.002 -0.013,-0.005 L 0.657,-0.707 C 0.653,-0.711 0.651,-0.715 0.651,-0.719 c 0,-0.005 0.002,-0.009 0.005,-0.013 0.004,-0.003 0.008,-0.005 0.013,-0.005 0.005,0 0.009,0.002 0.012,0.005 l 0.035,0.035 c 0.004,0.003 0.005,0.008 0.005,0.013 0,0.004 -0.002,0.008 -0.005,0.012 -0.003,0.003 -0.007,0.005 -0.012,0.005 z"
         style="fill:#cccccc;fill-rule:nonzero"
         id="path10530" /></g></g></svg>
