<?xml version="1.0" encoding="UTF-8" standalone="no"?>
<svg
   width="14.745"
   height="15.78"
   viewBox="0 0 14.745 15.78"
   version="1.1"
   xml:space="preserve"
   style="clip-rule:evenodd;fill-rule:evenodd;stroke-linejoin:round;stroke-miterlimit:2"
   id="svg20568"
   sodipodi:docname="emojis.svg"
   xmlns:inkscape="http://www.inkscape.org/namespaces/inkscape"
   xmlns:sodipodi="http://sodipodi.sourceforge.net/DTD/sodipodi-0.dtd"
   xmlns="http://www.w3.org/2000/svg"
   xmlns:svg="http://www.w3.org/2000/svg"><defs
     id="defs20572" /><sodipodi:namedview
     id="namedview20570"
     pagecolor="#505050"
     bordercolor="#eeeeee"
     borderopacity="1"
     inkscape:pageshadow="0"
     inkscape:pageopacity="0"
     inkscape:pagecheckerboard="0" /><g
     transform="matrix(0.24,0,0,0.24,-523.455,-512.6754)"
     id="g20566"><g
       transform="matrix(62.5,0,0,62.5,2173.25,2190.96)"
       id="g10516"><path
         d="m 0.636,-0.877 c 0.02,0 0.039,0.002 0.058,0.008 0.019,0.005 0.037,0.013 0.054,0.023 0.016,0.01 0.031,0.022 0.045,0.036 0.014,0.015 0.025,0.031 0.034,0.049 l 0.25,0.485 c 0.02,0.04 0.031,0.083 0.031,0.129 0,0.038 -0.007,0.073 -0.022,0.106 C 1.071,-0.009 1.052,0.02 1.027,0.045 1.002,0.07 0.973,0.091 0.941,0.107 0.908,0.123 0.874,0.133 0.837,0.138 0.827,0.149 0.815,0.159 0.801,0.165 0.787,0.172 0.772,0.175 0.757,0.175 H 0.476 C 0.46,0.175 0.446,0.172 0.432,0.165 0.418,0.159 0.406,0.149 0.396,0.138 0.359,0.133 0.324,0.123 0.292,0.107 0.259,0.091 0.23,0.071 0.206,0.046 0.181,0.021 0.161,-0.008 0.147,-0.041 0.132,-0.074 0.125,-0.109 0.125,-0.147 c 0,-0.046 0.01,-0.089 0.031,-0.129 l 0.25,-0.485 C 0.415,-0.779 0.426,-0.795 0.44,-0.81 0.454,-0.824 0.469,-0.837 0.485,-0.846 0.502,-0.856 0.52,-0.864 0.539,-0.869 0.558,-0.875 0.577,-0.877 0.598,-0.877 Z"
         style="fill-rule:nonzero"
         id="path10504" /><path
         d="m 0.636,-0.807 c 0.013,0 0.027,0.002 0.039,0.005 0.013,0.004 0.025,0.009 0.036,0.016 0.011,0.007 0.022,0.015 0.031,0.025 0.009,0.009 0.016,0.02 0.023,0.032 l 0.249,0.485 c 0.008,0.015 0.013,0.031 0.017,0.047 0.005,0.017 0.007,0.034 0.007,0.051 0,0.031 -0.007,0.061 -0.021,0.087 C 1.003,-0.032 0.985,-0.009 0.963,0.01 0.94,0.029 0.914,0.044 0.885,0.054 0.857,0.065 0.827,0.07 0.797,0.07 H 0.436 C 0.406,0.07 0.376,0.065 0.347,0.054 0.318,0.044 0.292,0.029 0.27,0.01 0.248,-0.009 0.229,-0.032 0.216,-0.059 0.202,-0.085 0.195,-0.115 0.195,-0.147 c 0,-0.017 0.002,-0.033 0.006,-0.05 0.004,-0.016 0.01,-0.032 0.018,-0.047 L 0.468,-0.729 C 0.474,-0.741 0.482,-0.752 0.491,-0.761 0.5,-0.771 0.51,-0.779 0.522,-0.786 0.533,-0.793 0.545,-0.798 0.558,-0.802 0.571,-0.805 0.584,-0.807 0.598,-0.807 Z"
         style="fill:#f2f2f2;fill-rule:nonzero"
         id="path10506" /><path
         d="m 0.845,-0.421 c -0.005,0 -0.01,-0.002 -0.013,-0.005 L 0.797,-0.461 C 0.793,-0.465 0.792,-0.469 0.792,-0.474 c 0,-0.004 0.001,-0.008 0.005,-0.012 0.003,-0.003 0.008,-0.005 0.012,-0.005 0.005,0 0.01,0.001 0.013,0.005 l 0.035,0.035 c 0.003,0.003 0.005,0.007 0.005,0.013 0,0.004 -0.002,0.008 -0.005,0.011 -0.004,0.004 -0.008,0.006 -0.012,0.006 z M 0.494,-0.562 c -0.005,0 -0.009,-10e-4 -0.013,-0.005 L 0.446,-0.602 C 0.443,-0.606 0.441,-0.61 0.441,-0.614 c 0,-0.005 0.002,-0.009 0.005,-0.012 0.004,-0.004 0.008,-0.005 0.012,-0.005 0.006,0 0.01,0.001 0.013,0.005 l 0.035,0.034 c 0.003,0.003 0.005,0.008 0.005,0.013 0,0.004 -0.002,0.009 -0.005,0.012 -0.004,0.004 -0.008,0.005 -0.012,0.005 z m -0.141,0.386 c -0.005,0 -0.009,-0.001 -0.012,-0.005 L 0.306,-0.216 C 0.302,-0.219 0.3,-0.223 0.3,-0.228 c 0,-0.005 0.002,-0.009 0.006,-0.012 0.003,-0.004 0.007,-0.006 0.012,-0.006 0.005,0 0.009,0.002 0.013,0.005 l 0.035,0.035 c 0.003,0.004 0.005,0.008 0.005,0.013 0,0.005 -0.002,0.009 -0.006,0.012 -0.003,0.004 -0.007,0.005 -0.012,0.005 z m 0.141,-0.105 c -0.005,0 -0.009,-0.002 -0.013,-0.005 L 0.446,-0.321 C 0.443,-0.325 0.441,-0.329 0.441,-0.333 c 0,-0.005 0.002,-0.009 0.005,-0.012 0.004,-0.004 0.008,-0.006 0.012,-0.006 0.006,0 0.01,0.002 0.013,0.005 l 0.035,0.035 c 0.003,0.003 0.005,0.007 0.005,0.013 0,0.004 -0.002,0.008 -0.005,0.012 -0.004,0.003 -0.008,0.005 -0.012,0.005 z"
         style="fill:#e5e5e5;fill-rule:nonzero"
         id="path10508" /><path
         d="m 0.423,-0.421 c -0.005,0 -0.009,-0.002 -0.012,-0.005 L 0.376,-0.461 C 0.372,-0.465 0.371,-0.469 0.371,-0.474 c 0,-0.004 0.001,-0.008 0.005,-0.012 0.004,-0.003 0.008,-0.005 0.012,-0.005 0.005,0 0.01,0.001 0.013,0.005 l 0.035,0.035 c 0.003,0.003 0.005,0.007 0.005,0.013 0,0.004 -0.002,0.008 -0.005,0.012 -0.004,0.003 -0.008,0.005 -0.013,0.005 z m 0.316,-0.141 c -0.004,0 -0.008,-10e-4 -0.012,-0.005 -0.004,-0.003 -0.005,-0.008 -0.005,-0.012 0,-0.005 0.001,-0.009 0.005,-0.013 l 0.035,-0.034 c 0.003,-0.004 0.008,-0.005 0.012,-0.005 0.005,0 0.009,0.001 0.012,0.005 0.004,0.003 0.006,0.007 0.006,0.012 0,0.005 -0.002,0.009 -0.005,0.012 l -0.035,0.035 c -0.004,0.004 -0.008,0.005 -0.013,0.005 z m 0.211,0.457 c -0.005,0 -0.009,-0.002 -0.013,-0.006 -0.003,-0.003 -0.005,-0.007 -0.005,-0.012 0,-0.004 0.002,-0.009 0.005,-0.012 L 0.973,-0.17 c 0.003,-0.004 0.007,-0.005 0.012,-0.005 0.005,0 0.009,0.001 0.012,0.005 0.004,0.003 0.005,0.007 0.005,0.012 0,0.005 -0.001,0.009 -0.004,0.012 L 0.962,-0.11 C 0.959,-0.107 0.955,-0.105 0.95,-0.105 Z M 0.318,0 C 0.314,0 0.31,-0.002 0.306,-0.005 0.302,-0.009 0.3,-0.013 0.3,-0.018 0.3,-0.022 0.302,-0.027 0.306,-0.03 l 0.035,-0.035 c 0.003,-0.003 0.007,-0.005 0.012,-0.005 0.005,0 0.009,0.002 0.012,0.005 0.004,0.003 0.006,0.007 0.006,0.012 0,0.005 -0.002,0.009 -0.005,0.012 L 0.331,-0.005 C 0.327,-0.002 0.323,0 0.318,0 Z m 0.421,-0.281 c -0.004,0 -0.008,-0.002 -0.012,-0.005 -0.004,-0.004 -0.005,-0.008 -0.005,-0.012 0,-0.005 0.001,-0.009 0.005,-0.013 l 0.035,-0.035 c 0.003,-0.003 0.008,-0.005 0.012,-0.005 0.005,0 0.009,0.002 0.012,0.006 0.004,0.003 0.006,0.007 0.006,0.012 0,0.004 -0.002,0.008 -0.005,0.012 l -0.035,0.035 c -0.004,0.003 -0.008,0.005 -0.013,0.005 z"
         style="fill:#ffffff;fill-rule:nonzero"
         id="path10510" /><path
         d="M 0.599,-0.421 C 0.594,-0.421 0.59,-0.423 0.586,-0.426 0.583,-0.43 0.581,-0.434 0.581,-0.438 c 0,-0.005 0.002,-0.01 0.005,-0.013 l 0.036,-0.035 c 0.003,-0.004 0.007,-0.005 0.012,-0.005 0.005,0 0.009,0.001 0.012,0.005 0.004,0.003 0.005,0.007 0.005,0.012 0,0.005 -0.001,0.009 -0.005,0.013 l -0.035,0.035 c -0.003,0.003 -0.007,0.005 -0.012,0.005 z m 0.035,-0.246 c -0.005,0 -0.009,-0.002 -0.012,-0.005 L 0.586,-0.707 C 0.583,-0.711 0.581,-0.715 0.581,-0.719 c 0,-0.005 0.002,-0.009 0.005,-0.012 0.004,-0.004 0.008,-0.006 0.013,-0.006 0.005,0 0.009,0.002 0.012,0.005 l 0.035,0.035 c 0.004,0.003 0.005,0.008 0.005,0.013 0,0.005 -0.001,0.009 -0.005,0.012 -0.003,0.003 -0.007,0.005 -0.012,0.005 z M 0.88,0.035 C 0.875,0.035 0.871,0.033 0.867,0.03 0.864,0.027 0.862,0.022 0.862,0.018 0.862,0.013 0.864,0.008 0.867,0.005 L 0.902,-0.03 c 0.004,-0.004 0.008,-0.005 0.013,-0.005 0.004,0 0.009,0.002 0.012,0.005 0.003,0.003 0.005,0.008 0.005,0.012 0,0.005 -0.001,0.009 -0.005,0.013 L 0.892,0.03 C 0.889,0.033 0.884,0.035 0.88,0.035 Z m 0,-0.211 c -0.005,0 -0.01,-0.001 -0.013,-0.005 L 0.832,-0.216 C 0.828,-0.219 0.827,-0.223 0.827,-0.228 c 0,-0.005 0.001,-0.009 0.005,-0.012 0.004,-0.004 0.008,-0.006 0.012,-0.006 0.005,0 0.01,0.002 0.013,0.005 l 0.035,0.035 c 0.003,0.004 0.005,0.008 0.005,0.013 0,0.005 -0.002,0.009 -0.005,0.012 -0.004,0.004 -0.008,0.005 -0.012,0.005 z"
         style="fill:#cccccc;fill-rule:nonzero"
         id="path10512" /><path
         d="M 0.792,-0.281 V 0.07 c 0,0.01 -0.004,0.018 -0.011,0.025 -0.007,0.007 -0.015,0.01 -0.024,0.01 H 0.476 C 0.467,0.105 0.458,0.102 0.452,0.095 0.445,0.088 0.441,0.08 0.441,0.07 v -0.351 z"
         style="fill:#383838;fill-rule:nonzero"
         id="path10514" /></g></g></svg>
