<?xml version="1.0" encoding="UTF-8" standalone="no"?>
<svg
   width="16.844999"
   height="16.844999"
   viewBox="0 0 16.844999 16.844999"
   version="1.1"
   xml:space="preserve"
   style="clip-rule:evenodd;fill-rule:evenodd;stroke-linejoin:round;stroke-miterlimit:2"
   id="svg20568"
   sodipodi:docname="emojis.svg"
   xmlns:inkscape="http://www.inkscape.org/namespaces/inkscape"
   xmlns:sodipodi="http://sodipodi.sourceforge.net/DTD/sodipodi-0.dtd"
   xmlns="http://www.w3.org/2000/svg"
   xmlns:svg="http://www.w3.org/2000/svg"><defs
     id="defs20572" /><sodipodi:namedview
     id="namedview20570"
     pagecolor="#505050"
     bordercolor="#eeeeee"
     borderopacity="1"
     inkscape:pageshadow="0"
     inkscape:pageopacity="0"
     inkscape:pagecheckerboard="0" /><g
     transform="matrix(0.24,0,0,0.24,-342.7446,-110.71908)"
     id="g20566"><g
       transform="matrix(62.5,0,0,62.5,1420.29,518.392)"
       id="g1054"><path
         d="m 1.248,-0.351 c 0,0.052 -0.007,0.102 -0.021,0.151 -0.014,0.049 -0.034,0.096 -0.061,0.14 0.008,0.019 0.012,0.039 0.012,0.06 0,0.015 -0.002,0.03 -0.007,0.044 C 1.167,0.058 1.161,0.072 1.153,0.084 1.145,0.097 1.135,0.108 1.124,0.118 1.113,0.128 1.1,0.136 1.086,0.143 1.066,0.164 1.043,0.181 1.016,0.193 0.99,0.205 0.962,0.21 0.932,0.21 0.9,0.21 0.869,0.203 0.84,0.189 0.789,0.203 0.738,0.21 0.687,0.21 0.635,0.21 0.584,0.203 0.533,0.189 0.504,0.203 0.473,0.21 0.441,0.21 0.411,0.21 0.383,0.205 0.357,0.193 0.33,0.181 0.307,0.164 0.287,0.143 0.273,0.136 0.26,0.128 0.249,0.118 0.238,0.108 0.228,0.097 0.22,0.084 0.212,0.072 0.206,0.058 0.202,0.044 0.198,0.03 0.195,0.015 0.195,0 0.195,-0.01 0.196,-0.021 0.198,-0.031 0.201,-0.04 0.203,-0.05 0.207,-0.06 0.18,-0.104 0.159,-0.15 0.146,-0.199 0.132,-0.248 0.125,-0.299 0.125,-0.351 c 0,-0.052 0.007,-0.102 0.02,-0.149 0.013,-0.048 0.032,-0.093 0.057,-0.135 0.024,-0.041 0.053,-0.079 0.088,-0.113 0.034,-0.034 0.072,-0.064 0.113,-0.088 0.042,-0.024 0.086,-0.043 0.134,-0.057 0.048,-0.013 0.098,-0.02 0.15,-0.02 0.051,0 0.101,0.007 0.149,0.02 0.048,0.014 0.092,0.033 0.134,0.057 0.041,0.024 0.079,0.054 0.113,0.088 0.035,0.034 0.064,0.072 0.088,0.113 0.025,0.042 0.044,0.087 0.057,0.135 0.013,0.047 0.02,0.097 0.02,0.149 z"
         style="fill-rule:nonzero"
         id="path1044" /><path
         d="m 1.178,-0.351 c 0,0.045 -0.006,0.089 -0.018,0.131 -0.012,0.041 -0.028,0.081 -0.049,0.117 -0.022,0.036 -0.047,0.07 -0.077,0.099 C 1.004,0.026 0.971,0.052 0.935,0.073 0.898,0.094 0.859,0.111 0.817,0.123 0.775,0.134 0.732,0.14 0.687,0.14 0.641,0.14 0.598,0.134 0.556,0.123 0.514,0.111 0.475,0.094 0.438,0.073 0.402,0.052 0.369,0.026 0.339,-0.004 0.309,-0.033 0.284,-0.067 0.262,-0.103 0.241,-0.139 0.225,-0.179 0.213,-0.22 0.201,-0.262 0.195,-0.306 0.195,-0.351 c 0,-0.045 0.006,-0.089 0.018,-0.131 0.012,-0.042 0.028,-0.081 0.049,-0.117 0.022,-0.037 0.047,-0.07 0.077,-0.099 0.03,-0.03 0.063,-0.056 0.099,-0.077 0.037,-0.021 0.076,-0.038 0.118,-0.05 0.042,-0.011 0.085,-0.017 0.131,-0.017 0.045,0 0.088,0.006 0.13,0.017 0.042,0.012 0.081,0.029 0.118,0.05 0.036,0.021 0.069,0.047 0.099,0.077 0.03,0.029 0.055,0.062 0.077,0.099 0.021,0.036 0.037,0.075 0.049,0.117 0.012,0.042 0.018,0.086 0.018,0.131 z"
         style="fill:#ffc83d;fill-rule:nonzero"
         id="path1046" /><path
         d="m 0.476,-0.124 c 0,-0.006 0.001,-0.011 0.004,-0.016 0.003,-0.004 0.007,-0.008 0.012,-0.012 0.012,-0.01 0.026,-0.019 0.042,-0.026 0.016,-0.007 0.033,-0.013 0.05,-0.018 0.018,-0.005 0.036,-0.008 0.053,-0.011 0.018,-0.002 0.034,-0.003 0.05,-0.003 0.014,0 0.031,0.001 0.049,0.003 0.017,0.003 0.035,0.006 0.053,0.011 0.017,0.005 0.034,0.011 0.05,0.018 0.016,0.007 0.03,0.016 0.042,0.026 0.005,0.004 0.009,0.008 0.012,0.012 0.003,0.005 0.004,0.01 0.004,0.016 0,0.01 -0.004,0.018 -0.011,0.025 -0.007,0.007 -0.015,0.011 -0.024,0.011 -0.004,0 -0.007,-0.001 -0.01,-0.002 C 0.849,-0.091 0.846,-0.093 0.842,-0.094 0.829,-0.101 0.816,-0.108 0.804,-0.114 0.792,-0.119 0.78,-0.124 0.768,-0.128 0.756,-0.132 0.743,-0.135 0.73,-0.137 0.717,-0.14 0.702,-0.141 0.687,-0.141 c -0.016,0 -0.031,10e-4 -0.044,0.004 -0.013,0.002 -0.025,0.005 -0.038,0.009 -0.012,0.003 -0.024,0.008 -0.036,0.014 -0.012,0.006 -0.025,0.013 -0.038,0.02 -0.004,0.001 -0.007,0.003 -0.01,0.004 -0.003,0.001 -0.006,0.002 -0.01,0.002 -0.009,0 -0.017,-0.004 -0.024,-0.011 C 0.48,-0.106 0.476,-0.114 0.476,-0.124 Z m 0.491,-0.333 h 0.035 v 0.018 c 0,0.017 -0.003,0.033 -0.009,0.048 -0.007,0.015 -0.016,0.028 -0.027,0.039 -0.011,0.011 -0.024,0.02 -0.039,0.026 -0.015,0.007 -0.031,0.01 -0.048,0.01 -0.017,0 -0.032,-0.003 -0.047,-0.01 C 0.817,-0.332 0.804,-0.341 0.792,-0.352 0.781,-0.363 0.773,-0.376 0.766,-0.391 0.76,-0.406 0.757,-0.422 0.757,-0.439 v -0.018 h 0.035 c 0,0.013 0.002,0.024 0.007,0.035 0.004,0.01 0.011,0.02 0.018,0.028 0.008,0.008 0.017,0.014 0.028,0.019 0.011,0.004 0.022,0.006 0.034,0.006 0.012,0 0.024,-0.002 0.035,-0.006 0.01,-0.005 0.02,-0.011 0.028,-0.019 0.008,-0.008 0.014,-0.018 0.018,-0.028 0.005,-0.011 0.007,-0.022 0.007,-0.035 z m -0.351,0.018 c 0,0.017 -0.003,0.033 -0.009,0.048 -0.007,0.015 -0.015,0.028 -0.026,0.039 -0.012,0.011 -0.025,0.02 -0.039,0.026 -0.015,0.007 -0.031,0.01 -0.048,0.01 -0.017,0 -0.033,-0.003 -0.048,-0.01 C 0.431,-0.332 0.418,-0.341 0.407,-0.352 0.396,-0.363 0.387,-0.376 0.38,-0.391 0.374,-0.406 0.371,-0.422 0.371,-0.439 v -0.018 h 0.035 c 0,0.013 0.002,0.024 0.007,0.035 0.004,0.01 0.01,0.02 0.018,0.028 0.008,0.008 0.018,0.014 0.028,0.019 0.011,0.004 0.022,0.006 0.035,0.006 0.012,0 0.023,-0.002 0.034,-0.006 0.011,-0.005 0.02,-0.011 0.028,-0.019 0.007,-0.008 0.014,-0.018 0.018,-0.028 0.005,-0.011 0.007,-0.022 0.007,-0.035 h 0.035 z"
         style="fill-rule:nonzero"
         id="path1048" /><path
         d="m 1.02,-0.088 c 0.012,0 0.023,0.002 0.034,0.007 0.011,0.005 0.02,0.011 0.028,0.019 0.008,0.008 0.014,0.017 0.019,0.028 C 1.105,-0.023 1.107,-0.012 1.107,0 1.107,0.01 1.106,0.019 1.103,0.028 1.1,0.037 1.095,0.045 1.09,0.053 1.084,0.06 1.078,0.067 1.07,0.072 1.062,0.077 1.053,0.081 1.044,0.084 1.03,0.102 1.014,0.115 0.995,0.125 0.975,0.135 0.955,0.14 0.932,0.14 0.913,0.14 0.894,0.136 0.877,0.129 0.861,0.122 0.846,0.112 0.833,0.099 0.82,0.086 0.81,0.072 0.803,0.055 0.796,0.038 0.792,0.02 0.792,0 v -0.281 l 0.111,0.112 c 0.005,-0.003 0.01,-0.004 0.014,-0.005 0.005,-0.001 0.01,-0.002 0.015,-0.002 0.01,0 0.019,0.002 0.027,0.006 0.009,0.004 0.016,0.009 0.023,0.015 0.006,0.006 0.011,0.014 0.015,0.022 0.004,0.009 0.005,0.018 0.005,0.028 0,0.003 0,0.007 -0.001,0.01 0,0.003 -10e-4,0.006 -0.002,0.01 0.007,-0.002 0.014,-0.003 0.021,-0.003 z M 0.441,-0.176 c 0.005,0 0.01,0.001 0.015,0.002 0.004,0.001 0.009,0.002 0.014,0.005 L 0.581,-0.281 V 0 C 0.581,0.02 0.577,0.038 0.57,0.055 0.563,0.072 0.553,0.086 0.54,0.099 0.527,0.112 0.513,0.122 0.496,0.129 0.479,0.136 0.46,0.14 0.441,0.14 0.418,0.14 0.398,0.135 0.378,0.125 0.359,0.115 0.343,0.102 0.329,0.084 0.32,0.081 0.311,0.077 0.303,0.072 0.295,0.067 0.289,0.06 0.283,0.053 0.278,0.045 0.273,0.037 0.27,0.028 0.267,0.019 0.265,0.01 0.265,0 c 0,-0.012 0.002,-0.023 0.007,-0.034 0.005,-0.011 0.011,-0.02 0.019,-0.028 0.008,-0.008 0.017,-0.014 0.028,-0.019 0.01,-0.005 0.022,-0.007 0.034,-0.007 0.007,0 0.014,0.001 0.021,0.003 -0.001,-0.004 -0.002,-0.007 -0.002,-0.01 -0.001,-0.003 -0.001,-0.007 -0.001,-0.01 0,-0.01 0.001,-0.019 0.005,-0.028 0.004,-0.008 0.009,-0.016 0.015,-0.022 0.007,-0.006 0.014,-0.011 0.023,-0.015 0.008,-0.004 0.017,-0.006 0.027,-0.006 z"
         style="fill:#ffffff;fill-rule:nonzero"
         id="path1050" /><path
         d="m 0.897,-0.702 c 0.01,0 0.018,0.003 0.025,0.01 0.007,0.007 0.01,0.015 0.01,0.025 0,0.01 -0.003,0.018 -0.01,0.025 l -0.14,0.14 c -0.007,0.007 -0.016,0.011 -0.025,0.011 -0.01,0 -0.018,-0.004 -0.025,-0.011 -0.007,-0.007 -0.01,-0.015 -0.01,-0.024 0,-0.01 0.003,-0.018 0.01,-0.025 l 0.14,-0.141 c 0.007,-0.007 0.015,-0.01 0.025,-0.01 z m -0.421,0 c 0.01,0 0.018,0.003 0.025,0.01 l 0.14,0.141 c 0.007,0.007 0.01,0.015 0.01,0.025 0,0.009 -0.003,0.017 -0.01,0.024 -0.007,0.007 -0.015,0.011 -0.025,0.011 -0.009,0 -0.018,-0.004 -0.025,-0.011 l -0.14,-0.14 c -0.007,-0.007 -0.01,-0.015 -0.01,-0.025 0,-0.01 0.003,-0.018 0.01,-0.025 0.007,-0.007 0.015,-0.01 0.025,-0.01 z"
         style="fill:#d48c00;fill-rule:nonzero"
         id="path1052" /></g></g></svg>
