<?xml version="1.0" encoding="UTF-8" standalone="no"?>
<svg
   width="16.844999"
   height="16.844999"
   viewBox="0 0 16.844999 16.844999"
   version="1.1"
   xml:space="preserve"
   style="clip-rule:evenodd;fill-rule:evenodd;stroke-linejoin:round;stroke-miterlimit:2"
   id="svg20568"
   sodipodi:docname="emojis.svg"
   xmlns:inkscape="http://www.inkscape.org/namespaces/inkscape"
   xmlns:sodipodi="http://sodipodi.sourceforge.net/DTD/sodipodi-0.dtd"
   xmlns="http://www.w3.org/2000/svg"
   xmlns:svg="http://www.w3.org/2000/svg"><defs
     id="defs20572" /><sodipodi:namedview
     id="namedview20570"
     pagecolor="#505050"
     bordercolor="#eeeeee"
     borderopacity="1"
     inkscape:pageshadow="0"
     inkscape:pageopacity="0"
     inkscape:pagecheckerboard="0" /><g
     transform="matrix(0.24,0,0,0.24,-583.1478,-512.1354)"
     id="g20566"><g
       transform="matrix(62.5,0,0,62.5,2421.97,2190.96)"
       id="g10562"><path
         d="M 1.248,-0.632 H 0.687 v 0.246 h 0.456 c 0.014,0 0.028,0.003 0.041,0.008 0.012,0.006 0.023,0.013 0.033,0.023 0.01,0.009 0.017,0.021 0.023,0.033 0.005,0.013 0.008,0.027 0.008,0.041 v 0.105 c 0,0.036 -0.005,0.07 -0.014,0.103 C 1.225,-0.04 1.212,-0.01 1.195,0.019 1.178,0.048 1.158,0.074 1.135,0.097 1.111,0.121 1.085,0.141 1.057,0.157 1.028,0.174 0.997,0.187 0.964,0.197 0.931,0.206 0.897,0.21 0.862,0.21 H 0.511 C 0.476,0.21 0.442,0.206 0.409,0.197 0.376,0.187 0.345,0.174 0.316,0.157 0.288,0.141 0.262,0.121 0.238,0.097 0.215,0.074 0.195,0.048 0.178,0.019 0.161,-0.01 0.148,-0.04 0.139,-0.073 0.13,-0.106 0.125,-0.14 0.125,-0.176 v -0.105 c 0,-0.014 0.003,-0.028 0.008,-0.041 0.006,-0.012 0.013,-0.024 0.023,-0.033 0.01,-0.01 0.021,-0.017 0.033,-0.023 0.013,-0.005 0.027,-0.008 0.041,-0.008 H 0.441 V -0.458 C 0.431,-0.46 0.421,-0.464 0.413,-0.469 0.404,-0.474 0.397,-0.481 0.391,-0.489 0.384,-0.496 0.38,-0.505 0.376,-0.514 0.372,-0.524 0.371,-0.534 0.371,-0.544 V -0.632 H 0.3 v -0.245 h 0.088 c 0.009,-0.012 0.019,-0.02 0.031,-0.026 0.012,-0.007 0.025,-0.01 0.039,-0.01 h 0.141 c 0.014,0 0.027,0.003 0.039,0.01 0.012,0.006 0.022,0.014 0.031,0.026 h 0.579 z"
         style="fill-rule:nonzero"
         id="path10552" /><path
         d="M 1.178,-0.702 H 0.616 c -0.003,0 -0.006,0 -0.009,0.001 C 0.604,-0.701 0.602,-0.7 0.599,-0.7 0.596,-0.7 0.593,-0.701 0.59,-0.701 0.587,-0.702 0.584,-0.702 0.581,-0.702 H 0.546 C 0.54,-0.7 0.534,-0.699 0.528,-0.699 0.523,-0.699 0.517,-0.7 0.511,-0.702 H 0.476 c -0.003,0 -0.006,0 -0.009,0.002 -0.003,0.001 -0.006,0.001 -0.009,0.001 -0.002,0 -0.005,0 -0.008,-0.001 C 0.447,-0.702 0.444,-0.702 0.441,-0.702 h -0.07 v -0.035 h 0.07 c 0.003,0 0.006,-0.001 0.009,-0.002 0.003,-0.001 0.006,-0.002 0.008,-0.002 0.003,0 0.006,0.001 0.009,0.002 0.003,0.001 0.006,0.002 0.009,0.002 h 0.035 c 0.005,-0.003 0.011,-0.004 0.017,-0.004 0.006,0 0.012,0.001 0.018,0.004 h 0.035 c 0.003,0 0.006,-0.001 0.009,-0.002 0.003,-0.001 0.006,-0.002 0.009,-0.002 0.003,0 0.005,0.001 0.008,0.002 0.003,0.001 0.006,0.002 0.009,0.002 h 0.562 z m 0,-0.07 H 0.371 v -0.035 h 0.807 z"
         style="fill:#bb9167;fill-rule:nonzero"
         id="path10554" /><path
         d="m 0.581,-0.281 v -0.421 h 0.035 v 0.421 z m -0.07,0 v -0.421 h 0.035 v 0.421 z m -0.07,-0.263 v -0.158 h 0.035 v 0.158 c 0,0.005 -0.002,0.009 -0.005,0.013 -0.003,0.003 -0.008,0.005 -0.013,0.005 -0.004,0 -0.009,-0.002 -0.012,-0.005 C 0.443,-0.535 0.441,-0.539 0.441,-0.544 Z m 0.017,-0.298 c 0.005,0 0.01,0.001 0.013,0.005 0.003,0.003 0.005,0.007 0.005,0.012 v 0.088 H 0.441 v -0.088 c 0,-0.005 0.002,-0.009 0.005,-0.012 0.003,-0.004 0.008,-0.005 0.012,-0.005 z m 0.141,0 c 0.005,0 0.009,0.001 0.012,0.005 0.004,0.003 0.005,0.007 0.005,0.012 v 0.088 H 0.581 v -0.088 c 0,-0.005 0.002,-0.009 0.005,-0.012 0.004,-0.004 0.008,-0.005 0.013,-0.005 z m -0.07,0 c 0.004,0 0.008,0.002 0.012,0.005 0.003,0.004 0.005,0.008 0.005,0.012 v 0.088 H 0.511 v -0.088 c 0,-0.005 0.002,-0.009 0.005,-0.012 0.004,-0.004 0.008,-0.005 0.013,-0.005 z"
         style="fill:#ffd679;fill-rule:nonzero"
         id="path10556" /><path
         d="m 1.143,-0.316 c 0.007,0 0.014,0.002 0.018,0.004 0.005,0.003 0.009,0.007 0.011,0.012 0.003,0.004 0.004,0.01 0.005,0.016 10e-4,0.006 10e-4,0.012 10e-4,0.018 v 0.02 c -0.003,0.006 -0.004,0.012 -0.004,0.018 0,0.006 0.001,0.012 0.004,0.018 v 0.034 c 0,0.03 -0.004,0.058 -0.011,0.084 C 1.159,-0.065 1.148,-0.04 1.135,-0.016 1.121,0.007 1.105,0.029 1.085,0.048 1.066,0.067 1.045,0.083 1.021,0.097 0.998,0.111 0.973,0.121 0.946,0.129 0.919,0.136 0.891,0.14 0.862,0.14 H 0.511 C 0.482,0.14 0.454,0.136 0.427,0.129 0.4,0.121 0.375,0.111 0.352,0.097 0.328,0.083 0.307,0.067 0.288,0.048 0.268,0.029 0.252,0.007 0.238,-0.016 0.225,-0.04 0.214,-0.065 0.207,-0.092 0.199,-0.119 0.195,-0.147 0.195,-0.176 V -0.21 c 0.003,-0.007 0.004,-0.012 0.004,-0.018 0,-0.003 -0.001,-0.006 -0.002,-0.009 -0.001,-0.003 -0.001,-0.006 -0.002,-0.009 0,-0.003 0,-0.006 0,-0.01 v -0.01 c 0,-0.006 0,-0.012 0.001,-0.018 C 0.197,-0.29 0.198,-0.296 0.201,-0.3 0.203,-0.305 0.207,-0.309 0.212,-0.312 0.216,-0.314 0.223,-0.316 0.23,-0.316 Z"
         style="fill:#ffffff;fill-rule:nonzero"
         id="path10558" /><path
         d="M 0.195,-0.246 H 1.178 V -0.21 H 0.195 Z m 0.492,0.07 c 0.009,0 0.017,0.004 0.024,0.011 0.007,0.007 0.011,0.015 0.011,0.024 0,0.01 -0.004,0.018 -0.011,0.025 -0.006,0.007 -0.015,0.011 -0.024,0.011 -0.01,0 -0.019,-0.004 -0.025,-0.011 -0.007,-0.007 -0.011,-0.015 -0.011,-0.025 0,-0.009 0.004,-0.017 0.011,-0.024 0.007,-0.007 0.015,-0.011 0.025,-0.011 z m -0.281,0 c 0.009,0 0.017,0.004 0.024,0.011 0.007,0.007 0.011,0.015 0.011,0.024 0,0.01 -0.003,0.018 -0.01,0.025 -0.007,0.007 -0.015,0.011 -0.025,0.011 -0.01,0 -0.018,-0.004 -0.025,-0.011 -0.007,-0.007 -0.01,-0.015 -0.01,-0.025 0,-0.009 0.003,-0.017 0.01,-0.024 0.007,-0.007 0.015,-0.011 0.025,-0.011 z m 0.561,0 c 0.01,0 0.018,0.004 0.025,0.011 0.007,0.007 0.01,0.015 0.01,0.024 0,0.01 -0.003,0.018 -0.01,0.025 -0.007,0.007 -0.015,0.011 -0.025,0.011 -0.009,0 -0.018,-0.004 -0.025,-0.011 -0.006,-0.007 -0.01,-0.015 -0.01,-0.025 0,-0.009 0.004,-0.017 0.011,-0.024 0.007,-0.007 0.015,-0.011 0.024,-0.011 z m -0.702,0 c 0.01,0 0.018,0.004 0.025,0.011 0.007,0.007 0.01,0.015 0.01,0.024 0,0.01 -0.003,0.018 -0.01,0.025 -0.007,0.007 -0.015,0.011 -0.025,0.011 -0.009,0 -0.017,-0.004 -0.024,-0.011 C 0.234,-0.123 0.23,-0.131 0.23,-0.141 c 0,-0.009 0.004,-0.017 0.011,-0.024 0.007,-0.007 0.015,-0.011 0.024,-0.011 z m 0.842,0 c 0.01,0 0.018,0.004 0.025,0.011 0.007,0.007 0.011,0.015 0.011,0.024 0,0.01 -0.004,0.018 -0.011,0.025 -0.007,0.007 -0.015,0.011 -0.025,0.011 -0.009,0 -0.017,-0.004 -0.024,-0.011 -0.007,-0.007 -0.01,-0.015 -0.01,-0.025 0,-0.009 0.003,-0.017 0.01,-0.024 0.007,-0.007 0.015,-0.011 0.024,-0.011 z m -0.561,0 c 0.009,0 0.018,0.004 0.025,0.011 0.007,0.007 0.01,0.015 0.01,0.024 0,0.01 -0.003,0.018 -0.01,0.025 -0.007,0.007 -0.015,0.011 -0.025,0.011 -0.01,0 -0.018,-0.004 -0.025,-0.011 -0.006,-0.007 -0.01,-0.015 -0.01,-0.025 0,-0.009 0.004,-0.017 0.01,-0.024 0.007,-0.007 0.015,-0.011 0.025,-0.011 z m 0.281,0 c 0.009,0 0.017,0.004 0.024,0.011 0.007,0.007 0.011,0.015 0.011,0.024 0,0.01 -0.004,0.018 -0.01,0.025 -0.007,0.007 -0.016,0.011 -0.025,0.011 -0.01,0 -0.018,-0.004 -0.025,-0.011 -0.007,-0.007 -0.01,-0.015 -0.01,-0.025 0,-0.009 0.003,-0.017 0.01,-0.024 0.007,-0.007 0.015,-0.011 0.025,-0.011 z"
         style="fill:#e81224;fill-rule:nonzero"
         id="path10560" /></g></g></svg>
