<?xml version="1.0" encoding="UTF-8" standalone="no"?>
<svg
   width="16.844999"
   height="14.73"
   viewBox="0 0 16.844999 14.73"
   version="1.1"
   xml:space="preserve"
   style="clip-rule:evenodd;fill-rule:evenodd;stroke-linejoin:round;stroke-miterlimit:2"
   id="svg20568"
   sodipodi:docname="emojis.svg"
   xmlns:inkscape="http://www.inkscape.org/namespaces/inkscape"
   xmlns:sodipodi="http://sodipodi.sourceforge.net/DTD/sodipodi-0.dtd"
   xmlns="http://www.w3.org/2000/svg"
   xmlns:svg="http://www.w3.org/2000/svg"><defs
     id="defs20572" /><sodipodi:namedview
     id="namedview20570"
     pagecolor="#505050"
     bordercolor="#eeeeee"
     borderopacity="1"
     inkscape:pageshadow="0"
     inkscape:pageopacity="0"
     inkscape:pagecheckerboard="0" /><g
     transform="matrix(0.24,0,0,0.24,-562.551,-514.2504)"
     id="g20566"><g
       transform="matrix(62.5,0,0,62.5,2336.15,2190.96)"
       id="g10550"><path
         d="M 0.616,0.21 C 0.571,0.21 0.527,0.205 0.486,0.193 0.444,0.181 0.405,0.165 0.368,0.143 0.332,0.122 0.299,0.096 0.269,0.066 0.239,0.036 0.213,0.003 0.192,-0.033 0.171,-0.069 0.154,-0.108 0.143,-0.15 0.131,-0.192 0.125,-0.236 0.125,-0.281 c 0,-0.045 0.006,-0.089 0.018,-0.13 0.011,-0.042 0.028,-0.081 0.049,-0.118 0.021,-0.036 0.047,-0.069 0.077,-0.099 0.03,-0.03 0.063,-0.056 0.099,-0.077 0.037,-0.021 0.076,-0.038 0.118,-0.049 0.041,-0.012 0.085,-0.018 0.13,-0.018 h 0.141 c 0.045,0 0.089,0.006 0.13,0.018 0.042,0.011 0.081,0.028 0.118,0.049 0.036,0.021 0.069,0.047 0.099,0.077 0.03,0.03 0.056,0.063 0.077,0.099 0.021,0.037 0.038,0.076 0.049,0.118 0.012,0.041 0.018,0.085 0.018,0.13 0,0.045 -0.006,0.089 -0.018,0.131 C 1.219,-0.108 1.202,-0.069 1.181,-0.033 1.16,0.003 1.134,0.036 1.104,0.066 1.074,0.096 1.041,0.122 1.005,0.143 0.968,0.165 0.929,0.181 0.887,0.193 0.846,0.205 0.802,0.21 0.757,0.21 Z"
         style="fill-rule:nonzero"
         id="path10534" /><path
         d="m 0.757,-0.702 c 0.039,0 0.076,0.005 0.112,0.015 0.035,0.01 0.069,0.024 0.1,0.042 0.031,0.019 0.06,0.041 0.085,0.066 0.026,0.026 0.048,0.055 0.066,0.086 0.018,0.031 0.033,0.065 0.043,0.1 0.01,0.036 0.015,0.074 0.015,0.112 0,0.039 -0.005,0.076 -0.015,0.112 C 1.153,-0.133 1.138,-0.1 1.12,-0.068 1.102,-0.037 1.08,-0.009 1.054,0.017 1.029,0.042 1,0.064 0.969,0.083 0.938,0.101 0.904,0.115 0.869,0.125 0.833,0.135 0.796,0.14 0.757,0.14 H 0.616 C 0.577,0.14 0.54,0.135 0.504,0.125 0.469,0.115 0.435,0.101 0.404,0.083 0.373,0.064 0.344,0.042 0.319,0.017 0.293,-0.009 0.271,-0.037 0.253,-0.068 0.235,-0.1 0.221,-0.133 0.21,-0.169 0.2,-0.205 0.195,-0.242 0.195,-0.281 c 0,-0.038 0.005,-0.076 0.015,-0.112 0.011,-0.035 0.025,-0.069 0.043,-0.1 0.018,-0.031 0.04,-0.06 0.066,-0.086 0.025,-0.025 0.054,-0.047 0.085,-0.066 0.031,-0.018 0.065,-0.032 0.1,-0.042 0.036,-0.01 0.073,-0.015 0.112,-0.015 z"
         style="fill:#cccccc;fill-rule:nonzero"
         id="path10536" /><path
         d="M 0.616,-0.597 H 0.722 V 0.035 H 0.616 C 0.587,0.035 0.559,0.031 0.532,0.024 0.505,0.016 0.48,0.006 0.457,-0.008 0.434,-0.022 0.412,-0.038 0.393,-0.058 0.374,-0.077 0.357,-0.098 0.344,-0.121 0.33,-0.145 0.319,-0.17 0.312,-0.197 0.304,-0.224 0.3,-0.252 0.3,-0.281 0.3,-0.31 0.304,-0.338 0.312,-0.365 0.319,-0.392 0.33,-0.417 0.344,-0.44 0.357,-0.463 0.374,-0.485 0.393,-0.504 0.412,-0.523 0.434,-0.54 0.457,-0.553 0.48,-0.567 0.505,-0.578 0.532,-0.585 0.559,-0.593 0.587,-0.597 0.616,-0.597 Z"
         style="fill:#ffffff;fill-rule:nonzero"
         id="path10538" /><path
         d="m 0.722,-0.632 c 0.032,0 0.063,0.004 0.093,0.013 0.03,0.008 0.058,0.02 0.084,0.035 0.026,0.015 0.05,0.034 0.071,0.055 0.021,0.021 0.04,0.045 0.055,0.071 0.015,0.026 0.027,0.054 0.035,0.084 0.009,0.03 0.013,0.061 0.013,0.093 0,0.032 -0.004,0.064 -0.013,0.093 C 1.052,-0.158 1.04,-0.13 1.025,-0.104 1.01,-0.077 0.991,-0.054 0.97,-0.032 0.949,-0.011 0.925,0.007 0.899,0.022 0.873,0.038 0.845,0.05 0.815,0.058 0.785,0.066 0.754,0.07 0.722,0.07 H 0.687 C 0.677,0.07 0.668,0.068 0.659,0.065 0.651,0.061 0.643,0.056 0.637,0.05 0.631,0.043 0.626,0.036 0.622,0.027 0.618,0.019 0.616,0.01 0.616,0 c 0,-0.011 0.002,-0.02 0.006,-0.028 0.004,-0.008 0.01,-0.016 0.016,-0.023 0.006,-0.007 0.012,-0.013 0.019,-0.019 0.007,-0.006 0.014,-0.013 0.02,-0.02 0.006,-0.007 0.012,-0.014 0.016,-0.022 0.004,-0.008 0.006,-0.018 0.006,-0.029 0,-0.01 -0.002,-0.02 -0.006,-0.028 C 0.689,-0.177 0.683,-0.184 0.677,-0.191 0.671,-0.198 0.664,-0.204 0.657,-0.211 0.65,-0.217 0.644,-0.224 0.638,-0.23 0.632,-0.237 0.626,-0.244 0.622,-0.252 0.618,-0.261 0.616,-0.27 0.616,-0.281 c 0,-0.01 0.002,-0.02 0.006,-0.028 0.004,-0.008 0.01,-0.016 0.016,-0.023 0.006,-0.007 0.012,-0.013 0.019,-0.02 0.007,-0.006 0.014,-0.013 0.02,-0.02 0.006,-0.006 0.012,-0.014 0.016,-0.022 0.004,-0.008 0.006,-0.017 0.006,-0.027 0,-0.011 -0.002,-0.02 -0.006,-0.028 C 0.689,-0.457 0.683,-0.465 0.677,-0.472 0.671,-0.479 0.664,-0.485 0.657,-0.491 0.65,-0.498 0.644,-0.504 0.638,-0.511 0.632,-0.518 0.626,-0.526 0.622,-0.534 0.618,-0.542 0.616,-0.551 0.616,-0.562 0.616,-0.571 0.618,-0.58 0.622,-0.589 0.625,-0.597 0.63,-0.605 0.636,-0.611 0.643,-0.617 0.65,-0.622 0.659,-0.626 0.668,-0.63 0.677,-0.632 0.687,-0.632 Z"
         style="fill:#ca5010;fill-rule:nonzero"
         id="path10540" /><path
         d="M 0.792,-0.457 H 0.757 c -0.01,0 -0.018,-0.003 -0.025,-0.01 -0.007,-0.007 -0.01,-0.015 -0.01,-0.024 v -0.035 c 0,-0.01 0.003,-0.018 0.01,-0.025 0.007,-0.007 0.015,-0.011 0.025,-0.011 h 0.035 c 0.008,0 0.014,0.002 0.019,0.005 0.005,0.003 0.008,0.007 0.01,0.012 0.003,0.005 0.004,0.01 0.005,0.017 0,0.006 0.001,0.012 0.001,0.018 0,0.006 -0.001,0.013 -0.001,0.019 -0.001,0.006 -0.002,0.012 -0.005,0.017 -0.002,0.005 -0.005,0.009 -0.01,0.013 -0.005,0.003 -0.011,0.004 -0.019,0.004 z m 0.21,0.106 v 0.035 c 0,0.01 -0.003,0.018 -0.01,0.025 -0.007,0.007 -0.015,0.01 -0.025,0.01 H 0.932 c -0.01,0 -0.018,-0.003 -0.025,-0.01 C 0.9,-0.298 0.897,-0.306 0.897,-0.316 v -0.035 c 0,-0.01 0.003,-0.018 0.01,-0.025 0.007,-0.007 0.015,-0.01 0.025,-0.01 h 0.035 c 0.01,0 0.018,0.003 0.025,0.01 0.007,0.007 0.01,0.015 0.01,0.025 z m -0.15,0.175 c 0.005,0 0.011,0.002 0.018,0.007 0.007,0.004 0.014,0.009 0.02,0.015 0.006,0.006 0.011,0.012 0.015,0.019 0.005,0.007 0.007,0.014 0.007,0.019 0,0.006 -0.002,0.012 -0.007,0.019 C 0.901,-0.09 0.896,-0.083 0.89,-0.077 0.884,-0.071 0.877,-0.066 0.87,-0.062 0.863,-0.058 0.857,-0.056 0.852,-0.056 0.846,-0.056 0.84,-0.058 0.833,-0.062 0.826,-0.066 0.819,-0.071 0.813,-0.077 0.807,-0.083 0.802,-0.09 0.798,-0.097 0.794,-0.104 0.792,-0.11 0.792,-0.116 c 0,-0.005 0.002,-0.011 0.006,-0.018 0.005,-0.007 0.01,-0.014 0.016,-0.02 C 0.82,-0.16 0.826,-0.165 0.833,-0.169 0.84,-0.174 0.846,-0.176 0.852,-0.176 Z"
         style="fill:#ffc83d;fill-rule:nonzero"
         id="path10542" /><path
         d="m 0.897,-0.526 c 0.01,0 0.018,0.003 0.025,0.01 0.007,0.007 0.01,0.015 0.01,0.025 0,0.009 -0.003,0.017 -0.01,0.024 -0.007,0.007 -0.016,0.01 -0.025,0.01 -0.009,0 -0.018,-0.003 -0.025,-0.01 -0.007,-0.007 -0.01,-0.015 -0.01,-0.024 0,-0.01 0.003,-0.018 0.01,-0.025 0.007,-0.007 0.015,-0.01 0.025,-0.01 z m -0.14,0.14 c 0.009,0 0.017,0.003 0.024,0.01 0.007,0.007 0.011,0.015 0.011,0.025 0,0.009 -0.004,0.018 -0.011,0.025 -0.007,0.007 -0.015,0.01 -0.024,0.01 -0.01,0 -0.018,-0.003 -0.025,-0.01 -0.007,-0.007 -0.01,-0.015 -0.01,-0.025 0,-0.01 0.003,-0.018 0.01,-0.025 0.007,-0.007 0.015,-0.01 0.025,-0.01 z m 0.21,0.176 c 0.01,0 0.018,0.003 0.025,0.01 0.007,0.007 0.01,0.015 0.01,0.024 0,0.01 -0.003,0.018 -0.01,0.025 -0.007,0.007 -0.015,0.01 -0.025,0.01 -0.009,0 -0.018,-0.003 -0.025,-0.01 -0.006,-0.007 -0.01,-0.015 -0.01,-0.025 0,-0.009 0.004,-0.017 0.011,-0.024 0.007,-0.007 0.015,-0.01 0.024,-0.01 z m -0.245,0.175 c 0.009,0 0.018,0.003 0.025,0.01 0.006,0.007 0.01,0.015 0.01,0.025 0,0.009 -0.004,0.018 -0.011,0.025 C 0.739,0.032 0.731,0.035 0.722,0.035 0.712,0.035 0.704,0.032 0.697,0.025 0.69,0.018 0.687,0.009 0.687,0 c 0,-0.01 0.003,-0.018 0.01,-0.025 0.007,-0.007 0.015,-0.01 0.025,-0.01 z"
         style="fill:#f7894a;fill-rule:nonzero"
         id="path10544" /><path
         d="m 0.599,-0.457 c 0.005,0 0.009,0.002 0.012,0.006 0.004,0.003 0.005,0.007 0.005,0.012 v 0.035 c 0,0.005 -0.001,0.009 -0.005,0.013 -0.003,0.003 -0.007,0.005 -0.012,0.005 -0.005,0 -0.009,-0.002 -0.013,-0.005 C 0.583,-0.395 0.581,-0.399 0.581,-0.404 v -0.035 c 0,-0.005 0.002,-0.009 0.005,-0.012 0.004,-0.004 0.008,-0.006 0.013,-0.006 z m -0.211,0.106 c 0.005,0 0.009,0.002 0.013,0.005 0.003,0.003 0.005,0.008 0.005,0.013 v 0.035 c 0,0.005 -0.002,0.009 -0.005,0.012 -0.004,0.004 -0.008,0.005 -0.013,0.005 -0.005,0 -0.009,-10e-4 -0.012,-0.005 C 0.372,-0.289 0.371,-0.293 0.371,-0.298 v -0.035 c 0,-0.005 0.001,-0.01 0.005,-0.013 0.003,-0.003 0.007,-0.005 0.012,-0.005 z m 0.175,-0.175 c 0.005,0 0.01,0.001 0.013,0.005 0.003,0.003 0.005,0.007 0.005,0.012 0,0.005 -0.002,0.009 -0.005,0.012 -0.004,0.004 -0.008,0.006 -0.013,0.006 H 0.529 C 0.524,-0.491 0.52,-0.493 0.517,-0.497 0.513,-0.5 0.511,-0.504 0.511,-0.509 c 0,-0.005 0.002,-0.009 0.005,-0.012 0.004,-0.004 0.008,-0.005 0.013,-0.005 z m -0.034,0.421 c 0.004,0 0.008,0.001 0.012,0.005 0.003,0.003 0.005,0.008 0.005,0.012 v 0.035 c 0,0.005 -0.002,0.009 -0.005,0.012 C 0.537,-0.037 0.533,-0.035 0.529,-0.035 0.524,-0.035 0.52,-0.037 0.516,-0.04 0.513,-0.044 0.511,-0.048 0.511,-0.053 v -0.035 c 0,-0.005 0.002,-0.009 0.005,-0.012 0.004,-0.004 0.008,-0.005 0.013,-0.005 z m 0,-0.105 c 0.004,0 0.008,0.001 0.012,0.005 0.003,0.003 0.005,0.007 0.005,0.012 0,0.004 -0.002,0.008 -0.005,0.012 -0.004,0.003 -0.008,0.005 -0.012,0.005 H 0.494 c -0.005,0 -0.009,-0.001 -0.013,-0.005 -0.003,-0.003 -0.005,-0.007 -0.005,-0.012 0,-0.005 0.002,-0.009 0.005,-0.012 0.004,-0.004 0.008,-0.005 0.013,-0.005 z"
         style="fill:#e5e5e5;fill-rule:nonzero"
         id="path10546" /><path
         d="m 0.458,-0.457 c 0.005,0 0.01,0.002 0.013,0.006 0.003,0.003 0.005,0.007 0.005,0.012 0,0.005 -0.002,0.009 -0.005,0.012 -0.003,0.004 -0.008,0.006 -0.013,0.006 H 0.423 c -0.005,0 -0.009,-0.002 -0.012,-0.006 -0.004,-0.003 -0.005,-0.007 -0.005,-0.012 0,-0.005 10e-4,-0.009 0.005,-0.012 0.003,-0.004 0.007,-0.006 0.012,-0.006 z m 0.141,0.281 c 0.005,0 0.009,0.002 0.012,0.005 0.004,0.004 0.005,0.008 0.005,0.013 v 0.035 c 0,0.005 -0.001,0.009 -0.005,0.012 -0.003,0.004 -0.007,0.006 -0.012,0.006 -0.005,0 -0.009,-0.002 -0.013,-0.006 C 0.583,-0.114 0.581,-0.118 0.581,-0.123 v -0.035 c 0,-0.005 0.002,-0.009 0.005,-0.013 0.004,-0.003 0.008,-0.005 0.013,-0.005 z M 0.423,-0.21 c 0.005,0 0.009,0.001 0.013,0.005 0.003,0.003 0.005,0.007 0.005,0.012 v 0.035 c 0,0.005 -0.002,0.009 -0.005,0.012 -0.004,0.004 -0.008,0.005 -0.013,0.005 -0.005,0 -0.009,-0.001 -0.012,-0.005 C 0.407,-0.149 0.406,-0.153 0.406,-0.158 v -0.035 c 0,-0.005 0.002,-0.009 0.005,-0.012 0.004,-0.004 0.008,-0.005 0.012,-0.005 z m 0.106,-0.141 c 0.004,0 0.008,0.002 0.012,0.005 0.003,0.004 0.005,0.008 0.005,0.013 0,0.004 -0.002,0.008 -0.005,0.012 -0.004,0.003 -0.008,0.005 -0.012,0.005 H 0.494 c -0.005,0 -0.009,-0.002 -0.013,-0.005 -0.003,-0.003 -0.005,-0.008 -0.005,-0.012 0,-0.005 0.002,-0.01 0.005,-0.013 0.004,-0.003 0.008,-0.005 0.013,-0.005 z"
         style="fill:#13a10e;fill-rule:nonzero"
         id="path10548" /></g></g></svg>
