<?xml version="1.0" encoding="UTF-8" standalone="no"?>
<svg
   width="16.844999"
   height="16.844999"
   viewBox="0 0 16.844999 16.844999"
   version="1.1"
   xml:space="preserve"
   style="clip-rule:evenodd;fill-rule:evenodd;stroke-linejoin:round;stroke-miterlimit:2"
   id="svg20568"
   sodipodi:docname="emojis.svg"
   xmlns:inkscape="http://www.inkscape.org/namespaces/inkscape"
   xmlns:sodipodi="http://sodipodi.sourceforge.net/DTD/sodipodi-0.dtd"
   xmlns="http://www.w3.org/2000/svg"
   xmlns:svg="http://www.w3.org/2000/svg"><defs
     id="defs20572" /><sodipodi:namedview
     id="namedview20570"
     pagecolor="#505050"
     bordercolor="#eeeeee"
     borderopacity="1"
     inkscape:pageshadow="0"
     inkscape:pageopacity="0"
     inkscape:pagecheckerboard="0" /><g
     transform="matrix(0.24,0,0,0.24,-624.339,-512.1354)"
     id="g20566"><g
       transform="matrix(62.5,0,0,62.5,2593.6,2190.96)"
       id="g10588"><path
         d="m 1.107,-0.913 c 0.02,0 0.038,0.004 0.055,0.011 0.017,0.008 0.032,0.018 0.045,0.03 0.013,0.013 0.023,0.028 0.03,0.045 0.007,0.017 0.011,0.035 0.011,0.055 0,0.011 -0.002,0.022 -0.005,0.032 C 1.24,-0.729 1.235,-0.72 1.229,-0.711 1.222,-0.703 1.215,-0.695 1.206,-0.688 1.197,-0.682 1.188,-0.676 1.177,-0.673 1.175,-0.608 1.166,-0.546 1.15,-0.488 1.134,-0.43 1.112,-0.374 1.084,-0.321 1.057,-0.268 1.024,-0.218 0.986,-0.17 0.947,-0.123 0.905,-0.078 0.858,-0.035 0.853,-0.03 0.848,-0.026 0.843,-0.021 0.837,-0.017 0.832,-0.013 0.827,-0.008 0.827,0.02 0.821,0.045 0.81,0.066 0.799,0.088 0.784,0.107 0.765,0.123 0.747,0.139 0.725,0.153 0.701,0.164 0.677,0.175 0.652,0.184 0.625,0.191 0.599,0.198 0.573,0.203 0.548,0.206 0.522,0.209 0.498,0.21 0.476,0.21 0.43,0.21 0.386,0.206 0.342,0.196 0.326,0.192 0.31,0.187 0.293,0.182 0.276,0.176 0.26,0.169 0.244,0.16 0.228,0.152 0.212,0.142 0.198,0.132 0.184,0.121 0.171,0.109 0.16,0.095 0.149,0.082 0.141,0.068 0.135,0.052 0.128,0.036 0.125,0.019 0.125,0 v -0.07 c 0,-0.023 0.005,-0.044 0.014,-0.063 0.01,-0.019 0.023,-0.036 0.038,-0.051 C 0.193,-0.199 0.21,-0.212 0.23,-0.223 0.249,-0.234 0.269,-0.243 0.288,-0.25 0.273,-0.294 0.265,-0.34 0.265,-0.386 c 0,-0.034 0.006,-0.065 0.019,-0.093 0.013,-0.028 0.03,-0.054 0.052,-0.08 C 0.383,-0.613 0.434,-0.661 0.49,-0.705 0.545,-0.749 0.604,-0.786 0.666,-0.817 0.729,-0.847 0.794,-0.871 0.862,-0.888 0.93,-0.904 1,-0.913 1.073,-0.913 Z"
         style="fill-rule:nonzero"
         id="path10578" /><path
         d="m 1.107,-0.842 c 0.01,0 0.019,0.002 0.028,0.005 0.008,0.004 0.016,0.009 0.022,0.015 0.006,0.007 0.011,0.014 0.015,0.023 0.004,0.008 0.006,0.017 0.006,0.027 0,0.009 -0.002,0.015 -0.005,0.02 C 1.169,-0.748 1.165,-0.745 1.16,-0.743 1.154,-0.74 1.149,-0.739 1.143,-0.737 1.136,-0.736 1.131,-0.734 1.125,-0.732 1.12,-0.73 1.116,-0.726 1.113,-0.722 1.109,-0.718 1.107,-0.711 1.107,-0.702 1.107,-0.64 1.1,-0.579 1.085,-0.52 1.07,-0.461 1.049,-0.405 1.021,-0.351 0.994,-0.298 0.961,-0.247 0.922,-0.2 0.883,-0.153 0.84,-0.109 0.792,-0.07 L 0.371,-0.491 c 0.044,-0.053 0.092,-0.101 0.144,-0.145 0.053,-0.043 0.108,-0.08 0.168,-0.111 0.059,-0.03 0.121,-0.054 0.187,-0.07 0.065,-0.017 0.133,-0.025 0.203,-0.025 z M 0.195,0 V -0.07 H 0.757 V 0 C 0.757,0.013 0.754,0.024 0.748,0.035 0.743,0.046 0.735,0.056 0.726,0.064 0.717,0.073 0.706,0.081 0.694,0.088 0.682,0.096 0.67,0.102 0.657,0.107 0.645,0.113 0.632,0.117 0.619,0.121 0.607,0.125 0.596,0.127 0.585,0.129 0.55,0.137 0.514,0.14 0.476,0.14 0.439,0.14 0.402,0.137 0.367,0.129 0.357,0.127 0.345,0.125 0.333,0.121 0.32,0.117 0.308,0.113 0.295,0.107 0.282,0.102 0.27,0.096 0.258,0.088 0.246,0.081 0.236,0.073 0.226,0.064 0.217,0.056 0.21,0.046 0.204,0.035 0.198,0.024 0.195,0.013 0.195,0 Z"
         style="fill:#f7630c;fill-rule:nonzero"
         id="path10580" /><path
         d="M 0.687,-0.035 C 0.654,-0.035 0.623,-0.039 0.593,-0.048 0.563,-0.056 0.535,-0.068 0.509,-0.083 0.483,-0.098 0.46,-0.117 0.438,-0.138 0.417,-0.159 0.399,-0.183 0.383,-0.209 0.368,-0.235 0.356,-0.263 0.348,-0.293 0.34,-0.323 0.335,-0.354 0.335,-0.386 c 0,-0.024 0.005,-0.047 0.014,-0.068 0.01,-0.022 0.022,-0.04 0.038,-0.056 0.016,-0.016 0.035,-0.028 0.056,-0.038 0.021,-0.009 0.044,-0.014 0.068,-0.014 0.032,0 0.064,0.005 0.093,0.013 0.03,0.008 0.058,0.02 0.084,0.035 0.026,0.016 0.05,0.034 0.071,0.055 0.021,0.022 0.04,0.045 0.055,0.071 0.015,0.026 0.027,0.054 0.035,0.084 0.009,0.03 0.013,0.061 0.013,0.094 0,0.024 -0.005,0.046 -0.014,0.068 -0.009,0.021 -0.022,0.04 -0.038,0.055 -0.015,0.016 -0.034,0.029 -0.055,0.038 -0.022,0.009 -0.044,0.014 -0.068,0.014 z"
         style="fill:#ffb900;fill-rule:nonzero"
         id="path10582" /><path
         d="m 0.634,-0.667 c 0.014,0 0.028,0.002 0.043,0.005 0.015,0.004 0.029,0.009 0.043,0.016 0.013,0.006 0.026,0.014 0.038,0.024 0.012,0.009 0.021,0.02 0.03,0.032 0.001,0.001 0.002,0.003 0.003,0.005 0.001,0.002 0.001,0.004 0.001,0.006 0,0.005 -0.002,0.009 -0.005,0.012 -0.004,0.004 -0.008,0.005 -0.013,0.005 -0.004,0 -0.01,-0.003 -0.018,-0.011 C 0.749,-0.58 0.74,-0.588 0.729,-0.597 0.718,-0.605 0.705,-0.614 0.69,-0.621 0.674,-0.628 0.656,-0.632 0.634,-0.632 0.629,-0.632 0.625,-0.634 0.621,-0.637 0.618,-0.64 0.616,-0.645 0.616,-0.649 c 0,-0.005 0.002,-0.009 0.005,-0.013 0.004,-0.003 0.008,-0.005 0.013,-0.005 z m 0.351,0.07 c 0.004,0 0.008,0.002 0.011,0.004 0.006,0.005 0.012,0.01 0.017,0.017 0.005,0.006 0.009,0.013 0.013,0.02 0.004,0.008 0.007,0.016 0.009,0.024 0.002,0.008 0.003,0.016 0.003,0.023 0,0.005 -0.002,0.009 -0.006,0.012 -0.003,0.004 -0.007,0.006 -0.012,0.006 -0.005,0 -0.009,-0.002 -0.012,-0.006 C 1.004,-0.5 1.002,-0.504 1.002,-0.509 1.002,-0.519 1.001,-0.527 0.997,-0.534 0.993,-0.541 0.989,-0.548 0.985,-0.553 0.98,-0.558 0.976,-0.563 0.973,-0.567 0.969,-0.572 0.967,-0.576 0.967,-0.579 c 0,-0.005 0.002,-0.01 0.006,-0.013 0.003,-0.003 0.007,-0.005 0.012,-0.005 z"
         style="fill:#ca5010;fill-rule:nonzero"
         id="path10584" /><path
         d="m 0.476,-0.21 c 0.02,0 0.039,0.001 0.058,0.002 0.02,0.002 0.039,0.006 0.058,0.01 0.015,0.003 0.032,0.008 0.051,0.015 0.019,0.007 0.037,0.015 0.054,0.026 0.017,0.011 0.031,0.023 0.043,0.038 0.011,0.014 0.017,0.03 0.017,0.049 0,0.019 -0.006,0.035 -0.018,0.05 C 0.727,-0.005 0.712,0.007 0.694,0.018 0.677,0.029 0.658,0.038 0.638,0.044 0.618,0.051 0.601,0.056 0.585,0.059 0.549,0.067 0.512,0.07 0.476,0.07 0.44,0.07 0.403,0.067 0.367,0.059 0.351,0.056 0.334,0.051 0.314,0.044 0.294,0.038 0.275,0.029 0.258,0.018 0.24,0.007 0.225,-0.005 0.213,-0.02 0.201,-0.035 0.195,-0.051 0.195,-0.07 0.195,-0.082 0.198,-0.094 0.203,-0.104 0.209,-0.115 0.216,-0.125 0.225,-0.133 0.234,-0.142 0.244,-0.15 0.255,-0.157 0.267,-0.164 0.279,-0.17 0.291,-0.176 0.303,-0.181 0.315,-0.185 0.327,-0.189 0.339,-0.193 0.35,-0.196 0.36,-0.198 0.379,-0.202 0.398,-0.206 0.418,-0.208 0.437,-0.209 0.457,-0.21 0.476,-0.21 Z"
         style="fill:#ffd679;fill-rule:nonzero"
         id="path10586" /></g></g></svg>
