<?xml version="1.0" encoding="UTF-8" standalone="no"?>
<svg
   width="16.844999"
   height="16.844999"
   viewBox="0 0 16.844999 16.844999"
   version="1.1"
   xml:space="preserve"
   style="clip-rule:evenodd;fill-rule:evenodd;stroke-linejoin:round;stroke-miterlimit:2"
   id="svg20568"
   sodipodi:docname="emojis.svg"
   xmlns:inkscape="http://www.inkscape.org/namespaces/inkscape"
   xmlns:sodipodi="http://sodipodi.sourceforge.net/DTD/sodipodi-0.dtd"
   xmlns="http://www.w3.org/2000/svg"
   xmlns:svg="http://www.w3.org/2000/svg"><defs
     id="defs20572" /><sodipodi:namedview
     id="namedview20570"
     pagecolor="#505050"
     bordercolor="#eeeeee"
     borderopacity="1"
     inkscape:pageshadow="0"
     inkscape:pageopacity="0"
     inkscape:pagecheckerboard="0" /><g
     transform="matrix(0.24,0,0,0.24,-725.2158,-512.1354)"
     id="g20566"><g
       transform="matrix(62.5,0,0,62.5,3013.92,2190.96)"
       id="g10662"><path
         d="M 0.584,0.177 C 0.568,0.182 0.55,0.185 0.532,0.185 0.519,0.185 0.505,0.184 0.492,0.18 0.478,0.177 0.466,0.173 0.454,0.167 0.442,0.16 0.43,0.153 0.42,0.144 0.41,0.135 0.401,0.125 0.394,0.113 0.376,0.113 0.359,0.109 0.343,0.103 0.326,0.097 0.311,0.089 0.297,0.079 0.284,0.068 0.273,0.056 0.263,0.041 0.254,0.026 0.248,0.01 0.245,-0.008 0.231,-0.014 0.219,-0.022 0.208,-0.031 0.197,-0.039 0.188,-0.05 0.18,-0.061 0.172,-0.073 0.166,-0.085 0.162,-0.099 0.158,-0.112 0.156,-0.126 0.156,-0.141 V -0.179 C 0.146,-0.19 0.138,-0.204 0.133,-0.218 0.128,-0.233 0.125,-0.248 0.125,-0.263 v -0.176 c 0,-0.016 0.003,-0.031 0.008,-0.045 0.005,-0.015 0.013,-0.028 0.023,-0.04 v -0.049 c 0,-0.013 0.002,-0.026 0.007,-0.039 0.005,-0.012 0.012,-0.024 0.02,-0.034 0.008,-0.011 0.018,-0.02 0.028,-0.029 0.011,-0.008 0.022,-0.014 0.034,-0.019 0.003,-0.018 0.009,-0.035 0.018,-0.049 0.01,-0.015 0.021,-0.027 0.035,-0.038 0.013,-0.01 0.028,-0.018 0.045,-0.024 0.016,-0.006 0.033,-0.01 0.051,-0.01 0.007,-0.012 0.016,-0.022 0.026,-0.031 0.01,-0.009 0.022,-0.017 0.034,-0.023 0.012,-0.006 0.024,-0.011 0.038,-0.014 0.013,-0.003 0.027,-0.005 0.04,-0.005 0.017,0 0.035,0.003 0.052,0.009 0.015,-0.011 0.031,-0.02 0.049,-0.025 0.017,-0.006 0.035,-0.009 0.054,-0.009 0.018,0 0.036,0.003 0.053,0.009 0.018,0.005 0.034,0.014 0.049,0.025 0.008,-0.003 0.017,-0.005 0.025,-0.006 0.009,-0.002 0.018,-0.002 0.026,-0.002 0.014,0 0.028,0.001 0.041,0.004 0.013,0.004 0.026,0.008 0.038,0.014 0.012,0.006 0.023,0.014 0.033,0.023 0.011,0.009 0.02,0.019 0.027,0.031 0.018,0.001 0.035,0.004 0.051,0.01 0.017,0.006 0.032,0.014 0.045,0.024 0.014,0.011 0.025,0.024 0.035,0.038 0.009,0.015 0.015,0.031 0.018,0.049 0.012,0.005 0.023,0.012 0.034,0.02 0.01,0.008 0.02,0.018 0.028,0.028 0.008,0.011 0.015,0.022 0.019,0.035 0.005,0.012 0.008,0.025 0.008,0.038 v 0.049 c 0.01,0.012 0.018,0.025 0.023,0.04 0.005,0.014 0.008,0.029 0.008,0.045 v 0.176 c 0,0.015 -0.003,0.03 -0.008,0.045 -0.005,0.014 -0.013,0.027 -0.023,0.039 v 0.038 c 0,0.015 -0.002,0.029 -0.006,0.043 C 1.206,-0.085 1.2,-0.072 1.192,-0.061 1.185,-0.05 1.175,-0.039 1.164,-0.03 1.153,-0.021 1.141,-0.014 1.128,-0.008 1.125,0.01 1.119,0.026 1.11,0.041 1.1,0.056 1.089,0.068 1.075,0.079 1.062,0.089 1.047,0.097 1.03,0.103 1.014,0.109 0.997,0.113 0.979,0.113 0.972,0.125 0.963,0.135 0.953,0.144 0.943,0.153 0.931,0.161 0.919,0.167 0.907,0.173 0.895,0.177 0.881,0.181 0.868,0.184 0.854,0.186 0.841,0.186 0.823,0.186 0.806,0.183 0.789,0.177 0.774,0.188 0.758,0.197 0.74,0.202 0.723,0.208 0.705,0.21 0.687,0.21 0.668,0.21 0.65,0.208 0.633,0.202 0.615,0.197 0.599,0.188 0.584,0.177 Z"
         style="fill-rule:nonzero"
         id="path10654" /><path
         d="m 1.147,-0.439 h 0.031 v 0.176 c 0,0.011 -0.003,0.022 -0.009,0.031 -0.006,0.01 -0.013,0.017 -0.022,0.024 v 0.067 0.006 c 0,0.011 -0.002,0.021 -0.008,0.03 C 1.134,-0.097 1.127,-0.089 1.118,-0.083 1.11,-0.077 1.1,-0.073 1.09,-0.069 1.079,-0.066 1.069,-0.064 1.06,-0.064 H 1.054 c -0.002,0 -0.004,-0.001 -0.006,-0.001 0.008,0.011 0.012,0.023 0.012,0.036 0,0.012 -0.003,0.022 -0.008,0.031 C 1.046,0.011 1.039,0.018 1.031,0.024 1.023,0.031 1.013,0.035 1.003,0.038 0.992,0.041 0.982,0.043 0.972,0.043 0.956,0.043 0.941,0.04 0.928,0.034 c 0,0.001 0,0.003 0,0.005 0.001,0.002 0.001,0.003 0.001,0.005 0,0.011 -0.003,0.021 -0.008,0.03 C 0.915,0.083 0.908,0.09 0.9,0.096 0.891,0.102 0.882,0.107 0.872,0.11 0.861,0.114 0.851,0.115 0.841,0.115 0.828,0.115 0.815,0.113 0.803,0.108 0.791,0.103 0.78,0.096 0.771,0.086 0.769,0.095 0.764,0.103 0.758,0.11 0.752,0.116 0.746,0.122 0.738,0.126 0.73,0.131 0.722,0.134 0.713,0.137 0.704,0.139 0.695,0.14 0.687,0.14 0.678,0.14 0.669,0.139 0.66,0.137 0.651,0.134 0.643,0.131 0.635,0.126 0.627,0.122 0.621,0.116 0.615,0.11 0.609,0.103 0.604,0.095 0.602,0.086 0.593,0.096 0.582,0.103 0.57,0.108 0.558,0.113 0.545,0.115 0.532,0.115 0.522,0.115 0.512,0.114 0.501,0.11 0.491,0.107 0.482,0.102 0.473,0.096 0.465,0.09 0.458,0.082 0.452,0.073 0.447,0.064 0.444,0.054 0.444,0.042 V 0.038 c 0,-0.001 0,-0.003 0.001,-0.004 C 0.431,0.04 0.417,0.043 0.401,0.043 0.391,0.043 0.381,0.041 0.37,0.038 0.36,0.035 0.35,0.03 0.342,0.024 0.334,0.018 0.327,0.011 0.322,0.002 0.316,-0.007 0.313,-0.017 0.313,-0.028 c 0,-0.013 0.004,-0.026 0.012,-0.037 -0.001,0 -0.003,0.001 -0.005,0.001 H 0.314 c -0.01,0 -0.02,-0.002 -0.031,-0.005 C 0.273,-0.072 0.263,-0.077 0.255,-0.083 0.246,-0.088 0.24,-0.096 0.234,-0.104 0.229,-0.113 0.226,-0.123 0.226,-0.135 L 0.227,-0.141 V -0.208 C 0.217,-0.215 0.21,-0.222 0.204,-0.232 0.198,-0.241 0.195,-0.252 0.195,-0.263 V -0.439 H 0.226 V -0.57 h 0.088 v -0.097 h 0.745 v 0.097 h 0.088 z"
         style="fill:#8e562e;fill-rule:nonzero"
         id="path10656" /><path
         d="m 1.112,-0.369 c 0.01,0.006 0.019,0.014 0.025,0.024 0.007,0.01 0.01,0.021 0.01,0.033 0,0.012 -0.003,0.022 -0.008,0.031 C 1.134,-0.272 1.127,-0.265 1.118,-0.259 1.109,-0.253 1.1,-0.248 1.089,-0.245 1.079,-0.241 1.068,-0.24 1.058,-0.24 H 1.053 c -0.002,0 -0.004,0 -0.005,0 0.003,0.005 0.006,0.011 0.008,0.017 0.003,0.006 0.004,0.012 0.004,0.018 0,0.012 -0.003,0.022 -0.008,0.031 -0.006,0.009 -0.013,0.016 -0.021,0.023 -0.008,0.006 -0.018,0.011 -0.028,0.014 -0.011,0.003 -0.021,0.005 -0.031,0.005 -0.016,0 -0.03,-0.004 -0.044,-0.01 0,0.002 0,0.003 0,0.005 0.001,0.001 0.001,0.003 0.001,0.005 0,0.011 -0.003,0.021 -0.008,0.03 -0.006,0.009 -0.013,0.017 -0.021,0.023 -0.008,0.006 -0.018,0.01 -0.028,0.014 -0.01,0.003 -0.021,0.004 -0.031,0.004 -0.013,0 -0.025,-0.002 -0.038,-0.007 C 0.791,-0.072 0.78,-0.079 0.771,-0.089 0.769,-0.08 0.764,-0.072 0.758,-0.066 0.752,-0.059 0.746,-0.053 0.738,-0.049 0.73,-0.044 0.722,-0.041 0.713,-0.039 0.704,-0.036 0.695,-0.035 0.687,-0.035 0.678,-0.035 0.669,-0.036 0.66,-0.039 0.651,-0.041 0.643,-0.044 0.635,-0.049 0.627,-0.053 0.621,-0.059 0.615,-0.066 0.609,-0.072 0.604,-0.08 0.602,-0.089 0.593,-0.079 0.582,-0.072 0.57,-0.068 0.557,-0.063 0.544,-0.061 0.532,-0.061 0.521,-0.061 0.511,-0.062 0.5,-0.065 0.49,-0.069 0.481,-0.073 0.472,-0.08 0.464,-0.086 0.457,-0.093 0.452,-0.102 0.446,-0.111 0.444,-0.121 0.444,-0.132 c 0,-0.001 0,-0.003 0,-0.005 0,-0.002 0,-0.003 0.001,-0.005 -0.014,0.006 -0.029,0.01 -0.044,0.01 C 0.39,-0.132 0.38,-0.134 0.37,-0.137 0.359,-0.14 0.35,-0.145 0.342,-0.151 0.333,-0.158 0.326,-0.165 0.321,-0.174 0.316,-0.183 0.313,-0.193 0.313,-0.205 c 0,-0.006 0.001,-0.012 0.003,-0.018 0.002,-0.006 0.005,-0.012 0.009,-0.017 -0.002,0 -0.004,0 -0.006,0 H 0.314 C 0.304,-0.24 0.293,-0.241 0.283,-0.245 0.272,-0.248 0.263,-0.253 0.254,-0.259 0.246,-0.265 0.239,-0.272 0.234,-0.281 0.228,-0.29 0.226,-0.3 0.226,-0.312 0.226,-0.324 0.229,-0.335 0.235,-0.344 0.242,-0.354 0.25,-0.363 0.26,-0.369 0.252,-0.371 0.244,-0.374 0.236,-0.378 0.228,-0.382 0.221,-0.387 0.215,-0.393 0.209,-0.399 0.204,-0.406 0.201,-0.414 0.197,-0.421 0.195,-0.43 0.195,-0.439 0.195,-0.448 0.197,-0.456 0.201,-0.464 0.204,-0.472 0.209,-0.479 0.215,-0.485 0.222,-0.491 0.228,-0.496 0.236,-0.5 0.244,-0.504 0.252,-0.507 0.26,-0.509 0.25,-0.515 0.242,-0.523 0.235,-0.533 0.229,-0.543 0.226,-0.554 0.226,-0.566 c 0,-0.011 0.002,-0.021 0.008,-0.03 0.005,-0.009 0.012,-0.017 0.02,-0.023 0.009,-0.006 0.018,-0.011 0.029,-0.014 0.011,-0.003 0.021,-0.005 0.031,-0.005 H 0.32 c 0.001,0 0.003,0 0.005,0.001 -0.008,-0.012 -0.012,-0.024 -0.012,-0.036 0,-0.012 0.003,-0.022 0.008,-0.031 0.005,-0.009 0.012,-0.016 0.021,-0.022 0.008,-0.006 0.017,-0.011 0.028,-0.014 0.01,-0.003 0.02,-0.005 0.031,-0.005 0.016,0 0.03,0.003 0.044,0.009 C 0.444,-0.737 0.444,-0.739 0.444,-0.74 v -0.005 c 0,-0.011 0.003,-0.021 0.008,-0.03 0.006,-0.009 0.013,-0.017 0.021,-0.023 0.008,-0.006 0.018,-0.011 0.028,-0.014 0.01,-0.004 0.021,-0.005 0.031,-0.005 0.013,0 0.025,0.002 0.038,0.007 0.012,0.005 0.023,0.012 0.032,0.021 0.002,-0.008 0.007,-0.016 0.013,-0.023 0.006,-0.007 0.012,-0.012 0.02,-0.017 0.008,-0.004 0.016,-0.008 0.025,-0.01 0.009,-0.002 0.018,-0.003 0.027,-0.003 0.008,0 0.017,0.001 0.026,0.003 0.009,0.002 0.017,0.006 0.025,0.01 0.008,0.005 0.014,0.011 0.02,0.017 0.006,0.007 0.011,0.015 0.013,0.023 0.009,-0.009 0.02,-0.016 0.032,-0.021 0.013,-0.005 0.025,-0.007 0.038,-0.007 0.01,0 0.02,0.001 0.031,0.005 0.01,0.003 0.019,0.008 0.028,0.014 0.008,0.006 0.015,0.014 0.021,0.023 0.005,0.008 0.008,0.018 0.008,0.029 0,0.002 0,0.003 -0.001,0.005 0,0.002 0,0.004 0,0.005 0.013,-0.006 0.028,-0.009 0.044,-0.009 0.01,0 0.02,0.002 0.031,0.005 0.01,0.003 0.02,0.008 0.028,0.014 0.008,0.006 0.015,0.013 0.021,0.022 0.005,0.009 0.008,0.019 0.008,0.031 0,0.012 -0.004,0.024 -0.012,0.036 0.002,-0.001 0.004,-0.001 0.006,-0.001 H 1.06 c 0.01,0 0.02,0.002 0.03,0.005 0.011,0.003 0.02,0.008 0.029,0.014 0.008,0.007 0.015,0.014 0.02,0.023 0.005,0.009 0.008,0.019 0.008,0.031 0,0.012 -0.003,0.023 -0.01,0.032 -0.006,0.01 -0.015,0.018 -0.025,0.024 0.008,0.002 0.016,0.005 0.024,0.009 0.008,0.004 0.015,0.009 0.021,0.015 0.006,0.006 0.011,0.013 0.015,0.021 0.004,0.008 0.006,0.016 0.006,0.025 0,0.009 -0.002,0.018 -0.006,0.025 -0.003,0.008 -0.008,0.015 -0.014,0.021 -0.006,0.006 -0.013,0.011 -0.021,0.015 -0.008,0.004 -0.016,0.007 -0.025,0.009 z"
         style="fill:#d48c00;fill-rule:nonzero"
         id="path10658" /><path
         d="m 0.931,-0.457 c 0,0.003 0.001,0.006 0.001,0.009 0,0.003 0,0.006 0,0.009 0,0.003 0,0.006 0,0.009 0,0.003 -0.001,0.006 -0.001,0.009 H 1.073 L 1.07,-0.401 C 1.066,-0.37 1.058,-0.341 1.046,-0.314 1.034,-0.288 1.019,-0.264 1,-0.242 0.981,-0.22 0.96,-0.201 0.936,-0.184 0.912,-0.167 0.887,-0.152 0.86,-0.141 c -0.028,0.012 -0.056,0.02 -0.085,0.026 -0.029,0.007 -0.059,0.01 -0.088,0.01 -0.03,0 -0.06,-0.003 -0.089,-0.01 C 0.569,-0.121 0.541,-0.129 0.514,-0.141 0.487,-0.152 0.461,-0.167 0.437,-0.184 0.414,-0.201 0.393,-0.22 0.374,-0.242 0.355,-0.264 0.34,-0.288 0.328,-0.315 0.315,-0.342 0.307,-0.37 0.303,-0.401 L 0.3,-0.421 H 0.442 C 0.441,-0.424 0.441,-0.427 0.441,-0.43 v -0.008 c 0,-0.003 0,-0.006 0,-0.01 0,-0.003 0.001,-0.006 0.001,-0.009 H 0.3 l 0.003,-0.019 c 0.004,-0.031 0.012,-0.06 0.025,-0.087 0.012,-0.027 0.027,-0.051 0.046,-0.073 0.019,-0.022 0.04,-0.041 0.063,-0.058 0.024,-0.017 0.05,-0.031 0.077,-0.043 0.027,-0.011 0.055,-0.02 0.084,-0.026 0.029,-0.006 0.059,-0.009 0.089,-0.009 0.029,0 0.059,0.003 0.088,0.009 0.029,0.006 0.057,0.015 0.084,0.026 0.027,0.012 0.053,0.026 0.077,0.043 0.023,0.017 0.044,0.036 0.063,0.058 0.019,0.022 0.034,0.046 0.046,0.073 0.013,0.027 0.021,0.056 0.025,0.087 l 0.003,0.019 z m -0.244,-0.28 c -0.038,0 -0.076,0.005 -0.114,0.016 -0.038,0.011 -0.072,0.027 -0.104,0.048 -0.032,0.02 -0.059,0.046 -0.082,0.077 -0.023,0.03 -0.038,0.065 -0.046,0.105 H 0.616 V -0.659 C 0.584,-0.653 0.553,-0.641 0.524,-0.625 0.495,-0.609 0.471,-0.588 0.45,-0.562 h 0.096 v -0.009 c 0,-0.003 0,-0.006 0,-0.009 0.001,-0.003 0.001,-0.006 0.003,-0.009 0.001,-0.002 0.003,-0.004 0.005,-0.005 0.002,-0.002 0.006,-0.003 0.009,-0.003 0.005,0 0.01,0.002 0.013,0.005 0.003,0.004 0.005,0.008 0.005,0.013 v 0.053 H 0.387 L 0.402,-0.553 C 0.416,-0.576 0.431,-0.596 0.449,-0.613 0.467,-0.63 0.487,-0.645 0.508,-0.656 0.53,-0.668 0.553,-0.677 0.577,-0.685 0.601,-0.692 0.626,-0.697 0.651,-0.701 v 0.071 c 0.006,-0.001 0.012,-0.001 0.018,-0.001 0.006,-0.001 0.012,-0.001 0.018,-0.001 0.005,0 0.011,0 0.017,0.001 0.006,0 0.012,0 0.018,0.001 v -0.071 c 0.025,0.004 0.05,0.009 0.074,0.016 0.024,0.008 0.047,0.017 0.069,0.029 0.021,0.011 0.04,0.026 0.058,0.043 0.018,0.017 0.034,0.037 0.048,0.06 l 0.015,0.027 H 0.792 v -0.053 c 0,-0.005 0.001,-0.009 0.005,-0.012 0.003,-0.004 0.008,-0.006 0.012,-0.006 0.004,0 0.007,0.001 0.01,0.003 0.002,0.001 0.004,0.003 0.005,0.005 0.001,0.003 0.002,0.006 0.002,0.009 0,0.003 0.001,0.006 0.001,0.009 v 0.009 H 0.922 C 0.902,-0.588 0.877,-0.609 0.848,-0.625 0.82,-0.641 0.789,-0.653 0.757,-0.659 v 0.168 H 1.032 C 1.024,-0.531 1.008,-0.566 0.985,-0.596 0.963,-0.626 0.935,-0.652 0.904,-0.673 0.872,-0.694 0.837,-0.71 0.8,-0.721 0.762,-0.732 0.724,-0.737 0.687,-0.737 Z m 0,0.596 c 0.037,0 0.075,-0.005 0.113,-0.016 0.037,-0.011 0.072,-0.027 0.104,-0.048 0.031,-0.02 0.059,-0.046 0.081,-0.076 0.023,-0.031 0.039,-0.066 0.047,-0.105 H 0.757 v 0.168 C 0.789,-0.225 0.82,-0.236 0.848,-0.252 0.877,-0.269 0.902,-0.29 0.922,-0.316 H 0.827 v 0.01 c 0,0.003 -0.001,0.006 -0.001,0.009 0,0.003 -0.001,0.006 -0.002,0.008 -0.001,0.003 -0.003,0.005 -0.005,0.006 -0.003,0.002 -0.006,0.002 -0.01,0.002 C 0.805,-0.281 0.8,-0.283 0.797,-0.286 0.793,-0.29 0.792,-0.294 0.792,-0.298 V -0.351 H 0.986 L 0.971,-0.325 C 0.957,-0.301 0.941,-0.281 0.923,-0.264 0.905,-0.247 0.886,-0.233 0.865,-0.221 0.843,-0.209 0.82,-0.2 0.796,-0.193 0.772,-0.186 0.747,-0.181 0.722,-0.177 v -0.071 c -0.006,0.001 -0.012,0.002 -0.018,0.002 -0.006,0 -0.012,0 -0.017,0 -0.006,0 -0.012,0 -0.018,0 -0.006,0 -0.012,-0.001 -0.018,-0.002 v 0.071 C 0.626,-0.181 0.601,-0.186 0.577,-0.193 0.553,-0.2 0.53,-0.209 0.509,-0.221 0.487,-0.233 0.468,-0.247 0.449,-0.264 0.431,-0.281 0.416,-0.301 0.402,-0.325 L 0.387,-0.351 h 0.194 v 0.053 c 0,0.005 -0.002,0.009 -0.005,0.012 -0.003,0.004 -0.008,0.005 -0.013,0.005 -0.003,0 -0.007,0 -0.009,-0.002 C 0.552,-0.284 0.55,-0.286 0.549,-0.289 0.547,-0.291 0.547,-0.294 0.546,-0.297 c 0,-0.003 0,-0.006 0,-0.009 v -0.01 H 0.45 c 0.021,0.026 0.045,0.047 0.074,0.064 0.029,0.016 0.06,0.027 0.092,0.034 V -0.386 H 0.341 c 0.008,0.039 0.023,0.074 0.046,0.105 0.023,0.03 0.05,0.056 0.082,0.077 0.032,0.021 0.066,0.037 0.104,0.047 0.038,0.011 0.076,0.016 0.114,0.016 z m -0.21,-0.316 c 0,0.003 -0.001,0.006 -0.001,0.009 0,0.003 0,0.006 0,0.01 v 0.008 c 0,0.003 0,0.006 0.001,0.009 h 0.174 v 0.138 c 0.006,0 0.012,0.001 0.018,0.002 0.006,0 0.012,0 0.018,0 0.005,0 0.011,0 0.017,0 0.006,-10e-4 0.012,-0.002 0.018,-0.002 v -0.138 h 0.174 c 0,-0.006 0.001,-0.012 0.001,-0.018 0,-0.006 -0.001,-0.012 -0.001,-0.018 H 0.722 v -0.138 c -0.006,0 -0.012,-0.001 -0.018,-0.001 -0.006,-0.001 -0.012,-0.001 -0.017,-0.001 -0.006,0 -0.012,0 -0.018,0.001 -0.006,0 -0.012,0.001 -0.018,0.001 v 0.138 z"
         style="fill:#ffc83d;fill-rule:nonzero"
         id="path10660" /></g></g></svg>
