<?xml version="1.0" encoding="UTF-8" standalone="no"?>
<svg
   width="16.844999"
   height="16.844999"
   viewBox="0 0 16.844999 16.844999"
   version="1.1"
   xml:space="preserve"
   style="clip-rule:evenodd;fill-rule:evenodd;stroke-linejoin:round;stroke-miterlimit:2"
   id="svg20568"
   sodipodi:docname="emojis.svg"
   xmlns:inkscape="http://www.inkscape.org/namespaces/inkscape"
   xmlns:sodipodi="http://sodipodi.sourceforge.net/DTD/sodipodi-0.dtd"
   xmlns="http://www.w3.org/2000/svg"
   xmlns:svg="http://www.w3.org/2000/svg"><defs
     id="defs20572" /><sodipodi:namedview
     id="namedview20570"
     pagecolor="#505050"
     bordercolor="#eeeeee"
     borderopacity="1"
     inkscape:pageshadow="0"
     inkscape:pageopacity="0"
     inkscape:pagecheckerboard="0" /><g
     transform="matrix(0.24,0,0,0.24,-363.3414,-110.71908)"
     id="g20566"><g
       transform="matrix(62.5,0,0,62.5,1506.11,518.392)"
       id="g1064"><path
         d="m 1.248,-0.351 c 0,0.052 -0.007,0.101 -0.02,0.149 C 1.215,-0.154 1.196,-0.109 1.171,-0.068 1.147,-0.026 1.118,0.012 1.083,0.046 1.049,0.08 1.011,0.109 0.97,0.134 0.928,0.158 0.884,0.177 0.836,0.19 0.788,0.204 0.738,0.21 0.687,0.21 0.635,0.21 0.585,0.204 0.537,0.19 0.489,0.177 0.445,0.158 0.403,0.134 0.362,0.109 0.324,0.08 0.29,0.046 0.255,0.012 0.226,-0.026 0.202,-0.068 0.177,-0.109 0.158,-0.154 0.145,-0.202 0.132,-0.25 0.125,-0.299 0.125,-0.351 c 0,-0.052 0.007,-0.102 0.02,-0.149 0.013,-0.048 0.032,-0.093 0.057,-0.135 0.024,-0.041 0.053,-0.079 0.088,-0.113 0.034,-0.034 0.072,-0.064 0.113,-0.088 0.042,-0.024 0.086,-0.043 0.134,-0.057 0.048,-0.013 0.098,-0.02 0.15,-0.02 0.051,0 0.101,0.007 0.149,0.02 0.048,0.014 0.092,0.033 0.134,0.057 0.041,0.024 0.079,0.054 0.113,0.088 0.035,0.034 0.064,0.072 0.088,0.113 0.025,0.042 0.044,0.087 0.057,0.135 0.013,0.047 0.02,0.097 0.02,0.149 z"
         style="fill-rule:nonzero"
         id="path1056" /><path
         d="m 1.178,-0.351 c 0,0.045 -0.006,0.089 -0.018,0.131 -0.012,0.041 -0.028,0.081 -0.049,0.117 -0.022,0.036 -0.047,0.07 -0.077,0.099 C 1.004,0.026 0.971,0.052 0.935,0.073 0.898,0.094 0.859,0.111 0.817,0.123 0.775,0.134 0.732,0.14 0.687,0.14 0.641,0.14 0.598,0.134 0.556,0.123 0.514,0.111 0.475,0.094 0.438,0.073 0.402,0.052 0.369,0.026 0.339,-0.004 0.309,-0.033 0.284,-0.067 0.262,-0.103 0.241,-0.139 0.225,-0.179 0.213,-0.22 0.201,-0.262 0.195,-0.306 0.195,-0.351 c 0,-0.045 0.006,-0.089 0.018,-0.131 0.012,-0.042 0.028,-0.081 0.049,-0.117 0.022,-0.037 0.047,-0.07 0.077,-0.099 0.03,-0.03 0.063,-0.056 0.099,-0.077 0.037,-0.021 0.076,-0.038 0.118,-0.05 0.042,-0.011 0.085,-0.017 0.131,-0.017 0.045,0 0.088,0.006 0.13,0.017 0.042,0.012 0.081,0.029 0.118,0.05 0.036,0.021 0.069,0.047 0.099,0.077 0.03,0.029 0.055,0.062 0.077,0.099 0.021,0.036 0.037,0.075 0.049,0.117 0.012,0.042 0.018,0.086 0.018,0.131 z"
         style="fill:#f03a17;fill-rule:nonzero"
         id="path1058" /><path
         d="m 0.406,-0.351 c 0.014,0 0.028,0.003 0.041,0.008 0.012,0.006 0.024,0.013 0.033,0.023 0.01,0.01 0.017,0.021 0.023,0.033 0.005,0.013 0.008,0.027 0.008,0.041 0,0.015 -0.003,0.029 -0.008,0.041 C 0.497,-0.192 0.49,-0.181 0.48,-0.171 0.471,-0.162 0.459,-0.154 0.447,-0.149 0.434,-0.143 0.42,-0.141 0.406,-0.141 0.391,-0.141 0.377,-0.143 0.365,-0.149 0.352,-0.154 0.341,-0.162 0.331,-0.171 0.322,-0.181 0.314,-0.192 0.309,-0.205 0.303,-0.217 0.3,-0.231 0.3,-0.246 0.3,-0.26 0.303,-0.274 0.309,-0.287 0.314,-0.299 0.322,-0.31 0.331,-0.32 0.341,-0.33 0.352,-0.337 0.365,-0.343 0.377,-0.348 0.391,-0.351 0.406,-0.351 Z m 0.561,0 c 0.015,0 0.029,0.003 0.041,0.008 0.013,0.006 0.024,0.013 0.034,0.023 0.009,0.01 0.017,0.021 0.022,0.033 0.006,0.013 0.009,0.027 0.009,0.041 0,0.015 -0.003,0.029 -0.009,0.041 -0.005,0.013 -0.013,0.024 -0.022,0.034 -0.01,0.009 -0.021,0.017 -0.034,0.022 -0.012,0.006 -0.026,0.008 -0.041,0.008 -0.014,0 -0.028,-0.002 -0.041,-0.008 C 0.914,-0.154 0.902,-0.162 0.893,-0.171 0.883,-0.181 0.876,-0.192 0.87,-0.205 0.865,-0.217 0.862,-0.231 0.862,-0.246 0.862,-0.26 0.865,-0.274 0.87,-0.287 0.876,-0.299 0.883,-0.31 0.893,-0.32 0.902,-0.33 0.914,-0.337 0.926,-0.343 0.939,-0.348 0.953,-0.351 0.967,-0.351 Z"
         style="fill:#af0d1a;fill-rule:nonzero"
         id="path1060" /><path
         d="m 0.476,-0.088 c 0,-0.007 0.001,-0.013 0.004,-0.017 0.003,-0.004 0.006,-0.008 0.012,-0.013 0.011,-0.009 0.025,-0.018 0.041,-0.025 0.017,-0.007 0.033,-0.013 0.051,-0.018 0.018,-0.005 0.036,-0.009 0.053,-0.011 0.018,-0.002 0.035,-0.003 0.05,-0.003 0.014,0 0.03,0.001 0.048,0.003 0.018,0.003 0.036,0.006 0.054,0.011 0.018,0.005 0.035,0.011 0.051,0.018 0.016,0.007 0.03,0.016 0.041,0.025 0.006,0.005 0.009,0.009 0.012,0.013 0.003,0.004 0.004,0.009 0.004,0.017 0,0.009 -0.004,0.017 -0.011,0.024 -0.007,0.007 -0.015,0.011 -0.024,0.011 -0.004,0 -0.007,-0.001 -0.01,-0.002 C 0.849,-0.056 0.846,-0.057 0.842,-0.059 L 0.835,-0.063 C 0.822,-0.069 0.81,-0.075 0.799,-0.08 0.788,-0.085 0.776,-0.09 0.765,-0.094 0.753,-0.097 0.741,-0.1 0.729,-0.102 0.716,-0.104 0.702,-0.105 0.687,-0.105 0.67,-0.105 0.655,-0.104 0.642,-0.102 0.629,-0.1 0.617,-0.097 0.605,-0.093 0.593,-0.088 0.582,-0.084 0.57,-0.078 0.558,-0.072 0.545,-0.066 0.531,-0.059 0.528,-0.057 0.524,-0.056 0.521,-0.055 0.518,-0.054 0.515,-0.053 0.511,-0.053 0.502,-0.053 0.494,-0.057 0.487,-0.064 0.48,-0.071 0.476,-0.079 0.476,-0.088 Z m 0.526,-0.438 c 0.01,0 0.018,0.003 0.025,0.01 0.007,0.007 0.011,0.015 0.011,0.025 0,0.012 -0.005,0.021 -0.015,0.028 l -0.091,0.068 v 0.097 c 0,0.007 -0.001,0.014 -0.004,0.02 C 0.925,-0.272 0.921,-0.266 0.917,-0.261 0.912,-0.256 0.906,-0.253 0.9,-0.25 0.893,-0.247 0.887,-0.246 0.879,-0.246 0.872,-0.246 0.865,-0.247 0.859,-0.25 0.853,-0.253 0.847,-0.256 0.842,-0.261 0.837,-0.266 0.834,-0.272 0.831,-0.278 0.828,-0.284 0.827,-0.291 0.827,-0.298 v -0.088 c 0,-0.006 0.002,-0.011 0.004,-0.016 0.002,-0.005 0.005,-0.009 0.01,-0.012 l 0.14,-0.106 c 0.007,-0.004 0.014,-0.006 0.021,-0.006 z m -0.456,0.228 c 0,0.007 -0.001,0.014 -0.004,0.02 C 0.539,-0.272 0.535,-0.266 0.531,-0.261 0.526,-0.256 0.52,-0.253 0.514,-0.25 0.508,-0.247 0.501,-0.246 0.494,-0.246 0.486,-0.246 0.48,-0.247 0.473,-0.25 0.467,-0.253 0.461,-0.256 0.457,-0.261 0.452,-0.266 0.448,-0.272 0.445,-0.278 0.442,-0.284 0.441,-0.291 0.441,-0.298 V -0.395 L 0.35,-0.463 C 0.34,-0.47 0.335,-0.479 0.335,-0.491 c 0,-0.01 0.004,-0.018 0.011,-0.025 0.007,-0.007 0.015,-0.01 0.025,-0.01 0.007,0 0.014,0.002 0.021,0.006 l 0.14,0.106 c 0.009,0.006 0.013,0.016 0.013,0.028 z"
         style="fill-rule:nonzero"
         id="path1062" /></g></g></svg>
