<?xml version="1.0" encoding="UTF-8" standalone="no"?>
<svg
   width="16.844999"
   height="16.844999"
   viewBox="0 0 16.844999 16.844999"
   version="1.1"
   xml:space="preserve"
   style="clip-rule:evenodd;fill-rule:evenodd;stroke-linejoin:round;stroke-miterlimit:2"
   id="svg20568"
   sodipodi:docname="emojis.svg"
   xmlns:inkscape="http://www.inkscape.org/namespaces/inkscape"
   xmlns:sodipodi="http://sodipodi.sourceforge.net/DTD/sodipodi-0.dtd"
   xmlns="http://www.w3.org/2000/svg"
   xmlns:svg="http://www.w3.org/2000/svg"><defs
     id="defs20572" /><sodipodi:namedview
     id="namedview20570"
     pagecolor="#505050"
     bordercolor="#eeeeee"
     borderopacity="1"
     inkscape:pageshadow="0"
     inkscape:pageopacity="0"
     inkscape:pagecheckerboard="0" /><g
     transform="matrix(0.24,0,0,0.24,-644.9358,-512.1354)"
     id="g20566"><g
       transform="matrix(62.5,0,0,62.5,2679.42,2190.96)"
       id="g10614"><path
         d="M 1.128,0.21 C 1.095,0.21 1.067,0.199 1.043,0.175 L 0.807,-0.061 C 0.797,-0.053 0.786,-0.046 0.773,-0.042 0.761,-0.037 0.748,-0.035 0.735,-0.035 0.72,-0.035 0.706,-0.038 0.692,-0.044 0.678,-0.049 0.666,-0.058 0.655,-0.068 L 0.509,-0.215 C 0.507,-0.216 0.506,-0.218 0.504,-0.219 0.503,-0.221 0.502,-0.223 0.5,-0.225 0.476,-0.233 0.454,-0.245 0.433,-0.26 0.412,-0.276 0.395,-0.294 0.38,-0.316 0.353,-0.316 0.33,-0.324 0.313,-0.339 0.295,-0.354 0.283,-0.375 0.276,-0.4 L 0.212,-0.655 0.2,-0.667 C 0.191,-0.676 0.182,-0.685 0.173,-0.694 0.164,-0.703 0.156,-0.712 0.149,-0.722 0.142,-0.732 0.136,-0.743 0.132,-0.755 0.127,-0.766 0.125,-0.779 0.125,-0.792 c 0,-0.017 0.003,-0.033 0.01,-0.047 0.006,-0.015 0.014,-0.027 0.025,-0.038 0.011,-0.011 0.024,-0.02 0.038,-0.026 0.014,-0.006 0.03,-0.01 0.047,-0.01 0.015,0 0.029,0.003 0.042,0.009 0.012,0.005 0.024,0.012 0.035,0.021 0.01,0.009 0.02,0.018 0.03,0.028 0.01,0.011 0.02,0.021 0.03,0.03 l 0.255,0.064 c 0.012,0.003 0.023,0.007 0.033,0.013 0.011,0.006 0.02,0.014 0.027,0.022 0.008,0.009 0.014,0.018 0.018,0.029 0.004,0.011 0.007,0.023 0.007,0.035 v 0.005 c 0.021,0.014 0.04,0.032 0.055,0.053 0.016,0.02 0.028,0.042 0.036,0.067 0.002,0.001 0.004,0.003 0.005,0.004 l 0.151,0.151 c 0.011,0.011 0.019,0.023 0.025,0.037 0.006,0.013 0.008,0.028 0.008,0.043 0,0.013 -0.002,0.025 -0.006,0.038 -0.005,0.012 -0.011,0.023 -0.019,0.034 L 1.213,0.006 C 1.224,0.017 1.233,0.03 1.239,0.045 1.245,0.06 1.248,0.075 1.248,0.091 1.248,0.107 1.245,0.123 1.239,0.137 1.232,0.152 1.224,0.165 1.213,0.176 1.202,0.186 1.189,0.195 1.175,0.201 1.16,0.207 1.145,0.21 1.128,0.21 Z"
         style="fill-rule:nonzero"
         id="path10590" /><path
         d="m 0.195,-0.792 c 0,-0.007 0.002,-0.014 0.004,-0.02 0.003,-0.006 0.006,-0.011 0.011,-0.016 0.004,-0.004 0.009,-0.008 0.015,-0.01 0.006,-0.003 0.013,-0.004 0.02,-0.004 0.013,0 0.025,0.005 0.035,0.014 l 0.139,0.14 -0.07,0.07 -0.14,-0.14 C 0.2,-0.767 0.195,-0.779 0.195,-0.792 Z"
         style="fill:#d8b094;fill-rule:nonzero"
         id="path10592" /><path
         d="m 0.375,-0.386 c -0.008,0 -0.015,-0.003 -0.02,-0.01 C 0.35,-0.402 0.347,-0.41 0.345,-0.417 l -0.078,-0.31 c 0,-0.002 0,-0.004 -0.001,-0.006 -0.001,-0.003 -0.001,-0.005 -0.001,-0.007 0,-0.01 0.003,-0.018 0.009,-0.024 0.006,-0.006 0.014,-0.008 0.023,-0.008 0.005,0 0.009,0 0.013,0.001 l 0.011,0.003 c 0.006,0.002 0.015,0.004 0.028,0.007 0.012,0.003 0.03,0.008 0.053,0.013 0.023,0.006 0.052,0.014 0.088,0.022 0.035,0.009 0.078,0.02 0.13,0.033 0.008,0.002 0.015,0.006 0.021,0.01 0.007,0.005 0.01,0.012 0.01,0.021 0,0.005 -0.001,0.011 -0.004,0.016 -0.003,0.005 -0.006,0.009 -0.01,0.013 L 0.404,-0.4 C 0.4,-0.396 0.396,-0.393 0.391,-0.39 0.386,-0.387 0.381,-0.386 0.375,-0.386 Z"
         style="fill:#757575;fill-rule:nonzero"
         id="path10594" /><path
         d="m 0.756,-0.457 c 0,0.025 -0.004,0.048 -0.013,0.069 -0.009,0.021 -0.022,0.04 -0.038,0.056 -0.016,0.016 -0.034,0.028 -0.056,0.037 -0.021,0.01 -0.044,0.014 -0.068,0.014 -0.024,0 -0.047,-0.004 -0.068,-0.014 C 0.492,-0.304 0.473,-0.317 0.457,-0.333 0.441,-0.348 0.429,-0.367 0.42,-0.388 0.41,-0.41 0.406,-0.432 0.406,-0.457 c 0,-0.024 0.004,-0.046 0.014,-0.068 0.009,-0.021 0.021,-0.04 0.037,-0.055 0.016,-0.016 0.035,-0.029 0.056,-0.038 0.021,-0.009 0.044,-0.014 0.068,-0.014 0.024,0 0.047,0.005 0.068,0.014 0.021,0.009 0.04,0.022 0.056,0.038 0.016,0.015 0.028,0.034 0.037,0.055 0.01,0.022 0.014,0.044 0.014,0.068 z"
         style="fill:#ffb900;fill-rule:nonzero"
         id="path10596" /><path
         d="m 0.743,-0.491 c 0.012,0 0.022,0.004 0.03,0.012 l 0.146,0.146 c 0.009,0.009 0.013,0.019 0.013,0.031 0,0.012 -0.004,0.022 -0.013,0.03 l -0.153,0.154 c -0.009,0.008 -0.019,0.013 -0.031,0.013 -0.011,0 -0.021,-0.005 -0.03,-0.013 L 0.559,-0.264 C 0.555,-0.268 0.552,-0.273 0.549,-0.278 0.547,-0.283 0.546,-0.289 0.546,-0.294 c 0,-0.006 0.001,-0.012 0.003,-0.017 0.003,-0.006 0.006,-0.01 0.01,-0.014 l 0.153,-0.154 c 0.009,-0.008 0.019,-0.012 0.031,-0.012 z"
         style="fill:#f2f2f2;fill-rule:nonzero"
         id="path10598" /><path
         d="m 0.634,-0.597 0.017,0.018 -0.017,0.017 -0.018,-0.017 z m -0.071,0 0.018,0.018 -0.018,0.017 -0.017,-0.017 z m 0.071,0.071 0.017,0.017 -0.017,0.018 -0.018,-0.018 z"
         style="fill:#ffc83d;fill-rule:nonzero"
         id="path10600" /><path
         d="m 0.743,-0.491 c 0.012,0 0.022,0.004 0.03,0.012 l 0.146,0.146 c 0.009,0.009 0.013,0.019 0.013,0.031 0,0.012 -0.004,0.022 -0.013,0.03 l -0.153,0.154 c -0.009,0.008 -0.019,0.013 -0.031,0.013 -0.011,0 -0.021,-0.005 -0.03,-0.013 L 0.559,-0.264 C 0.555,-0.268 0.552,-0.273 0.549,-0.278 0.547,-0.283 0.546,-0.289 0.546,-0.294 c 0,-0.006 0.001,-0.012 0.003,-0.017 0.003,-0.006 0.006,-0.01 0.01,-0.014 l 0.153,-0.154 c 0.009,-0.008 0.019,-0.012 0.031,-0.012 z"
         style="fill:#f2f2f2;fill-rule:nonzero"
         id="path10602" /><path
         d="m 0.841,-0.246 c 0.014,0 0.026,0.005 0.035,0.015 L 1.163,0.056 C 1.173,0.065 1.178,0.077 1.178,0.091 1.178,0.098 1.176,0.104 1.174,0.11 1.171,0.116 1.168,0.121 1.163,0.126 1.159,0.13 1.153,0.134 1.147,0.136 1.141,0.139 1.135,0.14 1.128,0.14 1.114,0.14 1.103,0.135 1.093,0.126 L 0.806,-0.161 c -0.009,-0.01 -0.014,-0.021 -0.014,-0.035 0,-0.014 0.005,-0.026 0.014,-0.035 0.01,-0.01 0.021,-0.015 0.035,-0.015 z"
         style="fill:#d8b094;fill-rule:nonzero"
         id="path10604" /><path
         d="m 0.792,-0.369 c 0,-0.004 0.001,-0.008 0.005,-0.012 0.003,-0.003 0.008,-0.005 0.012,-0.005 0.005,0 0.009,0.002 0.012,0.005 0.004,0.004 0.006,0.008 0.006,0.012 0,0.005 -0.002,0.009 -0.005,0.013 C 0.819,-0.352 0.814,-0.351 0.809,-0.351 0.804,-0.351 0.8,-0.352 0.797,-0.356 0.793,-0.36 0.792,-0.364 0.792,-0.369 Z M 0.739,-0.351 C 0.734,-0.351 0.73,-0.352 0.726,-0.356 0.723,-0.36 0.721,-0.364 0.721,-0.369 c 0,-0.004 0.002,-0.008 0.006,-0.012 0.003,-0.003 0.007,-0.005 0.012,-0.005 0.004,0 0.008,0.002 0.012,0.005 0.004,0.004 0.005,0.008 0.005,0.012 0,0.005 -0.001,0.009 -0.005,0.013 -0.003,0.004 -0.007,0.005 -0.012,0.005 z m 0,-0.105 c 0.005,0 0.009,0.002 0.012,0.005 0.004,0.003 0.005,0.008 0.005,0.013 0,0.004 -0.001,0.008 -0.005,0.012 -0.004,0.003 -0.008,0.005 -0.012,0.005 -0.005,0 -0.009,-0.002 -0.012,-0.005 -0.004,-0.004 -0.006,-0.008 -0.006,-0.012 0,-0.005 0.002,-0.009 0.006,-0.013 0.003,-0.003 0.007,-0.005 0.012,-0.005 z"
         style="fill:#ffffff;fill-rule:nonzero"
         id="path10606" /><path
         d="M 0.651,-0.579 0.634,-0.562 0.616,-0.579 0.634,-0.597 Z m -0.105,0 0.017,-0.018 0.018,0.018 -0.018,0.017 z m 0.088,0.053 0.017,0.017 -0.017,0.018 -0.018,-0.018 z"
         style="fill:#ffc83d;fill-rule:nonzero"
         id="path10608" /><path
         d="m 0.809,-0.386 c 0.005,0 0.009,0.002 0.012,0.005 0.004,0.004 0.006,0.008 0.006,0.012 0,0.005 -0.002,0.009 -0.005,0.013 -0.003,0.004 -0.008,0.005 -0.013,0.005 -0.005,0 -0.009,-0.001 -0.012,-0.005 -0.004,-0.004 -0.005,-0.008 -0.005,-0.013 0,-0.004 0.001,-0.008 0.005,-0.012 0.003,-0.003 0.008,-0.005 0.012,-0.005 z m -0.088,0.017 c 0,-0.004 0.002,-0.008 0.006,-0.012 0.003,-0.003 0.007,-0.005 0.012,-0.005 0.004,0 0.008,0.002 0.012,0.005 0.004,0.004 0.005,0.008 0.005,0.012 0,0.005 -0.001,0.009 -0.005,0.013 -0.003,0.004 -0.007,0.005 -0.012,0.005 -0.005,0 -0.009,-0.001 -0.013,-0.005 C 0.723,-0.36 0.721,-0.364 0.721,-0.369 Z m 0,-0.069 c 0,-0.005 0.002,-0.009 0.006,-0.013 0.003,-0.003 0.007,-0.005 0.012,-0.005 0.005,0 0.009,0.002 0.012,0.005 0.004,0.003 0.005,0.008 0.005,0.013 0,0.004 -0.001,0.008 -0.005,0.012 -0.004,0.003 -0.008,0.005 -0.012,0.005 -0.005,0 -0.009,-0.002 -0.012,-0.005 C 0.723,-0.43 0.721,-0.434 0.721,-0.438 Z"
         style="fill:#ffffff;fill-rule:nonzero"
         id="path10610" /><path
         d="M 1.178,0.091 C 1.178,0.098 1.176,0.104 1.174,0.11 1.171,0.116 1.168,0.121 1.163,0.126 1.159,0.13 1.153,0.134 1.147,0.136 1.141,0.139 1.135,0.14 1.128,0.14 1.114,0.14 1.103,0.135 1.093,0.126 L 0.806,-0.161 c -0.009,-0.01 -0.014,-0.021 -0.014,-0.035 0,-0.014 0.005,-0.026 0.014,-0.035 0.01,-0.01 0.021,-0.015 0.035,-0.015 0.014,0 0.026,0.005 0.035,0.015 l 0.287,0.287 c 0.01,0.009 0.015,0.021 0.015,0.035 z"
         style="fill:#d8b094;fill-rule:nonzero"
         id="path10612" /></g></g></svg>
