<?xml version="1.0" encoding="UTF-8" standalone="no"?>
<svg
   width="16.844999"
   height="16.844999"
   viewBox="0 0 16.844999 16.844999"
   version="1.1"
   xml:space="preserve"
   style="clip-rule:evenodd;fill-rule:evenodd;stroke-linejoin:round;stroke-miterlimit:2"
   id="svg20568"
   sodipodi:docname="emojis.svg"
   xmlns:inkscape="http://www.inkscape.org/namespaces/inkscape"
   xmlns:sodipodi="http://sodipodi.sourceforge.net/DTD/sodipodi-0.dtd"
   xmlns="http://www.w3.org/2000/svg"
   xmlns:svg="http://www.w3.org/2000/svg"><defs
     id="defs20572" /><sodipodi:namedview
     id="namedview20570"
     pagecolor="#505050"
     bordercolor="#eeeeee"
     borderopacity="1"
     inkscape:pageshadow="0"
     inkscape:pageopacity="0"
     inkscape:pagecheckerboard="0" /><g
     transform="matrix(0.24,0,0,0.24,-665.5302,-512.1354)"
     id="g20566"><g
       transform="matrix(62.5,0,0,62.5,2765.23,2190.96)"
       id="g10630"><path
         d="m 1.248,-0.649 v 0.207 c 0,0.025 -0.005,0.048 -0.013,0.071 -0.008,0.024 -0.02,0.045 -0.036,0.063 0.016,0.019 0.028,0.04 0.036,0.062 0.008,0.023 0.013,0.046 0.013,0.07 v 0.141 c 0,0.027 -0.005,0.052 -0.014,0.074 C 1.225,0.062 1.213,0.082 1.198,0.101 1.182,0.119 1.164,0.135 1.143,0.148 1.123,0.162 1.101,0.174 1.077,0.183 1.054,0.192 1.03,0.199 1.005,0.204 0.98,0.208 0.956,0.21 0.932,0.21 0.91,0.21 0.888,0.209 0.865,0.205 0.843,0.201 0.821,0.195 0.799,0.188 0.777,0.18 0.756,0.17 0.737,0.159 0.717,0.147 0.699,0.134 0.683,0.118 0.667,0.103 0.654,0.085 0.643,0.066 0.632,0.046 0.624,0.025 0.62,0.001 0.596,0.01 0.572,0.014 0.546,0.014 0.528,0.014 0.512,0.012 0.498,0.009 0.483,0.005 0.468,0 0.452,-0.008 0.416,-0.024 0.38,-0.041 0.345,-0.059 0.31,-0.077 0.276,-0.095 0.241,-0.113 0.204,-0.133 0.176,-0.159 0.155,-0.19 0.135,-0.222 0.125,-0.259 0.125,-0.302 v -0.207 c 0,-0.019 0.005,-0.038 0.016,-0.055 0.01,-0.017 0.025,-0.03 0.042,-0.039 L 0.78,-0.901 c 0.015,-0.008 0.03,-0.012 0.047,-0.012 0.016,0 0.032,0.004 0.047,0.012 l 0.316,0.157 c 0.018,0.01 0.033,0.023 0.043,0.039 0.01,0.017 0.015,0.035 0.015,0.056 z"
         style="fill-rule:nonzero"
         id="path10616" /><path
         d="m 1.178,-0.176 v 0.141 c 0,0.02 -0.004,0.038 -0.011,0.054 C 1.159,0.036 1.149,0.05 1.136,0.063 1.124,0.076 1.109,0.088 1.093,0.097 1.076,0.107 1.059,0.115 1.041,0.121 1.023,0.128 1.004,0.132 0.986,0.135 0.967,0.139 0.949,0.14 0.932,0.14 0.915,0.14 0.897,0.139 0.879,0.135 0.86,0.132 0.842,0.128 0.823,0.121 0.805,0.115 0.788,0.107 0.771,0.097 0.755,0.088 0.74,0.076 0.728,0.063 0.715,0.05 0.705,0.036 0.698,0.019 0.69,0.003 0.687,-0.015 0.687,-0.035 V -0.109 L 0.618,-0.12 c 0,-0.009 -0.001,-0.018 -0.002,-0.028 0,-0.009 -0.001,-0.018 -0.001,-0.028 0,-0.028 0.005,-0.053 0.014,-0.075 C 0.638,-0.274 0.65,-0.293 0.666,-0.31 0.681,-0.327 0.699,-0.341 0.72,-0.353 0.741,-0.365 0.763,-0.375 0.786,-0.382 0.81,-0.39 0.834,-0.395 0.859,-0.399 c 0.025,-0.003 0.049,-0.005 0.072,-0.005 0.013,0 0.027,0.001 0.042,0.003 0.016,0.002 0.031,0.004 0.046,0.007 0.015,0.004 0.03,0.008 0.045,0.012 0.014,0.005 0.027,0.01 0.039,0.016 l 0.001,0.002 c -0.002,0.003 -0.003,0.007 -0.005,0.012 -0.002,0.004 -0.004,0.009 -0.005,0.013 -0.001,0.005 -0.003,0.01 -0.004,0.014 -0.001,0.005 -0.002,0.009 -0.002,0.012 0,0.001 0,0.001 10e-4,0.001 0,0.001 0,0.001 0,0.001 0.012,0.008 0.023,0.017 0.034,0.026 0.011,0.009 0.02,0.02 0.028,0.031 0.009,0.011 0.015,0.023 0.02,0.036 0.004,0.013 0.007,0.027 0.007,0.042 z"
         style="fill:#2b2b2b;fill-rule:nonzero"
         id="path10618" /><path
         d="m 0.83,-0.765 c 0.018,0 0.035,0.004 0.052,0.011 l 0.207,0.083 c 0.013,0.005 0.025,0.012 0.036,0.021 0.011,0.009 0.021,0.019 0.028,0.031 0.008,0.011 0.014,0.024 0.018,0.037 0.005,0.013 0.007,0.027 0.007,0.041 v 0.099 c 0,0.032 -0.008,0.058 -0.024,0.079 C 1.138,-0.342 1.117,-0.324 1.089,-0.311 1.065,-0.325 1.04,-0.335 1.013,-0.341 0.987,-0.348 0.96,-0.351 0.932,-0.351 0.915,-0.351 0.897,-0.35 0.879,-0.346 0.86,-0.343 0.842,-0.339 0.824,-0.332 0.806,-0.326 0.788,-0.318 0.771,-0.308 0.755,-0.299 0.74,-0.287 0.728,-0.274 0.715,-0.261 0.705,-0.247 0.698,-0.23 0.69,-0.214 0.687,-0.196 0.687,-0.176 v 0.067 l -0.078,0.038 c -0.011,0.005 -0.021,0.009 -0.031,0.012 -0.01,0.002 -0.021,0.003 -0.032,0.003 -0.022,0 -0.042,-0.005 -0.063,-0.015 L 0.273,-0.176 C 0.249,-0.188 0.229,-0.205 0.216,-0.228 0.202,-0.25 0.195,-0.274 0.195,-0.302 v -0.102 c 0,-0.014 0.002,-0.027 0.006,-0.04 0.004,-0.013 0.01,-0.025 0.017,-0.037 0.007,-0.011 0.016,-0.021 0.026,-0.03 0.01,-0.009 0.022,-0.016 0.034,-0.022 L 0.773,-0.752 C 0.791,-0.761 0.809,-0.765 0.83,-0.765 Z m 0.102,0.449 c 0.013,0 0.028,0.001 0.044,0.004 0.015,0.002 0.031,0.006 0.046,0.011 0.016,0.005 0.031,0.011 0.045,0.018 0.015,0.008 0.027,0.017 0.039,0.027 0.011,0.011 0.02,0.022 0.027,0.036 0.006,0.013 0.01,0.028 0.01,0.044 0,0.016 -0.004,0.031 -0.01,0.045 -0.007,0.013 -0.016,0.025 -0.027,0.035 -0.011,0.011 -0.024,0.02 -0.038,0.027 -0.015,0.008 -0.03,0.014 -0.046,0.019 -0.015,0.005 -0.031,0.009 -0.046,0.011 -0.016,0.003 -0.031,0.004 -0.044,0.004 -0.013,0 -0.028,-10e-4 -0.043,-0.004 C 0.873,-0.041 0.857,-0.045 0.842,-0.05 0.826,-0.055 0.811,-0.061 0.797,-0.069 0.782,-0.076 0.769,-0.085 0.758,-0.096 0.747,-0.106 0.738,-0.118 0.732,-0.131 0.725,-0.145 0.722,-0.16 0.722,-0.176 c 0,-0.016 0.003,-0.031 0.01,-0.044 0.006,-0.014 0.015,-0.025 0.027,-0.036 0.011,-0.01 0.024,-0.019 0.038,-0.027 0.014,-0.007 0.029,-0.013 0.045,-0.018 0.015,-0.005 0.031,-0.009 0.047,-0.011 0.015,-0.003 0.03,-0.004 0.043,-0.004 z"
         style="fill:#f2f2f2;fill-rule:nonzero"
         id="path10620" /><path
         d="m 0.827,-0.842 c 0.006,0 0.011,0.001 0.016,0.003 l 0.315,0.158 c 0.006,0.003 0.011,0.007 0.015,0.013 0.003,0.006 0.005,0.012 0.005,0.019 0,0.009 -10e-4,0.017 -0.003,0.025 -0.002,0.007 -0.007,0.013 -0.017,0.018 l -0.596,0.298 c -0.005,0.003 -0.011,0.004 -0.016,0.004 -0.005,0 -0.011,-0.001 -0.016,-0.004 L 0.214,-0.465 C 0.208,-0.468 0.204,-0.473 0.2,-0.479 0.197,-0.484 0.195,-0.491 0.195,-0.497 c 0,-0.005 0,-0.009 0.001,-0.013 0,-0.004 0,-0.008 0.002,-0.012 0.001,-0.004 0.003,-0.007 0.006,-0.01 0.002,-0.004 0.006,-0.006 0.01,-0.009 l 0.597,-0.298 c 0.005,-0.002 0.01,-0.003 0.016,-0.003 z m 0,0.666 c 0,-0.012 0.003,-0.023 0.01,-0.032 0.008,-0.008 0.017,-0.016 0.027,-0.021 0.011,-0.006 0.022,-0.01 0.035,-0.013 0.012,-0.002 0.023,-0.004 0.033,-0.004 l 0.054,0.032 v 0.073 l -0.054,0.036 c -0.01,0 -0.021,-0.002 -0.033,-0.004 C 0.886,-0.112 0.875,-0.116 0.864,-0.122 0.854,-0.128 0.845,-0.135 0.837,-0.144 0.83,-0.153 0.827,-0.163 0.827,-0.176 Z"
         style="fill:#ef6950;fill-rule:nonzero"
         id="path10622" /><path
         d="m 0.546,-0.355 0.626,-0.313 c 0.003,0.005 0.005,0.01 0.005,0.015 0,0.006 10e-4,0.011 10e-4,0.017 0,0.009 -10e-4,0.018 -0.003,0.026 -0.002,0.008 -0.008,0.014 -0.017,0.019 L 0.562,-0.293 C 0.557,-0.29 0.551,-0.289 0.546,-0.289 0.541,-0.289 0.535,-0.29 0.53,-0.293 L 0.214,-0.451 C 0.209,-0.453 0.206,-0.456 0.203,-0.46 0.201,-0.463 0.199,-0.468 0.197,-0.472 0.196,-0.476 0.195,-0.481 0.195,-0.486 c 0,-0.005 0,-0.01 0,-0.014 0,-0.005 0,-0.01 0.001,-0.015 0,-0.005 0.002,-0.009 0.005,-0.013 z"
         style="fill:#f03a17;fill-rule:nonzero"
         id="path10624" /><path
         d="m 0.932,-0.105 v -0.141 c 0.01,0 0.021,0.002 0.034,0.004 0.012,0.003 0.023,0.007 0.034,0.013 0.011,0.005 0.02,0.013 0.027,0.021 0.007,0.009 0.011,0.02 0.011,0.032 0,0.013 -0.004,0.023 -0.011,0.032 C 1.02,-0.135 1.011,-0.128 1,-0.122 0.989,-0.116 0.978,-0.112 0.966,-0.109 0.953,-0.107 0.942,-0.105 0.932,-0.105 Z"
         style="fill:#bad80a;fill-rule:nonzero"
         id="path10626" /><path
         d="m 0.599,-0.667 c 0.005,0 0.009,0.002 0.012,0.005 0.004,0.004 0.005,0.008 0.005,0.013 v 0.21 c 0,0.005 -0.001,0.009 -0.005,0.012 -0.003,0.004 -0.007,0.006 -0.012,0.006 -0.005,0 -0.009,-0.002 -0.013,-0.006 C 0.583,-0.43 0.581,-0.434 0.581,-0.439 v -0.21 c 0,-0.005 0.002,-0.009 0.005,-0.013 0.004,-0.003 0.008,-0.005 0.013,-0.005 z m -0.176,0.07 c 0.005,0 0.009,0.002 0.013,0.005 0.003,0.004 0.005,0.008 0.005,0.013 v 0.105 c 0,0.005 -0.002,0.009 -0.005,0.012 -0.004,0.004 -0.008,0.005 -0.013,0.005 -0.005,0 -0.009,-0.001 -0.012,-0.005 C 0.407,-0.465 0.406,-0.469 0.406,-0.474 v -0.105 c 0,-0.005 10e-4,-0.009 0.005,-0.013 0.003,-0.003 0.007,-0.005 0.012,-0.005 z m 0.527,-0.14 c 0.004,0 0.008,0.001 0.012,0.005 0.003,0.004 0.005,0.008 0.005,0.012 v 0.106 c 0,0.005 -0.001,0.009 -0.005,0.012 -0.003,0.004 -0.007,0.005 -0.012,0.005 -0.005,0 -0.009,-0.001 -0.013,-0.005 C 0.934,-0.605 0.932,-0.609 0.932,-0.614 V -0.72 c 0,-0.004 0.002,-0.008 0.006,-0.012 0.003,-0.004 0.007,-0.005 0.012,-0.005 z M 0.774,-0.772 c 0.005,0 0.009,0.002 0.013,0.005 0.003,0.004 0.005,0.008 0.005,0.012 v 0.211 c 0,0.005 -0.002,0.009 -0.005,0.012 -0.004,0.004 -0.008,0.006 -0.013,0.006 -0.004,0 -0.009,-0.002 -0.012,-0.005 C 0.759,-0.535 0.757,-0.539 0.757,-0.544 v -0.211 c 0,-0.004 0.002,-0.008 0.005,-0.012 0.004,-0.003 0.008,-0.005 0.012,-0.005 z"
         style="fill:#ee9889;fill-rule:nonzero"
         id="path10628" /></g></g></svg>
