<?xml version="1.0" encoding="UTF-8" standalone="no"?>
<svg
   width="16.844999"
   height="16.844999"
   viewBox="0 0 16.844999 16.844999"
   version="1.1"
   xml:space="preserve"
   style="clip-rule:evenodd;fill-rule:evenodd;stroke-linejoin:round;stroke-miterlimit:2"
   id="svg20568"
   sodipodi:docname="emojis.svg"
   xmlns:inkscape="http://www.inkscape.org/namespaces/inkscape"
   xmlns:sodipodi="http://sodipodi.sourceforge.net/DTD/sodipodi-0.dtd"
   xmlns="http://www.w3.org/2000/svg"
   xmlns:svg="http://www.w3.org/2000/svg"><defs
     id="defs20572" /><sodipodi:namedview
     id="namedview20570"
     pagecolor="#505050"
     bordercolor="#eeeeee"
     borderopacity="1"
     inkscape:pageshadow="0"
     inkscape:pageopacity="0"
     inkscape:pagecheckerboard="0" /><g
     transform="matrix(0.24,0,0,0.24,-745.8102,-512.1354)"
     id="g20566"><g
       transform="matrix(62.5,0,0,62.5,3099.73,2190.96)"
       id="g10694"><path
         d="M 1.128,0.21 C 1.095,0.21 1.067,0.199 1.043,0.175 L 0.788,-0.08 C 0.766,-0.074 0.744,-0.07 0.722,-0.07 0.694,-0.07 0.667,-0.075 0.641,-0.084 0.616,-0.093 0.593,-0.105 0.572,-0.122 0.551,-0.138 0.532,-0.157 0.517,-0.18 0.502,-0.202 0.491,-0.227 0.484,-0.254 0.463,-0.259 0.443,-0.268 0.424,-0.279 0.405,-0.289 0.388,-0.303 0.373,-0.318 0.357,-0.333 0.344,-0.35 0.333,-0.369 0.322,-0.388 0.314,-0.408 0.309,-0.429 0.282,-0.436 0.257,-0.448 0.234,-0.463 0.212,-0.478 0.193,-0.496 0.176,-0.517 0.16,-0.538 0.147,-0.561 0.138,-0.587 0.129,-0.612 0.125,-0.639 0.125,-0.667 c 0,-0.025 0.004,-0.05 0.012,-0.074 -0.008,-0.016 -0.012,-0.033 -0.012,-0.052 0,-0.017 0.003,-0.032 0.01,-0.047 0.006,-0.014 0.014,-0.027 0.025,-0.037 0.011,-0.011 0.024,-0.02 0.038,-0.026 0.014,-0.006 0.03,-0.01 0.047,-0.01 0.018,0 0.036,0.004 0.052,0.012 0.024,-0.008 0.048,-0.012 0.074,-0.012 0.028,0 0.054,0.005 0.08,0.014 0.025,0.009 0.049,0.022 0.07,0.038 0.021,0.016 0.039,0.035 0.054,0.058 0.015,0.023 0.026,0.047 0.033,0.074 0.022,0.006 0.042,0.014 0.06,0.025 0.019,0.011 0.036,0.024 0.052,0.039 0.015,0.015 0.028,0.032 0.039,0.051 0.011,0.019 0.019,0.039 0.025,0.06 0.026,0.007 0.051,0.019 0.074,0.034 0.022,0.015 0.042,0.033 0.058,0.054 0.016,0.021 0.028,0.044 0.038,0.07 0.009,0.025 0.013,0.052 0.013,0.08 0,0.022 -0.003,0.044 -0.009,0.066 L 1.213,0.006 C 1.224,0.017 1.233,0.03 1.239,0.045 1.245,0.06 1.248,0.075 1.248,0.091 1.248,0.107 1.245,0.123 1.239,0.137 1.232,0.152 1.224,0.165 1.213,0.175 1.202,0.186 1.19,0.195 1.175,0.201 1.161,0.207 1.145,0.21 1.128,0.21 Z"
         style="fill-rule:nonzero"
         id="path10664" /><path
         d="m 0.195,-0.792 c 0,-0.007 0.002,-0.014 0.004,-0.02 0.003,-0.006 0.006,-0.011 0.011,-0.016 0.004,-0.004 0.009,-0.008 0.015,-0.01 0.006,-0.003 0.013,-0.004 0.02,-0.004 0.013,0 0.025,0.005 0.035,0.014 l 0.055,0.056 -0.07,0.07 -0.056,-0.056 C 0.2,-0.767 0.195,-0.779 0.195,-0.792 Z"
         style="fill:#d8b094;fill-rule:nonzero"
         id="path10666" /><path
         d="m 0.546,-0.667 c 0,0.024 -0.005,0.047 -0.014,0.069 -0.009,0.021 -0.021,0.039 -0.037,0.055 -0.016,0.016 -0.035,0.029 -0.056,0.038 -0.021,0.009 -0.044,0.014 -0.068,0.014 -0.024,0 -0.047,-0.005 -0.069,-0.014 C 0.281,-0.514 0.263,-0.527 0.247,-0.543 0.231,-0.559 0.219,-0.578 0.209,-0.599 0.2,-0.62 0.195,-0.643 0.195,-0.667 c 0,-0.024 0.005,-0.047 0.014,-0.068 0.01,-0.021 0.022,-0.04 0.038,-0.056 0.016,-0.016 0.034,-0.028 0.055,-0.037 0.022,-0.01 0.045,-0.014 0.069,-0.014 0.024,0 0.046,0.004 0.068,0.014 0.021,0.009 0.04,0.021 0.055,0.037 0.016,0.016 0.029,0.035 0.038,0.056 0.009,0.021 0.014,0.044 0.014,0.068 z"
         style="fill:#ea005e;fill-rule:nonzero"
         id="path10668" /><path
         d="M 0.423,-0.807 0.441,-0.79 0.423,-0.772 0.406,-0.79 Z m -0.07,0 0.018,0.017 -0.018,0.018 -0.018,-0.018 z m 0.07,0.07 0.018,0.017 -0.018,0.018 -0.017,-0.018 z"
         style="fill:#ee3f86;fill-rule:nonzero"
         id="path10670" /><path
         d="m 0.721,-0.492 c 0,0.025 -0.004,0.048 -0.013,0.069 -0.01,0.021 -0.022,0.04 -0.038,0.056 C 0.654,-0.352 0.635,-0.339 0.614,-0.33 0.593,-0.321 0.57,-0.316 0.546,-0.316 0.522,-0.316 0.499,-0.321 0.478,-0.33 0.456,-0.339 0.438,-0.352 0.422,-0.368 0.406,-0.384 0.394,-0.402 0.385,-0.424 0.375,-0.445 0.371,-0.468 0.371,-0.492 c 0,-0.024 0.004,-0.046 0.014,-0.068 0.009,-0.021 0.021,-0.04 0.037,-0.055 0.016,-0.016 0.034,-0.029 0.056,-0.038 0.021,-0.009 0.044,-0.014 0.068,-0.014 0.024,0 0.047,0.005 0.068,0.014 0.021,0.009 0.04,0.022 0.056,0.038 0.015,0.015 0.028,0.034 0.037,0.055 0.01,0.022 0.014,0.044 0.014,0.068 z"
         style="fill:#ffffff;fill-rule:nonzero"
         id="path10672" /><path
         d="m 0.722,-0.491 c 0,0.024 -0.005,0.047 -0.014,0.068 -0.01,0.021 -0.022,0.04 -0.038,0.056 C 0.654,-0.352 0.635,-0.339 0.614,-0.33 0.593,-0.321 0.57,-0.316 0.546,-0.316 0.522,-0.316 0.499,-0.32 0.478,-0.33 0.456,-0.339 0.438,-0.351 0.422,-0.367 0.406,-0.383 0.393,-0.402 0.384,-0.423 0.375,-0.444 0.371,-0.467 0.371,-0.491 c 0,-0.024 0.004,-0.047 0.014,-0.068 0.009,-0.022 0.021,-0.04 0.037,-0.056 0.016,-0.016 0.034,-0.029 0.056,-0.038 0.021,-0.009 0.044,-0.014 0.068,-0.014 0.024,0 0.047,0.005 0.069,0.014 0.021,0.009 0.039,0.022 0.055,0.038 0.016,0.015 0.028,0.034 0.038,0.055 0.009,0.022 0.014,0.044 0.014,0.069 z"
         style="fill:#ffffff;fill-rule:nonzero"
         id="path10674" /><path
         d="m 0.897,-0.316 c 0,0.024 -0.005,0.047 -0.014,0.068 -0.009,0.022 -0.022,0.04 -0.038,0.056 -0.015,0.016 -0.034,0.028 -0.055,0.037 -0.022,0.01 -0.044,0.014 -0.068,0.014 -0.024,0 -0.047,-0.004 -0.068,-0.014 C 0.632,-0.164 0.614,-0.176 0.598,-0.192 0.582,-0.208 0.569,-0.226 0.56,-0.248 0.551,-0.269 0.546,-0.292 0.546,-0.316 c 0,-0.024 0.005,-0.047 0.014,-0.068 0.009,-0.021 0.022,-0.04 0.037,-0.056 0.016,-0.016 0.035,-0.028 0.056,-0.038 0.021,-0.009 0.044,-0.013 0.069,-0.013 0.024,0 0.046,0.004 0.068,0.014 0.021,0.009 0.04,0.022 0.055,0.037 0.016,0.016 0.029,0.035 0.038,0.056 0.009,0.021 0.014,0.044 0.014,0.068 z"
         style="fill:#16c60c;fill-rule:nonzero"
         id="path10676" /><path
         d="m 0.599,-0.632 0.017,0.018 -0.017,0.017 -0.018,-0.017 z m 0,0.07 0.017,0.018 -0.017,0.018 -0.018,-0.018 z m -0.07,-0.07 0.017,0.018 -0.017,0.017 -0.018,-0.017 z"
         style="fill:#f2f2f2;fill-rule:nonzero"
         id="path10678" /><path
         d="m 0.841,-0.246 c 0.014,0 0.026,0.005 0.035,0.015 L 1.163,0.056 C 1.173,0.065 1.178,0.077 1.178,0.091 1.178,0.098 1.176,0.104 1.174,0.11 1.171,0.116 1.168,0.121 1.163,0.126 1.159,0.13 1.153,0.134 1.147,0.136 1.141,0.139 1.135,0.14 1.128,0.14 1.114,0.14 1.103,0.135 1.093,0.126 L 0.806,-0.161 c -0.009,-0.01 -0.014,-0.021 -0.014,-0.035 0,-0.014 0.005,-0.026 0.014,-0.035 0.01,-0.01 0.021,-0.015 0.035,-0.015 z"
         style="fill:#d8b094;fill-rule:nonzero"
         id="path10680" /><path
         d="m 0.897,-0.316 c 0,0.024 -0.005,0.047 -0.014,0.068 -0.009,0.022 -0.022,0.04 -0.038,0.056 -0.015,0.016 -0.034,0.028 -0.055,0.037 -0.022,0.01 -0.044,0.014 -0.068,0.014 -0.024,0 -0.047,-0.004 -0.068,-0.014 C 0.632,-0.164 0.614,-0.176 0.598,-0.192 0.582,-0.208 0.569,-0.226 0.56,-0.248 0.551,-0.269 0.546,-0.292 0.546,-0.316 c 0,-0.024 0.005,-0.047 0.014,-0.068 0.009,-0.021 0.022,-0.04 0.037,-0.056 0.016,-0.016 0.035,-0.028 0.056,-0.038 0.021,-0.009 0.044,-0.013 0.069,-0.013 0.024,0 0.046,0.004 0.068,0.014 0.021,0.009 0.04,0.022 0.055,0.037 0.016,0.016 0.029,0.035 0.038,0.056 0.009,0.021 0.014,0.044 0.014,0.068 z"
         style="fill:#16c60c;fill-rule:nonzero"
         id="path10682" /><path
         d="M 0.441,-0.79 0.423,-0.772 0.406,-0.79 0.423,-0.807 Z m -0.106,0 0.018,-0.017 0.018,0.017 -0.018,0.018 z m 0.071,0.07 0.017,-0.017 0.018,0.017 -0.018,0.018 z"
         style="fill:#ee3f86;fill-rule:nonzero"
         id="path10684" /><path
         d="m 0.774,-0.457 0.018,0.018 -0.018,0.018 -0.017,-0.018 z m -0.07,0 0.018,0.018 -0.018,0.018 -0.017,-0.018 z m 0.07,0.071 0.018,0.017 -0.018,0.018 -0.017,-0.018 z"
         style="fill:#79db75;fill-rule:nonzero"
         id="path10686" /><path
         d="M 0.616,-0.614 0.599,-0.597 0.581,-0.614 0.599,-0.632 Z m -0.035,0.07 0.018,-0.018 0.017,0.018 -0.017,0.018 z m -0.07,-0.07 0.018,-0.018 0.017,0.018 -0.017,0.017 z"
         style="fill:#f2f2f2;fill-rule:nonzero"
         id="path10688" /><path
         d="M 1.178,0.091 C 1.178,0.098 1.176,0.104 1.174,0.11 1.171,0.116 1.168,0.121 1.163,0.126 1.159,0.13 1.153,0.134 1.147,0.136 1.141,0.139 1.135,0.14 1.128,0.14 1.114,0.14 1.103,0.135 1.093,0.126 L 0.806,-0.161 c -0.009,-0.01 -0.014,-0.021 -0.014,-0.035 0,-0.014 0.005,-0.026 0.014,-0.035 0.01,-0.01 0.021,-0.015 0.035,-0.015 0.014,0 0.026,0.005 0.035,0.015 l 0.287,0.287 c 0.01,0.009 0.015,0.021 0.015,0.035 z"
         style="fill:#d8b094;fill-rule:nonzero"
         id="path10690" /><path
         d="M 0.792,-0.439 0.774,-0.421 0.757,-0.439 0.774,-0.457 Z m -0.105,0 0.017,-0.018 0.018,0.018 -0.018,0.018 z m 0.07,0.07 0.017,-0.017 0.018,0.017 -0.018,0.018 z"
         style="fill:#79db75;fill-rule:nonzero"
         id="path10692" /></g></g></svg>
