<?xml version="1.0" encoding="UTF-8" standalone="no"?>
<svg
   width="16.844999"
   height="13.68"
   viewBox="0 0 16.844999 13.68"
   version="1.1"
   xml:space="preserve"
   style="clip-rule:evenodd;fill-rule:evenodd;stroke-linejoin:round;stroke-miterlimit:2"
   id="svg20568"
   sodipodi:docname="emojis.svg"
   xmlns:inkscape="http://www.inkscape.org/namespaces/inkscape"
   xmlns:sodipodi="http://sodipodi.sourceforge.net/DTD/sodipodi-0.dtd"
   xmlns="http://www.w3.org/2000/svg"
   xmlns:svg="http://www.w3.org/2000/svg"><defs
     id="defs20572" /><sodipodi:namedview
     id="namedview20570"
     pagecolor="#505050"
     bordercolor="#eeeeee"
     borderopacity="1"
     inkscape:pageshadow="0"
     inkscape:pageopacity="0"
     inkscape:pagecheckerboard="0" /><g
     transform="matrix(0.24,0,0,0.24,-13.213584,-530.6958)"
     id="g20566"><g
       transform="matrix(62.5,0,0,62.5,47.2441,2261.67)"
       id="g10722"><path
         d="M 0.581,0.105 C 0.539,0.105 0.499,0.1 0.46,0.089 0.421,0.078 0.385,0.062 0.351,0.043 0.318,0.023 0.287,-0.001 0.259,-0.028 0.231,-0.056 0.207,-0.087 0.188,-0.12 0.168,-0.154 0.153,-0.19 0.142,-0.229 0.131,-0.268 0.125,-0.309 0.125,-0.351 0.125,-0.39 0.13,-0.428 0.14,-0.465 0.149,-0.502 0.163,-0.536 0.181,-0.568 0.199,-0.6 0.22,-0.63 0.245,-0.657 0.27,-0.684 0.298,-0.707 0.329,-0.728 0.36,-0.748 0.393,-0.765 0.428,-0.778 0.464,-0.791 0.501,-0.8 0.541,-0.804 c 0.011,-0.002 0.023,-0.002 0.035,-0.003 0.012,0 0.024,0 0.036,0 h 0.02 c 0.018,0 0.034,0.003 0.049,0.009 0.015,0.007 0.028,0.015 0.039,0.026 0.011,0.011 0.02,0.024 0.027,0.039 0.006,0.015 0.009,0.031 0.009,0.048 0,0.025 -0.001,0.049 -0.005,0.073 -0.003,0.025 -0.009,0.049 -0.016,0.072 0.011,-0.005 0.024,-0.011 0.04,-0.018 0.015,-0.007 0.031,-0.013 0.048,-0.018 0.016,-0.006 0.033,-0.011 0.049,-0.015 0.016,-0.004 0.03,-0.006 0.043,-0.006 0.022,0 0.043,0.006 0.063,0.018 0.023,-0.013 0.045,-0.023 0.066,-0.03 0.021,-0.008 0.042,-0.013 0.062,-0.016 0.021,-0.003 0.043,-0.005 0.064,-0.006 0.022,-0.001 0.046,-0.001 0.072,-0.001 h 0.006 v 0.351 H 1.229 c -0.021,0 -0.04,0.001 -0.058,0.001 -0.017,0.001 -0.034,0.003 -0.051,0.006 -0.016,0.003 -0.033,0.008 -0.049,0.015 -0.017,0.007 -0.034,0.017 -0.053,0.03 -0.014,0.05 -0.035,0.095 -0.063,0.135 -0.028,0.041 -0.061,0.077 -0.1,0.106 C 0.817,0.041 0.775,0.064 0.729,0.081 0.682,0.097 0.633,0.105 0.581,0.105 Z"
         style="fill-rule:nonzero"
         id="path10708" /><path
         d="m 0.476,-0.21 -0.07,-0.071 0.175,-0.176 -0.016,0.031 c -0.003,0.006 -0.006,0.012 -0.008,0.018 -0.002,0.006 -0.003,0.011 -0.003,0.015 0,0.009 0.003,0.018 0.01,0.024 0.006,0.007 0.014,0.011 0.024,0.011 0.004,0 0.009,-0.002 0.015,-0.004 0.006,-0.002 0.012,-0.005 0.018,-0.008 l 0.03,-0.016 z"
         style="fill:#ffb900;fill-rule:nonzero"
         id="path10710" /><path
         d="M 0.582,0.035 C 0.546,0.035 0.512,0.031 0.479,0.021 0.446,0.012 0.415,-0.001 0.387,-0.017 0.358,-0.034 0.332,-0.054 0.309,-0.078 0.285,-0.101 0.265,-0.127 0.248,-0.156 0.232,-0.184 0.219,-0.215 0.209,-0.248 0.2,-0.281 0.195,-0.315 0.195,-0.351 c 0,-0.004 0,-0.009 0.001,-0.014 0,-0.004 0,-0.009 0,-0.013 0.004,-0.044 0.014,-0.086 0.031,-0.125 0.017,-0.04 0.041,-0.076 0.072,-0.108 0.005,-0.005 0.011,-0.011 0.017,-0.017 0.006,-0.007 0.012,-0.012 0.018,-0.016 0.005,-0.004 0.011,-0.007 0.017,-0.009 0.006,-0.003 0.012,-0.006 0.017,-0.008 0.036,-0.017 0.071,-0.03 0.107,-0.04 0.036,-0.01 0.074,-0.015 0.113,-0.015 0.007,0 0.014,0.001 0.022,0.003 0.008,0.002 0.015,0.004 0.021,0.005 0.002,0 0.004,0 0.006,0 h 0.007 c 0.006,0.001 0.013,0.002 0.019,0.003 0.007,0.002 0.013,0.003 0.021,0.003 0.001,0.004 0.002,0.008 0.002,0.012 0,0.003 0.001,0.007 0.001,0.011 v 0.007 c 0,0.047 -0.009,0.092 -0.027,0.134 -0.018,0.043 -0.043,0.081 -0.077,0.114 l -0.052,0.052 c -0.007,0.008 -0.015,0.014 -0.022,0.018 -0.007,0.005 -0.015,0.01 -0.024,0.016 -0.006,0.003 -0.011,0.008 -0.014,0.013 -0.004,0.005 -0.006,0.011 -0.006,0.019 0,0.01 0.004,0.018 0.011,0.025 0.007,0.007 0.015,0.01 0.025,0.01 0.007,0 0.014,-0.001 0.019,-0.005 0.005,-0.003 0.009,-0.008 0.013,-0.014 0.005,-0.009 0.01,-0.017 0.015,-0.024 0.005,-0.008 0.011,-0.015 0.018,-0.022 0.039,-0.04 0.083,-0.075 0.131,-0.104 0.048,-0.029 0.098,-0.052 0.151,-0.07 0.011,-0.003 0.022,-0.007 0.033,-0.011 0.011,-0.003 0.022,-0.005 0.034,-0.005 v 0.007 c 0,0.019 -0.001,0.042 -0.003,0.067 C 0.91,-0.427 0.907,-0.401 0.904,-0.373 0.9,-0.346 0.896,-0.318 0.891,-0.289 0.885,-0.261 0.879,-0.233 0.873,-0.207 0.866,-0.18 0.859,-0.155 0.85,-0.132 0.842,-0.109 0.833,-0.089 0.824,-0.073 0.818,-0.062 0.811,-0.053 0.803,-0.043 0.796,-0.034 0.787,-0.026 0.777,-0.02 0.763,-0.01 0.748,-0.002 0.732,0.004 0.716,0.011 0.7,0.017 0.683,0.021 0.666,0.026 0.649,0.029 0.632,0.032 0.615,0.034 0.598,0.035 0.582,0.035 Z"
         style="fill:#ffc83d;fill-rule:nonzero"
         id="path10712" /><path
         d="m 0.915,-0.526 c 0.006,0 0.013,0.001 0.019,0.004 0.007,0.003 0.012,0.006 0.017,0.011 0.005,0.005 0.009,0.01 0.012,0.016 0.003,0.007 0.004,0.013 0.004,0.02 v 0.112 c 0,0.035 -0.004,0.069 -0.013,0.102 -0.009,0.033 -0.021,0.065 -0.037,0.094 -0.017,0.03 -0.037,0.057 -0.06,0.082 -0.024,0.025 -0.051,0.047 -0.08,0.065 0.016,-0.017 0.029,-0.036 0.04,-0.057 0.011,-0.02 0.02,-0.042 0.026,-0.065 0.007,-0.022 0.011,-0.046 0.014,-0.069 0.003,-0.024 0.005,-0.047 0.005,-0.07 v -0.193 c 0,-0.007 0.001,-0.014 0.004,-0.02 0.003,-0.007 0.007,-0.012 0.011,-0.017 0.005,-0.005 0.011,-0.008 0.017,-0.011 0.007,-0.003 0.013,-0.004 0.021,-0.004 z M 0.683,-0.702 c -0.003,0.01 -0.01,0.019 -0.019,0.025 -0.009,0.007 -0.019,0.01 -0.03,0.01 -0.018,0 -0.036,0 -0.053,0 -0.018,-0.001 -0.035,-0.001 -0.053,-0.001 -0.032,0 -0.064,0.001 -0.096,0.004 C 0.4,-0.661 0.368,-0.654 0.335,-0.644 0.353,-0.659 0.369,-0.67 0.383,-0.678 0.397,-0.686 0.411,-0.693 0.425,-0.697 0.438,-0.701 0.453,-0.705 0.469,-0.708 0.485,-0.71 0.503,-0.714 0.525,-0.718 0.532,-0.72 0.54,-0.721 0.548,-0.722 0.555,-0.723 0.563,-0.724 0.571,-0.725 l 0.016,0.001 h 0.005 c 0.001,0 0.002,0 0.004,-0.001 l 0.038,-0.012 c 0.001,-0.001 0.002,-0.001 0.004,-0.001 0.003,0 0.006,0.001 0.01,0.003 0.004,0.001 0.008,0.003 0.011,0.005 0.004,0.002 0.007,0.005 0.01,0.007 0.003,0.003 0.005,0.005 0.007,0.007 0.001,0.002 0.003,0.004 0.004,0.007 0.001,0.002 0.002,0.004 0.003,0.007 z"
         style="fill:#ffd679;fill-rule:nonzero"
         id="path10714" /><path
         d="m 0.932,-0.351 c 0,0.031 -0.003,0.062 -0.01,0.091 C 0.915,-0.231 0.905,-0.202 0.893,-0.175 0.88,-0.148 0.865,-0.122 0.847,-0.097 0.83,-0.073 0.81,-0.05 0.788,-0.028 0.812,-0.053 0.833,-0.079 0.849,-0.107 0.866,-0.136 0.878,-0.167 0.887,-0.2 0.889,-0.205 0.891,-0.213 0.894,-0.222 0.897,-0.231 0.9,-0.241 0.903,-0.251 0.906,-0.261 0.909,-0.271 0.911,-0.281 0.914,-0.29 0.915,-0.297 0.915,-0.302 V -0.305 C 0.914,-0.31 0.913,-0.318 0.911,-0.329 0.909,-0.34 0.907,-0.353 0.905,-0.365 0.903,-0.378 0.901,-0.39 0.899,-0.4 0.898,-0.411 0.897,-0.418 0.897,-0.421 v -0.053 c 0,-0.005 0.002,-0.009 0.005,-0.012 0.004,-0.004 0.008,-0.005 0.013,-0.005 0.004,0 0.008,0.001 0.012,0.005 0.003,0.003 0.005,0.007 0.005,0.012 z M 0.398,-0.687 C 0.429,-0.703 0.46,-0.715 0.492,-0.724 0.524,-0.733 0.558,-0.737 0.593,-0.737 h 0.041 c 0.004,0 0.008,0.001 0.012,0.005 0.004,0.004 0.005,0.008 0.005,0.012 0,0.005 -0.001,0.009 -0.005,0.013 -0.003,0.003 -0.007,0.005 -0.012,0.005 H 0.476 c -0.014,0 -0.027,0.001 -0.04,0.004 -0.013,0.003 -0.026,0.007 -0.038,0.011 z"
         style="fill:#d48c00;fill-rule:nonzero"
         id="path10716" /><path
         d="m 0.897,-0.421 c 0.018,-0.022 0.037,-0.041 0.058,-0.058 0.021,-0.017 0.043,-0.032 0.067,-0.044 0.024,-0.012 0.049,-0.022 0.075,-0.029 0.026,-0.006 0.053,-0.01 0.081,-0.01 v 0.211 c -0.045,0 -0.087,0.008 -0.127,0.025 -0.041,0.017 -0.077,0.04 -0.11,0.07 -0.008,0.007 -0.016,0.015 -0.023,0.022 -0.006,0.008 -0.014,0.016 -0.021,0.024 l -0.01,0.01 c 0.007,-0.027 0.01,-0.053 0.01,-0.081 z"
         style="fill:#f2f2f2;fill-rule:nonzero"
         id="path10718" /><path
         d="m 0.81,-0.351 c 0.004,0 0.008,0.002 0.012,0.005 0.003,0.004 0.005,0.008 0.005,0.013 0,0.004 -0.002,0.008 -0.005,0.012 -0.004,0.003 -0.008,0.005 -0.012,0.005 -0.005,0 -0.009,-0.002 -0.013,-0.005 -0.003,-0.003 -0.005,-0.008 -0.005,-0.012 0,-0.005 0.002,-0.01 0.005,-0.013 0.004,-0.003 0.008,-0.005 0.013,-0.005 z m -0.071,-0.07 c 0.005,0 0.009,0.001 0.013,0.005 0.003,0.003 0.005,0.007 0.005,0.012 0,0.005 -0.002,0.009 -0.005,0.013 -0.004,0.003 -0.008,0.005 -0.013,0.005 -0.005,0 -0.009,-0.002 -0.012,-0.005 -0.004,-0.004 -0.005,-0.008 -0.005,-0.013 0,-0.005 0.001,-0.009 0.005,-0.012 0.003,-0.004 0.007,-0.005 0.012,-0.005 z m 0.071,0 c 0.004,0 0.008,0.001 0.012,0.005 0.003,0.004 0.005,0.008 0.005,0.012 0,0.005 -0.002,0.009 -0.005,0.012 -0.004,0.004 -0.008,0.006 -0.012,0.006 -0.005,0 -0.009,-0.002 -0.013,-0.005 -0.003,-0.004 -0.005,-0.008 -0.005,-0.013 0,-0.005 0.002,-0.009 0.005,-0.012 0.004,-0.004 0.008,-0.005 0.013,-0.005 z"
         style="fill:#eba300;fill-rule:nonzero"
         id="path10720" /></g></g></svg>
