<?xml version="1.0" encoding="UTF-8" standalone="no"?>
<svg
   width="16.844999"
   height="16.844999"
   viewBox="0 0 16.844999 16.844999"
   version="1.1"
   xml:space="preserve"
   style="clip-rule:evenodd;fill-rule:evenodd;stroke-linejoin:round;stroke-miterlimit:2"
   id="svg20568"
   sodipodi:docname="emojis.svg"
   xmlns:inkscape="http://www.inkscape.org/namespaces/inkscape"
   xmlns:sodipodi="http://sodipodi.sourceforge.net/DTD/sodipodi-0.dtd"
   xmlns="http://www.w3.org/2000/svg"
   xmlns:svg="http://www.w3.org/2000/svg"><defs
     id="defs20572" /><sodipodi:namedview
     id="namedview20570"
     pagecolor="#505050"
     bordercolor="#eeeeee"
     borderopacity="1"
     inkscape:pageshadow="0"
     inkscape:pageopacity="0"
     inkscape:pagecheckerboard="0" /><g
     transform="matrix(0.24,0,0,0.24,-33.8094,-529.1058)"
     id="g20566"><g
       transform="matrix(62.5,0,0,62.5,133.06,2261.67)"
       id="g10744"><path
         d="M 0.272,0.21 0.196,-0.406 C 0.196,-0.407 0.195,-0.411 0.193,-0.417 0.191,-0.424 0.188,-0.432 0.185,-0.442 0.182,-0.451 0.178,-0.462 0.175,-0.473 0.171,-0.484 0.167,-0.495 0.164,-0.505 0.16,-0.515 0.157,-0.523 0.155,-0.531 0.152,-0.538 0.151,-0.543 0.15,-0.545 L 0.196,-0.592 0.134,-0.715 C 0.128,-0.728 0.125,-0.741 0.125,-0.754 c 0,-0.012 0.002,-0.024 0.007,-0.035 0.004,-0.01 0.011,-0.02 0.018,-0.028 0.008,-0.008 0.017,-0.014 0.028,-0.018 0.011,-0.005 0.022,-0.007 0.034,-0.007 0.009,0 0.019,0.001 0.028,0.004 0.008,0.003 0.017,0.008 0.024,0.013 0,-0.012 0.003,-0.023 0.007,-0.034 0.005,-0.01 0.011,-0.019 0.019,-0.027 0.008,-0.008 0.017,-0.015 0.028,-0.02 0.01,-0.004 0.022,-0.007 0.034,-0.007 0.01,0 0.019,0.002 0.028,0.005 0.009,0.004 0.018,0.008 0.025,0.014 0.008,0.006 0.014,0.013 0.019,0.021 0.006,0.009 0.009,0.018 0.012,0.027 l 0.027,0.109 h 0.179 l 0.024,0.024 0.023,-0.024 h 0.406 l 0.153,0.154 -0.029,0.117 -0.008,0.029 C 1.21,-0.433 1.208,-0.428 1.208,-0.424 1.207,-0.419 1.206,-0.414 1.205,-0.408 1.202,-0.388 1.199,-0.37 1.197,-0.353 1.195,-0.337 1.193,-0.321 1.191,-0.305 L 1.179,-0.202 1.128,0.21 Z"
         style="fill-rule:nonzero"
         id="path10724" /><path
         d="M 0.827,-0.421 0.488,-0.301 0.266,-0.421 0.23,-0.526 0.335,-0.632 h 0.106 l 0.035,-0.035 h 0.14 l 0.035,0.035 h 0.036 l 0.105,0.106 z"
         style="fill:#cccccc;fill-rule:nonzero"
         id="path10726" /><path
         d="M 0.458,-0.386 C 0.455,-0.386 0.451,-0.387 0.448,-0.39 0.444,-0.392 0.442,-0.396 0.441,-0.399 0.44,-0.404 0.438,-0.413 0.434,-0.428 L 0.404,-0.547 C 0.398,-0.572 0.391,-0.597 0.385,-0.622 0.379,-0.647 0.372,-0.671 0.366,-0.695 0.36,-0.719 0.355,-0.74 0.351,-0.759 0.346,-0.777 0.342,-0.793 0.34,-0.804 0.337,-0.816 0.335,-0.823 0.335,-0.825 c 0,-0.004 0.002,-0.008 0.006,-0.012 0.003,-0.003 0.007,-0.005 0.012,-0.005 0.004,0 0.008,0.001 0.011,0.003 0.003,0.003 0.005,0.006 0.006,0.01 0.001,0.004 0.004,0.014 0.007,0.028 l 0.031,0.12 c 0.006,0.024 0.012,0.049 0.019,0.074 0.006,0.025 0.012,0.05 0.018,0.073 0.006,0.024 0.011,0.045 0.016,0.064 0.004,0.019 0.008,0.034 0.011,0.046 0.003,0.012 0.004,0.019 0.004,0.02 0,0.005 -0.002,0.009 -0.005,0.013 -0.003,0.003 -0.008,0.005 -0.013,0.005 z m -0.07,0 c -0.007,0 -0.012,-0.003 -0.015,-0.01 L 0.197,-0.747 C 0.196,-0.749 0.195,-0.752 0.195,-0.755 c 0,-0.004 0.002,-0.008 0.005,-0.012 0.003,-0.003 0.008,-0.005 0.012,-0.005 0.004,0 0.007,0.001 0.01,0.002 0.003,0.002 0.005,0.004 0.007,0.007 l 0.175,0.351 c 0.001,0.003 0.002,0.005 0.002,0.008 0,0.005 -0.002,0.009 -0.006,0.013 -0.003,0.003 -0.007,0.005 -0.012,0.005 z"
         style="fill:#bb9167;fill-rule:nonzero"
         id="path10728" /><path
         d="M 0.335,0.14 0.331,0.105 0.364,0.07 0.322,0.035 0.278,-0.316 0.3,-0.344 0.27,-0.386 0.266,-0.421 h 0.315 l 0.11,0.25 -0.04,0.311 z"
         style="fill:#e5e5e5;fill-rule:nonzero"
         id="path10730" /><path
         d="M 0.638,0.035 0.687,0.07 0.647,0.105 H 0.331 L 0.322,0.035 Z M 0.622,-0.35 0.594,-0.316 H 0.278 L 0.27,-0.386 h 0.315 z"
         style="fill:#af0d1a;fill-rule:nonzero"
         id="path10732" /><path
         d="m 0.511,-0.246 c 0,0.01 0.004,0.018 0.011,0.025 0.007,0.007 0.015,0.011 0.024,0.011 0.01,0 0.019,0.001 0.028,0.005 0.008,0.004 0.016,0.008 0.022,0.015 0.006,0.006 0.011,0.014 0.015,0.022 0.003,0.008 0.005,0.018 0.005,0.027 H 0.581 C 0.581,-0.15 0.578,-0.158 0.571,-0.165 0.564,-0.172 0.556,-0.176 0.546,-0.176 0.536,-0.176 0.527,-0.178 0.518,-0.181 0.51,-0.185 0.503,-0.19 0.497,-0.196 0.491,-0.202 0.486,-0.209 0.483,-0.218 0.479,-0.227 0.477,-0.236 0.476,-0.246 L 0.467,-0.34 C 0.466,-0.349 0.465,-0.357 0.464,-0.363 0.463,-0.369 0.463,-0.377 0.463,-0.387 c 0,-0.01 0.002,-0.02 0.006,-0.03 0.004,-0.009 0.01,-0.018 0.018,-0.025 0.007,-0.008 0.015,-0.014 0.025,-0.018 0.009,-0.005 0.019,-0.007 0.03,-0.007 0.004,0 0.01,0 0.017,0.001 0.006,0.001 0.013,0.002 0.02,0.003 0.006,0.001 0.013,0.002 0.02,0.004 0.007,0.001 0.012,0.002 0.017,0.002 v 0.036 h -0.07 c -0.009,0 -0.018,0.003 -0.025,0.01 -0.006,0.007 -0.01,0.015 -0.01,0.025 z"
         style="fill:#ffc83d;fill-rule:nonzero"
         id="path10734" /><path
         d="m 0.546,-0.491 c 0.008,0 0.017,0.001 0.026,0.003 0.008,0.002 0.016,0.005 0.024,0.009 l 0.016,0.028 -0.025,0.008 C 0.581,-0.448 0.574,-0.451 0.567,-0.453 0.561,-0.455 0.553,-0.457 0.546,-0.457 c -0.01,0 -0.019,0.002 -0.027,0.006 -0.009,0.004 -0.016,0.009 -0.023,0.015 -0.006,0.007 -0.011,0.014 -0.015,0.022 -0.003,0.009 -0.005,0.018 -0.005,0.028 v 0.14 c 0,0.01 -0.002,0.019 -0.006,0.028 C 0.467,-0.21 0.462,-0.202 0.455,-0.196 0.449,-0.19 0.442,-0.185 0.433,-0.181 0.425,-0.178 0.416,-0.176 0.406,-0.176 V -0.21 c 0.009,0 0.017,-0.004 0.024,-0.011 0.007,-0.007 0.011,-0.015 0.011,-0.025 v -0.14 c 0,-0.015 0.003,-0.029 0.008,-0.041 0.006,-0.013 0.013,-0.024 0.023,-0.033 0.009,-0.01 0.02,-0.017 0.033,-0.023 0.013,-0.005 0.026,-0.008 0.041,-0.008 z"
         style="fill:#ffd679;fill-rule:nonzero"
         id="path10736" /><path
         d="M 0.651,0.14 0.647,0.105 0.675,0.07 0.638,0.035 0.594,-0.316 0.629,-0.351 0.585,-0.386 0.581,-0.421 l 0.281,-0.1 0.281,0.1 -0.005,0.035 -0.041,0.035 0.032,0.035 L 1.086,0.035 1.051,0.07 1.077,0.105 1.073,0.14 Z"
         style="fill:#f2f2f2;fill-rule:nonzero"
         id="path10738" /><path
         d="m 0.581,-0.421 0.035,-0.141 0.106,-0.105 h 0.351 l 0.105,0.105 -0.035,0.141 z"
         style="fill:#e5e5e5;fill-rule:nonzero"
         id="path10740" /><path
         d="M 1.129,-0.316 H 0.594 L 0.585,-0.386 H 1.138 Z M 1.086,0.035 1.077,0.105 H 0.647 L 0.638,0.035 Z M 1.002,-0.088 C 0.989,-0.072 0.974,-0.059 0.956,-0.05 0.937,-0.04 0.918,-0.035 0.897,-0.035 0.876,-0.035 0.857,-0.04 0.839,-0.05 0.821,-0.059 0.805,-0.072 0.792,-0.088 L 0.897,-0.141 C 0.883,-0.141 0.87,-0.144 0.858,-0.15 0.846,-0.157 0.835,-0.165 0.827,-0.176 L 0.897,-0.21 C 0.89,-0.21 0.884,-0.212 0.878,-0.215 0.872,-0.219 0.866,-0.223 0.862,-0.228 l 0.035,-0.018 0.035,0.018 C 0.928,-0.222 0.922,-0.218 0.916,-0.215 0.91,-0.212 0.904,-0.21 0.897,-0.21 l 0.07,0.034 C 0.958,-0.165 0.948,-0.157 0.936,-0.15 0.924,-0.144 0.911,-0.141 0.897,-0.141 Z"
         style="fill:#e81224;fill-rule:nonzero"
         id="path10742" /></g></g></svg>
