<?xml version="1.0" encoding="UTF-8" standalone="no"?>
<svg
   width="14.73"
   height="16.305"
   viewBox="0 0 14.73 16.305"
   version="1.1"
   xml:space="preserve"
   style="clip-rule:evenodd;fill-rule:evenodd;stroke-linejoin:round;stroke-miterlimit:2"
   id="svg20568"
   sodipodi:docname="emojis.svg"
   xmlns:inkscape="http://www.inkscape.org/namespaces/inkscape"
   xmlns:sodipodi="http://sodipodi.sourceforge.net/DTD/sodipodi-0.dtd"
   xmlns="http://www.w3.org/2000/svg"
   xmlns:svg="http://www.w3.org/2000/svg"><defs
     id="defs20572" /><sodipodi:namedview
     id="namedview20570"
     pagecolor="#505050"
     bordercolor="#eeeeee"
     borderopacity="1"
     inkscape:pageshadow="0"
     inkscape:pageopacity="0"
     inkscape:pagecheckerboard="0" /><g
     transform="matrix(0.24,0,0,0.24,-187.01004,-529.6458)"
     id="g20566"><g
       transform="matrix(62.5,0,0,62.5,771.396,2261.67)"
       id="g10874"><path
         d="M 0.318,0.21 0.243,-0.089 C 0.233,-0.096 0.224,-0.104 0.218,-0.112 0.212,-0.12 0.207,-0.128 0.204,-0.137 0.201,-0.146 0.199,-0.156 0.198,-0.166 0.197,-0.176 0.197,-0.186 0.197,-0.196 v -0.04 C 0.175,-0.25 0.157,-0.27 0.144,-0.293 0.131,-0.316 0.125,-0.342 0.125,-0.369 c 0,-0.017 0.003,-0.033 0.008,-0.048 0.005,-0.016 0.012,-0.031 0.022,-0.044 0.009,-0.013 0.021,-0.024 0.034,-0.034 0.013,-0.01 0.027,-0.018 0.043,-0.024 C 0.235,-0.534 0.239,-0.548 0.245,-0.561 0.251,-0.575 0.258,-0.587 0.267,-0.599 0.276,-0.61 0.287,-0.621 0.299,-0.63 0.31,-0.639 0.323,-0.647 0.337,-0.653 0.339,-0.671 0.344,-0.689 0.352,-0.706 0.36,-0.723 0.371,-0.739 0.384,-0.752 0.4,-0.77 0.42,-0.784 0.442,-0.793 0.464,-0.802 0.487,-0.807 0.511,-0.807 h 0.14 v -0.07 h 0.071 c 0.029,0 0.056,0.005 0.081,0.016 0.026,0.011 0.048,0.026 0.067,0.045 0.019,0.019 0.034,0.042 0.046,0.067 0.011,0.026 0.016,0.053 0.016,0.082 0,0.006 0,0.011 -0.001,0.017 0,0.006 -0.001,0.011 -0.001,0.017 0.019,0.013 0.034,0.03 0.047,0.05 0.012,0.02 0.02,0.042 0.023,0.065 0.016,0.005 0.031,0.013 0.044,0.023 0.013,0.01 0.025,0.021 0.034,0.034 0.009,0.013 0.016,0.028 0.022,0.044 0.005,0.015 0.007,0.031 0.007,0.048 0,0.026 -0.006,0.05 -0.017,0.074 -0.012,0.023 -0.029,0.042 -0.05,0.056 v 0.042 c 0,0.01 0,0.02 -0.001,0.03 -10e-4,0.01 -0.003,0.02 -0.007,0.029 -0.003,0.009 -0.007,0.018 -0.013,0.026 -0.007,0.008 -0.015,0.016 -0.025,0.023 L 0.919,0.21 Z"
         style="fill-rule:nonzero"
         id="path10862" /><path
         d="M 0.934,-0.141 H 0.303 c -0.01,0 -0.018,-0.003 -0.025,-0.01 -0.007,-0.007 -0.01,-0.015 -0.01,-0.025 v -0.07 c 0,-0.011 0.003,-0.02 0.01,-0.025 0.006,-0.004 0.015,-0.008 0.025,-0.01 l 0.316,-0.06 0.315,0.06 c 0.01,0.002 0.019,0.006 0.025,0.01 0.007,0.005 0.01,0.014 0.01,0.025 v 0.07 c 0,0.01 -0.003,0.018 -0.01,0.025 -0.007,0.007 -0.015,0.01 -0.025,0.01 z"
         style="fill:#613d30;fill-rule:nonzero"
         id="path10864" /><path
         d="M 0.934,-0.141 0.864,0.14 0.829,0.099 0.794,0.14 H 0.724 L 0.688,0.099 0.653,0.14 H 0.583 L 0.548,0.099 0.513,0.14 H 0.443 L 0.408,0.099 0.373,0.14 0.303,-0.141 0.338,-0.176 0.373,-0.141 h 0.07 l 0.035,-0.035 0.035,0.035 h 0.07 l 0.036,-0.035 0.034,0.035 h 0.071 l 0.035,-0.035 0.035,0.035 h 0.07 l 0.035,-0.035 z"
         style="fill:#00b294;fill-rule:nonzero"
         id="path10866" /><path
         d="m 0.829,-0.176 0.035,0.035 V 0.14 h -0.07 v -0.281 z m -0.141,0 0.036,0.035 V 0.14 H 0.653 v -0.281 z m -0.14,0 0.035,0.035 V 0.14 h -0.07 v -0.281 z m -0.14,0 0.035,0.035 V 0.14 h -0.07 v -0.281 z"
         style="fill:#008272;fill-rule:nonzero"
         id="path10868" /><path
         d="m 1.036,-0.386 c 10e-4,0.006 10e-4,0.011 10e-4,0.017 0,0.013 -0.002,0.024 -0.007,0.035 -0.004,0.01 -0.01,0.02 -0.018,0.028 -0.008,0.008 -0.017,0.014 -0.028,0.018 -0.011,0.005 -0.022,0.007 -0.034,0.007 H 0.283 c -0.013,0 -0.024,-0.002 -0.035,-0.007 l -0.007,-0.069 0.076,-0.092 0.037,-0.106 0.073,-0.02 0.008,-0.098 0.263,-0.033 0.05,-0.048 -0.026,-0.053 c 0.019,0 0.037,0.004 0.054,0.011 0.017,0.007 0.032,0.017 0.045,0.03 0.012,0.013 0.023,0.027 0.03,0.045 0.007,0.017 0.011,0.035 0.011,0.054 0,0.026 -0.007,0.049 -0.02,0.071 l 0.084,0.07 c 0.003,0.007 0.005,0.015 0.006,0.025 0.001,0.009 0.001,0.018 0.001,0.028 l -0.001,0.047 z"
         style="fill:#e6808a;fill-rule:nonzero"
         id="path10870" /><path
         d="M 0.335,-0.457 H 0.95 c 0.01,0 0.02,0.002 0.029,0.006 0.01,0.003 0.018,0.008 0.026,0.014 0.008,0.007 0.014,0.014 0.02,0.023 0.005,0.008 0.009,0.018 0.011,0.028 H 0.353 c -0.014,0 -0.027,0.002 -0.039,0.007 -0.012,0.005 -0.023,0.012 -0.033,0.021 -0.009,0.009 -0.017,0.019 -0.023,0.031 -0.006,0.012 -0.009,0.025 -0.01,0.039 C 0.232,-0.295 0.219,-0.306 0.209,-0.32 0.2,-0.335 0.195,-0.351 0.195,-0.369 c 0,-0.012 0.003,-0.023 0.007,-0.034 0.005,-0.011 0.011,-0.02 0.019,-0.028 0.008,-0.008 0.017,-0.014 0.028,-0.019 0.01,-0.004 0.022,-0.007 0.034,-0.007 H 0.3 V -0.479 C 0.3,-0.487 0.301,-0.495 0.301,-0.503 0.302,-0.511 0.304,-0.519 0.307,-0.526 0.315,-0.55 0.329,-0.568 0.347,-0.579 0.366,-0.591 0.388,-0.597 0.412,-0.597 0.41,-0.602 0.408,-0.608 0.407,-0.614 0.406,-0.62 0.406,-0.626 0.406,-0.632 0.406,-0.646 0.409,-0.66 0.414,-0.673 0.42,-0.686 0.427,-0.697 0.437,-0.707 0.446,-0.716 0.458,-0.723 0.47,-0.729 0.483,-0.735 0.497,-0.737 0.511,-0.737 h 0.176 c 0.007,0 0.014,-0.002 0.018,-0.005 0.005,-0.003 0.009,-0.007 0.011,-0.012 0.003,-0.005 0.004,-0.01 0.005,-0.016 0,-0.006 0.001,-0.012 0.001,-0.019 v -0.017 l 0.001,0.001 c 0.011,0.006 0.019,0.015 0.025,0.025 0.006,0.011 0.009,0.022 0.009,0.034 0,0.011 -0.002,0.021 -0.006,0.031 C 0.748,-0.706 0.742,-0.698 0.735,-0.69 0.728,-0.683 0.72,-0.678 0.71,-0.673 0.701,-0.669 0.691,-0.667 0.68,-0.667 H 0.511 c -0.01,0 -0.019,0.002 -0.027,0.006 -0.009,0.003 -0.016,0.008 -0.023,0.015 -0.006,0.006 -0.011,0.014 -0.015,0.022 -0.003,0.008 -0.005,0.018 -0.005,0.027 h 0.386 c 0.011,0 0.021,0.002 0.032,0.005 0.01,0.004 0.02,0.009 0.028,0.015 0.009,0.006 0.017,0.013 0.023,0.022 0.007,0.008 0.012,0.018 0.016,0.029 h -0.52 c -0.01,0 -0.019,0.001 -0.028,0.005 C 0.37,-0.517 0.363,-0.512 0.356,-0.506 0.35,-0.5 0.345,-0.492 0.341,-0.484 0.337,-0.475 0.335,-0.466 0.335,-0.457 Z"
         style="fill:#f4abba;fill-rule:nonzero"
         id="path10872" /></g></g></svg>
