<?xml version="1.0" encoding="UTF-8" standalone="no"?>
<svg
   width="16.844999"
   height="15.255"
   viewBox="0 0 16.844999 15.255"
   version="1.1"
   xml:space="preserve"
   style="clip-rule:evenodd;fill-rule:evenodd;stroke-linejoin:round;stroke-miterlimit:2"
   id="svg20568"
   sodipodi:docname="emojis.svg"
   xmlns:inkscape="http://www.inkscape.org/namespaces/inkscape"
   xmlns:sodipodi="http://sodipodi.sourceforge.net/DTD/sodipodi-0.dtd"
   xmlns="http://www.w3.org/2000/svg"
   xmlns:svg="http://www.w3.org/2000/svg"><defs
     id="defs20572" /><sodipodi:namedview
     id="namedview20570"
     pagecolor="#505050"
     bordercolor="#eeeeee"
     borderopacity="1"
     inkscape:pageshadow="0"
     inkscape:pageopacity="0"
     inkscape:pagecheckerboard="0" /><g
     transform="matrix(0.24,0,0,0.24,-105.67452,-530.1708)"
     id="g20566"><g
       transform="matrix(62.5,0,0,62.5,432.498,2261.67)"
       id="g10808"><path
         d="M 0.687,0.175 C 0.649,0.175 0.612,0.173 0.576,0.167 0.54,0.162 0.504,0.153 0.468,0.142 0.439,0.133 0.411,0.122 0.383,0.108 0.355,0.094 0.328,0.078 0.302,0.061 0.277,0.043 0.253,0.023 0.232,0.001 0.21,-0.021 0.191,-0.045 0.176,-0.07 0.16,-0.096 0.147,-0.123 0.138,-0.152 0.129,-0.182 0.125,-0.213 0.125,-0.246 v -0.175 c 0,-0.033 0.004,-0.064 0.013,-0.093 C 0.147,-0.543 0.16,-0.571 0.176,-0.597 0.192,-0.622 0.211,-0.646 0.232,-0.668 0.254,-0.69 0.277,-0.71 0.303,-0.728 0.328,-0.745 0.355,-0.761 0.383,-0.775 0.411,-0.789 0.44,-0.8 0.468,-0.809 0.504,-0.82 0.54,-0.829 0.576,-0.834 0.612,-0.84 0.649,-0.842 0.687,-0.842 c 0.037,0 0.074,0.002 0.11,0.008 0.036,0.005 0.072,0.014 0.108,0.025 0.028,0.009 0.057,0.021 0.085,0.034 0.028,0.014 0.055,0.03 0.08,0.047 0.026,0.018 0.049,0.038 0.071,0.06 0.022,0.022 0.04,0.046 0.056,0.071 0.016,0.026 0.029,0.054 0.038,0.083 0.009,0.029 0.013,0.06 0.013,0.093 v 0.175 c 0,0.033 -0.004,0.064 -0.013,0.094 C 1.226,-0.123 1.213,-0.096 1.198,-0.07 1.182,-0.045 1.163,-0.021 1.141,0.001 1.12,0.023 1.096,0.043 1.071,0.061 1.045,0.078 1.018,0.094 0.99,0.108 0.962,0.122 0.933,0.133 0.905,0.142 0.869,0.153 0.833,0.162 0.797,0.167 0.761,0.173 0.724,0.175 0.687,0.175 Z"
         style="fill-rule:nonzero"
         id="path10796" /><path
         d="m 0.687,-0.772 c 0.034,0 0.068,0.003 0.102,0.008 0.034,0.005 0.068,0.013 0.101,0.023 0.035,0.012 0.07,0.027 0.104,0.047 0.035,0.019 0.065,0.042 0.093,0.069 0.027,0.027 0.049,0.058 0.066,0.092 0.016,0.034 0.025,0.071 0.025,0.112 v 0.035 c 0,0.009 -10e-4,0.018 -0.002,0.027 -0.002,0.008 -0.003,0.017 -0.004,0.026 0,0.007 -10e-4,0.014 -10e-4,0.021 0,0.007 0,0.014 0,0.02 0,0.014 -0.001,0.025 -0.003,0.036 -10e-4,0.011 -0.004,0.022 -0.007,0.032 -0.004,0.01 -0.008,0.02 -0.013,0.03 -0.005,0.009 -0.011,0.02 -0.018,0.03 C 1.106,-0.128 1.078,-0.097 1.045,-0.07 1.012,-0.044 0.976,-0.022 0.937,-0.005 0.899,0.012 0.858,0.025 0.816,0.033 0.774,0.041 0.732,0.045 0.691,0.045 0.651,0.045 0.611,0.042 0.57,0.034 0.529,0.026 0.49,0.015 0.452,-0.001 0.414,-0.017 0.378,-0.037 0.345,-0.061 0.312,-0.085 0.283,-0.114 0.259,-0.146 0.254,-0.154 0.248,-0.161 0.243,-0.17 0.238,-0.178 0.233,-0.187 0.229,-0.196 0.224,-0.205 0.22,-0.214 0.216,-0.223 0.213,-0.232 0.21,-0.241 0.208,-0.25 0.206,-0.263 0.204,-0.277 0.204,-0.291 0.203,-0.305 0.202,-0.319 0.201,-0.333 0.199,-0.347 0.198,-0.362 0.197,-0.377 0.196,-0.392 0.195,-0.406 0.195,-0.421 c 0,-0.041 0.009,-0.078 0.025,-0.112 0.017,-0.034 0.039,-0.065 0.066,-0.092 0.028,-0.027 0.058,-0.05 0.093,-0.069 0.034,-0.02 0.069,-0.035 0.104,-0.047 0.033,-0.01 0.067,-0.018 0.101,-0.023 0.034,-0.005 0.068,-0.008 0.103,-0.008 z"
         style="fill:#8e562e;fill-rule:nonzero"
         id="path10798" /><path
         d="m 1.172,-0.333 c 0.003,0.012 0.005,0.024 0.005,0.037 0,0.012 10e-4,0.025 10e-4,0.038 v 0.012 c 0,0.028 -0.004,0.054 -0.012,0.078 C 1.158,-0.144 1.147,-0.121 1.134,-0.1 1.12,-0.078 1.104,-0.059 1.085,-0.041 1.066,-0.022 1.046,-0.006 1.025,0.009 1.003,0.023 0.98,0.036 0.957,0.047 0.933,0.058 0.909,0.068 0.885,0.075 0.853,0.085 0.82,0.093 0.787,0.098 0.754,0.103 0.72,0.105 0.687,0.105 0.653,0.105 0.619,0.103 0.586,0.098 0.553,0.093 0.52,0.085 0.488,0.075 0.464,0.068 0.44,0.058 0.417,0.047 0.393,0.036 0.37,0.023 0.348,0.009 0.327,-0.006 0.307,-0.022 0.288,-0.041 0.269,-0.059 0.253,-0.078 0.239,-0.1 0.226,-0.121 0.215,-0.144 0.207,-0.168 0.199,-0.192 0.195,-0.218 0.195,-0.246 v -0.012 c 0,-0.013 0.001,-0.026 0.001,-0.038 0.001,-0.013 0.002,-0.025 0.005,-0.037 0.007,0.035 0.021,0.067 0.04,0.096 0.02,0.029 0.044,0.055 0.071,0.077 0.027,0.023 0.056,0.043 0.088,0.059 0.032,0.016 0.065,0.029 0.097,0.039 0.031,0.009 0.062,0.016 0.094,0.02 0.031,0.005 0.063,0.007 0.096,0.007 0.032,0 0.064,-0.002 0.095,-0.007 0.032,-0.004 0.063,-0.011 0.094,-0.02 0.033,-0.01 0.065,-0.023 0.097,-0.039 0.032,-0.016 0.062,-0.036 0.089,-0.059 0.027,-0.022 0.05,-0.048 0.07,-0.077 0.019,-0.029 0.033,-0.061 0.04,-0.096 z M 0.636,-0.355 C 0.618,-0.355 0.602,-0.357 0.585,-0.36 0.568,-0.363 0.552,-0.366 0.535,-0.368 0.528,-0.375 0.522,-0.383 0.518,-0.392 0.513,-0.401 0.511,-0.411 0.511,-0.421 c 0,-0.013 0.003,-0.025 0.009,-0.035 0.006,-0.01 0.014,-0.019 0.023,-0.027 0.01,-0.007 0.021,-0.014 0.033,-0.019 0.013,-0.006 0.025,-0.011 0.038,-0.014 0.013,-0.004 0.026,-0.006 0.039,-0.008 0.012,-0.002 0.023,-0.002 0.034,-0.002 0.01,0 0.021,0 0.033,0.002 0.013,0.002 0.026,0.004 0.039,0.008 0.013,0.003 0.026,0.008 0.038,0.014 0.012,0.005 0.023,0.012 0.033,0.019 0.009,0.008 0.017,0.017 0.023,0.027 0.006,0.01 0.009,0.022 0.009,0.035 0,0.01 -0.002,0.02 -0.007,0.029 -0.004,0.009 -0.01,0.017 -0.017,0.024 -0.012,0.001 -0.024,0.002 -0.036,0.004 -0.012,0.001 -0.024,0.002 -0.036,0.002 -0.015,0 -0.03,0.001 -0.045,0.003 -0.014,0.002 -0.029,0.003 -0.044,0.003 z"
         style="fill:#eba300;fill-rule:nonzero"
         id="path10800" /><path
         d="M 0.687,-0.316 C 0.673,-0.316 0.66,-0.317 0.646,-0.319 0.632,-0.32 0.618,-0.323 0.605,-0.328 0.592,-0.332 0.58,-0.337 0.568,-0.344 0.556,-0.351 0.545,-0.359 0.535,-0.368 c 0.009,-0.01 0.02,-0.018 0.032,-0.025 0.012,-0.006 0.025,-0.012 0.038,-0.016 0.013,-0.004 0.027,-0.008 0.041,-0.009 0.014,-0.002 0.027,-0.003 0.041,-0.003 0.013,0 0.026,0.001 0.04,0.003 0.014,0.001 0.027,0.005 0.04,0.009 0.014,0.004 0.026,0.01 0.038,0.016 0.012,0.007 0.023,0.015 0.033,0.025 -0.01,0.009 -0.021,0.017 -0.033,0.024 -0.012,0.007 -0.024,0.012 -0.038,0.016 -0.013,0.005 -0.026,0.008 -0.04,0.009 -0.014,0.002 -0.027,0.003 -0.04,0.003 z"
         style="fill:#ffffff;fill-rule:nonzero"
         id="path10802" /><path
         d="m 0.44,-0.193 c 0,-0.005 0.002,-0.009 0.006,-0.013 l 0.035,-0.035 c 0.003,-0.003 0.007,-0.005 0.012,-0.005 0.005,0 0.009,0.002 0.013,0.006 0.003,0.003 0.005,0.007 0.005,0.012 0,0.005 -0.002,0.009 -0.005,0.012 L 0.471,-0.181 C 0.467,-0.177 0.463,-0.176 0.458,-0.176 0.454,-0.176 0.449,-0.177 0.446,-0.181 0.442,-0.184 0.44,-0.188 0.44,-0.193 Z m 0.018,-0.369 c -0.004,0 -0.009,-10e-4 -0.012,-0.005 L 0.411,-0.602 C 0.407,-0.606 0.405,-0.61 0.405,-0.614 c 0,-0.005 0.002,-0.009 0.006,-0.012 0.003,-0.004 0.007,-0.005 0.012,-0.005 0.005,0 0.009,0.001 0.013,0.005 l 0.035,0.034 c 0.003,0.003 0.005,0.008 0.005,0.013 0,0.004 -0.002,0.009 -0.006,0.012 -0.003,0.004 -0.007,0.005 -0.012,0.005 z m 0.457,0.036 c -0.005,0 -0.009,-0.002 -0.013,-0.006 L 0.867,-0.567 C 0.864,-0.57 0.862,-0.575 0.862,-0.579 c 0,-0.005 0.002,-0.009 0.005,-0.012 0.004,-0.004 0.008,-0.006 0.012,-0.006 0.006,0 0.01,0.002 0.013,0.005 l 0.035,0.035 c 0.004,0.004 0.005,0.008 0.005,0.013 0,0.005 -0.002,0.009 -0.005,0.012 -0.004,0.004 -0.008,0.006 -0.012,0.006 z m 0.035,0.245 c 0.005,0 0.009,0.002 0.012,0.005 0.003,0.004 0.005,0.008 0.005,0.013 0,0.005 -0.002,0.009 -0.005,0.012 L 0.927,-0.216 C 0.924,-0.212 0.919,-0.21 0.915,-0.21 0.91,-0.21 0.906,-0.212 0.902,-0.216 0.899,-0.219 0.897,-0.223 0.897,-0.228 c 0,-0.005 0.002,-0.009 0.005,-0.013 L 0.937,-0.276 C 0.941,-0.279 0.945,-0.281 0.95,-0.281 Z"
         style="fill:#31d2f7;fill-rule:nonzero"
         id="path10804" /><path
         d="m 1.055,-0.456 c 0.005,0 0.009,0.002 0.012,0.005 l 0.036,0.035 c 0.003,0.003 0.004,0.007 0.004,0.013 0,0.004 -10e-4,0.008 -0.005,0.012 -0.003,0.003 -0.007,0.005 -0.012,0.005 -0.005,0 -0.009,-0.002 -0.012,-0.005 L 1.042,-0.426 C 1.039,-0.43 1.037,-0.434 1.037,-0.438 c 0,-0.005 0.002,-0.009 0.005,-0.013 0.004,-0.003 0.008,-0.005 0.013,-0.005 z m -0.351,0.281 c 0.005,0 0.009,0.001 0.012,0.005 l 0.035,0.035 c 0.004,0.003 0.005,0.007 0.005,0.012 0,0.005 -0.001,0.009 -0.005,0.012 -0.003,0.004 -0.007,0.006 -0.012,0.006 -0.005,0 -0.009,-0.002 -0.012,-0.005 L 0.691,-0.146 C 0.688,-0.149 0.686,-0.153 0.686,-0.158 c 0,-0.005 0.002,-0.009 0.005,-0.012 0.004,-0.004 0.008,-0.005 0.013,-0.005 z m 0,-0.527 c 0.005,0 0.009,0.002 0.012,0.006 0.003,0.003 0.005,0.007 0.005,0.012 0,0.005 -0.001,0.009 -0.005,0.012 L 0.681,-0.637 C 0.678,-0.633 0.674,-0.632 0.669,-0.632 0.664,-0.632 0.66,-0.634 0.656,-0.637 0.653,-0.64 0.651,-0.645 0.651,-0.649 c 0,-0.005 0.002,-0.009 0.006,-0.013 L 0.691,-0.697 C 0.695,-0.7 0.699,-0.702 0.704,-0.702 Z m -0.439,0.333 c 0,-0.004 0.002,-0.008 0.006,-0.012 l 0.035,-0.035 c 0.003,-0.003 0.007,-0.005 0.012,-0.005 0.005,0 0.009,0.002 0.012,0.005 0.004,0.004 0.005,0.008 0.005,0.013 0,0.005 -0.001,0.009 -0.004,0.012 L 0.295,-0.356 C 0.292,-0.353 0.288,-0.351 0.283,-0.351 0.278,-0.351 0.274,-0.353 0.27,-0.356 0.267,-0.36 0.265,-0.364 0.265,-0.369 Z"
         style="fill:#e6808a;fill-rule:nonzero"
         id="path10806" /></g></g></svg>
