<?xml version="1.0" encoding="UTF-8" standalone="no"?>
<svg
   width="16.844999"
   height="15.255"
   viewBox="0 0 16.844999 15.255"
   version="1.1"
   xml:space="preserve"
   style="clip-rule:evenodd;fill-rule:evenodd;stroke-linejoin:round;stroke-miterlimit:2"
   id="svg20568"
   sodipodi:docname="emojis.svg"
   xmlns:inkscape="http://www.inkscape.org/namespaces/inkscape"
   xmlns:sodipodi="http://sodipodi.sourceforge.net/DTD/sodipodi-0.dtd"
   xmlns="http://www.w3.org/2000/svg"
   xmlns:svg="http://www.w3.org/2000/svg"><defs
     id="defs20572" /><sodipodi:namedview
     id="namedview20570"
     pagecolor="#505050"
     bordercolor="#eeeeee"
     borderopacity="1"
     inkscape:pageshadow="0"
     inkscape:pageopacity="0"
     inkscape:pagecheckerboard="0" /><g
     transform="matrix(0.24,0,0,0.24,-205.50372,-530.1708)"
     id="g20566"><g
       transform="matrix(62.5,0,0,62.5,848.453,2261.67)"
       id="g10892"><path
         d="M 0.687,0.175 C 0.665,0.175 0.641,0.174 0.616,0.172 0.592,0.17 0.566,0.167 0.541,0.163 0.515,0.159 0.489,0.153 0.463,0.146 0.438,0.139 0.413,0.131 0.39,0.12 0.366,0.11 0.344,0.098 0.324,0.084 0.304,0.07 0.286,0.055 0.271,0.037 0.266,0.029 0.261,0.023 0.257,0.016 0.254,0.009 0.25,0.001 0.248,-0.007 L 0.203,-0.142 C 0.18,-0.162 0.162,-0.186 0.147,-0.212 0.132,-0.238 0.125,-0.267 0.125,-0.298 l 0.002,-0.03 c 0,-0.004 0,-0.007 -0.001,-0.011 -0.001,-0.004 -0.001,-0.008 -0.001,-0.012 0,-0.01 0.002,-0.021 0.005,-0.031 0.003,-0.01 0.007,-0.019 0.013,-0.027 0.005,-0.009 0.012,-0.016 0.02,-0.023 C 0.171,-0.439 0.18,-0.444 0.189,-0.448 0.206,-0.473 0.226,-0.496 0.251,-0.514 0.276,-0.533 0.302,-0.548 0.329,-0.561 0.308,-0.586 0.292,-0.614 0.281,-0.644 0.271,-0.674 0.265,-0.705 0.265,-0.737 c 0,-0.015 0.003,-0.028 0.008,-0.041 0.006,-0.013 0.014,-0.024 0.023,-0.033 0.01,-0.01 0.021,-0.017 0.034,-0.023 0.013,-0.006 0.026,-0.008 0.041,-0.008 0.014,0 0.028,0.002 0.04,0.008 0.013,0.006 0.024,0.013 0.034,0.023 0.01,0.009 0.017,0.02 0.023,0.033 0.005,0.013 0.008,0.026 0.008,0.041 0,-0.015 0.003,-0.028 0.008,-0.041 0.006,-0.013 0.013,-0.024 0.023,-0.033 0.009,-0.01 0.02,-0.017 0.033,-0.023 0.013,-0.006 0.027,-0.008 0.041,-0.008 0.014,0 0.028,0.002 0.041,0.008 0.013,0.006 0.024,0.013 0.034,0.023 0.009,0.009 0.017,0.02 0.022,0.033 0.006,0.013 0.009,0.026 0.009,0.041 0,-0.015 0.002,-0.028 0.008,-0.041 0.005,-0.013 0.013,-0.024 0.023,-0.033 0.009,-0.01 0.02,-0.017 0.033,-0.023 0.013,-0.006 0.027,-0.008 0.041,-0.008 0.014,0 0.028,0.002 0.041,0.008 0.012,0.006 0.023,0.013 0.033,0.023 0.01,0.009 0.017,0.02 0.023,0.033 0.005,0.013 0.008,0.026 0.008,0.041 0,0.012 0.003,0.023 0.009,0.033 0.007,0.01 0.014,0.018 0.023,0.026 0.017,0.015 0.032,0.03 0.046,0.047 0.013,0.016 0.025,0.034 0.035,0.055 0.016,0.006 0.033,0.014 0.049,0.022 0.017,0.009 0.033,0.018 0.048,0.029 0.015,0.01 0.029,0.022 0.042,0.035 0.013,0.013 0.025,0.027 0.035,0.042 0.009,0.004 0.018,0.009 0.026,0.015 0.008,0.007 0.015,0.015 0.02,0.024 0.006,0.009 0.01,0.018 0.013,0.028 0.004,0.01 0.005,0.02 0.005,0.03 0,0.004 0,0.007 -10e-4,0.011 -0.001,0.004 -0.001,0.008 -0.001,0.011 0,0.005 0,0.01 0.001,0.015 10e-4,0.005 10e-4,0.01 10e-4,0.016 0,0.031 -0.007,0.06 -0.022,0.086 -0.015,0.026 -0.033,0.05 -0.056,0.07 L 1.125,-0.007 C 1.12,0.009 1.112,0.024 1.102,0.037 1.087,0.055 1.07,0.07 1.05,0.084 1.03,0.098 1.008,0.11 0.984,0.12 0.961,0.131 0.936,0.139 0.91,0.146 0.884,0.153 0.858,0.159 0.832,0.163 0.806,0.167 0.781,0.17 0.756,0.172 0.731,0.174 0.708,0.175 0.687,0.175 Z"
         style="fill-rule:nonzero"
         id="path10876" /><path
         d="m 1.094,-0.136 -0.012,0.04 C 1.079,-0.088 1.076,-0.079 1.073,-0.07 1.07,-0.061 1.067,-0.052 1.064,-0.044 1.061,-0.036 1.058,-0.029 1.055,-0.022 1.053,-0.016 1.05,-0.011 1.048,-0.008 1.036,0.006 1.022,0.019 1.005,0.031 0.987,0.042 0.968,0.052 0.947,0.06 0.926,0.068 0.903,0.075 0.88,0.081 0.856,0.087 0.833,0.092 0.81,0.095 0.787,0.098 0.765,0.101 0.744,0.103 0.723,0.104 0.703,0.105 0.687,0.105 0.669,0.105 0.65,0.104 0.629,0.103 0.607,0.101 0.585,0.099 0.562,0.095 0.539,0.092 0.516,0.087 0.493,0.081 0.47,0.076 0.448,0.069 0.427,0.06 0.406,0.052 0.386,0.042 0.369,0.031 0.351,0.019 0.337,0.006 0.325,-0.008 0.323,-0.011 0.32,-0.016 0.317,-0.023 0.314,-0.029 0.311,-0.037 0.308,-0.045 0.305,-0.054 0.302,-0.063 0.299,-0.072 0.296,-0.082 0.293,-0.091 0.29,-0.099 L 0.278,-0.136 Z"
         style="fill:#cccccc;fill-rule:nonzero"
         id="path10878" /><path
         d="M 1.11,-0.183 1.095,-0.136 C 1.067,-0.117 1.037,-0.101 1.003,-0.089 0.969,-0.076 0.934,-0.065 0.898,-0.057 0.862,-0.049 0.826,-0.044 0.79,-0.04 0.753,-0.037 0.719,-0.035 0.687,-0.035 0.654,-0.035 0.62,-0.037 0.583,-0.04 0.547,-0.044 0.511,-0.049 0.475,-0.057 0.439,-0.065 0.404,-0.076 0.37,-0.089 0.336,-0.101 0.306,-0.117 0.278,-0.136 L 0.263,-0.183 Z"
         style="fill:#a6a6a6;fill-rule:nonzero"
         id="path10880" /><path
         d="m 0.195,-0.298 c 0,-0.013 0.002,-0.024 0.006,-0.035 h 0.971 c 0.004,0.012 0.006,0.024 0.006,0.035 0,0.021 -0.006,0.041 -0.016,0.059 -0.011,0.019 -0.025,0.035 -0.043,0.05 -0.017,0.014 -0.037,0.027 -0.06,0.039 -0.022,0.011 -0.045,0.021 -0.068,0.03 -0.023,0.008 -0.045,0.015 -0.067,0.021 -0.022,0.006 -0.041,0.01 -0.058,0.013 -0.03,0.006 -0.06,0.01 -0.089,0.012 -0.03,0.002 -0.06,0.004 -0.09,0.004 -0.031,0 -0.061,-0.002 -0.091,-0.004 C 0.567,-0.076 0.537,-0.08 0.507,-0.086 0.49,-0.089 0.471,-0.093 0.449,-0.099 0.427,-0.105 0.405,-0.112 0.382,-0.12 0.359,-0.129 0.336,-0.139 0.314,-0.15 0.291,-0.162 0.271,-0.175 0.254,-0.189 0.236,-0.204 0.222,-0.22 0.211,-0.239 0.201,-0.257 0.195,-0.277 0.195,-0.298 Z"
         style="fill:#d48c00;fill-rule:nonzero"
         id="path10882" /><path
         d="m 1.137,-0.386 c 10e-4,0 0.003,0 0.005,0 0.01,0 0.018,0.003 0.025,0.01 0.007,0.007 0.011,0.015 0.011,0.025 0,0.01 -0.004,0.018 -0.011,0.025 -0.006,0.007 -0.015,0.01 -0.024,0.01 -0.003,0 -0.005,0 -0.006,0 l -0.001,0.001 c 0.006,0.003 0.01,0.008 0.013,0.013 0.004,0.005 0.005,0.011 0.005,0.018 0,0.009 -0.003,0.017 -0.01,0.024 -0.007,0.007 -0.015,0.011 -0.025,0.011 -0.004,0 -0.008,-0.001 -0.01,-0.002 C 1.106,-0.252 1.104,-0.253 1.101,-0.255 1.1,-0.256 1.099,-0.256 1.098,-0.256 1.097,-0.257 1.096,-0.258 1.096,-0.258 l -0.002,0.002 c 0.005,0.006 0.008,0.014 0.008,0.022 0,0.009 -0.003,0.017 -0.01,0.024 C 1.085,-0.203 1.076,-0.2 1.067,-0.2 1.061,-0.2 1.055,-0.201 1.05,-0.204 1.045,-0.207 1.04,-0.211 1.037,-0.216 l -0.002,0.001 c 0.002,0.001 0.003,0.004 0.003,0.007 10e-4,0.004 10e-4,0.006 10e-4,0.008 0,0.01 -0.003,0.018 -0.01,0.025 -0.007,0.007 -0.016,0.01 -0.025,0.01 -0.008,0 -0.014,-0.002 -0.019,-0.006 C 0.979,-0.175 0.975,-0.18 0.971,-0.187 l -0.002,0.001 c 0.001,0.001 0.001,0.003 0.002,0.006 0,0.002 0,0.004 0,0.005 0,0.01 -0.003,0.018 -0.01,0.025 -0.007,0.007 -0.016,0.01 -0.025,0.01 -0.007,0 -0.014,-0.002 -0.021,-0.007 C 0.909,-0.151 0.904,-0.158 0.902,-0.166 L 0.9,-0.164 0.901,-0.157 c 0,0.01 -0.004,0.018 -0.01,0.025 -0.007,0.007 -0.015,0.01 -0.025,0.01 -0.003,0 -0.007,-0.001 -0.011,-0.003 C 0.851,-0.126 0.847,-0.128 0.844,-0.131 0.84,-0.133 0.837,-0.136 0.835,-0.14 0.833,-0.143 0.832,-0.146 0.832,-0.149 V -0.151 H 0.83 v 0.005 c 0,0.004 -0.001,0.008 -0.003,0.012 -0.001,0.005 -0.004,0.008 -0.007,0.011 -0.003,0.004 -0.006,0.006 -0.01,0.008 -0.003,0.003 -0.007,0.004 -0.012,0.004 -0.01,0 -0.018,-0.003 -0.025,-0.008 C 0.766,-0.124 0.761,-0.132 0.76,-0.143 l -0.002,0.001 c 0,0.004 -0.001,0.009 -0.003,0.013 -0.002,0.004 -0.004,0.008 -0.007,0.012 -0.003,0.003 -0.006,0.006 -0.01,0.008 -0.005,0.002 -0.009,0.003 -0.014,0.003 -0.01,0 -0.018,-0.003 -0.025,-0.009 -0.007,-0.006 -0.011,-0.014 -0.011,-0.025 0,0 -10e-4,-10e-4 -10e-4,-10e-4 -0.001,0 -0.001,10e-4 -0.001,10e-4 -0.001,0.01 -0.005,0.018 -0.011,0.024 -0.007,0.007 -0.015,0.01 -0.025,0.01 -0.01,0 -0.018,-0.004 -0.025,-0.011 -0.006,-0.007 -0.01,-0.016 -0.01,-0.026 H 0.613 v 0.002 c 0,0.004 -0.001,0.008 -0.003,0.012 -0.002,0.003 -0.005,0.006 -0.009,0.009 -0.004,0.002 -0.007,0.005 -0.011,0.006 -0.004,0.002 -0.008,0.003 -0.011,0.003 -0.01,0 -0.019,-0.004 -0.026,-0.011 -0.006,-0.006 -0.01,-0.015 -0.01,-0.024 V -0.151 H 0.542 v 0.002 c 0,0.003 -0.002,0.006 -0.004,0.009 -0.002,0.004 -0.005,0.007 -0.009,0.009 -0.003,0.003 -0.007,0.005 -0.011,0.006 -0.004,0.002 -0.008,0.003 -0.011,0.003 -0.01,0 -0.018,-0.003 -0.025,-0.01 -0.006,-0.007 -0.01,-0.015 -0.01,-0.025 L 0.473,-0.165 H 0.471 c -0.002,0.008 -0.006,0.014 -0.013,0.019 -0.007,0.004 -0.014,0.006 -0.021,0.006 -0.01,0 -0.018,-0.003 -0.025,-0.01 -0.007,-0.007 -0.01,-0.015 -0.01,-0.025 0,-0.003 0.001,-0.007 0.002,-0.011 L 0.402,-0.187 C 0.398,-0.18 0.394,-0.175 0.388,-0.171 0.383,-0.167 0.377,-0.165 0.369,-0.165 0.36,-0.165 0.351,-0.168 0.344,-0.175 0.337,-0.182 0.334,-0.19 0.334,-0.2 c 0,-0.002 0,-0.004 0.001,-0.008 0,-0.003 0.001,-0.006 0.003,-0.007 L 0.336,-0.216 C 0.333,-0.211 0.328,-0.207 0.323,-0.204 0.318,-0.201 0.312,-0.2 0.306,-0.2 0.297,-0.2 0.288,-0.203 0.281,-0.21 0.274,-0.217 0.271,-0.225 0.271,-0.234 c 0,-0.008 0.003,-0.016 0.008,-0.022 L 0.277,-0.258 c -0.004,0.003 -0.007,0.005 -0.011,0.007 -0.003,0.001 -0.007,0.002 -0.012,0.002 -0.01,0 -0.018,-0.004 -0.025,-0.011 -0.007,-0.007 -0.01,-0.015 -0.01,-0.024 0,-0.007 0.001,-0.013 0.005,-0.018 0.003,-0.005 0.007,-0.01 0.013,-0.013 L 0.236,-0.316 c -0.001,0 -0.003,0 -0.006,0 -0.009,0 -0.017,-0.003 -0.024,-0.009 C 0.199,-0.332 0.195,-0.34 0.195,-0.35 c 0,-0.01 0.004,-0.019 0.01,-0.026 0.007,-0.007 0.015,-0.01 0.026,-0.01 0.002,0 0.004,0 0.005,0 0.006,-0.016 0.015,-0.031 0.027,-0.044 0.013,-0.014 0.027,-0.026 0.043,-0.037 0.016,-0.011 0.033,-0.021 0.052,-0.03 0.018,-0.008 0.037,-0.016 0.057,-0.023 0.019,-0.006 0.037,-0.012 0.056,-0.016 0.018,-0.005 0.035,-0.008 0.05,-0.011 0.027,-0.005 0.055,-0.009 0.082,-0.011 0.028,-0.002 0.056,-0.004 0.084,-0.004 0.028,0 0.055,0.002 0.083,0.004 0.027,0.002 0.055,0.006 0.082,0.011 0.015,0.003 0.032,0.006 0.05,0.011 0.019,0.004 0.037,0.01 0.056,0.016 0.02,0.007 0.039,0.015 0.057,0.023 0.019,0.009 0.036,0.019 0.052,0.03 0.016,0.011 0.03,0.023 0.043,0.037 0.012,0.013 0.021,0.028 0.027,0.044 z"
         style="fill:#eba300;fill-rule:nonzero"
         id="path10884" /><path
         d="m 0.344,-0.404 c 0,-0.014 0.004,-0.027 0.01,-0.039 0.007,-0.012 0.016,-0.023 0.028,-0.033 0.011,-0.01 0.024,-0.019 0.038,-0.026 0.014,-0.008 0.029,-0.015 0.044,-0.021 0.015,-0.006 0.029,-0.011 0.044,-0.015 0.014,-0.004 0.026,-0.007 0.037,-0.009 0.024,-0.005 0.047,-0.009 0.071,-0.011 0.023,-0.002 0.047,-0.004 0.071,-0.004 0.023,0 0.047,0.002 0.07,0.004 0.024,0.002 0.047,0.006 0.071,0.011 0.011,0.002 0.023,0.005 0.037,0.009 0.015,0.004 0.029,0.009 0.044,0.015 0.015,0.006 0.03,0.013 0.044,0.021 0.014,0.007 0.027,0.016 0.038,0.026 0.012,0.01 0.021,0.021 0.028,0.033 0.006,0.012 0.01,0.025 0.01,0.039 0,0.015 -0.004,0.028 -0.011,0.041 C 1.011,-0.351 1.001,-0.34 0.99,-0.33 0.978,-0.32 0.965,-0.311 0.95,-0.303 0.935,-0.295 0.92,-0.288 0.904,-0.282 0.889,-0.276 0.873,-0.271 0.859,-0.267 0.844,-0.263 0.831,-0.26 0.82,-0.258 0.798,-0.254 0.776,-0.25 0.753,-0.249 0.731,-0.247 0.709,-0.246 0.687,-0.246 0.664,-0.246 0.642,-0.247 0.62,-0.249 0.597,-0.25 0.575,-0.254 0.553,-0.258 0.542,-0.26 0.529,-0.263 0.514,-0.267 0.5,-0.271 0.484,-0.276 0.469,-0.282 0.454,-0.288 0.438,-0.295 0.423,-0.303 0.408,-0.311 0.395,-0.32 0.383,-0.33 0.372,-0.34 0.362,-0.351 0.355,-0.363 0.348,-0.376 0.344,-0.389 0.344,-0.404 Z"
         style="fill:#ffc83d;fill-rule:nonzero"
         id="path10886" /><path
         d="m 0.722,-0.246 c 0,0.01 -0.004,0.018 -0.011,0.025 -0.007,0.007 -0.015,0.011 -0.024,0.011 -0.01,0 -0.018,-0.004 -0.025,-0.011 -0.007,-0.007 -0.011,-0.015 -0.011,-0.025 0,-0.004 0.002,-0.011 0.005,-0.021 0.003,-0.009 0.006,-0.02 0.01,-0.03 0.004,-0.011 0.008,-0.021 0.012,-0.031 0.004,-0.01 0.007,-0.018 0.009,-0.023 10e-4,0.005 0.004,0.013 0.008,0.023 0.004,0.01 0.008,0.02 0.012,0.031 0.004,0.01 0.007,0.021 0.01,0.03 0.003,0.01 0.005,0.017 0.005,0.021 z M 0.335,-0.351 C 0.326,-0.351 0.318,-0.355 0.311,-0.362 0.304,-0.369 0.3,-0.377 0.3,-0.386 c 0,-0.01 0.004,-0.018 0.011,-0.025 0.007,-0.007 0.015,-0.01 0.024,-0.01 0.005,0 0.012,0.001 0.021,0.004 0.01,0.003 0.02,0.006 0.031,0.01 0.011,0.004 0.021,0.008 0.031,0.012 0.01,0.004 0.018,0.007 0.023,0.009 -0.005,0.002 -0.013,0.005 -0.023,0.009 -0.01,0.003 -0.02,0.007 -0.031,0.011 -0.011,0.004 -0.021,0.008 -0.031,0.011 -0.009,0.002 -0.016,0.004 -0.021,0.004 z m 0.703,0 c 0.009,0 0.017,-0.004 0.024,-0.011 0.007,-0.007 0.011,-0.015 0.011,-0.024 0,-0.01 -0.004,-0.018 -0.011,-0.025 -0.007,-0.007 -0.015,-0.01 -0.024,-0.01 -0.005,0 -0.012,0.001 -0.022,0.004 -0.009,0.003 -0.019,0.006 -0.03,0.01 -0.011,0.004 -0.021,0.008 -0.031,0.012 -0.01,0.004 -0.018,0.007 -0.023,0.009 0.005,0.002 0.013,0.005 0.023,0.009 0.01,0.003 0.02,0.007 0.031,0.011 0.011,0.004 0.021,0.008 0.03,0.011 0.01,0.002 0.017,0.004 0.022,0.004 z m -0.563,0.105 c -0.01,0 -0.018,-0.003 -0.024,-0.01 -0.007,-0.006 -0.01,-0.014 -0.01,-0.023 0,-0.01 0.003,-0.018 0.01,-0.024 0.002,-0.003 0.008,-0.007 0.017,-0.011 0.008,-0.005 0.017,-0.01 0.027,-0.014 0.01,-0.005 0.02,-0.01 0.03,-0.014 0.009,-0.004 0.016,-0.007 0.021,-0.009 -0.002,0.004 -0.005,0.011 -0.009,0.021 -0.004,0.009 -0.009,0.019 -0.013,0.029 -0.005,0.01 -0.01,0.02 -0.014,0.028 -0.005,0.009 -0.009,0.014 -0.011,0.017 -0.007,0.007 -0.015,0.01 -0.024,0.01 z m 0.423,0 c 0.01,0 0.018,-0.003 0.024,-0.01 0.007,-0.006 0.01,-0.014 0.01,-0.023 0,-0.01 -0.003,-0.018 -0.01,-0.024 C 0.92,-0.306 0.914,-0.31 0.906,-0.314 0.897,-0.319 0.888,-0.324 0.877,-0.328 0.867,-0.333 0.858,-0.338 0.848,-0.342 0.838,-0.346 0.831,-0.349 0.827,-0.351 c 0.002,0.004 0.005,0.012 0.009,0.021 0.004,0.01 0.009,0.02 0.013,0.029 0.005,0.01 0.01,0.02 0.014,0.028 0.005,0.009 0.009,0.015 0.012,0.017 0.006,0.007 0.014,0.01 0.023,0.01 z"
         style="fill:#af0d1a;fill-rule:nonzero"
         id="path10888" /><path
         d="m 0.511,-0.421 c -0.01,0 -0.018,-0.004 -0.025,-0.011 C 0.479,-0.438 0.476,-0.447 0.476,-0.457 0.476,-0.48 0.471,-0.501 0.46,-0.52 0.45,-0.538 0.436,-0.555 0.418,-0.57 0.393,-0.592 0.372,-0.616 0.358,-0.644 0.343,-0.672 0.335,-0.703 0.335,-0.737 c 0,-0.01 0.004,-0.018 0.011,-0.025 0.007,-0.007 0.015,-0.01 0.025,-0.01 0.009,0 0.017,0.003 0.024,0.01 0.007,0.007 0.011,0.015 0.011,0.025 0,0.023 0.005,0.044 0.016,0.063 0.01,0.019 0.024,0.036 0.041,0.05 0.026,0.022 0.046,0.047 0.061,0.075 0.014,0.027 0.022,0.058 0.022,0.092 0,0.01 -0.004,0.018 -0.01,0.025 -0.007,0.007 -0.015,0.011 -0.025,0.011 z m 0.211,0 c -0.01,0 -0.018,-0.004 -0.025,-0.011 C 0.69,-0.438 0.687,-0.447 0.687,-0.457 0.687,-0.48 0.681,-0.501 0.671,-0.52 0.66,-0.538 0.646,-0.555 0.629,-0.57 0.604,-0.592 0.583,-0.616 0.568,-0.644 0.553,-0.672 0.546,-0.703 0.546,-0.737 c 0,-0.01 0.003,-0.018 0.01,-0.025 0.007,-0.007 0.016,-0.01 0.025,-0.01 0.009,0 0.018,0.003 0.025,0.01 0.007,0.007 0.01,0.015 0.01,0.025 0,0.023 0.006,0.044 0.016,0.063 0.011,0.019 0.025,0.036 0.042,0.05 0.025,0.022 0.045,0.047 0.06,0.075 0.015,0.027 0.023,0.058 0.023,0.092 0,0.01 -0.004,0.019 -0.01,0.025 -0.007,0.007 -0.016,0.011 -0.025,0.011 z m 0.21,0 c -0.01,0 -0.018,-0.004 -0.025,-0.011 C 0.9,-0.438 0.897,-0.447 0.897,-0.457 0.897,-0.48 0.892,-0.501 0.881,-0.52 0.871,-0.538 0.857,-0.555 0.839,-0.57 0.814,-0.592 0.794,-0.616 0.779,-0.644 0.764,-0.672 0.757,-0.703 0.757,-0.737 c 0,-0.01 0.003,-0.018 0.01,-0.025 0.007,-0.007 0.016,-0.01 0.025,-0.01 0.009,0 0.018,0.003 0.024,0.01 0.007,0.007 0.011,0.015 0.011,0.025 0,0.023 0.005,0.044 0.016,0.063 0.01,0.019 0.024,0.036 0.041,0.05 0.026,0.022 0.046,0.047 0.061,0.074 0.015,0.028 0.022,0.059 0.022,0.093 0,0.01 -0.003,0.019 -0.01,0.025 -0.007,0.007 -0.015,0.011 -0.025,0.011 z"
         style="fill:#f2f2f2;fill-rule:nonzero"
         id="path10890" /></g></g></svg>
