<?xml version="1.0" encoding="UTF-8" standalone="no"?>
<svg
   width="16.860001"
   height="16.620001"
   viewBox="0 0 16.860001 16.620001"
   version="1.1"
   xml:space="preserve"
   style="clip-rule:evenodd;fill-rule:evenodd;stroke-linejoin:round;stroke-miterlimit:2"
   id="svg20568"
   sodipodi:docname="emojis.svg"
   xmlns:inkscape="http://www.inkscape.org/namespaces/inkscape"
   xmlns:sodipodi="http://sodipodi.sourceforge.net/DTD/sodipodi-0.dtd"
   xmlns="http://www.w3.org/2000/svg"
   xmlns:svg="http://www.w3.org/2000/svg"><defs
     id="defs20572" /><sodipodi:namedview
     id="namedview20570"
     pagecolor="#505050"
     bordercolor="#eeeeee"
     borderopacity="1"
     inkscape:pageshadow="0"
     inkscape:pageopacity="0"
     inkscape:pagecheckerboard="0" /><g
     transform="matrix(0.24,0,0,0.24,-145.8186,-529.3308)"
     id="g20566"><g
       transform="matrix(62.5,0,0,62.5,599.765,2261.67)"
       id="g10842"><path
         d="m 0.693,-0.893 c 0.017,0.013 0.032,0.026 0.047,0.04 0.016,0.014 0.028,0.031 0.037,0.05 0.034,0.003 0.068,0.007 0.102,0.014 0.033,0.006 0.066,0.015 0.099,0.025 0.02,0.007 0.041,0.015 0.062,0.024 0.022,0.009 0.042,0.02 0.062,0.032 0.02,0.012 0.039,0.026 0.056,0.041 0.018,0.015 0.034,0.032 0.047,0.05 0.013,0.018 0.024,0.037 0.032,0.058 0.007,0.021 0.011,0.044 0.011,0.068 l 0.001,0.047 c 0,0.025 -0.003,0.049 -0.007,0.071 -0.005,0.022 -0.014,0.044 -0.029,0.065 v 0.054 c 0.008,0.012 0.014,0.025 0.019,0.036 0.005,0.012 0.008,0.024 0.011,0.035 0.002,0.012 0.004,0.024 0.004,0.037 10e-4,0.013 10e-4,0.026 10e-4,0.041 0,0.028 -0.005,0.053 -0.015,0.077 C 1.223,-0.004 1.21,0.017 1.193,0.037 1.176,0.057 1.156,0.074 1.134,0.09 1.112,0.106 1.088,0.12 1.064,0.132 1.039,0.144 1.014,0.155 0.989,0.164 0.963,0.172 0.939,0.18 0.916,0.185 0.878,0.194 0.84,0.201 0.802,0.205 0.764,0.208 0.725,0.21 0.687,0.21 0.648,0.21 0.609,0.208 0.571,0.204 0.533,0.2 0.495,0.194 0.457,0.185 0.434,0.18 0.41,0.172 0.384,0.164 0.359,0.155 0.334,0.144 0.309,0.132 0.285,0.12 0.261,0.106 0.239,0.09 0.217,0.074 0.197,0.056 0.18,0.036 0.163,0.017 0.15,-0.005 0.14,-0.029 0.13,-0.052 0.125,-0.078 0.125,-0.105 c 0,-0.014 0,-0.028 0.001,-0.041 0,-0.013 0.002,-0.025 0.004,-0.037 0.002,-0.012 0.005,-0.024 0.01,-0.035 0.005,-0.012 0.011,-0.024 0.02,-0.036 V -0.308 C 0.153,-0.319 0.147,-0.33 0.142,-0.34 0.138,-0.351 0.134,-0.361 0.131,-0.373 0.129,-0.384 0.127,-0.395 0.126,-0.406 0.125,-0.418 0.125,-0.43 0.125,-0.443 v -0.048 c 0,-0.024 0.004,-0.047 0.011,-0.068 0.008,-0.021 0.019,-0.04 0.032,-0.058 0.013,-0.018 0.029,-0.035 0.047,-0.05 0.017,-0.015 0.036,-0.029 0.056,-0.041 0.02,-0.012 0.04,-0.023 0.062,-0.032 0.021,-0.009 0.042,-0.017 0.062,-0.024 0.033,-0.01 0.066,-0.019 0.099,-0.025 0.034,-0.007 0.068,-0.011 0.102,-0.014 0.009,-0.019 0.021,-0.036 0.037,-0.05 0.015,-0.014 0.03,-0.027 0.047,-0.04 l 0.007,-0.005 z"
         style="fill-rule:nonzero"
         id="path10818" /><path
         d="m 1.178,-0.105 c 0,0.022 -0.005,0.042 -0.015,0.061 C 1.153,-0.025 1.14,-0.008 1.124,0.007 1.108,0.023 1.089,0.037 1.068,0.049 1.047,0.062 1.025,0.073 1.003,0.082 0.981,0.091 0.959,0.099 0.937,0.106 0.916,0.112 0.896,0.118 0.878,0.121 0.815,0.134 0.751,0.14 0.687,0.14 0.622,0.14 0.558,0.134 0.495,0.121 0.477,0.118 0.457,0.112 0.436,0.106 0.414,0.099 0.392,0.091 0.37,0.082 0.348,0.073 0.326,0.062 0.305,0.049 0.284,0.037 0.265,0.023 0.249,0.007 0.233,-0.008 0.22,-0.025 0.21,-0.044 0.2,-0.063 0.195,-0.083 0.195,-0.105 v -0.036 h 0.983 z"
         style="fill:#e5e5e5;fill-rule:nonzero"
         id="path10820" /><path
         d="m 0.195,-0.141 c 0,-0.022 0.005,-0.042 0.015,-0.061 0.01,-0.019 0.023,-0.036 0.04,-0.051 0.016,-0.016 0.034,-0.03 0.055,-0.042 0.021,-0.012 0.043,-0.023 0.065,-0.033 0.022,-0.009 0.044,-0.017 0.066,-0.024 0.022,-0.006 0.042,-0.011 0.059,-0.015 0.032,-0.006 0.063,-0.011 0.095,-0.014 0.032,-0.004 0.064,-0.005 0.097,-0.005 0.032,0 0.064,0.001 0.096,0.005 0.032,0.003 0.063,0.008 0.095,0.014 0.018,0.004 0.037,0.009 0.059,0.015 0.022,0.007 0.044,0.015 0.066,0.024 0.022,0.01 0.044,0.021 0.065,0.033 0.021,0.012 0.039,0.026 0.056,0.042 0.016,0.015 0.029,0.032 0.039,0.051 0.01,0.019 0.015,0.039 0.015,0.061 0,0.023 -0.005,0.043 -0.015,0.062 C 1.153,-0.061 1.14,-0.043 1.124,-0.028 1.108,-0.012 1.089,0.002 1.068,0.014 1.047,0.027 1.025,0.037 1.003,0.047 0.981,0.056 0.959,0.064 0.937,0.071 0.916,0.077 0.896,0.082 0.878,0.086 0.815,0.099 0.751,0.105 0.687,0.105 0.622,0.105 0.558,0.099 0.495,0.086 0.477,0.082 0.457,0.077 0.436,0.071 0.414,0.064 0.392,0.056 0.37,0.047 0.348,0.037 0.326,0.027 0.305,0.014 0.284,0.002 0.265,-0.012 0.249,-0.028 0.233,-0.043 0.22,-0.061 0.21,-0.079 0.2,-0.098 0.195,-0.118 0.195,-0.141 Z"
         style="fill:#f2f2f2;fill-rule:nonzero"
         id="path10822" /><path
         d="m 1.143,-0.141 c 0,0.02 -0.005,0.038 -0.015,0.054 -0.009,0.016 -0.021,0.031 -0.037,0.045 -0.015,0.013 -0.033,0.025 -0.053,0.036 -0.02,0.01 -0.04,0.02 -0.061,0.027 C 0.957,0.029 0.936,0.036 0.917,0.041 0.897,0.047 0.88,0.051 0.864,0.054 0.835,0.059 0.805,0.063 0.776,0.066 0.746,0.069 0.716,0.07 0.687,0.07 0.657,0.07 0.627,0.069 0.597,0.066 0.568,0.063 0.538,0.059 0.509,0.054 0.493,0.051 0.476,0.047 0.456,0.041 0.436,0.036 0.416,0.029 0.395,0.021 0.375,0.014 0.354,0.004 0.335,-0.006 0.315,-0.017 0.297,-0.029 0.282,-0.042 0.267,-0.055 0.254,-0.07 0.245,-0.087 0.235,-0.103 0.23,-0.121 0.23,-0.141 v -0.316 h 0.913 z"
         style="fill:#bb9167;fill-rule:nonzero"
         id="path10824" /><path
         d="m 0.195,-0.491 h 0.983 v 0.07 c 0,0.02 -0.005,0.04 -0.013,0.057 C 1.156,-0.346 1.145,-0.33 1.13,-0.315 1.116,-0.3 1.1,-0.287 1.081,-0.275 1.062,-0.263 1.043,-0.252 1.023,-0.243 1.004,-0.233 0.984,-0.225 0.964,-0.219 0.944,-0.212 0.926,-0.206 0.909,-0.202 0.906,-0.199 0.903,-0.195 0.9,-0.19 0.898,-0.186 0.897,-0.181 0.897,-0.176 v 0.106 c 0,0.009 -0.003,0.018 -0.01,0.025 -0.007,0.006 -0.015,0.01 -0.025,0.01 -0.01,0 -0.018,-0.004 -0.025,-0.011 C 0.83,-0.053 0.827,-0.061 0.827,-0.07 v -0.053 c 0,-0.005 -0.002,-0.009 -0.005,-0.012 -0.004,-0.004 -0.008,-0.006 -0.012,-0.006 -0.005,0 -0.009,0.002 -0.011,0.004 -0.003,0.002 -0.005,0.005 -0.006,0.009 -0.001,0.003 -0.002,0.007 -0.002,0.011 0,0.004 0,0.008 0,0.011 0,0.009 0,0.018 0.001,0.026 0.001,0.009 0.001,0.018 0.001,0.027 0,0.006 0,0.013 -0.001,0.019 C 0.791,-0.028 0.789,-0.022 0.787,-0.017 0.784,-0.012 0.781,-0.008 0.776,-0.005 0.771,-0.002 0.765,0 0.757,0 0.749,0 0.742,-0.002 0.738,-0.005 0.733,-0.009 0.729,-0.013 0.727,-0.018 0.724,-0.024 0.722,-0.03 0.721,-0.036 c 0,-0.007 -0.001,-0.013 -0.001,-0.02 0,-0.01 0.001,-0.021 0.002,-0.032 0.001,-0.011 0.001,-0.021 0.001,-0.032 0,-0.006 0,-0.013 -0.001,-0.019 C 0.721,-0.146 0.719,-0.152 0.717,-0.157 0.714,-0.163 0.711,-0.167 0.706,-0.171 0.701,-0.174 0.695,-0.176 0.687,-0.176 c -0.01,0 -0.018,0.004 -0.025,0.011 -0.007,0.007 -0.011,0.015 -0.011,0.024 v 0.053 c 0,0.005 -0.001,0.009 -0.005,0.013 C 0.643,-0.072 0.639,-0.07 0.634,-0.07 0.629,-0.07 0.625,-0.072 0.621,-0.075 0.618,-0.079 0.616,-0.083 0.616,-0.088 v -0.053 c 0,-0.009 -0.003,-0.017 -0.01,-0.024 -0.007,-0.007 -0.016,-0.011 -0.025,-0.011 -0.009,0 -0.018,0.004 -0.025,0.011 -0.007,0.007 -0.01,0.015 -0.01,0.024 v 0.053 c 0,0.005 -0.002,0.009 -0.005,0.012 C 0.537,-0.072 0.533,-0.07 0.529,-0.07 0.524,-0.07 0.52,-0.072 0.516,-0.075 0.513,-0.079 0.511,-0.083 0.511,-0.088 V -0.192 C 0.493,-0.195 0.472,-0.2 0.449,-0.206 0.427,-0.213 0.404,-0.22 0.38,-0.23 0.357,-0.239 0.334,-0.25 0.312,-0.263 0.29,-0.275 0.27,-0.29 0.253,-0.305 0.235,-0.321 0.221,-0.339 0.211,-0.358 0.201,-0.378 0.195,-0.399 0.195,-0.421 Z"
         style="fill:#613d30;fill-rule:nonzero"
         id="path10826" /><path
         d="m 0.195,-0.491 c 0,-0.022 0.005,-0.043 0.015,-0.061 0.01,-0.019 0.023,-0.036 0.039,-0.052 0.016,-0.016 0.035,-0.03 0.056,-0.042 0.021,-0.012 0.043,-0.023 0.065,-0.033 0.022,-0.009 0.044,-0.017 0.066,-0.024 0.021,-0.006 0.041,-0.011 0.059,-0.015 0.032,-0.006 0.063,-0.011 0.095,-0.014 0.032,-0.004 0.064,-0.005 0.097,-0.005 0.032,0 0.064,0.001 0.096,0.005 0.032,0.003 0.063,0.008 0.095,0.014 0.018,0.004 0.038,0.009 0.059,0.016 0.022,0.006 0.044,0.014 0.066,0.023 0.022,0.01 0.044,0.021 0.065,0.033 0.021,0.012 0.04,0.026 0.056,0.042 0.016,0.016 0.029,0.033 0.039,0.052 0.01,0.018 0.015,0.039 0.015,0.061 0,0.022 -0.005,0.042 -0.014,0.06 -0.01,0.018 -0.022,0.035 -0.038,0.05 C 1.111,-0.366 1.093,-0.352 1.073,-0.34 1.053,-0.327 1.032,-0.317 1.011,-0.307 0.99,-0.298 0.969,-0.29 0.948,-0.283 0.927,-0.277 0.907,-0.271 0.89,-0.268 0.856,-0.26 0.823,-0.255 0.789,-0.251 0.755,-0.247 0.721,-0.246 0.687,-0.246 0.652,-0.246 0.618,-0.247 0.584,-0.251 0.551,-0.255 0.517,-0.26 0.483,-0.268 0.466,-0.271 0.447,-0.277 0.426,-0.283 0.405,-0.29 0.383,-0.298 0.362,-0.307 0.341,-0.317 0.32,-0.327 0.3,-0.34 0.28,-0.352 0.262,-0.366 0.247,-0.381 0.231,-0.396 0.219,-0.413 0.209,-0.431 0.2,-0.45 0.195,-0.47 0.195,-0.491 Z"
         style="fill:#8e562e;fill-rule:nonzero"
         id="path10828" /><path
         d="m 0.651,-0.491 v -0.211 h 0.071 v 0.211 c 0,0.009 -0.004,0.017 -0.011,0.024 -0.007,0.007 -0.015,0.01 -0.024,0.01 -0.01,0 -0.018,-0.003 -0.025,-0.01 C 0.655,-0.474 0.651,-0.482 0.651,-0.491 Z M 0.44,-0.369 c 0,-0.004 0.002,-0.008 0.006,-0.012 l 0.035,-0.035 c 0.003,-0.003 0.007,-0.005 0.012,-0.005 0.005,0 0.009,0.002 0.013,0.005 0.003,0.004 0.005,0.008 0.005,0.013 0,0.005 -0.002,0.009 -0.005,0.012 L 0.471,-0.356 C 0.467,-0.353 0.463,-0.351 0.458,-0.351 0.453,-0.351 0.449,-0.353 0.446,-0.356 0.442,-0.359 0.44,-0.363 0.44,-0.369 Z m 0.439,-0.052 c 0.005,0 0.009,0.002 0.013,0.005 0.003,0.004 0.005,0.008 0.005,0.013 0,0.005 -0.002,0.009 -0.005,0.012 l -0.035,0.035 c -0.003,0.003 -0.008,0.005 -0.013,0.005 -0.005,0 -0.009,-0.002 -0.012,-0.005 -0.004,-0.004 -0.005,-0.008 -0.005,-0.013 0,-0.004 0.001,-0.008 0.005,-0.012 L 0.867,-0.416 C 0.87,-0.419 0.875,-0.421 0.879,-0.421 Z"
         style="fill:#31d2f7;fill-rule:nonzero"
         id="path10830" /><path
         d="m 0.722,-0.702 c 0,0.01 -0.004,0.018 -0.011,0.025 -0.006,0.007 -0.015,0.01 -0.024,0.01 -0.01,0 -0.019,-0.003 -0.025,-0.01 -0.007,-0.007 -0.011,-0.015 -0.011,-0.025 0,-0.01 0.004,-0.018 0.011,-0.025 0.007,-0.007 0.015,-0.01 0.025,-0.01 0.009,0 0.017,0.003 0.024,0.01 0.007,0.007 0.011,0.015 0.011,0.025 z"
         style="fill:#69eaff;fill-rule:nonzero"
         id="path10832" /><path
         d="m 0.651,-0.737 c 0,-0.014 0.004,-0.027 0.01,-0.039 0.007,-0.012 0.015,-0.023 0.026,-0.031 0.01,0.008 0.018,0.019 0.025,0.031 0.006,0.012 0.01,0.025 0.01,0.039 0,0.009 -0.004,0.018 -0.011,0.025 -0.006,0.006 -0.015,0.01 -0.024,0.01 -0.01,0 -0.019,-0.004 -0.025,-0.01 C 0.655,-0.719 0.651,-0.728 0.651,-0.737 Z"
         style="fill:#f03a17;fill-rule:nonzero"
         id="path10834" /><path
         d="m 0.985,-0.562 c 0.005,0 0.009,0.002 0.012,0.005 l 0.035,0.036 c 0.003,0.003 0.005,0.007 0.005,0.012 0,0.005 -0.002,0.009 -0.005,0.012 -0.003,0.004 -0.007,0.006 -0.012,0.006 -0.005,0 -0.009,-0.002 -0.013,-0.006 L 0.972,-0.532 C 0.969,-0.535 0.967,-0.539 0.967,-0.544 c 0,-0.005 0.002,-0.009 0.005,-0.013 0.004,-0.003 0.008,-0.005 0.013,-0.005 z m -0.667,0 c 0.005,0 0.009,0.002 0.013,0.005 l 0.035,0.036 c 0.003,0.003 0.005,0.007 0.005,0.012 0,0.005 -0.002,0.009 -0.006,0.012 -0.003,0.004 -0.007,0.006 -0.012,0.006 -0.005,0 -0.009,-0.002 -0.012,-0.006 L 0.306,-0.532 C 0.302,-0.535 0.3,-0.539 0.3,-0.544 0.3,-0.549 0.302,-0.553 0.306,-0.556 0.309,-0.56 0.313,-0.562 0.318,-0.562 Z"
         style="fill:#f495bf;fill-rule:nonzero"
         id="path10836" /><path
         d="m 0.669,-0.351 c 0.005,0 0.009,0.002 0.012,0.005 l 0.035,0.035 c 0.004,0.003 0.005,0.007 0.005,0.013 0,0.004 -0.002,0.008 -0.005,0.012 -0.003,0.003 -0.007,0.005 -0.012,0.005 -0.005,0 -0.009,-0.002 -0.013,-0.005 L 0.657,-0.321 C 0.653,-0.325 0.651,-0.329 0.651,-0.333 c 0,-0.005 0.002,-0.009 0.006,-0.012 0.003,-0.004 0.007,-0.006 0.012,-0.006 z M 0.511,-0.614 c 0,-0.005 0.002,-0.009 0.005,-0.012 l 0.035,-0.036 c 0.004,-0.003 0.008,-0.005 0.012,-0.005 0.005,0 0.009,0.002 0.013,0.006 0.003,0.003 0.005,0.007 0.005,0.012 0,0.005 -0.002,0.009 -0.005,0.012 L 0.541,-0.602 C 0.537,-0.598 0.533,-0.597 0.529,-0.597 0.524,-0.597 0.52,-0.598 0.516,-0.602 0.513,-0.605 0.511,-0.609 0.511,-0.614 Z"
         style="fill:#fff100;fill-rule:nonzero"
         id="path10838" /><path
         d="m 0.81,-0.597 c -0.005,0 -0.009,-0.001 -0.013,-0.005 -0.004,-0.003 -0.005,-0.007 -0.005,-0.012 0,-0.005 0.001,-0.009 0.005,-0.012 l 0.035,-0.036 c 0.003,-0.003 0.007,-0.005 0.012,-0.005 0.005,0 0.009,0.002 0.012,0.006 0.004,0.003 0.006,0.007 0.006,0.012 0,0.005 -0.002,0.009 -0.005,0.012 L 0.822,-0.602 C 0.818,-0.598 0.814,-0.597 0.81,-0.597 Z"
         style="fill:#f7894a;fill-rule:nonzero"
         id="path10840" /></g></g></svg>
