<?xml version="1.0" encoding="UTF-8" standalone="no"?>
<svg
   width="16.844999"
   height="16.844999"
   viewBox="0 0 16.844999 16.844999"
   version="1.1"
   xml:space="preserve"
   style="clip-rule:evenodd;fill-rule:evenodd;stroke-linejoin:round;stroke-miterlimit:2"
   id="svg20568"
   sodipodi:docname="emojis.svg"
   xmlns:inkscape="http://www.inkscape.org/namespaces/inkscape"
   xmlns:sodipodi="http://sodipodi.sourceforge.net/DTD/sodipodi-0.dtd"
   xmlns="http://www.w3.org/2000/svg"
   xmlns:svg="http://www.w3.org/2000/svg"><defs
     id="defs20572" /><sodipodi:namedview
     id="namedview20570"
     pagecolor="#505050"
     bordercolor="#eeeeee"
     borderopacity="1"
     inkscape:pageshadow="0"
     inkscape:pageopacity="0"
     inkscape:pagecheckerboard="0" /><g
     transform="matrix(0.24,0,0,0.24,-166.4142,-529.1058)"
     id="g20566"><g
       transform="matrix(62.5,0,0,62.5,685.58,2261.67)"
       id="g10860"><path
         d="m 0.125,0.21 v -0.631 c 0,-0.012 0.002,-0.024 0.005,-0.037 0.004,-0.012 0.008,-0.023 0.014,-0.034 0.006,-0.01 0.014,-0.02 0.023,-0.029 0.008,-0.009 0.018,-0.016 0.029,-0.022 l 0.177,-0.096 c 0.003,-0.012 0.007,-0.023 0.013,-0.034 0.006,-0.011 0.013,-0.02 0.022,-0.029 l 0.127,-0.121 c 0.019,-0.018 0.039,-0.031 0.061,-0.041 0.023,-0.009 0.047,-0.013 0.073,-0.013 0.006,0 0.013,0 0.019,0.001 0.006,0 0.012,0.001 0.018,0.002 0.015,-0.012 0.031,-0.022 0.048,-0.028 0.018,-0.007 0.036,-0.011 0.056,-0.011 h 0.256 l -0.085,0.086 0.004,0.005 0.235,0.317 c 0.009,0.012 0.016,0.025 0.021,0.039 0.005,0.015 0.007,0.029 0.007,0.045 V 0.07 C 1.248,0.09 1.244,0.108 1.237,0.125 1.229,0.141 1.219,0.156 1.206,0.169 1.193,0.182 1.178,0.192 1.161,0.199 1.144,0.207 1.126,0.21 1.107,0.21 Z"
         style="fill-rule:nonzero"
         id="path10844" /><path
         d="m 0.23,-0.482 0.587,-0.317 c 0.005,-0.003 0.012,-0.005 0.02,-0.006 0.008,-0.001 0.015,-0.002 0.021,-0.002 0.006,0 0.012,0.001 0.019,0.002 0.007,0.002 0.014,0.004 0.021,0.006 0.007,0.003 0.014,0.006 0.02,0.01 0.006,0.003 0.011,0.008 0.014,0.013 l 0.232,0.312 z"
         style="fill:#e5e5e5;fill-rule:nonzero"
         id="path10846" /><path
         d="m 1.107,-0.491 c 0.01,0 0.019,0.002 0.028,0.005 0.008,0.004 0.016,0.009 0.022,0.015 0.006,0.006 0.011,0.014 0.015,0.022 0.004,0.009 0.006,0.018 0.006,0.028 V 0.07 C 1.178,0.08 1.176,0.089 1.172,0.098 1.168,0.106 1.163,0.114 1.157,0.12 1.151,0.126 1.143,0.131 1.135,0.135 1.126,0.138 1.117,0.14 1.107,0.14 L 1.051,0.141 c -0.002,0 -0.005,0 -0.007,0 C 1.042,0.141 1.04,0.14 1.038,0.14 L 0.245,0.056 0.195,-0.421 c 0,-0.001 0,-0.002 0,-0.003 0,-0.001 0,-0.002 0,-0.003 0,-0.009 0.002,-0.017 0.006,-0.025 0.004,-0.007 0.01,-0.014 0.017,-0.02 0.006,-0.006 0.014,-0.011 0.022,-0.014 0.008,-0.004 0.017,-0.005 0.025,-0.005 z"
         style="fill:#ffffff;fill-rule:nonzero"
         id="path10848" /><path
         d="m 1.038,-0.105 c -0.071,0.006 -0.141,0.01 -0.21,0.013 -0.07,0.003 -0.14,0.005 -0.21,0.005 -0.071,0 -0.142,-0.002 -0.212,-0.005 C 0.336,-0.095 0.266,-0.1 0.195,-0.105 V -0.21 c 0.07,-0.006 0.139,-0.009 0.208,-0.012 0.069,-0.002 0.139,-0.004 0.209,-0.004 0.071,0 0.142,0.002 0.213,0.004 0.07,0.003 0.141,0.007 0.213,0.012 z"
         style="fill:#e5e5e5;fill-rule:nonzero"
         id="path10850" /><path
         d="m 0.792,-0.737 h 0.14 L 0.87,-0.675 C 0.862,-0.667 0.852,-0.66 0.842,-0.656 0.831,-0.652 0.82,-0.649 0.808,-0.649 0.798,-0.649 0.786,-0.652 0.774,-0.656 0.762,-0.66 0.753,-0.667 0.746,-0.675 0.744,-0.678 0.742,-0.683 0.739,-0.691 0.736,-0.698 0.733,-0.706 0.731,-0.714 0.728,-0.722 0.726,-0.73 0.724,-0.738 0.723,-0.746 0.722,-0.751 0.722,-0.755 c 0,-0.012 0.002,-0.023 0.007,-0.034 0.004,-0.01 0.01,-0.02 0.018,-0.028 0.008,-0.008 0.018,-0.014 0.028,-0.018 0.011,-0.005 0.023,-0.007 0.035,-0.007 h 0.087 z"
         style="fill:#107c10;fill-rule:nonzero"
         id="path10852" /><path
         d="m 0.195,0.14 v -0.175 c 0.069,-0.009 0.137,-0.015 0.206,-0.02 0.068,-0.004 0.137,-0.006 0.206,-0.006 0.073,0 0.144,0.002 0.216,0.007 0.071,0.004 0.143,0.01 0.215,0.019 V 0.14 Z m 0,-0.561 h 0.843 v 0.14 c -0.071,0.007 -0.142,0.013 -0.212,0.017 -0.071,0.003 -0.142,0.005 -0.213,0.005 -0.14,0 -0.279,-0.007 -0.418,-0.022 z"
         style="fill:#ffc83d;fill-rule:nonzero"
         id="path10854" /><path
         d="m 0.195,-0.035 v -0.07 h 0.024 c 0.007,0 0.015,-0.001 0.022,-0.003 0.007,-0.002 0.015,-0.004 0.022,-0.005 0.012,-0.003 0.024,-0.005 0.036,-0.006 0.012,-0.001 0.024,-0.001 0.036,-0.001 0.013,0 0.025,0 0.037,0.001 0.012,0.001 0.024,0.003 0.036,0.006 0.005,0.001 0.011,0.003 0.017,0.005 0.005,0.002 0.011,0.003 0.016,0.003 h 0.351 c 0.006,0 0.012,-0.001 0.017,-0.002 0.006,-0.002 0.012,-0.003 0.018,-0.003 0.012,-0.002 0.024,-0.003 0.037,-0.004 0.013,-0.001 0.025,-0.001 0.037,-0.001 0.023,0 0.046,0.001 0.068,0.004 0.006,0.001 0.011,0.002 0.017,0.003 0.005,0.002 0.011,0.003 0.016,0.003 h 0.036 v 0.07 z m 0,-0.246 H 1.038 V -0.21 H 0.722 c -0.002,0 -0.004,0 -0.007,0.001 l -0.018,0.005 c -0.004,10e-4 -0.006,0.002 -0.008,0.002 -0.012,0.003 -0.024,0.005 -0.036,0.006 -0.012,0.002 -0.024,0.002 -0.037,0.002 -0.024,0 -0.047,-0.002 -0.07,-0.007 -0.002,0 -0.005,-0.001 -0.008,-0.002 C 0.535,-0.205 0.531,-0.206 0.528,-0.207 0.525,-0.208 0.521,-0.208 0.518,-0.209 0.515,-0.21 0.513,-0.21 0.511,-0.21 H 0.195 Z"
         style="fill:#eba300;fill-rule:nonzero"
         id="path10856" /><path
         d="m 0.335,-0.21 c 0.015,0 0.029,0.002 0.041,0.008 0.013,0.005 0.024,0.013 0.034,0.022 0.01,0.01 0.017,0.021 0.023,0.034 0.005,0.012 0.008,0.026 0.008,0.041 H 0.23 C 0.23,-0.12 0.233,-0.134 0.239,-0.146 0.244,-0.159 0.252,-0.17 0.261,-0.18 0.271,-0.189 0.282,-0.197 0.294,-0.202 0.307,-0.208 0.321,-0.21 0.335,-0.21 Z m 0.562,0 c 0.015,0 0.028,0.002 0.041,0.008 0.013,0.005 0.024,0.013 0.033,0.022 0.01,0.01 0.018,0.021 0.023,0.034 C 1,-0.134 1.002,-0.12 1.002,-0.105 H 0.792 C 0.792,-0.12 0.795,-0.134 0.8,-0.146 0.806,-0.159 0.813,-0.17 0.823,-0.18 0.832,-0.189 0.843,-0.197 0.856,-0.202 0.869,-0.208 0.882,-0.21 0.897,-0.21 Z M 0.616,-0.105 C 0.602,-0.105 0.588,-0.108 0.575,-0.114 0.562,-0.119 0.551,-0.127 0.542,-0.136 0.533,-0.146 0.525,-0.157 0.52,-0.169 0.514,-0.182 0.511,-0.196 0.511,-0.21 h 0.211 c 0,0.014 -0.003,0.028 -0.009,0.041 -0.005,0.012 -0.013,0.023 -0.022,0.033 -0.01,0.009 -0.021,0.017 -0.034,0.022 -0.012,0.006 -0.026,0.009 -0.041,0.009 z m 0.053,-0.702 c 0.017,0 0.033,0.003 0.048,0.009 0.015,0.007 0.028,0.015 0.039,0.027 0.011,0.011 0.02,0.024 0.026,0.039 0.007,0.015 0.01,0.031 0.01,0.047 0,0.017 -0.003,0.033 -0.01,0.048 -0.006,0.015 -0.015,0.028 -0.026,0.039 -0.011,0.011 -0.024,0.02 -0.039,0.027 -0.015,0.006 -0.031,0.009 -0.048,0.009 H 0.494 C 0.486,-0.562 0.479,-0.563 0.473,-0.566 0.467,-0.568 0.461,-0.572 0.456,-0.577 0.452,-0.582 0.448,-0.587 0.445,-0.594 0.442,-0.6 0.441,-0.607 0.441,-0.614 c 0,-0.007 0.001,-0.014 0.004,-0.021 0.002,-0.006 0.006,-0.012 0.012,-0.017 l 0.126,-0.12 c 0.024,-0.023 0.053,-0.035 0.086,-0.035 z"
         style="fill:#f03a17;fill-rule:nonzero"
         id="path10858" /></g></g></svg>
