<?xml version="1.0" encoding="UTF-8" standalone="no"?>
<svg
   width="16.844999"
   height="16.844999"
   viewBox="0 0 16.844999 16.844999"
   version="1.1"
   xml:space="preserve"
   style="clip-rule:evenodd;fill-rule:evenodd;stroke-linejoin:round;stroke-miterlimit:2"
   id="svg20568"
   sodipodi:docname="emojis.svg"
   xmlns:inkscape="http://www.inkscape.org/namespaces/inkscape"
   xmlns:sodipodi="http://sodipodi.sourceforge.net/DTD/sodipodi-0.dtd"
   xmlns="http://www.w3.org/2000/svg"
   xmlns:svg="http://www.w3.org/2000/svg"><defs
     id="defs20572" /><sodipodi:namedview
     id="namedview20570"
     pagecolor="#505050"
     bordercolor="#eeeeee"
     borderopacity="1"
     inkscape:pageshadow="0"
     inkscape:pageopacity="0"
     inkscape:pagecheckerboard="0" /><g
     transform="matrix(0.24,0,0,0.24,-240.909,-529.1058)"
     id="g20566"><g
       transform="matrix(62.5,0,0,62.5,995.975,2261.67)"
       id="g10918"><path
         d="M 0.476,0.21 C 0.466,0.21 0.456,0.209 0.445,0.207 0.435,0.205 0.425,0.201 0.415,0.197 0.406,0.193 0.397,0.187 0.388,0.181 0.38,0.175 0.373,0.167 0.367,0.159 0.357,0.164 0.346,0.168 0.335,0.171 0.323,0.174 0.312,0.175 0.3,0.175 0.281,0.175 0.263,0.172 0.246,0.164 0.229,0.157 0.214,0.147 0.201,0.134 0.188,0.122 0.178,0.107 0.171,0.09 0.164,0.073 0.16,0.055 0.16,0.035 0.16,0.023 0.162,0.012 0.164,0.001 0.167,-0.01 0.171,-0.021 0.177,-0.032 0.168,-0.038 0.161,-0.045 0.155,-0.053 0.148,-0.061 0.143,-0.07 0.138,-0.08 0.134,-0.089 0.131,-0.099 0.128,-0.11 0.126,-0.12 0.125,-0.13 0.125,-0.141 c 0,-0.019 0.004,-0.037 0.011,-0.054 0.007,-0.017 0.017,-0.032 0.03,-0.045 0.013,-0.012 0.028,-0.022 0.045,-0.03 0.017,-0.007 0.035,-0.011 0.054,-0.011 h 0.078 c -0.005,-0.023 -0.008,-0.046 -0.008,-0.07 0,-0.032 0.005,-0.063 0.013,-0.093 0.009,-0.03 0.02,-0.058 0.036,-0.084 0.015,-0.026 0.033,-0.05 0.054,-0.071 0.022,-0.022 0.046,-0.04 0.072,-0.055 0.025,-0.015 0.053,-0.027 0.083,-0.035 0.03,-0.009 0.061,-0.013 0.094,-0.013 0.023,0 0.047,0.002 0.07,0.007 v -0.077 c 0,-0.019 0.004,-0.037 0.011,-0.054 0.008,-0.017 0.018,-0.032 0.03,-0.045 0.013,-0.013 0.028,-0.023 0.045,-0.03 0.017,-0.008 0.035,-0.012 0.054,-0.012 0.021,0 0.042,0.005 0.06,0.014 0.019,0.009 0.035,0.022 0.049,0.038 0.01,-0.005 0.021,-0.01 0.032,-0.012 0.012,-0.003 0.023,-0.004 0.035,-0.004 0.019,0 0.037,0.003 0.054,0.011 0.017,0.007 0.032,0.017 0.045,0.03 0.013,0.012 0.023,0.027 0.03,0.044 0.007,0.017 0.011,0.035 0.011,0.055 0,0.011 -0.001,0.023 -0.004,0.034 -0.003,0.011 -0.007,0.022 -0.013,0.033 0.017,0.013 0.03,0.029 0.039,0.048 0.009,0.019 0.013,0.039 0.013,0.06 0,0.02 -0.004,0.038 -0.011,0.055 C 1.229,-0.49 1.219,-0.476 1.206,-0.463 1.193,-0.45 1.178,-0.44 1.161,-0.433 1.144,-0.425 1.126,-0.421 1.107,-0.421 H 1.03 c 0.005,0.023 0.008,0.046 0.008,0.07 0,0.032 -0.005,0.063 -0.013,0.093 C 1.016,-0.228 1.005,-0.2 0.99,-0.174 0.974,-0.148 0.956,-0.125 0.935,-0.103 0.913,-0.082 0.889,-0.063 0.864,-0.048 0.838,-0.033 0.81,-0.021 0.78,-0.013 0.75,-0.004 0.719,0 0.687,0 0.662,0 0.639,-0.002 0.616,-0.007 V 0.07 C 0.616,0.09 0.613,0.108 0.605,0.125 0.598,0.142 0.588,0.157 0.575,0.169 0.562,0.182 0.548,0.192 0.531,0.199 0.513,0.207 0.495,0.21 0.476,0.21 Z"
         style="fill-rule:nonzero"
         id="path10908" /><path
         d="m 1.066,-0.63 h 0.041 c 0.01,0 0.019,0.002 0.028,0.005 0.008,0.004 0.016,0.009 0.022,0.015 0.006,0.007 0.011,0.014 0.015,0.023 0.004,0.008 0.006,0.017 0.006,0.027 0,0.01 -0.002,0.019 -0.006,0.028 C 1.168,-0.524 1.163,-0.516 1.157,-0.51 1.151,-0.504 1.143,-0.499 1.135,-0.495 1.126,-0.492 1.117,-0.49 1.107,-0.49 H 0.929 c 0.013,0.022 0.022,0.044 0.029,0.068 0.006,0.024 0.009,0.048 0.009,0.073 0,0.032 -0.005,0.063 -0.016,0.093 -0.01,0.03 -0.026,0.057 -0.046,0.082 L 0.79,-0.15 0.487,-0.435 0.511,-0.568 c 0.025,-0.021 0.052,-0.036 0.083,-0.047 0.03,-0.01 0.061,-0.015 0.093,-0.015 0.024,0 0.048,0.003 0.072,0.01 0.024,0.006 0.046,0.015 0.068,0.028 v -0.179 c 0,-0.009 0.002,-0.018 0.005,-0.027 0.004,-0.008 0.009,-0.016 0.015,-0.022 0.007,-0.006 0.014,-0.011 0.023,-0.015 0.008,-0.004 0.017,-0.006 0.027,-0.006 0.01,0 0.019,0.002 0.027,0.006 0.009,0.004 0.016,0.009 0.023,0.015 0.006,0.006 0.011,0.014 0.015,0.022 0.003,0.009 0.005,0.018 0.005,0.027 v 0.042 l 0.056,-0.056 c 0.014,-0.014 0.03,-0.021 0.049,-0.021 0.01,0 0.019,0.002 0.028,0.006 0.008,0.004 0.015,0.009 0.022,0.015 0.006,0.006 0.011,0.014 0.015,0.022 0.004,0.009 0.006,0.018 0.006,0.028 0,0.009 -0.002,0.018 -0.006,0.027 -0.003,0.008 -0.008,0.016 -0.015,0.022 z"
         style="fill:#f03a17;fill-rule:nonzero"
         id="path10910" /><path
         d="M 0.792,-0.174 H 0.905 C 0.892,-0.157 0.877,-0.142 0.861,-0.129 0.844,-0.116 0.827,-0.105 0.808,-0.096 0.789,-0.087 0.77,-0.08 0.749,-0.075 0.729,-0.071 0.708,-0.068 0.687,-0.068 0.662,-0.068 0.638,-0.072 0.614,-0.078 0.59,-0.085 0.567,-0.094 0.546,-0.106 v 0.178 c 0,0.01 -0.002,0.019 -0.005,0.027 C 0.537,0.108 0.532,0.115 0.526,0.121 0.519,0.128 0.512,0.133 0.503,0.136 0.495,0.14 0.486,0.142 0.476,0.142 0.466,0.142 0.457,0.14 0.448,0.137 0.44,0.133 0.432,0.128 0.426,0.122 0.42,0.115 0.415,0.108 0.411,0.099 0.408,0.091 0.406,0.082 0.406,0.072 V 0.031 L 0.35,0.086 C 0.344,0.093 0.336,0.098 0.327,0.102 0.319,0.105 0.31,0.107 0.3,0.107 0.291,0.107 0.281,0.105 0.273,0.102 0.264,0.098 0.257,0.093 0.251,0.087 0.244,0.08 0.239,0.073 0.236,0.064 0.232,0.056 0.23,0.047 0.23,0.037 0.23,0.028 0.232,0.019 0.236,0.01 0.239,0.001 0.244,-0.006 0.251,-0.013 L 0.307,-0.068 H 0.265 C 0.255,-0.068 0.246,-0.07 0.238,-0.074 0.229,-0.078 0.222,-0.083 0.216,-0.089 0.209,-0.095 0.204,-0.103 0.201,-0.111 0.197,-0.12 0.195,-0.129 0.195,-0.139 0.195,-0.148 0.197,-0.158 0.201,-0.166 0.204,-0.174 0.209,-0.182 0.216,-0.188 0.222,-0.195 0.229,-0.2 0.238,-0.203 0.246,-0.207 0.255,-0.209 0.265,-0.209 H 0.444 C 0.431,-0.23 0.422,-0.253 0.416,-0.277 0.409,-0.3 0.406,-0.324 0.406,-0.349 c 0,-0.044 0.009,-0.084 0.027,-0.122 0.019,-0.037 0.045,-0.07 0.078,-0.097 v 0.113 h 0.14 v 0.141 h 0.141 z"
         style="fill:#f2f2f2;fill-rule:nonzero"
         id="path10912" /><path
         d="m 0.967,-0.665 c 0.01,0 0.018,0.003 0.025,0.01 0.007,0.007 0.01,0.016 0.01,0.025 0,0.01 -0.003,0.018 -0.01,0.025 l -0.088,0.087 -0.05,-0.049 0.088,-0.088 c 0.007,-0.007 0.016,-0.01 0.025,-0.01 z"
         style="fill:#af0d1a;fill-rule:nonzero"
         id="path10914" /><path
         d="m 0.469,-0.181 0.05,0.05 -0.088,0.087 c -0.007,0.007 -0.015,0.01 -0.025,0.01 -0.01,0 -0.018,-0.003 -0.025,-0.01 -0.007,-0.007 -0.01,-0.015 -0.01,-0.024 0,-0.01 0.003,-0.018 0.01,-0.025 z"
         style="fill:#cccccc;fill-rule:nonzero"
         id="path10916" /></g></g></svg>
