<?xml version="1.0" encoding="UTF-8" standalone="no"?>
<svg
   width="7.8899999"
   height="16.844999"
   viewBox="0 0 7.8899999 16.844999"
   version="1.1"
   xml:space="preserve"
   style="clip-rule:evenodd;fill-rule:evenodd;stroke-linejoin:round;stroke-miterlimit:2"
   id="svg20568"
   sodipodi:docname="emojis.svg"
   xmlns:inkscape="http://www.inkscape.org/namespaces/inkscape"
   xmlns:sodipodi="http://sodipodi.sourceforge.net/DTD/sodipodi-0.dtd"
   xmlns="http://www.w3.org/2000/svg"
   xmlns:svg="http://www.w3.org/2000/svg"><defs
     id="defs20572" /><sodipodi:namedview
     id="namedview20570"
     pagecolor="#505050"
     bordercolor="#eeeeee"
     borderopacity="1"
     inkscape:pageshadow="0"
     inkscape:pageopacity="0"
     inkscape:pagecheckerboard="0" /><g
     transform="matrix(0.24,0,0,0.24,-321.1902,-529.1058)"
     id="g20566"><g
       transform="matrix(62.5,0,0,62.5,1330.48,2261.67)"
       id="g10974"><path
         d="m 0.616,-0.555 c 0.008,0.007 0.015,0.014 0.019,0.022 0.005,0.007 0.008,0.015 0.011,0.023 0.002,0.008 0.004,0.016 0.004,0.025 0.001,0.009 0.001,0.019 0.001,0.028 V 0.07 C 0.651,0.09 0.648,0.108 0.64,0.125 0.633,0.142 0.623,0.157 0.61,0.169 0.598,0.182 0.583,0.192 0.566,0.199 0.549,0.207 0.53,0.21 0.511,0.21 H 0.265 C 0.246,0.21 0.228,0.207 0.211,0.199 0.194,0.192 0.179,0.182 0.166,0.169 0.153,0.157 0.143,0.142 0.136,0.125 0.129,0.108 0.125,0.09 0.125,0.07 v -0.527 c 0,-0.009 0,-0.019 0.001,-0.028 C 0.127,-0.494 0.128,-0.502 0.13,-0.51 0.133,-0.518 0.136,-0.526 0.141,-0.534 0.146,-0.541 0.152,-0.548 0.16,-0.555 v -0.042 c 0,-0.011 0.002,-0.021 0.005,-0.032 0.004,-0.01 0.009,-0.02 0.015,-0.028 C 0.186,-0.666 0.193,-0.673 0.202,-0.68 0.211,-0.687 0.22,-0.692 0.23,-0.696 L 0.235,-0.7 c 0.003,-0.002 0.006,-0.005 0.009,-0.009 0.004,-0.003 0.007,-0.007 0.01,-0.01 0.003,-0.003 0.006,-0.007 0.008,-0.01 0.002,-0.003 0.003,-0.006 0.003,-0.008 V -0.79 c 0,-0.016 0.003,-0.032 0.01,-0.047 0.006,-0.015 0.015,-0.028 0.026,-0.039 0.011,-0.012 0.024,-0.02 0.039,-0.027 0.015,-0.006 0.031,-0.01 0.048,-0.01 0.017,0 0.033,0.004 0.048,0.01 0.015,0.007 0.028,0.015 0.039,0.027 0.011,0.011 0.02,0.024 0.026,0.039 0.007,0.015 0.01,0.031 0.01,0.047 v 0.053 c 0,0.002 0.001,0.005 0.003,0.008 0.003,0.003 0.005,0.007 0.008,0.01 0.003,0.003 0.007,0.007 0.01,0.01 0.003,0.004 0.006,0.007 0.009,0.009 l 0.005,0.004 c 0.01,0.004 0.02,0.009 0.028,0.016 0.009,0.007 0.016,0.014 0.023,0.023 0.006,0.008 0.011,0.018 0.014,0.028 0.004,0.011 0.005,0.021 0.005,0.032 z"
         style="fill-rule:nonzero"
         id="path10962" /><path
         d="M 0.265,-0.632 C 0.273,-0.64 0.281,-0.647 0.289,-0.655 0.298,-0.662 0.305,-0.67 0.312,-0.678 0.319,-0.686 0.324,-0.695 0.329,-0.705 0.333,-0.714 0.335,-0.725 0.335,-0.737 V -0.79 c 0,-0.007 0.002,-0.014 0.005,-0.02 0.002,-0.007 0.006,-0.012 0.011,-0.017 0.005,-0.005 0.01,-0.008 0.016,-0.011 0.007,-0.003 0.014,-0.004 0.021,-0.004 0.007,0 0.014,0.001 0.021,0.004 0.006,0.003 0.012,0.006 0.017,0.011 0.004,0.005 0.008,0.01 0.011,0.017 0.003,0.006 0.004,0.013 0.004,0.02 v 0.053 c 0,0.012 0.002,0.023 0.007,0.032 0.004,0.01 0.01,0.019 0.016,0.027 0.007,0.008 0.015,0.016 0.023,0.023 0.008,0.008 0.016,0.015 0.024,0.023 v 0.061 H 0.265 Z"
         style="fill:#ffb900;fill-rule:nonzero"
         id="path10964" /><path
         d="m 0.546,-0.597 v 0.115 H 0.23 v -0.115 c 0,-0.009 0.004,-0.017 0.011,-0.024 0.007,-0.007 0.015,-0.011 0.024,-0.011 h 0.246 c 0.01,0 0.018,0.004 0.025,0.011 0.006,0.007 0.01,0.015 0.01,0.024 z"
         style="fill:#00bcf2;fill-rule:nonzero"
         id="path10966" /><path
         d="m 0.546,-0.526 c 0.011,0.008 0.019,0.018 0.026,0.03 0.006,0.012 0.009,0.025 0.009,0.039 V 0.07 C 0.581,0.08 0.579,0.089 0.576,0.098 0.572,0.106 0.567,0.114 0.561,0.12 0.554,0.126 0.547,0.131 0.539,0.135 0.53,0.138 0.521,0.14 0.511,0.14 H 0.265 C 0.255,0.14 0.246,0.138 0.238,0.135 0.229,0.131 0.222,0.126 0.216,0.12 0.209,0.114 0.204,0.106 0.201,0.098 0.197,0.089 0.195,0.08 0.195,0.07 v -0.527 c 0,-0.014 0.003,-0.027 0.01,-0.039 0.006,-0.012 0.015,-0.022 0.025,-0.03 z"
         style="fill:#b3dbf2;fill-rule:nonzero"
         id="path10968" /><path
         d="m 0.23,0.035 v -0.492 h 0.316 v 0.492 c 0,0.01 -0.004,0.018 -0.01,0.025 C 0.529,0.067 0.521,0.07 0.511,0.07 H 0.265 C 0.256,0.07 0.248,0.067 0.241,0.06 0.234,0.053 0.23,0.045 0.23,0.035 Z"
         style="fill:#ffffff;fill-rule:nonzero"
         id="path10970" /><path
         d="M 0.494,0 C 0.498,0 0.502,0.002 0.506,0.005 0.509,0.009 0.511,0.013 0.511,0.018 0.511,0.022 0.509,0.026 0.506,0.03 0.502,0.033 0.498,0.035 0.494,0.035 0.489,0.035 0.485,0.033 0.481,0.03 0.478,0.027 0.476,0.022 0.476,0.018 0.476,0.013 0.478,0.009 0.481,0.005 0.485,0.002 0.489,0 0.494,0 Z m 0,-0.035 c -0.005,0 -0.009,-0.002 -0.013,-0.005 -0.003,-0.004 -0.005,-0.008 -0.005,-0.013 0,-0.005 0.002,-0.009 0.005,-0.012 0.004,-0.004 0.008,-0.005 0.013,-0.005 0.004,0 0.008,0.001 0.012,0.005 0.003,0.004 0.005,0.008 0.005,0.012 0,0.005 -0.002,0.009 -0.005,0.012 -0.004,0.004 -0.008,0.006 -0.012,0.006 z M 0.423,0 C 0.428,0 0.432,0.002 0.436,0.005 0.439,0.009 0.441,0.013 0.441,0.018 0.441,0.022 0.439,0.027 0.436,0.03 0.432,0.033 0.428,0.035 0.423,0.035 0.418,0.035 0.414,0.033 0.411,0.03 0.407,0.027 0.406,0.022 0.406,0.018 0.406,0.013 0.407,0.009 0.411,0.005 0.414,0.002 0.418,0 0.423,0 Z"
         style="fill:#f2f2f2;fill-rule:nonzero"
         id="path10972" /></g></g></svg>
