<?xml version="1.0" encoding="UTF-8" standalone="no"?>
<svg
   width="11.055"
   height="16.844999"
   viewBox="0 0 11.055 16.844999"
   version="1.1"
   xml:space="preserve"
   style="clip-rule:evenodd;fill-rule:evenodd;stroke-linejoin:round;stroke-miterlimit:2"
   id="svg20568"
   sodipodi:docname="emojis.svg"
   xmlns:inkscape="http://www.inkscape.org/namespaces/inkscape"
   xmlns:sodipodi="http://sodipodi.sourceforge.net/DTD/sodipodi-0.dtd"
   xmlns="http://www.w3.org/2000/svg"
   xmlns:svg="http://www.w3.org/2000/svg"><defs
     id="defs20572" /><sodipodi:namedview
     id="namedview20570"
     pagecolor="#505050"
     bordercolor="#eeeeee"
     borderopacity="1"
     inkscape:pageshadow="0"
     inkscape:pageopacity="0"
     inkscape:pagecheckerboard="0" /><g
     transform="matrix(0.24,0,0,0.24,-226.09932,-529.1058)"
     id="g20566"><g
       transform="matrix(62.5,0,0,62.5,934.268,2261.67)"
       id="g10906"><path
         d="M 0.231,0.21 C 0.217,0.21 0.203,0.208 0.19,0.202 0.177,0.197 0.166,0.189 0.156,0.18 0.147,0.17 0.139,0.159 0.134,0.146 0.128,0.133 0.125,0.12 0.125,0.105 v -0.912 c 0,-0.015 0.003,-0.029 0.009,-0.041 0.005,-0.013 0.013,-0.024 0.022,-0.034 0.01,-0.009 0.021,-0.017 0.034,-0.022 0.013,-0.006 0.027,-0.009 0.041,-0.009 h 0.456 c 0.014,0 0.028,0.003 0.041,0.009 0.012,0.006 0.023,0.013 0.033,0.023 0.01,0.009 0.017,0.021 0.023,0.034 0.005,0.012 0.008,0.026 0.008,0.04 v 0.111 c 0.01,0.004 0.02,0.009 0.029,0.016 0.008,0.007 0.016,0.014 0.022,0.023 0.006,0.009 0.011,0.018 0.014,0.029 0.004,0.01 0.005,0.021 0.005,0.032 v 0.197 c 0,0.011 -0.001,0.023 -0.005,0.034 -0.003,0.011 -0.008,0.022 -0.014,0.032 -0.006,0.01 -0.013,0.019 -0.022,0.026 -0.009,0.008 -0.018,0.014 -0.029,0.019 V 0.105 C 0.792,0.119 0.789,0.133 0.784,0.146 0.778,0.158 0.771,0.169 0.761,0.179 0.751,0.189 0.74,0.196 0.728,0.202 0.715,0.208 0.701,0.21 0.687,0.21 Z"
         style="fill-rule:nonzero"
         id="path10894" /><path
         d="m 0.196,-0.491 v -0.141 c 0.003,-0.006 0.005,-0.012 0.005,-0.019 0,-0.005 -0.002,-0.011 -0.005,-0.016 v -0.14 c 0,-0.01 0.003,-0.018 0.01,-0.025 0.007,-0.007 0.016,-0.01 0.025,-0.01 h 0.21 c 0.005,0.003 0.011,0.005 0.017,0.005 0.005,0 0.012,-0.002 0.018,-0.005 h 0.211 c 0.01,0 0.018,0.003 0.025,0.01 0.007,0.007 0.01,0.015 0.01,0.025 v 0.14 c -0.005,0.007 -0.007,0.013 -0.007,0.02 0,0.003 0,0.005 0.002,0.007 -0.082,0.044 -0.166,0.079 -0.253,0.103 -0.086,0.024 -0.175,0.039 -0.268,0.046 z"
         style="fill:#8e562e;fill-rule:nonzero"
         id="path10896" /><path
         d="m 0.722,-0.667 v 0.035 H 0.476 v 0.211 H 0.441 V -0.632 H 0.196 v -0.035 h 0.245 v -0.175 h 0.035 v 0.175 z"
         style="fill:#613d30;fill-rule:nonzero"
         id="path10898" /><path
         d="m 0.195,-0.491 0.551,-0.162 c 0.003,-0.001 0.007,-0.002 0.01,-0.002 0.01,0 0.018,0.004 0.025,0.011 0.007,0.007 0.011,0.015 0.011,0.025 v 0.197 c 0,0.01 -0.004,0.018 -0.011,0.025 -0.007,0.007 -0.015,0.011 -0.025,0.011 H 0.733 c -0.005,0 -0.012,0.001 -0.02,0.002 -0.008,0.002 -0.017,0.004 -0.026,0.006 -0.01,0.002 -0.019,0.004 -0.028,0.006 -0.009,0.002 -0.016,0.004 -0.022,0.005 -0.03,0.005 -0.06,0.009 -0.089,0.012 -0.03,0.003 -0.06,0.004 -0.09,0.004 C 0.414,-0.351 0.37,-0.354 0.326,-0.36 0.282,-0.366 0.239,-0.375 0.195,-0.386 Z"
         style="fill:#cccccc;fill-rule:nonzero"
         id="path10900" /><path
         d="M 0.722,-0.386 V 0.105 C 0.722,0.115 0.718,0.123 0.711,0.13 0.705,0.137 0.696,0.14 0.687,0.14 H 0.23 C 0.221,0.14 0.212,0.137 0.206,0.13 0.199,0.123 0.195,0.115 0.195,0.105 v -0.491 z"
         style="fill:#e81224;fill-rule:nonzero"
         id="path10902" /><rect
         x="0.19499999"
         y="-0.38600001"
         width="0.52600002"
         height="0.035"
         style="fill:#af0d1a;fill-rule:nonzero"
         id="rect10904" /></g></g></svg>
