<?xml version="1.0" encoding="UTF-8" standalone="no"?>
<svg
   width="16.844999"
   height="13.155"
   viewBox="0 0 16.844999 13.155"
   version="1.1"
   xml:space="preserve"
   style="clip-rule:evenodd;fill-rule:evenodd;stroke-linejoin:round;stroke-miterlimit:2"
   id="svg20568"
   sodipodi:docname="emojis.svg"
   xmlns:inkscape="http://www.inkscape.org/namespaces/inkscape"
   xmlns:sodipodi="http://sodipodi.sourceforge.net/DTD/sodipodi-0.dtd"
   xmlns="http://www.w3.org/2000/svg"
   xmlns:svg="http://www.w3.org/2000/svg"><defs
     id="defs20572" /><sodipodi:namedview
     id="namedview20570"
     pagecolor="#505050"
     bordercolor="#eeeeee"
     borderopacity="1"
     inkscape:pageshadow="0"
     inkscape:pageopacity="0"
     inkscape:pagecheckerboard="0" /><g
     transform="matrix(0.24,0,0,0.24,-282.1014,-531.2208)"
     id="g20566"><g
       transform="matrix(62.5,0,0,62.5,1167.61,2261.67)"
       id="g10946"><path
         d="M 0.687,0.105 C 0.652,0.105 0.618,0.104 0.583,0.101 0.549,0.098 0.515,0.093 0.481,0.087 0.459,0.083 0.435,0.078 0.409,0.071 0.383,0.064 0.356,0.056 0.33,0.045 0.304,0.035 0.278,0.023 0.253,0.01 0.229,-0.004 0.207,-0.02 0.188,-0.039 0.169,-0.057 0.153,-0.077 0.142,-0.1 0.131,-0.122 0.125,-0.148 0.125,-0.176 V -0.21 c 0,-0.028 0.006,-0.054 0.019,-0.077 0.012,-0.023 0.028,-0.043 0.047,-0.062 0.02,-0.018 0.042,-0.034 0.066,-0.047 0.024,-0.014 0.047,-0.026 0.07,-0.035 0.008,-0.034 0.015,-0.069 0.023,-0.103 0.007,-0.034 0.015,-0.068 0.023,-0.103 0.005,-0.019 0.013,-0.036 0.026,-0.05 0.013,-0.014 0.028,-0.026 0.046,-0.036 0.018,-0.01 0.038,-0.018 0.059,-0.025 0.022,-0.006 0.043,-0.011 0.065,-0.015 0.022,-0.003 0.043,-0.006 0.063,-0.007 0.02,-0.001 0.039,-0.002 0.055,-0.002 0.015,0 0.034,0.001 0.054,0.002 0.02,0.001 0.041,0.004 0.063,0.007 0.022,0.004 0.043,0.009 0.065,0.015 0.021,0.007 0.041,0.015 0.059,0.025 0.018,0.01 0.033,0.022 0.046,0.036 0.013,0.014 0.021,0.031 0.026,0.05 0.008,0.035 0.016,0.069 0.023,0.103 0.008,0.034 0.015,0.069 0.023,0.103 0.023,0.009 0.047,0.021 0.07,0.035 0.024,0.013 0.046,0.029 0.066,0.047 0.019,0.019 0.035,0.039 0.047,0.062 0.013,0.023 0.019,0.049 0.019,0.077 v 0.034 c 0,0.028 -0.006,0.054 -0.017,0.076 C 1.22,-0.077 1.204,-0.057 1.185,-0.039 1.166,-0.021 1.144,-0.005 1.119,0.009 1.095,0.023 1.069,0.035 1.043,0.045 1.017,0.055 0.99,0.064 0.964,0.071 0.938,0.078 0.914,0.083 0.892,0.087 0.858,0.093 0.824,0.098 0.79,0.101 0.755,0.104 0.721,0.105 0.687,0.105 Z"
         style="fill-rule:nonzero"
         id="path10934" /><path
         d="m 1.178,-0.21 v 0.034 c 0,0.02 -0.006,0.038 -0.016,0.055 C 1.151,-0.104 1.137,-0.089 1.12,-0.076 1.103,-0.062 1.083,-0.05 1.062,-0.04 1.04,-0.029 1.018,-0.02 0.996,-0.012 0.973,-0.005 0.952,0.002 0.931,0.007 0.911,0.012 0.893,0.016 0.878,0.019 0.846,0.024 0.815,0.028 0.783,0.031 0.751,0.034 0.719,0.035 0.687,0.035 0.654,0.035 0.622,0.034 0.59,0.031 0.558,0.028 0.527,0.024 0.495,0.019 0.48,0.016 0.462,0.012 0.442,0.007 0.421,0.002 0.4,-0.005 0.377,-0.012 0.355,-0.02 0.333,-0.029 0.312,-0.04 0.29,-0.05 0.27,-0.062 0.253,-0.076 0.236,-0.089 0.222,-0.104 0.211,-0.121 0.201,-0.138 0.195,-0.156 0.195,-0.176 V -0.21 Z"
         style="fill:#cccccc;fill-rule:nonzero"
         id="path10936" /><path
         d="m 1.178,-0.21 c 0,0.019 -0.005,0.037 -0.016,0.053 -0.01,0.016 -0.023,0.031 -0.04,0.044 -0.016,0.014 -0.035,0.025 -0.056,0.036 -0.02,0.01 -0.042,0.019 -0.063,0.027 C 0.982,-0.042 0.961,-0.036 0.941,-0.031 0.922,-0.026 0.904,-0.021 0.89,-0.019 0.856,-0.012 0.822,-0.007 0.789,-0.004 0.755,-0.001 0.721,0 0.687,0 0.652,0 0.618,-0.001 0.584,-0.004 0.551,-0.007 0.517,-0.012 0.483,-0.019 0.469,-0.021 0.451,-0.026 0.432,-0.031 0.412,-0.036 0.391,-0.042 0.37,-0.05 0.349,-0.058 0.327,-0.067 0.307,-0.077 0.286,-0.088 0.267,-0.099 0.251,-0.113 0.234,-0.126 0.221,-0.141 0.211,-0.157 0.2,-0.174 0.195,-0.191 0.195,-0.21 0.195,-0.23 0.201,-0.249 0.211,-0.265 0.222,-0.282 0.236,-0.297 0.253,-0.31 0.27,-0.324 0.29,-0.336 0.312,-0.346 0.333,-0.357 0.355,-0.366 0.377,-0.374 0.4,-0.381 0.421,-0.388 0.442,-0.393 0.462,-0.398 0.48,-0.402 0.495,-0.405 0.527,-0.41 0.558,-0.414 0.59,-0.417 0.622,-0.42 0.654,-0.421 0.687,-0.421 c 0.032,0 0.064,0.001 0.096,0.004 0.032,0.003 0.063,0.007 0.095,0.012 0.015,0.003 0.033,0.007 0.053,0.012 0.021,0.005 0.042,0.012 0.065,0.019 0.022,0.008 0.044,0.017 0.066,0.028 0.021,0.01 0.041,0.022 0.058,0.036 0.017,0.013 0.031,0.028 0.042,0.045 0.01,0.016 0.016,0.035 0.016,0.055 z"
         style="fill:#f2f2f2;fill-rule:nonzero"
         id="path10938" /><path
         d="m 1.078,-0.21 c 0,0.011 -0.005,0.021 -0.015,0.031 C 1.053,-0.169 1.04,-0.16 1.024,-0.152 1.009,-0.144 0.991,-0.137 0.972,-0.131 0.953,-0.124 0.935,-0.119 0.917,-0.114 0.898,-0.109 0.882,-0.105 0.866,-0.102 0.851,-0.099 0.839,-0.097 0.832,-0.096 0.809,-0.092 0.786,-0.089 0.763,-0.088 0.74,-0.086 0.717,-0.085 0.694,-0.085 0.67,-0.085 0.646,-0.086 0.622,-0.087 0.598,-0.089 0.575,-0.091 0.551,-0.095 0.543,-0.096 0.532,-0.097 0.517,-0.1 0.503,-0.102 0.486,-0.106 0.469,-0.11 0.451,-0.114 0.433,-0.118 0.414,-0.124 0.395,-0.13 0.378,-0.136 0.363,-0.143 0.348,-0.151 0.335,-0.159 0.326,-0.168 0.316,-0.177 0.311,-0.187 0.311,-0.198 c 0,0 0.001,-0.003 0.004,-0.008 0.002,-0.004 0.005,-0.01 0.009,-0.018 0.003,-0.007 0.007,-0.015 0.012,-0.023 L 0.359,-0.29 c 0.003,-0.006 0.005,-0.009 0.006,-0.011 0.001,-0.003 0.003,-0.006 0.005,-0.009 0.002,-0.003 0.004,-0.006 0.005,-0.009 0.009,-0.044 0.019,-0.087 0.029,-0.13 0.009,-0.043 0.019,-0.086 0.028,-0.13 h 0.509 l 0.058,0.26 c 0.001,0.002 0.004,0.006 0.008,0.012 0.005,0.006 0.01,0.013 0.016,0.02 0.006,0.008 0.012,0.016 0.018,0.025 0.007,0.009 0.012,0.017 0.018,0.025 0.005,0.007 0.01,0.013 0.013,0.018 0.004,0.006 0.006,0.008 0.006,0.009 z"
         style="fill:#ffc83d;fill-rule:nonzero"
         id="path10940" /><path
         d="M 0.687,-0.491 C 0.67,-0.491 0.651,-0.492 0.628,-0.494 0.606,-0.496 0.583,-0.499 0.56,-0.503 0.536,-0.508 0.515,-0.514 0.494,-0.522 0.474,-0.53 0.458,-0.54 0.446,-0.553 0.443,-0.556 0.44,-0.56 0.437,-0.565 0.434,-0.57 0.432,-0.575 0.432,-0.579 c 0,0 0.001,-0.003 0.001,-0.007 L 0.439,-0.613 C 0.44,-0.617 0.441,-0.62 0.441,-0.621 h 0.49 l 0.008,0.035 c 0.001,0.004 0.002,0.007 0.002,0.007 0,0.004 -0.002,0.009 -0.005,0.014 C 0.933,-0.56 0.93,-0.556 0.927,-0.553 0.919,-0.545 0.91,-0.537 0.898,-0.531 0.886,-0.525 0.873,-0.519 0.858,-0.515 0.844,-0.51 0.829,-0.506 0.813,-0.503 0.798,-0.5 0.782,-0.498 0.767,-0.496 c -0.015,0.001 -0.03,0.003 -0.044,0.004 -0.013,0 -0.026,0.001 -0.036,0.001 z"
         style="fill:#613d30;fill-rule:nonzero"
         id="path10942" /><path
         d="m 0.932,-0.614 c 0,0.009 -0.003,0.016 -0.008,0.023 C 0.918,-0.584 0.91,-0.577 0.901,-0.572 0.892,-0.566 0.882,-0.561 0.871,-0.556 0.86,-0.552 0.848,-0.548 0.837,-0.545 0.826,-0.542 0.816,-0.54 0.806,-0.538 0.796,-0.536 0.788,-0.534 0.782,-0.533 0.766,-0.531 0.75,-0.529 0.735,-0.528 0.719,-0.527 0.703,-0.526 0.687,-0.526 0.67,-0.526 0.654,-0.527 0.638,-0.528 0.623,-0.529 0.607,-0.531 0.591,-0.533 0.585,-0.534 0.577,-0.536 0.567,-0.538 0.557,-0.54 0.547,-0.542 0.536,-0.545 0.525,-0.548 0.513,-0.552 0.502,-0.556 0.491,-0.561 0.481,-0.566 0.472,-0.572 0.463,-0.577 0.455,-0.584 0.449,-0.591 0.444,-0.598 0.441,-0.606 0.441,-0.614 c 0,-0.004 0,-0.006 0,-0.007 0.004,-0.011 0.011,-0.021 0.022,-0.03 0.011,-0.008 0.023,-0.016 0.038,-0.022 0.015,-0.006 0.032,-0.011 0.05,-0.014 0.017,-0.004 0.035,-0.007 0.052,-0.009 0.016,-0.003 0.032,-0.004 0.047,-0.005 0.015,-0.001 0.027,-0.001 0.037,-0.001 0.016,0 0.032,0 0.048,0.001 0.015,0.001 0.031,0.003 0.047,0.006 0.006,0.001 0.014,0.002 0.024,0.004 0.01,0.002 0.02,0.005 0.031,0.008 0.011,0.003 0.023,0.006 0.034,0.011 0.011,0.004 0.021,0.009 0.03,0.015 0.009,0.006 0.017,0.012 0.023,0.019 0.005,0.007 0.008,0.015 0.008,0.024 z m 0.175,0.404 c 0,0.016 -0.005,0.031 -0.014,0.044 C 1.083,-0.153 1.07,-0.141 1.054,-0.131 1.038,-0.12 1.02,-0.111 1,-0.103 0.98,-0.095 0.96,-0.088 0.94,-0.082 0.921,-0.076 0.902,-0.071 0.884,-0.068 0.866,-0.064 0.852,-0.062 0.84,-0.06 0.815,-0.056 0.789,-0.053 0.764,-0.052 0.738,-0.05 0.712,-0.049 0.687,-0.049 0.661,-0.049 0.635,-0.05 0.609,-0.052 0.584,-0.053 0.558,-0.056 0.533,-0.06 0.521,-0.062 0.506,-0.064 0.489,-0.068 0.471,-0.071 0.452,-0.076 0.432,-0.082 0.412,-0.088 0.392,-0.095 0.373,-0.103 0.353,-0.111 0.335,-0.12 0.319,-0.131 0.303,-0.141 0.29,-0.153 0.28,-0.167 0.27,-0.18 0.265,-0.194 0.265,-0.21 c 0,-0.014 0.004,-0.026 0.011,-0.038 0.008,-0.011 0.017,-0.021 0.028,-0.03 0.011,-0.009 0.023,-0.017 0.035,-0.024 0.013,-0.007 0.025,-0.013 0.036,-0.017 -0.001,0.005 -0.003,0.012 -0.006,0.022 -0.002,0.009 -0.004,0.019 -0.007,0.029 -0.002,0.01 -0.004,0.02 -0.006,0.029 -0.002,0.009 -0.003,0.016 -0.003,0.02 0,0.011 0.004,0.021 0.012,0.03 0.007,0.009 0.017,0.017 0.029,0.025 0.012,0.007 0.026,0.013 0.041,0.019 0.015,0.006 0.029,0.01 0.044,0.014 0.015,0.004 0.029,0.008 0.042,0.01 0.013,0.003 0.023,0.005 0.031,0.006 0.022,0.003 0.045,0.006 0.067,0.007 0.023,0.002 0.045,0.003 0.068,0.003 0.022,0 0.044,-0.001 0.067,-0.003 0.022,-0.001 0.045,-0.004 0.067,-0.007 0.008,-0.001 0.018,-0.003 0.031,-0.006 0.013,-0.002 0.027,-0.006 0.042,-0.01 0.015,-0.004 0.03,-0.008 0.044,-0.014 0.015,-0.006 0.029,-0.012 0.041,-0.019 0.012,-0.008 0.022,-0.016 0.03,-0.025 0.007,-0.009 0.011,-0.019 0.011,-0.03 0,-0.002 0,-0.003 0,-0.005 C 1.019,-0.226 1.019,-0.227 1.019,-0.229 l -0.02,-0.09 c 0.01,0.004 0.022,0.01 0.034,0.017 0.013,0.007 0.025,0.015 0.036,0.024 0.011,0.009 0.02,0.019 0.027,0.03 0.008,0.011 0.011,0.024 0.011,0.038 z"
         style="fill:#8e562e;fill-rule:nonzero"
         id="path10944" /></g></g></svg>
