<?xml version="1.0" encoding="UTF-8" standalone="no"?>
<svg
   width="16.844999"
   height="16.844999"
   viewBox="0 0 16.844999 16.844999"
   version="1.1"
   xml:space="preserve"
   style="clip-rule:evenodd;fill-rule:evenodd;stroke-linejoin:round;stroke-miterlimit:2"
   id="svg20568"
   sodipodi:docname="emojis.svg"
   xmlns:inkscape="http://www.inkscape.org/namespaces/inkscape"
   xmlns:sodipodi="http://sodipodi.sourceforge.net/DTD/sodipodi-0.dtd"
   xmlns="http://www.w3.org/2000/svg"
   xmlns:svg="http://www.w3.org/2000/svg"><defs
     id="defs20572" /><sodipodi:namedview
     id="namedview20570"
     pagecolor="#505050"
     bordercolor="#eeeeee"
     borderopacity="1"
     inkscape:pageshadow="0"
     inkscape:pageopacity="0"
     inkscape:pagecheckerboard="0" /><g
     transform="matrix(0.24,0,0,0.24,-407.8638,-529.1058)"
     id="g20566"><g
       transform="matrix(62.5,0,0,62.5,1691.62,2261.67)"
       id="g11064"><path
         d="m 0.3,-0.913 c 0.015,0 0.029,0.003 0.041,0.008 0.013,0.006 0.024,0.013 0.034,0.023 0.009,0.009 0.017,0.02 0.022,0.033 0.006,0.013 0.009,0.026 0.009,0.041 0,0.005 -0.001,0.011 -0.002,0.016 L 0.45,-0.701 0.458,-0.7 c 0.006,-0.001 0.012,-0.002 0.018,-0.002 0.016,0 0.032,0.003 0.046,0.011 0.015,0.007 0.027,0.017 0.037,0.029 0.015,0.006 0.028,0.015 0.038,0.027 0.01,0.013 0.016,0.027 0.018,0.043 l 0.053,0.053 c 0.007,0.007 0.014,0.014 0.02,0.019 0.006,0.006 0.012,0.011 0.019,0.015 0.007,0.004 0.014,0.008 0.022,0.01 0.008,0.003 0.017,0.004 0.028,0.004 0.029,0 0.058,0.005 0.086,0.016 0.027,0.01 0.052,0.025 0.074,0.045 0.006,0.005 0.011,0.01 0.016,0.015 0.005,0.006 0.011,0.011 0.016,0.017 l 0.268,0.268 c 0.01,0.009 0.018,0.021 0.023,0.034 0.005,0.013 0.008,0.026 0.008,0.04 0,0.029 -0.01,0.054 -0.031,0.075 L 1.056,0.18 C 1.036,0.2 1.011,0.21 0.982,0.21 0.968,0.21 0.954,0.208 0.941,0.202 0.928,0.197 0.917,0.189 0.907,0.18 L 0.639,-0.089 C 0.634,-0.094 0.629,-0.099 0.623,-0.104 0.618,-0.109 0.612,-0.115 0.607,-0.12 0.588,-0.142 0.573,-0.167 0.562,-0.195 0.552,-0.222 0.546,-0.251 0.546,-0.281 0.546,-0.294 0.544,-0.307 0.539,-0.318 0.535,-0.329 0.528,-0.339 0.521,-0.348 0.514,-0.357 0.505,-0.365 0.496,-0.374 0.487,-0.382 0.478,-0.39 0.469,-0.399 0.455,-0.39 0.44,-0.386 0.423,-0.386 0.411,-0.386 0.399,-0.389 0.389,-0.393 0.378,-0.398 0.369,-0.404 0.361,-0.412 0.353,-0.42 0.347,-0.429 0.342,-0.44 0.338,-0.45 0.335,-0.462 0.335,-0.474 V -0.562 L 0.337,-0.579 0.336,-0.588 0.246,-0.633 C 0.241,-0.632 0.235,-0.632 0.23,-0.632 0.216,-0.632 0.202,-0.635 0.189,-0.64 0.176,-0.646 0.165,-0.653 0.156,-0.663 0.146,-0.672 0.139,-0.683 0.133,-0.696 0.128,-0.709 0.125,-0.723 0.125,-0.737 c 0,-0.014 0.003,-0.028 0.008,-0.041 0.005,-0.012 0.013,-0.024 0.023,-0.034 l 0.07,-0.07 C 0.236,-0.892 0.247,-0.899 0.26,-0.905 0.273,-0.91 0.286,-0.913 0.3,-0.913 Z"
         style="fill-rule:nonzero"
         id="path11042" /><path
         d="m 0.406,-0.597 c 0,-0.009 0.003,-0.018 0.01,-0.025 0.007,-0.006 0.015,-0.01 0.025,-0.01 0.006,0 0.012,0.002 0.017,0.005 0.006,-0.003 0.012,-0.005 0.018,-0.005 0.01,0 0.018,0.004 0.025,0.011 0.007,0.007 0.01,0.015 0.01,0.024 0,0.005 0.001,0.009 0.002,0.014 0.001,0.004 0.001,0.009 0.001,0.014 l -0.056,0.06 H 0.441 v 0.035 c 0,0.005 -0.002,0.009 -0.005,0.012 -0.004,0.004 -0.008,0.005 -0.013,0.005 -0.005,0 -0.009,-0.001 -0.012,-0.005 C 0.407,-0.465 0.406,-0.469 0.406,-0.474 v -0.088 c 0,-0.005 10e-4,-0.011 0.005,-0.017 C 0.407,-0.585 0.406,-0.591 0.406,-0.597 Z"
         style="fill:#f2f2f2;fill-rule:nonzero"
         id="path11044" /><path
         d="m 0.371,-0.702 -0.036,0.035 -0.12,-0.06 0.096,-0.095 z"
         style="fill:#d8b094;fill-rule:nonzero"
         id="path11046" /><path
         d="m 0.23,-0.702 c -0.009,0 -0.017,-0.004 -0.024,-0.01 -0.007,-0.007 -0.011,-0.015 -0.011,-0.025 0,-0.01 0.004,-0.018 0.011,-0.025 l 0.07,-0.07 c 0.007,-0.007 0.015,-0.01 0.025,-0.01 0.009,0 0.017,0.003 0.024,0.01 0.007,0.007 0.01,0.015 0.01,0.025 0,0.009 -0.003,0.017 -0.01,0.024 l -0.07,0.071 c -0.007,0.006 -0.015,0.01 -0.025,0.01 z"
         style="fill:#bb9167;fill-rule:nonzero"
         id="path11048" /><path
         d="m 1.178,-0.056 c 0,0.01 -0.004,0.018 -0.011,0.025 L 1.007,0.13 C 1,0.137 0.992,0.14 0.982,0.14 0.972,0.14 0.964,0.137 0.957,0.13 L 0.687,-0.141 C 0.683,-0.145 0.679,-0.148 0.675,-0.152 0.67,-0.155 0.667,-0.159 0.663,-0.163 0.648,-0.179 0.637,-0.197 0.629,-0.218 0.62,-0.238 0.616,-0.259 0.616,-0.281 0.616,-0.283 0.617,-0.286 0.618,-0.289 0.62,-0.293 0.621,-0.297 0.623,-0.302 0.625,-0.307 0.626,-0.312 0.628,-0.317 0.629,-0.323 0.63,-0.327 0.63,-0.332 0.63,-0.35 0.626,-0.366 0.618,-0.382 0.61,-0.397 0.599,-0.412 0.587,-0.425 0.575,-0.439 0.562,-0.452 0.549,-0.464 0.535,-0.476 0.522,-0.488 0.51,-0.499 l -0.039,0.002 -0.013,-0.012 0.071,-0.07 0.053,0.053 -0.013,0.028 c 0.009,0.009 0.019,0.019 0.03,0.029 0.012,0.01 0.024,0.02 0.037,0.029 0.012,0.008 0.026,0.016 0.039,0.021 0.014,0.006 0.027,0.009 0.04,0.009 0.004,0 0.008,-0.001 0.012,-0.002 0.004,-0.001 0.008,-0.002 0.012,-0.004 0.004,-0.001 0.007,-0.003 0.01,-0.004 0.003,-0.001 0.006,-0.001 0.008,-0.001 0.021,0 0.042,0.004 0.063,0.012 0.02,0.008 0.039,0.02 0.055,0.034 0.003,0.004 0.007,0.008 0.011,0.012 0.003,0.004 0.007,0.008 0.011,0.012 l 0.27,0.27 c 0.007,0.007 0.011,0.016 0.011,0.025 z"
         style="fill:#13a10e;fill-rule:nonzero"
         id="path11050" /><path
         d="m 0.529,-0.597 c 0.004,0 0.008,0.002 0.012,0.006 0.004,0.003 0.005,0.007 0.005,0.012 0,0.003 -0.001,0.006 -0.003,0.01 -0.003,0.003 -0.006,0.007 -0.009,0.01 l -0.018,0.017 0.073,0.073 c 0.005,0.004 0.009,0.009 0.014,0.014 0.004,0.005 0.009,0.01 0.014,0.014 0.019,0.018 0.041,0.031 0.065,0.041 0.024,0.009 0.049,0.014 0.075,0.014 0.008,0 0.016,0.001 0.025,0.002 0.009,0.002 0.018,0.005 0.026,0.008 0.009,0.004 0.017,0.008 0.024,0.013 0.008,0.005 0.014,0.01 0.02,0.016 0.041,0.041 0.081,0.083 0.122,0.123 0.041,0.041 0.082,0.082 0.123,0.123 0.007,0.007 0.011,0.015 0.011,0.025 0,0.009 -0.004,0.018 -0.011,0.025 L 0.986,0.06 C 0.979,0.067 0.971,0.07 0.961,0.07 0.951,0.07 0.943,0.067 0.937,0.06 L 0.709,-0.167 C 0.706,-0.171 0.702,-0.174 0.699,-0.177 0.696,-0.18 0.692,-0.183 0.689,-0.187 0.678,-0.2 0.668,-0.215 0.662,-0.23 0.655,-0.245 0.651,-0.262 0.651,-0.281 0.651,-0.309 0.646,-0.335 0.636,-0.358 0.627,-0.381 0.612,-0.403 0.594,-0.424 0.59,-0.428 0.587,-0.432 0.583,-0.436 0.579,-0.44 0.575,-0.443 0.571,-0.446 0.559,-0.454 0.547,-0.462 0.535,-0.47 0.523,-0.477 0.51,-0.485 0.498,-0.492 L 0.471,-0.497 C 0.467,-0.493 0.463,-0.491 0.458,-0.491 0.454,-0.491 0.45,-0.493 0.446,-0.497 0.443,-0.5 0.441,-0.504 0.441,-0.509 c 0,-0.005 0.002,-0.009 0.005,-0.012 l 0.07,-0.071 c 0.003,-0.003 0.008,-0.005 0.013,-0.005 z"
         style="fill:#107c10;fill-rule:nonzero"
         id="path11052" /><path
         d="M 1.09,-0.123 0.915,0.053 0.704,-0.158 0.879,-0.333 Z"
         style="fill:#e5e5e5;fill-rule:nonzero"
         id="path11054" /><path
         d="m 0.581,-0.526 c 0.014,0.013 0.027,0.026 0.039,0.039 0.012,0.012 0.024,0.024 0.038,0.033 0.013,0.01 0.028,0.018 0.043,0.024 0.016,0.006 0.035,0.009 0.056,0.009 l -0.021,0.02 c 0.007,0.007 0.012,0.014 0.015,0.023 0.004,0.008 0.006,0.017 0.006,0.027 0,0.01 -0.002,0.019 -0.006,0.027 -0.004,0.009 -0.009,0.016 -0.015,0.022 -0.006,0.007 -0.014,0.012 -0.022,0.016 -0.009,0.003 -0.018,0.005 -0.027,0.005 -0.01,0 -0.019,-0.002 -0.028,-0.005 C 0.651,-0.29 0.643,-0.295 0.637,-0.301 l -0.021,0.02 C 0.616,-0.305 0.612,-0.326 0.603,-0.346 0.594,-0.366 0.582,-0.385 0.566,-0.402 0.563,-0.406 0.56,-0.409 0.557,-0.412 0.553,-0.415 0.55,-0.418 0.546,-0.421 L 0.471,-0.497 0.487,-0.513 Z"
         style="fill:#dfbe00;fill-rule:nonzero"
         id="path11056" /><path
         d="m 0.687,-0.386 c 0.009,0 0.018,0.003 0.024,0.01 0.007,0.007 0.011,0.015 0.011,0.025 0,0.01 -0.004,0.018 -0.011,0.025 -0.006,0.007 -0.015,0.01 -0.024,0.01 -0.01,0 -0.019,-0.003 -0.025,-0.01 -0.007,-0.007 -0.011,-0.015 -0.011,-0.025 0,-0.01 0.004,-0.018 0.011,-0.025 0.006,-0.007 0.015,-0.01 0.025,-0.01 z m 0.21,0.21 c 0.009,0 0.018,0.004 0.025,0.011 0.007,0.007 0.01,0.015 0.01,0.024 0,0.01 -0.003,0.018 -0.01,0.025 -0.007,0.007 -0.015,0.011 -0.025,0.011 -0.009,0 -0.018,-0.004 -0.025,-0.011 -0.007,-0.007 -0.01,-0.015 -0.01,-0.025 0,-0.009 0.003,-0.017 0.01,-0.024 0.007,-0.007 0.016,-0.011 0.025,-0.011 z"
         style="fill:#e81224;fill-rule:nonzero"
         id="path11058" /><path
         d="M 0.922,0 0.897,-0.025 1.013,-0.141 1.038,-0.116 Z M 0.897,-0.256 0.782,-0.141 0.757,-0.166 0.872,-0.281 Z"
         style="fill:#383838;fill-rule:nonzero"
         id="path11060" /><path
         d="m 0.779,-0.272 c 0.003,0 0.004,0.001 0.004,0.004 0,0.003 -0.001,0.005 -0.004,0.005 -0.003,0 -0.005,-0.002 -0.005,-0.005 0,-0.003 0.002,-0.004 0.005,-0.004 z m 0,-0.04 c 0.006,0 0.009,0.003 0.009,0.009 0,0.006 -0.003,0.009 -0.009,0.009 -0.006,0 -0.009,-0.003 -0.009,-0.009 0,-0.006 0.003,-0.009 0.009,-0.009 z m 0,-0.039 c 0.003,0 0.006,0.001 0.009,0.004 0.003,0.002 0.004,0.006 0.004,0.009 0,0.004 -0.001,0.007 -0.004,0.009 -0.003,0.003 -0.006,0.004 -0.009,0.004 -0.004,0 -0.007,-0.001 -0.009,-0.004 -0.003,-0.002 -0.004,-0.005 -0.004,-0.009 0,-0.003 0.001,-0.007 0.004,-0.009 0.002,-0.003 0.005,-0.004 0.009,-0.004 z"
         style="fill:#13a10e;fill-rule:nonzero"
         id="path11062" /></g></g></svg>
