<?xml version="1.0" encoding="UTF-8" standalone="no"?>
<svg
   width="14.745"
   height="16.334999"
   viewBox="0 0 14.745 16.334999"
   version="1.1"
   xml:space="preserve"
   style="clip-rule:evenodd;fill-rule:evenodd;stroke-linejoin:round;stroke-miterlimit:2"
   id="svg20568"
   sodipodi:docname="emojis.svg"
   xmlns:inkscape="http://www.inkscape.org/namespaces/inkscape"
   xmlns:sodipodi="http://sodipodi.sourceforge.net/DTD/sodipodi-0.dtd"
   xmlns="http://www.w3.org/2000/svg"
   xmlns:svg="http://www.w3.org/2000/svg"><defs
     id="defs20572" /><sodipodi:namedview
     id="namedview20570"
     pagecolor="#505050"
     bordercolor="#eeeeee"
     borderopacity="1"
     inkscape:pageshadow="0"
     inkscape:pageopacity="0"
     inkscape:pagecheckerboard="0" /><g
     transform="matrix(0.24,0,0,0.24,-466.8432,-110.71908)"
     id="g20566"><g
       transform="matrix(62.5,0,0,62.5,1935.18,518.392)"
       id="g1112"><path
         d="m 0.651,-0.913 c 0.034,0 0.067,0.003 0.1,0.009 0.033,0.005 0.066,0.014 0.097,0.025 0.04,0.014 0.078,0.033 0.113,0.057 0.036,0.024 0.067,0.052 0.094,0.083 0.027,0.032 0.048,0.067 0.064,0.106 0.016,0.038 0.024,0.08 0.024,0.124 v 0.052 c 0,0.031 -0.004,0.059 -0.012,0.086 -0.008,0.026 -0.02,0.052 -0.036,0.078 -0.005,0.008 -0.01,0.016 -0.012,0.025 -0.003,0.008 -0.006,0.016 -0.007,0.025 -0.002,0.008 -0.002,0.016 -0.003,0.025 0,0.009 0,0.017 0,0.027 v 0.015 c 0,0.024 -0.005,0.047 -0.014,0.068 C 1.05,-0.086 1.037,-0.068 1.021,-0.052 1.005,-0.036 0.987,-0.023 0.966,-0.014 0.944,-0.005 0.922,0 0.897,0 V 0.053 C 0.897,0.07 0.894,0.086 0.887,0.1 0.881,0.115 0.872,0.128 0.861,0.139 0.85,0.15 0.837,0.159 0.822,0.166 0.807,0.172 0.791,0.175 0.774,0.175 H 0.739 c -0.006,0 -0.012,0 -0.018,-0.001 C 0.715,0.173 0.71,0.172 0.704,0.17 0.697,0.173 0.69,0.174 0.682,0.175 0.675,0.175 0.667,0.176 0.66,0.176 L 0.634,0.175 c -0.006,0 -0.012,0 -0.018,-0.001 C 0.61,0.173 0.604,0.172 0.599,0.17 0.591,0.173 0.584,0.174 0.577,0.175 0.569,0.175 0.562,0.176 0.554,0.176 L 0.529,0.175 C 0.512,0.175 0.496,0.172 0.481,0.166 0.466,0.159 0.453,0.15 0.442,0.139 0.431,0.128 0.422,0.115 0.416,0.1 0.409,0.086 0.406,0.07 0.406,0.053 V 0 C 0.382,0 0.359,-0.005 0.338,-0.014 0.316,-0.023 0.298,-0.036 0.282,-0.052 0.266,-0.067 0.253,-0.086 0.244,-0.107 0.235,-0.128 0.23,-0.151 0.23,-0.176 V -0.21 C 0.23,-0.226 0.229,-0.24 0.225,-0.254 0.222,-0.268 0.216,-0.281 0.208,-0.293 0.196,-0.312 0.187,-0.329 0.18,-0.345 0.174,-0.361 0.169,-0.377 0.167,-0.393 0.164,-0.409 0.162,-0.425 0.161,-0.442 0.16,-0.459 0.16,-0.478 0.16,-0.499 v -0.01 c 0,-0.044 0.008,-0.086 0.024,-0.124 C 0.2,-0.672 0.221,-0.707 0.248,-0.739 0.275,-0.77 0.306,-0.798 0.342,-0.822 0.377,-0.846 0.415,-0.865 0.455,-0.879 0.486,-0.89 0.518,-0.899 0.552,-0.904 0.585,-0.91 0.618,-0.913 0.651,-0.913 Z"
         style="fill-rule:nonzero"
         id="path1104" /><path
         d="m 0.651,-0.089 0.185,0.054 C 0.83,-0.024 0.827,-0.012 0.827,0 V 0.053 C 0.827,0.06 0.825,0.067 0.823,0.073 0.82,0.079 0.816,0.085 0.811,0.09 0.807,0.094 0.801,0.098 0.795,0.101 0.788,0.104 0.782,0.105 0.774,0.105 H 0.739 C 0.733,0.105 0.726,0.104 0.72,0.102 0.714,0.1 0.709,0.096 0.704,0.092 0.698,0.098 0.691,0.101 0.683,0.103 0.675,0.105 0.667,0.105 0.659,0.105 H 0.634 C 0.627,0.105 0.621,0.104 0.615,0.102 0.609,0.1 0.604,0.096 0.599,0.092 0.592,0.098 0.585,0.101 0.577,0.103 0.569,0.105 0.561,0.105 0.553,0.105 H 0.529 C 0.522,0.105 0.515,0.104 0.509,0.101 0.502,0.098 0.497,0.094 0.492,0.09 0.487,0.085 0.483,0.08 0.48,0.073 0.477,0.067 0.476,0.06 0.476,0.053 L 0.477,0.016 C 0.477,0.007 0.476,-0.002 0.475,-0.011 0.474,-0.02 0.471,-0.028 0.466,-0.035 Z"
         style="fill:#a6a6a6;fill-rule:nonzero"
         id="path1106" /><path
         d="m 1.073,-0.457 c 0,0.023 -0.003,0.044 -0.009,0.065 -0.005,0.02 -0.014,0.04 -0.026,0.059 -0.009,0.013 -0.016,0.026 -0.021,0.038 -0.004,0.012 -0.008,0.024 -0.01,0.037 -0.002,0.013 -0.004,0.026 -0.004,0.039 0,0.014 -10e-4,0.028 -10e-4,0.043 0,0.015 -0.002,0.029 -0.008,0.041 -0.005,0.013 -0.013,0.024 -0.023,0.034 -0.009,0.009 -0.02,0.017 -0.033,0.022 -0.013,0.006 -0.026,0.009 -0.041,0.009 -0.012,0 -0.024,0.003 -0.035,0.009 -0.011,0.007 -0.02,0.015 -0.026,0.026 H 0.792 V 0.05 C 0.792,0.054 0.791,0.058 0.789,0.061 0.787,0.064 0.785,0.066 0.781,0.067 0.778,0.069 0.775,0.07 0.771,0.07 0.767,0.071 0.763,0.071 0.759,0.071 L 0.742,0.07 C 0.736,0.07 0.731,0.068 0.728,0.064 0.724,0.06 0.722,0.055 0.722,0.05 V -0.035 H 0.687 V 0.05 C 0.687,0.054 0.686,0.058 0.684,0.061 0.682,0.064 0.679,0.066 0.676,0.067 0.673,0.069 0.67,0.07 0.666,0.07 0.662,0.071 0.658,0.071 0.654,0.071 L 0.637,0.07 C 0.631,0.07 0.626,0.068 0.622,0.064 0.618,0.06 0.616,0.055 0.616,0.05 V -0.035 H 0.581 V 0.05 C 0.581,0.054 0.58,0.058 0.578,0.061 0.577,0.064 0.574,0.066 0.571,0.067 0.568,0.069 0.565,0.07 0.562,0.07 0.558,0.071 0.554,0.071 0.55,0.071 L 0.531,0.07 C 0.526,0.07 0.521,0.068 0.517,0.064 0.513,0.06 0.511,0.055 0.511,0.05 V -0.035 H 0.466 C 0.461,-0.045 0.455,-0.052 0.449,-0.056 0.443,-0.061 0.436,-0.064 0.428,-0.066 0.421,-0.068 0.414,-0.069 0.406,-0.07 0.398,-0.071 0.39,-0.072 0.382,-0.074 0.373,-0.076 0.365,-0.079 0.356,-0.083 0.348,-0.086 0.34,-0.093 0.331,-0.101 0.324,-0.109 0.318,-0.116 0.313,-0.124 0.309,-0.131 0.306,-0.139 0.304,-0.147 0.302,-0.155 0.301,-0.163 0.301,-0.172 0.3,-0.18 0.3,-0.189 0.3,-0.199 V -0.21 C 0.3,-0.233 0.298,-0.254 0.292,-0.275 0.286,-0.295 0.278,-0.315 0.265,-0.333 0.257,-0.347 0.25,-0.359 0.245,-0.372 0.241,-0.384 0.237,-0.396 0.235,-0.409 0.233,-0.422 0.231,-0.435 0.231,-0.448 0.231,-0.461 0.23,-0.474 0.23,-0.489 v -0.02 c 0,-0.037 0.007,-0.072 0.021,-0.104 0.014,-0.032 0.033,-0.061 0.056,-0.087 0.023,-0.026 0.05,-0.049 0.08,-0.068 0.031,-0.02 0.063,-0.035 0.096,-0.046 0.027,-0.01 0.055,-0.017 0.083,-0.021 0.028,-0.005 0.057,-0.007 0.085,-0.007 0.029,0 0.057,0.002 0.086,0.007 0.028,0.004 0.056,0.011 0.083,0.021 0.034,0.011 0.065,0.026 0.096,0.046 0.03,0.019 0.057,0.042 0.08,0.068 0.024,0.025 0.042,0.054 0.056,0.087 0.014,0.032 0.021,0.067 0.021,0.104 z"
         style="fill:#f2f2f2;fill-rule:nonzero"
         id="path1108" /><path
         d="m 0.441,-0.526 c 0.015,0 0.028,0.002 0.041,0.008 0.013,0.005 0.024,0.013 0.033,0.022 0.01,0.01 0.017,0.021 0.023,0.034 0.005,0.012 0.008,0.026 0.008,0.041 v 0.035 c 0,0.014 -0.003,0.028 -0.008,0.041 -0.006,0.012 -0.013,0.024 -0.023,0.033 -0.009,0.01 -0.02,0.017 -0.033,0.023 C 0.469,-0.284 0.456,-0.281 0.441,-0.281 0.426,-0.281 0.413,-0.284 0.4,-0.289 0.387,-0.295 0.376,-0.302 0.366,-0.312 0.357,-0.321 0.349,-0.333 0.344,-0.345 0.338,-0.358 0.335,-0.372 0.335,-0.386 v -0.035 c 0,-0.015 0.003,-0.029 0.009,-0.041 0.005,-0.013 0.013,-0.024 0.022,-0.034 0.01,-0.009 0.021,-0.017 0.034,-0.022 0.013,-0.006 0.026,-0.008 0.041,-0.008 z m 0.421,0 c 0.014,0 0.028,0.002 0.041,0.008 0.013,0.005 0.024,0.013 0.033,0.022 0.01,0.01 0.017,0.021 0.023,0.034 0.006,0.012 0.008,0.026 0.008,0.041 v 0.035 c 0,0.014 -0.002,0.028 -0.008,0.041 -0.006,0.012 -0.013,0.024 -0.023,0.033 -0.009,0.01 -0.02,0.017 -0.033,0.023 -0.013,0.005 -0.027,0.008 -0.041,0.008 -0.015,0 -0.029,-0.003 -0.041,-0.008 C 0.808,-0.295 0.797,-0.302 0.788,-0.312 0.778,-0.321 0.771,-0.333 0.765,-0.345 0.76,-0.358 0.757,-0.372 0.757,-0.386 v -0.035 c 0,-0.015 0.003,-0.029 0.008,-0.041 0.006,-0.013 0.013,-0.024 0.023,-0.034 0.009,-0.009 0.02,-0.017 0.033,-0.022 0.012,-0.006 0.026,-0.008 0.041,-0.008 z m -0.14,0.361 c 0,0.007 -0.002,0.012 -0.005,0.017 -0.004,0.005 -0.009,0.007 -0.016,0.007 H 0.603 c -0.008,0 -0.013,-0.002 -0.017,-0.007 -0.003,-0.005 -0.005,-0.011 -0.005,-0.017 0,-0.003 0,-0.007 0.001,-0.01 0.001,-0.003 0.002,-0.006 0.003,-0.009 l 0.049,-0.114 c 0.002,-0.003 0.004,-0.007 0.007,-0.012 0.002,-0.004 0.006,-0.006 0.01,-0.006 0.005,0 0.009,0.002 0.011,0.006 0.003,0.004 0.005,0.008 0.007,0.012 l 0.049,0.114 c 0.001,0.003 0.002,0.006 0.003,0.009 0.001,0.003 0.001,0.007 0.001,0.01 z"
         style="fill-rule:nonzero"
         id="path1110" /></g></g></svg>
