<?xml version="1.0" encoding="UTF-8" standalone="no"?>
<svg
   width="16.844999"
   height="15.255"
   viewBox="0 0 16.844999 15.255"
   version="1.1"
   xml:space="preserve"
   style="clip-rule:evenodd;fill-rule:evenodd;stroke-linejoin:round;stroke-miterlimit:2"
   id="svg20568"
   sodipodi:docname="emojis.svg"
   xmlns:inkscape="http://www.inkscape.org/namespaces/inkscape"
   xmlns:sodipodi="http://sodipodi.sourceforge.net/DTD/sodipodi-0.dtd"
   xmlns="http://www.w3.org/2000/svg"
   xmlns:svg="http://www.w3.org/2000/svg"><defs
     id="defs20572" /><sodipodi:namedview
     id="namedview20570"
     pagecolor="#505050"
     bordercolor="#eeeeee"
     borderopacity="1"
     inkscape:pageshadow="0"
     inkscape:pageopacity="0"
     inkscape:pagecheckerboard="0" /><g
     transform="matrix(0.24,0,0,0.24,-498.2238,-530.1708)"
     id="g20566"><g
       transform="matrix(62.5,0,0,62.5,2068.12,2261.67)"
       id="g11172"><path
         d="M 0.862,0.175 C 0.841,0.175 0.82,0.174 0.798,0.171 0.775,0.168 0.753,0.164 0.732,0.157 0.71,0.151 0.69,0.142 0.671,0.132 0.652,0.121 0.635,0.108 0.62,0.092 0.602,0.097 0.584,0.1 0.566,0.102 0.548,0.104 0.53,0.105 0.511,0.105 0.492,0.105 0.472,0.104 0.453,0.102 0.433,0.099 0.414,0.096 0.395,0.091 0.376,0.086 0.356,0.079 0.337,0.07 0.317,0.061 0.3,0.05 0.284,0.036 0.268,0.023 0.255,0.008 0.245,-0.01 0.235,-0.028 0.23,-0.048 0.23,-0.07 V -0.145 C 0.215,-0.149 0.201,-0.155 0.188,-0.164 0.175,-0.172 0.164,-0.183 0.155,-0.195 0.145,-0.207 0.138,-0.22 0.133,-0.235 0.128,-0.25 0.125,-0.265 0.125,-0.281 v -0.176 c 0,-0.026 0.007,-0.05 0.02,-0.072 C 0.158,-0.551 0.177,-0.568 0.2,-0.58 0.198,-0.588 0.197,-0.595 0.196,-0.603 c 0,-0.008 -0.001,-0.016 -0.001,-0.023 v -0.023 c 0,-0.025 0.006,-0.047 0.017,-0.067 0.011,-0.019 0.025,-0.036 0.043,-0.05 0.017,-0.015 0.037,-0.027 0.058,-0.037 0.022,-0.009 0.043,-0.017 0.064,-0.023 0.022,-0.006 0.044,-0.01 0.067,-0.012 0.022,-0.003 0.045,-0.004 0.067,-0.004 0.022,0 0.044,0.001 0.067,0.004 0.024,0.002 0.047,0.007 0.069,0.013 0.023,0.006 0.045,0.014 0.065,0.024 0.021,0.01 0.04,0.022 0.057,0.037 0.03,-0.005 0.061,-0.008 0.093,-0.008 0.022,0 0.045,0.001 0.067,0.004 0.023,0.003 0.045,0.007 0.067,0.013 0.021,0.005 0.042,0.013 0.064,0.023 0.021,0.009 0.041,0.021 0.058,0.036 0.018,0.014 0.032,0.031 0.043,0.051 0.011,0.019 0.017,0.041 0.017,0.066 v 0.035 c 0,0.011 -0.002,0.023 -0.005,0.034 0.023,0.012 0.042,0.029 0.055,0.051 0.013,0.022 0.02,0.046 0.02,0.073 v 0.176 c 0,0.016 -0.003,0.031 -0.008,0.045 -0.005,0.015 -0.012,0.028 -0.021,0.04 -0.01,0.013 -0.021,0.023 -0.034,0.031 -0.013,0.009 -0.027,0.015 -0.042,0.019 V 0 C 1.143,0.022 1.138,0.043 1.128,0.06 1.118,0.078 1.105,0.094 1.089,0.107 1.073,0.12 1.056,0.131 1.036,0.14 1.017,0.149 0.997,0.156 0.978,0.161 0.959,0.166 0.94,0.17 0.92,0.172 0.901,0.174 0.881,0.175 0.862,0.175 Z"
         style="fill-rule:nonzero"
         id="path11152" /><path
         d="m 0.722,-0.141 v 0.071 c 0,0.014 -0.005,0.026 -0.014,0.037 C 0.7,-0.022 0.689,-0.013 0.676,-0.005 0.664,0.003 0.65,0.009 0.636,0.014 0.622,0.019 0.609,0.023 0.598,0.026 0.584,0.029 0.569,0.031 0.555,0.033 0.54,0.034 0.526,0.035 0.511,0.035 0.498,0.035 0.484,0.035 0.47,0.033 0.457,0.032 0.443,0.03 0.429,0.027 0.418,0.025 0.405,0.021 0.39,0.016 0.375,0.01 0.361,0.004 0.348,-0.004 0.334,-0.012 0.323,-0.022 0.314,-0.032 0.305,-0.043 0.3,-0.056 0.3,-0.07 V -0.141 Z M 0.265,-0.526 h 0.07 v 0.069 h -0.07 v 0.176 h 0.07 V -0.21 H 0.265 C 0.255,-0.21 0.246,-0.212 0.238,-0.216 0.229,-0.22 0.222,-0.225 0.216,-0.231 0.209,-0.238 0.204,-0.245 0.201,-0.253 0.197,-0.262 0.195,-0.271 0.195,-0.281 v -0.176 c 0,-0.009 0.002,-0.018 0.006,-0.027 0.003,-0.008 0.008,-0.016 0.015,-0.022 0.006,-0.006 0.013,-0.011 0.022,-0.015 0.008,-0.004 0.017,-0.005 0.027,-0.005 z"
         style="fill:#e5e5e5;fill-rule:nonzero"
         id="path11154" /><path
         d="m 0.722,-0.176 v 0.035 c 0,0.014 -0.005,0.027 -0.014,0.037 C 0.7,-0.093 0.689,-0.083 0.676,-0.075 0.664,-0.067 0.65,-0.061 0.636,-0.056 0.622,-0.051 0.609,-0.047 0.598,-0.044 0.584,-0.041 0.569,-0.039 0.555,-0.037 0.54,-0.036 0.526,-0.035 0.511,-0.035 0.498,-0.035 0.484,-0.036 0.47,-0.037 0.457,-0.038 0.443,-0.041 0.429,-0.043 0.418,-0.046 0.405,-0.049 0.39,-0.055 0.375,-0.06 0.361,-0.066 0.348,-0.074 0.334,-0.082 0.323,-0.092 0.314,-0.103 0.305,-0.114 0.3,-0.126 0.3,-0.141 v -0.035 z"
         style="fill:#ffffff;fill-rule:nonzero"
         id="path11156" /><path
         d="m 0.722,-0.526 v 0.35 c 0,0.014 -0.005,0.027 -0.013,0.038 C 0.7,-0.128 0.689,-0.118 0.677,-0.11 0.664,-0.103 0.651,-0.096 0.636,-0.091 0.622,-0.086 0.609,-0.082 0.598,-0.08 0.584,-0.076 0.569,-0.074 0.555,-0.073 0.54,-0.071 0.526,-0.07 0.511,-0.07 0.498,-0.07 0.484,-0.071 0.47,-0.072 0.457,-0.074 0.443,-0.076 0.429,-0.079 0.418,-0.081 0.405,-0.085 0.39,-0.09 0.375,-0.095 0.361,-0.101 0.348,-0.109 0.334,-0.117 0.323,-0.127 0.314,-0.138 0.305,-0.149 0.3,-0.161 0.3,-0.176 v -0.023 -0.006 c 0,-0.002 0,-0.003 0,-0.005 l 0.028,-0.316 z"
         style="fill:#d48c00;fill-rule:nonzero"
         id="path11158" /><path
         d="M 1.073,-0.07 V 0 C 1.073,0.014 1.068,0.027 1.059,0.038 1.05,0.049 1.038,0.058 1.025,0.066 1.012,0.074 0.998,0.081 0.983,0.086 0.968,0.091 0.955,0.094 0.944,0.097 0.93,0.1 0.917,0.102 0.903,0.103 0.889,0.104 0.875,0.105 0.862,0.105 0.847,0.105 0.833,0.104 0.818,0.103 0.804,0.101 0.789,0.099 0.775,0.096 0.764,0.093 0.751,0.09 0.737,0.084 0.723,0.079 0.709,0.073 0.697,0.065 0.684,0.057 0.673,0.048 0.665,0.037 0.656,0.026 0.651,0.014 0.651,0 v -0.07 z m 0.034,-0.387 c 0.01,0 0.019,0.002 0.028,0.006 0.008,0.004 0.016,0.009 0.022,0.015 0.006,0.007 0.011,0.014 0.015,0.022 0.004,0.009 0.006,0.018 0.006,0.028 v 0.176 c 0,0.009 -0.002,0.018 -0.006,0.027 -0.004,0.008 -0.009,0.016 -0.015,0.022 -0.006,0.006 -0.014,0.011 -0.022,0.015 -0.009,0.004 -0.018,0.005 -0.028,0.005 H 1.038 V -0.21 H 1.107 V -0.386 H 1.038 v -0.071 z"
         style="fill:#f2f2f2;fill-rule:nonzero"
         id="path11160" /><path
         d="m 1.073,-0.105 v 0.035 c 0,0.014 -0.005,0.027 -0.014,0.038 -0.009,0.01 -0.021,0.02 -0.034,0.028 C 1.012,0.004 0.998,0.01 0.983,0.016 0.968,0.021 0.955,0.025 0.944,0.027 0.93,0.03 0.917,0.032 0.903,0.033 0.889,0.035 0.875,0.035 0.862,0.035 0.847,0.035 0.833,0.034 0.818,0.033 0.804,0.031 0.789,0.029 0.775,0.026 0.764,0.023 0.751,0.019 0.737,0.014 0.723,0.009 0.709,0.003 0.697,-0.005 0.684,-0.013 0.673,-0.022 0.665,-0.033 0.656,-0.044 0.651,-0.056 0.651,-0.07 v -0.035 z"
         style="fill:#ffffff;fill-rule:nonzero"
         id="path11162" /><path
         d="m 1.048,-0.457 0.025,0.316 c 0,0.002 0,0.004 0,0.006 v 0.03 c 0,0.014 -0.005,0.026 -0.014,0.037 C 1.05,-0.057 1.038,-0.047 1.025,-0.039 1.012,-0.031 0.998,-0.025 0.983,-0.02 0.968,-0.014 0.955,-0.011 0.944,-0.008 0.93,-0.005 0.917,-0.003 0.903,-0.002 0.889,-0.001 0.875,0 0.862,0 0.847,0 0.833,-0.001 0.818,-0.002 0.804,-0.004 0.789,-0.006 0.775,-0.009 0.764,-0.012 0.751,-0.016 0.737,-0.021 0.723,-0.026 0.709,-0.032 0.697,-0.04 0.684,-0.048 0.673,-0.058 0.665,-0.068 0.656,-0.079 0.651,-0.091 0.651,-0.105 v -0.024 -0.006 c 0,-0.002 0,-0.004 0,-0.006 L 0.692,-0.457 Z M 0.371,-0.21 c 0,0.009 -0.004,0.017 -0.011,0.024 -0.007,0.007 -0.015,0.01 -0.025,0.01 -0.009,0 -0.017,-0.003 -0.024,-0.01 C 0.304,-0.193 0.3,-0.201 0.3,-0.21 v -0.352 h 0.071 z m 0.175,0.034 c 0,0.01 -0.004,0.018 -0.01,0.025 -0.007,0.007 -0.015,0.01 -0.025,0.01 -0.01,0 -0.018,-0.003 -0.025,-0.01 -0.007,-0.007 -0.01,-0.015 -0.01,-0.025 v -0.35 h 0.07 z"
         style="fill:#eba300;fill-rule:nonzero"
         id="path11164" /><path
         d="m 0.827,-0.457 h 0.07 v 0.352 c 0,0.009 -0.003,0.018 -0.01,0.024 C 0.88,-0.074 0.872,-0.07 0.862,-0.07 0.852,-0.07 0.844,-0.074 0.837,-0.081 0.83,-0.088 0.827,-0.096 0.827,-0.105 Z m 0.175,-0.034 h 0.071 v 0.35 c 0,0.01 -0.004,0.018 -0.011,0.025 -0.007,0.007 -0.015,0.011 -0.024,0.011 -0.01,0 -0.018,-0.004 -0.025,-0.011 C 1.006,-0.123 1.002,-0.131 1.002,-0.141 Z m -0.351,0.175 h 0.071 v 0.175 c 0,0.01 -0.004,0.018 -0.011,0.025 -0.006,0.007 -0.015,0.011 -0.024,0.011 -0.01,0 -0.019,-0.004 -0.025,-0.011 C 0.655,-0.123 0.651,-0.131 0.651,-0.141 Z"
         style="fill:#ffb900;fill-rule:nonzero"
         id="path11166" /><path
         d="m 0.511,-0.772 c 0.033,0 0.066,0.003 0.098,0.01 0.009,0.002 0.019,0.005 0.029,0.008 0.011,0.003 0.022,0.007 0.033,0.012 0.011,0.004 0.021,0.01 0.032,0.016 0.01,0.006 0.019,0.013 0.027,0.021 0.008,0.007 0.015,0.016 0.02,0.025 0.004,0.009 0.007,0.02 0.007,0.031 v 0.035 c 0,0.01 -0.002,0.019 -0.007,0.028 -0.004,0.008 -0.009,0.016 -0.016,0.023 -0.007,0.008 -0.015,0.014 -0.023,0.02 -0.008,0.005 -0.016,0.01 -0.024,0.015 v 0.107 H 0.651 c 0,-0.01 -0.003,-0.018 -0.01,-0.025 -0.007,-0.007 -0.015,-0.011 -0.025,-0.011 -0.009,0 -0.017,0.004 -0.024,0.011 -0.007,0.007 -0.011,0.015 -0.011,0.025 0,0.009 -0.003,0.018 -0.01,0.025 -0.007,0.006 -0.015,0.01 -0.025,0.01 -0.01,0 -0.018,-0.004 -0.025,-0.011 -0.006,-0.007 -0.01,-0.015 -0.01,-0.024 L 0.512,-0.445 C 0.512,-0.451 0.511,-0.456 0.511,-0.461 0.51,-0.466 0.509,-0.47 0.506,-0.474 0.504,-0.478 0.501,-0.482 0.497,-0.485 0.493,-0.488 0.487,-0.491 0.48,-0.492 0.479,-0.493 0.478,-0.493 0.476,-0.493 0.465,-0.493 0.453,-0.495 0.438,-0.497 0.424,-0.5 0.409,-0.503 0.393,-0.507 0.377,-0.512 0.362,-0.517 0.347,-0.523 0.331,-0.53 0.318,-0.537 0.306,-0.546 0.294,-0.555 0.284,-0.565 0.276,-0.576 0.269,-0.587 0.265,-0.6 0.265,-0.614 v -0.035 c 0,-0.011 0.003,-0.022 0.007,-0.031 0.005,-0.009 0.012,-0.018 0.02,-0.025 C 0.3,-0.713 0.309,-0.72 0.319,-0.726 0.33,-0.732 0.34,-0.738 0.351,-0.742 c 0.011,-0.005 0.022,-0.009 0.033,-0.012 0.01,-0.003 0.02,-0.006 0.029,-0.008 0.032,-0.007 0.065,-0.01 0.098,-0.01 z"
         style="fill:#f2f2f2;fill-rule:nonzero"
         id="path11168" /><path
         d="m 0.862,-0.702 c 0.033,0 0.066,0.003 0.098,0.01 0.013,0.003 0.028,0.007 0.045,0.013 0.017,0.006 0.033,0.014 0.048,0.023 0.016,0.009 0.028,0.02 0.039,0.033 0.01,0.013 0.015,0.027 0.015,0.044 v 0.035 c 0,0.014 -0.003,0.027 -0.011,0.038 -0.007,0.011 -0.017,0.021 -0.029,0.03 -0.012,0.009 -0.026,0.016 -0.041,0.023 -0.015,0.006 -0.031,0.012 -0.047,0.016 -0.015,0.004 -0.03,0.008 -0.045,0.01 -0.014,0.002 -0.027,0.004 -0.037,0.005 H 0.893 c -0.007,0.001 -0.013,0.003 -0.017,0.006 -0.004,0.003 -0.007,0.007 -0.01,0.012 -0.002,0.005 -0.003,0.01 -0.004,0.015 0,0.006 -0.001,0.011 -0.001,0.017 l 0.001,0.021 c 0,0.01 -0.004,0.018 -0.01,0.025 -0.007,0.007 -0.016,0.01 -0.025,0.01 -0.01,0 -0.018,-0.003 -0.025,-0.01 -0.007,-0.007 -0.01,-0.016 -0.01,-0.025 0,-0.01 -0.004,-0.018 -0.011,-0.025 -0.007,-0.007 -0.015,-0.01 -0.024,-0.01 -0.008,0 -0.014,0.001 -0.019,0.004 -0.005,0.003 -0.008,0.007 -0.011,0.012 -0.002,0.004 -0.004,0.01 -0.005,0.016 0,0.006 -0.001,0.012 -0.001,0.018 l 0.001,0.02 c 0,0.01 -0.004,0.018 -0.011,0.025 -0.006,0.007 -0.015,0.01 -0.024,0.01 -0.01,0 -0.019,-0.003 -0.025,-0.01 C 0.655,-0.298 0.651,-0.306 0.651,-0.316 V -0.421 C 0.651,-0.435 0.649,-0.448 0.646,-0.459 0.642,-0.47 0.638,-0.481 0.634,-0.491 0.629,-0.501 0.625,-0.51 0.622,-0.519 0.618,-0.527 0.616,-0.536 0.616,-0.544 v -0.035 c 0,-0.017 0.005,-0.031 0.016,-0.044 0.01,-0.013 0.023,-0.024 0.038,-0.033 0.015,-0.009 0.031,-0.017 0.048,-0.023 0.017,-0.006 0.032,-0.01 0.045,-0.013 0.032,-0.007 0.065,-0.01 0.099,-0.01 z"
         style="fill:#ffffff;fill-rule:nonzero"
         id="path11170" /></g></g></svg>
