<?xml version="1.0" encoding="UTF-8" standalone="no"?>
<svg
   width="14.73"
   height="16.844999"
   viewBox="0 0 14.73 16.844999"
   version="1.1"
   xml:space="preserve"
   style="clip-rule:evenodd;fill-rule:evenodd;stroke-linejoin:round;stroke-miterlimit:2"
   id="svg20568"
   sodipodi:docname="emojis.svg"
   xmlns:inkscape="http://www.inkscape.org/namespaces/inkscape"
   xmlns:sodipodi="http://sodipodi.sourceforge.net/DTD/sodipodi-0.dtd"
   xmlns="http://www.w3.org/2000/svg"
   xmlns:svg="http://www.w3.org/2000/svg"><defs
     id="defs20572" /><sodipodi:namedview
     id="namedview20570"
     pagecolor="#505050"
     bordercolor="#eeeeee"
     borderopacity="1"
     inkscape:pageshadow="0"
     inkscape:pageopacity="0"
     inkscape:pagecheckerboard="0" /><g
     transform="matrix(0.24,0,0,0.24,-479.7294,-529.1058)"
     id="g20566"><g
       transform="matrix(62.5,0,0,62.5,1991.06,2261.67)"
       id="g11150"><path
         d="M 0.563,0.21 C 0.537,0.21 0.512,0.209 0.486,0.207 0.46,0.204 0.435,0.2 0.409,0.193 0.394,0.189 0.378,0.185 0.361,0.179 0.345,0.173 0.328,0.166 0.312,0.158 0.297,0.15 0.281,0.14 0.267,0.13 0.253,0.119 0.241,0.108 0.23,0.094 0.219,0.081 0.211,0.067 0.205,0.051 0.198,0.036 0.195,0.019 0.195,0 V -0.384 C 0.174,-0.403 0.156,-0.424 0.144,-0.447 0.131,-0.47 0.125,-0.496 0.125,-0.526 v -0.151 c 0,-0.021 0.003,-0.04 0.01,-0.057 0.007,-0.018 0.017,-0.033 0.029,-0.048 0.012,-0.014 0.026,-0.027 0.042,-0.039 0.016,-0.012 0.033,-0.022 0.051,-0.031 0.017,-0.009 0.035,-0.017 0.054,-0.023 0.018,-0.007 0.036,-0.012 0.053,-0.017 0.03,-0.007 0.06,-0.012 0.09,-0.016 0.031,-0.003 0.061,-0.005 0.092,-0.005 0.026,0 0.051,0.002 0.077,0.004 0.026,0.002 0.051,0.006 0.077,0.011 0.017,0.004 0.035,0.008 0.054,0.014 0.019,0.005 0.038,0.012 0.057,0.02 0.019,0.008 0.037,0.018 0.054,0.028 0.017,0.011 0.033,0.023 0.047,0.037 0.014,0.013 0.026,0.029 0.035,0.045 0.01,0.017 0.016,0.035 0.019,0.055 0.02,0.004 0.039,0.012 0.056,0.022 0.018,0.011 0.033,0.024 0.045,0.039 0.013,0.016 0.023,0.033 0.03,0.052 0.007,0.019 0.01,0.039 0.01,0.06 v 0.245 c 0,0.024 -0.004,0.047 -0.013,0.068 -0.01,0.022 -0.022,0.04 -0.038,0.056 C 1.04,-0.141 1.022,-0.128 1,-0.119 0.979,-0.11 0.956,-0.105 0.932,-0.105 V 0 c 0,0.028 -0.007,0.053 -0.02,0.074 C 0.898,0.095 0.881,0.114 0.86,0.13 0.839,0.145 0.816,0.159 0.791,0.169 0.766,0.179 0.741,0.187 0.718,0.193 0.693,0.199 0.667,0.204 0.641,0.207 0.615,0.209 0.59,0.21 0.563,0.21 Z"
         style="fill-rule:nonzero"
         id="path11136" /><path
         d="m 0.932,-0.632 c 0.015,0 0.028,0.003 0.041,0.008 0.013,0.006 0.024,0.014 0.034,0.023 0.009,0.01 0.017,0.021 0.022,0.034 0.006,0.012 0.009,0.026 0.009,0.041 v 0.245 c 0,0.015 -0.003,0.029 -0.009,0.041 -0.005,0.013 -0.013,0.024 -0.022,0.033 -0.01,0.01 -0.021,0.017 -0.034,0.023 -0.013,0.005 -0.026,0.008 -0.041,0.008 H 0.81 v -0.105 h 0.087 c 0.01,0 0.018,-0.003 0.025,-0.01 0.007,-0.007 0.01,-0.015 0.01,-0.025 v -0.176 c 0,-0.009 -0.003,-0.017 -0.01,-0.024 -0.007,-0.007 -0.016,-0.01 -0.025,-0.01 H 0.785 v -0.106 z"
         style="fill:#f2f2f2;fill-rule:nonzero"
         id="path11138" /><path
         d="M 0.265,-0.07 H 0.862 V 0 C 0.862,0.013 0.859,0.025 0.853,0.036 0.846,0.046 0.838,0.056 0.828,0.065 0.818,0.074 0.806,0.082 0.793,0.089 0.78,0.096 0.767,0.102 0.754,0.108 0.74,0.113 0.727,0.118 0.714,0.121 0.701,0.125 0.69,0.127 0.68,0.129 0.66,0.133 0.641,0.136 0.622,0.137 0.602,0.139 0.583,0.14 0.563,0.14 0.544,0.14 0.525,0.139 0.505,0.137 0.486,0.136 0.467,0.133 0.447,0.129 0.437,0.127 0.426,0.124 0.413,0.121 0.4,0.117 0.387,0.113 0.374,0.107 0.36,0.102 0.347,0.096 0.334,0.089 0.321,0.082 0.309,0.074 0.299,0.065 0.289,0.056 0.281,0.046 0.274,0.036 0.268,0.025 0.265,0.013 0.265,0 Z"
         style="fill:#cccccc;fill-rule:nonzero"
         id="path11140" /><path
         d="m 0.265,-0.141 h 0.597 v 0.071 c 0,0.013 -0.003,0.025 -0.009,0.036 -0.007,0.01 -0.015,0.02 -0.025,0.029 C 0.818,0.004 0.806,0.012 0.793,0.019 0.78,0.026 0.767,0.032 0.754,0.038 0.74,0.043 0.727,0.047 0.714,0.051 0.701,0.054 0.69,0.057 0.68,0.059 0.66,0.063 0.641,0.066 0.622,0.068 0.602,0.069 0.583,0.07 0.563,0.07 0.544,0.07 0.525,0.069 0.505,0.068 0.486,0.066 0.467,0.063 0.447,0.059 0.437,0.057 0.426,0.054 0.413,0.051 0.4,0.047 0.387,0.043 0.373,0.038 0.36,0.032 0.347,0.026 0.334,0.019 0.321,0.012 0.309,0.004 0.299,-0.005 0.289,-0.014 0.281,-0.024 0.274,-0.034 0.268,-0.045 0.265,-0.057 0.265,-0.07 Z"
         style="fill:#ffffff;fill-rule:nonzero"
         id="path11142" /><path
         d="M 0.318,-0.526 H 0.81 l 0.052,0.333 c 0,0.002 0,0.004 0.001,0.007 0,0.003 0,0.006 0,0.009 l -0.001,0.036 c 0,0.013 -0.003,0.025 -0.009,0.036 -0.007,0.011 -0.015,0.021 -0.025,0.03 -0.01,0.009 -0.022,0.017 -0.035,0.024 C 0.78,-0.044 0.767,-0.038 0.754,-0.033 0.74,-0.028 0.727,-0.023 0.714,-0.02 0.701,-0.016 0.69,-0.013 0.68,-0.011 0.66,-0.007 0.641,-0.004 0.622,-0.003 0.602,-0.001 0.583,0 0.563,0 0.544,0 0.525,-0.001 0.505,-0.003 0.486,-0.004 0.467,-0.007 0.447,-0.011 0.437,-0.013 0.426,-0.016 0.413,-0.02 0.4,-0.023 0.387,-0.028 0.373,-0.033 0.36,-0.038 0.347,-0.044 0.334,-0.051 0.321,-0.058 0.309,-0.066 0.299,-0.075 0.289,-0.084 0.281,-0.094 0.274,-0.105 0.268,-0.116 0.265,-0.128 0.265,-0.141 L 0.264,-0.177 c 0,-0.003 0,-0.006 0,-0.009 0.001,-0.003 0.001,-0.005 0.001,-0.007 z"
         style="fill:#eba300;fill-rule:nonzero"
         id="path11144" /><path
         d="m 0.318,-0.141 c -0.007,0 -0.014,-0.001 -0.02,-0.004 C 0.291,-0.148 0.286,-0.151 0.281,-0.156 0.276,-0.161 0.272,-0.167 0.269,-0.173 0.267,-0.179 0.265,-0.186 0.265,-0.193 v -0.365 c 0.001,0.013 0.005,0.025 0.012,0.036 0.007,0.011 0.016,0.02 0.026,0.029 0.01,0.008 0.021,0.016 0.033,0.022 0.012,0.007 0.024,0.012 0.035,0.016 v 0.262 c 0,0.007 -0.002,0.014 -0.005,0.02 -0.002,0.007 -0.006,0.012 -0.011,0.017 -0.004,0.005 -0.01,0.008 -0.017,0.011 -0.006,0.003 -0.013,0.004 -0.02,0.004 z m 0.439,-0.314 c 0.01,-0.004 0.021,-0.009 0.034,-0.016 0.012,-0.006 0.023,-0.014 0.033,-0.022 0.01,-0.009 0.019,-0.018 0.026,-0.029 0.007,-0.011 0.011,-0.023 0.012,-0.036 v 0.365 c 0,0.007 -0.002,0.014 -0.004,0.02 -0.003,0.006 -0.007,0.012 -0.011,0.017 -0.005,0.005 -0.01,0.008 -0.017,0.011 -0.006,0.003 -0.013,0.004 -0.02,0.004 -0.008,0 -0.015,-0.001 -0.021,-0.004 C 0.782,-0.148 0.777,-0.151 0.772,-0.156 0.767,-0.161 0.764,-0.166 0.761,-0.173 0.758,-0.179 0.757,-0.186 0.757,-0.193 Z m -0.194,0.034 c 0.009,0 0.018,-0.001 0.027,-0.001 0.009,0 0.017,-0.001 0.026,-0.001 v 0.3 c 0,0.007 -0.001,0.014 -0.004,0.021 C 0.609,-0.096 0.606,-0.09 0.601,-0.086 0.596,-0.081 0.59,-0.077 0.584,-0.074 0.577,-0.072 0.571,-0.07 0.563,-0.07 0.556,-0.07 0.549,-0.072 0.543,-0.074 0.536,-0.077 0.531,-0.081 0.526,-0.086 0.522,-0.091 0.518,-0.096 0.515,-0.103 0.513,-0.109 0.511,-0.116 0.511,-0.124 v -0.157 z"
         style="fill:#ffb900;fill-rule:nonzero"
         id="path11146" /><path
         d="m 0.897,-0.562 c 0,0.014 -0.004,0.027 -0.012,0.038 -0.007,0.011 -0.017,0.021 -0.029,0.03 -0.012,0.009 -0.026,0.018 -0.042,0.025 -0.015,0.007 -0.031,0.014 -0.046,0.02 -0.016,0.006 -0.031,0.011 -0.045,0.015 -0.014,0.005 -0.026,0.009 -0.036,0.013 -0.015,0.005 -0.029,0.012 -0.042,0.022 -0.013,0.009 -0.024,0.019 -0.034,0.032 -0.009,0.012 -0.017,0.025 -0.022,0.04 -0.005,0.014 -0.008,0.03 -0.008,0.046 0,0.01 -0.003,0.018 -0.01,0.025 -0.007,0.007 -0.015,0.01 -0.025,0.01 -0.01,0 -0.018,-0.003 -0.025,-0.01 -0.006,-0.007 -0.01,-0.015 -0.01,-0.025 V -0.369 C 0.511,-0.376 0.51,-0.383 0.507,-0.389 0.504,-0.395 0.5,-0.401 0.496,-0.406 0.491,-0.411 0.485,-0.414 0.479,-0.417 0.472,-0.42 0.466,-0.421 0.458,-0.421 c -0.007,0 -0.013,0.001 -0.02,0.004 -0.006,0.003 -0.012,0.006 -0.017,0.011 -0.004,0.005 -0.008,0.011 -0.011,0.017 -0.003,0.006 -0.004,0.013 -0.004,0.02 v 0.159 c 0,0.009 -0.004,0.017 -0.011,0.024 -0.007,0.007 -0.015,0.01 -0.024,0.01 -0.01,0 -0.018,-0.003 -0.025,-0.01 C 0.339,-0.193 0.335,-0.201 0.335,-0.21 V -0.301 C 0.335,-0.308 0.334,-0.315 0.332,-0.322 0.33,-0.33 0.327,-0.337 0.323,-0.344 0.319,-0.352 0.315,-0.359 0.31,-0.365 0.306,-0.372 0.301,-0.377 0.296,-0.382 l -0.07,-0.07 C 0.216,-0.462 0.209,-0.473 0.203,-0.486 0.198,-0.499 0.195,-0.512 0.195,-0.526 v -0.151 c 0,-0.015 0.004,-0.029 0.011,-0.042 0.007,-0.012 0.017,-0.024 0.028,-0.034 0.012,-0.011 0.025,-0.02 0.04,-0.028 0.015,-0.008 0.03,-0.016 0.046,-0.022 0.015,-0.006 0.031,-0.011 0.045,-0.015 0.015,-0.005 0.029,-0.008 0.04,-0.011 0.046,-0.009 0.093,-0.013 0.141,-0.013 0.048,0 0.095,0.004 0.141,0.013 0.011,0.003 0.025,0.006 0.039,0.011 0.015,0.004 0.03,0.009 0.046,0.015 0.016,0.006 0.031,0.014 0.046,0.022 0.015,0.008 0.028,0.017 0.04,0.028 0.012,0.01 0.021,0.022 0.028,0.034 0.007,0.013 0.011,0.027 0.011,0.042 z"
         style="fill:#ffffff;fill-rule:nonzero"
         id="path11148" /></g></g></svg>
