<?xml version="1.0" encoding="UTF-8" standalone="no"?>
<svg
   width="12.06"
   height="16.844999"
   viewBox="0 0 12.06 16.844999"
   version="1.1"
   xml:space="preserve"
   style="clip-rule:evenodd;fill-rule:evenodd;stroke-linejoin:round;stroke-miterlimit:2"
   id="svg20568"
   sodipodi:docname="emojis.svg"
   xmlns:inkscape="http://www.inkscape.org/namespaces/inkscape"
   xmlns:sodipodi="http://sodipodi.sourceforge.net/DTD/sodipodi-0.dtd"
   xmlns="http://www.w3.org/2000/svg"
   xmlns:svg="http://www.w3.org/2000/svg"><defs
     id="defs20572" /><sodipodi:namedview
     id="namedview20570"
     pagecolor="#505050"
     bordercolor="#eeeeee"
     borderopacity="1"
     inkscape:pageshadow="0"
     inkscape:pageopacity="0"
     inkscape:pagecheckerboard="0" /><g
     transform="matrix(0.24,0,0,0.24,-573.7734,-529.1058)"
     id="g20566"><g
       transform="matrix(62.5,0,0,62.5,2382.91,2261.67)"
       id="g11250"><path
         d="m 0.125,0.07 v -0.788 l 0.28,-0.094 0.088,0.03 0.009,-0.032 c 0.005,-0.015 0.012,-0.028 0.02,-0.04 0.009,-0.012 0.019,-0.023 0.031,-0.031 0.011,-0.009 0.024,-0.016 0.038,-0.021 0.014,-0.004 0.029,-0.007 0.045,-0.007 h 0.206 c 0.012,0 0.023,0.003 0.034,0.007 0.01,0.005 0.02,0.011 0.028,0.019 0.008,0.008 0.014,0.017 0.018,0.028 0.005,0.01 0.007,0.022 0.007,0.034 0,0.012 -0.002,0.023 -0.007,0.034 -0.004,0.01 -0.01,0.02 -0.018,0.028 -0.008,0.008 -0.018,0.014 -0.028,0.018 -0.011,0.005 -0.022,0.007 -0.034,0.007 h -0.18 l -0.004,0.011 0.167,0.056 V 0.117 L 0.545,0.21 Z"
         style="fill-rule:nonzero"
         id="path11234" /><path
         d="M 0.273,-0.674 0.279,-0.696 0.3,-0.704 c 0.004,-0.001 0.007,-0.002 0.011,-0.003 0.004,-0.001 0.007,-0.002 0.01,-0.002 0.005,-0.001 0.012,-0.002 0.018,-0.002 0.007,0 0.014,0 0.021,0 H 0.392 L 0.405,-0.738 0.754,-0.621 0.545,0.052 0.195,-0.12 v -0.548 z"
         style="fill:#79db75;fill-rule:nonzero"
         id="path11236" /><path
         d="M 0.702,-0.58 C 0.696,-0.582 0.691,-0.585 0.686,-0.587 0.681,-0.59 0.676,-0.592 0.67,-0.593 L 0.321,-0.709 0.405,-0.738 0.754,-0.621 Z M 0.629,-0.579 0.616,-0.551 H 0.545 l -0.35,-0.117 0.084,-0.028 z"
         style="fill:#aae5aa;fill-rule:nonzero"
         id="path11238" /><path
         d="m 0.649,-0.54 0.105,-0.081 v 0.548 L 0.545,0.137 0.195,0.02 v -0.14 l 0.35,0.117 V -0.551 Z M 0.562,-0.58 c 0,0.003 -0.001,0.006 -0.004,0.008 -0.003,0.003 -0.006,0.004 -0.01,0.006 -0.004,0.001 -0.007,0.002 -0.011,0.002 -0.004,0.001 -0.007,0.001 -0.01,0.001 -0.002,0 -0.005,0 -0.009,-0.001 -0.004,0 -0.008,-0.001 -0.012,-0.002 C 0.502,-0.568 0.499,-0.569 0.496,-0.572 0.494,-0.574 0.492,-0.577 0.492,-0.58 c 0,-0.003 0.002,-0.006 0.004,-0.008 0.003,-0.003 0.006,-0.005 0.01,-0.006 0.004,-0.001 0.008,-0.002 0.012,-0.003 0.003,0 0.007,-0.001 0.009,-0.001 0.003,0 0.006,0.001 0.01,0.001 0.004,0.001 0.008,0.002 0.011,0.003 0.004,0.001 0.007,0.003 0.01,0.006 0.003,0.002 0.004,0.005 0.004,0.008 z"
         style="fill:#16c60c;fill-rule:nonzero"
         id="path11240" /><path
         d="m 0.37,-0.391 c 0.007,-0.006 0.016,-0.008 0.026,-0.008 0.01,0 0.019,0.002 0.029,0.007 0.009,0.005 0.018,0.012 0.025,0.02 0.007,0.008 0.013,0.017 0.018,0.027 0.004,0.01 0.007,0.02 0.007,0.03 0,0.003 -0.001,0.007 -0.001,0.011 -0.001,0.003 -0.002,0.007 -0.004,0.01 L 0.43,-0.216 C 0.429,-0.213 0.426,-0.21 0.421,-0.208 0.417,-0.206 0.413,-0.206 0.409,-0.206 0.401,-0.206 0.393,-0.208 0.386,-0.213 0.379,-0.218 0.374,-0.224 0.37,-0.23 0.367,-0.228 0.365,-0.227 0.362,-0.226 0.359,-0.225 0.356,-0.224 0.353,-0.224 0.348,-0.224 0.344,-0.225 0.34,-0.227 0.335,-0.229 0.331,-0.231 0.327,-0.234 0.323,-0.237 0.32,-0.241 0.317,-0.245 0.314,-0.249 0.311,-0.252 0.31,-0.256 L 0.27,-0.361 C 0.267,-0.369 0.265,-0.377 0.265,-0.385 c 0,-0.013 0.004,-0.023 0.011,-0.031 0.007,-0.009 0.017,-0.013 0.03,-0.013 0.006,0 0.012,0.001 0.018,0.003 0.006,0.003 0.012,0.005 0.018,0.009 0.005,0.003 0.01,0.007 0.015,0.012 0.005,0.004 0.009,0.009 0.013,0.014 z"
         style="fill:#f03a17;fill-rule:nonzero"
         id="path11242" /><path
         d="m 0.545,-0.003 0.209,-0.07 v 0.14 l -0.209,0.07 z m 0,-0.548 0.209,-0.07 -0.105,0.163 z m -0.224,0.14 C 0.315,-0.413 0.309,-0.416 0.303,-0.421 0.297,-0.425 0.292,-0.43 0.287,-0.436 0.283,-0.442 0.279,-0.448 0.277,-0.455 0.274,-0.462 0.273,-0.469 0.273,-0.476 l 0.048,0.017 c 0.007,0.002 0.013,0.006 0.019,0.01 0.006,0.004 0.011,0.009 0.015,0.015 0.005,0.006 0.008,0.012 0.011,0.019 0.002,0.006 0.004,0.013 0.004,0.02 z"
         style="fill:#13a10e;fill-rule:nonzero"
         id="path11244" /><path
         d="m 0.362,-0.389 v -0.048 c 0,-0.002 0,-0.004 0.001,-0.005 0.001,-0.001 0.003,-0.001 0.004,-0.001 0.003,0 0.005,0.001 0.008,0.003 0.002,0.003 0.003,0.005 0.003,0.008 v 0.048 c 0,0.004 -0.002,0.006 -0.005,0.006 -0.003,0 -0.006,-0.001 -0.008,-0.004 C 0.363,-0.384 0.362,-0.387 0.362,-0.389 Z"
         style="fill:#8e562e;fill-rule:nonzero"
         id="path11246" /><path
         d="m 0.51,-0.598 c 0,-0.001 0.001,-0.007 0.004,-0.016 0.002,-0.009 0.006,-0.021 0.01,-0.034 0.004,-0.013 0.008,-0.028 0.013,-0.043 L 0.562,-0.773 C 0.566,-0.783 0.568,-0.79 0.569,-0.793 0.573,-0.808 0.582,-0.82 0.594,-0.829 0.607,-0.838 0.62,-0.843 0.636,-0.843 h 0.206 c 0.005,0 0.009,0.002 0.012,0.005 0.004,0.004 0.005,0.008 0.005,0.013 0,0.005 -0.001,0.009 -0.005,0.012 -0.003,0.004 -0.007,0.005 -0.012,0.005 H 0.636 c -0.008,0 -0.015,0.003 -0.021,0.007 -0.006,0.005 -0.01,0.011 -0.012,0.018 l -0.059,0.19 C 0.543,-0.589 0.54,-0.586 0.537,-0.584 0.534,-0.581 0.531,-0.58 0.527,-0.58 0.522,-0.58 0.518,-0.582 0.515,-0.585 0.511,-0.589 0.51,-0.593 0.51,-0.598 Z"
         style="fill:#ffb900;fill-rule:nonzero"
         id="path11248" /></g></g></svg>
