<?xml version="1.0" encoding="UTF-8" standalone="no"?>
<svg
   width="14.22"
   height="16.844999"
   viewBox="0 0 14.22 16.844999"
   version="1.1"
   xml:space="preserve"
   style="clip-rule:evenodd;fill-rule:evenodd;stroke-linejoin:round;stroke-miterlimit:2"
   id="svg20568"
   sodipodi:docname="emojis.svg"
   xmlns:inkscape="http://www.inkscape.org/namespaces/inkscape"
   xmlns:sodipodi="http://sodipodi.sourceforge.net/DTD/sodipodi-0.dtd"
   xmlns="http://www.w3.org/2000/svg"
   xmlns:svg="http://www.w3.org/2000/svg"><defs
     id="defs20572" /><sodipodi:namedview
     id="namedview20570"
     pagecolor="#505050"
     bordercolor="#eeeeee"
     borderopacity="1"
     inkscape:pageshadow="0"
     inkscape:pageopacity="0"
     inkscape:pagecheckerboard="0" /><g
     transform="matrix(0.24,0,0,0.24,-555.807,-529.1058)"
     id="g20566"><g
       transform="matrix(62.5,0,0,62.5,2308.05,2261.67)"
       id="g11232"><path
         d="m 1.073,-0.913 v 0.211 H 0.878 c 0.006,0.011 0.011,0.022 0.014,0.034 0.003,0.012 0.005,0.024 0.005,0.036 0,0.02 -0.004,0.038 -0.012,0.055 C 0.878,-0.56 0.867,-0.544 0.854,-0.53 L 0.809,0.044 C 0.807,0.065 0.801,0.084 0.79,0.101 0.78,0.118 0.766,0.132 0.75,0.145 0.734,0.157 0.715,0.167 0.695,0.176 0.674,0.184 0.653,0.191 0.632,0.196 0.611,0.201 0.59,0.205 0.569,0.207 0.548,0.209 0.528,0.21 0.511,0.21 0.489,0.21 0.465,0.209 0.439,0.206 0.414,0.203 0.389,0.197 0.365,0.19 0.34,0.182 0.317,0.173 0.296,0.16 0.274,0.148 0.256,0.132 0.242,0.113 0.234,0.103 0.227,0.092 0.222,0.08 0.217,0.069 0.214,0.056 0.213,0.043 L 0.168,-0.53 C 0.155,-0.544 0.144,-0.56 0.136,-0.577 0.129,-0.594 0.125,-0.612 0.125,-0.632 c 0,-0.02 0.004,-0.038 0.011,-0.055 0.007,-0.016 0.017,-0.031 0.03,-0.045 0.012,-0.013 0.026,-0.025 0.042,-0.036 0.017,-0.01 0.034,-0.019 0.052,-0.027 0.017,-0.008 0.035,-0.014 0.053,-0.02 0.019,-0.005 0.036,-0.01 0.053,-0.013 0.024,-0.005 0.048,-0.009 0.072,-0.011 0.024,-0.002 0.049,-0.003 0.073,-0.003 0.017,0 0.034,0 0.052,0.001 0.016,-0.022 0.037,-0.04 0.062,-0.053 0.025,-0.012 0.051,-0.019 0.079,-0.019 z"
         style="fill-rule:nonzero"
         id="path11220" /><path
         d="m 0.511,-0.502 c -0.02,0 -0.043,-0.001 -0.069,-0.004 C 0.417,-0.508 0.392,-0.512 0.366,-0.518 0.341,-0.524 0.317,-0.532 0.294,-0.541 0.271,-0.551 0.251,-0.563 0.236,-0.577 0.228,-0.585 0.221,-0.593 0.215,-0.602 0.209,-0.61 0.206,-0.62 0.206,-0.632 c 0,-0.01 0.003,-0.02 0.008,-0.029 0.005,-0.008 0.012,-0.016 0.019,-0.024 0.015,-0.014 0.034,-0.027 0.058,-0.036 0.023,-0.01 0.048,-0.018 0.074,-0.024 0.025,-0.006 0.051,-0.01 0.077,-0.013 0.026,-0.002 0.049,-0.004 0.069,-0.004 0.021,0 0.044,0.002 0.07,0.004 0.025,0.003 0.051,0.007 0.077,0.013 0.025,0.006 0.05,0.014 0.073,0.024 0.023,0.01 0.042,0.022 0.058,0.036 0.007,0.007 0.014,0.015 0.019,0.024 0.006,0.009 0.008,0.019 0.008,0.029 0,0.011 -0.002,0.02 -0.008,0.029 -0.005,0.009 -0.012,0.017 -0.019,0.024 -0.016,0.015 -0.035,0.027 -0.058,0.037 -0.023,0.009 -0.048,0.017 -0.073,0.023 -0.026,0.006 -0.052,0.011 -0.077,0.013 -0.026,0.003 -0.049,0.004 -0.07,0.004 z"
         style="fill:#cccccc;fill-rule:nonzero"
         id="path11222" /><path
         d="m 0.511,-0.772 c 0.019,0 0.038,0.001 0.057,0.002 0.018,0.002 0.037,0.004 0.056,0.007 0.01,0.002 0.022,0.005 0.036,0.008 0.015,0.003 0.029,0.008 0.044,0.013 0.015,0.005 0.03,0.011 0.045,0.018 0.015,0.007 0.028,0.015 0.039,0.024 0.011,0.009 0.021,0.02 0.028,0.031 0.007,0.011 0.011,0.023 0.011,0.037 0,0.014 -0.004,0.027 -0.013,0.039 -0.008,0.011 -0.017,0.022 -0.027,0.03 -0.008,0.017 -0.017,0.031 -0.029,0.044 -0.011,0.013 -0.025,0.024 -0.04,0.033 -0.015,0.01 -0.031,0.017 -0.049,0.024 -0.017,0.006 -0.034,0.011 -0.053,0.015 -0.018,0.004 -0.036,0.007 -0.054,0.009 -0.018,0.001 -0.035,0.002 -0.051,0.002 -0.014,0 -0.03,-0.001 -0.047,-0.003 C 0.446,-0.441 0.428,-0.444 0.409,-0.449 0.39,-0.453 0.372,-0.458 0.353,-0.465 0.334,-0.472 0.317,-0.48 0.301,-0.49 0.285,-0.499 0.272,-0.51 0.26,-0.522 0.248,-0.534 0.24,-0.548 0.236,-0.563 0.225,-0.57 0.216,-0.58 0.208,-0.593 0.199,-0.605 0.195,-0.618 0.195,-0.632 c 0,-0.013 0.004,-0.024 0.01,-0.035 0.007,-0.011 0.015,-0.021 0.026,-0.03 0.01,-0.008 0.022,-0.016 0.036,-0.023 0.013,-0.007 0.027,-0.014 0.041,-0.019 0.014,-0.005 0.027,-0.009 0.04,-0.013 0.014,-0.004 0.025,-0.006 0.035,-0.008 0.042,-0.008 0.085,-0.012 0.128,-0.012 z m 0.097,0.238 C 0.621,-0.536 0.636,-0.538 0.651,-0.542 0.667,-0.546 0.682,-0.55 0.697,-0.556 0.713,-0.561 0.727,-0.568 0.741,-0.575 0.754,-0.582 0.766,-0.591 0.775,-0.601 0.78,-0.605 0.783,-0.609 0.787,-0.615 0.79,-0.62 0.792,-0.625 0.792,-0.632 0.792,-0.64 0.789,-0.648 0.783,-0.654 0.778,-0.661 0.772,-0.667 0.766,-0.671 0.751,-0.684 0.733,-0.695 0.711,-0.703 0.69,-0.711 0.668,-0.718 0.645,-0.723 0.622,-0.728 0.598,-0.732 0.575,-0.734 0.552,-0.736 0.531,-0.737 0.511,-0.737 0.492,-0.737 0.47,-0.736 0.447,-0.734 0.424,-0.732 0.401,-0.728 0.378,-0.723 0.354,-0.718 0.332,-0.711 0.311,-0.703 0.29,-0.695 0.272,-0.684 0.256,-0.671 0.25,-0.666 0.243,-0.66 0.238,-0.653 0.233,-0.647 0.23,-0.639 0.23,-0.629 c 0,0.002 0.001,0.005 0.003,0.009 0.002,0.004 0.003,0.007 0.005,0.009 0.006,0.01 0.016,0.019 0.03,0.028 0.014,0.008 0.029,0.015 0.045,0.022 0.015,0.006 0.031,0.011 0.047,0.016 0.016,0.004 0.03,0.007 0.042,0.009 0.018,0.004 0.036,0.006 0.054,0.007 0.018,0.002 0.037,0.003 0.055,0.003 l 0.022,-0.001 0.042,-0.024 z"
         style="fill:#f2f2f2;fill-rule:nonzero"
         id="path11224" /><path
         d="m 0.511,-0.491 c 0.022,0 0.045,-0.001 0.07,-0.004 0.025,-0.002 0.05,-0.006 0.074,-0.012 0.025,-0.005 0.049,-0.013 0.072,-0.022 0.022,-0.009 0.042,-0.02 0.06,-0.034 -0.001,0.025 -0.003,0.051 -0.006,0.076 -0.002,0.025 -0.007,0.05 -0.013,0.074 l 0.005,0.014 C 0.77,-0.356 0.767,-0.314 0.764,-0.272 0.761,-0.23 0.758,-0.187 0.753,-0.145 0.752,-0.133 0.75,-0.122 0.749,-0.111 0.747,-0.1 0.745,-0.089 0.743,-0.077 H 0.748 L 0.744,-0.018 C 0.743,-0.006 0.742,0.006 0.741,0.017 0.74,0.027 0.739,0.034 0.739,0.038 0.736,0.052 0.729,0.064 0.72,0.074 0.711,0.085 0.7,0.094 0.687,0.102 0.674,0.109 0.66,0.115 0.645,0.12 0.629,0.125 0.614,0.129 0.598,0.132 0.582,0.135 0.567,0.137 0.552,0.138 0.537,0.14 0.523,0.14 0.511,0.14 0.5,0.14 0.488,0.139 0.473,0.138 0.458,0.137 0.442,0.135 0.426,0.132 0.41,0.128 0.393,0.124 0.377,0.119 0.361,0.114 0.346,0.108 0.333,0.1 0.319,0.093 0.308,0.084 0.299,0.073 0.29,0.063 0.285,0.051 0.283,0.038 0.281,0.019 0.279,0 0.278,-0.02 0.277,-0.039 0.276,-0.058 0.274,-0.077 H 0.286 C 0.285,-0.081 0.284,-0.086 0.282,-0.091 0.28,-0.096 0.278,-0.102 0.276,-0.108 0.274,-0.113 0.273,-0.119 0.271,-0.124 0.27,-0.129 0.269,-0.134 0.269,-0.137 L 0.249,-0.399 0.255,-0.406 C 0.249,-0.431 0.244,-0.457 0.241,-0.484 0.238,-0.51 0.236,-0.537 0.236,-0.563 c 0.017,0.014 0.037,0.025 0.06,0.034 0.023,0.009 0.046,0.017 0.071,0.022 0.025,0.006 0.05,0.01 0.075,0.012 0.025,0.003 0.048,0.004 0.069,0.004 z m 0.491,-0.316 -0.298,0.015 c -0.007,0 -0.014,0.001 -0.02,0.004 -0.006,0.003 -0.012,0.007 -0.017,0.012 -0.005,0.005 -0.009,0.01 -0.013,0.016 -0.004,0.006 -0.007,0.012 -0.009,0.019 -0.004,0.01 -0.006,0.02 -0.009,0.03 -0.002,0.01 -0.004,0.02 -0.007,0.031 -0.006,0.023 -0.012,0.045 -0.018,0.068 -0.006,0.023 -0.012,0.045 -0.019,0.068 L 0.57,-0.529 c -0.006,0 -0.012,0.001 -0.018,0.001 -0.006,0.001 -0.013,0.001 -0.019,0.001 l 0.07,-0.24 C 0.606,-0.778 0.611,-0.788 0.618,-0.797 0.624,-0.806 0.632,-0.814 0.641,-0.821 0.65,-0.828 0.66,-0.833 0.67,-0.837 0.681,-0.84 0.692,-0.842 0.704,-0.842 h 0.298 z"
         style="fill:#e81224;fill-rule:nonzero"
         id="path11226" /><path
         d="M 1.002,-0.772 H 0.704 c -0.007,0 -0.014,0.002 -0.021,0.007 -0.006,0.004 -0.01,0.01 -0.013,0.018 L 0.608,-0.534 C 0.596,-0.532 0.583,-0.53 0.57,-0.529 L 0.637,-0.757 C 0.641,-0.772 0.65,-0.784 0.662,-0.793 0.674,-0.802 0.688,-0.807 0.704,-0.807 h 0.298 z"
         style="fill:#e6808a;fill-rule:nonzero"
         id="path11228" /><path
         d="m 0.242,-0.482 c 0,0.012 0.003,0.024 0.009,0.034 0.005,0.01 0.013,0.019 0.022,0.028 0.01,0.008 0.021,0.016 0.032,0.022 0.012,0.007 0.025,0.012 0.037,0.017 0.013,0.005 0.025,0.01 0.037,0.013 0.012,0.003 0.023,0.006 0.033,0.008 0.017,0.003 0.033,0.005 0.05,0.007 0.016,0.001 0.033,0.002 0.049,0.002 0.034,0 0.067,-0.003 0.099,-0.009 0.015,-0.003 0.032,-0.008 0.051,-0.014 0.019,-0.006 0.038,-0.014 0.055,-0.024 0.018,-0.01 0.033,-0.022 0.045,-0.036 0.012,-0.014 0.018,-0.03 0.018,-0.048 L 0.773,-0.396 C 0.757,-0.381 0.738,-0.368 0.717,-0.358 0.696,-0.348 0.673,-0.34 0.65,-0.333 0.627,-0.327 0.603,-0.322 0.579,-0.32 0.555,-0.317 0.533,-0.316 0.511,-0.316 0.49,-0.316 0.467,-0.317 0.443,-0.32 0.419,-0.322 0.396,-0.327 0.372,-0.333 0.349,-0.34 0.327,-0.348 0.305,-0.358 0.284,-0.368 0.265,-0.381 0.249,-0.396 Z m 0.027,0.338 c 0.002,0.014 0.008,0.026 0.017,0.037 0.01,0.011 0.022,0.021 0.036,0.029 0.014,0.008 0.03,0.014 0.047,0.02 0.017,0.005 0.035,0.01 0.052,0.013 0.017,0.004 0.034,0.006 0.049,0.008 0.016,0.001 0.03,0.002 0.041,0.002 0.015,0 0.03,-10e-4 0.045,-0.002 0.015,-0.001 0.03,-0.004 0.045,-0.006 0.012,-0.003 0.027,-0.006 0.044,-0.012 0.016,-0.005 0.032,-0.012 0.047,-0.02 0.016,-0.008 0.029,-0.018 0.04,-0.029 0.012,-0.012 0.019,-0.025 0.021,-0.04 L 0.748,-0.071 C 0.733,-0.057 0.715,-0.046 0.696,-0.037 0.677,-0.028 0.657,-0.021 0.636,-0.016 0.615,-0.01 0.594,-0.006 0.573,-0.004 0.551,-0.001 0.531,0 0.511,0 0.492,0 0.471,-0.001 0.45,-0.004 0.428,-0.006 0.407,-0.01 0.386,-0.016 0.365,-0.021 0.345,-0.028 0.326,-0.037 0.306,-0.046 0.289,-0.057 0.274,-0.071 Z m 0.485,-0.01 c 0,0.002 0,0.003 0,0.005 -0.001,0.001 -0.001,0.003 -0.001,0.004 z m -0.486,0 0.001,0.01 C 0.268,-0.146 0.268,-0.147 0.268,-0.149 Z"
         style="fill:#af0d1a;fill-rule:nonzero"
         id="path11230" /></g></g></svg>
