<?xml version="1.0" encoding="UTF-8" standalone="no"?>
<svg
   width="8.9549999"
   height="16.844999"
   viewBox="0 0 8.9549999 16.844999"
   version="1.1"
   xml:space="preserve"
   style="clip-rule:evenodd;fill-rule:evenodd;stroke-linejoin:round;stroke-miterlimit:2"
   id="svg20568"
   sodipodi:docname="emojis.svg"
   xmlns:inkscape="http://www.inkscape.org/namespaces/inkscape"
   xmlns:sodipodi="http://sodipodi.sourceforge.net/DTD/sodipodi-0.dtd"
   xmlns="http://www.w3.org/2000/svg"
   xmlns:svg="http://www.w3.org/2000/svg"><defs
     id="defs20572" /><sodipodi:namedview
     id="namedview20570"
     pagecolor="#505050"
     bordercolor="#eeeeee"
     borderopacity="1"
     inkscape:pageshadow="0"
     inkscape:pageopacity="0"
     inkscape:pagecheckerboard="0" /><g
     transform="matrix(0.24,0,0,0.24,-666.6726,-529.1058)"
     id="g20566"><g
       transform="matrix(62.5,0,0,62.5,2769.99,2261.67)"
       id="g11312"><path
         d="m 0.511,-0.913 c 0.029,0 0.056,0.006 0.082,0.017 0.026,0.011 0.048,0.026 0.067,0.045 0.019,0.019 0.034,0.042 0.045,0.067 0.011,0.026 0.017,0.053 0.017,0.082 v 0.351 c 0,0.012 -0.004,0.024 -0.01,0.035 -0.007,0.01 -0.015,0.019 -0.025,0.025 V 0.087 C 0.687,0.104 0.683,0.12 0.677,0.135 0.67,0.15 0.661,0.163 0.65,0.174 0.639,0.185 0.626,0.194 0.611,0.201 0.596,0.207 0.58,0.21 0.563,0.21 0.547,0.21 0.532,0.207 0.517,0.201 0.502,0.195 0.49,0.187 0.479,0.176 0.467,0.165 0.459,0.153 0.452,0.138 0.445,0.124 0.442,0.109 0.441,0.092 0.44,0.109 0.437,0.124 0.43,0.138 0.423,0.153 0.414,0.165 0.403,0.176 0.392,0.187 0.379,0.195 0.364,0.201 0.35,0.207 0.334,0.21 0.318,0.21 0.301,0.21 0.285,0.207 0.27,0.201 0.255,0.194 0.243,0.185 0.231,0.174 0.22,0.163 0.212,0.15 0.205,0.135 0.199,0.12 0.195,0.104 0.195,0.087 V -0.431 C 0.173,-0.449 0.156,-0.471 0.144,-0.497 0.131,-0.523 0.125,-0.55 0.125,-0.579 v -0.228 c 0,-0.015 0.003,-0.028 0.008,-0.041 0.006,-0.013 0.013,-0.024 0.023,-0.034 0.01,-0.009 0.021,-0.017 0.033,-0.022 0.013,-0.006 0.027,-0.009 0.041,-0.009 z"
         style="fill-rule:nonzero"
         id="path11304" /><path
         d="m 0.423,-0.842 c 0.005,0 0.009,0.001 0.013,0.005 0.003,0.003 0.005,0.007 0.005,0.012 v 0.246 c 0,0.024 -0.006,0.046 -0.019,0.066 -0.013,0.02 -0.03,0.035 -0.051,0.045 v 0.047 C 0.363,-0.416 0.355,-0.412 0.346,-0.408 0.337,-0.405 0.328,-0.404 0.318,-0.404 0.309,-0.404 0.3,-0.405 0.291,-0.409 0.282,-0.412 0.273,-0.416 0.266,-0.421 V -0.468 C 0.244,-0.478 0.227,-0.493 0.214,-0.513 0.202,-0.533 0.195,-0.555 0.195,-0.579 v -0.246 c 0,-0.005 0.002,-0.009 0.005,-0.012 0.004,-0.004 0.008,-0.005 0.013,-0.005 0.008,0 0.013,0.002 0.015,0.007 0.001,0.005 0.002,0.01 0.002,0.017 v 0.204 c 0,0.005 0.002,0.009 0.006,0.012 0.003,0.004 0.007,0.005 0.012,0.005 0.005,0 0.009,-0.001 0.012,-0.005 0.004,-0.003 0.006,-0.007 0.006,-0.012 0,-0.033 -0.001,-0.066 -0.001,-0.098 0,-0.033 0,-0.066 0,-0.099 0,-0.003 0,-0.006 0,-0.01 0,-0.003 0.001,-0.007 0.002,-0.01 0.001,-0.003 0.003,-0.006 0.006,-0.008 0.002,-0.002 0.005,-0.003 0.01,-0.003 0.008,0 0.012,0.002 0.014,0.007 0.002,0.005 0.003,0.01 0.003,0.017 v 0.204 c 0,0.005 0.002,0.009 0.005,0.012 0.004,0.004 0.008,0.005 0.013,0.005 0.005,0 0.009,-0.001 0.012,-0.005 0.004,-0.003 0.005,-0.007 0.005,-0.012 v -0.204 c 0,-0.007 0.002,-0.012 0.004,-0.017 0.002,-0.005 0.007,-0.007 0.014,-0.007 0.008,0 0.013,0.002 0.015,0.007 0.002,0.005 0.003,0.01 0.003,0.017 v 0.204 c 0,0.005 0.001,0.009 0.005,0.012 0.003,0.004 0.007,0.005 0.012,0.005 0.005,0 0.009,-0.001 0.013,-0.005 0.003,-0.003 0.005,-0.007 0.005,-0.012 v -0.204 c 0,-0.007 10e-4,-0.012 0.003,-0.017 0.002,-0.005 0.007,-0.007 0.014,-0.007 z m 0.228,0.14 v 0.316 c 0,0.01 -0.003,0.018 -0.01,0.025 -0.007,0.007 -0.015,0.01 -0.025,0.01 v 0.035 C 0.608,-0.312 0.599,-0.309 0.59,-0.307 0.581,-0.304 0.572,-0.303 0.562,-0.303 0.554,-0.303 0.545,-0.304 0.536,-0.307 0.528,-0.309 0.519,-0.312 0.511,-0.316 v -0.526 c 0.02,0 0.038,0.003 0.055,0.011 0.017,0.007 0.032,0.017 0.044,0.03 0.013,0.012 0.023,0.027 0.03,0.044 0.008,0.017 0.011,0.035 0.011,0.055 z"
         style="fill:#cccccc;fill-rule:nonzero"
         id="path11306" /><path
         d="M 0.371,0.087 C 0.371,0.095 0.369,0.102 0.366,0.108 0.364,0.115 0.36,0.12 0.355,0.125 0.351,0.129 0.345,0.133 0.338,0.136 0.332,0.139 0.325,0.14 0.318,0.14 0.311,0.14 0.304,0.139 0.298,0.136 0.291,0.133 0.286,0.129 0.281,0.125 0.276,0.12 0.273,0.114 0.27,0.108 0.267,0.101 0.266,0.095 0.266,0.087 v -0.473 c 0.008,-0.005 0.016,-0.009 0.025,-0.012 0.009,-0.003 0.018,-0.004 0.027,-0.004 0.01,0 0.019,0.001 0.028,0.004 0.008,0.003 0.017,0.007 0.025,0.012 z m 0.14,0 v -0.368 c 0.018,-0.005 0.036,-0.008 0.053,-0.008 0.018,0 0.035,0.003 0.052,0.008 V 0.087 C 0.616,0.095 0.615,0.102 0.612,0.108 0.609,0.115 0.606,0.12 0.601,0.125 0.596,0.129 0.59,0.133 0.584,0.136 0.577,0.139 0.571,0.14 0.563,0.14 0.556,0.14 0.549,0.139 0.543,0.136 0.536,0.133 0.531,0.129 0.526,0.125 0.522,0.12 0.518,0.114 0.515,0.108 0.513,0.101 0.511,0.095 0.511,0.087 Z"
         style="fill:#b3dbf2;fill-rule:nonzero"
         id="path11308" /><path
         d="m 0.266,-0.421 h 0.105 v 0.035 H 0.266 Z m 0.35,0.105 v 0.035 H 0.511 v -0.035 z"
         style="fill:#e5e5e5;fill-rule:nonzero"
         id="path11310" /></g></g></svg>
