<?xml version="1.0" encoding="UTF-8" standalone="no"?>
<svg
   width="16.844999"
   height="14.73"
   viewBox="0 0 16.844999 14.73"
   version="1.1"
   xml:space="preserve"
   style="clip-rule:evenodd;fill-rule:evenodd;stroke-linejoin:round;stroke-miterlimit:2"
   id="svg20568"
   sodipodi:docname="emojis.svg"
   xmlns:inkscape="http://www.inkscape.org/namespaces/inkscape"
   xmlns:sodipodi="http://sodipodi.sourceforge.net/DTD/sodipodi-0.dtd"
   xmlns="http://www.w3.org/2000/svg"
   xmlns:svg="http://www.w3.org/2000/svg"><defs
     id="defs20572" /><sodipodi:namedview
     id="namedview20570"
     pagecolor="#505050"
     bordercolor="#eeeeee"
     borderopacity="1"
     inkscape:pageshadow="0"
     inkscape:pageopacity="0"
     inkscape:pagecheckerboard="0" /><g
     transform="matrix(0.24,0,0,0.24,-506.463,-112.83408)"
     id="g20566"><g
       transform="matrix(62.5,0,0,62.5,2102.45,518.392)"
       id="g1138"><path
         d="M 0.318,0.21 C 0.291,0.21 0.266,0.205 0.243,0.195 0.219,0.185 0.199,0.171 0.181,0.154 0.164,0.137 0.15,0.116 0.14,0.093 0.13,0.069 0.125,0.044 0.125,0.018 0.125,-0.001 0.128,-0.019 0.133,-0.036 0.138,-0.053 0.145,-0.07 0.155,-0.085 0.164,-0.1 0.176,-0.114 0.189,-0.126 0.202,-0.138 0.217,-0.148 0.234,-0.156 0.233,-0.162 0.232,-0.169 0.231,-0.175 0.231,-0.181 0.23,-0.187 0.23,-0.193 0.23,-0.215 0.234,-0.236 0.241,-0.256 0.248,-0.276 0.258,-0.294 0.27,-0.31 0.282,-0.326 0.297,-0.34 0.315,-0.353 0.332,-0.365 0.351,-0.374 0.372,-0.379 0.371,-0.388 0.371,-0.396 0.371,-0.404 c 0,-0.027 0.005,-0.052 0.015,-0.075 0.01,-0.023 0.024,-0.044 0.041,-0.061 0.017,-0.018 0.038,-0.031 0.061,-0.042 0.024,-0.01 0.049,-0.015 0.075,-0.015 h 0.088 c 0.01,0 0.018,-0.003 0.025,-0.01 0.007,-0.007 0.011,-0.015 0.011,-0.025 v -0.14 h 0.07 c 0.024,0 0.046,0.004 0.068,0.012 0.021,0.007 0.041,0.018 0.059,0.031 0.019,0.014 0.035,0.03 0.049,0.048 0.015,0.018 0.027,0.037 0.037,0.058 0.011,0.02 0.019,0.042 0.024,0.065 0.006,0.022 0.008,0.045 0.008,0.067 0,0.037 -0.007,0.073 -0.021,0.107 0.023,0.004 0.045,0.012 0.065,0.023 0.019,0.012 0.036,0.026 0.051,0.043 0.014,0.017 0.025,0.036 0.033,0.057 0.009,0.021 0.013,0.044 0.013,0.068 0,0.006 -0.001,0.012 -0.001,0.018 -10e-4,0.006 -0.002,0.013 -0.003,0.019 0.017,0.008 0.032,0.018 0.045,0.03 0.013,0.012 0.025,0.026 0.034,0.041 0.01,0.015 0.017,0.032 0.022,0.049 0.005,0.017 0.008,0.035 0.008,0.054 0,0.026 -0.005,0.051 -0.015,0.075 C 1.223,0.116 1.209,0.137 1.192,0.154 1.174,0.171 1.154,0.185 1.13,0.195 1.107,0.205 1.082,0.21 1.055,0.21 Z"
         style="fill-rule:nonzero"
         id="path1126" /><path
         d="m 1.036,-0.105 h 0.019 c 0.017,0 0.033,0.003 0.048,0.009 0.015,0.007 0.028,0.016 0.039,0.027 0.011,0.011 0.02,0.024 0.026,0.039 0.007,0.015 0.01,0.031 0.01,0.048 0,0.017 -0.003,0.033 -0.01,0.048 C 1.162,0.08 1.153,0.093 1.142,0.104 1.131,0.116 1.118,0.124 1.103,0.131 1.088,0.137 1.072,0.14 1.055,0.14 H 0.318 C 0.301,0.14 0.285,0.137 0.27,0.131 0.255,0.124 0.242,0.116 0.231,0.104 0.22,0.093 0.211,0.08 0.205,0.066 0.198,0.051 0.195,0.035 0.195,0.018 0.195,0.001 0.198,-0.015 0.205,-0.03 0.211,-0.045 0.22,-0.058 0.231,-0.069 0.242,-0.08 0.255,-0.089 0.27,-0.096 0.285,-0.102 0.301,-0.105 0.318,-0.105 H 0.337 C 0.325,-0.117 0.316,-0.13 0.31,-0.146 0.303,-0.161 0.3,-0.177 0.3,-0.193 0.3,-0.21 0.304,-0.226 0.31,-0.241 0.317,-0.256 0.325,-0.269 0.337,-0.28 0.348,-0.291 0.361,-0.3 0.376,-0.306 c 0.015,-0.007 0.03,-0.01 0.047,-0.01 H 0.478 C 0.466,-0.327 0.457,-0.341 0.45,-0.356 0.444,-0.371 0.441,-0.387 0.441,-0.404 0.441,-0.421 0.444,-0.437 0.45,-0.452 0.457,-0.467 0.465,-0.48 0.477,-0.491 0.488,-0.502 0.501,-0.51 0.515,-0.517 0.53,-0.523 0.546,-0.526 0.563,-0.526 h 0.088 c 0.015,0 0.029,-0.003 0.041,-0.009 0.013,-0.005 0.024,-0.013 0.034,-0.022 0.009,-0.01 0.017,-0.021 0.023,-0.034 0.005,-0.013 0.008,-0.026 0.008,-0.041 v -0.07 c 0.025,0.004 0.049,0.013 0.07,0.026 0.022,0.013 0.04,0.029 0.056,0.048 0.015,0.018 0.027,0.04 0.036,0.063 0.009,0.023 0.013,0.048 0.013,0.074 0,0.017 -0.002,0.035 -0.006,0.051 -0.005,0.017 -0.011,0.033 -0.019,0.048 -0.008,0.015 -0.018,0.029 -0.03,0.042 -0.011,0.013 -0.024,0.024 -0.039,0.034 H 0.95 c 0.017,0 0.033,0.003 0.047,0.01 0.015,0.006 0.028,0.015 0.039,0.026 0.012,0.011 0.02,0.024 0.027,0.039 0.006,0.015 0.01,0.031 0.01,0.048 0,0.016 -0.004,0.032 -0.01,0.047 -0.007,0.015 -0.016,0.029 -0.027,0.041 z"
         style="fill:#8e562e;fill-rule:nonzero"
         id="path1128" /><path
         d="M 0.208,0.07 H 1.166 C 1.161,0.081 1.154,0.091 1.146,0.099 1.139,0.108 1.13,0.115 1.12,0.121 1.111,0.127 1.1,0.132 1.089,0.135 1.078,0.139 1.067,0.14 1.055,0.14 H 0.318 C 0.306,0.14 0.295,0.139 0.284,0.135 0.273,0.132 0.262,0.127 0.253,0.121 0.243,0.115 0.234,0.108 0.227,0.099 0.219,0.091 0.212,0.081 0.208,0.07 Z M 1.035,-0.105 H 0.338 C 0.318,-0.125 0.306,-0.148 0.302,-0.176 H 1.071 C 1.067,-0.148 1.055,-0.125 1.035,-0.105 Z M 0.837,-0.316 H 0.479 C 0.469,-0.325 0.461,-0.336 0.455,-0.348 0.449,-0.36 0.445,-0.373 0.442,-0.386 h 0.462 c -0.017,0.028 -0.039,0.052 -0.067,0.07 z"
         style="fill:#613d30;fill-rule:nonzero"
         id="path1130" /><path
         d="m 0.844,-0.386 c 0.012,0 0.024,0.002 0.034,0.007 0.011,0.004 0.021,0.01 0.028,0.018 0.008,0.008 0.015,0.018 0.019,0.028 0.005,0.011 0.007,0.023 0.007,0.035 v 0.07 c 0,0.012 -0.002,0.023 -0.007,0.034 -0.004,0.01 -0.011,0.02 -0.019,0.028 -0.007,0.008 -0.017,0.014 -0.028,0.019 -0.01,0.004 -0.022,0.006 -0.034,0.006 -0.012,0 -0.023,-0.002 -0.034,-0.006 C 0.8,-0.152 0.79,-0.158 0.782,-0.166 0.774,-0.174 0.768,-0.184 0.764,-0.194 0.759,-0.205 0.757,-0.216 0.757,-0.228 v -0.07 c 0,-0.012 0.002,-0.024 0.007,-0.035 0.004,-0.01 0.01,-0.02 0.018,-0.028 C 0.79,-0.369 0.8,-0.375 0.81,-0.379 0.821,-0.384 0.832,-0.386 0.844,-0.386 Z m -0.315,0 c 0.012,0 0.023,0.002 0.034,0.007 0.01,0.004 0.02,0.01 0.028,0.018 0.008,0.008 0.014,0.018 0.018,0.028 0.005,0.011 0.007,0.023 0.007,0.035 v 0.07 c 0,0.012 -0.002,0.023 -0.007,0.034 -0.004,0.01 -0.01,0.02 -0.018,0.028 -0.008,0.008 -0.018,0.014 -0.028,0.019 -0.011,0.004 -0.022,0.006 -0.034,0.006 -0.012,0 -0.024,-0.002 -0.034,-0.006 C 0.484,-0.152 0.475,-0.158 0.467,-0.166 0.459,-0.174 0.452,-0.184 0.448,-0.194 0.443,-0.205 0.441,-0.216 0.441,-0.228 v -0.07 c 0,-0.012 0.002,-0.024 0.007,-0.035 0.004,-0.01 0.011,-0.02 0.019,-0.028 0.008,-0.008 0.017,-0.014 0.027,-0.018 0.011,-0.005 0.022,-0.007 0.035,-0.007 z"
         style="fill:#ffffff;fill-rule:nonzero"
         id="path1132" /><path
         d="M 0.602,0.083 C 0.588,0.075 0.575,0.066 0.564,0.055 0.553,0.044 0.543,0.032 0.536,0.019 0.528,0.006 0.522,-0.008 0.518,-0.023 0.513,-0.038 0.511,-0.054 0.511,-0.07 h 0.351 c 0,0.016 -0.002,0.032 -0.007,0.047 C 0.851,-0.008 0.845,0.006 0.837,0.019 0.83,0.032 0.82,0.044 0.809,0.055 0.798,0.066 0.785,0.075 0.771,0.083 0.768,0.069 0.76,0.062 0.746,0.062 0.735,0.062 0.725,0.064 0.715,0.067 0.705,0.069 0.694,0.071 0.684,0.071 0.674,0.071 0.664,0.069 0.655,0.067 0.645,0.064 0.636,0.062 0.625,0.062 0.619,0.062 0.613,0.064 0.61,0.068 0.606,0.071 0.604,0.076 0.602,0.083 Z M 0.581,-0.298 v 0.072 c 0,0.008 -0.002,0.015 -0.005,0.021 -0.003,0.007 -0.007,0.012 -0.013,0.016 -0.005,0.004 -0.011,0.008 -0.018,0.01 -0.007,0.002 -0.013,0.003 -0.021,0.003 -0.006,0 -0.013,-0.001 -0.019,-0.004 C 0.5,-0.184 0.494,-0.188 0.49,-0.192 0.486,-0.197 0.482,-0.203 0.48,-0.209 0.477,-0.215 0.476,-0.222 0.476,-0.228 V -0.3 c 0,-0.007 0.002,-0.014 0.004,-0.02 0.003,-0.006 0.007,-0.012 0.012,-0.016 0.005,-0.005 0.011,-0.009 0.017,-0.011 0.006,-0.003 0.013,-0.004 0.02,-0.004 0.007,0 0.014,0.001 0.02,0.004 0.007,0.003 0.012,0.007 0.017,0.012 0.004,0.004 0.008,0.01 0.011,0.016 0.003,0.007 0.004,0.013 0.004,0.021 z m 0.265,-0.053 c 0.007,0 0.013,0.001 0.019,0.004 0.006,0.003 0.012,0.007 0.017,0.011 0.004,0.005 0.008,0.01 0.011,0.017 0.003,0.006 0.004,0.012 0.004,0.019 v 0.072 c 0,0.008 -0.001,0.015 -0.004,0.021 C 0.89,-0.2 0.886,-0.195 0.881,-0.19 0.876,-0.185 0.87,-0.182 0.863,-0.179 0.856,-0.177 0.849,-0.176 0.842,-0.176 0.836,-0.176 0.83,-0.177 0.824,-0.18 0.818,-0.182 0.813,-0.186 0.808,-0.19 0.803,-0.195 0.799,-0.2 0.796,-0.206 0.793,-0.211 0.792,-0.217 0.792,-0.224 v -0.079 c 0,-0.007 0.002,-0.013 0.005,-0.019 C 0.8,-0.328 0.804,-0.333 0.809,-0.337 0.814,-0.342 0.82,-0.345 0.827,-0.347 0.833,-0.35 0.84,-0.351 0.846,-0.351 Z"
         style="fill-rule:nonzero"
         id="path1134" /><path
         d="M 0.687,0.105 C 0.672,0.105 0.657,0.103 0.643,0.1 0.628,0.096 0.615,0.09 0.602,0.083 0.605,0.073 0.609,0.064 0.614,0.056 0.619,0.048 0.626,0.042 0.633,0.036 0.64,0.03 0.649,0.026 0.658,0.022 0.667,0.019 0.676,0.018 0.687,0.018 0.696,0.018 0.706,0.019 0.715,0.022 0.724,0.026 0.732,0.03 0.74,0.036 0.747,0.042 0.754,0.049 0.759,0.057 0.764,0.065 0.768,0.074 0.771,0.083 0.759,0.09 0.745,0.096 0.73,0.1 0.715,0.103 0.701,0.105 0.687,0.105 Z"
         style="fill:#e81224;fill-rule:nonzero"
         id="path1136" /></g></g></svg>
