<?xml version="1.0" encoding="UTF-8" standalone="no"?>
<svg
   width="15.27"
   height="16.32"
   viewBox="0 0 15.27 16.32"
   version="1.1"
   xml:space="preserve"
   style="clip-rule:evenodd;fill-rule:evenodd;stroke-linejoin:round;stroke-miterlimit:2"
   id="svg20568"
   sodipodi:docname="emojis.svg"
   xmlns:inkscape="http://www.inkscape.org/namespaces/inkscape"
   xmlns:sodipodi="http://sodipodi.sourceforge.net/DTD/sodipodi-0.dtd"
   xmlns="http://www.w3.org/2000/svg"
   xmlns:svg="http://www.w3.org/2000/svg"><defs
     id="defs20572" /><sodipodi:namedview
     id="namedview20570"
     pagecolor="#505050"
     bordercolor="#eeeeee"
     borderopacity="1"
     inkscape:pageshadow="0"
     inkscape:pageopacity="0"
     inkscape:pagecheckerboard="0" /><g
     transform="matrix(0.24,0,0,0.24,-699.9678,-529.1058)"
     id="g20566"><g
       transform="matrix(62.5,0,0,62.5,2908.72,2261.67)"
       id="g11330"><path
         d="M 1.073,0.175 C 1.008,0.175 0.948,0.164 0.892,0.142 0.837,0.119 0.784,0.087 0.736,0.045 0.724,0.035 0.713,0.023 0.702,0.012 0.692,0 0.681,-0.012 0.67,-0.023 0.652,-0.041 0.635,-0.059 0.617,-0.077 0.6,-0.094 0.582,-0.112 0.564,-0.129 L 0.342,-0.351 0.412,-0.421 0.167,-0.666 C 0.154,-0.679 0.143,-0.695 0.136,-0.712 0.129,-0.73 0.125,-0.749 0.125,-0.768 c 0,-0.02 0.004,-0.039 0.011,-0.056 0.008,-0.018 0.018,-0.033 0.031,-0.046 0.014,-0.013 0.029,-0.023 0.046,-0.031 0.018,-0.008 0.037,-0.012 0.057,-0.012 0.019,0 0.038,0.004 0.055,0.011 0.018,0.008 0.033,0.018 0.047,0.032 l 0.572,0.572 c 0.004,0.004 0.008,0.007 0.012,0.011 0.004,0.003 0.008,0.007 0.012,0.01 0.008,0.007 0.016,0.015 0.023,0.022 0.007,0.008 0.014,0.015 0.021,0.023 0.042,0.048 0.074,0.1 0.097,0.156 0.022,0.057 0.034,0.117 0.034,0.181 v 0.07 z"
         style="fill-rule:nonzero"
         id="path11322" /><path
         d="M 0.581,-0.562 0.594,-0.453 0.476,-0.457 0.217,-0.715 C 0.21,-0.722 0.205,-0.73 0.201,-0.74 0.197,-0.749 0.195,-0.758 0.195,-0.768 0.195,-0.777 0.197,-0.787 0.201,-0.796 0.205,-0.805 0.21,-0.813 0.217,-0.82 0.224,-0.827 0.232,-0.833 0.241,-0.837 0.25,-0.84 0.26,-0.842 0.27,-0.842 c 0.009,0 0.019,0.002 0.028,0.005 0.009,0.004 0.017,0.009 0.024,0.016 z"
         style="fill:#8e562e;fill-rule:nonzero"
         id="path11324" /><path
         d="m 0.581,-0.562 c 0.053,0.054 0.106,0.106 0.158,0.159 0.051,0.053 0.104,0.105 0.158,0.157 0.01,0.01 0.02,0.019 0.03,0.028 0.009,0.009 0.019,0.018 0.029,0.029 0.032,0.035 0.058,0.075 0.078,0.119 0.02,0.044 0.033,0.09 0.037,0.138 L 1.052,0.091 C 1.024,0.09 0.996,0.085 0.969,0.076 0.941,0.068 0.914,0.056 0.889,0.042 0.863,0.028 0.839,0.012 0.816,-0.006 0.793,-0.024 0.772,-0.043 0.754,-0.063 0.746,-0.071 0.738,-0.08 0.731,-0.088 0.723,-0.097 0.715,-0.105 0.708,-0.114 0.705,-0.118 0.702,-0.122 0.699,-0.125 0.696,-0.129 0.693,-0.133 0.689,-0.136 L 0.475,-0.341 0.476,-0.386 0.511,-0.421 0.476,-0.457 Z m -0.158,-0.07 c 0.005,0 0.009,0.002 0.013,0.005 0.003,0.004 0.005,0.008 0.005,0.013 0,0.005 -0.002,0.009 -0.005,0.012 -0.004,0.004 -0.008,0.005 -0.013,0.005 -0.005,0 -0.009,-0.001 -0.012,-0.005 -0.004,-0.003 -0.005,-0.007 -0.005,-0.012 0,-0.005 10e-4,-0.009 0.005,-0.013 0.003,-0.003 0.007,-0.005 0.012,-0.005 z M 0.318,-0.737 c 0.004,0 0.008,0.001 0.012,0.005 0.004,0.004 0.005,0.008 0.005,0.012 0,0.005 -0.001,0.009 -0.005,0.013 -0.003,0.003 -0.007,0.005 -0.012,0.005 -0.005,0 -0.009,-0.002 -0.013,-0.005 C 0.302,-0.711 0.3,-0.715 0.3,-0.72 c 0,-0.004 0.002,-0.008 0.006,-0.012 0.003,-0.004 0.007,-0.005 0.012,-0.005 z"
         style="fill:#cccccc;fill-rule:nonzero"
         id="path11326" /><path
         d="m 0.476,-0.386 c 0.047,0.047 0.094,0.094 0.141,0.14 0.047,0.046 0.093,0.093 0.14,0.141 0.008,0.008 0.017,0.017 0.025,0.026 0.008,0.009 0.016,0.017 0.025,0.026 0.017,0.017 0.036,0.033 0.057,0.046 0.02,0.014 0.042,0.026 0.064,0.037 0.023,0.01 0.046,0.018 0.07,0.025 0.024,0.006 0.048,0.011 0.073,0.013 L 1.073,0.105 C 1.042,0.105 1.011,0.101 0.981,0.094 0.951,0.087 0.922,0.078 0.894,0.065 0.866,0.052 0.839,0.036 0.814,0.018 0.788,-0.001 0.765,-0.021 0.745,-0.044 0.741,-0.049 0.737,-0.053 0.733,-0.057 0.729,-0.062 0.726,-0.066 0.722,-0.07 0.676,-0.119 0.63,-0.166 0.582,-0.212 0.535,-0.258 0.488,-0.304 0.441,-0.351 Z"
         style="fill:#f2f2f2;fill-rule:nonzero"
         id="path11328" /></g></g></svg>
