<?xml version="1.0" encoding="UTF-8" standalone="no"?>
<svg
   width="16.844999"
   height="16.844999"
   viewBox="0 0 16.844999 16.844999"
   version="1.1"
   xml:space="preserve"
   style="clip-rule:evenodd;fill-rule:evenodd;stroke-linejoin:round;stroke-miterlimit:2"
   id="svg20568"
   sodipodi:docname="emojis.svg"
   xmlns:inkscape="http://www.inkscape.org/namespaces/inkscape"
   xmlns:sodipodi="http://sodipodi.sourceforge.net/DTD/sodipodi-0.dtd"
   xmlns="http://www.w3.org/2000/svg"
   xmlns:svg="http://www.w3.org/2000/svg"><defs
     id="defs20572" /><sodipodi:namedview
     id="namedview20570"
     pagecolor="#505050"
     bordercolor="#eeeeee"
     borderopacity="1"
     inkscape:pageshadow="0"
     inkscape:pageopacity="0"
     inkscape:pagecheckerboard="0" /><g
     transform="matrix(0.24,0,0,0.24,-155.28156,-585.5658)"
     id="g20566"><g
       transform="matrix(62.5,0,0,62.5,639.194,2496.92)"
       id="g11492"><path
         d="m 0.897,-0.913 c 0.032,0 0.063,0.005 0.093,0.013 0.03,0.008 0.058,0.02 0.084,0.035 0.026,0.016 0.05,0.034 0.071,0.055 0.022,0.022 0.04,0.045 0.055,0.071 0.015,0.026 0.027,0.054 0.036,0.084 0.008,0.03 0.012,0.061 0.012,0.093 0,0.048 -0.009,0.093 -0.026,0.135 -0.018,0.042 -0.043,0.08 -0.077,0.114 l -0.07,0.07 C 1.041,-0.21 1.003,-0.184 0.961,-0.167 0.919,-0.149 0.874,-0.141 0.827,-0.141 H 0.651 L 0.334,0.174 C 0.323,0.186 0.309,0.195 0.295,0.201 0.28,0.207 0.264,0.21 0.248,0.21 0.231,0.21 0.215,0.207 0.2,0.201 0.185,0.194 0.172,0.185 0.161,0.174 0.15,0.163 0.141,0.15 0.135,0.135 0.128,0.121 0.125,0.105 0.125,0.088 0.125,0.071 0.128,0.056 0.134,0.041 0.14,0.026 0.149,0.013 0.161,0.001 L 0.34,-0.179 C 0.319,-0.182 0.3,-0.189 0.282,-0.2 0.265,-0.21 0.249,-0.223 0.237,-0.239 0.224,-0.254 0.214,-0.271 0.206,-0.291 0.199,-0.31 0.195,-0.33 0.195,-0.351 c 0,-0.024 0.005,-0.047 0.014,-0.068 0.01,-0.022 0.022,-0.04 0.038,-0.056 0.016,-0.016 0.034,-0.028 0.055,-0.037 0.022,-0.01 0.045,-0.014 0.069,-0.014 0.019,0 0.037,0.003 0.055,0.009 0.018,0.007 0.035,0.015 0.05,0.027 0,-0.048 0.009,-0.093 0.026,-0.135 0.018,-0.043 0.043,-0.081 0.077,-0.115 l 0.07,-0.07 c 0.034,-0.033 0.072,-0.059 0.114,-0.076 0.041,-0.018 0.086,-0.027 0.134,-0.027 z"
         style="fill-rule:nonzero"
         id="path11476" /><path
         d="m 0.897,-0.842 c 0.039,0 0.075,0.007 0.109,0.022 0.035,0.014 0.064,0.034 0.09,0.06 0.025,0.025 0.045,0.055 0.06,0.089 0.014,0.034 0.022,0.071 0.022,0.109 0,0.038 -0.007,0.074 -0.022,0.108 -0.014,0.034 -0.034,0.064 -0.06,0.091 l -0.071,0.07 C 0.998,-0.266 0.968,-0.246 0.934,-0.232 0.901,-0.218 0.865,-0.21 0.827,-0.21 H 0.621 L 0.527,-0.118 0.453,-0.122 v -0.07 l 0.093,-0.093 c 0,-0.035 0,-0.069 0,-0.103 0,-0.034 0,-0.069 0,-0.103 0,-0.038 0.007,-0.074 0.022,-0.108 0.014,-0.034 0.034,-0.064 0.06,-0.091 L 0.699,-0.76 C 0.725,-0.787 0.756,-0.807 0.79,-0.821 0.823,-0.835 0.859,-0.842 0.897,-0.842 Z"
         style="fill:#886ce4;fill-rule:nonzero"
         id="path11478" /><path
         d="m 0.932,-0.77 c 0.042,0.008 0.077,0.025 0.107,0.052 0.029,0.027 0.049,0.061 0.061,0.101 10e-4,0.004 0.002,0.007 0.003,0.01 0.001,0.003 0.001,0.007 0.001,0.01 0,0.002 0,0.004 -0.002,0.005 -0.002,0.002 -0.004,0.003 -0.006,0.005 -0.002,0.001 -0.004,0.003 -0.007,0.004 -0.002,0.001 -0.004,0.002 -0.006,0.002 0.002,0.001 0.004,0.002 0.006,0.003 0.003,0.002 0.006,0.003 0.008,0.005 0.003,0.002 0.005,0.004 0.007,0.006 0.002,0.002 0.003,0.004 0.003,0.005 0,0.004 0,0.009 0,0.016 -10e-4,0.006 -0.002,0.013 -0.003,0.021 0,0.007 -0.002,0.014 -0.003,0.02 -0.002,0.006 -0.003,0.011 -0.005,0.014 -0.001,0.001 -0.003,0.003 -0.005,0.004 -0.003,0.001 -0.005,0.003 -0.008,0.004 l -0.016,0.007 c 0.002,0.002 0.005,0.004 0.008,0.008 0.003,0.004 0.005,0.007 0.005,0.01 0,0.002 -0.002,0.006 -0.005,0.011 -0.004,0.005 -0.008,0.01 -0.013,0.016 -0.005,0.006 -0.01,0.011 -0.014,0.016 -0.005,0.005 -0.008,0.009 -0.01,0.011 l -0.022,-0.008 -0.011,0.031 -0.027,0.01 0.006,0.02 C 0.962,-0.329 0.938,-0.312 0.913,-0.299 0.887,-0.287 0.859,-0.281 0.827,-0.281 0.823,-0.285 0.82,-0.29 0.818,-0.295 0.815,-0.299 0.813,-0.304 0.81,-0.309 0.807,-0.305 0.805,-0.3 0.802,-0.296 0.798,-0.291 0.795,-0.287 0.792,-0.284 0.769,-0.288 0.749,-0.295 0.729,-0.305 0.71,-0.315 0.693,-0.328 0.677,-0.343 0.662,-0.358 0.65,-0.375 0.64,-0.395 0.63,-0.414 0.623,-0.434 0.619,-0.457 0.623,-0.46 0.627,-0.463 0.631,-0.465 0.635,-0.468 0.639,-0.47 0.644,-0.473 0.639,-0.475 0.634,-0.478 0.63,-0.481 0.625,-0.484 0.62,-0.487 0.616,-0.491 0.616,-0.516 0.62,-0.539 0.628,-0.562 0.634,-0.564 0.639,-0.567 0.644,-0.57 0.649,-0.573 0.654,-0.576 0.659,-0.58 0.657,-0.583 0.655,-0.586 0.652,-0.589 0.65,-0.591 0.647,-0.594 0.645,-0.597 0.65,-0.606 0.656,-0.616 0.664,-0.624 0.671,-0.633 0.679,-0.641 0.687,-0.649 L 0.702,-0.647 0.72,-0.674 0.753,-0.68 0.74,-0.702 C 0.748,-0.71 0.756,-0.717 0.764,-0.725 0.773,-0.732 0.782,-0.738 0.792,-0.744 l 0.02,0.013 c 10e-4,-0.006 0.004,-0.011 0.006,-0.015 0.003,-0.005 0.006,-0.01 0.009,-0.014 0.023,-0.008 0.047,-0.012 0.07,-0.012 0.003,0.004 0.006,0.008 0.009,0.012 0.002,0.004 0.005,0.008 0.009,0.012 0.003,-0.003 0.006,-0.007 0.009,-0.011 0.003,-0.003 0.006,-0.007 0.008,-0.011 z"
         style="fill:#b3dbf2;fill-rule:nonzero"
         id="path11480" /><path
         d="m 1.038,-0.597 h 0.066 c 0.002,0.012 0.003,0.024 0.003,0.035 H 1.038 v 0.071 H 1.096 C 1.09,-0.479 1.085,-0.467 1.08,-0.457 H 1.038 v 0.053 L 0.984,-0.351 H 0.932 v 0.042 C 0.927,-0.306 0.921,-0.302 0.915,-0.3 0.909,-0.298 0.903,-0.295 0.897,-0.293 v -0.058 h -0.07 v 0.07 c -0.012,0 -0.024,-10e-4 -0.035,-0.003 V -0.351 H 0.687 V -0.457 H 0.619 C 0.617,-0.468 0.616,-0.479 0.616,-0.491 H 0.687 V -0.562 H 0.628 c 0.004,-0.012 0.01,-0.023 0.017,-0.035 H 0.687 V -0.649 L 0.74,-0.702 H 0.792 V -0.744 C 0.803,-0.75 0.814,-0.756 0.827,-0.76 v 0.058 h 0.07 v -0.07 c 0.006,0 0.012,0 0.018,0.001 0.005,0 0.011,0 0.017,0.001 v 0.068 h 0.106 z m -0.141,0.211 v -0.071 h -0.07 v 0.071 z m 0.105,-0.105 v -0.071 h -0.07 v 0.071 z M 0.897,-0.597 v -0.07 h -0.07 v 0.07 z m 0,0.106 v -0.071 h -0.07 v 0.071 z m 0.105,-0.106 v -0.07 h -0.07 v 0.07 z m 0,0.211 v -0.071 h -0.07 v 0.071 z m -0.21,-0.105 v -0.071 h -0.07 v 0.071 z m 0,-0.106 v -0.07 h -0.07 v 0.07 z m 0,0.211 v -0.071 h -0.07 v 0.071 z"
         style="fill:#83beec;fill-rule:nonzero"
         id="path11482" /><path
         d="m 0.383,-0.122 0.062,0.008 0.012,0.067 -0.07,0.069 -0.064,-0.01 -0.01,-0.064 z M 0.195,0.087 C 0.195,0.08 0.196,0.073 0.199,0.066 0.203,0.06 0.207,0.054 0.211,0.049 0.216,0.043 0.222,0.038 0.227,0.033 0.233,0.028 0.238,0.023 0.243,0.019 L 0.301,0.035 0.317,0.093 C 0.312,0.098 0.307,0.103 0.302,0.109 0.297,0.114 0.292,0.12 0.287,0.124 0.281,0.129 0.275,0.133 0.269,0.136 0.262,0.139 0.255,0.141 0.248,0.141 0.24,0.141 0.233,0.139 0.227,0.136 0.22,0.134 0.215,0.13 0.21,0.125 0.205,0.12 0.202,0.115 0.199,0.108 0.196,0.102 0.195,0.095 0.195,0.087 Z"
         style="fill:#cccccc;fill-rule:nonzero"
         id="path11484" /><path
         d="m 0.243,0.019 0.07,-0.071 0.074,0.074 -0.07,0.071 z m 0.21,-0.211 0.074,0.074 -0.07,0.071 -0.074,-0.075 z"
         style="fill:#ffffff;fill-rule:nonzero"
         id="path11486" /><path
         d="m 0.441,-0.429 c 0.011,0.01 0.02,0.022 0.026,0.035 0.006,0.014 0.009,0.028 0.009,0.043 0,0.015 -0.003,0.029 -0.009,0.043 -0.006,0.013 -0.015,0.025 -0.026,0.035 H 0.426 V -0.281 H 0.416 C 0.414,-0.276 0.412,-0.27 0.41,-0.264 0.408,-0.257 0.406,-0.253 0.406,-0.252 0.4,-0.25 0.395,-0.249 0.389,-0.248 c -0.006,0.002 -0.012,0.002 -0.018,0.002 -0.007,0 -0.013,0 -0.018,-0.002 C 0.347,-0.249 0.341,-0.25 0.335,-0.252 L 0.324,-0.281 H 0.315 v 0.008 H 0.3 C 0.289,-0.283 0.281,-0.295 0.274,-0.308 0.268,-0.322 0.265,-0.336 0.265,-0.351 0.265,-0.366 0.268,-0.38 0.274,-0.394 0.281,-0.407 0.289,-0.419 0.3,-0.429 h 0.015 v 0.011 H 0.323 L 0.335,-0.45 c 0.006,-0.002 0.012,-0.003 0.018,-0.005 0.005,-0.001 0.011,-0.002 0.018,-0.002 0.006,0 0.012,0.001 0.018,0.002 0.006,0.002 0.011,0.003 0.017,0.005 0,0.001 0,0.002 10e-4,0.005 l 0.006,0.018 c 0.001,0.003 0.002,0.006 0.003,0.009 h 0.01 v -0.011 z"
         style="fill:#bad80a;fill-rule:nonzero"
         id="path11488" /><path
         d="m 0.406,-0.45 c 0.013,0.005 0.025,0.012 0.035,0.021 v 0.156 c -0.01,0.009 -0.022,0.016 -0.035,0.021 z M 0.3,-0.273 V -0.429 C 0.31,-0.438 0.322,-0.445 0.335,-0.45 v 0.198 C 0.322,-0.257 0.31,-0.264 0.3,-0.273 Z"
         style="fill:#f8ffb3;fill-rule:nonzero"
         id="path11490" /></g></g></svg>
