<?xml version="1.0" encoding="UTF-8" standalone="no"?>
<svg
   width="16.844999"
   height="16.844999"
   viewBox="0 0 16.844999 16.844999"
   version="1.1"
   xml:space="preserve"
   style="clip-rule:evenodd;fill-rule:evenodd;stroke-linejoin:round;stroke-miterlimit:2"
   id="svg20568"
   sodipodi:docname="emojis.svg"
   xmlns:inkscape="http://www.inkscape.org/namespaces/inkscape"
   xmlns:sodipodi="http://sodipodi.sourceforge.net/DTD/sodipodi-0.dtd"
   xmlns="http://www.w3.org/2000/svg"
   xmlns:svg="http://www.w3.org/2000/svg"><defs
     id="defs20572" /><sodipodi:namedview
     id="namedview20570"
     pagecolor="#505050"
     bordercolor="#eeeeee"
     borderopacity="1"
     inkscape:pageshadow="0"
     inkscape:pageopacity="0"
     inkscape:pagecheckerboard="0" /><g
     transform="matrix(0.24,0,0,0.24,-134.68572,-585.5658)"
     id="g20566"><g
       transform="matrix(62.5,0,0,62.5,553.378,2496.92)"
       id="g11474"><path
         d="M 0.476,0.21 C 0.444,0.21 0.413,0.206 0.383,0.198 0.353,0.19 0.325,0.178 0.299,0.163 0.273,0.147 0.249,0.129 0.228,0.108 0.206,0.086 0.188,0.063 0.173,0.037 0.158,0.011 0.146,-0.017 0.137,-0.047 0.129,-0.077 0.125,-0.108 0.125,-0.141 c 0,-0.048 0.006,-0.097 0.017,-0.145 0.011,-0.047 0.028,-0.094 0.049,-0.14 0.021,-0.045 0.046,-0.088 0.075,-0.13 0.03,-0.042 0.063,-0.081 0.099,-0.117 0.036,-0.036 0.075,-0.069 0.116,-0.098 0.042,-0.03 0.086,-0.055 0.131,-0.076 0.045,-0.021 0.092,-0.037 0.14,-0.049 0.048,-0.011 0.096,-0.017 0.145,-0.017 0.032,0 0.063,0.005 0.093,0.013 0.03,0.009 0.058,0.02 0.084,0.035 0.026,0.016 0.05,0.034 0.071,0.055 0.022,0.022 0.04,0.046 0.055,0.071 0.015,0.026 0.027,0.054 0.035,0.084 0.009,0.03 0.013,0.061 0.013,0.093 0,0.049 -0.006,0.098 -0.017,0.145 -0.011,0.048 -0.028,0.095 -0.049,0.14 -0.021,0.046 -0.046,0.089 -0.075,0.131 -0.03,0.042 -0.063,0.081 -0.099,0.117 C 0.972,0.007 0.933,0.04 0.892,0.069 0.85,0.099 0.806,0.124 0.761,0.145 0.716,0.166 0.669,0.182 0.621,0.193 0.573,0.205 0.525,0.21 0.476,0.21 Z"
         style="fill-rule:nonzero"
         id="path11466" /><path
         d="m 0.897,-0.842 c 0.032,0 0.062,0.005 0.091,0.015 0.03,0.01 0.057,0.024 0.081,0.044 l -0.012,0.06 0.062,-0.011 c 0.019,0.025 0.034,0.052 0.044,0.081 0.01,0.029 0.015,0.06 0.015,0.091 0,0.059 -0.009,0.117 -0.028,0.174 C 1.132,-0.33 1.106,-0.276 1.074,-0.224 1.041,-0.172 1.003,-0.123 0.958,-0.079 0.914,-0.035 0.866,0.004 0.814,0.036 0.762,0.069 0.707,0.094 0.65,0.113 0.593,0.131 0.535,0.14 0.476,0.14 0.445,0.14 0.414,0.135 0.385,0.125 0.356,0.116 0.329,0.101 0.304,0.082 V 0.031 H 0.254 C 0.235,0.007 0.22,-0.02 0.21,-0.05 0.2,-0.079 0.195,-0.109 0.195,-0.141 c 0,-0.058 0.01,-0.116 0.028,-0.173 0.018,-0.058 0.044,-0.112 0.076,-0.165 0.033,-0.052 0.071,-0.1 0.116,-0.144 0.044,-0.044 0.092,-0.083 0.144,-0.115 0.052,-0.033 0.107,-0.058 0.164,-0.077 0.057,-0.018 0.115,-0.027 0.174,-0.027 z"
         style="fill:#f7894a;fill-rule:nonzero"
         id="path11468" /><path
         d="m 1.119,-0.734 -0.146,0.146 c 0.01,0.014 0.017,0.03 0.022,0.046 0.005,0.016 0.007,0.033 0.007,0.051 0,0.023 -0.004,0.046 -0.013,0.067 -0.009,0.021 -0.021,0.04 -0.038,0.057 L 0.67,-0.086 C 0.653,-0.07 0.634,-0.057 0.613,-0.048 0.592,-0.04 0.57,-0.035 0.546,-0.035 0.529,-0.035 0.512,-0.038 0.496,-0.043 0.479,-0.048 0.464,-0.055 0.449,-0.064 L 0.304,0.082 C 0.285,0.067 0.269,0.05 0.254,0.032 L 0.4,-0.114 C 0.39,-0.128 0.383,-0.144 0.378,-0.16 0.373,-0.176 0.371,-0.193 0.371,-0.211 c 0,-0.023 0.004,-0.046 0.013,-0.067 0.009,-0.021 0.021,-0.04 0.038,-0.057 l 0.281,-0.281 c 0.016,-0.016 0.035,-0.029 0.057,-0.038 0.021,-0.009 0.043,-0.013 0.067,-0.013 0.017,0 0.034,0.003 0.05,0.008 0.017,0.005 0.032,0.012 0.047,0.021 l 0.145,-0.145 c 0.019,0.014 0.035,0.031 0.05,0.049 z"
         style="fill:#ca5010;fill-rule:nonzero"
         id="path11470" /><path
         d="m 0.476,-0.281 c 0.01,0 0.018,0.004 0.025,0.01 l 0.105,0.105 c 0.007,0.007 0.01,0.016 0.01,0.025 0,0.01 -0.003,0.018 -0.01,0.025 -0.007,0.007 -0.015,0.011 -0.025,0.011 -0.009,0 -0.018,-0.004 -0.024,-0.011 L 0.451,-0.221 c -0.007,-0.007 -0.01,-0.015 -0.01,-0.025 0,-0.009 0.003,-0.018 0.01,-0.025 0.007,-0.006 0.015,-0.01 0.025,-0.01 z m 0.105,-0.105 c 0.01,0 0.018,0.003 0.025,0.01 l 0.105,0.105 c 0.007,0.007 0.011,0.016 0.011,0.025 0,0.01 -0.004,0.018 -0.011,0.025 -0.007,0.007 -0.015,0.011 -0.024,0.011 -0.01,0 -0.018,-0.004 -0.025,-0.011 L 0.557,-0.326 C 0.549,-0.333 0.546,-0.342 0.546,-0.351 c 0,-0.01 0.003,-0.018 0.01,-0.025 0.007,-0.007 0.016,-0.01 0.025,-0.01 z m 0.106,-0.105 c 0.009,0 0.018,0.003 0.024,0.01 l 0.105,0.105 c 0.008,0.007 0.011,0.015 0.011,0.025 0,0.01 -0.003,0.018 -0.011,0.025 -0.007,0.007 -0.015,0.01 -0.024,0.01 -0.01,0 -0.018,-0.003 -0.025,-0.01 L 0.662,-0.432 C 0.655,-0.438 0.651,-0.447 0.651,-0.456 c 0,-0.009 0.004,-0.018 0.011,-0.025 0.007,-0.007 0.015,-0.01 0.025,-0.01 z m 0.105,-0.106 c 0.009,0 0.018,0.004 0.024,0.011 l 0.106,0.105 c 0.007,0.007 0.01,0.015 0.01,0.025 0,0.009 -0.003,0.018 -0.01,0.024 -0.007,0.007 -0.016,0.011 -0.025,0.011 -0.01,0 -0.018,-0.004 -0.025,-0.011 L 0.767,-0.537 c -0.007,-0.006 -0.01,-0.015 -0.01,-0.025 0,-0.009 0.003,-0.017 0.01,-0.024 0.007,-0.007 0.015,-0.011 0.025,-0.011 z"
         style="fill:#f7b189;fill-rule:nonzero"
         id="path11472" /></g></g></svg>
