<?xml version="1.0" encoding="UTF-8" standalone="no"?>
<svg
   width="16.844999"
   height="16.844999"
   viewBox="0 0 16.844999 16.844999"
   version="1.1"
   xml:space="preserve"
   style="clip-rule:evenodd;fill-rule:evenodd;stroke-linejoin:round;stroke-miterlimit:2"
   id="svg20568"
   sodipodi:docname="emojis.svg"
   xmlns:inkscape="http://www.inkscape.org/namespaces/inkscape"
   xmlns:sodipodi="http://sodipodi.sourceforge.net/DTD/sodipodi-0.dtd"
   xmlns="http://www.w3.org/2000/svg"
   xmlns:svg="http://www.w3.org/2000/svg"><defs
     id="defs20572" /><sodipodi:namedview
     id="namedview20570"
     pagecolor="#505050"
     bordercolor="#eeeeee"
     borderopacity="1"
     inkscape:pageshadow="0"
     inkscape:pageopacity="0"
     inkscape:pagecheckerboard="0" /><g
     transform="matrix(0.24,0,0,0.24,-93.49428,-585.5658)"
     id="g20566"><g
       transform="matrix(62.5,0,0,62.5,381.747,2496.92)"
       id="g11452"><path
         d="m 1.248,-0.351 c 0,0.052 -0.007,0.101 -0.02,0.149 C 1.215,-0.154 1.196,-0.109 1.171,-0.068 1.147,-0.026 1.118,0.012 1.083,0.046 1.049,0.08 1.011,0.109 0.97,0.134 0.928,0.158 0.884,0.177 0.836,0.19 0.788,0.204 0.738,0.21 0.687,0.21 0.635,0.21 0.585,0.204 0.537,0.19 0.489,0.177 0.445,0.158 0.403,0.134 0.362,0.109 0.324,0.08 0.29,0.046 0.255,0.012 0.226,-0.026 0.202,-0.068 0.177,-0.109 0.158,-0.154 0.145,-0.202 0.132,-0.25 0.125,-0.299 0.125,-0.351 c 0,-0.052 0.007,-0.102 0.02,-0.149 0.013,-0.048 0.032,-0.093 0.057,-0.135 0.024,-0.041 0.053,-0.079 0.088,-0.113 0.034,-0.034 0.072,-0.064 0.113,-0.088 0.042,-0.024 0.086,-0.043 0.134,-0.057 0.048,-0.013 0.098,-0.02 0.15,-0.02 0.051,0 0.101,0.007 0.149,0.02 0.048,0.014 0.092,0.033 0.134,0.057 0.041,0.024 0.079,0.054 0.113,0.088 0.035,0.034 0.064,0.072 0.088,0.113 0.025,0.042 0.044,0.087 0.057,0.135 0.013,0.047 0.02,0.097 0.02,0.149 z"
         style="fill-rule:nonzero"
         id="path11446" /><path
         d="m 1.178,-0.351 c 0,0.042 -0.005,0.083 -0.016,0.123 -0.01,0.041 -0.026,0.079 -0.046,0.116 C 1.115,-0.113 1.114,-0.113 1.112,-0.113 H 1.108 c -0.009,0 -0.015,0.003 -0.02,0.009 C 1.083,-0.098 1.08,-0.09 1.077,-0.082 1.074,-0.073 1.072,-0.064 1.07,-0.056 1.068,-0.047 1.065,-0.04 1.062,-0.035 1.061,-0.032 1.059,-0.029 1.055,-0.026 1.052,-0.023 1.049,-0.02 1.047,-0.017 1.029,0.002 1.01,0.02 0.989,0.036 0.969,0.052 0.947,0.067 0.924,0.079 0.921,0.077 0.918,0.075 0.915,0.073 0.912,0.071 0.909,0.07 0.906,0.07 0.902,0.07 0.898,0.071 0.894,0.074 0.889,0.077 0.885,0.081 0.881,0.084 0.877,0.088 0.874,0.092 0.871,0.097 0.867,0.101 0.865,0.104 0.863,0.107 0.84,0.116 0.818,0.123 0.794,0.128 0.771,0.134 0.748,0.137 0.724,0.139 0.721,0.133 0.717,0.13 0.714,0.127 0.711,0.125 0.706,0.124 0.699,0.124 0.693,0.124 0.687,0.126 0.682,0.129 0.676,0.133 0.671,0.136 0.667,0.14 0.633,0.139 0.6,0.134 0.568,0.126 0.536,0.118 0.505,0.107 0.475,0.092 0.445,0.078 0.417,0.061 0.39,0.041 0.363,0.021 0.339,-0.002 0.317,-0.027 c 0,-0.002 0.001,-0.004 0.001,-0.005 0,-0.002 0,-0.004 0,-0.006 0,-0.004 -0.002,-0.011 -0.007,-0.018 C 0.306,-0.063 0.3,-0.071 0.293,-0.078 0.286,-0.085 0.279,-0.092 0.272,-0.098 0.266,-0.105 0.26,-0.11 0.257,-0.113 0.241,-0.141 0.229,-0.17 0.219,-0.2 0.209,-0.231 0.202,-0.262 0.198,-0.294 0.201,-0.297 0.203,-0.299 0.205,-0.3 0.206,-0.301 0.208,-0.302 0.208,-0.304 0.209,-0.305 0.21,-0.307 0.21,-0.309 c 0.001,-0.002 0.001,-0.006 0.001,-0.01 0,-0.007 -0.002,-0.014 -0.005,-0.023 -0.004,-0.009 -0.007,-0.016 -0.011,-0.021 0.001,-0.025 0.003,-0.049 0.008,-0.074 0.004,-0.024 0.01,-0.047 0.018,-0.071 0.01,0 0.017,-0.003 0.02,-0.008 0.004,-0.005 0.006,-0.012 0.006,-0.022 0,-0.008 -0.002,-0.016 -0.004,-0.024 0.017,-0.035 0.037,-0.068 0.062,-0.098 0.024,-0.03 0.051,-0.057 0.082,-0.08 0.03,-0.024 0.063,-0.043 0.098,-0.059 0.035,-0.016 0.072,-0.028 0.11,-0.035 0.003,0.003 0.006,0.006 0.009,0.009 0.003,0.003 0.007,0.004 0.011,0.004 0.011,0 0.022,-0.002 0.034,-0.006 0.012,-0.004 0.023,-0.008 0.033,-0.012 l 0.007,-0.003 c 0.031,0 0.061,0.003 0.09,0.009 0.03,0.005 0.058,0.013 0.087,0.024 -0.001,0.002 -0.001,0.004 -0.001,0.006 0,0.002 0,0.004 0,0.006 0,0.006 0.002,0.012 0.005,0.016 0.004,0.004 0.009,0.006 0.016,0.006 0.006,0 0.013,-0.001 0.02,-0.002 0.007,-0.002 0.013,-0.003 0.02,-0.003 0.042,0.023 0.08,0.052 0.113,0.087 -0.002,0.003 -0.003,0.006 -0.004,0.009 -10e-4,0.003 -10e-4,0.006 -10e-4,0.01 0,0.005 10e-4,0.009 0.004,0.012 0.003,0.003 0.007,0.005 0.012,0.007 0.004,0.001 0.009,0.002 0.013,0.003 0.005,0.001 0.01,0.001 0.013,0.002 0.033,0.043 0.059,0.09 0.076,0.141 0.017,0.051 0.026,0.103 0.026,0.158 z"
         style="fill:#ffffff;fill-rule:nonzero"
         id="path11448" /><path
         d="m 1.063,-0.035 c 0,-0.017 0.001,-0.035 0.001,-0.053 0,-0.087 -0.012,-0.173 -0.035,-0.255 C 1.005,-0.426 0.971,-0.505 0.925,-0.579 0.89,-0.556 0.858,-0.53 0.829,-0.5 c 0.037,0.063 0.065,0.129 0.084,0.198 0.018,0.069 0.028,0.141 0.028,0.214 0,0.028 -0.001,0.056 -0.004,0.084 C 0.934,0.024 0.93,0.051 0.924,0.079 0.914,0.085 0.904,0.09 0.894,0.094 0.884,0.099 0.873,0.104 0.863,0.107 0.88,0.044 0.888,-0.021 0.888,-0.088 0.888,-0.153 0.88,-0.217 0.864,-0.28 0.848,-0.342 0.824,-0.402 0.792,-0.459 0.777,-0.44 0.763,-0.42 0.75,-0.4 c -0.013,0.02 -0.024,0.041 -0.035,0.064 0.017,0.039 0.029,0.08 0.038,0.121 0.008,0.042 0.013,0.084 0.013,0.127 0,0.039 -0.004,0.077 -0.011,0.115 C 0.749,0.065 0.738,0.103 0.724,0.139 0.711,0.14 0.699,0.14 0.687,0.14 H 0.667 C 0.674,0.125 0.679,0.109 0.685,0.093 0.69,0.077 0.694,0.061 0.698,0.044 0.632,0.044 0.567,0.038 0.504,0.027 0.441,0.015 0.378,-0.003 0.317,-0.027 0.306,-0.041 0.295,-0.054 0.285,-0.068 0.275,-0.082 0.265,-0.097 0.257,-0.113 c 0.065,0.034 0.134,0.06 0.206,0.078 0.072,0.017 0.145,0.026 0.218,0.026 h 0.027 c 0.001,-0.013 0.002,-0.026 0.003,-0.039 0.001,-0.013 0.002,-0.027 0.002,-0.04 0,-0.007 0,-0.015 -0.001,-0.022 0,-0.007 0,-0.014 -0.001,-0.022 -0.012,0 -0.025,0 -0.037,0 -0.013,0 -0.025,-0.001 -0.038,-0.001 C 0.557,-0.138 0.48,-0.154 0.405,-0.181 0.331,-0.208 0.262,-0.246 0.198,-0.294 0.196,-0.313 0.195,-0.332 0.195,-0.351 v -0.012 c 0.07,0.058 0.147,0.103 0.23,0.133 0.084,0.03 0.171,0.045 0.263,0.045 H 0.705 C 0.701,-0.206 0.697,-0.227 0.691,-0.247 0.685,-0.268 0.679,-0.288 0.67,-0.308 0.583,-0.31 0.502,-0.328 0.426,-0.363 0.349,-0.397 0.281,-0.445 0.221,-0.508 c 0.006,-0.018 0.013,-0.036 0.022,-0.054 0.027,0.032 0.058,0.06 0.092,0.086 0.031,-0.07 0.067,-0.135 0.111,-0.194 0.043,-0.059 0.093,-0.114 0.149,-0.164 0.016,-0.003 0.031,-0.005 0.046,-0.006 0.015,-0.002 0.03,-0.002 0.046,-0.002 h 0.002 c -0.069,0.051 -0.13,0.11 -0.182,0.177 -0.052,0.067 -0.094,0.14 -0.127,0.219 0.035,0.022 0.072,0.039 0.111,0.053 0.018,-0.044 0.04,-0.087 0.065,-0.127 0.026,-0.041 0.054,-0.079 0.086,-0.114 0.032,-0.035 0.066,-0.068 0.104,-0.097 0.037,-0.03 0.077,-0.055 0.12,-0.078 0.01,0.004 0.02,0.009 0.03,0.013 0.011,0.005 0.021,0.01 0.03,0.016 -0.043,0.02 -0.084,0.044 -0.123,0.072 -0.039,0.028 -0.074,0.059 -0.107,0.093 -0.032,0.034 -0.062,0.071 -0.088,0.111 -0.026,0.04 -0.048,0.082 -0.066,0.126 0.041,0.011 0.083,0.017 0.126,0.018 C 0.687,-0.399 0.709,-0.436 0.734,-0.47 0.76,-0.504 0.788,-0.536 0.82,-0.564 0.851,-0.593 0.886,-0.618 0.923,-0.64 0.96,-0.661 0.998,-0.679 1.039,-0.693 1.052,-0.68 1.064,-0.666 1.076,-0.65 1.058,-0.645 1.04,-0.638 1.022,-0.631 1.004,-0.623 0.987,-0.615 0.97,-0.606 c 0.047,0.075 0.082,0.154 0.106,0.237 0.024,0.083 0.038,0.168 0.04,0.257 -0.008,0.013 -0.016,0.027 -0.025,0.04 -0.009,0.013 -0.018,0.025 -0.028,0.037 z"
         style="fill:#a6a6a6;fill-rule:nonzero"
         id="path11450" /></g></g></svg>
