<?xml version="1.0" encoding="UTF-8" standalone="no"?>
<svg
   width="16.844999"
   height="16.844999"
   viewBox="0 0 16.844999 16.844999"
   version="1.1"
   xml:space="preserve"
   style="clip-rule:evenodd;fill-rule:evenodd;stroke-linejoin:round;stroke-miterlimit:2"
   id="svg20568"
   sodipodi:docname="emojis.svg"
   xmlns:inkscape="http://www.inkscape.org/namespaces/inkscape"
   xmlns:sodipodi="http://sodipodi.sourceforge.net/DTD/sodipodi-0.dtd"
   xmlns="http://www.w3.org/2000/svg"
   xmlns:svg="http://www.w3.org/2000/svg"><defs
     id="defs20572" /><sodipodi:namedview
     id="namedview20570"
     pagecolor="#505050"
     bordercolor="#eeeeee"
     borderopacity="1"
     inkscape:pageshadow="0"
     inkscape:pageopacity="0"
     inkscape:pagecheckerboard="0" /><g
     transform="matrix(0.24,0,0,0.24,-13.213584,-585.5658)"
     id="g20566"><g
       transform="matrix(62.5,0,0,62.5,47.2441,2496.92)"
       id="g11416"><path
         d="m 1.248,-0.351 c 0,0.052 -0.007,0.101 -0.02,0.149 C 1.215,-0.154 1.196,-0.109 1.171,-0.068 1.147,-0.026 1.118,0.012 1.083,0.046 1.049,0.08 1.011,0.109 0.97,0.134 0.928,0.158 0.884,0.177 0.836,0.19 0.788,0.204 0.738,0.21 0.687,0.21 0.635,0.21 0.585,0.204 0.537,0.19 0.489,0.177 0.445,0.158 0.403,0.134 0.362,0.109 0.324,0.08 0.29,0.046 0.255,0.012 0.226,-0.026 0.202,-0.068 0.177,-0.109 0.158,-0.154 0.145,-0.202 0.132,-0.25 0.125,-0.299 0.125,-0.351 c 0,-0.052 0.007,-0.102 0.02,-0.149 0.013,-0.048 0.032,-0.093 0.057,-0.135 0.024,-0.041 0.053,-0.079 0.088,-0.113 0.034,-0.034 0.072,-0.064 0.113,-0.088 0.042,-0.024 0.086,-0.043 0.134,-0.057 0.048,-0.013 0.098,-0.02 0.15,-0.02 0.051,0 0.101,0.007 0.149,0.02 0.048,0.014 0.092,0.033 0.134,0.057 0.041,0.024 0.079,0.054 0.113,0.088 0.035,0.034 0.064,0.072 0.088,0.113 0.025,0.042 0.044,0.087 0.057,0.135 0.013,0.047 0.02,0.097 0.02,0.149 z"
         style="fill-rule:nonzero"
         id="path11408" /><path
         d="M 1.112,-0.105 1.013,-0.05 C 1.004,-0.045 0.996,-0.041 0.987,-0.037 0.978,-0.033 0.97,-0.028 0.963,-0.022 0.954,-0.015 0.947,-0.008 0.941,0 0.934,0.009 0.927,0.017 0.92,0.024 L 0.834,0.118 C 0.81,0.125 0.786,0.131 0.761,0.135 0.736,0.138 0.712,0.14 0.687,0.14 0.661,0.14 0.637,0.138 0.612,0.135 0.587,0.131 0.563,0.125 0.539,0.118 L 0.417,-0.037 0.261,-0.105 C 0.244,-0.136 0.229,-0.168 0.219,-0.202 0.208,-0.236 0.201,-0.27 0.197,-0.306 L 0.25,-0.409 C 0.254,-0.417 0.259,-0.425 0.264,-0.434 0.269,-0.442 0.273,-0.451 0.276,-0.46 0.279,-0.471 0.282,-0.483 0.283,-0.495 0.285,-0.507 0.287,-0.519 0.289,-0.531 l 0.026,-0.141 c 0.025,-0.029 0.053,-0.055 0.083,-0.077 0.031,-0.022 0.064,-0.041 0.099,-0.056 0.032,0 0.063,0 0.095,0 0.031,-0.001 0.063,-0.001 0.095,-0.001 0.031,0 0.063,0 0.094,0.001 0.032,0 0.063,0 0.095,0 0.035,0.015 0.068,0.034 0.099,0.056 0.03,0.022 0.058,0.048 0.083,0.077 0.012,0.035 0.025,0.07 0.038,0.104 0.013,0.035 0.025,0.07 0.037,0.105 0.008,0.026 0.016,0.052 0.022,0.078 0.007,0.027 0.014,0.053 0.021,0.079 -0.004,0.036 -0.011,0.07 -0.022,0.104 -0.01,0.034 -0.025,0.066 -0.042,0.097 z"
         style="fill:#ffffff;fill-rule:nonzero"
         id="path11410" /><path
         d="m 1.139,-0.482 0.009,0.07 -0.308,0.04 C 0.828,-0.37 0.815,-0.368 0.802,-0.365 0.789,-0.363 0.776,-0.361 0.764,-0.359 0.751,-0.357 0.738,-0.355 0.725,-0.353 0.712,-0.352 0.7,-0.351 0.687,-0.351 L 1.029,-0.037 0.984,0.016 0.687,-0.246 0.389,0.016 0.344,-0.037 0.687,-0.351 C 0.674,-0.351 0.661,-0.352 0.648,-0.353 0.635,-0.355 0.622,-0.357 0.609,-0.359 0.597,-0.361 0.584,-0.363 0.571,-0.365 0.558,-0.368 0.545,-0.37 0.533,-0.372 l -0.308,-0.04 0.009,-0.07 0.302,0.041 c 0.025,0.003 0.05,0.007 0.075,0.012 0.025,0.005 0.05,0.008 0.076,0.008 0.025,0 0.05,-0.003 0.075,-0.008 0.025,-0.005 0.05,-0.009 0.075,-0.012 z M 0.722,-0.807 v 0.35 H 0.651 v -0.35 z"
         style="fill:#cccccc;fill-rule:nonzero"
         id="path11412" /><path
         d="M 0.687,-0.562 0.89,-0.414 0.812,-0.176 H 0.561 L 0.483,-0.414 Z m 0.189,-0.243 -0.189,0.138 -0.19,-0.138 c 0.061,-0.025 0.124,-0.037 0.19,-0.037 0.065,0 0.128,0.012 0.189,0.037 z m 0.182,0.133 c 0.039,0.045 0.069,0.095 0.089,0.15 0.021,0.054 0.031,0.111 0.031,0.171 0,0.007 0,0.015 -10e-4,0.023 0,0.007 -0.001,0.015 -0.001,0.022 L 1.002,-0.421 Z m -0.743,0 0.056,0.251 -0.174,0.115 c 0,-0.007 -0.001,-0.015 -0.001,-0.022 -0.001,-0.008 -0.001,-0.016 -0.001,-0.023 0,-0.06 0.01,-0.117 0.031,-0.171 0.02,-0.055 0.05,-0.105 0.089,-0.15 z m 0.519,0.79 0.07,-0.223 H 1.112 C 1.08,-0.052 1.041,-0.006 0.994,0.032 0.947,0.071 0.894,0.099 0.834,0.118 Z M 0.261,-0.105 h 0.208 l 0.07,0.223 C 0.479,0.099 0.426,0.071 0.379,0.032 0.332,-0.006 0.293,-0.052 0.261,-0.105 Z"
         style="fill:#383838;fill-rule:nonzero"
         id="path11414" /></g></g></svg>
