<?xml version="1.0" encoding="UTF-8" standalone="no"?>
<svg
   width="16.844999"
   height="16.844999"
   viewBox="0 0 16.844999 16.844999"
   version="1.1"
   xml:space="preserve"
   style="clip-rule:evenodd;fill-rule:evenodd;stroke-linejoin:round;stroke-miterlimit:2"
   id="svg20568"
   sodipodi:docname="emojis.svg"
   xmlns:inkscape="http://www.inkscape.org/namespaces/inkscape"
   xmlns:sodipodi="http://sodipodi.sourceforge.net/DTD/sodipodi-0.dtd"
   xmlns="http://www.w3.org/2000/svg"
   xmlns:svg="http://www.w3.org/2000/svg"><defs
     id="defs20572" /><sodipodi:namedview
     id="namedview20570"
     pagecolor="#505050"
     bordercolor="#eeeeee"
     borderopacity="1"
     inkscape:pageshadow="0"
     inkscape:pageopacity="0"
     inkscape:pagecheckerboard="0" /><g
     transform="matrix(0.24,0,0,0.24,-217.0686,-585.5658)"
     id="g20566"><g
       transform="matrix(62.5,0,0,62.5,896.64,2496.92)"
       id="g11534"><path
         d="m 1.143,-0.913 c 0.014,0 0.028,0.003 0.041,0.009 0.012,0.005 0.023,0.013 0.033,0.022 0.01,0.01 0.017,0.021 0.023,0.034 0.005,0.013 0.008,0.026 0.008,0.041 0,0.014 -0.003,0.027 -0.008,0.04 -0.005,0.013 -0.013,0.024 -0.023,0.034 l -0.285,0.285 0.001,0.04 c 0,0.012 -0.001,0.023 -0.002,0.034 -0.001,0.011 -0.003,0.021 -0.006,0.031 -0.003,0.01 -0.007,0.02 -0.013,0.029 C 0.907,-0.305 0.9,-0.296 0.891,-0.287 L 0.435,0.169 C 0.422,0.183 0.406,0.193 0.389,0.2 0.372,0.207 0.354,0.21 0.335,0.21 0.317,0.21 0.299,0.207 0.282,0.2 0.265,0.193 0.25,0.183 0.236,0.169 L 0.166,0.099 C 0.153,0.085 0.142,0.07 0.135,0.053 0.128,0.037 0.125,0.019 0.125,0 c 0,-0.019 0.003,-0.036 0.01,-0.053 0.007,-0.018 0.018,-0.033 0.031,-0.046 L 0.35,-0.283 C 0.327,-0.286 0.307,-0.292 0.288,-0.302 0.27,-0.312 0.253,-0.325 0.24,-0.341 0.226,-0.356 0.215,-0.374 0.207,-0.394 0.199,-0.413 0.195,-0.434 0.195,-0.457 c 0,-0.024 0.005,-0.046 0.014,-0.068 0.01,-0.021 0.022,-0.04 0.038,-0.055 0.016,-0.016 0.034,-0.029 0.055,-0.038 0.022,-0.009 0.045,-0.014 0.069,-0.014 0.022,0 0.043,0.004 0.063,0.012 0.019,0.008 0.037,0.019 0.053,0.033 0.015,0.014 0.028,0.03 0.038,0.049 0.01,0.019 0.016,0.039 0.019,0.061 l 0.079,-0.079 c 0.013,-0.013 0.028,-0.023 0.045,-0.03 0.017,-0.007 0.035,-0.011 0.054,-0.011 h 0.061 l 0.285,-0.285 c 0.01,-0.01 0.022,-0.017 0.035,-0.023 0.013,-0.005 0.026,-0.008 0.04,-0.008 z"
         style="fill-rule:nonzero"
         id="path11522" /><path
         d="m 0.819,-0.519 0.046,-0.009 -0.011,0.04 -0.017,0.021 0.025,0.011 v 0.07 c 0,0.009 -0.002,0.018 -0.006,0.027 -0.003,0.008 -0.008,0.016 -0.015,0.023 L 0.385,0.12 C 0.379,0.126 0.371,0.131 0.363,0.135 0.354,0.138 0.345,0.14 0.335,0.14 0.316,0.14 0.3,0.133 0.286,0.12 L 0.216,0.049 C 0.202,0.036 0.195,0.019 0.195,0 c 0,-0.009 0.002,-0.018 0.006,-0.027 0.003,-0.009 0.008,-0.016 0.015,-0.023 l 0.456,-0.456 c 0.006,-0.006 0.014,-0.011 0.023,-0.015 0.008,-0.004 0.017,-0.005 0.027,-0.005 h 0.07 l 0.01,0.024 z"
         style="fill:#f7b189;fill-rule:nonzero"
         id="path11524" /><path
         d="m 1.143,-0.842 c 0.009,0 0.018,0.003 0.024,0.01 0.007,0.007 0.011,0.015 0.011,0.025 0,0.009 -0.004,0.017 -0.011,0.024 l -0.315,0.316 -0.05,-0.049 0.316,-0.316 c 0.007,-0.007 0.015,-0.01 0.025,-0.01 z"
         style="fill:#757575;fill-rule:nonzero"
         id="path11526" /><path
         d="m 0.862,-0.477 v 0.02 l -0.218,0.173 c -0.003,0.002 -0.006,0.003 -0.01,0.003 -0.005,0 -0.009,-10e-4 -0.013,-0.005 -0.003,-0.003 -0.005,-0.007 -0.005,-0.012 0,-0.004 0.001,-0.007 0.004,-0.01 l 0.172,-0.218 h 0.02 z"
         style="fill:#f7894a;fill-rule:nonzero"
         id="path11528" /><path
         d="m 0.441,-0.534 c 0.011,0.01 0.02,0.021 0.026,0.035 0.006,0.014 0.009,0.028 0.009,0.042 0,0.015 -0.003,0.03 -0.009,0.043 C 0.461,-0.4 0.452,-0.388 0.441,-0.378 L 0.44,-0.383 H 0.41 l -0.004,0.026 c -0.012,0.004 -0.024,0.006 -0.035,0.006 -0.012,0 -0.024,-0.002 -0.036,-0.006 L 0.33,-0.383 H 0.301 L 0.3,-0.378 C 0.289,-0.389 0.281,-0.4 0.275,-0.414 0.269,-0.427 0.266,-0.442 0.266,-0.457 c 0,-0.014 0.003,-0.028 0.009,-0.042 0.006,-0.014 0.014,-0.025 0.025,-0.035 l 0.003,0.01 h 0.026 l 0.006,-0.031 c 0.012,-0.004 0.024,-0.007 0.036,-0.007 0.011,0 0.023,0.003 0.035,0.007 0,0.005 10e-4,0.01 0.002,0.015 0.001,0.005 0.002,0.01 0.003,0.016 h 0.028 z"
         style="fill:#af0d1a;fill-rule:nonzero"
         id="path11530" /><path
         d="M 0.3,-0.378 V -0.534 C 0.306,-0.539 0.311,-0.543 0.317,-0.546 0.323,-0.55 0.329,-0.553 0.335,-0.555 v 0.198 C 0.329,-0.36 0.323,-0.363 0.317,-0.366 0.311,-0.37 0.306,-0.374 0.3,-0.378 Z m 0.106,-0.177 c 0.006,0.002 0.012,0.005 0.018,0.009 0.006,0.003 0.012,0.007 0.017,0.012 v 0.156 C 0.436,-0.374 0.43,-0.37 0.424,-0.366 0.418,-0.363 0.412,-0.36 0.406,-0.357 Z"
         style="fill:#ffffff;fill-rule:nonzero"
         id="path11532" /></g></g></svg>
