<?xml version="1.0" encoding="UTF-8" standalone="no"?>
<svg
   width="16.844999"
   height="16.844999"
   viewBox="0 0 16.844999 16.844999"
   version="1.1"
   xml:space="preserve"
   style="clip-rule:evenodd;fill-rule:evenodd;stroke-linejoin:round;stroke-miterlimit:2"
   id="svg20568"
   sodipodi:docname="emojis.svg"
   xmlns:inkscape="http://www.inkscape.org/namespaces/inkscape"
   xmlns:sodipodi="http://sodipodi.sourceforge.net/DTD/sodipodi-0.dtd"
   xmlns="http://www.w3.org/2000/svg"
   xmlns:svg="http://www.w3.org/2000/svg"><defs
     id="defs20572" /><sodipodi:namedview
     id="namedview20570"
     pagecolor="#505050"
     bordercolor="#eeeeee"
     borderopacity="1"
     inkscape:pageshadow="0"
     inkscape:pageopacity="0"
     inkscape:pagecheckerboard="0" /><g
     transform="matrix(0.24,0,0,0.24,-196.47276,-585.5658)"
     id="g20566"><g
       transform="matrix(62.5,0,0,62.5,810.824,2496.92)"
       id="g11520"><path
         d="M 0.846,0.21 0.809,0.097 C 0.791,0.115 0.77,0.132 0.749,0.146 0.727,0.16 0.704,0.172 0.68,0.181 0.656,0.191 0.632,0.198 0.606,0.203 0.581,0.208 0.555,0.21 0.529,0.21 0.492,0.21 0.456,0.206 0.422,0.196 0.387,0.186 0.355,0.173 0.325,0.155 0.295,0.138 0.268,0.117 0.243,0.092 0.219,0.067 0.198,0.04 0.18,0.01 0.163,-0.02 0.149,-0.052 0.139,-0.086 0.13,-0.121 0.125,-0.156 0.125,-0.193 c 0,-0.037 0.005,-0.073 0.014,-0.108 0.01,-0.034 0.024,-0.066 0.041,-0.096 0.018,-0.03 0.039,-0.057 0.063,-0.081 0.025,-0.025 0.052,-0.046 0.082,-0.064 0.03,-0.017 0.062,-0.031 0.097,-0.04 0.034,-0.01 0.07,-0.015 0.107,-0.015 h 0.009 c 0.003,0 0.005,0 0.008,0.001 V -0.609 C 0.535,-0.625 0.526,-0.643 0.52,-0.662 0.514,-0.681 0.511,-0.7 0.511,-0.72 c 0,-0.027 0.005,-0.052 0.015,-0.075 0.01,-0.024 0.024,-0.044 0.042,-0.061 0.017,-0.018 0.037,-0.031 0.061,-0.041 0.023,-0.011 0.048,-0.016 0.075,-0.016 0.015,0 0.031,0.002 0.046,0.006 0.014,0.003 0.029,0.009 0.042,0.015 0.014,0.007 0.026,0.016 0.038,0.026 0.012,0.009 0.022,0.021 0.031,0.033 0.017,-0.014 0.037,-0.025 0.058,-0.033 0.021,-0.008 0.043,-0.011 0.066,-0.011 0.027,0 0.052,0.005 0.075,0.015 0.023,0.01 0.044,0.024 0.061,0.041 0.017,0.017 0.031,0.038 0.041,0.061 0.01,0.024 0.015,0.049 0.015,0.075 0,0.02 -0.003,0.04 -0.009,0.059 -0.005,0.018 -0.014,0.036 -0.025,0.052 v 0.149 c 0.016,0.012 0.031,0.026 0.044,0.042 0.013,0.015 0.024,0.032 0.033,0.05 0.009,0.019 0.016,0.038 0.021,0.058 0.005,0.019 0.007,0.04 0.007,0.06 0,0.029 -0.005,0.057 -0.014,0.084 L 1.124,0.21 Z"
         style="fill-rule:nonzero"
         id="path11508" /><path
         d="m 0.704,-0.842 c 0.017,0 0.033,0.003 0.048,0.009 0.015,0.007 0.028,0.015 0.039,0.026 0.011,0.011 0.02,0.024 0.026,0.039 0.006,0.015 0.01,0.031 0.01,0.048 0,0.017 -0.003,0.032 -0.009,0.047 -0.006,0.015 -0.015,0.028 -0.026,0.039 v 0.002 l -0.024,0.035 0.024,0.035 v 0.071 l -0.05,0.07 H 0.616 V -0.562 L 0.641,-0.597 0.616,-0.632 V -0.634 C 0.605,-0.645 0.596,-0.658 0.59,-0.673 0.584,-0.688 0.582,-0.703 0.582,-0.719 c 0,-0.017 0.003,-0.033 0.009,-0.048 0.007,-0.015 0.016,-0.028 0.027,-0.039 0.011,-0.011 0.024,-0.02 0.038,-0.027 0.015,-0.006 0.031,-0.009 0.048,-0.009 z"
         style="fill:#ffffff;fill-rule:nonzero"
         id="path11510" /><path
         d="m 0.616,-0.386 v -0.105 h 0.176 v 0.105 z m 0,-0.246 h 0.176 v 0.07 H 0.616 Z"
         style="fill:#f03a17;fill-rule:nonzero"
         id="path11512" /><path
         d="m 0.529,-0.526 c 0.03,0 0.06,0.004 0.088,0.012 0.029,0.008 0.055,0.019 0.08,0.033 0.025,0.014 0.047,0.032 0.067,0.052 0.021,0.02 0.038,0.043 0.052,0.067 0.015,0.025 0.026,0.052 0.034,0.08 0.008,0.029 0.012,0.058 0.012,0.089 0,0.03 -0.004,0.06 -0.012,0.088 C 0.842,-0.076 0.831,-0.05 0.816,-0.025 0.802,0 0.785,0.022 0.764,0.042 0.744,0.063 0.722,0.08 0.697,0.094 0.672,0.109 0.646,0.12 0.617,0.128 0.589,0.136 0.559,0.14 0.529,0.14 0.498,0.14 0.468,0.136 0.44,0.128 0.412,0.12 0.385,0.109 0.36,0.095 0.336,0.08 0.313,0.063 0.293,0.043 0.272,0.022 0.255,0 0.241,-0.025 0.226,-0.05 0.215,-0.076 0.207,-0.105 0.199,-0.133 0.195,-0.163 0.195,-0.193 c 0,-0.031 0.004,-0.06 0.012,-0.089 0.008,-0.028 0.019,-0.055 0.034,-0.08 0.014,-0.024 0.032,-0.047 0.052,-0.067 0.02,-0.02 0.043,-0.038 0.067,-0.052 0.025,-0.014 0.052,-0.025 0.08,-0.033 0.029,-0.008 0.058,-0.012 0.089,-0.012 z M 0.423,-0.07 c 0.008,0 0.014,-0.002 0.021,-0.004 0.006,-0.003 0.012,-0.007 0.016,-0.012 0.005,-0.005 0.009,-0.01 0.012,-0.017 0.003,-0.006 0.004,-0.013 0.004,-0.02 0,-0.007 -0.001,-0.014 -0.004,-0.02 C 0.469,-0.15 0.465,-0.155 0.46,-0.16 0.456,-0.165 0.45,-0.169 0.444,-0.172 0.437,-0.174 0.431,-0.176 0.423,-0.176 c -0.007,0 -0.014,0.002 -0.02,0.004 -0.006,0.003 -0.012,0.007 -0.017,0.012 -0.005,0.005 -0.008,0.01 -0.011,0.017 -0.003,0.006 -0.004,0.013 -0.004,0.02 0,0.007 0.001,0.014 0.004,0.021 0.003,0.006 0.006,0.012 0.011,0.016 0.005,0.005 0.01,0.009 0.017,0.012 0.006,0.002 0.013,0.004 0.02,0.004 z m 0.105,-0.176 c 0.007,0 0.014,-0.001 0.021,-0.004 C 0.555,-0.253 0.561,-0.256 0.565,-0.261 0.57,-0.266 0.574,-0.272 0.577,-0.278 0.58,-0.284 0.581,-0.291 0.581,-0.298 0.581,-0.306 0.58,-0.312 0.577,-0.319 0.574,-0.325 0.57,-0.331 0.566,-0.336 0.561,-0.34 0.555,-0.344 0.549,-0.347 0.542,-0.35 0.535,-0.351 0.528,-0.351 c -0.007,0 -0.014,0.001 -0.02,0.004 -0.007,0.003 -0.012,0.007 -0.017,0.012 -0.004,0.004 -0.008,0.01 -0.011,0.016 -0.003,0.007 -0.004,0.013 -0.004,0.021 0,0.007 0.001,0.014 0.004,0.02 0.003,0.006 0.007,0.012 0.011,0.017 0.005,0.005 0.011,0.008 0.017,0.011 0.006,0.003 0.013,0.004 0.02,0.004 z m 0.106,0.176 c 0.007,0 0.014,-0.002 0.02,-0.004 0.007,-0.003 0.012,-0.007 0.017,-0.012 0.005,-0.004 0.009,-0.01 0.011,-0.016 0.003,-0.007 0.005,-0.014 0.005,-0.021 0,-0.007 -0.002,-0.014 -0.005,-0.02 C 0.68,-0.15 0.676,-0.155 0.671,-0.16 0.666,-0.165 0.66,-0.169 0.654,-0.172 0.648,-0.174 0.641,-0.176 0.634,-0.176 c -0.007,0 -0.014,0.002 -0.02,0.004 -0.007,0.003 -0.012,0.007 -0.017,0.012 -0.005,0.005 -0.009,0.01 -0.012,0.017 -0.003,0.006 -0.004,0.013 -0.004,0.02 0,0.007 0.001,0.014 0.004,0.02 0.003,0.007 0.007,0.012 0.012,0.017 0.005,0.005 0.01,0.009 0.017,0.012 0.006,0.002 0.013,0.004 0.02,0.004 z"
         style="fill:#757575;fill-rule:nonzero"
         id="path11514" /><path
         d="m 1.073,-0.387 c 0.016,0.009 0.03,0.019 0.043,0.031 0.013,0.012 0.024,0.026 0.033,0.041 0.009,0.015 0.016,0.031 0.021,0.048 0.005,0.017 0.008,0.034 0.008,0.052 0,0.011 -10e-4,0.021 -0.003,0.031 -0.002,0.01 -0.004,0.021 -0.008,0.031 L 1.073,0.14 H 0.897 L 0.803,-0.15 C 0.8,-0.161 0.797,-0.172 0.795,-0.182 0.793,-0.193 0.792,-0.203 0.792,-0.215 0.792,-0.233 0.794,-0.251 0.799,-0.268 0.804,-0.285 0.811,-0.3 0.82,-0.315 0.829,-0.33 0.84,-0.344 0.854,-0.356 0.867,-0.368 0.881,-0.378 0.897,-0.387 L 0.921,-0.421 0.897,-0.457 v -0.07 L 0.921,-0.562 0.897,-0.597 V -0.599 C 0.886,-0.61 0.877,-0.623 0.871,-0.638 0.865,-0.653 0.862,-0.669 0.862,-0.685 c 0,-0.016 0.003,-0.032 0.01,-0.047 0.006,-0.015 0.015,-0.028 0.026,-0.039 0.011,-0.012 0.024,-0.02 0.039,-0.027 0.015,-0.006 0.031,-0.009 0.048,-0.009 0.017,0 0.033,0.003 0.048,0.009 0.015,0.007 0.028,0.015 0.039,0.027 0.011,0.011 0.02,0.024 0.026,0.039 0.006,0.015 0.009,0.031 0.009,0.047 0,0.016 -0.003,0.032 -0.009,0.047 -0.006,0.015 -0.014,0.028 -0.025,0.039 v 0.002 l -0.025,0.032 0.025,0.039 v 0.069 l -0.025,0.036 z"
         style="fill:#ffffff;fill-rule:nonzero"
         id="path11516" /><path
         d="m 0.897,-0.597 h 0.176 v 0.071 H 0.897 Z m 0,0.211 v -0.071 h 0.176 v 0.071 z"
         style="fill:#f03a17;fill-rule:nonzero"
         id="path11518" /></g></g></svg>
