<?xml version="1.0" encoding="UTF-8" standalone="no"?>
<svg
   width="16.844999"
   height="16.844999"
   viewBox="0 0 16.844999 16.844999"
   version="1.1"
   xml:space="preserve"
   style="clip-rule:evenodd;fill-rule:evenodd;stroke-linejoin:round;stroke-miterlimit:2"
   id="svg20568"
   sodipodi:docname="emojis.svg"
   xmlns:inkscape="http://www.inkscape.org/namespaces/inkscape"
   xmlns:sodipodi="http://sodipodi.sourceforge.net/DTD/sodipodi-0.dtd"
   xmlns="http://www.w3.org/2000/svg"
   xmlns:svg="http://www.w3.org/2000/svg"><defs
     id="defs20572" /><sodipodi:namedview
     id="namedview20570"
     pagecolor="#505050"
     bordercolor="#eeeeee"
     borderopacity="1"
     inkscape:pageshadow="0"
     inkscape:pageopacity="0"
     inkscape:pagecheckerboard="0" /><g
     transform="matrix(0.24,0,0,0.24,-299.451,-585.5658)"
     id="g20566"><g
       transform="matrix(62.5,0,0,62.5,1239.9,2496.92)"
       id="g11594"><path
         d="M 0.265,0.21 C 0.246,0.21 0.228,0.207 0.211,0.199 0.194,0.192 0.179,0.182 0.166,0.169 0.153,0.157 0.143,0.142 0.136,0.125 0.129,0.108 0.125,0.09 0.125,0.07 c 0,-0.038 0.014,-0.071 0.041,-0.099 l 0.099,-0.099 v -0.293 c 0,-0.036 0.004,-0.071 0.012,-0.105 C 0.251,-0.545 0.231,-0.568 0.217,-0.595 0.202,-0.623 0.195,-0.653 0.195,-0.685 0.195,-0.711 0.2,-0.736 0.21,-0.76 0.221,-0.783 0.234,-0.804 0.252,-0.821 0.269,-0.838 0.29,-0.852 0.313,-0.862 c 0.023,-0.01 0.048,-0.015 0.075,-0.015 0.021,0 0.041,0.003 0.06,0.009 0.019,0.006 0.037,0.015 0.053,0.027 0.039,-0.023 0.08,-0.041 0.123,-0.053 0.043,-0.012 0.088,-0.019 0.133,-0.019 0.045,0 0.089,0.006 0.13,0.018 0.042,0.012 0.081,0.028 0.118,0.05 0.036,0.021 0.069,0.046 0.099,0.076 0.03,0.03 0.056,0.064 0.077,0.1 0.021,0.036 0.038,0.075 0.049,0.117 0.012,0.042 0.018,0.085 0.018,0.131 0,0.045 -0.006,0.088 -0.018,0.13 C 1.219,-0.249 1.202,-0.21 1.181,-0.173 1.16,-0.137 1.134,-0.104 1.104,-0.074 1.074,-0.044 1.041,-0.018 1.005,0.003 0.968,0.024 0.929,0.041 0.887,0.053 0.846,0.064 0.802,0.07 0.757,0.07 H 0.464 L 0.365,0.169 C 0.337,0.197 0.304,0.21 0.265,0.21 Z"
         style="fill-rule:nonzero"
         id="path11584" /><path
         d="m 0.687,0 -0.252,-0.104 -0.1,-0.247 v -0.07 c 0,-0.039 0.005,-0.076 0.016,-0.112 0.01,-0.036 0.024,-0.07 0.042,-0.101 0.018,-0.031 0.04,-0.059 0.066,-0.085 0.026,-0.026 0.054,-0.047 0.085,-0.066 0.032,-0.018 0.065,-0.032 0.101,-0.042 0.036,-0.01 0.073,-0.015 0.112,-0.015 0.039,0 0.076,0.005 0.112,0.015 0.035,0.01 0.069,0.024 0.1,0.042 0.031,0.019 0.06,0.04 0.085,0.066 0.026,0.026 0.048,0.054 0.066,0.085 0.018,0.031 0.033,0.065 0.043,0.101 0.01,0.036 0.015,0.073 0.015,0.112 0,0.038 -0.005,0.076 -0.015,0.111 -0.01,0.036 -0.025,0.07 -0.043,0.101 -0.018,0.031 -0.04,0.06 -0.066,0.085 C 1.029,-0.098 1,-0.076 0.969,-0.058 0.938,-0.039 0.904,-0.025 0.869,-0.015 0.833,-0.005 0.796,0 0.757,0 Z"
         style="fill:#f03a17;fill-rule:nonzero"
         id="path11586" /><path
         d="m 0.335,0 v -0.351 l 0.126,0.126 0.021,0.082 0.079,0.017 L 0.687,0 Z"
         style="fill:#f7894a;fill-rule:nonzero"
         id="path11588" /><path
         d="m 0.461,-0.225 0.1,0.099 L 0.315,0.12 C 0.308,0.126 0.301,0.131 0.292,0.135 0.284,0.138 0.275,0.14 0.265,0.14 0.255,0.14 0.246,0.138 0.238,0.135 0.229,0.131 0.222,0.126 0.216,0.12 0.209,0.114 0.204,0.106 0.201,0.098 0.197,0.089 0.195,0.08 0.195,0.07 0.195,0.061 0.197,0.052 0.201,0.043 0.204,0.035 0.209,0.027 0.216,0.021 Z"
         style="fill:#f7b189;fill-rule:nonzero"
         id="path11590" /><path
         d="m 0.511,-0.685 c 0,0.017 -0.003,0.033 -0.01,0.048 -0.006,0.015 -0.015,0.028 -0.026,0.039 -0.011,0.011 -0.024,0.02 -0.039,0.027 -0.015,0.006 -0.031,0.009 -0.048,0.009 -0.017,0 -0.033,-0.003 -0.048,-0.009 C 0.325,-0.578 0.312,-0.587 0.301,-0.598 0.29,-0.609 0.281,-0.622 0.275,-0.637 0.268,-0.652 0.265,-0.668 0.265,-0.685 c 0,-0.016 0.003,-0.032 0.01,-0.047 0.006,-0.015 0.015,-0.028 0.026,-0.039 0.011,-0.012 0.024,-0.02 0.039,-0.027 0.015,-0.006 0.031,-0.009 0.048,-0.009 0.017,0 0.033,0.003 0.048,0.009 0.015,0.007 0.028,0.015 0.039,0.027 0.011,0.011 0.02,0.024 0.026,0.039 0.007,0.015 0.01,0.031 0.01,0.047 z"
         style="fill:#ffffff;fill-rule:nonzero"
         id="path11592" /></g></g></svg>
