<?xml version="1.0" encoding="UTF-8" standalone="no"?>
<svg
   width="16.844999"
   height="16.844999"
   viewBox="0 0 16.844999 16.844999"
   version="1.1"
   xml:space="preserve"
   style="clip-rule:evenodd;fill-rule:evenodd;stroke-linejoin:round;stroke-miterlimit:2"
   id="svg20568"
   sodipodi:docname="emojis.svg"
   xmlns:inkscape="http://www.inkscape.org/namespaces/inkscape"
   xmlns:sodipodi="http://sodipodi.sourceforge.net/DTD/sodipodi-0.dtd"
   xmlns="http://www.w3.org/2000/svg"
   xmlns:svg="http://www.w3.org/2000/svg"><defs
     id="defs20572" /><sodipodi:namedview
     id="namedview20570"
     pagecolor="#505050"
     bordercolor="#eeeeee"
     borderopacity="1"
     inkscape:pageshadow="0"
     inkscape:pageopacity="0"
     inkscape:pagecheckerboard="0" /><g
     transform="matrix(0.24,0,0,0.24,-278.8566,-585.5658)"
     id="g20566"><g
       transform="matrix(62.5,0,0,62.5,1154.09,2496.92)"
       id="g11582"><path
         d="m 0.987,-0.913 c 0.036,0 0.069,0.007 0.099,0.021 0.031,0.013 0.059,0.032 0.084,0.058 0.01,0.009 0.019,0.021 0.028,0.033 0.01,0.013 0.018,0.027 0.025,0.041 0.008,0.015 0.014,0.029 0.018,0.044 0.005,0.015 0.007,0.03 0.007,0.044 v 0.023 c 0,0.021 -0.005,0.041 -0.015,0.061 -0.01,0.02 -0.022,0.037 -0.037,0.052 -0.01,0.01 -0.02,0.019 -0.03,0.026 -0.01,0.007 -0.021,0.013 -0.031,0.018 C 1.124,-0.487 1.112,-0.483 1.101,-0.479 1.089,-0.475 1.076,-0.472 1.063,-0.468 1.054,-0.466 1.044,-0.463 1.036,-0.46 1.027,-0.458 1.019,-0.453 1.011,-0.446 0.998,-0.434 0.986,-0.423 0.975,-0.414 0.963,-0.405 0.951,-0.398 0.939,-0.391 0.927,-0.385 0.915,-0.379 0.901,-0.375 0.887,-0.37 0.872,-0.366 0.854,-0.363 0.85,-0.36 0.845,-0.356 0.839,-0.352 0.833,-0.347 0.827,-0.343 0.821,-0.338 0.815,-0.333 0.809,-0.329 0.804,-0.324 0.798,-0.32 0.794,-0.316 0.791,-0.313 L 0.279,0.199 C 0.271,0.207 0.262,0.21 0.252,0.21 0.242,0.21 0.233,0.207 0.225,0.199 L 0.136,0.11 C 0.133,0.107 0.13,0.103 0.128,0.098 0.126,0.094 0.125,0.089 0.125,0.083 0.125,0.073 0.129,0.064 0.136,0.057 L 0.58,-0.387 C 0.56,-0.389 0.542,-0.395 0.525,-0.404 0.508,-0.413 0.493,-0.425 0.481,-0.439 0.468,-0.453 0.458,-0.469 0.451,-0.487 0.444,-0.505 0.441,-0.524 0.441,-0.544 c 0,-0.022 0.004,-0.042 0.012,-0.061 0.009,-0.02 0.02,-0.036 0.034,-0.051 0.015,-0.014 0.031,-0.025 0.05,-0.034 0.019,-0.008 0.04,-0.012 0.062,-0.012 0.014,0 0.028,0.002 0.041,0.005 0.014,0.004 0.027,0.01 0.038,0.017 0.012,0.007 0.023,0.015 0.033,0.025 0.01,0.01 0.019,0.022 0.026,0.034 C 0.743,-0.632 0.75,-0.641 0.758,-0.65 0.765,-0.658 0.773,-0.667 0.782,-0.676 0.788,-0.683 0.793,-0.691 0.796,-0.7 0.799,-0.708 0.801,-0.717 0.804,-0.727 0.807,-0.74 0.81,-0.753 0.814,-0.765 0.818,-0.777 0.822,-0.788 0.827,-0.799 0.832,-0.81 0.839,-0.82 0.846,-0.83 c 0.007,-0.01 0.016,-0.02 0.026,-0.031 0.015,-0.014 0.033,-0.027 0.053,-0.037 0.02,-0.01 0.041,-0.015 0.062,-0.015 z"
         style="fill-rule:nonzero"
         id="path11568" /><path
         d="m 1.146,-0.612 c -0.003,0.003 -0.005,0.007 -0.008,0.01 -0.003,0.004 -0.006,0.007 -0.01,0.009 L 1.071,-0.649 1.015,-0.603 1.06,-0.558 1.03,-0.55 0.995,-0.586 0.938,-0.54 0.959,-0.518 0.94,-0.5 0.917,-0.522 0.861,-0.476 0.878,-0.459 c -0.005,0.002 -0.01,0.003 -0.015,0.004 -0.005,0.001 -0.009,0.003 -0.014,0.004 L 0.841,-0.459 0.825,-0.446 C 0.815,-0.443 0.807,-0.439 0.801,-0.433 0.795,-0.428 0.788,-0.421 0.781,-0.414 0.777,-0.419 0.772,-0.425 0.766,-0.431 0.76,-0.436 0.754,-0.441 0.749,-0.445 0.756,-0.452 0.762,-0.459 0.768,-0.465 0.774,-0.472 0.778,-0.479 0.781,-0.489 L 0.794,-0.505 0.786,-0.513 c 0.001,-0.005 0.003,-0.01 0.004,-0.015 0.001,-0.005 0.002,-0.01 0.004,-0.015 l 0.018,0.018 0.046,-0.057 -0.023,-0.023 c 0.003,-0.004 0.006,-0.007 0.009,-0.01 0.003,-0.003 0.006,-0.006 0.009,-0.01 l 0.022,0.022 0.046,-0.056 -0.036,-0.036 0.008,-0.03 0.045,0.046 0.047,-0.057 -0.057,-0.057 c 0.003,-0.003 0.006,-0.006 0.01,-0.009 0.003,-0.003 0.006,-0.006 0.01,-0.009 l 0.054,0.055 0.047,-0.057 c 0.004,0.002 0.008,0.004 0.012,0.006 0.003,0.002 0.007,0.004 0.011,0.007 l -0.051,0.063 0.052,0.052 0.063,-0.052 c 0.002,0.004 0.004,0.008 0.006,0.012 0.002,0.004 0.004,0.008 0.006,0.012 L 1.092,-0.667 Z M 0.996,-0.622 1.053,-0.668 1.004,-0.717 0.957,-0.661 Z M 0.919,-0.558 0.976,-0.605 0.94,-0.64 0.894,-0.584 Z M 0.842,-0.495 0.899,-0.541 0.876,-0.563 0.83,-0.507 Z M 0.771,-0.436 0.822,-0.478 0.813,-0.486 Z"
         style="fill:#a6a6a6;fill-rule:nonzero"
         id="path11570" /><path
         d="M 0.809,-0.417 0.77,-0.403 0.784,-0.441 C 0.792,-0.45 0.801,-0.456 0.81,-0.459 0.819,-0.463 0.829,-0.465 0.841,-0.468 0.852,-0.47 0.861,-0.473 0.87,-0.475 0.878,-0.478 0.886,-0.482 0.893,-0.486 0.901,-0.49 0.908,-0.495 0.915,-0.5 0.921,-0.506 0.929,-0.513 0.937,-0.521 0.945,-0.528 0.953,-0.534 0.96,-0.54 0.968,-0.545 0.976,-0.549 0.984,-0.553 0.992,-0.557 1,-0.56 1.009,-0.562 1.018,-0.565 1.027,-0.568 1.038,-0.57 1.049,-0.573 1.061,-0.577 1.074,-0.581 1.086,-0.586 1.097,-0.591 1.108,-0.598 1.118,-0.605 1.126,-0.614 1.133,-0.624 1.14,-0.635 1.143,-0.647 1.143,-0.662 1.143,-0.679 1.139,-0.696 1.13,-0.713 1.121,-0.73 1.109,-0.746 1.095,-0.76 1.081,-0.774 1.066,-0.785 1.048,-0.794 1.031,-0.803 1.014,-0.808 0.997,-0.808 c -0.015,0 -0.027,0.004 -0.037,0.01 -0.01,0.007 -0.019,0.015 -0.026,0.025 -0.007,0.011 -0.013,0.022 -0.017,0.034 -0.005,0.013 -0.008,0.025 -0.011,0.037 -0.003,0.01 -0.005,0.02 -0.008,0.029 -0.003,0.008 -0.006,0.017 -0.01,0.025 -0.003,0.008 -0.008,0.016 -0.013,0.023 -0.005,0.008 -0.012,0.016 -0.019,0.023 -0.008,0.009 -0.015,0.016 -0.02,0.023 -0.006,0.007 -0.011,0.014 -0.015,0.021 -0.004,0.007 -0.007,0.015 -0.01,0.024 -0.003,0.008 -0.005,0.018 -0.008,0.029 -0.002,0.011 -0.005,0.021 -0.008,0.03 -0.004,0.01 -0.01,0.018 -0.018,0.027 l -0.039,0.013 0.014,-0.038 c 0.005,-0.006 0.009,-0.012 0.011,-0.018 0.002,-0.006 0.004,-0.013 0.006,-0.021 0.002,-0.012 0.005,-0.024 0.008,-0.034 0.004,-0.01 0.008,-0.019 0.013,-0.028 0.005,-0.009 0.011,-0.018 0.018,-0.026 0.006,-0.008 0.014,-0.017 0.024,-0.026 0.008,-0.01 0.015,-0.019 0.02,-0.029 0.005,-0.01 0.009,-0.02 0.013,-0.03 0.003,-0.011 0.006,-0.021 0.008,-0.032 0.003,-0.011 0.006,-0.021 0.01,-0.032 0.003,-0.01 0.008,-0.021 0.014,-0.031 0.006,-0.011 0.014,-0.021 0.024,-0.031 0.021,-0.021 0.046,-0.032 0.075,-0.032 0.015,0 0.029,0.003 0.044,0.008 0.015,0.004 0.029,0.011 0.042,0.02 0.014,0.008 0.026,0.019 0.038,0.03 0.012,0.012 0.022,0.025 0.031,0.038 0.008,0.014 0.015,0.028 0.02,0.042 0.005,0.015 0.007,0.03 0.007,0.044 0,0.029 -0.01,0.054 -0.032,0.075 -0.01,0.01 -0.02,0.019 -0.031,0.024 -0.01,0.006 -0.021,0.011 -0.031,0.015 C 1.073,-0.543 1.063,-0.54 1.052,-0.538 1.041,-0.535 1.031,-0.533 1.021,-0.529 1.01,-0.526 1,-0.522 0.99,-0.517 0.981,-0.512 0.971,-0.505 0.962,-0.496 0.952,-0.487 0.944,-0.479 0.935,-0.472 0.927,-0.465 0.918,-0.459 0.91,-0.454 0.901,-0.449 0.891,-0.445 0.881,-0.442 0.871,-0.438 0.86,-0.435 0.847,-0.433 0.84,-0.431 0.833,-0.43 0.826,-0.428 0.82,-0.426 0.814,-0.422 0.809,-0.417 Z"
         style="fill:#e84757;fill-rule:nonzero"
         id="path11572" /><path
         d="M 0.322,0.057 0.277,0.055 0.279,0.013 0.752,-0.46 0.796,-0.417 Z"
         style="fill:#cccccc;fill-rule:nonzero"
         id="path11574" /><path
         d="M 0.744,-0.365 0.7,-0.408 0.752,-0.473 0.809,-0.417 Z"
         style="fill:#af0d1a;fill-rule:nonzero"
         id="path11576" /><path
         d="M 0.279,0.013 0.322,0.057 0.252,0.127 0.208,0.083 Z"
         style="fill:#757575;fill-rule:nonzero"
         id="path11578" /><path
         d="m 0.599,-0.632 c 0.012,0 0.023,0.002 0.034,0.007 0.011,0.005 0.02,0.011 0.028,0.019 0.008,0.008 0.014,0.017 0.019,0.028 0.004,0.011 0.007,0.022 0.007,0.034 0,0.012 -0.003,0.023 -0.007,0.034 -0.005,0.011 -0.011,0.02 -0.019,0.028 -0.008,0.008 -0.017,0.014 -0.028,0.019 -0.011,0.004 -0.022,0.006 -0.034,0.006 -0.012,0 -0.024,-0.002 -0.034,-0.006 C 0.554,-0.468 0.545,-0.474 0.537,-0.482 0.529,-0.49 0.523,-0.499 0.518,-0.51 0.514,-0.521 0.511,-0.532 0.511,-0.544 c 0,-0.012 0.003,-0.023 0.007,-0.034 0.005,-0.011 0.011,-0.02 0.019,-0.028 0.008,-0.008 0.017,-0.014 0.028,-0.019 0.01,-0.005 0.022,-0.007 0.034,-0.007 z"
         style="fill:#e5e5e5;fill-rule:nonzero"
         id="path11580" /></g></g></svg>
