<?xml version="1.0" encoding="UTF-8" standalone="no"?>
<svg
   width="16.844999"
   height="16.844999"
   viewBox="0 0 16.844999 16.844999"
   version="1.1"
   xml:space="preserve"
   style="clip-rule:evenodd;fill-rule:evenodd;stroke-linejoin:round;stroke-miterlimit:2"
   id="svg20568"
   sodipodi:docname="emojis.svg"
   xmlns:inkscape="http://www.inkscape.org/namespaces/inkscape"
   xmlns:sodipodi="http://sodipodi.sourceforge.net/DTD/sodipodi-0.dtd"
   xmlns="http://www.w3.org/2000/svg"
   xmlns:svg="http://www.w3.org/2000/svg"><defs
     id="defs20572" /><sodipodi:namedview
     id="namedview20570"
     pagecolor="#505050"
     bordercolor="#eeeeee"
     borderopacity="1"
     inkscape:pageshadow="0"
     inkscape:pageopacity="0"
     inkscape:pagecheckerboard="0" /><g
     transform="matrix(0.24,0,0,0.24,-399.7998,-585.5658)"
     id="g20566"><g
       transform="matrix(62.5,0,0,62.5,1658.02,2496.92)"
       id="g11658"><path
         d="M 0.371,0.21 C 0.337,0.21 0.305,0.204 0.275,0.191 0.245,0.178 0.219,0.161 0.197,0.138 0.175,0.116 0.157,0.09 0.144,0.06 0.131,0.031 0.125,-0.001 0.125,-0.035 v -0.141 c 0,-0.034 0.006,-0.065 0.019,-0.095 0.013,-0.03 0.031,-0.056 0.053,-0.078 0.022,-0.023 0.048,-0.04 0.078,-0.053 0.03,-0.013 0.062,-0.019 0.096,-0.019 h 0.07 v -0.386 c 0,-0.014 0.003,-0.028 0.008,-0.041 0.006,-0.013 0.013,-0.024 0.023,-0.034 0.009,-0.009 0.02,-0.017 0.033,-0.022 0.013,-0.006 0.027,-0.009 0.041,-0.009 0.013,0 0.025,0.003 0.037,0.007 0.012,0.005 0.022,0.011 0.032,0.019 0.009,0.008 0.017,0.017 0.023,0.028 0.006,0.011 0.01,0.023 0.012,0.036 l 0.279,0.092 c 0.022,0.007 0.04,0.02 0.053,0.037 0.014,0.018 0.02,0.038 0.02,0.062 0,0.025 -0.007,0.046 -0.021,0.063 -0.014,0.018 -0.032,0.03 -0.054,0.038 L 0.651,-0.44 v 0.019 c 0.013,0 0.025,-0.001 0.037,-0.001 0.012,0 0.024,0 0.036,0 0.029,0 0.057,0.002 0.083,0.007 0.026,0.005 0.052,0.015 0.077,0.03 l 0.234,0.134 c 0.02,0.011 0.038,0.025 0.054,0.04 0.016,0.015 0.03,0.032 0.041,0.05 0.011,0.019 0.02,0.038 0.026,0.059 0.006,0.021 0.009,0.043 0.009,0.067 0,0.034 -0.006,0.066 -0.019,0.095 C 1.216,0.09 1.198,0.116 1.176,0.138 1.154,0.161 1.128,0.178 1.098,0.191 1.068,0.204 1.036,0.21 1.002,0.21 Z"
         style="fill-rule:nonzero"
         id="path11646" /><path
         d="m 0.757,-0.351 c 0.017,0 0.033,0.002 0.047,0.007 0.014,0.004 0.029,0.01 0.044,0.019 l 0.235,0.135 c 0.03,0.017 0.053,0.039 0.07,0.064 0.016,0.026 0.025,0.056 0.025,0.091 0,0.024 -0.005,0.047 -0.014,0.068 C 1.155,0.054 1.142,0.073 1.126,0.089 1.11,0.104 1.092,0.117 1.071,0.126 1.049,0.135 1.027,0.14 1.002,0.14 H 0.371 C 0.347,0.14 0.324,0.136 0.302,0.126 0.281,0.117 0.263,0.105 0.247,0.089 0.231,0.073 0.218,0.054 0.209,0.033 0.2,0.012 0.195,-0.011 0.195,-0.035 v -0.141 c 0,-0.024 0.005,-0.047 0.014,-0.068 0.01,-0.021 0.022,-0.04 0.038,-0.056 0.016,-0.015 0.034,-0.028 0.055,-0.037 0.022,-0.009 0.045,-0.014 0.069,-0.014 z"
         style="fill:#13a10e;fill-rule:nonzero"
         id="path11648" /><path
         d="m 0.651,-0.07 c 0,0.022 -0.006,0.043 -0.019,0.06 C 0.62,0.008 0.603,0.021 0.581,0.029 0.575,0.023 0.569,0.016 0.563,0.01 0.557,0.004 0.551,-0.002 0.546,-0.009 0.535,0.005 0.523,0.017 0.511,0.029 0.49,0.021 0.473,0.008 0.46,-0.01 0.447,-0.027 0.441,-0.048 0.441,-0.07 c 0,-0.015 0.003,-0.029 0.008,-0.041 0.006,-0.013 0.013,-0.024 0.023,-0.034 0.009,-0.009 0.02,-0.017 0.033,-0.022 0.013,-0.006 0.026,-0.009 0.041,-0.009 0.015,0 0.028,0.003 0.041,0.009 0.013,0.005 0.024,0.013 0.033,0.022 0.01,0.01 0.018,0.021 0.023,0.034 0.006,0.012 0.008,0.026 0.008,0.041 z"
         style="fill:#613d30;fill-rule:nonzero"
         id="path11650" /><path
         d="m 0.862,-0.158 c 0,0.007 -0.002,0.014 -0.004,0.02 C 0.855,-0.132 0.851,-0.126 0.847,-0.121 0.842,-0.116 0.837,-0.112 0.83,-0.11 0.824,-0.107 0.817,-0.105 0.81,-0.105 0.802,-0.105 0.795,-0.107 0.789,-0.11 0.782,-0.112 0.777,-0.116 0.772,-0.121 0.767,-0.126 0.764,-0.131 0.761,-0.137 0.758,-0.144 0.757,-0.151 0.757,-0.158 0.757,-0.165 0.758,-0.172 0.761,-0.179 0.764,-0.185 0.768,-0.191 0.772,-0.195 0.777,-0.2 0.783,-0.204 0.789,-0.206 0.796,-0.209 0.802,-0.21 0.81,-0.21 c 0.007,0 0.013,0.001 0.02,0.004 0.006,0.002 0.012,0.006 0.016,0.011 0.005,0.005 0.009,0.01 0.012,0.017 0.002,0.006 0.004,0.013 0.004,0.02 z"
         style="fill:#ffffff;fill-rule:nonzero"
         id="path11652" /><path
         d="m 0.552,-0.772 h 0.009 0.02 l 0.326,0.107 c 0.007,0.003 0.013,0.007 0.018,0.012 0.005,0.006 0.007,0.013 0.007,0.021 0,0.008 -0.002,0.015 -0.007,0.021 -0.005,0.006 -0.011,0.01 -0.018,0.012 L 0.581,-0.491 C 0.577,-0.492 0.574,-0.492 0.571,-0.492 H 0.552 Z"
         style="fill:#f03a17;fill-rule:nonzero"
         id="path11654" /><path
         d="m 0.546,-0.842 c 0.01,0 0.018,0.003 0.025,0.01 0.007,0.007 0.01,0.015 0.01,0.025 V 0.029 C 0.569,0.033 0.557,0.035 0.546,0.035 0.535,0.035 0.523,0.033 0.511,0.029 v -0.836 c 0,-0.01 0.004,-0.018 0.01,-0.025 0.007,-0.007 0.015,-0.01 0.025,-0.01 z"
         style="fill:#fce100;fill-rule:nonzero"
         id="path11656" /></g></g></svg>
