<?xml version="1.0" encoding="UTF-8" standalone="no"?>
<svg
   width="16.844999"
   height="16.844999"
   viewBox="0 0 16.844999 16.844999"
   version="1.1"
   xml:space="preserve"
   style="clip-rule:evenodd;fill-rule:evenodd;stroke-linejoin:round;stroke-miterlimit:2"
   id="svg20568"
   sodipodi:docname="emojis.svg"
   xmlns:inkscape="http://www.inkscape.org/namespaces/inkscape"
   xmlns:sodipodi="http://sodipodi.sourceforge.net/DTD/sodipodi-0.dtd"
   xmlns="http://www.w3.org/2000/svg"
   xmlns:svg="http://www.w3.org/2000/svg"><defs
     id="defs20572" /><sodipodi:namedview
     id="namedview20570"
     pagecolor="#505050"
     bordercolor="#eeeeee"
     borderopacity="1"
     inkscape:pageshadow="0"
     inkscape:pageopacity="0"
     inkscape:pagecheckerboard="0" /><g
     transform="matrix(0.24,0,0,0.24,-358.6086,-585.5658)"
     id="g20566"><g
       transform="matrix(62.5,0,0,62.5,1486.39,2496.92)"
       id="g11634"><path
         d="M 0.511,0.21 C 0.492,0.21 0.474,0.207 0.457,0.199 0.44,0.192 0.425,0.182 0.412,0.169 0.399,0.156 0.389,0.141 0.382,0.125 0.374,0.108 0.371,0.09 0.371,0.07 V -0.141 H 0.3 C 0.276,-0.141 0.253,-0.145 0.232,-0.154 0.211,-0.163 0.192,-0.176 0.176,-0.192 0.16,-0.208 0.148,-0.226 0.139,-0.248 0.13,-0.269 0.125,-0.292 0.125,-0.316 V -0.327 L 0.24,-0.688 C 0.246,-0.706 0.254,-0.722 0.265,-0.736 0.276,-0.751 0.289,-0.764 0.304,-0.774 0.319,-0.784 0.335,-0.792 0.352,-0.798 0.37,-0.804 0.388,-0.807 0.406,-0.807 H 0.42 C 0.428,-0.823 0.437,-0.837 0.448,-0.85 0.459,-0.863 0.471,-0.874 0.485,-0.884 0.499,-0.893 0.514,-0.9 0.53,-0.905 0.547,-0.91 0.563,-0.913 0.581,-0.913 h 0.211 c 0.018,0 0.034,0.003 0.051,0.008 0.016,0.005 0.031,0.012 0.045,0.021 0.014,0.01 0.026,0.021 0.037,0.034 0.011,0.013 0.02,0.027 0.028,0.043 h 0.014 c 0.018,0 0.036,0.003 0.053,0.008 0.017,0.006 0.033,0.014 0.048,0.024 0.015,0.011 0.028,0.023 0.039,0.037 0.011,0.015 0.02,0.03 0.025,0.048 l 0.116,0.363 v 0.011 c 0,0.024 -0.005,0.047 -0.014,0.068 -0.009,0.022 -0.022,0.04 -0.037,0.056 -0.016,0.016 -0.035,0.028 -0.056,0.037 -0.021,0.01 -0.044,0.014 -0.068,0.014 H 1.002 V 0.07 C 1.002,0.09 0.999,0.108 0.991,0.125 0.984,0.141 0.974,0.156 0.961,0.169 0.948,0.182 0.933,0.192 0.916,0.199 0.899,0.207 0.881,0.21 0.862,0.21 Z"
         style="fill-rule:nonzero"
         id="path11624" /><path
         d="m 1.178,-0.313 c 0,0.014 -0.003,0.027 -0.008,0.04 C 1.164,-0.261 1.156,-0.25 1.146,-0.241 1.137,-0.231 1.125,-0.224 1.113,-0.219 1.1,-0.213 1.087,-0.21 1.073,-0.21 H 1.038 L 0.932,-0.553 v 0.307 c -0.003,0.001 -0.005,0.003 -0.007,0.006 -0.003,0.004 -0.004,0.007 -0.005,0.011 -0.001,0.003 -0.002,0.007 -0.003,0.01 0,0.004 0,0.008 0,0.011 0,0.002 0,0.005 0,0.009 0.001,0.003 0.002,0.007 0.003,0.01 0.001,0.004 0.003,0.007 0.005,0.009 0.002,0.003 0.004,0.004 0.007,0.005 V 0.07 C 0.932,0.08 0.93,0.089 0.927,0.098 0.923,0.106 0.918,0.114 0.911,0.12 0.905,0.126 0.898,0.131 0.889,0.135 0.881,0.138 0.872,0.14 0.862,0.14 H 0.511 C 0.501,0.14 0.492,0.138 0.484,0.135 0.475,0.131 0.468,0.126 0.462,0.12 0.455,0.114 0.45,0.106 0.447,0.098 0.443,0.089 0.441,0.08 0.441,0.07 v -0.245 c 0.003,0 0.006,-0.002 0.008,-0.004 0.002,-0.003 0.004,-0.006 0.005,-0.01 0.001,-0.004 0.002,-0.007 0.003,-0.011 0,-0.004 0.001,-0.007 0.001,-0.01 0,-0.003 -0.001,-0.006 -0.001,-0.01 C 0.456,-0.224 0.455,-0.227 0.454,-0.231 0.453,-0.235 0.451,-0.238 0.449,-0.241 0.447,-0.244 0.444,-0.245 0.441,-0.246 V -0.553 L 0.335,-0.21 H 0.3 C 0.286,-0.21 0.273,-0.213 0.26,-0.219 0.248,-0.224 0.236,-0.231 0.227,-0.241 0.217,-0.25 0.209,-0.261 0.203,-0.273 0.198,-0.286 0.195,-0.299 0.195,-0.313 c 0,-0.001 0.001,-0.006 0.004,-0.016 0.003,-0.009 0.007,-0.022 0.012,-0.038 0.005,-0.015 0.011,-0.033 0.017,-0.053 0.007,-0.02 0.013,-0.041 0.02,-0.062 0.006,-0.021 0.013,-0.042 0.02,-0.063 0.006,-0.02 0.013,-0.039 0.018,-0.056 0.006,-0.017 0.01,-0.032 0.014,-0.044 0.004,-0.011 0.006,-0.019 0.007,-0.022 0.003,-0.01 0.008,-0.02 0.015,-0.029 0.007,-0.008 0.014,-0.016 0.023,-0.022 0.009,-0.006 0.019,-0.011 0.029,-0.014 0.01,-0.004 0.021,-0.005 0.032,-0.005 h 0.07 c 0,-0.015 0.003,-0.029 0.008,-0.041 0.006,-0.013 0.013,-0.024 0.023,-0.034 0.009,-0.009 0.02,-0.016 0.033,-0.022 0.013,-0.006 0.026,-0.008 0.041,-0.008 h 0.211 c 0.015,0 0.028,0.002 0.041,0.008 0.013,0.006 0.024,0.013 0.033,0.022 0.01,0.01 0.017,0.021 0.023,0.034 0.005,0.012 0.008,0.026 0.008,0.041 h 0.07 c 0.011,0 0.022,0.001 0.032,0.005 0.01,0.003 0.02,0.008 0.029,0.014 0.009,0.006 0.016,0.014 0.023,0.022 0.007,0.009 0.012,0.019 0.015,0.029 10e-4,0.003 0.003,0.011 0.007,0.022 0.004,0.012 0.008,0.027 0.014,0.044 0.005,0.017 0.012,0.036 0.018,0.056 0.007,0.021 0.014,0.042 0.02,0.063 0.007,0.021 0.013,0.042 0.02,0.062 0.006,0.02 0.012,0.038 0.017,0.053 0.005,0.016 0.009,0.029 0.012,0.038 0.003,0.01 0.004,0.015 0.004,0.016 z"
         style="fill:#ffffff;fill-rule:nonzero"
         id="path11626" /><path
         d="m 0.774,-0.772 c 0.008,0 0.014,0.001 0.021,0.004 0.006,0.003 0.012,0.007 0.016,0.011 0.005,0.005 0.009,0.011 0.012,0.017 0.002,0.006 0.004,0.013 0.004,0.02 0,0.004 -0.001,0.008 -0.002,0.012 0,0.004 -0.002,0.008 -0.003,0.011 l -0.105,0.21 c 0,0.001 -0.001,0.002 -0.004,0.005 -0.003,0.003 -0.007,0.006 -0.01,0.01 -0.004,0.003 -0.007,0.007 -0.011,0.01 -0.003,0.003 -0.005,0.005 -0.005,0.005 L 0.551,-0.697 C 0.55,-0.7 0.548,-0.704 0.547,-0.708 0.546,-0.712 0.546,-0.716 0.546,-0.72 c 0,-0.007 0.001,-0.014 0.004,-0.02 0.003,-0.006 0.007,-0.012 0.012,-0.017 0.004,-0.004 0.01,-0.008 0.016,-0.011 0.007,-0.003 0.013,-0.004 0.021,-0.004 z"
         style="fill:#a6a6a6;fill-rule:nonzero"
         id="path11628" /><path
         d="M 0.932,-0.176 H 0.757 L 0.862,0.035 H 0.792 L 0.687,-0.176 0.581,0.035 H 0.511 L 0.616,-0.176 H 0.441 v -0.07 h 0.14 c 0.006,-0.003 0.012,-0.006 0.018,-0.008 0.007,-0.002 0.013,-0.003 0.02,-0.003 0.012,0 0.023,0.004 0.032,0.011 h 0.281 z"
         style="fill:#f03a17;fill-rule:nonzero"
         id="path11630" /><path
         d="M 0.897,-0.737 0.651,-0.246 H 0.581 L 0.827,-0.737 Z"
         style="fill:#e5e5e5;fill-rule:nonzero"
         id="path11632" /></g></g></svg>
