<?xml version="1.0" encoding="UTF-8" standalone="no"?>
<svg
   width="14.22"
   height="16.844999"
   viewBox="0 0 14.22 16.844999"
   version="1.1"
   xml:space="preserve"
   style="clip-rule:evenodd;fill-rule:evenodd;stroke-linejoin:round;stroke-miterlimit:2"
   id="svg20568"
   sodipodi:docname="emojis.svg"
   xmlns:inkscape="http://www.inkscape.org/namespaces/inkscape"
   xmlns:sodipodi="http://sodipodi.sourceforge.net/DTD/sodipodi-0.dtd"
   xmlns="http://www.w3.org/2000/svg"
   xmlns:svg="http://www.w3.org/2000/svg"><defs
     id="defs20572" /><sodipodi:namedview
     id="namedview20570"
     pagecolor="#505050"
     bordercolor="#eeeeee"
     borderopacity="1"
     inkscape:pageshadow="0"
     inkscape:pageopacity="0"
     inkscape:pagecheckerboard="0" /><g
     transform="matrix(0.24,0,0,0.24,-340.6422,-585.5658)"
     id="g20566"><g
       transform="matrix(62.5,0,0,62.5,1411.53,2496.92)"
       id="g11622"><path
         d="m 0.265,0.21 v -0.226 c 0,-0.012 0.001,-0.024 0.001,-0.037 0.001,-0.012 0.002,-0.024 0.002,-0.037 0,-0.006 -0.001,-0.013 -0.001,-0.019 0,-0.007 -0.001,-0.013 -0.002,-0.02 C 0.264,-0.132 0.263,-0.137 0.261,-0.143 0.26,-0.149 0.258,-0.155 0.255,-0.162 0.253,-0.169 0.251,-0.175 0.249,-0.181 0.246,-0.187 0.244,-0.192 0.243,-0.195 0.236,-0.218 0.228,-0.241 0.22,-0.264 0.212,-0.287 0.205,-0.309 0.198,-0.333 0.174,-0.352 0.156,-0.376 0.144,-0.404 0.131,-0.431 0.125,-0.461 0.125,-0.491 v -0.211 c 0,-0.029 0.006,-0.056 0.017,-0.082 0.011,-0.025 0.026,-0.048 0.045,-0.067 0.019,-0.019 0.041,-0.034 0.067,-0.045 0.025,-0.011 0.052,-0.017 0.081,-0.017 h 0.387 c 0.029,0 0.056,0.006 0.081,0.017 0.026,0.011 0.048,0.026 0.067,0.045 0.019,0.019 0.034,0.042 0.046,0.067 0.011,0.026 0.016,0.053 0.016,0.082 v 0.038 c 0.021,0.005 0.039,0.012 0.057,0.023 0.017,0.01 0.031,0.023 0.044,0.039 0.012,0.015 0.022,0.032 0.029,0.051 0.007,0.019 0.011,0.039 0.011,0.06 v 0.14 c 0,0.011 -0.002,0.022 -0.005,0.033 -0.003,0.011 -0.007,0.021 -0.012,0.032 -0.005,0.01 -0.011,0.02 -0.017,0.029 -0.007,0.009 -0.014,0.018 -0.022,0.026 l -0.12,0.12 V 0.21 Z"
         style="fill-rule:nonzero"
         id="path11612" /><path
         d="m 0.335,-0.035 c 0.04,-0.012 0.081,-0.021 0.122,-0.027 0.041,-0.007 0.082,-0.01 0.124,-0.01 0.042,0 0.083,0.003 0.124,0.009 0.041,0.007 0.082,0.016 0.122,0.028 V 0.14 H 0.335 Z"
         style="fill:#cccccc;fill-rule:nonzero"
         id="path11614" /><path
         d="m 0.897,-0.597 c 0.015,0 0.028,0.003 0.041,0.009 0.013,0.005 0.024,0.013 0.033,0.022 0.01,0.01 0.018,0.021 0.023,0.034 0.006,0.012 0.008,0.026 0.008,0.041 v 0.14 c 0,0.006 -0.001,0.012 -0.003,0.019 -0.002,0.006 -0.005,0.013 -0.008,0.019 -0.003,0.006 -0.007,0.012 -0.011,0.018 -0.004,0.005 -0.008,0.01 -0.013,0.014 l -0.14,0.14 v 0.106 H 0.335 V -0.141 C 0.335,-0.144 0.334,-0.15 0.331,-0.16 0.328,-0.169 0.324,-0.18 0.32,-0.191 0.316,-0.202 0.312,-0.213 0.308,-0.224 0.304,-0.234 0.302,-0.242 0.3,-0.246 L 0.23,-0.457 h 0.597 v -0.14 z"
         style="fill:#af0d1a;fill-rule:nonzero"
         id="path11616" /><path
         d="m 0.722,-0.842 c 0.019,0 0.037,0.003 0.054,0.011 0.017,0.007 0.032,0.017 0.045,0.03 0.012,0.012 0.023,0.027 0.03,0.044 0.007,0.017 0.011,0.036 0.011,0.055 v 0.211 c 0,0.019 -0.004,0.037 -0.011,0.054 -0.007,0.017 -0.018,0.032 -0.03,0.045 -0.013,0.013 -0.028,0.023 -0.045,0.03 -0.017,0.007 -0.035,0.011 -0.054,0.011 H 0.335 C 0.316,-0.351 0.298,-0.355 0.281,-0.362 0.264,-0.369 0.249,-0.379 0.236,-0.392 0.224,-0.405 0.214,-0.42 0.206,-0.437 0.199,-0.454 0.195,-0.472 0.195,-0.491 v -0.211 c 0,-0.019 0.004,-0.038 0.011,-0.055 0.008,-0.017 0.018,-0.032 0.03,-0.044 0.013,-0.013 0.028,-0.023 0.045,-0.03 0.017,-0.008 0.035,-0.011 0.054,-0.011 z"
         style="fill:#f03a17;fill-rule:nonzero"
         id="path11618" /><path
         d="M 0.722,0.052 C 0.722,0.057 0.72,0.061 0.716,0.064 0.713,0.068 0.709,0.07 0.704,0.07 0.7,0.07 0.697,0.069 0.694,0.067 L 0.581,-0.014 0.469,0.067 C 0.466,0.069 0.462,0.07 0.458,0.07 0.454,0.07 0.45,0.068 0.446,0.064 0.443,0.061 0.441,0.057 0.441,0.052 0.441,0.047 0.443,0.042 0.448,0.038 L 0.551,-0.035 0.448,-0.109 C 0.443,-0.113 0.441,-0.118 0.441,-0.123 c 0,-0.005 0.002,-0.009 0.005,-0.012 0.003,-0.004 0.008,-0.006 0.012,-0.006 0.004,0 0.007,0.002 0.011,0.004 l 0.112,0.08 0.113,-0.08 c 0.003,-0.002 0.007,-0.004 0.01,-0.004 0.005,0 0.009,0.002 0.013,0.006 0.003,0.003 0.005,0.007 0.005,0.012 0,0.005 -0.003,0.01 -0.008,0.014 l -0.103,0.074 0.103,0.073 c 0.005,0.004 0.008,0.009 0.008,0.014 z"
         style="fill:#ffffff;fill-rule:nonzero"
         id="path11620" /></g></g></svg>
