<?xml version="1.0" encoding="UTF-8" standalone="no"?>
<svg
   width="16.844999"
   height="14.205"
   viewBox="0 0 16.844999 14.205"
   version="1.1"
   xml:space="preserve"
   style="clip-rule:evenodd;fill-rule:evenodd;stroke-linejoin:round;stroke-miterlimit:2"
   id="svg20568"
   sodipodi:docname="emojis.svg"
   xmlns:inkscape="http://www.inkscape.org/namespaces/inkscape"
   xmlns:sodipodi="http://sodipodi.sourceforge.net/DTD/sodipodi-0.dtd"
   xmlns="http://www.w3.org/2000/svg"
   xmlns:svg="http://www.w3.org/2000/svg"><defs
     id="defs20572" /><sodipodi:namedview
     id="namedview20570"
     pagecolor="#505050"
     bordercolor="#eeeeee"
     borderopacity="1"
     inkscape:pageshadow="0"
     inkscape:pageopacity="0"
     inkscape:pagecheckerboard="0" /><g
     transform="matrix(0.24,0,0,0.24,-420.3966,-588.2058)"
     id="g20566"><g
       transform="matrix(62.5,0,0,62.5,1743.84,2496.92)"
       id="g11668"><path
         d="m 1.178,0 h 0.07 V 0.21 H 0.371 C 0.337,0.21 0.305,0.204 0.275,0.191 0.245,0.178 0.219,0.161 0.197,0.138 0.175,0.116 0.157,0.09 0.144,0.06 0.131,0.031 0.125,-0.001 0.125,-0.035 v -0.07 h 0.14 v -0.036 c 0,-0.019 0.004,-0.036 0.011,-0.054 0.008,-0.017 0.018,-0.032 0.031,-0.044 0.013,-0.013 0.028,-0.023 0.045,-0.031 0.016,-0.007 0.035,-0.011 0.054,-0.011 0.029,0 0.056,-0.005 0.082,-0.016 0.025,-0.011 0.047,-0.026 0.066,-0.046 0.019,-0.019 0.035,-0.041 0.046,-0.066 0.011,-0.026 0.016,-0.053 0.016,-0.082 v -0.246 h 0.491 v 0.25 c 0.023,0.023 0.041,0.049 0.053,0.078 0.012,0.03 0.018,0.061 0.018,0.093 z"
         style="fill-rule:nonzero"
         id="path11660" /><path
         d="m 1.038,0.07 h 0.14 V 0.14 H 0.371 C 0.347,0.14 0.324,0.136 0.302,0.126 0.281,0.117 0.263,0.105 0.247,0.089 0.231,0.073 0.218,0.054 0.209,0.033 0.2,0.012 0.195,-0.011 0.195,-0.035 h 0.07 c 0,0.014 0.003,0.028 0.008,0.041 0.006,0.013 0.014,0.024 0.023,0.033 0.01,0.01 0.021,0.017 0.034,0.023 0.012,0.006 0.026,0.008 0.041,0.008 h 0.14 v -0.14 h 0.07 v 0.14 h 0.386 v -0.14 h 0.071 z"
         style="fill:#69eaff;fill-rule:nonzero"
         id="path11662" /><path
         d="m 1.038,-0.456 c 0.022,0.017 0.039,0.038 0.051,0.062 0.012,0.024 0.018,0.05 0.018,0.078 V -0.21 L 1.073,-0.171 V -0.07 H 0.967 L 0.897,-0.175 0.827,-0.07 H 0.362 C 0.358,-0.076 0.354,-0.082 0.349,-0.088 0.345,-0.094 0.34,-0.1 0.335,-0.105 V -0.141 C 0.335,-0.15 0.337,-0.16 0.341,-0.168 0.345,-0.176 0.35,-0.184 0.356,-0.19 0.363,-0.197 0.37,-0.201 0.378,-0.205 0.387,-0.209 0.396,-0.21 0.406,-0.21 0.449,-0.21 0.49,-0.22 0.527,-0.238 0.565,-0.256 0.598,-0.282 0.625,-0.316 0.636,-0.32 0.648,-0.325 0.659,-0.33 0.67,-0.335 0.681,-0.341 0.692,-0.346 L 0.666,-0.386 C 0.671,-0.398 0.674,-0.409 0.677,-0.421 0.68,-0.432 0.682,-0.444 0.684,-0.456 0.692,-0.461 0.699,-0.467 0.706,-0.473 0.713,-0.479 0.72,-0.485 0.726,-0.491 L 0.687,-0.526 v -0.141 h 0.351 z"
         style="fill:#ffffff;fill-rule:nonzero"
         id="path11664" /><path
         d="m 0.862,-0.21 h 0.245 v 0.175 h -0.14 l -0.07,-0.106 -0.07,0.106 H 0.335 v -0.07 H 0.792 Z M 0.827,-0.351 c 0,0.009 -0.004,0.018 -0.011,0.025 -0.006,0.007 -0.015,0.01 -0.024,0.01 H 0.625 c 0.008,-0.01 0.016,-0.022 0.023,-0.034 0.007,-0.012 0.013,-0.024 0.019,-0.036 h 0.125 c 0.009,0 0.018,0.003 0.024,0.01 0.007,0.007 0.011,0.015 0.011,0.025 z m 0,-0.14 c 0,0.009 -0.004,0.017 -0.011,0.024 -0.006,0.007 -0.015,0.01 -0.024,0.01 H 0.684 c 0.001,-0.007 0.002,-0.014 0.002,-0.022 0,-0.007 0.001,-0.014 0.001,-0.022 v -0.025 h 0.105 c 0.009,0 0.018,0.003 0.024,0.01 0.007,0.007 0.011,0.015 0.011,0.025 z"
         style="fill:#cccccc;fill-rule:nonzero"
         id="path11666" /></g></g></svg>
