<?xml version="1.0" encoding="UTF-8" standalone="no"?>
<svg
   width="15.27"
   height="16.844999"
   viewBox="0 0 15.27 16.844999"
   version="1.1"
   xml:space="preserve"
   style="clip-rule:evenodd;fill-rule:evenodd;stroke-linejoin:round;stroke-miterlimit:2"
   id="svg20568"
   sodipodi:docname="emojis.svg"
   xmlns:inkscape="http://www.inkscape.org/namespaces/inkscape"
   xmlns:sodipodi="http://sodipodi.sourceforge.net/DTD/sodipodi-0.dtd"
   xmlns="http://www.w3.org/2000/svg"
   xmlns:svg="http://www.w3.org/2000/svg"><defs
     id="defs20572" /><sodipodi:namedview
     id="namedview20570"
     pagecolor="#505050"
     bordercolor="#eeeeee"
     borderopacity="1"
     inkscape:pageshadow="0"
     inkscape:pageopacity="0"
     inkscape:pagecheckerboard="0" /><g
     transform="matrix(0.24,0,0,0.24,-440.991,-585.5658)"
     id="g20566"><g
       transform="matrix(62.5,0,0,62.5,1829.65,2496.92)"
       id="g11684"><path
         d="m 0.651,-0.913 c 0.046,0 0.089,0.006 0.131,0.018 0.042,0.012 0.081,0.028 0.117,0.05 0.036,0.021 0.07,0.046 0.1,0.076 0.029,0.03 0.055,0.064 0.076,0.1 0.022,0.036 0.038,0.075 0.05,0.117 0.012,0.042 0.018,0.085 0.018,0.131 V 0.105 C 1.143,0.119 1.14,0.133 1.134,0.146 1.129,0.158 1.121,0.169 1.112,0.179 1.102,0.189 1.091,0.196 1.078,0.202 1.065,0.208 1.052,0.21 1.038,0.21 1.023,0.21 1.009,0.208 0.997,0.202 0.984,0.197 0.973,0.189 0.963,0.179 0.954,0.17 0.946,0.159 0.94,0.146 0.935,0.133 0.932,0.12 0.932,0.105 V 0.07 H 0.862 C 0.833,0.07 0.806,0.065 0.78,0.054 0.754,0.043 0.732,0.028 0.713,0.008 0.694,-0.011 0.679,-0.033 0.668,-0.059 0.657,-0.084 0.651,-0.112 0.651,-0.141 0.651,-0.17 0.657,-0.197 0.668,-0.222 0.679,-0.248 0.694,-0.27 0.713,-0.289 0.732,-0.308 0.754,-0.323 0.78,-0.334 0.806,-0.346 0.833,-0.351 0.862,-0.351 h 0.07 v -0.07 C 0.932,-0.46 0.925,-0.496 0.91,-0.53 0.895,-0.564 0.875,-0.594 0.85,-0.62 0.824,-0.645 0.794,-0.665 0.76,-0.68 0.726,-0.695 0.69,-0.702 0.651,-0.702 c -0.023,0 -0.044,0.002 -0.062,0.006 -0.019,0.004 -0.037,0.011 -0.053,0.019 -0.017,0.008 -0.032,0.018 -0.048,0.03 -0.015,0.011 -0.031,0.025 -0.047,0.04 v 0.088 l 0.097,0.085 0.001,0.002 c 0.012,0.015 0.023,0.03 0.032,0.044 0.01,0.013 0.018,0.028 0.024,0.042 0.007,0.015 0.012,0.03 0.016,0.046 0.003,0.016 0.005,0.035 0.005,0.054 0,0.023 -0.003,0.044 -0.007,0.063 -0.005,0.019 -0.011,0.037 -0.02,0.054 -0.009,0.017 -0.02,0.033 -0.032,0.048 -0.013,0.015 -0.027,0.031 -0.042,0.046 l 0.012,0.017 c 0.009,0.013 0.017,0.024 0.024,0.035 0.007,0.01 0.012,0.021 0.017,0.032 0.004,0.011 0.008,0.023 0.01,0.036 0.002,0.013 0.004,0.028 0.004,0.046 L 0.581,0.21 H 0.16 c 0,-0.014 0,-0.028 0,-0.042 C 0.159,0.154 0.159,0.14 0.159,0.126 0.159,0.11 0.161,0.095 0.163,0.082 0.166,0.069 0.17,0.056 0.175,0.045 0.181,0.034 0.187,0.022 0.194,0.011 0.201,0.001 0.209,-0.011 0.218,-0.023 L 0.227,-0.035 C 0.211,-0.051 0.196,-0.066 0.184,-0.082 0.171,-0.097 0.161,-0.113 0.152,-0.129 0.143,-0.146 0.136,-0.164 0.132,-0.183 0.127,-0.201 0.125,-0.222 0.125,-0.246 0.125,-0.275 0.129,-0.3 0.136,-0.323 0.143,-0.345 0.153,-0.365 0.165,-0.385 0.178,-0.404 0.193,-0.422 0.21,-0.438 0.227,-0.455 0.245,-0.473 0.265,-0.491 v -0.19 c 0,-0.014 0.002,-0.026 0.006,-0.038 C 0.275,-0.73 0.281,-0.74 0.288,-0.75 0.294,-0.759 0.302,-0.768 0.311,-0.776 0.32,-0.784 0.33,-0.792 0.34,-0.801 0.43,-0.875 0.534,-0.913 0.651,-0.913 Z"
         style="fill-rule:nonzero"
         id="path11670" /><path
         d="m 0.862,-0.281 c 0.019,0 0.037,0.004 0.054,0.011 0.017,0.008 0.032,0.018 0.045,0.031 0.013,0.012 0.023,0.027 0.03,0.044 0.008,0.018 0.011,0.035 0.011,0.054 0,0.02 -0.003,0.038 -0.011,0.055 -0.007,0.017 -0.017,0.032 -0.03,0.045 -0.012,0.013 -0.027,0.023 -0.044,0.03 C 0.9,-0.004 0.881,0 0.862,0 0.842,0 0.824,-0.004 0.807,-0.011 0.79,-0.018 0.775,-0.028 0.763,-0.041 0.75,-0.054 0.74,-0.069 0.733,-0.086 0.725,-0.103 0.722,-0.121 0.722,-0.141 0.722,-0.16 0.725,-0.178 0.733,-0.195 0.74,-0.212 0.75,-0.227 0.763,-0.24 0.775,-0.252 0.79,-0.262 0.807,-0.27 0.824,-0.277 0.843,-0.281 0.862,-0.281 Z M 0.371,-0.386 0.335,-0.457 v -0.228 h 0.036 z"
         style="fill:#cccccc;fill-rule:nonzero"
         id="path11672" /><path
         d="m 1.002,-0.281 0.033,-0.026 0.037,0.026 V 0.105 C 1.072,0.114 1.069,0.123 1.062,0.13 1.055,0.137 1.047,0.14 1.038,0.14 1.028,0.14 1.02,0.137 1.013,0.13 1.006,0.123 1.002,0.115 1.002,0.105 Z m -0.14,0.176 c 0.01,0 0.018,0.003 0.025,0.01 0.007,0.007 0.01,0.015 0.01,0.025 0,0.009 -0.003,0.018 -0.01,0.025 -0.007,0.006 -0.015,0.01 -0.025,0.01 -0.01,0 -0.018,-0.004 -0.025,-0.01 -0.007,-0.007 -0.01,-0.016 -0.01,-0.025 0,-0.01 0.003,-0.018 0.01,-0.025 0.007,-0.007 0.015,-0.01 0.025,-0.01 z m 0.07,-0.071 c 0.01,0 0.018,0.004 0.025,0.011 0.007,0.007 0.01,0.015 0.01,0.024 0,0.01 -0.003,0.018 -0.01,0.025 -0.007,0.007 -0.015,0.011 -0.025,0.011 -0.01,0 -0.018,-0.004 -0.025,-0.011 -0.007,-0.007 -0.01,-0.015 -0.01,-0.025 0,-0.009 0.003,-0.017 0.01,-0.024 0.007,-0.007 0.016,-0.011 0.025,-0.011 z m -0.07,0 c -0.01,0 -0.018,-0.003 -0.025,-0.01 -0.007,-0.007 -0.01,-0.015 -0.01,-0.024 0,-0.01 0.003,-0.019 0.01,-0.025 0.007,-0.007 0.015,-0.011 0.025,-0.011 0.01,0 0.018,0.004 0.025,0.011 0.007,0.006 0.01,0.015 0.01,0.025 0,0.009 -0.004,0.017 -0.011,0.024 -0.007,0.007 -0.015,0.01 -0.024,0.01 z m -0.07,0 c 0.009,0 0.017,0.004 0.024,0.011 0.007,0.007 0.011,0.015 0.011,0.024 0,0.01 -0.004,0.018 -0.011,0.025 -0.006,0.007 -0.015,0.011 -0.024,0.011 -0.01,0 -0.018,-0.004 -0.025,-0.011 -0.007,-0.007 -0.01,-0.015 -0.01,-0.025 0,-0.009 0.003,-0.017 0.01,-0.024 0.007,-0.007 0.015,-0.011 0.025,-0.011 z"
         style="fill:#757575;fill-rule:nonzero"
         id="path11674" /><path
         d="m 1.072,-0.421 v 0.14 h -0.07 v -0.14 C 1.002,-0.454 0.998,-0.485 0.99,-0.514 0.981,-0.544 0.969,-0.572 0.954,-0.598 0.939,-0.624 0.921,-0.648 0.899,-0.669 0.878,-0.691 0.854,-0.709 0.828,-0.724 0.802,-0.739 0.775,-0.751 0.745,-0.76 0.715,-0.768 0.684,-0.772 0.651,-0.772 c -0.041,0 -0.08,0.007 -0.118,0.02 -0.037,0.013 -0.072,0.033 -0.103,0.059 -0.006,0.005 -0.012,0.01 -0.017,0.016 -0.006,0.005 -0.011,0.01 -0.017,0.015 -0.004,0.004 -0.008,0.007 -0.012,0.009 -0.003,0.002 -0.008,0.003 -0.013,0.003 -0.01,0 -0.018,-0.004 -0.025,-0.011 -0.007,-0.007 -0.011,-0.016 -0.011,-0.025 0,-0.005 0.001,-0.009 0.003,-0.013 0.002,-0.004 0.005,-0.007 0.007,-0.011 0.017,-0.021 0.038,-0.04 0.062,-0.057 0.024,-0.016 0.05,-0.03 0.077,-0.041 0.027,-0.012 0.055,-0.02 0.084,-0.026 0.029,-0.005 0.056,-0.008 0.083,-0.008 0.039,0 0.076,0.005 0.112,0.015 0.036,0.01 0.069,0.024 0.101,0.042 0.031,0.019 0.059,0.041 0.085,0.066 0.025,0.026 0.047,0.054 0.066,0.085 0.018,0.032 0.032,0.065 0.042,0.101 0.01,0.036 0.015,0.073 0.015,0.112 z"
         style="fill:#f7894a;fill-rule:nonzero"
         id="path11676" /><path
         d="m 0.195,-0.246 c 0,-0.012 0.001,-0.024 0.003,-0.037 0.003,-0.012 0.007,-0.025 0.011,-0.037 0.005,-0.012 0.011,-0.023 0.018,-0.034 0.007,-0.011 0.015,-0.02 0.024,-0.028 l 0.084,-0.075 0.03,0.058 V 0.084 L 0.264,0.035 0.317,-0.043 C 0.302,-0.059 0.287,-0.073 0.272,-0.087 0.257,-0.101 0.244,-0.116 0.233,-0.132 0.222,-0.147 0.212,-0.164 0.205,-0.182 0.198,-0.2 0.195,-0.222 0.195,-0.246 Z"
         style="fill:#ffffff;fill-rule:nonzero"
         id="path11678" /><path
         d="m 0.406,-0.457 0.084,0.075 c 0.009,0.008 0.017,0.017 0.024,0.028 0.007,0.011 0.013,0.022 0.017,0.034 0.005,0.012 0.009,0.025 0.011,0.037 0.003,0.013 0.004,0.025 0.004,0.037 0,0.022 -0.003,0.041 -0.009,0.058 -0.005,0.017 -0.013,0.033 -0.022,0.047 -0.01,0.015 -0.021,0.028 -0.034,0.041 -0.012,0.013 -0.025,0.026 -0.039,0.039 L 0.424,-0.043 0.478,0.035 0.335,0.094 V -0.105 L 0.389,-0.171 0.335,-0.246 v -0.211 z m 0.035,0.176 c 0.009,0 0.018,-0.003 0.025,-0.01 0.007,-0.007 0.01,-0.015 0.01,-0.025 0,-0.009 -0.003,-0.018 -0.01,-0.025 C 0.459,-0.348 0.45,-0.351 0.441,-0.351 H 0.406 c -0.01,0 -0.018,0.003 -0.025,0.01 -0.007,0.007 -0.01,0.015 -0.01,0.025 0,0.01 0.003,0.018 0.01,0.025 0.007,0.007 0.015,0.01 0.025,0.01 z"
         style="fill:#31d2f7;fill-rule:nonzero"
         id="path11680" /><path
         d="M 0.478,0.035 C 0.481,0.041 0.485,0.046 0.489,0.051 0.493,0.056 0.497,0.062 0.5,0.068 0.503,0.073 0.505,0.079 0.508,0.085 0.51,0.092 0.511,0.098 0.511,0.105 V 0.14 H 0.23 V 0.105 C 0.23,0.098 0.231,0.092 0.233,0.085 0.235,0.079 0.238,0.073 0.241,0.068 0.244,0.062 0.248,0.056 0.252,0.051 0.256,0.046 0.26,0.04 0.264,0.035 Z M 0.441,-0.141 v 0.036 H 0.335 v -0.141 c 0.015,0 0.029,0.003 0.041,0.009 0.013,0.005 0.024,0.013 0.034,0.022 0.01,0.01 0.017,0.021 0.023,0.033 0.005,0.013 0.008,0.027 0.008,0.041 z"
         style="fill:#0078d7;fill-rule:nonzero"
         id="path11682" /></g></g></svg>
