<?xml version="1.0" encoding="UTF-8" standalone="no"?>
<svg
   width="16.844999"
   height="16.844999"
   viewBox="0 0 16.844999 16.844999"
   version="1.1"
   xml:space="preserve"
   style="clip-rule:evenodd;fill-rule:evenodd;stroke-linejoin:round;stroke-miterlimit:2"
   id="svg20568"
   sodipodi:docname="emojis.svg"
   xmlns:inkscape="http://www.inkscape.org/namespaces/inkscape"
   xmlns:sodipodi="http://sodipodi.sourceforge.net/DTD/sodipodi-0.dtd"
   xmlns="http://www.w3.org/2000/svg"
   xmlns:svg="http://www.w3.org/2000/svg"><defs
     id="defs20572" /><sodipodi:namedview
     id="namedview20570"
     pagecolor="#505050"
     bordercolor="#eeeeee"
     borderopacity="1"
     inkscape:pageshadow="0"
     inkscape:pageopacity="0"
     inkscape:pagecheckerboard="0" /><g
     transform="matrix(0.24,0,0,0.24,-558.7806,-585.5658)"
     id="g20566"><g
       transform="matrix(62.5,0,0,62.5,2320.44,2496.92)"
       id="g11758"><path
         d="M 0.687,0.21 C 0.635,0.21 0.585,0.204 0.537,0.19 0.49,0.177 0.445,0.158 0.403,0.134 0.362,0.109 0.324,0.08 0.29,0.046 0.255,0.012 0.226,-0.026 0.202,-0.068 0.177,-0.11 0.158,-0.154 0.145,-0.202 0.132,-0.25 0.125,-0.3 0.125,-0.351 c 0,-0.052 0.007,-0.101 0.02,-0.149 0.013,-0.048 0.032,-0.093 0.057,-0.134 0.024,-0.042 0.053,-0.08 0.088,-0.114 0.034,-0.034 0.072,-0.064 0.113,-0.088 0.042,-0.024 0.087,-0.043 0.134,-0.057 0.048,-0.013 0.098,-0.02 0.15,-0.02 0.062,0 0.122,0.01 0.181,0.031 0.042,-0.021 0.087,-0.031 0.134,-0.031 h 0.141 v 0.106 h 0.105 v 0.14 c 0,0.047 -0.01,0.092 -0.03,0.134 0.02,0.059 0.03,0.12 0.03,0.182 0,0.052 -0.007,0.101 -0.02,0.149 C 1.215,-0.154 1.196,-0.11 1.171,-0.068 1.147,-0.026 1.118,0.012 1.083,0.046 1.049,0.08 1.011,0.109 0.97,0.134 0.928,0.158 0.883,0.177 0.835,0.19 0.788,0.204 0.738,0.21 0.687,0.21 Z"
         style="fill-rule:nonzero"
         id="path11748" /><path
         d="m 0.687,-0.842 c 0.045,0 0.088,0.006 0.13,0.017 0.042,0.012 0.081,0.029 0.118,0.05 0.036,0.021 0.069,0.047 0.099,0.077 0.03,0.029 0.055,0.062 0.077,0.099 0.021,0.036 0.037,0.075 0.049,0.117 0.012,0.042 0.018,0.086 0.018,0.131 0,0.045 -0.006,0.089 -0.018,0.131 -0.012,0.041 -0.028,0.081 -0.049,0.117 -0.022,0.036 -0.047,0.07 -0.077,0.099 C 1.004,0.026 0.971,0.052 0.935,0.073 0.898,0.094 0.859,0.111 0.817,0.123 0.775,0.134 0.732,0.14 0.687,0.14 0.641,0.14 0.598,0.134 0.556,0.123 0.514,0.111 0.475,0.094 0.438,0.073 0.402,0.052 0.369,0.026 0.339,-0.004 0.309,-0.033 0.284,-0.067 0.262,-0.103 0.241,-0.139 0.225,-0.179 0.213,-0.22 0.201,-0.262 0.195,-0.306 0.195,-0.351 c 0,-0.045 0.006,-0.089 0.018,-0.131 0.012,-0.042 0.028,-0.081 0.049,-0.117 0.022,-0.037 0.047,-0.07 0.077,-0.099 0.03,-0.03 0.063,-0.056 0.099,-0.077 0.037,-0.021 0.076,-0.038 0.118,-0.05 0.042,-0.011 0.085,-0.017 0.131,-0.017 z"
         style="fill:#f03a17;fill-rule:nonzero"
         id="path11750" /><path
         d="m 0.687,-0.457 c 0.014,0 0.028,0.003 0.041,0.009 0.012,0.005 0.023,0.013 0.033,0.022 0.009,0.01 0.017,0.021 0.022,0.034 0.006,0.013 0.009,0.026 0.009,0.041 0,0.015 -0.003,0.028 -0.009,0.041 -0.005,0.013 -0.013,0.024 -0.022,0.033 -0.01,0.01 -0.021,0.018 -0.033,0.023 -0.013,0.006 -0.027,0.008 -0.041,0.008 -0.015,0 -0.029,-0.002 -0.041,-0.008 C 0.633,-0.259 0.622,-0.267 0.612,-0.277 0.602,-0.286 0.595,-0.297 0.589,-0.31 0.584,-0.323 0.581,-0.336 0.581,-0.351 c 0,-0.015 0.003,-0.028 0.008,-0.041 0.006,-0.013 0.013,-0.024 0.023,-0.034 0.01,-0.009 0.021,-0.017 0.034,-0.022 0.012,-0.006 0.026,-0.009 0.041,-0.009 z m 0,-0.245 c 0.032,0 0.063,0.004 0.093,0.012 0.03,0.009 0.058,0.02 0.084,0.036 0.026,0.015 0.049,0.033 0.071,0.055 0.021,0.021 0.039,0.045 0.055,0.071 0.015,0.026 0.027,0.054 0.035,0.084 0.008,0.03 0.013,0.061 0.013,0.093 0,0.032 -0.005,0.063 -0.013,0.093 C 1.017,-0.228 1.005,-0.2 0.99,-0.174 0.974,-0.148 0.956,-0.124 0.935,-0.103 0.913,-0.081 0.89,-0.063 0.864,-0.048 0.838,-0.033 0.81,-0.021 0.78,-0.012 0.75,-0.004 0.719,0 0.687,0 0.654,0 0.623,-0.004 0.593,-0.012 0.563,-0.021 0.535,-0.033 0.509,-0.048 0.483,-0.063 0.46,-0.081 0.438,-0.103 0.417,-0.124 0.399,-0.148 0.383,-0.174 0.368,-0.2 0.356,-0.228 0.348,-0.258 0.34,-0.288 0.335,-0.319 0.335,-0.351 c 0,-0.032 0.005,-0.063 0.013,-0.093 0.008,-0.03 0.02,-0.058 0.035,-0.084 0.016,-0.026 0.034,-0.05 0.055,-0.071 0.022,-0.022 0.045,-0.04 0.071,-0.055 0.026,-0.016 0.054,-0.027 0.084,-0.036 0.03,-0.008 0.061,-0.012 0.094,-0.012 z m 0,0.597 c 0.033,0 0.065,-0.007 0.095,-0.02 0.03,-0.013 0.056,-0.03 0.078,-0.052 C 0.882,-0.2 0.9,-0.226 0.913,-0.256 0.926,-0.285 0.932,-0.317 0.932,-0.351 0.932,-0.385 0.926,-0.417 0.913,-0.447 0.9,-0.476 0.882,-0.502 0.86,-0.525 0.838,-0.547 0.812,-0.565 0.782,-0.577 0.752,-0.59 0.72,-0.597 0.687,-0.597 c -0.034,0 -0.066,0.007 -0.096,0.02 -0.03,0.012 -0.056,0.03 -0.078,0.052 -0.022,0.023 -0.04,0.049 -0.053,0.078 -0.013,0.03 -0.019,0.062 -0.019,0.096 0,0.034 0.006,0.066 0.019,0.096 0.013,0.03 0.031,0.056 0.053,0.078 0.022,0.022 0.048,0.039 0.078,0.052 0.03,0.013 0.062,0.02 0.096,0.02 z"
         style="fill:#ffffff;fill-rule:nonzero"
         id="path11752" /><path
         d="M 0.932,-0.421 H 0.757 v -0.176 c 0,-0.034 0.006,-0.065 0.019,-0.095 0.013,-0.03 0.031,-0.056 0.053,-0.078 0.022,-0.023 0.048,-0.04 0.078,-0.053 0.03,-0.013 0.062,-0.019 0.095,-0.019 h 0.07 v 0.105 h 0.106 v 0.07 c 0,0.034 -0.007,0.066 -0.02,0.095 -0.012,0.03 -0.03,0.056 -0.052,0.079 -0.023,0.022 -0.049,0.039 -0.078,0.052 -0.03,0.013 -0.062,0.02 -0.096,0.02 z"
         style="fill:#31d2f7;fill-rule:nonzero"
         id="path11754" /><path
         d="m 1.002,-0.702 c 0.01,0 0.018,0.003 0.025,0.01 0.007,0.007 0.011,0.016 0.011,0.025 0,0.009 -0.004,0.018 -0.011,0.025 l -0.316,0.316 c -0.006,0.007 -0.015,0.01 -0.024,0.01 -0.01,0 -0.019,-0.003 -0.025,-0.01 -0.007,-0.007 -0.011,-0.015 -0.011,-0.025 0,-0.01 0.004,-0.018 0.011,-0.025 l 0.316,-0.316 c 0.006,-0.007 0.015,-0.01 0.024,-0.01 z"
         style="fill:#0078d7;fill-rule:nonzero"
         id="path11756" /></g></g></svg>
