<?xml version="1.0" encoding="UTF-8" standalone="no"?>
<svg
   width="16.844999"
   height="16.844999"
   viewBox="0 0 16.844999 16.844999"
   version="1.1"
   xml:space="preserve"
   style="clip-rule:evenodd;fill-rule:evenodd;stroke-linejoin:round;stroke-miterlimit:2"
   id="svg20568"
   sodipodi:docname="emojis.svg"
   xmlns:inkscape="http://www.inkscape.org/namespaces/inkscape"
   xmlns:sodipodi="http://sodipodi.sourceforge.net/DTD/sodipodi-0.dtd"
   xmlns="http://www.w3.org/2000/svg"
   xmlns:svg="http://www.w3.org/2000/svg"><defs
     id="defs20572" /><sodipodi:namedview
     id="namedview20570"
     pagecolor="#505050"
     bordercolor="#eeeeee"
     borderopacity="1"
     inkscape:pageshadow="0"
     inkscape:pageopacity="0"
     inkscape:pagecheckerboard="0" /><g
     transform="matrix(0.24,0,0,0.24,-620.5662,-585.5658)"
     id="g20566"><g
       transform="matrix(62.5,0,0,62.5,2577.88,2496.92)"
       id="g11798"><path
         d="m 1.248,-0.351 c 0,0.052 -0.007,0.101 -0.02,0.149 C 1.215,-0.154 1.196,-0.109 1.171,-0.068 1.147,-0.026 1.118,0.012 1.083,0.046 1.049,0.08 1.011,0.109 0.97,0.134 0.928,0.158 0.884,0.177 0.836,0.19 0.788,0.204 0.738,0.21 0.687,0.21 0.635,0.21 0.585,0.204 0.537,0.19 0.489,0.177 0.445,0.158 0.403,0.134 0.362,0.109 0.324,0.08 0.29,0.046 0.255,0.012 0.226,-0.026 0.202,-0.068 0.177,-0.109 0.158,-0.154 0.145,-0.202 0.132,-0.25 0.125,-0.299 0.125,-0.351 c 0,-0.052 0.007,-0.102 0.02,-0.149 0.013,-0.048 0.032,-0.093 0.057,-0.135 0.024,-0.041 0.053,-0.079 0.088,-0.113 0.034,-0.034 0.072,-0.064 0.113,-0.088 0.042,-0.024 0.086,-0.043 0.134,-0.057 0.048,-0.013 0.098,-0.02 0.15,-0.02 0.051,0 0.101,0.007 0.149,0.02 0.048,0.014 0.092,0.033 0.134,0.057 0.041,0.024 0.079,0.054 0.113,0.088 0.035,0.034 0.064,0.072 0.088,0.113 0.025,0.042 0.044,0.087 0.057,0.135 0.013,0.047 0.02,0.097 0.02,0.149 z"
         style="fill-rule:nonzero"
         id="path11788" /><path
         d="m 1.178,-0.351 c 0,0.045 -0.006,0.089 -0.018,0.131 -0.012,0.041 -0.028,0.081 -0.049,0.117 -0.022,0.036 -0.047,0.07 -0.077,0.099 C 1.004,0.026 0.971,0.052 0.935,0.073 0.898,0.094 0.859,0.111 0.817,0.123 0.775,0.134 0.732,0.14 0.687,0.14 0.641,0.14 0.598,0.134 0.556,0.123 0.514,0.111 0.475,0.094 0.438,0.073 0.402,0.052 0.369,0.026 0.339,-0.004 0.309,-0.033 0.284,-0.067 0.262,-0.103 0.241,-0.139 0.225,-0.179 0.213,-0.22 0.201,-0.262 0.195,-0.306 0.195,-0.351 c 0,-0.058 0.01,-0.113 0.029,-0.166 0.019,-0.053 0.047,-0.102 0.083,-0.147 0.127,0 0.254,0 0.379,0 0.126,0 0.252,0 0.379,0 0.037,0.045 0.065,0.093 0.084,0.147 0.019,0.053 0.029,0.108 0.029,0.166 z"
         style="fill:#383838;fill-rule:nonzero"
         id="path11790" /><path
         d="m 0.687,-0.351 c -0.031,0 -0.061,-0.004 -0.09,-0.011 C 0.568,-0.369 0.54,-0.379 0.514,-0.392 0.488,-0.405 0.463,-0.421 0.441,-0.439 0.418,-0.458 0.398,-0.479 0.38,-0.502 0.362,-0.525 0.347,-0.551 0.335,-0.578 0.323,-0.605 0.313,-0.634 0.308,-0.664 0.331,-0.692 0.357,-0.718 0.386,-0.74 0.414,-0.761 0.445,-0.78 0.477,-0.795 0.51,-0.811 0.543,-0.822 0.579,-0.83 0.614,-0.838 0.65,-0.842 0.687,-0.842 c 0.036,0 0.072,0.004 0.107,0.012 0.036,0.008 0.069,0.019 0.102,0.035 0.033,0.015 0.063,0.034 0.092,0.056 0.028,0.022 0.054,0.047 0.077,0.075 -0.005,0.03 -0.015,0.059 -0.027,0.086 -0.012,0.027 -0.027,0.053 -0.045,0.076 -0.018,0.023 -0.038,0.044 -0.061,0.063 -0.022,0.018 -0.047,0.034 -0.073,0.047 -0.026,0.013 -0.054,0.023 -0.083,0.03 -0.029,0.007 -0.059,0.011 -0.089,0.011 z"
         style="fill:#757575;fill-rule:nonzero"
         id="path11792" /><path
         d="m 0.932,-0.351 c 0,0.034 -0.006,0.066 -0.019,0.095 -0.013,0.03 -0.031,0.056 -0.053,0.079 -0.022,0.022 -0.048,0.039 -0.078,0.052 -0.03,0.013 -0.062,0.02 -0.095,0.02 -0.034,0 -0.066,-0.007 -0.096,-0.02 C 0.561,-0.138 0.535,-0.155 0.513,-0.177 0.491,-0.199 0.473,-0.225 0.46,-0.255 0.447,-0.285 0.441,-0.317 0.441,-0.351 c 0,-0.034 0.006,-0.066 0.019,-0.096 0.013,-0.029 0.031,-0.055 0.053,-0.078 0.022,-0.022 0.048,-0.04 0.078,-0.052 0.03,-0.013 0.062,-0.02 0.096,-0.02 0.033,0 0.065,0.007 0.095,0.02 0.03,0.012 0.056,0.03 0.078,0.052 0.022,0.023 0.04,0.049 0.053,0.078 0.013,0.03 0.019,0.062 0.019,0.096 z"
         style="fill:#ffffff;fill-rule:nonzero"
         id="path11794" /><path
         d="m 0.772,-0.351 c 0.012,0.011 0.021,0.025 0.028,0.04 0.006,0.015 0.01,0.031 0.01,0.048 0,0.017 -0.004,0.033 -0.01,0.047 C 0.793,-0.201 0.784,-0.188 0.773,-0.177 0.762,-0.166 0.749,-0.157 0.734,-0.15 0.719,-0.144 0.703,-0.141 0.687,-0.141 0.67,-0.141 0.654,-0.144 0.639,-0.15 0.624,-0.157 0.611,-0.166 0.6,-0.177 0.589,-0.188 0.58,-0.201 0.573,-0.216 0.567,-0.23 0.563,-0.246 0.563,-0.263 c 0,-0.017 0.004,-0.033 0.01,-0.048 0.007,-0.015 0.016,-0.028 0.028,-0.04 -0.012,-0.012 -0.021,-0.025 -0.028,-0.04 -0.006,-0.015 -0.01,-0.031 -0.01,-0.048 0,-0.017 0.004,-0.033 0.01,-0.048 0.007,-0.014 0.016,-0.027 0.027,-0.038 0.011,-0.011 0.024,-0.02 0.039,-0.027 0.015,-0.006 0.031,-0.01 0.048,-0.01 0.016,0 0.032,0.004 0.047,0.01 0.015,0.007 0.028,0.016 0.039,0.027 0.011,0.011 0.02,0.024 0.027,0.038 0.006,0.015 0.01,0.031 0.01,0.048 0,0.017 -0.004,0.033 -0.01,0.048 -0.007,0.015 -0.016,0.029 -0.028,0.04 z M 0.634,-0.439 c 0,0.007 0.001,0.014 0.004,0.02 0.003,0.007 0.007,0.012 0.011,0.017 0.005,0.005 0.011,0.009 0.017,0.012 0.007,0.002 0.013,0.004 0.021,0.004 0.007,0 0.013,-0.002 0.02,-0.004 0.006,-0.003 0.012,-0.007 0.017,-0.012 0.005,-0.005 0.008,-0.01 0.011,-0.017 0.003,-0.006 0.004,-0.013 0.004,-0.02 0,-0.007 -0.001,-0.014 -0.004,-0.02 C 0.732,-0.466 0.729,-0.471 0.724,-0.476 0.719,-0.481 0.713,-0.484 0.707,-0.487 0.7,-0.49 0.694,-0.491 0.687,-0.491 c -0.008,0 -0.014,0.001 -0.021,0.004 -0.006,0.003 -0.012,0.006 -0.017,0.011 -0.004,0.005 -0.008,0.01 -0.011,0.017 -0.003,0.006 -0.004,0.013 -0.004,0.02 z m 0.053,0.229 c 0.007,0 0.013,-0.002 0.02,-0.005 0.006,-0.002 0.012,-0.006 0.017,-0.011 0.005,-0.005 0.008,-0.011 0.011,-0.017 0.003,-0.006 0.004,-0.013 0.004,-0.02 0,-0.007 -0.001,-0.014 -0.004,-0.02 C 0.732,-0.29 0.729,-0.295 0.724,-0.3 0.719,-0.305 0.713,-0.309 0.707,-0.312 0.7,-0.315 0.694,-0.316 0.687,-0.316 c -0.008,0 -0.014,0.001 -0.021,0.004 -0.006,0.003 -0.012,0.007 -0.017,0.012 -0.004,0.005 -0.008,0.01 -0.011,0.017 -0.003,0.006 -0.004,0.013 -0.004,0.02 0,0.007 0.001,0.014 0.004,0.02 0.003,0.006 0.007,0.012 0.011,0.017 0.005,0.005 0.011,0.009 0.017,0.011 0.007,0.003 0.013,0.005 0.021,0.005 z"
         style="fill:#383838;fill-rule:nonzero"
         id="path11796" /></g></g></svg>
