<?xml version="1.0" encoding="UTF-8" standalone="no"?>
<svg
   width="16.844999"
   height="15.255"
   viewBox="0 0 16.844999 15.255"
   version="1.1"
   xml:space="preserve"
   style="clip-rule:evenodd;fill-rule:evenodd;stroke-linejoin:round;stroke-miterlimit:2"
   id="svg20568"
   sodipodi:docname="emojis.svg"
   xmlns:inkscape="http://www.inkscape.org/namespaces/inkscape"
   xmlns:sodipodi="http://sodipodi.sourceforge.net/DTD/sodipodi-0.dtd"
   xmlns="http://www.w3.org/2000/svg"
   xmlns:svg="http://www.w3.org/2000/svg"><defs
     id="defs20572" /><sodipodi:namedview
     id="namedview20570"
     pagecolor="#505050"
     bordercolor="#eeeeee"
     borderopacity="1"
     inkscape:pageshadow="0"
     inkscape:pageopacity="0"
     inkscape:pagecheckerboard="0" /><g
     transform="matrix(0.24,0,0,0.24,-496.9926,-587.1558)"
     id="g20566"><g
       transform="matrix(62.5,0,0,62.5,2062.99,2496.92)"
       id="g11722"><path
         d="m 1.208,-0.596 c 0.013,0.009 0.023,0.019 0.03,0.032 0.007,0.013 0.01,0.027 0.01,0.043 0,0.04 0,0.08 0,0.12 0,0.04 0,0.08 0,0.12 L 0.475,0.178 C 0.456,0.188 0.436,0.197 0.416,0.202 0.395,0.208 0.374,0.21 0.352,0.21 0.33,0.21 0.309,0.208 0.288,0.202 0.267,0.196 0.248,0.188 0.229,0.177 0.211,0.167 0.194,0.154 0.178,0.139 0.163,0.124 0.15,0.107 0.139,0.087 0.13,0.071 0.125,0.054 0.125,0.035 c 0,-0.014 0.003,-0.028 0.008,-0.041 0.006,-0.012 0.013,-0.024 0.023,-0.033 0.009,-0.01 0.02,-0.017 0.033,-0.023 0.013,-0.006 0.027,-0.008 0.041,-0.008 0.02,0 0.037,0.003 0.048,0.011 0.012,0.007 0.022,0.015 0.029,0.024 0.008,0.009 0.015,0.017 0.021,0.024 C 0.334,-0.004 0.342,0 0.352,0 0.356,0 0.36,-0.001 0.365,-0.003 0.37,-0.004 0.374,-0.007 0.379,-0.01 0.384,-0.012 0.388,-0.015 0.393,-0.018 0.397,-0.021 0.401,-0.023 0.405,-0.025 L 0.362,-0.099 0.492,-0.295 C 0.469,-0.336 0.446,-0.376 0.423,-0.415 0.4,-0.455 0.377,-0.494 0.353,-0.534 0.344,-0.548 0.34,-0.563 0.34,-0.58 c 0,-0.013 0.002,-0.024 0.007,-0.035 0.005,-0.011 0.011,-0.02 0.019,-0.027 0.009,-0.008 0.018,-0.014 0.03,-0.018 0.011,-0.004 0.022,-0.007 0.035,-0.007 0.004,-0.015 0.011,-0.032 0.021,-0.048 0.009,-0.017 0.02,-0.032 0.034,-0.046 0.013,-0.013 0.028,-0.025 0.044,-0.033 0.017,-0.009 0.034,-0.013 0.052,-0.013 0.018,0 0.036,0.005 0.052,0.014 0.016,0.009 0.029,0.022 0.039,0.038 l 0.073,0.128 0.207,-0.12 c 0.014,-0.008 0.028,-0.012 0.044,-0.012 0.02,0 0.037,0.006 0.051,0.017 0.015,0.01 0.026,0.025 0.032,0.043 L 1.082,-0.7 1.083,-0.701 c 0.008,-0.003 0.015,-0.006 0.021,-0.007 0.006,-0.002 0.013,-0.003 0.021,-0.003 0.013,0 0.024,0.002 0.034,0.006 0.011,0.005 0.02,0.011 0.028,0.019 0.008,0.008 0.015,0.017 0.019,0.028 0.005,0.01 0.007,0.021 0.007,0.033 0,0.005 0,0.01 -0.001,0.015 -10e-4,0.005 -0.002,0.01 -0.004,0.014 z"
         style="fill-rule:nonzero"
         id="path11708" /><path
         d="M 0.665,-0.628 0.59,-0.51 H 0.452 C 0.45,-0.512 0.447,-0.516 0.442,-0.522 0.438,-0.529 0.433,-0.536 0.428,-0.543 0.423,-0.551 0.419,-0.558 0.416,-0.565 0.412,-0.572 0.41,-0.576 0.41,-0.579 c 0,-0.005 0.002,-0.009 0.005,-0.013 0.004,-0.003 0.008,-0.004 0.013,-0.004 H 0.495 C 0.494,-0.598 0.494,-0.601 0.494,-0.603 V -0.61 c 0,-0.025 0.006,-0.049 0.019,-0.071 0.012,-0.022 0.029,-0.039 0.051,-0.051 0.006,-0.004 0.012,-0.005 0.018,-0.005 0.006,0 0.012,0.001 0.017,0.004 0.005,0.003 0.01,0.008 0.013,0.013 z"
         style="fill:#cccccc;fill-rule:nonzero"
         id="path11710" /><path
         d="m 0.756,-0.469 0.154,0.266 -0.395,0.228 -0.07,-0.121 0.02,-0.03 0.035,-0.012 0.01,-0.056 0.019,-0.03 0.041,-0.019 0.005,-0.05 0.061,-0.068 c 0.01,0 0.019,-0.002 0.028,-0.005 0.008,-0.004 0.015,-0.009 0.022,-0.015 0.006,-0.006 0.011,-0.014 0.015,-0.022 0.004,-0.009 0.006,-0.018 0.006,-0.028 z"
         style="fill:#735bc1;fill-rule:nonzero"
         id="path11712" /><path
         d="m 0.756,-0.351 c 0,0.01 -0.001,0.019 -0.005,0.027 C 0.747,-0.315 0.742,-0.308 0.736,-0.302 0.73,-0.295 0.722,-0.29 0.714,-0.286 0.705,-0.283 0.696,-0.281 0.687,-0.281 H 0.567 L 0.575,-0.293 0.54,-0.354 0.55,-0.402 0.504,-0.415 0.452,-0.505 0.665,-0.628 0.756,-0.469 Z"
         style="fill:#9c89e9;fill-rule:nonzero"
         id="path11714" /><path
         d="m 0.613,-0.472 c 0.01,0 0.018,0.004 0.025,0.011 0.007,0.007 0.01,0.015 0.01,0.024 0,0.007 -0.001,0.013 -0.004,0.018 -0.003,0.005 -0.008,0.009 -0.013,0.013 L 0.54,-0.354 0.504,-0.415 0.596,-0.467 C 0.602,-0.47 0.607,-0.472 0.613,-0.472 Z m -0.038,0.179 0.052,0.091 c 0.004,0.006 0.005,0.012 0.005,0.018 0,0.009 -0.003,0.018 -0.01,0.025 -0.008,0.007 -0.016,0.01 -0.025,0.01 C 0.59,-0.149 0.584,-0.15 0.579,-0.154 0.574,-0.157 0.57,-0.161 0.566,-0.167 l -0.034,-0.06 z m -0.065,0.099 0.019,0.031 c 0.003,0.006 0.006,0.011 0.008,0.017 0.003,0.006 0.004,0.01 0.004,0.015 0,0.009 -0.003,0.017 -0.01,0.024 C 0.524,-0.1 0.515,-0.096 0.506,-0.096 0.495,-0.096 0.487,-0.1 0.482,-0.106 0.476,-0.113 0.471,-0.12 0.467,-0.129 Z"
         style="fill:#ffffff;fill-rule:nonzero"
         id="path11716" /><path
         d="m 1.125,-0.642 c 0.005,0 0.009,0.002 0.013,0.006 0.003,0.003 0.005,0.007 0.005,0.012 0,0.007 -0.003,0.012 -0.009,0.015 l -0.303,0.176 c -0.004,0.002 -0.007,0.002 -0.009,0.002 -0.005,0 -0.009,-0.001 -0.013,-0.005 -0.003,-0.003 -0.005,-0.007 -0.005,-0.012 0,-0.007 0.003,-0.012 0.009,-0.015 L 1.117,-0.639 C 1.12,-0.641 1.123,-0.642 1.125,-0.642 Z M 0.997,-0.689 c 0.005,0 0.009,0.002 0.013,0.005 0.003,0.004 0.005,0.008 0.005,0.013 0,0.006 -0.003,0.011 -0.009,0.015 L 0.778,-0.524 C 0.775,-0.523 0.772,-0.522 0.769,-0.522 0.764,-0.522 0.76,-0.524 0.757,-0.527 0.753,-0.531 0.751,-0.535 0.751,-0.54 c 0,-0.002 0.001,-0.005 0.003,-0.008 0.002,-0.003 0.004,-0.005 0.006,-0.007 l 0.228,-0.132 c 0.004,-10e-4 0.006,-0.002 0.009,-0.002 z m 0.163,0.148 c 0.005,0 0.009,0.002 0.012,0.006 0.004,0.003 0.006,0.007 0.006,0.012 0,0.003 -10e-4,0.006 -0.003,0.009 -0.001,0.002 -0.003,0.005 -0.006,0.006 l -0.286,0.166 c -0.001,0 -0.002,0.001 -0.004,0.001 C 0.877,-0.34 0.876,-0.34 0.875,-0.34 0.87,-0.34 0.866,-0.342 0.862,-0.345 0.859,-0.349 0.857,-0.353 0.857,-0.357 c 0,-0.003 0.001,-0.006 0.002,-0.009 0.002,-0.003 0.004,-0.005 0.007,-0.007 L 1.151,-0.538 C 1.155,-0.54 1.158,-0.541 1.16,-0.541 Z"
         style="fill:#b3dbf2;fill-rule:nonzero"
         id="path11718" /><path
         d="m 0.352,0.07 c 0.019,0 0.036,-0.004 0.052,-0.014 l 0.773,-0.449 v 0.081 L 0.439,0.117 C 0.426,0.124 0.412,0.13 0.397,0.134 0.382,0.138 0.367,0.14 0.352,0.14 0.337,0.14 0.322,0.138 0.307,0.134 0.292,0.13 0.278,0.124 0.264,0.117 0.25,0.109 0.238,0.1 0.227,0.089 0.216,0.078 0.207,0.066 0.2,0.053 0.198,0.05 0.197,0.047 0.196,0.044 0.195,0.042 0.195,0.039 0.195,0.035 0.195,0.026 0.198,0.017 0.205,0.01 0.212,0.003 0.221,0 0.23,0 0.237,0 0.243,0.002 0.248,0.005 0.253,0.008 0.257,0.012 0.261,0.018 0.272,0.035 0.285,0.048 0.299,0.057 0.313,0.066 0.331,0.07 0.352,0.07 Z"
         style="fill:#31d2f7;fill-rule:nonzero"
         id="path11720" /></g></g></svg>
