<?xml version="1.0" encoding="UTF-8" standalone="no"?>
<svg
   width="12.63"
   height="16.844999"
   viewBox="0 0 12.63 16.844999"
   version="1.1"
   xml:space="preserve"
   style="clip-rule:evenodd;fill-rule:evenodd;stroke-linejoin:round;stroke-miterlimit:2"
   id="svg20568"
   sodipodi:docname="emojis.svg"
   xmlns:inkscape="http://www.inkscape.org/namespaces/inkscape"
   xmlns:sodipodi="http://sodipodi.sourceforge.net/DTD/sodipodi-0.dtd"
   xmlns="http://www.w3.org/2000/svg"
   xmlns:svg="http://www.w3.org/2000/svg"><defs
     id="defs20572" /><sodipodi:namedview
     id="namedview20570"
     pagecolor="#505050"
     bordercolor="#eeeeee"
     borderopacity="1"
     inkscape:pageshadow="0"
     inkscape:pageopacity="0"
     inkscape:pagecheckerboard="0" /><g
     transform="matrix(0.24,0,0,0.24,-480.6078,-585.5658)"
     id="g20566"><g
       transform="matrix(62.5,0,0,62.5,1994.72,2496.92)"
       id="g11706"><path
         d="M 0.335,0.21 C 0.306,0.21 0.279,0.205 0.254,0.194 0.228,0.183 0.206,0.168 0.187,0.149 0.168,0.13 0.153,0.107 0.142,0.082 0.131,0.056 0.125,0.029 0.125,0 v -0.562 h 0.07 c 0.01,0 0.018,-0.003 0.025,-0.01 0.007,-0.007 0.01,-0.015 0.01,-0.025 v -0.316 h 0.246 v 0.071 h 0.14 v -0.071 h 0.246 v 0.316 c 0,0.01 0.003,0.018 0.01,0.025 0.007,0.007 0.016,0.01 0.025,0.01 h 0.07 V 0 C 0.967,0.029 0.962,0.056 0.951,0.082 0.94,0.107 0.925,0.13 0.906,0.149 0.886,0.168 0.864,0.183 0.839,0.194 0.813,0.205 0.786,0.21 0.757,0.21 Z"
         style="fill-rule:nonzero"
         id="path11698" /><path
         d="m 0.687,-0.842 0.035,0.038 v 0.278 H 0.371 v -0.278 l 0.035,-0.038 c 0,0.009 0.002,0.019 0.005,0.027 0.004,0.009 0.009,0.016 0.016,0.022 0.006,0.007 0.013,0.012 0.022,0.015 0.008,0.004 0.017,0.006 0.027,0.006 h 0.14 c 0.01,0 0.019,-0.002 0.028,-0.006 0.008,-0.003 0.015,-0.008 0.022,-0.015 0.006,-0.006 0.011,-0.013 0.015,-0.022 0.004,-0.008 0.006,-0.018 0.006,-0.027 z"
         style="fill:#0078d7;fill-rule:nonzero"
         id="path11700" /><path
         d="m 0.792,-0.842 v 0.346 c 0,0.025 0,0.05 0.001,0.076 H 0.897 V 0 C 0.897,0.02 0.893,0.038 0.886,0.055 0.879,0.072 0.869,0.086 0.856,0.099 0.843,0.112 0.828,0.122 0.812,0.129 0.795,0.136 0.776,0.14 0.757,0.14 H 0.335 V -0.001 C 0.312,-0.001 0.289,0 0.265,0 0.242,0 0.219,0 0.195,0 V -0.491 C 0.21,-0.491 0.224,-0.494 0.236,-0.5 0.249,-0.505 0.26,-0.513 0.27,-0.522 0.279,-0.532 0.286,-0.543 0.292,-0.556 0.298,-0.568 0.3,-0.582 0.3,-0.597 v -0.245 h 0.106 v 0.14 c 0,0.019 0.004,0.037 0.011,0.054 0.007,0.017 0.018,0.032 0.03,0.045 0.013,0.013 0.028,0.023 0.045,0.03 0.017,0.008 0.035,0.011 0.054,0.011 0.019,0 0.038,-0.003 0.055,-0.011 0.017,-0.007 0.032,-0.017 0.045,-0.03 0.012,-0.012 0.022,-0.027 0.03,-0.044 0.007,-0.017 0.011,-0.036 0.011,-0.055 v -0.14 z"
         style="fill:#31d2f7;fill-rule:nonzero"
         id="path11702" /><path
         d="m 0.897,-0.491 v 0.07 L 0.335,0.14 C 0.316,0.14 0.298,0.136 0.281,0.129 0.264,0.122 0.249,0.112 0.236,0.099 0.224,0.086 0.214,0.072 0.206,0.055 0.199,0.038 0.195,0.02 0.195,0 l 0.597,-0.597 c 0,0.015 0.003,0.029 0.008,0.041 0.006,0.013 0.013,0.024 0.023,0.034 0.009,0.009 0.02,0.017 0.033,0.022 0.013,0.006 0.026,0.009 0.041,0.009 z"
         style="fill:#fce100;fill-rule:nonzero"
         id="path11704" /></g></g></svg>
