<?xml version="1.0" encoding="UTF-8" standalone="no"?>
<svg
   width="16.844999"
   height="16.844999"
   viewBox="0 0 16.844999 16.844999"
   version="1.1"
   xml:space="preserve"
   style="clip-rule:evenodd;fill-rule:evenodd;stroke-linejoin:round;stroke-miterlimit:2"
   id="svg20568"
   sodipodi:docname="emojis.svg"
   xmlns:inkscape="http://www.inkscape.org/namespaces/inkscape"
   xmlns:sodipodi="http://sodipodi.sourceforge.net/DTD/sodipodi-0.dtd"
   xmlns="http://www.w3.org/2000/svg"
   xmlns:svg="http://www.w3.org/2000/svg"><defs
     id="defs20572" /><sodipodi:namedview
     id="namedview20570"
     pagecolor="#505050"
     bordercolor="#eeeeee"
     borderopacity="1"
     inkscape:pageshadow="0"
     inkscape:pageopacity="0"
     inkscape:pagecheckerboard="0" /><g
     transform="matrix(0.24,0,0,0.24,-547.6542,-110.71908)"
     id="g20566"><g
       transform="matrix(62.5,0,0,62.5,2274.08,518.392)"
       id="g1172"><path
         d="M 0.687,0.21 C 0.658,0.21 0.631,0.204 0.606,0.191 0.581,0.179 0.561,0.161 0.544,0.137 0.533,0.139 0.522,0.14 0.511,0.14 0.49,0.14 0.47,0.137 0.451,0.129 0.431,0.122 0.414,0.112 0.399,0.1 0.384,0.087 0.371,0.072 0.36,0.054 0.35,0.037 0.342,0.018 0.338,-0.003 0.318,-0.007 0.298,-0.014 0.281,-0.025 0.264,-0.035 0.249,-0.048 0.236,-0.063 0.223,-0.079 0.213,-0.096 0.206,-0.115 0.199,-0.134 0.195,-0.155 0.195,-0.176 0.195,-0.187 0.196,-0.198 0.198,-0.209 0.175,-0.226 0.157,-0.246 0.144,-0.271 0.131,-0.296 0.125,-0.322 0.125,-0.351 0.125,-0.369 0.128,-0.387 0.133,-0.403 0.138,-0.42 0.146,-0.435 0.156,-0.45 L 0.291,-0.655 0.22,-0.739 C 0.212,-0.749 0.206,-0.759 0.202,-0.771 0.197,-0.783 0.195,-0.795 0.195,-0.807 c 0,-0.015 0.003,-0.029 0.009,-0.041 0.005,-0.013 0.013,-0.024 0.022,-0.034 0.01,-0.009 0.021,-0.017 0.034,-0.022 0.012,-0.006 0.026,-0.009 0.041,-0.009 0.012,0 0.024,0.003 0.036,0.007 0.011,0.004 0.022,0.01 0.031,0.018 l 0.092,0.077 c 0.034,-0.022 0.07,-0.038 0.109,-0.049 0.038,-0.012 0.077,-0.017 0.118,-0.017 0.04,0 0.079,0.005 0.117,0.017 0.039,0.011 0.075,0.027 0.109,0.049 l 0.092,-0.077 c 0.009,-0.008 0.02,-0.014 0.031,-0.018 0.012,-0.004 0.024,-0.007 0.036,-0.007 0.015,0 0.029,0.003 0.042,0.009 0.012,0.005 0.024,0.013 0.033,0.022 0.009,0.01 0.017,0.021 0.022,0.034 0.006,0.012 0.009,0.026 0.009,0.041 0,0.012 -0.002,0.024 -0.007,0.036 -0.004,0.012 -0.01,0.022 -0.018,0.032 l -0.07,0.084 0.135,0.206 c 0.009,0.014 0.017,0.03 0.022,0.047 0.005,0.016 0.008,0.033 0.008,0.051 0,0.029 -0.006,0.055 -0.019,0.08 -0.013,0.025 -0.031,0.045 -0.054,0.062 0.002,0.011 0.003,0.022 0.003,0.033 0,0.021 -0.004,0.042 -0.011,0.061 C 1.16,-0.096 1.15,-0.079 1.137,-0.063 1.125,-0.048 1.109,-0.035 1.092,-0.025 1.075,-0.014 1.056,-0.007 1.035,-0.003 1.031,0.018 1.024,0.037 1.013,0.054 1.002,0.072 0.989,0.087 0.974,0.1 0.959,0.112 0.942,0.122 0.922,0.129 0.903,0.137 0.883,0.14 0.862,0.14 0.851,0.14 0.84,0.139 0.829,0.137 0.813,0.161 0.792,0.179 0.767,0.191 0.742,0.204 0.715,0.21 0.687,0.21 Z"
         style="fill-rule:nonzero"
         id="path1158" /><path
         d="m 1.178,-0.351 c 0,0.014 -0.003,0.027 -0.008,0.039 -0.005,0.012 -0.012,0.023 -0.021,0.032 -0.008,0.01 -0.019,0.017 -0.031,0.023 -0.012,0.006 -0.025,0.009 -0.038,0.01 0.008,0.01 0.015,0.021 0.02,0.033 0.005,0.012 0.007,0.025 0.007,0.038 0,0.015 -0.002,0.029 -0.008,0.041 -0.005,0.013 -0.013,0.024 -0.022,0.034 -0.01,0.009 -0.021,0.017 -0.034,0.022 -0.012,0.006 -0.026,0.009 -0.041,0.009 -0.008,0 -0.016,-10e-4 -0.023,-0.003 -0.008,-0.002 -0.015,-0.005 -0.023,-0.009 0.004,0.008 0.006,0.016 0.008,0.023 0.002,0.008 0.003,0.016 0.003,0.024 0,0.014 -0.002,0.028 -0.008,0.041 C 0.953,0.019 0.946,0.03 0.936,0.039 0.927,0.049 0.916,0.056 0.903,0.062 0.89,0.068 0.876,0.07 0.862,0.07 0.848,0.07 0.836,0.068 0.823,0.063 0.811,0.058 0.8,0.051 0.791,0.042 0.79,0.056 0.787,0.068 0.781,0.08 0.775,0.092 0.767,0.103 0.758,0.112 0.749,0.121 0.738,0.128 0.726,0.133 0.713,0.138 0.7,0.14 0.687,0.14 0.673,0.14 0.659,0.138 0.647,0.133 0.635,0.128 0.624,0.121 0.615,0.112 0.606,0.103 0.598,0.093 0.592,0.081 0.586,0.069 0.583,0.056 0.582,0.042 0.573,0.051 0.562,0.058 0.55,0.063 0.537,0.068 0.525,0.07 0.511,0.07 0.497,0.07 0.483,0.068 0.47,0.062 0.458,0.056 0.446,0.049 0.437,0.039 0.427,0.03 0.42,0.019 0.414,0.006 0.409,-0.007 0.406,-0.021 0.406,-0.035 0.406,-0.043 0.407,-0.051 0.409,-0.059 0.411,-0.066 0.413,-0.074 0.417,-0.082 0.41,-0.078 0.402,-0.075 0.394,-0.073 0.387,-0.071 0.379,-0.07 0.371,-0.07 0.356,-0.07 0.342,-0.073 0.33,-0.079 0.317,-0.084 0.306,-0.092 0.296,-0.101 0.287,-0.111 0.279,-0.122 0.273,-0.135 0.268,-0.147 0.265,-0.161 0.265,-0.176 c 0,-0.013 0.003,-0.026 0.008,-0.038 0.005,-0.012 0.012,-0.023 0.02,-0.033 C 0.28,-0.248 0.267,-0.251 0.255,-0.257 0.243,-0.263 0.232,-0.27 0.224,-0.28 0.215,-0.289 0.208,-0.3 0.203,-0.312 0.198,-0.324 0.195,-0.337 0.195,-0.351 c 0,-0.022 0.006,-0.041 0.019,-0.06 l 0.192,-0.291 h 0.031 c 0.033,-0.034 0.071,-0.06 0.114,-0.078 0.042,-0.018 0.088,-0.027 0.136,-0.027 0.047,0 0.092,0.009 0.135,0.027 0.043,0.018 0.081,0.044 0.115,0.078 h 0.03 l 0.192,0.291 c 0.013,0.019 0.019,0.038 0.019,0.06 z"
         style="fill:#1f1f1f;fill-rule:nonzero"
         id="path1160" /><path
         d="m 0.687,-0.766 c 0.017,0.031 0.039,0.06 0.064,0.085 0.025,0.025 0.053,0.047 0.083,0.065 0.031,0.017 0.063,0.031 0.097,0.04 0.035,0.01 0.07,0.014 0.107,0.014 v 0.281 c 0,0.032 -0.005,0.064 -0.013,0.094 C 1.017,-0.158 1.005,-0.13 0.99,-0.104 0.974,-0.077 0.956,-0.054 0.935,-0.032 0.913,-0.011 0.89,0.007 0.864,0.022 0.838,0.038 0.81,0.05 0.78,0.058 0.75,0.066 0.719,0.07 0.687,0.07 0.654,0.07 0.623,0.066 0.593,0.058 0.563,0.05 0.535,0.038 0.509,0.022 0.483,0.007 0.46,-0.011 0.438,-0.032 0.417,-0.054 0.399,-0.077 0.383,-0.104 0.368,-0.13 0.356,-0.158 0.348,-0.187 0.34,-0.217 0.335,-0.249 0.335,-0.281 v -0.281 c 0.037,0 0.072,-0.004 0.107,-0.014 0.034,-0.009 0.066,-0.023 0.097,-0.04 0.03,-0.018 0.058,-0.04 0.083,-0.065 0.025,-0.025 0.047,-0.054 0.065,-0.085 z"
         style="fill:#f03a17;fill-rule:nonzero"
         id="path1162" /><path
         d="m 1.073,-0.842 c 0.009,0 0.017,0.003 0.024,0.01 0.007,0.007 0.01,0.015 0.01,0.025 0,0.009 -0.002,0.016 -0.007,0.022 L 0.972,-0.632 C 0.966,-0.626 0.96,-0.621 0.953,-0.618 0.946,-0.614 0.938,-0.613 0.931,-0.613 0.924,-0.613 0.917,-0.614 0.91,-0.617 0.904,-0.62 0.898,-0.624 0.894,-0.628 0.889,-0.633 0.885,-0.639 0.882,-0.645 0.879,-0.652 0.878,-0.658 0.878,-0.666 c 0,-0.007 0.002,-0.015 0.005,-0.022 0.003,-0.007 0.008,-0.013 0.014,-0.018 L 1.05,-0.834 C 1.056,-0.84 1.064,-0.842 1.073,-0.842 Z m -0.773,0 c 0.009,0 0.017,0.002 0.023,0.008 l 0.153,0.128 c 0.006,0.005 0.011,0.011 0.014,0.018 0.003,0.007 0.005,0.015 0.005,0.022 0,0.008 -0.001,0.014 -0.004,0.021 C 0.488,-0.639 0.484,-0.633 0.479,-0.628 0.475,-0.624 0.469,-0.62 0.463,-0.617 0.456,-0.614 0.45,-0.613 0.442,-0.613 0.435,-0.613 0.427,-0.614 0.42,-0.618 0.413,-0.621 0.407,-0.626 0.401,-0.632 L 0.273,-0.785 C 0.268,-0.791 0.265,-0.799 0.265,-0.807 c 0,-0.01 0.004,-0.018 0.011,-0.025 0.007,-0.007 0.015,-0.01 0.024,-0.01 z"
         style="fill:#ffc83d;fill-rule:nonzero"
         id="path1164" /><path
         d="m 0.757,-0.31 c 0.01,0.004 0.02,0.01 0.028,0.016 0.009,0.007 0.016,0.015 0.022,0.023 0.006,0.009 0.011,0.018 0.015,0.029 0.003,0.01 0.005,0.02 0.005,0.032 h -0.07 c 0,0.009 -0.002,0.018 -0.006,0.027 -0.004,0.008 -0.009,0.016 -0.015,0.022 -0.006,0.006 -0.014,0.011 -0.022,0.015 -0.009,0.004 -0.018,0.005 -0.027,0.005 -0.01,0 -0.019,-0.001 -0.028,-0.005 C 0.651,-0.15 0.643,-0.155 0.637,-0.161 0.631,-0.167 0.626,-0.175 0.622,-0.183 0.618,-0.192 0.616,-0.201 0.616,-0.21 h -0.07 c 0,-0.012 0.002,-0.022 0.005,-0.032 C 0.555,-0.253 0.56,-0.262 0.566,-0.271 0.572,-0.279 0.58,-0.287 0.588,-0.294 0.597,-0.3 0.606,-0.306 0.616,-0.31 v -0.111 c 0,-0.01 0.002,-0.019 0.006,-0.028 0.004,-0.008 0.009,-0.016 0.015,-0.022 0.006,-0.006 0.014,-0.011 0.022,-0.015 0.009,-0.003 0.018,-0.005 0.028,-0.005 0.009,0 0.018,0.002 0.027,0.005 0.008,0.004 0.016,0.009 0.022,0.015 0.006,0.006 0.011,0.014 0.015,0.022 0.004,0.009 0.006,0.018 0.006,0.028 z"
         style="fill:#af0d1a;fill-rule:nonzero"
         id="path1166" /><path
         d="m 0.476,-0.141 h 0.07 c 0.001,0 0.003,10e-4 0.006,0.002 L 0.58,-0.131 0.598,-0.136 C 0.602,-0.138 0.606,-0.139 0.61,-0.139 0.613,-0.14 0.616,-0.141 0.616,-0.141 h 0.141 c 0.006,0 0.012,0.002 0.017,0.005 0.006,0.002 0.012,0.004 0.018,0.004 0.006,0 0.012,-0.002 0.017,-0.004 0.006,-0.003 0.011,-0.005 0.018,-0.005 h 0.07 v 0.036 c 0,0.014 -0.003,0.028 -0.008,0.041 -0.006,0.012 -0.013,0.023 -0.023,0.033 -0.009,0.01 -0.02,0.017 -0.033,0.023 C 0.82,-0.003 0.807,0 0.792,0 0.792,0 0.79,0 0.786,-0.001 L 0.755,-0.011 0.722,0 H 0.651 C 0.645,0 0.639,-0.001 0.634,-0.004 0.629,-0.007 0.623,-0.009 0.617,-0.009 0.611,-0.009 0.605,-0.007 0.599,-0.004 0.593,-0.001 0.587,0 0.581,0 0.566,0 0.553,-0.003 0.54,-0.008 0.527,-0.014 0.516,-0.021 0.507,-0.031 0.497,-0.041 0.49,-0.052 0.484,-0.064 0.479,-0.077 0.476,-0.091 0.476,-0.105 Z M 0.897,-0.5 c 0.011,0 0.021,0.002 0.031,0.006 0.01,0.004 0.018,0.009 0.025,0.016 0.007,0.008 0.013,0.016 0.017,0.026 0.004,0.009 0.007,0.02 0.007,0.031 0,0.011 -0.003,0.021 -0.007,0.031 -0.004,0.009 -0.01,0.018 -0.017,0.025 -0.007,0.007 -0.015,0.013 -0.025,0.017 -0.01,0.004 -0.02,0.006 -0.031,0.006 -0.011,0 -0.021,-0.002 -0.031,-0.006 C 0.856,-0.352 0.848,-0.358 0.841,-0.365 0.834,-0.372 0.828,-0.381 0.824,-0.39 0.82,-0.4 0.818,-0.41 0.818,-0.421 0.818,-0.432 0.82,-0.442 0.824,-0.452 0.828,-0.462 0.834,-0.47 0.841,-0.477 0.848,-0.484 0.857,-0.49 0.866,-0.494 0.876,-0.498 0.886,-0.5 0.897,-0.5 Z m -0.421,0 c 0.011,0 0.021,0.002 0.031,0.006 0.009,0.004 0.018,0.01 0.025,0.017 0.007,0.007 0.013,0.015 0.017,0.025 0.004,0.01 0.006,0.02 0.006,0.031 0,0.011 -0.002,0.021 -0.006,0.031 -0.004,0.009 -0.01,0.018 -0.017,0.025 -0.007,0.007 -0.015,0.013 -0.025,0.017 -0.01,0.004 -0.02,0.006 -0.031,0.006 -0.011,0 -0.021,-0.002 -0.031,-0.006 C 0.435,-0.352 0.427,-0.358 0.42,-0.365 0.413,-0.372 0.407,-0.381 0.403,-0.39 0.399,-0.4 0.396,-0.41 0.396,-0.421 0.396,-0.432 0.399,-0.443 0.403,-0.452 0.407,-0.462 0.413,-0.47 0.42,-0.478 0.427,-0.485 0.435,-0.49 0.445,-0.494 0.455,-0.498 0.465,-0.5 0.476,-0.5 Z"
         style="fill-rule:nonzero"
         id="path1168" /><path
         d="m 0.476,-0.526 c 0.015,0 0.028,0.002 0.041,0.008 0.013,0.005 0.024,0.013 0.033,0.022 0.01,0.01 0.017,0.021 0.023,0.034 0.005,0.012 0.008,0.026 0.008,0.041 0,0.014 -0.003,0.028 -0.008,0.041 C 0.567,-0.368 0.56,-0.357 0.55,-0.347 0.541,-0.337 0.53,-0.33 0.517,-0.324 0.504,-0.319 0.491,-0.316 0.476,-0.316 0.461,-0.316 0.448,-0.319 0.435,-0.324 0.422,-0.33 0.411,-0.337 0.402,-0.347 0.392,-0.357 0.384,-0.368 0.379,-0.38 0.373,-0.393 0.371,-0.407 0.371,-0.421 c 0,-0.015 0.002,-0.029 0.008,-0.041 0.005,-0.013 0.013,-0.024 0.023,-0.034 0.009,-0.009 0.02,-0.017 0.033,-0.022 0.013,-0.006 0.026,-0.008 0.041,-0.008 z m 0.421,0 c 0.015,0 0.028,0.002 0.041,0.008 0.013,0.005 0.024,0.013 0.033,0.022 0.01,0.01 0.018,0.021 0.023,0.034 0.006,0.012 0.008,0.026 0.008,0.041 0,0.014 -0.002,0.028 -0.008,0.041 -0.005,0.012 -0.013,0.023 -0.023,0.033 -0.009,0.01 -0.02,0.017 -0.033,0.023 -0.013,0.005 -0.026,0.008 -0.041,0.008 -0.015,0 -0.028,-0.003 -0.041,-0.008 C 0.843,-0.33 0.832,-0.337 0.823,-0.347 0.813,-0.357 0.806,-0.368 0.8,-0.38 0.795,-0.393 0.792,-0.407 0.792,-0.421 0.792,-0.436 0.795,-0.45 0.8,-0.462 0.806,-0.475 0.813,-0.486 0.823,-0.496 0.832,-0.505 0.843,-0.513 0.856,-0.518 0.869,-0.524 0.882,-0.526 0.897,-0.526 Z M 0.476,-0.37 c 0.015,0 0.027,-0.005 0.036,-0.015 0.01,-0.01 0.015,-0.022 0.015,-0.036 0,-0.007 -0.001,-0.014 -0.004,-0.02 C 0.52,-0.447 0.517,-0.453 0.512,-0.457 0.507,-0.462 0.502,-0.466 0.496,-0.468 0.489,-0.471 0.483,-0.472 0.476,-0.472 c -0.007,0 -0.013,0.001 -0.02,0.004 -0.006,0.002 -0.012,0.006 -0.016,0.011 -0.005,0.004 -0.008,0.01 -0.011,0.016 -0.003,0.006 -0.004,0.013 -0.004,0.02 0,0.014 0.005,0.026 0.014,0.036 0.01,0.01 0.022,0.015 0.037,0.015 z m 0.421,0 c 0.007,0 0.014,-0.001 0.02,-0.004 0.006,-0.003 0.012,-0.006 0.016,-0.011 0.005,-0.005 0.008,-0.01 0.011,-0.016 0.003,-0.007 0.004,-0.013 0.004,-0.02 0,-0.007 -0.001,-0.014 -0.004,-0.02 C 0.941,-0.447 0.938,-0.453 0.933,-0.457 0.929,-0.462 0.923,-0.466 0.917,-0.468 0.91,-0.471 0.904,-0.472 0.897,-0.472 c -0.007,0 -0.013,0.001 -0.02,0.004 -0.006,0.002 -0.011,0.006 -0.016,0.011 -0.005,0.004 -0.008,0.01 -0.011,0.016 -0.003,0.006 -0.004,0.013 -0.004,0.02 0,0.014 0.005,0.026 0.015,0.036 0.009,0.01 0.021,0.015 0.036,0.015 z m -0.263,0.3 c 0.005,0 0.009,0.001 0.012,0.005 0.004,0.003 0.005,0.007 0.005,0.012 V 0 H 0.581 C 0.587,-0.011 0.593,-0.022 0.599,-0.032 0.605,-0.043 0.612,-0.054 0.62,-0.063 0.623,-0.068 0.628,-0.07 0.634,-0.07 Z M 0.792,0 h -0.07 v -0.053 c 0,-0.005 0.001,-0.009 0.005,-0.012 0.003,-0.004 0.007,-0.005 0.012,-0.005 0.006,0 0.01,0.002 0.014,0.007 0.002,0.003 0.004,0.007 0.006,0.01 0.002,0.003 0.004,0.007 0.006,0.01 0.004,0.008 0.009,0.015 0.013,0.022 C 0.783,-0.014 0.787,-0.007 0.792,0 Z M 0.757,-0.141 h 0.07 v 0.053 c 0,0.005 -0.002,0.009 -0.005,0.012 C 0.818,-0.072 0.814,-0.07 0.81,-0.07 0.803,-0.07 0.799,-0.073 0.795,-0.077 0.793,-0.08 0.792,-0.083 0.79,-0.086 0.789,-0.09 0.787,-0.093 0.786,-0.096 Z m -0.211,0 h 0.07 C 0.61,-0.13 0.603,-0.12 0.595,-0.11 0.588,-0.1 0.582,-0.089 0.578,-0.077 0.575,-0.073 0.57,-0.07 0.563,-0.07 0.559,-0.07 0.555,-0.072 0.551,-0.076 0.548,-0.079 0.546,-0.083 0.546,-0.088 Z"
         style="fill:#ffffff;fill-rule:nonzero"
         id="path1170" /></g></g></svg>
