<?xml version="1.0" encoding="UTF-8" standalone="no"?>
<svg
   width="16.844999"
   height="13.155"
   viewBox="0 0 16.844999 13.155"
   version="1.1"
   xml:space="preserve"
   style="clip-rule:evenodd;fill-rule:evenodd;stroke-linejoin:round;stroke-miterlimit:2"
   id="svg20568"
   sodipodi:docname="emojis.svg"
   xmlns:inkscape="http://www.inkscape.org/namespaces/inkscape"
   xmlns:sodipodi="http://sodipodi.sourceforge.net/DTD/sodipodi-0.dtd"
   xmlns="http://www.w3.org/2000/svg"
   xmlns:svg="http://www.w3.org/2000/svg"><defs
     id="defs20572" /><sodipodi:namedview
     id="namedview20570"
     pagecolor="#505050"
     bordercolor="#eeeeee"
     borderopacity="1"
     inkscape:pageshadow="0"
     inkscape:pageopacity="0"
     inkscape:pagecheckerboard="0" /><g
     transform="matrix(0.24,0,0,0.24,-599.9718,-587.1558)"
     id="g20566"><g
       transform="matrix(62.5,0,0,62.5,2492.07,2496.92)"
       id="g11786"><path
         d="M 0.985,0.07 C 0.964,0.07 0.945,0.068 0.927,0.064 0.909,0.06 0.892,0.054 0.876,0.046 0.86,0.038 0.845,0.028 0.83,0.017 0.815,0.006 0.801,-0.007 0.787,-0.021 L 0.192,-0.22 0.125,-0.287 v -0.444 l 0.076,-0.076 h 0.445 l 0.067,0.067 0.198,0.594 c 0.006,0.006 0.011,0.011 0.016,0.016 0.005,0.005 0.011,0.009 0.017,0.013 0.005,0.003 0.011,0.006 0.018,0.008 0.007,0.002 0.014,0.004 0.023,0.004 0.011,0 0.022,-0.003 0.033,-0.008 0.01,-0.005 0.02,-0.011 0.028,-0.019 C 1.054,-0.14 1.061,-0.149 1.065,-0.16 1.07,-0.17 1.073,-0.181 1.073,-0.193 1.073,-0.204 1.071,-0.214 1.066,-0.224 1.062,-0.235 1.056,-0.243 1.049,-0.251 1.028,-0.271 1.009,-0.29 0.991,-0.308 0.972,-0.326 0.956,-0.345 0.942,-0.364 0.928,-0.384 0.917,-0.405 0.909,-0.428 0.901,-0.451 0.897,-0.478 0.897,-0.509 c 0,-0.036 0.007,-0.069 0.021,-0.101 0.014,-0.032 0.033,-0.06 0.057,-0.084 0.024,-0.024 0.052,-0.043 0.084,-0.057 0.031,-0.014 0.065,-0.021 0.101,-0.021 0.012,0 0.024,0.002 0.034,0.007 0.011,0.004 0.02,0.011 0.028,0.019 0.008,0.008 0.015,0.017 0.019,0.027 0.005,0.011 0.007,0.022 0.007,0.034 0,0.012 -0.002,0.024 -0.007,0.035 -0.004,0.01 -0.011,0.02 -0.019,0.028 -0.008,0.008 -0.017,0.014 -0.028,0.018 -0.01,0.005 -0.022,0.007 -0.034,0.007 -0.011,0 -0.022,0.003 -0.033,0.008 -0.01,0.005 -0.02,0.011 -0.028,0.019 -0.008,0.008 -0.015,0.018 -0.019,0.028 -0.005,0.011 -0.008,0.022 -0.008,0.033 0,0.011 0.002,0.022 0.007,0.031 0.004,0.01 0.01,0.019 0.018,0.027 0.02,0.02 0.039,0.039 0.058,0.057 0.018,0.018 0.034,0.037 0.048,0.056 0.014,0.02 0.025,0.041 0.033,0.064 0.008,0.023 0.012,0.05 0.012,0.081 0,0.023 -0.003,0.046 -0.009,0.069 C 1.232,-0.102 1.223,-0.081 1.212,-0.062 1.2,-0.042 1.186,-0.024 1.17,-0.008 1.154,0.008 1.136,0.022 1.116,0.034 1.097,0.045 1.076,0.054 1.054,0.061 1.032,0.067 1.009,0.07 0.985,0.07 Z"
         style="fill-rule:nonzero"
         id="path11776" /><path
         d="m 0.792,-0.123 c 0,-0.004 0.001,-0.009 0.005,-0.012 0.003,-0.003 0.008,-0.005 0.012,-0.005 0.005,0 0.01,0.002 0.016,0.008 0.005,0.005 0.012,0.011 0.019,0.019 0.007,0.008 0.015,0.016 0.024,0.025 0.009,0.009 0.019,0.018 0.03,0.025 0.012,0.008 0.025,0.015 0.039,0.02 0.014,0.005 0.03,0.008 0.048,0.008 0.021,0 0.041,-0.004 0.06,-0.013 0.019,-0.008 0.036,-0.02 0.05,-0.034 C 1.11,-0.097 1.121,-0.114 1.13,-0.133 1.138,-0.152 1.143,-0.172 1.143,-0.193 1.143,-0.217 1.138,-0.237 1.13,-0.254 1.121,-0.272 1.11,-0.288 1.097,-0.302 1.084,-0.317 1.07,-0.331 1.055,-0.344 1.04,-0.358 1.026,-0.372 1.013,-0.388 1,-0.403 0.989,-0.421 0.98,-0.44 0.972,-0.46 0.967,-0.482 0.967,-0.509 c 0,-0.026 0.005,-0.051 0.016,-0.074 0.01,-0.023 0.024,-0.044 0.041,-0.062 0.018,-0.017 0.038,-0.031 0.062,-0.042 0.023,-0.01 0.048,-0.015 0.074,-0.015 0.005,0 0.009,0.002 0.013,0.005 0.003,0.003 0.005,0.008 0.005,0.012 0,0.005 -0.002,0.009 -0.005,0.013 -0.004,0.003 -0.008,0.005 -0.013,0.005 -0.019,0 -0.039,0.004 -0.058,0.011 -0.019,0.008 -0.036,0.019 -0.049,0.033 -0.017,0.017 -0.029,0.034 -0.038,0.052 -0.008,0.018 -0.013,0.038 -0.013,0.062 0,0.024 0.005,0.044 0.013,0.061 0.009,0.018 0.02,0.034 0.033,0.048 0.013,0.015 0.027,0.029 0.042,0.042 0.015,0.013 0.029,0.028 0.042,0.043 0.013,0.016 0.024,0.033 0.033,0.053 0.008,0.019 0.013,0.042 0.013,0.069 0,0.026 -0.005,0.05 -0.016,0.074 -0.01,0.023 -0.024,0.044 -0.041,0.061 C 1.103,-0.04 1.083,-0.026 1.059,-0.016 1.036,-0.005 1.011,0 0.985,0 0.962,0 0.943,-0.003 0.926,-0.009 0.909,-0.015 0.894,-0.023 0.88,-0.033 0.865,-0.043 0.852,-0.055 0.839,-0.068 0.826,-0.081 0.812,-0.095 0.797,-0.11 0.793,-0.114 0.792,-0.118 0.792,-0.123 Z"
         style="fill:#ffffff;fill-rule:nonzero"
         id="path11778" /><path
         d="M 0.844,-0.123 0.839,-0.118 0.377,-0.463 0.225,-0.732 0.23,-0.737 h 0.386 l 0.006,0.005 0.003,0.025 h 0.021 l 0.005,0.005 z"
         style="fill:#af0d1a;fill-rule:nonzero"
         id="path11780" /><path
         d="m 0.427,-0.514 c 0.013,0.014 0.025,0.026 0.035,0.037 0.011,0.011 0.021,0.022 0.031,0.033 0.009,0.01 0.019,0.021 0.029,0.033 0.01,0.011 0.021,0.024 0.034,0.037 L 0.814,-0.093 0.81,-0.088 0.23,-0.281 0.225,-0.286 V -0.311 H 0.2 L 0.195,-0.316 V -0.702 L 0.2,-0.707 Z"
         style="fill:#e81224;fill-rule:nonzero"
         id="path11782" /><path
         d="M 0.814,-0.093 0.423,-0.484 0.225,-0.286 0.2,-0.311 0.398,-0.509 0.2,-0.707 l 0.025,-0.025 0.198,0.198 0.199,-0.198 0.024,0.025 -0.198,0.198 0.391,0.391 z"
         style="fill:#e6808a;fill-rule:nonzero"
         id="path11784" /></g></g></svg>
