<?xml version="1.0" encoding="UTF-8" standalone="no"?>
<svg
   width="16.844999"
   height="16.844999"
   viewBox="0 0 16.844999 16.844999"
   version="1.1"
   xml:space="preserve"
   style="clip-rule:evenodd;fill-rule:evenodd;stroke-linejoin:round;stroke-miterlimit:2"
   id="svg20568"
   sodipodi:docname="emojis.svg"
   xmlns:inkscape="http://www.inkscape.org/namespaces/inkscape"
   xmlns:sodipodi="http://sodipodi.sourceforge.net/DTD/sodipodi-0.dtd"
   xmlns="http://www.w3.org/2000/svg"
   xmlns:svg="http://www.w3.org/2000/svg"><defs
     id="defs20572" /><sodipodi:namedview
     id="namedview20570"
     pagecolor="#505050"
     bordercolor="#eeeeee"
     borderopacity="1"
     inkscape:pageshadow="0"
     inkscape:pageopacity="0"
     inkscape:pagecheckerboard="0" /><g
     transform="matrix(0.24,0,0,0.24,-579.375,-585.5658)"
     id="g20566"><g
       transform="matrix(62.5,0,0,62.5,2406.25,2496.92)"
       id="g11774"><path
         d="M 0.353,0.21 C 0.34,0.21 0.325,0.21 0.308,0.209 0.292,0.208 0.275,0.206 0.258,0.203 0.241,0.2 0.225,0.196 0.209,0.19 0.193,0.185 0.179,0.178 0.166,0.168 0.154,0.159 0.144,0.148 0.136,0.135 0.129,0.122 0.125,0.106 0.125,0.087 0.125,0.067 0.13,0.05 0.139,0.035 0.149,0.021 0.161,0.01 0.175,0 0.19,-0.009 0.206,-0.016 0.224,-0.021 0.242,-0.025 0.26,-0.029 0.277,-0.031 0.251,-0.056 0.229,-0.084 0.21,-0.114 0.191,-0.145 0.175,-0.177 0.162,-0.211 0.15,-0.244 0.14,-0.279 0.134,-0.315 0.128,-0.35 0.125,-0.386 0.125,-0.421 c 0,-0.034 0.003,-0.067 0.008,-0.1 0.005,-0.033 0.013,-0.066 0.024,-0.097 0.014,-0.039 0.031,-0.076 0.054,-0.111 0.022,-0.035 0.048,-0.067 0.078,-0.094 0.03,-0.027 0.064,-0.049 0.101,-0.065 0.038,-0.016 0.078,-0.025 0.121,-0.025 h 0.035 c 0.018,0 0.036,0.003 0.053,0.008 0.013,-0.004 0.026,-0.006 0.039,-0.007 0.013,0 0.027,-0.001 0.04,-0.001 h 0.009 c 0.043,0 0.083,0.009 0.12,0.025 0.038,0.016 0.071,0.038 0.101,0.065 0.031,0.027 0.057,0.059 0.079,0.094 0.022,0.035 0.04,0.072 0.054,0.111 0.01,0.031 0.018,0.064 0.024,0.097 0.005,0.033 0.008,0.066 0.008,0.1 0,0.041 -0.004,0.083 -0.012,0.123 -0.008,0.041 -0.021,0.081 -0.038,0.119 0.015,0.008 0.029,0.014 0.043,0.018 0.015,0.004 0.03,0.008 0.045,0.011 0.02,0.004 0.038,0.011 0.055,0.021 0.017,0.009 0.032,0.021 0.044,0.035 0.012,0.014 0.021,0.03 0.028,0.048 0.007,0.018 0.01,0.037 0.01,0.058 0,0.022 -0.004,0.043 -0.013,0.063 C 1.226,0.095 1.215,0.112 1.2,0.127 1.185,0.142 1.168,0.154 1.148,0.162 1.128,0.171 1.107,0.175 1.084,0.175 H 0.529 C 0.516,0.183 0.503,0.189 0.489,0.193 0.474,0.198 0.459,0.201 0.444,0.204 0.428,0.207 0.413,0.208 0.397,0.209 0.382,0.21 0.367,0.21 0.353,0.21 Z"
         style="fill-rule:nonzero"
         id="path11760" /><path
         d="M 0.687,0 C 0.672,0 0.657,-0.002 0.642,-0.005 0.628,-0.008 0.613,-0.011 0.599,-0.013 0.59,-0.009 0.582,-0.006 0.573,-0.003 0.564,-0.001 0.555,0 0.546,0 H 0.511 C 0.476,0 0.443,-0.007 0.413,-0.021 0.383,-0.034 0.356,-0.052 0.331,-0.075 0.307,-0.098 0.286,-0.124 0.268,-0.153 0.25,-0.182 0.235,-0.212 0.225,-0.244 0.215,-0.272 0.207,-0.302 0.202,-0.331 c -0.004,-0.03 -0.007,-0.06 -0.007,-0.09 0,-0.031 0.003,-0.061 0.007,-0.09 0.005,-0.03 0.013,-0.059 0.023,-0.088 0.01,-0.031 0.025,-0.061 0.043,-0.09 0.018,-0.029 0.039,-0.055 0.063,-0.078 0.025,-0.023 0.052,-0.041 0.082,-0.055 0.03,-0.013 0.063,-0.02 0.098,-0.02 h 0.025 c 0.01,0 0.021,0 0.031,0.002 0.01,0.001 0.021,0.005 0.032,0.011 l 0.07,-0.013 C 0.67,-0.843 0.67,-0.843 0.672,-0.843 l 0.015,0.001 c 0.035,0 0.068,0.007 0.098,0.02 0.03,0.014 0.057,0.032 0.081,0.055 0.025,0.023 0.046,0.049 0.064,0.078 0.018,0.029 0.032,0.059 0.043,0.09 0.01,0.029 0.018,0.058 0.022,0.088 0.005,0.029 0.007,0.059 0.007,0.09 0,0.03 -0.002,0.06 -0.007,0.09 C 0.991,-0.302 0.983,-0.272 0.973,-0.244 0.962,-0.213 0.948,-0.183 0.93,-0.153 0.912,-0.124 0.891,-0.098 0.866,-0.075 0.842,-0.052 0.815,-0.034 0.785,-0.021 0.755,-0.007 0.722,0 0.687,0 Z"
         style="fill:#9a0089;fill-rule:nonzero"
         id="path11762" /><path
         d="m 0.669,-0.841 c 0.018,0.003 0.034,0.009 0.048,0.019 0.015,0.01 0.028,0.022 0.04,0.036 0.012,0.015 0.023,0.031 0.033,0.048 0.009,0.017 0.018,0.035 0.025,0.053 0.008,0.019 0.014,0.037 0.019,0.054 0.005,0.018 0.009,0.034 0.012,0.049 0.005,0.026 0.009,0.053 0.012,0.08 0.003,0.027 0.004,0.054 0.004,0.081 0,0.027 -0.001,0.054 -0.004,0.08 -0.002,0.027 -0.006,0.054 -0.012,0.08 C 0.843,-0.246 0.839,-0.23 0.834,-0.212 0.829,-0.194 0.823,-0.176 0.815,-0.158 0.808,-0.139 0.799,-0.122 0.79,-0.104 0.78,-0.086 0.769,-0.07 0.757,-0.056 0.745,-0.042 0.732,-0.03 0.717,-0.02 0.702,-0.01 0.686,-0.003 0.669,0 0.662,0 0.656,0 0.65,0 0.644,0 0.639,-0.001 0.633,-0.002 0.628,-0.003 0.622,-0.004 0.617,-0.006 0.611,-0.007 0.605,-0.01 0.599,-0.013 0.608,-0.018 0.616,-0.023 0.623,-0.029 0.63,-0.035 0.637,-0.041 0.643,-0.047 0.648,-0.054 0.654,-0.061 0.659,-0.068 0.664,-0.075 0.67,-0.083 0.677,-0.091 0.682,-0.097 0.686,-0.103 0.691,-0.108 0.696,-0.114 0.701,-0.12 0.705,-0.127 0.717,-0.146 0.727,-0.169 0.736,-0.193 0.745,-0.218 0.752,-0.244 0.758,-0.27 0.764,-0.296 0.768,-0.322 0.771,-0.348 0.774,-0.374 0.775,-0.399 0.775,-0.421 0.775,-0.445 0.773,-0.47 0.771,-0.495 0.768,-0.52 0.763,-0.545 0.757,-0.57 0.751,-0.595 0.744,-0.619 0.736,-0.643 0.727,-0.667 0.717,-0.689 0.705,-0.709 0.701,-0.717 0.696,-0.724 0.691,-0.731 0.686,-0.737 0.682,-0.744 0.677,-0.751 0.671,-0.759 0.666,-0.767 0.66,-0.774 0.655,-0.781 0.649,-0.788 0.643,-0.795 0.636,-0.802 0.63,-0.808 0.623,-0.814 0.615,-0.819 0.607,-0.825 0.599,-0.829 0.607,-0.833 0.615,-0.837 0.624,-0.839 0.633,-0.841 0.642,-0.842 0.651,-0.842 Z"
         style="fill:#800074;fill-rule:nonzero"
         id="path11764" /><path
         d="m 0.546,-0.421 c 0,0.018 -0.001,0.037 -0.003,0.055 -0.002,0.018 -0.005,0.036 -0.009,0.054 -0.004,0.017 -0.01,0.035 -0.018,0.055 -0.008,0.02 -0.018,0.039 -0.03,0.056 C 0.474,-0.184 0.46,-0.17 0.444,-0.158 0.428,-0.146 0.409,-0.141 0.388,-0.141 0.367,-0.141 0.349,-0.146 0.333,-0.158 0.316,-0.17 0.302,-0.184 0.29,-0.201 0.278,-0.218 0.268,-0.237 0.26,-0.257 0.253,-0.277 0.247,-0.295 0.243,-0.312 0.238,-0.33 0.235,-0.348 0.233,-0.366 0.231,-0.384 0.23,-0.403 0.23,-0.421 c 0,-0.038 0.005,-0.074 0.013,-0.11 0.004,-0.017 0.01,-0.035 0.017,-0.055 0.008,-0.02 0.018,-0.038 0.031,-0.056 0.012,-0.017 0.026,-0.031 0.042,-0.043 0.016,-0.011 0.035,-0.017 0.055,-0.017 0.021,0 0.039,0.006 0.055,0.017 0.017,0.012 0.031,0.026 0.043,0.043 0.012,0.018 0.022,0.036 0.03,0.056 0.008,0.02 0.014,0.038 0.018,0.055 0.008,0.036 0.012,0.072 0.012,0.11 z"
         style="fill:#cc76ca;fill-rule:nonzero"
         id="path11766" /><path
         d="m 0.476,-0.421 c 0,0.013 -0.001,0.027 -0.002,0.041 -0.001,0.013 -0.003,0.027 -0.006,0.041 -0.002,0.007 -0.004,0.016 -0.007,0.025 -0.003,0.009 -0.006,0.019 -0.01,0.028 -0.004,0.01 -0.009,0.019 -0.014,0.028 C 0.432,-0.249 0.426,-0.241 0.419,-0.234 0.413,-0.227 0.405,-0.221 0.397,-0.217 0.389,-0.213 0.38,-0.21 0.371,-0.21 0.356,-0.21 0.344,-0.215 0.333,-0.224 0.322,-0.234 0.312,-0.245 0.304,-0.258 0.296,-0.271 0.29,-0.285 0.285,-0.3 0.279,-0.315 0.276,-0.328 0.273,-0.339 0.271,-0.353 0.268,-0.367 0.267,-0.38 0.266,-0.394 0.265,-0.408 0.265,-0.421 c 0,-0.015 0.001,-0.03 0.002,-0.044 0.002,-0.015 0.004,-0.029 0.007,-0.043 0.003,-0.011 0.007,-0.024 0.012,-0.038 0.005,-0.014 0.011,-0.028 0.019,-0.04 0.008,-0.013 0.018,-0.024 0.028,-0.033 0.011,-0.008 0.024,-0.013 0.038,-0.013 0.014,0 0.026,0.005 0.037,0.013 0.01,0.009 0.02,0.02 0.028,0.033 0.008,0.012 0.014,0.026 0.019,0.04 0.005,0.014 0.009,0.027 0.012,0.038 0.003,0.014 0.005,0.028 0.007,0.043 0.001,0.014 0.002,0.029 0.002,0.044 z"
         style="fill:#c239b3;fill-rule:nonzero"
         id="path11768" /><path
         d="M 0.79,-0.351 C 0.788,-0.327 0.785,-0.304 0.781,-0.279 0.776,-0.254 0.77,-0.23 0.761,-0.207 0.753,-0.184 0.742,-0.162 0.728,-0.142 0.714,-0.122 0.697,-0.105 0.677,-0.091 0.691,-0.114 0.704,-0.139 0.714,-0.166 0.724,-0.193 0.732,-0.221 0.739,-0.25 0.745,-0.279 0.75,-0.308 0.752,-0.337 0.755,-0.367 0.757,-0.395 0.757,-0.421 Z"
         style="fill:#eba300;fill-rule:nonzero"
         id="path11770" /><path
         d="m 0.677,-0.751 c 0.016,0.011 0.031,0.024 0.043,0.04 0.012,0.016 0.023,0.033 0.031,0.051 0.008,0.018 0.015,0.037 0.021,0.058 0.005,0.02 0.009,0.041 0.012,0.061 0.003,0.021 0.005,0.041 0.006,0.062 0.001,0.02 0.002,0.039 0.002,0.058 0,0.038 0.007,0.075 0.02,0.11 0.013,0.036 0.031,0.068 0.056,0.098 0.031,0.037 0.065,0.066 0.104,0.087 0.038,0.021 0.081,0.036 0.128,0.045 0.011,0.003 0.022,0.007 0.031,0.012 0.01,0.006 0.018,0.012 0.025,0.02 0.007,0.008 0.012,0.018 0.016,0.028 C 1.176,-0.011 1.178,0 1.178,0.012 1.178,0.024 1.175,0.036 1.17,0.048 1.166,0.059 1.159,0.069 1.15,0.078 1.142,0.086 1.132,0.093 1.121,0.098 1.109,0.103 1.097,0.105 1.084,0.105 H 0.505 C 0.501,0.11 0.495,0.114 0.488,0.118 0.481,0.122 0.472,0.125 0.463,0.127 0.453,0.13 0.444,0.132 0.433,0.134 0.423,0.135 0.412,0.137 0.402,0.138 0.392,0.139 0.383,0.139 0.374,0.14 c -0.008,0 -0.016,0 -0.021,0 -0.006,0 -0.014,0 -0.023,0 C 0.32,0.139 0.309,0.139 0.297,0.137 0.286,0.136 0.274,0.135 0.262,0.132 0.25,0.13 0.239,0.127 0.229,0.123 0.219,0.119 0.211,0.114 0.205,0.108 0.198,0.103 0.195,0.096 0.195,0.087 0.195,0.079 0.198,0.072 0.205,0.067 0.211,0.061 0.219,0.056 0.229,0.052 0.239,0.048 0.25,0.045 0.262,0.043 0.275,0.041 0.287,0.039 0.298,0.038 0.31,0.037 0.321,0.036 0.331,0.036 0.341,0.035 0.348,0.035 0.354,0.035 c 0.009,0 0.021,10e-4 0.036,10e-4 0.014,0.001 0.029,0.003 0.044,0.005 0.015,0.003 0.029,0.006 0.042,0.011 0.013,0.004 0.022,0.01 0.029,0.018 H 1.084 C 1.093,0.07 1.1,0.069 1.107,0.066 1.114,0.063 1.12,0.058 1.125,0.053 1.131,0.048 1.135,0.041 1.138,0.034 1.141,0.027 1.143,0.02 1.143,0.012 1.143,-0.004 1.138,-0.016 1.129,-0.026 1.12,-0.036 1.108,-0.043 1.094,-0.046 1.084,-0.048 1.075,-0.05 1.066,-0.052 1.056,-0.054 1.047,-0.057 1.038,-0.06 0.999,-0.072 0.963,-0.089 0.93,-0.111 0.896,-0.133 0.867,-0.16 0.841,-0.191 0.813,-0.223 0.793,-0.259 0.778,-0.299 0.764,-0.338 0.757,-0.379 0.757,-0.421 0.757,-0.447 0.756,-0.473 0.753,-0.498 0.751,-0.524 0.747,-0.549 0.742,-0.574 0.736,-0.605 0.727,-0.636 0.718,-0.666 0.708,-0.696 0.694,-0.724 0.677,-0.751 Z M 0.354,0.105 c 0.008,0 0.018,0 0.028,0 C 0.393,0.104 0.403,0.103 0.414,0.102 0.425,0.1 0.436,0.098 0.446,0.096 0.456,0.094 0.464,0.091 0.471,0.087 0.464,0.084 0.455,0.081 0.445,0.079 0.434,0.076 0.424,0.075 0.413,0.073 0.402,0.072 0.391,0.071 0.38,0.071 0.37,0.07 0.36,0.07 0.353,0.07 c -0.01,0 -0.019,0 -0.03,10e-4 -0.01,0 -0.02,0.001 -0.03,0.002 C 0.282,0.075 0.272,0.076 0.263,0.079 0.253,0.081 0.244,0.084 0.235,0.087 0.243,0.091 0.251,0.094 0.261,0.096 0.272,0.098 0.282,0.1 0.293,0.102 c 0.012,0.001 0.022,0.002 0.033,0.003 0.011,0 0.02,0 0.028,0 z"
         style="fill:#ffd679;fill-rule:nonzero"
         id="path11772" /></g></g></svg>
