<?xml version="1.0" encoding="UTF-8" standalone="no"?>
<svg
   width="15.795"
   height="16.844999"
   viewBox="0 0 15.795 16.844999"
   version="1.1"
   xml:space="preserve"
   style="clip-rule:evenodd;fill-rule:evenodd;stroke-linejoin:round;stroke-miterlimit:2"
   id="svg20568"
   sodipodi:docname="emojis.svg"
   xmlns:inkscape="http://www.inkscape.org/namespaces/inkscape"
   xmlns:sodipodi="http://sodipodi.sourceforge.net/DTD/sodipodi-0.dtd"
   xmlns="http://www.w3.org/2000/svg"
   xmlns:svg="http://www.w3.org/2000/svg"><defs
     id="defs20572" /><sodipodi:namedview
     id="namedview20570"
     pagecolor="#505050"
     bordercolor="#eeeeee"
     borderopacity="1"
     inkscape:pageshadow="0"
     inkscape:pageopacity="0"
     inkscape:pagecheckerboard="0" /><g
     transform="matrix(0.24,0,0,0.24,-656.499,-585.5658)"
     id="g20566"><g
       transform="matrix(62.5,0,0,62.5,2727.6,2496.92)"
       id="g11822"><path
         d="m 0.967,-0.913 c 0.029,0 0.057,0.006 0.082,0.017 0.026,0.011 0.048,0.026 0.067,0.045 0.019,0.019 0.034,0.042 0.045,0.067 0.011,0.026 0.017,0.053 0.017,0.082 v 0.07 c 0,0.034 -0.006,0.067 -0.016,0.099 -0.011,0.031 -0.026,0.06 -0.045,0.087 C 1.098,-0.42 1.075,-0.397 1.048,-0.377 1.022,-0.358 0.993,-0.342 0.961,-0.332 0.956,-0.31 0.948,-0.29 0.938,-0.27 0.928,-0.251 0.915,-0.233 0.9,-0.218 0.886,-0.202 0.869,-0.189 0.851,-0.177 0.832,-0.166 0.813,-0.157 0.792,-0.151 v 0.014 c 0.028,0.006 0.053,0.018 0.075,0.036 0.022,0.018 0.039,0.04 0.05,0.066 H 0.95 c 0.017,0 0.033,0.003 0.048,0.01 0.015,0.006 0.028,0.015 0.039,0.026 0.011,0.011 0.019,0.024 0.026,0.039 0.006,0.015 0.01,0.03 0.01,0.047 V 0.21 H 0.23 V 0.087 C 0.23,0.07 0.234,0.055 0.24,0.04 0.246,0.025 0.255,0.012 0.266,0.001 0.277,-0.01 0.29,-0.019 0.305,-0.025 0.32,-0.032 0.336,-0.035 0.353,-0.035 h 0.032 c 0.012,-0.026 0.028,-0.048 0.05,-0.066 0.022,-0.018 0.048,-0.03 0.076,-0.036 V -0.151 C 0.49,-0.157 0.47,-0.166 0.452,-0.177 0.434,-0.189 0.417,-0.203 0.402,-0.218 0.387,-0.234 0.375,-0.251 0.364,-0.271 0.354,-0.29 0.346,-0.31 0.341,-0.332 0.31,-0.342 0.281,-0.358 0.254,-0.377 0.228,-0.397 0.205,-0.42 0.186,-0.446 0.167,-0.473 0.152,-0.502 0.141,-0.533 0.13,-0.565 0.125,-0.598 0.125,-0.632 v -0.07 c 0,-0.029 0.006,-0.056 0.017,-0.082 0.011,-0.025 0.026,-0.048 0.045,-0.067 0.019,-0.019 0.041,-0.034 0.067,-0.045 0.025,-0.011 0.052,-0.017 0.081,-0.017 z"
         style="fill-rule:nonzero"
         id="path11814" /><path
         d="m 0.967,-0.842 c 0.02,0 0.038,0.003 0.055,0.011 0.017,0.007 0.032,0.017 0.044,0.03 0.013,0.012 0.023,0.027 0.03,0.044 0.008,0.017 0.011,0.035 0.011,0.055 v 0.07 c 0,0.031 -0.005,0.06 -0.016,0.088 -0.01,0.028 -0.025,0.052 -0.044,0.074 -0.019,0.021 -0.041,0.039 -0.067,0.053 -0.026,0.015 -0.053,0.024 -0.083,0.028 v 0.003 c 0,0.024 -0.005,0.047 -0.014,0.068 -0.009,0.022 -0.022,0.04 -0.038,0.056 C 0.83,-0.246 0.811,-0.234 0.79,-0.224 0.768,-0.215 0.746,-0.21 0.722,-0.21 v 0.14 h 0.035 c 0.014,0 0.028,0.002 0.041,0.008 0.013,0.006 0.024,0.013 0.033,0.023 0.009,0.009 0.017,0.02 0.023,0.033 0.005,0.013 0.008,0.027 0.008,0.041 L 0.651,0.103 0.441,0.035 c 0,-0.014 0.003,-0.028 0.008,-0.041 0.006,-0.013 0.013,-0.024 0.023,-0.033 0.009,-0.01 0.02,-0.017 0.033,-0.023 C 0.518,-0.068 0.531,-0.07 0.546,-0.07 H 0.581 V -0.21 C 0.557,-0.21 0.534,-0.215 0.513,-0.224 0.492,-0.234 0.473,-0.246 0.457,-0.262 0.441,-0.278 0.429,-0.296 0.419,-0.318 0.41,-0.339 0.406,-0.362 0.406,-0.386 V -0.389 C 0.376,-0.393 0.348,-0.402 0.322,-0.417 0.297,-0.431 0.274,-0.449 0.256,-0.47 0.237,-0.492 0.222,-0.517 0.211,-0.544 0.201,-0.572 0.195,-0.601 0.195,-0.632 v -0.07 c 0,-0.019 0.004,-0.038 0.011,-0.055 0.008,-0.017 0.018,-0.032 0.03,-0.044 0.013,-0.013 0.028,-0.023 0.045,-0.03 0.017,-0.008 0.035,-0.011 0.054,-0.011 0.026,0 0.05,0.006 0.071,0.018 v -0.018 h 0.491 v 0.018 c 0.022,-0.012 0.045,-0.018 0.07,-0.018 z m -0.702,0.21 c 0,0.021 0.004,0.041 0.011,0.06 0.007,0.02 0.017,0.037 0.029,0.052 0.013,0.015 0.028,0.028 0.045,0.038 0.017,0.011 0.036,0.018 0.056,0.022 V -0.702 C 0.406,-0.712 0.404,-0.721 0.4,-0.729 0.396,-0.738 0.391,-0.745 0.385,-0.752 0.379,-0.758 0.371,-0.763 0.363,-0.767 0.354,-0.77 0.345,-0.772 0.335,-0.772 0.326,-0.772 0.317,-0.77 0.308,-0.767 0.3,-0.763 0.292,-0.758 0.286,-0.752 0.28,-0.745 0.274,-0.738 0.271,-0.729 0.267,-0.721 0.265,-0.712 0.265,-0.702 Z m 0.773,-0.07 c 0,-0.01 -0.002,-0.019 -0.006,-0.027 C 1.028,-0.738 1.023,-0.745 1.017,-0.752 1.01,-0.758 1.003,-0.763 0.995,-0.767 0.986,-0.77 0.977,-0.772 0.967,-0.772 c -0.009,0 -0.019,0.002 -0.027,0.005 -0.009,0.004 -0.016,0.009 -0.022,0.015 -0.007,0.007 -0.012,0.014 -0.015,0.023 -0.004,0.008 -0.006,0.017 -0.006,0.027 v 0.242 c 0.02,-0.004 0.038,-0.011 0.056,-0.022 0.017,-0.01 0.032,-0.023 0.044,-0.038 0.013,-0.015 0.023,-0.032 0.03,-0.052 0.007,-0.019 0.011,-0.039 0.011,-0.06 z"
         style="fill:#ffb900;fill-rule:nonzero"
         id="path11816" /><path
         d="m 0.687,-0.281 c -0.01,0 -0.019,-0.003 -0.025,-0.01 -0.007,-0.007 -0.011,-0.015 -0.011,-0.025 0,-0.01 0.004,-0.018 0.011,-0.025 0.006,-0.007 0.015,-0.01 0.025,-0.01 0.009,0 0.018,-0.002 0.027,-0.005 0.008,-0.004 0.016,-0.009 0.022,-0.015 0.006,-0.007 0.011,-0.014 0.015,-0.023 0.004,-0.008 0.006,-0.018 0.006,-0.027 v -0.316 c 0,-0.01 0.003,-0.018 0.01,-0.025 0.007,-0.007 0.015,-0.01 0.025,-0.01 0.009,0 0.018,0.003 0.024,0.01 0.007,0.007 0.011,0.015 0.011,0.025 v 0.316 c 0,0.019 -0.004,0.037 -0.011,0.055 -0.008,0.017 -0.018,0.032 -0.03,0.044 -0.013,0.013 -0.028,0.023 -0.045,0.03 -0.017,0.008 -0.035,0.011 -0.054,0.011 z"
         style="fill:#ffd679;fill-rule:nonzero"
         id="path11818" /><path
         d="M 1.002,0.14 H 0.3 V 0.087 C 0.3,0.08 0.302,0.073 0.304,0.067 0.307,0.061 0.311,0.055 0.316,0.051 0.321,0.046 0.326,0.042 0.333,0.039 0.339,0.037 0.346,0.035 0.353,0.035 H 0.95 c 0.007,0 0.014,0.002 0.02,0.004 0.007,0.003 0.012,0.007 0.017,0.012 0.005,0.004 0.009,0.01 0.011,0.016 0.003,0.006 0.004,0.013 0.004,0.02 z"
         style="fill:#8e562e;fill-rule:nonzero"
         id="path11820" /></g></g></svg>
