<?xml version="1.0" encoding="UTF-8" standalone="no"?>
<svg
   width="16.844999"
   height="16.844999"
   viewBox="0 0 16.844999 16.844999"
   version="1.1"
   xml:space="preserve"
   style="clip-rule:evenodd;fill-rule:evenodd;stroke-linejoin:round;stroke-miterlimit:2"
   id="svg20568"
   sodipodi:docname="emojis.svg"
   xmlns:inkscape="http://www.inkscape.org/namespaces/inkscape"
   xmlns:sodipodi="http://sodipodi.sourceforge.net/DTD/sodipodi-0.dtd"
   xmlns="http://www.w3.org/2000/svg"
   xmlns:svg="http://www.w3.org/2000/svg"><defs
     id="defs20572" /><sodipodi:namedview
     id="namedview20570"
     pagecolor="#505050"
     bordercolor="#eeeeee"
     borderopacity="1"
     inkscape:pageshadow="0"
     inkscape:pageopacity="0"
     inkscape:pagecheckerboard="0" /><g
     transform="matrix(0.24,0,0,0.24,-568.251,-110.71908)"
     id="g20566"><g
       transform="matrix(62.5,0,0,62.5,2359.9,518.392)"
       id="g1186"><path
         d="M 0.546,0.21 C 0.507,0.21 0.47,0.205 0.434,0.195 0.398,0.185 0.365,0.171 0.334,0.153 0.303,0.135 0.274,0.113 0.249,0.087 0.223,0.061 0.201,0.033 0.183,0.002 0.164,-0.029 0.15,-0.063 0.14,-0.099 0.13,-0.134 0.125,-0.172 0.125,-0.21 v -0.703 h 0.842 v 0.422 h 0.14 c 0.019,0 0.037,0.004 0.054,0.011 0.017,0.008 0.032,0.018 0.045,0.03 0.013,0.013 0.023,0.028 0.031,0.045 0.007,0.017 0.011,0.035 0.011,0.054 0,0.019 -0.004,0.038 -0.011,0.055 -0.007,0.017 -0.017,0.032 -0.03,0.045 -0.013,0.012 -0.028,0.022 -0.045,0.03 -0.017,0.007 -0.035,0.011 -0.055,0.011 h -0.14 c 0,0.038 -0.005,0.076 -0.015,0.111 C 0.942,-0.063 0.928,-0.029 0.91,0.002 0.891,0.033 0.869,0.061 0.844,0.087 0.818,0.113 0.79,0.135 0.758,0.153 0.727,0.171 0.694,0.185 0.658,0.195 0.622,0.205 0.585,0.21 0.546,0.21 Z"
         style="fill-rule:nonzero"
         id="path1174" /><path
         d="M 0.897,-0.842 V -0.42 C 0.892,-0.418 0.883,-0.415 0.87,-0.41 0.857,-0.405 0.841,-0.399 0.822,-0.392 0.804,-0.385 0.783,-0.378 0.761,-0.37 0.739,-0.361 0.716,-0.353 0.694,-0.345 0.671,-0.337 0.649,-0.329 0.627,-0.321 0.606,-0.313 0.587,-0.307 0.57,-0.301 0.553,-0.295 0.54,-0.29 0.529,-0.286 0.518,-0.283 0.513,-0.281 0.511,-0.281 H 0.195 V -0.842 Z M 0.546,-0.21 c 0.031,0 0.062,0.004 0.091,0.012 0.03,0.008 0.058,0.02 0.084,0.035 0.027,0.015 0.051,0.033 0.073,0.055 0.022,0.022 0.04,0.046 0.056,0.073 C 0.834,-0.008 0.815,0.017 0.793,0.038 0.771,0.06 0.747,0.078 0.721,0.094 0.695,0.109 0.667,0.12 0.638,0.128 0.608,0.136 0.577,0.14 0.546,0.14 0.515,0.14 0.484,0.136 0.455,0.128 0.425,0.12 0.397,0.108 0.371,0.093 0.345,0.078 0.321,0.06 0.299,0.038 0.277,0.017 0.258,-0.008 0.242,-0.035 0.258,-0.062 0.277,-0.086 0.299,-0.108 0.321,-0.13 0.345,-0.148 0.371,-0.163 0.397,-0.178 0.425,-0.19 0.454,-0.198 0.484,-0.206 0.515,-0.21 0.546,-0.21 Z"
         style="fill:#f03a17;fill-rule:nonzero"
         id="path1176" /><path
         d="m 0.792,-0.632 c 0.014,0 0.028,0.003 0.041,0.008 0.013,0.006 0.024,0.013 0.033,0.023 0.01,0.009 0.017,0.021 0.023,0.033 0.005,0.013 0.008,0.027 0.008,0.042 0,0.013 -0.003,0.027 -0.008,0.04 -0.005,0.013 -0.013,0.024 -0.023,0.034 l -0.07,0.07 c -0.01,0.01 -0.021,0.017 -0.034,0.023 -0.013,0.005 -0.026,0.008 -0.04,0.008 -0.015,0 -0.029,-0.003 -0.041,-0.008 C 0.668,-0.365 0.657,-0.372 0.647,-0.382 0.638,-0.391 0.63,-0.402 0.625,-0.415 0.619,-0.428 0.616,-0.441 0.616,-0.456 0.616,-0.47 0.619,-0.484 0.624,-0.497 0.63,-0.51 0.637,-0.521 0.647,-0.531 l 0.07,-0.07 c 0.01,-0.01 0.021,-0.017 0.034,-0.023 0.013,-0.005 0.027,-0.008 0.041,-0.008 z m -0.457,0 c 0.014,0 0.028,0.003 0.041,0.008 0.013,0.006 0.024,0.013 0.034,0.023 l 0.07,0.07 c 0.01,0.011 0.018,0.022 0.023,0.034 0.006,0.013 0.008,0.026 0.008,0.041 0,0.014 -0.003,0.028 -0.008,0.041 C 0.497,-0.402 0.49,-0.391 0.48,-0.382 0.471,-0.372 0.459,-0.365 0.447,-0.359 0.434,-0.354 0.42,-0.351 0.406,-0.351 0.392,-0.351 0.378,-0.354 0.365,-0.359 0.352,-0.365 0.341,-0.372 0.331,-0.382 l -0.07,-0.07 C 0.251,-0.462 0.244,-0.473 0.239,-0.486 0.233,-0.499 0.23,-0.512 0.23,-0.526 c 0,-0.015 0.003,-0.029 0.009,-0.041 0.005,-0.013 0.013,-0.024 0.022,-0.034 0.01,-0.009 0.021,-0.017 0.033,-0.023 0.013,-0.005 0.027,-0.008 0.041,-0.008 z"
         style="fill:#ffffff;fill-rule:nonzero"
         id="path1178" /><path
         d="m 0.195,-0.281 h 0.702 v 0.071 c 0,0.03 -0.004,0.061 -0.012,0.09 C 0.877,-0.09 0.865,-0.062 0.85,-0.035 0.834,-0.062 0.815,-0.087 0.793,-0.109 0.772,-0.13 0.748,-0.149 0.721,-0.164 0.695,-0.179 0.667,-0.191 0.637,-0.198 0.608,-0.206 0.577,-0.21 0.546,-0.21 0.515,-0.21 0.484,-0.206 0.455,-0.198 0.425,-0.19 0.397,-0.178 0.371,-0.163 0.345,-0.148 0.321,-0.13 0.299,-0.108 0.277,-0.087 0.258,-0.062 0.243,-0.035 0.227,-0.062 0.215,-0.09 0.207,-0.12 0.199,-0.149 0.195,-0.18 0.195,-0.21 Z m 0.464,-0.28 c -0.012,0 -0.023,-0.004 -0.031,-0.012 -0.008,-0.009 -0.012,-0.019 -0.012,-0.031 0,-0.013 0.004,-0.023 0.012,-0.032 l 0.159,-0.158 c 0.008,-0.008 0.018,-0.013 0.03,-0.013 0.013,0 0.023,0.005 0.032,0.013 0.008,0.009 0.012,0.019 0.012,0.031 0,0.012 -0.004,0.023 -0.012,0.031 L 0.69,-0.574 c -0.008,0.009 -0.018,0.013 -0.031,0.013 z m -0.191,0 c -0.012,0 -0.023,-0.004 -0.031,-0.013 L 0.279,-0.732 C 0.27,-0.74 0.266,-0.751 0.266,-0.763 c 0,-0.012 0.004,-0.022 0.013,-0.031 0.008,-0.008 0.018,-0.013 0.031,-0.013 0.012,0 0.022,0.005 0.031,0.013 l 0.158,0.158 c 0.008,0.009 0.013,0.019 0.013,0.032 0,0.012 -0.005,0.022 -0.013,0.031 -0.008,0.008 -0.019,0.012 -0.031,0.012 z m 0.2,0.104 c 0,-0.007 0.001,-0.014 0.004,-0.02 0.003,-0.007 0.007,-0.012 0.012,-0.017 0.004,-0.005 0.01,-0.009 0.017,-0.012 0.006,-0.002 0.013,-0.004 0.021,-0.004 0.007,0 0.014,0.002 0.02,0.004 0.007,0.003 0.012,0.007 0.017,0.012 0.005,0.005 0.009,0.01 0.012,0.017 0.003,0.006 0.004,0.013 0.004,0.02 0,0.008 -0.001,0.015 -0.004,0.021 -0.003,0.007 -0.007,0.013 -0.012,0.018 -0.005,0.004 -0.01,0.008 -0.017,0.011 -0.006,0.003 -0.013,0.004 -0.02,0.004 -0.008,0 -0.015,-0.001 -0.021,-0.004 C 0.694,-0.41 0.688,-0.414 0.684,-0.418 0.679,-0.423 0.675,-0.429 0.672,-0.436 0.669,-0.442 0.668,-0.449 0.668,-0.457 Z m -0.315,0 c 0,-0.007 0.001,-0.014 0.004,-0.02 0.002,-0.007 0.006,-0.012 0.011,-0.017 0.005,-0.005 0.011,-0.009 0.017,-0.012 0.006,-0.002 0.013,-0.004 0.021,-0.004 0.007,0 0.014,0.002 0.02,0.004 0.007,0.003 0.012,0.007 0.017,0.012 0.005,0.005 0.009,0.01 0.012,0.017 0.003,0.006 0.004,0.013 0.004,0.02 0,0.008 -0.001,0.015 -0.004,0.021 -0.003,0.007 -0.007,0.013 -0.012,0.018 -0.005,0.004 -0.01,0.008 -0.017,0.011 -0.006,0.003 -0.013,0.004 -0.02,0.004 -0.008,0 -0.015,-0.001 -0.021,-0.004 C 0.379,-0.41 0.373,-0.414 0.368,-0.418 0.363,-0.423 0.359,-0.429 0.357,-0.436 0.354,-0.442 0.353,-0.449 0.353,-0.457 Z"
         style="fill-rule:nonzero"
         id="path1180" /><path
         d="m 0.511,-0.316 c 0,-0.015 0.003,-0.028 0.009,-0.041 0.005,-0.013 0.013,-0.024 0.022,-0.033 0.009,-0.01 0.02,-0.018 0.033,-0.023 0.013,-0.006 0.027,-0.008 0.041,-0.008 h 0.491 c 0.01,0 0.019,0.001 0.028,0.005 0.008,0.004 0.016,0.009 0.022,0.015 0.006,0.007 0.011,0.014 0.015,0.023 0.004,0.008 0.006,0.017 0.006,0.027 0,0.01 -0.002,0.019 -0.006,0.028 -0.004,0.008 -0.009,0.016 -0.015,0.022 -0.006,0.006 -0.014,0.011 -0.022,0.015 -0.009,0.003 -0.018,0.005 -0.028,0.005 H 0.511 Z"
         style="fill:#af0d1a;fill-rule:nonzero"
         id="path1182" /><path
         d="M 0.722,0.003 C 0.714,0.003 0.706,0 0.696,-0.008 0.686,-0.016 0.674,-0.024 0.66,-0.033 0.647,-0.043 0.63,-0.051 0.612,-0.059 0.593,-0.066 0.571,-0.07 0.546,-0.07 0.529,-0.07 0.514,-0.069 0.501,-0.066 0.488,-0.063 0.476,-0.059 0.465,-0.054 0.453,-0.049 0.442,-0.042 0.431,-0.034 0.42,-0.026 0.408,-0.017 0.396,-0.007 0.391,-0.003 0.387,-0.001 0.384,0.001 0.381,0.003 0.377,0.004 0.371,0.004 0.361,0.004 0.353,0 0.346,-0.007 0.339,-0.014 0.335,-0.022 0.335,-0.031 c 0,-0.006 0.001,-0.01 0.003,-0.014 0.002,-0.004 0.004,-0.007 0.008,-0.011 0.01,-0.013 0.023,-0.025 0.039,-0.035 0.017,-0.011 0.034,-0.02 0.052,-0.027 0.018,-0.007 0.037,-0.013 0.056,-0.017 0.019,-0.004 0.037,-0.006 0.053,-0.006 0.017,0 0.034,0.002 0.053,0.006 0.019,0.004 0.038,0.009 0.056,0.016 0.019,0.008 0.036,0.016 0.052,0.027 0.015,0.011 0.029,0.023 0.04,0.036 0.003,0.004 0.005,0.007 0.007,0.011 0.002,0.004 0.003,0.008 0.003,0.013 0,0.01 -0.004,0.018 -0.01,0.025 C 0.74,0 0.731,0.003 0.722,0.003 Z"
         style="fill:#ffc83d;fill-rule:nonzero"
         id="path1184" /></g></g></svg>
