<?xml version="1.0" encoding="UTF-8" standalone="no"?>
<svg
   width="16.844999"
   height="16.844999"
   viewBox="0 0 16.844999 16.844999"
   version="1.1"
   xml:space="preserve"
   style="clip-rule:evenodd;fill-rule:evenodd;stroke-linejoin:round;stroke-miterlimit:2"
   id="svg20568"
   sodipodi:docname="emojis.svg"
   xmlns:inkscape="http://www.inkscape.org/namespaces/inkscape"
   xmlns:sodipodi="http://sodipodi.sourceforge.net/DTD/sodipodi-0.dtd"
   xmlns="http://www.w3.org/2000/svg"
   xmlns:svg="http://www.w3.org/2000/svg"><defs
     id="defs20572" /><sodipodi:namedview
     id="namedview20570"
     pagecolor="#505050"
     bordercolor="#eeeeee"
     borderopacity="1"
     inkscape:pageshadow="0"
     inkscape:pageopacity="0"
     inkscape:pagecheckerboard="0" /><g
     transform="matrix(0.24,0,0,0.24,-737.835,-585.5658)"
     id="g20566"><g
       transform="matrix(62.5,0,0,62.5,3066.5,2496.92)"
       id="g11878"><path
         d="m 1.248,-0.807 c 0,0.01 -10e-4,0.02 -0.004,0.029 -0.002,0.008 -0.007,0.017 -0.012,0.026 l -0.22,0.369 c 0.02,0.031 0.035,0.064 0.045,0.099 0.011,0.035 0.016,0.071 0.016,0.108 0,0.036 -0.005,0.07 -0.014,0.103 C 1.05,-0.04 1.037,-0.01 1.02,0.019 1.003,0.048 0.983,0.074 0.959,0.097 0.936,0.121 0.91,0.141 0.881,0.157 0.853,0.174 0.822,0.187 0.789,0.197 0.756,0.206 0.722,0.21 0.687,0.21 0.651,0.21 0.617,0.206 0.584,0.197 0.551,0.187 0.52,0.174 0.492,0.157 0.463,0.141 0.437,0.121 0.414,0.097 0.39,0.074 0.37,0.048 0.353,0.019 0.337,-0.01 0.323,-0.04 0.314,-0.073 0.305,-0.106 0.3,-0.14 0.3,-0.176 c 0,-0.037 0.006,-0.073 0.016,-0.108 0.01,-0.035 0.025,-0.068 0.045,-0.099 l -0.22,-0.37 C 0.135,-0.762 0.132,-0.77 0.129,-0.779 0.126,-0.788 0.125,-0.797 0.125,-0.807 c 0,-0.015 0.003,-0.028 0.008,-0.041 0.006,-0.013 0.013,-0.024 0.023,-0.034 0.01,-0.009 0.021,-0.017 0.033,-0.022 0.013,-0.006 0.027,-0.009 0.041,-0.009 h 0.913 c 0.014,0 0.028,0.003 0.041,0.009 0.012,0.005 0.023,0.013 0.033,0.022 0.01,0.01 0.017,0.021 0.023,0.034 0.005,0.013 0.008,0.026 0.008,0.041 z"
         style="fill-rule:nonzero"
         id="path11866" /><path
         d="M 0.854,-0.702 H 0.52 L 0.43,-0.799 0.455,-0.842 h 0.463 l 0.018,0.059 z"
         style="fill:#107c10;fill-rule:nonzero"
         id="path11868" /><path
         d="m 0.68,-0.461 c -0.021,0.001 -0.042,0.004 -0.063,0.009 -0.02,0.006 -0.04,0.014 -0.058,0.024 -0.019,0.009 -0.036,0.021 -0.051,0.035 -0.016,0.014 -0.03,0.03 -0.042,0.048 L 0.201,-0.789 C 0.197,-0.795 0.195,-0.801 0.195,-0.807 c 0,-0.01 0.004,-0.018 0.011,-0.025 0.006,-0.007 0.015,-0.01 0.024,-0.01 h 0.05 c 0.005,0.004 0.011,0.008 0.018,0.009 0.007,0.002 0.014,0.003 0.021,0.003 0.005,0 0.011,0 0.017,-0.002 0.006,-0.002 0.011,-0.005 0.014,-0.01 h 0.105 z m 0.463,-0.381 c 0.009,0 0.018,0.003 0.024,0.01 0.007,0.007 0.011,0.015 0.011,0.025 0,0.003 -10e-4,0.007 -0.002,0.009 -10e-4,0.003 -0.002,0.006 -0.004,0.009 L 0.908,-0.347 C 0.896,-0.364 0.882,-0.38 0.866,-0.394 0.85,-0.408 0.833,-0.419 0.814,-0.429 0.796,-0.439 0.776,-0.447 0.756,-0.452 0.736,-0.457 0.715,-0.46 0.693,-0.461 l 0.225,-0.381 h 0.105 c 0,0.003 0.001,0.005 0.003,0.007 0.003,0.002 0.005,0.004 0.008,0.005 0.003,0.001 0.006,0.002 0.009,0.002 0.003,0.001 0.006,0.001 0.008,0.001 0.008,0 0.015,-0.001 0.023,-0.003 0.008,-0.002 0.014,-0.006 0.019,-0.012 z"
         style="fill:#16c60c;fill-rule:nonzero"
         id="path11870" /><path
         d="m 0.58,-0.451 c -0.009,0.003 -0.019,0.008 -0.028,0.013 -0.008,0.004 -0.017,0.01 -0.026,0.015 L 0.28,-0.842 h 0.07 z m 0.268,0.026 C 0.839,-0.43 0.83,-0.435 0.822,-0.44 0.813,-0.444 0.803,-0.448 0.794,-0.453 l 0.229,-0.389 h 0.07 z"
         style="fill:#ffffff;fill-rule:nonzero"
         id="path11872" /><path
         d="m 1.002,-0.176 c 0,0.029 -0.003,0.057 -0.011,0.084 C 0.984,-0.065 0.973,-0.04 0.959,-0.016 0.945,0.007 0.929,0.028 0.91,0.047 0.89,0.067 0.869,0.083 0.846,0.097 0.823,0.111 0.798,0.121 0.771,0.129 0.743,0.136 0.715,0.14 0.687,0.14 0.658,0.14 0.63,0.136 0.603,0.129 0.576,0.121 0.55,0.111 0.527,0.097 0.504,0.083 0.483,0.067 0.463,0.047 0.444,0.028 0.428,0.007 0.414,-0.016 0.4,-0.04 0.389,-0.065 0.382,-0.092 0.374,-0.119 0.371,-0.147 0.371,-0.176 c 0,-0.043 0.008,-0.084 0.025,-0.123 0.016,-0.038 0.039,-0.071 0.067,-0.1 0.029,-0.029 0.062,-0.051 0.1,-0.068 0.039,-0.016 0.08,-0.024 0.124,-0.024 0.043,0 0.084,0.008 0.123,0.024 0.038,0.017 0.071,0.039 0.1,0.068 0.028,0.029 0.051,0.062 0.068,0.1 0.016,0.039 0.024,0.08 0.024,0.123 z"
         style="fill:#f7894a;fill-rule:nonzero"
         id="path11874" /><path
         d="m 0.687,-0.386 c 0.028,0 0.056,0.005 0.081,0.016 0.026,0.011 0.048,0.026 0.067,0.046 0.019,0.019 0.034,0.041 0.045,0.066 0.011,0.026 0.017,0.053 0.017,0.082 0,0.03 -0.005,0.057 -0.016,0.082 C 0.87,-0.068 0.855,-0.046 0.836,-0.027 0.817,-0.008 0.794,0.007 0.769,0.019 0.743,0.03 0.716,0.035 0.687,0.035 0.657,0.035 0.63,0.03 0.604,0.019 0.579,0.007 0.556,-0.008 0.537,-0.027 0.518,-0.046 0.503,-0.068 0.492,-0.094 0.482,-0.119 0.476,-0.146 0.476,-0.176 c 0,-0.029 0.006,-0.056 0.017,-0.082 0.011,-0.025 0.026,-0.047 0.045,-0.066 0.019,-0.02 0.041,-0.035 0.067,-0.046 0.025,-0.011 0.053,-0.016 0.082,-0.016 z M 0.792,-0.07 V -0.281 L 0.757,-0.316 H 0.616 l -0.035,0.035 v 0.035 H 0.722 V -0.21 H 0.651 l -0.035,0.034 0.035,0.035 h 0.071 v 0.036 H 0.581 v 0.035 l 0.035,0.035 h 0.141 z"
         style="fill:#ca5010;fill-rule:nonzero"
         id="path11876" /></g></g></svg>
