<?xml version="1.0" encoding="UTF-8" standalone="no"?>
<svg
   width="16.844999"
   height="16.844999"
   viewBox="0 0 16.844999 16.844999"
   version="1.1"
   xml:space="preserve"
   style="clip-rule:evenodd;fill-rule:evenodd;stroke-linejoin:round;stroke-miterlimit:2"
   id="svg20568"
   sodipodi:docname="emojis.svg"
   xmlns:inkscape="http://www.inkscape.org/namespaces/inkscape"
   xmlns:sodipodi="http://sodipodi.sourceforge.net/DTD/sodipodi-0.dtd"
   xmlns="http://www.w3.org/2000/svg"
   xmlns:svg="http://www.w3.org/2000/svg"><defs
     id="defs20572" /><sodipodi:namedview
     id="namedview20570"
     pagecolor="#505050"
     bordercolor="#eeeeee"
     borderopacity="1"
     inkscape:pageshadow="0"
     inkscape:pageopacity="0"
     inkscape:pagecheckerboard="0" /><g
     transform="matrix(0.24,0,0,0.24,-198.57492,-76.77852)"
     id="g20566"><g
       transform="matrix(62.5,0,0,62.5,819.583,376.973)"
       id="g118"><path
         d="m 0.125,-0.351 c 0,-0.052 0.007,-0.102 0.02,-0.149 0.013,-0.048 0.032,-0.093 0.057,-0.135 0.024,-0.041 0.053,-0.079 0.088,-0.113 0.034,-0.034 0.072,-0.064 0.113,-0.088 0.042,-0.024 0.086,-0.043 0.134,-0.057 0.048,-0.013 0.098,-0.02 0.15,-0.02 0.051,0 0.101,0.007 0.149,0.02 0.048,0.014 0.092,0.033 0.134,0.057 0.041,0.024 0.079,0.054 0.113,0.088 0.035,0.034 0.064,0.072 0.088,0.113 0.025,0.042 0.044,0.087 0.057,0.135 0.013,0.047 0.02,0.097 0.02,0.149 0,0.052 -0.007,0.101 -0.02,0.149 C 1.215,-0.154 1.196,-0.109 1.171,-0.068 1.147,-0.026 1.118,0.012 1.083,0.046 1.049,0.08 1.011,0.109 0.97,0.134 0.928,0.158 0.884,0.177 0.836,0.19 0.788,0.204 0.738,0.21 0.687,0.21 0.635,0.21 0.585,0.204 0.537,0.19 0.489,0.177 0.445,0.158 0.403,0.134 0.362,0.109 0.324,0.08 0.29,0.046 0.255,0.012 0.226,-0.026 0.202,-0.068 0.177,-0.109 0.158,-0.154 0.145,-0.202 0.132,-0.25 0.125,-0.299 0.125,-0.351 Z"
         style="fill-rule:nonzero"
         id="path112" /><path
         d="m 0.195,-0.351 c 0,-0.045 0.006,-0.089 0.018,-0.131 0.012,-0.042 0.028,-0.081 0.049,-0.117 0.022,-0.037 0.047,-0.07 0.077,-0.099 0.03,-0.03 0.063,-0.056 0.099,-0.077 0.037,-0.021 0.076,-0.038 0.118,-0.05 0.042,-0.011 0.085,-0.017 0.131,-0.017 0.045,0 0.088,0.006 0.13,0.017 0.042,0.012 0.081,0.029 0.118,0.05 0.036,0.021 0.069,0.047 0.099,0.077 0.03,0.029 0.055,0.062 0.077,0.099 0.021,0.036 0.037,0.075 0.049,0.117 0.012,0.042 0.018,0.086 0.018,0.131 0,0.045 -0.006,0.089 -0.018,0.131 -0.012,0.041 -0.028,0.081 -0.049,0.117 -0.022,0.036 -0.047,0.07 -0.077,0.099 C 1.004,0.026 0.971,0.052 0.935,0.073 0.898,0.094 0.859,0.111 0.817,0.123 0.775,0.134 0.732,0.14 0.687,0.14 0.641,0.14 0.598,0.134 0.556,0.123 0.514,0.111 0.475,0.094 0.438,0.073 0.402,0.052 0.369,0.026 0.339,-0.004 0.309,-0.033 0.284,-0.067 0.262,-0.103 0.241,-0.139 0.225,-0.179 0.213,-0.22 0.201,-0.262 0.195,-0.306 0.195,-0.351 Z"
         style="fill:#ffc83d;fill-rule:nonzero"
         id="path114" /><path
         d="m 0.879,-0.316 c 0.008,0 0.014,0.001 0.021,0.004 0.006,0.003 0.012,0.007 0.017,0.011 0.004,0.005 0.008,0.011 0.011,0.017 0.003,0.007 0.004,0.014 0.004,0.021 v 0.07 c 0,0.007 -0.001,0.014 -0.004,0.02 -0.003,0.007 -0.007,0.012 -0.011,0.017 -0.005,0.005 -0.011,0.008 -0.017,0.011 -0.007,0.003 -0.013,0.004 -0.021,0.004 -0.007,0 -0.014,-0.001 -0.02,-0.004 C 0.853,-0.148 0.847,-0.151 0.842,-0.156 0.837,-0.161 0.834,-0.167 0.831,-0.173 0.828,-0.179 0.827,-0.186 0.827,-0.193 v -0.07 c 0,-0.007 0.001,-0.014 0.004,-0.02 C 0.834,-0.29 0.837,-0.295 0.842,-0.3 0.847,-0.305 0.853,-0.309 0.859,-0.312 0.865,-0.315 0.872,-0.316 0.879,-0.316 Z M 0.494,-0.141 C 0.486,-0.141 0.479,-0.142 0.473,-0.145 0.467,-0.148 0.461,-0.151 0.456,-0.156 0.452,-0.161 0.448,-0.166 0.445,-0.173 0.442,-0.179 0.441,-0.186 0.441,-0.193 v -0.07 c 0,-0.007 0.001,-0.014 0.004,-0.021 0.003,-0.006 0.007,-0.012 0.011,-0.017 0.005,-0.004 0.011,-0.008 0.017,-0.011 0.006,-0.003 0.013,-0.004 0.021,-0.004 0.007,0 0.014,0.001 0.02,0.004 0.007,0.003 0.012,0.007 0.017,0.012 0.004,0.005 0.008,0.01 0.011,0.017 0.003,0.006 0.004,0.013 0.004,0.02 v 0.07 c 0,0.007 -0.001,0.014 -0.004,0.02 -0.003,0.006 -0.007,0.012 -0.011,0.017 -0.005,0.005 -0.01,0.008 -0.017,0.011 -0.006,0.003 -0.013,0.004 -0.02,0.004 z m 0.193,-0.421 c -0.028,0 -0.055,0.004 -0.082,0.011 -0.026,0.007 -0.051,0.017 -0.075,0.031 -0.004,0.002 -0.008,0.005 -0.013,0.008 -0.004,0.004 -0.009,0.007 -0.014,0.01 -0.005,0.003 -0.009,0.005 -0.014,0.008 -0.005,0.002 -0.009,0.003 -0.013,0.003 -0.01,0 -0.018,-0.004 -0.025,-0.011 -0.007,-0.007 -0.01,-0.015 -0.01,-0.024 0,-0.011 0.005,-0.021 0.014,-0.029 0.015,-0.012 0.031,-0.024 0.05,-0.033 0.019,-0.01 0.038,-0.018 0.059,-0.024 0.02,-0.007 0.041,-0.012 0.062,-0.015 0.021,-0.003 0.041,-0.005 0.061,-0.005 0.019,0 0.039,0.002 0.06,0.005 0.021,0.003 0.042,0.008 0.062,0.015 0.021,0.006 0.04,0.014 0.059,0.024 0.019,0.009 0.035,0.021 0.05,0.033 0.009,0.008 0.014,0.018 0.014,0.029 0,0.009 -0.003,0.017 -0.01,0.024 -0.007,0.007 -0.016,0.01 -0.025,0.01 -0.004,0 -0.009,-0.001 -0.013,-0.003 C 0.879,-0.497 0.874,-0.5 0.869,-0.502 L 0.843,-0.52 C 0.794,-0.548 0.742,-0.562 0.687,-0.562 Z"
         style="fill-rule:nonzero"
         id="path116" /></g></g></svg>
