<?xml version="1.0" encoding="UTF-8" standalone="no"?>
<svg
   width="17.504999"
   height="17.370001"
   viewBox="0 0 17.504999 17.370001"
   version="1.1"
   xml:space="preserve"
   style="clip-rule:evenodd;fill-rule:evenodd;stroke-linejoin:round;stroke-miterlimit:2"
   id="svg20568"
   sodipodi:docname="emojis.svg"
   xmlns:inkscape="http://www.inkscape.org/namespaces/inkscape"
   xmlns:sodipodi="http://sodipodi.sourceforge.net/DTD/sodipodi-0.dtd"
   xmlns="http://www.w3.org/2000/svg"
   xmlns:svg="http://www.w3.org/2000/svg"><defs
     id="defs20572" /><sodipodi:namedview
     id="namedview20570"
     pagecolor="#505050"
     bordercolor="#eeeeee"
     borderopacity="1"
     inkscape:pageshadow="0"
     inkscape:pageopacity="0"
     inkscape:pagecheckerboard="0" /><g
     transform="matrix(0.24,0,0,0.24,-54.405,-641.5008)"
     id="g20566"><g
       transform="matrix(62.5,0,0,62.5,218.875,2732.17)"
       id="g11986"><path
         d="M 1.292,0.21 H 0.125 L 0.414,-0.367 C 0.402,-0.375 0.394,-0.386 0.388,-0.398 0.382,-0.411 0.379,-0.424 0.379,-0.438 c 0,-0.007 0.001,-0.014 0.002,-0.021 0.002,-0.007 0.004,-0.013 0.008,-0.02 -0.008,-0.014 -0.012,-0.03 -0.012,-0.047 0,-0.012 0.002,-0.023 0.005,-0.034 C 0.385,-0.57 0.39,-0.58 0.397,-0.589 0.391,-0.601 0.386,-0.614 0.383,-0.627 0.38,-0.64 0.379,-0.653 0.379,-0.667 c 0,-0.019 0.003,-0.036 0.008,-0.053 0.006,-0.018 0.014,-0.033 0.024,-0.048 0.01,-0.014 0.022,-0.027 0.036,-0.038 0.015,-0.011 0.03,-0.02 0.048,-0.026 0.006,-0.017 0.014,-0.033 0.026,-0.047 0.011,-0.015 0.023,-0.027 0.038,-0.037 0.014,-0.01 0.03,-0.018 0.047,-0.023 0.017,-0.006 0.035,-0.009 0.054,-0.009 0.018,0 0.036,0.003 0.053,0.009 0.017,0.005 0.033,0.013 0.047,0.023 0.015,0.01 0.028,0.022 0.039,0.037 0.011,0.014 0.02,0.03 0.026,0.047 0.017,0.006 0.033,0.015 0.047,0.026 0.014,0.011 0.027,0.024 0.037,0.038 0.01,0.015 0.018,0.03 0.023,0.048 0.006,0.017 0.008,0.034 0.008,0.053 0,0.02 -0.003,0.039 -0.009,0.058 -0.007,0.019 -0.016,0.036 -0.029,0.051 0.001,0.003 0.001,0.005 0.001,0.007 0,0.002 0,0.004 0,0.006 0,0.017 -0.004,0.033 -0.011,0.047 -0.008,0.014 -0.02,0.025 -0.036,0.033 l 0.043,0.086 c 0.011,-0.004 0.022,-0.006 0.034,-0.006 0.019,0 0.036,0.005 0.051,0.014 0.016,0.01 0.028,0.023 0.037,0.039 z"
         style="fill-rule:nonzero"
         id="path11976" /><path
         d="m 0.239,0.14 0.174,-0.348 h 0.024 l 0.061,-0.146 h 0.14 L 0.55,0.061 0.449,0.14 Z m 0.694,-0.455 c 0.011,0 0.019,0.005 0.025,0.015 l 0.22,0.44 H 1.081 L 0.987,0.103 0.865,-0.171 0.923,-0.313 c 0.002,-0.002 0.006,-0.002 0.01,-0.002 z"
         style="fill:#ca5010;fill-rule:nonzero"
         id="path11978" /><path
         d="M 0.9,-0.222 1.081,0.14 H 0.8 C 0.796,0.136 0.79,0.132 0.784,0.129 0.778,0.126 0.771,0.124 0.764,0.124 0.758,0.124 0.751,0.125 0.745,0.128 0.739,0.131 0.734,0.135 0.73,0.14 H 0.449 l 0.117,-0.468 h 0.197 l 0.121,0.074 C 0.886,-0.258 0.888,-0.264 0.891,-0.27 0.893,-0.276 0.896,-0.282 0.899,-0.288 0.902,-0.293 0.906,-0.299 0.91,-0.303 0.914,-0.308 0.918,-0.312 0.923,-0.313 0.919,-0.298 0.915,-0.283 0.911,-0.268 0.907,-0.253 0.903,-0.237 0.9,-0.222 Z"
         style="fill:#f7630c;fill-rule:nonzero"
         id="path11980" /><path
         d="m 0.765,-0.772 c 0.015,0 0.028,0.003 0.041,0.008 0.013,0.006 0.024,0.013 0.033,0.023 0.01,0.009 0.017,0.02 0.023,0.033 0.005,0.013 0.008,0.026 0.008,0.041 0,0.015 -0.003,0.028 -0.008,0.041 -0.006,0.013 -0.013,0.024 -0.023,0.033 -0.009,0.01 -0.02,0.018 -0.033,0.023 -0.013,0.006 -0.026,0.008 -0.041,0.008 -0.01,0 -0.018,0.004 -0.025,0.011 -0.007,0.007 -0.01,0.015 -0.01,0.025 0,0.009 0.003,0.017 0.01,0.024 0.007,0.007 0.016,0.011 0.025,0.011 -0.004,0.009 -0.011,0.016 -0.019,0.022 -0.008,0.006 -0.018,0.011 -0.027,0.015 -0.01,0.003 -0.021,0.006 -0.031,0.008 -0.01,0.002 -0.02,0.003 -0.029,0.003 C 0.65,-0.443 0.64,-0.444 0.63,-0.446 0.619,-0.448 0.609,-0.451 0.599,-0.454 0.589,-0.458 0.58,-0.463 0.573,-0.469 0.565,-0.475 0.558,-0.482 0.554,-0.491 c 0.01,0 0.018,-0.004 0.025,-0.011 0.007,-0.007 0.01,-0.015 0.01,-0.024 0,-0.01 -0.003,-0.018 -0.01,-0.025 C 0.572,-0.558 0.564,-0.562 0.554,-0.562 0.54,-0.562 0.526,-0.564 0.513,-0.57 0.5,-0.575 0.489,-0.583 0.48,-0.593 0.471,-0.602 0.463,-0.613 0.458,-0.626 0.452,-0.639 0.449,-0.652 0.449,-0.667 c 0,-0.015 0.003,-0.028 0.009,-0.041 0.005,-0.013 0.013,-0.024 0.022,-0.033 0.009,-0.01 0.02,-0.017 0.033,-0.023 0.013,-0.005 0.027,-0.008 0.041,-0.008 0,-0.015 0.003,-0.028 0.009,-0.041 0.005,-0.013 0.013,-0.024 0.022,-0.033 0.01,-0.01 0.021,-0.018 0.034,-0.023 0.012,-0.006 0.026,-0.008 0.041,-0.008 0.014,0 0.028,0.002 0.041,0.008 0.012,0.005 0.024,0.013 0.033,0.023 0.01,0.009 0.017,0.02 0.023,0.033 0.005,0.013 0.008,0.026 0.008,0.041 z"
         style="fill:#f2f2f2;fill-rule:nonzero"
         id="path11982" /><path
         d="m 0.765,-0.491 0.14,0.281 V 0 c 0,0.009 -0.003,0.018 -0.01,0.025 C 0.888,0.032 0.88,0.035 0.87,0.035 0.861,0.035 0.852,0.032 0.845,0.025 0.838,0.018 0.835,0.009 0.835,0 V -0.158 C 0.835,-0.163 0.833,-0.167 0.83,-0.17 0.826,-0.174 0.822,-0.176 0.817,-0.176 0.813,-0.176 0.809,-0.174 0.805,-0.17 0.802,-0.167 0.8,-0.163 0.8,-0.158 V 0.14 H 0.73 v -0.438 c 0,-0.005 -0.002,-0.009 -0.005,-0.013 -0.004,-0.003 -0.008,-0.005 -0.013,-0.005 -0.004,0 -0.009,0.002 -0.012,0.005 -0.003,0.004 -0.005,0.008 -0.005,0.013 v 0.228 c 0,0.009 -0.004,0.018 -0.01,0.025 -0.007,0.006 -0.016,0.01 -0.025,0.01 -0.01,0 -0.018,-0.004 -0.025,-0.01 -0.007,-0.007 -0.01,-0.016 -0.01,-0.025 v -0.158 c 0,-0.005 -0.002,-0.009 -0.006,-0.012 -0.003,-0.004 -0.007,-0.006 -0.012,-0.006 -0.005,0 -0.008,0.002 -0.011,0.004 -0.002,0.002 -0.004,0.005 -0.005,0.008 -0.002,0.004 -0.002,0.008 -0.003,0.012 0,0.004 0,0.007 0,0.011 0,0.009 0,0.018 0.001,0.026 0.001,0.009 0.001,0.018 0.001,0.027 0,0.007 0,0.013 -0.001,0.019 C 0.588,-0.132 0.587,-0.127 0.584,-0.122 0.582,-0.117 0.578,-0.113 0.573,-0.11 0.568,-0.107 0.562,-0.105 0.554,-0.105 0.545,-0.105 0.537,-0.109 0.53,-0.116 0.523,-0.123 0.52,-0.131 0.52,-0.141 v -0.147 c 0,-0.003 -0.001,-0.007 -0.001,-0.01 0,-0.003 -0.001,-0.006 -0.002,-0.009 C 0.516,-0.309 0.514,-0.311 0.511,-0.313 0.509,-0.315 0.506,-0.316 0.502,-0.316 c -0.005,0 -0.008,0.001 -0.011,0.004 -0.002,0.002 -0.004,0.005 -0.005,0.008 -0.002,0.003 -0.002,0.007 -0.003,0.011 0,0.004 0,0.008 0,0.011 0,0.009 0,0.018 0.001,0.027 0.001,0.009 0.001,0.018 0.001,0.027 0,0.006 0,0.013 -0.001,0.019 -0.001,0.006 -0.002,0.012 -0.005,0.017 -0.002,0.004 -0.006,0.008 -0.011,0.012 -0.005,0.003 -0.011,0.004 -0.019,0.004 -0.009,0 -0.017,-0.003 -0.024,-0.01 C 0.418,-0.193 0.414,-0.201 0.414,-0.21 l 0.14,-0.281 h 0.035 c 0,-0.01 0.004,-0.018 0.011,-0.025 0.006,-0.007 0.015,-0.01 0.025,-0.01 0.009,0 0.018,0.003 0.024,0.01 0.007,0.007 0.011,0.015 0.011,0.025 h 0.035 c 0,-0.005 0.002,-0.009 0.005,-0.013 0.003,-0.003 0.008,-0.005 0.012,-0.005 0.005,0 0.009,0.002 0.013,0.005 0.003,0.004 0.005,0.008 0.005,0.013 z m -0.281,0 c -0.009,0 -0.017,-0.004 -0.024,-0.011 -0.007,-0.007 -0.011,-0.015 -0.011,-0.024 0,-0.01 0.004,-0.018 0.01,-0.025 0.007,-0.007 0.016,-0.011 0.025,-0.011 0.01,0 0.018,0.004 0.025,0.011 0.007,0.007 0.011,0.015 0.011,0.025 v 0.035 z m -0.017,0.07 c -0.005,0 -0.009,-0.002 -0.013,-0.006 -0.003,-0.003 -0.005,-0.007 -0.005,-0.012 0,-0.005 0.002,-0.009 0.006,-0.012 0.003,-0.004 0.007,-0.006 0.012,-0.006 h 0.017 v 0.018 c 0,0.005 -0.001,0.009 -0.005,0.012 -0.003,0.004 -0.007,0.006 -0.012,0.006 z m 0.368,-0.123 c 0,0.005 -0.002,0.009 -0.005,0.013 -0.004,0.003 -0.008,0.005 -0.013,0.005 H 0.8 v -0.018 c 0,-0.005 0.002,-0.009 0.005,-0.012 0.004,-0.004 0.008,-0.006 0.012,-0.006 0.005,0 0.009,0.002 0.013,0.006 0.003,0.003 0.005,0.007 0.005,0.012 z"
         style="fill:#e81224;fill-rule:nonzero"
         id="path11984" /></g></g></svg>
