<?xml version="1.0" encoding="UTF-8" standalone="no"?>
<svg
   width="16.83"
   height="16.844999"
   viewBox="0 0 16.83 16.844999"
   version="1.1"
   xml:space="preserve"
   style="clip-rule:evenodd;fill-rule:evenodd;stroke-linejoin:round;stroke-miterlimit:2"
   id="svg20568"
   sodipodi:docname="emojis.svg"
   xmlns:inkscape="http://www.inkscape.org/namespaces/inkscape"
   xmlns:sodipodi="http://sodipodi.sourceforge.net/DTD/sodipodi-0.dtd"
   xmlns="http://www.w3.org/2000/svg"
   xmlns:svg="http://www.w3.org/2000/svg"><defs
     id="defs20572" /><sodipodi:namedview
     id="namedview20570"
     pagecolor="#505050"
     bordercolor="#eeeeee"
     borderopacity="1"
     inkscape:pageshadow="0"
     inkscape:pageopacity="0"
     inkscape:pagecheckerboard="0" /><g
     transform="matrix(0.24,0,0,0.24,-588.8454,-110.71908)"
     id="g20566"><g
       transform="matrix(62.5,0,0,62.5,2445.71,518.392)"
       id="g1196"><path
         d="M 0.581,0.21 C 0.535,0.21 0.49,0.204 0.447,0.192 0.403,0.18 0.362,0.163 0.323,0.14 0.285,0.117 0.25,0.09 0.219,0.057 0.188,0.024 0.162,-0.013 0.141,-0.054 0.137,-0.063 0.133,-0.073 0.13,-0.082 0.127,-0.091 0.125,-0.101 0.125,-0.112 c 0,-0.011 0.002,-0.021 0.006,-0.032 0.004,-0.01 0.01,-0.018 0.017,-0.026 0.007,-0.007 0.016,-0.013 0.025,-0.017 0.01,-0.005 0.021,-0.007 0.032,-0.007 0.006,0 0.012,0.001 0.018,0.002 0.006,0.001 0.012,0.003 0.017,0.006 C 0.236,-0.195 0.233,-0.205 0.231,-0.214 0.23,-0.224 0.229,-0.234 0.229,-0.244 v -0.037 c 0,-0.027 0.005,-0.053 0.013,-0.078 0.009,-0.025 0.021,-0.048 0.036,-0.068 0.016,-0.021 0.034,-0.039 0.055,-0.054 0.022,-0.016 0.046,-0.027 0.072,-0.035 v -0.008 c 0,-0.021 0,-0.04 0.001,-0.058 0,-0.018 0.002,-0.036 0.005,-0.053 C 0.415,-0.652 0.42,-0.669 0.427,-0.686 0.434,-0.702 0.444,-0.719 0.458,-0.736 0.451,-0.743 0.444,-0.749 0.438,-0.755 0.431,-0.761 0.426,-0.768 0.421,-0.775 0.416,-0.782 0.412,-0.79 0.409,-0.798 0.406,-0.806 0.405,-0.815 0.405,-0.825 c 0,-0.012 0.002,-0.023 0.007,-0.034 0.004,-0.011 0.01,-0.02 0.018,-0.028 0.008,-0.008 0.018,-0.014 0.028,-0.019 0.011,-0.004 0.022,-0.007 0.035,-0.007 h 0.193 c 0.035,0 0.069,0.005 0.102,0.014 0.033,0.01 0.064,0.023 0.092,0.039 0.029,0.017 0.055,0.037 0.078,0.061 0.024,0.023 0.044,0.049 0.061,0.078 0.017,0.028 0.03,0.059 0.039,0.092 0.009,0.033 0.014,0.067 0.014,0.103 v 0.01 c 0.026,0.008 0.05,0.019 0.071,0.035 0.022,0.015 0.04,0.033 0.055,0.054 0.016,0.02 0.028,0.043 0.036,0.068 0.009,0.025 0.013,0.051 0.013,0.078 v 0.053 c 0,0.012 -0.002,0.023 -0.007,0.034 -0.004,0.01 -0.011,0.02 -0.019,0.028 -0.008,0.008 -0.017,0.014 -0.027,0.019 -0.011,0.004 -0.022,0.006 -0.034,0.006 -0.011,0 -0.021,-0.001 -0.03,-0.005 C 1.12,-0.149 1.112,-0.154 1.104,-0.16 1.097,-0.166 1.09,-0.174 1.085,-0.182 1.079,-0.191 1.076,-0.2 1.074,-0.21 H 1.072 C 1.07,-0.21 1.068,-0.207 1.065,-0.201 1.063,-0.195 1.061,-0.187 1.059,-0.179 1.057,-0.171 1.055,-0.164 1.054,-0.156 1.052,-0.148 1.051,-0.143 1.051,-0.141 1.047,-0.124 1.042,-0.108 1.035,-0.092 1.028,-0.076 1.02,-0.061 1.012,-0.046 0.989,-0.006 0.963,0.029 0.932,0.061 0.902,0.093 0.868,0.119 0.832,0.142 0.795,0.164 0.755,0.181 0.713,0.193 0.671,0.205 0.626,0.21 0.581,0.21 Z"
         style="fill-rule:nonzero"
         id="path1188" /><path
         d="m 1.001,-0.457 c 0.025,0 0.048,0.005 0.069,0.014 0.021,0.01 0.04,0.022 0.056,0.038 0.016,0.016 0.028,0.034 0.037,0.056 0.01,0.021 0.014,0.044 0.014,0.068 v 0.053 c 0,0.005 -0.002,0.009 -0.005,0.012 C 1.168,-0.212 1.164,-0.21 1.16,-0.21 1.155,-0.21 1.152,-0.211 1.15,-0.213 1.147,-0.215 1.145,-0.217 1.144,-0.22 1.143,-0.223 1.142,-0.226 1.142,-0.23 V -0.246 C 1.142,-0.253 1.141,-0.26 1.137,-0.264 1.134,-0.269 1.13,-0.273 1.125,-0.275 1.121,-0.278 1.115,-0.279 1.109,-0.28 c -0.006,0 -0.012,-0.001 -0.019,-0.001 -0.014,0 -0.026,0.001 -0.036,0.003 -0.011,0.002 -0.02,0.006 -0.027,0.011 -0.008,0.005 -0.014,0.012 -0.019,0.021 -0.005,0.01 -0.01,0.021 -0.013,0.036 C 0.991,-0.191 0.986,-0.172 0.98,-0.154 0.975,-0.136 0.968,-0.118 0.959,-0.1 0.942,-0.062 0.92,-0.029 0.893,0 0.867,0.03 0.838,0.055 0.805,0.076 0.773,0.097 0.737,0.112 0.699,0.124 0.662,0.135 0.622,0.14 0.581,0.14 0.54,0.14 0.501,0.135 0.464,0.125 0.427,0.115 0.393,0.1 0.36,0.08 0.328,0.061 0.299,0.037 0.272,0.009 0.245,-0.019 0.222,-0.05 0.204,-0.086 0.201,-0.09 0.199,-0.094 0.198,-0.099 0.196,-0.103 0.195,-0.107 0.195,-0.112 c 0,-0.003 0.001,-0.006 0.003,-0.008 0.001,-0.002 0.004,-0.004 0.008,-0.004 0.003,0 0.007,0.003 0.012,0.007 0.004,0.004 0.009,0.01 0.014,0.016 0.006,0.007 0.012,0.014 0.019,0.022 0.008,0.007 0.016,0.014 0.026,0.021 0.009,0.006 0.02,0.012 0.033,0.016 0.012,0.005 0.027,0.007 0.043,0.007 0.021,0 0.042,-0.004 0.061,-0.013 0.019,-0.008 0.036,-0.019 0.05,-0.034 0.014,-0.014 0.026,-0.031 0.034,-0.05 0.008,-0.019 0.012,-0.04 0.012,-0.061 V -0.21 C 0.51,-0.22 0.508,-0.229 0.505,-0.238 0.501,-0.246 0.496,-0.254 0.49,-0.26 0.484,-0.266 0.476,-0.271 0.468,-0.275 0.459,-0.279 0.45,-0.281 0.44,-0.281 H 0.37 c -0.009,0 -0.016,0.002 -0.021,0.005 -0.004,0.004 -0.007,0.008 -0.009,0.013 -0.002,0.006 -0.003,0.011 -0.004,0.017 0,0.007 -0.001,0.012 -0.002,0.017 C 0.333,-0.223 0.332,-0.219 0.33,-0.216 0.327,-0.212 0.323,-0.21 0.317,-0.21 0.313,-0.21 0.309,-0.212 0.305,-0.216 0.302,-0.219 0.3,-0.223 0.3,-0.228 v -0.053 c 0,-0.024 0.004,-0.047 0.014,-0.068 0.009,-0.021 0.022,-0.04 0.037,-0.056 0.016,-0.016 0.035,-0.028 0.056,-0.038 0.021,-0.009 0.044,-0.014 0.068,-0.014 v -0.122 c 0,-0.032 0.007,-0.061 0.022,-0.088 0.014,-0.028 0.034,-0.051 0.06,-0.069 L 0.482,-0.812 C 0.48,-0.813 0.478,-0.815 0.477,-0.817 0.476,-0.819 0.475,-0.822 0.475,-0.825 c 0,-0.005 0.002,-0.009 0.005,-0.012 0.004,-0.004 0.008,-0.005 0.013,-0.005 h 0.193 c 0.029,0 0.057,0.003 0.084,0.011 0.027,0.007 0.052,0.018 0.075,0.032 0.024,0.013 0.045,0.03 0.064,0.049 0.019,0.019 0.036,0.041 0.049,0.064 0.014,0.023 0.025,0.049 0.032,0.076 0.008,0.027 0.011,0.055 0.011,0.084 z"
         style="fill:#ffffff;fill-rule:nonzero"
         id="path1190" /><path
         d="m 0.932,-0.421 c 0,0.014 -0.003,0.028 -0.008,0.041 -0.006,0.012 -0.013,0.023 -0.023,0.033 -0.009,0.01 -0.021,0.017 -0.033,0.023 -0.013,0.005 -0.027,0.008 -0.041,0.008 H 0.651 C 0.637,-0.316 0.623,-0.319 0.61,-0.324 0.598,-0.33 0.587,-0.337 0.577,-0.347 0.567,-0.357 0.56,-0.368 0.554,-0.38 0.549,-0.393 0.546,-0.407 0.546,-0.421 Z M 0.616,-0.491 C 0.607,-0.491 0.599,-0.495 0.592,-0.502 0.585,-0.509 0.581,-0.517 0.581,-0.526 v -0.071 c 0,-0.009 0.003,-0.018 0.01,-0.025 0.007,-0.006 0.015,-0.01 0.025,-0.01 0.01,0 0.018,0.004 0.025,0.01 0.007,0.007 0.01,0.016 0.01,0.025 v 0.071 c 0,0.009 -0.003,0.017 -0.01,0.024 -0.007,0.007 -0.015,0.011 -0.025,0.011 z m 0.246,0 c -0.01,0 -0.018,-0.004 -0.025,-0.011 -0.007,-0.007 -0.01,-0.015 -0.01,-0.024 v -0.071 c 0,-0.009 0.003,-0.017 0.01,-0.024 0.007,-0.007 0.015,-0.011 0.025,-0.011 0.01,0 0.018,0.004 0.025,0.01 0.007,0.007 0.01,0.016 0.01,0.025 v 0.071 c 0,0.009 -0.004,0.017 -0.011,0.024 -0.007,0.007 -0.015,0.011 -0.024,0.011 z"
         style="fill-rule:nonzero"
         id="path1192" /><path
         d="m 0.827,-0.263 c 0,0.012 -0.003,0.023 -0.007,0.034 -0.005,0.01 -0.011,0.02 -0.019,0.028 -0.008,0.008 -0.017,0.014 -0.028,0.018 -0.01,0.005 -0.022,0.007 -0.034,0.007 -0.012,0 -0.023,-0.002 -0.034,-0.007 C 0.694,-0.187 0.685,-0.193 0.677,-0.201 0.669,-0.209 0.663,-0.219 0.658,-0.229 0.654,-0.24 0.651,-0.251 0.651,-0.263 v -0.123 h 0.176 z"
         style="fill:#f03a17;fill-rule:nonzero"
         id="path1194" /></g></g></svg>
