<?xml version="1.0" encoding="UTF-8" standalone="no"?>
<svg
   width="16.844999"
   height="14.715"
   viewBox="0 0 16.844999 14.715"
   version="1.1"
   xml:space="preserve"
   style="clip-rule:evenodd;fill-rule:evenodd;stroke-linejoin:round;stroke-miterlimit:2"
   id="svg20568"
   sodipodi:docname="emojis.svg"
   xmlns:inkscape="http://www.inkscape.org/namespaces/inkscape"
   xmlns:sodipodi="http://sodipodi.sourceforge.net/DTD/sodipodi-0.dtd"
   xmlns="http://www.w3.org/2000/svg"
   xmlns:svg="http://www.w3.org/2000/svg"><defs
     id="defs20572" /><sodipodi:namedview
     id="namedview20570"
     pagecolor="#505050"
     bordercolor="#eeeeee"
     borderopacity="1"
     inkscape:pageshadow="0"
     inkscape:pageopacity="0"
     inkscape:pagecheckerboard="0" /><g
     transform="matrix(0.24,0,0,0.24,-13.213584,-644.1558)"
     id="g20566"><g
       transform="matrix(62.5,0,0,62.5,47.2441,2732.17)"
       id="g11962"><path
         d="m 0.923,-0.49 c 0.002,-0.001 0.004,-0.001 0.006,-0.001 0.002,0 0.004,0 0.006,0 0.018,0 0.035,0.005 0.05,0.015 0.016,0.01 0.028,0.023 0.036,0.039 L 1.248,0.019 V 0.21 H 0.125 V 0.019 L 0.282,-0.296 C 0.286,-0.304 0.291,-0.311 0.297,-0.317 0.303,-0.324 0.31,-0.33 0.318,-0.334 0.325,-0.339 0.333,-0.343 0.342,-0.346 0.35,-0.349 0.359,-0.351 0.368,-0.351 c 0.002,0 0.004,0 0.006,0.001 0.001,0 0.003,0 0.005,0 L 0.493,-0.577 C 0.497,-0.584 0.502,-0.591 0.508,-0.598 0.514,-0.605 0.521,-0.61 0.529,-0.615 0.536,-0.62 0.544,-0.624 0.553,-0.627 0.562,-0.63 0.57,-0.631 0.579,-0.631 c 0.002,0 0.003,0 0.005,0 0.002,0 0.004,0 0.006,0.001 l 0.043,-0.088 c 0.009,-0.016 0.021,-0.029 0.037,-0.039 0.017,-0.01 0.034,-0.014 0.053,-0.014 0.018,0 0.035,0.004 0.051,0.014 0.016,0.01 0.028,0.023 0.036,0.039 z"
         style="fill-rule:nonzero"
         id="path11948" /><path
         d="M 1.038,-0.246 1.178,0.035 1.107,0.079 H 0.265 L 0.195,0.035 0.318,-0.21 0.387,-0.208 0.529,-0.491 h 0.315 l 0.123,0.245 z"
         style="fill:#a6a6a6;fill-rule:nonzero"
         id="path11950" /><path
         d="M 1.178,0.035 H 0.81 L 0.879,-0.246 H 0.827 L 0.687,0.035 H 0.3 L 0.35,-0.21 H 0.423 L 0.534,0.012 0.66,-0.491 h 0.184 l 0.123,0.245 H 1.038 Z M 0.56,-0.491 h 0.039 l -0.065,0.128 z"
         style="fill:#e5e5e5;fill-rule:nonzero"
         id="path11952" /><path
         d="M 0.511,-0.457 0.556,-0.546 C 0.557,-0.549 0.56,-0.552 0.563,-0.555 0.566,-0.557 0.57,-0.559 0.574,-0.56 l 0.011,0.061 0.031,-0.027 0.08,-0.16 C 0.7,-0.693 0.705,-0.697 0.712,-0.699 l -0.025,0.208 -0.071,0.07 -0.035,-0.036 0.002,-0.035 -0.037,0.071 z m 0.281,0.281 0.105,-0.21 C 0.9,-0.393 0.903,-0.399 0.907,-0.405 0.91,-0.411 0.915,-0.416 0.923,-0.418 l 0.01,0.123 -0.071,0.119 -0.035,-0.034 z m -0.492,0 0.045,-0.089 c 0.002,-0.004 0.004,-0.007 0.008,-0.009 0.003,-0.002 0.006,-0.004 0.01,-0.005 l 0.01,0.065 -0.038,0.073 z"
         style="fill:#cccccc;fill-rule:nonzero"
         id="path11954" /><path
         d="m 0.723,-0.701 c 0.011,0 0.019,0.005 0.024,0.015 L 0.862,-0.457 0.827,-0.421 0.792,-0.457 0.757,-0.421 0.722,-0.457 0.687,-0.421 0.651,-0.457 0.712,-0.699 c 0.003,-0.002 0.007,-0.002 0.011,-0.002 z m 0.211,0.281 c 0.01,0 0.018,0.005 0.024,0.015 L 1.073,-0.176 1.038,-0.21 1.002,-0.176 0.967,-0.21 0.932,-0.176 0.897,-0.21 0.862,-0.176 c 0.01,-0.04 0.02,-0.081 0.03,-0.121 0.01,-0.04 0.02,-0.081 0.031,-0.121 C 0.926,-0.42 0.929,-0.42 0.934,-0.42 Z M 0.441,-0.176 0.406,-0.141 0.371,-0.176 0.335,-0.141 0.363,-0.279 c 0.001,0 0.002,0 0.003,-0.001 0.001,0 0.002,0 0.003,0 0.006,0 0.011,0.001 0.015,0.003 0.003,0.002 0.006,0.004 0.009,0.007 0.003,0.003 0.005,0.007 0.007,0.011 0.001,0.004 0.003,0.009 0.006,0.013 z M 0.574,-0.56 c 0.001,0 0.002,0 0.002,0 0.001,0 0.002,-0.001 0.003,-0.001 0.006,0 0.011,0.001 0.015,0.003 0.004,0.002 0.007,0.004 0.009,0.007 0.003,0.004 0.005,0.007 0.007,0.011 0.002,0.005 0.004,0.009 0.006,0.014 C 0.61,-0.515 0.604,-0.503 0.6,-0.491 0.595,-0.479 0.589,-0.467 0.581,-0.457 0.576,-0.45 0.571,-0.444 0.564,-0.438 0.558,-0.433 0.552,-0.427 0.546,-0.421 Z"
         style="fill:#ffffff;fill-rule:nonzero"
         id="path11956" /><path
         d="m 0.616,0.035 0.386,-0.07 0.176,0.07 V 0.14 H 1.025 C 1.014,0.14 1.002,0.139 0.991,0.137 0.979,0.136 0.968,0.134 0.957,0.131 0.946,0.129 0.934,0.126 0.923,0.123 0.912,0.12 0.901,0.118 0.889,0.116 L 0.616,0.067 Z"
         style="fill:#16c60c;fill-rule:nonzero"
         id="path11958" /><path
         d="M 0.195,0.035 0.511,-0.035 1.038,0.14 H 0.195 Z"
         style="fill:#13a10e;fill-rule:nonzero"
         id="path11960" /></g></g></svg>
