<?xml version="1.0" encoding="UTF-8" standalone="no"?>
<svg
   width="16.844999"
   height="16.844999"
   viewBox="0 0 16.844999 16.844999"
   version="1.1"
   xml:space="preserve"
   style="clip-rule:evenodd;fill-rule:evenodd;stroke-linejoin:round;stroke-miterlimit:2"
   id="svg20568"
   sodipodi:docname="emojis.svg"
   xmlns:inkscape="http://www.inkscape.org/namespaces/inkscape"
   xmlns:sodipodi="http://sodipodi.sourceforge.net/DTD/sodipodi-0.dtd"
   xmlns="http://www.w3.org/2000/svg"
   xmlns:svg="http://www.w3.org/2000/svg"><defs
     id="defs20572" /><sodipodi:namedview
     id="namedview20570"
     pagecolor="#505050"
     bordercolor="#eeeeee"
     borderopacity="1"
     inkscape:pageshadow="0"
     inkscape:pageopacity="0"
     inkscape:pagecheckerboard="0" /><g
     transform="matrix(0.24,0,0,0.24,-97.43484,-642.0258)"
     id="g20566"><g
       transform="matrix(62.5,0,0,62.5,398.166,2732.17)"
       id="g12024"><path
         d="M 1.246,-0.105 H 1.248 V 0.21 H 0.125 v -0.315 h 0.06 L 0.188,-0.111 C 0.169,-0.119 0.153,-0.131 0.142,-0.147 0.131,-0.163 0.125,-0.182 0.125,-0.202 c 0,-0.009 0.001,-0.017 0.003,-0.025 0.003,-0.007 0.006,-0.015 0.009,-0.022 0.004,-0.006 0.009,-0.013 0.013,-0.019 0.005,-0.007 0.01,-0.013 0.016,-0.02 L 0.172,-0.296 C 0.164,-0.31 0.16,-0.325 0.16,-0.342 0.16,-0.352 0.162,-0.361 0.164,-0.369 0.167,-0.378 0.171,-0.386 0.175,-0.394 0.179,-0.402 0.184,-0.41 0.19,-0.417 0.195,-0.424 0.2,-0.432 0.206,-0.439 0.202,-0.446 0.199,-0.453 0.198,-0.46 0.196,-0.468 0.195,-0.475 0.195,-0.482 c 0,-0.022 0.007,-0.042 0.02,-0.059 L 0.268,-0.61 C 0.266,-0.617 0.265,-0.624 0.265,-0.632 c 0,-0.011 0.002,-0.021 0.005,-0.03 0.004,-0.009 0.009,-0.018 0.015,-0.027 l 0.13,-0.183 c 0.009,-0.012 0.021,-0.022 0.034,-0.03 0.014,-0.007 0.029,-0.011 0.045,-0.011 0.016,0 0.031,0.004 0.044,0.012 0.013,0.007 0.025,0.017 0.034,0.03 l 0.131,0.183 c 0.005,0.008 0.01,0.017 0.014,0.027 0.003,0.009 0.005,0.019 0.005,0.029 0,0.007 -0.001,0.014 -0.003,0.022 l 0.053,0.069 c 0.013,0.018 0.02,0.037 0.02,0.059 0,0.008 -0.001,0.017 -0.004,0.025 H 0.799 C 0.803,-0.463 0.806,-0.469 0.81,-0.474 l 0.086,-0.121 c 0.008,-0.011 0.019,-0.02 0.031,-0.027 0.013,-0.006 0.026,-0.01 0.04,-0.01 0.015,0 0.028,0.004 0.041,0.01 0.012,0.007 0.023,0.017 0.031,0.028 l 0.087,0.122 c 0.006,0.007 0.01,0.015 0.013,0.023 0.003,0.008 0.004,0.017 0.004,0.026 0,0.002 0,0.004 0,0.006 0,0.002 -0.001,0.004 -0.001,0.006 0.005,0.006 0.01,0.012 0.014,0.018 0.004,0.006 0.008,0.012 0.011,0.018 0.003,0.006 0.006,0.012 0.008,0.019 0.002,0.007 0.003,0.014 0.003,0.023 0,0.007 -10e-4,0.015 -0.003,0.023 0.005,0.007 0.009,0.013 0.014,0.019 0.005,0.006 0.009,0.012 0.012,0.019 0.004,0.006 0.007,0.013 0.009,0.02 0.002,0.007 0.003,0.015 0.003,0.024 0,0.004 0,0.008 -0.001,0.012 -10e-4,0.004 -0.002,0.008 -0.003,0.012 0.005,0.007 0.01,0.014 0.015,0.019 0.004,0.006 0.008,0.012 0.012,0.018 0.003,0.007 0.006,0.013 0.008,0.021 0.003,0.007 0.004,0.015 0.004,0.023 z"
         style="fill-rule:nonzero"
         id="path12000" /><rect
         x="0.44100001"
         y="-0.31600001"
         width="0.105"
         height="0.38600001"
         style="fill:#ca5010;fill-rule:nonzero"
         id="rect12002" /><path
         d="m 1.112,-0.216 0.062,0.083 c 0.003,0.002 0.004,0.006 0.004,0.01 0,0.005 -0.002,0.009 -0.005,0.012 -0.004,0.004 -0.008,0.006 -0.013,0.006 l -0.017,0.07 H 1.038 V -0.12 C 1.037,-0.115 1.035,-0.112 1.031,-0.109 1.028,-0.107 1.025,-0.105 1.02,-0.105 1.018,-0.105 1.016,-0.106 1.013,-0.107 1.01,-0.108 1.008,-0.109 1.007,-0.111 L 0.967,-0.175 0.928,-0.111 C 0.926,-0.109 0.924,-0.108 0.922,-0.107 0.919,-0.106 0.917,-0.105 0.915,-0.105 0.909,-0.105 0.905,-0.107 0.902,-0.11 0.899,-0.114 0.897,-0.118 0.897,-0.123 v -0.046 l -0.112,0.06 c -0.004,0.002 -0.007,0.004 -0.011,0.004 -0.004,0 -0.009,-0.002 -0.012,-0.006 -0.003,-0.003 -0.005,-0.007 -0.005,-0.012 0,-0.004 0.001,-0.007 0.003,-0.01 L 0.822,-0.216 C 0.818,-0.212 0.814,-0.21 0.809,-0.21 0.804,-0.21 0.8,-0.212 0.797,-0.216 0.794,-0.22 0.792,-0.224 0.792,-0.229 c 0,-0.003 0.001,-0.006 0.003,-0.009 l 0.056,-0.078 c -0.007,0 -0.012,-0.001 -0.017,-0.003 -0.005,-0.002 -0.007,-0.007 -0.007,-0.014 0,-0.003 0.002,-0.008 0.006,-0.015 0.004,-0.006 0.009,-0.013 0.014,-0.02 C 0.853,-0.376 0.858,-0.383 0.863,-0.39 0.868,-0.396 0.872,-0.402 0.874,-0.405 0.87,-0.406 0.868,-0.408 0.865,-0.411 0.863,-0.414 0.862,-0.418 0.862,-0.421 c 0,-0.002 0,-0.004 0.001,-0.006 0.001,-0.001 0.002,-0.003 0.003,-0.005 l 0.087,-0.122 c 0.004,-0.005 0.008,-0.008 0.014,-0.008 0.006,0 0.011,0.003 0.014,0.008 l 0.088,0.122 c 0.001,0.002 0.002,0.003 0.003,0.005 0,0.002 10e-4,0.004 10e-4,0.006 0,0.003 -10e-4,0.007 -0.004,0.01 -0.002,0.003 -0.005,0.005 -0.008,0.006 l 0.043,0.061 c 0.002,0.004 0.003,0.007 0.003,0.011 0,0.007 -0.002,0.012 -0.006,0.014 -0.005,0.002 -0.011,0.003 -0.017,0.003 l 0.056,0.078 c 0.002,0.003 0.003,0.006 0.003,0.009 0,0.005 -0.002,0.01 -0.006,0.013 C 1.134,-0.212 1.13,-0.21 1.125,-0.21 1.122,-0.21 1.12,-0.211 1.118,-0.212 1.116,-0.213 1.114,-0.214 1.112,-0.216 Z m -0.32,0.014 c 0,0.007 -0.003,0.014 -0.008,0.019 -0.005,0.005 -0.011,0.007 -0.018,0.007 -0.006,0 -0.011,-0.002 -0.016,-0.005 l -0.134,-0.1 v 0.079 c 0,0.008 -0.002,0.014 -0.007,0.019 -0.005,0.005 -0.012,0.007 -0.019,0.007 -0.008,0 -0.015,-0.003 -0.02,-0.009 L 0.494,-0.281 0.417,-0.185 c -0.005,0.006 -0.012,0.009 -0.02,0.009 -0.008,0 -0.014,-0.002 -0.019,-0.007 C 0.373,-0.188 0.371,-0.194 0.371,-0.202 v -0.079 l -0.133,0.1 c -0.005,0.003 -0.011,0.005 -0.016,0.005 -0.008,0 -0.014,-0.002 -0.019,-0.007 -0.005,-0.005 -0.008,-0.011 -0.008,-0.019 0,-0.006 0.002,-0.011 0.005,-0.015 L 0.34,-0.401 C 0.344,-0.407 0.348,-0.41 0.353,-0.411 0.357,-0.412 0.361,-0.413 0.367,-0.413 H 0.376 C 0.373,-0.417 0.37,-0.42 0.366,-0.424 0.363,-0.428 0.362,-0.433 0.362,-0.439 c 0,-0.007 0.002,-0.014 0.007,-0.019 0.005,-0.005 0.012,-0.007 0.019,-0.007 0.005,0 0.009,0.001 0.011,0.003 0.002,0.002 0.005,0.004 0.009,0.006 l 0.086,0.05 0.085,-0.05 c 0.004,-0.002 0.007,-0.004 0.009,-0.006 0.003,-0.002 0.006,-0.003 0.011,-0.003 0.008,0 0.014,0.002 0.019,0.007 0.005,0.006 0.007,0.012 0.007,0.02 0,0.004 -0.001,0.009 -0.004,0.012 L 0.61,-0.413 h 0.004 c 0.007,0 0.013,0.001 0.019,0.002 0.005,0.001 0.01,0.004 0.013,0.01 l 0.141,0.184 c 0.003,0.004 0.005,0.009 0.005,0.015 z"
         style="fill:#107c10;fill-rule:nonzero"
         id="path12004" /><path
         d="M 1.154,-0.035 H 1.178 V 0.14 H 0.195 V -0.035 H 0.43 L 0.529,-0.084 H 1.047 Z M 0.256,-0.316 C 0.249,-0.316 0.243,-0.318 0.238,-0.323 0.233,-0.329 0.23,-0.335 0.23,-0.342 c 0,-0.006 0.002,-0.011 0.005,-0.015 l 0.066,-0.1 c -0.005,0 -0.009,0 -0.013,-0.001 -0.005,0 -0.008,-0.001 -0.012,-0.003 C 0.273,-0.463 0.27,-0.466 0.268,-0.469 0.266,-0.472 0.265,-0.477 0.265,-0.482 c 0,-0.006 0.002,-0.011 0.006,-0.016 L 0.354,-0.607 C 0.348,-0.609 0.344,-0.612 0.341,-0.616 0.337,-0.621 0.335,-0.626 0.335,-0.632 c 0,-0.003 0.001,-0.006 0.002,-0.008 0.001,-0.002 0.003,-0.005 0.004,-0.007 l 0.131,-0.184 c 0.005,-0.008 0.013,-0.011 0.022,-0.011 0.008,0 0.015,0.003 0.021,0.011 l 0.131,0.184 c 0.001,0.002 0.003,0.005 0.004,0.007 0.001,0.002 0.001,0.005 0.001,0.008 0,0.006 -0.001,0.011 -0.005,0.016 -0.003,0.004 -0.007,0.007 -0.013,0.009 l 0.083,0.109 c 0.004,0.005 0.006,0.01 0.006,0.016 0,0.01 -0.004,0.017 -0.011,0.021 -0.008,0.003 -0.016,0.004 -0.025,0.004 l 0.066,0.1 c 0.003,0.004 0.005,0.009 0.005,0.014 0,0.008 -0.003,0.014 -0.008,0.019 -0.005,0.005 -0.011,0.008 -0.019,0.008 -0.006,0 -0.011,-0.002 -0.016,-0.005 L 0.561,-0.44 0.518,-0.333 C 0.516,-0.328 0.513,-0.324 0.509,-0.321 0.504,-0.317 0.499,-0.316 0.494,-0.316 0.488,-0.316 0.483,-0.317 0.479,-0.32 0.474,-0.323 0.471,-0.327 0.469,-0.333 L 0.426,-0.44 0.273,-0.321 c -0.005,0.003 -0.011,0.005 -0.017,0.005 z"
         style="fill:#13a10e;fill-rule:nonzero"
         id="path12006" /><path
         d="M 0.361,0.072 0.345,0.104 0.3,0.081 0.256,0.104 0.24,0.072 0.267,0.059 C 0.266,0.057 0.265,0.055 0.265,0.053 0.265,0.048 0.267,0.044 0.271,0.04 0.274,0.037 0.278,0.035 0.283,0.035 0.286,0.035 0.289,0.036 0.292,0.037 0.295,0.039 0.298,0.04 0.3,0.042 0.303,0.04 0.306,0.038 0.308,0.037 0.311,0.036 0.314,0.035 0.317,0.035 c 0.006,0 0.011,0.002 0.014,0.006 0.002,0.003 0.004,0.007 0.004,0.012 0,0.003 0,0.004 -0.001,0.006 z"
         style="fill:#8e562e;fill-rule:nonzero"
         id="path12008" /><path
         d="M 0.248,0.07 C 0.253,0.07 0.257,0.072 0.26,0.075 0.263,0.079 0.265,0.083 0.265,0.087 0.265,0.092 0.263,0.096 0.26,0.1 0.257,0.103 0.253,0.105 0.248,0.105 0.243,0.105 0.239,0.103 0.236,0.1 0.232,0.096 0.23,0.092 0.23,0.087 0.23,0.083 0.232,0.079 0.236,0.075 0.239,0.072 0.243,0.07 0.248,0.07 Z m 0.105,0 c 0.005,0 0.009,0.002 0.012,0.005 C 0.369,0.079 0.371,0.083 0.371,0.087 0.371,0.092 0.369,0.096 0.365,0.1 0.362,0.103 0.358,0.105 0.353,0.105 0.348,0.105 0.344,0.103 0.341,0.1 0.337,0.096 0.335,0.092 0.335,0.087 0.335,0.083 0.337,0.079 0.341,0.075 0.344,0.072 0.348,0.07 0.353,0.07 Z"
         style="fill:#f7d7c4;fill-rule:nonzero"
         id="path12010" /><path
         d="m 0.3,-0.141 c 0.022,0.018 0.039,0.039 0.052,0.063 0.012,0.024 0.019,0.05 0.019,0.078 0,0.01 -0.002,0.019 -0.006,0.027 C 0.361,0.036 0.356,0.043 0.35,0.05 0.344,0.056 0.336,0.061 0.328,0.065 0.319,0.068 0.31,0.07 0.3,0.07 0.291,0.07 0.281,0.068 0.273,0.065 0.264,0.061 0.257,0.056 0.251,0.05 0.244,0.043 0.239,0.036 0.236,0.027 0.232,0.019 0.23,0.01 0.23,0 c 0,-0.028 0.007,-0.054 0.019,-0.078 0.013,-0.024 0.03,-0.045 0.051,-0.063 z"
         style="fill:#f7630c;fill-rule:nonzero"
         id="path12012" /><path
         d="m 0.967,-0.386 0.169,0.337 -0.022,0.014 H 0.838 l -0.02,-0.01 C 0.815,-0.043 0.812,-0.042 0.809,-0.04 0.805,-0.038 0.802,-0.037 0.798,-0.035 0.789,-0.035 0.78,-0.036 0.77,-0.039 0.761,-0.041 0.752,-0.043 0.742,-0.045 0.721,-0.05 0.7,-0.055 0.679,-0.06 0.658,-0.065 0.637,-0.07 0.616,-0.074 V -0.386 Z M 0.3,-0.035 c 0.011,0.009 0.019,0.019 0.026,0.031 0.006,0.012 0.009,0.025 0.009,0.039 0,0.01 -0.003,0.018 -0.01,0.025 C 0.318,0.067 0.31,0.07 0.3,0.07 0.291,0.07 0.283,0.067 0.276,0.06 0.269,0.053 0.265,0.045 0.265,0.035 0.265,0.021 0.268,0.008 0.275,-0.004 0.281,-0.016 0.29,-0.026 0.3,-0.035 Z"
         style="fill:#ffb900;fill-rule:nonzero"
         id="path12014" /><path
         d="M 0.441,-0.035 0.436,-0.063 h 0.019 l 0.161,-0.323 0.176,0.351 H 0.686 L 0.615,-0.079 0.546,-0.035 Z"
         style="fill:#ffc83d;fill-rule:nonzero"
         id="path12016" /><path
         d="M 0.722,-0.105 0.687,-0.035 0.615,-0.074 0.546,-0.035 0.511,-0.105 0.616,-0.316 Z"
         style="fill:#ffd679;fill-rule:nonzero"
         id="path12018" /><path
         d="m 0.546,-0.035 0.07,-0.281 0.071,0.281 z"
         style="fill:#1f1f1f;fill-rule:nonzero"
         id="path12020" /><path
         d="m 0.423,-0.105 c 0.007,0 0.012,0.003 0.016,0.009 l 0.016,0.033 -0.014,0.028 H 0.43 C 0.429,-0.038 0.426,-0.042 0.424,-0.047 0.421,-0.051 0.418,-0.056 0.416,-0.061 0.413,-0.066 0.411,-0.071 0.409,-0.076 0.407,-0.081 0.406,-0.085 0.406,-0.088 c 0,-0.004 0.002,-0.009 0.005,-0.012 0.004,-0.004 0.008,-0.005 0.012,-0.005 z m 0.731,0.07 h -0.04 l 0.031,-0.061 c 0.003,-0.006 0.008,-0.009 0.015,-0.009 0.005,0 0.009,0.001 0.012,0.005 0.004,0.003 0.006,0.008 0.006,0.012 0,0.003 -10e-4,0.007 -0.003,0.012 -0.002,0.004 -0.004,0.009 -0.007,0.014 -0.003,0.005 -0.005,0.01 -0.008,0.015 -0.003,0.005 -0.005,0.009 -0.006,0.012 z m -0.316,0 h -0.04 l 0.031,-0.061 c 0.003,-0.006 0.008,-0.009 0.015,-0.009 0.005,0 0.009,0.001 0.013,0.005 0.003,0.003 0.005,0.008 0.005,0.013 0,0.003 -0.001,0.007 -0.003,0.011 -0.002,0.005 -0.004,0.01 -0.007,0.015 -0.003,0.005 -0.005,0.01 -0.008,0.014 -0.003,0.005 -0.005,0.009 -0.006,0.012 z"
         style="fill:#e5e5e5;fill-rule:nonzero"
         id="path12022" /></g></g></svg>
