<?xml version="1.0" encoding="UTF-8" standalone="no"?>
<svg
   width="16.844999"
   height="16.844999"
   viewBox="0 0 16.844999 16.844999"
   version="1.1"
   xml:space="preserve"
   style="clip-rule:evenodd;fill-rule:evenodd;stroke-linejoin:round;stroke-miterlimit:2"
   id="svg20568"
   sodipodi:docname="emojis.svg"
   xmlns:inkscape="http://www.inkscape.org/namespaces/inkscape"
   xmlns:sodipodi="http://sodipodi.sourceforge.net/DTD/sodipodi-0.dtd"
   xmlns="http://www.w3.org/2000/svg"
   xmlns:svg="http://www.w3.org/2000/svg"><defs
     id="defs20572" /><sodipodi:namedview
     id="namedview20570"
     pagecolor="#505050"
     bordercolor="#eeeeee"
     borderopacity="1"
     inkscape:pageshadow="0"
     inkscape:pageopacity="0"
     inkscape:pagecheckerboard="0" /><g
     transform="matrix(0.24,0,0,0.24,-138.62628,-642.0258)"
     id="g20566"><g
       transform="matrix(62.5,0,0,62.5,569.797,2732.17)"
       id="g12062"><path
         d="m 1.248,-0.667 c 0,0.022 -0.003,0.044 -0.009,0.065 -0.006,0.021 -0.015,0.041 -0.026,0.06 v 0.127 L 1.248,-0.38 V 0.21 H 0.125 v -0.772 c 0,-0.018 0.004,-0.036 0.011,-0.053 0.008,-0.018 0.018,-0.033 0.031,-0.045 0.012,-0.013 0.027,-0.023 0.044,-0.031 0.017,-0.007 0.035,-0.011 0.054,-0.011 0.013,0 0.025,0.001 0.037,0.004 0.012,0.004 0.023,0.008 0.033,0.015 v -0.019 c 0,-0.029 0.006,-0.056 0.017,-0.082 0.011,-0.025 0.026,-0.048 0.045,-0.067 0.019,-0.019 0.042,-0.034 0.067,-0.045 0.026,-0.011 0.053,-0.017 0.082,-0.017 0.029,0 0.056,0.006 0.082,0.017 0.025,0.011 0.048,0.026 0.067,0.045 0.019,0.019 0.034,0.042 0.045,0.067 0.011,0.026 0.017,0.053 0.017,0.082 v 0.035 c 0,-0.034 0.006,-0.066 0.019,-0.095 0.013,-0.03 0.031,-0.056 0.053,-0.079 0.022,-0.022 0.048,-0.039 0.078,-0.052 0.03,-0.013 0.062,-0.02 0.095,-0.02 0.034,0 0.066,0.007 0.096,0.02 0.03,0.013 0.056,0.03 0.078,0.052 0.022,0.023 0.04,0.049 0.053,0.079 0.013,0.029 0.019,0.061 0.019,0.095 z"
         style="fill-rule:nonzero"
         id="path12048" /><path
         d="m 1.143,-0.457 v 0.071 l 0.035,0.035 v 0.105 L 1.09,-0.157 H 0.25 L 0.195,-0.21 v -0.137 l 0.074,0.022 c 0.009,0.003 0.018,0.006 0.026,0.007 0.008,0.002 0.017,0.003 0.027,0.003 0.014,0 0.028,0 0.042,0 0.014,-0.001 0.028,-0.001 0.042,-0.001 h 0.21 v 0.07 h 0.141 l 0.07,-0.046 C 0.829,-0.294 0.832,-0.296 0.835,-0.298 0.838,-0.301 0.841,-0.303 0.844,-0.305 0.847,-0.308 0.851,-0.31 0.854,-0.312 0.857,-0.314 0.86,-0.315 0.862,-0.316 0.865,-0.317 0.868,-0.318 0.872,-0.318 0.875,-0.319 0.879,-0.32 0.882,-0.32 0.89,-0.323 0.899,-0.325 0.907,-0.327 0.915,-0.33 0.924,-0.332 0.932,-0.333 v -0.088 h 0.106 v 0.035 l 0.035,0.035 h 0.035 v -0.106 z"
         style="fill:#ffc83d;fill-rule:nonzero"
         id="path12050" /><path
         d="m 0.875,-0.215 h 0.233 l 0.07,0.039 V 0.14 H 0.687 C 0.678,0.132 0.668,0.125 0.656,0.118 0.645,0.111 0.634,0.106 0.621,0.101 0.609,0.096 0.597,0.093 0.584,0.09 0.571,0.088 0.558,0.086 0.546,0.086 0.534,0.086 0.521,0.088 0.509,0.09 0.496,0.093 0.484,0.096 0.471,0.101 0.459,0.105 0.447,0.111 0.436,0.117 0.425,0.124 0.415,0.132 0.406,0.14 H 0.195 V 0 L 0.314,-0.089 0.688,-0.173 C 0.704,-0.176 0.72,-0.181 0.735,-0.185 0.75,-0.19 0.766,-0.195 0.781,-0.199 0.796,-0.203 0.812,-0.207 0.828,-0.21 0.843,-0.213 0.859,-0.215 0.875,-0.215 Z"
         style="fill:#eba300;fill-rule:nonzero"
         id="path12052" /><path
         d="m 0.523,-0.246 h 0.655 v 0.07 h -0.14 c -0.022,0 -0.042,0.003 -0.059,0.008 -0.016,0.005 -0.032,0.012 -0.046,0.02 C 0.92,-0.14 0.907,-0.131 0.896,-0.12 0.884,-0.11 0.873,-0.099 0.862,-0.088 0.851,-0.077 0.84,-0.066 0.828,-0.056 0.817,-0.045 0.804,-0.036 0.791,-0.028 0.777,-0.019 0.762,-0.013 0.745,-0.008 0.728,-0.003 0.708,0 0.687,0 H 0.195 V -0.21 H 0.477 Z M 1.09,-0.07 c 0.005,0 0.009,0.001 0.013,0.005 0.003,0.003 0.005,0.007 0.005,0.012 0,0.005 -0.002,0.009 -0.005,0.013 -0.004,0.003 -0.008,0.005 -0.013,0.005 -0.005,0 -0.009,-0.002 -0.012,-0.005 -0.004,-0.004 -0.005,-0.008 -0.005,-0.013 0,-0.005 0.001,-0.009 0.005,-0.012 C 1.081,-0.069 1.085,-0.07 1.09,-0.07 Z M 0.985,0.035 c 0.005,0 0.009,0.002 0.012,0.005 0.004,0.004 0.005,0.008 0.005,0.013 0,0.004 -0.001,0.008 -0.005,0.012 C 0.993,0.069 0.989,0.07 0.985,0.07 0.98,0.07 0.976,0.069 0.973,0.065 0.969,0.061 0.967,0.057 0.967,0.053 0.967,0.048 0.969,0.044 0.972,0.04 0.976,0.037 0.98,0.035 0.985,0.035 Z m 0.105,0 c 0.005,0 0.009,0.002 0.013,0.005 0.003,0.004 0.005,0.008 0.005,0.013 0,0.004 -0.002,0.008 -0.005,0.012 C 1.099,0.069 1.095,0.07 1.09,0.07 1.086,0.07 1.082,0.069 1.078,0.065 1.075,0.061 1.073,0.057 1.073,0.053 1.073,0.048 1.074,0.044 1.078,0.04 1.081,0.037 1.085,0.035 1.09,0.035 Z"
         style="fill:#ffb900;fill-rule:nonzero"
         id="path12054" /><path
         d="m 0.827,-0.526 c 0.009,0 0.019,0.001 0.027,0.005 0.008,0.004 0.016,0.009 0.022,0.015 0.007,0.006 0.012,0.014 0.015,0.022 0.004,0.009 0.006,0.018 0.006,0.027 v 0.211 c 0,0.014 -0.003,0.026 -0.01,0.035 -0.006,0.01 -0.014,0.018 -0.025,0.026 L 0.687,-0.06 v 0.2 H 0.406 V -0.166 L 0.23,-0.291 C 0.22,-0.298 0.211,-0.307 0.205,-0.316 0.198,-0.326 0.195,-0.337 0.195,-0.351 v -0.211 c 0,-0.009 0.002,-0.018 0.006,-0.027 0.003,-0.008 0.008,-0.016 0.015,-0.022 0.006,-0.006 0.013,-0.011 0.022,-0.015 0.008,-0.004 0.017,-0.006 0.027,-0.006 0.01,0 0.019,0.002 0.027,0.006 0.009,0.004 0.016,0.009 0.023,0.015 0.006,0.006 0.011,0.014 0.015,0.022 0.004,0.009 0.005,0.018 0.005,0.027 v 0.141 c 0,0.009 0.004,0.018 0.011,0.025 0.007,0.006 0.015,0.01 0.025,0.01 0.009,0 0.018,-0.004 0.025,-0.01 0.006,-0.007 0.01,-0.016 0.01,-0.025 v -0.281 c 0,-0.019 0.003,-0.038 0.011,-0.055 0.007,-0.017 0.017,-0.032 0.03,-0.044 0.012,-0.013 0.027,-0.023 0.044,-0.03 0.018,-0.008 0.036,-0.011 0.055,-0.011 0.019,0 0.037,0.003 0.054,0.011 0.017,0.007 0.032,0.018 0.045,0.03 0.013,0.013 0.023,0.028 0.03,0.045 0.008,0.017 0.012,0.035 0.012,0.054 v 0.386 c 0,0.01 0.003,0.018 0.01,0.025 0.007,0.007 0.015,0.01 0.025,0.01 0.009,0 0.018,-0.003 0.025,-0.01 0.006,-0.007 0.01,-0.015 0.01,-0.025 v -0.141 c 0,-0.009 0.002,-0.018 0.005,-0.027 0.004,-0.008 0.009,-0.016 0.015,-0.022 0.006,-0.006 0.014,-0.011 0.022,-0.015 0.009,-0.004 0.018,-0.005 0.028,-0.005 z"
         style="fill:#16c60c;fill-rule:nonzero"
         id="path12056" /><path
         d="m 1.002,-0.842 c 0.025,0 0.047,0.004 0.069,0.014 0.021,0.009 0.039,0.021 0.055,0.037 0.016,0.016 0.029,0.035 0.038,0.056 0.009,0.021 0.014,0.044 0.014,0.068 0,0.024 -0.005,0.047 -0.014,0.068 -0.009,0.021 -0.022,0.04 -0.038,0.056 -0.016,0.016 -0.034,0.029 -0.055,0.038 -0.022,0.009 -0.044,0.014 -0.069,0.014 -0.024,0 -0.046,-0.005 -0.068,-0.014 C 0.913,-0.514 0.894,-0.527 0.879,-0.543 0.863,-0.559 0.85,-0.578 0.841,-0.599 0.832,-0.62 0.827,-0.643 0.827,-0.667 c 0,-0.024 0.005,-0.047 0.014,-0.068 0.009,-0.021 0.022,-0.04 0.038,-0.056 0.015,-0.016 0.034,-0.028 0.055,-0.037 0.022,-0.01 0.044,-0.014 0.068,-0.014 z"
         style="fill:#fce100;fill-rule:nonzero"
         id="path12058" /><path
         d="M 0.388,-0.246 C 0.383,-0.246 0.379,-0.247 0.376,-0.251 0.372,-0.254 0.371,-0.258 0.371,-0.263 v -0.07 c 0,-0.005 0.001,-0.01 0.005,-0.013 0.003,-0.003 0.007,-0.005 0.012,-0.005 0.005,0 0.009,0.002 0.013,0.005 0.003,0.003 0.005,0.008 0.005,0.013 v 0.07 c 0,0.005 -0.002,0.009 -0.005,0.012 -0.004,0.004 -0.008,0.005 -0.013,0.005 z m 0.106,-0.421 c 0.005,0 0.009,0.002 0.012,0.005 0.004,0.004 0.005,0.008 0.005,0.013 v 0.07 c 0,0.005 -0.001,0.009 -0.005,0.012 -0.003,0.004 -0.007,0.005 -0.012,0.005 -0.005,0 -0.009,-10e-4 -0.013,-0.005 C 0.478,-0.57 0.476,-0.574 0.476,-0.579 v -0.07 c 0,-0.005 0.002,-0.009 0.005,-0.013 0.004,-0.003 0.008,-0.005 0.013,-0.005 z m 0.105,0.316 c 0.005,0 0.009,0.002 0.012,0.005 0.004,0.003 0.005,0.008 0.005,0.013 v 0.07 c 0,0.005 -0.001,0.009 -0.005,0.012 -0.003,0.004 -0.007,0.005 -0.012,0.005 -0.005,0 -0.009,-0.001 -0.013,-0.005 C 0.583,-0.254 0.581,-0.258 0.581,-0.263 v -0.07 c 0,-0.005 0.002,-0.01 0.005,-0.013 0.004,-0.003 0.008,-0.005 0.013,-0.005 z m 0,0.21 c 0.005,0 0.009,0.002 0.012,0.006 0.004,0.003 0.005,0.007 0.005,0.012 v 0.07 c 0,0.005 -0.001,0.009 -0.005,0.013 C 0.608,-0.037 0.604,-0.035 0.599,-0.035 0.594,-0.035 0.59,-0.037 0.586,-0.04 0.583,-0.044 0.581,-0.048 0.581,-0.053 v -0.07 c 0,-0.005 0.002,-0.009 0.005,-0.012 0.004,-0.004 0.008,-0.006 0.013,-0.006 z M 0.494,-0.457 c 0.005,0 0.009,0.002 0.012,0.006 0.004,0.003 0.005,0.007 0.005,0.012 v 0.07 c 0,0.005 -0.001,0.009 -0.005,0.013 -0.003,0.003 -0.007,0.005 -0.012,0.005 -0.005,0 -0.009,-0.002 -0.013,-0.005 C 0.478,-0.36 0.476,-0.364 0.476,-0.369 v -0.07 c 0,-0.005 0.002,-0.009 0.005,-0.012 0.004,-0.004 0.008,-0.006 0.013,-0.006 z m 0,0.422 c 0.005,0 0.009,0.002 0.012,0.005 0.004,0.003 0.005,0.008 0.005,0.012 V 0.053 C 0.511,0.057 0.509,0.061 0.506,0.065 0.502,0.069 0.498,0.07 0.494,0.07 0.489,0.07 0.485,0.069 0.481,0.065 0.478,0.061 0.476,0.057 0.476,0.053 v -0.071 c 0,-0.004 0.002,-0.009 0.005,-0.012 0.004,-0.003 0.008,-0.005 0.013,-0.005 z m 0.368,-0.404 v 0.07 c 0,0.005 -0.002,0.009 -0.005,0.013 -0.004,0.003 -0.008,0.005 -0.013,0.005 -0.004,0 -0.008,-0.002 -0.012,-0.005 C 0.828,-0.36 0.827,-0.364 0.827,-0.369 v -0.07 c 0,-0.005 0.001,-0.009 0.005,-0.012 0.004,-0.004 0.008,-0.006 0.012,-0.006 0.005,0 0.009,0.002 0.013,0.006 0.003,0.003 0.005,0.007 0.005,0.012 z m -0.579,0.018 c 0.005,0 0.009,0.001 0.012,0.005 0.004,0.003 0.005,0.007 0.005,0.012 v 0.071 c 0,0.004 -0.001,0.009 -0.005,0.012 -0.003,0.003 -0.007,0.005 -0.012,0.005 -0.005,0 -0.009,-0.002 -0.012,-0.005 C 0.267,-0.325 0.265,-0.329 0.265,-0.333 v -0.071 c 0,-0.004 0.002,-0.008 0.006,-0.012 0.003,-0.004 0.007,-0.005 0.012,-0.005 z m 0.316,-0.141 c 0.005,0 0.009,0.002 0.012,0.006 0.004,0.003 0.005,0.007 0.005,0.012 v 0.07 c 0,0.005 -0.001,0.009 -0.005,0.012 -0.003,0.004 -0.007,0.005 -0.012,0.005 -0.005,0 -0.009,-0.001 -0.013,-0.005 C 0.583,-0.465 0.581,-0.469 0.581,-0.474 v -0.07 c 0,-0.005 0.002,-0.009 0.005,-0.012 0.004,-0.004 0.008,-0.006 0.013,-0.006 z m -0.105,0.316 c 0.005,0 0.009,0.002 0.012,0.006 0.004,0.003 0.005,0.007 0.005,0.012 v 0.07 c 0,0.005 -0.001,0.009 -0.005,0.012 -0.003,0.004 -0.007,0.005 -0.012,0.005 -0.005,0 -0.009,-0.001 -0.013,-0.005 C 0.478,-0.149 0.476,-0.153 0.476,-0.158 v -0.07 c 0,-0.005 0.002,-0.009 0.005,-0.012 0.004,-0.004 0.008,-0.006 0.013,-0.006 z m 0.228,0.088 c 0,0.005 -0.002,0.009 -0.005,0.012 -0.004,0.004 -0.008,0.005 -0.013,0.005 -0.005,0 -0.009,-0.001 -0.012,-0.005 C 0.688,-0.149 0.687,-0.153 0.687,-0.158 v -0.07 c 0,-0.005 10e-4,-0.009 0.005,-0.012 0.003,-0.004 0.007,-0.006 0.012,-0.006 0.005,0 0.009,0.002 0.013,0.006 0.003,0.003 0.005,0.007 0.005,0.012 z M 0.599,-0.772 c 0.004,0 0.008,0.002 0.012,0.005 0.003,0.004 0.005,0.008 0.005,0.012 v 0.07 c 0,0.005 -0.001,0.009 -0.005,0.013 -0.003,0.003 -0.007,0.005 -0.012,0.005 -0.005,0 -0.009,-0.002 -0.013,-0.005 C 0.583,-0.676 0.581,-0.68 0.581,-0.685 v -0.07 c 0,-0.004 0.002,-0.008 0.005,-0.012 0.004,-0.003 0.008,-0.005 0.013,-0.005 z m 0.211,0.456 c 0.004,0 0.008,0.002 0.012,0.005 0.003,0.004 0.005,0.008 0.005,0.013 v 0.07 c 0,0.005 -0.002,0.009 -0.005,0.012 C 0.818,-0.212 0.814,-0.21 0.81,-0.21 0.805,-0.21 0.801,-0.212 0.797,-0.216 0.794,-0.219 0.792,-0.223 0.792,-0.228 v -0.07 c 0,-0.005 0.002,-0.009 0.005,-0.013 0.004,-0.003 0.008,-0.005 0.013,-0.005 z M 0.265,-0.544 v 0.07 c 0,0.004 -0.002,0.009 -0.005,0.012 -0.003,0.004 -0.007,0.005 -0.012,0.005 -0.005,0 -0.009,-0.001 -0.012,-0.005 C 0.232,-0.465 0.23,-0.469 0.23,-0.474 v -0.07 c 0,-0.005 0.002,-0.009 0.006,-0.012 0.003,-0.004 0.007,-0.006 0.012,-0.006 0.005,0 0.009,0.002 0.012,0.006 0.003,0.003 0.005,0.007 0.005,0.012 z m -0.088,0.088 c 0.005,0 0.01,0.002 0.013,0.005 l 0.035,0.035 c 0.003,0.003 0.005,0.007 0.005,0.013 0,0.004 -0.002,0.008 -0.005,0.012 -0.004,0.003 -0.008,0.005 -0.013,0.005 -0.004,0 -0.008,-0.002 -0.012,-0.005 L 0.165,-0.426 C 0.161,-0.43 0.16,-0.434 0.16,-0.438 c 0,-0.005 0.001,-0.009 0.005,-0.013 0.004,-0.003 0.008,-0.005 0.012,-0.005 z m 0.738,0.105 c 0.005,0 0.009,0.002 0.012,0.005 0.004,0.003 0.005,0.008 0.005,0.013 0,0.004 -0.001,0.008 -0.005,0.012 l -0.035,0.035 c -0.003,0.003 -0.008,0.005 -0.013,0.005 -0.004,0 -0.008,-0.002 -0.012,-0.005 -0.003,-0.004 -0.005,-0.008 -0.005,-0.012 0,-0.005 0.002,-0.009 0.005,-0.013 L 0.902,-0.346 C 0.906,-0.349 0.91,-0.351 0.915,-0.351 Z M 0.651,0.053 C 0.651,0.048 0.653,0.044 0.657,0.04 L 0.692,0.005 C 0.695,0.002 0.699,0 0.704,0 0.709,0 0.713,0.002 0.716,0.005 0.72,0.009 0.721,0.013 0.721,0.018 0.721,0.022 0.72,0.027 0.716,0.03 L 0.681,0.065 C 0.678,0.069 0.674,0.07 0.669,0.07 0.664,0.07 0.66,0.069 0.657,0.065 0.653,0.061 0.651,0.057 0.651,0.053 Z m 0,-0.421 c 0,-0.005 0.002,-0.009 0.006,-0.013 l 0.035,-0.035 c 0.003,-0.003 0.007,-0.005 0.012,-0.005 0.005,0 0.009,0.002 0.012,0.005 0.003,0.004 0.005,0.008 0.005,0.012 0,0.005 -0.001,0.01 -0.005,0.013 L 0.681,-0.356 C 0.678,-0.352 0.674,-0.351 0.669,-0.351 0.664,-0.351 0.66,-0.352 0.657,-0.356 0.653,-0.36 0.651,-0.364 0.651,-0.368 Z M 0.388,-0.526 c 0.005,0 0.009,0.001 0.012,0.005 l 0.036,0.035 c 0.003,0.003 0.004,0.007 0.004,0.012 0,0.005 -0.001,0.009 -0.005,0.013 -0.003,0.003 -0.007,0.005 -0.012,0.005 -0.004,0 -0.008,-0.002 -0.012,-0.005 L 0.376,-0.497 C 0.372,-0.5 0.371,-0.504 0.371,-0.509 c 0,-0.004 0.001,-0.008 0.005,-0.012 0.004,-0.004 0.008,-0.005 0.012,-0.005 z m 0,-0.211 c 0.005,0 0.009,0.002 0.012,0.005 l 0.036,0.035 c 0.003,0.003 0.004,0.008 0.004,0.013 0,0.004 -0.001,0.009 -0.005,0.012 -0.003,0.004 -0.007,0.005 -0.012,0.005 -0.004,0 -0.008,-0.001 -0.012,-0.005 L 0.376,-0.707 C 0.372,-0.711 0.371,-0.715 0.371,-0.719 c 0,-0.005 0.001,-0.009 0.005,-0.012 0.004,-0.004 0.008,-0.006 0.012,-0.006 z m 0,0.632 c 0.005,0 0.009,0.002 0.012,0.005 l 0.036,0.035 c 0.003,0.003 0.004,0.007 0.004,0.012 0,0.005 -0.001,0.009 -0.005,0.012 -0.003,0.004 -0.007,0.006 -0.012,0.006 -0.004,0 -0.008,-0.002 -0.012,-0.006 L 0.376,-0.076 C 0.372,-0.079 0.371,-0.083 0.371,-0.088 0.371,-0.092 0.372,-0.096 0.376,-0.1 0.38,-0.103 0.384,-0.105 0.388,-0.105 Z m 0.263,-0.474 c 0,-0.005 0.002,-0.009 0.006,-0.012 l 0.035,-0.035 c 0.003,-0.004 0.007,-0.005 0.012,-0.005 0.005,0 0.009,0.001 0.012,0.005 0.003,0.003 0.005,0.007 0.005,0.012 0,0.005 -0.001,0.009 -0.005,0.012 L 0.681,-0.567 C 0.678,-0.563 0.674,-0.562 0.669,-0.562 0.664,-0.562 0.66,-0.563 0.657,-0.567 0.653,-0.57 0.651,-0.575 0.651,-0.579 Z"
         style="fill:#13a10e;fill-rule:nonzero"
         id="path12060" /></g></g></svg>
