<?xml version="1.0" encoding="UTF-8" standalone="no"?>
<svg
   width="14.73"
   height="16.844999"
   viewBox="0 0 14.73 16.844999"
   version="1.1"
   xml:space="preserve"
   style="clip-rule:evenodd;fill-rule:evenodd;stroke-linejoin:round;stroke-miterlimit:2"
   id="svg20568"
   sodipodi:docname="emojis.svg"
   xmlns:inkscape="http://www.inkscape.org/namespaces/inkscape"
   xmlns:sodipodi="http://sodipodi.sourceforge.net/DTD/sodipodi-0.dtd"
   xmlns="http://www.w3.org/2000/svg"
   xmlns:svg="http://www.w3.org/2000/svg"><defs
     id="defs20572" /><sodipodi:namedview
     id="namedview20570"
     pagecolor="#505050"
     bordercolor="#eeeeee"
     borderopacity="1"
     inkscape:pageshadow="0"
     inkscape:pageopacity="0"
     inkscape:pagecheckerboard="0" /><g
     transform="matrix(0.24,0,0,0.24,-609.4422,-110.71908)"
     id="g20566"><g
       transform="matrix(62.5,0,0,62.5,2531.53,518.392)"
       id="g1208"><path
         d="M 0.616,0.21 C 0.589,0.21 0.565,0.206 0.543,0.197 0.521,0.187 0.5,0.173 0.481,0.155 0.44,0.116 0.401,0.076 0.364,0.034 0.326,-0.009 0.289,-0.051 0.252,-0.092 0.21,-0.139 0.179,-0.19 0.157,-0.245 0.136,-0.3 0.125,-0.359 0.125,-0.421 c 0,-0.046 0.006,-0.089 0.018,-0.131 0.011,-0.042 0.028,-0.081 0.049,-0.117 0.021,-0.036 0.047,-0.07 0.077,-0.1 0.03,-0.03 0.063,-0.055 0.099,-0.076 0.037,-0.022 0.076,-0.038 0.118,-0.05 0.041,-0.012 0.085,-0.018 0.13,-0.018 0.045,0 0.089,0.006 0.131,0.018 0.042,0.012 0.081,0.028 0.117,0.05 0.036,0.021 0.069,0.046 0.099,0.076 0.03,0.03 0.056,0.064 0.077,0.1 0.022,0.036 0.038,0.075 0.05,0.117 0.012,0.042 0.017,0.085 0.017,0.131 0,0.03 -0.002,0.059 -0.008,0.089 -0.005,0.03 -0.013,0.059 -0.024,0.087 -0.011,0.028 -0.024,0.055 -0.039,0.08 -0.016,0.026 -0.034,0.05 -0.055,0.072 L 0.754,0.153 C 0.736,0.172 0.715,0.186 0.691,0.196 0.667,0.206 0.642,0.21 0.616,0.21 Z"
         style="fill-rule:nonzero"
         id="path1198" /><path
         d="m 0.616,-0.842 c 0.039,0 0.076,0.005 0.112,0.015 0.036,0.01 0.069,0.024 0.101,0.042 0.031,0.019 0.059,0.04 0.085,0.066 0.026,0.026 0.048,0.054 0.066,0.085 0.018,0.031 0.032,0.065 0.042,0.101 0.011,0.036 0.016,0.073 0.016,0.112 0,0.054 -0.01,0.104 -0.028,0.15 C 0.992,-0.224 0.965,-0.181 0.929,-0.14 0.905,-0.112 0.88,-0.085 0.854,-0.058 0.829,-0.031 0.804,-0.004 0.778,0.023 0.766,0.037 0.754,0.051 0.741,0.065 0.729,0.079 0.716,0.093 0.703,0.105 0.69,0.116 0.677,0.125 0.663,0.131 0.648,0.137 0.633,0.14 0.616,0.14 0.601,0.14 0.585,0.137 0.57,0.131 0.554,0.125 0.541,0.116 0.53,0.105 L 0.303,-0.14 C 0.268,-0.179 0.241,-0.222 0.223,-0.271 0.204,-0.319 0.195,-0.37 0.195,-0.421 c 0,-0.039 0.005,-0.076 0.015,-0.112 0.011,-0.036 0.025,-0.07 0.043,-0.101 0.018,-0.031 0.04,-0.059 0.066,-0.085 0.025,-0.026 0.054,-0.047 0.085,-0.066 0.031,-0.018 0.065,-0.032 0.1,-0.042 0.036,-0.01 0.073,-0.015 0.112,-0.015 z"
         style="fill:#79db75;fill-rule:nonzero"
         id="path1200" /><path
         d="m 0.616,0.035 c -0.006,0 -0.014,0 -0.023,-0.002 C 0.584,0.032 0.574,0.03 0.563,0.027 0.553,0.025 0.543,0.021 0.532,0.017 0.522,0.013 0.512,0.009 0.504,0.003 0.496,-0.002 0.489,-0.008 0.484,-0.014 0.479,-0.021 0.476,-0.028 0.476,-0.036 c 0,-0.01 0.003,-0.018 0.01,-0.025 0.007,-0.007 0.015,-0.01 0.025,-0.01 0.005,0 0.011,0.002 0.018,0.005 0.007,0.004 0.015,0.008 0.023,0.013 0.009,0.004 0.019,0.008 0.03,0.012 0.01,0.003 0.022,0.005 0.034,0.005 0.012,0 0.024,-0.002 0.035,-0.005 0.011,-0.004 0.021,-0.008 0.03,-0.012 0.009,-0.005 0.017,-0.009 0.024,-0.013 0.006,-0.003 0.012,-0.005 0.017,-0.005 0.009,0 0.018,0.003 0.025,0.01 0.006,0.008 0.01,0.016 0.01,0.025 0,0.008 -0.003,0.015 -0.008,0.022 C 0.744,-0.008 0.737,-0.002 0.729,0.003 0.72,0.009 0.711,0.013 0.7,0.017 0.69,0.021 0.679,0.025 0.669,0.027 0.659,0.03 0.649,0.032 0.639,0.033 0.63,0.035 0.622,0.035 0.616,0.035 Z"
         style="fill:#008272;fill-rule:nonzero"
         id="path1202" /><path
         d="m 0.932,-0.457 c 0.01,0 0.018,0.004 0.025,0.011 0.007,0.007 0.01,0.015 0.01,0.025 v 0.088 c 0,0.026 -0.005,0.051 -0.015,0.075 -0.01,0.023 -0.024,0.044 -0.041,0.061 -0.018,0.017 -0.038,0.031 -0.061,0.041 -0.024,0.01 -0.049,0.015 -0.076,0.015 H 0.687 c -0.01,0 -0.019,-0.003 -0.025,-0.01 C 0.655,-0.158 0.651,-0.166 0.651,-0.176 v -0.087 c 0,-0.027 0.005,-0.052 0.016,-0.075 0.01,-0.024 0.023,-0.044 0.041,-0.062 0.017,-0.017 0.038,-0.031 0.061,-0.041 0.023,-0.01 0.049,-0.016 0.075,-0.016 z m -0.544,0 c 0.027,0 0.052,0.006 0.075,0.016 0.024,0.01 0.044,0.024 0.062,0.041 0.017,0.018 0.031,0.038 0.041,0.062 0.01,0.023 0.015,0.048 0.015,0.075 v 0.087 c 0,0.01 -0.003,0.018 -0.01,0.025 -0.007,0.007 -0.015,0.01 -0.025,0.01 H 0.458 C 0.432,-0.141 0.407,-0.146 0.383,-0.156 0.36,-0.166 0.339,-0.18 0.322,-0.197 0.304,-0.214 0.29,-0.235 0.28,-0.258 0.27,-0.282 0.265,-0.307 0.265,-0.333 v -0.088 c 0,-0.01 0.004,-0.018 0.011,-0.025 0.007,-0.007 0.015,-0.011 0.024,-0.011 z"
         style="fill-rule:nonzero"
         id="path1204" /><path
         d="m 0.353,-0.421 c 0.007,0 0.014,0.001 0.02,0.004 0.007,0.003 0.012,0.006 0.017,0.011 0.005,0.005 0.009,0.011 0.012,0.017 0.002,0.006 0.004,0.013 0.004,0.02 0,0.008 -0.002,0.015 -0.004,0.021 C 0.399,-0.342 0.395,-0.336 0.39,-0.331 0.386,-0.327 0.38,-0.323 0.374,-0.32 0.367,-0.317 0.36,-0.316 0.353,-0.316 0.346,-0.316 0.339,-0.317 0.333,-0.32 0.326,-0.323 0.321,-0.327 0.316,-0.332 0.311,-0.336 0.307,-0.342 0.304,-0.348 0.302,-0.355 0.3,-0.361 0.3,-0.369 c 0,-0.007 0.002,-0.014 0.004,-0.02 0.003,-0.006 0.007,-0.012 0.012,-0.017 0.005,-0.005 0.01,-0.008 0.017,-0.011 0.006,-0.003 0.013,-0.004 0.02,-0.004 z m 0.457,0 c 0.007,0 0.013,0.001 0.02,0.004 0.006,0.003 0.012,0.006 0.016,0.011 0.005,0.005 0.009,0.011 0.012,0.017 0.002,0.006 0.004,0.013 0.004,0.02 0,0.008 -0.002,0.014 -0.004,0.021 C 0.855,-0.342 0.851,-0.336 0.847,-0.332 0.842,-0.327 0.837,-0.323 0.83,-0.32 0.824,-0.317 0.817,-0.316 0.81,-0.316 0.802,-0.316 0.795,-0.317 0.789,-0.32 0.782,-0.323 0.777,-0.327 0.772,-0.331 0.767,-0.336 0.764,-0.342 0.761,-0.348 0.758,-0.354 0.757,-0.361 0.757,-0.369 c 0,-0.007 0.001,-0.014 0.004,-0.02 0.003,-0.006 0.007,-0.012 0.011,-0.017 0.005,-0.005 0.011,-0.008 0.017,-0.011 0.007,-0.003 0.013,-0.004 0.021,-0.004 z"
         style="fill:#ffffff;fill-rule:nonzero"
         id="path1206" /></g></g></svg>
