<?xml version="1.0" encoding="UTF-8" standalone="no"?>
<svg
   width="16.844999"
   height="15.69"
   viewBox="0 0 16.844999 15.69"
   version="1.1"
   xml:space="preserve"
   style="clip-rule:evenodd;fill-rule:evenodd;stroke-linejoin:round;stroke-miterlimit:2"
   id="svg20568"
   sodipodi:docname="emojis.svg"
   xmlns:inkscape="http://www.inkscape.org/namespaces/inkscape"
   xmlns:sodipodi="http://sodipodi.sourceforge.net/DTD/sodipodi-0.dtd"
   xmlns="http://www.w3.org/2000/svg"
   xmlns:svg="http://www.w3.org/2000/svg"><defs
     id="defs20572" /><sodipodi:namedview
     id="namedview20570"
     pagecolor="#505050"
     bordercolor="#eeeeee"
     borderopacity="1"
     inkscape:pageshadow="0"
     inkscape:pageopacity="0"
     inkscape:pagecheckerboard="0" /><g
     transform="matrix(0.24,0,0,0.24,-262.2006,-643.1808)"
     id="g20566"><g
       transform="matrix(62.5,0,0,62.5,1084.69,2732.17)"
       id="g12162"><path
         d="m 0.827,-0.485 0.07,-0.071 0.351,0.351 v 0.1 h -0.07 v 0.097 c 0.003,0.003 0.007,0.007 0.01,0.011 0.004,0.003 0.007,0.008 0.01,0.012 0.015,0.01 0.028,0.022 0.037,0.038 0.009,0.016 0.013,0.033 0.013,0.052 V 0.21 H 0.125 V 0.105 C 0.125,0.086 0.129,0.069 0.138,0.053 0.147,0.037 0.16,0.025 0.175,0.015 0.181,0.007 0.187,-0.001 0.195,-0.008 v -0.378 h -0.07 v -0.099 l 0.351,-0.351 z"
         style="fill-rule:nonzero"
         id="path12148" /><path
         d="m 0.265,-0.492 0.211,-0.199 0.212,0.203 v 0.242 l 0.028,0.042 V 0.057 C 0.711,0.065 0.706,0.073 0.702,0.082 0.698,0.09 0.693,0.098 0.687,0.105 0.682,0.11 0.677,0.114 0.672,0.118 0.667,0.122 0.662,0.126 0.657,0.13 H 0.302 L 0.265,0.105 0.246,0.07 0.265,0.035 c 0,-0.088 0,-0.176 0,-0.264 0,-0.087 0,-0.175 0,-0.263 z"
         style="fill:#e5e5e5;fill-rule:nonzero"
         id="path12150" /><path
         d="m 0.687,-0.176 0.022,-0.049 0.188,-0.186 0.208,0.208 c 0.001,0.004 0.001,0.009 0.002,0.014 0,0.004 0,0.009 0,0.013 V 0.105 L 1.061,0.125 H 0.722 L 0.687,0.105 Z"
         style="fill:#f2f2f2;fill-rule:nonzero"
         id="path12152" /><path
         d="m 1.143,0.07 c 0.009,0 0.017,0.004 0.024,0.011 0.007,0.006 0.011,0.015 0.011,0.024 V 0.14 H 0.897 L 0.88,0.123 0.897,0.105 C 0.897,0.096 0.9,0.087 0.907,0.081 0.914,0.074 0.923,0.07 0.932,0.07 h 0.106 c 0,-0.009 0.003,-0.018 0.01,-0.025 0.007,-0.006 0.015,-0.01 0.025,-0.01 0.006,0 0.012,0.002 0.017,0.005 0.006,-0.003 0.011,-0.005 0.017,-0.005 0.01,0 0.018,0.004 0.025,0.01 0.007,0.007 0.011,0.016 0.011,0.025 z m -0.492,0 c 0.01,0 0.018,0.004 0.025,0.011 0.007,0.006 0.011,0.015 0.011,0.024 L 0.704,0.122 0.687,0.14 H 0.476 L 0.457,0.124 0.476,0.105 C 0.476,0.096 0.48,0.087 0.487,0.081 0.494,0.074 0.502,0.07 0.511,0.07 Z M 0.265,0.035 v 0.07 L 0.275,0.124 0.265,0.14 H 0.195 V 0.105 C 0.195,0.096 0.199,0.087 0.206,0.081 0.213,0.074 0.221,0.07 0.23,0.07 0.23,0.061 0.234,0.053 0.241,0.046 0.248,0.039 0.256,0.035 0.265,0.035 Z"
         style="fill:#16c60c;fill-rule:nonzero"
         id="path12154" /><path
         d="m 0.3,-0.316 v -0.141 h 0.141 v 0.141 z m 0.632,0.14 h 0.141 v 0.141 H 0.932 Z m -0.421,0.141 v -0.141 h 0.14 v 0.141 z m 0,-0.281 v -0.141 h 0.14 v 0.141 z"
         style="fill:#31d2f7;fill-rule:nonzero"
         id="path12156" /><path
         d="M 0.265,0.14 V 0.105 H 0.3 L 0.373,0.076 0.44,0.105 H 0.476 V 0.14 Z M 0.687,0.105 H 0.722 L 0.789,0.076 0.862,0.105 H 0.897 V 0.14 h -0.21 z"
         style="fill:#cccccc;fill-rule:nonzero"
         id="path12158" /><path
         d="m 0.3,0.105 v -0.281 h 0.141 v 0.281 z m 0.422,0 v -0.281 h 0.14 v 0.281 z m 0.035,-0.562 h -0.07 l -0.211,-0.21 -0.211,0.21 h -0.07 l 0.281,-0.28 z m 0.14,0 0.281,0.281 H 1.107 l -0.21,-0.21 -0.21,0.21 v -0.07 z"
         style="fill:#f03a17;fill-rule:nonzero"
         id="path12160" /></g></g></svg>
