<?xml version="1.0" encoding="UTF-8" standalone="no"?>
<svg
   width="16.844999"
   height="16.844999"
   viewBox="0 0 16.844999 16.844999"
   version="1.1"
   xml:space="preserve"
   style="clip-rule:evenodd;fill-rule:evenodd;stroke-linejoin:round;stroke-miterlimit:2"
   id="svg20568"
   sodipodi:docname="emojis.svg"
   xmlns:inkscape="http://www.inkscape.org/namespaces/inkscape"
   xmlns:sodipodi="http://sodipodi.sourceforge.net/DTD/sodipodi-0.dtd"
   xmlns="http://www.w3.org/2000/svg"
   xmlns:svg="http://www.w3.org/2000/svg"><defs
     id="defs20572" /><sodipodi:namedview
     id="namedview20570"
     pagecolor="#505050"
     bordercolor="#eeeeee"
     borderopacity="1"
     inkscape:pageshadow="0"
     inkscape:pageopacity="0"
     inkscape:pagecheckerboard="0" /><g
     transform="matrix(0.24,0,0,0.24,-221.00892,-642.0258)"
     id="g20566"><g
       transform="matrix(62.5,0,0,62.5,913.058,2732.17)"
       id="g12134"><path
         d="m 1.213,-0.386 v 0.035 H 1.248 V 0.21 H 0.371 V -0.457 H 0.16 V -0.526 H 0.125 v -0.122 l 0.052,-0.104 0.281,-0.161 h 0.097 l 0.623,0.156 v 0.231 H 1.107 v 0.123 c 0.003,0.003 0.005,0.005 0.007,0.008 10e-4,0.003 0.003,0.006 0.005,0.009 z"
         style="fill-rule:nonzero"
         id="path12116" /><path
         d="m 0.736,0.125 v -0.25 C 0.742,-0.13 0.748,-0.135 0.755,-0.139 0.761,-0.143 0.768,-0.147 0.774,-0.15 l 0.018,0.009 H 1.107 L 1.125,-0.15 1.143,-0.141 H 1.178 V 0.14 H 1.107 L 1.092,0.125 H 1.016 L 1.002,0.14 H 0.932 L 0.918,0.13 H 0.838 L 0.827,0.14 H 0.756 Z"
         style="fill:#f03a17;fill-rule:nonzero"
         id="path12118" /><rect
         x="0.722"
         y="-0.141"
         width="0.035"
         height="0.28099999"
         style="fill:#af0d1a;fill-rule:nonzero"
         id="rect12120" /><path
         d="m 0.757,-0.141 v -0.175 h 0.035 v 0.175 z M 0.23,-0.526 V -0.597 L 0.264,-0.616 0.3,-0.597 v 0.071 z m 0.737,0.069 v -0.105 l 0.017,-0.019 0.018,0.019 v 0.105 z"
         style="fill:#cccccc;fill-rule:nonzero"
         id="path12122" /><path
         d="M 0.827,0 V -0.105 H 0.932 V 0 Z M 1.002,-0.105 H 1.107 V 0 H 1.002 Z M 0.827,0.14 V 0.07 h 0.105 v 0.07 z m 0.175,0 V 0.07 h 0.105 v 0.07 z"
         style="fill:#383838;fill-rule:nonzero"
         id="path12124" /><path
         d="M 1.178,-0.246 H 1.143 v 0.036 h 0.035 v 0.034 H 1.143 v 0.035 H 1.107 V -0.176 H 0.722 V -0.21 H 1.107 V -0.246 H 0.985 c 0,0 -0.002,0.001 -0.006,0.002 -0.003,0.001 -0.007,0.002 -0.011,0.003 -0.004,0.001 -0.007,0.002 -0.011,0.003 -0.003,0.002 -0.005,0.002 -0.005,0.002 -0.001,0 -0.003,-0.001 -0.007,-0.002 L 0.915,-0.246 H 0.722 v -0.035 h 0.177 c 0.003,0 0.005,-10e-4 0.008,-0.002 0.004,-0.002 0.006,-0.003 0.009,-0.003 0.003,0 0.006,0.001 0.01,0.003 0.003,0.001 0.006,0.002 0.009,0.002 h 0.172 v -0.035 h 0.036 v 0.035 H 1.178 Z M 1.107,-0.702 1.067,-0.677 0.546,-0.807 0.531,-0.826 0.546,-0.842 Z M 0.23,-0.667 v -0.035 l 0.246,-0.14 0.02,0.019 c -0.004,0.003 -0.007,0.006 -0.01,0.008 -0.003,0.003 -0.006,0.006 -0.01,0.008 z m 0.808,0.21 H 1.001 l -0.015,0.02 -0.017,-0.02 H 0.932 v -0.034 h 0.106 z"
         style="fill:#e5e5e5;fill-rule:nonzero"
         id="path12126" /><path
         d="m 1.002,-0.457 v 0.018 c 0,0.01 0.002,0.018 0.006,0.025 0.003,0.008 0.007,0.014 0.013,0.02 0.005,0.007 0.01,0.013 0.017,0.019 0.006,0.006 0.011,0.012 0.017,0.02 0.005,0.007 0.009,0.015 0.013,0.024 0.003,0.009 0.005,0.02 0.005,0.033 0,0.012 -0.003,0.024 -0.007,0.034 -0.005,0.011 -0.011,0.02 -0.019,0.028 C 1.039,-0.228 1.03,-0.222 1.019,-0.217 1.008,-0.213 0.997,-0.21 0.985,-0.21 0.971,-0.21 0.958,-0.214 0.946,-0.22 0.933,-0.226 0.923,-0.235 0.915,-0.246 h 0.07 c 0.007,0 0.014,-0.001 0.02,-0.004 0.006,-0.003 0.012,-0.006 0.017,-0.011 0.005,-0.005 0.009,-0.011 0.011,-0.017 0.003,-0.006 0.005,-0.013 0.005,-0.02 0,-0.01 -0.002,-0.019 -0.006,-0.026 C 1.029,-0.331 1.025,-0.337 1.02,-0.344 1.014,-0.35 1.009,-0.355 1.002,-0.361 0.996,-0.367 0.991,-0.374 0.985,-0.381 0.98,-0.388 0.976,-0.396 0.972,-0.406 0.969,-0.415 0.967,-0.426 0.967,-0.439 v -0.018 z m 0.036,-0.14 v 0.035 H 0.932 v -0.035 l 0.053,-0.019 z m -0.123,0.281 c 0.005,0 0.009,0.001 0.011,0.004 0.002,0.002 0.004,0.005 0.005,0.009 0.001,0.003 0.001,0.007 0.002,0.011 0,0.004 0.001,0.008 0.002,0.011 H 0.899 C 0.898,-0.286 0.897,-0.292 0.897,-0.298 c 0,-0.005 0.002,-0.009 0.005,-0.013 0.004,-0.003 0.008,-0.005 0.013,-0.005 z"
         style="fill:#757575;fill-rule:nonzero"
         id="path12128" /><path
         d="m 0.897,-0.632 0.027,-0.054 0.035,-0.001 c -0.004,0.009 -0.008,0.019 -0.012,0.028 -0.004,0.01 -0.009,0.019 -0.015,0.027 -0.002,0.004 -0.006,0.007 -0.009,0.01 -0.004,0.003 -0.007,0.006 -0.01,0.01 z"
         style="fill:#fff100;fill-rule:nonzero"
         id="path12130" /><path
         d="m 0.581,-0.702 h 0.526 v 0.105 H 0.581 V 0.14 H 0.546 V 0.105 L 0.476,0.14 H 0.441 V -0.597 H 0.195 v -0.035 l 0.035,-0.07 h 0.211 v -0.035 l 0.035,-0.07 v -0.035 h 0.07 v 0.035 l 0.035,0.07 z m 0.281,0.07 h 0.14 L 0.985,-0.667 H 0.844 Z m -0.316,0.106 v -0.071 l -0.07,0.035 z m -0.07,0.21 0.07,-0.035 -0.07,-0.035 z m 0.07,-0.07 v -0.071 l -0.07,0.036 z m 0,0.421 v -0.07 L 0.476,0 Z m -0.07,-0.07 0.07,-0.035 -0.07,-0.035 z m 0.07,-0.07 v -0.071 l -0.07,0.035 z m 0,-0.141 v -0.07 l -0.07,0.035 z m -0.07,0.07 0.07,-0.034 -0.07,-0.036 z m 0,0.281 0.07,-0.035 -0.07,-0.035 z m 0.035,-0.912 -0.035,0.07 h 0.07 z m -0.035,0.35 0.07,-0.034 -0.07,-0.035 z m 0.211,-0.175 h 0.035 l 0.017,-0.035 h -0.07 z m -0.281,0 h 0.07 L 0.458,-0.667 H 0.423 Z m 0.175,0 h 0.07 L 0.634,-0.667 H 0.599 Z m -0.246,0 h 0.036 l 0.017,-0.035 h -0.07 z m 0.422,0 h 0.07 L 0.81,-0.667 H 0.774 Z m -0.246,0 H 0.546 L 0.563,-0.667 H 0.494 Z m -0.281,0 H 0.3 L 0.283,-0.667 H 0.248 Z m 0.843,0 V -0.667 H 1.02 l 0.018,0.035 z"
         style="fill:#ffc83d;fill-rule:nonzero"
         id="path12132" /></g></g></svg>
