<?xml version="1.0" encoding="UTF-8" standalone="no"?>
<svg
   width="14.73"
   height="16.754999"
   viewBox="0 0 14.73 16.754999"
   version="1.1"
   xml:space="preserve"
   style="clip-rule:evenodd;fill-rule:evenodd;stroke-linejoin:round;stroke-miterlimit:2"
   id="svg20568"
   sodipodi:docname="emojis.svg"
   xmlns:inkscape="http://www.inkscape.org/namespaces/inkscape"
   xmlns:sodipodi="http://sodipodi.sourceforge.net/DTD/sodipodi-0.dtd"
   xmlns="http://www.w3.org/2000/svg"
   xmlns:svg="http://www.w3.org/2000/svg"><defs
     id="defs20572" /><sodipodi:namedview
     id="namedview20570"
     pagecolor="#505050"
     bordercolor="#eeeeee"
     borderopacity="1"
     inkscape:pageshadow="0"
     inkscape:pageopacity="0"
     inkscape:pagecheckerboard="0" /><g
     transform="matrix(0.24,0,0,0.24,-282.795,-642.1158)"
     id="g20566"><g
       transform="matrix(62.5,0,0,62.5,1170.5,2732.17)"
       id="g12180"><path
         d="m 0.406,-0.696 0.21,-0.211 0.491,0.492 v 0.099 H 1.038 V 0 H 1.107 V 0.21 H 0.125 V 0 h 0.07 v -0.316 h -0.07 v -0.099 l 0.251,-0.252 h 0.03 z"
         style="fill-rule:nonzero"
         id="path12164" /><path
         d="m 0.862,-0.526 h 0.035 l 0.141,0.14 H 0.195 l 0.07,-0.071 H 0.3 v -0.034 l 0.106,-0.106 h 0.07 v -0.07 l 0.14,-0.14 0.246,0.245 z"
         style="fill:#8e562e;fill-rule:nonzero"
         id="path12166" /><path
         d="m 0.265,-0.386 0.351,-0.351 0.351,0.351 V 0.125 H 0.265 Z"
         style="fill:#f2f2f2;fill-rule:nonzero"
         id="path12168" /><path
         d="M 0.71,-0.331 0.686,-0.351 0.701,-0.37 0.686,-0.386 v -0.035 l 0.024,-0.02 h 0.092 l 0.025,0.02 -0.015,0.016 0.015,0.019 v 0.035 l -0.025,0.02 z m 0.001,0.17 h 0.091 l 0.025,0.02 v 0.036 L 0.812,-0.086 0.827,-0.07 0.802,-0.05 H 0.711 L 0.687,-0.07 V -0.105 L 0.701,-0.121 0.687,-0.141 Z M 0.43,-0.331 0.406,-0.351 0.42,-0.37 0.406,-0.386 v -0.035 l 0.024,-0.02 h 0.091 l 0.025,0.02 -0.015,0.016 0.015,0.019 v 0.035 l -0.025,0.02 z m 0,0.281 L 0.406,-0.07 0.42,-0.089 0.406,-0.105 v -0.036 l 0.024,-0.02 h 0.091 l 0.025,0.021 -0.015,0.015 0.015,0.02 v 0.035 l -0.025,0.02 z m 0,0.141 L 0.406,0.07 0.42,0.051 0.406,0.035 V 0 L 0.43,-0.02 H 0.521 L 0.546,0 0.531,0.016 0.546,0.036 V 0.07 L 0.521,0.091 Z"
         style="fill:#383838;fill-rule:nonzero"
         id="path12170" /><path
         d="M 1.002,0.105 1.038,0.07 V 0.14 H 0.581 L 0.559,0.123 C 0.569,0.116 0.579,0.107 0.589,0.098 0.598,0.089 0.607,0.08 0.616,0.07 L 0.651,0.105 0.687,0.07 0.722,0.105 0.757,0.07 0.792,0.105 0.827,0.07 0.862,0.105 0.897,0.07 0.932,0.105 0.967,0.07 Z M 0.403,0.119 0.371,0.14 H 0.195 V 0.07 L 0.23,0.105 0.265,0.07 0.3,0.105 0.335,0.07 0.371,0.105 Z"
         style="fill:#ffc83d;fill-rule:nonzero"
         id="path12172" /><path
         d="M 0.371,0.14 V 0.105 H 0.406 L 0.427,0.09 h 0.099 l 0.02,0.015 H 0.581 V 0.14 Z"
         style="fill:#e5e5e5;fill-rule:nonzero"
         id="path12174" /><path
         d="m 0.687,-0.316 v -0.035 h 0.14 v 0.035 z m -0.281,0.175 v -0.035 h 0.14 v 0.035 z m 0,0.106 V -0.07 h 0.14 v 0.035 z m 0,0.105 V 0.035 L 0.546,0 v 0.035 z m 0,-0.421 v -0.035 l 0.14,-0.035 v 0.035 z m 0.281,0.246 v -0.036 l 0.14,0.036 v 0.035 z m 0,-0.352 h 0.14 v 0.036 h -0.14 z"
         style="fill:#bb9167;fill-rule:nonzero"
         id="path12176" /><path
         d="m 0.687,-0.386 0.14,-0.035 v 0.035 l -0.14,0.035 z M 0.406,-0.07 v -0.035 l 0.14,-0.036 v 0.036 z m 0,0.07 v -0.035 h 0.14 V 0 Z M 0.687,-0.035 V -0.07 h 0.14 v 0.035 z M 0.406,-0.421 v -0.036 h 0.14 v 0.036 z m 0,0.105 v -0.035 h 0.14 v 0.035 z m 0.281,0.175 v -0.035 h 0.14 v 0.035 z M 0.406,0.105 V 0.07 h 0.14 v 0.035 z"
         style="fill:#d8b094;fill-rule:nonzero"
         id="path12178" /></g></g></svg>
