<?xml version="1.0" encoding="UTF-8" standalone="no"?>
<svg
   width="16.844999"
   height="16.844999"
   viewBox="0 0 16.844999 16.844999"
   version="1.1"
   xml:space="preserve"
   style="clip-rule:evenodd;fill-rule:evenodd;stroke-linejoin:round;stroke-miterlimit:2"
   id="svg20568"
   sodipodi:docname="emojis.svg"
   xmlns:inkscape="http://www.inkscape.org/namespaces/inkscape"
   xmlns:sodipodi="http://sodipodi.sourceforge.net/DTD/sodipodi-0.dtd"
   xmlns="http://www.w3.org/2000/svg"
   xmlns:svg="http://www.w3.org/2000/svg"><defs
     id="defs20572" /><sodipodi:namedview
     id="namedview20570"
     pagecolor="#505050"
     bordercolor="#eeeeee"
     borderopacity="1"
     inkscape:pageshadow="0"
     inkscape:pageopacity="0"
     inkscape:pagecheckerboard="0" /><g
     transform="matrix(0.24,0,0,0.24,-179.81748,-642.0258)"
     id="g20566"><g
       transform="matrix(62.5,0,0,62.5,741.427,2732.17)"
       id="g12100"><path
         d="m 1.213,-0.737 v 0.07 H 1.248 V 0.21 H 0.125 V -0.667 H 0.16 v -0.07 h 0.246 v -0.176 h 0.561 v 0.176 z"
         style="fill-rule:nonzero"
         id="path12082" /><path
         d="m 0.195,-0.491 v -0.035 l 0.049,-0.025 h 0.889 l 0.045,0.025 v 0.035 l -0.047,0.029 h -0.89 z m 0.632,-0.094 v -0.059 h 0.035 v 0.059 z m -0.316,0 v -0.059 h 0.035 v 0.059 z"
         style="fill:#757575;fill-rule:nonzero"
         id="path12084" /><path
         d="M 0.195,0.14 V -0.491 H 1.178 V 0.14 H 1.107 L 1.093,0.125 H 0.98 L 0.967,0.14 H 0.897 L 0.868,0.116 H 0.503 L 0.476,0.14 H 0.406 L 0.389,0.121 H 0.28 L 0.265,0.14 Z m 0,-0.737 h 0.983 v 0.071 H 0.195 Z"
         style="fill:#cccccc;fill-rule:nonzero"
         id="path12086" /><path
         d="M 0.476,0.14 V -0.281 H 0.897 V 0.14 H 0.827 L 0.756,0.101 H 0.615 L 0.546,0.14 Z"
         style="fill:#f2f2f2;fill-rule:nonzero"
         id="path12088" /><path
         d="m 0.687,-0.21 c 0.019,0 0.037,0.003 0.054,0.011 0.017,0.007 0.032,0.017 0.045,0.03 0.012,0.012 0.022,0.027 0.03,0.044 0.007,0.017 0.011,0.035 0.011,0.055 V 0.14 H 0.546 v -0.21 c 0,-0.02 0.004,-0.038 0.011,-0.055 0.007,-0.017 0.017,-0.032 0.03,-0.044 C 0.6,-0.182 0.615,-0.192 0.632,-0.199 0.649,-0.207 0.667,-0.21 0.687,-0.21 Z M 0.476,-0.632 v -0.21 h 0.421 v 0.21 z m -0.141,0.491 c 0.01,0 0.019,0.002 0.028,0.006 0.008,0.004 0.016,0.009 0.022,0.015 0.006,0.006 0.011,0.014 0.015,0.022 0.004,0.009 0.006,0.018 0.006,0.028 V 0.14 H 0.265 v -0.21 c 0,-0.01 0.002,-0.019 0.006,-0.028 C 0.274,-0.106 0.28,-0.114 0.286,-0.12 0.292,-0.126 0.3,-0.131 0.308,-0.135 0.317,-0.139 0.326,-0.141 0.335,-0.141 Z m 0.703,0 c 0.009,0 0.018,0.002 0.027,0.006 0.008,0.004 0.016,0.009 0.022,0.015 0.007,0.006 0.011,0.014 0.015,0.022 0.004,0.009 0.005,0.018 0.005,0.028 v 0.21 h -0.14 v -0.21 c 0,-0.01 0.002,-0.019 0.006,-0.028 0.004,-0.008 0.009,-0.016 0.015,-0.022 0.006,-0.006 0.014,-0.011 0.022,-0.015 0.009,-0.004 0.018,-0.006 0.028,-0.006 z"
         style="fill:#383838;fill-rule:nonzero"
         id="path12090" /><path
         d="m 0.932,-0.632 v -0.07 l 0.07,0.035 z m -0.561,0 v -0.07 l 0.07,0.035 z m -0.141,0 v -0.07 l 0.07,0.035 z m 0.843,0 v -0.07 l 0.07,0.035 z"
         style="fill:#31d2f7;fill-rule:nonzero"
         id="path12092" /><path
         d="m 0.476,-0.351 v -0.07 h 0.421 v 0.07 z m 0.351,-0.351 v -0.035 h 0.035 v 0.035 z"
         style="fill:#f03a17;fill-rule:nonzero"
         id="path12094" /><rect
         x="0.82700002"
         y="-0.80699998"
         width="0.035"
         height="0.035"
         style="fill:#16c60c;fill-rule:nonzero"
         id="rect12096" /><path
         d="m 0.546,-0.667 v -0.07 h 0.07 v 0.07 z m 0.141,0 v -0.07 h 0.07 v 0.07 z m 0,-0.105 v -0.035 h 0.035 v 0.035 z m -0.141,0 v -0.035 h 0.035 v 0.035 z"
         style="fill:#ffc83d;fill-rule:nonzero"
         id="path12098" /></g></g></svg>
