<?xml version="1.0" encoding="UTF-8" standalone="no"?>
<svg
   width="16.844999"
   height="16.844999"
   viewBox="0 0 16.844999 16.844999"
   version="1.1"
   xml:space="preserve"
   style="clip-rule:evenodd;fill-rule:evenodd;stroke-linejoin:round;stroke-miterlimit:2"
   id="svg20568"
   sodipodi:docname="emojis.svg"
   xmlns:inkscape="http://www.inkscape.org/namespaces/inkscape"
   xmlns:sodipodi="http://sodipodi.sourceforge.net/DTD/sodipodi-0.dtd"
   xmlns="http://www.w3.org/2000/svg"
   xmlns:svg="http://www.w3.org/2000/svg"><defs
     id="defs20572" /><sodipodi:namedview
     id="namedview20570"
     pagecolor="#505050"
     bordercolor="#eeeeee"
     borderopacity="1"
     inkscape:pageshadow="0"
     inkscape:pageopacity="0"
     inkscape:pagecheckerboard="0" /><g
     transform="matrix(0.24,0,0,0.24,-422.2422,-642.0258)"
     id="g20566"><g
       transform="matrix(62.5,0,0,62.5,1751.53,2732.17)"
       id="g12294"><path
         d="M 0.967,-0.632 H 1.248 V 0.21 H 0.125 v -1.123 h 0.842 z"
         style="fill-rule:nonzero"
         id="path12278" /><path
         d="m 0.195,0.14 v -0.912 l 0.052,-0.039 h 0.597 l 0.053,0.039 v 0.491 L 0.931,-0.246 0.897,-0.21 V 0.14 H 0.792 L 0.758,0.111 H 0.617 L 0.582,0.14 H 0.476 L 0.451,0.116 H 0.36 L 0.335,0.14 Z"
         style="fill:#e5e5e5;fill-rule:nonzero"
         id="path12280" /><path
         d="M 0.581,0.14 V -0.176 H 0.792 V 0.14 H 0.757 L 0.685,0.096 0.616,0.14 Z M 0.335,0.105 v -0.21 h 0.141 v 0.21 z M 1.143,-0.21 H 1.178 V 0.14 H 1.143 Z"
         style="fill:#757575;fill-rule:nonzero"
         id="path12282" /><path
         d="M 0.616,0.14 V -0.141 H 0.757 V 0.14 Z M 0.335,-0.281 v -0.14 h 0.141 v 0.14 z m 0,-0.281 v -0.14 h 0.141 v 0.14 z m 0.281,-0.14 h 0.141 v 0.14 H 0.616 Z m 0,0.421 v -0.14 h 0.141 v 0.14 z"
         style="fill:#31d2f7;fill-rule:nonzero"
         id="path12284" /><path
         d="m 0.932,-0.562 h 0.246 v 0.246 H 0.932 Z M 0.335,0.035 C 0.346,0.023 0.356,0.013 0.368,0.002 c 0.011,-0.01 0.024,-0.019 0.037,-0.026 0.014,0.007 0.027,0.016 0.038,0.026 0.012,0.01 0.023,0.021 0.033,0.033 L 0.407,0.06 Z"
         style="fill:#f2f2f2;fill-rule:nonzero"
         id="path12286" /><path
         d="m 0.897,-0.842 v 0.07 H 0.195 v -0.07 z M 1.09,-0.351 H 0.967 V -0.526 H 1.09 c 0.007,0 0.014,0.001 0.021,0.004 0.006,0.003 0.011,0.006 0.016,0.011 0.005,0.005 0.009,0.01 0.011,0.017 0.003,0.006 0.005,0.013 0.005,0.02 0,0.006 -0.002,0.013 -0.004,0.019 -0.002,0.006 -0.006,0.011 -0.01,0.016 0.004,0.005 0.008,0.01 0.01,0.016 0.002,0.006 0.004,0.013 0.004,0.019 0,0.007 -0.002,0.014 -0.005,0.02 -0.002,0.007 -0.006,0.012 -0.011,0.017 -0.005,0.005 -0.01,0.009 -0.016,0.012 -0.007,0.003 -0.014,0.004 -0.021,0.004 z m -0.193,0.07 H 1.178 V -0.21 H 0.897 Z m 0.105,-0.14 v 0.035 H 1.09 c 0.005,0 0.009,-0.002 0.012,-0.006 0.004,-0.003 0.005,-0.007 0.005,-0.012 0,-0.004 -10e-4,-0.008 -0.005,-0.012 C 1.099,-0.42 1.095,-0.421 1.09,-0.421 Z M 1.09,-0.491 H 1.002 v 0.034 H 1.09 c 0.005,0 0.009,-0.001 0.012,-0.005 0.004,-0.003 0.005,-0.008 0.005,-0.012 0,-0.005 -10e-4,-0.009 -0.005,-0.012 C 1.099,-0.49 1.095,-0.491 1.09,-0.491 Z M 0.23,-0.035 V -0.07 H 0.3 v 0.035 z"
         style="fill:#16c60c;fill-rule:nonzero"
         id="path12288" /><rect
         x="0.37099999"
         y="-0.07"
         width="0.07"
         height="0.07"
         style="fill:#0046ff;fill-rule:nonzero"
         id="rect12290" /><rect
         x="0.33500001"
         y="0.035"
         width="0.141"
         height="0.105"
         style="fill:#383838;fill-rule:nonzero"
         id="rect12292" /></g></g></svg>
