<?xml version="1.0" encoding="UTF-8" standalone="no"?>
<svg
   width="16.844999"
   height="16.754999"
   viewBox="0 0 16.844999 16.754999"
   version="1.1"
   xml:space="preserve"
   style="clip-rule:evenodd;fill-rule:evenodd;stroke-linejoin:round;stroke-miterlimit:2"
   id="svg20568"
   sodipodi:docname="emojis.svg"
   xmlns:inkscape="http://www.inkscape.org/namespaces/inkscape"
   xmlns:sodipodi="http://sodipodi.sourceforge.net/DTD/sodipodi-0.dtd"
   xmlns="http://www.w3.org/2000/svg"
   xmlns:svg="http://www.w3.org/2000/svg"><defs
     id="defs20572" /><sodipodi:namedview
     id="namedview20570"
     pagecolor="#505050"
     bordercolor="#eeeeee"
     borderopacity="1"
     inkscape:pageshadow="0"
     inkscape:pageopacity="0"
     inkscape:pagecheckerboard="0" /><g
     transform="matrix(0.24,0,0,0.24,-319.7838,-642.1158)"
     id="g20566"><g
       transform="matrix(62.5,0,0,62.5,1324.62,2732.17)"
       id="g12214"><path
         d="m 0.651,-0.8 0.106,-0.107 0.491,0.492 v 0.099 h -0.07 v 0.308 c 0.007,0.006 0.014,0.014 0.019,0.023 0.016,0.01 0.028,0.022 0.037,0.038 0.009,0.016 0.014,0.033 0.014,0.052 V 0.21 H 0.125 V 0.105 C 0.125,0.091 0.128,0.077 0.134,0.064 0.139,0.052 0.147,0.041 0.156,0.031 0.166,0.021 0.177,0.014 0.19,0.008 0.203,0.003 0.216,0 0.23,0 H 0.265 V -0.095 C 0.244,-0.105 0.225,-0.117 0.208,-0.132 0.191,-0.147 0.176,-0.164 0.164,-0.183 0.151,-0.202 0.142,-0.222 0.135,-0.244 0.128,-0.266 0.125,-0.288 0.125,-0.312 0.125,-0.341 0.13,-0.37 0.141,-0.397 0.152,-0.424 0.168,-0.448 0.188,-0.47 0.183,-0.488 0.181,-0.505 0.181,-0.522 c 0,-0.025 0.004,-0.049 0.013,-0.072 0.008,-0.023 0.02,-0.044 0.035,-0.062 0.016,-0.018 0.034,-0.034 0.054,-0.047 0.021,-0.013 0.044,-0.022 0.068,-0.028 0.008,-0.017 0.018,-0.032 0.031,-0.046 0.012,-0.014 0.026,-0.025 0.042,-0.035 0.015,-0.01 0.032,-0.017 0.05,-0.022 0.018,-0.006 0.036,-0.008 0.055,-0.008 0.022,0 0.043,0.003 0.064,0.01 0.021,0.008 0.04,0.018 0.058,0.032 z"
         style="fill-rule:nonzero"
         id="path12196" /><path
         d="m 0.367,-0.364 c 0.006,-0.01 0.012,-0.019 0.018,-0.03 0.006,-0.01 0.013,-0.019 0.021,-0.026 l 0.351,-0.351 0.35,0.351 V 0.105 C 1.104,0.106 1.099,0.108 1.091,0.11 1.083,0.112 1.075,0.114 1.067,0.116 1.058,0.118 1.051,0.12 1.043,0.122 1.036,0.124 1.032,0.125 1.03,0.125 H 0.368 C 0.367,0.071 0.367,0.017 0.367,-0.036 c 0,-0.053 0,-0.106 0,-0.16 z"
         style="fill:#f2f2f2;fill-rule:nonzero"
         id="path12198" /><rect
         x="0.33500001"
         y="-0.176"
         width="0.07"
         height="0.24600001"
         style="fill:#ca5010;fill-rule:nonzero"
         id="rect12200" /><path
         d="m 0.528,-0.772 c 0.026,0 0.049,0.007 0.07,0.021 0.021,0.013 0.036,0.032 0.047,0.056 0.002,0.005 0.004,0.011 0.006,0.017 0.002,0.005 0.004,0.011 0.006,0.016 l -0.252,0.25 c 0,0.005 0,0.009 0.001,0.013 0,0.004 0,0.009 0,0.013 v 0.245 H 0.375 C 0.351,-0.141 0.329,-0.145 0.307,-0.154 0.285,-0.162 0.266,-0.174 0.25,-0.189 0.233,-0.204 0.22,-0.222 0.21,-0.243 0.2,-0.264 0.195,-0.287 0.195,-0.312 c 0,-0.028 0.007,-0.055 0.02,-0.079 0.014,-0.024 0.032,-0.044 0.056,-0.06 C 0.257,-0.472 0.25,-0.496 0.25,-0.522 c 0,-0.021 0.005,-0.041 0.013,-0.058 0.009,-0.018 0.02,-0.033 0.034,-0.046 0.014,-0.013 0.031,-0.023 0.049,-0.03 0.019,-0.007 0.038,-0.011 0.059,-0.011 0.002,-0.016 0.006,-0.03 0.014,-0.043 0.007,-0.013 0.016,-0.024 0.027,-0.033 0.011,-0.009 0.024,-0.016 0.038,-0.021 0.014,-0.005 0.029,-0.008 0.044,-0.008 z M 0.476,0.07 c 0.01,0 0.018,0.004 0.025,0.011 0.007,0.006 0.01,0.015 0.01,0.024 L 0.526,0.123 0.511,0.14 H 0.195 V 0.105 C 0.195,0.096 0.199,0.087 0.206,0.081 0.213,0.074 0.221,0.07 0.23,0.07 H 0.335 C 0.335,0.061 0.339,0.052 0.346,0.045 0.353,0.039 0.361,0.035 0.371,0.035 0.371,0.025 0.374,0.017 0.381,0.01 0.388,0.003 0.396,0 0.406,0 c 0.01,0 0.018,0.003 0.025,0.01 0.006,0.007 0.01,0.015 0.01,0.025 0.01,0 0.018,0.004 0.025,0.01 0.007,0.007 0.01,0.016 0.01,0.025 z m 0.667,0 c 0.009,0 0.017,0.004 0.024,0.011 0.007,0.006 0.011,0.015 0.011,0.024 V 0.14 H 0.722 L 0.707,0.122 0.722,0.105 C 0.722,0.097 0.723,0.091 0.726,0.086 0.729,0.082 0.733,0.078 0.738,0.076 0.742,0.073 0.748,0.072 0.753,0.071 0.759,0.07 0.765,0.07 0.771,0.07 H 0.792 C 0.792,0.061 0.795,0.053 0.802,0.046 0.809,0.039 0.817,0.035 0.827,0.035 0.827,0.026 0.83,0.017 0.837,0.01 0.844,0.003 0.852,0 0.862,0 c 0.01,0 0.018,0.003 0.025,0.01 0.007,0.007 0.01,0.015 0.01,0.025 0.01,0 0.018,0.004 0.025,0.01 0.007,0.007 0.01,0.016 0.01,0.025 0,-0.009 0.004,-0.018 0.01,-0.025 0.007,-0.006 0.016,-0.01 0.025,-0.01 0.01,0 0.018,0.004 0.025,0.01 0.007,0.007 0.01,0.016 0.01,0.025 h 0.071 c 0,-0.009 0.003,-0.017 0.01,-0.024 0.007,-0.007 0.015,-0.011 0.024,-0.011 0.01,0 0.018,0.004 0.025,0.01 0.007,0.007 0.011,0.016 0.011,0.025 z"
         style="fill:#16c60c;fill-rule:nonzero"
         id="path12202" /><path
         d="m 0.827,-0.035 v -0.141 h 0.14 v 0.141 z m 0,-0.422 h 0.14 v 0.141 h -0.14 z m -0.281,0.141 v -0.141 h 0.141 v 0.141 z"
         style="fill:#31d2f7;fill-rule:nonzero"
         id="path12204" /><path
         d="m 0.407,-0.524 c 0,-0.011 0.002,-0.021 0.006,-0.031 0.004,-0.01 0.01,-0.018 0.017,-0.025 0.007,-0.007 0.016,-0.013 0.025,-0.017 0.01,-0.004 0.02,-0.006 0.031,-0.006 0,0.011 -0.002,0.021 -0.006,0.03 -0.004,0.01 -0.01,0.018 -0.017,0.026 -0.007,0.007 -0.016,0.012 -0.025,0.016 -0.01,0.005 -0.02,0.007 -0.031,0.007 z m 0.131,-0.079 c 0.01,0 0.019,0.002 0.028,0.005 0.009,0.003 0.017,0.008 0.023,0.015 l -0.033,0.03 C 0.55,-0.56 0.545,-0.568 0.542,-0.577 0.54,-0.585 0.538,-0.594 0.538,-0.603 Z m -0.235,0.235 c 0,-0.01 0.002,-0.021 0.006,-0.03 0.004,-0.01 0.01,-0.018 0.017,-0.025 0.007,-0.008 0.015,-0.013 0.025,-0.017 0.009,-0.004 0.02,-0.006 0.03,-0.006 0,0.01 -0.002,0.021 -0.006,0.03 -0.004,0.01 -0.009,0.018 -0.017,0.025 -0.007,0.008 -0.015,0.013 -0.025,0.017 -0.009,0.004 -0.02,0.006 -0.03,0.006 z"
         style="fill:#13a10e;fill-rule:nonzero"
         id="path12206" /><path
         d="M 0.388,0.07 C 0.393,0.07 0.397,0.072 0.4,0.075 0.404,0.079 0.406,0.083 0.406,0.087 0.406,0.092 0.404,0.096 0.401,0.1 0.397,0.103 0.393,0.105 0.388,0.105 0.383,0.105 0.379,0.103 0.376,0.1 0.372,0.096 0.371,0.092 0.371,0.087 0.371,0.083 0.372,0.079 0.376,0.075 0.38,0.072 0.384,0.07 0.388,0.07 Z M 0.879,0.035 c 0.005,0 0.009,0.002 0.013,0.005 0.003,0.004 0.005,0.008 0.005,0.013 0,0.004 -0.002,0.008 -0.005,0.012 C 0.888,0.069 0.884,0.07 0.879,0.07 0.875,0.07 0.871,0.069 0.867,0.065 0.864,0.061 0.862,0.057 0.862,0.053 0.862,0.048 0.864,0.044 0.867,0.04 0.87,0.037 0.875,0.035 0.879,0.035 Z M 1.125,0.07 C 1.13,0.07 1.134,0.072 1.137,0.075 1.141,0.079 1.143,0.083 1.143,0.087 1.143,0.092 1.141,0.096 1.137,0.1 1.134,0.103 1.13,0.105 1.125,0.105 1.12,0.105 1.116,0.103 1.113,0.1 1.109,0.096 1.107,0.092 1.107,0.087 1.107,0.083 1.109,0.079 1.113,0.075 1.116,0.072 1.12,0.07 1.125,0.07 Z"
         style="fill:#fff100;fill-rule:nonzero"
         id="path12208" /><path
         d="m 0.757,-0.807 0.421,0.421 H 1.107 L 0.757,-0.737 0.406,-0.386 H 0.335 Z M 0.546,0.125 V -0.176 H 0.687 V 0.125 Z M 0.423,0.035 c 0.005,0 0.009,0.002 0.013,0.005 0.003,0.004 0.005,0.008 0.005,0.013 0,0.004 -0.002,0.008 -0.005,0.012 C 0.432,0.069 0.428,0.07 0.423,0.07 0.419,0.07 0.415,0.069 0.411,0.065 0.408,0.061 0.406,0.057 0.406,0.053 0.406,0.048 0.407,0.044 0.411,0.04 0.414,0.037 0.418,0.035 0.423,0.035 Z M 0.95,0.07 c 0.004,0 0.008,0.002 0.012,0.005 C 0.965,0.079 0.967,0.083 0.967,0.087 0.967,0.092 0.966,0.096 0.962,0.1 0.959,0.103 0.955,0.105 0.95,0.105 0.945,0.105 0.941,0.103 0.937,0.1 0.934,0.096 0.932,0.092 0.932,0.087 0.932,0.083 0.934,0.079 0.938,0.075 0.941,0.072 0.945,0.07 0.95,0.07 Z m -0.14,0 c 0.004,0 0.008,0.002 0.012,0.005 C 0.825,0.079 0.827,0.083 0.827,0.087 0.827,0.092 0.825,0.096 0.822,0.1 0.818,0.103 0.814,0.105 0.81,0.105 0.805,0.105 0.801,0.103 0.797,0.1 0.794,0.096 0.792,0.092 0.792,0.087 0.792,0.083 0.794,0.079 0.797,0.075 0.801,0.072 0.805,0.07 0.81,0.07 Z"
         style="fill:#f03a17;fill-rule:nonzero"
         id="path12210" /><rect
         x="0.51099998"
         y="0.105"
         width="0.20999999"
         height="0.035"
         style="fill:#e5e5e5;fill-rule:nonzero"
         id="rect12212" /></g></g></svg>
