<?xml version="1.0" encoding="UTF-8" standalone="no"?>
<svg
   width="16.32"
   height="16.844999"
   viewBox="0 0 16.32 16.844999"
   version="1.1"
   xml:space="preserve"
   style="clip-rule:evenodd;fill-rule:evenodd;stroke-linejoin:round;stroke-miterlimit:2"
   id="svg20568"
   sodipodi:docname="emojis.svg"
   xmlns:inkscape="http://www.inkscape.org/namespaces/inkscape"
   xmlns:sodipodi="http://sodipodi.sourceforge.net/DTD/sodipodi-0.dtd"
   xmlns="http://www.w3.org/2000/svg"
   xmlns:svg="http://www.w3.org/2000/svg"><defs
     id="defs20572" /><sodipodi:namedview
     id="namedview20570"
     pagecolor="#505050"
     bordercolor="#eeeeee"
     borderopacity="1"
     inkscape:pageshadow="0"
     inkscape:pageopacity="0"
     inkscape:pagecheckerboard="0" /><g
     transform="matrix(0.24,0,0,0.24,-402.1662,-642.0258)"
     id="g20566"><g
       transform="matrix(62.5,0,0,62.5,1667.88,2732.17)"
       id="g12276"><path
         d="m 0.827,-0.913 v 0.211 H 1.213 V 0.21 H 0.125 v -1.123 z"
         style="fill-rule:nonzero"
         id="path12264" /><path
         d="m 0.195,0.14 v -0.912 l 0.06,-0.039 h 0.446 l 0.056,0.039 V 0.14 H 0.616 L 0.581,0.111 H 0.37 L 0.335,0.14 Z m 0.597,-0.737 h 0.351 v 0.351 H 1.107 L 1.09,-0.231 1.072,-0.246 H 0.862 L 0.844,-0.231 0.827,-0.246 H 0.792 Z"
         style="fill:#f2f2f2;fill-rule:nonzero"
         id="path12266" /><path
         d="m 0.335,0.14 v -0.281 l 0.031,-0.024 h 0.113 l 0.032,0.024 V 0.111 L 0.476,0.14 Z m 0.211,-0.421 v -0.14 h 0.141 v 0.14 z m -0.14,-0.421 v 0.14 H 0.265 v -0.14 z m 0.14,0 h 0.141 v 0.14 H 0.546 Z m -0.14,0.281 v 0.14 H 0.265 v -0.14 z"
         style="fill:#31d2f7;fill-rule:nonzero"
         id="path12268" /><path
         d="M 0.476,0.14 V -0.141 L 0.508,-0.17 h 0.076 l 0.032,0.029 V 0.14 Z"
         style="fill:#69eaff;fill-rule:nonzero"
         id="path12270" /><path
         d="m 1.107,-0.165 0.036,0.024 V 0.14 H 1.107 Z m -0.28,-0.021 v -0.06 h 0.035 v 0.06 z m 0.28,-0.06 v 0.06 H 1.073 v -0.06 z"
         style="fill:#cccccc;fill-rule:nonzero"
         id="path12272" /><path
         d="m 1.108,-0.562 v 0.281 H 0.827 V -0.562 Z M 0.757,-0.772 H 0.195 v -0.07 h 0.562 z m 0.386,0.562 v 0.069 H 0.757 V -0.21 Z M 1.073,-0.457 H 1.002 v -0.069 h -0.07 v 0.069 h -0.07 v 0.071 h 0.07 v 0.07 h 0.07 v -0.07 H 1.073 Z M 0.3,-0.21 h 0.351 v 0.069 H 0.3 Z"
         style="fill:#e81224;fill-rule:nonzero"
         id="path12274" /></g></g></svg>
