<?xml version="1.0" encoding="UTF-8" standalone="no"?>
<svg
   width="16.844999"
   height="16.844999"
   viewBox="0 0 16.844999 16.844999"
   version="1.1"
   xml:space="preserve"
   style="clip-rule:evenodd;fill-rule:evenodd;stroke-linejoin:round;stroke-miterlimit:2"
   id="svg20568"
   sodipodi:docname="emojis.svg"
   xmlns:inkscape="http://www.inkscape.org/namespaces/inkscape"
   xmlns:sodipodi="http://sodipodi.sourceforge.net/DTD/sodipodi-0.dtd"
   xmlns="http://www.w3.org/2000/svg"
   xmlns:svg="http://www.w3.org/2000/svg"><defs
     id="defs20572" /><sodipodi:namedview
     id="namedview20570"
     pagecolor="#505050"
     bordercolor="#eeeeee"
     borderopacity="1"
     inkscape:pageshadow="0"
     inkscape:pageopacity="0"
     inkscape:pagecheckerboard="0" /><g
     transform="matrix(0.24,0,0,0.24,-381.5694,-642.0258)"
     id="g20566"><g
       transform="matrix(62.5,0,0,62.5,1582.06,2732.17)"
       id="g12262"><path
         d="m 0.967,-0.702 h 0.281 v 0.211 H 1.213 V 0.21 H 0.16 V -0.491 H 0.125 v -0.211 h 0.281 v -0.211 h 0.561 z"
         style="fill-rule:nonzero"
         id="path12246" /><path
         d="m 0.23,0.14 v -0.702 l 0.057,-0.039 h 0.798 l 0.058,0.039 V 0.14 H 0.862 L 0.848,0.121 H 0.524 L 0.511,0.14 H 0.441 L 0.423,0.125 0.406,0.14 H 0.335 L 0.318,0.125 0.3,0.14 Z"
         style="fill:#f2f2f2;fill-rule:nonzero"
         id="path12248" /><path
         d="m 0.511,-0.772 0.06,-0.034 h 0.23 l 0.061,0.034 v 0.141 l 0.024,0.032 -0.024,0.037 V 0.14 H 0.826 L 0.792,0.111 H 0.581 L 0.546,0.14 H 0.511 V -0.562 L 0.486,-0.598 0.511,-0.632 Z"
         style="fill:#e5e5e5;fill-rule:nonzero"
         id="path12250" /><path
         d="M 0.546,0.14 V -0.141 L 0.583,-0.18 h 0.206 l 0.038,0.039 V 0.14 H 0.792 L 0.756,0.111 H 0.611 L 0.581,0.14 Z M 0.932,-0.07 H 1.073 V 0 H 0.932 Z"
         style="fill:#cccccc;fill-rule:nonzero"
         id="path12252" /><path
         d="m 0.581,0.14 v -0.281 l 0.107,-0.058 0.104,0.058 V 0.14 Z"
         style="fill:#613d30;fill-rule:nonzero"
         id="path12254" /><path
         d="m 0.792,-0.597 v 0.106 c 0,0.014 -0.003,0.028 -0.008,0.041 C 0.778,-0.437 0.771,-0.426 0.761,-0.417 0.751,-0.408 0.74,-0.4 0.728,-0.395 0.715,-0.389 0.701,-0.386 0.687,-0.386 H 0.546 V -0.421 H 0.608 C 0.599,-0.431 0.593,-0.442 0.588,-0.454 0.583,-0.466 0.581,-0.479 0.581,-0.491 c 0,-0.015 0.003,-0.029 0.008,-0.041 0.006,-0.013 0.013,-0.024 0.023,-0.034 0.01,-0.009 0.021,-0.017 0.034,-0.022 0.012,-0.006 0.026,-0.009 0.041,-0.009 0.013,0 0.025,0.003 0.037,0.007 0.013,0.005 0.023,0.012 0.033,0.02 V -0.597 L 0.722,-0.632 h 0.105 z m -0.105,0.316 c 0.019,0 0.037,0.004 0.054,0.011 0.017,0.008 0.032,0.018 0.045,0.03 0.012,0.013 0.022,0.028 0.03,0.045 0.007,0.017 0.011,0.035 0.011,0.054 H 0.546 c 0,-0.019 0.004,-0.037 0.011,-0.054 0.008,-0.017 0.018,-0.032 0.031,-0.044 0.013,-0.013 0.027,-0.023 0.044,-0.031 0.017,-0.007 0.035,-0.011 0.055,-0.011 z m -0.071,-0.21 c 0,0.01 0.002,0.019 0.006,0.027 0.004,0.009 0.009,0.016 0.015,0.022 0.006,0.007 0.014,0.012 0.022,0.015 0.009,0.004 0.018,0.006 0.028,0.006 0.009,0 0.018,-0.002 0.027,-0.006 C 0.722,-0.43 0.73,-0.435 0.736,-0.442 0.742,-0.448 0.747,-0.455 0.751,-0.464 0.755,-0.472 0.757,-0.481 0.757,-0.491 0.757,-0.501 0.755,-0.51 0.751,-0.519 0.747,-0.527 0.742,-0.534 0.736,-0.541 0.73,-0.547 0.722,-0.552 0.714,-0.556 0.705,-0.56 0.696,-0.562 0.687,-0.562 c -0.01,0 -0.019,0.002 -0.028,0.006 -0.008,0.004 -0.016,0.009 -0.022,0.015 -0.006,0.007 -0.011,0.014 -0.015,0.022 -0.004,0.009 -0.006,0.018 -0.006,0.028 z"
         style="fill:#ffb900;fill-rule:nonzero"
         id="path12256" /><path
         d="m 0.371,-0.421 c 0.009,0 0.018,0.001 0.027,0.005 0.008,0.004 0.016,0.009 0.022,0.015 0.007,0.007 0.012,0.014 0.015,0.023 0.004,0.008 0.006,0.017 0.006,0.027 v 0.07 H 0.3 v -0.07 c 0,-0.01 0.002,-0.019 0.006,-0.027 0.004,-0.009 0.009,-0.016 0.015,-0.023 0.006,-0.006 0.014,-0.011 0.022,-0.015 0.009,-0.004 0.018,-0.005 0.028,-0.005 z m 0.631,0 c 0.01,0 0.019,0.001 0.028,0.005 0.008,0.004 0.016,0.009 0.022,0.015 0.006,0.007 0.011,0.014 0.015,0.023 0.004,0.008 0.006,0.017 0.006,0.027 v 0.07 H 0.932 v -0.07 c 0,-0.01 0.002,-0.019 0.006,-0.027 0.003,-0.009 0.009,-0.016 0.015,-0.023 0.006,-0.006 0.014,-0.011 0.022,-0.015 0.009,-0.004 0.018,-0.005 0.027,-0.005 z"
         style="fill:#31d2f7;fill-rule:nonzero"
         id="path12258" /><path
         d="m 0.371,-0.105 c 0.009,0 0.018,0.001 0.027,0.005 0.008,0.004 0.016,0.009 0.022,0.015 0.007,0.007 0.012,0.014 0.015,0.022 0.004,0.009 0.006,0.018 0.006,0.028 V 0.14 H 0.406 V 0.105 H 0.335 V 0.14 H 0.3 v -0.175 c 0,-0.01 0.002,-0.019 0.006,-0.027 C 0.31,-0.071 0.315,-0.078 0.321,-0.085 0.327,-0.091 0.335,-0.096 0.343,-0.1 0.352,-0.104 0.361,-0.105 0.371,-0.105 Z m 0.526,-0.737 v 0.07 H 0.476 v -0.07 z m -0.035,0.21 h 0.316 v 0.07 H 0.862 Z m -0.667,0.07 v -0.07 h 0.316 v 0.07 z"
         style="fill:#af0d1a;fill-rule:nonzero"
         id="path12260" /></g></g></svg>
