<?xml version="1.0" encoding="UTF-8" standalone="no"?>
<svg
   width="16.844999"
   height="16.844999"
   viewBox="0 0 16.844999 16.844999"
   version="1.1"
   xml:space="preserve"
   style="clip-rule:evenodd;fill-rule:evenodd;stroke-linejoin:round;stroke-miterlimit:2"
   id="svg20568"
   sodipodi:docname="emojis.svg"
   xmlns:inkscape="http://www.inkscape.org/namespaces/inkscape"
   xmlns:sodipodi="http://sodipodi.sourceforge.net/DTD/sodipodi-0.dtd"
   xmlns="http://www.w3.org/2000/svg"
   xmlns:svg="http://www.w3.org/2000/svg"><defs
     id="defs20572" /><sodipodi:namedview
     id="namedview20570"
     pagecolor="#505050"
     bordercolor="#eeeeee"
     borderopacity="1"
     inkscape:pageshadow="0"
     inkscape:pageopacity="0"
     inkscape:pagecheckerboard="0" /><g
     transform="matrix(0.24,0,0,0.24,-442.8366,-642.0258)"
     id="g20566"><g
       transform="matrix(62.5,0,0,62.5,1837.34,2732.17)"
       id="g12308"><path
         d="M 0.406,-0.913 H 1.248 V 0.21 H 0.125 v -0.842 h 0.281 z"
         style="fill-rule:nonzero"
         id="path12296" /><path
         d="m 0.658,-0.529 c 0.029,0 0.058,0.002 0.087,0.005 0.029,0.003 0.058,0.006 0.087,0.008 l 0.346,0.025 V 0.14 H 0.897 L 0.698,0.036 0.476,0.14 H 0.195 V -0.491 L 0.504,-0.516 C 0.53,-0.518 0.555,-0.521 0.581,-0.524 0.606,-0.527 0.632,-0.529 0.658,-0.529 Z m 0.211,-0.103 v -0.035 h 0.083 v 0.035 z m 0,-0.105 v -0.035 h 0.083 v 0.035 z"
         style="fill:#e5e5e5;fill-rule:nonzero"
         id="path12298" /><path
         d="M 0.897,0.14 H 0.827 L 0.692,0.076 0.546,0.14 h -0.07 v -0.912 l 0.211,-0.042 0.21,0.042 z"
         style="fill:#f2f2f2;fill-rule:nonzero"
         id="path12300" /><path
         d="m 0.657,-0.186 0.17,0.015 V 0.14 H 0.687 C 0.682,0.122 0.679,0.104 0.675,0.086 0.672,0.069 0.669,0.051 0.665,0.033 0.663,0.025 0.662,0.017 0.66,0.009 0.658,0.001 0.657,-0.007 0.657,-0.015 Z"
         style="fill:#69eaff;fill-rule:nonzero"
         id="path12302" /><path
         d="M 0.546,-0.171 H 0.687 V 0.14 H 0.546 Z M 0.757,-0.562 H 0.616 v -0.14 h 0.141 z m 0,0.281 H 0.616 v -0.14 H 0.757 Z M 0.406,0 H 0.265 v -0.141 h 0.141 z m 0,-0.281 H 0.265 v -0.14 h 0.141 z m 0.701,0 h -0.14 v -0.14 h 0.14 z m 0,0.281 h -0.14 v -0.141 h 0.14 z"
         style="fill:#31d2f7;fill-rule:nonzero"
         id="path12304" /><path
         d="m 1.073,-0.807 h 0.07 v 0.21 h -0.07 v -0.07 H 1.002 v 0.07 h -0.07 v -0.21 h 0.07 v 0.07 H 1.073 Z M 0.897,-0.842 v 0.07 H 0.476 v -0.07 z M 0.862,-0.21 v 0.069 H 0.511 V -0.21 Z m 0.316,-0.352 v 0.071 H 0.897 v -0.071 z m -0.702,0 v 0.071 H 0.195 v -0.071 z"
         style="fill:#af0d1a;fill-rule:nonzero"
         id="path12306" /></g></g></svg>
