<?xml version="1.0" encoding="UTF-8" standalone="no"?>
<svg
   width="16.844999"
   height="16.844999"
   viewBox="0 0 16.844999 16.844999"
   version="1.1"
   xml:space="preserve"
   style="clip-rule:evenodd;fill-rule:evenodd;stroke-linejoin:round;stroke-miterlimit:2"
   id="svg20568"
   sodipodi:docname="emojis.svg"
   xmlns:inkscape="http://www.inkscape.org/namespaces/inkscape"
   xmlns:sodipodi="http://sodipodi.sourceforge.net/DTD/sodipodi-0.dtd"
   xmlns="http://www.w3.org/2000/svg"
   xmlns:svg="http://www.w3.org/2000/svg"><defs
     id="defs20572" /><sodipodi:namedview
     id="namedview20570"
     pagecolor="#505050"
     bordercolor="#eeeeee"
     borderopacity="1"
     inkscape:pageshadow="0"
     inkscape:pageopacity="0"
     inkscape:pagecheckerboard="0" /><g
     transform="matrix(0.24,0,0,0.24,-648.531,-110.71908)"
     id="g20566"><g
       transform="matrix(62.5,0,0,62.5,2694.4,518.392)"
       id="g1236"><path
         d="m 1.125,-0.913 c 0.017,0 0.033,0.004 0.048,0.01 0.015,0.007 0.028,0.015 0.039,0.027 0.011,0.011 0.02,0.024 0.026,0.039 0.007,0.015 0.01,0.031 0.01,0.047 0,0.016 -0.003,0.032 -0.009,0.047 -0.006,0.014 -0.015,0.028 -0.026,0.039 v 0.318 c 0,0.025 -0.006,0.049 -0.019,0.07 -0.012,0.022 -0.03,0.039 -0.051,0.051 v 0.019 c 0,0.042 -0.006,0.083 -0.017,0.121 C 1.115,-0.086 1.1,-0.049 1.08,-0.016 1.06,0.018 1.036,0.049 1.009,0.077 0.981,0.104 0.95,0.128 0.917,0.148 0.883,0.168 0.846,0.183 0.808,0.194 0.769,0.205 0.729,0.21 0.687,0.21 0.645,0.21 0.604,0.205 0.565,0.194 0.527,0.183 0.49,0.168 0.457,0.148 0.423,0.128 0.392,0.104 0.364,0.077 0.337,0.049 0.313,0.018 0.293,-0.016 0.273,-0.049 0.258,-0.086 0.247,-0.125 0.236,-0.163 0.23,-0.204 0.23,-0.246 V -0.265 C 0.209,-0.277 0.191,-0.294 0.179,-0.316 0.166,-0.337 0.16,-0.361 0.16,-0.386 V -0.704 C 0.149,-0.715 0.14,-0.729 0.134,-0.743 0.128,-0.758 0.125,-0.774 0.125,-0.79 c 0,-0.016 0.003,-0.032 0.01,-0.047 0.006,-0.015 0.015,-0.028 0.026,-0.039 0.011,-0.012 0.024,-0.02 0.039,-0.027 0.015,-0.006 0.031,-0.01 0.048,-0.01 0.017,0 0.033,0.004 0.048,0.01 0.014,0.007 0.027,0.016 0.038,0.027 0.012,0.011 0.02,0.024 0.027,0.039 0.006,0.015 0.01,0.031 0.01,0.047 0,0.01 -0.002,0.02 -0.004,0.03 -0.002,0.009 -0.006,0.018 -0.01,0.027 l 0.001,0.006 c 0.023,-0.015 0.048,-0.026 0.073,-0.034 0.026,-0.007 0.053,-0.011 0.08,-0.011 h 0.351 c 0.027,0 0.054,0.004 0.08,0.011 0.026,0.008 0.05,0.019 0.073,0.034 L 1.016,-0.733 C 1.012,-0.742 1.008,-0.751 1.006,-0.76 1.004,-0.77 1.002,-0.78 1.002,-0.79 c 0,-0.016 0.004,-0.032 0.01,-0.047 0.007,-0.015 0.016,-0.028 0.027,-0.039 0.011,-0.011 0.024,-0.02 0.038,-0.027 0.015,-0.006 0.031,-0.01 0.048,-0.01 z"
         style="fill-rule:nonzero"
         id="path1220" /><path
         d="m 1.125,-0.842 c 0.007,0 0.014,0.001 0.021,0.004 0.006,0.003 0.012,0.006 0.016,0.011 0.005,0.005 0.009,0.01 0.012,0.017 0.002,0.006 0.004,0.013 0.004,0.02 0,0.012 -0.004,0.022 -0.01,0.031 -0.007,0.009 -0.015,0.015 -0.025,0.019 v 0.354 c 0,0.01 -0.002,0.019 -0.006,0.027 C 1.134,-0.35 1.129,-0.343 1.122,-0.337 1.116,-0.33 1.109,-0.325 1.1,-0.322 1.092,-0.318 1.083,-0.316 1.073,-0.316 H 1.038 v -0.21 c 0,-0.004 0,-0.008 10e-4,-0.012 C 1.04,-0.543 1.041,-0.547 1.043,-0.552 1.044,-0.557 1.046,-0.562 1.047,-0.566 1.048,-0.571 1.049,-0.575 1.05,-0.579 1.057,-0.607 1.064,-0.636 1.071,-0.664 1.078,-0.692 1.085,-0.72 1.092,-0.749 1.086,-0.754 1.081,-0.76 1.078,-0.767 1.074,-0.774 1.073,-0.782 1.073,-0.79 c 0,-0.007 0.001,-0.013 0.004,-0.02 0.003,-0.006 0.006,-0.012 0.011,-0.017 0.005,-0.005 0.01,-0.008 0.017,-0.011 0.006,-0.003 0.013,-0.004 0.02,-0.004 z m -0.79,0.526 H 0.3 C 0.291,-0.316 0.281,-0.318 0.273,-0.322 0.264,-0.325 0.257,-0.33 0.251,-0.337 0.244,-0.343 0.239,-0.35 0.236,-0.359 0.232,-0.367 0.23,-0.376 0.23,-0.386 V -0.74 C 0.22,-0.744 0.212,-0.75 0.205,-0.759 0.199,-0.768 0.195,-0.778 0.195,-0.79 c 0,-0.007 0.002,-0.014 0.004,-0.02 0.003,-0.007 0.007,-0.012 0.012,-0.017 0.004,-0.005 0.01,-0.008 0.016,-0.011 0.007,-0.003 0.014,-0.004 0.021,-0.004 0.007,0 0.014,0.001 0.02,0.004 0.007,0.003 0.012,0.006 0.017,0.011 0.005,0.005 0.008,0.011 0.011,0.017 0.003,0.007 0.004,0.013 0.004,0.02 0,0.008 -0.001,0.016 -0.005,0.023 -0.003,0.007 -0.008,0.013 -0.014,0.018 0.007,0.029 0.014,0.057 0.021,0.085 0.007,0.028 0.014,0.057 0.021,0.085 0.001,0.004 0.002,0.008 0.003,0.013 0.001,0.004 0.003,0.009 0.004,0.014 0.002,0.005 0.003,0.009 0.004,0.014 0.001,0.004 0.001,0.008 0.001,0.012 z"
         style="fill:#757575;fill-rule:nonzero"
         id="path1222" /><path
         d="m 0.862,-0.702 c 0.029,0 0.057,0.005 0.082,0.016 0.026,0.012 0.048,0.027 0.067,0.046 0.019,0.019 0.034,0.041 0.045,0.067 0.011,0.025 0.017,0.052 0.017,0.082 v 0.245 C 1.059,-0.218 1.045,-0.191 1.031,-0.164 1.016,-0.137 1.001,-0.11 0.985,-0.083 0.97,-0.057 0.955,-0.03 0.94,-0.003 0.925,0.023 0.911,0.05 0.897,0.078 0.865,0.098 0.832,0.114 0.796,0.124 0.76,0.135 0.724,0.14 0.687,0.14 0.649,0.14 0.612,0.135 0.577,0.124 0.541,0.114 0.507,0.098 0.476,0.078 0.462,0.053 0.447,0.028 0.433,0.003 0.418,-0.021 0.404,-0.046 0.389,-0.07 0.373,-0.099 0.357,-0.128 0.343,-0.157 0.328,-0.186 0.314,-0.216 0.3,-0.246 v -0.245 c 0,-0.03 0.006,-0.057 0.017,-0.082 0.011,-0.026 0.026,-0.048 0.045,-0.067 0.019,-0.019 0.041,-0.034 0.067,-0.046 0.026,-0.011 0.053,-0.016 0.082,-0.016 z"
         style="fill:#cccccc;fill-rule:nonzero"
         id="path1224" /><path
         d="m 0.447,-0.108 c 0.009,0.01 0.016,0.021 0.022,0.034 0.005,0.012 0.007,0.025 0.007,0.039 V 0.078 C 0.449,0.06 0.424,0.039 0.402,0.015 0.381,-0.008 0.362,-0.034 0.347,-0.062 0.332,-0.089 0.32,-0.119 0.312,-0.15 0.304,-0.181 0.3,-0.213 0.3,-0.246 Z m 0.45,0.073 c 0,-0.013 0.002,-0.026 0.008,-0.039 0.005,-0.014 0.012,-0.025 0.021,-0.034 l 0.147,-0.138 c 0,0.033 -0.004,0.065 -0.012,0.096 -0.009,0.031 -0.02,0.06 -0.035,0.088 C 1.01,-0.034 0.992,-0.008 0.97,0.015 0.949,0.039 0.924,0.06 0.897,0.078 Z"
         style="fill:#757575;fill-rule:nonzero"
         id="path1226" /><path
         d="m 0.511,-0.702 h 0.351 v 0.245 L 0.674,-0.408 0.511,-0.457 Z"
         style="fill:#ffffff;fill-rule:nonzero"
         id="path1228" /><path
         d="m 0.95,-0.457 c 0.007,0 0.014,0.002 0.02,0.005 0.006,0.002 0.012,0.006 0.017,0.011 0.005,0.005 0.009,0.011 0.011,0.017 0.003,0.006 0.004,0.013 0.004,0.02 v 0.141 c 0,0.007 -0.001,0.014 -0.004,0.02 C 0.996,-0.237 0.992,-0.231 0.987,-0.226 0.982,-0.221 0.976,-0.217 0.97,-0.215 0.964,-0.212 0.957,-0.21 0.95,-0.21 H 0.423 C 0.416,-0.21 0.409,-0.212 0.403,-0.215 0.397,-0.217 0.391,-0.221 0.386,-0.226 0.381,-0.231 0.378,-0.237 0.375,-0.243 0.372,-0.249 0.371,-0.256 0.371,-0.263 v -0.141 c 0,-0.007 0.001,-0.014 0.004,-0.02 0.003,-0.006 0.006,-0.012 0.011,-0.017 0.005,-0.005 0.011,-0.009 0.017,-0.011 0.006,-0.003 0.013,-0.005 0.02,-0.005 z m -0.404,0.422 v -0.07 h 0.281 v 0.07 z"
         style="fill-rule:nonzero"
         id="path1230" /><path
         d="m 0.494,-0.421 c 0.007,0 0.014,0.001 0.02,0.004 0.006,0.003 0.012,0.006 0.017,0.011 0.004,0.005 0.008,0.011 0.011,0.017 0.003,0.006 0.004,0.013 0.004,0.02 v 0.071 c 0,0.007 -0.001,0.014 -0.004,0.02 C 0.539,-0.272 0.535,-0.266 0.531,-0.261 0.526,-0.256 0.52,-0.253 0.514,-0.25 0.508,-0.247 0.501,-0.246 0.494,-0.246 0.486,-0.246 0.48,-0.247 0.473,-0.25 0.467,-0.253 0.461,-0.256 0.457,-0.261 0.452,-0.266 0.448,-0.272 0.445,-0.278 0.442,-0.284 0.441,-0.291 0.441,-0.298 v -0.071 c 0,-0.007 0.001,-0.014 0.004,-0.02 0.003,-0.006 0.007,-0.012 0.012,-0.017 0.004,-0.005 0.01,-0.008 0.016,-0.011 0.007,-0.003 0.013,-0.004 0.021,-0.004 z m 0.385,0 c 0.008,0 0.014,0.001 0.021,0.004 0.006,0.003 0.012,0.006 0.017,0.011 0.004,0.005 0.008,0.011 0.011,0.017 0.003,0.006 0.004,0.013 0.004,0.02 v 0.071 c 0,0.007 -0.001,0.014 -0.004,0.02 C 0.925,-0.272 0.921,-0.266 0.917,-0.261 0.912,-0.256 0.906,-0.253 0.9,-0.25 0.893,-0.247 0.887,-0.246 0.879,-0.246 0.872,-0.246 0.865,-0.247 0.859,-0.25 0.853,-0.253 0.847,-0.256 0.842,-0.261 0.837,-0.266 0.834,-0.272 0.831,-0.278 0.828,-0.284 0.827,-0.291 0.827,-0.298 v -0.071 c 0,-0.007 0.001,-0.014 0.004,-0.02 0.003,-0.006 0.006,-0.012 0.011,-0.017 0.005,-0.005 0.011,-0.008 0.017,-0.011 0.006,-0.003 0.013,-0.004 0.02,-0.004 z"
         style="fill:#31d2f7;fill-rule:nonzero"
         id="path1232" /><path
         d="m 0.616,-0.702 h 0.141 v 0.14 c 0,0.01 -0.002,0.019 -0.006,0.028 -0.004,0.008 -0.009,0.016 -0.015,0.022 -0.006,0.006 -0.014,0.011 -0.022,0.015 -0.009,0.004 -0.018,0.006 -0.027,0.006 -0.01,0 -0.019,-0.002 -0.028,-0.006 C 0.651,-0.501 0.643,-0.506 0.637,-0.512 0.631,-0.518 0.626,-0.526 0.622,-0.534 0.618,-0.543 0.616,-0.552 0.616,-0.562 Z"
         style="fill:#f03a17;fill-rule:nonzero"
         id="path1234" /></g></g></svg>
