<?xml version="1.0" encoding="UTF-8" standalone="no"?>
<svg
   width="16.844999"
   height="16.844999"
   viewBox="0 0 16.844999 16.844999"
   version="1.1"
   xml:space="preserve"
   style="clip-rule:evenodd;fill-rule:evenodd;stroke-linejoin:round;stroke-miterlimit:2"
   id="svg20568"
   sodipodi:docname="emojis.svg"
   xmlns:inkscape="http://www.inkscape.org/namespaces/inkscape"
   xmlns:sodipodi="http://sodipodi.sourceforge.net/DTD/sodipodi-0.dtd"
   xmlns="http://www.w3.org/2000/svg"
   xmlns:svg="http://www.w3.org/2000/svg"><defs
     id="defs20572" /><sodipodi:namedview
     id="namedview20570"
     pagecolor="#505050"
     bordercolor="#eeeeee"
     borderopacity="1"
     inkscape:pageshadow="0"
     inkscape:pageopacity="0"
     inkscape:pagecheckerboard="0" /><g
     transform="matrix(0.24,0,0,0.24,-545.295,-642.0258)"
     id="g20566"><g
       transform="matrix(62.5,0,0,62.5,2264.25,2732.17)"
       id="g12402"><path
         d="m 0.827,-0.535 0.421,0.211 V 0.21 H 0.125 v -0.947 h 0.251 c 0.004,-0.009 0.008,-0.017 0.013,-0.025 0.006,-0.008 0.012,-0.015 0.019,-0.021 0.003,-0.018 0.01,-0.036 0.019,-0.051 0.01,-0.016 0.021,-0.03 0.035,-0.042 0.014,-0.011 0.03,-0.02 0.047,-0.027 0.018,-0.006 0.036,-0.01 0.054,-0.01 0.025,0 0.048,0.006 0.071,0.017 0.023,-0.011 0.046,-0.017 0.07,-0.017 0.018,0 0.036,0.003 0.053,0.009 0.017,0.006 0.032,0.015 0.046,0.027 0.02,0 0.039,0.003 0.055,0.01 0.017,0.006 0.031,0.017 0.045,0.033 0.019,0.008 0.035,0.021 0.047,0.039 0.011,0.017 0.017,0.037 0.017,0.058 0,0.014 -0.002,0.028 -0.008,0.041 -0.006,0.012 -0.013,0.024 -0.023,0.033 -0.009,0.01 -0.02,0.017 -0.033,0.023 -0.013,0.005 -0.027,0.008 -0.041,0.008 -0.009,0 -0.017,-0.001 -0.025,-0.003 -0.006,0.002 -0.011,0.002 -0.017,0.003 -0.006,0 -0.011,0 -0.017,0 -0.014,0.012 -0.029,0.02 -0.046,0.026 -0.017,0.006 -0.035,0.009 -0.053,0.009 -0.024,0 -0.047,-0.005 -0.07,-0.016 L 0.616,-0.605 V -0.5 l 0.211,0.105 z"
         style="fill-rule:nonzero"
         id="path12390" /><path
         d="m 0.195,0.14 v -0.35 l 0.063,-0.04 h 0.866 l 0.054,0.04 v 0.35 z"
         style="fill:#ffb900;fill-rule:nonzero"
         id="path12392" /><path
         d="M 0.897,-0.141 H 1.038 V 0 H 0.897 Z M 0.335,0 V -0.141 H 0.476 V 0 Z M 0.616,0 V -0.141 H 0.757 V 0 Z"
         style="fill:#31d2f7;fill-rule:nonzero"
         id="path12394" /><path
         d="m 0.195,-0.386 v -0.071 l 0.067,-0.034 0.073,0.034 v 0.071 l -0.07,0.029 z m 0.211,0 v -0.071 l 0.067,-0.034 0.073,0.034 v 0.071 l -0.07,0.029 z m -0.211,-0.14 v -0.071 l 0.069,-0.034 0.071,0.034 v 0.071 l -0.073,0.024 z m 0.211,0 v -0.071 l 0.069,-0.034 0.071,0.034 v 0.071 l -0.073,0.024 z m 0,0.245 v -0.035 l 0.067,-0.035 0.073,0.035 v 0.035 L 0.51,-0.247 H 0.441 Z m -0.211,0 v -0.035 l 0.067,-0.035 0.073,0.035 v 0.035 L 0.299,-0.247 H 0.231 Z"
         style="fill:#e5e5e5;fill-rule:nonzero"
         id="path12396" /><path
         d="m 0.897,-0.421 0.281,0.14 V -0.21 H 0.195 v -0.071 h 0.421 v -0.14 l 0.281,0.14 z m -0.562,0.035 v 0.07 h -0.14 v -0.07 z m 0.211,-0.281 v 0.07 h -0.14 v -0.07 z m -0.211,0 v 0.07 h -0.14 v -0.07 z m 0.211,0.281 v 0.07 h -0.14 v -0.07 z m 0,-0.14 v 0.069 h -0.14 v -0.069 z m -0.211,0 v 0.069 h -0.14 v -0.069 z"
         style="fill:#f03a17;fill-rule:nonzero"
         id="path12398" /><path
         d="m 0.859,-0.772 c 0.01,0 0.019,0.003 0.027,0.009 0.007,0.006 0.011,0.015 0.011,0.026 0,0.009 -0.003,0.018 -0.01,0.025 -0.007,0.006 -0.015,0.01 -0.025,0.01 -0.009,0 -0.017,-0.003 -0.023,-0.009 C 0.83,-0.705 0.82,-0.702 0.81,-0.702 0.799,-0.702 0.789,-0.705 0.78,-0.711 0.772,-0.697 0.762,-0.687 0.748,-0.679 0.734,-0.671 0.72,-0.667 0.704,-0.667 0.69,-0.667 0.677,-0.67 0.665,-0.676 0.653,-0.682 0.642,-0.691 0.634,-0.702 c -0.009,0.011 -0.019,0.02 -0.031,0.026 -0.012,0.006 -0.026,0.009 -0.04,0.009 -0.01,0 -0.019,-0.002 -0.029,-0.005 -0.01,-0.004 -0.018,-0.009 -0.026,-0.015 -0.003,0.006 -0.008,0.011 -0.013,0.014 -0.006,0.004 -0.012,0.006 -0.019,0.006 -0.01,0 -0.018,-0.003 -0.025,-0.01 -0.007,-0.007 -0.01,-0.015 -0.01,-0.025 0,-0.009 0.003,-0.017 0.01,-0.025 0.007,-0.007 0.015,-0.01 0.024,-0.01 0.001,0 0.001,0 0.002,0 0,0 0,0 0.001,0 -0.001,-0.006 -0.002,-0.012 -0.002,-0.018 0,-0.012 0.002,-0.023 0.007,-0.034 0.004,-0.01 0.011,-0.02 0.019,-0.028 0.008,-0.008 0.017,-0.014 0.028,-0.018 0.01,-0.005 0.021,-0.007 0.033,-0.007 0.014,0 0.028,0.003 0.04,0.009 0.012,0.006 0.022,0.015 0.031,0.026 0.008,-0.011 0.019,-0.02 0.031,-0.026 0.012,-0.006 0.025,-0.009 0.039,-0.009 0.016,0 0.03,0.004 0.044,0.011 0.014,0.008 0.024,0.019 0.032,0.033 0.009,-0.006 0.019,-0.009 0.03,-0.009 0.011,0 0.021,0.003 0.03,0.01 0.009,0.006 0.015,0.015 0.019,0.025 z"
         style="fill:#cccccc;fill-rule:nonzero"
         id="path12400" /></g></g></svg>
