<?xml version="1.0" encoding="UTF-8" standalone="no"?>
<svg
   width="15.795"
   height="16.844999"
   viewBox="0 0 15.795 16.844999"
   version="1.1"
   xml:space="preserve"
   style="clip-rule:evenodd;fill-rule:evenodd;stroke-linejoin:round;stroke-miterlimit:2"
   id="svg20568"
   sodipodi:docname="emojis.svg"
   xmlns:inkscape="http://www.inkscape.org/namespaces/inkscape"
   xmlns:sodipodi="http://sodipodi.sourceforge.net/DTD/sodipodi-0.dtd"
   xmlns="http://www.w3.org/2000/svg"
   xmlns:svg="http://www.w3.org/2000/svg"><defs
     id="defs20572" /><sodipodi:namedview
     id="namedview20570"
     pagecolor="#505050"
     bordercolor="#eeeeee"
     borderopacity="1"
     inkscape:pageshadow="0"
     inkscape:pageopacity="0"
     inkscape:pagecheckerboard="0" /><g
     transform="matrix(0.24,0,0,0.24,-627.159,-642.0258)"
     id="g20566"><g
       transform="matrix(62.5,0,0,62.5,2605.35,2732.17)"
       id="g12476"><path
         d="m 0.687,-0.913 0.07,0.167 v 0.255 l 0.035,0.034 c 0,0.021 0,0.041 0,0.061 -0.001,0.02 -0.001,0.04 -0.001,0.06 0,0.012 0.001,0.022 0.002,0.032 0.001,0.01 0.004,0.019 0.007,0.027 0.003,0.009 0.008,0.017 0.014,0.024 0.006,0.008 0.013,0.016 0.022,0.024 l 0.342,0.34 V 0.21 H 0.125 V 0.111 l 0.341,-0.34 C 0.476,-0.238 0.484,-0.247 0.49,-0.255 0.497,-0.264 0.501,-0.272 0.504,-0.281 0.508,-0.29 0.51,-0.299 0.511,-0.308 0.512,-0.318 0.512,-0.327 0.512,-0.337 L 0.511,-0.386 v -0.071 l 0.035,-0.034 v -0.255 l 0.07,-0.167 z"
         style="fill-rule:nonzero"
         id="path12470" /><path
         d="M 1.107,0.14 H 1.002 C 0.959,0.098 0.911,0.065 0.857,0.042 0.803,0.019 0.746,0.005 0.687,0.001 V 0.14 H 0.616 V 0.001 C 0.556,0.005 0.5,0.019 0.446,0.042 0.392,0.066 0.344,0.098 0.3,0.14 H 0.195 L 0.511,-0.176 C 0.515,-0.18 0.519,-0.183 0.523,-0.187 0.528,-0.191 0.532,-0.194 0.535,-0.199 0.549,-0.215 0.561,-0.233 0.569,-0.253 0.577,-0.274 0.581,-0.294 0.581,-0.316 L 0.616,-0.34 h 0.071 l 0.035,0.024 c 0,0.022 0.004,0.043 0.012,0.063 0.008,0.02 0.019,0.038 0.034,0.054 0.004,0.005 0.008,0.008 0.012,0.012 0.004,0.004 0.008,0.007 0.012,0.011 z M 0.722,-0.421 v 0.035 L 0.65,-0.357 0.581,-0.386 v -0.035 c 0.01,-0.012 0.02,-0.023 0.032,-0.033 0.012,-0.01 0.024,-0.019 0.037,-0.027 0.014,0.007 0.027,0.016 0.039,0.026 0.012,0.01 0.023,0.022 0.033,0.034 z M 0.687,-0.737 v 0.14 l -0.036,0.02 -0.035,-0.02 v -0.14 L 0.649,-0.752 Z M 0.511,-0.07 H 0.616 V -0.175 C 0.613,-0.173 0.609,-0.169 0.603,-0.163 0.597,-0.158 0.59,-0.152 0.583,-0.145 0.575,-0.138 0.567,-0.13 0.559,-0.123 0.551,-0.115 0.543,-0.107 0.537,-0.1 0.53,-0.093 0.524,-0.087 0.519,-0.082 0.515,-0.076 0.512,-0.073 0.511,-0.07 Z m 0.176,0 H 0.792 L 0.687,-0.176 Z"
         style="fill:#f03a17;fill-rule:nonzero"
         id="path12472" /><path
         d="m 0.546,-0.386 h 0.211 l -0.035,0.035 v 0.035 H 0.581 v -0.035 z m 0.141,-0.211 v 0.14 H 0.616 v -0.14 z m -0.036,-0.28 0.036,0.14 H 0.616 Z"
         style="fill:#f2f2f2;fill-rule:nonzero"
         id="path12474" /></g></g></svg>
