<?xml version="1.0" encoding="UTF-8" standalone="no"?>
<svg
   width="16.32"
   height="16.844999"
   viewBox="0 0 16.32 16.844999"
   version="1.1"
   xml:space="preserve"
   style="clip-rule:evenodd;fill-rule:evenodd;stroke-linejoin:round;stroke-miterlimit:2"
   id="svg20568"
   sodipodi:docname="emojis.svg"
   xmlns:inkscape="http://www.inkscape.org/namespaces/inkscape"
   xmlns:sodipodi="http://sodipodi.sourceforge.net/DTD/sodipodi-0.dtd"
   xmlns="http://www.w3.org/2000/svg"
   xmlns:svg="http://www.w3.org/2000/svg"><defs
     id="defs20572" /><sodipodi:namedview
     id="namedview20570"
     pagecolor="#505050"
     bordercolor="#eeeeee"
     borderopacity="1"
     inkscape:pageshadow="0"
     inkscape:pageopacity="0"
     inkscape:pagecheckerboard="0" /><g
     transform="matrix(0.24,0,0,0.24,-607.083,-642.0258)"
     id="g20566"><g
       transform="matrix(62.5,0,0,62.5,2521.7,2732.17)"
       id="g12468"><path
         d="m 0.335,-0.913 h 0.176 v 0.036 h 0.05 c 0.012,-0.012 0.026,-0.02 0.042,-0.026 0.016,-0.007 0.032,-0.01 0.048,-0.01 0.014,0 0.027,0.002 0.04,0.006 0.013,0.004 0.025,0.01 0.036,0.017 0.012,0.007 0.022,0.016 0.031,0.026 0.009,0.01 0.016,0.022 0.021,0.034 0.016,0.007 0.029,0.016 0.041,0.028 0.011,0.011 0.021,0.025 0.028,0.039 0.008,-0.003 0.016,-0.005 0.024,-0.007 0.008,-0.001 0.017,-0.002 0.025,-0.002 0.014,0 0.027,0.002 0.04,0.006 0.013,0.004 0.025,0.009 0.036,0.016 0.012,0.008 0.022,0.016 0.03,0.026 0.009,0.01 0.016,0.022 0.022,0.035 0.013,0.005 0.024,0.012 0.034,0.021 0.01,0.009 0.019,0.019 0.026,0.03 0.007,0.011 0.013,0.023 0.017,0.036 0.003,0.013 0.005,0.027 0.005,0.04 0,0.013 -10e-4,0.025 -0.004,0.036 l 0.11,0.111 v 0.134 H 1.178 V 0.21 H 0.16 V -0.386 H 0.125 V -0.521 L 0.3,-0.696 v -0.181 h 0.035 z"
         style="fill-rule:nonzero"
         id="path12450" /><path
         d="m 0.476,-0.807 v 0.035 H 0.441 v 0.095 H 0.406 V -0.772 H 0.371 v -0.035 h 0.035 v -0.035 h 0.035 v 0.035 z"
         style="fill:#f7894a;fill-rule:nonzero"
         id="path12452" /><path
         d="M 1.178,-0.351 H 1.107 L 1.036,-0.283 H 0.538 V -0.457 H 0.16 l 0.246,-0.245 h 0.035 l 0.246,0.245 H 1.073 Z M 0.792,-0.702 c 0,0.01 -0.002,0.019 -0.006,0.027 -0.003,0.009 -0.008,0.016 -0.015,0.022 -0.006,0.007 -0.014,0.012 -0.022,0.016 -0.008,0.003 -0.018,0.005 -0.027,0.005 H 0.581 v -0.14 c 0,-0.01 0.002,-0.019 0.006,-0.027 0.003,-0.009 0.008,-0.016 0.015,-0.023 0.006,-0.006 0.014,-0.011 0.022,-0.015 0.008,-0.003 0.018,-0.005 0.027,-0.005 0.01,0 0.019,0.002 0.028,0.005 0.008,0.004 0.016,0.009 0.022,0.015 0.006,0.007 0.011,0.014 0.015,0.023 0.004,0.008 0.006,0.017 0.006,0.027 0.009,0 0.019,0.002 0.027,0.005 0.008,0.004 0.016,0.009 0.022,0.015 0.007,0.007 0.012,0.014 0.015,0.023 0.004,0.008 0.006,0.017 0.006,0.027 z"
         style="fill:#e81224;fill-rule:nonzero"
         id="path12454" /><path
         d="M 0.616,-0.351 H 1.107 V 0.14 H 0.616 L 0.572,0.073 v -0.36 z"
         style="fill:#e5e5e5;fill-rule:nonzero"
         id="path12456" /><path
         d="M 0.511,0.14 0.423,0.07 0.335,0.14 H 0.23 v -0.597 l 0.193,-0.192 0.193,0.192 V 0.14 Z"
         style="fill:#f2f2f2;fill-rule:nonzero"
         id="path12458" /><path
         d="m 0.511,-0.053 c 0,0.007 0,0.013 -0.002,0.018 H 0.511 V 0.14 H 0.335 V -0.035 H 0.337 C 0.336,-0.04 0.335,-0.046 0.335,-0.053 c 0,-0.012 0.003,-0.023 0.007,-0.034 0.005,-0.011 0.011,-0.02 0.019,-0.028 0.008,-0.008 0.017,-0.014 0.028,-0.019 0.01,-0.004 0.022,-0.007 0.034,-0.007 0.012,0 0.024,0.003 0.035,0.007 0.01,0.005 0.02,0.011 0.028,0.019 0.008,0.008 0.014,0.017 0.018,0.028 0.005,0.011 0.007,0.022 0.007,0.034 z"
         style="fill:#f03a17;fill-rule:nonzero"
         id="path12460" /><path
         d="m 0.423,-0.526 c 0.012,0 0.024,0.002 0.035,0.006 0.01,0.005 0.02,0.011 0.028,0.019 0.008,0.008 0.014,0.018 0.018,0.028 0.005,0.011 0.007,0.022 0.007,0.034 0,0.012 -0.002,0.024 -0.007,0.034 -0.004,0.011 -0.01,0.02 -0.018,0.028 -0.008,0.008 -0.018,0.015 -0.028,0.019 -0.011,0.005 -0.023,0.007 -0.035,0.007 -0.012,0 -0.024,-0.002 -0.034,-0.007 C 0.378,-0.362 0.369,-0.369 0.361,-0.377 0.353,-0.385 0.347,-0.394 0.342,-0.405 0.338,-0.415 0.335,-0.427 0.335,-0.439 c 0,-0.012 0.003,-0.023 0.007,-0.034 0.005,-0.01 0.011,-0.02 0.019,-0.028 C 0.369,-0.509 0.378,-0.515 0.389,-0.52 0.4,-0.524 0.411,-0.526 0.423,-0.526 Z m 0.544,0.245 c 0.01,0 0.019,0.002 0.028,0.006 0.008,0.004 0.015,0.009 0.022,0.015 0.006,0.006 0.011,0.014 0.015,0.022 0.004,0.009 0.006,0.018 0.006,0.028 V 0 H 0.897 v -0.21 c 0,-0.01 0.002,-0.019 0.006,-0.028 0.003,-0.008 0.008,-0.016 0.015,-0.022 0.006,-0.006 0.013,-0.011 0.022,-0.015 0.008,-0.004 0.018,-0.006 0.027,-0.006 z m -0.21,0 c 0.01,0 0.019,0.002 0.027,0.006 0.009,0.004 0.016,0.009 0.022,0.015 0.007,0.006 0.012,0.014 0.015,0.022 0.004,0.009 0.006,0.018 0.006,0.028 V 0 h -0.14 v -0.21 c 0,-0.01 10e-4,-0.019 0.005,-0.028 C 0.695,-0.246 0.7,-0.254 0.707,-0.26 0.713,-0.266 0.721,-0.271 0.729,-0.275 0.738,-0.279 0.747,-0.281 0.757,-0.281 Z"
         style="fill:#31d2f7;fill-rule:nonzero"
         id="path12462" /><path
         d="m 0.967,-0.632 c 0.01,0 0.019,0.002 0.028,0.006 0.008,0.004 0.015,0.009 0.022,0.015 0.006,0.006 0.011,0.014 0.015,0.022 0.004,0.009 0.006,0.018 0.006,0.027 0,0.01 -0.002,0.019 -0.006,0.028 -0.004,0.008 -0.009,0.016 -0.015,0.022 -0.007,0.006 -0.014,0.011 -0.022,0.015 -0.009,0.004 -0.018,0.006 -0.028,0.006 h -0.14 v -0.141 c 0,-0.01 0.002,-0.019 0.005,-0.027 0.004,-0.009 0.009,-0.016 0.015,-0.022 0.007,-0.007 0.014,-0.012 0.023,-0.016 0.008,-0.003 0.017,-0.005 0.027,-0.005 0.01,0 0.019,0.002 0.027,0.005 0.009,0.004 0.016,0.009 0.023,0.016 0.006,0.006 0.011,0.013 0.015,0.022 0.003,0.008 0.005,0.017 0.005,0.027 z"
         style="fill:#e6808a;fill-rule:nonzero"
         id="path12464" /><path
         d="m 0.757,-0.597 c 0.009,0 0.017,0.004 0.024,0.011 0.007,0.007 0.011,0.015 0.011,0.024 v 0.071 h -0.07 c -0.01,0 -0.018,-0.004 -0.025,-0.011 -0.007,-0.007 -0.01,-0.015 -0.01,-0.024 0,-0.01 0.003,-0.018 0.01,-0.025 0.007,-0.007 0.015,-0.011 0.025,-0.011 0,-0.009 0.003,-0.018 0.01,-0.024 0.007,-0.007 0.015,-0.011 0.025,-0.011 z"
         style="fill:#f4abba;fill-rule:nonzero"
         id="path12466" /></g></g></svg>
