<?xml version="1.0" encoding="UTF-8" standalone="no"?>
<svg
   width="12.105"
   height="16.32"
   viewBox="0 0 12.105 16.32"
   version="1.1"
   xml:space="preserve"
   style="clip-rule:evenodd;fill-rule:evenodd;stroke-linejoin:round;stroke-miterlimit:2"
   id="svg20568"
   sodipodi:docname="emojis.svg"
   xmlns:inkscape="http://www.inkscape.org/namespaces/inkscape"
   xmlns:sodipodi="http://sodipodi.sourceforge.net/DTD/sodipodi-0.dtd"
   xmlns="http://www.w3.org/2000/svg"
   xmlns:svg="http://www.w3.org/2000/svg"><defs
     id="defs20572" /><sodipodi:namedview
     id="namedview20570"
     pagecolor="#505050"
     bordercolor="#eeeeee"
     borderopacity="1"
     inkscape:pageshadow="0"
     inkscape:pageopacity="0"
     inkscape:pagecheckerboard="0" /><g
     transform="matrix(0.24,0,0,0.24,-646.707,-642.0258)"
     id="g20566"><g
       transform="matrix(62.5,0,0,62.5,2686.8,2732.17)"
       id="g12486"><path
         d="M 0.932,0.175 H 0.23 V 0.07 C 0.23,0.067 0.229,0.064 0.228,0.062 0.226,0.059 0.223,0.057 0.221,0.054 0.202,0.037 0.187,0.018 0.177,-0.001 0.166,-0.021 0.16,-0.044 0.16,-0.07 v -0.088 c 0,-0.018 0.003,-0.036 0.009,-0.053 0.006,-0.016 0.015,-0.032 0.026,-0.046 l 0.001,-0.061 c 0,-0.003 -0.001,-0.01 -0.001,-0.019 C 0.194,-0.346 0.193,-0.356 0.191,-0.368 0.19,-0.379 0.188,-0.392 0.186,-0.405 0.184,-0.417 0.183,-0.43 0.181,-0.441 0.179,-0.452 0.177,-0.462 0.176,-0.47 0.174,-0.479 0.172,-0.484 0.171,-0.487 0.17,-0.491 0.168,-0.495 0.166,-0.498 0.164,-0.502 0.162,-0.506 0.16,-0.51 V -0.526 C 0.154,-0.534 0.15,-0.542 0.147,-0.551 0.144,-0.56 0.143,-0.57 0.143,-0.579 c 0,-0.005 0,-0.01 0.001,-0.016 C 0.131,-0.611 0.125,-0.629 0.125,-0.649 v -0.193 h 0.07 v -0.071 h 0.07 c 0.02,0 0.038,0.004 0.055,0.011 0.017,0.008 0.032,0.018 0.045,0.03 0.012,0.013 0.022,0.028 0.03,0.045 0.007,0.017 0.011,0.035 0.011,0.055 v 0.21 c 0,0.025 -0.008,0.047 -0.024,0.066 l 0.003,0.014 c 0.009,-0.005 0.018,-0.007 0.029,-0.007 0.008,0 0.016,0.002 0.024,0.005 0.007,0.004 0.014,0.008 0.02,0.014 0.007,0.005 0.013,0.011 0.018,0.017 0.006,0.006 0.012,0.013 0.017,0.018 0.002,-0.011 0.004,-0.022 0.006,-0.033 0.002,-0.011 0.005,-0.021 0.01,-0.03 0.004,-0.008 0.011,-0.015 0.019,-0.021 0.009,-0.005 0.02,-0.008 0.034,-0.008 0.015,0 0.027,0.003 0.035,0.008 0.009,0.006 0.015,0.013 0.02,0.021 0.005,0.009 0.008,0.019 0.01,0.03 0.002,0.012 0.004,0.023 0.005,0.034 0.006,-0.005 0.012,-0.012 0.017,-0.018 0.006,-0.007 0.012,-0.013 0.019,-0.018 0.006,-0.006 0.013,-0.01 0.021,-0.014 0.007,-0.003 0.016,-0.005 0.024,-0.005 0.009,0 0.017,0.001 0.025,0.005 0.008,0.003 0.015,0.008 0.021,0.014 0.006,0.006 0.011,0.012 0.015,0.02 0.004,0.008 0.005,0.016 0.005,0.025 0,0.013 -0.003,0.025 -0.009,0.037 -0.007,0.012 -0.013,0.023 -0.019,0.033 0.007,-0.002 0.015,-0.004 0.023,-0.006 0.007,-0.003 0.015,-0.004 0.023,-0.004 0.009,0 0.018,0.002 0.026,0.006 0.008,0.004 0.014,0.009 0.02,0.015 0.006,0.006 0.011,0.013 0.014,0.021 0.003,0.008 0.005,0.017 0.005,0.026 0,0.006 -0.001,0.012 -0.003,0.018 -0.002,0.006 -0.005,0.012 -0.008,0.018 -0.004,0.005 -0.008,0.01 -0.013,0.014 -0.005,0.004 -0.01,0.007 -0.016,0.009 0.013,0.006 0.022,0.014 0.029,0.025 0.007,0.011 0.01,0.023 0.01,0.037 0,0.01 -0.002,0.019 -0.005,0.028 C 0.852,-0.14 0.847,-0.132 0.841,-0.126 0.835,-0.119 0.828,-0.114 0.819,-0.111 0.81,-0.107 0.801,-0.105 0.791,-0.105 H 0.722 v 0.07 c 0,0.004 0.002,0.009 0.006,0.013 0.011,0.003 0.022,0.008 0.033,0.013 0.011,0.006 0.021,0.012 0.032,0.019 0.01,0.007 0.02,0.015 0.029,0.024 0.009,0.009 0.017,0.017 0.024,0.027 z"
         style="fill-rule:nonzero"
         id="path12478" /><path
         d="M 0.321,-0.73 C 0.319,-0.731 0.316,-0.732 0.312,-0.732 c -0.004,0 -0.009,-0.001 -0.014,-0.001 -0.005,0 -0.01,0 -0.015,0 H 0.238 c -0.004,0 -0.008,0 -0.012,0 -0.003,0 -0.007,0.001 -0.01,0.001 -0.003,0 -0.006,0.001 -0.007,0.002 C 0.2,-0.743 0.195,-0.757 0.195,-0.772 c 0.01,0 0.019,-0.002 0.028,-0.006 0.008,-0.003 0.016,-0.008 0.022,-0.015 0.006,-0.006 0.011,-0.013 0.015,-0.022 0.003,-0.008 0.005,-0.018 0.005,-0.027 0.01,0 0.019,0.002 0.027,0.005 0.009,0.004 0.016,0.009 0.023,0.015 0.006,0.007 0.011,0.014 0.015,0.023 0.004,0.008 0.005,0.017 0.005,0.027 0,0.016 -0.004,0.03 -0.014,0.042 z"
         style="fill:#ffb900;fill-rule:nonzero"
         id="path12480" /><path
         d="M 0.691,0.04 C 0.711,0.045 0.73,0.053 0.747,0.064 0.764,0.076 0.779,0.089 0.792,0.105 H 0.3 V 0.07 C 0.3,0.059 0.299,0.05 0.295,0.041 0.292,0.033 0.287,0.025 0.282,0.019 0.277,0.012 0.271,0.006 0.265,0 0.259,-0.006 0.254,-0.012 0.249,-0.019 0.243,-0.025 0.239,-0.033 0.236,-0.041 0.232,-0.05 0.23,-0.059 0.23,-0.07 v -0.088 c 0,-0.014 0.003,-0.027 0.01,-0.039 0.006,-0.013 0.014,-0.023 0.025,-0.031 l 0.089,-0.01 c 0.011,0.005 0.019,0.011 0.027,0.019 0.008,0.008 0.014,0.017 0.018,0.028 L 0.476,-0.21 C 0.478,-0.213 0.48,-0.216 0.482,-0.219 0.484,-0.222 0.486,-0.224 0.489,-0.227 0.496,-0.234 0.505,-0.239 0.515,-0.241 0.526,-0.243 0.535,-0.246 0.545,-0.249 0.548,-0.25 0.551,-0.25 0.554,-0.251 0.557,-0.252 0.56,-0.253 0.564,-0.253 L 0.563,-0.25 c 0.018,0 0.034,0.003 0.049,0.01 0.016,0.006 0.029,0.016 0.039,0.03 l 0.141,0.034 H 0.651 v 0.141 c 0,0.008 0.001,0.016 0.004,0.023 0.002,0.007 0.005,0.013 0.008,0.019 0.004,0.006 0.008,0.011 0.013,0.016 0.005,0.006 0.01,0.011 0.015,0.017 z M 0.3,-0.717 c 0.006,0 0.012,0.002 0.016,0.005 0.005,0.003 0.009,0.007 0.011,0.012 0.003,0.005 0.005,0.011 0.006,0.016 0.002,0.006 0.002,0.012 0.002,0.017 0,0.006 -0.001,0.011 -0.004,0.017 -0.002,0.005 -0.006,0.009 -0.011,0.012 l -0.013,0.03 v 0.049 c 0,0.008 -0.001,0.014 -0.001,0.019 0,0.004 -0.001,0.009 -0.002,0.013 C 0.303,-0.522 0.302,-0.518 0.3,-0.513 0.298,-0.508 0.296,-0.502 0.293,-0.494 L 0.265,-0.424 0.25,-0.478 C 0.247,-0.488 0.244,-0.497 0.24,-0.506 0.237,-0.515 0.234,-0.521 0.23,-0.526 v -0.036 c 0.005,-0.002 0.009,-0.005 0.011,-0.007 0.003,-0.001 0.004,-0.005 0.004,-0.011 0,-0.01 -0.001,-0.019 -0.003,-0.029 -0.003,-0.01 -0.004,-0.02 -0.004,-0.029 0,-0.002 0,-0.004 0.001,-0.005 0,-0.002 0,-0.004 0,-0.005 0,0 -0.001,-0.001 -0.001,-0.001 -0.001,0 -0.002,0 -0.002,0 C 0.23,-0.65 0.223,-0.651 0.215,-0.652 0.208,-0.653 0.201,-0.655 0.197,-0.657 0.196,-0.66 0.195,-0.663 0.195,-0.667 0.195,-0.673 0.196,-0.679 0.197,-0.685 0.198,-0.69 0.2,-0.696 0.202,-0.7 0.205,-0.705 0.209,-0.709 0.213,-0.712 0.218,-0.715 0.224,-0.717 0.23,-0.717 Z m 0.071,0.436 0.108,0.028 c 0.002,-0.005 0.004,-0.01 0.006,-0.015 0.003,-0.005 0.005,-0.009 0.009,-0.013 l -0.053,-0.105 0.08,0.081 C 0.529,-0.31 0.537,-0.313 0.546,-0.314 l 0.017,-0.143 0.019,0.143 c 0.008,0.002 0.016,0.005 0.023,0.009 l 0.082,-0.081 -0.053,0.105 c 0.003,0.004 0.006,0.008 0.008,0.013 0.002,0.005 0.004,0.01 0.005,0.015 L 0.757,-0.281 0.651,-0.228 0.644,-0.24 0.646,-0.243 0.644,-0.248 C 0.64,-0.252 0.635,-0.256 0.628,-0.26 0.622,-0.263 0.614,-0.266 0.607,-0.269 0.599,-0.271 0.591,-0.273 0.584,-0.274 0.576,-0.276 0.569,-0.276 0.564,-0.276 c -0.007,0 -0.014,0 -0.022,0.002 -0.008,0.001 -0.016,0.003 -0.024,0.006 -0.009,0.003 -0.016,0.007 -0.023,0.011 -0.007,0.004 -0.013,0.009 -0.016,0.014 l 0.003,0.007 -0.006,0.008 z m 0.033,0.105 c 0.001,0.003 0.001,0.006 0.002,0.009 0,0.003 0,0.007 0,0.01 v 0.016 c 0,0.014 0.003,0.027 0.01,0.039 0.006,0.012 0.015,0.023 0.025,0.032 0.01,-0.009 0.019,-0.02 0.025,-0.032 0.007,-0.012 0.01,-0.025 0.01,-0.039 v -0.035 z"
         style="fill:#00cea6;fill-rule:nonzero"
         id="path12482" /><path
         d="m 0.248,-0.667 c 0.004,0 0.008,0.001 0.011,0.004 0.003,0.003 0.005,0.007 0.006,0.011 0,-0.004 0.002,-0.008 0.006,-0.011 0.003,-0.003 0.007,-0.004 0.012,-0.004 0.003,0 0.007,0.002 0.013,0.007 0.006,0.004 0.012,0.009 0.017,0.015 0.006,0.006 0.011,0.012 0.016,0.018 0.004,0.005 0.006,0.01 0.006,0.013 l 0.001,0.04 c 0,0.011 -0.002,0.021 -0.005,0.03 -0.004,0.009 -0.012,0.015 -0.025,0.017 l 0.048,0.289 c 0.003,0.016 0.006,0.032 0.011,0.049 0.004,0.016 0.006,0.032 0.006,0.048 0,0.01 -0.002,0.019 -0.006,0.028 C 0.361,-0.104 0.356,-0.097 0.35,-0.091 0.344,-0.084 0.336,-0.079 0.328,-0.076 0.319,-0.072 0.31,-0.07 0.3,-0.07 0.291,-0.07 0.283,-0.074 0.276,-0.081 0.269,-0.088 0.265,-0.096 0.265,-0.105 V -0.228 L 0.266,-0.337 C 0.266,-0.348 0.264,-0.36 0.262,-0.371 0.26,-0.382 0.258,-0.393 0.256,-0.404 L 0.239,-0.509 0.265,-0.457 0.3,-0.526 V -0.607 L 0.289,-0.616 C 0.285,-0.62 0.281,-0.623 0.278,-0.626 0.275,-0.63 0.272,-0.634 0.269,-0.637 0.267,-0.641 0.265,-0.645 0.265,-0.647 0.264,-0.644 0.263,-0.64 0.26,-0.637 c -0.002,0.003 -0.005,0.005 -0.01,0.005 0.005,0.001 0.008,0.003 0.011,0.007 0.003,0.003 0.004,0.007 0.004,0.011 0,0.004 -0.001,0.008 -0.004,0.011 -0.002,0.004 -0.006,0.006 -0.011,0.006 0.005,0.001 0.008,0.003 0.011,0.007 0.003,0.003 0.004,0.007 0.004,0.011 0,0.004 -0.002,0.009 -0.005,0.012 -0.003,0.004 -0.007,0.005 -0.012,0.005 H 0.23 c -0.004,0 -0.009,-10e-4 -0.012,-0.005 -0.003,-0.003 -0.005,-0.007 -0.005,-0.012 0,-0.005 0.001,-0.008 0.004,-0.012 0.002,-0.003 0.005,-0.005 0.01,-0.006 -0.005,0 -0.008,-0.002 -0.01,-0.005 -0.003,-0.004 -0.004,-0.008 -0.004,-0.012 0,-0.005 0.001,-0.009 0.004,-0.012 0.002,-0.003 0.005,-0.005 0.01,-0.006 H 0.222 c -0.007,0 -0.013,-0.001 -0.018,-0.002 -0.006,-0.002 -0.009,-0.007 -0.009,-0.015 0,-0.005 0.002,-0.009 0.005,-0.013 0.004,-0.003 0.008,-0.005 0.013,-0.005 z m 0.315,0.457 c 0.008,0.008 0.016,0.015 0.024,0.022 0.009,0.006 0.019,0.012 0.029,0.015 v 0.05 c 0,0.007 -0.001,0.014 -0.004,0.021 C 0.609,-0.096 0.606,-0.09 0.601,-0.086 0.596,-0.081 0.59,-0.077 0.584,-0.074 0.577,-0.072 0.571,-0.07 0.563,-0.07 0.556,-0.07 0.55,-0.072 0.543,-0.074 0.537,-0.077 0.531,-0.081 0.527,-0.086 0.522,-0.091 0.518,-0.096 0.515,-0.103 0.513,-0.109 0.511,-0.116 0.511,-0.123 v -0.05 C 0.522,-0.176 0.531,-0.181 0.54,-0.188 0.548,-0.194 0.556,-0.202 0.563,-0.21 Z m 0,-0.071 c 0.009,0 0.017,0.001 0.024,0.002 0.006,0.001 0.013,0.003 0.019,0.005 0.006,0.003 0.012,0.006 0.018,0.009 0.006,0.004 0.013,0.008 0.02,0.013 0.001,0.001 0.003,0.002 0.004,0.002 0.001,0.001 0.002,0.002 0.003,0.004 V -0.21 C 0.641,-0.222 0.628,-0.231 0.611,-0.237 0.595,-0.243 0.579,-0.246 0.563,-0.246 0.556,-0.246 0.548,-0.245 0.54,-0.243 0.532,-0.242 0.524,-0.24 0.516,-0.237 0.508,-0.234 0.501,-0.23 0.494,-0.226 0.487,-0.221 0.481,-0.216 0.476,-0.21 v -0.036 c 0.001,-0.002 0.002,-0.003 0.003,-0.004 0.002,0 0.003,-0.001 0.005,-0.002 0.007,-0.005 0.013,-0.009 0.019,-0.012 0.006,-0.004 0.012,-0.007 0.018,-0.009 0.007,-0.003 0.013,-0.005 0.02,-0.006 0.006,-0.001 0.014,-0.002 0.022,-0.002 z M 0.529,0.017 0.616,-0.07 V 0.035 H 0.578 L 0.569,0.034 c -0.002,0 -0.004,0 -0.006,-0.001 -10e-4,0 -0.002,0 -0.002,-0.001 -0.001,0 -0.002,0 -0.003,0 C 0.557,0.031 0.556,0.031 0.556,0.031 0.555,0.031 0.554,0.03 0.552,0.03 0.551,0.029 0.55,0.029 0.549,0.028 L 0.544,0.026 C 0.541,0.025 0.538,0.024 0.536,0.022 0.534,0.02 0.531,0.019 0.529,0.017 Z M 0.23,-0.702 c -0.009,0 -0.017,0.003 -0.024,0.009 -0.006,0.006 -0.01,0.014 -0.011,0.023 v -0.032 c 0,-0.01 0.004,-0.018 0.011,-0.025 0.007,-0.007 0.015,-0.01 0.024,-0.01 H 0.3 c 0.01,0 0.018,0.003 0.025,0.01 0.007,0.007 0.01,0.015 0.01,0.025 v 0.035 c 0,-0.01 -0.003,-0.018 -0.01,-0.025 C 0.318,-0.699 0.31,-0.702 0.3,-0.702 Z"
         style="fill:#81e6d3;fill-rule:nonzero"
         id="path12484" /></g></g></svg>
