<?xml version="1.0" encoding="UTF-8" standalone="no"?>
<svg
   width="16.844999"
   height="16.844999"
   viewBox="0 0 16.844999 16.844999"
   version="1.1"
   xml:space="preserve"
   style="clip-rule:evenodd;fill-rule:evenodd;stroke-linejoin:round;stroke-miterlimit:2"
   id="svg20568"
   sodipodi:docname="emojis.svg"
   xmlns:inkscape="http://www.inkscape.org/namespaces/inkscape"
   xmlns:sodipodi="http://sodipodi.sourceforge.net/DTD/sodipodi-0.dtd"
   xmlns="http://www.w3.org/2000/svg"
   xmlns:svg="http://www.w3.org/2000/svg"><defs
     id="defs20572" /><sodipodi:namedview
     id="namedview20570"
     pagecolor="#505050"
     bordercolor="#eeeeee"
     borderopacity="1"
     inkscape:pageshadow="0"
     inkscape:pageopacity="0"
     inkscape:pagecheckerboard="0" /><g
     transform="matrix(0.24,0,0,0.24,-702.7158,-642.0258)"
     id="g20566"><g
       transform="matrix(62.5,0,0,62.5,2920.17,2732.17)"
       id="g12528"><path
         d="M 1.248,-0.386 V -0.21 H 1.213 V 0.035 H 1.248 V 0.21 H 0.125 V 0.035 H 0.16 V -0.21 H 0.125 V -0.386 H 0.16 c 0.001,-0.029 0.008,-0.056 0.021,-0.081 0.013,-0.026 0.03,-0.047 0.052,-0.065 L 0.234,-0.534 C 0.231,-0.543 0.23,-0.553 0.23,-0.562 c 0,-0.014 0.003,-0.029 0.009,-0.043 0.006,-0.014 0.014,-0.026 0.024,-0.036 -0.004,-0.011 -0.007,-0.023 -0.007,-0.035 0,-0.013 0.003,-0.026 0.008,-0.037 0.005,-0.012 0.012,-0.022 0.021,-0.031 0.008,-0.009 0.019,-0.015 0.03,-0.02 0.012,-0.005 0.025,-0.008 0.038,-0.008 0.013,0 0.026,0.003 0.038,0.008 0.011,0.005 0.022,0.011 0.03,0.02 0.009,0.009 0.016,0.019 0.021,0.031 0.005,0.011 0.008,0.024 0.008,0.037 0,0.011 -0.002,0.023 -0.007,0.035 0.011,0.011 0.019,0.023 0.025,0.037 0.013,-0.017 0.028,-0.031 0.044,-0.044 0.016,-0.013 0.034,-0.024 0.053,-0.033 -0.001,-0.006 -0.002,-0.013 -0.002,-0.021 0,-0.015 0.003,-0.029 0.009,-0.043 C 0.578,-0.759 0.586,-0.771 0.596,-0.782 0.594,-0.787 0.593,-0.793 0.592,-0.799 0.59,-0.804 0.59,-0.81 0.59,-0.816 c 0,-0.013 0.002,-0.026 0.007,-0.038 0.005,-0.011 0.012,-0.021 0.021,-0.03 0.009,-0.009 0.019,-0.016 0.031,-0.021 0.012,-0.005 0.024,-0.008 0.038,-0.008 0.013,0 0.025,0.003 0.037,0.008 0.012,0.005 0.022,0.012 0.031,0.021 0.009,0.009 0.016,0.019 0.021,0.03 0.005,0.012 0.007,0.025 0.007,0.038 0,0.006 0,0.012 -0.002,0.017 -0.001,0.006 -0.002,0.012 -0.004,0.017 0.01,0.011 0.018,0.023 0.024,0.037 0.006,0.014 0.009,0.028 0.009,0.043 0,0.008 -0.001,0.015 -0.002,0.021 0.019,0.009 0.037,0.02 0.053,0.033 0.016,0.013 0.031,0.027 0.044,0.044 0.003,-0.007 0.007,-0.013 0.011,-0.02 C 0.919,-0.63 0.924,-0.636 0.93,-0.641 0.925,-0.653 0.923,-0.665 0.923,-0.676 c 0,-0.013 0.003,-0.026 0.008,-0.037 0.005,-0.012 0.012,-0.022 0.021,-0.031 0.008,-0.009 0.019,-0.015 0.03,-0.02 0.012,-0.005 0.025,-0.008 0.038,-0.008 0.013,0 0.026,0.003 0.038,0.008 0.011,0.005 0.022,0.011 0.03,0.02 0.009,0.009 0.016,0.019 0.021,0.031 0.005,0.011 0.007,0.024 0.007,0.037 0,0.006 0,0.012 -0.001,0.018 -10e-4,0.006 -0.003,0.011 -0.005,0.017 0.01,0.011 0.018,0.023 0.024,0.037 0.006,0.013 0.009,0.028 0.009,0.042 0,0.01 -0.002,0.02 -0.004,0.028 l 10e-4,0.002 c 0.022,0.018 0.039,0.039 0.052,0.065 0.013,0.025 0.02,0.052 0.021,0.081 z"
         style="fill-rule:nonzero"
         id="path12518" /><path
         d="m 1.02,-0.509 c 0.009,0.003 0.018,0.006 0.026,0.009 0.009,0.003 0.018,0.006 0.027,0.009 0.01,0.004 0.02,0.01 0.028,0.018 0.009,0.008 0.016,0.017 0.022,0.027 0.006,0.01 0.011,0.021 0.014,0.032 0.004,0.012 0.006,0.023 0.006,0.034 V 0.123 H 0.23 V -0.38 c 0,-0.011 0.002,-0.022 0.005,-0.034 C 0.239,-0.425 0.243,-0.436 0.25,-0.446 0.256,-0.456 0.263,-0.465 0.272,-0.473 0.28,-0.481 0.29,-0.487 0.3,-0.491 0.309,-0.494 0.318,-0.497 0.327,-0.5 c 0.008,-0.003 0.017,-0.006 0.026,-0.009 0.009,0.003 0.018,0.006 0.026,0.009 0.009,0.003 0.018,0.006 0.027,0.009 0.01,0.003 0.02,0.009 0.028,0.017 0.009,0.008 0.016,0.017 0.023,0.027 0.006,0.011 0.011,0.022 0.014,0.033 0.003,0.012 0.005,0.023 0.005,0.034 v 0.011 H 0.897 V -0.38 c 0,-0.011 0.002,-0.022 0.005,-0.034 C 0.906,-0.425 0.91,-0.436 0.917,-0.447 0.923,-0.457 0.93,-0.466 0.939,-0.474 0.947,-0.482 0.957,-0.488 0.967,-0.491 0.976,-0.494 0.985,-0.497 0.994,-0.5 1.002,-0.503 1.011,-0.506 1.02,-0.509 Z m -0.386,-0.14 c 0,-0.005 0.001,-0.009 0.005,-0.013 0.003,-0.003 0.007,-0.005 0.012,-0.005 l 0.036,-0.027 0.035,0.027 c 0.005,0 0.009,0.002 0.012,0.005 0.004,0.004 0.005,0.008 0.005,0.013 v 0.017 l -0.052,0.06 -0.053,-0.06 z"
         style="fill:#ffb900;fill-rule:nonzero"
         id="path12520" /><path
         d="M 0.932,-0.316 H 0.441 l -0.02,0.018 0.02,0.017 v 0.035 h 0.035 v 0.37 h 0.421 v -0.37 H 0.932 V -0.281 L 0.949,-0.298 Z M 0.476,-0.428 c 0,-0.019 0.003,-0.038 0.008,-0.056 0.005,-0.018 0.012,-0.035 0.021,-0.051 0.01,-0.016 0.021,-0.031 0.035,-0.044 0.013,-0.013 0.029,-0.024 0.045,-0.034 0.002,-0.001 0.006,-0.002 0.01,-0.004 0.005,-0.003 0.01,-0.005 0.015,-0.007 0.005,-0.002 0.009,-0.004 0.014,-0.005 0.005,-0.002 0.008,-0.003 0.01,-0.003 h 0.105 c 0.002,0 0.005,0.001 0.01,0.003 0.005,0.001 0.009,0.003 0.014,0.005 0.005,0.002 0.01,0.004 0.015,0.007 0.004,0.002 0.008,0.003 0.01,0.004 0.017,0.01 0.032,0.021 0.045,0.034 0.014,0.013 0.025,0.028 0.035,0.044 0.009,0.016 0.016,0.033 0.021,0.051 0.005,0.018 0.008,0.037 0.008,0.056 v 0.07 H 0.476 Z M 0.967,-0.491 H 1.073 V -0.509 C 1.073,-0.514 1.071,-0.518 1.068,-0.521 1.064,-0.525 1.06,-0.526 1.055,-0.526 L 1.02,-0.553 0.985,-0.526 c -0.005,0 -0.009,0.001 -0.013,0.005 -0.003,0.003 -0.005,0.007 -0.005,0.012 z m -0.667,0 H 0.406 V -0.509 C 0.406,-0.514 0.404,-0.518 0.401,-0.521 0.397,-0.525 0.393,-0.526 0.388,-0.526 L 0.353,-0.553 0.318,-0.526 c -0.005,0 -0.009,0.001 -0.013,0.005 C 0.302,-0.518 0.3,-0.514 0.3,-0.509 Z"
         style="fill:#ffc83d;fill-rule:nonzero"
         id="path12522" /><path
         d="m 1.038,-0.176 c 0.009,0 0.017,0.004 0.024,0.011 0.007,0.007 0.011,0.015 0.011,0.024 V 0.12 H 0.967 v -0.261 c 0,-0.009 0.004,-0.017 0.011,-0.024 0.007,-0.007 0.015,-0.011 0.024,-0.011 0,-0.006 0.002,-0.012 0.005,-0.017 0.003,-0.006 0.007,-0.01 0.013,-0.013 0.005,0.003 0.009,0.008 0.013,0.013 0.003,0.005 0.005,0.011 0.005,0.017 z m -0.667,0 c 0.009,0 0.017,0.004 0.024,0.011 0.007,0.007 0.011,0.015 0.011,0.024 V 0.12 H 0.3 v -0.261 c 0,-0.009 0.004,-0.017 0.011,-0.024 0.007,-0.007 0.015,-0.011 0.024,-0.011 0,-0.006 0.002,-0.012 0.005,-0.017 0.004,-0.005 0.008,-0.01 0.013,-0.013 0.006,0.003 0.01,0.007 0.013,0.013 0.003,0.005 0.005,0.011 0.005,0.017 z M 0.757,-0.21 c 0.009,0 0.017,0.003 0.024,0.01 0.007,0.007 0.011,0.015 0.011,0.024 0,0.01 0.003,0.018 0.01,0.025 0.007,0.007 0.015,0.01 0.025,0.01 V 0.12 H 0.546 v -0.261 c 0.01,0 0.018,-0.003 0.025,-0.01 0.007,-0.007 0.01,-0.015 0.01,-0.025 0,-0.009 0.004,-0.017 0.011,-0.024 0.007,-0.007 0.015,-0.01 0.024,-0.01 0,-0.01 0.004,-0.019 0.01,-0.025 0.007,-0.007 0.016,-0.011 0.025,-0.011 h 0.018 c 0,-0.006 0.001,-0.012 0.005,-0.017 0.003,-0.006 0.007,-0.01 0.013,-0.013 0.005,0.003 0.009,0.007 0.012,0.013 0.004,0.005 0.005,0.011 0.005,0.017 h 0.018 c 0.009,0 0.018,0.004 0.025,0.011 0.006,0.006 0.01,0.015 0.01,0.025 z"
         style="fill:#ca5010;fill-rule:nonzero"
         id="path12524" /><path
         d="M 1.178,0.14 H 0.195 V 0.105 H 1.178 Z M 0.967,-0.351 H 0.406 v -0.035 h 0.561 z m 0.062,-0.3 c 0,0.013 0.002,0.023 0.007,0.03 0.004,0.008 0.009,0.014 0.015,0.02 0.005,0.005 0.01,0.011 0.015,0.017 0.004,0.005 0.007,0.013 0.007,0.022 0,0.007 -0.002,0.014 -0.005,0.02 -0.003,0.006 -0.008,0.011 -0.013,0.016 H 0.985 C 0.98,-0.531 0.975,-0.536 0.972,-0.542 0.969,-0.548 0.967,-0.555 0.967,-0.562 0.967,-0.571 0.97,-0.578 0.974,-0.584 0.979,-0.59 0.984,-0.596 0.989,-0.602 0.995,-0.607 1,-0.614 1.004,-0.621 1.009,-0.629 1.011,-0.639 1.011,-0.651 1.006,-0.653 1.001,-0.656 0.998,-0.66 0.995,-0.665 0.994,-0.67 0.994,-0.676 c 0,-0.007 0.002,-0.014 0.007,-0.019 0.005,-0.005 0.012,-0.007 0.019,-0.007 0.008,0 0.014,0.002 0.019,0.007 0.005,0.005 0.007,0.012 0.007,0.019 0,0.006 -0.001,0.011 -0.004,0.016 -0.003,0.004 -0.008,0.007 -0.013,0.009 z m -0.667,0 c 0,0.013 0.002,0.023 0.007,0.03 0.004,0.007 0.009,0.014 0.015,0.02 0.005,0.005 0.01,0.011 0.015,0.017 0.004,0.006 0.007,0.013 0.007,0.022 0,0.007 -0.002,0.014 -0.005,0.02 -0.003,0.006 -0.008,0.011 -0.013,0.016 H 0.318 C 0.313,-0.531 0.308,-0.536 0.305,-0.542 0.302,-0.548 0.3,-0.555 0.3,-0.562 0.3,-0.571 0.303,-0.578 0.307,-0.584 0.312,-0.59 0.317,-0.596 0.322,-0.601 0.328,-0.607 0.333,-0.614 0.337,-0.621 0.342,-0.628 0.344,-0.638 0.344,-0.651 0.339,-0.653 0.334,-0.656 0.331,-0.66 0.328,-0.665 0.327,-0.67 0.327,-0.676 c 0,-0.007 0.002,-0.014 0.007,-0.019 0.005,-0.005 0.012,-0.007 0.019,-0.007 0.008,0 0.014,0.002 0.019,0.007 0.005,0.005 0.007,0.012 0.007,0.019 0,0.006 -0.001,0.011 -0.004,0.016 -0.003,0.004 -0.008,0.007 -0.013,0.009 z m 0.333,-0.14 c 0,0.013 0.003,0.023 0.007,0.03 0.005,0.007 0.01,0.014 0.015,0.019 0.006,0.006 0.011,0.011 0.015,0.017 0.005,0.006 0.007,0.013 0.007,0.023 0,0.007 -0.001,0.013 -0.004,0.019 -0.003,0.006 -0.008,0.011 -0.013,0.016 H 0.651 C 0.646,-0.672 0.642,-0.677 0.639,-0.683 0.635,-0.689 0.634,-0.695 0.634,-0.702 0.634,-0.711 0.636,-0.719 0.641,-0.725 0.645,-0.73 0.65,-0.736 0.656,-0.742 0.661,-0.748 0.666,-0.755 0.671,-0.762 0.675,-0.769 0.678,-0.779 0.678,-0.791 0.673,-0.793 0.668,-0.796 0.665,-0.801 0.662,-0.805 0.66,-0.81 0.66,-0.816 c 0,-0.007 0.003,-0.014 0.008,-0.019 0.005,-0.005 0.011,-0.007 0.019,-0.007 0.007,0 0.013,0.002 0.018,0.007 0.005,0.005 0.008,0.012 0.008,0.019 0,0.006 -0.002,0.011 -0.005,0.015 -0.003,0.005 -0.007,0.008 -0.013,0.01 z m 0.483,0.51 H 0.932 v -0.035 h 0.246 z m -0.737,0 H 0.195 v -0.035 h 0.246 z"
         style="fill:#d48c00;fill-rule:nonzero"
         id="path12526" /></g></g></svg>
