<?xml version="1.0" encoding="UTF-8" standalone="no"?>
<svg
   width="15.81"
   height="16.844999"
   viewBox="0 0 15.81 16.844999"
   version="1.1"
   xml:space="preserve"
   style="clip-rule:evenodd;fill-rule:evenodd;stroke-linejoin:round;stroke-miterlimit:2"
   id="svg20568"
   sodipodi:docname="emojis.svg"
   xmlns:inkscape="http://www.inkscape.org/namespaces/inkscape"
   xmlns:sodipodi="http://sodipodi.sourceforge.net/DTD/sodipodi-0.dtd"
   xmlns="http://www.w3.org/2000/svg"
   xmlns:svg="http://www.w3.org/2000/svg"><defs
     id="defs20572" /><sodipodi:namedview
     id="namedview20570"
     pagecolor="#505050"
     bordercolor="#eeeeee"
     borderopacity="1"
     inkscape:pageshadow="0"
     inkscape:pageopacity="0"
     inkscape:pagecheckerboard="0" /><g
     transform="matrix(0.24,0,0,0.24,-743.907,-642.0258)"
     id="g20566"><g
       transform="matrix(62.5,0,0,62.5,3091.8,2732.17)"
       id="g12568"><path
         d="M 0.828,0.21 V -0.316 H 0.476 V 0.21 H 0.266 V -0.316 H 0.16 V -0.527 H 0.266 V -0.546 C 0.246,-0.557 0.23,-0.572 0.218,-0.59 0.206,-0.608 0.199,-0.628 0.196,-0.651 0.174,-0.671 0.156,-0.694 0.144,-0.722 0.131,-0.749 0.125,-0.778 0.125,-0.808 v -0.053 c 0,-0.015 0.005,-0.027 0.015,-0.037 0.01,-0.01 0.022,-0.015 0.037,-0.015 0.009,0 0.018,0.003 0.025,0.008 0.007,0.005 0.014,0.012 0.021,0.02 0.007,0.007 0.014,0.016 0.021,0.025 0.007,0.009 0.015,0.017 0.024,0.025 0.009,0.007 0.019,0.014 0.03,0.019 0.011,0.005 0.023,0.008 0.038,0.008 h 0.632 c 0.014,0 0.027,-0.003 0.038,-0.008 C 1.017,-0.821 1.027,-0.828 1.035,-0.835 1.044,-0.843 1.052,-0.851 1.059,-0.86 1.066,-0.869 1.073,-0.878 1.08,-0.885 1.087,-0.893 1.095,-0.9 1.102,-0.905 1.11,-0.91 1.118,-0.913 1.127,-0.913 c 0.015,0 0.027,0.005 0.037,0.015 0.01,0.01 0.015,0.022 0.015,0.037 v 0.053 c 0,0.03 -0.007,0.059 -0.019,0.086 -0.013,0.028 -0.03,0.051 -0.053,0.071 -0.002,0.023 -0.01,0.043 -0.022,0.061 -0.012,0.018 -0.027,0.033 -0.047,0.044 v 0.019 h 0.106 v 0.211 H 1.038 V 0.21 Z"
         style="fill-rule:nonzero"
         id="path12560" /><path
         d="M 0.406,0.07 0.371,0.104 0.336,0.07 v -0.694 h 0.07 z m 0.492,0 v -0.689 h 0.07 V 0.07 L 0.933,0.094 Z M 0.687,-0.439 h -0.07 v -0.18 h 0.07 z"
         style="fill:#e81224;fill-rule:nonzero"
         id="path12562" /><path
         d="m 1.038,-0.667 c 0,0.009 -0.002,0.018 -0.006,0.027 -0.003,0.008 -0.008,0.016 -0.015,0.022 -0.006,0.006 -0.013,0.011 -0.022,0.015 -0.008,0.004 -0.017,0.006 -0.027,0.006 H 0.336 c -0.01,0 -0.019,-0.002 -0.027,-0.006 C 0.3,-0.607 0.293,-0.612 0.286,-0.618 0.28,-0.624 0.275,-0.632 0.271,-0.64 0.267,-0.649 0.266,-0.658 0.266,-0.667 v -0.036 h 0.772 z m 0.035,0.28 H 0.23 v -0.07 h 0.843 z"
         style="fill:#af0d1a;fill-rule:nonzero"
         id="path12564" /><path
         d="m 1.108,-0.808 c 0,0.019 -0.003,0.038 -0.011,0.055 -0.007,0.017 -0.017,0.032 -0.03,0.045 -0.012,0.012 -0.027,0.022 -0.044,0.03 -0.017,0.007 -0.036,0.011 -0.055,0.011 H 0.336 c -0.02,0 -0.038,-0.004 -0.055,-0.011 C 0.264,-0.686 0.249,-0.696 0.236,-0.708 0.224,-0.721 0.214,-0.736 0.206,-0.753 0.199,-0.77 0.195,-0.789 0.195,-0.808 c 0.018,0.021 0.039,0.038 0.063,0.051 0.023,0.013 0.05,0.019 0.078,0.019 h 0.632 c 0.028,0 0.054,-0.006 0.078,-0.019 0.024,-0.013 0.045,-0.03 0.062,-0.051 z M 0.406,0.07 V 0.14 H 0.336 V 0.07 Z m 0.562,0 V 0.14 H 0.898 V 0.07 Z"
         style="fill:#383838;fill-rule:nonzero"
         id="path12566" /></g></g></svg>
