<?xml version="1.0" encoding="UTF-8" standalone="no"?>
<svg
   width="15.795"
   height="16.844999"
   viewBox="0 0 15.795 16.844999"
   version="1.1"
   xml:space="preserve"
   style="clip-rule:evenodd;fill-rule:evenodd;stroke-linejoin:round;stroke-miterlimit:2"
   id="svg20568"
   sodipodi:docname="emojis.svg"
   xmlns:inkscape="http://www.inkscape.org/namespaces/inkscape"
   xmlns:sodipodi="http://sodipodi.sourceforge.net/DTD/sodipodi-0.dtd"
   xmlns="http://www.w3.org/2000/svg"
   xmlns:svg="http://www.w3.org/2000/svg"><defs
     id="defs20572" /><sodipodi:namedview
     id="namedview20570"
     pagecolor="#505050"
     bordercolor="#eeeeee"
     borderopacity="1"
     inkscape:pageshadow="0"
     inkscape:pageopacity="0"
     inkscape:pagecheckerboard="0" /><g
     transform="matrix(0.24,0,0,0.24,-781.9494,-642.0258)"
     id="g20566"><g
       transform="matrix(62.5,0,0,62.5,3250.31,2732.17)"
       id="g12596"><path
         d="m 1.178,-0.386 c 0,0.011 -0.002,0.022 -0.005,0.032 -0.004,0.011 -0.009,0.021 -0.015,0.029 -0.006,0.009 -0.013,0.017 -0.022,0.023 -0.009,0.007 -0.019,0.012 -0.03,0.015 -0.003,0.034 -0.011,0.066 -0.025,0.097 -0.013,0.03 -0.031,0.058 -0.052,0.082 -0.022,0.025 -0.047,0.046 -0.075,0.063 -0.028,0.017 -0.059,0.03 -0.092,0.037 v 0.05 C 0.872,0.045 0.882,0.051 0.89,0.057 0.899,0.064 0.906,0.071 0.913,0.08 0.919,0.088 0.924,0.098 0.927,0.108 0.93,0.118 0.932,0.129 0.932,0.14 V 0.21 H 0.371 V 0.14 C 0.371,0.129 0.372,0.118 0.376,0.108 0.379,0.098 0.384,0.088 0.39,0.08 0.396,0.071 0.404,0.064 0.412,0.057 0.421,0.051 0.431,0.045 0.441,0.042 v -0.05 C 0.408,-0.015 0.377,-0.028 0.349,-0.045 0.32,-0.062 0.295,-0.083 0.274,-0.108 0.252,-0.132 0.235,-0.16 0.222,-0.19 0.208,-0.221 0.2,-0.253 0.197,-0.287 0.186,-0.29 0.176,-0.295 0.167,-0.302 0.159,-0.308 0.151,-0.316 0.145,-0.325 0.138,-0.333 0.134,-0.343 0.13,-0.354 0.127,-0.364 0.125,-0.375 0.125,-0.386 0.125,-0.4 0.128,-0.413 0.133,-0.426 0.138,-0.439 0.145,-0.45 0.154,-0.459 0.163,-0.468 0.174,-0.476 0.186,-0.482 0.198,-0.487 0.212,-0.491 0.226,-0.491 0.212,-0.492 0.198,-0.495 0.186,-0.5 0.174,-0.506 0.163,-0.514 0.154,-0.523 0.145,-0.533 0.138,-0.544 0.133,-0.557 0.128,-0.569 0.125,-0.583 0.125,-0.597 c 0,-0.029 0.004,-0.057 0.011,-0.084 0.008,-0.027 0.018,-0.052 0.032,-0.075 0.014,-0.023 0.031,-0.045 0.05,-0.064 0.019,-0.019 0.04,-0.036 0.063,-0.049 0.024,-0.014 0.049,-0.025 0.076,-0.032 0.027,-0.008 0.055,-0.012 0.084,-0.012 0.039,0 0.077,0.007 0.113,0.021 0.036,0.014 0.068,0.034 0.097,0.06 0.03,-0.026 0.062,-0.046 0.098,-0.06 0.036,-0.014 0.073,-0.021 0.113,-0.021 0.029,0 0.057,0.004 0.084,0.012 0.027,0.007 0.052,0.018 0.075,0.032 0.024,0.013 0.045,0.03 0.064,0.049 0.019,0.019 0.036,0.041 0.05,0.064 0.013,0.023 0.024,0.048 0.032,0.075 0.007,0.027 0.011,0.055 0.011,0.084 0,0.014 -0.003,0.028 -0.008,0.04 -0.005,0.013 -0.012,0.024 -0.022,0.033 -0.009,0.01 -0.019,0.018 -0.032,0.024 -0.012,0.005 -0.025,0.008 -0.039,0.009 0.014,0 0.027,0.004 0.039,0.01 0.012,0.005 0.023,0.013 0.032,0.023 0.009,0.009 0.016,0.02 0.022,0.032 0.005,0.013 0.008,0.026 0.008,0.04 z"
         style="fill-rule:nonzero"
         id="path12582" /><path
         d="m 0.654,-0.446 c 0.009,0.003 0.019,0.006 0.03,0.009 0.01,0.003 0.021,0.006 0.032,0.009 0.01,0.002 0.021,0.004 0.032,0.005 0.01,0.002 0.021,0.003 0.03,0.003 0.015,0 0.029,-0.001 0.043,-0.001 0.013,0 0.027,0 0.041,0 h 0.211 c 0.009,0 0.017,0.003 0.024,0.01 0.007,0.007 0.01,0.015 0.01,0.025 0,0.011 -0.003,0.019 -0.01,0.024 -0.006,0.005 -0.014,0.008 -0.024,0.011 -0.009,0.002 -0.019,0.004 -0.029,0.006 -0.01,0.001 -0.019,0.005 -0.025,0.009 l 0.019,0.02 c 0,0.032 -0.007,0.063 -0.019,0.093 -0.012,0.029 -0.029,0.055 -0.05,0.077 -0.022,0.023 -0.047,0.041 -0.076,0.054 -0.028,0.014 -0.059,0.021 -0.092,0.021 -0.003,0 -0.008,10e-4 -0.015,0.003 -0.007,0.002 -0.015,0.005 -0.025,0.008 -0.01,0.003 -0.02,0.007 -0.031,0.011 -0.011,0.004 -0.021,0.007 -0.031,0.011 -0.01,0.003 -0.02,0.007 -0.028,0.01 C 0.663,-0.025 0.657,-0.023 0.652,-0.021 0.629,-0.03 0.606,-0.038 0.582,-0.047 0.559,-0.056 0.535,-0.064 0.511,-0.07 L 0.492,-0.071 C 0.483,-0.072 0.473,-0.073 0.464,-0.075 0.454,-0.076 0.445,-0.079 0.436,-0.082 0.41,-0.091 0.387,-0.103 0.366,-0.118 0.345,-0.133 0.327,-0.151 0.312,-0.171 0.297,-0.191 0.285,-0.214 0.277,-0.238 0.269,-0.263 0.265,-0.289 0.265,-0.316 l 0.013,-0.02 C 0.271,-0.339 0.263,-0.342 0.256,-0.345 0.248,-0.349 0.24,-0.351 0.232,-0.351 c -0.01,0 -0.018,-0.003 -0.026,-0.01 -0.007,-0.006 -0.011,-0.015 -0.011,-0.025 0,-0.01 0.004,-0.018 0.011,-0.025 0.006,-0.007 0.015,-0.01 0.024,-0.01 0.047,0 0.094,0 0.14,0 0.046,0 0.093,0.001 0.14,0.001 0.025,0 0.049,-0.003 0.073,-0.008 0.024,-0.005 0.048,-0.011 0.071,-0.018 z m 0.033,-0.151 v 0.105 H 0.616 V -0.597 L 0.65,-0.626 Z"
         style="fill:#f2f2f2;fill-rule:nonzero"
         id="path12584" /><path
         d="m 0.722,0.035 c 0,0.01 0.002,0.019 0.005,0.027 C 0.731,0.071 0.736,0.078 0.742,0.085 0.749,0.091 0.756,0.096 0.765,0.1 0.773,0.103 0.782,0.105 0.792,0.105 L 0.777,0.128 H 0.54 L 0.511,0.105 C 0.521,0.105 0.53,0.103 0.539,0.1 0.547,0.096 0.554,0.091 0.561,0.085 0.567,0.078 0.572,0.071 0.576,0.062 0.579,0.054 0.581,0.045 0.581,0.035 L 0.65,-0.009 Z M 0.581,-0.526 h 0.141 v 0.069 L 0.648,-0.432 0.581,-0.457 Z"
         style="fill:#e5e5e5;fill-rule:nonzero"
         id="path12586" /><path
         d="m 0.827,0.105 c 0.009,0 0.017,0.003 0.024,0.01 0.007,0.007 0.011,0.016 0.011,0.025 H 0.441 c 0,-0.009 0.003,-0.018 0.01,-0.025 0.007,-0.007 0.016,-0.01 0.025,-0.01 z"
         style="fill:#f2f2f2;fill-rule:nonzero"
         id="path12588" /><path
         d="m 0.862,-0.842 c 0.034,0 0.065,0.006 0.095,0.019 0.03,0.013 0.056,0.03 0.078,0.053 0.023,0.022 0.04,0.048 0.053,0.078 0.013,0.03 0.019,0.061 0.019,0.095 0,0.01 -0.003,0.018 -0.01,0.025 -0.007,0.007 -0.015,0.01 -0.024,0.01 -0.009,0 -0.016,-10e-4 -0.021,-0.005 C 1.047,-0.57 1.042,-0.574 1.037,-0.579 1.033,-0.583 1.028,-0.587 1.022,-0.591 1.017,-0.595 1.011,-0.597 1.002,-0.597 c -0.008,0 -0.015,0.002 -0.02,0.006 -0.005,0.004 -0.01,0.008 -0.015,0.012 -0.005,0.005 -0.01,0.009 -0.015,0.012 -0.005,0.004 -0.012,0.005 -0.02,0.005 -0.008,0 -0.015,-10e-4 -0.02,-0.005 C 0.906,-0.57 0.901,-0.574 0.897,-0.579 0.892,-0.583 0.887,-0.587 0.882,-0.591 0.877,-0.595 0.87,-0.597 0.862,-0.597 c -0.009,0 -0.015,0.002 -0.021,0.006 -0.005,0.004 -0.01,0.008 -0.015,0.012 -0.004,0.005 -0.009,0.009 -0.014,0.012 -0.006,0.004 -0.012,0.005 -0.02,0.005 -0.01,0 -0.018,-0.003 -0.025,-0.01 -0.007,-0.007 -0.01,-0.015 -0.01,-0.025 0,-0.009 -0.004,-0.018 -0.01,-0.025 -0.007,-0.006 -0.016,-0.01 -0.025,-0.01 -0.01,0 -0.018,0.004 -0.025,0.01 -0.007,0.007 -0.01,0.016 -0.01,0.025 H 0.616 c 0,-0.009 -0.003,-0.018 -0.01,-0.025 -0.007,-0.006 -0.015,-0.01 -0.025,-0.01 -0.009,0 -0.018,0.004 -0.025,0.011 -0.007,0.007 -0.01,0.015 -0.01,0.024 0,0.01 -0.004,0.018 -0.01,0.025 -0.007,0.007 -0.015,0.01 -0.025,0.01 -0.008,0 -0.015,-10e-4 -0.02,-0.005 C 0.486,-0.57 0.481,-0.574 0.476,-0.579 0.471,-0.583 0.466,-0.587 0.461,-0.591 0.456,-0.595 0.449,-0.597 0.441,-0.597 c -0.009,0 -0.015,0.002 -0.021,0.006 -0.005,0.004 -0.01,0.008 -0.014,0.012 -0.005,0.005 -0.01,0.009 -0.015,0.012 -0.006,0.004 -0.012,0.005 -0.02,0.005 -0.009,0 -0.016,-10e-4 -0.021,-0.005 C 0.345,-0.57 0.34,-0.574 0.335,-0.579 0.33,-0.583 0.326,-0.587 0.32,-0.591 0.315,-0.595 0.308,-0.597 0.3,-0.597 c -0.008,0 -0.015,0.002 -0.02,0.006 -0.005,0.004 -0.01,0.008 -0.015,0.012 -0.005,0.005 -0.01,0.009 -0.015,0.012 -0.005,0.004 -0.012,0.005 -0.02,0.005 -0.009,0 -0.018,-0.003 -0.024,-0.01 -0.007,-0.007 -0.011,-0.015 -0.011,-0.025 0,-0.034 0.007,-0.065 0.02,-0.095 0.012,-0.03 0.03,-0.056 0.052,-0.078 0.023,-0.023 0.049,-0.04 0.078,-0.053 0.03,-0.013 0.062,-0.019 0.096,-0.019 0.021,0 0.042,0.002 0.063,0.008 0.02,0.006 0.04,0.013 0.058,0.024 0.018,0.01 0.035,0.022 0.05,0.037 0.015,0.015 0.028,0.031 0.039,0.05 0.011,-0.019 0.025,-0.035 0.04,-0.05 C 0.706,-0.788 0.722,-0.8 0.741,-0.81 0.759,-0.821 0.778,-0.828 0.799,-0.834 0.819,-0.84 0.84,-0.842 0.862,-0.842 Z"
         style="fill:#31d2f7;fill-rule:nonzero"
         id="path12590" /><path
         d="M 1.038,-0.316 H 0.265 C 0.265,-0.325 0.262,-0.333 0.256,-0.34 0.25,-0.347 0.243,-0.35 0.233,-0.351 H 1.07 C 1.06,-0.35 1.053,-0.347 1.047,-0.34 1.041,-0.333 1.038,-0.325 1.038,-0.316 Z m -0.246,0.281 c -0.012,0 -0.024,0.001 -0.036,0.004 C 0.745,-0.028 0.733,-0.025 0.722,-0.022 0.71,-0.019 0.699,-0.016 0.687,-0.013 0.675,-0.01 0.663,-0.009 0.651,-0.009 0.639,-0.009 0.628,-0.01 0.616,-0.013 0.604,-0.016 0.593,-0.019 0.581,-0.022 0.57,-0.025 0.558,-0.028 0.547,-0.031 0.535,-0.034 0.523,-0.035 0.511,-0.035 V -0.07 H 0.792 Z M 0.546,-0.457 h 0.211 v 0.036 H 0.546 Z"
         style="fill:#cccccc;fill-rule:nonzero"
         id="path12592" /><path
         d="M 0.581,0.035 C 0.581,0.026 0.579,0.017 0.576,0.009 0.573,0 0.568,-0.007 0.562,-0.013 0.556,-0.02 0.549,-0.025 0.541,-0.029 0.532,-0.033 0.524,-0.035 0.514,-0.035 h 0.275 c -0.009,0 -0.018,0.002 -0.026,0.006 C 0.755,-0.025 0.747,-0.02 0.741,-0.013 0.735,-0.007 0.73,0 0.727,0.009 0.723,0.017 0.722,0.026 0.722,0.035 Z"
         style="fill:#a6a6a6;fill-rule:nonzero"
         id="path12594" /></g></g></svg>
