<?xml version="1.0" encoding="UTF-8" standalone="no"?>
<svg
   width="16.844999"
   height="16.844999"
   viewBox="0 0 16.844999 16.844999"
   version="1.1"
   xml:space="preserve"
   style="clip-rule:evenodd;fill-rule:evenodd;stroke-linejoin:round;stroke-miterlimit:2"
   id="svg20568"
   sodipodi:docname="emojis.svg"
   xmlns:inkscape="http://www.inkscape.org/namespaces/inkscape"
   xmlns:sodipodi="http://sodipodi.sourceforge.net/DTD/sodipodi-0.dtd"
   xmlns="http://www.w3.org/2000/svg"
   xmlns:svg="http://www.w3.org/2000/svg"><defs
     id="defs20572" /><sodipodi:namedview
     id="namedview20570"
     pagecolor="#505050"
     bordercolor="#eeeeee"
     borderopacity="1"
     inkscape:pageshadow="0"
     inkscape:pageopacity="0"
     inkscape:pagecheckerboard="0" /><g
     transform="matrix(0.24,0,0,0.24,-54.405,-658.9962)"
     id="g20566"><g
       transform="matrix(62.5,0,0,62.5,218.875,2802.88)"
       id="g12666"><path
         d="M 0.265,-0.45 V -0.702 H 0.661 C 0.658,-0.711 0.656,-0.719 0.654,-0.728 0.652,-0.737 0.651,-0.746 0.651,-0.755 c 0,-0.017 0.003,-0.032 0.007,-0.047 0.005,-0.014 0.011,-0.028 0.019,-0.04 0.009,-0.013 0.019,-0.024 0.031,-0.034 0.011,-0.01 0.024,-0.018 0.039,-0.025 0.005,-0.002 0.01,-0.005 0.017,-0.007 0.006,-0.002 0.012,-0.003 0.017,-0.004 0.006,0 0.012,-0.001 0.018,-0.001 h 0.063 v 0.083 c 0,0.006 0.001,0.011 0.005,0.015 0.003,0.005 0.008,0.007 0.014,0.007 H 0.967 V -0.842 H 1.248 V 0.21 H 0.125 v -0.52 z"
         style="fill-rule:nonzero"
         id="path12650" /><path
         d="m 1.038,-0.772 h 0.14 V 0.14 H 1.038 L 0.848,-0.316 V -0.418 L 0.897,-0.457 V -0.632 H 1.038 Z M 0.335,-0.421 H 0.52 V 0.083 L 0.476,0.14 H 0.441 L 0.408,0.103 0.371,0.14 H 0.195 v -0.421 z"
         style="fill:#0063b1;fill-rule:nonzero"
         id="path12652" /><path
         d="M 0.335,-0.632 H 0.757 V 0.083 L 0.616,0.14 h -0.14 v -0.421 l -0.07,-0.07 V -0.386 H 0.371 L 0.335,-0.421 Z M 0.371,0 h 0.07 v 0.14 h -0.07 z m 0.561,-0.351 v -0.07 h 0.07 v 0.07 z m -0.561,0.21 h 0.07 V -0.07 H 0.371 Z M 0.23,-0.21 V -0.281 H 0.3 v 0.071 z m 0,0.14 V -0.141 H 0.3 v 0.071 z m 0.843,-0.281 v -0.07 h 0.07 v 0.07 z m 0,0.141 v -0.071 h 0.07 v 0.071 z m 0,-0.281 v -0.071 h 0.07 v 0.071 z m 0,-0.211 h 0.07 v 0.07 h -0.07 z m 0,0.632 v -0.071 h 0.07 v 0.071 z"
         style="fill:#0078d7;fill-rule:nonzero"
         id="path12654" /><path
         d="M 0.897,-0.316 H 1.038 V 0.14 H 0.862 L 0.826,0.098 0.792,0.14 H 0.616 v -0.597 h 0.281 z"
         style="fill:#00bcf2;fill-rule:nonzero"
         id="path12656" /><path
         d="m 0.371,-0.491 v -0.071 h 0.07 v 0.071 z m 0.28,-0.071 h 0.071 v 0.071 H 0.651 Z M 0.511,0.07 V 0 h 0.07 v 0.07 z m 0,-0.421 v -0.07 h 0.07 v 0.07 z m 0,0.141 v -0.071 h 0.07 v 0.071 z m -0.14,-0.176 v -0.035 h 0.07 v 0.07 H 0.406 Z"
         style="fill:#3a96dd;fill-rule:nonzero"
         id="path12658" /><path
         d="M 0.792,0.14 V 0 h 0.07 v 0.14 z m 0.14,-0.281 h 0.07 v 0.071 h -0.07 z m 0,0.211 V 0 h 0.07 V 0.07 Z M 0.651,-0.351 v -0.07 h 0.071 v 0.07 z m 0,0.281 v -0.071 h 0.071 v 0.071 z m 0.141,-0.14 v -0.071 h 0.07 v 0.071 z m 0,0.14 v -0.071 h 0.07 v 0.071 z m 0,-0.281 v -0.07 h 0.07 v 0.07 z"
         style="fill:#31d2f7;fill-rule:nonzero"
         id="path12660" /><path
         d="m 0.371,-0.21 v -0.071 h 0.07 v 0.071 z m 0.28,0 v -0.071 h 0.071 v 0.071 z m 0,0.28 V 0 h 0.071 v 0.07 z m 0.281,-0.28 v -0.071 h 0.07 v 0.071 z m 0,-0.281 v -0.071 h 0.07 v 0.071 z M 0.511,-0.07 v -0.071 h 0.07 V -0.07 Z M 0.23,0.07 V 0 H 0.3 v 0.07 z m 0.281,-0.561 v -0.071 h 0.07 v 0.071 z M 1.073,0 h 0.07 v 0.07 h -0.07 z"
         style="fill:#eba300;fill-rule:nonzero"
         id="path12662" /><path
         d="m 0.722,-0.755 c 0,-0.011 0.001,-0.021 0.005,-0.031 0.004,-0.009 0.009,-0.018 0.015,-0.026 0.006,-0.008 0.014,-0.014 0.023,-0.02 0.009,-0.005 0.019,-0.008 0.029,-0.01 -0.001,0.005 -0.002,0.011 -0.002,0.016 0,0.012 0.003,0.024 0.007,0.034 0.005,0.011 0.011,0.02 0.019,0.028 0.008,0.008 0.018,0.015 0.028,0.019 0.011,0.005 0.022,0.007 0.035,0.007 0.005,0 0.01,0 0.016,-0.001 -0.002,0.01 -0.006,0.02 -0.011,0.029 -0.005,0.009 -0.011,0.016 -0.019,0.023 -0.008,0.006 -0.017,0.011 -0.026,0.015 -0.01,0.003 -0.02,0.005 -0.031,0.005 -0.012,0 -0.024,-0.002 -0.034,-0.007 C 0.765,-0.678 0.756,-0.685 0.748,-0.693 0.739,-0.701 0.733,-0.71 0.729,-0.721 0.724,-0.732 0.722,-0.743 0.722,-0.755 Z"
         style="fill:#fce100;fill-rule:nonzero"
         id="path12664" /></g></g></svg>
