<?xml version="1.0" encoding="UTF-8" standalone="no"?>
<svg
   width="16.844999"
   height="16.844999"
   viewBox="0 0 16.844999 16.844999"
   version="1.1"
   xml:space="preserve"
   style="clip-rule:evenodd;fill-rule:evenodd;stroke-linejoin:round;stroke-miterlimit:2"
   id="svg20568"
   sodipodi:docname="emojis.svg"
   xmlns:inkscape="http://www.inkscape.org/namespaces/inkscape"
   xmlns:sodipodi="http://sodipodi.sourceforge.net/DTD/sodipodi-0.dtd"
   xmlns="http://www.w3.org/2000/svg"
   xmlns:svg="http://www.w3.org/2000/svg"><defs
     id="defs20572" /><sodipodi:namedview
     id="namedview20570"
     pagecolor="#505050"
     bordercolor="#eeeeee"
     borderopacity="1"
     inkscape:pageshadow="0"
     inkscape:pageopacity="0"
     inkscape:pagecheckerboard="0" /><g
     transform="matrix(0.24,0,0,0.24,-689.7222,-110.71908)"
     id="g20566"><g
       transform="matrix(62.5,0,0,62.5,2866.03,518.392)"
       id="g1268"><path
         d="M 0.687,0.21 C 0.65,0.21 0.615,0.206 0.58,0.198 0.545,0.191 0.512,0.179 0.48,0.164 0.448,0.149 0.419,0.13 0.391,0.108 0.363,0.085 0.338,0.06 0.315,0.032 0.304,0.017 0.295,0.003 0.286,-0.012 0.277,-0.026 0.269,-0.042 0.26,-0.057 0.24,-0.096 0.219,-0.135 0.198,-0.174 0.178,-0.213 0.157,-0.251 0.137,-0.291 0.133,-0.298 0.13,-0.305 0.128,-0.311 0.126,-0.318 0.125,-0.325 0.125,-0.333 c 0,-0.013 0.002,-0.024 0.007,-0.035 0.004,-0.01 0.011,-0.02 0.019,-0.028 0.008,-0.008 0.017,-0.014 0.027,-0.019 0.011,-0.004 0.023,-0.006 0.035,-0.006 H 0.23 v -0.386 c 0,-0.015 0.003,-0.028 0.009,-0.041 0.005,-0.013 0.013,-0.024 0.022,-0.034 0.01,-0.009 0.021,-0.017 0.033,-0.022 0.013,-0.006 0.027,-0.009 0.041,-0.009 0.01,0 0.02,0.002 0.029,0.005 0.009,0.002 0.018,0.006 0.027,0.011 l 0.21,0.125 h 0.171 l 0.213,-0.126 c 0.007,-0.005 0.016,-0.008 0.025,-0.011 0.01,-0.002 0.019,-0.004 0.028,-0.004 0.014,0 0.028,0.003 0.041,0.009 0.012,0.005 0.023,0.013 0.033,0.022 0.009,0.01 0.017,0.021 0.022,0.034 0.006,0.013 0.009,0.026 0.009,0.041 v 0.386 H 1.16 c 0.012,0 0.024,0.002 0.034,0.006 0.011,0.005 0.02,0.011 0.028,0.019 0.008,0.008 0.015,0.018 0.019,0.028 0.005,0.011 0.007,0.022 0.007,0.035 0,0.008 -10e-4,0.016 -0.003,0.022 C 1.243,-0.304 1.24,-0.297 1.236,-0.29 L 1.111,-0.055 C 1.103,-0.04 1.094,-0.024 1.086,-0.01 1.077,0.004 1.068,0.019 1.057,0.032 1.034,0.061 1.009,0.086 0.981,0.108 0.953,0.13 0.924,0.149 0.892,0.164 0.861,0.179 0.827,0.191 0.793,0.198 0.758,0.206 0.723,0.21 0.687,0.21 Z"
         style="fill-rule:nonzero"
         id="path1254" /><path
         d="m 1.178,-0.333 c 0,0.001 -0.002,0.005 -0.005,0.012 C 1.17,-0.314 1.165,-0.305 1.16,-0.294 1.154,-0.284 1.148,-0.271 1.141,-0.258 1.133,-0.244 1.126,-0.23 1.118,-0.216 L 1.075,-0.135 C 1.069,-0.123 1.063,-0.113 1.059,-0.105 1.054,-0.097 1.051,-0.091 1.049,-0.088 1.042,-0.075 1.035,-0.062 1.028,-0.05 1.021,-0.038 1.013,-0.026 1.004,-0.015 0.985,0.01 0.963,0.032 0.939,0.051 0.916,0.07 0.89,0.086 0.863,0.099 0.836,0.113 0.807,0.123 0.778,0.13 0.748,0.137 0.717,0.14 0.687,0.14 0.656,0.14 0.625,0.137 0.595,0.13 0.566,0.123 0.537,0.113 0.51,0.099 0.483,0.086 0.457,0.07 0.433,0.051 0.409,0.032 0.388,0.01 0.369,-0.015 0.36,-0.026 0.351,-0.038 0.344,-0.05 0.337,-0.062 0.33,-0.075 0.323,-0.088 0.321,-0.092 0.316,-0.1 0.309,-0.114 L 0.254,-0.216 C 0.244,-0.235 0.234,-0.254 0.226,-0.271 0.217,-0.287 0.21,-0.302 0.204,-0.313 0.198,-0.325 0.195,-0.332 0.195,-0.333 c 0,-0.005 0.002,-0.01 0.005,-0.013 0.004,-0.003 0.008,-0.005 0.013,-0.005 H 0.3 V -0.569 L 0.381,-0.684 0.3,-0.8 v -0.007 c 0,-0.01 0.004,-0.018 0.011,-0.025 0.006,-0.007 0.015,-0.01 0.024,-0.01 0.002,0 0.005,0 0.01,0.002 0.005,0.001 0.008,0.002 0.009,0.003 l 0.227,0.135 0.035,0.057 0.035,-0.057 h 0.071 l 0.043,0.072 0.027,-0.072 0.226,-0.135 c 0.002,-0.001 0.005,-0.002 0.01,-0.003 0.004,-0.002 0.008,-0.002 0.01,-0.002 0.012,0 0.021,0.004 0.027,0.013 0.005,0.008 0.008,0.018 0.008,0.029 l -0.078,0.109 0.078,0.122 v 0.218 H 1.16 c 0.005,0 0.009,0.002 0.013,0.005 0.003,0.003 0.005,0.008 0.005,0.013 z"
         style="fill:#ffc83d;fill-rule:nonzero"
         id="path1256" /><path
         d="m 0.476,-0.685 c 0,0.004 -0.001,0.007 -0.002,0.009 -0.002,0.002 -0.004,0.005 -0.007,0.007 L 0.3,-0.569 V -0.8 l 0.167,0.1 c 0.003,0.002 0.005,0.004 0.007,0.007 0.001,0.002 0.002,0.005 0.002,0.008 z M 1.073,-0.8 v 0.231 l -0.167,-0.1 C 0.903,-0.671 0.901,-0.674 0.899,-0.676 0.898,-0.678 0.897,-0.681 0.897,-0.685 c 0,-0.003 0.001,-0.006 0.002,-0.008 0.002,-0.003 0.004,-0.005 0.007,-0.007 z m -0.492,0.098 h 0.07 v 0.14 c 0,0.01 -0.003,0.018 -0.01,0.025 C 0.634,-0.53 0.626,-0.526 0.616,-0.526 0.607,-0.526 0.599,-0.53 0.592,-0.537 0.585,-0.544 0.581,-0.552 0.581,-0.562 Z m 0.141,0 h 0.07 v 0.14 c 0,0.01 -0.004,0.018 -0.011,0.025 -0.007,0.007 -0.015,0.011 -0.024,0.011 -0.01,0 -0.018,-0.004 -0.025,-0.011 -0.007,-0.007 -0.01,-0.015 -0.01,-0.025 z"
         style="fill:#d48c00;fill-rule:nonzero"
         id="path1258" /><path
         d="m 0.967,-0.141 c 0,0.039 -0.007,0.076 -0.022,0.11 C 0.931,0.003 0.911,0.033 0.885,0.058 0.86,0.083 0.83,0.104 0.796,0.118 0.762,0.133 0.725,0.14 0.687,0.14 0.648,0.14 0.611,0.133 0.577,0.118 0.543,0.104 0.513,0.083 0.488,0.058 0.462,0.033 0.442,0.003 0.428,-0.031 0.413,-0.065 0.406,-0.102 0.406,-0.141 v -0.035 c 0,-0.019 0.003,-0.038 0.011,-0.054 0.007,-0.017 0.017,-0.032 0.03,-0.045 0.012,-0.013 0.027,-0.023 0.044,-0.03 0.018,-0.007 0.036,-0.011 0.055,-0.011 h 0.036 l 0.104,0.056 0.106,-0.056 h 0.035 c 0.019,0 0.038,0.004 0.055,0.011 0.017,0.007 0.032,0.017 0.044,0.03 0.013,0.013 0.023,0.028 0.03,0.045 0.008,0.016 0.011,0.035 0.011,0.054 z"
         style="fill:#ffffff;fill-rule:nonzero"
         id="path1260" /><path
         d="M 0.792,-0.316 0.711,-0.221 C 0.708,-0.218 0.705,-0.215 0.7,-0.213 0.696,-0.211 0.691,-0.21 0.687,-0.21 0.682,-0.21 0.677,-0.211 0.673,-0.213 0.668,-0.215 0.665,-0.218 0.662,-0.221 L 0.581,-0.316 Z"
         style="fill:#f7894a;fill-rule:nonzero"
         id="path1262" /><path
         d="m 0.879,-0.526 c 0.017,0 0.033,0.003 0.048,0.009 0.015,0.007 0.028,0.015 0.039,0.026 0.011,0.011 0.02,0.024 0.027,0.039 0.006,0.015 0.009,0.031 0.009,0.048 v 0.018 H 0.967 C 0.967,-0.398 0.965,-0.41 0.96,-0.42 0.956,-0.431 0.95,-0.441 0.942,-0.448 0.934,-0.456 0.924,-0.463 0.914,-0.467 0.903,-0.472 0.891,-0.474 0.879,-0.474 c -0.012,0 -0.023,0.002 -0.034,0.007 -0.011,0.004 -0.02,0.011 -0.028,0.019 C 0.81,-0.441 0.803,-0.431 0.799,-0.42 0.794,-0.41 0.792,-0.398 0.792,-0.386 H 0.757 v -0.018 c 0,-0.017 0.003,-0.033 0.009,-0.048 0.007,-0.015 0.015,-0.028 0.026,-0.039 0.012,-0.011 0.024,-0.019 0.039,-0.026 0.015,-0.006 0.031,-0.009 0.048,-0.009 z m -0.298,0.14 C 0.581,-0.398 0.579,-0.41 0.574,-0.42 0.57,-0.431 0.563,-0.441 0.556,-0.448 0.548,-0.456 0.539,-0.463 0.528,-0.467 0.517,-0.472 0.506,-0.474 0.494,-0.474 c -0.013,0 -0.024,0.002 -0.035,0.007 -0.01,0.004 -0.02,0.011 -0.028,0.019 -0.008,0.007 -0.014,0.017 -0.018,0.028 -0.005,0.01 -0.007,0.022 -0.007,0.034 H 0.371 v -0.018 c 0,-0.017 0.003,-0.033 0.009,-0.048 0.007,-0.015 0.016,-0.028 0.027,-0.039 0.011,-0.011 0.024,-0.019 0.039,-0.026 0.015,-0.006 0.031,-0.009 0.048,-0.009 0.017,0 0.033,0.003 0.048,0.009 0.014,0.007 0.027,0.015 0.039,0.026 0.011,0.011 0.019,0.024 0.026,0.039 0.006,0.015 0.009,0.031 0.009,0.048 v 0.018 z m -0.105,0.245 h 0.421 c 0,0.029 -0.006,0.057 -0.017,0.082 C 0.869,-0.033 0.854,-0.01 0.835,0.009 0.816,0.028 0.794,0.043 0.768,0.054 0.743,0.065 0.715,0.07 0.687,0.07 0.658,0.07 0.63,0.065 0.605,0.054 0.579,0.043 0.557,0.028 0.538,0.009 0.519,-0.01 0.504,-0.033 0.493,-0.059 0.482,-0.084 0.476,-0.112 0.476,-0.141 Z"
         style="fill-rule:nonzero"
         id="path1264" /><path
         d="M 0.789,0.002 C 0.774,0.012 0.757,0.021 0.74,0.026 0.723,0.032 0.705,0.035 0.687,0.035 0.668,0.035 0.65,0.032 0.633,0.026 0.616,0.021 0.599,0.012 0.584,0.002 c 0.012,-0.018 0.027,-0.031 0.045,-0.041 0.018,-0.009 0.037,-0.014 0.058,-0.014 0.02,0 0.039,0.005 0.057,0.014 0.018,0.01 0.033,0.023 0.045,0.041 z"
         style="fill:#f03a17;fill-rule:nonzero"
         id="path1266" /></g></g></svg>
