<?xml version="1.0" encoding="UTF-8" standalone="no"?>
<svg
   width="16.32"
   height="16.844999"
   viewBox="0 0 16.32 16.844999"
   version="1.1"
   xml:space="preserve"
   style="clip-rule:evenodd;fill-rule:evenodd;stroke-linejoin:round;stroke-miterlimit:2"
   id="svg20568"
   sodipodi:docname="emojis.svg"
   xmlns:inkscape="http://www.inkscape.org/namespaces/inkscape"
   xmlns:sodipodi="http://sodipodi.sourceforge.net/DTD/sodipodi-0.dtd"
   xmlns="http://www.w3.org/2000/svg"
   xmlns:svg="http://www.w3.org/2000/svg"><defs
     id="defs20572" /><sodipodi:namedview
     id="namedview20570"
     pagecolor="#505050"
     bordercolor="#eeeeee"
     borderopacity="1"
     inkscape:pageshadow="0"
     inkscape:pageopacity="0"
     inkscape:pagecheckerboard="0" /><g
     transform="matrix(0.24,0,0,0.24,-238.719,-658.9962)"
     id="g20566"><g
       transform="matrix(62.5,0,0,62.5,986.85,2802.88)"
       id="g12790"><path
         d="m 0.687,-0.597 0.049,-0.001 c 0.018,0 0.036,0.002 0.053,0.007 0.017,0.004 0.032,0.014 0.047,0.029 0.026,0.002 0.05,0.009 0.073,0.021 0.023,0.012 0.043,0.029 0.058,0.05 h 0.036 c 0.019,0 0.037,0.003 0.054,0.011 0.017,0.007 0.032,0.017 0.045,0.03 0.013,0.012 0.023,0.027 0.03,0.044 0.007,0.018 0.011,0.036 0.011,0.055 v 0.07 h 0.07 v 0.071 c 0,0.014 -0.002,0.027 -0.008,0.04 -0.005,0.013 -0.013,0.024 -0.023,0.034 -0.009,0.009 -0.02,0.017 -0.033,0.022 -0.013,0.006 -0.027,0.009 -0.041,0.009 H 1.073 v 0.14 H 0.944 L 0.845,0.134 0.751,0.041 C 0.741,0.03 0.734,0.019 0.729,0.006 0.725,-0.008 0.722,-0.021 0.722,-0.035 c 0,-0.019 0.004,-0.036 0.01,-0.049 C 0.739,-0.097 0.75,-0.11 0.763,-0.123 L 0.71,-0.176 H 0.687 V 0.21 H 0.512 V -0.105 H 0.418 L 0.47,-0.053 0.318,0.099 0.283,0.064 0.248,0.099 0.155,0.006 C 0.145,-0.004 0.137,-0.016 0.133,-0.029 0.128,-0.043 0.125,-0.056 0.125,-0.07 v -0.14 c 0,-0.015 0.003,-0.029 0.009,-0.041 0.005,-0.013 0.013,-0.024 0.022,-0.034 0.01,-0.01 0.021,-0.017 0.034,-0.023 0.013,-0.005 0.026,-0.008 0.041,-0.008 V -0.352 C 0.216,-0.354 0.202,-0.359 0.189,-0.366 0.176,-0.374 0.165,-0.383 0.156,-0.394 0.146,-0.404 0.139,-0.417 0.134,-0.43 0.128,-0.444 0.125,-0.459 0.125,-0.474 v -0.298 l 0.049,-0.001 c 0.012,0 0.024,0.001 0.035,0.002 0.012,0.002 0.023,0.005 0.034,0.01 0.019,-0.007 0.038,-0.011 0.058,-0.011 h 0.211 v -0.141 h 0.175 z"
         style="fill-rule:nonzero"
         id="path12778" /><path
         d="M 0.617,-0.452 H 0.582 V -0.559 C 0.581,-0.549 0.579,-0.54 0.575,-0.532 0.572,-0.524 0.567,-0.517 0.56,-0.511 0.554,-0.505 0.547,-0.5 0.538,-0.496 0.53,-0.493 0.521,-0.491 0.512,-0.491 H 0.441 V -0.562 H 0.406 v -0.07 H 0.371 l -0.07,-0.07 h 0.211 c 0,0.009 -0.002,0.018 -0.006,0.026 -0.003,0.009 -0.008,0.016 -0.014,0.022 -0.006,0.007 -0.013,0.012 -0.022,0.016 -0.008,0.004 -0.017,0.006 -0.026,0.006 h 0.102 c 0,0.01 -0.001,0.018 -0.005,0.027 -0.003,0.008 -0.008,0.015 -0.014,0.022 -0.006,0.006 -0.013,0.011 -0.021,0.015 -0.008,0.004 -0.017,0.006 -0.027,0.006 h 0.103 v -0.28 h 0.035 z m 0.526,0.242 c 0,0.009 -0.003,0.017 -0.01,0.024 -0.007,0.007 -0.016,0.01 -0.025,0.01 H 1.073 c -0.01,0 -0.019,-0.002 -0.027,-0.005 C 1.037,-0.185 1.03,-0.19 1.024,-0.196 1.017,-0.202 1.012,-0.21 1.009,-0.218 1.005,-0.227 1.003,-0.236 1.003,-0.246 V -0.351 C 1.003,-0.361 1,-0.369 0.993,-0.376 0.986,-0.383 0.978,-0.386 0.968,-0.386 H 0.897 v -0.035 h 0.106 c 0.01,0 0.019,0.001 0.027,0.005 0.009,0.004 0.016,0.009 0.022,0.015 0.007,0.007 0.012,0.014 0.016,0.023 0.003,0.008 0.005,0.017 0.005,0.027 v 0.105 c 0,0.008 0.002,0.014 0.005,0.019 0.003,0.005 0.007,0.008 0.012,0.011 0.005,0.002 0.01,0.004 0.016,0.005 0.007,0 0.013,0.001 0.019,0.001 z M 0.582,0.14 V -0.285 H 0.617 V 0.14 Z"
         style="fill:#ffb900;fill-rule:nonzero"
         id="path12780" /><path
         d="m 0.371,-0.176 -0.035,0.071 v 0.017 L 0.371,-0.053 0.318,0 C 0.312,-0.006 0.307,-0.012 0.302,-0.019 0.296,-0.025 0.29,-0.031 0.283,-0.035 L 0.23,-0.071 0.266,-0.105 c 0.004,-0.005 0.007,-0.01 0.01,-0.016 0.003,-0.007 0.005,-0.013 0.008,-0.02 0.002,-0.007 0.005,-0.013 0.007,-0.02 0.003,-0.006 0.006,-0.011 0.01,-0.015 L 0.334,-0.21 Z m 0.632,0.141 H 0.933 C 0.928,-0.035 0.924,-0.036 0.919,-0.039 0.915,-0.041 0.911,-0.044 0.908,-0.047 L 0.852,-0.104 c 0.02,0 0.039,0 0.058,-0.001 0.019,0 0.038,0 0.058,0 H 1.003 Z M 0.968,-0.21 0.924,-0.123 0.836,-0.246 h 0.061 z"
         style="fill:#cccccc;fill-rule:nonzero"
         id="path12782" /><path
         d="m 0.231,-0.667 c 0.008,-0.01 0.019,-0.019 0.031,-0.025 0.012,-0.007 0.025,-0.01 0.039,-0.01 0.024,0 0.047,0.004 0.068,0.014 0.022,0.009 0.04,0.022 0.056,0.037 0.016,0.016 0.028,0.035 0.038,0.056 0.009,0.021 0.014,0.044 0.014,0.069 0,0.023 0.002,0.048 0.006,0.072 l 0.029,-0.037 0.157,0.134 0.158,-0.134 c 0.015,0 0.028,0.003 0.041,0.008 0.013,0.006 0.024,0.013 0.034,0.023 0.009,0.009 0.017,0.02 0.022,0.033 0.006,0.012 0.009,0.026 0.009,0.041 0,0.021 -0.005,0.04 -0.015,0.058 -0.009,0.019 -0.022,0.034 -0.038,0.047 l 0.088,0.176 -0.106,0.052 0.035,0.035 -0.052,0.053 C 0.837,0.028 0.83,0.021 0.822,0.014 0.815,0.007 0.808,-0.001 0.801,-0.009 0.798,-0.013 0.795,-0.017 0.794,-0.021 0.793,-0.025 0.792,-0.029 0.792,-0.035 c 0,-0.006 0.001,-0.011 0.002,-0.014 0.001,-0.004 0.004,-0.008 0.007,-0.013 0.009,-0.011 0.019,-0.021 0.03,-0.031 0.011,-0.01 0.021,-0.02 0.031,-0.03 L 0.74,-0.246 H 0.512 l -0.035,0.07 H 0.266 v 0.088 L 0.301,-0.053 0.248,0 C 0.241,-0.007 0.233,-0.015 0.226,-0.021 0.218,-0.028 0.211,-0.036 0.205,-0.044 0.201,-0.049 0.199,-0.053 0.198,-0.056 0.196,-0.06 0.196,-0.064 0.196,-0.07 v -0.14 c 0,-0.01 0.003,-0.019 0.01,-0.025 0.007,-0.007 0.015,-0.011 0.025,-0.011 h 0.07 V -0.281 L 0.337,-0.316 0.301,-0.351 v -0.035 l 0.035,-0.14 -0.015,-0.015 -0.033,0.035 0.013,0.015 v 0.017 c 0,0.007 -0.002,0.014 -0.004,0.021 -0.003,0.006 -0.007,0.012 -0.012,0.016 -0.004,0.005 -0.01,0.009 -0.016,0.011 -0.007,0.003 -0.014,0.005 -0.021,0.005 -0.007,0 -0.014,-0.002 -0.021,-0.005 C 0.221,-0.428 0.215,-0.432 0.211,-0.437 0.206,-0.442 0.203,-0.448 0.2,-0.454 0.197,-0.46 0.196,-0.467 0.196,-0.474 V -0.491 L 0.21,-0.51 0.196,-0.526 V -0.632 L 0.21,-0.65 0.196,-0.667 v -0.035 c 0.009,0 0.017,0.003 0.024,0.01 0.007,0.007 0.011,0.016 0.011,0.025 z"
         style="fill:#f2f2f2;fill-rule:nonzero"
         id="path12784" /><path
         d="m 0.617,-0.435 h 0.105 l 0.07,-0.056 h 0.035 v 0.14 H 0.755 c -0.002,0.01 -0.005,0.019 -0.011,0.028 -0.005,0.009 -0.011,0.016 -0.019,0.022 -0.008,0.006 -0.016,0.011 -0.026,0.015 -0.01,0.003 -0.019,0.005 -0.03,0.005 -0.01,0 -0.02,-0.002 -0.029,-0.005 C 0.63,-0.29 0.622,-0.295 0.614,-0.301 0.606,-0.307 0.6,-0.314 0.594,-0.323 0.589,-0.332 0.585,-0.341 0.583,-0.351 H 0.512 v -0.14 H 0.546 Z M 0.196,-0.667 c 0.019,0 0.038,0.004 0.054,0.011 0.017,0.007 0.032,0.017 0.045,0.03 0.013,0.013 0.023,0.028 0.03,0.045 0.007,0.017 0.011,0.035 0.011,0.055 -0.01,0 -0.018,0.003 -0.025,0.01 -0.007,0.007 -0.01,0.015 -0.01,0.025 H 0.196 V -0.526 H 0.301 C 0.301,-0.541 0.298,-0.555 0.292,-0.567 0.287,-0.58 0.279,-0.591 0.27,-0.601 0.261,-0.61 0.25,-0.618 0.237,-0.624 0.224,-0.629 0.21,-0.632 0.196,-0.632 Z"
         style="fill:#f03a17;fill-rule:nonzero"
         id="path12786" /><path
         d="m 0.757,-0.526 c 0.01,0 0.018,0.003 0.025,0.01 0.007,0.007 0.01,0.015 0.01,0.025 v 0.105 h -0.07 v 0.017 c 0,0.008 -0.001,0.015 -0.004,0.021 C 0.715,-0.342 0.712,-0.336 0.707,-0.331 0.702,-0.327 0.696,-0.323 0.69,-0.32 0.683,-0.317 0.677,-0.316 0.669,-0.316 0.662,-0.316 0.655,-0.317 0.649,-0.32 0.642,-0.323 0.637,-0.327 0.632,-0.331 0.627,-0.336 0.624,-0.342 0.621,-0.348 0.618,-0.354 0.617,-0.361 0.617,-0.369 V -0.386 H 0.546 v -0.105 h 0.176 c 0.01,0 0.018,-0.004 0.025,-0.011 0.007,-0.007 0.01,-0.015 0.01,-0.024 z m -0.28,0 c 0,0.009 0.003,0.018 0.01,0.025 0.007,0.006 0.015,0.01 0.025,0.01 0,0.029 -0.006,0.057 -0.017,0.082 -0.011,0.026 -0.026,0.048 -0.045,0.067 -0.019,0.019 -0.041,0.034 -0.067,0.045 -0.025,0.011 -0.053,0.016 -0.082,0.016 v -0.07 c 0.024,0 0.047,-0.005 0.068,-0.014 0.021,-0.009 0.04,-0.022 0.056,-0.038 0.016,-0.015 0.028,-0.034 0.038,-0.055 0.009,-0.022 0.014,-0.044 0.014,-0.068 z"
         style="fill:#00bcf2;fill-rule:nonzero"
         id="path12788" /></g></g></svg>
