<?xml version="1.0" encoding="UTF-8" standalone="no"?>
<svg
   width="16.845001"
   height="16.845001"
   viewBox="0 0 16.845001 16.845001"
   version="1.1"
   xml:space="preserve"
   style="clip-rule:evenodd;fill-rule:evenodd;stroke-linejoin:round;stroke-miterlimit:2"
   id="svg20568"
   sodipodi:docname="emojis.svg"
   xmlns:inkscape="http://www.inkscape.org/namespaces/inkscape"
   xmlns:sodipodi="http://sodipodi.sourceforge.net/DTD/sodipodi-0.dtd"
   xmlns="http://www.w3.org/2000/svg"
   xmlns:svg="http://www.w3.org/2000/svg"><defs
     id="defs20572" /><sodipodi:namedview
     id="namedview20570"
     pagecolor="#505050"
     bordercolor="#eeeeee"
     borderopacity="1"
     inkscape:pageshadow="0"
     inkscape:pageopacity="0"
     inkscape:pagecheckerboard="0" /><g
     transform="matrix(0.24,0,0,0.24,-136.78788,-658.9962)"
     id="g20566"><g
       transform="matrix(62.5,0,0,62.5,562.137,2802.88)"
       id="g12722"><rect
         x="0.125"
         y="-0.91299999"
         width="1.123"
         height="1.123"
         style="fill-rule:nonzero"
         id="rect12704" /><path
         d="m 0.195,-0.842 h 0.983 v 0.14 L 1.094,-0.648 H 0.276 L 0.195,-0.702 Z"
         style="fill:#ca5010;fill-rule:nonzero"
         id="path12706" /><path
         d="m 0.195,-0.702 h 0.983 v 0.14 L 1.071,-0.498 H 0.282 L 0.195,-0.562 Z"
         style="fill:#f7630c;fill-rule:nonzero"
         id="path12708" /><path
         d="m 0.195,-0.562 h 0.983 v 0.141 L 1.075,-0.358 H 0.286 L 0.195,-0.421 Z"
         style="fill:#f7894a;fill-rule:nonzero"
         id="path12710" /><rect
         x="0.19499999"
         y="-0.421"
         width="0.98199999"
         height="0.141"
         style="fill:#f7b189;fill-rule:nonzero"
         id="rect12712" /><path
         d="M 1.123,-0.458 V 0.07 L 1.038,0.14 H 0.862 L 0.828,0.121 0.792,0.14 H 0.616 L 0.565,0.088 0.476,0.14 H 0.441 L 0.406,0.108 0.371,0.14 H 0.195 v -0.421 l 0.14,-0.14 h 0.141 l 0.086,-0.138 0.195,0.102 h 0.256 c 0.037,0 0.073,0 0.11,-0.001 z"
         style="fill:#757575;fill-rule:nonzero"
         id="path12714" /><path
         d="m 1.038,-0.772 h 0.14 V 0.14 H 1.038 V -0.316 H 0.897 v -0.316 h 0.141 z m -0.703,0.14 h 0.422 v 0.175 H 0.616 V 0.14 h -0.14 v -0.421 l -0.07,-0.07 V -0.386 H 0.371 L 0.335,-0.421 Z M 0.371,0 h 0.07 v 0.14 h -0.07 z m 0.421,0 h 0.07 v 0.14 h -0.07 z m 0.14,0 h 0.07 V 0.07 H 0.932 Z M 0.371,-0.141 h 0.07 v 0.071 h -0.07 z m 0.28,-0.28 h 0.071 v 0.07 H 0.651 Z m 0.281,0.28 h 0.07 v 0.071 h -0.07 z m -0.281,0 H 0.722 V -0.07 H 0.651 Z m 0.141,-0.14 h 0.07 V -0.21 H 0.792 Z M 0.23,-0.141 H 0.3 V -0.07 H 0.23 Z m 0.562,0 h 0.07 V -0.07 H 0.792 Z M 0.23,-0.281 H 0.3 V -0.21 H 0.23 Z m 0.562,-0.14 h 0.07 v 0.07 h -0.07 z"
         style="fill:#383838;fill-rule:nonzero"
         id="path12716" /><path
         d="m 0.371,-0.491 v -0.071 h 0.07 v 0.071 z m 0.28,0 v -0.071 h 0.071 v 0.071 z m 0.281,0.14 v -0.07 h 0.07 v 0.07 z m 0.141,-0.14 v -0.071 h 0.07 v 0.071 z M 0.511,-0.21 v -0.071 h 0.07 v 0.071 z m 0.562,-0.141 v -0.07 h 0.07 v 0.07 z m 0,-0.351 h 0.07 v 0.07 h -0.07 z m 0,0.492 v -0.071 h 0.07 V -0.21 Z M 0.511,-0.351 v -0.07 h 0.07 v 0.07 z m 0.562,0.281 v -0.071 h 0.07 V -0.07 Z M 0.511,0.07 V 0 h 0.07 V 0.07 Z M 0.406,-0.351 0.371,-0.386 v -0.035 h 0.07 v 0.07 z"
         style="fill:#2b2b2b;fill-rule:nonzero"
         id="path12718" /><path
         d="m 0.371,-0.21 v -0.071 h 0.07 v 0.071 z m 0.28,0 v -0.071 h 0.071 v 0.071 z m 0,0.28 V 0 h 0.071 v 0.07 z m 0.281,-0.28 v -0.071 h 0.07 v 0.071 z m 0,-0.281 v -0.071 h 0.07 v 0.071 z M 0.511,-0.07 v -0.071 h 0.07 V -0.07 Z M 0.23,0.07 V 0 H 0.3 v 0.07 z m 0.281,-0.561 v -0.071 h 0.07 v 0.071 z M 1.073,0 h 0.07 v 0.07 h -0.07 z"
         style="fill:#eba300;fill-rule:nonzero"
         id="path12720" /></g></g></svg>
