<?xml version="1.0" encoding="UTF-8" standalone="no"?>
<svg
   width="15.795"
   height="16.844999"
   viewBox="0 0 15.795 16.844999"
   version="1.1"
   xml:space="preserve"
   style="clip-rule:evenodd;fill-rule:evenodd;stroke-linejoin:round;stroke-miterlimit:2"
   id="svg20568"
   sodipodi:docname="emojis.svg"
   xmlns:inkscape="http://www.inkscape.org/namespaces/inkscape"
   xmlns:sodipodi="http://sodipodi.sourceforge.net/DTD/sodipodi-0.dtd"
   xmlns="http://www.w3.org/2000/svg"
   xmlns:svg="http://www.w3.org/2000/svg"><defs
     id="defs20572" /><sodipodi:namedview
     id="namedview20570"
     pagecolor="#505050"
     bordercolor="#eeeeee"
     borderopacity="1"
     inkscape:pageshadow="0"
     inkscape:pageopacity="0"
     inkscape:pagecheckerboard="0" /><g
     transform="matrix(0.24,0,0,0.24,-198.57492,-658.9962)"
     id="g20566"><g
       transform="matrix(62.5,0,0,62.5,819.583,2802.88)"
       id="g12758"><path
         d="m 1.031,-0.842 h 0.042 c 0.014,0 0.028,0.002 0.04,0.008 0.013,0.006 0.024,0.013 0.034,0.023 0.009,0.009 0.017,0.02 0.022,0.033 0.006,0.013 0.009,0.026 0.009,0.041 0,0.014 -0.003,0.028 -0.009,0.04 -0.005,0.013 -0.013,0.024 -0.022,0.034 -0.01,0.009 -0.021,0.017 -0.034,0.023 -0.012,0.005 -0.026,0.008 -0.04,0.008 -0.004,0 -0.007,0.001 -0.009,0.003 -0.002,0.002 -0.005,0.004 -0.007,0.007 -0.007,0.007 -0.014,0.014 -0.021,0.02 -0.007,0.006 -0.014,0.012 -0.022,0.017 -0.007,0.004 -0.015,0.009 -0.024,0.012 -0.008,0.004 -0.018,0.007 -0.028,0.009 -0.002,0.006 -0.005,0.013 -0.009,0.02 0.004,0.007 0.007,0.014 0.01,0.022 0.011,0.004 0.021,0.009 0.03,0.015 0.009,0.007 0.017,0.014 0.024,0.023 0.006,0.009 0.011,0.019 0.015,0.029 0.004,0.011 0.006,0.022 0.006,0.034 v 0.035 c 0,0.022 -0.004,0.04 -0.011,0.056 -0.008,0.016 -0.016,0.029 -0.025,0.04 -0.008,0.012 -0.016,0.021 -0.024,0.028 -0.007,0.007 -0.011,0.012 -0.011,0.016 0,0.029 -0.005,0.057 -0.016,0.082 -0.011,0.026 -0.026,0.048 -0.045,0.067 -0.02,0.019 -0.042,0.034 -0.067,0.045 -0.026,0.011 -0.053,0.017 -0.082,0.017 H 0.739 c -0.007,0 -0.013,0 -0.019,0.001 -0.006,0 -0.012,0.002 -0.017,0.004 C 0.698,-0.027 0.694,-0.024 0.691,-0.019 0.688,-0.014 0.687,-0.008 0.687,0 0.687,0.015 0.684,0.028 0.678,0.041 0.673,0.054 0.665,0.065 0.656,0.074 0.646,0.084 0.635,0.091 0.622,0.097 0.609,0.102 0.596,0.105 0.581,0.105 0.563,0.105 0.546,0.101 0.531,0.092 0.515,0.083 0.502,0.071 0.493,0.056 0.489,0.058 0.486,0.06 0.482,0.062 0.479,0.063 0.475,0.064 0.471,0.065 0.468,0.076 0.463,0.087 0.457,0.096 0.45,0.105 0.442,0.113 0.433,0.119 0.424,0.126 0.415,0.131 0.404,0.135 0.393,0.138 0.382,0.14 0.371,0.14 0.364,0.14 0.358,0.139 0.351,0.138 0.345,0.137 0.338,0.135 0.332,0.133 0.328,0.144 0.323,0.155 0.317,0.164 0.31,0.174 0.303,0.182 0.294,0.188 0.285,0.195 0.275,0.201 0.264,0.205 0.253,0.208 0.242,0.21 0.23,0.21 0.216,0.21 0.202,0.208 0.189,0.202 0.177,0.197 0.166,0.189 0.156,0.179 0.146,0.17 0.139,0.159 0.133,0.146 0.128,0.133 0.125,0.12 0.125,0.105 V 0.035 C 0.125,0.026 0.126,0.017 0.129,0.008 0.132,-0.001 0.135,-0.009 0.14,-0.018 0.135,-0.026 0.132,-0.034 0.129,-0.043 0.126,-0.052 0.125,-0.061 0.125,-0.07 c 0,-0.015 0.003,-0.029 0.008,-0.041 0.006,-0.013 0.013,-0.024 0.023,-0.034 0.01,-0.009 0.021,-0.017 0.033,-0.022 0.013,-0.006 0.027,-0.009 0.041,-0.009 0.004,0 0.01,-0.003 0.017,-0.011 0.008,-0.007 0.017,-0.015 0.028,-0.024 0.011,-0.008 0.025,-0.016 0.04,-0.024 0.016,-0.007 0.034,-0.011 0.056,-0.011 h 0.245 c 0.01,0 0.019,-0.001 0.028,-0.005 0.008,-0.004 0.015,-0.009 0.022,-0.015 0.006,-0.007 0.011,-0.014 0.015,-0.023 0.004,-0.008 0.006,-0.017 0.006,-0.027 0,-0.022 0.003,-0.041 0.011,-0.056 0.007,-0.016 0.015,-0.03 0.024,-0.041 0.008,-0.011 0.017,-0.02 0.024,-0.027 0.007,-0.007 0.011,-0.012 0.011,-0.017 v -0.011 c 0,-0.014 0,-0.027 0.002,-0.039 0.001,-0.012 0.005,-0.025 0.012,-0.037 -0.006,-0.01 -0.01,-0.02 -0.012,-0.03 -0.002,-0.01 -0.003,-0.02 -0.003,-0.032 v -0.026 c 0,-0.014 0.002,-0.027 0.006,-0.039 0.003,-0.011 0.008,-0.022 0.013,-0.031 0.005,-0.01 0.011,-0.018 0.017,-0.026 0.006,-0.007 0.011,-0.014 0.017,-0.019 0.005,-0.006 0.009,-0.01 0.013,-0.014 0.003,-0.005 0.005,-0.008 0.005,-0.011 v -0.035 c 0,-0.015 0.002,-0.028 0.008,-0.041 0.005,-0.013 0.013,-0.024 0.023,-0.034 0.009,-0.009 0.02,-0.017 0.033,-0.022 0.013,-0.006 0.026,-0.009 0.041,-0.009 0.011,0 0.022,0.002 0.032,0.006 0.011,0.003 0.02,0.008 0.029,0.014 0.008,0.006 0.016,0.014 0.022,0.022 0.007,0.009 0.012,0.018 0.016,0.029 z"
         style="fill-rule:nonzero"
         id="path12754" /><path
         d="m 0.862,-0.526 c 0.01,0 0.018,0.003 0.025,0.01 0.007,0.007 0.01,0.015 0.01,0.025 0,0.009 0.003,0.017 0.01,0.024 0.007,0.007 0.016,0.01 0.025,0.01 0.01,0 0.018,0.004 0.025,0.011 0.007,0.007 0.01,0.015 0.01,0.025 v 0.035 c 0,0.011 -0.001,0.021 -0.005,0.029 -0.003,0.008 -0.008,0.016 -0.013,0.022 -0.005,0.007 -0.011,0.013 -0.017,0.019 -0.006,0.006 -0.012,0.013 -0.017,0.019 -0.005,0.007 -0.009,0.014 -0.013,0.023 -0.003,0.008 -0.005,0.017 -0.005,0.028 0,0.02 -0.004,0.038 -0.011,0.055 -0.007,0.017 -0.017,0.032 -0.03,0.045 -0.013,0.012 -0.028,0.022 -0.044,0.03 -0.017,0.007 -0.036,0.011 -0.055,0.011 H 0.722 c -0.015,0 -0.029,0.002 -0.041,0.008 C 0.668,-0.092 0.657,-0.084 0.647,-0.074 0.638,-0.065 0.63,-0.054 0.625,-0.041 0.619,-0.028 0.616,-0.015 0.616,0 0.616,0.009 0.613,0.018 0.606,0.025 0.599,0.032 0.59,0.035 0.581,0.035 0.572,0.035 0.563,0.032 0.556,0.025 0.549,0.018 0.546,0.009 0.546,0 0.546,-0.015 0.543,-0.028 0.538,-0.041 0.532,-0.054 0.525,-0.065 0.515,-0.074 0.506,-0.084 0.495,-0.092 0.482,-0.097 0.469,-0.103 0.456,-0.105 0.441,-0.105 H 0.406 c -0.012,0 -0.021,0.001 -0.03,0.005 C 0.368,-0.097 0.361,-0.093 0.354,-0.087 0.348,-0.082 0.341,-0.076 0.335,-0.07 0.329,-0.064 0.323,-0.058 0.316,-0.053 0.309,-0.048 0.302,-0.044 0.294,-0.04 0.286,-0.037 0.276,-0.035 0.265,-0.035 H 0.247 c -0.007,0 -0.013,0 -0.019,-10e-4 C 0.222,-0.037 0.216,-0.038 0.211,-0.041 0.207,-0.043 0.203,-0.047 0.2,-0.052 0.197,-0.056 0.195,-0.063 0.195,-0.07 c 0,-0.01 0.004,-0.018 0.011,-0.025 0.006,-0.007 0.015,-0.01 0.024,-0.01 0.012,0 0.022,-0.002 0.03,-0.006 0.008,-0.003 0.015,-0.007 0.022,-0.013 0.007,-0.005 0.013,-0.01 0.019,-0.017 0.005,-0.006 0.011,-0.012 0.018,-0.017 0.007,-0.005 0.014,-0.009 0.022,-0.013 0.008,-0.003 0.018,-0.005 0.03,-0.005 h 0.245 c 0.02,0 0.038,-0.003 0.055,-0.011 0.017,-0.007 0.032,-0.017 0.045,-0.03 0.013,-0.012 0.023,-0.027 0.03,-0.044 0.007,-0.017 0.011,-0.035 0.011,-0.055 0,-0.011 0.002,-0.021 0.005,-0.029 0.003,-0.008 0.008,-0.016 0.013,-0.022 0.005,-0.007 0.011,-0.013 0.017,-0.019 0.006,-0.006 0.011,-0.012 0.017,-0.019 0.005,-0.006 0.009,-0.014 0.013,-0.022 0.003,-0.008 0.005,-0.018 0.005,-0.03 v -0.034 c 0,-0.01 0.003,-0.018 0.01,-0.025 0.007,-0.007 0.015,-0.01 0.025,-0.01 z m 0.245,-0.211 c 0,0.009 -0.003,0.017 -0.01,0.024 -0.007,0.007 -0.015,0.011 -0.024,0.011 -0.012,0 -0.021,0.002 -0.03,0.005 -0.008,0.003 -0.015,0.008 -0.022,0.013 -0.006,0.005 -0.013,0.011 -0.019,0.017 -0.005,0.006 -0.012,0.012 -0.018,0.017 -0.007,0.005 -0.014,0.01 -0.023,0.013 -0.008,0.003 -0.017,0.005 -0.029,0.005 -0.01,0 -0.018,0.004 -0.025,0.01 -0.007,0.007 -0.01,0.016 -0.01,0.025 0,0.01 -0.003,0.018 -0.01,0.025 -0.007,0.007 -0.015,0.01 -0.025,0.01 -0.01,0 -0.018,-0.003 -0.025,-0.01 -0.007,-0.007 -0.01,-0.015 -0.01,-0.025 v -0.035 c 0,-0.011 0.001,-0.021 0.005,-0.029 C 0.835,-0.669 0.84,-0.677 0.845,-0.683 0.85,-0.69 0.856,-0.696 0.862,-0.702 0.868,-0.708 0.874,-0.714 0.879,-0.72 0.884,-0.727 0.888,-0.735 0.892,-0.743 0.895,-0.751 0.897,-0.761 0.897,-0.772 v -0.035 c 0,-0.01 0.003,-0.018 0.01,-0.025 0.007,-0.007 0.015,-0.01 0.025,-0.01 0.01,0 0.018,0.003 0.025,0.01 0.007,0.007 0.01,0.015 0.01,0.025 0,0.009 0.004,0.018 0.011,0.025 0.007,0.007 0.015,0.01 0.024,0.01 h 0.071 c 0.009,0 0.017,0.003 0.024,0.01 0.007,0.007 0.01,0.015 0.01,0.025 z m -0.631,0.702 c 0,0.01 -0.003,0.018 -0.01,0.025 C 0.459,-0.003 0.451,0 0.441,0 0.431,0 0.423,0.003 0.416,0.01 0.409,0.017 0.406,0.025 0.406,0.035 0.406,0.045 0.402,0.053 0.395,0.06 0.388,0.067 0.38,0.07 0.371,0.07 0.361,0.07 0.353,0.067 0.346,0.06 0.339,0.053 0.335,0.045 0.335,0.035 V 0 c 0,-0.01 0.002,-0.019 0.006,-0.027 C 0.344,-0.036 0.349,-0.043 0.356,-0.05 0.362,-0.056 0.37,-0.061 0.378,-0.065 0.387,-0.068 0.396,-0.07 0.406,-0.07 h 0.035 c 0.01,0 0.018,0.003 0.025,0.01 0.007,0.007 0.01,0.015 0.01,0.025 z M 0.3,0.035 C 0.3,0.043 0.299,0.05 0.296,0.055 0.293,0.06 0.288,0.065 0.283,0.07 0.277,0.075 0.273,0.08 0.27,0.085 0.267,0.091 0.265,0.097 0.265,0.105 0.265,0.114 0.262,0.123 0.255,0.13 0.248,0.137 0.24,0.14 0.23,0.14 0.221,0.14 0.212,0.137 0.206,0.13 0.199,0.123 0.195,0.115 0.195,0.105 V 0.035 C 0.195,0.025 0.199,0.017 0.206,0.01 0.212,0.003 0.221,0 0.23,0 H 0.265 C 0.275,0 0.283,0.003 0.29,0.01 0.297,0.017 0.3,0.025 0.3,0.035 Z"
         style="fill:#16c60c;fill-rule:nonzero"
         id="path12756" /></g></g></svg>
