<?xml version="1.0" encoding="UTF-8" standalone="no"?>
<svg
   width="16.844999"
   height="16.844999"
   viewBox="0 0 16.844999 16.844999"
   version="1.1"
   xml:space="preserve"
   style="clip-rule:evenodd;fill-rule:evenodd;stroke-linejoin:round;stroke-miterlimit:2"
   id="svg20568"
   sodipodi:docname="emojis.svg"
   xmlns:inkscape="http://www.inkscape.org/namespaces/inkscape"
   xmlns:sodipodi="http://sodipodi.sourceforge.net/DTD/sodipodi-0.dtd"
   xmlns="http://www.w3.org/2000/svg"
   xmlns:svg="http://www.w3.org/2000/svg"><defs
     id="defs20572" /><sodipodi:namedview
     id="namedview20570"
     pagecolor="#505050"
     bordercolor="#eeeeee"
     borderopacity="1"
     inkscape:pageshadow="0"
     inkscape:pageopacity="0"
     inkscape:pagecheckerboard="0" /><g
     transform="matrix(0.24,0,0,0.24,-157.38348,-658.9962)"
     id="g20566"><g
       transform="matrix(62.5,0,0,62.5,647.952,2802.88)"
       id="g12736"><path
         d="M 1.046,-0.807 H 1.248 V 0.21 H 0.125 v -0.52 l 0.14,-0.14 v -0.252 h 0.29 c 0.008,-0.031 0.021,-0.059 0.038,-0.085 0.018,-0.026 0.038,-0.048 0.062,-0.067 0.024,-0.018 0.051,-0.033 0.08,-0.043 0.029,-0.01 0.06,-0.016 0.092,-0.016 0.043,0 0.084,0.01 0.121,0.028 0.038,0.018 0.071,0.044 0.098,0.078 z"
         style="fill-rule:nonzero"
         id="path12724" /><path
         d="m 1.038,-0.632 c 0,0.029 -0.006,0.057 -0.017,0.082 C 1.01,-0.524 0.995,-0.502 0.976,-0.483 0.957,-0.464 0.934,-0.449 0.909,-0.438 0.883,-0.427 0.856,-0.421 0.827,-0.421 0.798,-0.421 0.77,-0.427 0.745,-0.438 0.719,-0.449 0.697,-0.464 0.678,-0.483 0.659,-0.502 0.644,-0.524 0.633,-0.55 0.622,-0.576 0.616,-0.603 0.616,-0.632 c 0,-0.029 0.006,-0.056 0.017,-0.082 0.011,-0.025 0.026,-0.047 0.045,-0.067 0.019,-0.019 0.041,-0.034 0.067,-0.045 0.025,-0.011 0.053,-0.016 0.082,-0.016 0.029,0 0.056,0.005 0.082,0.016 0.025,0.011 0.048,0.026 0.067,0.045 0.019,0.019 0.034,0.041 0.045,0.067 0.011,0.025 0.017,0.053 0.017,0.082 z"
         style="fill:#ffb900;fill-rule:nonzero"
         id="path12726" /><path
         d="M 1.123,-0.458 V 0.07 L 1.038,0.14 H 0.862 L 0.828,0.121 0.792,0.14 H 0.616 L 0.565,0.088 0.476,0.14 H 0.441 L 0.406,0.108 0.371,0.14 H 0.195 v -0.421 l 0.14,-0.14 h 0.141 l 0.086,-0.138 0.195,0.102 h 0.256 c 0.037,0 0.073,0 0.11,-0.001 z"
         style="fill:#757575;fill-rule:nonzero"
         id="path12728" /><path
         d="m 1.038,-0.772 h 0.14 V 0.14 H 1.038 V -0.316 H 0.897 v -0.316 h 0.141 z m -0.703,0.14 h 0.422 v 0.175 H 0.616 V 0.14 h -0.14 v -0.421 l -0.07,-0.07 V -0.386 H 0.371 L 0.335,-0.421 Z M 0.371,0 h 0.07 v 0.14 h -0.07 z m 0.421,0 h 0.07 v 0.14 h -0.07 z m 0.14,0 h 0.07 V 0.07 H 0.932 Z M 0.371,-0.141 h 0.07 v 0.071 h -0.07 z m 0.28,-0.28 h 0.071 v 0.07 H 0.651 Z m 0.281,0.28 h 0.07 v 0.071 h -0.07 z m -0.281,0 H 0.722 V -0.07 H 0.651 Z m 0.141,-0.14 h 0.07 V -0.21 H 0.792 Z M 0.23,-0.141 H 0.3 V -0.07 H 0.23 Z m 0.562,0 h 0.07 V -0.07 H 0.792 Z M 0.23,-0.281 H 0.3 V -0.21 H 0.23 Z m 0.562,-0.14 h 0.07 v 0.07 h -0.07 z"
         style="fill:#383838;fill-rule:nonzero"
         id="path12730" /><path
         d="m 0.371,-0.491 v -0.071 h 0.07 v 0.071 z m 0.28,0 v -0.071 h 0.071 v 0.071 z m 0.281,0.14 v -0.07 h 0.07 v 0.07 z m 0.141,-0.14 v -0.071 h 0.07 v 0.071 z M 0.511,-0.21 v -0.071 h 0.07 v 0.071 z m 0.562,-0.141 v -0.07 h 0.07 v 0.07 z m 0,-0.351 h 0.07 v 0.07 h -0.07 z m 0,0.492 v -0.071 h 0.07 V -0.21 Z M 0.511,-0.351 v -0.07 h 0.07 v 0.07 z m 0.562,0.281 v -0.071 h 0.07 V -0.07 Z M 0.511,0.07 V 0 h 0.07 V 0.07 Z M 0.406,-0.351 0.371,-0.386 v -0.035 h 0.07 v 0.07 z"
         style="fill:#2b2b2b;fill-rule:nonzero"
         id="path12732" /><path
         d="m 0.371,-0.21 v -0.071 h 0.07 v 0.071 z m 0.28,0 v -0.071 h 0.071 v 0.071 z m 0,0.28 V 0 h 0.071 v 0.07 z m 0.281,-0.28 v -0.071 h 0.07 v 0.071 z m 0,-0.281 v -0.071 h 0.07 v 0.071 z M 0.511,-0.07 v -0.071 h 0.07 V -0.07 Z M 0.23,0.07 V 0 H 0.3 v 0.07 z m 0.281,-0.561 v -0.071 h 0.07 v 0.071 z M 1.073,0 h 0.07 v 0.07 h -0.07 z"
         style="fill:#eba300;fill-rule:nonzero"
         id="path12734" /></g></g></svg>
