<?xml version="1.0" encoding="UTF-8" standalone="no"?>
<svg
   width="16.844999"
   height="15.78"
   viewBox="0 0 16.844999 15.78"
   version="1.1"
   xml:space="preserve"
   style="clip-rule:evenodd;fill-rule:evenodd;stroke-linejoin:round;stroke-miterlimit:2"
   id="svg20568"
   sodipodi:docname="emojis.svg"
   xmlns:inkscape="http://www.inkscape.org/namespaces/inkscape"
   xmlns:sodipodi="http://sodipodi.sourceforge.net/DTD/sodipodi-0.dtd"
   xmlns="http://www.w3.org/2000/svg"
   xmlns:svg="http://www.w3.org/2000/svg"><defs
     id="defs20572" /><sodipodi:namedview
     id="namedview20570"
     pagecolor="#505050"
     bordercolor="#eeeeee"
     borderopacity="1"
     inkscape:pageshadow="0"
     inkscape:pageopacity="0"
     inkscape:pagecheckerboard="0" /><g
     transform="matrix(0.24,0,0,0.24,-218.12316,-660.0612)"
     id="g20566"><g
       transform="matrix(62.5,0,0,62.5,901.034,2802.88)"
       id="g12776"><path
         d="m 0.125,0.21 v -0.555 l 0.439,-0.44 c 0.009,-0.008 0.018,-0.016 0.027,-0.024 0.009,-0.007 0.018,-0.013 0.028,-0.018 0.01,-0.005 0.02,-0.008 0.031,-0.011 0.011,-0.003 0.024,-0.004 0.037,-0.004 0.025,0 0.047,0.005 0.066,0.015 0.02,0.011 0.038,0.025 0.056,0.042 0.047,0.048 0.089,0.09 0.126,0.127 0.037,0.037 0.07,0.07 0.098,0.099 0.029,0.028 0.053,0.053 0.073,0.073 0.021,0.021 0.039,0.039 0.053,0.054 0.015,0.014 0.027,0.027 0.037,0.036 0.009,0.01 0.017,0.018 0.023,0.024 0.007,0.007 0.012,0.012 0.017,0.016 0.004,0.004 0.008,0.008 0.012,0.011 V 0.21 Z"
         style="fill-rule:nonzero"
         id="path12760" /><path
         d="m 1.178,-0.316 v 0.035 L 0.866,-0.234 C 0.853,-0.232 0.84,-0.23 0.827,-0.227 0.814,-0.224 0.801,-0.221 0.788,-0.219 0.775,-0.217 0.762,-0.215 0.749,-0.213 0.736,-0.211 0.723,-0.21 0.709,-0.21 0.695,-0.21 0.68,-0.211 0.666,-0.213 0.652,-0.215 0.637,-0.217 0.623,-0.219 0.609,-0.221 0.595,-0.224 0.581,-0.227 0.567,-0.23 0.552,-0.232 0.538,-0.234 L 0.195,-0.281 V -0.316 L 0.476,-0.597 C 0.51,-0.61 0.544,-0.621 0.579,-0.628 0.614,-0.635 0.65,-0.639 0.687,-0.639 c 0.036,0 0.072,0.004 0.107,0.011 0.035,0.007 0.069,0.018 0.103,0.031 0.047,0.048 0.094,0.094 0.14,0.141 0.046,0.047 0.093,0.094 0.141,0.14 z"
         style="fill:#cccccc;fill-rule:nonzero"
         id="path12762" /><path
         d="m 0.687,-0.772 c 0.015,0 0.028,0.003 0.038,0.01 0.011,0.006 0.021,0.014 0.032,0.025 l 0.14,0.14 c -0.008,0 -0.015,0.002 -0.02,0.006 -0.005,0.004 -0.01,0.008 -0.015,0.012 -0.004,0.005 -0.009,0.009 -0.014,0.012 -0.006,0.004 -0.013,0.005 -0.021,0.005 -0.009,0 -0.016,-10e-4 -0.021,-0.005 C 0.801,-0.57 0.796,-0.574 0.792,-0.579 0.787,-0.583 0.783,-0.587 0.777,-0.591 0.772,-0.595 0.765,-0.597 0.757,-0.597 c -0.009,0 -0.015,0.002 -0.021,0.006 -0.005,0.004 -0.01,0.008 -0.015,0.012 -0.004,0.005 -0.009,0.009 -0.014,0.012 -0.006,0.004 -0.012,0.005 -0.02,0.005 -0.009,0 -0.016,-10e-4 -0.021,-0.005 C 0.661,-0.57 0.656,-0.574 0.651,-0.579 0.646,-0.583 0.641,-0.587 0.636,-0.591 0.631,-0.595 0.624,-0.597 0.616,-0.597 c -0.008,0 -0.015,0.002 -0.02,0.006 -0.005,0.004 -0.01,0.008 -0.014,0.012 -0.005,0.005 -0.01,0.009 -0.015,0.012 -0.005,0.004 -0.012,0.005 -0.021,0.005 -0.009,0 -0.015,-10e-4 -0.021,-0.005 C 0.52,-0.57 0.515,-0.574 0.511,-0.579 0.507,-0.583 0.502,-0.587 0.497,-0.591 0.491,-0.595 0.485,-0.597 0.476,-0.597 l 0.14,-0.14 c 0.011,-0.011 0.021,-0.019 0.032,-0.025 0.01,-0.007 0.023,-0.01 0.039,-0.01 z"
         style="fill:#f2f2f2;fill-rule:nonzero"
         id="path12764" /><path
         d="m 0.195,-0.281 h 0.421 c 0.009,0.004 0.019,0.007 0.028,0.009 0.009,0.002 0.019,0.003 0.029,0.003 0.017,0 0.033,-0.004 0.049,-0.012 H 1.178 V 0.14 H 0.722 C 0.709,0.14 0.697,0.138 0.684,0.134 0.672,0.13 0.659,0.127 0.647,0.125 0.62,0.119 0.593,0.116 0.565,0.114 0.538,0.112 0.511,0.111 0.483,0.111 0.454,0.111 0.425,0.112 0.396,0.115 0.367,0.117 0.339,0.12 0.31,0.125 0.298,0.127 0.288,0.129 0.279,0.131 0.271,0.132 0.262,0.134 0.253,0.135 0.245,0.137 0.236,0.138 0.227,0.139 0.218,0.14 0.207,0.14 0.195,0.14 Z"
         style="fill:#16c60c;fill-rule:nonzero"
         id="path12766" /><path
         d="M 0.23,0.14 C 0.262,0.105 0.296,0.073 0.333,0.043 0.37,0.013 0.41,-0.013 0.451,-0.035 c 0.042,-0.022 0.085,-0.039 0.131,-0.052 0.045,-0.012 0.092,-0.018 0.14,-0.018 0.009,0 0.019,-0.002 0.027,-0.006 0.008,-0.003 0.016,-0.008 0.022,-0.015 0.007,-0.006 0.012,-0.013 0.015,-0.022 0.004,-0.008 0.006,-0.018 0.006,-0.027 0,-0.01 -0.002,-0.019 -0.006,-0.028 C 0.783,-0.211 0.778,-0.219 0.771,-0.225 0.765,-0.231 0.757,-0.236 0.749,-0.24 0.741,-0.244 0.731,-0.246 0.722,-0.246 H 0.616 v -0.035 h 0.106 c 0.027,0 0.054,0.004 0.08,0.01 0.027,0.007 0.052,0.016 0.075,0.029 0.024,0.012 0.047,0.027 0.068,0.044 0.021,0.017 0.04,0.036 0.057,0.057 L 0.769,0.012 C 0.762,0.016 0.755,0.022 0.75,0.029 0.744,0.036 0.739,0.044 0.735,0.053 0.731,0.061 0.727,0.07 0.725,0.079 0.723,0.088 0.722,0.097 0.722,0.105 V 0.14 Z"
         style="fill:#31d2f7;fill-rule:nonzero"
         id="path12768" /><path
         d="m 0.932,-0.07 h 0.07 V 0.14 H 0.932 Z M 0.3,-0.035 v -0.106 h 0.035 v 0.106 z m 0.281,-0.141 v -0.105 h 0.035 v 0.105 z"
         style="fill:#ca5010;fill-rule:nonzero"
         id="path12770" /><path
         d="m 0.967,-0.21 0.066,0.048 c 0.006,0.004 0.011,0.008 0.017,0.011 0.006,0.004 0.011,0.008 0.016,0.013 0.007,0.008 0.013,0.016 0.018,0.024 0.006,0.008 0.012,0.017 0.018,0.025 L 1.174,0.007 C 1.177,0.011 1.178,0.014 1.178,0.018 1.178,0.022 1.176,0.026 1.172,0.03 1.169,0.033 1.165,0.035 1.16,0.035 1.159,0.035 1.155,0.034 1.149,0.031 1.143,0.028 1.136,0.025 1.128,0.021 1.119,0.017 1.111,0.012 1.101,0.007 1.092,0.002 1.083,-0.003 1.074,-0.008 1.066,-0.012 1.058,-0.017 1.052,-0.02 1.045,-0.024 1.04,-0.027 1.038,-0.028 V 0.018 C 1.038,0.022 1.036,0.026 1.032,0.03 1.029,0.033 1.025,0.035 1.02,0.035 1.018,0.035 1.016,0.035 1.013,0.034 1.01,0.033 1.008,0.031 1.007,0.029 L 0.967,-0.035 0.928,0.029 C 0.926,0.031 0.924,0.033 0.922,0.034 0.919,0.035 0.917,0.035 0.915,0.035 0.907,0.035 0.902,0.033 0.9,0.028 0.898,0.023 0.897,0.017 0.897,0.011 V 0 L 0.785,0.031 C 0.783,0.032 0.781,0.033 0.78,0.034 0.779,0.035 0.777,0.035 0.774,0.035 0.77,0.035 0.765,0.033 0.762,0.03 0.759,0.026 0.757,0.022 0.757,0.017 0.757,0.014 0.758,0.01 0.76,0.007 L 0.833,-0.089 C 0.839,-0.097 0.845,-0.106 0.85,-0.114 0.856,-0.122 0.862,-0.13 0.869,-0.138 0.873,-0.143 0.878,-0.147 0.884,-0.151 0.89,-0.154 0.896,-0.158 0.901,-0.162 Z M 0.36,-0.176 h 0.008 c 0.004,0 0.007,0.001 0.009,0.003 0.001,0.001 0.004,0.004 0.008,0.009 0.003,0.004 0.007,0.01 0.012,0.016 0.005,0.007 0.01,0.013 0.015,0.021 0.005,0.007 0.01,0.013 0.014,0.02 0.005,0.006 0.008,0.012 0.011,0.016 0.003,0.005 0.004,0.008 0.004,0.008 0,0.009 -0.004,0.013 -0.012,0.013 -0.003,0 -0.007,-0.002 -0.012,-0.006 C 0.411,-0.08 0.406,-0.085 0.4,-0.09 0.394,-0.095 0.388,-0.1 0.382,-0.104 0.377,-0.109 0.373,-0.113 0.371,-0.115 v 0.032 c 0,0.009 -0.004,0.013 -0.013,0.013 -0.002,0 -0.003,-10e-4 -0.005,-10e-4 C 0.352,-0.072 0.35,-0.073 0.349,-0.074 L 0.318,-0.119 0.287,-0.074 c -0.001,0.001 -0.003,0.002 -0.005,0.003 -10e-4,0 -0.003,10e-4 -0.005,10e-4 -0.005,0 -0.009,-0.003 -0.01,-0.008 C 0.265,-0.083 0.264,-0.088 0.264,-0.094 L 0.265,-0.115 C 0.263,-0.113 0.259,-0.109 0.254,-0.104 0.248,-0.1 0.243,-0.095 0.236,-0.089 0.23,-0.084 0.224,-0.08 0.219,-0.076 0.214,-0.072 0.21,-0.07 0.208,-0.07 0.204,-0.07 0.201,-0.071 0.198,-0.073 0.196,-0.075 0.195,-0.078 0.195,-0.082 c 0,-0.001 0.001,-0.003 0.004,-0.008 0.003,-0.004 0.006,-0.01 0.011,-0.016 0.004,-0.007 0.009,-0.013 0.014,-0.021 0.005,-0.007 0.01,-0.014 0.015,-0.02 0.005,-0.007 0.009,-0.013 0.012,-0.017 0.004,-0.005 0.006,-0.008 0.008,-0.009 0.001,-0.002 0.003,-0.002 0.004,-0.003 0.002,0 0.004,0 0.006,0 H 0.276 C 0.274,-0.178 0.273,-0.181 0.271,-0.183 0.27,-0.186 0.269,-0.189 0.269,-0.192 c 0,-0.003 0.001,-0.007 0.003,-0.009 0.002,-0.003 0.005,-0.004 0.009,-0.004 0.002,0 0.005,0.001 0.008,0.003 0.004,0.002 0.007,0.004 0.011,0.007 0.003,0.003 0.006,0.006 0.009,0.009 0.003,0.003 0.006,0.005 0.008,0.007 0,0.001 0.001,0.001 0.001,0.001 0.002,0 0.005,-0.002 0.009,-0.004 0.004,-0.003 0.008,-0.006 0.013,-0.009 0.005,-0.004 0.01,-0.007 0.015,-0.009 0.004,-0.003 0.008,-0.005 0.012,-0.005 0.004,0 0.007,0.002 0.009,0.005 0.002,0.002 0.003,0.006 0.003,0.009 0,0.003 -0.001,0.006 -0.003,0.008 z m 0.281,-0.14 h 0.007 c 0.002,0 0.004,0 0.006,0 0.001,0 0.003,0.001 0.004,0.003 0.001,0.001 0.004,0.004 0.008,0.009 0.004,0.005 0.008,0.011 0.012,0.017 0.005,0.006 0.01,0.013 0.015,0.02 0.005,0.007 0.01,0.013 0.014,0.019 0.004,0.007 0.008,0.012 0.011,0.017 0.002,0.004 0.004,0.007 0.004,0.008 0,0.008 -0.004,0.013 -0.013,0.013 -0.002,0 -0.006,-0.002 -0.011,-0.007 C 0.692,-0.221 0.686,-0.225 0.68,-0.23 0.674,-0.235 0.669,-0.24 0.663,-0.245 0.658,-0.25 0.654,-0.253 0.651,-0.255 v 0.032 c 0,0.003 -0.001,0.006 -0.003,0.009 C 0.646,-0.212 0.643,-0.21 0.639,-0.21 0.635,-0.21 0.632,-0.212 0.63,-0.215 L 0.599,-0.26 0.567,-0.215 C 0.565,-0.212 0.562,-0.21 0.558,-0.21 0.555,-0.21 0.552,-0.212 0.549,-0.214 0.547,-0.217 0.546,-0.22 0.546,-0.223 V -0.255 C 0.544,-0.253 0.54,-0.25 0.534,-0.245 0.529,-0.24 0.523,-0.235 0.517,-0.23 0.511,-0.225 0.506,-0.221 0.5,-0.217 0.494,-0.212 0.491,-0.21 0.488,-0.21 0.485,-0.21 0.482,-0.211 0.479,-0.213 0.477,-0.215 0.476,-0.218 0.476,-0.222 c 0,-0.001 0.001,-0.003 0.004,-0.008 0.003,-0.005 0.006,-0.01 0.01,-0.016 0.004,-0.007 0.009,-0.013 0.014,-0.021 0.005,-0.007 0.01,-0.014 0.015,-0.02 L 0.54,-0.313 C 0.541,-0.315 0.544,-0.316 0.549,-0.316 H 0.557 C 0.555,-0.319 0.553,-0.321 0.552,-0.323 0.551,-0.326 0.55,-0.329 0.55,-0.332 c 0,-0.004 0.001,-0.007 0.003,-0.01 0.002,-0.002 0.005,-0.004 0.009,-0.004 0.002,0 0.006,0.001 0.009,0.004 0.003,0.002 0.006,0.005 0.01,0.008 0.003,0.003 0.006,0.006 0.009,0.009 0.003,0.003 0.006,0.006 0.009,0.007 l 0.04,-0.023 c 0.002,-0.002 0.004,-0.004 0.008,-0.004 0.004,0 0.007,0.002 0.009,0.004 0.003,0.003 0.004,0.006 0.004,0.009 0,0.004 -0.001,0.007 -0.003,0.009 z"
         style="fill:#107c10;fill-rule:nonzero"
         id="path12772" /><path
         d="m 1.084,-0.176 0.056,0.078 c 0.002,0.003 0.003,0.006 0.003,0.01 0,0.005 -0.002,0.009 -0.006,0.013 C 1.134,-0.072 1.13,-0.07 1.125,-0.07 1.121,-0.07 1.118,-0.072 1.114,-0.074 L 1.012,-0.153 0.983,-0.082 C 0.98,-0.074 0.975,-0.07 0.967,-0.07 0.96,-0.07 0.954,-0.074 0.951,-0.082 L 0.922,-0.153 0.82,-0.074 C 0.817,-0.072 0.813,-0.07 0.81,-0.07 0.805,-0.07 0.801,-0.072 0.797,-0.075 0.794,-0.079 0.792,-0.083 0.792,-0.088 c 0,-0.004 0.001,-0.007 0.003,-0.01 l 0.056,-0.078 c -0.007,0 -0.012,-0.001 -0.017,-0.003 -0.005,-0.002 -0.007,-0.007 -0.007,-0.014 0,-0.003 0.002,-0.008 0.006,-0.015 0.004,-0.006 0.009,-0.013 0.014,-0.02 C 0.853,-0.236 0.858,-0.243 0.863,-0.249 0.868,-0.256 0.872,-0.261 0.874,-0.264 0.87,-0.265 0.868,-0.268 0.865,-0.271 0.863,-0.274 0.862,-0.277 0.862,-0.281 c 0,-10e-4 0,-0.003 0.001,-0.005 0.001,-0.002 0.002,-0.004 0.003,-0.005 l 0.087,-0.123 c 0.002,-0.002 0.004,-0.004 0.006,-0.005 0.003,-0.002 0.006,-0.002 0.008,-0.002 0.003,0 0.005,0 0.008,0.002 0.003,0.001 0.005,0.003 0.006,0.005 l 0.088,0.123 c 0.001,0.001 0.002,0.003 0.003,0.005 0,0.002 10e-4,0.004 10e-4,0.005 0,0.004 -10e-4,0.007 -0.004,0.01 -0.002,0.003 -0.005,0.005 -0.008,0.006 l 0.043,0.061 c 0.002,0.004 0.003,0.007 0.003,0.011 0,0.007 -0.002,0.012 -0.006,0.014 -0.005,0.002 -0.011,0.003 -0.017,0.003 z m -0.684,0 0.023,0.03 c 0.005,0.007 0.009,0.013 0.013,0.018 0.003,0.006 0.005,0.01 0.005,0.012 0,0.003 -0.001,0.006 -0.003,0.008 -0.003,0.002 -0.006,0.003 -0.009,0.003 -0.002,0 -0.005,-0.002 -0.009,-0.004 C 0.416,-0.112 0.411,-0.115 0.406,-0.118 0.401,-0.122 0.396,-0.126 0.39,-0.131 0.384,-0.135 0.379,-0.14 0.373,-0.144 0.368,-0.148 0.363,-0.152 0.359,-0.156 0.355,-0.159 0.352,-0.162 0.35,-0.164 l -0.02,0.051 c -0.002,0.005 -0.006,0.008 -0.012,0.008 -0.006,0 -0.009,-0.003 -0.011,-0.008 l -0.02,-0.051 -0.041,0.033 c -0.009,0.007 -0.017,0.013 -0.024,0.018 -0.008,0.005 -0.013,0.008 -0.014,0.008 -0.004,0 -0.007,-0.001 -0.01,-0.003 C 0.196,-0.11 0.195,-0.113 0.195,-0.116 0.195,-0.118 0.197,-0.122 0.2,-0.128 0.204,-0.133 0.208,-0.139 0.213,-0.146 0.217,-0.152 0.222,-0.158 0.227,-0.164 0.231,-0.169 0.234,-0.173 0.236,-0.176 0.231,-0.176 0.227,-0.177 0.224,-0.179 0.221,-0.181 0.22,-0.184 0.22,-0.19 c 0,-0.003 0.001,-0.007 0.004,-0.011 0.003,-0.005 0.006,-0.01 0.009,-0.015 0.004,-0.005 0.008,-0.01 0.011,-0.014 0.004,-0.005 0.007,-0.009 0.009,-0.011 -0.006,-0.002 -0.009,-0.005 -0.009,-0.012 0,-0.001 0.002,-0.004 0.004,-0.009 0.003,-0.004 0.007,-0.01 0.011,-0.016 0.004,-0.006 0.009,-0.013 0.014,-0.02 0.005,-0.008 0.01,-0.014 0.015,-0.021 0.004,-0.006 0.009,-0.012 0.012,-0.017 0.004,-0.005 0.006,-0.008 0.008,-0.01 0.002,-0.001 0.003,-0.003 0.004,-0.004 0.001,-0.001 0.003,-0.001 0.006,-0.001 0.004,0 0.007,0.002 0.01,0.005 l 0.02,0.028 c 0.005,0.006 0.01,0.013 0.015,0.02 0.005,0.008 0.01,0.015 0.014,0.021 0.004,0.006 0.008,0.012 0.01,0.016 0.003,0.005 0.005,0.008 0.005,0.009 0,0.005 -0.003,0.009 -0.009,0.011 0.002,0.002 0.005,0.006 0.008,0.01 0.004,0.005 0.008,0.01 0.012,0.015 0.003,0.005 0.007,0.01 0.009,0.015 0.003,0.005 0.005,0.009 0.005,0.011 0,0.005 -0.002,0.009 -0.005,0.011 -0.004,0.002 -0.008,0.003 -0.012,0.003 z m 0.281,-0.14 0.023,0.03 c 0.005,0.007 0.009,0.012 0.012,0.018 0.004,0.005 0.006,0.009 0.006,0.012 0,0.003 -0.002,0.006 -0.004,0.007 -0.003,0.002 -0.006,0.003 -0.009,0.003 -0.002,0 -0.007,-0.002 -0.014,-0.007 C 0.687,-0.259 0.679,-0.265 0.671,-0.271 L 0.63,-0.304 0.61,-0.253 c -0.002,0.005 -0.006,0.007 -0.011,0.007 -0.006,0 -0.01,-0.002 -0.012,-0.007 L 0.567,-0.304 C 0.565,-0.302 0.562,-0.3 0.558,-0.296 L 0.527,-0.271 C 0.521,-0.267 0.515,-0.262 0.51,-0.258 0.505,-0.254 0.5,-0.251 0.496,-0.249 0.492,-0.246 0.49,-0.245 0.488,-0.245 0.485,-0.245 0.482,-0.246 0.479,-0.248 0.477,-0.25 0.476,-0.253 0.476,-0.256 c 0,-0.003 0.001,-0.007 0.005,-0.012 0.004,-0.006 0.008,-0.012 0.012,-0.018 0.005,-0.006 0.01,-0.012 0.014,-0.018 0.005,-0.005 0.008,-0.009 0.01,-0.012 -0.005,0 -0.009,-0.001 -0.012,-0.003 C 0.502,-0.321 0.5,-0.325 0.5,-0.33 c 0,-0.003 0.002,-0.007 0.005,-0.012 0.002,-0.004 0.006,-0.009 0.009,-0.014 0.004,-0.005 0.007,-0.01 0.011,-0.015 0.004,-0.005 0.007,-0.008 0.009,-0.011 -0.006,-0.001 -0.009,-0.005 -0.009,-0.011 0,-0.001 0.001,-0.004 0.004,-0.008 0.003,-0.005 0.006,-0.01 0.011,-0.017 0.004,-0.006 0.009,-0.013 0.014,-0.02 0.005,-0.008 0.01,-0.014 0.015,-0.021 0.004,-0.006 0.009,-0.012 0.012,-0.017 0.004,-0.005 0.007,-0.008 0.008,-0.01 0.003,-0.003 0.006,-0.005 0.01,-0.005 0.002,0 0.004,0 0.005,0.001 0.002,0.001 0.003,0.003 0.005,0.004 l 0.02,0.028 c 0.005,0.006 0.01,0.013 0.015,0.02 0.005,0.007 0.009,0.014 0.014,0.02 0.004,0.007 0.007,0.012 0.01,0.016 0.003,0.005 0.004,0.008 0.004,0.009 0,0.006 -0.002,0.01 -0.008,0.012 0.002,0.002 0.004,0.005 0.008,0.01 0.004,0.004 0.008,0.009 0.011,0.015 0.004,0.005 0.007,0.01 0.01,0.015 0.003,0.005 0.004,0.009 0.004,0.011 0,0.005 -0.001,0.009 -0.005,0.011 -0.003,0.002 -0.007,0.003 -0.011,0.003 z"
         style="fill:#13a10e;fill-rule:nonzero"
         id="path12774" /></g></g></svg>
