<?xml version="1.0" encoding="UTF-8" standalone="no"?>
<svg
   width="9.4799995"
   height="16.844999"
   viewBox="0 0 9.4799995 16.844999"
   version="1.1"
   xml:space="preserve"
   style="clip-rule:evenodd;fill-rule:evenodd;stroke-linejoin:round;stroke-miterlimit:2"
   id="svg20568"
   sodipodi:docname="emojis.svg"
   xmlns:inkscape="http://www.inkscape.org/namespaces/inkscape"
   xmlns:sodipodi="http://sodipodi.sourceforge.net/DTD/sodipodi-0.dtd"
   xmlns="http://www.w3.org/2000/svg"
   xmlns:svg="http://www.w3.org/2000/svg"><defs
     id="defs20572" /><sodipodi:namedview
     id="namedview20570"
     pagecolor="#505050"
     bordercolor="#eeeeee"
     borderopacity="1"
     inkscape:pageshadow="0"
     inkscape:pageopacity="0"
     inkscape:pagecheckerboard="0" /><g
     transform="matrix(0.24,0,0,0.24,-297.891,-658.9962)"
     id="g20566"><g
       transform="matrix(62.5,0,0,62.5,1233.4,2802.88)"
       id="g12856"><path
         d="M 0.125,-0.035 H 0.16 V -0.491 H 0.125 v -0.211 h 0.044 c 0.008,-0.031 0.021,-0.059 0.038,-0.085 0.018,-0.026 0.038,-0.048 0.062,-0.067 0.024,-0.018 0.051,-0.033 0.08,-0.043 0.029,-0.01 0.06,-0.016 0.092,-0.016 0.032,0 0.062,0.006 0.092,0.016 0.029,0.01 0.056,0.025 0.08,0.043 0.023,0.019 0.044,0.041 0.062,0.067 0.017,0.026 0.03,0.054 0.038,0.085 h 0.044 v 0.211 H 0.722 v 0.456 h 0.035 v 0.21 H 0.722 V 0.21 H 0.16 V 0.175 H 0.125 Z"
         style="fill-rule:nonzero"
         id="path12842" /><path
         d="m 0.441,-0.842 c 0.029,0 0.056,0.005 0.082,0.016 0.025,0.011 0.048,0.026 0.067,0.045 0.019,0.02 0.034,0.042 0.045,0.067 0.011,0.026 0.016,0.053 0.016,0.082 L 0.595,-0.598 H 0.284 L 0.23,-0.632 c 0,-0.029 0.006,-0.056 0.017,-0.082 C 0.258,-0.739 0.273,-0.761 0.292,-0.781 0.311,-0.8 0.334,-0.815 0.359,-0.826 0.385,-0.837 0.412,-0.842 0.441,-0.842 Z M 0.23,0.14 V 0.07 h 0.421 v 0.07 z"
         style="fill:#e5e5e5;fill-rule:nonzero"
         id="path12844" /><path
         d="m 0.195,-0.632 h 0.492 v 0.07 H 0.651 L 0.622,-0.518 H 0.26 L 0.23,-0.562 H 0.195 Z M 0.23,0.035 0.272,-0.004 h 0.344 l 0.035,0.039 h 0.036 v 0.07 H 0.195 v -0.07 z"
         style="fill:#cccccc;fill-rule:nonzero"
         id="path12846" /><path
         d="M 0.651,-0.562 V 0.035 H 0.616 L 0.437,-0.004 0.265,0.035 H 0.23 v -0.597 h 0.035 l 0.172,0.047 0.179,-0.047 z"
         style="fill:#f2f2f2;fill-rule:nonzero"
         id="path12848" /><path
         d="m 0.616,-0.491 -0.029,0.078 0.029,0.027 v 0.105 l -0.035,0.084 0.035,0.021 v 0.106 c 0,0.004 -0.001,0.01 -0.002,0.018 C 0.612,-0.045 0.61,-0.038 0.608,-0.03 0.606,-0.022 0.603,-0.014 0.601,-0.006 0.599,0.002 0.597,0.009 0.596,0.014 0.591,0.015 0.585,0.017 0.577,0.019 0.569,0.021 0.56,0.024 0.552,0.026 0.543,0.029 0.535,0.031 0.528,0.032 0.52,0.034 0.515,0.035 0.511,0.035 H 0.406 L 0.388,-0.003 0.3,0.035 H 0.265 v -0.07 L 0.299,-0.109 0.265,-0.141 V -0.246 L 0.298,-0.319 0.265,-0.351 v -0.106 c 0,-0.004 0.001,-0.011 0.002,-0.018 0.002,-0.008 0.004,-0.016 0.006,-0.024 0.002,-0.009 0.004,-0.017 0.006,-0.024 0.002,-0.008 0.004,-0.015 0.005,-0.02 0.006,-0.002 0.013,-0.003 0.02,-0.006 0.008,-0.002 0.016,-0.004 0.024,-0.006 0.007,-0.002 0.015,-0.003 0.023,-0.005 0.007,-0.001 0.014,-0.002 0.02,-0.002 h 0.105 l 0.04,0.023 c 0.002,0 0.006,-0.002 0.013,-0.004 L 0.571,-0.558 C 0.577,-0.56 0.58,-0.562 0.581,-0.562 h 0.035 z"
         style="fill:#ffffff;fill-rule:nonzero"
         id="path12850" /><path
         d="m 0.265,-0.141 0.351,-0.35 v 0.105 l -0.351,0.351 z m 0,-0.421 H 0.371 L 0.265,-0.457 Z M 0.616,0.035 H 0.511 L 0.616,-0.07 Z"
         style="fill:#f03a17;fill-rule:nonzero"
         id="path12852" /><path
         d="m 0.3,0.035 0.316,-0.316 v 0.105 l -0.21,0.211 z m 0.176,-0.597 h 0.105 l -0.316,0.316 v -0.105 z"
         style="fill:#0046ff;fill-rule:nonzero"
         id="path12854" /></g></g></svg>
