<?xml version="1.0" encoding="UTF-8" standalone="no"?>
<svg
   width="16.844999"
   height="16.844999"
   viewBox="0 0 16.844999 16.844999"
   version="1.1"
   xml:space="preserve"
   style="clip-rule:evenodd;fill-rule:evenodd;stroke-linejoin:round;stroke-miterlimit:2"
   id="svg20568"
   sodipodi:docname="emojis.svg"
   xmlns:inkscape="http://www.inkscape.org/namespaces/inkscape"
   xmlns:sodipodi="http://sodipodi.sourceforge.net/DTD/sodipodi-0.dtd"
   xmlns="http://www.w3.org/2000/svg"
   xmlns:svg="http://www.w3.org/2000/svg"><defs
     id="defs20572" /><sodipodi:namedview
     id="namedview20570"
     pagecolor="#505050"
     bordercolor="#eeeeee"
     borderopacity="1"
     inkscape:pageshadow="0"
     inkscape:pageopacity="0"
     inkscape:pagecheckerboard="0" /><g
     transform="matrix(0.24,0,0,0.24,-710.319,-110.71908)"
     id="g20566"><g
       transform="matrix(62.5,0,0,62.5,2951.85,518.392)"
       id="g1286"><path
         d="M 0.687,0.21 C 0.643,0.21 0.601,0.205 0.56,0.193 0.519,0.182 0.48,0.166 0.444,0.144 0.408,0.123 0.375,0.097 0.346,0.066 0.316,0.035 0.291,0.001 0.27,-0.038 0.249,-0.041 0.23,-0.048 0.212,-0.059 0.194,-0.069 0.179,-0.082 0.166,-0.098 0.153,-0.113 0.143,-0.131 0.136,-0.15 0.129,-0.169 0.125,-0.189 0.125,-0.21 c 0,-0.018 0.003,-0.035 0.008,-0.052 0.005,-0.016 0.012,-0.031 0.021,-0.045 0.009,-0.014 0.02,-0.026 0.033,-0.037 0.013,-0.011 0.028,-0.02 0.043,-0.028 v -0.435 c 0,-0.015 0.003,-0.028 0.009,-0.041 0.005,-0.013 0.013,-0.024 0.022,-0.034 0.01,-0.009 0.021,-0.017 0.033,-0.022 0.013,-0.006 0.027,-0.009 0.041,-0.009 0.01,0 0.019,0.002 0.029,0.005 0.01,0.002 0.018,0.006 0.027,0.011 l 0.21,0.125 h 0.171 l 0.213,-0.126 c 0.007,-0.005 0.016,-0.008 0.025,-0.011 0.01,-0.002 0.019,-0.004 0.028,-0.004 0.014,0 0.028,0.003 0.041,0.009 0.012,0.005 0.023,0.013 0.033,0.022 0.009,0.01 0.017,0.021 0.022,0.034 0.006,0.013 0.009,0.026 0.009,0.041 v 0.435 c 0.016,0.008 0.03,0.018 0.043,0.029 0.013,0.011 0.024,0.023 0.033,0.036 0.009,0.014 0.016,0.028 0.021,0.045 0.006,0.016 0.008,0.033 0.008,0.052 0,0.021 -0.004,0.041 -0.011,0.06 C 1.23,-0.131 1.22,-0.113 1.207,-0.098 1.194,-0.082 1.179,-0.069 1.161,-0.059 1.143,-0.048 1.124,-0.041 1.103,-0.038 1.083,0.001 1.057,0.035 1.028,0.066 0.998,0.097 0.965,0.123 0.929,0.144 0.893,0.166 0.854,0.182 0.813,0.193 0.772,0.205 0.73,0.21 0.687,0.21 Z"
         style="fill-rule:nonzero"
         id="path1270" /><path
         d="M 1.143,-0.264 1.049,-0.088 C 1.042,-0.075 1.035,-0.062 1.028,-0.05 1.021,-0.038 1.013,-0.026 1.004,-0.015 0.985,0.01 0.963,0.032 0.939,0.051 0.916,0.07 0.89,0.086 0.863,0.099 0.836,0.113 0.807,0.123 0.778,0.13 0.748,0.137 0.717,0.14 0.687,0.14 0.656,0.14 0.625,0.137 0.595,0.13 0.566,0.123 0.537,0.113 0.51,0.099 0.483,0.086 0.457,0.07 0.433,0.051 0.409,0.032 0.388,0.01 0.369,-0.015 0.36,-0.026 0.351,-0.038 0.344,-0.05 0.337,-0.062 0.33,-0.075 0.323,-0.088 L 0.23,-0.264 0.3,-0.281 V -0.569 L 0.355,-0.666 0.3,-0.8 v -0.007 c 0,-0.01 0.004,-0.018 0.011,-0.025 0.007,-0.007 0.015,-0.01 0.024,-0.01 0.003,0 0.006,0 0.01,0.002 0.004,0.001 0.007,0.002 0.009,0.004 l 0.227,0.134 0.037,0.064 0.033,-0.064 h 0.071 l 0.037,0.062 0.033,-0.062 0.226,-0.134 c 0.002,-0.002 0.006,-0.003 0.01,-0.004 0.004,-0.002 0.007,-0.002 0.01,-0.002 0.006,0 0.012,0.001 0.016,0.003 0.004,0.003 0.008,0.006 0.011,0.01 0.002,0.004 0.004,0.008 0.006,0.013 0.001,0.005 0.002,0.011 0.002,0.016 l -0.079,0.134 0.079,0.097 v 0.288 z"
         style="fill:#ffc83d;fill-rule:nonzero"
         id="path1272" /><path
         d="m 0.476,-0.685 c 0,0.004 -0.001,0.007 -0.002,0.009 -0.002,0.002 -0.004,0.005 -0.007,0.007 L 0.3,-0.569 V -0.8 l 0.167,0.1 c 0.003,0.002 0.005,0.004 0.007,0.007 0.001,0.002 0.002,0.005 0.002,0.008 z M 1.073,-0.8 v 0.231 l -0.167,-0.1 C 0.903,-0.671 0.901,-0.674 0.899,-0.676 0.898,-0.678 0.897,-0.681 0.897,-0.685 c 0,-0.003 0.001,-0.006 0.002,-0.008 0.002,-0.003 0.004,-0.005 0.007,-0.007 z m -0.492,0.098 h 0.07 v 0.14 c 0,0.01 -0.003,0.019 -0.01,0.025 C 0.634,-0.53 0.626,-0.526 0.616,-0.526 0.607,-0.526 0.599,-0.53 0.592,-0.537 0.585,-0.544 0.581,-0.552 0.581,-0.562 Z m 0.141,0 h 0.07 v 0.14 c 0,0.01 -0.004,0.018 -0.011,0.025 -0.007,0.007 -0.015,0.011 -0.024,0.011 -0.01,0 -0.018,-0.004 -0.025,-0.011 -0.007,-0.006 -0.01,-0.015 -0.01,-0.025 z"
         style="fill:#d48c00;fill-rule:nonzero"
         id="path1274" /><path
         d="m 0.967,-0.141 c 0,0.039 -0.007,0.076 -0.022,0.11 C 0.931,0.003 0.911,0.033 0.885,0.058 0.86,0.083 0.83,0.104 0.796,0.118 0.762,0.133 0.725,0.14 0.687,0.14 0.648,0.14 0.611,0.133 0.577,0.118 0.543,0.104 0.513,0.083 0.488,0.058 0.462,0.033 0.442,0.003 0.428,-0.031 0.413,-0.065 0.406,-0.102 0.406,-0.141 v -0.035 c 0,-0.019 0.003,-0.037 0.011,-0.054 0.007,-0.017 0.017,-0.032 0.03,-0.045 0.012,-0.013 0.027,-0.023 0.044,-0.03 0.018,-0.007 0.036,-0.011 0.055,-0.011 h 0.035 l 0.106,0.058 0.105,-0.058 h 0.035 c 0.019,0 0.038,0.004 0.055,0.011 0.017,0.007 0.032,0.017 0.044,0.03 0.013,0.013 0.023,0.028 0.03,0.045 0.008,0.016 0.011,0.035 0.011,0.054 z"
         style="fill:#ffffff;fill-rule:nonzero"
         id="path1276" /><path
         d="M 0.792,-0.316 0.711,-0.221 C 0.709,-0.217 0.705,-0.215 0.7,-0.213 0.695,-0.211 0.691,-0.21 0.687,-0.21 0.682,-0.21 0.678,-0.211 0.673,-0.213 0.668,-0.215 0.664,-0.217 0.662,-0.221 L 0.581,-0.316 Z"
         style="fill:#f7894a;fill-rule:nonzero"
         id="path1278" /><path
         d="M 0.616,-0.386 H 0.581 c 0,-0.01 -0.003,-0.018 -0.01,-0.025 -0.007,-0.007 -0.016,-0.01 -0.025,-0.01 H 0.441 c -0.01,0 -0.018,0.003 -0.025,0.01 -0.007,0.007 -0.01,0.015 -0.01,0.025 H 0.371 c 0,-0.015 0.002,-0.029 0.008,-0.041 0.005,-0.013 0.013,-0.024 0.023,-0.033 0.009,-0.01 0.02,-0.017 0.033,-0.023 0.013,-0.005 0.026,-0.008 0.041,-0.008 h 0.035 c 0.015,0 0.029,0.003 0.041,0.008 0.013,0.006 0.024,0.013 0.033,0.023 0.01,0.009 0.017,0.02 0.023,0.033 0.005,0.012 0.008,0.026 0.008,0.041 z m 0.141,0 c 0,-0.015 0.003,-0.029 0.008,-0.041 0.006,-0.013 0.013,-0.024 0.023,-0.033 0.009,-0.01 0.02,-0.017 0.033,-0.023 0.012,-0.005 0.026,-0.008 0.041,-0.008 h 0.035 c 0.015,0 0.028,0.003 0.041,0.008 0.013,0.006 0.024,0.013 0.033,0.023 0.01,0.009 0.018,0.02 0.023,0.033 0.006,0.012 0.008,0.026 0.008,0.041 H 0.967 c 0,-0.01 -0.003,-0.018 -0.01,-0.025 C 0.95,-0.418 0.942,-0.421 0.932,-0.421 H 0.827 c -0.01,0 -0.018,0.003 -0.025,0.01 -0.007,0.007 -0.01,0.015 -0.01,0.025 z m -0.281,0.245 h 0.421 c 0,0.029 -0.006,0.057 -0.017,0.082 C 0.869,-0.033 0.854,-0.01 0.835,0.009 0.816,0.028 0.794,0.043 0.768,0.054 0.743,0.065 0.715,0.07 0.687,0.07 0.658,0.07 0.63,0.065 0.605,0.054 0.579,0.043 0.557,0.028 0.538,0.009 0.519,-0.01 0.504,-0.033 0.493,-0.059 0.482,-0.084 0.476,-0.112 0.476,-0.141 Z"
         style="fill-rule:nonzero"
         id="path1280" /><path
         d="M 0.789,0.002 C 0.774,0.012 0.757,0.021 0.74,0.026 0.723,0.032 0.705,0.035 0.687,0.035 0.668,0.035 0.65,0.032 0.633,0.026 0.616,0.021 0.599,0.012 0.584,0.002 c 0.012,-0.018 0.027,-0.031 0.045,-0.041 0.018,-0.009 0.037,-0.014 0.058,-0.014 0.02,0 0.039,0.005 0.057,0.014 0.018,0.01 0.033,0.023 0.045,0.041 z"
         style="fill:#f03a17;fill-rule:nonzero"
         id="path1282" /><path
         d="m 1.178,-0.21 c 0,0.014 -0.003,0.028 -0.009,0.041 -0.005,0.012 -0.013,0.023 -0.022,0.033 -0.009,0.009 -0.021,0.017 -0.033,0.022 -0.013,0.006 -0.027,0.009 -0.041,0.009 -0.015,0 -0.029,-0.003 -0.041,-0.009 C 1.019,-0.119 1.008,-0.127 0.998,-0.136 0.989,-0.146 0.981,-0.157 0.976,-0.169 0.97,-0.182 0.967,-0.196 0.967,-0.21 v -0.176 l 0.155,0.082 c 0.017,0.01 0.031,0.023 0.041,0.039 0.01,0.017 0.015,0.035 0.015,0.055 z M 0.406,-0.386 v 0.176 c 0,0.014 -0.003,0.028 -0.009,0.041 -0.005,0.012 -0.013,0.023 -0.022,0.033 -0.01,0.009 -0.021,0.017 -0.034,0.022 C 0.329,-0.108 0.315,-0.105 0.3,-0.105 0.286,-0.105 0.272,-0.108 0.259,-0.114 0.247,-0.119 0.236,-0.127 0.226,-0.136 0.217,-0.146 0.209,-0.157 0.204,-0.169 0.198,-0.182 0.195,-0.196 0.195,-0.21 0.195,-0.23 0.2,-0.248 0.21,-0.265 0.22,-0.281 0.234,-0.294 0.251,-0.304 Z"
         style="fill:#00bcf2;fill-rule:nonzero"
         id="path1284" /></g></g></svg>
