<?xml version="1.0" encoding="UTF-8" standalone="no"?>
<svg
   width="15.27"
   height="16.844999"
   viewBox="0 0 15.27 16.844999"
   version="1.1"
   xml:space="preserve"
   style="clip-rule:evenodd;fill-rule:evenodd;stroke-linejoin:round;stroke-miterlimit:2"
   id="svg20568"
   sodipodi:docname="emojis.svg"
   xmlns:inkscape="http://www.inkscape.org/namespaces/inkscape"
   xmlns:sodipodi="http://sodipodi.sourceforge.net/DTD/sodipodi-0.dtd"
   xmlns="http://www.w3.org/2000/svg"
   xmlns:svg="http://www.w3.org/2000/svg"><defs
     id="defs20572" /><sodipodi:namedview
     id="namedview20570"
     pagecolor="#505050"
     bordercolor="#eeeeee"
     borderopacity="1"
     inkscape:pageshadow="0"
     inkscape:pageopacity="0"
     inkscape:pagecheckerboard="0" /><g
     transform="matrix(0.24,0,0,0.24,-258.795,-658.9962)"
     id="g20566"><g
       transform="matrix(62.5,0,0,62.5,1070.5,2802.88)"
       id="g12806"><path
         d="m 1.143,-0.404 c 0,0.038 -0.005,0.076 -0.013,0.112 -0.008,0.037 -0.02,0.072 -0.036,0.106 -0.016,0.033 -0.036,0.065 -0.059,0.095 -0.023,0.029 -0.049,0.056 -0.078,0.08 0.004,0.008 0.009,0.017 0.014,0.027 0.005,0.009 0.01,0.019 0.015,0.029 0.005,0.011 0.009,0.021 0.012,0.031 0.003,0.01 0.004,0.02 0.004,0.029 C 1.002,0.12 1,0.133 0.994,0.146 0.989,0.159 0.981,0.17 0.971,0.179 0.962,0.189 0.951,0.197 0.938,0.202 0.925,0.208 0.912,0.21 0.897,0.21 0.879,0.21 0.864,0.207 0.852,0.2 0.839,0.194 0.828,0.185 0.819,0.174 0.809,0.164 0.801,0.151 0.794,0.138 0.787,0.124 0.781,0.11 0.774,0.097 L 0.77,0.087 C 0.748,0.093 0.725,0.098 0.702,0.101 0.68,0.104 0.657,0.105 0.634,0.105 0.611,0.105 0.588,0.104 0.565,0.101 0.543,0.098 0.52,0.093 0.498,0.087 L 0.494,0.096 C 0.487,0.109 0.481,0.123 0.474,0.137 0.467,0.15 0.459,0.163 0.449,0.174 0.44,0.184 0.429,0.193 0.416,0.2 0.403,0.207 0.388,0.21 0.371,0.21 0.356,0.21 0.343,0.208 0.33,0.202 0.317,0.197 0.306,0.189 0.296,0.179 0.287,0.17 0.279,0.159 0.273,0.146 0.268,0.133 0.265,0.119 0.265,0.105 0.265,0.096 0.267,0.086 0.27,0.076 0.273,0.066 0.277,0.056 0.282,0.046 0.287,0.035 0.292,0.025 0.297,0.016 0.302,0.006 0.307,-0.003 0.311,-0.011 0.281,-0.035 0.255,-0.062 0.232,-0.091 0.209,-0.121 0.189,-0.153 0.174,-0.186 0.158,-0.22 0.146,-0.255 0.137,-0.292 0.129,-0.328 0.125,-0.366 0.125,-0.404 c 0,-0.046 0.006,-0.091 0.018,-0.135 0.013,-0.043 0.03,-0.083 0.052,-0.121 0.022,-0.038 0.048,-0.072 0.079,-0.103 0.031,-0.031 0.066,-0.058 0.103,-0.08 0.038,-0.022 0.079,-0.039 0.122,-0.051 0.043,-0.012 0.088,-0.019 0.135,-0.019 0.046,0 0.091,0.007 0.135,0.019 0.043,0.012 0.083,0.029 0.121,0.051 0.038,0.022 0.072,0.049 0.103,0.08 0.031,0.031 0.058,0.065 0.08,0.103 0.022,0.038 0.039,0.078 0.051,0.121 0.012,0.044 0.019,0.089 0.019,0.135 z"
         style="fill-rule:nonzero"
         id="path12792" /><path
         d="m 0.897,-0.404 c 0,0.037 -0.007,0.071 -0.021,0.103 -0.014,0.032 -0.032,0.059 -0.056,0.083 -0.024,0.024 -0.052,0.043 -0.084,0.057 -0.032,0.013 -0.066,0.02 -0.102,0.02 -0.037,0 -0.071,-0.007 -0.103,-0.02 C 0.499,-0.175 0.472,-0.194 0.448,-0.218 0.424,-0.242 0.405,-0.269 0.391,-0.301 0.378,-0.333 0.371,-0.367 0.371,-0.404 c 0,-0.036 0.007,-0.07 0.02,-0.102 0.014,-0.032 0.033,-0.06 0.057,-0.084 0.024,-0.024 0.051,-0.042 0.083,-0.056 0.033,-0.014 0.067,-0.021 0.103,-0.021 0.036,0 0.07,0.007 0.102,0.021 0.032,0.014 0.06,0.032 0.084,0.056 0.024,0.024 0.042,0.052 0.056,0.084 0.014,0.032 0.021,0.066 0.021,0.102 z m -0.491,0 c 0,0.032 0.006,0.061 0.018,0.089 0.011,0.028 0.028,0.052 0.048,0.073 0.021,0.02 0.045,0.037 0.073,0.048 0.028,0.012 0.057,0.018 0.089,0.018 0.031,0 0.061,-0.006 0.089,-0.018 0.027,-0.011 0.051,-0.028 0.072,-0.048 0.021,-0.021 0.037,-0.045 0.049,-0.073 0.012,-0.028 0.018,-0.057 0.018,-0.089 0,-0.031 -0.006,-0.061 -0.018,-0.089 C 0.832,-0.52 0.816,-0.545 0.795,-0.565 0.774,-0.586 0.75,-0.602 0.723,-0.614 0.695,-0.626 0.665,-0.632 0.634,-0.632 c -0.032,0 -0.061,0.006 -0.089,0.018 -0.028,0.012 -0.052,0.028 -0.073,0.049 -0.02,0.02 -0.037,0.045 -0.048,0.072 -0.012,0.028 -0.018,0.058 -0.018,0.089 z"
         style="fill:#e5e5e5;fill-rule:nonzero"
         id="path12794" /><path
         d="m 0.651,-0.421 c 0.007,0 0.013,0.001 0.019,0.005 0.005,0.004 0.01,0.008 0.013,0.014 L 0.928,0.089 C 0.931,0.095 0.932,0.1 0.932,0.105 0.932,0.115 0.929,0.123 0.922,0.13 0.915,0.137 0.907,0.14 0.897,0.14 0.89,0.14 0.884,0.138 0.879,0.135 0.873,0.132 0.869,0.127 0.866,0.121 L 0.634,-0.343 0.402,0.121 C 0.399,0.127 0.395,0.132 0.389,0.135 0.383,0.138 0.377,0.14 0.371,0.14 0.361,0.14 0.353,0.137 0.346,0.13 0.339,0.123 0.335,0.115 0.335,0.105 0.335,0.1 0.337,0.095 0.339,0.089 l 0.246,-0.491 c 0.003,-0.006 0.007,-0.01 0.013,-0.014 0.006,-0.004 0.012,-0.005 0.018,-0.005 0.006,0 0.012,0.001 0.018,0.004 0.006,-0.003 0.012,-0.004 0.017,-0.004 z"
         style="fill:#757575;fill-rule:nonzero"
         id="path12796" /><path
         d="m 0.949,-0.694 -0.273,0.273 h 0.386 l 10e-4,0.017 v 0.018 H 0.676 l 0.273,0.273 C 0.941,-0.104 0.933,-0.096 0.924,-0.088 L 0.651,-0.361 V 0.025 H 0.634 0.616 V -0.361 L 0.343,-0.088 C 0.334,-0.096 0.326,-0.104 0.318,-0.113 L 0.591,-0.386 H 0.205 V -0.421 H 0.591 L 0.318,-0.694 c 0.008,-0.009 0.016,-0.017 0.025,-0.025 l 0.273,0.273 v -0.386 c 0.003,0 0.006,-0.001 0.009,-0.001 h 0.018 c 0.003,0 0.005,0.001 0.008,0.001 v 0.386 l 0.273,-0.273 c 0.009,0.008 0.017,0.016 0.025,0.025 z m -0.298,0.298 v -0.015 l -0.01,-0.01 H 0.626 l -0.01,0.01 v 0.015 l 0.01,0.01 h 0.015 z"
         style="fill:#cccccc;fill-rule:nonzero"
         id="path12798" /><path
         d="m 0.634,-0.842 c 0.04,0 0.079,0.005 0.116,0.015 0.038,0.011 0.073,0.025 0.105,0.045 0.033,0.019 0.062,0.041 0.089,0.068 0.027,0.027 0.05,0.056 0.069,0.089 0.019,0.033 0.034,0.067 0.044,0.105 0.011,0.037 0.016,0.076 0.016,0.116 0,0.041 -0.005,0.079 -0.016,0.117 C 1.047,-0.25 1.032,-0.215 1.013,-0.182 0.994,-0.15 0.971,-0.12 0.944,-0.094 0.917,-0.067 0.888,-0.044 0.855,-0.025 0.823,-0.006 0.788,0.009 0.75,0.02 0.713,0.03 0.674,0.035 0.634,0.035 0.593,0.035 0.555,0.03 0.517,0.02 0.48,0.009 0.445,-0.006 0.413,-0.025 0.38,-0.044 0.35,-0.067 0.324,-0.094 0.297,-0.12 0.274,-0.15 0.255,-0.182 0.236,-0.215 0.221,-0.25 0.211,-0.287 0.201,-0.325 0.195,-0.363 0.195,-0.404 c 0,-0.04 0.006,-0.079 0.016,-0.116 0.01,-0.038 0.025,-0.072 0.044,-0.105 0.019,-0.033 0.042,-0.062 0.069,-0.089 0.026,-0.027 0.056,-0.049 0.089,-0.068 0.032,-0.02 0.067,-0.034 0.104,-0.045 0.038,-0.01 0.076,-0.015 0.117,-0.015 z M 0.634,0 C 0.671,0 0.707,-0.005 0.741,-0.014 0.776,-0.024 0.808,-0.038 0.838,-0.055 0.867,-0.073 0.895,-0.094 0.919,-0.118 0.944,-0.143 0.965,-0.17 0.982,-0.2 1,-0.23 1.014,-0.262 1.023,-0.296 1.033,-0.331 1.038,-0.367 1.038,-0.404 1.038,-0.441 1.033,-0.477 1.023,-0.511 1.014,-0.545 1,-0.577 0.982,-0.607 0.965,-0.637 0.944,-0.665 0.919,-0.689 0.895,-0.713 0.867,-0.734 0.837,-0.752 0.807,-0.77 0.775,-0.783 0.741,-0.793 0.707,-0.802 0.671,-0.807 0.634,-0.807 c -0.037,0 -0.073,0.005 -0.107,0.014 -0.035,0.01 -0.067,0.023 -0.097,0.041 -0.03,0.018 -0.057,0.039 -0.081,0.063 -0.025,0.024 -0.046,0.052 -0.063,0.082 -0.018,0.03 -0.032,0.062 -0.041,0.096 -0.01,0.034 -0.015,0.07 -0.015,0.107 0,0.037 0.005,0.073 0.015,0.107 0.009,0.035 0.023,0.067 0.041,0.097 0.017,0.03 0.038,0.057 0.063,0.082 0.024,0.024 0.051,0.045 0.081,0.063 0.03,0.017 0.062,0.031 0.097,0.041 C 0.561,-0.005 0.597,0 0.634,0 Z m 0,-0.491 c 0.012,0 0.023,0.002 0.034,0.007 0.011,0.004 0.02,0.01 0.028,0.018 0.008,0.008 0.014,0.018 0.019,0.028 0.004,0.011 0.007,0.022 0.007,0.034 0,0.013 -0.003,0.024 -0.007,0.035 C 0.71,-0.359 0.704,-0.35 0.696,-0.342 0.688,-0.334 0.679,-0.327 0.668,-0.323 0.657,-0.318 0.646,-0.316 0.634,-0.316 0.621,-0.316 0.61,-0.318 0.599,-0.323 0.589,-0.327 0.58,-0.334 0.572,-0.342 0.564,-0.35 0.557,-0.359 0.553,-0.369 0.548,-0.38 0.546,-0.391 0.546,-0.404 c 0,-0.012 0.002,-0.023 0.007,-0.034 0.004,-0.01 0.011,-0.02 0.019,-0.028 C 0.58,-0.474 0.589,-0.48 0.6,-0.484 0.61,-0.489 0.622,-0.491 0.634,-0.491 Z"
         style="fill:#f7630c;fill-rule:nonzero"
         id="path12800" /><path
         d="m 0.687,-0.404 c 0,0.008 -0.002,0.015 -0.005,0.021 -0.002,0.006 -0.006,0.012 -0.011,0.017 -0.005,0.004 -0.01,0.008 -0.017,0.011 -0.006,0.003 -0.013,0.004 -0.02,0.004 -0.007,0 -0.014,-0.001 -0.02,-0.004 C 0.607,-0.358 0.602,-0.362 0.597,-0.367 0.592,-0.372 0.588,-0.377 0.585,-0.384 0.582,-0.39 0.581,-0.397 0.581,-0.404 c 0,-0.007 0.001,-0.014 0.004,-0.02 0.003,-0.006 0.007,-0.012 0.012,-0.017 0.005,-0.005 0.01,-0.009 0.017,-0.011 0.006,-0.003 0.013,-0.005 0.02,-0.005 0.007,0 0.014,0.002 0.02,0.005 0.006,0.002 0.012,0.006 0.017,0.011 0.005,0.005 0.009,0.011 0.011,0.017 0.003,0.006 0.005,0.013 0.005,0.02 z"
         style="fill:#f7b189;fill-rule:nonzero"
         id="path12802" /><path
         d="m 0.862,-0.737 h 0.105 v 0.017 c 0,0.008 -0.001,0.015 -0.004,0.021 -0.003,0.006 -0.006,0.012 -0.011,0.017 -0.005,0.004 -0.01,0.008 -0.017,0.011 -0.006,0.003 -0.013,0.004 -0.02,0.004 -0.008,0 -0.014,-0.001 -0.021,-0.004 C 0.888,-0.674 0.882,-0.678 0.877,-0.683 0.873,-0.688 0.869,-0.693 0.866,-0.699 0.863,-0.706 0.862,-0.713 0.862,-0.72 Z m -0.562,0 h 0.106 v 0.017 c 0,0.008 -0.002,0.015 -0.004,0.021 -0.003,0.006 -0.007,0.012 -0.012,0.017 -0.004,0.004 -0.01,0.008 -0.016,0.011 -0.007,0.003 -0.014,0.004 -0.021,0.004 -0.007,0 -0.014,-0.001 -0.02,-0.004 C 0.326,-0.674 0.321,-0.678 0.316,-0.683 0.311,-0.688 0.307,-0.693 0.304,-0.699 0.302,-0.706 0.3,-0.713 0.3,-0.72 Z m 0.562,0.596 h 0.105 v 0.018 c 0,0.007 -0.001,0.014 -0.004,0.021 C 0.96,-0.096 0.957,-0.09 0.952,-0.086 0.947,-0.081 0.942,-0.077 0.935,-0.074 0.929,-0.072 0.922,-0.07 0.915,-0.07 0.907,-0.07 0.901,-0.072 0.894,-0.074 0.888,-0.077 0.882,-0.081 0.877,-0.086 0.873,-0.091 0.869,-0.096 0.866,-0.103 0.863,-0.109 0.862,-0.116 0.862,-0.123 Z m -0.562,0 h 0.106 v 0.018 c 0,0.007 -0.002,0.014 -0.004,0.021 C 0.399,-0.096 0.395,-0.09 0.39,-0.086 0.386,-0.081 0.38,-0.077 0.374,-0.074 0.367,-0.072 0.36,-0.07 0.353,-0.07 0.346,-0.07 0.339,-0.072 0.333,-0.074 0.326,-0.077 0.321,-0.081 0.316,-0.086 0.311,-0.091 0.307,-0.096 0.304,-0.103 0.302,-0.109 0.3,-0.116 0.3,-0.123 Z m 0.281,-0.701 h 0.106 v 0.017 c 0,0.007 -0.002,0.014 -0.005,0.021 -0.002,0.006 -0.006,0.012 -0.011,0.016 -0.005,0.005 -0.011,0.009 -0.017,0.012 -0.006,0.003 -0.013,0.004 -0.02,0.004 -0.007,0 -0.014,-0.001 -0.02,-0.004 C 0.607,-0.779 0.602,-0.783 0.597,-0.788 0.592,-0.792 0.588,-0.798 0.585,-0.804 0.582,-0.811 0.581,-0.818 0.581,-0.825 Z m 0,0.842 h 0.106 v 0.018 c 0,0.007 -0.002,0.013 -0.005,0.02 C 0.68,0.044 0.676,0.05 0.671,0.055 0.666,0.06 0.66,0.063 0.654,0.066 0.648,0.069 0.641,0.07 0.634,0.07 0.627,0.07 0.62,0.069 0.614,0.066 0.607,0.063 0.602,0.06 0.597,0.055 0.592,0.05 0.588,0.044 0.585,0.038 0.582,0.031 0.581,0.025 0.581,0.018 Z M 0.16,-0.421 h 0.105 v 0.017 c 0,0.007 -0.001,0.014 -0.004,0.02 -0.003,0.007 -0.006,0.012 -0.011,0.017 -0.005,0.005 -0.01,0.009 -0.017,0.012 -0.006,0.003 -0.013,0.004 -0.02,0.004 -0.008,0 -0.015,-0.001 -0.021,-0.004 C 0.186,-0.358 0.18,-0.362 0.176,-0.366 0.171,-0.371 0.167,-0.377 0.164,-0.383 0.162,-0.389 0.16,-0.396 0.16,-0.404 Z m 0.842,0 h 0.105 v 0.017 c 0,0.007 -10e-4,0.014 -0.004,0.02 -0.002,0.007 -0.006,0.012 -0.011,0.017 -0.004,0.005 -0.01,0.009 -0.016,0.012 -0.007,0.003 -0.014,0.004 -0.021,0.004 -0.007,0 -0.014,-0.001 -0.021,-0.004 C 1.028,-0.358 1.023,-0.362 1.018,-0.366 1.013,-0.371 1.009,-0.377 1.007,-0.383 1.004,-0.389 1.002,-0.396 1.002,-0.404 Z"
         style="fill:#f2f2f2;fill-rule:nonzero"
         id="path12804" /></g></g></svg>
