<?xml version="1.0" encoding="UTF-8" standalone="no"?>
<svg
   width="16.844999"
   height="16.844999"
   viewBox="0 0 16.844999 16.844999"
   version="1.1"
   xml:space="preserve"
   style="clip-rule:evenodd;fill-rule:evenodd;stroke-linejoin:round;stroke-miterlimit:2"
   id="svg20568"
   sodipodi:docname="emojis.svg"
   xmlns:inkscape="http://www.inkscape.org/namespaces/inkscape"
   xmlns:sodipodi="http://sodipodi.sourceforge.net/DTD/sodipodi-0.dtd"
   xmlns="http://www.w3.org/2000/svg"
   xmlns:svg="http://www.w3.org/2000/svg"><defs
     id="defs20572" /><sodipodi:namedview
     id="namedview20570"
     pagecolor="#505050"
     bordercolor="#eeeeee"
     borderopacity="1"
     inkscape:pageshadow="0"
     inkscape:pageopacity="0"
     inkscape:pagecheckerboard="0" /><g
     transform="matrix(0.24,0,0,0.24,-311.1198,-658.9962)"
     id="g20566"><g
       transform="matrix(62.5,0,0,62.5,1288.52,2802.88)"
       id="g12876"><path
         d="m 1.248,-0.348 v 0.172 H 1.213 V 0.21 H 0.16 V -0.176 H 0.125 V -0.348 L 0.616,-0.77 v -0.143 h 0.281 v 0.036 h 0.205 l -0.123,0.122 0.123,0.123 H 0.917 Z"
         style="fill-rule:nonzero"
         id="path12858" /><path
         d="M 1.125,-0.316 V 0.14 H 0.967 L 0.687,0.028 0.476,0.14 H 0.406 L 0.335,0.066 0.265,0.14 H 0.23 V -0.316 H 0.195 l 0.492,-0.421 z"
         style="fill:#e81224;fill-rule:nonzero"
         id="path12860" /><path
         d="M 0.687,-0.737 0.406,-0.316 V 0.14 H 0.265 v -0.456 z m 0.28,0.421 V 0.14 H 0.897 L 0.827,0.099 v -0.277 c 0,-0.018 0,-0.034 0.002,-0.048 C 0.83,-0.24 0.831,-0.254 0.831,-0.269 0.831,-0.276 0.83,-0.284 0.83,-0.291 0.829,-0.299 0.828,-0.307 0.827,-0.316 0.824,-0.33 0.821,-0.343 0.818,-0.354 0.814,-0.365 0.81,-0.376 0.806,-0.387 0.802,-0.398 0.798,-0.408 0.793,-0.419 0.789,-0.431 0.784,-0.443 0.78,-0.457 L 0.687,-0.737 Z M 0.687,-0.737 V 0.099 H 0.546 v -0.415 l 0.02,-0.062 C 0.573,-0.397 0.58,-0.418 0.588,-0.442 0.596,-0.466 0.604,-0.491 0.613,-0.517 0.621,-0.542 0.63,-0.567 0.638,-0.592 0.646,-0.617 0.654,-0.64 0.661,-0.66 0.667,-0.68 0.673,-0.697 0.678,-0.711 0.682,-0.725 0.685,-0.734 0.687,-0.737 Z m 0.491,0.421 H 1.143 V 0.14 H 1.107 v -0.456 l -0.42,-0.421 z"
         style="fill:#f2f2f2;fill-rule:nonzero"
         id="path12862" /><path
         d="M 0.687,0.077 0.626,0.095 C 0.61,0.1 0.594,0.105 0.576,0.11 0.559,0.115 0.543,0.12 0.528,0.125 0.513,0.129 0.5,0.133 0.491,0.136 0.481,0.139 0.476,0.14 0.476,0.14 0.461,0.14 0.448,0.137 0.435,0.132 0.422,0.126 0.411,0.119 0.402,0.109 0.392,0.1 0.384,0.089 0.379,0.076 0.373,0.063 0.371,0.05 0.371,0.035 0.4,0.035 0.428,0.031 0.455,0.024 0.482,0.016 0.507,0.006 0.53,-0.008 c 0.023,-0.014 0.045,-0.03 0.064,-0.05 0.019,-0.019 0.035,-0.04 0.049,-0.063 0.014,-0.024 0.025,-0.049 0.032,-0.076 0.008,-0.027 0.012,-0.055 0.012,-0.084 0,0.029 0.003,0.057 0.011,0.084 0.007,0.027 0.018,0.052 0.032,0.076 0.014,0.023 0.03,0.044 0.049,0.063 0.02,0.02 0.041,0.036 0.064,0.05 C 0.866,0.006 0.891,0.016 0.918,0.024 0.945,0.031 0.973,0.035 1.002,0.035 1.002,0.05 1,0.063 0.994,0.076 0.989,0.089 0.981,0.1 0.971,0.109 0.962,0.119 0.951,0.126 0.938,0.132 0.925,0.137 0.912,0.14 0.897,0.14 0.897,0.14 0.892,0.139 0.882,0.136 0.873,0.133 0.86,0.129 0.845,0.125 0.83,0.12 0.814,0.115 0.797,0.11 0.779,0.105 0.763,0.1 0.747,0.095 Z M 0.406,-0.316 c 0,0.01 -0.002,0.019 -0.006,0.027 C 0.396,-0.28 0.391,-0.273 0.385,-0.266 0.379,-0.26 0.371,-0.255 0.363,-0.251 0.354,-0.247 0.345,-0.246 0.335,-0.246 0.326,-0.246 0.317,-0.247 0.308,-0.251 0.3,-0.255 0.292,-0.26 0.286,-0.266 0.28,-0.273 0.274,-0.28 0.271,-0.289 0.267,-0.297 0.265,-0.306 0.265,-0.316 Z m 0.281,0 c 0,0.01 -0.002,0.019 -0.006,0.027 -0.004,0.009 -0.009,0.016 -0.015,0.023 -0.007,0.006 -0.014,0.011 -0.022,0.015 -0.009,0.004 -0.018,0.005 -0.028,0.005 -0.01,0 -0.019,-0.001 -0.027,-0.005 C 0.58,-0.255 0.573,-0.26 0.567,-0.266 0.56,-0.273 0.555,-0.28 0.552,-0.289 0.548,-0.297 0.546,-0.306 0.546,-0.316 Z m 0.28,0 c 0,0.01 -0.002,0.019 -0.005,0.027 C 0.958,-0.28 0.953,-0.273 0.947,-0.266 0.94,-0.26 0.933,-0.255 0.924,-0.251 0.916,-0.247 0.907,-0.246 0.897,-0.246 0.887,-0.246 0.878,-0.247 0.87,-0.251 0.861,-0.255 0.854,-0.26 0.847,-0.266 0.841,-0.273 0.836,-0.28 0.832,-0.289 0.829,-0.297 0.827,-0.306 0.827,-0.316 Z m 0.211,0 v 0.07 C 1.168,-0.246 1.159,-0.247 1.15,-0.251 1.142,-0.255 1.135,-0.26 1.128,-0.266 1.122,-0.273 1.117,-0.28 1.113,-0.289 1.109,-0.297 1.107,-0.306 1.107,-0.316 Z"
         style="fill:#cccccc;fill-rule:nonzero"
         id="path12864" /><path
         d="m 0.546,-0.316 c 0,0.01 -0.002,0.019 -0.005,0.027 -0.004,0.009 -0.009,0.016 -0.015,0.023 -0.007,0.006 -0.014,0.011 -0.023,0.015 -0.008,0.004 -0.017,0.005 -0.027,0.005 -0.01,0 -0.019,-0.001 -0.027,-0.005 C 0.44,-0.255 0.433,-0.26 0.427,-0.266 0.42,-0.273 0.415,-0.28 0.411,-0.289 0.408,-0.297 0.406,-0.306 0.406,-0.316 Z m 0.561,0 c 0,0.01 -10e-4,0.019 -0.005,0.027 C 1.098,-0.28 1.094,-0.273 1.087,-0.266 1.081,-0.26 1.073,-0.255 1.065,-0.251 1.056,-0.247 1.047,-0.246 1.038,-0.246 1.028,-0.246 1.019,-0.247 1.01,-0.251 1.002,-0.255 0.994,-0.26 0.988,-0.266 0.982,-0.273 0.977,-0.28 0.973,-0.289 0.969,-0.297 0.967,-0.306 0.967,-0.316 Z m -0.28,0 c 0,0.01 -0.002,0.019 -0.006,0.027 C 0.818,-0.28 0.813,-0.273 0.806,-0.266 0.8,-0.26 0.793,-0.255 0.784,-0.251 0.776,-0.247 0.767,-0.246 0.757,-0.246 0.747,-0.246 0.738,-0.247 0.729,-0.251 0.721,-0.255 0.714,-0.26 0.707,-0.266 0.701,-0.273 0.696,-0.28 0.692,-0.289 0.688,-0.297 0.687,-0.306 0.687,-0.316 Z m -0.562,0 c 0,0.01 -0.002,0.019 -0.005,0.027 -0.004,0.009 -0.009,0.016 -0.015,0.023 -0.006,0.006 -0.014,0.011 -0.022,0.015 -0.009,0.004 -0.018,0.005 -0.028,0.005 v -0.07 z"
         style="fill:#af0d1a;fill-rule:nonzero"
         id="path12866" /><path
         d="m 0.687,-0.281 c 0,0.042 0.005,0.083 0.015,0.122 0.01,0.039 0.024,0.077 0.042,0.112 0.018,0.036 0.04,0.069 0.066,0.1 0.026,0.032 0.055,0.061 0.087,0.087 H 0.476 c 0.032,-0.026 0.06,-0.055 0.086,-0.087 0.027,-0.031 0.049,-0.064 0.067,-0.1 0.018,-0.035 0.032,-0.073 0.042,-0.112 0.01,-0.039 0.016,-0.08 0.016,-0.122 z"
         style="fill:#1f1f1f;fill-rule:nonzero"
         id="path12868" /><path
         d="m 0.932,-0.807 -0.053,0.052 0.053,0.053 H 0.792 L 0.81,-0.807 Z"
         style="fill:#00bcf2;fill-rule:nonzero"
         id="path12870" /><path
         d="m 0.792,-0.761 0.035,0.024 -0.035,0.035 z"
         style="fill:#006f94;fill-rule:nonzero"
         id="path12872" /><rect
         x="0.68699998"
         y="-0.84200001"
         width="0.14"
         height="0.105"
         style="fill:#69eaff;fill-rule:nonzero"
         id="rect12874" /></g></g></svg>
