<?xml version="1.0" encoding="UTF-8" standalone="no"?>
<svg
   width="16.844999"
   height="12.63"
   viewBox="0 0 16.844999 12.63"
   version="1.1"
   xml:space="preserve"
   style="clip-rule:evenodd;fill-rule:evenodd;stroke-linejoin:round;stroke-miterlimit:2"
   id="svg20568"
   sodipodi:docname="emojis.svg"
   xmlns:inkscape="http://www.inkscape.org/namespaces/inkscape"
   xmlns:sodipodi="http://sodipodi.sourceforge.net/DTD/sodipodi-0.dtd"
   xmlns="http://www.w3.org/2000/svg"
   xmlns:svg="http://www.w3.org/2000/svg"><defs
     id="defs20572" /><sodipodi:namedview
     id="namedview20570"
     pagecolor="#505050"
     bordercolor="#eeeeee"
     borderopacity="1"
     inkscape:pageshadow="0"
     inkscape:pageopacity="0"
     inkscape:pagecheckerboard="0" /><g
     transform="matrix(0.24,0,0,0.24,-392.9742,-663.2112)"
     id="g20566"><g
       transform="matrix(62.5,0,0,62.5,1629.58,2802.88)"
       id="g12950"><path
         d="M 0.709,-0.632 H 1.248 V 0.21 H 0.125 V 0.035 H 0.201 L 0.208,0.028 C 0.182,0.008 0.162,-0.017 0.147,-0.046 0.132,-0.075 0.125,-0.106 0.125,-0.14 c 0,-0.02 0.003,-0.039 0.008,-0.058 0.005,-0.019 0.013,-0.036 0.023,-0.052 0.01,-0.017 0.022,-0.032 0.036,-0.045 0.015,-0.013 0.031,-0.024 0.049,-0.034 l 0.098,-0.049 c 0.01,-0.005 0.02,-0.01 0.031,-0.014 0.012,-0.005 0.021,-0.011 0.029,-0.017 0.009,-0.006 0.016,-0.013 0.023,-0.021 0.007,-0.007 0.014,-0.015 0.021,-0.023 l 0.089,-0.088 c 0.013,-0.014 0.027,-0.026 0.039,-0.037 0.013,-0.011 0.026,-0.021 0.04,-0.029 0.013,-0.008 0.028,-0.014 0.044,-0.018 0.016,-0.005 0.034,-0.007 0.054,-0.007 z"
         style="fill-rule:nonzero"
         id="path12934" /><path
         d="M 1.178,0 1.158,0.036 1.178,0.07 V 0.105 L 1.15,0.13 H 0.29 L 0.23,0.105 C 0.243,0.093 0.255,0.08 0.267,0.068 0.279,0.055 0.291,0.042 0.304,0.03 0.316,0.017 0.329,0.005 0.343,-0.007 0.356,-0.019 0.37,-0.029 0.384,-0.039 h 0.761 z"
         style="fill:#0078d7;fill-rule:nonzero"
         id="path12936" /><rect
         x="0.19499999"
         y="0.105"
         width="0.98299998"
         height="0.035"
         style="fill:#e5e5e5;fill-rule:nonzero"
         id="rect12938" /><path
         d="M 0.581,0.07 0.651,0 c 0.001,-0.005 0.007,-0.009 0.017,-0.012 0.011,-0.004 0.024,-0.007 0.04,-0.009 0.016,-0.002 0.034,-0.003 0.053,-0.005 0.019,-0.001 0.037,-0.002 0.055,-0.002 0.018,-0.001 0.034,-0.001 0.047,-0.001 0.014,0 0.023,0 0.029,0 h 0.062 c 0.014,0 0.03,0 0.048,0 0.018,0 0.037,0.001 0.055,0.002 0.019,0.001 0.037,0.002 0.054,0.004 0.018,0.002 0.033,0.005 0.047,0.009 0,0 0,0 0,0.001 0.001,0 0.001,0 0.001,0 0.003,10e-4 0.007,0.002 0.012,0.004 0.005,0.003 0.008,0.005 0.008,0.008 L 1.178,0.07 Z"
         style="fill:#383838;fill-rule:nonzero"
         id="path12940" /><path
         d="M 0.709,-0.562 H 1.178 V -0.14 L 0.757,-0.047 C 0.739,-0.043 0.722,-0.038 0.705,-0.033 0.687,-0.028 0.67,-0.022 0.653,-0.018 0.635,-0.013 0.618,-0.009 0.6,-0.005 0.583,-0.002 0.565,0 0.546,0 H 0.335 C 0.328,-0.01 0.322,-0.021 0.316,-0.033 0.31,-0.045 0.305,-0.057 0.3,-0.07 0.296,-0.083 0.293,-0.096 0.29,-0.109 0.288,-0.122 0.287,-0.135 0.287,-0.147 0.287,-0.16 0.288,-0.173 0.29,-0.186 0.293,-0.2 0.296,-0.213 0.3,-0.226 0.305,-0.24 0.31,-0.252 0.316,-0.264 0.322,-0.277 0.328,-0.288 0.335,-0.298 0.353,-0.307 0.37,-0.316 0.388,-0.325 0.405,-0.335 0.423,-0.344 0.441,-0.351 0.445,-0.353 0.45,-0.355 0.455,-0.356 0.46,-0.357 0.465,-0.358 0.47,-0.36 c 0.011,-0.003 0.023,-0.009 0.037,-0.016 0.014,-0.007 0.026,-0.016 0.038,-0.025 0.012,-0.01 0.022,-0.021 0.03,-0.033 0.008,-0.012 0.012,-0.025 0.012,-0.038 0,-0.004 0,-0.007 -0.001,-0.01 C 0.585,-0.486 0.584,-0.489 0.581,-0.491 0.591,-0.501 0.6,-0.51 0.609,-0.519 0.618,-0.527 0.628,-0.534 0.638,-0.541 0.648,-0.547 0.659,-0.552 0.67,-0.556 0.682,-0.56 0.695,-0.562 0.709,-0.562 Z"
         style="fill:#f2f2f2;fill-rule:nonzero"
         id="path12942" /><path
         d="M 0.687,-0.14 H 1.178 V 0 H 0.546 Z M 0.335,0 C 0.316,0 0.298,-0.004 0.281,-0.011 0.264,-0.018 0.249,-0.028 0.236,-0.041 0.224,-0.054 0.214,-0.069 0.206,-0.086 0.199,-0.103 0.195,-0.121 0.195,-0.14 c 0,-0.022 0.004,-0.041 0.011,-0.057 0.006,-0.015 0.016,-0.028 0.027,-0.04 0.012,-0.011 0.025,-0.021 0.04,-0.029 0.016,-0.009 0.032,-0.017 0.048,-0.025 l 0.014,-0.007 z"
         style="fill:#3a96dd;fill-rule:nonzero"
         id="path12944" /><path
         d="m 0.441,-0.351 0.14,-0.14 h 0.316 l -0.14,0.14 z"
         style="fill:#31d2f7;fill-rule:nonzero"
         id="path12946" /><rect
         x="0.40599999"
         y="-0.14"
         width="0.07"
         height="0.035"
         style="fill:#ffb900;fill-rule:nonzero"
         id="rect12948" /></g></g></svg>
