<?xml version="1.0" encoding="UTF-8" standalone="no"?>
<svg
   width="16.844999"
   height="16.844999"
   viewBox="0 0 16.844999 16.844999"
   version="1.1"
   xml:space="preserve"
   style="clip-rule:evenodd;fill-rule:evenodd;stroke-linejoin:round;stroke-miterlimit:2"
   id="svg20568"
   sodipodi:docname="emojis.svg"
   xmlns:inkscape="http://www.inkscape.org/namespaces/inkscape"
   xmlns:sodipodi="http://sodipodi.sourceforge.net/DTD/sodipodi-0.dtd"
   xmlns="http://www.w3.org/2000/svg"
   xmlns:svg="http://www.w3.org/2000/svg"><defs
     id="defs20572" /><sodipodi:namedview
     id="namedview20570"
     pagecolor="#505050"
     bordercolor="#eeeeee"
     borderopacity="1"
     inkscape:pageshadow="0"
     inkscape:pageopacity="0"
     inkscape:pagecheckerboard="0" /><g
     transform="matrix(0.24,0,0,0.24,-434.1654,-658.9962)"
     id="g20566"><g
       transform="matrix(62.5,0,0,62.5,1801.21,2802.88)"
       id="g12988"><path
         d="m 1.248,-0.351 c 0,0.052 -0.007,0.101 -0.02,0.149 C 1.215,-0.154 1.196,-0.109 1.171,-0.068 1.147,-0.026 1.118,0.012 1.083,0.046 1.049,0.08 1.011,0.109 0.97,0.134 0.928,0.158 0.884,0.177 0.836,0.19 0.788,0.204 0.738,0.21 0.687,0.21 0.635,0.21 0.585,0.204 0.537,0.19 0.489,0.177 0.445,0.158 0.403,0.134 0.362,0.109 0.324,0.08 0.29,0.046 0.255,0.012 0.226,-0.026 0.202,-0.068 0.177,-0.109 0.158,-0.154 0.145,-0.202 0.132,-0.25 0.125,-0.299 0.125,-0.351 c 0,-0.052 0.007,-0.102 0.02,-0.149 0.013,-0.048 0.032,-0.093 0.057,-0.135 0.024,-0.041 0.053,-0.079 0.088,-0.113 0.034,-0.034 0.072,-0.064 0.113,-0.088 0.042,-0.024 0.086,-0.043 0.134,-0.057 0.048,-0.013 0.098,-0.02 0.15,-0.02 0.051,0 0.101,0.007 0.149,0.02 0.048,0.014 0.092,0.033 0.134,0.057 0.041,0.024 0.079,0.054 0.113,0.088 0.035,0.034 0.064,0.072 0.088,0.113 0.025,0.042 0.044,0.087 0.057,0.135 0.013,0.047 0.02,0.097 0.02,0.149 z"
         style="fill-rule:nonzero"
         id="path12970" /><path
         d="M 1.016,0.013 0.687,-0.316 0.357,0.013 C 0.331,-0.01 0.308,-0.036 0.288,-0.063 0.268,-0.091 0.251,-0.121 0.238,-0.152 0.224,-0.183 0.213,-0.215 0.206,-0.249 0.199,-0.282 0.195,-0.316 0.195,-0.351 c 0,-0.045 0.006,-0.089 0.018,-0.131 0.012,-0.042 0.028,-0.081 0.049,-0.117 0.022,-0.037 0.047,-0.07 0.077,-0.099 0.03,-0.03 0.063,-0.056 0.099,-0.077 0.037,-0.021 0.076,-0.038 0.118,-0.05 0.042,-0.011 0.085,-0.017 0.131,-0.017 0.045,0 0.088,0.006 0.13,0.017 0.042,0.012 0.081,0.029 0.118,0.05 0.036,0.021 0.069,0.047 0.099,0.077 0.03,0.029 0.055,0.062 0.077,0.099 0.021,0.036 0.037,0.075 0.049,0.117 0.012,0.042 0.018,0.086 0.018,0.131 0,0.035 -0.004,0.069 -0.011,0.102 -0.008,0.034 -0.018,0.066 -0.032,0.097 -0.014,0.031 -0.031,0.06 -0.051,0.088 -0.02,0.028 -0.043,0.054 -0.068,0.077 z"
         style="fill:#383838;fill-rule:nonzero"
         id="path12972" /><path
         d="M 0.476,-0.104 0.511,-0.07 0.396,0.045 C 0.386,0.037 0.377,0.03 0.367,0.022 0.357,0.014 0.348,0.005 0.339,-0.003 l 0.102,-0.101 c 0.002,-0.001 0.003,-0.001 0.004,-0.001 h 0.018 c 0.004,0 0.009,0 0.013,0.001 z m 0.456,0 0.101,0.101 C 1.024,0.006 1.015,0.014 1.006,0.022 0.996,0.03 0.986,0.037 0.977,0.045 L 0.862,-0.07 0.897,-0.104 c 0.006,0 0.011,-0.001 0.014,-0.001 h 0.014 0.004 c 0.001,0 0.002,0 0.003,0.001 z"
         style="fill:#cccccc;fill-rule:nonzero"
         id="path12974" /><path
         d="m 0.827,-0.702 c 0.019,0 0.037,0.004 0.054,0.011 0.017,0.007 0.032,0.017 0.045,0.03 0.012,0.013 0.022,0.027 0.03,0.045 0.007,0.017 0.011,0.035 0.011,0.054 0,0.059 0,0.118 0,0.176 0,0.058 0,0.117 0,0.176 0,0.004 0,0.009 -0.002,0.014 C 0.964,-0.191 0.962,-0.186 0.96,-0.181 0.958,-0.175 0.956,-0.17 0.954,-0.166 0.952,-0.161 0.95,-0.157 0.947,-0.153 0.935,-0.131 0.918,-0.114 0.898,-0.1 0.877,-0.086 0.855,-0.076 0.832,-0.068 0.808,-0.06 0.783,-0.055 0.758,-0.052 0.733,-0.048 0.709,-0.047 0.686,-0.047 0.664,-0.047 0.64,-0.048 0.614,-0.051 0.589,-0.054 0.564,-0.06 0.54,-0.068 0.516,-0.076 0.494,-0.086 0.474,-0.1 0.454,-0.114 0.437,-0.131 0.425,-0.153 0.423,-0.156 0.421,-0.161 0.419,-0.166 0.417,-0.17 0.415,-0.175 0.413,-0.181 0.411,-0.186 0.409,-0.191 0.408,-0.196 0.406,-0.201 0.406,-0.206 0.406,-0.21 v -0.352 c 0,-0.019 0.003,-0.037 0.011,-0.054 0.007,-0.018 0.017,-0.032 0.03,-0.045 0.012,-0.013 0.027,-0.023 0.044,-0.03 0.017,-0.007 0.035,-0.011 0.055,-0.011 z"
         style="fill:#e5e5e5;fill-rule:nonzero"
         id="path12976" /><rect
         x="0.47600001"
         y="-0.491"
         width="0.421"
         height="0.421"
         style="fill:#757575;fill-rule:nonzero"
         id="rect12978" /><path
         d="m 0.967,-0.21 c 0,0.029 -0.006,0.056 -0.017,0.081 C 0.939,-0.103 0.924,-0.081 0.905,-0.062 0.886,-0.043 0.864,-0.028 0.839,-0.017 0.813,-0.006 0.786,0 0.757,0 H 0.616 C 0.587,0 0.56,-0.006 0.534,-0.017 0.509,-0.028 0.487,-0.043 0.468,-0.062 0.448,-0.081 0.433,-0.103 0.422,-0.129 0.411,-0.154 0.406,-0.181 0.406,-0.21 c 0.012,0.015 0.027,0.029 0.043,0.043 0.016,0.013 0.033,0.024 0.051,0.033 0.017,0.009 0.036,0.016 0.056,0.021 0.02,0.005 0.04,0.008 0.06,0.008 h 0.141 c 0.025,0 0.05,-0.004 0.075,-0.012 0.024,-0.007 0.047,-0.018 0.068,-0.032 l 0.013,-0.01 C 0.917,-0.161 0.921,-0.164 0.924,-0.167 0.931,-0.174 0.939,-0.181 0.946,-0.188 0.953,-0.196 0.96,-0.203 0.967,-0.21 Z"
         style="fill:#f03a17;fill-rule:nonzero"
         id="path12980" /><path
         d="m 0.897,-0.457 c 0,0.03 -0.006,0.057 -0.017,0.083 -0.011,0.025 -0.026,0.048 -0.045,0.067 -0.019,0.019 -0.041,0.034 -0.067,0.045 -0.025,0.011 -0.053,0.016 -0.082,0.016 -0.029,0 -0.057,-0.005 -0.082,-0.016 C 0.578,-0.273 0.556,-0.288 0.537,-0.307 0.518,-0.326 0.503,-0.349 0.492,-0.374 0.481,-0.4 0.476,-0.427 0.476,-0.457 v -0.105 l 0.068,-0.043 h 0.289 l 0.064,0.043 z"
         style="fill:#31d2f7;fill-rule:nonzero"
         id="path12982" /><path
         d="m 0.511,-0.632 h 0.351 c 0.01,0 0.018,0.004 0.025,0.01 0.007,0.007 0.01,0.016 0.01,0.025 v 0.035 H 0.476 v -0.035 c 0,-0.009 0.003,-0.018 0.01,-0.025 0.007,-0.006 0.015,-0.01 0.025,-0.01 z"
         style="fill-rule:nonzero"
         id="path12984" /><path
         d="m 0.792,-0.21 h 0.07 v 0.034 c 0,0.01 -0.004,0.018 -0.01,0.025 -0.007,0.007 -0.016,0.01 -0.025,0.01 -0.01,0 -0.018,-0.003 -0.025,-0.01 -0.007,-0.007 -0.01,-0.015 -0.01,-0.025 z m -0.281,0 h 0.07 v 0.034 c 0,0.01 -0.003,0.018 -0.01,0.025 -0.007,0.007 -0.015,0.01 -0.025,0.01 -0.01,0 -0.018,-0.003 -0.025,-0.01 -0.006,-0.007 -0.01,-0.015 -0.01,-0.025 z"
         style="fill:#fce100;fill-rule:nonzero"
         id="path12986" /></g></g></svg>
