<?xml version="1.0" encoding="UTF-8" standalone="no"?>
<svg
   width="16.844999"
   height="12.63"
   viewBox="0 0 16.844999 12.63"
   version="1.1"
   xml:space="preserve"
   style="clip-rule:evenodd;fill-rule:evenodd;stroke-linejoin:round;stroke-miterlimit:2"
   id="svg20568"
   sodipodi:docname="emojis.svg"
   xmlns:inkscape="http://www.inkscape.org/namespaces/inkscape"
   xmlns:sodipodi="http://sodipodi.sourceforge.net/DTD/sodipodi-0.dtd"
   xmlns="http://www.w3.org/2000/svg"
   xmlns:svg="http://www.w3.org/2000/svg"><defs
     id="defs20572" /><sodipodi:namedview
     id="namedview20570"
     pagecolor="#505050"
     bordercolor="#eeeeee"
     borderopacity="1"
     inkscape:pageshadow="0"
     inkscape:pageopacity="0"
     inkscape:pagecheckerboard="0" /><g
     transform="matrix(0.24,0,0,0.24,-372.3798,-663.2112)"
     id="g20566"><g
       transform="matrix(62.5,0,0,62.5,1543.77,2802.88)"
       id="g12932"><path
         d="M 1.248,-0.632 V 0.21 H 0.125 V 0.035 H 0.201 L 0.204,0.033 C 0.179,0.014 0.16,-0.009 0.146,-0.035 0.132,-0.06 0.125,-0.089 0.125,-0.121 c 0,-0.013 0.001,-0.026 0.003,-0.038 0.003,-0.011 0.006,-0.023 0.011,-0.033 0.004,-0.011 0.01,-0.021 0.017,-0.031 0.006,-0.01 0.014,-0.02 0.023,-0.03 0.013,-0.016 0.027,-0.031 0.04,-0.045 0.014,-0.015 0.028,-0.029 0.043,-0.043 0.01,-0.009 0.021,-0.018 0.031,-0.026 0.01,-0.008 0.02,-0.017 0.03,-0.027 0.012,-0.011 0.023,-0.023 0.035,-0.036 0.011,-0.012 0.023,-0.024 0.036,-0.035 0.052,-0.044 0.109,-0.077 0.169,-0.099 0.061,-0.022 0.125,-0.033 0.194,-0.033 0.014,-0.008 0.028,-0.014 0.042,-0.019 0.014,-0.005 0.029,-0.008 0.043,-0.011 0.015,-0.002 0.029,-0.004 0.044,-0.004 0.016,-0.001 0.031,-0.001 0.047,-0.001 z"
         style="fill-rule:nonzero"
         id="path12916" /><path
         d="m 1.115,-0.219 c 0,0.015 0.002,0.032 0.006,0.051 0.004,0.018 0.008,0.036 0.014,0.055 0.007,0.018 0.013,0.037 0.02,0.054 L 1.178,0 C 1.175,0.006 1.168,0.012 1.157,0.016 1.145,0.021 1.131,0.025 1.114,0.028 1.097,0.031 1.077,0.034 1.056,0.037 1.034,0.039 1.012,0.041 0.989,0.042 0.966,0.044 0.943,0.045 0.921,0.046 0.898,0.047 0.877,0.048 0.857,0.048 0.837,0.049 0.82,0.049 0.805,0.049 c -0.015,0 -0.027,0 -0.034,0 C 0.719,0.049 0.668,0.047 0.617,0.043 0.567,0.04 0.516,0.034 0.466,0.026 c -0.001,0 -0.001,0 -0.002,0 C 0.464,0.025 0.463,0.025 0.462,0.025 0.448,0.023 0.433,0.02 0.419,0.018 0.404,0.015 0.39,0.013 0.375,0.009 0.366,0.007 0.356,0.005 0.347,0.003 0.338,0.001 0.328,0 0.318,0 0.302,0 0.286,-0.003 0.271,-0.01 0.256,-0.016 0.243,-0.025 0.231,-0.036 0.22,-0.048 0.211,-0.061 0.204,-0.076 0.198,-0.092 0.195,-0.107 0.195,-0.124 0.195,-0.142 0.198,-0.158 0.204,-0.171 0.21,-0.184 0.219,-0.197 0.23,-0.21 0.275,-0.263 0.324,-0.311 0.376,-0.354 0.428,-0.398 0.484,-0.435 0.543,-0.465 0.602,-0.496 0.664,-0.52 0.729,-0.536 0.794,-0.553 0.862,-0.562 0.933,-0.562 h 0.245 v 0.141 c -0.004,0.002 -0.008,0.006 -0.012,0.012 -0.005,0.006 -0.009,0.014 -0.013,0.023 -0.004,0.009 -0.007,0.019 -0.011,0.03 -0.003,0.011 -0.007,0.021 -0.009,0.031 -0.003,0.01 -0.006,0.02 -0.008,0.028 -0.002,0.009 -0.003,0.015 -0.004,0.02 -0.002,0.009 -0.003,0.019 -0.004,0.028 -0.002,0.01 -0.002,0.02 -0.002,0.03 z"
         style="fill:#3a96dd;fill-rule:nonzero"
         id="path12918" /><path
         d="M 0.371,-0.351 C 0.395,-0.38 0.422,-0.406 0.45,-0.43 0.479,-0.454 0.51,-0.474 0.543,-0.491 0.575,-0.508 0.61,-0.521 0.646,-0.53 c 0.036,-0.009 0.073,-0.014 0.111,-0.014 -0.024,0.029 -0.051,0.055 -0.08,0.079 -0.028,0.024 -0.059,0.044 -0.092,0.061 -0.033,0.017 -0.067,0.03 -0.103,0.039 -0.036,0.009 -0.073,0.014 -0.111,0.014 z"
         style="fill:#31d2f7;fill-rule:nonzero"
         id="path12920" /><path
         d="M 1.178,0 1.158,0.036 1.178,0.07 V 0.105 L 1.157,0.13 H 0.251 L 0.23,0.105 0.3,0.035 C 0.306,0.029 0.312,0.023 0.317,0.017 0.323,0.01 0.329,0.005 0.335,0 0.339,-0.003 0.344,-0.005 0.349,-0.008 0.354,-0.011 0.36,-0.014 0.366,-0.016 L 0.399,-0.03 h 0.744 z"
         style="fill:#0078d7;fill-rule:nonzero"
         id="path12922" /><rect
         x="0.19499999"
         y="0.105"
         width="0.98299998"
         height="0.035"
         style="fill:#e5e5e5;fill-rule:nonzero"
         id="rect12924" /><rect
         x="0.266"
         y="-0.14"
         width="0.07"
         height="0.035"
         style="fill:#ffb900;fill-rule:nonzero"
         id="rect12926" /><path
         d="M 1.178,-0.421 V 0 L 1.153,0.061 0.819,0.02 C 0.785,0.016 0.751,0.011 0.717,0.006 0.683,0.001 0.649,-0.001 0.615,-0.001 L 0.546,0 h -0.21 c 0.053,-0.063 0.111,-0.121 0.174,-0.173 0.063,-0.052 0.13,-0.096 0.201,-0.133 0.071,-0.036 0.146,-0.065 0.224,-0.085 0.079,-0.02 0.16,-0.03 0.243,-0.03 z"
         style="fill:#f2f2f2;fill-rule:nonzero"
         id="path12928" /><path
         d="M 0.581,0.07 0.651,0 h 0.527 v 0.07 z"
         style="fill:#383838;fill-rule:nonzero"
         id="path12930" /></g></g></svg>
