<?xml version="1.0" encoding="UTF-8" standalone="no"?>
<svg
   width="16.844999"
   height="16.305"
   viewBox="0 0 16.844999 16.305"
   version="1.1"
   xml:space="preserve"
   style="clip-rule:evenodd;fill-rule:evenodd;stroke-linejoin:round;stroke-miterlimit:2"
   id="svg20568"
   sodipodi:docname="emojis.svg"
   xmlns:inkscape="http://www.inkscape.org/namespaces/inkscape"
   xmlns:sodipodi="http://sodipodi.sourceforge.net/DTD/sodipodi-0.dtd"
   xmlns="http://www.w3.org/2000/svg"
   xmlns:svg="http://www.w3.org/2000/svg"><defs
     id="defs20572" /><sodipodi:namedview
     id="namedview20570"
     pagecolor="#505050"
     bordercolor="#eeeeee"
     borderopacity="1"
     inkscape:pageshadow="0"
     inkscape:pageopacity="0"
     inkscape:pagecheckerboard="0" /><g
     transform="matrix(0.24,0,0,0.24,-413.571,-659.5362)"
     id="g20566"><g
       transform="matrix(62.5,0,0,62.5,1715.4,2802.88)"
       id="g12968"><path
         d="M 0.294,0.21 H 0.125 V 0.076 L 0.361,-0.16 C 0.353,-0.173 0.347,-0.186 0.342,-0.201 0.338,-0.215 0.335,-0.23 0.335,-0.246 v -0.351 c 0,-0.038 0.008,-0.074 0.023,-0.109 0.014,-0.034 0.035,-0.064 0.06,-0.089 0.025,-0.025 0.055,-0.045 0.089,-0.06 0.034,-0.015 0.07,-0.022 0.109,-0.022 h 0.141 c 0.038,0 0.075,0.007 0.109,0.022 0.034,0.015 0.064,0.035 0.089,0.06 0.025,0.025 0.046,0.055 0.06,0.089 0.015,0.035 0.023,0.071 0.023,0.109 v 0.351 c 0,0.016 -0.003,0.031 -0.007,0.045 -0.005,0.015 -0.011,0.028 -0.019,0.041 0.039,0.039 0.078,0.079 0.117,0.119 0.039,0.04 0.078,0.079 0.119,0.117 V 0.21 H 1.078 L 1.043,0.175 H 0.33 Z"
         style="fill-rule:nonzero"
         id="path12952" /><path
         d="m 0.967,-0.597 v 0.208 c 0,0.015 -0.001,0.031 -0.004,0.045 -0.003,0.015 -0.007,0.03 -0.012,0.045 -0.021,0.067 -0.054,0.117 -0.099,0.152 -0.044,0.034 -0.102,0.051 -0.173,0.051 -0.033,0 -0.063,-0.005 -0.09,-0.013 C 0.562,-0.118 0.538,-0.131 0.517,-0.147 0.496,-0.164 0.478,-0.184 0.462,-0.208 0.447,-0.233 0.434,-0.26 0.424,-0.291 0.418,-0.306 0.414,-0.323 0.411,-0.339 0.407,-0.356 0.406,-0.372 0.406,-0.389 v -0.208 c 0,-0.029 0.005,-0.056 0.016,-0.081 0.011,-0.026 0.026,-0.048 0.046,-0.067 0.019,-0.019 0.041,-0.034 0.066,-0.046 0.026,-0.011 0.053,-0.016 0.082,-0.016 h 0.141 c 0.029,0 0.056,0.005 0.082,0.016 0.025,0.012 0.047,0.027 0.067,0.046 0.019,0.019 0.034,0.041 0.045,0.067 0.011,0.025 0.016,0.052 0.016,0.081 z"
         style="fill:#e5e5e5;fill-rule:nonzero"
         id="path12954" /><path
         d="m 0.476,-0.597 c 0,-0.024 0.005,-0.047 0.014,-0.068 0.009,-0.021 0.021,-0.04 0.037,-0.056 0.016,-0.016 0.035,-0.028 0.056,-0.037 0.021,-0.009 0.044,-0.014 0.068,-0.014 h 0.071 c 0.024,0 0.046,0.005 0.068,0.014 0.021,0.009 0.04,0.022 0.055,0.038 0.016,0.015 0.029,0.034 0.038,0.055 0.009,0.022 0.014,0.044 0.014,0.068 V -0.21 L 0.722,-0.091 H 0.651 L 0.476,-0.21 Z"
         style="fill:#f2f2f2;fill-rule:nonzero"
         id="path12956" /><path
         d="M 1.177,0.105 V 0.14 H 1.107 L 0.861,-0.105 V -0.176 H 0.896 Z M 0.476,-0.176 h 0.035 v 0.071 L 0.265,0.14 H 0.195 V 0.105 Z"
         style="fill:#cccccc;fill-rule:nonzero"
         id="path12958" /><path
         d="M 1.037,0.035 1.072,0.07 V 0.105 H 0.3 V 0.07 L 0.335,0.035 Z M 0.932,-0.07 v 0.034 H 0.44 V -0.07 L 0.476,-0.105 H 0.897 Z M 0.651,-0.351 v 0.07 H 0.616 v -0.07 z m 0.105,0 v 0.07 H 0.722 v -0.07 z"
         style="fill:#757575;fill-rule:nonzero"
         id="path12960" /><path
         d="m 0.687,-0.141 c 0.038,0 0.075,-0.007 0.109,-0.022 0.034,-0.014 0.064,-0.034 0.089,-0.06 0.026,-0.025 0.046,-0.055 0.06,-0.089 0.015,-0.034 0.022,-0.071 0.022,-0.109 v 0.175 c 0,0.015 -0.003,0.028 -0.01,0.039 -0.006,0.011 -0.015,0.021 -0.025,0.031 L 0.827,-0.07 0.806,-0.048 C 0.79,-0.033 0.772,-0.022 0.751,-0.013 0.729,-0.004 0.708,0 0.687,0 0.664,0 0.643,-0.004 0.622,-0.013 0.602,-0.021 0.583,-0.033 0.567,-0.048 L 0.546,-0.07 0.441,-0.176 C 0.431,-0.186 0.422,-0.197 0.416,-0.207 0.409,-0.217 0.406,-0.23 0.406,-0.246 v -0.175 c 0,0.038 0.007,0.075 0.022,0.109 0.014,0.034 0.034,0.064 0.06,0.089 0.025,0.026 0.055,0.046 0.089,0.06 0.034,0.015 0.071,0.022 0.11,0.022 z"
         style="fill:#16c60c;fill-rule:nonzero"
         id="path12962" /><path
         d="m 0.546,-0.351 c 0.01,0 0.018,0.003 0.025,0.01 0.007,0.007 0.01,0.015 0.01,0.025 0,0.01 -0.003,0.018 -0.01,0.025 -0.007,0.007 -0.015,0.01 -0.025,0.01 -0.01,0 -0.018,-0.003 -0.025,-0.01 -0.006,-0.007 -0.01,-0.015 -0.01,-0.025 0,-0.009 0.004,-0.018 0.01,-0.025 0.007,-0.007 0.015,-0.01 0.025,-0.01 z m 0.281,0 c 0.009,0 0.018,0.003 0.025,0.01 0.006,0.007 0.01,0.015 0.01,0.025 0,0.01 -0.004,0.018 -0.01,0.025 -0.007,0.007 -0.016,0.01 -0.025,0.01 -0.01,0 -0.018,-0.003 -0.025,-0.01 -0.007,-0.007 -0.01,-0.015 -0.01,-0.025 0,-0.009 0.003,-0.018 0.01,-0.025 0.007,-0.007 0.015,-0.01 0.025,-0.01 z"
         style="fill:#ffb900;fill-rule:nonzero"
         id="path12964" /><path
         d="m 0.721,-0.632 h 0.14 v 0.035 C 0.844,-0.575 0.823,-0.558 0.799,-0.545 0.776,-0.533 0.75,-0.526 0.721,-0.526 Z m -0.21,0.035 v -0.035 h 0.14 v 0.106 c -0.028,0 -0.054,-0.007 -0.078,-0.019 -0.024,-0.013 -0.045,-0.03 -0.062,-0.052 z"
         style="fill:#31d2f7;fill-rule:nonzero"
         id="path12966" /></g></g></svg>
