<?xml version="1.0" encoding="UTF-8" standalone="no"?>
<svg
   width="16.844999"
   height="16.844999"
   viewBox="0 0 16.844999 16.844999"
   version="1.1"
   xml:space="preserve"
   style="clip-rule:evenodd;fill-rule:evenodd;stroke-linejoin:round;stroke-miterlimit:2"
   id="svg20568"
   sodipodi:docname="emojis.svg"
   xmlns:inkscape="http://www.inkscape.org/namespaces/inkscape"
   xmlns:sodipodi="http://sodipodi.sourceforge.net/DTD/sodipodi-0.dtd"
   xmlns="http://www.w3.org/2000/svg"
   xmlns:svg="http://www.w3.org/2000/svg"><defs
     id="defs20572" /><sodipodi:namedview
     id="namedview20570"
     pagecolor="#505050"
     bordercolor="#eeeeee"
     borderopacity="1"
     inkscape:pageshadow="0"
     inkscape:pageopacity="0"
     inkscape:pagecheckerboard="0" /><g
     transform="matrix(0.24,0,0,0.24,-475.3566,-658.9962)"
     id="g20566"><g
       transform="matrix(62.5,0,0,62.5,1972.84,2802.88)"
       id="g13022"><path
         d="m 0.792,-0.913 v 0.036 h 0.105 v 0.046 c 0.017,0.007 0.032,0.015 0.047,0.024 0.015,0.01 0.028,0.021 0.04,0.035 h 0.229 v 0.316 H 1.178 v 0.035 h 0.07 v 0.626 0 0.005 H 1.078 L 1.043,0.175 H 0.33 L 0.294,0.21 H 0.125 V 0.076 L 0.362,-0.161 C 0.344,-0.2 0.335,-0.239 0.335,-0.281 v -0.351 c 0,-0.022 0.004,-0.044 0.01,-0.065 0.007,-0.02 0.017,-0.039 0.029,-0.056 0.012,-0.018 0.027,-0.033 0.044,-0.046 0.017,-0.013 0.036,-0.024 0.058,-0.032 v -0.046 h 0.105 v -0.036 z"
         style="fill-rule:nonzero"
         id="path13006" /><path
         d="m 0.967,-0.351 h 0.211 v 0.316 H 1.155 L 0.94,-0.237 Z m -0.494,0.179 c 0.007,0.004 0.013,0.009 0.019,0.015 0.006,0.006 0.013,0.011 0.019,0.016 v 0.036 L 0.265,0.14 H 0.195 V 0.105 Z m 0.389,0.031 C 0.868,-0.146 0.874,-0.152 0.88,-0.157 0.886,-0.163 0.892,-0.168 0.9,-0.172 L 1.177,0.105 V 0.141 H 1.107 L 0.862,-0.105 Z"
         style="fill:#cccccc;fill-rule:nonzero"
         id="path13008" /><path
         d="m 0.967,-0.632 v 0.351 c 0,0.003 0,0.006 -0.001,0.009 C 0.965,-0.269 0.965,-0.266 0.964,-0.264 0.959,-0.246 0.951,-0.228 0.939,-0.211 0.928,-0.194 0.914,-0.18 0.897,-0.17 H 0.476 C 0.468,-0.174 0.46,-0.181 0.451,-0.189 0.443,-0.198 0.436,-0.208 0.429,-0.218 0.422,-0.229 0.416,-0.239 0.412,-0.25 0.408,-0.262 0.406,-0.272 0.406,-0.281 v -0.351 c 0,-0.014 0.002,-0.029 0.007,-0.043 C 0.417,-0.688 0.424,-0.701 0.432,-0.713 0.44,-0.725 0.45,-0.735 0.462,-0.744 0.473,-0.753 0.486,-0.76 0.5,-0.765 0.507,-0.767 0.515,-0.769 0.523,-0.769 0.531,-0.77 0.538,-0.771 0.546,-0.772 l 0.105,-0.02 v -0.05 h 0.071 v 0.05 l 0.105,0.02 c 0.007,0.001 0.015,0.002 0.023,0.003 0.007,0 0.015,0.002 0.023,0.004 0.014,0.005 0.026,0.012 0.038,0.021 0.012,0.009 0.022,0.019 0.03,0.031 0.008,0.011 0.015,0.024 0.019,0.038 0.005,0.014 0.007,0.029 0.007,0.043 z m 0.07,0 c 0.005,-0.009 0.012,-0.016 0.022,-0.02 0.011,-0.004 0.02,-0.006 0.03,-0.006 0.01,0 0.02,0.002 0.03,0.007 0.01,0.004 0.018,0.011 0.024,0.019 v 0.106 H 1.107 L 1.089,-0.518 1.072,-0.526 H 1.037 Z"
         style="fill:#e5e5e5;fill-rule:nonzero"
         id="path13010" /><path
         d="M 0.862,-0.141 H 0.511 L 0.476,-0.17 V -0.562 H 0.897 V -0.17 Z M 0.335,0.035 H 1.037 L 1.072,0.07 V 0.105 H 0.3 V 0.07 Z m 0.597,-0.07 H 0.441 V -0.07 l 0.035,-0.035 h 0.421 l 0.035,0.035 z m 0.004,-0.172 c 0.006,-0.006 0.01,-0.014 0.014,-0.021 0.004,-0.008 0.008,-0.016 0.011,-0.024 l 0.217,0.217 v 0.07 z M 1.107,-0.526 V -0.21 H 1.072 V -0.526 Z M 0.827,-0.772 H 0.546 v -0.035 h 0.281 z"
         style="fill:#757575;fill-rule:nonzero"
         id="path13012" /><path
         d="m 0.476,-0.632 c 0.013,-0.006 0.028,-0.012 0.045,-0.016 0.016,-0.005 0.034,-0.008 0.052,-0.011 0.018,-0.002 0.036,-0.004 0.054,-0.005 0.018,-0.001 0.034,-0.002 0.049,-0.002 0.017,0 0.035,0.001 0.054,0.002 0.02,0.001 0.039,0.003 0.058,0.006 0.019,0.002 0.038,0.006 0.057,0.01 0.018,0.005 0.036,0.01 0.052,0.016 v 0.07 c 0,0.029 -0.006,0.057 -0.017,0.082 -0.011,0.026 -0.026,0.048 -0.045,0.067 -0.019,0.019 -0.041,0.034 -0.067,0.045 -0.025,0.011 -0.053,0.017 -0.081,0.017 -0.029,0 -0.057,-0.006 -0.082,-0.017 C 0.579,-0.379 0.557,-0.394 0.538,-0.413 0.518,-0.432 0.503,-0.454 0.492,-0.48 0.481,-0.505 0.476,-0.533 0.476,-0.562 Z"
         style="fill:#31d2f7;fill-rule:nonzero"
         id="path13014" /><path
         d="m 0.511,-0.702 h 0.351 c 0.01,0 0.018,0.003 0.025,0.01 0.007,0.007 0.01,0.015 0.01,0.025 v 0.035 H 0.476 v -0.035 c 0,-0.009 0.003,-0.018 0.01,-0.025 0.007,-0.007 0.015,-0.01 0.025,-0.01 z"
         style="fill-rule:nonzero"
         id="path13016" /><path
         d="m 0.756,-0.176 c 0.015,0 0.03,-0.001 0.045,-0.004 0.016,-0.003 0.03,-0.007 0.045,-0.012 0.014,-0.005 0.028,-0.012 0.042,-0.019 0.013,-0.008 0.025,-0.017 0.036,-0.027 0.008,-0.007 0.015,-0.014 0.022,-0.021 0.007,-0.007 0.014,-0.014 0.021,-0.022 0,0.03 -0.005,0.057 -0.016,0.083 C 0.94,-0.173 0.925,-0.151 0.906,-0.132 0.886,-0.113 0.864,-0.098 0.839,-0.087 0.813,-0.076 0.786,-0.07 0.756,-0.07 H 0.616 C 0.587,-0.07 0.56,-0.076 0.534,-0.087 0.509,-0.098 0.487,-0.113 0.468,-0.132 0.448,-0.151 0.433,-0.173 0.422,-0.199 0.411,-0.225 0.406,-0.252 0.406,-0.281 c 0.012,0.016 0.027,0.03 0.043,0.043 0.016,0.013 0.033,0.024 0.051,0.033 0.017,0.01 0.036,0.017 0.056,0.022 0.02,0.005 0.04,0.007 0.06,0.007 z m 0.281,-0.526 h 0.106 v 0.07 H 1.037 Z"
         style="fill:#16c60c;fill-rule:nonzero"
         id="path13018" /><path
         d="m 0.827,-0.316 c 0.009,0 0.018,0.004 0.025,0.01 0.006,0.007 0.01,0.015 0.01,0.025 0,0.01 -0.004,0.018 -0.011,0.025 -0.007,0.007 -0.015,0.01 -0.024,0.01 -0.01,0 -0.018,-0.003 -0.025,-0.01 -0.007,-0.007 -0.01,-0.015 -0.01,-0.025 0,-0.009 0.003,-0.017 0.01,-0.024 0.007,-0.007 0.015,-0.011 0.025,-0.011 z m -0.281,0 c 0.01,0 0.018,0.004 0.025,0.01 0.007,0.007 0.01,0.015 0.01,0.025 0,0.01 -0.003,0.018 -0.01,0.025 -0.007,0.007 -0.016,0.01 -0.025,0.01 -0.01,0 -0.018,-0.003 -0.025,-0.01 -0.006,-0.007 -0.01,-0.015 -0.01,-0.025 0,-0.009 0.004,-0.017 0.01,-0.024 0.007,-0.007 0.015,-0.011 0.025,-0.011 z"
         style="fill:#fce100;fill-rule:nonzero"
         id="path13020" /></g></g></svg>
