<?xml version="1.0" encoding="UTF-8" standalone="no"?>
<svg
   width="16.844999"
   height="12.63"
   viewBox="0 0 16.844999 12.63"
   version="1.1"
   xml:space="preserve"
   style="clip-rule:evenodd;fill-rule:evenodd;stroke-linejoin:round;stroke-miterlimit:2"
   id="svg20568"
   sodipodi:docname="emojis.svg"
   xmlns:inkscape="http://www.inkscape.org/namespaces/inkscape"
   xmlns:sodipodi="http://sodipodi.sourceforge.net/DTD/sodipodi-0.dtd"
   xmlns="http://www.w3.org/2000/svg"
   xmlns:svg="http://www.w3.org/2000/svg"><defs
     id="defs20572" /><sodipodi:namedview
     id="namedview20570"
     pagecolor="#505050"
     bordercolor="#eeeeee"
     borderopacity="1"
     inkscape:pageshadow="0"
     inkscape:pageopacity="0"
     inkscape:pagecheckerboard="0" /><g
     transform="matrix(0.24,0,0,0.24,-454.7622,-663.2112)"
     id="g20566"><g
       transform="matrix(62.5,0,0,62.5,1887.03,2802.88)"
       id="g13004"><path
         d="M 0.447,-0.632 H 1.248 V 0.21 H 0.125 V 0.035 H 0.201 L 0.214,0.021 C 0.203,0.011 0.194,0 0.187,-0.011 0.179,-0.023 0.174,-0.035 0.17,-0.047 0.166,-0.06 0.163,-0.073 0.161,-0.086 0.16,-0.1 0.159,-0.114 0.159,-0.129 0.159,-0.134 0.16,-0.14 0.16,-0.146 0.161,-0.151 0.162,-0.157 0.164,-0.163 L 0.28,-0.512 C 0.286,-0.53 0.295,-0.546 0.306,-0.561 0.317,-0.576 0.33,-0.588 0.344,-0.599 0.359,-0.609 0.375,-0.617 0.392,-0.623 0.41,-0.629 0.428,-0.632 0.447,-0.632 Z"
         style="fill-rule:nonzero"
         id="path12990" /><path
         d="M 1.177,0 1.163,0.037 1.177,0.07 V 0.105 C 1.175,0.106 1.17,0.108 1.162,0.111 1.154,0.113 1.145,0.116 1.135,0.119 1.126,0.122 1.118,0.124 1.11,0.126 1.102,0.129 1.098,0.13 1.097,0.13 H 0.307 C 0.306,0.13 0.302,0.129 0.295,0.126 0.287,0.124 0.279,0.122 0.271,0.119 0.262,0.116 0.253,0.113 0.245,0.11 0.237,0.108 0.232,0.106 0.23,0.105 L 0.335,0 c 0.005,-0.006 0.017,-0.01 0.035,-0.014 0.018,-0.004 0.039,-0.007 0.063,-0.009 0.024,-0.003 0.05,-0.005 0.078,-0.007 0.028,-0.001 0.055,-0.002 0.081,-0.003 0.026,0 0.049,-0.001 0.07,-0.001 0.021,0 0.036,0 0.046,0 0.064,0 0.127,0.001 0.19,0.003 0.063,0.003 0.126,0.008 0.19,0.015 0.018,0.003 0.034,0.005 0.048,0.007 C 1.15,-0.007 1.164,-0.004 1.177,0 Z"
         style="fill:#0078d7;fill-rule:nonzero"
         id="path12992" /><path
         d="m 1.178,-0.456 c -0.008,0.005 -0.014,0.012 -0.02,0.019 -0.006,0.007 -0.011,0.016 -0.014,0.024 -0.004,0.009 -0.007,0.018 -0.009,0.027 -0.002,0.009 -0.003,0.018 -0.003,0.027 0,0.01 0.001,0.02 0.003,0.03 0.003,0.011 0.006,0.021 0.01,0.031 0.004,0.009 0.009,0.019 0.014,0.028 0.006,0.009 0.012,0.017 0.019,0.024 V 0 L 1.008,0.026 C 0.994,0.028 0.98,0.031 0.966,0.034 0.953,0.037 0.938,0.039 0.924,0.039 0.908,0.039 0.893,0.037 0.878,0.034 0.863,0.031 0.848,0.028 0.833,0.026 L 0.651,0 C 0.647,-0.001 0.644,-0.001 0.64,-0.001 H 0.629 c -0.014,0 -0.028,0 -0.042,0.001 C 0.573,0 0.559,0 0.545,0 H 0.335 C 0.32,0 0.307,-0.003 0.294,-0.008 0.281,-0.014 0.27,-0.021 0.261,-0.031 0.251,-0.041 0.244,-0.052 0.238,-0.064 0.233,-0.077 0.23,-0.091 0.23,-0.105 V -0.14 c 0.007,-0.003 0.013,-0.009 0.02,-0.017 0.007,-0.008 0.014,-0.017 0.02,-0.027 0.007,-0.01 0.013,-0.022 0.019,-0.034 0.006,-0.012 0.012,-0.024 0.017,-0.035 0.006,-0.012 0.011,-0.023 0.015,-0.033 0.004,-0.01 0.007,-0.019 0.01,-0.026 0.008,-0.02 0.015,-0.041 0.021,-0.063 0.006,-0.021 0.009,-0.043 0.009,-0.065 0,-0.004 0,-0.008 -0.001,-0.012 0,-0.005 -0.001,-0.01 -0.002,-0.015 C 0.357,-0.471 0.356,-0.476 0.354,-0.48 0.352,-0.484 0.35,-0.487 0.347,-0.49 l 0.045,-0.036 h 0.746 l 0.04,0.035 z"
         style="fill:#f2f2f2;fill-rule:nonzero"
         id="path12994" /><path
         d="m 0.546,-0.456 h 0.632 v 0.21 H 0.476 Z m -0.211,0 0.027,-0.02 h 0.096 l 0.018,0.02 -0.105,0.316 H 0.23 Z"
         style="fill:#31d2f7;fill-rule:nonzero"
         id="path12996" /><path
         d="M 0.651,0 H 1.177 V 0.07 H 0.581 Z M 0.335,-0.456 C 0.336,-0.458 0.337,-0.46 0.338,-0.464 0.339,-0.467 0.34,-0.471 0.341,-0.475 0.342,-0.479 0.343,-0.482 0.345,-0.485 0.346,-0.488 0.347,-0.49 0.348,-0.491 h 0.128 v 0.035 z"
         style="fill:#383838;fill-rule:nonzero"
         id="path12998" /><path
         d="m 1.178,-0.562 v 0.071 h -0.83 c 0.007,-0.022 0.02,-0.039 0.038,-0.051 0.018,-0.013 0.038,-0.02 0.061,-0.02 z M 0.195,0.105 H 1.178 V 0.141 H 0.195 Z"
         style="fill:#e5e5e5;fill-rule:nonzero"
         id="path13000" /><rect
         x="0.30000001"
         y="-0.105"
         width="0.07"
         height="0.035"
         style="fill:#ffb900;fill-rule:nonzero"
         id="rect13002" /></g></g></svg>
