<?xml version="1.0" encoding="UTF-8" standalone="no"?>
<svg
   width="16.844999"
   height="16.844999"
   viewBox="0 0 16.844999 16.844999"
   version="1.1"
   xml:space="preserve"
   style="clip-rule:evenodd;fill-rule:evenodd;stroke-linejoin:round;stroke-miterlimit:2"
   id="svg20568"
   sodipodi:docname="emojis.svg"
   xmlns:inkscape="http://www.inkscape.org/namespaces/inkscape"
   xmlns:sodipodi="http://sodipodi.sourceforge.net/DTD/sodipodi-0.dtd"
   xmlns="http://www.w3.org/2000/svg"
   xmlns:svg="http://www.w3.org/2000/svg"><defs
     id="defs20572" /><sodipodi:namedview
     id="namedview20570"
     pagecolor="#505050"
     bordercolor="#eeeeee"
     borderopacity="1"
     inkscape:pageshadow="0"
     inkscape:pageopacity="0"
     inkscape:pagecheckerboard="0" /><g
     transform="matrix(0.24,0,0,0.24,-751.5102,-110.71908)"
     id="g20566"><g
       transform="matrix(62.5,0,0,62.5,3123.48,518.392)"
       id="g1318"><path
         d="M 0.687,0.21 C 0.65,0.21 0.614,0.206 0.58,0.198 0.545,0.191 0.512,0.179 0.48,0.164 0.448,0.148 0.419,0.13 0.391,0.107 0.363,0.085 0.338,0.06 0.315,0.031 0.305,0.018 0.295,0.003 0.286,-0.011 0.277,-0.026 0.268,-0.042 0.26,-0.057 L 0.137,-0.291 C 0.133,-0.298 0.13,-0.305 0.128,-0.311 0.126,-0.318 0.125,-0.325 0.125,-0.333 c 0,-0.013 0.002,-0.024 0.007,-0.035 0.004,-0.01 0.011,-0.02 0.019,-0.028 0.008,-0.008 0.017,-0.014 0.027,-0.019 0.011,-0.004 0.023,-0.006 0.035,-0.006 H 0.23 v -0.386 c 0,-0.015 0.003,-0.028 0.009,-0.041 0.005,-0.013 0.013,-0.024 0.022,-0.034 0.01,-0.009 0.021,-0.017 0.033,-0.022 0.013,-0.006 0.027,-0.009 0.041,-0.009 0.01,0 0.019,0.002 0.029,0.005 0.01,0.003 0.018,0.006 0.027,0.011 l 0.21,0.125 h 0.171 l 0.213,-0.126 c 0.007,-0.005 0.016,-0.008 0.025,-0.011 0.01,-0.002 0.019,-0.004 0.028,-0.004 0.014,0 0.028,0.003 0.041,0.009 0.012,0.005 0.023,0.013 0.033,0.022 0.009,0.01 0.017,0.021 0.022,0.034 0.006,0.013 0.009,0.026 0.009,0.041 v 0.386 H 1.16 c 0.012,0 0.024,0.002 0.034,0.006 0.011,0.005 0.02,0.011 0.028,0.019 0.008,0.008 0.015,0.018 0.019,0.028 0.005,0.011 0.007,0.022 0.007,0.035 0,0.008 -10e-4,0.015 -0.003,0.022 -0.003,0.007 -0.006,0.014 -0.009,0.021 L 1.112,-0.055 C 1.104,-0.04 1.095,-0.025 1.086,-0.01 1.077,0.004 1.068,0.019 1.057,0.032 1.035,0.061 1.01,0.086 0.982,0.108 0.954,0.13 0.924,0.149 0.892,0.164 0.861,0.179 0.827,0.191 0.792,0.198 0.758,0.206 0.722,0.21 0.687,0.21 Z"
         style="fill-rule:nonzero"
         id="path1304" /><path
         d="M 1.073,-0.351 H 1.16 c 0.005,0 0.009,0.002 0.013,0.005 0.003,0.003 0.005,0.008 0.005,0.013 0,0.001 -0.003,0.008 -0.009,0.02 C 1.163,-0.302 1.156,-0.288 1.148,-0.271 1.139,-0.255 1.13,-0.237 1.119,-0.218 1.109,-0.198 1.099,-0.18 1.09,-0.162 1.08,-0.145 1.072,-0.129 1.064,-0.115 1.057,-0.102 1.052,-0.093 1.049,-0.088 1.042,-0.075 1.035,-0.063 1.028,-0.05 1.021,-0.038 1.013,-0.026 1.004,-0.015 0.985,0.01 0.963,0.032 0.939,0.051 0.916,0.07 0.89,0.086 0.863,0.099 0.836,0.113 0.807,0.123 0.778,0.13 0.748,0.137 0.718,0.14 0.687,0.14 0.655,0.14 0.625,0.137 0.595,0.13 0.566,0.123 0.537,0.112 0.51,0.099 0.483,0.086 0.458,0.07 0.434,0.051 0.41,0.031 0.389,0.01 0.369,-0.015 l -0.05,-0.08 C 0.315,-0.102 0.309,-0.113 0.302,-0.127 0.294,-0.142 0.285,-0.157 0.276,-0.175 0.267,-0.192 0.257,-0.209 0.248,-0.227 0.238,-0.245 0.23,-0.262 0.222,-0.277 0.214,-0.292 0.208,-0.305 0.203,-0.315 0.198,-0.326 0.195,-0.332 0.195,-0.333 c 0,-0.005 0.002,-0.01 0.005,-0.013 0.004,-0.003 0.008,-0.005 0.013,-0.005 H 0.3 v -0.22 L 0.302,-0.574 V -0.795 L 0.3,-0.798 c 0,-0.006 0.001,-0.012 0.002,-0.017 0.001,-0.005 0.003,-0.01 0.006,-0.014 0.003,-0.004 0.006,-0.007 0.011,-0.01 0.004,-0.002 0.01,-0.003 0.016,-0.003 0.004,0 0.007,0 0.01,0.001 0.004,0.002 0.007,0.003 0.009,0.005 l 0.227,0.134 H 0.583 L 0.584,-0.7 H 0.645 L 0.648,-0.702 H 0.723 L 0.726,-0.7 h 0.061 l 0.002,-0.002 h 0.003 l 0.226,-0.134 c 0.002,-0.002 0.006,-0.003 0.01,-0.004 0.004,-0.002 0.007,-0.002 0.01,-0.002 0.006,0 0.012,0.001 0.017,0.003 0.004,0.003 0.008,0.006 0.01,0.01 0.003,0.005 0.005,0.009 0.006,0.015 0.001,0.005 0.002,0.01 0.002,0.016 v 0.002 l -0.002,0.004 v 0.215 c 0,0.001 0,0.002 0.001,0.003 0,0.001 10e-4,0.002 10e-4,0.003 z"
         style="fill:#ffc83d;fill-rule:nonzero"
         id="path1306" /><path
         d="m 0.3,-0.8 0.167,0.1 c 0.003,0.002 0.005,0.004 0.007,0.007 0.001,0.002 0.002,0.005 0.002,0.008 0,0.004 -0.001,0.007 -0.003,0.009 -0.001,0.003 -0.004,0.005 -0.006,0.007 l -0.167,0.1 z m 0.597,0.115 c 0,-0.003 0.001,-0.006 0.002,-0.008 0.002,-0.003 0.004,-0.005 0.007,-0.007 l 0.167,-0.1 v 0.231 l -0.167,-0.1 C 0.904,-0.671 0.901,-0.673 0.9,-0.676 0.898,-0.678 0.897,-0.681 0.897,-0.685 Z m -0.316,0.159 v -0.176 h 0.07 v 0.176 c 0,0.009 -0.003,0.017 -0.01,0.024 -0.007,0.007 -0.015,0.011 -0.025,0.011 -0.009,0 -0.017,-0.004 -0.024,-0.011 C 0.585,-0.509 0.581,-0.517 0.581,-0.526 Z m 0.141,0 v -0.176 h 0.07 v 0.176 c 0,0.009 -0.004,0.017 -0.011,0.024 -0.007,0.007 -0.015,0.011 -0.024,0.011 -0.01,0 -0.018,-0.004 -0.025,-0.011 -0.007,-0.007 -0.01,-0.015 -0.01,-0.024 z"
         style="fill:#d48c00;fill-rule:nonzero"
         id="path1308" /><path
         d="m 0.406,-0.105 c 0,-0.02 0.003,-0.038 0.011,-0.055 0.007,-0.017 0.017,-0.032 0.03,-0.045 0.012,-0.012 0.027,-0.022 0.044,-0.03 0.018,-0.007 0.036,-0.011 0.055,-0.011 h 0.039 l 0.002,0.002 h 0.198 l 0.004,-0.002 h 0.038 c 0.019,0 0.038,0.004 0.055,0.011 0.017,0.008 0.032,0.018 0.044,0.03 0.013,0.013 0.023,0.028 0.03,0.045 0.008,0.017 0.011,0.035 0.011,0.055 C 0.967,-0.065 0.96,-0.03 0.944,0 0.929,0.031 0.908,0.057 0.883,0.077 0.857,0.098 0.827,0.114 0.793,0.124 0.759,0.135 0.724,0.14 0.687,0.14 0.649,0.14 0.614,0.135 0.58,0.124 0.546,0.114 0.516,0.098 0.49,0.077 0.465,0.057 0.444,0.031 0.429,0 0.413,-0.03 0.406,-0.065 0.406,-0.105 Z"
         style="fill:#ffffff;fill-rule:nonzero"
         id="path1310" /><path
         d="m 0.581,-0.246 h 0.211 l -0.081,0.095 c -0.003,0.004 -0.006,0.006 -0.011,0.008 -0.004,0.002 -0.009,0.002 -0.013,0.002 -0.005,0 -0.01,0 -0.014,-0.002 C 0.668,-0.145 0.665,-0.147 0.662,-0.151 Z"
         style="fill:#f7894a;fill-rule:nonzero"
         id="path1312" /><path
         d="M 0.687,0.035 H 0.581 C 0.572,0.035 0.563,0.032 0.556,0.025 0.549,0.018 0.546,0.009 0.546,0 c 0,-0.009 0.003,-0.018 0.01,-0.025 0.007,-0.007 0.016,-0.01 0.025,-0.01 h 0.106 c 0.016,0 0.032,-0.002 0.045,-0.006 0.014,-0.003 0.026,-0.008 0.038,-0.015 0.011,-0.007 0.022,-0.015 0.032,-0.025 0.01,-0.009 0.02,-0.02 0.031,-0.033 0.004,-0.005 0.008,-0.008 0.012,-0.011 0.005,-0.003 0.01,-0.004 0.017,-0.004 0.009,0 0.017,0.003 0.024,0.01 0.007,0.007 0.011,0.015 0.011,0.024 0,0.004 -0.001,0.008 -0.001,0.011 -0.001,0.002 -0.003,0.006 -0.005,0.009 -0.01,0.017 -0.023,0.033 -0.038,0.046 C 0.838,-0.015 0.821,-0.004 0.803,0.006 0.785,0.015 0.766,0.023 0.746,0.028 0.726,0.033 0.706,0.035 0.687,0.035 Z"
         style="fill:#cccccc;fill-rule:nonzero"
         id="path1314" /><path
         d="m 0.967,-0.526 c 0.01,0 0.018,0.003 0.025,0.01 0.007,0.007 0.01,0.015 0.01,0.025 0,0.012 -0.005,0.022 -0.015,0.029 l -0.055,0.036 v 0.093 c 0,0.007 -0.001,0.013 -0.004,0.02 -0.003,0.006 -0.007,0.012 -0.011,0.017 -0.005,0.004 -0.011,0.008 -0.017,0.011 -0.007,0.003 -0.013,0.004 -0.021,0.004 -0.007,0 -0.014,-10e-4 -0.02,-0.004 C 0.853,-0.288 0.847,-0.292 0.842,-0.296 0.837,-0.301 0.834,-0.307 0.831,-0.313 0.828,-0.32 0.827,-0.326 0.827,-0.333 v -0.088 c 0,-0.013 0.005,-0.022 0.015,-0.029 L 0.948,-0.521 C 0.954,-0.524 0.96,-0.526 0.967,-0.526 Z m -0.561,0 c 0.007,0 0.013,0.002 0.019,0.005 L 0.53,-0.45 c 0.011,0.007 0.016,0.016 0.016,0.029 v 0.088 c 0,0.007 -0.001,0.013 -0.004,0.02 -0.003,0.006 -0.007,0.012 -0.011,0.017 -0.005,0.004 -0.011,0.008 -0.017,0.011 -0.006,0.003 -0.013,0.004 -0.02,0.004 -0.008,0 -0.014,-10e-4 -0.021,-0.004 C 0.467,-0.288 0.461,-0.292 0.457,-0.296 0.452,-0.301 0.448,-0.307 0.445,-0.313 0.442,-0.32 0.441,-0.326 0.441,-0.333 V -0.426 L 0.386,-0.462 c -0.01,-0.007 -0.015,-0.017 -0.015,-0.029 0,-0.01 0.003,-0.018 0.01,-0.025 0.007,-0.007 0.015,-0.01 0.025,-0.01 z"
         style="fill-rule:nonzero"
         id="path1316" /></g></g></svg>
