<?xml version="1.0" encoding="UTF-8" standalone="no"?>
<svg
   width="16.32"
   height="16.305"
   viewBox="0 0 16.32 16.305"
   version="1.1"
   xml:space="preserve"
   style="clip-rule:evenodd;fill-rule:evenodd;stroke-linejoin:round;stroke-miterlimit:2"
   id="svg20568"
   sodipodi:docname="emojis.svg"
   xmlns:inkscape="http://www.inkscape.org/namespaces/inkscape"
   xmlns:sodipodi="http://sodipodi.sourceforge.net/DTD/sodipodi-0.dtd"
   xmlns="http://www.w3.org/2000/svg"
   xmlns:svg="http://www.w3.org/2000/svg"><defs
     id="defs20572" /><sodipodi:namedview
     id="namedview20570"
     pagecolor="#505050"
     bordercolor="#eeeeee"
     borderopacity="1"
     inkscape:pageshadow="0"
     inkscape:pageopacity="0"
     inkscape:pagecheckerboard="0" /><g
     transform="matrix(0.24,0,0,0.24,-557.739,-659.5362)"
     id="g20566"><g
       transform="matrix(62.5,0,0,62.5,2316.1,2802.88)"
       id="g13106"><path
         d="M 1.213,0.21 H 0.125 v -0.701 c 0,-0.019 0.004,-0.037 0.011,-0.054 0.008,-0.017 0.018,-0.032 0.031,-0.045 0.012,-0.013 0.027,-0.023 0.044,-0.031 0.017,-0.007 0.035,-0.011 0.054,-0.011 H 0.511 V -0.667 H 0.552 L 0.476,-0.743 v -0.134 h 0.351 v 0.134 l -0.018,0.018 c 0.006,0.008 0.01,0.018 0.013,0.027 0.003,0.01 0.005,0.021 0.005,0.031 0,0.012 -0.002,0.024 -0.006,0.035 h 0.252 c 0.019,0 0.037,0.004 0.054,0.011 0.017,0.008 0.032,0.018 0.044,0.031 0.013,0.013 0.023,0.028 0.031,0.045 0.007,0.017 0.011,0.035 0.011,0.054 z"
         style="fill-rule:nonzero"
         id="path13088" /><path
         d="M 1.045,0.105 H 1.143 V 0.14 H 0.195 V 0.105 H 0.294 V 0.06 H 0.343 V 0.105 H 0.47 V 0.06 H 0.519 V 0.105 H 0.821 V 0.06 H 0.87 V 0.105 H 0.997 V 0.06 h 0.048 z"
         style="fill:#383838;fill-rule:nonzero"
         id="path13090" /><path
         d="m 0.722,-0.702 c 0.009,0 0.017,0.003 0.024,0.01 0.007,0.007 0.011,0.016 0.011,0.025 0,0.011 -0.004,0.02 -0.011,0.026 C 0.739,-0.635 0.73,-0.632 0.72,-0.632 H 0.716 c -0.001,0 -0.002,0 -0.004,-0.001 L 0.629,-0.549 0.604,-0.574 0.688,-0.658 C 0.687,-0.659 0.687,-0.661 0.687,-0.662 c 0,-0.002 0,-0.003 0,-0.005 0,-0.002 0,-0.003 0,-0.004 0,-0.002 0,-0.003 10e-4,-0.005 L 0.604,-0.76 0.629,-0.785 0.712,-0.701 c 0.003,-0.001 0.006,-0.001 0.01,-0.001 z M 0.318,0.035 c 0.007,0 0.014,0.002 0.02,0.004 0.007,0.003 0.013,0.007 0.017,0.012 0.005,0.004 0.009,0.01 0.011,0.016 0.003,0.007 0.005,0.014 0.005,0.021 0,0.007 -0.002,0.014 -0.005,0.021 C 0.364,0.115 0.36,0.12 0.355,0.125 0.35,0.13 0.344,0.133 0.338,0.136 0.332,0.139 0.325,0.14 0.318,0.14 0.311,0.14 0.304,0.139 0.298,0.136 0.291,0.133 0.286,0.129 0.281,0.125 0.276,0.12 0.272,0.115 0.269,0.108 0.267,0.102 0.265,0.095 0.265,0.088 0.265,0.081 0.267,0.074 0.269,0.068 0.272,0.061 0.276,0.056 0.281,0.051 0.286,0.046 0.291,0.042 0.298,0.039 0.304,0.037 0.311,0.035 0.318,0.035 Z m 0,0.07 C 0.322,0.105 0.326,0.104 0.33,0.1 0.334,0.097 0.335,0.092 0.335,0.088 0.335,0.083 0.334,0.079 0.33,0.075 0.327,0.072 0.323,0.07 0.318,0.07 0.313,0.07 0.309,0.072 0.305,0.075 0.302,0.079 0.3,0.083 0.3,0.088 0.3,0.092 0.302,0.097 0.306,0.1 0.309,0.104 0.313,0.105 0.318,0.105 Z m 0.176,-0.07 c 0.007,0 0.014,0.002 0.02,0.004 0.007,0.003 0.012,0.007 0.017,0.012 0.004,0.005 0.008,0.01 0.011,0.017 0.003,0.006 0.004,0.013 0.004,0.02 0,0.007 -0.001,0.014 -0.004,0.02 C 0.539,0.115 0.535,0.12 0.531,0.125 0.526,0.129 0.52,0.133 0.514,0.136 0.508,0.139 0.501,0.14 0.494,0.14 0.486,0.14 0.48,0.139 0.473,0.136 0.467,0.133 0.461,0.13 0.457,0.125 0.452,0.12 0.448,0.115 0.445,0.109 0.442,0.102 0.441,0.095 0.441,0.088 0.441,0.081 0.442,0.074 0.445,0.067 0.448,0.061 0.452,0.055 0.456,0.051 0.461,0.046 0.467,0.042 0.473,0.039 0.479,0.037 0.486,0.035 0.494,0.035 Z m 0,0.07 C 0.498,0.105 0.502,0.104 0.506,0.1 0.509,0.097 0.511,0.092 0.511,0.088 0.511,0.083 0.509,0.079 0.506,0.076 0.502,0.072 0.498,0.07 0.494,0.07 0.489,0.07 0.485,0.072 0.481,0.075 0.478,0.079 0.476,0.083 0.476,0.088 c 0,0.004 0.002,0.009 0.005,0.012 0.004,0.004 0.008,0.005 0.013,0.005 z m 0.35,-0.07 c 0.007,0 0.014,0.002 0.021,0.004 0.006,0.003 0.012,0.007 0.017,0.012 0.004,0.004 0.008,0.01 0.011,0.016 0.003,0.007 0.004,0.014 0.004,0.021 0,0.007 -0.001,0.014 -0.004,0.021 C 0.89,0.115 0.886,0.12 0.881,0.125 0.876,0.13 0.871,0.133 0.865,0.136 0.858,0.139 0.851,0.14 0.844,0.14 0.837,0.14 0.83,0.139 0.824,0.136 0.818,0.133 0.812,0.129 0.807,0.125 0.803,0.12 0.799,0.115 0.796,0.108 0.793,0.102 0.792,0.095 0.792,0.088 0.792,0.081 0.793,0.074 0.796,0.068 0.799,0.061 0.803,0.056 0.807,0.051 0.812,0.046 0.817,0.042 0.823,0.039 0.83,0.037 0.837,0.035 0.844,0.035 Z m 0,0.07 C 0.849,0.105 0.853,0.104 0.856,0.1 0.86,0.097 0.862,0.092 0.862,0.088 0.862,0.083 0.86,0.079 0.857,0.075 0.853,0.072 0.849,0.07 0.844,0.07 0.84,0.07 0.836,0.072 0.832,0.076 0.828,0.079 0.827,0.083 0.827,0.088 0.827,0.092 0.828,0.097 0.832,0.1 0.836,0.104 0.84,0.105 0.844,0.105 Z M 1.02,0.035 c 0.007,0 0.014,0.002 0.02,0.004 0.007,0.003 0.012,0.007 0.017,0.012 0.005,0.005 0.009,0.01 0.012,0.017 0.002,0.006 0.004,0.013 0.004,0.02 0,0.007 -0.002,0.014 -0.004,0.02 C 1.066,0.115 1.062,0.12 1.057,0.125 1.052,0.129 1.047,0.133 1.04,0.136 1.034,0.139 1.027,0.14 1.02,0.14 1.013,0.14 1.006,0.139 1,0.136 0.993,0.133 0.988,0.13 0.983,0.125 0.978,0.12 0.974,0.115 0.971,0.109 0.969,0.102 0.967,0.095 0.967,0.088 0.967,0.081 0.969,0.074 0.971,0.067 0.974,0.061 0.978,0.055 0.983,0.051 0.987,0.046 0.993,0.042 0.999,0.039 1.006,0.037 1.013,0.035 1.02,0.035 Z m 0,0.07 C 1.025,0.105 1.029,0.104 1.032,0.1 1.036,0.097 1.038,0.092 1.038,0.088 1.038,0.083 1.036,0.079 1.032,0.075 1.029,0.072 1.025,0.07 1.02,0.07 1.015,0.07 1.011,0.072 1.008,0.075 1.004,0.079 1.002,0.083 1.002,0.088 1.002,0.092 1.004,0.097 1.008,0.1 1.011,0.104 1.015,0.105 1.02,0.105 Z"
         style="fill:#757575;fill-rule:nonzero"
         id="path13092" /><path
         d="m 0.546,-0.807 h 0.211 v 0.035 L 0.722,-0.737 H 0.581 L 0.546,-0.772 Z m 0.035,0.245 v -0.035 h 0.141 v 0.035 c 0,0.004 -0.003,0.008 -0.01,0.01 -0.006,0.003 -0.013,0.005 -0.022,0.006 -0.008,0.002 -0.016,0.003 -0.023,0.003 -0.008,0.001 -0.014,0.001 -0.017,0.001 -0.003,0 -0.008,0 -0.016,-0.001 -0.008,0 -0.015,-0.001 -0.023,-0.002 C 0.603,-0.547 0.596,-0.549 0.59,-0.551 0.584,-0.554 0.581,-0.557 0.581,-0.562 Z"
         style="fill:#cccccc;fill-rule:nonzero"
         id="path13094" /><path
         d="M 0.195,0 0.248,-0.034 H 1.105 L 1.143,0 C 1.143,0.01 1.141,0.019 1.137,0.027 1.134,0.036 1.129,0.043 1.122,0.05 1.116,0.056 1.109,0.061 1.1,0.065 1.092,0.068 1.083,0.07 1.073,0.07 H 0.265 C 0.255,0.07 0.246,0.068 0.238,0.065 0.229,0.061 0.222,0.056 0.216,0.05 0.209,0.043 0.204,0.036 0.201,0.027 0.197,0.019 0.195,0.01 0.195,0 Z"
         style="fill:#e5e5e5;fill-rule:nonzero"
         id="path13096" /><path
         d="m 1.102,-0.313 0.041,0.103 v 0.14 L 1.104,-0.034 H 0.226 L 0.195,-0.07 V -0.21 L 0.204,-0.235 C 0.206,-0.242 0.209,-0.25 0.212,-0.258 0.214,-0.266 0.217,-0.274 0.22,-0.282 0.223,-0.289 0.225,-0.296 0.227,-0.302 0.229,-0.307 0.23,-0.311 0.231,-0.313 0.23,-0.315 0.229,-0.319 0.227,-0.325 0.225,-0.331 0.223,-0.338 0.22,-0.346 0.217,-0.354 0.214,-0.362 0.212,-0.371 0.209,-0.379 0.206,-0.387 0.204,-0.395 0.201,-0.402 0.199,-0.408 0.198,-0.413 0.196,-0.418 0.195,-0.421 0.195,-0.421 v -0.07 l 0.06,-0.039 h 0.828 l 0.06,0.039 v 0.07 z"
         style="fill:#f03a17;fill-rule:nonzero"
         id="path13098" /><path
         d="M 1.143,-0.491 H 0.195 c 0,-0.01 0.002,-0.019 0.006,-0.028 0.003,-0.008 0.008,-0.015 0.015,-0.022 0.006,-0.006 0.013,-0.011 0.022,-0.015 0.008,-0.004 0.017,-0.006 0.027,-0.006 h 0.808 c 0.01,0 0.019,0.002 0.027,0.006 0.009,0.004 0.016,0.009 0.022,0.015 0.007,0.007 0.012,0.014 0.015,0.022 0.004,0.009 0.006,0.018 0.006,0.028 z"
         style="fill:#f2f2f2;fill-rule:nonzero"
         id="path13100" /><path
         d="M 0.335,-0.105 C 0.326,-0.105 0.318,-0.109 0.311,-0.116 0.304,-0.123 0.3,-0.131 0.3,-0.141 v -0.28 c 0,-0.01 0.004,-0.018 0.011,-0.025 0.007,-0.007 0.015,-0.01 0.024,-0.01 h 0.141 c 0.01,0 0.018,0.003 0.025,0.01 0.007,0.007 0.01,0.015 0.01,0.025 v 0.28 c 0,0.01 -0.003,0.018 -0.01,0.025 -0.007,0.007 -0.015,0.011 -0.025,0.011 z M 0.195,-0.07 H 1.143 V 0 H 0.195 Z"
         style="fill:#af0d1a;fill-rule:nonzero"
         id="path13102" /><path
         d="m 0.335,-0.281 v -0.14 h 0.141 v 0.14 z m 0.211,0 v -0.14 h 0.141 v 0.14 z m 0.351,0 v -0.14 h 0.141 v 0.14 z m -0.175,0 v -0.14 h 0.14 v 0.14 z M 0.195,-0.21 v -0.211 h 0.07 v 0.211 z m 0.878,-0.211 h 0.07 v 0.211 h -0.07 z"
         style="fill:#31d2f7;fill-rule:nonzero"
         id="path13104" /></g></g></svg>
