<?xml version="1.0" encoding="UTF-8" standalone="no"?>
<svg
   width="16.844999"
   height="13.17"
   viewBox="0 0 16.844999 13.17"
   version="1.1"
   xml:space="preserve"
   style="clip-rule:evenodd;fill-rule:evenodd;stroke-linejoin:round;stroke-miterlimit:2"
   id="svg20568"
   sodipodi:docname="emojis.svg"
   xmlns:inkscape="http://www.inkscape.org/namespaces/inkscape"
   xmlns:sodipodi="http://sodipodi.sourceforge.net/DTD/sodipodi-0.dtd"
   xmlns="http://www.w3.org/2000/svg"
   xmlns:svg="http://www.w3.org/2000/svg"><defs
     id="defs20572" /><sodipodi:namedview
     id="namedview20570"
     pagecolor="#505050"
     bordercolor="#eeeeee"
     borderopacity="1"
     inkscape:pageshadow="0"
     inkscape:pageopacity="0"
     inkscape:pagecheckerboard="0" /><g
     transform="matrix(0.24,0,0,0.24,-577.8078,-662.6862)"
     id="g20566"><g
       transform="matrix(62.5,0,0,62.5,2399.72,2802.88)"
       id="g13126"><path
         d="M 1.248,-0.526 V 0.105 H 1.163 C 1.156,0.121 1.147,0.135 1.136,0.148 1.125,0.161 1.113,0.173 1.098,0.182 1.084,0.191 1.069,0.198 1.053,0.203 1.036,0.208 1.02,0.211 1.002,0.211 0.985,0.211 0.968,0.208 0.952,0.203 0.936,0.198 0.921,0.191 0.907,0.182 0.893,0.173 0.88,0.161 0.869,0.148 0.858,0.135 0.848,0.121 0.841,0.105 H 0.531 C 0.524,0.121 0.515,0.135 0.504,0.148 0.493,0.161 0.481,0.173 0.467,0.182 0.452,0.191 0.437,0.198 0.421,0.203 0.405,0.208 0.388,0.211 0.371,0.211 0.353,0.211 0.337,0.208 0.32,0.203 0.304,0.198 0.289,0.191 0.275,0.182 0.26,0.173 0.248,0.161 0.237,0.148 0.226,0.135 0.217,0.121 0.21,0.105 H 0.125 v -0.631 c 0,-0.019 0.004,-0.037 0.011,-0.054 0.008,-0.017 0.018,-0.032 0.031,-0.045 0.012,-0.013 0.027,-0.023 0.044,-0.031 0.017,-0.007 0.035,-0.011 0.054,-0.011 h 0.842 c 0.02,0 0.038,0.004 0.055,0.011 0.017,0.007 0.032,0.017 0.045,0.03 0.013,0.013 0.023,0.028 0.03,0.045 0.007,0.017 0.011,0.035 0.011,0.055 z"
         style="fill-rule:nonzero"
         id="path13108" /><path
         d="m 0.233,-0.565 h 0.909 l 0.036,0.039 v 0.351 L 1.117,-0.123 H 0.279 L 0.195,-0.175 V -0.246 C 0.203,-0.252 0.21,-0.261 0.216,-0.271 0.222,-0.281 0.226,-0.292 0.23,-0.304 0.234,-0.316 0.237,-0.328 0.238,-0.34 0.24,-0.352 0.241,-0.363 0.241,-0.373 0.241,-0.382 0.24,-0.393 0.238,-0.404 0.237,-0.416 0.234,-0.427 0.23,-0.438 0.227,-0.449 0.222,-0.459 0.216,-0.468 0.21,-0.478 0.203,-0.485 0.195,-0.491 v -0.035 z"
         style="fill:#f2f2f2;fill-rule:nonzero"
         id="path13110" /><path
         d="m 1.162,-0.106 0.016,0.036 v 0.035 L 1.139,0.005 H 0.228 L 0.195,-0.035 V -0.07 l 0.02,-0.037 -0.02,-0.033 v -0.035 h 0.983 v 0.035 z"
         style="fill:#ffc83d;fill-rule:nonzero"
         id="path13112" /><path
         d="m 0.371,-0.09 c 0.022,0 0.04,0.003 0.054,0.008 0.013,0.006 0.024,0.014 0.032,0.025 0.007,0.011 0.013,0.024 0.015,0.039 0.003,0.016 0.004,0.033 0.004,0.053 0,0.015 -0.003,0.028 -0.008,0.041 C 0.462,0.089 0.455,0.1 0.445,0.11 0.435,0.119 0.424,0.127 0.412,0.132 0.399,0.138 0.385,0.141 0.371,0.141 0.356,0.141 0.342,0.138 0.33,0.132 0.317,0.127 0.306,0.119 0.296,0.11 0.287,0.1 0.279,0.089 0.273,0.076 0.268,0.063 0.265,0.05 0.265,0.035 0.265,0.015 0.266,-0.002 0.269,-0.018 0.272,-0.033 0.277,-0.046 0.284,-0.057 0.292,-0.068 0.303,-0.076 0.317,-0.082 0.33,-0.087 0.348,-0.09 0.371,-0.09 Z m 0.631,0 c 0.023,0 0.04,0.003 0.054,0.008 0.014,0.006 0.024,0.014 0.032,0.025 0.008,0.011 0.013,0.024 0.016,0.039 0.002,0.016 0.003,0.033 0.003,0.053 0,0.015 -0.002,0.028 -0.008,0.041 C 1.094,0.089 1.086,0.1 1.077,0.11 1.067,0.119 1.056,0.127 1.043,0.132 1.031,0.138 1.017,0.141 1.002,0.141 0.988,0.141 0.974,0.138 0.961,0.132 0.949,0.127 0.938,0.119 0.928,0.11 0.918,0.1 0.911,0.089 0.905,0.076 0.9,0.063 0.897,0.05 0.897,0.035 0.897,0.015 0.898,-0.002 0.901,-0.018 0.903,-0.033 0.909,-0.046 0.916,-0.057 0.924,-0.068 0.935,-0.076 0.948,-0.082 0.962,-0.087 0.98,-0.09 1.002,-0.09 Z"
         style="fill:#383838;fill-rule:nonzero"
         id="path13114" /><path
         d="m 0.3,-0.316 v -0.14 h 0.141 v 0.14 z m 0.527,0 v -0.14 h 0.14 v 0.14 z m -0.176,0 v -0.14 h 0.141 v 0.14 z m 0.351,0 v -0.14 h 0.141 v 0.14 z m -0.526,0 v -0.14 h 0.14 v 0.14 z m -0.281,0.07 v -0.21 l 0.034,-0.02 0.036,0.02 v 0.21 z"
         style="fill:#31d2f7;fill-rule:nonzero"
         id="path13116" /><path
         d="m 1.107,-0.597 c 0.01,0 0.019,0.002 0.028,0.006 0.008,0.004 0.016,0.009 0.022,0.015 0.006,0.006 0.011,0.014 0.015,0.022 0.004,0.009 0.006,0.018 0.006,0.028 H 0.195 c 0,-0.01 0.002,-0.019 0.006,-0.028 0.003,-0.008 0.008,-0.016 0.015,-0.022 0.006,-0.006 0.013,-0.011 0.022,-0.015 0.008,-0.004 0.017,-0.006 0.027,-0.006 z m -0.105,0.492 c 0.026,0 0.049,0.006 0.071,0.018 0.021,0.013 0.038,0.03 0.051,0.052 h 0.054 v 0.07 H 1.107 C 1.107,0.021 1.105,0.007 1.099,-0.006 1.094,-0.019 1.086,-0.03 1.077,-0.039 1.067,-0.049 1.056,-0.056 1.043,-0.062 1.031,-0.068 1.017,-0.07 1.002,-0.07 0.988,-0.07 0.974,-0.068 0.961,-0.062 0.949,-0.056 0.938,-0.049 0.928,-0.039 0.918,-0.03 0.911,-0.019 0.905,-0.006 0.9,0.007 0.897,0.021 0.897,0.035 H 0.476 C 0.476,0.021 0.473,0.007 0.468,-0.006 0.462,-0.019 0.455,-0.03 0.445,-0.039 0.435,-0.049 0.424,-0.056 0.412,-0.062 0.399,-0.068 0.385,-0.07 0.371,-0.07 0.356,-0.07 0.342,-0.068 0.33,-0.062 0.317,-0.056 0.306,-0.049 0.296,-0.039 0.287,-0.03 0.279,-0.019 0.273,-0.006 0.268,0.007 0.265,0.021 0.265,0.035 h -0.07 v -0.07 h 0.054 c 0.013,-0.022 0.03,-0.039 0.051,-0.052 0.022,-0.012 0.045,-0.018 0.071,-0.018 0.025,0 0.048,0.006 0.07,0.018 0.021,0.013 0.038,0.03 0.051,0.052 h 0.389 c 0.013,-0.022 0.03,-0.039 0.051,-0.052 0.022,-0.012 0.045,-0.018 0.07,-0.018 z M 0.371,0 c 0.009,0 0.018,0.003 0.025,0.01 0.006,0.007 0.01,0.015 0.01,0.025 0,0.01 -0.004,0.018 -0.01,0.025 C 0.389,0.067 0.38,0.07 0.371,0.07 0.361,0.07 0.353,0.067 0.346,0.06 0.339,0.053 0.335,0.045 0.335,0.035 0.335,0.025 0.339,0.017 0.346,0.01 0.353,0.003 0.361,0 0.371,0 Z m 0.631,0 c 0.01,0 0.019,0.003 0.025,0.01 0.007,0.007 0.011,0.015 0.011,0.025 0,0.01 -0.004,0.018 -0.011,0.025 C 1.021,0.067 1.012,0.07 1.002,0.07 0.993,0.07 0.984,0.067 0.978,0.06 0.971,0.053 0.967,0.045 0.967,0.035 0.967,0.025 0.971,0.017 0.978,0.01 0.984,0.003 0.993,0 1.002,0 Z"
         style="fill:#e5e5e5;fill-rule:nonzero"
         id="path13118" /><rect
         x="1.143"
         y="-0.14"
         width="0.035"
         height="0.07"
         style="fill:#e81224;fill-rule:nonzero"
         id="rect13120" /><rect
         x="0.19499999"
         y="-0.14"
         width="0.035"
         height="0.07"
         style="fill:#f8ffb3;fill-rule:nonzero"
         id="rect13122" /><rect
         x="0.19499999"
         y="-0.491"
         width="0.07"
         height="0.035"
         style="fill:#757575;fill-rule:nonzero"
         id="rect13124" /></g></g></svg>
