<?xml version="1.0" encoding="UTF-8" standalone="no"?>
<svg
   width="16.844999"
   height="13.155"
   viewBox="0 0 16.844999 13.155"
   version="1.1"
   xml:space="preserve"
   style="clip-rule:evenodd;fill-rule:evenodd;stroke-linejoin:round;stroke-miterlimit:2"
   id="svg20568"
   sodipodi:docname="emojis.svg"
   xmlns:inkscape="http://www.inkscape.org/namespaces/inkscape"
   xmlns:sodipodi="http://sodipodi.sourceforge.net/DTD/sodipodi-0.dtd"
   xmlns="http://www.w3.org/2000/svg"
   xmlns:svg="http://www.w3.org/2000/svg"><defs
     id="defs20572" /><sodipodi:namedview
     id="namedview20570"
     pagecolor="#505050"
     bordercolor="#eeeeee"
     borderopacity="1"
     inkscape:pageshadow="0"
     inkscape:pageopacity="0"
     inkscape:pagecheckerboard="0" /><g
     transform="matrix(0.24,0,0,0.24,-660.1902,-662.6862)"
     id="g20566"><g
       transform="matrix(62.5,0,0,62.5,2742.98,2802.88)"
       id="g13206"><path
         d="M 1.248,-0.667 V 0.105 H 1.163 C 1.156,0.121 1.147,0.135 1.136,0.148 1.125,0.161 1.113,0.172 1.098,0.181 1.084,0.191 1.069,0.198 1.053,0.203 1.036,0.208 1.02,0.21 1.002,0.21 0.985,0.21 0.968,0.208 0.952,0.203 0.935,0.198 0.92,0.191 0.906,0.181 0.892,0.172 0.88,0.161 0.869,0.148 0.858,0.135 0.848,0.121 0.841,0.105 H 0.566 C 0.56,0.121 0.551,0.135 0.54,0.148 0.528,0.161 0.516,0.172 0.502,0.181 0.488,0.191 0.472,0.198 0.456,0.203 0.44,0.208 0.423,0.21 0.406,0.21 0.389,0.21 0.372,0.208 0.355,0.203 0.339,0.198 0.324,0.191 0.31,0.181 0.296,0.172 0.283,0.161 0.272,0.148 0.261,0.135 0.252,0.121 0.245,0.105 H 0.125 V -0.21 c 0,-0.014 0.002,-0.027 0.007,-0.039 0.005,-0.012 0.012,-0.023 0.021,-0.033 0.009,-0.01 0.019,-0.017 0.031,-0.023 0.011,-0.006 0.024,-0.009 0.038,-0.01 l 0.149,-0.282 h 0.105 v -0.07 z"
         style="fill-rule:nonzero"
         id="path13188" /><path
         d="m 0.371,-0.457 0.024,0.001 c 0.004,0 0.01,0 0.015,-0.002 0.006,-0.001 0.012,-0.002 0.017,-0.004 0.006,-0.002 0.012,-0.004 0.017,-0.006 0.005,-0.002 0.011,-0.004 0.015,-0.005 0.013,0.004 0.025,0.008 0.036,0.012 0.012,0.004 0.024,0.005 0.037,0.005 L 0.581,-0.457 V 0.035 H 0.195 V -0.07 L 0.215,-0.105 0.195,-0.14 0.212,-0.177 0.195,-0.21 c 0,-0.008 0.002,-0.015 0.005,-0.019 0.003,-0.005 0.007,-0.009 0.012,-0.011 0.005,-0.002 0.01,-0.004 0.017,-0.005 0.006,0 0.012,-0.001 0.018,-0.001 H 0.265 L 0.353,-0.319 V -0.42 Z"
         style="fill:#ffffff;fill-rule:nonzero"
         id="path13190" /><path
         d="m 0.546,-0.421 v 0.175 H 0.406 V -0.421 Z M 0.371,-0.246 H 0.265 l 0.088,-0.175 h 0.018 z"
         style="fill:#31d2f7;fill-rule:nonzero"
         id="path13192" /><path
         d="M 1.145,0 H 0.546 v -0.562 l 0.018,-0.019 h 0.592 l 0.022,0.019 v 0.352 l -0.019,0.034 0.019,0.035 v 0.036 c 0,0 -10e-4,0.003 -0.002,0.008 C 1.174,-0.093 1.172,-0.087 1.17,-0.08 1.168,-0.072 1.166,-0.065 1.163,-0.056 1.16,-0.048 1.157,-0.04 1.155,-0.032 Z"
         style="fill:#f2f2f2;fill-rule:nonzero"
         id="path13194" /><path
         d="m 1.143,-0.035 0.017,-0.011 0.018,0.011 v 0.07 H 1.071 c 0,0.01 -0.002,0.018 -0.005,0.027 C 1.062,0.07 1.057,0.077 1.051,0.083 1.045,0.09 1.037,0.095 1.029,0.098 1.021,0.102 1.012,0.104 1.002,0.104 0.993,0.104 0.984,0.102 0.976,0.098 0.968,0.095 0.96,0.09 0.954,0.083 0.948,0.077 0.943,0.07 0.939,0.062 0.935,0.053 0.934,0.045 0.934,0.035 H 0.475 c 0,0.01 -0.002,0.018 -0.006,0.027 C 0.466,0.07 0.461,0.077 0.454,0.083 0.448,0.09 0.441,0.095 0.432,0.098 0.424,0.102 0.415,0.104 0.406,0.104 0.396,0.104 0.387,0.102 0.379,0.098 0.371,0.095 0.364,0.09 0.357,0.083 0.351,0.077 0.346,0.07 0.342,0.062 0.339,0.053 0.337,0.045 0.337,0.035 H 0.195 v -0.07 h 0.089 c 0.013,-0.022 0.03,-0.039 0.051,-0.052 0.022,-0.012 0.045,-0.018 0.071,-0.018 0.025,0 0.049,0.006 0.07,0.018 0.022,0.013 0.039,0.03 0.051,0.052 h 0.354 c 0.006,-0.011 0.014,-0.021 0.022,-0.029 0.009,-0.009 0.019,-0.017 0.029,-0.023 0.011,-0.006 0.022,-0.01 0.034,-0.014 0.011,-0.003 0.024,-0.004 0.036,-0.004 0.026,0 0.049,0.006 0.071,0.018 0.021,0.013 0.038,0.03 0.051,0.052 z M 0.511,-0.457 H 0.406 v -0.034 l 0.051,-0.018 0.054,0.018 z"
         style="fill:#e5e5e5;fill-rule:nonzero"
         id="path13196" /><path
         d="m 0.406,-0.07 c 0.014,0 0.028,0.002 0.041,0.008 0.012,0.006 0.024,0.013 0.033,0.023 0.01,0.009 0.017,0.02 0.023,0.033 0.005,0.013 0.008,0.027 0.008,0.041 0,0.015 -0.003,0.028 -0.008,0.041 C 0.497,0.089 0.49,0.1 0.48,0.109 0.471,0.119 0.459,0.126 0.447,0.132 0.434,0.137 0.42,0.14 0.406,0.14 0.391,0.14 0.377,0.137 0.365,0.132 0.352,0.126 0.341,0.119 0.331,0.109 0.322,0.1 0.314,0.089 0.309,0.076 0.303,0.063 0.3,0.05 0.3,0.035 0.3,0.021 0.303,0.007 0.309,-0.006 0.314,-0.019 0.322,-0.03 0.331,-0.039 0.341,-0.049 0.352,-0.056 0.365,-0.062 0.377,-0.068 0.391,-0.07 0.406,-0.07 Z m 0,0.14 C 0.415,0.07 0.423,0.067 0.43,0.06 0.437,0.053 0.441,0.045 0.441,0.035 0.441,0.025 0.437,0.017 0.431,0.01 0.424,0.003 0.416,0 0.406,0 0.396,0 0.388,0.003 0.381,0.01 0.374,0.017 0.371,0.025 0.371,0.035 c 0,0.01 0.003,0.018 0.01,0.025 0.007,0.007 0.015,0.01 0.025,0.01 z m 0.596,-0.14 c 0.015,0 0.029,0.002 0.041,0.008 0.013,0.006 0.024,0.013 0.034,0.023 0.009,0.009 0.017,0.02 0.022,0.033 0.006,0.013 0.008,0.027 0.008,0.041 0,0.015 -0.002,0.028 -0.008,0.041 C 1.094,0.089 1.086,0.1 1.077,0.109 1.067,0.119 1.056,0.126 1.043,0.132 1.031,0.137 1.017,0.14 1.002,0.14 0.988,0.14 0.974,0.137 0.961,0.132 0.949,0.126 0.938,0.119 0.928,0.109 0.918,0.1 0.911,0.089 0.905,0.076 0.9,0.063 0.897,0.05 0.897,0.035 0.897,0.021 0.9,0.007 0.905,-0.006 0.911,-0.019 0.918,-0.03 0.928,-0.039 0.938,-0.049 0.949,-0.056 0.961,-0.062 0.974,-0.068 0.988,-0.07 1.002,-0.07 Z m 0,0.14 C 1.012,0.07 1.02,0.067 1.027,0.06 1.034,0.053 1.038,0.045 1.038,0.035 1.038,0.025 1.034,0.017 1.027,0.01 1.021,0.003 1.012,0 1.002,0 0.993,0 0.984,0.003 0.978,0.01 0.971,0.017 0.967,0.025 0.967,0.035 c 0,0.01 0.004,0.018 0.011,0.025 0.007,0.007 0.015,0.01 0.024,0.01 z"
         style="fill:#383838;fill-rule:nonzero"
         id="path13198" /><rect
         x="0.546"
         y="-0.597"
         width="0.63200003"
         height="0.035"
         style="fill:#cccccc;fill-rule:nonzero"
         id="rect13200" /><path
         d="M 0.195,-0.141 H 0.23 V -0.07 H 0.195 Z m 0.492,-0.35 H 0.616 v -0.035 h 0.071 z m 0.42,0 H 1.038 v -0.035 h 0.069 z"
         style="fill:#ffb900;fill-rule:nonzero"
         id="path13202" /><path
         d="m 1.002,-0.246 h -0.28 v -0.28 h 0.28 z m 0.176,0.036 v 0.069 H 0.195 V -0.21 Z M 0.967,-0.421 h -0.07 v -0.07 h -0.07 v 0.07 h -0.07 v 0.07 h 0.07 v 0.07 h 0.07 v -0.07 h 0.07 z M 0.511,-0.491 H 0.406 v -0.018 l 0.017,-0.017 h 0.071 l 0.017,0.017 z m 0.632,0.386 h 0.035 v 0.07 H 1.143 Z"
         style="fill:#e81224;fill-rule:nonzero"
         id="path13204" /></g></g></svg>
