<?xml version="1.0" encoding="UTF-8" standalone="no"?>
<svg
   width="16.844999"
   height="11.055"
   viewBox="0 0 16.844999 11.055"
   version="1.1"
   xml:space="preserve"
   style="clip-rule:evenodd;fill-rule:evenodd;stroke-linejoin:round;stroke-miterlimit:2"
   id="svg20568"
   sodipodi:docname="emojis.svg"
   xmlns:inkscape="http://www.inkscape.org/namespaces/inkscape"
   xmlns:sodipodi="http://sodipodi.sourceforge.net/DTD/sodipodi-0.dtd"
   xmlns="http://www.w3.org/2000/svg"
   xmlns:svg="http://www.w3.org/2000/svg"><defs
     id="defs20572" /><sodipodi:namedview
     id="namedview20570"
     pagecolor="#505050"
     bordercolor="#eeeeee"
     borderopacity="1"
     inkscape:pageshadow="0"
     inkscape:pageopacity="0"
     inkscape:pagecheckerboard="0" /><g
     transform="matrix(0.24,0,0,0.24,-742.575,-664.8012)"
     id="g20566"><g
       transform="matrix(62.5,0,0,62.5,3086.25,2802.88)"
       id="g13290"><path
         d="m 1.081,-0.246 h 0.062 c 0.014,0 0.028,0.003 0.041,0.009 0.012,0.005 0.023,0.013 0.033,0.022 0.01,0.01 0.017,0.021 0.023,0.034 0.005,0.013 0.008,0.026 0.008,0.041 V 0.105 H 1.163 C 1.156,0.121 1.147,0.135 1.136,0.148 1.125,0.161 1.113,0.173 1.098,0.182 1.084,0.191 1.069,0.198 1.053,0.203 1.036,0.208 1.02,0.211 1.002,0.211 0.985,0.211 0.968,0.208 0.952,0.203 0.936,0.198 0.921,0.191 0.907,0.182 0.893,0.173 0.88,0.161 0.869,0.148 0.858,0.135 0.848,0.121 0.841,0.105 H 0.566 C 0.56,0.121 0.551,0.135 0.54,0.148 0.528,0.161 0.516,0.173 0.502,0.182 0.488,0.191 0.472,0.198 0.456,0.203 0.44,0.208 0.423,0.211 0.406,0.211 0.389,0.211 0.372,0.208 0.355,0.203 0.339,0.198 0.324,0.191 0.31,0.182 0.296,0.173 0.283,0.161 0.272,0.148 0.261,0.135 0.252,0.121 0.245,0.105 H 0.125 V -0.14 c 0,-0.015 0.003,-0.028 0.008,-0.041 0.006,-0.013 0.013,-0.024 0.023,-0.034 0.01,-0.009 0.021,-0.017 0.033,-0.022 0.013,-0.006 0.027,-0.009 0.041,-0.009 H 0.362 C 0.38,-0.281 0.397,-0.316 0.415,-0.351 0.432,-0.386 0.45,-0.421 0.468,-0.456 H 0.511 V -0.468 L 0.57,-0.526 h 0.128 l 0.059,0.058 v 0.012 h 0.219 c 0.017,0.035 0.035,0.07 0.053,0.105 0.017,0.035 0.034,0.07 0.052,0.105 z"
         style="fill-rule:nonzero"
         id="path13272" /><path
         d="m 1.178,-0.14 -0.026,0.036 0.026,0.034 v 0.035 L 1.143,0.011 H 0.23 L 0.195,-0.035 V -0.07 L 0.22,-0.104 0.195,-0.14 c 0,-0.01 0.004,-0.018 0.011,-0.025 0.006,-0.007 0.015,-0.01 0.024,-0.01 h 0.176 c 0.014,0 0.028,-0.004 0.041,-0.01 0.012,-0.007 0.023,-0.015 0.032,-0.026 0.01,-0.01 0.017,-0.022 0.022,-0.036 0.006,-0.013 0.008,-0.027 0.008,-0.041 0,-0.011 -0.001,-0.022 -0.004,-0.033 -0.002,-0.01 -0.006,-0.021 -0.011,-0.03 l 0.017,-0.035 h 0.07 l 0.021,-0.019 h 0.062 l 0.023,0.019 h 0.245 l 0.018,0.035 c -0.003,0.009 -0.005,0.019 -0.006,0.029 -0.001,0.01 -0.001,0.019 -0.001,0.029 0,0.03 0.006,0.054 0.018,0.072 0.012,0.018 0.032,0.032 0.06,0.041 0.003,0.001 0.005,0.002 0.008,0.003 0.003,0.001 0.006,0.002 0.009,0.002 h 0.105 c 0.009,0 0.018,0.003 0.024,0.01 0.007,0.007 0.011,0.015 0.011,0.025 z"
         style="fill:#ffb900;fill-rule:nonzero"
         id="path13274" /><path
         d="m 0.687,-0.175 v -0.176 h 0.21 v 0.176 z M 0.406,-0.176 0.494,-0.351 h 0.157 v 0.176 z M 0.95,-0.351 1.038,-0.175 H 0.932 v -0.176 z"
         style="fill:#31d2f7;fill-rule:nonzero"
         id="path13276" /><path
         d="m 1.124,-0.035 h 0.054 v 0.07 H 0.195 v -0.07 h 0.089 c 0.013,-0.022 0.03,-0.039 0.051,-0.052 0.022,-0.012 0.045,-0.018 0.071,-0.018 0.016,0 0.031,0.002 0.046,0.007 0.014,0.006 0.028,0.013 0.04,0.022 0.012,0.009 0.022,0.02 0.031,0.034 0.008,0.013 0.015,0.027 0.019,0.042 h 0.324 c 0.004,-0.016 0.01,-0.03 0.019,-0.043 0.009,-0.013 0.019,-0.024 0.032,-0.033 0.012,-0.009 0.025,-0.016 0.04,-0.022 0.014,-0.005 0.029,-0.007 0.045,-0.007 0.026,0 0.049,0.006 0.071,0.018 0.021,0.013 0.038,0.03 0.051,0.052 z M 0.476,-0.21 v 0.07 H 0.441 v -0.07 z"
         style="fill:#eba300;fill-rule:nonzero"
         id="path13278" /><path
         d="m 0.406,-0.07 c 0.014,0 0.028,0.002 0.041,0.008 0.012,0.006 0.024,0.013 0.033,0.023 0.01,0.009 0.017,0.02 0.023,0.033 0.005,0.013 0.008,0.027 0.008,0.041 0,0.015 -0.003,0.028 -0.008,0.041 C 0.497,0.089 0.49,0.1 0.48,0.11 0.471,0.119 0.459,0.127 0.447,0.132 0.434,0.138 0.42,0.141 0.406,0.141 0.391,0.141 0.377,0.138 0.365,0.132 0.352,0.127 0.341,0.119 0.331,0.11 0.322,0.1 0.314,0.089 0.309,0.076 0.303,0.063 0.3,0.05 0.3,0.035 0.3,0.021 0.303,0.007 0.309,-0.006 0.314,-0.019 0.322,-0.03 0.331,-0.039 0.341,-0.049 0.352,-0.056 0.365,-0.062 0.377,-0.068 0.391,-0.07 0.406,-0.07 Z m 0.596,0 c 0.015,0 0.029,0.002 0.041,0.008 0.013,0.006 0.024,0.013 0.034,0.023 0.009,0.009 0.017,0.02 0.022,0.033 0.006,0.013 0.008,0.027 0.008,0.041 0,0.015 -0.002,0.028 -0.008,0.041 C 1.094,0.089 1.086,0.1 1.077,0.11 1.067,0.119 1.056,0.127 1.043,0.132 1.031,0.138 1.017,0.141 1.002,0.141 0.988,0.141 0.974,0.138 0.961,0.132 0.949,0.127 0.938,0.119 0.928,0.11 0.918,0.1 0.911,0.089 0.905,0.076 0.9,0.063 0.897,0.05 0.897,0.035 0.897,0.021 0.9,0.007 0.905,-0.006 0.911,-0.019 0.918,-0.03 0.928,-0.039 0.938,-0.049 0.949,-0.056 0.961,-0.062 0.974,-0.068 0.988,-0.07 1.002,-0.07 Z"
         style="fill:#383838;fill-rule:nonzero"
         id="path13280" /><path
         d="m 0.581,-0.386 v -0.035 l 0.021,-0.015 h 0.059 l 0.026,0.015 v 0.035 z M 0.406,0 c 0.01,0 0.018,0.003 0.025,0.01 0.006,0.007 0.01,0.015 0.01,0.025 0,0.01 -0.004,0.018 -0.01,0.025 C 0.424,0.067 0.416,0.07 0.406,0.07 0.396,0.07 0.388,0.067 0.381,0.06 0.374,0.053 0.371,0.045 0.371,0.035 0.371,0.025 0.374,0.017 0.381,0.01 0.388,0.003 0.396,0 0.406,0 Z m 0.596,0 c 0.01,0 0.019,0.003 0.025,0.01 0.007,0.007 0.011,0.015 0.011,0.025 0,0.01 -0.004,0.018 -0.011,0.025 C 1.021,0.067 1.012,0.07 1.002,0.07 0.993,0.07 0.984,0.067 0.978,0.06 0.971,0.053 0.967,0.045 0.967,0.035 0.967,0.025 0.971,0.017 0.978,0.01 0.984,0.003 0.993,0 1.002,0 Z"
         style="fill:#e5e5e5;fill-rule:nonzero"
         id="path13282" /><path
         d="m 0.669,-0.456 0.018,0.018 v 0.017 H 0.581 v -0.017 l 0.018,-0.018 z"
         style="fill:#f2f2f2;fill-rule:nonzero"
         id="path13284" /><rect
         x="0.19499999"
         y="-0.14"
         width="0.035"
         height="0.07"
         style="fill:#f8ffb3;fill-rule:nonzero"
         id="rect13286" /><rect
         x="1.143"
         y="-0.14"
         width="0.035"
         height="0.07"
         style="fill:#f03a17;fill-rule:nonzero"
         id="rect13288" /></g></g></svg>
