<?xml version="1.0" encoding="UTF-8" standalone="no"?>
<svg
   width="16.844999"
   height="14.73"
   viewBox="0 0 16.844999 14.73"
   version="1.1"
   xml:space="preserve"
   style="clip-rule:evenodd;fill-rule:evenodd;stroke-linejoin:round;stroke-miterlimit:2"
   id="svg20568"
   sodipodi:docname="emojis.svg"
   xmlns:inkscape="http://www.inkscape.org/namespaces/inkscape"
   xmlns:sodipodi="http://sodipodi.sourceforge.net/DTD/sodipodi-0.dtd"
   xmlns="http://www.w3.org/2000/svg"
   xmlns:svg="http://www.w3.org/2000/svg"><defs
     id="defs20572" /><sodipodi:namedview
     id="namedview20570"
     pagecolor="#505050"
     bordercolor="#eeeeee"
     borderopacity="1"
     inkscape:pageshadow="0"
     inkscape:pageopacity="0"
     inkscape:pagecheckerboard="0" /><g
     transform="matrix(0.24,0,0,0.24,-763.1694,-661.1112)"
     id="g20566"><g
       transform="matrix(62.5,0,0,62.5,3172.06,2802.88)"
       id="g13308"><path
         d="m 1.11,-0.456 c 0.014,0 0.027,0.003 0.04,0.009 0.012,0.006 0.023,0.013 0.033,0.023 0.009,0.009 0.016,0.02 0.022,0.033 0.005,0.012 0.008,0.026 0.008,0.04 v 0.248 c 0.011,0.011 0.02,0.024 0.026,0.039 0.006,0.015 0.009,0.03 0.009,0.046 0,0.016 -0.003,0.032 -0.009,0.047 C 1.233,0.044 1.224,0.057 1.213,0.068 V 0.21 H 0.932 V 0.105 H 0.441 V 0.21 H 0.16 V 0.068 C 0.149,0.057 0.14,0.044 0.134,0.029 0.128,0.014 0.125,-0.002 0.125,-0.018 c 0,-0.016 0.003,-0.031 0.009,-0.046 0.006,-0.015 0.015,-0.028 0.026,-0.039 v -0.248 c 0,-0.014 0.003,-0.028 0.008,-0.04 0.006,-0.013 0.013,-0.024 0.022,-0.033 0.01,-0.01 0.021,-0.017 0.033,-0.023 0.013,-0.006 0.026,-0.009 0.04,-0.009 0.009,-0.036 0.018,-0.071 0.027,-0.106 0.009,-0.034 0.017,-0.07 0.026,-0.105 h 0.169 c 0.009,-0.018 0.018,-0.035 0.027,-0.052 0.009,-0.018 0.017,-0.035 0.026,-0.053 h 0.297 l 0.053,0.105 h 0.169 c 0.009,0.035 0.017,0.071 0.026,0.105 0.009,0.035 0.018,0.07 0.027,0.106 z"
         style="fill-rule:nonzero"
         id="path13292" /><path
         d="M 0.23,0.141 V 0 H 0.371 V 0.141 Z M 1.002,0 H 1.143 V 0.141 H 1.002 Z"
         style="fill:#383838;fill-rule:nonzero"
         id="path13294" /><path
         d="m 1.073,-0.316 c 0.01,0 0.019,0.002 0.027,0.006 0.009,0.003 0.016,0.008 0.022,0.015 0.007,0.006 0.012,0.014 0.015,0.022 0.004,0.009 0.006,0.018 0.006,0.027 v 0.211 H 0.23 v -0.211 c 0,-0.009 0.002,-0.018 0.006,-0.027 C 0.239,-0.281 0.244,-0.289 0.251,-0.295 0.257,-0.302 0.264,-0.307 0.273,-0.31 0.281,-0.314 0.291,-0.316 0.3,-0.316 Z"
         style="fill:#ffc83d;fill-rule:nonzero"
         id="path13296" /><path
         d="m 1.002,-0.597 0.053,0.211 0.033,0.035 -0.015,0.035 -0.071,0.07 H 0.371 L 0.3,-0.316 0.285,-0.351 0.318,-0.386 0.371,-0.597 h 0.175 l 0.019,-0.019 h 0.242 l 0.02,0.019 z m 0.123,0.527 c 0.007,0 0.014,0.001 0.02,0.004 0.007,0.003 0.012,0.006 0.017,0.011 0.005,0.005 0.009,0.011 0.012,0.017 0.002,0.007 0.004,0.013 0.004,0.02 0,0.008 -0.002,0.015 -0.004,0.021 C 1.171,0.01 1.167,0.015 1.162,0.02 1.158,0.024 1.152,0.028 1.146,0.031 1.139,0.034 1.132,0.035 1.125,0.035 H 0.248 C 0.241,0.035 0.234,0.034 0.227,0.031 0.221,0.028 0.215,0.024 0.211,0.02 0.206,0.015 0.202,0.01 0.199,0.003 0.197,-0.003 0.195,-0.01 0.195,-0.018 c 0,-0.007 0.002,-0.013 0.004,-0.02 0.003,-0.006 0.007,-0.012 0.012,-0.017 0.005,-0.005 0.01,-0.008 0.017,-0.011 0.006,-0.003 0.013,-0.004 0.02,-0.004 z"
         style="fill:#ffb900;fill-rule:nonzero"
         id="path13298" /><path
         d="M 1.029,-0.316 H 0.344 l 0.062,-0.246 h 0.561 z"
         style="fill:#31d2f7;fill-rule:nonzero"
         id="path13300" /><path
         d="m 0.353,-0.21 c 0.007,0 0.014,0.001 0.021,0.004 0.006,0.002 0.012,0.006 0.016,0.011 0.005,0.005 0.009,0.01 0.012,0.017 0.002,0.006 0.004,0.013 0.004,0.02 0,0.008 -0.002,0.015 -0.004,0.021 C 0.399,-0.131 0.395,-0.125 0.39,-0.121 0.385,-0.116 0.38,-0.112 0.373,-0.11 0.367,-0.107 0.36,-0.105 0.353,-0.105 0.346,-0.105 0.339,-0.107 0.333,-0.11 0.326,-0.112 0.321,-0.116 0.316,-0.121 0.311,-0.126 0.307,-0.131 0.304,-0.137 0.302,-0.144 0.3,-0.151 0.3,-0.158 0.3,-0.165 0.302,-0.172 0.304,-0.178 0.307,-0.184 0.311,-0.19 0.316,-0.195 0.321,-0.2 0.326,-0.204 0.333,-0.206 0.339,-0.209 0.346,-0.21 0.353,-0.21 Z m 0.667,0 c 0.007,0 0.014,0.001 0.02,0.004 0.007,0.002 0.012,0.006 0.017,0.011 0.005,0.005 0.009,0.011 0.012,0.017 0.002,0.006 0.004,0.013 0.004,0.02 0,0.007 -0.002,0.014 -0.004,0.021 C 1.066,-0.131 1.062,-0.126 1.057,-0.121 1.052,-0.116 1.047,-0.112 1.04,-0.11 1.034,-0.107 1.027,-0.105 1.02,-0.105 1.013,-0.105 1.006,-0.107 1,-0.11 0.993,-0.112 0.988,-0.116 0.983,-0.121 0.978,-0.125 0.974,-0.131 0.971,-0.137 0.969,-0.143 0.967,-0.15 0.967,-0.158 c 0,-0.007 0.002,-0.014 0.004,-0.02 C 0.974,-0.185 0.978,-0.19 0.983,-0.195 0.987,-0.2 0.993,-0.204 0.999,-0.206 1.006,-0.209 1.013,-0.21 1.02,-0.21 Z"
         style="fill:#f8ffb3;fill-rule:nonzero"
         id="path13302" /><path
         d="m 0.844,-0.21 c 0.007,0 0.014,0.001 0.021,0.004 0.006,0.002 0.012,0.006 0.017,0.011 0.004,0.005 0.008,0.01 0.011,0.017 0.003,0.006 0.004,0.013 0.004,0.02 0,0.008 -0.001,0.015 -0.004,0.021 -0.003,0.006 -0.007,0.012 -0.012,0.016 -0.005,0.005 -0.01,0.009 -0.016,0.011 -0.007,0.003 -0.014,0.005 -0.021,0.005 H 0.529 C 0.522,-0.105 0.515,-0.107 0.509,-0.11 0.502,-0.112 0.497,-0.116 0.492,-0.121 0.487,-0.125 0.483,-0.131 0.48,-0.137 0.477,-0.143 0.476,-0.15 0.476,-0.158 0.476,-0.165 0.477,-0.172 0.48,-0.178 0.483,-0.185 0.487,-0.19 0.491,-0.195 0.496,-0.2 0.502,-0.204 0.508,-0.206 0.514,-0.209 0.521,-0.21 0.529,-0.21 Z M 0.827,-0.632 v 0.035 H 0.546 V -0.632 L 0.583,-0.656 H 0.785 Z M 0.265,-0.386 H 0.318 L 0.3,-0.316 H 0.265 c -0.009,0 -0.017,-0.003 -0.024,-0.01 C 0.234,-0.333 0.23,-0.342 0.23,-0.351 c 0,-0.01 0.004,-0.018 0.011,-0.025 0.007,-0.007 0.015,-0.01 0.024,-0.01 z m 0.842,0 c 0.01,0 0.018,0.003 0.025,0.01 0.007,0.007 0.011,0.015 0.011,0.025 0,0.01 -0.004,0.018 -0.011,0.025 -0.007,0.007 -0.015,0.01 -0.025,0.01 H 1.073 l -0.018,-0.07 z"
         style="fill:#757575;fill-rule:nonzero"
         id="path13304" /><path
         d="m 0.546,-0.632 0.035,-0.07 h 0.211 l 0.035,0.07 z"
         style="fill:#cccccc;fill-rule:nonzero"
         id="path13306" /></g></g></svg>
