<?xml version="1.0" encoding="UTF-8" standalone="no"?>
<svg
   width="16.844999"
   height="16.844999"
   viewBox="0 0 16.844999 16.844999"
   version="1.1"
   xml:space="preserve"
   style="clip-rule:evenodd;fill-rule:evenodd;stroke-linejoin:round;stroke-miterlimit:2"
   id="svg20568"
   sodipodi:docname="emojis.svg"
   xmlns:inkscape="http://www.inkscape.org/namespaces/inkscape"
   xmlns:sodipodi="http://sodipodi.sourceforge.net/DTD/sodipodi-0.dtd"
   xmlns="http://www.w3.org/2000/svg"
   xmlns:svg="http://www.w3.org/2000/svg"><defs
     id="defs20572" /><sodipodi:namedview
     id="namedview20570"
     pagecolor="#505050"
     bordercolor="#eeeeee"
     borderopacity="1"
     inkscape:pageshadow="0"
     inkscape:pageopacity="0"
     inkscape:pagecheckerboard="0" /><g
     transform="matrix(0.24,0,0,0.24,-772.1046,-110.71908)"
     id="g20566"><g
       transform="matrix(62.5,0,0,62.5,3209.29,518.392)"
       id="g1334"><path
         d="M 0.687,0.21 C 0.65,0.21 0.614,0.206 0.58,0.198 0.545,0.191 0.512,0.179 0.48,0.164 0.448,0.148 0.419,0.13 0.391,0.107 0.363,0.085 0.338,0.06 0.315,0.031 0.305,0.018 0.295,0.003 0.286,-0.011 0.277,-0.026 0.268,-0.042 0.26,-0.057 L 0.137,-0.291 C 0.133,-0.298 0.13,-0.305 0.128,-0.311 0.126,-0.318 0.125,-0.325 0.125,-0.333 c 0,-0.013 0.002,-0.024 0.007,-0.035 0.004,-0.01 0.011,-0.02 0.019,-0.028 0.008,-0.008 0.017,-0.014 0.027,-0.019 0.011,-0.004 0.023,-0.006 0.035,-0.006 H 0.23 v -0.386 c 0,-0.015 0.003,-0.028 0.009,-0.041 0.005,-0.013 0.013,-0.024 0.022,-0.034 0.01,-0.009 0.021,-0.017 0.033,-0.022 0.013,-0.006 0.027,-0.009 0.041,-0.009 0.01,0 0.019,0.002 0.029,0.005 0.009,0.002 0.018,0.006 0.027,0.011 l 0.21,0.125 h 0.171 l 0.213,-0.126 c 0.016,-0.01 0.033,-0.015 0.053,-0.015 0.014,0 0.028,0.003 0.041,0.009 0.012,0.005 0.023,0.013 0.033,0.022 0.009,0.01 0.017,0.021 0.022,0.034 0.006,0.013 0.009,0.026 0.009,0.041 v 0.386 H 1.16 c 0.012,0 0.024,0.002 0.034,0.006 0.011,0.005 0.02,0.011 0.028,0.019 0.008,0.008 0.015,0.018 0.019,0.028 0.005,0.011 0.007,0.022 0.007,0.035 0,0.008 -10e-4,0.015 -0.003,0.022 -0.003,0.007 -0.006,0.014 -0.009,0.021 L 1.112,-0.055 C 1.104,-0.04 1.095,-0.025 1.086,-0.01 1.077,0.004 1.068,0.019 1.057,0.032 1.035,0.061 1.01,0.086 0.982,0.108 0.954,0.13 0.924,0.149 0.892,0.164 0.861,0.179 0.827,0.191 0.792,0.198 0.758,0.206 0.722,0.21 0.687,0.21 Z"
         style="fill-rule:nonzero"
         id="path1320" /><path
         d="M 1.073,-0.351 H 1.16 c 0.005,0 0.009,0.002 0.013,0.005 0.003,0.003 0.005,0.008 0.005,0.013 0,0.001 -0.003,0.008 -0.009,0.02 C 1.163,-0.302 1.156,-0.288 1.148,-0.271 1.139,-0.255 1.13,-0.237 1.119,-0.218 1.109,-0.198 1.099,-0.18 1.09,-0.162 1.08,-0.145 1.072,-0.129 1.064,-0.115 1.057,-0.102 1.052,-0.093 1.049,-0.088 1.042,-0.075 1.035,-0.063 1.028,-0.05 1.021,-0.038 1.013,-0.026 1.004,-0.015 0.985,0.01 0.963,0.032 0.939,0.051 0.916,0.07 0.89,0.086 0.863,0.099 0.836,0.113 0.807,0.123 0.778,0.13 0.748,0.137 0.718,0.14 0.687,0.14 0.655,0.14 0.625,0.137 0.595,0.13 0.566,0.123 0.537,0.112 0.51,0.099 0.483,0.086 0.458,0.07 0.434,0.051 0.41,0.031 0.389,0.01 0.369,-0.015 0.36,-0.026 0.352,-0.038 0.344,-0.05 0.337,-0.063 0.33,-0.075 0.323,-0.088 L 0.319,-0.095 C 0.315,-0.102 0.309,-0.113 0.302,-0.127 0.294,-0.142 0.285,-0.157 0.276,-0.175 0.267,-0.192 0.257,-0.209 0.248,-0.227 0.238,-0.245 0.23,-0.262 0.222,-0.277 0.214,-0.292 0.208,-0.305 0.203,-0.315 0.198,-0.326 0.195,-0.332 0.195,-0.333 c 0,-0.005 0.002,-0.01 0.005,-0.013 0.004,-0.003 0.008,-0.005 0.013,-0.005 H 0.3 V -0.57 L 0.302,-0.572 V -0.796 L 0.3,-0.799 c 0,-0.012 0.003,-0.022 0.008,-0.03 0.006,-0.009 0.015,-0.013 0.027,-0.013 0.003,0 0.006,0 0.01,0.001 0.004,0.001 0.007,0.002 0.009,0.004 l 0.227,0.135 H 0.583 L 0.584,-0.7 H 0.647 L 0.65,-0.702 H 0.723 L 0.724,-0.7 h 0.063 l 0.231,-0.137 c 0.002,-0.001 0.006,-0.002 0.01,-0.004 0.004,-0.001 0.007,-0.001 0.01,-0.001 0.006,0 0.012,0.001 0.016,0.004 0.005,0.002 0.008,0.006 0.011,0.01 0.003,0.004 0.005,0.008 0.006,0.014 0.001,0.005 0.002,0.011 0.002,0.017 l -0.002,0.003 v 0.219 l 0.002,0.004 z"
         style="fill:#ffc83d;fill-rule:nonzero"
         id="path1322" /><path
         d="m 0.3,-0.8 0.167,0.1 c 0.003,0.002 0.005,0.004 0.007,0.007 0.001,0.002 0.002,0.005 0.002,0.008 0,0.004 -0.001,0.007 -0.003,0.009 -0.001,0.003 -0.004,0.005 -0.006,0.007 l -0.167,0.1 z m 0.597,0.115 c 0,-0.003 0.001,-0.006 0.002,-0.008 0.002,-0.003 0.004,-0.005 0.007,-0.007 l 0.167,-0.1 v 0.231 l -0.167,-0.1 C 0.904,-0.671 0.901,-0.673 0.9,-0.676 0.898,-0.678 0.897,-0.681 0.897,-0.685 Z m -0.316,0.123 v -0.14 h 0.07 v 0.14 c 0,0.01 -0.003,0.018 -0.01,0.025 C 0.634,-0.53 0.626,-0.526 0.616,-0.526 0.607,-0.526 0.599,-0.53 0.592,-0.537 0.585,-0.544 0.581,-0.552 0.581,-0.562 Z m 0.141,0 v -0.14 h 0.07 v 0.14 c 0,0.01 -0.004,0.018 -0.011,0.025 -0.007,0.007 -0.015,0.011 -0.024,0.011 -0.01,0 -0.018,-0.004 -0.025,-0.011 -0.007,-0.007 -0.01,-0.015 -0.01,-0.025 z"
         style="fill:#d48c00;fill-rule:nonzero"
         id="path1324" /><path
         d="m 0.967,-0.141 c 0,0.039 -0.007,0.076 -0.022,0.11 C 0.931,0.003 0.911,0.033 0.885,0.058 0.86,0.083 0.83,0.104 0.796,0.118 0.762,0.133 0.725,0.14 0.687,0.14 0.648,0.14 0.611,0.133 0.577,0.118 0.543,0.104 0.513,0.083 0.488,0.058 0.462,0.033 0.442,0.003 0.428,-0.031 0.413,-0.065 0.406,-0.102 0.406,-0.141 v -0.035 c 0,-0.019 0.004,-0.037 0.011,-0.054 0.007,-0.017 0.018,-0.032 0.031,-0.044 0.012,-0.013 0.027,-0.023 0.044,-0.031 0.017,-0.007 0.035,-0.011 0.054,-0.011 h 0.037 l 0.003,0.002 h 0.199 c 0.001,0 0.002,0 0.002,-0.001 0.001,-0.001 0.002,-0.001 0.003,-0.001 h 0.037 c 0.019,0 0.037,0.004 0.054,0.011 0.017,0.008 0.032,0.018 0.045,0.031 0.012,0.012 0.023,0.027 0.03,0.044 0.008,0.017 0.011,0.035 0.011,0.054 z"
         style="fill:#ffffff;fill-rule:nonzero"
         id="path1326" /><path
         d="M 0.581,-0.316 H 0.792 L 0.711,-0.221 C 0.708,-0.218 0.704,-0.215 0.7,-0.213 0.696,-0.211 0.691,-0.21 0.687,-0.21 0.682,-0.21 0.677,-0.211 0.673,-0.213 0.669,-0.215 0.665,-0.218 0.662,-0.221 Z"
         style="fill:#f7894a;fill-rule:nonzero"
         id="path1328" /><path
         d="m 0.792,-0.105 c 0,0.009 -0.002,0.018 -0.005,0.026 -0.004,0.008 -0.009,0.016 -0.015,0.022 -0.006,0.006 -0.013,0.012 -0.021,0.015 -0.009,0.004 -0.017,0.007 -0.026,0.007 0.009,0 0.017,0.002 0.026,0.006 0.008,0.004 0.015,0.009 0.021,0.016 C 0.778,-0.007 0.783,0 0.787,0.009 0.79,0.017 0.792,0.026 0.792,0.035 0.792,0.045 0.79,0.054 0.786,0.062 0.783,0.071 0.778,0.078 0.771,0.085 0.765,0.091 0.757,0.096 0.749,0.1 0.741,0.103 0.731,0.105 0.722,0.105 H 0.616 C 0.611,0.105 0.607,0.103 0.604,0.1 0.6,0.096 0.599,0.092 0.599,0.087 0.599,0.083 0.6,0.079 0.604,0.075 0.608,0.072 0.612,0.07 0.616,0.07 H 0.722 C 0.731,0.07 0.739,0.067 0.746,0.06 0.753,0.053 0.757,0.045 0.757,0.035 0.757,0.025 0.753,0.017 0.747,0.01 0.74,0.003 0.731,0 0.722,0 H 0.669 C 0.659,0 0.651,-0.003 0.644,-0.01 0.637,-0.017 0.634,-0.025 0.634,-0.035 c 0,-0.01 0.003,-0.018 0.01,-0.025 0.007,-0.007 0.015,-0.01 0.025,-0.01 h 0.053 c 0.009,0 0.017,-0.004 0.024,-0.011 0.007,-0.007 0.011,-0.015 0.011,-0.024 0,-0.01 -0.004,-0.018 -0.011,-0.025 C 0.739,-0.137 0.731,-0.141 0.722,-0.141 H 0.616 C 0.611,-0.141 0.607,-0.142 0.604,-0.146 0.6,-0.149 0.599,-0.153 0.599,-0.158 0.599,-0.163 0.6,-0.167 0.604,-0.17 0.608,-0.174 0.612,-0.176 0.616,-0.176 h 0.106 c 0.009,0 0.019,0.002 0.027,0.006 0.008,0.004 0.016,0.009 0.022,0.015 0.007,0.006 0.012,0.014 0.015,0.022 0.004,0.009 0.006,0.018 0.006,0.028 z"
         style="fill:#cccccc;fill-rule:nonzero"
         id="path1330" /><path
         d="m 0.511,-0.491 c 0.015,0 0.029,0.003 0.041,0.008 0.013,0.006 0.024,0.013 0.033,0.023 0.01,0.009 0.017,0.02 0.023,0.033 0.005,0.012 0.008,0.026 0.008,0.041 H 0.581 c 0,-0.01 -0.003,-0.018 -0.01,-0.025 -0.007,-0.007 -0.015,-0.01 -0.025,-0.01 H 0.441 c -0.01,0 -0.018,0.003 -0.025,0.01 -0.007,0.007 -0.01,0.015 -0.01,0.025 H 0.371 c 0,-0.015 0.002,-0.029 0.008,-0.041 0.005,-0.013 0.013,-0.024 0.023,-0.033 0.009,-0.01 0.02,-0.017 0.033,-0.023 0.013,-0.005 0.026,-0.008 0.041,-0.008 z m 0.386,0 c 0.015,0 0.028,0.003 0.041,0.008 0.013,0.006 0.024,0.013 0.033,0.023 0.01,0.009 0.018,0.02 0.023,0.033 0.006,0.012 0.008,0.026 0.008,0.041 H 0.967 c 0,-0.01 -0.003,-0.018 -0.01,-0.025 C 0.95,-0.418 0.942,-0.421 0.932,-0.421 H 0.827 c -0.01,0 -0.018,0.003 -0.025,0.01 -0.007,0.007 -0.01,0.015 -0.01,0.025 H 0.757 c 0,-0.015 0.003,-0.029 0.008,-0.041 0.006,-0.013 0.013,-0.024 0.023,-0.033 0.009,-0.01 0.02,-0.017 0.033,-0.023 0.012,-0.005 0.026,-0.008 0.041,-0.008 z"
         style="fill-rule:nonzero"
         id="path1332" /></g></g></svg>
