<?xml version="1.0" encoding="UTF-8" standalone="no"?>
<svg
   width="16.844999"
   height="11.055"
   viewBox="0 0 16.844999 11.055"
   version="1.1"
   xml:space="preserve"
   style="clip-rule:evenodd;fill-rule:evenodd;stroke-linejoin:round;stroke-miterlimit:2"
   id="svg20568"
   sodipodi:docname="emojis.svg"
   xmlns:inkscape="http://www.inkscape.org/namespaces/inkscape"
   xmlns:sodipodi="http://sodipodi.sourceforge.net/DTD/sodipodi-0.dtd"
   xmlns="http://www.w3.org/2000/svg"
   xmlns:svg="http://www.w3.org/2000/svg"><defs
     id="defs20572" /><sodipodi:namedview
     id="namedview20570"
     pagecolor="#505050"
     bordercolor="#eeeeee"
     borderopacity="1"
     inkscape:pageshadow="0"
     inkscape:pageopacity="0"
     inkscape:pagecheckerboard="0" /><g
     transform="matrix(0.24,0,0,0.24,-33.8094,-681.7566)"
     id="g20566"><g
       transform="matrix(62.5,0,0,62.5,133.06,2873.59)"
       id="g13362"><path
         d="m 1.178,-0.314 c 0.01,0.002 0.019,0.005 0.028,0.011 0.008,0.005 0.016,0.011 0.022,0.019 0.006,0.008 0.011,0.016 0.015,0.026 0.003,0.01 0.005,0.019 0.005,0.029 v 0.176 c 0,0.011 -0.002,0.021 -0.005,0.03 C 1.239,-0.014 1.234,-0.005 1.228,0.003 1.222,0.01 1.214,0.017 1.206,0.022 1.197,0.028 1.188,0.031 1.178,0.033 V 0.105 H 1.093 C 1.086,0.121 1.077,0.135 1.066,0.148 1.054,0.161 1.042,0.172 1.028,0.181 1.014,0.191 0.999,0.198 0.982,0.203 0.966,0.208 0.949,0.21 0.932,0.21 0.915,0.21 0.898,0.208 0.882,0.203 0.866,0.198 0.85,0.191 0.836,0.181 0.822,0.172 0.809,0.161 0.798,0.148 0.787,0.135 0.778,0.121 0.771,0.105 H 0.566 C 0.56,0.121 0.551,0.135 0.539,0.148 0.528,0.161 0.515,0.172 0.501,0.181 0.487,0.191 0.472,0.198 0.456,0.203 0.439,0.208 0.423,0.21 0.406,0.21 0.389,0.21 0.372,0.208 0.355,0.203 0.339,0.198 0.324,0.191 0.31,0.181 0.296,0.172 0.283,0.161 0.272,0.148 0.261,0.135 0.252,0.121 0.245,0.105 h -0.12 v -0.316 c 0,-0.015 0.003,-0.028 0.008,-0.041 0.006,-0.013 0.013,-0.024 0.023,-0.033 0.01,-0.01 0.021,-0.018 0.033,-0.023 0.013,-0.006 0.027,-0.008 0.041,-0.008 H 0.355 L 0.401,-0.455 C 0.405,-0.465 0.41,-0.475 0.417,-0.484 0.423,-0.493 0.431,-0.5 0.44,-0.507 0.449,-0.513 0.458,-0.518 0.469,-0.521 0.479,-0.525 0.49,-0.527 0.501,-0.527 h 0.572 c 0.014,0 0.028,0.003 0.04,0.009 0.013,0.005 0.024,0.013 0.034,0.023 0.009,0.009 0.017,0.02 0.022,0.033 0.006,0.013 0.009,0.027 0.009,0.041 z"
         style="fill-rule:nonzero"
         id="path13346" /><path
         d="m 1.107,-0.229 0.017,0.02 v 0.136 l -0.017,0.02 v 0.018 L 1.073,0.01 H 0.229 L 0.195,-0.035 v -0.07 L 0.22,-0.14 0.195,-0.176 v -0.035 c 0,-0.01 0.004,-0.018 0.011,-0.025 0.006,-0.007 0.015,-0.01 0.024,-0.01 H 0.406 L 0.449,-0.28 h 0.578 l 0.046,0.034 h 0.034 z"
         style="fill:#13a10e;fill-rule:nonzero"
         id="path13348" /><rect
         x="1.073"
         y="-0.176"
         width="0.048999999"
         height="0.07"
         style="fill:#f03a17;fill-rule:nonzero"
         id="rect13350" /><path
         d="m 0.406,-0.09 c 0.011,0 0.023,0.003 0.037,0.007 0.014,0.005 0.026,0.012 0.038,0.02 0.012,0.009 0.022,0.018 0.03,0.03 0.008,0.011 0.012,0.023 0.012,0.035 0,0.006 -0.001,0.012 -0.003,0.017 C 0.518,0.025 0.515,0.03 0.511,0.035 0.511,0.049 0.508,0.063 0.503,0.076 0.497,0.088 0.49,0.1 0.48,0.109 0.471,0.119 0.459,0.126 0.447,0.132 0.434,0.137 0.42,0.14 0.406,0.14 0.391,0.14 0.377,0.137 0.365,0.132 0.352,0.126 0.341,0.119 0.331,0.109 0.322,0.1 0.314,0.088 0.309,0.076 0.303,0.063 0.3,0.049 0.3,0.035 0.295,0.027 0.293,0.017 0.293,0.007 0.293,-0.005 0.297,-0.018 0.304,-0.029 0.311,-0.041 0.32,-0.051 0.332,-0.06 0.343,-0.069 0.355,-0.076 0.368,-0.082 0.382,-0.087 0.394,-0.09 0.406,-0.09 Z m 0.526,0 c 0.011,0 0.024,0.003 0.037,0.008 0.014,0.005 0.027,0.012 0.039,0.02 0.011,0.008 0.021,0.018 0.03,0.03 C 1.046,-0.021 1.05,-0.009 1.05,0.003 1.05,0.009 1.049,0.014 1.046,0.02 1.044,0.025 1.041,0.03 1.038,0.035 1.038,0.049 1.035,0.063 1.029,0.076 1.024,0.088 1.016,0.1 1.007,0.109 0.997,0.119 0.986,0.126 0.973,0.132 0.96,0.137 0.947,0.14 0.932,0.14 0.917,0.14 0.904,0.137 0.891,0.132 0.878,0.126 0.867,0.119 0.858,0.109 0.848,0.1 0.84,0.088 0.835,0.076 0.829,0.063 0.827,0.049 0.827,0.035 0.819,0.025 0.815,0.014 0.815,0.002 c 0,-0.012 0.004,-0.024 0.012,-0.035 0.008,-0.011 0.018,-0.021 0.03,-0.03 0.012,-0.008 0.024,-0.015 0.038,-0.02 C 0.908,-0.087 0.921,-0.09 0.932,-0.09 Z M 1.16,-0.035 H 1.125 C 1.12,-0.035 1.116,-0.037 1.113,-0.041 1.109,-0.044 1.107,-0.048 1.107,-0.053 v -0.176 c 0,-0.004 0.002,-0.008 0.006,-0.012 0.003,-0.003 0.007,-0.005 0.012,-0.005 H 1.16 c 0.005,0 0.009,0.002 0.013,0.005 0.003,0.003 0.005,0.008 0.005,0.012 v 0.176 c 0,0.005 -0.002,0.009 -0.006,0.012 -0.003,0.004 -0.007,0.006 -0.012,0.006 z"
         style="fill:#383838;fill-rule:nonzero"
         id="path13352" /><path
         d="m 1.107,-0.421 v 0.175 H 0.406 C 0.413,-0.251 0.421,-0.257 0.43,-0.265 0.439,-0.272 0.448,-0.28 0.456,-0.288 0.464,-0.297 0.471,-0.305 0.477,-0.315 0.482,-0.324 0.485,-0.333 0.485,-0.343 0.485,-0.356 0.483,-0.369 0.478,-0.383 0.473,-0.397 0.469,-0.41 0.464,-0.421 0.467,-0.431 0.471,-0.439 0.476,-0.446 0.482,-0.453 0.49,-0.457 0.501,-0.457 h 0.572 c 0.009,0 0.017,0.004 0.024,0.011 0.007,0.007 0.01,0.015 0.01,0.025 z m -0.053,0.386 h 0.053 v 0.07 H 1.038 C 1.038,0.02 1.035,0.006 1.029,-0.006 1.024,-0.019 1.016,-0.03 1.007,-0.04 0.997,-0.049 0.986,-0.056 0.973,-0.062 0.96,-0.068 0.947,-0.07 0.932,-0.07 0.917,-0.07 0.904,-0.068 0.891,-0.062 0.878,-0.056 0.867,-0.049 0.858,-0.04 0.848,-0.03 0.84,-0.019 0.835,-0.006 0.829,0.006 0.827,0.02 0.827,0.035 H 0.511 C 0.511,0.02 0.508,0.006 0.503,-0.006 0.497,-0.019 0.49,-0.03 0.48,-0.04 0.471,-0.049 0.459,-0.056 0.447,-0.062 0.434,-0.068 0.42,-0.07 0.406,-0.07 0.391,-0.07 0.377,-0.068 0.365,-0.062 0.352,-0.056 0.341,-0.049 0.331,-0.04 0.322,-0.03 0.314,-0.019 0.309,-0.006 0.303,0.006 0.3,0.02 0.3,0.035 H 0.195 v -0.07 h 0.089 c 0.013,-0.022 0.03,-0.039 0.051,-0.052 0.022,-0.012 0.045,-0.018 0.071,-0.018 0.016,0 0.031,0.002 0.046,0.007 0.014,0.005 0.028,0.012 0.04,0.022 0.012,0.009 0.022,0.02 0.031,0.033 C 0.531,-0.03 0.538,-0.016 0.542,0 h 0.254 c 0.004,-0.016 0.011,-0.03 0.019,-0.043 0.009,-0.013 0.019,-0.024 0.031,-0.033 0.012,-0.01 0.026,-0.017 0.04,-0.022 0.015,-0.005 0.03,-0.007 0.046,-0.007 0.026,0 0.049,0.006 0.07,0.018 0.022,0.013 0.039,0.03 0.052,0.052 z"
         style="fill:#107c10;fill-rule:nonzero"
         id="path13354" /><path
         d="m 0.862,-0.421 h 0.211 v 0.175 H 0.862 Z m -0.246,0 v 0.175 h -0.21 l 0.058,-0.175 z m 0.035,0.175 v -0.175 h 0.176 v 0.175 z"
         style="fill:#31d2f7;fill-rule:nonzero"
         id="path13356" /><path
         d="M 0.406,0 C 0.415,0 0.423,0.003 0.43,0.01 0.437,0.017 0.441,0.025 0.441,0.035 0.441,0.044 0.437,0.053 0.431,0.06 0.424,0.066 0.416,0.07 0.406,0.07 0.396,0.07 0.388,0.066 0.381,0.06 0.374,0.053 0.371,0.044 0.371,0.035 0.371,0.025 0.374,0.017 0.381,0.01 0.388,0.003 0.396,0 0.406,0 Z m 0.526,0 c 0.01,0 0.018,0.003 0.025,0.01 0.007,0.007 0.01,0.015 0.01,0.025 0,0.009 -0.003,0.018 -0.01,0.025 C 0.95,0.066 0.942,0.07 0.932,0.07 0.922,0.07 0.914,0.066 0.907,0.06 0.9,0.053 0.897,0.044 0.897,0.035 0.897,0.025 0.9,0.017 0.907,0.01 0.914,0.003 0.923,0 0.932,0 Z M 0.476,-0.281 v 0.07 H 0.441 v -0.07 z"
         style="fill:#e5e5e5;fill-rule:nonzero"
         id="path13358" /><rect
         x="0.19499999"
         y="-0.176"
         width="0.035"
         height="0.07"
         style="fill:#f8ffb3;fill-rule:nonzero"
         id="rect13360" /></g></g></svg>
