<?xml version="1.0" encoding="UTF-8" standalone="no"?>
<svg
   width="16.844999"
   height="13.155"
   viewBox="0 0 16.844999 13.155"
   version="1.1"
   xml:space="preserve"
   style="clip-rule:evenodd;fill-rule:evenodd;stroke-linejoin:round;stroke-miterlimit:2"
   id="svg20568"
   sodipodi:docname="emojis.svg"
   xmlns:inkscape="http://www.inkscape.org/namespaces/inkscape"
   xmlns:sodipodi="http://sodipodi.sourceforge.net/DTD/sodipodi-0.dtd"
   xmlns="http://www.w3.org/2000/svg"
   xmlns:svg="http://www.w3.org/2000/svg"><defs
     id="defs20572" /><sodipodi:namedview
     id="namedview20570"
     pagecolor="#505050"
     bordercolor="#eeeeee"
     borderopacity="1"
     inkscape:pageshadow="0"
     inkscape:pageopacity="0"
     inkscape:pagecheckerboard="0" /><g
     transform="matrix(0.24,0,0,0.24,-13.213584,-679.6566)"
     id="g20566"><g
       transform="matrix(62.5,0,0,62.5,47.2441,2873.59)"
       id="g13344"><path
         d="m 1.109,-0.457 c 0.014,0.001 0.028,0.004 0.04,0.009 0.013,0.006 0.024,0.014 0.033,0.023 0.01,0.01 0.017,0.021 0.022,0.033 0.006,0.013 0.008,0.026 0.008,0.04 v 0.248 c 0.012,0.012 0.021,0.025 0.027,0.04 0.006,0.015 0.009,0.03 0.009,0.046 0,0.016 -0.003,0.031 -0.009,0.046 C 1.233,0.043 1.224,0.056 1.212,0.068 V 0.21 H 0.932 V 0.105 H 0.44 V 0.21 H 0.16 V 0.068 C 0.148,0.056 0.14,0.043 0.134,0.028 0.128,0.013 0.125,-0.002 0.125,-0.018 c 0,-0.016 0.003,-0.031 0.009,-0.046 0.006,-0.015 0.014,-0.028 0.026,-0.04 v -0.248 c 0,-0.014 0.002,-0.027 0.008,-0.04 0.006,-0.012 0.013,-0.023 0.022,-0.033 0.01,-0.009 0.021,-0.017 0.033,-0.023 0.013,-0.005 0.026,-0.008 0.04,-0.009 0.009,-0.035 0.018,-0.07 0.027,-0.105 0.009,-0.034 0.017,-0.07 0.026,-0.105 h 0.741 z"
         style="fill-rule:nonzero"
         id="path13328" /><path
         d="M 0.23,0.14 V 0 H 0.371 V 0.14 Z M 1.002,0 H 1.143 V 0.14 H 1.002 Z"
         style="fill:#383838;fill-rule:nonzero"
         id="path13330" /><path
         d="m 0.23,-0.352 c 0,-0.009 0.004,-0.017 0.011,-0.024 0.007,-0.007 0.015,-0.011 0.024,-0.011 h 0.07 v 0.071 H 0.265 C 0.256,-0.316 0.248,-0.32 0.241,-0.327 0.234,-0.334 0.23,-0.342 0.23,-0.352 Z m 0.877,-0.035 c 0.01,0 0.018,0.004 0.025,0.011 0.007,0.007 0.011,0.015 0.011,0.024 0,0.01 -0.004,0.019 -0.011,0.025 -0.007,0.007 -0.015,0.011 -0.025,0.011 H 1.038 v -0.071 z"
         style="fill:#757575;fill-rule:nonzero"
         id="path13332" /><path
         d="m 1.073,-0.316 c 0.01,0 0.019,0.001 0.027,0.005 0.009,0.004 0.016,0.009 0.022,0.015 0.007,0.007 0.012,0.014 0.015,0.023 0.004,0.008 0.006,0.017 0.006,0.027 v 0.21 H 0.23 v -0.21 c 0,-0.01 0.002,-0.019 0.006,-0.027 0.003,-0.009 0.008,-0.016 0.015,-0.023 0.006,-0.006 0.013,-0.011 0.022,-0.015 0.008,-0.004 0.018,-0.005 0.027,-0.005 z"
         style="fill:#3a96dd;fill-rule:nonzero"
         id="path13334" /><path
         d="M 1.002,-0.246 H 0.371 L 0.3,-0.316 0.371,-0.597 h 0.631 l 0.071,0.281 z m 0.123,0.175 c 0.007,0 0.014,0.002 0.02,0.004 0.007,0.003 0.012,0.007 0.017,0.012 0.005,0.005 0.009,0.01 0.012,0.017 0.002,0.006 0.004,0.013 0.004,0.02 0,0.007 -0.002,0.014 -0.004,0.021 C 1.171,0.009 1.167,0.015 1.162,0.019 1.158,0.024 1.152,0.028 1.146,0.031 1.139,0.033 1.132,0.035 1.125,0.035 H 0.248 C 0.241,0.035 0.234,0.033 0.227,0.031 0.221,0.028 0.215,0.024 0.211,0.019 0.206,0.015 0.202,0.009 0.199,0.003 0.197,-0.004 0.195,-0.011 0.195,-0.018 c 0,-0.007 0.002,-0.014 0.004,-0.02 0.003,-0.007 0.007,-0.012 0.012,-0.017 0.005,-0.005 0.01,-0.009 0.017,-0.012 0.006,-0.002 0.013,-0.004 0.02,-0.004 z"
         style="fill:#0078d7;fill-rule:nonzero"
         id="path13336" /><path
         d="M 1.029,-0.316 H 0.344 l 0.062,-0.246 h 0.561 z"
         style="fill:#31d2f7;fill-rule:nonzero"
         id="path13338" /><path
         d="m 0.353,-0.211 c 0.007,0 0.014,0.001 0.021,0.004 0.006,0.003 0.012,0.007 0.016,0.011 0.005,0.005 0.009,0.011 0.012,0.017 0.002,0.007 0.004,0.014 0.004,0.021 0,0.007 -0.002,0.014 -0.004,0.021 C 0.399,-0.131 0.395,-0.126 0.39,-0.121 0.385,-0.117 0.38,-0.113 0.373,-0.11 0.367,-0.107 0.36,-0.106 0.353,-0.106 0.346,-0.106 0.339,-0.107 0.333,-0.11 0.326,-0.113 0.321,-0.117 0.316,-0.121 0.311,-0.126 0.307,-0.132 0.304,-0.138 0.302,-0.144 0.3,-0.151 0.3,-0.158 0.3,-0.165 0.302,-0.172 0.304,-0.178 0.307,-0.185 0.311,-0.19 0.316,-0.195 0.321,-0.2 0.326,-0.204 0.333,-0.207 0.339,-0.21 0.346,-0.211 0.353,-0.211 Z m 0.667,0 c 0.007,0 0.014,0.001 0.02,0.004 0.007,0.003 0.012,0.007 0.017,0.012 0.005,0.005 0.009,0.01 0.012,0.017 0.002,0.006 0.004,0.013 0.004,0.02 0,0.007 -0.002,0.014 -0.004,0.02 C 1.066,-0.132 1.062,-0.126 1.057,-0.121 1.052,-0.117 1.047,-0.113 1.04,-0.11 1.034,-0.107 1.027,-0.106 1.02,-0.106 1.013,-0.106 1.006,-0.107 1,-0.11 0.993,-0.113 0.988,-0.117 0.983,-0.121 0.978,-0.126 0.974,-0.131 0.971,-0.137 0.969,-0.144 0.967,-0.151 0.967,-0.158 0.967,-0.165 0.969,-0.172 0.971,-0.179 0.974,-0.185 0.978,-0.191 0.983,-0.196 0.987,-0.2 0.993,-0.204 0.999,-0.207 1.006,-0.21 1.013,-0.211 1.02,-0.211 Z"
         style="fill:#faec6e;fill-rule:nonzero"
         id="path13340" /><path
         d="m 0.897,-0.158 v 0.052 H 0.476 v -0.052 c 0,-0.007 0.001,-0.014 0.004,-0.021 C 0.483,-0.185 0.487,-0.191 0.491,-0.196 0.496,-0.2 0.502,-0.204 0.508,-0.207 0.514,-0.21 0.521,-0.211 0.529,-0.211 h 0.315 c 0.007,0 0.014,0.001 0.021,0.004 0.006,0.003 0.012,0.007 0.017,0.011 0.004,0.005 0.008,0.011 0.011,0.017 0.003,0.007 0.004,0.014 0.004,0.021 z"
         style="fill:#cccccc;fill-rule:nonzero"
         id="path13342" /></g></g></svg>
