<?xml version="1.0" encoding="UTF-8" standalone="no"?>
<svg
   width="16.844999"
   height="8.415"
   viewBox="0 0 16.844999 8.415"
   version="1.1"
   xml:space="preserve"
   style="clip-rule:evenodd;fill-rule:evenodd;stroke-linejoin:round;stroke-miterlimit:2"
   id="svg20568"
   sodipodi:docname="emojis.svg"
   xmlns:inkscape="http://www.inkscape.org/namespaces/inkscape"
   xmlns:sodipodi="http://sodipodi.sourceforge.net/DTD/sodipodi-0.dtd"
   xmlns="http://www.w3.org/2000/svg"
   xmlns:svg="http://www.w3.org/2000/svg"><defs
     id="defs20572" /><sodipodi:namedview
     id="namedview20570"
     pagecolor="#505050"
     bordercolor="#eeeeee"
     borderopacity="1"
     inkscape:pageshadow="0"
     inkscape:pageopacity="0"
     inkscape:pagecheckerboard="0" /><g
     transform="matrix(0.24,0,0,0.24,-116.19204,-684.3966)"
     id="g20566"><g
       transform="matrix(62.5,0,0,62.5,476.321,2873.59)"
       id="g13440"><path
         d="m 0.967,-0.316 h 0.281 v 0.38 L 1.137,0.175 H 1.083 C 1.066,0.187 1.047,0.195 1.028,0.201 1.008,0.207 0.988,0.21 0.967,0.21 0.947,0.21 0.927,0.207 0.907,0.201 0.887,0.195 0.869,0.187 0.852,0.175 H 0.556 C 0.539,0.187 0.521,0.195 0.501,0.201 0.482,0.207 0.461,0.21 0.441,0.21 0.42,0.21 0.4,0.207 0.381,0.201 0.361,0.195 0.343,0.187 0.326,0.175 H 0.125 V 0 l 0.12,-0.077 c 0.007,-0.02 0.018,-0.038 0.031,-0.054 0.014,-0.017 0.029,-0.031 0.046,-0.043 0.018,-0.011 0.036,-0.021 0.056,-0.027 0.021,-0.007 0.041,-0.01 0.063,-0.01 0.018,0 0.037,0.003 0.054,0.007 0.018,0.005 0.035,0.012 0.051,0.022 V -0.21 c 0,-0.02 0.004,-0.038 0.011,-0.055 0.007,-0.017 0.017,-0.032 0.03,-0.045 0.013,-0.013 0.028,-0.023 0.045,-0.03 0.017,-0.007 0.035,-0.011 0.055,-0.011 0.025,0 0.048,0.006 0.069,0.019 0.022,0.012 0.039,0.029 0.051,0.051 0.029,0 0.057,0.003 0.083,0.008 0.025,0.006 0.051,0.016 0.077,0.03 z"
         style="fill-rule:nonzero"
         id="path13426" /><path
         d="m 0.792,-0.211 h 0.035 c 0.029,0 0.056,0.006 0.082,0.016 0.025,0.011 0.048,0.026 0.067,0.045 0.019,0.019 0.034,0.041 0.045,0.067 C 1.032,-0.057 1.038,-0.03 1.038,0 V -0.176 L 1.062,-0.193 1.038,-0.211 v -0.035 h 0.14 v 0.035 l -0.025,0.018 0.025,0.018 v 0.21 L 1.114,0.06 1.038,0.056 V 0.052 C 1.028,0.054 1.019,0.055 1.01,0.057 1.002,0.059 0.992,0.06 0.983,0.06 H 0.245 L 0.195,0.035 0.371,-0.07 h 0.351 c 0.009,0 0.019,-0.002 0.027,-0.006 0.008,-0.004 0.016,-0.009 0.022,-0.015 0.007,-0.006 0.012,-0.014 0.015,-0.022 0.004,-0.009 0.006,-0.018 0.006,-0.028 z"
         style="fill:#ffffff;fill-rule:nonzero"
         id="path13428" /><path
         d="M 0.967,0.035 H 1.178 L 1.107,0.105 H 0.195 V 0.035 H 0.573 C 0.578,0.027 0.583,0.02 0.588,0.015 0.594,0.011 0.599,0.007 0.606,0.005 0.612,0.003 0.619,0.001 0.627,0.001 0.634,0 0.643,0 0.651,0 h 0.316 z m -0.28,-0.14 c -0.01,0 -0.019,-0.002 -0.028,-0.006 C 0.651,-0.115 0.643,-0.12 0.637,-0.126 0.631,-0.133 0.626,-0.14 0.622,-0.148 0.618,-0.157 0.616,-0.166 0.616,-0.176 L 0.641,-0.193 0.616,-0.21 c 0,-0.01 0.002,-0.019 0.006,-0.028 0.004,-0.008 0.009,-0.016 0.015,-0.022 0.006,-0.006 0.014,-0.011 0.022,-0.015 0.009,-0.004 0.018,-0.006 0.028,-0.006 0.009,0 0.018,0.002 0.027,0.006 0.008,0.004 0.016,0.009 0.022,0.015 0.006,0.006 0.011,0.014 0.015,0.022 0.004,0.009 0.006,0.018 0.006,0.028 v 0.034 c 0,0.01 -0.002,0.019 -0.006,0.028 C 0.747,-0.14 0.742,-0.133 0.736,-0.126 0.73,-0.12 0.722,-0.115 0.714,-0.111 0.705,-0.107 0.696,-0.105 0.687,-0.105 Z"
         style="fill:#f03a17;fill-rule:nonzero"
         id="path13430" /><rect
         x="1.038"
         y="-0.20999999"
         width="0.14"
         height="0.035"
         style="fill:#ffb900;fill-rule:nonzero"
         id="rect13432" /><path
         d="M 0.687,-0.176 H 0.616 V -0.21 h 0.106 z"
         style="fill:#69eaff;fill-rule:nonzero"
         id="path13434" /><path
         d="m 0.441,-0.141 c 0.019,0 0.038,0.004 0.055,0.011 0.017,0.008 0.031,0.018 0.044,0.03 0.013,0.013 0.023,0.028 0.03,0.045 C 0.577,-0.038 0.581,-0.02 0.581,0 0.581,0.019 0.577,0.037 0.57,0.054 0.563,0.072 0.553,0.086 0.54,0.099 0.527,0.112 0.512,0.122 0.495,0.129 0.478,0.136 0.46,0.14 0.441,0.14 0.422,0.14 0.404,0.136 0.387,0.129 0.37,0.121 0.355,0.111 0.342,0.099 0.329,0.086 0.319,0.071 0.312,0.054 0.304,0.037 0.3,0.019 0.3,0 0.3,-0.02 0.304,-0.038 0.311,-0.055 0.319,-0.072 0.329,-0.087 0.341,-0.1 0.354,-0.112 0.369,-0.122 0.386,-0.13 0.403,-0.137 0.421,-0.141 0.441,-0.141 Z m 0.526,0 c 0.02,0 0.038,0.004 0.055,0.011 0.017,0.008 0.032,0.018 0.044,0.03 0.013,0.013 0.023,0.028 0.03,0.045 C 1.104,-0.038 1.107,-0.02 1.107,0 1.107,0.019 1.104,0.037 1.096,0.054 1.089,0.072 1.079,0.086 1.066,0.099 1.054,0.112 1.039,0.122 1.022,0.129 1.005,0.136 0.986,0.14 0.967,0.14 0.948,0.14 0.93,0.136 0.913,0.129 0.896,0.121 0.881,0.111 0.868,0.099 0.856,0.086 0.845,0.071 0.838,0.054 0.83,0.037 0.827,0.019 0.827,0 0.827,-0.02 0.83,-0.038 0.838,-0.055 0.845,-0.072 0.855,-0.087 0.868,-0.1 0.88,-0.112 0.895,-0.122 0.912,-0.13 0.929,-0.137 0.948,-0.141 0.967,-0.141 Z"
         style="fill:#383838;fill-rule:nonzero"
         id="path13436" /><path
         d="m 0.441,-0.07 c 0.01,0 0.019,0.002 0.027,0.005 0.009,0.004 0.016,0.009 0.022,0.015 0.007,0.007 0.012,0.014 0.016,0.023 C 0.509,-0.019 0.511,-0.01 0.511,0 0.511,0.01 0.509,0.019 0.506,0.027 0.502,0.036 0.497,0.043 0.49,0.05 0.484,0.056 0.477,0.061 0.468,0.064 0.46,0.068 0.451,0.07 0.441,0.07 0.431,0.07 0.422,0.068 0.414,0.064 0.405,0.061 0.398,0.056 0.391,0.05 0.385,0.043 0.38,0.036 0.376,0.027 0.372,0.019 0.371,0.01 0.371,0 0.371,-0.01 0.372,-0.019 0.376,-0.027 0.38,-0.036 0.385,-0.043 0.391,-0.05 0.397,-0.056 0.405,-0.061 0.413,-0.065 0.422,-0.068 0.431,-0.07 0.441,-0.07 Z m 0.526,0 c 0.01,0 0.019,0.002 0.028,0.005 0.008,0.004 0.015,0.009 0.022,0.015 0.006,0.007 0.011,0.014 0.015,0.023 C 1.036,-0.019 1.038,-0.01 1.038,0 1.038,0.01 1.036,0.019 1.032,0.027 1.028,0.036 1.023,0.043 1.017,0.05 1.01,0.056 1.003,0.061 0.995,0.064 0.986,0.068 0.977,0.07 0.967,0.07 0.958,0.07 0.948,0.068 0.94,0.064 0.931,0.061 0.924,0.056 0.918,0.05 0.911,0.043 0.906,0.036 0.903,0.027 0.899,0.019 0.897,0.01 0.897,0 0.897,-0.01 0.899,-0.019 0.903,-0.027 0.906,-0.036 0.911,-0.043 0.918,-0.05 0.924,-0.056 0.931,-0.061 0.94,-0.065 0.948,-0.068 0.958,-0.07 0.967,-0.07 Z"
         style="fill:#cccccc;fill-rule:nonzero"
         id="path13438" /></g></g></svg>
