<?xml version="1.0" encoding="UTF-8" standalone="no"?>
<svg
   width="16.844999"
   height="13.68"
   viewBox="0 0 16.844999 13.68"
   version="1.1"
   xml:space="preserve"
   style="clip-rule:evenodd;fill-rule:evenodd;stroke-linejoin:round;stroke-miterlimit:2"
   id="svg20568"
   sodipodi:docname="emojis.svg"
   xmlns:inkscape="http://www.inkscape.org/namespaces/inkscape"
   xmlns:sodipodi="http://sodipodi.sourceforge.net/DTD/sodipodi-0.dtd"
   xmlns="http://www.w3.org/2000/svg"
   xmlns:svg="http://www.w3.org/2000/svg"><defs
     id="defs20572" /><sodipodi:namedview
     id="namedview20570"
     pagecolor="#505050"
     bordercolor="#eeeeee"
     borderopacity="1"
     inkscape:pageshadow="0"
     inkscape:pageopacity="0"
     inkscape:pagecheckerboard="0" /><g
     transform="matrix(0.24,0,0,0.24,-95.59644,-679.1316)"
     id="g20566"><g
       transform="matrix(62.5,0,0,62.5,390.506,2873.59)"
       id="g13424"><path
         d="m 1.107,-0.333 c 0.022,0.015 0.041,0.032 0.059,0.051 0.017,0.019 0.032,0.04 0.044,0.063 0.012,0.023 0.022,0.047 0.028,0.072 0.007,0.025 0.01,0.051 0.01,0.077 V 0 H 1.204 C 1.196,0.031 1.183,0.059 1.166,0.085 1.148,0.111 1.128,0.133 1.104,0.151 1.08,0.17 1.053,0.184 1.024,0.195 0.995,0.205 0.964,0.21 0.932,0.21 0.911,0.21 0.89,0.208 0.87,0.203 0.849,0.199 0.829,0.192 0.811,0.183 0.792,0.174 0.774,0.162 0.758,0.149 0.741,0.136 0.726,0.122 0.713,0.105 H 0.461 C 0.454,0.121 0.445,0.135 0.434,0.148 0.423,0.161 0.41,0.172 0.396,0.181 0.382,0.191 0.367,0.198 0.351,0.203 0.335,0.208 0.318,0.21 0.3,0.21 0.276,0.21 0.253,0.206 0.232,0.197 0.211,0.188 0.192,0.175 0.176,0.159 0.16,0.143 0.148,0.125 0.139,0.103 0.13,0.082 0.125,0.059 0.125,0.035 0.125,0.018 0.128,0.001 0.133,-0.016 0.138,-0.032 0.145,-0.047 0.154,-0.061 0.163,-0.075 0.174,-0.088 0.187,-0.099 0.2,-0.11 0.215,-0.119 0.23,-0.126 v -0.19 c 0,-0.019 0.004,-0.037 0.012,-0.054 0.007,-0.017 0.017,-0.032 0.03,-0.045 0.013,-0.013 0.027,-0.023 0.044,-0.03 0.017,-0.008 0.035,-0.012 0.055,-0.012 0,-0.014 0.002,-0.028 0.008,-0.041 0.005,-0.012 0.013,-0.023 0.023,-0.033 0.009,-0.009 0.02,-0.017 0.033,-0.022 0.013,-0.006 0.027,-0.009 0.041,-0.009 h 0.07 v 0.089 l 0.035,-0.07 v -0.159 h 0.526 z"
         style="fill-rule:nonzero"
         id="path13406" /><path
         d="m 0.441,-0.457 c 0,-0.009 0.003,-0.017 0.01,-0.024 0.007,-0.007 0.016,-0.01 0.025,-0.01 v 0.13 H 0.441 Z"
         style="fill:#cccccc;fill-rule:nonzero"
         id="path13408" /><path
         d="M 0.546,-0.316 0.687,-0.597 1.02,-0.623 v 0.342 L 0.821,-0.304 C 0.805,-0.306 0.788,-0.309 0.772,-0.312 0.755,-0.314 0.739,-0.316 0.722,-0.316 Z"
         style="fill:#69eaff;fill-rule:nonzero"
         id="path13410" /><path
         d="m 1.038,-0.632 v 0.65 H 0.3 V -0.105 L 0.316,-0.123 0.3,-0.141 V -0.176 L 0.315,-0.193 0.3,-0.211 V -0.246 L 0.319,-0.263 0.3,-0.281 v -0.035 c 0,-0.01 0.002,-0.019 0.006,-0.027 0.004,-0.009 0.009,-0.016 0.015,-0.022 0.006,-0.007 0.014,-0.012 0.022,-0.016 0.009,-0.003 0.018,-0.005 0.028,-0.005 H 0.757 V -0.597 H 0.651 v -0.035 z m -0.036,0.035 h -0.21 v 0.211 h 0.21 z"
         style="fill:#13a10e;fill-rule:nonzero"
         id="path13412" /><path
         d="M 0.897,0.035 H 0.3 V 0 H 0.897 Z M 0.3,-0.141 h 0.071 v 0.036 H 0.3 Z m 0,-0.07 h 0.071 v 0.035 H 0.3 Z m 0,-0.07 h 0.071 v 0.035 H 0.3 Z"
         style="fill:#f2f2f2;fill-rule:nonzero"
         id="path13414" /><rect
         x="0.40599999"
         y="-0.176"
         width="0.31600001"
         height="0.07"
         style="fill:#383838;fill-rule:nonzero"
         id="rect13416" /><path
         d="m 0.687,-0.07 c 0,-0.034 0.006,-0.066 0.019,-0.096 0.013,-0.03 0.03,-0.056 0.053,-0.078 0.022,-0.022 0.048,-0.04 0.078,-0.053 0.029,-0.012 0.061,-0.019 0.095,-0.019 0.034,0 0.066,0.007 0.096,0.019 0.029,0.013 0.055,0.031 0.078,0.053 0.022,0.022 0.04,0.048 0.052,0.078 0.013,0.03 0.02,0.062 0.02,0.096 z"
         style="fill:#107c10;fill-rule:nonzero"
         id="path13418" /><path
         d="M 0.406,0.035 C 0.406,0.05 0.403,0.063 0.397,0.076 0.392,0.089 0.384,0.1 0.375,0.109 0.365,0.119 0.354,0.126 0.341,0.132 0.329,0.137 0.315,0.14 0.3,0.14 0.286,0.14 0.272,0.137 0.259,0.132 0.247,0.126 0.236,0.119 0.226,0.109 0.217,0.1 0.209,0.089 0.204,0.076 0.198,0.063 0.195,0.05 0.195,0.035 0.195,0.021 0.198,0.007 0.204,-0.006 0.209,-0.019 0.217,-0.03 0.226,-0.039 0.236,-0.049 0.247,-0.056 0.259,-0.062 0.272,-0.068 0.286,-0.07 0.3,-0.07 c 0.015,0 0.029,0.002 0.041,0.008 0.013,0.006 0.024,0.013 0.034,0.023 0.009,0.009 0.017,0.02 0.022,0.033 0.006,0.013 0.009,0.027 0.009,0.041 z M 0.722,-0.07 c 0,-0.029 0.005,-0.057 0.016,-0.082 0.011,-0.026 0.026,-0.048 0.045,-0.067 0.019,-0.019 0.042,-0.034 0.067,-0.045 0.026,-0.011 0.053,-0.017 0.082,-0.017 0.029,0 0.056,0.006 0.082,0.017 0.025,0.011 0.048,0.026 0.067,0.045 0.019,0.019 0.034,0.041 0.045,0.067 0.011,0.025 0.017,0.053 0.017,0.082 0,0.029 -0.006,0.056 -0.017,0.081 C 1.115,0.037 1.1,0.059 1.081,0.078 1.062,0.097 1.039,0.112 1.014,0.124 0.988,0.135 0.961,0.14 0.932,0.14 0.903,0.14 0.876,0.135 0.85,0.124 0.825,0.112 0.802,0.097 0.783,0.078 0.764,0.059 0.749,0.037 0.738,0.011 0.727,-0.014 0.722,-0.041 0.722,-0.07 Z"
         style="fill:#383838;fill-rule:nonzero"
         id="path13420" /><path
         d="m 0.335,0.035 c 0,0.01 -0.003,0.018 -0.01,0.025 C 0.318,0.067 0.31,0.07 0.3,0.07 0.291,0.07 0.283,0.067 0.276,0.06 0.269,0.053 0.265,0.045 0.265,0.035 0.265,0.026 0.269,0.017 0.276,0.01 0.283,0.003 0.291,0 0.3,0 0.31,0 0.318,0.003 0.325,0.01 0.332,0.017 0.335,0.025 0.335,0.035 Z M 1.002,-0.07 c 0,0.009 -0.001,0.019 -0.005,0.027 C 0.993,-0.035 0.988,-0.027 0.982,-0.021 0.975,-0.014 0.968,-0.009 0.959,-0.006 0.951,-0.002 0.942,0 0.932,0 0.922,0 0.913,-0.002 0.905,-0.006 0.896,-0.009 0.889,-0.014 0.883,-0.021 0.876,-0.027 0.871,-0.035 0.867,-0.043 0.864,-0.051 0.862,-0.061 0.862,-0.07 c 0,-0.01 0.002,-0.019 0.005,-0.028 0.004,-0.008 0.009,-0.016 0.016,-0.022 0.006,-0.006 0.013,-0.011 0.022,-0.015 0.008,-0.004 0.017,-0.006 0.027,-0.006 0.01,0 0.019,0.002 0.027,0.006 0.009,0.004 0.016,0.009 0.023,0.015 0.006,0.006 0.011,0.014 0.015,0.022 0.004,0.009 0.005,0.018 0.005,0.028 z"
         style="fill:#fce100;fill-rule:nonzero"
         id="path13422" /></g></g></svg>
