<?xml version="1.0" encoding="UTF-8" standalone="no"?>
<svg
   width="16.844999"
   height="15.255"
   viewBox="0 0 16.844999 15.255"
   version="1.1"
   xml:space="preserve"
   style="clip-rule:evenodd;fill-rule:evenodd;stroke-linejoin:round;stroke-miterlimit:2"
   id="svg20568"
   sodipodi:docname="emojis.svg"
   xmlns:inkscape="http://www.inkscape.org/namespaces/inkscape"
   xmlns:sodipodi="http://sodipodi.sourceforge.net/DTD/sodipodi-0.dtd"
   xmlns="http://www.w3.org/2000/svg"
   xmlns:svg="http://www.w3.org/2000/svg"><defs
     id="defs20572" /><sodipodi:namedview
     id="namedview20570"
     pagecolor="#505050"
     bordercolor="#eeeeee"
     borderopacity="1"
     inkscape:pageshadow="0"
     inkscape:pageopacity="0"
     inkscape:pagecheckerboard="0" /><g
     transform="matrix(0.24,0,0,0.24,-136.78788,-677.5566)"
     id="g20566"><g
       transform="matrix(62.5,0,0,62.5,562.137,2873.59)"
       id="g13466"><path
         d="m 1.097,-0.232 c 0.023,0.008 0.043,0.019 0.062,0.034 0.018,0.014 0.034,0.031 0.047,0.049 0.013,0.019 0.024,0.04 0.031,0.062 0.007,0.023 0.011,0.046 0.011,0.069 0,0.032 -0.006,0.061 -0.018,0.089 C 1.218,0.098 1.202,0.123 1.181,0.143 1.16,0.164 1.136,0.18 1.108,0.192 1.081,0.204 1.051,0.21 1.02,0.21 0.996,0.21 0.974,0.207 0.953,0.201 0.931,0.194 0.912,0.185 0.894,0.173 0.876,0.16 0.86,0.146 0.846,0.128 0.832,0.111 0.82,0.092 0.81,0.07 H 0.651 C 0.624,0.07 0.597,0.065 0.57,0.054 0.562,0.077 0.551,0.098 0.537,0.118 0.523,0.137 0.506,0.153 0.487,0.167 0.468,0.181 0.447,0.191 0.424,0.199 0.401,0.207 0.377,0.21 0.353,0.21 0.321,0.21 0.292,0.205 0.264,0.193 0.236,0.181 0.212,0.164 0.192,0.144 0.171,0.123 0.155,0.099 0.143,0.071 0.131,0.044 0.125,0.014 0.125,-0.018 0.125,-0.055 0.133,-0.09 0.15,-0.122 0.167,-0.154 0.19,-0.181 0.221,-0.203 0.201,-0.224 0.186,-0.246 0.176,-0.271 0.165,-0.296 0.16,-0.322 0.16,-0.351 0.16,-0.377 0.165,-0.403 0.175,-0.426 0.184,-0.45 0.197,-0.471 0.214,-0.49 0.23,-0.509 0.25,-0.524 0.272,-0.537 0.295,-0.549 0.319,-0.557 0.345,-0.56 0.341,-0.572 0.338,-0.585 0.337,-0.597 0.336,-0.609 0.335,-0.622 0.335,-0.635 c 0,-0.008 0.001,-0.016 0.001,-0.023 0,-0.008 0.001,-0.015 0.003,-0.023 0.003,-0.019 0.01,-0.036 0.02,-0.051 0.009,-0.015 0.021,-0.028 0.035,-0.04 0.014,-0.011 0.029,-0.02 0.046,-0.026 0.017,-0.006 0.035,-0.009 0.054,-0.009 0.021,0 0.042,0.004 0.061,0.012 0.019,0.009 0.036,0.02 0.05,0.034 0.014,0.015 0.026,0.031 0.034,0.05 0.008,0.019 0.012,0.04 0.012,0.062 v 0.017 h 0.106 c 0.027,0 0.053,0.004 0.078,0.013 0.026,0.008 0.048,0.02 0.069,0.035 0.021,0.016 0.039,0.034 0.054,0.056 0.015,0.021 0.026,0.045 0.034,0.071 h 0.046 c 0.018,0 0.036,0.004 0.054,0.012 0.017,0.007 0.032,0.017 0.044,0.03 0.013,0.013 0.023,0.028 0.031,0.045 0.007,0.017 0.011,0.035 0.011,0.054 v 0.044 z"
         style="fill-rule:nonzero"
         id="path13442" /><path
         d="M 0.881,-0.049 0.546,-0.21 C 0.543,-0.212 0.541,-0.214 0.54,-0.218 0.538,-0.221 0.538,-0.224 0.538,-0.227 c 0,-0.004 0,-0.007 0.002,-0.01 0.002,-0.003 0.004,-0.006 0.006,-0.009 l 0.211,0.1 v -0.135 h 0.035 v 0.105 C 0.803,-0.187 0.815,-0.199 0.825,-0.212 0.836,-0.225 0.848,-0.236 0.862,-0.246 0.867,-0.25 0.873,-0.253 0.88,-0.257 0.887,-0.26 0.894,-0.263 0.901,-0.266 0.908,-0.269 0.915,-0.272 0.922,-0.275 0.929,-0.277 0.935,-0.28 0.941,-0.283 l -0.149,0.153 0.105,0.049 z"
         style="fill:#008272;fill-rule:nonzero"
         id="path13444" /><path
         d="m 0.888,-0.281 0.147,0.255 c 0.001,10e-4 0.001,0.002 0.002,0.004 0,0.002 0.001,0.003 0.001,0.004 0,0.005 -0.002,0.009 -0.006,0.013 C 1.029,-0.002 1.025,0 1.02,0 1.013,0 1.008,-0.003 1.005,-0.009 L 0.848,-0.281 Z m -0.553,0.263 c 0,-0.001 0.001,-0.002 0.001,-0.004 0.001,-0.002 0.001,-0.003 0.002,-0.004 L 0.47,-0.254 0.5,-0.237 0.368,-0.009 C 0.367,-0.006 0.364,-0.004 0.362,-0.002 0.359,-0.001 0.356,0 0.353,0 0.348,0 0.344,-0.002 0.341,-0.005 0.337,-0.009 0.335,-0.013 0.335,-0.018 Z"
         style="fill:#d48c00;fill-rule:nonzero"
         id="path13446" /><path
         d="m 0.967,-0.386 c 0.006,0.011 0.01,0.022 0.013,0.034 0.004,0.012 0.005,0.024 0.005,0.036 0,0.012 -0.001,0.024 -0.005,0.036 -0.003,0.012 -0.007,0.023 -0.013,0.034 H 0.792 v -0.07 l 0.089,-0.043 0.051,0.008 z"
         style="fill:#757575;fill-rule:nonzero"
         id="path13448" /><path
         d="m 0.353,-0.176 c 0.022,0 0.042,0.004 0.062,0.013 0.019,0.008 0.036,0.019 0.05,0.034 0.014,0.014 0.025,0.031 0.034,0.05 0.008,0.019 0.012,0.04 0.012,0.061 0,0.022 -0.004,0.043 -0.012,0.062 C 0.49,0.063 0.479,0.079 0.465,0.094 0.451,0.108 0.434,0.119 0.415,0.128 0.395,0.136 0.375,0.14 0.353,0.14 0.331,0.14 0.311,0.136 0.292,0.128 0.273,0.119 0.256,0.108 0.242,0.094 0.227,0.079 0.216,0.063 0.208,0.044 0.199,0.025 0.195,0.004 0.195,-0.018 c 0,-0.021 0.004,-0.042 0.013,-0.061 0.008,-0.019 0.019,-0.036 0.033,-0.05 0.015,-0.015 0.031,-0.026 0.051,-0.034 0.019,-0.009 0.039,-0.013 0.061,-0.013 z m 0,0.263 C 0.368,0.087 0.381,0.085 0.394,0.079 0.407,0.074 0.418,0.066 0.427,0.057 0.437,0.047 0.445,0.036 0.45,0.023 0.456,0.011 0.458,-0.003 0.458,-0.018 0.458,-0.032 0.456,-0.046 0.45,-0.059 0.445,-0.071 0.437,-0.082 0.427,-0.092 0.418,-0.102 0.407,-0.109 0.394,-0.115 0.381,-0.12 0.368,-0.123 0.353,-0.123 c -0.015,0 -0.028,0.003 -0.041,0.008 -0.013,0.006 -0.024,0.013 -0.033,0.023 -0.01,0.01 -0.017,0.021 -0.023,0.033 -0.005,0.013 -0.008,0.027 -0.008,0.041 0,0.015 0.003,0.029 0.008,0.041 0.006,0.013 0.013,0.024 0.023,0.034 0.009,0.009 0.02,0.017 0.033,0.022 0.013,0.006 0.026,0.008 0.041,0.008 z M 1.02,-0.176 c 0.022,0 0.042,0.004 0.061,0.013 0.019,0.008 0.036,0.019 0.05,0.034 0.015,0.014 0.026,0.031 0.034,0.05 0.009,0.019 0.013,0.04 0.013,0.061 0,0.022 -0.004,0.043 -0.013,0.062 C 1.157,0.063 1.146,0.079 1.131,0.094 1.117,0.108 1.1,0.119 1.081,0.128 1.062,0.136 1.042,0.14 1.02,0.14 0.998,0.14 0.978,0.136 0.958,0.128 0.939,0.119 0.923,0.108 0.908,0.094 0.894,0.079 0.883,0.063 0.874,0.044 0.866,0.025 0.862,0.004 0.862,-0.018 c 0,-0.021 0.004,-0.042 0.012,-0.061 0.009,-0.019 0.02,-0.036 0.034,-0.05 0.015,-0.015 0.031,-0.026 0.05,-0.034 0.02,-0.009 0.04,-0.013 0.062,-0.013 z m 0,0.263 C 1.035,0.087 1.048,0.085 1.061,0.079 1.074,0.074 1.085,0.066 1.094,0.057 1.104,0.047 1.111,0.036 1.117,0.023 1.122,0.011 1.125,-0.003 1.125,-0.018 1.125,-0.032 1.122,-0.046 1.117,-0.059 1.111,-0.071 1.104,-0.082 1.094,-0.092 1.085,-0.102 1.074,-0.109 1.061,-0.115 1.048,-0.12 1.035,-0.123 1.02,-0.123 c -0.015,0 -0.028,0.003 -0.041,0.008 -0.013,0.006 -0.024,0.013 -0.033,0.023 -0.01,0.01 -0.018,0.021 -0.023,0.033 -0.006,0.013 -0.008,0.027 -0.008,0.041 0,0.015 0.002,0.029 0.008,0.041 0.005,0.013 0.013,0.024 0.023,0.034 0.009,0.009 0.02,0.017 0.033,0.022 0.013,0.006 0.026,0.008 0.041,0.008 z"
         style="fill:#383838;fill-rule:nonzero"
         id="path13450" /><path
         d="m 0.546,-0.246 v 0.105 c 0,0.015 0.003,0.029 0.008,0.041 0.006,0.013 0.013,0.024 0.023,0.034 0.01,0.009 0.021,0.017 0.033,0.023 0.013,0.005 0.027,0.008 0.041,0.008 H 1.038 V 0 H 0.651 C 0.632,0 0.614,-0.004 0.597,-0.011 0.58,-0.019 0.565,-0.029 0.553,-0.042 0.54,-0.055 0.53,-0.069 0.522,-0.086 0.515,-0.103 0.511,-0.121 0.511,-0.141 v -0.105 z"
         style="fill:#008272;fill-rule:nonzero"
         id="path13452" /><path
         d="m 0.687,-0.421 c 0.014,0 0.028,0.002 0.041,0.008 0.012,0.005 0.023,0.013 0.033,0.023 0.01,0.009 0.017,0.02 0.023,0.033 0.005,0.013 0.008,0.026 0.008,0.041 v 0.07 H 0.485 v -0.07 c 0,-0.01 0.004,-0.017 0.01,-0.022 0.007,-0.006 0.015,-0.01 0.024,-0.013 0.01,-0.003 0.02,-0.006 0.032,-0.009 0.011,-0.002 0.022,-0.006 0.031,-0.01 0.01,-0.005 0.018,-0.011 0.024,-0.019 0.007,-0.007 0.01,-0.018 0.01,-0.032 h 0.009 c 0.005,0 0.012,0 0.021,0 0.009,0 0.023,0 0.041,0 z m 0,0.245 c 0.009,0 0.018,0.002 0.027,0.006 0.008,0.004 0.016,0.009 0.022,0.015 0.006,0.006 0.011,0.014 0.015,0.022 0.004,0.009 0.006,0.018 0.006,0.028 0,0.009 -0.002,0.018 -0.006,0.027 C 0.747,-0.07 0.742,-0.062 0.736,-0.056 0.73,-0.05 0.722,-0.045 0.714,-0.041 0.705,-0.037 0.696,-0.035 0.687,-0.035 0.677,-0.035 0.668,-0.037 0.659,-0.041 0.651,-0.045 0.643,-0.05 0.637,-0.056 0.631,-0.062 0.626,-0.07 0.622,-0.078 0.618,-0.087 0.616,-0.096 0.616,-0.105 c 0,-0.01 0.002,-0.019 0.006,-0.028 0.004,-0.008 0.009,-0.016 0.015,-0.022 0.006,-0.006 0.014,-0.011 0.022,-0.015 0.009,-0.004 0.018,-0.006 0.028,-0.006 z m 0.351,-0.21 c 0.009,0 0.018,0.002 0.027,0.005 0.008,0.004 0.016,0.009 0.022,0.016 0.007,0.006 0.011,0.013 0.015,0.022 0.004,0.008 0.005,0.017 0.005,0.027 l -0.14,0.07 v -0.14 z M 0.353,-0.07 c 0.007,0 0.014,0.001 0.021,0.004 0.006,0.003 0.012,0.006 0.016,0.011 0.005,0.005 0.009,0.01 0.012,0.017 0.002,0.006 0.004,0.013 0.004,0.02 0,0.008 -0.002,0.014 -0.004,0.021 C 0.399,0.009 0.395,0.015 0.39,0.02 0.385,0.024 0.38,0.028 0.373,0.031 0.367,0.034 0.36,0.035 0.353,0.035 0.346,0.035 0.339,0.034 0.333,0.031 0.326,0.028 0.321,0.024 0.316,0.02 0.311,0.015 0.307,0.009 0.304,0.003 0.302,-0.004 0.3,-0.01 0.3,-0.018 0.3,-0.025 0.302,-0.031 0.304,-0.038 0.307,-0.044 0.311,-0.05 0.316,-0.055 0.321,-0.06 0.326,-0.063 0.333,-0.066 0.339,-0.069 0.346,-0.07 0.353,-0.07 Z m 0.667,0 c 0.007,0 0.014,0.001 0.02,0.004 0.007,0.003 0.012,0.006 0.017,0.011 0.005,0.005 0.009,0.011 0.012,0.017 0.002,0.007 0.004,0.013 0.004,0.02 0,0.008 -0.002,0.014 -0.004,0.021 C 1.066,0.009 1.062,0.015 1.057,0.02 1.052,0.024 1.047,0.028 1.04,0.031 1.034,0.034 1.027,0.035 1.02,0.035 1.013,0.035 1.006,0.034 1,0.031 0.993,0.028 0.988,0.024 0.983,0.02 0.978,0.015 0.974,0.009 0.971,0.003 0.969,-0.004 0.967,-0.01 0.967,-0.018 c 0,-0.007 0.002,-0.014 0.004,-0.02 C 0.974,-0.045 0.978,-0.05 0.983,-0.055 0.987,-0.06 0.993,-0.063 0.999,-0.066 1.006,-0.069 1.013,-0.07 1.02,-0.07 Z"
         style="fill:#cccccc;fill-rule:nonzero"
         id="path13454" /><path
         d="m 0.25,-0.421 c 0.006,-0.004 0.013,-0.007 0.021,-0.009 0.007,-0.002 0.015,-0.003 0.022,-0.003 0.008,0 0.015,0.001 0.022,0.003 0.007,0.002 0.014,0.005 0.02,0.009 v 0.052 c 0,0.008 0.002,0.015 0.005,0.021 0.002,0.006 0.006,0.012 0.011,0.017 0.005,0.004 0.01,0.008 0.016,0.011 0.007,0.003 0.014,0.004 0.021,0.004 H 0.511 V -0.21 H 0.371 C 0.351,-0.21 0.333,-0.214 0.316,-0.221 0.299,-0.229 0.284,-0.239 0.271,-0.251 0.259,-0.264 0.249,-0.279 0.241,-0.296 0.234,-0.313 0.23,-0.332 0.23,-0.351 c 0,-0.012 0.002,-0.025 0.005,-0.036 0.004,-0.012 0.008,-0.024 0.015,-0.034 z"
         style="fill:#f2f2f2;fill-rule:nonzero"
         id="path13456" /><path
         d="m 0.757,-0.562 c 0.024,0 0.047,0.005 0.068,0.014 0.021,0.01 0.04,0.022 0.056,0.038 0.015,0.016 0.028,0.034 0.037,0.056 0.009,0.021 0.014,0.044 0.014,0.068 v 0.035 L 0.808,-0.227 C 0.807,-0.216 0.805,-0.208 0.801,-0.2 0.796,-0.192 0.791,-0.186 0.785,-0.18 0.779,-0.175 0.771,-0.17 0.763,-0.166 0.755,-0.163 0.747,-0.159 0.738,-0.157 L 0.733,-0.161 C 0.728,-0.165 0.722,-0.169 0.717,-0.174 0.711,-0.179 0.706,-0.184 0.702,-0.19 0.698,-0.195 0.694,-0.201 0.691,-0.208 0.688,-0.214 0.687,-0.221 0.687,-0.228 c 0,-0.007 10e-4,-0.014 0.004,-0.021 0.002,-0.006 0.006,-0.012 0.011,-0.017 l 0.121,-0.12 H 0.687 v 0.053 c 0,0.007 -0.002,0.014 -0.005,0.02 -0.002,0.007 -0.006,0.012 -0.011,0.017 -0.005,0.005 -0.01,0.008 -0.017,0.011 -0.006,0.003 -0.013,0.004 -0.02,0.004 H 0.511 C 0.504,-0.288 0.498,-0.296 0.493,-0.305 0.488,-0.313 0.485,-0.323 0.485,-0.333 c 0,-0.011 0.003,-0.021 0.008,-0.029 0.005,-0.009 0.011,-0.017 0.018,-0.024 h 0.07 v -0.123 c 0,-0.007 0.001,-0.014 0.004,-0.02 0.003,-0.006 0.007,-0.012 0.012,-0.017 0.005,-0.005 0.01,-0.009 0.017,-0.011 0.006,-0.003 0.013,-0.005 0.02,-0.005 z M 0.581,-0.614 c 0,0.012 -0.002,0.023 -0.007,0.034 -0.004,0.011 -0.011,0.02 -0.019,0.028 -0.008,0.008 -0.017,0.014 -0.027,0.019 -0.011,0.004 -0.022,0.007 -0.034,0.007 -0.019,0 -0.035,-0.005 -0.05,-0.015 C 0.43,-0.551 0.419,-0.564 0.412,-0.581 0.411,-0.584 0.41,-0.586 0.409,-0.589 0.408,-0.591 0.408,-0.594 0.408,-0.597 v -0.07 c 0,-0.003 0,-0.005 0.001,-0.008 0.001,-0.002 0.002,-0.005 0.003,-0.008 0.007,-0.017 0.018,-0.03 0.032,-0.04 0.015,-0.009 0.031,-0.014 0.05,-0.014 0.012,0 0.023,0.002 0.034,0.007 0.01,0.004 0.019,0.01 0.027,0.018 0.008,0.008 0.015,0.018 0.019,0.028 0.005,0.011 0.007,0.023 0.007,0.035 z"
         style="fill:#f03a17;fill-rule:nonzero"
         id="path13458" /><path
         d="m 0.371,-0.491 h 0.105 c 0,0.01 -0.002,0.019 -0.006,0.027 -0.003,0.009 -0.008,0.016 -0.015,0.022 -0.006,0.007 -0.013,0.012 -0.022,0.015 -0.008,0.004 -0.017,0.006 -0.027,0.006 H 0.25 c 0.012,-0.022 0.029,-0.039 0.051,-0.051 0.021,-0.013 0.044,-0.019 0.07,-0.019 z m 0.037,-0.176 h 0.138 l -0.035,0.07 H 0.408 C 0.406,-0.602 0.406,-0.608 0.406,-0.614 v -0.035 c 0,-0.007 0,-0.013 0.002,-0.018 z"
         style="fill:#69eaff;fill-rule:nonzero"
         id="path13460" /><path
         d="m 0.83,-0.125 c -0.005,0 -0.01,-0.002 -0.013,-0.006 L 0.729,-0.218 C 0.726,-0.222 0.724,-0.226 0.724,-0.23 c 0,-0.005 0.002,-0.01 0.005,-0.013 L 0.862,-0.376 C 0.861,-0.388 0.858,-0.399 0.854,-0.409 0.849,-0.419 0.843,-0.427 0.835,-0.435 0.827,-0.442 0.818,-0.447 0.808,-0.451 0.798,-0.455 0.786,-0.457 0.774,-0.457 H 0.651 v 0.088 c 0,0.005 -0.001,0.009 -0.005,0.013 -0.003,0.003 -0.007,0.005 -0.012,0.005 -0.005,0 -0.009,-0.002 -0.013,-0.005 C 0.618,-0.36 0.616,-0.364 0.616,-0.369 v -0.105 c 0,-0.005 0.002,-0.009 0.006,-0.012 0.003,-0.004 0.007,-0.005 0.012,-0.005 h 0.14 c 0.018,0 0.035,0.003 0.05,0.009 0.015,0.006 0.028,0.014 0.039,0.025 0.01,0.011 0.019,0.024 0.025,0.039 0.006,0.015 0.009,0.031 0.009,0.049 0,0.006 -0.002,0.01 -0.005,0.013 l -0.125,0.125 0.075,0.076 c 0.003,0.003 0.005,0.007 0.005,0.012 0,0.004 -0.002,0.009 -0.005,0.012 -0.004,0.004 -0.008,0.006 -0.012,0.006 z"
         style="fill:#ffffff;fill-rule:nonzero"
         id="path13462" /><path
         d="M 0.808,-0.227 0.897,-0.141 0.792,0 C 0.784,-0.005 0.776,-0.011 0.77,-0.02 0.763,-0.028 0.76,-0.037 0.76,-0.047 c 0,-0.012 0.003,-0.022 0.01,-0.032 0.006,-0.01 0.013,-0.019 0.021,-0.026 L 0.738,-0.157 Z M 0.371,-0.333 c 0,-0.008 0.001,-0.014 0.004,-0.021 0.003,-0.007 0.006,-0.012 0.011,-0.017 0.005,-0.005 0.01,-0.008 0.017,-0.011 0.006,-0.003 0.013,-0.004 0.02,-0.004 h 0.088 v 0.105 H 0.423 c -0.007,0 -0.014,-10e-4 -0.02,-0.004 C 0.396,-0.288 0.391,-0.291 0.386,-0.296 0.381,-0.301 0.378,-0.306 0.375,-0.313 0.372,-0.319 0.371,-0.326 0.371,-0.333 Z"
         style="fill:#af0d1a;fill-rule:nonzero"
         id="path13464" /></g></g></svg>
