<?xml version="1.0" encoding="UTF-8" standalone="no"?>
<svg
   width="16.844999"
   height="12.63"
   viewBox="0 0 16.844999 12.63"
   version="1.1"
   xml:space="preserve"
   style="clip-rule:evenodd;fill-rule:evenodd;stroke-linejoin:round;stroke-miterlimit:2"
   id="svg20568"
   sodipodi:docname="emojis.svg"
   xmlns:inkscape="http://www.inkscape.org/namespaces/inkscape"
   xmlns:sodipodi="http://sodipodi.sourceforge.net/DTD/sodipodi-0.dtd"
   xmlns="http://www.w3.org/2000/svg"
   xmlns:svg="http://www.w3.org/2000/svg"><defs
     id="defs20572" /><sodipodi:namedview
     id="namedview20570"
     pagecolor="#505050"
     bordercolor="#eeeeee"
     borderopacity="1"
     inkscape:pageshadow="0"
     inkscape:pageopacity="0"
     inkscape:pagecheckerboard="0" /><g
     transform="matrix(0.24,0,0,0.24,-75.0006,-680.1816)"
     id="g20566"><g
       transform="matrix(62.5,0,0,62.5,304.69,2873.59)"
       id="g13404"><path
         d="M 0.511,-0.632 H 1.248 V 0.105 H 1.163 C 1.156,0.121 1.147,0.135 1.136,0.148 1.125,0.161 1.112,0.173 1.098,0.182 1.084,0.191 1.069,0.198 1.052,0.203 1.036,0.208 1.019,0.21 1.002,0.21 0.983,0.21 0.965,0.207 0.947,0.201 0.929,0.195 0.913,0.187 0.897,0.175 0.882,0.187 0.865,0.195 0.847,0.201 0.829,0.207 0.811,0.21 0.792,0.21 0.774,0.21 0.757,0.208 0.741,0.203 0.725,0.198 0.71,0.191 0.696,0.182 0.682,0.173 0.669,0.162 0.658,0.149 0.647,0.136 0.638,0.121 0.631,0.105 h -0.1 C 0.524,0.121 0.515,0.135 0.504,0.148 0.493,0.161 0.48,0.173 0.466,0.182 0.452,0.191 0.437,0.198 0.421,0.203 0.404,0.208 0.388,0.21 0.371,0.21 0.353,0.21 0.337,0.208 0.32,0.203 0.304,0.198 0.289,0.191 0.275,0.182 0.261,0.173 0.248,0.161 0.237,0.148 0.226,0.135 0.217,0.121 0.21,0.105 H 0.125 V -0.351 H 0.24 l 0.087,-0.175 h 0.184 z"
         style="fill-rule:nonzero"
         id="path13384" /><path
         d="m 1.153,-0.104 0.025,0.034 v 0.035 L 1.144,0 H 0.615 C 0.609,-0.005 0.603,-0.011 0.597,-0.016 0.591,-0.022 0.586,-0.028 0.581,-0.035 0.578,-0.039 0.576,-0.043 0.574,-0.048 0.572,-0.053 0.57,-0.057 0.568,-0.062 0.562,-0.076 0.556,-0.091 0.551,-0.106 0.546,-0.122 0.542,-0.138 0.538,-0.155 0.535,-0.171 0.532,-0.187 0.53,-0.204 0.528,-0.22 0.527,-0.236 0.527,-0.251 c 0,-0.017 0.002,-0.034 0.004,-0.052 0.002,-0.019 0.006,-0.037 0.011,-0.054 0.004,-0.018 0.01,-0.036 0.016,-0.053 0.007,-0.017 0.015,-0.032 0.023,-0.047 v -0.07 l 0.037,-0.019 h 0.521 l 0.039,0.019 v 0.386 z"
         style="fill:#16c60c;fill-rule:nonzero"
         id="path13386" /><path
         d="M 0.581,-0.421 0.61,-0.397 V -0.06 L 0.581,0 H 0.229 L 0.195,-0.035 V -0.07 C 0.2,-0.076 0.204,-0.082 0.207,-0.089 0.21,-0.096 0.213,-0.104 0.215,-0.112 0.217,-0.12 0.218,-0.128 0.219,-0.135 0.22,-0.143 0.22,-0.151 0.22,-0.158 0.22,-0.165 0.22,-0.172 0.219,-0.18 0.218,-0.188 0.217,-0.196 0.215,-0.204 0.213,-0.212 0.21,-0.22 0.207,-0.227 0.204,-0.235 0.2,-0.241 0.195,-0.246 v -0.035 l 0.052,0.001 h 0.026 c 0.008,-0.001 0.015,-0.002 0.021,-0.005 0.022,-0.009 0.038,-0.022 0.048,-0.037 0.011,-0.015 0.016,-0.035 0.016,-0.059 0,-0.007 0,-0.014 -0.001,-0.021 C 0.356,-0.408 0.355,-0.415 0.353,-0.421 l 0.018,-0.036 h 0.21 z"
         style="fill:#ffb900;fill-rule:nonzero"
         id="path13388" /><rect
         x="0.21600001"
         y="-0.176"
         width="0.048999999"
         height="0.07"
         style="fill:#f8ffb3;fill-rule:nonzero"
         id="rect13390" /><path
         d="m 0.616,-0.421 c 0,-0.01 0.002,-0.019 0.006,-0.028 0.004,-0.008 0.009,-0.016 0.015,-0.022 0.006,-0.006 0.014,-0.011 0.022,-0.015 0.009,-0.004 0.018,-0.006 0.028,-0.006 v 0.035 c -0.01,0 -0.019,0.004 -0.025,0.011 -0.007,0.007 -0.011,0.015 -0.011,0.025 v 0.386 H 0.581 V -0.421 Z M 0.195,-0.07 V -0.246 H 0.23 v 0.176 z"
         style="fill:#cccccc;fill-rule:nonzero"
         id="path13392" /><path
         d="m 1.002,-0.09 c 0.012,0 0.024,0.003 0.037,0.007 0.014,0.005 0.027,0.012 0.038,0.02 0.012,0.009 0.022,0.019 0.03,0.03 0.008,0.011 0.012,0.023 0.012,0.035 0,0.012 -0.004,0.023 -0.012,0.033 0,0.014 -0.002,0.028 -0.008,0.041 C 1.094,0.088 1.086,0.1 1.077,0.109 1.067,0.119 1.056,0.126 1.043,0.132 1.031,0.137 1.017,0.14 1.002,0.14 0.988,0.14 0.975,0.138 0.962,0.132 0.95,0.127 0.939,0.12 0.929,0.111 0.92,0.102 0.912,0.091 0.906,0.079 0.9,0.067 0.897,0.053 0.897,0.039 0.896,0.053 0.893,0.067 0.887,0.079 0.882,0.091 0.874,0.102 0.865,0.111 0.855,0.12 0.844,0.127 0.832,0.132 0.819,0.138 0.806,0.14 0.792,0.14 0.777,0.14 0.764,0.137 0.751,0.132 0.738,0.126 0.727,0.119 0.717,0.109 0.708,0.1 0.7,0.089 0.695,0.076 0.689,0.063 0.687,0.049 0.687,0.035 0.68,0.024 0.676,0.013 0.676,0.002 c 0,-0.013 0.004,-0.025 0.012,-0.036 0.008,-0.011 0.017,-0.02 0.029,-0.029 0.012,-0.008 0.024,-0.015 0.038,-0.02 0.013,-0.004 0.026,-0.007 0.037,-0.007 0.009,0 0.019,0.002 0.03,0.005 0.01,0.003 0.02,0.007 0.029,0.012 0.01,0.006 0.018,0.012 0.026,0.019 0.009,0.007 0.015,0.014 0.02,0.022 0.006,-0.008 0.012,-0.016 0.02,-0.023 0.008,-0.007 0.017,-0.013 0.026,-0.018 0.009,-0.006 0.019,-0.01 0.029,-0.012 0.011,-0.003 0.021,-0.005 0.03,-0.005 z m -0.631,0 c 0.011,0 0.023,0.003 0.037,0.007 0.013,0.005 0.026,0.012 0.038,0.021 0.012,0.008 0.022,0.018 0.03,0.029 0.008,0.011 0.012,0.023 0.012,0.035 0,0.012 -0.004,0.023 -0.012,0.033 0,0.014 -0.003,0.028 -0.008,0.041 C 0.462,0.088 0.455,0.1 0.445,0.109 0.435,0.119 0.424,0.126 0.412,0.132 0.399,0.137 0.385,0.14 0.371,0.14 0.356,0.14 0.342,0.137 0.33,0.132 0.317,0.126 0.306,0.119 0.296,0.109 0.287,0.1 0.279,0.088 0.273,0.076 0.268,0.063 0.265,0.049 0.265,0.035 0.258,0.024 0.255,0.014 0.255,0.002 c 0,-0.012 0.004,-0.024 0.012,-0.035 0.007,-0.012 0.017,-0.021 0.029,-0.03 0.011,-0.008 0.024,-0.015 0.037,-0.02 0.014,-0.004 0.026,-0.007 0.038,-0.007 z"
         style="fill:#383838;fill-rule:nonzero"
         id="path13394" /><path
         d="m 1.124,-0.035 h 0.054 v 0.07 H 1.107 C 1.107,0.02 1.105,0.006 1.099,-0.006 1.094,-0.019 1.086,-0.03 1.077,-0.04 1.067,-0.049 1.056,-0.056 1.043,-0.062 1.031,-0.068 1.017,-0.07 1.002,-0.07 0.988,-0.07 0.975,-0.068 0.963,-0.062 0.95,-0.057 0.939,-0.05 0.929,-0.041 0.92,-0.032 0.912,-0.021 0.906,-0.009 0.9,0.003 0.897,0.016 0.897,0.03 0.896,0.016 0.893,0.003 0.887,-0.009 0.882,-0.021 0.874,-0.032 0.865,-0.041 0.855,-0.05 0.844,-0.057 0.832,-0.062 0.819,-0.068 0.806,-0.07 0.792,-0.07 0.777,-0.07 0.764,-0.068 0.751,-0.062 0.738,-0.056 0.727,-0.049 0.718,-0.04 0.708,-0.03 0.7,-0.019 0.695,-0.006 0.689,0.006 0.687,0.02 0.687,0.035 H 0.476 C 0.476,0.02 0.473,0.006 0.468,-0.006 0.462,-0.019 0.455,-0.03 0.445,-0.04 0.435,-0.049 0.424,-0.056 0.412,-0.062 0.399,-0.068 0.385,-0.07 0.371,-0.07 0.356,-0.07 0.342,-0.068 0.33,-0.062 0.317,-0.056 0.306,-0.049 0.296,-0.04 0.287,-0.03 0.279,-0.019 0.273,-0.006 0.268,0.006 0.265,0.02 0.265,0.035 h -0.07 v -0.07 h 0.054 c 0.013,-0.022 0.03,-0.039 0.051,-0.052 0.022,-0.012 0.045,-0.018 0.071,-0.018 0.025,0 0.048,0.006 0.07,0.018 0.021,0.013 0.038,0.03 0.051,0.052 H 0.67 c 0.007,-0.011 0.014,-0.021 0.023,-0.029 0.009,-0.009 0.018,-0.017 0.029,-0.023 0.01,-0.006 0.021,-0.01 0.033,-0.014 0.012,-0.003 0.024,-0.004 0.037,-0.004 0.02,0 0.039,0.004 0.057,0.012 0.018,0.009 0.034,0.02 0.048,0.035 0.014,-0.015 0.03,-0.027 0.048,-0.035 0.018,-0.008 0.037,-0.012 0.057,-0.012 0.026,0 0.049,0.006 0.071,0.018 0.021,0.013 0.038,0.03 0.051,0.052 z M 1.002,0 C 1.012,0 1.02,0.003 1.027,0.01 1.034,0.017 1.038,0.025 1.038,0.035 1.038,0.044 1.034,0.053 1.027,0.06 1.021,0.066 1.012,0.07 1.002,0.07 0.993,0.07 0.984,0.066 0.978,0.06 0.971,0.053 0.967,0.044 0.967,0.035 0.967,0.025 0.971,0.017 0.978,0.01 0.985,0.003 0.993,0 1.002,0 Z M 0.371,0 C 0.38,0 0.388,0.003 0.395,0.01 0.402,0.017 0.406,0.025 0.406,0.035 0.406,0.044 0.402,0.053 0.396,0.06 0.389,0.066 0.38,0.07 0.371,0.07 0.361,0.07 0.353,0.066 0.346,0.06 0.339,0.053 0.335,0.044 0.335,0.035 0.335,0.025 0.339,0.017 0.346,0.01 0.353,0.003 0.361,0 0.371,0 Z M 0.792,0 C 0.801,0 0.81,0.003 0.816,0.01 0.823,0.017 0.827,0.025 0.827,0.035 0.827,0.044 0.823,0.052 0.816,0.059 0.81,0.066 0.801,0.07 0.792,0.07 0.782,0.07 0.774,0.066 0.767,0.06 0.76,0.053 0.757,0.044 0.757,0.035 0.757,0.025 0.76,0.017 0.767,0.01 0.774,0.003 0.783,0 0.792,0 Z"
         style="fill:#e5e5e5;fill-rule:nonzero"
         id="path13396" /><path
         d="m 0.406,-0.421 h 0.14 v 0.14 h -0.14 z m -0.035,0 v 0.14 H 0.283 l 0.07,-0.14 z"
         style="fill:#31d2f7;fill-rule:nonzero"
         id="path13398" /><rect
         x="0.58099997"
         y="-0.56199998"
         width="0.597"
         height="0.035"
         style="fill:#13a10e;fill-rule:nonzero"
         id="rect13400" /><rect
         x="1.143"
         y="-0.141"
         width="0.035"
         height="0.07"
         style="fill:#e81224;fill-rule:nonzero"
         id="rect13402" /></g></g></svg>
