<?xml version="1.0" encoding="UTF-8" standalone="no"?>
<svg
   width="16.860001"
   height="16.844999"
   viewBox="0 0 16.860001 16.844999"
   version="1.1"
   xml:space="preserve"
   style="clip-rule:evenodd;fill-rule:evenodd;stroke-linejoin:round;stroke-miterlimit:2"
   id="svg20568"
   sodipodi:docname="emojis.svg"
   xmlns:inkscape="http://www.inkscape.org/namespaces/inkscape"
   xmlns:sodipodi="http://sodipodi.sourceforge.net/DTD/sodipodi-0.dtd"
   xmlns="http://www.w3.org/2000/svg"
   xmlns:svg="http://www.w3.org/2000/svg"><defs
     id="defs20572" /><sodipodi:namedview
     id="namedview20570"
     pagecolor="#505050"
     bordercolor="#eeeeee"
     borderopacity="1"
     inkscape:pageshadow="0"
     inkscape:pageopacity="0"
     inkscape:pagecheckerboard="0" /><g
     transform="matrix(0.24,0,0,0.24,-260.3622,-675.9666)"
     id="g20566"><g
       transform="matrix(62.5,0,0,62.5,1077.03,2873.59)"
       id="g13582"><path
         d="m 1.057,-0.246 c 0.028,0 0.054,0.006 0.078,0.016 0.024,0.011 0.044,0.025 0.061,0.044 0.017,0.018 0.03,0.04 0.039,0.064 0.009,0.025 0.014,0.051 0.014,0.079 L 1.248,0.018 C 1.248,0.044 1.243,0.069 1.233,0.093 1.223,0.116 1.209,0.137 1.192,0.154 1.174,0.171 1.154,0.185 1.13,0.195 1.107,0.205 1.082,0.21 1.055,0.21 1.037,0.21 1.019,0.208 1.002,0.203 0.985,0.198 0.969,0.191 0.954,0.182 0.939,0.173 0.926,0.162 0.914,0.149 0.902,0.136 0.891,0.121 0.883,0.105 H 0.651 C 0.625,0.105 0.6,0.101 0.575,0.092 0.55,0.083 0.528,0.071 0.507,0.054 0.503,0.077 0.495,0.098 0.483,0.117 0.472,0.136 0.457,0.152 0.441,0.166 0.424,0.18 0.405,0.191 0.384,0.199 0.363,0.207 0.341,0.21 0.318,0.21 0.291,0.21 0.266,0.205 0.243,0.195 0.219,0.185 0.199,0.171 0.181,0.154 0.164,0.137 0.15,0.116 0.14,0.093 0.13,0.069 0.125,0.044 0.125,0.018 c 0,-0.024 0.004,-0.046 0.012,-0.067 0.008,-0.021 0.018,-0.039 0.032,-0.056 0.014,-0.017 0.031,-0.031 0.05,-0.043 0.019,-0.011 0.04,-0.019 0.063,-0.024 L 0.45,-0.702 H 0.406 C 0.391,-0.702 0.377,-0.705 0.365,-0.71 0.352,-0.716 0.341,-0.723 0.331,-0.733 0.322,-0.742 0.314,-0.753 0.309,-0.766 0.303,-0.779 0.3,-0.792 0.3,-0.807 c 0,-0.015 0.003,-0.028 0.009,-0.041 0.005,-0.013 0.013,-0.024 0.022,-0.034 0.01,-0.009 0.021,-0.017 0.034,-0.022 0.012,-0.006 0.026,-0.009 0.041,-0.009 h 0.351 c 0.014,0 0.028,0.003 0.041,0.009 0.013,0.005 0.024,0.013 0.033,0.022 0.009,0.01 0.017,0.021 0.023,0.034 0.005,0.013 0.008,0.026 0.008,0.041 0,0.015 -0.003,0.028 -0.008,0.041 -0.006,0.013 -0.014,0.024 -0.023,0.033 -0.009,0.01 -0.02,0.017 -0.033,0.023 -0.013,0.005 -0.027,0.008 -0.041,0.008 h -0.09 l -0.149,0.471 0.091,0.09 H 0.871 L 0.883,-0.152 C 0.896,-0.165 0.908,-0.177 0.92,-0.189 0.932,-0.2 0.945,-0.21 0.958,-0.218 0.972,-0.227 0.986,-0.233 1.002,-0.238 1.018,-0.243 1.036,-0.246 1.057,-0.246 Z"
         style="fill-rule:nonzero"
         id="path13564" /><rect
         x="0.546"
         y="-0.07"
         width="0.38600001"
         height="0.046"
         style="fill:#cccccc;fill-rule:nonzero"
         id="rect13566" /><path
         d="m 1.178,0.018 c 0,0.017 -0.003,0.033 -0.01,0.048 C 1.162,0.08 1.153,0.093 1.142,0.104 1.131,0.116 1.118,0.124 1.103,0.131 1.088,0.137 1.072,0.14 1.055,0.14 1.038,0.14 1.022,0.137 1.007,0.131 0.992,0.124 0.979,0.116 0.968,0.104 0.957,0.093 0.948,0.08 0.942,0.065 0.935,0.05 0.932,0.035 0.932,0.018 c 0,-0.017 0.003,-0.033 0.01,-0.048 0.006,-0.015 0.015,-0.028 0.026,-0.039 0.011,-0.011 0.024,-0.02 0.039,-0.027 0.015,-0.006 0.031,-0.009 0.048,-0.009 0.017,0 0.033,0.003 0.048,0.009 0.015,0.007 0.028,0.016 0.039,0.027 0.011,0.011 0.02,0.024 0.026,0.039 0.007,0.015 0.01,0.031 0.01,0.048 z"
         style="fill:#383838;fill-rule:nonzero"
         id="path13568" /><path
         d="m 1.057,-0.175 c 0.015,0 0.029,0.002 0.043,0.008 0.014,0.005 0.026,0.012 0.037,0.021 0.011,0.01 0.02,0.021 0.027,0.034 0.007,0.013 0.012,0.027 0.014,0.042 H 1.004 L 0.896,0.035 H 0.651 C 0.63,0.035 0.61,0.031 0.591,0.023 0.572,0.015 0.555,0.004 0.54,-0.011 l -0.167,-0.167 0.05,-0.05 0.166,0.167 c 0.018,0.017 0.038,0.026 0.062,0.026 H 0.865 L 0.97,-0.14 c 0.011,-0.011 0.024,-0.02 0.04,-0.026 0.015,-0.006 0.03,-0.009 0.047,-0.009 z"
         style="fill:#0078d7;fill-rule:nonzero"
         id="path13570" /><path
         d="M 0.483,-0.542 H 0.535 L 0.538,-0.526 0.371,0 H 0.3 l 0.168,-0.526 z"
         style="fill:#cccccc;fill-rule:nonzero"
         id="path13572" /><path
         d="M 0.441,0.018 C 0.441,0.035 0.438,0.05 0.431,0.065 0.425,0.08 0.416,0.093 0.405,0.104 0.394,0.116 0.381,0.124 0.366,0.131 0.351,0.137 0.335,0.14 0.318,0.14 0.301,0.14 0.285,0.137 0.27,0.131 0.255,0.124 0.242,0.116 0.231,0.104 0.22,0.093 0.211,0.08 0.205,0.066 0.198,0.051 0.195,0.035 0.195,0.018 c 0,-0.017 0.003,-0.033 0.01,-0.048 0.006,-0.015 0.015,-0.028 0.026,-0.039 0.011,-0.011 0.024,-0.02 0.039,-0.027 0.015,-0.006 0.031,-0.009 0.048,-0.009 0.017,0 0.033,0.003 0.048,0.009 0.015,0.007 0.028,0.016 0.039,0.027 0.011,0.011 0.02,0.024 0.026,0.039 0.007,0.015 0.01,0.031 0.01,0.048 z"
         style="fill:#383838;fill-rule:nonzero"
         id="path13574" /><path
         d="m 1.055,-0.035 c 0.007,0 0.014,0.001 0.021,0.004 0.006,0.003 0.012,0.007 0.016,0.011 0.005,0.005 0.009,0.011 0.011,0.017 0.003,0.007 0.004,0.013 0.004,0.021 0,0.007 -10e-4,0.013 -0.004,0.02 C 1.101,0.044 1.097,0.05 1.092,0.055 1.087,0.06 1.082,0.063 1.075,0.066 1.069,0.069 1.062,0.07 1.055,0.07 1.048,0.07 1.041,0.069 1.035,0.066 1.029,0.063 1.023,0.06 1.018,0.055 1.013,0.05 1.009,0.044 1.007,0.038 1.004,0.031 1.002,0.025 1.002,0.018 1.002,0.01 1.004,0.004 1.007,-0.003 1.009,-0.009 1.013,-0.015 1.018,-0.02 1.023,-0.024 1.028,-0.028 1.034,-0.031 1.041,-0.034 1.048,-0.035 1.055,-0.035 Z m -0.737,0 c 0.007,0 0.014,0.001 0.02,0.004 0.007,0.003 0.013,0.007 0.017,0.011 0.005,0.005 0.009,0.011 0.011,0.017 0.003,0.007 0.005,0.013 0.005,0.021 0,0.007 -0.002,0.013 -0.005,0.02 C 0.364,0.044 0.36,0.05 0.355,0.055 0.35,0.06 0.344,0.063 0.338,0.066 0.332,0.069 0.325,0.07 0.318,0.07 0.311,0.07 0.304,0.069 0.298,0.066 0.291,0.063 0.286,0.06 0.281,0.055 0.276,0.05 0.272,0.044 0.269,0.038 0.267,0.031 0.265,0.025 0.265,0.018 c 0,-0.008 0.002,-0.014 0.004,-0.021 0.003,-0.006 0.007,-0.012 0.012,-0.017 0.005,-0.004 0.01,-0.008 0.017,-0.011 0.006,-0.003 0.013,-0.004 0.02,-0.004 z"
         style="fill:#cccccc;fill-rule:nonzero"
         id="path13576" /><path
         d="m 0.757,-0.842 c 0.009,0 0.017,0.003 0.024,0.01 0.007,0.007 0.011,0.015 0.011,0.025 0,0.009 -0.004,0.018 -0.011,0.025 -0.007,0.007 -0.015,0.01 -0.024,0.01 H 0.651 C 0.64,-0.777 0.628,-0.78 0.617,-0.782 0.605,-0.785 0.593,-0.786 0.581,-0.786 c -0.024,0 -0.047,0.005 -0.07,0.014 H 0.406 c -0.01,0 -0.018,-0.003 -0.025,-0.01 -0.007,-0.007 -0.01,-0.016 -0.01,-0.025 0,-0.01 0.003,-0.018 0.01,-0.025 0.007,-0.007 0.015,-0.01 0.025,-0.01 h 0.105 c 0.001,0 0.002,0 0.004,0.001 l 0.02,0.006 c 0.015,0.003 0.03,0.005 0.047,0.005 0.007,0 0.015,0 0.023,-0.001 0.008,-0.001 0.016,-0.002 0.023,-0.004 L 0.64,-0.839 C 0.643,-0.84 0.645,-0.841 0.647,-0.841 0.649,-0.842 0.651,-0.842 0.651,-0.842 Z"
         style="fill:#f03a17;fill-rule:nonzero"
         id="path13578" /><path
         d="m 0.511,-0.842 h 0.14 v 0.07 H 0.616 L 0.538,-0.526 H 0.468 L 0.546,-0.772 H 0.511 Z"
         style="fill:#f2f2f2;fill-rule:nonzero"
         id="path13580" /></g></g></svg>
