<?xml version="1.0" encoding="UTF-8" standalone="no"?>
<svg
   width="16.860001"
   height="16.844999"
   viewBox="0 0 16.860001 16.844999"
   version="1.1"
   xml:space="preserve"
   style="clip-rule:evenodd;fill-rule:evenodd;stroke-linejoin:round;stroke-miterlimit:2"
   id="svg20568"
   sodipodi:docname="emojis.svg"
   xmlns:inkscape="http://www.inkscape.org/namespaces/inkscape"
   xmlns:sodipodi="http://sodipodi.sourceforge.net/DTD/sodipodi-0.dtd"
   xmlns="http://www.w3.org/2000/svg"
   xmlns:svg="http://www.w3.org/2000/svg"><defs
     id="defs20572" /><sodipodi:namedview
     id="namedview20570"
     pagecolor="#505050"
     bordercolor="#eeeeee"
     borderopacity="1"
     inkscape:pageshadow="0"
     inkscape:pageopacity="0"
     inkscape:pagecheckerboard="0" /><g
     transform="matrix(0.24,0,0,0.24,-280.9566,-675.9666)"
     id="g20566"><g
       transform="matrix(62.5,0,0,62.5,1162.84,2873.59)"
       id="g13598"><path
         d="M 0.858,-0.864 C 0.879,-0.88 0.901,-0.891 0.925,-0.9 0.949,-0.908 0.974,-0.913 1,-0.913 c 0.033,0 0.064,0.007 0.094,0.021 0.031,0.013 0.057,0.031 0.08,0.054 0.023,0.023 0.041,0.049 0.054,0.079 0.014,0.03 0.021,0.062 0.021,0.094 0,0.026 -0.005,0.051 -0.013,0.075 -0.009,0.024 -0.021,0.047 -0.036,0.068 0.002,0.007 0.003,0.014 0.003,0.022 0,0.011 -0.002,0.022 -0.006,0.032 -0.004,0.01 -0.011,0.019 -0.019,0.027 -0.007,0.008 -0.015,0.016 -0.024,0.026 -0.008,0.009 -0.017,0.018 -0.027,0.026 -0.009,0.008 -0.019,0.015 -0.03,0.021 -0.01,0.005 -0.021,0.008 -0.033,0.008 -0.006,0 -0.012,-0.001 -0.02,-0.002 L 0.676,0.006 c 0.001,0.003 0.001,0.006 0.002,0.01 0,0.003 0,0.006 0,0.009 0,0.012 -0.003,0.023 -0.008,0.033 C 0.664,0.069 0.658,0.079 0.649,0.089 0.641,0.099 0.632,0.108 0.623,0.116 0.614,0.125 0.605,0.133 0.598,0.14 0.589,0.148 0.58,0.154 0.57,0.158 0.56,0.163 0.549,0.165 0.538,0.165 0.53,0.165 0.523,0.164 0.516,0.162 0.495,0.177 0.472,0.189 0.448,0.198 0.425,0.206 0.4,0.21 0.374,0.21 0.351,0.21 0.33,0.207 0.309,0.201 0.289,0.195 0.269,0.186 0.25,0.176 0.232,0.165 0.215,0.152 0.2,0.136 0.184,0.121 0.171,0.104 0.16,0.086 0.149,0.067 0.14,0.048 0.134,0.027 0.128,0.006 0.125,-0.015 0.125,-0.038 0.125,-0.064 0.129,-0.089 0.138,-0.113 0.146,-0.136 0.158,-0.159 0.173,-0.18 0.171,-0.187 0.17,-0.194 0.17,-0.201 c 0,-0.012 0.003,-0.023 0.007,-0.033 0.004,-0.01 0.011,-0.019 0.019,-0.028 0.007,-0.008 0.015,-0.016 0.024,-0.025 0.008,-0.01 0.017,-0.018 0.026,-0.026 0.01,-0.009 0.02,-0.015 0.03,-0.021 0.011,-0.005 0.022,-0.008 0.034,-0.008 0.007,0 0.014,0.001 0.019,0.002 L 0.698,-0.708 C 0.696,-0.714 0.696,-0.72 0.696,-0.726 c 0,-0.012 0.002,-0.023 0.006,-0.033 0.005,-0.01 0.011,-0.02 0.019,-0.028 0.007,-0.008 0.015,-0.016 0.024,-0.026 0.008,-0.009 0.018,-0.018 0.027,-0.026 0.009,-0.008 0.019,-0.014 0.03,-0.02 0.011,-0.005 0.022,-0.008 0.033,-0.008 0.008,0 0.015,0.001 0.023,0.003 z"
         style="fill-rule:nonzero"
         id="path13584" /><path
         d="M 0.355,0.138 C 0.334,0.136 0.314,0.13 0.296,0.122 0.278,0.113 0.262,0.102 0.248,0.088 0.234,0.074 0.223,0.058 0.214,0.04 0.205,0.021 0.2,0.002 0.198,-0.02 l 0.821,-0.82 c 0.021,0.002 0.04,0.007 0.059,0.016 0.018,0.009 0.034,0.02 0.048,0.034 0.014,0.014 0.025,0.03 0.034,0.048 0.008,0.019 0.014,0.038 0.016,0.059 z"
         style="fill:#0078d7;fill-rule:nonzero"
         id="path13586" /><path
         d="m 0.232,-0.03 c -0.004,0 -0.009,0 -0.014,-0.001 -0.005,0 -0.009,-0.001 -0.014,-0.001 C 0.203,-0.035 0.202,-0.037 0.2,-0.04 0.198,-0.042 0.197,-0.044 0.197,-0.046 c 0,-0.015 0.002,-0.028 0.005,-0.04 0.004,-0.011 0.01,-0.023 0.018,-0.035 0.012,-0.018 0.025,-0.035 0.04,-0.051 0.014,-0.015 0.029,-0.031 0.044,-0.046 0.025,-0.026 0.05,-0.052 0.075,-0.077 0.025,-0.025 0.051,-0.05 0.076,-0.075 0.071,-0.07 0.141,-0.14 0.211,-0.21 0.07,-0.07 0.141,-0.14 0.212,-0.21 0.015,-0.015 0.032,-0.027 0.052,-0.036 0.02,-0.01 0.041,-0.014 0.062,-0.014 0.002,0 0.004,0 0.006,0 0.002,0 0.003,0 0.005,0.001 0.002,0.005 0.002,0.011 0.002,0.017 0,0.022 -0.004,0.042 -0.012,0.061 -0.008,0.019 -0.019,0.036 -0.035,0.052 -0.026,0.027 -0.052,0.054 -0.079,0.081 -0.027,0.026 -0.054,0.053 -0.081,0.08 L 0.56,-0.306 C 0.534,-0.28 0.509,-0.254 0.484,-0.229 0.459,-0.203 0.433,-0.178 0.408,-0.152 0.39,-0.135 0.372,-0.118 0.354,-0.1 0.336,-0.083 0.316,-0.067 0.296,-0.053 0.286,-0.046 0.276,-0.04 0.266,-0.036 0.256,-0.032 0.245,-0.03 0.232,-0.03 Z M 1.17,-0.666 c 0.001,0.003 0.002,0.005 0.004,0.005 0.001,0.001 0.002,0.002 0.002,0.005 0,0.021 -0.005,0.042 -0.014,0.062 -0.01,0.02 -0.022,0.037 -0.037,0.052 -0.07,0.072 -0.141,0.143 -0.211,0.213 -0.07,0.07 -0.141,0.141 -0.212,0.213 -0.025,0.025 -0.05,0.05 -0.076,0.076 C 0.601,-0.015 0.576,0.01 0.55,0.035 0.535,0.049 0.52,0.064 0.504,0.078 0.488,0.092 0.472,0.105 0.454,0.117 0.448,0.121 0.442,0.124 0.437,0.127 0.431,0.13 0.425,0.132 0.42,0.134 0.414,0.136 0.408,0.137 0.402,0.138 0.396,0.138 0.389,0.139 0.382,0.139 0.38,0.139 0.378,0.138 0.376,0.137 0.374,0.135 0.372,0.135 0.37,0.134 V 0.12 C 0.369,0.117 0.369,0.115 0.369,0.113 0.368,0.111 0.368,0.108 0.368,0.105 0.368,0.093 0.37,0.082 0.374,0.072 0.378,0.062 0.383,0.052 0.39,0.042 0.403,0.023 0.416,0.006 0.432,-0.011 0.447,-0.027 0.462,-0.044 0.478,-0.06 l 0.406,-0.402 c 0.027,-0.027 0.054,-0.054 0.08,-0.081 0.027,-0.027 0.054,-0.054 0.081,-0.08 0.015,-0.014 0.03,-0.025 0.047,-0.033 0.017,-0.007 0.036,-0.011 0.056,-0.011 0.007,0 0.014,0 0.022,0.001 z"
         style="fill:#0063b1;fill-rule:nonzero"
         id="path13588" /><path
         d="m 1.019,-0.84 c 0,0.002 0,0.005 0,0.008 0,0.003 0.001,0.006 0.001,0.009 0,0.023 -0.005,0.045 -0.014,0.067 -0.008,0.021 -0.021,0.04 -0.038,0.056 L 0.56,-0.288 C 0.535,-0.262 0.509,-0.237 0.484,-0.211 0.459,-0.186 0.433,-0.16 0.407,-0.135 L 0.4,-0.129 c -0.016,0.016 -0.033,0.032 -0.051,0.048 -0.017,0.015 -0.036,0.03 -0.055,0.042 -0.011,0.007 -0.022,0.012 -0.033,0.016 -0.011,0.003 -0.023,0.004 -0.036,0.004 -0.005,0 -0.009,0 -0.014,0 -0.004,0 -0.009,0 -0.013,-0.001 -0.001,-0.002 -0.001,-0.005 -0.001,-0.008 0,-0.003 0,-0.006 0,-0.009 v -0.009 c 0.005,0.001 0.009,0.001 0.014,0.002 0.005,0 0.01,0.001 0.015,0.001 0.011,0 0.022,-0.002 0.031,-0.007 0.01,-0.004 0.02,-0.009 0.029,-0.015 0.02,-0.014 0.04,-0.03 0.058,-0.047 0.018,-0.018 0.036,-0.035 0.053,-0.052 0.052,-0.05 0.102,-0.1 0.153,-0.152 0.067,-0.068 0.134,-0.135 0.2,-0.201 0.066,-0.066 0.133,-0.134 0.2,-0.201 0.013,-0.014 0.024,-0.03 0.031,-0.048 0.008,-0.018 0.012,-0.037 0.012,-0.056 v -0.01 c 0,-0.002 -0.001,-0.005 -0.001,-0.008 0.002,-0.001 0.004,-0.001 0.006,-0.001 h 0.014 c 0.002,0 0.004,0 0.007,0.001 z m 0.157,0.157 c 0,0.003 0,0.006 0.001,0.009 0,0.003 0,0.006 0,0.009 L 1.176,-0.656 C 1.173,-0.657 1.17,-0.657 1.167,-0.657 H 1.158 c -0.019,0 -0.038,0.004 -0.056,0.011 -0.018,0.008 -0.034,0.019 -0.048,0.032 -0.068,0.067 -0.135,0.133 -0.201,0.2 -0.067,0.066 -0.134,0.133 -0.201,0.2 C 0.6,-0.164 0.55,-0.113 0.5,-0.062 0.483,-0.044 0.465,-0.027 0.448,-0.009 0.431,0.01 0.415,0.029 0.401,0.049 0.395,0.058 0.39,0.068 0.385,0.077 0.381,0.087 0.379,0.097 0.379,0.109 c 0,0.005 0.001,0.01 0.001,0.015 0.001,0.005 0.001,0.01 0.002,0.015 H 0.373 c -0.003,0 -0.006,0 -0.009,0 -0.003,0 -0.006,0 -0.009,-0.001 C 0.354,0.133 0.354,0.128 0.354,0.124 0.353,0.119 0.353,0.114 0.353,0.108 0.353,0.095 0.355,0.084 0.359,0.073 0.363,0.063 0.368,0.052 0.375,0.041 0.388,0.021 0.402,0.003 0.418,-0.015 0.434,-0.032 0.451,-0.049 0.467,-0.066 L 0.474,-0.073 C 0.5,-0.1 0.525,-0.126 0.551,-0.151 0.576,-0.177 0.602,-0.202 0.627,-0.228 0.696,-0.295 0.764,-0.363 0.831,-0.43 0.899,-0.497 0.966,-0.565 1.035,-0.632 1.052,-0.65 1.072,-0.662 1.093,-0.671 1.114,-0.679 1.137,-0.683 1.161,-0.683 h 0.007 c 0.003,0 0.005,0 0.008,0 z"
         style="fill:#3a96dd;fill-rule:nonzero"
         id="path13590" /><path
         d="m 0.459,-0.186 c 0.005,0 0.009,0.002 0.013,0.005 l 0.045,0.045 c 0.003,0.003 0.005,0.007 0.005,0.012 0,0.005 -0.002,0.009 -0.005,0.013 l -0.08,0.08 c -0.004,0.003 -0.008,0.005 -0.013,0.005 -0.004,0 -0.008,-0.002 -0.012,-0.005 L 0.367,-0.076 C 0.363,-0.08 0.361,-0.084 0.361,-0.088 c 0,-0.005 0.002,-0.009 0.006,-0.013 l 0.08,-0.08 C 0.45,-0.184 0.454,-0.186 0.459,-0.186 Z m 0.455,-0.33 c -0.004,0 -0.009,-0.001 -0.012,-0.005 L 0.856,-0.566 C 0.853,-0.569 0.851,-0.574 0.851,-0.578 c 0,-0.005 0.002,-0.009 0.005,-0.013 l 0.081,-0.08 c 0.003,-0.003 0.007,-0.005 0.012,-0.005 0.005,0 0.009,0.002 0.012,0.005 l 0.046,0.045 c 0.003,0.003 0.005,0.008 0.005,0.013 0,0.005 -0.002,0.009 -0.005,0.012 l -0.08,0.08 c -0.004,0.004 -0.008,0.005 -0.013,0.005 z"
         style="fill:#4a5459;fill-rule:nonzero"
         id="path13592" /><path
         d="M 1.054,-0.473 0.948,-0.579 c -0.002,0.006 -0.005,0.01 -0.01,0.013 -0.004,0.003 -0.01,0.005 -0.015,0.005 -0.008,0 -0.014,-0.003 -0.019,-0.008 -0.005,-0.005 -0.007,-0.011 -0.007,-0.018 0,-0.006 0.002,-0.011 0.005,-0.016 0.003,-0.004 0.007,-0.007 0.013,-0.009 L 0.809,-0.718 0.846,-0.755 1.091,-0.51 Z M 0.565,0.015 0.528,0.052 0.283,-0.192 0.32,-0.229 0.426,-0.124 c 0.002,-0.005 0.005,-0.009 0.01,-0.012 0.004,-0.004 0.009,-0.005 0.015,-0.005 0.007,0 0.013,0.002 0.018,0.008 0.005,0.005 0.008,0.011 0.008,0.019 0,0.005 -0.002,0.01 -0.005,0.014 -0.003,0.005 -0.007,0.008 -0.012,0.01 z"
         style="fill:#bac8cc;fill-rule:nonzero"
         id="path13594" /><path
         d="m 0.241,-0.201 c 0,-0.005 0.001,-0.008 0.004,-0.011 l 0.056,-0.056 c 0.003,-0.003 0.007,-0.004 0.011,-0.004 0.004,0 0.007,0.001 0.011,0.004 l 0.035,0.036 c 0.004,0.003 0.005,0.007 0.005,0.011 0,0.004 -0.001,0.008 -0.005,0.011 L 0.303,-0.154 C 0.3,-0.151 0.297,-0.15 0.292,-0.15 0.288,-0.15 0.284,-0.151 0.281,-0.154 L 0.245,-0.19 C 0.242,-0.193 0.241,-0.197 0.241,-0.201 Z m 0.244,0.244 c 0,-0.003 0.002,-0.007 0.005,-0.01 l 0.056,-0.056 c 0.003,-0.003 0.006,-0.004 0.011,-0.004 0.004,0 0.007,0.001 0.01,0.004 l 0.037,0.036 c 0.002,0.003 0.004,0.007 0.004,0.011 0,0.005 -0.002,0.008 -0.004,0.011 L 0.548,0.09 C 0.545,0.094 0.541,0.095 0.537,0.095 0.533,0.095 0.53,0.094 0.526,0.09 L 0.49,0.054 C 0.487,0.051 0.485,0.047 0.485,0.043 Z m 0.281,-0.77 c 0,-0.004 0.002,-0.008 0.005,-0.011 l 0.055,-0.055 c 0.003,-0.003 0.007,-0.005 0.011,-0.005 0.004,0 0.007,0.002 0.011,0.005 l 0.036,0.036 c 0.003,0.003 0.005,0.007 0.005,0.011 0,0.004 -0.002,0.008 -0.005,0.011 L 0.829,-0.68 c -0.003,0.003 -0.007,0.005 -0.012,0.005 -0.004,0 -0.007,-0.002 -0.01,-0.005 L 0.771,-0.716 C 0.768,-0.719 0.766,-0.722 0.766,-0.727 Z m 0.245,0.245 c 0,-0.004 0.001,-0.008 0.004,-0.011 l 0.056,-0.055 c 0.003,-0.003 0.006,-0.005 0.011,-0.005 0.004,0 0.008,0.002 0.011,0.005 l 0.036,0.036 c 0.003,0.003 0.004,0.007 0.004,0.011 0,0.004 -0.001,0.008 -0.004,0.011 L 1.073,-0.435 C 1.07,-0.432 1.067,-0.43 1.063,-0.43 1.058,-0.43 1.055,-0.432 1.052,-0.435 L 1.015,-0.471 C 1.012,-0.474 1.011,-0.478 1.011,-0.482 Z"
         style="fill:#ffffff;fill-rule:nonzero"
         id="path13596" /></g></g></svg>
