<?xml version="1.0" encoding="UTF-8" standalone="no"?>
<svg
   width="16.844999"
   height="16.844999"
   viewBox="0 0 16.844999 16.844999"
   version="1.1"
   xml:space="preserve"
   style="clip-rule:evenodd;fill-rule:evenodd;stroke-linejoin:round;stroke-miterlimit:2"
   id="svg20568"
   sodipodi:docname="emojis.svg"
   xmlns:inkscape="http://www.inkscape.org/namespaces/inkscape"
   xmlns:sodipodi="http://sodipodi.sourceforge.net/DTD/sodipodi-0.dtd"
   xmlns="http://www.w3.org/2000/svg"
   xmlns:svg="http://www.w3.org/2000/svg"><defs
     id="defs20572" /><sodipodi:namedview
     id="namedview20570"
     pagecolor="#505050"
     bordercolor="#eeeeee"
     borderopacity="1"
     inkscape:pageshadow="0"
     inkscape:pageopacity="0"
     inkscape:pagecheckerboard="0" /><g
     transform="matrix(0.24,0,0,0.24,-198.57492,-675.9666)"
     id="g20566"><g
       transform="matrix(62.5,0,0,62.5,819.583,2873.59)"
       id="g13526"><path
         d="M 1.055,0.21 C 1.04,0.21 1.024,0.208 1.009,0.204 0.994,0.199 0.98,0.192 0.967,0.184 0.958,0.19 0.948,0.196 0.939,0.199 0.93,0.203 0.921,0.205 0.911,0.207 0.902,0.209 0.892,0.21 0.883,0.21 c -0.01,0 -0.021,0 -0.032,0 H 0.844 C 0.832,0.21 0.821,0.209 0.811,0.207 0.804,0.209 0.796,0.21 0.789,0.21 c -0.008,0 -0.015,0 -0.023,0 H 0.739 C 0.709,0.21 0.679,0.203 0.651,0.189 0.641,0.195 0.631,0.199 0.622,0.202 0.613,0.205 0.604,0.207 0.594,0.208 0.585,0.209 0.576,0.21 0.566,0.21 H 0.529 C 0.509,0.21 0.49,0.207 0.47,0.201 0.451,0.195 0.434,0.187 0.417,0.175 H 0.213 C 0.201,0.175 0.189,0.173 0.179,0.168 0.168,0.164 0.159,0.158 0.151,0.15 0.143,0.142 0.136,0.132 0.132,0.122 0.127,0.111 0.125,0.1 0.125,0.088 0.125,0.071 0.129,0.056 0.138,0.042 0.147,0.028 0.158,0.017 0.173,0.009 l 0.162,-0.081 v -0.033 h -0.07 v -0.123 c 0,-0.017 0.003,-0.033 0.01,-0.048 0.006,-0.015 0.015,-0.028 0.026,-0.039 0.011,-0.011 0.024,-0.02 0.039,-0.026 0.015,-0.007 0.031,-0.01 0.048,-0.01 h 0.018 v -0.07 c 0,-0.015 0.003,-0.029 0.008,-0.041 0.006,-0.013 0.013,-0.024 0.023,-0.034 0.009,-0.009 0.021,-0.017 0.033,-0.022 0.013,-0.006 0.027,-0.008 0.041,-0.008 h 0.191 l 0.032,-0.131 c 0.003,-0.011 0.007,-0.021 0.013,-0.031 0.006,-0.009 0.013,-0.017 0.021,-0.024 0.008,-0.007 0.017,-0.013 0.027,-0.017 0.01,-0.004 0.021,-0.007 0.032,-0.008 v -0.07 c 0,-0.015 0.003,-0.028 0.008,-0.041 0.006,-0.013 0.013,-0.024 0.023,-0.034 0.009,-0.009 0.02,-0.017 0.033,-0.022 0.013,-0.006 0.026,-0.009 0.041,-0.009 h 0.106 c 0.014,0 0.028,0.003 0.041,0.009 0.012,0.005 0.023,0.013 0.033,0.022 0.009,0.01 0.017,0.021 0.022,0.034 0.006,0.013 0.009,0.026 0.009,0.041 v 0.07 c 0,0.004 -0.001,0.008 -0.001,0.012 -10e-4,0.004 -10e-4,0.008 -0.002,0.012 0.012,0.011 0.021,0.023 0.028,0.036 0.006,0.014 0.01,0.029 0.01,0.045 0,0.009 -10e-4,0.017 -0.003,0.026 L 1.14,-0.467 c 0.007,0.014 0.01,0.029 0.01,0.046 0,0.009 -10e-4,0.017 -0.003,0.025 l -0.058,0.234 c 0.011,0.007 0.022,0.016 0.031,0.027 0.01,0.011 0.016,0.024 0.019,0.037 0.016,0.006 0.031,0.013 0.045,0.023 0.013,0.01 0.024,0.022 0.034,0.035 0.01,0.013 0.017,0.027 0.022,0.043 0.005,0.016 0.008,0.033 0.008,0.05 0,0.022 -0.004,0.042 -0.012,0.061 C 1.227,0.133 1.216,0.15 1.202,0.164 1.187,0.178 1.171,0.19 1.152,0.198 1.133,0.206 1.112,0.21 1.09,0.21 Z"
         style="fill-rule:nonzero"
         id="path13508" /><path
         d="M 0.651,0.018 C 0.651,0.004 0.649,-0.009 0.645,-0.021 0.641,-0.034 0.635,-0.045 0.627,-0.055 0.619,-0.066 0.61,-0.075 0.599,-0.082 0.588,-0.09 0.576,-0.096 0.563,-0.1 V -0.105 H 0.529 c -0.017,0 -0.033,0.003 -0.048,0.009 -0.015,0.007 -0.028,0.016 -0.039,0.027 -0.011,0.011 -0.02,0.024 -0.026,0.039 -0.007,0.015 -0.01,0.031 -0.01,0.048 0,0.017 0.003,0.032 0.01,0.047 C 0.422,0.08 0.431,0.093 0.442,0.104 0.453,0.116 0.466,0.124 0.481,0.131 0.496,0.137 0.512,0.14 0.529,0.14 H 0.563 V 0.135 C 0.576,0.131 0.588,0.125 0.599,0.117 0.61,0.11 0.619,0.101 0.627,0.091 0.635,0.08 0.641,0.069 0.645,0.057 0.649,0.044 0.651,0.031 0.651,0.018 Z M 0.932,0.053 C 0.932,0.041 0.93,0.029 0.925,0.019 0.921,0.008 0.914,-0.002 0.906,-0.01 0.899,-0.017 0.889,-0.024 0.878,-0.028 0.868,-0.033 0.856,-0.035 0.844,-0.035 0.832,-0.035 0.821,-0.033 0.81,-0.028 0.8,-0.024 0.79,-0.017 0.782,-0.01 0.774,-0.002 0.768,0.008 0.764,0.019 0.759,0.029 0.757,0.041 0.757,0.053 c 0,0.012 0.002,0.023 0.007,0.034 0.004,0.01 0.01,0.02 0.018,0.028 C 0.79,0.122 0.8,0.129 0.81,0.133 0.821,0.138 0.832,0.14 0.844,0.14 H 0.879 V 0.133 C 0.895,0.126 0.908,0.115 0.918,0.101 0.927,0.086 0.932,0.07 0.932,0.053 Z M 0.616,0.018 c 0,0.007 -0.001,0.013 -0.004,0.02 C 0.609,0.044 0.605,0.05 0.601,0.055 0.596,0.06 0.59,0.063 0.584,0.066 0.577,0.069 0.571,0.07 0.563,0.07 0.556,0.07 0.55,0.069 0.543,0.066 0.537,0.063 0.531,0.06 0.527,0.055 0.522,0.05 0.518,0.044 0.515,0.038 0.513,0.031 0.511,0.025 0.511,0.018 c 0,-0.008 0.002,-0.014 0.004,-0.021 0.003,-0.006 0.007,-0.012 0.011,-0.017 0.005,-0.004 0.01,-0.008 0.017,-0.011 0.006,-0.003 0.013,-0.004 0.02,-0.004 0.008,0 0.014,0.001 0.021,0.004 0.006,0.003 0.012,0.007 0.017,0.011 0.005,0.005 0.008,0.011 0.011,0.017 0.003,0.007 0.004,0.013 0.004,0.021 z M 0.915,0.053 C 0.915,0.062 0.911,0.07 0.904,0.077 0.897,0.084 0.889,0.087 0.879,0.087 0.87,0.087 0.862,0.084 0.855,0.077 0.848,0.07 0.844,0.062 0.844,0.053 c 0,-0.01 0.004,-0.018 0.011,-0.025 0.007,-0.007 0.015,-0.01 0.024,-0.01 0.01,0 0.018,0.003 0.025,0.01 0.007,0.007 0.011,0.015 0.011,0.025 z M 0.476,-0.123 H 0.441 v -0.07 h 0.035 z m 0.211,0 H 0.651 v -0.07 h 0.036 z m 0.21,0 H 0.862 v -0.07 h 0.035 z"
         style="fill:#383838;fill-rule:nonzero"
         id="path13510" /><path
         d="m 0.879,-0.035 c 0.012,0 0.024,0.002 0.035,0.007 0.01,0.004 0.02,0.011 0.028,0.018 0.008,0.008 0.014,0.018 0.018,0.029 0.005,0.01 0.007,0.022 0.007,0.034 0,0.012 -0.002,0.023 -0.007,0.034 C 0.956,0.097 0.95,0.107 0.942,0.115 0.934,0.122 0.924,0.129 0.914,0.133 0.903,0.138 0.891,0.14 0.879,0.14 0.867,0.14 0.856,0.138 0.845,0.133 0.835,0.129 0.826,0.122 0.818,0.115 0.81,0.107 0.803,0.097 0.799,0.087 0.794,0.076 0.792,0.065 0.792,0.053 0.792,0.041 0.794,0.029 0.799,0.019 0.803,0.008 0.81,-0.002 0.818,-0.01 0.826,-0.017 0.835,-0.024 0.845,-0.028 0.856,-0.033 0.867,-0.035 0.879,-0.035 Z m 0,0.122 c 0.01,0 0.018,-0.003 0.025,-0.01 C 0.911,0.07 0.915,0.062 0.915,0.053 0.915,0.043 0.911,0.035 0.904,0.028 0.897,0.021 0.889,0.018 0.879,0.018 0.87,0.018 0.862,0.021 0.855,0.028 0.848,0.035 0.844,0.043 0.844,0.053 c 0,0.009 0.004,0.017 0.011,0.024 0.007,0.007 0.015,0.01 0.024,0.01 z M 0.563,-0.105 c 0.017,0 0.033,0.003 0.048,0.009 0.015,0.007 0.028,0.016 0.039,0.027 0.011,0.011 0.02,0.024 0.027,0.039 0.006,0.015 0.01,0.031 0.01,0.048 0,0.017 -0.004,0.032 -0.01,0.047 C 0.67,0.08 0.661,0.093 0.65,0.104 0.639,0.116 0.626,0.124 0.611,0.131 0.596,0.137 0.58,0.14 0.563,0.14 0.547,0.14 0.531,0.137 0.516,0.131 0.501,0.124 0.488,0.116 0.477,0.104 0.465,0.093 0.457,0.08 0.45,0.065 0.444,0.05 0.441,0.035 0.441,0.018 0.441,0.001 0.444,-0.015 0.45,-0.03 0.457,-0.045 0.465,-0.058 0.477,-0.069 0.488,-0.08 0.501,-0.089 0.516,-0.096 0.531,-0.102 0.547,-0.105 0.563,-0.105 Z m 0,0.175 C 0.571,0.07 0.577,0.069 0.584,0.066 0.59,0.063 0.596,0.06 0.601,0.055 0.605,0.05 0.609,0.044 0.612,0.038 0.615,0.031 0.616,0.025 0.616,0.018 0.616,0.01 0.615,0.004 0.612,-0.003 0.609,-0.009 0.606,-0.015 0.601,-0.02 0.596,-0.024 0.59,-0.028 0.584,-0.031 0.577,-0.034 0.571,-0.035 0.563,-0.035 c -0.007,0 -0.014,0.001 -0.02,0.004 C 0.536,-0.028 0.531,-0.024 0.526,-0.02 0.522,-0.015 0.518,-0.009 0.515,-0.003 0.513,0.004 0.511,0.01 0.511,0.018 c 0,0.007 0.002,0.013 0.004,0.02 C 0.518,0.044 0.522,0.05 0.527,0.055 0.531,0.06 0.537,0.063 0.543,0.066 0.55,0.069 0.556,0.07 0.563,0.07 Z"
         style="fill:#1f1f1f;fill-rule:nonzero"
         id="path13512" /><path
         d="M 0.757,0.035 H 0.441 C 0.431,0.035 0.423,0.032 0.416,0.025 0.409,0.018 0.406,0.009 0.406,0 L 0.398,-0.011 0.406,-0.028 v -0.077 c 0,-0.01 0.003,-0.019 0.01,-0.025 0.007,-0.007 0.015,-0.011 0.025,-0.011 h 0.21 z"
         style="fill:#e81224;fill-rule:nonzero"
         id="path13514" /><path
         d="M 0.932,0.035 H 0.616 v -0.14 c 0,-0.01 0.004,-0.019 0.01,-0.025 0.007,-0.007 0.016,-0.011 0.025,-0.011 h 0.281 c 0.01,0 0.018,0.004 0.025,0.011 0.007,0.006 0.01,0.015 0.01,0.025 L 0.982,-0.088 0.967,-0.07 V 0 c 0,0.009 -0.003,0.018 -0.01,0.025 -0.007,0.007 -0.015,0.01 -0.025,0.01 z"
         style="fill:#af0d1a;fill-rule:nonzero"
         id="path13516" /><path
         d="m 1.038,-0.842 v 0.14 l -0.036,0.017 0.036,0.018 h 0.034 l -0.07,0.351 H 0.81 L 0.79,-0.304 0.774,-0.316 c -0.005,0 -0.01,-0.001 -0.016,-0.002 C 0.753,-0.319 0.749,-0.321 0.745,-0.324 0.741,-0.327 0.738,-0.33 0.735,-0.335 0.733,-0.339 0.731,-0.345 0.731,-0.351 c 0,-0.002 0.001,-0.003 0.001,-0.004 0,-0.001 0,-0.003 0,-0.004 L 0.803,-0.64 c 0.002,-0.008 0.006,-0.014 0.012,-0.019 0.006,-0.005 0.013,-0.008 0.021,-0.008 0.008,0 0.018,0 0.031,0 0.012,0.001 0.025,0.001 0.036,0.001 0.006,0 0.012,0 0.016,0 0.005,0 0.01,-0.001 0.013,-0.001 0.004,0 0.009,-0.001 0.015,-0.003 0.006,-0.001 0.013,-0.003 0.02,-0.005 0.007,-0.001 0.013,-0.003 0.02,-0.005 0.006,-0.002 0.011,-0.004 0.015,-0.005 L 0.932,-0.702 C 0.931,-0.703 0.929,-0.703 0.927,-0.703 c -0.002,0 -0.003,0 -0.005,-0.001 C 0.914,-0.706 0.908,-0.71 0.904,-0.717 0.899,-0.723 0.897,-0.73 0.897,-0.737 v -0.07 c 0,-0.01 0.003,-0.018 0.01,-0.025 0.007,-0.007 0.015,-0.01 0.025,-0.01 z M 0.862,0.018 C 0.862,0.031 0.86,0.044 0.855,0.057 0.851,0.069 0.845,0.08 0.838,0.091 0.83,0.101 0.821,0.11 0.81,0.117 0.799,0.125 0.787,0.131 0.774,0.135 V 0.14 H 0.739 C 0.722,0.14 0.706,0.137 0.691,0.131 0.676,0.124 0.663,0.116 0.652,0.104 0.641,0.093 0.632,0.08 0.626,0.065 0.619,0.05 0.616,0.035 0.616,0.018 c 0,-0.017 0.003,-0.033 0.01,-0.048 0.006,-0.015 0.015,-0.028 0.026,-0.039 0.011,-0.011 0.024,-0.02 0.039,-0.027 0.015,-0.006 0.031,-0.009 0.048,-0.009 H 0.774 V -0.1 c 0.013,0.004 0.025,0.01 0.036,0.018 0.011,0.007 0.02,0.016 0.028,0.027 0.007,0.01 0.013,0.021 0.017,0.034 0.005,0.012 0.007,0.025 0.007,0.039 z M 0.757,-0.176 H 0.335 v -0.052 c 0,-0.007 0.002,-0.014 0.005,-0.021 0.002,-0.006 0.006,-0.012 0.011,-0.016 0.005,-0.005 0.01,-0.009 0.016,-0.012 0.007,-0.002 0.014,-0.004 0.021,-0.004 h 0.369 z m 0.333,0.148 c 0.016,0.007 0.029,0.018 0.038,0.033 0.01,0.014 0.015,0.03 0.015,0.048 0,0.017 -0.005,0.033 -0.015,0.048 C 1.119,0.115 1.106,0.126 1.09,0.133 V 0.14 H 1.055 C 1.043,0.14 1.032,0.138 1.021,0.133 1.01,0.129 1.001,0.122 0.993,0.115 0.985,0.107 0.979,0.097 0.974,0.087 0.97,0.076 0.967,0.065 0.967,0.053 0.967,0.042 0.969,0.032 0.972,0.023 0.976,0.014 0.981,0.005 0.987,-0.003 0.993,-0.01 1.001,-0.017 1.009,-0.022 1.018,-0.028 1.027,-0.031 1.038,-0.033 l 0.017,-0.014 0.018,0.012 H 1.09 Z"
         style="fill:#a6a6a6;fill-rule:nonzero"
         id="path13518" /><path
         d="M 1.002,-0.176 H 0.581 v -0.052 c 0,-0.007 0.001,-0.014 0.004,-0.02 0.003,-0.007 0.007,-0.012 0.012,-0.017 0.005,-0.005 0.01,-0.009 0.017,-0.012 0.006,-0.002 0.013,-0.004 0.02,-0.004 h 0.132 l 0.026,-0.01 0.009,0.01 H 1.02 Z M 1.03,-0.316 H 1.002 c -0.009,0 -0.017,-0.003 -0.024,-0.01 -0.007,-0.007 -0.011,-0.015 -0.011,-0.025 0,-0.002 0,-0.003 0.001,-0.004 0,-0.001 0,-0.003 0,-0.004 L 1.039,-0.64 c 0.002,-0.008 0.006,-0.014 0.012,-0.019 0.006,-0.005 0.013,-0.008 0.021,-0.008 0.01,0 0.018,0.003 0.025,0.01 0.007,0.007 0.01,0.015 0.01,0.025 0,0.001 0,0.003 0,0.004 0,0.001 0,0.003 -10e-4,0.004 z m 0.008,-0.386 c -0.01,0 -0.018,-0.004 -0.025,-0.01 C 1.006,-0.719 1.002,-0.728 1.002,-0.737 v -0.07 c 0,-0.01 0.004,-0.018 0.011,-0.025 0.007,-0.007 0.015,-0.01 0.025,-0.01 0.009,0 0.018,0.003 0.025,0.01 0.006,0.007 0.01,0.015 0.01,0.025 v 0.07 c 0,0.009 -0.004,0.018 -0.01,0.025 -0.007,0.006 -0.016,0.01 -0.025,0.01 z M 0.827,-0.448 H 0.792 V -0.5 h 0.035 z"
         style="fill:#5c5c5c;fill-rule:nonzero"
         id="path13520" /><path
         d="M 0.897,0.018 C 0.897,0.035 0.894,0.05 0.887,0.065 0.881,0.08 0.872,0.093 0.861,0.104 0.85,0.116 0.837,0.124 0.822,0.131 0.807,0.137 0.791,0.14 0.774,0.14 0.757,0.14 0.742,0.137 0.727,0.131 0.712,0.124 0.699,0.116 0.688,0.104 0.676,0.093 0.668,0.08 0.661,0.065 0.655,0.05 0.651,0.035 0.651,0.018 c 0,-0.017 0.004,-0.033 0.01,-0.048 0.007,-0.015 0.015,-0.028 0.027,-0.039 0.011,-0.011 0.024,-0.02 0.039,-0.027 0.015,-0.006 0.03,-0.009 0.047,-0.009 0.017,0 0.033,0.003 0.048,0.009 0.015,0.007 0.028,0.016 0.039,0.027 0.011,0.011 0.02,0.024 0.026,0.039 0.007,0.015 0.01,0.031 0.01,0.048 z M 1.045,-0.457 H 0.581 c -0.002,0 -0.003,0.001 -0.004,0.001 -0.005,0.001 -0.011,0.002 -0.018,0.004 -0.008,0.001 -0.015,0.004 -0.022,0.007 -0.007,0.003 -0.013,0.007 -0.018,0.011 -0.005,0.004 -0.008,0.008 -0.008,0.013 l 0.035,0.035 h 0.492 l -0.053,0.21 H 1.02 L 1.079,-0.413 C 1.08,-0.414 1.08,-0.416 1.08,-0.417 V -0.421 C 1.08,-0.431 1.077,-0.439 1.07,-0.446 1.063,-0.453 1.054,-0.457 1.045,-0.457 Z m 0.133,0.51 C 1.178,0.065 1.175,0.076 1.171,0.087 1.166,0.097 1.16,0.107 1.152,0.115 1.144,0.122 1.135,0.129 1.124,0.133 1.114,0.138 1.102,0.14 1.09,0.14 1.078,0.14 1.067,0.138 1.056,0.133 1.045,0.129 1.036,0.122 1.028,0.115 1.02,0.107 1.014,0.097 1.009,0.087 1.005,0.076 1.002,0.065 1.002,0.053 1.002,0.041 1.005,0.029 1.009,0.019 1.014,0.008 1.02,-0.002 1.028,-0.01 c 0.008,-0.007 0.017,-0.014 0.028,-0.018 0.01,-0.005 0.022,-0.007 0.034,-0.007 0.012,0 0.024,0.002 0.034,0.007 0.011,0.004 0.02,0.011 0.028,0.018 0.008,0.008 0.014,0.018 0.019,0.029 0.004,0.01 0.007,0.022 0.007,0.034 z M 0.419,0.07 H 0.287 L 0.406,0.011 v -0.039 l -0.201,0.1 C 0.202,0.073 0.199,0.076 0.198,0.079 0.196,0.082 0.195,0.085 0.195,0.088 0.195,0.093 0.197,0.097 0.2,0.1 0.204,0.103 0.208,0.105 0.213,0.105 h 0.21 C 0.425,0.105 0.431,0.103 0.44,0.099 0.45,0.095 0.461,0.09 0.474,0.083 0.487,0.077 0.501,0.07 0.516,0.062 0.531,0.055 0.546,0.047 0.56,0.04 0.573,0.033 0.585,0.027 0.596,0.022 0.606,0.016 0.613,0.013 0.617,0.011 c 0,-0.008 0.001,-0.016 0.003,-0.023 0.002,-0.008 0.004,-0.015 0.007,-0.022 0,0 -0.005,0.003 -0.015,0.008 -0.01,0.005 -0.022,0.011 -0.037,0.018 L 0.44,0.06 C 0.429,0.066 0.422,0.069 0.419,0.07 Z m 0.619,-0.103 c 0.003,-0.001 0.007,-0.002 0.01,-0.002 0.004,0 0.007,0 0.011,0 H 1.073 V -0.053 C 1.073,-0.06 1.071,-0.067 1.069,-0.073 1.066,-0.079 1.062,-0.085 1.057,-0.09 1.052,-0.095 1.047,-0.099 1.04,-0.101 1.034,-0.104 1.027,-0.105 1.02,-0.105 H 0.967 V -0.07 H 1.02 c 0.005,0 0.009,0.001 0.012,0.005 0.004,0.003 0.006,0.007 0.006,0.012 z M 0.844,-0.491 h -0.07 c 0,-0.01 0.004,-0.018 0.011,-0.025 0.007,-0.007 0.015,-0.01 0.025,-0.01 0.009,0 0.017,0.003 0.024,0.01 0.007,0.007 0.01,0.015 0.01,0.025 z m -0.07,0.175 -0.008,0.035 H 0.801 L 0.81,-0.316 Z M 1.038,-0.667 H 1.002 v -0.035 h 0.036 z"
         style="fill:#757575;fill-rule:nonzero"
         id="path13522" /><path
         d="m 0.827,0.018 c 0,0.007 -0.002,0.013 -0.004,0.02 C 0.82,0.044 0.816,0.05 0.811,0.055 0.807,0.06 0.801,0.063 0.795,0.066 0.788,0.069 0.782,0.07 0.774,0.07 0.767,0.07 0.76,0.069 0.754,0.066 0.748,0.063 0.742,0.06 0.737,0.055 0.732,0.05 0.729,0.044 0.726,0.038 0.723,0.031 0.722,0.025 0.722,0.018 c 0,-0.008 0.001,-0.014 0.004,-0.021 0.003,-0.006 0.006,-0.012 0.011,-0.017 0.005,-0.004 0.01,-0.008 0.017,-0.011 0.006,-0.003 0.013,-0.004 0.02,-0.004 0.008,0 0.014,0.001 0.021,0.004 0.006,0.003 0.012,0.007 0.017,0.011 0.004,0.005 0.008,0.011 0.011,0.017 0.002,0.007 0.004,0.013 0.004,0.021 z M 0.722,-0.421 c 0,-0.01 0.003,-0.018 0.01,-0.025 0.007,-0.007 0.015,-0.011 0.025,-0.011 h 0.067 c -0.007,0.001 -0.013,0.003 -0.017,0.006 -0.005,0.003 -0.008,0.007 -0.01,0.012 -0.002,0.005 -0.004,0.01 -0.005,0.016 0,0.006 0,0.012 0,0.018 v 0.019 h -0.07 z m -0.246,0 c 0,-0.01 0.004,-0.018 0.011,-0.025 0.007,-0.007 0.015,-0.011 0.024,-0.011 h 0.067 c -0.007,0.001 -0.013,0.003 -0.017,0.006 -0.005,0.003 -0.008,0.007 -0.01,0.012 -0.002,0.005 -0.004,0.01 -0.005,0.016 0,0.006 -0.001,0.012 -0.001,0.018 l 0.001,0.019 H 0.476 Z M 1.125,0.053 C 1.125,0.062 1.122,0.07 1.115,0.077 1.108,0.084 1.1,0.087 1.09,0.087 1.081,0.087 1.073,0.084 1.066,0.077 1.059,0.07 1.055,0.062 1.055,0.053 c 0,-0.01 0.004,-0.018 0.01,-0.025 0.007,-0.007 0.016,-0.01 0.025,-0.01 0.01,0 0.018,0.003 0.025,0.01 0.007,0.007 0.01,0.015 0.01,0.025 z m -0.193,-0.72 v -0.035 h 0.07 v 0.035 z"
         style="fill:#cccccc;fill-rule:nonzero"
         id="path13524" /></g></g></svg>
