<?xml version="1.0" encoding="UTF-8" standalone="no"?>
<svg
   width="16.844999"
   height="15.255"
   viewBox="0 0 16.844999 15.255"
   version="1.1"
   xml:space="preserve"
   style="clip-rule:evenodd;fill-rule:evenodd;stroke-linejoin:round;stroke-miterlimit:2"
   id="svg20568"
   sodipodi:docname="emojis.svg"
   xmlns:inkscape="http://www.inkscape.org/namespaces/inkscape"
   xmlns:sodipodi="http://sodipodi.sourceforge.net/DTD/sodipodi-0.dtd"
   xmlns="http://www.w3.org/2000/svg"
   xmlns:svg="http://www.w3.org/2000/svg"><defs
     id="defs20572" /><sodipodi:namedview
     id="namedview20570"
     pagecolor="#505050"
     bordercolor="#eeeeee"
     borderopacity="1"
     inkscape:pageshadow="0"
     inkscape:pageopacity="0"
     inkscape:pagecheckerboard="0" /><g
     transform="matrix(0.24,0,0,0.24,-313.2054,-677.5566)"
     id="g20566"><g
       transform="matrix(62.5,0,0,62.5,1297.21,2873.59)"
       id="g13634"><path
         d="m 1.213,-0.521 0.035,0.036 V 0.21 H 0.125 V -0.562 H 0.16 v -0.07 h 0.203 c 0.018,-0.027 0.039,-0.052 0.063,-0.074 0.023,-0.021 0.049,-0.04 0.076,-0.055 0.028,-0.015 0.057,-0.026 0.089,-0.034 0.031,-0.008 0.063,-0.012 0.096,-0.012 0.032,0 0.064,0.004 0.095,0.012 0.031,0.008 0.06,0.019 0.088,0.035 0.028,0.015 0.053,0.033 0.077,0.055 0.024,0.021 0.044,0.046 0.062,0.073 h 0.204 z"
         style="fill-rule:nonzero"
         id="path13616" /><path
         d="M 1.178,-0.351 V 0.14 H 0.195 v -0.491 l 0.044,-0.052 h 0.34 l 0.002,0.041 H 0.78 l 0.047,-0.037 h 0.3 z"
         style="fill:#eba300;fill-rule:nonzero"
         id="path13618" /><path
         d="m 1.002,-0.421 v 0.062 H 0.371 v -0.062 c 0,-0.029 0.003,-0.057 0.011,-0.084 0.007,-0.027 0.018,-0.053 0.032,-0.076 0.014,-0.023 0.03,-0.044 0.049,-0.064 0.02,-0.019 0.041,-0.035 0.064,-0.049 0.023,-0.014 0.049,-0.025 0.076,-0.032 0.027,-0.008 0.055,-0.011 0.084,-0.011 0.028,0 0.056,0.003 0.084,0.011 0.027,0.007 0.052,0.018 0.075,0.032 0.023,0.014 0.044,0.03 0.064,0.049 0.019,0.02 0.035,0.041 0.049,0.064 0.014,0.023 0.025,0.049 0.032,0.076 0.008,0.027 0.011,0.055 0.011,0.084 z"
         style="fill:#fce100;fill-rule:nonzero"
         id="path13620" /><path
         d="m 1.143,-0.491 0.035,0.034 v 0.106 H 0.792 C 0.791,-0.339 0.787,-0.328 0.78,-0.32 0.772,-0.311 0.763,-0.304 0.753,-0.299 0.743,-0.293 0.732,-0.289 0.72,-0.287 0.708,-0.285 0.697,-0.284 0.687,-0.284 0.676,-0.284 0.665,-0.285 0.653,-0.287 0.641,-0.289 0.63,-0.293 0.62,-0.299 0.61,-0.304 0.601,-0.311 0.594,-0.32 0.586,-0.328 0.582,-0.339 0.581,-0.351 H 0.195 v -0.14 h 0.07 v 0.034 L 0.3,-0.421 h 0.167 v -0.036 h 0.079 v -0.069 h 0.07 v 0.14 h 0.141 l 0.035,-0.035 h 0.14 v -0.105 h 0.106 v 0.035 l 0.035,0.034 h 0.034 v -0.105 h 0.036 z"
         style="fill:#ffc83d;fill-rule:nonzero"
         id="path13622" /><path
         d="M 0.792,-0.351 1.178,0.035 V 0.07 L 1.158,0.068 1.178,0.105 V 0.14 H 0.195 V 0.105 L 0.212,0.07 H 0.195 V 0.035 l 0.386,-0.386 h 0.035 l -0.001,0.018 0.036,-0.018 h 0.071 l 0.033,0.018 0.002,-0.018 z M 0.476,-0.43 v 0.149 H 0.441 V -0.43 Z m -0.176,0 v 0.149 H 0.265 V -0.43 Z"
         style="fill:#cccccc;fill-rule:nonzero"
         id="path13624" /><path
         d="M 0.195,0.07 0.616,-0.351 H 0.651 L 0.195,0.105 Z M 0.757,-0.351 1.178,0.07 V 0.105 L 0.722,-0.351 Z"
         style="fill:#fff100;fill-rule:nonzero"
         id="path13626" /><path
         d="m 0.353,-0.246 c 0.005,0 0.009,0.002 0.012,0.006 0.004,0.003 0.006,0.007 0.006,0.012 0,0.005 -0.002,0.009 -0.006,0.012 -0.003,0.004 -0.007,0.006 -0.012,0.006 -0.005,0 -0.009,-0.002 -0.012,-0.006 -0.004,-0.003 -0.006,-0.007 -0.006,-0.012 0,-0.005 0.002,-0.009 0.006,-0.012 0.003,-0.004 0.007,-0.006 0.012,-0.006 z m -0.105,0 c 0.005,0 0.009,0.002 0.012,0.006 0.003,0.003 0.005,0.007 0.005,0.012 0,0.005 -0.002,0.009 -0.005,0.012 C 0.257,-0.212 0.253,-0.21 0.248,-0.21 0.243,-0.21 0.239,-0.212 0.236,-0.216 0.232,-0.219 0.23,-0.223 0.23,-0.228 c 0,-0.005 0.002,-0.009 0.006,-0.012 0.003,-0.004 0.007,-0.006 0.012,-0.006 z m 0,0.105 c 0.005,0 0.009,0.002 0.012,0.006 0.003,0.003 0.005,0.007 0.005,0.012 0,0.005 -0.002,0.009 -0.005,0.012 -0.003,0.004 -0.007,0.006 -0.012,0.006 -0.005,0 -0.009,-0.002 -0.012,-0.006 C 0.232,-0.114 0.23,-0.118 0.23,-0.123 c 0,-0.005 0.002,-0.009 0.006,-0.012 0.003,-0.004 0.007,-0.006 0.012,-0.006 z M 1.09,-0.176 c 0.005,0 0.009,0.002 0.012,0.006 0.004,0.003 0.005,0.007 0.005,0.012 0,0.004 -10e-4,0.008 -0.005,0.012 -0.003,0.004 -0.007,0.005 -0.012,0.005 -0.005,0 -0.009,-0.001 -0.012,-0.005 -0.004,-0.003 -0.005,-0.007 -0.005,-0.012 0,-0.005 0.002,-0.009 0.005,-0.012 0.004,-0.004 0.008,-0.006 0.012,-0.006 z M 0.985,-0.281 c 0.005,0 0.009,0.002 0.012,0.005 0.004,0.004 0.005,0.008 0.005,0.013 0,0.005 -0.001,0.009 -0.005,0.012 -0.003,0.004 -0.007,0.005 -0.012,0.005 -0.005,0 -0.009,-0.001 -0.013,-0.005 -0.003,-0.003 -0.005,-0.007 -0.005,-0.012 0,-0.005 0.002,-0.009 0.005,-0.013 0.004,-0.003 0.008,-0.005 0.013,-0.005 z m 0.105,0.035 c -0.005,0 -0.009,-0.001 -0.012,-0.005 -0.004,-0.003 -0.005,-0.007 -0.005,-0.012 0,-0.005 0.001,-0.009 0.005,-0.013 0.003,-0.003 0.007,-0.005 0.012,-0.005 0.005,0 0.009,0.002 0.012,0.006 0.004,0.003 0.005,0.007 0.005,0.012 0,0.004 -10e-4,0.008 -0.005,0.012 -0.003,0.004 -0.007,0.005 -0.012,0.005 z"
         style="fill:#ffb900;fill-rule:nonzero"
         id="path13628" /><rect
         x="0.23"
         y="-0.56199998"
         width="0.28099999"
         height="0.175"
         style="fill:#13a10e;fill-rule:nonzero"
         id="rect13630" /><path
         d="m 0.265,-0.491 v -0.035 h 0.141 v 0.035 z m 0,0.07 v -0.036 h 0.141 v 0.036 z m 0.176,0 v -0.036 h 0.035 v 0.036 z m 0,-0.105 h 0.035 v 0.035 H 0.441 Z"
         style="fill:#ffffff;fill-rule:nonzero"
         id="path13632" /></g></g></svg>
