<?xml version="1.0" encoding="UTF-8" standalone="no"?>
<svg
   width="7.8899999"
   height="16.860001"
   viewBox="0 0 7.8899999 16.860001"
   version="1.1"
   xml:space="preserve"
   style="clip-rule:evenodd;fill-rule:evenodd;stroke-linejoin:round;stroke-miterlimit:2"
   id="svg20568"
   sodipodi:docname="emojis.svg"
   xmlns:inkscape="http://www.inkscape.org/namespaces/inkscape"
   xmlns:sodipodi="http://sodipodi.sourceforge.net/DTD/sodipodi-0.dtd"
   xmlns="http://www.w3.org/2000/svg"
   xmlns:svg="http://www.w3.org/2000/svg"><defs
     id="defs20572" /><sodipodi:namedview
     id="namedview20570"
     pagecolor="#505050"
     bordercolor="#eeeeee"
     borderopacity="1"
     inkscape:pageshadow="0"
     inkscape:pageopacity="0"
     inkscape:pagecheckerboard="0" /><g
     transform="matrix(0.24,0,0,0.24,-301.5534,-675.9666)"
     id="g20566"><g
       transform="matrix(62.5,0,0,62.5,1248.66,2873.59)"
       id="g13614"><path
         d="M 0.265,-0.475 C 0.244,-0.483 0.225,-0.495 0.208,-0.51 0.19,-0.524 0.176,-0.54 0.163,-0.559 0.151,-0.577 0.142,-0.597 0.135,-0.618 0.128,-0.64 0.125,-0.662 0.125,-0.685 c 0,-0.031 0.006,-0.06 0.018,-0.088 0.012,-0.028 0.028,-0.052 0.049,-0.072 0.021,-0.021 0.045,-0.037 0.073,-0.05 0.027,-0.012 0.057,-0.018 0.088,-0.018 0.032,0 0.061,0.006 0.089,0.018 0.028,0.013 0.052,0.029 0.072,0.05 0.021,0.02 0.037,0.044 0.049,0.072 0.013,0.028 0.019,0.057 0.019,0.089 0,0.03 -0.006,0.058 -0.017,0.085 -0.011,0.027 -0.027,0.052 -0.047,0.073 h 0.133 v 0.456 h -0.21 v 0.071 h 0.07 V 0.036 H 0.546 V 0.211 H 0.16 V 0.036 H 0.195 V 0.001 h 0.07 z"
         style="fill-rule:nonzero"
         id="path13600" /><path
         d="M 0.335,-0.527 C 0.317,-0.529 0.3,-0.534 0.284,-0.542 0.268,-0.55 0.254,-0.56 0.242,-0.573 0.229,-0.585 0.219,-0.599 0.211,-0.615 0.203,-0.632 0.198,-0.649 0.196,-0.667 c 0.006,-0.006 0.015,-0.011 0.028,-0.015 0.014,-0.004 0.028,-0.007 0.043,-0.009 0.016,-0.002 0.031,-0.004 0.045,-0.004 0.015,-0.001 0.027,-0.001 0.035,-0.001 0.01,0 0.023,0 0.038,0.001 0.016,0.001 0.031,0.002 0.047,0.004 0.016,0.002 0.031,0.005 0.045,0.009 0.014,0.004 0.025,0.009 0.033,0.015 -0.002,0.018 -0.007,0.035 -0.015,0.052 -0.008,0.016 -0.018,0.03 -0.03,0.042 C 0.452,-0.56 0.438,-0.55 0.422,-0.542 0.406,-0.534 0.389,-0.529 0.371,-0.527 0.369,-0.524 0.367,-0.521 0.363,-0.519 0.36,-0.516 0.356,-0.515 0.353,-0.515 0.349,-0.515 0.346,-0.516 0.342,-0.519 0.339,-0.521 0.337,-0.524 0.335,-0.527 Z"
         style="fill:#3a96dd;fill-rule:nonzero"
         id="path13602" /><path
         d="M 0.51,-0.702 C 0.5,-0.697 0.487,-0.693 0.473,-0.69 0.46,-0.687 0.445,-0.684 0.431,-0.682 c -0.015,0.001 -0.029,0.003 -0.043,0.004 -0.014,0 -0.027,0.001 -0.039,0.001 -0.011,0 -0.023,-0.001 -0.037,-0.001 C 0.298,-0.679 0.285,-0.681 0.271,-0.682 0.257,-0.684 0.243,-0.687 0.23,-0.69 0.217,-0.693 0.206,-0.697 0.196,-0.702 c 0.003,-0.02 0.008,-0.038 0.017,-0.056 0.009,-0.017 0.021,-0.031 0.035,-0.044 0.014,-0.013 0.03,-0.022 0.048,-0.03 0.018,-0.007 0.037,-0.01 0.057,-0.01 0.02,0 0.039,0.003 0.057,0.01 0.018,0.008 0.034,0.017 0.048,0.03 0.014,0.013 0.026,0.027 0.035,0.044 0.009,0.018 0.015,0.036 0.017,0.056 z"
         style="fill:#e81224;fill-rule:nonzero"
         id="path13604" /><path
         d="m 0.491,-0.425 c 0.007,0 0.015,0 0.023,0.001 0.008,0.001 0.016,0.002 0.023,0.005 0.008,0.002 0.015,0.005 0.021,0.009 0.007,0.004 0.013,0.009 0.018,0.014 0,0.001 0.001,0.003 0.003,0.005 0.001,0.003 0.002,0.004 0.002,0.005 v 0.245 H 0.406 V -0.175 L 0.401,-0.181 V -0.206 L 0.406,-0.21 v -0.176 c 0,-0.002 0,-0.003 0.002,-0.006 C 0.409,-0.394 0.41,-0.396 0.411,-0.396 0.415,-0.402 0.421,-0.407 0.427,-0.411 0.433,-0.415 0.44,-0.418 0.448,-0.42 0.455,-0.422 0.462,-0.423 0.47,-0.424 0.477,-0.425 0.484,-0.425 0.491,-0.425 Z M 0.195,-0.672 v -0.025 c 0,-0.002 0.001,-0.004 0.001,-0.005 H 0.51 c 0.001,0.003 0.001,0.006 0.001,0.009 0,0.003 0,0.005 0,0.008 0,0.003 0,0.006 0,0.009 0,0.003 0,0.006 -0.001,0.009 H 0.196 c 0,-0.002 -0.001,-0.003 -0.001,-0.005 z"
         style="fill:#f2f2f2;fill-rule:nonzero"
         id="path13606" /><path
         d="M 0.441,0.105 H 0.476 V 0.14 H 0.23 V 0.105 H 0.266 V 0.07 h 0.069 v -0.597 c 0.003,0 0.006,0 0.009,0 0.003,0.001 0.006,0.001 0.009,0.001 0.003,0 0.006,0 0.009,-0.001 0.003,0 0.006,0 0.009,0 v 0.106 H 0.464 L 0.406,-0.386 H 0.371 v 0.176 h 0.035 v 0.035 H 0.371 V 0.07 h 0.07 z m 0,-0.456 h 0.035 v 0.035 H 0.441 Z m 0,0.141 h 0.035 v 0.035 H 0.441 Z m 0.105,-0.071 v 0.035 H 0.511 v -0.035 z"
         style="fill:#cccccc;fill-rule:nonzero"
         id="path13608" /><rect
         x="0.40599999"
         y="-0.45699999"
         width="0.175"
         height="0.07"
         style="fill:#757575;fill-rule:nonzero"
         id="rect13610" /><path
         d="m 0.441,-0.281 h 0.035 v 0.035 H 0.441 Z m 0.07,0.071 h 0.035 v 0.035 H 0.511 Z m 0.035,-0.141 v 0.035 H 0.511 v -0.035 z"
         style="fill:#e5e5e5;fill-rule:nonzero"
         id="path13612" /></g></g></svg>
