<?xml version="1.0" encoding="UTF-8" standalone="no"?>
<svg
   width="14.745"
   height="12.63"
   viewBox="0 0 14.745 12.63"
   version="1.1"
   xml:space="preserve"
   style="clip-rule:evenodd;fill-rule:evenodd;stroke-linejoin:round;stroke-miterlimit:2"
   id="svg20568"
   sodipodi:docname="emojis.svg"
   xmlns:inkscape="http://www.inkscape.org/namespaces/inkscape"
   xmlns:sodipodi="http://sodipodi.sourceforge.net/DTD/sodipodi-0.dtd"
   xmlns="http://www.w3.org/2000/svg"
   xmlns:svg="http://www.w3.org/2000/svg"><defs
     id="defs20572" /><sodipodi:namedview
     id="namedview20570"
     pagecolor="#505050"
     bordercolor="#eeeeee"
     borderopacity="1"
     inkscape:pageshadow="0"
     inkscape:pageopacity="0"
     inkscape:pagecheckerboard="0" /><g
     transform="matrix(0.24,0,0,0.24,-387.1662,-677.5566)"
     id="g20566"><g
       transform="matrix(62.5,0,0,62.5,1605.38,2873.59)"
       id="g13690"><path
         d="M 0.23,0.035 C 0.215,0.035 0.202,0.032 0.189,0.027 0.176,0.021 0.165,0.014 0.156,0.004 0.146,-0.005 0.139,-0.017 0.133,-0.029 0.128,-0.042 0.125,-0.056 0.125,-0.07 v -0.071 c 0,-0.017 0.004,-0.034 0.012,-0.049 0.008,-0.015 0.019,-0.028 0.034,-0.038 L 0.276,-0.647 C 0.282,-0.671 0.291,-0.692 0.304,-0.712 0.317,-0.731 0.332,-0.748 0.35,-0.762 0.368,-0.777 0.389,-0.788 0.411,-0.795 0.433,-0.803 0.456,-0.807 0.48,-0.807 h 0.272 c 0.025,0 0.048,0.004 0.07,0.012 0.022,0.007 0.042,0.018 0.06,0.033 0.018,0.014 0.034,0.031 0.046,0.05 0.013,0.02 0.023,0.041 0.029,0.065 l 0.105,0.419 c 0.009,0.007 0.017,0.015 0.023,0.023 0.007,0.008 0.011,0.016 0.015,0.026 0.003,0.009 0.006,0.019 0.007,0.029 0.001,0.01 0.001,0.021 0.001,0.032 L 1.107,-0.07 c 0,0.014 -0.002,0.028 -0.008,0.04 C 1.094,-0.017 1.086,-0.006 1.076,0.004 1.067,0.013 1.056,0.021 1.043,0.027 1.03,0.032 1.017,0.035 1.002,0.035 Z"
         style="fill-rule:nonzero"
         id="path13682" /><path
         d="m 1.002,-0.176 -0.243,0.042 c -0.01,0.001 -0.02,0.003 -0.03,0.006 -0.011,0.002 -0.021,0.005 -0.031,0.007 -0.01,0.002 -0.02,0.004 -0.03,0.006 -0.011,0.001 -0.021,0.002 -0.031,0.002 -0.011,0 -0.023,-0.001 -0.034,-0.002 C 0.592,-0.117 0.58,-0.119 0.569,-0.121 0.558,-0.123 0.547,-0.126 0.535,-0.128 0.524,-0.131 0.513,-0.133 0.501,-0.134 L 0.23,-0.176 0.344,-0.631 c 0.004,-0.015 0.01,-0.03 0.019,-0.043 0.008,-0.013 0.019,-0.024 0.031,-0.034 0.012,-0.009 0.025,-0.016 0.04,-0.021 0.014,-0.006 0.03,-0.008 0.046,-0.008 h 0.272 c 0.016,0 0.032,0.002 0.047,0.008 0.014,0.005 0.028,0.012 0.04,0.021 0.012,0.01 0.022,0.021 0.031,0.034 0.008,0.013 0.015,0.028 0.019,0.043 z"
         style="fill:#e81224;fill-rule:nonzero"
         id="path13684" /><path
         d="M 0.729,-0.176 0.611,-0.117 0.503,-0.176 c 0.001,-0.002 0.001,-0.005 0.001,-0.008 0,-0.003 0,-0.006 0,-0.008 0,-0.022 -0.003,-0.042 -0.011,-0.062 C 0.485,-0.273 0.475,-0.291 0.461,-0.307 0.448,-0.322 0.432,-0.335 0.414,-0.346 0.396,-0.357 0.377,-0.364 0.356,-0.368 c 0.021,-0.005 0.041,-0.013 0.059,-0.024 0.018,-0.011 0.034,-0.024 0.047,-0.04 0.013,-0.016 0.024,-0.033 0.031,-0.053 0.007,-0.02 0.011,-0.041 0.011,-0.063 0,-0.005 0,-0.01 -0.001,-0.014 0,-0.005 -0.001,-0.01 -0.002,-0.015 0.017,0.012 0.035,0.021 0.055,0.027 0.02,0.007 0.04,0.01 0.06,0.01 0.021,0 0.041,-0.003 0.061,-0.01 0.019,-0.006 0.037,-0.015 0.054,-0.027 -0.001,0.005 -0.001,0.01 -0.002,0.015 0,0.004 0,0.009 0,0.014 0,0.022 0.003,0.043 0.011,0.062 0.007,0.02 0.017,0.038 0.03,0.054 0.013,0.016 0.029,0.029 0.047,0.04 0.018,0.011 0.037,0.019 0.059,0.023 -0.021,0.004 -0.04,0.011 -0.058,0.022 -0.018,0.011 -0.034,0.025 -0.047,0.041 -0.013,0.015 -0.024,0.033 -0.031,0.053 -0.008,0.02 -0.012,0.04 -0.012,0.061 0,0.002 0,0.005 0,0.008 0,0.003 0.001,0.006 0.001,0.008 z"
         style="fill:#ef6950;fill-rule:nonzero"
         id="path13686" /><path
         d="m 1.002,-0.176 c 0.01,0 0.018,0.004 0.025,0.011 0.007,0.007 0.01,0.015 0.01,0.024 v 0.071 c 0,0.009 -0.003,0.017 -0.01,0.024 -0.007,0.007 -0.015,0.011 -0.025,0.011 H 0.23 c -0.009,0 -0.018,-0.004 -0.025,-0.011 -0.007,-0.007 -0.01,-0.015 -0.01,-0.024 v -0.071 c 0,-0.009 0.003,-0.017 0.01,-0.024 0.007,-0.007 0.016,-0.011 0.025,-0.011 z"
         style="fill:#cccccc;fill-rule:nonzero"
         id="path13688" /></g></g></svg>
