<?xml version="1.0" encoding="UTF-8" standalone="no"?>
<svg
   width="16.844999"
   height="16.844999"
   viewBox="0 0 16.844999 16.844999"
   version="1.1"
   xml:space="preserve"
   style="clip-rule:evenodd;fill-rule:evenodd;stroke-linejoin:round;stroke-miterlimit:2"
   id="svg20568"
   sodipodi:docname="emojis.svg"
   xmlns:inkscape="http://www.inkscape.org/namespaces/inkscape"
   xmlns:sodipodi="http://sodipodi.sourceforge.net/DTD/sodipodi-0.dtd"
   xmlns="http://www.w3.org/2000/svg"
   xmlns:svg="http://www.w3.org/2000/svg"><defs
     id="defs20572" /><sodipodi:namedview
     id="namedview20570"
     pagecolor="#505050"
     bordercolor="#eeeeee"
     borderopacity="1"
     inkscape:pageshadow="0"
     inkscape:pageopacity="0"
     inkscape:pagecheckerboard="0" /><g
     transform="matrix(0.24,0,0,0.24,-33.8094,-127.68924)"
     id="g20566"><g
       transform="matrix(62.5,0,0,62.5,133.06,589.101)"
       id="g1366"><path
         d="M 1.143,-0.421 H 1.16 c 0.012,0 0.024,0.002 0.034,0.006 0.011,0.005 0.02,0.011 0.028,0.019 0.008,0.008 0.015,0.018 0.019,0.028 0.005,0.011 0.007,0.022 0.007,0.035 0,0.007 -10e-4,0.015 -0.003,0.022 -0.003,0.008 -0.006,0.015 -0.009,0.021 L 1.112,-0.055 C 1.104,-0.04 1.095,-0.025 1.086,-0.01 1.077,0.004 1.068,0.019 1.057,0.032 1.035,0.061 1.01,0.086 0.982,0.108 0.954,0.13 0.924,0.149 0.892,0.164 0.861,0.179 0.827,0.191 0.792,0.198 0.758,0.206 0.722,0.21 0.687,0.21 0.622,0.21 0.561,0.198 0.503,0.175 0.446,0.151 0.394,0.115 0.349,0.069 0.327,0.066 0.307,0.06 0.288,0.05 0.269,0.04 0.253,0.027 0.239,0.012 0.226,-0.003 0.215,-0.021 0.207,-0.041 0.199,-0.06 0.195,-0.081 0.195,-0.103 c 0,-0.02 0.004,-0.039 0.01,-0.058 L 0.137,-0.291 C 0.133,-0.297 0.13,-0.304 0.128,-0.311 0.126,-0.319 0.125,-0.326 0.125,-0.333 c 0,-0.013 0.002,-0.024 0.007,-0.035 0.004,-0.01 0.011,-0.02 0.019,-0.028 0.008,-0.008 0.017,-0.014 0.027,-0.019 0.011,-0.004 0.023,-0.006 0.035,-0.006 H 0.23 v -0.386 c 0,-0.015 0.003,-0.028 0.009,-0.041 0.005,-0.013 0.013,-0.024 0.022,-0.034 0.01,-0.009 0.021,-0.017 0.033,-0.022 0.013,-0.006 0.027,-0.009 0.041,-0.009 0.01,0 0.019,0.002 0.029,0.005 0.01,0.003 0.018,0.006 0.027,0.011 l 0.21,0.125 h 0.171 l 0.213,-0.126 c 0.007,-0.005 0.016,-0.008 0.025,-0.011 0.01,-0.002 0.019,-0.004 0.028,-0.004 0.014,0 0.028,0.003 0.041,0.009 0.012,0.005 0.023,0.013 0.033,0.022 0.009,0.01 0.017,0.021 0.022,0.034 0.006,0.013 0.009,0.026 0.009,0.041 z"
         style="fill-rule:nonzero"
         id="path1350" /><path
         d="M 1.073,-0.351 H 1.16 c 0.005,0 0.009,0.002 0.013,0.005 0.003,0.003 0.005,0.008 0.005,0.013 0,0.001 -0.003,0.008 -0.009,0.02 C 1.163,-0.302 1.156,-0.288 1.148,-0.271 1.139,-0.255 1.13,-0.237 1.119,-0.218 1.109,-0.198 1.099,-0.18 1.09,-0.162 1.08,-0.145 1.072,-0.129 1.064,-0.115 1.057,-0.102 1.052,-0.093 1.049,-0.088 1.042,-0.075 1.035,-0.063 1.028,-0.05 1.021,-0.038 1.013,-0.026 1.004,-0.015 0.985,0.01 0.963,0.032 0.939,0.051 0.916,0.07 0.89,0.086 0.863,0.099 0.836,0.113 0.807,0.123 0.778,0.13 0.748,0.137 0.718,0.14 0.687,0.14 0.655,0.14 0.625,0.137 0.595,0.13 0.566,0.123 0.537,0.112 0.51,0.099 0.483,0.086 0.458,0.07 0.434,0.051 0.41,0.031 0.389,0.01 0.369,-0.015 0.36,-0.026 0.352,-0.038 0.344,-0.05 0.337,-0.063 0.33,-0.075 0.323,-0.088 0.318,-0.097 0.312,-0.109 0.304,-0.124 0.296,-0.139 0.287,-0.155 0.277,-0.173 0.268,-0.19 0.258,-0.208 0.249,-0.227 0.239,-0.245 0.23,-0.262 0.222,-0.277 0.214,-0.292 0.208,-0.305 0.203,-0.315 0.198,-0.326 0.195,-0.332 0.195,-0.333 c 0,-0.005 0.002,-0.01 0.005,-0.013 0.004,-0.003 0.008,-0.005 0.013,-0.005 H 0.3 v -0.456 c 0,-0.01 0.004,-0.018 0.011,-0.025 0.006,-0.007 0.015,-0.01 0.024,-0.01 0.004,0 0.007,0 0.01,0.001 0.004,0.002 0.007,0.003 0.009,0.005 l 0.227,0.134 h 0.211 l 0.226,-0.134 c 0.002,-0.002 0.006,-0.003 0.01,-0.004 0.004,-0.002 0.007,-0.002 0.01,-0.002 0.009,0 0.017,0.003 0.024,0.01 0.007,0.007 0.011,0.015 0.011,0.025 z"
         style="fill:#ffc83d;fill-rule:nonzero"
         id="path1352" /><path
         d="m 0.476,-0.685 c 0,0.004 -0.001,0.007 -0.003,0.009 -0.001,0.003 -0.004,0.005 -0.006,0.007 L 0.3,-0.569 V -0.8 l 0.167,0.1 c 0.003,0.002 0.005,0.004 0.007,0.007 0.001,0.002 0.002,0.005 0.002,0.008 z m 0.421,0 c 0,-0.003 0.001,-0.006 0.002,-0.008 0.002,-0.003 0.004,-0.005 0.007,-0.007 l 0.167,-0.1 v 0.231 l -0.167,-0.1 C 0.904,-0.671 0.901,-0.673 0.9,-0.676 0.898,-0.678 0.897,-0.681 0.897,-0.685 Z m -0.316,0.159 v -0.176 h 0.07 v 0.176 c 0,0.009 -0.003,0.017 -0.01,0.024 -0.007,0.007 -0.015,0.011 -0.025,0.011 -0.009,0 -0.017,-0.004 -0.024,-0.011 C 0.585,-0.509 0.581,-0.517 0.581,-0.526 Z m 0.141,0 v -0.176 h 0.07 v 0.176 c 0,0.009 -0.004,0.017 -0.011,0.024 -0.007,0.007 -0.015,0.011 -0.024,0.011 -0.01,0 -0.018,-0.004 -0.025,-0.011 -0.007,-0.007 -0.01,-0.015 -0.01,-0.024 z M 0.511,-0.597 c 0.01,0 0.018,0.004 0.025,0.011 0.006,0.007 0.01,0.015 0.01,0.024 0,0.012 -0.003,0.02 -0.01,0.025 -0.006,0.006 -0.015,0.009 -0.025,0.011 -0.013,0.002 -0.025,0.004 -0.035,0.008 -0.01,0.003 -0.019,0.007 -0.028,0.012 -0.008,0.005 -0.017,0.01 -0.025,0.017 -0.008,0.006 -0.017,0.014 -0.027,0.022 -0.004,0.003 -0.008,0.006 -0.012,0.008 -0.004,0.002 -0.008,0.002 -0.013,0.002 -0.01,0 -0.018,-0.003 -0.025,-0.01 -0.007,-0.007 -0.011,-0.015 -0.011,-0.024 0,-0.006 0.001,-0.01 0.003,-0.014 0.002,-0.003 0.004,-0.007 0.008,-0.011 0.009,-0.01 0.02,-0.02 0.033,-0.03 0.013,-0.009 0.027,-0.018 0.042,-0.026 0.015,-0.007 0.031,-0.013 0.046,-0.018 0.016,-0.004 0.03,-0.007 0.044,-0.007 z m 0.351,0 c 0.013,0 0.028,0.003 0.044,0.007 0.015,0.005 0.031,0.011 0.046,0.019 0.015,0.007 0.029,0.016 0.042,0.025 0.013,0.01 0.024,0.02 0.033,0.03 0.004,0.004 0.007,0.008 0.008,0.011 0.002,0.004 0.003,0.008 0.003,0.014 0,0.009 -0.004,0.017 -0.011,0.024 -0.007,0.007 -0.015,0.01 -0.025,0.01 -0.005,0 -0.009,0 -0.013,-0.002 C 0.985,-0.461 0.981,-0.464 0.978,-0.467 0.977,-0.468 0.975,-0.469 0.973,-0.47 0.963,-0.478 0.955,-0.485 0.947,-0.491 0.939,-0.497 0.931,-0.503 0.923,-0.507 0.915,-0.512 0.906,-0.516 0.896,-0.519 0.887,-0.522 0.875,-0.524 0.862,-0.526 0.852,-0.528 0.843,-0.532 0.837,-0.537 0.83,-0.543 0.827,-0.551 0.827,-0.562 c 0,-0.009 0.004,-0.018 0.01,-0.024 0.007,-0.007 0.015,-0.011 0.025,-0.011 z"
         style="fill:#d48c00;fill-rule:nonzero"
         id="path1354" /><path
         d="m 0.406,-0.105 c 0,-0.02 0.003,-0.038 0.011,-0.055 0.007,-0.017 0.017,-0.032 0.03,-0.045 0.012,-0.012 0.027,-0.022 0.044,-0.03 0.018,-0.007 0.036,-0.011 0.055,-0.011 h 0.281 c 0.019,0 0.038,0.004 0.055,0.011 0.017,0.008 0.032,0.018 0.044,0.03 0.013,0.013 0.023,0.028 0.03,0.045 0.008,0.017 0.011,0.035 0.011,0.055 C 0.967,-0.065 0.96,-0.03 0.944,0 0.929,0.031 0.908,0.057 0.883,0.077 0.857,0.098 0.827,0.114 0.793,0.124 0.759,0.135 0.724,0.14 0.687,0.14 0.649,0.14 0.614,0.135 0.58,0.124 0.546,0.114 0.516,0.098 0.49,0.077 0.465,0.057 0.444,0.031 0.429,0 0.413,-0.03 0.406,-0.065 0.406,-0.105 Z"
         style="fill:#ffffff;fill-rule:nonzero"
         id="path1356" /><path
         d="m 0.581,-0.246 h 0.211 l -0.081,0.095 c -0.003,0.004 -0.006,0.006 -0.011,0.008 -0.004,0.002 -0.009,0.002 -0.013,0.002 -0.005,0 -0.01,0 -0.014,-0.002 C 0.668,-0.145 0.665,-0.147 0.662,-0.151 Z"
         style="fill:#f7894a;fill-rule:nonzero"
         id="path1358" /><path
         d="m 0.687,-0.105 c 0.013,0 0.026,0.001 0.04,0.005 0.013,0.003 0.026,0.009 0.038,0.015 0.012,0.007 0.023,0.015 0.032,0.025 0.01,0.009 0.018,0.02 0.025,0.032 0.001,0.003 0.003,0.006 0.003,0.009 0.001,0.003 0.002,0.006 0.002,0.009 C 0.827,0 0.823,0.008 0.816,0.015 0.81,0.022 0.801,0.025 0.792,0.025 0.786,0.025 0.781,0.024 0.776,0.021 0.772,0.018 0.767,0.014 0.763,0.01 0.759,0.005 0.755,0 0.751,-0.005 0.747,-0.01 0.742,-0.015 0.736,-0.02 0.73,-0.024 0.724,-0.028 0.716,-0.031 0.708,-0.034 0.698,-0.035 0.687,-0.035 c -0.012,0 -0.022,0.001 -0.03,0.004 C 0.649,-0.028 0.643,-0.024 0.637,-0.02 0.631,-0.015 0.626,-0.01 0.622,-0.005 0.618,0 0.614,0.005 0.61,0.01 0.606,0.014 0.602,0.018 0.597,0.021 0.593,0.024 0.588,0.025 0.582,0.025 0.572,0.025 0.563,0.022 0.556,0.015 0.549,0.008 0.546,0 0.546,-0.01 c 0,-0.004 0,-0.007 0.001,-0.009 C 0.548,-0.022 0.549,-0.025 0.551,-0.028 0.557,-0.04 0.565,-0.051 0.575,-0.06 0.585,-0.07 0.596,-0.078 0.608,-0.085 0.62,-0.091 0.633,-0.097 0.646,-0.1 0.66,-0.104 0.673,-0.105 0.687,-0.105 Z"
         style="fill:#cccccc;fill-rule:nonzero"
         id="path1360" /><path
         d="m 0.371,-0.316 0.088,0.155 c 0.005,0.009 0.009,0.018 0.012,0.028 0.003,0.01 0.005,0.02 0.005,0.03 0,0.014 -0.003,0.028 -0.009,0.04 C 0.461,-0.05 0.454,-0.039 0.444,-0.03 0.435,-0.021 0.424,-0.013 0.411,-0.008 0.398,-0.003 0.385,0 0.371,0 0.356,0 0.342,-0.003 0.33,-0.008 0.317,-0.013 0.306,-0.02 0.296,-0.03 0.287,-0.039 0.279,-0.05 0.274,-0.063 0.268,-0.075 0.266,-0.089 0.266,-0.104 c 0,-0.01 0.001,-0.02 0.004,-0.029 0.003,-0.01 0.006,-0.019 0.011,-0.028 z"
         style="fill:#00bcf2;fill-rule:nonzero"
         id="path1362" /><path
         d="m 0.967,-0.421 h 0.035 v 0.017 c 0,0.017 -0.003,0.033 -0.009,0.048 -0.007,0.015 -0.016,0.028 -0.027,0.039 -0.011,0.011 -0.024,0.02 -0.039,0.026 -0.015,0.007 -0.031,0.01 -0.048,0.01 -0.017,0 -0.032,-0.003 -0.047,-0.01 C 0.817,-0.297 0.804,-0.306 0.792,-0.317 0.781,-0.328 0.773,-0.341 0.766,-0.356 0.76,-0.371 0.757,-0.387 0.757,-0.404 v -0.017 h 0.035 c 0,0.012 0.002,0.023 0.007,0.034 0.004,0.011 0.011,0.02 0.018,0.028 0.008,0.008 0.017,0.014 0.028,0.019 0.011,0.004 0.022,0.007 0.034,0.007 0.012,0 0.024,-0.003 0.035,-0.007 0.01,-0.005 0.02,-0.011 0.028,-0.019 0.008,-0.008 0.014,-0.017 0.018,-0.028 0.005,-0.011 0.007,-0.022 0.007,-0.034 z m -0.473,0.088 c 0.012,0 0.023,-0.003 0.034,-0.007 0.011,-0.005 0.02,-0.011 0.028,-0.019 0.007,-0.008 0.014,-0.017 0.018,-0.028 0.005,-0.011 0.007,-0.022 0.007,-0.034 h 0.035 v 0.017 c 0,0.017 -0.003,0.033 -0.009,0.048 -0.007,0.015 -0.015,0.028 -0.026,0.039 -0.012,0.011 -0.025,0.02 -0.039,0.026 -0.015,0.007 -0.031,0.01 -0.048,0.01 -0.017,0 -0.033,-0.003 -0.048,-0.01 C 0.431,-0.297 0.418,-0.306 0.407,-0.317 0.396,-0.328 0.387,-0.341 0.38,-0.356 0.374,-0.371 0.371,-0.387 0.371,-0.404 v -0.017 h 0.035 c 0,0.012 0.002,0.023 0.007,0.034 0.004,0.011 0.01,0.02 0.018,0.028 0.008,0.008 0.018,0.014 0.028,0.019 0.011,0.004 0.022,0.007 0.035,0.007 z"
         style="fill-rule:nonzero"
         id="path1364" /></g></g></svg>
