<?xml version="1.0" encoding="UTF-8" standalone="no"?>
<svg
   width="12.63"
   height="16.844999"
   viewBox="0 0 12.63 16.844999"
   version="1.1"
   xml:space="preserve"
   style="clip-rule:evenodd;fill-rule:evenodd;stroke-linejoin:round;stroke-miterlimit:2"
   id="svg20568"
   sodipodi:docname="emojis.svg"
   xmlns:inkscape="http://www.inkscape.org/namespaces/inkscape"
   xmlns:sodipodi="http://sodipodi.sourceforge.net/DTD/sodipodi-0.dtd"
   xmlns="http://www.w3.org/2000/svg"
   xmlns:svg="http://www.w3.org/2000/svg"><defs
     id="defs20572" /><sodipodi:namedview
     id="namedview20570"
     pagecolor="#505050"
     bordercolor="#eeeeee"
     borderopacity="1"
     inkscape:pageshadow="0"
     inkscape:pageopacity="0"
     inkscape:pagecheckerboard="0" /><g
     transform="matrix(0.24,0,0,0.24,-354.3966,-675.9666)"
     id="g20566"><g
       transform="matrix(62.5,0,0,62.5,1468.84,2873.59)"
       id="g13666"><path
         d="m 0.967,-0.667 c 0,0.019 -0.003,0.036 -0.009,0.054 -0.007,0.017 -0.015,0.033 -0.026,0.048 v 0.007 c 0.011,0.015 0.019,0.03 0.026,0.048 0.006,0.017 0.009,0.035 0.009,0.053 0,0.019 -0.003,0.037 -0.009,0.054 -0.007,0.017 -0.015,0.033 -0.026,0.048 v 0.008 c 0.011,0.014 0.019,0.03 0.026,0.048 0.006,0.017 0.009,0.035 0.009,0.053 0,0.019 -0.003,0.037 -0.009,0.054 -0.007,0.017 -0.015,0.033 -0.026,0.048 v 0.007 c 0.011,0.015 0.019,0.031 0.026,0.048 0.006,0.017 0.009,0.035 0.009,0.054 0,0.021 -0.003,0.041 -0.011,0.059 C 0.949,0.043 0.939,0.059 0.927,0.075 0.914,0.09 0.899,0.104 0.883,0.116 0.866,0.129 0.849,0.14 0.83,0.149 0.812,0.159 0.793,0.167 0.774,0.174 0.754,0.181 0.736,0.186 0.718,0.19 0.689,0.197 0.661,0.202 0.633,0.206 0.604,0.209 0.575,0.21 0.546,0.21 0.517,0.21 0.488,0.209 0.459,0.206 0.431,0.202 0.402,0.197 0.374,0.19 0.356,0.186 0.337,0.181 0.318,0.174 0.299,0.167 0.28,0.158 0.261,0.149 0.243,0.139 0.226,0.128 0.209,0.116 0.192,0.103 0.178,0.09 0.166,0.074 0.153,0.059 0.143,0.043 0.136,0.024 0.129,0.006 0.125,-0.014 0.125,-0.035 c 0,-0.019 0.003,-0.037 0.01,-0.054 0.006,-0.017 0.014,-0.033 0.025,-0.048 V -0.144 C 0.149,-0.159 0.141,-0.175 0.135,-0.192 0.128,-0.209 0.125,-0.227 0.125,-0.246 c 0,-0.018 0.003,-0.036 0.01,-0.053 0.006,-0.018 0.014,-0.034 0.025,-0.048 V -0.355 C 0.149,-0.37 0.141,-0.386 0.135,-0.403 0.128,-0.42 0.125,-0.438 0.125,-0.457 c 0,-0.018 0.003,-0.036 0.01,-0.053 0.006,-0.018 0.014,-0.033 0.025,-0.048 V -0.565 C 0.149,-0.58 0.141,-0.596 0.135,-0.613 0.128,-0.631 0.125,-0.648 0.125,-0.667 c 0,-0.021 0.004,-0.041 0.011,-0.059 0.007,-0.018 0.017,-0.035 0.03,-0.05 0.012,-0.016 0.027,-0.03 0.043,-0.042 0.017,-0.012 0.034,-0.023 0.053,-0.033 0.018,-0.009 0.037,-0.018 0.056,-0.025 0.02,-0.007 0.038,-0.012 0.056,-0.017 0.028,-0.006 0.057,-0.011 0.085,-0.015 0.029,-0.003 0.058,-0.005 0.087,-0.005 0.029,0 0.058,0.002 0.086,0.005 0.029,0.003 0.057,0.008 0.086,0.015 0.018,0.005 0.036,0.011 0.055,0.018 0.02,0.006 0.039,0.015 0.057,0.024 0.019,0.01 0.036,0.021 0.053,0.033 0.016,0.012 0.031,0.026 0.044,0.041 0.012,0.015 0.022,0.032 0.029,0.05 0.008,0.019 0.011,0.039 0.011,0.06 z"
         style="fill-rule:nonzero"
         id="path13654" /><path
         d="m 0.23,-0.667 h 0.632 v 0.134 c 0.002,0.005 0.004,0.011 0.007,0.017 0.002,0.006 0.005,0.012 0.007,0.019 0.002,0.006 0.004,0.013 0.005,0.019 0.002,0.007 0.002,0.013 0.002,0.018 0,0.007 -0.001,0.014 -0.002,0.021 -0.002,0.006 -0.004,0.013 -0.006,0.02 -0.002,0.006 -0.004,0.013 -0.007,0.02 -0.002,0.006 -0.004,0.013 -0.006,0.019 v 0.058 c 0.006,0.012 0.01,0.024 0.014,0.037 0.004,0.014 0.005,0.027 0.005,0.04 0,0.013 -0.001,0.026 -0.005,0.039 -0.004,0.013 -0.008,0.025 -0.014,0.037 v 0.057 c 0.006,0.012 0.012,0.024 0.017,0.037 0.004,0.013 0.007,0.026 0.007,0.04 0,0.015 -0.004,0.029 -0.012,0.042 C 0.866,0.019 0.856,0.031 0.843,0.041 0.83,0.051 0.816,0.06 0.8,0.068 0.783,0.076 0.767,0.083 0.75,0.089 0.733,0.095 0.717,0.1 0.701,0.104 0.686,0.107 0.672,0.11 0.66,0.112 0.64,0.116 0.621,0.118 0.602,0.12 0.583,0.121 0.564,0.122 0.544,0.122 0.52,0.122 0.492,0.12 0.462,0.117 0.432,0.114 0.403,0.108 0.374,0.1 0.344,0.092 0.317,0.081 0.291,0.067 0.265,0.053 0.244,0.036 0.229,0.015 0.223,0.009 0.219,0.001 0.215,-0.009 0.211,-0.018 0.209,-0.027 0.209,-0.035 0.209,-0.041 0.21,-0.047 0.211,-0.053 0.212,-0.06 0.214,-0.067 0.216,-0.074 0.218,-0.081 0.221,-0.087 0.223,-0.094 0.226,-0.1 0.228,-0.106 0.23,-0.111 V -0.169 L 0.223,-0.189 C 0.221,-0.195 0.219,-0.202 0.217,-0.208 0.215,-0.215 0.214,-0.221 0.212,-0.228 0.211,-0.234 0.21,-0.24 0.21,-0.246 c 0,-0.005 0.001,-0.011 0.002,-0.018 0.002,-0.007 0.003,-0.013 0.005,-0.02 0.002,-0.007 0.004,-0.014 0.007,-0.02 0.002,-0.007 0.004,-0.013 0.006,-0.018 V -0.379 C 0.228,-0.384 0.225,-0.39 0.222,-0.397 0.219,-0.403 0.217,-0.41 0.215,-0.417 0.212,-0.424 0.211,-0.431 0.209,-0.438 0.208,-0.445 0.207,-0.451 0.207,-0.457 c 0,-0.006 0.001,-0.012 0.002,-0.018 0.002,-0.007 0.004,-0.014 0.006,-0.021 0.002,-0.006 0.005,-0.013 0.007,-0.019 0.003,-0.007 0.006,-0.012 0.008,-0.017 z"
         style="fill:#f03a17;fill-rule:nonzero"
         id="path13656" /><path
         d="m 0.546,0.105 c 0.02,0 0.041,-0.001 0.061,-0.003 C 0.628,0.101 0.648,0.098 0.669,0.094 0.679,0.092 0.691,0.09 0.705,0.086 0.718,0.083 0.732,0.078 0.746,0.073 0.76,0.068 0.774,0.062 0.788,0.055 0.802,0.048 0.815,0.039 0.825,0.031 0.836,0.022 0.845,0.012 0.852,0.001 0.858,-0.01 0.862,-0.022 0.862,-0.035 v -0.077 c 0.01,0.011 0.018,0.022 0.025,0.035 0.007,0.013 0.01,0.027 0.01,0.042 0,0.015 -0.003,0.03 -0.01,0.043 C 0.88,0.021 0.871,0.033 0.86,0.044 0.848,0.055 0.835,0.065 0.821,0.074 0.806,0.083 0.791,0.09 0.776,0.097 0.76,0.104 0.745,0.109 0.729,0.114 0.714,0.119 0.7,0.122 0.688,0.125 0.642,0.135 0.594,0.14 0.546,0.14 0.497,0.14 0.45,0.135 0.404,0.125 0.391,0.122 0.377,0.119 0.362,0.114 0.347,0.109 0.332,0.104 0.316,0.097 0.301,0.091 0.286,0.083 0.271,0.074 0.257,0.065 0.244,0.056 0.233,0.044 0.221,0.033 0.212,0.021 0.206,0.008 0.199,-0.005 0.195,-0.02 0.195,-0.035 0.195,-0.05 0.199,-0.064 0.206,-0.077 0.212,-0.09 0.221,-0.101 0.23,-0.112 v 0.077 c 0,0.013 0.004,0.025 0.01,0.036 0.007,0.011 0.016,0.021 0.027,0.03 0.01,0.008 0.023,0.016 0.036,0.023 0.014,0.007 0.028,0.014 0.043,0.019 0.014,0.005 0.028,0.01 0.041,0.013 0.014,0.004 0.025,0.006 0.036,0.008 0.02,0.004 0.041,0.007 0.061,0.008 0.021,0.002 0.041,0.003 0.062,0.003 z m 0,-0.21 c 0.021,0 0.041,-0.001 0.062,-0.003 0.02,-0.002 0.04,-0.005 0.061,-0.009 0.01,-0.002 0.022,-0.004 0.035,-0.008 0.014,-0.004 0.028,-0.008 0.042,-0.013 0.014,-0.005 0.028,-0.011 0.042,-0.018 0.014,-0.007 0.027,-0.015 0.037,-0.024 0.011,-0.009 0.02,-0.019 0.027,-0.03 0.006,-0.011 0.01,-0.023 0.01,-0.036 v -0.076 c 0.01,0.01 0.019,0.022 0.025,0.035 0.007,0.013 0.01,0.027 0.01,0.041 0,0.016 -0.003,0.03 -0.01,0.044 C 0.88,-0.189 0.871,-0.177 0.86,-0.166 0.848,-0.155 0.835,-0.146 0.821,-0.137 0.806,-0.128 0.791,-0.12 0.776,-0.114 0.76,-0.107 0.745,-0.101 0.729,-0.096 0.714,-0.092 0.7,-0.088 0.688,-0.085 0.642,-0.075 0.594,-0.07 0.546,-0.07 0.497,-0.07 0.45,-0.075 0.404,-0.085 0.391,-0.088 0.377,-0.092 0.362,-0.096 0.347,-0.101 0.332,-0.107 0.316,-0.113 0.301,-0.12 0.286,-0.127 0.271,-0.136 0.257,-0.145 0.244,-0.155 0.233,-0.166 0.221,-0.177 0.212,-0.189 0.206,-0.202 0.199,-0.216 0.195,-0.23 0.195,-0.246 0.195,-0.26 0.199,-0.274 0.205,-0.287 0.212,-0.3 0.22,-0.312 0.23,-0.322 v 0.076 c 0,0.013 0.004,0.025 0.01,0.036 0.007,0.011 0.016,0.021 0.027,0.03 0.011,0.009 0.023,0.017 0.037,0.024 0.014,0.007 0.028,0.013 0.042,0.018 0.014,0.005 0.028,0.009 0.041,0.013 0.014,0.004 0.026,0.006 0.036,0.008 0.02,0.004 0.041,0.007 0.061,0.009 0.021,0.002 0.041,0.003 0.062,0.003 z m 0,-0.211 c 0.021,0 0.041,-0.001 0.062,-0.003 0.02,-0.001 0.04,-0.004 0.061,-0.008 0.01,-0.002 0.022,-0.005 0.036,-0.008 0.013,-0.004 0.027,-0.008 0.041,-0.014 0.014,-0.005 0.028,-0.011 0.042,-0.018 0.014,-0.007 0.027,-0.015 0.037,-0.024 0.011,-0.009 0.02,-0.019 0.027,-0.03 0.006,-0.011 0.01,-0.023 0.01,-0.036 v -0.076 c 0.01,0.01 0.018,0.022 0.025,0.035 0.007,0.013 0.01,0.027 0.01,0.041 0,0.016 -0.003,0.03 -0.01,0.044 C 0.88,-0.4 0.871,-0.388 0.86,-0.377 0.848,-0.366 0.835,-0.356 0.821,-0.347 0.806,-0.338 0.791,-0.331 0.776,-0.324 0.76,-0.317 0.745,-0.312 0.73,-0.307 0.715,-0.302 0.701,-0.299 0.688,-0.296 0.642,-0.286 0.594,-0.281 0.546,-0.281 0.497,-0.281 0.45,-0.286 0.404,-0.296 0.391,-0.299 0.377,-0.302 0.362,-0.307 0.347,-0.312 0.332,-0.317 0.316,-0.324 0.301,-0.331 0.286,-0.338 0.271,-0.347 0.257,-0.356 0.244,-0.366 0.233,-0.377 0.221,-0.388 0.212,-0.4 0.206,-0.413 0.199,-0.427 0.195,-0.441 0.195,-0.457 c 0,-0.014 0.004,-0.028 0.01,-0.041 0.007,-0.013 0.015,-0.025 0.025,-0.035 v 0.076 c 0,0.013 0.004,0.025 0.01,0.036 0.007,0.011 0.016,0.021 0.027,0.03 0.01,0.009 0.023,0.017 0.036,0.024 0.014,0.007 0.028,0.013 0.043,0.018 0.014,0.006 0.028,0.01 0.041,0.014 0.014,0.003 0.025,0.006 0.036,0.008 0.02,0.004 0.041,0.007 0.061,0.008 0.02,0.002 0.041,0.003 0.062,0.003 z m 0,-0.175 C 0.521,-0.491 0.497,-0.492 0.473,-0.495 0.449,-0.497 0.425,-0.501 0.401,-0.507 0.388,-0.51 0.374,-0.514 0.359,-0.518 0.344,-0.523 0.329,-0.529 0.314,-0.535 0.299,-0.542 0.284,-0.55 0.27,-0.558 0.256,-0.567 0.243,-0.577 0.232,-0.588 0.221,-0.599 0.212,-0.611 0.205,-0.624 0.199,-0.637 0.195,-0.651 0.195,-0.667 c 0,-0.015 0.004,-0.029 0.01,-0.042 0.007,-0.013 0.016,-0.025 0.027,-0.036 0.011,-0.011 0.024,-0.021 0.038,-0.03 0.015,-0.009 0.03,-0.016 0.045,-0.023 0.015,-0.007 0.03,-0.012 0.045,-0.017 0.015,-0.005 0.029,-0.009 0.041,-0.012 0.024,-0.005 0.048,-0.009 0.072,-0.012 0.024,-0.002 0.048,-0.003 0.073,-0.003 0.023,0 0.046,0.001 0.069,0.003 0.023,0.002 0.045,0.006 0.068,0.01 0.012,0.003 0.026,0.007 0.042,0.011 0.015,0.005 0.031,0.01 0.047,0.017 0.016,0.007 0.031,0.015 0.046,0.024 0.015,0.008 0.029,0.018 0.04,0.03 0.012,0.011 0.021,0.023 0.028,0.037 0.007,0.013 0.011,0.027 0.011,0.043 0,0.016 -0.004,0.03 -0.011,0.044 -0.007,0.013 -0.016,0.026 -0.028,0.037 -0.011,0.011 -0.025,0.021 -0.04,0.03 -0.015,0.009 -0.03,0.016 -0.046,0.023 -0.016,0.007 -0.032,0.012 -0.047,0.017 -0.016,0.005 -0.03,0.009 -0.042,0.011 -0.023,0.005 -0.045,0.008 -0.068,0.01 -0.023,0.003 -0.046,0.004 -0.069,0.004 z"
         style="fill:#da3b01;fill-rule:nonzero"
         id="path13658" /><path
         d="m 0.546,-0.807 c 0.02,0 0.041,0.001 0.061,0.003 0.021,0.001 0.041,0.004 0.062,0.008 0.01,0.002 0.022,0.004 0.036,0.008 0.013,0.003 0.027,0.007 0.041,0.013 0.014,0.005 0.028,0.011 0.042,0.018 0.014,0.007 0.027,0.015 0.037,0.024 0.011,0.009 0.02,0.019 0.027,0.03 0.006,0.011 0.01,0.023 0.01,0.036 0,0.013 -0.004,0.025 -0.01,0.036 C 0.845,-0.62 0.836,-0.61 0.825,-0.601 0.815,-0.592 0.802,-0.584 0.788,-0.577 0.774,-0.57 0.76,-0.564 0.746,-0.559 0.732,-0.554 0.718,-0.549 0.705,-0.546 0.691,-0.542 0.679,-0.54 0.669,-0.538 0.648,-0.534 0.628,-0.531 0.608,-0.529 0.587,-0.527 0.567,-0.526 0.546,-0.526 0.524,-0.526 0.502,-0.527 0.48,-0.529 0.459,-0.531 0.437,-0.535 0.416,-0.539 0.405,-0.541 0.394,-0.544 0.381,-0.547 0.368,-0.551 0.354,-0.555 0.341,-0.561 0.327,-0.566 0.314,-0.572 0.301,-0.579 0.287,-0.586 0.276,-0.594 0.265,-0.603 0.255,-0.611 0.246,-0.621 0.24,-0.632 0.234,-0.643 0.23,-0.654 0.23,-0.667 c 0,-0.013 0.004,-0.024 0.01,-0.035 0.006,-0.01 0.015,-0.02 0.025,-0.029 0.011,-0.009 0.022,-0.017 0.036,-0.024 0.013,-0.007 0.026,-0.013 0.04,-0.018 0.013,-0.006 0.027,-0.01 0.04,-0.014 0.013,-0.003 0.024,-0.006 0.035,-0.008 0.021,-0.004 0.043,-0.007 0.064,-0.009 0.022,-0.002 0.044,-0.003 0.066,-0.003 z"
         style="fill:#ef6950;fill-rule:nonzero"
         id="path13660" /><path
         d="M 0.722,-0.685 V -0.72 h 0.07 v 0.035 c 0,0.004 -0.001,0.007 -0.004,0.009 -0.003,0.002 -0.006,0.004 -0.01,0.005 -0.004,0.002 -0.007,0.003 -0.011,0.003 -0.004,0.001 -0.008,0.001 -0.01,0.001 -0.003,0 -0.006,0 -0.01,-0.001 -0.004,0 -0.008,-0.001 -0.011,-0.003 C 0.732,-0.672 0.729,-0.674 0.726,-0.676 0.723,-0.678 0.722,-0.681 0.722,-0.685 Z"
         style="fill:#2b2b2b;fill-rule:nonzero"
         id="path13662" /><path
         d="m 0.757,-0.737 c 0.002,0 0.005,0 0.009,0.001 0.004,0 0.008,0.001 0.012,0.003 0.004,0.001 0.007,0.003 0.01,0.005 0.003,0.002 0.004,0.005 0.004,0.008 0,0.004 -0.001,0.007 -0.004,0.009 -0.003,0.002 -0.006,0.004 -0.01,0.005 -0.004,0.002 -0.007,0.003 -0.011,0.003 -0.004,0.001 -0.008,0.001 -0.01,0.001 -0.003,0 -0.006,0 -0.01,-0.001 -0.004,0 -0.008,-0.001 -0.011,-0.003 C 0.732,-0.707 0.729,-0.709 0.726,-0.711 0.723,-0.713 0.722,-0.716 0.722,-0.72 c 0,-0.003 0.001,-0.006 0.004,-0.008 0.003,-0.002 0.006,-0.004 0.01,-0.005 0.003,-0.002 0.007,-0.003 0.011,-0.003 0.004,-0.001 0.007,-0.001 0.01,-0.001 z"
         style="fill:#e5e5e5;fill-rule:nonzero"
         id="path13664" /></g></g></svg>
