<?xml version="1.0" encoding="UTF-8" standalone="no"?>
<svg
   width="16.844999"
   height="16.844999"
   viewBox="0 0 16.844999 16.844999"
   version="1.1"
   xml:space="preserve"
   style="clip-rule:evenodd;fill-rule:evenodd;stroke-linejoin:round;stroke-miterlimit:2"
   id="svg20568"
   sodipodi:docname="emojis.svg"
   xmlns:inkscape="http://www.inkscape.org/namespaces/inkscape"
   xmlns:sodipodi="http://sodipodi.sourceforge.net/DTD/sodipodi-0.dtd"
   xmlns="http://www.w3.org/2000/svg"
   xmlns:svg="http://www.w3.org/2000/svg"><defs
     id="defs20572" /><sodipodi:namedview
     id="namedview20570"
     pagecolor="#505050"
     bordercolor="#eeeeee"
     borderopacity="1"
     inkscape:pageshadow="0"
     inkscape:pageopacity="0"
     inkscape:pagecheckerboard="0" /><g
     transform="matrix(0.24,0,0,0.24,-501.2622,-675.9666)"
     id="g20566"><g
       transform="matrix(62.5,0,0,62.5,2080.78,2873.59)"
       id="g13772"><path
         d="M 1.248,-0.21 V 0.21 H 0.125 V -0.21 H 0.232 C 0.231,-0.216 0.23,-0.222 0.23,-0.228 c 0,-0.019 0.006,-0.036 0.017,-0.051 0.011,-0.016 0.025,-0.026 0.043,-0.033 l 0.221,-0.442 v -0.071 c 0,-0.012 0.003,-0.023 0.007,-0.034 0.005,-0.011 0.011,-0.02 0.019,-0.028 0.008,-0.008 0.017,-0.014 0.028,-0.019 0.01,-0.004 0.022,-0.007 0.034,-0.007 0.012,0 0.024,0.003 0.034,0.007 0.011,0.005 0.02,0.011 0.028,0.019 0.008,0.008 0.014,0.018 0.019,0.029 0.004,0.01 0.007,0.022 0.007,0.034 l 0.256,0.513 c 0.018,0.006 0.032,0.017 0.043,0.032 0.011,0.015 0.016,0.032 0.016,0.051 0,0.006 0,0.012 -0.002,0.018 z"
         style="fill-rule:nonzero"
         id="path13758" /><path
         d="m 0.616,-0.807 0.281,0.561 -0.022,0.02 H 0.36 l -0.025,-0.02 z"
         style="fill:#ffb900;fill-rule:nonzero"
         id="path13760" /><path
         d="m 0.915,-0.246 c 0.004,0 0.009,0.002 0.012,0.006 0.003,0.003 0.005,0.007 0.005,0.012 0,0.005 -0.002,0.009 -0.005,0.012 C 0.923,-0.212 0.919,-0.21 0.915,-0.21 H 0.318 C 0.313,-0.21 0.309,-0.212 0.306,-0.216 0.302,-0.219 0.3,-0.223 0.3,-0.228 0.3,-0.233 0.302,-0.237 0.305,-0.24 0.309,-0.244 0.313,-0.246 0.318,-0.246 Z"
         style="fill:#cccccc;fill-rule:nonzero"
         id="path13762" /><path
         d="m 0.581,-0.825 c 0,-0.005 0.002,-0.009 0.005,-0.012 0.004,-0.004 0.008,-0.005 0.013,-0.005 0.005,0 0.009,0.001 0.012,0.005 0.004,0.003 0.005,0.007 0.005,0.012 v 0.719 H 0.581 Z"
         style="fill:#e5e5e5;fill-rule:nonzero"
         id="path13764" /><path
         d="M 1.143,0.085 H 0.336 V 0.035 L 0.23,-0.07 0.276,-0.109 h 0.822 l 0.045,0.039 z"
         style="fill:#8e562e;fill-rule:nonzero"
         id="path13766" /><rect
         x="0.19499999"
         y="-0.141"
         width="0.98199999"
         height="0.07"
         style="fill:#bb9167;fill-rule:nonzero"
         id="rect13768" /><path
         d="M 1.143,0.035 H 1.178 V 0.14 H 0.195 V 0.035 h 0.14 L 0.371,0.07 C 0.385,0.07 0.398,0.067 0.41,0.061 0.422,0.054 0.432,0.046 0.441,0.035 0.45,0.046 0.46,0.054 0.472,0.061 0.484,0.067 0.497,0.07 0.511,0.07 0.525,0.07 0.538,0.067 0.55,0.061 0.562,0.054 0.573,0.046 0.581,0.035 0.59,0.046 0.6,0.054 0.612,0.061 0.624,0.067 0.637,0.07 0.651,0.07 0.665,0.07 0.678,0.067 0.69,0.061 0.702,0.054 0.713,0.046 0.722,0.035 0.73,0.046 0.741,0.054 0.753,0.061 0.765,0.067 0.778,0.07 0.792,0.07 0.806,0.07 0.819,0.067 0.831,0.061 0.843,0.054 0.853,0.046 0.862,0.035 0.871,0.046 0.881,0.054 0.893,0.061 0.905,0.067 0.918,0.07 0.932,0.07 0.946,0.07 0.959,0.067 0.971,0.061 0.983,0.054 0.994,0.046 1.002,0.035 1.011,0.046 1.022,0.054 1.034,0.061 1.046,0.067 1.059,0.07 1.073,0.07 1.086,0.07 1.099,0.067 1.112,0.061 1.124,0.054 1.134,0.046 1.143,0.035 Z"
         style="fill:#00bcf2;fill-rule:nonzero"
         id="path13770" /></g></g></svg>
