<?xml version="1.0" encoding="UTF-8" standalone="no"?>
<svg
   width="16.844999"
   height="16.83"
   viewBox="0 0 16.844999 16.83"
   version="1.1"
   xml:space="preserve"
   style="clip-rule:evenodd;fill-rule:evenodd;stroke-linejoin:round;stroke-miterlimit:2"
   id="svg20568"
   sodipodi:docname="emojis.svg"
   xmlns:inkscape="http://www.inkscape.org/namespaces/inkscape"
   xmlns:sodipodi="http://sodipodi.sourceforge.net/DTD/sodipodi-0.dtd"
   xmlns="http://www.w3.org/2000/svg"
   xmlns:svg="http://www.w3.org/2000/svg"><defs
     id="defs20572" /><sodipodi:namedview
     id="namedview20570"
     pagecolor="#505050"
     bordercolor="#eeeeee"
     borderopacity="1"
     inkscape:pageshadow="0"
     inkscape:pageopacity="0"
     inkscape:pagecheckerboard="0" /><g
     transform="matrix(0.24,0,0,0.24,-460.071,-675.9816)"
     id="g20566"><g
       transform="matrix(62.5,0,0,62.5,1909.15,2873.59)"
       id="g13750"><path
         d="m 1.073,-0.912 c 0.019,0 0.037,0.004 0.054,0.011 0.017,0.007 0.032,0.017 0.045,0.03 0.013,0.013 0.023,0.027 0.03,0.045 0.007,0.017 0.011,0.035 0.011,0.054 h 0.035 v 0.631 H 1.213 V 0.21 H 0.932 V -0.141 H 0.441 V 0.21 H 0.16 V -0.141 H 0.125 V -0.772 H 0.16 c 0,-0.019 0.004,-0.037 0.011,-0.054 0.007,-0.018 0.017,-0.032 0.03,-0.045 0.013,-0.013 0.028,-0.023 0.045,-0.03 0.017,-0.007 0.035,-0.011 0.054,-0.011 0.02,0 0.038,0.004 0.055,0.011 0.017,0.007 0.032,0.017 0.045,0.03 0.013,0.013 0.023,0.027 0.03,0.044 0.007,0.017 0.011,0.035 0.011,0.055 h 0.491 c 0,-0.02 0.004,-0.038 0.011,-0.055 0.007,-0.017 0.017,-0.031 0.03,-0.044 0.013,-0.013 0.028,-0.023 0.045,-0.03 0.017,-0.007 0.035,-0.011 0.055,-0.011 z"
         style="fill-rule:nonzero"
         id="path13740" /><path
         d="M 0.23,0.14 V -0.246 H 0.371 V 0.14 Z M 1.002,-0.246 H 1.143 V 0.14 H 1.002 Z"
         style="fill:#757575;fill-rule:nonzero"
         id="path13742" /><path
         d="m 1.143,-0.702 h 0.035 v 0.105 c -0.004,0.011 -0.008,0.022 -0.01,0.033 -10e-4,0.011 -0.002,0.022 -0.002,0.034 0,0.009 0,0.017 0.001,0.026 10e-4,0.009 0.003,0.018 0.005,0.026 0.001,0.003 0.002,0.007 0.003,0.011 0.002,0.004 0.003,0.008 0.003,0.01 v 0.141 c 0,0.002 -10e-4,0.006 -0.002,0.01 -0.002,0.005 -0.003,0.008 -0.004,0.011 -0.007,0.022 -0.017,0.038 -0.03,0.05 -0.013,0.012 -0.03,0.022 -0.051,0.03 -0.002,0 -0.005,0.001 -0.009,0.003 C 1.078,-0.211 1.075,-0.21 1.073,-0.21 H 0.932 C 0.923,-0.216 0.913,-0.22 0.902,-0.222 0.892,-0.225 0.881,-0.226 0.87,-0.226 c -0.009,0 -0.019,0.001 -0.028,0.002 -0.01,0.002 -0.019,0.004 -0.029,0.007 0,0 -0.002,0.001 -0.004,0.001 L 0.792,-0.21 H 0.651 c -0.022,-0.012 -0.046,-0.017 -0.07,-0.017 -0.024,0 -0.047,0.005 -0.07,0.017 h -0.14 c -0.019,-0.012 -0.04,-0.018 -0.062,-0.018 -0.014,0 -0.027,0.002 -0.04,0.005 C 0.256,-0.22 0.243,-0.216 0.23,-0.21 H 0.195 v -0.106 c 0,-0.003 0.001,-0.006 0.003,-0.011 0.001,-0.004 0.003,-0.007 0.003,-0.01 0.005,-0.019 0.007,-0.038 0.007,-0.058 0,-0.01 -0.001,-0.021 -0.003,-0.032 -0.002,-0.01 -0.005,-0.02 -0.01,-0.03 v -0.14 c 0,-0.005 0.001,-0.009 0.003,-0.014 0.001,-0.004 0.003,-0.008 0.004,-0.013 L 0.216,-0.679 0.223,-0.69 C 0.225,-0.693 0.226,-0.695 0.228,-0.698 0.229,-0.7 0.23,-0.701 0.23,-0.702 v -0.07 c 0,-0.01 0.002,-0.019 0.006,-0.027 0.003,-0.009 0.008,-0.016 0.015,-0.023 0.006,-0.006 0.013,-0.011 0.022,-0.015 0.008,-0.003 0.018,-0.005 0.027,-0.005 0.01,0 0.019,0.002 0.028,0.005 0.008,0.004 0.016,0.009 0.022,0.015 0.006,0.007 0.011,0.014 0.015,0.023 0.004,0.008 0.006,0.017 0.006,0.027 v 0.07 h 0.07 c 0.01,0.005 0.02,0.009 0.031,0.012 0.011,0.002 0.022,0.003 0.033,0.003 0.013,0 0.026,-10e-4 0.039,-0.004 0.013,-0.003 0.025,-0.007 0.037,-0.011 h 0.141 c 0,0 0.001,0 0.003,0.001 l 0.013,0.004 c 0.002,0 0.004,0.001 0.004,0.001 0.008,0.002 0.016,0.004 0.024,0.005 0.009,0.001 0.017,0.002 0.026,0.002 0.008,0 0.016,-0.001 0.025,-0.002 0.008,-0.001 0.016,-0.003 0.024,-0.005 0.001,0 0.002,-0.001 0.004,-0.001 l 0.017,-0.005 h 0.14 v -0.07 c 0,-0.01 0.002,-0.019 0.006,-0.027 0.003,-0.009 0.008,-0.016 0.015,-0.023 0.006,-0.006 0.013,-0.011 0.022,-0.015 0.008,-0.003 0.018,-0.005 0.027,-0.005 0.01,0 0.019,0.002 0.028,0.005 0.008,0.004 0.015,0.009 0.022,0.015 0.006,0.007 0.011,0.014 0.015,0.023 0.004,0.008 0.006,0.017 0.006,0.027 z"
         style="fill:#2b2b2b;fill-rule:nonzero"
         id="path13744" /><path
         d="m 0.722,-0.702 h 0.14 L 0.371,-0.21 H 0.23 Z m 0.28,0 H 1.143 L 0.651,-0.21 h -0.14 z m -0.561,0 h 0.14 l -0.386,0.386 v -0.141 z m 0.351,0.492 0.386,-0.387 v 0.14 L 0.932,-0.21 Z M 0.195,-0.702 H 0.3 L 0.195,-0.597 Z M 1.178,-0.21 H 1.073 l 0.105,-0.106 z"
         style="fill:#fce100;fill-rule:nonzero"
         id="path13746" /><path
         d="m 1.073,-0.807 c 0.009,0 0.017,0.003 0.024,0.01 0.007,0.007 0.01,0.016 0.01,0.025 0,0.009 -0.003,0.018 -0.01,0.024 -0.007,0.007 -0.015,0.011 -0.024,0.011 -0.01,0 -0.018,-0.004 -0.025,-0.011 -0.007,-0.006 -0.01,-0.015 -0.01,-0.024 0,-0.01 0.003,-0.018 0.01,-0.025 0.007,-0.007 0.015,-0.01 0.025,-0.01 z m -0.773,0 c 0.01,0 0.018,0.003 0.025,0.01 0.007,0.007 0.01,0.015 0.01,0.025 0,0.009 -0.003,0.018 -0.01,0.024 -0.007,0.007 -0.015,0.011 -0.025,0.011 -0.009,0 -0.017,-0.004 -0.024,-0.011 -0.007,-0.006 -0.011,-0.015 -0.011,-0.024 0,-0.009 0.004,-0.018 0.011,-0.025 0.007,-0.007 0.015,-0.01 0.024,-0.01 z"
         style="fill:#e81224;fill-rule:nonzero"
         id="path13748" /></g></g></svg>
