<?xml version="1.0" encoding="UTF-8" standalone="no"?>
<svg
   width="16.844999"
   height="16.305"
   viewBox="0 0 16.844999 16.305"
   version="1.1"
   xml:space="preserve"
   style="clip-rule:evenodd;fill-rule:evenodd;stroke-linejoin:round;stroke-miterlimit:2"
   id="svg20568"
   sodipodi:docname="emojis.svg"
   xmlns:inkscape="http://www.inkscape.org/namespaces/inkscape"
   xmlns:sodipodi="http://sodipodi.sourceforge.net/DTD/sodipodi-0.dtd"
   xmlns="http://www.w3.org/2000/svg"
   xmlns:svg="http://www.w3.org/2000/svg"><defs
     id="defs20572" /><sodipodi:namedview
     id="namedview20570"
     pagecolor="#505050"
     bordercolor="#eeeeee"
     borderopacity="1"
     inkscape:pageshadow="0"
     inkscape:pageopacity="0"
     inkscape:pagecheckerboard="0" /><g
     transform="matrix(0.24,0,0,0.24,-521.859,-676.5066)"
     id="g20566"><g
       transform="matrix(62.5,0,0,62.5,2166.6,2873.59)"
       id="g13784"><path
         d="M 1.038,0.21 C 1.018,0.21 1,0.207 0.984,0.2 0.967,0.193 0.952,0.183 0.938,0.169 L 0.798,0.029 C 0.778,0.009 0.766,-0.014 0.76,-0.041 L 0.581,0.137 C 0.556,0.161 0.53,0.179 0.5,0.192 0.471,0.204 0.44,0.21 0.406,0.21 H 0.371 C 0.337,0.21 0.305,0.204 0.275,0.191 0.245,0.178 0.219,0.161 0.197,0.138 0.175,0.116 0.157,0.09 0.144,0.06 0.131,0.031 0.125,-0.001 0.125,-0.035 v -0.123 c 0,-0.012 0.002,-0.024 0.007,-0.034 0.004,-0.011 0.011,-0.02 0.019,-0.028 0.008,-0.008 0.017,-0.014 0.028,-0.019 0.01,-0.004 0.022,-0.007 0.034,-0.007 0.016,0 0.031,0.005 0.045,0.013 L 0.457,-0.432 0.191,-0.698 C 0.181,-0.708 0.174,-0.719 0.168,-0.732 0.163,-0.745 0.16,-0.758 0.16,-0.772 c 0,-0.015 0.003,-0.028 0.008,-0.041 0.006,-0.013 0.013,-0.024 0.023,-0.033 0.009,-0.01 0.02,-0.018 0.033,-0.023 0.013,-0.006 0.026,-0.008 0.041,-0.008 0.014,0 0.028,0.002 0.041,0.007 0.012,0.006 0.024,0.013 0.034,0.023 l 0.266,0.266 0.013,-0.012 c 0.013,-0.014 0.027,-0.027 0.041,-0.04 0.013,-0.013 0.028,-0.026 0.042,-0.038 0.015,-0.013 0.03,-0.024 0.045,-0.036 0.016,-0.011 0.032,-0.021 0.049,-0.029 l 0.251,-0.13 c 0.007,-0.004 0.014,-0.007 0.021,-0.009 0.007,-0.001 0.015,-0.002 0.022,-0.002 0.015,0 0.028,0.003 0.038,0.009 0.011,0.006 0.021,0.014 0.031,0.025 0.011,0.011 0.021,0.024 0.031,0.037 0.011,0.013 0.019,0.026 0.027,0.041 0.008,0.014 0.015,0.029 0.02,0.044 0.005,0.015 0.008,0.031 0.01,0.047 0,0.004 10e-4,0.009 10e-4,0.013 0,0.004 0,0.008 0,0.012 0,0.04 -0.007,0.078 -0.022,0.114 -0.015,0.036 -0.037,0.069 -0.065,0.097 l -0.162,0.161 c 0.012,0.003 0.024,0.007 0.036,0.014 0.011,0.006 0.022,0.014 0.031,0.023 l 0.141,0.141 c 0.013,0.013 0.024,0.028 0.031,0.046 0.007,0.017 0.01,0.034 0.01,0.053 0,0.019 -0.003,0.037 -0.01,0.053 C 1.231,0.07 1.22,0.085 1.207,0.099 l -0.07,0.07 C 1.124,0.182 1.109,0.193 1.091,0.2 1.074,0.207 1.056,0.21 1.038,0.21 Z"
         style="fill-rule:nonzero"
         id="path13774" /><path
         d="m 1.09,-0.807 c 0.004,0 0.007,0.001 0.008,0.002 0.002,0.002 0.004,0.004 0.007,0.006 0.01,0.011 0.019,0.022 0.028,0.033 0.009,0.011 0.017,0.023 0.023,0.035 0.007,0.012 0.012,0.025 0.016,0.039 0.004,0.013 0.006,0.028 0.006,0.043 0,0.03 -0.006,0.059 -0.017,0.087 -0.012,0.028 -0.028,0.053 -0.05,0.074 L 0.531,0.087 C 0.519,0.1 0.506,0.11 0.494,0.117 0.483,0.124 0.47,0.129 0.458,0.133 0.445,0.136 0.431,0.138 0.417,0.139 0.403,0.14 0.388,0.14 0.371,0.14 0.347,0.14 0.324,0.136 0.302,0.126 0.281,0.117 0.263,0.105 0.247,0.089 0.231,0.073 0.218,0.054 0.209,0.033 0.2,0.012 0.195,-0.011 0.195,-0.035 v -0.123 c 0,-0.005 0.002,-0.009 0.005,-0.013 0.004,-0.003 0.008,-0.005 0.013,-0.005 0.003,0 0.006,0.002 0.011,0.005 0.004,0.004 0.009,0.008 0.014,0.012 0.004,0.005 0.009,0.009 0.013,0.014 0.004,0.004 0.007,0.007 0.009,0.01 0.007,-0.002 0.016,-0.006 0.025,-0.012 0.01,-0.006 0.019,-0.013 0.029,-0.022 0.011,-0.008 0.021,-0.017 0.031,-0.027 0.01,-0.01 0.019,-0.02 0.027,-0.031 0.009,-0.01 0.016,-0.019 0.022,-0.029 0.006,-0.009 0.01,-0.018 0.012,-0.025 L 0.441,-0.316 C 0.446,-0.321 0.451,-0.325 0.457,-0.328 0.463,-0.331 0.469,-0.335 0.475,-0.338 0.5,-0.355 0.523,-0.372 0.543,-0.391 0.563,-0.41 0.581,-0.433 0.597,-0.458 0.6,-0.464 0.604,-0.469 0.606,-0.476 0.609,-0.482 0.613,-0.487 0.616,-0.492 L 0.634,-0.51 C 0.638,-0.514 0.641,-0.517 0.645,-0.521 0.648,-0.524 0.65,-0.526 0.651,-0.526 0.663,-0.533 0.674,-0.539 0.687,-0.545 0.699,-0.551 0.71,-0.557 0.722,-0.563 0.769,-0.588 0.814,-0.616 0.859,-0.646 0.903,-0.676 0.946,-0.708 0.987,-0.742 0.996,-0.749 1.004,-0.756 1.012,-0.763 1.02,-0.77 1.028,-0.776 1.038,-0.782 1.04,-0.783 1.043,-0.785 1.048,-0.788 1.054,-0.791 1.059,-0.793 1.064,-0.796 1.07,-0.799 1.075,-0.802 1.08,-0.804 1.085,-0.806 1.089,-0.807 1.09,-0.807 Z"
         style="fill:#fff100;fill-rule:nonzero"
         id="path13776" /><path
         d="M 0.616,-0.491 H 0.927 L 0.752,-0.316 H 0.441 Z M 0.26,-0.135 0.406,-0.281 h 0.311 l -0.074,0.074 c -0.012,0.012 -0.026,0.024 -0.042,0.036 -0.016,0.012 -0.033,0.023 -0.051,0.033 -0.019,0.01 -0.037,0.017 -0.056,0.023 -0.018,0.007 -0.036,0.01 -0.054,0.01 H 0.32 C 0.307,-0.105 0.296,-0.108 0.287,-0.114 0.278,-0.119 0.269,-0.126 0.26,-0.135 Z m 0.778,-0.587 c 0,0.017 -0.003,0.034 -0.007,0.051 -0.004,0.018 -0.01,0.036 -0.018,0.053 -0.007,0.017 -0.015,0.034 -0.025,0.049 -0.009,0.016 -0.019,0.03 -0.029,0.043 H 0.651 C 0.665,-0.54 0.679,-0.554 0.692,-0.567 0.706,-0.581 0.72,-0.594 0.734,-0.607 0.748,-0.62 0.763,-0.632 0.778,-0.643 0.794,-0.654 0.81,-0.665 0.827,-0.673 l 0.211,-0.109 z"
         style="fill:#c19c00;fill-rule:nonzero"
         id="path13778" /><path
         d="m 0.876,-0.21 h 0.091 c 0.01,0 0.019,0.001 0.027,0.005 0.009,0.004 0.017,0.009 0.023,0.015 l 0.14,0.14 C 1.171,-0.036 1.178,-0.02 1.178,0 1.178,0.011 1.175,0.021 1.17,0.031 1.169,0.03 1.167,0.03 1.166,0.03 c -0.002,0 -0.004,0 -0.005,0 C 1.144,0.03 1.129,0.033 1.118,0.038 1.106,0.042 1.096,0.049 1.089,0.058 1.082,0.067 1.076,0.078 1.073,0.091 1.07,0.104 1.068,0.118 1.068,0.133 1.064,0.136 1.059,0.138 1.054,0.139 1.049,0.14 1.043,0.14 1.038,0.14 1.028,0.14 1.019,0.138 1.01,0.135 1.002,0.131 0.994,0.126 0.988,0.12 L 0.848,-0.021 C 0.841,-0.027 0.836,-0.035 0.833,-0.043 0.829,-0.052 0.827,-0.061 0.827,-0.07 V -0.161 L 0.241,-0.748 C 0.234,-0.754 0.23,-0.763 0.23,-0.772 c 0,-0.009 0.004,-0.018 0.011,-0.025 0.007,-0.007 0.015,-0.01 0.024,-0.01 0.01,0 0.018,0.003 0.025,0.01 z"
         style="fill:#f7630c;fill-rule:nonzero"
         id="path13780" /><path
         d="M 1.171,0.031 C 1.168,0.037 1.163,0.043 1.157,0.049 L 1.087,0.12 C 1.081,0.125 1.075,0.13 1.068,0.133 L 0.932,-0.105 Z"
         style="fill:#da3b01;fill-rule:nonzero"
         id="path13782" /></g></g></svg>
