<?xml version="1.0" encoding="UTF-8" standalone="no"?>
<svg
   width="9.4799995"
   height="16.844999"
   viewBox="0 0 9.4799995 16.844999"
   version="1.1"
   xml:space="preserve"
   style="clip-rule:evenodd;fill-rule:evenodd;stroke-linejoin:round;stroke-miterlimit:2"
   id="svg20568"
   sodipodi:docname="emojis.svg"
   xmlns:inkscape="http://www.inkscape.org/namespaces/inkscape"
   xmlns:sodipodi="http://sodipodi.sourceforge.net/DTD/sodipodi-0.dtd"
   xmlns="http://www.w3.org/2000/svg"
   xmlns:svg="http://www.w3.org/2000/svg"><defs
     id="defs20572" /><sodipodi:namedview
     id="namedview20570"
     pagecolor="#505050"
     bordercolor="#eeeeee"
     borderopacity="1"
     inkscape:pageshadow="0"
     inkscape:pageopacity="0"
     inkscape:pagecheckerboard="0" /><g
     transform="matrix(0.24,0,0,0.24,-426.2478,-675.9666)"
     id="g20566"><g
       transform="matrix(62.5,0,0,62.5,1768.22,2873.59)"
       id="g13730"><path
         d="m 0.441,-0.913 c 0.029,0 0.057,0.004 0.084,0.012 0.027,0.007 0.052,0.018 0.075,0.032 0.024,0.013 0.045,0.03 0.064,0.049 0.019,0.019 0.036,0.041 0.05,0.064 0.013,0.023 0.024,0.048 0.032,0.075 0.007,0.027 0.011,0.055 0.011,0.084 v 0.492 c 0,0.029 -0.004,0.056 -0.011,0.084 C 0.738,0.006 0.727,0.031 0.714,0.054 0.7,0.077 0.683,0.098 0.664,0.118 0.645,0.137 0.624,0.153 0.6,0.167 0.577,0.181 0.552,0.192 0.525,0.199 0.498,0.207 0.47,0.21 0.441,0.21 0.412,0.21 0.384,0.207 0.357,0.199 0.33,0.192 0.305,0.181 0.281,0.167 0.258,0.153 0.237,0.137 0.218,0.118 0.199,0.098 0.182,0.077 0.168,0.054 0.154,0.031 0.144,0.006 0.136,-0.021 0.129,-0.049 0.125,-0.076 0.125,-0.105 v -0.492 c 0,-0.029 0.004,-0.057 0.011,-0.084 0.008,-0.027 0.018,-0.052 0.032,-0.075 0.014,-0.023 0.031,-0.045 0.05,-0.064 0.019,-0.019 0.04,-0.036 0.063,-0.049 0.024,-0.014 0.049,-0.025 0.076,-0.032 0.027,-0.008 0.055,-0.012 0.084,-0.012 z"
         style="fill-rule:nonzero"
         id="path13712" /><path
         d="m 0.207,-0.117 v -0.468 c 0,-0.032 0.006,-0.063 0.018,-0.091 0.013,-0.029 0.029,-0.053 0.051,-0.074 0.021,-0.021 0.046,-0.038 0.074,-0.05 0.028,-0.012 0.059,-0.018 0.091,-0.018 0.032,0 0.062,0.006 0.091,0.018 0.028,0.012 0.053,0.029 0.074,0.05 0.021,0.021 0.038,0.046 0.05,0.074 0.012,0.029 0.018,0.059 0.018,0.091 v 0.468 c 0,0.032 -0.006,0.062 -0.018,0.091 C 0.644,0.002 0.627,0.027 0.606,0.048 0.585,0.069 0.56,0.086 0.532,0.098 0.503,0.11 0.473,0.116 0.441,0.116 0.409,0.116 0.378,0.11 0.35,0.098 0.322,0.086 0.297,0.069 0.276,0.048 0.254,0.027 0.238,0.002 0.225,-0.026 0.213,-0.055 0.207,-0.085 0.207,-0.117 Z"
         style="fill:#1f1f1f;fill-rule:nonzero"
         id="path13714" /><path
         d="m 0.441,-0.807 c -0.029,0 -0.057,0.005 -0.082,0.016 C 0.333,-0.78 0.311,-0.765 0.292,-0.746 0.273,-0.727 0.258,-0.705 0.247,-0.679 0.236,-0.653 0.23,-0.626 0.23,-0.597 v 0.492 c 0,0.029 0.006,0.056 0.017,0.082 C 0.258,0.002 0.273,0.025 0.292,0.044 0.311,0.063 0.333,0.078 0.359,0.089 0.384,0.1 0.412,0.105 0.441,0.105 0.47,0.105 0.498,0.1 0.523,0.089 0.549,0.078 0.571,0.063 0.59,0.044 0.609,0.025 0.624,0.002 0.635,-0.023 0.646,-0.049 0.651,-0.076 0.651,-0.105 V -0.597 C 0.651,-0.626 0.646,-0.653 0.635,-0.678 0.624,-0.704 0.609,-0.726 0.59,-0.745 0.571,-0.764 0.548,-0.779 0.523,-0.791 0.497,-0.802 0.47,-0.807 0.441,-0.807 Z m 0,-0.035 c 0.034,0 0.066,0.006 0.095,0.019 0.03,0.013 0.056,0.03 0.079,0.053 0.022,0.022 0.039,0.048 0.052,0.078 0.013,0.03 0.02,0.061 0.02,0.095 v 0.492 c 0,0.033 -0.007,0.065 -0.02,0.095 C 0.654,0.02 0.637,0.046 0.615,0.068 0.592,0.09 0.566,0.108 0.536,0.121 0.507,0.134 0.475,0.14 0.441,0.14 0.407,0.14 0.375,0.134 0.345,0.121 0.315,0.108 0.289,0.09 0.267,0.068 0.245,0.046 0.227,0.02 0.215,-0.01 0.202,-0.04 0.195,-0.072 0.195,-0.105 v -0.492 c 0,-0.034 0.007,-0.065 0.02,-0.095 0.012,-0.03 0.03,-0.056 0.052,-0.078 0.023,-0.023 0.049,-0.04 0.078,-0.053 0.03,-0.013 0.062,-0.019 0.096,-0.019 z"
         style="fill:#757575;fill-rule:nonzero"
         id="path13716" /><path
         d="m 0.546,-0.597 c 0,0.015 -0.003,0.029 -0.008,0.041 C 0.532,-0.543 0.525,-0.532 0.515,-0.522 0.506,-0.513 0.495,-0.505 0.482,-0.5 0.469,-0.494 0.456,-0.491 0.441,-0.491 0.426,-0.491 0.413,-0.494 0.4,-0.5 0.387,-0.505 0.376,-0.513 0.366,-0.522 0.357,-0.532 0.349,-0.543 0.344,-0.556 0.338,-0.568 0.335,-0.582 0.335,-0.597 c 0,-0.014 0.003,-0.028 0.009,-0.041 0.005,-0.012 0.013,-0.024 0.022,-0.033 0.01,-0.01 0.021,-0.017 0.034,-0.023 0.013,-0.005 0.026,-0.008 0.041,-0.008 0.015,0 0.028,0.003 0.041,0.008 0.013,0.006 0.024,0.013 0.033,0.023 0.01,0.009 0.017,0.021 0.023,0.033 0.005,0.013 0.008,0.027 0.008,0.041 z"
         style="fill:#e81224;fill-rule:nonzero"
         id="path13718" /><path
         d="m 0.49,-0.646 c 0.007,0.006 0.012,0.014 0.016,0.022 0.003,0.009 0.005,0.018 0.005,0.027 0,0.01 -0.002,0.019 -0.005,0.028 C 0.502,-0.56 0.497,-0.553 0.49,-0.547 0.484,-0.54 0.477,-0.535 0.468,-0.532 0.459,-0.528 0.45,-0.526 0.44,-0.526 c -0.019,0 -0.035,-0.007 -0.049,-0.021 z"
         style="fill:#af0d1a;fill-rule:nonzero"
         id="path13720" /><path
         d="m 0.546,-0.351 c 0,0.015 -0.003,0.028 -0.008,0.041 -0.006,0.013 -0.013,0.024 -0.023,0.033 -0.009,0.01 -0.02,0.018 -0.033,0.023 C 0.469,-0.248 0.456,-0.246 0.441,-0.246 0.426,-0.246 0.413,-0.248 0.4,-0.254 0.387,-0.259 0.376,-0.267 0.366,-0.277 0.357,-0.286 0.349,-0.297 0.344,-0.31 0.338,-0.323 0.335,-0.336 0.335,-0.351 c 0,-0.015 0.003,-0.028 0.009,-0.041 0.005,-0.013 0.013,-0.024 0.022,-0.034 0.01,-0.009 0.021,-0.017 0.034,-0.022 0.013,-0.006 0.026,-0.009 0.041,-0.009 0.015,0 0.028,0.003 0.041,0.009 0.013,0.005 0.024,0.013 0.033,0.022 0.01,0.01 0.017,0.021 0.023,0.034 0.005,0.013 0.008,0.026 0.008,0.041 z"
         style="fill:#fff100;fill-rule:nonzero"
         id="path13722" /><path
         d="m 0.49,-0.401 c 0.007,0.007 0.012,0.014 0.016,0.023 0.003,0.008 0.005,0.017 0.005,0.027 0,0.01 -0.002,0.019 -0.005,0.027 -0.004,0.009 -0.009,0.016 -0.016,0.022 -0.006,0.007 -0.014,0.012 -0.022,0.016 -0.009,0.003 -0.018,0.005 -0.028,0.005 -0.019,0 -0.035,-0.007 -0.049,-0.02 z"
         style="fill:#dfbe00;fill-rule:nonzero"
         id="path13724" /><path
         d="m 0.546,-0.07 c 0,0.014 -0.003,0.028 -0.008,0.041 C 0.532,-0.017 0.525,-0.005 0.515,0.004 0.506,0.014 0.495,0.021 0.482,0.027 0.469,0.032 0.456,0.035 0.441,0.035 0.426,0.035 0.413,0.032 0.4,0.027 0.387,0.021 0.376,0.014 0.366,0.004 0.357,-0.005 0.349,-0.017 0.344,-0.029 0.338,-0.042 0.335,-0.056 0.335,-0.07 c 0,-0.015 0.003,-0.029 0.009,-0.041 0.005,-0.013 0.013,-0.024 0.022,-0.034 0.01,-0.009 0.021,-0.017 0.034,-0.022 0.013,-0.006 0.026,-0.009 0.041,-0.009 0.015,0 0.028,0.003 0.041,0.009 0.013,0.005 0.024,0.013 0.033,0.022 0.01,0.01 0.017,0.021 0.023,0.034 0.005,0.012 0.008,0.026 0.008,0.041 z"
         style="fill:#16c60c;fill-rule:nonzero"
         id="path13726" /><path
         d="m 0.49,-0.12 c 0.007,0.006 0.012,0.014 0.016,0.023 0.003,0.008 0.005,0.017 0.005,0.027 0,0.009 -0.002,0.019 -0.005,0.027 C 0.502,-0.035 0.497,-0.027 0.49,-0.021 0.484,-0.014 0.476,-0.009 0.468,-0.006 0.459,-0.002 0.45,0 0.44,0 0.421,0 0.405,-0.007 0.391,-0.021 Z"
         style="fill:#13a10e;fill-rule:nonzero"
         id="path13728" /></g></g></svg>
