<?xml version="1.0" encoding="UTF-8" standalone="no"?>
<svg
   width="16.844999"
   height="16.844999"
   viewBox="0 0 16.844999 16.844999"
   version="1.1"
   xml:space="preserve"
   style="clip-rule:evenodd;fill-rule:evenodd;stroke-linejoin:round;stroke-miterlimit:2"
   id="svg20568"
   sodipodi:docname="emojis.svg"
   xmlns:inkscape="http://www.inkscape.org/namespaces/inkscape"
   xmlns:sodipodi="http://sodipodi.sourceforge.net/DTD/sodipodi-0.dtd"
   xmlns="http://www.w3.org/2000/svg"
   xmlns:svg="http://www.w3.org/2000/svg"><defs
     id="defs20572" /><sodipodi:namedview
     id="namedview20570"
     pagecolor="#505050"
     bordercolor="#eeeeee"
     borderopacity="1"
     inkscape:pageshadow="0"
     inkscape:pageopacity="0"
     inkscape:pagecheckerboard="0" /><g
     transform="matrix(0.24,0,0,0.24,-239.76636,-76.77852)"
     id="g20566"><g
       transform="matrix(62.5,0,0,62.5,991.214,376.973)"
       id="g138"><path
         d="m 1.248,-0.351 c 0,0.052 -0.007,0.101 -0.02,0.149 C 1.215,-0.154 1.196,-0.109 1.171,-0.068 1.147,-0.026 1.118,0.012 1.083,0.046 1.049,0.08 1.011,0.109 0.97,0.134 0.928,0.158 0.884,0.177 0.836,0.19 0.788,0.204 0.738,0.21 0.687,0.21 0.635,0.21 0.585,0.204 0.537,0.19 0.489,0.177 0.445,0.158 0.403,0.134 0.362,0.109 0.324,0.08 0.29,0.046 0.255,0.012 0.226,-0.026 0.202,-0.068 0.177,-0.109 0.158,-0.154 0.145,-0.202 0.132,-0.25 0.125,-0.299 0.125,-0.351 c 0,-0.052 0.007,-0.102 0.02,-0.149 0.013,-0.048 0.032,-0.093 0.057,-0.135 0.024,-0.041 0.053,-0.079 0.088,-0.113 0.034,-0.034 0.072,-0.064 0.113,-0.088 0.042,-0.024 0.086,-0.043 0.134,-0.057 0.048,-0.013 0.098,-0.02 0.15,-0.02 0.051,0 0.101,0.007 0.149,0.02 0.048,0.014 0.092,0.033 0.134,0.057 0.041,0.024 0.079,0.054 0.113,0.088 0.035,0.034 0.064,0.072 0.088,0.113 0.025,0.042 0.044,0.087 0.057,0.135 0.013,0.047 0.02,0.097 0.02,0.149 z"
         style="fill-rule:nonzero"
         id="path130" /><path
         d="m 1.178,-0.351 c 0,0.045 -0.006,0.089 -0.018,0.131 -0.012,0.041 -0.028,0.081 -0.049,0.117 -0.022,0.036 -0.047,0.07 -0.077,0.099 C 1.004,0.026 0.971,0.052 0.935,0.073 0.898,0.094 0.859,0.111 0.817,0.123 0.775,0.134 0.732,0.14 0.687,0.14 0.641,0.14 0.598,0.134 0.556,0.123 0.514,0.111 0.475,0.094 0.438,0.073 0.402,0.052 0.369,0.026 0.339,-0.004 0.309,-0.033 0.284,-0.067 0.262,-0.103 0.241,-0.139 0.225,-0.179 0.213,-0.22 0.201,-0.262 0.195,-0.306 0.195,-0.351 c 0,-0.045 0.006,-0.089 0.018,-0.131 0.012,-0.042 0.028,-0.081 0.049,-0.117 0.022,-0.037 0.047,-0.07 0.077,-0.099 0.03,-0.03 0.063,-0.056 0.099,-0.077 0.037,-0.021 0.076,-0.038 0.118,-0.05 0.042,-0.011 0.085,-0.017 0.131,-0.017 0.045,0 0.088,0.006 0.13,0.017 0.042,0.012 0.081,0.029 0.118,0.05 0.036,0.021 0.069,0.047 0.099,0.077 0.03,0.029 0.055,0.062 0.077,0.099 0.021,0.036 0.037,0.075 0.049,0.117 0.012,0.042 0.018,0.086 0.018,0.131 z"
         style="fill:#ffc83d;fill-rule:nonzero"
         id="path132" /><path
         d="m 0.441,-0.351 c 0.015,0 0.028,0.003 0.041,0.008 0.013,0.006 0.024,0.013 0.033,0.023 0.01,0.01 0.017,0.021 0.023,0.033 0.005,0.013 0.008,0.027 0.008,0.041 0,0.015 -0.003,0.029 -0.008,0.041 -0.006,0.013 -0.013,0.024 -0.023,0.034 -0.009,0.009 -0.02,0.017 -0.033,0.022 C 0.469,-0.143 0.456,-0.141 0.441,-0.141 0.426,-0.141 0.413,-0.143 0.4,-0.149 0.387,-0.154 0.376,-0.162 0.366,-0.171 0.357,-0.181 0.349,-0.192 0.344,-0.205 0.338,-0.217 0.335,-0.231 0.335,-0.246 0.335,-0.26 0.338,-0.274 0.344,-0.287 0.349,-0.299 0.357,-0.31 0.366,-0.32 0.376,-0.33 0.387,-0.337 0.4,-0.343 0.413,-0.348 0.426,-0.351 0.441,-0.351 Z m 0.491,0 c 0.015,0 0.028,0.003 0.041,0.008 0.013,0.006 0.024,0.013 0.034,0.023 0.009,0.01 0.017,0.021 0.022,0.033 0.006,0.013 0.009,0.027 0.009,0.041 0,0.015 -0.003,0.029 -0.009,0.041 -0.005,0.013 -0.013,0.024 -0.022,0.034 -0.01,0.009 -0.021,0.017 -0.034,0.022 -0.013,0.006 -0.026,0.008 -0.041,0.008 -0.015,0 -0.028,-0.002 -0.041,-0.008 C 0.878,-0.154 0.867,-0.162 0.858,-0.171 0.848,-0.181 0.84,-0.192 0.835,-0.205 0.829,-0.217 0.827,-0.231 0.827,-0.246 0.827,-0.26 0.829,-0.274 0.835,-0.287 0.84,-0.299 0.848,-0.31 0.858,-0.32 0.867,-0.33 0.878,-0.337 0.891,-0.343 0.904,-0.348 0.917,-0.351 0.932,-0.351 Z"
         style="fill:#f7894a;fill-rule:nonzero"
         id="path134" /><path
         d="m 0.896,-0.225 c 0.01,0 0.018,0.004 0.025,0.011 0.007,0.007 0.011,0.015 0.011,0.025 0,0.003 -0.001,0.006 -0.002,0.009 0,0.002 -0.002,0.005 -0.003,0.009 -0.012,0.02 -0.026,0.039 -0.044,0.056 -0.017,0.017 -0.037,0.031 -0.058,0.043 -0.022,0.012 -0.044,0.021 -0.068,0.027 -0.024,0.007 -0.047,0.01 -0.07,0.01 -0.024,0 -0.048,-0.003 -0.071,-0.01 C 0.592,-0.051 0.569,-0.06 0.548,-0.072 0.526,-0.084 0.507,-0.098 0.489,-0.115 0.471,-0.132 0.457,-0.151 0.446,-0.171 0.444,-0.175 0.443,-0.178 0.442,-0.18 0.441,-0.183 0.441,-0.186 0.441,-0.189 c 0,-0.01 0.003,-0.018 0.01,-0.025 0.007,-0.007 0.015,-0.011 0.025,-0.011 0.007,0 0.013,0.002 0.017,0.005 0.004,0.003 0.009,0.007 0.013,0.012 0.004,0.006 0.009,0.012 0.013,0.018 0.003,0.005 0.008,0.011 0.012,0.017 0.01,0.01 0.02,0.02 0.032,0.028 0.013,0.009 0.025,0.016 0.039,0.022 0.013,0.006 0.027,0.01 0.041,0.013 0.015,0.003 0.029,0.005 0.044,0.005 0.014,0 0.028,-0.002 0.042,-0.005 C 0.744,-0.113 0.758,-0.118 0.771,-0.123 0.785,-0.129 0.797,-0.136 0.809,-0.145 0.821,-0.153 0.832,-0.163 0.841,-0.173 0.846,-0.179 0.85,-0.185 0.854,-0.19 0.858,-0.196 0.862,-0.202 0.867,-0.208 0.871,-0.213 0.875,-0.217 0.879,-0.22 0.883,-0.223 0.889,-0.225 0.896,-0.225 Z M 0.581,-0.386 C 0.581,-0.398 0.579,-0.41 0.574,-0.42 0.57,-0.431 0.563,-0.441 0.556,-0.448 0.548,-0.456 0.539,-0.463 0.528,-0.467 0.517,-0.472 0.506,-0.474 0.494,-0.474 c -0.013,0 -0.024,0.002 -0.035,0.007 -0.01,0.004 -0.02,0.011 -0.028,0.019 -0.008,0.007 -0.014,0.017 -0.018,0.028 -0.005,0.01 -0.007,0.022 -0.007,0.034 H 0.371 v -0.018 c 0,-0.017 0.003,-0.033 0.009,-0.048 0.007,-0.015 0.016,-0.028 0.027,-0.039 0.011,-0.011 0.024,-0.019 0.039,-0.026 0.015,-0.006 0.031,-0.009 0.048,-0.009 0.017,0 0.033,0.003 0.048,0.009 0.014,0.007 0.027,0.015 0.039,0.026 0.011,0.011 0.019,0.024 0.026,0.039 0.006,0.015 0.009,0.031 0.009,0.048 v 0.018 z m 0.298,-0.14 c 0.017,0 0.033,0.003 0.048,0.009 0.015,0.007 0.028,0.015 0.039,0.026 0.011,0.011 0.02,0.024 0.027,0.039 0.006,0.015 0.009,0.031 0.009,0.048 v 0.018 H 0.967 C 0.967,-0.398 0.965,-0.41 0.96,-0.42 0.956,-0.431 0.95,-0.441 0.942,-0.448 0.934,-0.456 0.924,-0.463 0.914,-0.467 0.903,-0.472 0.891,-0.474 0.879,-0.474 c -0.012,0 -0.023,0.002 -0.034,0.007 -0.011,0.004 -0.02,0.011 -0.028,0.019 C 0.81,-0.441 0.803,-0.431 0.799,-0.42 0.794,-0.41 0.792,-0.398 0.792,-0.386 H 0.757 v -0.018 c 0,-0.017 0.003,-0.033 0.009,-0.048 0.007,-0.015 0.015,-0.028 0.026,-0.039 0.012,-0.011 0.024,-0.019 0.039,-0.026 0.015,-0.006 0.031,-0.009 0.048,-0.009 z"
         style="fill-rule:nonzero"
         id="path136" /></g></g></svg>
