<?xml version="1.0" encoding="UTF-8" standalone="no"?>
<svg
   width="16.844999"
   height="11.58"
   viewBox="0 0 16.844999 11.58"
   version="1.1"
   xml:space="preserve"
   style="clip-rule:evenodd;fill-rule:evenodd;stroke-linejoin:round;stroke-miterlimit:2"
   id="svg20568"
   sodipodi:docname="emojis.svg"
   xmlns:inkscape="http://www.inkscape.org/namespaces/inkscape"
   xmlns:sodipodi="http://sodipodi.sourceforge.net/DTD/sodipodi-0.dtd"
   xmlns="http://www.w3.org/2000/svg"
   xmlns:svg="http://www.w3.org/2000/svg"><defs
     id="defs20572" /><sodipodi:namedview
     id="namedview20570"
     pagecolor="#505050"
     bordercolor="#eeeeee"
     borderopacity="1"
     inkscape:pageshadow="0"
     inkscape:pageopacity="0"
     inkscape:pagecheckerboard="0" /><g
     transform="matrix(0.24,0,0,0.24,-582.591,-681.2316)"
     id="g20566"><g
       transform="matrix(62.5,0,0,62.5,2419.65,2873.59)"
       id="g13844"><path
         d="M 0.125,0.21 V -0.141 H 0.24 L 0.125,-0.37 v -0.016 h 0.182 l 0.069,-0.071 h 0.036 l 0.064,-0.064 v -0.041 h 0.456 v 0.035 h 0.044 l 0.035,0.07 h 0.035 c 0.011,0.024 0.023,0.047 0.035,0.071 0.011,0.023 0.023,0.047 0.035,0.07 H 1.24 L 1.182,-0.141 H 1.248 V 0.21 Z"
         style="fill-rule:nonzero"
         id="path13830" /><path
         d="m 0.862,-0.492 v 0.035 l -0.06,0.061 v 0.02 H 0.606 v -0.02 l -0.06,-0.061 v -0.035 h 0.07 v 0.035 L 0.602,-0.421 H 0.806 L 0.792,-0.457 v -0.035 z"
         style="fill:#e5e5e5;fill-rule:nonzero"
         id="path13832" /><path
         d="m 1.002,-0.386 0.071,0.14 -0.041,0.035 H 0.335 v -0.105 l 0.071,-0.07 c 10e-4,0 0.003,0.001 0.004,0.001 h 0.004 c 0.011,0 0.022,-0.001 0.032,-0.003 0.011,-0.002 0.021,-0.005 0.031,-0.009 L 0.476,-0.421 0.511,-0.457 h 0.105 v 0.071 h 0.176 v -0.071 h 0.14 l 0.018,0.036 -0.012,0.02 0.029,0.015 z"
         style="fill:#f2f2f2;fill-rule:nonzero"
         id="path13834" /><path
         d="m 1.143,-0.246 -0.024,0.07 -0.064,0.03 0.041,0.041 -0.012,0.035 0.013,0.049 H 0.346 L 0.354,-0.069 0.335,-0.105 0.373,-0.142 0.3,-0.176 0.23,-0.316 h 0.176 l 0.035,0.07 z"
         style="fill:#13a10e;fill-rule:nonzero"
         id="path13836" /><path
         d="M 1.119,-0.176 1.096,-0.105 H 0.335 L 0.3,-0.176 Z"
         style="fill:#16c60c;fill-rule:nonzero"
         id="path13838" /><path
         d="m 0.932,-0.351 c 0.01,0 0.018,0.003 0.025,0.01 0.007,0.007 0.01,0.015 0.01,0.025 0,0.01 -0.003,0.018 -0.01,0.025 -0.007,0.007 -0.015,0.01 -0.025,0.01 -0.009,0 -0.018,-0.003 -0.025,-0.01 -0.007,-0.007 -0.01,-0.015 -0.01,-0.025 0,-0.01 0.003,-0.018 0.01,-0.025 0.007,-0.007 0.015,-0.01 0.025,-0.01 z m -0.281,0 c 0.01,0 0.018,0.003 0.025,0.01 0.007,0.007 0.011,0.015 0.011,0.025 0,0.01 -0.004,0.018 -0.011,0.025 -0.007,0.007 -0.015,0.01 -0.025,0.01 -0.009,0 -0.017,-0.003 -0.024,-0.01 -0.007,-0.007 -0.011,-0.015 -0.011,-0.025 0,-0.01 0.004,-0.018 0.01,-0.025 0.007,-0.007 0.016,-0.01 0.025,-0.01 z m -0.14,0 c 0.01,0 0.018,0.003 0.025,0.01 0.006,0.007 0.01,0.016 0.01,0.025 0,0.01 -0.004,0.018 -0.01,0.025 -0.007,0.007 -0.015,0.01 -0.025,0.01 -0.009,0 -0.017,-0.003 -0.024,-0.01 -0.007,-0.007 -0.011,-0.015 -0.011,-0.025 0,-0.01 0.003,-0.018 0.01,-0.025 0.007,-0.007 0.015,-0.01 0.025,-0.01 z m 0.281,0 c 0.009,0 0.018,0.003 0.024,0.01 0.007,0.007 0.011,0.016 0.011,0.025 0,0.01 -0.004,0.018 -0.011,0.025 -0.006,0.007 -0.015,0.01 -0.024,0.01 -0.009,0 -0.018,-0.003 -0.025,-0.01 -0.007,-0.007 -0.01,-0.015 -0.01,-0.025 0,-0.01 0.003,-0.018 0.01,-0.025 0.007,-0.007 0.015,-0.01 0.025,-0.01 z m 0.158,-0.07 0.017,0.035 H 0.862 v -0.035 z m -0.509,0.035 0.035,-0.035 h 0.07 v 0.035 z"
         style="fill:#31d2f7;fill-rule:nonzero"
         id="path13840" /><path
         d="M 1.084,-0.07 H 1.178 V 0.141 H 0.195 V -0.07 h 0.158 l 0.018,0.035 c 0.014,0 0.027,-0.003 0.039,-0.01 0.012,-0.006 0.022,-0.015 0.031,-0.025 0.009,0.01 0.019,0.019 0.031,0.025 0.012,0.007 0.025,0.01 0.039,0.01 0.014,0 0.027,-0.003 0.039,-0.01 0.012,-0.006 0.023,-0.015 0.031,-0.025 0.009,0.01 0.019,0.019 0.031,0.025 0.012,0.007 0.025,0.01 0.039,0.01 0.014,0 0.027,-0.003 0.039,-0.01 0.012,-0.006 0.023,-0.015 0.032,-0.025 0.008,0.01 0.019,0.019 0.031,0.025 0.012,0.007 0.025,0.01 0.039,0.01 0.014,0 0.027,-0.003 0.039,-0.01 0.012,-0.006 0.022,-0.015 0.031,-0.025 0.009,0.01 0.019,0.019 0.031,0.025 0.012,0.007 0.025,0.01 0.039,0.01 0.014,0 0.027,-0.003 0.039,-0.01 0.012,-0.006 0.023,-0.015 0.031,-0.025 0.009,0.01 0.02,0.019 0.032,0.025 0.012,0.007 0.025,0.01 0.039,0.01 z"
         style="fill:#00bcf2;fill-rule:nonzero"
         id="path13842" /></g></g></svg>
