<?xml version="1.0" encoding="UTF-8" standalone="no"?>
<svg
   width="15.795"
   height="16.844999"
   viewBox="0 0 15.795 16.844999"
   version="1.1"
   xml:space="preserve"
   style="clip-rule:evenodd;fill-rule:evenodd;stroke-linejoin:round;stroke-miterlimit:2"
   id="svg20568"
   sodipodi:docname="emojis.svg"
   xmlns:inkscape="http://www.inkscape.org/namespaces/inkscape"
   xmlns:sodipodi="http://sodipodi.sourceforge.net/DTD/sodipodi-0.dtd"
   xmlns="http://www.w3.org/2000/svg"
   xmlns:svg="http://www.w3.org/2000/svg"><defs
     id="defs20572" /><sodipodi:namedview
     id="namedview20570"
     pagecolor="#505050"
     bordercolor="#eeeeee"
     borderopacity="1"
     inkscape:pageshadow="0"
     inkscape:pageopacity="0"
     inkscape:pagecheckerboard="0" /><g
     transform="matrix(0.24,0,0,0.24,-563.0502,-675.9666)"
     id="g20566"><g
       transform="matrix(62.5,0,0,62.5,2338.23,2873.59)"
       id="g13828"><path
         d="M 0.265,-0.457 V -0.702 H 0.3 v -0.07 h 0.211 v -0.141 h 0.281 v 0.141 h 0.21 v 0.07 h 0.036 v 0.245 H 1.1 L 0.971,-0.07 H 1.178 V 0.21 H 0.125 V -0.07 H 0.332 L 0.203,-0.457 Z"
         style="fill-rule:nonzero"
         id="path13806" /><path
         d="m 0.651,-0.425 0.025,0.053 V 0.05 H 0.41 L 0.429,0 0.335,-0.281 0.359,-0.321 0.312,-0.351 0.3,-0.386 h 0.105 l 0.026,-0.039 z m 0.071,-0.382 -0.019,0.019 0.019,0.016 v 0.091 H 0.581 V -0.772 L 0.6,-0.788 0.581,-0.807 v -0.035 h 0.141 z"
         style="fill:#006f94;fill-rule:nonzero"
         id="path13808" /><path
         d="M 0.967,-0.281 0.874,0 0.888,0.05 H 0.651 v -0.475 h 0.208 l 0.038,0.039 H 1.002 L 0.991,-0.351 0.94,-0.322 Z"
         style="fill:#0099bc;fill-rule:nonzero"
         id="path13810" /><path
         d="m 0.651,-0.351 h 0.34 l -0.024,0.07 H 0.651 L 0.622,-0.318 Z"
         style="fill:#f03a17;fill-rule:nonzero"
         id="path13812" /><path
         d="m 0.335,-0.281 -0.023,-0.07 h 0.339 v 0.07 z m 0.246,-0.526 h 0.141 v 0.035 H 0.581 Z"
         style="fill:#e81224;fill-rule:nonzero"
         id="path13814" /><path
         d="m 0.371,-0.702 h 0.561 v 0.095 H 0.371 Z m 0.035,0.316 V -0.48 h 0.491 v 0.094 z"
         style="fill:#e5e5e5;fill-rule:nonzero"
         id="path13816" /><path
         d="m 0.581,-0.618 v -0.049 h 0.141 v 0.049 z m 0.176,-0.049 h 0.14 v 0.049 h -0.14 z m -0.351,0.049 v -0.049 h 0.14 v 0.049 z"
         style="fill:#31d2f7;fill-rule:nonzero"
         id="path13818" /><path
         d="m 0.335,-0.632 h 0.632 v 0.141 c -0.002,0 -0.006,0.002 -0.013,0.003 -0.006,0.002 -0.013,0.003 -0.02,0.005 -0.007,0.002 -0.013,0.003 -0.019,0.004 -0.007,0.002 -0.011,0.002 -0.013,0.002 H 0.403 C 0.392,-0.477 0.381,-0.478 0.369,-0.482 0.357,-0.486 0.346,-0.489 0.335,-0.491 Z"
         style="fill:#f2f2f2;fill-rule:nonzero"
         id="path13820" /><path
         d="m 0.967,-0.491 -0.07,0.034 H 0.406 L 0.335,-0.491 Z"
         style="fill:#cccccc;fill-rule:nonzero"
         id="path13822" /><rect
         x="0.37099999"
         y="-0.597"
         width="0.56199998"
         height="0.07"
         style="fill:#69eaff;fill-rule:nonzero"
         id="rect13824" /><path
         d="M 0.874,0 H 1.107 V 0.14 H 0.195 V 0 H 0.429 L 0.441,0.035 C 0.455,0.035 0.468,0.032 0.48,0.025 0.492,0.019 0.502,0.01 0.511,0 0.52,0.01 0.53,0.019 0.542,0.025 0.554,0.032 0.567,0.035 0.581,0.035 0.595,0.035 0.608,0.032 0.62,0.025 0.632,0.019 0.643,0.01 0.651,0 c 0.009,0.01 0.02,0.019 0.032,0.025 0.012,0.007 0.025,0.01 0.039,0.01 0.014,0 0.027,-0.003 0.039,-0.01 C 0.773,0.019 0.783,0.01 0.792,0 0.8,0.01 0.811,0.019 0.823,0.025 c 0.012,0.007 0.025,0.01 0.039,0.01 z"
         style="fill:#00bcf2;fill-rule:nonzero"
         id="path13826" /></g></g></svg>
