<?xml version="1.0" encoding="UTF-8" standalone="no"?>
<svg
   width="16.844999"
   height="15.255"
   viewBox="0 0 16.844999 15.255"
   version="1.1"
   xml:space="preserve"
   style="clip-rule:evenodd;fill-rule:evenodd;stroke-linejoin:round;stroke-miterlimit:2"
   id="svg20568"
   sodipodi:docname="emojis.svg"
   xmlns:inkscape="http://www.inkscape.org/namespaces/inkscape"
   xmlns:sodipodi="http://sodipodi.sourceforge.net/DTD/sodipodi-0.dtd"
   xmlns="http://www.w3.org/2000/svg"
   xmlns:svg="http://www.w3.org/2000/svg"><defs
     id="defs20572" /><sodipodi:namedview
     id="namedview20570"
     pagecolor="#505050"
     bordercolor="#eeeeee"
     borderopacity="1"
     inkscape:pageshadow="0"
     inkscape:pageopacity="0"
     inkscape:pagecheckerboard="0" /><g
     transform="matrix(0.24,0,0,0.24,-623.7822,-677.5566)"
     id="g20566"><g
       transform="matrix(62.5,0,0,62.5,2591.28,2873.59)"
       id="g13880"><path
         d="m 1.178,-0.246 h 0.07 V 0.21 H 0.125 V -0.141 H 0.189 C 0.18,-0.163 0.172,-0.186 0.167,-0.209 0.163,-0.232 0.16,-0.256 0.16,-0.281 v -0.21 h 0.316 v -0.176 h 0.246 v -0.14 h 0.351 v 0.14 h 0.105 z"
         style="fill-rule:nonzero"
         id="path13864" /><path
         d="m 0.581,-0.581 h 0.492 v 0.265 H 0.581 v -0.105 c 0.003,-0.006 0.006,-0.012 0.008,-0.017 0.002,-0.006 0.003,-0.012 0.003,-0.019 0,-0.012 -0.004,-0.023 -0.011,-0.034 z"
         style="fill:#f2f2f2;fill-rule:nonzero"
         id="path13866" /><path
         d="M 0.511,0 C 0.501,0 0.491,0 0.479,0 0.467,-0.001 0.455,-0.002 0.442,-0.003 0.429,-0.004 0.417,-0.006 0.404,-0.009 0.392,-0.012 0.38,-0.016 0.369,-0.021 0.359,-0.027 0.35,-0.033 0.342,-0.041 0.334,-0.049 0.328,-0.059 0.325,-0.07 0.295,-0.097 0.271,-0.129 0.255,-0.165 0.239,-0.201 0.23,-0.24 0.23,-0.281 l 0.023,-0.044 h 0.83 l 0.024,0.044 c 0,0.013 0,0.026 0,0.039 0,0.013 -10e-4,0.026 -10e-4,0.039 0,0.009 10e-4,0.016 0.002,0.023 10e-4,0.007 0.002,0.014 0.004,0.02 0.002,0.006 0.004,0.013 0.006,0.019 0.002,0.007 0.004,0.014 0.007,0.022 l 0.035,0.115 c -0.105,0 -0.209,0.001 -0.312,0.001 -0.104,0.001 -0.208,0.001 -0.312,0.001 z"
         style="fill:#e5e5e5;fill-rule:nonzero"
         id="path13868" /><path
         d="m 0.546,-0.597 h 0.246 l 0.035,-0.028 0.035,0.028 h 0.07 l 0.035,-0.017 0.035,0.017 h 0.105 v 0.035 H 0.546 Z m -0.07,0.176 c 0.01,0 0.019,0.001 0.027,0.005 0.009,0.004 0.016,0.009 0.023,0.015 0.006,0.007 0.011,0.014 0.015,0.023 0.003,0.008 0.005,0.017 0.005,0.027 l -0.019,0.02 -0.016,-0.02 c 0,-0.01 -0.003,-0.018 -0.01,-0.025 -0.007,-0.007 -0.015,-0.01 -0.025,-0.01 h -0.07 v 0.05 H 0.371 v -0.05 H 0.265 v 0.055 L 0.23,-0.351 v -0.07 z M 1.16,-0.035 H 1.107 v -0.07 L 1.124,-0.123 1.107,-0.141 v -0.035 h 0.071 v 0.035 l -0.011,0.018 0.011,0.018 V -0.07 Z M 0.651,-0.176 c 0,-0.009 0.004,-0.017 0.011,-0.024 0.007,-0.007 0.015,-0.01 0.025,-0.01 0.009,0 0.017,0.003 0.024,0.01 0.007,0.007 0.011,0.015 0.011,0.024 0,0.01 -0.004,0.018 -0.011,0.025 -0.006,0.007 -0.015,0.01 -0.024,0.01 -0.01,0 -0.019,-0.003 -0.025,-0.01 C 0.655,-0.158 0.651,-0.166 0.651,-0.176 Z m 0.281,0 c 0,-0.009 0.004,-0.017 0.011,-0.024 0.007,-0.007 0.015,-0.01 0.024,-0.01 0.01,0 0.018,0.003 0.025,0.01 0.007,0.007 0.01,0.015 0.01,0.024 0,0.01 -0.003,0.018 -0.01,0.025 -0.007,0.007 -0.015,0.01 -0.025,0.01 -0.009,0 -0.018,-0.003 -0.025,-0.01 -0.006,-0.007 -0.01,-0.015 -0.01,-0.025 z m -0.421,0 c 0,-0.009 0.004,-0.017 0.01,-0.024 0.007,-0.007 0.015,-0.01 0.025,-0.01 0.009,0 0.018,0.003 0.025,0.01 0.007,0.007 0.01,0.015 0.01,0.024 0,0.01 -0.003,0.018 -0.01,0.025 -0.007,0.007 -0.015,0.01 -0.025,0.01 -0.01,0 -0.018,-0.003 -0.025,-0.01 -0.006,-0.007 -0.01,-0.015 -0.01,-0.025 z m 0.281,0 c 0,-0.009 0.003,-0.017 0.01,-0.024 0.007,-0.007 0.015,-0.01 0.025,-0.01 0.009,0 0.017,0.003 0.024,0.01 0.007,0.007 0.011,0.015 0.011,0.024 0,0.01 -0.004,0.018 -0.01,0.025 -0.007,0.007 -0.016,0.01 -0.025,0.01 -0.01,0 -0.018,-0.003 -0.025,-0.01 -0.007,-0.007 -0.01,-0.015 -0.01,-0.025 z"
         style="fill:#757575;fill-rule:nonzero"
         id="path13870" /><path
         d="m 0.792,-0.597 v -0.07 L 0.805,-0.685 0.792,-0.702 v -0.035 h 0.07 v 0.035 l -0.013,0.022 0.013,0.013 v 0.07 z m 0.14,0 v -0.07 L 0.953,-0.685 0.932,-0.702 v -0.035 h 0.07 v 0.035 l -0.021,0.017 0.021,0.018 v 0.07 z m 0.175,0.492 v -0.036 h 0.071 v 0.036 z"
         style="fill:#cccccc;fill-rule:nonzero"
         id="path13872" /><path
         d="m 0.23,-0.281 v -0.07 h 0.877 v 0.07 z m 0.702,-0.386 v -0.035 h 0.07 v 0.035 z m -0.14,0 v -0.035 h 0.07 v 0.035 z"
         style="fill:#f03a17;fill-rule:nonzero"
         id="path13874" /><path
         d="m 0.722,-0.491 v 0.07 H 0.581 v -0.07 z m 0.28,0.07 h -0.07 v -0.07 h 0.07 z m -0.14,0 h -0.07 v -0.07 h 0.07 z"
         style="fill:#31d2f7;fill-rule:nonzero"
         id="path13876" /><path
         d="M 1.178,-0.07 V 0.14 H 0.195 v -0.21 h 0.13 c 0.015,0.013 0.032,0.025 0.05,0.035 h 0.006 c 0.01,0 0.02,0 0.028,-10e-4 0.009,0 0.017,-0.002 0.025,-0.004 0.007,-0.002 0.015,-0.006 0.022,-0.011 0.006,-0.004 0.013,-0.011 0.02,-0.019 0.009,0.01 0.019,0.019 0.031,0.025 0.012,0.007 0.025,0.01 0.039,0.01 0.014,0 0.027,-0.003 0.039,-0.01 0.012,-0.006 0.022,-0.015 0.031,-0.025 0.009,0.01 0.019,0.019 0.031,0.025 0.013,0.007 0.026,0.01 0.04,0.01 0.014,0 0.027,-0.003 0.039,-0.01 0.012,-0.006 0.022,-0.015 0.031,-0.025 0.008,0.01 0.019,0.019 0.031,0.025 0.012,0.007 0.025,0.01 0.039,0.01 0.014,0 0.027,-0.003 0.039,-0.01 0.012,-0.006 0.022,-0.015 0.031,-0.025 0.009,0.01 0.019,0.019 0.031,0.025 0.012,0.007 0.025,0.01 0.039,0.01 0.014,0 0.027,-0.003 0.039,-0.01 0.012,-0.006 0.023,-0.015 0.032,-0.025 0.008,0.01 0.018,0.019 0.031,0.025 0.012,0.007 0.025,0.01 0.038,0.01 0.014,0 0.027,-0.003 0.039,-0.01 0.013,-0.006 0.023,-0.015 0.032,-0.025 z"
         style="fill:#00bcf2;fill-rule:nonzero"
         id="path13878" /></g></g></svg>
