<?xml version="1.0" encoding="UTF-8" standalone="no"?>
<svg
   width="16.844999"
   height="10.53"
   viewBox="0 0 16.844999 10.53"
   version="1.1"
   xml:space="preserve"
   style="clip-rule:evenodd;fill-rule:evenodd;stroke-linejoin:round;stroke-miterlimit:2"
   id="svg20568"
   sodipodi:docname="emojis.svg"
   xmlns:inkscape="http://www.inkscape.org/namespaces/inkscape"
   xmlns:sodipodi="http://sodipodi.sourceforge.net/DTD/sodipodi-0.dtd"
   xmlns="http://www.w3.org/2000/svg"
   xmlns:svg="http://www.w3.org/2000/svg"><defs
     id="defs20572" /><sodipodi:namedview
     id="namedview20570"
     pagecolor="#505050"
     bordercolor="#eeeeee"
     borderopacity="1"
     inkscape:pageshadow="0"
     inkscape:pageopacity="0"
     inkscape:pagecheckerboard="0" /><g
     transform="matrix(0.24,0,0,0.24,-603.1878,-682.2816)"
     id="g20566"><g
       transform="matrix(62.5,0,0,62.5,2505.47,2873.59)"
       id="g13862"><path
         d="M 1.248,-0.141 V 0.21 H 0.125 v -0.351 h 0.08 l -0.08,-0.158 v -0.017 h 0.217 l 0.034,-0.035 h 0.071 l 0.105,-0.106 h 0.081 c 0.01,-0.01 0.021,-0.019 0.032,-0.025 0.01,-0.007 0.023,-0.01 0.039,-0.01 0.014,0 0.027,0.003 0.039,0.01 0.013,0.006 0.023,0.014 0.031,0.025 h 0.158 v 0.071 h 0.087 c 0.038,0.019 0.077,0.038 0.115,0.057 0.037,0.019 0.076,0.038 0.114,0.058 v 0.016 l -0.102,0.051 c 0.014,0.006 0.027,0.014 0.037,0.025 0.011,0.011 0.019,0.024 0.024,0.038 z"
         style="fill-rule:nonzero"
         id="path13846" /><path
         d="M 1.143,-0.019 H 1.042 C 1.039,-0.024 1.038,-0.03 1.038,-0.035 v -0.07 c 0,-0.01 0.003,-0.019 0.01,-0.025 0.007,-0.007 0.015,-0.011 0.025,-0.011 h 0.034 c 0.01,0 0.018,0.004 0.025,0.011 0.007,0.006 0.011,0.015 0.011,0.025 z"
         style="fill:#757575;fill-rule:nonzero"
         id="path13848" /><path
         d="m 0.711,-0.386 h 0.151 v 0.035 H 0.827 v 0.096 H 0.476 V -0.281 L 0.545,-0.306 V -0.351 L 0.581,-0.386 H 0.662 L 0.695,-0.4 Z"
         style="fill:#e5e5e5;fill-rule:nonzero"
         id="path13850" /><path
         d="M 1.038,-0.105 1.04,-0.076 H 0.371 v -0.17 l 0.035,-0.035 h 0.07 l 0.037,-0.014 h 0.149 l 0.025,0.014 h 0.035 l 0.009,-0.01 h 0.051 l 0.01,0.01 h 0.14 v 0.105 h 0.035 l 0.017,-0.014 0.018,0.014 z"
         style="fill:#f2f2f2;fill-rule:nonzero"
         id="path13852" /><path
         d="m 0.651,-0.105 h 0.422 v 0.087 H 0.318 V -0.07 L 0.3,-0.105 0.33,-0.146 0.265,-0.176 0.23,-0.246 h 0.281 l 0.035,0.07 h 0.07 z m 0.351,-0.211 0.031,0.055 -0.031,0.05 v 0.035 H 0.967 v -0.14 z M 0.711,-0.386 H 0.662 l 0.029,-0.03 c 0.004,-0.003 0.008,-0.005 0.013,-0.005 0.005,0 0.009,0.002 0.012,0.005 0.003,0.004 0.005,0.008 0.005,0.012 0,0.004 -0.001,0.007 -0.003,0.01 -0.002,0.003 -0.004,0.005 -0.007,0.008 z"
         style="fill:#cccccc;fill-rule:nonzero"
         id="path13854" /><path
         d="m 0.687,-0.351 v 0.07 H 0.476 l 0.07,-0.07 z m 0.105,0 v 0.07 h -0.07 v -0.07 z m -0.105,0.105 c 0.009,0 0.017,0.003 0.024,0.01 0.007,0.007 0.011,0.016 0.011,0.025 0,0.01 -0.004,0.018 -0.011,0.025 -0.006,0.007 -0.015,0.01 -0.024,0.01 -0.01,0 -0.019,-0.003 -0.025,-0.01 -0.007,-0.007 -0.011,-0.015 -0.011,-0.025 0,-0.009 0.004,-0.018 0.011,-0.025 0.007,-0.007 0.015,-0.01 0.025,-0.01 z m 0.14,0 c 0.009,0 0.017,0.003 0.024,0.01 0.007,0.007 0.011,0.016 0.011,0.025 0,0.01 -0.004,0.018 -0.01,0.025 -0.007,0.007 -0.016,0.01 -0.025,0.01 -0.01,0 -0.018,-0.003 -0.025,-0.01 -0.007,-0.007 -0.01,-0.015 -0.01,-0.025 0,-0.009 0.003,-0.018 0.01,-0.025 0.007,-0.007 0.015,-0.01 0.025,-0.01 z"
         style="fill:#31d2f7;fill-rule:nonzero"
         id="path13856" /><path
         d="M 1.143,-0.07 H 1.178 V 0.141 H 0.195 V -0.07 h 0.123 l 0.017,0.035 h 0.036 c 0.014,0 0.027,-0.003 0.039,-0.01 0.012,-0.006 0.022,-0.015 0.031,-0.025 0.009,0.01 0.019,0.019 0.031,0.025 0.012,0.007 0.025,0.01 0.039,0.01 0.014,0 0.027,-0.003 0.039,-0.01 0.012,-0.006 0.023,-0.015 0.031,-0.025 0.009,0.01 0.019,0.019 0.031,0.025 0.012,0.007 0.025,0.01 0.039,0.01 0.014,0 0.027,-0.003 0.039,-0.01 0.012,-0.006 0.023,-0.015 0.032,-0.025 0.008,0.01 0.019,0.019 0.031,0.025 0.012,0.007 0.025,0.01 0.039,0.01 0.014,0 0.027,-0.003 0.039,-0.01 0.012,-0.006 0.022,-0.015 0.031,-0.025 0.009,0.01 0.019,0.019 0.031,0.025 0.012,0.007 0.025,0.01 0.039,0.01 0.014,0 0.027,-0.003 0.039,-0.01 0.012,-0.006 0.023,-0.015 0.031,-0.025 0.009,0.01 0.02,0.019 0.032,0.025 0.012,0.007 0.025,0.01 0.039,0.01 0.013,0 0.026,-0.003 0.039,-0.01 0.012,-0.006 0.022,-0.015 0.031,-0.025 z"
         style="fill:#00bcf2;fill-rule:nonzero"
         id="path13858" /><path
         d="m 0.265,-0.176 h 0.176 l 0.035,0.071 H 0.3 Z m 0.737,-0.14 0.105,0.052 -0.105,0.053 z"
         style="fill:#f03a17;fill-rule:nonzero"
         id="path13860" /></g></g></svg>
