<?xml version="1.0" encoding="UTF-8" standalone="no"?>
<svg
   width="16.605"
   height="13.155"
   viewBox="0 0 16.605 13.155"
   version="1.1"
   xml:space="preserve"
   style="clip-rule:evenodd;fill-rule:evenodd;stroke-linejoin:round;stroke-miterlimit:2"
   id="svg20568"
   sodipodi:docname="emojis.svg"
   xmlns:inkscape="http://www.inkscape.org/namespaces/inkscape"
   xmlns:sodipodi="http://sodipodi.sourceforge.net/DTD/sodipodi-0.dtd"
   xmlns="http://www.w3.org/2000/svg"
   xmlns:svg="http://www.w3.org/2000/svg"><defs
     id="defs20572" /><sodipodi:namedview
     id="namedview20570"
     pagecolor="#505050"
     bordercolor="#eeeeee"
     borderopacity="1"
     inkscape:pageshadow="0"
     inkscape:pageopacity="0"
     inkscape:pagecheckerboard="0" /><g
     transform="matrix(0.24,0,0,0.24,-763.7478,-678.0816)"
     id="g20566"><g
       transform="matrix(62.5,0,0,62.5,3174.47,2873.59)"
       id="g13990"><path
         d="m 0.125,-0.562 v -0.175 h 0.378 c 0.01,-0.011 0.021,-0.02 0.035,-0.026 0.014,-0.006 0.028,-0.009 0.043,-0.009 0.015,0 0.029,0.003 0.043,0.009 0.014,0.006 0.026,0.015 0.036,0.026 h 0.378 v 0.111 l 0.005,-0.006 h 0.189 l -0.066,0.269 -0.27,0.067 C 0.895,-0.259 0.887,-0.224 0.874,-0.19 0.86,-0.156 0.842,-0.125 0.82,-0.096 L 0.846,-0.07 H 0.967 V 0.105 H 0.125 V -0.07 H 0.247 L 0.272,-0.096 C 0.248,-0.128 0.229,-0.162 0.215,-0.199 0.202,-0.237 0.195,-0.276 0.195,-0.316 c 0,-0.047 0.009,-0.091 0.026,-0.133 0.017,-0.041 0.042,-0.079 0.075,-0.113 z"
         style="fill-rule:nonzero"
         id="path13978" /><path
         d="m 1.073,-0.562 h 0.07 L 1.107,-0.421 C 1.079,-0.414 1.05,-0.407 1.022,-0.4 c -0.028,0.007 -0.056,0.014 -0.085,0.022 -0.019,0.004 -0.038,0.009 -0.056,0.014 -0.019,0.005 -0.037,0.009 -0.056,0.013 0,0.006 0.001,0.012 0.001,0.018 0,0.005 0.001,0.011 0.001,0.017 0,0.039 -0.008,0.075 -0.023,0.109 C 0.79,-0.173 0.77,-0.143 0.744,-0.118 0.719,-0.092 0.689,-0.072 0.655,-0.057 0.621,-0.043 0.584,-0.035 0.546,-0.035 0.514,-0.035 0.483,-0.04 0.454,-0.051 0.425,-0.061 0.398,-0.075 0.374,-0.094 0.35,-0.112 0.33,-0.134 0.312,-0.16 0.295,-0.186 0.283,-0.214 0.274,-0.245 l 0.272,-0.352 v -0.046 h 0.07 v 0.055 c 0.03,0.008 0.057,0.02 0.083,0.036 0.025,0.017 0.047,0.037 0.066,0.061 h 0.237 z"
         style="fill:#ffc83d;fill-rule:nonzero"
         id="path13980" /><path
         d="M 0.302,0.023 H 0.266 c 0,-0.001 0,-0.002 -0.001,-0.003 0,-0.001 0,-0.001 0,-0.002 0,-0.005 0.002,-0.01 0.006,-0.013 l 0.14,-0.14 c 0.003,-0.004 0.007,-0.005 0.012,-0.005 0.005,0 0.009,0.002 0.012,0.005 0.004,0.004 0.005,0.008 0.005,0.012 0,0.005 -0.001,0.009 -0.004,0.013 z m 0.488,0 L 0.657,-0.11 C 0.653,-0.114 0.651,-0.118 0.651,-0.123 c 0,-0.004 0.002,-0.009 0.005,-0.012 0.004,-0.003 0.008,-0.005 0.013,-0.005 0.005,0 0.009,0.001 0.012,0.005 l 0.141,0.14 c 0.003,0.003 0.005,0.008 0.005,0.013 0,0.001 0,0.001 0,0.002 0,0.001 -0.001,0.002 -0.001,0.003 z M 0.581,-0.702 c 0.01,0 0.018,0.003 0.025,0.01 0.007,0.007 0.01,0.015 0.01,0.025 v 0.035 H 0.581 L 0.553,-0.643 0.547,-0.663 C 0.546,-0.665 0.546,-0.666 0.546,-0.667 c 0,-0.009 0.003,-0.018 0.01,-0.025 0.007,-0.007 0.016,-0.01 0.025,-0.01 z"
         style="fill:#757575;fill-rule:nonzero"
         id="path13982" /><path
         d="m 0.265,-0.316 c 0,-0.038 0.008,-0.075 0.022,-0.109 0.015,-0.034 0.035,-0.064 0.061,-0.089 0.025,-0.026 0.055,-0.046 0.089,-0.06 0.034,-0.015 0.07,-0.023 0.109,-0.023 v 0.281 l -0.07,0.07 H 0.274 C 0.271,-0.257 0.269,-0.269 0.268,-0.28 0.266,-0.292 0.265,-0.304 0.265,-0.316 Z m 0.422,-0.175 c 0.009,0 0.017,0.003 0.024,0.01 0.007,0.007 0.011,0.015 0.011,0.024 v 0.106 c 0,0.009 -0.004,0.018 -0.011,0.025 -0.007,0.007 -0.015,0.01 -0.024,0.01 H 0.651 c -0.009,0 -0.017,-0.003 -0.024,-0.01 C 0.62,-0.333 0.616,-0.342 0.616,-0.351 v -0.106 c 0,-0.009 0.004,-0.017 0.011,-0.024 0.007,-0.007 0.015,-0.01 0.024,-0.01 z"
         style="fill:#31d2f7;fill-rule:nonzero"
         id="path13984" /><path
         d="M 0.195,0 H 0.897 V 0.035 H 0.195 Z m 0.351,-0.667 0.035,0.035 H 0.195 v -0.035 z"
         style="fill:#e5e5e5;fill-rule:nonzero"
         id="path13986" /><path
         d="m 0.967,-0.667 v 0.035 H 0.616 L 0.581,-0.667 Z"
         style="fill:#cccccc;fill-rule:nonzero"
         id="path13988" /></g></g></svg>
