<?xml version="1.0" encoding="UTF-8" standalone="no"?>
<svg
   width="13.155"
   height="16.32"
   viewBox="0 0 13.155 16.32"
   version="1.1"
   xml:space="preserve"
   style="clip-rule:evenodd;fill-rule:evenodd;stroke-linejoin:round;stroke-miterlimit:2"
   id="svg20568"
   sodipodi:docname="emojis.svg"
   xmlns:inkscape="http://www.inkscape.org/namespaces/inkscape"
   xmlns:sodipodi="http://sodipodi.sourceforge.net/DTD/sodipodi-0.dtd"
   xmlns="http://www.w3.org/2000/svg"
   xmlns:svg="http://www.w3.org/2000/svg"><defs
     id="defs20572" /><sodipodi:namedview
     id="namedview20570"
     pagecolor="#505050"
     bordercolor="#eeeeee"
     borderopacity="1"
     inkscape:pageshadow="0"
     inkscape:pageopacity="0"
     inkscape:pagecheckerboard="0" /><g
     transform="matrix(0.24,0,0,0.24,-726.7614,-675.9666)"
     id="g20566"><g
       transform="matrix(62.5,0,0,62.5,3020.36,2873.59)"
       id="g13956"><path
         d="m 0.687,-0.913 c 0.029,0 0.057,0.004 0.084,0.012 0.027,0.007 0.052,0.018 0.076,0.031 0.023,0.014 0.044,0.03 0.064,0.05 0.019,0.019 0.035,0.04 0.049,0.064 0.013,0.023 0.024,0.048 0.031,0.075 0.008,0.027 0.011,0.056 0.011,0.085 0,0.019 -0.006,0.035 -0.02,0.049 l -0.213,0.213 c 0.008,0.01 0.013,0.022 0.017,0.034 0.004,0.012 0.006,0.024 0.006,0.037 0,0.016 -0.003,0.032 -0.009,0.046 -0.006,0.015 -0.015,0.028 -0.026,0.04 0,0.025 -0.008,0.047 -0.023,0.066 0.01,0.01 0.016,0.021 0.019,0.031 0.002,0.011 0.004,0.023 0.004,0.037 0.011,0.006 0.019,0.015 0.025,0.026 0.007,0.011 0.01,0.022 0.01,0.035 V 0.035 C 0.792,0.045 0.79,0.054 0.786,0.062 0.783,0.071 0.778,0.078 0.771,0.085 0.765,0.091 0.757,0.096 0.749,0.1 0.741,0.103 0.731,0.105 0.722,0.105 0.722,0.115 0.72,0.124 0.716,0.132 0.712,0.141 0.707,0.148 0.701,0.155 0.695,0.161 0.687,0.166 0.679,0.17 0.67,0.173 0.661,0.175 0.651,0.175 H 0.599 C 0.587,0.175 0.575,0.173 0.565,0.168 0.554,0.164 0.545,0.158 0.537,0.15 0.529,0.142 0.523,0.132 0.518,0.122 0.514,0.111 0.511,0.099 0.511,0.087 V 0.064 L 0.497,0.05 C 0.486,0.04 0.476,0.03 0.469,0.022 0.462,0.015 0.456,0.006 0.452,-0.002 0.448,-0.011 0.445,-0.021 0.443,-0.032 0.442,-0.043 0.441,-0.058 0.441,-0.076 0.419,-0.084 0.402,-0.097 0.389,-0.115 0.377,-0.134 0.371,-0.154 0.371,-0.177 0.359,-0.189 0.351,-0.202 0.344,-0.217 0.338,-0.232 0.335,-0.247 0.335,-0.263 0.335,-0.276 0.337,-0.288 0.341,-0.3 0.345,-0.312 0.35,-0.324 0.358,-0.334 L 0.146,-0.547 C 0.139,-0.553 0.134,-0.561 0.13,-0.57 0.127,-0.578 0.125,-0.587 0.125,-0.597 c 0,-0.044 0.008,-0.085 0.025,-0.123 0.016,-0.039 0.039,-0.072 0.067,-0.101 0.029,-0.028 0.062,-0.051 0.1,-0.067 0.039,-0.016 0.08,-0.025 0.124,-0.025 z"
         style="fill-rule:nonzero"
         id="path13942" /><path
         d="m 0.687,-0.246 v 0.07 c 0,0.008 -0.002,0.015 -0.005,0.019 -0.003,0.005 -0.007,0.008 -0.012,0.011 -0.005,0.002 -0.01,0.004 -0.017,0.004 -0.006,0.001 -0.012,0.001 -0.018,0.001 H 0.616 L 0.581,-0.095 H 0.546 L 0.511,-0.141 H 0.493 c -0.007,0 -0.013,0 -0.019,-0.001 -0.006,0 -0.012,-0.002 -0.016,-0.004 C 0.453,-0.149 0.449,-0.152 0.446,-0.157 0.442,-0.161 0.441,-0.168 0.441,-0.176 v -0.07 h 0.035 v 0.07 h 0.175 v -0.07 z m 0,0.264 L 0.651,0 V -0.035 H 0.581 L 0.616,0 V 0.081 L 0.581,0.07 V 0.035 l -0.06,-0.06 C 0.515,-0.032 0.511,-0.041 0.511,-0.05 v -0.02 l 0.052,-0.018 c 0.004,0.001 0.008,0.002 0.012,0.004 0.005,0.002 0.01,0.004 0.015,0.006 0.005,0.001 0.01,0.003 0.014,0.005 0.005,0.001 0.009,0.002 0.012,0.003 0.002,0 0.005,0 0.008,0 0.002,0.001 0.005,0.001 0.008,0.001 L 0.669,-0.07 c 0.005,0 0.009,0.001 0.012,0.005 0.004,0.003 0.006,0.007 0.006,0.012 z"
         style="fill:#8764b8;fill-rule:nonzero"
         id="path13944" /><path
         d="m 0.687,-0.313 c 0.01,0.004 0.018,0.01 0.025,0.019 0.006,0.009 0.01,0.019 0.01,0.031 0,0.007 -0.002,0.014 -0.004,0.02 -0.003,0.006 -0.007,0.012 -0.012,0.017 -0.005,0.005 -0.01,0.009 -0.017,0.011 -0.006,0.003 -0.013,0.005 -0.02,0.005 -0.007,0 -0.014,-0.002 -0.02,-0.005 C 0.642,-0.217 0.637,-0.221 0.632,-0.226 0.627,-0.231 0.623,-0.237 0.62,-0.243 0.618,-0.249 0.616,-0.256 0.616,-0.263 c 0,-0.007 0.002,-0.015 0.005,-0.022 L 0.588,-0.252 0.606,-0.235 0.581,-0.21 0.563,-0.228 0.546,-0.21 0.521,-0.235 0.539,-0.252 0.506,-0.285 c 0.004,0.007 0.005,0.015 0.005,0.022 0,0.007 -0.001,0.014 -0.004,0.02 C 0.504,-0.237 0.5,-0.231 0.496,-0.226 0.491,-0.221 0.485,-0.217 0.479,-0.215 0.472,-0.212 0.466,-0.21 0.458,-0.21 0.451,-0.21 0.445,-0.212 0.438,-0.215 0.432,-0.217 0.426,-0.221 0.421,-0.226 0.417,-0.231 0.413,-0.237 0.41,-0.243 0.407,-0.249 0.406,-0.256 0.406,-0.263 c 0,-0.012 0.003,-0.022 0.01,-0.031 0.006,-0.009 0.015,-0.015 0.025,-0.019 V -0.351 L 0.195,-0.596 V -0.604 L 0.209,-0.632 0.441,-0.4 v -0.267 h 0.035 v 0.281 H 0.651 V -0.667 H 0.687 V -0.4 l 0.231,-0.232 0.014,0.028 v 0.008 L 0.687,-0.351 Z M 0.616,-0.176 V -0.07 H 0.511 v -0.106 l 0.035,0.018 v 0.053 H 0.581 V -0.158 Z M 0.563,-0.277 0.637,-0.351 H 0.49 Z m 0.106,0.031 c 0.005,0 0.009,-0.001 0.012,-0.005 0.004,-0.003 0.006,-0.007 0.006,-0.012 0,-0.005 -0.002,-0.009 -0.006,-0.013 -0.003,-0.003 -0.007,-0.005 -0.012,-0.005 -0.005,0 -0.009,0.002 -0.013,0.005 -0.003,0.004 -0.005,0.008 -0.005,0.013 0,0.005 0.002,0.009 0.005,0.012 0.004,0.004 0.008,0.005 0.013,0.005 z m -0.211,0 c 0.005,0 0.01,-0.001 0.013,-0.005 0.003,-0.003 0.005,-0.007 0.005,-0.012 0,-0.005 -0.002,-0.009 -0.005,-0.013 -0.003,-0.003 -0.008,-0.005 -0.013,-0.005 -0.004,0 -0.009,0.002 -0.012,0.005 -0.003,0.004 -0.005,0.008 -0.005,0.013 0,0.005 0.002,0.009 0.005,0.012 0.003,0.004 0.008,0.005 0.012,0.005 z"
         style="fill:#e5e5e5;fill-rule:nonzero"
         id="path13946" /><path
         d="m 0.563,-0.263 c 0.008,0 0.014,0.001 0.021,0.004 0.006,0.003 0.012,0.006 0.017,0.011 0.005,0.005 0.008,0.011 0.011,0.017 0.003,0.007 0.004,0.013 0.004,0.021 v 0.034 L 0.581,-0.141 H 0.546 L 0.511,-0.176 V -0.21 c 0,-0.008 0.002,-0.014 0.004,-0.021 0.003,-0.006 0.007,-0.012 0.011,-0.017 0.005,-0.004 0.01,-0.008 0.017,-0.011 0.006,-0.003 0.013,-0.004 0.02,-0.004 z M 0.722,0.018 V 0.035 H 0.669 C 0.664,0.035 0.66,0.033 0.656,0.03 0.653,0.027 0.651,0.022 0.651,0.018 V 0 H 0.687 Z M 0.581,0.07 H 0.616 L 0.651,0.087 V 0.105 H 0.599 C 0.594,0.105 0.59,0.103 0.586,0.1 0.583,0.096 0.581,0.092 0.581,0.087 Z m 0.088,-0.333 c 0.005,0 0.009,0.002 0.012,0.005 0.004,0.003 0.006,0.008 0.006,0.012 0,0.005 -0.002,0.009 -0.006,0.013 -0.003,0.003 -0.007,0.005 -0.012,0.005 -0.005,0 -0.009,-0.002 -0.013,-0.005 -0.003,-0.004 -0.005,-0.008 -0.005,-0.013 0,-0.004 0.002,-0.009 0.005,-0.012 0.004,-0.003 0.008,-0.005 0.013,-0.005 z m -0.211,0 c 0.005,0 0.01,0.002 0.013,0.005 0.003,0.003 0.005,0.008 0.005,0.012 0,0.005 -0.002,0.009 -0.005,0.013 -0.003,0.003 -0.008,0.005 -0.013,0.005 -0.004,0 -0.009,-0.002 -0.012,-0.005 -0.003,-0.004 -0.005,-0.008 -0.005,-0.013 0,-0.004 0.002,-0.009 0.005,-0.012 0.003,-0.003 0.008,-0.005 0.012,-0.005 z"
         style="fill:#5c2e91;fill-rule:nonzero"
         id="path13948" /><path
         d="m 0.563,-0.842 h 0.124 c 0.033,0 0.065,0.006 0.095,0.019 0.03,0.013 0.056,0.03 0.078,0.053 0.022,0.022 0.04,0.048 0.053,0.078 0.013,0.03 0.019,0.061 0.019,0.095 C 0.925,-0.607 0.917,-0.616 0.908,-0.625 0.899,-0.633 0.889,-0.64 0.879,-0.647 0.868,-0.653 0.857,-0.658 0.846,-0.662 0.834,-0.665 0.822,-0.667 0.809,-0.667 0.796,-0.667 0.784,-0.665 0.772,-0.662 0.761,-0.658 0.75,-0.653 0.74,-0.647 0.729,-0.64 0.72,-0.633 0.711,-0.625 0.702,-0.616 0.694,-0.607 0.687,-0.597 Z m 0.053,0.632 c 0,0.009 -0.003,0.017 -0.01,0.024 -0.007,0.007 -0.016,0.01 -0.025,0.01 0,-0.004 -0.002,-0.008 -0.005,-0.012 -0.004,-0.004 -0.008,-0.005 -0.013,-0.005 -0.004,0 -0.008,0.001 -0.012,0.005 -0.003,0.004 -0.005,0.008 -0.005,0.012 -0.01,0 -0.018,-0.003 -0.025,-0.01 -0.006,-0.007 -0.01,-0.015 -0.01,-0.024 z"
         style="fill:#41dabc;fill-rule:nonzero"
         id="path13950" /><path
         d="M 0.563,-0.842 C 0.543,-0.801 0.522,-0.76 0.502,-0.72 0.481,-0.679 0.461,-0.638 0.441,-0.597 0.434,-0.607 0.426,-0.616 0.417,-0.625 0.408,-0.633 0.398,-0.64 0.388,-0.647 0.377,-0.653 0.366,-0.658 0.354,-0.662 0.343,-0.665 0.331,-0.667 0.318,-0.667 c -0.013,0 -0.025,0.002 -0.037,0.005 -0.011,0.004 -0.022,0.009 -0.033,0.015 -0.01,0.007 -0.02,0.014 -0.029,0.022 -0.008,0.009 -0.017,0.018 -0.024,0.028 0,-0.034 0.007,-0.065 0.02,-0.095 0.012,-0.03 0.03,-0.056 0.052,-0.078 0.022,-0.023 0.048,-0.04 0.078,-0.053 0.03,-0.013 0.062,-0.019 0.096,-0.019 z"
         style="fill:#00b294;fill-rule:nonzero"
         id="path13952" /><path
         d="m 0.563,-0.842 c 0.019,0.015 0.036,0.032 0.051,0.05 0.015,0.019 0.028,0.038 0.039,0.059 0.011,0.021 0.019,0.043 0.025,0.066 0.006,0.022 0.009,0.046 0.009,0.07 C 0.679,-0.607 0.671,-0.616 0.662,-0.625 0.653,-0.633 0.644,-0.64 0.633,-0.647 0.623,-0.653 0.612,-0.658 0.6,-0.662 0.588,-0.665 0.576,-0.667 0.563,-0.667 c -0.012,0 -0.024,0.002 -0.036,0.005 -0.012,0.004 -0.023,0.009 -0.033,0.015 -0.01,0.007 -0.02,0.014 -0.029,0.022 -0.009,0.009 -0.017,0.018 -0.024,0.028 0,-0.024 0.003,-0.048 0.009,-0.07 0.006,-0.023 0.014,-0.045 0.024,-0.066 0.011,-0.021 0.024,-0.04 0.039,-0.059 0.015,-0.018 0.032,-0.035 0.05,-0.05 z"
         style="fill:#00cea6;fill-rule:nonzero"
         id="path13954" /></g></g></svg>
