<?xml version="1.0" encoding="UTF-8" standalone="no"?>
<svg
   width="16.32"
   height="15.78"
   viewBox="0 0 16.32 15.78"
   version="1.1"
   xml:space="preserve"
   style="clip-rule:evenodd;fill-rule:evenodd;stroke-linejoin:round;stroke-miterlimit:2"
   id="svg20568"
   sodipodi:docname="emojis.svg"
   xmlns:inkscape="http://www.inkscape.org/namespaces/inkscape"
   xmlns:sodipodi="http://sodipodi.sourceforge.net/DTD/sodipodi-0.dtd"
   xmlns="http://www.w3.org/2000/svg"
   xmlns:svg="http://www.w3.org/2000/svg"><defs
     id="defs20572" /><sodipodi:namedview
     id="namedview20570"
     pagecolor="#505050"
     bordercolor="#eeeeee"
     borderopacity="1"
     inkscape:pageshadow="0"
     inkscape:pageopacity="0"
     inkscape:pagecheckerboard="0" /><g
     transform="matrix(0.24,0,0,0.24,-13.213584,-694.002)"
     id="g20566"><g
       transform="matrix(62.5,0,0,62.5,47.2441,2944.3)"
       id="g14024"><path
         d="M 1.213,-0.421 V 0.07 C 1.213,0.09 1.209,0.108 1.202,0.125 1.195,0.142 1.185,0.157 1.172,0.169 1.159,0.182 1.144,0.192 1.127,0.199 1.11,0.207 1.092,0.21 1.073,0.21 H 0.265 C 0.246,0.21 0.228,0.207 0.211,0.199 0.194,0.192 0.179,0.182 0.166,0.169 0.153,0.157 0.143,0.142 0.136,0.125 0.129,0.108 0.125,0.09 0.125,0.07 v -0.491 c 0,-0.02 0.004,-0.038 0.011,-0.055 0.007,-0.017 0.017,-0.032 0.03,-0.045 0.013,-0.012 0.028,-0.022 0.045,-0.03 0.017,-0.007 0.035,-0.011 0.054,-0.011 H 0.511 V -0.624 L 0.503,-0.632 H 0.335 v -0.175 h 0.217 l 0.035,-0.035 h 0.128 c 0.012,0.011 0.024,0.023 0.035,0.035 h 0.217 v 0.175 H 0.821 c 0.002,0.008 0.004,0.015 0.005,0.023 0,0.008 0.001,0.016 0.001,0.024 v 0.023 h 0.246 c 0.019,0 0.037,0.004 0.054,0.011 0.017,0.008 0.032,0.018 0.045,0.03 0.013,0.013 0.023,0.028 0.03,0.045 0.007,0.017 0.011,0.035 0.011,0.055 z"
         style="fill-rule:nonzero"
         id="path14010" /><path
         d="m 1.143,-0.421 v 0.07 l -0.051,0.098 0.051,0.112 V 0 L 1.089,0.039 H 0.246 L 0.195,0 V -0.141 L 0.246,-0.253 0.195,-0.351 v -0.07 l 0.069,-0.035 h 0.317 l 0.024,-0.026 h 0.127 l 0.025,0.026 h 0.32 z m -0.57,-0.271 -0.027,-0.01 h -0.14 v -0.035 h 0.175 c 0.003,0 0.006,-0.001 0.009,-0.003 0.003,-0.001 0.006,-0.002 0.009,-0.002 h 0.107 c 0.003,0 0.006,0.001 0.008,0.002 0.002,0.002 0.005,0.003 0.008,0.003 h 0.175 v 0.035 h -0.14 c -0.005,0 -0.011,0.002 -0.016,0.005 -0.005,0.003 -0.011,0.005 -0.015,0.005 z"
         style="fill:#f2f2f2;fill-rule:nonzero"
         id="path14012" /><path
         d="m 0.476,-0.386 c 0.01,0 0.018,0.003 0.025,0.01 0.007,0.007 0.01,0.015 0.01,0.025 v 0.281 c 0,0.009 -0.003,0.017 -0.01,0.024 -0.007,0.007 -0.015,0.011 -0.025,0.011 H 0.335 C 0.326,-0.035 0.318,-0.039 0.311,-0.046 0.304,-0.053 0.3,-0.061 0.3,-0.07 v -0.281 c 0,-0.01 0.004,-0.018 0.011,-0.025 0.007,-0.007 0.015,-0.01 0.024,-0.01 z m 0.177,-0.15 0.023,0.01 h 0.081 v 0.073 H 0.581 v -0.073 h 0.045 z m 0.009,-0.12 C 0.654,-0.659 0.647,-0.66 0.642,-0.662 0.637,-0.663 0.632,-0.664 0.628,-0.665 0.623,-0.666 0.619,-0.667 0.615,-0.667 c -0.004,0 -0.009,0 -0.015,0 H 0.581 L 0.546,-0.702 H 0.757 L 0.722,-0.667 H 0.676 Z m 0.025,-0.116 0.035,0.035 H 0.581 l 0.035,-0.035 z"
         style="fill:#cccccc;fill-rule:nonzero"
         id="path14014" /><path
         d="M 1.073,0.14 H 0.265 C 0.255,0.14 0.246,0.138 0.238,0.135 0.229,0.131 0.222,0.126 0.216,0.12 0.209,0.114 0.204,0.106 0.201,0.098 0.197,0.089 0.195,0.08 0.195,0.07 L 0.253,0.036 h 0.82 L 1.143,0.07 C 1.143,0.08 1.141,0.089 1.137,0.098 1.134,0.106 1.129,0.114 1.122,0.12 1.116,0.126 1.109,0.131 1.1,0.135 1.092,0.138 1.083,0.14 1.073,0.14 Z"
         style="fill:#af0d1a;fill-rule:nonzero"
         id="path14016" /><path
         d="M 1.143,0 V 0.07 H 0.195 V 0 Z m -0.07,-0.491 c 0.01,0 0.019,0.002 0.027,0.005 0.009,0.004 0.016,0.009 0.022,0.015 0.007,0.006 0.012,0.014 0.015,0.022 0.004,0.009 0.006,0.018 0.006,0.028 H 0.195 c 0,-0.01 0.002,-0.019 0.006,-0.028 0.003,-0.008 0.008,-0.016 0.015,-0.022 0.006,-0.006 0.013,-0.011 0.022,-0.015 0.008,-0.003 0.017,-0.005 0.027,-0.005 z"
         style="fill:#f03a17;fill-rule:nonzero"
         id="path14018" /><path
         d="m 0.712,-0.631 c 0.002,0 0.003,0 0.004,0 H 0.72 c 0.011,0 0.019,0.003 0.026,0.009 0.007,0.007 0.011,0.015 0.011,0.025 0,0.01 -0.004,0.018 -0.01,0.025 -0.007,0.007 -0.016,0.01 -0.025,0.01 -0.004,0 -0.007,0 -0.01,-10e-4 L 0.676,-0.526 H 0.626 L 0.688,-0.587 C 0.687,-0.589 0.687,-0.591 0.687,-0.592 c 0,-0.002 0,-0.003 0,-0.005 0,-0.001 0,-0.003 0,-0.004 0,-0.002 0,-0.003 10e-4,-0.005 L 0.626,-0.667 h 0.05 z m 0.01,-0.036 c -0.01,0 -0.018,-0.003 -0.025,-0.01 -0.007,-0.007 -0.01,-0.015 -0.01,-0.025 0,-0.01 0.003,-0.018 0.01,-0.025 0.007,-0.007 0.015,-0.01 0.025,-0.01 0.009,0 0.017,0.003 0.024,0.01 0.007,0.007 0.011,0.015 0.011,0.025 0,0.01 -0.004,0.018 -0.01,0.025 -0.007,0.007 -0.016,0.01 -0.025,0.01 z m -0.141,-0.07 c 0.009,0 0.018,0.003 0.025,0.01 0.007,0.007 0.01,0.015 0.01,0.025 0,0.01 -0.003,0.018 -0.01,0.025 -0.007,0.007 -0.015,0.01 -0.025,0.01 -0.009,0 -0.018,-0.003 -0.025,-0.01 -0.007,-0.007 -0.01,-0.016 -0.01,-0.025 0,-0.01 0.003,-0.018 0.01,-0.025 0.007,-0.007 0.016,-0.01 0.025,-0.01 z"
         style="fill:#757575;fill-rule:nonzero"
         id="path14020" /><path
         d="m 0.335,-0.21 v -0.141 h 0.141 v 0.141 z m 0.211,0 v -0.141 h 0.141 v 0.141 z m 0.351,0 v -0.141 h 0.141 v 0.141 z m -0.175,0 v -0.141 h 0.14 v 0.141 z m -0.527,0.069 v -0.21 h 0.07 v 0.21 z m 0.878,-0.21 h 0.07 v 0.21 h -0.07 z"
         style="fill:#31d2f7;fill-rule:nonzero"
         id="path14022" /></g></g></svg>
