<?xml version="1.0" encoding="UTF-8" standalone="no"?>
<svg
   width="16.844999"
   height="16.844999"
   viewBox="0 0 16.844999 16.844999"
   version="1.1"
   xml:space="preserve"
   style="clip-rule:evenodd;fill-rule:evenodd;stroke-linejoin:round;stroke-miterlimit:2"
   id="svg20568"
   sodipodi:docname="emojis.svg"
   xmlns:inkscape="http://www.inkscape.org/namespaces/inkscape"
   xmlns:sodipodi="http://sodipodi.sourceforge.net/DTD/sodipodi-0.dtd"
   xmlns="http://www.w3.org/2000/svg"
   xmlns:svg="http://www.w3.org/2000/svg"><defs
     id="defs20572" /><sodipodi:namedview
     id="namedview20570"
     pagecolor="#505050"
     bordercolor="#eeeeee"
     borderopacity="1"
     inkscape:pageshadow="0"
     inkscape:pageopacity="0"
     inkscape:pagecheckerboard="0" /><g
     transform="matrix(0.24,0,0,0.24,-48.08412,-692.937)"
     id="g20566"><g
       transform="matrix(62.5,0,0,62.5,192.538,2944.3)"
       id="g14064"><path
         d="M 1.248,-0.105 0.932,0.21 0.676,-0.046 C 0.668,-0.044 0.66,-0.042 0.651,-0.042 v 0.001 c 0,0.037 -0.007,0.072 -0.02,0.106 -0.014,0.034 -0.034,0.064 -0.06,0.09 L 0.521,0.205 0.396,0.08 C 0.391,0.089 0.386,0.097 0.379,0.105 0.372,0.112 0.365,0.118 0.357,0.124 0.348,0.129 0.339,0.133 0.33,0.136 0.32,0.139 0.31,0.14 0.3,0.14 0.286,0.14 0.272,0.137 0.259,0.132 0.246,0.127 0.235,0.119 0.226,0.11 0.216,0.1 0.209,0.089 0.203,0.076 0.198,0.064 0.195,0.05 0.195,0.035 c 0,-0.01 0.002,-0.02 0.004,-0.029 0.003,-0.01 0.007,-0.019 0.013,-0.027 0.005,-0.009 0.011,-0.016 0.019,-0.023 0.007,-0.006 0.015,-0.012 0.025,-0.017 l -0.125,-0.125 0.05,-0.049 c 0.026,-0.027 0.056,-0.047 0.09,-0.06 0.034,-0.014 0.069,-0.021 0.107,-0.021 0,-0.009 0.001,-0.017 0.003,-0.024 L 0.125,-0.597 0.441,-0.913 0.689,-0.664 C 0.697,-0.672 0.704,-0.679 0.711,-0.687 0.719,-0.695 0.726,-0.702 0.734,-0.708 0.742,-0.715 0.751,-0.72 0.76,-0.724 0.769,-0.728 0.779,-0.73 0.791,-0.73 0.8,-0.74 0.811,-0.748 0.823,-0.754 0.836,-0.761 0.849,-0.765 0.862,-0.767 l 0.056,-0.056 c 0.012,-0.011 0.025,-0.02 0.039,-0.026 0.014,-0.005 0.029,-0.008 0.045,-0.008 0.016,0 0.031,0.003 0.046,0.009 0.014,0.006 0.027,0.014 0.038,0.025 l 0.072,0.072 c 0.011,0.011 0.02,0.024 0.026,0.039 0.006,0.014 0.009,0.029 0.009,0.045 0,0.016 -0.003,0.031 -0.009,0.045 -0.006,0.015 -0.014,0.028 -0.026,0.039 L 1.102,-0.527 C 1.1,-0.513 1.096,-0.5 1.09,-0.488 c -0.007,0.013 -0.015,0.023 -0.025,0.033 0,0.011 -0.002,0.022 -0.006,0.031 C 1.055,-0.415 1.05,-0.407 1.043,-0.399 1.037,-0.391 1.03,-0.383 1.022,-0.376 1.015,-0.369 1.007,-0.361 1,-0.354 Z"
         style="fill-rule:nonzero"
         id="path14044" /><path
         d="M 0.5,-0.055 0.398,-0.043 0.4,-0.041 0.334,0.026 c 0.001,0.002 0.001,0.003 0.001,0.005 0,0.001 0,0.003 0,0.004 0,0.01 -0.003,0.018 -0.01,0.025 C 0.318,0.067 0.31,0.07 0.3,0.07 0.291,0.07 0.283,0.067 0.276,0.06 0.269,0.053 0.265,0.045 0.265,0.035 0.265,0.024 0.269,0.016 0.276,0.01 0.283,0.004 0.292,0 0.302,0 0.303,0 0.304,0 0.306,0 0.307,0 0.308,0.001 0.31,0.001 L 0.363,-0.053 0.23,-0.186 c 0.02,-0.019 0.042,-0.034 0.067,-0.044 0.025,-0.01 0.051,-0.016 0.079,-0.016 0.013,0 0.024,0.001 0.035,0.003 0.011,0.002 0.022,0.005 0.032,0.009 0.01,0.003 0.02,0.008 0.029,0.013 0.01,0.006 0.02,0.012 0.03,0.019 0.002,0.001 0.006,0.002 0.01,0.002 h 0.011 c 0.002,0 0.003,0 0.005,0 0.002,0 0.004,0.001 0.005,0.002 z M 1.073,-0.737 0.976,-0.588 0.897,-0.667 0.932,-0.702 v -0.035 l 0.046,-0.046 c 0.006,-0.007 0.015,-0.01 0.024,-0.01 0.01,0 0.019,0.003 0.025,0.01 z"
         style="fill:#cccccc;fill-rule:nonzero"
         id="path14046" /><path
         d="m 1.128,-0.667 c 0,0.01 -0.003,0.018 -0.01,0.025 L 1.073,-0.597 H 1.038 L 1.002,-0.562 0.957,-0.607 0.909,-0.497 0.783,-0.623 0.842,-0.682 c 0.011,-0.011 0.023,-0.016 0.037,-0.016 0.008,0 0.014,0.002 0.02,0.004 0.007,0.003 0.012,0.007 0.018,0.012 l 0.05,0.05 0.106,-0.105 0.045,0.045 c 0.007,0.007 0.01,0.015 0.01,0.025 z M 0.375,-0.04 0.533,-0.198 c 0.001,0.002 0.002,0.003 0.002,0.005 0,0.002 0.001,0.004 0.001,0.005 l -0.001,0.012 c 0,0.004 0.001,0.007 0.003,0.009 0.006,0.01 0.013,0.02 0.018,0.03 0.006,0.01 0.01,0.019 0.014,0.03 0.003,0.01 0.006,0.02 0.008,0.031 0.002,0.011 0.003,0.023 0.003,0.035 0,0.028 -0.005,0.054 -0.015,0.079 C 0.555,0.063 0.541,0.085 0.521,0.105 Z"
         style="fill:#a6a6a6;fill-rule:nonzero"
         id="path14048" /><path
         d="m 0.792,-0.66 c 0.005,0 0.009,0.002 0.012,0.005 L 0.897,-0.562 0.772,-0.315 0.54,-0.198 0.529,-0.228 0.453,-0.304 C 0.45,-0.307 0.448,-0.311 0.448,-0.316 c 0,-0.005 0.002,-0.009 0.005,-0.013 L 0.779,-0.655 C 0.783,-0.658 0.787,-0.66 0.792,-0.66 Z"
         style="fill:#e5e5e5;fill-rule:nonzero"
         id="path14050" /><path
         d="m 0.563,-0.193 -0.025,-0.01 0.359,-0.359 0.068,0.004 0.02,0.084 0.008,0.009 c 0.001,0.002 0.002,0.005 0.002,0.009 0,0.005 -0.002,0.009 -0.005,0.012 l -0.326,0.326 c -0.004,0.004 -0.008,0.006 -0.013,0.006 -0.004,0 -0.008,-0.002 -0.012,-0.006 z"
         style="fill:#cccccc;fill-rule:nonzero"
         id="path14052" /><path
         d="M 0.915,-0.172 0.866,-0.122 0.748,-0.24 0.76,-0.283 0.797,-0.29 Z m 0.07,-0.302 -0.088,-0.088 0.07,-0.07 0.051,0.051 c 0.004,0.005 0.008,0.011 0.011,0.017 0.003,0.006 0.004,0.013 0.004,0.02 0,0.008 -10e-4,0.015 -0.005,0.021 -0.003,0.007 -0.007,0.013 -0.012,0.018 -0.004,0.006 -0.01,0.011 -0.015,0.016 -0.006,0.005 -0.011,0.01 -0.016,0.015 z m -0.36,0.012 -0.002,0.048 H 0.576 l -0.09,-0.088 0.05,-0.049 z M 0.563,-0.193 0.538,-0.167 C 0.527,-0.18 0.515,-0.192 0.502,-0.202 l 0.027,-0.026 z"
         style="fill:#757575;fill-rule:nonzero"
         id="path14054" /><path
         d="m 0.711,-0.376 v 0.048 H 0.662 L 0.576,-0.413 0.625,-0.462 Z"
         style="fill:#eba300;fill-rule:nonzero"
         id="path14056" /><path
         d="M 0.797,-0.29 0.748,-0.24 0.662,-0.326 0.711,-0.376 Z"
         style="fill:#d48c00;fill-rule:nonzero"
         id="path14058" /><path
         d="M 1.149,-0.105 0.932,0.111 0.733,-0.088 0.95,-0.304 Z M 0.64,-0.614 0.423,-0.398 0.224,-0.597 0.441,-0.813 Z"
         style="fill:#83beec;fill-rule:nonzero"
         id="path14060" /><path
         d="M 0.59,-0.614 0.519,-0.543 0.457,-0.605 0.528,-0.677 Z M 0.941,-0.121 0.878,-0.184 0.95,-0.255 1.012,-0.192 Z M 0.432,-0.581 0.494,-0.519 0.423,-0.447 0.361,-0.51 Z m 0.667,0.476 -0.071,0.071 -0.062,-0.063 0.071,-0.07 z M 0.916,-0.097 0.845,-0.025 0.783,-0.088 0.854,-0.159 Z M 0.432,-0.63 0.37,-0.692 0.441,-0.764 0.503,-0.701 Z M 0.941,-0.072 1.003,-0.009 0.932,0.062 0.87,-0.001 Z m -0.534,-0.533 -0.071,0.07 -0.062,-0.062 0.071,-0.07 z"
         style="fill:#0078d7;fill-rule:nonzero"
         id="path14062" /></g></g></svg>
