<?xml version="1.0" encoding="UTF-8" standalone="no"?>
<svg
   width="16.32"
   height="16.305"
   viewBox="0 0 16.32 16.305"
   version="1.1"
   xml:space="preserve"
   style="clip-rule:evenodd;fill-rule:evenodd;stroke-linejoin:round;stroke-miterlimit:2"
   id="svg20568"
   sodipodi:docname="emojis.svg"
   xmlns:inkscape="http://www.inkscape.org/namespaces/inkscape"
   xmlns:sodipodi="http://sodipodi.sourceforge.net/DTD/sodipodi-0.dtd"
   xmlns="http://www.w3.org/2000/svg"
   xmlns:svg="http://www.w3.org/2000/svg"><defs
     id="defs20572" /><sodipodi:namedview
     id="namedview20570"
     pagecolor="#505050"
     bordercolor="#eeeeee"
     borderopacity="1"
     inkscape:pageshadow="0"
     inkscape:pageopacity="0"
     inkscape:pagecheckerboard="0" /><g
     transform="matrix(0.24,0,0,0.24,-784.1166,-676.5066)"
     id="g20566"><g
       transform="matrix(62.5,0,0,62.5,3259.34,2873.59)"
       id="g14008"><path
         d="m 1.213,-0.842 v 0.28 h -0.07 v 0.019 c 0.021,0.013 0.039,0.03 0.051,0.051 0.013,0.022 0.019,0.045 0.019,0.071 V 0.07 C 1.213,0.09 1.209,0.108 1.202,0.125 1.195,0.142 1.185,0.157 1.172,0.169 1.159,0.182 1.144,0.192 1.127,0.199 1.11,0.207 1.092,0.21 1.073,0.21 H 0.265 C 0.246,0.21 0.228,0.207 0.211,0.199 0.194,0.192 0.179,0.182 0.166,0.169 0.153,0.157 0.143,0.142 0.136,0.125 0.129,0.108 0.125,0.09 0.125,0.07 v -0.491 c 0,-0.026 0.006,-0.049 0.019,-0.071 0.012,-0.021 0.03,-0.038 0.051,-0.051 v -0.019 h -0.07 v -0.28 H 0.271 L 0.307,-0.877 H 0.4 l 0.035,0.035 h 0.468 l 0.035,-0.035 h 0.093 l 0.035,0.035 z"
         style="fill-rule:nonzero"
         id="path13992" /><path
         d="m 1.097,-0.243 0.046,0.102 V 0 L 1.087,0.034 H 0.242 L 0.195,0 V -0.141 L 0.241,-0.243 0.195,-0.351 v -0.07 L 0.248,-0.456 H 1.09 l 0.053,0.035 v 0.07 z"
         style="fill:#f2f2f2;fill-rule:nonzero"
         id="path13994" /><path
         d="m 1.143,-0.772 v 0.035 l -0.016,0.018 0.016,0.017 v 0.07 H 0.195 v -0.07 L 0.221,-0.716 0.195,-0.737 V -0.772 Z M 0.476,-0.035 H 0.335 C 0.326,-0.035 0.318,-0.039 0.311,-0.046 0.304,-0.053 0.3,-0.061 0.3,-0.07 v -0.281 c 0,-0.01 0.004,-0.018 0.011,-0.025 0.007,-0.007 0.015,-0.01 0.024,-0.01 h 0.141 c 0.01,0 0.018,0.003 0.025,0.01 0.007,0.007 0.01,0.015 0.01,0.025 v 0.281 c 0,0.009 -0.003,0.017 -0.01,0.024 -0.007,0.007 -0.015,0.011 -0.025,0.011 z M 0.406,-0.667 V -0.712 H 0.3 v 0.045 z m 0.632,0 V -0.712 H 0.932 v 0.045 z m -0.703,0.055 h 0.036 v 0.105 H 0.335 Z m 0.632,0 h 0.035 v 0.105 H 0.967 Z M 0.757,-0.667 V -0.712 H 0.722 v 0.045 z m -0.281,0 V -0.712 H 0.441 v 0.045 z m 0.421,0 V -0.712 H 0.862 v 0.045 z m -0.21,0 V -0.712 H 0.651 v 0.045 z m -0.071,0 V -0.712 H 0.581 v 0.045 z m 0.211,0 V -0.712 H 0.792 v 0.045 z m 0.246,0 H 1.107 V -0.712 H 1.073 Z m -0.527,0 V -0.712 H 0.511 v 0.045 z m -0.281,0 V -0.712 H 0.23 v 0.045 z"
         style="fill:#cccccc;fill-rule:nonzero"
         id="path13996" /><path
         d="M 1.073,0.14 H 0.265 C 0.255,0.14 0.246,0.138 0.238,0.135 0.229,0.131 0.222,0.126 0.216,0.12 0.209,0.114 0.204,0.106 0.201,0.098 0.197,0.089 0.195,0.08 0.195,0.07 L 0.237,0.041 H 1.094 L 1.143,0.07 C 1.143,0.08 1.141,0.089 1.137,0.098 1.134,0.106 1.129,0.114 1.122,0.12 1.116,0.126 1.109,0.131 1.1,0.135 1.092,0.138 1.083,0.14 1.073,0.14 Z M 0.195,-0.737 h 0.948 v 0.035 H 0.195 Z"
         style="fill:#e5e5e5;fill-rule:nonzero"
         id="path13998" /><path
         d="M 0.371,-0.597 H 0.335 L 0.3,-0.632 v -0.14 l 0.035,-0.035 h 0.036 l 0.035,0.035 v 0.14 z m 0.631,0 H 0.967 L 0.932,-0.632 v -0.14 l 0.035,-0.035 h 0.035 l 0.036,0.035 v 0.14 z m -0.105,0.071 h 0.176 v 0.048 H 0.897 Z m -0.632,0.048 v -0.048 h 0.176 v 0.048 z"
         style="fill:#757575;fill-rule:nonzero"
         id="path14000" /><path
         d="m 1.073,-0.491 c 0.01,0 0.019,0.002 0.027,0.005 0.009,0.004 0.016,0.009 0.022,0.015 0.007,0.006 0.012,0.014 0.015,0.022 0.004,0.009 0.006,0.018 0.006,0.028 H 0.195 c 0,-0.01 0.002,-0.019 0.006,-0.028 0.003,-0.008 0.008,-0.016 0.015,-0.022 0.006,-0.006 0.013,-0.011 0.022,-0.015 0.008,-0.003 0.017,-0.005 0.027,-0.005 z"
         style="fill:#3a96dd;fill-rule:nonzero"
         id="path14002" /><rect
         x="0.19499999"
         y="0"
         width="0.94700003"
         height="0.07"
         style="fill:#ffb900;fill-rule:nonzero"
         id="rect14004" /><path
         d="m 0.335,-0.21 v -0.141 h 0.141 v 0.141 z m 0.211,0 v -0.141 h 0.141 v 0.141 z m 0.351,0 v -0.141 h 0.141 v 0.141 z m -0.175,0 v -0.141 h 0.14 v 0.141 z m 0.351,-0.141 h 0.07 v 0.21 h -0.07 z m -0.878,0.21 v -0.21 h 0.07 v 0.21 z"
         style="fill:#31d2f7;fill-rule:nonzero"
         id="path14006" /></g></g></svg>
