<?xml version="1.0" encoding="UTF-8" standalone="no"?>
<svg
   width="16.844999"
   height="13.935"
   viewBox="0 0 16.844999 13.935"
   version="1.1"
   xml:space="preserve"
   style="clip-rule:evenodd;fill-rule:evenodd;stroke-linejoin:round;stroke-miterlimit:2"
   id="svg20568"
   sodipodi:docname="emojis.svg"
   xmlns:inkscape="http://www.inkscape.org/namespaces/inkscape"
   xmlns:sodipodi="http://sodipodi.sourceforge.net/DTD/sodipodi-0.dtd"
   xmlns="http://www.w3.org/2000/svg"
   xmlns:svg="http://www.w3.org/2000/svg"><defs
     id="defs20572" /><sodipodi:namedview
     id="namedview20570"
     pagecolor="#505050"
     bordercolor="#eeeeee"
     borderopacity="1"
     inkscape:pageshadow="0"
     inkscape:pageopacity="0"
     inkscape:pagecheckerboard="0" /><g
     transform="matrix(0.24,0,0,0.24,-89.27556,-694.002)"
     id="g20566"><g
       transform="matrix(62.5,0,0,62.5,364.169,2944.3)"
       id="g14114"><path
         d="m 0.967,-0.517 c 0.017,0.003 0.035,0.007 0.055,0.013 0.021,0.005 0.041,0.012 0.062,0.02 0.021,0.007 0.041,0.017 0.061,0.027 0.019,0.011 0.037,0.023 0.052,0.037 0.016,0.014 0.028,0.029 0.037,0.046 0.009,0.018 0.014,0.037 0.014,0.058 v 0.035 c 0,0.025 -0.005,0.047 -0.017,0.066 C 1.22,-0.195 1.206,-0.177 1.189,-0.162 1.171,-0.147 1.152,-0.134 1.131,-0.123 1.11,-0.112 1.089,-0.103 1.069,-0.095 1.05,-0.064 1.026,-0.036 0.997,-0.013 0.968,0.01 0.936,0.028 0.902,0.043 0.868,0.058 0.832,0.069 0.795,0.077 0.758,0.084 0.722,0.087 0.687,0.087 0.651,0.087 0.615,0.084 0.578,0.077 0.541,0.069 0.505,0.058 0.471,0.043 0.437,0.028 0.405,0.01 0.376,-0.013 0.347,-0.036 0.323,-0.064 0.304,-0.095 0.284,-0.103 0.263,-0.112 0.242,-0.123 0.221,-0.134 0.202,-0.147 0.185,-0.162 0.167,-0.177 0.153,-0.195 0.142,-0.215 0.131,-0.234 0.125,-0.256 0.125,-0.281 v -0.035 c 0,-0.021 0.005,-0.04 0.014,-0.058 0.01,-0.017 0.022,-0.033 0.037,-0.047 0.015,-0.013 0.033,-0.026 0.052,-0.036 0.02,-0.01 0.04,-0.02 0.061,-0.027 0.02,-0.008 0.041,-0.015 0.061,-0.02 0.021,-0.006 0.039,-0.01 0.056,-0.013 v -0.045 c 0,-0.038 0.007,-0.075 0.022,-0.109 0.015,-0.034 0.035,-0.063 0.06,-0.089 0.026,-0.025 0.055,-0.045 0.089,-0.06 0.034,-0.015 0.071,-0.022 0.11,-0.022 0.038,0 0.075,0.007 0.109,0.022 0.034,0.015 0.063,0.035 0.089,0.06 0.025,0.026 0.045,0.055 0.06,0.089 0.015,0.034 0.022,0.071 0.022,0.109 z"
         style="fill-rule:nonzero"
         id="path14086" /><path
         d="m 0.687,-0.772 c 0.028,0 0.056,0.006 0.081,0.017 0.026,0.011 0.048,0.026 0.067,0.045 0.019,0.019 0.034,0.041 0.045,0.067 0.011,0.025 0.017,0.053 0.017,0.081 v 0.158 c 0,0.01 -0.004,0.019 -0.013,0.026 -0.009,0.007 -0.02,0.013 -0.033,0.019 C 0.837,-0.354 0.822,-0.35 0.806,-0.346 0.789,-0.343 0.773,-0.34 0.758,-0.339 0.742,-0.337 0.728,-0.336 0.715,-0.335 0.702,-0.334 0.693,-0.333 0.687,-0.333 0.68,-0.333 0.671,-0.334 0.658,-0.335 0.645,-0.336 0.631,-0.337 0.615,-0.339 0.6,-0.34 0.584,-0.343 0.567,-0.346 0.551,-0.35 0.536,-0.354 0.522,-0.359 0.509,-0.365 0.498,-0.371 0.489,-0.378 0.48,-0.385 0.476,-0.394 0.476,-0.404 v -0.158 c 0,-0.028 0.006,-0.056 0.017,-0.081 0.011,-0.026 0.026,-0.048 0.045,-0.067 0.019,-0.019 0.041,-0.034 0.067,-0.045 0.025,-0.011 0.053,-0.017 0.082,-0.017 z"
         style="fill:#b3dbf2;fill-rule:nonzero"
         id="path14088" /><path
         d="M 1.038,-0.228 C 1.038,-0.2 1.032,-0.174 1.02,-0.151 1.008,-0.127 0.993,-0.106 0.974,-0.088 0.955,-0.069 0.934,-0.053 0.91,-0.039 0.886,-0.025 0.862,-0.014 0.838,-0.006 0.813,0.002 0.789,0.008 0.763,0.012 0.738,0.016 0.712,0.018 0.687,0.018 0.661,0.018 0.635,0.016 0.61,0.012 0.584,0.008 0.56,0.002 0.535,-0.006 0.511,-0.014 0.487,-0.025 0.463,-0.039 0.439,-0.053 0.418,-0.069 0.399,-0.088 0.38,-0.106 0.365,-0.127 0.353,-0.151 0.341,-0.174 0.335,-0.2 0.335,-0.228 c 0,-0.027 0.006,-0.047 0.018,-0.062 0.012,-0.015 0.027,-0.025 0.045,-0.032 0.018,-0.007 0.038,-0.011 0.06,-0.012 0.022,-0.002 0.043,-0.002 0.063,-0.002 0.028,0 0.055,0 0.083,0.001 0.027,0.001 0.055,0.002 0.083,0.002 0.027,0 0.055,-0.001 0.082,-0.002 0.028,-0.001 0.055,-0.001 0.083,-0.001 0.02,0 0.041,0 0.063,0.002 0.022,0.001 0.042,0.005 0.06,0.012 0.018,0.007 0.033,0.017 0.045,0.032 0.012,0.015 0.018,0.035 0.018,0.062 z"
         style="fill:#757575;fill-rule:nonzero"
         id="path14090" /><path
         d="m 1.178,-0.316 v 0.035 c 0,0.017 -0.006,0.033 -0.017,0.047 -0.012,0.015 -0.027,0.027 -0.045,0.039 -0.018,0.011 -0.038,0.021 -0.061,0.03 -0.022,0.008 -0.045,0.016 -0.067,0.022 -0.022,0.006 -0.043,0.011 -0.062,0.015 -0.02,0.004 -0.036,0.007 -0.048,0.009 -0.032,0.004 -0.064,0.008 -0.096,0.01 -0.031,0.002 -0.063,0.004 -0.095,0.004 -0.033,0 -0.065,-0.002 -0.096,-0.004 C 0.559,-0.111 0.527,-0.115 0.495,-0.119 0.483,-0.121 0.467,-0.124 0.447,-0.128 0.428,-0.132 0.407,-0.137 0.385,-0.143 0.363,-0.149 0.34,-0.157 0.318,-0.165 0.295,-0.174 0.275,-0.184 0.257,-0.195 0.239,-0.207 0.224,-0.219 0.212,-0.234 0.201,-0.248 0.195,-0.264 0.195,-0.281 v -0.035 z"
         style="fill:#383838;fill-rule:nonzero"
         id="path14092" /><path
         d="m 0.897,-0.458 c 0.011,0.001 0.026,0.004 0.045,0.007 0.018,0.004 0.038,0.008 0.058,0.014 0.021,0.006 0.042,0.012 0.063,0.02 0.021,0.007 0.04,0.016 0.057,0.026 0.017,0.01 0.031,0.022 0.042,0.034 0.01,0.012 0.016,0.026 0.016,0.041 0,0.012 -0.004,0.023 -0.011,0.033 -0.008,0.01 -0.016,0.019 -0.027,0.028 -0.01,0.008 -0.022,0.015 -0.034,0.021 -0.012,0.006 -0.022,0.011 -0.031,0.015 L 1.05,-0.21 C 1.047,-0.209 1.046,-0.208 1.045,-0.208 H 0.328 c -0.001,0 -0.002,-0.001 -0.005,-0.002 L 0.303,-0.217 C 0.3,-0.218 0.299,-0.219 0.298,-0.219 0.289,-0.223 0.278,-0.228 0.266,-0.234 0.254,-0.24 0.243,-0.247 0.233,-0.255 0.222,-0.264 0.214,-0.273 0.206,-0.283 0.199,-0.293 0.195,-0.304 0.195,-0.316 c 0,-0.015 0.006,-0.029 0.016,-0.041 0.011,-0.012 0.025,-0.024 0.042,-0.034 0.017,-0.01 0.036,-0.019 0.057,-0.026 0.021,-0.008 0.042,-0.014 0.063,-0.02 0.02,-0.006 0.04,-0.01 0.058,-0.014 0.019,-0.003 0.034,-0.006 0.045,-0.007 0.014,0.004 0.03,0.008 0.047,0.011 0.017,0.002 0.034,0.004 0.052,0.006 0.018,0.001 0.035,0.002 0.053,0.002 0.018,0 0.035,0 0.05,0 h 0.009 c 0.035,0 0.07,-0.001 0.105,-0.002 0.036,-0.002 0.07,-0.008 0.105,-0.017 z"
         style="fill:#a6a6a6;fill-rule:nonzero"
         id="path14094" /><path
         d="m 0.687,-0.404 c 0.003,0.002 0.011,0.007 0.023,0.014 0.012,0.006 0.027,0.014 0.044,0.024 0.018,0.009 0.037,0.02 0.057,0.031 0.021,0.012 0.042,0.023 0.063,0.035 0.021,0.012 0.042,0.023 0.062,0.034 0.02,0.011 0.038,0.021 0.054,0.029 0.015,0.009 0.028,0.016 0.038,0.021 0.01,0.005 0.016,0.008 0.017,0.008 -0.027,0.009 -0.056,0.017 -0.086,0.024 -0.029,0.006 -0.06,0.011 -0.091,0.015 -0.031,0.004 -0.062,0.007 -0.092,0.008 -0.031,0.002 -0.061,0.003 -0.089,0.003 -0.029,0 -0.059,-0.001 -0.09,-0.003 C 0.567,-0.162 0.536,-0.165 0.505,-0.169 0.474,-0.173 0.444,-0.178 0.414,-0.184 0.384,-0.191 0.355,-0.199 0.328,-0.208 c 0.001,0 0.007,-0.003 0.017,-0.008 0.01,-0.005 0.023,-0.012 0.039,-0.021 0.015,-0.008 0.033,-0.018 0.053,-0.029 0.02,-0.011 0.041,-0.022 0.062,-0.034 0.021,-0.012 0.042,-0.023 0.063,-0.035 0.02,-0.011 0.039,-0.022 0.057,-0.031 0.017,-0.01 0.032,-0.018 0.044,-0.024 0.012,-0.007 0.02,-0.012 0.024,-0.014 z"
         style="fill:#cccccc;fill-rule:nonzero"
         id="path14096" /><path
         d="m 0.722,-0.246 c 0,0.01 -0.004,0.018 -0.011,0.025 -0.007,0.007 -0.015,0.011 -0.024,0.011 -0.01,0 -0.018,-0.004 -0.025,-0.011 -0.007,-0.007 -0.011,-0.015 -0.011,-0.025 0,-0.009 0.004,-0.018 0.011,-0.025 0.006,-0.006 0.015,-0.01 0.025,-0.01 0.009,0 0.018,0.004 0.024,0.01 0.007,0.007 0.011,0.016 0.011,0.025 z M 0.371,-0.351 c 0,0.01 -0.004,0.018 -0.011,0.025 -0.006,0.007 -0.015,0.01 -0.025,0.01 -0.009,0 -0.017,-0.003 -0.024,-0.01 C 0.304,-0.333 0.3,-0.342 0.3,-0.351 c 0,-0.01 0.004,-0.018 0.011,-0.025 0.007,-0.007 0.015,-0.01 0.024,-0.01 0.01,0 0.019,0.003 0.025,0.01 0.007,0.007 0.011,0.015 0.011,0.025 z m 0.702,0 c 0,0.009 -0.004,0.018 -0.011,0.025 -0.007,0.007 -0.015,0.01 -0.024,0.01 -0.01,0 -0.018,-0.003 -0.025,-0.01 -0.007,-0.007 -0.011,-0.015 -0.011,-0.025 0,-0.01 0.004,-0.018 0.011,-0.025 0.007,-0.007 0.015,-0.01 0.025,-0.01 0.009,0 0.017,0.003 0.024,0.01 0.007,0.007 0.011,0.015 0.011,0.025 z"
         style="fill:#3a96dd;fill-rule:nonzero"
         id="path14098" /><path
         d="m 0.687,-0.474 c 0.035,0 0.07,0.001 0.105,0.004 0.035,0.002 0.07,0.006 0.105,0.012 v 0.054 H 0.476 v -0.054 c 0.035,-0.006 0.07,-0.01 0.105,-0.012 0.035,-0.003 0.07,-0.004 0.106,-0.004 z"
         style="fill:#83beec;fill-rule:nonzero"
         id="path14100" /><path
         d="m 0.687,-0.474 c 0.028,0 0.056,0.002 0.084,0.006 0.005,0 0.011,0.002 0.019,0.003 0.008,0.002 0.017,0.004 0.026,0.006 0.01,0.003 0.019,0.006 0.029,0.009 0.009,0.004 0.018,0.008 0.026,0.012 0.007,0.005 0.014,0.01 0.019,0.015 0.005,0.006 0.007,0.012 0.007,0.019 0,0.008 -0.003,0.014 -0.008,0.02 -0.006,0.006 -0.013,0.011 -0.02,0.016 -0.008,0.004 -0.016,0.008 -0.025,0.011 -0.008,0.003 -0.015,0.005 -0.02,0.006 L 0.819,-0.352 C 0.798,-0.359 0.776,-0.364 0.754,-0.37 0.732,-0.375 0.71,-0.377 0.687,-0.377 0.662,-0.377 0.638,-0.375 0.615,-0.369 0.593,-0.363 0.569,-0.357 0.546,-0.352 0.541,-0.353 0.534,-0.355 0.526,-0.358 0.518,-0.361 0.51,-0.365 0.503,-0.369 0.495,-0.374 0.489,-0.379 0.484,-0.385 0.479,-0.39 0.476,-0.397 0.476,-0.404 c 0,-0.007 0.003,-0.013 0.007,-0.019 0.005,-0.005 0.012,-0.01 0.019,-0.015 0.008,-0.004 0.017,-0.008 0.026,-0.012 0.01,-0.003 0.019,-0.006 0.029,-0.009 0.009,-0.002 0.018,-0.004 0.026,-0.006 0.008,-0.001 0.014,-0.003 0.019,-0.003 0.028,-0.004 0.056,-0.006 0.085,-0.006 z"
         style="fill:#0063b1;fill-rule:nonzero"
         id="path14102" /><path
         d="M 0.824,-0.351 C 0.802,-0.344 0.779,-0.34 0.756,-0.337 0.733,-0.335 0.71,-0.333 0.687,-0.333 0.663,-0.333 0.639,-0.335 0.616,-0.338 0.592,-0.34 0.569,-0.345 0.546,-0.352 0.547,-0.362 0.549,-0.371 0.553,-0.38 0.557,-0.389 0.562,-0.396 0.569,-0.403 0.576,-0.409 0.584,-0.414 0.593,-0.418 0.602,-0.422 0.611,-0.424 0.622,-0.424 H 0.76 c 0.003,0 0.006,0 0.01,-0.002 0.004,-0.001 0.007,-0.003 0.011,-0.005 0.003,-0.002 0.006,-0.004 0.009,-0.007 0.002,-0.003 0.004,-0.005 0.004,-0.008 l 0.023,-0.113 0.023,-0.024 0.022,0.024 v 0.113 z"
         style="fill:#383838;fill-rule:nonzero"
         id="path14104" /><path
         d="m 0.851,-0.638 c 0.003,0 0.006,0.001 0.008,0.003 0.002,0.002 0.003,0.005 0.003,0.008 v 0.068 H 0.817 V -0.57 L 0.79,-0.595 c 0.001,0.008 0.002,0.015 0.002,0.022 0,0.013 -0.002,0.025 -0.007,0.038 -0.005,0.012 -0.012,0.023 -0.02,0.032 L 0.708,-0.442 C 0.705,-0.439 0.702,-0.437 0.698,-0.435 0.694,-0.434 0.69,-0.433 0.687,-0.433 0.683,-0.433 0.679,-0.434 0.675,-0.435 0.671,-0.437 0.668,-0.439 0.665,-0.442 L 0.608,-0.503 C 0.6,-0.512 0.593,-0.523 0.588,-0.535 0.583,-0.548 0.581,-0.56 0.581,-0.573 c 0,-0.015 0.003,-0.029 0.008,-0.041 0.006,-0.013 0.013,-0.024 0.023,-0.034 0.01,-0.009 0.021,-0.017 0.034,-0.022 0.012,-0.006 0.026,-0.009 0.041,-0.009 0.01,0 0.021,0.002 0.031,0.005 0.01,0.003 0.019,0.008 0.028,0.014 0.008,0.006 0.016,0.013 0.023,0.021 0.006,0.008 0.012,0.018 0.016,0.028 0.001,-0.002 0.003,-0.004 0.006,-0.004 0.003,0 0.006,-0.001 0.009,-0.001 H 0.806 L 0.805,-0.63 c 0,-0.005 0.001,-0.01 0.002,-0.014 0.002,-0.003 0.005,-0.005 0.01,-0.005 L 0.831,-0.65 c 0.005,0 0.009,0.001 0.013,0.002 0.005,0.002 0.007,0.005 0.007,0.01 z"
         style="fill:#16c60c;fill-rule:nonzero"
         id="path14106" /><path
         d="m 0.651,-0.484 c 0,-0.003 0.001,-0.005 0.003,-0.006 0.002,-0.002 0.004,-0.003 0.006,-0.003 0.003,0 0.006,0.002 0.01,0.004 0.004,0.003 0.01,0.005 0.017,0.005 0.006,0 0.011,-0.002 0.016,-0.005 0.004,-0.002 0.007,-0.004 0.01,-0.004 0.002,0 0.004,0.001 0.006,0.003 0.002,0.001 0.003,0.003 0.003,0.006 0,0.002 -0.002,0.005 -0.005,0.007 -0.003,0.002 -0.006,0.004 -0.01,0.005 -0.004,0.001 -0.008,0.002 -0.012,0.003 -0.004,0 -0.007,10e-4 -0.008,10e-4 -0.002,0 -0.005,-10e-4 -0.009,-10e-4 C 0.674,-0.47 0.67,-0.471 0.666,-0.472 0.662,-0.473 0.659,-0.475 0.656,-0.477 0.653,-0.479 0.651,-0.482 0.651,-0.484 Z"
         style="fill:#008272;fill-rule:nonzero"
         id="path14108" /><path
         d="m 0.626,-0.591 c 0.012,0 0.022,0.004 0.03,0.013 0.009,0.008 0.013,0.018 0.013,0.03 v 0.02 c 0,0.005 -0.003,0.007 -0.008,0.007 H 0.642 C 0.636,-0.521 0.63,-0.522 0.625,-0.524 0.62,-0.526 0.615,-0.529 0.611,-0.533 0.607,-0.537 0.604,-0.542 0.602,-0.547 0.6,-0.552 0.599,-0.558 0.599,-0.563 v -0.02 c 0,-0.005 0.002,-0.008 0.007,-0.008 z m 0.141,0 c 0.002,0 0.003,0.001 0.005,0.003 0.002,0.001 0.002,0.003 0.002,0.005 v 0.02 c 0,0.005 -0.001,0.011 -0.003,0.016 -0.002,0.005 -0.005,0.01 -0.009,0.014 -0.004,0.004 -0.009,0.007 -0.014,0.009 -0.005,0.002 -0.011,0.003 -0.017,0.003 H 0.712 c -0.005,0 -0.008,-0.002 -0.008,-0.007 v -0.02 c 0,-0.012 0.004,-0.022 0.013,-0.03 0.008,-0.009 0.018,-0.013 0.03,-0.013 z"
         style="fill-rule:nonzero"
         id="path14110" /><path
         d="m 0.618,-0.583 c 0.003,0 0.006,0.001 0.008,0.003 0.003,0.003 0.004,0.005 0.004,0.009 0,0.003 -0.001,0.006 -0.004,0.008 C 0.624,-0.561 0.621,-0.56 0.618,-0.56 0.615,-0.56 0.612,-0.561 0.61,-0.563 0.608,-0.565 0.606,-0.568 0.606,-0.571 c 0,-0.004 0.002,-0.006 0.004,-0.009 0.002,-0.002 0.005,-0.003 0.008,-0.003 z m 0.121,0 c 0.004,0 0.006,0.001 0.009,0.003 0.002,0.003 0.003,0.005 0.003,0.009 0,0.003 -0.001,0.006 -0.003,0.008 -0.003,0.002 -0.005,0.003 -0.009,0.003 -0.003,0 -0.006,-0.001 -0.008,-0.003 -0.002,-0.002 -0.003,-0.005 -0.003,-0.008 0,-0.004 0.001,-0.006 0.003,-0.009 0.002,-0.002 0.005,-0.003 0.008,-0.003 z m -0.21,0.039 c -0.005,0 -0.009,-0.002 -0.013,-0.005 -0.003,-0.003 -0.005,-0.008 -0.005,-0.013 0,-0.024 0.005,-0.047 0.014,-0.068 0.009,-0.021 0.022,-0.04 0.037,-0.056 0.016,-0.016 0.035,-0.028 0.056,-0.037 0.021,-0.01 0.044,-0.014 0.069,-0.014 0.004,0 0.008,0.001 0.012,0.005 0.003,0.004 0.005,0.008 0.005,0.012 0,0.005 -0.002,0.009 -0.005,0.013 -0.003,0.003 -0.008,0.005 -0.012,0.005 -0.02,0 -0.038,0.004 -0.055,0.011 -0.017,0.007 -0.032,0.017 -0.045,0.03 -0.013,0.013 -0.023,0.027 -0.03,0.045 -0.007,0.017 -0.011,0.035 -0.011,0.054 0,0.005 -0.002,0.009 -0.005,0.013 -0.004,0.003 -0.008,0.005 -0.012,0.005 z"
         style="fill:#ffffff;fill-rule:nonzero"
         id="path14112" /></g></g></svg>
