<?xml version="1.0" encoding="UTF-8" standalone="no"?>
<svg
   width="16.844999"
   height="16.844999"
   viewBox="0 0 16.844999 16.844999"
   version="1.1"
   xml:space="preserve"
   style="clip-rule:evenodd;fill-rule:evenodd;stroke-linejoin:round;stroke-miterlimit:2"
   id="svg20568"
   sodipodi:docname="emojis.svg"
   xmlns:inkscape="http://www.inkscape.org/namespaces/inkscape"
   xmlns:sodipodi="http://sodipodi.sourceforge.net/DTD/sodipodi-0.dtd"
   xmlns="http://www.w3.org/2000/svg"
   xmlns:svg="http://www.w3.org/2000/svg"><defs
     id="defs20572" /><sodipodi:namedview
     id="namedview20570"
     pagecolor="#505050"
     bordercolor="#eeeeee"
     borderopacity="1"
     inkscape:pageshadow="0"
     inkscape:pageopacity="0"
     inkscape:pagecheckerboard="0" /><g
     transform="matrix(0.24,0,0,0.24,-130.467,-692.937)"
     id="g20566"><g
       transform="matrix(62.5,0,0,62.5,535.8,2944.3)"
       id="g14134"><path
         d="m 0.125,-0.263 c 0,-0.012 0.002,-0.023 0.006,-0.033 0.005,-0.01 0.01,-0.019 0.018,-0.027 0.007,-0.008 0.016,-0.014 0.026,-0.019 0.01,-0.005 0.021,-0.008 0.033,-0.009 0.005,0 0.011,0 0.016,0 0.005,0 0.011,-0.001 0.016,-0.001 l 0.044,0.001 C 0.278,-0.359 0.273,-0.367 0.27,-0.376 0.267,-0.385 0.265,-0.394 0.265,-0.404 c 0,-0.012 0.002,-0.023 0.007,-0.034 0.005,-0.01 0.011,-0.02 0.019,-0.028 C 0.298,-0.474 0.308,-0.48 0.318,-0.484 0.329,-0.489 0.34,-0.491 0.352,-0.491 L 0.295,-0.548 C 0.287,-0.557 0.279,-0.567 0.274,-0.578 0.268,-0.59 0.265,-0.602 0.265,-0.614 c 0,-0.012 0.002,-0.024 0.007,-0.034 0.005,-0.011 0.011,-0.021 0.019,-0.029 0.008,-0.007 0.017,-0.014 0.028,-0.018 0.01,-0.005 0.022,-0.007 0.034,-0.007 0.013,0 0.025,0.003 0.036,0.008 0.012,0.006 0.022,0.013 0.03,0.023 l 0.063,0.061 c 0.006,-0.017 0.017,-0.031 0.032,-0.042 0.014,-0.01 0.031,-0.015 0.049,-0.015 0.02,0 0.038,0.006 0.053,0.018 v -0.264 h 0.176 v 0.264 c 0.007,-0.005 0.016,-0.01 0.025,-0.013 0.009,-0.003 0.018,-0.005 0.027,-0.005 0.019,0 0.035,0.005 0.05,0.015 0.015,0.011 0.026,0.025 0.032,0.042 l 0.067,-0.067 c 0.008,-0.008 0.018,-0.014 0.029,-0.019 0.011,-0.004 0.022,-0.006 0.033,-0.006 0.012,0 0.024,0.002 0.034,0.007 0.011,0.004 0.02,0.011 0.028,0.018 0.008,0.008 0.014,0.018 0.019,0.029 0.004,0.01 0.007,0.022 0.007,0.034 0,0.011 -0.003,0.022 -0.007,0.033 -0.004,0.011 -0.011,0.02 -0.019,0.028 l -0.061,0.062 c 0.012,0 0.024,0.002 0.034,0.007 0.011,0.004 0.02,0.01 0.028,0.018 0.007,0.008 0.014,0.018 0.018,0.028 0.004,0.011 0.007,0.022 0.007,0.034 0,0.02 -0.006,0.037 -0.018,0.053 H 1.16 c 0.012,0 0.024,0.002 0.034,0.007 0.011,0.004 0.02,0.011 0.028,0.019 0.008,0.008 0.015,0.017 0.019,0.028 0.005,0.01 0.007,0.022 0.007,0.034 0,0.012 -0.002,0.023 -0.007,0.034 -0.004,0.01 -0.011,0.02 -0.019,0.028 -0.008,0.008 -0.017,0.014 -0.028,0.018 -0.01,0.005 -0.022,0.007 -0.034,0.007 H 1.125 c 0.012,0.016 0.018,0.033 0.018,0.053 0,0.012 -0.003,0.023 -0.007,0.034 -0.005,0.01 -0.011,0.02 -0.019,0.027 C 1.109,-0.054 1.1,-0.047 1.09,-0.043 1.079,-0.038 1.068,-0.035 1.056,-0.035 L 1.117,0.026 C 1.125,0.034 1.132,0.043 1.136,0.054 1.14,0.065 1.143,0.076 1.143,0.087 1.143,0.099 1.14,0.111 1.136,0.122 1.131,0.132 1.125,0.142 1.117,0.15 1.109,0.158 1.1,0.164 1.089,0.168 1.079,0.173 1.067,0.175 1.055,0.175 1.044,0.175 1.033,0.173 1.022,0.169 1.011,0.164 1.002,0.158 0.994,0.15 L 0.932,0.089 C 0.932,0.101 0.93,0.112 0.925,0.123 0.92,0.133 0.914,0.143 0.906,0.15 0.898,0.158 0.889,0.164 0.878,0.169 0.868,0.173 0.856,0.175 0.844,0.175 0.833,0.175 0.823,0.173 0.813,0.169 0.803,0.166 0.794,0.16 0.786,0.153 0.78,0.17 0.769,0.184 0.754,0.195 0.739,0.205 0.723,0.21 0.704,0.21 0.686,0.21 0.669,0.205 0.654,0.195 0.639,0.184 0.629,0.17 0.622,0.153 0.614,0.16 0.605,0.166 0.595,0.169 0.585,0.173 0.574,0.175 0.563,0.175 0.551,0.175 0.54,0.173 0.53,0.169 0.519,0.164 0.51,0.158 0.502,0.15 0.494,0.143 0.487,0.133 0.483,0.123 0.478,0.112 0.476,0.101 0.476,0.089 L 0.415,0.15 C 0.406,0.158 0.397,0.164 0.386,0.169 0.375,0.173 0.364,0.175 0.353,0.175 0.341,0.175 0.329,0.173 0.319,0.168 0.308,0.164 0.299,0.158 0.291,0.15 0.283,0.142 0.277,0.132 0.272,0.122 0.267,0.111 0.265,0.1 0.265,0.087 0.265,0.076 0.267,0.065 0.272,0.054 0.276,0.043 0.282,0.034 0.291,0.026 L 0.352,-0.035 C 0.34,-0.035 0.329,-0.038 0.318,-0.043 0.308,-0.047 0.298,-0.054 0.291,-0.062 0.283,-0.069 0.277,-0.079 0.272,-0.089 0.267,-0.1 0.265,-0.111 0.265,-0.123 0.265,-0.132 0.267,-0.142 0.27,-0.151 0.273,-0.16 0.278,-0.168 0.284,-0.176 L 0.24,-0.175 c -0.005,0 -0.011,0 -0.016,-0.001 -0.005,0 -0.011,0 -0.016,0 C 0.196,-0.177 0.185,-0.18 0.176,-0.185 0.166,-0.189 0.157,-0.196 0.149,-0.204 0.142,-0.211 0.136,-0.22 0.132,-0.231 0.127,-0.241 0.125,-0.252 0.125,-0.263 Z"
         style="fill-rule:nonzero"
         id="path14128" /><path
         d="m 0.862,-0.193 c 0,0.005 -0.002,0.009 -0.005,0.012 -0.004,0.004 -0.008,0.005 -0.013,0.005 H 0.792 v 0.053 c 0,0.005 -0.002,0.009 -0.005,0.012 -0.004,0.004 -0.008,0.006 -0.013,0.006 -0.005,0 -0.009,-0.002 -0.012,-0.005 L 0.704,-0.168 0.646,-0.11 C 0.643,-0.107 0.639,-0.105 0.634,-0.105 0.629,-0.105 0.625,-0.107 0.622,-0.111 0.618,-0.114 0.616,-0.118 0.616,-0.123 V -0.176 H 0.563 c -0.004,0 -0.008,-0.001 -0.011,-0.005 -0.004,-0.003 -0.006,-0.007 -0.006,-0.012 0,-0.002 0.001,-0.004 0.002,-0.007 0,-0.002 0.002,-0.004 0.003,-0.006 L 0.616,-0.263 0.551,-0.321 C 0.548,-0.325 0.546,-0.329 0.546,-0.333 c 0,-0.005 0.002,-0.01 0.005,-0.013 0.004,-0.003 0.008,-0.005 0.012,-0.005 h 0.053 v -0.053 c 0,-0.004 0.002,-0.008 0.006,-0.012 0.003,-0.004 0.007,-0.005 0.012,-0.005 0.005,0 0.009,0.001 0.012,0.005 l 0.041,0.04 v -0.466 h 0.035 v 0.466 l 0.04,-0.04 c 0.003,-0.004 0.008,-0.005 0.012,-0.005 0.005,0 0.009,0.001 0.013,0.005 0.003,0.004 0.005,0.008 0.005,0.012 v 0.053 h 0.052 c 0.005,0 0.01,0.002 0.013,0.005 0.003,0.003 0.005,0.007 0.005,0.013 0,0.004 -0.002,0.008 -0.005,0.012 l -0.065,0.058 0.065,0.057 c 0.002,0.002 0.003,0.004 0.004,0.006 0,0.003 0.001,0.005 0.001,0.007 z M 0.528,-0.421 c -0.004,0 -0.008,-0.002 -0.012,-0.005 L 0.411,-0.532 C 0.407,-0.535 0.406,-0.539 0.406,-0.544 c 0,-0.005 10e-4,-0.009 0.005,-0.013 0.003,-0.003 0.007,-0.005 0.012,-0.005 0.005,0 0.009,0.002 0.013,0.005 l 0.105,0.106 c 0.003,0.003 0.005,0.007 0.005,0.013 0,0.004 -0.002,0.008 -0.005,0.012 -0.004,0.003 -0.008,0.005 -0.013,0.005 z m 0,0.316 c 0.005,0 0.009,0.002 0.013,0.005 0.003,0.004 0.005,0.008 0.005,0.012 0,0.005 -0.002,0.01 -0.005,0.013 L 0.436,0.03 C 0.432,0.033 0.428,0.035 0.423,0.035 0.418,0.035 0.414,0.033 0.411,0.03 0.407,0.027 0.405,0.022 0.405,0.018 0.405,0.013 0.407,0.008 0.411,0.005 L 0.516,-0.1 c 0.003,-0.003 0.007,-0.005 0.012,-0.005 z m 0.351,0 c 0.006,0 0.01,0.002 0.013,0.005 L 0.997,0.005 C 1,0.008 1.002,0.012 1.002,0.018 1.002,0.022 1,0.026 0.997,0.03 0.993,0.033 0.989,0.035 0.985,0.035 0.98,0.035 0.976,0.033 0.972,0.03 L 0.867,-0.075 C 0.864,-0.079 0.862,-0.083 0.862,-0.088 c 0,-0.004 0.002,-0.008 0.005,-0.012 0.004,-0.003 0.008,-0.005 0.012,-0.005 z m 0,-0.316 c -0.004,0 -0.008,-0.002 -0.012,-0.005 -0.003,-0.004 -0.005,-0.008 -0.005,-0.012 0,-0.005 0.002,-0.01 0.005,-0.013 l 0.106,-0.106 c 0.003,-0.003 0.007,-0.005 0.012,-0.005 0.004,0 0.008,0.002 0.012,0.006 0.003,0.003 0.005,0.007 0.005,0.012 0,0.005 -0.002,0.009 -0.005,0.012 l -0.105,0.106 c -0.003,0.003 -0.008,0.005 -0.013,0.005 z m -0.403,0.158 c 0,0.005 -0.002,0.009 -0.005,0.012 -0.003,0.004 -0.008,0.005 -0.013,0.005 H 0.318 C 0.313,-0.246 0.309,-0.247 0.305,-0.251 0.302,-0.254 0.3,-0.258 0.3,-0.263 c 0,-0.005 0.002,-0.009 0.005,-0.013 0.004,-0.003 0.008,-0.005 0.013,-0.005 h 0.14 c 0.005,0 0.01,0.002 0.013,0.005 0.003,0.004 0.005,0.008 0.005,0.013 z m 0.228,0.228 c 0.005,0 0.009,0.002 0.013,0.005 0.003,0.003 0.005,0.008 0.005,0.012 V 0.123 C 0.722,0.127 0.72,0.132 0.717,0.135 0.713,0.138 0.709,0.14 0.704,0.14 0.699,0.14 0.695,0.138 0.692,0.135 0.688,0.132 0.687,0.127 0.687,0.123 v -0.141 c 0,-0.004 10e-4,-0.009 0.005,-0.012 0.003,-0.003 0.007,-0.005 0.012,-0.005 z m 0.351,-0.246 c 0.005,0 0.009,0.002 0.013,0.005 0.003,0.004 0.005,0.008 0.005,0.013 0,0.005 -0.002,0.009 -0.005,0.012 -0.004,0.004 -0.008,0.005 -0.013,0.005 H 0.95 c -0.005,0 -0.009,-0.001 -0.013,-0.005 -0.003,-0.003 -0.005,-0.007 -0.005,-0.012 0,-0.005 0.002,-0.009 0.005,-0.013 0.004,-0.003 0.008,-0.005 0.013,-0.005 z m 0,0.14 c 0.005,0 0.009,0.002 0.013,0.006 0.003,0.003 0.005,0.007 0.005,0.012 0,0.005 -0.002,0.009 -0.005,0.012 -0.004,0.004 -0.008,0.006 -0.013,0.006 -0.005,0 -0.009,-0.002 -0.012,-0.006 -0.004,-0.003 -0.005,-0.007 -0.005,-0.012 0,-0.005 10e-4,-0.009 0.005,-0.012 0.003,-0.004 0.007,-0.006 0.012,-0.006 z m -0.842,-0.14 c 0.005,0 0.009,0.002 0.012,0.005 0.004,0.004 0.005,0.008 0.005,0.013 0,0.005 -0.001,0.009 -0.005,0.012 -0.003,0.004 -0.007,0.005 -0.012,0.005 -0.005,0 -0.009,-0.001 -0.013,-0.005 -0.003,-0.003 -0.005,-0.007 -0.005,-0.012 0,-0.005 0.002,-0.009 0.005,-0.013 0.004,-0.003 0.008,-0.005 0.013,-0.005 z m 0.947,0 c 0.005,0 0.009,0.002 0.013,0.005 0.003,0.004 0.005,0.008 0.005,0.013 0,0.005 -0.002,0.009 -0.005,0.012 -0.004,0.004 -0.008,0.005 -0.013,0.005 -0.005,0 -0.009,-0.001 -0.012,-0.005 -0.004,-0.003 -0.005,-0.007 -0.005,-0.012 0,-0.005 10e-4,-0.009 0.005,-0.013 0.003,-0.003 0.007,-0.005 0.012,-0.005 z m -0.105,-0.14 c 0.005,0 0.009,0.001 0.013,0.005 0.003,0.003 0.005,0.007 0.005,0.012 0,0.005 -0.002,0.009 -0.005,0.013 -0.004,0.003 -0.008,0.005 -0.013,0.005 -0.005,0 -0.009,-0.002 -0.012,-0.005 -0.004,-0.004 -0.005,-0.008 -0.005,-0.013 0,-0.005 10e-4,-0.009 0.005,-0.012 0.003,-0.004 0.007,-0.005 0.012,-0.005 z m -0.702,0.28 c 0.005,0 0.009,0.002 0.012,0.006 0.004,0.003 0.006,0.007 0.006,0.012 0,0.005 -0.002,0.009 -0.006,0.012 -0.003,0.004 -0.007,0.006 -0.012,0.006 -0.005,0 -0.009,-0.002 -0.012,-0.006 -0.004,-0.003 -0.006,-0.007 -0.006,-0.012 0,-0.005 0.002,-0.009 0.006,-0.012 0.003,-0.004 0.007,-0.006 0.012,-0.006 z m 0,-0.456 c -0.005,0 -0.009,-0.001 -0.012,-0.005 -0.004,-0.003 -0.006,-0.007 -0.006,-0.012 0,-0.005 0.002,-0.009 0.006,-0.013 0.003,-0.003 0.007,-0.005 0.012,-0.005 0.005,0 0.009,0.002 0.012,0.005 0.004,0.004 0.006,0.008 0.006,0.013 0,0.005 -0.002,0.009 -0.006,0.012 -0.003,0.004 -0.007,0.005 -0.012,0.005 z m 0.702,-0.035 c 0.005,0 0.009,0.002 0.013,0.005 0.003,0.004 0.005,0.008 0.005,0.013 0,0.005 -0.002,0.009 -0.005,0.012 -0.004,0.004 -0.008,0.005 -0.013,0.005 -0.005,0 -0.009,-0.001 -0.012,-0.005 -0.004,-0.003 -0.005,-0.007 -0.005,-0.012 0,-0.005 10e-4,-0.009 0.005,-0.013 0.003,-0.003 0.007,-0.005 0.012,-0.005 z m -0.702,0.246 c -0.005,0 -0.009,-0.002 -0.012,-0.005 -0.004,-0.004 -0.006,-0.008 -0.006,-0.013 0,-0.005 0.002,-0.009 0.006,-0.012 0.003,-0.004 0.007,-0.005 0.012,-0.005 0.005,0 0.009,0.001 0.012,0.005 0.004,0.003 0.006,0.007 0.006,0.012 0,0.005 -0.002,0.009 -0.006,0.013 -0.003,0.003 -0.007,0.005 -0.012,0.005 z M 0.844,-0.562 C 0.84,-0.562 0.836,-0.563 0.832,-0.567 0.828,-0.57 0.827,-0.575 0.827,-0.579 c 0,-0.005 0.001,-0.009 0.005,-0.012 0.004,-0.004 0.008,-0.006 0.012,-0.006 0.005,0 0.009,0.002 0.013,0.005 0.003,0.004 0.005,0.008 0.005,0.013 0,0.005 -0.002,0.009 -0.005,0.012 -0.004,0.004 -0.008,0.005 -0.013,0.005 z m 0,0.632 c 0.005,0 0.009,0.002 0.012,0.005 C 0.86,0.079 0.862,0.083 0.862,0.087 0.862,0.092 0.86,0.096 0.857,0.1 0.853,0.103 0.849,0.105 0.844,0.105 0.839,0.105 0.835,0.103 0.832,0.1 0.828,0.096 0.827,0.092 0.827,0.087 0.827,0.083 0.828,0.079 0.832,0.075 0.836,0.072 0.84,0.07 0.844,0.07 Z M 0.563,-0.562 c -0.004,0 -0.008,-10e-4 -0.012,-0.005 -0.003,-0.003 -0.005,-0.008 -0.005,-0.012 0,-0.005 0.002,-0.009 0.005,-0.012 0.004,-0.004 0.008,-0.006 0.012,-0.006 0.005,0 0.01,0.002 0.013,0.005 0.003,0.004 0.005,0.008 0.005,0.013 0,0.005 -0.002,0.009 -0.005,0.012 -0.003,0.004 -0.008,0.005 -0.013,0.005 z m 0,0.632 c 0.005,0 0.009,0.002 0.013,0.005 C 0.579,0.079 0.581,0.083 0.581,0.087 0.581,0.092 0.579,0.096 0.576,0.1 0.573,0.103 0.568,0.105 0.563,0.105 0.559,0.105 0.555,0.103 0.551,0.1 0.548,0.096 0.546,0.092 0.546,0.087 0.546,0.083 0.548,0.079 0.551,0.075 0.555,0.072 0.559,0.07 0.563,0.07 Z m 0.492,0 C 1.06,0.07 1.064,0.072 1.067,0.075 1.071,0.079 1.073,0.083 1.073,0.087 1.073,0.092 1.071,0.096 1.068,0.1 1.064,0.103 1.06,0.105 1.055,0.105 1.05,0.105 1.046,0.103 1.043,0.1 1.039,0.096 1.038,0.092 1.038,0.087 1.038,0.083 1.039,0.079 1.043,0.075 1.047,0.072 1.051,0.07 1.055,0.07 Z m -0.702,0 c 0.005,0 0.009,0.002 0.012,0.005 C 0.369,0.079 0.371,0.083 0.371,0.087 0.371,0.092 0.369,0.096 0.365,0.1 0.362,0.103 0.358,0.105 0.353,0.105 0.348,0.105 0.344,0.103 0.341,0.1 0.337,0.096 0.335,0.092 0.335,0.087 0.335,0.083 0.337,0.079 0.341,0.075 0.344,0.072 0.348,0.07 0.353,0.07 Z"
         style="fill:#fff100;fill-rule:nonzero"
         id="path14130" /><path
         d="m 0.651,-0.263 c 0,-0.007 0.002,-0.014 0.005,-0.021 0.002,-0.006 0.006,-0.012 0.011,-0.017 0.004,-0.004 0.01,-0.008 0.016,-0.011 0.007,-0.003 0.014,-0.004 0.021,-0.004 0.007,0 0.014,0.001 0.02,0.004 0.007,0.003 0.012,0.007 0.017,0.012 0.005,0.005 0.009,0.01 0.012,0.017 0.002,0.006 0.004,0.013 0.004,0.02 0,0.007 -0.002,0.014 -0.004,0.02 C 0.75,-0.237 0.746,-0.231 0.741,-0.226 0.736,-0.221 0.731,-0.217 0.724,-0.215 0.718,-0.212 0.711,-0.21 0.704,-0.21 0.697,-0.21 0.69,-0.212 0.684,-0.215 0.677,-0.217 0.672,-0.221 0.667,-0.226 0.662,-0.231 0.658,-0.237 0.656,-0.243 0.653,-0.249 0.651,-0.256 0.651,-0.263 Z"
         style="fill:#ffffff;fill-rule:nonzero"
         id="path14132" /></g></g></svg>
