<?xml version="1.0" encoding="UTF-8" standalone="no"?>
<svg
   width="12.63"
   height="16.844999"
   viewBox="0 0 12.63 16.844999"
   version="1.1"
   xml:space="preserve"
   style="clip-rule:evenodd;fill-rule:evenodd;stroke-linejoin:round;stroke-miterlimit:2"
   id="svg20568"
   sodipodi:docname="emojis.svg"
   xmlns:inkscape="http://www.inkscape.org/namespaces/inkscape"
   xmlns:sodipodi="http://sodipodi.sourceforge.net/DTD/sodipodi-0.dtd"
   xmlns="http://www.w3.org/2000/svg"
   xmlns:svg="http://www.w3.org/2000/svg"><defs
     id="defs20572" /><sodipodi:namedview
     id="namedview20570"
     pagecolor="#505050"
     bordercolor="#eeeeee"
     borderopacity="1"
     inkscape:pageshadow="0"
     inkscape:pageopacity="0"
     inkscape:pagecheckerboard="0" /><g
     transform="matrix(0.24,0,0,0.24,-33.8094,-749.3994)"
     id="g20566"><g
       transform="matrix(62.5,0,0,62.5,133.06,3179.56)"
       id="g14232"><path
         d="M 0.967,-0.562 V 0 c 0,0.02 -0.004,0.038 -0.012,0.057 0.008,0.015 0.012,0.031 0.012,0.048 0,0.015 -0.002,0.028 -0.008,0.041 C 0.953,0.159 0.946,0.17 0.936,0.179 0.927,0.189 0.916,0.197 0.903,0.202 0.89,0.208 0.876,0.21 0.862,0.21 H 0.838 C 0.827,0.21 0.816,0.21 0.806,0.208 0.796,0.207 0.785,0.203 0.774,0.196 0.758,0.206 0.741,0.21 0.722,0.21 H 0.687 C 0.664,0.21 0.644,0.204 0.626,0.191 0.608,0.178 0.595,0.161 0.587,0.14 H 0.54 C 0.536,0.151 0.531,0.16 0.524,0.169 0.518,0.177 0.51,0.185 0.502,0.191 0.493,0.197 0.484,0.202 0.473,0.205 0.463,0.209 0.452,0.21 0.441,0.21 H 0.417 C 0.406,0.21 0.395,0.21 0.385,0.208 0.374,0.207 0.364,0.203 0.353,0.196 0.337,0.206 0.319,0.21 0.3,0.21 H 0.265 C 0.251,0.21 0.237,0.208 0.224,0.202 0.212,0.197 0.2,0.189 0.191,0.179 0.181,0.17 0.174,0.159 0.168,0.146 0.163,0.133 0.16,0.119 0.16,0.105 V 0.099 c 0,-0.002 0,-0.004 0.001,-0.006 C 0.149,0.081 0.14,0.066 0.134,0.05 0.128,0.034 0.125,0.017 0.125,0 v -0.562 c 0,-0.028 0.006,-0.056 0.017,-0.081 0.011,-0.026 0.026,-0.048 0.045,-0.067 0.019,-0.019 0.041,-0.034 0.067,-0.045 0.025,-0.011 0.052,-0.017 0.081,-0.017 v -0.141 h 0.422 v 0.141 c 0.029,0 0.056,0.006 0.082,0.017 0.025,0.011 0.047,0.026 0.067,0.045 0.019,0.019 0.034,0.041 0.045,0.067 0.011,0.025 0.016,0.053 0.016,0.081 z"
         style="fill-rule:nonzero"
         id="path14212" /><path
         d="m 0.3,0.07 c 0.01,0 0.018,0.004 0.025,0.011 0.007,0.006 0.01,0.015 0.01,0.024 0,0.01 -0.003,0.018 -0.01,0.025 C 0.318,0.137 0.31,0.14 0.3,0.14 H 0.265 V 0.07 Z m 0.141,0 c 0.009,0 0.018,0.004 0.025,0.011 0.007,0.006 0.01,0.015 0.01,0.024 0,0.01 -0.003,0.018 -0.01,0.025 C 0.459,0.137 0.451,0.14 0.441,0.14 H 0.406 V 0.07 Z m 0.281,0 c 0.009,0 0.017,0.004 0.024,0.011 0.007,0.006 0.011,0.015 0.011,0.024 0,0.01 -0.004,0.018 -0.01,0.025 C 0.74,0.137 0.731,0.14 0.722,0.14 H 0.687 V 0.07 Z m 0.14,0 c 0.009,0 0.017,0.004 0.024,0.011 0.007,0.006 0.011,0.015 0.011,0.024 0,0.01 -0.003,0.018 -0.01,0.025 C 0.88,0.137 0.872,0.14 0.862,0.14 H 0.827 V 0.07 Z"
         style="fill:#383838;fill-rule:nonzero"
         id="path14214" /><path
         d="m 0.687,0.07 v -0.772 h 0.07 c 0.019,0 0.037,0.004 0.054,0.011 0.017,0.008 0.032,0.018 0.045,0.03 0.013,0.013 0.023,0.028 0.03,0.045 0.007,0.017 0.011,0.035 0.011,0.054 V 0 C 0.897,0.01 0.895,0.019 0.891,0.027 0.888,0.036 0.883,0.043 0.876,0.05 0.87,0.056 0.862,0.061 0.854,0.065 0.846,0.068 0.836,0.07 0.827,0.07 Z"
         style="fill:#4a5459;fill-rule:nonzero"
         id="path14216" /><path
         d="m 0.441,0.105 c 0,0.01 -0.004,0.018 -0.01,0.025 C 0.424,0.137 0.416,0.14 0.406,0.14 0.396,0.14 0.388,0.137 0.381,0.13 0.374,0.123 0.371,0.115 0.371,0.105 0.371,0.096 0.374,0.087 0.381,0.081 0.388,0.074 0.396,0.07 0.406,0.07 c 0.009,0 0.017,0.004 0.024,0.011 0.007,0.006 0.011,0.015 0.011,0.024 z m 0.281,0 C 0.722,0.115 0.718,0.123 0.711,0.13 0.705,0.137 0.696,0.14 0.687,0.14 0.677,0.14 0.668,0.137 0.662,0.13 0.655,0.123 0.651,0.115 0.651,0.105 0.651,0.096 0.655,0.087 0.662,0.081 0.669,0.074 0.677,0.07 0.687,0.07 c 0.009,0 0.017,0.004 0.024,0.011 0.007,0.006 0.011,0.015 0.011,0.024 z m -0.422,0 C 0.3,0.115 0.297,0.123 0.29,0.13 0.283,0.137 0.275,0.14 0.265,0.14 0.256,0.14 0.248,0.137 0.241,0.13 0.234,0.123 0.23,0.114 0.23,0.105 0.23,0.096 0.234,0.087 0.241,0.081 0.248,0.074 0.256,0.07 0.265,0.07 0.275,0.07 0.283,0.074 0.29,0.081 0.297,0.087 0.3,0.096 0.3,0.105 Z m 0.562,0 c 0,0.01 -0.004,0.018 -0.01,0.025 C 0.845,0.137 0.836,0.14 0.827,0.14 0.817,0.14 0.809,0.137 0.802,0.13 0.795,0.123 0.792,0.114 0.792,0.105 0.792,0.096 0.795,0.087 0.802,0.081 0.809,0.074 0.817,0.07 0.827,0.07 c 0.009,0 0.017,0.004 0.024,0.011 0.007,0.006 0.011,0.015 0.011,0.024 z M 0.651,-0.772 0.634,-0.753 0.616,-0.772 v -0.053 h 0.035 z m -0.175,0 -0.018,0.019 -0.017,-0.019 v -0.053 h 0.035 z"
         style="fill:#757575;fill-rule:nonzero"
         id="path14218" /><path
         d="m 0.476,-0.702 h 0.14 c 0.02,0 0.038,0.004 0.055,0.011 0.017,0.007 0.032,0.017 0.045,0.03 0.013,0.013 0.023,0.027 0.03,0.045 0.007,0.017 0.011,0.035 0.011,0.054 V 0 C 0.757,0.01 0.755,0.019 0.751,0.027 0.747,0.036 0.742,0.043 0.736,0.05 0.73,0.056 0.722,0.061 0.714,0.065 0.705,0.068 0.696,0.07 0.687,0.07 H 0.265 C 0.255,0.07 0.246,0.068 0.238,0.065 0.229,0.061 0.222,0.056 0.216,0.05 0.209,0.043 0.204,0.036 0.201,0.027 0.197,0.019 0.195,0.01 0.195,0 v -0.562 c 0,-0.019 0.004,-0.037 0.011,-0.054 0.008,-0.018 0.018,-0.032 0.03,-0.045 0.013,-0.013 0.028,-0.023 0.045,-0.03 0.017,-0.007 0.035,-0.011 0.054,-0.011 H 0.441 L 0.458,-0.724 Z M 0.687,-0.807 H 0.406 v -0.035 h 0.281 z"
         style="fill:#859599;fill-rule:nonzero"
         id="path14220" /><path
         d="m 0.265,-0.281 0.142,-0.014 c 0.007,-0.001 0.013,-0.002 0.019,-0.003 0.005,0 0.011,-0.001 0.016,-0.002 0.006,-0.001 0.011,-0.002 0.017,-0.002 0.005,0 0.012,-0.001 0.019,-0.001 0.006,0 0.013,0.001 0.018,0.001 0.006,0 0.011,0.001 0.016,0.002 0.006,0.001 0.011,0.002 0.017,0.002 0.005,0.001 0.012,0.002 0.018,0.003 l 0.14,0.014 V 0 H 0.265 Z m 0.412,-0.316 c 0.006,0.012 0.01,0.023 0.01,0.035 v 0.211 H 0.265 v -0.211 c 0,-0.006 0.001,-0.012 0.003,-0.018 0.002,-0.005 0.004,-0.011 0.007,-0.017 L 0.414,-0.613 0.449,-0.618 C 0.454,-0.619 0.46,-0.62 0.465,-0.62 c 0.006,-0.001 0.012,-0.001 0.019,-0.001 0.006,0 0.012,0 0.017,0.001 0.005,0 0.01,0.001 0.015,0.002 l 0.032,0.005 z"
         style="fill:#a0aeb2;fill-rule:nonzero"
         id="path14222" /><path
         d="M 0.371,-0.526 H 0.335 v -0.071 l 0.018,-0.017 0.018,0.017 z m 0,0.316 H 0.335 v -0.071 l 0.018,-0.017 0.018,0.017 z"
         style="fill:#69797e;fill-rule:nonzero"
         id="path14224" /><path
         d="m 0.687,-0.316 v 0.035 H 0.265 V -0.316 Z M 0.677,-0.597 H 0.275 c 0.006,-0.01 0.015,-0.019 0.026,-0.025 0.011,-0.007 0.022,-0.01 0.034,-0.01 h 0.281 c 0.013,0 0.025,0.003 0.035,0.01 0.011,0.006 0.02,0.015 0.026,0.025 z"
         style="fill:#bac8cc;fill-rule:nonzero"
         id="path14226" /><path
         d="M 0.739,-0.509 0.634,-0.614 v -0.071 h 0.07 l 0.106,0.106 z"
         style="fill:#ffffff;fill-rule:nonzero"
         id="path14228" /><path
         d="m 0.441,-0.702 v -0.07 h 0.035 v 0.07 z m 0.27,0 0.123,0.123 -0.095,0.095 -0.123,-0.123 v -0.165 h 0.035 v 0.07 z m -0.06,0.08 0.088,0.088 0.046,-0.045 -0.088,-0.088 H 0.651 Z"
         style="fill:#cccccc;fill-rule:nonzero"
         id="path14230" /></g></g></svg>
