<?xml version="1.0" encoding="UTF-8" standalone="no"?>
<svg
   width="11.58"
   height="16.305"
   viewBox="0 0 11.58 16.305"
   version="1.1"
   xml:space="preserve"
   style="clip-rule:evenodd;fill-rule:evenodd;stroke-linejoin:round;stroke-miterlimit:2"
   id="svg20568"
   sodipodi:docname="emojis.svg"
   xmlns:inkscape="http://www.inkscape.org/namespaces/inkscape"
   xmlns:sodipodi="http://sodipodi.sourceforge.net/DTD/sodipodi-0.dtd"
   xmlns="http://www.w3.org/2000/svg"
   xmlns:svg="http://www.w3.org/2000/svg"><defs
     id="defs20572" /><sodipodi:namedview
     id="namedview20570"
     pagecolor="#505050"
     bordercolor="#eeeeee"
     borderopacity="1"
     inkscape:pageshadow="0"
     inkscape:pageopacity="0"
     inkscape:pagecheckerboard="0" /><g
     transform="matrix(0.24,0,0,0.24,-65.53044,-749.9394)"
     id="g20566"><g
       transform="matrix(62.5,0,0,62.5,265.231,3179.56)"
       id="g14260"><path
         d="M 0.23,0.21 C 0.216,0.21 0.202,0.208 0.189,0.202 0.177,0.197 0.166,0.189 0.156,0.179 0.146,0.17 0.139,0.159 0.133,0.146 0.128,0.133 0.125,0.12 0.125,0.105 0.125,0.09 0.128,0.076 0.134,0.062 0.14,0.048 0.149,0.037 0.16,0.027 0.161,-0.025 0.171,-0.073 0.19,-0.118 0.208,-0.162 0.235,-0.204 0.268,-0.244 0.274,-0.25 0.279,-0.256 0.285,-0.262 0.291,-0.268 0.297,-0.274 0.303,-0.28 0.306,-0.282 0.31,-0.285 0.313,-0.288 0.317,-0.291 0.32,-0.294 0.322,-0.297 0.327,-0.302 0.33,-0.308 0.332,-0.314 0.334,-0.32 0.335,-0.327 0.335,-0.333 0.335,-0.34 0.334,-0.347 0.332,-0.353 0.33,-0.359 0.327,-0.365 0.322,-0.37 0.32,-0.373 0.317,-0.376 0.313,-0.379 0.31,-0.382 0.306,-0.385 0.303,-0.387 0.297,-0.393 0.291,-0.399 0.285,-0.405 0.279,-0.411 0.274,-0.417 0.268,-0.423 0.235,-0.463 0.208,-0.505 0.19,-0.549 0.171,-0.594 0.161,-0.642 0.16,-0.694 0.149,-0.704 0.14,-0.715 0.134,-0.729 0.128,-0.743 0.125,-0.757 0.125,-0.772 c 0,-0.015 0.003,-0.028 0.008,-0.041 0.006,-0.013 0.013,-0.024 0.023,-0.033 0.01,-0.01 0.021,-0.018 0.033,-0.023 0.013,-0.006 0.027,-0.008 0.041,-0.008 h 0.562 c 0.014,0 0.028,0.002 0.041,0.008 0.012,0.006 0.023,0.013 0.033,0.023 0.01,0.01 0.017,0.021 0.023,0.034 0.005,0.013 0.008,0.026 0.008,0.04 0,0.015 -0.003,0.029 -0.009,0.043 -0.006,0.014 -0.015,0.025 -0.026,0.035 -0.001,0.052 -0.011,0.1 -0.03,0.145 -0.018,0.044 -0.045,0.086 -0.078,0.126 -0.006,0.006 -0.011,0.012 -0.017,0.018 -0.006,0.006 -0.012,0.012 -0.018,0.018 -0.004,0.002 -0.007,0.005 -0.01,0.008 -0.003,0.003 -0.006,0.006 -0.009,0.009 -0.005,0.005 -0.008,0.011 -0.01,0.017 -0.002,0.006 -0.003,0.013 -0.003,0.02 0,0.006 10e-4,0.013 0.003,0.019 0.002,0.006 0.005,0.012 0.01,0.017 0.003,0.003 0.006,0.006 0.009,0.009 0.003,0.003 0.006,0.006 0.01,0.008 0.006,0.006 0.012,0.012 0.018,0.018 0.006,0.006 0.011,0.012 0.017,0.018 0.033,0.04 0.06,0.082 0.078,0.126 0.019,0.045 0.029,0.093 0.03,0.145 0.011,0.01 0.02,0.021 0.026,0.035 0.006,0.014 0.009,0.028 0.009,0.043 0,0.014 -0.003,0.028 -0.008,0.041 C 0.883,0.158 0.876,0.169 0.866,0.179 0.856,0.189 0.845,0.196 0.833,0.202 0.82,0.208 0.806,0.21 0.792,0.21 Z"
         style="fill-rule:nonzero"
         id="path14248" /><path
         d="m 0.23,0.035 c 0,-0.021 0.003,-0.043 0.007,-0.064 0.004,-0.022 0.01,-0.043 0.018,-0.063 0.009,-0.02 0.018,-0.04 0.03,-0.058 0.012,-0.019 0.025,-0.036 0.04,-0.052 0.007,-0.007 0.015,-0.015 0.023,-0.022 0.007,-0.007 0.015,-0.014 0.023,-0.022 0.011,-0.012 0.02,-0.025 0.026,-0.04 0.006,-0.015 0.009,-0.031 0.009,-0.047 0,-0.017 -0.003,-0.033 -0.009,-0.048 C 0.391,-0.396 0.382,-0.409 0.371,-0.421 0.363,-0.429 0.355,-0.436 0.348,-0.443 0.34,-0.45 0.332,-0.458 0.325,-0.465 0.31,-0.481 0.297,-0.498 0.285,-0.517 0.273,-0.535 0.264,-0.555 0.255,-0.575 0.247,-0.595 0.241,-0.616 0.237,-0.638 0.233,-0.659 0.23,-0.681 0.23,-0.702 c 0.016,-0.012 0.036,-0.022 0.06,-0.03 0.023,-0.009 0.048,-0.015 0.074,-0.02 0.026,-0.005 0.052,-0.009 0.077,-0.011 0.026,-0.002 0.049,-0.003 0.068,-0.003 0.014,0 0.028,0 0.045,0.001 0.016,0.001 0.033,0.003 0.05,0.005 0.017,0.002 0.035,0.005 0.052,0.008 0.018,0.003 0.035,0.007 0.052,0.012 0.016,0.005 0.032,0.01 0.046,0.017 0.014,0.006 0.027,0.013 0.038,0.021 0,0.021 -0.002,0.042 -0.007,0.064 -0.004,0.021 -0.01,0.042 -0.018,0.063 -0.009,0.02 -0.018,0.04 -0.03,0.058 -0.012,0.019 -0.025,0.036 -0.04,0.052 -0.007,0.007 -0.015,0.015 -0.023,0.022 -0.007,0.007 -0.015,0.014 -0.023,0.022 -0.011,0.012 -0.02,0.025 -0.026,0.04 -0.006,0.015 -0.009,0.031 -0.009,0.048 0,0.016 0.003,0.032 0.009,0.047 0.006,0.015 0.015,0.028 0.026,0.04 0.008,0.008 0.016,0.015 0.023,0.022 0.008,0.007 0.016,0.015 0.023,0.022 0.015,0.016 0.028,0.033 0.04,0.052 0.012,0.018 0.021,0.038 0.03,0.058 0.008,0.021 0.014,0.042 0.018,0.063 C 0.79,-0.007 0.792,0.014 0.792,0.035 0.782,0.045 0.77,0.053 0.756,0.061 0.742,0.068 0.727,0.074 0.71,0.079 0.694,0.084 0.677,0.089 0.659,0.092 0.641,0.095 0.624,0.098 0.606,0.1 0.589,0.102 0.572,0.103 0.555,0.104 0.539,0.105 0.524,0.105 0.511,0.105 0.491,0.105 0.468,0.104 0.442,0.103 0.415,0.101 0.389,0.097 0.363,0.092 0.336,0.087 0.311,0.08 0.288,0.071 0.264,0.062 0.245,0.05 0.23,0.035 Z"
         style="fill:#f2f2f2;fill-rule:nonzero"
         id="path14250" /><path
         d="m 0.792,-0.771 v 0.069 H 0.754 c -0.015,0.011 -0.033,0.02 -0.053,0.027 -0.02,0.008 -0.041,0.014 -0.063,0.018 -0.022,0.005 -0.044,0.008 -0.065,0.01 -0.022,0.002 -0.042,0.003 -0.061,0.003 -0.018,0 -0.039,-0.001 -0.061,-0.003 C 0.429,-0.649 0.407,-0.652 0.385,-0.657 0.364,-0.662 0.342,-0.668 0.322,-0.675 0.301,-0.683 0.283,-0.692 0.268,-0.702 H 0.23 V -0.771 Z M 0.23,0.104 V 0.035 H 0.267 C 0.274,0.032 0.284,0.03 0.296,0.028 0.308,0.025 0.322,0.024 0.337,0.022 0.352,0.021 0.368,0.02 0.385,0.019 0.402,0.018 0.418,0.018 0.434,0.017 c 0.016,0 0.03,0 0.044,0 0.013,0 0.024,0 0.033,0 0.008,0 0.019,0 0.033,0 0.013,0 0.028,0 0.044,10e-4 0.015,0 0.032,0 0.048,0.001 0.017,0.001 0.033,0.002 0.048,0.003 0.015,0.002 0.029,0.003 0.041,0.006 0.013,0.002 0.022,0.004 0.029,0.007 h 0.038 v 0.069 z"
         style="fill:#af0d1a;fill-rule:nonzero"
         id="path14252" /><path
         d="m 0.792,-0.807 c 0.009,0 0.018,0.003 0.024,0.01 0.007,0.007 0.011,0.016 0.011,0.025 0,0.009 -0.004,0.018 -0.011,0.024 -0.006,0.007 -0.015,0.011 -0.024,0.011 H 0.23 c -0.009,0 -0.017,-0.004 -0.024,-0.011 -0.007,-0.006 -0.011,-0.015 -0.011,-0.024 0,-0.01 0.004,-0.018 0.011,-0.025 0.006,-0.007 0.015,-0.01 0.024,-0.01 z M 0.23,0.14 C 0.221,0.14 0.212,0.137 0.206,0.13 0.199,0.123 0.195,0.115 0.195,0.105 0.195,0.096 0.199,0.087 0.206,0.081 0.213,0.074 0.221,0.07 0.23,0.07 h 0.562 c 0.009,0 0.018,0.004 0.024,0.011 0.007,0.006 0.011,0.015 0.011,0.024 0,0.009 -0.004,0.018 -0.011,0.025 C 0.81,0.137 0.801,0.14 0.792,0.14 Z"
         style="fill:#f03a17;fill-rule:nonzero"
         id="path14254" /><path
         d="m 0.265,-0.702 h 0.492 c 0,0.026 -0.003,0.05 -0.009,0.072 -0.006,0.023 -0.014,0.044 -0.025,0.064 -0.011,0.02 -0.024,0.039 -0.039,0.057 -0.015,0.019 -0.032,0.036 -0.05,0.052 -0.014,0.013 -0.026,0.025 -0.036,0.038 -0.011,0.013 -0.02,0.026 -0.028,0.041 -0.008,0.014 -0.014,0.029 -0.018,0.045 -0.004,0.016 -0.006,0.034 -0.006,0.052 v 0.246 c 0,0.01 0.003,0.018 0.01,0.025 C 0.563,-0.003 0.572,0 0.581,0 0.578,0.004 0.573,0.007 0.568,0.01 0.562,0.012 0.556,0.014 0.55,0.016 0.543,0.017 0.537,0.018 0.53,0.018 0.524,0.019 0.518,0.019 0.513,0.019 0.508,0.019 0.502,0.019 0.495,0.018 0.488,0.018 0.482,0.017 0.475,0.016 0.468,0.014 0.462,0.012 0.456,0.01 0.45,0.007 0.445,0.004 0.441,0 c 0.01,0 0.018,-0.003 0.025,-0.01 0.007,-0.007 0.01,-0.015 0.01,-0.025 V -0.281 C 0.476,-0.299 0.474,-0.317 0.47,-0.333 0.465,-0.349 0.46,-0.364 0.452,-0.378 0.444,-0.393 0.435,-0.406 0.424,-0.419 0.414,-0.432 0.402,-0.444 0.388,-0.457 0.37,-0.473 0.353,-0.49 0.338,-0.509 0.323,-0.527 0.31,-0.546 0.299,-0.566 0.288,-0.586 0.28,-0.607 0.274,-0.63 0.268,-0.652 0.265,-0.676 0.265,-0.702 Z"
         style="fill:#ffc83d;fill-rule:nonzero"
         id="path14256" /><path
         d="M 0.265,0.035 C 0.265,0.026 0.269,0.017 0.276,0.01 0.283,0.003 0.291,0 0.3,0 h 0.422 c 0.009,0 0.018,0.003 0.025,0.01 0.006,0.007 0.01,0.015 0.01,0.025 z m 0.422,-0.614 c 0,0.005 -0.002,0.009 -0.006,0.012 -0.003,0.004 -0.007,0.005 -0.012,0.005 -0.005,0 -0.009,-10e-4 -0.013,-0.005 -0.003,-0.003 -0.005,-0.007 -0.005,-0.012 0,-0.005 0.002,-0.009 0.005,-0.013 0.004,-0.003 0.008,-0.005 0.013,-0.005 0.005,0 0.009,0.002 0.012,0.005 0.004,0.004 0.006,0.008 0.006,0.013 z m -0.106,0 c 0,0.005 -0.002,0.009 -0.005,0.012 -0.003,0.004 -0.008,0.005 -0.013,0.005 -0.004,0 -0.008,-10e-4 -0.012,-0.005 -0.003,-0.003 -0.005,-0.008 -0.005,-0.012 0,-0.005 0.002,-0.009 0.005,-0.012 0.004,-0.004 0.008,-0.006 0.012,-0.006 0.005,0 0.01,0.002 0.013,0.005 0.003,0.004 0.005,0.008 0.005,0.013 z m 0,0.105 c 0,0.005 -0.002,0.009 -0.005,0.012 -0.003,0.004 -0.008,0.005 -0.013,0.005 -0.004,0 -0.008,-0.001 -0.012,-0.005 -0.003,-0.003 -0.005,-0.008 -0.005,-0.012 0,-0.005 0.002,-0.009 0.005,-0.012 0.004,-0.004 0.008,-0.005 0.012,-0.005 0.005,0 0.009,0.001 0.013,0.005 0.003,0.003 0.005,0.007 0.005,0.012 z"
         style="fill:#ffd679;fill-rule:nonzero"
         id="path14258" /></g></g></svg>
