<?xml version="1.0" encoding="UTF-8" standalone="no"?>
<svg
   width="16.844999"
   height="14.205"
   viewBox="0 0 16.844999 14.205"
   version="1.1"
   xml:space="preserve"
   style="clip-rule:evenodd;fill-rule:evenodd;stroke-linejoin:round;stroke-miterlimit:2"
   id="svg20568"
   sodipodi:docname="emojis.svg"
   xmlns:inkscape="http://www.inkscape.org/namespaces/inkscape"
   xmlns:sodipodi="http://sodipodi.sourceforge.net/DTD/sodipodi-0.dtd"
   xmlns="http://www.w3.org/2000/svg"
   xmlns:svg="http://www.w3.org/2000/svg"><defs
     id="defs20572" /><sodipodi:namedview
     id="namedview20570"
     pagecolor="#505050"
     bordercolor="#eeeeee"
     borderopacity="1"
     inkscape:pageshadow="0"
     inkscape:pageopacity="0"
     inkscape:pagecheckerboard="0" /><g
     transform="matrix(0.24,0,0,0.24,-13.213584,-752.0394)"
     id="g20566"><g
       transform="matrix(62.5,0,0,62.5,47.2441,3179.56)"
       id="g14210"><path
         d="M 0.125,0.21 V 0.105 C 0.125,0.085 0.13,0.067 0.14,0.051 0.15,0.035 0.163,0.022 0.181,0.012 L 0.195,-0.017 V -0.21 H 0.23 c 0,-0.03 0.004,-0.059 0.011,-0.086 C 0.248,-0.324 0.258,-0.35 0.271,-0.375 0.285,-0.4 0.3,-0.423 0.319,-0.444 0.337,-0.465 0.358,-0.483 0.381,-0.499 0.404,-0.515 0.429,-0.528 0.456,-0.538 0.483,-0.549 0.511,-0.556 0.54,-0.559 0.531,-0.569 0.523,-0.58 0.519,-0.593 0.514,-0.605 0.511,-0.618 0.511,-0.632 c 0,-0.014 0.003,-0.028 0.009,-0.041 0.005,-0.013 0.013,-0.024 0.022,-0.033 0.009,-0.01 0.02,-0.017 0.033,-0.023 0.013,-0.006 0.027,-0.008 0.041,-0.008 h 0.141 c 0.014,0 0.028,0.002 0.041,0.008 0.013,0.006 0.024,0.013 0.033,0.023 0.009,0.009 0.017,0.02 0.023,0.033 0.005,0.013 0.008,0.027 0.008,0.041 0,0.014 -0.003,0.027 -0.008,0.039 -0.004,0.013 -0.012,0.024 -0.021,0.034 0.029,0.003 0.057,0.01 0.084,0.021 0.027,0.01 0.052,0.023 0.075,0.039 0.023,0.016 0.044,0.034 0.062,0.055 0.019,0.021 0.035,0.044 0.048,0.069 0.013,0.025 0.023,0.051 0.03,0.079 0.007,0.027 0.011,0.056 0.011,0.086 h 0.035 v 0.193 l 0.014,0.029 c 0.018,0.01 0.031,0.023 0.041,0.039 0.01,0.016 0.015,0.034 0.015,0.054 V 0.21 Z"
         style="fill-rule:nonzero"
         id="path14192" /><path
         d="M 0.757,0.018 H 0.616 v -0.053 l 0.071,-0.025 0.07,0.025 z"
         style="fill:#757575;fill-rule:nonzero"
         id="path14194" /><rect
         x="0.616"
         y="-0.088"
         width="0.141"
         height="0.052999999"
         style="fill:#383838;fill-rule:nonzero"
         id="rect14196" /><path
         d="m 0.651,-0.597 0.036,-0.02 0.035,0.02 v 0.035 L 0.686,-0.545 0.651,-0.562 Z"
         style="fill:#d48c00;fill-rule:nonzero"
         id="path14198" /><path
         d="m 1.143,0.07 c 0.009,0 0.017,0.004 0.024,0.011 0.007,0.006 0.011,0.015 0.011,0.024 V 0.14 H 0.476 L 0.455,0.133 0.415,0.119 0.39,0.11 0.365,0.119 0.323,0.133 0.3,0.14 H 0.195 V 0.105 C 0.195,0.096 0.199,0.087 0.206,0.081 0.213,0.074 0.221,0.07 0.23,0.07 L 0.256,0.02 C 0.259,0.013 0.263,0.009 0.269,0.005 0.274,0.002 0.28,0 0.287,0 H 0.393 L 0.427,0.012 C 0.446,0.009 0.465,0.007 0.485,0.004 0.504,0.001 0.524,0 0.543,0 H 1.086 C 1.093,0 1.099,0.002 1.104,0.005 1.11,0.009 1.114,0.013 1.117,0.02 Z"
         style="fill:#613d30;fill-rule:nonzero"
         id="path14200" /><path
         d="M 0.542,0 C 0.533,0.001 0.528,0.006 0.526,0.015 L 0.517,0.07 C 0.508,0.07 0.5,0.072 0.495,0.074 0.49,0.077 0.485,0.08 0.483,0.085 0.48,0.089 0.478,0.094 0.477,0.1 0.476,0.106 0.476,0.112 0.476,0.119 V 0.14 H 0.3 V 0.105 C 0.3,0.096 0.304,0.087 0.311,0.081 0.318,0.074 0.326,0.07 0.335,0.07 L 0.361,0.02 C 0.364,0.013 0.368,0.009 0.374,0.005 0.38,0.002 0.386,0 0.393,0 Z"
         style="fill:#8e562e;fill-rule:nonzero"
         id="path14202" /><path
         d="M 1.107,-0.141 V -0.07 H 0.511 L 0.469,-0.084 C 0.462,-0.086 0.455,-0.088 0.449,-0.091 L 0.423,-0.099 0.398,-0.091 C 0.391,-0.088 0.385,-0.086 0.377,-0.084 0.37,-0.082 0.363,-0.08 0.357,-0.077 L 0.335,-0.07 H 0.265 V -0.141 H 0.3 V -0.21 c 0,-0.039 0.008,-0.076 0.023,-0.11 0.014,-0.034 0.034,-0.063 0.06,-0.089 0.025,-0.025 0.055,-0.045 0.089,-0.06 0.034,-0.015 0.07,-0.022 0.109,-0.022 0.01,0 0.018,-0.004 0.025,-0.011 0.007,-0.007 0.01,-0.015 0.01,-0.024 h 0.035 l 0.036,-0.026 0.035,0.026 h 0.035 c 0,0.009 0.003,0.017 0.01,0.024 0.007,0.007 0.015,0.011 0.025,0.011 0.039,0 0.075,0.007 0.109,0.022 0.034,0.015 0.064,0.035 0.089,0.06 0.026,0.026 0.046,0.055 0.061,0.089 0.014,0.034 0.022,0.071 0.022,0.11 v 0.069 z M 0.616,-0.597 c -0.009,0 -0.017,-0.003 -0.024,-0.01 -0.007,-0.007 -0.011,-0.015 -0.011,-0.025 0,-0.009 0.004,-0.017 0.011,-0.024 0.007,-0.007 0.015,-0.011 0.024,-0.011 h 0.141 c 0.009,0 0.017,0.004 0.024,0.011 0.007,0.007 0.011,0.015 0.011,0.024 0,0.01 -0.004,0.018 -0.011,0.025 -0.007,0.007 -0.015,0.01 -0.024,0.01 z"
         style="fill:#ffb900;fill-rule:nonzero"
         id="path14204" /><path
         d="m 0.651,-0.491 c -0.023,0.015 -0.042,0.035 -0.056,0.06 -0.014,0.024 -0.024,0.051 -0.032,0.079 -0.007,0.028 -0.012,0.057 -0.014,0.086 -0.002,0.03 -0.003,0.057 -0.003,0.083 v 0.007 L 0.511,-0.141 V -0.07 H 0.335 v -0.071 l 0.036,-0.035 v -0.048 c 0,-0.036 0.007,-0.071 0.021,-0.104 0.014,-0.032 0.033,-0.061 0.057,-0.085 0.024,-0.024 0.053,-0.043 0.085,-0.057 0.033,-0.014 0.067,-0.021 0.104,-0.021 z"
         style="fill:#ffd679;fill-rule:nonzero"
         id="path14206" /><path
         d="m 1.073,-0.176 c 0,0.009 0.003,0.017 0.009,0.024 0.006,0.007 0.013,0.011 0.022,0.011 H 0.268 c 0.009,0 0.017,-0.004 0.023,-0.011 C 0.297,-0.158 0.3,-0.166 0.3,-0.176 Z m -0.422,-0.35 v -0.036 h 0.071 v 0.036 z"
         style="fill:#eba300;fill-rule:nonzero"
         id="path14208" /></g></g></svg>
