<?xml version="1.0" encoding="UTF-8" standalone="no"?>
<svg
   width="16.844999"
   height="16.844999"
   viewBox="0 0 16.844999 16.844999"
   version="1.1"
   xml:space="preserve"
   style="clip-rule:evenodd;fill-rule:evenodd;stroke-linejoin:round;stroke-miterlimit:2"
   id="svg20568"
   sodipodi:docname="emojis.svg"
   xmlns:inkscape="http://www.inkscape.org/namespaces/inkscape"
   xmlns:sodipodi="http://sodipodi.sourceforge.net/DTD/sodipodi-0.dtd"
   xmlns="http://www.w3.org/2000/svg"
   xmlns:svg="http://www.w3.org/2000/svg"><defs
     id="defs20572" /><sodipodi:namedview
     id="namedview20570"
     pagecolor="#505050"
     bordercolor="#eeeeee"
     borderopacity="1"
     inkscape:pageshadow="0"
     inkscape:pageopacity="0"
     inkscape:pagecheckerboard="0" /><g
     transform="matrix(0.24,0,0,0.24,-116.19204,-127.68924)"
     id="g20566"><g
       transform="matrix(62.5,0,0,62.5,476.321,589.101)"
       id="g1426"><path
         d="m 1.121,-0.596 c 0.018,0.001 0.034,0.006 0.05,0.014 0.015,0.008 0.029,0.018 0.04,0.031 0.012,0.013 0.021,0.027 0.027,0.043 0.007,0.016 0.01,0.034 0.01,0.051 v 0.141 c 0,0.016 -0.003,0.031 -0.008,0.046 -0.005,0.015 -0.012,0.028 -0.021,0.04 -0.01,0.012 -0.021,0.022 -0.034,0.031 -0.013,0.009 -0.027,0.015 -0.042,0.019 v 0.069 L 1.051,-0.02 c 0.005,0.009 0.011,0.018 0.017,0.029 0.007,0.01 0.013,0.02 0.019,0.032 0.005,0.011 0.01,0.022 0.014,0.032 0.004,0.011 0.006,0.022 0.006,0.032 0,0.015 -0.002,0.028 -0.008,0.041 C 1.094,0.159 1.086,0.17 1.077,0.179 1.067,0.189 1.056,0.197 1.043,0.202 1.031,0.208 1.017,0.21 1.002,0.21 H 0.841 C 0.817,0.21 0.796,0.204 0.78,0.191 0.764,0.178 0.751,0.161 0.74,0.14 H 0.633 C 0.627,0.151 0.621,0.16 0.615,0.169 0.608,0.177 0.601,0.185 0.593,0.191 0.585,0.197 0.576,0.202 0.566,0.205 0.556,0.209 0.544,0.21 0.532,0.21 H 0.371 C 0.356,0.21 0.342,0.208 0.33,0.202 0.317,0.197 0.306,0.189 0.296,0.179 0.287,0.17 0.279,0.159 0.273,0.146 0.268,0.133 0.265,0.12 0.265,0.105 0.265,0.095 0.267,0.085 0.271,0.074 0.275,0.063 0.28,0.052 0.286,0.041 0.292,0.029 0.298,0.019 0.305,0.008 0.311,-0.002 0.317,-0.012 0.322,-0.02 L 0.23,-0.111 V -0.18 C 0.215,-0.184 0.201,-0.19 0.188,-0.199 0.175,-0.208 0.164,-0.218 0.155,-0.23 0.145,-0.242 0.138,-0.255 0.133,-0.27 0.128,-0.285 0.125,-0.3 0.125,-0.316 v -0.141 c 0,-0.017 0.003,-0.035 0.01,-0.051 0.006,-0.016 0.015,-0.03 0.027,-0.043 0.011,-0.013 0.025,-0.023 0.04,-0.031 0.016,-0.008 0.033,-0.013 0.05,-0.014 0.015,-0.047 0.037,-0.09 0.066,-0.129 0.028,-0.039 0.061,-0.072 0.1,-0.1 0.038,-0.028 0.08,-0.049 0.126,-0.065 0.045,-0.015 0.093,-0.023 0.143,-0.023 0.049,0 0.096,0.008 0.142,0.023 0.046,0.016 0.088,0.037 0.126,0.065 0.038,0.028 0.072,0.061 0.1,0.1 0.029,0.039 0.051,0.082 0.066,0.129 z"
         style="fill-rule:nonzero"
         id="path1416" /><path
         d="m 1.073,-0.457 0.041,0.083 -0.041,0.106 v 0.127 L 0.932,0 H 0.981 C 0.984,0.005 0.988,0.012 0.995,0.022 1.001,0.032 1.007,0.043 1.013,0.053 1.02,0.064 1.025,0.075 1.03,0.084 1.035,0.094 1.038,0.101 1.038,0.105 1.038,0.115 1.034,0.123 1.027,0.13 1.021,0.137 1.012,0.14 1.002,0.14 H 0.841 C 0.835,0.14 0.829,0.138 0.824,0.135 0.819,0.131 0.814,0.127 0.811,0.121 L 0.781,0.07 H 0.592 L 0.563,0.121 C 0.559,0.127 0.555,0.131 0.549,0.135 0.544,0.138 0.538,0.14 0.532,0.14 H 0.371 C 0.361,0.14 0.353,0.137 0.346,0.13 0.339,0.123 0.335,0.115 0.335,0.105 0.335,0.101 0.338,0.094 0.343,0.084 0.348,0.075 0.353,0.064 0.36,0.053 0.366,0.043 0.372,0.032 0.378,0.022 0.385,0.012 0.389,0.005 0.392,0 H 0.441 L 0.3,-0.141 V -0.259 L 0.262,-0.36 0.3,-0.457 C 0.3,-0.492 0.305,-0.526 0.314,-0.559 0.323,-0.592 0.337,-0.623 0.353,-0.651 0.37,-0.68 0.39,-0.706 0.414,-0.729 0.437,-0.753 0.463,-0.773 0.492,-0.79 0.52,-0.807 0.551,-0.819 0.584,-0.829 c 0.033,-0.009 0.067,-0.013 0.103,-0.013 0.035,0 0.069,0.004 0.102,0.013 0.033,0.01 0.064,0.022 0.092,0.039 0.029,0.017 0.055,0.037 0.078,0.061 0.024,0.023 0.044,0.049 0.061,0.078 0.017,0.028 0.03,0.059 0.039,0.092 0.009,0.033 0.014,0.067 0.014,0.102 z"
         style="fill:#613d30;fill-rule:nonzero"
         id="path1418" /><path
         d="m 0.844,-0.562 c 0.022,0 0.043,0.005 0.062,0.013 0.019,0.008 0.036,0.02 0.05,0.034 0.014,0.014 0.026,0.031 0.034,0.05 0.008,0.019 0.012,0.039 0.012,0.061 0,0.02 -0.003,0.038 -0.009,0.053 -0.006,0.016 -0.014,0.03 -0.024,0.043 -0.01,0.013 -0.022,0.026 -0.034,0.038 -0.013,0.012 -0.025,0.024 -0.038,0.037 v 0.092 H 0.476 V -0.233 C 0.463,-0.246 0.451,-0.258 0.438,-0.27 0.426,-0.282 0.414,-0.295 0.404,-0.308 0.394,-0.321 0.386,-0.335 0.38,-0.351 0.374,-0.366 0.371,-0.384 0.371,-0.404 c 0,-0.022 0.004,-0.042 0.012,-0.061 0.008,-0.019 0.02,-0.036 0.034,-0.05 0.014,-0.014 0.031,-0.026 0.05,-0.034 0.019,-0.008 0.04,-0.013 0.062,-0.013 0.018,0 0.035,0.003 0.049,0.008 0.014,0.005 0.027,0.012 0.039,0.021 0.012,0.009 0.024,0.019 0.035,0.03 0.011,0.011 0.022,0.022 0.035,0.034 0.012,-0.012 0.023,-0.024 0.034,-0.035 0.011,-0.011 0.022,-0.021 0.034,-0.029 0.012,-0.009 0.026,-0.016 0.04,-0.021 0.014,-0.005 0.031,-0.008 0.049,-0.008 z m -0.649,0.105 c 0,-0.009 0.002,-0.018 0.006,-0.027 C 0.204,-0.492 0.209,-0.5 0.216,-0.506 0.222,-0.512 0.229,-0.517 0.238,-0.521 0.246,-0.525 0.255,-0.526 0.265,-0.526 H 0.307 C 0.305,-0.515 0.303,-0.503 0.302,-0.492 0.301,-0.48 0.3,-0.468 0.3,-0.457 v 0.211 H 0.265 c -0.01,0 -0.019,-0.001 -0.027,-0.005 C 0.229,-0.255 0.222,-0.26 0.216,-0.266 0.209,-0.273 0.204,-0.28 0.201,-0.289 0.197,-0.297 0.195,-0.306 0.195,-0.316 Z m 0.912,-0.069 c 0.01,0 0.019,0.001 0.028,0.005 0.008,0.004 0.016,0.009 0.022,0.015 0.006,0.006 0.011,0.014 0.015,0.022 0.004,0.009 0.006,0.018 0.006,0.027 v 0.141 c 0,0.01 -0.002,0.019 -0.006,0.027 C 1.168,-0.28 1.163,-0.273 1.157,-0.266 1.151,-0.26 1.143,-0.255 1.135,-0.251 1.126,-0.247 1.117,-0.246 1.107,-0.246 H 1.073 V -0.457 C 1.073,-0.468 1.072,-0.48 1.071,-0.492 1.07,-0.503 1.068,-0.515 1.066,-0.526 Z"
         style="fill:#f7b189;fill-rule:nonzero"
         id="path1420" /><path
         d="M 0.967,-0.025 0.981,0 H 0.74 L 0.687,-0.091 0.633,0 H 0.392 l 0.014,-0.025 v -0.151 c 0,-0.009 0.003,-0.017 0.01,-0.024 0.007,-0.007 0.015,-0.01 0.025,-0.01 0.008,0 0.014,0.001 0.019,0.004 0.004,0.002 0.008,0.006 0.01,0.011 0.003,0.005 0.004,0.01 0.005,0.016 0.001,0.006 0.001,0.012 0.001,0.017 v 0.016 l 0.062,-0.108 c 0.005,-0.009 0.011,-0.015 0.019,-0.02 0.009,-0.005 0.018,-0.007 0.027,-0.007 0.005,0 0.009,0 0.014,0.002 0.004,0.001 0.008,0.003 0.012,0.005 l 0.077,0.045 0.076,-0.045 c 0.004,-0.002 0.008,-0.004 0.012,-0.005 0.005,-0.002 0.01,-0.002 0.014,-0.002 0.01,0 0.018,0.002 0.027,0.007 0.008,0.005 0.014,0.011 0.019,0.02 l 0.062,0.108 v -0.009 c 0,-0.006 0,-0.013 0.001,-0.02 0,-0.006 0.001,-0.012 0.004,-0.018 0.002,-0.005 0.005,-0.009 0.01,-0.013 0.005,-0.003 0.011,-0.004 0.02,-0.004 0.01,0 0.018,0.003 0.025,0.01 0.007,0.007 0.01,0.015 0.01,0.024 z"
         style="fill:#f7894a;fill-rule:nonzero"
         id="path1422" /><path
         d="m 0.529,-0.491 c 0.007,0 0.014,0.001 0.02,0.004 0.006,0.003 0.012,0.006 0.017,0.011 0.004,0.005 0.008,0.01 0.011,0.017 0.003,0.006 0.004,0.013 0.004,0.02 v 0.07 c 0,0.008 -0.001,0.014 -0.004,0.021 -0.003,0.006 -0.007,0.012 -0.011,0.016 -0.005,0.005 -0.01,0.009 -0.017,0.012 -0.006,0.003 -0.013,0.004 -0.02,0.004 -0.008,0 -0.015,-0.001 -0.021,-0.004 C 0.502,-0.323 0.496,-0.327 0.491,-0.331 0.487,-0.336 0.483,-0.342 0.48,-0.348 0.477,-0.354 0.476,-0.361 0.476,-0.369 v -0.07 c 0,-0.007 0.001,-0.014 0.004,-0.02 0.003,-0.007 0.007,-0.013 0.012,-0.017 0.005,-0.005 0.01,-0.008 0.017,-0.011 0.006,-0.003 0.013,-0.004 0.02,-0.004 z m 0.315,0 c 0.007,0 0.014,0.001 0.021,0.004 0.006,0.003 0.011,0.006 0.016,0.011 0.005,0.004 0.009,0.01 0.012,0.017 0.003,0.006 0.004,0.013 0.004,0.02 v 0.07 c 0,0.008 -0.001,0.015 -0.004,0.021 C 0.89,-0.342 0.886,-0.336 0.882,-0.331 0.877,-0.327 0.871,-0.323 0.865,-0.32 0.858,-0.317 0.851,-0.316 0.844,-0.316 0.837,-0.316 0.83,-0.317 0.823,-0.32 0.817,-0.323 0.812,-0.327 0.807,-0.332 0.803,-0.336 0.799,-0.342 0.796,-0.348 0.793,-0.355 0.792,-0.361 0.792,-0.369 v -0.07 c 0,-0.007 0.001,-0.014 0.004,-0.02 0.003,-0.007 0.007,-0.012 0.011,-0.017 0.005,-0.005 0.011,-0.008 0.017,-0.011 0.006,-0.003 0.013,-0.004 0.02,-0.004 z"
         style="fill-rule:nonzero"
         id="path1424" /></g></g></svg>
