<?xml version="1.0" encoding="UTF-8" standalone="no"?>
<svg
   width="11.58"
   height="16.305"
   viewBox="0 0 11.58 16.305"
   version="1.1"
   xml:space="preserve"
   style="clip-rule:evenodd;fill-rule:evenodd;stroke-linejoin:round;stroke-miterlimit:2"
   id="svg20568"
   sodipodi:docname="emojis.svg"
   xmlns:inkscape="http://www.inkscape.org/namespaces/inkscape"
   xmlns:sodipodi="http://sodipodi.sourceforge.net/DTD/sodipodi-0.dtd"
   xmlns="http://www.w3.org/2000/svg"
   xmlns:svg="http://www.w3.org/2000/svg"><defs
     id="defs20572" /><sodipodi:namedview
     id="namedview20570"
     pagecolor="#505050"
     bordercolor="#eeeeee"
     borderopacity="1"
     inkscape:pageshadow="0"
     inkscape:pageopacity="0"
     inkscape:pagecheckerboard="0" /><g
     transform="matrix(0.24,0,0,0.24,-50.19348,-749.9394)"
     id="g20566"><g
       transform="matrix(62.5,0,0,62.5,201.327,3179.56)"
       id="g14246"><path
         d="M 0.23,0.21 C 0.216,0.21 0.202,0.208 0.189,0.202 0.177,0.197 0.166,0.189 0.156,0.179 0.146,0.17 0.139,0.159 0.133,0.146 0.128,0.133 0.125,0.12 0.125,0.105 0.125,0.09 0.128,0.076 0.134,0.062 0.14,0.048 0.149,0.037 0.16,0.027 0.161,-0.025 0.171,-0.073 0.19,-0.118 0.208,-0.162 0.235,-0.204 0.268,-0.244 0.274,-0.25 0.279,-0.256 0.285,-0.262 0.291,-0.268 0.297,-0.274 0.303,-0.28 0.306,-0.282 0.31,-0.285 0.313,-0.288 0.317,-0.291 0.32,-0.294 0.322,-0.297 0.327,-0.302 0.33,-0.308 0.332,-0.314 0.334,-0.32 0.335,-0.327 0.335,-0.333 0.335,-0.34 0.334,-0.347 0.332,-0.353 0.33,-0.359 0.327,-0.365 0.322,-0.37 0.32,-0.373 0.317,-0.376 0.313,-0.379 0.31,-0.382 0.306,-0.385 0.303,-0.387 0.297,-0.393 0.291,-0.399 0.285,-0.405 0.279,-0.411 0.274,-0.417 0.268,-0.423 0.235,-0.463 0.208,-0.505 0.19,-0.549 0.171,-0.594 0.161,-0.642 0.16,-0.694 0.149,-0.704 0.14,-0.715 0.134,-0.729 0.128,-0.743 0.125,-0.757 0.125,-0.772 c 0,-0.015 0.003,-0.028 0.008,-0.041 0.006,-0.013 0.013,-0.024 0.023,-0.033 0.01,-0.01 0.021,-0.018 0.033,-0.023 0.013,-0.006 0.027,-0.008 0.041,-0.008 h 0.562 c 0.014,0 0.028,0.002 0.041,0.008 0.012,0.006 0.023,0.013 0.033,0.023 0.01,0.01 0.017,0.021 0.023,0.034 0.005,0.013 0.008,0.026 0.008,0.04 0,0.015 -0.003,0.029 -0.009,0.043 -0.006,0.014 -0.015,0.025 -0.026,0.035 -0.001,0.052 -0.011,0.1 -0.03,0.145 -0.018,0.044 -0.045,0.086 -0.078,0.126 -0.006,0.006 -0.011,0.012 -0.017,0.018 -0.006,0.006 -0.012,0.012 -0.018,0.018 -0.004,0.002 -0.007,0.005 -0.01,0.008 -0.003,0.003 -0.006,0.006 -0.009,0.009 -0.005,0.005 -0.008,0.011 -0.01,0.017 -0.002,0.006 -0.003,0.013 -0.003,0.02 0,0.006 10e-4,0.013 0.003,0.019 0.002,0.006 0.005,0.012 0.01,0.017 0.003,0.003 0.006,0.006 0.009,0.009 0.003,0.003 0.006,0.006 0.01,0.008 0.006,0.006 0.012,0.012 0.018,0.018 0.006,0.006 0.011,0.012 0.017,0.018 0.033,0.04 0.06,0.082 0.078,0.126 0.019,0.045 0.029,0.093 0.03,0.145 0.011,0.01 0.02,0.021 0.026,0.035 0.006,0.014 0.009,0.028 0.009,0.043 0,0.014 -0.003,0.028 -0.008,0.041 C 0.883,0.158 0.876,0.169 0.866,0.179 0.856,0.189 0.845,0.196 0.833,0.202 0.82,0.208 0.806,0.21 0.792,0.21 Z"
         style="fill-rule:nonzero"
         id="path14234" /><path
         d="m 0.23,0.035 c 0,-0.043 0.009,-0.086 0.025,-0.127 0.017,-0.041 0.04,-0.077 0.07,-0.11 0.007,-0.007 0.015,-0.015 0.023,-0.022 0.007,-0.007 0.015,-0.014 0.023,-0.022 0.011,-0.012 0.02,-0.025 0.026,-0.04 0.006,-0.015 0.009,-0.031 0.009,-0.047 0,-0.017 -0.003,-0.033 -0.009,-0.048 C 0.391,-0.396 0.382,-0.409 0.371,-0.421 0.363,-0.429 0.355,-0.436 0.348,-0.443 0.34,-0.45 0.332,-0.458 0.325,-0.465 0.295,-0.498 0.272,-0.534 0.255,-0.575 0.239,-0.616 0.23,-0.659 0.23,-0.702 0.239,-0.713 0.25,-0.722 0.263,-0.73 0.277,-0.738 0.292,-0.745 0.309,-0.75 0.326,-0.756 0.343,-0.761 0.362,-0.764 0.38,-0.768 0.399,-0.771 0.417,-0.773 0.435,-0.776 0.452,-0.777 0.469,-0.778 0.485,-0.779 0.5,-0.779 0.513,-0.779 c 0.012,0 0.026,0 0.043,0.001 0.016,0.001 0.034,0.002 0.052,0.004 0.018,0.002 0.036,0.005 0.054,0.009 0.019,0.003 0.036,0.008 0.053,0.014 0.016,0.005 0.031,0.012 0.045,0.021 0.013,0.008 0.024,0.017 0.032,0.028 0,0.044 -0.008,0.086 -0.025,0.127 -0.017,0.041 -0.04,0.077 -0.07,0.11 -0.007,0.007 -0.015,0.015 -0.023,0.022 -0.007,0.007 -0.015,0.014 -0.023,0.022 -0.011,0.012 -0.02,0.025 -0.026,0.04 -0.006,0.015 -0.009,0.031 -0.009,0.048 0,0.016 0.003,0.032 0.009,0.047 0.006,0.015 0.015,0.028 0.026,0.04 0.008,0.008 0.016,0.015 0.023,0.022 0.008,0.007 0.016,0.015 0.023,0.022 0.03,0.033 0.053,0.069 0.07,0.11 0.017,0.041 0.025,0.083 0.025,0.127 C 0.786,0.046 0.776,0.055 0.763,0.063 0.751,0.07 0.736,0.077 0.719,0.082 0.703,0.087 0.685,0.091 0.667,0.094 0.648,0.098 0.629,0.1 0.611,0.102 0.593,0.104 0.576,0.105 0.56,0.105 0.543,0.106 0.53,0.106 0.519,0.106 0.498,0.106 0.476,0.105 0.453,0.104 0.429,0.103 0.406,0.101 0.382,0.097 0.358,0.093 0.336,0.088 0.313,0.081 0.291,0.075 0.271,0.066 0.253,0.055 0.249,0.052 0.244,0.049 0.241,0.047 0.237,0.044 0.234,0.04 0.23,0.035 Z"
         style="fill:#f2f2f2;fill-rule:nonzero"
         id="path14236" /><path
         d="M 0.23,0.112 V 0.035 H 0.269 C 0.281,0.023 0.297,0.013 0.317,0.005 0.338,-0.003 0.36,-0.01 0.383,-0.014 c 0.024,-0.004 0.047,-0.007 0.07,-0.009 0.023,-0.002 0.042,-0.002 0.059,-0.002 0.01,0 0.023,0 0.037,0.001 0.014,0 0.028,0.001 0.044,0.003 0.015,0.002 0.031,0.004 0.046,0.007 0.016,0.003 0.031,0.007 0.045,0.011 0.014,0.005 0.028,0.01 0.039,0.016 0.012,0.007 0.022,0.014 0.029,0.022 h 0.04 V 0.112 Z M 0.792,-0.77 v 0.068 H 0.23 V -0.77 Z"
         style="fill:#af0d1a;fill-rule:nonzero"
         id="path14238" /><path
         d="m 0.792,-0.807 c 0.009,0 0.018,0.003 0.024,0.01 0.007,0.007 0.011,0.016 0.011,0.025 0,0.009 -0.004,0.018 -0.011,0.024 -0.006,0.007 -0.015,0.011 -0.024,0.011 H 0.23 c -0.009,0 -0.017,-0.004 -0.024,-0.011 -0.007,-0.006 -0.011,-0.015 -0.011,-0.024 0,-0.01 0.004,-0.018 0.011,-0.025 0.006,-0.007 0.015,-0.01 0.024,-0.01 z M 0.23,0.14 C 0.221,0.14 0.212,0.137 0.206,0.13 0.199,0.123 0.195,0.115 0.195,0.105 0.195,0.096 0.199,0.087 0.206,0.081 0.213,0.074 0.221,0.07 0.23,0.07 h 0.562 c 0.009,0 0.018,0.004 0.024,0.011 0.007,0.006 0.011,0.015 0.011,0.024 0,0.009 -0.004,0.018 -0.011,0.025 C 0.81,0.137 0.801,0.14 0.792,0.14 Z"
         style="fill:#f03a17;fill-rule:nonzero"
         id="path14240" /><path
         d="m 0.634,-0.21 c 0.018,0.015 0.035,0.032 0.05,0.05 0.015,0.018 0.028,0.038 0.039,0.058 0.011,0.021 0.019,0.043 0.025,0.066 0.006,0.023 0.009,0.047 0.009,0.071 H 0.265 c 0,-0.024 0.003,-0.048 0.009,-0.071 0.006,-0.023 0.014,-0.045 0.025,-0.066 0.011,-0.02 0.024,-0.04 0.039,-0.058 0.015,-0.018 0.032,-0.035 0.05,-0.05 h 0.088 c 0.003,-0.007 0.008,-0.012 0.015,-0.016 0.006,-0.003 0.013,-0.005 0.02,-0.005 0.007,0 0.014,0.002 0.02,0.005 0.007,0.004 0.012,0.009 0.015,0.016 z"
         style="fill:#ffd679;fill-rule:nonzero"
         id="path14242" /><path
         d="m 0.274,-0.632 h 0.474 c -0.005,0.019 -0.01,0.037 -0.018,0.053 -0.007,0.015 -0.015,0.03 -0.025,0.044 -0.009,0.014 -0.02,0.027 -0.032,0.04 -0.012,0.013 -0.025,0.026 -0.039,0.038 -0.027,0.025 -0.048,0.051 -0.064,0.079 -0.016,0.028 -0.024,0.06 -0.024,0.097 V -0.21 H 0.476 V -0.281 C 0.476,-0.299 0.474,-0.317 0.47,-0.333 0.465,-0.349 0.46,-0.364 0.452,-0.378 0.444,-0.393 0.435,-0.406 0.424,-0.419 0.414,-0.432 0.402,-0.444 0.388,-0.457 0.374,-0.469 0.361,-0.482 0.349,-0.495 0.337,-0.508 0.327,-0.521 0.317,-0.535 0.308,-0.549 0.299,-0.564 0.292,-0.58 0.284,-0.596 0.278,-0.613 0.274,-0.632 Z m 0.132,0.509 c 0,-0.005 10e-4,-0.009 0.005,-0.012 0.003,-0.004 0.007,-0.006 0.012,-0.006 0.005,0 0.009,0.002 0.013,0.006 0.003,0.003 0.005,0.007 0.005,0.012 0,0.005 -0.002,0.009 -0.005,0.012 -0.004,0.004 -0.008,0.006 -0.013,0.006 -0.005,0 -0.009,-0.002 -0.012,-0.006 C 0.407,-0.114 0.406,-0.118 0.406,-0.123 Z m 0,0.105 c 0,-0.004 10e-4,-0.009 0.005,-0.012 0.003,-0.003 0.007,-0.005 0.012,-0.005 0.005,0 0.009,0.002 0.013,0.005 0.003,0.003 0.005,0.008 0.005,0.012 0,0.005 -0.002,0.009 -0.005,0.013 C 0.432,-0.002 0.428,0 0.423,0 0.418,0 0.414,-0.002 0.411,-0.005 0.407,-0.009 0.406,-0.013 0.406,-0.018 Z m -0.106,0 c 0,-0.004 0.002,-0.009 0.005,-0.012 0.004,-0.003 0.008,-0.005 0.013,-0.005 0.005,0 0.009,0.002 0.012,0.005 0.004,0.003 0.005,0.008 0.005,0.012 0,0.005 -0.001,0.009 -0.005,0.013 C 0.327,-0.002 0.323,0 0.318,0 0.313,0 0.309,-0.002 0.305,-0.005 0.302,-0.009 0.3,-0.013 0.3,-0.018 Z"
         style="fill:#ffc83d;fill-rule:nonzero"
         id="path14244" /></g></g></svg>
