<?xml version="1.0" encoding="UTF-8" standalone="no"?>
<svg
   width="14.745"
   height="16.844999"
   viewBox="0 0 14.745 16.844999"
   version="1.1"
   xml:space="preserve"
   style="clip-rule:evenodd;fill-rule:evenodd;stroke-linejoin:round;stroke-miterlimit:2"
   id="svg20568"
   sodipodi:docname="emojis.svg"
   xmlns:inkscape="http://www.inkscape.org/namespaces/inkscape"
   xmlns:sodipodi="http://sodipodi.sourceforge.net/DTD/sodipodi-0.dtd"
   xmlns="http://www.w3.org/2000/svg"
   xmlns:svg="http://www.w3.org/2000/svg"><defs
     id="defs20572" /><sodipodi:namedview
     id="namedview20570"
     pagecolor="#505050"
     bordercolor="#eeeeee"
     borderopacity="1"
     inkscape:pageshadow="0"
     inkscape:pageopacity="0"
     inkscape:pagecheckerboard="0" /><g
     transform="matrix(0.24,0,0,0.24,-80.8674,-749.3994)"
     id="g20566"><g
       transform="matrix(62.5,0,0,62.5,329.135,3179.56)"
       id="g14276"><path
         d="M 0.441,0.21 C 0.422,0.21 0.404,0.207 0.387,0.199 0.37,0.192 0.355,0.182 0.342,0.169 0.329,0.156 0.319,0.141 0.312,0.125 0.304,0.108 0.3,0.09 0.3,0.07 V 0.035 C 0.273,0.012 0.248,-0.013 0.226,-0.041 0.204,-0.069 0.186,-0.098 0.171,-0.13 0.156,-0.161 0.145,-0.194 0.137,-0.228 0.129,-0.263 0.125,-0.298 0.125,-0.333 c 0,-0.036 0.004,-0.071 0.012,-0.105 0.008,-0.035 0.019,-0.068 0.034,-0.099 0.015,-0.032 0.034,-0.061 0.056,-0.089 0.021,-0.028 0.046,-0.053 0.073,-0.076 v -0.07 c 0,-0.02 0.004,-0.038 0.011,-0.055 0.008,-0.017 0.018,-0.032 0.03,-0.045 0.013,-0.012 0.028,-0.022 0.045,-0.03 0.017,-0.007 0.035,-0.011 0.055,-0.011 h 0.316 c 0.019,0 0.037,0.004 0.054,0.012 0.017,0.007 0.032,0.017 0.044,0.03 0.013,0.013 0.023,0.028 0.031,0.045 0.007,0.017 0.011,0.035 0.011,0.054 v 0.071 c 0.04,0.032 0.074,0.07 0.102,0.113 0.027,0.043 0.047,0.09 0.059,0.141 0.013,0.006 0.022,0.013 0.029,0.021 0.007,0.009 0.012,0.019 0.015,0.029 0.003,0.01 0.005,0.021 0.006,0.033 0,0.011 0,0.023 0,0.035 0,0.012 0,0.023 -0.001,0.034 -10e-4,0.01 -0.003,0.02 -0.006,0.03 C 1.097,-0.256 1.092,-0.248 1.086,-0.24 1.079,-0.232 1.07,-0.225 1.058,-0.22 1.046,-0.169 1.026,-0.122 0.999,-0.079 0.971,-0.036 0.937,0.002 0.897,0.034 V 0.07 C 0.897,0.09 0.893,0.108 0.886,0.125 0.879,0.142 0.869,0.157 0.856,0.169 0.843,0.182 0.828,0.192 0.811,0.199 0.794,0.207 0.776,0.21 0.757,0.21 Z"
         style="fill-rule:nonzero"
         id="path14262" /><path
         d="M 0.757,0.14 H 0.441 C 0.431,0.14 0.422,0.138 0.414,0.135 0.405,0.131 0.398,0.126 0.391,0.12 0.385,0.114 0.38,0.106 0.376,0.098 0.372,0.089 0.371,0.08 0.371,0.07 v -0.842 c 0,-0.01 0.001,-0.019 0.005,-0.027 0.004,-0.009 0.009,-0.016 0.015,-0.023 0.006,-0.006 0.014,-0.011 0.022,-0.015 0.009,-0.003 0.018,-0.005 0.028,-0.005 h 0.316 c 0.01,0 0.019,0.002 0.027,0.005 0.009,0.004 0.016,0.009 0.022,0.015 0.007,0.007 0.012,0.014 0.015,0.023 0.004,0.008 0.006,0.017 0.006,0.027 V 0.07 C 0.827,0.08 0.825,0.089 0.821,0.098 0.818,0.106 0.813,0.114 0.806,0.12 0.8,0.126 0.793,0.131 0.784,0.135 0.776,0.138 0.767,0.14 0.757,0.14 Z"
         style="fill:#383838;fill-rule:nonzero"
         id="path14264" /><path
         d="M 0.967,-0.281 V -0.386 H 1.02 c 0.005,0 0.009,0.001 0.012,0.005 0.004,0.003 0.006,0.007 0.006,0.012 v 0.071 c 0,0.005 -0.002,0.009 -0.006,0.012 -0.003,0.004 -0.007,0.005 -0.012,0.005 z"
         style="fill:#cccccc;fill-rule:nonzero"
         id="path14266" /><path
         d="m 1.002,-0.333 c 0,0.037 -0.004,0.072 -0.014,0.107 C 0.978,-0.192 0.965,-0.16 0.947,-0.13 0.93,-0.1 0.909,-0.073 0.884,-0.048 0.859,-0.024 0.832,-0.002 0.802,0.015 0.772,0.033 0.74,0.046 0.706,0.056 0.671,0.066 0.636,0.07 0.599,0.07 0.562,0.07 0.526,0.066 0.491,0.056 0.457,0.046 0.425,0.033 0.395,0.015 0.365,-0.002 0.338,-0.024 0.313,-0.048 0.289,-0.073 0.268,-0.1 0.25,-0.13 0.233,-0.16 0.219,-0.192 0.21,-0.226 0.2,-0.261 0.195,-0.296 0.195,-0.333 c 0,-0.038 0.005,-0.073 0.015,-0.108 0.009,-0.034 0.023,-0.066 0.04,-0.096 0.018,-0.03 0.039,-0.057 0.063,-0.082 0.025,-0.024 0.052,-0.046 0.082,-0.063 0.03,-0.018 0.062,-0.031 0.096,-0.041 0.035,-0.01 0.071,-0.014 0.108,-0.014 0.037,0 0.073,0.004 0.107,0.014 0.035,0.01 0.067,0.023 0.096,0.041 0.03,0.017 0.057,0.039 0.082,0.063 0.025,0.025 0.046,0.052 0.063,0.082 0.018,0.029 0.031,0.062 0.041,0.096 0.01,0.035 0.014,0.07 0.014,0.108 z"
         style="fill:#757575;fill-rule:nonzero"
         id="path14268" /><path
         d="m 0.599,-0.667 c 0.03,0 0.06,0.004 0.088,0.012 0.029,0.008 0.055,0.019 0.08,0.034 0.025,0.014 0.047,0.031 0.067,0.052 0.021,0.02 0.038,0.042 0.052,0.067 0.015,0.025 0.026,0.051 0.034,0.08 0.008,0.028 0.012,0.058 0.012,0.089 0,0.03 -0.004,0.06 -0.012,0.088 C 0.912,-0.216 0.901,-0.19 0.886,-0.165 0.872,-0.14 0.855,-0.118 0.834,-0.098 0.814,-0.077 0.792,-0.06 0.767,-0.046 0.742,-0.031 0.716,-0.02 0.687,-0.012 0.659,-0.004 0.629,0 0.599,0 0.568,0 0.538,-0.004 0.51,-0.012 0.482,-0.02 0.455,-0.031 0.43,-0.046 0.405,-0.06 0.383,-0.077 0.363,-0.098 0.343,-0.118 0.325,-0.14 0.311,-0.165 0.296,-0.19 0.285,-0.216 0.277,-0.245 0.269,-0.273 0.265,-0.303 0.265,-0.333 c 0,-0.031 0.004,-0.061 0.012,-0.089 0.008,-0.029 0.019,-0.055 0.034,-0.08 0.014,-0.025 0.032,-0.047 0.052,-0.067 0.02,-0.021 0.042,-0.038 0.067,-0.052 0.025,-0.015 0.052,-0.026 0.08,-0.034 0.028,-0.008 0.058,-0.012 0.089,-0.012 z"
         style="fill:#ffffff;fill-rule:nonzero"
         id="path14270" /><path
         d="m 0.616,-0.33 c 0,0.001 0,0.003 -0.001,0.005 -0.002,0.001 -0.003,0.003 -0.004,0.004 l -0.14,0.14 C 0.467,-0.177 0.463,-0.176 0.458,-0.176 0.454,-0.176 0.449,-0.177 0.446,-0.181 0.442,-0.184 0.44,-0.188 0.44,-0.193 c 0,-0.005 0.002,-0.009 0.006,-0.013 l 0.135,-0.135 v -0.203 c 0,-0.005 0.002,-0.009 0.005,-0.012 0.004,-0.004 0.008,-0.006 0.013,-0.006 0.005,0 0.009,0.002 0.012,0.006 0.004,0.003 0.005,0.007 0.005,0.012 z"
         style="fill:#383838;fill-rule:nonzero"
         id="path14272" /><path
         d="m 0.651,-0.333 c 0,0.007 -0.001,0.014 -0.004,0.02 -0.003,0.007 -0.006,0.012 -0.011,0.017 -0.005,0.005 -0.01,0.008 -0.017,0.011 -0.006,0.003 -0.013,0.004 -0.02,0.004 -0.008,0 -0.014,-10e-4 -0.021,-0.004 C 0.572,-0.288 0.566,-0.292 0.562,-0.296 0.557,-0.301 0.553,-0.307 0.55,-0.313 0.547,-0.32 0.546,-0.326 0.546,-0.333 c 0,-0.008 0.001,-0.014 0.004,-0.021 0.003,-0.006 0.007,-0.012 0.012,-0.017 0.004,-0.004 0.01,-0.008 0.016,-0.011 0.007,-0.003 0.013,-0.004 0.021,-0.004 0.007,0 0.014,0.001 0.02,0.004 0.007,0.003 0.012,0.006 0.017,0.011 0.005,0.005 0.008,0.01 0.011,0.017 0.003,0.007 0.004,0.013 0.004,0.021 z"
         style="fill:#f03a17;fill-rule:nonzero"
         id="path14274" /></g></g></svg>
