<?xml version="1.0" encoding="UTF-8" standalone="no"?>
<svg
   width="14.73"
   height="16.844999"
   viewBox="0 0 14.73 16.844999"
   version="1.1"
   xml:space="preserve"
   style="clip-rule:evenodd;fill-rule:evenodd;stroke-linejoin:round;stroke-miterlimit:2"
   id="svg20568"
   sodipodi:docname="emojis.svg"
   xmlns:inkscape="http://www.inkscape.org/namespaces/inkscape"
   xmlns:sodipodi="http://sodipodi.sourceforge.net/DTD/sodipodi-0.dtd"
   xmlns="http://www.w3.org/2000/svg"
   xmlns:svg="http://www.w3.org/2000/svg"><defs
     id="defs20572" /><sodipodi:namedview
     id="namedview20570"
     pagecolor="#505050"
     bordercolor="#eeeeee"
     borderopacity="1"
     inkscape:pageshadow="0"
     inkscape:pageopacity="0"
     inkscape:pagecheckerboard="0" /><g
     transform="matrix(0.24,0,0,0.24,-119.95668,-749.3994)"
     id="g20566"><g
       transform="matrix(62.5,0,0,62.5,492.007,3179.56)"
       id="g14310"><path
         d="M 0.616,0.21 C 0.571,0.21 0.527,0.205 0.486,0.193 0.444,0.181 0.405,0.165 0.368,0.143 0.332,0.122 0.299,0.096 0.269,0.066 0.239,0.036 0.213,0.003 0.192,-0.033 0.171,-0.069 0.154,-0.108 0.143,-0.15 0.131,-0.192 0.125,-0.236 0.125,-0.281 c 0,-0.051 0.008,-0.1 0.023,-0.148 0.015,-0.047 0.036,-0.091 0.064,-0.131 0.027,-0.04 0.06,-0.076 0.1,-0.107 0.039,-0.03 0.082,-0.055 0.13,-0.073 -0.001,-0.006 -0.001,-0.012 -0.002,-0.018 0,-0.005 0,-0.011 0,-0.017 l 0.001,-0.05 c 0,-0.012 0.002,-0.023 0.007,-0.034 0.004,-0.011 0.011,-0.02 0.019,-0.028 0.008,-0.008 0.017,-0.014 0.027,-0.019 0.011,-0.004 0.022,-0.007 0.035,-0.007 h 0.175 c 0.012,0 0.024,0.003 0.034,0.007 0.011,0.005 0.02,0.011 0.028,0.019 0.008,0.008 0.015,0.017 0.019,0.028 0.005,0.011 0.007,0.022 0.007,0.034 v 0.07 c 0,0.005 0,0.01 -0.001,0.015 0.013,0.005 0.026,0.011 0.039,0.017 0.013,0.007 0.026,0.013 0.038,0.021 0.01,-0.011 0.02,-0.019 0.032,-0.026 0.012,-0.006 0.025,-0.009 0.039,-0.009 0.013,0 0.025,0.002 0.034,0.006 0.01,0.005 0.019,0.011 0.028,0.02 0.016,0.014 0.032,0.029 0.046,0.045 0.008,0.009 0.015,0.019 0.019,0.028 0.004,0.01 0.006,0.021 0.006,0.034 0,0.015 -0.003,0.028 -0.009,0.04 -0.006,0.011 -0.014,0.022 -0.025,0.031 0.023,0.039 0.041,0.079 0.052,0.122 0.012,0.042 0.017,0.086 0.017,0.13 0,0.045 -0.005,0.089 -0.017,0.131 C 1.078,-0.108 1.062,-0.069 1.04,-0.033 1.019,0.003 0.993,0.036 0.963,0.066 0.933,0.096 0.9,0.122 0.864,0.143 0.828,0.165 0.789,0.181 0.747,0.193 0.705,0.205 0.661,0.21 0.616,0.21 Z"
         style="fill-rule:nonzero"
         id="path14294" /><path
         d="m 0.687,-0.77 v 0.103 H 0.546 V -0.77 Z m 0.166,0.182 0.074,-0.074 c 0.004,-0.003 0.008,-0.005 0.012,-0.005 0.005,0 0.009,0.002 0.013,0.005 l 0.045,0.046 c 0.003,0.003 0.005,0.007 0.005,0.012 0,0.005 -0.002,0.009 -0.005,0.012 l -0.074,0.074 z"
         style="fill:#757575;fill-rule:nonzero"
         id="path14296" /><path
         d="m 1.038,-0.281 c 0,0.039 -0.005,0.076 -0.016,0.112 C 1.012,-0.133 0.998,-0.1 0.98,-0.068 0.962,-0.037 0.94,-0.009 0.914,0.017 0.888,0.042 0.86,0.064 0.829,0.083 0.797,0.101 0.764,0.115 0.728,0.125 0.692,0.135 0.655,0.14 0.616,0.14 0.577,0.14 0.54,0.135 0.504,0.125 0.469,0.115 0.435,0.101 0.404,0.083 0.373,0.064 0.344,0.042 0.319,0.017 0.293,-0.009 0.271,-0.037 0.253,-0.068 0.235,-0.1 0.221,-0.133 0.21,-0.169 0.2,-0.205 0.195,-0.242 0.195,-0.281 c 0,-0.038 0.005,-0.076 0.015,-0.112 0.011,-0.035 0.025,-0.069 0.043,-0.1 0.018,-0.031 0.04,-0.06 0.066,-0.086 0.025,-0.025 0.054,-0.047 0.085,-0.066 0.031,-0.018 0.065,-0.032 0.1,-0.042 0.036,-0.01 0.073,-0.015 0.112,-0.015 0.039,0 0.076,0.005 0.112,0.015 0.036,0.01 0.07,0.024 0.101,0.042 0.031,0.019 0.06,0.041 0.085,0.066 0.026,0.026 0.048,0.054 0.066,0.085 0.018,0.032 0.032,0.065 0.042,0.101 0.011,0.036 0.016,0.074 0.016,0.112 z M 0.704,-0.842 c 0.005,0 0.009,0.001 0.013,0.005 0.003,0.003 0.005,0.007 0.005,0.012 v 0.07 c 0,0.005 -0.002,0.009 -0.005,0.013 -0.004,0.003 -0.008,0.005 -0.013,0.005 H 0.529 C 0.524,-0.737 0.52,-0.739 0.516,-0.742 0.513,-0.746 0.511,-0.75 0.511,-0.755 v -0.07 c 0,-0.005 0.002,-0.009 0.005,-0.012 0.004,-0.004 0.008,-0.005 0.013,-0.005 z"
         style="fill:#cccccc;fill-rule:nonzero"
         id="path14298" /><path
         d="m 0.967,-0.281 c 0,0.032 -0.004,0.064 -0.012,0.094 -0.008,0.029 -0.02,0.057 -0.036,0.083 -0.015,0.027 -0.033,0.05 -0.054,0.072 C 0.843,-0.011 0.819,0.007 0.793,0.022 0.767,0.038 0.739,0.05 0.709,0.058 0.68,0.066 0.648,0.07 0.616,0.07 0.584,0.07 0.553,0.066 0.523,0.058 0.493,0.05 0.465,0.038 0.439,0.022 0.413,0.007 0.389,-0.011 0.368,-0.032 0.347,-0.054 0.328,-0.077 0.313,-0.104 0.298,-0.13 0.286,-0.158 0.278,-0.187 0.269,-0.217 0.265,-0.249 0.265,-0.281 c 0,-0.032 0.004,-0.063 0.013,-0.093 0.008,-0.03 0.02,-0.058 0.035,-0.084 0.015,-0.026 0.034,-0.05 0.055,-0.071 0.021,-0.021 0.045,-0.04 0.071,-0.055 0.026,-0.015 0.054,-0.027 0.084,-0.035 0.03,-0.009 0.061,-0.013 0.093,-0.013 0.032,0 0.064,0.004 0.093,0.013 0.03,0.008 0.058,0.02 0.084,0.035 0.026,0.015 0.05,0.034 0.072,0.055 0.021,0.021 0.039,0.045 0.054,0.071 0.016,0.026 0.028,0.054 0.036,0.084 0.008,0.03 0.012,0.061 0.012,0.093 z"
         style="fill:#ffffff;fill-rule:nonzero"
         id="path14300" /><path
         d="m 0.651,-0.562 c 0,0.01 -0.003,0.018 -0.01,0.025 -0.007,0.007 -0.015,0.011 -0.025,0.011 -0.009,0 -0.017,-0.004 -0.024,-0.011 -0.007,-0.007 -0.011,-0.015 -0.011,-0.025 0,-0.009 0.004,-0.017 0.011,-0.024 0.007,-0.007 0.015,-0.011 0.024,-0.011 0.01,0 0.018,0.004 0.025,0.011 0.007,0.006 0.01,0.015 0.01,0.024 z m 0.106,0.071 c -0.01,0 -0.018,-0.004 -0.025,-0.011 -0.007,-0.007 -0.01,-0.015 -0.01,-0.025 0,-0.01 0.003,-0.018 0.01,-0.025 0.007,-0.006 0.015,-0.01 0.025,-0.01 0.01,0 0.018,0.004 0.025,0.011 0.007,0.007 0.01,0.015 0.01,0.025 0,0.009 -0.004,0.017 -0.011,0.024 -0.007,0.007 -0.015,0.011 -0.024,0.011 z m 0.105,0.105 c -0.009,0 -0.018,-0.004 -0.025,-0.01 -0.007,-0.007 -0.01,-0.016 -0.01,-0.025 0,-0.01 0.003,-0.018 0.01,-0.025 0.007,-0.007 0.015,-0.011 0.025,-0.011 0.01,0 0.018,0.004 0.025,0.011 0.007,0.007 0.01,0.015 0.01,0.025 0,0.009 -0.003,0.018 -0.01,0.025 -0.007,0.006 -0.015,0.01 -0.025,0.01 z m 0.035,0.14 c -0.009,0 -0.018,-0.003 -0.025,-0.01 -0.007,-0.007 -0.01,-0.015 -0.01,-0.025 0,-0.009 0.003,-0.017 0.01,-0.024 0.007,-0.007 0.016,-0.011 0.025,-0.011 0.01,0 0.018,0.004 0.025,0.01 0.007,0.007 0.01,0.015 0.01,0.025 0,0.01 -0.003,0.018 -0.01,0.025 -0.007,0.007 -0.016,0.01 -0.025,0.01 z m -0.07,0.105 c 0,-0.009 0.003,-0.017 0.01,-0.024 0.007,-0.007 0.015,-0.011 0.025,-0.011 0.01,0 0.018,0.004 0.025,0.011 0.007,0.007 0.01,0.015 0.01,0.025 0,0.01 -0.003,0.018 -0.01,0.025 -0.007,0.006 -0.015,0.01 -0.025,0.01 -0.01,0 -0.018,-0.004 -0.025,-0.011 -0.007,-0.007 -0.01,-0.015 -0.01,-0.025 z m -0.105,0.106 c 0,-0.01 0.003,-0.018 0.01,-0.025 0.007,-0.007 0.015,-0.01 0.025,-0.01 0.009,0 0.017,0.003 0.024,0.01 0.007,0.007 0.011,0.015 0.011,0.025 0,0.009 -0.004,0.018 -0.011,0.025 C 0.774,-0.003 0.766,0 0.757,0 0.747,0 0.739,-0.003 0.732,-0.01 0.725,-0.017 0.722,-0.025 0.722,-0.035 Z M 0.581,0 c 0,-0.009 0.004,-0.018 0.011,-0.025 0.007,-0.007 0.015,-0.01 0.024,-0.01 0.01,0 0.018,0.003 0.025,0.01 0.007,0.007 0.01,0.015 0.01,0.025 0,0.009 -0.003,0.018 -0.01,0.025 C 0.634,0.032 0.626,0.035 0.616,0.035 0.607,0.035 0.599,0.032 0.592,0.025 0.585,0.018 0.581,0.009 0.581,0 Z M 0.476,-0.07 c 0.01,0 0.018,0.003 0.025,0.01 0.007,0.007 0.01,0.015 0.01,0.025 0,0.009 -0.003,0.018 -0.01,0.025 C 0.494,-0.003 0.486,0 0.476,0 0.466,0 0.458,-0.003 0.451,-0.01 0.444,-0.017 0.441,-0.026 0.441,-0.036 c 0,-0.009 0.003,-0.017 0.01,-0.024 0.007,-0.007 0.016,-0.01 0.025,-0.01 z M 0.371,-0.176 c 0.009,0 0.017,0.004 0.024,0.011 0.007,0.007 0.011,0.015 0.011,0.024 0,0.01 -0.004,0.018 -0.01,0.025 -0.007,0.007 -0.015,0.011 -0.025,0.011 -0.01,0 -0.018,-0.004 -0.025,-0.011 -0.007,-0.007 -0.011,-0.015 -0.011,-0.025 0,-0.009 0.004,-0.017 0.011,-0.024 0.007,-0.007 0.015,-0.011 0.025,-0.011 z m -0.036,-0.14 c 0.01,0 0.019,0.004 0.025,0.01 0.007,0.007 0.011,0.015 0.011,0.025 0,0.01 -0.004,0.018 -0.011,0.025 -0.007,0.007 -0.015,0.01 -0.025,0.01 -0.009,0 -0.017,-0.003 -0.024,-0.01 C 0.304,-0.263 0.3,-0.271 0.3,-0.281 0.3,-0.29 0.304,-0.298 0.311,-0.305 0.318,-0.312 0.326,-0.316 0.335,-0.316 Z m 0.071,-0.105 c 0,0.009 -0.004,0.017 -0.011,0.024 -0.007,0.007 -0.015,0.011 -0.024,0.011 -0.01,0 -0.018,-0.004 -0.025,-0.01 -0.007,-0.007 -0.011,-0.016 -0.011,-0.025 0,-0.01 0.004,-0.018 0.011,-0.025 0.007,-0.007 0.015,-0.011 0.025,-0.011 0.009,0 0.017,0.004 0.024,0.011 0.007,0.007 0.011,0.015 0.011,0.025 z m 0.105,-0.105 c 0,0.009 -0.003,0.017 -0.01,0.024 -0.007,0.007 -0.015,0.011 -0.025,0.011 -0.01,0 -0.018,-0.004 -0.025,-0.01 -0.007,-0.007 -0.01,-0.016 -0.01,-0.025 0,-0.01 0.003,-0.018 0.01,-0.025 0.007,-0.007 0.015,-0.011 0.025,-0.011 0.009,0 0.018,0.004 0.025,0.011 0.007,0.007 0.01,0.015 0.01,0.025 z"
         style="fill:#e5e5e5;fill-rule:nonzero"
         id="path14302" /><path
         d="M 0.458,-0.105 C 0.454,-0.105 0.449,-0.107 0.446,-0.11 0.442,-0.114 0.44,-0.118 0.44,-0.123 c 0,-0.004 0.002,-0.009 0.006,-0.012 l 0.158,-0.158 c 0.003,-0.004 0.007,-0.005 0.012,-0.005 0.005,0 0.009,0.001 0.013,0.005 0.003,0.003 0.005,0.007 0.005,0.012 0,0.005 -0.002,0.009 -0.005,0.012 L 0.471,-0.11 c -0.004,0.003 -0.008,0.005 -0.013,0.005 z"
         style="fill:#e81224;fill-rule:nonzero"
         id="path14304" /><path
         d="m 0.616,-0.263 c -0.004,0 -0.008,-0.002 -0.012,-0.006 L 0.481,-0.391 C 0.477,-0.395 0.476,-0.399 0.476,-0.403 c 0,-0.005 0.001,-0.009 0.005,-0.013 0.004,-0.003 0.008,-0.005 0.012,-0.005 0.005,0 0.01,0.002 0.013,0.005 l 0.123,0.123 c 0.003,0.003 0.005,0.007 0.005,0.012 0,0.005 -0.002,0.009 -0.006,0.012 -0.003,0.004 -0.007,0.006 -0.012,0.006 z"
         style="fill:#383838;fill-rule:nonzero"
         id="path14306" /><path
         d="m 0.651,-0.281 c 0,0.01 -0.003,0.018 -0.01,0.025 -0.007,0.007 -0.015,0.01 -0.025,0.01 -0.009,0 -0.017,-0.003 -0.024,-0.01 -0.007,-0.007 -0.011,-0.015 -0.011,-0.025 0,-0.009 0.004,-0.017 0.011,-0.024 0.007,-0.007 0.015,-0.011 0.024,-0.011 0.01,0 0.018,0.004 0.025,0.01 0.007,0.007 0.01,0.015 0.01,0.025 z"
         style="fill:#757575;fill-rule:nonzero"
         id="path14308" /></g></g></svg>
