<?xml version="1.0" encoding="UTF-8" standalone="no"?>
<svg
   width="16.844999"
   height="16.844999"
   viewBox="0 0 16.844999 16.844999"
   version="1.1"
   xml:space="preserve"
   style="clip-rule:evenodd;fill-rule:evenodd;stroke-linejoin:round;stroke-miterlimit:2"
   id="svg20568"
   sodipodi:docname="emojis.svg"
   xmlns:inkscape="http://www.inkscape.org/namespaces/inkscape"
   xmlns:sodipodi="http://sodipodi.sourceforge.net/DTD/sodipodi-0.dtd"
   xmlns="http://www.w3.org/2000/svg"
   xmlns:svg="http://www.w3.org/2000/svg"><defs
     id="defs20572" /><sodipodi:namedview
     id="namedview20570"
     pagecolor="#505050"
     bordercolor="#eeeeee"
     borderopacity="1"
     inkscape:pageshadow="0"
     inkscape:pageopacity="0"
     inkscape:pagecheckerboard="0" /><g
     transform="matrix(0.24,0,0,0.24,-138.45036,-749.3994)"
     id="g20566"><g
       transform="matrix(62.5,0,0,62.5,569.064,3179.56)"
       id="g14324"><path
         d="m 0.125,0.21 v -0.561 c 0,-0.052 0.007,-0.101 0.02,-0.149 0.013,-0.048 0.032,-0.093 0.057,-0.134 0.024,-0.042 0.053,-0.08 0.088,-0.114 0.034,-0.034 0.072,-0.064 0.113,-0.088 0.042,-0.024 0.087,-0.043 0.134,-0.057 0.048,-0.013 0.098,-0.02 0.15,-0.02 0.051,0 0.101,0.007 0.148,0.02 0.048,0.014 0.093,0.033 0.135,0.057 0.041,0.024 0.079,0.054 0.113,0.088 0.035,0.034 0.064,0.072 0.088,0.114 0.025,0.041 0.044,0.086 0.057,0.134 0.013,0.048 0.02,0.097 0.02,0.149 V 0.21 Z"
         style="fill-rule:nonzero"
         id="path14312" /><path
         d="m 0.687,-0.842 c 0.045,0 0.088,0.006 0.13,0.017 0.042,0.012 0.081,0.029 0.118,0.05 0.036,0.021 0.069,0.047 0.099,0.077 0.03,0.029 0.055,0.062 0.077,0.099 0.021,0.036 0.037,0.075 0.049,0.117 0.012,0.042 0.018,0.086 0.018,0.131 V 0.14 H 0.195 v -0.491 c 0,-0.045 0.006,-0.089 0.018,-0.131 0.012,-0.042 0.028,-0.081 0.049,-0.117 0.022,-0.037 0.047,-0.07 0.077,-0.099 0.03,-0.03 0.063,-0.056 0.099,-0.077 0.037,-0.021 0.076,-0.038 0.118,-0.05 0.042,-0.011 0.085,-0.017 0.131,-0.017 z"
         style="fill:#757575;fill-rule:nonzero"
         id="path14314" /><path
         d="m 1.107,-0.351 c 0,0.039 -0.005,0.076 -0.015,0.112 -0.01,0.036 -0.024,0.069 -0.042,0.1 -0.018,0.032 -0.04,0.06 -0.066,0.086 C 0.959,-0.028 0.93,-0.006 0.899,0.013 0.868,0.031 0.834,0.045 0.798,0.055 0.763,0.065 0.725,0.07 0.687,0.07 0.648,0.07 0.611,0.065 0.575,0.055 0.539,0.045 0.505,0.031 0.474,0.013 0.443,-0.006 0.414,-0.028 0.389,-0.053 0.363,-0.079 0.341,-0.107 0.323,-0.139 0.305,-0.17 0.29,-0.203 0.28,-0.239 0.27,-0.275 0.265,-0.312 0.265,-0.351 c 0,-0.039 0.005,-0.076 0.015,-0.112 0.01,-0.036 0.025,-0.069 0.043,-0.1 0.018,-0.032 0.04,-0.06 0.066,-0.086 0.025,-0.025 0.054,-0.047 0.085,-0.065 0.031,-0.019 0.065,-0.033 0.101,-0.043 0.036,-0.01 0.073,-0.015 0.112,-0.015 0.038,0 0.076,0.005 0.111,0.015 0.036,0.01 0.07,0.024 0.101,0.043 0.031,0.018 0.06,0.04 0.085,0.065 0.026,0.026 0.048,0.054 0.066,0.086 0.018,0.031 0.032,0.064 0.042,0.1 0.01,0.036 0.015,0.073 0.015,0.112 z"
         style="fill:#ffffff;fill-rule:nonzero"
         id="path14316" /><path
         d="m 0.722,-0.702 c 0,0.01 -0.004,0.018 -0.011,0.025 -0.006,0.007 -0.015,0.01 -0.024,0.01 -0.01,0 -0.019,-0.003 -0.025,-0.01 -0.007,-0.007 -0.011,-0.015 -0.011,-0.025 0,-0.01 0.004,-0.018 0.011,-0.025 0.007,-0.007 0.015,-0.01 0.025,-0.01 0.009,0 0.017,0.003 0.024,0.01 0.007,0.007 0.011,0.015 0.011,0.025 z m 0.175,0.035 c 0,0.01 -0.003,0.018 -0.01,0.025 -0.007,0.007 -0.015,0.01 -0.025,0.01 -0.009,0 -0.018,-0.003 -0.025,-0.01 -0.007,-0.007 -0.01,-0.015 -0.01,-0.025 0,-0.009 0.003,-0.018 0.01,-0.025 0.007,-0.007 0.015,-0.01 0.025,-0.01 0.01,0 0.018,0.003 0.025,0.01 0.007,0.007 0.01,0.016 0.01,0.025 z m 0.141,0.141 c 0,0.009 -0.004,0.017 -0.011,0.024 -0.007,0.007 -0.015,0.011 -0.025,0.011 -0.009,0 -0.017,-0.004 -0.024,-0.011 -0.007,-0.007 -0.011,-0.015 -0.011,-0.024 0,-0.01 0.004,-0.018 0.011,-0.025 0.006,-0.007 0.015,-0.011 0.024,-0.011 0.01,0 0.018,0.004 0.025,0.011 0.007,0.007 0.011,0.015 0.011,0.025 z m 0,0.21 c -0.01,0 -0.018,-0.003 -0.025,-0.01 -0.007,-0.007 -0.011,-0.015 -0.011,-0.025 0,-0.01 0.004,-0.018 0.011,-0.025 0.007,-0.007 0.015,-0.01 0.025,-0.01 0.009,0 0.017,0.003 0.024,0.01 0.007,0.007 0.011,0.015 0.011,0.025 0,0.009 -0.004,0.018 -0.011,0.025 -0.007,0.007 -0.015,0.01 -0.024,0.01 z M 1.002,-0.14 c -0.009,0 -0.018,-0.004 -0.024,-0.011 -0.007,-0.007 -0.011,-0.015 -0.011,-0.024 0,-0.01 0.004,-0.018 0.011,-0.025 0.006,-0.007 0.015,-0.011 0.024,-0.011 0.01,0 0.018,0.004 0.025,0.011 0.007,0.007 0.011,0.015 0.011,0.024 0,0.01 -0.004,0.018 -0.011,0.025 C 1.02,-0.144 1.012,-0.14 1.002,-0.14 Z M 0.862,0 C 0.852,0 0.844,-0.003 0.837,-0.01 0.83,-0.017 0.827,-0.026 0.827,-0.035 c 0,-0.01 0.003,-0.018 0.01,-0.025 0.007,-0.007 0.015,-0.01 0.025,-0.01 0.009,0 0.017,0.003 0.024,0.01 0.007,0.007 0.011,0.015 0.011,0.024 0,0.01 -0.003,0.019 -0.01,0.026 C 0.88,-0.003 0.872,0 0.862,0 Z M 0.651,0 c 0,-0.01 0.004,-0.018 0.011,-0.025 0.006,-0.007 0.015,-0.01 0.025,-0.01 0.009,0 0.018,0.003 0.024,0.01 C 0.718,-0.018 0.722,-0.01 0.722,0 0.722,0.009 0.718,0.018 0.711,0.025 0.704,0.032 0.696,0.035 0.687,0.035 0.677,0.035 0.669,0.032 0.662,0.025 0.655,0.018 0.651,0.009 0.651,0 Z M 0.476,-0.036 c 0,-0.009 0.003,-0.017 0.01,-0.024 0.007,-0.007 0.016,-0.01 0.025,-0.01 0.01,0 0.018,0.003 0.025,0.01 0.007,0.007 0.01,0.015 0.01,0.025 0,0.009 -0.003,0.018 -0.01,0.025 C 0.529,-0.003 0.521,0 0.511,0 0.501,0 0.493,-0.003 0.486,-0.01 0.479,-0.017 0.476,-0.026 0.476,-0.036 Z m -0.141,-0.14 c 0,-0.009 0.004,-0.017 0.011,-0.024 0.007,-0.007 0.015,-0.011 0.025,-0.011 0.009,0 0.017,0.004 0.024,0.011 0.007,0.007 0.011,0.015 0.011,0.024 0,0.01 -0.004,0.018 -0.01,0.025 C 0.389,-0.144 0.381,-0.14 0.371,-0.14 0.361,-0.14 0.353,-0.144 0.346,-0.151 0.339,-0.158 0.335,-0.166 0.335,-0.176 Z m 0,-0.21 c 0.01,0 0.019,0.003 0.025,0.01 0.007,0.007 0.011,0.015 0.011,0.025 0,0.01 -0.004,0.018 -0.011,0.025 -0.006,0.007 -0.015,0.01 -0.025,0.01 -0.009,0 -0.017,-0.003 -0.024,-0.01 C 0.304,-0.333 0.3,-0.342 0.3,-0.351 c 0,-0.01 0.004,-0.018 0.011,-0.025 0.007,-0.007 0.015,-0.01 0.024,-0.01 z m 0.036,-0.176 c 0.01,0 0.018,0.004 0.025,0.011 0.006,0.007 0.01,0.015 0.01,0.025 0,0.009 -0.004,0.017 -0.011,0.024 -0.007,0.007 -0.015,0.011 -0.024,0.011 -0.01,0 -0.018,-0.004 -0.025,-0.011 -0.007,-0.007 -0.011,-0.015 -0.011,-0.024 0,-0.01 0.004,-0.018 0.011,-0.025 0.007,-0.007 0.015,-0.011 0.025,-0.011 z m 0.14,-0.14 c 0.01,0 0.018,0.003 0.025,0.01 0.007,0.007 0.01,0.016 0.01,0.025 0,0.01 -0.003,0.018 -0.01,0.025 -0.007,0.007 -0.015,0.01 -0.025,0.01 -0.01,0 -0.018,-0.003 -0.025,-0.01 -0.007,-0.007 -0.01,-0.015 -0.01,-0.025 0,-0.009 0.003,-0.018 0.01,-0.025 0.007,-0.007 0.015,-0.01 0.025,-0.01 z"
         style="fill:#cccccc;fill-rule:nonzero"
         id="path14318" /><path
         d="m 0.476,-0.537 c 0,-0.006 0.003,-0.012 0.007,-0.017 0.005,-0.005 0.011,-0.008 0.017,-0.008 0.007,0 0.013,0.003 0.018,0.008 L 0.687,-0.386 0.651,-0.351 0.483,-0.519 C 0.479,-0.524 0.476,-0.53 0.476,-0.537 Z"
         style="fill:#f03a17;fill-rule:nonzero"
         id="path14320" /><path
         d="m 0.757,-0.351 c 0,0.01 -0.002,0.019 -0.006,0.027 -0.004,0.009 -0.009,0.016 -0.015,0.022 -0.006,0.007 -0.014,0.012 -0.022,0.016 -0.009,0.003 -0.018,0.005 -0.027,0.005 -0.01,0 -0.019,-0.002 -0.028,-0.005 C 0.651,-0.29 0.643,-0.295 0.637,-0.302 0.631,-0.308 0.626,-0.315 0.622,-0.324 0.618,-0.332 0.616,-0.341 0.616,-0.351 c 0,-0.01 0.002,-0.019 0.006,-0.027 0.004,-0.009 0.009,-0.016 0.015,-0.023 0.006,-0.006 0.014,-0.011 0.022,-0.015 0.009,-0.004 0.018,-0.005 0.028,-0.005 0.009,0 0.018,0.001 0.027,0.005 0.008,0.004 0.016,0.009 0.022,0.015 0.006,0.007 0.011,0.014 0.015,0.023 0.004,0.008 0.006,0.017 0.006,0.027 z"
         style="fill:#383838;fill-rule:nonzero"
         id="path14322" /></g></g></svg>
