<?xml version="1.0" encoding="UTF-8" standalone="no"?>
<svg
   width="15.795"
   height="16.844999"
   viewBox="0 0 15.795 16.844999"
   version="1.1"
   xml:space="preserve"
   style="clip-rule:evenodd;fill-rule:evenodd;stroke-linejoin:round;stroke-miterlimit:2"
   id="svg20568"
   sodipodi:docname="emojis.svg"
   xmlns:inkscape="http://www.inkscape.org/namespaces/inkscape"
   xmlns:sodipodi="http://sodipodi.sourceforge.net/DTD/sodipodi-0.dtd"
   xmlns="http://www.w3.org/2000/svg"
   xmlns:svg="http://www.w3.org/2000/svg"><defs
     id="defs20572" /><sodipodi:namedview
     id="namedview20570"
     pagecolor="#505050"
     bordercolor="#eeeeee"
     borderopacity="1"
     inkscape:pageshadow="0"
     inkscape:pageopacity="0"
     inkscape:pagecheckerboard="0" /><g
     transform="matrix(0.24,0,0,0.24,-136.78788,-127.68924)"
     id="g20566"><g
       transform="matrix(62.5,0,0,62.5,562.137,589.101)"
       id="g1436"><path
         d="m 1.037,-0.667 c 0.02,0 0.038,0.004 0.055,0.011 0.017,0.007 0.032,0.017 0.045,0.03 0.012,0.013 0.022,0.028 0.03,0.045 0.007,0.017 0.011,0.035 0.011,0.055 v 0.403 c 0,0.031 -0.004,0.06 -0.012,0.089 C 1.158,-0.006 1.147,0.021 1.132,0.045 1.118,0.07 1.1,0.093 1.08,0.113 1.06,0.133 1.037,0.15 1.013,0.165 0.988,0.179 0.961,0.191 0.933,0.198 0.904,0.206 0.875,0.21 0.844,0.21 0.824,0.21 0.804,0.209 0.784,0.205 0.765,0.201 0.745,0.196 0.727,0.189 0.708,0.183 0.69,0.174 0.672,0.164 0.655,0.153 0.639,0.141 0.625,0.127 0.602,0.107 0.581,0.086 0.56,0.066 0.539,0.045 0.518,0.024 0.496,0.003 0.506,0.019 0.511,0.035 0.511,0.053 0.511,0.065 0.509,0.076 0.504,0.087 0.5,0.097 0.494,0.107 0.486,0.115 0.478,0.122 0.468,0.129 0.458,0.133 0.447,0.138 0.435,0.14 0.423,0.14 0.382,0.14 0.344,0.132 0.307,0.117 0.271,0.101 0.239,0.08 0.212,0.053 0.185,0.026 0.164,-0.006 0.148,-0.042 0.133,-0.079 0.125,-0.117 0.125,-0.158 c 0,-0.012 0.002,-0.024 0.007,-0.034 0.004,-0.011 0.011,-0.02 0.019,-0.028 0.008,-0.008 0.017,-0.014 0.028,-0.019 0.01,-0.004 0.022,-0.007 0.034,-0.007 0.011,0 0.021,0.002 0.031,0.006 C 0.23,-0.252 0.219,-0.266 0.212,-0.282 0.204,-0.298 0.2,-0.315 0.2,-0.334 0.2,-0.348 0.202,-0.361 0.206,-0.374 0.21,-0.386 0.217,-0.398 0.225,-0.408 0.216,-0.422 0.208,-0.436 0.203,-0.45 0.198,-0.464 0.195,-0.479 0.195,-0.496 c 0,-0.016 0.003,-0.031 0.008,-0.045 0.005,-0.015 0.012,-0.028 0.022,-0.04 0.009,-0.012 0.02,-0.022 0.032,-0.031 0.013,-0.009 0.027,-0.015 0.042,-0.019 0.004,-0.015 0.01,-0.029 0.019,-0.042 0.009,-0.013 0.019,-0.024 0.031,-0.033 0.012,-0.009 0.026,-0.016 0.04,-0.021 0.015,-0.005 0.03,-0.008 0.046,-0.008 0.013,0 0.025,0.002 0.037,0.005 0.015,-0.018 0.032,-0.031 0.049,-0.041 0.018,-0.009 0.039,-0.014 0.062,-0.014 0.014,0 0.028,0.002 0.042,0.007 0.013,0.004 0.026,0.01 0.037,0.018 L 0.669,-0.772 C 0.664,-0.779 0.66,-0.788 0.656,-0.797 0.653,-0.806 0.651,-0.815 0.651,-0.825 c 0,-0.012 0.003,-0.023 0.007,-0.034 0.005,-0.011 0.011,-0.02 0.019,-0.028 0.008,-0.008 0.017,-0.014 0.028,-0.019 0.01,-0.004 0.022,-0.007 0.034,-0.007 0.036,0 0.071,0.007 0.104,0.019 0.032,0.012 0.062,0.029 0.088,0.051 0.026,0.022 0.048,0.048 0.065,0.078 0.018,0.03 0.03,0.063 0.037,0.098 0,0 0.001,0 0.002,0 0.001,0 0.001,0 0.002,0 z"
         style="fill-rule:nonzero"
         id="path1428" /><path
         d="m 1.038,-0.597 c 0.009,0 0.018,0.002 0.027,0.006 0.008,0.004 0.016,0.009 0.022,0.015 0.007,0.006 0.011,0.014 0.015,0.022 0.004,0.009 0.005,0.018 0.005,0.028 v 0.403 c 0,0.036 -0.006,0.071 -0.02,0.102 C 1.073,0.011 1.054,0.039 1.03,0.063 1.007,0.087 0.979,0.106 0.947,0.119 0.915,0.133 0.881,0.14 0.844,0.14 0.829,0.14 0.813,0.139 0.798,0.136 0.782,0.133 0.766,0.129 0.751,0.124 0.736,0.118 0.722,0.111 0.708,0.103 0.694,0.095 0.682,0.085 0.671,0.075 L 0.286,-0.297 C 0.275,-0.307 0.27,-0.32 0.27,-0.334 c 0,-0.007 0.001,-0.014 0.004,-0.02 0.003,-0.007 0.007,-0.012 0.012,-0.017 0.005,-0.005 0.01,-0.008 0.016,-0.011 0.007,-0.003 0.014,-0.004 0.021,-0.004 0.008,0 0.014,0.001 0.02,0.004 0.006,0.002 0.011,0.006 0.017,0.011 0.029,0.024 0.056,0.049 0.082,0.076 0.026,0.028 0.053,0.054 0.08,0.08 0.002,0.001 0.003,0.003 0.005,0.004 0.001,0.001 0.003,0.002 0.006,0.002 0.002,0 0.005,-0.002 0.008,-0.005 0.003,-0.002 0.005,-0.005 0.005,-0.008 0,-0.002 -0.001,-0.004 -0.003,-0.006 C 0.542,-0.23 0.54,-0.232 0.539,-0.233 0.493,-0.28 0.447,-0.326 0.402,-0.373 0.357,-0.419 0.312,-0.466 0.268,-0.513 0.272,-0.529 0.28,-0.541 0.293,-0.551 c 0.012,-0.01 0.026,-0.014 0.042,-0.014 0.011,0 0.019,0.001 0.027,0.005 0.008,0.004 0.016,0.009 0.023,0.015 0.021,0.018 0.041,0.037 0.061,0.056 0.02,0.019 0.039,0.038 0.059,0.058 0.019,0.02 0.039,0.04 0.058,0.059 0.02,0.02 0.04,0.04 0.059,0.059 0.002,0.002 0.003,0.003 0.005,0.004 0.002,0.002 0.004,0.002 0.006,0.002 0.002,0 0.005,-0.001 0.008,-0.004 0.003,-0.002 0.005,-0.005 0.005,-0.007 0,-0.001 0,-0.002 -0.001,-0.002 C 0.644,-0.321 0.644,-0.322 0.643,-0.322 0.626,-0.342 0.609,-0.361 0.59,-0.38 0.572,-0.399 0.554,-0.418 0.536,-0.437 0.508,-0.466 0.48,-0.496 0.452,-0.525 0.425,-0.555 0.396,-0.584 0.367,-0.613 0.372,-0.628 0.38,-0.641 0.392,-0.65 c 0.012,-0.01 0.026,-0.015 0.043,-0.015 0.01,0 0.019,0.002 0.026,0.006 0.008,0.003 0.016,0.008 0.023,0.015 0.009,0.008 0.017,0.016 0.025,0.024 0.008,0.009 0.016,0.017 0.025,0.025 0.031,0.031 0.063,0.06 0.094,0.09 0.032,0.029 0.063,0.059 0.094,0.089 0.002,0.002 0.003,0.004 0.005,0.006 0.002,0.001 0.004,0.002 0.006,0.002 0.003,0 0.006,-0.001 0.008,-0.004 0.003,-0.002 0.004,-0.005 0.004,-0.007 0,-0.001 -0.003,-0.005 -0.009,-0.012 C 0.73,-0.438 0.723,-0.447 0.713,-0.458 0.703,-0.468 0.691,-0.48 0.679,-0.494 0.666,-0.507 0.653,-0.521 0.639,-0.535 0.626,-0.549 0.612,-0.563 0.599,-0.577 L 0.532,-0.645 C 0.524,-0.654 0.519,-0.659 0.516,-0.662 0.52,-0.678 0.528,-0.69 0.541,-0.7 c 0.012,-0.01 0.026,-0.014 0.042,-0.014 0.01,0 0.019,0.001 0.028,0.005 0.008,0.004 0.016,0.009 0.022,0.015 l 0.312,0.312 c 0.001,0.001 0.003,0.003 0.004,0.006 0.001,0.002 0.002,0.004 0.003,0.006 l 0.015,0.01 v -0.166 c 0,-0.01 0.002,-0.019 0.006,-0.028 0.003,-0.008 0.008,-0.016 0.015,-0.022 0.006,-0.006 0.013,-0.011 0.022,-0.015 0.009,-0.004 0.018,-0.006 0.028,-0.006 z"
         style="fill:#ffc83d;fill-rule:nonzero"
         id="path1430" /><path
         d="m 0.268,-0.513 0.278,0.278 c 0.004,0.004 0.006,0.008 0.006,0.013 0,0.005 -0.002,0.009 -0.006,0.012 -0.004,0.004 -0.008,0.005 -0.012,0.005 -0.005,0 -0.009,-0.001 -0.013,-0.005 L 0.286,-0.445 C 0.279,-0.452 0.274,-0.46 0.271,-0.469 0.267,-0.477 0.265,-0.487 0.265,-0.496 c 0,-0.006 0.001,-0.011 0.003,-0.017 z m 0.099,-0.099 0.279,0.278 c 0.003,0.004 0.005,0.008 0.005,0.013 0,0.005 -0.002,0.009 -0.006,0.012 -0.003,0.004 -0.008,0.005 -0.012,0.005 -0.005,0 -0.009,-0.002 -0.012,-0.005 L 0.385,-0.545 C 0.379,-0.551 0.374,-0.559 0.37,-0.567 0.366,-0.576 0.364,-0.585 0.364,-0.594 c 0,-0.006 0.001,-0.012 0.003,-0.018 z m 0.149,-0.05 0.229,0.229 c 0.003,0.003 0.005,0.008 0.005,0.013 0,0.004 -0.002,0.008 -0.005,0.012 -0.004,0.003 -0.008,0.005 -0.013,0.005 -0.004,0 -0.008,-0.002 -0.012,-0.005 L 0.534,-0.595 C 0.527,-0.601 0.522,-0.609 0.519,-0.617 0.515,-0.626 0.514,-0.635 0.514,-0.645 c 0,-0.002 0,-0.005 0,-0.008 0,-0.003 0.001,-0.006 0.002,-0.009 z m 0.312,0.505 c 0,0.018 0.002,0.035 0.008,0.048 0.005,0.014 0.011,0.026 0.018,0.036 0.006,0.01 0.012,0.019 0.017,0.025 0.006,0.007 0.008,0.012 0.008,0.015 0,0.005 -0.001,0.009 -0.005,0.012 -0.004,0.004 -0.008,0.006 -0.012,0.006 -0.003,0 -0.005,-0.001 -0.007,-0.002 C 0.853,-0.018 0.852,-0.019 0.85,-0.021 0.841,-0.028 0.833,-0.038 0.826,-0.049 0.819,-0.059 0.813,-0.071 0.808,-0.083 0.803,-0.095 0.799,-0.108 0.797,-0.121 0.794,-0.134 0.793,-0.146 0.793,-0.157 c 0,-0.026 0.005,-0.05 0.014,-0.074 0.01,-0.024 0.024,-0.045 0.043,-0.062 l 0.093,-0.091 0.024,0.024 -0.093,0.091 c -0.015,0.015 -0.026,0.032 -0.034,0.052 -0.008,0.019 -0.012,0.039 -0.012,0.06 z"
         style="fill:#d48c00;fill-rule:nonzero"
         id="path1432" /><path
         d="m 0.739,-0.737 c 0.017,0 0.033,0.003 0.048,0.009 0.015,0.007 0.028,0.016 0.039,0.027 0.011,0.011 0.02,0.024 0.026,0.039 0.007,0.015 0.01,0.031 0.01,0.048 0,0.005 -0.002,0.009 -0.005,0.012 -0.004,0.004 -0.008,0.005 -0.013,0.005 -0.004,0 -0.008,-0.001 -0.012,-0.005 C 0.828,-0.606 0.827,-0.61 0.827,-0.614 0.827,-0.626 0.824,-0.638 0.82,-0.648 0.815,-0.659 0.809,-0.669 0.801,-0.677 0.793,-0.684 0.784,-0.691 0.773,-0.695 0.763,-0.7 0.751,-0.702 0.739,-0.702 0.734,-0.702 0.73,-0.704 0.727,-0.707 0.723,-0.711 0.722,-0.715 0.722,-0.72 c 0,-0.005 0.001,-0.009 0.005,-0.012 0.003,-0.004 0.007,-0.005 0.012,-0.005 z m 0,-0.105 c 0.032,0 0.061,0.006 0.089,0.018 0.027,0.012 0.051,0.028 0.072,0.049 0.021,0.021 0.037,0.045 0.049,0.072 0.012,0.028 0.018,0.057 0.018,0.089 0,0.005 -0.001,0.009 -0.005,0.012 -0.003,0.004 -0.007,0.005 -0.012,0.005 -0.005,0 -0.009,-0.001 -0.013,-0.005 C 0.934,-0.605 0.932,-0.609 0.932,-0.614 0.932,-0.641 0.927,-0.666 0.917,-0.689 0.907,-0.713 0.893,-0.733 0.876,-0.751 0.858,-0.768 0.838,-0.782 0.814,-0.792 0.791,-0.802 0.766,-0.807 0.739,-0.807 0.734,-0.807 0.73,-0.809 0.727,-0.812 0.723,-0.816 0.722,-0.82 0.722,-0.825 c 0,-0.005 0.001,-0.009 0.005,-0.012 0.003,-0.004 0.007,-0.005 0.012,-0.005 z m -0.298,0.789 c 0,0.005 -0.002,0.009 -0.005,0.013 -0.004,0.003 -0.008,0.005 -0.013,0.005 -0.017,0 -0.033,-0.003 -0.048,-0.01 C 0.361,-0.051 0.347,-0.06 0.336,-0.071 0.325,-0.082 0.317,-0.095 0.31,-0.11 0.304,-0.125 0.3,-0.141 0.3,-0.158 c 0,-0.005 0.002,-0.009 0.005,-0.013 0.004,-0.003 0.008,-0.005 0.013,-0.005 0.005,0 0.009,0.002 0.012,0.005 0.004,0.004 0.005,0.008 0.005,0.013 0,0.012 0.003,0.024 0.007,0.034 0.005,0.011 0.011,0.02 0.019,0.028 0.008,0.008 0.017,0.014 0.028,0.019 0.01,0.004 0.022,0.007 0.034,0.007 0.005,0 0.009,0.001 0.013,0.005 0.003,0.003 0.005,0.007 0.005,0.012 z m 0,0.106 C 0.441,0.057 0.439,0.061 0.436,0.065 0.432,0.069 0.428,0.07 0.423,0.07 0.392,0.07 0.362,0.064 0.334,0.052 0.307,0.04 0.283,0.024 0.262,0.003 0.241,-0.017 0.225,-0.042 0.213,-0.069 0.201,-0.097 0.195,-0.127 0.195,-0.158 c 0,-0.005 0.002,-0.009 0.005,-0.013 0.004,-0.003 0.008,-0.005 0.013,-0.005 0.005,0 0.009,0.002 0.012,0.005 0.004,0.004 0.005,0.008 0.005,0.013 0,0.026 0.006,0.052 0.016,0.075 0.01,0.023 0.023,0.044 0.041,0.062 0.017,0.017 0.038,0.031 0.061,0.041 0.024,0.01 0.049,0.015 0.075,0.015 0.005,0 0.009,0.002 0.013,0.005 0.003,0.004 0.005,0.008 0.005,0.013 z"
         style="fill:#31d2f7;fill-rule:nonzero"
         id="path1434" /></g></g></svg>
