<?xml version="1.0" encoding="UTF-8" standalone="no"?>
<svg
   width="8.4300003"
   height="16.844999"
   viewBox="0 0 8.4300003 16.844999"
   version="1.1"
   xml:space="preserve"
   style="clip-rule:evenodd;fill-rule:evenodd;stroke-linejoin:round;stroke-miterlimit:2"
   id="svg20568"
   sodipodi:docname="emojis.svg"
   xmlns:inkscape="http://www.inkscape.org/namespaces/inkscape"
   xmlns:sodipodi="http://sodipodi.sourceforge.net/DTD/sodipodi-0.dtd"
   xmlns="http://www.w3.org/2000/svg"
   xmlns:svg="http://www.w3.org/2000/svg"><defs
     id="defs20572" /><sodipodi:namedview
     id="namedview20570"
     pagecolor="#505050"
     bordercolor="#eeeeee"
     borderopacity="1"
     inkscape:pageshadow="0"
     inkscape:pageopacity="0"
     inkscape:pagecheckerboard="0" /><g
     transform="matrix(0.24,0,0,0.24,-179.12172,-749.3994)"
     id="g20566"><g
       transform="matrix(62.5,0,0,62.5,738.528,3179.56)"
       id="g14348"><path
         d="M 0.406,0.21 C 0.367,0.21 0.331,0.203 0.297,0.188 0.263,0.173 0.233,0.153 0.208,0.128 0.182,0.103 0.162,0.073 0.147,0.039 0.132,0.005 0.125,-0.032 0.125,-0.07 c 0,-0.034 0.006,-0.068 0.018,-0.099 0.013,-0.032 0.03,-0.061 0.052,-0.086 v -0.447 c 0,-0.029 0.006,-0.056 0.017,-0.082 0.011,-0.025 0.026,-0.048 0.045,-0.067 0.019,-0.019 0.041,-0.034 0.067,-0.045 0.026,-0.011 0.053,-0.017 0.082,-0.017 0.029,0 0.056,0.006 0.082,0.017 0.025,0.011 0.047,0.026 0.066,0.045 0.019,0.019 0.035,0.042 0.046,0.067 0.011,0.026 0.016,0.053 0.016,0.082 v 0.447 c 0.023,0.025 0.04,0.054 0.052,0.086 0.012,0.031 0.019,0.065 0.019,0.099 0,0.038 -0.008,0.075 -0.023,0.109 C 0.649,0.073 0.629,0.103 0.604,0.128 0.579,0.153 0.549,0.173 0.515,0.188 0.48,0.203 0.444,0.21 0.406,0.21 Z"
         style="fill-rule:nonzero"
         id="path14340" /><path
         d="M 0.406,0.14 C 0.377,0.14 0.35,0.135 0.324,0.124 0.298,0.112 0.276,0.097 0.257,0.078 0.238,0.059 0.223,0.037 0.212,0.011 0.201,-0.014 0.195,-0.041 0.195,-0.07 c 0,-0.03 0.006,-0.059 0.018,-0.086 0.012,-0.027 0.03,-0.051 0.052,-0.071 v -0.475 c 0,-0.019 0.004,-0.037 0.011,-0.054 0.008,-0.017 0.018,-0.032 0.031,-0.045 0.013,-0.012 0.028,-0.023 0.045,-0.03 0.016,-0.008 0.035,-0.011 0.054,-0.011 0.019,0 0.037,0.003 0.054,0.011 0.017,0.007 0.032,0.017 0.045,0.03 0.013,0.012 0.023,0.027 0.03,0.044 0.007,0.017 0.011,0.036 0.011,0.055 v 0.475 c 0.022,0.02 0.04,0.044 0.052,0.071 0.012,0.027 0.018,0.056 0.018,0.086 0,0.029 -0.005,0.056 -0.016,0.081 C 0.589,0.037 0.573,0.059 0.554,0.078 0.535,0.097 0.513,0.112 0.488,0.124 0.462,0.135 0.435,0.14 0.406,0.14 Z"
         style="fill:#ffffff;fill-rule:nonzero"
         id="path14342" /><path
         d="m 0.476,-0.702 v 0.18 H 0.335 v -0.18 c 0,-0.01 0.002,-0.019 0.006,-0.027 0.004,-0.009 0.009,-0.016 0.015,-0.023 0.007,-0.006 0.014,-0.011 0.022,-0.015 0.009,-0.003 0.018,-0.005 0.028,-0.005 0.01,0 0.019,0.002 0.027,0.005 0.009,0.004 0.016,0.009 0.022,0.015 0.007,0.007 0.012,0.014 0.015,0.023 0.004,0.008 0.006,0.017 0.006,0.027 z"
         style="fill:#31d2f7;fill-rule:nonzero"
         id="path14344" /><path
         d="m 0.476,-0.191 c 0.022,0.012 0.039,0.029 0.051,0.051 0.013,0.021 0.019,0.044 0.019,0.07 0,0.019 -0.004,0.038 -0.011,0.055 C 0.528,0.002 0.518,0.017 0.505,0.029 0.492,0.042 0.477,0.052 0.46,0.059 0.444,0.067 0.425,0.07 0.406,0.07 0.386,0.07 0.368,0.067 0.351,0.059 0.334,0.052 0.319,0.042 0.306,0.029 0.293,0.017 0.283,0.002 0.276,-0.015 0.269,-0.032 0.265,-0.051 0.265,-0.07 c 0,-0.026 0.006,-0.049 0.019,-0.07 0.013,-0.022 0.03,-0.039 0.051,-0.051 v -0.335 h 0.141 z"
         style="fill:#f03a17;fill-rule:nonzero"
         id="path14346" /></g></g></svg>
