<?xml version="1.0" encoding="UTF-8" standalone="no"?>
<svg
   width="16.844999"
   height="16.844999"
   viewBox="0 0 16.844999 16.844999"
   version="1.1"
   xml:space="preserve"
   style="clip-rule:evenodd;fill-rule:evenodd;stroke-linejoin:round;stroke-miterlimit:2"
   id="svg20568"
   sodipodi:docname="emojis.svg"
   xmlns:inkscape="http://www.inkscape.org/namespaces/inkscape"
   xmlns:sodipodi="http://sodipodi.sourceforge.net/DTD/sodipodi-0.dtd"
   xmlns="http://www.w3.org/2000/svg"
   xmlns:svg="http://www.w3.org/2000/svg"><defs
     id="defs20572" /><sodipodi:namedview
     id="namedview20570"
     pagecolor="#505050"
     bordercolor="#eeeeee"
     borderopacity="1"
     inkscape:pageshadow="0"
     inkscape:pageopacity="0"
     inkscape:pagecheckerboard="0" /><g
     transform="matrix(0.24,0,0,0.24,-232.48596,-749.3994)"
     id="g20566"><g
       transform="matrix(62.5,0,0,62.5,960.879,3179.56)"
       id="g14400"><path
         d="m 0.862,-0.76 c 0.037,0.008 0.072,0.02 0.106,0.036 0.034,0.017 0.065,0.036 0.094,0.059 0.028,0.023 0.054,0.048 0.077,0.077 0.023,0.028 0.042,0.059 0.059,0.092 0.016,0.033 0.028,0.067 0.037,0.104 0.009,0.036 0.013,0.073 0.013,0.111 0,0.045 -0.006,0.089 -0.018,0.131 C 1.219,-0.108 1.202,-0.069 1.181,-0.033 1.16,0.003 1.134,0.036 1.104,0.066 1.074,0.096 1.041,0.122 1.005,0.143 0.968,0.165 0.929,0.181 0.887,0.193 0.846,0.205 0.802,0.21 0.757,0.21 H 0.616 C 0.571,0.21 0.527,0.205 0.486,0.193 0.444,0.181 0.405,0.165 0.368,0.143 0.332,0.122 0.299,0.096 0.269,0.066 0.239,0.036 0.213,0.003 0.192,-0.033 0.171,-0.069 0.154,-0.108 0.143,-0.15 0.131,-0.192 0.125,-0.236 0.125,-0.281 0.125,-0.317 0.129,-0.352 0.137,-0.387 0.145,-0.422 0.156,-0.456 0.171,-0.488 0.186,-0.52 0.205,-0.55 0.226,-0.579 0.248,-0.607 0.273,-0.633 0.3,-0.657 0.284,-0.675 0.271,-0.693 0.261,-0.711 0.252,-0.729 0.245,-0.747 0.241,-0.766 0.236,-0.785 0.233,-0.805 0.232,-0.825 0.231,-0.845 0.23,-0.867 0.23,-0.891 v -0.022 h 0.632 z"
         style="fill-rule:nonzero"
         id="path14392" /><path
         d="m 0.757,-0.702 c 0.039,0 0.076,0.005 0.112,0.015 0.035,0.01 0.069,0.024 0.1,0.042 0.031,0.019 0.06,0.041 0.085,0.066 0.026,0.026 0.048,0.055 0.066,0.086 0.018,0.031 0.033,0.065 0.043,0.1 0.01,0.036 0.015,0.074 0.015,0.112 0,0.039 -0.005,0.076 -0.015,0.112 C 1.153,-0.133 1.138,-0.1 1.12,-0.068 1.102,-0.037 1.08,-0.009 1.054,0.017 1.029,0.042 1,0.064 0.969,0.083 0.938,0.101 0.904,0.115 0.869,0.125 0.833,0.135 0.796,0.14 0.757,0.14 H 0.616 C 0.577,0.14 0.54,0.135 0.504,0.125 0.469,0.115 0.435,0.101 0.404,0.083 0.373,0.064 0.344,0.042 0.319,0.017 0.293,-0.009 0.271,-0.037 0.253,-0.068 0.235,-0.1 0.221,-0.133 0.21,-0.169 0.2,-0.205 0.195,-0.242 0.195,-0.281 c 0,-0.038 0.005,-0.076 0.015,-0.112 0.011,-0.035 0.025,-0.069 0.043,-0.1 0.018,-0.031 0.04,-0.06 0.066,-0.086 0.025,-0.025 0.054,-0.047 0.085,-0.066 0.031,-0.018 0.065,-0.032 0.1,-0.042 0.036,-0.01 0.073,-0.015 0.112,-0.015 z m 0,0.737 c 0.03,-0.007 0.059,-0.02 0.084,-0.039 0.026,-0.018 0.048,-0.041 0.067,-0.066 0.019,-0.026 0.033,-0.054 0.044,-0.084 0.01,-0.03 0.015,-0.061 0.015,-0.092 H 0.897 L 0.843,-0.15 c -0.003,0.006 -0.009,0.009 -0.016,0.009 -0.004,0 -0.008,0 -0.01,-0.002 C 0.815,-0.144 0.813,-0.147 0.812,-0.15 L 0.757,-0.246 H 0.616 L 0.562,-0.15 c -0.003,0.006 -0.008,0.009 -0.016,0.009 -0.004,0 -0.007,0 -0.009,-0.002 C 0.535,-0.144 0.533,-0.147 0.531,-0.15 L 0.476,-0.246 h -0.07 c 0,0.031 0.005,0.062 0.015,0.092 0.011,0.03 0.025,0.058 0.044,0.084 0.019,0.025 0.041,0.048 0.067,0.066 0.025,0.019 0.054,0.032 0.084,0.039 L 0.671,-0.061 C 0.675,-0.067 0.68,-0.07 0.687,-0.07 c 0.006,0 0.011,0.003 0.015,0.009 z M 0.494,-0.562 c -0.006,0 -0.01,0.001 -0.012,0.003 -0.003,0.002 -0.006,0.005 -0.008,0.01 -0.002,0.003 -0.005,0.008 -0.009,0.015 -0.004,0.008 -0.009,0.017 -0.014,0.026 -0.005,0.01 -0.01,0.021 -0.015,0.032 -0.006,0.011 -0.01,0.021 -0.015,0.03 -0.004,0.01 -0.008,0.018 -0.011,0.025 -0.003,0.007 -0.004,0.011 -0.004,0.013 0,0.006 0.002,0.012 0.006,0.016 0.004,0.004 0.01,0.006 0.016,0.006 h 0.131 c 0.006,0 0.012,-0.002 0.016,-0.006 0.004,-0.004 0.007,-0.01 0.007,-0.016 0,-0.001 -0.002,-0.006 -0.005,-0.013 C 0.574,-0.428 0.57,-0.436 0.566,-0.446 0.561,-0.455 0.556,-0.465 0.551,-0.477 0.545,-0.488 0.54,-0.498 0.535,-0.508 0.53,-0.518 0.525,-0.526 0.521,-0.534 0.517,-0.542 0.514,-0.547 0.513,-0.549 0.51,-0.553 0.507,-0.556 0.505,-0.558 0.502,-0.56 0.499,-0.562 0.494,-0.562 Z m 0.385,0 c -0.004,0 -0.008,0.002 -0.011,0.004 -0.003,0.002 -0.006,0.005 -0.008,0.009 -0.002,0.002 -0.005,0.007 -0.009,0.015 -0.004,0.008 -0.008,0.016 -0.013,0.026 -0.005,0.01 -0.011,0.02 -0.016,0.031 -0.005,0.012 -0.01,0.022 -0.015,0.031 -0.004,0.01 -0.008,0.018 -0.011,0.025 -0.003,0.007 -0.004,0.012 -0.004,0.013 0,0.006 0.002,0.012 0.006,0.016 0.004,0.004 0.009,0.006 0.015,0.006 h 0.132 c 0.006,0 0.012,-0.002 0.016,-0.006 0.004,-0.004 0.006,-0.01 0.006,-0.016 0,-0.001 -0.001,-0.006 -0.004,-0.013 C 0.96,-0.428 0.956,-0.436 0.952,-0.446 0.947,-0.455 0.942,-0.465 0.937,-0.477 0.931,-0.488 0.926,-0.498 0.921,-0.508 0.916,-0.518 0.912,-0.526 0.907,-0.534 0.903,-0.542 0.901,-0.547 0.899,-0.549 0.896,-0.553 0.894,-0.556 0.891,-0.558 0.888,-0.56 0.884,-0.562 0.879,-0.562 Z m -0.192,0.141 c -0.004,0 -0.007,0 -0.01,0.002 -0.002,0.002 -0.004,0.004 -0.006,0.007 -0.002,0.003 -0.004,0.007 -0.007,0.014 -0.004,0.006 -0.007,0.013 -0.011,0.021 -0.004,0.007 -0.008,0.016 -0.013,0.024 -0.004,0.009 -0.008,0.017 -0.012,0.024 -0.003,0.008 -0.006,0.014 -0.008,0.02 -0.003,0.006 -0.004,0.01 -0.004,0.011 0,0.005 0.002,0.009 0.006,0.012 0.003,0.004 0.007,0.005 0.012,0.005 h 0.105 c 0.005,0 0.009,-10e-4 0.012,-0.005 0.004,-0.003 0.006,-0.007 0.006,-0.012 0,-0.001 -0.001,-0.005 -0.004,-0.011 C 0.751,-0.314 0.748,-0.321 0.745,-0.328 0.741,-0.336 0.737,-0.344 0.733,-0.353 0.728,-0.362 0.724,-0.37 0.72,-0.378 0.716,-0.386 0.712,-0.393 0.709,-0.399 0.706,-0.405 0.703,-0.409 0.702,-0.411 0.701,-0.414 0.698,-0.417 0.696,-0.418 0.693,-0.42 0.69,-0.421 0.687,-0.421 Z"
         style="fill:#f7630c;fill-rule:nonzero"
         id="path14394" /><path
         d="m 0.651,-0.662 v -0.18 h 0.141 v 0.14 c 0,0.01 -0.002,0.019 -0.006,0.027 -0.003,0.009 -0.008,0.016 -0.015,0.022 -0.006,0.007 -0.014,0.012 -0.022,0.016 -0.008,0.003 -0.018,0.005 -0.027,0.005 z"
         style="fill:#8e562e;fill-rule:nonzero"
         id="path14396" /><path
         d="M 0.722,-0.632 H 0.511 C 0.482,-0.632 0.455,-0.637 0.429,-0.648 0.403,-0.659 0.381,-0.674 0.362,-0.693 0.343,-0.712 0.328,-0.734 0.317,-0.76 0.306,-0.786 0.3,-0.813 0.3,-0.842 h 0.211 c 0.029,0 0.056,0.005 0.082,0.016 0.026,0.011 0.048,0.026 0.067,0.045 0.019,0.02 0.034,0.042 0.045,0.067 0.011,0.026 0.017,0.053 0.017,0.082 z"
         style="fill:#13a10e;fill-rule:nonzero"
         id="path14398" /></g></g></svg>
