<?xml version="1.0" encoding="UTF-8" standalone="no"?>
<svg
   width="16.844999"
   height="16.844999"
   viewBox="0 0 16.844999 16.844999"
   version="1.1"
   xml:space="preserve"
   style="clip-rule:evenodd;fill-rule:evenodd;stroke-linejoin:round;stroke-miterlimit:2"
   id="svg20568"
   sodipodi:docname="emojis.svg"
   xmlns:inkscape="http://www.inkscape.org/namespaces/inkscape"
   xmlns:sodipodi="http://sodipodi.sourceforge.net/DTD/sodipodi-0.dtd"
   xmlns="http://www.w3.org/2000/svg"
   xmlns:svg="http://www.w3.org/2000/svg"><defs
     id="defs20572" /><sodipodi:namedview
     id="namedview20570"
     pagecolor="#505050"
     bordercolor="#eeeeee"
     borderopacity="1"
     inkscape:pageshadow="0"
     inkscape:pageopacity="0"
     inkscape:pagecheckerboard="0" /><g
     transform="matrix(0.24,0,0,0.24,-328.6302,-749.3994)"
     id="g20566"><g
       transform="matrix(62.5,0,0,62.5,1361.48,3179.56)"
       id="g14474"><path
         d="M 0.897,0.07 V 0.105 C 0.897,0.12 0.895,0.133 0.889,0.146 0.884,0.159 0.876,0.17 0.866,0.179 0.857,0.189 0.846,0.197 0.833,0.202 0.82,0.208 0.807,0.21 0.792,0.21 0.777,0.21 0.764,0.208 0.751,0.202 0.738,0.197 0.727,0.189 0.718,0.179 0.708,0.17 0.7,0.159 0.695,0.146 0.689,0.133 0.687,0.12 0.687,0.105 V 0.07 H 0.651 V 0.123 C 0.651,0.135 0.649,0.146 0.645,0.157 0.64,0.168 0.634,0.177 0.626,0.185 0.618,0.193 0.608,0.199 0.598,0.204 0.587,0.208 0.576,0.21 0.563,0.21 0.553,0.21 0.543,0.209 0.533,0.205 0.524,0.201 0.515,0.197 0.508,0.19 0.5,0.184 0.493,0.176 0.488,0.168 0.483,0.159 0.479,0.15 0.477,0.139 0.462,0.137 0.448,0.133 0.435,0.125 0.422,0.118 0.41,0.109 0.401,0.098 0.391,0.087 0.384,0.075 0.378,0.061 0.373,0.047 0.37,0.033 0.37,0.018 c 0,-0.026 0.008,-0.05 0.023,-0.071 L 0.37,-0.07 C 0.355,-0.07 0.342,-0.073 0.329,-0.079 0.316,-0.084 0.305,-0.092 0.296,-0.101 0.286,-0.111 0.279,-0.122 0.273,-0.135 0.268,-0.147 0.265,-0.161 0.265,-0.176 c 0,0 0,-0.001 -0.001,-0.001 C 0.263,-0.178 0.262,-0.178 0.262,-0.178 0.255,-0.183 0.248,-0.187 0.241,-0.192 0.234,-0.196 0.227,-0.201 0.221,-0.207 0.206,-0.22 0.192,-0.235 0.18,-0.253 0.169,-0.271 0.159,-0.29 0.15,-0.31 0.142,-0.33 0.136,-0.35 0.132,-0.372 0.127,-0.393 0.125,-0.413 0.125,-0.433 c 0,-0.043 0.008,-0.083 0.025,-0.12 0.017,-0.037 0.04,-0.07 0.069,-0.097 0.029,-0.027 0.062,-0.049 0.1,-0.064 0.038,-0.016 0.079,-0.023 0.121,-0.023 h 0.071 c 0.012,0 0.023,-0.003 0.034,-0.007 0.011,-0.005 0.02,-0.011 0.028,-0.019 0.008,-0.008 0.014,-0.017 0.019,-0.028 0.004,-0.01 0.007,-0.022 0.007,-0.034 0,-0.012 0.002,-0.023 0.006,-0.034 0.005,-0.011 0.011,-0.02 0.019,-0.028 0.008,-0.008 0.018,-0.014 0.028,-0.019 0.011,-0.004 0.022,-0.007 0.035,-0.007 0.012,0 0.023,0.003 0.034,0.007 0.01,0.005 0.02,0.011 0.028,0.019 0.008,0.008 0.014,0.017 0.019,0.028 0.004,0.011 0.006,0.022 0.006,0.034 0,0.012 0.003,0.024 0.007,0.034 0.005,0.011 0.011,0.02 0.019,0.028 0.008,0.008 0.017,0.014 0.028,0.019 0.011,0.004 0.022,0.007 0.034,0.007 h 0.071 c 0.028,0 0.055,0.003 0.082,0.01 0.026,0.007 0.051,0.017 0.075,0.03 0.023,0.013 0.045,0.029 0.064,0.047 0.019,0.019 0.036,0.039 0.05,0.062 0.014,0.022 0.025,0.046 0.033,0.073 0.007,0.026 0.011,0.054 0.011,0.082 0,0.02 -0.002,0.04 -0.007,0.061 -0.004,0.022 -0.01,0.042 -0.018,0.062 -0.008,0.02 -0.018,0.039 -0.03,0.057 -0.012,0.018 -0.026,0.033 -0.041,0.046 -0.006,0.006 -0.013,0.011 -0.02,0.015 -0.007,0.005 -0.014,0.009 -0.021,0.014 0,0 -10e-4,0 -0.002,0.001 -10e-4,0 -10e-4,0.001 -10e-4,0.001 0,0.012 -0.002,0.023 -0.004,0.034 -0.003,0.011 -0.008,0.022 -0.014,0.031 -0.006,0.01 -0.013,0.018 -0.022,0.025 -0.008,0.007 -0.019,0.012 -0.03,0.016 v 0.035 c 0,0.014 -0.003,0.028 -0.009,0.041 C 1.024,0.019 1.016,0.03 1.007,0.039 0.997,0.049 0.986,0.056 0.974,0.062 0.961,0.068 0.947,0.07 0.933,0.07 Z"
         style="fill-rule:nonzero"
         id="path14460" /><path
         d="m 0.687,-0.842 c 0.004,0 0.009,0.001 0.012,0.005 0.003,0.003 0.005,0.007 0.005,0.012 0,0.022 0.004,0.043 0.013,0.062 0.008,0.019 0.019,0.035 0.033,0.05 0.015,0.014 0.032,0.025 0.051,0.034 0.019,0.008 0.039,0.012 0.061,0.012 h 0.071 v 0.035 H 0.862 C 0.843,-0.632 0.825,-0.635 0.807,-0.64 0.79,-0.645 0.773,-0.653 0.758,-0.663 0.743,-0.672 0.729,-0.684 0.717,-0.698 0.704,-0.712 0.694,-0.728 0.687,-0.745 0.679,-0.728 0.669,-0.712 0.656,-0.698 0.644,-0.684 0.631,-0.672 0.615,-0.663 0.6,-0.653 0.583,-0.645 0.566,-0.64 0.548,-0.635 0.53,-0.632 0.511,-0.632 H 0.44 v -0.035 h 0.071 c 0.022,0 0.042,-0.004 0.061,-0.012 0.019,-0.009 0.036,-0.02 0.051,-0.034 0.014,-0.015 0.025,-0.031 0.033,-0.05 0.009,-0.019 0.013,-0.04 0.013,-0.062 0,-0.005 0.002,-0.009 0.005,-0.012 0.003,-0.004 0.008,-0.005 0.013,-0.005 z"
         style="fill:#cccccc;fill-rule:nonzero"
         id="path14462" /><path
         d="m 0.937,-0.668 c 0.032,0 0.062,0.006 0.092,0.019 0.029,0.012 0.054,0.029 0.076,0.05 0.023,0.021 0.04,0.046 0.053,0.075 0.014,0.029 0.02,0.059 0.02,0.091 0,0.015 -10e-4,0.031 -0.005,0.047 -0.003,0.017 -0.008,0.033 -0.015,0.049 -0.007,0.016 -0.015,0.031 -0.024,0.045 -0.009,0.014 -0.02,0.026 -0.031,0.035 -0.004,0.003 -0.008,0.006 -0.012,0.008 -0.004,0.002 -0.008,0.003 -0.012,0.003 -0.006,0 -0.01,-0.001 -0.015,-0.003 C 1.06,-0.251 1.056,-0.254 1.053,-0.257 1.045,-0.263 1.037,-0.271 1.031,-0.278 1.024,-0.286 1.017,-0.294 1.009,-0.301 L 0.815,-0.5 C 0.807,-0.508 0.799,-0.515 0.791,-0.523 0.782,-0.53 0.775,-0.538 0.768,-0.547 0.764,-0.551 0.762,-0.554 0.76,-0.558 0.758,-0.561 0.757,-0.565 0.757,-0.571 c 0,-0.005 0.001,-0.009 0.003,-0.014 0.002,-0.004 0.005,-0.008 0.008,-0.012 0.01,-0.011 0.021,-0.021 0.034,-0.03 0.014,-0.009 0.028,-0.016 0.043,-0.022 0.016,-0.006 0.031,-0.011 0.047,-0.014 0.016,-0.003 0.031,-0.005 0.045,-0.005 z m -0.742,0.235 c 0,-0.032 0.006,-0.062 0.02,-0.091 0.013,-0.029 0.03,-0.054 0.053,-0.075 0.022,-0.021 0.047,-0.038 0.076,-0.05 0.03,-0.013 0.06,-0.019 0.092,-0.019 0.014,0 0.029,0.002 0.045,0.005 0.016,0.003 0.032,0.008 0.047,0.014 0.015,0.006 0.029,0.013 0.043,0.022 0.013,0.009 0.025,0.019 0.034,0.03 0.003,0.004 0.006,0.008 0.008,0.012 0.002,0.005 0.003,0.009 0.003,0.014 0,0.005 -0.001,0.009 -0.002,0.012 -0.002,0.003 -0.004,0.006 -0.007,0.01 L 0.605,-0.547 C 0.598,-0.538 0.59,-0.53 0.582,-0.523 0.574,-0.515 0.566,-0.507 0.558,-0.5 L 0.364,-0.301 C 0.356,-0.294 0.349,-0.286 0.343,-0.278 0.336,-0.271 0.328,-0.263 0.32,-0.257 0.317,-0.254 0.313,-0.251 0.309,-0.249 0.304,-0.247 0.3,-0.246 0.294,-0.246 0.29,-0.246 0.286,-0.247 0.282,-0.249 0.278,-0.251 0.274,-0.254 0.271,-0.257 0.259,-0.266 0.248,-0.278 0.239,-0.292 0.23,-0.306 0.222,-0.321 0.215,-0.337 0.208,-0.353 0.203,-0.369 0.2,-0.386 0.197,-0.402 0.195,-0.418 0.195,-0.433 Z"
         style="fill:#ffc83d;fill-rule:nonzero"
         id="path14464" /><path
         d="m 0.37,-0.21 c 0.01,0 0.018,0.003 0.025,0.01 0.007,0.007 0.01,0.015 0.01,0.024 0,0.01 -0.003,0.018 -0.01,0.025 -0.007,0.007 -0.015,0.01 -0.025,0.01 -0.009,0 -0.018,-0.003 -0.025,-0.01 -0.007,-0.007 -0.01,-0.015 -0.01,-0.025 0,-0.009 0.003,-0.017 0.01,-0.024 0.007,-0.007 0.016,-0.01 0.025,-0.01 z m 0.422,-0.018 c 0,0.008 0.003,0.013 0.009,0.015 0.006,0.002 0.013,0.004 0.02,0.004 L 0.845,-0.21 c 0.007,0 0.014,0.001 0.02,0.004 0.006,0.002 0.012,0.006 0.017,0.011 0.005,0.005 0.009,0.01 0.011,0.017 0.003,0.006 0.004,0.013 0.004,0.02 0,0.007 -0.001,0.014 -0.004,0.02 -0.002,0.006 -0.006,0.012 -0.011,0.017 -0.005,0.005 -0.011,0.009 -0.017,0.011 -0.006,0.003 -0.013,0.005 -0.02,0.005 H 0.81 c -0.008,0 -0.013,0.002 -0.015,0.008 -0.002,0.006 -0.003,0.012 -0.003,0.019 v 0.016 c 0,0.003 0,0.006 0,0.01 -0.001,0.003 -0.002,0.005 -0.003,0.008 -0.001,0.003 -0.003,0.005 -0.005,0.006 -0.003,0.002 -0.006,0.003 -0.01,0.003 -0.004,0 -0.007,-10e-4 -0.01,-0.003 C 0.762,-0.04 0.76,-0.042 0.759,-0.045 0.757,-0.048 0.757,-0.051 0.756,-0.054 c 0,-0.004 0,-0.007 0,-0.01 l 0.001,-0.024 c 0,-0.007 0.001,-0.014 0.004,-0.02 C 0.764,-0.115 0.768,-0.12 0.772,-0.125 0.777,-0.13 0.783,-0.134 0.789,-0.136 0.796,-0.139 0.802,-0.141 0.81,-0.141 l 0.023,10e-4 c 0.003,0 0.006,0 0.01,0 0.003,0 0.007,-10e-4 0.01,-0.003 0.002,-0.001 0.005,-0.003 0.007,-0.005 0.001,-0.003 0.002,-0.006 0.002,-0.01 0,-0.008 -0.003,-0.013 -0.009,-0.015 C 0.847,-0.176 0.84,-0.177 0.833,-0.177 L 0.81,-0.176 C 0.802,-0.176 0.796,-0.177 0.789,-0.18 0.783,-0.183 0.777,-0.186 0.772,-0.191 0.768,-0.195 0.764,-0.201 0.761,-0.207 0.758,-0.214 0.757,-0.221 0.757,-0.228 c 0,-0.007 0.001,-0.014 0.004,-0.021 0.003,-0.006 0.006,-0.012 0.011,-0.016 0.005,-0.005 0.01,-0.009 0.017,-0.012 0.006,-0.002 0.013,-0.004 0.021,-0.004 l 0.023,0.001 c 0.003,0 0.006,0 0.01,0 0.003,-0.001 0.007,-0.001 0.01,-0.003 0.002,-0.001 0.005,-0.003 0.007,-0.005 0.001,-0.003 0.002,-0.006 0.002,-0.01 0,-0.005 -0.001,-0.008 -0.002,-0.01 C 0.858,-0.311 0.855,-0.313 0.853,-0.314 0.85,-0.315 0.846,-0.316 0.843,-0.316 0.84,-0.317 0.836,-0.317 0.833,-0.317 L 0.81,-0.316 C 0.798,-0.316 0.788,-0.318 0.781,-0.322 0.774,-0.326 0.769,-0.332 0.765,-0.339 0.761,-0.347 0.759,-0.355 0.758,-0.364 0.756,-0.372 0.756,-0.382 0.756,-0.392 c 0,-0.003 0,-0.006 0,-0.01 0.001,-0.003 0.001,-0.007 0.003,-0.01 0.001,-0.003 0.003,-0.005 0.005,-0.007 0.003,-0.001 0.006,-0.002 0.01,-0.002 0.008,0 0.013,0.002 0.015,0.007 0.002,0.006 0.003,0.011 0.003,0.018 v 0.02 c 0,0.009 0.001,0.016 0.005,0.02 0.003,0.004 0.009,0.006 0.019,0.006 l 0.029,-0.001 c 0.007,0 0.014,0.001 0.02,0.004 0.006,0.003 0.012,0.007 0.017,0.012 0.005,0.004 0.009,0.01 0.011,0.016 0.003,0.007 0.004,0.013 0.004,0.021 0,0.007 -0.001,0.014 -0.004,0.02 -0.002,0.006 -0.006,0.012 -0.011,0.017 -0.005,0.005 -0.011,0.008 -0.017,0.011 -0.006,0.003 -0.013,0.004 -0.02,0.004 L 0.822,-0.247 c -0.003,0 -0.007,0.001 -0.01,0.001 -0.004,0 -0.007,0.001 -0.01,0.002 -0.003,0.002 -0.006,0.004 -0.007,0.006 -0.002,0.002 -0.003,0.006 -0.003,0.01 z"
         style="fill:#886ce4;fill-rule:nonzero"
         id="path14466" /><path
         d="m 1.003,-0.21 c 0.009,0 0.018,0.003 0.024,0.01 0.007,0.007 0.011,0.015 0.011,0.024 0,0.01 -0.004,0.018 -0.011,0.025 -0.006,0.007 -0.015,0.01 -0.024,0.01 -0.01,0 -0.018,-0.003 -0.025,-0.01 -0.007,-0.007 -0.01,-0.015 -0.01,-0.025 0,-0.009 0.003,-0.017 0.01,-0.024 0.007,-0.007 0.015,-0.01 0.025,-0.01 z M 0.687,-0.281 c 0.009,0 0.018,0.004 0.024,0.01 0.007,0.007 0.011,0.016 0.011,0.025 0,0.01 -0.004,0.018 -0.011,0.025 -0.007,0.007 -0.015,0.011 -0.024,0.011 -0.01,0 -0.018,-0.004 -0.025,-0.011 -0.007,-0.007 -0.011,-0.015 -0.011,-0.025 0,-0.009 0.004,-0.018 0.011,-0.025 0.006,-0.006 0.015,-0.01 0.025,-0.01 z m -0.124,0.035 c 0.005,0 0.008,0.001 0.01,0.003 0.003,0.002 0.005,0.005 0.006,0.008 0.001,0.003 0.002,0.006 0.003,0.009 0,0.004 0,0.007 0,0.01 0,0.01 -0.001,0.019 -0.002,0.028 -0.001,0.009 -0.003,0.017 -0.007,0.024 -0.004,0.007 -0.009,0.013 -0.016,0.017 -0.008,0.004 -0.017,0.006 -0.029,0.006 L 0.505,-0.142 c -0.003,0 -0.006,0.001 -0.01,0.001 -0.003,0 -0.007,10e-4 -0.01,0.002 -0.003,0.002 -0.005,0.004 -0.007,0.006 -0.002,0.002 -0.002,0.006 -0.002,0.01 0,0.008 0.003,0.013 0.009,0.015 0.006,0.002 0.012,0.004 0.02,0.004 l 0.023,-0.001 c 0.007,0 0.014,0.001 0.021,0.004 0.006,0.002 0.012,0.006 0.016,0.011 0.005,0.005 0.009,0.011 0.012,0.017 0.003,0.006 0.004,0.013 0.004,0.02 0,0.007 -0.001,0.014 -0.004,0.021 C 0.574,-0.026 0.57,-0.021 0.565,-0.016 0.561,-0.011 0.555,-0.007 0.549,-0.004 0.542,-0.001 0.535,0 0.528,0 L 0.505,-0.001 c -0.003,0 -0.006,0 -0.01,0.001 C 0.492,0 0.488,0.001 0.485,0.002 0.482,0.003 0.48,0.005 0.478,0.008 0.476,0.01 0.476,0.013 0.476,0.018 c 0,0.007 0.003,0.012 0.009,0.015 0.006,0.002 0.012,0.003 0.02,0.003 L 0.528,0.035 c 0.007,0 0.014,0.002 0.021,0.004 0.006,0.003 0.012,0.007 0.016,0.012 0.005,0.004 0.009,0.01 0.012,0.016 0.003,0.006 0.004,0.013 0.004,0.02 L 0.582,0.11 c 0,0.004 0,0.007 0,0.011 C 0.581,0.124 0.58,0.127 0.579,0.13 0.578,0.133 0.576,0.136 0.573,0.137 0.571,0.139 0.568,0.14 0.563,0.14 0.556,0.14 0.551,0.137 0.549,0.132 0.546,0.126 0.545,0.12 0.545,0.113 L 0.546,0.097 c 0,-0.004 0,-0.007 -0.001,-0.01 C 0.545,0.084 0.544,0.081 0.543,0.079 0.542,0.076 0.54,0.074 0.538,0.073 0.535,0.071 0.532,0.07 0.528,0.07 H 0.493 C 0.486,0.07 0.479,0.069 0.473,0.066 0.467,0.063 0.461,0.06 0.456,0.055 0.451,0.05 0.447,0.044 0.445,0.038 0.442,0.031 0.44,0.025 0.44,0.018 0.44,0.01 0.442,0.004 0.445,-0.003 0.447,-0.009 0.451,-0.015 0.456,-0.02 0.461,-0.024 0.467,-0.028 0.473,-0.031 0.479,-0.034 0.486,-0.035 0.493,-0.035 l 0.023,0.001 c 0.003,0 0.007,0 0.01,-0.001 0.004,0 0.007,-10e-4 0.01,-0.002 0.003,-0.001 0.005,-0.003 0.007,-0.006 0.002,-0.002 0.003,-0.006 0.003,-0.01 0,-0.008 -0.003,-0.013 -0.009,-0.015 C 0.531,-0.07 0.524,-0.071 0.517,-0.071 L 0.493,-0.07 C 0.486,-0.07 0.479,-0.072 0.473,-0.074 0.467,-0.077 0.461,-0.081 0.456,-0.086 0.451,-0.091 0.447,-0.096 0.445,-0.103 0.442,-0.109 0.44,-0.116 0.44,-0.123 c 0,-0.007 0.002,-0.014 0.005,-0.02 0.002,-0.007 0.006,-0.012 0.011,-0.017 0.005,-0.005 0.011,-0.009 0.017,-0.012 0.006,-0.002 0.013,-0.004 0.02,-0.004 h 0.035 c 0.008,0 0.013,-0.002 0.015,-0.008 0.003,-0.005 0.004,-0.011 0.004,-0.018 L 0.546,-0.221 c 0,-0.006 0.001,-0.012 0.003,-0.017 0.002,-0.005 0.007,-0.008 0.014,-0.008 z"
         style="fill:#00bcf2;fill-rule:nonzero"
         id="path14468" /><path
         d="m 0.687,-0.491 c 0.009,0 0.017,0.003 0.024,0.01 0.007,0.007 0.011,0.015 0.011,0.024 0,0.01 -0.004,0.019 -0.011,0.025 -0.006,0.007 -0.015,0.011 -0.024,0.011 -0.01,0 -0.019,-0.004 -0.025,-0.011 -0.007,-0.006 -0.011,-0.015 -0.011,-0.025 0,-0.009 0.004,-0.017 0.011,-0.024 0.007,-0.007 0.015,-0.01 0.025,-0.01 z m 0.246,0.421 c 0.009,0 0.017,0.003 0.024,0.01 0.007,0.007 0.011,0.015 0.011,0.025 0,0.009 -0.004,0.018 -0.011,0.025 C 0.95,-0.003 0.942,0 0.933,0 0.923,0 0.915,-0.003 0.908,-0.01 0.901,-0.017 0.897,-0.025 0.897,-0.035 c 0,-0.01 0.004,-0.018 0.011,-0.025 0.007,-0.007 0.015,-0.01 0.025,-0.01 z m -0.246,0 c 0.009,0 0.018,0.003 0.024,0.01 0.007,0.007 0.011,0.015 0.011,0.025 0,0.01 -0.004,0.018 -0.011,0.025 C 0.705,-0.003 0.696,0 0.687,0 0.677,0 0.668,-0.003 0.662,-0.01 0.655,-0.017 0.651,-0.025 0.651,-0.035 c 0,-0.01 0.004,-0.018 0.011,-0.025 0.006,-0.007 0.015,-0.01 0.025,-0.01 z"
         style="fill:#f03a17;fill-rule:nonzero"
         id="path14470" /><path
         d="m 0.546,-0.386 c 0.01,0 0.018,0.003 0.025,0.01 0.007,0.007 0.01,0.015 0.01,0.025 0,0.01 -0.003,0.018 -0.01,0.025 -0.007,0.007 -0.015,0.01 -0.025,0.01 -0.01,0 -0.018,-0.003 -0.025,-0.01 -0.007,-0.007 -0.01,-0.015 -0.01,-0.025 0,-0.01 0.003,-0.018 0.01,-0.025 0.007,-0.007 0.015,-0.01 0.025,-0.01 z M 0.792,0.07 c 0.009,0 0.018,0.004 0.025,0.011 0.007,0.006 0.01,0.015 0.01,0.024 0,0.01 -0.003,0.018 -0.01,0.025 C 0.81,0.137 0.802,0.14 0.792,0.14 0.782,0.14 0.774,0.137 0.767,0.13 0.76,0.123 0.757,0.115 0.757,0.105 0.757,0.096 0.76,0.087 0.767,0.081 0.774,0.074 0.783,0.07 0.792,0.07 Z"
         style="fill:#fff100;fill-rule:nonzero"
         id="path14472" /></g></g></svg>
