<?xml version="1.0" encoding="UTF-8" standalone="no"?>
<svg
   width="16.844999"
   height="16.844999"
   viewBox="0 0 16.844999 16.844999"
   version="1.1"
   xml:space="preserve"
   style="clip-rule:evenodd;fill-rule:evenodd;stroke-linejoin:round;stroke-miterlimit:2"
   id="svg20568"
   sodipodi:docname="emojis.svg"
   xmlns:inkscape="http://www.inkscape.org/namespaces/inkscape"
   xmlns:sodipodi="http://sodipodi.sourceforge.net/DTD/sodipodi-0.dtd"
   xmlns="http://www.w3.org/2000/svg"
   xmlns:svg="http://www.w3.org/2000/svg"><defs
     id="defs20572" /><sodipodi:namedview
     id="namedview20570"
     pagecolor="#505050"
     bordercolor="#eeeeee"
     borderopacity="1"
     inkscape:pageshadow="0"
     inkscape:pageopacity="0"
     inkscape:pagecheckerboard="0" /><g
     transform="matrix(0.24,0,0,0.24,-308.0358,-749.3994)"
     id="g20566"><g
       transform="matrix(62.5,0,0,62.5,1275.67,3179.56)"
       id="g14458"><path
         d="m 0.265,-0.597 c 0,-0.014 0.003,-0.028 0.008,-0.041 0.006,-0.012 0.014,-0.024 0.023,-0.033 0.01,-0.01 0.021,-0.017 0.034,-0.023 0.012,-0.005 0.026,-0.008 0.041,-0.008 H 0.406 V -0.72 c 0,-0.015 0.003,-0.03 0.008,-0.043 0.006,-0.014 0.013,-0.027 0.023,-0.038 0.009,-0.01 0.02,-0.019 0.033,-0.027 0.013,-0.007 0.027,-0.011 0.043,-0.013 0.002,-0.01 0.005,-0.02 0.01,-0.029 0.006,-0.008 0.012,-0.016 0.02,-0.022 0.007,-0.007 0.016,-0.012 0.026,-0.015 0.009,-0.004 0.019,-0.006 0.03,-0.006 0.012,0 0.023,0.003 0.034,0.007 0.011,0.005 0.02,0.011 0.028,0.019 0.008,0.008 0.014,0.017 0.019,0.028 0.004,0.011 0.007,0.022 0.007,0.034 v 0.053 h 0.035 c 0.014,0 0.028,0.003 0.041,0.008 0.012,0.006 0.023,0.013 0.033,0.023 0.009,0.009 0.017,0.02 0.022,0.033 0.006,0.013 0.009,0.026 0.009,0.041 0,0.018 -0.005,0.035 -0.013,0.051 -0.008,0.016 -0.021,0.028 -0.036,0.038 0.005,0.009 0.009,0.019 0.012,0.029 0.022,-0.006 0.044,-0.009 0.066,-0.011 0.023,-0.001 0.046,-0.002 0.068,-0.002 0.01,-0.011 0.022,-0.019 0.036,-0.025 0.013,-0.007 0.027,-0.01 0.042,-0.01 0.015,0 0.029,0.003 0.042,0.009 0.012,0.005 0.023,0.013 0.032,0.022 0.01,0.01 0.017,0.021 0.022,0.034 0.006,0.012 0.009,0.026 0.009,0.041 0.001,0.006 0.001,0.011 0.001,0.017 v 0.017 c 0.011,0.005 0.02,0.011 0.028,0.018 0.008,0.008 0.015,0.016 0.021,0.025 0.006,0.01 0.01,0.02 0.014,0.031 0.003,0.01 0.005,0.021 0.007,0.032 0.01,0.002 0.02,0.006 0.028,0.011 0.009,0.006 0.016,0.012 0.023,0.02 0.006,0.008 0.011,0.017 0.014,0.027 0.003,0.009 0.005,0.019 0.005,0.03 0,0.012 -0.002,0.023 -0.007,0.034 -0.004,0.01 -0.011,0.02 -0.019,0.028 -0.008,0.008 -0.017,0.014 -0.028,0.018 -0.01,0.005 -0.022,0.007 -0.034,0.007 H 1.038 v 0.035 c 0,0.015 -0.003,0.029 -0.009,0.041 -0.005,0.013 -0.013,0.024 -0.022,0.034 -0.01,0.009 -0.021,0.017 -0.034,0.023 -0.013,0.005 -0.026,0.008 -0.041,0.008 -0.015,0 -0.03,-0.004 -0.045,-0.01 C 0.873,-0.052 0.861,-0.062 0.851,-0.074 0.843,-0.054 0.832,-0.038 0.819,-0.025 0.805,-0.012 0.788,-0.002 0.77,0.006 L 0.312,0.202 C 0.305,0.205 0.297,0.208 0.289,0.209 0.281,0.21 0.273,0.21 0.265,0.21 0.246,0.21 0.228,0.207 0.211,0.2 0.194,0.193 0.18,0.183 0.167,0.17 0.154,0.158 0.144,0.143 0.136,0.126 0.129,0.11 0.125,0.092 0.125,0.073 0.125,0.064 0.126,0.055 0.127,0.046 0.129,0.037 0.132,0.028 0.135,0.02 L 0.33,-0.434 C 0.334,-0.445 0.34,-0.456 0.346,-0.465 0.352,-0.474 0.36,-0.483 0.369,-0.492 0.355,-0.492 0.341,-0.495 0.329,-0.5 0.316,-0.506 0.305,-0.514 0.296,-0.523 0.286,-0.532 0.279,-0.543 0.273,-0.556 0.268,-0.569 0.265,-0.582 0.265,-0.597 Z"
         style="fill-rule:nonzero"
         id="path14446" /><path
         d="m 0.879,-0.491 c 0.005,0 0.009,0.001 0.013,0.005 0.003,0.003 0.005,0.007 0.005,0.012 0,0.005 -0.002,0.009 -0.005,0.012 -0.004,0.004 -0.008,0.005 -0.013,0.005 -0.031,0 -0.061,0.006 -0.088,0.019 -0.028,0.012 -0.052,0.028 -0.073,0.049 -0.021,0.02 -0.037,0.044 -0.049,0.072 -0.012,0.028 -0.018,0.057 -0.018,0.089 0,0.005 -0.001,0.009 -0.005,0.012 C 0.642,-0.212 0.638,-0.21 0.634,-0.21 0.629,-0.21 0.625,-0.212 0.622,-0.216 0.618,-0.219 0.616,-0.223 0.616,-0.228 0.616,-0.264 0.623,-0.298 0.637,-0.33 0.651,-0.362 0.67,-0.39 0.693,-0.414 0.717,-0.438 0.745,-0.457 0.777,-0.47 0.809,-0.484 0.843,-0.491 0.879,-0.491 Z M 0.371,-0.632 c 0.009,0 0.018,0.004 0.025,0.01 0.006,0.007 0.01,0.016 0.01,0.025 0,0.01 -0.004,0.018 -0.01,0.025 -0.007,0.007 -0.016,0.01 -0.025,0.01 -0.01,0 -0.018,-0.003 -0.025,-0.01 -0.007,-0.007 -0.011,-0.015 -0.011,-0.025 0,-0.009 0.004,-0.018 0.011,-0.025 0.007,-0.006 0.015,-0.01 0.025,-0.01 z"
         style="fill:#886ce4;fill-rule:nonzero"
         id="path14448" /><path
         d="M 0.265,0.14 C 0.256,0.14 0.247,0.138 0.239,0.135 0.23,0.132 0.223,0.127 0.217,0.121 0.21,0.114 0.205,0.107 0.201,0.099 0.197,0.091 0.195,0.082 0.195,0.073 0.195,0.068 0.196,0.064 0.196,0.06 0.197,0.055 0.198,0.051 0.2,0.047 l 0.195,-0.455 c 0.007,-0.015 0.015,-0.026 0.026,-0.035 0.011,-0.009 0.024,-0.013 0.041,-0.013 0.01,0 0.019,0.002 0.027,0.005 0.008,0.003 0.015,0.009 0.022,0.016 l 0.26,0.259 c 0.007,0.007 0.012,0.014 0.015,0.023 0.004,0.009 0.006,0.018 0.006,0.027 0,0.017 -0.004,0.03 -0.013,0.041 -0.008,0.011 -0.02,0.019 -0.035,0.026 L 0.288,0.137 C 0.284,0.138 0.281,0.139 0.277,0.139 0.273,0.14 0.269,0.14 0.265,0.14 Z"
         style="fill:#ffc83d;fill-rule:nonzero"
         id="path14450" /><path
         d="m 0.581,-0.176 c 0.009,0 0.018,0.004 0.025,0.011 0.007,0.007 0.01,0.015 0.01,0.024 0,0.01 -0.003,0.018 -0.01,0.025 -0.007,0.007 -0.015,0.011 -0.025,0.011 -0.009,0 -0.018,-0.004 -0.025,-0.011 -0.007,-0.007 -0.01,-0.015 -0.01,-0.025 0,-0.009 0.003,-0.017 0.01,-0.024 0.007,-0.007 0.016,-0.011 0.025,-0.011 z m 0.141,-0.526 c 0.009,0 0.018,0.003 0.025,0.01 0.006,0.007 0.01,0.015 0.01,0.025 0,0.01 -0.004,0.018 -0.01,0.025 -0.007,0.007 -0.016,0.01 -0.025,0.01 -0.01,0 -0.018,-0.003 -0.025,-0.01 -0.007,-0.007 -0.01,-0.015 -0.01,-0.025 0,-0.01 0.003,-0.018 0.01,-0.025 0.007,-0.007 0.015,-0.01 0.025,-0.01 z m -0.123,-0.14 c 0.004,0 0.007,0.001 0.01,0.002 0.002,0.002 0.004,0.005 0.005,0.007 0.002,0.003 0.002,0.007 0.003,0.01 0,0.003 0,0.007 0,0.01 0,0.01 0,0.019 -0.002,0.028 -0.001,0.009 -0.003,0.017 -0.007,0.024 -0.004,0.007 -0.009,0.013 -0.016,0.017 -0.007,0.005 -0.016,0.007 -0.029,0.007 L 0.541,-0.738 c -0.003,0 -0.007,0 -0.01,0 -0.004,0.001 -0.007,0.001 -0.01,0.003 -0.003,0.001 -0.005,0.003 -0.007,0.005 -0.002,0.003 -0.003,0.006 -0.003,0.01 0,0.008 0.003,0.013 0.009,0.015 0.006,0.003 0.013,0.004 0.021,0.004 l 0.022,-0.001 c 0.008,0 0.014,0.001 0.021,0.004 0.006,0.003 0.012,0.007 0.017,0.011 0.004,0.005 0.008,0.011 0.011,0.017 0.003,0.007 0.004,0.013 0.004,0.021 0,0.007 -0.001,0.014 -0.004,0.02 -0.003,0.007 -0.006,0.012 -0.011,0.017 -0.005,0.005 -0.011,0.008 -0.017,0.011 -0.007,0.003 -0.013,0.004 -0.021,0.004 L 0.541,-0.598 c -0.003,0 -0.007,0.001 -0.01,0.001 -0.004,0 -0.007,0.001 -0.01,0.002 -0.003,0.002 -0.005,0.003 -0.007,0.006 -0.002,0.002 -0.003,0.006 -0.003,0.01 0,0.008 0.003,0.013 0.009,0.015 0.006,0.002 0.013,0.003 0.021,0.003 l 0.022,-0.001 c 0.008,0 0.014,0.002 0.021,0.005 0.006,0.002 0.012,0.006 0.017,0.011 0.005,0.005 0.008,0.01 0.011,0.017 0.003,0.006 0.004,0.013 0.004,0.02 l 0.001,0.023 c 0,0.003 0,0.006 0,0.01 -0.001,0.004 -0.001,0.007 -0.003,0.01 -0.001,0.003 -0.003,0.005 -0.005,0.007 -0.003,0.002 -0.006,0.002 -0.01,0.002 -0.008,0 -0.013,-0.002 -0.015,-0.008 C 0.582,-0.471 0.581,-0.477 0.581,-0.484 V -0.5 c 0,-0.003 0,-0.006 0,-0.01 C 0.58,-0.513 0.58,-0.515 0.578,-0.518 0.577,-0.52 0.575,-0.522 0.573,-0.524 0.571,-0.526 0.567,-0.526 0.563,-0.526 H 0.529 c -0.007,0 -0.014,-0.002 -0.02,-0.005 C 0.502,-0.533 0.497,-0.537 0.492,-0.542 0.487,-0.547 0.483,-0.552 0.48,-0.559 0.477,-0.565 0.476,-0.572 0.476,-0.579 0.476,-0.586 0.477,-0.593 0.48,-0.6 0.483,-0.606 0.487,-0.612 0.491,-0.616 0.496,-0.621 0.502,-0.625 0.508,-0.628 0.514,-0.63 0.521,-0.632 0.529,-0.632 l 0.022,0.001 c 0.004,0 0.007,0 0.011,0 0.003,-0.001 0.006,-0.001 0.009,-0.003 0.003,-0.001 0.006,-0.003 0.007,-0.005 0.002,-0.003 0.003,-0.006 0.003,-0.01 0,-0.008 -0.003,-0.013 -0.009,-0.016 C 0.566,-0.667 0.559,-0.668 0.552,-0.668 L 0.529,-0.667 C 0.521,-0.667 0.514,-0.668 0.508,-0.671 0.502,-0.674 0.496,-0.678 0.491,-0.682 0.487,-0.687 0.483,-0.693 0.48,-0.699 0.477,-0.705 0.476,-0.712 0.476,-0.72 c 0,-0.007 0.001,-0.014 0.004,-0.02 0.003,-0.006 0.007,-0.012 0.012,-0.017 0.005,-0.004 0.01,-0.008 0.017,-0.011 0.006,-0.003 0.013,-0.004 0.02,-0.004 h 0.034 c 0.008,0 0.013,-0.003 0.016,-0.008 0.002,-0.006 0.003,-0.012 0.003,-0.018 l -0.001,-0.02 c 0,-0.006 0.001,-0.012 0.003,-0.017 0.002,-0.005 0.007,-0.007 0.015,-0.007 z"
         style="fill:#00bcf2;fill-rule:nonzero"
         id="path14452" /><path
         d="m 0.687,-0.562 c 0.009,0 0.018,0.004 0.024,0.011 0.007,0.007 0.011,0.015 0.011,0.025 0,0.009 -0.004,0.017 -0.011,0.024 -0.007,0.007 -0.015,0.011 -0.024,0.011 -0.01,0 -0.018,-0.004 -0.025,-0.011 -0.007,-0.007 -0.011,-0.015 -0.011,-0.024 0,-0.01 0.004,-0.018 0.011,-0.025 0.006,-0.007 0.015,-0.011 0.025,-0.011 z m 0.245,0.386 c 0.01,0 0.018,0.004 0.025,0.011 0.007,0.007 0.01,0.015 0.01,0.024 0,0.01 -0.003,0.018 -0.01,0.025 -0.007,0.007 -0.015,0.011 -0.025,0.011 -0.01,0 -0.018,-0.004 -0.025,-0.011 -0.007,-0.007 -0.01,-0.015 -0.01,-0.025 0,-0.009 0.003,-0.017 0.01,-0.024 0.007,-0.007 0.016,-0.011 0.025,-0.011 z"
         style="fill:#fff100;fill-rule:nonzero"
         id="path14454" /><path
         d="m 0.476,-0.316 c 0.01,0 0.018,0.004 0.025,0.011 0.007,0.007 0.01,0.015 0.01,0.024 0,0.01 -0.003,0.018 -0.01,0.025 -0.007,0.007 -0.015,0.01 -0.025,0.01 -0.01,0 -0.018,-0.003 -0.025,-0.01 -0.007,-0.007 -0.01,-0.015 -0.01,-0.025 0,-0.01 0.003,-0.018 0.01,-0.025 0.007,-0.007 0.015,-0.01 0.025,-0.01 z m 0.526,-0.141 c -0.009,0 -0.017,-0.003 -0.024,-0.01 -0.007,-0.007 -0.011,-0.015 -0.011,-0.024 0,-0.01 0.004,-0.018 0.011,-0.025 0.006,-0.007 0.015,-0.01 0.024,-0.01 0.01,0 0.019,0.003 0.025,0.01 0.007,0.007 0.011,0.015 0.011,0.025 0,0.009 -0.004,0.017 -0.011,0.024 -0.007,0.007 -0.015,0.01 -0.025,0.01 z m 0.053,0.071 c 0.007,0 0.014,0.001 0.02,0.004 0.007,0.003 0.012,0.007 0.017,0.011 0.005,0.005 0.009,0.011 0.011,0.017 0.003,0.007 0.004,0.013 0.004,0.021 v 0.035 c 0,0.007 0.003,0.013 0.008,0.015 0.006,0.002 0.012,0.003 0.018,0.003 l 0.02,-0.001 c 0.006,0 0.012,0.001 0.017,0.003 0.005,0.002 0.008,0.007 0.008,0.015 0,0.004 -10e-4,0.007 -0.003,0.01 -0.002,0.002 -0.004,0.004 -0.007,0.005 -0.003,0.002 -0.006,0.003 -0.01,0.003 -0.003,0 -0.006,0 -0.01,0 -0.009,0 -0.019,0 -0.028,-0.001 C 1.111,-0.247 1.103,-0.25 1.096,-0.254 1.089,-0.257 1.083,-0.263 1.079,-0.27 1.075,-0.277 1.073,-0.286 1.073,-0.298 l 0.001,-0.023 c 0,-0.004 0,-0.007 -0.001,-0.011 0,-0.003 -10e-4,-0.006 -0.002,-0.009 C 1.069,-0.344 1.068,-0.347 1.065,-0.348 1.063,-0.35 1.059,-0.351 1.055,-0.351 c -0.008,0 -0.013,0.003 -0.015,0.009 -0.002,0.006 -0.003,0.013 -0.003,0.02 l 0.001,0.024 c 0,0.007 -0.002,0.014 -0.005,0.02 -0.002,0.006 -0.006,0.012 -0.011,0.017 -0.005,0.005 -0.011,0.008 -0.017,0.011 -0.006,0.003 -0.013,0.004 -0.02,0.004 -0.007,0 -0.014,-0.001 -0.02,-0.004 C 0.958,-0.253 0.953,-0.256 0.948,-0.261 0.943,-0.266 0.939,-0.272 0.936,-0.278 0.934,-0.284 0.932,-0.291 0.932,-0.298 l 0.001,-0.023 c 0,-0.004 0,-0.007 0,-0.011 C 0.932,-0.335 0.931,-0.338 0.93,-0.341 0.929,-0.344 0.927,-0.347 0.925,-0.348 0.922,-0.35 0.919,-0.351 0.915,-0.351 c -0.008,0 -0.013,0.003 -0.016,0.009 -0.002,0.006 -0.003,0.013 -0.003,0.02 l 0.001,0.024 c 0,0.007 -0.001,0.014 -0.004,0.02 -0.003,0.006 -0.007,0.012 -0.012,0.017 -0.005,0.005 -0.01,0.008 -0.016,0.011 -0.007,0.003 -0.014,0.004 -0.021,0.004 l -0.023,0.001 c -0.003,0 -0.006,0 -0.01,0 -0.003,0 -0.006,-0.001 -0.009,-0.003 C 0.799,-0.249 0.796,-0.251 0.795,-0.253 0.793,-0.256 0.792,-0.259 0.792,-0.263 c 0,-0.008 0.003,-0.013 0.009,-0.015 0.005,-0.002 0.011,-0.003 0.018,-0.003 h 0.016 c 0.004,0 0.007,0 0.01,0 0.003,-10e-4 0.006,-10e-4 0.008,-0.002 0.003,-0.002 0.005,-0.003 0.006,-0.006 0.002,-0.002 0.003,-0.005 0.003,-0.009 v -0.035 c 0,-0.008 0.001,-0.014 0.004,-0.021 0.003,-0.006 0.007,-0.012 0.011,-0.017 0.005,-0.004 0.011,-0.008 0.017,-0.011 0.007,-0.003 0.013,-0.004 0.021,-0.004 0.007,0 0.013,0.001 0.02,0.004 0.006,0.003 0.012,0.007 0.017,0.011 0.005,0.005 0.008,0.011 0.011,0.017 0.003,0.007 0.004,0.013 0.004,0.021 l -0.001,0.022 c 0,0.004 0,0.007 0.001,0.011 0,0.003 0.001,0.007 0.002,0.009 0.002,0.003 0.003,0.006 0.006,0.008 0.002,0.001 0.006,0.002 0.01,0.002 0.008,0 0.013,-0.003 0.015,-0.009 0.002,-0.006 0.003,-0.013 0.003,-0.02 L 1.002,-0.333 c 0,-0.008 0.002,-0.014 0.005,-0.021 0.002,-0.006 0.006,-0.012 0.011,-0.017 0.005,-0.004 0.011,-0.008 0.017,-0.011 0.006,-0.003 0.013,-0.004 0.02,-0.004 z"
         style="fill:#f03a17;fill-rule:nonzero"
         id="path14456" /></g></g></svg>
