<?xml version="1.0" encoding="UTF-8" standalone="no"?>
<svg
   width="16.844999"
   height="11.58"
   viewBox="0 0 16.844999 11.58"
   version="1.1"
   xml:space="preserve"
   style="clip-rule:evenodd;fill-rule:evenodd;stroke-linejoin:round;stroke-miterlimit:2"
   id="svg20568"
   sodipodi:docname="emojis.svg"
   xmlns:inkscape="http://www.inkscape.org/namespaces/inkscape"
   xmlns:sodipodi="http://sodipodi.sourceforge.net/DTD/sodipodi-0.dtd"
   xmlns="http://www.w3.org/2000/svg"
   xmlns:svg="http://www.w3.org/2000/svg"><defs
     id="defs20572" /><sodipodi:namedview
     id="namedview20570"
     pagecolor="#505050"
     bordercolor="#eeeeee"
     borderopacity="1"
     inkscape:pageshadow="0"
     inkscape:pageopacity="0"
     inkscape:pagecheckerboard="0" /><g
     transform="matrix(0.24,0,0,0.24,-458.607,-752.0394)"
     id="g20566"><g
       transform="matrix(62.5,0,0,62.5,1903.05,3179.56)"
       id="g14574"><path
         d="m 0.23,0.035 v -0.039 c 0,-0.016 0,-0.028 -0.001,-0.037 C 0.228,-0.049 0.225,-0.056 0.221,-0.06 0.216,-0.065 0.21,-0.067 0.201,-0.069 0.192,-0.07 0.181,-0.07 0.166,-0.07 H 0.125 v -0.562 h 0.04 c 0.015,0 0.027,0 0.036,-0.002 C 0.209,-0.635 0.216,-0.637 0.22,-0.642 0.225,-0.646 0.228,-0.652 0.229,-0.661 0.23,-0.67 0.23,-0.681 0.23,-0.697 v -0.04 h 0.913 v 0.039 c 0,0.016 0,0.028 10e-4,0.036 0.001,0.009 0.004,0.016 0.008,0.02 0.005,0.005 0.011,0.007 0.02,0.008 0.008,0.002 0.02,0.002 0.036,0.002 h 0.04 v 0.562 h -0.04 c -0.015,0 -0.027,0 -0.036,0.001 -0.008,0.002 -0.015,0.004 -0.019,0.008 -0.005,0.005 -0.008,0.011 -0.009,0.02 -10e-4,0.009 -10e-4,0.021 -10e-4,0.036 v 0.04 z"
         style="fill-rule:nonzero"
         id="path14566" /><path
         d="m 1.073,-0.667 c 0,0.015 0.003,0.028 0.008,0.041 0.006,0.013 0.013,0.024 0.023,0.033 0.009,0.01 0.02,0.018 0.033,0.023 0.012,0.006 0.026,0.008 0.041,0.008 v 0.421 c -0.015,0 -0.029,0.003 -0.041,0.009 C 1.124,-0.127 1.113,-0.119 1.104,-0.11 1.094,-0.1 1.087,-0.089 1.081,-0.076 1.076,-0.063 1.073,-0.05 1.073,-0.035 H 0.3 C 0.3,-0.05 0.298,-0.063 0.292,-0.076 0.286,-0.089 0.279,-0.1 0.27,-0.11 0.26,-0.119 0.249,-0.127 0.236,-0.132 0.224,-0.138 0.21,-0.141 0.195,-0.141 v -0.421 c 0.015,0 0.029,-0.002 0.041,-0.008 C 0.249,-0.575 0.26,-0.583 0.27,-0.593 0.279,-0.602 0.286,-0.613 0.292,-0.626 0.298,-0.639 0.3,-0.652 0.3,-0.667 Z"
         style="fill:#ffc83d;fill-rule:nonzero"
         id="path14568" /><path
         d="m 0.792,-0.491 c 0.009,0 0.018,0.003 0.024,0.01 0.007,0.007 0.011,0.015 0.011,0.024 v 0.071 c 0,0.009 -0.004,0.017 -0.011,0.024 -0.006,0.007 -0.015,0.011 -0.024,0.011 H 0.581 c -0.009,0 -0.018,-0.004 -0.025,-0.011 -0.007,-0.007 -0.01,-0.015 -0.01,-0.024 v -0.071 c 0,-0.009 0.003,-0.017 0.01,-0.024 0.007,-0.007 0.016,-0.01 0.025,-0.01 z m 0.175,0 c 0.01,0 0.018,0.003 0.025,0.01 0.007,0.007 0.01,0.015 0.01,0.024 v 0.211 c 0,0.01 -0.003,0.018 -0.01,0.025 C 0.985,-0.214 0.977,-0.21 0.967,-0.21 0.958,-0.21 0.95,-0.214 0.943,-0.221 0.936,-0.228 0.932,-0.236 0.932,-0.246 v -0.211 c 0,-0.009 0.004,-0.017 0.011,-0.024 0.007,-0.007 0.015,-0.01 0.024,-0.01 z m -0.561,0 c 0.009,0 0.017,0.003 0.024,0.01 0.007,0.007 0.011,0.015 0.011,0.024 v 0.211 c 0,0.01 -0.004,0.018 -0.011,0.025 -0.007,0.007 -0.015,0.011 -0.024,0.011 -0.01,0 -0.018,-0.004 -0.025,-0.011 -0.007,-0.007 -0.01,-0.015 -0.01,-0.025 v -0.211 c 0,-0.009 0.003,-0.017 0.01,-0.024 0.007,-0.007 0.015,-0.01 0.025,-0.01 z m 0.351,0.21 c 0.009,0 0.017,0.004 0.024,0.011 0.007,0.007 0.011,0.015 0.011,0.024 0,0.01 -0.004,0.018 -0.011,0.025 C 0.774,-0.214 0.766,-0.21 0.757,-0.21 H 0.616 c -0.009,0 -0.017,-0.004 -0.024,-0.011 -0.007,-0.007 -0.011,-0.015 -0.011,-0.025 0,-0.009 0.003,-0.018 0.01,-0.025 0.007,-0.006 0.015,-0.01 0.025,-0.01 z"
         style="fill:#d48c00;fill-rule:nonzero"
         id="path14570" /><path
         d="m 0.967,-0.597 c 0.015,0 0.029,0.003 0.041,0.009 0.013,0.005 0.024,0.013 0.034,0.022 0.009,0.01 0.017,0.021 0.022,0.034 0.006,0.012 0.009,0.026 0.009,0.041 v 0.281 c 0,0.014 -0.003,0.028 -0.009,0.041 -0.005,0.012 -0.013,0.023 -0.022,0.033 -0.01,0.009 -0.021,0.017 -0.034,0.022 -0.012,0.006 -0.026,0.009 -0.041,0.009 H 0.406 C 0.391,-0.105 0.377,-0.108 0.365,-0.114 0.352,-0.119 0.341,-0.127 0.331,-0.136 0.322,-0.146 0.314,-0.157 0.309,-0.169 0.303,-0.182 0.3,-0.196 0.3,-0.21 v -0.281 c 0,-0.015 0.003,-0.029 0.009,-0.041 0.005,-0.013 0.013,-0.024 0.022,-0.034 0.01,-0.009 0.021,-0.017 0.034,-0.022 0.012,-0.006 0.026,-0.009 0.041,-0.009 z M 0.511,-0.141 H 0.862 V -0.562 H 0.511 Z M 1.038,-0.21 V -0.491 C 1.038,-0.501 1.036,-0.51 1.032,-0.519 1.028,-0.527 1.023,-0.534 1.017,-0.541 1.01,-0.547 1.003,-0.552 0.995,-0.556 0.986,-0.56 0.977,-0.562 0.967,-0.562 h -0.07 v 0.421 h 0.07 c 0.01,0 0.019,-0.001 0.028,-0.005 C 1.003,-0.15 1.01,-0.155 1.017,-0.161 1.023,-0.167 1.028,-0.175 1.032,-0.183 1.036,-0.192 1.038,-0.201 1.038,-0.21 Z m -0.632,0.069 h 0.07 v -0.421 h -0.07 c -0.01,0 -0.019,0.002 -0.028,0.006 C 0.37,-0.552 0.363,-0.547 0.356,-0.541 0.35,-0.534 0.345,-0.527 0.341,-0.519 0.337,-0.51 0.335,-0.501 0.335,-0.491 v 0.281 c 0,0.009 0.002,0.018 0.006,0.027 0.004,0.008 0.009,0.016 0.015,0.022 0.007,0.006 0.014,0.011 0.022,0.015 0.009,0.004 0.018,0.005 0.028,0.005 z"
         style="fill:#f03a17;fill-rule:nonzero"
         id="path14572" /></g></g></svg>
