<?xml version="1.0" encoding="UTF-8" standalone="no"?>
<svg
   width="12.615"
   height="15.78"
   viewBox="0 0 12.615 15.78"
   version="1.1"
   xml:space="preserve"
   style="clip-rule:evenodd;fill-rule:evenodd;stroke-linejoin:round;stroke-miterlimit:2"
   id="svg20568"
   sodipodi:docname="emojis.svg"
   xmlns:inkscape="http://www.inkscape.org/namespaces/inkscape"
   xmlns:sodipodi="http://sodipodi.sourceforge.net/DTD/sodipodi-0.dtd"
   xmlns="http://www.w3.org/2000/svg"
   xmlns:svg="http://www.w3.org/2000/svg"><defs
     id="defs20572" /><sodipodi:namedview
     id="namedview20570"
     pagecolor="#505050"
     bordercolor="#eeeeee"
     borderopacity="1"
     inkscape:pageshadow="0"
     inkscape:pageopacity="0"
     inkscape:pagecheckerboard="0" /><g
     transform="matrix(0.24,0,0,0.24,-442.2222,-749.9394)"
     id="g20566"><g
       transform="matrix(62.5,0,0,62.5,1834.78,3179.56)"
       id="g14564"><path
         d="M 0.822,0.175 C 0.812,0.175 0.802,0.174 0.794,0.171 0.785,0.169 0.776,0.165 0.768,0.161 0.76,0.157 0.753,0.152 0.746,0.147 0.739,0.143 0.732,0.138 0.725,0.133 0.694,0.113 0.664,0.092 0.634,0.072 0.604,0.052 0.575,0.03 0.546,0.007 0.517,0.031 0.487,0.053 0.456,0.073 0.426,0.094 0.395,0.115 0.364,0.136 0.358,0.14 0.351,0.145 0.345,0.149 0.338,0.153 0.331,0.157 0.324,0.161 0.315,0.165 0.306,0.169 0.298,0.171 0.29,0.174 0.28,0.175 0.27,0.175 0.249,0.175 0.231,0.171 0.216,0.161 0.202,0.152 0.189,0.138 0.178,0.121 L 0.138,0.056 C 0.133,0.049 0.13,0.041 0.128,0.032 0.126,0.023 0.125,0.014 0.125,0.006 c 0,-0.019 0.004,-0.035 0.012,-0.05 0.009,-0.015 0.02,-0.027 0.035,-0.038 0.003,-0.003 0.007,-0.005 0.01,-0.007 C 0.186,-0.09 0.189,-0.092 0.193,-0.095 0.219,-0.11 0.245,-0.127 0.269,-0.146 0.293,-0.164 0.317,-0.183 0.34,-0.203 0.322,-0.227 0.304,-0.253 0.286,-0.281 0.269,-0.308 0.253,-0.337 0.24,-0.367 0.226,-0.397 0.216,-0.428 0.208,-0.459 0.199,-0.49 0.195,-0.521 0.195,-0.552 c 0,-0.03 0.004,-0.058 0.011,-0.086 0.008,-0.027 0.018,-0.053 0.031,-0.077 0.014,-0.024 0.03,-0.046 0.049,-0.066 0.019,-0.02 0.04,-0.037 0.063,-0.052 0.024,-0.014 0.049,-0.025 0.076,-0.033 0.028,-0.008 0.056,-0.011 0.086,-0.011 h 0.07 c 0.034,0 0.066,0.005 0.097,0.015 0.031,0.01 0.06,0.025 0.085,0.044 0.026,0.019 0.049,0.041 0.069,0.067 0.019,0.026 0.035,0.056 0.046,0.087 0.007,0.019 0.011,0.037 0.014,0.056 0.003,0.019 0.004,0.038 0.004,0.057 0,0.031 -0.004,0.062 -0.012,0.093 -0.009,0.031 -0.02,0.062 -0.033,0.092 -0.014,0.029 -0.029,0.058 -0.047,0.086 -0.017,0.028 -0.035,0.054 -0.053,0.077 0.019,0.016 0.038,0.031 0.057,0.045 0.02,0.014 0.039,0.028 0.06,0.042 0.008,0.006 0.017,0.011 0.026,0.017 0.009,0.005 0.017,0.011 0.026,0.017 0.015,0.01 0.026,0.023 0.034,0.038 0.008,0.015 0.012,0.031 0.012,0.05 0,0.008 -0.001,0.016 -0.002,0.025 C 0.962,0.04 0.959,0.048 0.954,0.055 L 0.914,0.121 C 0.903,0.138 0.891,0.152 0.876,0.161 0.861,0.171 0.843,0.175 0.822,0.175 Z M 0.476,-0.56 c 0,0.013 0.002,0.027 0.007,0.042 0.004,0.015 0.01,0.03 0.017,0.045 0.007,0.015 0.015,0.03 0.023,0.044 0.008,0.014 0.016,0.026 0.023,0.036 0.007,-0.01 0.015,-0.023 0.024,-0.037 0.008,-0.014 0.015,-0.028 0.022,-0.043 0.007,-0.016 0.013,-0.031 0.017,-0.046 0.005,-0.015 0.007,-0.03 0.007,-0.043 0,-0.023 -0.012,-0.035 -0.035,-0.035 h -0.07 c -0.012,0 -0.022,0.003 -0.027,0.01 -0.006,0.006 -0.008,0.015 -0.008,0.027 z"
         style="fill-rule:nonzero"
         id="path14558" /><path
         d="m 0.511,-0.807 c 0.004,0.006 0.009,0.01 0.016,0.012 0.006,0.003 0.013,0.004 0.02,0.004 0.006,0 0.013,-0.001 0.019,-0.004 0.006,-0.002 0.011,-0.006 0.015,-0.012 0.035,0 0.068,0.007 0.098,0.02 0.03,0.014 0.056,0.032 0.078,0.055 0.022,0.023 0.039,0.05 0.051,0.081 0.012,0.031 0.018,0.064 0.018,0.099 0,0.031 -0.005,0.063 -0.016,0.096 -0.01,0.033 -0.024,0.065 -0.041,0.096 -0.016,0.031 -0.035,0.061 -0.056,0.089 -0.02,0.029 -0.04,0.055 -0.06,0.078 0.032,0.029 0.066,0.057 0.1,0.084 0.035,0.027 0.071,0.051 0.108,0.074 0.004,0.002 0.007,0.004 0.01,0.005 0.004,0.002 0.007,0.004 0.01,0.007 0.005,0.004 0.009,0.008 0.012,0.012 0.002,0.004 0.003,0.009 0.003,0.016 0,0.003 0,0.006 0,0.008 C 0.895,0.016 0.894,0.019 0.893,0.021 L 0.853,0.086 C 0.849,0.092 0.845,0.097 0.84,0.1 0.835,0.103 0.829,0.105 0.822,0.105 0.816,0.105 0.808,0.102 0.798,0.097 0.788,0.091 0.777,0.085 0.766,0.077 0.754,0.07 0.743,0.063 0.733,0.055 0.723,0.048 0.715,0.043 0.709,0.039 0.681,0.02 0.653,0 0.625,-0.02 0.598,-0.039 0.571,-0.061 0.546,-0.084 0.52,-0.06 0.492,-0.037 0.463,-0.017 0.434,0.004 0.404,0.025 0.374,0.045 0.368,0.049 0.361,0.054 0.352,0.061 0.343,0.067 0.333,0.074 0.323,0.081 0.313,0.087 0.303,0.093 0.293,0.098 0.284,0.103 0.276,0.105 0.27,0.105 0.263,0.105 0.256,0.103 0.252,0.1 0.247,0.097 0.243,0.092 0.239,0.086 L 0.199,0.021 C 0.197,0.018 0.196,0.016 0.196,0.014 0.195,0.011 0.195,0.009 0.195,0.005 0.195,-0.001 0.196,-0.007 0.199,-0.011 0.202,-0.015 0.206,-0.02 0.21,-0.023 0.213,-0.026 0.216,-0.028 0.22,-0.03 0.224,-0.031 0.227,-0.033 0.23,-0.035 0.24,-0.041 0.25,-0.047 0.259,-0.054 0.268,-0.061 0.277,-0.067 0.287,-0.074 0.313,-0.093 0.339,-0.112 0.364,-0.132 0.39,-0.151 0.415,-0.172 0.439,-0.193 0.419,-0.216 0.398,-0.242 0.378,-0.27 0.357,-0.298 0.339,-0.328 0.322,-0.359 0.306,-0.39 0.292,-0.422 0.281,-0.455 0.271,-0.487 0.266,-0.519 0.266,-0.551 c 0,-0.015 0.001,-0.03 0.003,-0.044 0.002,-0.015 0.005,-0.03 0.01,-0.045 0.008,-0.024 0.02,-0.047 0.035,-0.068 0.016,-0.02 0.034,-0.038 0.054,-0.053 0.021,-0.014 0.043,-0.026 0.068,-0.034 0.024,-0.008 0.049,-0.012 0.075,-0.012 z m 0.07,0.113 h -0.07 c -0.018,0 -0.034,0.004 -0.048,0.012 -0.013,0.008 -0.024,0.018 -0.033,0.031 -0.008,0.012 -0.015,0.027 -0.019,0.043 -0.004,0.016 -0.006,0.032 -0.006,0.048 0,0.024 0.005,0.048 0.014,0.074 0.009,0.026 0.02,0.051 0.034,0.076 0.013,0.025 0.028,0.048 0.045,0.07 0.017,0.023 0.033,0.042 0.048,0.059 C 0.562,-0.298 0.578,-0.318 0.594,-0.34 0.61,-0.362 0.625,-0.385 0.639,-0.41 0.653,-0.434 0.664,-0.46 0.673,-0.485 0.682,-0.511 0.686,-0.535 0.686,-0.559 0.686,-0.575 0.684,-0.591 0.68,-0.607 0.676,-0.623 0.67,-0.638 0.661,-0.651 0.652,-0.664 0.641,-0.674 0.628,-0.682 0.615,-0.69 0.599,-0.694 0.581,-0.694 Z"
         style="fill:#f495bf;fill-rule:nonzero"
         id="path14560" /><path
         d="m 0.511,-0.667 c -0.015,0 -0.03,0.003 -0.042,0.008 -0.013,0.005 -0.024,0.013 -0.033,0.022 -0.009,0.009 -0.016,0.02 -0.021,0.033 -0.005,0.014 -0.008,0.028 -0.009,0.042 v -0.14 c 0,-0.014 0.003,-0.028 0.008,-0.041 0.006,-0.012 0.013,-0.024 0.023,-0.033 0.009,-0.01 0.02,-0.017 0.033,-0.023 0.012,-0.005 0.026,-0.008 0.04,-0.008 h 0.072 c 0.014,0 0.027,0.003 0.04,0.008 0.013,0.006 0.024,0.013 0.033,0.023 0.01,0.009 0.017,0.021 0.023,0.033 0.005,0.013 0.008,0.027 0.008,0.041 v 0.14 C 0.685,-0.576 0.682,-0.59 0.677,-0.604 0.672,-0.617 0.664,-0.628 0.656,-0.637 0.647,-0.646 0.636,-0.654 0.623,-0.659 0.61,-0.664 0.596,-0.667 0.581,-0.667 Z"
         style="fill:#ee3f86;fill-rule:nonzero"
         id="path14562" /></g></g></svg>
