<?xml version="1.0" encoding="UTF-8" standalone="no"?>
<svg
   width="15.795"
   height="15.255"
   viewBox="0 0 15.795 15.255"
   version="1.1"
   xml:space="preserve"
   style="clip-rule:evenodd;fill-rule:evenodd;stroke-linejoin:round;stroke-miterlimit:2"
   id="svg20568"
   sodipodi:docname="emojis.svg"
   xmlns:inkscape="http://www.inkscape.org/namespaces/inkscape"
   xmlns:sodipodi="http://sodipodi.sourceforge.net/DTD/sodipodi-0.dtd"
   xmlns="http://www.w3.org/2000/svg"
   xmlns:svg="http://www.w3.org/2000/svg"><defs
     id="defs20572" /><sodipodi:namedview
     id="namedview20570"
     pagecolor="#505050"
     bordercolor="#eeeeee"
     borderopacity="1"
     inkscape:pageshadow="0"
     inkscape:pageopacity="0"
     inkscape:pagecheckerboard="0" /><g
     transform="matrix(0.24,0,0,0.24,-404.1798,-750.4644)"
     id="g20566"><g
       transform="matrix(62.5,0,0,62.5,1676.27,3179.56)"
       id="g14546"><path
         d="m 1.178,-0.312 c 0,0.017 -0.003,0.032 -0.008,0.047 -0.005,0.015 -0.013,0.028 -0.022,0.039 -0.009,0.012 -0.021,0.022 -0.034,0.03 -0.013,0.009 -0.028,0.015 -0.044,0.018 l 0.054,0.071 c 0.006,0.008 0.01,0.016 0.014,0.026 0.003,0.009 0.005,0.018 0.005,0.028 0,0.012 -0.003,0.024 -0.007,0.034 C 1.131,-0.008 1.125,0.002 1.117,0.01 1.109,0.017 1.1,0.024 1.089,0.028 1.079,0.033 1.067,0.035 1.055,0.035 H 0.967 V 0.087 C 0.967,0.1 0.965,0.111 0.96,0.122 0.956,0.132 0.95,0.142 0.942,0.15 0.934,0.158 0.924,0.164 0.914,0.168 0.903,0.173 0.891,0.175 0.879,0.175 0.867,0.175 0.855,0.173 0.843,0.167 0.83,0.162 0.82,0.154 0.813,0.145 L 0.651,-0.062 0.492,0.142 C 0.483,0.153 0.473,0.161 0.461,0.167 0.45,0.172 0.437,0.175 0.423,0.175 0.411,0.175 0.399,0.173 0.389,0.168 0.378,0.164 0.369,0.158 0.361,0.15 0.353,0.142 0.347,0.132 0.342,0.122 0.338,0.111 0.335,0.1 0.335,0.087 V 0.035 H 0.248 C 0.236,0.035 0.224,0.033 0.214,0.028 0.203,0.024 0.194,0.017 0.186,0.01 0.178,0.002 0.172,-0.008 0.167,-0.018 0.162,-0.029 0.16,-0.04 0.16,-0.053 c 0,-0.01 0.002,-0.02 0.005,-0.029 0.003,-0.008 0.008,-0.017 0.014,-0.025 L 0.232,-0.178 C 0.216,-0.182 0.202,-0.188 0.189,-0.196 0.176,-0.204 0.164,-0.214 0.155,-0.226 0.145,-0.237 0.138,-0.25 0.133,-0.265 0.128,-0.28 0.125,-0.295 0.125,-0.312 v -0.394 c 0,-0.018 0.003,-0.036 0.01,-0.053 0.007,-0.016 0.017,-0.031 0.029,-0.043 0.013,-0.012 0.027,-0.022 0.043,-0.029 0.017,-0.007 0.035,-0.011 0.054,-0.011 0.01,0 0.02,0.001 0.031,0.004 0.01,0.002 0.019,0.005 0.029,0.01 l 0.193,0.1 c 0.01,-0.011 0.021,-0.019 0.031,-0.025 0.011,-0.006 0.022,-0.011 0.034,-0.014 0.011,-0.003 0.023,-0.004 0.036,-0.005 0.012,0 0.025,0 0.04,0 0.013,0 0.026,0 0.038,0.001 0.012,0.001 0.023,0.002 0.034,0.005 0.011,0.003 0.022,0.008 0.032,0.014 0.01,0.006 0.02,0.014 0.03,0.024 L 0.981,-0.827 C 0.99,-0.832 1,-0.836 1.011,-0.838 c 0.011,-0.003 0.021,-0.004 0.031,-0.004 0.019,0 0.037,0.004 0.053,0.011 0.017,0.007 0.031,0.017 0.043,0.029 0.013,0.013 0.022,0.027 0.029,0.043 0.007,0.017 0.011,0.035 0.011,0.053 z"
         style="fill-rule:nonzero"
         id="path14538" /><path
         d="m 1.107,-0.702 v 0.386 H 0.879 l 0.189,0.253 c 0.002,0.002 0.003,0.003 0.004,0.005 0,0.002 10e-4,0.004 10e-4,0.006 0,0.005 -0.002,0.009 -0.005,0.013 -0.004,0.003 -0.008,0.005 -0.013,0.005 H 0.897 V 0.088 C 0.897,0.093 0.895,0.097 0.892,0.101 0.888,0.104 0.884,0.106 0.879,0.106 0.874,0.106 0.869,0.104 0.866,0.1 L 0.651,-0.175 0.437,0.1 C 0.433,0.104 0.429,0.106 0.423,0.106 0.418,0.106 0.414,0.104 0.411,0.101 0.407,0.097 0.406,0.093 0.406,0.088 V -0.034 H 0.248 C 0.243,-0.034 0.239,-0.036 0.236,-0.039 0.232,-0.043 0.23,-0.047 0.23,-0.052 c 0,-0.004 0.002,-0.007 0.004,-0.011 L 0.423,-0.315 H 0.195 v -0.387 c 0,-0.01 0.002,-0.018 0.005,-0.027 0.003,-0.008 0.007,-0.015 0.013,-0.021 0.006,-0.007 0.013,-0.012 0.021,-0.015 0.008,-0.004 0.016,-0.006 0.026,-0.006 0.011,0 0.02,0.003 0.03,0.007 l 0.256,0.133 h 0.211 l 0.256,-0.133 c 0.009,-0.004 0.019,-0.007 0.029,-0.007 0.01,0 0.019,0.002 0.027,0.006 0.008,0.003 0.015,0.008 0.021,0.015 0.005,0.006 0.01,0.013 0.013,0.021 0.003,0.009 0.004,0.017 0.004,0.027 z"
         style="fill:#ee3f86;fill-rule:nonzero"
         id="path14540" /><path
         d="m 0.195,-0.311 c 0,-0.01 0.002,-0.019 0.005,-0.028 0.003,-0.009 0.008,-0.017 0.014,-0.024 0.007,-0.007 0.014,-0.012 0.022,-0.016 0.009,-0.004 0.018,-0.006 0.029,-0.006 H 0.581 L 0.29,-0.252 C 0.28,-0.247 0.27,-0.245 0.26,-0.245 0.251,-0.245 0.243,-0.247 0.235,-0.25 0.227,-0.254 0.22,-0.258 0.214,-0.264 0.208,-0.27 0.203,-0.277 0.2,-0.285 0.197,-0.293 0.195,-0.301 0.195,-0.311 Z m 0.843,-0.074 c 0.009,0 0.018,0.002 0.027,0.005 0.008,0.004 0.016,0.009 0.022,0.015 0.007,0.007 0.011,0.014 0.015,0.023 0.004,0.008 0.005,0.017 0.005,0.027 0,0.01 -10e-4,0.019 -0.004,0.027 C 1.1,-0.279 1.095,-0.272 1.09,-0.265 1.084,-0.259 1.078,-0.254 1.07,-0.25 1.062,-0.247 1.053,-0.245 1.042,-0.245 1.033,-0.245 1.023,-0.247 1.013,-0.252 L 0.722,-0.385 Z M 0.827,-0.438 c 0,0.005 -0.002,0.009 -0.005,0.012 C 0.818,-0.422 0.814,-0.42 0.809,-0.42 0.805,-0.42 0.8,-0.422 0.797,-0.426 L 0.736,-0.486 V -0.53 l 0.061,-0.061 c 0.003,-0.003 0.007,-0.005 0.012,-0.005 0.005,0 0.009,0.002 0.013,0.005 0.003,0.004 0.005,0.008 0.005,0.013 0,0.005 -0.002,0.009 -0.005,0.012 l -0.04,0.04 h 0.097 c 0.005,0 0.009,0.002 0.013,0.005 0.003,0.004 0.005,0.008 0.005,0.013 0,0.005 -0.002,0.009 -0.005,0.012 -0.004,0.004 -0.008,0.005 -0.013,0.005 H 0.782 l 0.04,0.041 c 0.003,0.003 0.005,0.007 0.005,0.012 z M 0.521,-0.491 H 0.423 c -0.005,0 -0.009,-0.001 -0.012,-0.005 -0.004,-0.003 -0.005,-0.007 -0.005,-0.012 0,-0.005 10e-4,-0.009 0.005,-0.013 0.003,-0.003 0.007,-0.005 0.012,-0.005 h 0.098 l -0.04,-0.04 C 0.477,-0.569 0.476,-0.574 0.476,-0.578 c 0,-0.005 0.001,-0.009 0.005,-0.012 0.004,-0.004 0.008,-0.006 0.012,-0.006 0.005,0 0.01,0.002 0.013,0.005 l 0.061,0.061 v 0.044 l -0.061,0.06 C 0.502,-0.422 0.498,-0.42 0.493,-0.42 0.489,-0.42 0.485,-0.422 0.481,-0.426 0.477,-0.429 0.476,-0.433 0.476,-0.438 c 0,-0.005 0.001,-0.009 0.005,-0.012 z"
         style="fill:#c30052;fill-rule:nonzero"
         id="path14542" /><path
         d="m 0.757,-0.385 c 0,0.01 -0.002,0.019 -0.006,0.027 -0.004,0.009 -0.009,0.016 -0.015,0.022 -0.006,0.007 -0.014,0.012 -0.022,0.015 -0.009,0.004 -0.018,0.006 -0.027,0.006 H 0.616 c -0.01,0 -0.019,-0.002 -0.027,-0.006 C 0.58,-0.324 0.573,-0.329 0.567,-0.336 0.56,-0.342 0.555,-0.349 0.552,-0.358 0.548,-0.366 0.546,-0.375 0.546,-0.385 v -0.246 c 0,-0.01 0.002,-0.019 0.006,-0.027 C 0.555,-0.667 0.56,-0.674 0.567,-0.68 0.573,-0.687 0.58,-0.692 0.589,-0.696 0.597,-0.699 0.606,-0.701 0.616,-0.701 h 0.071 c 0.009,0 0.018,0.002 0.027,0.005 0.008,0.004 0.016,0.009 0.022,0.016 0.006,0.006 0.011,0.013 0.015,0.022 0.004,0.008 0.006,0.017 0.006,0.027 z"
         style="fill:#f495bf;fill-rule:nonzero"
         id="path14544" /></g></g></svg>
