<?xml version="1.0" encoding="UTF-8" standalone="no"?>
<svg
   width="16.844999"
   height="16.844999"
   viewBox="0 0 16.844999 16.844999"
   version="1.1"
   xml:space="preserve"
   style="clip-rule:evenodd;fill-rule:evenodd;stroke-linejoin:round;stroke-miterlimit:2"
   id="svg20568"
   sodipodi:docname="emojis.svg"
   xmlns:inkscape="http://www.inkscape.org/namespaces/inkscape"
   xmlns:sodipodi="http://sodipodi.sourceforge.net/DTD/sodipodi-0.dtd"
   xmlns="http://www.w3.org/2000/svg"
   xmlns:svg="http://www.w3.org/2000/svg"><defs
     id="defs20572" /><sodipodi:namedview
     id="namedview20570"
     pagecolor="#505050"
     bordercolor="#eeeeee"
     borderopacity="1"
     inkscape:pageshadow="0"
     inkscape:pageopacity="0"
     inkscape:pagecheckerboard="0" /><g
     transform="matrix(0.24,0,0,0.24,-519.1278,-749.3994)"
     id="g20566"><g
       transform="matrix(62.5,0,0,62.5,2155.22,3179.56)"
       id="g14614"><path
         d="M 0.687,0.21 C 0.635,0.21 0.585,0.204 0.537,0.19 0.49,0.177 0.445,0.158 0.403,0.134 0.362,0.109 0.324,0.08 0.29,0.046 0.255,0.012 0.226,-0.026 0.202,-0.068 0.177,-0.11 0.158,-0.154 0.145,-0.202 0.132,-0.25 0.125,-0.3 0.125,-0.351 c 0,-0.052 0.007,-0.101 0.02,-0.149 0.013,-0.048 0.032,-0.093 0.057,-0.134 0.024,-0.042 0.053,-0.08 0.088,-0.114 0.034,-0.034 0.072,-0.064 0.113,-0.088 0.042,-0.024 0.087,-0.043 0.134,-0.057 0.048,-0.013 0.098,-0.02 0.15,-0.02 0.051,0 0.101,0.007 0.148,0.02 0.048,0.014 0.093,0.033 0.135,0.057 0.041,0.024 0.079,0.054 0.113,0.088 0.035,0.034 0.064,0.072 0.088,0.114 0.025,0.041 0.044,0.086 0.057,0.134 0.013,0.048 0.02,0.097 0.02,0.149 0,0.052 -0.007,0.101 -0.02,0.149 C 1.215,-0.154 1.196,-0.11 1.171,-0.068 1.147,-0.026 1.118,0.012 1.083,0.046 1.049,0.08 1.011,0.109 0.97,0.134 0.928,0.158 0.883,0.177 0.835,0.19 0.788,0.204 0.738,0.21 0.687,0.21 Z"
         style="fill-rule:nonzero"
         id="path14604" /><path
         d="m 1.178,-0.351 c 0,0.045 -0.006,0.089 -0.018,0.131 -0.012,0.041 -0.028,0.081 -0.049,0.117 -0.022,0.036 -0.047,0.07 -0.077,0.099 C 1.004,0.026 0.971,0.052 0.935,0.073 0.898,0.094 0.859,0.111 0.817,0.123 0.775,0.134 0.732,0.14 0.687,0.14 0.641,0.14 0.598,0.134 0.556,0.123 0.514,0.111 0.475,0.094 0.438,0.073 0.402,0.052 0.369,0.026 0.339,-0.004 0.309,-0.033 0.284,-0.067 0.262,-0.103 0.241,-0.139 0.225,-0.179 0.213,-0.22 0.201,-0.262 0.195,-0.306 0.195,-0.351 c 0,-0.045 0.006,-0.089 0.018,-0.131 0.012,-0.042 0.028,-0.081 0.049,-0.117 0.022,-0.037 0.047,-0.07 0.077,-0.099 0.03,-0.03 0.063,-0.056 0.099,-0.077 0.037,-0.021 0.076,-0.038 0.118,-0.05 0.042,-0.011 0.085,-0.017 0.131,-0.017 0.045,0 0.088,0.006 0.13,0.017 0.042,0.012 0.081,0.029 0.118,0.05 0.036,0.021 0.069,0.047 0.099,0.077 0.03,0.029 0.055,0.062 0.077,0.099 0.021,0.036 0.037,0.075 0.049,0.117 0.012,0.042 0.018,0.086 0.018,0.131 z"
         style="fill:#0027b4;fill-rule:nonzero"
         id="path14606" /><path
         d="m 1.002,-0.351 c 0,0.029 -0.003,0.057 -0.011,0.084 -0.007,0.027 -0.018,0.052 -0.032,0.075 -0.014,0.024 -0.03,0.045 -0.049,0.064 -0.02,0.019 -0.041,0.036 -0.064,0.05 -0.023,0.013 -0.048,0.024 -0.075,0.032 -0.028,0.007 -0.056,0.011 -0.084,0.011 -0.029,0 -0.057,-0.004 -0.084,-0.011 C 0.576,-0.054 0.55,-0.065 0.527,-0.078 0.504,-0.092 0.483,-0.109 0.463,-0.128 0.444,-0.147 0.428,-0.168 0.414,-0.192 0.4,-0.215 0.389,-0.24 0.382,-0.267 0.374,-0.294 0.371,-0.322 0.371,-0.351 c 0,-0.029 0.003,-0.057 0.011,-0.084 0.007,-0.027 0.018,-0.052 0.032,-0.075 0.014,-0.024 0.03,-0.045 0.049,-0.064 0.02,-0.019 0.041,-0.036 0.064,-0.05 0.023,-0.014 0.049,-0.024 0.076,-0.032 0.027,-0.007 0.055,-0.011 0.084,-0.011 0.028,0 0.056,0.004 0.084,0.011 0.027,0.008 0.052,0.018 0.075,0.032 0.023,0.014 0.044,0.031 0.064,0.05 0.019,0.019 0.035,0.04 0.049,0.064 0.014,0.023 0.025,0.048 0.032,0.075 0.008,0.027 0.011,0.055 0.011,0.084 z"
         style="fill:#ffffff;fill-rule:nonzero"
         id="path14608" /><path
         d="m 0.897,-0.351 c 0,0.029 -0.006,0.056 -0.017,0.082 -0.011,0.025 -0.026,0.048 -0.045,0.067 -0.019,0.019 -0.041,0.034 -0.067,0.045 -0.025,0.011 -0.053,0.016 -0.081,0.016 -0.029,0 -0.057,-0.005 -0.082,-0.016 C 0.579,-0.168 0.557,-0.183 0.538,-0.202 0.519,-0.221 0.504,-0.244 0.493,-0.269 0.482,-0.295 0.476,-0.322 0.476,-0.351 c 0,-0.029 0.006,-0.056 0.017,-0.082 0.011,-0.025 0.026,-0.048 0.045,-0.067 0.019,-0.019 0.041,-0.034 0.067,-0.045 0.025,-0.011 0.053,-0.017 0.082,-0.017 0.028,0 0.056,0.006 0.081,0.017 0.026,0.011 0.048,0.026 0.067,0.045 0.019,0.019 0.034,0.042 0.045,0.067 0.011,0.026 0.017,0.053 0.017,0.082 z"
         style="fill:#83beec;fill-rule:nonzero"
         id="path14610" /><path
         d="m 0.792,-0.351 c 0,0.015 -0.003,0.028 -0.008,0.041 -0.006,0.013 -0.013,0.024 -0.023,0.033 -0.01,0.01 -0.021,0.018 -0.033,0.023 -0.013,0.006 -0.027,0.008 -0.041,0.008 -0.015,0 -0.029,-0.002 -0.041,-0.008 C 0.633,-0.259 0.622,-0.267 0.612,-0.277 0.602,-0.286 0.595,-0.297 0.589,-0.31 0.584,-0.323 0.581,-0.336 0.581,-0.351 c 0,-0.015 0.003,-0.028 0.008,-0.041 0.006,-0.013 0.013,-0.024 0.023,-0.034 0.01,-0.009 0.021,-0.017 0.034,-0.022 0.012,-0.006 0.026,-0.009 0.041,-0.009 0.014,0 0.028,0.003 0.041,0.009 0.012,0.005 0.023,0.013 0.033,0.022 0.01,0.01 0.017,0.021 0.023,0.034 0.005,0.013 0.008,0.026 0.008,0.041 z"
         style="fill-rule:nonzero"
         id="path14612" /></g></g></svg>
