<?xml version="1.0" encoding="UTF-8" standalone="no"?>
<svg
   width="13.155"
   height="16.305"
   viewBox="0 0 13.155 16.305"
   version="1.1"
   xml:space="preserve"
   style="clip-rule:evenodd;fill-rule:evenodd;stroke-linejoin:round;stroke-miterlimit:2"
   id="svg20568"
   sodipodi:docname="emojis.svg"
   xmlns:inkscape="http://www.inkscape.org/namespaces/inkscape"
   xmlns:sodipodi="http://sodipodi.sourceforge.net/DTD/sodipodi-0.dtd"
   xmlns="http://www.w3.org/2000/svg"
   xmlns:svg="http://www.w3.org/2000/svg"><defs
     id="defs20572" /><sodipodi:namedview
     id="namedview20570"
     pagecolor="#505050"
     bordercolor="#eeeeee"
     borderopacity="1"
     inkscape:pageshadow="0"
     inkscape:pageopacity="0"
     inkscape:pagecheckerboard="0" /><g
     transform="matrix(0.24,0,0,0.24,-192.26868,-128.22924)"
     id="g20566"><g
       transform="matrix(62.5,0,0,62.5,793.307,589.101)"
       id="g1460"><path
         d="M 0.458,0.21 C 0.428,0.21 0.398,0.206 0.37,0.198 0.341,0.191 0.315,0.179 0.29,0.165 0.265,0.15 0.243,0.133 0.223,0.113 0.202,0.093 0.185,0.07 0.171,0.045 0.156,0.021 0.145,-0.006 0.137,-0.034 0.129,-0.063 0.125,-0.092 0.125,-0.123 v -0.509 c 0,-0.015 0.003,-0.03 0.008,-0.044 0.005,-0.013 0.013,-0.026 0.023,-0.037 0.009,-0.011 0.02,-0.02 0.033,-0.027 0.013,-0.007 0.027,-0.011 0.042,-0.013 0.002,-0.018 0.007,-0.034 0.016,-0.049 0.008,-0.016 0.018,-0.029 0.03,-0.04 0.013,-0.011 0.027,-0.02 0.043,-0.026 0.016,-0.006 0.033,-0.009 0.051,-0.009 0.012,0 0.024,0.001 0.036,0.004 0.012,0.004 0.023,0.008 0.034,0.015 0.01,-0.007 0.022,-0.012 0.034,-0.015 0.012,-0.003 0.024,-0.004 0.036,-0.004 0.026,0 0.049,0.006 0.071,0.019 0.021,0.012 0.039,0.03 0.051,0.052 0.001,-0.001 0.002,-0.001 0.003,-0.001 H 0.64 c 0.02,0 0.04,0.003 0.058,0.01 0.019,0.006 0.035,0.015 0.049,0.027 0.014,0.013 0.025,0.027 0.033,0.045 0.008,0.017 0.012,0.037 0.012,0.058 v 0.3 c 0.01,-0.006 0.022,-0.011 0.033,-0.014 0.012,-0.004 0.024,-0.005 0.037,-0.005 0.019,0 0.038,0.003 0.055,0.011 0.017,0.007 0.032,0.017 0.044,0.03 0.013,0.012 0.023,0.027 0.03,0.044 0.008,0.018 0.011,0.036 0.011,0.055 0,0.019 -0.003,0.037 -0.01,0.054 -0.007,0.017 -0.017,0.032 -0.031,0.046 L 0.693,0.114 C 0.66,0.145 0.625,0.169 0.585,0.186 0.546,0.202 0.504,0.21 0.458,0.21 Z"
         style="fill-rule:nonzero"
         id="path1454" /><path
         d="m 0.862,-0.316 c 0.01,0 0.019,0.002 0.027,0.006 0.009,0.003 0.016,0.008 0.022,0.015 0.007,0.006 0.012,0.014 0.016,0.022 0.003,0.009 0.005,0.018 0.005,0.027 0,0.01 -0.002,0.018 -0.005,0.027 -0.004,0.009 -0.009,0.016 -0.015,0.023 L 0.644,0.063 C 0.619,0.088 0.59,0.107 0.559,0.12 0.528,0.134 0.494,0.14 0.458,0.14 0.422,0.14 0.388,0.133 0.356,0.119 0.324,0.106 0.296,0.087 0.272,0.063 0.249,0.039 0.23,0.011 0.216,-0.021 0.202,-0.052 0.195,-0.087 0.195,-0.123 v -0.509 c 0,-0.007 0.002,-0.014 0.004,-0.02 0.003,-0.007 0.007,-0.012 0.012,-0.017 0.004,-0.005 0.01,-0.009 0.016,-0.011 0.007,-0.003 0.014,-0.005 0.021,-0.005 0.007,0 0.013,0.002 0.02,0.005 0.006,0.002 0.011,0.006 0.016,0.011 0.005,0.004 0.008,0.009 0.011,0.016 0.003,0.006 0.005,0.012 0.005,0.019 v -0.103 c 0,-0.004 0.002,-0.009 0.004,-0.015 0.002,-0.006 0.005,-0.012 0.009,-0.018 0.003,-0.006 0.007,-0.011 0.011,-0.017 0.004,-0.005 0.008,-0.008 0.01,-0.01 0.006,-0.004 0.011,-0.006 0.018,-0.008 0.006,-0.001 0.012,-0.002 0.019,-0.002 0.009,0 0.018,0.002 0.026,0.005 0.009,0.003 0.016,0.008 0.022,0.014 0.007,0.006 0.012,0.013 0.016,0.021 0.003,0.009 0.006,0.017 0.006,0.027 C 0.442,-0.746 0.443,-0.751 0.445,-0.755 0.447,-0.76 0.45,-0.764 0.453,-0.769 L 0.469,-0.79 c 0.003,-0.004 0.006,-0.008 0.01,-0.01 0.004,-0.002 0.008,-0.004 0.013,-0.005 0.005,-0.002 0.011,-0.002 0.019,-0.002 0.01,0 0.019,0.002 0.028,0.005 0.008,0.004 0.015,0.009 0.022,0.015 0.006,0.006 0.011,0.014 0.015,0.022 0.003,0.009 0.005,0.018 0.005,0.028 v 0.065 c 0.001,-0.005 0.002,-0.01 0.005,-0.014 l 0.009,-0.015 c 0.004,-0.006 0.008,-0.011 0.011,-0.016 0.004,-0.004 0.007,-0.008 0.011,-0.011 0.004,-0.003 0.009,-0.006 0.014,-0.007 0.005,-0.002 0.012,-0.002 0.02,-0.002 0.01,0 0.019,0.002 0.028,0.005 0.008,0.004 0.016,0.009 0.022,0.015 0.006,0.007 0.011,0.014 0.015,0.023 0.004,0.008 0.006,0.017 0.006,0.027 v 0.421 l -0.005,0.013 0.005,0.014 0.09,-0.076 C 0.82,-0.302 0.828,-0.307 0.835,-0.311 0.843,-0.314 0.851,-0.316 0.862,-0.316 Z"
         style="fill:#ffc83d;fill-rule:nonzero"
         id="path1456" /><path
         d="M 0.722,-0.219 0.712,-0.21 H 0.599 c -0.022,0 -0.043,0.004 -0.062,0.012 -0.019,0.008 -0.035,0.02 -0.05,0.034 -0.014,0.014 -0.025,0.031 -0.034,0.05 -0.008,0.019 -0.012,0.039 -0.012,0.061 0,0.005 -0.002,0.009 -0.005,0.013 -0.004,0.003 -0.008,0.005 -0.013,0.005 -0.005,0 -0.009,-0.002 -0.012,-0.005 -0.004,-0.004 -0.005,-0.008 -0.005,-0.013 0,-0.026 0.005,-0.051 0.015,-0.075 0.01,-0.023 0.024,-0.044 0.041,-0.061 C 0.48,-0.207 0.5,-0.22 0.523,-0.23 0.547,-0.241 0.572,-0.246 0.599,-0.246 H 0.722 Z M 0.458,-0.386 C 0.454,-0.386 0.449,-0.388 0.446,-0.391 0.443,-0.395 0.441,-0.399 0.441,-0.404 v -0.333 c 0,-0.013 0.003,-0.024 0.009,-0.035 0.007,-0.011 0.015,-0.019 0.026,-0.025 v 0.393 c 0,0.005 -0.002,0.009 -0.005,0.013 -0.003,0.003 -0.008,0.005 -0.013,0.005 z M 0.3,-0.737 c 0,-0.013 0.003,-0.024 0.01,-0.035 0.006,-0.011 0.015,-0.019 0.025,-0.025 v 0.393 c 0,0.005 -0.001,0.009 -0.005,0.013 -0.003,0.003 -0.007,0.005 -0.012,0.005 -0.005,0 -0.009,-0.002 -0.013,-0.005 C 0.302,-0.395 0.3,-0.399 0.3,-0.404 Z m 0.299,0.351 C 0.594,-0.386 0.59,-0.388 0.586,-0.391 0.583,-0.395 0.581,-0.399 0.581,-0.404 v -0.263 c 0,-0.012 0.003,-0.024 0.01,-0.035 0.006,-0.01 0.015,-0.019 0.025,-0.026 v 0.324 c 0,0.005 -0.001,0.009 -0.005,0.013 -0.003,0.003 -0.007,0.005 -0.012,0.005 z"
         style="fill:#d48c00;fill-rule:nonzero"
         id="path1458" /></g></g></svg>
