<?xml version="1.0" encoding="UTF-8" standalone="no"?>
<svg
   width="14.22"
   height="15.255"
   viewBox="0 0 14.22 15.255"
   version="1.1"
   xml:space="preserve"
   style="clip-rule:evenodd;fill-rule:evenodd;stroke-linejoin:round;stroke-miterlimit:2"
   id="svg20568"
   sodipodi:docname="emojis.svg"
   xmlns:inkscape="http://www.inkscape.org/namespaces/inkscape"
   xmlns:sodipodi="http://sodipodi.sourceforge.net/DTD/sodipodi-0.dtd"
   xmlns="http://www.w3.org/2000/svg"
   xmlns:svg="http://www.w3.org/2000/svg"><defs
     id="defs20572" /><sodipodi:namedview
     id="namedview20570"
     pagecolor="#505050"
     bordercolor="#eeeeee"
     borderopacity="1"
     inkscape:pageshadow="0"
     inkscape:pageopacity="0"
     inkscape:pagecheckerboard="0" /><g
     transform="matrix(0.24,0,0,0.24,-209.18028,-129.27924)"
     id="g20566"><g
       transform="matrix(62.5,0,0,62.5,863.772,589.101)"
       id="g1468"><path
         d="M 0.529,0.21 C 0.498,0.21 0.469,0.206 0.44,0.198 0.412,0.191 0.385,0.179 0.36,0.165 0.336,0.15 0.313,0.133 0.293,0.113 0.273,0.093 0.255,0.07 0.241,0.045 0.226,0.021 0.215,-0.006 0.207,-0.034 0.199,-0.063 0.195,-0.092 0.195,-0.123 V -0.316 L 0.135,-0.461 C 0.132,-0.468 0.129,-0.476 0.127,-0.484 0.125,-0.492 0.125,-0.5 0.125,-0.508 c 0,-0.021 0.004,-0.04 0.014,-0.059 C 0.149,-0.585 0.163,-0.6 0.18,-0.611 0.175,-0.623 0.171,-0.635 0.166,-0.646 0.162,-0.658 0.16,-0.67 0.16,-0.684 c 0,-0.017 0.003,-0.033 0.009,-0.048 0.007,-0.015 0.015,-0.028 0.027,-0.039 0.011,-0.011 0.024,-0.02 0.039,-0.027 0.015,-0.006 0.031,-0.009 0.048,-0.009 0.024,0 0.043,0.004 0.059,0.014 0.015,0.009 0.028,0.021 0.038,0.035 0.011,0.015 0.02,0.031 0.027,0.049 0.007,0.018 0.014,0.036 0.022,0.054 l 0.065,0.153 0.097,-0.231 c 0.005,-0.011 0.011,-0.021 0.019,-0.03 0.008,-0.01 0.017,-0.018 0.026,-0.024 0.01,-0.006 0.021,-0.011 0.032,-0.015 0.012,-0.003 0.024,-0.005 0.036,-0.005 0.017,0 0.033,0.003 0.048,0.009 0.015,0.007 0.028,0.016 0.04,0.027 0.011,0.011 0.019,0.024 0.026,0.039 0.006,0.015 0.009,0.031 0.009,0.048 0,0.014 -0.002,0.026 -0.006,0.038 -0.004,0.011 -0.009,0.023 -0.014,0.035 0.017,0.01 0.031,0.025 0.041,0.043 0.009,0.019 0.014,0.038 0.014,0.059 0,0.008 -0.001,0.017 -0.003,0.025 -0.002,0.009 -0.004,0.017 -0.007,0.025 l -0.06,0.143 v 0.005 c 0.011,-0.009 0.022,-0.018 0.032,-0.027 0.01,-0.009 0.02,-0.018 0.031,-0.025 0.011,-0.007 0.022,-0.012 0.035,-0.017 0.012,-0.004 0.027,-0.006 0.042,-0.006 0.02,0 0.038,0.003 0.055,0.011 0.017,0.007 0.032,0.017 0.045,0.03 0.012,0.012 0.022,0.027 0.03,0.044 0.007,0.018 0.011,0.036 0.011,0.055 0,0.019 -0.004,0.037 -0.011,0.054 -0.006,0.017 -0.017,0.032 -0.03,0.046 L 0.763,0.114 C 0.731,0.145 0.695,0.169 0.656,0.186 0.617,0.202 0.574,0.21 0.529,0.21 Z"
         style="fill-rule:nonzero"
         id="path1462" /><path
         d="m 1.002,-0.246 c 0,0.01 -0.001,0.018 -0.005,0.027 -0.004,0.009 -0.009,0.016 -0.015,0.023 L 0.714,0.063 C 0.689,0.088 0.661,0.107 0.629,0.12 0.598,0.133 0.564,0.14 0.529,0.14 0.492,0.14 0.458,0.133 0.426,0.119 0.394,0.106 0.367,0.087 0.343,0.063 0.319,0.039 0.3,0.011 0.286,-0.021 0.273,-0.052 0.266,-0.087 0.266,-0.123 V -0.33 L 0.2,-0.488 C 0.197,-0.495 0.195,-0.502 0.195,-0.509 c 0,-0.013 0.005,-0.025 0.014,-0.035 0.009,-0.01 0.02,-0.016 0.034,-0.017 0.026,0.046 0.049,0.095 0.067,0.146 L 0.332,-0.431 0.235,-0.664 C 0.232,-0.67 0.23,-0.677 0.23,-0.684 c 0,-0.007 0.002,-0.014 0.005,-0.02 0.002,-0.007 0.006,-0.012 0.011,-0.017 0.005,-0.005 0.01,-0.009 0.016,-0.012 0.007,-0.002 0.014,-0.004 0.021,-0.004 0.01,0 0.02,0.003 0.029,0.009 0.008,0.005 0.015,0.013 0.019,0.022 l 0.105,0.247 c 0.002,0.007 0.005,0.015 0.008,0.023 0.003,0.008 0.006,0.016 0.011,0.024 0.004,0.007 0.009,0.013 0.015,0.018 0.006,0.005 0.014,0.008 0.024,0.008 0.009,0 0.016,-0.002 0.022,-0.007 0.006,-0.004 0.011,-0.01 0.015,-0.017 0.004,-0.008 0.008,-0.016 0.011,-0.024 0.002,-0.009 0.006,-0.017 0.009,-0.025 l 0.105,-0.247 c 0.004,-0.009 0.011,-0.017 0.02,-0.022 0.008,-0.006 0.018,-0.009 0.029,-0.009 0.007,0 0.014,0.002 0.02,0.004 0.006,0.003 0.012,0.007 0.016,0.012 0.005,0.004 0.009,0.01 0.012,0.016 0.002,0.007 0.004,0.013 0.004,0.02 0,0.008 -0.002,0.015 -0.005,0.021 l -0.101,0.243 v 0.035 l 0.01,-0.007 C 0.673,-0.422 0.686,-0.45 0.7,-0.478 c 0.014,-0.028 0.029,-0.056 0.045,-0.083 0.013,0.001 0.025,0.007 0.034,0.017 0.009,0.01 0.013,0.022 0.013,0.035 0,0.007 -0.001,0.014 -0.004,0.021 L 0.722,-0.33 v 0.08 c 0,0.012 0.002,0.022 0.007,0.029 0.005,0.007 0.014,0.011 0.028,0.011 0.005,0 0.012,-0.001 0.018,-0.002 0.007,0 0.013,-0.003 0.017,-0.007 l 0.091,-0.076 c 0.008,-0.007 0.015,-0.012 0.023,-0.016 0.007,-0.003 0.016,-0.005 0.026,-0.005 0.01,0 0.019,0.002 0.027,0.006 0.009,0.003 0.016,0.008 0.023,0.015 0.006,0.006 0.011,0.014 0.015,0.022 0.004,0.009 0.005,0.018 0.005,0.027 z"
         style="fill:#ffc83d;fill-rule:nonzero"
         id="path1464" /><path
         d="m 0.722,-0.246 c 0.001,0.009 0.004,0.017 0.008,0.024 0.005,0.007 0.013,0.011 0.022,0.012 H 0.704 c -0.027,0 -0.052,0.005 -0.075,0.015 -0.024,0.01 -0.044,0.024 -0.061,0.041 -0.018,0.017 -0.032,0.038 -0.042,0.061 -0.01,0.024 -0.015,0.049 -0.015,0.075 0,0.005 -0.001,0.009 -0.005,0.013 C 0.503,-0.002 0.499,0 0.494,0 0.489,0 0.485,-0.002 0.481,-0.005 0.478,-0.009 0.476,-0.013 0.476,-0.018 c 0,-0.031 0.006,-0.06 0.018,-0.088 0.012,-0.028 0.029,-0.052 0.049,-0.072 0.021,-0.021 0.045,-0.037 0.073,-0.05 0.027,-0.012 0.057,-0.018 0.088,-0.018 z M 0.388,-0.313 C 0.387,-0.309 0.386,-0.305 0.382,-0.302 0.379,-0.3 0.375,-0.298 0.371,-0.298 0.367,-0.298 0.364,-0.299 0.361,-0.301 0.358,-0.303 0.356,-0.306 0.354,-0.309 L 0.243,-0.561 0.249,-0.562 c 0.007,0 0.015,0.002 0.023,0.006 0.009,0.004 0.015,0.009 0.019,0.016 0.006,0.011 0.012,0.023 0.016,0.036 0.005,0.012 0.01,0.025 0.015,0.037 0.012,0.025 0.023,0.051 0.034,0.076 0.011,0.026 0.021,0.051 0.032,0.078 z m 0.211,0 0.066,-0.154 C 0.67,-0.48 0.675,-0.492 0.68,-0.504 0.685,-0.516 0.691,-0.528 0.697,-0.54 0.7,-0.547 0.706,-0.552 0.715,-0.556 0.724,-0.56 0.732,-0.562 0.739,-0.562 l 0.006,0.001 -0.113,0.252 C 0.629,-0.302 0.624,-0.298 0.616,-0.298 0.612,-0.298 0.608,-0.3 0.605,-0.303 0.602,-0.306 0.6,-0.309 0.599,-0.313 Z"
         style="fill:#d48c00;fill-rule:nonzero"
         id="path1466" /></g></g></svg>
