<?xml version="1.0" encoding="UTF-8" standalone="no"?>
<svg
   width="16.725"
   height="16.844999"
   viewBox="0 0 16.725 16.844999"
   version="1.1"
   xml:space="preserve"
   style="clip-rule:evenodd;fill-rule:evenodd;stroke-linejoin:round;stroke-miterlimit:2"
   id="svg20568"
   sodipodi:docname="emojis.svg"
   xmlns:inkscape="http://www.inkscape.org/namespaces/inkscape"
   xmlns:sodipodi="http://sodipodi.sourceforge.net/DTD/sodipodi-0.dtd"
   xmlns="http://www.w3.org/2000/svg"
   xmlns:svg="http://www.w3.org/2000/svg"><defs
     id="defs20572" /><sodipodi:namedview
     id="namedview20570"
     pagecolor="#505050"
     bordercolor="#eeeeee"
     borderopacity="1"
     inkscape:pageshadow="0"
     inkscape:pageopacity="0"
     inkscape:pagecheckerboard="0" /><g
     transform="matrix(0.24,0,0,0.24,-560.319,-749.3994)"
     id="g20566"><g
       transform="matrix(62.5,0,0,62.5,2326.85,3179.56)"
       id="g14652"><path
         d="M 0.125,-0.068 V -0.363 L 0.527,-0.564 C 0.51,-0.584 0.496,-0.605 0.487,-0.629 0.478,-0.653 0.474,-0.678 0.474,-0.704 c 0,-0.028 0.005,-0.055 0.016,-0.081 0.011,-0.025 0.026,-0.047 0.045,-0.066 0.019,-0.019 0.041,-0.034 0.066,-0.045 0.026,-0.011 0.053,-0.017 0.082,-0.017 0.028,0 0.055,0.006 0.081,0.017 0.025,0.011 0.047,0.026 0.066,0.045 0.019,0.019 0.034,0.041 0.045,0.066 0.011,0.026 0.017,0.053 0.017,0.081 0,0.026 -0.005,0.051 -0.014,0.075 -0.01,0.024 -0.023,0.045 -0.04,0.065 l 0.402,0.201 v 0.295 L 0.683,0.21 Z"
         style="fill-rule:nonzero"
         id="path14636" /><path
         d="m 1.17,-0.25 v 0.139 L 0.683,0.133 0.195,-0.111 V -0.25 Z"
         style="fill:#2b2b2b;fill-rule:nonzero"
         id="path14638" /><path
         d="M 1.17,-0.25 0.683,-0.007 0.195,-0.25 V -0.32 H 1.17 Z"
         style="fill:#383838;fill-rule:nonzero"
         id="path14640" /><path
         d="M 1.17,-0.32 0.683,-0.076 0.195,-0.32 0.683,-0.564 Z"
         style="fill:#757575;fill-rule:nonzero"
         id="path14642" /><path
         d="m 0.892,-0.32 c 0,0.013 -0.004,0.025 -0.012,0.035 -0.007,0.011 -0.017,0.02 -0.029,0.028 -0.012,0.007 -0.026,0.014 -0.041,0.019 -0.016,0.005 -0.031,0.01 -0.047,0.013 -0.015,0.003 -0.03,0.006 -0.044,0.007 -0.015,0.001 -0.027,0.002 -0.036,0.002 -0.014,0 -0.028,0 -0.041,-0.002 C 0.628,-0.219 0.615,-0.221 0.601,-0.224 0.59,-0.226 0.577,-0.23 0.562,-0.235 0.547,-0.24 0.533,-0.247 0.52,-0.255 0.507,-0.263 0.496,-0.272 0.487,-0.283 0.478,-0.294 0.474,-0.306 0.474,-0.32 c 0,-0.014 0.004,-0.027 0.013,-0.038 0.009,-0.011 0.02,-0.02 0.033,-0.028 0.013,-0.008 0.027,-0.014 0.042,-0.02 0.015,-0.005 0.028,-0.008 0.039,-0.011 0.014,-0.002 0.027,-0.005 0.041,-0.006 0.013,-0.001 0.027,-0.002 0.041,-0.002 0.009,0 0.021,0.001 0.036,0.002 0.014,0.002 0.029,0.004 0.044,0.007 0.016,0.004 0.031,0.008 0.047,0.013 0.015,0.005 0.029,0.012 0.041,0.02 0.012,0.008 0.022,0.017 0.029,0.027 0.008,0.01 0.012,0.022 0.012,0.036 z"
         style="fill:#1f1f1f;fill-rule:nonzero"
         id="path14644" /><path
         d="m 0.717,-0.634 v 0.314 c 0,0.003 -0.001,0.006 -0.004,0.008 -0.002,0.002 -0.005,0.004 -0.009,0.006 -0.004,0.001 -0.008,0.002 -0.012,0.003 -0.004,0 -0.007,0 -0.009,0 -0.003,0 -0.006,0 -0.01,0 C 0.669,-0.304 0.665,-0.305 0.661,-0.306 0.658,-0.308 0.654,-0.31 0.652,-0.312 0.649,-0.314 0.647,-0.317 0.647,-0.32 v -0.314 z"
         style="fill:#cccccc;fill-rule:nonzero"
         id="path14646" /><path
         d="m 0.299,-0.355 h 0.139 v 0.035 c 0,0.007 -0.002,0.012 -0.008,0.017 -0.005,0.004 -0.011,0.008 -0.019,0.01 -0.007,0.003 -0.015,0.005 -0.022,0.006 -0.008,0.001 -0.015,0.001 -0.02,0.001 -0.005,0 -0.011,0 -0.019,-0.001 C 0.342,-0.288 0.334,-0.29 0.327,-0.293 0.319,-0.295 0.313,-0.299 0.307,-0.303 0.302,-0.308 0.299,-0.313 0.299,-0.32 Z"
         style="fill:#af0d1a;fill-rule:nonzero"
         id="path14648" /><path
         d="m 0.822,-0.704 c 0,0.02 -0.004,0.038 -0.011,0.055 -0.008,0.017 -0.017,0.031 -0.03,0.044 -0.013,0.013 -0.027,0.023 -0.044,0.03 -0.017,0.007 -0.035,0.011 -0.054,0.011 -0.02,0 -0.038,-0.004 -0.055,-0.011 C 0.611,-0.582 0.597,-0.592 0.584,-0.605 0.571,-0.618 0.561,-0.632 0.554,-0.649 0.547,-0.666 0.543,-0.684 0.543,-0.704 c 0,-0.019 0.004,-0.037 0.011,-0.054 0.007,-0.017 0.017,-0.031 0.03,-0.044 0.013,-0.013 0.027,-0.022 0.044,-0.03 0.017,-0.007 0.035,-0.011 0.055,-0.011 0.019,0 0.037,0.004 0.054,0.011 0.017,0.008 0.031,0.017 0.044,0.03 0.013,0.013 0.022,0.027 0.03,0.044 0.007,0.017 0.011,0.035 0.011,0.054 z m -0.384,0.349 c 0,0.007 -0.002,0.012 -0.008,0.017 C 0.425,-0.334 0.419,-0.33 0.411,-0.328 0.404,-0.325 0.396,-0.323 0.388,-0.322 0.38,-0.321 0.374,-0.32 0.369,-0.32 0.364,-0.32 0.358,-0.321 0.35,-0.322 0.342,-0.323 0.334,-0.325 0.327,-0.328 0.319,-0.33 0.313,-0.334 0.307,-0.338 0.302,-0.343 0.299,-0.348 0.299,-0.355 c 0,-0.007 0.003,-0.013 0.008,-0.017 0.006,-0.005 0.012,-0.008 0.02,-0.011 0.007,-0.002 0.015,-0.004 0.023,-0.005 0.007,-0.002 0.014,-0.002 0.019,-0.002 0.005,0 0.012,0 0.02,0.002 0.007,0.001 0.015,0.003 0.022,0.005 0.008,0.003 0.014,0.006 0.019,0.011 0.006,0.004 0.008,0.01 0.008,0.017 z"
         style="fill:#e81224;fill-rule:nonzero"
         id="path14650" /></g></g></svg>
