<?xml version="1.0" encoding="UTF-8" standalone="no"?>
<svg
   width="14.73"
   height="16.844999"
   viewBox="0 0 14.73 16.844999"
   version="1.1"
   xml:space="preserve"
   style="clip-rule:evenodd;fill-rule:evenodd;stroke-linejoin:round;stroke-miterlimit:2"
   id="svg20568"
   sodipodi:docname="emojis.svg"
   xmlns:inkscape="http://www.inkscape.org/namespaces/inkscape"
   xmlns:sodipodi="http://sodipodi.sourceforge.net/DTD/sodipodi-0.dtd"
   xmlns="http://www.w3.org/2000/svg"
   xmlns:svg="http://www.w3.org/2000/svg"><defs
     id="defs20572" /><sodipodi:namedview
     id="namedview20570"
     pagecolor="#505050"
     bordercolor="#eeeeee"
     borderopacity="1"
     inkscape:pageshadow="0"
     inkscape:pageopacity="0"
     inkscape:pagecheckerboard="0" /><g
     transform="matrix(0.24,0,0,0.24,-601.3926,-749.3994)"
     id="g20566"><g
       transform="matrix(62.5,0,0,62.5,2497.99,3179.56)"
       id="g14690"><path
         d="m 0.125,-0.105 v -0.492 l 0.491,-0.316 0.491,0.316 v 0.492 L 0.616,0.21 Z"
         style="fill-rule:nonzero"
         id="path14676" /><path
         d="M 0.616,0.14 0.518,-0.286 0.616,-0.562 h 0.422 v 0.421 z"
         style="fill:#cccccc;fill-rule:nonzero"
         id="path14678" /><path
         d="M 0.616,0.14 0.195,-0.141 v -0.421 h 0.421 z"
         style="fill:#e5e5e5;fill-rule:nonzero"
         id="path14680" /><path
         d="m 0.897,-0.386 c 0,-0.01 0.002,-0.019 0.006,-0.028 0.003,-0.008 0.008,-0.015 0.015,-0.022 0.006,-0.006 0.013,-0.011 0.022,-0.015 0.008,-0.004 0.018,-0.006 0.027,-0.006 0.01,0 0.018,0.004 0.025,0.011 0.007,0.007 0.01,0.015 0.01,0.025 0,0.009 -0.001,0.019 -0.005,0.027 -0.004,0.009 -0.009,0.016 -0.015,0.023 -0.007,0.006 -0.014,0.011 -0.023,0.015 -0.008,0.003 -0.017,0.005 -0.027,0.005 -0.01,0 -0.018,-0.003 -0.025,-0.01 C 0.9,-0.368 0.897,-0.376 0.897,-0.386 Z m -0.123,0.193 c 0,-0.01 0.002,-0.019 0.006,-0.028 0.003,-0.008 0.008,-0.016 0.015,-0.022 0.006,-0.006 0.013,-0.011 0.022,-0.015 0.008,-0.003 0.017,-0.005 0.027,-0.005 0.01,0 0.018,0.003 0.025,0.01 0.007,0.007 0.01,0.015 0.01,0.025 0,0.01 -0.001,0.019 -0.005,0.027 C 0.87,-0.192 0.865,-0.185 0.859,-0.178 0.853,-0.172 0.845,-0.167 0.837,-0.164 0.828,-0.16 0.819,-0.158 0.81,-0.158 0.8,-0.158 0.792,-0.162 0.785,-0.168 0.778,-0.175 0.774,-0.184 0.774,-0.193 Z M 0.651,0 c 0,-0.01 0.002,-0.019 0.006,-0.027 0.003,-0.009 0.008,-0.016 0.015,-0.023 0.006,-0.006 0.013,-0.011 0.022,-0.015 0.009,-0.003 0.018,-0.005 0.028,-0.005 0.009,0 0.018,0.003 0.025,0.01 0.006,0.007 0.01,0.015 0.01,0.025 0,0.01 -0.002,0.019 -0.006,0.027 C 0.747,0.001 0.742,0.008 0.736,0.014 0.73,0.021 0.722,0.026 0.714,0.03 0.705,0.033 0.696,0.035 0.687,0.035 0.677,0.035 0.668,0.032 0.662,0.025 0.655,0.018 0.651,0.01 0.651,0 Z"
         style="fill:#1f1f1f;fill-rule:nonzero"
         id="path14682" /><path
         d="m 0.371,-0.316 c 0,0.01 -0.004,0.018 -0.011,0.025 -0.006,0.007 -0.015,0.01 -0.025,0.01 -0.009,0 -0.018,-0.002 -0.027,-0.005 C 0.3,-0.29 0.292,-0.295 0.286,-0.302 0.28,-0.308 0.274,-0.315 0.271,-0.324 0.267,-0.332 0.265,-0.341 0.265,-0.351 c 0,-0.01 0.004,-0.018 0.011,-0.025 0.007,-0.007 0.015,-0.01 0.024,-0.01 0.01,0 0.019,0.002 0.028,0.005 0.008,0.004 0.016,0.009 0.022,0.016 0.006,0.006 0.011,0.013 0.015,0.022 0.004,0.008 0.006,0.017 0.006,0.027 z m 0.175,0.246 c 0,0.009 -0.004,0.017 -0.01,0.024 -0.007,0.007 -0.015,0.011 -0.025,0.011 -0.01,0 -0.019,-0.002 -0.027,-0.006 C 0.475,-0.044 0.468,-0.049 0.461,-0.055 0.455,-0.062 0.45,-0.069 0.446,-0.078 0.443,-0.087 0.441,-0.096 0.441,-0.105 c 0,-0.01 0.003,-0.019 0.01,-0.025 0.007,-0.007 0.015,-0.011 0.025,-0.011 0.01,0 0.019,0.002 0.027,0.006 0.009,0.004 0.016,0.009 0.023,0.015 0.006,0.006 0.011,0.014 0.015,0.022 0.003,0.009 0.005,0.018 0.005,0.028 z"
         style="fill:#2b2b2b;fill-rule:nonzero"
         id="path14684" /><path
         d="m 0.195,-0.562 0.421,-0.28 0.422,0.28 -0.422,0.281 z"
         style="fill:#ffffff;fill-rule:nonzero"
         id="path14686" /><path
         d="m 0.546,-0.562 c 0,-0.008 0.002,-0.015 0.007,-0.022 0.004,-0.006 0.01,-0.012 0.017,-0.017 0.007,-0.004 0.015,-0.008 0.023,-0.01 0.008,-0.002 0.016,-0.003 0.023,-0.003 0.007,0 0.015,0.001 0.023,0.003 0.009,0.002 0.016,0.006 0.023,0.01 0.007,0.005 0.013,0.011 0.018,0.017 0.004,0.007 0.007,0.014 0.007,0.022 0,0.009 -0.003,0.016 -0.007,0.023 -0.005,0.006 -0.011,0.012 -0.018,0.017 -0.007,0.004 -0.014,0.008 -0.023,0.01 C 0.631,-0.51 0.623,-0.509 0.616,-0.509 0.609,-0.509 0.601,-0.51 0.593,-0.512 0.585,-0.514 0.577,-0.518 0.57,-0.522 0.563,-0.527 0.557,-0.533 0.553,-0.539 0.548,-0.546 0.546,-0.553 0.546,-0.562 Z"
         style="fill:#af0d1a;fill-rule:nonzero"
         id="path14688" /></g></g></svg>
