<?xml version="1.0" encoding="UTF-8" standalone="no"?>
<svg
   width="15.57"
   height="16.844999"
   viewBox="0 0 15.57 16.844999"
   version="1.1"
   xml:space="preserve"
   style="clip-rule:evenodd;fill-rule:evenodd;stroke-linejoin:round;stroke-miterlimit:2"
   id="svg20568"
   sodipodi:docname="emojis.svg"
   xmlns:inkscape="http://www.inkscape.org/namespaces/inkscape"
   xmlns:sodipodi="http://sodipodi.sourceforge.net/DTD/sodipodi-0.dtd"
   xmlns="http://www.w3.org/2000/svg"
   xmlns:svg="http://www.w3.org/2000/svg"><defs
     id="defs20572" /><sodipodi:namedview
     id="namedview20570"
     pagecolor="#505050"
     bordercolor="#eeeeee"
     borderopacity="1"
     inkscape:pageshadow="0"
     inkscape:pageopacity="0"
     inkscape:pagecheckerboard="0" /><g
     transform="matrix(0.24,0,0,0.24,-499.7982,-749.3994)"
     id="g20566"><g
       transform="matrix(62.5,0,0,62.5,2074.68,3179.56)"
       id="g14602"><path
         d="M 0.531,0.21 C 0.508,0.21 0.487,0.208 0.467,0.202 0.448,0.197 0.429,0.189 0.412,0.179 0.395,0.169 0.379,0.156 0.364,0.142 0.349,0.128 0.335,0.112 0.321,0.095 V -0.019 L 0.269,-0.123 0.155,-0.18 C 0.146,-0.185 0.139,-0.191 0.133,-0.2 0.128,-0.209 0.125,-0.218 0.125,-0.228 0.125,-0.237 0.127,-0.246 0.131,-0.252 0.135,-0.259 0.14,-0.265 0.147,-0.271 0.153,-0.276 0.161,-0.28 0.168,-0.284 0.176,-0.288 0.184,-0.292 0.191,-0.295 L 0.196,-0.297 C 0.186,-0.338 0.181,-0.38 0.181,-0.421 0.181,-0.461 0.185,-0.5 0.195,-0.538 0.204,-0.576 0.218,-0.613 0.236,-0.648 0.224,-0.653 0.214,-0.66 0.207,-0.668 0.199,-0.677 0.195,-0.688 0.195,-0.702 c 0,-0.011 0.003,-0.021 0.008,-0.028 0.006,-0.008 0.013,-0.015 0.022,-0.021 0.008,-0.005 0.018,-0.01 0.028,-0.015 0.01,-0.004 0.019,-0.008 0.027,-0.012 L 0.283,-0.783 C 0.287,-0.792 0.291,-0.8 0.295,-0.808 0.299,-0.817 0.304,-0.825 0.308,-0.833 0.314,-0.842 0.32,-0.85 0.328,-0.855 0.335,-0.86 0.345,-0.863 0.356,-0.863 c 0.01,0 0.02,0.003 0.028,0.008 0.009,0.005 0.015,0.013 0.02,0.022 0.04,-0.026 0.083,-0.046 0.128,-0.06 0.045,-0.013 0.092,-0.02 0.14,-0.02 0.045,0 0.089,0.006 0.13,0.018 0.042,0.012 0.081,0.028 0.118,0.05 0.036,0.021 0.069,0.046 0.099,0.076 0.03,0.03 0.056,0.064 0.077,0.1 0.021,0.036 0.038,0.075 0.05,0.117 0.011,0.042 0.017,0.085 0.017,0.131 0,0.034 -0.004,0.069 -0.011,0.103 -0.008,0.033 -0.018,0.066 -0.033,0.098 -0.014,0.031 -0.031,0.061 -0.052,0.089 -0.02,0.028 -0.043,0.054 -0.069,0.077 l 0.025,0.025 V 0.095 C 1.009,0.112 0.995,0.128 0.98,0.142 0.965,0.156 0.948,0.169 0.931,0.179 0.914,0.189 0.895,0.197 0.876,0.202 0.856,0.208 0.835,0.21 0.812,0.21 Z"
         style="fill-rule:nonzero"
         id="path14586" /><path
         d="M 0.505,0.105 C 0.486,0.105 0.47,0.103 0.459,0.097 0.448,0.092 0.438,0.084 0.43,0.074 0.423,0.065 0.416,0.054 0.41,0.041 0.405,0.028 0.398,0.015 0.391,0 L 0.496,-0.105 H 0.847 L 0.953,0 C 0.949,0.011 0.945,0.023 0.942,0.034 0.938,0.046 0.933,0.057 0.927,0.067 0.922,0.076 0.915,0.084 0.906,0.09 0.897,0.096 0.888,0.101 0.878,0.104 0.868,0.108 0.858,0.111 0.847,0.112 0.837,0.114 0.827,0.114 0.817,0.114 0.771,0.114 0.725,0.113 0.679,0.109 0.634,0.106 0.588,0.104 0.542,0.104 Z"
         style="fill:#bb9167;fill-rule:nonzero"
         id="path14588" /><path
         d="M 0.391,0 C 0.409,0.021 0.429,0.039 0.453,0.051 0.477,0.064 0.503,0.07 0.531,0.07 H 0.812 C 0.84,0.07 0.866,0.064 0.89,0.051 0.914,0.039 0.935,0.021 0.953,0 V 0.07 C 0.935,0.092 0.914,0.109 0.89,0.121 0.866,0.134 0.84,0.14 0.812,0.14 H 0.531 C 0.504,0.14 0.478,0.134 0.454,0.121 0.43,0.108 0.409,0.091 0.391,0.07 Z"
         style="fill:#8e562e;fill-rule:nonzero"
         id="path14590" /><path
         d="m 1.093,-0.421 c 0,0.039 -0.005,0.077 -0.016,0.114 -0.01,0.037 -0.025,0.072 -0.046,0.105 -0.03,0.022 -0.058,0.042 -0.084,0.06 -0.027,0.018 -0.054,0.034 -0.082,0.046 -0.027,0.013 -0.057,0.022 -0.088,0.029 -0.031,0.007 -0.066,0.01 -0.105,0.01 -0.058,0 -0.109,-0.007 -0.154,-0.022 C 0.473,-0.094 0.435,-0.116 0.405,-0.146 0.374,-0.176 0.351,-0.213 0.335,-0.257 0.319,-0.302 0.311,-0.353 0.311,-0.412 c 0,-0.028 0.001,-0.053 0.004,-0.076 0.002,-0.023 0.006,-0.045 0.011,-0.065 0.005,-0.02 0.011,-0.039 0.018,-0.057 0.008,-0.019 0.017,-0.037 0.028,-0.055 0.01,-0.018 0.022,-0.036 0.036,-0.055 0.013,-0.019 0.028,-0.039 0.045,-0.061 0.033,-0.02 0.068,-0.036 0.105,-0.046 0.037,-0.01 0.075,-0.015 0.114,-0.015 0.039,0 0.076,0.005 0.112,0.015 0.035,0.01 0.069,0.024 0.1,0.042 0.032,0.019 0.06,0.04 0.085,0.066 0.026,0.026 0.048,0.054 0.066,0.085 0.018,0.031 0.033,0.065 0.043,0.101 0.01,0.036 0.015,0.073 0.015,0.112 z"
         style="fill:#886ce4;fill-rule:nonzero"
         id="path14592" /><path
         d="m 0.391,-0.562 c 0,0.039 0.005,0.076 0.015,0.112 0.01,0.036 0.025,0.07 0.043,0.101 0.018,0.031 0.04,0.06 0.065,0.085 0.026,0.026 0.054,0.048 0.086,0.066 0.031,0.018 0.064,0.032 0.1,0.042 0.036,0.01 0.073,0.015 0.112,0.015 0.039,0 0.077,-0.005 0.114,-0.015 0.037,-0.011 0.072,-0.026 0.105,-0.046 -0.019,0.031 -0.042,0.059 -0.068,0.084 -0.026,0.025 -0.054,0.047 -0.085,0.064 -0.031,0.017 -0.064,0.031 -0.099,0.04 C 0.744,-0.005 0.709,0 0.672,0 0.633,0 0.596,-0.005 0.56,-0.015 0.524,-0.025 0.491,-0.039 0.459,-0.058 0.428,-0.076 0.4,-0.098 0.374,-0.124 0.348,-0.149 0.326,-0.178 0.308,-0.209 0.29,-0.24 0.276,-0.274 0.266,-0.31 0.256,-0.345 0.25,-0.383 0.25,-0.421 c 0,-0.037 0.005,-0.073 0.014,-0.108 0.01,-0.035 0.023,-0.068 0.041,-0.098 0.017,-0.031 0.039,-0.06 0.064,-0.086 0.025,-0.026 0.053,-0.049 0.084,-0.068 -0.02,0.033 -0.036,0.069 -0.046,0.106 -0.011,0.037 -0.016,0.075 -0.016,0.113 z"
         style="fill:#735bc1;fill-rule:nonzero"
         id="path14594" /><path
         d="M 0.215,-0.228 0.321,-0.281 0.374,-0.386 0.426,-0.281 0.531,-0.228 0.426,-0.176 0.374,-0.07 0.321,-0.176 Z"
         style="fill:#fce100;fill-rule:nonzero"
         id="path14596" /><path
         d="m 0.286,-0.702 0.047,-0.024 0.023,-0.046 0.023,0.046 0.047,0.024 -0.047,0.023 -0.023,0.047 -0.023,-0.047 z"
         style="fill:#f495bf;fill-rule:nonzero"
         id="path14598" /><path
         d="m 0.742,-0.597 0.07,-0.035 0.035,-0.07 0.035,0.07 0.071,0.035 -0.071,0.035 -0.035,0.071 -0.035,-0.071 z"
         style="fill:#69eaff;fill-rule:nonzero"
         id="path14600" /></g></g></svg>
