<?xml version="1.0" encoding="UTF-8" standalone="no"?>
<svg
   width="11.58"
   height="16.844999"
   viewBox="0 0 11.58 16.844999"
   version="1.1"
   xml:space="preserve"
   style="clip-rule:evenodd;fill-rule:evenodd;stroke-linejoin:round;stroke-miterlimit:2"
   id="svg20568"
   sodipodi:docname="emojis.svg"
   xmlns:inkscape="http://www.inkscape.org/namespaces/inkscape"
   xmlns:sodipodi="http://sodipodi.sourceforge.net/DTD/sodipodi-0.dtd"
   xmlns="http://www.w3.org/2000/svg"
   xmlns:svg="http://www.w3.org/2000/svg"><defs
     id="defs20572" /><sodipodi:namedview
     id="namedview20570"
     pagecolor="#505050"
     bordercolor="#eeeeee"
     borderopacity="1"
     inkscape:pageshadow="0"
     inkscape:pageopacity="0"
     inkscape:pagecheckerboard="0" /><g
     transform="matrix(0.24,0,0,0.24,-227.14668,-127.68924)"
     id="g20566"><g
       transform="matrix(62.5,0,0,62.5,938.632,589.101)"
       id="g1476"><path
         d="m 0.529,-0.913 c 0.025,0 0.047,0.007 0.066,0.02 0.019,0.013 0.034,0.03 0.045,0.052 l 0.235,0.45 c 0.007,0.013 0.013,0.025 0.016,0.036 0.004,0.011 0.006,0.024 0.006,0.039 v 0.14 c 0,0.036 -0.005,0.07 -0.014,0.103 C 0.874,-0.04 0.861,-0.01 0.844,0.019 0.828,0.048 0.808,0.074 0.784,0.097 0.76,0.121 0.734,0.141 0.706,0.157 0.677,0.174 0.647,0.187 0.614,0.197 0.581,0.206 0.547,0.21 0.511,0.21 0.476,0.21 0.442,0.206 0.409,0.197 0.376,0.187 0.345,0.174 0.316,0.157 0.288,0.141 0.262,0.121 0.238,0.097 0.215,0.074 0.195,0.048 0.178,0.019 0.161,-0.01 0.148,-0.04 0.139,-0.073 0.13,-0.106 0.125,-0.14 0.125,-0.176 v -0.036 c 0,-0.016 0.001,-0.031 0.004,-0.045 0.002,-0.014 0.009,-0.028 0.018,-0.041 -0.015,-0.021 -0.022,-0.045 -0.022,-0.071 0,-0.017 0.003,-0.033 0.01,-0.048 C 0.141,-0.431 0.15,-0.444 0.161,-0.456 0.172,-0.467 0.185,-0.475 0.2,-0.482 0.215,-0.488 0.231,-0.491 0.248,-0.491 H 0.373 C 0.361,-0.503 0.348,-0.515 0.336,-0.527 0.324,-0.538 0.313,-0.55 0.301,-0.562 0.29,-0.576 0.281,-0.589 0.274,-0.602 0.268,-0.616 0.265,-0.632 0.265,-0.649 c 0,-0.017 0.003,-0.033 0.01,-0.048 0.006,-0.015 0.015,-0.028 0.026,-0.039 0.011,-0.011 0.024,-0.02 0.039,-0.026 0.015,-0.007 0.031,-0.01 0.048,-0.01 0.006,0 0.013,0.001 0.019,0.001 -10e-4,-0.006 -10e-4,-0.012 -10e-4,-0.019 0,-0.016 0.003,-0.032 0.01,-0.047 0.006,-0.015 0.015,-0.028 0.026,-0.039 0.011,-0.012 0.024,-0.02 0.039,-0.027 0.015,-0.006 0.031,-0.01 0.048,-0.01 z m -0.088,0.808 c 0.01,0 0.019,-0.002 0.027,-0.006 C 0.477,-0.115 0.484,-0.12 0.49,-0.126 0.497,-0.133 0.502,-0.14 0.506,-0.148 0.509,-0.157 0.511,-0.166 0.511,-0.176 0.511,-0.186 0.509,-0.195 0.506,-0.203 0.502,-0.212 0.497,-0.219 0.49,-0.225 0.484,-0.232 0.477,-0.237 0.468,-0.24 0.46,-0.244 0.451,-0.246 0.441,-0.246 h -0.07 v 0.07 c 0,0.01 0.001,0.019 0.005,0.028 0.004,0.008 0.009,0.015 0.015,0.022 0.007,0.006 0.014,0.011 0.023,0.015 0.008,0.004 0.017,0.006 0.027,0.006 z"
         style="fill-rule:nonzero"
         id="path1470" /><path
         d="m 0.651,-0.46 v 0.074 H 0.577 L 0.351,-0.612 c -0.01,-0.011 -0.016,-0.023 -0.016,-0.037 0,-0.008 0.002,-0.014 0.005,-0.021 0.002,-0.006 0.006,-0.012 0.011,-0.016 0.005,-0.005 0.011,-0.009 0.017,-0.012 0.006,-0.002 0.013,-0.004 0.02,-0.004 0.007,0 0.014,0.002 0.02,0.004 0.007,0.003 0.012,0.007 0.017,0.011 z"
         style="fill:#d48c00;fill-rule:nonzero"
         id="path1472" /><path
         d="m 0.529,-0.842 c 0.011,0 0.021,0.003 0.029,0.008 0.007,0.006 0.014,0.014 0.019,0.023 l 0.238,0.456 c 0.004,0.007 0.006,0.013 0.008,0.019 0.003,0.005 0.004,0.012 0.004,0.02 v 0.14 c 0,0.044 -0.009,0.085 -0.025,0.123 C 0.786,-0.014 0.763,0.019 0.734,0.048 0.706,0.076 0.672,0.099 0.634,0.115 0.596,0.132 0.555,0.14 0.511,0.14 0.482,0.14 0.454,0.136 0.427,0.129 0.4,0.121 0.375,0.111 0.352,0.097 0.328,0.083 0.307,0.067 0.288,0.048 0.268,0.029 0.252,0.007 0.238,-0.016 0.225,-0.04 0.214,-0.065 0.207,-0.092 0.199,-0.119 0.195,-0.147 0.195,-0.176 v -0.052 c 0,-0.007 0.002,-0.014 0.004,-0.021 0.003,-0.006 0.007,-0.012 0.012,-0.016 0.004,-0.005 0.01,-0.009 0.016,-0.012 0.007,-0.002 0.014,-0.004 0.021,-0.004 0.007,0 0.014,0.002 0.02,0.004 0.007,0.003 0.012,0.007 0.017,0.012 0.005,0.005 0.008,0.01 0.011,0.017 0.003,0.006 0.004,0.013 0.004,0.02 v 0.052 c 0,0.02 0.004,0.038 0.011,0.055 0.008,0.017 0.018,0.032 0.03,0.045 0.013,0.013 0.028,0.023 0.045,0.03 0.017,0.007 0.035,0.011 0.055,0.011 0.019,0 0.038,-0.004 0.055,-0.011 C 0.513,-0.053 0.527,-0.063 0.54,-0.076 0.553,-0.089 0.563,-0.104 0.57,-0.121 0.577,-0.138 0.581,-0.156 0.581,-0.176 0.581,-0.195 0.577,-0.213 0.57,-0.23 0.563,-0.247 0.553,-0.262 0.54,-0.275 0.527,-0.288 0.512,-0.298 0.495,-0.305 0.478,-0.312 0.46,-0.316 0.441,-0.316 H 0.248 C 0.241,-0.316 0.234,-0.317 0.227,-0.32 0.221,-0.323 0.215,-0.327 0.211,-0.331 0.206,-0.336 0.202,-0.342 0.199,-0.348 0.197,-0.354 0.195,-0.361 0.195,-0.369 c 0,-0.007 0.002,-0.014 0.004,-0.02 0.003,-0.006 0.007,-0.012 0.012,-0.017 0.005,-0.005 0.01,-0.008 0.017,-0.011 0.006,-0.003 0.013,-0.004 0.02,-0.004 H 0.652 L 0.48,-0.768 C 0.479,-0.772 0.478,-0.775 0.477,-0.779 0.476,-0.782 0.476,-0.786 0.476,-0.79 c 0,-0.007 0.001,-0.014 0.004,-0.02 0.003,-0.007 0.007,-0.012 0.011,-0.017 0.005,-0.005 0.011,-0.008 0.017,-0.011 0.006,-0.003 0.013,-0.004 0.021,-0.004 z"
         style="fill:#ffc83d;fill-rule:nonzero"
         id="path1474" /></g></g></svg>
