<?xml version="1.0" encoding="UTF-8" standalone="no"?>
<svg
   width="12.63"
   height="16.844999"
   viewBox="0 0 12.63 16.844999"
   version="1.1"
   xml:space="preserve"
   style="clip-rule:evenodd;fill-rule:evenodd;stroke-linejoin:round;stroke-miterlimit:2"
   id="svg20568"
   sodipodi:docname="emojis.svg"
   xmlns:inkscape="http://www.inkscape.org/namespaces/inkscape"
   xmlns:sodipodi="http://sodipodi.sourceforge.net/DTD/sodipodi-0.dtd"
   xmlns="http://www.w3.org/2000/svg"
   xmlns:svg="http://www.w3.org/2000/svg"><defs
     id="defs20572" /><sodipodi:namedview
     id="namedview20570"
     pagecolor="#505050"
     bordercolor="#eeeeee"
     borderopacity="1"
     inkscape:pageshadow="0"
     inkscape:pageopacity="0"
     inkscape:pagecheckerboard="0" /><g
     transform="matrix(0.24,0,0,0.24,-619.887,-749.3994)"
     id="g20566"><g
       transform="matrix(62.5,0,0,62.5,2575.05,3179.56)"
       id="g14700"><path
         d="m 0.885,-0.093 c 0.012,0.006 0.024,0.013 0.034,0.022 0.01,0.009 0.019,0.019 0.026,0.03 0.007,0.011 0.013,0.023 0.016,0.036 0.004,0.013 0.006,0.026 0.006,0.04 V 0.21 H 0.125 V 0.035 c 0,-0.014 0.002,-0.027 0.006,-0.04 C 0.135,-0.018 0.14,-0.03 0.147,-0.041 0.155,-0.052 0.163,-0.062 0.173,-0.071 0.183,-0.08 0.195,-0.087 0.208,-0.093 0.216,-0.111 0.228,-0.127 0.244,-0.141 0.259,-0.155 0.277,-0.164 0.296,-0.17 0.31,-0.189 0.321,-0.209 0.33,-0.23 0.338,-0.25 0.346,-0.272 0.351,-0.293 0.357,-0.315 0.361,-0.337 0.364,-0.359 0.366,-0.382 0.368,-0.405 0.369,-0.428 0.359,-0.432 0.349,-0.437 0.341,-0.444 0.333,-0.45 0.326,-0.458 0.319,-0.467 0.313,-0.475 0.308,-0.485 0.305,-0.495 0.302,-0.505 0.3,-0.515 0.3,-0.526 0.3,-0.545 0.305,-0.563 0.314,-0.579 0.324,-0.595 0.337,-0.608 0.353,-0.618 0.347,-0.631 0.343,-0.645 0.34,-0.659 0.337,-0.673 0.335,-0.687 0.335,-0.702 c 0,-0.029 0.006,-0.056 0.017,-0.082 0.011,-0.025 0.026,-0.048 0.045,-0.067 0.019,-0.019 0.042,-0.034 0.067,-0.045 0.026,-0.011 0.053,-0.017 0.082,-0.017 0.029,0 0.056,0.006 0.082,0.017 0.026,0.011 0.048,0.026 0.067,0.045 0.019,0.019 0.034,0.042 0.045,0.067 0.011,0.026 0.017,0.053 0.017,0.082 0,0.015 -0.002,0.029 -0.005,0.043 -0.002,0.014 -0.007,0.028 -0.013,0.041 0.017,0.01 0.029,0.023 0.039,0.039 0.009,0.016 0.014,0.034 0.014,0.053 0,0.011 -0.002,0.021 -0.005,0.031 -0.003,0.01 -0.008,0.02 -0.014,0.028 -0.006,0.009 -0.014,0.017 -0.022,0.023 -0.008,0.007 -0.018,0.012 -0.028,0.016 0.001,0.023 0.003,0.046 0.006,0.069 0.003,0.022 0.007,0.044 0.012,0.066 0.006,0.021 0.013,0.043 0.022,0.063 0.008,0.021 0.02,0.041 0.033,0.06 0.019,0.006 0.037,0.015 0.053,0.029 0.015,0.014 0.027,0.03 0.036,0.048 z"
         style="fill-rule:nonzero"
         id="path14692" /><path
         d="m 0.667,-0.702 c 0,0.02 -0.003,0.037 -0.009,0.051 C 0.653,-0.637 0.645,-0.625 0.635,-0.616 0.624,-0.608 0.612,-0.601 0.597,-0.597 0.582,-0.592 0.565,-0.59 0.546,-0.59 0.531,-0.59 0.518,-0.591 0.507,-0.594 0.496,-0.596 0.486,-0.6 0.477,-0.604 0.467,-0.609 0.458,-0.615 0.448,-0.621 0.439,-0.628 0.429,-0.636 0.418,-0.645 0.41,-0.663 0.406,-0.683 0.406,-0.702 c 0,-0.019 0.003,-0.038 0.011,-0.055 0.007,-0.017 0.017,-0.032 0.03,-0.044 0.012,-0.013 0.027,-0.023 0.044,-0.03 0.018,-0.008 0.036,-0.011 0.055,-0.011 0.003,0 0.007,0 0.012,0 0.005,0.001 0.011,0.002 0.016,0.003 0.005,0.001 0.01,0.002 0.015,0.003 0.005,0.001 0.009,0.003 0.012,0.004 l 0.011,0.01 c 0.002,0.003 0.004,0.005 0.007,0.007 0.002,0.002 0.003,0.003 0.004,0.004 0.009,0.009 0.016,0.017 0.021,0.025 0.006,0.008 0.01,0.016 0.013,0.025 0.004,0.008 0.006,0.017 0.008,0.027 0.001,0.01 0.002,0.021 0.002,0.032 z M 0.549,-0.478 0.616,-0.186 0.546,0.14 H 0.195 V 0.035 c 0,-0.015 0.005,-0.029 0.014,-0.042 0.009,-0.012 0.02,-0.02 0.035,-0.025 0.004,-0.001 0.007,-0.002 0.011,-0.002 0.003,0 0.007,-0.001 0.01,-0.001 0.002,0 0.004,-10e-4 0.006,-0.002 C 0.273,-0.038 0.275,-0.04 0.278,-0.042 0.28,-0.043 0.281,-0.045 0.283,-0.047 0.284,-0.049 0.285,-0.051 0.285,-0.053 0.285,-0.055 0.284,-0.058 0.281,-0.062 0.279,-0.066 0.277,-0.068 0.275,-0.07 0.281,-0.081 0.29,-0.09 0.301,-0.096 0.312,-0.102 0.323,-0.105 0.335,-0.105 0.356,-0.132 0.373,-0.158 0.386,-0.186 0.4,-0.214 0.41,-0.242 0.418,-0.271 0.425,-0.301 0.431,-0.331 0.434,-0.362 0.437,-0.392 0.439,-0.424 0.44,-0.457 L 0.473,-0.474 0.441,-0.491 H 0.422 C 0.416,-0.491 0.41,-0.492 0.404,-0.492 0.398,-0.493 0.392,-0.494 0.387,-0.497 0.382,-0.499 0.378,-0.503 0.375,-0.507 0.372,-0.512 0.371,-0.518 0.371,-0.526 c 0,-0.01 0.003,-0.018 0.01,-0.025 0.007,-0.007 0.015,-0.011 0.025,-0.011 h 0.14 l 0.032,0.036 v 0.052 z"
         style="fill:#757575;fill-rule:nonzero"
         id="path14694" /><path
         d="m 0.687,-0.702 c 0,0.019 -0.004,0.038 -0.011,0.055 -0.008,0.017 -0.018,0.032 -0.03,0.044 -0.013,0.013 -0.028,0.023 -0.045,0.03 -0.017,0.008 -0.036,0.011 -0.055,0.011 -0.014,0 -0.027,-10e-4 -0.04,-0.005 C 0.493,-0.571 0.481,-0.577 0.47,-0.584 0.459,-0.592 0.449,-0.6 0.44,-0.61 0.431,-0.62 0.424,-0.632 0.418,-0.645 c 0.019,0.009 0.038,0.013 0.058,0.013 0.019,0 0.037,-0.003 0.055,-0.011 0.017,-0.007 0.032,-0.017 0.044,-0.03 0.013,-0.013 0.023,-0.027 0.03,-0.045 0.008,-0.017 0.011,-0.035 0.011,-0.054 0,-0.02 -0.004,-0.039 -0.012,-0.058 0.012,0.006 0.024,0.013 0.034,0.022 0.01,0.009 0.018,0.019 0.026,0.03 0.007,0.011 0.013,0.023 0.017,0.036 0.004,0.013 0.006,0.026 0.006,0.04 z m 0.14,0.667 c 0.009,0 0.019,0.002 0.027,0.005 0.008,0.004 0.016,0.009 0.022,0.016 0.007,0.006 0.012,0.013 0.015,0.022 0.004,0.008 0.006,0.017 0.006,0.027 V 0.14 H 0.546 V -0.035 H 0.265 c 0,-0.013 0.003,-0.024 0.01,-0.035 H 0.546 V -0.457 H 0.44 c 0.001,-0.005 0.001,-0.011 0.001,-0.017 v -0.017 h 0.105 v -0.071 h 0.141 c 0.009,0 0.017,0.004 0.024,0.011 0.007,0.007 0.011,0.015 0.011,0.025 0,0.008 -0.002,0.014 -0.005,0.019 -0.003,0.004 -0.007,0.008 -0.012,0.01 -0.005,0.003 -0.01,0.004 -0.017,0.005 -0.006,0 -0.012,0.001 -0.018,0.001 H 0.651 c -0.001,0.002 -0.003,0.004 -0.005,0.008 -0.002,0.003 -0.003,0.006 -0.003,0.009 0,0.002 0.001,0.006 0.003,0.009 0.002,0.004 0.004,0.007 0.006,0.008 0.001,0.033 0.002,0.064 0.006,0.095 0.003,0.031 0.009,0.061 0.016,0.091 0.008,0.029 0.019,0.057 0.032,0.085 0.013,0.028 0.03,0.055 0.051,0.081 0.01,0 0.019,0.001 0.027,0.005 0.009,0.004 0.016,0.009 0.022,0.015 0.007,0.007 0.012,0.014 0.015,0.022 0.004,0.009 0.006,0.018 0.006,0.028 z"
         style="fill:#383838;fill-rule:nonzero"
         id="path14696" /><path
         d="M 0.652,-0.457 H 0.546 v -0.034 h 0.105 v 0.017 c 0,0.006 0.001,0.012 0.001,0.017 z m 0.175,0.422 H 0.546 V -0.07 h 0.271 c 0.007,0.011 0.01,0.023 0.01,0.035 z"
         style="fill:#1f1f1f;fill-rule:nonzero"
         id="path14698" /></g></g></svg>
