<?xml version="1.0" encoding="UTF-8" standalone="no"?>
<svg
   width="16.844999"
   height="16.844999"
   viewBox="0 0 16.844999 16.844999"
   version="1.1"
   xml:space="preserve"
   style="clip-rule:evenodd;fill-rule:evenodd;stroke-linejoin:round;stroke-miterlimit:2"
   id="svg20568"
   sodipodi:docname="emojis.svg"
   xmlns:inkscape="http://www.inkscape.org/namespaces/inkscape"
   xmlns:sodipodi="http://sodipodi.sourceforge.net/DTD/sodipodi-0.dtd"
   xmlns="http://www.w3.org/2000/svg"
   xmlns:svg="http://www.w3.org/2000/svg"><defs
     id="defs20572" /><sodipodi:namedview
     id="namedview20570"
     pagecolor="#505050"
     bordercolor="#eeeeee"
     borderopacity="1"
     inkscape:pageshadow="0"
     inkscape:pageopacity="0"
     inkscape:pagecheckerboard="0" /><g
     transform="matrix(0.24,0,0,0.24,-697.0038,-749.3994)"
     id="g20566"><g
       transform="matrix(62.5,0,0,62.5,2896.37,3179.56)"
       id="g14774"><path
         d="M 0.687,0.21 C 0.658,0.21 0.63,0.205 0.605,0.194 0.579,0.183 0.557,0.168 0.538,0.149 0.519,0.13 0.504,0.107 0.493,0.082 0.482,0.056 0.476,0.029 0.476,0 0.476,-0.01 0.477,-0.02 0.478,-0.028 0.479,-0.036 0.481,-0.044 0.484,-0.052 0.487,-0.059 0.49,-0.066 0.495,-0.073 0.499,-0.08 0.504,-0.088 0.51,-0.096 0.514,-0.101 0.517,-0.105 0.52,-0.108 0.523,-0.112 0.526,-0.115 0.529,-0.118 0.532,-0.121 0.535,-0.124 0.538,-0.127 0.541,-0.131 0.543,-0.135 0.546,-0.141 H 0.335 C 0.306,-0.141 0.279,-0.146 0.254,-0.157 0.228,-0.168 0.206,-0.183 0.187,-0.202 0.168,-0.221 0.153,-0.244 0.142,-0.269 0.131,-0.295 0.125,-0.322 0.125,-0.351 c 0,-0.052 0.007,-0.101 0.02,-0.149 0.013,-0.048 0.032,-0.093 0.057,-0.134 0.024,-0.042 0.053,-0.08 0.088,-0.114 0.034,-0.034 0.072,-0.064 0.113,-0.088 0.042,-0.024 0.087,-0.043 0.134,-0.057 0.048,-0.013 0.098,-0.02 0.15,-0.02 0.051,0 0.101,0.007 0.148,0.02 0.048,0.014 0.093,0.033 0.135,0.057 0.041,0.024 0.079,0.054 0.113,0.088 0.035,0.034 0.064,0.072 0.088,0.114 0.025,0.041 0.044,0.086 0.057,0.134 0.013,0.048 0.02,0.097 0.02,0.149 0,0.052 -0.007,0.101 -0.02,0.149 C 1.215,-0.154 1.196,-0.11 1.171,-0.068 1.147,-0.026 1.118,0.012 1.083,0.046 1.049,0.08 1.011,0.109 0.97,0.134 0.928,0.158 0.883,0.177 0.835,0.19 0.788,0.204 0.738,0.21 0.687,0.21 Z"
         style="fill-rule:nonzero"
         id="path14760" /><path
         d="M 0.687,0.14 C 0.667,0.14 0.649,0.136 0.632,0.129 0.615,0.122 0.6,0.112 0.587,0.099 0.574,0.086 0.564,0.072 0.557,0.055 0.55,0.038 0.546,0.02 0.546,0 c 0,-0.011 0.002,-0.021 0.005,-0.029 0.003,-0.008 0.008,-0.016 0.013,-0.023 0.005,-0.006 0.011,-0.012 0.017,-0.018 0.006,-0.006 0.012,-0.012 0.017,-0.019 0.005,-0.006 0.01,-0.014 0.013,-0.022 0.004,-0.008 0.005,-0.018 0.005,-0.03 C 0.616,-0.15 0.614,-0.16 0.611,-0.168 0.607,-0.176 0.602,-0.184 0.595,-0.19 0.589,-0.197 0.582,-0.201 0.573,-0.205 0.565,-0.209 0.556,-0.21 0.546,-0.21 H 0.335 C 0.316,-0.21 0.298,-0.214 0.281,-0.221 0.264,-0.229 0.249,-0.239 0.236,-0.251 0.224,-0.264 0.214,-0.279 0.206,-0.296 0.199,-0.313 0.195,-0.332 0.195,-0.351 c 0,-0.045 0.006,-0.089 0.018,-0.131 0.012,-0.042 0.028,-0.081 0.049,-0.117 0.022,-0.037 0.047,-0.07 0.077,-0.099 0.03,-0.03 0.063,-0.056 0.099,-0.077 0.037,-0.021 0.076,-0.038 0.118,-0.05 0.042,-0.011 0.085,-0.017 0.131,-0.017 0.045,0 0.088,0.006 0.13,0.017 0.042,0.012 0.081,0.029 0.118,0.05 0.036,0.021 0.069,0.047 0.099,0.077 0.03,0.029 0.055,0.062 0.077,0.099 0.021,0.036 0.037,0.075 0.049,0.117 0.012,0.042 0.018,0.086 0.018,0.131 0,0.045 -0.006,0.089 -0.018,0.131 -0.012,0.041 -0.028,0.081 -0.049,0.117 -0.022,0.036 -0.047,0.07 -0.077,0.099 C 1.004,0.026 0.971,0.052 0.935,0.073 0.898,0.094 0.859,0.111 0.817,0.123 0.775,0.134 0.732,0.14 0.687,0.14 Z"
         style="fill:#ffb900;fill-rule:nonzero"
         id="path14762" /><path
         d="m 0.511,-0.509 c 0,0.012 -0.002,0.024 -0.007,0.034 C 0.5,-0.464 0.494,-0.455 0.486,-0.447 0.478,-0.439 0.468,-0.433 0.458,-0.428 0.447,-0.424 0.435,-0.421 0.423,-0.421 0.411,-0.421 0.4,-0.424 0.389,-0.428 0.378,-0.433 0.369,-0.439 0.361,-0.447 0.353,-0.455 0.347,-0.464 0.342,-0.475 0.338,-0.485 0.335,-0.497 0.335,-0.509 c 0,-0.012 0.003,-0.023 0.007,-0.034 0.005,-0.011 0.011,-0.02 0.019,-0.028 0.008,-0.008 0.017,-0.014 0.028,-0.019 0.01,-0.004 0.022,-0.007 0.034,-0.007 0.012,0 0.024,0.003 0.035,0.007 0.01,0.005 0.02,0.011 0.028,0.019 0.008,0.008 0.014,0.017 0.018,0.028 0.005,0.011 0.007,0.022 0.007,0.034 z"
         style="fill:#16c60c;fill-rule:nonzero"
         id="path14764" /><path
         d="m 0.792,-0.649 c 0,0.012 -0.002,0.023 -0.007,0.034 -0.004,0.011 -0.011,0.02 -0.019,0.028 -0.008,0.008 -0.017,0.014 -0.028,0.019 -0.01,0.004 -0.022,0.006 -0.034,0.006 C 0.692,-0.562 0.68,-0.564 0.67,-0.568 0.659,-0.573 0.65,-0.579 0.642,-0.587 0.634,-0.595 0.628,-0.604 0.623,-0.615 0.618,-0.626 0.616,-0.637 0.616,-0.649 c 0,-0.012 0.002,-0.024 0.007,-0.035 0.005,-0.01 0.011,-0.02 0.019,-0.028 0.008,-0.008 0.017,-0.014 0.028,-0.018 0.01,-0.005 0.022,-0.007 0.034,-0.007 0.012,0 0.024,0.002 0.034,0.007 0.011,0.004 0.02,0.01 0.028,0.018 0.008,0.008 0.015,0.018 0.019,0.028 0.005,0.011 0.007,0.023 0.007,0.035 z"
         style="fill:#f03a17;fill-rule:nonzero"
         id="path14766" /><path
         d="M 0.95,-0.386 C 0.937,-0.386 0.926,-0.389 0.915,-0.393 0.905,-0.398 0.895,-0.404 0.887,-0.412 0.879,-0.42 0.873,-0.429 0.869,-0.44 0.864,-0.45 0.862,-0.462 0.862,-0.474 c 0,-0.012 0.002,-0.023 0.007,-0.034 0.004,-0.011 0.01,-0.02 0.018,-0.028 0.008,-0.008 0.018,-0.014 0.029,-0.019 0.01,-0.004 0.022,-0.007 0.034,-0.007 0.012,0 0.023,0.003 0.034,0.007 0.011,0.005 0.02,0.011 0.028,0.019 0.008,0.008 0.014,0.017 0.019,0.028 0.004,0.011 0.007,0.022 0.007,0.034 0,0.012 -0.003,0.024 -0.007,0.034 -0.005,0.011 -0.011,0.02 -0.019,0.028 -0.008,0.008 -0.017,0.014 -0.028,0.019 -0.011,0.004 -0.022,0.007 -0.034,0.007 z"
         style="fill:#fce100;fill-rule:nonzero"
         id="path14768" /><path
         d="m 0.827,-0.193 c 0,-0.012 0.002,-0.023 0.007,-0.034 0.005,-0.011 0.011,-0.02 0.019,-0.028 0.008,-0.008 0.017,-0.014 0.028,-0.019 0.01,-0.004 0.022,-0.007 0.034,-0.007 0.012,0 0.023,0.003 0.034,0.007 0.01,0.005 0.02,0.011 0.028,0.019 0.008,0.008 0.014,0.017 0.019,0.028 0.004,0.011 0.006,0.022 0.006,0.034 0,0.012 -0.002,0.023 -0.006,0.034 -0.005,0.011 -0.011,0.02 -0.019,0.028 -0.008,0.008 -0.018,0.014 -0.028,0.019 -0.011,0.004 -0.022,0.007 -0.034,0.007 -0.012,0 -0.024,-0.003 -0.034,-0.007 C 0.87,-0.117 0.861,-0.123 0.853,-0.131 0.845,-0.139 0.839,-0.148 0.834,-0.159 0.829,-0.17 0.827,-0.181 0.827,-0.193 Z"
         style="fill:#0046ff;fill-rule:nonzero"
         id="path14770" /><path
         d="M 0.827,-0.012 C 0.827,0.001 0.822,0.012 0.813,0.021 0.804,0.031 0.793,0.035 0.78,0.035 0.767,0.035 0.755,0.033 0.744,0.028 0.732,0.023 0.722,0.016 0.714,0.008 0.705,-0.001 0.699,-0.011 0.694,-0.022 0.689,-0.033 0.687,-0.046 0.687,-0.059 c 0,-0.013 0.004,-0.024 0.013,-0.033 0.009,-0.009 0.02,-0.013 0.033,-0.013 0.013,0 0.026,0.002 0.037,0.007 0.011,0.005 0.021,0.011 0.029,0.02 0.009,0.008 0.015,0.018 0.02,0.03 0.005,0.011 0.008,0.023 0.008,0.036 z"
         style="fill:#ffffff;fill-rule:nonzero"
         id="path14772" /></g></g></svg>
