<?xml version="1.0" encoding="UTF-8" standalone="no"?>
<svg
   width="16.845001"
   height="14.73"
   viewBox="0 0 16.845001 14.73"
   version="1.1"
   xml:space="preserve"
   style="clip-rule:evenodd;fill-rule:evenodd;stroke-linejoin:round;stroke-miterlimit:2"
   id="svg20568"
   sodipodi:docname="emojis.svg"
   xmlns:inkscape="http://www.inkscape.org/namespaces/inkscape"
   xmlns:sodipodi="http://sodipodi.sourceforge.net/DTD/sodipodi-0.dtd"
   xmlns="http://www.w3.org/2000/svg"
   xmlns:svg="http://www.w3.org/2000/svg"><defs
     id="defs20572" /><sodipodi:namedview
     id="namedview20570"
     pagecolor="#505050"
     bordercolor="#eeeeee"
     borderopacity="1"
     inkscape:pageshadow="0"
     inkscape:pageopacity="0"
     inkscape:pagecheckerboard="0" /><g
     transform="matrix(0.24,0,0,0.24,-676.407,-750.4644)"
     id="g20566"><g
       transform="matrix(62.5,0,0,62.5,2810.55,3179.56)"
       id="g14758"><rect
         x="0.125"
         y="-0.84200001"
         width="1.123"
         height="0.98199999"
         style="fill-rule:nonzero"
         id="rect14728" /><rect
         x="0.25400001"
         y="-0.71700001"
         width="0.86500001"
         height="0.73199999"
         style="fill:#b3dbf2;fill-rule:nonzero"
         id="rect14730" /><path
         d="m 0.564,-0.491 c 0.005,0 0.01,0.002 0.012,0.007 l 0.111,0.22 H 0.511 V 0.013 H 0.249 V -0.264 H 0.227 V -0.327 L 0.27,-0.414 c 0.003,-0.004 0.007,-0.007 0.014,-0.007 0.005,0 0.008,0.002 0.01,0.006 0.002,0.003 0.004,0.007 0.006,0.011 l 0.075,-0.15 c 0.003,-0.005 0.007,-0.008 0.013,-0.008 0.006,0 0.009,0.002 0.011,0.006 0.002,0.003 0.004,0.007 0.007,0.012 l 0.04,-0.081 c 0.002,-0.004 0.006,-0.007 0.013,-0.007 0.006,0 0.01,0.003 0.012,0.007 l 0.075,0.151 0.001,-0.003 C 0.549,-0.48 0.55,-0.484 0.553,-0.487 0.555,-0.49 0.559,-0.491 0.564,-0.491 Z"
         style="fill:#83beec;fill-rule:nonzero"
         id="path14732" /><path
         d="M 1.107,-0.281 H 1.126 V 0.02 H 0.546 V 0 l 0.362,-0.361 c 0.016,-0.017 0.036,-0.025 0.059,-0.025 0.023,0 0.043,0.008 0.06,0.025 z"
         style="fill:#13a10e;fill-rule:nonzero"
         id="path14734" /><path
         d="m 0.3,0 c 0.023,-0.022 0.049,-0.042 0.076,-0.06 0.027,-0.018 0.056,-0.032 0.086,-0.044 0.03,-0.012 0.061,-0.021 0.093,-0.027 0.032,-0.007 0.064,-0.01 0.096,-0.01 0.033,0 0.065,0.003 0.097,0.01 0.031,0.006 0.062,0.015 0.093,0.027 0.03,0.012 0.058,0.026 0.086,0.044 0.027,0.018 0.052,0.038 0.075,0.06 L 0.766,0.008 c -0.02,0 -0.04,10e-4 -0.06,0.002 C 0.687,0.011 0.667,0.012 0.647,0.012 0.627,0.012 0.608,0.011 0.589,0.01 0.57,0.009 0.551,0.008 0.531,0.008 Z"
         style="fill:#16c60c;fill-rule:nonzero"
         id="path14736" /><path
         d="m 1.073,-0.597 c 0,0.01 -0.002,0.019 -0.006,0.028 -0.004,0.008 -0.009,0.016 -0.015,0.022 -0.006,0.006 -0.014,0.011 -0.022,0.015 -0.009,0.004 -0.018,0.006 -0.028,0.006 -0.009,0 -0.018,-0.002 -0.027,-0.006 C 0.967,-0.536 0.959,-0.541 0.953,-0.547 0.947,-0.553 0.941,-0.561 0.938,-0.569 0.934,-0.578 0.932,-0.587 0.932,-0.597 c 0,-0.009 0.002,-0.019 0.006,-0.027 0.003,-0.008 0.009,-0.016 0.015,-0.022 0.006,-0.007 0.014,-0.012 0.022,-0.015 0.009,-0.004 0.018,-0.006 0.027,-0.006 0.01,0 0.019,0.002 0.028,0.006 0.008,0.003 0.016,0.008 0.022,0.015 0.006,0.006 0.011,0.014 0.015,0.022 0.004,0.008 0.006,0.018 0.006,0.027 z"
         style="fill:#ffc83d;fill-rule:nonzero"
         id="path14738" /><path
         d="m 0.967,-0.562 c 0.01,0 0.018,0.004 0.025,0.011 0.007,0.007 0.01,0.015 0.01,0.025 h -0.14 c -0.01,0 -0.018,-0.004 -0.025,-0.011 -0.007,-0.007 -0.01,-0.015 -0.01,-0.025 0,-0.009 0.003,-0.017 0.01,-0.024 0.007,-0.007 0.015,-0.011 0.025,-0.011 0,-0.009 0.003,-0.017 0.01,-0.024 0.007,-0.007 0.016,-0.011 0.025,-0.011 0.01,0 0.018,0.004 0.025,0.01 0.007,0.007 0.01,0.016 0.01,0.025 0.01,0 0.018,0.004 0.025,0.011 0.007,0.006 0.01,0.015 0.01,0.024 z"
         style="fill:#ffffff;fill-rule:nonzero"
         id="path14740" /><path
         d="m 0.862,-0.246 0.052,-0.009 0.053,0.009 V -0.21 C 0.897,-0.14 0.827,-0.07 0.757,0 L 0.624,0.006 C 0.612,0.007 0.601,0.008 0.59,0.009 0.579,0.009 0.568,0.01 0.557,0.01 0.544,0.01 0.532,0.009 0.52,0.009 0.508,0.008 0.495,0.007 0.483,0.006 L 0.335,0 c 0,-0.013 0.003,-0.025 0.007,-0.037 0.004,-0.011 0.011,-0.022 0.019,-0.031 0.008,-0.009 0.017,-0.017 0.028,-0.023 0.01,-0.006 0.022,-0.011 0.035,-0.013 L 0.34,-0.216 c 0,-0.001 0,-0.001 0,-0.001 0,-0.001 -0.001,-0.001 -0.001,-0.001 -0.001,-0.002 -0.002,-0.003 -0.003,-0.004 0,-0.002 -0.001,-0.003 -0.001,-0.006 0,-0.008 0.003,-0.013 0.008,-0.015 0.005,-0.002 0.011,-0.003 0.017,-0.003 H 0.371 L 0.37,-0.292 c 0,-0.011 0.001,-0.021 0.002,-0.03 0.002,-0.009 0.005,-0.019 0.008,-0.029 L 0.375,-0.37 C 0.374,-0.374 0.373,-0.378 0.372,-0.381 0.371,-0.384 0.371,-0.386 0.371,-0.386 v -0.088 c 0,-0.005 0.001,-0.009 0.005,-0.012 0.004,-0.004 0.008,-0.005 0.012,-0.005 0.002,0 0.006,0.001 0.012,0.004 0.006,0.003 0.013,0.007 0.021,0.012 0.008,0.004 0.017,0.01 0.026,0.015 0.009,0.006 0.018,0.011 0.026,0.016 0.009,0.005 0.016,0.01 0.023,0.014 0.007,0.004 0.012,0.007 0.015,0.009 0.009,0.004 0.018,0.008 0.027,0.012 0.009,0.004 0.018,0.008 0.027,0.013 C 0.573,-0.401 0.582,-0.405 0.591,-0.409 0.599,-0.413 0.608,-0.417 0.616,-0.421 0.619,-0.423 0.624,-0.426 0.631,-0.43 0.638,-0.434 0.645,-0.439 0.654,-0.444 0.662,-0.45 0.671,-0.455 0.68,-0.46 0.689,-0.466 0.698,-0.471 0.706,-0.476 0.714,-0.48 0.721,-0.484 0.727,-0.487 c 0.006,-0.003 0.01,-0.004 0.012,-0.004 0.005,0 0.009,0.001 0.012,0.005 0.004,0.003 0.006,0.007 0.006,0.012 v 0.088 c 0,0 -0.001,0.002 -0.002,0.005 -0.001,0.003 -0.002,0.007 -0.003,0.011 l -0.005,0.019 c 0.005,0.014 0.007,0.025 0.009,0.035 0.001,0.01 0.001,0.02 0.001,0.03 v 0.04 h 0.01 c 0.006,0 0.012,0.001 0.017,0.003 0.005,0.002 0.008,0.007 0.008,0.015 0,0.003 -0.001,0.006 -0.004,0.011 -0.003,0.005 -0.007,0.01 -0.011,0.016 -0.004,0.005 -0.007,0.01 -0.011,0.015 -0.004,0.004 -0.007,0.008 -0.009,0.01 h 0.035 z"
         style="fill:#757575;fill-rule:nonzero"
         id="path14742" /><path
         d="m 0.897,-0.491 c 0.01,0 0.019,0.002 0.027,0.005 0.009,0.004 0.016,0.009 0.023,0.015 0.006,0.006 0.011,0.014 0.015,0.022 0.003,0.009 0.005,0.018 0.005,0.028 v 0.175 H 0.862 V -0.361 C 0.851,-0.367 0.843,-0.376 0.836,-0.387 0.83,-0.397 0.827,-0.409 0.827,-0.421 c 0,-0.01 0.002,-0.019 0.005,-0.028 0.004,-0.008 0.009,-0.016 0.015,-0.022 0.007,-0.006 0.014,-0.011 0.023,-0.015 0.008,-0.003 0.017,-0.005 0.027,-0.005 z M 0.511,-0.21 v -0.211 h 0.105 v 0.211 l -0.051,0.009 z"
         style="fill:#cccccc;fill-rule:nonzero"
         id="path14744" /><path
         d="m 0.616,-0.21 c 0.01,0 0.019,0.001 0.028,0.005 0.008,0.004 0.015,0.008 0.022,0.015 0.006,0.006 0.011,0.014 0.015,0.022 0.004,0.008 0.006,0.018 0.006,0.027 0,0.01 -0.002,0.019 -0.006,0.028 -0.004,0.009 -0.009,0.016 -0.015,0.022 -0.007,0.007 -0.014,0.012 -0.022,0.015 -0.009,0.004 -0.018,0.006 -0.028,0.006 -0.01,0 -0.02,-0.003 -0.029,-0.007 C 0.578,-0.081 0.57,-0.087 0.563,-0.095 0.557,-0.087 0.549,-0.081 0.54,-0.077 0.531,-0.073 0.521,-0.07 0.511,-0.07 0.501,-0.07 0.492,-0.072 0.484,-0.076 0.475,-0.079 0.468,-0.084 0.461,-0.091 0.455,-0.097 0.45,-0.104 0.446,-0.113 0.443,-0.122 0.441,-0.131 0.441,-0.141 0.441,-0.15 0.443,-0.16 0.447,-0.168 0.45,-0.176 0.455,-0.184 0.462,-0.19 0.468,-0.197 0.475,-0.201 0.484,-0.205 0.492,-0.209 0.501,-0.21 0.511,-0.21 c 0.002,0 0.005,0 0.01,0.002 0.004,0.001 0.01,0.002 0.016,0.004 l 0.029,0.008 c 0.002,0 0.005,-0.001 0.01,-0.003 C 0.581,-0.2 0.587,-0.202 0.593,-0.204 0.599,-0.206 0.604,-0.207 0.609,-0.208 0.613,-0.21 0.616,-0.21 0.616,-0.21 Z"
         style="fill:#ffffff;fill-rule:nonzero"
         id="path14746" /><path
         d="M 0.511,-0.21 H 0.616 L 0.563,-0.141 Z"
         style="fill:#f7894a;fill-rule:nonzero"
         id="path14748" /><path
         d="m 0.458,-0.316 c 0.005,0 0.01,0.002 0.013,0.005 0.003,0.004 0.005,0.008 0.005,0.013 v 0.035 c 0,0.005 -0.002,0.009 -0.005,0.012 -0.003,0.004 -0.008,0.005 -0.013,0.005 -0.004,0 -0.009,-0.001 -0.012,-0.005 C 0.443,-0.254 0.441,-0.258 0.441,-0.263 v -0.035 c 0,-0.005 0.002,-0.009 0.005,-0.013 0.003,-0.003 0.008,-0.005 0.012,-0.005 z m 0.211,0 c 0.005,0 0.009,0.002 0.012,0.005 0.004,0.004 0.006,0.008 0.006,0.013 v 0.035 c 0,0.005 -0.002,0.009 -0.006,0.012 -0.003,0.004 -0.007,0.005 -0.012,0.005 -0.005,0 -0.009,-0.001 -0.013,-0.005 C 0.653,-0.254 0.651,-0.258 0.651,-0.263 v -0.035 c 0,-0.005 0.002,-0.009 0.005,-0.013 0.004,-0.003 0.008,-0.005 0.013,-0.005 z"
         style="fill-rule:nonzero"
         id="path14750" /><rect
         x="0.37099999"
         y="-0.38600001"
         width="0.38600001"
         height="0.07"
         style="fill:#f03a17;fill-rule:nonzero"
         id="rect14752" /><path
         d="M 0.195,-0.772 H 1.178 V 0.07 H 0.195 Z M 0.246,0.017 H 1.127 V -0.718 H 0.246 Z"
         style="fill:#ffb900;fill-rule:nonzero"
         id="path14754" /><path
         d="M 1.143,-0.737 V 0.035 H 0.23 V -0.737 Z M 0.265,0 H 1.107 V -0.702 H 0.265 Z"
         style="fill:#eba300;fill-rule:nonzero"
         id="path14756" /></g></g></svg>
