<?xml version="1.0" encoding="UTF-8" standalone="no"?>
<svg
   width="16.844999"
   height="16.844999"
   viewBox="0 0 16.844999 16.844999"
   version="1.1"
   xml:space="preserve"
   style="clip-rule:evenodd;fill-rule:evenodd;stroke-linejoin:round;stroke-miterlimit:2"
   id="svg20568"
   sodipodi:docname="emojis.svg"
   xmlns:inkscape="http://www.inkscape.org/namespaces/inkscape"
   xmlns:sodipodi="http://sodipodi.sourceforge.net/DTD/sodipodi-0.dtd"
   xmlns="http://www.w3.org/2000/svg"
   xmlns:svg="http://www.w3.org/2000/svg"><defs
     id="defs20572" /><sodipodi:namedview
     id="namedview20570"
     pagecolor="#505050"
     bordercolor="#eeeeee"
     borderopacity="1"
     inkscape:pageshadow="0"
     inkscape:pageopacity="0"
     inkscape:pagecheckerboard="0" /><g
     transform="matrix(0.24,0,0,0.24,-93.20148,-766.3674)"
     id="g20566"><g
       transform="matrix(62.5,0,0,62.5,380.527,3250.26)"
       id="g14888"><path
         d="m 0.992,-0.913 0.256,0.187 -0.102,0.305 H 1.038 V 0.21 H 0.335 V -0.421 H 0.227 L 0.125,-0.726 0.381,-0.913 h 0.27 v 0.071 c 0,0.009 0.004,0.017 0.011,0.024 0.007,0.007 0.015,0.011 0.025,0.011 0.009,0 0.017,-0.004 0.024,-0.011 0.007,-0.007 0.011,-0.015 0.011,-0.024 v -0.071 z"
         style="fill-rule:nonzero"
         id="path14880" /><path
         d="m 0.996,-0.796 c 0.006,0.002 0.014,0.003 0.021,0.004 0.007,0.001 0.014,0.003 0.021,0.006 0.007,0.003 0.014,0.008 0.021,0.013 0.007,0.005 0.014,0.01 0.022,0.015 l 0.086,0.056 -0.071,0.211 H 1.038 C 1.035,-0.491 1.029,-0.493 1.021,-0.495 1.012,-0.498 1.003,-0.501 0.992,-0.504 0.982,-0.508 0.972,-0.511 0.962,-0.514 0.953,-0.517 0.946,-0.52 0.941,-0.521 c 0.001,0.002 0.002,0.006 0.004,0.011 0.001,0.005 0.003,0.012 0.005,0.019 0.002,0.007 0.004,0.014 0.006,0.022 l 0.01,0.039 c 0.001,0.005 0.002,0.008 0.002,0.009 V -0.21 L 0.918,-0.104 0.968,0 V 0.14 H 0.406 V 0 c 0,0 10e-4,-0.003 0.003,-0.008 C 0.41,-0.013 0.412,-0.019 0.415,-0.026 0.417,-0.034 0.419,-0.041 0.422,-0.05 L 0.441,-0.107 C 0.441,-0.109 0.439,-0.112 0.438,-0.118 0.436,-0.123 0.433,-0.13 0.431,-0.137 L 0.415,-0.185 C 0.412,-0.192 0.41,-0.198 0.409,-0.203 0.407,-0.208 0.406,-0.21 0.406,-0.21 v -0.211 c 0,-0.001 10e-4,-0.003 0.002,-0.008 0.002,-0.005 0.004,-0.01 0.006,-0.017 0.002,-0.007 0.004,-0.014 0.007,-0.022 0.003,-0.008 0.005,-0.016 0.007,-0.023 0.003,-0.007 0.005,-0.013 0.007,-0.018 0.002,-0.005 0.003,-0.009 0.003,-0.011 -0.004,0.001 -0.011,0.003 -0.022,0.007 -0.01,0.003 -0.021,0.006 -0.032,0.009 -0.011,0.003 -0.021,0.006 -0.03,0.009 -0.01,0.002 -0.015,0.004 -0.018,0.004 H 0.278 L 0.208,-0.702 C 0.229,-0.716 0.25,-0.731 0.271,-0.745 0.292,-0.76 0.313,-0.774 0.336,-0.786 0.342,-0.79 0.348,-0.793 0.354,-0.795 0.36,-0.797 0.367,-0.799 0.373,-0.802 l 0.033,-0.04 h 0.105 c 0.005,0.006 0.012,0.014 0.02,0.024 0.008,0.009 0.018,0.02 0.028,0.03 0.01,0.011 0.021,0.021 0.033,0.032 0.011,0.01 0.023,0.02 0.034,0.028 0.011,0.009 0.022,0.016 0.033,0.021 0.011,0.006 0.02,0.008 0.028,0.008 0.008,0 0.018,-0.002 0.028,-0.008 0.011,-0.005 0.022,-0.012 0.033,-0.021 0.011,-0.008 0.022,-0.018 0.033,-0.028 0.012,-0.011 0.022,-0.021 0.033,-0.032 0.01,-0.011 0.019,-0.021 0.028,-0.031 0.008,-0.009 0.015,-0.017 0.02,-0.023 h 0.106 z"
         style="fill:#f03a17;fill-rule:nonzero"
         id="path14882" /><rect
         x="0.40599999"
         y="-0.20999999"
         width="0.56199998"
         height="0.20999999"
         style="fill:#f2f2f2;fill-rule:nonzero"
         id="rect14884" /><path
         d="m 0.968,-0.842 0.07,0.056 v 0.295 h -0.07 v 0.07 H 0.406 v -0.07 h -0.07 v -0.295 l 0.07,-0.056 v 0.21 H 0.968 Z M 0.687,-0.667 C 0.663,-0.667 0.64,-0.672 0.619,-0.681 0.598,-0.69 0.579,-0.702 0.563,-0.718 0.547,-0.734 0.534,-0.753 0.525,-0.774 0.516,-0.795 0.511,-0.818 0.511,-0.842 h 0.071 c 0,0.014 0.002,0.028 0.008,0.041 0.005,0.012 0.013,0.023 0.023,0.033 0.009,0.009 0.02,0.017 0.033,0.022 0.013,0.006 0.026,0.009 0.041,0.009 0.015,0 0.028,-0.003 0.041,-0.009 0.013,-0.005 0.024,-0.013 0.033,-0.022 0.01,-0.01 0.017,-0.021 0.023,-0.033 0.005,-0.013 0.008,-0.027 0.008,-0.041 h 0.07 c 0,0.024 -0.004,0.047 -0.014,0.068 -0.009,0.021 -0.021,0.04 -0.037,0.055 -0.016,0.016 -0.035,0.029 -0.056,0.038 -0.021,0.009 -0.044,0.014 -0.068,0.014 z"
         style="fill:#ffffff;fill-rule:nonzero"
         id="path14886" /></g></g></svg>
