<?xml version="1.0" encoding="UTF-8" standalone="no"?>
<svg
   width="16.844999"
   height="12.12"
   viewBox="0 0 16.844999 12.12"
   version="1.1"
   xml:space="preserve"
   style="clip-rule:evenodd;fill-rule:evenodd;stroke-linejoin:round;stroke-miterlimit:2"
   id="svg20568"
   sodipodi:docname="emojis.svg"
   xmlns:inkscape="http://www.inkscape.org/namespaces/inkscape"
   xmlns:sodipodi="http://sodipodi.sourceforge.net/DTD/sodipodi-0.dtd"
   xmlns="http://www.w3.org/2000/svg"
   xmlns:svg="http://www.w3.org/2000/svg"><defs
     id="defs20572" /><sodipodi:namedview
     id="namedview20570"
     pagecolor="#505050"
     bordercolor="#eeeeee"
     borderopacity="1"
     inkscape:pageshadow="0"
     inkscape:pageopacity="0"
     inkscape:pagecheckerboard="0" /><g
     transform="matrix(0.24,0,0,0.24,-758.7894,-751.4994)"
     id="g20566"><g
       transform="matrix(62.5,0,0,62.5,3153.81,3179.56)"
       id="g14814"><path
         d="m 1.166,-0.454 c 0.012,0.003 0.023,0.007 0.033,0.014 0.01,0.006 0.019,0.014 0.026,0.023 0.007,0.009 0.013,0.019 0.017,0.031 0.004,0.011 0.006,0.023 0.006,0.035 0,0.023 -0.006,0.043 -0.019,0.061 -0.013,0.017 -0.03,0.03 -0.051,0.038 v 0.044 c 0,0.034 -0.007,0.066 -0.02,0.095 -0.013,0.03 -0.03,0.056 -0.053,0.078 C 1.083,-0.013 1.057,0.004 1.027,0.016 0.997,0.029 0.966,0.035 0.932,0.035 0.907,0.035 0.883,0.031 0.859,0.024 0.836,0.017 0.814,0.006 0.794,-0.007 0.774,-0.021 0.756,-0.037 0.74,-0.056 0.725,-0.075 0.712,-0.097 0.703,-0.12 L 0.687,-0.132 0.67,-0.12 C 0.661,-0.097 0.648,-0.075 0.633,-0.056 0.617,-0.037 0.599,-0.021 0.579,-0.007 0.559,0.006 0.538,0.017 0.514,0.024 0.49,0.031 0.466,0.035 0.441,0.035 0.407,0.035 0.376,0.029 0.346,0.016 0.316,0.004 0.29,-0.013 0.268,-0.035 0.246,-0.057 0.228,-0.083 0.215,-0.113 0.202,-0.142 0.195,-0.174 0.195,-0.208 V -0.252 C 0.174,-0.26 0.157,-0.273 0.144,-0.29 0.131,-0.308 0.125,-0.328 0.125,-0.351 c 0,-0.012 0.002,-0.024 0.006,-0.035 0.004,-0.012 0.01,-0.022 0.017,-0.031 0.008,-0.009 0.016,-0.017 0.026,-0.023 0.01,-0.007 0.021,-0.011 0.034,-0.014 l 0.18,-0.271 c 0.007,-0.01 0.015,-0.018 0.023,-0.025 0.008,-0.006 0.016,-0.01 0.026,-0.014 0.009,-0.003 0.019,-0.006 0.029,-0.007 0.01,-0.001 0.021,-0.001 0.033,-0.001 h 0.047 c 0.015,0 0.028,0.003 0.041,0.008 0.013,0.006 0.024,0.013 0.033,0.023 0.01,0.009 0.018,0.02 0.023,0.033 0.006,0.013 0.008,0.026 0.008,0.041 0,0.015 -0.002,0.028 -0.008,0.041 C 0.638,-0.613 0.63,-0.602 0.62,-0.593 0.611,-0.583 0.6,-0.575 0.587,-0.57 0.574,-0.564 0.561,-0.562 0.546,-0.562 H 0.532 l -0.07,0.105 h 0.119 c 0.015,0 0.029,0.004 0.043,0.01 0.014,0.006 0.026,0.015 0.036,0.026 h 0.053 c 0.01,-0.012 0.022,-0.02 0.036,-0.027 0.014,-0.006 0.028,-0.009 0.043,-0.009 H 0.911 L 0.841,-0.562 H 0.827 C 0.812,-0.562 0.799,-0.564 0.786,-0.57 0.773,-0.575 0.762,-0.583 0.752,-0.593 0.743,-0.602 0.736,-0.613 0.73,-0.626 0.724,-0.639 0.722,-0.653 0.722,-0.667 c 0,-0.014 0.002,-0.028 0.008,-0.041 0.006,-0.012 0.013,-0.023 0.023,-0.033 0.009,-0.01 0.02,-0.017 0.033,-0.023 0.013,-0.005 0.026,-0.008 0.041,-0.008 l 0.048,-0.001 c 0.011,0 0.022,0.001 0.032,0.002 0.011,0.001 0.02,0.003 0.03,0.007 0.009,0.003 0.018,0.008 0.026,0.014 0.008,0.007 0.015,0.015 0.022,0.025 z"
         style="fill-rule:nonzero"
         id="path14802" /><path
         d="m 0.546,-0.702 c 0.01,0 0.018,0.003 0.025,0.01 0.007,0.007 0.01,0.015 0.01,0.025 0,0.01 -0.003,0.018 -0.01,0.025 -0.007,0.007 -0.015,0.01 -0.025,0.01 H 0.495 l -0.201,0.3 -0.058,-0.039 0.211,-0.316 C 0.45,-0.691 0.455,-0.695 0.46,-0.698 0.465,-0.701 0.47,-0.702 0.476,-0.702 Z m 0.591,0.331 -0.058,0.039 -0.201,-0.3 H 0.827 c -0.01,0 -0.018,-0.003 -0.025,-0.01 -0.007,-0.007 -0.01,-0.016 -0.01,-0.025 0,-0.009 0.003,-0.018 0.01,-0.025 0.007,-0.007 0.015,-0.01 0.025,-0.01 h 0.07 c 0.006,0 0.011,0.001 0.016,0.004 0.005,0.004 0.01,0.007 0.013,0.012 z m -0.38,0.038 c 0.009,0 0.017,0.003 0.024,0.01 0.007,0.007 0.011,0.015 0.011,0.025 v 0.088 c 0,0.009 -0.004,0.017 -0.011,0.024 -0.007,0.007 -0.015,0.01 -0.024,0.01 -0.01,0 -0.018,-0.003 -0.025,-0.01 C 0.725,-0.193 0.722,-0.201 0.722,-0.21 V -0.228 C 0.722,-0.234 0.721,-0.24 0.721,-0.247 0.72,-0.253 0.719,-0.259 0.716,-0.264 0.714,-0.269 0.71,-0.273 0.705,-0.276 0.701,-0.279 0.694,-0.281 0.687,-0.281 c -0.009,0 -0.015,0.002 -0.02,0.005 -0.004,0.003 -0.008,0.006 -0.01,0.011 -0.002,0.005 -0.004,0.011 -0.005,0.017 0,0.006 -0.001,0.012 -0.001,0.019 v 0.019 c 0,0.009 -0.003,0.017 -0.01,0.024 -0.007,0.007 -0.015,0.01 -0.025,0.01 -0.009,0 -0.017,-0.003 -0.024,-0.01 C 0.585,-0.193 0.581,-0.201 0.581,-0.21 v -0.088 c 0,-0.01 0.004,-0.018 0.011,-0.025 0.007,-0.007 0.015,-0.01 0.024,-0.01 z"
         style="fill:#383838;fill-rule:nonzero"
         id="path14804" /><path
         d="M 0.441,-0.052 C 0.419,-0.052 0.399,-0.056 0.379,-0.065 0.36,-0.073 0.343,-0.084 0.329,-0.099 0.314,-0.113 0.303,-0.13 0.295,-0.149 0.286,-0.168 0.282,-0.189 0.282,-0.21 v -0.124 h 0.317 v 0.124 c 0,0.021 -0.004,0.042 -0.012,0.061 -0.009,0.019 -0.02,0.036 -0.034,0.05 -0.015,0.015 -0.031,0.026 -0.051,0.034 -0.019,0.009 -0.039,0.013 -0.061,0.013 z m 0.491,0 C 0.91,-0.052 0.89,-0.056 0.871,-0.065 0.851,-0.073 0.835,-0.084 0.82,-0.099 0.806,-0.113 0.795,-0.13 0.786,-0.149 0.778,-0.168 0.774,-0.189 0.774,-0.21 V -0.334 H 1.09 v 0.124 c 0,0.021 -0.004,0.042 -0.012,0.061 -0.008,0.019 -0.02,0.036 -0.034,0.05 -0.014,0.015 -0.031,0.026 -0.05,0.034 -0.02,0.009 -0.04,0.013 -0.062,0.013 z"
         style="fill:#00bcf2;fill-rule:nonzero"
         id="path14806" /><path
         d="m 0.441,-0.281 c -0.026,0 -0.052,0.005 -0.076,0.014 C 0.342,-0.258 0.32,-0.245 0.3,-0.227 L 0.283,-0.331 H 0.602 L 0.581,-0.227 C 0.562,-0.245 0.54,-0.258 0.516,-0.267 0.492,-0.276 0.467,-0.281 0.441,-0.281 Z m 0.491,0 c -0.026,0 -0.051,0.005 -0.075,0.014 -0.024,0.009 -0.045,0.022 -0.065,0.04 L 0.773,-0.333 h 0.32 l -0.02,0.106 C 1.053,-0.245 1.031,-0.258 1.008,-0.267 0.984,-0.276 0.958,-0.281 0.932,-0.281 Z"
         style="fill:#69eaff;fill-rule:nonzero"
         id="path14808" /><path
         d="m 0.616,-0.351 v 0.141 c 0,0.024 -0.004,0.046 -0.014,0.068 C 0.593,-0.121 0.58,-0.102 0.565,-0.087 0.549,-0.071 0.53,-0.058 0.509,-0.049 0.488,-0.04 0.465,-0.035 0.441,-0.035 0.417,-0.035 0.394,-0.04 0.373,-0.049 0.351,-0.058 0.333,-0.071 0.317,-0.087 0.301,-0.102 0.288,-0.121 0.279,-0.142 0.27,-0.164 0.265,-0.186 0.265,-0.21 v -0.141 z m 0.491,0 v 0.141 c 0,0.024 -0.004,0.046 -0.013,0.068 -0.01,0.021 -0.022,0.04 -0.038,0.055 C 1.04,-0.071 1.022,-0.058 1,-0.049 0.979,-0.04 0.956,-0.035 0.932,-0.035 0.908,-0.035 0.885,-0.04 0.864,-0.049 0.843,-0.058 0.824,-0.07 0.808,-0.086 0.792,-0.102 0.78,-0.121 0.771,-0.142 0.761,-0.164 0.757,-0.186 0.757,-0.21 V -0.351 Z M 1.073,-0.316 H 0.792 v 0.106 c 0,0.019 0.004,0.037 0.011,0.054 0.007,0.017 0.017,0.032 0.03,0.045 0.013,0.012 0.028,0.022 0.045,0.03 0.017,0.007 0.035,0.011 0.054,0.011 0.019,0 0.037,-0.004 0.054,-0.012 0.017,-0.007 0.032,-0.017 0.045,-0.03 0.013,-0.013 0.023,-0.027 0.031,-0.044 0.007,-0.017 0.011,-0.035 0.011,-0.054 z m -0.492,0 H 0.3 v 0.106 c 0,0.019 0.004,0.037 0.012,0.054 0.007,0.017 0.017,0.031 0.03,0.044 0.013,0.013 0.028,0.023 0.045,0.03 0.017,0.008 0.035,0.012 0.054,0.012 0.019,0 0.037,-0.004 0.054,-0.011 0.017,-0.008 0.032,-0.018 0.045,-0.03 0.013,-0.013 0.023,-0.028 0.03,-0.045 0.007,-0.017 0.011,-0.035 0.011,-0.054 z"
         style="fill:#0078d7;fill-rule:nonzero"
         id="path14810" /><path
         d="m 0.23,-0.316 c -0.009,0 -0.018,-0.003 -0.024,-0.01 -0.007,-0.007 -0.011,-0.015 -0.011,-0.025 0,-0.01 0.004,-0.018 0.011,-0.025 0.006,-0.007 0.015,-0.01 0.024,-0.01 h 0.351 c 0.01,0 0.018,0.003 0.025,0.01 0.007,0.007 0.01,0.015 0.01,0.025 h 0.141 c 0,-0.01 0.003,-0.018 0.01,-0.025 0.007,-0.007 0.015,-0.01 0.025,-0.01 h 0.351 c 0.009,0 0.018,0.003 0.024,0.01 0.007,0.007 0.011,0.015 0.011,0.025 0,0.01 -0.004,0.018 -0.011,0.025 -0.006,0.007 -0.015,0.01 -0.024,0.01 z"
         style="fill:#757575;fill-rule:nonzero"
         id="path14812" /></g></g></svg>
