<?xml version="1.0" encoding="UTF-8" standalone="no"?>
<svg
   width="16.844999"
   height="12.12"
   viewBox="0 0 16.844999 12.12"
   version="1.1"
   xml:space="preserve"
   style="clip-rule:evenodd;fill-rule:evenodd;stroke-linejoin:round;stroke-miterlimit:2"
   id="svg20568"
   sodipodi:docname="emojis.svg"
   xmlns:inkscape="http://www.inkscape.org/namespaces/inkscape"
   xmlns:sodipodi="http://sodipodi.sourceforge.net/DTD/sodipodi-0.dtd"
   xmlns="http://www.w3.org/2000/svg"
   xmlns:svg="http://www.w3.org/2000/svg"><defs
     id="defs20572" /><sodipodi:namedview
     id="namedview20570"
     pagecolor="#505050"
     bordercolor="#eeeeee"
     borderopacity="1"
     inkscape:pageshadow="0"
     inkscape:pageopacity="0"
     inkscape:pagecheckerboard="0" /><g
     transform="matrix(0.24,0,0,0.24,-779.3862,-751.4994)"
     id="g20566"><g
       transform="matrix(62.5,0,0,62.5,3239.63,3179.56)"
       id="g14826"><path
         d="m 1.166,-0.454 c 0.012,0.003 0.023,0.007 0.033,0.014 0.01,0.006 0.019,0.014 0.026,0.023 0.007,0.009 0.013,0.019 0.017,0.031 0.004,0.011 0.006,0.023 0.006,0.035 0,0.023 -0.006,0.043 -0.019,0.061 -0.013,0.017 -0.03,0.03 -0.051,0.038 v 0.044 c 0,0.034 -0.007,0.066 -0.02,0.095 -0.013,0.03 -0.03,0.056 -0.053,0.078 C 1.083,-0.013 1.057,0.004 1.027,0.016 0.997,0.029 0.966,0.035 0.932,0.035 0.907,0.035 0.883,0.031 0.859,0.024 0.836,0.017 0.814,0.006 0.794,-0.007 0.774,-0.021 0.756,-0.037 0.74,-0.056 0.725,-0.075 0.712,-0.097 0.703,-0.12 L 0.687,-0.132 0.67,-0.12 C 0.661,-0.097 0.648,-0.075 0.633,-0.056 0.617,-0.037 0.599,-0.021 0.579,-0.007 0.559,0.006 0.538,0.017 0.514,0.024 0.49,0.031 0.466,0.035 0.441,0.035 0.407,0.035 0.376,0.029 0.346,0.016 0.316,0.004 0.29,-0.013 0.268,-0.035 0.246,-0.057 0.228,-0.083 0.215,-0.113 0.202,-0.142 0.195,-0.174 0.195,-0.208 V -0.252 C 0.174,-0.26 0.157,-0.273 0.144,-0.29 0.131,-0.308 0.125,-0.328 0.125,-0.351 c 0,-0.012 0.002,-0.024 0.006,-0.035 0.004,-0.012 0.01,-0.022 0.017,-0.031 0.008,-0.009 0.016,-0.017 0.026,-0.023 0.01,-0.007 0.021,-0.011 0.034,-0.014 l 0.18,-0.271 c 0.007,-0.01 0.015,-0.018 0.023,-0.025 0.008,-0.006 0.016,-0.01 0.026,-0.014 0.009,-0.003 0.019,-0.006 0.029,-0.007 0.01,-0.001 0.021,-0.001 0.033,-0.001 h 0.047 c 0.015,0 0.028,0.003 0.041,0.008 0.013,0.006 0.024,0.013 0.033,0.023 0.01,0.009 0.018,0.02 0.023,0.033 0.006,0.013 0.008,0.026 0.008,0.041 0,0.015 -0.002,0.028 -0.008,0.041 C 0.638,-0.613 0.63,-0.602 0.62,-0.593 0.611,-0.583 0.6,-0.575 0.587,-0.57 0.574,-0.564 0.561,-0.562 0.546,-0.562 H 0.532 l -0.07,0.105 h 0.119 c 0.015,0 0.029,0.004 0.043,0.01 0.014,0.006 0.026,0.015 0.036,0.026 h 0.053 c 0.01,-0.012 0.022,-0.02 0.036,-0.027 0.014,-0.006 0.028,-0.009 0.043,-0.009 H 0.911 L 0.841,-0.562 H 0.827 C 0.812,-0.562 0.799,-0.564 0.786,-0.57 0.773,-0.575 0.762,-0.583 0.752,-0.593 0.743,-0.602 0.736,-0.613 0.73,-0.626 0.724,-0.639 0.722,-0.653 0.722,-0.667 c 0,-0.014 0.002,-0.028 0.008,-0.041 0.006,-0.012 0.013,-0.023 0.023,-0.033 0.009,-0.01 0.02,-0.017 0.033,-0.023 0.013,-0.005 0.026,-0.008 0.041,-0.008 l 0.048,-0.001 c 0.011,0 0.022,0.001 0.032,0.002 0.011,0.001 0.02,0.003 0.03,0.007 0.009,0.003 0.018,0.008 0.026,0.014 0.008,0.007 0.015,0.015 0.022,0.025 z"
         style="fill-rule:nonzero"
         id="path14816" /><path
         d="m 1.081,-0.399 c 0.006,0.002 0.012,0.003 0.016,0.005 0.005,0.001 0.01,0.003 0.014,0.004 0.005,0.001 0.01,0.002 0.014,0.003 0.005,0 0.011,0.001 0.018,0.001 0.009,0 0.018,0.003 0.024,0.01 0.007,0.007 0.011,0.015 0.011,0.025 0,0.01 -0.004,0.018 -0.011,0.025 -0.006,0.007 -0.015,0.01 -0.024,0.01 -0.01,0 -0.018,0.004 -0.025,0.011 -0.007,0.007 -0.011,0.015 -0.011,0.024 v 0.073 c 0,0.025 -0.004,0.047 -0.013,0.068 -0.01,0.021 -0.022,0.039 -0.038,0.055 C 1.04,-0.07 1.021,-0.058 1,-0.049 0.978,-0.04 0.956,-0.035 0.932,-0.035 0.916,-0.035 0.899,-0.037 0.884,-0.042 0.868,-0.047 0.853,-0.053 0.839,-0.061 0.826,-0.07 0.813,-0.08 0.802,-0.092 0.791,-0.103 0.782,-0.117 0.774,-0.132 0.771,-0.139 0.768,-0.146 0.767,-0.154 0.765,-0.161 0.763,-0.169 0.76,-0.176 0.759,-0.178 0.757,-0.181 0.755,-0.184 0.753,-0.187 0.75,-0.189 0.748,-0.192 0.746,-0.194 0.744,-0.197 0.742,-0.2 0.74,-0.202 0.739,-0.205 0.739,-0.208 L 0.74,-0.242 c 0,-0.02 -0.004,-0.034 -0.012,-0.042 -0.007,-0.008 -0.021,-0.012 -0.041,-0.012 -0.013,0 -0.023,0.001 -0.03,0.004 C 0.65,-0.289 0.644,-0.285 0.64,-0.28 0.636,-0.275 0.634,-0.269 0.633,-0.262 0.631,-0.255 0.631,-0.247 0.631,-0.239 v 0.031 c 0,0.003 0,0.006 -0.002,0.008 C 0.628,-0.197 0.626,-0.194 0.624,-0.192 0.622,-0.189 0.62,-0.186 0.618,-0.183 0.616,-0.181 0.614,-0.178 0.613,-0.176 0.61,-0.169 0.608,-0.161 0.606,-0.154 0.605,-0.146 0.602,-0.139 0.599,-0.132 0.591,-0.117 0.582,-0.103 0.571,-0.091 0.56,-0.079 0.547,-0.069 0.534,-0.061 0.52,-0.052 0.505,-0.046 0.49,-0.042 0.474,-0.037 0.458,-0.035 0.441,-0.035 0.417,-0.035 0.395,-0.04 0.373,-0.049 0.352,-0.058 0.333,-0.07 0.317,-0.085 0.301,-0.101 0.289,-0.119 0.279,-0.14 0.27,-0.161 0.265,-0.183 0.265,-0.208 V -0.281 C 0.265,-0.29 0.263,-0.296 0.26,-0.301 0.257,-0.305 0.252,-0.308 0.247,-0.311 0.242,-0.313 0.236,-0.315 0.23,-0.316 0.224,-0.317 0.219,-0.319 0.213,-0.321 0.208,-0.323 0.204,-0.326 0.2,-0.331 0.197,-0.336 0.195,-0.342 0.195,-0.351 c 0,-0.01 0.004,-0.018 0.011,-0.025 0.006,-0.007 0.015,-0.01 0.024,-0.01 h 0.011 c 0.009,0 0.017,-0.002 0.025,-0.006 0.008,-0.003 0.016,-0.006 0.025,-0.008 0.001,0 0.004,0.001 0.008,0.002 l 0.026,0.01 c 0.004,0.001 0.006,0.002 0.006,0.002 h 0.25 c 0.01,0 0.018,0.003 0.025,0.01 0.007,0.007 0.01,0.015 0.01,0.025 h 0.141 c 0,-0.01 0.003,-0.018 0.01,-0.025 0.007,-0.007 0.015,-0.01 0.025,-0.01 h 0.25 c 0,0 0.002,-0.001 0.006,-0.002 0.003,-0.001 0.007,-0.002 0.012,-0.004 0.004,-0.001 0.008,-0.003 0.013,-0.004 0.004,-0.002 0.006,-0.003 0.008,-0.003 z"
         style="fill:#757575;fill-rule:nonzero"
         id="path14818" /><path
         d="m 0.511,-0.351 c 0.01,0 0.019,0.002 0.028,0.006 0.008,0.003 0.015,0.008 0.022,0.015 0.006,0.006 0.011,0.013 0.015,0.022 0.003,0.008 0.005,0.017 0.005,0.027 v 0.071 c 0,0.019 -0.004,0.037 -0.011,0.054 -0.007,0.017 -0.017,0.032 -0.03,0.045 -0.013,0.012 -0.028,0.022 -0.045,0.03 C 0.478,-0.074 0.46,-0.07 0.441,-0.07 0.422,-0.07 0.404,-0.074 0.387,-0.082 0.37,-0.089 0.355,-0.099 0.342,-0.112 0.329,-0.125 0.319,-0.139 0.312,-0.156 0.304,-0.173 0.3,-0.191 0.3,-0.21 V -0.281 C 0.3,-0.291 0.302,-0.3 0.306,-0.308 0.31,-0.317 0.315,-0.324 0.321,-0.33 0.327,-0.337 0.335,-0.342 0.343,-0.345 0.352,-0.349 0.361,-0.351 0.371,-0.351 Z m 0.491,0 c 0.01,0 0.019,0.002 0.028,0.006 0.008,0.003 0.016,0.008 0.022,0.015 0.006,0.006 0.011,0.013 0.015,0.022 0.004,0.008 0.006,0.017 0.006,0.027 v 0.071 c 0,0.019 -0.004,0.037 -0.011,0.054 -0.008,0.017 -0.018,0.031 -0.031,0.044 -0.013,0.013 -0.028,0.023 -0.045,0.03 C 0.969,-0.074 0.951,-0.07 0.932,-0.07 0.913,-0.07 0.895,-0.074 0.878,-0.081 0.861,-0.089 0.846,-0.099 0.833,-0.111 0.82,-0.124 0.81,-0.139 0.803,-0.156 0.796,-0.173 0.792,-0.191 0.792,-0.21 v -0.071 c 0,-0.01 0.002,-0.019 0.005,-0.027 0.004,-0.009 0.009,-0.016 0.015,-0.022 0.007,-0.007 0.014,-0.012 0.022,-0.015 0.009,-0.004 0.018,-0.006 0.028,-0.006 z M 0.495,-0.632 0.331,-0.386 H 0.247 l 0.2,-0.301 C 0.45,-0.691 0.455,-0.695 0.46,-0.698 0.465,-0.701 0.47,-0.702 0.476,-0.702 h 0.07 c 0.01,0 0.018,0.003 0.025,0.01 0.007,0.007 0.01,0.015 0.01,0.025 0,0.01 -0.003,0.018 -0.01,0.025 -0.007,0.007 -0.015,0.01 -0.025,0.01 z m 0.631,0.246 H 1.042 L 0.878,-0.632 H 0.827 c -0.01,0 -0.018,-0.003 -0.025,-0.01 -0.007,-0.007 -0.01,-0.016 -0.01,-0.025 0,-0.009 0.003,-0.018 0.01,-0.025 0.007,-0.007 0.015,-0.01 0.025,-0.01 h 0.07 c 0.005,0 0.011,0.001 0.016,0.004 0.006,0.004 0.01,0.007 0.013,0.011 z m -0.439,0.07 c 0.009,0 0.018,0.002 0.027,0.006 0.008,0.003 0.016,0.008 0.022,0.015 0.006,0.006 0.011,0.014 0.015,0.022 0.004,0.009 0.006,0.018 0.006,0.027 v 0.024 c 0,0.008 0,0.015 0,0.023 0.001,0.008 0.001,0.016 0.003,0.023 -0.009,0 -0.016,-0.001 -0.021,-0.004 C 0.734,-0.182 0.73,-0.186 0.728,-0.19 0.725,-0.195 0.723,-0.2 0.722,-0.206 c 0,-0.006 -0.001,-0.012 -0.001,-0.018 l 0.001,-0.022 c 0,-0.009 -0.004,-0.018 -0.011,-0.025 -0.006,-0.006 -0.015,-0.01 -0.024,-0.01 -0.01,0 -0.019,0.004 -0.025,0.01 -0.007,0.007 -0.011,0.016 -0.011,0.025 v 0.019 c 0,0.006 0,0.013 -0.001,0.019 0,0.006 -0.002,0.012 -0.004,0.016 -0.003,0.005 -0.007,0.009 -0.012,0.012 -0.005,0.003 -0.012,0.004 -0.021,0.004 0.002,-0.007 0.002,-0.013 0.003,-0.02 0,-0.007 0,-0.014 0,-0.021 v -0.029 c 0,-0.009 0.002,-0.018 0.006,-0.027 0.004,-0.008 0.009,-0.016 0.015,-0.022 0.006,-0.007 0.014,-0.012 0.022,-0.015 0.009,-0.004 0.018,-0.006 0.028,-0.006 z"
         style="fill:#383838;fill-rule:nonzero"
         id="path14820" /><path
         d="m 1.002,-0.316 c 0.01,0 0.019,0.004 0.025,0.01 0.007,0.007 0.011,0.015 0.011,0.025 v 0.071 c 0,0.014 -0.003,0.028 -0.009,0.041 -0.005,0.012 -0.013,0.023 -0.022,0.033 -0.01,0.009 -0.021,0.017 -0.034,0.022 -0.013,0.006 -0.026,0.009 -0.041,0.009 -0.015,0 -0.028,-0.003 -0.041,-0.009 C 0.878,-0.119 0.867,-0.127 0.858,-0.136 0.848,-0.146 0.84,-0.157 0.835,-0.169 0.829,-0.182 0.827,-0.196 0.827,-0.21 v -0.071 c 0,-0.009 0.003,-0.017 0.01,-0.024 0.007,-0.007 0.015,-0.011 0.025,-0.011 z m -0.491,0 c 0.01,0 0.018,0.004 0.025,0.011 0.006,0.007 0.01,0.015 0.01,0.024 v 0.071 c 0,0.014 -0.003,0.028 -0.008,0.041 -0.006,0.012 -0.013,0.023 -0.023,0.033 -0.009,0.009 -0.02,0.017 -0.033,0.022 C 0.469,-0.108 0.456,-0.105 0.441,-0.105 0.426,-0.105 0.413,-0.108 0.4,-0.114 0.387,-0.119 0.376,-0.127 0.366,-0.136 0.357,-0.146 0.349,-0.157 0.344,-0.169 0.338,-0.182 0.335,-0.196 0.335,-0.21 v -0.071 c 0,-0.01 0.004,-0.018 0.011,-0.025 0.007,-0.007 0.015,-0.01 0.025,-0.01 z"
         style="fill-rule:nonzero"
         id="path14822" /><path
         d="m 0.441,-0.281 c -0.019,0 -0.038,0.003 -0.056,0.009 -0.017,0.006 -0.034,0.015 -0.05,0.026 v -0.035 c 0,-0.01 0.004,-0.018 0.011,-0.025 0.007,-0.006 0.015,-0.01 0.025,-0.01 h 0.14 c 0.01,0 0.018,0.004 0.025,0.011 0.006,0.007 0.01,0.015 0.01,0.024 v 0.035 C 0.531,-0.257 0.514,-0.266 0.496,-0.272 0.478,-0.278 0.46,-0.281 0.441,-0.281 Z m 0.491,0 c -0.019,0 -0.038,0.003 -0.055,0.009 -0.018,0.006 -0.035,0.015 -0.05,0.026 v -0.035 c 0,-0.009 0.003,-0.017 0.01,-0.024 0.007,-0.007 0.015,-0.011 0.025,-0.011 h 0.14 c 0.01,0 0.019,0.004 0.025,0.01 0.007,0.007 0.011,0.015 0.011,0.025 v 0.035 C 1.022,-0.257 1.005,-0.266 0.988,-0.272 0.97,-0.278 0.951,-0.281 0.932,-0.281 Z"
         style="fill:#757575;fill-rule:nonzero"
         id="path14824" /></g></g></svg>
