<?xml version="1.0" encoding="UTF-8" standalone="no"?>
<svg
   width="16.844999"
   height="15.255"
   viewBox="0 0 16.844999 15.255"
   version="1.1"
   xml:space="preserve"
   style="clip-rule:evenodd;fill-rule:evenodd;stroke-linejoin:round;stroke-miterlimit:2"
   id="svg20568"
   sodipodi:docname="emojis.svg"
   xmlns:inkscape="http://www.inkscape.org/namespaces/inkscape"
   xmlns:sodipodi="http://sodipodi.sourceforge.net/DTD/sodipodi-0.dtd"
   xmlns="http://www.w3.org/2000/svg"
   xmlns:svg="http://www.w3.org/2000/svg"><defs
     id="defs20572" /><sodipodi:namedview
     id="namedview20570"
     pagecolor="#505050"
     bordercolor="#eeeeee"
     borderopacity="1"
     inkscape:pageshadow="0"
     inkscape:pageopacity="0"
     inkscape:pagecheckerboard="0" /><g
     transform="matrix(0.24,0,0,0.24,-13.213584,-767.9574)"
     id="g20566"><g
       transform="matrix(62.5,0,0,62.5,47.2441,3250.26)"
       id="g14838"><path
         d="M 0.878,0.21 C 0.861,0.21 0.844,0.208 0.828,0.203 0.811,0.198 0.796,0.191 0.782,0.182 0.768,0.173 0.756,0.162 0.745,0.149 0.734,0.136 0.724,0.121 0.717,0.105 0.712,0.094 0.707,0.082 0.702,0.071 0.697,0.059 0.692,0.047 0.687,0.035 0.682,0.047 0.677,0.059 0.672,0.07 0.667,0.082 0.661,0.094 0.656,0.105 0.648,0.121 0.639,0.135 0.628,0.148 0.617,0.161 0.604,0.173 0.591,0.182 0.577,0.191 0.562,0.198 0.546,0.203 0.53,0.208 0.513,0.21 0.495,0.21 H 0.371 C 0.337,0.21 0.305,0.204 0.275,0.191 0.245,0.178 0.219,0.161 0.197,0.138 0.175,0.116 0.157,0.09 0.144,0.06 0.131,0.031 0.125,-0.001 0.125,-0.035 v -0.351 c 0,-0.032 0.004,-0.063 0.013,-0.092 0.009,-0.029 0.021,-0.056 0.037,-0.082 0.015,-0.025 0.033,-0.049 0.054,-0.07 0.022,-0.022 0.045,-0.042 0.07,-0.06 0.024,-0.017 0.051,-0.033 0.078,-0.047 0.028,-0.013 0.056,-0.025 0.084,-0.034 0.036,-0.013 0.074,-0.021 0.111,-0.027 0.038,-0.006 0.076,-0.009 0.115,-0.009 0.038,0 0.076,0.003 0.114,0.009 0.038,0.006 0.075,0.014 0.111,0.027 0.028,0.009 0.056,0.021 0.084,0.034 0.027,0.014 0.054,0.03 0.078,0.047 0.025,0.018 0.048,0.038 0.07,0.06 0.021,0.021 0.039,0.045 0.054,0.07 0.016,0.026 0.028,0.053 0.037,0.082 0.009,0.029 0.013,0.06 0.013,0.092 v 0.351 C 1.248,-0.001 1.242,0.031 1.229,0.06 1.216,0.09 1.198,0.116 1.176,0.138 1.154,0.161 1.128,0.178 1.098,0.191 1.068,0.204 1.036,0.21 1.002,0.21 Z M 0.99,-0.491 C 0.971,-0.51 0.95,-0.526 0.926,-0.539 0.901,-0.552 0.876,-0.563 0.849,-0.572 0.822,-0.58 0.795,-0.587 0.767,-0.591 0.739,-0.595 0.712,-0.597 0.687,-0.597 c -0.026,0 -0.053,0.002 -0.081,0.006 -0.028,0.004 -0.055,0.011 -0.082,0.019 -0.027,0.009 -0.052,0.02 -0.076,0.033 -0.025,0.013 -0.046,0.029 -0.065,0.048 0.005,0 0.009,-0.001 0.014,-0.001 h 0.014 l 0.043,0.001 h 0.525 c 0.003,0 0.007,0 0.011,0 z"
         style="fill-rule:nonzero"
         id="path14828" /><path
         d="m 1.143,-0.176 c -0.01,0 -0.018,-0.003 -0.025,-0.01 C 1.111,-0.193 1.107,-0.201 1.107,-0.21 V -0.386 C 1.107,-0.419 1.1,-0.449 1.085,-0.477 1.07,-0.504 1.051,-0.528 1.028,-0.55 1.004,-0.571 0.978,-0.589 0.949,-0.604 0.921,-0.62 0.892,-0.632 0.864,-0.641 0.835,-0.65 0.806,-0.656 0.776,-0.661 0.747,-0.665 0.717,-0.667 0.687,-0.667 0.656,-0.667 0.626,-0.665 0.596,-0.661 0.567,-0.656 0.537,-0.65 0.509,-0.641 0.49,-0.635 0.471,-0.627 0.452,-0.619 0.433,-0.61 0.414,-0.6 0.396,-0.588 0.378,-0.577 0.361,-0.564 0.345,-0.55 c -0.016,0.015 -0.03,0.03 -0.042,0.047 -0.011,0.017 -0.021,0.035 -0.028,0.055 -0.006,0.019 -0.01,0.04 -0.01,0.062 v 0.176 c 0,0.009 -0.003,0.017 -0.01,0.024 -0.007,0.007 -0.015,0.01 -0.025,0.01 -0.009,0 -0.017,-0.003 -0.024,-0.01 C 0.199,-0.192 0.195,-0.201 0.195,-0.21 v -0.176 c 0,-0.042 0.009,-0.079 0.026,-0.114 0.017,-0.035 0.039,-0.065 0.067,-0.093 0.028,-0.027 0.06,-0.05 0.095,-0.069 0.035,-0.02 0.071,-0.035 0.107,-0.046 0.032,-0.01 0.064,-0.018 0.097,-0.022 0.033,-0.005 0.066,-0.007 0.1,-0.007 0.033,0 0.066,0.002 0.098,0.007 0.033,0.004 0.065,0.012 0.097,0.022 0.024,0.007 0.048,0.016 0.072,0.027 0.024,0.011 0.047,0.024 0.069,0.039 0.022,0.015 0.043,0.031 0.061,0.049 0.019,0.018 0.035,0.038 0.049,0.06 0.014,0.021 0.025,0.044 0.033,0.068 0.008,0.025 0.012,0.051 0.012,0.079 v 0.176 c 0,0.009 -0.004,0.018 -0.011,0.024 -0.007,0.007 -0.015,0.01 -0.024,0.01 z"
         style="fill:#383838;fill-rule:nonzero"
         id="path14830" /><path
         d="m 1.178,-0.21 v 0.175 c 0,0.024 -0.005,0.047 -0.014,0.068 C 1.155,0.054 1.142,0.073 1.126,0.089 1.11,0.105 1.092,0.117 1.071,0.126 1.049,0.136 1.027,0.14 1.002,0.14 H 0.878 C 0.857,0.14 0.838,0.135 0.821,0.123 0.803,0.112 0.791,0.097 0.782,0.077 L 0.751,0.007 C 0.745,-0.006 0.737,-0.016 0.725,-0.024 0.714,-0.031 0.701,-0.035 0.687,-0.035 0.672,-0.035 0.659,-0.031 0.648,-0.024 0.636,-0.016 0.627,-0.006 0.622,0.007 0.616,0.019 0.611,0.03 0.606,0.042 0.602,0.054 0.597,0.065 0.591,0.077 0.583,0.097 0.57,0.112 0.553,0.123 0.535,0.135 0.516,0.14 0.495,0.14 H 0.371 C 0.347,0.14 0.324,0.136 0.302,0.126 0.281,0.117 0.263,0.105 0.247,0.089 0.231,0.073 0.218,0.054 0.209,0.033 0.2,0.012 0.195,-0.011 0.195,-0.035 V -0.21 c 0,-0.029 0.006,-0.057 0.017,-0.082 0.011,-0.026 0.026,-0.049 0.045,-0.068 0.019,-0.019 0.041,-0.034 0.066,-0.045 0.026,-0.011 0.053,-0.016 0.083,-0.016 h 0.561 c 0.03,0 0.057,0.005 0.083,0.016 0.025,0.011 0.047,0.026 0.066,0.045 0.019,0.019 0.034,0.042 0.045,0.068 0.011,0.025 0.017,0.053 0.017,0.082 z"
         style="fill:#0078d7;fill-rule:nonzero"
         id="path14832" /><path
         d="M 1.143,-0.21 C 1.126,-0.233 1.105,-0.25 1.081,-0.262 1.056,-0.275 1.03,-0.281 1.002,-0.281 H 0.371 c -0.028,0 -0.054,0.006 -0.079,0.019 -0.024,0.012 -0.045,0.029 -0.062,0.052 0,-0.025 0.005,-0.047 0.014,-0.069 0.009,-0.021 0.022,-0.04 0.038,-0.055 0.016,-0.016 0.034,-0.029 0.055,-0.038 0.022,-0.01 0.044,-0.014 0.069,-0.014 h 0.561 c 0.025,0 0.047,0.004 0.069,0.014 0.021,0.009 0.039,0.022 0.055,0.038 0.016,0.015 0.029,0.034 0.038,0.055 0.009,0.022 0.014,0.044 0.014,0.069 z M 1.002,-0.246 c 0.02,0 0.038,0.004 0.055,0.011 0.017,0.008 0.032,0.018 0.045,0.03 0.012,0.013 0.022,0.028 0.03,0.045 0.007,0.017 0.011,0.035 0.011,0.055 0,0.023 -0.003,0.045 -0.007,0.068 C 1.131,-0.015 1.124,0.005 1.113,0.022 1.102,0.04 1.088,0.054 1.07,0.064 1.052,0.075 1.029,0.08 1.002,0.08 H 0.878 C 0.864,0.08 0.851,0.076 0.84,0.069 0.828,0.061 0.82,0.051 0.814,0.038 L 0.783,-0.032 C 0.775,-0.052 0.762,-0.067 0.745,-0.079 0.727,-0.09 0.708,-0.096 0.687,-0.096 0.665,-0.096 0.646,-0.09 0.628,-0.079 0.611,-0.067 0.598,-0.052 0.59,-0.032 0.585,-0.021 0.58,-0.009 0.575,0.003 0.57,0.015 0.565,0.026 0.559,0.038 0.553,0.051 0.545,0.061 0.533,0.069 0.522,0.076 0.509,0.08 0.495,0.08 H 0.371 C 0.344,0.08 0.321,0.075 0.303,0.064 0.285,0.054 0.271,0.04 0.26,0.022 0.25,0.005 0.242,-0.015 0.237,-0.037 0.233,-0.06 0.23,-0.082 0.23,-0.105 c 0,-0.02 0.004,-0.038 0.011,-0.055 0.008,-0.017 0.018,-0.032 0.03,-0.045 0.013,-0.012 0.028,-0.022 0.045,-0.03 0.017,-0.007 0.035,-0.011 0.055,-0.011 z"
         style="fill:#69eaff;fill-rule:nonzero"
         id="path14834" /><path
         d="m 1.143,-0.105 v 0.07 C 1.143,-0.016 1.139,0.003 1.132,0.02 1.124,0.036 1.114,0.051 1.102,0.064 1.089,0.077 1.074,0.087 1.057,0.094 1.04,0.101 1.022,0.105 1.002,0.105 H 0.878 C 0.864,0.105 0.851,0.101 0.839,0.094 0.828,0.086 0.819,0.076 0.814,0.063 L 0.783,-0.007 C 0.775,-0.026 0.762,-0.042 0.745,-0.053 0.727,-0.065 0.708,-0.07 0.687,-0.07 c -0.022,0 -0.041,0.005 -0.059,0.017 -0.017,0.011 -0.03,0.027 -0.038,0.046 L 0.559,0.063 C 0.554,0.076 0.545,0.086 0.534,0.094 0.522,0.101 0.509,0.105 0.495,0.105 H 0.371 C 0.351,0.105 0.333,0.101 0.316,0.094 0.299,0.087 0.284,0.077 0.271,0.064 0.259,0.051 0.249,0.036 0.241,0.02 0.234,0.003 0.23,-0.016 0.23,-0.035 v -0.07 c 0,0.019 0.004,0.037 0.011,0.054 0.008,0.018 0.018,0.032 0.03,0.045 0.013,0.013 0.028,0.023 0.045,0.03 0.017,0.007 0.035,0.011 0.055,0.011 h 0.124 c 0.014,0 0.027,-0.004 0.039,-0.012 0.011,-0.007 0.02,-0.018 0.025,-0.03 l 0.031,-0.07 c 0.008,-0.02 0.021,-0.035 0.038,-0.047 0.018,-0.011 0.037,-0.017 0.059,-0.017 0.021,0 0.04,0.006 0.058,0.017 0.017,0.012 0.03,0.027 0.038,0.047 l 0.031,0.07 c 0.005,0.012 0.014,0.023 0.025,0.03 0.012,0.008 0.025,0.012 0.039,0.012 h 0.124 c 0.02,0 0.038,-0.004 0.055,-0.011 0.017,-0.007 0.032,-0.017 0.045,-0.03 0.012,-0.013 0.022,-0.027 0.03,-0.045 0.007,-0.017 0.011,-0.035 0.011,-0.054 z"
         style="fill:#00bcf2;fill-rule:nonzero"
         id="path14836" /></g></g></svg>
