<?xml version="1.0" encoding="UTF-8" standalone="no"?>
<svg
   width="16.844999"
   height="16.844999"
   viewBox="0 0 16.844999 16.844999"
   version="1.1"
   xml:space="preserve"
   style="clip-rule:evenodd;fill-rule:evenodd;stroke-linejoin:round;stroke-miterlimit:2"
   id="svg20568"
   sodipodi:docname="emojis.svg"
   xmlns:inkscape="http://www.inkscape.org/namespaces/inkscape"
   xmlns:sodipodi="http://sodipodi.sourceforge.net/DTD/sodipodi-0.dtd"
   xmlns="http://www.w3.org/2000/svg"
   xmlns:svg="http://www.w3.org/2000/svg"><defs
     id="defs20572" /><sodipodi:namedview
     id="namedview20570"
     pagecolor="#505050"
     bordercolor="#eeeeee"
     borderopacity="1"
     inkscape:pageshadow="0"
     inkscape:pageopacity="0"
     inkscape:pagecheckerboard="0" /><g
     transform="matrix(0.24,0,0,0.24,-738.195,-749.3994)"
     id="g20566"><g
       transform="matrix(62.5,0,0,62.5,3068,3179.56)"
       id="g14800"><path
         d="M 0.915,0.21 C 0.893,0.21 0.873,0.206 0.854,0.198 0.834,0.19 0.818,0.178 0.803,0.164 0.789,0.15 0.778,0.133 0.769,0.114 0.761,0.095 0.757,0.075 0.757,0.053 0.757,0.036 0.759,0.021 0.764,0.005 0.738,0.015 0.711,0.023 0.683,0.028 0.655,0.033 0.627,0.036 0.599,0.036 0.556,0.036 0.513,0.03 0.473,0.019 0.432,0.007 0.395,-0.009 0.36,-0.03 0.325,-0.05 0.293,-0.075 0.264,-0.104 0.235,-0.133 0.21,-0.165 0.19,-0.2 0.169,-0.235 0.153,-0.273 0.142,-0.314 0.131,-0.354 0.125,-0.396 0.125,-0.44 c 0,-0.043 0.006,-0.085 0.017,-0.125 0.011,-0.04 0.027,-0.078 0.048,-0.113 0.02,-0.035 0.045,-0.067 0.074,-0.096 0.029,-0.028 0.061,-0.053 0.096,-0.074 0.035,-0.021 0.073,-0.037 0.113,-0.048 0.04,-0.011 0.082,-0.017 0.125,-0.017 0.044,0 0.086,0.006 0.126,0.017 0.041,0.011 0.079,0.027 0.114,0.048 0.035,0.021 0.067,0.046 0.096,0.074 0.029,0.029 0.053,0.061 0.074,0.096 0.021,0.035 0.037,0.073 0.048,0.114 0.011,0.04 0.017,0.082 0.017,0.126 0,0.04 -0.005,0.08 -0.016,0.119 -0.01,0.038 -0.025,0.076 -0.044,0.111 0.019,0.003 0.036,0.01 0.052,0.019 0.016,0.009 0.03,0.021 0.041,0.035 0.012,0.014 0.021,0.029 0.027,0.047 0.007,0.017 0.01,0.035 0.01,0.054 0,0.018 -0.003,0.035 -0.009,0.053 H 1.143 C 1.157,0 1.17,0.003 1.183,0.008 1.196,0.014 1.207,0.021 1.217,0.031 1.227,0.041 1.234,0.052 1.24,0.064 1.245,0.077 1.248,0.091 1.248,0.105 1.248,0.12 1.245,0.133 1.24,0.146 1.234,0.159 1.227,0.17 1.217,0.179 1.207,0.189 1.196,0.197 1.184,0.202 1.171,0.208 1.157,0.21 1.143,0.21 Z"
         style="fill-rule:nonzero"
         id="path14790" /><path
         d="m 0.971,-0.282 c -0.004,0.002 -0.009,0.004 -0.014,0.006 -0.005,0.002 -0.009,0.005 -0.014,0.008 -0.004,0.003 -0.007,0.007 -0.01,0.011 -0.003,0.004 -0.005,0.008 -0.005,0.013 0,0.006 0.001,0.011 0.001,0.016 0.001,0.005 0.002,0.01 0.004,0.015 l -0.008,0.011 -0.035,0.013 -0.029,0.057 -0.07,0.014 -0.07,0.064 c -0.04,0.012 -0.08,0.019 -0.122,0.019 -0.033,0 -0.065,-0.004 -0.096,-0.012 C 0.472,-0.054 0.442,-0.065 0.414,-0.08 0.385,-0.095 0.359,-0.113 0.334,-0.134 0.31,-0.155 0.288,-0.178 0.27,-0.205 c 0,-0.005 0.001,-0.009 0.001,-0.013 0,-0.004 0,-0.009 0,-0.013 0,-0.007 0,-0.013 -0.002,-0.017 C 0.267,-0.252 0.264,-0.255 0.26,-0.258 0.257,-0.26 0.253,-0.263 0.248,-0.264 0.244,-0.266 0.238,-0.267 0.232,-0.269 0.227,-0.28 0.223,-0.291 0.219,-0.302 0.215,-0.313 0.211,-0.325 0.208,-0.336 L 0.233,-0.417 0.199,-0.497 C 0.201,-0.509 0.204,-0.522 0.207,-0.534 0.209,-0.547 0.213,-0.559 0.217,-0.571 0.224,-0.572 0.229,-0.574 0.234,-0.575 0.238,-0.577 0.241,-0.58 0.244,-0.583 0.246,-0.585 0.248,-0.589 0.249,-0.594 0.25,-0.598 0.25,-0.603 0.25,-0.61 c 0,-0.01 0,-0.02 -0.001,-0.03 0.016,-0.027 0.034,-0.053 0.056,-0.075 0.021,-0.023 0.045,-0.043 0.071,-0.06 L 0.423,-0.777 0.441,-0.811 C 0.453,-0.816 0.464,-0.82 0.476,-0.823 0.487,-0.827 0.499,-0.83 0.511,-0.833 l 0.072,0.019 0.021,-0.028 c 0.042,0 0.083,0.007 0.123,0.021 0.039,0.013 0.076,0.032 0.111,0.057 -0.002,0.002 -0.005,0.004 -0.007,0.007 -0.003,0.002 -0.006,0.005 -0.009,0.008 -0.003,0.003 -0.005,0.006 -0.007,0.009 -0.002,0.004 -0.003,0.006 -0.003,0.009 0,0.003 0.003,0.006 0.01,0.009 0.007,0.003 0.015,0.006 0.024,0.009 0.009,0.002 0.018,0.005 0.028,0.006 0.01,0.002 0.018,0.004 0.024,0.005 0.002,0.001 0.003,0.001 0.004,0.001 0.002,0.001 0.004,0.001 0.004,0.001 0.01,0.011 0.018,0.022 0.026,0.034 0.008,0.012 0.016,0.024 0.022,0.036 -0.003,0.004 -0.007,0.009 -0.011,0.015 -0.005,0.007 -0.007,0.013 -0.007,0.018 0,0.003 0.002,0.006 0.006,0.01 0.004,0.003 0.008,0.007 0.014,0.01 0.005,0.004 0.01,0.007 0.015,0.01 0.006,0.003 0.01,0.005 0.012,0.006 0.013,0.04 0.019,0.081 0.019,0.123 0,0.027 -0.002,0.053 -0.008,0.08 -0.005,0.026 -0.013,0.052 -0.023,0.076 z"
         style="fill:#107c10;fill-rule:nonzero"
         id="path14792" /><path
         d="M 0.971,-0.282 C 0.96,-0.257 0.948,-0.234 0.933,-0.213 0.864,-0.217 0.797,-0.228 0.731,-0.247 0.665,-0.266 0.602,-0.292 0.542,-0.323 0.481,-0.354 0.423,-0.391 0.369,-0.433 0.314,-0.475 0.264,-0.521 0.217,-0.571 0.226,-0.595 0.236,-0.618 0.249,-0.64 c 0.039,0.044 0.08,0.084 0.125,0.122 0.044,0.037 0.091,0.071 0.141,0.1 0.049,0.03 0.101,0.055 0.155,0.075 0.054,0.021 0.11,0.037 0.168,0.048 0.022,0.003 0.044,0.007 0.066,0.009 0.022,0.003 0.044,0.004 0.067,0.004 z M 1.178,0.105 C 1.178,0.115 1.174,0.123 1.167,0.13 1.161,0.137 1.152,0.14 1.143,0.14 H 0.915 C 0.903,0.14 0.891,0.138 0.88,0.133 0.87,0.129 0.86,0.122 0.852,0.115 0.844,0.107 0.838,0.097 0.833,0.087 0.829,0.076 0.827,0.065 0.827,0.053 0.827,0.041 0.829,0.029 0.833,0.019 0.838,0.008 0.844,-0.002 0.852,-0.01 0.86,-0.017 0.87,-0.024 0.88,-0.028 0.891,-0.033 0.903,-0.035 0.915,-0.035 h 0.07 c 0.005,0 0.009,-0.002 0.012,-0.005 0.004,-0.004 0.005,-0.008 0.005,-0.013 0,-0.005 -0.001,-0.009 -0.005,-0.012 C 0.994,-0.069 0.99,-0.07 0.985,-0.07 H 0.758 L 0.748,-0.091 C 0.641,-0.113 0.542,-0.151 0.45,-0.203 0.358,-0.256 0.274,-0.32 0.197,-0.396 0.197,-0.403 0.196,-0.41 0.196,-0.417 0.195,-0.424 0.195,-0.431 0.195,-0.438 c 0,-0.02 0.001,-0.04 0.004,-0.059 0.034,0.038 0.07,0.074 0.109,0.108 0.039,0.034 0.08,0.065 0.123,0.092 0.044,0.028 0.089,0.053 0.135,0.074 0.047,0.021 0.096,0.038 0.145,0.052 0.053,0.014 0.108,0.023 0.163,0.027 l -0.003,0.003 h 0.114 c 0.012,0 0.023,0.003 0.034,0.007 0.011,0.005 0.02,0.011 0.028,0.019 0.008,0.008 0.014,0.017 0.019,0.028 0.004,0.011 0.007,0.022 0.007,0.034 0,0.012 -0.003,0.024 -0.007,0.034 C 1.061,-0.008 1.055,0.002 1.047,0.01 1.039,0.017 1.03,0.024 1.019,0.028 1.008,0.033 0.997,0.035 0.985,0.035 H 0.915 C 0.91,0.035 0.906,0.037 0.902,0.04 0.899,0.044 0.897,0.048 0.897,0.053 0.897,0.057 0.899,0.061 0.902,0.065 0.906,0.069 0.91,0.07 0.915,0.07 h 0.228 c 0.009,0 0.017,0.004 0.024,0.011 0.007,0.006 0.011,0.015 0.011,0.024 z"
         style="fill:#13a10e;fill-rule:nonzero"
         id="path14794" /><path
         d="M 0.721,-0.054 C 0.721,-0.103 0.716,-0.151 0.708,-0.199 0.699,-0.247 0.686,-0.293 0.67,-0.339 0.654,-0.385 0.635,-0.429 0.613,-0.472 0.59,-0.516 0.565,-0.557 0.537,-0.596 0.49,-0.662 0.436,-0.721 0.376,-0.775 0.387,-0.783 0.397,-0.789 0.408,-0.795 0.419,-0.8 0.43,-0.806 0.441,-0.811 c 0.051,0.048 0.097,0.1 0.139,0.155 0.041,0.056 0.077,0.114 0.108,0.175 0.03,0.061 0.054,0.125 0.072,0.192 0.017,0.066 0.028,0.135 0.031,0.206 -0.012,0.006 -0.023,0.011 -0.034,0.016 -0.012,0.005 -0.024,0.009 -0.036,0.013 z m 0.204,-0.148 c -0.008,0.013 -0.018,0.025 -0.029,0.037 -0.011,0.012 -0.023,0.023 -0.035,0.033 0,-0.001 -0.001,-0.002 -0.001,-0.003 v -0.01 C 0.856,-0.212 0.845,-0.277 0.827,-0.34 0.809,-0.404 0.785,-0.465 0.754,-0.523 0.724,-0.581 0.688,-0.636 0.647,-0.688 0.606,-0.741 0.561,-0.789 0.511,-0.833 0.527,-0.837 0.542,-0.839 0.557,-0.84 c 0.015,-0.002 0.031,-0.002 0.047,-0.002 0.042,0.043 0.082,0.088 0.118,0.136 0.036,0.048 0.068,0.098 0.095,0.151 0.027,0.053 0.05,0.107 0.068,0.164 0.018,0.057 0.032,0.116 0.039,0.177 0.001,0.002 0.001,0.004 0.001,0.006 0,0.002 0,0.004 0,0.006 z"
         style="fill:#16c60c;fill-rule:nonzero"
         id="path14796" /><path
         d="M 0.983,-0.561 C 0.914,-0.558 0.847,-0.548 0.781,-0.53 0.715,-0.512 0.651,-0.488 0.591,-0.457 0.53,-0.426 0.473,-0.389 0.419,-0.347 0.365,-0.304 0.315,-0.257 0.27,-0.206 0.263,-0.216 0.256,-0.226 0.25,-0.236 0.243,-0.247 0.238,-0.258 0.233,-0.269 0.28,-0.32 0.331,-0.367 0.385,-0.409 0.44,-0.452 0.498,-0.489 0.559,-0.52 0.62,-0.551 0.684,-0.576 0.75,-0.595 c 0.066,-0.019 0.134,-0.03 0.204,-0.035 0.012,0.022 0.022,0.045 0.029,0.069 z M 0.906,-0.7 c -0.064,0.005 -0.127,0.015 -0.19,0.032 -0.063,0.017 -0.123,0.041 -0.18,0.07 C 0.472,-0.565 0.413,-0.526 0.359,-0.482 0.305,-0.438 0.255,-0.389 0.208,-0.336 0.204,-0.351 0.201,-0.365 0.199,-0.38 0.197,-0.395 0.196,-0.41 0.195,-0.426 0.238,-0.471 0.283,-0.512 0.333,-0.55 c 0.049,-0.038 0.1,-0.071 0.155,-0.1 0.054,-0.029 0.111,-0.054 0.169,-0.073 0.059,-0.019 0.119,-0.033 0.181,-0.041 0.013,0.01 0.025,0.02 0.036,0.03 0.011,0.011 0.022,0.022 0.032,0.034 z"
         style="fill:#79db75;fill-rule:nonzero"
         id="path14798" /></g></g></svg>
