<?xml version="1.0" encoding="UTF-8" standalone="no"?>
<svg
   width="11.58"
   height="16.845001"
   viewBox="0 0 11.58 16.845001"
   version="1.1"
   xml:space="preserve"
   style="clip-rule:evenodd;fill-rule:evenodd;stroke-linejoin:round;stroke-miterlimit:2"
   id="svg20568"
   sodipodi:docname="emojis.svg"
   xmlns:inkscape="http://www.inkscape.org/namespaces/inkscape"
   xmlns:sodipodi="http://sodipodi.sourceforge.net/DTD/sodipodi-0.dtd"
   xmlns="http://www.w3.org/2000/svg"
   xmlns:svg="http://www.w3.org/2000/svg"><defs
     id="defs20572" /><sodipodi:namedview
     id="namedview20570"
     pagecolor="#505050"
     bordercolor="#eeeeee"
     borderopacity="1"
     inkscape:pageshadow="0"
     inkscape:pageopacity="0"
     inkscape:pagecheckerboard="0" /><g
     transform="matrix(0.24,0,0,0.24,-113.79708,-766.3674)"
     id="g20566"><g
       transform="matrix(62.5,0,0,62.5,466.342,3250.26)"
       id="g14898"><rect
         x="0.125"
         y="-0.91299999"
         width="0.77200001"
         height="1.123"
         style="fill-rule:nonzero"
         id="rect14890" /><path
         d="M 0.195,-0.842 H 0.827 V 0.091 H 0.582 V -0.491 C 0.582,-0.501 0.58,-0.51 0.576,-0.519 0.572,-0.527 0.567,-0.534 0.561,-0.541 0.554,-0.547 0.547,-0.552 0.539,-0.556 0.53,-0.56 0.521,-0.562 0.511,-0.562 0.501,-0.562 0.492,-0.56 0.484,-0.556 0.475,-0.552 0.468,-0.547 0.462,-0.541 0.455,-0.534 0.45,-0.527 0.447,-0.519 0.443,-0.51 0.441,-0.501 0.441,-0.491 V 0.091 H 0.195 Z"
         style="fill:#0078d7;fill-rule:nonzero"
         id="path14892" /><path
         d="m 0.195,-0.667 c 0.015,0 0.029,-0.003 0.041,-0.008 C 0.249,-0.681 0.26,-0.688 0.27,-0.698 0.279,-0.707 0.286,-0.718 0.292,-0.731 0.298,-0.744 0.3,-0.757 0.3,-0.772 v -0.07 h 0.106 v 0.07 H 0.335 c 0,0.016 -0.002,0.031 -0.007,0.046 -0.006,0.015 -0.013,0.028 -0.022,0.04 -0.009,0.012 -0.02,0.022 -0.033,0.03 C 0.26,-0.647 0.246,-0.641 0.23,-0.637 V 0.035 H 0.195 Z m 0.527,-0.175 v 0.07 c 0,0.015 0.002,0.028 0.008,0.041 0.006,0.013 0.013,0.024 0.022,0.033 0.01,0.01 0.021,0.017 0.034,0.023 0.012,0.005 0.026,0.008 0.041,0.008 V 0.035 H 0.792 V -0.637 C 0.776,-0.641 0.762,-0.647 0.749,-0.656 0.736,-0.664 0.725,-0.674 0.716,-0.686 0.707,-0.698 0.7,-0.711 0.694,-0.726 0.689,-0.741 0.687,-0.756 0.687,-0.772 H 0.616 v -0.07 z m -0.245,0.246 c -0.01,0 -0.019,-0.003 -0.025,-0.01 C 0.445,-0.613 0.441,-0.622 0.441,-0.631 v -0.141 -0.07 h 0.14 v 0.07 H 0.546 v 0.176 z M 0.265,-0.842 v 0.07 h -0.07 v -0.07 z m 0.492,0 h 0.07 v 0.07 h -0.07 z"
         style="fill:#0037da;fill-rule:nonzero"
         id="path14894" /><path
         d="M 0.581,0.035 H 0.827 V 0.14 H 0.581 Z M 0.195,0.14 V 0.035 H 0.441 V 0.14 Z m 0.299,-0.947 c 0.004,0 0.008,0.002 0.012,0.005 0.003,0.004 0.005,0.008 0.005,0.012 0,0.005 -0.002,0.009 -0.005,0.013 -0.004,0.003 -0.008,0.005 -0.012,0.005 -0.005,0 -0.009,-0.002 -0.013,-0.005 -0.003,-0.004 -0.005,-0.008 -0.005,-0.013 0,-0.004 0.002,-0.009 0.005,-0.012 0.004,-0.003 0.008,-0.005 0.013,-0.005 z"
         style="fill:#83beec;fill-rule:nonzero"
         id="path14896" /></g></g></svg>
