<?xml version="1.0" encoding="UTF-8" standalone="no"?>
<svg
   width="16.860001"
   height="14.37"
   viewBox="0 0 16.860001 14.37"
   version="1.1"
   xml:space="preserve"
   style="clip-rule:evenodd;fill-rule:evenodd;stroke-linejoin:round;stroke-miterlimit:2"
   id="svg20568"
   sodipodi:docname="emojis.svg"
   xmlns:inkscape="http://www.inkscape.org/namespaces/inkscape"
   xmlns:sodipodi="http://sodipodi.sourceforge.net/DTD/sodipodi-0.dtd"
   xmlns="http://www.w3.org/2000/svg"
   xmlns:svg="http://www.w3.org/2000/svg"><defs
     id="defs20572" /><sodipodi:namedview
     id="namedview20570"
     pagecolor="#505050"
     bordercolor="#eeeeee"
     borderopacity="1"
     inkscape:pageshadow="0"
     inkscape:pageopacity="0"
     inkscape:pagecheckerboard="0" /><g
     transform="matrix(0.24,0,0,0.24,-242.4846,-129.27924)"
     id="g20566"><g
       transform="matrix(62.5,0,0,62.5,1002.54,589.101)"
       id="g1482"><path
         d="M 0.716,-0.105 H 0.712 c -0.01,0 -0.018,-0.001 -0.027,-0.001 -0.008,0 -0.016,-0.001 -0.024,-0.003 C 0.653,-0.11 0.645,-0.112 0.637,-0.116 0.63,-0.119 0.622,-0.124 0.614,-0.129 L 0.365,-0.316 H 0.283 C 0.266,-0.316 0.25,-0.319 0.235,-0.326 0.22,-0.332 0.207,-0.341 0.196,-0.352 0.185,-0.364 0.176,-0.377 0.17,-0.391 0.163,-0.406 0.16,-0.422 0.16,-0.439 0.16,-0.455 0.163,-0.47 0.169,-0.485 0.14,-0.51 0.125,-0.541 0.125,-0.579 c 0,-0.022 0.006,-0.043 0.017,-0.063 0.012,-0.019 0.027,-0.034 0.047,-0.045 l 0.177,-0.097 c 0.015,-0.008 0.03,-0.013 0.045,-0.017 0.016,-0.004 0.032,-0.006 0.048,-0.006 h 0.333 c 0.024,0 0.046,0.006 0.065,0.018 0.019,0.012 0.034,0.029 0.045,0.05 L 1.249,-0.05 0.847,0.151 Z m -0.25,-0.454 c 0.014,0.004 0.026,0.01 0.038,0.018 l 0.099,0.074 c 0.009,0.007 0.019,0.01 0.031,0.01 0.007,0 0.014,-0.001 0.02,-0.004 0.006,-0.002 0.012,-0.006 0.017,-0.011 0.005,-0.004 0.009,-0.01 0.011,-0.016 0.003,-0.006 0.005,-0.013 0.005,-0.021 0,-0.007 -0.002,-0.014 -0.005,-0.02 C 0.68,-0.536 0.676,-0.541 0.671,-0.546 0.666,-0.551 0.661,-0.555 0.654,-0.557 0.648,-0.56 0.641,-0.562 0.634,-0.562 H 0.472 Z"
         style="fill-rule:nonzero"
         id="path1478" /><path
         d="m 0.792,-0.737 c 0.01,0 0.02,0.002 0.028,0.008 0.008,0.005 0.014,0.012 0.019,0.021 L 1.154,-0.081 0.877,0.057 0.759,-0.176 H 0.687 c -0.013,0 -0.023,-0.003 -0.032,-0.01 l -0.267,-0.2 H 0.283 C 0.275,-0.386 0.268,-0.388 0.262,-0.39 0.256,-0.393 0.25,-0.397 0.246,-0.402 0.241,-0.407 0.237,-0.412 0.235,-0.419 0.232,-0.425 0.23,-0.432 0.23,-0.439 c 0,-0.007 0.002,-0.014 0.005,-0.02 0.002,-0.007 0.006,-0.012 0.011,-0.017 0.005,-0.005 0.01,-0.008 0.016,-0.011 0.007,-0.003 0.014,-0.004 0.021,-0.004 h 0.159 c 0.007,0 0.014,0.002 0.02,0.007 l 0.098,0.073 c 0.01,0.008 0.022,0.015 0.035,0.019 0.012,0.004 0.025,0.006 0.039,0.006 0.017,0 0.033,-0.003 0.048,-0.01 0.015,-0.006 0.028,-0.015 0.039,-0.026 0.011,-0.011 0.02,-0.024 0.026,-0.039 0.007,-0.015 0.01,-0.031 0.01,-0.048 0,-0.017 -0.003,-0.033 -0.01,-0.048 C 0.741,-0.572 0.732,-0.585 0.721,-0.596 0.71,-0.607 0.697,-0.616 0.682,-0.622 0.667,-0.629 0.651,-0.632 0.634,-0.632 H 0.459 c -0.002,0 -0.007,0.002 -0.016,0.007 -0.009,0.004 -0.02,0.01 -0.033,0.016 -0.013,0.007 -0.026,0.014 -0.041,0.022 -0.014,0.008 -0.028,0.016 -0.041,0.023 -0.013,0.008 -0.024,0.014 -0.035,0.02 -0.01,0.006 -0.016,0.009 -0.02,0.011 -0.008,0.005 -0.016,0.007 -0.025,0.007 -0.007,0 -0.014,-0.002 -0.021,-0.005 C 0.221,-0.533 0.215,-0.537 0.211,-0.542 0.206,-0.546 0.202,-0.552 0.199,-0.558 0.197,-0.565 0.195,-0.572 0.195,-0.579 c 0,-0.01 0.003,-0.019 0.008,-0.027 0.005,-0.009 0.011,-0.015 0.02,-0.019 L 0.4,-0.722 c 0.018,-0.01 0.038,-0.015 0.059,-0.015 z"
         style="fill:#ffc83d;fill-rule:nonzero"
         id="path1480" /></g></g></svg>
