<?xml version="1.0" encoding="UTF-8" standalone="no"?>
<svg
   width="13.695"
   height="16.844999"
   viewBox="0 0 13.695 16.844999"
   version="1.1"
   xml:space="preserve"
   style="clip-rule:evenodd;fill-rule:evenodd;stroke-linejoin:round;stroke-miterlimit:2"
   id="svg20568"
   sodipodi:docname="emojis.svg"
   xmlns:inkscape="http://www.inkscape.org/namespaces/inkscape"
   xmlns:sodipodi="http://sodipodi.sourceforge.net/DTD/sodipodi-0.dtd"
   xmlns="http://www.w3.org/2000/svg"
   xmlns:svg="http://www.w3.org/2000/svg"><defs
     id="defs20572" /><sodipodi:namedview
     id="namedview20570"
     pagecolor="#505050"
     bordercolor="#eeeeee"
     borderopacity="1"
     inkscape:pageshadow="0"
     inkscape:pageopacity="0"
     inkscape:pagecheckerboard="0" /><g
     transform="matrix(0.24,0,0,0.24,-205.35708,-766.3674)"
     id="g20566"><g
       transform="matrix(62.5,0,0,62.5,847.842,3250.26)"
       id="g14956"><path
         d="M 0.579,0.21 C 0.494,0.21 0.416,0.195 0.344,0.165 0.271,0.134 0.207,0.088 0.149,0.024 L 0.143,0.017 C 0.137,0.01 0.132,0.001 0.129,-0.008 0.126,-0.017 0.125,-0.026 0.125,-0.035 0.125,-0.044 0.126,-0.052 0.129,-0.06 0.132,-0.068 0.136,-0.076 0.14,-0.083 L 0.406,-0.511 V -0.545 C 0.396,-0.563 0.387,-0.581 0.379,-0.599 0.37,-0.617 0.363,-0.636 0.356,-0.654 0.35,-0.673 0.345,-0.692 0.341,-0.711 0.337,-0.731 0.335,-0.751 0.335,-0.772 V -0.913 H 0.49 l 0.058,0.151 c 0.002,0.007 0.007,0.013 0.013,0.018 0.005,0.004 0.012,0.007 0.02,0.007 0.008,0 0.014,-0.002 0.02,-0.006 0.006,-0.004 0.01,-0.01 0.013,-0.017 l 0.06,-0.153 h 0.153 v 0.141 c 0,0.021 -0.002,0.041 -0.006,0.061 -0.004,0.019 -0.009,0.038 -0.016,0.057 -0.006,0.018 -0.013,0.036 -0.022,0.054 -0.008,0.018 -0.017,0.037 -0.026,0.055 v 0.034 l 0.265,0.428 c 0.005,0.007 0.009,0.015 0.011,0.023 0.003,0.008 0.005,0.016 0.005,0.025 0,0.012 -0.003,0.023 -0.007,0.033 C 1.026,0.008 1.019,0.018 1.011,0.027 0.984,0.058 0.954,0.085 0.92,0.108 0.887,0.131 0.852,0.15 0.815,0.165 0.778,0.18 0.74,0.192 0.7,0.199 0.66,0.207 0.62,0.21 0.579,0.21 Z"
         style="fill-rule:nonzero"
         id="path14948" /><path
         d="m 0.687,-0.491 0.277,0.446 c 0.002,0.003 0.003,0.007 0.003,0.01 0,0.002 -0.001,0.006 -0.005,0.011 -0.003,0.005 -0.008,0.01 -0.013,0.015 C 0.944,-0.003 0.938,0.003 0.931,0.009 0.925,0.015 0.918,0.02 0.912,0.026 0.906,0.031 0.9,0.036 0.895,0.04 0.89,0.043 0.886,0.046 0.883,0.048 0.876,0.052 0.868,0.055 0.861,0.057 0.853,0.058 0.846,0.059 0.838,0.06 0.831,0.061 0.823,0.062 0.816,0.063 0.808,0.064 0.801,0.066 0.794,0.069 0.787,0.073 0.781,0.077 0.776,0.082 0.771,0.087 0.766,0.092 0.76,0.097 0.755,0.102 0.75,0.107 0.744,0.111 0.738,0.116 0.731,0.12 0.722,0.123 0.712,0.126 0.702,0.129 0.691,0.131 0.68,0.133 0.669,0.134 0.658,0.134 0.651,0.134 0.645,0.133 0.638,0.132 L 0.599,0.122 C 0.593,0.12 0.586,0.119 0.579,0.119 0.573,0.119 0.566,0.12 0.56,0.122 L 0.522,0.132 C 0.516,0.134 0.509,0.135 0.503,0.135 0.493,0.135 0.482,0.134 0.471,0.131 0.46,0.129 0.45,0.126 0.44,0.123 0.431,0.12 0.422,0.116 0.415,0.111 0.408,0.106 0.401,0.101 0.395,0.095 0.388,0.089 0.382,0.084 0.376,0.078 0.369,0.073 0.362,0.068 0.354,0.064 0.348,0.062 0.342,0.06 0.335,0.059 0.329,0.058 0.323,0.058 0.317,0.058 0.311,0.057 0.304,0.057 0.298,0.055 0.292,0.054 0.285,0.052 0.279,0.048 0.277,0.047 0.273,0.044 0.268,0.04 0.262,0.036 0.257,0.032 0.25,0.026 0.244,0.021 0.238,0.016 0.231,0.01 0.225,0.003 0.219,-0.002 0.214,-0.008 0.208,-0.014 0.204,-0.019 0.2,-0.024 0.197,-0.029 0.195,-0.033 0.195,-0.035 c 0,-0.003 0.001,-0.007 0.004,-0.01 L 0.476,-0.491 H 0.484 V -0.562 H 0.476 L 0.468,-0.579 C 0.46,-0.594 0.452,-0.609 0.445,-0.625 0.437,-0.64 0.431,-0.656 0.425,-0.672 0.419,-0.687 0.415,-0.704 0.411,-0.72 0.408,-0.737 0.406,-0.754 0.406,-0.772 v -0.07 h 0.036 l 0.04,0.105 c 0.009,0.021 0.021,0.038 0.039,0.051 0.017,0.013 0.037,0.019 0.06,0.019 0.023,0 0.044,-0.006 0.061,-0.019 0.017,-0.012 0.029,-0.029 0.038,-0.051 l 0.042,-0.105 h 0.035 v 0.07 c 0,0.018 -0.002,0.035 -0.006,0.052 -0.003,0.016 -0.008,0.033 -0.013,0.048 -0.006,0.016 -0.013,0.032 -0.02,0.047 -0.008,0.016 -0.015,0.031 -0.023,0.046 L 0.687,-0.562 H 0.678 v 0.071 z"
         style="fill:#f03a17;fill-rule:nonzero"
         id="path14950" /><path
         d="m 0.423,-0.21 c 0.005,0 0.009,0.001 0.013,0.005 0.003,0.003 0.005,0.007 0.005,0.012 V 0.124 C 0.412,0.116 0.383,0.106 0.356,0.093 0.329,0.081 0.303,0.065 0.278,0.048 l 0.13,-0.249 C 0.411,-0.207 0.416,-0.21 0.423,-0.21 Z m 0.316,0 c 0.007,0 0.013,0.003 0.016,0.009 L 0.884,0.047 C 0.859,0.065 0.834,0.08 0.806,0.093 0.779,0.105 0.751,0.115 0.722,0.123 v -0.316 c 0,-0.005 0.001,-0.009 0.005,-0.012 0.004,-0.004 0.008,-0.005 0.012,-0.005 z m -0.158,0 c 0.004,0 0.008,0.001 0.011,0.003 0.003,0.003 0.005,0.006 0.006,0.01 l 0.07,0.33 C 0.653,0.136 0.639,0.138 0.624,0.139 0.609,0.14 0.594,0.14 0.579,0.14 0.55,0.14 0.522,0.138 0.495,0.134 L 0.564,-0.197 C 0.565,-0.201 0.567,-0.204 0.57,-0.207 0.574,-0.209 0.577,-0.21 0.581,-0.21 Z"
         style="fill:#af0d1a;fill-rule:nonzero"
         id="path14952" /><rect
         x="0.47600001"
         y="-0.56199998"
         width="0.20999999"
         height="0.07"
         style="fill:#ffc83d;fill-rule:nonzero"
         id="rect14954" /></g></g></svg>
