<?xml version="1.0" encoding="UTF-8" standalone="no"?>
<svg
   width="16.844999"
   height="11.58"
   viewBox="0 0 16.844999 11.58"
   version="1.1"
   xml:space="preserve"
   style="clip-rule:evenodd;fill-rule:evenodd;stroke-linejoin:round;stroke-miterlimit:2"
   id="svg20568"
   sodipodi:docname="emojis.svg"
   xmlns:inkscape="http://www.inkscape.org/namespaces/inkscape"
   xmlns:sodipodi="http://sodipodi.sourceforge.net/DTD/sodipodi-0.dtd"
   xmlns="http://www.w3.org/2000/svg"
   xmlns:svg="http://www.w3.org/2000/svg"><defs
     id="defs20572" /><sodipodi:namedview
     id="namedview20570"
     pagecolor="#505050"
     bordercolor="#eeeeee"
     borderopacity="1"
     inkscape:pageshadow="0"
     inkscape:pageopacity="0"
     inkscape:pagecheckerboard="0" /><g
     transform="matrix(0.24,0,0,0.24,-270.9006,-771.6324)"
     id="g20566"><g
       transform="matrix(62.5,0,0,62.5,1120.94,3250.26)"
       id="g14994"><path
         d="M 0.48,0.21 0.469,0.154 C 0.461,0.118 0.449,0.083 0.432,0.052 0.415,0.02 0.394,-0.008 0.369,-0.033 0.344,-0.057 0.316,-0.078 0.284,-0.096 0.252,-0.113 0.218,-0.125 0.181,-0.133 L 0.125,-0.145 v -0.417 h 1.123 v 0.417 L 1.192,-0.133 C 1.155,-0.126 1.121,-0.114 1.089,-0.096 1.058,-0.079 1.03,-0.058 1.005,-0.033 0.98,-0.009 0.959,0.02 0.942,0.052 0.925,0.083 0.912,0.118 0.904,0.154 L 0.893,0.21 Z"
         style="fill-rule:nonzero"
         id="path14988" /><path
         d="m 0.523,-0.445 c 0.016,-0.001 0.03,-0.002 0.043,-0.003 0.013,-0.002 0.026,-0.003 0.038,-0.004 0.013,-0.002 0.026,-0.003 0.039,-0.003 0.013,-0.001 0.028,-0.002 0.044,-0.002 0.015,0 0.03,0.001 0.043,0.002 0.013,0 0.026,0.001 0.039,0.003 0.012,0.001 0.025,0.002 0.038,0.004 0.013,0.001 0.027,0.002 0.043,0.003 l 0.328,0.024 v 0.183 C 1.085,-0.207 1.007,-0.16 0.943,-0.095 0.878,-0.031 0.831,0.048 0.8,0.14 H 0.573 C 0.559,0.095 0.539,0.053 0.515,0.013 0.491,-0.027 0.462,-0.063 0.43,-0.095 0.398,-0.127 0.362,-0.156 0.323,-0.18 0.283,-0.204 0.241,-0.223 0.195,-0.238 v -0.183 z"
         style="fill:#3a96dd;fill-rule:nonzero"
         id="path14990" /><path
         d="M 1.178,-0.421 H 0.195 v -0.07 h 0.983 z m -0.983,0.219 v -0.036 c 0.048,0.009 0.093,0.025 0.135,0.048 0.042,0.022 0.08,0.05 0.113,0.083 0.033,0.033 0.06,0.07 0.083,0.112 0.022,0.042 0.038,0.087 0.047,0.135 H 0.537 C 0.528,0.097 0.514,0.057 0.493,0.019 0.473,-0.018 0.447,-0.052 0.417,-0.082 0.388,-0.112 0.354,-0.137 0.316,-0.158 0.279,-0.178 0.238,-0.193 0.195,-0.202 Z m 0.983,0 V -0.238 C 1.13,-0.229 1.085,-0.213 1.043,-0.19 1.001,-0.168 0.963,-0.14 0.93,-0.107 0.897,-0.074 0.87,-0.037 0.847,0.005 0.825,0.047 0.809,0.092 0.8,0.14 H 0.836 C 0.845,0.097 0.859,0.057 0.88,0.019 0.9,-0.018 0.926,-0.052 0.956,-0.082 c 0.03,-0.03 0.063,-0.055 0.101,-0.076 0.037,-0.02 0.078,-0.035 0.121,-0.044 z"
         style="fill:#83beec;fill-rule:nonzero"
         id="path14992" /></g></g></svg>
