<?xml version="1.0" encoding="UTF-8" standalone="no"?>
<svg
   width="10.53"
   height="16.305"
   viewBox="0 0 10.53 16.305"
   version="1.1"
   xml:space="preserve"
   style="clip-rule:evenodd;fill-rule:evenodd;stroke-linejoin:round;stroke-miterlimit:2"
   id="svg20568"
   sodipodi:docname="emojis.svg"
   xmlns:inkscape="http://www.inkscape.org/namespaces/inkscape"
   xmlns:sodipodi="http://sodipodi.sourceforge.net/DTD/sodipodi-0.dtd"
   xmlns="http://www.w3.org/2000/svg"
   xmlns:svg="http://www.w3.org/2000/svg"><defs
     id="defs20572" /><sodipodi:namedview
     id="namedview20570"
     pagecolor="#505050"
     bordercolor="#eeeeee"
     borderopacity="1"
     inkscape:pageshadow="0"
     inkscape:pageopacity="0"
     inkscape:pagecheckerboard="0" /><g
     transform="matrix(0.24,0,0,0.24,-276.8334,-128.22924)"
     id="g20566"><g
       transform="matrix(62.5,0,0,62.5,1145.66,589.101)"
       id="g1498"><path
         d="m 0.827,-0.316 v 0.193 c 0,0.031 -0.004,0.061 -0.012,0.089 C 0.807,-0.006 0.795,0.021 0.781,0.045 0.767,0.07 0.749,0.093 0.729,0.113 0.709,0.133 0.686,0.15 0.662,0.165 0.637,0.179 0.61,0.191 0.582,0.198 0.554,0.206 0.524,0.21 0.494,0.21 0.463,0.21 0.434,0.206 0.405,0.198 0.377,0.191 0.35,0.179 0.325,0.165 0.3,0.15 0.278,0.133 0.258,0.113 0.238,0.093 0.22,0.07 0.206,0.045 0.191,0.021 0.18,-0.006 0.172,-0.034 0.164,-0.063 0.16,-0.092 0.16,-0.123 v -0.215 c 0,-0.035 0.005,-0.07 0.013,-0.102 0.009,-0.033 0.021,-0.066 0.037,-0.097 L 0.136,-0.705 C 0.129,-0.721 0.125,-0.738 0.125,-0.754 c 0,-0.017 0.003,-0.033 0.01,-0.048 0.006,-0.015 0.015,-0.028 0.026,-0.039 0.011,-0.011 0.024,-0.02 0.039,-0.027 0.015,-0.006 0.031,-0.009 0.048,-0.009 0.022,0 0.042,0.005 0.06,0.016 0.019,0.01 0.034,0.025 0.045,0.044 0.011,-0.019 0.026,-0.034 0.045,-0.044 0.019,-0.011 0.039,-0.016 0.06,-0.016 0.017,0 0.033,0.003 0.048,0.009 0.015,0.007 0.028,0.016 0.039,0.027 0.011,0.011 0.02,0.024 0.027,0.039 0.006,0.014 0.01,0.03 0.01,0.047 0,0.009 -0.001,0.017 -0.003,0.024 -0.002,0.008 -0.004,0.016 -0.007,0.023 l -0.066,0.182 h 0.04 c 0.012,0 0.024,0.001 0.036,0.005 0.012,0.003 0.023,0.007 0.034,0.014 0.011,0.006 0.02,0.013 0.029,0.022 0.009,0.008 0.016,0.018 0.022,0.028 h 0.02 c 0.019,0 0.037,0.004 0.054,0.011 0.017,0.008 0.032,0.018 0.045,0.03 0.012,0.013 0.022,0.028 0.03,0.045 0.007,0.017 0.011,0.036 0.011,0.055 z"
         style="fill-rule:nonzero"
         id="path1492" /><path
         d="m 0.406,-0.457 0.051,-0.014 0.037,0.014 h 0.052 c 0.01,0 0.019,0.002 0.028,0.006 0.008,0.004 0.016,0.009 0.022,0.015 0.006,0.007 0.011,0.014 0.015,0.022 0.003,0.009 0.005,0.018 0.005,0.028 l 0.018,0.017 0.017,-0.017 h 0.036 c 0.009,0 0.018,0.002 0.027,0.005 0.008,0.004 0.016,0.009 0.022,0.016 0.006,0.006 0.011,0.013 0.015,0.022 0.004,0.008 0.006,0.017 0.006,0.027 v 0.192 c 0,0.036 -0.007,0.07 -0.021,0.102 C 0.722,0.01 0.703,0.038 0.68,0.062 0.656,0.086 0.628,0.105 0.596,0.119 0.564,0.133 0.53,0.14 0.494,0.14 0.457,0.14 0.423,0.133 0.391,0.119 0.359,0.106 0.331,0.087 0.308,0.063 0.284,0.039 0.265,0.011 0.251,-0.021 0.237,-0.052 0.23,-0.087 0.23,-0.123 V -0.144 L 0.249,-0.187 0.23,-0.21 v -0.128 c 0,-0.019 0.002,-0.037 0.005,-0.053 0.002,-0.017 0.006,-0.033 0.012,-0.049 0.005,-0.016 0.011,-0.032 0.018,-0.047 0.006,-0.016 0.014,-0.032 0.023,-0.048 L 0.287,-0.548 c 0,-0.011 0.001,-0.023 0.003,-0.034 0.002,-0.011 0.005,-0.022 0.01,-0.032 0.004,-0.01 0.011,-0.018 0.019,-0.026 0.008,-0.007 0.018,-0.013 0.03,-0.016 l 0.061,-0.12 c 0.005,-0.01 0.012,-0.017 0.02,-0.023 0.008,-0.005 0.017,-0.008 0.028,-0.008 0.008,0 0.014,0.001 0.021,0.004 0.006,0.003 0.012,0.007 0.017,0.011 0.004,0.005 0.008,0.011 0.011,0.017 0.003,0.006 0.004,0.013 0.004,0.02 0,0.005 0,0.009 -0.001,0.011 -0.001,0.003 -0.002,0.006 -0.004,0.011 z"
         style="fill:#ffc83d;fill-rule:nonzero"
         id="path1494" /><path
         d="m 0.456,-0.244 c 0.017,0.002 0.034,0.007 0.049,0.015 0.016,0.008 0.029,0.018 0.04,0.03 0.011,0.013 0.02,0.027 0.027,0.043 0.006,0.016 0.009,0.033 0.009,0.051 v 0.011 c 0,0.006 -0.001,0.012 -0.003,0.017 C 0.576,-0.073 0.571,-0.07 0.563,-0.07 0.559,-0.07 0.555,-0.072 0.552,-0.074 0.55,-0.076 0.548,-0.079 0.547,-0.083 0.546,-0.086 0.546,-0.09 0.546,-0.094 c 0,-0.004 0,-0.008 0,-0.011 0,-0.015 -0.002,-0.029 -0.008,-0.041 C 0.533,-0.159 0.525,-0.17 0.515,-0.18 0.506,-0.189 0.495,-0.197 0.482,-0.202 0.469,-0.208 0.456,-0.21 0.441,-0.21 H 0.423 C 0.419,-0.211 0.415,-0.213 0.411,-0.216 0.408,-0.219 0.406,-0.223 0.406,-0.228 c 0,-0.004 10e-4,-0.007 0.003,-0.01 l 0.092,-0.137 c 0.007,-0.009 0.01,-0.019 0.01,-0.029 0,-0.007 -0.002,-0.014 -0.004,-0.021 C 0.504,-0.431 0.5,-0.436 0.495,-0.441 0.49,-0.445 0.485,-0.449 0.478,-0.452 0.472,-0.455 0.465,-0.456 0.458,-0.456 c -0.009,0 -0.017,0.002 -0.025,0.006 -0.007,0.004 -0.014,0.009 -0.018,0.017 L 0.23,-0.144 V -0.21 l 0.155,-0.243 c 0.008,-0.012 0.019,-0.022 0.032,-0.028 0.013,-0.007 0.026,-0.011 0.041,-0.011 0.012,0 0.023,0.003 0.034,0.007 0.011,0.005 0.02,0.011 0.028,0.019 0.008,0.008 0.014,0.018 0.019,0.029 0.004,0.01 0.006,0.022 0.006,0.034 0,0.008 -0.001,0.017 -0.003,0.025 -0.003,0.009 -0.006,0.016 -0.011,0.024 z M 0.349,-0.656 0.288,-0.535 0.2,-0.733 C 0.197,-0.74 0.195,-0.747 0.195,-0.754 c 0,-0.008 0.002,-0.014 0.004,-0.021 0.003,-0.006 0.007,-0.012 0.012,-0.017 0.005,-0.004 0.01,-0.008 0.017,-0.011 0.006,-0.003 0.013,-0.004 0.02,-0.004 0.01,0 0.02,0.003 0.029,0.008 0.008,0.006 0.015,0.014 0.019,0.023 z m 0.267,0.27 h 0.035 v 0.123 c 0,0.005 -0.001,0.009 -0.005,0.012 -0.003,0.004 -0.007,0.005 -0.012,0.005 -0.005,0 -0.009,-0.001 -0.013,-0.005 C 0.618,-0.254 0.616,-0.258 0.616,-0.263 Z"
         style="fill:#d48c00;fill-rule:nonzero"
         id="path1496" /></g></g></svg>
