<?xml version="1.0" encoding="UTF-8" standalone="no"?>
<svg
   width="15.795"
   height="16.844999"
   viewBox="0 0 15.795 16.844999"
   version="1.1"
   xml:space="preserve"
   style="clip-rule:evenodd;fill-rule:evenodd;stroke-linejoin:round;stroke-miterlimit:2"
   id="svg20568"
   sodipodi:docname="emojis.svg"
   xmlns:inkscape="http://www.inkscape.org/namespaces/inkscape"
   xmlns:sodipodi="http://sodipodi.sourceforge.net/DTD/sodipodi-0.dtd"
   xmlns="http://www.w3.org/2000/svg"
   xmlns:svg="http://www.w3.org/2000/svg"><defs
     id="defs20572" /><sodipodi:namedview
     id="namedview20570"
     pagecolor="#505050"
     bordercolor="#eeeeee"
     borderopacity="1"
     inkscape:pageshadow="0"
     inkscape:pageopacity="0"
     inkscape:pagecheckerboard="0" /><g
     transform="matrix(0.24,0,0,0.24,-129.1266,-766.3674)"
     id="g20566"><g
       transform="matrix(62.5,0,0,62.5,530.215,3250.26)"
       id="g14908"><path
         d="M 0.546,0.21 V 0 H 0.3 C 0.276,0 0.253,-0.005 0.232,-0.014 0.211,-0.023 0.192,-0.036 0.176,-0.052 0.16,-0.068 0.148,-0.086 0.139,-0.108 0.13,-0.129 0.125,-0.152 0.125,-0.176 V -0.772 H 0.339 C 0.343,-0.792 0.351,-0.811 0.361,-0.828 0.372,-0.845 0.385,-0.86 0.4,-0.873 0.415,-0.885 0.432,-0.895 0.451,-0.902 0.47,-0.909 0.49,-0.913 0.511,-0.913 h 0.491 c 0.025,0 0.047,0.005 0.069,0.014 0.021,0.01 0.039,0.022 0.055,0.038 0.016,0.016 0.029,0.034 0.038,0.056 0.009,0.021 0.014,0.044 0.014,0.068 V 0.21 Z"
         style="fill-rule:nonzero"
         id="path14900" /><path
         d="m 0.511,-0.842 c 0.008,0 0.018,0.001 0.028,0.002 0.011,0.002 0.022,0.004 0.033,0.006 l 0.061,0.013 0.08,0.751 H 0.3 l 0.106,-0.632 c 0,-0.002 0,-0.004 0,-0.006 v -0.029 c 0,-0.015 0.003,-0.029 0.008,-0.041 C 0.42,-0.791 0.427,-0.802 0.437,-0.812 0.446,-0.821 0.458,-0.828 0.47,-0.834 0.483,-0.84 0.497,-0.842 0.511,-0.842 Z"
         style="fill:#0078d7;fill-rule:nonzero"
         id="path14902" /><path
         d="m 0.406,-0.176 c 0,0.015 -0.003,0.029 -0.009,0.041 -0.005,0.013 -0.013,0.024 -0.022,0.034 -0.01,0.009 -0.021,0.017 -0.034,0.022 C 0.329,-0.073 0.315,-0.07 0.3,-0.07 0.286,-0.07 0.272,-0.073 0.259,-0.079 0.247,-0.084 0.236,-0.092 0.226,-0.101 0.217,-0.111 0.209,-0.122 0.204,-0.135 0.198,-0.147 0.195,-0.161 0.195,-0.176 l 0.046,-0.07 -0.046,-0.07 V -0.457 L 0.247,-0.526 0.195,-0.597 v -0.105 h 0.211 v 0.105 l -0.06,0.071 0.06,0.069 z m 0.596,-0.666 c 0.015,0 0.029,0.002 0.041,0.008 0.013,0.006 0.024,0.013 0.034,0.022 0.009,0.01 0.017,0.021 0.022,0.034 0.006,0.012 0.008,0.026 0.008,0.041 l -0.068,0.07 0.068,0.07 v 0.14 l -0.105,0.071 0.105,0.07 v 0.14 l -0.059,0.071 0.059,0.07 v 0.07 L 1.073,0.074 1.038,0.035 H 1.002 L 0.967,0.074 0.932,0.035 H 0.897 L 0.862,0.074 0.827,0.035 H 0.792 L 0.757,0.074 0.722,0.035 H 0.687 L 0.651,0.074 0.616,0.035 v -0.07 l 0.09,-0.07 -0.09,-0.071 v -0.14 l 0.035,-0.07 -0.035,-0.071 v -0.14 l 0.061,-0.07 -0.061,-0.07 C 0.616,-0.752 0.613,-0.766 0.608,-0.778 0.602,-0.791 0.595,-0.802 0.585,-0.812 0.576,-0.821 0.565,-0.828 0.552,-0.834 0.54,-0.84 0.526,-0.842 0.511,-0.842 Z"
         style="fill:#b3dbf2;fill-rule:nonzero"
         id="path14904" /><path
         d="m 0.406,-0.316 v 0.14 H 0.195 v -0.14 z m 0,-0.281 v 0.14 H 0.195 v -0.14 z m 0.701,0.421 v 0.141 H 0.616 v -0.141 z m 0,-0.281 v 0.141 H 0.616 v -0.141 z m 0,-0.28 v 0.14 H 0.616 v -0.14 z M 0.687,0.035 V 0.14 H 0.616 V 0.035 Z m 0.105,0 V 0.14 H 0.722 V 0.035 Z m 0.105,0 V 0.14 H 0.827 V 0.035 Z m 0.105,0 V 0.14 H 0.932 V 0.035 Z m 0.105,0 V 0.14 H 1.038 V 0.035 Z"
         style="fill:#3a96dd;fill-rule:nonzero"
         id="path14906" /></g></g></svg>
