<?xml version="1.0" encoding="UTF-8" standalone="no"?>
<svg
   width="16.844999"
   height="16.844999"
   viewBox="0 0 16.844999 16.844999"
   version="1.1"
   xml:space="preserve"
   style="clip-rule:evenodd;fill-rule:evenodd;stroke-linejoin:round;stroke-miterlimit:2"
   id="svg20568"
   sodipodi:docname="emojis.svg"
   xmlns:inkscape="http://www.inkscape.org/namespaces/inkscape"
   xmlns:sodipodi="http://sodipodi.sourceforge.net/DTD/sodipodi-0.dtd"
   xmlns="http://www.w3.org/2000/svg"
   xmlns:svg="http://www.w3.org/2000/svg"><defs
     id="defs20572" /><sodipodi:namedview
     id="namedview20570"
     pagecolor="#505050"
     bordercolor="#eeeeee"
     borderopacity="1"
     inkscape:pageshadow="0"
     inkscape:pageopacity="0"
     inkscape:pagecheckerboard="0" /><g
     transform="matrix(0.24,0,0,0.24,-410.8758,-766.3674)"
     id="g20566"><g
       transform="matrix(62.5,0,0,62.5,1704.17,3250.26)"
       id="g15062"><path
         d="m 1.159,-0.54 c 0.013,0 0.024,0.003 0.035,0.007 0.011,0.005 0.02,0.011 0.028,0.019 0.008,0.008 0.015,0.018 0.019,0.029 0.005,0.01 0.007,0.022 0.007,0.034 V 0.21 H 0.125 v -0.93 c 0,-0.012 0.002,-0.023 0.007,-0.034 0.004,-0.01 0.011,-0.02 0.019,-0.027 0.008,-0.008 0.017,-0.015 0.028,-0.019 0.01,-0.005 0.022,-0.007 0.034,-0.007 0.008,0 0.016,0.001 0.023,0.003 0.006,0.002 0.013,0.004 0.018,0.008 0.006,0.003 0.012,0.007 0.017,0.012 0.006,0.005 0.011,0.01 0.017,0.015 0.01,-0.021 0.023,-0.041 0.039,-0.059 0.016,-0.018 0.033,-0.033 0.053,-0.045 0.02,-0.013 0.041,-0.023 0.064,-0.029 0.022,-0.007 0.046,-0.011 0.07,-0.011 0.026,0 0.052,0.004 0.076,0.013 0.025,0.008 0.047,0.019 0.067,0.034 0.02,0.014 0.038,0.032 0.053,0.053 0.015,0.021 0.026,0.044 0.035,0.069 0.003,-0.004 0.007,-0.008 0.012,-0.012 0.005,-0.003 0.011,-0.006 0.016,-0.008 0.006,-0.003 0.012,-0.005 0.019,-0.006 0.006,-0.001 0.012,-0.002 0.017,-0.002 0.012,0 0.024,0.002 0.034,0.007 0.011,0.004 0.02,0.011 0.028,0.018 0.008,0.008 0.015,0.018 0.019,0.028 0.005,0.011 0.007,0.022 0.007,0.034 v 0.227 c 0.011,-0.005 0.023,-0.007 0.036,-0.007 0.016,0 0.029,0.003 0.04,0.009 0.011,0.007 0.022,0.016 0.032,0.027 L 1.098,-0.516 C 1.115,-0.532 1.135,-0.54 1.159,-0.54 Z"
         style="fill-rule:nonzero"
         id="path15050" /><path
         d="m 0.346,-0.614 0.099,-0.117 c 0.004,-0.004 0.008,-0.006 0.013,-0.006 0.006,0 0.01,0.002 0.014,0.006 l 0.113,0.134 -0.013,0.024 H 0.21 L 0.195,-0.597 V -0.72 c 0,-0.005 0.002,-0.009 0.006,-0.012 0.003,-0.004 0.007,-0.005 0.012,-0.005 0.005,0 0.009,0.002 0.013,0.006 z m 0.813,0.145 c 0.005,0 0.01,10e-4 0.013,0.005 0.004,0.003 0.006,0.008 0.006,0.013 v 0.17 C 1.173,-0.277 1.167,-0.273 1.158,-0.27 1.15,-0.267 1.141,-0.265 1.13,-0.262 1.12,-0.26 1.109,-0.259 1.097,-0.257 c -0.011,0.001 -0.022,0.002 -0.033,0.003 -0.011,0 -0.021,0.001 -0.031,0.001 -0.009,0 -0.017,0.001 -0.024,0.001 -0.011,0 -0.025,-0.001 -0.042,-0.001 C 0.95,-0.254 0.933,-0.255 0.915,-0.258 0.897,-0.26 0.881,-0.263 0.865,-0.266 0.849,-0.27 0.836,-0.275 0.827,-0.281 l 0.091,-0.108 c 0.004,-0.004 0.009,-0.006 0.015,-0.006 0.006,0 0.011,0.002 0.014,0.006 l 0.055,0.073 0.144,-0.148 C 1.149,-0.468 1.153,-0.469 1.159,-0.469 Z M 0.827,-0.685 v 0.088 c -0.004,0.004 -0.008,0.007 -0.014,0.01 -0.006,0.003 -0.011,0.005 -0.018,0.006 -0.006,0.002 -0.012,0.003 -0.018,0.004 -0.006,0.001 -0.012,0.001 -0.017,0.001 -0.005,0 -0.011,0 -0.017,-0.001 C 0.737,-0.578 0.731,-0.579 0.726,-0.58 0.72,-0.582 0.714,-0.584 0.709,-0.586 0.704,-0.589 0.7,-0.592 0.697,-0.597 l 0.1,-0.1 C 0.8,-0.7 0.805,-0.702 0.81,-0.702 c 0.004,0 0.008,0.002 0.012,0.005 0.003,0.004 0.005,0.008 0.005,0.012 z"
         style="fill:#e5e5e5;fill-rule:nonzero"
         id="path15052" /><rect
         x="0.19499999"
         y="-0.597"
         width="0.63099998"
         height="0.73699999"
         style="fill:#886ce4;fill-rule:nonzero"
         id="rect15054" /><rect
         x="0.616"
         y="-0.28099999"
         width="0.56199998"
         height="0.421"
         style="fill:#00b294;fill-rule:nonzero"
         id="rect15056" /><path
         d="M 0.616,0 V -0.07 H 1.178 V 0 Z m 0,0.14 V 0.07 h 0.562 v 0.07 z m 0,-0.35 h 0.562 v 0.069 H 0.616 Z"
         style="fill:#00cea6;fill-rule:nonzero"
         id="path15058" /><path
         d="m 0.514,-0.842 c 0.024,0 0.047,0.004 0.069,0.014 0.021,0.009 0.039,0.022 0.054,0.037 0.016,0.016 0.028,0.035 0.036,0.057 0.009,0.021 0.014,0.044 0.014,0.068 v 0.157 c 0,0.005 -0.002,0.009 -0.006,0.012 -0.003,0.004 -0.007,0.006 -0.012,0.006 -0.005,0 -0.009,-0.002 -0.012,-0.006 C 0.653,-0.5 0.651,-0.504 0.651,-0.509 v -0.157 c 0,-0.019 -0.003,-0.037 -0.01,-0.055 C 0.634,-0.738 0.625,-0.753 0.613,-0.766 0.6,-0.779 0.586,-0.789 0.569,-0.796 0.552,-0.803 0.534,-0.807 0.514,-0.807 c -0.02,0 -0.038,0.004 -0.056,0.011 -0.017,0.008 -0.032,0.018 -0.045,0.031 -0.013,0.013 -0.024,0.028 -0.031,0.046 -0.008,0.017 -0.011,0.035 -0.011,0.055 v 0.155 c 0,0.005 -0.002,0.009 -0.006,0.012 -0.003,0.004 -0.007,0.006 -0.012,0.006 -0.005,0 -0.009,-0.002 -0.012,-0.006 C 0.337,-0.5 0.335,-0.504 0.335,-0.509 v -0.155 c 0,-0.024 0.005,-0.048 0.015,-0.069 0.009,-0.022 0.022,-0.041 0.038,-0.057 0.016,-0.016 0.035,-0.029 0.057,-0.038 0.021,-0.01 0.044,-0.014 0.069,-0.014 z m 0.541,0.596 c 0.005,0 0.009,0.002 0.013,0.006 0.003,0.003 0.005,0.007 0.005,0.012 v 0.085 c 0,0.025 -0.005,0.048 -0.014,0.07 -0.01,0.021 -0.023,0.04 -0.039,0.056 C 1.004,-0.001 0.985,0.012 0.964,0.021 0.942,0.031 0.919,0.035 0.894,0.035 0.869,0.035 0.846,0.031 0.825,0.021 0.804,0.012 0.786,-0.001 0.771,-0.017 0.755,-0.033 0.743,-0.052 0.735,-0.073 0.726,-0.095 0.722,-0.118 0.722,-0.142 v -0.086 c 0,-0.005 0.001,-0.009 0.005,-0.012 0.003,-0.004 0.007,-0.006 0.012,-0.006 0.005,0 0.009,0.002 0.013,0.006 0.003,0.003 0.005,0.007 0.005,0.012 v 0.086 c 0,0.019 0.003,0.038 0.01,0.055 0.007,0.017 0.016,0.032 0.029,0.045 0.012,0.013 0.026,0.023 0.043,0.031 C 0.856,-0.004 0.874,0 0.894,0 0.914,0 0.932,-0.004 0.949,-0.011 0.967,-0.019 0.982,-0.029 0.995,-0.042 1.008,-0.055 1.018,-0.07 1.026,-0.088 1.034,-0.105 1.038,-0.124 1.038,-0.143 v -0.085 c 0,-0.005 10e-4,-0.009 0.005,-0.012 0.003,-0.004 0.007,-0.006 0.012,-0.006 z"
         style="fill:#ffb900;fill-rule:nonzero"
         id="path15060" /></g></g></svg>
