<?xml version="1.0" encoding="UTF-8" standalone="no"?>
<svg
   width="16.844999"
   height="10.005"
   viewBox="0 0 16.844999 10.005"
   version="1.1"
   xml:space="preserve"
   style="clip-rule:evenodd;fill-rule:evenodd;stroke-linejoin:round;stroke-miterlimit:2"
   id="svg20568"
   sodipodi:docname="emojis.svg"
   xmlns:inkscape="http://www.inkscape.org/namespaces/inkscape"
   xmlns:sodipodi="http://sodipodi.sourceforge.net/DTD/sodipodi-0.dtd"
   xmlns="http://www.w3.org/2000/svg"
   xmlns:svg="http://www.w3.org/2000/svg"><defs
     id="defs20572" /><sodipodi:namedview
     id="namedview20570"
     pagecolor="#505050"
     bordercolor="#eeeeee"
     borderopacity="1"
     inkscape:pageshadow="0"
     inkscape:pageopacity="0"
     inkscape:pagecheckerboard="0" /><g
     transform="matrix(0.24,0,0,0.24,-452.067,-773.2074)"
     id="g20566"><g
       transform="matrix(62.5,0,0,62.5,1875.8,3250.26)"
       id="g15084"><path
         d="m 0.932,-0.21 h 0.07 c 0.034,0 0.066,0.006 0.096,0.019 0.03,0.013 0.056,0.03 0.078,0.053 0.022,0.022 0.04,0.048 0.053,0.078 0.013,0.029 0.019,0.061 0.019,0.095 V 0.21 H 0.623 L 0.552,0.14 H 0.505 l -0.07,0.07 h -0.31 v -0.42 c 0,-0.019 0.004,-0.037 0.011,-0.054 0.008,-0.017 0.018,-0.032 0.031,-0.045 0.012,-0.013 0.027,-0.023 0.044,-0.031 0.017,-0.007 0.035,-0.011 0.054,-0.011 h 0.226 c 0.007,-0.016 0.016,-0.03 0.027,-0.043 0.011,-0.013 0.023,-0.024 0.037,-0.033 0.015,-0.01 0.03,-0.017 0.046,-0.022 0.016,-0.005 0.033,-0.008 0.05,-0.008 h 0.03 l 0.035,0.036 c 0.001,0 0.003,0 0.006,0 0.014,0 0.028,0.002 0.041,0.008 0.012,0.005 0.023,0.013 0.033,0.023 0.009,0.009 0.017,0.02 0.022,0.033 0.006,0.013 0.009,0.026 0.009,0.041 0.014,0 0.028,0.003 0.041,0.008 0.013,0.006 0.024,0.013 0.033,0.023 0.01,0.009 0.017,0.02 0.023,0.033 0.005,0.013 0.008,0.027 0.008,0.042 z"
         style="fill-rule:nonzero"
         id="path15076" /><path
         d="m 0.554,-0.256 c 0,0.007 -0.002,0.015 -0.006,0.022 -0.004,0.007 -0.009,0.014 -0.015,0.019 -0.006,0.005 -0.012,0.01 -0.02,0.013 -0.008,0.004 -0.015,0.005 -0.023,0.005 H 0.269 L 0.265,-0.281 h 0.281 c 0.005,0.008 0.008,0.016 0.008,0.025 z"
         style="fill:#f7894a;fill-rule:nonzero"
         id="path15078" /><path
         d="m 0.897,-0.141 h 0.105 c 0.025,0 0.047,0.005 0.069,0.014 0.021,0.01 0.039,0.022 0.055,0.038 0.016,0.016 0.029,0.035 0.038,0.056 0.009,0.021 0.014,0.044 0.014,0.068 L 1.152,0.06 H 0.219 L 0.195,0.035 V -0.21 c 0,-0.01 0.002,-0.019 0.006,-0.028 0.003,-0.008 0.008,-0.016 0.015,-0.022 0.006,-0.006 0.013,-0.011 0.022,-0.015 0.008,-0.004 0.017,-0.006 0.027,-0.006 L 0.3,-0.21 h 0.176 c 0.01,0 0.019,-0.002 0.027,-0.006 0.009,-0.004 0.016,-0.009 0.023,-0.015 0.006,-0.007 0.011,-0.014 0.015,-0.022 0.003,-0.009 0.005,-0.018 0.005,-0.028 0,-0.014 0.003,-0.028 0.008,-0.041 0.006,-0.012 0.013,-0.024 0.023,-0.033 0.01,-0.01 0.021,-0.017 0.033,-0.023 0.013,-0.005 0.027,-0.008 0.041,-0.008 z"
         style="fill:#ca5010;fill-rule:nonzero"
         id="path15080" /><path
         d="M 0.195,0.035 H 1.178 V 0.14 H 0.651 L 0.581,0.07 H 0.476 L 0.406,0.14 H 0.195 Z M 0.651,-0.21 C 0.642,-0.21 0.634,-0.214 0.627,-0.221 0.62,-0.228 0.616,-0.236 0.616,-0.246 c 0,-0.009 0.004,-0.018 0.01,-0.025 l 0.071,-0.07 c 0.007,-0.007 0.015,-0.01 0.025,-0.01 0.009,0 0.018,0.003 0.025,0.01 0.006,0.007 0.01,0.015 0.01,0.025 0,0.01 -0.004,0.018 -0.01,0.025 l -0.071,0.07 C 0.669,-0.214 0.661,-0.21 0.651,-0.21 Z m 0.106,0.105 c -0.01,0 -0.018,-0.004 -0.025,-0.011 -0.007,-0.007 -0.01,-0.015 -0.01,-0.025 0,-0.009 0.003,-0.018 0.01,-0.025 l 0.07,-0.069 c 0.007,-0.007 0.015,-0.011 0.025,-0.011 0.009,0 0.018,0.004 0.025,0.011 0.006,0.006 0.01,0.015 0.01,0.025 0,0.009 -0.004,0.017 -0.01,0.024 l -0.07,0.07 c -0.007,0.007 -0.015,0.011 -0.025,0.011 z"
         style="fill:#613d30;fill-rule:nonzero"
         id="path15082" /></g></g></svg>
