<?xml version="1.0" encoding="UTF-8" standalone="no"?>
<svg
   width="16.844999"
   height="16.844999"
   viewBox="0 0 16.844999 16.844999"
   version="1.1"
   xml:space="preserve"
   style="clip-rule:evenodd;fill-rule:evenodd;stroke-linejoin:round;stroke-miterlimit:2"
   id="svg20568"
   sodipodi:docname="emojis.svg"
   xmlns:inkscape="http://www.inkscape.org/namespaces/inkscape"
   xmlns:sodipodi="http://sodipodi.sourceforge.net/DTD/sodipodi-0.dtd"
   xmlns="http://www.w3.org/2000/svg"
   xmlns:svg="http://www.w3.org/2000/svg"><defs
     id="defs20572" /><sodipodi:namedview
     id="namedview20570"
     pagecolor="#505050"
     bordercolor="#eeeeee"
     borderopacity="1"
     inkscape:pageshadow="0"
     inkscape:pageopacity="0"
     inkscape:pagecheckerboard="0" /><g
     transform="matrix(0.24,0,0,0.24,-431.4702,-766.3674)"
     id="g20566"><g
       transform="matrix(62.5,0,0,62.5,1789.98,3250.26)"
       id="g15074"><path
         d="m 1.002,-0.913 c 0.034,0 0.066,0.007 0.096,0.02 0.03,0.013 0.056,0.03 0.078,0.052 0.022,0.023 0.04,0.049 0.053,0.079 0.013,0.029 0.019,0.061 0.019,0.095 v 0.491 c 0,0.028 -0.004,0.054 -0.013,0.079 C 1.226,-0.072 1.214,-0.049 1.199,-0.028 1.183,-0.007 1.164,0.011 1.143,0.026 1.121,0.041 1.097,0.053 1.071,0.061 1.068,0.082 1.061,0.102 1.05,0.12 1.04,0.138 1.027,0.154 1.011,0.168 0.996,0.181 0.979,0.192 0.959,0.199 0.939,0.207 0.919,0.21 0.897,0.21 H 0.476 C 0.454,0.21 0.434,0.207 0.414,0.199 0.395,0.192 0.377,0.181 0.362,0.168 0.346,0.154 0.333,0.138 0.323,0.12 0.312,0.102 0.306,0.082 0.302,0.061 0.276,0.053 0.252,0.041 0.23,0.026 0.209,0.011 0.19,-0.007 0.174,-0.028 0.159,-0.049 0.147,-0.072 0.138,-0.097 0.129,-0.122 0.125,-0.148 0.125,-0.176 v -0.491 c 0,-0.034 0.006,-0.066 0.019,-0.095 0.013,-0.03 0.031,-0.056 0.053,-0.079 0.022,-0.022 0.048,-0.039 0.078,-0.052 0.03,-0.013 0.062,-0.02 0.096,-0.02 0.023,0 0.046,0.004 0.068,0.01 0.023,0.007 0.044,0.017 0.063,0.029 0.02,0.012 0.037,0.027 0.052,0.044 0.016,0.017 0.029,0.037 0.039,0.058 H 0.78 c 0.01,-0.021 0.023,-0.041 0.039,-0.058 0.015,-0.017 0.032,-0.032 0.052,-0.044 0.019,-0.012 0.04,-0.022 0.063,-0.029 0.022,-0.006 0.045,-0.01 0.068,-0.01 z"
         style="fill-rule:nonzero"
         id="path15064" /><path
         d="m 1.002,-0.842 c 0.025,0 0.047,0.004 0.069,0.014 0.021,0.009 0.039,0.021 0.055,0.037 0.016,0.016 0.029,0.035 0.038,0.056 0.009,0.021 0.014,0.044 0.014,0.068 v 0.491 c 0,0.024 -0.005,0.047 -0.014,0.068 -0.009,0.022 -0.022,0.04 -0.038,0.056 C 1.11,-0.036 1.092,-0.023 1.071,-0.014 1.049,-0.005 1.027,0 1.002,0 0.993,-0.005 0.985,-0.013 0.978,-0.022 c -0.007,-0.009 -0.01,-0.02 -0.01,-0.031 0,-0.011 0.003,-0.022 0.01,-0.031 0.007,-0.009 0.015,-0.017 0.024,-0.021 0.011,0 0.02,-0.002 0.029,-0.006 0.008,-0.003 0.016,-0.008 0.022,-0.014 0.006,-0.007 0.011,-0.014 0.015,-0.022 0.003,-0.009 0.005,-0.018 0.005,-0.029 v -0.491 c 0,-0.01 -0.002,-0.019 -0.005,-0.028 C 1.064,-0.704 1.059,-0.711 1.053,-0.718 1.047,-0.724 1.039,-0.729 1.031,-0.732 1.022,-0.736 1.013,-0.737 1.002,-0.737 c -0.01,0 -0.019,0.001 -0.028,0.005 -0.008,0.003 -0.016,0.008 -0.022,0.014 -0.006,0.007 -0.011,0.014 -0.015,0.023 -0.003,0.009 -0.005,0.018 -0.005,0.028 H 0.827 c 0,-0.024 0.004,-0.047 0.014,-0.068 0.009,-0.021 0.021,-0.04 0.037,-0.056 0.016,-0.016 0.035,-0.028 0.056,-0.037 0.022,-0.01 0.044,-0.014 0.068,-0.014 z m -0.631,0 c 0.024,0 0.046,0.004 0.068,0.014 0.021,0.009 0.04,0.021 0.055,0.037 0.016,0.016 0.029,0.035 0.038,0.056 0.009,0.021 0.014,0.044 0.014,0.068 H 0.441 c 0,-0.01 -0.002,-0.019 -0.005,-0.028 C 0.432,-0.704 0.427,-0.711 0.421,-0.718 0.415,-0.724 0.407,-0.729 0.399,-0.732 0.39,-0.736 0.381,-0.737 0.371,-0.737 0.36,-0.737 0.351,-0.736 0.342,-0.732 0.334,-0.729 0.326,-0.724 0.32,-0.718 0.314,-0.711 0.309,-0.704 0.305,-0.695 0.302,-0.686 0.3,-0.677 0.3,-0.667 v 0.491 c 0,0.013 0.004,0.026 0.011,0.038 0.006,0.012 0.016,0.021 0.028,0.026 0.003,0.002 0.006,0.003 0.009,0.004 0.002,0 0.005,0.001 0.007,0.001 l 0.016,0.002 c 0.001,0 0.003,0 0.004,0.001 0.001,0.001 0.002,0.002 0.003,0.003 0.009,0.007 0.014,0.014 0.018,0.02 0.004,0.006 0.005,0.015 0.005,0.026 0,0.011 -0.002,0.021 -0.008,0.032 C 0.388,-0.013 0.38,-0.005 0.371,0 0.347,0 0.324,-0.005 0.302,-0.014 0.281,-0.023 0.263,-0.036 0.247,-0.052 0.231,-0.068 0.219,-0.086 0.209,-0.108 0.2,-0.129 0.195,-0.152 0.195,-0.176 v -0.491 c 0,-0.024 0.005,-0.047 0.014,-0.068 0.01,-0.021 0.022,-0.04 0.038,-0.056 0.016,-0.016 0.034,-0.028 0.055,-0.037 0.022,-0.01 0.045,-0.014 0.069,-0.014 z"
         style="fill:#bb9167;fill-rule:nonzero"
         id="path15066" /><path
         d="M 0.371,-0.247 H 1.002 V 0.035 C 1.002,0.05 1,0.063 0.994,0.076 0.989,0.089 0.981,0.1 0.971,0.109 0.962,0.119 0.951,0.126 0.938,0.132 0.925,0.137 0.912,0.14 0.897,0.14 H 0.476 C 0.461,0.14 0.448,0.137 0.435,0.132 0.422,0.126 0.411,0.119 0.402,0.109 0.392,0.1 0.384,0.089 0.379,0.076 0.373,0.063 0.371,0.05 0.371,0.035 Z"
         style="fill:#af0d1a;fill-rule:nonzero"
         id="path15068" /><path
         d="m 1.002,-0.597 v 0.351 c 0,0.015 -0.002,0.029 -0.008,0.041 -0.005,0.013 -0.013,0.024 -0.023,0.034 -0.009,0.009 -0.02,0.017 -0.033,0.022 -0.013,0.006 -0.026,0.008 -0.041,0.008 H 0.476 C 0.461,-0.141 0.448,-0.143 0.435,-0.149 0.422,-0.154 0.411,-0.162 0.402,-0.171 0.392,-0.181 0.384,-0.192 0.379,-0.205 0.373,-0.217 0.371,-0.231 0.371,-0.246 v -0.351 c 0,-0.014 0.002,-0.028 0.008,-0.041 0.005,-0.012 0.013,-0.024 0.023,-0.033 0.009,-0.01 0.02,-0.017 0.033,-0.023 0.013,-0.005 0.026,-0.008 0.041,-0.008 h 0.421 c 0.015,0 0.028,0.003 0.041,0.008 0.013,0.006 0.024,0.013 0.033,0.023 0.01,0.009 0.018,0.021 0.023,0.033 0.006,0.013 0.008,0.027 0.008,0.041 z"
         style="fill:#f03a17;fill-rule:nonzero"
         id="path15070" /><path
         d="M 0.476,-0.088 V -0.21 h 0.105 v 0.122 c 0,0.007 -0.001,0.014 -0.004,0.02 -0.003,0.007 -0.007,0.012 -0.011,0.017 -0.005,0.005 -0.01,0.009 -0.017,0.012 -0.006,0.002 -0.013,0.004 -0.02,0.004 -0.008,0 -0.015,-0.002 -0.021,-0.004 C 0.502,-0.042 0.496,-0.046 0.491,-0.051 0.487,-0.055 0.483,-0.061 0.48,-0.067 0.477,-0.073 0.476,-0.08 0.476,-0.088 Z M 0.792,-0.21 h 0.105 v 0.122 c 0,0.008 -0.001,0.015 -0.004,0.021 C 0.89,-0.061 0.886,-0.055 0.882,-0.051 0.877,-0.046 0.871,-0.042 0.865,-0.039 0.858,-0.037 0.851,-0.035 0.844,-0.035 0.837,-0.035 0.83,-0.037 0.823,-0.039 0.817,-0.042 0.812,-0.046 0.807,-0.051 0.803,-0.056 0.799,-0.061 0.796,-0.068 0.793,-0.074 0.792,-0.081 0.792,-0.088 Z"
         style="fill:#ffb900;fill-rule:nonzero"
         id="path15072" /></g></g></svg>
