<?xml version="1.0" encoding="UTF-8" standalone="no"?>
<svg
   width="16.844999"
   height="16.844999"
   viewBox="0 0 16.844999 16.844999"
   version="1.1"
   xml:space="preserve"
   style="clip-rule:evenodd;fill-rule:evenodd;stroke-linejoin:round;stroke-miterlimit:2"
   id="svg20568"
   sodipodi:docname="emojis.svg"
   xmlns:inkscape="http://www.inkscape.org/namespaces/inkscape"
   xmlns:sodipodi="http://sodipodi.sourceforge.net/DTD/sodipodi-0.dtd"
   xmlns="http://www.w3.org/2000/svg"
   xmlns:svg="http://www.w3.org/2000/svg"><defs
     id="defs20572" /><sodipodi:namedview
     id="namedview20570"
     pagecolor="#505050"
     bordercolor="#eeeeee"
     borderopacity="1"
     inkscape:pageshadow="0"
     inkscape:pageopacity="0"
     inkscape:pagecheckerboard="0" /><g
     transform="matrix(0.24,0,0,0.24,-369.6822,-766.3674)"
     id="g20566"><g
       transform="matrix(62.5,0,0,62.5,1532.53,3250.26)"
       id="g15038"><path
         d="m 1.038,-0.562 c 0.018,0 0.036,0.004 0.052,0.01 0.015,0.007 0.029,0.016 0.041,0.028 0.012,0.012 0.022,0.025 0.03,0.041 0.007,0.016 0.013,0.032 0.016,0.05 l 0.071,0.427 v 0.002 C 1.248,0.025 1.243,0.053 1.232,0.079 1.221,0.105 1.206,0.128 1.188,0.147 1.169,0.167 1.146,0.182 1.121,0.194 1.095,0.205 1.067,0.21 1.038,0.21 H 0.335 C 0.306,0.21 0.278,0.205 0.252,0.194 0.227,0.182 0.204,0.167 0.186,0.147 0.167,0.128 0.152,0.105 0.141,0.079 0.13,0.053 0.125,0.025 0.125,-0.004 v -0.002 l 0.072,-0.431 c 0,-0.001 0,-0.002 0.001,-0.003 0.006,-0.017 0.013,-0.032 0.021,-0.047 0.007,-0.014 0.017,-0.027 0.028,-0.038 0.011,-0.011 0.023,-0.02 0.038,-0.027 0.014,-0.006 0.031,-0.01 0.05,-0.01 v -0.017 c 0,-0.031 0.004,-0.06 0.012,-0.088 0.008,-0.029 0.02,-0.055 0.034,-0.08 0.015,-0.025 0.032,-0.047 0.052,-0.068 0.021,-0.02 0.043,-0.037 0.068,-0.052 0.025,-0.014 0.051,-0.026 0.08,-0.034 0.028,-0.008 0.057,-0.012 0.088,-0.012 h 0.035 c 0.031,0 0.06,0.004 0.088,0.012 0.029,0.008 0.055,0.02 0.08,0.034 0.025,0.015 0.047,0.032 0.068,0.052 0.02,0.021 0.037,0.043 0.052,0.068 0.014,0.025 0.026,0.051 0.034,0.08 0.008,0.028 0.012,0.057 0.012,0.088 z M 0.669,-0.667 c -0.012,0 -0.024,0.002 -0.034,0.007 -0.011,0.004 -0.02,0.011 -0.028,0.019 -0.008,0.008 -0.015,0.017 -0.019,0.028 -0.005,0.01 -0.007,0.022 -0.007,0.034 v 0.017 H 0.792 V -0.579 C 0.792,-0.591 0.79,-0.603 0.785,-0.613 0.781,-0.624 0.774,-0.633 0.766,-0.641 0.758,-0.649 0.749,-0.656 0.738,-0.66 0.728,-0.665 0.716,-0.667 0.704,-0.667 Z"
         style="fill-rule:nonzero"
         id="path15030" /><path
         d="M 1.178,0.004 C 1.178,0.023 1.174,0.04 1.167,0.057 1.159,0.073 1.149,0.088 1.136,0.1 1.123,0.112 1.108,0.122 1.091,0.129 1.074,0.137 1.056,0.14 1.038,0.14 H 0.335 C 0.317,0.14 0.299,0.137 0.282,0.129 0.265,0.122 0.25,0.112 0.237,0.1 0.224,0.088 0.214,0.073 0.206,0.057 0.199,0.04 0.195,0.023 0.195,0.004 c 0,-0.001 0,-0.001 0,-0.002 0,-0.001 0,-0.001 0,-0.002 l 0.07,-0.421 C 0.266,-0.43 0.269,-0.438 0.273,-0.447 0.277,-0.455 0.282,-0.462 0.289,-0.469 0.295,-0.476 0.302,-0.481 0.31,-0.485 0.317,-0.489 0.326,-0.491 0.335,-0.491 h 0.703 c 0.01,0 0.019,0.002 0.027,0.006 0.008,0.004 0.015,0.009 0.02,0.015 0.006,0.006 0.011,0.014 0.015,0.022 0.003,0.009 0.006,0.017 0.007,0.027 L 1.178,0 c 0,0.001 0,0.001 0,0.002 0,0.001 0,0.001 0,0.002 z"
         style="fill:#8e562e;fill-rule:nonzero"
         id="path15032" /><path
         d="m 0.988,-0.421 c 0.007,0 0.014,0.001 0.02,0.004 0.006,0.002 0.011,0.006 0.015,0.01 0.005,0.004 0.008,0.01 0.011,0.016 0.002,0.006 0.004,0.012 0.004,0.019 v 0.112 c 0,0.007 -0.002,0.013 -0.004,0.02 C 1.031,-0.234 1.028,-0.229 1.023,-0.225 1.019,-0.22 1.014,-0.217 1.008,-0.214 1.002,-0.212 0.995,-0.21 0.988,-0.21 H 0.841 C 0.834,-0.21 0.828,-0.212 0.822,-0.214 0.816,-0.217 0.811,-0.221 0.806,-0.225 0.802,-0.23 0.799,-0.235 0.796,-0.241 0.793,-0.247 0.792,-0.253 0.792,-0.26 v -0.112 c 0,-0.007 0.001,-0.013 0.004,-0.019 0.003,-0.006 0.006,-0.011 0.01,-0.016 0.005,-0.004 0.01,-0.008 0.016,-0.01 0.006,-0.003 0.012,-0.004 0.019,-0.004 z m -0.456,0 c 0.007,0 0.013,0.001 0.019,0.004 0.006,0.002 0.011,0.006 0.016,0.01 0.004,0.005 0.008,0.01 0.01,0.016 0.003,0.006 0.004,0.012 0.004,0.019 v 0.112 c 0,0.007 -0.001,0.013 -0.004,0.019 -0.002,0.006 -0.006,0.011 -0.01,0.016 -0.005,0.004 -0.01,0.008 -0.016,0.011 C 0.545,-0.212 0.539,-0.21 0.532,-0.21 H 0.385 C 0.378,-0.21 0.372,-0.212 0.365,-0.214 0.359,-0.217 0.354,-0.22 0.35,-0.225 0.345,-0.229 0.342,-0.234 0.339,-0.24 0.337,-0.247 0.335,-0.253 0.335,-0.26 v -0.112 c 0,-0.007 0.002,-0.013 0.004,-0.019 0.003,-0.006 0.006,-0.012 0.011,-0.016 0.004,-0.004 0.009,-0.008 0.015,-0.01 0.007,-0.003 0.013,-0.004 0.02,-0.004 z"
         style="fill:#ffb900;fill-rule:nonzero"
         id="path15034" /><path
         d="m 0.704,-0.842 c 0.036,0 0.07,0.007 0.102,0.02 0.032,0.014 0.06,0.033 0.084,0.057 0.024,0.024 0.043,0.052 0.057,0.084 0.013,0.032 0.02,0.066 0.02,0.102 v 0.228 H 0.862 V -0.579 C 0.862,-0.601 0.858,-0.621 0.849,-0.641 0.841,-0.66 0.83,-0.677 0.815,-0.691 0.801,-0.705 0.784,-0.717 0.765,-0.725 0.746,-0.733 0.726,-0.737 0.704,-0.737 H 0.669 c -0.022,0 -0.042,0.004 -0.061,0.012 -0.019,0.008 -0.036,0.02 -0.05,0.034 -0.015,0.014 -0.026,0.031 -0.034,0.05 -0.009,0.02 -0.013,0.04 -0.013,0.062 v 0.228 H 0.406 v -0.228 c 0,-0.036 0.007,-0.07 0.021,-0.102 0.013,-0.032 0.032,-0.06 0.056,-0.084 0.024,-0.024 0.052,-0.043 0.084,-0.057 0.032,-0.013 0.066,-0.02 0.102,-0.02 z m -0.298,0.614 v -0.053 h 0.105 v 0.053 c 0,0.007 -0.001,0.014 -0.004,0.02 C 0.504,-0.201 0.5,-0.196 0.496,-0.191 0.491,-0.186 0.485,-0.183 0.479,-0.18 0.472,-0.177 0.466,-0.176 0.458,-0.176 0.451,-0.176 0.445,-0.177 0.438,-0.18 0.432,-0.183 0.426,-0.186 0.421,-0.191 0.417,-0.195 0.413,-0.201 0.41,-0.207 0.407,-0.214 0.406,-0.221 0.406,-0.228 Z m 0.456,0 v -0.053 h 0.105 v 0.053 c 0,0.007 -0.001,0.014 -0.004,0.021 C 0.96,-0.201 0.957,-0.195 0.952,-0.191 0.947,-0.186 0.941,-0.183 0.935,-0.18 0.928,-0.177 0.922,-0.176 0.915,-0.176 0.907,-0.176 0.901,-0.177 0.894,-0.18 0.888,-0.183 0.882,-0.186 0.877,-0.191 0.873,-0.196 0.869,-0.201 0.866,-0.208 0.863,-0.214 0.862,-0.221 0.862,-0.228 Z"
         style="fill:#f7d7c4;fill-rule:nonzero"
         id="path15036" /></g></g></svg>
