<?xml version="1.0" encoding="UTF-8" standalone="no"?>
<svg
   width="16.844999"
   height="9.4650002"
   viewBox="0 0 16.844999 9.4650002"
   version="1.1"
   xml:space="preserve"
   style="clip-rule:evenodd;fill-rule:evenodd;stroke-linejoin:round;stroke-miterlimit:2"
   id="svg20568"
   sodipodi:docname="emojis.svg"
   xmlns:inkscape="http://www.inkscape.org/namespaces/inkscape"
   xmlns:sodipodi="http://sodipodi.sourceforge.net/DTD/sodipodi-0.dtd"
   xmlns="http://www.w3.org/2000/svg"
   xmlns:svg="http://www.w3.org/2000/svg"><defs
     id="defs20572" /><sodipodi:namedview
     id="namedview20570"
     pagecolor="#505050"
     bordercolor="#eeeeee"
     borderopacity="1"
     inkscape:pageshadow="0"
     inkscape:pageopacity="0"
     inkscape:pagecheckerboard="0" /><g
     transform="matrix(0.24,0,0,0.24,-472.6614,-773.7474)"
     id="g20566"><g
       transform="matrix(62.5,0,0,62.5,1961.61,3250.26)"
       id="g15096"><path
         d="M 0.248,0.21 C 0.231,0.21 0.215,0.207 0.2,0.201 0.185,0.194 0.172,0.185 0.161,0.174 0.15,0.163 0.141,0.15 0.135,0.135 0.128,0.12 0.125,0.104 0.125,0.087 v -0.31 c 0,-0.015 0.003,-0.03 0.009,-0.043 0.005,-0.013 0.013,-0.025 0.023,-0.035 0.01,-0.01 0.022,-0.018 0.035,-0.024 0.014,-0.006 0.028,-0.008 0.043,-0.008 0.013,0 0.025,0.001 0.036,0.005 0.011,0.004 0.021,0.01 0.031,0.017 0.009,0.007 0.017,0.016 0.024,0.025 0.007,0.01 0.012,0.021 0.015,0.033 0.004,0.012 0.01,0.022 0.018,0.03 0.008,0.008 0.019,0.013 0.033,0.013 L 0.398,-0.211 C 0.396,-0.22 0.395,-0.231 0.395,-0.242 0.395,-0.263 0.4,-0.284 0.41,-0.305 L 0.417,-0.319 C 0.424,-0.333 0.43,-0.346 0.437,-0.358 0.443,-0.37 0.451,-0.381 0.46,-0.391 0.469,-0.4 0.48,-0.408 0.492,-0.413 c 0.012,-0.006 0.027,-0.008 0.045,-0.008 0.008,0 0.017,0.001 0.025,0.003 0.009,0.002 0.017,0.005 0.024,0.008 l 0.56,0.281 c 0.016,0.007 0.03,0.017 0.043,0.029 0.012,0.011 0.023,0.024 0.032,0.038 0.008,0.015 0.015,0.03 0.02,0.046 0.005,0.017 0.007,0.034 0.007,0.051 V 0.087 C 1.248,0.104 1.245,0.12 1.238,0.135 1.232,0.15 1.223,0.163 1.212,0.174 1.201,0.185 1.188,0.194 1.173,0.201 1.158,0.207 1.142,0.21 1.125,0.21 Z"
         style="fill-rule:nonzero"
         id="path15086" /><path
         d="m 0.534,-0.31 0.045,0.008 c 0.011,0.002 0.022,0.004 0.035,0.007 l 0.061,0.012 c 0.007,0.001 0.011,0.002 0.012,0.002 0.014,0.006 0.027,0.012 0.038,0.018 0.012,0.005 0.023,0.011 0.034,0.016 0.011,0.006 0.022,0.012 0.033,0.018 0.011,0.006 0.024,0.013 0.038,0.02 l 0.285,0.143 c 0.01,0.004 0.018,0.01 0.026,0.018 0.008,0.007 0.015,0.015 0.02,0.024 0.005,0.008 0.009,0.018 0.012,0.028 0.003,0.01 0.005,0.02 0.005,0.031 L 0.804,0.082 C 0.786,0.084 0.769,0.086 0.755,0.089 0.74,0.092 0.725,0.094 0.711,0.097 0.697,0.099 0.682,0.101 0.667,0.103 0.653,0.104 0.636,0.105 0.618,0.105 0.604,0.105 0.591,0.104 0.58,0.103 0.569,0.101 0.558,0.099 0.547,0.097 0.536,0.094 0.525,0.092 0.514,0.089 0.503,0.086 0.491,0.084 0.477,0.082 L 0.195,0.035 v -0.258 c 0,-0.012 0.004,-0.021 0.012,-0.029 0.007,-0.007 0.017,-0.011 0.028,-0.011 0.01,0 0.018,0.003 0.024,0.008 0.007,0.005 0.012,0.012 0.014,0.021 l 0.002,0.006 c 0.004,0.013 0.01,0.025 0.017,0.036 0.008,0.01 0.017,0.02 0.027,0.027 0.01,0.008 0.021,0.014 0.034,0.018 0.012,0.004 0.025,0.006 0.039,0.006 0.011,0 0.021,-0.001 0.029,-0.003 0.009,-0.002 0.017,-0.005 0.025,-0.01 0.007,-0.004 0.015,-0.009 0.022,-0.015 0.007,-0.006 0.014,-0.012 0.021,-0.02 z"
         style="fill:#ffffff;fill-rule:nonzero"
         id="path15088" /><path
         d="m 1.153,-0.035 c 0.008,0.01 0.014,0.021 0.018,0.033 0.005,0.012 0.007,0.024 0.007,0.037 L 0.975,0.08 0.757,0.035 c 0,-0.01 0.002,-0.019 0.005,-0.027 0.004,-0.009 0.009,-0.016 0.015,-0.022 0.006,-0.007 0.014,-0.012 0.022,-0.016 0.009,-0.003 0.018,-0.005 0.028,-0.005 z M 0.311,0.068 0.195,0.035 v -0.14 H 0.3 c 0.02,0 0.038,0.003 0.055,0.011 0.017,0.007 0.032,0.017 0.045,0.03 0.013,0.012 0.023,0.027 0.03,0.044 0.007,0.017 0.011,0.036 0.011,0.055 z M 0.489,-0.189 C 0.481,-0.195 0.475,-0.203 0.471,-0.213 0.467,-0.222 0.465,-0.232 0.465,-0.242 c 0,-0.011 0.002,-0.022 0.007,-0.031 L 0.5,-0.328 c 0.003,-0.007 0.008,-0.012 0.015,-0.017 0.007,-0.004 0.014,-0.006 0.022,-0.006 0.006,0 0.012,0.001 0.018,0.004 l 0.132,0.066 c -0.018,0 -0.034,0.001 -0.047,0.002 -0.013,0.001 -0.025,0.003 -0.036,0.005 -0.01,0.003 -0.019,0.007 -0.028,0.011 -0.009,0.004 -0.017,0.01 -0.026,0.017 -0.009,0.007 -0.018,0.015 -0.027,0.024 -0.01,0.01 -0.021,0.021 -0.034,0.033 z"
         style="fill:#00bcf2;fill-rule:nonzero"
         id="path15090" /><path
         d="M 1.125,0.14 H 0.248 C 0.241,0.14 0.234,0.139 0.227,0.136 0.221,0.133 0.215,0.129 0.211,0.125 0.206,0.12 0.202,0.115 0.199,0.108 0.197,0.102 0.195,0.095 0.195,0.087 V 0.035 H 1.178 V 0.087 C 1.178,0.095 1.176,0.102 1.174,0.108 1.171,0.115 1.167,0.12 1.162,0.125 1.158,0.129 1.152,0.133 1.146,0.136 1.139,0.139 1.132,0.14 1.125,0.14 Z"
         style="fill:#cccccc;fill-rule:nonzero"
         id="path15092" /><path
         d="m 0.704,-0.21 c -0.005,0 -0.009,-0.002 -0.012,-0.006 -0.004,-0.003 -0.005,-0.007 -0.005,-0.012 0,-0.003 0,-0.006 0.002,-0.01 0.002,-0.004 0.003,-0.008 0.006,-0.012 0.002,-0.004 0.004,-0.008 0.006,-0.012 0.002,-0.004 0.004,-0.007 0.005,-0.009 0.003,-0.007 0.009,-0.01 0.016,-0.01 0.004,0 0.008,0.002 0.012,0.005 0.003,0.004 0.005,0.008 0.005,0.012 0,0.003 -0.001,0.007 -0.002,0.011 C 0.735,-0.25 0.733,-0.246 0.731,-0.241 0.729,-0.237 0.727,-0.233 0.725,-0.229 0.723,-0.226 0.721,-0.222 0.72,-0.22 0.716,-0.214 0.711,-0.21 0.704,-0.21 Z m 0.07,0.034 c -0.005,0 -0.009,-0.001 -0.012,-0.005 -0.004,-0.003 -0.005,-0.007 -0.005,-0.012 0,-0.003 0.001,-0.007 0.002,-0.011 0.001,-0.004 0.003,-0.007 0.005,-0.011 l 0.012,-0.021 c 0.002,-0.003 0.004,-0.006 0.006,-0.007 0.003,-0.002 0.006,-0.003 0.01,-0.003 0.005,0 0.009,0.002 0.013,0.006 0.003,0.003 0.005,0.007 0.005,0.012 0,0.003 -0.001,0.006 -0.003,0.01 C 0.806,-0.214 0.804,-0.21 0.802,-0.206 0.799,-0.202 0.797,-0.198 0.795,-0.194 0.793,-0.19 0.791,-0.187 0.79,-0.185 0.787,-0.179 0.782,-0.176 0.774,-0.176 Z m 0.07,0.035 c -0.005,0 -0.009,-0.001 -0.012,-0.005 -0.004,-0.003 -0.005,-0.007 -0.005,-0.012 0,-0.002 0,-0.003 0,-0.004 0,-0.001 0.001,-0.003 0.002,-0.004 L 0.846,-0.201 C 0.848,-0.204 0.85,-0.206 0.853,-0.208 0.856,-0.21 0.859,-0.21 0.862,-0.21 c 0.005,0 0.009,0.001 0.013,0.005 0.003,0.003 0.004,0.007 0.004,0.012 0,0.003 0,0.006 -0.002,0.01 C 0.876,-0.179 0.874,-0.175 0.872,-0.171 0.87,-0.167 0.868,-0.163 0.865,-0.159 0.863,-0.156 0.862,-0.153 0.86,-0.15 0.857,-0.144 0.852,-0.141 0.844,-0.141 Z m 0.071,0.036 c -0.005,0 -0.009,-0.002 -0.013,-0.006 -0.003,-0.003 -0.005,-0.007 -0.005,-0.012 0,-0.002 0.001,-0.006 0.002,-0.01 0.002,-0.004 0.004,-0.008 0.006,-0.012 l 0.012,-0.021 c 0.001,-0.003 0.003,-0.005 0.006,-0.007 0.003,-0.001 0.006,-0.002 0.01,-0.002 0.004,0 0.008,0.001 0.012,0.005 0.003,0.003 0.005,0.007 0.005,0.012 0,0.002 -0.001,0.006 -0.003,0.01 -0.001,0.003 -0.003,0.008 -0.005,0.012 -0.002,0.004 -0.005,0.008 -0.007,0.012 -0.002,0.003 -0.004,0.006 -0.005,0.009 -0.003,0.006 -0.008,0.01 -0.015,0.01 z m 0.07,0.035 C 0.98,-0.07 0.976,-0.072 0.973,-0.075 0.969,-0.079 0.967,-0.083 0.967,-0.088 c 0,-0.002 0.001,-0.006 0.003,-0.01 0.001,-0.004 0.003,-0.008 0.005,-0.012 l 0.012,-0.021 c 0.003,-0.006 0.008,-0.01 0.015,-0.01 0.005,0 0.009,0.002 0.013,0.006 0.003,0.003 0.005,0.007 0.005,0.012 0,0.003 -0.001,0.006 -0.002,0.01 C 1.016,-0.109 1.014,-0.105 1.012,-0.101 1.01,-0.097 1.008,-0.093 1.006,-0.089 1.003,-0.085 1.002,-0.082 1,-0.08 0.997,-0.074 0.992,-0.07 0.985,-0.07 Z"
         style="fill:#383838;fill-rule:nonzero"
         id="path15094" /></g></g></svg>
