<?xml version="1.0" encoding="UTF-8" standalone="no"?>
<svg
   width="13.155"
   height="15.255"
   viewBox="0 0 13.155 15.255"
   version="1.1"
   xml:space="preserve"
   style="clip-rule:evenodd;fill-rule:evenodd;stroke-linejoin:round;stroke-miterlimit:2"
   id="svg20568"
   sodipodi:docname="emojis.svg"
   xmlns:inkscape="http://www.inkscape.org/namespaces/inkscape"
   xmlns:sodipodi="http://sodipodi.sourceforge.net/DTD/sodipodi-0.dtd"
   xmlns="http://www.w3.org/2000/svg"
   xmlns:svg="http://www.w3.org/2000/svg"><defs
     id="defs20572" /><sodipodi:namedview
     id="namedview20570"
     pagecolor="#505050"
     bordercolor="#eeeeee"
     borderopacity="1"
     inkscape:pageshadow="0"
     inkscape:pageopacity="0"
     inkscape:pagecheckerboard="0" /><g
     transform="matrix(0.24,0,0,0.24,-291.1158,-128.22924)"
     id="g20566"><g
       transform="matrix(62.5,0,0,62.5,1205.17,589.101)"
       id="g1506"><path
         d="M 0.458,0.14 C 0.413,0.14 0.369,0.131 0.329,0.114 0.288,0.097 0.253,0.073 0.223,0.042 0.193,0.012 0.169,-0.023 0.151,-0.063 0.134,-0.104 0.125,-0.147 0.125,-0.193 v -0.509 c 0,-0.017 0.003,-0.033 0.01,-0.048 C 0.141,-0.765 0.15,-0.778 0.161,-0.789 0.173,-0.8 0.186,-0.808 0.2,-0.815 c 0.015,-0.006 0.031,-0.01 0.048,-0.01 0.017,0 0.033,0.004 0.048,0.01 0.014,0.007 0.027,0.015 0.038,0.026 0.012,0.011 0.02,0.024 0.027,0.039 0.006,0.015 0.01,0.031 0.01,0.048 v 0.07 h 0.07 l 0.017,0.002 0.018,-0.002 h 0.035 v -0.105 c 0,-0.02 0.004,-0.038 0.011,-0.055 0.008,-0.017 0.018,-0.032 0.03,-0.044 0.013,-0.013 0.028,-0.023 0.045,-0.03 0.017,-0.008 0.035,-0.011 0.054,-0.011 0.02,0 0.038,0.003 0.055,0.011 0.017,0.007 0.032,0.017 0.044,0.03 0.013,0.012 0.023,0.027 0.031,0.044 0.007,0.017 0.011,0.035 0.011,0.055 v 0.299 c 0.011,-0.006 0.022,-0.01 0.034,-0.014 0.012,-0.003 0.024,-0.005 0.036,-0.005 0.02,0 0.038,0.004 0.055,0.012 0.017,0.007 0.032,0.017 0.044,0.03 0.013,0.013 0.023,0.028 0.03,0.045 0.008,0.017 0.011,0.035 0.011,0.054 0,0.019 -0.003,0.037 -0.01,0.054 -0.007,0.017 -0.017,0.033 -0.031,0.045 L 0.693,0.043 C 0.661,0.075 0.625,0.099 0.586,0.115 0.546,0.132 0.504,0.14 0.458,0.14 Z"
         style="fill-rule:nonzero"
         id="path1500" /><path
         d="m 0.862,-0.386 c 0.01,0 0.019,0.002 0.027,0.005 0.009,0.004 0.016,0.009 0.022,0.016 0.007,0.006 0.012,0.013 0.016,0.022 0.003,0.008 0.005,0.017 0.005,0.027 0,0.009 -0.002,0.018 -0.005,0.027 -0.004,0.009 -0.009,0.016 -0.015,0.023 L 0.644,-0.007 C 0.618,0.018 0.59,0.037 0.559,0.05 0.528,0.064 0.495,0.07 0.458,0.07 0.422,0.07 0.388,0.063 0.356,0.05 0.324,0.036 0.296,0.017 0.272,-0.007 0.249,-0.031 0.23,-0.059 0.216,-0.091 0.202,-0.123 0.195,-0.157 0.195,-0.193 v -0.509 c 0,-0.007 0.002,-0.014 0.004,-0.02 0.003,-0.007 0.007,-0.012 0.012,-0.017 0.005,-0.005 0.01,-0.009 0.017,-0.012 0.006,-0.002 0.013,-0.004 0.02,-0.004 0.007,0 0.014,0.002 0.02,0.004 0.007,0.003 0.012,0.007 0.017,0.012 0.005,0.005 0.008,0.01 0.011,0.017 0.003,0.006 0.004,0.013 0.004,0.02 v 0.175 l 0.035,-0.035 h 0.106 l 0.017,0.031 0.018,-0.031 h 0.105 l 0.035,-0.236 c 0.012,-0.006 0.023,-0.009 0.035,-0.009 0.01,0 0.019,0.002 0.028,0.005 0.008,0.004 0.016,0.009 0.022,0.015 0.006,0.006 0.011,0.014 0.015,0.022 0.004,0.009 0.006,0.018 0.006,0.028 v 0.421 L 0.7,-0.301 0.722,-0.289 0.812,-0.366 C 0.82,-0.372 0.828,-0.377 0.835,-0.381 0.843,-0.384 0.851,-0.386 0.862,-0.386 Z"
         style="fill:#ffc83d;fill-rule:nonzero"
         id="path1502" /><path
         d="m 0.529,-0.351 c 0.007,0 0.014,-0.001 0.02,-0.004 0.007,-0.003 0.012,-0.007 0.017,-0.012 0.004,-0.005 0.008,-0.01 0.011,-0.017 0.003,-0.006 0.004,-0.013 0.004,-0.02 v -0.333 c 0,-0.013 0.003,-0.024 0.01,-0.035 0.006,-0.011 0.014,-0.019 0.025,-0.025 v 0.395 c 0,0.012 -0.002,0.023 -0.007,0.033 -0.005,0.011 -0.011,0.02 -0.019,0.028 -0.008,0.008 -0.017,0.014 -0.028,0.018 -0.01,0.005 -0.021,0.007 -0.033,0.007 -0.014,0 -0.027,-0.003 -0.039,-0.009 C 0.477,-0.332 0.467,-0.34 0.458,-0.352 0.45,-0.34 0.44,-0.332 0.427,-0.325 0.415,-0.319 0.402,-0.316 0.388,-0.316 0.376,-0.316 0.365,-0.318 0.354,-0.323 0.343,-0.327 0.334,-0.334 0.326,-0.342 0.318,-0.35 0.312,-0.359 0.307,-0.37 0.303,-0.38 0.3,-0.392 0.3,-0.404 v -0.122 c 0,-0.01 0.004,-0.018 0.011,-0.025 0.006,-0.007 0.015,-0.011 0.024,-0.011 v 0.158 c 0,0.007 0.002,0.014 0.005,0.02 0.002,0.007 0.006,0.012 0.011,0.017 0.005,0.005 0.011,0.009 0.017,0.012 0.006,0.003 0.013,0.004 0.02,0.004 0.007,0 0.014,-0.001 0.021,-0.004 0.006,-0.003 0.012,-0.007 0.017,-0.011 0.004,-0.005 0.008,-0.011 0.011,-0.017 0.003,-0.006 0.004,-0.013 0.004,-0.021 v -0.158 c 0.003,0 0.006,0.001 0.009,0.002 0.003,0.001 0.006,0.002 0.008,0.004 0.003,-0.002 0.006,-0.003 0.009,-0.004 0.003,-0.001 0.006,-0.002 0.009,-0.002 v 0.158 c 0,0.008 0.001,0.015 0.004,0.021 0.003,0.006 0.007,0.012 0.011,0.017 0.005,0.004 0.011,0.008 0.017,0.011 0.006,0.003 0.013,0.004 0.021,0.004 z m 0.183,0.07 H 0.599 c -0.022,0 -0.043,0.004 -0.062,0.013 -0.019,0.008 -0.035,0.019 -0.05,0.034 -0.014,0.014 -0.025,0.031 -0.034,0.05 -0.008,0.019 -0.012,0.039 -0.012,0.061 0,0.005 -0.002,0.009 -0.005,0.012 -0.004,0.004 -0.008,0.006 -0.013,0.006 -0.005,0 -0.009,-0.002 -0.012,-0.006 -0.004,-0.003 -0.005,-0.007 -0.005,-0.012 0,-0.027 0.005,-0.052 0.015,-0.075 0.01,-0.024 0.024,-0.044 0.041,-0.062 0.018,-0.017 0.038,-0.031 0.061,-0.041 0.024,-0.01 0.049,-0.015 0.076,-0.015 h 0.123 v 0.027 z"
         style="fill:#d48c00;fill-rule:nonzero"
         id="path1504" /></g></g></svg>
