<?xml version="1.0" encoding="UTF-8" standalone="no"?>
<svg
   width="15.99"
   height="16.844999"
   viewBox="0 0 15.99 16.844999"
   version="1.1"
   xml:space="preserve"
   style="clip-rule:evenodd;fill-rule:evenodd;stroke-linejoin:round;stroke-miterlimit:2"
   id="svg20568"
   sodipodi:docname="emojis.svg"
   xmlns:inkscape="http://www.inkscape.org/namespaces/inkscape"
   xmlns:sodipodi="http://sodipodi.sourceforge.net/DTD/sodipodi-0.dtd"
   xmlns="http://www.w3.org/2000/svg"
   xmlns:svg="http://www.w3.org/2000/svg"><defs
     id="defs20572" /><sodipodi:namedview
     id="namedview20570"
     pagecolor="#505050"
     bordercolor="#eeeeee"
     borderopacity="1"
     inkscape:pageshadow="0"
     inkscape:pageopacity="0"
     inkscape:pagecheckerboard="0" /><g
     transform="matrix(0.24,0,0,0.24,-328.941,-766.3674)"
     id="g20566"><g
       transform="matrix(62.5,0,0,62.5,1360.9,3250.26)"
       id="g15020"><path
         d="m 1.013,-0.316 c 0.01,0.055 0.02,0.109 0.03,0.163 0.01,0.054 0.021,0.108 0.033,0.163 C 1.059,0.046 1.036,0.077 1.007,0.103 0.979,0.128 0.947,0.149 0.912,0.165 0.876,0.181 0.839,0.193 0.801,0.2 0.762,0.207 0.723,0.21 0.686,0.21 0.648,0.21 0.61,0.207 0.571,0.2 0.532,0.193 0.496,0.181 0.461,0.165 0.426,0.149 0.394,0.128 0.366,0.103 0.337,0.078 0.314,0.047 0.297,0.01 L 0.356,-0.316 H 0.3 L 0.155,-0.51 C 0.159,-0.531 0.164,-0.552 0.17,-0.572 0.175,-0.592 0.184,-0.611 0.195,-0.63 0.208,-0.652 0.223,-0.672 0.24,-0.69 0.258,-0.707 0.277,-0.723 0.297,-0.737 0.318,-0.751 0.34,-0.763 0.363,-0.774 c 0.022,-0.01 0.046,-0.018 0.07,-0.025 l 0.075,-0.114 h 0.356 l 0.073,0.11 c 0.053,0.01 0.099,0.031 0.139,0.062 0.04,0.03 0.073,0.069 0.099,0.115 0.01,0.018 0.019,0.036 0.026,0.055 0.007,0.019 0.013,0.038 0.02,0.057 l -0.149,0.198 z"
         style="fill-rule:nonzero"
         id="path15012" /><path
         d="M 1.002,0 C 0.996,0.013 0.987,0.025 0.976,0.037 0.965,0.048 0.953,0.059 0.939,0.068 0.926,0.078 0.911,0.087 0.896,0.095 0.88,0.103 0.864,0.11 0.848,0.115 0.832,0.121 0.816,0.126 0.801,0.129 0.785,0.133 0.77,0.135 0.756,0.136 H 0.752 C 0.747,0.136 0.741,0.135 0.736,0.134 L 0.704,0.121 C 0.698,0.12 0.692,0.119 0.687,0.119 0.68,0.119 0.674,0.12 0.669,0.121 L 0.635,0.134 C 0.629,0.135 0.623,0.136 0.617,0.136 0.611,0.136 0.604,0.136 0.598,0.135 0.592,0.133 0.586,0.132 0.58,0.13 c -0.001,0 -0.001,0 -0.001,0 -0.001,0 -0.001,0 -0.002,0 C 0.559,0.126 0.54,0.12 0.519,0.113 0.499,0.105 0.479,0.096 0.46,0.085 0.441,0.074 0.423,0.061 0.407,0.047 0.392,0.033 0.379,0.017 0.371,0 l 0.07,-0.386 H 0.367 L 0.256,-0.595 c 0.01,-0.017 0.022,-0.032 0.035,-0.045 0.012,-0.014 0.026,-0.025 0.041,-0.036 0.015,-0.01 0.03,-0.019 0.047,-0.027 0.017,-0.008 0.034,-0.015 0.052,-0.022 0.002,-0.001 0.006,-0.002 0.01,-0.004 0.004,-0.001 0.008,-0.003 0.012,-0.004 0.005,-0.001 0.009,-0.002 0.013,-0.003 0.004,-0.001 0.007,-0.001 0.01,-0.001 h 0.421 c 0.008,0 0.016,0.001 0.024,0.002 0.008,0.002 0.016,0.004 0.023,0.006 0.038,0.01 0.071,0.027 0.099,0.051 0.029,0.024 0.053,0.053 0.071,0.086 L 1.006,-0.386 H 0.932 Z"
         style="fill:#e6808a;fill-rule:nonzero"
         id="path15014" /><path
         d="m 0.546,-0.842 h 0.281 v 0.14 H 0.546 Z"
         style="fill:#af0d1a;fill-rule:nonzero"
         id="path15016" /><path
         d="m 0.757,-0.702 0.07,-0.14 0.07,0.105 v 0.017 c 0,0.012 -0.002,0.024 -0.007,0.034 -0.004,0.011 -0.011,0.021 -0.019,0.029 -0.008,0.008 -0.017,0.014 -0.027,0.018 -0.011,0.005 -0.022,0.007 -0.034,0.007 H 0.757 V 0.136 C 0.733,0.139 0.71,0.14 0.687,0.14 0.663,0.14 0.64,0.139 0.616,0.136 V -0.632 H 0.563 C 0.551,-0.632 0.54,-0.634 0.53,-0.639 0.519,-0.643 0.51,-0.649 0.502,-0.657 0.494,-0.665 0.487,-0.675 0.483,-0.686 0.478,-0.696 0.476,-0.708 0.476,-0.72 v -0.017 l 0.07,-0.105 0.07,0.14 z M 0.23,-0.526 c 0.005,-0.025 0.014,-0.048 0.026,-0.069 l 0.15,0.209 H 0.335 Z m 0.884,-0.066 c 0.006,0.011 0.011,0.021 0.016,0.032 0.005,0.011 0.009,0.022 0.013,0.034 l -0.105,0.14 H 0.967 Z m -0.427,0.557 c 0.009,0 0.018,-0.004 0.024,-0.01 0.007,-0.007 0.011,-0.016 0.011,-0.025 0,-0.01 -0.004,-0.018 -0.011,-0.025 -0.006,-0.007 -0.015,-0.01 -0.024,-0.01 -0.01,0 -0.019,0.003 -0.025,0.01 -0.007,0.007 -0.011,0.015 -0.011,0.025 0,0.009 0.004,0.018 0.011,0.025 0.006,0.006 0.015,0.01 0.025,0.01 z m 0,-0.527 c 0.009,0 0.018,-0.003 0.024,-0.01 0.007,-0.007 0.011,-0.015 0.011,-0.025 0,-0.009 -0.004,-0.018 -0.011,-0.025 -0.006,-0.006 -0.015,-0.01 -0.024,-0.01 -0.01,0 -0.019,0.004 -0.025,0.01 -0.007,0.007 -0.011,0.016 -0.011,0.025 0,0.01 0.004,0.018 0.011,0.025 0.006,0.007 0.015,0.01 0.025,0.01 z m 0,0.176 c 0.009,0 0.018,-0.004 0.024,-0.01 0.007,-0.007 0.011,-0.016 0.011,-0.025 0,-0.01 -0.004,-0.018 -0.011,-0.025 -0.007,-0.007 -0.015,-0.011 -0.024,-0.011 -0.01,0 -0.018,0.004 -0.025,0.011 -0.007,0.007 -0.011,0.015 -0.011,0.025 0,0.009 0.004,0.018 0.011,0.025 0.006,0.006 0.015,0.01 0.025,0.01 z m 0,0.176 c 0.009,0 0.017,-0.004 0.024,-0.011 0.007,-0.007 0.011,-0.015 0.011,-0.025 0,-0.009 -0.004,-0.018 -0.011,-0.025 -0.006,-0.006 -0.015,-0.01 -0.024,-0.01 -0.01,0 -0.019,0.004 -0.025,0.01 -0.007,0.007 -0.011,0.016 -0.011,0.025 0,0.01 0.004,0.018 0.011,0.025 0.007,0.007 0.015,0.011 0.025,0.011 z"
         style="fill:#e84757;fill-rule:nonzero"
         id="path15018" /></g></g></svg>
