<?xml version="1.0" encoding="UTF-8" standalone="no"?>
<svg
   width="16.844999"
   height="13.155"
   viewBox="0 0 16.844999 13.155"
   version="1.1"
   xml:space="preserve"
   style="clip-rule:evenodd;fill-rule:evenodd;stroke-linejoin:round;stroke-miterlimit:2"
   id="svg20568"
   sodipodi:docname="emojis.svg"
   xmlns:inkscape="http://www.inkscape.org/namespaces/inkscape"
   xmlns:sodipodi="http://sodipodi.sourceforge.net/DTD/sodipodi-0.dtd"
   xmlns="http://www.w3.org/2000/svg"
   xmlns:svg="http://www.w3.org/2000/svg"><defs
     id="defs20572" /><sodipodi:namedview
     id="namedview20570"
     pagecolor="#505050"
     bordercolor="#eeeeee"
     borderopacity="1"
     inkscape:pageshadow="0"
     inkscape:pageopacity="0"
     inkscape:pagecheckerboard="0" /><g
     transform="matrix(0.24,0,0,0.24,-390.279,-767.9574)"
     id="g20566"><g
       transform="matrix(62.5,0,0,62.5,1618.35,3250.26)"
       id="g15048"><path
         d="m 1.143,-0.599 c 0.01,0.007 0.019,0.015 0.028,0.025 0.008,0.009 0.016,0.019 0.022,0.03 0.006,0.011 0.01,0.023 0.014,0.035 0.003,0.012 0.005,0.024 0.005,0.037 0,0.002 0,0.004 0,0.006 0,0.002 0.001,0.004 0.001,0.006 l 0.035,0.351 v 0.004 c 0,0.024 -0.005,0.046 -0.014,0.068 C 1.225,-0.016 1.212,0.003 1.197,0.019 1.181,0.035 1.162,0.047 1.141,0.056 1.12,0.066 1.097,0.07 1.073,0.07 H 0.3 C 0.276,0.07 0.253,0.066 0.232,0.056 0.211,0.047 0.192,0.035 0.177,0.019 0.161,0.003 0.148,-0.016 0.139,-0.037 0.13,-0.059 0.125,-0.081 0.125,-0.105 V -0.109 L 0.16,-0.46 C 0.161,-0.468 0.162,-0.475 0.162,-0.481 0.163,-0.488 0.164,-0.495 0.166,-0.502 0.17,-0.517 0.175,-0.53 0.182,-0.543 0.188,-0.556 0.197,-0.568 0.207,-0.579 0.216,-0.589 0.227,-0.599 0.24,-0.606 0.252,-0.614 0.266,-0.62 0.28,-0.625 0.286,-0.636 0.293,-0.647 0.302,-0.656 0.311,-0.666 0.321,-0.674 0.332,-0.681 0.343,-0.688 0.355,-0.693 0.367,-0.697 0.38,-0.7 0.392,-0.702 0.406,-0.702 H 0.769 C 0.776,-0.718 0.785,-0.733 0.796,-0.746 0.807,-0.759 0.82,-0.77 0.834,-0.779 0.849,-0.788 0.864,-0.795 0.881,-0.8 0.898,-0.805 0.915,-0.807 0.932,-0.807 h 0.123 c 0.017,0 0.033,0.003 0.048,0.01 0.015,0.006 0.028,0.015 0.039,0.026 0.011,0.011 0.019,0.024 0.026,0.039 0.006,0.015 0.01,0.031 0.01,0.047 0,0.016 -0.003,0.032 -0.009,0.047 -0.006,0.015 -0.015,0.028 -0.026,0.039 z"
         style="fill-rule:nonzero"
         id="path15040" /><path
         d="m 1.055,-0.737 c 0.007,0 0.014,0.001 0.02,0.004 0.007,0.003 0.012,0.006 0.017,0.011 0.005,0.005 0.009,0.011 0.011,0.017 0.003,0.007 0.004,0.013 0.004,0.02 0,0.008 -10e-4,0.014 -0.004,0.021 -0.002,0.006 -0.006,0.012 -0.011,0.017 -0.005,0.004 -0.01,0.008 -0.017,0.011 -0.006,0.003 -0.013,0.004 -0.02,0.004 H 1.038 v 0.081 c 0,0.005 -0.001,0.009 -0.001,0.013 C 1.036,-0.533 1.035,-0.53 1.033,-0.526 1.032,-0.523 1.029,-0.52 1.026,-0.518 1.023,-0.516 1.018,-0.515 1.013,-0.515 H 0.36 C 0.355,-0.515 0.35,-0.516 0.347,-0.518 0.344,-0.52 0.341,-0.523 0.339,-0.526 0.338,-0.53 0.337,-0.533 0.336,-0.538 c 0,-0.004 -0.001,-0.008 -0.001,-0.013 v -0.011 c 0,-0.009 0.002,-0.018 0.006,-0.027 C 0.345,-0.597 0.35,-0.605 0.356,-0.611 0.363,-0.617 0.37,-0.622 0.378,-0.626 0.387,-0.63 0.396,-0.632 0.406,-0.632 h 0.421 c 0,-0.015 0.002,-0.029 0.007,-0.042 0.006,-0.013 0.013,-0.024 0.022,-0.034 0.009,-0.009 0.021,-0.016 0.034,-0.021 0.013,-0.006 0.027,-0.008 0.042,-0.008 z m 0,0.07 c 0.005,0 0.009,-0.002 0.013,-0.005 0.003,-0.004 0.005,-0.008 0.005,-0.013 0,-0.004 -0.002,-0.009 -0.005,-0.012 C 1.064,-0.7 1.06,-0.702 1.055,-0.702 H 0.95 c -0.005,0 -0.009,0.002 -0.013,0.005 -0.003,0.003 -0.005,0.008 -0.005,0.012 0,0.005 0.002,0.009 0.005,0.013 0.004,0.003 0.008,0.005 0.013,0.005 z"
         style="fill:#ffb900;fill-rule:nonzero"
         id="path15042" /><path
         d="m 1.178,-0.101 c 0,0.014 -0.003,0.027 -0.009,0.039 C 1.163,-0.05 1.155,-0.039 1.146,-0.03 1.136,-0.021 1.125,-0.013 1.112,-0.008 1.099,-0.003 1.086,0 1.073,0 H 0.3 C 0.287,0 0.274,-0.003 0.261,-0.008 0.249,-0.013 0.237,-0.021 0.228,-0.03 0.218,-0.039 0.21,-0.05 0.204,-0.062 0.198,-0.074 0.195,-0.087 0.195,-0.101 L 0.23,-0.457 C 0.232,-0.472 0.235,-0.487 0.24,-0.5 0.245,-0.513 0.251,-0.524 0.26,-0.533 0.269,-0.542 0.279,-0.549 0.292,-0.554 0.304,-0.559 0.319,-0.562 0.335,-0.562 h 0.703 c 0.011,0 0.022,0.002 0.032,0.005 0.011,0.004 0.021,0.008 0.03,0.014 0.009,0.006 0.017,0.014 0.024,0.022 0.006,0.009 0.011,0.019 0.014,0.03 0.002,0.005 0.003,0.011 0.003,0.017 0,0.006 10e-4,0.012 0.002,0.017 z"
         style="fill:#f7d7c4;fill-rule:nonzero"
         id="path15044" /><path
         d="m 1.003,-0.226 c 0.006,0 0.011,0.002 0.014,0.006 l 0.085,0.095 c 0.006,0.007 0.009,0.015 0.009,0.023 0,0.011 -0.004,0.019 -0.011,0.026 -0.007,0.007 -0.015,0.01 -0.025,0.01 -0.008,0 -0.014,-0.002 -0.019,-0.005 C 1.051,-0.075 1.047,-0.08 1.043,-0.086 1.042,-0.089 1.039,-0.093 1.036,-0.1 1.033,-0.107 1.029,-0.114 1.025,-0.123 1.02,-0.131 1.016,-0.14 1.011,-0.149 1.007,-0.159 1.003,-0.168 0.999,-0.176 0.995,-0.184 0.992,-0.191 0.99,-0.197 0.987,-0.203 0.986,-0.207 0.986,-0.209 c 0,-0.005 0.002,-0.009 0.005,-0.012 0.004,-0.003 0.008,-0.005 0.012,-0.005 z m -0.63,0 c 0.004,0 0.008,0.002 0.012,0.005 0.003,0.003 0.005,0.007 0.005,0.012 0,0.002 -0.001,0.006 -0.004,0.012 C 0.384,-0.191 0.381,-0.184 0.377,-0.176 0.373,-0.167 0.369,-0.158 0.365,-0.149 0.36,-0.14 0.356,-0.131 0.352,-0.123 0.347,-0.114 0.344,-0.107 0.34,-0.1 0.337,-0.093 0.334,-0.089 0.333,-0.086 0.329,-0.08 0.325,-0.075 0.32,-0.071 c -0.005,0.003 -0.011,0.005 -0.019,0.005 -0.01,0 -0.018,-0.003 -0.025,-0.01 -0.007,-0.007 -0.011,-0.015 -0.011,-0.026 0,-0.008 0.003,-0.016 0.009,-0.023 L 0.359,-0.22 c 0.003,-0.004 0.008,-0.006 0.014,-0.006 z"
         style="fill:#d8b094;fill-rule:nonzero"
         id="path15046" /></g></g></svg>
