<?xml version="1.0" encoding="UTF-8" standalone="no"?>
<svg
   width="15.87"
   height="15.78"
   viewBox="0 0 15.87 15.78"
   version="1.1"
   xml:space="preserve"
   style="clip-rule:evenodd;fill-rule:evenodd;stroke-linejoin:round;stroke-miterlimit:2"
   id="svg20568"
   sodipodi:docname="emojis.svg"
   xmlns:inkscape="http://www.inkscape.org/namespaces/inkscape"
   xmlns:sodipodi="http://sodipodi.sourceforge.net/DTD/sodipodi-0.dtd"
   xmlns="http://www.w3.org/2000/svg"
   xmlns:svg="http://www.w3.org/2000/svg"><defs
     id="defs20572" /><sodipodi:namedview
     id="namedview20570"
     pagecolor="#505050"
     bordercolor="#eeeeee"
     borderopacity="1"
     inkscape:pageshadow="0"
     inkscape:pageopacity="0"
     inkscape:pagecheckerboard="0" /><g
     transform="matrix(0.24,0,0,0.24,-349.6128,-766.9074)"
     id="g20566"><g
       transform="matrix(62.5,0,0,62.5,1446.72,3250.26)"
       id="g15028"><path
         d="m 1.181,-0.345 0.037,0.038 -0.003,0.033 C 1.212,-0.243 1.206,-0.212 1.197,-0.182 1.188,-0.152 1.176,-0.123 1.161,-0.095 1.137,-0.049 1.108,-0.008 1.075,0.025 1.042,0.059 1.006,0.087 0.966,0.11 0.926,0.132 0.882,0.148 0.836,0.159 0.789,0.17 0.74,0.175 0.689,0.175 0.638,0.175 0.589,0.17 0.542,0.159 0.496,0.148 0.453,0.132 0.413,0.11 0.373,0.087 0.336,0.059 0.303,0.025 0.27,-0.008 0.242,-0.049 0.217,-0.095 0.203,-0.123 0.191,-0.152 0.182,-0.182 0.173,-0.212 0.166,-0.243 0.163,-0.274 L 0.16,-0.307 0.198,-0.345 v -0.287 c 0,-0.024 0.004,-0.047 0.014,-0.068 0.009,-0.021 0.022,-0.04 0.038,-0.056 0.015,-0.015 0.034,-0.028 0.055,-0.037 0.022,-0.009 0.044,-0.014 0.069,-0.014 h 0.141 c 0.013,-0.022 0.03,-0.039 0.051,-0.052 0.022,-0.012 0.045,-0.018 0.071,-0.018 0.018,0 0.035,0.003 0.052,0.01 0.017,-0.007 0.034,-0.01 0.053,-0.01 0.025,0 0.049,0.006 0.07,0.018 0.021,0.013 0.039,0.03 0.051,0.052 h 0.142 c 0.024,0 0.047,0.005 0.068,0.014 0.021,0.009 0.04,0.022 0.056,0.037 0.016,0.016 0.028,0.035 0.038,0.056 0.009,0.021 0.014,0.044 0.014,0.068 z"
         style="fill-rule:nonzero"
         id="path15022" /><path
         d="m 0.813,-0.737 h 0.192 c 0.015,0 0.029,0.002 0.041,0.008 0.013,0.006 0.024,0.013 0.034,0.023 0.009,0.009 0.017,0.02 0.023,0.033 0.005,0.013 0.008,0.027 0.008,0.041 v 0.351 H 0.269 v -0.351 c 0,-0.014 0.002,-0.028 0.008,-0.041 0.005,-0.013 0.013,-0.024 0.023,-0.033 0.009,-0.01 0.02,-0.017 0.033,-0.023 0.013,-0.006 0.026,-0.008 0.041,-0.008 h 0.193 c 0,-0.01 0.002,-0.019 0.006,-0.028 0.003,-0.008 0.008,-0.016 0.015,-0.022 0.006,-0.006 0.013,-0.011 0.022,-0.015 0.008,-0.003 0.017,-0.005 0.027,-0.005 0.01,0 0.02,0.002 0.029,0.006 0.009,0.004 0.017,0.01 0.023,0.018 0.007,-0.008 0.015,-0.014 0.024,-0.018 0.009,-0.004 0.019,-0.006 0.029,-0.006 0.01,0 0.019,0.002 0.028,0.005 0.008,0.004 0.015,0.009 0.022,0.015 0.006,0.006 0.011,0.014 0.015,0.022 0.004,0.009 0.005,0.018 0.005,0.028 z"
         style="fill:#ffb900;fill-rule:nonzero"
         id="path15024" /><path
         d="M 1.146,-0.281 C 1.144,-0.257 1.139,-0.234 1.132,-0.211 1.125,-0.189 1.116,-0.167 1.106,-0.145 1.086,-0.101 1.062,-0.064 1.033,-0.032 1.005,-0.001 0.973,0.025 0.938,0.045 0.902,0.066 0.864,0.081 0.822,0.09 0.781,0.1 0.736,0.105 0.689,0.105 0.643,0.105 0.599,0.1 0.557,0.09 0.515,0.081 0.476,0.065 0.441,0.045 0.406,0.024 0.374,-0.002 0.345,-0.033 0.317,-0.064 0.293,-0.102 0.273,-0.145 0.263,-0.167 0.254,-0.189 0.247,-0.211 0.24,-0.234 0.236,-0.257 0.233,-0.281 l 0.106,-0.105 v -0.176 c 0,-0.014 0.003,-0.028 0.008,-0.041 0.006,-0.012 0.013,-0.023 0.023,-0.033 0.009,-0.01 0.02,-0.017 0.033,-0.023 0.013,-0.005 0.026,-0.008 0.041,-0.008 h 0.492 c 0.014,0 0.028,0.003 0.041,0.008 0.012,0.006 0.023,0.013 0.033,0.023 0.009,0.01 0.017,0.021 0.022,0.033 0.006,0.013 0.009,0.027 0.009,0.041 v 0.176 z"
         style="fill:#e84757;fill-rule:nonzero"
         id="path15026" /></g></g></svg>
