<?xml version="1.0" encoding="UTF-8" standalone="no"?>
<svg
   width="16.844999"
   height="14.73"
   viewBox="0 0 16.844999 14.73"
   version="1.1"
   xml:space="preserve"
   style="clip-rule:evenodd;fill-rule:evenodd;stroke-linejoin:round;stroke-miterlimit:2"
   id="svg20568"
   sodipodi:docname="emojis.svg"
   xmlns:inkscape="http://www.inkscape.org/namespaces/inkscape"
   xmlns:sodipodi="http://sodipodi.sourceforge.net/DTD/sodipodi-0.dtd"
   xmlns="http://www.w3.org/2000/svg"
   xmlns:svg="http://www.w3.org/2000/svg"><defs
     id="defs20572" /><sodipodi:namedview
     id="namedview20570"
     pagecolor="#505050"
     bordercolor="#eeeeee"
     borderopacity="1"
     inkscape:pageshadow="0"
     inkscape:pageopacity="0"
     inkscape:pagecheckerboard="0" /><g
     transform="matrix(0.24,0,0,0.24,-634.7982,-768.4824)"
     id="g20566"><g
       transform="matrix(62.5,0,0,62.5,2637.18,3250.26)"
       id="g15192"><path
         d="m 1.248,-0.281 c 0,0.024 -0.004,0.046 -0.013,0.066 -0.008,0.02 -0.02,0.038 -0.034,0.054 C 1.186,-0.144 1.17,-0.13 1.151,-0.116 1.132,-0.103 1.112,-0.091 1.092,-0.081 1.071,-0.071 1.05,-0.062 1.028,-0.054 1.007,-0.047 0.986,-0.04 0.967,-0.035 V 0.21 L 0.844,0.169 0.722,0.21 V -0.001 C 0.716,-0.001 0.71,0 0.704,0 0.698,0 0.692,0 0.687,0 0.681,0 0.675,0 0.669,0 0.663,0 0.657,-0.001 0.651,-0.001 V 0.14 L 0.529,0.099 0.406,0.14 V -0.035 C 0.387,-0.04 0.366,-0.047 0.345,-0.054 0.323,-0.062 0.302,-0.071 0.281,-0.081 0.261,-0.091 0.241,-0.103 0.222,-0.116 0.203,-0.13 0.187,-0.144 0.172,-0.161 0.158,-0.177 0.146,-0.195 0.138,-0.215 0.129,-0.235 0.125,-0.257 0.125,-0.281 c 0,-0.03 0.007,-0.057 0.021,-0.082 0.013,-0.024 0.031,-0.045 0.052,-0.064 0.022,-0.018 0.046,-0.034 0.072,-0.048 0.026,-0.013 0.052,-0.025 0.077,-0.033 0.01,-0.039 0.026,-0.075 0.047,-0.107 0.022,-0.032 0.048,-0.06 0.078,-0.083 0.03,-0.023 0.063,-0.041 0.1,-0.054 0.036,-0.013 0.074,-0.02 0.115,-0.02 0.04,0 0.078,0.007 0.115,0.02 0.036,0.013 0.069,0.031 0.099,0.054 0.03,0.023 0.056,0.051 0.078,0.083 0.021,0.032 0.037,0.068 0.047,0.107 0.025,0.008 0.051,0.02 0.077,0.033 0.026,0.014 0.05,0.03 0.072,0.048 0.021,0.019 0.039,0.04 0.053,0.064 0.013,0.025 0.02,0.052 0.02,0.082 z"
         style="fill-rule:nonzero"
         id="path15182" /><path
         d="m 0.965,-0.454 c 0.013,0.003 0.027,0.008 0.042,0.014 0.015,0.005 0.031,0.012 0.046,0.019 0.016,0.008 0.032,0.017 0.046,0.026 0.015,0.01 0.028,0.02 0.04,0.032 0.012,0.012 0.021,0.024 0.028,0.038 0.007,0.014 0.011,0.029 0.011,0.044 0,0.02 -0.006,0.039 -0.017,0.056 C 1.15,-0.209 1.136,-0.193 1.118,-0.18 1.1,-0.166 1.08,-0.154 1.058,-0.143 1.035,-0.133 1.013,-0.124 0.99,-0.116 0.967,-0.108 0.945,-0.102 0.924,-0.097 0.903,-0.092 0.884,-0.088 0.869,-0.085 0.839,-0.08 0.809,-0.076 0.778,-0.074 0.748,-0.072 0.717,-0.07 0.687,-0.07 0.656,-0.07 0.625,-0.072 0.595,-0.074 0.565,-0.076 0.534,-0.08 0.504,-0.085 0.489,-0.088 0.47,-0.092 0.449,-0.097 0.428,-0.102 0.406,-0.108 0.383,-0.116 0.361,-0.124 0.338,-0.133 0.315,-0.143 0.293,-0.154 0.273,-0.166 0.255,-0.18 0.237,-0.193 0.223,-0.209 0.212,-0.225 0.201,-0.242 0.195,-0.261 0.195,-0.281 c 0,-0.015 0.004,-0.03 0.011,-0.044 0.007,-0.014 0.016,-0.026 0.028,-0.038 0.012,-0.012 0.025,-0.022 0.04,-0.032 0.014,-0.009 0.03,-0.018 0.046,-0.026 0.015,-0.007 0.031,-0.014 0.046,-0.019 0.016,-0.006 0.029,-0.011 0.042,-0.014 0.004,-0.036 0.014,-0.068 0.03,-0.099 0.017,-0.03 0.037,-0.056 0.062,-0.078 0.025,-0.022 0.054,-0.04 0.085,-0.052 0.032,-0.013 0.066,-0.019 0.102,-0.019 0.035,0 0.069,0.006 0.101,0.019 0.031,0.012 0.06,0.03 0.085,0.052 0.025,0.022 0.045,0.048 0.062,0.078 0.016,0.031 0.026,0.063 0.03,0.099 z"
         style="fill:#ffb900;fill-rule:nonzero"
         id="path15184" /><path
         d="m 0.965,-0.457 c 0,0.006 0.001,0.012 0.002,0.018 0,0.006 0,0.012 0,0.018 v 0.09 c 0,0.015 -0.005,0.029 -0.016,0.04 -0.01,0.012 -0.023,0.022 -0.038,0.031 -0.015,0.009 -0.031,0.016 -0.047,0.021 -0.017,0.006 -0.031,0.01 -0.042,0.013 L 0.88,-0.16 c 0.011,0.013 0.017,0.028 0.017,0.045 V 0.113 L 0.844,0.096 0.792,0.113 v -0.228 c 0,-0.017 -0.006,-0.032 -0.017,-0.045 L 0.73,-0.212 C 0.716,-0.211 0.701,-0.21 0.687,-0.21 0.672,-0.21 0.657,-0.211 0.643,-0.212 L 0.598,-0.16 c -0.005,0.006 -0.01,0.013 -0.013,0.021 -0.002,0.008 -0.004,0.016 -0.004,0.024 V 0.043 L 0.529,0.025 0.476,0.043 v -0.158 c 0,-0.017 0.006,-0.032 0.017,-0.045 L 0.549,-0.226 C 0.538,-0.229 0.524,-0.233 0.507,-0.239 0.491,-0.244 0.475,-0.251 0.46,-0.26 0.445,-0.269 0.432,-0.279 0.422,-0.291 0.411,-0.302 0.406,-0.316 0.406,-0.331 v -0.09 c 0,-0.006 0,-0.012 0,-0.018 10e-4,-0.006 10e-4,-0.012 0.002,-0.018 0.004,0.015 0.012,0.027 0.024,0.038 0.012,0.01 0.027,0.02 0.043,0.027 0.017,0.008 0.035,0.015 0.055,0.02 0.02,0.005 0.039,0.009 0.058,0.012 0.02,0.003 0.038,0.006 0.055,0.007 0.017,0.001 0.032,0.002 0.044,0.002 0.011,0 0.026,-0.001 0.043,-0.002 0.017,-0.001 0.035,-0.004 0.055,-0.007 0.019,-0.003 0.038,-0.007 0.058,-0.012 0.02,-0.005 0.038,-0.012 0.054,-0.02 0.017,-0.007 0.031,-0.017 0.043,-0.027 0.012,-0.011 0.021,-0.023 0.025,-0.038 z"
         style="fill:#c30052;fill-rule:nonzero"
         id="path15186" /><path
         d="m 0.511,-0.359 c 0,-0.008 0.003,-0.014 0.008,-0.019 0.005,-0.006 0.012,-0.008 0.019,-0.008 0.005,0 0.01,0.001 0.015,0.004 0.016,0.011 0.033,0.022 0.05,0.032 0.016,0.011 0.033,0.022 0.048,0.034 0.007,0.005 0.013,0.01 0.018,0.017 0.006,0.007 0.012,0.013 0.018,0.018 -0.006,0.006 -0.012,0.012 -0.018,0.019 -0.005,0.006 -0.011,0.012 -0.018,0.016 -0.015,0.012 -0.031,0.023 -0.048,0.034 -0.018,0.011 -0.034,0.021 -0.05,0.032 -0.005,0.003 -0.01,0.004 -0.015,0.004 -0.007,0 -0.014,-0.002 -0.019,-0.008 C 0.514,-0.189 0.511,-0.195 0.511,-0.203 Z m 0.351,0 v 0.156 c 0,0.008 -0.003,0.014 -0.008,0.019 -0.005,0.006 -0.012,0.008 -0.019,0.008 -0.006,0 -0.01,-0.001 -0.015,-0.004 C 0.804,-0.191 0.788,-0.201 0.771,-0.212 0.753,-0.223 0.737,-0.234 0.722,-0.246 0.715,-0.25 0.709,-0.256 0.704,-0.262 0.698,-0.269 0.692,-0.275 0.687,-0.281 0.692,-0.286 0.698,-0.292 0.704,-0.299 0.709,-0.306 0.715,-0.311 0.722,-0.316 0.737,-0.328 0.754,-0.339 0.771,-0.35 0.787,-0.36 0.804,-0.371 0.82,-0.382 c 0.005,-0.003 0.009,-0.004 0.015,-0.004 0.007,0 0.014,0.002 0.019,0.008 0.005,0.005 0.008,0.011 0.008,0.019 z"
         style="fill:#ee3f86;fill-rule:nonzero"
         id="path15188" /><rect
         x="0.65100002"
         y="-0.31600001"
         width="0.07"
         height="0.07"
         style="fill:#970044;fill-rule:nonzero"
         id="rect15190" /></g></g></svg>
