<?xml version="1.0" encoding="UTF-8" standalone="no"?>
<svg
   width="16.844999"
   height="14.73"
   viewBox="0 0 16.844999 14.73"
   version="1.1"
   xml:space="preserve"
   style="clip-rule:evenodd;fill-rule:evenodd;stroke-linejoin:round;stroke-miterlimit:2"
   id="svg20568"
   sodipodi:docname="emojis.svg"
   xmlns:inkscape="http://www.inkscape.org/namespaces/inkscape"
   xmlns:sodipodi="http://sodipodi.sourceforge.net/DTD/sodipodi-0.dtd"
   xmlns="http://www.w3.org/2000/svg"
   xmlns:svg="http://www.w3.org/2000/svg"><defs
     id="defs20572" /><sodipodi:namedview
     id="namedview20570"
     pagecolor="#505050"
     bordercolor="#eeeeee"
     borderopacity="1"
     inkscape:pageshadow="0"
     inkscape:pageopacity="0"
     inkscape:pagecheckerboard="0" /><g
     transform="matrix(0.24,0,0,0.24,-534.4494,-768.4824)"
     id="g20566"><g
       transform="matrix(62.5,0,0,62.5,2219.06,3250.26)"
       id="g15132"><path
         d="m 0.916,-0.246 0.214,0.121 c 0.009,0.004 0.016,0.009 0.024,0.013 0.007,0.005 0.014,0.011 0.021,0.017 0.011,0.011 0.021,0.022 0.03,0.035 0.009,0.013 0.017,0.026 0.023,0.04 0.007,0.015 0.012,0.03 0.015,0.045 0.003,0.015 0.005,0.03 0.005,0.045 V 0.21 H 0.406 v -0.28 c 0,-0.008 0,-0.017 -0.001,-0.027 0,-0.009 -0.002,-0.018 -0.004,-0.027 C 0.399,-0.133 0.395,-0.141 0.39,-0.148 0.386,-0.156 0.379,-0.162 0.371,-0.166 V 0.21 H 0.125 v -0.736 c 0,-0.054 0.013,-0.101 0.038,-0.14 0.025,-0.039 0.063,-0.069 0.114,-0.088 0.012,-0.004 0.023,-0.007 0.033,-0.01 0.01,-0.002 0.021,-0.004 0.031,-0.006 0.01,-0.001 0.02,-0.002 0.031,-0.002 0.01,0 0.022,0 0.034,0 l 0.386,0.526 z"
         style="fill-rule:nonzero"
         id="path15126" /><path
         d="m 0.512,0.095 v -0.157 c 0,-0.037 -0.006,-0.07 -0.018,-0.097 C 0.482,-0.187 0.466,-0.21 0.445,-0.227 0.424,-0.245 0.399,-0.258 0.369,-0.267 0.34,-0.275 0.307,-0.28 0.271,-0.28 L 0.195,-0.316 v -0.21 c 0,-0.043 0.01,-0.078 0.029,-0.106 0.02,-0.028 0.05,-0.049 0.091,-0.061 0.009,-0.002 0.018,-0.005 0.028,-0.006 0.009,-0.002 0.018,-0.003 0.028,-0.003 l 0.386,0.526 h 0.14 c 0.034,0.019 0.067,0.037 0.1,0.055 0.033,0.018 0.066,0.037 0.099,0.057 0.007,0.004 0.014,0.008 0.021,0.013 0.007,0.005 0.013,0.01 0.019,0.016 0.006,0.007 0.011,0.014 0.016,0.023 0.006,0.008 0.01,0.017 0.014,0.026 0.004,0.01 0.006,0.019 0.009,0.029 0.002,0.009 0.003,0.019 0.003,0.027 L 1.156,0.095 Z"
         style="fill:#f03a17;fill-rule:nonzero"
         id="path15128" /><path
         d="M 0.546,0.07 H 1.178 V 0.14 H 0.476 v -0.21 c 0,-0.031 -0.003,-0.057 -0.01,-0.079 C 0.459,-0.172 0.449,-0.19 0.435,-0.204 0.421,-0.218 0.403,-0.229 0.381,-0.235 0.359,-0.242 0.332,-0.246 0.302,-0.246 V 0.14 H 0.195 V -0.316 H 0.3 c 0.037,0 0.07,0.006 0.1,0.018 0.03,0.012 0.056,0.029 0.078,0.05 0.021,0.022 0.038,0.048 0.05,0.078 0.012,0.03 0.018,0.063 0.018,0.1 z"
         style="fill:#d8b094;fill-rule:nonzero"
         id="path15130" /></g></g></svg>
