<?xml version="1.0" encoding="UTF-8" standalone="no"?>
<svg
   width="16.844999"
   height="13.68"
   viewBox="0 0 16.844999 13.68"
   version="1.1"
   xml:space="preserve"
   style="clip-rule:evenodd;fill-rule:evenodd;stroke-linejoin:round;stroke-miterlimit:2"
   id="svg20568"
   sodipodi:docname="emojis.svg"
   xmlns:inkscape="http://www.inkscape.org/namespaces/inkscape"
   xmlns:sodipodi="http://sodipodi.sourceforge.net/DTD/sodipodi-0.dtd"
   xmlns="http://www.w3.org/2000/svg"
   xmlns:svg="http://www.w3.org/2000/svg"><defs
     id="defs20572" /><sodipodi:namedview
     id="namedview20570"
     pagecolor="#505050"
     bordercolor="#eeeeee"
     borderopacity="1"
     inkscape:pageshadow="0"
     inkscape:pageopacity="0"
     inkscape:pagecheckerboard="0" /><g
     transform="matrix(0.24,0,0,0.24,-614.2014,-767.9574)"
     id="g20566"><g
       transform="matrix(62.5,0,0,62.5,2551.36,3250.26)"
       id="g15180"><path
         d="m 1.213,-0.303 c 0.011,0.012 0.02,0.027 0.026,0.043 0.006,0.016 0.009,0.033 0.009,0.05 0,0.012 -10e-4,0.023 -0.005,0.035 -0.003,0.012 -0.007,0.023 -0.014,0.033 0.006,0.008 0.011,0.016 0.014,0.026 0.003,0.009 0.005,0.018 0.005,0.028 0,0.01 -10e-4,0.019 -0.004,0.028 -0.003,0.009 -0.008,0.017 -0.014,0.025 0.012,0.015 0.018,0.033 0.018,0.053 0,0.012 -0.002,0.023 -0.007,0.034 C 1.237,0.062 1.23,0.071 1.222,0.079 1.214,0.087 1.205,0.094 1.194,0.098 1.184,0.103 1.172,0.105 1.16,0.105 H 0.213 C 0.201,0.105 0.189,0.103 0.179,0.098 0.168,0.094 0.159,0.087 0.151,0.079 0.143,0.071 0.136,0.062 0.132,0.052 0.127,0.041 0.125,0.03 0.125,0.018 0.125,-0.002 0.131,-0.02 0.143,-0.035 0.137,-0.043 0.132,-0.051 0.129,-0.06 0.126,-0.069 0.125,-0.078 0.125,-0.088 c 0,-0.01 0.002,-0.019 0.005,-0.028 0.003,-0.01 0.008,-0.018 0.014,-0.026 C 0.137,-0.152 0.133,-0.163 0.13,-0.175 0.127,-0.187 0.125,-0.198 0.125,-0.21 c 0,-0.017 0.003,-0.034 0.009,-0.05 0.006,-0.016 0.015,-0.031 0.026,-0.043 v -0.264 c 0,-0.002 0,-0.004 0.001,-0.006 C 0.149,-0.586 0.14,-0.601 0.134,-0.617 0.128,-0.633 0.125,-0.65 0.125,-0.667 c 0,-0.019 0.004,-0.037 0.011,-0.054 0.007,-0.018 0.017,-0.032 0.03,-0.045 0.013,-0.013 0.028,-0.023 0.045,-0.03 0.017,-0.007 0.035,-0.011 0.054,-0.011 0.015,0 0.03,0.002 0.043,0.007 0.014,0.004 0.027,0.011 0.038,0.019 0.012,0.008 0.022,0.018 0.031,0.029 0.009,0.012 0.016,0.025 0.021,0.039 0.023,-0.016 0.049,-0.024 0.078,-0.024 0.029,0 0.055,0.008 0.078,0.024 0.005,-0.014 0.012,-0.027 0.021,-0.039 0.008,-0.011 0.019,-0.021 0.03,-0.029 0.012,-0.008 0.024,-0.015 0.038,-0.019 0.014,-0.005 0.029,-0.007 0.044,-0.007 0.014,0 0.029,0.002 0.043,0.007 0.014,0.004 0.026,0.011 0.038,0.019 0.011,0.008 0.022,0.018 0.03,0.029 0.009,0.012 0.016,0.025 0.021,0.039 0.023,-0.016 0.049,-0.024 0.078,-0.024 0.029,0 0.055,0.008 0.078,0.024 0.005,-0.014 0.012,-0.027 0.021,-0.039 0.008,-0.011 0.019,-0.021 0.03,-0.029 0.012,-0.008 0.024,-0.015 0.038,-0.019 0.014,-0.005 0.028,-0.007 0.043,-0.007 0.02,0 0.038,0.004 0.055,0.011 0.017,0.007 0.032,0.017 0.045,0.03 0.012,0.013 0.022,0.027 0.03,0.045 0.007,0.017 0.011,0.035 0.011,0.054 0,0.017 -0.003,0.034 -0.009,0.05 -0.006,0.016 -0.015,0.031 -0.027,0.044 0.001,0.002 0.001,0.004 0.001,0.006 z"
         style="fill-rule:nonzero"
         id="path15162" /><path
         d="m 0.967,-0.597 c 0,0.01 -0.002,0.019 -0.005,0.027 -0.004,0.008 -0.008,0.016 -0.014,0.022 -0.007,0.006 -0.014,0.011 -0.022,0.015 -0.008,0.004 -0.017,0.006 -0.026,0.007 0.01,0 0.019,0.003 0.028,0.009 0.009,0.005 0.015,0.013 0.02,0.022 l 0.125,0.249 H 0.722 L 0.846,-0.495 C 0.851,-0.504 0.857,-0.512 0.866,-0.517 0.875,-0.523 0.884,-0.526 0.894,-0.526 0.885,-0.527 0.876,-0.529 0.868,-0.533 0.86,-0.537 0.852,-0.542 0.846,-0.548 0.84,-0.554 0.835,-0.562 0.832,-0.57 0.828,-0.578 0.827,-0.587 0.827,-0.597 c 0,-0.009 0.002,-0.019 0.005,-0.027 0.004,-0.008 0.009,-0.016 0.015,-0.022 0.007,-0.007 0.014,-0.012 0.023,-0.015 0.008,-0.004 0.017,-0.006 0.027,-0.006 0.01,0 0.019,0.002 0.027,0.006 0.009,0.003 0.016,0.008 0.023,0.015 0.006,0.006 0.011,0.014 0.015,0.022 0.003,0.008 0.005,0.018 0.005,0.027 z m -0.421,0 c 0,0.01 -0.002,0.019 -0.005,0.027 -0.004,0.008 -0.008,0.016 -0.015,0.022 -0.006,0.006 -0.013,0.011 -0.021,0.015 -0.008,0.004 -0.017,0.006 -0.026,0.007 0.01,0 0.019,0.003 0.028,0.009 0.009,0.005 0.015,0.013 0.02,0.022 l 0.124,0.249 H 0.3 L 0.425,-0.495 C 0.43,-0.504 0.436,-0.512 0.445,-0.517 0.453,-0.523 0.463,-0.526 0.473,-0.526 0.464,-0.527 0.455,-0.529 0.447,-0.533 0.439,-0.537 0.431,-0.542 0.425,-0.548 0.419,-0.554 0.414,-0.562 0.411,-0.57 0.407,-0.578 0.406,-0.587 0.406,-0.597 c 0,-0.009 0.002,-0.019 0.005,-0.027 0.004,-0.008 0.009,-0.016 0.016,-0.022 0.006,-0.007 0.013,-0.012 0.022,-0.015 0.008,-0.004 0.017,-0.006 0.027,-0.006 0.01,0 0.019,0.002 0.027,0.006 0.009,0.003 0.016,0.008 0.023,0.015 0.006,0.006 0.011,0.014 0.015,0.022 0.003,0.008 0.005,0.018 0.005,0.027 z"
         style="fill:#d48c00;fill-rule:nonzero"
         id="path15164" /><path
         d="m 0.265,-0.281 c 0.01,0 0.019,0.002 0.027,0.006 0.009,0.004 0.016,0.009 0.023,0.015 0.006,0.006 0.011,0.014 0.015,0.022 0.004,0.009 0.005,0.018 0.005,0.028 0,0.009 -0.001,0.018 -0.005,0.027 -0.004,0.008 -0.009,0.016 -0.015,0.022 -0.007,0.006 -0.014,0.011 -0.023,0.015 -0.008,0.004 -0.017,0.005 -0.027,0.005 -0.01,0 -0.019,-0.001 -0.027,-0.005 C 0.229,-0.15 0.222,-0.155 0.216,-0.161 0.209,-0.167 0.204,-0.175 0.201,-0.183 0.197,-0.192 0.195,-0.201 0.195,-0.21 c 0,-0.01 0.002,-0.019 0.006,-0.028 0.003,-0.008 0.008,-0.016 0.015,-0.022 0.006,-0.006 0.013,-0.011 0.022,-0.015 0.008,-0.004 0.017,-0.006 0.027,-0.006 z m 0.842,0 c 0.01,0 0.019,0.002 0.028,0.006 0.008,0.004 0.016,0.009 0.022,0.015 0.006,0.006 0.011,0.014 0.015,0.022 0.004,0.009 0.006,0.018 0.006,0.028 0,0.009 -0.002,0.018 -0.006,0.027 C 1.168,-0.175 1.163,-0.167 1.157,-0.161 1.151,-0.155 1.143,-0.15 1.135,-0.146 1.126,-0.142 1.117,-0.141 1.107,-0.141 1.098,-0.141 1.089,-0.142 1.08,-0.146 1.072,-0.15 1.064,-0.155 1.058,-0.161 1.052,-0.167 1.047,-0.175 1.043,-0.183 1.039,-0.192 1.038,-0.201 1.038,-0.21 c 0,-0.01 10e-4,-0.019 0.005,-0.028 0.004,-0.008 0.009,-0.016 0.015,-0.022 0.006,-0.006 0.014,-0.011 0.022,-0.015 0.009,-0.004 0.018,-0.006 0.027,-0.006 z"
         style="fill:#f03a17;fill-rule:nonzero"
         id="path15166" /><path
         d="m 1.107,-0.597 c 0.01,0 0.018,0.004 0.025,0.011 0.007,0.006 0.011,0.015 0.011,0.024 v 0.58 H 0.23 v -0.58 c 0,-0.009 0.003,-0.017 0.01,-0.023 0.006,-0.007 0.013,-0.011 0.022,-0.012 h 0.006 c 0.01,0.001 0.02,0.004 0.028,0.01 0.009,0.005 0.015,0.012 0.02,0.022 l 0.109,0.218 c 0.005,0.009 0.012,0.017 0.021,0.023 0.009,0.005 0.019,0.008 0.03,0.008 0.01,0 0.02,-0.003 0.03,-0.008 0.009,-0.006 0.016,-0.014 0.021,-0.023 l 0.109,-0.218 c 0.004,-0.01 0.011,-0.017 0.021,-0.023 0.009,-0.006 0.019,-0.009 0.03,-0.009 0.01,0 0.02,0.003 0.029,0.009 0.01,0.006 0.017,0.013 0.021,0.023 l 0.109,0.218 c 0.005,0.009 0.012,0.017 0.021,0.023 0.01,0.005 0.02,0.008 0.03,0.008 0.011,0 0.021,-0.003 0.03,-0.008 0.009,-0.006 0.016,-0.014 0.021,-0.023 l 0.109,-0.218 c 0.004,-0.01 0.011,-0.017 0.019,-0.022 0.009,-0.006 0.018,-0.009 0.028,-0.01 z m -0.35,-0.07 c 0,0.01 -0.002,0.019 -0.006,0.027 -0.004,0.009 -0.009,0.016 -0.015,0.023 -0.006,0.006 -0.014,0.011 -0.022,0.015 -0.009,0.003 -0.018,0.005 -0.027,0.005 -0.01,0 -0.019,-0.002 -0.028,-0.005 C 0.651,-0.606 0.643,-0.611 0.637,-0.617 0.631,-0.624 0.626,-0.631 0.622,-0.64 0.618,-0.648 0.616,-0.657 0.616,-0.667 c 0,-0.01 0.002,-0.019 0.006,-0.027 0.004,-0.009 0.009,-0.016 0.015,-0.023 0.006,-0.006 0.014,-0.011 0.022,-0.015 0.009,-0.003 0.018,-0.005 0.028,-0.005 0.009,0 0.018,0.002 0.027,0.005 0.008,0.004 0.016,0.009 0.022,0.015 0.006,0.007 0.011,0.014 0.015,0.023 0.004,0.008 0.006,0.017 0.006,0.027 z m -0.422,0 c 0,0.009 -0.001,0.018 -0.005,0.027 -0.003,0.008 -0.008,0.016 -0.014,0.022 -0.006,0.006 -0.013,0.011 -0.022,0.015 -0.008,0.004 -0.016,0.006 -0.026,0.006 H 0.262 C 0.253,-0.597 0.244,-0.599 0.236,-0.603 0.228,-0.607 0.221,-0.612 0.215,-0.618 0.209,-0.625 0.204,-0.632 0.2,-0.64 0.197,-0.649 0.195,-0.658 0.195,-0.667 c 0,-0.01 0.002,-0.019 0.006,-0.027 0.003,-0.009 0.008,-0.016 0.015,-0.023 0.006,-0.006 0.013,-0.011 0.022,-0.015 0.008,-0.003 0.017,-0.005 0.027,-0.005 0.01,0 0.019,0.002 0.027,0.005 0.009,0.004 0.016,0.009 0.023,0.015 0.006,0.007 0.011,0.014 0.015,0.023 0.004,0.008 0.005,0.017 0.005,0.027 z m 0.843,0 c 0,0.01 -0.002,0.019 -0.006,0.028 -0.004,0.008 -0.009,0.016 -0.015,0.022 -0.006,0.006 -0.014,0.011 -0.022,0.015 -0.009,0.004 -0.018,0.005 -0.028,0.005 H 1.104 C 1.095,-0.597 1.086,-0.599 1.078,-0.603 1.07,-0.607 1.063,-0.612 1.057,-0.618 1.051,-0.625 1.046,-0.632 1.043,-0.64 1.039,-0.649 1.038,-0.658 1.038,-0.667 c 0,-0.01 10e-4,-0.019 0.005,-0.027 0.004,-0.009 0.009,-0.016 0.015,-0.023 0.006,-0.006 0.014,-0.011 0.022,-0.015 0.009,-0.003 0.018,-0.005 0.027,-0.005 0.01,0 0.019,0.002 0.028,0.005 0.008,0.004 0.016,0.009 0.022,0.015 0.006,0.007 0.011,0.014 0.015,0.023 0.004,0.008 0.006,0.017 0.006,0.027 z"
         style="fill:#ffc83d;fill-rule:nonzero"
         id="path15168" /><path
         d="M 1.16,0.035 H 0.213 C 0.208,0.035 0.204,0.033 0.2,0.03 0.197,0.027 0.195,0.022 0.195,0.018 0.195,0.013 0.197,0.009 0.2,0.005 0.204,0.002 0.208,0 0.213,0 H 1.16 C 1.165,0 1.169,0.002 1.173,0.005 1.176,0.009 1.178,0.013 1.178,0.018 1.178,0.022 1.176,0.027 1.173,0.03 1.169,0.033 1.165,0.035 1.16,0.035 Z m 0,-0.105 H 0.213 C 0.208,-0.07 0.204,-0.072 0.2,-0.075 0.197,-0.079 0.195,-0.083 0.195,-0.088 0.195,-0.093 0.197,-0.097 0.2,-0.1 0.204,-0.104 0.208,-0.105 0.213,-0.105 H 1.16 c 0.005,0 0.009,0.001 0.013,0.005 0.003,0.003 0.005,0.007 0.005,0.012 0,0.005 -0.002,0.009 -0.005,0.013 C 1.169,-0.072 1.165,-0.07 1.16,-0.07 Z"
         style="fill:#eba300;fill-rule:nonzero"
         id="path15170" /><path
         d="m 0.967,-0.281 c 0.01,0 0.019,0.002 0.028,0.006 0.008,0.004 0.015,0.009 0.022,0.015 0.006,0.006 0.011,0.014 0.015,0.022 0.004,0.009 0.006,0.018 0.006,0.028 0,0.009 -0.002,0.018 -0.006,0.027 C 1.028,-0.175 1.023,-0.167 1.017,-0.161 1.01,-0.155 1.003,-0.15 0.995,-0.146 0.986,-0.142 0.977,-0.141 0.967,-0.141 0.958,-0.141 0.948,-0.142 0.94,-0.146 0.931,-0.15 0.924,-0.155 0.918,-0.161 0.911,-0.167 0.906,-0.175 0.903,-0.183 0.899,-0.192 0.897,-0.201 0.897,-0.21 c 0,-0.01 0.002,-0.019 0.006,-0.028 0.003,-0.008 0.008,-0.016 0.015,-0.022 0.006,-0.006 0.013,-0.011 0.022,-0.015 0.008,-0.004 0.018,-0.006 0.027,-0.006 z m -0.561,0 c 0.01,0 0.019,0.002 0.027,0.006 0.009,0.004 0.016,0.009 0.022,0.015 0.007,0.006 0.012,0.014 0.015,0.022 0.004,0.009 0.006,0.018 0.006,0.028 0,0.009 -0.002,0.018 -0.006,0.027 -0.003,0.008 -0.008,0.016 -0.015,0.022 -0.006,0.006 -0.013,0.011 -0.022,0.015 -0.008,0.004 -0.017,0.005 -0.027,0.005 -0.01,0 -0.019,-0.001 -0.028,-0.005 C 0.37,-0.15 0.363,-0.155 0.356,-0.161 0.35,-0.167 0.345,-0.175 0.341,-0.183 0.337,-0.192 0.335,-0.201 0.335,-0.21 0.335,-0.22 0.337,-0.229 0.341,-0.238 0.345,-0.246 0.35,-0.254 0.356,-0.26 0.363,-0.266 0.37,-0.271 0.378,-0.275 0.387,-0.279 0.396,-0.281 0.406,-0.281 Z"
         style="fill:#b4009e;fill-rule:nonzero"
         id="path15172" /><path
         d="m 0.415,-0.228 c 0,0.007 -0.003,0.013 -0.008,0.019 -0.005,0.005 -0.012,0.007 -0.019,0.007 -0.007,0 -0.013,-0.002 -0.018,-0.007 -0.006,-0.006 -0.008,-0.012 -0.008,-0.019 0,-0.008 0.002,-0.014 0.007,-0.019 0.005,-0.005 0.012,-0.007 0.019,-0.007 0.008,0 0.014,0.002 0.019,0.007 0.005,0.005 0.008,0.011 0.008,0.019 z m 0.561,0 c 0,0.007 -0.003,0.013 -0.008,0.019 -0.005,0.005 -0.011,0.007 -0.018,0.007 -0.007,0 -0.014,-0.002 -0.019,-0.007 -0.005,-0.006 -0.008,-0.012 -0.008,-0.019 0,-0.008 0.003,-0.014 0.008,-0.019 0.005,-0.005 0.011,-0.007 0.019,-0.007 0.007,0 0.013,0.002 0.019,0.007 0.005,0.005 0.007,0.011 0.007,0.019 z"
         style="fill:#cc76ca;fill-rule:nonzero"
         id="path15174" /><path
         d="m 0.687,-0.316 c 0.012,0 0.023,0.002 0.034,0.007 0.01,0.004 0.02,0.011 0.028,0.019 0.008,0.008 0.014,0.017 0.019,0.028 0.004,0.011 0.006,0.022 0.006,0.034 0,0.012 -0.002,0.023 -0.006,0.034 -0.005,0.01 -0.011,0.02 -0.019,0.028 -0.008,0.008 -0.018,0.014 -0.028,0.019 -0.011,0.004 -0.022,0.006 -0.034,0.006 -0.013,0 -0.024,-0.002 -0.035,-0.006 C 0.642,-0.152 0.632,-0.158 0.624,-0.166 0.616,-0.174 0.61,-0.184 0.605,-0.194 0.601,-0.205 0.599,-0.216 0.599,-0.228 c 0,-0.012 0.002,-0.023 0.006,-0.034 0.005,-0.011 0.011,-0.02 0.019,-0.028 0.008,-0.008 0.018,-0.015 0.028,-0.019 0.011,-0.005 0.022,-0.007 0.035,-0.007 z"
         style="fill:#0099bc;fill-rule:nonzero"
         id="path15176" /><path
         d="m 0.704,-0.263 c 0,0.009 -0.003,0.017 -0.01,0.024 -0.007,0.007 -0.016,0.011 -0.025,0.011 -0.009,0 -0.018,-0.004 -0.025,-0.011 -0.007,-0.007 -0.01,-0.015 -0.01,-0.024 0,-0.01 0.003,-0.018 0.01,-0.025 0.007,-0.007 0.015,-0.01 0.025,-0.01 0.01,0 0.018,0.003 0.025,0.01 0.007,0.007 0.01,0.015 0.01,0.025 z"
         style="fill:#00bcf2;fill-rule:nonzero"
         id="path15178" /></g></g></svg>
