<?xml version="1.0" encoding="UTF-8" standalone="no"?>
<svg
   width="16.844999"
   height="8.415"
   viewBox="0 0 16.844999 8.415"
   version="1.1"
   xml:space="preserve"
   style="clip-rule:evenodd;fill-rule:evenodd;stroke-linejoin:round;stroke-miterlimit:2"
   id="svg20568"
   sodipodi:docname="emojis.svg"
   xmlns:inkscape="http://www.inkscape.org/namespaces/inkscape"
   xmlns:sodipodi="http://sodipodi.sourceforge.net/DTD/sodipodi-0.dtd"
   xmlns="http://www.w3.org/2000/svg"
   xmlns:svg="http://www.w3.org/2000/svg"><defs
     id="defs20572" /><sodipodi:namedview
     id="namedview20570"
     pagecolor="#505050"
     bordercolor="#eeeeee"
     borderopacity="1"
     inkscape:pageshadow="0"
     inkscape:pageopacity="0"
     inkscape:pagecheckerboard="0" /><g
     transform="matrix(0.24,0,0,0.24,-555.0438,-774.7974)"
     id="g20566"><g
       transform="matrix(62.5,0,0,62.5,2304.87,3250.26)"
       id="g15140"><path
         d="m 0.774,-0.301 0.474,0.266 v 0.07 c 0,0.026 -0.004,0.049 -0.013,0.07 C 1.226,0.127 1.213,0.145 1.197,0.161 1.181,0.176 1.163,0.188 1.141,0.197 1.12,0.206 1.096,0.21 1.071,0.21 H 0.511 V 0.171 c 0,-0.017 0,-0.035 -0.001,-0.053 C 0.508,0.099 0.505,0.082 0.501,0.065 0.496,0.048 0.489,0.033 0.479,0.019 0.47,0.004 0.457,-0.008 0.441,-0.018 V 0.21 H 0.125 v -0.561 h 0.246 c 0.03,0 0.06,0.003 0.09,0.01 0.03,0.007 0.059,0.017 0.087,0.03 0.029,0.013 0.056,0.028 0.081,0.046 0.025,0.018 0.048,0.038 0.068,0.06 z"
         style="fill-rule:nonzero"
         id="path15134" /><path
         d="m 0.195,-0.281 h 0.176 c 0.023,0 0.047,0.003 0.07,0.008 0.023,0.006 0.045,0.013 0.067,0.022 0.031,0.012 0.059,0.027 0.085,0.046 0.026,0.018 0.048,0.04 0.067,0.064 0.019,0.024 0.034,0.051 0.045,0.081 0.011,0.029 0.017,0.061 0.017,0.095 H 1.178 C 1.177,0.051 1.174,0.065 1.169,0.078 1.164,0.091 1.156,0.102 1.147,0.111 1.138,0.12 1.127,0.128 1.114,0.133 1.101,0.138 1.087,0.14 1.071,0.14 H 0.581 C 0.581,0.108 0.577,0.076 0.568,0.047 0.559,0.017 0.547,-0.009 0.529,-0.031 0.512,-0.054 0.49,-0.072 0.464,-0.085 0.437,-0.099 0.406,-0.105 0.371,-0.105 V 0.14 H 0.195 Z"
         style="fill:#d8b094;fill-rule:nonzero"
         id="path15136" /><path
         d="M 1.107,-0.035 1.002,0.105 H 0.757 C 0.738,0.105 0.722,0.101 0.709,0.092 0.696,0.083 0.685,0.072 0.676,0.059 0.668,0.045 0.662,0.03 0.657,0.014 0.653,-0.003 0.651,-0.019 0.651,-0.035 L 0.792,-0.21 Z"
         style="fill:#f03a17;fill-rule:nonzero"
         id="path15138" /></g></g></svg>
