<?xml version="1.0" encoding="UTF-8" standalone="no"?>
<svg
   width="10.005"
   height="16.844999"
   viewBox="0 0 10.005 16.844999"
   version="1.1"
   xml:space="preserve"
   style="clip-rule:evenodd;fill-rule:evenodd;stroke-linejoin:round;stroke-miterlimit:2"
   id="svg20568"
   sodipodi:docname="emojis.svg"
   xmlns:inkscape="http://www.inkscape.org/namespaces/inkscape"
   xmlns:sodipodi="http://sodipodi.sourceforge.net/DTD/sodipodi-0.dtd"
   xmlns="http://www.w3.org/2000/svg"
   xmlns:svg="http://www.w3.org/2000/svg"><defs
     id="defs20572" /><sodipodi:namedview
     id="namedview20570"
     pagecolor="#505050"
     bordercolor="#eeeeee"
     borderopacity="1"
     inkscape:pageshadow="0"
     inkscape:pageopacity="0"
     inkscape:pagecheckerboard="0" /><g
     transform="matrix(0.24,0,0,0.24,-308.0286,-127.68924)"
     id="g20566"><g
       transform="matrix(62.5,0,0,62.5,1275.64,589.101)"
       id="g1514"><path
         d="M 0.23,0.21 V 0.001 c 0,-0.002 0,-0.004 -0.001,-0.007 C 0.227,-0.009 0.226,-0.012 0.224,-0.015 0.222,-0.018 0.22,-0.021 0.218,-0.023 0.216,-0.026 0.215,-0.028 0.213,-0.03 0.21,-0.034 0.206,-0.039 0.201,-0.042 0.197,-0.046 0.193,-0.05 0.188,-0.054 0.179,-0.063 0.17,-0.072 0.162,-0.081 0.155,-0.089 0.148,-0.099 0.143,-0.108 0.137,-0.118 0.133,-0.128 0.13,-0.139 0.127,-0.15 0.125,-0.162 0.125,-0.176 V -0.79 c 0,-0.016 0.003,-0.032 0.01,-0.047 0.006,-0.015 0.015,-0.028 0.026,-0.039 0.011,-0.012 0.024,-0.02 0.039,-0.027 0.015,-0.006 0.031,-0.01 0.048,-0.01 0.017,0 0.033,0.004 0.048,0.01 0.014,0.007 0.027,0.016 0.038,0.027 0.012,0.011 0.02,0.024 0.027,0.039 0.006,0.015 0.01,0.031 0.01,0.047 v 0.193 H 0.546 V -0.79 c 0,-0.016 0.003,-0.032 0.01,-0.047 0.006,-0.015 0.015,-0.028 0.026,-0.039 0.011,-0.012 0.024,-0.02 0.039,-0.027 0.015,-0.006 0.031,-0.01 0.048,-0.01 0.017,0 0.033,0.004 0.048,0.01 0.015,0.007 0.028,0.015 0.039,0.027 0.011,0.011 0.02,0.024 0.026,0.039 0.007,0.015 0.01,0.031 0.01,0.047 v 0.614 c 0,0.017 -0.003,0.032 -0.008,0.045 -0.005,0.013 -0.012,0.026 -0.019,0.037 -0.008,0.011 -0.017,0.021 -0.026,0.03 C 0.73,-0.055 0.722,-0.047 0.714,-0.04 0.706,-0.032 0.7,-0.025 0.694,-0.019 0.689,-0.012 0.687,-0.006 0.687,0.001 V 0.21 Z"
         style="fill-rule:nonzero"
         id="path1508" /><path
         d="m 0.669,-0.842 c 0.008,0 0.014,0.002 0.021,0.004 0.006,0.003 0.012,0.007 0.017,0.012 0.004,0.005 0.008,0.01 0.011,0.017 0.003,0.006 0.004,0.013 0.004,0.02 v 0.431 c 0,0.005 -0.001,0.009 -0.003,0.013 -0.002,0.004 -0.003,0.008 -0.003,0.012 0,0.011 0.001,0.021 0.003,0.031 0.001,0.01 0.003,0.02 0.003,0.031 0,0.005 0.001,0.01 0.001,0.016 v 0.016 l -0.001,0.064 c 0,0.011 -0.002,0.021 -0.008,0.031 -0.005,0.009 -0.011,0.018 -0.019,0.026 -0.008,0.009 -0.016,0.017 -0.026,0.025 -0.009,0.009 -0.017,0.018 -0.025,0.027 -0.008,0.01 -0.014,0.02 -0.019,0.031 -0.006,0.011 -0.008,0.023 -0.008,0.036 v 0.14 H 0.301 V 0.001 C 0.301,-0.013 0.298,-0.025 0.293,-0.036 0.288,-0.047 0.281,-0.057 0.273,-0.066 0.266,-0.076 0.257,-0.085 0.248,-0.093 0.239,-0.101 0.231,-0.109 0.223,-0.118 0.215,-0.126 0.209,-0.135 0.204,-0.144 0.198,-0.153 0.196,-0.163 0.196,-0.175 v -0.614 c 0,-0.007 0.001,-0.014 0.004,-0.02 0.003,-0.007 0.007,-0.012 0.011,-0.017 0.005,-0.005 0.011,-0.009 0.017,-0.012 0.007,-0.002 0.013,-0.004 0.021,-0.004 0.007,0 0.013,0.002 0.02,0.004 0.006,0.003 0.012,0.007 0.016,0.012 0.005,0.005 0.009,0.01 0.012,0.017 0.002,0.006 0.004,0.013 0.004,0.02 v 0.263 l 0.017,0.007 0.017,-0.007 h 0.106 l 0.017,0.007 0.017,-0.007 H 0.581 L 0.6,-0.519 0.617,-0.526 v -0.263 c 0,-0.007 0.001,-0.014 0.004,-0.02 0.003,-0.007 0.006,-0.012 0.011,-0.017 0.005,-0.005 0.011,-0.009 0.017,-0.012 0.007,-0.002 0.013,-0.004 0.02,-0.004 z"
         style="fill:#ffc83d;fill-rule:nonzero"
         id="path1510" /><path
         d="m 0.616,-0.42 c 0.021,0.002 0.04,0.009 0.059,0.019 0.018,0.01 0.034,0.023 0.047,0.04 v 0.098 C 0.722,-0.28 0.718,-0.296 0.712,-0.311 0.705,-0.326 0.697,-0.339 0.686,-0.35 0.674,-0.361 0.661,-0.37 0.646,-0.376 0.632,-0.383 0.616,-0.386 0.599,-0.386 H 0.318 c -0.007,0 -0.014,0.001 -0.02,0.004 -0.007,0.003 -0.012,0.007 -0.017,0.011 -0.005,0.005 -0.009,0.011 -0.012,0.017 -0.002,0.007 -0.004,0.013 -0.004,0.021 0,0.007 0.002,0.013 0.004,0.02 0.003,0.006 0.007,0.012 0.012,0.017 0.005,0.004 0.01,0.008 0.017,0.011 0.006,0.003 0.013,0.004 0.02,0.004 h 0.105 c 0.005,0 0.009,0.002 0.013,0.005 0.003,0.004 0.005,0.008 0.005,0.013 v 0.14 c 0,0.005 -0.002,0.009 -0.005,0.012 -0.004,0.004 -0.008,0.006 -0.013,0.006 -0.005,0 -0.009,-0.002 -0.012,-0.006 C 0.407,-0.114 0.406,-0.118 0.406,-0.123 V -0.246 H 0.318 C 0.306,-0.246 0.295,-0.248 0.284,-0.252 0.273,-0.257 0.264,-0.263 0.256,-0.271 0.248,-0.279 0.242,-0.289 0.237,-0.299 0.233,-0.31 0.23,-0.321 0.23,-0.333 c 0,-0.011 0.002,-0.02 0.006,-0.03 C 0.239,-0.373 0.244,-0.381 0.25,-0.389 0.256,-0.397 0.264,-0.403 0.272,-0.408 0.281,-0.414 0.29,-0.417 0.3,-0.419 v -0.107 h 0.035 v 0.105 h 0.106 v -0.105 h 0.035 v 0.105 h 0.105 v -0.105 h 0.035 z"
         style="fill:#d48c00;fill-rule:nonzero"
         id="path1512" /></g></g></svg>
