<?xml version="1.0" encoding="UTF-8" standalone="no"?>
<svg
   width="16.844999"
   height="6.3000002"
   viewBox="0 0 16.844999 6.3000002"
   version="1.1"
   xml:space="preserve"
   style="clip-rule:evenodd;fill-rule:evenodd;stroke-linejoin:round;stroke-miterlimit:2"
   id="svg20568"
   sodipodi:docname="emojis.svg"
   xmlns:inkscape="http://www.inkscape.org/namespaces/inkscape"
   xmlns:sodipodi="http://sodipodi.sourceforge.net/DTD/sodipodi-0.dtd"
   xmlns="http://www.w3.org/2000/svg"
   xmlns:svg="http://www.w3.org/2000/svg"><defs
     id="defs20572" /><sodipodi:namedview
     id="namedview20570"
     pagecolor="#505050"
     bordercolor="#eeeeee"
     borderopacity="1"
     inkscape:pageshadow="0"
     inkscape:pageopacity="0"
     inkscape:pagecheckerboard="0" /><g
     transform="matrix(0.24,0,0,0.24,-513.8526,-776.9124)"
     id="g20566"><g
       transform="matrix(62.5,0,0,62.5,2133.24,3250.26)"
       id="g15124"><path
         d="M 0.794,0.21 C 0.765,0.21 0.737,0.208 0.708,0.203 L 0.546,0.176 V 0.21 H 0.16 V 0.126 C 0.149,0.108 0.14,0.088 0.134,0.068 0.128,0.047 0.125,0.026 0.125,0.004 c 0,-0.021 0.003,-0.042 0.009,-0.062 L 0.16,-0.15 C 0.167,-0.172 0.178,-0.187 0.194,-0.197 0.21,-0.206 0.229,-0.21 0.25,-0.21 c 0.017,0 0.035,0.002 0.052,0.008 l 0.323,0.108 c 0.025,0.008 0.049,0.014 0.074,0.018 0.025,0.004 0.05,0.006 0.075,0.006 0.03,0 0.06,-0.003 0.09,-0.009 0.002,-0.009 0.006,-0.017 0.01,-0.025 0.005,-0.007 0.011,-0.013 0.018,-0.019 0.006,-0.005 0.014,-0.009 0.023,-0.012 0.008,-0.004 0.017,-0.005 0.026,-0.005 h 0.053 c 0.013,0 0.025,0.003 0.037,0.009 0.011,0.006 0.021,0.015 0.028,0.026 h 0.059 c 0.018,0 0.035,0.003 0.051,0.01 0.015,0.007 0.029,0.016 0.041,0.028 0.012,0.012 0.021,0.026 0.028,0.041 0.007,0.016 0.01,0.033 0.01,0.051 0,0.014 -0.002,0.028 -0.006,0.041 C 1.237,0.079 1.232,0.091 1.224,0.102 1.216,0.113 1.207,0.123 1.196,0.131 1.185,0.139 1.173,0.146 1.159,0.15 L 1.06,0.184 C 1.041,0.19 1.024,0.195 1.007,0.198 0.99,0.202 0.973,0.205 0.957,0.206 0.94,0.208 0.924,0.209 0.907,0.21 c -0.016,0 -0.033,0 -0.051,0 z"
         style="fill-rule:nonzero"
         id="path15116" /><path
         d="M 0.209,0.07 C 0.2,0.049 0.195,0.027 0.195,0.004 c 0,-0.01 0.001,-0.02 0.003,-0.03 0.002,-0.011 0.005,-0.021 0.008,-0.031 0.002,-0.011 0.006,-0.021 0.009,-0.031 0.003,-0.01 0.006,-0.02 0.009,-0.03 l 0.371,0.102 c 0.019,0.005 0.04,0.009 0.064,0.013 C 0.683,0 0.708,0.003 0.733,0.005 0.758,0.007 0.783,0.008 0.807,0.009 0.832,0.01 0.854,0.01 0.874,0.01 l 0.093,-0.045 h 0.151 c 0.009,0 0.017,0.001 0.024,0.005 0.007,0.003 0.014,0.007 0.019,0.013 0.005,0.006 0.009,0.012 0.012,0.02 C 1.176,0.01 1.178,0.018 1.178,0.027 1.178,0.035 1.176,0.043 1.173,0.05 1.17,0.057 1.165,0.064 1.159,0.07 1.159,0.071 1.155,0.072 1.148,0.073 1.141,0.075 1.132,0.077 1.12,0.079 1.109,0.081 1.096,0.083 1.082,0.085 1.068,0.088 1.053,0.09 1.038,0.093 1.022,0.095 1.007,0.097 0.992,0.1 0.977,0.102 0.964,0.104 0.951,0.106 L 0.901,0.114 C 0.894,0.115 0.885,0.117 0.876,0.119 0.867,0.121 0.858,0.122 0.851,0.122 0.838,0.122 0.825,0.121 0.812,0.119 0.799,0.118 0.786,0.116 0.773,0.115 L 0.63,0.103 C 0.56,0.097 0.49,0.091 0.42,0.085 0.35,0.08 0.28,0.075 0.209,0.07 Z"
         style="fill:#3a96dd;fill-rule:nonzero"
         id="path15118" /><path
         d="M 0.774,0 C 0.808,0 0.841,-0.003 0.872,-0.01 0.904,-0.016 0.936,-0.024 0.967,-0.035 V 0.001 C 0.937,0.013 0.905,0.021 0.872,0.027 0.84,0.032 0.807,0.035 0.774,0.035 0.743,0.035 0.712,0.033 0.682,0.028 0.652,0.023 0.622,0.015 0.592,0.005 L 0.224,-0.118 c 0,-0.002 0.001,-0.004 0.001,-0.007 0.001,-0.003 0.002,-0.005 0.003,-0.007 0.001,-0.003 0.003,-0.005 0.005,-0.006 0.002,-0.002 0.004,-0.003 0.007,-0.003 0.007,0 0.014,10e-4 0.02,10e-4 0.007,0.001 0.013,0.002 0.02,0.004 l 0.324,0.108 C 0.659,-0.009 0.715,0 0.774,0 Z"
         style="fill:#83beec;fill-rule:nonzero"
         id="path15120" /><path
         d="m 1.109,0.07 h 0.05 C 1.152,0.076 1.145,0.081 1.137,0.084 1.115,0.091 1.094,0.098 1.075,0.105 1.055,0.112 1.036,0.118 1.016,0.123 0.997,0.128 0.977,0.132 0.957,0.135 0.937,0.139 0.916,0.14 0.893,0.14 H 0.794 C 0.782,0.14 0.769,0.14 0.757,0.138 0.744,0.137 0.732,0.136 0.72,0.134 L 0.604,0.115 C 0.593,0.113 0.583,0.111 0.575,0.108 0.567,0.106 0.557,0.105 0.546,0.105 H 0.476 V 0.14 H 0.23 V 0.105 C 0.226,0.099 0.222,0.094 0.219,0.088 0.216,0.082 0.212,0.076 0.209,0.07 H 0.552 L 0.723,0.099 C 0.747,0.103 0.77,0.105 0.794,0.105 H 0.893 C 0.916,0.105 0.939,0.103 0.96,0.1 0.982,0.096 1.004,0.091 1.026,0.083 1.053,0.075 1.08,0.07 1.109,0.07 Z M 0.981,-0.017 c 0.001,0.002 0.003,0.004 0.005,0.009 C 0.989,-0.004 0.991,0 0.993,0.005 0.996,0.01 0.998,0.014 1,0.019 1.002,0.023 1.002,0.026 1.002,0.027 1.002,0.029 1.002,0.031 1,0.033 0.998,0.034 0.996,0.035 0.994,0.035 H 0.941 C 0.938,0.035 0.936,0.034 0.935,0.033 0.933,0.031 0.932,0.029 0.932,0.027 0.932,0.025 0.933,0.022 0.935,0.018 0.937,0.014 0.939,0.009 0.941,0.005 L 0.953,-0.018 0.941,-0.04 C 0.939,-0.044 0.937,-0.048 0.935,-0.052 0.933,-0.057 0.932,-0.059 0.932,-0.061 c 0,-0.003 0.001,-0.005 0.003,-0.006 0.001,-0.002 0.003,-0.003 0.006,-0.003 h 0.053 c 0.002,0 0.004,0.001 0.006,0.003 0.002,0.001 0.002,0.003 0.002,0.006 0,0.002 0,0.004 -0.002,0.009 -0.002,0.004 -0.004,0.008 -0.007,0.012 z"
         style="fill:#0063b1;fill-rule:nonzero"
         id="path15122" /></g></g></svg>
