<?xml version="1.0" encoding="UTF-8" standalone="no"?>
<svg
   width="14.22"
   height="16.844999"
   viewBox="0 0 14.22 16.844999"
   version="1.1"
   xml:space="preserve"
   style="clip-rule:evenodd;fill-rule:evenodd;stroke-linejoin:round;stroke-miterlimit:2"
   id="svg20568"
   sodipodi:docname="emojis.svg"
   xmlns:inkscape="http://www.inkscape.org/namespaces/inkscape"
   xmlns:sodipodi="http://sodipodi.sourceforge.net/DTD/sodipodi-0.dtd"
   xmlns="http://www.w3.org/2000/svg"
   xmlns:svg="http://www.w3.org/2000/svg"><defs
     id="defs20572" /><sodipodi:namedview
     id="namedview20570"
     pagecolor="#505050"
     bordercolor="#eeeeee"
     borderopacity="1"
     inkscape:pageshadow="0"
     inkscape:pageopacity="0"
     inkscape:pagecheckerboard="0" /><g
     transform="matrix(0.24,0,0,0.24,-596.235,-766.3674)"
     id="g20566"><g
       transform="matrix(62.5,0,0,62.5,2476.5,3250.26)"
       id="g15160"><path
         d="M 0.561,0.21 0.349,0.078 0.323,0.21 H 0.125 v -0.42 c 0,-0.033 0.006,-0.064 0.018,-0.093 0.013,-0.029 0.03,-0.055 0.052,-0.079 v -0.531 h 0.613 l -0.121,0.604 v 0.028 c 0,0.029 0.005,0.056 0.016,0.082 0.011,0.026 0.026,0.048 0.045,0.067 0.019,0.019 0.042,0.034 0.067,0.045 0.026,0.011 0.053,0.017 0.082,0.017 h 0.035 c 0.02,0 0.038,0.003 0.055,0.011 0.017,0.007 0.032,0.017 0.045,0.03 0.012,0.012 0.022,0.027 0.03,0.044 0.007,0.017 0.011,0.036 0.011,0.055 v 0.14 z"
         style="fill-rule:nonzero"
         id="path15152" /><path
         d="M 0.616,0.106 0.3,-0.07 H 0.21 L 0.195,-0.105 V -0.21 c 0,-0.028 0.006,-0.054 0.018,-0.079 0.012,-0.024 0.03,-0.044 0.052,-0.061 v -0.492 h 0.07 c 0.005,0.004 0.01,0.008 0.016,0.009 0.006,0.002 0.012,0.003 0.018,0.003 0.014,0 0.026,-0.004 0.037,-0.012 h 0.316 l -0.106,0.526 v 0.035 c 0,0.039 0.008,0.075 0.022,0.109 0.015,0.034 0.035,0.064 0.061,0.089 0.025,0.026 0.055,0.046 0.089,0.061 C 0.822,-0.007 0.858,0 0.897,0 H 0.932 C 0.942,0 0.951,0.002 0.959,0.006 0.968,0.009 0.975,0.014 0.982,0.021 0.988,0.027 0.993,0.035 0.997,0.043 1.001,0.051 1.002,0.061 1.002,0.07 L 0.965,0.105 Z"
         style="fill:#ca5010;fill-rule:nonzero"
         id="path15154" /><path
         d="M 0.616,0.07 H 1.002 V 0.14 H 0.581 L 0.3,-0.035 0.265,0.14 H 0.195 V -0.105 H 0.3 Z"
         style="fill:#613d30;fill-rule:nonzero"
         id="path15156" /><path
         d="m 0.406,-0.491 c 0,0.009 -0.004,0.017 -0.011,0.024 -0.007,0.007 -0.015,0.01 -0.024,0.01 -0.01,0 -0.018,-0.003 -0.025,-0.01 C 0.339,-0.474 0.335,-0.482 0.335,-0.491 v -0.351 h 0.071 z"
         style="fill:#f7894a;fill-rule:nonzero"
         id="path15158" /></g></g></svg>
