<?xml version="1.0" encoding="UTF-8" standalone="no"?>
<svg
   width="16.844999"
   height="15.78"
   viewBox="0 0 16.844999 15.78"
   version="1.1"
   xml:space="preserve"
   style="clip-rule:evenodd;fill-rule:evenodd;stroke-linejoin:round;stroke-miterlimit:2"
   id="svg20568"
   sodipodi:docname="emojis.svg"
   xmlns:inkscape="http://www.inkscape.org/namespaces/inkscape"
   xmlns:sodipodi="http://sodipodi.sourceforge.net/DTD/sodipodi-0.dtd"
   xmlns="http://www.w3.org/2000/svg"
   xmlns:svg="http://www.w3.org/2000/svg"><defs
     id="defs20572" /><sodipodi:namedview
     id="namedview20570"
     pagecolor="#505050"
     bordercolor="#eeeeee"
     borderopacity="1"
     inkscape:pageshadow="0"
     inkscape:pageopacity="0"
     inkscape:pagecheckerboard="0" /><g
     transform="matrix(0.24,0,0,0.24,-716.9838,-766.9074)"
     id="g20566"><g
       transform="matrix(62.5,0,0,62.5,2979.62,3250.26)"
       id="g15246"><path
         d="m 1.143,-0.48 c 0.018,0.006 0.034,0.015 0.047,0.026 0.013,0.011 0.024,0.023 0.032,0.037 0.009,0.015 0.015,0.031 0.02,0.048 0.004,0.017 0.006,0.035 0.006,0.053 v 0.07 H 1.142 c -0.004,0.04 -0.012,0.078 -0.024,0.114 -0.013,0.036 -0.03,0.07 -0.05,0.101 C 1.047,0 1.023,0.028 0.996,0.054 0.968,0.079 0.938,0.101 0.905,0.119 0.872,0.137 0.838,0.151 0.801,0.161 0.764,0.17 0.726,0.175 0.687,0.175 0.647,0.175 0.609,0.17 0.572,0.161 0.535,0.151 0.501,0.137 0.468,0.119 0.435,0.101 0.405,0.079 0.377,0.054 0.35,0.028 0.326,0 0.305,-0.031 0.285,-0.062 0.268,-0.096 0.255,-0.132 0.242,-0.168 0.234,-0.206 0.231,-0.246 H 0.125 v -0.07 c 0,-0.018 0.002,-0.036 0.006,-0.053 0.005,-0.017 0.011,-0.033 0.02,-0.048 0.008,-0.014 0.019,-0.026 0.032,-0.037 0.014,-0.011 0.029,-0.02 0.047,-0.026 v -0.082 c 0,-0.035 0.007,-0.067 0.02,-0.097 0.013,-0.031 0.031,-0.056 0.054,-0.078 0.023,-0.022 0.05,-0.039 0.08,-0.052 0.03,-0.012 0.063,-0.018 0.098,-0.018 l 0.07,-0.07 h 0.269 l 0.07,0.07 c 0.035,0 0.067,0.006 0.098,0.018 0.03,0.013 0.057,0.03 0.08,0.052 0.023,0.022 0.041,0.047 0.054,0.078 0.013,0.03 0.02,0.062 0.02,0.097 z m -0.456,0.445 c 0.03,0 0.059,-0.005 0.086,-0.016 0.028,-0.011 0.052,-0.025 0.074,-0.044 0.022,-0.019 0.04,-0.041 0.054,-0.067 0.015,-0.025 0.024,-0.053 0.029,-0.084 H 0.443 c 0.005,0.031 0.014,0.059 0.028,0.084 0.015,0.026 0.033,0.048 0.055,0.067 0.022,0.019 0.046,0.033 0.074,0.044 0.027,0.011 0.056,0.016 0.087,0.016 z"
         style="fill-rule:nonzero"
         id="path15234" /><path
         d="m 0.371,-0.386 v 0.105 c 0,0.029 0.003,0.057 0.011,0.084 0.007,0.027 0.018,0.052 0.032,0.076 0.014,0.023 0.03,0.044 0.049,0.063 0.02,0.02 0.041,0.036 0.064,0.05 0.023,0.014 0.049,0.024 0.076,0.032 0.027,0.007 0.055,0.011 0.084,0.011 0.028,0 0.056,-0.004 0.084,-0.011 0.027,-0.008 0.052,-0.018 0.075,-0.032 0.023,-0.014 0.044,-0.03 0.064,-0.05 0.019,-0.019 0.035,-0.04 0.049,-0.063 0.014,-0.024 0.025,-0.049 0.032,-0.076 0.008,-0.027 0.011,-0.055 0.011,-0.084 v -0.105 h 0.071 v 0.105 c 0,0.035 -0.005,0.07 -0.015,0.105 -0.01,0.034 -0.024,0.067 -0.043,0.097 C 0.997,-0.048 0.975,-0.021 0.949,0.004 0.923,0.028 0.894,0.048 0.861,0.063 0.852,0.068 0.84,0.072 0.824,0.074 0.809,0.077 0.793,0.079 0.776,0.08 0.759,0.081 0.742,0.082 0.726,0.083 c -0.016,0 -0.029,0 -0.039,0 -0.008,0 -0.016,0 -0.026,0 -0.009,0 -0.019,0 -0.03,-0.001 C 0.62,0.082 0.609,0.081 0.597,0.08 0.586,0.079 0.575,0.078 0.564,0.076 0.554,0.075 0.544,0.073 0.535,0.071 0.526,0.069 0.518,0.066 0.512,0.063 0.479,0.048 0.45,0.028 0.424,0.004 0.398,-0.021 0.376,-0.048 0.358,-0.079 0.339,-0.109 0.325,-0.142 0.315,-0.176 0.305,-0.211 0.3,-0.246 0.3,-0.281 v -0.105 z"
         style="fill:#757575;fill-rule:nonzero"
         id="path15236" /><path
         d="M 0.792,0 C 0.801,0 0.809,0.002 0.817,0.005 0.825,0.008 0.832,0.013 0.838,0.018 0.845,0.024 0.85,0.031 0.854,0.038 0.858,0.046 0.86,0.054 0.861,0.063 0.834,0.077 0.806,0.087 0.776,0.094 0.747,0.101 0.717,0.105 0.687,0.105 0.656,0.105 0.626,0.101 0.597,0.094 0.567,0.087 0.539,0.077 0.512,0.063 0.513,0.054 0.515,0.046 0.519,0.038 0.523,0.03 0.528,0.024 0.534,0.018 0.54,0.013 0.548,0.008 0.556,0.005 0.564,0.002 0.572,0 0.581,0 Z"
         style="fill:#a6a6a6;fill-rule:nonzero"
         id="path15238" /><path
         d="m 1.073,-0.421 c 0.035,0 0.061,0.008 0.079,0.026 0.017,0.017 0.026,0.043 0.026,0.078 H 0.195 c 0,-0.035 0.009,-0.061 0.026,-0.078 0.018,-0.018 0.044,-0.026 0.079,-0.026 v -0.141 c 0,-0.024 0.005,-0.047 0.014,-0.068 0.009,-0.021 0.022,-0.04 0.038,-0.056 0.016,-0.016 0.034,-0.028 0.055,-0.037 0.022,-0.01 0.045,-0.014 0.069,-0.014 0.012,0 0.023,0 0.035,-0.001 0.012,0 0.023,0 0.035,-0.001 l 0.035,-0.068 h 0.211 l 0.035,0.064 c 0.011,0.003 0.023,0.004 0.035,0.005 0.011,0 0.023,0.001 0.035,0.001 0.024,0 0.047,0.004 0.069,0.014 0.021,0.009 0.039,0.021 0.055,0.037 0.016,0.016 0.029,0.035 0.038,0.056 0.009,0.021 0.014,0.044 0.014,0.068 z"
         style="fill:#f03a17;fill-rule:nonzero"
         id="path15240" /><path
         d="m 0.581,-0.807 v 0.175 l 0.033,0.035 -0.033,0.035 v 0.141 h -0.07 v -0.316 z m 0.281,0.07 v 0.316 H 0.792 V -0.562 L 0.76,-0.597 0.792,-0.632 v -0.175 z"
         style="fill:#ef6950;fill-rule:nonzero"
         id="path15242" /><path
         d="m 0.792,-0.562 h -0.07 v 0.071 H 0.651 v -0.071 h -0.07 v -0.07 h 0.07 v -0.07 h 0.071 v 0.07 h 0.07 z"
         style="fill:#ffffff;fill-rule:nonzero"
         id="path15244" /></g></g></svg>
