<?xml version="1.0" encoding="UTF-8" standalone="no"?>
<svg
   width="11.58"
   height="16.844999"
   viewBox="0 0 11.58 16.844999"
   version="1.1"
   xml:space="preserve"
   style="clip-rule:evenodd;fill-rule:evenodd;stroke-linejoin:round;stroke-miterlimit:2"
   id="svg20568"
   sodipodi:docname="emojis.svg"
   xmlns:inkscape="http://www.inkscape.org/namespaces/inkscape"
   xmlns:sodipodi="http://sodipodi.sourceforge.net/DTD/sodipodi-0.dtd"
   xmlns="http://www.w3.org/2000/svg"
   xmlns:svg="http://www.w3.org/2000/svg"><defs
     id="defs20572" /><sodipodi:namedview
     id="namedview20570"
     pagecolor="#505050"
     bordercolor="#eeeeee"
     borderopacity="1"
     inkscape:pageshadow="0"
     inkscape:pageopacity="0"
     inkscape:pagecheckerboard="0" /><g
     transform="matrix(0.24,0,0,0.24,-752.3886,-766.3674)"
     id="g20566"><g
       transform="matrix(62.5,0,0,62.5,3127.14,3250.26)"
       id="g15272"><path
         d="M 0.125,0.21 V 0.035 C 0.125,0.02 0.128,0.006 0.134,-0.008 0.14,-0.021 0.149,-0.033 0.16,-0.043 V -0.07 c 0,-0.026 0.006,-0.049 0.019,-0.071 0.012,-0.021 0.03,-0.038 0.051,-0.051 v -0.422 c 0,-0.019 0.002,-0.041 0.004,-0.065 0.002,-0.025 0.006,-0.05 0.012,-0.075 0.006,-0.025 0.013,-0.048 0.023,-0.07 0.009,-0.022 0.021,-0.039 0.035,-0.052 0.014,-0.013 0.029,-0.022 0.045,-0.028 0.016,-0.006 0.033,-0.009 0.051,-0.009 0.027,0 0.055,0.006 0.084,0.017 0.029,0.011 0.057,0.026 0.085,0.045 0.028,0.018 0.055,0.04 0.08,0.065 0.026,0.025 0.048,0.051 0.068,0.078 0.02,0.027 0.037,0.055 0.05,0.084 0.013,0.029 0.021,0.056 0.024,0.082 0,0.03 0.001,0.059 0.001,0.088 0,0.029 0,0.058 0,0.087 0,0.03 0,0.059 0,0.088 0,0.029 0,0.058 0,0.087 0.011,0.007 0.02,0.014 0.029,0.023 0.009,0.009 0.016,0.018 0.022,0.029 0.006,0.01 0.011,0.021 0.014,0.033 0.003,0.012 0.005,0.024 0.005,0.037 v 0.027 c 0.011,0.01 0.02,0.022 0.026,0.035 0.006,0.014 0.009,0.028 0.009,0.043 V 0.21 Z"
         style="fill-rule:nonzero"
         id="path15256" /><path
         d="M 0.722,-0.101 H 0.3 v -0.513 c 0,-0.015 0.001,-0.032 0.003,-0.052 0.001,-0.019 0.004,-0.039 0.008,-0.059 0.004,-0.02 0.009,-0.039 0.016,-0.057 0.007,-0.018 0.015,-0.032 0.025,-0.043 l 0.37,0.316 z"
         style="fill:#e81224;fill-rule:nonzero"
         id="path15258" /><path
         d="m 0.722,-0.521 c 0,0.021 -0.006,0.036 -0.017,0.048 -0.011,0.011 -0.027,0.017 -0.048,0.017 -0.021,0 -0.043,-0.005 -0.067,-0.015 C 0.566,-0.481 0.542,-0.495 0.518,-0.512 0.494,-0.529 0.471,-0.548 0.449,-0.57 0.427,-0.592 0.408,-0.615 0.391,-0.639 0.374,-0.662 0.361,-0.686 0.351,-0.71 0.34,-0.734 0.335,-0.757 0.335,-0.777 c 0,-0.021 0.006,-0.037 0.018,-0.048 0.011,-0.012 0.027,-0.017 0.048,-0.017 0.02,0 0.043,0.005 0.067,0.015 0.023,0.01 0.047,0.023 0.071,0.04 0.024,0.017 0.047,0.037 0.069,0.059 0.022,0.022 0.041,0.045 0.058,0.068 0.017,0.024 0.03,0.048 0.041,0.072 0.01,0.024 0.015,0.046 0.015,0.067 z"
         style="fill:#e6808a;fill-rule:nonzero"
         id="path15260" /><path
         d="m 0.511,-0.433 c 0.021,0.013 0.044,0.023 0.068,0.032 0.023,0.009 0.048,0.014 0.072,0.015 v 0.285 h -0.14 z"
         style="fill:#e84757;fill-rule:nonzero"
         id="path15262" /><path
         d="m 0.722,-0.141 c 0.009,0 0.019,0.002 0.027,0.006 0.008,0.004 0.016,0.009 0.022,0.015 0.007,0.006 0.012,0.014 0.015,0.022 0.004,0.009 0.006,0.018 0.006,0.028 V 0.07 H 0.23 v -0.14 c 0,-0.01 0.002,-0.019 0.006,-0.028 C 0.239,-0.106 0.244,-0.114 0.251,-0.12 0.257,-0.126 0.264,-0.131 0.273,-0.135 0.281,-0.139 0.291,-0.141 0.3,-0.141 h 0.211 l 0.07,0.052 0.07,-0.052 z"
         style="fill:#ffb900;fill-rule:nonzero"
         id="path15264" /><rect
         x="0.51099998"
         y="-0.141"
         width="0.14"
         height="0.167"
         style="fill:#ffd679;fill-rule:nonzero"
         id="rect15266" /><path
         d="M 0.792,0 C 0.801,0 0.81,0.003 0.816,0.01 0.823,0.017 0.827,0.026 0.827,0.035 V 0.14 H 0.687 L 0.616,0.092 0.546,0.14 H 0.195 V 0.035 C 0.195,0.025 0.199,0.017 0.206,0.01 0.212,0.003 0.221,0 0.23,0 H 0.546 L 0.616,0.05 0.687,0 Z"
         style="fill:#383838;fill-rule:nonzero"
         id="path15268" /><rect
         x="0.546"
         y="0"
         width="0.141"
         height="0.14"
         style="fill:#757575;fill-rule:nonzero"
         id="rect15270" /></g></g></svg>
