<?xml version="1.0" encoding="UTF-8" standalone="no"?>
<svg
   width="11.055"
   height="16.844999"
   viewBox="0 0 11.055 16.844999"
   version="1.1"
   xml:space="preserve"
   style="clip-rule:evenodd;fill-rule:evenodd;stroke-linejoin:round;stroke-miterlimit:2"
   id="svg20568"
   sodipodi:docname="emojis.svg"
   xmlns:inkscape="http://www.inkscape.org/namespaces/inkscape"
   xmlns:sodipodi="http://sodipodi.sourceforge.net/DTD/sodipodi-0.dtd"
   xmlns="http://www.w3.org/2000/svg"
   xmlns:svg="http://www.w3.org/2000/svg"><defs
     id="defs20572" /><sodipodi:namedview
     id="namedview20570"
     pagecolor="#505050"
     bordercolor="#eeeeee"
     borderopacity="1"
     inkscape:pageshadow="0"
     inkscape:pageopacity="0"
     inkscape:pagecheckerboard="0" /><g
     transform="matrix(0.24,0,0,0.24,-737.5782,-766.3674)"
     id="g20566"><g
       transform="matrix(62.5,0,0,62.5,3065.43,3250.26)"
       id="g15254"><path
         d="m 0.704,-0.401 -0.017,0.015 c 0.01,0.004 0.02,0.009 0.029,0.017 0.008,0.007 0.016,0.015 0.022,0.025 0.006,0.009 0.01,0.019 0.014,0.03 0.003,0.011 0.005,0.022 0.005,0.033 0,0.023 -0.007,0.043 -0.02,0.061 -0.013,0.018 -0.03,0.031 -0.051,0.038 l 0.001,0.008 c 0,0.009 -0.002,0.018 -0.004,0.027 -0.003,0.008 -0.007,0.016 -0.011,0.024 0.006,0.012 0.013,0.024 0.018,0.036 0.006,0.013 0.012,0.025 0.018,0.037 L 0.772,0.084 0.651,0.21 0.616,0.175 0.581,0.21 0.546,0.175 0.511,0.21 0.391,0.084 0.437,-0.008 C 0.423,-0.014 0.411,-0.022 0.4,-0.033 0.39,-0.044 0.382,-0.056 0.377,-0.071 0.361,-0.071 0.347,-0.073 0.333,-0.078 0.32,-0.083 0.308,-0.09 0.298,-0.099 0.288,-0.108 0.28,-0.119 0.274,-0.132 0.268,-0.145 0.265,-0.16 0.265,-0.176 c 0,-0.001 0,-0.003 0.001,-0.006 C 0.244,-0.19 0.226,-0.203 0.214,-0.221 0.202,-0.238 0.196,-0.259 0.196,-0.282 V -0.287 C 0.185,-0.291 0.176,-0.296 0.167,-0.302 0.158,-0.309 0.151,-0.317 0.145,-0.325 0.138,-0.334 0.134,-0.344 0.13,-0.354 0.127,-0.364 0.125,-0.375 0.125,-0.386 c 0,-0.01 0.001,-0.019 0.004,-0.028 C 0.132,-0.422 0.135,-0.431 0.14,-0.439 0.135,-0.447 0.132,-0.455 0.129,-0.464 0.126,-0.473 0.125,-0.482 0.125,-0.491 0.125,-0.501 0.126,-0.51 0.129,-0.519 0.132,-0.527 0.135,-0.536 0.14,-0.544 0.135,-0.552 0.132,-0.561 0.129,-0.569 0.126,-0.578 0.125,-0.587 0.125,-0.597 c 0,-0.015 0.003,-0.03 0.01,-0.044 C 0.142,-0.655 0.151,-0.667 0.163,-0.677 0.161,-0.685 0.16,-0.694 0.16,-0.702 c 0,-0.012 0.002,-0.023 0.006,-0.034 0.004,-0.01 0.009,-0.02 0.015,-0.029 0.007,-0.008 0.015,-0.016 0.024,-0.023 0.009,-0.006 0.019,-0.011 0.03,-0.014 0.004,-0.011 0.008,-0.021 0.015,-0.031 0.007,-0.009 0.014,-0.017 0.023,-0.023 0.009,-0.007 0.018,-0.012 0.029,-0.016 0.011,-0.004 0.022,-0.005 0.033,-0.005 0.005,0 0.009,0 0.013,0.001 0.004,0 0.008,0.001 0.012,0.002 0.01,-0.012 0.022,-0.022 0.036,-0.029 0.014,-0.006 0.029,-0.01 0.045,-0.01 0.009,0 0.018,0.002 0.027,0.004 0.009,0.003 0.018,0.006 0.026,0.011 0.015,-0.01 0.033,-0.015 0.052,-0.015 0.016,0 0.03,0.004 0.045,0.01 0.014,0.007 0.026,0.017 0.035,0.029 0.005,-0.001 0.009,-0.002 0.013,-0.002 0.004,-0.001 0.008,-0.001 0.012,-0.001 0.012,0 0.023,0.001 0.034,0.005 0.01,0.004 0.02,0.009 0.029,0.016 0.009,0.006 0.016,0.014 0.023,0.023 0.006,0.01 0.011,0.02 0.015,0.031 0.011,0.003 0.021,0.008 0.03,0.015 0.009,0.006 0.017,0.014 0.024,0.023 0.006,0.008 0.011,0.018 0.015,0.028 0.004,0.011 0.006,0.022 0.006,0.034 0,0.008 -0.001,0.017 -0.003,0.025 0.012,0.01 0.021,0.022 0.028,0.036 0.006,0.014 0.01,0.029 0.01,0.044 0,0.01 -0.001,0.019 -0.004,0.028 -0.003,0.008 -0.006,0.017 -0.011,0.025 0.005,0.008 0.008,0.017 0.011,0.025 0.003,0.009 0.004,0.018 0.004,0.028 0,0.014 -0.003,0.028 -0.008,0.04 C 0.848,-0.438 0.84,-0.427 0.831,-0.417 0.821,-0.408 0.81,-0.4 0.797,-0.395 0.785,-0.389 0.771,-0.386 0.757,-0.386 0.747,-0.386 0.738,-0.388 0.729,-0.39 0.721,-0.393 0.712,-0.396 0.704,-0.401 Z M 0.651,-0.597 C 0.651,-0.63 0.644,-0.658 0.629,-0.68 0.614,-0.702 0.59,-0.718 0.559,-0.729 0.543,-0.735 0.527,-0.737 0.511,-0.737 H 0.476 c -0.016,0 -0.032,0.002 -0.048,0.008 -0.031,0.01 -0.055,0.027 -0.07,0.049 -0.015,0.023 -0.023,0.05 -0.023,0.083 v 0.211 c 0.011,0.004 0.021,0.01 0.03,0.017 0.008,0.007 0.015,0.016 0.021,0.025 0.006,0.009 0.011,0.019 0.015,0.03 0.003,0.011 0.005,0.022 0.005,0.033 0.01,0 0.019,0.002 0.027,0.005 0.009,0.004 0.016,0.009 0.022,0.015 0.006,0.006 0.011,0.013 0.015,0.021 0.004,0.008 0.006,0.017 0.006,0.027 0,-0.009 0.002,-0.018 0.006,-0.026 C 0.485,-0.247 0.49,-0.254 0.496,-0.26 0.501,-0.267 0.508,-0.271 0.516,-0.275 0.524,-0.278 0.533,-0.28 0.542,-0.281 0.533,-0.281 0.524,-0.283 0.516,-0.287 0.507,-0.291 0.5,-0.296 0.495,-0.302 0.489,-0.308 0.484,-0.316 0.481,-0.324 0.478,-0.332 0.476,-0.341 0.476,-0.351 v -0.07 c 0,-0.01 0.002,-0.02 0.005,-0.028 0.004,-0.009 0.008,-0.016 0.015,-0.023 0.006,-0.006 0.013,-0.011 0.022,-0.014 0.008,-0.004 0.017,-0.005 0.028,-0.005 0,-0.016 0.003,-0.03 0.008,-0.043 0.005,-0.013 0.012,-0.024 0.021,-0.033 0.01,-0.009 0.021,-0.017 0.034,-0.022 0.013,-0.005 0.027,-0.008 0.042,-0.008 z"
         style="fill-rule:nonzero"
         id="path15248" /><path
         d="m 0.232,-0.632 c 0.009,0 0.018,0.004 0.024,0.011 0.007,0.007 0.011,0.015 0.011,0.024 0,0.01 -0.004,0.018 -0.011,0.025 -0.006,0.007 -0.015,0.01 -0.024,0.01 -0.01,0 -0.018,-0.003 -0.025,-0.01 -0.007,-0.007 -0.01,-0.015 -0.01,-0.025 0,-0.009 0.003,-0.018 0.01,-0.025 0.007,-0.006 0.015,-0.01 0.025,-0.01 z m 0.526,0.106 c 0.01,0 0.018,0.003 0.025,0.01 0.007,0.007 0.01,0.015 0.01,0.025 0,0.009 -0.003,0.017 -0.01,0.024 -0.007,0.007 -0.015,0.01 -0.025,0.01 -0.009,0 -0.017,-0.003 -0.024,-0.01 -0.007,-0.007 -0.011,-0.015 -0.011,-0.024 0,-0.01 0.004,-0.018 0.01,-0.025 0.007,-0.007 0.016,-0.01 0.025,-0.01 z m 0,-0.176 c 0,0.01 -0.003,0.018 -0.01,0.025 -0.007,0.007 -0.015,0.01 -0.025,0.01 -0.01,0 -0.018,-0.003 -0.025,-0.01 -0.007,-0.007 -0.01,-0.015 -0.01,-0.025 0,-0.01 0.003,-0.018 0.01,-0.025 0.007,-0.007 0.016,-0.01 0.025,-0.01 0.01,0 0.018,0.003 0.025,0.01 0.007,0.007 0.01,0.015 0.01,0.025 z m -0.386,-0.07 c 0,0.009 -0.003,0.018 -0.01,0.024 -0.007,0.007 -0.016,0.011 -0.025,0.011 -0.01,0 -0.018,-0.004 -0.025,-0.011 -0.007,-0.006 -0.01,-0.015 -0.01,-0.024 0,-0.01 0.003,-0.018 0.01,-0.025 0.007,-0.007 0.015,-0.01 0.025,-0.01 0.01,0 0.018,0.003 0.025,0.01 0.007,0.007 0.01,0.015 0.01,0.025 z m 0.211,-0.035 c 0,0.009 -0.004,0.018 -0.011,0.025 -0.007,0.007 -0.015,0.01 -0.025,0.01 -0.009,0 -0.017,-0.003 -0.024,-0.01 -0.007,-0.007 -0.01,-0.016 -0.01,-0.025 0,-0.01 0.003,-0.018 0.01,-0.025 0.007,-0.007 0.015,-0.01 0.024,-0.01 0.01,0 0.018,0.003 0.025,0.01 0.007,0.007 0.011,0.015 0.011,0.025 z m 0,0.386 c 0.009,0 0.018,0.003 0.024,0.01 0.007,0.007 0.011,0.015 0.011,0.025 0,0.01 -0.004,0.018 -0.011,0.025 -0.006,0.007 -0.015,0.01 -0.024,0.01 -0.01,0 -0.018,-0.004 -0.025,-0.011 -0.007,-0.007 -0.011,-0.015 -0.011,-0.024 0,-0.01 0.004,-0.018 0.011,-0.025 0.007,-0.007 0.015,-0.01 0.025,-0.01 z m -0.351,0 c 0.009,0 0.018,0.003 0.024,0.01 0.007,0.007 0.011,0.015 0.011,0.025 0,0.009 -0.004,0.017 -0.011,0.024 -0.006,0.007 -0.015,0.011 -0.024,0.011 -0.01,0 -0.018,-0.003 -0.025,-0.01 -0.007,-0.007 -0.01,-0.015 -0.01,-0.025 0,-0.01 0.003,-0.018 0.01,-0.025 0.007,-0.007 0.015,-0.01 0.025,-0.01 z m 0.351,0.211 c 0.009,0 0.017,0.003 0.024,0.01 0.007,0.007 0.011,0.015 0.011,0.024 0,0.01 -0.004,0.018 -0.011,0.025 -0.006,0.007 -0.015,0.01 -0.024,0.01 -0.01,0 -0.018,-0.003 -0.025,-0.01 -0.007,-0.007 -0.011,-0.015 -0.011,-0.025 0,-0.009 0.004,-0.017 0.011,-0.024 0.007,-0.007 0.015,-0.01 0.025,-0.01 z m -0.211,0 c 0.01,0 0.018,0.003 0.025,0.01 0.007,0.007 0.01,0.015 0.01,0.024 0,0.01 -0.003,0.018 -0.01,0.025 -0.007,0.007 -0.015,0.01 -0.025,0.01 -0.01,0 -0.018,-0.003 -0.025,-0.01 -0.007,-0.007 -0.01,-0.015 -0.01,-0.025 0,-0.009 0.003,-0.017 0.01,-0.024 0.007,-0.007 0.016,-0.01 0.025,-0.01 z"
         style="fill:#8e562e;fill-rule:nonzero"
         id="path15250" /><path
         d="m 0.232,-0.526 c 0.009,0 0.018,0.003 0.024,0.01 0.007,0.007 0.011,0.015 0.011,0.025 0,0.009 -0.004,0.017 -0.011,0.024 -0.006,0.007 -0.015,0.01 -0.024,0.01 -0.01,0 -0.018,-0.003 -0.025,-0.01 -0.007,-0.007 -0.01,-0.015 -0.01,-0.024 0,-0.01 0.003,-0.018 0.01,-0.025 0.007,-0.007 0.015,-0.01 0.025,-0.01 z m 0.526,-0.106 c 0.01,0 0.018,0.004 0.025,0.011 0.007,0.007 0.01,0.015 0.01,0.024 0,0.01 -0.003,0.018 -0.01,0.025 -0.007,0.007 -0.015,0.01 -0.025,0.01 -0.009,0 -0.018,-0.003 -0.025,-0.01 -0.006,-0.007 -0.01,-0.015 -0.01,-0.025 0,-0.009 0.004,-0.018 0.01,-0.025 0.007,-0.006 0.016,-0.01 0.025,-0.01 z m -0.105,0.106 c 0.01,0 0.018,0.003 0.025,0.01 0.007,0.007 0.01,0.015 0.01,0.025 0,0.009 -0.004,0.017 -0.011,0.024 -0.007,0.007 -0.015,0.01 -0.024,0.01 -0.01,0 -0.018,-0.003 -0.025,-0.01 -0.007,-0.007 -0.01,-0.015 -0.01,-0.024 0,-0.01 0.003,-0.018 0.01,-0.025 0.007,-0.007 0.015,-0.01 0.025,-0.01 z M 0.267,-0.667 c -0.01,0 -0.018,-0.003 -0.025,-0.01 -0.007,-0.007 -0.01,-0.016 -0.01,-0.025 0,-0.01 0.003,-0.018 0.01,-0.025 0.007,-0.007 0.015,-0.01 0.025,-0.01 0.009,0 0.017,0.003 0.024,0.01 0.007,0.007 0.011,0.015 0.011,0.025 0,0.01 -0.004,0.018 -0.01,0.025 -0.007,0.007 -0.016,0.01 -0.025,0.01 z m 0.211,-0.14 c 0,0.009 -0.004,0.018 -0.011,0.025 -0.007,0.007 -0.015,0.01 -0.025,0.01 -0.009,0 -0.017,-0.003 -0.024,-0.01 -0.007,-0.007 -0.011,-0.016 -0.011,-0.025 0,-0.01 0.004,-0.018 0.01,-0.025 0.007,-0.007 0.016,-0.01 0.025,-0.01 0.01,0 0.018,0.003 0.025,0.01 0.007,0.007 0.011,0.015 0.011,0.025 z m 0.175,0 c 0.01,0 0.018,0.003 0.025,0.01 0.007,0.007 0.01,0.015 0.01,0.025 0,0.009 -0.004,0.018 -0.011,0.024 -0.007,0.007 -0.015,0.011 -0.024,0.011 -0.01,0 -0.018,-0.004 -0.025,-0.011 -0.007,-0.006 -0.01,-0.015 -0.01,-0.024 0,-0.01 0.003,-0.018 0.01,-0.025 0.007,-0.007 0.015,-0.01 0.025,-0.01 z m 0,0.491 c 0.01,0 0.018,0.004 0.025,0.01 0.007,0.007 0.01,0.015 0.01,0.025 0,0.01 -0.003,0.018 -0.01,0.025 -0.007,0.007 -0.015,0.01 -0.025,0.01 -0.01,0 -0.018,-0.003 -0.025,-0.01 -0.007,-0.007 -0.01,-0.015 -0.01,-0.025 0,-0.01 0.003,-0.018 0.01,-0.025 0.007,-0.006 0.015,-0.01 0.025,-0.01 z m -0.351,0 c 0.01,0 0.018,0.004 0.025,0.01 0.006,0.007 0.01,0.015 0.01,0.025 0,0.01 -0.004,0.018 -0.01,0.025 -0.007,0.007 -0.015,0.01 -0.025,0.01 -0.01,0 -0.018,-0.003 -0.025,-0.01 -0.007,-0.007 -0.01,-0.015 -0.01,-0.025 0,-0.009 0.003,-0.017 0.01,-0.024 0.007,-0.007 0.015,-0.011 0.025,-0.011 z m 0.211,0.211 c 0,0.009 -0.004,0.017 -0.011,0.024 -0.007,0.007 -0.015,0.011 -0.024,0.011 -0.01,0 -0.019,-0.004 -0.025,-0.011 -0.007,-0.006 -0.011,-0.015 -0.011,-0.024 0,-0.01 0.004,-0.019 0.011,-0.025 0.006,-0.007 0.015,-0.011 0.025,-0.011 0.009,0 0.017,0.004 0.024,0.011 0.007,0.007 0.011,0.015 0.011,0.025 z m 0.068,0 c 0.007,0 0.012,0.001 0.016,0.005 0.005,0.003 0.008,0.008 0.011,0.013 L 0.687,0.07 0.651,0.105 0.616,0.07 0.581,0.105 0.546,0.07 0.511,0.105 0.476,0.07 0.555,-0.087 C 0.557,-0.092 0.561,-0.096 0.565,-0.1 0.57,-0.104 0.575,-0.105 0.581,-0.105 Z"
         style="fill:#f03a17;fill-rule:nonzero"
         id="path15252" /></g></g></svg>
