<?xml version="1.0" encoding="UTF-8" standalone="no"?>
<svg
   width="16.785"
   height="12.75"
   viewBox="0 0 16.785 12.75"
   version="1.1"
   xml:space="preserve"
   style="clip-rule:evenodd;fill-rule:evenodd;stroke-linejoin:round;stroke-miterlimit:2"
   id="svg20568"
   sodipodi:docname="emojis.svg"
   xmlns:inkscape="http://www.inkscape.org/namespaces/inkscape"
   xmlns:sodipodi="http://sodipodi.sourceforge.net/DTD/sodipodi-0.dtd"
   xmlns="http://www.w3.org/2000/svg"
   xmlns:svg="http://www.w3.org/2000/svg"><defs
     id="defs20572" /><sodipodi:namedview
     id="namedview20570"
     pagecolor="#505050"
     bordercolor="#eeeeee"
     borderopacity="1"
     inkscape:pageshadow="0"
     inkscape:pageopacity="0"
     inkscape:pagecheckerboard="0" /><g
     transform="matrix(0.24,0,0,0.24,-675.9894,-768.3624)"
     id="g20566"><g
       transform="matrix(62.5,0,0,62.5,2808.81,3250.26)"
       id="g15216"><path
         d="m 0.684,-0.78 0.52,0.259 c 0.012,0.007 0.022,0.016 0.029,0.027 0.007,0.011 0.011,0.024 0.011,0.038 0,0.015 -0.004,0.027 -0.011,0.038 -0.006,0.01 -0.016,0.019 -0.029,0.026 -0.016,0.009 -0.033,0.017 -0.049,0.025 -0.016,0.008 -0.033,0.016 -0.05,0.024 v 0.116 c 0,0.016 -0.002,0.032 -0.006,0.048 -0.005,0.015 -0.011,0.03 -0.02,0.043 -0.008,0.014 -0.018,0.026 -0.03,0.037 -0.011,0.011 -0.025,0.02 -0.039,0.027 L 0.762,0.052 C 0.738,0.064 0.712,0.07 0.684,0.07 0.674,0.07 0.664,0.069 0.655,0.068 0.646,0.066 0.638,0.064 0.63,0.061 0.621,0.059 0.613,0.055 0.605,0.051 L 0.573,0.035 H 0.333 V -0.088 C 0.312,-0.105 0.295,-0.125 0.282,-0.149 0.269,-0.174 0.263,-0.199 0.263,-0.227 V -0.343 C 0.247,-0.351 0.23,-0.359 0.214,-0.367 0.197,-0.375 0.181,-0.383 0.165,-0.392 0.152,-0.399 0.142,-0.408 0.135,-0.418 0.128,-0.429 0.125,-0.441 0.125,-0.456 c 0,-0.014 0.003,-0.027 0.01,-0.038 0.007,-0.011 0.017,-0.02 0.03,-0.027 z"
         style="fill-rule:nonzero"
         id="path15206" /><path
         d="m 0.333,-0.421 h 0.702 v 0.194 c 0,0.019 -0.005,0.038 -0.015,0.054 -0.01,0.017 -0.024,0.029 -0.042,0.038 L 0.73,-0.011 C 0.716,-0.004 0.701,0 0.684,0 0.676,0 0.668,-0.001 0.661,-0.003 0.653,-0.005 0.645,-0.008 0.638,-0.011 L 0.391,-0.135 C 0.373,-0.144 0.359,-0.156 0.349,-0.173 0.339,-0.189 0.333,-0.208 0.333,-0.227 Z"
         style="fill:#383838;fill-rule:nonzero"
         id="path15208" /><path
         d="M 1.176,-0.457 0.684,-0.21 0.193,-0.457 0.684,-0.702 Z"
         style="fill:#757575;fill-rule:nonzero"
         id="path15210" /><path
         d="m 0.667,-0.457 c 0.004,0 0.009,0.002 0.012,0.006 0.004,0.003 0.006,0.007 0.006,0.012 0,0.003 -0.001,0.006 -0.003,0.009 -0.002,0.004 -0.005,0.006 -0.007,0.007 l -0.201,0.1 v 0.147 l -0.01,0.017 0.01,0.018 v 0.003 c 0.01,0.004 0.019,0.01 0.025,0.019 0.007,0.009 0.01,0.02 0.01,0.031 v 0.053 L 0.491,-0.053 0.474,-0.035 0.456,-0.053 0.438,-0.035 0.421,-0.053 0.403,-0.035 v -0.053 c 0,-0.011 0.004,-0.022 0.01,-0.031 0.007,-0.009 0.015,-0.015 0.025,-0.019 V -0.141 L 0.445,-0.158 0.438,-0.176 v -0.168 c 0.005,-0.003 0.014,-0.007 0.026,-0.013 0.013,-0.007 0.028,-0.014 0.044,-0.023 0.016,-0.008 0.033,-0.017 0.051,-0.026 0.018,-0.009 0.035,-0.017 0.05,-0.025 0.015,-0.007 0.028,-0.013 0.039,-0.018 0.01,-0.005 0.017,-0.008 0.019,-0.008 z"
         style="fill:#eba300;fill-rule:nonzero"
         id="path15212" /><rect
         x="0.43799999"
         y="-0.176"
         width="0.035"
         height="0.035"
         style="fill:#ffd679;fill-rule:nonzero"
         id="rect15214" /></g></g></svg>
