<?xml version="1.0" encoding="UTF-8" standalone="no"?>
<svg
   width="16.709999"
   height="13.245"
   viewBox="0 0 16.709999 13.245"
   version="1.1"
   xml:space="preserve"
   style="clip-rule:evenodd;fill-rule:evenodd;stroke-linejoin:round;stroke-miterlimit:2"
   id="svg20568"
   sodipodi:docname="emojis.svg"
   xmlns:inkscape="http://www.inkscape.org/namespaces/inkscape"
   xmlns:sodipodi="http://sodipodi.sourceforge.net/DTD/sodipodi-0.dtd"
   xmlns="http://www.w3.org/2000/svg"
   xmlns:svg="http://www.w3.org/2000/svg"><defs
     id="defs20572" /><sodipodi:namedview
     id="namedview20570"
     pagecolor="#505050"
     bordercolor="#eeeeee"
     borderopacity="1"
     inkscape:pageshadow="0"
     inkscape:pageopacity="0"
     inkscape:pagecheckerboard="0" /><g
     transform="matrix(0.24,0,0,0.24,-696.5262,-768.4824)"
     id="g20566"><g
       transform="matrix(62.5,0,0,62.5,2894.38,3250.26)"
       id="g15232"><path
         d="m 0.76,-0.737 c 0.039,0 0.076,0.004 0.112,0.013 0.036,0.009 0.07,0.022 0.102,0.039 0.032,0.017 0.062,0.037 0.089,0.061 0.027,0.024 0.052,0.051 0.072,0.081 0.021,0.029 0.039,0.061 0.052,0.096 0.014,0.035 0.023,0.071 0.028,0.11 l 0.023,0.184 c 0,0.002 0,0.005 0.001,0.007 0,0.001 0,0.003 0,0.005 0,0.015 -0.003,0.029 -0.008,0.04 -0.006,0.012 -0.013,0.023 -0.023,0.034 V 0.006 C 1.208,0.02 1.206,0.034 1.2,0.047 1.195,0.059 1.187,0.071 1.177,0.08 1.168,0.09 1.157,0.097 1.144,0.103 1.131,0.109 1.117,0.111 1.103,0.111 1.091,0.111 1.08,0.109 1.069,0.105 1.058,0.101 1.048,0.096 1.038,0.088 1.021,0.076 1.004,0.064 0.987,0.053 0.97,0.042 0.951,0.031 0.932,0.022 0.89,0.027 0.849,0.03 0.807,0.032 0.765,0.034 0.724,0.035 0.682,0.035 0.64,0.035 0.598,0.034 0.556,0.032 0.515,0.03 0.473,0.027 0.432,0.022 0.413,0.031 0.394,0.042 0.377,0.053 0.359,0.064 0.342,0.076 0.325,0.088 0.316,0.096 0.306,0.102 0.295,0.105 0.285,0.109 0.273,0.111 0.261,0.111 0.247,0.111 0.233,0.109 0.22,0.103 0.207,0.097 0.196,0.09 0.186,0.08 0.177,0.071 0.169,0.06 0.164,0.047 0.158,0.034 0.155,0.021 0.155,0.006 V -0.067 C 0.146,-0.078 0.138,-0.089 0.133,-0.1 0.128,-0.112 0.125,-0.125 0.125,-0.139 c 0,-0.002 0,-0.005 0,-0.007 0,-0.002 0.001,-0.004 0.001,-0.006 l 0.023,-0.185 c 0.005,-0.039 0.014,-0.075 0.028,-0.11 0.013,-0.035 0.03,-0.067 0.051,-0.096 0.021,-0.03 0.045,-0.057 0.072,-0.081 0.028,-0.024 0.057,-0.044 0.089,-0.061 0.032,-0.017 0.066,-0.03 0.102,-0.039 0.036,-0.009 0.074,-0.013 0.113,-0.013 0.003,-0.006 0.009,-0.011 0.015,-0.015 0.006,-0.004 0.013,-0.008 0.02,-0.011 0.007,-0.003 0.014,-0.005 0.022,-0.007 0.007,-0.001 0.014,-0.002 0.021,-0.002 0.015,0 0.03,0.003 0.043,0.009 0.013,0.006 0.025,0.014 0.035,0.026 z"
         style="fill-rule:nonzero"
         id="path15218" /><path
         d="m 1.085,-0.097 c 0,0.007 -0.005,0.013 -0.016,0.018 -0.011,0.006 -0.025,0.01 -0.041,0.014 -0.017,0.004 -0.036,0.008 -0.056,0.011 -0.02,0.003 -0.039,0.005 -0.057,0.007 -0.018,0.002 -0.034,0.004 -0.048,0.005 -0.014,0.001 -0.024,0.002 -0.028,0.002 -0.026,0.002 -0.053,0.003 -0.079,0.004 -0.026,0 -0.052,10e-4 -0.078,10e-4 -0.028,0 -0.056,-10e-4 -0.084,-10e-4 C 0.57,-0.037 0.543,-0.039 0.515,-0.041 0.511,-0.041 0.502,-0.042 0.488,-0.043 0.475,-0.044 0.459,-0.045 0.442,-0.047 0.424,-0.049 0.406,-0.052 0.387,-0.055 0.368,-0.058 0.35,-0.062 0.334,-0.065 0.318,-0.069 0.304,-0.074 0.294,-0.079 0.284,-0.084 0.278,-0.09 0.278,-0.097 c 0,-0.006 0.006,-0.012 0.016,-0.017 0.01,-0.005 0.024,-0.01 0.04,-0.014 0.016,-0.004 0.034,-0.007 0.053,-0.01 0.019,-0.003 0.037,-0.006 0.055,-0.008 0.017,-0.002 0.033,-0.003 0.046,-0.005 0.014,-0.001 0.023,-0.002 0.027,-0.002 0.028,-0.002 0.055,-0.003 0.083,-0.004 0.028,-0.001 0.056,-0.001 0.084,-0.001 0.026,0 0.052,0 0.078,0.001 0.026,0.001 0.053,0.002 0.079,0.004 0.004,0 0.014,0.001 0.028,0.002 0.014,0.001 0.03,0.003 0.048,0.005 0.018,0.001 0.037,0.004 0.057,0.007 0.02,0.003 0.039,0.007 0.056,0.011 0.016,0.004 0.03,0.009 0.041,0.014 0.011,0.005 0.016,0.011 0.016,0.017 z"
         style="fill:#383838;fill-rule:nonzero"
         id="path15220" /><path
         d="m 0.717,-0.667 c 0,0.01 -0.004,0.018 -0.01,0.025 -0.007,0.007 -0.016,0.01 -0.025,0.01 -0.01,0 -0.018,-0.003 -0.025,-0.01 -0.007,-0.007 -0.01,-0.016 -0.01,-0.025 0,-0.009 0.003,-0.018 0.01,-0.025 0.007,-0.007 0.015,-0.01 0.025,-0.01 0.009,0 0.018,0.003 0.025,0.01 0.006,0.007 0.01,0.015 0.01,0.025 z"
         style="fill:#3a96dd;fill-rule:nonzero"
         id="path15222" /><path
         d="m 0.602,-0.667 h 0.08 l 0.1,0.259 -0.1,0.236 -0.452,0.067 c 0,0 -0.001,0 -0.001,0 -0.001,0 -0.001,0 -0.002,0 -0.004,0 -0.008,-0.001 -0.012,-0.003 C 0.211,-0.111 0.208,-0.114 0.205,-0.117 0.202,-0.12 0.199,-0.124 0.198,-0.128 0.196,-0.133 0.195,-0.137 0.195,-0.141 L 0.218,-0.329 C 0.224,-0.377 0.239,-0.422 0.261,-0.463 0.283,-0.504 0.312,-0.54 0.346,-0.57 0.38,-0.601 0.419,-0.624 0.463,-0.641 0.506,-0.658 0.553,-0.667 0.602,-0.667 Z"
         style="fill:#0078d7;fill-rule:nonzero"
         id="path15224" /><path
         d="m 0.762,-0.667 c 0.049,0 0.095,0.009 0.139,0.026 0.044,0.017 0.083,0.04 0.117,0.071 0.034,0.03 0.062,0.066 0.085,0.107 0.022,0.041 0.036,0.086 0.043,0.134 l 0.022,0.184 v 0.004 c 0,0.004 0,0.008 -0.002,0.012 -0.002,0.005 -0.004,0.009 -0.007,0.012 -0.003,0.003 -0.006,0.006 -0.01,0.009 -0.004,0.002 -0.008,0.003 -0.012,0.003 -0.001,0 -0.002,0 -0.002,0 0,0 -0.001,0 -0.002,0 L 0.682,-0.172 v -0.495 z"
         style="fill:#0063b1;fill-rule:nonzero"
         id="path15226" /><path
         d="m 1.138,-0.112 v 0.118 c 0,0.01 -0.003,0.018 -0.01,0.025 C 1.121,0.038 1.112,0.041 1.103,0.041 1.095,0.041 1.088,0.039 1.082,0.034 1.071,0.026 1.06,0.018 1.049,0.01 1.038,0.002 1.027,-0.006 1.015,-0.013 0.964,-0.043 0.911,-0.066 0.855,-0.082 0.799,-0.098 0.741,-0.105 0.682,-0.105 c -0.059,0 -0.117,0.007 -0.173,0.023 -0.057,0.016 -0.11,0.039 -0.16,0.069 C 0.337,-0.006 0.326,0.002 0.315,0.01 0.304,0.018 0.293,0.026 0.282,0.034 0.275,0.039 0.268,0.041 0.261,0.041 0.251,0.041 0.243,0.038 0.236,0.031 0.229,0.024 0.226,0.016 0.226,0.006 v -0.118 c 0,-0.007 0.003,-0.012 0.009,-0.016 0.008,-0.005 0.016,-0.009 0.025,-0.014 0.009,-0.004 0.018,-0.008 0.027,-0.011 l 0.007,-0.003 c 0.03,-0.013 0.061,-0.024 0.093,-0.033 0.032,-0.009 0.064,-0.016 0.097,-0.022 0.033,-0.006 0.066,-0.01 0.099,-0.013 0.033,-0.003 0.066,-0.004 0.099,-0.004 0.032,0 0.065,0.001 0.098,0.004 0.033,0.003 0.066,0.007 0.099,0.013 0.033,0.006 0.065,0.013 0.097,0.022 0.032,0.009 0.063,0.02 0.093,0.033 0.01,0.004 0.021,0.008 0.031,0.013 0.01,0.004 0.02,0.01 0.029,0.015 0.006,0.004 0.009,0.009 0.009,0.016 z"
         style="fill:#0027b4;fill-rule:nonzero"
         id="path15228" /><path
         d="m 0.506,-0.491 c 0,0.009 -0.003,0.017 -0.01,0.024 -0.007,0.007 -0.015,0.01 -0.025,0.01 -0.009,0 -0.017,-0.003 -0.024,-0.01 -0.007,-0.007 -0.011,-0.015 -0.011,-0.024 0,-0.01 0.003,-0.018 0.01,-0.025 0.007,-0.007 0.015,-0.01 0.025,-0.01 0.01,0 0.018,0.003 0.025,0.01 0.007,0.007 0.01,0.015 0.01,0.025 z m 0.422,0 c 0,0.009 -0.004,0.017 -0.011,0.024 -0.007,0.007 -0.015,0.01 -0.024,0.01 -0.01,0 -0.018,-0.003 -0.025,-0.01 -0.007,-0.007 -0.011,-0.015 -0.011,-0.024 0,-0.01 0.004,-0.018 0.011,-0.025 0.007,-0.007 0.015,-0.01 0.025,-0.01 0.009,0 0.017,0.003 0.024,0.01 0.007,0.007 0.011,0.015 0.011,0.025 z"
         style="fill:#383838;fill-rule:nonzero"
         id="path15230" /></g></g></svg>
