<?xml version="1.0" encoding="UTF-8" standalone="no"?>
<svg
   width="16.844999"
   height="12.105"
   viewBox="0 0 16.844999 12.105"
   version="1.1"
   xml:space="preserve"
   style="clip-rule:evenodd;fill-rule:evenodd;stroke-linejoin:round;stroke-miterlimit:2"
   id="svg20568"
   sodipodi:docname="emojis.svg"
   xmlns:inkscape="http://www.inkscape.org/namespaces/inkscape"
   xmlns:sodipodi="http://sodipodi.sourceforge.net/DTD/sodipodi-0.dtd"
   xmlns="http://www.w3.org/2000/svg"
   xmlns:svg="http://www.w3.org/2000/svg"><defs
     id="defs20572" /><sodipodi:namedview
     id="namedview20570"
     pagecolor="#505050"
     bordercolor="#eeeeee"
     borderopacity="1"
     inkscape:pageshadow="0"
     inkscape:pageopacity="0"
     inkscape:pagecheckerboard="0" /><g
     transform="matrix(0.24,0,0,0.24,-359.8182,-132.42924)"
     id="g20566"><g
       transform="matrix(62.5,0,0,62.5,1491.43,589.101)"
       id="g1538"><path
         d="M 0.722,0.21 H 0.125 v -0.491 h 0.159 c 0.003,0 0.006,0 0.01,-10e-4 0.005,-0.001 0.009,-0.002 0.013,-0.004 0.005,-0.001 0.009,-0.003 0.013,-0.005 0.004,-0.002 0.007,-0.004 0.009,-0.006 l 0.258,-0.259 c 0.014,-0.013 0.029,-0.023 0.046,-0.03 0.017,-0.007 0.035,-0.011 0.054,-0.011 0.019,0 0.037,0.004 0.054,0.011 0.017,0.008 0.032,0.018 0.045,0.03 0.012,0.013 0.022,0.028 0.03,0.045 0.007,0.017 0.011,0.035 0.011,0.054 h 0.298 c 0.017,0 0.033,0.004 0.048,0.01 0.015,0.007 0.028,0.016 0.039,0.027 0.011,0.011 0.02,0.024 0.026,0.039 0.007,0.015 0.01,0.031 0.01,0.048 0,0.016 -0.003,0.032 -0.01,0.047 -0.006,0.015 -0.015,0.028 -0.026,0.039 -0.011,0.011 -0.024,0.02 -0.039,0.027 -0.015,0.006 -0.031,0.01 -0.048,0.01 H 0.932 v 0.14 C 0.932,-0.045 0.926,-0.021 0.913,0 0.901,0.021 0.884,0.039 0.862,0.051 V 0.07 C 0.862,0.09 0.858,0.108 0.851,0.125 0.844,0.142 0.833,0.157 0.821,0.169 0.808,0.182 0.793,0.192 0.776,0.199 0.759,0.207 0.741,0.21 0.722,0.21 Z"
         style="fill-rule:nonzero"
         id="path1532" /><path
         d="m 0.517,-0.386 0.115,-0.018 0.043,0.011 c 0.008,0.002 0.015,0.004 0.023,0.005 0.007,0.001 0.013,0.002 0.018,0.002 h 0.409 c 0.007,0 0.014,0.001 0.021,0.004 0.006,0.003 0.012,0.006 0.016,0.011 0.005,0.005 0.009,0.01 0.012,0.017 0.002,0.007 0.004,0.013 0.004,0.021 0,0.007 -0.002,0.014 -0.004,0.02 -0.003,0.007 -0.007,0.012 -0.012,0.017 -0.004,0.005 -0.01,0.008 -0.016,0.011 -0.007,0.003 -0.014,0.004 -0.021,0.004 H 0.862 l -0.008,0.016 0.008,0.019 v 0.105 l -0.007,0.017 0.007,0.018 v 0.036 c 0,0.009 -0.002,0.019 -0.006,0.027 C 0.853,-0.035 0.848,-0.027 0.842,-0.021 0.835,-0.014 0.828,-0.009 0.819,-0.006 0.811,-0.002 0.802,0 0.792,0 L 0.786,0.017 C 0.789,0.022 0.79,0.027 0.791,0.033 0.792,0.038 0.792,0.044 0.792,0.049 V 0.07 C 0.792,0.08 0.79,0.089 0.786,0.098 0.783,0.106 0.778,0.114 0.771,0.12 0.765,0.126 0.757,0.131 0.749,0.135 0.741,0.138 0.731,0.14 0.722,0.14 H 0.195 v -0.35 h 0.092 c 0.008,0 0.016,-0.001 0.025,-0.003 0.008,-0.002 0.016,-0.004 0.024,-0.008 0.008,-0.003 0.016,-0.007 0.023,-0.011 0.007,-0.005 0.014,-0.01 0.019,-0.016 z"
         style="fill:#ffc83d;fill-rule:nonzero"
         id="path1534" /><path
         d="M 0.716,-0.386 H 0.517 l 0.12,-0.12 c 0.006,-0.006 0.014,-0.011 0.022,-0.015 0.009,-0.004 0.018,-0.005 0.028,-0.005 0.009,0 0.018,0.002 0.027,0.005 0.008,0.004 0.016,0.009 0.022,0.015 0.006,0.007 0.011,0.014 0.015,0.023 0.004,0.008 0.006,0.017 0.006,0.027 0,0.007 -0.001,0.014 -0.003,0.02 -0.002,0.006 -0.005,0.012 -0.008,0.017 -0.003,0.005 -0.007,0.01 -0.011,0.014 z m 0.006,0.123 c 0,-0.005 0.001,-0.009 0.005,-0.013 0.003,-0.003 0.007,-0.005 0.012,-0.005 h 0.123 v 0.035 H 0.739 C 0.734,-0.246 0.73,-0.247 0.727,-0.251 0.723,-0.254 0.722,-0.258 0.722,-0.263 Z m 0,0.14 c 0,-0.005 0.001,-0.009 0.005,-0.012 0.003,-0.004 0.007,-0.006 0.012,-0.006 h 0.123 v 0.036 H 0.739 C 0.734,-0.105 0.73,-0.107 0.727,-0.111 0.723,-0.114 0.722,-0.118 0.722,-0.123 Z M 0.704,0 H 0.792 V 0.035 H 0.704 C 0.699,0.035 0.695,0.033 0.692,0.03 0.688,0.027 0.687,0.022 0.687,0.018 0.687,0.013 0.688,0.009 0.692,0.005 0.695,0.002 0.699,0 0.704,0 Z"
         style="fill:#d48c00;fill-rule:nonzero"
         id="path1536" /></g></g></svg>
