<?xml version="1.0" encoding="UTF-8" standalone="no"?>
<svg
   width="11.58"
   height="16.844999"
   viewBox="0 0 11.58 16.844999"
   version="1.1"
   xml:space="preserve"
   style="clip-rule:evenodd;fill-rule:evenodd;stroke-linejoin:round;stroke-miterlimit:2"
   id="svg20568"
   sodipodi:docname="emojis.svg"
   xmlns:inkscape="http://www.inkscape.org/namespaces/inkscape"
   xmlns:sodipodi="http://sodipodi.sourceforge.net/DTD/sodipodi-0.dtd"
   xmlns="http://www.w3.org/2000/svg"
   xmlns:svg="http://www.w3.org/2000/svg"><defs
     id="defs20572" /><sodipodi:namedview
     id="namedview20570"
     pagecolor="#505050"
     bordercolor="#eeeeee"
     borderopacity="1"
     inkscape:pageshadow="0"
     inkscape:pageopacity="0"
     inkscape:pagecheckerboard="0" /><g
     transform="matrix(0.24,0,0,0.24,-91.39236,-783.3378)"
     id="g20566"><g
       transform="matrix(62.5,0,0,62.5,372.989,3320.97)"
       id="g15366"><path
         d="M 0.335,0.21 C 0.306,0.21 0.279,0.205 0.254,0.194 0.228,0.183 0.206,0.168 0.187,0.149 0.168,0.13 0.153,0.107 0.142,0.082 0.131,0.056 0.125,0.029 0.125,0 v -0.702 c 0,-0.029 0.006,-0.056 0.017,-0.082 0.011,-0.025 0.026,-0.048 0.045,-0.067 0.019,-0.019 0.041,-0.034 0.067,-0.045 0.025,-0.011 0.052,-0.017 0.081,-0.017 h 0.352 c 0.028,0 0.056,0.006 0.081,0.017 0.026,0.011 0.048,0.026 0.067,0.045 0.019,0.019 0.034,0.042 0.045,0.067 0.011,0.026 0.017,0.053 0.017,0.082 V 0 C 0.897,0.029 0.891,0.056 0.88,0.082 0.869,0.107 0.854,0.13 0.835,0.149 0.816,0.168 0.794,0.183 0.768,0.194 0.743,0.205 0.715,0.21 0.687,0.21 Z"
         style="fill-rule:nonzero"
         id="path15354" /><path
         d="M 0.827,-0.704 V 0.002 C 0.827,0.021 0.823,0.039 0.815,0.056 0.808,0.073 0.798,0.087 0.785,0.1 0.772,0.112 0.757,0.122 0.74,0.129 0.723,0.136 0.705,0.14 0.687,0.14 H 0.335 C 0.317,0.14 0.299,0.136 0.282,0.129 0.265,0.122 0.25,0.112 0.237,0.1 0.224,0.087 0.214,0.073 0.207,0.056 0.199,0.039 0.195,0.021 0.195,0.002 v -0.706 c 0,-0.018 0.004,-0.036 0.012,-0.053 0.007,-0.017 0.017,-0.032 0.03,-0.045 0.013,-0.012 0.028,-0.022 0.045,-0.029 0.017,-0.008 0.035,-0.011 0.053,-0.011 h 0.352 c 0.018,0 0.036,0.003 0.053,0.011 0.017,0.007 0.032,0.017 0.045,0.029 0.013,0.013 0.023,0.028 0.03,0.045 0.008,0.017 0.012,0.035 0.012,0.053 z"
         style="fill:#e5e5e5;fill-rule:nonzero"
         id="path15356" /><path
         d="M 0.757,-0.702 H 0.616 v -0.035 h 0.141 z m 0,0.737 H 0.616 V 0 H 0.757 Z M 0.406,-0.07 H 0.265 v -0.035 h 0.141 z m 0,-0.527 H 0.265 v -0.035 h 0.141 z m 0.351,0.106 H 0.616 v -0.035 h 0.141 z m -0.351,0 H 0.265 v -0.035 h 0.141 z m 0,0.105 H 0.265 v -0.035 h 0.141 z m 0.351,0.105 H 0.616 v -0.035 h 0.141 z m -0.351,0 H 0.265 V -0.316 H 0.406 Z M 0.757,-0.386 H 0.616 v -0.035 h 0.141 z m 0,-0.211 H 0.616 V -0.632 H 0.757 Z M 0.406,-0.702 H 0.265 V -0.737 H 0.406 Z M 0.757,-0.07 H 0.616 V -0.105 H 0.757 Z M 0.406,0.035 H 0.265 V 0 h 0.141 z m 0,-0.211 H 0.265 V -0.21 h 0.141 z m 0.351,0 H 0.616 V -0.21 h 0.141 z"
         style="fill:#a6a6a6;fill-rule:nonzero"
         id="path15358" /><path
         d="m 0.511,-0.772 c 0.01,0 0.018,0.003 0.025,0.01 0.006,0.007 0.01,0.015 0.01,0.025 v 0.772 c 0,0.01 -0.004,0.018 -0.01,0.025 C 0.529,0.067 0.521,0.07 0.511,0.07 0.502,0.07 0.494,0.067 0.487,0.06 0.48,0.053 0.476,0.045 0.476,0.035 v -0.772 c 0,-0.01 0.004,-0.018 0.011,-0.025 0.007,-0.007 0.015,-0.01 0.024,-0.01 z"
         style="fill:#1f1f1f;fill-rule:nonzero"
         id="path15360" /><path
         d="M 0.643,-0.509 H 0.397 c -0.001,0 -0.004,-0.001 -0.01,-0.003 L 0.348,-0.523 C 0.342,-0.524 0.337,-0.526 0.335,-0.526 c 0,-0.01 0.004,-0.018 0.011,-0.025 0.007,-0.007 0.015,-0.011 0.025,-0.011 h 0.28 c 0.01,0 0.018,0.004 0.025,0.011 0.007,0.007 0.011,0.015 0.011,0.025 z"
         style="fill:#757575;fill-rule:nonzero"
         id="path15362" /><path
         d="m 0.651,-0.491 h -0.28 c -0.01,0 -0.018,-0.004 -0.025,-0.011 C 0.339,-0.509 0.335,-0.517 0.335,-0.526 h 0.352 c 0,0.009 -0.004,0.017 -0.011,0.024 -0.007,0.007 -0.015,0.011 -0.025,0.011 z"
         style="fill:#383838;fill-rule:nonzero"
         id="path15364" /></g></g></svg>
