<?xml version="1.0" encoding="UTF-8" standalone="no"?>
<svg
   width="16.844999"
   height="16.844999"
   viewBox="0 0 16.844999 16.844999"
   version="1.1"
   xml:space="preserve"
   style="clip-rule:evenodd;fill-rule:evenodd;stroke-linejoin:round;stroke-miterlimit:2"
   id="svg20568"
   sodipodi:docname="emojis.svg"
   xmlns:inkscape="http://www.inkscape.org/namespaces/inkscape"
   xmlns:sodipodi="http://sodipodi.sourceforge.net/DTD/sodipodi-0.dtd"
   xmlns="http://www.w3.org/2000/svg"
   xmlns:svg="http://www.w3.org/2000/svg"><defs
     id="defs20572" /><sodipodi:namedview
     id="namedview20570"
     pagecolor="#505050"
     bordercolor="#eeeeee"
     borderopacity="1"
     inkscape:pageshadow="0"
     inkscape:pageopacity="0"
     inkscape:pagecheckerboard="0" /><g
     transform="matrix(0.24,0,0,0.24,-54.405,-783.3378)"
     id="g20566"><g
       transform="matrix(62.5,0,0,62.5,218.875,3320.97)"
       id="g15334"><path
         d="m 1.213,-0.66 0.035,-0.009 v 0.25 C 1.223,-0.424 1.198,-0.43 1.173,-0.437 1.149,-0.445 1.124,-0.451 1.098,-0.457 c 0.015,0.031 0.026,0.062 0.033,0.095 0.008,0.032 0.012,0.065 0.012,0.099 0,0.028 -0.003,0.057 -0.008,0.084 -0.006,0.028 -0.014,0.055 -0.025,0.081 L 1.126,-0.105 H 1.248 V 0.21 H 1.126 L 1.056,0.175 H 0.704 C 0.664,0.175 0.625,0.17 0.588,0.159 0.55,0.149 0.515,0.134 0.483,0.115 0.45,0.096 0.421,0.073 0.394,0.046 0.367,0.019 0.344,-0.01 0.325,-0.043 0.306,-0.076 0.292,-0.111 0.281,-0.148 0.271,-0.185 0.266,-0.224 0.266,-0.265 c 0,-0.038 0,-0.076 -0.001,-0.113 0,-0.038 0,-0.076 0,-0.114 0,-0.03 -0.003,-0.059 -0.01,-0.084 C 0.249,-0.602 0.24,-0.627 0.228,-0.65 0.215,-0.673 0.201,-0.694 0.184,-0.715 0.166,-0.736 0.147,-0.757 0.125,-0.777 v -0.136 h 0.526 v 0.136 c -0.016,0.015 -0.031,0.03 -0.046,0.046 -0.014,0.016 -0.027,0.033 -0.039,0.051 0.022,-0.007 0.045,-0.013 0.068,-0.017 0.023,-0.003 0.047,-0.005 0.07,-0.005 0.031,0 0.061,0.003 0.091,0.009 0.029,0.007 0.058,0.016 0.086,0.028 0.018,-0.012 0.038,-0.021 0.058,-0.027 0.021,-0.007 0.042,-0.01 0.063,-0.01 l 0.042,0.001 c 0.015,0 0.028,-0.002 0.041,-0.006 0.013,-0.003 0.027,-0.007 0.04,-0.01 l 0.088,-0.022 z m -0.509,0.203 c -0.026,0 -0.051,0.006 -0.075,0.016 -0.023,0.01 -0.043,0.024 -0.061,0.042 -0.017,0.017 -0.031,0.038 -0.041,0.061 -0.011,0.024 -0.016,0.048 -0.016,0.075 0,0.027 0.005,0.052 0.015,0.075 0.01,0.023 0.024,0.044 0.042,0.061 0.017,0.018 0.037,0.031 0.061,0.042 0.023,0.01 0.048,0.015 0.075,0.015 0.027,0 0.052,-0.005 0.075,-0.015 0.024,-0.011 0.044,-0.024 0.062,-0.042 0.017,-0.017 0.031,-0.038 0.041,-0.061 0.01,-0.023 0.015,-0.048 0.015,-0.075 0,-0.027 -0.005,-0.052 -0.015,-0.075 C 0.872,-0.362 0.858,-0.382 0.841,-0.4 0.823,-0.417 0.803,-0.431 0.779,-0.441 0.756,-0.451 0.731,-0.457 0.704,-0.457 Z"
         style="fill-rule:nonzero"
         id="path15322" /><path
         d="M 0.911,-0.55 0.884,-0.573 c 0.014,-0.018 0.032,-0.032 0.053,-0.043 0.02,-0.011 0.042,-0.016 0.065,-0.016 h 0.071 l 0.017,0.018 -0.017,0.017 h -0.05 c -0.012,0 -0.023,0 -0.033,0.002 C 0.98,-0.594 0.97,-0.592 0.961,-0.588 0.952,-0.585 0.943,-0.58 0.935,-0.574 0.927,-0.568 0.918,-0.56 0.911,-0.55 Z M 0.946,-0.48 0.918,-0.502 C 0.933,-0.52 0.951,-0.535 0.971,-0.545 0.992,-0.556 1.014,-0.562 1.038,-0.562 h 0.069 l 0.014,0.018 -0.014,0.018 -0.049,-0.001 c -0.012,0 -0.023,0.001 -0.033,0.002 -0.011,0.001 -0.02,0.004 -0.029,0.007 C 0.986,-0.514 0.978,-0.51 0.97,-0.504 0.962,-0.498 0.954,-0.49 0.946,-0.48 Z"
         style="fill:#e84757;fill-rule:nonzero"
         id="path15324" /><path
         d="m 1.107,-0.562 0.071,-0.017 v 0.07 L 1.107,-0.526 Z m -0.034,-0.07 0.07,-0.017 v 0.07 l -0.07,-0.018 z"
         style="fill:#af0d1a;fill-rule:nonzero"
         id="path15326" /><path
         d="M 1.073,0 1.143,-0.035 1.167,0.05 1.143,0.14 1.073,0.105 H 0.868 L 0.856,0.095 C 0.831,0.097 0.805,0.099 0.78,0.101 0.755,0.104 0.729,0.105 0.704,0.105 0.672,0.105 0.64,0.101 0.61,0.093 0.579,0.084 0.55,0.073 0.523,0.057 0.496,0.042 0.471,0.024 0.448,0.003 0.425,-0.019 0.405,-0.042 0.389,-0.068 0.372,-0.094 0.359,-0.122 0.35,-0.152 0.341,-0.182 0.336,-0.213 0.336,-0.246 v -0.017 c 0,-0.037 0,-0.074 0,-0.11 0,-0.036 -0.001,-0.073 -0.001,-0.109 0,-0.031 -0.003,-0.061 -0.009,-0.091 C 0.32,-0.603 0.311,-0.632 0.299,-0.659 0.287,-0.687 0.273,-0.714 0.255,-0.739 0.238,-0.764 0.218,-0.787 0.195,-0.807 l 0.136,-0.016 c 0.011,-0.002 0.023,-0.004 0.034,-0.006 0.011,-0.002 0.023,-0.003 0.034,-0.003 0.01,0 0.021,0.001 0.03,0.003 0.01,0.002 0.021,0.004 0.031,0.006 l 0.122,0.016 c -0.042,0.037 -0.074,0.08 -0.098,0.129 -0.024,0.048 -0.038,0.1 -0.042,0.156 0.002,0.003 0.006,0.005 0.009,0.007 0.004,0.002 0.007,0.004 0.011,0.005 l 0.02,-0.048 c 0.033,-0.024 0.068,-0.043 0.105,-0.055 0.038,-0.013 0.077,-0.019 0.117,-0.019 0.05,0 0.098,0.01 0.144,0.029 0.012,0.018 0.026,0.034 0.042,0.049 0.015,0.016 0.031,0.031 0.047,0.045 0.018,0.017 0.036,0.034 0.054,0.051 0.018,0.016 0.035,0.034 0.053,0.051 0.019,0.046 0.029,0.094 0.029,0.144 0,0.05 -0.01,0.098 -0.029,0.143 C 1.025,-0.075 0.997,-0.035 0.962,0 L 0.97,0.02 1.009,0 Z M 0.441,-0.263 c 0,0.036 0.007,0.07 0.021,0.102 0.014,0.032 0.032,0.06 0.056,0.084 0.024,0.024 0.052,0.042 0.084,0.056 C 0.634,-0.007 0.668,0 0.704,0 0.74,0 0.774,-0.007 0.806,-0.021 0.838,-0.035 0.866,-0.053 0.89,-0.077 0.914,-0.101 0.933,-0.129 0.947,-0.161 0.96,-0.193 0.967,-0.227 0.967,-0.263 0.967,-0.276 0.966,-0.289 0.965,-0.303 0.963,-0.316 0.96,-0.329 0.956,-0.342 0.954,-0.346 0.952,-0.35 0.951,-0.354 0.949,-0.358 0.948,-0.362 0.946,-0.366 0.945,-0.371 0.944,-0.375 0.944,-0.38 0.943,-0.384 0.942,-0.389 0.941,-0.394 0.938,-0.409 0.934,-0.425 0.929,-0.44 0.924,-0.455 0.919,-0.47 0.914,-0.484 L 0.906,-0.485 C 0.889,-0.488 0.873,-0.491 0.856,-0.494 0.839,-0.497 0.823,-0.501 0.807,-0.506 0.797,-0.509 0.788,-0.512 0.781,-0.514 0.773,-0.517 0.765,-0.519 0.757,-0.521 0.749,-0.523 0.741,-0.524 0.732,-0.525 0.724,-0.526 0.715,-0.526 0.704,-0.526 0.681,-0.526 0.658,-0.523 0.636,-0.517 0.614,-0.511 0.593,-0.503 0.573,-0.491 0.553,-0.48 0.535,-0.466 0.519,-0.45 0.502,-0.433 0.488,-0.415 0.477,-0.395 0.472,-0.398 0.468,-0.401 0.463,-0.404 0.459,-0.407 0.455,-0.411 0.451,-0.415 0.449,-0.389 0.447,-0.364 0.444,-0.339 0.442,-0.314 0.441,-0.289 0.441,-0.263 Z"
         style="fill:#ffc83d;fill-rule:nonzero"
         id="path15328" /><path
         d="m 0.807,-0.506 0.041,-0.097 c 0.044,0.02 0.083,0.046 0.117,0.079 0.033,0.034 0.059,0.073 0.079,0.117 L 0.947,-0.366 C 0.933,-0.397 0.914,-0.425 0.89,-0.449 0.866,-0.473 0.838,-0.492 0.807,-0.506 Z"
         style="fill:#af0d1a;fill-rule:nonzero"
         id="path15330" /><path
         d="m 0.195,-0.807 v -0.035 h 0.386 v 0.035 z M 0.961,0 H 1.009 C 0.99,0.022 0.968,0.043 0.944,0.06 0.921,0.078 0.895,0.093 0.868,0.105 H 0.722 C 0.767,0.102 0.81,0.092 0.851,0.074 0.892,0.056 0.929,0.032 0.961,0 Z m -0.52,-0.491 c 0,-0.005 0,-0.011 0,-0.016 0,-0.005 0.001,-0.01 0.001,-0.015 0.006,-0.006 0.013,-0.013 0.02,-0.019 0.006,-0.005 0.013,-0.011 0.02,-0.017 -0.003,0.017 -0.004,0.034 -0.005,0.05 -0.001,0.016 -0.001,0.033 -0.001,0.05 v 0.063 c -0.011,0.019 -0.019,0.038 -0.025,0.059 -0.006,0.02 -0.009,0.041 -0.01,0.063 z m 0.702,0.456 H 1.178 V 0.14 H 1.143 Z"
         style="fill:#d48c00;fill-rule:nonzero"
         id="path15332" /></g></g></svg>
