<?xml version="1.0" encoding="UTF-8" standalone="no"?>
<svg
   width="12.63"
   height="16.844999"
   viewBox="0 0 12.63 16.844999"
   version="1.1"
   xml:space="preserve"
   style="clip-rule:evenodd;fill-rule:evenodd;stroke-linejoin:round;stroke-miterlimit:2"
   id="svg20568"
   sodipodi:docname="emojis.svg"
   xmlns:inkscape="http://www.inkscape.org/namespaces/inkscape"
   xmlns:sodipodi="http://sodipodi.sourceforge.net/DTD/sodipodi-0.dtd"
   xmlns="http://www.w3.org/2000/svg"
   xmlns:svg="http://www.w3.org/2000/svg"><defs
     id="defs20572" /><sodipodi:namedview
     id="namedview20570"
     pagecolor="#505050"
     bordercolor="#eeeeee"
     borderopacity="1"
     inkscape:pageshadow="0"
     inkscape:pageopacity="0"
     inkscape:pagecheckerboard="0" /><g
     transform="matrix(0.24,0,0,0.24,-75.0006,-783.3378)"
     id="g20566"><g
       transform="matrix(62.5,0,0,62.5,304.69,3320.97)"
       id="g15352"><path
         d="M 0.581,0.21 V 0.128 C 0.581,0.126 0.58,0.123 0.578,0.121 0.577,0.118 0.575,0.115 0.573,0.113 0.57,0.11 0.568,0.107 0.566,0.104 0.564,0.102 0.562,0.1 0.561,0.098 L 0.528,0.031 C 0.481,0.024 0.44,0.007 0.404,-0.019 0.368,-0.045 0.34,-0.079 0.318,-0.121 L 0.155,-0.447 c -0.02,-0.04 -0.03,-0.082 -0.03,-0.126 0,-0.026 0.004,-0.052 0.011,-0.078 0.007,-0.025 0.017,-0.048 0.031,-0.07 0.013,-0.022 0.03,-0.042 0.049,-0.06 0.019,-0.017 0.041,-0.032 0.065,-0.044 l 0.115,-0.058 c 0.04,-0.02 0.082,-0.03 0.126,-0.03 0.027,0 0.053,0.004 0.078,0.011 0.025,0.008 0.049,0.018 0.07,0.031 0.022,0.014 0.042,0.03 0.059,0.049 0.018,0.02 0.033,0.041 0.045,0.065 l 0.163,0.327 c 0.01,0.019 0.018,0.04 0.023,0.061 0.005,0.021 0.007,0.043 0.007,0.064 0,0.021 -0.002,0.041 -0.006,0.061 -0.005,0.02 -0.011,0.039 -0.02,0.057 -0.008,0.019 -0.018,0.036 -0.031,0.052 -0.012,0.017 -0.026,0.031 -0.041,0.045 0.007,0.014 0.014,0.028 0.019,0.042 0.006,0.014 0.008,0.029 0.008,0.046 0,0.017 -0.003,0.034 -0.009,0.05 C 0.881,0.064 0.873,0.079 0.862,0.092 V 0.21 Z"
         style="fill-rule:nonzero"
         id="path15336" /><rect
         x="0.65100002"
         y="0"
         width="0.141"
         height="0.14"
         style="fill:#757575;fill-rule:nonzero"
         id="rect15338" /><path
         d="M 0.663,-0.031 0.589,-0.179 C 0.584,-0.189 0.582,-0.2 0.582,-0.211 c 0,-0.01 0.001,-0.019 0.005,-0.027 0.003,-0.009 0.008,-0.016 0.015,-0.022 0.006,-0.007 0.014,-0.012 0.022,-0.015 0.008,-0.004 0.018,-0.006 0.027,-0.006 0.014,0 0.026,0.004 0.037,0.011 0.012,0.007 0.02,0.016 0.026,0.028 l 0.106,0.211 c 0.005,0.01 0.007,0.02 0.007,0.031 0,0.013 -0.003,0.026 -0.01,0.037 C 0.81,0.048 0.8,0.056 0.788,0.063 L 0.718,0.098 C 0.714,0.098 0.71,0.095 0.705,0.091 0.701,0.086 0.696,0.08 0.69,0.073 0.685,0.066 0.68,0.059 0.675,0.05 0.67,0.041 0.665,0.033 0.661,0.025 0.657,0.017 0.653,0.009 0.651,0.003 0.648,-0.004 0.647,-0.009 0.647,-0.012 c 0,-0.006 0.001,-0.01 0.004,-0.013 0.003,-0.002 0.007,-0.005 0.012,-0.006 z"
         style="fill:#e5e5e5;fill-rule:nonzero"
         id="path15340" /><path
         d="M 0.687,0.105 C 0.673,0.105 0.661,0.101 0.65,0.094 0.638,0.087 0.63,0.078 0.624,0.066 l -0.105,-0.21 c -0.005,-0.01 -0.008,-0.02 -0.008,-0.032 0,-0.01 0.002,-0.019 0.006,-0.027 0.003,-0.009 0.008,-0.016 0.014,-0.022 0.007,-0.007 0.014,-0.012 0.023,-0.015 0.009,-0.004 0.018,-0.006 0.028,-0.006 0.013,0 0.026,0.004 0.036,0.011 0.011,0.006 0.02,0.016 0.026,0.028 l 0.106,0.21 c 0.004,0.01 0.007,0.021 0.007,0.032 0,0.009 -0.002,0.019 -0.006,0.027 C 0.747,0.07 0.742,0.078 0.736,0.084 0.73,0.091 0.722,0.096 0.714,0.099 0.705,0.103 0.696,0.105 0.687,0.105 Z"
         style="fill:#a6a6a6;fill-rule:nonzero"
         id="path15342" /><path
         d="m 0.868,-0.377 c 0.002,0.003 0.004,0.005 0.007,0.006 0.004,0.001 0.007,0.001 0.011,0.001 0.001,0 0.003,0.002 0.004,0.006 0.001,0.004 0.002,0.009 0.003,0.014 0,0.005 0.001,0.01 0.001,0.015 0.001,0.005 0.001,0.008 0.002,0.009 -0.002,0.003 -0.004,0.008 -0.007,0.013 -0.002,0.005 -0.004,0.01 -0.004,0.013 0,0.003 0.002,0.005 0.004,0.008 0.003,0.002 0.006,0.004 0.007,0.005 -0.001,0.018 -0.005,0.036 -0.011,0.053 -0.006,0.017 -0.014,0.033 -0.024,0.048 -0.01,0.015 -0.022,0.028 -0.036,0.04 -0.013,0.013 -0.028,0.023 -0.045,0.031 l -0.115,0.057 c -0.009,0.005 -0.019,0.009 -0.028,0.011 -0.01,0.003 -0.02,0.006 -0.03,0.008 L 0.293,-0.751 c 0.022,-0.013 0.044,-0.025 0.067,-0.036 0.023,-0.01 0.045,-0.021 0.068,-0.033 0.029,-0.015 0.061,-0.022 0.094,-0.022 0.017,0 0.034,0.002 0.051,0.006 0.016,0.004 0.032,0.01 0.047,0.018 0.015,0.007 0.029,0.017 0.041,0.028 0.013,0.011 0.025,0.024 0.034,0.038 -0.001,0.002 -0.002,0.006 -0.003,0.009 -0.002,0.003 -0.003,0.007 -0.003,0.01 0,0.003 0.001,0.005 0.002,0.007 l 0.022,0.004 0.019,0.039 -0.003,0.022 0.019,0.009 0.02,0.039 -0.006,0.021 0.021,0.01 0.02,0.04 -0.006,0.02 0.021,0.01 0.02,0.04 -0.005,0.021 0.021,0.01 0.019,0.039 z"
         style="fill:#f2f2f2;fill-rule:nonzero"
         id="path15344" /><path
         d="m 0.329,-0.754 c 0.02,0 0.039,0.002 0.058,0.008 0.019,0.005 0.037,0.013 0.054,0.023 0.016,0.01 0.031,0.022 0.044,0.037 0.014,0.014 0.025,0.03 0.034,0.048 l 0.163,0.327 c 0.015,0.03 0.022,0.061 0.022,0.094 0,0.018 -0.002,0.036 -0.006,0.053 -0.005,0.017 -0.011,0.033 -0.02,0.048 C 0.67,-0.1 0.66,-0.086 0.648,-0.073 0.636,-0.06 0.622,-0.049 0.607,-0.039 0.601,-0.038 0.595,-0.037 0.589,-0.037 0.583,-0.036 0.576,-0.036 0.57,-0.036 0.55,-0.036 0.531,-0.038 0.512,-0.044 0.493,-0.049 0.474,-0.057 0.458,-0.068 0.458,-0.07 0.459,-0.072 0.459,-0.074 0.459,-0.077 0.458,-0.08 0.455,-0.082 0.453,-0.084 0.45,-0.086 0.447,-0.087 0.443,-0.089 0.44,-0.09 0.436,-0.09 0.432,-0.091 0.429,-0.091 0.427,-0.091 0.416,-0.101 0.406,-0.112 0.397,-0.125 c 0,-0.002 0.001,-0.004 0.001,-0.006 0.001,-0.002 0.001,-0.004 0.001,-0.006 0,-0.004 -0.002,-0.008 -0.007,-0.011 C 0.387,-0.151 0.383,-0.153 0.379,-0.155 L 0.36,-0.194 0.361,-0.216 0.344,-0.226 0.325,-0.265 0.328,-0.285 0.309,-0.296 0.29,-0.335 0.293,-0.355 0.274,-0.366 0.254,-0.405 0.256,-0.424 0.239,-0.436 0.219,-0.476 C 0.22,-0.479 0.221,-0.482 0.222,-0.485 0.223,-0.488 0.224,-0.491 0.224,-0.494 0.224,-0.498 0.221,-0.501 0.217,-0.503 0.212,-0.506 0.208,-0.507 0.206,-0.508 0.199,-0.529 0.195,-0.55 0.195,-0.573 0.195,-0.591 0.198,-0.609 0.202,-0.626 0.206,-0.643 0.213,-0.66 0.221,-0.675 0.23,-0.69 0.24,-0.704 0.252,-0.717 0.264,-0.73 0.278,-0.742 0.293,-0.751 0.305,-0.753 0.317,-0.754 0.329,-0.754 Z"
         style="fill:#cccccc;fill-rule:nonzero"
         id="path15346" /><path
         d="m 0.494,-0.176 c -0.005,0 -0.009,-0.001 -0.013,-0.005 -0.003,-0.003 -0.005,-0.007 -0.005,-0.012 0,-0.005 0.001,-0.008 0.003,-0.01 0.001,-0.002 0.004,-0.004 0.007,-0.006 0.002,-0.002 0.009,-0.005 0.018,-0.01 0.01,-0.005 0.022,-0.011 0.035,-0.018 0.013,-0.007 0.027,-0.014 0.042,-0.021 0.014,-0.007 0.028,-0.014 0.041,-0.02 0.012,-0.006 0.023,-0.011 0.032,-0.014 0.009,-0.004 0.014,-0.006 0.015,-0.006 0.005,0 0.009,0.001 0.012,0.005 0.004,0.004 0.006,0.008 0.006,0.012 0,0.004 -0.001,0.008 -0.003,0.01 C 0.682,-0.27 0.68,-0.267 0.677,-0.265 0.674,-0.263 0.667,-0.26 0.658,-0.255 0.648,-0.25 0.637,-0.244 0.624,-0.237 0.611,-0.23 0.597,-0.223 0.583,-0.216 0.568,-0.209 0.554,-0.203 0.542,-0.197 0.529,-0.191 0.518,-0.186 0.51,-0.182 0.501,-0.178 0.495,-0.176 0.494,-0.176 Z m -0.106,-0.21 c -0.005,0 -0.009,-0.002 -0.012,-0.005 -0.004,-0.004 -0.005,-0.008 -0.005,-0.013 0,-0.004 0,-0.007 0.002,-0.009 0.002,-0.002 0.004,-0.004 0.007,-0.006 0.003,-0.002 0.009,-0.005 0.018,-0.01 0.01,-0.005 0.021,-0.011 0.034,-0.018 0.014,-0.007 0.028,-0.014 0.042,-0.021 0.015,-0.007 0.029,-0.014 0.042,-0.02 0.013,-0.006 0.024,-0.012 0.032,-0.015 0.009,-0.004 0.014,-0.006 0.015,-0.006 0.005,0 0.01,0.001 0.013,0.005 0.004,0.003 0.006,0.007 0.006,0.012 0,0.004 -0.001,0.007 -0.003,0.01 -0.002,0.002 -0.005,0.004 -0.007,0.006 -0.002,0.002 -0.008,0.005 -0.017,0.01 -0.01,0.005 -0.021,0.011 -0.034,0.017 -0.014,0.007 -0.028,0.014 -0.043,0.021 -0.015,0.007 -0.029,0.014 -0.042,0.02 -0.013,0.006 -0.024,0.012 -0.033,0.016 -0.009,0.004 -0.014,0.006 -0.015,0.006 z m -0.07,-0.14 C 0.314,-0.526 0.31,-0.528 0.306,-0.531 0.302,-0.535 0.3,-0.539 0.3,-0.544 0.3,-0.548 0.301,-0.551 0.303,-0.553 0.304,-0.555 0.307,-0.557 0.31,-0.56 0.313,-0.561 0.319,-0.565 0.329,-0.57 0.338,-0.575 0.35,-0.581 0.363,-0.587 0.376,-0.594 0.39,-0.601 0.405,-0.608 0.42,-0.615 0.434,-0.622 0.447,-0.628 0.459,-0.635 0.47,-0.64 0.479,-0.644 c 0.008,-0.003 0.013,-0.005 0.015,-0.005 0.004,0 0.008,0.001 0.012,0.005 0.003,0.004 0.005,0.008 0.005,0.012 0,0.004 -0.001,0.007 -0.002,0.009 -0.002,0.002 -0.004,0.005 -0.008,0.007 -0.002,0.001 -0.008,0.005 -0.017,0.01 -0.01,0.005 -0.021,0.011 -0.035,0.017 -0.013,0.007 -0.027,0.014 -0.042,0.021 -0.014,0.008 -0.028,0.014 -0.041,0.021 -0.013,0.006 -0.024,0.011 -0.033,0.015 -0.008,0.004 -0.013,0.006 -0.015,0.006 z m 0.035,0.069 c -0.005,0 -0.009,-0.001 -0.012,-0.005 -0.004,-0.003 -0.006,-0.007 -0.006,-0.012 0,-0.003 0.001,-0.006 0.003,-0.009 0.002,-0.003 0.005,-0.005 0.007,-0.007 0.003,-0.001 0.01,-0.005 0.02,-0.01 0.01,-0.005 0.021,-0.011 0.034,-0.017 0.013,-0.007 0.027,-0.014 0.042,-0.021 0.015,-0.007 0.028,-0.014 0.04,-0.02 0.013,-0.006 0.023,-0.011 0.032,-0.015 0.009,-0.004 0.014,-0.006 0.016,-0.006 0.004,0 0.008,0.002 0.012,0.005 0.004,0.004 0.005,0.008 0.005,0.012 0,0.004 0,0.007 -0.002,0.01 -0.002,0.002 -0.004,0.004 -0.007,0.006 -0.004,0.002 -0.011,0.006 -0.021,0.011 -0.01,0.006 -0.021,0.011 -0.034,0.018 -0.013,0.006 -0.027,0.013 -0.041,0.02 -0.014,0.008 -0.027,0.014 -0.04,0.02 -0.012,0.006 -0.023,0.011 -0.032,0.015 -0.009,0.004 -0.014,0.005 -0.016,0.005 z m 0.105,0.211 C 0.454,-0.246 0.45,-0.247 0.446,-0.251 0.443,-0.255 0.441,-0.259 0.441,-0.263 0.441,-0.267 0.442,-0.271 0.443,-0.272 0.445,-0.274 0.447,-0.277 0.451,-0.279 0.453,-0.28 0.46,-0.284 0.469,-0.289 0.479,-0.294 0.491,-0.3 0.504,-0.307 0.517,-0.314 0.531,-0.321 0.546,-0.328 0.56,-0.335 0.574,-0.342 0.587,-0.348 0.6,-0.354 0.61,-0.359 0.619,-0.363 c 0.009,-0.004 0.014,-0.006 0.015,-0.006 0.005,0 0.009,0.002 0.012,0.005 0.004,0.004 0.005,0.008 0.005,0.012 0,0.004 -0.001,0.007 -0.002,0.01 -0.002,0.002 -0.004,0.004 -0.007,0.007 -0.003,0.001 -0.009,0.005 -0.018,0.01 -0.009,0.005 -0.021,0.01 -0.034,0.017 -0.013,0.007 -0.027,0.014 -0.042,0.021 -0.015,0.007 -0.029,0.014 -0.042,0.02 -0.013,0.006 -0.024,0.011 -0.033,0.015 -0.009,0.004 -0.014,0.006 -0.015,0.006 z m 0.071,0.141 c -0.005,0 -0.009,-0.002 -0.013,-0.006 -0.003,-0.003 -0.005,-0.007 -0.005,-0.012 0,-0.007 0.003,-0.012 0.01,-0.016 0.003,-0.001 0.01,-0.005 0.02,-0.01 0.01,-0.005 0.021,-0.011 0.034,-0.017 0.013,-0.007 0.027,-0.014 0.041,-0.021 0.015,-0.008 0.028,-0.014 0.041,-0.021 0.013,-0.006 0.023,-0.011 0.032,-0.015 0.008,-0.004 0.013,-0.006 0.015,-0.006 0.005,0 0.009,0.002 0.013,0.006 0.003,0.003 0.005,0.008 0.005,0.013 0,0.006 -0.004,0.012 -0.01,0.015 -0.004,0.002 -0.011,0.006 -0.021,0.011 L 0.616,-0.146 C 0.601,-0.138 0.588,-0.132 0.576,-0.126 0.563,-0.12 0.553,-0.115 0.544,-0.111 0.536,-0.107 0.53,-0.105 0.529,-0.105 Z M 0.423,-0.316 c -0.005,0 -0.009,-0.002 -0.012,-0.005 -0.004,-0.003 -0.005,-0.008 -0.005,-0.012 0,-0.007 0.003,-0.013 0.01,-0.016 0.003,-0.002 0.009,-0.005 0.019,-0.01 0.01,-0.005 0.022,-0.011 0.035,-0.018 0.013,-0.006 0.027,-0.013 0.041,-0.021 0.014,-0.007 0.028,-0.014 0.041,-0.02 0.012,-0.006 0.023,-0.011 0.031,-0.015 0.009,-0.004 0.014,-0.006 0.016,-0.006 0.005,0 0.009,0.002 0.012,0.005 0.004,0.004 0.006,0.008 0.006,0.013 0,0.006 -0.004,0.012 -0.01,0.015 C 0.603,-0.404 0.596,-0.4 0.586,-0.395 0.576,-0.39 0.565,-0.384 0.552,-0.377 0.538,-0.371 0.525,-0.364 0.51,-0.356 0.496,-0.349 0.483,-0.343 0.47,-0.337 0.458,-0.331 0.447,-0.326 0.439,-0.322 0.43,-0.318 0.425,-0.316 0.423,-0.316 Z m 0.299,0 c 0,-0.004 0,-0.007 0.001,-0.008 0.002,-0.002 0.003,-0.004 0.006,-0.006 0,0 0,-0.001 0.002,-0.002 0.002,-0.001 0.007,-0.004 0.014,-0.008 0.007,-0.003 0.015,-0.008 0.025,-0.013 0.009,-0.004 0.019,-0.009 0.03,-0.015 0.011,-0.005 0.021,-0.01 0.031,-0.015 0.01,-0.004 0.018,-0.008 0.026,-0.012 0.007,-0.004 0.013,-0.006 0.016,-0.007 0.003,0.005 0.005,0.01 0.008,0.016 0.002,0.005 0.004,0.01 0.005,0.016 C 0.883,-0.368 0.877,-0.366 0.869,-0.361 0.861,-0.357 0.852,-0.352 0.842,-0.347 0.831,-0.342 0.821,-0.336 0.809,-0.33 0.798,-0.325 0.788,-0.319 0.778,-0.315 0.768,-0.31 0.76,-0.306 0.752,-0.303 0.745,-0.3 0.741,-0.298 0.739,-0.298 0.734,-0.298 0.73,-0.3 0.727,-0.303 0.723,-0.307 0.722,-0.311 0.722,-0.316 Z M 0.581,-0.597 c 0,-0.007 0.003,-0.012 0.01,-0.015 l 0.141,-0.071 0.016,0.031 C 0.744,-0.65 0.739,-0.647 0.73,-0.643 0.722,-0.638 0.713,-0.634 0.703,-0.628 0.693,-0.623 0.682,-0.617 0.67,-0.611 0.659,-0.605 0.648,-0.6 0.638,-0.595 0.628,-0.591 0.62,-0.587 0.613,-0.584 0.606,-0.581 0.601,-0.579 0.599,-0.579 0.594,-0.579 0.59,-0.581 0.586,-0.584 0.583,-0.588 0.581,-0.592 0.581,-0.597 Z m 0.07,0.14 c 0,-0.003 0.001,-0.007 0.003,-0.009 C 0.655,-0.468 0.658,-0.47 0.661,-0.472 0.668,-0.477 0.676,-0.481 0.684,-0.484 0.692,-0.488 0.7,-0.491 0.707,-0.495 l 0.096,-0.047 0.015,0.03 c 0,0.001 -0.004,0.004 -0.011,0.008 C 0.799,-0.5 0.791,-0.496 0.78,-0.49 0.769,-0.485 0.758,-0.479 0.746,-0.473 0.733,-0.467 0.722,-0.462 0.711,-0.457 0.7,-0.452 0.69,-0.448 0.683,-0.444 0.675,-0.441 0.67,-0.439 0.669,-0.439 0.664,-0.439 0.66,-0.441 0.656,-0.444 0.653,-0.448 0.651,-0.452 0.651,-0.457 Z m 0.036,0.071 c 0,-0.007 0.003,-0.012 0.009,-0.016 l 0.141,-0.07 0.017,0.031 c -0.001,0 -0.005,0.003 -0.012,0.006 -0.007,0.004 -0.016,0.009 -0.027,0.014 -0.01,0.006 -0.022,0.011 -0.034,0.017 -0.013,0.006 -0.025,0.012 -0.036,0.017 -0.011,0.005 -0.02,0.01 -0.027,0.013 C 0.71,-0.37 0.705,-0.369 0.704,-0.369 0.699,-0.369 0.695,-0.37 0.692,-0.374 0.688,-0.377 0.687,-0.381 0.687,-0.386 Z M 0.564,-0.649 c -0.005,0 -0.009,-0.002 -0.012,-0.005 -0.004,-0.004 -0.006,-0.008 -0.006,-0.013 0,-0.003 0.001,-0.006 0.003,-0.009 0.001,-0.003 0.004,-0.005 0.007,-0.007 l 0.139,-0.069 c 0.004,0.004 0.007,0.009 0.01,0.014 0.003,0.005 0.006,0.01 0.008,0.016 C 0.711,-0.721 0.707,-0.718 0.699,-0.714 0.691,-0.71 0.682,-0.705 0.672,-0.7 0.661,-0.695 0.65,-0.689 0.637,-0.683 0.625,-0.677 0.614,-0.671 0.603,-0.667 0.593,-0.662 0.584,-0.658 0.576,-0.654 0.569,-0.651 0.565,-0.649 0.564,-0.649 Z m 0.052,0.123 c 0,-0.007 0.003,-0.012 0.01,-0.016 l 0.142,-0.071 0.015,0.031 C 0.782,-0.581 0.777,-0.578 0.769,-0.574 0.762,-0.57 0.752,-0.565 0.742,-0.56 0.731,-0.554 0.719,-0.548 0.707,-0.542 0.695,-0.537 0.684,-0.531 0.673,-0.526 0.663,-0.521 0.654,-0.517 0.646,-0.514 0.639,-0.51 0.635,-0.509 0.634,-0.509 0.629,-0.509 0.625,-0.511 0.622,-0.514 0.618,-0.518 0.616,-0.522 0.616,-0.526 Z m 0.28,0.2 v 0.008 c 0,0.002 0.001,0.005 0.001,0.007 0,0.002 0,0.004 0,0.006 0,0.003 0,0.006 0,0.009 0,0.003 -0.001,0.006 -0.001,0.009 C 0.893,-0.285 0.889,-0.283 0.882,-0.28 0.876,-0.276 0.868,-0.272 0.86,-0.268 0.851,-0.263 0.843,-0.259 0.833,-0.254 0.824,-0.249 0.815,-0.245 0.807,-0.241 0.799,-0.237 0.792,-0.234 0.786,-0.232 0.78,-0.229 0.776,-0.228 0.774,-0.228 0.77,-0.228 0.765,-0.23 0.762,-0.233 0.759,-0.237 0.757,-0.241 0.757,-0.246 c 0,-0.007 0.003,-0.012 0.01,-0.015 z m -0.56,-0.043 c 0,0.007 -0.003,0.012 -0.01,0.016 l -0.019,0.01 C 0.303,-0.341 0.3,-0.339 0.296,-0.337 0.293,-0.336 0.291,-0.335 0.29,-0.335 L 0.274,-0.366 c 0.001,-0.001 0.004,-0.003 0.008,-0.005 0.004,-0.002 0.009,-0.005 0.013,-0.007 0.005,-0.002 0.01,-0.004 0.014,-0.006 0.005,-0.001 0.008,-0.002 0.009,-0.002 0.005,0 0.009,0.002 0.013,0.005 0.003,0.004 0.005,0.008 0.005,0.012 z m -0.035,-0.07 c 0,0.004 -0.001,0.007 -0.003,0.009 -0.002,0.003 -0.004,0.005 -0.007,0.007 -0.001,0.001 -0.003,0.002 -0.007,0.004 L 0.261,-0.408 C 0.258,-0.406 0.255,-0.405 0.254,-0.405 L 0.239,-0.436 C 0.24,-0.437 0.243,-0.439 0.247,-0.441 0.251,-0.443 0.256,-0.445 0.26,-0.448 0.265,-0.45 0.27,-0.452 0.274,-0.454 c 0.004,-0.002 0.007,-0.003 0.009,-0.003 0.005,0 0.009,0.002 0.012,0.006 0.004,0.003 0.006,0.007 0.006,0.012 z m 0.07,0.14 c 0,0.007 -0.004,0.012 -0.01,0.016 C 0.36,-0.282 0.358,-0.281 0.354,-0.279 0.35,-0.277 0.347,-0.275 0.343,-0.273 0.338,-0.271 0.335,-0.269 0.331,-0.267 0.327,-0.266 0.325,-0.265 0.325,-0.265 L 0.309,-0.296 c 0.003,-0.001 0.006,-0.003 0.01,-0.005 0.004,-0.003 0.008,-0.005 0.012,-0.007 0.004,-0.002 0.008,-0.004 0.012,-0.006 0.004,-0.001 0.008,-0.002 0.011,-0.002 0.004,0 0.008,0.002 0.011,0.005 0.004,0.004 0.006,0.008 0.006,0.012 z m 0.035,0.071 c 0,0.007 -0.003,0.012 -0.01,0.016 L 0.361,-0.195 0.344,-0.226 c 0.001,-0.001 0.003,-0.002 0.007,-0.004 0.004,-0.003 0.008,-0.005 0.014,-0.007 0.005,-0.002 0.009,-0.004 0.014,-0.006 0.004,-0.002 0.007,-0.003 0.009,-0.003 0.005,0 0.009,0.002 0.012,0.006 0.004,0.003 0.006,0.007 0.006,0.012 z m -0.14,-0.281 c 0,0.007 -0.004,0.012 -0.01,0.016 L 0.221,-0.476 C 0.218,-0.48 0.215,-0.485 0.213,-0.49 0.211,-0.495 0.209,-0.5 0.207,-0.504 c 0,-0.001 0,-0.001 0,-0.001 0,-0.001 0,-0.001 0,-0.001 0,-0.001 -0.001,-0.001 -0.001,-0.001 0,0 0,0 0,-0.001 l 0.021,-0.011 c 0.003,-0.002 0.007,-0.004 0.011,-0.005 0.003,-0.002 0.007,-0.002 0.01,-0.002 0.004,0 0.009,0.001 0.012,0.005 0.004,0.003 0.006,0.007 0.006,0.012 z m 0.157,0.333 c 0.005,0 0.009,0.002 0.013,0.006 0.003,0.003 0.005,0.007 0.005,0.012 0,0.008 -0.003,0.013 -0.01,0.016 L 0.397,-0.125 C 0.394,-0.13 0.391,-0.135 0.388,-0.14 0.385,-0.145 0.382,-0.15 0.379,-0.155 0.381,-0.157 0.384,-0.158 0.388,-0.161 0.392,-0.163 0.397,-0.165 0.401,-0.167 0.406,-0.17 0.41,-0.172 0.414,-0.173 0.418,-0.175 0.421,-0.176 0.423,-0.176 Z m 0.035,0.071 c 0.005,0 0.009,0.001 0.013,0.005 0.003,0.003 0.005,0.008 0.005,0.012 0,0.006 -0.002,0.01 -0.006,0.013 C 0.467,-0.073 0.463,-0.07 0.458,-0.068 0.452,-0.071 0.447,-0.075 0.442,-0.079 0.436,-0.083 0.431,-0.087 0.427,-0.092 L 0.442,-0.1 c 0.003,-0.001 0.006,-0.003 0.009,-0.004 0.003,-0.001 0.005,-0.001 0.007,-0.001 z"
         style="fill:#757575;fill-rule:nonzero"
         id="path15348" /><path
         d="M 0.722,0.035 C 0.722,0.045 0.718,0.053 0.711,0.06 0.704,0.067 0.696,0.07 0.687,0.07 0.677,0.07 0.669,0.067 0.662,0.06 0.655,0.053 0.651,0.045 0.651,0.035 0.651,0.025 0.655,0.017 0.662,0.01 0.668,0.003 0.677,0 0.687,0 0.696,0 0.705,0.003 0.711,0.01 0.718,0.017 0.722,0.025 0.722,0.035 Z"
         style="fill:#383838;fill-rule:nonzero"
         id="path15350" /></g></g></svg>
