<?xml version="1.0" encoding="UTF-8" standalone="no"?>
<svg
   width="16.844999"
   height="12.105"
   viewBox="0 0 16.844999 12.105"
   version="1.1"
   xml:space="preserve"
   style="clip-rule:evenodd;fill-rule:evenodd;stroke-linejoin:round;stroke-miterlimit:2"
   id="svg20568"
   sodipodi:docname="emojis.svg"
   xmlns:inkscape="http://www.inkscape.org/namespaces/inkscape"
   xmlns:sodipodi="http://sodipodi.sourceforge.net/DTD/sodipodi-0.dtd"
   xmlns="http://www.w3.org/2000/svg"
   xmlns:svg="http://www.w3.org/2000/svg"><defs
     id="defs20572" /><sodipodi:namedview
     id="namedview20570"
     pagecolor="#505050"
     bordercolor="#eeeeee"
     borderopacity="1"
     inkscape:pageshadow="0"
     inkscape:pageopacity="0"
     inkscape:pagecheckerboard="0" /><g
     transform="matrix(0.24,0,0,0.24,-33.8094,-785.4528)"
     id="g20566"><g
       transform="matrix(62.5,0,0,62.5,133.06,3320.97)"
       id="g15320"><path
         d="M 0.985,0.035 C 0.966,0.035 0.948,0.032 0.931,0.026 0.913,0.02 0.897,0.011 0.883,0 0.877,-0.002 0.871,-0.004 0.865,-0.005 0.858,-0.007 0.852,-0.008 0.847,-0.011 L 0.838,-0.015 0.715,-0.051 C 0.695,-0.023 0.671,-0.002 0.641,0.013 0.611,0.028 0.579,0.035 0.546,0.035 0.518,0.035 0.492,0.03 0.467,0.02 0.442,0.01 0.421,-0.004 0.402,-0.022 0.383,-0.039 0.368,-0.06 0.356,-0.084 0.345,-0.108 0.338,-0.134 0.336,-0.162 0.317,-0.167 0.299,-0.173 0.281,-0.178 0.263,-0.184 0.244,-0.189 0.226,-0.194 0.219,-0.195 0.214,-0.196 0.211,-0.197 0.207,-0.198 0.203,-0.2 0.197,-0.203 0.182,-0.211 0.171,-0.221 0.162,-0.234 0.153,-0.246 0.145,-0.26 0.14,-0.275 0.134,-0.29 0.13,-0.306 0.128,-0.322 0.126,-0.339 0.125,-0.354 0.125,-0.369 c 0,-0.014 0.001,-0.029 0.003,-0.046 0.003,-0.016 0.007,-0.032 0.012,-0.047 0.006,-0.015 0.013,-0.029 0.022,-0.042 0.009,-0.013 0.021,-0.023 0.035,-0.03 0.005,-0.003 0.009,-0.004 0.014,-0.005 0.004,-0.001 0.009,-0.002 0.015,-0.004 l 0.612,-0.179 0.009,-0.005 c 0.005,-0.002 0.011,-0.004 0.018,-0.005 0.006,-0.001 0.012,-0.003 0.018,-0.004 0.011,-0.009 0.022,-0.016 0.033,-0.021 0.01,-0.004 0.021,-0.008 0.032,-0.01 0.011,-0.002 0.022,-0.004 0.034,-0.004 0.012,-0.001 0.024,-0.001 0.038,-0.001 0.031,0 0.058,0.007 0.081,0.02 0.023,0.013 0.043,0.031 0.06,0.053 0.017,0.022 0.031,0.048 0.042,0.076 0.011,0.028 0.02,0.057 0.027,0.087 0.006,0.03 0.011,0.06 0.014,0.089 0.003,0.029 0.004,0.055 0.004,0.078 0,0.024 -10e-4,0.05 -0.004,0.079 C 1.241,-0.261 1.236,-0.231 1.23,-0.201 1.223,-0.172 1.214,-0.142 1.203,-0.114 1.192,-0.086 1.178,-0.06 1.161,-0.038 1.144,-0.016 1.124,0.001 1.101,0.015 1.078,0.028 1.051,0.035 1.02,0.035 Z"
         style="fill-rule:nonzero"
         id="path15308" /><path
         d="m 0.546,-0.316 c 0.019,0 0.037,0.004 0.054,0.011 0.017,0.008 0.032,0.018 0.045,0.031 0.013,0.012 0.023,0.027 0.03,0.044 0.008,0.017 0.012,0.035 0.012,0.054 0,0.02 -0.004,0.038 -0.011,0.055 -0.008,0.017 -0.018,0.032 -0.03,0.045 -0.013,0.013 -0.028,0.023 -0.045,0.03 -0.017,0.007 -0.036,0.011 -0.055,0.011 -0.019,0 -0.037,-0.004 -0.054,-0.011 C 0.475,-0.054 0.46,-0.064 0.447,-0.077 0.435,-0.09 0.424,-0.105 0.417,-0.122 0.41,-0.139 0.406,-0.157 0.406,-0.176 c 0,-0.019 0.003,-0.037 0.011,-0.054 0.007,-0.017 0.017,-0.032 0.03,-0.045 0.012,-0.013 0.027,-0.023 0.044,-0.03 0.018,-0.007 0.036,-0.011 0.055,-0.011 z m 0,0.246 c 0.015,0 0.028,-0.003 0.041,-0.009 C 0.6,-0.084 0.611,-0.092 0.621,-0.101 0.63,-0.111 0.638,-0.122 0.643,-0.135 0.649,-0.147 0.651,-0.161 0.651,-0.176 0.651,-0.19 0.649,-0.204 0.643,-0.217 0.638,-0.229 0.63,-0.241 0.62,-0.25 0.611,-0.259 0.6,-0.267 0.587,-0.272 0.574,-0.278 0.561,-0.281 0.546,-0.281 c -0.015,0 -0.028,0.003 -0.041,0.009 -0.013,0.005 -0.024,0.013 -0.033,0.022 -0.01,0.009 -0.017,0.021 -0.023,0.033 -0.005,0.013 -0.008,0.027 -0.008,0.041 0,0.015 0.003,0.029 0.008,0.041 0.006,0.013 0.013,0.024 0.023,0.034 0.009,0.009 0.02,0.017 0.033,0.022 0.013,0.006 0.026,0.009 0.041,0.009 z"
         style="fill:#cccccc;fill-rule:nonzero"
         id="path15310" /><path
         d="M 0.935,-0.108 0.865,-0.08 0.238,-0.263 C 0.235,-0.264 0.233,-0.265 0.232,-0.265 0.23,-0.265 0.228,-0.266 0.226,-0.268 0.22,-0.272 0.215,-0.278 0.211,-0.286 0.207,-0.295 0.204,-0.304 0.202,-0.314 0.199,-0.324 0.198,-0.334 0.197,-0.344 0.196,-0.354 0.195,-0.362 0.195,-0.369 c 0,-0.006 0.001,-0.014 0.002,-0.024 0.001,-0.01 0.002,-0.02 0.005,-0.03 0.002,-0.01 0.005,-0.019 0.009,-0.028 0.004,-0.009 0.009,-0.015 0.015,-0.018 0.002,-0.002 0.004,-0.003 0.006,-0.003 0.001,0 0.003,-0.001 0.006,-0.002 l 0.627,-0.183 0.073,0.029 z"
         style="fill:#f2f2f2;fill-rule:nonzero"
         id="path15312" /><path
         d="M 0.966,-0.05 C 0.958,-0.053 0.95,-0.055 0.942,-0.056 0.934,-0.058 0.926,-0.059 0.918,-0.061 0.91,-0.063 0.902,-0.065 0.895,-0.068 0.887,-0.07 0.879,-0.073 0.872,-0.077 0.859,-0.083 0.847,-0.093 0.837,-0.106 0.827,-0.12 0.819,-0.135 0.812,-0.152 0.804,-0.17 0.798,-0.188 0.794,-0.208 0.789,-0.227 0.785,-0.247 0.782,-0.266 0.779,-0.286 0.777,-0.304 0.776,-0.322 0.775,-0.34 0.774,-0.355 0.774,-0.369 0.774,-0.382 0.775,-0.398 0.776,-0.416 0.777,-0.434 0.779,-0.452 0.782,-0.471 0.785,-0.49 0.788,-0.51 0.793,-0.529 0.798,-0.548 0.804,-0.567 0.811,-0.584 0.818,-0.601 0.827,-0.616 0.837,-0.63 0.847,-0.643 0.859,-0.653 0.872,-0.661 0.879,-0.664 0.886,-0.667 0.894,-0.67 0.902,-0.672 0.91,-0.674 0.918,-0.676 0.926,-0.678 0.934,-0.68 0.942,-0.682 0.951,-0.683 0.958,-0.685 0.966,-0.687 Z"
         style="fill:#e81224;fill-rule:nonzero"
         id="path15314" /><path
         d="m 1.02,-0.702 c 0.022,0 0.04,0.006 0.056,0.018 0.017,0.012 0.03,0.028 0.042,0.047 0.012,0.02 0.022,0.042 0.029,0.066 0.008,0.025 0.014,0.049 0.019,0.074 0.004,0.025 0.007,0.048 0.009,0.071 0.002,0.023 0.003,0.042 0.003,0.057 0,0.016 -10e-4,0.035 -0.003,0.058 C 1.173,-0.289 1.17,-0.265 1.166,-0.24 1.161,-0.215 1.155,-0.191 1.147,-0.167 1.14,-0.142 1.13,-0.12 1.118,-0.101 1.106,-0.081 1.093,-0.065 1.076,-0.053 1.06,-0.041 1.042,-0.035 1.02,-0.035 H 0.985 c -0.022,0 -0.04,-0.006 -0.057,-0.018 C 0.912,-0.065 0.898,-0.081 0.887,-0.101 0.875,-0.12 0.865,-0.142 0.857,-0.167 0.85,-0.191 0.843,-0.215 0.839,-0.24 0.834,-0.265 0.831,-0.289 0.829,-0.311 0.828,-0.334 0.827,-0.353 0.827,-0.369 c 0,-0.015 0.001,-0.034 0.002,-0.057 0.002,-0.023 0.005,-0.046 0.01,-0.071 0.005,-0.025 0.011,-0.049 0.019,-0.074 0.007,-0.024 0.017,-0.046 0.029,-0.066 0.011,-0.019 0.025,-0.035 0.041,-0.047 0.017,-0.012 0.035,-0.018 0.057,-0.018 z"
         style="fill:#cccccc;fill-rule:nonzero"
         id="path15316" /><path
         d="M 1.02,-0.07 C 1.008,-0.07 0.998,-0.074 0.988,-0.08 0.978,-0.087 0.969,-0.095 0.961,-0.105 0.954,-0.116 0.947,-0.128 0.941,-0.141 0.935,-0.154 0.929,-0.168 0.925,-0.181 0.92,-0.194 0.917,-0.207 0.914,-0.22 0.911,-0.233 0.908,-0.243 0.907,-0.252 0.903,-0.272 0.901,-0.291 0.899,-0.311 0.898,-0.33 0.897,-0.349 0.897,-0.369 c 0,-0.019 0.001,-0.039 0.002,-0.058 0.002,-0.019 0.004,-0.038 0.008,-0.058 0.001,-0.009 0.004,-0.02 0.007,-0.032 0.003,-0.013 0.006,-0.026 0.011,-0.039 0.004,-0.013 0.01,-0.027 0.016,-0.04 0.006,-0.014 0.013,-0.025 0.02,-0.036 0.008,-0.01 0.017,-0.019 0.027,-0.025 0.01,-0.007 0.02,-0.01 0.032,-0.01 0.011,0 0.021,0.003 0.031,0.009 0.009,0.006 0.018,0.015 0.026,0.025 0.007,0.01 0.014,0.021 0.021,0.034 0.006,0.013 0.011,0.025 0.016,0.038 0.004,0.013 0.008,0.026 0.011,0.038 0.003,0.012 0.005,0.022 0.007,0.031 0.003,0.02 0.006,0.041 0.008,0.061 0.002,0.021 0.003,0.042 0.003,0.062 0,0.021 -0.001,0.042 -0.003,0.062 -0.002,0.021 -0.005,0.041 -0.008,0.062 -0.002,0.009 -0.004,0.019 -0.007,0.031 -0.003,0.012 -0.007,0.025 -0.011,0.037 -0.005,0.013 -0.01,0.026 -0.016,0.039 -0.007,0.013 -0.014,0.024 -0.021,0.034 -0.008,0.01 -0.017,0.018 -0.026,0.024 -0.01,0.007 -0.02,0.01 -0.031,0.01 z"
         style="fill:#2b2b2b;fill-rule:nonzero"
         id="path15318" /></g></g></svg>
