<?xml version="1.0" encoding="UTF-8" standalone="no"?>
<svg
   width="16.844999"
   height="16.844999"
   viewBox="0 0 16.844999 16.844999"
   version="1.1"
   xml:space="preserve"
   style="clip-rule:evenodd;fill-rule:evenodd;stroke-linejoin:round;stroke-miterlimit:2"
   id="svg20568"
   sodipodi:docname="emojis.svg"
   xmlns:inkscape="http://www.inkscape.org/namespaces/inkscape"
   xmlns:sodipodi="http://sodipodi.sourceforge.net/DTD/sodipodi-0.dtd"
   xmlns="http://www.w3.org/2000/svg"
   xmlns:svg="http://www.w3.org/2000/svg"><defs
     id="defs20572" /><sodipodi:namedview
     id="namedview20570"
     pagecolor="#505050"
     bordercolor="#eeeeee"
     borderopacity="1"
     inkscape:pageshadow="0"
     inkscape:pageopacity="0"
     inkscape:pagecheckerboard="0" /><g
     transform="matrix(0.24,0,0,0.24,-209.7078,-783.3378)"
     id="g20566"><g
       transform="matrix(62.5,0,0,62.5,865.97,3320.97)"
       id="g15458"><path
         d="m 0.125,-0.105 c 0,-0.04 0.007,-0.079 0.022,-0.115 0.014,-0.037 0.034,-0.069 0.06,-0.097 0.025,-0.028 0.055,-0.051 0.09,-0.069 0.034,-0.019 0.072,-0.03 0.112,-0.033 0.004,-0.021 0.011,-0.04 0.022,-0.057 0.01,-0.018 0.023,-0.033 0.039,-0.045 0.015,-0.013 0.032,-0.023 0.051,-0.03 0.019,-0.007 0.039,-0.011 0.06,-0.011 0.019,0 0.037,0.005 0.054,0.015 0.016,0.01 0.029,0.023 0.038,0.04 l 0.224,-0.224 v -0.07 l 0.066,-0.066 c 0.015,-0.015 0.032,-0.026 0.05,-0.034 0.018,-0.008 0.038,-0.012 0.059,-0.012 0.022,0 0.042,0.004 0.06,0.012 0.018,0.008 0.035,0.019 0.05,0.034 0.01,0.009 0.019,0.018 0.027,0.028 0.008,0.009 0.015,0.019 0.021,0.03 0.005,0.01 0.01,0.022 0.013,0.034 0.003,0.012 0.005,0.025 0.005,0.038 0,0.021 -0.004,0.041 -0.012,0.06 -0.007,0.018 -0.019,0.035 -0.033,0.05 L 1.137,-0.562 H 1.066 l -0.258,0.259 c 0.016,0.01 0.029,0.023 0.039,0.039 0.01,0.017 0.015,0.034 0.015,0.054 0,0.016 -0.003,0.031 -0.008,0.046 -0.005,0.015 -0.013,0.028 -0.022,0.04 C 0.823,-0.112 0.811,-0.102 0.798,-0.093 0.785,-0.084 0.771,-0.078 0.755,-0.074 0.751,-0.034 0.74,0.004 0.722,0.038 0.704,0.073 0.681,0.103 0.653,0.129 0.625,0.154 0.592,0.174 0.556,0.189 0.519,0.203 0.481,0.21 0.44,0.21 0.397,0.21 0.356,0.202 0.318,0.186 0.28,0.169 0.246,0.146 0.218,0.118 0.189,0.089 0.167,0.056 0.15,0.017 0.133,-0.021 0.125,-0.062 0.125,-0.105 Z"
         style="fill-rule:nonzero"
         id="path15446" /><path
         d="m 1.107,-0.649 c 0,0.004 -10e-4,0.009 -0.005,0.012 -0.003,0.003 -0.007,0.005 -0.012,0.005 -0.005,0 -0.009,-0.002 -0.012,-0.005 -0.004,-0.004 -0.005,-0.008 -0.005,-0.012 0,-0.005 0.001,-0.009 0.005,-0.013 0.003,-0.003 0.007,-0.005 0.012,-0.005 0.005,0 0.009,0.002 0.012,0.005 0.004,0.004 0.005,0.008 0.005,0.013 z M 1.178,-0.72 c 0,0.005 -0.002,0.009 -0.005,0.013 -0.004,0.003 -0.008,0.005 -0.013,0.005 -0.005,0 -0.009,-0.002 -0.012,-0.005 -0.004,-0.004 -0.005,-0.008 -0.005,-0.013 0,-0.004 10e-4,-0.008 0.005,-0.012 0.004,-0.004 0.008,-0.005 0.012,-0.005 0.005,0 0.009,0.001 0.012,0.005 0.004,0.004 0.006,0.008 0.006,0.012 z m -0.035,0.035 c 0,0.005 -0.002,0.009 -0.006,0.013 -0.003,0.003 -0.007,0.005 -0.012,0.005 -0.005,0 -0.009,-0.002 -0.012,-0.005 -0.004,-0.004 -0.006,-0.008 -0.006,-0.013 0,-0.004 0.002,-0.009 0.006,-0.012 0.003,-0.003 0.007,-0.005 0.012,-0.005 0.005,0 0.009,0.002 0.012,0.005 0.004,0.003 0.006,0.008 0.006,0.012 z m -0.07,-0.14 c 0,0.005 -0.002,0.009 -0.006,0.012 -0.003,0.004 -0.007,0.006 -0.012,0.006 -0.005,0 -0.009,-0.002 -0.012,-0.005 -0.004,-0.004 -0.005,-0.008 -0.005,-0.013 0,-0.005 10e-4,-0.009 0.005,-0.012 0.003,-0.004 0.007,-0.005 0.012,-0.005 0.005,0 0.009,0.002 0.012,0.005 0.004,0.004 0.006,0.008 0.006,0.012 z M 1.038,-0.79 c 0,0.005 -0.002,0.009 -0.006,0.013 -0.003,0.003 -0.007,0.005 -0.012,0.005 -0.005,0 -0.009,-0.002 -0.012,-0.005 -0.004,-0.004 -0.006,-0.008 -0.006,-0.013 0,-0.004 0.002,-0.009 0.006,-0.012 0.003,-0.003 0.007,-0.005 0.012,-0.005 0.005,0 0.009,0.002 0.012,0.005 0.004,0.003 0.006,0.008 0.006,0.012 z m -0.036,0.036 c 0,0.004 -0.001,0.008 -0.005,0.012 -0.004,0.003 -0.008,0.005 -0.012,0.005 -0.005,0 -0.009,-0.002 -0.012,-0.005 -0.004,-0.004 -0.006,-0.008 -0.006,-0.012 0,-0.005 0.002,-0.009 0.005,-0.013 0.004,-0.003 0.008,-0.005 0.013,-0.005 0.005,0 0.009,0.002 0.012,0.005 0.004,0.004 0.005,0.008 0.005,0.013 z"
         style="fill:#cccccc;fill-rule:nonzero"
         id="path15448" /><path
         d="m 0.651,-0.386 0.024,0.187 c 0.002,0.015 0.004,0.031 0.007,0.046 0.003,0.016 0.005,0.032 0.005,0.048 0,0.033 -0.007,0.065 -0.02,0.095 C 0.654,0.02 0.637,0.046 0.615,0.068 0.592,0.09 0.566,0.108 0.536,0.121 0.507,0.134 0.475,0.14 0.441,0.14 0.407,0.14 0.375,0.134 0.345,0.121 0.315,0.108 0.289,0.09 0.267,0.068 0.245,0.046 0.227,0.02 0.215,-0.01 0.202,-0.04 0.195,-0.072 0.195,-0.105 c 0,-0.034 0.007,-0.066 0.02,-0.096 0.012,-0.03 0.03,-0.056 0.052,-0.078 0.023,-0.022 0.049,-0.04 0.078,-0.053 0.03,-0.013 0.062,-0.019 0.096,-0.019 0.01,0 0.018,-0.003 0.025,-0.01 0.007,-0.007 0.01,-0.015 0.01,-0.025 0,-0.015 0.003,-0.029 0.008,-0.041 0.006,-0.013 0.013,-0.024 0.023,-0.034 0.009,-0.009 0.02,-0.017 0.033,-0.022 0.013,-0.006 0.026,-0.009 0.041,-0.009 0.011,0 0.019,0.003 0.023,0.008 0.005,0.005 0.008,0.012 0.01,0.02 0.001,0.007 0.002,0.016 0.002,0.025 0,0.009 0,0.018 0.002,0.025 0.001,0.008 0.004,0.015 0.009,0.02 0.005,0.005 0.012,0.008 0.022,0.008 z"
         style="fill:#da3b01;fill-rule:nonzero"
         id="path15450" /><path
         d="m 0.792,-0.21 c 0,0.009 -0.002,0.018 -0.006,0.027 -0.003,0.008 -0.008,0.016 -0.015,0.022 -0.006,0.006 -0.014,0.011 -0.022,0.015 -0.008,0.004 -0.018,0.005 -0.027,0.005 -0.01,0 -0.018,0.004 -0.025,0.011 -0.007,0.006 -0.01,0.015 -0.01,0.025 0,0.024 -0.005,0.046 -0.014,0.068 C 0.663,-0.016 0.651,0.003 0.635,0.019 0.619,0.035 0.601,0.047 0.579,0.056 0.558,0.066 0.535,0.07 0.511,0.07 0.502,0.07 0.494,0.067 0.487,0.06 0.48,0.053 0.476,0.045 0.476,0.035 V 0.022 c 0,-0.009 0,-0.018 -0.001,-0.026 0,-0.008 -0.001,-0.016 -0.004,-0.024 C 0.469,-0.035 0.466,-0.042 0.461,-0.049 0.456,-0.056 0.45,-0.063 0.441,-0.07 L 0.42,-0.123 C 0.413,-0.125 0.406,-0.128 0.398,-0.13 0.39,-0.132 0.382,-0.135 0.376,-0.138 0.369,-0.142 0.364,-0.146 0.36,-0.152 0.355,-0.158 0.353,-0.166 0.353,-0.176 0.353,-0.183 0.355,-0.19 0.358,-0.195 0.361,-0.2 0.365,-0.205 0.371,-0.21 l 0.105,-0.106 c 0.008,-0.007 0.015,-0.014 0.023,-0.019 0.008,-0.005 0.018,-0.007 0.029,-0.007 0.011,0 0.021,0.002 0.03,0.007 0.009,0.005 0.017,0.011 0.023,0.019 h 0.141 v 0.035 c 0,0.01 0.003,0.018 0.01,0.025 0.007,0.007 0.015,0.01 0.025,0.01 0.009,0 0.017,0.004 0.024,0.011 0.007,0.007 0.011,0.015 0.011,0.025 z"
         style="fill:#f2f2f2;fill-rule:nonzero"
         id="path15452" /><path
         d="m 1.087,-0.842 c 0.01,0 0.018,0.003 0.025,0.01 l 0.055,0.056 c 0.007,0.006 0.011,0.015 0.011,0.025 0,0.009 -0.004,0.018 -0.011,0.024 L 1.073,-0.632 H 1.038 l -0.387,0.386 -0.07,-0.07 0.386,-0.386 v -0.035 l 0.095,-0.095 c 0.007,-0.007 0.015,-0.01 0.025,-0.01 z m -0.496,0.666 -0.08,-0.08 0.025,-0.025 0.08,0.081 z m -0.07,0.071 -0.08,-0.081 0.025,-0.024 0.08,0.08 z"
         style="fill:#383838;fill-rule:nonzero"
         id="path15454" /><path
         d="M 0.406,-0.176 0.511,-0.07 0.476,-0.035 0.371,-0.141 Z"
         style="fill:#cccccc;fill-rule:nonzero"
         id="path15456" /></g></g></svg>
