<?xml version="1.0" encoding="UTF-8" standalone="no"?>
<svg
   width="12.105"
   height="16.844999"
   viewBox="0 0 12.105 16.844999"
   version="1.1"
   xml:space="preserve"
   style="clip-rule:evenodd;fill-rule:evenodd;stroke-linejoin:round;stroke-miterlimit:2"
   id="svg20568"
   sodipodi:docname="emojis.svg"
   xmlns:inkscape="http://www.inkscape.org/namespaces/inkscape"
   xmlns:sodipodi="http://sodipodi.sourceforge.net/DTD/sodipodi-0.dtd"
   xmlns="http://www.w3.org/2000/svg"
   xmlns:svg="http://www.w3.org/2000/svg"><defs
     id="defs20572" /><sodipodi:namedview
     id="namedview20570"
     pagecolor="#505050"
     bordercolor="#eeeeee"
     borderopacity="1"
     inkscape:pageshadow="0"
     inkscape:pageopacity="0"
     inkscape:pagecheckerboard="0" /><g
     transform="matrix(0.24,0,0,0.24,-380.4126,-127.68924)"
     id="g20566"><g
       transform="matrix(62.5,0,0,62.5,1577.24,589.101)"
       id="g1546"><path
         d="M 0.932,-0.386 V 0.21 H 0.441 V 0.07 c 0,-0.004 0,-0.009 -0.001,-0.015 C 0.44,0.049 0.439,0.043 0.438,0.037 0.437,0.031 0.435,0.025 0.433,0.02 0.431,0.014 0.428,0.01 0.425,0.007 L 0.166,-0.252 C 0.153,-0.265 0.142,-0.281 0.135,-0.298 0.128,-0.315 0.125,-0.333 0.125,-0.351 c 0,-0.02 0.004,-0.038 0.011,-0.055 0.007,-0.017 0.017,-0.031 0.03,-0.044 0.013,-0.013 0.028,-0.023 0.044,-0.03 0.017,-0.008 0.036,-0.011 0.055,-0.011 V -0.79 c 0,-0.016 0.003,-0.032 0.01,-0.047 0.006,-0.015 0.015,-0.028 0.026,-0.039 0.011,-0.012 0.024,-0.02 0.039,-0.027 0.015,-0.006 0.031,-0.01 0.048,-0.01 0.017,0 0.033,0.004 0.048,0.01 0.015,0.007 0.028,0.015 0.039,0.027 0.011,0.011 0.02,0.024 0.026,0.039 0.007,0.015 0.01,0.031 0.01,0.047 v 0.193 h 0.14 c 0.026,0 0.049,0.007 0.071,0.019 0.021,0.013 0.038,0.03 0.051,0.052 h 0.019 c 0.019,0 0.037,0.003 0.054,0.011 0.018,0.007 0.032,0.017 0.045,0.03 0.013,0.012 0.023,0.027 0.03,0.044 0.007,0.017 0.011,0.036 0.011,0.055 z"
         style="fill-rule:nonzero"
         id="path1540" /><path
         d="M 0.335,-0.182 0.328,-0.269 C 0.327,-0.277 0.327,-0.284 0.326,-0.291 0.325,-0.298 0.324,-0.306 0.324,-0.313 c 0,-0.006 0.001,-0.012 0.002,-0.017 L 0.334,-0.363 C 0.335,-0.369 0.335,-0.375 0.335,-0.38 v -0.41 c 0,-0.007 0.002,-0.014 0.005,-0.02 0.002,-0.007 0.006,-0.012 0.011,-0.017 0.005,-0.005 0.01,-0.008 0.016,-0.011 0.007,-0.003 0.014,-0.004 0.021,-0.004 0.007,0 0.014,0.001 0.021,0.004 0.006,0.003 0.012,0.006 0.017,0.011 0.004,0.005 0.008,0.01 0.011,0.017 0.003,0.006 0.004,0.013 0.004,0.02 v 0.264 c 0.003,0 0.005,0.001 0.008,0.002 0.003,0 0.006,0.001 0.009,0.001 0.003,0 0.006,-0.001 0.009,-0.002 0.002,-0.001 0.005,-0.001 0.009,-0.001 h 0.106 c 0.002,0 0.005,0 0.009,0.001 0.003,0.001 0.006,0.002 0.009,0.003 0.004,-0.002 0.009,-0.004 0.014,-0.004 0.005,-0.001 0.01,-0.001 0.015,-0.001 l 0.022,0.001 c 0.01,0 0.019,0.001 0.028,0.005 0.008,0.004 0.016,0.009 0.022,0.015 0.006,0.006 0.011,0.014 0.015,0.022 0.004,0.009 0.006,0.018 0.006,0.027 l 0.017,0.007 0.017,-0.007 h 0.036 c 0.009,0 0.018,0.002 0.027,0.006 0.008,0.004 0.016,0.009 0.022,0.015 0.006,0.007 0.011,0.014 0.015,0.022 0.004,0.009 0.006,0.018 0.006,0.028 V 0.14 H 0.511 L 0.512,0.081 c 0,-0.011 0,-0.022 -0.001,-0.033 C 0.51,0.036 0.508,0.025 0.506,0.015 0.503,0.004 0.499,-0.006 0.494,-0.016 0.489,-0.025 0.482,-0.035 0.474,-0.043 Z"
         style="fill:#ffc83d;fill-rule:nonzero"
         id="path1542" /><path
         d="m 0.195,-0.351 c 0,-0.01 0.002,-0.019 0.006,-0.027 0.003,-0.009 0.008,-0.016 0.015,-0.023 0.006,-0.006 0.013,-0.011 0.022,-0.015 0.008,-0.004 0.017,-0.005 0.027,-0.005 0.008,0 0.016,0.001 0.022,0.003 0.006,0.002 0.012,0.005 0.017,0.009 0.006,0.004 0.011,0.009 0.016,0.013 0.005,0.005 0.01,0.01 0.015,0.016 v 0.198 L 0.216,-0.301 C 0.209,-0.308 0.204,-0.315 0.201,-0.324 0.197,-0.333 0.195,-0.342 0.195,-0.351 Z m 0.246,-0.053 v -0.122 h 0.035 v 0.122 c 0,0.005 -0.002,0.009 -0.005,0.013 -0.003,0.003 -0.008,0.005 -0.013,0.005 -0.004,0 -0.009,-0.002 -0.012,-0.005 C 0.443,-0.395 0.441,-0.399 0.441,-0.404 Z m 0.14,0 v -0.122 h 0.035 v 0.122 c 0,0.005 -0.001,0.009 -0.005,0.013 -0.003,0.003 -0.007,0.005 -0.012,0.005 -0.005,0 -0.009,-0.002 -0.013,-0.005 C 0.583,-0.395 0.581,-0.399 0.581,-0.404 Z m 0.141,-0.053 h 0.035 v 0.088 c 0,0.005 -0.002,0.009 -0.005,0.013 -0.004,0.003 -0.008,0.005 -0.013,0.005 -0.005,0 -0.009,-0.002 -0.012,-0.005 C 0.723,-0.36 0.722,-0.364 0.722,-0.369 Z"
         style="fill:#d48c00;fill-rule:nonzero"
         id="path1544" /></g></g></svg>
