<?xml version="1.0" encoding="UTF-8" standalone="no"?>
<svg
   width="15.795"
   height="15.795"
   viewBox="0 0 15.795 15.795"
   version="1.1"
   xml:space="preserve"
   style="clip-rule:evenodd;fill-rule:evenodd;stroke-linejoin:round;stroke-miterlimit:2"
   id="svg20568"
   sodipodi:docname="emojis.svg"
   xmlns:inkscape="http://www.inkscape.org/namespaces/inkscape"
   xmlns:sodipodi="http://sodipodi.sourceforge.net/DTD/sodipodi-0.dtd"
   xmlns="http://www.w3.org/2000/svg"
   xmlns:svg="http://www.w3.org/2000/svg"><defs
     id="defs20572" /><sodipodi:namedview
     id="namedview20570"
     pagecolor="#505050"
     bordercolor="#eeeeee"
     borderopacity="1"
     inkscape:pageshadow="0"
     inkscape:pageopacity="0"
     inkscape:pagecheckerboard="0" /><g
     transform="matrix(0.24,0,0,0.24,-381.9222,-783.8778)"
     id="g20566"><g
       transform="matrix(62.5,0,0,62.5,1583.53,3320.97)"
       id="g15578"><path
         d="m 0.125,-0.623 c 0,-0.026 0.004,-0.051 0.012,-0.074 C 0.145,-0.72 0.156,-0.742 0.17,-0.761 0.184,-0.78 0.201,-0.797 0.221,-0.812 0.241,-0.827 0.263,-0.838 0.287,-0.847 0.294,-0.85 0.302,-0.853 0.311,-0.856 0.32,-0.86 0.33,-0.863 0.339,-0.866 c 0.01,-0.004 0.019,-0.006 0.028,-0.008 0.01,-0.002 0.018,-0.003 0.026,-0.003 0.011,0 0.021,0.001 0.032,0.005 0.011,0.004 0.02,0.008 0.029,0.015 0.009,0.006 0.017,0.014 0.023,0.023 0.007,0.009 0.012,0.018 0.016,0.029 l 0.083,0.249 c 0.003,0.011 0.005,0.022 0.005,0.033 0,0.015 -0.002,0.029 -0.006,0.04 -0.005,0.011 -0.011,0.02 -0.018,0.028 -0.008,0.009 -0.018,0.016 -0.028,0.022 -0.011,0.006 -0.023,0.011 -0.036,0.016 -0.007,0.003 -0.014,0.005 -0.022,0.007 -0.007,0.002 -0.014,0.005 -0.021,0.008 -0.002,0.001 -0.004,0.004 -0.006,0.007 -0.002,0.003 -0.003,0.006 -0.003,0.009 0,0.004 0.001,0.008 0.004,0.011 0.003,0.002 0.006,0.005 0.008,0.007 l 0.215,0.215 c 0.003,0.003 0.006,0.005 0.008,0.008 0.002,0.003 0.006,0.004 0.011,0.004 0.002,0 0.005,-0.001 0.008,-0.003 0.004,-0.002 0.006,-0.004 0.007,-0.006 0.003,-0.006 0.006,-0.013 0.008,-0.021 0.002,-0.007 0.005,-0.015 0.007,-0.021 0.005,-0.013 0.011,-0.025 0.017,-0.036 0.006,-0.011 0.013,-0.02 0.021,-0.028 0.008,-0.008 0.018,-0.014 0.029,-0.018 0.011,-0.005 0.024,-0.007 0.039,-0.007 0.011,0 0.022,0.002 0.033,0.006 l 0.249,0.083 c 0.011,0.003 0.021,0.008 0.03,0.015 0.008,0.007 0.016,0.014 0.022,0.023 0.007,0.009 0.012,0.019 0.015,0.029 0.004,0.011 0.006,0.022 0.006,0.033 0,0.007 -10e-4,0.016 -0.003,0.025 C 1.172,-0.058 1.17,-0.048 1.167,-0.039 1.164,-0.029 1.16,-0.02 1.157,-0.011 1.154,-0.002 1.151,0.007 1.148,0.014 1.142,0.031 1.134,0.047 1.124,0.063 1.115,0.079 1.104,0.093 1.091,0.106 1.078,0.119 1.064,0.13 1.049,0.14 1.034,0.15 1.017,0.157 0.999,0.162 0.986,0.166 0.972,0.169 0.958,0.172 0.943,0.174 0.929,0.176 0.915,0.176 L 0.897,0.175 C 0.826,0.175 0.758,0.166 0.692,0.148 0.626,0.129 0.565,0.103 0.507,0.07 0.45,0.036 0.398,-0.004 0.351,-0.051 0.304,-0.098 0.264,-0.15 0.23,-0.207 0.197,-0.264 0.171,-0.326 0.153,-0.392 0.134,-0.457 0.125,-0.526 0.125,-0.597 Z"
         style="fill-rule:nonzero"
         id="path15572" /><path
         d="m 0.309,-0.781 0.103,0.137 v 0.179 C 0.404,-0.462 0.396,-0.458 0.386,-0.454 0.377,-0.45 0.368,-0.446 0.358,-0.442 0.349,-0.438 0.339,-0.435 0.329,-0.432 0.319,-0.43 0.31,-0.428 0.301,-0.428 0.287,-0.428 0.275,-0.433 0.264,-0.444 0.253,-0.454 0.243,-0.466 0.235,-0.481 0.226,-0.496 0.219,-0.511 0.214,-0.527 0.209,-0.542 0.205,-0.556 0.202,-0.567 0.199,-0.576 0.197,-0.586 0.197,-0.595 0.196,-0.604 0.195,-0.613 0.195,-0.623 c 0,-0.018 0.003,-0.035 0.009,-0.052 0.005,-0.016 0.013,-0.032 0.023,-0.045 0.01,-0.014 0.022,-0.026 0.036,-0.036 0.014,-0.011 0.029,-0.019 0.046,-0.025 z m 0.63,0.671 0.142,0.101 C 1.076,0.008 1.068,0.024 1.057,0.038 1.047,0.052 1.035,0.064 1.021,0.073 1.007,0.083 0.992,0.091 0.975,0.097 0.958,0.102 0.941,0.105 0.923,0.105 0.912,0.105 0.899,0.104 0.885,0.103 0.871,0.102 0.859,0.099 0.848,0.096 0.836,0.092 0.824,0.086 0.81,0.077 0.796,0.069 0.783,0.059 0.771,0.048 0.759,0.036 0.749,0.024 0.741,0.011 0.733,-0.002 0.729,-0.015 0.729,-0.029 c 0,-0.007 0.001,-0.015 0.003,-0.022 0.003,-0.008 0.006,-0.015 0.009,-0.022 0.004,-0.008 0.008,-0.015 0.012,-0.022 0.004,-0.007 0.008,-0.013 0.012,-0.019 z"
         style="fill:#f03a17;fill-rule:nonzero"
         id="path15574" /><path
         d="m 0.757,-0.062 c 0,0.024 0.004,0.045 0.013,0.065 C 0.778,0.024 0.79,0.041 0.805,0.056 0.821,0.072 0.838,0.083 0.858,0.092 0.879,0.101 0.9,0.105 0.923,0.105 H 0.897 C 0.832,0.105 0.77,0.097 0.71,0.08 0.65,0.063 0.595,0.039 0.543,0.009 0.491,-0.021 0.444,-0.058 0.401,-0.101 0.358,-0.143 0.322,-0.191 0.291,-0.242 0.261,-0.294 0.237,-0.35 0.22,-0.41 0.204,-0.47 0.195,-0.532 0.195,-0.597 v -0.026 c 0,0.023 0.005,0.045 0.013,0.065 0.009,0.02 0.021,0.038 0.036,0.053 0.015,0.015 0.033,0.026 0.053,0.035 0.02,0.009 0.042,0.013 0.065,0.013 0.017,0 0.035,-0.002 0.053,-0.008 C 0.397,-0.518 0.379,-0.57 0.362,-0.623 0.344,-0.675 0.327,-0.728 0.309,-0.781 l 0.097,-0.026 0.105,0.316 -0.096,0.026 c -0.013,0.011 -0.023,0.022 -0.032,0.035 -0.008,0.012 -0.012,0.027 -0.012,0.044 0,0.015 0.003,0.028 0.009,0.039 0.007,0.011 0.015,0.021 0.026,0.031 l 0.21,0.211 c 0.011,0.01 0.021,0.018 0.032,0.025 0.01,0.006 0.023,0.01 0.039,0.01 0.009,0 0.017,-10e-4 0.024,-0.004 0.007,-0.002 0.013,-0.005 0.019,-0.009 0.007,-0.004 0.013,-0.008 0.018,-0.014 0.006,-0.005 0.011,-0.011 0.017,-0.017 -0.005,0.018 -0.008,0.035 -0.008,0.052 z m 0.324,0.053 -0.316,-0.105 0.027,-0.096 0.315,0.105 z"
         style="fill:#af0d1a;fill-rule:nonzero"
         id="path15576" /></g></g></svg>
