<?xml version="1.0" encoding="UTF-8" standalone="no"?>
<svg
   width="16.860001"
   height="14.205"
   viewBox="0 0 16.860001 14.205"
   version="1.1"
   xml:space="preserve"
   style="clip-rule:evenodd;fill-rule:evenodd;stroke-linejoin:round;stroke-miterlimit:2"
   id="svg20568"
   sodipodi:docname="emojis.svg"
   xmlns:inkscape="http://www.inkscape.org/namespaces/inkscape"
   xmlns:sodipodi="http://sodipodi.sourceforge.net/DTD/sodipodi-0.dtd"
   xmlns="http://www.w3.org/2000/svg"
   xmlns:svg="http://www.w3.org/2000/svg"><defs
     id="defs20572" /><sodipodi:namedview
     id="namedview20570"
     pagecolor="#505050"
     bordercolor="#eeeeee"
     borderopacity="1"
     inkscape:pageshadow="0"
     inkscape:pageopacity="0"
     inkscape:pagecheckerboard="0" /><g
     transform="matrix(0.24,0,0,0.24,-361.3104,-784.9278)"
     id="g20566"><g
       transform="matrix(62.5,0,0,62.5,1497.71,3320.97)"
       id="g15570"><path
         d="M 0.3,0.14 C 0.281,0.14 0.263,0.136 0.246,0.129 0.229,0.122 0.214,0.112 0.201,0.099 0.188,0.086 0.178,0.072 0.171,0.054 0.164,0.037 0.16,0.019 0.16,0 v -0.068 c 0,-0.038 0.01,-0.074 0.029,-0.106 L 0.283,-0.336 0.161,-0.305 0.137,-0.4 C 0.134,-0.41 0.131,-0.42 0.128,-0.43 0.125,-0.44 0.124,-0.451 0.124,-0.461 l 0.001,-0.03 c 0,-0.029 0.004,-0.057 0.011,-0.084 0.008,-0.027 0.018,-0.052 0.032,-0.076 0.014,-0.023 0.031,-0.044 0.05,-0.063 0.019,-0.02 0.04,-0.036 0.063,-0.05 0.024,-0.014 0.049,-0.024 0.076,-0.032 0.027,-0.007 0.055,-0.011 0.084,-0.011 h 0.491 c 0.029,0 0.057,0.004 0.084,0.011 0.027,0.008 0.052,0.018 0.076,0.032 0.023,0.014 0.044,0.03 0.063,0.05 0.019,0.019 0.036,0.04 0.05,0.063 0.014,0.024 0.024,0.049 0.032,0.076 0.007,0.027 0.011,0.055 0.011,0.084 v 0.043 c 0,0.002 -10e-4,0.005 -0.002,0.012 C 1.244,-0.43 1.242,-0.422 1.24,-0.412 1.237,-0.403 1.235,-0.392 1.232,-0.381 1.229,-0.37 1.226,-0.36 1.224,-0.35 1.221,-0.34 1.219,-0.33 1.217,-0.322 1.214,-0.314 1.213,-0.308 1.212,-0.305 L 1.09,-0.336 1.184,-0.174 c 0.006,0.01 0.011,0.02 0.015,0.03 0.004,0.01 0.007,0.02 0.009,0.03 0.002,0.01 0.003,0.021 0.004,0.031 0.001,0.011 0.001,0.022 0.001,0.034 V 0 C 1.213,0.019 1.209,0.037 1.202,0.054 1.195,0.072 1.185,0.086 1.172,0.099 1.159,0.112 1.144,0.122 1.127,0.129 1.11,0.136 1.092,0.14 1.073,0.14 Z"
         style="fill-rule:nonzero"
         id="path15560" /><path
         d="m 0.195,-0.457 v -0.034 c 0,-0.034 0.007,-0.066 0.02,-0.096 0.012,-0.03 0.03,-0.056 0.052,-0.078 0.022,-0.023 0.048,-0.04 0.078,-0.053 0.03,-0.013 0.062,-0.019 0.096,-0.019 h 0.491 c 0.034,0 0.066,0.006 0.096,0.019 0.03,0.013 0.056,0.03 0.078,0.053 0.022,0.022 0.04,0.048 0.052,0.078 0.013,0.03 0.02,0.062 0.02,0.096 v 0.034 L 0.897,-0.526 c 0,-0.01 -0.002,-0.019 -0.006,-0.028 C 0.888,-0.562 0.883,-0.57 0.876,-0.576 0.87,-0.582 0.862,-0.587 0.854,-0.591 0.846,-0.595 0.836,-0.597 0.827,-0.597 H 0.546 c -0.01,0 -0.019,0.002 -0.027,0.006 C 0.51,-0.587 0.503,-0.582 0.496,-0.576 0.49,-0.57 0.485,-0.562 0.481,-0.554 0.478,-0.545 0.476,-0.536 0.476,-0.526 Z m 0.04,0.352 0.305,-0.008 c 0.013,-0.001 0.025,-0.002 0.038,-0.004 0.013,-0.003 0.026,-0.006 0.038,-0.008 0.013,-0.003 0.026,-0.006 0.038,-0.008 0.013,-0.003 0.026,-0.004 0.038,-0.004 0.013,0 0.025,0.001 0.037,0.004 0.013,0.002 0.025,0.005 0.038,0.008 0.012,0.002 0.024,0.005 0.037,0.008 0.012,0.002 0.024,0.003 0.037,0.004 l 0.297,0.008 c 0.003,0.011 0.005,0.024 0.005,0.037 V 0 C 1.143,0.01 1.141,0.019 1.137,0.027 1.134,0.036 1.129,0.043 1.122,0.05 1.116,0.056 1.109,0.061 1.1,0.065 1.092,0.068 1.083,0.07 1.073,0.07 H 0.3 C 0.291,0.07 0.281,0.068 0.273,0.065 0.264,0.061 0.257,0.056 0.251,0.05 0.244,0.043 0.239,0.036 0.236,0.027 0.232,0.019 0.23,0.01 0.23,0 v -0.068 c 0,-0.013 0.002,-0.026 0.005,-0.037 z"
         style="fill:#af0d1a;fill-rule:nonzero"
         id="path15562" /><path
         d="m 0.335,-0.632 c 0.017,0 0.033,0.003 0.048,0.008 0.015,0.006 0.029,0.013 0.041,0.023 0.012,0.01 0.022,0.021 0.031,0.035 0.008,0.014 0.014,0.029 0.018,0.045 l 0.003,-0.005 0.047,0.001 c 0.012,0 0.022,-0.002 0.031,-0.004 0.01,-0.002 0.02,-0.006 0.03,-0.01 l 0.032,0.013 h 0.141 l 0.035,-0.014 0.035,0.014 h 0.07 L 0.9,-0.521 c 0.003,-0.016 0.009,-0.031 0.018,-0.045 0.008,-0.013 0.019,-0.025 0.031,-0.035 0.012,-0.009 0.026,-0.017 0.041,-0.023 0.015,-0.005 0.031,-0.008 0.048,-0.008 0.018,0 0.036,0.004 0.054,0.011 0.017,0.008 0.032,0.018 0.044,0.031 0.013,0.013 0.023,0.028 0.031,0.045 0.007,0.017 0.011,0.035 0.011,0.054 0,0.024 -0.006,0.046 -0.017,0.066 l -0.24,-0.06 0.203,0.346 c 0.003,0.006 0.006,0.011 0.008,0.016 0.002,0.006 0.004,0.012 0.006,0.018 H 0.235 C 0.239,-0.117 0.243,-0.128 0.25,-0.139 l 0.202,-0.346 -0.24,0.06 c -0.011,-0.02 -0.017,-0.042 -0.017,-0.066 0,-0.02 0.004,-0.038 0.011,-0.055 0.008,-0.017 0.018,-0.032 0.03,-0.045 0.013,-0.013 0.028,-0.023 0.045,-0.03 0.017,-0.007 0.035,-0.011 0.054,-0.011 z"
         style="fill:#e81224;fill-rule:nonzero"
         id="path15564" /><path
         d="M 0.476,-0.526 0.493,-0.46 0.212,-0.39 0.195,-0.457 Z m 0.421,0 0.281,0.069 L 1.161,-0.39 0.88,-0.46 Z M 0.616,-0.632 v 0.106 h -0.07 v -0.106 z m 0.141,0 h 0.07 v 0.106 h -0.07 z"
         style="fill:#e84757;fill-rule:nonzero"
         id="path15566" /><path
         d="M 0.722,-0.386 H 0.651 v -0.071 h 0.071 z m 0,0.105 H 0.651 v -0.07 h 0.071 z m -0.176,0 v -0.07 h 0.07 v 0.07 z m 0,-0.105 v -0.071 h 0.07 v 0.071 z m 0.211,0.105 v -0.07 h 0.07 v 0.07 z m -0.211,0.105 v -0.07 h 0.07 v 0.07 z m 0.176,0 H 0.651 v -0.07 h 0.071 z m 0.035,-0.21 v -0.071 h 0.07 v 0.071 z m 0,0.21 v -0.07 h 0.07 v 0.07 z"
         style="fill:#f2f2f2;fill-rule:nonzero"
         id="path15568" /></g></g></svg>
