<?xml version="1.0" encoding="UTF-8" standalone="no"?>
<svg
   width="16.844999"
   height="12.63"
   viewBox="0 0 16.844999 12.63"
   version="1.1"
   xml:space="preserve"
   style="clip-rule:evenodd;fill-rule:evenodd;stroke-linejoin:round;stroke-miterlimit:2"
   id="svg20568"
   sodipodi:docname="emojis.svg"
   xmlns:inkscape="http://www.inkscape.org/namespaces/inkscape"
   xmlns:sodipodi="http://sodipodi.sourceforge.net/DTD/sodipodi-0.dtd"
   xmlns="http://www.w3.org/2000/svg"
   xmlns:svg="http://www.w3.org/2000/svg"><defs
     id="defs20572" /><sodipodi:namedview
     id="namedview20570"
     pagecolor="#505050"
     bordercolor="#eeeeee"
     borderopacity="1"
     inkscape:pageshadow="0"
     inkscape:pageopacity="0"
     inkscape:pagecheckerboard="0" /><g
     transform="matrix(0.24,0,0,0.24,-401.4702,-785.4528)"
     id="g20566"><g
       transform="matrix(62.5,0,0,62.5,1664.98,3320.97)"
       id="g15592"><path
         d="M 0.265,0.07 C 0.246,0.07 0.228,0.067 0.211,0.059 0.194,0.052 0.179,0.041 0.167,0.029 0.154,0.016 0.144,0.001 0.136,-0.016 0.129,-0.033 0.125,-0.051 0.125,-0.07 v -0.562 c 0,-0.019 0.004,-0.037 0.011,-0.054 0.007,-0.017 0.017,-0.032 0.03,-0.045 0.013,-0.013 0.028,-0.023 0.045,-0.03 0.017,-0.007 0.035,-0.011 0.054,-0.011 h 0.842 c 0.019,0 0.037,0.004 0.054,0.011 0.017,0.008 0.032,0.018 0.045,0.031 0.013,0.012 0.023,0.027 0.031,0.044 0.007,0.017 0.011,0.035 0.011,0.054 v 0.562 c 0,0.019 -0.004,0.038 -0.011,0.055 C 1.23,0.002 1.22,0.017 1.207,0.029 1.194,0.042 1.179,0.052 1.162,0.059 1.145,0.067 1.127,0.07 1.107,0.07 Z"
         style="fill-rule:nonzero"
         id="path15580" /><path
         d="M 1.107,0 H 0.265 C 0.255,0 0.246,-0.002 0.238,-0.006 0.229,-0.009 0.222,-0.014 0.216,-0.021 0.209,-0.027 0.204,-0.035 0.201,-0.043 0.197,-0.051 0.195,-0.061 0.195,-0.07 v -0.562 c 0,-0.01 0.002,-0.019 0.006,-0.027 0.003,-0.009 0.008,-0.016 0.015,-0.022 0.006,-0.007 0.013,-0.012 0.022,-0.016 0.008,-0.003 0.017,-0.005 0.027,-0.005 h 0.842 c 0.01,0 0.019,0.002 0.028,0.005 0.008,0.004 0.016,0.009 0.022,0.016 0.006,0.006 0.011,0.013 0.015,0.022 0.004,0.008 0.006,0.017 0.006,0.027 v 0.562 c 0,0.009 -0.002,0.019 -0.006,0.027 C 1.168,-0.035 1.163,-0.027 1.157,-0.021 1.151,-0.014 1.143,-0.009 1.135,-0.006 1.126,-0.002 1.117,0 1.107,0 Z"
         style="fill:#757575;fill-rule:nonzero"
         id="path15582" /><path
         d="m 0.3,-0.141 h 0.211 c 0.01,0 0.018,0.004 0.025,0.011 0.006,0.007 0.01,0.015 0.01,0.025 0,0.009 -0.004,0.017 -0.01,0.024 C 0.529,-0.074 0.521,-0.07 0.511,-0.07 H 0.3 c -0.009,0 -0.017,-0.004 -0.024,-0.011 -0.007,-0.007 -0.011,-0.015 -0.011,-0.024 0,-0.01 0.004,-0.018 0.011,-0.025 0.007,-0.007 0.015,-0.011 0.024,-0.011 z m 0.351,0 h 0.211 c 0.01,0 0.018,0.004 0.025,0.011 0.007,0.006 0.01,0.015 0.01,0.025 0,0.009 -0.003,0.018 -0.01,0.024 C 0.88,-0.074 0.872,-0.07 0.862,-0.07 H 0.651 c -0.009,0 -0.018,-0.004 -0.025,-0.011 -0.006,-0.006 -0.01,-0.015 -0.01,-0.024 0,-0.01 0.004,-0.019 0.01,-0.025 0.007,-0.007 0.016,-0.011 0.025,-0.011 z"
         style="fill:#cccccc;fill-rule:nonzero"
         id="path15584" /><path
         d="m 1.002,-0.141 h 0.071 c 0.009,0 0.017,0.004 0.024,0.011 0.007,0.007 0.01,0.015 0.01,0.025 0,0.009 -0.003,0.017 -0.01,0.024 C 1.09,-0.074 1.082,-0.07 1.073,-0.07 H 1.002 c -0.009,0 -0.018,-0.004 -0.024,-0.011 -0.007,-0.006 -0.011,-0.015 -0.011,-0.024 0,-0.01 0.004,-0.019 0.011,-0.025 0.006,-0.007 0.015,-0.011 0.024,-0.011 z"
         style="fill:#f03a17;fill-rule:nonzero"
         id="path15586" /><path
         d="m 0.265,-0.597 0.036,-0.019 h 0.767 l 0.039,0.019 V -0.21 H 0.265 Z"
         style="fill:#e4f577;fill-rule:nonzero"
         id="path15588" /><path
         d="m 0.265,-0.632 h 0.842 v 0.035 H 0.265 Z m 0.246,0.211 H 0.476 v 0.07 H 0.441 v -0.106 h 0.07 z m -0.14,0.07 v -0.07 H 0.335 v -0.036 h 0.036 v 0.036 h 0.035 v 0.07 z m 0.491,0 v -0.07 H 0.827 v -0.036 h 0.035 v 0.036 h 0.035 v 0.07 z m -0.07,0 V -0.386 H 0.757 v -0.071 h 0.035 v 0.071 h 0.035 v 0.035 z m 0.21,-0.035 V -0.421 H 0.967 v -0.036 h 0.035 v 0.036 h 0.036 v 0.035 z m -0.07,-0.035 h 0.035 v 0.035 h 0.035 v 0.035 H 0.967 V -0.386 H 0.932 Z M 0.581,-0.386 V -0.421 H 0.546 v -0.036 h 0.035 v 0.036 h 0.035 v 0.035 z m 0.07,0 v -0.035 h 0.071 v 0.035 z m -0.14,-0.035 h 0.035 v 0.035 h 0.035 v 0.035 H 0.546 V -0.386 H 0.511 Z m 0.421,0 H 0.897 v -0.036 h 0.035 z"
         style="fill:#bad80a;fill-rule:nonzero"
         id="path15590" /></g></g></svg>
