<?xml version="1.0" encoding="UTF-8" standalone="no"?>
<svg
   width="11.055"
   height="16.844999"
   viewBox="0 0 11.055 16.844999"
   version="1.1"
   xml:space="preserve"
   style="clip-rule:evenodd;fill-rule:evenodd;stroke-linejoin:round;stroke-miterlimit:2"
   id="svg20568"
   sodipodi:docname="emojis.svg"
   xmlns:inkscape="http://www.inkscape.org/namespaces/inkscape"
   xmlns:sodipodi="http://sodipodi.sourceforge.net/DTD/sodipodi-0.dtd"
   xmlns="http://www.w3.org/2000/svg"
   xmlns:svg="http://www.w3.org/2000/svg"><defs
     id="defs20572" /><sodipodi:namedview
     id="namedview20570"
     pagecolor="#505050"
     bordercolor="#eeeeee"
     borderopacity="1"
     inkscape:pageshadow="0"
     inkscape:pageopacity="0"
     inkscape:pagecheckerboard="0" /><g
     transform="matrix(0.24,0,0,0.24,-396.2694,-127.68924)"
     id="g20566"><g
       transform="matrix(62.5,0,0,62.5,1643.31,589.101)"
       id="g1554"><path
         d="m 0.862,-0.386 v 0.21 c 0,0.021 -0.004,0.04 -0.012,0.056 -0.007,0.017 -0.018,0.033 -0.033,0.047 l -0.06,0.06 V 0.21 H 0.23 V -0.012 L 0.168,-0.075 C 0.154,-0.089 0.143,-0.104 0.136,-0.121 0.129,-0.138 0.125,-0.156 0.125,-0.176 v -0.21 c 0,-0.018 0.003,-0.035 0.01,-0.051 C 0.141,-0.452 0.15,-0.467 0.161,-0.479 0.172,-0.492 0.185,-0.502 0.2,-0.51 0.215,-0.518 0.231,-0.523 0.249,-0.525 0.261,-0.547 0.278,-0.565 0.3,-0.578 0.322,-0.59 0.345,-0.597 0.371,-0.597 V -0.79 c 0,-0.016 0.003,-0.032 0.009,-0.047 0.007,-0.015 0.016,-0.028 0.027,-0.039 0.011,-0.012 0.024,-0.02 0.039,-0.027 0.015,-0.006 0.031,-0.01 0.048,-0.01 0.017,0 0.032,0.004 0.047,0.01 0.015,0.007 0.028,0.016 0.039,0.027 0.011,0.011 0.02,0.024 0.026,0.039 0.007,0.015 0.01,0.031 0.01,0.047 v 0.193 c 0.026,0 0.049,0.007 0.071,0.019 0.022,0.013 0.039,0.03 0.051,0.053 0.018,0.002 0.034,0.007 0.049,0.015 0.015,0.008 0.029,0.018 0.039,0.031 0.011,0.012 0.02,0.027 0.026,0.042 0.007,0.016 0.01,0.033 0.01,0.051 z"
         style="fill-rule:nonzero"
         id="path1548" /><path
         d="m 0.792,-0.176 c 0,0.01 -0.002,0.02 -0.006,0.029 -0.005,0.008 -0.01,0.016 -0.017,0.023 L 0.687,-0.042 V 0.14 H 0.3 V -0.042 L 0.218,-0.124 C 0.211,-0.131 0.205,-0.139 0.201,-0.148 0.197,-0.156 0.195,-0.166 0.195,-0.176 v -0.21 c 0,-0.01 0.002,-0.019 0.006,-0.028 0.003,-0.008 0.008,-0.015 0.015,-0.022 0.006,-0.006 0.013,-0.011 0.022,-0.015 0.008,-0.004 0.017,-0.006 0.027,-0.006 H 0.3 C 0.3,-0.466 0.302,-0.475 0.306,-0.484 0.31,-0.492 0.315,-0.5 0.321,-0.506 0.327,-0.512 0.335,-0.517 0.343,-0.521 0.352,-0.525 0.361,-0.526 0.371,-0.526 h 0.035 l 0.014,0.004 c 0.001,0.001 0.003,0.001 0.003,0.001 L 0.441,-0.526 V -0.79 c 0,-0.007 0.001,-0.014 0.004,-0.02 0.003,-0.007 0.007,-0.012 0.011,-0.017 0.005,-0.005 0.011,-0.008 0.017,-0.011 0.006,-0.003 0.013,-0.004 0.021,-0.004 0.007,0 0.014,0.001 0.02,0.004 0.006,0.003 0.012,0.006 0.017,0.011 0.004,0.005 0.008,0.011 0.011,0.017 0.003,0.007 0.004,0.013 0.004,0.02 v 0.264 l 0.017,0.004 c 0.005,-0.002 0.01,-0.003 0.016,-0.004 0.005,-0.001 0.01,-0.001 0.015,-0.001 l 0.022,0.001 c 0.01,0 0.019,0.001 0.028,0.005 0.008,0.004 0.015,0.009 0.022,0.015 0.006,0.006 0.011,0.014 0.015,0.022 0.004,0.009 0.006,0.018 0.006,0.027 h 0.035 c 0.009,0 0.019,0.002 0.027,0.006 0.008,0.004 0.016,0.009 0.022,0.015 0.007,0.007 0.012,0.014 0.015,0.022 0.004,0.009 0.006,0.018 0.006,0.028 z"
         style="fill:#ffc83d;fill-rule:nonzero"
         id="path1550" /><path
         d="m 0.406,-0.404 v -0.122 h 0.035 v 0.122 c 0,0.005 -0.002,0.009 -0.005,0.013 -0.004,0.003 -0.008,0.005 -0.013,0.005 -0.005,0 -0.009,-0.002 -0.012,-0.005 C 0.407,-0.395 0.406,-0.399 0.406,-0.404 Z m 0.14,-0.122 h 0.035 v 0.122 c 0,0.005 -0.002,0.009 -0.005,0.013 -0.003,0.003 -0.008,0.005 -0.013,0.005 -0.004,0 -0.009,-0.002 -0.012,-0.005 C 0.548,-0.395 0.546,-0.399 0.546,-0.404 Z"
         style="fill:#d48c00;fill-rule:nonzero"
         id="path1552" /></g></g></svg>
