<?xml version="1.0" encoding="UTF-8" standalone="no"?>
<svg
   width="14.73"
   height="16.844999"
   viewBox="0 0 14.73 16.844999"
   version="1.1"
   xml:space="preserve"
   style="clip-rule:evenodd;fill-rule:evenodd;stroke-linejoin:round;stroke-miterlimit:2"
   id="svg20568"
   sodipodi:docname="emojis.svg"
   xmlns:inkscape="http://www.inkscape.org/namespaces/inkscape"
   xmlns:sodipodi="http://sodipodi.sourceforge.net/DTD/sodipodi-0.dtd"
   xmlns="http://www.w3.org/2000/svg"
   xmlns:svg="http://www.w3.org/2000/svg"><defs
     id="defs20572" /><sodipodi:namedview
     id="namedview20570"
     pagecolor="#505050"
     bordercolor="#eeeeee"
     borderopacity="1"
     inkscape:pageshadow="0"
     inkscape:pageopacity="0"
     inkscape:pagecheckerboard="0" /><g
     transform="matrix(0.24,0,0,0.24,-312.1662,-783.3378)"
     id="g20566"><g
       transform="matrix(62.5,0,0,62.5,1292.88,3320.97)"
       id="g15524"><path
         d="M 0.546,0.21 C 0.507,0.21 0.47,0.205 0.434,0.195 0.398,0.185 0.365,0.171 0.334,0.153 0.303,0.135 0.274,0.113 0.249,0.087 0.223,0.061 0.201,0.033 0.183,0.002 0.164,-0.029 0.15,-0.063 0.14,-0.099 0.13,-0.134 0.125,-0.172 0.125,-0.21 v -0.281 c 0,-0.042 0.006,-0.082 0.018,-0.122 C 0.155,-0.653 0.172,-0.69 0.196,-0.724 0.185,-0.737 0.177,-0.75 0.17,-0.762 0.163,-0.775 0.16,-0.79 0.16,-0.807 c 0,-0.015 0.002,-0.028 0.008,-0.041 0.006,-0.013 0.013,-0.024 0.023,-0.034 0.009,-0.009 0.02,-0.017 0.033,-0.022 0.013,-0.006 0.026,-0.009 0.041,-0.009 0.018,0 0.034,0.005 0.05,0.013 0.016,0.008 0.029,0.02 0.038,0.034 0.03,-0.015 0.061,-0.027 0.094,-0.035 0.032,-0.008 0.065,-0.012 0.099,-0.012 h 0.141 c 0.033,0 0.066,0.004 0.099,0.012 0.032,0.008 0.063,0.02 0.093,0.035 0.012,-0.014 0.025,-0.026 0.038,-0.034 0.014,-0.008 0.031,-0.013 0.05,-0.013 0.015,0 0.029,0.003 0.041,0.009 0.013,0.005 0.024,0.013 0.034,0.022 0.009,0.01 0.017,0.021 0.022,0.034 0.006,0.013 0.009,0.026 0.009,0.041 0,0.008 -10e-4,0.016 -0.003,0.024 -0.002,0.007 -0.005,0.014 -0.008,0.02 -0.003,0.007 -0.007,0.013 -0.011,0.02 -0.004,0.006 -0.009,0.012 -0.014,0.019 0.024,0.034 0.041,0.071 0.053,0.111 0.012,0.04 0.017,0.08 0.017,0.122 v 0.281 c 0,0.038 -0.005,0.076 -0.015,0.111 C 1.082,-0.063 1.068,-0.029 1.05,0.002 1.032,0.033 1.01,0.061 0.984,0.087 0.958,0.113 0.93,0.135 0.899,0.153 0.868,0.171 0.834,0.185 0.798,0.195 0.763,0.205 0.725,0.21 0.687,0.21 Z"
         style="fill-rule:nonzero"
         id="path15510" /><path
         d="m 1.038,-0.21 c 0,0.032 -0.005,0.063 -0.013,0.093 C 1.016,-0.088 1.005,-0.06 0.99,-0.034 0.974,-0.008 0.956,0.016 0.935,0.037 0.913,0.059 0.889,0.077 0.864,0.092 0.838,0.108 0.81,0.119 0.78,0.128 0.75,0.136 0.719,0.14 0.687,0.14 H 0.546 C 0.514,0.14 0.483,0.136 0.453,0.128 0.423,0.119 0.395,0.108 0.369,0.092 0.343,0.077 0.319,0.059 0.298,0.037 0.277,0.016 0.258,-0.008 0.243,-0.034 0.228,-0.06 0.216,-0.088 0.208,-0.117 0.199,-0.147 0.195,-0.178 0.195,-0.21 v -0.106 h 0.843 z"
         style="fill:#cccccc;fill-rule:nonzero"
         id="path15512" /><path
         d="m 1.038,-0.281 c 0,0.032 -0.005,0.064 -0.013,0.094 C 1.017,-0.158 1.005,-0.13 0.99,-0.104 0.974,-0.077 0.956,-0.054 0.935,-0.032 0.913,-0.011 0.89,0.007 0.864,0.022 0.838,0.038 0.81,0.05 0.78,0.058 0.75,0.066 0.719,0.07 0.687,0.07 H 0.546 C 0.514,0.07 0.483,0.066 0.453,0.058 0.423,0.05 0.395,0.038 0.369,0.022 0.343,0.007 0.319,-0.011 0.298,-0.032 0.277,-0.054 0.258,-0.077 0.243,-0.104 0.228,-0.13 0.216,-0.158 0.208,-0.187 0.199,-0.217 0.195,-0.249 0.195,-0.281 v -0.21 h 0.843 z"
         style="fill:#f03a17;fill-rule:nonzero"
         id="path15514" /><path
         d="m 0.441,-0.176 h 0.07 v 0.141 c 0,0.009 -0.003,0.018 -0.01,0.025 C 0.494,-0.003 0.486,0 0.476,0 0.466,0 0.458,-0.003 0.451,-0.01 0.444,-0.017 0.441,-0.025 0.441,-0.035 Z m 0.281,0 h 0.07 v 0.141 c 0,0.009 -0.004,0.018 -0.011,0.025 C 0.774,-0.003 0.766,0 0.757,0 0.747,0 0.739,-0.003 0.732,-0.01 0.725,-0.017 0.722,-0.025 0.722,-0.035 Z m 0.28,-0.175 v 0.141 c 0,0.009 -0.003,0.017 -0.01,0.024 -0.007,0.007 -0.015,0.01 -0.025,0.01 -0.009,0 -0.017,-0.003 -0.024,-0.01 C 0.936,-0.193 0.932,-0.201 0.932,-0.21 v -0.106 z m -0.772,0 0.07,0.035 v 0.106 c 0,0.009 -0.003,0.017 -0.01,0.024 -0.007,0.007 -0.015,0.01 -0.024,0.01 -0.01,0 -0.018,-0.003 -0.025,-0.01 C 0.234,-0.193 0.23,-0.201 0.23,-0.21 Z"
         style="fill:#f2f2f2;fill-rule:nonzero"
         id="path15516" /><path
         d="m 0.687,-0.842 c 0.032,0 0.063,0.004 0.093,0.012 0.03,0.008 0.058,0.02 0.084,0.036 0.026,0.015 0.049,0.033 0.071,0.054 0.021,0.022 0.039,0.046 0.055,0.072 0.015,0.026 0.027,0.054 0.035,0.084 0.008,0.029 0.013,0.061 0.013,0.093 0,0.032 -0.005,0.063 -0.013,0.093 C 1.016,-0.368 1.005,-0.34 0.99,-0.314 0.974,-0.288 0.956,-0.265 0.935,-0.243 0.913,-0.222 0.889,-0.204 0.864,-0.188 0.838,-0.173 0.81,-0.161 0.78,-0.153 0.75,-0.145 0.719,-0.141 0.687,-0.141 H 0.546 C 0.514,-0.141 0.483,-0.145 0.453,-0.153 0.423,-0.161 0.395,-0.173 0.369,-0.188 0.343,-0.204 0.319,-0.222 0.298,-0.243 0.277,-0.265 0.258,-0.288 0.243,-0.314 0.228,-0.34 0.216,-0.368 0.208,-0.398 0.199,-0.428 0.195,-0.459 0.195,-0.491 c 0,-0.032 0.004,-0.064 0.013,-0.093 0.008,-0.03 0.02,-0.058 0.035,-0.084 0.015,-0.026 0.034,-0.05 0.055,-0.072 0.021,-0.021 0.045,-0.039 0.071,-0.054 0.026,-0.016 0.054,-0.028 0.084,-0.036 0.03,-0.008 0.061,-0.012 0.093,-0.012 z"
         style="fill:#cccccc;fill-rule:nonzero"
         id="path15518" /><path
         d="m 0.687,-0.772 c 0.038,0 0.074,0.007 0.108,0.022 0.035,0.015 0.064,0.035 0.09,0.061 0.025,0.025 0.045,0.055 0.06,0.089 0.015,0.034 0.022,0.07 0.022,0.109 0,0.039 -0.007,0.075 -0.022,0.109 -0.015,0.034 -0.035,0.064 -0.06,0.089 -0.026,0.025 -0.055,0.046 -0.09,0.06 -0.034,0.015 -0.07,0.023 -0.108,0.023 H 0.546 C 0.507,-0.21 0.471,-0.218 0.437,-0.233 0.403,-0.247 0.373,-0.268 0.348,-0.293 0.322,-0.318 0.302,-0.348 0.287,-0.382 0.273,-0.416 0.265,-0.452 0.265,-0.491 0.265,-0.53 0.273,-0.566 0.287,-0.6 0.302,-0.634 0.322,-0.664 0.348,-0.689 0.373,-0.715 0.403,-0.735 0.437,-0.75 0.471,-0.765 0.507,-0.772 0.546,-0.772 Z"
         style="fill:#ffffff;fill-rule:nonzero"
         id="path15520" /><path
         d="m 0.266,-0.842 c 0.012,0 0.021,0.004 0.028,0.014 l 0.281,0.386 c 0.004,0.006 0.007,0.013 0.007,0.021 0,0.009 -0.004,0.017 -0.011,0.024 C 0.564,-0.39 0.556,-0.386 0.546,-0.386 0.541,-0.386 0.535,-0.387 0.53,-0.39 0.525,-0.392 0.521,-0.396 0.518,-0.4 L 0.237,-0.787 C 0.232,-0.793 0.23,-0.8 0.23,-0.807 c 0,-0.01 0.003,-0.018 0.01,-0.025 0.007,-0.007 0.016,-0.01 0.026,-0.01 z m 0.701,0 c 0.009,0 0.018,0.003 0.025,0.01 0.007,0.007 0.01,0.015 0.01,0.025 0,0.007 -0.002,0.014 -0.006,0.02 L 0.715,-0.4 c -0.007,0.009 -0.016,0.014 -0.028,0.014 -0.01,0 -0.018,-0.004 -0.025,-0.011 -0.007,-0.007 -0.011,-0.015 -0.011,-0.024 0,-0.008 0.003,-0.015 0.007,-0.021 l 0.281,-0.386 c 0.007,-0.01 0.016,-0.014 0.028,-0.014 z"
         style="fill:#eba300;fill-rule:nonzero"
         id="path15522" /></g></g></svg>
