<?xml version="1.0" encoding="UTF-8" standalone="no"?>
<svg
   width="16.844999"
   height="16.844999"
   viewBox="0 0 16.844999 16.844999"
   version="1.1"
   xml:space="preserve"
   style="clip-rule:evenodd;fill-rule:evenodd;stroke-linejoin:round;stroke-miterlimit:2"
   id="svg20568"
   sodipodi:docname="emojis.svg"
   xmlns:inkscape="http://www.inkscape.org/namespaces/inkscape"
   xmlns:sodipodi="http://sodipodi.sourceforge.net/DTD/sodipodi-0.dtd"
   xmlns="http://www.w3.org/2000/svg"
   xmlns:svg="http://www.w3.org/2000/svg"><defs
     id="defs20572" /><sodipodi:namedview
     id="namedview20570"
     pagecolor="#505050"
     bordercolor="#eeeeee"
     borderopacity="1"
     inkscape:pageshadow="0"
     inkscape:pageopacity="0"
     inkscape:pagecheckerboard="0" /><g
     transform="matrix(0.24,0,0,0.24,-291.5694,-783.3378)"
     id="g20566"><g
       transform="matrix(62.5,0,0,62.5,1207.06,3320.97)"
       id="g15508"><path
         d="M 0.476,0.21 C 0.444,0.21 0.413,0.206 0.383,0.198 0.353,0.19 0.325,0.178 0.299,0.163 0.273,0.147 0.249,0.129 0.228,0.108 0.206,0.086 0.188,0.063 0.173,0.037 0.158,0.011 0.146,-0.017 0.137,-0.047 0.129,-0.077 0.125,-0.108 0.125,-0.141 c 0,-0.032 0.004,-0.063 0.013,-0.093 0.008,-0.029 0.02,-0.057 0.035,-0.083 0.015,-0.026 0.034,-0.05 0.055,-0.071 0.022,-0.022 0.045,-0.04 0.071,-0.055 0.026,-0.016 0.054,-0.027 0.084,-0.036 0.03,-0.008 0.061,-0.012 0.093,-0.012 0.052,0 0.101,0.011 0.149,0.033 L 0.897,-0.731 V -0.766 C 0.9,-0.785 0.908,-0.802 0.921,-0.815 0.934,-0.829 0.95,-0.837 0.969,-0.841 c 0.002,-0.01 0.005,-0.02 0.01,-0.029 0.006,-0.008 0.012,-0.016 0.02,-0.022 0.008,-0.007 0.017,-0.012 0.026,-0.015 0.01,-0.004 0.02,-0.006 0.03,-0.006 0.005,0 0.01,0.001 0.015,0.002 0.006,-0.001 0.011,-0.002 0.017,-0.002 0.014,0 0.027,0.003 0.04,0.008 0.013,0.006 0.025,0.013 0.035,0.023 l 0.055,0.056 c 0.01,0.01 0.018,0.021 0.023,0.034 0.005,0.013 0.008,0.027 0.008,0.041 l -10e-4,0.016 c 0,0.003 0,0.005 0,0.008 10e-4,0.002 10e-4,0.005 10e-4,0.007 0,0.011 -0.002,0.021 -0.005,0.03 -0.004,0.01 -0.009,0.019 -0.015,0.026 -0.007,0.008 -0.014,0.015 -0.023,0.02 C 1.196,-0.639 1.187,-0.635 1.176,-0.633 1.175,-0.624 1.172,-0.616 1.167,-0.608 1.163,-0.6 1.157,-0.593 1.151,-0.586 1.144,-0.58 1.137,-0.575 1.129,-0.571 1.12,-0.566 1.112,-0.564 1.103,-0.563 H 1.066 l -0.272,0.274 c 0.022,0.047 0.033,0.097 0.033,0.148 0,0.033 -0.004,0.064 -0.013,0.094 C 0.806,-0.017 0.794,0.01 0.779,0.036 0.764,0.062 0.745,0.086 0.724,0.107 0.703,0.129 0.679,0.147 0.653,0.162 0.627,0.177 0.599,0.189 0.569,0.198 0.539,0.206 0.508,0.21 0.476,0.21 Z"
         style="fill-rule:nonzero"
         id="path15494" /><path
         d="m 1.107,-0.649 c 0,0.004 -10e-4,0.009 -0.005,0.012 -0.003,0.003 -0.007,0.005 -0.012,0.005 -0.005,0 -0.009,-0.002 -0.012,-0.005 -0.004,-0.004 -0.005,-0.008 -0.005,-0.012 0,-0.005 0.001,-0.009 0.005,-0.013 0.003,-0.003 0.007,-0.005 0.012,-0.005 0.005,0 0.009,0.002 0.012,0.005 0.004,0.004 0.005,0.008 0.005,0.013 z M 1.178,-0.72 c 0,0.005 -0.002,0.009 -0.005,0.013 -0.004,0.003 -0.008,0.005 -0.013,0.005 -0.005,0 -0.009,-0.002 -0.012,-0.005 -0.004,-0.004 -0.005,-0.008 -0.005,-0.013 0,-0.004 10e-4,-0.008 0.005,-0.012 0.004,-0.004 0.008,-0.005 0.012,-0.005 0.005,0 0.009,0.001 0.012,0.005 0.004,0.004 0.006,0.008 0.006,0.012 z M 1.073,-0.825 c 0,0.005 -0.002,0.009 -0.006,0.012 -0.003,0.004 -0.007,0.006 -0.012,0.006 -0.005,0 -0.009,-0.002 -0.012,-0.005 -0.004,-0.004 -0.005,-0.008 -0.005,-0.013 0,-0.005 10e-4,-0.009 0.005,-0.012 0.003,-0.004 0.007,-0.005 0.012,-0.005 0.005,0 0.009,0.002 0.012,0.005 0.004,0.004 0.006,0.008 0.006,0.012 z m -0.071,0.071 c 0,0.004 -0.001,0.008 -0.005,0.012 -0.004,0.003 -0.008,0.005 -0.012,0.005 -0.005,0 -0.009,-0.002 -0.012,-0.005 -0.004,-0.004 -0.006,-0.008 -0.006,-0.012 0,-0.005 0.002,-0.009 0.005,-0.013 0.004,-0.003 0.008,-0.005 0.013,-0.005 0.005,0 0.009,0.002 0.012,0.005 0.004,0.004 0.005,0.008 0.005,0.013 z"
         style="fill:#cccccc;fill-rule:nonzero"
         id="path15496" /><path
         d="m 0.757,-0.141 c 0,0.039 -0.008,0.075 -0.022,0.11 C 0.72,0.003 0.7,0.032 0.674,0.058 0.649,0.083 0.619,0.103 0.585,0.118 0.551,0.133 0.515,0.14 0.476,0.14 0.437,0.14 0.401,0.133 0.367,0.118 0.333,0.104 0.303,0.083 0.277,0.058 0.252,0.033 0.232,0.003 0.217,-0.031 0.203,-0.065 0.195,-0.102 0.195,-0.141 c 0,-0.038 0.008,-0.075 0.023,-0.109 0.014,-0.034 0.034,-0.063 0.06,-0.089 0.025,-0.025 0.055,-0.045 0.089,-0.06 0.034,-0.015 0.07,-0.022 0.109,-0.022 0.039,0 0.075,0.007 0.109,0.022 0.034,0.015 0.064,0.035 0.089,0.06 0.026,0.026 0.046,0.055 0.061,0.089 0.014,0.034 0.022,0.071 0.022,0.109 z m 0.33,-0.701 c 0.01,0 0.018,0.003 0.025,0.01 l 0.055,0.056 c 0.007,0.006 0.011,0.015 0.011,0.025 0,0.005 -10e-4,0.01 -0.004,0.015 -0.002,0.004 -0.005,0.008 -0.008,0.012 -0.004,0.004 -0.008,0.008 -0.012,0.012 -0.004,0.003 -0.008,0.007 -0.011,0.01 H 1.107 v 0.035 L 1.073,-0.632 H 1.038 L 1.02,-0.614 0.95,-0.685 0.967,-0.702 V -0.737 L 1.002,-0.772 H 1.038 V -0.807 C 1.041,-0.81 1.044,-0.814 1.048,-0.818 1.051,-0.823 1.055,-0.826 1.059,-0.83 1.063,-0.833 1.068,-0.836 1.072,-0.839 1.076,-0.841 1.081,-0.842 1.087,-0.842 Z"
         style="fill:#757575;fill-rule:nonzero"
         id="path15498" /><path
         d="M 0.555,-0.29 0.95,-0.685 1.02,-0.614 0.625,-0.219 Z"
         style="fill:#8e562e;fill-rule:nonzero"
         id="path15500" /><path
         d="m 0.722,-0.141 c 0,0.034 -0.007,0.066 -0.02,0.096 C 0.69,-0.015 0.672,0.011 0.65,0.033 0.627,0.055 0.601,0.073 0.572,0.086 0.542,0.099 0.51,0.105 0.476,0.105 0.45,0.105 0.424,0.101 0.4,0.093 0.375,0.085 0.353,0.073 0.332,0.059 0.312,0.044 0.294,0.026 0.279,0.006 0.263,-0.015 0.251,-0.038 0.243,-0.063 L 0.25,-0.197 0.302,-0.314 c 0.023,-0.023 0.05,-0.041 0.08,-0.054 0.03,-0.012 0.061,-0.018 0.094,-0.018 0.034,0 0.066,0.006 0.096,0.019 0.029,0.013 0.055,0.03 0.078,0.053 0.022,0.022 0.04,0.048 0.052,0.078 0.013,0.03 0.02,0.062 0.02,0.095 z m 0.289,-0.464 -0.071,-0.07 0.019,-0.019 0.07,0.07 z"
         style="fill:#ffffff;fill-rule:nonzero"
         id="path15502" /><path
         d="M 0.335,-0.088 0.423,0 0.318,0.07 0.265,0.018 Z m -0.07,-0.053 c 0,0.023 0.004,0.045 0.011,0.067 L 0.243,-0.063 C 0.239,-0.075 0.236,-0.088 0.234,-0.101 0.232,-0.114 0.23,-0.127 0.23,-0.141 c 0,-0.032 0.007,-0.063 0.019,-0.093 0.012,-0.03 0.03,-0.057 0.053,-0.08 l 0.025,0.024 c -0.019,0.021 -0.035,0.043 -0.046,0.069 -0.01,0.025 -0.016,0.052 -0.016,0.08 z"
         style="fill:#a6a6a6;fill-rule:nonzero"
         id="path15504" /><path
         d="m 0.451,-0.035 -0.08,-0.081 0.025,-0.025 0.08,0.081 z"
         style="fill:#383838;fill-rule:nonzero"
         id="path15506" /></g></g></svg>
