<?xml version="1.0" encoding="UTF-8" standalone="no"?>
<svg
   width="12.105"
   height="16.844999"
   viewBox="0 0 12.105 16.844999"
   version="1.1"
   xml:space="preserve"
   style="clip-rule:evenodd;fill-rule:evenodd;stroke-linejoin:round;stroke-miterlimit:2"
   id="svg20568"
   sodipodi:docname="emojis.svg"
   xmlns:inkscape="http://www.inkscape.org/namespaces/inkscape"
   xmlns:sodipodi="http://sodipodi.sourceforge.net/DTD/sodipodi-0.dtd"
   xmlns="http://www.w3.org/2000/svg"
   xmlns:svg="http://www.w3.org/2000/svg"><defs
     id="defs20572" /><sodipodi:namedview
     id="namedview20570"
     pagecolor="#505050"
     bordercolor="#eeeeee"
     borderopacity="1"
     inkscape:pageshadow="0"
     inkscape:pageopacity="0"
     inkscape:pagecheckerboard="0" /><g
     transform="matrix(0.24,0,0,0.24,-411.0726,-127.68924)"
     id="g20566"><g
       transform="matrix(62.5,0,0,62.5,1704.99,589.101)"
       id="g1562"><path
         d="m 0.125,-0.316 v -0.597 h 0.491 v 0.141 c 0,0.005 0,0.01 0.001,0.016 0,0.006 0.001,0.011 0.002,0.017 0.002,0.006 0.003,0.012 0.005,0.017 0.002,0.005 0.005,0.01 0.008,0.013 l 0.259,0.259 c 0.013,0.013 0.024,0.028 0.031,0.045 0.007,0.018 0.01,0.035 0.01,0.054 0,0.019 -0.004,0.038 -0.011,0.055 -0.007,0.017 -0.017,0.031 -0.03,0.044 -0.013,0.013 -0.027,0.023 -0.044,0.03 -0.017,0.007 -0.035,0.011 -0.055,0.011 V 0.087 C 0.792,0.104 0.789,0.12 0.782,0.135 0.776,0.15 0.767,0.163 0.756,0.174 0.745,0.185 0.732,0.194 0.717,0.201 0.702,0.207 0.686,0.21 0.669,0.21 0.652,0.21 0.636,0.207 0.621,0.201 0.606,0.194 0.593,0.185 0.582,0.174 0.571,0.163 0.562,0.15 0.556,0.135 0.549,0.12 0.546,0.104 0.546,0.087 V -0.105 H 0.406 C 0.38,-0.105 0.357,-0.112 0.335,-0.124 0.314,-0.137 0.297,-0.154 0.284,-0.176 H 0.265 C 0.246,-0.176 0.228,-0.179 0.211,-0.187 0.194,-0.194 0.179,-0.204 0.166,-0.217 0.153,-0.229 0.143,-0.244 0.136,-0.261 0.129,-0.279 0.125,-0.297 0.125,-0.316 Z"
         style="fill-rule:nonzero"
         id="path1556" /><path
         d="m 0.722,-0.521 0.049,0.158 -0.049,0.041 V 0.087 C 0.722,0.095 0.72,0.102 0.718,0.108 0.715,0.115 0.711,0.12 0.706,0.125 0.702,0.129 0.696,0.133 0.689,0.136 0.683,0.139 0.676,0.14 0.669,0.14 0.661,0.14 0.655,0.139 0.648,0.136 0.642,0.133 0.636,0.129 0.632,0.125 0.627,0.12 0.623,0.115 0.62,0.108 0.618,0.102 0.616,0.095 0.616,0.087 V -0.176 L 0.599,-0.182 c -0.001,0 -0.002,0 -0.004,0.001 L 0.581,-0.176 H 0.476 L 0.463,-0.18 C 0.461,-0.181 0.46,-0.181 0.459,-0.181 c -0.005,0.002 -0.01,0.004 -0.016,0.005 -0.005,0 -0.011,0.001 -0.016,0.001 L 0.406,-0.176 c -0.01,0 -0.019,-0.002 -0.028,-0.005 C 0.37,-0.185 0.363,-0.19 0.356,-0.196 0.35,-0.202 0.345,-0.21 0.341,-0.218 0.337,-0.227 0.335,-0.236 0.335,-0.246 L 0.317,-0.252 0.3,-0.246 H 0.266 c -0.01,0 -0.019,-0.001 -0.028,-0.005 C 0.23,-0.255 0.222,-0.26 0.216,-0.266 0.21,-0.273 0.205,-0.28 0.201,-0.289 0.197,-0.297 0.195,-0.306 0.195,-0.316 v -0.526 h 0.351 v 0.091 c 0,0.008 0.001,0.016 0.003,0.024 0.001,0.009 0.004,0.017 0.007,0.025 0.003,0.008 0.007,0.016 0.012,0.024 0.004,0.007 0.009,0.013 0.015,0.019 z"
         style="fill:#ffc83d;fill-rule:nonzero"
         id="path1558" /><path
         d="m 0.722,-0.521 0.119,0.12 c 0.007,0.007 0.012,0.014 0.015,0.023 0.004,0.008 0.006,0.017 0.006,0.027 0,0.01 -0.002,0.019 -0.006,0.028 C 0.852,-0.315 0.847,-0.307 0.841,-0.301 0.835,-0.295 0.827,-0.29 0.819,-0.286 0.81,-0.283 0.801,-0.281 0.792,-0.281 0.783,-0.281 0.776,-0.282 0.77,-0.284 0.763,-0.286 0.758,-0.289 0.752,-0.293 0.747,-0.297 0.742,-0.301 0.737,-0.306 0.732,-0.311 0.727,-0.316 0.722,-0.322 Z m -0.123,0.205 c 0.005,0 0.009,0.002 0.012,0.005 0.004,0.004 0.005,0.008 0.005,0.013 v 0.122 H 0.581 v -0.122 c 0,-0.005 0.002,-0.009 0.005,-0.013 0.004,-0.003 0.008,-0.005 0.013,-0.005 z m -0.141,0 c 0.005,0 0.01,0.002 0.013,0.005 0.003,0.004 0.005,0.008 0.005,0.013 v 0.122 H 0.441 v -0.122 c 0,-0.005 0.002,-0.009 0.005,-0.013 0.003,-0.003 0.008,-0.005 0.012,-0.005 z m -0.14,-0.035 c 0.005,0 0.009,0.002 0.012,0.005 0.004,0.003 0.005,0.008 0.005,0.013 v 0.087 H 0.3 v -0.087 c 0,-0.005 0.002,-0.01 0.005,-0.013 0.004,-0.003 0.008,-0.005 0.013,-0.005 z"
         style="fill:#d48c00;fill-rule:nonzero"
         id="path1560" /></g></g></svg>
