<?xml version="1.0" encoding="UTF-8" standalone="no"?>
<svg
   width="16.844999"
   height="14.205"
   viewBox="0 0 16.844999 14.205"
   version="1.1"
   xml:space="preserve"
   style="clip-rule:evenodd;fill-rule:evenodd;stroke-linejoin:round;stroke-miterlimit:2"
   id="svg20568"
   sodipodi:docname="emojis.svg"
   xmlns:inkscape="http://www.inkscape.org/namespaces/inkscape"
   xmlns:sodipodi="http://sodipodi.sourceforge.net/DTD/sodipodi-0.dtd"
   xmlns="http://www.w3.org/2000/svg"
   xmlns:svg="http://www.w3.org/2000/svg"><defs
     id="defs20572" /><sodipodi:namedview
     id="namedview20570"
     pagecolor="#505050"
     bordercolor="#eeeeee"
     borderopacity="1"
     inkscape:pageshadow="0"
     inkscape:pageopacity="0"
     inkscape:pagecheckerboard="0" /><g
     transform="matrix(0.24,0,0,0.24,-496.5606,-784.9278)"
     id="g20566"><g
       transform="matrix(62.5,0,0,62.5,2061.19,3320.97)"
       id="g15660"><path
         d="m 1.143,-0.807 c 0.014,0 0.028,0.003 0.041,0.008 0.012,0.006 0.023,0.013 0.033,0.023 0.01,0.009 0.017,0.02 0.023,0.033 0.005,0.013 0.008,0.026 0.008,0.041 v 0.561 c 0,0.015 -0.003,0.029 -0.008,0.041 -0.006,0.013 -0.013,0.024 -0.023,0.034 -0.01,0.009 -0.021,0.017 -0.033,0.023 -0.013,0.005 -0.027,0.008 -0.041,0.008 H 0.976 c 0.008,0.009 0.015,0.02 0.019,0.032 C 1,0.01 1.002,0.022 1.002,0.035 V 0.14 H 0.371 V 0.035 c 0,-0.013 0.002,-0.025 0.007,-0.038 0.004,-0.012 0.011,-0.023 0.019,-0.032 H 0.23 C 0.216,-0.035 0.202,-0.038 0.189,-0.043 0.177,-0.049 0.166,-0.057 0.156,-0.066 0.146,-0.076 0.139,-0.087 0.133,-0.1 0.128,-0.112 0.125,-0.126 0.125,-0.141 v -0.561 c 0,-0.015 0.003,-0.028 0.008,-0.041 0.006,-0.013 0.013,-0.024 0.023,-0.033 0.01,-0.01 0.021,-0.017 0.033,-0.023 0.013,-0.005 0.027,-0.008 0.041,-0.008 z"
         style="fill-rule:nonzero"
         id="path15652" /><path
         d="M 0.511,0.02 H 0.476 v -0.145 h 0.035 z m 0,0 H 0.476 v -0.145 h 0.035 z m 0.386,0 H 0.862 v -0.145 h 0.035 z m 0,0 H 0.862 v -0.145 h 0.035 z"
         style="fill:#a6a6a6;fill-rule:nonzero"
         id="path15654" /><path
         d="m 1.178,-0.141 c 0,0.01 -0.004,0.018 -0.011,0.025 -0.006,0.007 -0.015,0.011 -0.024,0.011 H 0.23 C 0.221,-0.105 0.212,-0.109 0.206,-0.116 0.199,-0.123 0.195,-0.131 0.195,-0.141 v -0.561 c 0,-0.01 0.004,-0.018 0.011,-0.025 0.007,-0.007 0.015,-0.01 0.024,-0.01 h 0.913 c 0.009,0 0.017,0.003 0.024,0.01 0.007,0.007 0.011,0.015 0.011,0.025 z M 0.932,0.07 H 0.441 V 0.035 C 0.441,0.025 0.444,0.017 0.451,0.01 0.458,0.003 0.466,0 0.476,0 h 0.421 c 0.01,0 0.018,0.003 0.025,0.01 0.007,0.007 0.01,0.015 0.01,0.025 z"
         style="fill:#cccccc;fill-rule:nonzero"
         id="path15656" /><rect
         x="0.23"
         y="-0.70200002"
         width="0.912"
         height="0.52600002"
         style="fill:#1f1f1f;fill-rule:nonzero"
         id="rect15658" /></g></g></svg>
