<?xml version="1.0" encoding="UTF-8" standalone="no"?>
<svg
   width="10.53"
   height="16.844999"
   viewBox="0 0 10.53 16.844999"
   version="1.1"
   xml:space="preserve"
   style="clip-rule:evenodd;fill-rule:evenodd;stroke-linejoin:round;stroke-miterlimit:2"
   id="svg20568"
   sodipodi:docname="emojis.svg"
   xmlns:inkscape="http://www.inkscape.org/namespaces/inkscape"
   xmlns:sodipodi="http://sodipodi.sourceforge.net/DTD/sodipodi-0.dtd"
   xmlns="http://www.w3.org/2000/svg"
   xmlns:svg="http://www.w3.org/2000/svg"><defs
     id="defs20572" /><sodipodi:namedview
     id="namedview20570"
     pagecolor="#505050"
     bordercolor="#eeeeee"
     borderopacity="1"
     inkscape:pageshadow="0"
     inkscape:pageopacity="0"
     inkscape:pagecheckerboard="0" /><g
     transform="matrix(0.24,0,0,0.24,-442.6614,-783.3378)"
     id="g20566"><g
       transform="matrix(62.5,0,0,62.5,1836.61,3320.97)"
       id="g15628"><path
         d="M 0.23,0.21 C 0.216,0.21 0.202,0.208 0.189,0.202 0.177,0.197 0.166,0.189 0.156,0.179 0.146,0.17 0.139,0.159 0.133,0.146 0.128,0.133 0.125,0.12 0.125,0.105 v -0.842 c 0,-0.015 0.003,-0.028 0.009,-0.041 0.005,-0.013 0.013,-0.024 0.022,-0.033 0.01,-0.01 0.021,-0.017 0.034,-0.023 0.013,-0.006 0.026,-0.008 0.04,-0.008 h 0.072 c 0.002,-0.01 0.006,-0.02 0.011,-0.028 0.006,-0.009 0.012,-0.016 0.02,-0.023 0.007,-0.006 0.016,-0.011 0.025,-0.014 0.01,-0.004 0.02,-0.006 0.03,-0.006 h 0.175 c 0.011,0 0.02,0.002 0.03,0.006 0.01,0.003 0.018,0.008 0.026,0.014 0.008,0.007 0.014,0.014 0.019,0.023 0.006,0.008 0.009,0.018 0.011,0.028 h 0.073 c 0.014,0 0.028,0.002 0.04,0.008 0.013,0.006 0.024,0.013 0.034,0.023 0.009,0.009 0.017,0.02 0.022,0.033 0.006,0.013 0.009,0.026 0.009,0.041 V 0.105 C 0.827,0.12 0.824,0.133 0.818,0.146 0.813,0.159 0.805,0.17 0.796,0.179 0.786,0.189 0.775,0.197 0.763,0.202 0.75,0.208 0.736,0.21 0.722,0.21 Z"
         style="fill-rule:nonzero"
         id="path15618" /><path
         d="m 0.546,-0.842 c 0.01,0 0.018,0.003 0.025,0.01 0.007,0.007 0.01,0.015 0.01,0.025 v 0.035 L 0.479,-0.751 0.371,-0.772 v -0.035 c 0,-0.01 0.003,-0.018 0.01,-0.025 0.007,-0.007 0.015,-0.01 0.025,-0.01 z"
         style="fill:#e5e5e5;fill-rule:nonzero"
         id="path15620" /><path
         d="M 0.722,0.14 H 0.23 C 0.221,0.14 0.212,0.137 0.206,0.13 0.199,0.123 0.195,0.115 0.195,0.105 v -0.842 c 0,-0.01 0.004,-0.018 0.011,-0.025 0.007,-0.007 0.015,-0.01 0.024,-0.01 h 0.492 c 0.009,0 0.017,0.003 0.024,0.01 0.007,0.007 0.011,0.015 0.011,0.025 V 0.105 C 0.757,0.114 0.753,0.123 0.746,0.13 0.739,0.137 0.731,0.14 0.722,0.14 Z"
         style="fill:#cccccc;fill-rule:nonzero"
         id="path15622" /><rect
         x="0.19499999"
         y="-0.70200002"
         width="0.56199998"
         height="0.77200001"
         style="fill:#16c60c;fill-rule:nonzero"
         id="rect15624" /><rect
         x="0.26499999"
         y="-0.70200002"
         width="0.07"
         height="0.77200001"
         style="fill:#79db75;fill-rule:nonzero"
         id="rect15626" /></g></g></svg>
