<?xml version="1.0" encoding="UTF-8" standalone="no"?>
<svg
   width="15.27"
   height="16.844999"
   viewBox="0 0 15.27 16.844999"
   version="1.1"
   xml:space="preserve"
   style="clip-rule:evenodd;fill-rule:evenodd;stroke-linejoin:round;stroke-miterlimit:2"
   id="svg20568"
   sodipodi:docname="emojis.svg"
   xmlns:inkscape="http://www.inkscape.org/namespaces/inkscape"
   xmlns:sodipodi="http://sodipodi.sourceforge.net/DTD/sodipodi-0.dtd"
   xmlns="http://www.w3.org/2000/svg"
   xmlns:svg="http://www.w3.org/2000/svg"><defs
     id="defs20572" /><sodipodi:namedview
     id="namedview20570"
     pagecolor="#505050"
     bordercolor="#eeeeee"
     borderopacity="1"
     inkscape:pageshadow="0"
     inkscape:pageopacity="0"
     inkscape:pagecheckerboard="0" /><g
     transform="matrix(0.24,0,0,0.24,-456.9438,-783.3378)"
     id="g20566"><g
       transform="matrix(62.5,0,0,62.5,1896.12,3320.97)"
       id="g15640"><path
         d="m 0.967,-0.289 v 0.046 c 0.027,0.025 0.051,0.052 0.073,0.081 0.021,0.029 0.04,0.06 0.055,0.092 0.016,0.033 0.027,0.067 0.035,0.102 0.009,0.035 0.013,0.071 0.013,0.108 V 0.21 H 0.897 V 0.14 C 0.897,0.099 0.888,0.06 0.871,0.025 0.853,-0.01 0.83,-0.042 0.8,-0.07 H 0.749 C 0.74,-0.064 0.73,-0.059 0.719,-0.055 0.709,-0.052 0.698,-0.05 0.687,-0.05 0.672,-0.05 0.659,-0.052 0.646,-0.058 0.633,-0.063 0.622,-0.07 0.612,-0.081 L 0.444,-0.248 c -0.004,0.001 -0.008,0.001 -0.012,0.002 -0.004,0 -0.008,0 -0.012,0 -0.016,0 -0.032,-0.003 -0.046,-0.009 C 0.359,-0.261 0.347,-0.27 0.336,-0.281 0.325,-0.292 0.316,-0.304 0.31,-0.319 0.304,-0.333 0.301,-0.349 0.301,-0.366 c 0,-0.012 0.002,-0.024 0.005,-0.036 0.004,-0.011 0.009,-0.022 0.016,-0.032 l -0.197,-0.198 0.281,-0.281 0.197,0.198 c 0.01,-0.007 0.021,-0.013 0.033,-0.016 0.011,-0.004 0.024,-0.006 0.036,-0.006 0.016,0 0.032,0.003 0.047,0.009 0.014,0.007 0.027,0.015 0.037,0.026 0.011,0.011 0.02,0.023 0.026,0.038 0.006,0.014 0.01,0.03 0.01,0.046 0,0.005 -0.001,0.009 -0.001,0.013 -0.001,0.004 -0.001,0.008 -0.002,0.012 l 0.168,0.168 c 0.021,0.02 0.031,0.045 0.031,0.074 0,0.011 -0.002,0.022 -0.006,0.033 -0.003,0.01 -0.008,0.02 -0.015,0.029 z"
         style="fill-rule:nonzero"
         id="path15630" /><path
         d="m 0.406,-0.807 0.21,0.21 -0.035,0.035 -0.21,-0.21 z m -0.176,0.175 0.035,-0.035 0.211,0.21 -0.035,0.036 z"
         style="fill:#cccccc;fill-rule:nonzero"
         id="path15632" /><path
         d="m 0.687,-0.597 0.22,0.221 c 0.007,0.007 0.01,0.015 0.01,0.025 0,0.008 -0.002,0.015 -0.006,0.02 -0.004,0.005 -0.008,0.01 -0.014,0.015 L 0.859,-0.207 0.897,-0.21 c 0.026,0.021 0.05,0.045 0.072,0.072 0.022,0.026 0.04,0.054 0.056,0.083 0.015,0.03 0.027,0.061 0.035,0.094 0.009,0.033 0.013,0.066 0.013,0.101 H 0.967 C 0.967,0.112 0.964,0.086 0.957,0.059 0.95,0.033 0.941,0.008 0.928,-0.016 0.916,-0.039 0.901,-0.062 0.884,-0.083 0.867,-0.104 0.847,-0.123 0.827,-0.141 V -0.186 L 0.722,-0.141 C 0.716,-0.135 0.711,-0.13 0.706,-0.126 0.701,-0.122 0.695,-0.12 0.687,-0.12 0.677,-0.12 0.668,-0.124 0.662,-0.13 L 0.441,-0.351 Z"
         style="fill:#383838;fill-rule:nonzero"
         id="path15634" /><path
         d="m 0.672,-0.667 c 0.007,0 0.013,0.001 0.019,0.004 0.006,0.003 0.011,0.006 0.016,0.011 0.005,0.004 0.008,0.01 0.011,0.016 0.002,0.006 0.004,0.012 0.004,0.019 0,0.013 -0.005,0.025 -0.015,0.035 l -0.252,0.25 C 0.446,-0.321 0.435,-0.316 0.42,-0.316 0.414,-0.316 0.407,-0.317 0.401,-0.32 0.395,-0.322 0.39,-0.326 0.385,-0.331 0.381,-0.335 0.377,-0.34 0.375,-0.346 0.372,-0.352 0.371,-0.359 0.371,-0.366 c 0,-0.013 0.004,-0.025 0.014,-0.035 L 0.639,-0.65 c 0.004,-0.006 0.008,-0.01 0.014,-0.013 0.006,-0.003 0.012,-0.004 0.019,-0.004 z m 0.05,0.526 0.175,-0.175 v 0.106 l -0.07,0.069 z"
         style="fill:#2b2b2b;fill-rule:nonzero"
         id="path15636" /><path
         d="m 0.651,-0.235 c 0,-0.007 0.003,-0.013 0.008,-0.018 l 0.126,-0.126 c 0.005,-0.005 0.01,-0.007 0.017,-0.007 0.007,0 0.013,0.002 0.018,0.007 0.004,0.005 0.007,0.011 0.007,0.018 0,0.007 -0.003,0.013 -0.007,0.017 L 0.694,-0.218 C 0.689,-0.213 0.683,-0.21 0.676,-0.21 0.669,-0.21 0.664,-0.213 0.659,-0.218 0.654,-0.223 0.651,-0.229 0.651,-0.235 Z m -0.07,-0.071 c 0,-0.007 0.002,-0.012 0.007,-0.017 l 0.126,-0.126 c 0.005,-0.005 0.011,-0.008 0.018,-0.008 0.007,0 0.013,0.003 0.018,0.008 0.004,0.005 0.007,0.011 0.007,0.017 0,0.007 -0.003,0.013 -0.007,0.018 L 0.624,-0.288 C 0.619,-0.283 0.613,-0.281 0.606,-0.281 0.599,-0.281 0.593,-0.283 0.588,-0.288 0.583,-0.293 0.581,-0.299 0.581,-0.306 Z"
         style="fill:#1f1f1f;fill-rule:nonzero"
         id="path15638" /></g></g></svg>
