<?xml version="1.0" encoding="UTF-8" standalone="no"?>
<svg
   width="16.844999"
   height="16.844999"
   viewBox="0 0 16.844999 16.844999"
   version="1.1"
   xml:space="preserve"
   style="clip-rule:evenodd;fill-rule:evenodd;stroke-linejoin:round;stroke-miterlimit:2"
   id="svg20568"
   sodipodi:docname="emojis.svg"
   xmlns:inkscape="http://www.inkscape.org/namespaces/inkscape"
   xmlns:sodipodi="http://sodipodi.sourceforge.net/DTD/sodipodi-0.dtd"
   xmlns="http://www.w3.org/2000/svg"
   xmlns:svg="http://www.w3.org/2000/svg"><defs
     id="defs20572" /><sodipodi:namedview
     id="namedview20570"
     pagecolor="#505050"
     bordercolor="#eeeeee"
     borderopacity="1"
     inkscape:pageshadow="0"
     inkscape:pageopacity="0"
     inkscape:pagecheckerboard="0" /><g
     transform="matrix(0.24,0,0,0.24,-517.1574,-783.3378)"
     id="g20566"><g
       transform="matrix(62.5,0,0,62.5,2147.01,3320.97)"
       id="g15684"><path
         d="M 0.21,0.21 0.237,0.105 H 0.16 V 0.043 C 0.149,0.033 0.14,0.021 0.134,0.008 0.128,-0.006 0.125,-0.02 0.125,-0.035 v -0.351 c 0,-0.026 0.004,-0.05 0.013,-0.073 C 0.147,-0.483 0.159,-0.503 0.175,-0.522 0.19,-0.541 0.209,-0.556 0.23,-0.569 0.252,-0.581 0.275,-0.59 0.3,-0.594 v -0.143 h 0.035 v -0.176 h 0.703 v 0.176 h 0.035 v 0.143 c 0.025,0.004 0.049,0.013 0.07,0.025 0.021,0.013 0.04,0.028 0.055,0.047 0.016,0.019 0.028,0.039 0.037,0.063 0.009,0.023 0.013,0.047 0.013,0.073 v 0.351 c 0,0.015 -0.003,0.029 -0.009,0.043 C 1.233,0.021 1.224,0.033 1.213,0.043 V 0.105 H 1.136 L 1.163,0.21 Z"
         style="fill-rule:nonzero"
         id="path15662" /><path
         d="M 0.23,-0.348 0.195,-0.386 c 0,-0.02 0.004,-0.038 0.011,-0.055 0.008,-0.017 0.018,-0.032 0.03,-0.044 0.013,-0.013 0.028,-0.023 0.045,-0.03 0.017,-0.008 0.035,-0.011 0.054,-0.011 H 0.408 L 0.476,-0.58 h 0.42 l 0.072,0.054 h 0.07 c 0.019,0 0.037,0.003 0.054,0.011 0.017,0.007 0.032,0.017 0.045,0.03 0.012,0.012 0.022,0.027 0.03,0.044 0.007,0.017 0.011,0.036 0.011,0.055 l -0.035,0.038 z"
         style="fill:#e5e5e5;fill-rule:nonzero"
         id="path15664" /><path
         d="m 1.111,-0.23 v 0.114 H 0.257 V -0.23 Z M 0.23,0 0.276,-0.049 H 1.092 L 1.143,0 V 0.035 H 0.23 Z"
         style="fill:#757575;fill-rule:nonzero"
         id="path15666" /><path
         d="m 1.002,-0.526 0.036,0.035 H 0.335 l 0.036,-0.035 v -0.141 h 0.631 z m 0,0.385 H 1.086 L 1.038,0 H 0.335 L 0.287,-0.141 h 0.084 l 0.056,0.067 h 0.519 z"
         style="fill:#383838;fill-rule:nonzero"
         id="path15668" /><path
         d="M 0.371,-0.141 H 1.002 L 1.073,0.14 H 0.3 Z m 0.596,-0.456 -0.035,0.035 v 0.036 H 0.441 V -0.562 L 0.406,-0.597 v -0.245 h 0.561 z"
         style="fill:#f2f2f2;fill-rule:nonzero"
         id="path15670" /><path
         d="m 1.143,-0.421 c 0.009,0 0.017,0.003 0.024,0.01 0.007,0.007 0.011,0.015 0.011,0.025 v 0.351 c 0,0.009 -0.004,0.018 -0.011,0.025 C 1.16,-0.003 1.152,0 1.143,0 H 1.038 V -0.21 H 0.335 V 0 H 0.23 C 0.221,0 0.213,-0.003 0.206,-0.01 0.199,-0.017 0.195,-0.026 0.195,-0.035 v -0.351 c 0,-0.01 0.004,-0.018 0.011,-0.025 0.007,-0.007 0.015,-0.01 0.024,-0.01 z"
         style="fill:#cccccc;fill-rule:nonzero"
         id="path15672" /><path
         d="M 0.397,0.035 H 0.976 L 0.985,0.07 H 0.388 Z M 0.406,0 0.415,-0.035 H 0.958 L 0.967,0 Z M 0.432,-0.105 H 0.941 L 0.95,-0.07 H 0.423 Z"
         style="fill:#a6a6a6;fill-rule:nonzero"
         id="path15674" /><path
         d="m 1.038,-0.316 c 0,-0.01 0.003,-0.018 0.01,-0.025 0.007,-0.007 0.015,-0.01 0.025,-0.01 0.009,0 0.017,0.003 0.024,0.01 0.007,0.007 0.01,0.016 0.01,0.025 0,0.01 -0.003,0.018 -0.01,0.025 -0.007,0.007 -0.015,0.01 -0.024,0.01 -0.01,0 -0.018,-0.003 -0.025,-0.01 -0.007,-0.007 -0.01,-0.015 -0.01,-0.025 z"
         style="fill:#83beec;fill-rule:nonzero"
         id="path15676" /><rect
         x="0.82700002"
         y="-0.31600001"
         width="0.035"
         height="0.035"
         style="fill:#ee9889;fill-rule:nonzero"
         id="rect15678" /><rect
         x="0.93199998"
         y="-0.31600001"
         width="0.035"
         height="0.035"
         style="fill:#16c60c;fill-rule:nonzero"
         id="rect15680" /><rect
         x="0.33500001"
         y="-0.35100001"
         width="0.20999999"
         height="0.07"
         style="fill:#e4f577;fill-rule:nonzero"
         id="rect15682" /></g></g></svg>
