<?xml version="1.0" encoding="UTF-8" standalone="no"?>
<svg
   width="15.795"
   height="15.78"
   viewBox="0 0 15.795 15.78"
   version="1.1"
   xml:space="preserve"
   style="clip-rule:evenodd;fill-rule:evenodd;stroke-linejoin:round;stroke-miterlimit:2"
   id="svg20568"
   sodipodi:docname="emojis.svg"
   xmlns:inkscape="http://www.inkscape.org/namespaces/inkscape"
   xmlns:sodipodi="http://sodipodi.sourceforge.net/DTD/sodipodi-0.dtd"
   xmlns="http://www.w3.org/2000/svg"
   xmlns:svg="http://www.w3.org/2000/svg"><defs
     id="defs20572" /><sodipodi:namedview
     id="namedview20570"
     pagecolor="#505050"
     bordercolor="#eeeeee"
     borderopacity="1"
     inkscape:pageshadow="0"
     inkscape:pageopacity="0"
     inkscape:pagecheckerboard="0" /><g
     transform="matrix(0.24,0,0,0.24,-628.6374,-783.8778)"
     id="g20566"><g
       transform="matrix(62.5,0,0,62.5,2611.51,3320.97)"
       id="g15766"><path
         d="m 0.651,-0.877 c 0.049,0 0.096,0.006 0.14,0.018 0.045,0.013 0.087,0.031 0.126,0.053 0.039,0.023 0.075,0.051 0.107,0.083 0.032,0.032 0.059,0.067 0.082,0.106 0.023,0.039 0.04,0.081 0.053,0.126 0.012,0.045 0.019,0.091 0.019,0.14 0,0.048 -0.007,0.095 -0.019,0.14 -0.013,0.045 -0.03,0.086 -0.053,0.126 C 1.083,-0.046 1.056,-0.011 1.024,0.021 0.992,0.053 0.956,0.081 0.917,0.104 0.878,0.126 0.836,0.144 0.791,0.156 0.747,0.169 0.7,0.175 0.651,0.175 0.603,0.175 0.556,0.169 0.511,0.156 0.467,0.144 0.425,0.126 0.386,0.104 0.347,0.081 0.311,0.053 0.279,0.021 0.247,-0.011 0.22,-0.046 0.197,-0.085 0.174,-0.125 0.156,-0.166 0.144,-0.211 0.131,-0.256 0.125,-0.303 0.125,-0.351 c 0,-0.049 0.006,-0.095 0.019,-0.14 0.012,-0.045 0.03,-0.087 0.053,-0.126 0.023,-0.039 0.05,-0.074 0.082,-0.106 0.032,-0.032 0.068,-0.06 0.107,-0.083 0.039,-0.022 0.081,-0.04 0.125,-0.053 0.045,-0.012 0.092,-0.018 0.14,-0.018 z"
         style="fill-rule:nonzero"
         id="path15756" /><path
         d="m 0.651,-0.807 c 0.042,0 0.083,0.005 0.122,0.016 0.039,0.011 0.075,0.026 0.109,0.046 0.033,0.02 0.064,0.044 0.092,0.071 0.028,0.028 0.051,0.059 0.071,0.093 0.02,0.033 0.035,0.07 0.046,0.109 0.011,0.038 0.016,0.079 0.016,0.121 0,0.042 -0.005,0.082 -0.016,0.121 C 1.08,-0.191 1.065,-0.155 1.045,-0.121 1.025,-0.087 1.002,-0.056 0.974,-0.029 0.946,-0.001 0.915,0.023 0.882,0.043 0.848,0.062 0.812,0.078 0.773,0.089 0.734,0.1 0.693,0.105 0.651,0.105 0.609,0.105 0.569,0.1 0.53,0.089 0.491,0.078 0.455,0.062 0.421,0.043 0.387,0.023 0.357,-0.001 0.329,-0.029 0.301,-0.056 0.277,-0.087 0.258,-0.121 0.238,-0.155 0.223,-0.191 0.212,-0.23 0.201,-0.269 0.195,-0.309 0.195,-0.351 c 0,-0.042 0.006,-0.083 0.017,-0.121 0.011,-0.039 0.026,-0.076 0.046,-0.109 0.019,-0.034 0.043,-0.065 0.071,-0.093 0.028,-0.027 0.058,-0.051 0.092,-0.071 0.034,-0.02 0.07,-0.035 0.109,-0.046 0.039,-0.011 0.079,-0.016 0.121,-0.016 z"
         style="fill:#f2f2f2;fill-rule:nonzero"
         id="path15758" /><path
         d="M 0.69,-0.196 C 0.7,-0.153 0.71,-0.112 0.721,-0.07 0.732,-0.029 0.743,0.013 0.753,0.055 0.719,0.063 0.685,0.067 0.651,0.067 0.613,0.067 0.576,0.062 0.54,0.052 0.505,0.043 0.471,0.028 0.44,0.01 0.41,-0.008 0.381,-0.03 0.356,-0.055 0.331,-0.081 0.309,-0.109 0.291,-0.14 0.272,-0.171 0.258,-0.204 0.248,-0.24 0.238,-0.276 0.233,-0.313 0.233,-0.351 c 0,-0.033 0.004,-0.065 0.011,-0.096 0.008,-0.032 0.019,-0.062 0.033,-0.091 l 0.231,0.116 c -0.005,0.011 -0.009,0.022 -0.012,0.034 -0.003,0.012 -0.004,0.025 -0.004,0.037 0,0.022 0.004,0.043 0.012,0.062 0.009,0.02 0.02,0.036 0.035,0.051 0.014,0.014 0.031,0.026 0.05,0.034 0.019,0.009 0.04,0.013 0.062,0.013 0.014,0 0.027,-0.002 0.039,-0.005 z M 0.651,-0.769 c 0.039,0 0.076,0.005 0.111,0.015 0.036,0.01 0.069,0.024 0.1,0.042 0.031,0.018 0.059,0.04 0.085,0.066 0.026,0.025 0.047,0.053 0.066,0.084 0.018,0.031 0.032,0.064 0.042,0.1 0.01,0.035 0.015,0.073 0.015,0.111 0,0.032 -0.004,0.065 -0.011,0.096 -0.008,0.032 -0.019,0.062 -0.034,0.091 L 0.821,-0.086 0.735,-0.214 C 0.759,-0.23 0.778,-0.25 0.792,-0.272 0.805,-0.295 0.812,-0.321 0.812,-0.351 0.812,-0.373 0.807,-0.394 0.799,-0.413 0.79,-0.433 0.779,-0.45 0.764,-0.464 0.75,-0.478 0.733,-0.49 0.713,-0.498 0.694,-0.507 0.673,-0.511 0.651,-0.511 0.641,-0.511 0.63,-0.51 0.62,-0.508 0.609,-0.506 0.599,-0.503 0.589,-0.499 L 0.507,-0.708 0.55,-0.757 C 0.566,-0.761 0.583,-0.764 0.6,-0.766 0.617,-0.768 0.634,-0.769 0.651,-0.769 Z"
         style="fill:#cccccc;fill-rule:nonzero"
         id="path15760" /><path
         d="m 0.808,-0.273 0.217,0.109 C 1.005,-0.123 0.979,-0.087 0.947,-0.056 0.915,-0.024 0.879,0.002 0.838,0.022 L 0.729,-0.195 C 0.717,-0.189 0.704,-0.184 0.691,-0.181 0.678,-0.177 0.665,-0.176 0.651,-0.176 0.627,-0.176 0.605,-0.18 0.583,-0.189 0.562,-0.199 0.543,-0.211 0.527,-0.227 0.511,-0.243 0.499,-0.262 0.49,-0.283 0.481,-0.304 0.476,-0.327 0.476,-0.351 0.476,-0.367 0.478,-0.383 0.482,-0.398 0.487,-0.413 0.493,-0.427 0.501,-0.44 0.509,-0.453 0.518,-0.465 0.53,-0.476 0.541,-0.487 0.554,-0.497 0.568,-0.504 L 0.451,-0.718 C 0.467,-0.727 0.483,-0.734 0.499,-0.74 0.516,-0.747 0.533,-0.752 0.55,-0.757 l 0.059,0.236 c 0.014,-0.004 0.028,-0.005 0.042,-0.005 0.024,0 0.047,0.004 0.068,0.014 0.022,0.009 0.04,0.021 0.056,0.037 0.016,0.016 0.028,0.034 0.038,0.056 0.009,0.021 0.014,0.044 0.014,0.068 0,0.014 -0.002,0.027 -0.005,0.04 -0.004,0.013 -0.009,0.026 -0.014,0.038 z M 0.651,-0.21 c 0.02,0 0.038,-0.004 0.055,-0.011 0.017,-0.008 0.032,-0.018 0.045,-0.03 0.013,-0.013 0.023,-0.028 0.03,-0.045 0.007,-0.017 0.011,-0.036 0.011,-0.055 0,-0.02 -0.004,-0.038 -0.011,-0.055 C 0.774,-0.423 0.764,-0.437 0.751,-0.45 0.738,-0.463 0.723,-0.473 0.706,-0.48 0.689,-0.488 0.671,-0.491 0.651,-0.491 c -0.019,0 -0.037,0.003 -0.054,0.011 -0.017,0.007 -0.032,0.017 -0.045,0.03 -0.012,0.013 -0.022,0.027 -0.03,0.044 -0.007,0.017 -0.011,0.035 -0.011,0.055 0,0.019 0.004,0.038 0.011,0.055 0.008,0.017 0.018,0.032 0.03,0.045 0.013,0.012 0.028,0.022 0.045,0.03 0.017,0.007 0.035,0.011 0.054,0.011 z"
         style="fill:#a6a6a6;fill-rule:nonzero"
         id="path15762" /><path
         d="m 0.651,-0.421 c 0.01,0 0.019,0.001 0.028,0.005 0.008,0.004 0.016,0.009 0.022,0.015 0.006,0.007 0.011,0.014 0.015,0.023 0.004,0.008 0.006,0.017 0.006,0.027 0,0.01 -0.002,0.019 -0.006,0.027 C 0.712,-0.315 0.707,-0.308 0.701,-0.302 0.695,-0.295 0.687,-0.29 0.679,-0.286 0.67,-0.283 0.661,-0.281 0.651,-0.281 0.642,-0.281 0.632,-0.283 0.624,-0.286 0.616,-0.29 0.608,-0.295 0.602,-0.302 0.595,-0.308 0.59,-0.315 0.587,-0.324 0.583,-0.332 0.581,-0.341 0.581,-0.351 c 0,-0.01 0.002,-0.019 0.006,-0.027 0.003,-0.009 0.008,-0.016 0.015,-0.023 0.006,-0.006 0.014,-0.011 0.022,-0.015 0.008,-0.004 0.018,-0.005 0.027,-0.005 z"
         style="fill-rule:nonzero"
         id="path15764" /></g></g></svg>
