<?xml version="1.0" encoding="UTF-8" standalone="no"?>
<svg
   width="15.795"
   height="15.78"
   viewBox="0 0 15.795 15.78"
   version="1.1"
   xml:space="preserve"
   style="clip-rule:evenodd;fill-rule:evenodd;stroke-linejoin:round;stroke-miterlimit:2"
   id="svg20568"
   sodipodi:docname="emojis.svg"
   xmlns:inkscape="http://www.inkscape.org/namespaces/inkscape"
   xmlns:sodipodi="http://sodipodi.sourceforge.net/DTD/sodipodi-0.dtd"
   xmlns="http://www.w3.org/2000/svg"
   xmlns:svg="http://www.w3.org/2000/svg"><defs
     id="defs20572" /><sodipodi:namedview
     id="namedview20570"
     pagecolor="#505050"
     bordercolor="#eeeeee"
     borderopacity="1"
     inkscape:pageshadow="0"
     inkscape:pageopacity="0"
     inkscape:pagecheckerboard="0" /><g
     transform="matrix(0.24,0,0,0.24,-609.0894,-783.8778)"
     id="g20566"><g
       transform="matrix(62.5,0,0,62.5,2530.06,3320.97)"
       id="g15754"><path
         d="m 1.031,-0.877 0.147,0.146 V 0.175 H 0.125 v -1.052 z"
         style="fill-rule:nonzero"
         id="path15740" /><path
         d="m 1.002,-0.807 0.105,0.105 V 0.105 H 1.002 L 0.968,0.064 H 0.334 L 0.3,0.105 H 0.195 v -0.912 h 0.07 l 0.038,0.033 0.032,-0.033 h 0.106 l 0.039,0.052 h 0.413 l 0.039,-0.052 z"
         style="fill:#757575;fill-rule:nonzero"
         id="path15742" /><path
         d="M 0.3,-0.457 H 1.002 V 0.035 L 0.947,0.064 H 0.369 L 0.3,0.035 Z"
         style="fill:#f2f2f2;fill-rule:nonzero"
         id="path15744" /><path
         d="m 0.441,-0.526 v -0.281 h 0.491 v 0.281 z M 1.038,0.035 H 1.073 V 0.07 H 1.038 Z"
         style="fill:#cccccc;fill-rule:nonzero"
         id="path15746" /><path
         d="m 0.757,-0.562 v -0.21 h 0.105 v 0.21 z M 0.335,-0.737 h -0.07 v -0.07 h 0.07 z"
         style="fill:#383838;fill-rule:nonzero"
         id="path15748" /><rect
         x="0.30000001"
         y="0.035"
         width="0.70200002"
         height="0.07"
         style="fill:#ea005e;fill-rule:nonzero"
         id="rect15750" /><path
         d="M 0.371,-0.035 V -0.07 h 0.561 v 0.035 z m 0,-0.106 v -0.035 h 0.561 v 0.035 z m 0,-0.105 v -0.035 h 0.561 v 0.035 z m 0,-0.14 h 0.561 v 0.035 H 0.371 Z"
         style="fill:#e5e5e5;fill-rule:nonzero"
         id="path15752" /></g></g></svg>
