<?xml version="1.0" encoding="UTF-8" standalone="no"?>
<svg
   width="10.005"
   height="16.844999"
   viewBox="0 0 10.005 16.844999"
   version="1.1"
   xml:space="preserve"
   style="clip-rule:evenodd;fill-rule:evenodd;stroke-linejoin:round;stroke-miterlimit:2"
   id="svg20568"
   sodipodi:docname="emojis.svg"
   xmlns:inkscape="http://www.inkscape.org/namespaces/inkscape"
   xmlns:sodipodi="http://sodipodi.sourceforge.net/DTD/sodipodi-0.dtd"
   xmlns="http://www.w3.org/2000/svg"
   xmlns:svg="http://www.w3.org/2000/svg"><defs
     id="defs20572" /><sodipodi:namedview
     id="namedview20570"
     pagecolor="#505050"
     bordercolor="#eeeeee"
     borderopacity="1"
     inkscape:pageshadow="0"
     inkscape:pageopacity="0"
     inkscape:pagecheckerboard="0" /><g
     transform="matrix(0.24,0,0,0.24,-426.9294,-127.68924)"
     id="g20566"><g
       transform="matrix(62.5,0,0,62.5,1771.06,589.101)"
       id="g1570"><path
         d="m 0.792,-0.79 v 1 H 0.265 V 0.054 C 0.265,0.043 0.262,0.034 0.255,0.024 0.248,0.015 0.239,0.006 0.229,-0.004 0.219,-0.013 0.207,-0.023 0.195,-0.034 0.183,-0.045 0.172,-0.057 0.161,-0.07 0.151,-0.084 0.142,-0.099 0.135,-0.116 0.128,-0.133 0.125,-0.153 0.125,-0.176 v -0.21 c 0,-0.019 0.004,-0.038 0.011,-0.055 0.007,-0.017 0.017,-0.032 0.03,-0.044 0.013,-0.013 0.028,-0.023 0.045,-0.03 0.017,-0.008 0.035,-0.011 0.054,-0.011 H 0.284 C 0.297,-0.548 0.314,-0.565 0.335,-0.578 0.357,-0.59 0.38,-0.597 0.406,-0.597 h 0.14 V -0.79 c 0,-0.016 0.003,-0.032 0.01,-0.047 0.006,-0.015 0.015,-0.028 0.026,-0.039 0.011,-0.012 0.024,-0.02 0.039,-0.027 0.015,-0.006 0.031,-0.01 0.048,-0.01 0.017,0 0.033,0.004 0.048,0.01 0.015,0.007 0.028,0.015 0.039,0.027 0.011,0.011 0.02,0.024 0.026,0.039 0.007,0.015 0.01,0.031 0.01,0.047 z"
         style="fill-rule:nonzero"
         id="path1564" /><path
         d="m 0.669,-0.842 c 0.007,0 0.014,0.001 0.02,0.004 0.007,0.003 0.013,0.006 0.017,0.011 0.005,0.005 0.009,0.01 0.012,0.017 0.002,0.006 0.004,0.013 0.004,0.02 v 0.499 c 0,0.003 -0.001,0.005 -0.002,0.008 0,0.002 -0.001,0.005 -0.001,0.008 0,0.013 0.001,0.025 0.001,0.038 0.001,0.013 0.002,0.026 0.002,0.038 V 0.14 H 0.335 V 0.054 C 0.335,0.035 0.332,0.019 0.325,0.005 0.318,-0.009 0.309,-0.022 0.299,-0.033 0.289,-0.044 0.278,-0.055 0.265,-0.065 0.253,-0.075 0.242,-0.085 0.232,-0.096 0.221,-0.106 0.213,-0.118 0.206,-0.131 0.199,-0.144 0.195,-0.159 0.195,-0.176 v -0.21 c 0,-0.01 0.002,-0.019 0.006,-0.028 0.003,-0.008 0.008,-0.015 0.015,-0.022 0.006,-0.006 0.013,-0.011 0.022,-0.015 0.008,-0.004 0.017,-0.006 0.027,-0.006 H 0.3 l 0.018,0.007 0.017,-0.007 c 0,-0.009 0.002,-0.018 0.006,-0.027 C 0.345,-0.492 0.35,-0.5 0.356,-0.506 0.363,-0.512 0.37,-0.517 0.378,-0.521 0.387,-0.525 0.396,-0.526 0.406,-0.526 h 0.035 c 0.002,0 0.005,0 0.009,0.001 0.003,0.001 0.006,0.002 0.008,0.003 0.003,-0.001 0.006,-0.002 0.009,-0.003 0.004,-0.001 0.007,-0.001 0.009,-0.001 H 0.582 L 0.599,-0.52 0.616,-0.526 V -0.79 c 0,-0.007 0.002,-0.014 0.004,-0.02 0.003,-0.007 0.007,-0.012 0.012,-0.017 0.004,-0.005 0.01,-0.008 0.016,-0.011 0.007,-0.003 0.013,-0.004 0.021,-0.004 z"
         style="fill:#ffc83d;fill-rule:nonzero"
         id="path1566" /><path
         d="m 0.616,-0.35 c 0.021,0.003 0.041,0.009 0.059,0.019 0.018,0.01 0.034,0.023 0.047,0.04 v 0.093 C 0.721,-0.215 0.717,-0.23 0.71,-0.244 0.704,-0.258 0.695,-0.271 0.684,-0.281 0.673,-0.292 0.66,-0.3 0.645,-0.307 0.63,-0.313 0.615,-0.316 0.599,-0.316 H 0.318 c -0.007,0 -0.014,0.001 -0.02,0.004 -0.007,0.003 -0.012,0.007 -0.017,0.012 -0.005,0.005 -0.009,0.01 -0.012,0.017 -0.002,0.006 -0.004,0.013 -0.004,0.02 0,0.007 0.002,0.014 0.004,0.02 0.003,0.006 0.007,0.012 0.012,0.017 0.005,0.005 0.01,0.009 0.017,0.011 0.006,0.003 0.013,0.005 0.02,0.005 h 0.105 c 0.005,0 0.009,0.001 0.013,0.005 0.003,0.003 0.005,0.007 0.005,0.012 v 0.14 c 0,0.005 -0.002,0.009 -0.005,0.013 -0.004,0.003 -0.008,0.005 -0.013,0.005 -0.005,0 -0.009,-0.002 -0.012,-0.005 C 0.407,-0.044 0.406,-0.048 0.406,-0.053 V -0.176 H 0.318 C 0.306,-0.176 0.295,-0.178 0.284,-0.183 0.273,-0.187 0.264,-0.193 0.256,-0.201 0.248,-0.209 0.242,-0.219 0.237,-0.229 0.233,-0.24 0.23,-0.251 0.23,-0.263 c 0,-0.01 0.002,-0.02 0.006,-0.03 C 0.239,-0.302 0.244,-0.311 0.25,-0.319 0.256,-0.326 0.264,-0.333 0.272,-0.338 0.281,-0.344 0.29,-0.347 0.3,-0.349 v -0.108 h 0.035 v 0.106 h 0.106 v -0.175 h 0.035 v 0.175 h 0.105 v -0.175 h 0.035 z"
         style="fill:#d48c00;fill-rule:nonzero"
         id="path1568" /></g></g></svg>
