<?xml version="1.0" encoding="UTF-8" standalone="no"?>
<svg
   width="16.844999"
   height="16.844999"
   viewBox="0 0 16.844999 16.844999"
   version="1.1"
   xml:space="preserve"
   style="clip-rule:evenodd;fill-rule:evenodd;stroke-linejoin:round;stroke-miterlimit:2"
   id="svg20568"
   sodipodi:docname="emojis.svg"
   xmlns:inkscape="http://www.inkscape.org/namespaces/inkscape"
   xmlns:sodipodi="http://sodipodi.sourceforge.net/DTD/sodipodi-0.dtd"
   xmlns="http://www.w3.org/2000/svg"
   xmlns:svg="http://www.w3.org/2000/svg"><defs
     id="defs20572" /><sodipodi:namedview
     id="namedview20570"
     pagecolor="#505050"
     bordercolor="#eeeeee"
     borderopacity="1"
     inkscape:pageshadow="0"
     inkscape:pageopacity="0"
     inkscape:pagecheckerboard="0" /><g
     transform="matrix(0.24,0,0,0.24,-688.3302,-783.3378)"
     id="g20566"><g
       transform="matrix(62.5,0,0,62.5,2860.23,3320.97)"
       id="g15818"><path
         d="m 1.143,-0.632 c 0,0.025 -0.004,0.049 -0.01,0.073 -0.007,0.024 -0.017,0.046 -0.029,0.068 H 1.248 V 0.14 H 1.126 L 1.035,0.095 C 1.032,0.111 1.027,0.127 1.018,0.141 1.01,0.155 0.999,0.167 0.987,0.177 0.974,0.188 0.961,0.196 0.945,0.202 0.93,0.208 0.914,0.21 0.897,0.21 H 0.406 C 0.387,0.21 0.368,0.207 0.352,0.199 0.335,0.192 0.32,0.182 0.307,0.169 0.294,0.156 0.284,0.141 0.276,0.125 0.269,0.108 0.265,0.09 0.265,0.07 V -0.105 H 0.125 V -0.457 H 0.221 C 0.201,-0.481 0.186,-0.509 0.176,-0.539 0.165,-0.569 0.16,-0.6 0.16,-0.632 c 0,-0.038 0.008,-0.075 0.022,-0.109 0.015,-0.034 0.035,-0.064 0.061,-0.089 0.025,-0.025 0.055,-0.046 0.089,-0.06 0.034,-0.015 0.07,-0.023 0.109,-0.023 0.041,0 0.079,0.009 0.116,0.025 0.036,0.016 0.068,0.04 0.094,0.071 0.028,-0.031 0.06,-0.055 0.095,-0.071 0.036,-0.016 0.074,-0.025 0.116,-0.025 0.038,0 0.075,0.008 0.109,0.023 0.034,0.014 0.064,0.035 0.089,0.06 0.025,0.025 0.046,0.055 0.06,0.089 0.015,0.034 0.023,0.071 0.023,0.109 z"
         style="fill-rule:nonzero"
         id="path15806" /><path
         d="m 1.002,-0.351 0.141,-0.07 c 0,0.001 10e-4,0.005 0.003,0.011 l 0.013,0.037 c 0.002,0.006 0.003,0.008 0.003,0.008 V 0.022 L 1.143,0.07 1.002,0 0.983,-0.041 V -0.042 C 0.979,-0.033 0.976,-0.024 0.972,-0.015 0.968,-0.006 0.966,0.003 0.966,0.012 L 0.967,0.07 C 0.967,0.08 0.965,0.089 0.962,0.098 0.958,0.106 0.953,0.114 0.947,0.12 0.94,0.126 0.933,0.131 0.924,0.135 0.916,0.138 0.907,0.14 0.897,0.14 L 0.856,0.106 H 0.448 L 0.406,0.14 C 0.396,0.14 0.387,0.138 0.378,0.135 0.37,0.131 0.363,0.126 0.356,0.12 0.35,0.114 0.345,0.106 0.341,0.098 0.337,0.089 0.335,0.08 0.335,0.07 v -0.421 c 0,-0.01 0.002,-0.019 0.006,-0.027 C 0.345,-0.387 0.35,-0.394 0.356,-0.401 0.363,-0.407 0.37,-0.412 0.378,-0.416 0.387,-0.42 0.396,-0.421 0.406,-0.421 H 0.441 C 0.412,-0.421 0.385,-0.427 0.359,-0.438 0.334,-0.449 0.311,-0.464 0.292,-0.483 0.273,-0.502 0.258,-0.524 0.247,-0.55 0.236,-0.576 0.23,-0.603 0.23,-0.632 c 0,-0.029 0.006,-0.056 0.017,-0.082 0.011,-0.025 0.026,-0.047 0.045,-0.067 0.019,-0.019 0.042,-0.034 0.067,-0.045 0.026,-0.011 0.053,-0.016 0.082,-0.016 0.029,0 0.056,0.005 0.082,0.016 0.025,0.011 0.048,0.026 0.067,0.045 0.019,0.02 0.034,0.042 0.045,0.067 0.011,0.026 0.016,0.053 0.016,0.082 0,-0.029 0.006,-0.056 0.017,-0.082 0.011,-0.025 0.026,-0.047 0.045,-0.067 0.019,-0.019 0.041,-0.034 0.067,-0.045 0.026,-0.011 0.053,-0.016 0.082,-0.016 0.029,0 0.056,0.005 0.082,0.016 0.025,0.011 0.048,0.026 0.067,0.045 0.019,0.02 0.034,0.042 0.045,0.067 0.011,0.026 0.017,0.053 0.017,0.082 0,0.029 -0.006,0.056 -0.017,0.082 -0.011,0.026 -0.026,0.048 -0.045,0.067 -0.019,0.019 -0.042,0.034 -0.067,0.045 -0.026,0.011 -0.053,0.017 -0.082,0.017 h 0.035 c 0.017,0 0.031,0.005 0.043,0.015 0.012,0.01 0.021,0.023 0.025,0.039 0.001,0.002 0.001,0.005 0.001,0.008 0,0.003 0.001,0.005 0.001,0.008 0.002,0.008 0.004,0.017 0.007,0.026 0.003,0.008 0.006,0.017 0.009,0.025 V -0.302 Z M 0.195,-0.386 H 0.23 L 0.265,-0.351 0.29,-0.281 0.265,-0.21 0.23,-0.176 H 0.195 Z"
         style="fill:#383838;fill-rule:nonzero"
         id="path15808" /><path
         d="m 0.862,-0.316 c 0.01,0 0.018,0.004 0.025,0.01 0.007,0.007 0.01,0.015 0.01,0.025 0,0.01 -0.004,0.018 -0.011,0.025 -0.007,0.007 -0.015,0.01 -0.024,0.01 -0.01,0 -0.018,-0.003 -0.025,-0.01 -0.007,-0.007 -0.01,-0.015 -0.01,-0.025 0,-0.009 0.003,-0.017 0.01,-0.024 0.007,-0.007 0.015,-0.011 0.025,-0.011 z"
         style="fill:#f03a17;fill-rule:nonzero"
         id="path15810" /><path
         d="M 0.967,-0.351 H 1.002 V 0 H 0.967 Z M 0.265,-0.21 V -0.351 H 0.3 L 0.334,-0.283 0.3,-0.21 Z"
         style="fill:#cccccc;fill-rule:nonzero"
         id="path15812" /><path
         d="m 0.862,-0.141 c 0.01,0 0.018,0.004 0.025,0.011 0.007,0.006 0.01,0.015 0.01,0.025 V 0.14 H 0.406 v -0.245 c 0,-0.01 0.003,-0.019 0.01,-0.025 0.007,-0.007 0.015,-0.011 0.025,-0.011 z m -0.105,-0.14 c 0,0.01 -0.002,0.019 -0.006,0.028 C 0.747,-0.245 0.742,-0.238 0.736,-0.231 0.73,-0.225 0.722,-0.22 0.714,-0.216 0.705,-0.212 0.696,-0.21 0.687,-0.21 H 0.3 v -0.141 h 0.387 c 0.009,0 0.018,0.002 0.027,0.006 0.008,0.003 0.016,0.008 0.022,0.015 0.006,0.006 0.011,0.013 0.015,0.022 0.004,0.008 0.006,0.017 0.006,0.027 z m 0.386,-0.14 H 1.178 V 0.07 H 1.143 Z M 0.441,-0.597 c -0.01,0 -0.018,-0.003 -0.025,-0.01 -0.007,-0.007 -0.01,-0.015 -0.01,-0.025 0,-0.01 0.003,-0.018 0.01,-0.025 0.007,-0.007 0.015,-0.01 0.025,-0.01 0.01,0 0.018,0.003 0.025,0.01 0.007,0.007 0.01,0.015 0.01,0.025 0,0.01 -0.003,0.018 -0.01,0.025 -0.007,0.007 -0.015,0.01 -0.025,0.01 z m 0.421,-0.07 c 0.01,0 0.018,0.003 0.025,0.01 0.007,0.007 0.01,0.015 0.01,0.025 0,0.01 -0.003,0.018 -0.01,0.025 -0.007,0.007 -0.015,0.01 -0.025,0.01 -0.01,0 -0.018,-0.003 -0.025,-0.01 -0.007,-0.007 -0.01,-0.015 -0.01,-0.025 0,-0.009 0.003,-0.017 0.01,-0.024 0.007,-0.007 0.015,-0.011 0.025,-0.011 z"
         style="fill:#757575;fill-rule:nonzero"
         id="path15814" /><path
         d="m 0.827,-0.457 c 0.009,0 0.017,0.004 0.024,0.011 0.007,0.007 0.011,0.015 0.011,0.025 0,0.009 -0.004,0.018 -0.01,0.025 -0.007,0.006 -0.016,0.01 -0.025,0.01 H 0.441 c -0.01,0 -0.018,-0.004 -0.025,-0.01 -0.007,-0.007 -0.01,-0.016 -0.01,-0.025 0,-0.01 0.003,-0.018 0.01,-0.025 0.007,-0.007 0.015,-0.011 0.025,-0.011 z M 0.476,0 V -0.07 H 0.827 V 0 Z"
         style="fill:#1f1f1f;fill-rule:nonzero"
         id="path15816" /></g></g></svg>
