<?xml version="1.0" encoding="UTF-8" standalone="no"?>
<svg
   width="16.845001"
   height="12.63"
   viewBox="0 0 16.845001 12.63"
   version="1.1"
   xml:space="preserve"
   style="clip-rule:evenodd;fill-rule:evenodd;stroke-linejoin:round;stroke-miterlimit:2"
   id="svg20568"
   sodipodi:docname="emojis.svg"
   xmlns:inkscape="http://www.inkscape.org/namespaces/inkscape"
   xmlns:sodipodi="http://sodipodi.sourceforge.net/DTD/sodipodi-0.dtd"
   xmlns="http://www.w3.org/2000/svg"
   xmlns:svg="http://www.w3.org/2000/svg"><defs
     id="defs20572" /><sodipodi:namedview
     id="namedview20570"
     pagecolor="#505050"
     bordercolor="#eeeeee"
     borderopacity="1"
     inkscape:pageshadow="0"
     inkscape:pageopacity="0"
     inkscape:pagecheckerboard="0" /><g
     transform="matrix(0.24,0,0,0.24,-708.927,-785.4528)"
     id="g20566"><g
       transform="matrix(62.5,0,0,62.5,2946.05,3320.97)"
       id="g15828"><rect
         x="0.125"
         y="-0.77200001"
         width="1.123"
         height="0.84200001"
         style="fill-rule:nonzero"
         id="rect15820" /><path
         d="M 1.178,0 H 0.195 V -0.246 L 0.236,-0.351 0.195,-0.457 v -0.245 h 0.983 v 0.245 l -0.05,0.106 0.05,0.105 z"
         style="fill:#383838;fill-rule:nonzero"
         id="path15822" /><path
         d="m 0.581,-0.526 c 0.01,0 0.019,0.001 0.027,0.005 0.009,0.004 0.016,0.009 0.023,0.015 0.006,0.006 0.011,0.014 0.015,0.022 0.003,0.009 0.005,0.018 0.005,0.027 v 0.211 c 0,0.01 -0.002,0.019 -0.005,0.028 C 0.642,-0.21 0.637,-0.202 0.631,-0.196 0.624,-0.19 0.617,-0.185 0.608,-0.181 0.6,-0.178 0.591,-0.176 0.581,-0.176 H 0.265 c -0.01,0 -0.019,-0.002 -0.027,-0.005 C 0.229,-0.185 0.222,-0.19 0.216,-0.196 0.209,-0.202 0.204,-0.21 0.201,-0.218 0.197,-0.227 0.195,-0.236 0.195,-0.246 v -0.211 c 0,-0.009 0.002,-0.018 0.006,-0.027 0.003,-0.008 0.008,-0.016 0.015,-0.022 0.006,-0.006 0.013,-0.011 0.022,-0.015 0.008,-0.004 0.017,-0.005 0.027,-0.005 z m 0.526,0 c 0.01,0 0.019,0.001 0.028,0.005 0.008,0.004 0.016,0.009 0.022,0.015 0.006,0.006 0.011,0.014 0.015,0.022 0.004,0.009 0.006,0.018 0.006,0.027 v 0.211 c 0,0.01 -0.002,0.019 -0.006,0.028 C 1.168,-0.21 1.163,-0.202 1.157,-0.196 1.151,-0.19 1.143,-0.185 1.135,-0.181 1.126,-0.178 1.117,-0.176 1.107,-0.176 H 0.792 c -0.01,0 -0.019,-0.002 -0.027,-0.005 C 0.756,-0.185 0.749,-0.19 0.742,-0.196 0.736,-0.202 0.731,-0.21 0.727,-0.218 0.724,-0.227 0.722,-0.236 0.722,-0.246 v -0.211 c 0,-0.009 0.002,-0.018 0.005,-0.027 0.004,-0.008 0.009,-0.016 0.015,-0.022 0.007,-0.006 0.014,-0.011 0.023,-0.015 0.008,-0.004 0.017,-0.005 0.027,-0.005 z"
         style="fill:#757575;fill-rule:nonzero"
         id="path15824" /><path
         d="m 0.371,-0.035 v -0.07 h 0.07 v 0.07 z m 0.28,0 v -0.07 h 0.071 v 0.07 z m 0,-0.562 v -0.07 h 0.071 v 0.07 z m 0.281,0.562 v -0.07 h 0.07 v 0.07 z M 0.371,-0.597 v -0.07 h 0.07 v 0.07 z m 0.561,0 v -0.07 h 0.07 v 0.07 z m 0.141,0.562 v -0.07 h 0.07 v 0.07 z M 0.23,-0.597 v -0.07 H 0.3 v 0.07 z m 0,0.562 v -0.07 H 0.3 v 0.07 z m 0.281,0 v -0.07 h 0.07 v 0.07 z m 0,-0.562 v -0.07 h 0.07 v 0.07 z m 0.281,0 v -0.07 h 0.07 v 0.07 z m 0,0.562 v -0.07 h 0.07 v 0.07 z m 0.281,-0.632 h 0.07 v 0.07 h -0.07 z"
         style="fill:#ffffff;fill-rule:nonzero"
         id="path15826" /></g></g></svg>
