<?xml version="1.0" encoding="UTF-8" standalone="no"?>
<svg
   width="16.844999"
   height="15.255"
   viewBox="0 0 16.844999 15.255"
   version="1.1"
   xml:space="preserve"
   style="clip-rule:evenodd;fill-rule:evenodd;stroke-linejoin:round;stroke-miterlimit:2"
   id="svg20568"
   sodipodi:docname="emojis.svg"
   xmlns:inkscape="http://www.inkscape.org/namespaces/inkscape"
   xmlns:sodipodi="http://sodipodi.sourceforge.net/DTD/sodipodi-0.dtd"
   xmlns="http://www.w3.org/2000/svg"
   xmlns:svg="http://www.w3.org/2000/svg"><defs
     id="defs20572" /><sodipodi:namedview
     id="namedview20570"
     pagecolor="#505050"
     bordercolor="#eeeeee"
     borderopacity="1"
     inkscape:pageshadow="0"
     inkscape:pageopacity="0"
     inkscape:pagecheckerboard="0" /><g
     transform="matrix(0.24,0,0,0.24,-729.5214,-783.8778)"
     id="g20566"><g
       transform="matrix(62.5,0,0,62.5,3031.86,3320.97)"
       id="g15842"><path
         d="m 0.932,-0.877 c 0.029,0 0.057,0.003 0.084,0.011 0.027,0.007 0.052,0.018 0.076,0.032 0.023,0.014 0.044,0.03 0.063,0.049 0.019,0.02 0.036,0.041 0.05,0.064 0.014,0.023 0.024,0.048 0.032,0.075 0.007,0.028 0.011,0.056 0.011,0.084 0,0.046 -0.009,0.089 -0.028,0.129 -0.018,0.041 -0.044,0.076 -0.077,0.107 V 0 H 1.021 L 1.002,-0.009 v 0.003 C 1.002,0.01 1,0.026 0.995,0.04 0.99,0.054 0.981,0.067 0.967,0.078 V 0.14 H 0.371 V 0.078 C 0.359,0.068 0.351,0.057 0.344,0.043 0.338,0.029 0.335,0.015 0.335,0 V -0.29 C 0.305,-0.297 0.277,-0.31 0.251,-0.327 0.225,-0.345 0.203,-0.366 0.184,-0.39 0.166,-0.414 0.151,-0.441 0.141,-0.47 0.13,-0.5 0.125,-0.53 0.125,-0.562 c 0,-0.038 0.007,-0.074 0.022,-0.108 0.015,-0.035 0.035,-0.064 0.061,-0.09 0.025,-0.025 0.055,-0.045 0.089,-0.06 0.034,-0.015 0.07,-0.022 0.109,-0.022 0.025,0 0.049,0.003 0.073,0.009 0.024,0.007 0.046,0.016 0.067,0.029 0.021,0.012 0.04,0.026 0.058,0.044 0.017,0.017 0.032,0.037 0.045,0.058 0.013,-0.026 0.03,-0.051 0.05,-0.072 0.02,-0.022 0.042,-0.041 0.067,-0.056 0.024,-0.015 0.05,-0.027 0.079,-0.035 0.028,-0.008 0.057,-0.012 0.087,-0.012 z"
         style="fill-rule:nonzero"
         id="path15830" /><path
         d="m 0.932,-0.807 c 0.034,0 0.066,0.006 0.096,0.019 0.029,0.013 0.055,0.031 0.078,0.053 0.022,0.022 0.04,0.048 0.052,0.078 0.013,0.03 0.02,0.062 0.02,0.095 0,0.034 -0.007,0.066 -0.02,0.096 -0.012,0.03 -0.03,0.056 -0.052,0.078 -0.023,0.022 -0.049,0.04 -0.078,0.053 -0.03,0.013 -0.062,0.019 -0.096,0.019 -0.034,0 -0.066,-0.006 -0.096,-0.019 C 0.806,-0.348 0.78,-0.366 0.758,-0.388 0.736,-0.41 0.719,-0.436 0.706,-0.466 0.693,-0.496 0.687,-0.528 0.687,-0.562 c 0,-0.033 0.006,-0.065 0.019,-0.095 0.013,-0.03 0.03,-0.056 0.053,-0.078 0.022,-0.022 0.048,-0.04 0.078,-0.053 0.029,-0.013 0.061,-0.019 0.095,-0.019 z m -0.526,0.035 c 0.029,0 0.056,0.006 0.082,0.017 0.025,0.011 0.047,0.026 0.066,0.045 0.019,0.019 0.035,0.041 0.046,0.067 0.011,0.025 0.016,0.053 0.016,0.081 0,0.029 -0.005,0.057 -0.016,0.082 -0.011,0.026 -0.027,0.048 -0.046,0.067 -0.019,0.019 -0.041,0.034 -0.066,0.045 -0.026,0.011 -0.053,0.017 -0.082,0.017 -0.029,0 -0.056,-0.006 -0.082,-0.017 C 0.298,-0.379 0.276,-0.394 0.257,-0.413 0.238,-0.432 0.223,-0.454 0.212,-0.48 0.201,-0.505 0.195,-0.533 0.195,-0.562 0.195,-0.59 0.201,-0.618 0.212,-0.643 0.223,-0.669 0.238,-0.691 0.257,-0.71 0.276,-0.729 0.298,-0.744 0.324,-0.755 0.35,-0.766 0.377,-0.772 0.406,-0.772 Z m 0.561,0.418 C 0.995,-0.359 1.02,-0.368 1.043,-0.382 1.066,-0.397 1.085,-0.415 1.102,-0.437 L 0.971,-0.503 0.967,-0.501 Z M 0.762,-0.437 c 0.017,0.022 0.037,0.04 0.06,0.055 0.022,0.014 0.048,0.023 0.075,0.028 V -0.501 L 0.894,-0.503 Z m 0.34,-0.249 C 1.085,-0.708 1.066,-0.726 1.042,-0.74 1.019,-0.755 0.994,-0.764 0.967,-0.769 v 0.146 L 0.971,-0.62 Z M 0.897,-0.769 C 0.87,-0.764 0.845,-0.755 0.822,-0.74 0.799,-0.726 0.779,-0.708 0.762,-0.686 l 0.132,0.066 0.003,-0.003 z m -0.175,0.207 c 0,0.022 0.003,0.042 0.009,0.062 L 0.854,-0.562 0.731,-0.623 c -0.006,0.019 -0.009,0.04 -0.009,0.061 z m 0.421,0 c 0,-0.02 -0.003,-0.041 -0.009,-0.061 L 1.011,-0.562 1.134,-0.5 C 1.14,-0.52 1.143,-0.54 1.143,-0.562 Z M 0.578,-0.597 C 0.573,-0.617 0.566,-0.636 0.555,-0.654 0.544,-0.672 0.531,-0.687 0.514,-0.7 l -0.05,0.1 0.002,0.003 z m -0.064,0.174 c 0.017,-0.013 0.03,-0.028 0.041,-0.046 0.011,-0.018 0.018,-0.037 0.023,-0.057 H 0.466 l -0.002,0.003 z m -0.28,-0.103 c 0.004,0.02 0.012,0.039 0.022,0.057 0.011,0.018 0.025,0.033 0.041,0.046 l 0.05,-0.1 -0.002,-0.003 z M 0.297,-0.7 c -0.016,0.013 -0.03,0.028 -0.041,0.046 -0.01,0.018 -0.018,0.037 -0.022,0.057 H 0.345 L 0.347,-0.6 Z M 0.451,-0.731 C 0.444,-0.733 0.436,-0.734 0.428,-0.736 0.421,-0.737 0.413,-0.737 0.406,-0.737 c -0.008,0 -0.015,0 -0.023,0.001 -0.008,0.002 -0.015,0.003 -0.023,0.005 L 0.406,-0.64 Z M 0.36,-0.392 c 0.015,0.004 0.03,0.006 0.046,0.006 0.015,0 0.031,-0.002 0.045,-0.006 L 0.406,-0.483 Z"
         style="fill:#cccccc;fill-rule:nonzero"
         id="path15832" /><path
         d="m 0.919,-0.413 c 0.009,0.007 0.013,0.016 0.013,0.027 v 0.14 l 0.02,0.022 v 0.096 l -0.02,0.023 V 0 c 0,0.009 -0.003,0.018 -0.01,0.025 -0.007,0.007 -0.016,0.01 -0.025,0.01 V 0.07 H 0.441 V 0.035 C 0.431,0.035 0.423,0.032 0.416,0.025 0.409,0.018 0.406,0.009 0.406,0 v -0.386 c 0,-0.011 0.004,-0.02 0.012,-0.027 l 0.017,-0.036 0.055,0.028 h 0.358 c 0,0 0.004,-0.001 0.01,-0.004 L 0.9,-0.438 c 0.007,-0.003 0.011,-0.004 0.013,-0.005 z"
         style="fill:#2b2b2b;fill-rule:nonzero"
         id="path15834" /><path
         d="m 0.862,-0.351 c 0.01,0 0.018,0.003 0.025,0.01 0.007,0.007 0.01,0.015 0.01,0.025 V 0.035 H 0.441 v -0.351 c 0,-0.01 0.003,-0.018 0.01,-0.025 0.007,-0.007 0.015,-0.01 0.025,-0.01 z m 0.176,0.07 0.019,0.037 v 0.139 L 1.038,-0.07 0.967,-0.105 0.948,-0.131 v -0.088 l 0.019,-0.027 z"
         style="fill:#383838;fill-rule:nonzero"
         id="path15836" /><path
         d="m 0.844,-0.281 c 0.005,0 0.009,0.002 0.013,0.005 0.003,0.004 0.005,0.008 0.005,0.013 0,0.005 -0.002,0.009 -0.005,0.012 -0.004,0.004 -0.008,0.005 -0.013,0.005 h -0.35 c -0.005,0 -0.009,-0.001 -0.013,-0.005 -0.003,-0.003 -0.005,-0.007 -0.005,-0.012 0,-0.005 0.002,-0.009 0.005,-0.013 0.004,-0.003 0.008,-0.005 0.013,-0.005 z m 0,0.105 c 0.005,0 0.009,0.002 0.012,0.006 0.004,0.003 0.006,0.007 0.006,0.012 0,0.005 -0.002,0.009 -0.005,0.012 -0.004,0.004 -0.008,0.005 -0.013,0.005 h -0.35 c -0.005,0 -0.009,-0.001 -0.013,-0.005 -0.003,-0.003 -0.005,-0.007 -0.005,-0.012 0,-0.005 0.002,-0.009 0.005,-0.012 0.004,-0.004 0.008,-0.006 0.013,-0.006 z m 0.123,-0.382 v 0.003 c 0,0 -0.001,0.003 -0.004,0.01 C 0.961,-0.539 0.958,-0.531 0.955,-0.521 0.952,-0.511 0.948,-0.5 0.944,-0.489 0.94,-0.477 0.937,-0.466 0.933,-0.455 0.93,-0.445 0.927,-0.436 0.924,-0.428 0.922,-0.42 0.92,-0.415 0.919,-0.413 0.913,-0.419 0.905,-0.421 0.897,-0.421 H 0.848 C 0.857,-0.447 0.865,-0.474 0.873,-0.5 0.882,-0.526 0.891,-0.552 0.901,-0.577 0.904,-0.584 0.908,-0.589 0.914,-0.592 0.92,-0.595 0.926,-0.597 0.933,-0.597 c 0.001,0 0.003,0 0.004,0.001 10e-4,0 0.003,0 0.004,0 0.005,0.001 0.009,0.003 0.012,0.005 0.003,0.003 0.006,0.006 0.008,0.009 0.002,0.004 0.004,0.008 0.005,0.012 0.001,0.004 0.001,0.008 0.001,0.012 z M 0.49,-0.421 H 0.441 c -0.009,0 -0.016,0.002 -0.023,0.008 C 0.41,-0.437 0.402,-0.46 0.394,-0.484 0.387,-0.508 0.379,-0.532 0.371,-0.555 c 0,-0.001 0,-0.003 0,-0.006 0,-0.008 0.002,-0.015 0.007,-0.022 0.004,-0.007 0.011,-0.011 0.018,-0.012 0.003,-0.001 0.007,-0.002 0.01,-0.002 0.007,0 0.013,0.002 0.019,0.006 0.006,0.004 0.011,0.01 0.013,0.016 0.004,0.008 0.007,0.016 0.009,0.024 0.003,0.008 0.005,0.016 0.008,0.024 0.005,0.018 0.011,0.035 0.017,0.053 0.006,0.017 0.012,0.035 0.018,0.053 z m 0.354,0.351 c 0.005,0 0.009,0.001 0.013,0.005 0.003,0.003 0.005,0.007 0.005,0.012 0,0.005 -0.002,0.009 -0.005,0.013 -0.004,0.003 -0.008,0.005 -0.013,0.005 H 0.563 c -0.004,0 -0.008,-0.002 -0.012,-0.006 -0.003,-0.003 -0.005,-0.007 -0.005,-0.012 0,-0.004 0.002,-0.008 0.005,-0.012 C 0.555,-0.069 0.559,-0.07 0.563,-0.07 Z M 1.038,-0.281 H 1.073 V -0.07 H 1.038 Z m -0.106,0.176 v -0.141 h 0.035 v 0.141 z"
         style="fill:#757575;fill-rule:nonzero"
         id="path15838" /><path
         d="m 0.494,-0.07 c 0.005,0 0.009,0.001 0.012,0.005 0.004,0.003 0.005,0.007 0.005,0.012 0,0.005 -0.001,0.009 -0.005,0.013 -0.003,0.003 -0.007,0.005 -0.012,0.005 -0.005,0 -0.009,-0.002 -0.013,-0.005 -0.003,-0.004 -0.005,-0.008 -0.005,-0.013 0,-0.005 0.002,-0.009 0.005,-0.012 0.004,-0.004 0.008,-0.005 0.013,-0.005 z"
         style="fill:#f03a17;fill-rule:nonzero"
         id="path15840" /></g></g></svg>
