<?xml version="1.0" encoding="UTF-8" standalone="no"?>
<svg
   width="16.844999"
   height="12.63"
   viewBox="0 0 16.844999 12.63"
   version="1.1"
   xml:space="preserve"
   style="clip-rule:evenodd;fill-rule:evenodd;stroke-linejoin:round;stroke-miterlimit:2"
   id="svg20568"
   sodipodi:docname="emojis.svg"
   xmlns:inkscape="http://www.inkscape.org/namespaces/inkscape"
   xmlns:sodipodi="http://sodipodi.sourceforge.net/DTD/sodipodi-0.dtd"
   xmlns="http://www.w3.org/2000/svg"
   xmlns:svg="http://www.w3.org/2000/svg"><defs
     id="defs20572" /><sodipodi:namedview
     id="namedview20570"
     pagecolor="#505050"
     bordercolor="#eeeeee"
     borderopacity="1"
     inkscape:pageshadow="0"
     inkscape:pageopacity="0"
     inkscape:pagecheckerboard="0" /><g
     transform="matrix(0.24,0,0,0.24,-13.213584,-802.4232)"
     id="g20566"><g
       transform="matrix(62.5,0,0,62.5,47.2441,3391.68)"
       id="g15882"><path
         d="m 0.856,-0.737 h 0.392 v 0.702 c 0,0.014 -0.003,0.028 -0.008,0.041 C 1.234,0.019 1.227,0.03 1.217,0.039 1.207,0.049 1.196,0.056 1.184,0.062 1.171,0.068 1.157,0.07 1.143,0.07 H 0.23 C 0.216,0.07 0.202,0.068 0.189,0.062 0.177,0.056 0.166,0.049 0.156,0.039 0.146,0.03 0.139,0.019 0.133,0.006 0.128,-0.007 0.125,-0.021 0.125,-0.035 v -0.702 h 0.392 l 0.035,-0.035 h 0.269 z"
         style="fill-rule:nonzero"
         id="path15868" /><path
         d="M 0.195,-0.035 V -0.491 L 0.251,-0.53 H 1.12 l 0.058,0.039 v 0.456 c 0,0.01 -0.004,0.018 -0.011,0.025 C 1.161,-0.003 1.152,0 1.143,0 H 0.23 C 0.221,0 0.212,-0.003 0.206,-0.01 0.199,-0.017 0.195,-0.025 0.195,-0.035 Z"
         style="fill:#383838;fill-rule:nonzero"
         id="path15870" /><path
         d="m 1.107,-0.632 h 0.071 v 0.141 H 0.195 v -0.141 l 0.049,0.001 c 0.016,0 0.031,-0.002 0.045,-0.007 0.014,-0.005 0.028,-0.009 0.043,-0.013 0.003,0 0.008,0.002 0.016,0.004 0.007,0.002 0.015,0.004 0.023,0.006 0.008,0.003 0.015,0.005 0.022,0.006 0.007,0.002 0.011,0.003 0.013,0.003 h 0.105 l 0.07,-0.07 0.034,0.036 h 0.142 l 0.035,-0.036 0.07,0.07 h 0.035 l 0.034,-0.019 0.036,0.019 h 0.071 l 0.034,-0.019 z"
         style="fill:#e5e5e5;fill-rule:nonzero"
         id="path15872" /><path
         d="m 0.687,-0.562 c 0.033,0 0.065,0.007 0.095,0.02 0.03,0.013 0.056,0.03 0.078,0.052 0.022,0.023 0.04,0.049 0.053,0.079 0.013,0.029 0.019,0.061 0.019,0.095 0,0.034 -0.006,0.066 -0.019,0.096 C 0.9,-0.191 0.882,-0.165 0.86,-0.142 0.838,-0.12 0.812,-0.102 0.782,-0.09 0.752,-0.077 0.72,-0.07 0.687,-0.07 0.653,-0.07 0.621,-0.077 0.591,-0.09 0.561,-0.102 0.535,-0.12 0.513,-0.142 0.491,-0.164 0.473,-0.19 0.46,-0.22 0.447,-0.25 0.441,-0.282 0.441,-0.316 c 0,-0.034 0.006,-0.066 0.019,-0.095 0.013,-0.03 0.031,-0.056 0.053,-0.079 0.022,-0.022 0.048,-0.039 0.078,-0.052 0.03,-0.013 0.062,-0.02 0.096,-0.02 z m 0.105,-0.14 v 0.07 H 0.581 v -0.07 z m -0.527,0.07 v -0.035 h 0.141 v 0.035 z m 0.632,0 v -0.035 h 0.07 v 0.035 z m 0.141,-0.035 h 0.069 v 0.035 H 1.038 Z"
         style="fill:#cccccc;fill-rule:nonzero"
         id="path15874" /><path
         d="m 0.687,-0.484 c 0.023,0 0.044,0.004 0.065,0.013 0.02,0.009 0.038,0.021 0.054,0.036 0.015,0.015 0.027,0.033 0.036,0.054 0.009,0.02 0.013,0.042 0.013,0.065 0,0.023 -0.004,0.045 -0.013,0.066 C 0.833,-0.23 0.821,-0.212 0.806,-0.197 0.79,-0.181 0.772,-0.169 0.752,-0.161 0.731,-0.152 0.71,-0.147 0.687,-0.147 0.663,-0.147 0.642,-0.152 0.621,-0.161 0.601,-0.169 0.583,-0.181 0.567,-0.197 0.552,-0.212 0.54,-0.23 0.531,-0.25 0.522,-0.271 0.518,-0.293 0.518,-0.316 c 0,-0.023 0.004,-0.045 0.013,-0.066 0.009,-0.02 0.021,-0.038 0.036,-0.053 0.016,-0.015 0.034,-0.027 0.054,-0.036 0.02,-0.009 0.042,-0.013 0.066,-0.013 z"
         style="fill:#2b2b2b;fill-rule:nonzero"
         id="path15876" /><rect
         x="0.26499999"
         y="-0.597"
         width="0.07"
         height="0.07"
         style="fill:#f03a17;fill-rule:nonzero"
         id="rect15878" /><path
         d="m 0.687,-0.526 c 0.028,0 0.056,0.005 0.081,0.016 0.026,0.011 0.048,0.026 0.067,0.045 0.019,0.019 0.034,0.042 0.045,0.067 0.011,0.026 0.017,0.053 0.017,0.082 0,0.029 -0.006,0.056 -0.017,0.082 -0.011,0.025 -0.026,0.048 -0.045,0.067 -0.019,0.019 -0.041,0.034 -0.067,0.045 -0.025,0.011 -0.053,0.017 -0.081,0.017 -0.029,0 -0.057,-0.006 -0.082,-0.017 C 0.579,-0.133 0.557,-0.148 0.538,-0.167 0.519,-0.186 0.504,-0.209 0.493,-0.234 0.482,-0.26 0.476,-0.287 0.476,-0.316 c 0,-0.029 0.006,-0.056 0.017,-0.082 0.011,-0.025 0.026,-0.048 0.045,-0.067 0.019,-0.019 0.041,-0.034 0.067,-0.045 0.025,-0.011 0.053,-0.016 0.082,-0.016 z m 0,0.35 c 0.019,0 0.037,-0.003 0.054,-0.011 0.017,-0.007 0.032,-0.017 0.045,-0.03 0.012,-0.012 0.022,-0.027 0.03,-0.044 0.007,-0.017 0.011,-0.035 0.011,-0.055 0,-0.019 -0.004,-0.038 -0.011,-0.055 C 0.808,-0.388 0.798,-0.403 0.786,-0.416 0.773,-0.428 0.758,-0.438 0.741,-0.446 0.724,-0.453 0.706,-0.457 0.687,-0.457 c -0.02,0 -0.038,0.004 -0.055,0.011 -0.017,0.008 -0.032,0.018 -0.045,0.03 -0.013,0.013 -0.023,0.028 -0.03,0.045 -0.007,0.017 -0.011,0.036 -0.011,0.055 0,0.02 0.004,0.038 0.011,0.055 0.007,0.017 0.017,0.032 0.03,0.044 0.013,0.013 0.028,0.023 0.045,0.03 0.017,0.008 0.035,0.011 0.055,0.011 z m 0.28,0.035 c 0.01,0 0.018,0.004 0.025,0.011 0.007,0.006 0.01,0.015 0.01,0.025 0,0.009 -0.003,0.018 -0.01,0.024 -0.007,0.007 -0.015,0.011 -0.025,0.011 -0.009,0 -0.018,-0.004 -0.025,-0.011 -0.006,-0.006 -0.01,-0.015 -0.01,-0.024 0,-0.01 0.004,-0.019 0.01,-0.025 0.007,-0.007 0.016,-0.011 0.025,-0.011 z m -0.305,-0.15 0.049,-0.05 c 0.007,0.007 0.011,0.015 0.011,0.025 0,0.01 -0.004,0.018 -0.011,0.025 -0.006,0.007 -0.015,0.01 -0.024,0.01 -0.01,0 -0.019,-0.003 -0.025,-0.01 z"
         style="fill:#1f1f1f;fill-rule:nonzero"
         id="path15880" /></g></g></svg>
