<?xml version="1.0" encoding="UTF-8" standalone="no"?>
<svg
   width="12.105"
   height="14.205"
   viewBox="0 0 12.105 14.205"
   version="1.1"
   xml:space="preserve"
   style="clip-rule:evenodd;fill-rule:evenodd;stroke-linejoin:round;stroke-miterlimit:2"
   id="svg20568"
   sodipodi:docname="emojis.svg"
   xmlns:inkscape="http://www.inkscape.org/namespaces/inkscape"
   xmlns:sodipodi="http://sodipodi.sourceforge.net/DTD/sodipodi-0.dtd"
   xmlns="http://www.w3.org/2000/svg"
   xmlns:svg="http://www.w3.org/2000/svg"><defs
     id="defs20572" /><sodipodi:namedview
     id="namedview20570"
     pagecolor="#505050"
     bordercolor="#eeeeee"
     borderopacity="1"
     inkscape:pageshadow="0"
     inkscape:pageopacity="0"
     inkscape:pagecheckerboard="0" /><g
     transform="matrix(0.24,0,0,0.24,-477.6726,-130.32924)"
     id="g20566"><g
       transform="matrix(62.5,0,0,62.5,1982.49,589.101)"
       id="g1594"><path
         d="M 0.529,0.21 C 0.492,0.21 0.456,0.206 0.422,0.196 0.387,0.186 0.355,0.173 0.325,0.155 0.295,0.138 0.268,0.117 0.243,0.092 0.219,0.067 0.198,0.04 0.18,0.01 0.163,-0.02 0.149,-0.052 0.139,-0.086 0.13,-0.121 0.125,-0.156 0.125,-0.193 v -0.264 c 0,-0.024 0.005,-0.046 0.014,-0.068 0.009,-0.021 0.022,-0.04 0.038,-0.055 0.015,-0.016 0.034,-0.029 0.055,-0.038 0.021,-0.009 0.044,-0.014 0.068,-0.014 h 0.015 c 0.007,-0.015 0.016,-0.03 0.028,-0.043 0.011,-0.012 0.023,-0.023 0.037,-0.033 0.014,-0.009 0.03,-0.016 0.046,-0.021 0.016,-0.006 0.033,-0.008 0.05,-0.008 h 0.281 c 0.024,0 0.047,0.004 0.068,0.014 0.021,0.009 0.04,0.022 0.056,0.037 0.015,0.016 0.028,0.035 0.037,0.056 0.009,0.022 0.014,0.044 0.014,0.068 v 0.369 c 0,0.037 -0.005,0.073 -0.014,0.107 C 0.908,-0.051 0.895,-0.019 0.877,0.01 0.859,0.04 0.838,0.067 0.814,0.092 0.789,0.117 0.762,0.138 0.732,0.155 0.702,0.173 0.67,0.186 0.636,0.196 0.602,0.206 0.566,0.21 0.529,0.21 Z"
         style="fill-rule:nonzero"
         id="path1588" /><path
         d="m 0.862,-0.562 v 0.213 c 0,0.005 -0.001,0.011 -0.003,0.016 -0.002,0.005 -0.003,0.01 -0.003,0.016 0,0.013 0.001,0.027 0.003,0.04 0.002,0.014 0.003,0.027 0.003,0.041 v 0.043 c 0,0.03 -0.004,0.06 -0.012,0.088 C 0.842,-0.076 0.831,-0.05 0.816,-0.025 0.802,0 0.785,0.022 0.764,0.042 0.744,0.063 0.722,0.08 0.697,0.094 0.672,0.109 0.646,0.12 0.617,0.128 0.589,0.136 0.559,0.14 0.529,0.14 0.498,0.14 0.468,0.136 0.44,0.128 0.412,0.12 0.385,0.109 0.36,0.095 0.336,0.08 0.313,0.063 0.293,0.043 0.272,0.022 0.255,0 0.241,-0.025 0.226,-0.05 0.215,-0.076 0.207,-0.105 0.199,-0.133 0.195,-0.163 0.195,-0.193 v -0.264 c 0,-0.014 0.003,-0.028 0.009,-0.041 C 0.209,-0.51 0.217,-0.521 0.226,-0.531 0.236,-0.54 0.247,-0.548 0.259,-0.553 0.272,-0.559 0.286,-0.562 0.3,-0.562 h 0.035 c 0.003,0 0.006,0.001 0.01,0.002 0.004,0.002 0.007,0.003 0.009,0.004 l 0.017,-0.006 c 0,-0.014 0.002,-0.028 0.008,-0.041 0.005,-0.012 0.013,-0.023 0.023,-0.033 0.009,-0.01 0.02,-0.017 0.033,-0.023 0.013,-0.005 0.026,-0.008 0.041,-0.008 h 0.035 c 0.003,0 0.006,0.001 0.01,0.002 0.003,0.001 0.007,0.002 0.009,0.003 0.001,0 0.002,0 0.003,-0.001 l 0.013,-0.004 h 0.141 c 0.003,0 0.006,0 0.009,0.001 0.003,0.001 0.006,0.002 0.009,0.002 0.005,-0.001 0.009,-0.002 0.014,-0.003 0.005,0 0.01,0 0.014,0 h 0.024 c 0.014,0 0.028,0.003 0.041,0.008 0.013,0.006 0.024,0.013 0.033,0.023 0.009,0.01 0.017,0.021 0.023,0.033 0.005,0.013 0.008,0.027 0.008,0.041 z"
         style="fill:#ffc83d;fill-rule:nonzero"
         id="path1590" /><path
         d="m 0.722,-0.421 c 0.028,0 0.054,0.006 0.078,0.018 0.025,0.013 0.045,0.03 0.062,0.053 v 0.099 C 0.861,-0.27 0.857,-0.288 0.849,-0.304 0.842,-0.32 0.832,-0.335 0.819,-0.347 0.806,-0.359 0.792,-0.369 0.775,-0.376 0.758,-0.383 0.741,-0.386 0.722,-0.386 H 0.335 c -0.009,0 -0.018,0.002 -0.027,0.005 -0.008,0.004 -0.016,0.009 -0.022,0.016 -0.006,0.006 -0.012,0.013 -0.015,0.022 -0.004,0.008 -0.006,0.017 -0.006,0.027 0,0.01 0.002,0.019 0.006,0.027 0.003,0.009 0.009,0.016 0.015,0.023 0.006,0.006 0.014,0.011 0.022,0.015 0.009,0.004 0.018,0.005 0.027,0.005 h 0.159 c 0.005,0 0.009,0.002 0.012,0.006 0.004,0.003 0.005,0.007 0.005,0.012 v 0.175 c 0,0.005 -0.001,0.009 -0.005,0.013 -0.003,0.003 -0.007,0.005 -0.012,0.005 -0.005,0 -0.009,-0.002 -0.013,-0.005 C 0.478,-0.044 0.476,-0.048 0.476,-0.053 V -0.21 H 0.335 C 0.321,-0.21 0.307,-0.213 0.294,-0.219 0.282,-0.224 0.271,-0.232 0.261,-0.241 0.252,-0.251 0.244,-0.262 0.239,-0.275 0.233,-0.288 0.23,-0.301 0.23,-0.316 0.23,-0.331 0.233,-0.344 0.239,-0.357 0.244,-0.37 0.252,-0.381 0.261,-0.39 0.271,-0.4 0.282,-0.408 0.294,-0.413 0.307,-0.419 0.321,-0.421 0.335,-0.421 v -0.141 h 0.036 v 0.141 h 0.14 v -0.246 h 0.035 v 0.246 h 0.141 v -0.246 h 0.035 z"
         style="fill:#d48c00;fill-rule:nonzero"
         id="path1592" /></g></g></svg>
