<?xml version="1.0" encoding="UTF-8" standalone="no"?>
<svg
   width="11.58"
   height="16.844999"
   viewBox="0 0 11.58 16.844999"
   version="1.1"
   xml:space="preserve"
   style="clip-rule:evenodd;fill-rule:evenodd;stroke-linejoin:round;stroke-miterlimit:2"
   id="svg20568"
   sodipodi:docname="emojis.svg"
   xmlns:inkscape="http://www.inkscape.org/namespaces/inkscape"
   xmlns:sodipodi="http://sodipodi.sourceforge.net/DTD/sodipodi-0.dtd"
   xmlns="http://www.w3.org/2000/svg"
   xmlns:svg="http://www.w3.org/2000/svg"><defs
     id="defs20572" /><sodipodi:namedview
     id="namedview20570"
     pagecolor="#505050"
     bordercolor="#eeeeee"
     borderopacity="1"
     inkscape:pageshadow="0"
     inkscape:pageopacity="0"
     inkscape:pagecheckerboard="0" /><g
     transform="matrix(0.24,0,0,0.24,-152.65212,-800.3082)"
     id="g20566"><g
       transform="matrix(62.5,0,0,62.5,628.238,3391.68)"
       id="g15996"><path
         d="m 0.511,-0.913 c 0.036,0 0.07,0.005 0.103,0.014 0.033,0.01 0.063,0.023 0.092,0.039 0.028,0.017 0.054,0.037 0.078,0.061 0.024,0.023 0.044,0.049 0.06,0.078 0.017,0.028 0.03,0.059 0.039,0.092 0.009,0.033 0.014,0.067 0.014,0.103 0,0.052 -0.009,0.102 -0.028,0.148 -0.018,0.047 -0.045,0.09 -0.079,0.129 -0.01,0.011 -0.019,0.021 -0.029,0.03 -0.01,0.008 -0.02,0.018 -0.03,0.027 -0.006,0.006 -0.012,0.013 -0.018,0.019 -0.005,0.006 -0.01,0.013 -0.014,0.02 -0.004,0.007 -0.007,0.014 -0.009,0.022 -0.002,0.007 -0.003,0.016 -0.003,0.026 V 0.087 C 0.687,0.098 0.685,0.108 0.681,0.118 0.677,0.128 0.672,0.137 0.665,0.145 0.659,0.153 0.651,0.159 0.641,0.165 0.632,0.17 0.622,0.173 0.611,0.174 L 0.575,0.21 H 0.447 L 0.411,0.174 C 0.4,0.173 0.39,0.17 0.381,0.165 0.371,0.159 0.363,0.153 0.357,0.145 0.35,0.137 0.345,0.128 0.341,0.118 0.337,0.108 0.335,0.098 0.335,0.087 v -0.192 c 0,-0.01 -0.001,-0.019 -0.003,-0.026 C 0.33,-0.139 0.327,-0.146 0.323,-0.153 0.319,-0.16 0.314,-0.167 0.309,-0.173 0.303,-0.179 0.298,-0.186 0.291,-0.192 0.281,-0.201 0.271,-0.211 0.261,-0.219 0.252,-0.228 0.242,-0.238 0.233,-0.249 0.198,-0.288 0.172,-0.331 0.153,-0.378 0.134,-0.424 0.125,-0.474 0.125,-0.526 c 0,-0.036 0.005,-0.07 0.014,-0.103 0.009,-0.033 0.022,-0.064 0.039,-0.092 0.017,-0.029 0.037,-0.055 0.06,-0.078 0.024,-0.024 0.05,-0.044 0.078,-0.061 0.029,-0.016 0.06,-0.029 0.093,-0.039 0.033,-0.009 0.067,-0.014 0.102,-0.014 z"
         style="fill-rule:nonzero"
         id="path15986" /><path
         d="m 0.441,0.105 v -0.174 h 0.14 V 0.105 L 0.546,0.14 h -0.07 z"
         style="fill:#cccccc;fill-rule:nonzero"
         id="path15988" /><path
         d="m 0.511,-0.842 c 0.044,0 0.085,0.008 0.123,0.025 0.038,0.016 0.072,0.039 0.1,0.067 0.029,0.029 0.052,0.062 0.068,0.101 0.016,0.038 0.025,0.079 0.025,0.123 0,0.03 -0.004,0.058 -0.01,0.083 -0.007,0.026 -0.017,0.05 -0.029,0.072 -0.012,0.023 -0.027,0.044 -0.044,0.065 -0.018,0.02 -0.037,0.04 -0.057,0.06 -0.011,0.011 -0.021,0.021 -0.03,0.031 -0.008,0.01 -0.015,0.02 -0.022,0.031 -0.006,0.011 -0.01,0.023 -0.014,0.036 -0.003,0.013 -0.005,0.027 -0.005,0.043 L 0.58,-0.081 H 0.438 L 0.406,-0.105 c 0,-0.016 -0.002,-0.03 -0.005,-0.042 C 0.397,-0.16 0.392,-0.172 0.386,-0.183 0.38,-0.195 0.373,-0.205 0.365,-0.215 0.356,-0.225 0.346,-0.236 0.335,-0.246 0.314,-0.266 0.295,-0.286 0.278,-0.306 0.261,-0.327 0.246,-0.348 0.234,-0.371 0.221,-0.393 0.212,-0.417 0.205,-0.443 0.199,-0.468 0.195,-0.496 0.195,-0.526 c 0,-0.029 0.004,-0.057 0.012,-0.084 0.007,-0.027 0.018,-0.053 0.031,-0.076 0.014,-0.023 0.03,-0.045 0.05,-0.064 0.019,-0.019 0.04,-0.036 0.064,-0.049 0.023,-0.014 0.048,-0.025 0.075,-0.032 0.027,-0.008 0.055,-0.011 0.084,-0.011 z"
         style="fill:#ffd679;fill-rule:nonzero"
         id="path15990" /><path
         d="m 0.581,-0.316 c 0.01,0 0.018,0.004 0.025,0.01 0.007,0.007 0.01,0.015 0.01,0.025 0,0.01 -0.003,0.018 -0.01,0.025 -0.007,0.007 -0.016,0.01 -0.025,0.01 v 0.141 L 0.563,-0.086 0.546,-0.105 v -0.141 h -0.07 v 0.141 L 0.457,-0.086 0.441,-0.105 v -0.141 c -0.01,0 -0.018,-0.003 -0.025,-0.01 -0.007,-0.007 -0.01,-0.015 -0.01,-0.025 0,-0.01 0.003,-0.018 0.01,-0.025 0.007,-0.007 0.015,-0.01 0.025,-0.01 0.01,0 0.018,0.004 0.025,0.01 0.007,0.007 0.01,0.015 0.01,0.025 h 0.07 c 0,-0.009 0.003,-0.017 0.01,-0.024 0.007,-0.007 0.016,-0.011 0.025,-0.011 z"
         style="fill:#ffb900;fill-rule:nonzero"
         id="path15992" /><path
         d="m 0.406,-0.105 h 0.21 v 0.07 H 0.406 Z M 0.599,0 C 0.604,0 0.608,0.002 0.611,0.005 0.615,0.009 0.616,0.013 0.616,0.018 0.616,0.022 0.615,0.027 0.611,0.03 0.608,0.033 0.604,0.035 0.599,0.035 H 0.423 C 0.418,0.035 0.414,0.033 0.411,0.03 0.407,0.027 0.406,0.022 0.406,0.018 0.406,0.013 0.407,0.009 0.411,0.005 0.414,0.002 0.418,0 0.423,0 Z m 0,0.07 c 0.004,0 0.008,0.002 0.012,0.005 C 0.614,0.079 0.616,0.083 0.616,0.087 0.616,0.092 0.615,0.096 0.611,0.1 0.608,0.103 0.604,0.105 0.599,0.105 H 0.423 C 0.418,0.105 0.414,0.103 0.411,0.1 0.407,0.096 0.406,0.092 0.406,0.087 0.406,0.083 0.408,0.079 0.411,0.075 0.415,0.072 0.419,0.07 0.423,0.07 Z"
         style="fill:#e5e5e5;fill-rule:nonzero"
         id="path15994" /></g></g></svg>
