<?xml version="1.0" encoding="UTF-8" standalone="no"?>
<svg
   width="16.844999"
   height="16.844999"
   viewBox="0 0 16.844999 16.844999"
   version="1.1"
   xml:space="preserve"
   style="clip-rule:evenodd;fill-rule:evenodd;stroke-linejoin:round;stroke-miterlimit:2"
   id="svg20568"
   sodipodi:docname="emojis.svg"
   xmlns:inkscape="http://www.inkscape.org/namespaces/inkscape"
   xmlns:sodipodi="http://sodipodi.sourceforge.net/DTD/sodipodi-0.dtd"
   xmlns="http://www.w3.org/2000/svg"
   xmlns:svg="http://www.w3.org/2000/svg"><defs
     id="defs20572" /><sodipodi:namedview
     id="namedview20570"
     pagecolor="#505050"
     bordercolor="#eeeeee"
     borderopacity="1"
     inkscape:pageshadow="0"
     inkscape:pageopacity="0"
     inkscape:pagecheckerboard="0" /><g
     transform="matrix(0.24,0,0,0.24,-116.19204,-800.3082)"
     id="g20566"><g
       transform="matrix(62.5,0,0,62.5,476.321,3391.68)"
       id="g15968"><path
         d="M 0.283,0.21 C 0.261,0.21 0.241,0.206 0.222,0.198 0.202,0.19 0.186,0.178 0.171,0.164 0.157,0.15 0.146,0.133 0.137,0.114 0.129,0.095 0.125,0.074 0.125,0.053 0.125,0.032 0.129,0.011 0.137,-0.008 0.145,-0.027 0.156,-0.044 0.171,-0.059 L 0.463,-0.351 H 0.517 C 0.503,-0.379 0.493,-0.407 0.486,-0.437 0.479,-0.466 0.476,-0.496 0.476,-0.526 c 0,-0.036 0.005,-0.07 0.014,-0.103 0.009,-0.033 0.022,-0.064 0.039,-0.092 0.016,-0.029 0.037,-0.055 0.06,-0.078 0.024,-0.024 0.05,-0.044 0.078,-0.061 0.029,-0.016 0.059,-0.029 0.092,-0.039 0.033,-0.009 0.067,-0.014 0.103,-0.014 0.035,0 0.069,0.005 0.102,0.014 0.033,0.01 0.064,0.023 0.093,0.039 0.028,0.017 0.054,0.037 0.078,0.061 0.023,0.023 0.043,0.049 0.06,0.078 0.017,0.028 0.03,0.059 0.039,0.092 0.009,0.033 0.014,0.067 0.014,0.103 0,0.035 -0.005,0.069 -0.014,0.102 -0.009,0.033 -0.022,0.064 -0.039,0.092 -0.017,0.029 -0.037,0.055 -0.06,0.078 -0.024,0.024 -0.05,0.044 -0.078,0.061 -0.029,0.017 -0.06,0.03 -0.093,0.039 -0.033,0.009 -0.067,0.013 -0.102,0.013 -0.031,0 -0.061,-0.003 -0.09,-0.01 C 0.743,-0.158 0.714,-0.168 0.687,-0.182 v 0.054 L 0.395,0.164 C 0.38,0.179 0.362,0.191 0.343,0.198 0.324,0.206 0.304,0.21 0.283,0.21 Z"
         style="fill-rule:nonzero"
         id="path15952" /><path
         d="m 0.578,-0.172 -0.07,-0.071 0.143,-0.143 0.071,0.07 z"
         style="fill:#859599;fill-rule:nonzero"
         id="path15954" /><path
         d="M 0.221,-0.009 0.492,-0.281 0.567,-0.232 0.616,-0.157 0.345,0.115 0.259,0.077 Z"
         style="fill:#69797e;fill-rule:nonzero"
         id="path15956" /><path
         d="M 0.23,0.035 0.529,-0.263 0.563,-0.228 0.265,0.07 Z"
         style="fill:#a0aeb2;fill-rule:nonzero"
         id="path15958" /><path
         d="M 0.345,0.115 C 0.337,0.123 0.327,0.129 0.316,0.134 0.306,0.138 0.294,0.141 0.283,0.141 0.271,0.141 0.259,0.138 0.249,0.134 0.238,0.129 0.228,0.123 0.22,0.115 0.212,0.107 0.206,0.098 0.202,0.087 0.197,0.076 0.195,0.065 0.195,0.053 0.195,0.041 0.197,0.03 0.202,0.019 0.206,0.008 0.213,-0.001 0.221,-0.009 Z"
         style="fill:#4a5459;fill-rule:nonzero"
         id="path15960" /><path
         d="m 0.546,-0.526 c 0,-0.029 0.004,-0.057 0.011,-0.084 0.008,-0.027 0.018,-0.053 0.032,-0.076 0.014,-0.023 0.03,-0.044 0.05,-0.064 0.019,-0.019 0.04,-0.035 0.063,-0.049 0.024,-0.014 0.049,-0.025 0.076,-0.032 0.027,-0.008 0.055,-0.011 0.084,-0.011 0.029,0 0.057,0.003 0.084,0.011 0.027,0.007 0.052,0.018 0.075,0.032 0.024,0.013 0.045,0.03 0.064,0.049 0.02,0.019 0.036,0.041 0.05,0.064 0.013,0.023 0.024,0.049 0.032,0.076 0.007,0.027 0.011,0.055 0.011,0.084 0,0.029 -0.004,0.057 -0.011,0.084 -0.008,0.027 -0.019,0.052 -0.032,0.075 -0.014,0.023 -0.031,0.045 -0.05,0.064 -0.019,0.019 -0.04,0.036 -0.064,0.049 C 0.998,-0.24 0.973,-0.229 0.946,-0.222 0.919,-0.214 0.891,-0.21 0.862,-0.21 0.833,-0.21 0.805,-0.214 0.778,-0.222 0.751,-0.229 0.726,-0.24 0.702,-0.254 0.679,-0.267 0.658,-0.284 0.639,-0.303 0.619,-0.322 0.603,-0.344 0.589,-0.367 0.575,-0.39 0.565,-0.415 0.557,-0.442 0.55,-0.469 0.546,-0.497 0.546,-0.526 Z m 0,0.245 0.07,0.071 v 0.053 L 0.492,-0.281 Z"
         style="fill:#cccccc;fill-rule:nonzero"
         id="path15962" /><path
         d="m 0.581,-0.526 c 0,-0.039 0.007,-0.075 0.022,-0.109 0.015,-0.035 0.035,-0.064 0.061,-0.09 0.025,-0.025 0.055,-0.045 0.089,-0.06 0.034,-0.015 0.07,-0.022 0.109,-0.022 0.039,0 0.075,0.007 0.109,0.022 0.034,0.014 0.064,0.035 0.09,0.06 0.025,0.025 0.045,0.055 0.06,0.089 0.014,0.034 0.022,0.071 0.022,0.11 0,0.038 -0.008,0.075 -0.023,0.109 -0.014,0.034 -0.035,0.063 -0.06,0.089 -0.025,0.025 -0.055,0.045 -0.089,0.06 -0.034,0.015 -0.07,0.022 -0.109,0.022 -0.039,0 -0.075,-0.007 -0.109,-0.022 C 0.719,-0.283 0.689,-0.303 0.664,-0.328 0.638,-0.354 0.618,-0.383 0.603,-0.417 0.588,-0.451 0.581,-0.488 0.581,-0.526 Z"
         style="fill:#83beec;fill-rule:nonzero"
         id="path15964" /><path
         d="M 1.036,-0.7 0.688,-0.353 C 0.665,-0.376 0.647,-0.403 0.635,-0.433 0.622,-0.463 0.616,-0.494 0.616,-0.526 c 0,-0.034 0.007,-0.066 0.019,-0.096 0.013,-0.03 0.031,-0.056 0.053,-0.078 0.023,-0.023 0.049,-0.04 0.078,-0.053 0.03,-0.013 0.062,-0.019 0.096,-0.019 0.033,0 0.064,0.006 0.094,0.018 0.03,0.012 0.057,0.03 0.08,0.054 z"
         style="fill:#b3dbf2;fill-rule:nonzero"
         id="path15966" /></g></g></svg>
