<?xml version="1.0" encoding="UTF-8" standalone="no"?>
<svg
   width="16.844999"
   height="16.844999"
   viewBox="0 0 16.844999 16.844999"
   version="1.1"
   xml:space="preserve"
   style="clip-rule:evenodd;fill-rule:evenodd;stroke-linejoin:round;stroke-miterlimit:2"
   id="svg20568"
   sodipodi:docname="emojis.svg"
   xmlns:inkscape="http://www.inkscape.org/namespaces/inkscape"
   xmlns:sodipodi="http://sodipodi.sourceforge.net/DTD/sodipodi-0.dtd"
   xmlns="http://www.w3.org/2000/svg"
   xmlns:svg="http://www.w3.org/2000/svg"><defs
     id="defs20572" /><sodipodi:namedview
     id="namedview20570"
     pagecolor="#505050"
     bordercolor="#eeeeee"
     borderopacity="1"
     inkscape:pageshadow="0"
     inkscape:pageopacity="0"
     inkscape:pagecheckerboard="0" /><g
     transform="matrix(0.24,0,0,0.24,-95.59644,-800.3082)"
     id="g20566"><g
       transform="matrix(62.5,0,0,62.5,390.506,3391.68)"
       id="g15950"><path
         d="M 1.09,0.21 C 1.069,0.21 1.049,0.206 1.03,0.198 1.011,0.191 0.993,0.179 0.979,0.164 L 0.687,-0.128 v -0.054 c -0.028,0.014 -0.057,0.024 -0.086,0.031 -0.029,0.007 -0.059,0.01 -0.09,0.01 -0.035,0 -0.069,-0.004 -0.102,-0.013 C 0.376,-0.163 0.345,-0.176 0.316,-0.193 0.288,-0.21 0.262,-0.23 0.238,-0.254 0.215,-0.277 0.195,-0.303 0.178,-0.332 0.161,-0.36 0.148,-0.391 0.139,-0.424 0.13,-0.457 0.125,-0.491 0.125,-0.526 c 0,-0.036 0.005,-0.07 0.014,-0.103 0.009,-0.033 0.022,-0.064 0.039,-0.092 0.017,-0.029 0.037,-0.055 0.06,-0.078 0.024,-0.024 0.05,-0.044 0.078,-0.061 0.029,-0.016 0.06,-0.029 0.093,-0.039 0.033,-0.009 0.067,-0.014 0.102,-0.014 0.036,0 0.07,0.005 0.103,0.014 0.033,0.01 0.063,0.023 0.092,0.039 0.028,0.017 0.054,0.037 0.078,0.061 0.024,0.023 0.044,0.049 0.06,0.078 0.017,0.028 0.03,0.059 0.039,0.092 0.009,0.033 0.014,0.067 0.014,0.103 0,0.03 -0.004,0.06 -0.011,0.089 -0.007,0.03 -0.017,0.058 -0.031,0.085 H 0.91 l 0.292,0.293 c 0.015,0.015 0.026,0.032 0.034,0.051 0.008,0.019 0.012,0.04 0.012,0.061 0,0.021 -0.004,0.042 -0.012,0.061 C 1.227,0.133 1.216,0.15 1.202,0.164 1.187,0.178 1.171,0.19 1.151,0.198 1.132,0.206 1.112,0.21 1.09,0.21 Z"
         style="fill-rule:nonzero"
         id="path15934" /><path
         d="m 0.795,-0.172 -0.144,-0.144 0.071,-0.07 0.143,0.143 z"
         style="fill:#859599;fill-rule:nonzero"
         id="path15936" /><path
         d="M 1.152,-0.009 1.114,0.077 1.028,0.115 0.757,-0.157 0.806,-0.232 0.881,-0.281 Z"
         style="fill:#69797e;fill-rule:nonzero"
         id="path15938" /><path
         d="M 1.143,0.035 1.107,0.07 0.81,-0.228 0.844,-0.263 Z"
         style="fill:#a0aeb2;fill-rule:nonzero"
         id="path15940" /><path
         d="M 1.028,0.115 1.152,-0.009 C 1.16,-0.001 1.167,0.008 1.171,0.019 1.176,0.03 1.178,0.041 1.178,0.053 1.178,0.065 1.175,0.076 1.171,0.087 1.166,0.098 1.16,0.107 1.152,0.115 1.144,0.123 1.135,0.129 1.124,0.134 1.113,0.138 1.102,0.141 1.09,0.141 1.078,0.141 1.067,0.138 1.057,0.134 1.046,0.129 1.036,0.123 1.028,0.115 Z"
         style="fill:#4a5459;fill-rule:nonzero"
         id="path15942" /><path
         d="m 0.827,-0.526 c 0,0.043 -0.009,0.084 -0.025,0.123 -0.016,0.038 -0.039,0.072 -0.068,0.1 -0.028,0.029 -0.062,0.051 -0.1,0.068 C 0.596,-0.219 0.555,-0.21 0.511,-0.21 0.482,-0.21 0.454,-0.214 0.427,-0.222 0.4,-0.229 0.375,-0.24 0.352,-0.254 0.329,-0.267 0.307,-0.284 0.288,-0.303 0.269,-0.322 0.252,-0.344 0.239,-0.367 0.225,-0.39 0.214,-0.415 0.207,-0.442 0.199,-0.469 0.195,-0.497 0.195,-0.526 c 0,-0.029 0.004,-0.057 0.012,-0.084 0.007,-0.027 0.018,-0.053 0.031,-0.076 0.014,-0.023 0.03,-0.045 0.05,-0.064 0.019,-0.019 0.04,-0.036 0.064,-0.049 0.023,-0.014 0.048,-0.025 0.075,-0.032 0.027,-0.008 0.055,-0.011 0.084,-0.011 0.044,0 0.085,0.008 0.123,0.025 0.038,0.016 0.072,0.039 0.1,0.067 0.029,0.029 0.052,0.062 0.068,0.101 0.016,0.038 0.025,0.079 0.025,0.123 z m 0,0.245 H 0.881 L 0.757,-0.157 V -0.21 Z"
         style="fill:#cccccc;fill-rule:nonzero"
         id="path15944" /><path
         d="m 0.23,-0.526 c 0,-0.039 0.008,-0.076 0.022,-0.11 0.015,-0.034 0.035,-0.064 0.061,-0.089 0.025,-0.025 0.055,-0.046 0.089,-0.06 0.034,-0.015 0.07,-0.022 0.109,-0.022 0.039,0 0.075,0.007 0.109,0.022 0.034,0.015 0.064,0.035 0.089,0.06 0.026,0.026 0.046,0.055 0.061,0.09 0.015,0.034 0.022,0.07 0.022,0.109 0,0.038 -0.007,0.075 -0.022,0.109 -0.015,0.034 -0.035,0.063 -0.061,0.089 -0.025,0.025 -0.055,0.045 -0.089,0.06 -0.034,0.015 -0.07,0.022 -0.109,0.022 -0.039,0 -0.075,-0.007 -0.109,-0.022 C 0.368,-0.283 0.338,-0.303 0.313,-0.328 0.288,-0.354 0.267,-0.383 0.253,-0.417 0.238,-0.451 0.23,-0.488 0.23,-0.526 Z"
         style="fill:#83beec;fill-rule:nonzero"
         id="path15946" /><path
         d="M 0.685,-0.7 0.337,-0.353 C 0.314,-0.376 0.296,-0.403 0.284,-0.433 0.271,-0.463 0.265,-0.494 0.265,-0.526 c 0,-0.034 0.007,-0.066 0.019,-0.096 0.013,-0.03 0.031,-0.056 0.053,-0.078 0.022,-0.023 0.048,-0.04 0.078,-0.053 0.03,-0.013 0.062,-0.019 0.096,-0.019 0.033,0 0.064,0.006 0.094,0.018 0.03,0.012 0.056,0.03 0.08,0.054 z"
         style="fill:#b3dbf2;fill-rule:nonzero"
         id="path15948" /></g></g></svg>
