<?xml version="1.0" encoding="UTF-8" standalone="no"?>
<svg
   width="12.105"
   height="16.620001"
   viewBox="0 0 12.105 16.620001"
   version="1.1"
   xml:space="preserve"
   style="clip-rule:evenodd;fill-rule:evenodd;stroke-linejoin:round;stroke-miterlimit:2"
   id="svg20568"
   sodipodi:docname="emojis.svg"
   xmlns:inkscape="http://www.inkscape.org/namespaces/inkscape"
   xmlns:sodipodi="http://sodipodi.sourceforge.net/DTD/sodipodi-0.dtd"
   xmlns="http://www.w3.org/2000/svg"
   xmlns:svg="http://www.w3.org/2000/svg"><defs
     id="defs20572" /><sodipodi:namedview
     id="namedview20570"
     pagecolor="#505050"
     bordercolor="#eeeeee"
     borderopacity="1"
     inkscape:pageshadow="0"
     inkscape:pageopacity="0"
     inkscape:pagecheckerboard="0" /><g
     transform="matrix(0.24,0,0,0.24,-136.78788,-800.5332)"
     id="g20566"><g
       transform="matrix(62.5,0,0,62.5,562.137,3391.68)"
       id="g15984"><path
         d="M 0.932,0 C 0.932,0.02 0.929,0.038 0.923,0.056 0.917,0.074 0.908,0.09 0.897,0.105 0.886,0.12 0.873,0.133 0.857,0.144 0.841,0.155 0.824,0.163 0.806,0.168 0.796,0.182 0.784,0.193 0.769,0.2 0.754,0.207 0.738,0.21 0.722,0.21 H 0.23 C 0.216,0.21 0.202,0.208 0.189,0.202 0.176,0.197 0.165,0.189 0.156,0.18 0.146,0.17 0.139,0.159 0.133,0.146 0.128,0.133 0.125,0.12 0.125,0.105 0.125,0.09 0.128,0.077 0.133,0.064 0.139,0.051 0.146,0.04 0.156,0.031 0.166,0.021 0.177,0.014 0.189,0.008 0.202,0.003 0.216,0 0.23,0 H 0.269 C 0.271,-0.007 0.275,-0.014 0.281,-0.02 0.286,-0.025 0.293,-0.03 0.3,-0.032 V -0.448 C 0.289,-0.458 0.281,-0.47 0.274,-0.484 0.268,-0.497 0.265,-0.512 0.265,-0.526 0.265,-0.538 0.267,-0.549 0.271,-0.56 0.274,-0.571 0.28,-0.581 0.287,-0.59 0.293,-0.599 0.302,-0.606 0.311,-0.613 0.32,-0.619 0.33,-0.624 0.342,-0.627 0.34,-0.634 0.339,-0.641 0.337,-0.647 0.336,-0.654 0.335,-0.66 0.335,-0.667 c 0,-0.039 0.009,-0.075 0.026,-0.108 0.017,-0.033 0.041,-0.062 0.07,-0.086 l 0.045,-0.037 0.045,0.037 c 0.029,0.024 0.052,0.053 0.07,0.086 0.017,0.033 0.025,0.069 0.025,0.108 0,0.007 0,0.014 -0.001,0.02 -0.002,0.007 -0.003,0.013 -0.005,0.02 0.011,0.003 0.021,0.008 0.031,0.014 0.009,0.007 0.017,0.014 0.024,0.023 0.007,0.009 0.012,0.019 0.016,0.03 0.004,0.011 0.006,0.022 0.006,0.034 v 0.36 c 0,0.002 -0.001,0.004 -0.001,0.005 0.011,-0.005 0.023,-0.009 0.034,-0.011 0.012,-0.003 0.024,-0.004 0.037,-0.004 0.024,0 0.047,0.005 0.068,0.014 0.021,0.009 0.04,0.022 0.056,0.038 0.015,0.016 0.028,0.035 0.037,0.056 0.009,0.021 0.014,0.044 0.014,0.068 z"
         style="fill-rule:nonzero"
         id="path15970" /><path
         d="m 0.371,0.085 v -0.576 l 0.043,-0.044 0.167,0.044 v 0.576 z"
         style="fill:#f2f2f2;fill-rule:nonzero"
         id="path15972" /><path
         d="m 0.581,-0.562 c 0.01,0 0.018,0.004 0.025,0.011 0.007,0.007 0.01,0.015 0.01,0.025 v 0.35 c 0,0.01 -0.003,0.018 -0.01,0.025 -0.007,0.007 -0.015,0.01 -0.025,0.01 -0.009,0 -0.018,-0.003 -0.025,-0.01 -0.007,-0.007 -0.01,-0.015 -0.01,-0.025 v -0.263 c 0,-0.005 -0.002,-0.009 -0.005,-0.012 -0.004,-0.004 -0.008,-0.006 -0.012,-0.006 -0.005,0 -0.009,0.002 -0.012,0.006 -0.004,0.003 -0.006,0.007 -0.006,0.012 v 0.176 c 0,0.005 -0.001,0.009 -0.005,0.012 -0.003,0.004 -0.007,0.005 -0.012,0.005 -0.005,0 -0.009,-0.001 -0.013,-0.005 C 0.478,-0.254 0.476,-0.258 0.476,-0.263 v -0.194 c 0,-0.009 -0.003,-0.017 -0.01,-0.024 -0.007,-0.007 -0.016,-0.01 -0.025,-0.01 h -0.07 c -0.01,0 -0.018,-0.004 -0.025,-0.011 -0.007,-0.007 -0.011,-0.015 -0.011,-0.024 0,-0.01 0.004,-0.018 0.011,-0.025 0.007,-0.007 0.015,-0.011 0.025,-0.011 z m -0.07,0.597 c 0.004,0 0.008,10e-4 0.01,0.003 0.002,0.002 0.004,0.004 0.005,0.006 L 0.531,0.061 C 0.533,0.064 0.534,0.066 0.536,0.068 0.538,0.069 0.542,0.07 0.546,0.07 L 0.503,0.09 H 0.369 L 0.335,0.07 c 0,-0.009 0.004,-0.018 0.011,-0.025 0.007,-0.006 0.015,-0.01 0.025,-0.01 z"
         style="fill:#e5e5e5;fill-rule:nonzero"
         id="path15974" /><path
         d="M 0.265,0.14 C 0.256,0.14 0.248,0.137 0.241,0.13 0.234,0.123 0.23,0.114 0.23,0.105 l 0.049,-0.02 h 0.433 l 0.045,0.02 c 0,0.01 -0.004,0.018 -0.01,0.025 C 0.74,0.137 0.731,0.14 0.722,0.14 Z"
         style="fill:#383838;fill-rule:nonzero"
         id="path15976" /><path
         d="m 0.757,-0.105 c 0.014,0 0.028,0.002 0.041,0.008 0.013,0.005 0.024,0.013 0.033,0.023 0.009,0.009 0.017,0.02 0.023,0.033 C 0.859,-0.028 0.862,-0.015 0.862,0 0.862,0.015 0.859,0.028 0.854,0.041 0.848,0.054 0.84,0.065 0.831,0.074 0.822,0.084 0.811,0.091 0.798,0.097 0.785,0.102 0.771,0.105 0.757,0.105 H 0.212 C 0.207,0.105 0.203,0.103 0.2,0.1 0.197,0.096 0.195,0.092 0.195,0.087 0.195,0.083 0.197,0.079 0.2,0.075 0.203,0.072 0.207,0.07 0.212,0.07 H 0.678 C 0.67,0.061 0.663,0.05 0.658,0.038 0.654,0.026 0.651,0.013 0.651,0 c 0,-0.015 0.003,-0.028 0.009,-0.041 0.005,-0.013 0.013,-0.024 0.022,-0.033 0.01,-0.01 0.021,-0.018 0.034,-0.023 0.013,-0.006 0.026,-0.008 0.041,-0.008 z m 0,0.175 C 0.767,0.07 0.776,0.068 0.784,0.065 0.793,0.061 0.8,0.056 0.806,0.05 0.813,0.043 0.818,0.036 0.821,0.027 0.825,0.019 0.827,0.01 0.827,0 0.827,-0.01 0.825,-0.019 0.821,-0.027 0.818,-0.036 0.813,-0.043 0.806,-0.05 0.8,-0.056 0.793,-0.061 0.784,-0.065 0.776,-0.068 0.767,-0.07 0.757,-0.07 0.747,-0.07 0.738,-0.068 0.729,-0.065 0.721,-0.061 0.713,-0.056 0.707,-0.05 0.7,-0.043 0.695,-0.036 0.692,-0.027 0.688,-0.019 0.687,-0.01 0.687,0 0.687,0.01 0.688,0.019 0.692,0.027 0.696,0.036 0.701,0.043 0.707,0.05 0.714,0.056 0.721,0.061 0.729,0.065 0.738,0.068 0.747,0.07 0.757,0.07 Z"
         style="fill:#757575;fill-rule:nonzero"
         id="path15978" /><path
         d="m 0.476,-0.807 c 0.022,0.017 0.039,0.038 0.051,0.062 0.013,0.024 0.019,0.05 0.019,0.078 0,0.01 -0.002,0.019 -0.005,0.027 -0.004,0.009 -0.009,0.016 -0.015,0.023 -0.007,0.006 -0.014,0.011 -0.023,0.015 -0.008,0.003 -0.017,0.005 -0.027,0.005 -0.01,0 -0.019,-0.001 -0.028,-0.005 C 0.44,-0.606 0.432,-0.611 0.426,-0.617 0.42,-0.623 0.415,-0.631 0.411,-0.639 0.408,-0.648 0.406,-0.657 0.406,-0.667 c 0,-0.028 0.006,-0.054 0.019,-0.078 0.013,-0.024 0.03,-0.045 0.051,-0.062 z"
         style="fill:#e81224;fill-rule:nonzero"
         id="path15980" /><path
         d="m 0.441,-0.632 c 0,-0.014 0.003,-0.027 0.01,-0.039 0.006,-0.012 0.015,-0.022 0.025,-0.031 0.01,0.009 0.019,0.019 0.025,0.031 0.007,0.012 0.01,0.025 0.01,0.039 0,0.01 -0.003,0.018 -0.01,0.025 -0.007,0.007 -0.015,0.01 -0.025,0.01 -0.01,0 -0.018,-0.003 -0.025,-0.01 -0.007,-0.007 -0.01,-0.015 -0.01,-0.025 z"
         style="fill:#ffb900;fill-rule:nonzero"
         id="path15982" /></g></g></svg>
