<?xml version="1.0" encoding="UTF-8" standalone="no"?>
<svg
   width="16.844999"
   height="11.58"
   viewBox="0 0 16.844999 11.58"
   version="1.1"
   xml:space="preserve"
   style="clip-rule:evenodd;fill-rule:evenodd;stroke-linejoin:round;stroke-miterlimit:2"
   id="svg20568"
   sodipodi:docname="emojis.svg"
   xmlns:inkscape="http://www.inkscape.org/namespaces/inkscape"
   xmlns:sodipodi="http://sodipodi.sourceforge.net/DTD/sodipodi-0.dtd"
   xmlns="http://www.w3.org/2000/svg"
   xmlns:svg="http://www.w3.org/2000/svg"><defs
     id="defs20572" /><sodipodi:namedview
     id="namedview20570"
     pagecolor="#505050"
     bordercolor="#eeeeee"
     borderopacity="1"
     inkscape:pageshadow="0"
     inkscape:pageopacity="0"
     inkscape:pagecheckerboard="0" /><g
     transform="matrix(0.24,0,0,0.24,-54.405,-802.9482)"
     id="g20566"><g
       transform="matrix(62.5,0,0,62.5,218.875,3391.68)"
       id="g15916"><path
         d="m 1.085,-0.673 0.029,-0.029 h 0.134 v 0.351 H 1.114 L 1.107,-0.357 v 0.252 c 0,0.019 -0.003,0.037 -0.011,0.054 -0.007,0.017 -0.017,0.032 -0.03,0.044 C 1.053,0.006 1.038,0.016 1.021,0.024 1.004,0.031 0.986,0.035 0.967,0.035 H 0.371 C 0.351,0.035 0.333,0.031 0.316,0.024 0.299,0.016 0.285,0.006 0.272,-0.007 0.259,-0.019 0.249,-0.034 0.242,-0.051 0.234,-0.068 0.23,-0.086 0.23,-0.105 V -0.316 H 0.125 v -0.421 h 0.842 c 0.024,0 0.046,0.005 0.067,0.017 0.021,0.011 0.038,0.027 0.051,0.047 z"
         style="fill-rule:nonzero"
         id="path15904" /><path
         d="m 1.073,-0.597 h 0.034 l 0.039,0.064 -0.039,0.076 H 1.073 L 1.038,-0.523 v 0.418 c 0,0.009 -0.002,0.018 -0.006,0.027 C 1.028,-0.07 1.023,-0.062 1.017,-0.056 1.01,-0.05 1.003,-0.045 0.995,-0.041 0.986,-0.037 0.977,-0.035 0.967,-0.035 L 0.914,-0.069 H 0.425 l -0.054,0.034 c -0.01,0 -0.019,-0.002 -0.028,-0.006 C 0.335,-0.045 0.327,-0.05 0.321,-0.056 0.315,-0.062 0.31,-0.07 0.306,-0.078 0.302,-0.087 0.3,-0.096 0.3,-0.105 v -0.281 c 0,-0.003 0,-0.007 -0.002,-0.01 L 0.288,-0.418 C 0.286,-0.422 0.286,-0.425 0.286,-0.429 v -0.182 c 0,-0.001 0,-0.004 0.002,-0.009 C 0.289,-0.626 0.29,-0.632 0.292,-0.638 0.294,-0.645 0.296,-0.651 0.297,-0.657 0.299,-0.663 0.3,-0.666 0.3,-0.667 h 0.667 c 0.01,0 0.019,0.002 0.028,0.006 0.008,0.003 0.015,0.008 0.022,0.015 0.006,0.006 0.011,0.014 0.015,0.022 0.004,0.008 0.006,0.018 0.006,0.027 v 0.058 z"
         style="fill:#e5e5e5;fill-rule:nonzero"
         id="path15906" /><path
         d="M 0.265,-0.386 0.236,-0.432 V -0.616 L 0.265,-0.667 H 0.3 v 0.281 z"
         style="fill:#f2f2f2;fill-rule:nonzero"
         id="path15908" /><path
         d="m 0.406,-0.386 c 0.01,0 0.018,0.003 0.025,0.01 0.006,0.007 0.01,0.015 0.01,0.025 0,0.01 -0.004,0.018 -0.01,0.025 -0.007,0.007 -0.015,0.01 -0.025,0.01 -0.01,0 -0.018,-0.003 -0.025,-0.01 -0.007,-0.007 -0.01,-0.015 -0.01,-0.025 0,-0.01 0.003,-0.018 0.01,-0.025 0.007,-0.007 0.015,-0.01 0.025,-0.01 z"
         style="fill:#f03a17;fill-rule:nonzero"
         id="path15910" /><path
         d="m 0.932,-0.246 c 0.01,0 0.018,0.004 0.025,0.011 0.007,0.006 0.01,0.015 0.01,0.025 v 0.175 H 0.371 V -0.21 c 0,-0.01 0.003,-0.019 0.01,-0.025 0.007,-0.007 0.015,-0.011 0.025,-0.011 z M 0.581,-0.597 h 0.492 v 0.14 H 0.581 c -0.01,0 -0.019,-0.001 -0.027,-0.005 C 0.545,-0.465 0.538,-0.47 0.531,-0.477 0.525,-0.483 0.52,-0.491 0.517,-0.499 0.513,-0.507 0.511,-0.517 0.511,-0.526 c 0,-0.01 0.002,-0.019 0.006,-0.028 0.003,-0.008 0.008,-0.016 0.014,-0.022 0.007,-0.006 0.014,-0.011 0.023,-0.015 0.008,-0.004 0.017,-0.006 0.027,-0.006 z"
         style="fill:#a6a6a6;fill-rule:nonzero"
         id="path15912" /><path
         d="m 0.195,-0.386 v -0.281 h 0.07 v 0.281 z m 0.948,-0.246 h 0.035 v 0.211 H 1.143 L 1.107,-0.457 v -0.14 z m -0.632,0.316 v -0.07 h 0.14 v 0.07 z"
         style="fill:#757575;fill-rule:nonzero"
         id="path15914" /></g></g></svg>
