<?xml version="1.0" encoding="UTF-8" standalone="no"?>
<svg
   width="16.844999"
   height="16.844999"
   viewBox="0 0 16.844999 16.844999"
   version="1.1"
   xml:space="preserve"
   style="clip-rule:evenodd;fill-rule:evenodd;stroke-linejoin:round;stroke-miterlimit:2"
   id="svg20568"
   sodipodi:docname="emojis.svg"
   xmlns:inkscape="http://www.inkscape.org/namespaces/inkscape"
   xmlns:sodipodi="http://sodipodi.sourceforge.net/DTD/sodipodi-0.dtd"
   xmlns="http://www.w3.org/2000/svg"
   xmlns:svg="http://www.w3.org/2000/svg"><defs
     id="defs20572" /><sodipodi:namedview
     id="namedview20570"
     pagecolor="#505050"
     bordercolor="#eeeeee"
     borderopacity="1"
     inkscape:pageshadow="0"
     inkscape:pageopacity="0"
     inkscape:pagecheckerboard="0" /><g
     transform="matrix(0.24,0,0,0.24,-280.9566,-76.77852)"
     id="g20566"><g
       transform="matrix(62.5,0,0,62.5,1162.84,376.973)"
       id="g160"><path
         d="m 1.248,-0.351 c 0,0.037 -0.003,0.073 -0.01,0.109 -0.007,0.036 -0.018,0.07 -0.032,0.104 0.004,0.016 0.007,0.032 0.007,0.048 0,0.021 -0.004,0.04 -0.012,0.059 C 1.194,-0.011 1.183,0.005 1.168,0.02 L 0.985,0.205 0.933,0.153 C 0.895,0.172 0.855,0.186 0.813,0.196 0.772,0.206 0.729,0.21 0.687,0.21 0.635,0.21 0.585,0.204 0.537,0.19 0.49,0.177 0.445,0.158 0.403,0.134 0.362,0.109 0.324,0.08 0.29,0.046 0.255,0.012 0.226,-0.026 0.202,-0.068 0.177,-0.11 0.158,-0.154 0.145,-0.202 0.132,-0.25 0.125,-0.3 0.125,-0.351 0.125,-0.385 0.128,-0.419 0.134,-0.452 0.14,-0.486 0.15,-0.518 0.162,-0.55 0.15,-0.565 0.141,-0.58 0.135,-0.598 0.128,-0.615 0.125,-0.633 0.125,-0.652 c 0,-0.021 0.004,-0.042 0.012,-0.06 0.008,-0.019 0.019,-0.036 0.033,-0.05 0.014,-0.014 0.031,-0.025 0.05,-0.033 0.019,-0.008 0.039,-0.012 0.06,-0.012 0.022,0 0.042,0.004 0.062,0.013 0.05,-0.039 0.104,-0.068 0.163,-0.088 0.058,-0.021 0.119,-0.031 0.182,-0.031 0.058,0 0.116,0.01 0.172,0.028 0.013,-0.009 0.027,-0.016 0.042,-0.021 0.015,-0.004 0.03,-0.007 0.046,-0.007 0.025,0 0.05,0.006 0.073,0.018 0.023,-0.012 0.047,-0.018 0.073,-0.018 0.021,0 0.041,0.004 0.06,0.013 0.019,0.008 0.036,0.019 0.049,0.033 0.014,0.014 0.025,0.031 0.033,0.05 0.008,0.018 0.013,0.039 0.013,0.06 0,0.015 -0.002,0.029 -0.006,0.041 -0.003,0.013 -0.008,0.024 -0.014,0.035 -0.006,0.01 -0.013,0.02 -0.022,0.03 -0.008,0.009 -0.018,0.019 -0.028,0.029 0.023,0.042 0.041,0.086 0.052,0.131 0.012,0.046 0.018,0.092 0.018,0.14 z"
         style="fill-rule:nonzero"
         id="path152" /><path
         d="m 1.178,-0.351 c 0,0.045 -0.006,0.089 -0.018,0.131 -0.012,0.041 -0.028,0.081 -0.049,0.117 -0.022,0.036 -0.047,0.07 -0.077,0.099 C 1.004,0.026 0.971,0.052 0.935,0.073 0.898,0.094 0.859,0.111 0.817,0.123 0.775,0.134 0.732,0.14 0.687,0.14 0.641,0.14 0.598,0.134 0.556,0.123 0.514,0.111 0.475,0.094 0.438,0.073 0.402,0.052 0.369,0.026 0.339,-0.004 0.309,-0.033 0.284,-0.067 0.262,-0.103 0.241,-0.139 0.225,-0.179 0.213,-0.22 0.201,-0.262 0.195,-0.306 0.195,-0.351 c 0,-0.045 0.006,-0.089 0.018,-0.131 0.012,-0.042 0.028,-0.081 0.049,-0.117 0.022,-0.037 0.047,-0.07 0.077,-0.099 0.03,-0.03 0.063,-0.056 0.099,-0.077 0.037,-0.021 0.076,-0.038 0.118,-0.05 0.042,-0.011 0.085,-0.017 0.131,-0.017 0.045,0 0.088,0.006 0.13,0.017 0.042,0.012 0.081,0.029 0.118,0.05 0.036,0.021 0.069,0.047 0.099,0.077 0.03,0.029 0.055,0.062 0.077,0.099 0.021,0.036 0.037,0.075 0.049,0.117 0.012,0.042 0.018,0.086 0.018,0.131 z"
         style="fill:#ffc83d;fill-rule:nonzero"
         id="path154" /><path
         d="m 0.897,-0.491 c 0.015,0 0.028,0.003 0.041,0.008 0.013,0.006 0.024,0.013 0.033,0.023 0.01,0.009 0.018,0.02 0.023,0.033 0.006,0.012 0.008,0.026 0.008,0.041 H 0.967 c 0,-0.01 -0.003,-0.018 -0.01,-0.025 C 0.95,-0.418 0.942,-0.421 0.932,-0.421 H 0.827 c -0.01,0 -0.018,0.003 -0.025,0.01 -0.007,0.007 -0.01,0.015 -0.01,0.025 H 0.757 c 0,-0.015 0.003,-0.029 0.008,-0.041 0.006,-0.013 0.013,-0.024 0.023,-0.033 0.009,-0.01 0.02,-0.017 0.033,-0.023 0.012,-0.005 0.026,-0.008 0.041,-0.008 z m -0.316,0.105 c 0,-0.01 -0.003,-0.018 -0.01,-0.025 -0.007,-0.007 -0.016,-0.01 -0.025,-0.01 H 0.441 c -0.01,0 -0.018,0.003 -0.025,0.01 -0.007,0.007 -0.01,0.015 -0.01,0.025 H 0.371 c 0,-0.015 0.002,-0.029 0.008,-0.041 0.005,-0.013 0.013,-0.024 0.023,-0.033 0.009,-0.01 0.02,-0.017 0.033,-0.023 0.013,-0.005 0.026,-0.008 0.041,-0.008 h 0.035 c 0.015,0 0.029,0.003 0.041,0.008 0.013,0.006 0.024,0.013 0.033,0.023 0.01,0.009 0.017,0.02 0.023,0.033 0.005,0.012 0.008,0.026 0.008,0.041 z m 0.105,0.259 c 0.031,0 0.058,-0.007 0.082,-0.019 0.024,-0.012 0.046,-0.029 0.067,-0.052 0.007,-0.008 0.016,-0.012 0.027,-0.012 0.01,0 0.018,0.003 0.025,0.01 0.007,0.007 0.01,0.015 0.01,0.025 0,0.008 -0.003,0.015 -0.008,0.022 -0.012,0.015 -0.025,0.029 -0.041,0.04 -0.015,0.012 -0.032,0.022 -0.05,0.03 C 0.781,-0.074 0.762,-0.068 0.743,-0.064 0.724,-0.06 0.705,-0.058 0.686,-0.058 0.667,-0.058 0.649,-0.06 0.63,-0.064 0.611,-0.068 0.592,-0.074 0.574,-0.083 0.557,-0.091 0.54,-0.101 0.524,-0.112 0.509,-0.124 0.495,-0.137 0.484,-0.152 0.479,-0.159 0.476,-0.167 0.476,-0.175 c 0,-0.009 0.004,-0.017 0.011,-0.024 0.007,-0.007 0.015,-0.011 0.024,-0.011 0.006,0 0.011,0.001 0.015,0.003 0.005,0.003 0.009,0.006 0.012,0.01 0.021,0.022 0.043,0.039 0.066,0.051 0.024,0.012 0.051,0.019 0.082,0.019 z"
         style="fill-rule:nonzero"
         id="path156" /><path
         d="M 0.353,-0.699 C 0.359,-0.705 0.364,-0.71 0.369,-0.715 0.374,-0.719 0.38,-0.723 0.385,-0.727 0.391,-0.73 0.397,-0.733 0.403,-0.735 0.41,-0.736 0.417,-0.737 0.426,-0.737 c 0.011,0 0.023,0.002 0.033,0.007 0.01,0.004 0.02,0.01 0.027,0.018 0.008,0.008 0.014,0.017 0.019,0.027 0.004,0.011 0.006,0.022 0.006,0.034 0,0.011 -0.002,0.022 -0.006,0.032 -0.005,0.011 -0.011,0.02 -0.019,0.028 L 0.353,-0.457 0.22,-0.591 C 0.212,-0.599 0.206,-0.608 0.202,-0.619 0.197,-0.629 0.195,-0.64 0.195,-0.651 c 0,-0.012 0.003,-0.023 0.007,-0.034 0.004,-0.01 0.01,-0.019 0.018,-0.027 0.008,-0.008 0.017,-0.014 0.027,-0.018 0.01,-0.005 0.022,-0.007 0.033,-0.007 0.008,0 0.016,0.001 0.022,0.002 0.007,0.002 0.013,0.005 0.019,0.008 0.005,0.004 0.011,0.008 0.016,0.012 0.005,0.005 0.01,0.01 0.016,0.016 z M 1.02,-0.804 c 0.011,-0.012 0.021,-0.021 0.032,-0.028 0.011,-0.007 0.024,-0.01 0.041,-0.01 0.011,0 0.023,0.002 0.033,0.007 0.01,0.004 0.019,0.01 0.027,0.018 0.008,0.008 0.014,0.017 0.018,0.027 0.005,0.011 0.007,0.022 0.007,0.034 0,0.011 -0.002,0.022 -0.007,0.032 -0.004,0.011 -0.01,0.02 -0.018,0.028 L 1.02,-0.562 0.887,-0.696 C 0.879,-0.704 0.872,-0.713 0.868,-0.724 0.864,-0.734 0.862,-0.745 0.862,-0.756 c 0,-0.012 0.002,-0.023 0.006,-0.034 0.005,-0.01 0.011,-0.019 0.018,-0.027 0.008,-0.008 0.017,-0.014 0.028,-0.018 0.01,-0.005 0.021,-0.007 0.033,-0.007 0.008,0 0.016,0.001 0.022,0.002 0.007,0.002 0.013,0.005 0.019,0.008 0.006,0.004 0.011,0.008 0.016,0.012 0.005,0.005 0.01,0.01 0.016,0.016 z m -0.035,0.666 c 0.005,-0.005 0.011,-0.01 0.016,-0.015 0.005,-0.005 0.011,-0.009 0.016,-0.012 0.006,-0.004 0.012,-0.006 0.018,-0.008 0.007,-0.002 0.014,-0.003 0.023,-0.003 0.011,0 0.022,0.002 0.033,0.007 0.01,0.005 0.019,0.011 0.027,0.019 0.008,0.007 0.014,0.017 0.018,0.027 0.004,0.01 0.007,0.021 0.007,0.033 0,0.012 -0.003,0.022 -0.007,0.033 -0.004,0.01 -0.01,0.02 -0.018,0.028 L 0.985,0.105 0.852,-0.029 C 0.843,-0.037 0.837,-0.047 0.833,-0.057 0.829,-0.068 0.827,-0.078 0.827,-0.09 c 0,-0.012 0.002,-0.023 0.006,-0.033 0.005,-0.01 0.011,-0.02 0.019,-0.027 0.007,-0.008 0.016,-0.014 0.027,-0.019 0.01,-0.005 0.021,-0.007 0.033,-0.007 0.008,0 0.016,0.001 0.022,0.003 0.007,0.002 0.013,0.004 0.019,0.008 0.005,0.003 0.011,0.007 0.016,0.012 0.005,0.005 0.01,0.01 0.016,0.015 z"
         style="fill:#f03a17;fill-rule:nonzero"
         id="path158" /></g></g></svg>
