<?xml version="1.0" encoding="UTF-8" standalone="no"?>
<svg
   width="13.695"
   height="16.844999"
   viewBox="0 0 13.695 16.844999"
   version="1.1"
   xml:space="preserve"
   style="clip-rule:evenodd;fill-rule:evenodd;stroke-linejoin:round;stroke-miterlimit:2"
   id="svg20568"
   sodipodi:docname="emojis.svg"
   xmlns:inkscape="http://www.inkscape.org/namespaces/inkscape"
   xmlns:sodipodi="http://sodipodi.sourceforge.net/DTD/sodipodi-0.dtd"
   xmlns="http://www.w3.org/2000/svg"
   xmlns:svg="http://www.w3.org/2000/svg"><defs
     id="defs20572" /><sodipodi:namedview
     id="namedview20570"
     pagecolor="#505050"
     bordercolor="#eeeeee"
     borderopacity="1"
     inkscape:pageshadow="0"
     inkscape:pageopacity="0"
     inkscape:pagecheckerboard="0" /><g
     transform="matrix(0.24,0,0,0.24,-283.1478,-800.3082)"
     id="g20566"><g
       transform="matrix(62.5,0,0,62.5,1171.97,3391.68)"
       id="g16088"><path
         d="M 0.3,0.21 C 0.276,0.21 0.253,0.206 0.232,0.197 0.211,0.188 0.192,0.175 0.176,0.159 0.16,0.143 0.148,0.125 0.139,0.103 0.13,0.082 0.125,0.059 0.125,0.035 v -0.772 c 0,-0.024 0.005,-0.047 0.014,-0.068 0.009,-0.022 0.022,-0.04 0.038,-0.056 C 0.192,-0.877 0.211,-0.889 0.232,-0.899 0.253,-0.908 0.276,-0.913 0.3,-0.913 H 1.038 V 0.21 Z"
         style="fill-rule:nonzero"
         id="path16080" /><path
         d="m 0.3,-0.842 c 0.005,0.004 0.01,0.008 0.015,0.012 0.005,0.004 0.01,0.008 0.014,0.013 l 0.603,0.705 V 0.14 H 0.3 C 0.286,0.14 0.272,0.137 0.259,0.132 0.247,0.126 0.236,0.119 0.226,0.109 0.217,0.1 0.209,0.089 0.204,0.076 0.198,0.063 0.195,0.05 0.195,0.035 v -0.772 c 0,-0.015 0.003,-0.029 0.009,-0.041 0.005,-0.013 0.013,-0.024 0.022,-0.034 0.01,-0.009 0.021,-0.016 0.033,-0.022 C 0.272,-0.84 0.286,-0.842 0.3,-0.842 Z"
         style="fill:#107c10;fill-rule:nonzero"
         id="path16082" /><path
         d="M 0.3,-0.035 0.897,-0.326 V 0.105 H 0.3 C 0.291,0.105 0.281,0.103 0.273,0.1 0.264,0.096 0.257,0.091 0.251,0.085 0.244,0.078 0.239,0.071 0.236,0.062 0.232,0.054 0.23,0.045 0.23,0.035 0.23,0.025 0.232,0.016 0.236,0.008 0.239,-0.001 0.244,-0.008 0.251,-0.014 0.257,-0.021 0.264,-0.026 0.273,-0.03 0.281,-0.033 0.291,-0.035 0.3,-0.035 Z"
         style="fill:#f2f2f2;fill-rule:nonzero"
         id="path16084" /><rect
         x="0.30000001"
         y="-0.84200001"
         width="0.667"
         height="0.80699998"
         style="fill:#16c60c;fill-rule:nonzero"
         id="rect16086" /></g></g></svg>
