<?xml version="1.0" encoding="UTF-8" standalone="no"?>
<svg
   width="15.27"
   height="13.68"
   viewBox="0 0 15.27 13.68"
   version="1.1"
   xml:space="preserve"
   style="clip-rule:evenodd;fill-rule:evenodd;stroke-linejoin:round;stroke-miterlimit:2"
   id="svg20568"
   sodipodi:docname="emojis.svg"
   xmlns:inkscape="http://www.inkscape.org/namespaces/inkscape"
   xmlns:sodipodi="http://sodipodi.sourceforge.net/DTD/sodipodi-0.dtd"
   xmlns="http://www.w3.org/2000/svg"
   xmlns:svg="http://www.w3.org/2000/svg"><defs
     id="defs20572" /><sodipodi:namedview
     id="namedview20570"
     pagecolor="#505050"
     bordercolor="#eeeeee"
     borderopacity="1"
     inkscape:pageshadow="0"
     inkscape:pageopacity="0"
     inkscape:pagecheckerboard="0" /><g
     transform="matrix(0.24,0,0,0.24,-493.5366,-130.85424)"
     id="g20566"><g
       transform="matrix(62.5,0,0,62.5,2048.59,589.101)"
       id="g1602"><path
         d="M 0.757,0.21 C 0.739,0.21 0.722,0.208 0.706,0.203 0.69,0.198 0.675,0.191 0.661,0.181 0.647,0.172 0.634,0.161 0.623,0.148 0.612,0.135 0.603,0.121 0.596,0.105 H 0.476 C 0.458,0.105 0.442,0.103 0.425,0.098 0.409,0.093 0.394,0.086 0.38,0.077 0.366,0.068 0.353,0.056 0.342,0.043 0.331,0.03 0.322,0.016 0.315,0 H 0.3 C 0.276,0 0.253,-0.005 0.232,-0.014 0.211,-0.023 0.192,-0.036 0.177,-0.052 0.161,-0.068 0.148,-0.086 0.139,-0.108 0.13,-0.129 0.125,-0.152 0.125,-0.176 V -0.421 C 0.125,-0.445 0.13,-0.468 0.139,-0.49 0.148,-0.511 0.161,-0.529 0.177,-0.545 0.192,-0.561 0.211,-0.573 0.232,-0.583 0.253,-0.592 0.276,-0.597 0.3,-0.597 H 0.315 C 0.322,-0.613 0.331,-0.627 0.342,-0.64 0.353,-0.653 0.366,-0.664 0.38,-0.673 0.394,-0.682 0.409,-0.69 0.425,-0.695 0.442,-0.7 0.458,-0.702 0.476,-0.702 h 0.351 c 0.029,0 0.056,0.005 0.082,0.016 0.025,0.012 0.048,0.027 0.067,0.046 0.019,0.019 0.034,0.041 0.045,0.067 0.011,0.025 0.017,0.053 0.017,0.082 v 0.049 c 0.016,0.007 0.03,0.016 0.043,0.027 0.013,0.012 0.024,0.024 0.033,0.038 0.009,0.014 0.016,0.029 0.021,0.045 0.005,0.017 0.008,0.034 0.008,0.051 v 0.211 c 0,0.024 -0.005,0.046 -0.014,0.067 C 1.121,0.017 1.108,0.036 1.091,0.054 1.056,0.091 1.019,0.127 0.981,0.161 0.963,0.177 0.945,0.189 0.926,0.198 0.907,0.206 0.886,0.21 0.862,0.21 Z"
         style="fill-rule:nonzero"
         id="path1596" /><path
         d="m 0.827,-0.632 c 0.019,0 0.038,0.004 0.055,0.011 0.017,0.007 0.032,0.017 0.044,0.03 0.013,0.013 0.023,0.028 0.03,0.045 0.008,0.017 0.011,0.035 0.011,0.055 v 0.07 c 0,0.061 0.001,0.121 0.004,0.18 0.002,0.059 0.003,0.119 0.003,0.18 0,0.014 -0.003,0.028 -0.008,0.04 C 0.96,-0.009 0.952,0.002 0.942,0.012 0.933,0.021 0.921,0.029 0.909,0.034 0.896,0.039 0.883,0.042 0.869,0.042 0.832,0.042 0.796,0.041 0.76,0.039 0.724,0.036 0.688,0.035 0.651,0.035 H 0.581 L 0.573,0.032 C 0.571,0.032 0.569,0.031 0.568,0.03 0.566,0.03 0.565,0.029 0.565,0.029 0.562,0.031 0.559,0.032 0.555,0.033 0.551,0.034 0.547,0.035 0.542,0.035 0.537,0.036 0.533,0.036 0.529,0.036 c -0.004,0 -0.008,0 -0.011,0 L 0.476,0.035 C 0.461,0.035 0.448,0.032 0.435,0.027 0.422,0.021 0.411,0.014 0.402,0.004 0.392,-0.005 0.384,-0.017 0.379,-0.029 0.373,-0.042 0.371,-0.056 0.371,-0.07 L 0.355,-0.076 c 0,0 -0.001,0 -0.001,0 0,0 0,0 0,0 -0.006,0.002 -0.011,0.003 -0.015,0.004 -0.005,0.001 -0.01,0.002 -0.015,0.002 H 0.3 C 0.286,-0.07 0.272,-0.073 0.259,-0.079 0.247,-0.084 0.236,-0.092 0.226,-0.101 0.217,-0.111 0.209,-0.122 0.204,-0.135 0.198,-0.147 0.195,-0.161 0.195,-0.176 v -0.245 c 0,-0.015 0.003,-0.029 0.009,-0.041 0.005,-0.013 0.013,-0.024 0.022,-0.034 0.01,-0.009 0.021,-0.017 0.033,-0.022 0.013,-0.006 0.027,-0.008 0.041,-0.008 h 0.071 c 0,-0.015 0.002,-0.029 0.008,-0.041 0.005,-0.013 0.013,-0.024 0.023,-0.034 0.009,-0.009 0.02,-0.017 0.033,-0.023 0.013,-0.005 0.026,-0.008 0.041,-0.008 z"
         style="fill:#ffc83d;fill-rule:nonzero"
         id="path1598" /><path
         d="m 0.967,-0.386 c 0.015,0 0.029,0.003 0.041,0.008 0.013,0.006 0.024,0.013 0.034,0.023 0.009,0.009 0.017,0.021 0.022,0.033 0.006,0.013 0.009,0.027 0.009,0.041 v 0.211 c 0,0.013 -0.003,0.027 -0.009,0.04 -0.005,0.014 -0.013,0.025 -0.022,0.034 L 0.932,0.111 C 0.912,0.13 0.889,0.14 0.862,0.14 H 0.757 C 0.742,0.14 0.729,0.137 0.716,0.132 0.703,0.126 0.692,0.119 0.682,0.109 0.673,0.1 0.665,0.089 0.66,0.076 0.654,0.063 0.651,0.05 0.651,0.035 h 0.106 v -0.333 c 0,-0.005 0.002,-0.009 0.005,-0.013 0.003,-0.003 0.008,-0.005 0.012,-0.005 0.005,0 0.009,0.002 0.013,0.005 0.003,0.004 0.005,0.008 0.005,0.013 v 0.333 h 0.07 C 0.876,0.035 0.89,0.032 0.903,0.027 0.916,0.021 0.927,0.014 0.936,0.004 0.946,-0.005 0.953,-0.017 0.959,-0.029 0.965,-0.042 0.967,-0.056 0.967,-0.07 Z m -0.404,0.07 c 0.005,0 0.01,0.002 0.013,0.005 0.003,0.004 0.005,0.008 0.005,0.013 V 0.035 H 0.546 v -0.333 c 0,-0.005 0.002,-0.009 0.005,-0.013 0.004,-0.003 0.008,-0.005 0.012,-0.005 z m -0.21,0 c 0.005,0 0.009,0.002 0.012,0.005 0.004,0.004 0.006,0.008 0.006,0.013 V -0.07 H 0.335 v -0.228 c 0,-0.005 0.002,-0.009 0.006,-0.013 0.003,-0.003 0.007,-0.005 0.012,-0.005 z"
         style="fill:#d48c00;fill-rule:nonzero"
         id="path1600" /></g></g></svg>
