<?xml version="1.0" encoding="UTF-8" standalone="no"?>
<svg
   width="13.695"
   height="16.844999"
   viewBox="0 0 13.695 16.844999"
   version="1.1"
   xml:space="preserve"
   style="clip-rule:evenodd;fill-rule:evenodd;stroke-linejoin:round;stroke-miterlimit:2"
   id="svg20568"
   sodipodi:docname="emojis.svg"
   xmlns:inkscape="http://www.inkscape.org/namespaces/inkscape"
   xmlns:sodipodi="http://sodipodi.sourceforge.net/DTD/sodipodi-0.dtd"
   xmlns="http://www.w3.org/2000/svg"
   xmlns:svg="http://www.w3.org/2000/svg"><defs
     id="defs20572" /><sodipodi:namedview
     id="namedview20570"
     pagecolor="#505050"
     bordercolor="#eeeeee"
     borderopacity="1"
     inkscape:pageshadow="0"
     inkscape:pageopacity="0"
     inkscape:pagecheckerboard="0" /><g
     transform="matrix(0.24,0,0,0.24,-227.67396,-800.3082)"
     id="g20566"><g
       transform="matrix(62.5,0,0,62.5,940.829,3391.68)"
       id="g16054"><path
         d="M 0.3,0.21 C 0.276,0.21 0.253,0.206 0.232,0.197 0.211,0.188 0.192,0.175 0.176,0.159 0.16,0.143 0.148,0.125 0.139,0.103 0.13,0.082 0.125,0.059 0.125,0.035 v -0.772 c 0,-0.024 0.005,-0.047 0.014,-0.068 0.009,-0.022 0.022,-0.04 0.038,-0.056 C 0.192,-0.877 0.211,-0.889 0.232,-0.899 0.253,-0.908 0.276,-0.913 0.3,-0.913 H 1.038 V 0.21 Z"
         style="fill-rule:nonzero"
         id="path16044" /><path
         d="m 0.3,-0.842 c 0.008,0.005 0.016,0.011 0.024,0.016 0.008,0.005 0.015,0.012 0.021,0.019 l 0.587,0.664 V 0.14 H 0.3 C 0.286,0.14 0.272,0.137 0.259,0.132 0.247,0.126 0.236,0.119 0.226,0.109 0.217,0.1 0.209,0.089 0.204,0.076 0.198,0.063 0.195,0.05 0.195,0.035 v -0.772 c 0,-0.015 0.003,-0.029 0.009,-0.041 0.005,-0.013 0.013,-0.024 0.022,-0.034 0.01,-0.009 0.021,-0.016 0.033,-0.022 C 0.272,-0.84 0.286,-0.842 0.3,-0.842 Z"
         style="fill:#d8b094;fill-rule:nonzero"
         id="path16046" /><path
         d="m 0.967,-0.842 v 0.807 H 0.897 L 0.857,0.011 H 0.3 v -0.853 z"
         style="fill:#f7d7c4;fill-rule:nonzero"
         id="path16048" /><path
         d="m 0.3,-0.035 h 0.597 v 0.14 H 0.3 C 0.291,0.105 0.281,0.103 0.273,0.1 0.264,0.096 0.257,0.091 0.251,0.085 0.244,0.078 0.239,0.071 0.236,0.062 0.232,0.054 0.23,0.045 0.23,0.035 0.23,0.025 0.232,0.016 0.236,0.008 0.239,-0.001 0.244,-0.008 0.251,-0.014 0.257,-0.021 0.264,-0.026 0.273,-0.03 0.281,-0.033 0.291,-0.035 0.3,-0.035 Z"
         style="fill:#f2f2f2;fill-rule:nonzero"
         id="path16050" /><path
         d="M 0.757,-0.526 H 0.511 c 0,-0.01 -0.003,-0.018 -0.01,-0.025 C 0.494,-0.558 0.486,-0.562 0.476,-0.562 v -0.105 c 0.01,0 0.018,-0.003 0.025,-0.01 0.007,-0.007 0.01,-0.016 0.01,-0.025 h 0.246 c 0,0.01 0.003,0.018 0.01,0.025 0.007,0.007 0.015,0.01 0.025,0.01 v 0.105 c -0.01,0 -0.018,0.004 -0.025,0.011 -0.007,0.007 -0.01,0.015 -0.01,0.025 z"
         style="fill:#dfbe00;fill-rule:nonzero"
         id="path16052" /></g></g></svg>
