<?xml version="1.0" encoding="UTF-8" standalone="no"?>
<svg
   width="13.695"
   height="16.844999"
   viewBox="0 0 13.695 16.844999"
   version="1.1"
   xml:space="preserve"
   style="clip-rule:evenodd;fill-rule:evenodd;stroke-linejoin:round;stroke-miterlimit:2"
   id="svg20568"
   sodipodi:docname="emojis.svg"
   xmlns:inkscape="http://www.inkscape.org/namespaces/inkscape"
   xmlns:sodipodi="http://sodipodi.sourceforge.net/DTD/sodipodi-0.dtd"
   xmlns="http://www.w3.org/2000/svg"
   xmlns:svg="http://www.w3.org/2000/svg"><defs
     id="defs20572" /><sodipodi:namedview
     id="namedview20570"
     pagecolor="#505050"
     bordercolor="#eeeeee"
     borderopacity="1"
     inkscape:pageshadow="0"
     inkscape:pageopacity="0"
     inkscape:pagecheckerboard="0" /><g
     transform="matrix(0.24,0,0,0.24,-429.507,-800.3082)"
     id="g20566"><g
       transform="matrix(62.5,0,0,62.5,1781.8,3391.68)"
       id="g16186"><path
         d="m 0.856,-0.913 0.182,0.182 V 0.21 H 0.125 v -1.123 z"
         style="fill-rule:nonzero"
         id="path16178" /><path
         d="m 0.786,-0.659 v -0.136 l 0.041,-0.047 0.14,0.14 -0.046,0.042 z"
         style="fill:#e5e5e5;fill-rule:nonzero"
         id="path16180" /><path
         d="m 0.827,-0.702 h 0.14 V 0.14 H 0.195 v -0.982 h 0.632 z"
         style="fill:#ffffff;fill-rule:nonzero"
         id="path16182" /><path
         d="m 0.265,-0.632 h 0.632 v 0.035 H 0.265 Z m 0,0.351 v -0.035 h 0.632 v 0.035 z m 0,0.211 v -0.035 h 0.597 v 0.035 z m 0.597,-0.351 v 0.035 H 0.265 V -0.421 Z M 0.827,-0.526 v 0.035 H 0.265 v -0.035 z m 0,0.316 v 0.034 H 0.265 V -0.21 Z M 0.581,-0.737 v 0.035 H 0.265 V -0.737 Z M 0.265,0.035 V 0 h 0.141 v 0.035 z"
         style="fill:#a6a6a6;fill-rule:nonzero"
         id="path16184" /></g></g></svg>
