<?xml version="1.0" encoding="UTF-8" standalone="no"?>
<svg
   width="16.844999"
   height="10.53"
   viewBox="0 0 16.844999 10.53"
   version="1.1"
   xml:space="preserve"
   style="clip-rule:evenodd;fill-rule:evenodd;stroke-linejoin:round;stroke-miterlimit:2"
   id="svg20568"
   sodipodi:docname="emojis.svg"
   xmlns:inkscape="http://www.inkscape.org/namespaces/inkscape"
   xmlns:sodipodi="http://sodipodi.sourceforge.net/DTD/sodipodi-0.dtd"
   xmlns="http://www.w3.org/2000/svg"
   xmlns:svg="http://www.w3.org/2000/svg"><defs
     id="defs20572" /><sodipodi:namedview
     id="namedview20570"
     pagecolor="#505050"
     bordercolor="#eeeeee"
     borderopacity="1"
     inkscape:pageshadow="0"
     inkscape:pageopacity="0"
     inkscape:pagecheckerboard="0" /><g
     transform="matrix(0.24,0,0,0.24,-512.5566,-131.90424)"
     id="g20566"><g
       transform="matrix(62.5,0,0,62.5,2127.84,589.101)"
       id="g1610"><path
         d="M 0.488,0.07 C 0.473,0.07 0.458,0.068 0.444,0.062 0.429,0.057 0.417,0.05 0.405,0.04 0.393,0.031 0.384,0.02 0.376,0.007 0.368,-0.006 0.362,-0.02 0.358,-0.035 H 0.3 C 0.276,-0.035 0.253,-0.04 0.232,-0.049 0.211,-0.058 0.192,-0.07 0.176,-0.086 0.16,-0.102 0.148,-0.121 0.139,-0.142 0.13,-0.164 0.125,-0.186 0.125,-0.21 v -0.247 c 0,-0.024 0.005,-0.046 0.014,-0.068 0.009,-0.021 0.022,-0.04 0.038,-0.055 0.015,-0.016 0.034,-0.029 0.055,-0.038 0.021,-0.009 0.044,-0.014 0.068,-0.014 h 0.843 c 0.014,0 0.028,0.003 0.041,0.008 0.012,0.006 0.023,0.014 0.033,0.023 0.01,0.01 0.017,0.021 0.023,0.034 0.005,0.012 0.008,0.026 0.008,0.041 v 0.245 c 0,0.015 -0.003,0.029 -0.008,0.041 -0.006,0.013 -0.013,0.024 -0.023,0.033 -0.01,0.01 -0.021,0.017 -0.033,0.023 -0.013,0.005 -0.027,0.008 -0.041,0.008 H 0.85 C 0.842,-0.154 0.832,-0.135 0.818,-0.117 0.805,-0.1 0.789,-0.085 0.771,-0.073 0.754,-0.061 0.735,-0.051 0.714,-0.045 0.693,-0.038 0.671,-0.035 0.648,-0.035 0.637,-0.024 0.625,-0.012 0.614,0.001 0.602,0.013 0.59,0.025 0.578,0.035 0.565,0.045 0.551,0.054 0.537,0.06 0.522,0.067 0.506,0.07 0.488,0.07 Z"
         style="fill-rule:nonzero"
         id="path1604" /><path
         d="m 0.3,-0.562 h 0.843 c 0.009,0 0.018,0.004 0.024,0.011 0.007,0.007 0.011,0.015 0.011,0.025 v 0.245 c 0,0.01 -0.004,0.018 -0.011,0.025 -0.006,0.007 -0.015,0.01 -0.024,0.01 H 0.792 c 0,0.02 -0.004,0.038 -0.011,0.055 C 0.773,-0.174 0.763,-0.16 0.75,-0.147 0.737,-0.134 0.722,-0.124 0.705,-0.117 0.688,-0.109 0.67,-0.105 0.651,-0.105 H 0.619 L 0.531,-0.018 C 0.526,-0.013 0.519,-0.008 0.512,-0.005 0.504,-0.002 0.496,0 0.488,0 0.479,0 0.471,-0.002 0.464,-0.005 0.456,-0.009 0.449,-0.014 0.443,-0.02 0.438,-0.026 0.433,-0.033 0.43,-0.041 0.426,-0.049 0.425,-0.057 0.425,-0.066 0.425,-0.073 0.426,-0.081 0.429,-0.087 0.432,-0.094 0.436,-0.1 0.441,-0.105 L 0.432,-0.121 0.396,-0.105 H 0.3 C 0.286,-0.105 0.272,-0.108 0.259,-0.114 0.247,-0.119 0.236,-0.127 0.226,-0.136 0.217,-0.146 0.209,-0.157 0.204,-0.169 0.198,-0.182 0.195,-0.196 0.195,-0.21 v -0.247 c 0,-0.014 0.003,-0.028 0.009,-0.041 C 0.209,-0.51 0.217,-0.521 0.226,-0.531 0.236,-0.54 0.247,-0.548 0.259,-0.553 0.272,-0.559 0.286,-0.562 0.3,-0.562 Z"
         style="fill:#ffc83d;fill-rule:nonzero"
         id="path1606" /><path
         d="M 0.381,-0.246 0.306,-0.321 C 0.302,-0.325 0.3,-0.329 0.3,-0.333 c 0,-0.005 0.002,-0.009 0.006,-0.012 0.003,-0.004 0.007,-0.006 0.012,-0.006 0.005,0 0.009,0.002 0.013,0.005 l 0.075,0.075 v -0.133 c 0,-0.005 10e-4,-0.009 0.005,-0.012 0.003,-0.004 0.007,-0.005 0.012,-0.005 0.005,0 0.009,0.001 0.013,0.005 0.003,0.003 0.005,0.007 0.005,0.012 v 0.091 C 0.449,-0.322 0.457,-0.329 0.466,-0.334 0.474,-0.339 0.483,-0.343 0.492,-0.345 0.5,-0.348 0.51,-0.349 0.519,-0.35 0.528,-0.351 0.538,-0.351 0.548,-0.351 H 0.579 C 0.577,-0.361 0.573,-0.371 0.568,-0.379 0.563,-0.388 0.556,-0.395 0.549,-0.401 0.541,-0.408 0.533,-0.412 0.523,-0.416 0.514,-0.42 0.504,-0.421 0.494,-0.421 0.489,-0.421 0.485,-0.423 0.481,-0.427 0.478,-0.43 0.476,-0.434 0.476,-0.439 c 0,-0.005 0.002,-0.009 0.005,-0.012 0.004,-0.004 0.008,-0.006 0.013,-0.006 0.018,0 0.034,0.004 0.049,0.011 0.015,0.007 0.028,0.016 0.039,0.028 0.011,0.011 0.019,0.025 0.025,0.041 0.006,0.015 0.009,0.032 0.009,0.049 L 0.441,-0.105 H 0.396 L 0.562,-0.316 H 0.529 c -0.013,0 -0.024,0.002 -0.035,0.007 -0.01,0.004 -0.019,0.011 -0.027,0.019 -0.008,0.008 -0.015,0.017 -0.019,0.028 -0.005,0.011 -0.007,0.022 -0.007,0.034 0,0.005 -0.002,0.009 -0.005,0.012 -0.004,0.004 -0.008,0.006 -0.013,0.006 h -0.14 c -0.005,0 -0.009,-0.002 -0.012,-0.006 -0.004,-0.003 -0.006,-0.007 -0.006,-0.012 0,-0.005 0.002,-0.009 0.006,-0.012 0.003,-0.004 0.007,-0.006 0.012,-0.006 z"
         style="fill:#d48c00;fill-rule:nonzero"
         id="path1608" /></g></g></svg>
