<?xml version="1.0" encoding="UTF-8" standalone="no"?>
<svg
   width="13.695"
   height="16.844999"
   viewBox="0 0 13.695 16.844999"
   version="1.1"
   xml:space="preserve"
   style="clip-rule:evenodd;fill-rule:evenodd;stroke-linejoin:round;stroke-miterlimit:2"
   id="svg20568"
   sodipodi:docname="emojis.svg"
   xmlns:inkscape="http://www.inkscape.org/namespaces/inkscape"
   xmlns:sodipodi="http://sodipodi.sourceforge.net/DTD/sodipodi-0.dtd"
   xmlns="http://www.w3.org/2000/svg"
   xmlns:svg="http://www.w3.org/2000/svg"><defs
     id="defs20572" /><sodipodi:namedview
     id="namedview20570"
     pagecolor="#505050"
     bordercolor="#eeeeee"
     borderopacity="1"
     inkscape:pageshadow="0"
     inkscape:pageopacity="0"
     inkscape:pagecheckerboard="0" /><g
     transform="matrix(0.24,0,0,0.24,-354.4854,-800.3082)"
     id="g20566"><g
       transform="matrix(62.5,0,0,62.5,1469.21,3391.68)"
       id="g16144"><path
         d="M 0.3,0.21 C 0.276,0.21 0.253,0.206 0.232,0.197 0.211,0.188 0.192,0.175 0.176,0.159 0.16,0.143 0.148,0.125 0.139,0.103 0.13,0.082 0.125,0.059 0.125,0.035 v -0.772 c 0,-0.024 0.005,-0.047 0.014,-0.068 0.009,-0.022 0.022,-0.04 0.038,-0.056 C 0.192,-0.877 0.211,-0.889 0.232,-0.899 0.253,-0.908 0.276,-0.913 0.3,-0.913 H 1.038 V 0.21 Z"
         style="fill-rule:nonzero"
         id="path16132" /><path
         d="m 0.3,-0.842 c 0.006,0.006 0.011,0.011 0.017,0.017 0.005,0.006 0.011,0.012 0.016,0.018 l 0.599,0.689 v 0.039 l 0.035,0.044 V 0.14 H 0.3 C 0.286,0.14 0.272,0.137 0.259,0.132 0.247,0.126 0.236,0.119 0.226,0.109 0.217,0.1 0.209,0.089 0.204,0.076 0.198,0.063 0.195,0.05 0.195,0.035 v -0.772 c 0,-0.015 0.003,-0.029 0.009,-0.041 0.005,-0.013 0.013,-0.024 0.022,-0.034 0.01,-0.009 0.021,-0.016 0.033,-0.022 C 0.272,-0.84 0.286,-0.842 0.3,-0.842 Z"
         style="fill:#383838;fill-rule:nonzero"
         id="path16134" /><path
         d="m 0.967,-0.807 -0.025,0.017 0.025,0.018 v 0.035 l -0.03,0.036 0.03,0.034 v 0.036 l -0.032,0.017 0.032,0.017 v 0.036 l -0.031,0.035 0.031,0.034 v 0.036 l -0.03,0.017 0.03,0.018 v 0.035 l -0.031,0.036 0.031,0.034 v 0.036 c -0.009,0.004 -0.015,0.012 -0.02,0.021 -0.004,0.01 -0.007,0.02 -0.007,0.03 0,0.01 0.003,0.02 0.008,0.03 0.004,0.01 0.011,0.018 0.019,0.023 v 0.036 l -0.03,0.035 0.03,0.035 v 0.035 H 0.932 v 0.14 H 0.3 C 0.291,0.105 0.281,0.103 0.273,0.1 0.264,0.096 0.257,0.091 0.251,0.085 0.244,0.078 0.239,0.071 0.236,0.062 0.232,0.054 0.23,0.045 0.23,0.035 0.23,0.025 0.232,0.016 0.236,0.008 0.239,-0.001 0.244,-0.008 0.251,-0.014 0.257,-0.021 0.264,-0.026 0.273,-0.03 0.281,-0.033 0.291,-0.035 0.3,-0.035 L 0.329,-0.057 V -0.224 L 0.3,-0.245 V -0.281 L 0.333,-0.336 0.3,-0.386 v -0.07 L 0.331,-0.475 0.3,-0.491 V -0.562 L 0.329,-0.598 0.3,-0.631 V -0.702 L 0.328,-0.737 0.3,-0.771 V -0.808 C 0.311,-0.814 0.323,-0.82 0.334,-0.826 0.346,-0.832 0.358,-0.838 0.37,-0.842 h 0.036 l 0.017,0.026 0.017,-0.026 h 0.071 l 0.016,0.026 0.019,-0.026 h 0.036 l 0.034,0.026 0.035,-0.026 h 0.036 c 0.004,0.005 0.01,0.01 0.017,0.014 0.007,0.004 0.015,0.007 0.023,0.009 0.008,0.003 0.016,0.005 0.025,0.006 0.008,10e-4 0.016,10e-4 0.023,10e-4 0.007,0 0.014,0 0.023,-10e-4 0.008,-0.001 0.016,-0.003 0.024,-0.005 0.008,-0.003 0.016,-0.006 0.023,-0.01 0.007,-0.004 0.013,-0.008 0.017,-0.014 h 0.035 l 0.018,0.025 0.017,-0.025 h 0.035 z"
         style="fill:#f2f2f2;fill-rule:nonzero"
         id="path16136" /><path
         d="m 0.616,-0.105 v 0.035 h 0.071 v 0.035 H 0.616 V -0.07 H 0.581 v 0.035 H 0.511 V -0.07 H 0.476 V -0.105 H 0.441 V -0.141 H 0.406 V -0.21 H 0.371 V -0.246 H 0.335 V -0.281 H 0.3 v -0.105 h 0.035 v 0.035 H 0.371 V -0.386 H 0.335 V -0.457 H 0.3 v -0.034 h 0.071 v 0.034 H 0.406 V -0.491 H 0.371 V -0.526 H 0.335 V -0.562 H 0.3 v -0.07 h 0.035 v -0.07 H 0.3 v -0.07 H 0.335 V -0.807 H 0.3 v -0.035 h 0.071 v 0.035 h 0.035 v 0.035 H 0.441 V -0.807 H 0.406 v -0.035 h 0.035 v 0.035 h 0.07 v 0.105 h 0.035 v 0.07 H 0.511 v -0.07 H 0.476 V -0.737 H 0.441 v 0.035 h 0.035 v 0.07 H 0.441 v 0.035 h 0.02 c 0.01,0 0.019,0 0.028,0.001 0.009,0 0.018,0 0.028,0 -0.001,0.006 -0.002,0.011 -0.004,0.017 -0.001,0.006 -0.002,0.012 -0.002,0.017 v 0.036 c 0,0.011 0.001,0.023 0.001,0.035 h 0.034 v -0.007 h 0.07 v 0.077 h 0.071 v 0.035 h 0.035 v 0.035 h 0.035 v 0.07 h 0.035 v 0.035 h 0.035 v 0.036 h 0.035 v 0.035 H 0.897 V -0.21 H 0.862 V -0.246 H 0.827 V -0.281 H 0.792 v -0.07 H 0.757 v -0.07 H 0.687 V -0.457 L 0.704,-0.486 0.722,-0.491 H 0.708 V -0.526 H 0.792 V -0.562 H 0.708 V -0.597 H 0.792 V -0.632 H 0.687 v -0.07 H 0.651 V -0.737 H 0.616 V -0.772 H 0.581 v -0.07 h 0.07 v 0.035 H 0.616 v 0.035 h 0.035 v 0.035 h 0.071 v 0.035 h 0.035 v 0.035 h 0.035 v 0.035 H 0.827 V -0.667 H 0.792 V -0.702 H 0.757 V -0.737 H 0.722 V -0.772 H 0.687 v -0.07 h 0.175 v 0.07 h 0.07 v 0.035 h 0.035 v 0.07 H 0.932 v 0.035 h 0.035 v 0.035 H 0.932 v 0.035 h 0.035 v 0.071 H 0.932 V -0.526 H 0.897 V -0.562 H 0.862 V -0.597 H 0.827 v 0.035 h 0.035 v 0.036 h 0.035 v 0.035 h 0.035 v 0.034 h 0.035 v 0.036 H 0.932 v 0.035 h 0.035 v 0.07 H 0.932 v -0.07 H 0.897 V -0.421 H 0.862 v 0.035 h 0.035 v 0.07 h 0.035 v 0.035 h 0.035 v 0.106 H 0.932 v 0.034 H 0.967 V -0.07 H 0.932 V -0.141 H 0.897 v 0.071 h 0.035 v 0.035 H 0.897 V -0.07 H 0.862 V -0.105 H 0.827 v 0.035 h 0.035 v 0.035 H 0.792 V -0.07 H 0.757 V -0.141 H 0.722 V -0.175 H 0.687 V -0.21 H 0.651 v 0.069 h 0.071 v 0.071 h 0.035 v 0.035 H 0.722 V -0.07 H 0.687 V -0.105 H 0.616 V -0.141 H 0.546 V -0.175 H 0.511 V -0.21 H 0.476 V -0.246 H 0.441 V -0.281 H 0.371 V -0.316 H 0.335 v 0.035 h 0.036 v 0.035 h 0.07 v 0.036 h 0.035 v 0.035 h 0.035 v 0.034 h 0.035 v 0.036 z M 0.441,-0.07 h 0.035 v 0.035 H 0.406 V -0.07 H 0.371 V -0.105 H 0.335 v 0.035 h 0.036 v 0.035 H 0.3 v -0.211 h 0.035 v 0.036 h 0.036 v 0.035 H 0.335 v 0.034 h 0.071 v 0.036 H 0.441 Z M 0.476,-0.491 H 0.441 V -0.526 H 0.406 v 0.035 h 0.035 v 0.07 h 0.035 v 0.07 h 0.105 v -0.035 h 0.035 v 0.035 H 0.651 V -0.386 H 0.616 V -0.421 H 0.546 V -0.49 l -0.035,0.033 v 0.036 h 0.035 v 0.035 H 0.511 V -0.421 H 0.476 Z m -0.105,0.105 h 0.035 v 0.035 h 0.035 v 0.07 h 0.035 v 0.035 h 0.07 v -0.035 h 0.035 v -0.035 h -0.07 v 0.035 H 0.476 v -0.07 H 0.441 V -0.386 H 0.406 V -0.421 H 0.371 Z m 0.386,0.245 H 0.792 V -0.175 H 0.757 V -0.21 H 0.722 V -0.246 H 0.687 v -0.07 H 0.616 v 0.035 h 0.035 v 0.035 h 0.036 v 0.036 h 0.035 v 0.035 H 0.757 Z M 0.862,-0.386 H 0.827 V -0.421 H 0.792 v -0.07 H 0.757 v 0.07 h 0.035 v 0.035 h 0.035 v 0.035 h 0.035 z m 0,0.105 V -0.316 H 0.827 v 0.035 h 0.035 v 0.035 H 0.897 V -0.21 H 0.932 V -0.246 H 0.897 V -0.281 Z M 0.335,-0.702 h 0.036 v 0.035 h 0.035 v -0.07 H 0.335 Z m 0.281,0 h -0.07 v -0.07 h 0.035 v 0.035 h 0.035 z m 0.246,-0.07 H 0.827 V -0.807 H 0.792 v 0.07 h 0.07 z m 0.105,0 H 0.932 V -0.807 H 0.897 v -0.035 h 0.035 v 0.035 h 0.035 z m -0.561,0.21 H 0.371 V -0.597 H 0.335 v 0.035 h 0.036 v 0.036 h 0.035 z m 0.491,0.071 H 0.862 V -0.526 H 0.827 v 0.035 h 0.035 v 0.034 H 0.897 Z M 0.371,-0.597 H 0.406 V -0.632 H 0.371 Z m 0.175,0.422 H 0.581 V -0.21 H 0.546 Z M 0.722,-0.246 H 0.757 V -0.281 H 0.722 Z M 0.581,-0.21 H 0.616 V -0.246 H 0.581 Z M 0.722,-0.772 H 0.757 V -0.807 H 0.722 Z m 0.21,0.035 H 0.897 v 0.035 h 0.035 z m -0.07,0.07 H 0.897 V -0.702 H 0.862 Z m -0.14,0.316 H 0.687 v 0.035 h 0.035 z m 0.14,-0.246 H 0.897 V -0.632 H 0.862 Z M 0.546,-0.807 H 0.511 v -0.035 h 0.035 z m 0.316,0.632 H 0.827 v 0.034 h 0.035 z m -0.386,0 H 0.441 v 0.034 h 0.035 z"
         style="fill:#757575;fill-rule:nonzero"
         id="path16138" /><path
         d="M 0.722,-0.457 H 0.511 C 0.502,-0.457 0.494,-0.46 0.487,-0.467 0.48,-0.474 0.476,-0.482 0.476,-0.491 v -0.141 c 0,-0.009 0.004,-0.017 0.011,-0.024 0.007,-0.007 0.015,-0.011 0.024,-0.011 h 0.211 c 0.009,0 0.017,0.004 0.024,0.011 0.007,0.007 0.011,0.015 0.011,0.024 v 0.141 c 0,0.009 -0.004,0.017 -0.011,0.024 -0.007,0.007 -0.015,0.01 -0.024,0.01 z"
         style="fill:#ffffff;fill-rule:nonzero"
         id="path16140" /><rect
         x="0.546"
         y="-0.597"
         width="0.141"
         height="0.035"
         style="fill:#2b2b2b;fill-rule:nonzero"
         id="rect16142" /></g></g></svg>
