<?xml version="1.0" encoding="UTF-8" standalone="no"?>
<svg
   width="15.27"
   height="16.844999"
   viewBox="0 0 15.27 16.844999"
   version="1.1"
   xml:space="preserve"
   style="clip-rule:evenodd;fill-rule:evenodd;stroke-linejoin:round;stroke-miterlimit:2"
   id="svg20568"
   sodipodi:docname="emojis.svg"
   xmlns:inkscape="http://www.inkscape.org/namespaces/inkscape"
   xmlns:sodipodi="http://sodipodi.sourceforge.net/DTD/sodipodi-0.dtd"
   xmlns="http://www.w3.org/2000/svg"
   xmlns:svg="http://www.w3.org/2000/svg"><defs
     id="defs20572" /><sodipodi:namedview
     id="namedview20570"
     pagecolor="#505050"
     bordercolor="#eeeeee"
     borderopacity="1"
     inkscape:pageshadow="0"
     inkscape:pageopacity="0"
     inkscape:pagecheckerboard="0" /><g
     transform="matrix(0.24,0,0,0.24,-389.8902,-800.3082)"
     id="g20566"><g
       transform="matrix(62.5,0,0,62.5,1616.73,3391.68)"
       id="g16166"><path
         d="m 1.038,-0.913 v 0.878 H 1.143 V 0.013 C 1.143,0.029 1.142,0.044 1.14,0.059 1.139,0.074 1.135,0.089 1.129,0.104 1.122,0.12 1.113,0.135 1.102,0.148 1.091,0.161 1.078,0.172 1.064,0.181 1.05,0.191 1.035,0.198 1.018,0.203 1.002,0.208 0.985,0.21 0.967,0.21 H 0.3 C 0.276,0.21 0.253,0.206 0.232,0.197 0.211,0.188 0.192,0.175 0.176,0.159 0.16,0.143 0.148,0.125 0.139,0.104 0.13,0.082 0.125,0.06 0.125,0.035 v -0.948 z"
         style="fill-rule:nonzero"
         id="path16158" /><path
         d="M 0.195,0.035 V -0.842 H 0.967 V 0.072 L 0.389,0.123 C 0.383,0.124 0.377,0.125 0.371,0.127 0.365,0.128 0.359,0.13 0.353,0.132 0.347,0.134 0.341,0.136 0.334,0.138 0.328,0.139 0.322,0.14 0.316,0.14 H 0.3 C 0.286,0.14 0.272,0.137 0.259,0.132 0.247,0.126 0.236,0.119 0.226,0.109 0.217,0.1 0.209,0.089 0.204,0.076 0.198,0.063 0.195,0.05 0.195,0.035 Z"
         style="fill:#ffffff;fill-rule:nonzero"
         id="path16160" /><path
         d="M 0.406,0.035 H 1.073 C 1.073,0.05 1.07,0.063 1.064,0.076 1.059,0.089 1.051,0.1 1.042,0.109 1.032,0.119 1.021,0.126 1.008,0.132 0.996,0.137 0.982,0.14 0.967,0.14 H 0.305 C 0.319,0.139 0.332,0.136 0.344,0.131 0.357,0.125 0.367,0.117 0.376,0.108 0.386,0.098 0.393,0.088 0.398,0.075 0.403,0.063 0.406,0.049 0.406,0.035 Z"
         style="fill:#e5e5e5;fill-rule:nonzero"
         id="path16162" /><path
         d="m 0.265,-0.667 h 0.632 v 0.035 H 0.265 Z m 0,0.351 v -0.035 h 0.632 v 0.035 z m 0,0.211 v -0.036 h 0.597 v 0.036 z m 0.597,-0.352 v 0.036 H 0.265 V -0.457 Z M 0.827,-0.562 v 0.036 H 0.265 v -0.036 z m 0,0.316 V -0.21 H 0.265 V -0.246 Z M 0.581,-0.772 v 0.035 H 0.265 V -0.772 Z M 0.265,0 V -0.035 H 0.406 V 0 Z"
         style="fill:#a6a6a6;fill-rule:nonzero"
         id="path16164" /></g></g></svg>
