<?xml version="1.0" encoding="UTF-8" standalone="no"?>
<svg
   width="14.22"
   height="16.844999"
   viewBox="0 0 14.22 16.844999"
   version="1.1"
   xml:space="preserve"
   style="clip-rule:evenodd;fill-rule:evenodd;stroke-linejoin:round;stroke-miterlimit:2"
   id="svg20568"
   sodipodi:docname="emojis.svg"
   xmlns:inkscape="http://www.inkscape.org/namespaces/inkscape"
   xmlns:sodipodi="http://sodipodi.sourceforge.net/DTD/sodipodi-0.dtd"
   xmlns="http://www.w3.org/2000/svg"
   xmlns:svg="http://www.w3.org/2000/svg"><defs
     id="defs20572" /><sodipodi:namedview
     id="namedview20570"
     pagecolor="#505050"
     bordercolor="#eeeeee"
     borderopacity="1"
     inkscape:pageshadow="0"
     inkscape:pageopacity="0"
     inkscape:pagecheckerboard="0" /><g
     transform="matrix(0.24,0,0,0.24,-371.9238,-800.3082)"
     id="g20566"><g
       transform="matrix(62.5,0,0,62.5,1541.87,3391.68)"
       id="g16156"><path
         d="M 0.3,0.21 C 0.28,0.21 0.262,0.207 0.245,0.199 0.228,0.192 0.213,0.182 0.2,0.169 0.188,0.156 0.178,0.141 0.171,0.123 0.164,0.106 0.16,0.087 0.16,0.068 0.149,0.056 0.14,0.043 0.134,0.029 0.128,0.014 0.125,-0.002 0.125,-0.018 v -0.737 c 0,-0.024 0.007,-0.046 0.02,-0.066 0.013,-0.02 0.03,-0.035 0.052,-0.045 C 0.21,-0.881 0.226,-0.892 0.244,-0.9 0.262,-0.909 0.281,-0.913 0.3,-0.913 H 1.073 V 0.21 Z"
         style="fill-rule:nonzero"
         id="path16146" /><path
         d="m 0.371,-0.842 c 0.004,0.004 0.01,0.008 0.017,0.013 0.007,0.006 0.014,0.011 0.021,0.016 0.007,0.006 0.013,0.011 0.019,0.016 0.006,0.006 0.011,0.011 0.015,0.015 0.004,0.005 0.009,0.012 0.013,0.019 0.003,0.007 0.008,0.014 0.012,0.02 L 0.967,0 V 0.14 H 0.3 C 0.291,0.14 0.281,0.138 0.273,0.135 0.264,0.131 0.257,0.126 0.251,0.12 0.244,0.114 0.239,0.106 0.236,0.098 0.232,0.089 0.23,0.08 0.23,0.07 V 0.032 L 0.205,-0.003 0.23,-0.067 V -0.074 L 0.203,-0.107 0.23,-0.172 V -0.179 L 0.204,-0.216 0.23,-0.278 V -0.284 L 0.205,-0.317 0.23,-0.383 V -0.389 L 0.206,-0.421 C 0.207,-0.424 0.209,-0.429 0.212,-0.436 0.215,-0.443 0.218,-0.45 0.22,-0.458 0.223,-0.465 0.225,-0.473 0.227,-0.479 0.229,-0.486 0.23,-0.491 0.23,-0.493 0.23,-0.494 0.229,-0.496 0.227,-0.499 0.224,-0.502 0.222,-0.506 0.219,-0.51 0.215,-0.513 0.212,-0.517 0.21,-0.52 0.207,-0.524 0.205,-0.526 0.205,-0.527 L 0.23,-0.594 V -0.6 L 0.204,-0.636 0.23,-0.699 V -0.705 L 0.206,-0.74 0.212,-0.772 c 0.002,-0.006 0.005,-0.01 0.01,-0.014 0.005,-0.003 0.01,-0.007 0.013,-0.012 0.001,-0.001 0.001,-0.002 0.002,-0.003 0,0 0.001,-0.001 0.001,-0.002 C 0.243,-0.809 0.247,-0.814 0.25,-0.819 0.254,-0.824 0.258,-0.828 0.263,-0.832 0.267,-0.835 0.272,-0.838 0.278,-0.84 0.284,-0.841 0.292,-0.842 0.3,-0.842 Z"
         style="fill:#eba300;fill-rule:nonzero"
         id="path16148" /><path
         d="m 0.248,-0.07 c 0.007,0 0.014,0.001 0.021,0.004 0.006,0.003 0.012,0.006 0.016,0.011 0.005,0.005 0.008,0.011 0.011,0.017 0.003,0.007 0.004,0.013 0.004,0.02 0,0.005 -0.001,0.009 -0.005,0.013 C 0.292,-0.002 0.288,0 0.283,0 0.276,0 0.272,-0.002 0.27,-0.005 0.268,-0.009 0.267,-0.013 0.265,-0.017 0.264,-0.022 0.263,-0.026 0.26,-0.03 0.258,-0.033 0.254,-0.035 0.248,-0.035 0.243,-0.035 0.239,-0.033 0.236,-0.03 0.232,-0.027 0.23,-0.022 0.23,-0.018 v 0.05 C 0.22,0.028 0.212,0.022 0.205,0.013 0.199,0.004 0.195,-0.006 0.195,-0.018 c 0,-0.007 0.002,-0.014 0.004,-0.02 C 0.202,-0.045 0.206,-0.05 0.211,-0.055 0.215,-0.06 0.221,-0.063 0.227,-0.066 0.234,-0.069 0.241,-0.07 0.248,-0.07 Z m 0,-0.527 c 0.007,0 0.014,0.002 0.021,0.004 0.006,0.003 0.012,0.007 0.016,0.012 0.005,0.005 0.008,0.01 0.011,0.017 0.003,0.006 0.004,0.013 0.004,0.02 0,0.005 -0.001,0.009 -0.005,0.013 -0.003,0.003 -0.007,0.005 -0.012,0.005 -0.007,0 -0.011,-0.002 -0.013,-0.006 C 0.268,-0.535 0.267,-0.539 0.265,-0.544 0.264,-0.548 0.263,-0.552 0.26,-0.556 0.258,-0.56 0.254,-0.562 0.248,-0.562 0.243,-0.562 0.239,-0.56 0.236,-0.556 0.232,-0.553 0.23,-0.549 0.23,-0.544 v 0.049 C 0.22,-0.498 0.212,-0.504 0.205,-0.513 c -0.006,-0.009 -0.01,-0.02 -0.01,-0.031 0,-0.007 0.002,-0.014 0.004,-0.02 0.003,-0.007 0.007,-0.013 0.012,-0.017 0.004,-0.005 0.01,-0.009 0.016,-0.012 0.007,-0.002 0.014,-0.004 0.021,-0.004 z m 0,0.211 c 0.007,0 0.014,0.001 0.021,0.004 0.006,0.003 0.012,0.007 0.016,0.011 0.005,0.005 0.008,0.011 0.011,0.017 0.003,0.007 0.004,0.013 0.004,0.021 0,0.004 -0.001,0.009 -0.005,0.012 -0.003,0.003 -0.007,0.005 -0.012,0.005 -0.007,0 -0.011,-0.002 -0.013,-0.005 C 0.268,-0.325 0.267,-0.329 0.265,-0.333 0.264,-0.338 0.263,-0.342 0.26,-0.345 0.258,-0.349 0.254,-0.351 0.248,-0.351 c -0.005,0 -0.009,0.002 -0.012,0.005 -0.004,0.003 -0.006,0.008 -0.006,0.013 v 0.049 c -0.01,-0.004 -0.018,-0.01 -0.025,-0.019 -0.006,-0.009 -0.01,-0.019 -0.01,-0.03 0,-0.008 0.002,-0.014 0.004,-0.021 0.003,-0.007 0.007,-0.012 0.012,-0.017 0.004,-0.005 0.01,-0.008 0.016,-0.011 0.007,-0.003 0.014,-0.004 0.021,-0.004 z m 0,0.105 c 0.007,0 0.014,0.002 0.021,0.004 0.006,0.003 0.012,0.007 0.016,0.012 0.005,0.005 0.008,0.01 0.011,0.017 0.003,0.006 0.004,0.013 0.004,0.02 0,0.005 -0.001,0.009 -0.005,0.012 C 0.291,-0.212 0.287,-0.21 0.283,-0.21 0.276,-0.21 0.272,-0.212 0.27,-0.216 0.268,-0.219 0.267,-0.223 0.265,-0.228 0.264,-0.232 0.263,-0.236 0.26,-0.24 0.258,-0.244 0.254,-0.246 0.248,-0.246 0.243,-0.246 0.239,-0.244 0.236,-0.24 0.232,-0.237 0.23,-0.233 0.23,-0.228 v 0.049 c -0.01,-0.003 -0.018,-0.01 -0.025,-0.019 -0.006,-0.009 -0.01,-0.019 -0.01,-0.03 0,-0.007 0.002,-0.014 0.004,-0.021 0.003,-0.006 0.007,-0.012 0.012,-0.016 0.004,-0.005 0.01,-0.009 0.016,-0.012 0.007,-0.002 0.014,-0.004 0.021,-0.004 z m 0,-0.421 c 0.007,0 0.014,0.001 0.02,0.004 0.007,0.003 0.012,0.007 0.017,0.011 0.005,0.005 0.008,0.011 0.011,0.017 0.003,0.007 0.004,0.013 0.004,0.021 0,0.004 -0.001,0.009 -0.005,0.012 -0.003,0.003 -0.007,0.005 -0.012,0.005 -0.007,0 -0.011,-0.002 -0.013,-0.005 C 0.268,-0.641 0.267,-0.645 0.265,-0.649 0.264,-0.654 0.263,-0.658 0.26,-0.661 0.258,-0.665 0.254,-0.667 0.248,-0.667 0.243,-0.667 0.239,-0.665 0.236,-0.662 0.232,-0.658 0.23,-0.654 0.23,-0.649 V -0.6 C 0.22,-0.604 0.212,-0.61 0.205,-0.619 c -0.006,-0.009 -0.01,-0.019 -0.01,-0.03 0,-0.008 0.002,-0.014 0.004,-0.021 0.003,-0.006 0.007,-0.012 0.012,-0.017 0.005,-0.004 0.01,-0.008 0.017,-0.011 0.006,-0.003 0.013,-0.004 0.02,-0.004 z M 0.23,-0.705 C 0.22,-0.709 0.212,-0.715 0.205,-0.724 0.199,-0.733 0.195,-0.743 0.195,-0.755 c 0,-0.007 0.002,-0.014 0.004,-0.02 0.003,-0.007 0.007,-0.012 0.012,-0.017 0.005,-0.005 0.01,-0.008 0.017,-0.011 0.006,-0.003 0.013,-0.004 0.02,-0.004 0.007,0 0.014,0.001 0.02,0.004 0.007,0.003 0.012,0.007 0.017,0.011 0.005,0.005 0.008,0.011 0.011,0.017 0.003,0.006 0.004,0.013 0.004,0.02 0,0.005 -0.001,0.009 -0.005,0.013 -0.003,0.003 -0.007,0.005 -0.012,0.005 -0.007,0 -0.011,-0.002 -0.013,-0.006 C 0.268,-0.746 0.267,-0.75 0.265,-0.755 0.264,-0.759 0.263,-0.763 0.26,-0.767 0.258,-0.77 0.254,-0.772 0.248,-0.772 0.243,-0.772 0.239,-0.77 0.236,-0.767 0.232,-0.763 0.23,-0.759 0.23,-0.755 Z m 0.018,0.529 c 0.007,0 0.014,0.002 0.02,0.004 0.007,0.003 0.012,0.007 0.017,0.012 0.005,0.005 0.008,0.01 0.011,0.017 0.003,0.006 0.004,0.013 0.004,0.02 0,0.005 -0.001,0.009 -0.005,0.012 -0.003,0.004 -0.007,0.006 -0.012,0.006 -0.007,0 -0.011,-0.002 -0.013,-0.006 C 0.268,-0.114 0.267,-0.118 0.265,-0.123 0.264,-0.127 0.263,-0.131 0.26,-0.135 0.258,-0.139 0.254,-0.141 0.248,-0.141 c -0.005,0 -0.009,0.002 -0.012,0.006 -0.004,0.003 -0.006,0.007 -0.006,0.012 v 0.049 c -0.01,-0.003 -0.018,-0.01 -0.025,-0.019 -0.006,-0.009 -0.01,-0.019 -0.01,-0.03 0,-0.007 0.002,-0.014 0.004,-0.02 0.003,-0.007 0.007,-0.012 0.012,-0.017 0.005,-0.005 0.01,-0.009 0.017,-0.012 0.006,-0.002 0.013,-0.004 0.02,-0.004 z m 0,-0.315 c 0.007,0 0.014,0.001 0.02,0.004 0.007,0.003 0.012,0.006 0.017,0.011 0.005,0.005 0.008,0.01 0.011,0.017 0.003,0.006 0.004,0.013 0.004,0.02 0,0.005 -0.001,0.009 -0.005,0.012 -0.003,0.004 -0.007,0.006 -0.012,0.006 -0.007,0 -0.011,-0.002 -0.013,-0.006 C 0.268,-0.43 0.267,-0.434 0.265,-0.439 0.264,-0.443 0.263,-0.447 0.26,-0.451 0.258,-0.455 0.254,-0.457 0.248,-0.457 c -0.005,0 -0.009,0.002 -0.012,0.006 -0.004,0.003 -0.006,0.007 -0.006,0.012 v 0.05 c -0.01,-0.004 -0.018,-0.01 -0.025,-0.019 -0.006,-0.009 -0.01,-0.02 -0.01,-0.031 0,-0.007 0.002,-0.014 0.004,-0.02 0.003,-0.007 0.007,-0.013 0.012,-0.017 0.005,-0.005 0.01,-0.008 0.017,-0.011 0.006,-0.003 0.013,-0.004 0.02,-0.004 z"
         style="fill:#cccccc;fill-rule:nonzero"
         id="path16150" /><path
         d="m 1.002,0.035 h -0.07 l -0.04,0.052 h -0.52 v -0.929 h 0.63 z"
         style="fill:#ffb900;fill-rule:nonzero"
         id="path16152" /><path
         d="M 0.3,0.105 C 0.291,0.105 0.283,0.102 0.276,0.095 0.269,0.088 0.265,0.08 0.265,0.07 0.265,0.061 0.269,0.053 0.276,0.046 0.283,0.039 0.291,0.035 0.3,0.035 h 0.632 v 0.07 z"
         style="fill:#ffffff;fill-rule:nonzero"
         id="path16154" /></g></g></svg>
