<?xml version="1.0" encoding="UTF-8" standalone="no"?>
<svg
   width="16.844999"
   height="10.53"
   viewBox="0 0 16.844999 10.53"
   version="1.1"
   xml:space="preserve"
   style="clip-rule:evenodd;fill-rule:evenodd;stroke-linejoin:round;stroke-miterlimit:2"
   id="svg20568"
   sodipodi:docname="emojis.svg"
   xmlns:inkscape="http://www.inkscape.org/namespaces/inkscape"
   xmlns:sodipodi="http://sodipodi.sourceforge.net/DTD/sodipodi-0.dtd"
   xmlns="http://www.w3.org/2000/svg"
   xmlns:svg="http://www.w3.org/2000/svg"><defs
     id="defs20572" /><sodipodi:namedview
     id="namedview20570"
     pagecolor="#505050"
     bordercolor="#eeeeee"
     borderopacity="1"
     inkscape:pageshadow="0"
     inkscape:pageopacity="0"
     inkscape:pagecheckerboard="0" /><g
     transform="matrix(0.24,0,0,0.24,-533.1534,-131.90424)"
     id="g20566"><g
       transform="matrix(62.5,0,0,62.5,2213.66,589.101)"
       id="g1618"><path
         d="M 0.885,0.07 C 0.867,0.07 0.851,0.067 0.836,0.06 0.822,0.054 0.808,0.045 0.795,0.035 0.783,0.025 0.771,0.013 0.759,0.001 0.748,-0.012 0.736,-0.024 0.725,-0.035 0.702,-0.035 0.68,-0.038 0.659,-0.045 0.638,-0.051 0.619,-0.061 0.602,-0.073 0.584,-0.085 0.568,-0.1 0.555,-0.117 0.541,-0.135 0.531,-0.154 0.523,-0.176 H 0.23 C 0.216,-0.176 0.202,-0.179 0.189,-0.184 0.177,-0.19 0.166,-0.197 0.156,-0.207 0.146,-0.216 0.139,-0.227 0.133,-0.24 0.128,-0.252 0.125,-0.266 0.125,-0.281 v -0.245 c 0,-0.015 0.003,-0.029 0.008,-0.041 0.006,-0.013 0.013,-0.024 0.023,-0.034 0.01,-0.009 0.021,-0.017 0.033,-0.023 0.013,-0.005 0.027,-0.008 0.041,-0.008 h 0.843 c 0.024,0 0.047,0.005 0.068,0.014 0.021,0.009 0.04,0.022 0.056,0.038 0.015,0.015 0.028,0.034 0.037,0.055 0.009,0.022 0.014,0.044 0.014,0.068 v 0.247 c 0,0.024 -0.005,0.046 -0.014,0.068 -0.009,0.021 -0.022,0.04 -0.037,0.055 C 1.181,-0.071 1.162,-0.058 1.141,-0.049 1.12,-0.04 1.097,-0.035 1.073,-0.035 H 1.015 C 1.011,-0.02 1.005,-0.006 0.997,0.007 0.989,0.02 0.98,0.031 0.968,0.04 0.956,0.05 0.944,0.057 0.929,0.062 0.915,0.068 0.9,0.07 0.885,0.07 Z"
         style="fill-rule:nonzero"
         id="path1612" /><path
         d="m 1.073,-0.562 c 0.014,0 0.028,0.003 0.041,0.009 0.012,0.005 0.024,0.013 0.033,0.022 0.009,0.01 0.017,0.021 0.022,0.033 0.006,0.013 0.009,0.027 0.009,0.041 v 0.247 c 0,0.014 -0.003,0.028 -0.009,0.041 -0.005,0.012 -0.013,0.023 -0.022,0.033 -0.009,0.009 -0.021,0.017 -0.033,0.022 -0.013,0.006 -0.027,0.009 -0.041,0.009 H 0.977 L 0.945,-0.118 0.932,-0.105 c 0.005,0.005 0.009,0.011 0.012,0.018 0.003,0.006 0.004,0.014 0.004,0.021 0,0.009 -0.001,0.017 -0.005,0.025 C 0.94,-0.033 0.936,-0.026 0.93,-0.02 0.924,-0.014 0.917,-0.009 0.91,-0.005 0.902,-0.002 0.894,0 0.885,0 0.877,0 0.869,-0.002 0.861,-0.005 0.854,-0.008 0.847,-0.013 0.842,-0.018 L 0.754,-0.105 H 0.722 c -0.02,0 -0.038,-0.004 -0.055,-0.012 C 0.651,-0.124 0.636,-0.134 0.623,-0.147 0.61,-0.16 0.6,-0.174 0.592,-0.191 0.585,-0.208 0.581,-0.226 0.581,-0.246 H 0.23 c -0.009,0 -0.018,-0.003 -0.024,-0.01 C 0.199,-0.263 0.195,-0.271 0.195,-0.281 v -0.245 c 0,-0.01 0.004,-0.018 0.011,-0.025 0.006,-0.007 0.015,-0.011 0.024,-0.011 z"
         style="fill:#ffc83d;fill-rule:nonzero"
         id="path1614" /><path
         d="M 0.992,-0.246 H 1.09 c 0.005,0 0.009,0.002 0.012,0.006 0.004,0.003 0.005,0.007 0.005,0.012 0,0.005 -10e-4,0.009 -0.005,0.012 C 1.099,-0.212 1.095,-0.21 1.09,-0.21 H 0.95 C 0.945,-0.21 0.941,-0.212 0.937,-0.216 0.934,-0.219 0.932,-0.223 0.932,-0.228 0.932,-0.24 0.93,-0.251 0.925,-0.262 0.921,-0.273 0.914,-0.282 0.906,-0.29 0.899,-0.298 0.889,-0.305 0.878,-0.309 0.868,-0.314 0.856,-0.316 0.844,-0.316 H 0.811 l 0.166,0.211 H 0.932 L 0.757,-0.328 c 0,-0.017 0.003,-0.034 0.009,-0.049 0.006,-0.016 0.014,-0.03 0.025,-0.041 0.011,-0.012 0.024,-0.021 0.039,-0.028 0.015,-0.007 0.031,-0.011 0.049,-0.011 0.005,0 0.009,0.002 0.013,0.006 0.003,0.003 0.005,0.007 0.005,0.012 0,0.005 -0.002,0.009 -0.005,0.012 -0.004,0.004 -0.008,0.006 -0.013,0.006 -0.01,0 -0.02,0.001 -0.029,0.005 C 0.84,-0.412 0.832,-0.408 0.824,-0.401 0.817,-0.395 0.81,-0.388 0.805,-0.379 0.8,-0.371 0.796,-0.361 0.794,-0.351 h 0.031 c 0.01,0 0.019,0 0.029,0.001 0.009,0.001 0.018,0.002 0.027,0.005 0.009,0.002 0.018,0.006 0.026,0.011 0.009,0.005 0.017,0.012 0.025,0.021 v -0.091 c 0,-0.005 0.002,-0.009 0.005,-0.012 0.004,-0.004 0.008,-0.005 0.013,-0.005 0.005,0 0.009,0.001 0.012,0.005 0.004,0.003 0.005,0.007 0.005,0.012 v 0.133 l 0.075,-0.075 c 0.004,-0.003 0.008,-0.005 0.013,-0.005 0.005,0 0.009,0.002 0.012,0.005 0.004,0.004 0.005,0.008 0.005,0.013 0,0.004 -0.001,0.008 -0.005,0.012 z"
         style="fill:#d48c00;fill-rule:nonzero"
         id="path1616" /></g></g></svg>
