<?xml version="1.0" encoding="UTF-8" standalone="no"?>
<svg
   width="15.27"
   height="14.73"
   viewBox="0 0 15.27 14.73"
   version="1.1"
   xml:space="preserve"
   style="clip-rule:evenodd;fill-rule:evenodd;stroke-linejoin:round;stroke-miterlimit:2"
   id="svg20568"
   sodipodi:docname="emojis.svg"
   xmlns:inkscape="http://www.inkscape.org/namespaces/inkscape"
   xmlns:sodipodi="http://sodipodi.sourceforge.net/DTD/sodipodi-0.dtd"
   xmlns="http://www.w3.org/2000/svg"
   xmlns:svg="http://www.w3.org/2000/svg"><defs
     id="defs20572" /><sodipodi:namedview
     id="namedview20570"
     pagecolor="#505050"
     bordercolor="#eeeeee"
     borderopacity="1"
     inkscape:pageshadow="0"
     inkscape:pageopacity="0"
     inkscape:pagecheckerboard="0" /><g
     transform="matrix(0.24,0,0,0.24,-335.4654,-801.8982)"
     id="g20566"><g
       transform="matrix(62.5,0,0,62.5,1389.96,3391.68)"
       id="g16130"><path
         d="M 0.335,0.175 C 0.306,0.175 0.279,0.17 0.254,0.159 0.228,0.148 0.206,0.133 0.187,0.114 0.168,0.094 0.153,0.072 0.142,0.047 0.131,0.021 0.125,-0.006 0.125,-0.035 c 0,-0.024 0.004,-0.046 0.011,-0.069 0.008,-0.022 0.019,-0.042 0.033,-0.061 -0.014,-0.016 -0.025,-0.033 -0.033,-0.054 -0.007,-0.02 -0.011,-0.04 -0.011,-0.062 0,-0.028 0.006,-0.055 0.019,-0.08 0.013,-0.025 0.031,-0.046 0.055,-0.063 -0.003,-0.01 -0.004,-0.021 -0.004,-0.033 0,-0.019 0.004,-0.038 0.012,-0.056 C 0.191,-0.529 0.18,-0.548 0.172,-0.568 0.164,-0.588 0.16,-0.609 0.16,-0.632 0.16,-0.656 0.165,-0.679 0.174,-0.7 0.183,-0.721 0.196,-0.74 0.212,-0.756 0.227,-0.771 0.246,-0.784 0.267,-0.793 0.289,-0.802 0.311,-0.807 0.335,-0.807 h 0.772 v 0.21 h 0.036 v 0.281 h -0.07 v 0.07 h 0.07 v 0.421 z"
         style="fill-rule:nonzero"
         id="path16110" /><path
         d="M 0.335,-0.526 C 0.321,-0.526 0.307,-0.529 0.294,-0.535 0.282,-0.54 0.271,-0.548 0.261,-0.557 0.252,-0.567 0.244,-0.578 0.239,-0.591 0.233,-0.604 0.23,-0.617 0.23,-0.632 c 0,-0.014 0.003,-0.028 0.009,-0.041 0.005,-0.013 0.013,-0.024 0.022,-0.033 0.01,-0.01 0.021,-0.017 0.033,-0.023 0.013,-0.006 0.027,-0.008 0.041,-0.008 h 0.211 v 0.31 z"
         style="fill:#16c60c;fill-rule:nonzero"
         id="path16112" /><path
         d="M 0.511,-0.526 C 0.497,-0.526 0.483,-0.529 0.47,-0.535 0.458,-0.54 0.446,-0.548 0.437,-0.557 0.427,-0.567 0.42,-0.578 0.414,-0.591 0.409,-0.604 0.406,-0.617 0.406,-0.632 c 0,-0.014 0.003,-0.028 0.008,-0.041 0.006,-0.013 0.013,-0.024 0.023,-0.033 0.009,-0.01 0.021,-0.017 0.033,-0.023 0.013,-0.006 0.027,-0.008 0.041,-0.008 h 0.527 v 0.035 H 1.002 l -0.052,0.07 0.052,0.07 h 0.036 v 0.076 H 0.514 Z"
         style="fill:#107c10;fill-rule:nonzero"
         id="path16114" /><path
         d="m 0.195,-0.281 c 0,-0.014 0.003,-0.028 0.009,-0.041 0.005,-0.012 0.013,-0.024 0.022,-0.033 0.01,-0.01 0.021,-0.017 0.033,-0.023 0.013,-0.005 0.027,-0.008 0.041,-0.008 h 0.036 l 0.105,-0.081 v 0.382 L 0.337,-0.176 H 0.3 C 0.286,-0.176 0.272,-0.179 0.259,-0.184 0.247,-0.19 0.236,-0.197 0.226,-0.207 0.217,-0.216 0.209,-0.227 0.204,-0.24 0.198,-0.252 0.195,-0.266 0.195,-0.281 Z"
         style="fill:#3a96dd;fill-rule:nonzero"
         id="path16116" /><path
         d="M 0.441,-0.176 C 0.426,-0.176 0.413,-0.179 0.4,-0.184 0.387,-0.19 0.376,-0.197 0.366,-0.207 0.357,-0.216 0.349,-0.227 0.344,-0.24 0.338,-0.252 0.335,-0.266 0.335,-0.281 c 0,-0.014 0.003,-0.028 0.009,-0.041 0.005,-0.012 0.013,-0.024 0.022,-0.033 0.01,-0.01 0.021,-0.017 0.034,-0.023 0.013,-0.005 0.026,-0.008 0.041,-0.008 V -0.43 h 0.561 v 0.079 H 0.967 l -0.035,0.035 v 0.067 l 0.035,0.039 h 0.035 v 0.074 h -0.56 z"
         style="fill:#0063b1;fill-rule:nonzero"
         id="path16118" /><path
         d="m 0.335,-0.526 h 0.176 v 0.14 H 0.335 C 0.326,-0.386 0.317,-0.388 0.308,-0.392 0.3,-0.396 0.292,-0.401 0.286,-0.407 0.28,-0.413 0.274,-0.421 0.271,-0.429 0.267,-0.438 0.265,-0.447 0.265,-0.457 0.265,-0.466 0.267,-0.475 0.271,-0.484 0.274,-0.492 0.28,-0.5 0.286,-0.506 0.292,-0.512 0.3,-0.517 0.308,-0.521 0.317,-0.525 0.326,-0.526 0.335,-0.526 Z"
         style="fill:#ffb900;fill-rule:nonzero"
         id="path16120" /><path
         d="m 0.511,-0.386 c -0.01,0 -0.019,-0.002 -0.027,-0.006 C 0.475,-0.395 0.468,-0.4 0.461,-0.406 0.455,-0.413 0.45,-0.42 0.446,-0.429 0.443,-0.438 0.441,-0.447 0.441,-0.457 0.441,-0.466 0.443,-0.475 0.447,-0.484 0.45,-0.492 0.455,-0.5 0.462,-0.506 0.468,-0.512 0.475,-0.517 0.484,-0.521 0.492,-0.525 0.501,-0.526 0.511,-0.526 h 0.596 v 0.035 H 1.073 l -0.035,0.034 0.035,0.036 h 0.034 v 0.035 z"
         style="fill:#eba300;fill-rule:nonzero"
         id="path16122" /><path
         d="M 0.335,-0.176 H 0.616 V 0.105 H 0.335 C 0.316,0.105 0.298,0.101 0.281,0.094 0.264,0.087 0.249,0.077 0.236,0.064 0.224,0.051 0.214,0.036 0.206,0.02 0.199,0.003 0.195,-0.016 0.195,-0.035 c 0,-0.02 0.004,-0.038 0.011,-0.055 0.008,-0.017 0.018,-0.032 0.03,-0.045 0.013,-0.012 0.028,-0.022 0.045,-0.03 0.017,-0.007 0.035,-0.011 0.054,-0.011 z"
         style="fill:#f7630c;fill-rule:nonzero"
         id="path16124" /><path
         d="M 0.581,0.105 C 0.562,0.105 0.544,0.101 0.527,0.094 0.51,0.087 0.495,0.077 0.482,0.064 0.469,0.051 0.459,0.036 0.452,0.019 0.445,0.002 0.441,-0.016 0.441,-0.035 c 0,-0.019 0.004,-0.037 0.011,-0.054 0.008,-0.017 0.018,-0.032 0.03,-0.045 0.013,-0.013 0.028,-0.023 0.045,-0.031 0.017,-0.007 0.035,-0.011 0.054,-0.011 h 0.526 v 0.035 H 1.072 L 1.038,-0.108 V 0.031 L 1.072,0.07 h 0.035 v 0.035 z"
         style="fill:#ca5010;fill-rule:nonzero"
         id="path16126" /><path
         d="m 0.476,-0.035 c 0,-0.015 0.003,-0.028 0.008,-0.041 C 0.49,-0.089 0.497,-0.1 0.507,-0.11 0.516,-0.119 0.527,-0.127 0.54,-0.132 0.553,-0.138 0.566,-0.141 0.581,-0.141 H 1.073 V 0.07 H 0.581 C 0.566,0.07 0.553,0.068 0.54,0.062 0.527,0.056 0.516,0.049 0.507,0.039 0.497,0.03 0.49,0.019 0.484,0.006 0.479,-0.007 0.476,-0.021 0.476,-0.035 Z M 0.967,-0.351 V -0.21 H 0.441 C 0.431,-0.21 0.422,-0.212 0.414,-0.216 0.405,-0.22 0.398,-0.225 0.391,-0.231 0.385,-0.238 0.38,-0.245 0.376,-0.253 0.372,-0.262 0.371,-0.271 0.371,-0.281 0.371,-0.291 0.372,-0.3 0.376,-0.308 0.38,-0.317 0.385,-0.324 0.391,-0.33 0.397,-0.337 0.405,-0.342 0.413,-0.345 0.422,-0.349 0.431,-0.351 0.441,-0.351 Z M 0.511,-0.562 c -0.01,0 -0.019,-10e-4 -0.027,-0.005 C 0.475,-0.571 0.468,-0.576 0.462,-0.582 0.455,-0.589 0.45,-0.596 0.447,-0.604 0.443,-0.613 0.441,-0.622 0.441,-0.632 c 0,-0.01 0.002,-0.019 0.006,-0.027 C 0.45,-0.668 0.455,-0.675 0.462,-0.681 0.468,-0.688 0.475,-0.693 0.484,-0.697 0.492,-0.7 0.501,-0.702 0.511,-0.702 h 0.491 v 0.14 z m 0,0.071 h 0.562 v 0.07 H 0.511 c -0.01,0 -0.018,-0.004 -0.025,-0.011 -0.007,-0.006 -0.01,-0.015 -0.01,-0.025 0,-0.009 0.004,-0.017 0.011,-0.024 0.007,-0.007 0.015,-0.01 0.024,-0.01 z"
         style="fill:#ffffff;fill-rule:nonzero"
         id="path16128" /></g></g></svg>
