<?xml version="1.0" encoding="UTF-8" standalone="no"?>
<svg
   width="15.795"
   height="16.844999"
   viewBox="0 0 15.795 16.844999"
   version="1.1"
   xml:space="preserve"
   style="clip-rule:evenodd;fill-rule:evenodd;stroke-linejoin:round;stroke-miterlimit:2"
   id="svg20568"
   sodipodi:docname="emojis.svg"
   xmlns:inkscape="http://www.inkscape.org/namespaces/inkscape"
   xmlns:sodipodi="http://sodipodi.sourceforge.net/DTD/sodipodi-0.dtd"
   xmlns="http://www.w3.org/2000/svg"
   xmlns:svg="http://www.w3.org/2000/svg"><defs
     id="defs20572" /><sodipodi:namedview
     id="namedview20570"
     pagecolor="#505050"
     bordercolor="#eeeeee"
     borderopacity="1"
     inkscape:pageshadow="0"
     inkscape:pageopacity="0"
     inkscape:pagecheckerboard="0" /><g
     transform="matrix(0.24,0,0,0.24,-553.7478,-127.68924)"
     id="g20566"><g
       transform="matrix(62.5,0,0,62.5,2299.47,589.101)"
       id="g1628"><path
         d="m 1.178,-0.293 v 0.17 c 0,0.031 -0.004,0.06 -0.012,0.088 C 1.158,-0.006 1.147,0.02 1.132,0.045 1.118,0.07 1.1,0.092 1.08,0.113 1.059,0.133 1.037,0.15 1.012,0.165 0.987,0.179 0.961,0.191 0.933,0.198 0.904,0.206 0.875,0.21 0.844,0.21 H 0.722 C 0.675,0.21 0.632,0.203 0.59,0.187 0.549,0.171 0.51,0.151 0.472,0.125 0.464,0.12 0.456,0.114 0.448,0.108 0.44,0.102 0.432,0.095 0.425,0.088 L 0.161,-0.176 C 0.149,-0.188 0.14,-0.201 0.134,-0.216 0.128,-0.231 0.125,-0.247 0.125,-0.263 0.125,-0.277 0.127,-0.29 0.132,-0.303 0.136,-0.317 0.143,-0.329 0.151,-0.339 0.143,-0.351 0.136,-0.364 0.132,-0.378 0.127,-0.392 0.125,-0.407 0.125,-0.421 c 0,-0.015 0.002,-0.029 0.007,-0.043 0.004,-0.014 0.01,-0.027 0.018,-0.038 0.009,-0.012 0.018,-0.022 0.03,-0.031 0.011,-0.009 0.024,-0.015 0.038,-0.02 0.004,-0.023 0.013,-0.042 0.026,-0.058 0.013,-0.017 0.029,-0.03 0.049,-0.04 C 0.285,-0.66 0.278,-0.67 0.273,-0.68 0.268,-0.691 0.265,-0.703 0.265,-0.715 c 0,-0.012 0.002,-0.023 0.007,-0.034 0.005,-0.011 0.011,-0.02 0.019,-0.028 l 0.075,-0.075 c 0.008,-0.009 0.018,-0.015 0.028,-0.019 0.011,-0.004 0.022,-0.006 0.034,-0.006 0.01,0 0.02,0.001 0.029,0.005 0.009,0.003 0.018,0.008 0.025,0.014 0.007,-0.017 0.018,-0.03 0.032,-0.04 0.015,-0.01 0.031,-0.015 0.049,-0.015 h 0.106 c 0.018,0 0.035,0.005 0.049,0.015 0.015,0.01 0.025,0.023 0.032,0.04 0.008,-0.006 0.016,-0.011 0.026,-0.014 0.009,-0.004 0.019,-0.005 0.029,-0.005 0.024,0 0.045,0.008 0.062,0.025 l 0.074,0.075 c 0.009,0.008 0.015,0.017 0.019,0.028 0.005,0.011 0.007,0.022 0.007,0.034 0,0.015 -0.003,0.03 -0.011,0.043 -0.007,0.013 -0.018,0.024 -0.032,0.032 l 0.194,0.194 c 0.021,0.021 0.036,0.044 0.045,0.071 0.01,0.026 0.015,0.053 0.015,0.082 z"
         style="fill-rule:nonzero"
         id="path1620" /><path
         d="m 0.356,-0.597 c 0.01,0 0.019,0.002 0.027,0.006 0.008,0.003 0.015,0.008 0.023,0.015 l 0.084,0.074 c 0.007,0.006 0.015,0.012 0.022,0.018 0.007,0.005 0.014,0.012 0.02,0.018 0.007,0.007 0.014,0.015 0.02,0.022 0.007,0.008 0.013,0.016 0.02,0.023 0.013,0.015 0.026,0.03 0.039,0.045 0.013,0.015 0.026,0.03 0.04,0.045 0.011,0.012 0.023,0.024 0.035,0.036 0.012,0.011 0.024,0.023 0.036,0.035 0.006,0.006 0.012,0.011 0.018,0.017 0.006,0.005 0.012,0.011 0.017,0.018 0.007,0.01 0.013,0.02 0.018,0.031 0.006,0.011 0.011,0.022 0.017,0.032 L 0.862,-0.035 0.844,0.14 H 0.722 C 0.701,0.14 0.679,0.138 0.656,0.132 0.633,0.127 0.611,0.12 0.588,0.111 0.566,0.101 0.545,0.09 0.525,0.078 0.506,0.065 0.488,0.052 0.474,0.037 L 0.21,-0.226 C 0.206,-0.231 0.202,-0.237 0.199,-0.243 0.196,-0.25 0.195,-0.256 0.195,-0.263 0.195,-0.27 0.196,-0.277 0.199,-0.283 0.202,-0.29 0.206,-0.295 0.21,-0.3 0.215,-0.305 0.221,-0.309 0.227,-0.312 0.234,-0.315 0.24,-0.316 0.248,-0.316 c 0.004,0 0.009,0.001 0.012,0.002 0.004,0.001 0.008,0.002 0.011,0.004 0.003,0.002 0.006,0.004 0.009,0.006 0.003,0.003 0.007,0.005 0.011,0.008 L 0.216,-0.372 c -0.014,-0.013 -0.021,-0.03 -0.021,-0.049 0,-0.01 0.002,-0.019 0.006,-0.027 0.003,-0.009 0.008,-0.016 0.015,-0.023 0.006,-0.006 0.013,-0.011 0.022,-0.015 0.008,-0.004 0.017,-0.006 0.027,-0.006 0.014,0 0.027,0.004 0.038,0.012 -0.011,-0.013 -0.017,-0.029 -0.017,-0.047 0,-0.009 0.002,-0.018 0.006,-0.027 0.003,-0.008 0.009,-0.016 0.015,-0.022 0.006,-0.006 0.014,-0.011 0.022,-0.015 0.009,-0.004 0.018,-0.006 0.027,-0.006 z m 0.379,0.195 c -0.004,0 -0.008,-0.001 -0.011,-0.002 -0.002,0 -0.005,-0.002 -0.009,-0.005 C 0.688,-0.432 0.662,-0.457 0.637,-0.483 0.612,-0.51 0.588,-0.537 0.565,-0.563 0.558,-0.571 0.553,-0.578 0.55,-0.586 0.546,-0.595 0.544,-0.604 0.544,-0.613 c 0,-0.005 0.001,-0.011 0.003,-0.018 l 0.199,0.195 c 0.002,0.002 0.004,0.005 0.005,0.008 0.001,0.003 0.001,0.006 0.001,0.009 0,0.011 -0.006,0.017 -0.017,0.017 z m 0.117,-0.122 0.123,0.118 c 0.002,0.002 0.003,0.004 0.004,0.007 0.001,0.002 0.001,0.005 0.001,0.007 0,0.007 -0.002,0.012 -0.006,0.015 -0.003,0.003 -0.009,0.005 -0.015,0.005 -0.003,0 -0.005,0 -0.008,-0.001 C 0.948,-0.374 0.946,-0.375 0.944,-0.377 L 0.826,-0.5 C 0.83,-0.505 0.834,-0.509 0.838,-0.513 0.842,-0.518 0.846,-0.521 0.852,-0.524 Z"
         style="fill:#d48c00;fill-rule:nonzero"
         id="path1622" /><path
         d="m 1.107,-0.293 v 0.17 c 0,0.036 -0.006,0.071 -0.02,0.102 C 1.073,0.011 1.054,0.039 1.03,0.063 1.007,0.087 0.979,0.106 0.947,0.119 0.915,0.133 0.881,0.14 0.844,0.14 0.829,0.14 0.814,0.139 0.798,0.136 0.782,0.133 0.767,0.129 0.751,0.123 0.736,0.118 0.722,0.111 0.708,0.103 0.694,0.094 0.682,0.085 0.671,0.075 L 0.317,-0.266 C 0.312,-0.271 0.308,-0.276 0.305,-0.283 0.303,-0.289 0.301,-0.296 0.301,-0.303 c 0,-0.007 0.002,-0.014 0.004,-0.02 0.003,-0.006 0.007,-0.012 0.012,-0.017 0.005,-0.004 0.01,-0.008 0.017,-0.011 0.006,-0.003 0.013,-0.004 0.02,-0.004 0.007,0 0.014,0.001 0.02,0.004 0.007,0.003 0.012,0.006 0.017,0.011 l 0.13,0.13 c 0.004,0.004 0.008,0.005 0.013,0.005 0.005,0 0.009,-0.001 0.012,-0.005 0.004,-0.003 0.005,-0.007 0.005,-0.012 0,-0.005 -0.001,-0.009 -0.005,-0.012 L 0.299,-0.482 c 0.002,-0.007 0.005,-0.014 0.009,-0.021 0.005,-0.006 0.01,-0.012 0.016,-0.016 0.006,-0.005 0.013,-0.009 0.02,-0.011 0.007,-0.003 0.014,-0.004 0.022,-0.004 0.01,0 0.019,0.002 0.027,0.005 0.009,0.004 0.017,0.009 0.023,0.015 l 0.205,0.205 c 0.003,0.003 0.007,0.005 0.012,0.005 0.004,0 0.008,-0.002 0.012,-0.005 0.004,-0.004 0.005,-0.008 0.005,-0.012 0,-0.005 -0.001,-0.01 -0.004,-0.013 L 0.398,-0.581 c 0.004,-0.016 0.012,-0.028 0.025,-0.038 0.013,-0.009 0.027,-0.014 0.043,-0.014 0.009,0 0.018,0.001 0.027,0.005 0.009,0.004 0.016,0.009 0.023,0.015 l 0.204,0.205 c 0.003,0.003 0.007,0.005 0.012,0.005 0.004,0 0.009,-0.002 0.012,-0.005 C 0.748,-0.412 0.75,-0.416 0.75,-0.42 0.75,-0.426 0.748,-0.43 0.745,-0.433 L 0.547,-0.631 c 0.002,-0.007 0.005,-0.014 0.009,-0.021 0.005,-0.006 0.01,-0.011 0.016,-0.016 0.006,-0.005 0.013,-0.009 0.02,-0.011 0.007,-0.003 0.014,-0.004 0.022,-0.004 0.01,0 0.019,0.002 0.027,0.005 0.009,0.004 0.017,0.009 0.023,0.015 l 0.284,0.284 c 0.003,0.004 0.007,0.005 0.012,0.005 0.005,0 0.009,-0.001 0.012,-0.005 0.004,-0.003 0.006,-0.008 0.006,-0.012 0,-0.005 -0.002,-0.01 -0.005,-0.013 L 0.852,-0.525 c 0.006,-0.005 0.013,-0.009 0.021,-0.011 0.007,-0.003 0.015,-0.005 0.023,-0.005 0.019,0 0.035,0.007 0.049,0.021 l 0.124,0.124 c 0.014,0.014 0.024,0.03 0.03,0.048 0.005,0.018 0.008,0.036 0.008,0.055 z"
         style="fill:#ffc83d;fill-rule:nonzero"
         id="path1624" /><path
         d="m 0.805,-0.808 c 0.005,0 0.009,0.002 0.012,0.006 l 0.075,0.074 c 0.001,0.002 0.003,0.004 0.004,0.006 0,0.002 0.001,0.004 0.001,0.006 0,0.005 -0.001,0.008 -0.003,0.011 C 0.892,-0.702 0.889,-0.7 0.885,-0.699 0.883,-0.698 0.879,-0.696 0.873,-0.694 0.866,-0.692 0.859,-0.689 0.851,-0.686 0.843,-0.684 0.834,-0.681 0.824,-0.677 0.815,-0.674 0.806,-0.672 0.798,-0.669 0.79,-0.666 0.783,-0.664 0.777,-0.663 0.771,-0.661 0.768,-0.66 0.767,-0.66 0.762,-0.66 0.758,-0.662 0.755,-0.665 0.751,-0.669 0.75,-0.673 0.75,-0.677 c 0,-0.002 0,-0.006 0.002,-0.011 0.002,-0.006 0.004,-0.013 0.006,-0.021 0.003,-0.008 0.006,-0.017 0.009,-0.026 0.003,-0.009 0.005,-0.018 0.008,-0.026 0.003,-0.008 0.006,-0.015 0.008,-0.021 0.002,-0.007 0.004,-0.011 0.005,-0.013 0.002,-0.004 0.004,-0.007 0.006,-0.009 0.003,-0.003 0.007,-0.004 0.011,-0.004 z m -0.378,0 c 0.005,0 0.008,0.001 0.011,0.004 0.003,0.002 0.005,0.005 0.006,0.009 0.001,0.002 0.003,0.006 0.005,0.013 0.002,0.006 0.005,0.013 0.008,0.021 0.003,0.008 0.006,0.017 0.009,0.026 0.003,0.009 0.006,0.018 0.008,0.026 0.003,0.008 0.005,0.015 0.006,0.021 0.002,0.005 0.003,0.009 0.003,0.011 0,0.004 -0.002,0.008 -0.005,0.012 C 0.474,-0.662 0.47,-0.66 0.466,-0.66 0.464,-0.66 0.46,-0.661 0.455,-0.663 0.449,-0.664 0.442,-0.666 0.434,-0.669 0.426,-0.672 0.417,-0.674 0.408,-0.677 0.399,-0.68 0.39,-0.683 0.382,-0.686 0.373,-0.689 0.366,-0.692 0.36,-0.694 0.353,-0.696 0.349,-0.698 0.347,-0.699 0.344,-0.7 0.341,-0.702 0.339,-0.705 0.337,-0.708 0.335,-0.711 0.335,-0.716 c 0,-0.002 0.001,-0.004 0.002,-0.006 0.001,-0.002 0.002,-0.004 0.004,-0.006 l 0.074,-0.074 c 0.004,-0.004 0.008,-0.006 0.012,-0.006 z m 0.242,-0.034 c 0.005,0 0.009,0.001 0.012,0.005 0.004,0.003 0.006,0.007 0.006,0.012 0,0.001 -0.002,0.005 -0.004,0.011 -0.002,0.005 -0.005,0.012 -0.009,0.02 C 0.671,-0.787 0.667,-0.778 0.662,-0.77 0.658,-0.761 0.654,-0.753 0.65,-0.745 L 0.632,-0.711 C 0.63,-0.708 0.628,-0.705 0.626,-0.704 0.623,-0.702 0.62,-0.701 0.616,-0.701 0.612,-0.701 0.609,-0.702 0.607,-0.704 0.605,-0.705 0.603,-0.708 0.601,-0.711 0.599,-0.713 0.597,-0.717 0.594,-0.723 0.59,-0.729 0.587,-0.736 0.583,-0.744 0.579,-0.752 0.574,-0.761 0.57,-0.77 0.566,-0.778 0.562,-0.787 0.558,-0.794 0.555,-0.802 0.552,-0.809 0.549,-0.814 0.547,-0.82 0.546,-0.824 0.546,-0.825 c 0,-0.005 0.002,-0.009 0.005,-0.012 0.003,-0.004 0.008,-0.005 0.012,-0.005 z"
         style="fill:#f7630c;fill-rule:nonzero"
         id="path1626" /></g></g></svg>
