<?xml version="1.0" encoding="UTF-8" standalone="no"?>
<svg
   width="15.795"
   height="16.844999"
   viewBox="0 0 15.795 16.844999"
   version="1.1"
   xml:space="preserve"
   style="clip-rule:evenodd;fill-rule:evenodd;stroke-linejoin:round;stroke-miterlimit:2"
   id="svg20568"
   sodipodi:docname="emojis.svg"
   xmlns:inkscape="http://www.inkscape.org/namespaces/inkscape"
   xmlns:sodipodi="http://sodipodi.sourceforge.net/DTD/sodipodi-0.dtd"
   xmlns="http://www.w3.org/2000/svg"
   xmlns:svg="http://www.w3.org/2000/svg"><defs
     id="defs20572" /><sodipodi:namedview
     id="namedview20570"
     pagecolor="#505050"
     bordercolor="#eeeeee"
     borderopacity="1"
     inkscape:pageshadow="0"
     inkscape:pageopacity="0"
     inkscape:pagecheckerboard="0" /><g
     transform="matrix(0.24,0,0,0.24,-488.139,-800.3082)"
     id="g20566"><g
       transform="matrix(62.5,0,0,62.5,2026.1,3391.68)"
       id="g16234"><path
         d="m 0.125,0.21 v -1.123 h 0.731 l 0.182,0.182 v 0.274 h 0.14 v 0.316 H 1.038 V 0.21 Z"
         style="fill-rule:nonzero"
         id="path16224" /><path
         d="m 0.788,-0.665 v -0.14 l 0.039,-0.037 0.14,0.14 -0.039,0.035 z"
         style="fill:#e5e5e5;fill-rule:nonzero"
         id="path16226" /><path
         d="m 0.827,-0.702 h 0.14 V 0.14 H 0.195 v -0.982 h 0.632 z"
         style="fill:#ffffff;fill-rule:nonzero"
         id="path16228" /><path
         d="m 0.265,-0.632 h 0.632 v 0.035 H 0.265 Z m 0,0.246 v -0.035 h 0.597 v 0.035 z m 0,0.316 v -0.035 h 0.597 v 0.035 z m 0.562,-0.456 v 0.035 H 0.265 v -0.035 z m 0,0.316 v 0.034 H 0.265 V -0.21 Z M 0.792,-0.316 v 0.035 H 0.265 V -0.316 Z M 0.581,-0.737 v 0.035 H 0.265 V -0.737 Z M 0.265,0.035 V 0 h 0.141 v 0.035 z"
         style="fill:#a6a6a6;fill-rule:nonzero"
         id="path16230" /><path
         d="m 0.827,-0.298 c 0,-0.006 0.002,-0.011 0.006,-0.015 l 0.064,-0.063 c 0.007,-0.007 0.015,-0.01 0.025,-0.01 H 1.107 V -0.21 H 0.922 C 0.917,-0.21 0.913,-0.211 0.909,-0.213 0.904,-0.215 0.901,-0.218 0.897,-0.221 L 0.833,-0.284 C 0.829,-0.288 0.827,-0.293 0.827,-0.298 Z"
         style="fill:#e3008c;fill-rule:nonzero"
         id="path16232" /></g></g></svg>
