<?xml version="1.0" encoding="UTF-8" standalone="no"?>
<svg
   width="16.754999"
   height="16.77"
   viewBox="0 0 16.754999 16.77"
   version="1.1"
   xml:space="preserve"
   style="clip-rule:evenodd;fill-rule:evenodd;stroke-linejoin:round;stroke-miterlimit:2"
   id="svg20568"
   sodipodi:docname="emojis.svg"
   xmlns:inkscape="http://www.inkscape.org/namespaces/inkscape"
   xmlns:sodipodi="http://sodipodi.sourceforge.net/DTD/sodipodi-0.dtd"
   xmlns="http://www.w3.org/2000/svg"
   xmlns:svg="http://www.w3.org/2000/svg"><defs
     id="defs20572" /><sodipodi:namedview
     id="namedview20570"
     pagecolor="#505050"
     bordercolor="#eeeeee"
     borderopacity="1"
     inkscape:pageshadow="0"
     inkscape:pageopacity="0"
     inkscape:pagecheckerboard="0" /><g
     transform="matrix(0.24,0,0,0.24,-507.777,-800.3082)"
     id="g20566"><g
       transform="matrix(62.5,0,0,62.5,2107.55,3391.68)"
       id="g16250"><path
         d="m 0.131,-0.21 0.626,-0.626 0.07,0.07 v -0.147 h 0.175 v 0.246 h 0.246 v 0.176 H 1.102 l 0.07,0.07 -0.626,0.626 z"
         style="fill-rule:nonzero"
         id="path16236" /><path
         d="M 0.546,0.105 0.23,-0.21 l 0.527,-0.527 0.14,0.14 0.035,0.004 v 0.031 l 0.141,0.141 z"
         style="fill:#f2f2f2;fill-rule:nonzero"
         id="path16238" /><path
         d="m 0.827,-0.526 c 0,-0.01 0.003,-0.018 0.01,-0.025 0.007,-0.007 0.015,-0.011 0.025,-0.011 0.01,0 0.018,0.004 0.025,0.011 0.007,0.007 0.01,0.015 0.01,0.025 0,0.009 -0.004,0.017 -0.011,0.024 -0.007,0.007 -0.015,0.011 -0.024,0.011 -0.01,0 -0.018,-0.004 -0.025,-0.011 -0.007,-0.007 -0.01,-0.015 -0.01,-0.024 z"
         style="fill:#1f1f1f;fill-rule:nonzero"
         id="path16240" /><path
         d="m 0.93,-0.597 h 0.248 v 0.035 H 0.932 v -0.01 l -0.04,0.04 c -0.003,0.004 -0.008,0.006 -0.013,0.006 -0.004,0 -0.008,-0.002 -0.012,-0.006 -0.003,-0.003 -0.005,-0.007 -0.005,-0.012 0,-0.005 0.002,-0.009 0.005,-0.013 l 0.04,-0.04 h -0.01 v -0.245 h 0.035 v 0.22 z"
         style="fill:#f03a17;fill-rule:nonzero"
         id="path16242" /><path
         d="M 0.932,-0.632 0.967,-0.597 0.932,-0.562 0.897,-0.597 Z"
         style="fill:#af0d1a;fill-rule:nonzero"
         id="path16244" /><path
         d="m 0.757,-0.316 v 0.035 H 0.676 l 0.057,0.057 -0.025,0.025 -0.057,-0.057 v 0.081 H 0.616 V -0.256 L 0.56,-0.199 0.535,-0.224 0.591,-0.281 h -0.08 v -0.035 h 0.08 L 0.535,-0.373 0.56,-0.397 0.616,-0.341 v -0.08 h 0.035 v 0.08 l 0.057,-0.056 0.025,0.024 -0.057,0.057 z"
         style="fill:#a6a6a6;fill-rule:nonzero"
         id="path16246" /><path
         d="m 0.687,-0.439 c 0,0.008 -0.002,0.014 -0.005,0.021 -0.002,0.006 -0.006,0.012 -0.011,0.016 -0.005,0.005 -0.01,0.009 -0.017,0.012 -0.006,0.002 -0.013,0.004 -0.02,0.004 -0.007,0 -0.014,-0.002 -0.02,-0.004 C 0.607,-0.393 0.602,-0.397 0.597,-0.402 0.592,-0.407 0.588,-0.412 0.585,-0.419 0.582,-0.425 0.581,-0.432 0.581,-0.439 c 0,-0.007 0.001,-0.014 0.004,-0.02 0.003,-0.007 0.007,-0.012 0.012,-0.017 0.005,-0.005 0.01,-0.008 0.017,-0.011 0.006,-0.003 0.013,-0.004 0.02,-0.004 0.007,0 0.014,0.001 0.02,0.004 0.006,0.003 0.012,0.006 0.017,0.011 0.005,0.004 0.009,0.01 0.011,0.017 0.003,0.006 0.005,0.013 0.005,0.02 z m 0,0.281 c 0,0.008 -0.002,0.015 -0.005,0.021 C 0.68,-0.131 0.676,-0.125 0.671,-0.121 0.666,-0.116 0.66,-0.112 0.654,-0.11 0.648,-0.107 0.641,-0.105 0.634,-0.105 0.627,-0.105 0.62,-0.107 0.614,-0.11 0.607,-0.112 0.602,-0.116 0.597,-0.121 0.592,-0.126 0.588,-0.131 0.585,-0.137 0.582,-0.144 0.581,-0.151 0.581,-0.158 c 0,-0.007 0.001,-0.014 0.004,-0.02 0.003,-0.006 0.007,-0.012 0.012,-0.017 0.005,-0.005 0.01,-0.009 0.017,-0.011 0.006,-0.003 0.013,-0.004 0.02,-0.004 0.007,0 0.014,0.001 0.02,0.004 0.007,0.002 0.012,0.006 0.017,0.011 0.005,0.005 0.009,0.01 0.011,0.017 0.003,0.006 0.005,0.013 0.005,0.02 z M 0.774,-0.246 C 0.767,-0.246 0.76,-0.247 0.754,-0.25 0.748,-0.253 0.742,-0.256 0.737,-0.261 0.732,-0.266 0.729,-0.272 0.726,-0.278 0.723,-0.284 0.722,-0.291 0.722,-0.298 c 0,-0.008 0.001,-0.014 0.004,-0.021 0.003,-0.006 0.006,-0.012 0.011,-0.017 0.005,-0.004 0.01,-0.008 0.017,-0.011 0.006,-0.003 0.013,-0.004 0.02,-0.004 0.008,0 0.014,0.001 0.021,0.004 0.006,0.003 0.012,0.007 0.017,0.012 0.004,0.004 0.008,0.01 0.011,0.016 0.002,0.007 0.004,0.013 0.004,0.021 0,0.007 -0.002,0.014 -0.004,0.02 -0.003,0.006 -0.007,0.012 -0.012,0.017 -0.004,0.005 -0.01,0.008 -0.016,0.011 -0.007,0.003 -0.013,0.004 -0.021,0.004 z m -0.281,0 C 0.486,-0.246 0.479,-0.247 0.473,-0.25 0.467,-0.253 0.461,-0.256 0.456,-0.261 0.452,-0.266 0.448,-0.272 0.445,-0.278 0.442,-0.284 0.441,-0.291 0.441,-0.298 c 0,-0.008 0.001,-0.014 0.004,-0.021 0.003,-0.006 0.006,-0.012 0.011,-0.016 0.005,-0.005 0.01,-0.009 0.016,-0.012 0.007,-0.003 0.014,-0.004 0.021,-0.004 0.007,0 0.014,0.001 0.021,0.004 0.006,0.003 0.012,0.007 0.017,0.011 0.004,0.005 0.008,0.011 0.011,0.017 0.003,0.007 0.004,0.013 0.004,0.021 0,0.007 -0.001,0.014 -0.004,0.02 C 0.539,-0.272 0.535,-0.266 0.53,-0.261 0.525,-0.256 0.52,-0.253 0.513,-0.25 0.507,-0.247 0.5,-0.246 0.493,-0.246 Z m 0.246,-0.105 c -0.007,0 -0.014,-0.001 -0.02,-0.004 C 0.712,-0.358 0.707,-0.361 0.702,-0.366 0.697,-0.371 0.693,-0.377 0.69,-0.383 0.687,-0.389 0.686,-0.396 0.686,-0.404 c 0,-0.007 0.001,-0.014 0.004,-0.02 0.003,-0.007 0.007,-0.012 0.012,-0.017 0.005,-0.004 0.01,-0.008 0.017,-0.011 0.006,-0.003 0.013,-0.004 0.02,-0.004 0.007,0 0.014,0.001 0.021,0.004 0.006,0.003 0.011,0.007 0.016,0.011 0.005,0.005 0.009,0.011 0.011,0.017 0.003,0.006 0.005,0.013 0.005,0.02 0,0.008 -0.002,0.015 -0.005,0.021 -0.002,0.006 -0.006,0.012 -0.011,0.017 -0.004,0.005 -0.01,0.008 -0.016,0.011 -0.007,0.003 -0.014,0.004 -0.021,0.004 z M 0.528,-0.14 C 0.521,-0.14 0.514,-0.142 0.508,-0.144 0.502,-0.147 0.496,-0.151 0.491,-0.156 0.486,-0.161 0.483,-0.166 0.48,-0.173 0.477,-0.179 0.476,-0.186 0.476,-0.193 c 0,-0.007 0.001,-0.014 0.004,-0.02 0.003,-0.006 0.006,-0.012 0.011,-0.017 0.005,-0.005 0.011,-0.009 0.017,-0.011 0.006,-0.003 0.013,-0.005 0.02,-0.005 0.007,0 0.014,0.002 0.021,0.005 0.006,0.002 0.012,0.006 0.017,0.011 0.004,0.004 0.008,0.01 0.011,0.017 0.003,0.006 0.004,0.013 0.004,0.02 0,0.007 -0.001,0.014 -0.004,0.02 -0.003,0.007 -0.007,0.012 -0.012,0.017 -0.004,0.005 -0.01,0.009 -0.016,0.012 -0.007,0.002 -0.014,0.004 -0.021,0.004 z m 0.158,-0.053 c 0,-0.007 0.001,-0.014 0.004,-0.02 0.003,-0.007 0.007,-0.013 0.012,-0.017 0.005,-0.005 0.01,-0.009 0.017,-0.011 0.006,-0.003 0.013,-0.005 0.02,-0.005 0.007,0 0.014,0.002 0.021,0.005 0.006,0.002 0.012,0.006 0.016,0.011 0.005,0.004 0.009,0.01 0.011,0.017 0.003,0.006 0.005,0.013 0.005,0.02 0,0.007 -0.002,0.014 -0.005,0.02 C 0.785,-0.166 0.781,-0.161 0.776,-0.156 0.772,-0.151 0.766,-0.147 0.76,-0.144 0.753,-0.142 0.746,-0.14 0.739,-0.14 0.732,-0.14 0.725,-0.142 0.719,-0.144 0.712,-0.147 0.707,-0.151 0.702,-0.156 0.697,-0.16 0.693,-0.166 0.69,-0.172 0.687,-0.178 0.686,-0.185 0.686,-0.193 Z m -0.21,-0.211 c 0,-0.007 0.001,-0.014 0.004,-0.02 0.003,-0.007 0.006,-0.012 0.011,-0.017 0.005,-0.004 0.011,-0.008 0.017,-0.011 0.006,-0.003 0.013,-0.004 0.02,-0.004 0.007,0 0.014,0.001 0.021,0.004 0.006,0.003 0.012,0.007 0.017,0.011 0.004,0.005 0.008,0.01 0.011,0.017 0.003,0.006 0.004,0.013 0.004,0.02 0,0.008 -0.001,0.015 -0.004,0.021 -0.003,0.006 -0.007,0.012 -0.011,0.017 -0.005,0.005 -0.011,0.008 -0.017,0.011 -0.007,0.003 -0.014,0.004 -0.021,0.004 -0.007,0 -0.014,-0.001 -0.02,-0.004 C 0.501,-0.358 0.496,-0.361 0.491,-0.366 0.486,-0.371 0.483,-0.377 0.48,-0.383 0.477,-0.389 0.476,-0.396 0.476,-0.404 Z"
         style="fill:#cccccc;fill-rule:nonzero"
         id="path16248" /></g></g></svg>
