<?xml version="1.0" encoding="UTF-8" standalone="no"?>
<svg
   width="16.845001"
   height="12.120001"
   viewBox="0 0 16.845001 12.120001"
   version="1.1"
   xml:space="preserve"
   style="clip-rule:evenodd;fill-rule:evenodd;stroke-linejoin:round;stroke-miterlimit:2"
   id="svg20568"
   sodipodi:docname="emojis.svg"
   xmlns:inkscape="http://www.inkscape.org/namespaces/inkscape"
   xmlns:sodipodi="http://sodipodi.sourceforge.net/DTD/sodipodi-0.dtd"
   xmlns="http://www.w3.org/2000/svg"
   xmlns:svg="http://www.w3.org/2000/svg"><defs
     id="defs20572" /><sodipodi:namedview
     id="namedview20570"
     pagecolor="#505050"
     bordercolor="#eeeeee"
     borderopacity="1"
     inkscape:pageshadow="0"
     inkscape:pageopacity="0"
     inkscape:pagecheckerboard="0" /><g
     transform="matrix(0.24,0,0,0.24,-586.9134,-802.9482)"
     id="g20566"><g
       transform="matrix(62.5,0,0,62.5,2437.66,3391.68)"
       id="g16306"><rect
         x="0.125"
         y="-0.73699999"
         width="1.123"
         height="0.80800003"
         style="fill-rule:nonzero"
         id="rect16294" /><path
         d="m 1.178,-0.667 v 0.562 L 1.15,-0.086 1.178,-0.07 v 0.035 L 1.141,-0.011 H 0.224 L 0.195,-0.035 V -0.07 L 0.229,-0.084 0.195,-0.105 v -0.562 h 0.422 l 0.067,0.053 0.072,-0.053 z"
         style="fill:#f8ffb3;fill-rule:nonzero"
         id="path16296" /><path
         d="m 1.143,-0.632 v 0.491 H 0.23 v -0.491 z m -0.036,0.386 v -0.28 C 1.098,-0.526 1.089,-0.528 1.08,-0.532 1.072,-0.536 1.064,-0.541 1.058,-0.547 1.052,-0.553 1.047,-0.561 1.043,-0.569 1.039,-0.578 1.038,-0.587 1.038,-0.597 H 0.335 c 0,0.01 -0.001,0.019 -0.005,0.028 -0.004,0.008 -0.009,0.016 -0.015,0.022 -0.007,0.006 -0.014,0.011 -0.023,0.015 -0.008,0.004 -0.017,0.006 -0.027,0.006 v 0.28 c 0.01,0 0.019,0.002 0.027,0.006 0.009,0.003 0.016,0.008 0.023,0.015 0.006,0.006 0.011,0.013 0.015,0.022 0.004,0.008 0.005,0.017 0.005,0.027 H 0.476 V -0.21 H 0.581 C 0.559,-0.227 0.542,-0.248 0.53,-0.272 0.517,-0.297 0.511,-0.323 0.511,-0.351 c 0,-0.024 0.005,-0.047 0.014,-0.068 0.009,-0.022 0.022,-0.04 0.038,-0.056 0.016,-0.016 0.034,-0.028 0.055,-0.037 0.022,-0.01 0.044,-0.014 0.069,-0.014 0.024,0 0.046,0.004 0.068,0.014 0.021,0.009 0.04,0.021 0.055,0.037 0.016,0.016 0.029,0.034 0.038,0.056 0.009,0.021 0.014,0.044 0.014,0.068 0,0.028 -0.006,0.054 -0.018,0.079 -0.013,0.024 -0.03,0.045 -0.052,0.062 h 0.105 v 0.034 h 0.141 c 0,-0.01 10e-4,-0.019 0.005,-0.027 C 1.047,-0.212 1.052,-0.219 1.058,-0.225 1.064,-0.232 1.072,-0.237 1.08,-0.24 1.089,-0.244 1.098,-0.246 1.107,-0.246 Z M 0.195,-0.105 H 1.178 V -0.07 H 0.195 Z M 0.195,0 V -0.035 H 1.178 V 0 H 0.756 L 0.689,-0.033 0.617,0 Z"
         style="fill:#757575;fill-rule:nonzero"
         id="path16298" /><path
         d="m 0.371,-0.404 c 0,0.005 0.001,0.009 0.005,0.013 0.003,0.003 0.007,0.005 0.012,0.005 0.007,0 0.014,0.001 0.02,0.004 0.007,0.003 0.012,0.007 0.017,0.011 0.005,0.005 0.009,0.011 0.012,0.017 0.003,0.007 0.004,0.013 0.004,0.021 0,0.011 -0.003,0.021 -0.01,0.03 -0.006,0.009 -0.015,0.016 -0.025,0.019 v 0.038 H 0.371 V -0.284 C 0.363,-0.286 0.357,-0.291 0.351,-0.297 0.345,-0.303 0.341,-0.309 0.338,-0.317 l 0.035,-0.008 c 0.003,0.006 0.008,0.009 0.015,0.009 0.005,0 0.009,-0.002 0.013,-0.005 0.003,-0.003 0.005,-0.008 0.005,-0.012 0,-0.005 -0.002,-0.01 -0.005,-0.013 C 0.397,-0.349 0.393,-0.351 0.388,-0.351 0.381,-0.351 0.374,-0.352 0.368,-0.355 0.362,-0.358 0.356,-0.362 0.351,-0.367 0.346,-0.372 0.342,-0.377 0.34,-0.384 0.337,-0.39 0.335,-0.397 0.335,-0.404 c 0,-0.011 0.004,-0.021 0.01,-0.03 0.007,-0.009 0.015,-0.016 0.026,-0.019 v -0.038 h 0.035 v 0.038 c 0.007,0.002 0.014,0.007 0.02,0.013 0.005,0.005 0.009,0.012 0.012,0.02 L 0.403,-0.412 C 0.4,-0.418 0.395,-0.421 0.388,-0.421 c -0.005,0 -0.009,0.001 -0.012,0.005 -0.004,0.003 -0.005,0.007 -0.005,0.012 z m 0.614,-0.017 c 0.007,0 0.014,0.001 0.02,0.004 0.006,0.003 0.012,0.006 0.017,0.011 0.005,0.005 0.009,0.011 0.011,0.017 0.003,0.006 0.005,0.013 0.005,0.02 0,0.008 -0.002,0.014 -0.005,0.021 C 1.031,-0.342 1.027,-0.336 1.022,-0.332 1.017,-0.327 1.011,-0.323 1.005,-0.32 0.999,-0.317 0.992,-0.316 0.985,-0.316 0.977,-0.316 0.97,-0.317 0.964,-0.32 0.958,-0.323 0.952,-0.327 0.948,-0.331 0.943,-0.336 0.939,-0.342 0.936,-0.348 0.934,-0.354 0.932,-0.361 0.932,-0.369 c 0,-0.007 0.002,-0.014 0.004,-0.02 0.003,-0.006 0.007,-0.012 0.012,-0.017 0.005,-0.005 0.01,-0.008 0.017,-0.011 0.006,-0.003 0.013,-0.004 0.02,-0.004 z"
         style="fill:#13a10e;fill-rule:nonzero"
         id="path16300" /><path
         d="M 0.757,-0.105 V 0 H 0.616 v -0.105 l 0.069,-0.062 z"
         style="fill:#e5e5e5;fill-rule:nonzero"
         id="path16302" /><rect
         x="0.616"
         y="-0.667"
         width="0.141"
         height="0.56199998"
         style="fill:#f2f2f2;fill-rule:nonzero"
         id="rect16304" /></g></g></svg>
