<?xml version="1.0" encoding="UTF-8" standalone="no"?>
<svg
   width="16.844999"
   height="11.58"
   viewBox="0 0 16.844999 11.58"
   version="1.1"
   xml:space="preserve"
   style="clip-rule:evenodd;fill-rule:evenodd;stroke-linejoin:round;stroke-miterlimit:2"
   id="svg20568"
   sodipodi:docname="emojis.svg"
   xmlns:inkscape="http://www.inkscape.org/namespaces/inkscape"
   xmlns:sodipodi="http://sodipodi.sourceforge.net/DTD/sodipodi-0.dtd"
   xmlns="http://www.w3.org/2000/svg"
   xmlns:svg="http://www.w3.org/2000/svg"><defs
     id="defs20572" /><sodipodi:namedview
     id="namedview20570"
     pagecolor="#505050"
     bordercolor="#eeeeee"
     borderopacity="1"
     inkscape:pageshadow="0"
     inkscape:pageopacity="0"
     inkscape:pagecheckerboard="0" /><g
     transform="matrix(0.24,0,0,0.24,-667.1934,-803.4732)"
     id="g20566"><g
       transform="matrix(62.5,0,0,62.5,2772.16,3391.68)"
       id="g16390"><path
         d="m 1.107,-0.702 c 0.02,0 0.038,0.004 0.055,0.011 0.017,0.007 0.032,0.017 0.045,0.03 0.013,0.013 0.023,0.027 0.03,0.045 0.007,0.017 0.011,0.035 0.011,0.054 v 0.492 c 0,0.019 -0.004,0.037 -0.011,0.054 C 1.229,0.001 1.219,0.016 1.207,0.029 1.194,0.042 1.179,0.052 1.162,0.059 1.145,0.067 1.127,0.07 1.107,0.07 H 0.265 C 0.246,0.07 0.228,0.067 0.211,0.059 0.194,0.052 0.179,0.041 0.167,0.029 0.154,0.016 0.144,0.001 0.136,-0.016 0.129,-0.033 0.125,-0.051 0.125,-0.07 v -0.492 c 0,-0.018 0.004,-0.036 0.011,-0.053 0.008,-0.018 0.018,-0.033 0.031,-0.045 0.012,-0.013 0.027,-0.023 0.044,-0.031 0.017,-0.007 0.035,-0.011 0.054,-0.011 z"
         style="fill-rule:nonzero"
         id="path16374" /><path
         d="m 1.178,-0.07 c 0,0.009 -0.002,0.019 -0.006,0.027 C 1.168,-0.035 1.163,-0.027 1.157,-0.021 1.151,-0.014 1.143,-0.009 1.135,-0.006 1.126,-0.002 1.117,0 1.107,0 H 0.265 C 0.255,0 0.246,-0.002 0.238,-0.006 0.229,-0.009 0.222,-0.014 0.216,-0.021 0.209,-0.027 0.204,-0.035 0.201,-0.043 0.197,-0.051 0.195,-0.061 0.195,-0.07 V -0.457 L 0.261,-0.508 0.195,-0.562 c 0,-0.009 0.002,-0.018 0.006,-0.027 0.003,-0.008 0.008,-0.016 0.015,-0.022 0.006,-0.006 0.013,-0.011 0.022,-0.015 0.008,-0.004 0.017,-0.006 0.027,-0.006 h 0.842 c 0.01,0 0.019,0.002 0.028,0.006 0.008,0.004 0.016,0.009 0.022,0.015 0.006,0.006 0.011,0.014 0.015,0.022 0.004,0.009 0.006,0.018 0.006,0.027 l -0.072,0.05 0.072,0.055 z"
         style="fill:#ffb900;fill-rule:nonzero"
         id="path16376" /><rect
         x="0.19499999"
         y="-0.56199998"
         width="0.98199999"
         height="0.105"
         style="fill:#613d30;fill-rule:nonzero"
         id="rect16378" /><path
         d="M 0.932,-0.176 H 0.827 L 0.822,-0.188 0.792,-0.176 H 0.651 L 0.646,-0.187 0.621,-0.177 C 0.618,-0.176 0.616,-0.176 0.616,-0.176 H 0.476 L 0.471,-0.187 0.441,-0.176 H 0.3 L 0.296,-0.187 0.265,-0.176 v -0.105 h 0.106 l 0.002,0.014 0.032,-0.014 h 0.141 l 0.002,0.015 0.033,-0.015 h 0.141 l 0.006,0.012 0.028,-0.012 h 0.141 l 0.006,0.011 0.029,-0.011 z"
         style="fill:#f2f2f2;fill-rule:nonzero"
         id="path16380" /><rect
         x="0.96700001"
         y="-0.28099999"
         width="0.14"
         height="0.07"
         style="fill:#e5e5e5;fill-rule:nonzero"
         id="rect16382" /><path
         d="M 0.265,-0.105 H 1.107 V -0.07 H 0.265 Z m 0.141,-0.281 v 0.035 H 0.265 v -0.035 z"
         style="fill:#d48c00;fill-rule:nonzero"
         id="path16384" /><path
         d="M 0.265,-0.176 0.371,-0.281 H 0.406 L 0.3,-0.176 Z M 0.722,-0.281 H 0.757 L 0.651,-0.176 H 0.616 Z"
         style="fill:#f2d6c9;fill-rule:nonzero"
         id="path16386" /><path
         d="M 0.441,-0.176 0.546,-0.281 H 0.581 L 0.476,-0.176 Z M 0.897,-0.281 H 0.932 L 0.827,-0.176 H 0.792 Z"
         style="fill:#b3dbf2;fill-rule:nonzero"
         id="path16388" /></g></g></svg>
