<?xml version="1.0" encoding="UTF-8" standalone="no"?>
<svg
   width="16.845001"
   height="12.105"
   viewBox="0 0 16.845001 12.105"
   version="1.1"
   xml:space="preserve"
   style="clip-rule:evenodd;fill-rule:evenodd;stroke-linejoin:round;stroke-miterlimit:2"
   id="svg20568"
   sodipodi:docname="emojis.svg"
   xmlns:inkscape="http://www.inkscape.org/namespaces/inkscape"
   xmlns:sodipodi="http://sodipodi.sourceforge.net/DTD/sodipodi-0.dtd"
   xmlns="http://www.w3.org/2000/svg"
   xmlns:svg="http://www.w3.org/2000/svg"><defs
     id="defs20572" /><sodipodi:namedview
     id="namedview20570"
     pagecolor="#505050"
     bordercolor="#eeeeee"
     borderopacity="1"
     inkscape:pageshadow="0"
     inkscape:pageopacity="0"
     inkscape:pagecheckerboard="0" /><g
     transform="matrix(0.24,0,0,0.24,-628.1046,-802.9482)"
     id="g20566"><g
       transform="matrix(62.5,0,0,62.5,2609.29,3391.68)"
       id="g16354"><rect
         x="0.125"
         y="-0.73699999"
         width="1.123"
         height="0.80699998"
         style="fill-rule:nonzero"
         id="rect16332" /><path
         d="m 1.178,-0.667 v 0.562 L 1.138,-0.08 H 0.224 L 0.195,-0.105 v -0.562 h 0.421 l 0.072,0.062 0.068,-0.062 z"
         style="fill:#f2f2f2;fill-rule:nonzero"
         id="path16334" /><path
         d="m 1.178,-0.07 v 0.035 l -0.03,0.024 H 0.238 L 0.195,-0.035 V -0.07 l 0.042,-0.026 h 0.904 z"
         style="fill:#e5e5e5;fill-rule:nonzero"
         id="path16336" /><path
         d="m 0.546,-0.632 h 0.597 v 0.457 L 1.111,-0.15 H 0.569 L 0.546,-0.175 Z"
         style="fill:#b4a0ff;fill-rule:nonzero"
         id="path16338" /><path
         d="M 0.195,-0.105 H 1.178 V -0.07 H 0.195 Z M 0.195,0 V -0.035 H 1.178 V 0 H 0.756 L 0.689,-0.031 0.617,0 Z"
         style="fill:#cccccc;fill-rule:nonzero"
         id="path16340" /><path
         d="m 0.406,-0.456 h 0.035 c 0,0.01 -0.002,0.019 -0.006,0.027 C 0.432,-0.42 0.427,-0.413 0.42,-0.406 0.414,-0.4 0.406,-0.395 0.398,-0.392 0.389,-0.388 0.38,-0.386 0.371,-0.386 H 0.23 v -0.035 c 0.01,0 0.018,-0.004 0.025,-0.011 0.007,-0.006 0.01,-0.015 0.01,-0.024 V -0.491 H 0.23 v -0.035 h 0.035 v -0.036 c 0,-0.009 0.002,-0.018 0.006,-0.027 0.003,-0.008 0.009,-0.016 0.015,-0.022 0.006,-0.006 0.014,-0.011 0.022,-0.015 0.009,-0.004 0.018,-0.006 0.027,-0.006 0.01,0 0.019,0.002 0.028,0.006 0.008,0.004 0.016,0.009 0.022,0.015 0.006,0.006 0.011,0.014 0.015,0.022 0.004,0.009 0.006,0.018 0.006,0.027 H 0.371 C 0.371,-0.571 0.367,-0.58 0.36,-0.586 0.354,-0.593 0.345,-0.597 0.335,-0.597 0.326,-0.597 0.318,-0.593 0.311,-0.586 0.304,-0.579 0.3,-0.571 0.3,-0.562 v 0.036 h 0.071 v 0.035 H 0.3 l 0.001,0.023 c 0,0.008 -0.001,0.016 -0.002,0.024 -0.001,0.008 -0.004,0.015 -0.008,0.023 h 0.08 c 0.009,0 0.017,-0.004 0.024,-0.011 0.007,-0.006 0.011,-0.015 0.011,-0.024 z"
         style="fill:#383838;fill-rule:nonzero"
         id="path16342" /><rect
         x="0.47600001"
         y="-0.597"
         width="0.35100001"
         height="0.07"
         style="fill:#886ce4;fill-rule:nonzero"
         id="rect16344" /><rect
         x="0.23"
         y="-0.20999999"
         width="0.14"
         height="0.07"
         style="fill:#757575;fill-rule:nonzero"
         id="rect16346" /><path
         d="m 1.073,-0.175 h 0.07 v 0.034 H 0.476 v -0.034 h 0.316 c 0,-0.013 0.002,-0.026 0.005,-0.039 C 0.801,-0.227 0.806,-0.238 0.813,-0.249 0.82,-0.26 0.828,-0.27 0.838,-0.279 0.847,-0.288 0.858,-0.295 0.87,-0.301 0.856,-0.311 0.845,-0.324 0.838,-0.339 0.83,-0.353 0.827,-0.369 0.827,-0.386 c 0,-0.015 0.003,-0.03 0.009,-0.043 0.006,-0.014 0.014,-0.026 0.026,-0.035 v -0.098 l 0.035,0.036 0.035,-0.036 0.035,0.036 0.035,-0.036 v 0.098 c 0.012,0.009 0.021,0.021 0.027,0.035 0.006,0.013 0.009,0.028 0.009,0.043 0,0.017 -0.004,0.033 -0.012,0.047 -0.007,0.015 -0.018,0.028 -0.031,0.038 0.012,0.006 0.022,0.013 0.032,0.022 0.01,0.008 0.018,0.018 0.025,0.029 0.007,0.012 0.012,0.023 0.015,0.036 0.004,0.012 0.006,0.025 0.006,0.039 z m 0.034,-0.422 v 0.316 H 1.073 v -0.316 z"
         style="fill:#9c89e9;fill-rule:nonzero"
         id="path16348" /><path
         d="M 0.757,-0.105 V 0 H 0.616 v -0.105 l 0.073,-0.06 z"
         style="fill:#f2f2f2;fill-rule:nonzero"
         id="path16350" /><rect
         x="0.616"
         y="-0.667"
         width="0.141"
         height="0.56199998"
         style="fill:#ffffff;fill-rule:nonzero"
         id="rect16352" /></g></g></svg>
