<?xml version="1.0" encoding="UTF-8" standalone="no"?>
<svg
   width="13.695"
   height="16.845001"
   viewBox="0 0 13.695 16.845001"
   version="1.1"
   xml:space="preserve"
   style="clip-rule:evenodd;fill-rule:evenodd;stroke-linejoin:round;stroke-miterlimit:2"
   id="svg20568"
   sodipodi:docname="emojis.svg"
   xmlns:inkscape="http://www.inkscape.org/namespaces/inkscape"
   xmlns:sodipodi="http://sodipodi.sourceforge.net/DTD/sodipodi-0.dtd"
   xmlns="http://www.w3.org/2000/svg"
   xmlns:svg="http://www.w3.org/2000/svg"><defs
     id="defs20572" /><sodipodi:namedview
     id="namedview20570"
     pagecolor="#505050"
     bordercolor="#eeeeee"
     borderopacity="1"
     inkscape:pageshadow="0"
     inkscape:pageopacity="0"
     inkscape:pagecheckerboard="0" /><g
     transform="matrix(0.24,0,0,0.24,-768.0702,-800.3082)"
     id="g20566"><g
       transform="matrix(62.5,0,0,62.5,3192.48,3391.68)"
       id="g16450"><rect
         x="0.125"
         y="-0.91299999"
         width="0.91299999"
         height="1.123"
         style="fill-rule:nonzero"
         id="rect16440" /><path
         d="m 0.967,-0.807 v 0.138 L 0.954,-0.642 0.967,-0.63 V 0.14 H 0.195 V -0.63 L 0.22,-0.641 0.195,-0.669 v -0.138 l 0.258,-0.012 c 0.012,0 0.023,-0.001 0.034,-0.002 0.01,0 0.02,-0.001 0.03,-0.002 0.009,0 0.019,-0.001 0.03,-0.001 0.01,-0.001 0.021,-0.001 0.034,-0.001 0.013,0 0.024,0 0.034,0.001 0.011,0 0.021,0.001 0.031,0.001 0.009,0.001 0.019,0.002 0.03,0.002 0.01,0.001 0.021,0.002 0.034,0.002 z"
         style="fill:#e81224;fill-rule:nonzero"
         id="path16442" /><path
         d="m 0.967,-0.669 v 0.039 l -0.253,0.127 c 0.002,0.008 0.004,0.015 0.006,0.023 0.001,0.008 0.002,0.016 0.002,0.023 0,0.02 -0.004,0.038 -0.011,0.055 -0.008,0.017 -0.018,0.032 -0.03,0.045 -0.013,0.013 -0.028,0.023 -0.045,0.03 C 0.619,-0.32 0.601,-0.316 0.581,-0.316 0.562,-0.316 0.544,-0.32 0.527,-0.327 0.51,-0.335 0.495,-0.345 0.482,-0.357 0.469,-0.37 0.459,-0.385 0.452,-0.402 0.445,-0.419 0.441,-0.437 0.441,-0.457 c 0,-0.007 0.001,-0.015 0.002,-0.023 0.001,-0.008 0.003,-0.015 0.006,-0.023 L 0.195,-0.63 v -0.039 l 0.269,0.135 c 0.013,-0.02 0.03,-0.035 0.051,-0.046 0.021,-0.011 0.043,-0.017 0.066,-0.017 0.023,0 0.046,0.006 0.066,0.017 0.021,0.011 0.038,0.026 0.051,0.046 z"
         style="fill:#af0d1a;fill-rule:nonzero"
         id="path16444" /><path
         d="m 0.722,-0.491 c 0,0.019 -0.004,0.037 -0.012,0.054 C 0.703,-0.42 0.693,-0.405 0.68,-0.392 0.667,-0.379 0.653,-0.369 0.635,-0.362 0.618,-0.355 0.6,-0.351 0.581,-0.351 0.562,-0.351 0.544,-0.355 0.527,-0.362 0.51,-0.369 0.495,-0.379 0.482,-0.392 0.469,-0.405 0.459,-0.42 0.452,-0.437 0.445,-0.454 0.441,-0.472 0.441,-0.491 c 0,-0.019 0.004,-0.038 0.011,-0.055 0.007,-0.017 0.017,-0.032 0.03,-0.044 0.013,-0.013 0.028,-0.023 0.045,-0.031 0.017,-0.007 0.035,-0.011 0.054,-0.011 0.02,0 0.038,0.004 0.055,0.011 0.017,0.007 0.032,0.017 0.045,0.03 0.012,0.013 0.022,0.028 0.03,0.045 0.007,0.017 0.011,0.035 0.011,0.055 z"
         style="fill:#ffb900;fill-rule:nonzero"
         id="path16446" /><rect
         x="0.19499999"
         y="-0.84200001"
         width="0.77200001"
         height="0.035"
         style="fill:#e84757;fill-rule:nonzero"
         id="rect16448" /></g></g></svg>
