<?xml version="1.0" encoding="UTF-8" standalone="no"?>
<svg
   width="16.844999"
   height="13.155"
   viewBox="0 0 16.844999 13.155"
   version="1.1"
   xml:space="preserve"
   style="clip-rule:evenodd;fill-rule:evenodd;stroke-linejoin:round;stroke-miterlimit:2"
   id="svg20568"
   sodipodi:docname="emojis.svg"
   xmlns:inkscape="http://www.inkscape.org/namespaces/inkscape"
   xmlns:sodipodi="http://sodipodi.sourceforge.net/DTD/sodipodi-0.dtd"
   xmlns="http://www.w3.org/2000/svg"
   xmlns:svg="http://www.w3.org/2000/svg"><defs
     id="defs20572" /><sodipodi:namedview
     id="namedview20570"
     pagecolor="#505050"
     bordercolor="#eeeeee"
     borderopacity="1"
     inkscape:pageshadow="0"
     inkscape:pageopacity="0"
     inkscape:pagecheckerboard="0" /><g
     transform="matrix(0.24,0,0,0.24,-54.405,-820.9686)"
     id="g20566"><g
       transform="matrix(62.5,0,0,62.5,218.875,3462.39)"
       id="g16494"><path
         d="M 0.265,0.21 C 0.246,0.21 0.228,0.207 0.211,0.199 0.194,0.192 0.179,0.182 0.166,0.169 0.153,0.157 0.143,0.142 0.136,0.125 0.129,0.108 0.125,0.09 0.125,0.07 v -0.254 l 0.264,-0.132 h 0.087 v -0.07 h 0.105 v -0.281 h 0.211 v 0.281 h 0.105 v 0.07 h 0.087 l 0.264,0.132 V 0.07 C 1.248,0.09 1.244,0.108 1.237,0.125 1.229,0.141 1.219,0.156 1.206,0.169 1.193,0.182 1.178,0.192 1.161,0.199 1.144,0.207 1.126,0.21 1.107,0.21 Z"
         style="fill-rule:nonzero"
         id="path16486" /><path
         d="M 1.178,-0.141 1.063,-0.029 0.767,0.007 C 0.761,0.01 0.755,0.013 0.747,0.017 0.74,0.02 0.732,0.023 0.725,0.025 0.717,0.028 0.709,0.03 0.701,0.032 0.693,0.034 0.686,0.035 0.68,0.035 0.674,0.035 0.665,0.033 0.653,0.029 0.642,0.024 0.629,0.02 0.617,0.014 0.604,0.008 0.592,0.002 0.58,-0.003 0.569,-0.009 0.56,-0.014 0.554,-0.018 L 0.301,-0.032 0.195,-0.141 0.406,-0.246 h 0.561 z"
         style="fill:#3a96dd;fill-rule:nonzero"
         id="path16488" /><path
         d="M 0.827,-0.141 H 1.178 V 0.07 C 1.178,0.08 1.176,0.089 1.172,0.098 1.168,0.106 1.163,0.114 1.157,0.12 1.151,0.126 1.143,0.131 1.135,0.135 1.126,0.138 1.117,0.14 1.107,0.14 H 0.265 C 0.255,0.14 0.246,0.138 0.238,0.135 0.229,0.131 0.222,0.126 0.216,0.12 0.209,0.114 0.204,0.106 0.201,0.098 0.197,0.089 0.195,0.08 0.195,0.07 v -0.211 h 0.351 c 0,0.02 0.004,0.038 0.011,0.055 0.007,0.017 0.017,0.032 0.03,0.045 0.013,0.013 0.028,0.023 0.045,0.03 C 0.649,-0.004 0.667,0 0.687,0 c 0.019,0 0.037,-0.004 0.054,-0.011 0.017,-0.007 0.032,-0.017 0.045,-0.03 0.012,-0.013 0.022,-0.028 0.03,-0.045 0.007,-0.017 0.011,-0.035 0.011,-0.055 z"
         style="fill:#b3dbf2;fill-rule:nonzero"
         id="path16490" /><path
         d="m 0.722,-0.316 h 0.105 l -0.14,0.14 -0.141,-0.14 h 0.105 v -0.281 h 0.071 z"
         style="fill:#e81224;fill-rule:nonzero"
         id="path16492" /></g></g></svg>
