<?xml version="1.0" encoding="UTF-8" standalone="no"?>
<svg
   width="16.845001"
   height="11.58"
   viewBox="0 0 16.845001 11.58"
   version="1.1"
   xml:space="preserve"
   style="clip-rule:evenodd;fill-rule:evenodd;stroke-linejoin:round;stroke-miterlimit:2"
   id="svg20568"
   sodipodi:docname="emojis.svg"
   xmlns:inkscape="http://www.inkscape.org/namespaces/inkscape"
   xmlns:sodipodi="http://sodipodi.sourceforge.net/DTD/sodipodi-0.dtd"
   xmlns="http://www.w3.org/2000/svg"
   xmlns:svg="http://www.w3.org/2000/svg"><defs
     id="defs20572" /><sodipodi:namedview
     id="namedview20570"
     pagecolor="#505050"
     bordercolor="#eeeeee"
     borderopacity="1"
     inkscape:pageshadow="0"
     inkscape:pageopacity="0"
     inkscape:pagecheckerboard="0" /><g
     transform="matrix(0.24,0,0,0.24,-747.4734,-802.9482)"
     id="g20566"><g
       transform="matrix(62.5,0,0,62.5,3106.66,3391.68)"
       id="g16438"><rect
         x="0.125"
         y="-0.73699999"
         width="1.123"
         height="0.77200001"
         style="fill-rule:nonzero"
         id="rect16428" /><path
         d="m 0.689,-0.65 c 0.028,0 0.055,0.002 0.082,0.007 0.027,0.004 0.054,0.008 0.081,0.012 l 0.326,0.038 v 0.508 l -0.027,0.002 0.027,0.048 H 0.195 L 0.211,-0.079 0.195,-0.085 V -0.593 L 0.524,-0.631 C 0.552,-0.635 0.579,-0.639 0.606,-0.643 0.633,-0.648 0.661,-0.65 0.689,-0.65 Z"
         style="fill:#f2f2f2;fill-rule:nonzero"
         id="path16430" /><path
         d="m 0.195,-0.632 h 0.983 v 0.039 l -0.339,0.17 0.339,0.338 v 0.05 L 0.806,-0.407 c -0.02,0.01 -0.04,0.02 -0.06,0.029 -0.02,0.01 -0.04,0.02 -0.059,0.031 -0.02,-0.011 -0.04,-0.021 -0.06,-0.031 -0.02,-0.009 -0.04,-0.019 -0.06,-0.029 l -0.372,0.372 v -0.05 l 0.339,-0.338 -0.339,-0.17 z"
         style="fill:#cccccc;fill-rule:nonzero"
         id="path16432" /><path
         d="m 0.195,-0.667 h 0.983 v 0.035 L 0.687,-0.386 0.195,-0.632 Z"
         style="fill:#ffffff;fill-rule:nonzero"
         id="path16434" /><path
         d="m 0.687,-0.351 c 0.019,0 0.037,0.004 0.054,0.011 0.017,0.007 0.032,0.017 0.045,0.03 0.012,0.013 0.022,0.028 0.03,0.045 0.007,0.017 0.011,0.035 0.011,0.055 v 0.017 c 0,0.007 -0.002,0.014 -0.004,0.02 -0.003,0.006 -0.007,0.012 -0.012,0.017 -0.004,0.005 -0.01,0.008 -0.016,0.011 -0.007,0.003 -0.013,0.004 -0.021,0.004 -0.009,0 -0.017,-0.002 -0.025,-0.006 C 0.741,-0.152 0.735,-0.158 0.73,-0.165 0.722,-0.158 0.712,-0.152 0.702,-0.147 0.691,-0.143 0.68,-0.141 0.669,-0.141 0.662,-0.141 0.655,-0.142 0.649,-0.145 0.642,-0.148 0.637,-0.151 0.632,-0.156 0.627,-0.161 0.623,-0.167 0.62,-0.173 0.618,-0.179 0.616,-0.186 0.616,-0.193 c 0,-0.012 0.002,-0.024 0.007,-0.034 0.005,-0.011 0.011,-0.02 0.019,-0.028 0.008,-0.008 0.017,-0.014 0.028,-0.019 0.011,-0.004 0.022,-0.007 0.034,-0.007 0.007,0 0.014,0.002 0.02,0.004 0.007,0.003 0.012,0.007 0.017,0.012 0.005,0.005 0.009,0.01 0.012,0.017 0.002,0.006 0.004,0.013 0.004,0.02 l -0.001,0.023 c 0,0.003 0,0.007 0,0.01 0.001,0.003 0.001,0.007 0.003,0.009 0.001,0.003 0.003,0.006 0.005,0.008 0.003,0.001 0.006,0.002 0.01,0.002 0.004,0 0.007,-0.001 0.01,-0.002 0.002,-0.002 0.004,-0.004 0.005,-0.007 0.001,-0.003 0.002,-0.006 0.003,-0.009 0,-0.003 0,-0.006 0,-0.009 0,-0.015 -0.002,-0.03 -0.007,-0.044 C 0.78,-0.26 0.773,-0.272 0.763,-0.282 0.754,-0.293 0.743,-0.301 0.73,-0.307 0.717,-0.313 0.702,-0.316 0.687,-0.316 c -0.015,0 -0.029,0.003 -0.041,0.008 -0.013,0.006 -0.024,0.013 -0.034,0.023 -0.01,0.01 -0.017,0.021 -0.023,0.034 -0.005,0.012 -0.008,0.026 -0.008,0.041 0,0.014 0.003,0.027 0.008,0.04 0.006,0.013 0.013,0.024 0.023,0.034 0.01,0.009 0.021,0.017 0.034,0.022 0.013,0.006 0.026,0.009 0.041,0.009 h 0.07 V -0.07 H 0.687 C 0.667,-0.07 0.649,-0.074 0.632,-0.082 0.615,-0.089 0.601,-0.099 0.588,-0.112 0.575,-0.125 0.565,-0.139 0.557,-0.156 0.55,-0.173 0.546,-0.191 0.546,-0.21 0.546,-0.23 0.55,-0.248 0.557,-0.265 0.564,-0.282 0.574,-0.297 0.587,-0.31 0.6,-0.323 0.615,-0.333 0.632,-0.34 0.649,-0.347 0.667,-0.351 0.687,-0.351 Z m -0.018,0.175 c 0.007,0 0.014,-0.001 0.02,-0.004 0.007,-0.003 0.012,-0.006 0.017,-0.011 0.005,-0.005 0.009,-0.01 0.012,-0.017 0.002,-0.006 0.004,-0.013 0.004,-0.02 0,-0.005 -0.002,-0.009 -0.005,-0.012 -0.004,-0.004 -0.008,-0.006 -0.013,-0.006 -0.007,0 -0.014,0.002 -0.02,0.005 -0.007,0.002 -0.012,0.006 -0.017,0.011 -0.005,0.004 -0.009,0.01 -0.011,0.016 -0.003,0.007 -0.005,0.013 -0.005,0.021 0,0.005 0.002,0.009 0.005,0.012 0.004,0.004 0.008,0.005 0.013,0.005 z"
         style="fill:#f03a17;fill-rule:nonzero"
         id="path16436" /></g></g></svg>
