<?xml version="1.0" encoding="UTF-8" standalone="no"?>
<svg
   width="16.844999"
   height="16.32"
   viewBox="0 0 16.844999 16.32"
   version="1.1"
   xml:space="preserve"
   style="clip-rule:evenodd;fill-rule:evenodd;stroke-linejoin:round;stroke-miterlimit:2"
   id="svg20568"
   sodipodi:docname="emojis.svg"
   xmlns:inkscape="http://www.inkscape.org/namespaces/inkscape"
   xmlns:sodipodi="http://sodipodi.sourceforge.net/DTD/sodipodi-0.dtd"
   xmlns="http://www.w3.org/2000/svg"
   xmlns:svg="http://www.w3.org/2000/svg"><defs
     id="defs20572" /><sodipodi:namedview
     id="namedview20570"
     pagecolor="#505050"
     bordercolor="#eeeeee"
     borderopacity="1"
     inkscape:pageshadow="0"
     inkscape:pageopacity="0"
     inkscape:pagecheckerboard="0" /><g
     transform="matrix(0.24,0,0,0.24,-726.879,-800.3082)"
     id="g20566"><g
       transform="matrix(62.5,0,0,62.5,3020.85,3391.68)"
       id="g16426"><path
         d="M 1.001,-0.693 1.248,-0.57 V 0.175 H 0.125 V -0.57 C 0.166,-0.591 0.207,-0.612 0.248,-0.632 0.289,-0.652 0.33,-0.673 0.372,-0.693 0.371,-0.701 0.371,-0.71 0.371,-0.718 c 0,-0.027 0.005,-0.052 0.015,-0.076 0.01,-0.023 0.024,-0.044 0.041,-0.061 0.018,-0.018 0.038,-0.032 0.062,-0.042 0.024,-0.01 0.049,-0.016 0.076,-0.016 0.022,0 0.044,0.004 0.065,0.011 0.021,0.007 0.04,0.018 0.057,0.032 0.016,-0.014 0.035,-0.025 0.056,-0.032 0.021,-0.007 0.043,-0.011 0.065,-0.011 0.027,0 0.052,0.006 0.076,0.016 0.024,0.01 0.044,0.024 0.062,0.042 0.017,0.018 0.031,0.039 0.041,0.063 0.01,0.023 0.015,0.049 0.015,0.075 0,0.008 0,0.016 -0.001,0.024 z"
         style="fill-rule:nonzero"
         id="path16414" /><path
         d="m 0.687,-0.772 0.491,0.246 v 0.057 c 0,0.017 -0.002,0.035 -0.006,0.052 -0.003,0.017 -0.006,0.034 -0.009,0.051 l -0.016,0.091 c -0.003,0.015 -0.006,0.03 -0.01,0.045 -0.003,0.015 -0.005,0.03 -0.005,0.045 0,0.017 0.002,0.033 0.005,0.049 0.004,0.016 0.007,0.032 0.01,0.048 L 1.178,0.105 H 0.195 l 0.028,-0.194 c 0.002,-0.015 0.005,-0.029 0.009,-0.044 0.004,-0.014 0.005,-0.029 0.005,-0.044 v -0.005 c 0,-0.001 0,-0.002 0,-0.004 L 0.209,-0.366 C 0.206,-0.382 0.203,-0.396 0.2,-0.411 0.197,-0.426 0.195,-0.441 0.195,-0.457 v -0.069 z"
         style="fill:#e5e5e5;fill-rule:nonzero"
         id="path16416" /><path
         d="M 1.178,-0.457 1.145,0.035 H 0.243 L 0.195,-0.457 0.687,-0.702 Z"
         style="fill:#83beec;fill-rule:nonzero"
         id="path16418" /><path
         d="M 0.195,-0.457 1.178,0.035 C 1.174,0.046 1.169,0.056 1.163,0.066 1.156,0.076 1.148,0.085 1.14,0.092 H 0.21 L 0.215,0.067 0.195,0.035 Z"
         style="fill:#f2f2f2;fill-rule:nonzero"
         id="path16420" /><path
         d="M 1.178,-0.457 V 0.105 H 0.195 v -0.07 z"
         style="fill:#ffffff;fill-rule:nonzero"
         id="path16422" /><path
         d="m 0.808,-0.842 c 0.017,0 0.033,0.003 0.048,0.009 0.015,0.007 0.029,0.016 0.04,0.027 0.011,0.011 0.02,0.025 0.026,0.04 0.007,0.015 0.01,0.031 0.01,0.048 0,0.016 -0.003,0.032 -0.009,0.048 -0.007,0.015 -0.016,0.028 -0.027,0.04 L 0.687,-0.421 0.477,-0.63 C 0.466,-0.642 0.457,-0.655 0.45,-0.67 0.444,-0.686 0.441,-0.702 0.441,-0.718 c 0,-0.017 0.003,-0.033 0.01,-0.048 0.006,-0.015 0.015,-0.029 0.026,-0.04 0.012,-0.011 0.025,-0.02 0.04,-0.027 0.015,-0.006 0.031,-0.009 0.048,-0.009 0.013,0 0.025,0.001 0.036,0.005 0.01,0.003 0.02,0.008 0.029,0.014 0.009,0.006 0.018,0.012 0.026,0.02 0.008,0.008 0.016,0.016 0.025,0.025 l 0.006,0.006 0.005,-0.006 c 0.009,-0.009 0.017,-0.017 0.025,-0.025 0.008,-0.008 0.017,-0.014 0.026,-0.02 0.009,-0.006 0.019,-0.011 0.029,-0.014 0.011,-0.004 0.023,-0.005 0.036,-0.005 z"
         style="fill:#e81224;fill-rule:nonzero"
         id="path16424" /></g></g></svg>
