<?xml version="1.0" encoding="UTF-8" standalone="no"?>
<svg
   width="14.73"
   height="16.844999"
   viewBox="0 0 14.73 16.844999"
   version="1.1"
   xml:space="preserve"
   style="clip-rule:evenodd;fill-rule:evenodd;stroke-linejoin:round;stroke-miterlimit:2"
   id="svg20568"
   sodipodi:docname="emojis.svg"
   xmlns:inkscape="http://www.inkscape.org/namespaces/inkscape"
   xmlns:sodipodi="http://sodipodi.sourceforge.net/DTD/sodipodi-0.dtd"
   xmlns="http://www.w3.org/2000/svg"
   xmlns:svg="http://www.w3.org/2000/svg"><defs
     id="defs20572" /><sodipodi:namedview
     id="namedview20570"
     pagecolor="#505050"
     bordercolor="#eeeeee"
     borderopacity="1"
     inkscape:pageshadow="0"
     inkscape:pageopacity="0"
     inkscape:pagecheckerboard="0" /><g
     transform="matrix(0.24,0,0,0.24,-687.7878,-800.3082)"
     id="g20566"><g
       transform="matrix(62.5,0,0,62.5,2857.97,3391.68)"
       id="g16402"><path
         d="M 0.3,0.21 C 0.276,0.21 0.253,0.206 0.232,0.197 0.211,0.188 0.192,0.175 0.176,0.159 0.16,0.143 0.148,0.125 0.139,0.103 0.13,0.082 0.125,0.059 0.125,0.035 v -0.07 H 0.23 v -0.702 c 0,-0.024 0.005,-0.047 0.014,-0.068 0.009,-0.022 0.022,-0.04 0.038,-0.056 0.016,-0.016 0.034,-0.028 0.056,-0.038 0.021,-0.009 0.044,-0.014 0.068,-0.014 h 0.561 c 0.023,0 0.043,0.006 0.061,0.017 0.017,0.01 0.032,0.024 0.044,0.041 0.011,0.017 0.02,0.035 0.026,0.056 0.006,0.021 0.009,0.042 0.009,0.062 v 0.07 H 0.967 V 0.035 C 0.967,0.059 0.963,0.082 0.953,0.103 0.944,0.125 0.932,0.143 0.916,0.159 0.9,0.175 0.881,0.188 0.86,0.197 0.839,0.206 0.816,0.21 0.792,0.21 Z"
         style="fill-rule:nonzero"
         id="path16392" /><path
         d="M 1.038,-0.737 H 0.843 c 0,-0.019 0.004,-0.034 0.01,-0.047 0.007,-0.014 0.016,-0.025 0.027,-0.033 0.012,-0.009 0.025,-0.015 0.04,-0.019 0.015,-0.004 0.031,-0.006 0.047,-0.006 0.013,0 0.023,0.003 0.032,0.01 0.009,0.008 0.016,0.016 0.022,0.027 0.005,0.011 0.01,0.022 0.012,0.034 0.003,0.012 0.005,0.024 0.005,0.034 z"
         style="fill:#cccccc;fill-rule:nonzero"
         id="path16394" /><path
         d="M 0.897,-0.737 V 0.035 C 0.897,0.05 0.894,0.063 0.889,0.076 0.883,0.089 0.876,0.1 0.866,0.109 0.857,0.119 0.846,0.126 0.833,0.132 0.82,0.137 0.807,0.14 0.792,0.14 0.76,0.14 0.729,0.137 0.697,0.131 0.664,0.125 0.633,0.119 0.602,0.112 L 0.591,0.11 C 0.542,0.099 0.493,0.088 0.445,0.075 0.397,0.063 0.348,0.049 0.3,0.035 v -0.772 c 0,-0.015 0.003,-0.029 0.009,-0.041 0.005,-0.013 0.013,-0.024 0.022,-0.034 0.01,-0.009 0.021,-0.016 0.034,-0.022 0.012,-0.006 0.026,-0.008 0.041,-0.008 h 0.557 c -0.011,0.001 -0.021,0.005 -0.03,0.012 -0.008,0.007 -0.015,0.016 -0.02,0.027 -0.006,0.01 -0.01,0.021 -0.012,0.033 -0.003,0.012 -0.004,0.023 -0.004,0.033 z"
         style="fill:#ffffff;fill-rule:nonzero"
         id="path16396" /><path
         d="m 0.371,-0.737 h 0.456 v 0.07 H 0.371 Z m 0,0.702 V -0.07 h 0.28 v 0.035 z m 0.28,-0.211 h -0.28 v -0.035 h 0.28 z m -0.28,-0.14 h 0.28 v 0.035 h -0.28 z m 0.28,0.245 h -0.28 v -0.035 h 0.28 z m -0.28,-0.456 h 0.28 v 0.035 h -0.28 z m 0.28,0.14 h -0.28 v -0.034 h 0.28 z m 0.071,0.071 h 0.105 v 0.035 H 0.722 Z m 0.105,0.245 H 0.722 v -0.035 h 0.105 z m 0,-0.105 H 0.722 V -0.281 H 0.827 Z M 0.722,-0.597 h 0.105 v 0.035 H 0.722 Z m 0,0.562 V -0.07 h 0.105 v 0.035 z M 0.827,-0.457 H 0.722 v -0.034 h 0.105 z"
         style="fill:#a6a6a6;fill-rule:nonzero"
         id="path16398" /><path
         d="m 0.195,0.035 h 0.492 c 0,0.014 0.002,0.028 0.007,0.04 C 0.7,0.088 0.707,0.099 0.716,0.108 0.725,0.117 0.736,0.125 0.748,0.131 0.76,0.136 0.774,0.139 0.788,0.14 H 0.3 C 0.286,0.14 0.272,0.137 0.259,0.132 0.247,0.126 0.236,0.119 0.226,0.109 0.217,0.1 0.209,0.089 0.204,0.076 0.198,0.063 0.195,0.05 0.195,0.035 Z"
         style="fill:#e5e5e5;fill-rule:nonzero"
         id="path16400" /></g></g></svg>
