<?xml version="1.0" encoding="UTF-8" standalone="no"?>
<svg
   width="16.844999"
   height="16.305"
   viewBox="0 0 16.844999 16.305"
   version="1.1"
   xml:space="preserve"
   style="clip-rule:evenodd;fill-rule:evenodd;stroke-linejoin:round;stroke-miterlimit:2"
   id="svg20568"
   sodipodi:docname="emojis.svg"
   xmlns:inkscape="http://www.inkscape.org/namespaces/inkscape"
   xmlns:sodipodi="http://sodipodi.sourceforge.net/DTD/sodipodi-0.dtd"
   xmlns="http://www.w3.org/2000/svg"
   xmlns:svg="http://www.w3.org/2000/svg"><defs
     id="defs20572" /><sodipodi:namedview
     id="namedview20570"
     pagecolor="#505050"
     bordercolor="#eeeeee"
     borderopacity="1"
     inkscape:pageshadow="0"
     inkscape:pageopacity="0"
     inkscape:pagecheckerboard="0" /><g
     transform="matrix(0.24,0,0,0.24,-13.213584,-817.8186)"
     id="g20566"><g
       transform="matrix(62.5,0,0,62.5,47.2441,3462.39)"
       id="g16474"><path
         d="M 0.792,-0.562 H 1.248 V 0.21 H 0.125 v -0.772 h 0.456 v -0.315 h 0.211 z"
         style="fill-rule:nonzero"
         id="path16464" /><path
         d="m 0.689,-0.475 c 0.028,0 0.055,0.002 0.082,0.007 0.027,0.005 0.054,0.009 0.081,0.012 l 0.326,0.039 V 0.091 L 1.151,0.092 1.178,0.14 H 0.195 L 0.211,0.097 0.195,0.091 v -0.508 l 0.329,-0.039 c 0.028,-0.003 0.055,-0.007 0.082,-0.012 0.027,-0.005 0.055,-0.007 0.083,-0.007 z"
         style="fill:#f2f2f2;fill-rule:nonzero"
         id="path16466" /><path
         d="m 0.195,-0.457 h 0.983 v 0.04 L 0.839,-0.248 1.178,0.091 V 0.14 L 0.806,-0.231 c -0.02,0.009 -0.04,0.019 -0.06,0.03 -0.019,0.01 -0.039,0.02 -0.059,0.03 -0.021,-0.01 -0.041,-0.02 -0.06,-0.03 -0.02,-0.011 -0.04,-0.021 -0.06,-0.03 L 0.195,0.14 V 0.091 L 0.534,-0.248 0.195,-0.417 Z"
         style="fill:#cccccc;fill-rule:nonzero"
         id="path16468" /><path
         d="m 0.195,-0.491 h 0.983 v 0.034 L 0.687,-0.21 0.195,-0.457 Z"
         style="fill:#ffffff;fill-rule:nonzero"
         id="path16470" /><path
         d="m 0.722,-0.456 h 0.105 l -0.14,0.14 -0.141,-0.14 h 0.105 v -0.351 h 0.071 z"
         style="fill:#e81224;fill-rule:nonzero"
         id="path16472" /></g></g></svg>
