<?xml version="1.0" encoding="UTF-8" standalone="no"?>
<svg
   width="16.844999"
   height="16.844999"
   viewBox="0 0 16.844999 16.844999"
   version="1.1"
   xml:space="preserve"
   style="clip-rule:evenodd;fill-rule:evenodd;stroke-linejoin:round;stroke-miterlimit:2"
   id="svg20568"
   sodipodi:docname="emojis.svg"
   xmlns:inkscape="http://www.inkscape.org/namespaces/inkscape"
   xmlns:sodipodi="http://sodipodi.sourceforge.net/DTD/sodipodi-0.dtd"
   xmlns="http://www.w3.org/2000/svg"
   xmlns:svg="http://www.w3.org/2000/svg"><defs
     id="defs20572" /><sodipodi:namedview
     id="namedview20570"
     pagecolor="#505050"
     bordercolor="#eeeeee"
     borderopacity="1"
     inkscape:pageshadow="0"
     inkscape:pageopacity="0"
     inkscape:pagecheckerboard="0" /><g
     transform="matrix(0.24,0,0,0.24,-75.0006,-817.2786)"
     id="g20566"><g
       transform="matrix(62.5,0,0,62.5,304.69,3462.39)"
       id="g16514"><path
         d="m 0.926,-0.913 0.322,0.322 V 0.21 H 0.447 L 0.125,-0.111 v -0.802 z"
         style="fill-rule:nonzero"
         id="path16496" /><path
         d="m 0.421,-0.615 h 0.645 l 0.112,0.053 V 0.14 H 0.476 L 0.427,0.025 Z"
         style="fill:#bb9167;fill-rule:nonzero"
         id="path16498" /><path
         d="m 0.195,-0.842 0.083,0.024 0.198,0.17 V 0.14 L 0.195,-0.141 Z"
         style="fill:#d8b094;fill-rule:nonzero"
         id="path16500" /><path
         d="m 0.195,-0.842 h 0.281 l 0.112,0.048 0.028,-0.048 h 0.281 l 0.281,0.28 H 0.897 L 0.806,-0.599 0.757,-0.562 H 0.476 Z"
         style="fill:#f7d7c4;fill-rule:nonzero"
         id="path16502" /><path
         d="m 0.757,-0.491 v -0.071 l 0.022,-0.051 0.118,0.051 v 0.071 z"
         style="fill:#757575;fill-rule:nonzero"
         id="path16504" /><path
         d="m 0.897,-0.562 h -0.14 l -0.281,-0.28 h 0.14 z"
         style="fill:#cccccc;fill-rule:nonzero"
         id="path16506" /><path
         d="M 0.932,0.07 V 0.035 H 1.107 V 0.07 Z m 0.07,-0.14 h 0.105 v 0.035 H 1.002 Z"
         style="fill:#383838;fill-rule:nonzero"
         id="path16508" /><path
         d="m 0.265,-0.351 0.176,0.175 V 0.035 L 0.265,-0.141 Z"
         style="fill:#e5e5e5;fill-rule:nonzero"
         id="path16510" /><path
         d="M 0.406,-0.035 0.3,-0.141 v -0.14 l 0.106,0.105 z"
         style="fill:#e81224;fill-rule:nonzero"
         id="path16512" /></g></g></svg>
