<?xml version="1.0" encoding="UTF-8" standalone="no"?>
<svg
   width="16.844999"
   height="13.68"
   viewBox="0 0 16.844999 13.68"
   version="1.1"
   xml:space="preserve"
   style="clip-rule:evenodd;fill-rule:evenodd;stroke-linejoin:round;stroke-miterlimit:2"
   id="svg20568"
   sodipodi:docname="emojis.svg"
   xmlns:inkscape="http://www.inkscape.org/namespaces/inkscape"
   xmlns:sodipodi="http://sodipodi.sourceforge.net/DTD/sodipodi-0.dtd"
   xmlns="http://www.w3.org/2000/svg"
   xmlns:svg="http://www.w3.org/2000/svg"><defs
     id="defs20572" /><sodipodi:namedview
     id="namedview20570"
     pagecolor="#505050"
     bordercolor="#eeeeee"
     borderopacity="1"
     inkscape:pageshadow="0"
     inkscape:pageopacity="0"
     inkscape:pagecheckerboard="0" /><g
     transform="matrix(0.24,0,0,0.24,-614.4798,-129.27924)"
     id="g20566"><g
       transform="matrix(62.5,0,0,62.5,2552.52,589.101)"
       id="g1656"><path
         d="M 0.91,0.105 C 0.866,0.105 0.825,0.096 0.787,0.078 0.748,0.06 0.715,0.035 0.687,0.002 0.659,0.035 0.625,0.06 0.586,0.078 0.548,0.096 0.507,0.105 0.463,0.105 0.423,0.105 0.386,0.098 0.351,0.083 0.316,0.068 0.284,0.047 0.256,0.019 0.239,0.002 0.222,-0.014 0.206,-0.029 0.191,-0.044 0.177,-0.06 0.165,-0.076 0.153,-0.093 0.143,-0.111 0.136,-0.13 0.129,-0.15 0.125,-0.173 0.125,-0.199 v -0.17 c 0,-0.015 0.003,-0.029 0.008,-0.043 0.005,-0.014 0.013,-0.026 0.022,-0.037 0.01,-0.011 0.021,-0.02 0.034,-0.027 0.013,-0.007 0.026,-0.012 0.041,-0.014 v -0.124 c 0,-0.017 0.003,-0.032 0.01,-0.047 0.006,-0.014 0.014,-0.027 0.024,-0.038 0.011,-0.011 0.023,-0.02 0.038,-0.027 0.014,-0.006 0.029,-0.01 0.046,-0.011 0.01,-0.021 0.025,-0.038 0.045,-0.051 0.02,-0.013 0.042,-0.019 0.066,-0.019 0.017,0 0.032,0.003 0.047,0.009 0.015,0.007 0.029,0.016 0.04,0.027 0.006,-0.001 0.012,-0.001 0.018,-0.001 0.016,0 0.03,0.002 0.045,0.008 0.014,0.006 0.026,0.014 0.037,0.024 0.011,0.01 0.02,0.022 0.027,0.035 0.007,0.014 0.011,0.028 0.013,0.044 C 0.688,-0.677 0.693,-0.691 0.7,-0.705 0.707,-0.718 0.716,-0.73 0.727,-0.74 0.738,-0.75 0.75,-0.758 0.764,-0.764 0.779,-0.77 0.793,-0.772 0.809,-0.772 c 0.006,0 0.012,0 0.018,0.001 0.012,-0.011 0.025,-0.02 0.04,-0.027 0.015,-0.006 0.03,-0.009 0.047,-0.009 0.024,0 0.046,0.006 0.066,0.019 0.02,0.012 0.035,0.029 0.045,0.051 0.017,0.001 0.032,0.005 0.046,0.011 0.014,0.007 0.027,0.016 0.037,0.027 0.011,0.011 0.019,0.024 0.025,0.039 0.006,0.014 0.01,0.029 0.01,0.046 v 0.124 c 0.015,0.002 0.028,0.007 0.041,0.014 0.013,0.007 0.024,0.016 0.034,0.027 0.009,0.011 0.016,0.023 0.022,0.037 0.005,0.014 0.008,0.028 0.008,0.043 0,0.029 0,0.057 0,0.085 0,0.028 0,0.057 0,0.085 0,0.026 -0.004,0.049 -0.011,0.069 C 1.23,-0.111 1.221,-0.093 1.208,-0.076 1.196,-0.06 1.183,-0.044 1.167,-0.029 1.151,-0.014 1.134,0.002 1.117,0.019 1.089,0.047 1.057,0.068 1.022,0.083 0.987,0.098 0.95,0.105 0.91,0.105 Z"
         style="fill-rule:nonzero"
         id="path1650" /><path
         d="m 1.125,-0.421 c 0.007,0 0.014,0.001 0.02,0.004 0.007,0.003 0.012,0.006 0.017,0.011 0.005,0.005 0.009,0.011 0.012,0.017 0.002,0.006 0.004,0.013 0.004,0.02 v 0.17 c 0,0.019 -0.004,0.037 -0.011,0.054 C 1.16,-0.128 1.15,-0.112 1.137,-0.099 1.119,-0.081 1.102,-0.064 1.086,-0.048 1.07,-0.032 1.054,-0.017 1.037,-0.005 1.02,0.007 1.001,0.017 0.981,0.024 0.96,0.031 0.937,0.035 0.91,0.035 0.89,0.035 0.872,0.033 0.854,0.028 0.836,0.023 0.819,0.017 0.802,0.008 0.786,-0.001 0.771,-0.012 0.758,-0.025 0.744,-0.038 0.732,-0.052 0.721,-0.068 V -0.076 C 0.72,-0.084 0.719,-0.094 0.718,-0.106 0.717,-0.119 0.716,-0.131 0.713,-0.143 0.711,-0.156 0.708,-0.166 0.704,-0.175 0.7,-0.184 0.695,-0.188 0.689,-0.188 H 0.687 c 0,0.031 -0.006,0.06 -0.018,0.087 C 0.657,-0.074 0.641,-0.05 0.621,-0.03 0.601,-0.01 0.577,0.006 0.55,0.018 0.523,0.029 0.494,0.035 0.463,0.035 0.436,0.035 0.413,0.031 0.392,0.024 0.372,0.017 0.353,0.007 0.336,-0.005 0.319,-0.017 0.303,-0.032 0.287,-0.048 0.271,-0.064 0.254,-0.081 0.236,-0.099 0.223,-0.112 0.213,-0.128 0.206,-0.145 0.199,-0.162 0.195,-0.18 0.195,-0.199 v -0.17 c 0,-0.007 0.002,-0.014 0.004,-0.02 0.003,-0.006 0.007,-0.012 0.012,-0.017 0.005,-0.005 0.01,-0.008 0.017,-0.011 0.006,-0.003 0.013,-0.004 0.02,-0.004 0.007,0 0.014,0.001 0.02,0.004 0.007,0.003 0.012,0.006 0.017,0.011 0.005,0.005 0.008,0.011 0.011,0.017 0.003,0.006 0.004,0.013 0.004,0.02 l 0.035,-0.295 c 0.006,-0.002 0.012,-0.003 0.018,-0.003 0.007,0 0.014,0.001 0.021,0.004 0.006,0.003 0.012,0.007 0.016,0.011 0.005,0.005 0.009,0.011 0.012,0.017 0.002,0.007 0.004,0.014 0.004,0.021 l 0.035,-0.12 c 0.006,-0.002 0.012,-0.003 0.017,-0.003 0.008,0 0.014,0.001 0.021,0.004 0.006,0.003 0.012,0.006 0.017,0.011 0.004,0.005 0.008,0.011 0.011,0.017 0.003,0.007 0.004,0.013 0.004,0.02 v 0.036 l 0.035,-0.05 c 0.006,-0.002 0.012,-0.003 0.017,-0.003 0.008,0 0.014,0.001 0.021,0.004 0.006,0.003 0.012,0.007 0.017,0.011 0.004,0.005 0.008,0.011 0.011,0.017 0.003,0.007 0.004,0.013 0.004,0.021 v 0.087 l 0.035,-0.035 c 0.01,0 0.018,0.004 0.025,0.011 0.007,0.006 0.011,0.015 0.011,0.024 l 0.035,-0.035 c 0.009,0 0.018,0.004 0.025,0.011 0.006,0.006 0.01,0.015 0.01,0.024 l 0.035,-0.137 c 0.005,-0.002 0.011,-0.003 0.018,-0.003 0.007,0 0.013,0.001 0.02,0.004 0.006,0.003 0.012,0.007 0.016,0.011 0.005,0.005 0.009,0.011 0.012,0.017 0.002,0.007 0.004,0.013 0.004,0.021 l 0.035,-0.085 c 0.006,-0.002 0.012,-0.003 0.018,-0.003 0.007,0 0.013,0.001 0.02,0.004 0.006,0.003 0.012,0.006 0.017,0.011 0.005,0.005 0.008,0.011 0.011,0.017 0.003,0.007 0.004,0.013 0.004,0.02 v 0.071 l 0.035,-0.05 c 0.006,-0.002 0.012,-0.003 0.018,-0.003 0.007,0 0.014,0.001 0.02,0.004 0.007,0.003 0.012,0.007 0.017,0.012 0.005,0.005 0.009,0.01 0.012,0.016 0.002,0.007 0.004,0.014 0.004,0.021 v 0.245 L 1.107,-0.418 C 1.113,-0.42 1.119,-0.421 1.125,-0.421 Z"
         style="fill:#ffc83d;fill-rule:nonzero"
         id="path1652" /><path
         d="m 0.406,-0.281 c 0.019,0 0.038,0.004 0.054,0.011 0.017,0.008 0.032,0.018 0.045,0.03 0.013,0.013 0.023,0.028 0.03,0.045 0.007,0.017 0.011,0.035 0.011,0.054 v 0.01 c 0,0.006 -0.001,0.012 -0.003,0.017 -0.002,0.006 -0.006,0.009 -0.014,0.009 -0.005,0 -0.009,-0.002 -0.013,-0.006 C 0.513,-0.114 0.511,-0.118 0.511,-0.123 V -0.141 C 0.511,-0.155 0.508,-0.169 0.503,-0.182 0.497,-0.194 0.49,-0.205 0.48,-0.215 0.471,-0.224 0.459,-0.232 0.447,-0.237 0.434,-0.243 0.42,-0.246 0.406,-0.246 H 0.3 v -0.368 c 0,-0.012 0.004,-0.022 0.01,-0.031 0.007,-0.009 0.015,-0.015 0.025,-0.019 v 0.383 z m 0.667,-0.088 c 0,-0.011 0.003,-0.021 0.009,-0.03 0.007,-0.009 0.015,-0.015 0.025,-0.019 v 0.172 h -0.14 c -0.014,0 -0.028,0.003 -0.041,0.009 -0.012,0.005 -0.024,0.013 -0.033,0.022 -0.01,0.01 -0.017,0.021 -0.023,0.033 -0.005,0.013 -0.008,0.027 -0.008,0.041 v 0.018 c 0,0.005 -0.002,0.009 -0.005,0.012 -0.004,0.004 -0.008,0.006 -0.013,0.006 -0.004,0 -0.008,-0.002 -0.012,-0.006 C 0.828,-0.114 0.827,-0.118 0.827,-0.123 v -0.018 c 0,-0.019 0.003,-0.037 0.011,-0.054 0.007,-0.017 0.017,-0.032 0.03,-0.045 0.012,-0.012 0.027,-0.022 0.044,-0.03 0.017,-0.007 0.036,-0.011 0.055,-0.011 H 1.073 Z M 0.687,-0.562 c 0,-0.009 0.003,-0.017 0.01,-0.024 0.006,-0.007 0.014,-0.011 0.024,-0.011 v 0.529 C 0.71,-0.086 0.702,-0.105 0.696,-0.125 0.69,-0.146 0.687,-0.167 0.687,-0.188 Z M 0.423,-0.386 C 0.418,-0.386 0.414,-0.388 0.411,-0.391 0.407,-0.395 0.406,-0.399 0.406,-0.404 v -0.281 c 0,-0.011 0.003,-0.021 0.01,-0.03 0.006,-0.009 0.015,-0.015 0.025,-0.019 v 0.33 c 0,0.005 -0.002,0.009 -0.005,0.013 -0.004,0.003 -0.008,0.005 -0.013,0.005 z m 0.456,0 C 0.875,-0.386 0.87,-0.388 0.867,-0.391 0.864,-0.395 0.862,-0.399 0.862,-0.404 v -0.281 c 0,-0.011 0.003,-0.021 0.01,-0.03 0.006,-0.009 0.015,-0.015 0.025,-0.019 v 0.33 c 0,0.005 -0.002,0.009 -0.005,0.013 -0.004,0.003 -0.008,0.005 -0.013,0.005 z M 0.757,-0.649 c 0,-0.012 0.003,-0.022 0.01,-0.031 0.006,-0.009 0.015,-0.015 0.025,-0.019 v 0.295 c 0,0.005 -0.002,0.009 -0.005,0.012 -0.004,0.004 -0.008,0.006 -0.013,0.006 -0.004,0 -0.009,-0.002 -0.012,-0.005 C 0.759,-0.395 0.757,-0.399 0.757,-0.404 Z m -0.246,0 c 0,-0.011 0.003,-0.022 0.01,-0.031 0.006,-0.009 0.014,-0.015 0.025,-0.019 v 0.295 c 0,0.005 -0.002,0.009 -0.005,0.012 -0.004,0.004 -0.008,0.006 -0.012,0.006 -0.005,0 -0.009,-0.002 -0.013,-0.005 C 0.513,-0.395 0.511,-0.399 0.511,-0.404 Z m 0.474,0.263 C 0.98,-0.386 0.976,-0.388 0.972,-0.391 0.969,-0.395 0.967,-0.399 0.967,-0.404 v -0.21 c 0,-0.012 0.004,-0.022 0.01,-0.031 0.007,-0.009 0.015,-0.015 0.025,-0.019 v 0.26 c 0,0.005 -0.001,0.009 -0.005,0.013 -0.003,0.003 -0.007,0.005 -0.012,0.005 z M 0.616,-0.562 c 0,-0.009 0.004,-0.018 0.01,-0.024 0.007,-0.007 0.016,-0.011 0.025,-0.011 v 0.193 c 0,0.005 -0.001,0.009 -0.005,0.013 -0.003,0.003 -0.007,0.005 -0.012,0.005 -0.005,0 -0.009,-0.002 -0.013,-0.005 C 0.618,-0.395 0.616,-0.399 0.616,-0.404 Z"
         style="fill:#d48c00;fill-rule:nonzero"
         id="path1654" /></g></g></svg>
