<?xml version="1.0" encoding="UTF-8" standalone="no"?>
<svg
   width="16.844999"
   height="16.844999"
   viewBox="0 0 16.844999 16.844999"
   version="1.1"
   xml:space="preserve"
   style="clip-rule:evenodd;fill-rule:evenodd;stroke-linejoin:round;stroke-miterlimit:2"
   id="svg20568"
   sodipodi:docname="emojis.svg"
   xmlns:inkscape="http://www.inkscape.org/namespaces/inkscape"
   xmlns:sodipodi="http://sodipodi.sourceforge.net/DTD/sodipodi-0.dtd"
   xmlns="http://www.w3.org/2000/svg"
   xmlns:svg="http://www.w3.org/2000/svg"><defs
     id="defs20572" /><sodipodi:namedview
     id="namedview20570"
     pagecolor="#505050"
     bordercolor="#eeeeee"
     borderopacity="1"
     inkscape:pageshadow="0"
     inkscape:pageopacity="0"
     inkscape:pagecheckerboard="0" /><g
     transform="matrix(0.24,0,0,0.24,-95.59644,-817.2786)"
     id="g20566"><g
       transform="matrix(62.5,0,0,62.5,390.506,3462.39)"
       id="g16528"><path
         d="M 0.616,0.21 V -0.176 H 0.125 v -0.491 c 0,-0.029 0.006,-0.056 0.017,-0.082 0.011,-0.025 0.026,-0.048 0.045,-0.067 0.019,-0.019 0.041,-0.034 0.067,-0.045 0.025,-0.011 0.052,-0.016 0.081,-0.016 h 0.281 v -0.036 h 0.281 v 0.036 h 0.141 c 0.029,0 0.056,0.005 0.081,0.016 0.026,0.011 0.048,0.026 0.067,0.045 0.019,0.019 0.034,0.042 0.045,0.067 0.012,0.026 0.017,0.053 0.017,0.082 v 0.491 H 0.827 V 0.21 Z"
         style="fill-rule:nonzero"
         id="path16516" /><rect
         x="0.68699998"
         y="-0.36300001"
         width="0.07"
         height="0.50300002"
         style="fill:#8e562e;fill-rule:nonzero"
         id="rect16518" /><path
         d="m 1.038,-0.807 c 0.019,0 0.037,0.004 0.054,0.011 0.017,0.007 0.032,0.017 0.045,0.03 0.012,0.013 0.022,0.027 0.03,0.045 0.007,0.017 0.011,0.035 0.011,0.054 v 0.421 H 0.476 L 0.335,-0.382 v -0.425 z"
         style="fill:#cccccc;fill-rule:nonzero"
         id="path16520" /><path
         d="m 0.335,-0.807 c 0.02,0 0.038,0.004 0.055,0.011 0.017,0.007 0.032,0.017 0.045,0.03 0.013,0.013 0.023,0.027 0.03,0.044 0.007,0.017 0.011,0.035 0.011,0.055 v 0.421 H 0.195 v -0.421 c 0,-0.02 0.004,-0.038 0.011,-0.055 0.008,-0.017 0.018,-0.031 0.03,-0.044 0.013,-0.013 0.028,-0.023 0.045,-0.03 0.017,-0.007 0.035,-0.011 0.054,-0.011 z"
         style="fill:#e5e5e5;fill-rule:nonzero"
         id="path16522" /><path
         d="m 0.827,-0.842 v 0.14 h -0.07 v 0.176 c 0,0.009 -0.004,0.017 -0.011,0.024 -0.007,0.007 -0.015,0.011 -0.024,0.011 -0.01,0 -0.018,-0.004 -0.025,-0.011 -0.007,-0.007 -0.01,-0.015 -0.01,-0.024 v -0.316 z"
         style="fill:#f03a17;fill-rule:nonzero"
         id="path16524" /><rect
         x="0.26499999"
         y="-0.667"
         width="0.141"
         height="0.035"
         style="fill:#757575;fill-rule:nonzero"
         id="rect16526" /></g></g></svg>
