<?xml version="1.0" encoding="UTF-8" standalone="no"?>
<svg
   width="14.745"
   height="16.844999"
   viewBox="0 0 14.745 16.844999"
   version="1.1"
   xml:space="preserve"
   style="clip-rule:evenodd;fill-rule:evenodd;stroke-linejoin:round;stroke-miterlimit:2"
   id="svg20568"
   sodipodi:docname="emojis.svg"
   xmlns:inkscape="http://www.inkscape.org/namespaces/inkscape"
   xmlns:sodipodi="http://sodipodi.sourceforge.net/DTD/sodipodi-0.dtd"
   xmlns="http://www.w3.org/2000/svg"
   xmlns:svg="http://www.w3.org/2000/svg"><defs
     id="defs20572" /><sodipodi:namedview
     id="namedview20570"
     pagecolor="#505050"
     bordercolor="#eeeeee"
     borderopacity="1"
     inkscape:pageshadow="0"
     inkscape:pageopacity="0"
     inkscape:pagecheckerboard="0" /><g
     transform="matrix(0.24,0,0,0.24,-177.97932,-817.2786)"
     id="g20566"><g
       transform="matrix(62.5,0,0,62.5,733.768,3462.39)"
       id="g16590"><path
         d="m 0.125,0.21 v -0.842 c 0,-0.038 0.007,-0.075 0.022,-0.109 0.015,-0.034 0.035,-0.064 0.061,-0.089 0.025,-0.025 0.055,-0.046 0.089,-0.06 0.034,-0.015 0.07,-0.023 0.109,-0.023 h 0.421 c 0.025,0 0.05,0.004 0.074,0.01 0.024,0.007 0.046,0.017 0.067,0.029 0.021,0.012 0.04,0.027 0.057,0.044 0.018,0.017 0.032,0.036 0.045,0.057 0.012,0.02 0.021,0.043 0.028,0.067 0.007,0.024 0.01,0.048 0.01,0.074 V 0.21 Z"
         style="fill-rule:nonzero"
         id="path16574" /><path
         d="m 0.195,-0.632 c 0,-0.029 0.006,-0.056 0.017,-0.082 0.011,-0.025 0.026,-0.047 0.045,-0.067 0.019,-0.019 0.041,-0.034 0.067,-0.045 0.026,-0.011 0.053,-0.016 0.082,-0.016 0.006,0 0.012,0 0.019,0 0.007,0 0.015,0 0.022,0.001 0.007,0 0.014,0.001 0.021,0.002 0.007,0.001 0.013,0.002 0.019,0.004 l 0.176,0.052 V 0.095 L 0.616,0.14 H 0.546 V 0.07 H 0.334 L 0.266,0.14 H 0.195 Z M 0.936,0.037 1.001,0.032 1.019,0.095 0.967,0.14 H 0.897 V 0.07 Z"
         style="fill:#0078d7;fill-rule:nonzero"
         id="path16576" /><path
         d="m 0.827,-0.842 c 0.029,0 0.056,0.005 0.082,0.016 0.025,0.011 0.048,0.026 0.067,0.045 0.019,0.019 0.034,0.041 0.045,0.067 0.011,0.025 0.017,0.053 0.017,0.082 V 0.14 H 0.967 V 0.07 H 0.687 V 0.14 H 0.616 V -0.632 C 0.616,-0.661 0.611,-0.688 0.6,-0.714 0.589,-0.739 0.573,-0.761 0.554,-0.781 0.535,-0.8 0.513,-0.815 0.488,-0.826 0.462,-0.837 0.435,-0.842 0.406,-0.842 Z M 0.266,0.07 H 0.335 V 0.14 H 0.266 Z"
         style="fill:#3a96dd;fill-rule:nonzero"
         id="path16578" /><path
         d="M 0.967,-0.562 H 0.687 V -0.597 L 0.718,-0.623 H 0.967 Z"
         style="fill:#1f1f1f;fill-rule:nonzero"
         id="path16580" /><path
         d="m 0.687,-0.632 0.041,0.013 -0.006,0.022 H 0.687 Z"
         style="fill:#0078d7;fill-rule:nonzero"
         id="path16582" /><path
         d="m 0.687,-0.632 h 0.28 l 0.035,0.035 h -0.07 c -0.002,0 -0.005,0.001 -0.009,0.002 -0.004,0.002 -0.008,0.003 -0.013,0.005 -0.005,0.002 -0.009,0.003 -0.014,0.005 -0.004,0.002 -0.007,0.003 -0.009,0.003 l -0.091,0.03 C 0.784,-0.559 0.771,-0.566 0.758,-0.573 0.745,-0.58 0.733,-0.588 0.722,-0.597 0.715,-0.602 0.709,-0.608 0.704,-0.614 0.698,-0.62 0.692,-0.626 0.687,-0.632 Z"
         style="fill:#0063b1;fill-rule:nonzero"
         id="path16584" /><path
         d="m 0.932,-0.597 0.106,0.211 H 0.827 C 0.826,-0.404 0.824,-0.421 0.821,-0.439 0.819,-0.457 0.816,-0.475 0.812,-0.492 0.809,-0.51 0.805,-0.527 0.802,-0.545 0.798,-0.562 0.794,-0.579 0.791,-0.597 Z"
         style="fill:#f2f2f2;fill-rule:nonzero"
         id="path16586" /><path
         d="m 0.722,-0.597 h 0.07 l 0.07,0.071 -0.035,0.14 z"
         style="fill:#cccccc;fill-rule:nonzero"
         id="path16588" /></g></g></svg>
