<?xml version="1.0" encoding="UTF-8" standalone="no"?>
<svg
   width="16.844999"
   height="16.305"
   viewBox="0 0 16.844999 16.305"
   version="1.1"
   xml:space="preserve"
   style="clip-rule:evenodd;fill-rule:evenodd;stroke-linejoin:round;stroke-miterlimit:2"
   id="svg20568"
   sodipodi:docname="emojis.svg"
   xmlns:inkscape="http://www.inkscape.org/namespaces/inkscape"
   xmlns:sodipodi="http://sodipodi.sourceforge.net/DTD/sodipodi-0.dtd"
   xmlns="http://www.w3.org/2000/svg"
   xmlns:svg="http://www.w3.org/2000/svg"><defs
     id="defs20572" /><sodipodi:namedview
     id="namedview20570"
     pagecolor="#505050"
     bordercolor="#eeeeee"
     borderopacity="1"
     inkscape:pageshadow="0"
     inkscape:pageopacity="0"
     inkscape:pagecheckerboard="0" /><g
     transform="matrix(0.24,0,0,0.24,-157.38348,-817.8186)"
     id="g20566"><g
       transform="matrix(62.5,0,0,62.5,647.952,3462.39)"
       id="g16572"><path
         d="M 0.616,0.21 V -0.176 H 0.125 v -0.491 c 0,-0.029 0.006,-0.056 0.017,-0.082 0.011,-0.025 0.026,-0.048 0.045,-0.067 0.019,-0.019 0.041,-0.034 0.067,-0.045 0.025,-0.011 0.052,-0.016 0.081,-0.016 h 0.703 c 0.029,0 0.056,0.005 0.081,0.016 0.026,0.011 0.048,0.026 0.067,0.045 0.019,0.019 0.034,0.042 0.045,0.067 0.012,0.026 0.017,0.053 0.017,0.082 v 0.491 H 0.827 V 0.21 Z"
         style="fill-rule:nonzero"
         id="path16560" /><rect
         x="0.68699998"
         y="-0.35299999"
         width="0.07"
         height="0.493"
         style="fill:#8e562e;fill-rule:nonzero"
         id="rect16562" /><path
         d="m 0.335,-0.807 c 0.021,0 0.042,0.003 0.063,0.009 0.021,0.006 0.04,0.014 0.056,0.026 0.017,0.011 0.031,0.026 0.041,0.043 0.011,0.018 0.016,0.039 0.016,0.062 v 0.412 H 0.213 L 0.195,-0.281 v -0.386 c 0,-0.02 0.004,-0.038 0.011,-0.055 0.008,-0.017 0.018,-0.031 0.03,-0.044 0.013,-0.013 0.028,-0.023 0.045,-0.03 0.017,-0.007 0.035,-0.011 0.054,-0.011 z"
         style="fill:#383838;fill-rule:nonzero"
         id="path16564" /><path
         d="M 0.195,-0.281 H 0.512 L 0.476,-0.246 H 0.195 Z"
         style="fill:#e5e5e5;fill-rule:nonzero"
         id="path16566" /><path
         d="m 1.038,-0.807 c 0.019,0 0.037,0.004 0.054,0.011 0.017,0.007 0.032,0.017 0.045,0.03 0.012,0.013 0.022,0.027 0.03,0.045 0.007,0.017 0.011,0.035 0.011,0.054 v 0.421 H 0.476 V -0.667 C 0.476,-0.686 0.473,-0.704 0.466,-0.72 0.459,-0.737 0.449,-0.751 0.437,-0.764 0.425,-0.777 0.41,-0.787 0.394,-0.795 0.378,-0.802 0.36,-0.806 0.341,-0.807 Z"
         style="fill:#cccccc;fill-rule:nonzero"
         id="path16568" /><path
         d="m 0.722,-0.562 h 0.316 v 0.141 H 0.897 v -0.07 H 0.722 c -0.01,0 -0.018,-0.004 -0.025,-0.011 -0.007,-0.007 -0.01,-0.015 -0.01,-0.024 0,-0.01 0.003,-0.018 0.01,-0.025 0.007,-0.007 0.015,-0.011 0.025,-0.011 z"
         style="fill:#f03a17;fill-rule:nonzero"
         id="path16570" /></g></g></svg>
