<?xml version="1.0" encoding="UTF-8" standalone="no"?>
<svg
   width="16.844999"
   height="16.844999"
   viewBox="0 0 16.844999 16.844999"
   version="1.1"
   xml:space="preserve"
   style="clip-rule:evenodd;fill-rule:evenodd;stroke-linejoin:round;stroke-miterlimit:2"
   id="svg20568"
   sodipodi:docname="emojis.svg"
   xmlns:inkscape="http://www.inkscape.org/namespaces/inkscape"
   xmlns:sodipodi="http://sodipodi.sourceforge.net/DTD/sodipodi-0.dtd"
   xmlns="http://www.w3.org/2000/svg"
   xmlns:svg="http://www.w3.org/2000/svg"><defs
     id="defs20572" /><sodipodi:namedview
     id="namedview20570"
     pagecolor="#505050"
     bordercolor="#eeeeee"
     borderopacity="1"
     inkscape:pageshadow="0"
     inkscape:pageopacity="0"
     inkscape:pagecheckerboard="0" /><g
     transform="matrix(0.24,0,0,0.24,-214.96644,-817.2786)"
     id="g20566"><g
       transform="matrix(62.5,0,0,62.5,887.881,3462.39)"
       id="g16628"><path
         d="m 1.079,-0.913 c 0.023,0 0.045,0.005 0.066,0.014 0.02,0.009 0.038,0.021 0.053,0.036 0.016,0.016 0.028,0.033 0.037,0.054 0.009,0.02 0.013,0.042 0.013,0.066 0,0.022 -0.004,0.044 -0.013,0.065 -0.009,0.02 -0.021,0.039 -0.037,0.054 L 0.456,0.12 C 0.447,0.128 0.438,0.133 0.428,0.137 l -0.21,0.07 C 0.21,0.209 0.202,0.21 0.195,0.21 0.185,0.21 0.176,0.209 0.168,0.205 0.16,0.201 0.152,0.196 0.146,0.19 0.139,0.183 0.134,0.176 0.131,0.167 0.127,0.159 0.125,0.15 0.125,0.141 0.125,0.133 0.126,0.125 0.129,0.118 l 0.07,-0.21 c 0.003,-0.011 0.009,-0.02 0.017,-0.028 l 0.743,-0.743 c 0.033,-0.033 0.073,-0.05 0.12,-0.05 z"
         style="fill-rule:nonzero"
         id="path16614" /><path
         d="M 0.23,0.035 0.32,0.018 0.301,0.105 0.195,0.14 Z"
         style="fill:#757575;fill-rule:nonzero"
         id="path16616" /><path
         d="M 0.363,-0.113 0.444,-0.021 0.406,0.07 0.301,0.105 0.23,0.035 0.266,-0.07 Z"
         style="fill:#f2d6c9;fill-rule:nonzero"
         id="path16618" /><path
         d="m 0.862,-0.667 h 0.06 l 0.081,0.08 v 0.061 L 0.406,0.07 V 0 H 0.335 V -0.07 H 0.266 Z"
         style="fill:#ffb900;fill-rule:nonzero"
         id="path16620" /><path
         d="m 1.178,-0.743 c 0,0.013 -0.002,0.024 -0.007,0.034 -0.004,0.011 -0.009,0.02 -0.016,0.029 -0.006,0.008 -0.014,0.016 -0.022,0.024 -0.009,0.008 -0.017,0.016 -0.025,0.024 L 1.049,-0.626 0.968,-0.713 v -0.059 c 0.008,-0.008 0.016,-0.016 0.023,-0.025 0.008,-0.008 0.016,-0.016 0.025,-0.023 0.008,-0.006 0.018,-0.012 0.028,-0.016 0.01,-0.004 0.022,-0.006 0.035,-0.006 0.013,0 0.026,0.002 0.038,0.008 0.012,0.005 0.023,0.012 0.032,0.021 0.009,0.009 0.016,0.019 0.021,0.031 0.005,0.012 0.008,0.025 0.008,0.039 z"
         style="fill:#e84757;fill-rule:nonzero"
         id="path16622" /><path
         d="m 0.967,-0.772 0.141,0.14 -0.036,0.035 -0.043,-0.007 0.009,0.042 -0.036,0.036 -0.14,-0.141 0.035,-0.035 0.038,0.004 -0.003,-0.039 z"
         style="fill:#cccccc;fill-rule:nonzero"
         id="path16624" /><path
         d="m 0.897,-0.702 0.035,-0.035 0.141,0.14 -0.035,0.035 z"
         style="fill:#e5e5e5;fill-rule:nonzero"
         id="path16626" /></g></g></svg>
