<?xml version="1.0" encoding="UTF-8" standalone="no"?>
<svg
   width="16.754999"
   height="16.754999"
   viewBox="0 0 16.754999 16.754999"
   version="1.1"
   xml:space="preserve"
   style="clip-rule:evenodd;fill-rule:evenodd;stroke-linejoin:round;stroke-miterlimit:2"
   id="svg20568"
   sodipodi:docname="emojis.svg"
   xmlns:inkscape="http://www.inkscape.org/namespaces/inkscape"
   xmlns:sodipodi="http://sodipodi.sourceforge.net/DTD/sodipodi-0.dtd"
   xmlns="http://www.w3.org/2000/svg"
   xmlns:svg="http://www.w3.org/2000/svg"><defs
     id="defs20572" /><sodipodi:namedview
     id="namedview20570"
     pagecolor="#505050"
     bordercolor="#eeeeee"
     borderopacity="1"
     inkscape:pageshadow="0"
     inkscape:pageopacity="0"
     inkscape:pagecheckerboard="0" /><g
     transform="matrix(0.24,0,0,0.24,-235.56228,-817.3686)"
     id="g20566"><g
       transform="matrix(62.5,0,0,62.5,973.697,3462.39)"
       id="g16638"><path
         d="M 0.248,0.21 C 0.231,0.21 0.215,0.207 0.2,0.201 0.185,0.194 0.172,0.185 0.161,0.174 0.15,0.163 0.141,0.15 0.135,0.135 0.128,0.12 0.125,0.104 0.125,0.087 0.125,0.077 0.126,0.067 0.128,0.058 0.13,0.05 0.133,0.042 0.137,0.034 0.141,0.027 0.146,0.019 0.152,0.012 0.157,0.005 0.164,-0.002 0.171,-0.009 L 0.348,-0.541 0.638,-0.686 0.623,-0.702 0.827,-0.907 1.242,-0.491 1.038,-0.287 1.021,-0.303 0.876,-0.013 0.345,0.165 C 0.337,0.172 0.33,0.178 0.323,0.184 0.316,0.19 0.309,0.194 0.301,0.198 0.294,0.202 0.286,0.205 0.277,0.207 0.268,0.209 0.259,0.21 0.248,0.21 Z"
         style="fill-rule:nonzero"
         id="path16630" /><path
         d="m 0.636,-0.476 c 0.022,0 0.044,0.003 0.065,0.01 0.021,0.007 0.04,0.016 0.056,0.029 0.017,0.013 0.03,0.028 0.041,0.047 0.01,0.019 0.015,0.04 0.015,0.064 0,0.013 -10e-4,0.027 -0.004,0.043 -0.003,0.015 -0.008,0.03 -0.015,0.044 -0.006,0.014 -0.015,0.026 -0.026,0.036 -0.011,0.009 -0.024,0.014 -0.04,0.014 -0.003,0 -0.007,0.003 -0.011,0.008 -0.005,0.006 -0.01,0.012 -0.016,0.018 -0.005,0.007 -0.01,0.013 -0.015,0.019 -0.006,0.005 -0.01,0.008 -0.014,0.009 L 0.307,0.103 C 0.302,0.107 0.297,0.111 0.293,0.115 0.29,0.119 0.286,0.123 0.282,0.127 0.279,0.131 0.274,0.134 0.269,0.136 0.264,0.139 0.257,0.14 0.248,0.14 0.241,0.14 0.234,0.139 0.227,0.136 0.221,0.133 0.215,0.13 0.21,0.125 0.206,0.12 0.202,0.115 0.199,0.109 0.196,0.102 0.195,0.095 0.195,0.088 0.195,0.079 0.196,0.072 0.199,0.066 0.202,0.061 0.205,0.056 0.209,0.052 0.213,0.048 0.217,0.045 0.221,0.041 0.226,0.038 0.23,0.034 0.233,0.028 l 0.211,-0.334 c 0,-0.003 0.003,-0.006 0.008,-0.009 0.006,-0.004 0.011,-0.007 0.017,-0.01 0.007,-0.003 0.012,-0.006 0.017,-0.009 0.005,-0.003 0.008,-0.006 0.008,-0.008 0,-0.015 0.004,-0.03 0.014,-0.046 0.009,-0.016 0.021,-0.03 0.035,-0.043 0.015,-0.013 0.03,-0.024 0.047,-0.032 0.016,-0.009 0.032,-0.013 0.046,-0.013 z"
         style="fill:#757575;fill-rule:nonzero"
         id="path16632" /><path
         d="M 0.406,-0.491 0.757,-0.667 C 0.769,-0.673 0.78,-0.68 0.791,-0.688 0.802,-0.696 0.813,-0.704 0.824,-0.711 l 0.241,0.212 -0.041,0.051 c -0.004,0.004 -0.007,0.009 -0.011,0.013 -0.004,0.004 -0.007,0.009 -0.011,0.014 -0.011,0.018 -0.022,0.037 -0.03,0.057 -0.009,0.02 -0.018,0.04 -0.028,0.06 L 0.827,-0.07 0.307,0.103 0.624,-0.214 c 0.009,0.002 0.019,0.004 0.027,0.004 0.015,0 0.029,-0.003 0.041,-0.009 0.013,-0.005 0.024,-0.013 0.034,-0.022 0.009,-0.01 0.017,-0.021 0.023,-0.034 0.005,-0.013 0.008,-0.026 0.008,-0.041 0,-0.015 -0.003,-0.028 -0.008,-0.041 C 0.743,-0.37 0.735,-0.381 0.726,-0.39 0.716,-0.4 0.705,-0.408 0.692,-0.413 0.68,-0.419 0.666,-0.421 0.651,-0.421 c -0.014,0 -0.028,0.002 -0.041,0.008 -0.012,0.005 -0.023,0.013 -0.033,0.023 -0.01,0.009 -0.017,0.02 -0.023,0.033 -0.005,0.013 -0.008,0.026 -0.008,0.041 0,0.009 0.001,0.018 0.004,0.027 L 0.232,0.029 Z"
         style="fill:#cccccc;fill-rule:nonzero"
         id="path16634" /><path
         d="M 1.143,-0.491 1.038,-0.386 0.722,-0.702 0.827,-0.807 Z"
         style="fill:#ffc83d;fill-rule:nonzero"
         id="path16636" /></g></g></svg>
