<?xml version="1.0" encoding="UTF-8" standalone="no"?>
<svg
   width="16.32"
   height="16.32"
   viewBox="0 0 16.32 16.32"
   version="1.1"
   xml:space="preserve"
   style="clip-rule:evenodd;fill-rule:evenodd;stroke-linejoin:round;stroke-miterlimit:2"
   id="svg20568"
   sodipodi:docname="emojis.svg"
   xmlns:inkscape="http://www.inkscape.org/namespaces/inkscape"
   xmlns:sodipodi="http://sodipodi.sourceforge.net/DTD/sodipodi-0.dtd"
   xmlns="http://www.w3.org/2000/svg"
   xmlns:svg="http://www.w3.org/2000/svg"><defs
     id="defs20572" /><sodipodi:namedview
     id="namedview20570"
     pagecolor="#505050"
     bordercolor="#eeeeee"
     borderopacity="1"
     inkscape:pageshadow="0"
     inkscape:pageopacity="0"
     inkscape:pagecheckerboard="0" /><g
     transform="matrix(0.24,0,0,0.24,-256.1574,-817.2786)"
     id="g20566"><g
       transform="matrix(62.5,0,0,62.5,1059.51,3462.39)"
       id="g16650"><path
         d="M 0.213,0.175 C 0.201,0.175 0.189,0.173 0.178,0.168 0.168,0.164 0.159,0.158 0.151,0.15 0.143,0.142 0.136,0.132 0.132,0.122 0.127,0.111 0.125,0.1 0.125,0.087 0.125,0.077 0.127,0.067 0.13,0.057 0.134,0.047 0.139,0.039 0.146,0.031 L 0.21,-0.161 0.333,-0.202 C 0.338,-0.203 0.343,-0.208 0.347,-0.215 0.351,-0.223 0.355,-0.231 0.359,-0.24 0.363,-0.25 0.367,-0.259 0.371,-0.268 0.375,-0.276 0.379,-0.283 0.383,-0.287 L 0.966,-0.87 c 0.013,-0.014 0.029,-0.024 0.047,-0.032 0.018,-0.007 0.036,-0.011 0.055,-0.011 0.02,0 0.039,0.004 0.057,0.012 0.017,0.008 0.032,0.018 0.045,0.031 0.013,0.013 0.024,0.028 0.031,0.046 0.008,0.017 0.012,0.036 0.012,0.056 0,0.019 -0.004,0.038 -0.011,0.056 -0.007,0.017 -0.018,0.033 -0.032,0.046 L 0.588,-0.083 C 0.584,-0.079 0.577,-0.075 0.568,-0.071 0.56,-0.067 0.551,-0.063 0.541,-0.06 0.532,-0.056 0.524,-0.052 0.516,-0.047 0.509,-0.043 0.504,-0.038 0.502,-0.032 L 0.461,0.09 0.27,0.154 C 0.262,0.161 0.253,0.166 0.243,0.17 0.233,0.174 0.223,0.175 0.213,0.175 Z"
         style="fill-rule:nonzero"
         id="path16640" /><path
         d="M 0.476,-0.105 0.407,-0.109 V -0.176 C 0.41,-0.181 0.412,-0.186 0.415,-0.193 0.418,-0.199 0.42,-0.205 0.423,-0.212 0.426,-0.218 0.429,-0.224 0.432,-0.23 0.435,-0.236 0.438,-0.241 0.441,-0.246 0.451,-0.259 0.463,-0.271 0.475,-0.282 0.487,-0.293 0.5,-0.304 0.511,-0.316 l 0.14,-0.141 0.05,0.014 -0.015,-0.048 0.316,-0.316 h 0.099 l 0.006,0.105 -0.315,0.316 -0.048,-0.013 0.013,0.048 -0.141,0.14 c -0.012,0.012 -0.023,0.024 -0.034,0.036 -0.011,0.013 -0.023,0.024 -0.036,0.034 -0.004,0.004 -0.009,0.007 -0.015,0.01 -0.007,0.003 -0.013,0.005 -0.019,0.008 -0.006,0.003 -0.013,0.006 -0.019,0.009 -0.006,0.003 -0.012,0.006 -0.017,0.009 z"
         style="fill:#383838;fill-rule:nonzero"
         id="path16642" /><path
         d="M 0.441,-0.07 0.406,0.035 0.222,0.096 0.204,0.079 0.265,-0.105 0.371,-0.141 0.438,-0.136 Z"
         style="fill:#cccccc;fill-rule:nonzero"
         id="path16644" /><path
         d="m 0.335,-0.07 c 0.01,0 0.019,0.003 0.025,0.01 0.007,0.007 0.011,0.015 0.011,0.025 0,0.01 -0.004,0.018 -0.011,0.025 C 0.354,-0.003 0.345,0 0.335,0 0.333,0 0.33,0 0.327,-0.001 L 0.225,0.1 C 0.222,0.103 0.218,0.105 0.213,0.105 0.208,0.105 0.204,0.103 0.2,0.1 0.197,0.097 0.195,0.093 0.195,0.088 0.195,0.083 0.197,0.079 0.2,0.075 L 0.302,-0.026 C 0.301,-0.029 0.3,-0.032 0.3,-0.035 c 0,-0.01 0.004,-0.018 0.011,-0.025 0.007,-0.007 0.015,-0.01 0.024,-0.01 z"
         style="fill:#757575;fill-rule:nonzero"
         id="path16646" /><path
         d="m 1.143,-0.768 c 0,0.015 -0.004,0.028 -0.01,0.037 -0.007,0.01 -0.015,0.019 -0.026,0.029 L 1.002,-0.807 c 0.005,-0.005 0.01,-0.01 0.015,-0.015 0.004,-0.004 0.009,-0.008 0.014,-0.011 0.005,-0.003 0.011,-0.005 0.017,-0.007 0.006,-0.001 0.013,-0.002 0.02,-0.002 0.011,0 0.02,0.002 0.029,0.006 0.009,0.003 0.017,0.009 0.024,0.015 0.007,0.007 0.012,0.015 0.016,0.024 0.004,0.009 0.006,0.019 0.006,0.029 z m -0.351,0.259 c 0,-0.005 0.001,-0.009 0.005,-0.012 l 0.181,-0.181 0.024,0.025 -0.18,0.18 C 0.818,-0.493 0.814,-0.491 0.81,-0.491 0.805,-0.491 0.801,-0.493 0.797,-0.496 0.793,-0.5 0.792,-0.504 0.792,-0.509 Z m -0.141,0.052 0.036,-0.034 0.105,0.105 -0.035,0.035 z m -0.28,0.316 0.035,-0.035 0.07,0.071 -0.035,0.035 z"
         style="fill:#ffc83d;fill-rule:nonzero"
         id="path16648" /></g></g></svg>
