<?xml version="1.0" encoding="UTF-8" standalone="no"?>
<svg
   width="16.125"
   height="16.110001"
   viewBox="0 0 16.125 16.110001"
   version="1.1"
   xml:space="preserve"
   style="clip-rule:evenodd;fill-rule:evenodd;stroke-linejoin:round;stroke-miterlimit:2"
   id="svg20568"
   sodipodi:docname="emojis.svg"
   xmlns:inkscape="http://www.inkscape.org/namespaces/inkscape"
   xmlns:sodipodi="http://sodipodi.sourceforge.net/DTD/sodipodi-0.dtd"
   xmlns="http://www.w3.org/2000/svg"
   xmlns:svg="http://www.w3.org/2000/svg"><defs
     id="defs20572" /><sodipodi:namedview
     id="namedview20570"
     pagecolor="#505050"
     bordercolor="#eeeeee"
     borderopacity="1"
     inkscape:pageshadow="0"
     inkscape:pageopacity="0"
     inkscape:pagecheckerboard="0" /><g
     transform="matrix(0.24,0,0,0.24,-317.5296,-817.4886)"
     id="g20566"><g
       transform="matrix(62.5,0,0,62.5,1314.79,3462.39)"
       id="g16680"><path
         d="M 0.237,0.175 C 0.222,0.175 0.208,0.173 0.196,0.167 0.183,0.162 0.172,0.154 0.163,0.145 0.153,0.136 0.146,0.125 0.14,0.112 0.135,0.099 0.132,0.085 0.132,0.071 0.132,0.055 0.136,0.039 0.144,0.024 l 0.071,-0.143 c 0.004,-0.01 0.009,-0.019 0.012,-0.028 0.004,-0.01 0.009,-0.019 0.016,-0.027 0.008,-0.011 0.017,-0.021 0.028,-0.03 0.01,-0.01 0.02,-0.019 0.029,-0.028 l 0.667,-0.667 0.24,0.239 -0.612,0.612 C 0.577,-0.03 0.559,-0.013 0.542,0.004 0.531,0.014 0.52,0.025 0.51,0.036 0.499,0.047 0.488,0.057 0.476,0.065 0.469,0.071 0.461,0.076 0.452,0.079 0.444,0.083 0.435,0.087 0.427,0.091 L 0.285,0.164 C 0.27,0.172 0.254,0.175 0.237,0.175 Z"
         style="fill-rule:nonzero"
         id="path16670" /><path
         d="m 0.293,-0.133 0.035,-0.035 0.163,-0.02 -0.023,0.16 -0.034,0.035 H 0.292 Z M 0.96,-0.8 1.1,-0.66 1.065,-0.625 H 0.922 v -0.14 z"
         style="fill:#c30052;fill-rule:nonzero"
         id="path16672" /><path
         d="M 1.065,-0.625 1.03,-0.589 0.987,-0.596 0.995,-0.554 0.539,-0.098 0.493,-0.112 0.503,-0.063 0.468,-0.028 0.328,-0.168 0.363,-0.203 0.41,-0.197 0.398,-0.238 0.854,-0.695 0.9,-0.686 0.89,-0.729 0.925,-0.765 Z"
         style="fill:#ea005e;fill-rule:nonzero"
         id="path16674" /><path
         d="M 0.434,0.007 0.245,0.102 C 0.24,0.104 0.235,0.105 0.23,0.105 0.22,0.105 0.212,0.102 0.205,0.095 0.199,0.089 0.195,0.081 0.195,0.071 0.195,0.065 0.196,0.06 0.199,0.055 l 0.094,-0.188 z"
         style="fill:#ee3f86;fill-rule:nonzero"
         id="path16676" /><path
         d="m 0.363,-0.203 0.035,-0.035 0.141,0.14 -0.036,0.035 z m 0.527,-0.526 0.14,0.14 -0.035,0.035 -0.141,-0.141 z"
         style="fill:#2b2b2b;fill-rule:nonzero"
         id="path16678" /></g></g></svg>
