<?xml version="1.0" encoding="UTF-8" standalone="no"?>
<svg
   width="16.844999"
   height="15.78"
   viewBox="0 0 16.844999 15.78"
   version="1.1"
   xml:space="preserve"
   style="clip-rule:evenodd;fill-rule:evenodd;stroke-linejoin:round;stroke-miterlimit:2"
   id="svg20568"
   sodipodi:docname="emojis.svg"
   xmlns:inkscape="http://www.inkscape.org/namespaces/inkscape"
   xmlns:sodipodi="http://sodipodi.sourceforge.net/DTD/sodipodi-0.dtd"
   xmlns="http://www.w3.org/2000/svg"
   xmlns:svg="http://www.w3.org/2000/svg"><defs
     id="defs20572" /><sodipodi:namedview
     id="namedview20570"
     pagecolor="#505050"
     bordercolor="#eeeeee"
     borderopacity="1"
     inkscape:pageshadow="0"
     inkscape:pageopacity="0"
     inkscape:pagecheckerboard="0" /><g
     transform="matrix(0.24,0,0,0.24,-357.891,-817.8186)"
     id="g20566"><g
       transform="matrix(62.5,0,0,62.5,1483.4,3462.39)"
       id="g16710"><path
         d="M 0.265,0.175 C 0.251,0.175 0.237,0.173 0.224,0.167 0.212,0.161 0.2,0.154 0.191,0.145 0.181,0.135 0.174,0.124 0.168,0.111 0.163,0.098 0.16,0.085 0.16,0.07 V -0.237 C 0.149,-0.247 0.14,-0.259 0.134,-0.273 0.128,-0.287 0.125,-0.301 0.125,-0.316 v -0.316 c 0,-0.014 0.003,-0.028 0.008,-0.041 0.006,-0.013 0.013,-0.024 0.023,-0.033 0.01,-0.01 0.021,-0.017 0.033,-0.023 0.013,-0.006 0.027,-0.008 0.041,-0.008 h 0.211 v -0.035 c 0,-0.014 0.003,-0.028 0.008,-0.041 0.006,-0.013 0.013,-0.024 0.023,-0.033 0.009,-0.01 0.02,-0.018 0.033,-0.023 0.013,-0.006 0.027,-0.008 0.041,-0.008 h 0.281 c 0.014,0 0.028,0.002 0.041,0.008 0.012,0.005 0.024,0.013 0.033,0.023 0.01,0.009 0.017,0.02 0.023,0.033 0.005,0.013 0.008,0.026 0.008,0.041 v 0.035 h 0.211 c 0.014,0 0.028,0.002 0.041,0.008 0.012,0.006 0.023,0.013 0.033,0.023 0.01,0.009 0.017,0.02 0.023,0.033 0.005,0.013 0.008,0.027 0.008,0.041 v 0.316 c 0,0.015 -0.003,0.029 -0.009,0.043 -0.006,0.014 -0.015,0.026 -0.026,0.036 V 0.07 C 1.213,0.085 1.21,0.098 1.205,0.111 1.199,0.124 1.191,0.135 1.182,0.145 1.172,0.154 1.161,0.161 1.148,0.167 1.135,0.173 1.122,0.175 1.107,0.175 Z"
         style="fill-rule:nonzero"
         id="path16702" /><path
         d="M 0.23,-0.349 H 1.143 V 0.07 c 0,0.01 -0.004,0.018 -0.011,0.025 -0.007,0.007 -0.015,0.01 -0.025,0.01 H 0.265 C 0.256,0.105 0.248,0.102 0.241,0.095 0.234,0.088 0.23,0.08 0.23,0.07 Z m 0.351,-0.388 v 0.105 h -0.07 v -0.14 c 0,-0.009 0.004,-0.018 0.01,-0.025 0.007,-0.007 0.015,-0.01 0.025,-0.01 h 0.281 c 0.009,0 0.018,0.003 0.025,0.01 0.006,0.007 0.01,0.015 0.01,0.025 v 0.14 h -0.07 v -0.105 z"
         style="fill:#613d30;fill-rule:nonzero"
         id="path16704" /><path
         d="M 0.792,-0.281 0.751,-0.235 H 0.618 L 0.581,-0.281 H 0.23 c -0.009,0 -0.017,-0.003 -0.024,-0.01 C 0.199,-0.298 0.195,-0.306 0.195,-0.316 v -0.316 c 0,-0.009 0.004,-0.017 0.011,-0.024 0.007,-0.007 0.015,-0.011 0.024,-0.011 h 0.913 c 0.009,0 0.017,0.004 0.024,0.011 0.007,0.007 0.011,0.015 0.011,0.024 v 0.316 c 0,0.01 -0.004,0.018 -0.011,0.025 -0.007,0.007 -0.015,0.01 -0.024,0.01 z"
         style="fill:#8e562e;fill-rule:nonzero"
         id="path16706" /><rect
         x="0.58099997"
         y="-0.28099999"
         width="0.211"
         height="0.07"
         style="fill:#ffb900;fill-rule:nonzero"
         id="rect16708" /></g></g></svg>
