<?xml version="1.0" encoding="UTF-8" standalone="no"?>
<svg
   width="11.58"
   height="16.844999"
   viewBox="0 0 11.58 16.844999"
   version="1.1"
   xml:space="preserve"
   style="clip-rule:evenodd;fill-rule:evenodd;stroke-linejoin:round;stroke-miterlimit:2"
   id="svg20568"
   sodipodi:docname="emojis.svg"
   xmlns:inkscape="http://www.inkscape.org/namespaces/inkscape"
   xmlns:sodipodi="http://sodipodi.sourceforge.net/DTD/sodipodi-0.dtd"
   xmlns="http://www.w3.org/2000/svg"
   xmlns:svg="http://www.w3.org/2000/svg"><defs
     id="defs20572" /><sodipodi:namedview
     id="namedview20570"
     pagecolor="#505050"
     bordercolor="#eeeeee"
     borderopacity="1"
     inkscape:pageshadow="0"
     inkscape:pageopacity="0"
     inkscape:pagecheckerboard="0" /><g
     transform="matrix(0.24,0,0,0.24,-478.851,-817.2786)"
     id="g20566"><g
       transform="matrix(62.5,0,0,62.5,1987.4,3462.39)"
       id="g16790"><path
         d="m 0.125,-0.842 c 0,-0.01 0.002,-0.019 0.005,-0.028 0.004,-0.008 0.009,-0.015 0.015,-0.022 0.007,-0.006 0.014,-0.011 0.023,-0.015 0.008,-0.004 0.018,-0.006 0.027,-0.006 h 0.632 c 0.009,0 0.019,0.002 0.027,0.006 0.008,0.004 0.016,0.009 0.022,0.015 0.007,0.007 0.012,0.014 0.015,0.022 0.004,0.009 0.006,0.018 0.006,0.028 V 0.105 C 0.897,0.12 0.894,0.133 0.889,0.146 0.883,0.159 0.876,0.17 0.866,0.179 0.857,0.189 0.846,0.197 0.833,0.202 0.82,0.208 0.807,0.21 0.792,0.21 H 0.23 C 0.216,0.21 0.202,0.208 0.189,0.202 0.176,0.197 0.165,0.189 0.156,0.18 0.146,0.17 0.139,0.159 0.133,0.146 0.128,0.133 0.125,0.12 0.125,0.105 Z"
         style="fill-rule:nonzero"
         id="path16776" /><path
         d="m 0.757,-0.01 0.07,0.08 V 0.105 C 0.827,0.114 0.823,0.123 0.816,0.13 0.81,0.137 0.801,0.14 0.792,0.14 H 0.23 C 0.221,0.14 0.212,0.137 0.206,0.13 0.199,0.123 0.195,0.115 0.195,0.105 V 0.07 l 0.062,-0.071 z"
         style="fill:#f2f2f2;fill-rule:nonzero"
         id="path16778" /><path
         d="M 0.827,-0.807 V 0.07 C 0.827,0.08 0.823,0.088 0.816,0.095 0.81,0.102 0.801,0.105 0.792,0.105 H 0.23 C 0.221,0.105 0.213,0.102 0.206,0.095 0.199,0.088 0.195,0.08 0.195,0.07 v -0.877 h 0.003 l 0.047,-0.02 0.052,0.02 h 0.007 l 0.047,-0.021 0.051,0.021 h 0.007 l 0.051,-0.021 0.048,0.021 h 0.006 l 0.045,-0.021 0.054,0.021 h 0.006 l 0.048,-0.02 0.051,0.02 h 0.007 l 0.046,-0.02 0.053,0.02 z"
         style="fill:#ffb900;fill-rule:nonzero"
         id="path16780" /><path
         d="M 0.297,-0.807 H 0.248 c -0.005,0 -0.009,0.002 -0.012,0.005 -0.004,0.003 -0.006,0.008 -0.006,0.012 0,0.007 0.002,0.011 0.006,0.013 0.003,0.002 0.007,0.004 0.012,0.005 0.004,0.001 0.008,0.003 0.012,0.005 0.003,0.002 0.005,0.006 0.005,0.012 0,0.005 -0.002,0.009 -0.005,0.012 -0.003,0.004 -0.007,0.006 -0.012,0.006 -0.007,0 -0.014,-0.002 -0.02,-0.004 C 0.221,-0.744 0.216,-0.748 0.211,-0.752 0.206,-0.757 0.202,-0.762 0.199,-0.769 0.197,-0.775 0.195,-0.782 0.195,-0.79 c 0,-0.007 0.002,-0.014 0.004,-0.02 0.003,-0.007 0.007,-0.012 0.012,-0.017 0.004,-0.005 0.01,-0.008 0.016,-0.011 0.007,-0.003 0.014,-0.004 0.021,-0.004 0.011,0 0.021,0.003 0.03,0.009 0.009,0.007 0.016,0.015 0.019,0.026 z m 0.105,0 H 0.353 c -0.005,0 -0.009,0.002 -0.012,0.005 -0.004,0.003 -0.006,0.008 -0.006,0.012 0,0.007 0.002,0.011 0.006,0.013 0.003,0.002 0.007,0.004 0.012,0.005 0.004,0.001 0.008,0.003 0.012,0.005 0.004,0.002 0.006,0.006 0.006,0.012 0,0.005 -0.002,0.009 -0.006,0.013 -0.003,0.003 -0.007,0.005 -0.012,0.005 -0.007,0 -0.014,-0.002 -0.02,-0.004 C 0.326,-0.744 0.321,-0.748 0.316,-0.753 0.311,-0.757 0.307,-0.763 0.304,-0.769 0.302,-0.776 0.3,-0.782 0.3,-0.79 c 0,-0.007 0.002,-0.013 0.004,-0.02 0.003,-0.006 0.007,-0.012 0.012,-0.017 0.005,-0.005 0.01,-0.008 0.017,-0.011 0.006,-0.003 0.013,-0.004 0.02,-0.004 0.011,0 0.021,0.003 0.03,0.009 0.009,0.007 0.016,0.015 0.019,0.026 z m 0.106,0 h -0.05 c -0.004,0 -0.009,0.002 -0.012,0.005 -0.003,0.003 -0.005,0.008 -0.005,0.012 0,0.007 0.002,0.011 0.005,0.013 0.004,0.002 0.008,0.004 0.012,0.005 0.005,0.001 0.009,0.003 0.012,0.005 0.004,0.002 0.006,0.006 0.006,0.012 0,0.005 -0.002,0.009 -0.005,0.013 -0.003,0.003 -0.008,0.005 -0.013,0.005 -0.007,0 -0.013,-0.002 -0.02,-0.004 C 0.432,-0.744 0.426,-0.748 0.421,-0.752 0.417,-0.757 0.413,-0.762 0.41,-0.769 0.407,-0.775 0.406,-0.782 0.406,-0.79 c 0,-0.007 10e-4,-0.014 0.004,-0.02 0.003,-0.007 0.006,-0.012 0.011,-0.017 0.005,-0.005 0.01,-0.008 0.017,-0.011 0.006,-0.003 0.013,-0.004 0.02,-0.004 0.012,0 0.022,0.003 0.031,0.009 0.009,0.007 0.015,0.015 0.019,0.026 z m 0.105,0 h -0.05 c -0.004,0 -0.008,0.002 -0.012,0.005 -0.003,0.004 -0.005,0.008 -0.005,0.012 0,0.007 0.002,0.011 0.005,0.013 0.004,0.002 0.008,0.004 0.012,0.005 0.005,0.001 0.009,0.003 0.012,0.005 0.004,0.002 0.006,0.006 0.006,0.012 0,0.005 -0.002,0.009 -0.005,0.013 -0.003,0.003 -0.008,0.005 -0.013,0.005 -0.007,0 -0.013,-0.002 -0.02,-0.004 C 0.537,-0.744 0.531,-0.748 0.527,-0.753 0.522,-0.757 0.518,-0.763 0.515,-0.769 0.513,-0.776 0.511,-0.782 0.511,-0.79 c 0,-0.007 0.002,-0.013 0.004,-0.02 0.003,-0.006 0.007,-0.012 0.011,-0.017 0.005,-0.005 0.01,-0.008 0.017,-0.011 0.006,-0.003 0.013,-0.004 0.02,-0.004 0.012,0 0.022,0.003 0.031,0.009 0.009,0.007 0.016,0.015 0.019,0.026 z m 0.105,0 H 0.669 c -0.005,0 -0.009,0.002 -0.013,0.005 -0.003,0.003 -0.005,0.008 -0.005,0.012 0,0.007 0.002,0.011 0.006,0.013 0.003,0.002 0.007,0.004 0.012,0.005 0.004,0.001 0.008,0.003 0.012,0.005 0.004,0.002 0.006,0.006 0.006,0.012 0,0.005 -0.002,0.009 -0.006,0.013 -0.003,0.003 -0.007,0.005 -0.012,0.005 -0.007,0 -0.014,-0.002 -0.02,-0.004 C 0.642,-0.744 0.637,-0.748 0.632,-0.752 0.627,-0.757 0.623,-0.762 0.62,-0.769 0.618,-0.775 0.616,-0.782 0.616,-0.79 c 0,-0.007 0.002,-0.014 0.004,-0.02 0.003,-0.007 0.007,-0.012 0.012,-0.017 0.004,-0.005 0.01,-0.008 0.016,-0.011 0.007,-0.003 0.013,-0.004 0.021,-0.004 0.011,0 0.022,0.003 0.03,0.009 0.009,0.007 0.016,0.015 0.019,0.026 z m 0.039,0.017 c 0,0.007 0.002,0.011 0.005,0.013 0.004,0.002 0.008,0.004 0.012,0.005 0.005,0.001 0.009,0.003 0.012,0.005 0.004,0.002 0.006,0.006 0.006,0.012 0,0.005 -0.002,0.009 -0.005,0.012 -0.004,0.004 -0.008,0.006 -0.013,0.006 -0.007,0 -0.014,-0.002 -0.02,-0.004 C 0.748,-0.744 0.742,-0.748 0.737,-0.752 0.732,-0.757 0.729,-0.762 0.726,-0.769 0.723,-0.775 0.722,-0.782 0.722,-0.79 c 0,-0.007 0.001,-0.014 0.004,-0.02 0.003,-0.007 0.006,-0.012 0.011,-0.017 0.005,-0.005 0.01,-0.008 0.017,-0.011 0.006,-0.003 0.013,-0.004 0.02,-0.004 0.012,0 0.022,0.003 0.031,0.009 0.009,0.007 0.015,0.015 0.019,0.026 h -0.05 c -0.004,0 -0.009,0.002 -0.012,0.005 -0.003,0.003 -0.005,0.008 -0.005,0.012 z"
         style="fill:#cccccc;fill-rule:nonzero"
         id="path16782" /><rect
         x="0.58099997"
         y="-0.07"
         width="0.211"
         height="0.07"
         style="fill:#eba300;fill-rule:nonzero"
         id="rect16784" /><rect
         x="0.58099997"
         y="0.035"
         width="0.211"
         height="0.035"
         style="fill:#d48c00;fill-rule:nonzero"
         id="rect16786" /><path
         d="m 0.23,-0.526 v -0.071 h 0.211 v 0.071 z m 0,-0.141 h 0.211 v 0.035 H 0.23 Z"
         style="fill:#ffc83d;fill-rule:nonzero"
         id="path16788" /></g></g></svg>
