<?xml version="1.0" encoding="UTF-8" standalone="no"?>
<svg
   width="16.844999"
   height="16.305"
   viewBox="0 0 16.844999 16.305"
   version="1.1"
   xml:space="preserve"
   style="clip-rule:evenodd;fill-rule:evenodd;stroke-linejoin:round;stroke-miterlimit:2"
   id="svg20568"
   sodipodi:docname="emojis.svg"
   xmlns:inkscape="http://www.inkscape.org/namespaces/inkscape"
   xmlns:sodipodi="http://sodipodi.sourceforge.net/DTD/sodipodi-0.dtd"
   xmlns="http://www.w3.org/2000/svg"
   xmlns:svg="http://www.w3.org/2000/svg"><defs
     id="defs20572" /><sodipodi:namedview
     id="namedview20570"
     pagecolor="#505050"
     bordercolor="#eeeeee"
     borderopacity="1"
     inkscape:pageshadow="0"
     inkscape:pageopacity="0"
     inkscape:pagecheckerboard="0" /><g
     transform="matrix(0.24,0,0,0.24,-655.671,-128.22924)"
     id="g20566"><g
       transform="matrix(62.5,0,0,62.5,2724.15,589.101)"
       id="g1674"><path
         d="M 0.903,0.21 0.692,0 H 0.681 L 0.47,0.21 H 0.125 V -0.131 L 0.4,-0.269 c 0.004,-0.002 0.008,-0.005 0.012,-0.01 0.003,-0.004 0.005,-0.009 0.006,-0.013 L 0.51,-0.706 c 0.001,-0.004 0.001,-0.008 0.002,-0.012 0,-0.004 0,-0.009 0,-0.013 L 0.511,-0.772 c 0,-0.015 0.003,-0.028 0.009,-0.041 0.005,-0.013 0.013,-0.024 0.022,-0.033 0.009,-0.01 0.02,-0.018 0.033,-0.023 0.013,-0.006 0.027,-0.008 0.041,-0.008 0.013,0 0.026,0.002 0.038,0.007 0.012,0.004 0.023,0.011 0.033,0.019 0.009,-0.008 0.02,-0.015 0.032,-0.019 0.012,-0.005 0.025,-0.007 0.038,-0.007 0.014,0 0.028,0.002 0.041,0.008 0.013,0.005 0.024,0.013 0.033,0.023 0.009,0.009 0.017,0.02 0.023,0.033 0.005,0.013 0.008,0.026 0.008,0.041 l -0.001,0.041 c 0,0.004 0,0.009 0,0.013 0.001,0.004 0.001,0.008 0.002,0.012 l 0.092,0.414 c 0.001,0.004 0.003,0.009 0.006,0.013 0.004,0.005 0.008,0.008 0.012,0.01 l 0.275,0.138 V 0.21 Z"
         style="fill-rule:nonzero"
         id="path1666" /><path
         d="M 1.178,-0.088 V 0.14 H 0.932 L 0.81,0.018 0.843,-0.146 1.002,-0.176 Z M 0.371,-0.176 0.529,-0.137 0.563,0.018 0.441,0.14 H 0.195 v -0.228 z"
         style="fill:#3a96dd;fill-rule:nonzero"
         id="path1668" /><rect
         x="0.616"
         y="-0.77200001"
         width="0.141"
         height="0.70200002"
         style="fill:#d48c00;fill-rule:nonzero"
         id="rect1670" /><path
         d="m 0.722,-0.772 c 0,-0.01 0.003,-0.018 0.01,-0.025 0.007,-0.007 0.015,-0.01 0.025,-0.01 0.009,0 0.017,0.003 0.024,0.01 0.007,0.007 0.011,0.016 0.011,0.025 v 0.059 c 0,0.004 0,0.007 0.001,0.011 0,0.004 0.001,0.008 0.001,0.011 l 0.092,0.414 c 0.003,0.015 0.009,0.028 0.017,0.038 0.008,0.01 0.017,0.019 0.027,0.026 0.011,0.007 0.022,0.014 0.034,0.019 0.013,0.006 0.025,0.012 0.038,0.018 L 0.81,0.018 0.722,-0.07 Z M 0.651,-0.07 0.563,0.018 0.371,-0.176 c 0.013,-0.006 0.025,-0.012 0.038,-0.018 0.012,-0.005 0.023,-0.012 0.034,-0.019 0.01,-0.007 0.019,-0.016 0.027,-0.026 0.008,-0.01 0.013,-0.023 0.017,-0.038 l 0.092,-0.414 c 0,-0.003 0.001,-0.007 0.001,-0.011 0.001,-0.004 0.001,-0.007 0.001,-0.011 v -0.059 c 0,-0.009 0.004,-0.018 0.011,-0.025 0.007,-0.007 0.015,-0.01 0.024,-0.01 0.01,0 0.018,0.003 0.025,0.01 0.007,0.007 0.01,0.015 0.01,0.025 z"
         style="fill:#ffc83d;fill-rule:nonzero"
         id="path1672" /></g></g></svg>
