<?xml version="1.0" encoding="UTF-8" standalone="no"?>
<svg
   width="16.844999"
   height="16.844999"
   viewBox="0 0 16.844999 16.844999"
   version="1.1"
   xml:space="preserve"
   style="clip-rule:evenodd;fill-rule:evenodd;stroke-linejoin:round;stroke-miterlimit:2"
   id="svg20568"
   sodipodi:docname="emojis.svg"
   xmlns:inkscape="http://www.inkscape.org/namespaces/inkscape"
   xmlns:sodipodi="http://sodipodi.sourceforge.net/DTD/sodipodi-0.dtd"
   xmlns="http://www.w3.org/2000/svg"
   xmlns:svg="http://www.w3.org/2000/svg"><defs
     id="defs20572" /><sodipodi:namedview
     id="namedview20570"
     pagecolor="#505050"
     bordercolor="#eeeeee"
     borderopacity="1"
     inkscape:pageshadow="0"
     inkscape:pageopacity="0"
     inkscape:pagecheckerboard="0" /><g
     transform="matrix(0.24,0,0,0.24,-337.2966,-817.2786)"
     id="g20566"><g
       transform="matrix(62.5,0,0,62.5,1397.59,3462.39)"
       id="g16700"><path
         d="m 0.125,0.21 v -1.123 h 0.731 l 0.164,0.164 c 0.008,-0.008 0.016,-0.016 0.024,-0.023 0.007,-0.007 0.015,-0.013 0.024,-0.019 0.008,-0.005 0.017,-0.009 0.027,-0.012 0.009,-0.003 0.021,-0.004 0.033,-0.004 0.017,0 0.032,0.003 0.047,0.009 0.014,0.006 0.027,0.015 0.038,0.026 0.011,0.011 0.019,0.023 0.026,0.038 0.006,0.014 0.009,0.03 0.009,0.046 0,0.016 -0.003,0.032 -0.009,0.046 -0.006,0.015 -0.015,0.028 -0.026,0.039 L 1.038,-0.427 V 0.21 Z"
         style="fill-rule:nonzero"
         id="path16682" /><path
         d="M 0.967,0.14 H 0.195 v -0.982 h 0.632 l 0.035,0.109 0.105,0.031 z"
         style="fill:#ffffff;fill-rule:nonzero"
         id="path16684" /><path
         d="m 0.827,-0.702 v -0.14 l 0.14,0.14 z"
         style="fill:#e5e5e5;fill-rule:nonzero"
         id="path16686" /><path
         d="m 1.073,-0.702 0.05,-0.002 0.025,0.021 -0.005,0.051 -0.07,0.07 -0.06,0.009 -0.019,-0.026 c 0,-0.001 0.001,-0.005 0.001,-0.01 l 0.006,-0.035 c 0.001,-0.005 0.001,-0.008 0.001,-0.008 z"
         style="fill:#cccccc;fill-rule:nonzero"
         id="path16688" /><path
         d="m 0.265,-0.632 h 0.632 v 0.035 H 0.265 Z m 0,0.351 v -0.035 h 0.632 v 0.035 z m 0,0.211 v -0.035 h 0.597 v 0.035 z m 0.597,-0.351 v 0.035 H 0.265 V -0.421 Z M 0.827,-0.526 v 0.035 H 0.265 v -0.035 z m 0,0.316 v 0.034 H 0.265 V -0.21 Z M 0.581,-0.737 v 0.035 H 0.265 V -0.737 Z M 0.265,0.035 V 0 H 0.441 L 0.406,0.035 Z"
         style="fill:#a6a6a6;fill-rule:nonzero"
         id="path16690" /><path
         d="m 0.476,0 -0.07,0.035 0.035,-0.07 0.05,-0.011 z"
         style="fill:#757575;fill-rule:nonzero"
         id="path16692" /><path
         d="M 0.476,-0.105 0.616,-0.17 0.546,-0.035 0.476,0 0.441,-0.035 Z"
         style="fill:#f7d7c4;fill-rule:nonzero"
         id="path16694" /><path
         d="M 0.546,-0.035 V -0.07 H 0.511 V -0.105 H 0.476 l 0.526,-0.527 0.071,0.07 z"
         style="fill:#ffc83d;fill-rule:nonzero"
         id="path16696" /><path
         d="m 1.178,-0.688 c 0,0.007 -10e-4,0.013 -0.003,0.018 -0.003,0.005 -0.005,0.01 -0.009,0.014 -0.003,0.004 -0.007,0.008 -0.011,0.012 -0.004,0.004 -0.008,0.008 -0.012,0.012 l -0.07,-0.07 c 0.004,-0.004 0.008,-0.008 0.011,-0.012 0.004,-0.005 0.009,-0.008 0.013,-0.012 0.004,-0.003 0.009,-0.006 0.014,-0.008 0.005,-0.002 0.011,-0.003 0.017,-0.003 0.014,0 0.025,0.005 0.035,0.014 0.01,0.01 0.015,0.022 0.015,0.035 z"
         style="fill:#ee9889;fill-rule:nonzero"
         id="path16698" /></g></g></svg>
