<?xml version="1.0" encoding="UTF-8" standalone="no"?>
<svg
   width="15.795"
   height="16.320002"
   viewBox="0 0 15.795 16.320002"
   version="1.1"
   xml:space="preserve"
   style="clip-rule:evenodd;fill-rule:evenodd;stroke-linejoin:round;stroke-miterlimit:2"
   id="svg20568"
   sodipodi:docname="emojis.svg"
   xmlns:inkscape="http://www.inkscape.org/namespaces/inkscape"
   xmlns:sodipodi="http://sodipodi.sourceforge.net/DTD/sodipodi-0.dtd"
   xmlns="http://www.w3.org/2000/svg"
   xmlns:svg="http://www.w3.org/2000/svg"><defs
     id="defs20572" /><sodipodi:namedview
     id="namedview20570"
     pagecolor="#505050"
     bordercolor="#eeeeee"
     borderopacity="1"
     inkscape:pageshadow="0"
     inkscape:pageopacity="0"
     inkscape:pagecheckerboard="0" /><g
     transform="matrix(0.24,0,0,0.24,-439.755,-817.8186)"
     id="g20566"><g
       transform="matrix(62.5,0,0,62.5,1824.5,3462.39)"
       id="g16760"><rect
         x="0.125"
         y="-0.87699997"
         width="1.053"
         height="1.0880001"
         style="fill-rule:nonzero"
         id="rect16748" /><path
         d="M 0.273,0.04 1.073,-0.029 1.107,0 V 0.14 H 0.195 V 0.105 Z"
         style="fill:#cccccc;fill-rule:nonzero"
         id="path16750" /><path
         d="m 0.195,0.105 v -0.702 l 0.078,-0.072 h 0.748 l 0.086,0.072 V 0 L 1.027,0.03 1.002,0.105 Z"
         style="fill:#f2f2f2;fill-rule:nonzero"
         id="path16752" /><path
         d="M 1.002,0.105 V 0 h 0.105 z"
         style="fill:#ffffff;fill-rule:nonzero"
         id="path16754" /><path
         d="m 0.3,-0.316 v -0.07 h 0.071 v 0.07 z M 0.722,0 v -0.07 h 0.07 V 0 Z M 0.616,-0.21 v -0.071 h 0.071 v 0.071 z m 0.211,0.105 v -0.071 h 0.07 v 0.071 z M 0.406,-0.316 v -0.07 h 0.07 v 0.07 z m 0.526,0 v -0.07 h 0.07 v 0.07 z M 0.827,-0.21 v -0.071 h 0.07 V -0.21 Z M 0.616,0 V -0.07 H 0.687 V 0 Z m -0.21,0 v -0.07 h 0.07 V 0 Z m 0.316,-0.21 v -0.071 h 0.07 v 0.071 z m -0.316,0 v -0.071 h 0.07 v 0.071 z m 0.21,0.105 v -0.071 h 0.071 v 0.071 z m 0.106,0 v -0.071 h 0.07 v 0.071 z M 0.3,-0.21 v -0.071 h 0.071 v 0.071 z m 0.632,0 v -0.071 h 0.07 V -0.21 Z M 0.616,-0.316 v -0.07 h 0.071 v 0.07 z M 0.3,0 V -0.07 H 0.371 V 0 Z m 0.527,-0.316 v -0.07 h 0.07 v 0.07 z m -0.421,0.211 v -0.071 h 0.07 v 0.071 z m 0.316,-0.211 v -0.07 h 0.07 v 0.07 z M 0.3,-0.105 v -0.071 h 0.071 v 0.071 z m 0.632,0 v -0.071 h 0.07 v 0.071 z m -0.421,0 v -0.071 h 0.07 v 0.071 z m 0,-0.211 v -0.07 h 0.07 v 0.07 z m 0.211,-0.105 v -0.07 h 0.07 v 0.07 z M 0.511,0 v -0.07 h 0.07 V 0 Z m 0.421,-0.491 h 0.07 v 0.07 h -0.07 z m -0.105,0.07 v -0.07 h 0.07 v 0.07 z M 0.511,-0.21 v -0.071 h 0.07 v 0.071 z m 0.105,-0.211 v -0.07 h 0.071 v 0.07 z m -0.105,0 v -0.07 h 0.07 v 0.07 z"
         style="fill:#a6a6a6;fill-rule:nonzero"
         id="path16756" /><path
         d="m 0.195,-0.807 h 0.912 v 0.21 H 0.195 Z m 0.246,0.597 c 0.01,0 0.019,0.001 0.027,0.005 0.009,0.004 0.016,0.008 0.022,0.015 0.007,0.006 0.012,0.014 0.016,0.022 0.003,0.008 0.005,0.018 0.005,0.027 0,0.01 -0.002,0.019 -0.005,0.028 C 0.502,-0.105 0.497,-0.097 0.49,-0.091 0.484,-0.085 0.477,-0.08 0.468,-0.076 0.46,-0.072 0.451,-0.07 0.441,-0.07 c -0.015,0 -0.027,-0.005 -0.037,-0.014 -0.01,-0.01 -0.015,-0.022 -0.016,-0.037 -0.001,0.01 -0.007,0.016 -0.017,0.016 -0.005,0 -0.009,-0.002 -0.013,-0.006 -0.003,-0.003 -0.005,-0.007 -0.005,-0.012 0,-0.012 0.002,-0.023 0.007,-0.034 0.004,-0.011 0.011,-0.02 0.019,-0.028 0.008,-0.008 0.017,-0.014 0.028,-0.019 0.01,-0.004 0.022,-0.006 0.034,-0.006 z m -0.035,0.069 c 0.006,0 0.01,0.002 0.012,0.006 0.002,0.004 0.004,0.008 0.005,0.012 0.002,0.005 0.003,0.009 0.005,0.012 0.002,0.004 0.006,0.006 0.013,0.006 0.009,0 0.018,-0.004 0.025,-0.011 0.007,-0.007 0.01,-0.015 0.01,-0.025 0,-0.009 -0.003,-0.017 -0.01,-0.024 -0.007,-0.007 -0.016,-0.011 -0.025,-0.011 -0.007,0 -0.013,0.001 -0.019,0.004 -0.006,0.002 -0.012,0.006 -0.016,0.01 -0.005,0.005 -0.009,0.01 -0.012,0.016 -0.003,0.005 -0.005,0.012 -0.006,0.018 0.001,-0.004 0.003,-0.007 0.007,-0.009 0.003,-0.002 0.007,-0.004 0.011,-0.004 z"
         style="fill:#f03a17;fill-rule:nonzero"
         id="path16758" /></g></g></svg>
