<?xml version="1.0" encoding="UTF-8" standalone="no"?>
<svg
   width="16.754999"
   height="16.754999"
   viewBox="0 0 16.754999 16.754999"
   version="1.1"
   xml:space="preserve"
   style="clip-rule:evenodd;fill-rule:evenodd;stroke-linejoin:round;stroke-miterlimit:2"
   id="svg20568"
   sodipodi:docname="emojis.svg"
   xmlns:inkscape="http://www.inkscape.org/namespaces/inkscape"
   xmlns:sodipodi="http://sodipodi.sourceforge.net/DTD/sodipodi-0.dtd"
   xmlns="http://www.w3.org/2000/svg"
   xmlns:svg="http://www.w3.org/2000/svg"><defs
     id="defs20572" /><sodipodi:namedview
     id="namedview20570"
     pagecolor="#505050"
     bordercolor="#eeeeee"
     borderopacity="1"
     inkscape:pageshadow="0"
     inkscape:pageopacity="0"
     inkscape:pagecheckerboard="0" /><g
     transform="matrix(0.24,0,0,0.24,-607.2582,-817.3686)"
     id="g20566"><g
       transform="matrix(62.5,0,0,62.5,2522.43,3462.39)"
       id="g16878"><path
         d="M 0.125,0.21 V 0.076 L 0.412,-0.21 0.236,-0.386 0.36,-0.51 c 0.017,-0.017 0.036,-0.03 0.057,-0.038 0.022,-0.009 0.044,-0.014 0.067,-0.014 0.03,0 0.058,0.007 0.083,0.021 L 0.692,-0.667 C 0.688,-0.68 0.687,-0.694 0.687,-0.708 c 0,-0.019 0.003,-0.037 0.01,-0.053 0.007,-0.017 0.017,-0.032 0.031,-0.046 l 0.099,-0.1 0.415,0.416 -0.099,0.099 c -0.014,0.013 -0.029,0.023 -0.046,0.03 -0.017,0.007 -0.035,0.011 -0.054,0.011 -0.014,0 -0.028,-0.002 -0.041,-0.006 l -0.126,0.126 c 0.007,0.012 0.012,0.026 0.016,0.039 0.003,0.014 0.005,0.028 0.005,0.043 0,0.024 -0.004,0.046 -0.013,0.067 -0.009,0.022 -0.022,0.04 -0.038,0.057 L 0.722,0.099 0.546,-0.076 0.259,0.21 Z"
         style="fill-rule:nonzero"
         id="path16870" /><path
         d="M 0.728,-0.181 0.524,-0.399 0.827,-0.702 1.038,-0.491 Z"
         style="fill:#da3b01;fill-rule:nonzero"
         id="path16872" /><path
         d="M 0.588,-0.244 0.581,-0.21 0.23,0.14 H 0.195 V 0.105 l 0.351,-0.351 z"
         style="fill:#e5e5e5;fill-rule:nonzero"
         id="path16874" /><path
         d="m 0.484,-0.492 c 0.014,0 0.028,0.003 0.041,0.009 0.013,0.005 0.024,0.013 0.034,0.023 l 0.237,0.236 c 0.01,0.01 0.017,0.022 0.023,0.035 0.005,0.013 0.008,0.026 0.008,0.04 0,0.015 -0.003,0.028 -0.008,0.04 -0.005,0.013 -0.013,0.024 -0.023,0.034 L 0.722,0 0.335,-0.386 0.41,-0.46 c 0.011,-0.011 0.022,-0.018 0.034,-0.024 0.012,-0.005 0.026,-0.008 0.04,-0.008 z m 0.343,-0.315 0.316,0.316 -0.05,0.049 C 1.087,-0.435 1.079,-0.43 1.071,-0.427 1.062,-0.423 1.053,-0.421 1.043,-0.421 1.034,-0.421 1.025,-0.423 1.016,-0.427 1.008,-0.43 1,-0.435 0.994,-0.442 L 0.777,-0.658 C 0.771,-0.665 0.766,-0.672 0.762,-0.681 0.759,-0.69 0.757,-0.699 0.757,-0.708 c 0,-0.009 0.002,-0.018 0.005,-0.027 0.004,-0.009 0.009,-0.016 0.015,-0.023 z"
         style="fill:#f03a17;fill-rule:nonzero"
         id="path16876" /></g></g></svg>
