<?xml version="1.0" encoding="UTF-8" standalone="no"?>
<svg
   width="15.795"
   height="15.795"
   viewBox="0 0 15.795 15.795"
   version="1.1"
   xml:space="preserve"
   style="clip-rule:evenodd;fill-rule:evenodd;stroke-linejoin:round;stroke-miterlimit:2"
   id="svg20568"
   sodipodi:docname="emojis.svg"
   xmlns:inkscape="http://www.inkscape.org/namespaces/inkscape"
   xmlns:sodipodi="http://sodipodi.sourceforge.net/DTD/sodipodi-0.dtd"
   xmlns="http://www.w3.org/2000/svg"
   xmlns:svg="http://www.w3.org/2000/svg"><defs
     id="defs20572" /><sodipodi:namedview
     id="namedview20570"
     pagecolor="#505050"
     bordercolor="#eeeeee"
     borderopacity="1"
     inkscape:pageshadow="0"
     inkscape:pageopacity="0"
     inkscape:pagecheckerboard="0" /><g
     transform="matrix(0.24,0,0,0.24,-550.7238,-817.8186)"
     id="g20566"><g
       transform="matrix(62.5,0,0,62.5,2286.87,3462.39)"
       id="g16840"><rect
         x="0.125"
         y="-0.87699997"
         width="1.053"
         height="1.053"
         style="fill-rule:nonzero"
         id="rect16832" /><path
         d="M 1.107,0.105 H 0.827 L 0.81,0.08 0.792,0.105 H 0.511 L 0.492,0.081 0.476,0.105 H 0.195 V -0.176 L 0.225,-0.194 0.195,-0.21 V -0.492 L 0.228,-0.512 0.195,-0.526 V -0.597 L 0.226,-0.611 0.21,-0.659 C 0.207,-0.666 0.205,-0.673 0.203,-0.679 L 0.195,-0.702 v -0.105 h 0.281 l 0.018,0.03 0.017,-0.03 h 0.281 l 0.017,0.028 0.018,-0.028 h 0.28 v 0.281 l -0.025,0.015 0.025,0.02 v 0.281 l -0.025,0.016 0.025,0.018 v 0.106 l -0.036,0.022 0.036,0.083 z"
         style="fill:#f2f2f2;fill-rule:nonzero"
         id="path16834" /><path
         d="m 0.827,-0.491 v 0.281 h 0.28 v 0.034 H 0.827 V 0.105 H 0.792 V -0.176 H 0.511 V 0.105 H 0.476 V -0.176 H 0.195 V -0.21 H 0.476 V -0.491 H 0.195 v -0.035 h 0.281 v -0.281 h 0.035 v 0.281 h 0.281 v -0.281 h 0.035 v 0.281 h 0.28 v 0.035 z m -0.035,0 H 0.511 v 0.281 h 0.281 z"
         style="fill:#cccccc;fill-rule:nonzero"
         id="path16836" /><path
         d="m 1.107,-0.07 v 0.105 l -0.596,-0.603 -0.14,0.141 -0.176,-0.17 v -0.105 l 0.176,0.176 0.14,-0.141 z"
         style="fill:#0078d7;fill-rule:nonzero"
         id="path16838" /></g></g></svg>
