<?xml version="1.0" encoding="UTF-8" standalone="no"?>
<svg
   width="8.4300003"
   height="16.844999"
   viewBox="0 0 8.4300003 16.844999"
   version="1.1"
   xml:space="preserve"
   style="clip-rule:evenodd;fill-rule:evenodd;stroke-linejoin:round;stroke-miterlimit:2"
   id="svg20568"
   sodipodi:docname="emojis.svg"
   xmlns:inkscape="http://www.inkscape.org/namespaces/inkscape"
   xmlns:sodipodi="http://sodipodi.sourceforge.net/DTD/sodipodi-0.dtd"
   xmlns="http://www.w3.org/2000/svg"
   xmlns:svg="http://www.w3.org/2000/svg"><defs
     id="defs20572" /><sodipodi:namedview
     id="namedview20570"
     pagecolor="#505050"
     bordercolor="#eeeeee"
     borderopacity="1"
     inkscape:pageshadow="0"
     inkscape:pageopacity="0"
     inkscape:pagecheckerboard="0" /><g
     transform="matrix(0.24,0,0,0.24,-627.855,-817.2786)"
     id="g20566"><g
       transform="matrix(62.5,0,0,62.5,2608.25,3462.39)"
       id="g16888"><path
         d="m 0.687,-0.632 c 0,0.028 -0.005,0.056 -0.013,0.083 -0.009,0.026 -0.021,0.051 -0.036,0.074 -0.015,0.023 -0.034,0.043 -0.055,0.061 -0.021,0.017 -0.045,0.032 -0.072,0.042 v 0.406 c 0.011,0.008 0.019,0.019 0.025,0.032 0.007,0.012 0.01,0.025 0.01,0.039 0,0.019 -0.004,0.034 -0.013,0.048 C 0.524,0.166 0.513,0.177 0.5,0.185 0.486,0.194 0.471,0.2 0.454,0.204 0.438,0.208 0.421,0.21 0.406,0.21 0.39,0.21 0.374,0.208 0.357,0.204 0.341,0.2 0.326,0.194 0.312,0.185 0.298,0.177 0.287,0.166 0.278,0.152 0.27,0.139 0.265,0.123 0.265,0.105 0.265,0.091 0.268,0.078 0.275,0.065 0.281,0.053 0.29,0.042 0.3,0.034 V -0.372 C 0.274,-0.382 0.25,-0.397 0.229,-0.414 0.207,-0.432 0.189,-0.452 0.173,-0.475 0.158,-0.498 0.146,-0.523 0.138,-0.549 0.129,-0.576 0.125,-0.604 0.125,-0.632 c 0,-0.038 0.007,-0.075 0.022,-0.109 0.015,-0.034 0.035,-0.064 0.061,-0.089 0.025,-0.025 0.055,-0.046 0.089,-0.06 0.034,-0.015 0.07,-0.023 0.109,-0.023 0.038,0 0.074,0.008 0.109,0.023 0.034,0.014 0.064,0.035 0.089,0.06 0.025,0.025 0.045,0.055 0.06,0.089 0.015,0.034 0.023,0.071 0.023,0.109 z"
         style="fill-rule:nonzero"
         id="path16880" /><path
         d="m 0.406,0.07 c 0.005,0 0.011,10e-4 0.019,0.002 0.008,0.001 0.016,0.003 0.023,0.006 0.008,0.002 0.015,0.006 0.02,0.01 0.005,0.005 0.008,0.01 0.008,0.017 0,0.007 -0.003,0.013 -0.008,0.017 C 0.463,0.127 0.456,0.13 0.449,0.133 0.441,0.136 0.434,0.138 0.426,0.139 0.418,0.14 0.411,0.14 0.406,0.14 0.401,0.14 0.394,0.14 0.386,0.139 0.378,0.138 0.37,0.136 0.363,0.133 0.355,0.13 0.349,0.127 0.344,0.122 0.338,0.118 0.335,0.112 0.335,0.105 0.335,0.098 0.338,0.093 0.344,0.088 0.349,0.084 0.355,0.08 0.363,0.078 0.371,0.075 0.378,0.073 0.386,0.072 0.394,0.071 0.401,0.07 0.406,0.07 Z"
         style="fill:#757575;fill-rule:nonzero"
         id="path16882" /><path
         d="M 0.441,0.087 C 0.441,0.091 0.44,0.094 0.437,0.096 0.434,0.098 0.431,0.1 0.427,0.101 0.423,0.103 0.419,0.104 0.416,0.104 0.412,0.105 0.408,0.105 0.406,0.105 0.403,0.105 0.4,0.105 0.396,0.104 0.392,0.104 0.388,0.103 0.385,0.101 0.381,0.1 0.378,0.098 0.375,0.096 0.372,0.094 0.371,0.091 0.371,0.087 v -0.63 h 0.07 z"
         style="fill:#e5e5e5;fill-rule:nonzero"
         id="path16884" /><path
         d="m 0.195,-0.632 c 0,-0.029 0.006,-0.056 0.017,-0.082 0.011,-0.025 0.026,-0.047 0.045,-0.067 0.019,-0.019 0.041,-0.034 0.067,-0.045 0.026,-0.011 0.053,-0.016 0.082,-0.016 0.029,0 0.056,0.005 0.082,0.016 0.025,0.011 0.047,0.026 0.066,0.045 0.019,0.02 0.035,0.042 0.046,0.067 0.011,0.026 0.016,0.053 0.016,0.082 0,0.029 -0.005,0.056 -0.016,0.082 -0.011,0.026 -0.027,0.048 -0.046,0.067 -0.019,0.019 -0.041,0.034 -0.066,0.045 -0.026,0.011 -0.053,0.017 -0.082,0.017 -0.029,0 -0.056,-0.006 -0.082,-0.017 C 0.298,-0.449 0.276,-0.464 0.257,-0.483 0.238,-0.502 0.223,-0.524 0.212,-0.55 0.201,-0.576 0.195,-0.603 0.195,-0.632 Z"
         style="fill:#f03a17;fill-rule:nonzero"
         id="path16886" /></g></g></svg>
