<?xml version="1.0" encoding="UTF-8" standalone="no"?>
<svg
   width="14.73"
   height="16.844999"
   viewBox="0 0 14.73 16.844999"
   version="1.1"
   xml:space="preserve"
   style="clip-rule:evenodd;fill-rule:evenodd;stroke-linejoin:round;stroke-miterlimit:2"
   id="svg20568"
   sodipodi:docname="emojis.svg"
   xmlns:inkscape="http://www.inkscape.org/namespaces/inkscape"
   xmlns:sodipodi="http://sodipodi.sourceforge.net/DTD/sodipodi-0.dtd"
   xmlns="http://www.w3.org/2000/svg"
   xmlns:svg="http://www.w3.org/2000/svg"><defs
     id="defs20572" /><sodipodi:namedview
     id="namedview20570"
     pagecolor="#505050"
     bordercolor="#eeeeee"
     borderopacity="1"
     inkscape:pageshadow="0"
     inkscape:pageopacity="0"
     inkscape:pagecheckerboard="0" /><g
     transform="matrix(0.24,0,0,0.24,-494.187,-817.2786)"
     id="g20566"><g
       transform="matrix(62.5,0,0,62.5,2051.3,3462.39)"
       id="g16806"><path
         d="m 0.125,-0.842 c 0,-0.01 0.002,-0.019 0.005,-0.028 0.004,-0.008 0.009,-0.015 0.015,-0.022 0.007,-0.006 0.014,-0.011 0.023,-0.015 0.008,-0.004 0.018,-0.006 0.027,-0.006 h 0.843 c 0.009,0 0.018,0.002 0.027,0.006 0.008,0.004 0.016,0.009 0.022,0.015 0.007,0.007 0.011,0.014 0.015,0.022 0.004,0.009 0.005,0.018 0.005,0.028 V 0.21 H 0.125 Z"
         style="fill-rule:nonzero"
         id="path16792" /><path
         d="M 0.99,-0.038 1.038,0 V 0.14 H 0.195 V 0.105 l 0.103,-0.112 z"
         style="fill:#e5e5e5;fill-rule:nonzero"
         id="path16794" /><path
         d="m 1.038,-0.807 v 0.21 l -0.086,0.08 H 0.269 L 0.195,-0.597 V -0.79 l 0.047,-0.038 0.055,0.021 h 0.007 l 0.048,-0.021 0.05,0.021 h 0.007 l 0.049,-0.023 0.05,0.023 h 0.006 l 0.049,-0.018 0.028,0.011 c 0.005,0.002 0.011,0.003 0.015,0.005 0.005,0.001 0.009,0.002 0.012,0.002 0,0 0.003,-0.001 0.008,-0.003 l 0.032,-0.012 c 0.005,-0.002 0.009,-0.004 0.01,-0.004 l 0.05,0.019 h 0.007 l 0.048,-0.02 0.05,0.02 H 0.83 l 0.047,-0.018 c 0.004,0.001 0.008,0.002 0.013,0.004 0.005,0.002 0.011,0.004 0.016,0.006 0.006,0.002 0.011,0.004 0.016,0.006 0.005,0.001 0.009,0.002 0.012,0.002 0,0 0.003,-0.001 0.008,-0.003 L 0.975,-0.822 C 0.98,-0.824 0.983,-0.826 0.984,-0.826 l 0.05,0.019 z"
         style="fill:#f03a17;fill-rule:nonzero"
         id="path16796" /><path
         d="M 0.195,0.105 V -0.597 H 1.038 V 0 L 0.963,0.034 0.932,0.105 Z"
         style="fill:#f2f2f2;fill-rule:nonzero"
         id="path16798" /><path
         d="m 0.616,-0.351 c 0,0.02 -0.004,0.04 -0.012,0.058 -0.009,0.018 -0.021,0.034 -0.036,0.047 0.015,0.014 0.027,0.03 0.036,0.048 0.008,0.018 0.012,0.037 0.012,0.057 0,0.02 -0.004,0.038 -0.011,0.055 -0.008,0.017 -0.018,0.031 -0.03,0.044 C 0.562,-0.029 0.547,-0.019 0.53,-0.011 0.513,-0.004 0.495,0 0.476,0 0.457,0 0.438,-0.004 0.421,-0.011 0.404,-0.018 0.389,-0.028 0.376,-0.041 0.364,-0.054 0.354,-0.069 0.346,-0.086 0.339,-0.103 0.335,-0.121 0.335,-0.141 h 0.071 c 0,0.01 0.002,0.019 0.005,0.028 0.004,0.009 0.009,0.016 0.015,0.022 0.006,0.007 0.014,0.012 0.022,0.015 0.009,0.004 0.018,0.006 0.028,0.006 0.01,0 0.019,-0.002 0.027,-0.006 C 0.512,-0.08 0.519,-0.085 0.526,-0.091 0.532,-0.097 0.537,-0.105 0.541,-0.113 0.544,-0.122 0.546,-0.131 0.546,-0.141 0.546,-0.15 0.544,-0.16 0.541,-0.168 0.537,-0.176 0.532,-0.184 0.526,-0.19 0.519,-0.197 0.512,-0.201 0.503,-0.205 0.495,-0.209 0.486,-0.21 0.476,-0.21 v -0.071 c 0.01,0 0.019,-0.002 0.027,-0.005 0.009,-0.004 0.016,-0.009 0.023,-0.016 0.006,-0.006 0.011,-0.013 0.015,-0.022 0.003,-0.008 0.005,-0.017 0.005,-0.027 0,-0.01 -0.002,-0.019 -0.005,-0.027 C 0.537,-0.387 0.532,-0.394 0.526,-0.401 0.519,-0.407 0.512,-0.412 0.503,-0.416 0.495,-0.42 0.486,-0.421 0.476,-0.421 0.466,-0.421 0.457,-0.42 0.449,-0.416 0.44,-0.412 0.433,-0.407 0.427,-0.401 0.42,-0.394 0.415,-0.387 0.411,-0.378 0.408,-0.37 0.406,-0.361 0.406,-0.351 H 0.335 c 0,-0.02 0.004,-0.038 0.011,-0.055 0.008,-0.017 0.018,-0.031 0.03,-0.044 0.013,-0.013 0.028,-0.023 0.045,-0.03 0.017,-0.008 0.036,-0.011 0.055,-0.011 0.019,0 0.037,0.003 0.055,0.011 0.017,0.007 0.032,0.017 0.044,0.03 0.013,0.013 0.023,0.027 0.03,0.044 0.008,0.018 0.011,0.036 0.011,0.055 z m 0.141,-0.14 h 0.07 V 0 h -0.07 v -0.351 h -0.07 v -0.07 c 0.009,0 0.018,-0.002 0.027,-0.006 0.008,-0.003 0.016,-0.008 0.022,-0.015 0.006,-0.006 0.011,-0.013 0.015,-0.022 0.004,-0.008 0.006,-0.017 0.006,-0.027 z"
         style="fill:#757575;fill-rule:nonzero"
         id="path16800" /><path
         d="M 0.932,0.105 V 0 h 0.106 z"
         style="fill:#ffffff;fill-rule:nonzero"
         id="path16802" /><path
         d="M 0.297,-0.807 H 0.248 c -0.005,0 -0.009,0.002 -0.012,0.005 -0.004,0.003 -0.006,0.008 -0.006,0.012 0,0.007 0.002,0.011 0.006,0.013 0.003,0.002 0.007,0.004 0.012,0.005 0.004,0.001 0.008,0.003 0.012,0.005 0.003,0.002 0.005,0.006 0.005,0.012 0,0.005 -0.002,0.009 -0.005,0.012 -0.003,0.004 -0.007,0.006 -0.012,0.006 -0.007,0 -0.014,-0.002 -0.02,-0.004 C 0.221,-0.744 0.216,-0.748 0.211,-0.752 0.206,-0.757 0.202,-0.762 0.199,-0.769 0.197,-0.775 0.195,-0.782 0.195,-0.79 c 0,-0.007 0.002,-0.014 0.004,-0.02 0.003,-0.007 0.007,-0.012 0.012,-0.017 0.004,-0.005 0.01,-0.008 0.016,-0.011 0.007,-0.003 0.014,-0.004 0.021,-0.004 0.011,0 0.021,0.003 0.03,0.009 0.009,0.007 0.016,0.015 0.019,0.026 z m 0.105,0 H 0.353 c -0.005,0 -0.009,0.002 -0.012,0.005 -0.004,0.003 -0.006,0.008 -0.006,0.012 0,0.007 0.002,0.011 0.006,0.013 0.003,0.002 0.007,0.004 0.012,0.005 0.004,0.001 0.008,0.003 0.012,0.005 0.004,0.002 0.006,0.006 0.006,0.012 0,0.005 -0.002,0.009 -0.006,0.013 -0.003,0.003 -0.007,0.005 -0.012,0.005 -0.007,0 -0.014,-0.002 -0.02,-0.004 C 0.326,-0.744 0.321,-0.748 0.316,-0.753 0.311,-0.757 0.307,-0.763 0.304,-0.769 0.302,-0.776 0.3,-0.782 0.3,-0.79 c 0,-0.007 0.002,-0.013 0.004,-0.02 0.003,-0.006 0.007,-0.012 0.012,-0.017 0.005,-0.005 0.01,-0.008 0.017,-0.011 0.006,-0.003 0.013,-0.004 0.02,-0.004 0.011,0 0.021,0.003 0.03,0.009 0.009,0.007 0.016,0.015 0.019,0.026 z m 0.106,0 h -0.05 c -0.004,0 -0.009,0.002 -0.012,0.005 -0.003,0.003 -0.005,0.008 -0.005,0.012 0,0.007 0.002,0.011 0.005,0.013 0.004,0.002 0.008,0.004 0.012,0.005 0.005,0.001 0.009,0.003 0.012,0.005 0.004,0.002 0.006,0.006 0.006,0.012 0,0.005 -0.002,0.009 -0.005,0.013 -0.003,0.003 -0.008,0.005 -0.013,0.005 -0.007,0 -0.013,-0.002 -0.02,-0.004 C 0.432,-0.744 0.426,-0.748 0.421,-0.752 0.417,-0.757 0.413,-0.762 0.41,-0.769 0.407,-0.775 0.406,-0.782 0.406,-0.79 c 0,-0.007 10e-4,-0.014 0.004,-0.02 0.003,-0.007 0.006,-0.012 0.011,-0.017 0.005,-0.005 0.01,-0.008 0.017,-0.011 0.006,-0.003 0.013,-0.004 0.02,-0.004 0.012,0 0.022,0.003 0.031,0.009 0.009,0.007 0.015,0.015 0.019,0.026 z m 0.105,0 h -0.05 c -0.004,0 -0.008,0.002 -0.012,0.005 -0.003,0.004 -0.005,0.008 -0.005,0.012 0,0.007 0.002,0.011 0.005,0.013 0.004,0.002 0.008,0.004 0.012,0.005 0.005,0.001 0.009,0.003 0.012,0.005 0.004,0.002 0.006,0.006 0.006,0.012 0,0.005 -0.002,0.009 -0.005,0.013 -0.003,0.003 -0.008,0.005 -0.013,0.005 -0.007,0 -0.013,-0.002 -0.02,-0.004 C 0.537,-0.744 0.531,-0.748 0.527,-0.753 0.522,-0.757 0.518,-0.763 0.515,-0.769 0.513,-0.776 0.511,-0.782 0.511,-0.79 c 0,-0.007 0.002,-0.013 0.004,-0.02 0.003,-0.006 0.007,-0.012 0.011,-0.017 0.005,-0.005 0.01,-0.008 0.017,-0.011 0.006,-0.003 0.013,-0.004 0.02,-0.004 0.012,0 0.022,0.003 0.031,0.009 0.009,0.007 0.016,0.015 0.019,0.026 z m 0.105,0 H 0.669 c -0.005,0 -0.009,0.002 -0.013,0.005 -0.003,0.003 -0.005,0.008 -0.005,0.012 0,0.007 0.002,0.011 0.006,0.013 0.003,0.002 0.007,0.004 0.012,0.005 0.004,0.001 0.008,0.003 0.012,0.005 0.004,0.002 0.006,0.006 0.006,0.012 0,0.005 -0.002,0.009 -0.006,0.013 -0.003,0.003 -0.007,0.005 -0.012,0.005 -0.007,0 -0.014,-0.002 -0.02,-0.004 C 0.642,-0.744 0.637,-0.748 0.632,-0.752 0.627,-0.757 0.623,-0.762 0.62,-0.769 0.618,-0.775 0.616,-0.782 0.616,-0.79 c 0,-0.007 0.002,-0.014 0.004,-0.02 0.003,-0.007 0.007,-0.012 0.012,-0.017 0.004,-0.005 0.01,-0.008 0.016,-0.011 0.007,-0.003 0.013,-0.004 0.021,-0.004 0.011,0 0.022,0.003 0.03,0.009 0.009,0.007 0.016,0.015 0.019,0.026 z m 0.106,0 h -0.05 c -0.004,0 -0.009,0.002 -0.012,0.005 -0.003,0.003 -0.005,0.008 -0.005,0.012 0,0.007 0.002,0.011 0.005,0.013 0.004,0.002 0.008,0.004 0.012,0.005 0.005,0.001 0.009,0.003 0.012,0.005 0.004,0.002 0.006,0.006 0.006,0.012 0,0.005 -0.002,0.009 -0.005,0.012 -0.004,0.004 -0.008,0.006 -0.013,0.006 -0.007,0 -0.014,-0.002 -0.02,-0.004 C 0.748,-0.744 0.742,-0.748 0.737,-0.752 0.732,-0.757 0.729,-0.762 0.726,-0.769 0.723,-0.775 0.722,-0.782 0.722,-0.79 c 0,-0.007 0.001,-0.014 0.004,-0.02 0.003,-0.007 0.006,-0.012 0.011,-0.017 0.005,-0.005 0.01,-0.008 0.017,-0.011 0.006,-0.003 0.013,-0.004 0.02,-0.004 0.012,0 0.022,0.003 0.031,0.009 0.009,0.007 0.015,0.015 0.019,0.026 z m 0.105,0 h -0.05 c -0.004,0 -0.009,0.002 -0.012,0.005 -0.003,0.003 -0.005,0.008 -0.005,0.012 0,0.007 0.002,0.011 0.005,0.013 0.004,0.002 0.008,0.004 0.012,0.005 0.005,0.001 0.009,0.003 0.012,0.005 0.004,0.002 0.006,0.006 0.006,0.012 0,0.005 -0.002,0.009 -0.005,0.013 -0.004,0.003 -0.008,0.005 -0.013,0.005 -0.007,0 -0.014,-0.002 -0.02,-0.004 C 0.853,-0.744 0.847,-0.748 0.842,-0.753 0.837,-0.757 0.834,-0.763 0.831,-0.769 0.828,-0.776 0.827,-0.782 0.827,-0.79 c 0,-0.007 0.001,-0.013 0.004,-0.02 0.003,-0.006 0.006,-0.012 0.011,-0.017 0.005,-0.005 0.011,-0.008 0.017,-0.011 0.006,-0.003 0.013,-0.004 0.02,-0.004 0.011,0 0.022,0.003 0.031,0.009 0.009,0.007 0.015,0.015 0.019,0.026 z m 0.038,0.017 c 0,0.007 0.002,0.011 0.006,0.013 0.003,0.002 0.007,0.004 0.012,0.005 0.004,0.001 0.008,0.003 0.012,0.005 0.004,0.002 0.005,0.006 0.005,0.012 0,0.005 -0.001,0.009 -0.005,0.013 -0.003,0.003 -0.007,0.005 -0.012,0.005 -0.007,0 -0.014,-0.002 -0.02,-0.004 C 0.958,-0.744 0.953,-0.748 0.948,-0.752 0.943,-0.757 0.939,-0.762 0.936,-0.769 0.934,-0.775 0.932,-0.782 0.932,-0.79 c 0,-0.007 0.002,-0.014 0.004,-0.02 0.003,-0.007 0.007,-0.012 0.012,-0.017 0.004,-0.005 0.01,-0.008 0.016,-0.011 0.006,-0.003 0.013,-0.004 0.021,-0.004 0.011,0 0.021,0.003 0.03,0.009 0.009,0.007 0.016,0.015 0.019,0.026 H 0.985 c -0.005,0 -0.009,0.002 -0.013,0.005 -0.003,0.003 -0.005,0.008 -0.005,0.012 z"
         style="fill:#e5e5e5;fill-rule:nonzero"
         id="path16804" /></g></g></svg>
