<?xml version="1.0" encoding="UTF-8" standalone="no"?>
<svg
   width="16.844999"
   height="16.035"
   viewBox="0 0 16.844999 16.035"
   version="1.1"
   xml:space="preserve"
   style="clip-rule:evenodd;fill-rule:evenodd;stroke-linejoin:round;stroke-miterlimit:2"
   id="svg20568"
   sodipodi:docname="emojis.svg"
   xmlns:inkscape="http://www.inkscape.org/namespaces/inkscape"
   xmlns:sodipodi="http://sodipodi.sourceforge.net/DTD/sodipodi-0.dtd"
   xmlns="http://www.w3.org/2000/svg"
   xmlns:svg="http://www.w3.org/2000/svg"><defs
     id="defs20572" /><sodipodi:namedview
     id="namedview20570"
     pagecolor="#505050"
     bordercolor="#eeeeee"
     borderopacity="1"
     inkscape:pageshadow="0"
     inkscape:pageopacity="0"
     inkscape:pagecheckerboard="0" /><g
     transform="matrix(0.24,0,0,0.24,-730.9134,-817.5636)"
     id="g20566"><g
       transform="matrix(62.5,0,0,62.5,3037.66,3462.39)"
       id="g16964"><path
         d="m 0.687,-0.807 0.561,0.281 V -0.07 L 0.757,0.175 0.125,-0.141 v -0.456 l 0.07,-0.035 V -0.667 L 0.408,-0.773 C 0.411,-0.786 0.417,-0.797 0.425,-0.807 0.433,-0.818 0.443,-0.826 0.454,-0.832 L 0.56,-0.884 c 0.012,-0.006 0.025,-0.01 0.039,-0.01 0.012,0 0.023,0.003 0.034,0.007 0.01,0.005 0.019,0.011 0.027,0.019 0.008,0.008 0.014,0.017 0.019,0.027 0.005,0.011 0.007,0.022 0.008,0.034 z"
         style="fill-rule:nonzero"
         id="path16934" /><path
         d="M 0.757,-0.563 0.998,-0.248 0.757,0.105 0.195,-0.176 v -0.386 h 0.562 z"
         style="fill:#1f1f1f;fill-rule:nonzero"
         id="path16936" /><path
         d="m 0.757,-0.492 h 0.421 v 0.387 l -0.421,0.21 z"
         style="fill:#383838;fill-rule:nonzero"
         id="path16938" /><path
         d="m 0.195,-0.562 0.421,-0.21 0.562,0.281 -0.421,0.21 z"
         style="fill:#757575;fill-rule:nonzero"
         id="path16940" /><path
         d="m 0.616,-0.737 0.491,0.246 -0.069,0.034 H 0.763 L 0.511,-0.676 Z"
         style="fill:#383838;fill-rule:nonzero"
         id="path16942" /><path
         d="m 0.897,-0.035 v -0.141 l 0.21,-0.105 v 0.14 z"
         style="fill:#cccccc;fill-rule:nonzero"
         id="path16944" /><path
         d="m 0.932,-0.154 0.141,-0.07 v 0.062 l -0.141,0.07 z"
         style="fill:#f2f2f2;fill-rule:nonzero"
         id="path16946" /><path
         d="m 0.476,-0.702 v -0.059 c 0,-0.004 0.001,-0.007 0.003,-0.01 0.001,-0.002 0.004,-0.004 0.007,-0.006 0.002,-0.001 0.006,-0.003 0.012,-0.007 0.006,-0.003 0.013,-0.007 0.021,-0.011 0.007,-0.004 0.016,-0.008 0.025,-0.012 0.009,-0.004 0.017,-0.008 0.025,-0.012 0.007,-0.004 0.014,-0.007 0.019,-0.009 0.006,-0.002 0.009,-0.004 0.011,-0.004 0.007,0 0.012,0.003 0.014,0.008 0.002,0.005 0.003,0.011 0.003,0.017 l -0.029,0.055 z"
         style="fill:#fce100;fill-rule:nonzero"
         id="path16948" /><path
         d="m 0.265,-0.562 v -0.07 l 0.351,-0.175 v 0.276 l -0.21,0.04 z"
         style="fill:#eba300;fill-rule:nonzero"
         id="path16950" /><path
         d="m 0.546,-0.597 v -0.059 c 0,-0.004 0.001,-0.007 0.002,-0.01 0.002,-0.002 0.004,-0.004 0.008,-0.006 0.002,-0.001 0.006,-0.003 0.012,-0.007 0.006,-0.003 0.013,-0.007 0.021,-0.011 0.008,-0.004 0.016,-0.008 0.025,-0.012 0.009,-0.005 0.017,-0.009 0.024,-0.012 0.008,-0.004 0.015,-0.007 0.02,-0.009 0.006,-0.002 0.01,-0.004 0.011,-0.004 0.005,0 0.009,0.002 0.012,0.006 0.004,0.003 0.006,0.008 0.006,0.013 v 0.041 z"
         style="fill:#16c60c;fill-rule:nonzero"
         id="path16952" /><path
         d="m 0.406,-0.491 v -0.071 l 0.351,-0.175 v 0.292 l -0.211,0.024 z"
         style="fill:#ffb900;fill-rule:nonzero"
         id="path16954" /><path
         d="m 0.616,-0.491 v -0.06 c 0,-0.004 0.001,-0.007 0.003,-0.009 0.001,-0.002 0.004,-0.004 0.007,-0.006 0.002,-0.002 0.006,-0.004 0.012,-0.007 0.006,-0.003 0.013,-0.007 0.021,-0.011 0.008,-0.004 0.016,-0.009 0.025,-0.013 0.009,-0.004 0.017,-0.008 0.025,-0.012 0.007,-0.003 0.014,-0.006 0.02,-0.009 0.005,-0.002 0.009,-0.003 0.01,-0.003 0.005,0 0.009,0.002 0.013,0.005 0.003,0.003 0.005,0.008 0.005,0.012 v 0.042 z"
         style="fill:#0078d7;fill-rule:nonzero"
         id="path16956" /><path
         d="m 0.546,-0.421 v -0.07 l 0.351,-0.176 v 0.21 l -0.21,0.106 z"
         style="fill:#ffc83d;fill-rule:nonzero"
         id="path16958" /><path
         d="M 0.739,-0.38 0.687,-0.421 v -0.024 c 0,-0.007 0.003,-0.012 0.009,-0.016 0.002,-0.002 0.006,-0.004 0.012,-0.007 0.006,-0.004 0.013,-0.007 0.021,-0.011 0.007,-0.004 0.016,-0.008 0.024,-0.012 0.009,-0.005 0.018,-0.009 0.025,-0.012 0.008,-0.004 0.015,-0.007 0.021,-0.009 0.005,-0.002 0.009,-0.004 0.01,-0.004 0.005,0 0.009,0.002 0.013,0.006 0.003,0.003 0.005,0.007 0.005,0.012 v 0.041 z"
         style="fill:#f03a17;fill-rule:nonzero"
         id="path16960" /><path
         d="m 0.687,-0.351 v -0.07 l 0.351,-0.176 v 0.14 l -0.281,0.141 z"
         style="fill:#ffd679;fill-rule:nonzero"
         id="path16962" /></g></g></svg>
