<?xml version="1.0" encoding="UTF-8" standalone="no"?>
<svg
   width="15.795"
   height="16.844999"
   viewBox="0 0 15.795 16.844999"
   version="1.1"
   xml:space="preserve"
   style="clip-rule:evenodd;fill-rule:evenodd;stroke-linejoin:round;stroke-miterlimit:2"
   id="svg20568"
   sodipodi:docname="emojis.svg"
   xmlns:inkscape="http://www.inkscape.org/namespaces/inkscape"
   xmlns:sodipodi="http://sodipodi.sourceforge.net/DTD/sodipodi-0.dtd"
   xmlns="http://www.w3.org/2000/svg"
   xmlns:svg="http://www.w3.org/2000/svg"><defs
     id="defs20572" /><sodipodi:namedview
     id="namedview20570"
     pagecolor="#505050"
     bordercolor="#eeeeee"
     borderopacity="1"
     inkscape:pageshadow="0"
     inkscape:pageopacity="0"
     inkscape:pagecheckerboard="0" /><g
     transform="matrix(0.24,0,0,0.24,-710.8374,-817.2786)"
     id="g20566"><g
       transform="matrix(62.5,0,0,62.5,2954.01,3462.39)"
       id="g16932"><path
         d="M 1.143,0.008 V 0.166 C 1.143,0.172 1.141,0.178 1.139,0.183 1.137,0.189 1.134,0.193 1.13,0.198 1.126,0.202 1.121,0.205 1.115,0.207 1.11,0.209 1.104,0.21 1.098,0.21 1.092,0.21 1.086,0.209 1.08,0.207 1.075,0.205 1.07,0.201 1.065,0.197 L 0.651,-0.217 0.237,0.197 C 0.233,0.201 0.228,0.205 0.222,0.207 0.217,0.209 0.211,0.21 0.205,0.21 0.199,0.21 0.193,0.209 0.187,0.207 0.182,0.205 0.177,0.202 0.173,0.198 0.169,0.193 0.166,0.189 0.164,0.183 0.161,0.178 0.16,0.172 0.16,0.166 V 0.008 c 0,-0.023 0.005,-0.046 0.013,-0.067 0.009,-0.021 0.022,-0.04 0.038,-0.057 l 0.271,-0.27 -0.045,-0.045 c -0.021,0.007 -0.044,0.01 -0.067,0.01 -0.027,0 -0.053,-0.006 -0.079,-0.016 C 0.265,-0.447 0.241,-0.461 0.219,-0.479 0.197,-0.497 0.178,-0.517 0.162,-0.54 0.147,-0.564 0.136,-0.588 0.13,-0.614 0.128,-0.623 0.127,-0.631 0.126,-0.64 0.125,-0.649 0.125,-0.658 0.125,-0.667 c 0,-0.034 0.006,-0.066 0.019,-0.095 0.013,-0.03 0.031,-0.056 0.053,-0.079 0.022,-0.022 0.048,-0.039 0.078,-0.052 0.03,-0.013 0.062,-0.02 0.096,-0.02 0.033,0 0.065,0.007 0.095,0.02 0.03,0.013 0.056,0.03 0.078,0.052 0.022,0.023 0.04,0.049 0.053,0.079 0.013,0.03 0.019,0.062 0.019,0.095 0,0.023 -0.003,0.045 -0.009,0.067 L 0.651,-0.556 0.696,-0.6 C 0.69,-0.622 0.687,-0.644 0.687,-0.667 c 0,-0.034 0.006,-0.066 0.019,-0.096 0.013,-0.03 0.03,-0.056 0.053,-0.078 0.022,-0.022 0.048,-0.039 0.078,-0.052 0.029,-0.013 0.061,-0.02 0.095,-0.02 0.034,0 0.066,0.007 0.096,0.02 0.029,0.013 0.055,0.03 0.078,0.052 0.022,0.023 0.04,0.049 0.052,0.079 0.013,0.029 0.02,0.061 0.02,0.095 0,0.009 -10e-4,0.018 -10e-4,0.027 -0.001,0.009 -0.003,0.017 -0.005,0.026 -0.005,0.026 -0.016,0.051 -0.032,0.074 -0.015,0.023 -0.034,0.044 -0.056,0.061 -0.022,0.018 -0.046,0.032 -0.072,0.042 -0.026,0.01 -0.053,0.016 -0.079,0.016 -0.024,0 -0.046,-0.003 -0.068,-0.01 l -0.044,0.045 0.27,0.27 c 0.017,0.017 0.03,0.036 0.038,0.057 0.009,0.021 0.014,0.044 0.014,0.067 z"
         style="fill-rule:nonzero"
         id="path16920" /><path
         d="M 0.779,-0.518 0.792,-0.457 0.651,-0.316 0.622,-0.31 0.616,-0.281 0.23,0.105 V 0.008 c 0,-0.029 0.011,-0.053 0.031,-0.074 l 0.285,-0.285 h 0.035 v -0.035 l 0.141,-0.14 z"
         style="fill:#cccccc;fill-rule:nonzero"
         id="path16922" /><path
         d="m 0.674,-0.339 -0.058,0.058 -0.07,-0.07 0.058,-0.058 z"
         style="fill:#757575;fill-rule:nonzero"
         id="path16924" /><path
         d="m 0.581,-0.526 0.461,0.46 c 0.01,0.01 0.017,0.021 0.023,0.034 0.005,0.013 0.008,0.026 0.008,0.04 v 0.097 l -0.562,-0.562 0.01,-0.065 z"
         style="fill:#e5e5e5;fill-rule:nonzero"
         id="path16926" /><path
         d="m 0.651,-0.351 c -0.009,0 -0.018,-0.003 -0.025,-0.01 -0.006,-0.007 -0.01,-0.015 -0.01,-0.025 0,-0.01 0.004,-0.018 0.01,-0.025 0.007,-0.007 0.016,-0.01 0.025,-0.01 0.01,0 0.018,0.003 0.025,0.01 0.007,0.007 0.011,0.015 0.011,0.025 0,0.01 -0.004,0.018 -0.011,0.025 -0.007,0.007 -0.015,0.01 -0.025,0.01 z"
         style="fill:#a6a6a6;fill-rule:nonzero"
         id="path16928" /><path
         d="m 0.932,-0.842 c 0.024,0 0.047,0.004 0.068,0.014 0.022,0.009 0.04,0.021 0.056,0.037 0.016,0.016 0.028,0.035 0.038,0.056 0.009,0.021 0.013,0.044 0.013,0.068 0,0.024 -0.004,0.047 -0.013,0.068 -0.009,0.022 -0.022,0.04 -0.038,0.056 C 1.04,-0.527 1.022,-0.514 1,-0.505 0.979,-0.496 0.957,-0.492 0.932,-0.492 0.917,-0.492 0.903,-0.493 0.889,-0.497 0.874,-0.5 0.861,-0.506 0.848,-0.513 L 0.792,-0.457 0.722,-0.526 0.778,-0.583 C 0.764,-0.609 0.757,-0.637 0.757,-0.667 c 0,-0.024 0.004,-0.047 0.014,-0.068 0.009,-0.021 0.021,-0.04 0.037,-0.056 0.016,-0.016 0.035,-0.028 0.056,-0.037 0.021,-0.01 0.044,-0.014 0.068,-0.014 z M 0.581,-0.526 0.511,-0.457 0.455,-0.513 C 0.442,-0.506 0.428,-0.5 0.414,-0.497 0.4,-0.493 0.385,-0.492 0.371,-0.492 0.347,-0.492 0.324,-0.496 0.302,-0.505 0.281,-0.514 0.263,-0.527 0.247,-0.543 0.231,-0.559 0.218,-0.578 0.209,-0.599 0.2,-0.62 0.195,-0.643 0.195,-0.667 c 0,-0.024 0.005,-0.047 0.014,-0.068 0.009,-0.021 0.022,-0.04 0.038,-0.056 0.016,-0.016 0.034,-0.028 0.055,-0.037 0.022,-0.01 0.045,-0.014 0.069,-0.014 0.024,0 0.046,0.004 0.068,0.014 0.021,0.009 0.04,0.021 0.055,0.037 0.016,0.016 0.029,0.035 0.038,0.056 0.009,0.021 0.014,0.044 0.014,0.068 0,0.015 -0.002,0.029 -0.005,0.043 -0.004,0.015 -0.009,0.028 -0.016,0.041 z M 0.265,-0.667 c 0,0.015 0.003,0.028 0.008,0.041 0.006,0.013 0.014,0.024 0.023,0.033 0.01,0.01 0.021,0.018 0.034,0.023 0.012,0.006 0.026,0.008 0.041,0.008 0.014,0 0.028,-0.002 0.041,-0.008 0.012,-0.005 0.023,-0.013 0.033,-0.023 0.01,-0.009 0.017,-0.02 0.023,-0.033 0.005,-0.013 0.008,-0.026 0.008,-0.041 0,-0.015 -0.003,-0.028 -0.008,-0.041 C 0.462,-0.721 0.455,-0.732 0.445,-0.741 0.435,-0.751 0.424,-0.758 0.412,-0.764 0.399,-0.769 0.385,-0.772 0.371,-0.772 c -0.015,0 -0.029,0.003 -0.041,0.008 -0.013,0.006 -0.024,0.013 -0.034,0.023 -0.009,0.009 -0.017,0.02 -0.023,0.033 -0.005,0.013 -0.008,0.026 -0.008,0.041 z m 0.667,0.105 c 0.015,0 0.028,-0.002 0.041,-0.008 0.013,-0.005 0.024,-0.013 0.034,-0.023 0.009,-0.009 0.017,-0.02 0.022,-0.033 0.006,-0.013 0.009,-0.026 0.009,-0.041 0,-0.015 -0.003,-0.028 -0.009,-0.041 C 1.024,-0.721 1.016,-0.732 1.007,-0.741 0.997,-0.751 0.986,-0.758 0.973,-0.764 0.96,-0.769 0.947,-0.772 0.932,-0.772 c -0.015,0 -0.028,0.003 -0.041,0.008 -0.013,0.006 -0.024,0.013 -0.033,0.023 -0.01,0.009 -0.018,0.02 -0.023,0.033 -0.006,0.013 -0.008,0.026 -0.008,0.041 0,0.015 0.002,0.028 0.008,0.041 0.005,0.013 0.013,0.024 0.023,0.033 0.009,0.01 0.02,0.018 0.033,0.023 0.013,0.006 0.026,0.008 0.041,0.008 z"
         style="fill:#f03a17;fill-rule:nonzero"
         id="path16930" /></g></g></svg>
