<?xml version="1.0" encoding="UTF-8" standalone="no"?>
<svg
   width="16.844999"
   height="14.205"
   viewBox="0 0 16.844999 14.205"
   version="1.1"
   xml:space="preserve"
   style="clip-rule:evenodd;fill-rule:evenodd;stroke-linejoin:round;stroke-miterlimit:2"
   id="svg20568"
   sodipodi:docname="emojis.svg"
   xmlns:inkscape="http://www.inkscape.org/namespaces/inkscape"
   xmlns:sodipodi="http://sodipodi.sourceforge.net/DTD/sodipodi-0.dtd"
   xmlns="http://www.w3.org/2000/svg"
   xmlns:svg="http://www.w3.org/2000/svg"><defs
     id="defs20572" /><sodipodi:namedview
     id="namedview20570"
     pagecolor="#505050"
     bordercolor="#eeeeee"
     borderopacity="1"
     inkscape:pageshadow="0"
     inkscape:pageopacity="0"
     inkscape:pagecheckerboard="0" /><g
     transform="matrix(0.24,0,0,0.24,-650.0982,-818.3436)"
     id="g20566"><g
       transform="matrix(62.5,0,0,62.5,2700.93,3462.39)"
       id="g16902"><path
         d="M 0.265,0.105 V 0.034 C 0.245,0.032 0.227,0.026 0.21,0.017 0.193,0.008 0.178,-0.004 0.165,-0.018 0.153,-0.032 0.143,-0.048 0.136,-0.066 0.129,-0.084 0.125,-0.103 0.125,-0.123 c 0,-0.022 0.004,-0.042 0.012,-0.061 0.009,-0.019 0.02,-0.036 0.034,-0.05 0.015,-0.015 0.031,-0.026 0.05,-0.034 0.019,-0.009 0.04,-0.013 0.062,-0.013 h 0.158 v -0.263 c 0,-0.019 0.003,-0.038 0.008,-0.057 0.006,-0.018 0.014,-0.035 0.025,-0.05 C 0.484,-0.667 0.497,-0.68 0.512,-0.693 0.526,-0.705 0.543,-0.715 0.561,-0.722 0.568,-0.74 0.578,-0.756 0.59,-0.771 0.602,-0.786 0.616,-0.799 0.632,-0.809 0.647,-0.82 0.664,-0.828 0.683,-0.834 0.701,-0.839 0.72,-0.842 0.739,-0.842 H 1.09 c 0.022,0 0.043,0.004 0.062,0.012 0.019,0.008 0.035,0.02 0.05,0.034 0.014,0.014 0.025,0.031 0.034,0.05 0.008,0.019 0.012,0.04 0.012,0.061 0,0.021 -0.004,0.04 -0.011,0.058 C 1.23,-0.61 1.22,-0.594 1.208,-0.579 1.195,-0.565 1.18,-0.554 1.163,-0.544 1.146,-0.535 1.127,-0.53 1.107,-0.527 v 0.07 h -0.28 v 0.369 c 0,0.027 -0.005,0.052 -0.015,0.075 C 0.801,0.011 0.788,0.031 0.77,0.049 0.753,0.066 0.732,0.08 0.709,0.09 0.686,0.1 0.66,0.105 0.634,0.105 Z"
         style="fill-rule:nonzero"
         id="path16896" /><path
         d="m 0.745,-0.181 -0.003,0.036 c 0.005,0.009 0.008,0.018 0.011,0.028 0.003,0.009 0.004,0.019 0.004,0.029 0,0.017 -0.003,0.033 -0.01,0.048 C 0.741,-0.025 0.732,-0.012 0.721,-0.001 0.71,0.01 0.697,0.019 0.682,0.025 0.667,0.032 0.651,0.035 0.634,0.035 H 0.335 V 0 H 0.634 C 0.646,0 0.657,-0.002 0.668,-0.007 0.679,-0.011 0.688,-0.018 0.696,-0.026 0.704,-0.034 0.71,-0.043 0.715,-0.053 0.719,-0.064 0.722,-0.076 0.722,-0.088 0.722,-0.093 0.721,-0.099 0.72,-0.104 0.719,-0.109 0.717,-0.114 0.716,-0.119 L 0.688,-0.121 0.685,-0.127 0.697,-0.148 C 0.686,-0.159 0.677,-0.165 0.667,-0.168 0.658,-0.172 0.65,-0.174 0.642,-0.174 0.633,-0.175 0.626,-0.175 0.619,-0.175 c -0.007,0 -0.014,-0.002 -0.02,-0.006 -0.004,0.003 -0.01,0.005 -0.016,0.005 h -0.3 c -0.007,0 -0.014,0.002 -0.021,0.004 -0.006,0.003 -0.011,0.007 -0.016,0.012 -0.005,0.005 -0.009,0.01 -0.011,0.017 -0.003,0.006 -0.005,0.013 -0.005,0.02 0,0.007 0.002,0.014 0.005,0.02 0.002,0.007 0.006,0.012 0.011,0.017 0.005,0.005 0.01,0.009 0.016,0.012 0.007,0.002 0.014,0.004 0.021,0.004 h 0.28 c 0.005,0 0.01,-0.002 0.013,-0.005 C 0.579,-0.079 0.581,-0.083 0.581,-0.088 0.581,-0.093 0.579,-0.097 0.576,-0.1 0.573,-0.104 0.568,-0.105 0.563,-0.105 H 0.335 v -0.036 h 0.228 c 0.008,0 0.014,0.002 0.021,0.005 0.006,0.002 0.012,0.006 0.017,0.011 0.004,0.005 0.008,0.01 0.011,0.017 0.003,0.006 0.004,0.013 0.004,0.02 0,0.008 -0.001,0.015 -0.004,0.021 -0.003,0.006 -0.006,0.012 -0.011,0.016 -0.005,0.005 -0.011,0.009 -0.017,0.012 -0.007,0.002 -0.013,0.004 -0.021,0.004 H 0.283 C 0.271,-0.035 0.259,-0.037 0.249,-0.042 0.238,-0.047 0.229,-0.053 0.221,-0.061 0.213,-0.069 0.207,-0.078 0.202,-0.089 0.198,-0.1 0.195,-0.111 0.195,-0.123 c 0,-0.012 0.003,-0.023 0.007,-0.034 0.005,-0.011 0.011,-0.02 0.019,-0.028 0.008,-0.008 0.017,-0.014 0.028,-0.019 0.01,-0.004 0.022,-0.006 0.034,-0.006 h 0.298 c 0.003,0 0.006,0 0.009,0.001 0.003,0 0.006,0.001 0.009,0.001 0.003,0 0.006,-0.001 0.009,-0.001 0.002,-0.001 0.005,-0.001 0.008,-0.001 0.01,0 0.02,0 0.029,0.001 0.009,0.001 0.018,0.002 0.026,0.005 0.008,0.002 0.016,0.006 0.024,0.01 0.008,0.004 0.016,0.01 0.024,0.018 L 0.738,-0.188 Z M 1.09,-0.772 c 0.012,0 0.024,0.002 0.034,0.007 0.011,0.004 0.02,0.011 0.028,0.019 0.008,0.008 0.014,0.017 0.019,0.027 0.004,0.011 0.007,0.022 0.007,0.034 0,0.012 -0.003,0.024 -0.007,0.035 -0.005,0.01 -0.011,0.02 -0.019,0.028 -0.008,0.008 -0.017,0.014 -0.028,0.018 -0.01,0.005 -0.022,0.007 -0.034,0.007 H 0.81 C 0.802,-0.597 0.795,-0.598 0.789,-0.601 0.782,-0.604 0.777,-0.607 0.772,-0.612 0.767,-0.617 0.764,-0.622 0.761,-0.629 0.758,-0.635 0.757,-0.642 0.757,-0.649 c 0,-0.008 0.001,-0.014 0.004,-0.021 0.003,-0.006 0.007,-0.012 0.011,-0.017 0.005,-0.004 0.011,-0.008 0.017,-0.011 0.007,-0.003 0.013,-0.004 0.021,-0.004 h 0.228 v 0.035 H 0.81 c -0.005,0 -0.009,0.002 -0.013,0.005 -0.003,0.004 -0.005,0.008 -0.005,0.013 0,0.004 0.002,0.009 0.005,0.012 0.004,0.003 0.008,0.005 0.013,0.005 h 0.28 c 0.007,0 0.014,-0.001 0.021,-0.004 0.006,-0.003 0.012,-0.007 0.016,-0.011 0.005,-0.005 0.009,-0.011 0.011,-0.017 0.003,-0.007 0.005,-0.013 0.005,-0.021 0,-0.007 -0.002,-0.013 -0.005,-0.02 C 1.136,-0.711 1.132,-0.717 1.127,-0.722 1.122,-0.727 1.117,-0.73 1.111,-0.733 1.104,-0.736 1.097,-0.737 1.09,-0.737 H 0.739 c -0.01,0 -0.021,0.001 -0.03,0.005 -0.01,0.004 -0.018,0.009 -0.026,0.015 -0.008,0.006 -0.014,0.014 -0.019,0.023 -0.006,0.009 -0.009,0.019 -0.011,0.029 l 0.019,0.019 v 0.003 l -0.018,0.014 c 0.004,0.017 0.012,0.031 0.023,0.042 0.011,0.01 0.025,0.018 0.042,0.023 0.008,0.002 0.015,0.005 0.02,0.008 0.003,-0.001 0.005,-0.003 0.008,-0.004 0.003,-0.001 0.005,-0.002 0.008,-0.002 h 0.283 v 0.036 H 0.757 C 0.753,-0.526 0.75,-0.527 0.747,-0.529 0.743,-0.53 0.74,-0.532 0.738,-0.534 L 0.722,-0.528 C 0.708,-0.53 0.696,-0.534 0.684,-0.54 0.673,-0.546 0.662,-0.553 0.653,-0.562 0.644,-0.571 0.636,-0.581 0.63,-0.593 0.624,-0.605 0.62,-0.617 0.618,-0.63 L 0.596,-0.638 c 0,-0.004 0.001,-0.008 0.003,-0.012 l 0.019,-0.016 c 0.002,-0.015 0.006,-0.028 0.013,-0.042 0.008,-0.013 0.017,-0.024 0.027,-0.033 0.011,-0.01 0.024,-0.018 0.038,-0.023 0.013,-0.005 0.028,-0.008 0.043,-0.008 z"
         style="fill:#e5e5e5;fill-rule:nonzero"
         id="path16898" /><path
         d="m 0.616,-0.649 c 0,0.007 0.001,0.013 0.002,0.019 -0.01,0.002 -0.02,0.005 -0.029,0.01 -0.009,0.006 -0.016,0.012 -0.023,0.02 -0.006,0.007 -0.011,0.016 -0.015,0.026 -0.003,0.009 -0.005,0.019 -0.005,0.03 v 0.298 H 0.511 v -0.298 c 0,-0.015 0.003,-0.03 0.008,-0.044 0.006,-0.013 0.013,-0.026 0.023,-0.037 0.009,-0.011 0.021,-0.02 0.033,-0.027 0.013,-0.007 0.027,-0.012 0.043,-0.014 -0.001,0.003 -0.001,0.006 -0.001,0.009 -0.001,0.002 -0.001,0.005 -0.001,0.008 z m 0.037,-0.016 c 0.014,0.002 0.028,0.007 0.041,0.014 0.013,0.008 0.024,0.017 0.033,0.028 0.009,0.011 0.016,0.023 0.022,0.036 0.005,0.014 0.008,0.028 0.008,0.043 v 0.351 c 0,0.017 -0.005,0.033 -0.015,0.048 -0.005,-0.011 -0.013,-0.022 -0.023,-0.031 0,-0.003 0.001,-0.006 0.002,-0.009 0,-0.003 0.001,-0.005 0.001,-0.008 v -0.351 c 0,-0.01 -0.002,-0.02 -0.005,-0.029 C 0.713,-0.582 0.708,-0.591 0.702,-0.598 0.696,-0.606 0.689,-0.612 0.681,-0.618 0.673,-0.623 0.664,-0.627 0.654,-0.629 0.652,-0.637 0.651,-0.643 0.651,-0.649 c 0,-0.005 0.001,-0.011 0.002,-0.016 z m 0.016,0.524 c 0.01,0 0.02,-0.002 0.028,-0.007 0.004,0.004 0.008,0.008 0.011,0.013 0.003,0.005 0.006,0.01 0.008,0.016 -0.015,0.009 -0.03,0.014 -0.047,0.014 -0.012,0 -0.024,-0.003 -0.034,-0.007 C 0.624,-0.117 0.615,-0.123 0.607,-0.131 0.599,-0.139 0.592,-0.148 0.588,-0.159 0.583,-0.17 0.581,-0.181 0.581,-0.193 v -0.281 c 0,-0.007 0.001,-0.014 0.004,-0.02 0.003,-0.007 0.007,-0.012 0.012,-0.017 0.005,-0.005 0.01,-0.008 0.017,-0.011 0.006,-0.003 0.013,-0.004 0.02,-0.004 0.007,0 0.014,0.001 0.02,0.004 0.006,0.003 0.012,0.006 0.017,0.011 0.005,0.005 0.009,0.01 0.011,0.017 0.003,0.006 0.005,0.013 0.005,0.02 v 0.228 H 0.651 V -0.474 C 0.651,-0.479 0.65,-0.483 0.646,-0.486 0.642,-0.49 0.638,-0.491 0.634,-0.491 c -0.005,0 -0.009,0.001 -0.012,0.005 -0.004,0.003 -0.006,0.007 -0.006,0.012 v 0.281 c 0,0.007 0.002,0.014 0.004,0.02 0.003,0.006 0.007,0.012 0.012,0.017 0.005,0.005 0.01,0.008 0.017,0.011 0.006,0.003 0.013,0.004 0.02,0.004 z"
         style="fill:#cccccc;fill-rule:nonzero"
         id="path16900" /></g></g></svg>
