<?xml version="1.0" encoding="UTF-8" standalone="no"?>
<svg
   width="16.844999"
   height="14.64"
   viewBox="0 0 16.844999 14.64"
   version="1.1"
   xml:space="preserve"
   style="clip-rule:evenodd;fill-rule:evenodd;stroke-linejoin:round;stroke-miterlimit:2"
   id="svg20568"
   sodipodi:docname="emojis.svg"
   xmlns:inkscape="http://www.inkscape.org/namespaces/inkscape"
   xmlns:sodipodi="http://sodipodi.sourceforge.net/DTD/sodipodi-0.dtd"
   xmlns="http://www.w3.org/2000/svg"
   xmlns:svg="http://www.w3.org/2000/svg"><defs
     id="defs20572" /><sodipodi:namedview
     id="namedview20570"
     pagecolor="#505050"
     bordercolor="#eeeeee"
     borderopacity="1"
     inkscape:pageshadow="0"
     inkscape:pageopacity="0"
     inkscape:pagecheckerboard="0" /><g
     transform="matrix(0.24,0,0,0.24,-676.2678,-129.89424)"
     id="g20566"><g
       transform="matrix(62.5,0,0,62.5,2809.97,589.101)"
       id="g1690"><path
         d="M 1.061,-0.281 H 1.248 V 0.21 H 0.213 C 0.201,0.21 0.189,0.208 0.178,0.204 0.168,0.199 0.159,0.193 0.151,0.185 0.143,0.177 0.136,0.168 0.132,0.157 0.127,0.146 0.125,0.135 0.125,0.123 0.125,0.107 0.128,0.094 0.135,0.083 0.141,0.072 0.15,0.062 0.16,0.051 V 0.006 L 0.223,-0.057 C 0.214,-0.069 0.207,-0.082 0.202,-0.096 0.198,-0.111 0.195,-0.125 0.195,-0.141 c 0,-0.018 0.004,-0.036 0.011,-0.053 0.007,-0.017 0.017,-0.032 0.03,-0.046 l 0.211,-0.21 c 0.013,-0.014 0.028,-0.024 0.045,-0.031 0.018,-0.007 0.035,-0.01 0.054,-0.01 h 0.111 l 0.275,-0.275 0.17,0.169 -0.179,0.179 z"
         style="fill-rule:nonzero"
         id="path1676" /><path
         d="m 0.271,0.04 0.024,0.025 -0.07,0.07 C 0.222,0.139 0.217,0.141 0.212,0.141 0.208,0.141 0.204,0.139 0.2,0.135 0.197,0.132 0.195,0.128 0.195,0.123 0.195,0.118 0.197,0.114 0.2,0.11 Z"
         style="fill:#757575;fill-rule:nonzero"
         id="path1678" /><path
         d="m 1.002,-0.597 -0.07,0.071 -0.043,-0.031 -0.027,-0.04 0.07,-0.07 z"
         style="fill:#cccccc;fill-rule:nonzero"
         id="path1680" /><path
         d="m 0.687,-0.21 c 0.009,0 0.017,0.003 0.024,0.01 0.007,0.007 0.011,0.015 0.011,0.024 v 0.035 c 0,0.02 -0.004,0.038 -0.011,0.055 -0.008,0.017 -0.018,0.032 -0.03,0.045 -0.013,0.013 -0.028,0.023 -0.045,0.03 C 0.619,-0.004 0.601,0 0.581,0 H 0.406 l 0.14,-0.21 z"
         style="fill:#d48c00;fill-rule:nonzero"
         id="path1682" /><path
         d="M 1.087,-0.155 H 0.449 L 0.385,-0.091 C 0.379,-0.084 0.371,-0.079 0.363,-0.076 0.354,-0.072 0.345,-0.07 0.335,-0.07 0.326,-0.07 0.317,-0.072 0.308,-0.076 0.3,-0.079 0.292,-0.084 0.286,-0.091 0.28,-0.097 0.274,-0.104 0.271,-0.113 0.267,-0.121 0.265,-0.13 0.265,-0.14 c 0,-0.01 0.002,-0.019 0.006,-0.027 0.003,-0.009 0.009,-0.016 0.015,-0.023 l 0.211,-0.211 c 0.013,-0.014 0.03,-0.02 0.049,-0.02 h 0.246 c 0.019,0 0.036,0.006 0.049,0.02 z"
         style="fill:#ffc83d;fill-rule:nonzero"
         id="path1684" /><path
         d="M 0.862,-0.597 0.932,-0.526 0.3,0.105 H 0.23 v -0.07 z"
         style="fill:#f03a17;fill-rule:nonzero"
         id="path1686" /><path
         d="m 0.897,-0.246 c 0.004,0 0.01,0.002 0.02,0.005 0.009,0.004 0.018,0.007 0.029,0.012 0.011,0.004 0.021,0.008 0.031,0.011 0.011,0.004 0.019,0.006 0.025,0.007 0.003,0 0.006,0.001 0.008,0.001 0.002,0 0.005,0 0.008,0 h 0.02 0.14 V 0.14 H 0.406 C 0.396,0.14 0.387,0.138 0.378,0.135 0.37,0.131 0.363,0.126 0.356,0.12 0.35,0.114 0.345,0.106 0.341,0.098 0.337,0.089 0.335,0.08 0.335,0.07 0.335,0.061 0.337,0.051 0.341,0.043 0.345,0.035 0.35,0.027 0.356,0.021 0.363,0.014 0.37,0.009 0.378,0.006 0.387,0.002 0.396,0 0.406,0 h 0.14 c 0.02,0 0.038,-0.004 0.055,-0.011 0.017,-0.007 0.032,-0.017 0.045,-0.03 0.012,-0.013 0.022,-0.028 0.029,-0.045 0.007,-0.017 0.011,-0.035 0.012,-0.055 v -0.02 c 0,-0.006 0,-0.012 -0.001,-0.018 C 0.685,-0.185 0.683,-0.19 0.681,-0.195 0.678,-0.199 0.675,-0.203 0.67,-0.206 0.666,-0.209 0.66,-0.21 0.652,-0.21 L 0.666,-0.241 C 0.704,-0.242 0.743,-0.243 0.781,-0.244 0.82,-0.245 0.858,-0.246 0.897,-0.246 Z"
         style="fill:#ffc83d;fill-rule:nonzero"
         id="path1688" /></g></g></svg>
