<?xml version="1.0" encoding="UTF-8" standalone="no"?>
<svg
   width="16.665001"
   height="16.68"
   viewBox="0 0 16.665001 16.68"
   version="1.1"
   xml:space="preserve"
   style="clip-rule:evenodd;fill-rule:evenodd;stroke-linejoin:round;stroke-miterlimit:2"
   id="svg20568"
   sodipodi:docname="emojis.svg"
   xmlns:inkscape="http://www.inkscape.org/namespaces/inkscape"
   xmlns:sodipodi="http://sodipodi.sourceforge.net/DTD/sodipodi-0.dtd"
   xmlns="http://www.w3.org/2000/svg"
   xmlns:svg="http://www.w3.org/2000/svg"><defs
     id="defs20572" /><sodipodi:namedview
     id="namedview20570"
     pagecolor="#505050"
     bordercolor="#eeeeee"
     borderopacity="1"
     inkscape:pageshadow="0"
     inkscape:pageopacity="0"
     inkscape:pagecheckerboard="0" /><g
     transform="matrix(0.24,0,0,0.24,-670.785,-817.3686)"
     id="g20566"><g
       transform="matrix(62.5,0,0,62.5,2786.75,3462.39)"
       id="g16910"><path
         d="m 0.131,-0.667 0.24,-0.24 0.871,0.872 -0.24,0.24 z"
         style="fill-rule:nonzero"
         id="path16904" /><path
         d="m 1.143,-0.035 -0.141,0.14 -0.772,-0.772 0.141,-0.14 0.023,0.022 -0.007,0.033 0.031,-0.008 0.045,0.046 -0.008,0.033 0.033,-0.008 0.046,0.045 -0.009,0.031 0.034,-0.007 0.045,0.046 -0.012,0.036 0.036,-0.011 0.046,0.045 -0.009,0.032 0.034,-0.007 0.045,0.045 -0.012,0.037 0.037,-0.012 0.045,0.046 -0.007,0.032 0.032,-0.008 0.046,0.046 -0.01,0.035 0.034,-0.011 0.046,0.046 -0.007,0.031 0.031,-0.006 0.046,0.045 -0.011,0.037 0.036,-0.012 0.045,0.045 -0.008,0.033 0.033,-0.008 z"
         style="fill:#ffb900;fill-rule:nonzero"
         id="path16906" /><path
         d="M 0.827,-0.235 0.885,-0.293 0.91,-0.269 0.852,-0.21 Z m -0.281,-0.281 0.058,-0.058 0.025,0.025 -0.058,0.058 z m -0.14,-0.141 0.057,-0.057 0.025,0.025 -0.057,0.057 z m 0.561,0.562 0.058,-0.058 0.025,0.025 -0.058,0.058 z m -0.28,-0.281 0.057,-0.058 0.025,0.025 -0.058,0.058 z M 0.674,-0.504 0.699,-0.479 0.676,-0.457 0.651,-0.481 Z M 0.394,-0.785 0.418,-0.76 0.396,-0.737 0.371,-0.762 Z m 0.42,0.422 0.025,0.024 -0.023,0.023 -0.024,-0.025 z M 0.534,-0.644 0.559,-0.62 0.536,-0.597 0.511,-0.622 Z M 0.955,-0.223 0.979,-0.198 0.957,-0.176 0.932,-0.2 Z m 0.14,0.14 0.025,0.025 -0.023,0.023 -0.024,-0.025 z"
         style="fill:#383838;fill-rule:nonzero"
         id="path16908" /></g></g></svg>
