<?xml version="1.0" encoding="UTF-8" standalone="no"?>
<svg
   width="11.58"
   height="16.844999"
   viewBox="0 0 11.58 16.844999"
   version="1.1"
   xml:space="preserve"
   style="clip-rule:evenodd;fill-rule:evenodd;stroke-linejoin:round;stroke-miterlimit:2"
   id="svg20568"
   sodipodi:docname="emojis.svg"
   xmlns:inkscape="http://www.inkscape.org/namespaces/inkscape"
   xmlns:sodipodi="http://sodipodi.sourceforge.net/DTD/sodipodi-0.dtd"
   xmlns="http://www.w3.org/2000/svg"
   xmlns:svg="http://www.w3.org/2000/svg"><defs
     id="defs20572" /><sodipodi:namedview
     id="namedview20570"
     pagecolor="#505050"
     bordercolor="#eeeeee"
     borderopacity="1"
     inkscape:pageshadow="0"
     inkscape:pageopacity="0"
     inkscape:pagecheckerboard="0" /><g
     transform="matrix(0.24,0,0,0.24,-751.5102,-817.2786)"
     id="g20566"><g
       transform="matrix(62.5,0,0,62.5,3123.48,3462.39)"
       id="g16980"><path
         d="M 0.616,0.21 V 0.175 H 0.406 V 0.21 H 0.125 V -0.913 H 0.897 V 0.21 Z"
         style="fill-rule:nonzero"
         id="path16966" /><path
         d="M 0.195,0.14 V 0.105 L 0.243,0.057 0.335,0.054 V 0.14 Z M 0.785,0.063 0.827,0.105 V 0.14 H 0.687 V 0.059 Z"
         style="fill:#757575;fill-rule:nonzero"
         id="path16968" /><rect
         x="0.19499999"
         y="-0.84200001"
         width="0.63099998"
         height="0.94700003"
         style="fill:#cccccc;fill-rule:nonzero"
         id="rect16970" /><path
         d="M 0.23,0.07 V -0.351 H 0.792 V 0.07 Z m 0,-0.877 h 0.562 v 0.421 H 0.23 Z"
         style="fill:#e5e5e5;fill-rule:nonzero"
         id="path16972" /><path
         d="m 0.581,-0.562 h 0.035 v 0.036 L 0.581,-0.494 Z M 0.406,-0.07 v -0.035 h 0.035 v 0.065 z m 0.175,0.03 V -0.105 H 0.616 V -0.07 Z M 0.406,-0.526 v -0.036 h 0.035 v 0.066 z"
         style="fill:#cccccc;fill-rule:nonzero"
         id="path16974" /><path
         d="m 0.406,-0.772 h 0.21 v 0.14 h -0.21 z m 0,0.596 v -0.14 h 0.21 v 0.14 z m 0,0.141 V -0.07 h 0.21 v 0.035 z m 0,-0.456 v -0.035 h 0.21 v 0.035 z"
         style="fill:#757575;fill-rule:nonzero"
         id="path16976" /><path
         d="m 0.441,-0.737 h 0.14 v 0.07 h -0.14 z m 0,0.527 v -0.071 h 0.14 v 0.071 z"
         style="fill:#ffffff;fill-rule:nonzero"
         id="path16978" /></g></g></svg>
