<?xml version="1.0" encoding="UTF-8" standalone="no"?>
<svg
   width="16.844999"
   height="16.844999"
   viewBox="0 0 16.844999 16.844999"
   version="1.1"
   xml:space="preserve"
   style="clip-rule:evenodd;fill-rule:evenodd;stroke-linejoin:round;stroke-miterlimit:2"
   id="svg20568"
   sodipodi:docname="emojis.svg"
   xmlns:inkscape="http://www.inkscape.org/namespaces/inkscape"
   xmlns:sodipodi="http://sodipodi.sourceforge.net/DTD/sodipodi-0.dtd"
   xmlns="http://www.w3.org/2000/svg"
   xmlns:svg="http://www.w3.org/2000/svg"><defs
     id="defs20572" /><sodipodi:namedview
     id="namedview20570"
     pagecolor="#505050"
     bordercolor="#eeeeee"
     borderopacity="1"
     inkscape:pageshadow="0"
     inkscape:pageopacity="0"
     inkscape:pagecheckerboard="0" /><g
     transform="matrix(0.24,0,0,0.24,-50.20092,-834.249)"
     id="g20566"><g
       transform="matrix(62.5,0,0,62.5,201.358,3533.1)"
       id="g17050"><path
         d="m 0.967,-0.772 c 0.026,0 0.051,0.003 0.075,0.01 0.024,0.007 0.046,0.016 0.067,0.028 0.02,0.013 0.039,0.027 0.057,0.044 0.017,0.017 0.032,0.036 0.044,0.057 0.012,0.021 0.021,0.043 0.028,0.067 0.007,0.024 0.01,0.049 0.01,0.074 0,0.025 -0.003,0.05 -0.01,0.074 -0.006,0.023 -0.016,0.046 -0.028,0.067 -0.012,0.021 -0.027,0.04 -0.044,0.058 -0.017,0.017 -0.037,0.032 -0.059,0.044 V 0.099 L 0.996,0.21 H 0.23 C 0.216,0.21 0.202,0.208 0.189,0.202 0.177,0.197 0.166,0.189 0.156,0.179 0.146,0.17 0.139,0.159 0.133,0.146 0.128,0.133 0.125,0.12 0.125,0.105 v -0.421 c 0,-0.011 0.002,-0.022 0.005,-0.032 0.004,-0.011 0.008,-0.02 0.015,-0.029 0.006,-0.008 0.013,-0.016 0.022,-0.023 0.008,-0.006 0.018,-0.012 0.028,-0.016 v -0.11 c 0,-0.036 0.005,-0.07 0.014,-0.103 0.009,-0.033 0.022,-0.064 0.039,-0.092 0.017,-0.029 0.037,-0.055 0.06,-0.078 0.024,-0.024 0.05,-0.044 0.078,-0.061 0.029,-0.016 0.06,-0.029 0.093,-0.039 0.032,-0.009 0.067,-0.014 0.102,-0.014 0.03,0 0.059,0.004 0.088,0.011 0.029,0.006 0.057,0.016 0.083,0.029 0.027,0.013 0.051,0.029 0.074,0.048 0.023,0.019 0.044,0.04 0.062,0.064 0.027,-0.007 0.053,-0.011 0.079,-0.011 z"
         style="fill-rule:nonzero"
         id="path17034" /><path
         d="m 0.581,-0.842 c 0.029,0 0.057,0.003 0.084,0.011 0.027,0.007 0.052,0.018 0.075,0.032 0.024,0.014 0.045,0.03 0.064,0.049 0.019,0.02 0.036,0.041 0.05,0.064 0.014,0.023 0.024,0.049 0.032,0.076 0.007,0.027 0.011,0.055 0.011,0.084 H 0.827 C 0.827,-0.56 0.82,-0.592 0.807,-0.622 0.795,-0.652 0.777,-0.678 0.755,-0.7 0.732,-0.722 0.706,-0.74 0.677,-0.753 0.647,-0.766 0.615,-0.772 0.581,-0.772 c -0.034,0 -0.066,0.006 -0.095,0.019 -0.03,0.013 -0.056,0.031 -0.079,0.053 -0.022,0.022 -0.039,0.048 -0.052,0.078 -0.013,0.03 -0.02,0.062 -0.02,0.096 v 0.263 h -0.07 v -0.263 c 0,-0.029 0.004,-0.057 0.011,-0.084 0.008,-0.027 0.019,-0.053 0.032,-0.076 0.014,-0.023 0.031,-0.044 0.05,-0.064 0.019,-0.019 0.04,-0.035 0.064,-0.049 0.023,-0.014 0.048,-0.025 0.075,-0.032 0.027,-0.008 0.055,-0.011 0.084,-0.011 z"
         style="fill:#cccccc;fill-rule:nonzero"
         id="path17036" /><path
         d="m 0.195,-0.316 c 0,-0.01 0.004,-0.018 0.011,-0.025 0.006,-0.007 0.015,-0.01 0.024,-0.01 L 0.31,-0.285 0.323,0.063 0.23,0.14 C 0.221,0.14 0.212,0.137 0.206,0.13 0.199,0.123 0.195,0.115 0.195,0.105 Z"
         style="fill:#eba300;fill-rule:nonzero"
         id="path17038" /><path
         d="m 0.859,-0.269 c 0.006,0 0.013,-0.003 0.023,-0.008 0.009,-0.005 0.019,-0.011 0.029,-0.017 0.011,-0.007 0.02,-0.012 0.03,-0.018 0.009,-0.005 0.017,-0.007 0.022,-0.007 0.003,0 0.004,0.001 0.004,0.003 V 0.105 C 0.967,0.114 0.964,0.123 0.957,0.13 0.95,0.137 0.942,0.14 0.932,0.14 L 0.837,0.055 Z"
         style="fill:#dfbe00;fill-rule:nonzero"
         id="path17040" /><rect
         x="0.23"
         y="-0.35100001"
         width="0.70200002"
         height="0.491"
         style="fill:#ffc83d;fill-rule:nonzero"
         id="rect17042" /><path
         d="m 0.967,-0.702 c 0.029,0 0.057,0.005 0.082,0.016 0.026,0.012 0.048,0.027 0.067,0.046 0.019,0.019 0.034,0.041 0.045,0.067 0.011,0.025 0.017,0.052 0.017,0.081 0,0.022 -0.004,0.044 -0.011,0.065 C 1.161,-0.407 1.151,-0.388 1.139,-0.37 1.127,-0.353 1.112,-0.338 1.095,-0.324 1.077,-0.311 1.058,-0.3 1.038,-0.293 V 0.07 L 1.002,0.105 0.98,0.092 0.967,0.14 0.897,0.07 0.932,0.035 0.897,0 0.932,-0.035 0.897,-0.07 0.932,-0.105 0.897,-0.141 V -0.293 C 0.876,-0.3 0.857,-0.311 0.84,-0.324 0.823,-0.338 0.808,-0.353 0.796,-0.37 0.783,-0.388 0.774,-0.407 0.767,-0.427 0.76,-0.448 0.757,-0.47 0.757,-0.492 0.757,-0.521 0.762,-0.548 0.773,-0.573 0.785,-0.599 0.8,-0.621 0.819,-0.64 0.838,-0.659 0.86,-0.674 0.885,-0.686 0.911,-0.697 0.938,-0.702 0.967,-0.702 Z m 0,0.14 c 0.01,0 0.018,-0.003 0.025,-0.01 0.007,-0.007 0.01,-0.015 0.01,-0.025 0,-0.009 -0.003,-0.017 -0.01,-0.024 -0.007,-0.007 -0.015,-0.011 -0.025,-0.011 -0.009,0 -0.018,0.004 -0.025,0.01 -0.006,0.007 -0.01,0.016 -0.01,0.025 0,0.01 0.004,0.018 0.01,0.025 0.007,0.007 0.016,0.01 0.025,0.01 z"
         style="fill:#eba300;fill-rule:nonzero"
         id="path17044" /><path
         d="m 0.967,-0.281 c 0.012,0 0.024,-10e-4 0.035,-0.003 V 0.105 L 0.967,0.14 Z"
         style="fill:#d48c00;fill-rule:nonzero"
         id="path17046" /><path
         d="m 0.967,-0.562 c -0.009,0 -0.018,-0.003 -0.025,-0.01 -0.006,-0.007 -0.01,-0.015 -0.01,-0.025 0,-0.009 0.004,-0.018 0.01,-0.025 0.007,-0.006 0.016,-0.01 0.025,-0.01 0.01,0 0.018,0.004 0.025,0.011 0.007,0.007 0.01,0.015 0.01,0.024 0,0.01 -0.003,0.018 -0.01,0.025 -0.007,0.007 -0.015,0.01 -0.025,0.01 z"
         style="fill-rule:nonzero"
         id="path17048" /></g></g></svg>
