<?xml version="1.0" encoding="UTF-8" standalone="no"?>
<svg
   width="16.844999"
   height="16.844999"
   viewBox="0 0 16.844999 16.844999"
   version="1.1"
   xml:space="preserve"
   style="clip-rule:evenodd;fill-rule:evenodd;stroke-linejoin:round;stroke-miterlimit:2"
   id="svg20568"
   sodipodi:docname="emojis.svg"
   xmlns:inkscape="http://www.inkscape.org/namespaces/inkscape"
   xmlns:sodipodi="http://sodipodi.sourceforge.net/DTD/sodipodi-0.dtd"
   xmlns="http://www.w3.org/2000/svg"
   xmlns:svg="http://www.w3.org/2000/svg"><defs
     id="defs20572" /><sodipodi:namedview
     id="namedview20570"
     pagecolor="#505050"
     bordercolor="#eeeeee"
     borderopacity="1"
     inkscape:pageshadow="0"
     inkscape:pageopacity="0"
     inkscape:pagecheckerboard="0" /><g
     transform="matrix(0.24,0,0,0.24,-696.8646,-127.68924)"
     id="g20566"><g
       transform="matrix(62.5,0,0,62.5,2895.79,589.101)"
       id="g1702"><path
         d="m 0.125,0.21 v -0.245 l 0.667,-0.667 c 0.011,0.012 0.022,0.023 0.032,0.035 0.011,0.011 0.021,0.023 0.03,0.036 0.009,0.012 0.016,0.025 0.022,0.04 0.005,0.014 0.008,0.03 0.008,0.047 0,0.009 -0.001,0.019 -0.003,0.028 l 0.004,0.008 0.018,-0.018 H 0.967 V -0.603 C 0.957,-0.607 0.947,-0.612 0.938,-0.619 0.93,-0.625 0.922,-0.633 0.916,-0.641 0.91,-0.65 0.906,-0.659 0.902,-0.67 0.899,-0.68 0.897,-0.691 0.897,-0.702 v -0.211 h 0.351 v 0.211 c 0,0.011 -0.002,0.022 -0.005,0.032 -0.004,0.01 -0.009,0.02 -0.015,0.028 -0.006,0.009 -0.014,0.017 -0.022,0.024 -0.009,0.006 -0.018,0.012 -0.028,0.015 v 0.041 c 0,0.034 -0.008,0.065 -0.022,0.094 -0.015,0.029 -0.035,0.054 -0.062,0.074 0.01,0.01 0.02,0.02 0.028,0.029 0.009,0.009 0.016,0.019 0.023,0.029 0.006,0.01 0.011,0.021 0.015,0.033 0.003,0.011 0.005,0.025 0.005,0.04 0,0.009 -0.001,0.019 -0.003,0.028 0.011,0.02 0.016,0.041 0.016,0.065 0,0.024 -0.005,0.044 -0.015,0.062 -0.01,0.017 -0.023,0.034 -0.04,0.051 L 0.856,0.21 Z"
         style="fill-rule:nonzero"
         id="path1692" /><path
         d="m 0.195,0 0.456,-0.457 0.023,-0.012 0.013,-0.017 0.003,0.012 c 0.005,-0.014 0.013,-0.025 0.026,-0.034 0.012,-0.009 0.026,-0.013 0.04,-0.013 0.01,0 0.019,0.001 0.028,0.005 0.008,0.004 0.016,0.009 0.022,0.016 0.007,0.006 0.012,0.014 0.016,0.022 0.003,0.008 0.005,0.018 0.005,0.027 0,0.014 -0.003,0.026 -0.01,0.036 -0.007,0.01 -0.016,0.019 -0.025,0.029 l -0.345,0.344 c -0.004,0.005 -0.006,0.01 -0.006,0.017 0,0.006 0.002,0.012 0.007,0.017 C 0.453,-0.003 0.459,0 0.466,0 0.469,0 0.472,0 0.475,-0.001 0.478,-0.002 0.48,-0.004 0.482,-0.006 l 0.31,-0.31 C 0.793,-0.317 0.795,-0.318 0.797,-0.319 L 0.81,-0.327 C 0.812,-0.328 0.813,-0.329 0.813,-0.33 l 0.015,-0.019 0.003,0.016 c 0.005,-0.014 0.013,-0.026 0.025,-0.035 0.013,-0.008 0.026,-0.013 0.041,-0.013 0.01,0 0.019,0.002 0.027,0.006 0.009,0.003 0.016,0.009 0.023,0.015 0.006,0.006 0.011,0.014 0.015,0.022 0.003,0.009 0.005,0.018 0.005,0.027 0,0.008 -0.001,0.014 -0.003,0.02 C 0.962,-0.285 0.96,-0.28 0.957,-0.275 0.954,-0.27 0.95,-0.265 0.946,-0.26 0.942,-0.255 0.937,-0.25 0.932,-0.246 L 0.658,0.029 C 0.655,0.031 0.654,0.034 0.653,0.037 0.652,0.04 0.651,0.042 0.651,0.045 0.651,0.052 0.654,0.058 0.659,0.063 0.664,0.068 0.67,0.07 0.676,0.07 0.683,0.07 0.688,0.068 0.693,0.063 L 0.932,-0.176 C 0.938,-0.181 0.944,-0.186 0.95,-0.19 0.957,-0.195 0.963,-0.2 0.968,-0.207 l 0.003,0.014 c 0.005,-0.014 0.013,-0.025 0.026,-0.034 0.012,-0.009 0.025,-0.014 0.04,-0.014 0.01,0 0.019,0.002 0.027,0.006 0.009,0.004 0.016,0.009 0.023,0.015 0.006,0.007 0.012,0.014 0.015,0.023 0.004,0.008 0.006,0.017 0.006,0.027 0,0.014 -0.004,0.026 -0.011,0.036 -0.007,0.009 -0.015,0.019 -0.024,0.029 L 0.827,0.14 H 0.195 Z"
         style="fill:#ffc83d;fill-rule:nonzero"
         id="path1694" /><path
         d="m 0.967,-0.842 h 0.035 c 0.006,0 0.011,0.001 0.016,0.002 0.005,0.002 0.011,0.003 0.016,0.003 0.007,0 0.013,-0.001 0.019,-0.003 0.006,-0.001 0.013,-0.002 0.019,-0.002 h 0.106 v 0.14 c 0,0.008 -0.002,0.014 -0.005,0.019 -0.003,0.004 -0.007,0.008 -0.012,0.01 -0.005,0.003 -0.01,0.004 -0.016,0.005 -0.007,0.001 -0.013,0.001 -0.019,0.001 H 1.108 v 0.105 L 1.07,-0.554 1.038,-0.562 V -0.667 L 1.023,-0.671 C 1.019,-0.67 1.016,-0.669 1.013,-0.668 1.009,-0.667 1.006,-0.667 1.002,-0.667 0.993,-0.667 0.984,-0.67 0.978,-0.677 0.971,-0.684 0.967,-0.692 0.967,-0.702 Z"
         style="fill:#f2f2f2;fill-rule:nonzero"
         id="path1696" /><path
         d="m 0.952,-0.421 c 0,0.003 0.001,0.006 0.001,0.009 0,0.003 0.001,0.006 0.001,0.009 0,0.009 -0.002,0.019 -0.006,0.028 -0.004,0.009 -0.009,0.017 -0.016,0.024 l -0.088,0.088 -0.052,-0.053 0.14,-0.141 h 0.035 c 0.01,0 0.019,-0.001 0.028,-0.005 0.008,-0.003 0.015,-0.008 0.022,-0.015 0.006,-0.006 0.011,-0.014 0.015,-0.022 0.004,-0.008 0.006,-0.018 0.006,-0.027 v -0.036 h 0.069 c 0,0.02 -0.003,0.038 -0.011,0.055 -0.007,0.017 -0.017,0.032 -0.03,0.045 -0.012,0.012 -0.027,0.022 -0.044,0.03 -0.017,0.007 -0.035,0.011 -0.055,0.011 z m -0.02,0.245 0.141,-0.14 c 0.007,0.007 0.012,0.015 0.016,0.025 0.003,0.009 0.005,0.019 0.005,0.028 0,0.01 -0.002,0.02 -0.005,0.029 -0.004,0.009 -0.009,0.017 -0.016,0.024 l -0.088,0.087 z m -0.14,-0.421 c 0.007,0.007 0.012,0.016 0.016,0.025 0.004,0.009 0.005,0.019 0.005,0.029 0,0.009 -10e-4,0.019 -0.005,0.028 -0.004,0.009 -0.009,0.017 -0.016,0.024 L 0.704,-0.404 0.651,-0.457 Z"
         style="fill:#ee3f86;fill-rule:nonzero"
         id="path1698" /><rect
         x="1.002"
         y="-0.84200001"
         width="0.07"
         height="0.175"
         style="fill:#cccccc;fill-rule:nonzero"
         id="rect1700" /></g></g></svg>
