<?xml version="1.0" encoding="UTF-8" standalone="no"?>
<svg
   width="16.844999"
   height="14.73"
   viewBox="0 0 16.844999 14.73"
   version="1.1"
   xml:space="preserve"
   style="clip-rule:evenodd;fill-rule:evenodd;stroke-linejoin:round;stroke-miterlimit:2"
   id="svg20568"
   sodipodi:docname="emojis.svg"
   xmlns:inkscape="http://www.inkscape.org/namespaces/inkscape"
   xmlns:sodipodi="http://sodipodi.sourceforge.net/DTD/sodipodi-0.dtd"
   xmlns="http://www.w3.org/2000/svg"
   xmlns:svg="http://www.w3.org/2000/svg"><defs
     id="defs20572" /><sodipodi:namedview
     id="namedview20570"
     pagecolor="#505050"
     bordercolor="#eeeeee"
     borderopacity="1"
     inkscape:pageshadow="0"
     inkscape:pageopacity="0"
     inkscape:pagecheckerboard="0" /><g
     transform="matrix(0.24,0,0,0.24,-130.48164,-835.314)"
     id="g20566"><g
       transform="matrix(62.5,0,0,62.5,535.861,3533.1)"
       id="g17084"><path
         d="M 1.087,0.14 C 1.058,0.14 1.033,0.13 1.013,0.109 L 0.699,-0.204 C 0.697,-0.205 0.695,-0.209 0.692,-0.216 L 0.672,-0.26 C 0.669,-0.267 0.666,-0.272 0.664,-0.274 0.658,-0.282 0.652,-0.288 0.646,-0.293 0.641,-0.298 0.635,-0.303 0.627,-0.311 L 0.555,-0.383 C 0.551,-0.369 0.548,-0.354 0.547,-0.34 0.546,-0.325 0.545,-0.31 0.545,-0.295 l 0.001,0.049 H 0.476 C 0.428,-0.246 0.382,-0.255 0.34,-0.273 0.297,-0.292 0.26,-0.317 0.228,-0.349 0.196,-0.381 0.171,-0.418 0.153,-0.46 0.134,-0.503 0.125,-0.548 0.125,-0.597 v -0.07 h 0.047 c 0.011,0 0.022,0 0.032,0 C 0.215,-0.668 0.226,-0.669 0.236,-0.67 0.247,-0.672 0.257,-0.674 0.268,-0.677 0.279,-0.68 0.29,-0.684 0.302,-0.689 0.303,-0.698 0.306,-0.707 0.31,-0.715 0.314,-0.723 0.32,-0.73 0.326,-0.736 0.333,-0.743 0.34,-0.751 0.348,-0.759 0.356,-0.768 0.364,-0.776 0.372,-0.783 0.381,-0.79 0.39,-0.796 0.4,-0.801 c 0.009,-0.005 0.02,-0.007 0.031,-0.007 0.004,0 0.008,0 0.013,0.001 0.001,0 0.001,0 0.001,0.001 0,0 0,0 0.001,0 0.011,-0.012 0.023,-0.02 0.036,-0.027 0.012,-0.006 0.027,-0.009 0.043,-0.009 0.015,0 0.028,0.002 0.041,0.008 0.013,0.005 0.024,0.012 0.034,0.022 l 0.091,0.091 c 0.01,0.01 0.017,0.021 0.023,0.034 0.005,0.013 0.008,0.027 0.008,0.041 0,0.012 -0.002,0.024 -0.006,0.035 -0.004,0.012 -0.01,0.022 -0.018,0.031 l 0.09,0.091 c 0.009,0.009 0.016,0.016 0.022,0.023 0.006,0.007 0.014,0.014 0.023,0.022 0.003,0.002 0.007,0.005 0.014,0.008 0.007,0.003 0.015,0.007 0.023,0.01 0.007,0.004 0.015,0.007 0.021,0.01 0.007,0.004 0.011,0.006 0.012,0.007 l 0.314,0.314 c 0.01,0.01 0.018,0.021 0.023,0.034 0.005,0.013 0.008,0.026 0.008,0.04 0,0.014 -0.003,0.028 -0.008,0.041 C 1.235,0.033 1.227,0.044 1.217,0.054 L 1.162,0.109 C 1.152,0.119 1.14,0.127 1.127,0.132 1.115,0.138 1.101,0.14 1.087,0.14 Z"
         style="fill-rule:nonzero"
         id="path17076" /><path
         d="M 1.087,0.07 C 1.077,0.07 1.069,0.067 1.062,0.06 L 0.757,-0.246 C 0.756,-0.247 0.754,-0.251 0.75,-0.258 L 0.728,-0.304 C 0.725,-0.311 0.723,-0.315 0.722,-0.316 L 0.398,-0.639 C 0.396,-0.641 0.394,-0.643 0.391,-0.646 0.388,-0.649 0.385,-0.651 0.382,-0.655 0.379,-0.658 0.376,-0.661 0.374,-0.664 0.372,-0.667 0.371,-0.671 0.371,-0.674 c 0,-0.005 0.001,-0.009 0.005,-0.013 l 0.045,-0.045 c 0.003,-0.003 0.007,-0.005 0.012,-0.005 0.005,0 0.01,0.002 0.013,0.005 l 0.346,0.346 c 0,0.001 0.004,0.003 0.011,0.006 l 0.047,0.022 c 0.007,0.004 0.011,0.006 0.012,0.007 l 0.305,0.306 c 0.007,0.006 0.011,0.015 0.011,0.024 0,0.005 -10e-4,0.01 -0.003,0.014 C 1.173,-0.003 1.171,0.001 1.167,0.004 L 1.112,0.06 C 1.105,0.067 1.097,0.07 1.087,0.07 Z"
         style="fill:#eba300;fill-rule:nonzero"
         id="path17078" /><path
         d="m 0.651,-0.646 c 0,0.009 -0.003,0.018 -0.01,0.024 l -0.02,0.02 C 0.604,-0.585 0.588,-0.569 0.574,-0.554 0.559,-0.539 0.546,-0.523 0.535,-0.507 0.523,-0.49 0.513,-0.472 0.504,-0.453 0.496,-0.434 0.489,-0.411 0.483,-0.386 0.473,-0.385 0.462,-0.383 0.451,-0.383 0.44,-0.382 0.429,-0.382 0.417,-0.382 0.389,-0.382 0.365,-0.384 0.345,-0.389 0.325,-0.393 0.309,-0.401 0.296,-0.413 0.284,-0.424 0.274,-0.439 0.269,-0.458 0.263,-0.477 0.26,-0.501 0.26,-0.531 c 0,-0.012 0,-0.024 0.001,-0.037 0.001,-0.012 0.002,-0.024 0.005,-0.036 0.024,-0.005 0.046,-0.012 0.066,-0.021 0.019,-0.009 0.037,-0.019 0.053,-0.031 0.017,-0.011 0.033,-0.024 0.048,-0.038 0.015,-0.015 0.03,-0.03 0.047,-0.047 l 0.021,-0.021 c 0.007,-0.007 0.015,-0.01 0.024,-0.01 0.01,0 0.018,0.003 0.025,0.01 l 0.091,0.091 c 0.003,0.003 0.006,0.007 0.008,0.011 0.001,0.004 0.002,0.009 0.002,0.014 z"
         style="fill:#f03a17;fill-rule:nonzero"
         id="path17080" /><path
         d="m 0.266,-0.596 c 0,0.029 0.005,0.056 0.016,0.081 0.011,0.026 0.026,0.048 0.045,0.067 0.019,0.019 0.041,0.034 0.067,0.045 0.025,0.011 0.053,0.017 0.082,0.017 H 0.483 C 0.479,-0.363 0.476,-0.34 0.476,-0.316 0.437,-0.316 0.401,-0.323 0.367,-0.338 0.333,-0.353 0.303,-0.373 0.278,-0.398 0.252,-0.424 0.232,-0.454 0.218,-0.488 0.203,-0.522 0.195,-0.558 0.195,-0.597 c 0.024,0 0.048,-0.002 0.071,-0.007 z"
         style="fill:#e5e5e5;fill-rule:nonzero"
         id="path17082" /></g></g></svg>
