<?xml version="1.0" encoding="UTF-8" standalone="no"?>
<svg
   width="14.73"
   height="16.77"
   viewBox="0 0 14.73 16.77"
   version="1.1"
   xml:space="preserve"
   style="clip-rule:evenodd;fill-rule:evenodd;stroke-linejoin:round;stroke-miterlimit:2"
   id="svg20568"
   sodipodi:docname="emojis.svg"
   xmlns:inkscape="http://www.inkscape.org/namespaces/inkscape"
   xmlns:sodipodi="http://sodipodi.sourceforge.net/DTD/sodipodi-0.dtd"
   xmlns="http://www.w3.org/2000/svg"
   xmlns:svg="http://www.w3.org/2000/svg"><defs
     id="defs20572" /><sodipodi:namedview
     id="namedview20570"
     pagecolor="#505050"
     bordercolor="#eeeeee"
     borderopacity="1"
     inkscape:pageshadow="0"
     inkscape:pageopacity="0"
     inkscape:pagecheckerboard="0" /><g
     transform="matrix(0.24,0,0,0.24,-91.39236,-834.249)"
     id="g20566"><g
       transform="matrix(62.5,0,0,62.5,372.989,3533.1)"
       id="g17066"><path
         d="m 0.614,-0.074 c 0,-0.007 0.003,-0.016 0.009,-0.025 0.006,-0.01 0.014,-0.02 0.022,-0.029 0.008,-0.01 0.017,-0.019 0.026,-0.028 0.009,-0.008 0.016,-0.015 0.021,-0.02 L 0.5,-0.368 c -0.015,0.006 -0.03,0.01 -0.046,0.013 -0.016,0.003 -0.032,0.004 -0.048,0.004 -0.039,0 -0.075,-0.007 -0.109,-0.022 C 0.263,-0.388 0.233,-0.408 0.208,-0.434 0.182,-0.459 0.162,-0.489 0.147,-0.523 0.132,-0.557 0.125,-0.593 0.125,-0.632 c 0,-0.038 0.007,-0.075 0.022,-0.109 0.015,-0.034 0.035,-0.064 0.061,-0.089 0.025,-0.025 0.055,-0.046 0.089,-0.06 0.034,-0.015 0.07,-0.023 0.109,-0.023 0.038,0 0.074,0.008 0.109,0.023 0.034,0.014 0.064,0.035 0.089,0.06 0.025,0.025 0.045,0.055 0.06,0.089 0.015,0.034 0.023,0.071 0.023,0.109 0,0.016 -0.002,0.032 -0.005,0.048 -0.002,0.016 -0.007,0.032 -0.012,0.047 l 0.402,0.403 c 0.024,0.023 0.035,0.051 0.035,0.084 0,0.016 -0.002,0.031 -0.008,0.045 C 1.093,0.009 1.085,0.021 1.075,0.032 1.066,0.042 1.054,0.051 1.04,0.058 1.027,0.065 1.012,0.069 0.997,0.07 L 0.862,0.205 0.627,-0.031 C 0.626,-0.032 0.624,-0.035 0.623,-0.039 0.621,-0.042 0.619,-0.047 0.618,-0.051 0.617,-0.056 0.616,-0.06 0.615,-0.064 0.614,-0.069 0.614,-0.072 0.614,-0.074 Z"
         style="fill-rule:nonzero"
         id="path17062" /><path
         d="m 0.585,-0.522 0.438,0.437 c 0.009,0.009 0.014,0.021 0.014,0.035 0,0.014 -0.005,0.026 -0.014,0.035 C 1.013,-0.005 1.001,0 0.988,0 0.982,0 0.976,-0.001 0.971,-0.003 0.966,-0.005 0.961,-0.008 0.957,-0.011 0.952,-0.015 0.948,-0.019 0.944,-0.023 0.94,-0.027 0.936,-0.031 0.932,-0.035 L 0.897,0 0.932,0.035 0.862,0.105 0.792,0.035 V 0 H 0.757 l -0.07,-0.07 0.07,-0.071 0.035,0.036 0.035,-0.036 -0.312,-0.311 C 0.499,-0.442 0.481,-0.434 0.463,-0.429 0.444,-0.424 0.425,-0.421 0.406,-0.421 0.377,-0.421 0.35,-0.427 0.324,-0.438 0.298,-0.449 0.276,-0.464 0.257,-0.483 0.238,-0.502 0.223,-0.524 0.212,-0.55 0.201,-0.576 0.195,-0.603 0.195,-0.632 c 0,-0.029 0.006,-0.056 0.017,-0.082 0.011,-0.025 0.026,-0.047 0.045,-0.067 0.019,-0.019 0.041,-0.034 0.067,-0.045 0.026,-0.011 0.053,-0.016 0.082,-0.016 0.029,0 0.056,0.005 0.082,0.016 0.025,0.011 0.047,0.026 0.066,0.045 0.019,0.02 0.035,0.042 0.046,0.067 0.011,0.026 0.016,0.053 0.016,0.082 0,0.02 -0.002,0.039 -0.008,0.057 -0.005,0.018 -0.012,0.036 -0.023,0.053 z m -0.32,-0.11 c 0,0.02 0.004,0.038 0.011,0.055 0.007,0.017 0.017,0.032 0.03,0.044 0.013,0.013 0.028,0.023 0.045,0.03 0.017,0.008 0.035,0.011 0.055,0.011 0.019,0 0.038,-0.003 0.054,-0.011 C 0.477,-0.51 0.492,-0.52 0.505,-0.533 0.518,-0.545 0.528,-0.56 0.535,-0.577 0.542,-0.594 0.546,-0.612 0.546,-0.632 0.546,-0.651 0.542,-0.67 0.535,-0.687 0.528,-0.703 0.518,-0.718 0.505,-0.731 0.492,-0.744 0.477,-0.754 0.46,-0.761 0.444,-0.768 0.425,-0.772 0.406,-0.772 c -0.02,0 -0.038,0.004 -0.055,0.011 -0.017,0.007 -0.032,0.017 -0.045,0.03 -0.013,0.013 -0.023,0.028 -0.03,0.044 -0.007,0.017 -0.011,0.036 -0.011,0.055 z"
         style="fill:#eba300;fill-rule:nonzero"
         id="path17064" /></g></g></svg>
