<?xml version="1.0" encoding="UTF-8" standalone="no"?>
<svg
   width="13.695"
   height="16.844999"
   viewBox="0 0 13.695 16.844999"
   version="1.1"
   xml:space="preserve"
   style="clip-rule:evenodd;fill-rule:evenodd;stroke-linejoin:round;stroke-miterlimit:2"
   id="svg20568"
   sodipodi:docname="emojis.svg"
   xmlns:inkscape="http://www.inkscape.org/namespaces/inkscape"
   xmlns:sodipodi="http://sodipodi.sourceforge.net/DTD/sodipodi-0.dtd"
   xmlns="http://www.w3.org/2000/svg"
   xmlns:svg="http://www.w3.org/2000/svg"><defs
     id="defs20572" /><sodipodi:namedview
     id="namedview20570"
     pagecolor="#505050"
     bordercolor="#eeeeee"
     borderopacity="1"
     inkscape:pageshadow="0"
     inkscape:pageopacity="0"
     inkscape:pagecheckerboard="0" /><g
     transform="matrix(0.24,0,0,0.24,-787.443,-817.2786)"
     id="g20566"><g
       transform="matrix(62.5,0,0,62.5,3273.2,3462.39)"
       id="g17006"><path
         d="m 0.967,-0.415 c 0.011,0.003 0.02,0.008 0.029,0.015 0.008,0.006 0.016,0.014 0.022,0.023 0.006,0.009 0.011,0.019 0.014,0.029 0.004,0.011 0.006,0.021 0.006,0.032 V 0.105 C 1.038,0.119 1.035,0.133 1.029,0.146 1.024,0.159 1.016,0.17 1.007,0.179 0.997,0.189 0.986,0.197 0.973,0.202 0.96,0.208 0.946,0.21 0.932,0.21 H 0.23 C 0.216,0.21 0.202,0.208 0.189,0.202 0.177,0.197 0.166,0.189 0.156,0.179 0.146,0.17 0.139,0.159 0.133,0.146 0.128,0.133 0.125,0.12 0.125,0.105 v -0.421 c 0,-0.011 0.002,-0.022 0.005,-0.032 0.004,-0.011 0.008,-0.02 0.015,-0.029 0.006,-0.008 0.013,-0.016 0.022,-0.023 0.008,-0.006 0.018,-0.012 0.028,-0.016 v -0.11 c 0,-0.036 0.005,-0.07 0.014,-0.103 0.009,-0.033 0.022,-0.064 0.039,-0.092 0.017,-0.029 0.037,-0.055 0.06,-0.078 0.024,-0.024 0.05,-0.044 0.078,-0.061 0.029,-0.016 0.06,-0.029 0.093,-0.039 0.032,-0.009 0.067,-0.014 0.102,-0.014 0.036,0 0.07,0.005 0.103,0.014 0.032,0.01 0.063,0.023 0.092,0.039 0.029,0.017 0.055,0.037 0.078,0.061 0.023,0.023 0.044,0.049 0.06,0.078 0.017,0.028 0.03,0.059 0.039,0.092 0.01,0.033 0.014,0.067 0.014,0.103 z"
         style="fill-rule:nonzero"
         id="path16998" /><path
         d="m 0.932,-0.351 c 0.01,0 0.018,0.003 0.025,0.01 0.007,0.007 0.01,0.016 0.01,0.025 V 0.105 C 0.967,0.114 0.964,0.123 0.957,0.13 0.95,0.137 0.942,0.14 0.932,0.14 L 0.858,0.047 0.843,-0.265 Z m -0.702,0 0.06,0.06 L 0.303,0.078 0.23,0.14 C 0.221,0.14 0.212,0.137 0.206,0.13 0.199,0.123 0.195,0.115 0.195,0.105 v -0.421 c 0,-0.01 0.004,-0.018 0.011,-0.025 0.006,-0.007 0.015,-0.01 0.024,-0.01 z"
         style="fill:#eba300;fill-rule:nonzero"
         id="path17000" /><path
         d="m 0.581,-0.842 c 0.029,0 0.057,0.003 0.084,0.011 0.027,0.007 0.052,0.018 0.075,0.032 0.024,0.014 0.045,0.03 0.064,0.049 0.019,0.02 0.036,0.041 0.05,0.064 0.014,0.023 0.024,0.049 0.032,0.076 0.007,0.027 0.011,0.055 0.011,0.084 V -0.27 H 0.827 V -0.526 C 0.827,-0.56 0.82,-0.592 0.807,-0.622 0.795,-0.652 0.777,-0.678 0.755,-0.7 0.732,-0.722 0.706,-0.74 0.677,-0.753 0.647,-0.766 0.615,-0.772 0.581,-0.772 c -0.034,0 -0.066,0.006 -0.095,0.019 -0.03,0.013 -0.056,0.031 -0.079,0.053 -0.022,0.022 -0.039,0.048 -0.052,0.078 -0.013,0.03 -0.02,0.062 -0.02,0.096 v 0.273 h -0.07 v -0.273 c 0,-0.029 0.004,-0.057 0.011,-0.084 0.008,-0.027 0.019,-0.053 0.032,-0.076 0.014,-0.023 0.031,-0.044 0.05,-0.064 0.019,-0.019 0.04,-0.035 0.064,-0.049 0.023,-0.014 0.048,-0.025 0.075,-0.032 0.027,-0.008 0.055,-0.011 0.084,-0.011 z"
         style="fill:#cccccc;fill-rule:nonzero"
         id="path17002" /><rect
         x="0.23"
         y="-0.35100001"
         width="0.70200002"
         height="0.491"
         style="fill:#ffc83d;fill-rule:nonzero"
         id="rect17004" /></g></g></svg>
