<?xml version="1.0" encoding="UTF-8" standalone="no"?>
<svg
   width="16.32"
   height="16.32"
   viewBox="0 0 16.32 16.32"
   version="1.1"
   xml:space="preserve"
   style="clip-rule:evenodd;fill-rule:evenodd;stroke-linejoin:round;stroke-miterlimit:2"
   id="svg20568"
   sodipodi:docname="emojis.svg"
   xmlns:inkscape="http://www.inkscape.org/namespaces/inkscape"
   xmlns:sodipodi="http://sodipodi.sourceforge.net/DTD/sodipodi-0.dtd"
   xmlns="http://www.w3.org/2000/svg"
   xmlns:svg="http://www.w3.org/2000/svg"><defs
     id="defs20572" /><sodipodi:namedview
     id="namedview20570"
     pagecolor="#505050"
     bordercolor="#eeeeee"
     borderopacity="1"
     inkscape:pageshadow="0"
     inkscape:pageopacity="0"
     inkscape:pagecheckerboard="0" /><g
     transform="matrix(0.24,0,0,0.24,-171.67308,-834.249)"
     id="g20566"><g
       transform="matrix(62.5,0,0,62.5,707.492,3533.1)"
       id="g17108"><path
         d="m 1.014,-0.228 0.168,0.168 c 0.01,0.01 0.017,0.021 0.023,0.034 0.005,0.013 0.008,0.027 0.008,0.041 0,0.014 -0.003,0.027 -0.008,0.04 C 1.199,0.068 1.192,0.079 1.182,0.089 L 1.126,0.145 C 1.116,0.155 1.105,0.162 1.092,0.167 1.08,0.173 1.066,0.175 1.052,0.175 1.038,0.175 1.024,0.173 1.011,0.167 0.999,0.162 0.987,0.154 0.978,0.145 L 0.704,-0.129 0.431,0.145 C 0.421,0.155 0.409,0.162 0.396,0.167 0.384,0.173 0.37,0.175 0.356,0.175 0.342,0.175 0.329,0.173 0.316,0.167 0.303,0.162 0.292,0.154 0.282,0.145 L 0.226,0.089 C 0.216,0.079 0.209,0.068 0.203,0.055 0.198,0.042 0.195,0.029 0.195,0.015 0.195,0 0.198,-0.013 0.203,-0.026 0.208,-0.039 0.216,-0.05 0.226,-0.06 L 0.482,-0.316 H 0.307 L 0.125,-0.498 V -0.626 L 0.196,-0.697 C 0.195,-0.699 0.195,-0.701 0.195,-0.703 v -0.005 c 0,-0.012 0.002,-0.022 0.006,-0.031 0.004,-0.009 0.009,-0.018 0.015,-0.026 0.006,-0.009 0.012,-0.016 0.02,-0.024 l 0.03,-0.028 c 0.011,-0.009 0.021,-0.016 0.031,-0.02 0.01,-0.003 0.022,-0.005 0.036,-0.005 h 0.004 c 0.001,0 0.003,0 0.004,0.001 L 0.412,-0.913 H 0.54 l 0.164,0.164 0.164,-0.164 h 0.128 l 0.071,0.072 c 0.005,-0.001 0.009,-0.002 0.013,-0.002 0.011,0 0.022,0.003 0.033,0.008 0.012,0.004 0.021,0.011 0.029,0.018 l 0.045,0.046 c 0.008,0.008 0.015,0.018 0.019,0.028 0.005,0.011 0.007,0.022 0.007,0.034 0,0.009 -0.001,0.017 -0.004,0.026 -0.002,0.008 -0.006,0.016 -0.011,0.023 0.005,0.016 0.008,0.032 0.011,0.049 0.003,0.016 0.004,0.033 0.004,0.049 0,0.042 -0.008,0.083 -0.023,0.122 -0.015,0.039 -0.037,0.073 -0.067,0.103 z"
         style="fill-rule:nonzero"
         id="path17094" /><path
         d="m 1.052,0.105 c -0.01,0 -0.018,-0.003 -0.025,-0.01 L 0.687,-0.246 C 0.683,-0.249 0.68,-0.254 0.677,-0.26 L 0.66,-0.302 C 0.657,-0.308 0.654,-0.313 0.651,-0.316 L 0.271,-0.697 C 0.267,-0.7 0.265,-0.704 0.265,-0.709 c 0,-0.005 0.002,-0.009 0.006,-0.013 l 0.045,-0.045 c 0.003,-0.003 0.007,-0.005 0.012,-0.005 0.005,0 0.01,0.002 0.013,0.005 l 0.381,0.381 c 0.001,0.001 0.004,0.003 0.011,0.006 0.007,0.004 0.014,0.007 0.022,0.011 0.008,0.004 0.015,0.008 0.022,0.011 0.008,0.004 0.012,0.006 0.015,0.007 l 0.34,0.341 c 0.007,0.007 0.011,0.015 0.011,0.025 0,0.009 -0.004,0.017 -0.011,0.024 L 1.077,0.095 C 1.07,0.102 1.062,0.105 1.052,0.105 Z"
         style="fill:#d48c00;fill-rule:nonzero"
         id="path17096" /><path
         d="m 0.356,0.105 c -0.01,0 -0.018,-0.003 -0.025,-0.01 L 0.276,0.039 C 0.273,0.036 0.27,0.032 0.268,0.028 0.266,0.024 0.265,0.019 0.265,0.015 0.265,0.01 0.266,0.006 0.268,0.001 0.27,-0.003 0.273,-0.007 0.276,-0.01 l 0.34,-0.341 C 0.619,-0.354 0.624,-0.357 0.63,-0.36 0.637,-0.362 0.644,-0.365 0.651,-0.368 0.658,-0.371 0.665,-0.374 0.672,-0.377 0.679,-0.38 0.684,-0.383 0.687,-0.386 l 0.38,-0.381 c 0.004,-0.003 0.008,-0.005 0.013,-0.005 0.005,0 0.009,0.002 0.012,0.005 l 0.046,0.045 c 0.003,0.004 0.005,0.008 0.005,0.013 0,0.005 -0.002,0.009 -0.005,0.012 L 0.757,-0.316 C 0.754,-0.313 0.751,-0.308 0.748,-0.302 0.745,-0.295 0.742,-0.288 0.739,-0.281 0.736,-0.273 0.733,-0.266 0.73,-0.26 0.727,-0.253 0.725,-0.249 0.722,-0.246 L 0.381,0.095 C 0.374,0.102 0.366,0.105 0.356,0.105 Z"
         style="fill:#eba300;fill-rule:nonzero"
         id="path17098" /><path
         d="m 0.195,-0.526 v -0.071 l 0.091,-0.004 0.125,0.11 -0.005,0.105 H 0.335 Z m 0.246,-0.316 h 0.07 l 0.14,0.14 v 0.07 H 0.547 l -0.106,-0.12 z"
         style="fill:#e5e5e5;fill-rule:nonzero"
         id="path17100" /><path
         d="m 0.967,-0.842 0.106,0.105 c 0.011,0.011 0.021,0.023 0.029,0.037 0.009,0.014 0.016,0.028 0.022,0.044 0.006,0.015 0.011,0.031 0.014,0.047 0.003,0.016 0.005,0.032 0.005,0.047 0,0.033 -0.006,0.065 -0.018,0.095 -0.012,0.031 -0.029,0.058 -0.052,0.081 L 1.038,-0.351 0.757,-0.632 0.783,-0.707 0.888,-0.815 Z"
         style="fill:#f2f2f2;fill-rule:nonzero"
         id="path17102" /><path
         d="m 0.195,-0.597 0.246,-0.245 0.21,0.21 -0.245,0.246 z"
         style="fill:#cccccc;fill-rule:nonzero"
         id="path17104" /><path
         d="m 0.897,-0.842 h 0.07 l -0.21,0.21 v -0.07 z"
         style="fill:#a6a6a6;fill-rule:nonzero"
         id="path17106" /></g></g></svg>
