<?xml version="1.0" encoding="UTF-8" standalone="no"?>
<svg
   width="16.754999"
   height="16.754999"
   viewBox="0 0 16.754999 16.754999"
   version="1.1"
   xml:space="preserve"
   style="clip-rule:evenodd;fill-rule:evenodd;stroke-linejoin:round;stroke-miterlimit:2"
   id="svg20568"
   sodipodi:docname="emojis.svg"
   xmlns:inkscape="http://www.inkscape.org/namespaces/inkscape"
   xmlns:sodipodi="http://sodipodi.sourceforge.net/DTD/sodipodi-0.dtd"
   xmlns="http://www.w3.org/2000/svg"
   xmlns:svg="http://www.w3.org/2000/svg"><defs
     id="defs20572" /><sodipodi:namedview
     id="namedview20570"
     pagecolor="#505050"
     bordercolor="#eeeeee"
     borderopacity="1"
     inkscape:pageshadow="0"
     inkscape:pageopacity="0"
     inkscape:pagecheckerboard="0" /><g
     transform="matrix(0.24,0,0,0.24,-253.5366,-834.339)"
     id="g20566"><g
       transform="matrix(62.5,0,0,62.5,1048.59,3533.1)"
       id="g17164"><path
         d="m 1.178,-0.749 0.064,0.064 -0.064,0.065 v 0.094 h -0.15 c 0.005,0.008 0.009,0.017 0.012,0.025 0.003,0.009 0.007,0.017 0.01,0.026 L 1,-0.425 c 0.013,0.028 0.022,0.058 0.028,0.088 0.007,0.03 0.01,0.06 0.01,0.091 0,0.042 -0.006,0.083 -0.017,0.121 C 1.01,-0.086 0.995,-0.049 0.975,-0.016 0.955,0.018 0.931,0.049 0.904,0.077 0.876,0.104 0.845,0.128 0.811,0.148 0.777,0.168 0.741,0.183 0.702,0.194 0.663,0.205 0.623,0.21 0.581,0.21 0.539,0.21 0.499,0.205 0.46,0.194 0.421,0.183 0.385,0.168 0.351,0.148 0.317,0.128 0.286,0.104 0.259,0.077 0.231,0.049 0.207,0.018 0.187,-0.016 0.168,-0.049 0.152,-0.086 0.141,-0.125 0.13,-0.163 0.125,-0.204 0.125,-0.246 c 0,-0.042 0.005,-0.082 0.016,-0.121 0.011,-0.038 0.027,-0.075 0.046,-0.109 0.02,-0.033 0.044,-0.064 0.072,-0.092 0.027,-0.028 0.058,-0.052 0.092,-0.072 0.034,-0.02 0.07,-0.035 0.109,-0.046 0.039,-0.011 0.079,-0.016 0.121,-0.016 0.031,0 0.061,0.003 0.092,0.009 0.03,0.006 0.059,0.016 0.088,0.028 l 0.05,-0.05 c 0.008,0.004 0.017,0.007 0.025,0.01 0.009,0.004 0.017,0.008 0.026,0.012 v -0.149 h 0.094 l 0.064,-0.065 0.064,0.065 h 0.094 z"
         style="fill-rule:nonzero"
         id="path17148" /><path
         d="M 0.954,-0.654 0.989,-0.619 0.897,-0.526 0.862,-0.562 Z"
         style="fill:#cccccc;fill-rule:nonzero"
         id="path17150" /><path
         d="m 0.827,-0.632 c 0.031,0.013 0.059,0.032 0.084,0.057 0.024,0.024 0.043,0.052 0.056,0.084 -0.004,0.003 -0.008,0.007 -0.012,0.011 -0.004,0.004 -0.008,0.008 -0.012,0.012 l -0.046,0.047 -0.14,-0.141 z"
         style="fill:#757575;fill-rule:nonzero"
         id="path17152" /><path
         d="m 1.107,-0.72 0.036,0.035 -0.036,0.036 v 0.052 H 1.029 C 1.026,-0.597 1.021,-0.598 1.013,-0.601 1.005,-0.604 0.996,-0.608 0.987,-0.612 0.978,-0.616 0.969,-0.62 0.961,-0.624 0.953,-0.627 0.947,-0.63 0.944,-0.632 0.942,-0.642 0.939,-0.652 0.936,-0.662 0.934,-0.673 0.932,-0.683 0.932,-0.693 v -0.079 h 0.053 l 0.035,-0.035 0.035,0.035 h 0.052 z"
         style="fill:#e81224;fill-rule:nonzero"
         id="path17154" /><path
         d="m 1.038,-0.658 0.026,0.026 -0.035,0.035 H 0.967 L 0.932,-0.632 v -0.061 l 0.035,-0.036 0.027,0.027 h 0.044 z"
         style="fill:#ffc83d;fill-rule:nonzero"
         id="path17156" /><path
         d="m 0.967,-0.667 h 0.035 v 0.035 c 0,0.01 -0.003,0.018 -0.01,0.025 -0.007,0.007 -0.015,0.01 -0.025,0.01 -0.009,0 -0.018,-0.003 -0.025,-0.01 -0.006,-0.007 -0.01,-0.015 -0.01,-0.025 0,-0.01 0.004,-0.018 0.01,-0.025 0.007,-0.007 0.016,-0.01 0.025,-0.01 z"
         style="fill:#ffffff;fill-rule:nonzero"
         id="path17158" /><path
         d="m 0.967,-0.246 c 0,0.036 -0.004,0.07 -0.014,0.103 C 0.944,-0.11 0.931,-0.08 0.914,-0.051 0.898,-0.023 0.877,0.003 0.854,0.027 0.831,0.051 0.805,0.071 0.776,0.088 0.747,0.104 0.716,0.117 0.684,0.126 0.651,0.136 0.617,0.14 0.581,0.14 0.528,0.14 0.478,0.13 0.431,0.11 0.384,0.09 0.343,0.062 0.308,0.027 0.273,-0.008 0.246,-0.049 0.226,-0.095 0.205,-0.142 0.195,-0.192 0.195,-0.246 c 0,-0.035 0.005,-0.069 0.014,-0.102 0.009,-0.033 0.022,-0.064 0.039,-0.092 0.017,-0.029 0.037,-0.055 0.06,-0.079 0.024,-0.023 0.05,-0.043 0.078,-0.06 0.029,-0.017 0.06,-0.03 0.093,-0.039 0.032,-0.009 0.067,-0.014 0.102,-0.014 0.036,0 0.07,0.005 0.103,0.014 0.032,0.009 0.063,0.022 0.092,0.039 0.029,0.016 0.055,0.037 0.078,0.06 0.024,0.024 0.044,0.05 0.061,0.079 0.017,0.028 0.029,0.059 0.039,0.092 0.009,0.033 0.013,0.067 0.013,0.102 z"
         style="fill:#383838;fill-rule:nonzero"
         id="path17160" /><path
         d="m 0.476,-0.421 c 0,0.009 -0.002,0.018 -0.006,0.027 -0.003,0.008 -0.008,0.016 -0.015,0.022 -0.006,0.007 -0.013,0.012 -0.022,0.015 -0.008,0.004 -0.017,0.006 -0.027,0.006 -0.01,0 -0.019,-0.002 -0.028,-0.006 C 0.37,-0.36 0.363,-0.365 0.356,-0.372 0.35,-0.378 0.345,-0.386 0.341,-0.394 0.337,-0.403 0.335,-0.412 0.335,-0.421 c 0,-0.01 0.002,-0.019 0.006,-0.028 0.004,-0.008 0.009,-0.016 0.015,-0.022 0.007,-0.006 0.014,-0.011 0.022,-0.015 0.009,-0.003 0.018,-0.005 0.028,-0.005 0.01,0 0.019,0.002 0.027,0.005 0.009,0.004 0.016,0.009 0.022,0.015 0.007,0.006 0.012,0.014 0.015,0.022 0.004,0.009 0.006,0.018 0.006,0.028 z"
         style="fill:#757575;fill-rule:nonzero"
         id="path17162" /></g></g></svg>
