<?xml version="1.0" encoding="UTF-8" standalone="no"?>
<svg
   width="16.844999"
   height="16.844999"
   viewBox="0 0 16.844999 16.844999"
   version="1.1"
   xml:space="preserve"
   style="clip-rule:evenodd;fill-rule:evenodd;stroke-linejoin:round;stroke-miterlimit:2"
   id="svg20568"
   sodipodi:docname="emojis.svg"
   xmlns:inkscape="http://www.inkscape.org/namespaces/inkscape"
   xmlns:sodipodi="http://sodipodi.sourceforge.net/DTD/sodipodi-0.dtd"
   xmlns="http://www.w3.org/2000/svg"
   xmlns:svg="http://www.w3.org/2000/svg"><defs
     id="defs20572" /><sodipodi:namedview
     id="namedview20570"
     pagecolor="#505050"
     bordercolor="#eeeeee"
     borderopacity="1"
     inkscape:pageshadow="0"
     inkscape:pageopacity="0"
     inkscape:pagecheckerboard="0" /><g
     transform="matrix(0.24,0,0,0.24,-232.94004,-834.249)"
     id="g20566"><g
       transform="matrix(62.5,0,0,62.5,962.771,3533.1)"
       id="g17146"><path
         d="m 1.248,-0.673 -0.287,0.287 h 0.146 v 0.07 c 0,0.031 -0.003,0.061 -0.01,0.09 -0.007,0.029 -0.017,0.058 -0.031,0.085 l 0.071,0.071 c 0.015,0 0.029,0.003 0.043,0.008 0.013,0.006 0.025,0.014 0.035,0.024 0.01,0.01 0.018,0.022 0.024,0.036 C 1.245,0.011 1.248,0.026 1.248,0.041 1.248,0.056 1.245,0.07 1.24,0.084 1.234,0.097 1.226,0.109 1.215,0.12 L 1.157,0.178 C 1.147,0.188 1.135,0.196 1.121,0.202 1.108,0.208 1.094,0.21 1.079,0.21 1.063,0.21 1.049,0.208 1.035,0.202 1.022,0.196 1.01,0.188 1,0.178 0.99,0.168 0.982,0.156 0.976,0.142 0.97,0.129 0.967,0.114 0.967,0.099 L 0.896,0.028 C 0.876,0.039 0.856,0.047 0.837,0.052 0.819,0.058 0.8,0.062 0.782,0.065 0.764,0.068 0.745,0.069 0.725,0.07 c -0.019,0 -0.04,0 -0.062,0 H 0.651 C 0.621,0.07 0.591,0.067 0.562,0.06 0.532,0.052 0.504,0.042 0.477,0.028 L 0.406,0.099 c 0,0.016 -0.003,0.03 -0.009,0.044 C 0.391,0.156 0.383,0.168 0.373,0.177 0.363,0.187 0.352,0.195 0.338,0.201 0.325,0.207 0.31,0.209 0.294,0.209 0.28,0.209 0.266,0.207 0.252,0.201 0.238,0.196 0.226,0.188 0.216,0.178 L 0.158,0.12 C 0.147,0.109 0.139,0.097 0.134,0.084 0.128,0.07 0.125,0.056 0.125,0.041 0.125,0.026 0.128,0.011 0.134,-0.002 0.14,-0.016 0.148,-0.028 0.158,-0.038 0.168,-0.048 0.18,-0.056 0.193,-0.062 0.207,-0.067 0.221,-0.07 0.236,-0.07 L 0.307,-0.141 C 0.297,-0.162 0.289,-0.182 0.283,-0.2 0.277,-0.219 0.273,-0.237 0.271,-0.256 0.268,-0.274 0.266,-0.293 0.266,-0.312 0.265,-0.332 0.265,-0.352 0.265,-0.375 V -0.386 H 0.412 L 0.125,-0.673 v -0.24 h 0.24 l 0.322,0.322 0.321,-0.322 h 0.24 z"
         style="fill-rule:nonzero"
         id="path17136" /><path
         d="M 1.178,-0.702 0.827,-0.351 0.901,-0.137 0.831,-0.066 0.687,-0.21 0.539,-0.063 0.434,-0.148 1.063,-0.787 1.091,-0.8 c 0.008,-0.004 0.017,-0.009 0.026,-0.013 0.01,-0.005 0.019,-0.009 0.027,-0.013 L 1.178,-0.842 Z M 0.664,-0.42 0.546,-0.351 0.195,-0.702 v -0.14 l 0.151,0.051 z"
         style="fill:#a6a6a6;fill-rule:nonzero"
         id="path17138" /><path
         d="M 1.178,-0.842 0.464,-0.128 0.394,-0.199 0.616,-0.421 0.195,-0.842 h 0.14 l 0.352,0.351 0.351,-0.351 z m -0.202,0.64 -0.07,0.071 -0.149,-0.15 0.07,-0.07 z"
         style="fill:#f2f2f2;fill-rule:nonzero"
         id="path17140" /><path
         d="m 1.073,0.105 -0.211,-0.21 0.07,-0.071 0.211,0.211 z M 0.23,0.035 0.441,-0.176 0.511,-0.105 0.3,0.105 Z"
         style="fill:#8e562e;fill-rule:nonzero"
         id="path17142" /><path
         d="M 0.651,0 C 0.622,0 0.594,-0.004 0.567,-0.011 0.54,-0.019 0.515,-0.029 0.492,-0.043 0.469,-0.057 0.447,-0.074 0.428,-0.093 0.409,-0.112 0.392,-0.133 0.379,-0.156 0.365,-0.18 0.354,-0.205 0.347,-0.232 0.339,-0.259 0.335,-0.287 0.335,-0.316 h 0.106 c 0,0.029 0.005,0.056 0.017,0.082 0.011,0.025 0.026,0.048 0.045,0.067 0.019,0.019 0.041,0.034 0.067,0.045 0.025,0.011 0.052,0.017 0.081,0.017 z m 0.071,-0.105 c 0.029,0 0.056,-0.006 0.081,-0.017 0.026,-0.011 0.048,-0.026 0.067,-0.045 0.019,-0.019 0.034,-0.042 0.046,-0.067 0.011,-0.026 0.016,-0.053 0.016,-0.082 h 0.106 c 0,0.029 -0.004,0.057 -0.012,0.084 -0.007,0.027 -0.018,0.052 -0.032,0.076 -0.013,0.023 -0.03,0.044 -0.049,0.063 -0.019,0.019 -0.041,0.036 -0.064,0.05 C 0.858,-0.029 0.833,-0.019 0.806,-0.011 0.779,-0.004 0.751,0 0.722,0 Z M 1.137,0 C 1.148,0 1.158,0.004 1.166,0.012 1.174,0.02 1.178,0.029 1.178,0.041 1.178,0.047 1.177,0.052 1.175,0.057 1.173,0.062 1.17,0.066 1.166,0.07 L 1.107,0.128 C 1.099,0.137 1.09,0.141 1.079,0.141 1.067,0.141 1.057,0.137 1.049,0.128 1.041,0.12 1.037,0.111 1.037,0.099 1.037,0.088 1.041,0.078 1.049,0.07 L 1.107,0.012 C 1.111,0.008 1.116,0.005 1.121,0.003 1.126,0.001 1.131,0 1.137,0 Z M 0.195,0.041 C 0.195,0.03 0.199,0.02 0.207,0.012 0.215,0.004 0.225,0 0.236,0 0.248,0 0.257,0.004 0.265,0.012 L 0.324,0.07 C 0.332,0.078 0.335,0.088 0.335,0.099 0.335,0.111 0.331,0.12 0.323,0.128 0.316,0.137 0.306,0.141 0.294,0.141 0.283,0.141 0.273,0.137 0.265,0.128 L 0.207,0.07 C 0.199,0.062 0.195,0.052 0.195,0.041 Z"
         style="fill:#ffc83d;fill-rule:nonzero"
         id="path17144" /></g></g></svg>
