<?xml version="1.0" encoding="UTF-8" standalone="no"?>
<svg
   width="16.844999"
   height="16.844999"
   viewBox="0 0 16.844999 16.844999"
   version="1.1"
   xml:space="preserve"
   style="clip-rule:evenodd;fill-rule:evenodd;stroke-linejoin:round;stroke-miterlimit:2"
   id="svg20568"
   sodipodi:docname="emojis.svg"
   xmlns:inkscape="http://www.inkscape.org/namespaces/inkscape"
   xmlns:sodipodi="http://sodipodi.sourceforge.net/DTD/sodipodi-0.dtd"
   xmlns="http://www.w3.org/2000/svg"
   xmlns:svg="http://www.w3.org/2000/svg"><defs
     id="defs20572" /><sodipodi:namedview
     id="namedview20570"
     pagecolor="#505050"
     bordercolor="#eeeeee"
     borderopacity="1"
     inkscape:pageshadow="0"
     inkscape:pageopacity="0"
     inkscape:pagecheckerboard="0" /><g
     transform="matrix(0.24,0,0,0.24,-738.0558,-127.68924)"
     id="g20566"><g
       transform="matrix(62.5,0,0,62.5,3067.42,589.101)"
       id="g1726"><path
         d="M 0.687,0.21 C 0.65,0.21 0.614,0.207 0.578,0.201 0.543,0.195 0.508,0.186 0.473,0.175 0.439,0.165 0.405,0.152 0.371,0.137 0.338,0.123 0.305,0.107 0.273,0.09 0.257,0.082 0.242,0.074 0.229,0.066 0.215,0.059 0.203,0.05 0.191,0.04 0.17,0.023 0.154,0.004 0.142,-0.016 0.131,-0.036 0.125,-0.06 0.125,-0.088 c 0,-0.007 0.001,-0.015 0.002,-0.021 0.001,-0.007 0.002,-0.014 0.004,-0.021 l 0.16,-0.596 C 0.298,-0.753 0.309,-0.779 0.324,-0.802 0.339,-0.824 0.357,-0.844 0.378,-0.861 0.398,-0.877 0.422,-0.89 0.447,-0.899 0.473,-0.908 0.5,-0.913 0.529,-0.913 h 0.087 c 0.02,0 0.038,0.004 0.055,0.011 0.017,0.008 0.032,0.018 0.045,0.03 0.013,0.013 0.023,0.028 0.03,0.045 0.007,0.017 0.011,0.035 0.011,0.055 v 0.14 c 0,0.015 -0.003,0.028 -0.008,0.041 -0.006,0.013 -0.014,0.024 -0.023,0.034 -0.01,0.009 -0.021,0.017 -0.034,0.022 -0.012,0.006 -0.026,0.009 -0.041,0.009 H 0.546 v 0.247 c 0.003,-0.003 0.007,-0.007 0.01,-0.01 0.003,-0.004 0.006,-0.007 0.009,-0.011 0.02,-0.021 0.04,-0.041 0.059,-0.06 0.02,-0.019 0.04,-0.036 0.062,-0.05 0.022,-0.014 0.046,-0.026 0.071,-0.034 0.026,-0.008 0.055,-0.013 0.087,-0.013 H 0.95 c 0.041,0 0.079,0.008 0.116,0.024 0.036,0.016 0.068,0.037 0.095,0.064 0.027,0.027 0.048,0.059 0.064,0.095 0.015,0.036 0.023,0.075 0.023,0.116 0,0.029 -0.004,0.056 -0.011,0.082 C 1.229,-0.05 1.219,-0.025 1.205,-0.003 1.191,0.02 1.174,0.04 1.154,0.058 1.134,0.077 1.111,0.093 1.086,0.107 1.075,0.113 1.063,0.119 1.051,0.124 1.039,0.129 1.027,0.134 1.014,0.138 0.988,0.148 0.962,0.157 0.935,0.166 0.908,0.175 0.881,0.183 0.854,0.189 0.826,0.196 0.799,0.201 0.771,0.205 0.743,0.209 0.715,0.21 0.687,0.21 Z"
         style="fill-rule:nonzero"
         id="path1720" /><path
         d="m 0.95,-0.386 c 0.031,0 0.061,0.006 0.089,0.018 0.027,0.011 0.051,0.028 0.072,0.048 0.021,0.021 0.037,0.045 0.049,0.073 0.012,0.028 0.018,0.057 0.018,0.089 0,0.021 -0.003,0.042 -0.009,0.062 -0.006,0.02 -0.014,0.039 -0.024,0.057 C 1.134,-0.021 1.121,-0.006 1.105,0.009 1.09,0.023 1.073,0.035 1.054,0.045 1.03,0.057 1.003,0.069 0.971,0.081 0.94,0.092 0.908,0.103 0.875,0.111 0.842,0.12 0.809,0.127 0.776,0.132 0.743,0.138 0.714,0.14 0.687,0.14 0.659,0.14 0.632,0.138 0.605,0.134 0.579,0.13 0.552,0.124 0.526,0.117 0.5,0.11 0.474,0.102 0.448,0.093 0.423,0.083 0.398,0.072 0.374,0.061 0.358,0.054 0.343,0.047 0.33,0.041 0.317,0.035 0.304,0.029 0.292,0.022 0.281,0.016 0.27,0.01 0.26,0.003 0.25,-0.003 0.24,-0.01 0.231,-0.018 0.22,-0.027 0.211,-0.037 0.205,-0.048 c -0.007,-0.011 -0.01,-0.025 -0.01,-0.04 0,-0.004 0.001,-0.008 0.001,-0.012 0.001,-0.004 0.002,-0.007 0.003,-0.011 l 0.159,-0.597 c 0.006,-0.02 0.014,-0.038 0.024,-0.054 0.011,-0.017 0.023,-0.031 0.038,-0.043 0.015,-0.012 0.032,-0.021 0.05,-0.028 0.018,-0.006 0.038,-0.009 0.059,-0.009 h 0.087 c 0.01,0 0.019,0.002 0.028,0.005 0.008,0.004 0.015,0.009 0.022,0.015 0.006,0.007 0.011,0.014 0.015,0.023 0.004,0.008 0.006,0.017 0.006,0.027 v 0.07 l -0.009,0.018 0.009,0.017 v 0.035 c 0,0.01 -0.004,0.018 -0.011,0.025 -0.007,0.007 -0.015,0.01 -0.025,0.01 H 0.476 v 0.406 c 0,0.01 0.003,0.018 0.01,0.025 0.007,0.007 0.015,0.01 0.025,0.01 0.004,0 0.008,0 0.012,-0.002 0.004,-0.001 0.007,-0.003 0.01,-0.006 L 0.68,-0.316 c 0.022,-0.022 0.047,-0.04 0.075,-0.052 0.028,-0.012 0.058,-0.018 0.089,-0.018 z"
         style="fill:#ffc83d;fill-rule:nonzero"
         id="path1722" /><path
         d="m 0.985,-0.21 c 0.004,0 0.008,0.001 0.012,0.005 0.004,0.003 0.005,0.007 0.005,0.012 0,0.021 -0.004,0.042 -0.012,0.061 -0.008,0.019 -0.02,0.036 -0.034,0.05 -0.014,0.015 -0.031,0.026 -0.05,0.034 -0.019,0.009 -0.04,0.013 -0.062,0.013 H 0.669 C 0.664,-0.035 0.66,-0.037 0.656,-0.04 0.653,-0.044 0.651,-0.048 0.651,-0.053 0.651,-0.058 0.653,-0.062 0.656,-0.065 0.66,-0.069 0.664,-0.07 0.669,-0.07 h 0.175 c 0.017,0 0.033,-0.004 0.048,-0.01 0.015,-0.007 0.028,-0.015 0.039,-0.026 0.011,-0.012 0.02,-0.025 0.027,-0.04 0.006,-0.014 0.009,-0.03 0.009,-0.047 0,-0.005 0.002,-0.009 0.006,-0.012 C 0.976,-0.209 0.98,-0.21 0.985,-0.21 Z M 0.687,-0.702 v 0.035 H 0.529 C 0.521,-0.667 0.514,-0.668 0.508,-0.671 0.502,-0.674 0.496,-0.678 0.491,-0.682 0.487,-0.687 0.483,-0.693 0.48,-0.699 0.477,-0.705 0.476,-0.712 0.476,-0.72 c 0,-0.007 0.001,-0.014 0.004,-0.02 0.003,-0.007 0.007,-0.012 0.012,-0.017 0.005,-0.004 0.01,-0.008 0.017,-0.011 0.006,-0.003 0.013,-0.004 0.02,-0.004 0.007,0 0.014,0.001 0.02,0.004 0.006,0.003 0.012,0.007 0.017,0.011 0.004,0.005 0.008,0.011 0.011,0.017 0.003,0.006 0.004,0.013 0.004,0.02 v 0.018 z"
         style="fill:#d48c00;fill-rule:nonzero"
         id="path1724" /></g></g></svg>
