<?xml version="1.0" encoding="UTF-8" standalone="no"?>
<svg
   width="16.844999"
   height="16.844999"
   viewBox="0 0 16.844999 16.844999"
   version="1.1"
   xml:space="preserve"
   style="clip-rule:evenodd;fill-rule:evenodd;stroke-linejoin:round;stroke-miterlimit:2"
   id="svg20568"
   sodipodi:docname="emojis.svg"
   xmlns:inkscape="http://www.inkscape.org/namespaces/inkscape"
   xmlns:sodipodi="http://sodipodi.sourceforge.net/DTD/sodipodi-0.dtd"
   xmlns="http://www.w3.org/2000/svg"
   xmlns:svg="http://www.w3.org/2000/svg"><defs
     id="defs20572" /><sodipodi:namedview
     id="namedview20570"
     pagecolor="#505050"
     bordercolor="#eeeeee"
     borderopacity="1"
     inkscape:pageshadow="0"
     inkscape:pageopacity="0"
     inkscape:pagecheckerboard="0" /><g
     transform="matrix(0.24,0,0,0.24,-294.7278,-834.249)"
     id="g20566"><g
       transform="matrix(62.5,0,0,62.5,1220.22,3533.1)"
       id="g17204"><path
         d="M 0.302,0.034 H 0.145 C 0.139,0.034 0.134,0.032 0.131,0.028 0.127,0.024 0.125,0.02 0.125,0.014 0.125,0.009 0.127,0.004 0.131,0 L 0.334,-0.203 0.347,-0.207 0.202,-0.497 C 0.191,-0.5 0.18,-0.505 0.171,-0.512 0.162,-0.518 0.154,-0.526 0.147,-0.535 0.141,-0.543 0.136,-0.553 0.132,-0.564 0.128,-0.574 0.126,-0.585 0.126,-0.597 c 0,-0.011 0.002,-0.021 0.004,-0.029 0.003,-0.008 0.007,-0.016 0.011,-0.024 0.005,-0.007 0.01,-0.014 0.016,-0.021 0.006,-0.006 0.013,-0.013 0.02,-0.02 0.029,-0.029 0.06,-0.055 0.093,-0.078 0.034,-0.023 0.069,-0.043 0.105,-0.059 0.037,-0.016 0.075,-0.028 0.114,-0.037 0.04,-0.009 0.08,-0.013 0.121,-0.013 0.052,0 0.103,0.006 0.152,0.018 0.05,0.013 0.098,0.032 0.143,0.057 C 0.91,-0.804 0.919,-0.807 0.931,-0.812 0.944,-0.816 0.958,-0.821 0.974,-0.826 0.99,-0.831 1.007,-0.837 1.026,-0.844 1.044,-0.85 1.063,-0.857 1.082,-0.863 1.101,-0.869 1.119,-0.876 1.136,-0.882 1.154,-0.888 1.17,-0.893 1.184,-0.897 1.198,-0.902 1.21,-0.906 1.22,-0.908 c 0.009,-0.003 0.015,-0.005 0.017,-0.005 0.003,0 0.006,0.001 0.008,0.004 0.002,0.002 0.003,0.004 0.003,0.008 0,0.002 -10e-4,0.007 -0.004,0.017 -0.003,0.009 -0.007,0.021 -0.011,0.035 -0.005,0.014 -0.01,0.03 -0.016,0.048 -0.006,0.018 -0.012,0.036 -0.019,0.055 -0.006,0.018 -0.012,0.037 -0.019,0.056 -0.006,0.019 -0.012,0.036 -0.018,0.052 -0.005,0.016 -0.01,0.03 -0.014,0.042 -0.004,0.012 -0.007,0.021 -0.009,0.027 0.051,0.091 0.076,0.188 0.076,0.292 0,0.084 -0.015,0.161 -0.045,0.23 -0.03,0.07 -0.074,0.135 -0.131,0.195 L 1.013,0.173 C 1.006,0.18 0.998,0.186 0.99,0.192 0.982,0.197 0.973,0.201 0.964,0.204 0.955,0.207 0.944,0.209 0.933,0.209 0.921,0.209 0.91,0.207 0.899,0.203 0.889,0.2 0.879,0.194 0.87,0.188 0.861,0.181 0.854,0.173 0.847,0.164 0.841,0.155 0.836,0.145 0.833,0.134 L 0.542,-0.011 0.539,0.001 0.335,0.205 C 0.331,0.208 0.326,0.21 0.321,0.21 0.316,0.21 0.311,0.209 0.307,0.205 0.304,0.201 0.302,0.196 0.302,0.191 Z m 0.196,-0.33 0.315,-0.316 C 0.783,-0.63 0.751,-0.644 0.716,-0.654 0.681,-0.663 0.647,-0.668 0.612,-0.668 c -0.047,0 -0.092,0.008 -0.135,0.024 -0.043,0.016 -0.083,0.039 -0.118,0.07 z M 0.91,-0.023 C 0.94,-0.059 0.964,-0.098 0.979,-0.142 0.995,-0.185 1.003,-0.23 1.003,-0.277 1.003,-0.312 0.999,-0.347 0.989,-0.381 0.98,-0.415 0.966,-0.447 0.947,-0.478 l -0.315,0.316 z"
         style="fill-rule:nonzero"
         id="path17188" /><path
         d="m 0.476,-0.167 0.022,0.014 -0.015,0.05 -0.091,0.088 -0.02,-0.022 H 0.267 l 0.105,-0.105 0.082,-0.027 z"
         style="fill:#e81224;fill-rule:nonzero"
         id="path17190" /><path
         d="M 0.976,0.088 0.936,0.107 0.501,-0.11 0.481,-0.094 0.462,-0.104 0.465,-0.129 0.464,-0.156 0.998,-0.688 1.021,-0.686 1.039,-0.668 0.514,-0.143 Z"
         style="fill:#e5e5e5;fill-rule:nonzero"
         id="path17192" /><path
         d="m 0.228,-0.602 0.02,-0.039 0.231,0.463 0.524,-0.525 0.018,0.017 -0.556,0.557 C 0.462,-0.133 0.459,-0.136 0.458,-0.14 0.456,-0.144 0.455,-0.148 0.453,-0.152 Z"
         style="fill:#f2f2f2;fill-rule:nonzero"
         id="path17194" /><path
         d="m 1.144,-0.808 -0.07,0.21 -0.071,-0.07 -0.002,-0.041 C 1.023,-0.728 1.046,-0.745 1.07,-0.762 1.093,-0.779 1.118,-0.794 1.144,-0.808 Z"
         style="fill:#cccccc;fill-rule:nonzero"
         id="path17196" /><path
         d="m 1.144,-0.808 -0.141,0.14 -0.07,-0.07 z"
         style="fill:#e5e5e5;fill-rule:nonzero"
         id="path17198" /><path
         d="m 0.612,-0.808 c 0.036,0 0.072,0.003 0.107,0.01 0.034,0.007 0.069,0.018 0.102,0.032 l 0.006,0.047 c -0.01,0 -0.02,0.001 -0.03,0.002 -0.01,0.002 -0.02,0.003 -0.03,0.005 -0.051,-0.017 -0.102,-0.026 -0.155,-0.026 -0.062,0 -0.121,0.012 -0.176,0.034 -0.055,0.023 -0.105,0.057 -0.149,0.101 l -0.031,0.03 c -0.006,0.007 -0.015,0.01 -0.025,0.01 -0.009,0 -0.017,-0.003 -0.024,-0.01 -0.007,-0.007 -0.01,-0.015 -0.01,-0.025 0,-0.005 0.001,-0.01 0.004,-0.015 0.003,-0.005 0.006,-0.01 0.01,-0.015 0.005,-0.005 0.009,-0.009 0.014,-0.014 0.004,-0.004 0.008,-0.008 0.012,-0.011 0.052,-0.05 0.11,-0.088 0.172,-0.115 0.063,-0.027 0.13,-0.04 0.203,-0.04 z m 0.49,0.323 c 0.014,0.033 0.024,0.067 0.031,0.102 0.007,0.035 0.011,0.07 0.011,0.106 0,0.073 -0.014,0.141 -0.041,0.203 C 1.076,-0.011 1.038,0.046 0.988,0.099 0.985,0.102 0.981,0.106 0.977,0.111 0.973,0.115 0.968,0.12 0.964,0.124 0.959,0.128 0.954,0.132 0.949,0.135 0.944,0.137 0.938,0.139 0.933,0.139 0.924,0.139 0.915,0.135 0.908,0.128 0.901,0.122 0.898,0.113 0.898,0.104 c 0,-0.01 0.003,-0.018 0.01,-0.025 l 0.03,-0.03 C 0.983,0.004 1.016,-0.046 1.039,-0.101 1.062,-0.156 1.074,-0.214 1.074,-0.277 1.074,-0.303 1.071,-0.329 1.067,-0.355 1.062,-0.381 1.056,-0.406 1.047,-0.431 1.049,-0.44 1.05,-0.448 1.052,-0.457 1.054,-0.466 1.055,-0.474 1.055,-0.483 v -0.005 c 0,-0.001 0,-0.003 -10e-4,-0.004 z"
         style="fill:#ca5010;fill-rule:nonzero"
         id="path17200" /><path
         d="m 0.821,-0.766 c 0.063,0.028 0.119,0.065 0.167,0.113 0.048,0.048 0.086,0.104 0.114,0.168 L 1.047,-0.431 C 1.036,-0.464 1.021,-0.494 1.002,-0.523 0.984,-0.552 0.963,-0.579 0.938,-0.603 0.914,-0.627 0.888,-0.648 0.859,-0.667 0.83,-0.685 0.799,-0.7 0.767,-0.712 Z m -0.356,0.637 c 0.001,0.001 0.003,0.002 0.007,0.004 0.003,0.002 0.006,0.004 0.01,0.006 L 0.501,-0.11 0.477,-0.037 0.372,0.069 v -0.106 z"
         style="fill:#ffb900;fill-rule:nonzero"
         id="path17202" /></g></g></svg>
