<?xml version="1.0" encoding="UTF-8" standalone="no"?>
<svg
   width="12.63"
   height="16.32"
   viewBox="0 0 12.63 16.32"
   version="1.1"
   xml:space="preserve"
   style="clip-rule:evenodd;fill-rule:evenodd;stroke-linejoin:round;stroke-miterlimit:2"
   id="svg20568"
   sodipodi:docname="emojis.svg"
   xmlns:inkscape="http://www.inkscape.org/namespaces/inkscape"
   xmlns:sodipodi="http://sodipodi.sourceforge.net/DTD/sodipodi-0.dtd"
   xmlns="http://www.w3.org/2000/svg"
   xmlns:svg="http://www.w3.org/2000/svg"><defs
     id="defs20572" /><sodipodi:namedview
     id="namedview20570"
     pagecolor="#505050"
     bordercolor="#eeeeee"
     borderopacity="1"
     inkscape:pageshadow="0"
     inkscape:pageopacity="0"
     inkscape:pagecheckerboard="0" /><g
     transform="matrix(0.24,0,0,0.24,-352.3038,-834.249)"
     id="g20566"><g
       transform="matrix(62.5,0,0,62.5,1460.12,3533.1)"
       id="g17234"><path
         d="M 0.412,0.175 0.335,0.099 V 0.07 h -0.21 v -0.421 h 0.21 v -0.14 h -0.21 v -0.422 h 0.842 v 0.422 h -0.21 v 0.14 h 0.21 V 0.07 H 0.757 V 0.099 L 0.681,0.175 Z"
         style="fill-rule:nonzero"
         id="path17222" /><path
         d="M 0.651,0.105 H 0.441 L 0.406,0.07 V -0.597 H 0.687 V 0.07 Z"
         style="fill:#e5e5e5;fill-rule:nonzero"
         id="path17224" /><path
         d="m 0.406,-0.474 c -0.005,0 -0.009,-0.002 -0.013,-0.005 -0.003,-0.004 -0.005,-0.008 -0.005,-0.013 0,-0.004 0.001,-0.008 0.004,-0.01 0.003,-0.003 0.006,-0.005 0.009,-0.006 0.002,-0.001 0.007,-0.002 0.016,-0.005 0.008,-0.002 0.019,-0.005 0.032,-0.009 0.014,-0.003 0.029,-0.007 0.045,-0.011 0.017,-0.004 0.034,-0.009 0.051,-0.013 0.017,-0.004 0.034,-0.008 0.05,-0.012 0.017,-0.004 0.032,-0.008 0.045,-0.011 0.013,-0.003 0.023,-0.005 0.032,-0.007 0.008,-0.002 0.013,-0.003 0.015,-0.003 0.004,0 0.008,0.002 0.012,0.005 0.003,0.004 0.005,0.008 0.005,0.012 0,0.005 -0.001,0.009 -0.004,0.011 -0.002,0.002 -0.005,0.005 -0.009,0.007 -0.001,0 -0.006,0.002 -0.014,0.004 -0.009,0.002 -0.02,0.005 -0.033,0.009 -0.013,0.003 -0.028,0.007 -0.044,0.011 -0.017,0.004 -0.033,0.008 -0.051,0.012 -0.017,0.004 -0.034,0.009 -0.05,0.013 -0.017,0.004 -0.032,0.007 -0.045,0.01 -0.013,0.003 -0.024,0.006 -0.033,0.008 -0.009,0.002 -0.014,0.003 -0.015,0.003 z m 0,0.07 c -0.005,0 -0.009,-0.002 -0.012,-0.005 -0.004,-0.004 -0.006,-0.008 -0.006,-0.012 0,-0.006 0.001,-0.009 0.004,-0.011 0.002,-0.002 0.005,-0.005 0.009,-0.006 0.001,-0.001 0.006,-0.003 0.015,-0.005 0.008,-0.002 0.019,-0.005 0.032,-0.008 0.013,-0.004 0.028,-0.008 0.045,-0.012 l 0.101,-0.025 c 0.017,-0.004 0.032,-0.007 0.045,-0.01 0.014,-0.003 0.024,-0.006 0.033,-0.008 0.008,-0.002 0.013,-0.003 0.015,-0.003 0.004,0 0.008,0.002 0.012,0.006 0.003,0.003 0.005,0.007 0.005,0.012 0,0.005 -0.001,0.009 -0.004,0.011 C 0.698,-0.479 0.695,-0.477 0.691,-0.475 0.69,-0.474 0.685,-0.472 0.676,-0.47 0.667,-0.468 0.656,-0.465 0.643,-0.461 0.63,-0.458 0.615,-0.454 0.599,-0.45 0.582,-0.445 0.566,-0.441 0.548,-0.437 0.531,-0.433 0.514,-0.429 0.498,-0.425 0.481,-0.421 0.467,-0.417 0.453,-0.414 0.44,-0.411 0.429,-0.409 0.421,-0.407 0.412,-0.405 0.407,-0.404 0.406,-0.404 Z m 0,-0.14 c -0.005,0 -0.009,-0.002 -0.013,-0.005 -0.003,-0.003 -0.005,-0.008 -0.005,-0.013 0,-0.004 0.001,-0.008 0.004,-0.01 0.002,-0.003 0.005,-0.005 0.009,-0.007 0.001,0 0.006,-0.002 0.015,-0.004 0.008,-0.002 0.019,-0.005 0.032,-0.009 0.014,-0.003 0.028,-0.007 0.045,-0.011 0.016,-0.004 0.033,-0.008 0.05,-0.013 0.018,-0.004 0.035,-0.008 0.051,-0.012 0.017,-0.004 0.032,-0.008 0.045,-0.011 0.013,-0.003 0.024,-0.006 0.032,-0.007 0.009,-0.002 0.014,-0.003 0.015,-0.003 0.005,0 0.009,0.001 0.013,0.005 0.003,0.003 0.005,0.007 0.005,0.012 0,0.005 -0.001,0.009 -0.003,0.011 -0.003,0.002 -0.006,0.004 -0.009,0.006 -0.001,0 -0.006,0.001 -0.014,0.003 C 0.669,-0.61 0.658,-0.607 0.645,-0.604 0.632,-0.601 0.617,-0.597 0.6,-0.593 L 0.498,-0.566 C 0.481,-0.562 0.466,-0.558 0.453,-0.555 0.439,-0.552 0.428,-0.549 0.42,-0.547 0.411,-0.545 0.407,-0.544 0.406,-0.544 Z m 0,0.281 c -0.005,0 -0.009,-0.002 -0.013,-0.005 -0.003,-0.004 -0.005,-0.008 -0.005,-0.013 0,-0.005 0.001,-0.008 0.004,-0.011 0.002,-0.002 0.005,-0.004 0.009,-0.006 0.001,-0.001 0.006,-0.002 0.015,-0.004 0.008,-0.003 0.019,-0.005 0.032,-0.009 0.013,-0.003 0.028,-0.007 0.045,-0.011 0.017,-0.004 0.034,-0.009 0.051,-0.013 0.017,-0.004 0.034,-0.008 0.051,-0.012 0.016,-0.004 0.031,-0.008 0.044,-0.011 0.014,-0.003 0.024,-0.006 0.033,-0.008 0.009,-0.002 0.014,-0.003 0.015,-0.003 0.004,0 0.008,0.002 0.012,0.006 0.003,0.003 0.005,0.007 0.005,0.012 0,0.005 -0.001,0.008 -0.003,0.01 -0.003,0.003 -0.006,0.005 -0.009,0.007 -0.001,0 -0.006,0.001 -0.014,0.003 -0.009,0.002 -0.02,0.005 -0.033,0.008 C 0.632,-0.32 0.617,-0.316 0.6,-0.312 L 0.498,-0.286 C 0.481,-0.281 0.466,-0.278 0.453,-0.274 0.439,-0.271 0.428,-0.268 0.42,-0.266 0.411,-0.264 0.407,-0.263 0.406,-0.263 Z m 0,0.07 c -0.005,0 -0.009,-0.002 -0.013,-0.005 -0.003,-0.004 -0.005,-0.008 -0.005,-0.013 0,-0.004 0.001,-0.008 0.004,-0.01 0.003,-0.003 0.006,-0.005 0.009,-0.007 0.002,0 0.007,-0.002 0.016,-0.004 0.008,-0.003 0.019,-0.006 0.032,-0.009 0.014,-0.003 0.029,-0.007 0.045,-0.011 0.017,-0.005 0.034,-0.009 0.051,-0.013 0.017,-0.004 0.034,-0.008 0.05,-0.012 0.017,-0.004 0.032,-0.008 0.045,-0.011 0.013,-0.003 0.023,-0.005 0.032,-0.007 0.008,-0.002 0.013,-0.003 0.015,-0.003 0.004,0 0.008,0.001 0.012,0.005 0.003,0.004 0.005,0.008 0.005,0.012 0,0.005 -0.001,0.009 -0.004,0.011 C 0.698,-0.268 0.695,-0.266 0.691,-0.264 0.69,-0.263 0.685,-0.262 0.677,-0.259 0.668,-0.257 0.657,-0.254 0.644,-0.251 0.631,-0.247 0.616,-0.244 0.6,-0.24 0.583,-0.235 0.567,-0.231 0.549,-0.227 0.532,-0.223 0.515,-0.219 0.499,-0.215 0.482,-0.211 0.467,-0.207 0.454,-0.204 0.441,-0.201 0.43,-0.198 0.421,-0.196 0.412,-0.194 0.407,-0.193 0.406,-0.193 Z m 0,-0.14 c -0.005,0 -0.009,-0.002 -0.012,-0.006 -0.004,-0.003 -0.006,-0.008 -0.006,-0.012 0,-0.005 0.001,-0.008 0.004,-0.011 0.002,-0.002 0.005,-0.004 0.009,-0.006 0.002,-0.001 0.007,-0.002 0.015,-0.005 0.009,-0.002 0.02,-0.005 0.033,-0.009 0.014,-0.003 0.028,-0.007 0.045,-0.011 0.016,-0.004 0.033,-0.009 0.05,-0.013 0.018,-0.004 0.035,-0.008 0.051,-0.012 0.016,-0.004 0.031,-0.007 0.044,-0.01 0.013,-0.004 0.024,-0.006 0.032,-0.008 0.009,-0.002 0.014,-0.003 0.015,-0.003 0.005,0 0.009,0.002 0.013,0.005 0.003,0.004 0.005,0.008 0.005,0.013 0,0.005 -0.001,0.008 -0.004,0.01 -0.002,0.003 -0.006,0.005 -0.009,0.007 -0.006,0.003 -0.013,0.005 -0.021,0.007 -0.009,0.001 -0.016,0.003 -0.023,0.004 -0.016,0.005 -0.033,0.009 -0.05,0.014 -0.017,0.004 -0.034,0.008 -0.051,0.012 l -0.094,0.023 c -0.001,10e-4 -0.004,10e-4 -0.008,0.002 -0.005,0.002 -0.01,0.003 -0.016,0.004 -0.005,0.001 -0.01,0.002 -0.014,0.003 -0.005,0.001 -0.007,0.002 -0.008,0.002 z m 0,0.42 C 0.401,0.087 0.397,0.086 0.393,0.082 0.39,0.079 0.388,0.075 0.388,0.07 0.388,0.065 0.389,0.062 0.392,0.059 0.395,0.057 0.398,0.055 0.401,0.053 0.403,0.053 0.408,0.051 0.417,0.049 0.425,0.046 0.436,0.043 0.449,0.04 0.463,0.036 0.478,0.033 0.494,0.028 0.511,0.024 0.528,0.02 0.545,0.016 0.562,0.011 0.579,0.007 0.595,0.003 0.612,0 0.627,-0.004 0.64,-0.007 0.653,-0.01 0.663,-0.013 0.672,-0.015 0.68,-0.017 0.685,-0.018 0.687,-0.018 c 0.004,0 0.008,0.002 0.012,0.006 C 0.702,-0.009 0.704,-0.005 0.704,0 0.704,0.005 0.703,0.008 0.7,0.011 0.698,0.013 0.695,0.015 0.691,0.017 0.69,0.018 0.685,0.019 0.677,0.021 L 0.6,0.041 C 0.583,0.045 0.566,0.049 0.549,0.054 0.532,0.058 0.515,0.062 0.499,0.066 0.482,0.07 0.467,0.074 0.454,0.077 0.44,0.08 0.429,0.083 0.421,0.084 0.412,0.086 0.407,0.087 0.406,0.087 Z m 0,-0.069 C 0.401,0.018 0.397,0.016 0.393,0.012 0.39,0.009 0.388,0.005 0.388,0 c 0,-0.005 0.001,-0.008 0.004,-0.011 0.002,-0.002 0.005,-0.004 0.009,-0.006 0.001,-10e-4 0.006,-0.002 0.015,-0.004 0.008,-0.003 0.019,-0.006 0.032,-0.009 0.013,-0.003 0.028,-0.007 0.045,-0.012 0.017,-0.004 0.034,-0.008 0.051,-0.012 0.017,-0.004 0.034,-0.009 0.051,-0.013 0.016,-0.004 0.031,-0.007 0.044,-0.01 0.014,-0.003 0.024,-0.006 0.033,-0.008 0.009,-0.002 0.014,-0.003 0.015,-0.003 0.004,0 0.008,0.002 0.012,0.005 0.003,0.004 0.005,0.008 0.005,0.013 0,0.005 -0.001,0.008 -0.003,0.01 -0.003,0.002 -0.006,0.004 -0.009,0.006 -0.001,0 -0.006,0.001 -0.014,0.003 -0.009,0.003 -0.02,0.005 -0.033,0.009 C 0.632,-0.039 0.617,-0.035 0.6,-0.031 L 0.498,-0.005 C 0.481,-0.001 0.466,0.003 0.453,0.006 0.439,0.01 0.428,0.012 0.42,0.014 0.411,0.017 0.407,0.018 0.406,0.018 Z"
         style="fill:#757575;fill-rule:nonzero"
         id="path17226" /><path
         d="M 0.687,0 H 0.406 L 0.335,-0.149 0.406,-0.281 h 0.281 l 0.1,0.13 z m 0,-0.562 H 0.406 L 0.358,-0.708 0.406,-0.842 h 0.281 l 0.064,0.134 z"
         style="fill:#cccccc;fill-rule:nonzero"
         id="path17228" /><path
         d="m 0.897,-0.562 h -0.21 v -0.28 h 0.21 z m 0,0.562 h -0.21 v -0.281 h 0.21 z"
         style="fill:#a6a6a6;fill-rule:nonzero"
         id="path17230" /><path
         d="M 0.406,-0.562 H 0.195 v -0.28 H 0.406 Z M 0.406,0 H 0.195 v -0.281 h 0.211 z"
         style="fill:#f2f2f2;fill-rule:nonzero"
         id="path17232" /></g></g></svg>
