<?xml version="1.0" encoding="UTF-8" standalone="no"?>
<svg
   width="16.844999"
   height="16.844999"
   viewBox="0 0 16.844999 16.844999"
   version="1.1"
   xml:space="preserve"
   style="clip-rule:evenodd;fill-rule:evenodd;stroke-linejoin:round;stroke-miterlimit:2"
   id="svg20568"
   sodipodi:docname="emojis.svg"
   xmlns:inkscape="http://www.inkscape.org/namespaces/inkscape"
   xmlns:sodipodi="http://sodipodi.sourceforge.net/DTD/sodipodi-0.dtd"
   xmlns="http://www.w3.org/2000/svg"
   xmlns:svg="http://www.w3.org/2000/svg"><defs
     id="defs20572" /><sodipodi:namedview
     id="namedview20570"
     pagecolor="#505050"
     bordercolor="#eeeeee"
     borderopacity="1"
     inkscape:pageshadow="0"
     inkscape:pageopacity="0"
     inkscape:pagecheckerboard="0" /><g
     transform="matrix(0.24,0,0,0.24,-331.707,-834.249)"
     id="g20566"><g
       transform="matrix(62.5,0,0,62.5,1374.3,3533.1)"
       id="g17220"><path
         d="M 0.335,0.21 C 0.306,0.21 0.279,0.205 0.254,0.194 0.228,0.183 0.206,0.168 0.187,0.149 0.168,0.13 0.153,0.107 0.142,0.082 0.131,0.056 0.125,0.029 0.125,0 c 0,-0.03 0.006,-0.058 0.017,-0.084 0.011,-0.026 0.027,-0.048 0.046,-0.067 0.02,-0.018 0.043,-0.033 0.069,-0.044 0.026,-0.01 0.054,-0.015 0.084,-0.015 l 0.486,-0.486 v -0.006 c 0,-0.029 0.005,-0.056 0.016,-0.082 0.011,-0.025 0.026,-0.048 0.046,-0.067 0.019,-0.019 0.041,-0.034 0.067,-0.045 0.025,-0.011 0.053,-0.017 0.082,-0.017 0.029,0 0.056,0.006 0.081,0.017 0.026,0.011 0.048,0.026 0.067,0.045 0.019,0.019 0.034,0.042 0.045,0.067 0.012,0.026 0.017,0.053 0.017,0.082 0,0.029 -0.005,0.056 -0.016,0.082 -0.011,0.025 -0.026,0.047 -0.045,0.067 -0.019,0.019 -0.041,0.034 -0.067,0.045 -0.025,0.011 -0.052,0.016 -0.081,0.016 H 1.032 L 0.546,-0.006 C 0.546,0.024 0.541,0.052 0.53,0.078 0.519,0.105 0.505,0.127 0.486,0.147 0.467,0.167 0.445,0.182 0.419,0.193 0.394,0.205 0.366,0.21 0.335,0.21 Z"
         style="fill-rule:nonzero"
         id="path17216" /><path
         d="m 1.165,-0.76 c 0.009,0.019 0.013,0.038 0.013,0.058 0,0.019 -0.004,0.037 -0.011,0.054 -0.008,0.017 -0.018,0.032 -0.031,0.045 -0.012,0.013 -0.027,0.023 -0.044,0.03 -0.018,0.008 -0.036,0.011 -0.054,0.011 -0.006,0 -0.011,0 -0.017,-10e-4 -0.005,0 -0.01,-0.001 -0.015,-0.002 L 0.472,-0.032 C 0.475,-0.021 0.476,-0.01 0.476,0 0.476,0.02 0.472,0.038 0.465,0.055 0.458,0.072 0.448,0.086 0.435,0.099 0.422,0.112 0.407,0.122 0.39,0.129 0.373,0.136 0.355,0.14 0.335,0.14 0.316,0.14 0.296,0.136 0.278,0.127 L 0.371,0.035 V 0 L 0.335,-0.035 H 0.3 L 0.208,0.058 C 0.2,0.039 0.195,0.02 0.195,0 c 0,-0.02 0.004,-0.038 0.011,-0.055 0.008,-0.017 0.018,-0.032 0.03,-0.045 0.013,-0.012 0.028,-0.022 0.045,-0.03 0.017,-0.007 0.035,-0.011 0.054,-0.011 0.011,0 0.021,0.002 0.032,0.004 L 0.9,-0.67 C 0.899,-0.676 0.899,-0.681 0.898,-0.686 0.897,-0.691 0.897,-0.697 0.897,-0.702 c 0,-0.019 0.004,-0.037 0.011,-0.054 0.008,-0.017 0.018,-0.032 0.031,-0.045 0.013,-0.012 0.027,-0.023 0.044,-0.03 0.017,-0.008 0.035,-0.011 0.055,-0.011 0.019,0 0.039,0.004 0.057,0.012 l -0.093,0.093 v 0.035 l 0.036,0.035 h 0.035 z"
         style="fill:#cccccc;fill-rule:nonzero"
         id="path17218" /></g></g></svg>
