<?xml version="1.0" encoding="UTF-8" standalone="no"?>
<svg
   width="16.844999"
   height="16.844999"
   viewBox="0 0 16.844999 16.844999"
   version="1.1"
   xml:space="preserve"
   style="clip-rule:evenodd;fill-rule:evenodd;stroke-linejoin:round;stroke-miterlimit:2"
   id="svg20568"
   sodipodi:docname="emojis.svg"
   xmlns:inkscape="http://www.inkscape.org/namespaces/inkscape"
   xmlns:sodipodi="http://sodipodi.sourceforge.net/DTD/sodipodi-0.dtd"
   xmlns="http://www.w3.org/2000/svg"
   xmlns:svg="http://www.w3.org/2000/svg"><defs
     id="defs20572" /><sodipodi:namedview
     id="namedview20570"
     pagecolor="#505050"
     bordercolor="#eeeeee"
     borderopacity="1"
     inkscape:pageshadow="0"
     inkscape:pageopacity="0"
     inkscape:pagecheckerboard="0" /><g
     transform="matrix(0.24,0,0,0.24,-407.7774,-834.249)"
     id="g20566"><g
       transform="matrix(62.5,0,0,62.5,1691.26,3533.1)"
       id="g17276"><path
         d="m 1.207,-0.421 h 0.041 v 0.088 c 0,0.031 -0.006,0.06 -0.018,0.088 C 1.218,-0.217 1.202,-0.193 1.181,-0.173 1.16,-0.152 1.136,-0.136 1.108,-0.124 1.081,-0.111 1.051,-0.105 1.02,-0.105 0.988,-0.105 0.959,-0.111 0.931,-0.123 0.903,-0.135 0.879,-0.151 0.859,-0.172 0.838,-0.193 0.822,-0.217 0.81,-0.245 0.798,-0.272 0.792,-0.302 0.792,-0.333 v 0.263 c 0.012,0.009 0.023,0.02 0.032,0.032 0.009,0.012 0.017,0.024 0.023,0.038 h 0.12 V 0.21 H 0.406 V 0 h 0.12 C 0.532,-0.014 0.54,-0.026 0.549,-0.038 0.558,-0.05 0.569,-0.06 0.581,-0.069 0.58,-0.11 0.58,-0.151 0.58,-0.191 v -0.122 c -0.003,0.029 -0.01,0.057 -0.023,0.082 -0.013,0.025 -0.03,0.047 -0.05,0.066 -0.021,0.019 -0.044,0.033 -0.07,0.044 -0.027,0.01 -0.055,0.016 -0.084,0.016 -0.031,0 -0.061,-0.006 -0.088,-0.019 C 0.237,-0.136 0.213,-0.152 0.192,-0.173 0.171,-0.193 0.155,-0.217 0.143,-0.245 0.131,-0.273 0.125,-0.302 0.125,-0.333 v -0.088 h 0.041 l 0.072,-0.29 C 0.233,-0.725 0.23,-0.739 0.23,-0.755 c 0,-0.017 0.004,-0.033 0.01,-0.047 0.007,-0.015 0.016,-0.028 0.027,-0.039 0.011,-0.011 0.024,-0.02 0.038,-0.027 0.015,-0.006 0.031,-0.009 0.048,-0.009 0.016,0 0.031,0.003 0.046,0.009 0.015,0.006 0.029,0.014 0.04,0.026 0.019,0 0.038,0 0.056,0 h 0.086 l 0.001,-0.071 h 0.21 v 0.071 h 0.029 0.056 0.029 c 0.009,0 0.019,0 0.028,0 0.011,-0.012 0.025,-0.02 0.039,-0.026 0.015,-0.006 0.031,-0.009 0.047,-0.009 0.017,0 0.033,0.003 0.048,0.009 0.014,0.007 0.027,0.016 0.038,0.027 0.012,0.011 0.02,0.024 0.027,0.039 0.006,0.014 0.01,0.03 0.01,0.047 0,0.008 -0.001,0.015 -0.002,0.023 -0.002,0.007 -0.004,0.014 -0.007,0.021 z"
         style="fill-rule:nonzero"
         id="path17266" /><path
         d="m 0.792,-0.772 h 0.21 v 0.035 h -0.21 c -0.009,0 -0.018,0.003 -0.025,0.01 -0.007,0.007 -0.01,0.015 -0.01,0.025 H 0.722 V 0.035 H 0.651 C 0.651,0.007 0.65,-0.02 0.65,-0.047 v -0.424 c 0,-0.077 0.001,-0.154 0.001,-0.231 H 0.616 c 0,-0.01 -0.003,-0.018 -0.01,-0.025 -0.007,-0.007 -0.016,-0.01 -0.025,-0.01 h -0.21 v -0.035 h 0.21 c 0.012,0 0.024,0.003 0.034,0.009 0.011,0.006 0.02,0.014 0.026,0.025 h 0.01 v -0.104 h 0.071 v 0.104 H 0.731 C 0.738,-0.749 0.747,-0.757 0.757,-0.763 0.768,-0.769 0.78,-0.772 0.792,-0.772 Z"
         style="fill:#cccccc;fill-rule:nonzero"
         id="path17268" /><path
         d="M 0.88,-0.32 0.985,-0.741 1.02,-0.733 0.914,-0.312 Z M 0.354,-0.733 0.388,-0.741 0.493,-0.32 0.459,-0.312 Z M 1.055,-0.741 1.16,-0.32 1.125,-0.312 1.021,-0.733 Z m -0.842,0.421 0.105,-0.421 0.035,0.008 -0.106,0.421 z"
         style="fill:#757575;fill-rule:nonzero"
         id="path17270" /><path
         d="m 1.02,-0.807 c 0.007,0 0.014,0.001 0.02,0.004 0.007,0.003 0.012,0.007 0.017,0.011 0.005,0.005 0.009,0.011 0.012,0.017 0.002,0.006 0.004,0.013 0.004,0.02 0,0.007 -0.002,0.014 -0.004,0.02 -0.003,0.007 -0.007,0.012 -0.012,0.017 -0.005,0.005 -0.01,0.009 -0.017,0.012 -0.006,0.002 -0.013,0.004 -0.02,0.004 -0.007,0 -0.014,-0.002 -0.021,-0.004 C 0.993,-0.709 0.987,-0.713 0.983,-0.718 0.978,-0.722 0.974,-0.728 0.971,-0.734 0.969,-0.74 0.967,-0.747 0.967,-0.755 c 0,-0.007 0.002,-0.014 0.004,-0.02 C 0.974,-0.782 0.978,-0.787 0.983,-0.792 0.988,-0.797 0.993,-0.8 1,-0.803 1.006,-0.806 1.013,-0.807 1.02,-0.807 Z m -0.333,0.175 c -0.01,0 -0.019,-0.002 -0.028,-0.005 C 0.651,-0.641 0.643,-0.646 0.637,-0.653 0.631,-0.659 0.626,-0.666 0.622,-0.675 0.618,-0.683 0.616,-0.692 0.616,-0.702 c 0,-0.01 0.002,-0.019 0.006,-0.027 0.004,-0.009 0.009,-0.016 0.015,-0.023 0.006,-0.006 0.014,-0.011 0.022,-0.015 0.009,-0.003 0.018,-0.005 0.028,-0.005 0.009,0 0.018,0.002 0.027,0.005 0.008,0.004 0.016,0.009 0.022,0.015 0.006,0.007 0.011,0.014 0.015,0.023 0.004,0.008 0.006,0.017 0.006,0.027 0,0.01 -0.002,0.019 -0.006,0.027 -0.004,0.009 -0.009,0.016 -0.015,0.022 -0.006,0.007 -0.014,0.012 -0.022,0.016 -0.009,0.003 -0.018,0.005 -0.027,0.005 z M 0.353,-0.807 c 0.007,0 0.014,0.001 0.02,0.004 0.007,0.003 0.012,0.006 0.017,0.011 0.005,0.005 0.009,0.01 0.012,0.017 0.002,0.006 0.004,0.013 0.004,0.02 0,0.008 -0.002,0.015 -0.004,0.021 -0.003,0.006 -0.007,0.012 -0.012,0.016 -0.004,0.005 -0.01,0.009 -0.016,0.012 -0.007,0.002 -0.014,0.004 -0.021,0.004 -0.007,0 -0.014,-0.002 -0.02,-0.004 C 0.326,-0.709 0.321,-0.713 0.316,-0.718 0.311,-0.723 0.307,-0.728 0.304,-0.735 0.302,-0.741 0.3,-0.748 0.3,-0.755 c 0,-0.007 0.002,-0.014 0.004,-0.02 0.003,-0.006 0.007,-0.012 0.012,-0.017 0.005,-0.004 0.01,-0.008 0.017,-0.011 0.006,-0.003 0.013,-0.004 0.02,-0.004 z m 0.334,0.772 c 0.014,0 0.028,0.003 0.041,0.008 0.012,0.006 0.023,0.013 0.033,0.023 0.01,0.009 0.017,0.021 0.023,0.033 C 0.789,0.042 0.792,0.056 0.792,0.07 0.792,0.071 0.791,0.074 0.79,0.079 0.789,0.084 0.787,0.089 0.785,0.095 0.784,0.101 0.782,0.107 0.78,0.112 0.779,0.117 0.778,0.121 0.777,0.124 L 0.61,0.119 0.581,0.07 c 0,-0.014 0.003,-0.028 0.008,-0.041 0.006,-0.012 0.013,-0.024 0.023,-0.033 0.01,-0.01 0.021,-0.017 0.034,-0.023 0.012,-0.005 0.026,-0.008 0.041,-0.008 z"
         style="fill:#ffc83d;fill-rule:nonzero"
         id="path17272" /><path
         d="m 0.862,-0.351 h 0.316 v 0.018 c 0,0.021 -0.004,0.042 -0.013,0.061 -0.008,0.019 -0.019,0.036 -0.034,0.05 C 1.117,-0.208 1.1,-0.197 1.081,-0.188 1.062,-0.18 1.042,-0.176 1.02,-0.176 0.998,-0.176 0.978,-0.18 0.958,-0.188 0.939,-0.197 0.923,-0.208 0.908,-0.222 0.894,-0.236 0.883,-0.253 0.874,-0.272 0.866,-0.291 0.862,-0.312 0.862,-0.333 Z m -0.351,0 v 0.018 c 0,0.021 -0.004,0.042 -0.012,0.061 -0.009,0.019 -0.02,0.036 -0.034,0.05 -0.014,0.014 -0.031,0.025 -0.05,0.034 -0.02,0.008 -0.04,0.012 -0.062,0.012 -0.022,0 -0.042,-0.004 -0.061,-0.012 C 0.273,-0.197 0.256,-0.208 0.242,-0.222 0.227,-0.236 0.216,-0.253 0.208,-0.272 0.199,-0.291 0.195,-0.312 0.195,-0.333 v -0.018 z m 0.176,0.386 c 0.009,0 0.018,0.004 0.024,0.01 0.007,0.007 0.011,0.016 0.011,0.025 H 0.897 V 0.14 H 0.476 V 0.07 h 0.175 c 0,-0.009 0.004,-0.018 0.011,-0.025 0.006,-0.006 0.015,-0.01 0.025,-0.01 z m 0,-0.702 c -0.01,0 -0.019,-0.003 -0.025,-0.01 -0.007,-0.007 -0.011,-0.015 -0.011,-0.025 0,-0.01 0.004,-0.018 0.011,-0.025 0.007,-0.007 0.015,-0.01 0.025,-0.01 0.009,0 0.017,0.003 0.024,0.01 0.007,0.007 0.011,0.015 0.011,0.025 0,0.01 -0.004,0.018 -0.011,0.025 -0.006,0.007 -0.015,0.01 -0.024,0.01 z m -0.334,-0.07 c -0.005,0 -0.009,-0.002 -0.012,-0.005 -0.004,-0.004 -0.006,-0.008 -0.006,-0.013 0,-0.004 0.002,-0.008 0.006,-0.012 0.003,-0.003 0.007,-0.005 0.012,-0.005 0.005,0 0.009,0.002 0.012,0.005 0.004,0.004 0.006,0.008 0.006,0.012 0,0.005 -0.002,0.009 -0.006,0.013 -0.003,0.003 -0.007,0.005 -0.012,0.005 z m 0.667,0 c -0.005,0 -0.009,-0.002 -0.012,-0.005 -0.004,-0.004 -0.006,-0.008 -0.006,-0.013 0,-0.004 0.002,-0.008 0.006,-0.012 0.003,-0.003 0.007,-0.005 0.012,-0.005 0.005,0 0.009,0.002 0.012,0.005 0.004,0.004 0.006,0.008 0.006,0.012 0,0.005 -0.002,0.009 -0.006,0.013 -0.003,0.003 -0.007,0.005 -0.012,0.005 z"
         style="fill:#ffb900;fill-rule:nonzero"
         id="path17274" /></g></g></svg>
