<?xml version="1.0" encoding="UTF-8" standalone="no"?>
<svg
   width="16.02"
   height="16.02"
   viewBox="0 0 16.02 16.02"
   version="1.1"
   xml:space="preserve"
   style="clip-rule:evenodd;fill-rule:evenodd;stroke-linejoin:round;stroke-miterlimit:2"
   id="svg20568"
   sodipodi:docname="emojis.svg"
   xmlns:inkscape="http://www.inkscape.org/namespaces/inkscape"
   xmlns:sodipodi="http://sodipodi.sourceforge.net/DTD/sodipodi-0.dtd"
   xmlns="http://www.w3.org/2000/svg"
   xmlns:svg="http://www.w3.org/2000/svg"><defs
     id="defs20572" /><sodipodi:namedview
     id="namedview20570"
     pagecolor="#505050"
     bordercolor="#eeeeee"
     borderopacity="1"
     inkscape:pageshadow="0"
     inkscape:pageopacity="0"
     inkscape:pagecheckerboard="0" /><g
     transform="matrix(0.24,0,0,0.24,-368.6862,-834.669)"
     id="g20566"><g
       transform="matrix(62.5,0,0,62.5,1528.38,3533.1)"
       id="g17246"><path
         d="M 0.665,0.105 H 0.653 L 0.575,0.183 0.343,0.125 V -0.006 L 0.314,-0.035 H 0.183 L 0.125,-0.267 0.203,-0.345 V -0.357 L 0.125,-0.435 0.183,-0.667 h 0.131 l 0.029,-0.029 v -0.131 l 0.232,-0.058 0.078,0.078 h 0.012 l 0.078,-0.078 0.232,0.058 v 0.131 l 0.029,0.029 h 0.131 l 0.058,0.232 -0.078,0.078 v 0.012 l 0.078,0.078 -0.058,0.232 H 1.004 L 0.975,-0.006 V 0.125 L 0.743,0.183 Z"
         style="fill-rule:nonzero"
         id="path17236" /><path
         d="m 1.045,-0.316 0.07,0.07 -0.035,0.141 H 0.975 l -0.07,0.07 V 0.07 L 0.764,0.105 0.694,0.035 H 0.624 L 0.554,0.105 0.413,0.07 v -0.105 l -0.07,-0.07 H 0.238 l -0.035,-0.141 0.07,-0.07 v -0.07 l -0.07,-0.071 0.035,-0.14 h 0.105 l 0.07,-0.07 v -0.105 l 0.141,-0.035 0.07,0.07 h 0.07 l 0.07,-0.07 0.141,0.035 v 0.105 l 0.07,0.07 H 1.08 l 0.035,0.14 -0.07,0.071 z"
         style="fill:#e5e5e5;fill-rule:nonzero"
         id="path17238" /><path
         d="m 0.659,-0.632 c 0.039,0 0.075,0.008 0.109,0.022 0.034,0.015 0.064,0.035 0.089,0.061 0.026,0.025 0.046,0.055 0.061,0.089 0.015,0.034 0.022,0.071 0.022,0.109 0,0.039 -0.007,0.075 -0.022,0.109 -0.015,0.034 -0.035,0.064 -0.061,0.089 -0.025,0.026 -0.055,0.046 -0.089,0.06 C 0.734,-0.078 0.698,-0.07 0.659,-0.07 0.62,-0.07 0.584,-0.078 0.55,-0.092 0.516,-0.107 0.486,-0.127 0.46,-0.152 0.435,-0.178 0.415,-0.208 0.4,-0.242 0.386,-0.276 0.378,-0.312 0.378,-0.351 0.378,-0.39 0.386,-0.426 0.4,-0.46 0.415,-0.495 0.435,-0.524 0.46,-0.55 0.486,-0.575 0.516,-0.595 0.55,-0.61 0.584,-0.625 0.62,-0.632 0.659,-0.632 Z m 0,0.527 c 0.034,0 0.066,-0.007 0.096,-0.02 0.029,-0.013 0.055,-0.03 0.078,-0.052 0.022,-0.023 0.04,-0.049 0.052,-0.079 0.013,-0.029 0.02,-0.061 0.02,-0.095 0,-0.034 -0.007,-0.066 -0.02,-0.096 C 0.873,-0.476 0.855,-0.502 0.833,-0.525 0.81,-0.547 0.784,-0.565 0.755,-0.577 0.725,-0.59 0.693,-0.597 0.659,-0.597 c -0.034,0 -0.065,0.007 -0.095,0.02 -0.03,0.012 -0.056,0.03 -0.078,0.052 -0.023,0.023 -0.04,0.049 -0.053,0.078 -0.013,0.03 -0.02,0.062 -0.02,0.096 0,0.034 0.007,0.066 0.019,0.096 0.013,0.03 0.031,0.056 0.053,0.078 0.022,0.022 0.049,0.039 0.078,0.052 0.03,0.013 0.062,0.02 0.096,0.02 z"
         style="fill:#757575;fill-rule:nonzero"
         id="path17240" /><path
         d="M 0.659,-0.141 C 0.63,-0.141 0.602,-0.146 0.577,-0.157 0.551,-0.168 0.529,-0.183 0.51,-0.202 0.491,-0.221 0.476,-0.243 0.465,-0.269 0.454,-0.294 0.448,-0.322 0.448,-0.351 0.448,-0.38 0.454,-0.408 0.465,-0.433 0.476,-0.459 0.491,-0.481 0.51,-0.5 0.529,-0.519 0.551,-0.534 0.577,-0.545 0.602,-0.556 0.63,-0.562 0.659,-0.562 c 0.029,0 0.056,0.006 0.082,0.017 0.026,0.011 0.048,0.026 0.067,0.045 0.019,0.019 0.034,0.042 0.045,0.067 0.011,0.026 0.017,0.053 0.017,0.082 0,0.029 -0.006,0.056 -0.017,0.082 -0.011,0.025 -0.026,0.048 -0.045,0.067 -0.019,0.019 -0.041,0.034 -0.067,0.045 -0.026,0.011 -0.053,0.016 -0.082,0.016 z"
         style="fill:#cccccc;fill-rule:nonzero"
         id="path17242" /><path
         d="M 0.659,-0.246 C 0.645,-0.246 0.631,-0.248 0.618,-0.254 0.605,-0.259 0.594,-0.267 0.585,-0.277 0.575,-0.286 0.568,-0.297 0.562,-0.31 0.556,-0.323 0.554,-0.336 0.554,-0.351 c 0,-0.015 0.002,-0.028 0.008,-0.041 0.006,-0.013 0.013,-0.024 0.023,-0.034 0.009,-0.009 0.02,-0.017 0.033,-0.022 0.013,-0.006 0.027,-0.009 0.041,-0.009 0.015,0 0.028,0.003 0.041,0.009 0.013,0.005 0.024,0.013 0.033,0.022 0.01,0.01 0.017,0.021 0.023,0.034 0.005,0.013 0.008,0.026 0.008,0.041 0,0.015 -0.003,0.028 -0.008,0.041 -0.006,0.013 -0.013,0.024 -0.023,0.033 -0.009,0.01 -0.02,0.018 -0.033,0.023 -0.013,0.006 -0.026,0.008 -0.041,0.008 z"
         style="fill-rule:nonzero"
         id="path17244" /></g></g></svg>
