<?xml version="1.0" encoding="UTF-8" standalone="no"?>
<svg
   width="16.844999"
   height="16.844999"
   viewBox="0 0 16.844999 16.844999"
   version="1.1"
   xml:space="preserve"
   style="clip-rule:evenodd;fill-rule:evenodd;stroke-linejoin:round;stroke-miterlimit:2"
   id="svg20568"
   sodipodi:docname="emojis.svg"
   xmlns:inkscape="http://www.inkscape.org/namespaces/inkscape"
   xmlns:sodipodi="http://sodipodi.sourceforge.net/DTD/sodipodi-0.dtd"
   xmlns="http://www.w3.org/2000/svg"
   xmlns:svg="http://www.w3.org/2000/svg"><defs
     id="defs20572" /><sodipodi:namedview
     id="namedview20570"
     pagecolor="#505050"
     bordercolor="#eeeeee"
     borderopacity="1"
     inkscape:pageshadow="0"
     inkscape:pageopacity="0"
     inkscape:pagecheckerboard="0" /><g
     transform="matrix(0.24,0,0,0.24,-758.6502,-127.68924)"
     id="g20566"><g
       transform="matrix(62.5,0,0,62.5,3153.23,589.101)"
       id="g1738"><path
         d="M 0.335,0.21 C 0.306,0.21 0.279,0.205 0.254,0.194 0.228,0.183 0.206,0.168 0.187,0.149 0.168,0.13 0.153,0.107 0.142,0.082 0.131,0.056 0.125,0.029 0.125,0 c 0,-0.005 0,-0.009 0,-0.014 0.001,-0.004 0.001,-0.009 0.002,-0.013 L 0.232,-0.733 C 0.236,-0.759 0.244,-0.782 0.257,-0.804 0.269,-0.826 0.285,-0.845 0.303,-0.861 0.322,-0.877 0.343,-0.89 0.367,-0.899 0.39,-0.908 0.415,-0.913 0.441,-0.913 h 0.175 c 0.02,0 0.038,0.004 0.055,0.011 0.017,0.008 0.032,0.018 0.045,0.03 0.013,0.013 0.023,0.028 0.03,0.045 0.007,0.017 0.011,0.035 0.011,0.055 v 0.14 c 0,0.015 -0.003,0.028 -0.008,0.041 -0.006,0.013 -0.014,0.024 -0.023,0.034 -0.01,0.009 -0.021,0.017 -0.034,0.022 -0.012,0.006 -0.026,0.009 -0.041,0.009 H 0.546 v 0.316 h 0.002 c 0.012,0 0.025,-0.004 0.04,-0.011 0.014,-0.008 0.03,-0.016 0.047,-0.025 0.017,-0.008 0.036,-0.016 0.055,-0.024 0.02,-0.007 0.042,-0.011 0.065,-0.011 h 0.24 c 0.033,0 0.066,0.007 0.096,0.019 0.031,0.013 0.058,0.03 0.081,0.052 0.023,0.022 0.042,0.048 0.056,0.077 0.013,0.03 0.02,0.062 0.02,0.097 0,0.034 -0.006,0.066 -0.019,0.096 C 1.216,0.09 1.198,0.116 1.176,0.138 1.154,0.16 1.128,0.178 1.098,0.191 1.069,0.204 1.037,0.21 1.002,0.21 Z"
         style="fill-rule:nonzero"
         id="path1728" /><path
         d="m 0.302,-0.722 c 0.043,0.002 0.086,0.003 0.129,0.003 h 0.023 c 0.007,0 0.015,0 0.022,-0.001 v 0.158 L 0.391,-0.524 C 0.38,-0.524 0.37,-0.526 0.36,-0.53 0.35,-0.535 0.341,-0.54 0.333,-0.547 0.324,-0.555 0.317,-0.563 0.311,-0.571 0.304,-0.58 0.299,-0.589 0.295,-0.599 0.293,-0.602 0.292,-0.607 0.29,-0.613 0.288,-0.618 0.288,-0.623 0.288,-0.626 c 0,-0.004 0,-0.01 0.002,-0.019 0.001,-0.009 0.002,-0.018 0.004,-0.028 0.002,-0.01 0.003,-0.02 0.005,-0.029 0.001,-0.009 0.002,-0.016 0.003,-0.02 z"
         style="fill:#5c5c5c;fill-rule:nonzero"
         id="path1730" /><path
         d="m 0.995,-0.204 c 0.023,0 0.045,0.005 0.067,0.015 0.022,0.01 0.041,0.024 0.058,0.04 0.017,0.017 0.031,0.036 0.042,0.058 0.01,0.022 0.015,0.044 0.015,0.068 v 0.005 C 1.175,0.004 1.168,0.025 1.158,0.045 1.149,0.064 1.136,0.081 1.12,0.095 1.105,0.109 1.087,0.12 1.067,0.128 1.047,0.136 1.025,0.14 1.002,0.14 H 0.335 C 0.316,0.14 0.298,0.136 0.281,0.129 0.264,0.122 0.249,0.112 0.236,0.099 0.224,0.086 0.214,0.072 0.206,0.054 0.199,0.037 0.195,0.019 0.195,0 0.195,-0.012 0.197,-0.025 0.201,-0.039 0.204,-0.053 0.209,-0.067 0.216,-0.081 0.222,-0.095 0.23,-0.109 0.24,-0.122 0.249,-0.135 0.259,-0.147 0.27,-0.157 0.281,-0.167 0.292,-0.175 0.305,-0.181 0.317,-0.187 0.33,-0.19 0.344,-0.19 l 0.132,0.049 h 0.019 c 0.016,0 0.029,0 0.04,0 0.012,0 0.022,0 0.03,-0.001 0.009,-0.001 0.017,-0.002 0.025,-0.003 0.007,-0.002 0.015,-0.004 0.024,-0.007 0.008,-0.002 0.018,-0.006 0.028,-0.01 0.011,-0.004 0.024,-0.01 0.039,-0.016 0,0 0,0 0,0 0.001,0 0.001,0 0.001,0 l 0.016,-0.007 c 0.006,-0.002 0.011,-0.004 0.015,-0.005 0.005,-0.002 0.009,-0.003 0.013,-0.004 0.005,0 0.009,-0.001 0.014,-0.001 0.005,-0.001 0.011,-0.001 0.017,-0.001 L 0.916,-0.201 0.974,-0.203 C 0.98,-0.204 0.987,-0.204 0.995,-0.204 Z M 0.3,-0.702 c 0,-0.001 0.001,-0.003 0.002,-0.007 0.001,-0.004 0.002,-0.008 0.004,-0.012 0.001,-0.005 0.003,-0.009 0.004,-0.013 0.002,-0.003 0.003,-0.006 0.003,-0.008 0.013,-0.028 0.029,-0.05 0.05,-0.065 0.02,-0.015 0.046,-0.022 0.078,-0.022 h 0.175 c 0.014,0 0.025,0.002 0.034,0.007 0.009,0.006 0.016,0.012 0.022,0.021 0.005,0.008 0.009,0.018 0.011,0.029 0.002,0.011 0.004,0.023 0.004,0.035 v 0.035 l -0.015,0.016 0.015,0.019 v 0.035 c 0,0.01 -0.004,0.018 -0.011,0.025 -0.007,0.007 -0.015,0.01 -0.025,0.01 H 0.406 C 0.391,-0.597 0.377,-0.599 0.365,-0.605 0.352,-0.611 0.341,-0.618 0.331,-0.628 0.322,-0.637 0.314,-0.648 0.309,-0.661 0.303,-0.674 0.3,-0.687 0.3,-0.702 Z"
         style="fill:#a6a6a6;fill-rule:nonzero"
         id="path1732" /><path
         d="m 0.755,-0.176 c -0.012,0 -0.022,0.002 -0.033,0.004 -0.01,0.003 -0.02,0.006 -0.03,0.011 -0.028,0.014 -0.056,0.02 -0.086,0.02 H 0.548 c 0.019,0 0.037,-0.003 0.054,-0.011 0.017,-0.007 0.033,-0.015 0.049,-0.024 0.017,-0.008 0.033,-0.016 0.05,-0.023 C 0.718,-0.207 0.736,-0.21 0.755,-0.21 H 0.99 c 0.024,0 0.048,0.004 0.071,0.012 0.022,0.009 0.042,0.021 0.06,0.037 0.017,0.015 0.031,0.034 0.042,0.056 0.01,0.021 0.015,0.044 0.015,0.07 0,0.002 0,0.004 0,0.006 0,0.003 0,0.005 -10e-4,0.007 V -0.02 C 1.177,-0.034 1.175,-0.048 1.169,-0.062 1.164,-0.075 1.157,-0.087 1.148,-0.099 1.14,-0.11 1.129,-0.121 1.117,-0.13 1.106,-0.14 1.093,-0.148 1.079,-0.155 1.066,-0.161 1.052,-0.166 1.037,-0.17 1.023,-0.174 1.009,-0.176 0.995,-0.176 Z M 0.616,-0.842 c 0.01,0 0.019,0.002 0.028,0.005 0.008,0.004 0.015,0.009 0.022,0.015 0.006,0.007 0.011,0.014 0.015,0.023 0.004,0.008 0.006,0.017 0.006,0.027 V -0.74 C 0.686,-0.75 0.684,-0.758 0.68,-0.767 0.676,-0.775 0.671,-0.782 0.665,-0.788 0.658,-0.794 0.651,-0.799 0.643,-0.802 0.635,-0.805 0.626,-0.807 0.616,-0.807 H 0.441 c -0.018,0 -0.034,0.003 -0.05,0.009 -0.016,0.006 -0.03,0.015 -0.043,0.026 -0.012,0.01 -0.022,0.023 -0.031,0.038 C 0.309,-0.719 0.304,-0.703 0.302,-0.686 0.301,-0.691 0.3,-0.696 0.3,-0.702 c 0,-0.019 0.004,-0.038 0.012,-0.055 0.007,-0.017 0.017,-0.032 0.03,-0.044 0.012,-0.013 0.027,-0.023 0.044,-0.03 0.018,-0.008 0.036,-0.011 0.055,-0.011 z"
         style="fill:#cccccc;fill-rule:nonzero"
         id="path1734" /><path
         d="m 0.687,-0.702 v 0.035 H 0.529 C 0.521,-0.667 0.514,-0.668 0.508,-0.671 0.502,-0.674 0.496,-0.678 0.491,-0.682 0.487,-0.687 0.483,-0.693 0.48,-0.699 0.477,-0.705 0.476,-0.712 0.476,-0.72 c 0,-0.007 0.001,-0.014 0.004,-0.02 0.003,-0.007 0.007,-0.012 0.012,-0.017 0.005,-0.004 0.01,-0.008 0.017,-0.011 0.006,-0.003 0.013,-0.004 0.02,-0.004 0.007,0 0.014,0.001 0.02,0.004 0.006,0.003 0.012,0.007 0.017,0.011 0.004,0.005 0.008,0.011 0.011,0.017 0.003,0.006 0.004,0.013 0.004,0.02 v 0.018 z M 0.406,0 C 0.406,0.01 0.404,0.019 0.4,0.027 0.396,0.036 0.391,0.043 0.385,0.05 0.379,0.056 0.371,0.061 0.363,0.065 0.354,0.068 0.345,0.07 0.335,0.07 0.326,0.07 0.317,0.068 0.308,0.065 0.3,0.061 0.292,0.056 0.286,0.05 0.28,0.043 0.274,0.036 0.271,0.027 0.267,0.019 0.265,0.01 0.265,0 0.265,-0.01 0.267,-0.019 0.271,-0.027 0.274,-0.036 0.28,-0.043 0.286,-0.05 0.292,-0.056 0.3,-0.061 0.308,-0.065 0.317,-0.068 0.326,-0.07 0.335,-0.07 c 0.01,0 0.019,0.002 0.028,0.005 0.008,0.004 0.016,0.009 0.022,0.015 0.006,0.007 0.011,0.014 0.015,0.023 C 0.404,-0.019 0.406,-0.01 0.406,0 Z M 1.09,-0.07 c 0.005,0 0.009,0.001 0.012,0.005 0.004,0.004 0.005,0.008 0.005,0.012 0,0.022 -0.004,0.043 -0.012,0.062 C 1.087,0.028 1.075,0.044 1.061,0.059 1.047,0.073 1.03,0.084 1.011,0.093 0.992,0.101 0.972,0.105 0.95,0.105 H 0.774 C 0.77,0.105 0.765,0.103 0.762,0.1 0.759,0.096 0.757,0.092 0.757,0.087 0.757,0.083 0.759,0.079 0.762,0.075 0.766,0.072 0.77,0.07 0.774,0.07 H 0.95 C 0.967,0.07 0.983,0.067 0.998,0.061 1.013,0.054 1.026,0.045 1.037,0.034 1.048,0.023 1.056,0.01 1.063,-0.005 c 0.006,-0.015 0.01,-0.031 0.01,-0.048 0,-0.005 0.001,-0.009 0.005,-0.012 C 1.081,-0.069 1.085,-0.07 1.09,-0.07 Z M 0.476,-0.562 v 0.421 H 0.342 c -0.017,0 -0.034,0.003 -0.05,0.009 -0.016,0.006 -0.031,0.014 -0.044,0.024 -0.013,0.01 -0.024,0.022 -0.033,0.036 -0.009,0.015 -0.015,0.03 -0.018,0.048 0.015,-0.101 0.03,-0.202 0.045,-0.301 0.015,-0.1 0.03,-0.201 0.046,-0.301 0.009,0.015 0.019,0.026 0.031,0.035 0.011,0.009 0.023,0.015 0.035,0.019 0.012,0.005 0.025,0.008 0.039,0.009 0.014,10e-4 0.029,10e-4 0.044,10e-4 z"
         style="fill:#757575;fill-rule:nonzero"
         id="path1736" /></g></g></svg>
