<?xml version="1.0" encoding="UTF-8" standalone="no"?>
<svg
   width="16.844999"
   height="15.78"
   viewBox="0 0 16.844999 15.78"
   version="1.1"
   xml:space="preserve"
   style="clip-rule:evenodd;fill-rule:evenodd;stroke-linejoin:round;stroke-miterlimit:2"
   id="svg20568"
   sodipodi:docname="emojis.svg"
   xmlns:inkscape="http://www.inkscape.org/namespaces/inkscape"
   xmlns:sodipodi="http://sodipodi.sourceforge.net/DTD/sodipodi-0.dtd"
   xmlns="http://www.w3.org/2000/svg"
   xmlns:svg="http://www.w3.org/2000/svg"><defs
     id="defs20572" /><sodipodi:namedview
     id="namedview20570"
     pagecolor="#505050"
     bordercolor="#eeeeee"
     borderopacity="1"
     inkscape:pageshadow="0"
     inkscape:pageopacity="0"
     inkscape:pagecheckerboard="0" /><g
     transform="matrix(0.24,0,0,0.24,-526.0926,-834.789)"
     id="g20566"><g
       transform="matrix(62.5,0,0,62.5,2184.24,3533.1)"
       id="g17350"><path
         d="M 0.81,0.175 C 0.799,0.175 0.79,0.174 0.781,0.17 0.771,0.167 0.763,0.163 0.755,0.157 0.748,0.151 0.741,0.144 0.736,0.136 0.73,0.128 0.726,0.119 0.724,0.109 L 0.712,0.059 C 0.699,0.067 0.684,0.07 0.669,0.07 0.659,0.07 0.649,0.069 0.64,0.065 0.631,0.062 0.622,0.058 0.615,0.052 0.608,0.045 0.601,0.038 0.596,0.03 0.591,0.022 0.587,0.013 0.584,0.003 l -0.01,-0.039 c -0.005,0 -0.01,0 -0.014,10e-4 -0.005,0 -0.01,0 -0.015,0 -0.004,0 -0.009,0 -0.013,0 C 0.528,-0.036 0.523,-0.036 0.519,-0.036 L 0.508,0.003 C 0.506,0.013 0.502,0.022 0.496,0.03 0.491,0.038 0.485,0.045 0.477,0.052 0.47,0.058 0.462,0.062 0.452,0.065 0.443,0.069 0.433,0.07 0.423,0.07 0.408,0.07 0.394,0.067 0.38,0.059 0.378,0.068 0.376,0.076 0.375,0.084 0.373,0.092 0.37,0.1 0.368,0.109 0.365,0.119 0.361,0.128 0.356,0.136 0.351,0.144 0.344,0.151 0.337,0.157 0.33,0.163 0.322,0.167 0.313,0.17 0.303,0.174 0.294,0.175 0.283,0.175 0.271,0.175 0.259,0.173 0.249,0.168 0.238,0.164 0.229,0.158 0.221,0.15 0.213,0.142 0.207,0.132 0.202,0.122 0.198,0.111 0.195,0.1 0.195,0.087 c 0,-0.003 0,-0.007 0.001,-0.01 0,-0.004 0.001,-0.007 0.002,-0.011 L 0.243,-0.115 C 0.229,-0.122 0.217,-0.133 0.208,-0.147 0.2,-0.161 0.195,-0.177 0.195,-0.193 0.195,-0.202 0.196,-0.21 0.199,-0.218 0.174,-0.254 0.156,-0.292 0.144,-0.332 0.131,-0.372 0.125,-0.413 0.125,-0.456 c 0,-0.039 0.005,-0.076 0.015,-0.112 0.01,-0.036 0.024,-0.07 0.042,-0.101 0.019,-0.031 0.041,-0.06 0.066,-0.085 0.026,-0.026 0.054,-0.048 0.085,-0.066 0.031,-0.018 0.065,-0.032 0.101,-0.042 0.036,-0.01 0.073,-0.015 0.112,-0.015 0.017,0 0.033,0.001 0.049,0.003 0.017,0.003 0.033,0.006 0.049,0.009 0.016,0.004 0.032,0.008 0.048,0.013 0.016,0.004 0.032,0.008 0.048,0.012 l 0.413,0.101 c 0.014,0.004 0.027,0.009 0.038,0.017 0.012,0.008 0.022,0.017 0.03,0.028 0.009,0.01 0.015,0.022 0.02,0.036 0.005,0.013 0.007,0.026 0.007,0.041 0,0.017 -0.003,0.034 -0.01,0.049 -0.006,0.015 -0.015,0.029 -0.027,0.04 -0.011,0.012 -0.024,0.021 -0.039,0.027 -0.016,0.007 -0.032,0.01 -0.049,0.01 -0.01,0 -0.02,-0.002 -0.031,-0.004 L 0.961,-0.527 c 0.004,0.024 0.006,0.047 0.006,0.071 0,0.043 -0.006,0.084 -0.018,0.124 -0.013,0.04 -0.031,0.078 -0.055,0.114 0.002,0.008 0.003,0.016 0.003,0.025 0,0.016 -0.004,0.032 -0.013,0.046 -0.009,0.014 -0.02,0.025 -0.035,0.032 L 0.895,0.066 C 0.896,0.07 0.896,0.073 0.896,0.077 0.897,0.08 0.897,0.084 0.897,0.087 0.897,0.099 0.895,0.111 0.89,0.122 0.886,0.132 0.879,0.142 0.871,0.15 0.863,0.158 0.854,0.164 0.844,0.168 0.833,0.173 0.822,0.175 0.81,0.175 Z"
         style="fill-rule:nonzero"
         id="path17336" /><path
         d="m 0.599,-0.316 c 0.005,0 0.008,0.001 0.01,0.004 0.003,0.003 0.005,0.006 0.007,0.009 0,0.001 0.001,0.006 0.004,0.014 0.002,0.009 0.005,0.02 0.009,0.033 0.003,0.013 0.007,0.028 0.011,0.045 l 0.025,0.101 c 0.004,0.017 0.008,0.032 0.011,0.045 0.003,0.013 0.006,0.024 0.008,0.033 0.002,0.009 0.003,0.013 0.003,0.014 0,0.005 -0.002,0.009 -0.006,0.013 C 0.678,-0.002 0.674,0 0.669,0 0.664,0 0.66,-0.001 0.658,-0.004 0.656,-0.006 0.654,-0.009 0.652,-0.013 0.651,-0.014 0.65,-0.019 0.647,-0.028 0.645,-0.036 0.642,-0.047 0.639,-0.06 0.635,-0.073 0.632,-0.088 0.627,-0.105 0.623,-0.121 0.619,-0.138 0.615,-0.155 0.611,-0.173 0.606,-0.189 0.602,-0.206 0.598,-0.223 0.595,-0.238 0.592,-0.251 0.588,-0.264 0.586,-0.275 0.584,-0.283 0.582,-0.292 0.581,-0.297 0.581,-0.298 c 0,-0.005 0.002,-0.009 0.005,-0.013 0.004,-0.003 0.008,-0.005 0.013,-0.005 z m -0.105,0 c 0.005,0 0.009,0.002 0.012,0.005 0.004,0.004 0.005,0.008 0.005,0.013 0,0.001 -0.001,0.006 -0.003,0.014 -0.002,0.009 -0.004,0.02 -0.007,0.033 -0.003,0.013 -0.007,0.028 -0.011,0.045 L 0.465,-0.104 C 0.461,-0.087 0.457,-0.073 0.453,-0.059 0.45,-0.046 0.447,-0.035 0.445,-0.027 0.442,-0.019 0.441,-0.014 0.44,-0.013 0.438,-0.009 0.436,-0.006 0.434,-0.004 0.432,-0.001 0.429,0 0.423,0 0.418,0 0.414,-0.002 0.411,-0.005 0.407,-0.009 0.406,-0.013 0.406,-0.018 c 0,-0.001 10e-4,-0.005 0.003,-0.014 0.002,-0.009 0.004,-0.02 0.007,-0.033 0.003,-0.013 0.007,-0.028 0.011,-0.045 L 0.452,-0.211 C 0.456,-0.228 0.46,-0.243 0.464,-0.256 0.467,-0.269 0.47,-0.28 0.472,-0.289 0.474,-0.297 0.476,-0.302 0.477,-0.303 0.479,-0.306 0.481,-0.309 0.483,-0.312 0.485,-0.315 0.489,-0.316 0.494,-0.316 Z"
         style="fill:#bb9167;fill-rule:nonzero"
         id="path17338" /><path
         d="m 0.546,-0.807 c 0.015,0 0.03,0.001 0.045,0.003 0.014,0.003 0.029,0.005 0.044,0.009 0.014,0.004 0.029,0.007 0.043,0.012 0.015,0.004 0.029,0.007 0.044,0.011 l 0.414,0.102 c 0.012,0.003 0.022,0.009 0.03,0.019 0.008,0.009 0.012,0.021 0.012,0.034 0,0.007 -0.002,0.014 -0.005,0.021 -0.003,0.007 -0.007,0.013 -0.012,0.018 -0.005,0.005 -0.011,0.009 -0.017,0.012 -0.007,0.003 -0.014,0.004 -0.021,0.004 -0.003,0 -0.005,0 -0.007,0 -0.002,0 -0.005,-10e-4 -0.007,-10e-4 L 0.854,-0.625 c 0.015,0.026 0.025,0.053 0.032,0.081 0.007,0.029 0.011,0.058 0.011,0.087 0,0.033 -0.004,0.064 -0.012,0.094 -0.009,0.03 -0.021,0.058 -0.036,0.084 C 0.834,-0.253 0.816,-0.23 0.794,-0.208 0.773,-0.187 0.749,-0.169 0.723,-0.153 0.698,-0.138 0.67,-0.126 0.64,-0.118 0.61,-0.11 0.579,-0.105 0.546,-0.105 0.514,-0.105 0.483,-0.11 0.453,-0.118 0.423,-0.126 0.395,-0.138 0.369,-0.153 0.343,-0.169 0.319,-0.187 0.298,-0.208 0.277,-0.23 0.258,-0.253 0.243,-0.279 0.228,-0.305 0.216,-0.333 0.208,-0.363 0.199,-0.393 0.195,-0.424 0.195,-0.456 c 0,-0.032 0.004,-0.063 0.013,-0.093 0.008,-0.03 0.02,-0.058 0.035,-0.084 0.015,-0.026 0.034,-0.05 0.055,-0.071 0.021,-0.022 0.045,-0.04 0.071,-0.055 0.026,-0.015 0.054,-0.027 0.084,-0.035 0.03,-0.009 0.061,-0.013 0.093,-0.013 z"
         style="fill:#f2f2f2;fill-rule:nonzero"
         id="path17340" /><path
         d="m 0.862,-0.456 c 0,0.044 -0.008,0.085 -0.025,0.123 -0.016,0.038 -0.039,0.072 -0.067,0.1 C 0.741,-0.204 0.707,-0.182 0.669,-0.165 0.631,-0.148 0.59,-0.14 0.546,-0.14 0.517,-0.14 0.489,-0.144 0.462,-0.151 0.435,-0.159 0.41,-0.17 0.387,-0.183 0.364,-0.197 0.342,-0.214 0.323,-0.233 0.304,-0.252 0.288,-0.273 0.274,-0.297 0.26,-0.32 0.249,-0.345 0.242,-0.372 0.234,-0.399 0.23,-0.427 0.23,-0.456 Z"
         style="fill:#00cea6;fill-rule:nonzero"
         id="path17342" /><path
         d="m 0.406,-0.351 c 0.01,0 0.018,0.003 0.025,0.01 0.006,0.007 0.01,0.015 0.01,0.025 0,0.01 -0.004,0.018 -0.01,0.025 -0.007,0.007 -0.015,0.01 -0.025,0.01 -0.01,0 -0.018,-0.003 -0.025,-0.01 -0.007,-0.007 -0.01,-0.015 -0.01,-0.025 0,-0.01 0.003,-0.018 0.01,-0.025 0.007,-0.007 0.015,-0.01 0.025,-0.01 z m 0.052,-0.035 c -0.004,0 -0.009,-0.002 -0.012,-0.005 -0.003,-0.004 -0.005,-0.008 -0.005,-0.013 0,-0.005 0.002,-0.009 0.005,-0.012 0.003,-0.004 0.008,-0.005 0.012,-0.005 0.005,0 0.01,0.001 0.013,0.005 0.003,0.003 0.005,0.007 0.005,0.012 0,0.005 -0.002,0.009 -0.005,0.013 -0.003,0.003 -0.008,0.005 -0.013,0.005 z m 0,0.105 c 0.005,0 0.01,0.002 0.013,0.005 0.003,0.004 0.005,0.008 0.005,0.013 0,0.005 -0.002,0.009 -0.005,0.012 -0.003,0.004 -0.008,0.005 -0.013,0.005 -0.004,0 -0.009,-0.001 -0.012,-0.005 -0.003,-0.003 -0.005,-0.007 -0.005,-0.012 0,-0.005 0.002,-0.009 0.005,-0.013 0.003,-0.003 0.008,-0.005 0.012,-0.005 z"
         style="fill:#41dabc;fill-rule:nonzero"
         id="path17344" /><path
         d="m 0.546,-0.667 c -0.028,0 -0.055,0.005 -0.08,0.016 -0.026,0.01 -0.049,0.026 -0.069,0.046 l -0.049,-0.05 c 0.026,-0.026 0.056,-0.046 0.091,-0.061 0.034,-0.014 0.07,-0.021 0.107,-0.021 z"
         style="fill:#ffffff;fill-rule:nonzero"
         id="path17346" /><path
         d="m 0.762,-0.176 c 0.008,0.034 0.016,0.067 0.025,0.1 0.009,0.033 0.017,0.066 0.025,0.1 C 0.813,0.027 0.814,0.032 0.816,0.038 0.818,0.044 0.819,0.05 0.821,0.057 0.822,0.064 0.824,0.07 0.825,0.075 0.826,0.081 0.827,0.085 0.827,0.087 0.827,0.092 0.825,0.096 0.822,0.1 0.819,0.103 0.814,0.105 0.81,0.105 0.805,0.105 0.802,0.104 0.799,0.102 0.795,0.099 0.793,0.096 0.792,0.092 L 0.726,-0.176 H 0.367 L 0.3,0.092 C 0.299,0.096 0.297,0.099 0.294,0.102 0.291,0.104 0.287,0.105 0.283,0.105 0.278,0.105 0.274,0.103 0.271,0.1 0.267,0.097 0.266,0.093 0.266,0.088 c 0,-0.003 0,-0.007 0.001,-0.013 C 0.268,0.069 0.27,0.062 0.272,0.055 0.274,0.048 0.275,0.041 0.277,0.034 0.279,0.027 0.28,0.022 0.281,0.017 0.29,-0.016 0.298,-0.049 0.307,-0.081 0.315,-0.112 0.323,-0.144 0.331,-0.176 H 0.283 c -0.005,0 -0.009,-0.002 -0.012,-0.005 -0.004,-0.004 -0.005,-0.008 -0.005,-0.012 0,-0.005 0.001,-0.009 0.005,-0.012 C 0.274,-0.209 0.278,-0.21 0.283,-0.21 H 0.81 c 0.004,0 0.008,0.001 0.012,0.005 0.003,0.003 0.005,0.007 0.005,0.012 0,0.004 -0.002,0.008 -0.005,0.012 -0.004,0.003 -0.008,0.005 -0.012,0.005 z"
         style="fill:#bb9167;fill-rule:nonzero"
         id="path17348" /></g></g></svg>
