<?xml version="1.0" encoding="UTF-8" standalone="no"?>
<svg
   width="11.58"
   height="16.844999"
   viewBox="0 0 11.58 16.844999"
   version="1.1"
   xml:space="preserve"
   style="clip-rule:evenodd;fill-rule:evenodd;stroke-linejoin:round;stroke-miterlimit:2"
   id="svg20568"
   sodipodi:docname="emojis.svg"
   xmlns:inkscape="http://www.inkscape.org/namespaces/inkscape"
   xmlns:sodipodi="http://sodipodi.sourceforge.net/DTD/sodipodi-0.dtd"
   xmlns="http://www.w3.org/2000/svg"
   xmlns:svg="http://www.w3.org/2000/svg"><defs
     id="defs20572" /><sodipodi:namedview
     id="namedview20570"
     pagecolor="#505050"
     bordercolor="#eeeeee"
     borderopacity="1"
     inkscape:pageshadow="0"
     inkscape:pageopacity="0"
     inkscape:pagecheckerboard="0" /><g
     transform="matrix(0.24,0,0,0.24,-469.563,-834.249)"
     id="g20566"><g
       transform="matrix(62.5,0,0,62.5,1948.7,3533.1)"
       id="g17304"><path
         d="m 0.897,-0.702 c 0,0.028 -0.006,0.054 -0.018,0.079 -0.013,0.024 -0.03,0.045 -0.052,0.061 0.022,0.017 0.039,0.038 0.052,0.062 0.012,0.025 0.018,0.051 0.018,0.079 v 0.14 c 0,0.028 -0.006,0.054 -0.018,0.079 -0.013,0.024 -0.03,0.045 -0.052,0.061 0.022,0.017 0.039,0.038 0.052,0.062 C 0.891,-0.054 0.897,-0.028 0.897,0 V 0.21 H 0.23 V 0.09 C 0.215,0.083 0.201,0.075 0.188,0.063 0.174,0.052 0.163,0.04 0.154,0.026 0.145,0.011 0.138,-0.004 0.133,-0.02 0.128,-0.036 0.125,-0.053 0.125,-0.07 v -0.14 c 0,-0.028 0.006,-0.054 0.019,-0.079 C 0.156,-0.314 0.173,-0.334 0.195,-0.351 0.173,-0.368 0.156,-0.388 0.144,-0.413 0.131,-0.437 0.125,-0.464 0.125,-0.491 v -0.141 c 0,-0.017 0.003,-0.034 0.008,-0.05 0.005,-0.016 0.012,-0.032 0.021,-0.046 0.009,-0.014 0.02,-0.027 0.034,-0.038 0.013,-0.011 0.027,-0.02 0.042,-0.026 v -0.121 h 0.667 z"
         style="fill-rule:nonzero"
         id="path17298" /><path
         d="m 0.371,-0.737 c 0.014,0 0.028,0.002 0.041,0.008 0.012,0.006 0.023,0.013 0.033,0.023 0.01,0.009 0.017,0.02 0.023,0.033 0.005,0.013 0.008,0.027 0.008,0.041 v 0.141 c 0,0.014 -0.003,0.028 -0.008,0.041 -0.006,0.012 -0.013,0.024 -0.023,0.033 -0.01,0.009 -0.021,0.017 -0.033,0.022 -0.013,0.006 -0.027,0.009 -0.041,0.009 H 0.3 C 0.286,-0.386 0.272,-0.389 0.259,-0.395 0.247,-0.4 0.236,-0.408 0.226,-0.417 0.217,-0.426 0.209,-0.438 0.204,-0.45 0.198,-0.463 0.195,-0.477 0.195,-0.491 v -0.141 c 0,-0.014 0.003,-0.028 0.009,-0.041 0.005,-0.013 0.013,-0.024 0.022,-0.033 0.01,-0.01 0.021,-0.017 0.033,-0.023 0.013,-0.006 0.027,-0.008 0.041,-0.008 z m 0,0.421 c 0.014,0 0.028,0.003 0.041,0.008 0.012,0.006 0.023,0.013 0.033,0.023 0.01,0.01 0.017,0.021 0.023,0.034 0.005,0.012 0.008,0.026 0.008,0.041 v 0.14 c 0,0.014 -0.003,0.028 -0.008,0.041 C 0.462,-0.017 0.455,-0.005 0.445,0.004 0.435,0.014 0.424,0.021 0.412,0.027 0.399,0.032 0.385,0.035 0.371,0.035 H 0.3 C 0.286,0.035 0.272,0.032 0.259,0.027 0.247,0.021 0.236,0.014 0.226,0.004 0.217,-0.005 0.209,-0.017 0.204,-0.029 0.198,-0.042 0.195,-0.056 0.195,-0.07 v -0.14 c 0,-0.015 0.003,-0.029 0.009,-0.041 0.005,-0.013 0.013,-0.024 0.022,-0.034 0.01,-0.01 0.021,-0.017 0.033,-0.023 0.013,-0.005 0.027,-0.008 0.041,-0.008 z m 0.351,-0.21 c 0.014,0 0.028,0.002 0.041,0.008 0.012,0.005 0.023,0.013 0.033,0.022 0.009,0.01 0.017,0.021 0.022,0.034 0.006,0.012 0.009,0.026 0.009,0.041 v 0.14 c 0,0.015 -0.003,0.029 -0.009,0.041 -0.005,0.013 -0.013,0.024 -0.022,0.033 -0.01,0.01 -0.021,0.017 -0.033,0.023 -0.013,0.005 -0.027,0.008 -0.041,0.008 H 0.651 C 0.637,-0.176 0.623,-0.179 0.61,-0.184 0.598,-0.19 0.587,-0.197 0.577,-0.207 0.567,-0.216 0.56,-0.227 0.554,-0.24 0.549,-0.252 0.546,-0.266 0.546,-0.281 v -0.14 c 0,-0.015 0.003,-0.029 0.008,-0.041 0.006,-0.013 0.013,-0.024 0.023,-0.034 0.01,-0.009 0.021,-0.017 0.033,-0.022 0.013,-0.006 0.027,-0.008 0.041,-0.008 z m 0,-0.141 c 0.009,0 0.018,-0.003 0.025,-0.01 0.006,-0.007 0.01,-0.015 0.01,-0.025 v -0.14 h 0.07 v 0.14 c 0,0.015 -0.003,0.028 -0.009,0.041 -0.005,0.013 -0.013,0.024 -0.022,0.033 -0.01,0.01 -0.021,0.017 -0.033,0.023 -0.013,0.006 -0.027,0.008 -0.041,0.008 H 0.651 C 0.637,-0.597 0.623,-0.599 0.61,-0.605 0.598,-0.611 0.587,-0.618 0.577,-0.628 0.567,-0.637 0.56,-0.648 0.554,-0.661 0.549,-0.674 0.546,-0.687 0.546,-0.702 v -0.14 h 0.07 v 0.14 c 0,0.01 0.004,0.018 0.01,0.025 0.007,0.007 0.016,0.01 0.025,0.01 z m 0,0.562 c 0.014,0 0.028,0.002 0.041,0.008 0.012,0.005 0.023,0.013 0.033,0.023 0.009,0.009 0.017,0.02 0.022,0.033 C 0.824,-0.028 0.827,-0.015 0.827,0 V 0.14 H 0.757 V 0 c 0,-0.01 -0.004,-0.018 -0.01,-0.025 C 0.74,-0.032 0.731,-0.035 0.722,-0.035 H 0.651 c -0.009,0 -0.018,0.003 -0.025,0.01 C 0.62,-0.018 0.616,-0.01 0.616,0 V 0.14 H 0.546 V 0 c 0,-0.015 0.003,-0.028 0.008,-0.041 0.006,-0.013 0.013,-0.024 0.023,-0.033 0.01,-0.01 0.021,-0.018 0.033,-0.023 0.013,-0.006 0.027,-0.008 0.041,-0.008 z m 0.035,-0.176 v -0.14 c 0,-0.01 -0.004,-0.018 -0.011,-0.025 C 0.739,-0.453 0.731,-0.457 0.722,-0.457 H 0.651 c -0.009,0 -0.017,0.004 -0.024,0.011 -0.007,0.007 -0.011,0.015 -0.011,0.025 v 0.14 c 0,0.01 0.004,0.018 0.01,0.025 0.007,0.007 0.016,0.01 0.025,0.01 h 0.071 c 0.009,0 0.018,-0.003 0.025,-0.01 0.006,-0.007 0.01,-0.015 0.01,-0.025 z m -0.351,-0.21 v -0.141 c 0,-0.01 -0.004,-0.018 -0.01,-0.025 C 0.389,-0.664 0.38,-0.667 0.371,-0.667 H 0.3 c -0.009,0 -0.017,0.004 -0.024,0.011 -0.007,0.007 -0.011,0.015 -0.011,0.024 v 0.141 c 0,0.009 0.004,0.017 0.011,0.024 0.007,0.007 0.015,0.01 0.024,0.01 h 0.071 c 0.009,0 0.017,-0.003 0.024,-0.01 0.007,-0.007 0.011,-0.015 0.011,-0.024 z m 0,0.421 v -0.14 c 0,-0.01 -0.004,-0.019 -0.01,-0.025 C 0.389,-0.242 0.38,-0.246 0.371,-0.246 H 0.3 c -0.009,0 -0.017,0.004 -0.024,0.011 -0.007,0.007 -0.011,0.015 -0.011,0.025 v 0.14 c 0,0.009 0.004,0.017 0.011,0.024 0.007,0.007 0.015,0.011 0.024,0.011 h 0.071 c 0.009,0 0.018,-0.004 0.025,-0.01 0.006,-0.007 0.01,-0.016 0.01,-0.025 z"
         style="fill:#e5e5e5;fill-rule:nonzero"
         id="path17300" /><path
         d="m 0.335,-0.491 c 0.01,0 0.018,0.003 0.025,0.01 0.007,0.007 0.011,0.015 0.011,0.024 v 0.211 c 0,0.01 -0.004,0.018 -0.011,0.025 C 0.353,-0.214 0.345,-0.21 0.335,-0.21 0.326,-0.21 0.318,-0.214 0.311,-0.221 0.304,-0.228 0.3,-0.236 0.3,-0.246 v -0.211 c 0,-0.009 0.004,-0.017 0.011,-0.024 0.007,-0.007 0.015,-0.01 0.024,-0.01 z M 0.3,-0.667 v -0.175 h 0.071 v 0.175 c 0,0.01 -0.004,0.018 -0.011,0.025 -0.006,0.007 -0.015,0.01 -0.025,0.01 -0.009,0 -0.018,-0.003 -0.024,-0.01 C 0.304,-0.649 0.3,-0.657 0.3,-0.667 Z m 0.035,0.597 c 0.01,0 0.019,0.003 0.025,0.01 0.007,0.007 0.011,0.015 0.011,0.025 V 0.14 H 0.3 v -0.175 c 0,-0.01 0.004,-0.018 0.011,-0.025 0.006,-0.007 0.015,-0.01 0.024,-0.01 z m 0.352,-0.211 c 0.009,0 0.018,0.004 0.024,0.01 0.007,0.007 0.011,0.016 0.011,0.025 v 0.211 c 0,0.01 -0.004,0.018 -0.011,0.025 C 0.705,-0.003 0.696,0 0.687,0 0.677,0 0.668,-0.003 0.662,-0.01 0.655,-0.017 0.651,-0.025 0.651,-0.035 v -0.211 c 0,-0.009 0.004,-0.018 0.011,-0.025 0.006,-0.006 0.015,-0.01 0.025,-0.01 z m 0,-0.421 c 0.009,0 0.018,0.003 0.024,0.01 0.007,0.007 0.011,0.015 0.011,0.025 v 0.21 c 0,0.01 -0.004,0.019 -0.011,0.025 -0.006,0.007 -0.015,0.011 -0.024,0.011 -0.01,0 -0.019,-0.004 -0.025,-0.011 C 0.655,-0.438 0.651,-0.447 0.651,-0.457 v -0.21 c 0,-0.01 0.004,-0.018 0.011,-0.025 0.006,-0.007 0.015,-0.01 0.025,-0.01 z"
         style="fill:#cccccc;fill-rule:nonzero"
         id="path17302" /></g></g></svg>
