<?xml version="1.0" encoding="UTF-8" standalone="no"?>
<svg
   width="16.844999"
   height="12.63"
   viewBox="0 0 16.844999 12.63"
   version="1.1"
   xml:space="preserve"
   style="clip-rule:evenodd;fill-rule:evenodd;stroke-linejoin:round;stroke-miterlimit:2"
   id="svg20568"
   sodipodi:docname="emojis.svg"
   xmlns:inkscape="http://www.inkscape.org/namespaces/inkscape"
   xmlns:sodipodi="http://sodipodi.sourceforge.net/DTD/sodipodi-0.dtd"
   xmlns="http://www.w3.org/2000/svg"
   xmlns:svg="http://www.w3.org/2000/svg"><defs
     id="defs20572" /><sodipodi:namedview
     id="namedview20570"
     pagecolor="#505050"
     bordercolor="#eeeeee"
     borderopacity="1"
     inkscape:pageshadow="0"
     inkscape:pageopacity="0"
     inkscape:pagecheckerboard="0" /><g
     transform="matrix(0.24,0,0,0.24,-484.9014,-838.464)"
     id="g20566"><g
       transform="matrix(62.5,0,0,62.5,2012.61,3533.1)"
       id="g17322"><path
         d="M 0.23,0.21 C 0.216,0.21 0.202,0.208 0.189,0.202 0.177,0.197 0.166,0.189 0.156,0.179 0.146,0.17 0.139,0.159 0.133,0.146 0.128,0.133 0.125,0.12 0.125,0.105 v -0.421 c 0,-0.024 0.005,-0.047 0.014,-0.068 0.009,-0.021 0.021,-0.04 0.037,-0.056 0.016,-0.015 0.035,-0.028 0.056,-0.037 0.021,-0.01 0.044,-0.014 0.068,-0.014 h 0.141 c 0,-0.019 0.004,-0.038 0.011,-0.055 0.007,-0.017 0.017,-0.032 0.03,-0.044 0.013,-0.013 0.028,-0.023 0.045,-0.031 0.017,-0.007 0.035,-0.011 0.054,-0.011 h 0.176 c 0.019,0 0.037,0.004 0.054,0.011 0.017,0.008 0.032,0.018 0.045,0.031 0.013,0.012 0.023,0.027 0.03,0.044 0.007,0.017 0.011,0.036 0.011,0.055 h 0.176 c 0.024,0 0.047,0.004 0.068,0.014 0.021,0.009 0.04,0.022 0.056,0.037 0.015,0.016 0.028,0.035 0.037,0.056 0.009,0.021 0.014,0.044 0.014,0.068 V 0.105 C 1.248,0.12 1.245,0.133 1.24,0.146 1.234,0.159 1.227,0.17 1.217,0.179 1.207,0.189 1.196,0.197 1.184,0.202 1.171,0.208 1.157,0.21 1.143,0.21 Z"
         style="fill-rule:nonzero"
         id="path17306" /><path
         d="M 0.827,-0.407 H 0.757 V -0.491 H 0.581 v 0.084 h -0.07 v -0.084 c 0,-0.01 0.002,-0.019 0.006,-0.028 0.003,-0.008 0.008,-0.015 0.014,-0.022 0.007,-0.006 0.014,-0.011 0.023,-0.015 0.008,-0.004 0.017,-0.006 0.027,-0.006 h 0.176 c 0.01,0 0.019,0.002 0.027,0.006 0.009,0.004 0.016,0.009 0.022,0.015 0.007,0.007 0.012,0.014 0.015,0.022 0.004,0.009 0.006,0.018 0.006,0.028 z"
         style="fill:#757575;fill-rule:nonzero"
         id="path17308" /><path
         d="M 0.967,0.121 H 0.23 L 0.195,0.105 V -0.21 L 0.217,-0.228 0.195,-0.246 v -0.07 c 0,-0.015 0.003,-0.028 0.009,-0.041 C 0.209,-0.37 0.217,-0.381 0.226,-0.39 0.236,-0.4 0.247,-0.408 0.259,-0.413 0.272,-0.419 0.286,-0.421 0.3,-0.421 h 0.667 z"
         style="fill:#e81224;fill-rule:nonzero"
         id="path17310" /><path
         d="m 1.073,-0.421 c 0.014,0 0.028,0.002 0.041,0.008 0.012,0.005 0.024,0.013 0.033,0.023 0.009,0.009 0.017,0.02 0.022,0.033 0.006,0.013 0.009,0.026 0.009,0.041 v 0.07 L 1.16,-0.228 1.178,-0.21 V 0.105 C 1.178,0.115 1.174,0.123 1.167,0.13 1.161,0.137 1.152,0.14 1.143,0.14 H 0.23 C 0.221,0.14 0.212,0.137 0.206,0.13 0.199,0.123 0.195,0.115 0.195,0.105 H 0.862 V -0.21 H 0.195 v -0.036 h 0.667 v -0.07 c 0,-0.015 0.003,-0.028 0.008,-0.041 C 0.876,-0.37 0.883,-0.381 0.893,-0.39 0.902,-0.4 0.914,-0.408 0.926,-0.413 0.939,-0.419 0.953,-0.421 0.967,-0.421 Z"
         style="fill:#af0d1a;fill-rule:nonzero"
         id="path17312" /><rect
         x="0.86199999"
         y="-0.24600001"
         width="0.31600001"
         height="0.035"
         style="fill:#2b2b2b;fill-rule:nonzero"
         id="rect17314" /><path
         d="m 0.388,-0.281 h 0.035 c 0.005,0 0.009,0.002 0.013,0.005 0.003,0.004 0.005,0.008 0.005,0.013 v 0.105 c 0,0.007 -0.001,0.014 -0.004,0.021 C 0.434,-0.131 0.43,-0.126 0.426,-0.121 0.421,-0.116 0.415,-0.112 0.409,-0.11 0.402,-0.107 0.395,-0.105 0.388,-0.105 H 0.353 Z m 0.351,0 h 0.035 c 0.005,0 0.009,0.002 0.013,0.006 0.003,0.003 0.005,0.007 0.005,0.012 v 0.105 c 0,0.007 -0.001,0.014 -0.004,0.02 -0.003,0.006 -0.007,0.012 -0.012,0.017 -0.005,0.005 -0.01,0.009 -0.016,0.011 -0.007,0.003 -0.014,0.005 -0.021,0.005 H 0.704 Z"
         style="fill:#757575;fill-rule:nonzero"
         id="path17316" /><path
         d="M 0.353,-0.105 C 0.346,-0.105 0.339,-0.107 0.333,-0.11 0.326,-0.112 0.321,-0.116 0.316,-0.121 0.311,-0.126 0.307,-0.132 0.304,-0.138 0.302,-0.144 0.3,-0.151 0.3,-0.158 V -0.21 L 0.317,-0.228 0.3,-0.246 v -0.017 c 0,-0.005 0.002,-0.009 0.005,-0.013 0.004,-0.003 0.008,-0.005 0.013,-0.005 h 0.07 c 0.005,0 0.009,0.002 0.013,0.005 0.003,0.004 0.005,0.008 0.005,0.013 v 0.017 l -0.021,0.018 0.021,0.018 v 0.052 c 0,0.007 -0.002,0.014 -0.004,0.021 C 0.399,-0.131 0.395,-0.126 0.39,-0.121 0.386,-0.116 0.38,-0.112 0.374,-0.11 0.367,-0.107 0.36,-0.105 0.353,-0.105 Z m 0.351,0 C 0.697,-0.105 0.69,-0.107 0.683,-0.11 0.677,-0.112 0.671,-0.116 0.667,-0.121 0.662,-0.126 0.658,-0.131 0.656,-0.137 0.653,-0.144 0.651,-0.151 0.651,-0.158 V -0.21 L 0.669,-0.228 0.651,-0.246 v -0.017 c 0,-0.005 0.002,-0.009 0.005,-0.013 0.004,-0.003 0.008,-0.005 0.013,-0.005 h 0.07 c 0.005,0 0.009,0.002 0.013,0.005 0.003,0.004 0.005,0.008 0.005,0.013 v 0.017 L 0.74,-0.228 0.757,-0.21 v 0.052 c 0,0.007 -0.002,0.014 -0.004,0.02 -0.003,0.006 -0.007,0.012 -0.012,0.017 -0.005,0.005 -0.01,0.009 -0.017,0.011 -0.006,0.003 -0.013,0.005 -0.02,0.005 z"
         style="fill:#e5e5e5;fill-rule:nonzero"
         id="path17318" /><path
         d="M 0.406,-0.21 H 0.3 v -0.036 h 0.106 z m 0.351,0 H 0.651 v -0.036 h 0.106 z"
         style="fill:#a6a6a6;fill-rule:nonzero"
         id="path17320" /></g></g></svg>
