<?xml version="1.0" encoding="UTF-8" standalone="no"?>
<svg
   width="12.105"
   height="16.844999"
   viewBox="0 0 12.105 16.844999"
   version="1.1"
   xml:space="preserve"
   style="clip-rule:evenodd;fill-rule:evenodd;stroke-linejoin:round;stroke-miterlimit:2"
   id="svg20568"
   sodipodi:docname="emojis.svg"
   xmlns:inkscape="http://www.inkscape.org/namespaces/inkscape"
   xmlns:sodipodi="http://sodipodi.sourceforge.net/DTD/sodipodi-0.dtd"
   xmlns="http://www.w3.org/2000/svg"
   xmlns:svg="http://www.w3.org/2000/svg"><defs
     id="defs20572" /><sodipodi:namedview
     id="namedview20570"
     pagecolor="#505050"
     bordercolor="#eeeeee"
     borderopacity="1"
     inkscape:pageshadow="0"
     inkscape:pageopacity="0"
     inkscape:pagecheckerboard="0" /><g
     transform="matrix(0.24,0,0,0.24,-686.6526,-834.249)"
     id="g20566"><g
       transform="matrix(62.5,0,0,62.5,2853.24,3533.1)"
       id="g17464"><path
         d="m 0.561,-0.913 c 0.003,0 0.006,0.002 0.01,0.004 0.003,0.002 0.005,0.005 0.006,0.009 l 0.018,0.053 c 0.012,0.033 0.025,0.065 0.041,0.097 0.016,0.031 0.033,0.061 0.052,0.091 0.018,0.029 0.038,0.058 0.059,0.087 0.021,0.028 0.042,0.056 0.064,0.084 l 0.034,0.044 c 0.028,0.037 0.05,0.076 0.065,0.118 0.015,0.041 0.022,0.086 0.022,0.133 0,0.037 -0.005,0.072 -0.014,0.107 C 0.908,-0.052 0.895,-0.02 0.877,0.01 0.859,0.04 0.838,0.067 0.814,0.092 0.789,0.117 0.762,0.138 0.732,0.155 0.702,0.173 0.67,0.186 0.636,0.196 0.602,0.206 0.566,0.21 0.529,0.21 0.492,0.21 0.456,0.206 0.422,0.196 0.387,0.186 0.355,0.173 0.325,0.155 0.295,0.138 0.268,0.117 0.243,0.092 0.219,0.067 0.198,0.04 0.18,0.01 0.163,-0.02 0.149,-0.052 0.139,-0.086 0.13,-0.121 0.125,-0.156 0.125,-0.193 c 0,-0.048 0.008,-0.093 0.023,-0.134 0.015,-0.042 0.037,-0.081 0.066,-0.119 L 0.247,-0.488 C 0.268,-0.516 0.289,-0.544 0.31,-0.572 0.331,-0.601 0.351,-0.63 0.369,-0.659 0.388,-0.689 0.405,-0.719 0.421,-0.75 0.437,-0.782 0.451,-0.814 0.462,-0.847 L 0.48,-0.9 c 0.001,-0.004 0.003,-0.007 0.007,-0.009 0.003,-0.002 0.006,-0.004 0.01,-0.004 z"
         style="fill-rule:nonzero"
         id="path17458" /><path
         d="m 0.529,-0.825 c 0.013,0.041 0.03,0.079 0.049,0.116 0.019,0.036 0.04,0.071 0.063,0.106 0.023,0.034 0.047,0.068 0.072,0.101 0.025,0.033 0.051,0.067 0.076,0.1 0.023,0.032 0.041,0.065 0.054,0.098 0.013,0.034 0.019,0.071 0.019,0.111 0,0.03 -0.004,0.06 -0.012,0.088 C 0.842,-0.076 0.831,-0.05 0.816,-0.025 0.802,0 0.785,0.022 0.764,0.042 0.744,0.063 0.722,0.08 0.697,0.094 0.672,0.109 0.646,0.12 0.617,0.128 0.589,0.136 0.559,0.14 0.529,0.14 0.498,0.14 0.469,0.136 0.44,0.128 0.412,0.12 0.385,0.109 0.36,0.095 0.336,0.08 0.313,0.063 0.293,0.043 0.272,0.022 0.255,0 0.241,-0.025 0.226,-0.05 0.215,-0.076 0.207,-0.104 0.199,-0.133 0.195,-0.162 0.195,-0.193 c 0,-0.04 0.007,-0.077 0.019,-0.111 0.013,-0.033 0.031,-0.066 0.055,-0.098 0.025,-0.033 0.05,-0.067 0.075,-0.1 0.025,-0.033 0.049,-0.067 0.072,-0.101 0.023,-0.035 0.044,-0.07 0.063,-0.106 0.02,-0.037 0.036,-0.075 0.05,-0.116 z"
         style="fill:#e81224;fill-rule:nonzero"
         id="path17460" /><path
         d="M 0.367,0.003 C 0.358,0.003 0.35,0 0.342,-0.007 0.33,-0.018 0.319,-0.031 0.31,-0.046 0.3,-0.06 0.292,-0.076 0.286,-0.093 0.279,-0.109 0.274,-0.126 0.271,-0.143 0.267,-0.16 0.265,-0.177 0.265,-0.193 c 0,-0.015 0.001,-0.03 0.004,-0.045 C 0.272,-0.252 0.275,-0.266 0.28,-0.281 0.287,-0.3 0.295,-0.317 0.306,-0.333 0.316,-0.349 0.328,-0.364 0.34,-0.38 l 0.007,-0.009 c 0.014,-0.018 0.028,-0.037 0.041,-0.055 0.014,-0.018 0.028,-0.036 0.042,-0.055 0.007,-0.009 0.016,-0.014 0.028,-0.014 0.01,0 0.018,0.003 0.025,0.01 0.007,0.007 0.01,0.016 0.01,0.025 0,0.007 -0.002,0.014 -0.007,0.02 -0.012,0.02 -0.026,0.039 -0.04,0.057 -0.015,0.018 -0.029,0.037 -0.044,0.055 -0.01,0.014 -0.021,0.028 -0.031,0.042 -0.011,0.014 -0.019,0.03 -0.025,0.047 -0.007,0.02 -0.011,0.041 -0.011,0.063 0,0.028 0.005,0.053 0.015,0.074 0.01,0.022 0.024,0.043 0.042,0.063 0.003,0.004 0.006,0.008 0.008,0.012 0.001,0.003 0.002,0.008 0.002,0.013 0,0.01 -0.003,0.018 -0.01,0.025 C 0.385,0 0.377,0.003 0.367,0.003 Z"
         style="fill:#ef6950;fill-rule:nonzero"
         id="path17462" /></g></g></svg>
