<?xml version="1.0" encoding="UTF-8" standalone="no"?>
<svg
   width="12.63"
   height="16.844999"
   viewBox="0 0 12.63 16.844999"
   version="1.1"
   xml:space="preserve"
   style="clip-rule:evenodd;fill-rule:evenodd;stroke-linejoin:round;stroke-miterlimit:2"
   id="svg20568"
   sodipodi:docname="emojis.svg"
   xmlns:inkscape="http://www.inkscape.org/namespaces/inkscape"
   xmlns:sodipodi="http://sodipodi.sourceforge.net/DTD/sodipodi-0.dtd"
   xmlns="http://www.w3.org/2000/svg"
   xmlns:svg="http://www.w3.org/2000/svg"><defs
     id="defs20572" /><sodipodi:namedview
     id="namedview20570"
     pagecolor="#505050"
     bordercolor="#eeeeee"
     borderopacity="1"
     inkscape:pageshadow="0"
     inkscape:pageopacity="0"
     inkscape:pagecheckerboard="0" /><g
     transform="matrix(0.24,0,0,0.24,-13.213584,-144.6594)"
     id="g20566"><g
       transform="matrix(62.5,0,0,62.5,47.2441,659.81)"
       id="g1758"><path
         d="M 0.23,0.21 C 0.216,0.21 0.202,0.208 0.189,0.202 0.177,0.197 0.166,0.189 0.156,0.179 0.146,0.17 0.139,0.159 0.133,0.146 0.128,0.133 0.125,0.12 0.125,0.105 0.125,0.091 0.128,0.077 0.133,0.064 0.139,0.052 0.146,0.041 0.156,0.031 0.166,0.021 0.177,0.014 0.19,0.008 0.203,0.003 0.216,0 0.23,0 H 0.24 C 0.242,-0.005 0.246,-0.013 0.252,-0.024 0.258,-0.035 0.264,-0.046 0.27,-0.058 0.275,-0.07 0.281,-0.081 0.285,-0.092 0.29,-0.102 0.292,-0.11 0.292,-0.114 c 0,-0.003 0,-0.007 -0.001,-0.011 L 0.168,-0.496 C 0.163,-0.511 0.16,-0.527 0.16,-0.544 c 0,-0.031 0.008,-0.059 0.024,-0.084 0.015,-0.025 0.037,-0.044 0.064,-0.058 l 0.416,-0.205 c 0.029,-0.014 0.06,-0.022 0.092,-0.022 0.029,0 0.057,0.006 0.082,0.017 0.026,0.011 0.048,0.025 0.068,0.044 0.019,0.019 0.034,0.041 0.045,0.066 0.011,0.026 0.016,0.053 0.016,0.082 0,0.022 -0.003,0.043 -0.009,0.064 -0.007,0.02 -0.016,0.039 -0.028,0.056 -0.012,0.018 -0.026,0.033 -0.042,0.047 -0.017,0.013 -0.035,0.024 -0.055,0.032 -0.011,0.004 -0.021,0.006 -0.031,0.008 -0.01,0.002 -0.021,0.004 -0.032,0.005 -0.016,0.002 -0.031,0.004 -0.046,0.006 -0.014,0.002 -0.03,0.005 -0.045,0.007 l -0.015,0.002 c -0.026,0.004 -0.051,0.007 -0.076,0.011 -0.026,0.004 -0.051,0.01 -0.075,0.017 0.008,0.024 0.014,0.047 0.018,0.067 0.004,0.021 0.008,0.041 0.01,0.061 0.002,0.02 0.003,0.041 0.004,0.062 0.001,0.021 0.001,0.044 0.001,0.068 0,0.005 0,0.009 0,0.014 0,0.004 0.001,0.009 0.001,0.013 0.013,0.006 0.025,0.013 0.036,0.021 0.011,0.009 0.02,0.019 0.027,0.03 0.008,0.012 0.014,0.024 0.018,0.037 0.004,0.014 0.006,0.027 0.006,0.041 0,0.028 -0.008,0.053 -0.022,0.076 C 0.597,0.063 0.577,0.08 0.553,0.092 L 0.317,0.21 Z"
         style="fill-rule:nonzero"
         id="path1754" /><path
         d="m 0.757,-0.843 c 0.019,0 0.038,0.004 0.055,0.011 0.017,0.008 0.032,0.018 0.044,0.03 0.013,0.013 0.023,0.028 0.03,0.045 0.007,0.017 0.011,0.035 0.011,0.055 0,0.014 -0.002,0.029 -0.007,0.043 C 0.886,-0.646 0.88,-0.633 0.872,-0.622 0.863,-0.61 0.854,-0.6 0.842,-0.591 0.831,-0.582 0.818,-0.575 0.805,-0.57 0.798,-0.568 0.791,-0.566 0.784,-0.565 0.778,-0.564 0.771,-0.563 0.763,-0.562 0.747,-0.56 0.731,-0.558 0.715,-0.556 0.698,-0.553 0.682,-0.551 0.666,-0.549 0.643,-0.546 0.621,-0.542 0.6,-0.539 c -0.021,0.004 -0.041,0.008 -0.061,0.012 -0.02,0.004 -0.04,0.01 -0.06,0.016 -0.02,0.006 -0.041,0.013 -0.063,0.022 0.007,0.012 0.014,0.024 0.02,0.036 0.005,0.013 0.01,0.026 0.014,0.04 0.005,0.017 0.009,0.034 0.012,0.049 0.004,0.016 0.006,0.031 0.008,0.046 0.002,0.015 0.004,0.03 0.005,0.046 0.001,0.016 0.001,0.033 0.001,0.051 v 0.034 c 0,0.006 0,0.012 0,0.018 0,0.006 0.001,0.011 0.002,0.017 0.002,0.012 0.007,0.023 0.014,0.031 0.007,0.009 0.016,0.016 0.028,0.021 0.013,0.006 0.024,0.015 0.032,0.026 0.008,0.01 0.012,0.024 0.012,0.039 0,0.014 -0.004,0.027 -0.012,0.038 C 0.544,0.014 0.534,0.023 0.521,0.03 L 0.3,0.14 H 0.23 C 0.221,0.14 0.212,0.137 0.206,0.13 0.199,0.123 0.195,0.115 0.195,0.105 0.195,0.096 0.199,0.087 0.206,0.081 0.213,0.074 0.221,0.07 0.23,0.07 L 0.25,0.071 C 0.259,0.071 0.267,0.07 0.274,0.067 0.282,0.065 0.288,0.06 0.292,0.051 l 0.059,-0.117 c 0.008,-0.015 0.011,-0.031 0.011,-0.047 0,-0.011 -0.001,-0.022 -0.005,-0.033 L 0.234,-0.518 C 0.231,-0.526 0.23,-0.535 0.23,-0.544 c 0,-0.017 0.004,-0.032 0.013,-0.046 0.009,-0.014 0.021,-0.025 0.036,-0.033 l 0.416,-0.205 c 0.009,-0.005 0.019,-0.008 0.03,-0.011 0.01,-0.002 0.021,-0.004 0.032,-0.004 z"
         style="fill:#ffc83d;fill-rule:nonzero"
         id="path1756" /></g></g></svg>
