<?xml version="1.0" encoding="UTF-8" standalone="no"?>
<svg
   width="11.055"
   height="16.844999"
   viewBox="0 0 11.055 16.844999"
   version="1.1"
   xml:space="preserve"
   style="clip-rule:evenodd;fill-rule:evenodd;stroke-linejoin:round;stroke-miterlimit:2"
   id="svg20568"
   sodipodi:docname="emojis.svg"
   xmlns:inkscape="http://www.inkscape.org/namespaces/inkscape"
   xmlns:sodipodi="http://sodipodi.sourceforge.net/DTD/sodipodi-0.dtd"
   xmlns="http://www.w3.org/2000/svg"
   xmlns:svg="http://www.w3.org/2000/svg"><defs
     id="defs20572" /><sodipodi:namedview
     id="namedview20570"
     pagecolor="#505050"
     bordercolor="#eeeeee"
     borderopacity="1"
     inkscape:pageshadow="0"
     inkscape:pageopacity="0"
     inkscape:pagecheckerboard="0" /><g
     transform="matrix(0.24,0,0,0.24,-33.8094,-851.2194)"
     id="g20566"><g
       transform="matrix(62.5,0,0,62.5,133.06,3603.81)"
       id="g17558"><path
         d="M 0.862,-0.728 V 0.043 L 0.757,0.096 0.651,0.043 V 0.008 L 0.616,0.026 v 0.14 L 0.528,0.21 H 0.494 L 0.406,0.166 V 0.026 L 0.335,-0.009 V 0.026 L 0.23,0.079 0.125,0.026 v -0.421 l 0.246,-0.123 v -0.35 l 0.088,-0.045 h 0.034 l 0.088,0.045 v 0.035 l 0.141,0.07 0.035,-0.018 z"
         style="fill-rule:nonzero"
         id="path17550" /><path
         d="m 0.459,-0.815 0.052,-0.01 v 0.378 L 0.476,-0.429 0.459,-0.442 Z m -0.242,0.499 v 0.16 c 0,0.005 0,0.01 0,0.014 0.001,0.004 0.001,0.008 0.002,0.012 0,0.004 0,0.008 0.001,0.012 L 0.23,0 0.265,-0.018 v -0.28 z m 0.522,-0.36 v 0.351 L 0.485,-0.222 0.511,0.14 0.546,0.123 V -0.018 L 0.722,-0.105 0.757,0.018 0.792,0 v -0.685 z m 0,0.509 -0.193,0.097 v -0.106 l 0.176,-0.087 z"
         style="fill:#8e562e;fill-rule:nonzero"
         id="path17552" /><path
         d="M 0.511,-0.825 C 0.502,-0.82 0.493,-0.816 0.483,-0.811 0.474,-0.807 0.465,-0.801 0.458,-0.795 L 0.441,-0.825 0.476,-0.842 Z M 0.476,-0.053 0.373,-0.088 C 0.368,-0.09 0.363,-0.091 0.359,-0.092 0.355,-0.093 0.351,-0.094 0.347,-0.095 0.343,-0.097 0.339,-0.098 0.335,-0.099 0.331,-0.101 0.326,-0.103 0.321,-0.105 0.321,-0.106 0.318,-0.108 0.314,-0.111 0.309,-0.114 0.304,-0.118 0.298,-0.123 0.292,-0.128 0.285,-0.133 0.278,-0.139 L 0.24,-0.168 C 0.235,-0.172 0.232,-0.174 0.23,-0.176 l 0.035,-0.017 0.211,0.105 z M 0.792,-0.685 C 0.786,-0.683 0.78,-0.68 0.773,-0.676 0.767,-0.673 0.76,-0.669 0.754,-0.664 0.748,-0.66 0.742,-0.655 0.736,-0.65 0.73,-0.645 0.726,-0.64 0.722,-0.636 L 0.459,-0.764 0.511,-0.79 0.722,-0.685 0.757,-0.702 Z M 0.757,-0.316 0.511,-0.193 0.329,-0.263 C 0.324,-0.265 0.32,-0.268 0.316,-0.27 0.313,-0.272 0.309,-0.275 0.306,-0.277 l -0.022,-0.015 -0.089,-0.059 0.246,-0.123 0.018,-0.015 0.017,0.032 0.035,-0.017 0.211,0.105 z"
         style="fill:#d8b094;fill-rule:nonzero"
         id="path17554" /><path
         d="m 0.722,-0.263 0.035,-0.018 v 0.123 l -0.211,0.105 v -0.035 l 0.176,-0.088 z m 0.035,-0.404 v 0.351 L 0.722,-0.333 V -0.509 L 0.476,-0.632 v 0.175 L 0.441,-0.474 v -0.351 l 0.035,0.018 v 0.035 l 0.246,0.123 V -0.685 Z M 0.722,-0.105 0.757,-0.123 V 0.018 L 0.722,0 Z M 0.195,-0.351 0.511,-0.193 V 0.14 L 0.476,0.123 V -0.018 L 0.23,-0.141 V 0 L 0.195,-0.018 Z m 0.035,0.053 v 0.122 l 0.246,0.123 v -0.123 z"
         style="fill:#bb9167;fill-rule:nonzero"
         id="path17556" /></g></g></svg>
