<?xml version="1.0" encoding="UTF-8" standalone="no"?>
<svg
   width="12.105"
   height="16.844999"
   viewBox="0 0 12.105 16.844999"
   version="1.1"
   xml:space="preserve"
   style="clip-rule:evenodd;fill-rule:evenodd;stroke-linejoin:round;stroke-miterlimit:2"
   id="svg20568"
   sodipodi:docname="emojis.svg"
   xmlns:inkscape="http://www.inkscape.org/namespaces/inkscape"
   xmlns:sodipodi="http://sodipodi.sourceforge.net/DTD/sodipodi-0.dtd"
   xmlns="http://www.w3.org/2000/svg"
   xmlns:svg="http://www.w3.org/2000/svg"><defs
     id="defs20572" /><sodipodi:namedview
     id="namedview20570"
     pagecolor="#505050"
     bordercolor="#eeeeee"
     borderopacity="1"
     inkscape:pageshadow="0"
     inkscape:pageopacity="0"
     inkscape:pagecheckerboard="0" /><g
     transform="matrix(0.24,0,0,0.24,-779.247,-127.68924)"
     id="g20566"><g
       transform="matrix(62.5,0,0,62.5,3239.05,589.101)"
       id="g1752"><path
         d="M 0.23,0.21 C 0.216,0.21 0.202,0.208 0.189,0.202 0.177,0.197 0.166,0.189 0.156,0.179 0.146,0.17 0.139,0.159 0.133,0.146 0.128,0.133 0.125,0.12 0.125,0.105 0.125,0.091 0.128,0.077 0.133,0.064 0.139,0.052 0.146,0.041 0.156,0.031 0.166,0.021 0.177,0.014 0.19,0.008 0.203,0.003 0.216,0 0.23,0 h 0.01 l 0.062,-0.125 c 0,0 0.001,-0.002 0.001,-0.005 L 0.308,-0.15 C 0.309,-0.153 0.309,-0.156 0.31,-0.157 L 0.299,-0.187 C 0.279,-0.195 0.261,-0.208 0.245,-0.224 0.229,-0.24 0.217,-0.259 0.21,-0.28 L 0.133,-0.495 C 0.13,-0.502 0.128,-0.51 0.127,-0.519 0.126,-0.527 0.125,-0.536 0.125,-0.544 c 0,-0.015 0.002,-0.029 0.006,-0.044 0.004,-0.014 0.01,-0.027 0.017,-0.039 0.008,-0.012 0.017,-0.023 0.028,-0.033 0.011,-0.01 0.023,-0.019 0.036,-0.026 0.036,-0.017 0.071,-0.035 0.106,-0.052 0.034,-0.017 0.069,-0.035 0.105,-0.053 0.034,-0.017 0.069,-0.034 0.103,-0.05 0.034,-0.017 0.069,-0.034 0.103,-0.051 0.015,-0.006 0.03,-0.012 0.046,-0.015 0.015,-0.004 0.031,-0.006 0.047,-0.006 0.029,0 0.056,0.006 0.081,0.017 0.026,0.011 0.048,0.026 0.067,0.045 0.019,0.019 0.034,0.042 0.046,0.067 0.011,0.026 0.016,0.053 0.016,0.082 0,0.029 -0.005,0.056 -0.016,0.082 -0.012,0.026 -0.027,0.048 -0.046,0.067 -0.019,0.019 -0.041,0.034 -0.067,0.045 -0.025,0.011 -0.052,0.017 -0.081,0.017 H 0.531 l -0.052,0.026 c 0.004,0.009 0.008,0.02 0.012,0.031 0.004,0.011 0.008,0.022 0.012,0.034 0.004,0.011 0.007,0.022 0.01,0.034 0.002,0.011 0.004,0.022 0.004,0.033 0,0.013 -0.002,0.026 -0.005,0.039 -0.004,0.012 -0.008,0.024 -0.014,0.036 l 0.01,0.029 c 0.016,0.009 0.029,0.02 0.041,0.033 0.011,0.014 0.019,0.029 0.025,0.046 0.018,0.013 0.033,0.029 0.043,0.05 0.011,0.02 0.017,0.042 0.017,0.064 0,0.014 -0.002,0.027 -0.006,0.04 C 0.624,0.017 0.619,0.029 0.612,0.04 0.605,0.051 0.596,0.061 0.586,0.07 0.576,0.079 0.565,0.087 0.553,0.093 L 0.317,0.21 Z"
         style="fill-rule:nonzero"
         id="path1740" /><path
         d="M 0.408,-0.094 0.25,-0.532 0.316,-0.556 0.474,-0.117 Z"
         style="fill:#e5e5e5;fill-rule:nonzero"
         id="path1742" /><path
         d="M 0.354,-0.394 C 0.336,-0.385 0.318,-0.381 0.299,-0.381 0.294,-0.381 0.288,-0.383 0.282,-0.388 0.276,-0.392 0.27,-0.398 0.264,-0.404 0.257,-0.41 0.251,-0.415 0.246,-0.421 0.24,-0.427 0.234,-0.431 0.229,-0.434 l -0.029,-0.08 0.166,-0.06 0.038,0.107 z"
         style="fill:#5c5c5c;fill-rule:nonzero"
         id="path1744" /><path
         d="m 0.388,-0.141 0.053,-0.015 0.04,0.015 c 0.007,0.019 0.02,0.033 0.039,0.041 0.013,0.006 0.024,0.014 0.032,0.026 0.008,0.011 0.011,0.024 0.011,0.039 0,0.015 -0.003,0.027 -0.011,0.038 C 0.544,0.014 0.534,0.023 0.521,0.03 L 0.3,0.14 H 0.23 C 0.221,0.14 0.212,0.137 0.206,0.13 0.199,0.123 0.195,0.115 0.195,0.105 0.195,0.096 0.199,0.087 0.206,0.081 0.213,0.074 0.221,0.07 0.23,0.07 L 0.252,0.071 C 0.26,0.071 0.268,0.07 0.275,0.067 0.283,0.065 0.288,0.06 0.292,0.051 Z M 0.71,-0.825 h 0.017 c 0.018,0 0.036,0.004 0.053,0.011 0.016,0.007 0.03,0.017 0.042,0.03 0.012,0.012 0.022,0.027 0.029,0.043 0.006,0.017 0.01,0.035 0.01,0.053 v 0.003 c -0.003,0.018 -0.008,0.034 -0.016,0.049 -0.008,0.015 -0.018,0.028 -0.03,0.039 -0.013,0.011 -0.027,0.02 -0.043,0.026 -0.015,0.006 -0.032,0.009 -0.05,0.009 H 0.514 L 0.322,-0.465 C 0.31,-0.459 0.297,-0.457 0.283,-0.457 0.271,-0.457 0.259,-0.459 0.249,-0.463 0.238,-0.468 0.229,-0.474 0.221,-0.482 0.213,-0.49 0.207,-0.499 0.202,-0.51 0.198,-0.521 0.195,-0.532 0.195,-0.544 0.195,-0.561 0.2,-0.576 0.208,-0.59 0.217,-0.604 0.229,-0.615 0.244,-0.623 l 0.152,-0.075 0.037,-0.02 c 0.006,-0.003 0.012,-0.006 0.018,-0.009 0.006,-0.002 0.013,-0.006 0.021,-0.009 0.006,-0.003 0.012,-0.006 0.017,-0.008 0.005,-0.002 0.01,-0.005 0.015,-0.006 0.005,-0.002 0.01,-0.004 0.016,-0.006 0.005,-0.002 0.011,-0.005 0.017,-0.007 l 0.13,-0.054 C 0.675,-0.821 0.682,-0.823 0.688,-0.823 0.695,-0.824 0.702,-0.825 0.71,-0.825 Z"
         style="fill:#a6a6a6;fill-rule:nonzero"
         id="path1746" /><path
         d="m 0.722,-0.807 c -0.015,0 -0.029,0.002 -0.042,0.006 L 0.472,-0.736 0.66,-0.828 c 0.02,-0.01 0.04,-0.014 0.062,-0.014 0.019,0 0.037,0.003 0.054,0.011 0.017,0.007 0.032,0.017 0.045,0.03 0.012,0.012 0.023,0.027 0.03,0.044 0.007,0.017 0.011,0.036 0.011,0.055 v 0.009 c 0,0.003 -0.001,0.005 -0.001,0.008 C 0.859,-0.702 0.853,-0.718 0.845,-0.733 0.837,-0.748 0.827,-0.761 0.814,-0.772 0.802,-0.783 0.788,-0.792 0.772,-0.798 0.756,-0.804 0.739,-0.807 0.722,-0.807 Z"
         style="fill:#cccccc;fill-rule:nonzero"
         id="path1748" /><path
         d="m 0.441,-0.176 c 0.01,0 0.019,0.002 0.027,0.006 0.009,0.004 0.016,0.009 0.022,0.015 0.007,0.006 0.012,0.014 0.015,0.022 0.004,0.009 0.006,0.018 0.006,0.028 0,0.009 -0.002,0.018 -0.006,0.027 C 0.502,-0.07 0.497,-0.062 0.49,-0.056 0.484,-0.05 0.477,-0.045 0.468,-0.041 0.46,-0.037 0.451,-0.035 0.441,-0.035 0.431,-0.035 0.422,-0.037 0.413,-0.041 0.405,-0.044 0.397,-0.049 0.391,-0.055 0.385,-0.062 0.38,-0.069 0.376,-0.078 0.372,-0.087 0.371,-0.096 0.371,-0.105 c 0,-0.01 0.001,-0.019 0.005,-0.028 0.004,-0.008 0.009,-0.016 0.015,-0.022 0.007,-0.006 0.014,-0.011 0.023,-0.015 0.008,-0.004 0.017,-0.006 0.027,-0.006 z m 0,0.106 c 0.009,0 0.018,-0.004 0.025,-0.011 0.007,-0.007 0.01,-0.015 0.01,-0.024 0,-0.01 -0.003,-0.018 -0.01,-0.025 -0.007,-0.007 -0.016,-0.011 -0.025,-0.011 -0.01,0 -0.018,0.004 -0.025,0.011 -0.007,0.006 -0.01,0.015 -0.01,0.025 0,0.009 0.003,0.018 0.01,0.024 0.007,0.007 0.015,0.011 0.025,0.011 z M 0.722,-0.632 H 0.563 c -0.004,0 -0.008,-0.002 -0.012,-0.005 -0.003,-0.004 -0.005,-0.008 -0.005,-0.012 0,-0.005 0.002,-0.009 0.005,-0.013 0.004,-0.003 0.008,-0.005 0.012,-0.005 h 0.159 c 0.009,0 0.017,-0.003 0.024,-0.01 0.007,-0.007 0.011,-0.016 0.011,-0.025 0,-0.005 0.002,-0.009 0.005,-0.013 0.003,-0.003 0.008,-0.005 0.012,-0.005 0.005,0 0.009,0.002 0.013,0.005 0.003,0.004 0.005,0.008 0.005,0.013 0,0.01 -0.002,0.019 -0.006,0.027 -0.003,0.009 -0.008,0.016 -0.015,0.022 -0.006,0.007 -0.014,0.012 -0.022,0.016 -0.008,0.003 -0.018,0.005 -0.027,0.005 z m -0.387,0.088 c 0,0.007 -0.001,0.014 -0.004,0.02 -0.002,0.007 -0.006,0.012 -0.011,0.017 -0.005,0.005 -0.011,0.009 -0.017,0.012 -0.006,0.002 -0.013,0.004 -0.02,0.004 -0.007,0 -0.014,-0.002 -0.021,-0.004 C 0.256,-0.498 0.251,-0.502 0.246,-0.507 0.241,-0.512 0.237,-0.517 0.235,-0.524 0.232,-0.53 0.23,-0.537 0.23,-0.544 c 0,-0.007 0.002,-0.014 0.005,-0.02 0.002,-0.007 0.006,-0.012 0.011,-0.017 0.004,-0.005 0.01,-0.009 0.016,-0.012 0.006,-0.002 0.013,-0.004 0.021,-0.004 0.007,0 0.014,0.002 0.02,0.004 0.007,0.003 0.012,0.007 0.017,0.012 0.005,0.004 0.009,0.01 0.011,0.017 0.003,0.006 0.004,0.013 0.004,0.02 z m 0.111,0.211 c 0,0.012 -0.002,0.023 -0.007,0.034 -0.004,0.01 -0.01,0.02 -0.018,0.028 -0.008,0.008 -0.018,0.014 -0.028,0.019 -0.011,0.004 -0.022,0.006 -0.034,0.006 -0.019,0 -0.036,-0.005 -0.051,-0.015 C 0.293,-0.272 0.282,-0.286 0.276,-0.304 l -0.047,-0.13 c 0.018,0.009 0.035,0.013 0.054,0.013 0.019,0 0.037,-0.005 0.055,-0.013 l 0.066,-0.033 0.037,0.104 c 0.002,0.004 0.003,0.009 0.004,0.014 0.001,0.006 0.001,0.011 0.001,0.016 z"
         style="fill:#757575;fill-rule:nonzero"
         id="path1750" /></g></g></svg>
