<?xml version="1.0" encoding="UTF-8" standalone="no"?>
<svg
   width="16.844999"
   height="13.68"
   viewBox="0 0 16.844999 13.68"
   version="1.1"
   xml:space="preserve"
   style="clip-rule:evenodd;fill-rule:evenodd;stroke-linejoin:round;stroke-miterlimit:2"
   id="svg20568"
   sodipodi:docname="emojis.svg"
   xmlns:inkscape="http://www.inkscape.org/namespaces/inkscape"
   xmlns:sodipodi="http://sodipodi.sourceforge.net/DTD/sodipodi-0.dtd"
   xmlns="http://www.w3.org/2000/svg"
   xmlns:svg="http://www.w3.org/2000/svg"><defs
     id="defs20572" /><sodipodi:namedview
     id="namedview20570"
     pagecolor="#505050"
     bordercolor="#eeeeee"
     borderopacity="1"
     inkscape:pageshadow="0"
     inkscape:pageopacity="0"
     inkscape:pagecheckerboard="0" /><g
     transform="matrix(0.24,0,0,0.24,-13.213584,-854.3844)"
     id="g20566"><g
       transform="matrix(62.5,0,0,62.5,47.2441,3603.81)"
       id="g17548"><path
         d="M 1.213,0.035 H 1.248 V 0.21 H 0.897 V 0.14 H 0.371 V 0.21 H 0.16 V 0.113 C 0.149,0.104 0.14,0.092 0.134,0.078 0.128,0.064 0.125,0.05 0.125,0.035 V -0.21 c 0,-0.012 0.002,-0.022 0.005,-0.033 0.004,-0.01 0.008,-0.02 0.015,-0.028 0.006,-0.009 0.013,-0.017 0.022,-0.023 0.008,-0.007 0.018,-0.012 0.028,-0.016 0,-0.015 0.003,-0.03 0.008,-0.043 0.005,-0.014 0.012,-0.026 0.021,-0.036 0.009,-0.01 0.02,-0.018 0.033,-0.024 C 0.27,-0.418 0.285,-0.421 0.3,-0.421 h 0.106 v -0.036 c 0,-0.015 0.002,-0.029 0.007,-0.043 0.005,-0.014 0.011,-0.027 0.02,-0.039 0.008,-0.012 0.019,-0.022 0.031,-0.031 0.012,-0.009 0.025,-0.015 0.04,-0.02 0.04,-0.036 0.084,-0.064 0.133,-0.083 0.049,-0.02 0.101,-0.029 0.155,-0.029 0.039,0 0.076,0.005 0.112,0.015 0.036,0.01 0.069,0.024 0.1,0.042 0.031,0.019 0.06,0.041 0.085,0.066 0.026,0.026 0.048,0.055 0.066,0.086 0.019,0.031 0.033,0.065 0.043,0.1 0.01,0.036 0.015,0.074 0.015,0.112 z M 0.687,-0.421 h 0.28 c 0.011,0 0.02,0.001 0.029,0.004 C 0.985,-0.433 0.972,-0.449 0.957,-0.462 0.942,-0.476 0.925,-0.487 0.908,-0.497 0.89,-0.506 0.872,-0.514 0.852,-0.519 0.833,-0.524 0.813,-0.526 0.792,-0.526 c -0.02,0 -0.039,0.002 -0.058,0.006 -0.019,0.005 -0.037,0.011 -0.054,0.02 0.003,0.009 0.005,0.019 0.006,0.029 0,0.01 0.001,0.019 0.001,0.029 z"
         style="fill-rule:nonzero"
         id="path17532" /><path
         d="m 0.792,-0.632 c 0.032,0 0.063,0.004 0.093,0.013 0.03,0.008 0.058,0.02 0.084,0.035 0.026,0.015 0.049,0.034 0.071,0.055 0.021,0.022 0.039,0.045 0.055,0.071 0.015,0.026 0.027,0.054 0.035,0.084 0.008,0.03 0.013,0.061 0.013,0.093 V 0.07 c 0,0.01 0.003,0.018 0.01,0.025 0.007,0.007 0.015,0.01 0.025,0.01 L 1.132,0.123 1.073,0.105 C 1.082,0.105 1.09,0.102 1.097,0.095 1.104,0.088 1.107,0.08 1.107,0.07 V -0.281 C 1.107,-0.31 1.104,-0.338 1.096,-0.365 1.089,-0.391 1.078,-0.417 1.064,-0.44 1.051,-0.463 1.034,-0.485 1.015,-0.504 0.996,-0.523 0.974,-0.54 0.951,-0.553 0.928,-0.567 0.903,-0.578 0.876,-0.585 0.849,-0.593 0.821,-0.597 0.792,-0.597 c -0.045,0 -0.087,0.009 -0.127,0.026 -0.04,0.017 -0.075,0.042 -0.106,0.074 L 0.534,-0.521 c 0.034,-0.035 0.074,-0.063 0.118,-0.082 0.044,-0.019 0.091,-0.029 0.14,-0.029 z"
         style="fill:#e5e5e5;fill-rule:nonzero"
         id="path17534" /><path
         d="m 0.546,-0.526 c 0.01,0 0.019,0.001 0.027,0.005 0.009,0.004 0.016,0.009 0.022,0.015 0.007,0.006 0.012,0.014 0.016,0.022 0.003,0.009 0.005,0.018 0.005,0.027 v 0.036 h -0.14 v -0.036 c 0,-0.009 0.002,-0.018 0.005,-0.027 C 0.485,-0.492 0.49,-0.5 0.496,-0.506 0.503,-0.512 0.51,-0.517 0.519,-0.521 0.527,-0.525 0.536,-0.526 0.546,-0.526 Z M 1.073,0.105 H 1.178 V 0.14 H 1.073 Z"
         style="fill:#cccccc;fill-rule:nonzero"
         id="path17536" /><path
         d="m 0.967,-0.351 c 0.01,0 0.018,0.003 0.025,0.01 0.007,0.007 0.01,0.015 0.01,0.025 V -0.07 H 0.265 v -0.246 c 0,-0.009 0.004,-0.018 0.011,-0.025 0.007,-0.007 0.015,-0.01 0.024,-0.01 h 0.299 c 0.006,0 0.012,0.002 0.018,0.005 0.001,0.003 0.002,0.006 0.004,0.01 0.002,0.004 0.003,0.007 0.005,0.011 0.002,0.004 0.004,0.007 0.005,0.011 0.002,0.004 0.002,0.007 0.003,0.01 0,-0.006 0.003,-0.013 0.007,-0.021 0.005,-0.008 0.008,-0.015 0.01,-0.021 0.005,-0.003 0.011,-0.005 0.018,-0.005 z"
         style="fill:#e84757;fill-rule:nonzero"
         id="path17538" /><path
         d="M 0.651,-0.105 H 0.616 v -0.241 c 0.005,0.003 0.009,0.007 0.012,0.012 0.003,0.004 0.005,0.01 0.006,0.015 0.001,-0.012 0.007,-0.021 0.017,-0.027 z"
         style="fill:#e81224;fill-rule:nonzero"
         id="path17540" /><path
         d="m 0.932,-0.141 c 0.009,0 0.016,0.003 0.021,0.007 0.006,0.005 0.01,0.011 0.013,0.018 0,0.002 0.001,0.004 0.001,0.005 -0.001,0.002 0,0.004 0,0.006 l 0.02,0.085 H 0.634 c -0.059,0 -0.117,0 -0.175,0 C 0.401,-0.021 0.342,-0.021 0.284,-0.021 L 0.3,-0.105 c 0.001,-0.002 0.001,-0.004 0.001,-0.006 0,-0.001 0,-0.003 0.001,-0.005 0.002,-0.007 0.007,-0.013 0.012,-0.018 0.006,-0.004 0.013,-0.007 0.021,-0.007 h 0.264 c 0.009,0 0.017,0.003 0.024,0.01 0.006,0.006 0.01,0.013 0.011,0.023 0,-0.01 0.004,-0.017 0.011,-0.023 0.006,-0.007 0.015,-0.01 0.024,-0.01 z"
         style="fill:#af0d1a;fill-rule:nonzero"
         id="path17542" /><path
         d="M 0.967,0.14 V 0.045 H 1.038 V 0.14 Z M 0.3,0.14 H 0.23 V 0.045 H 0.3 Z"
         style="fill:#bb9167;fill-rule:nonzero"
         id="path17544" /><path
         d="M 1.038,0.07 H 0.23 C 0.221,0.07 0.213,0.067 0.206,0.06 0.199,0.053 0.195,0.045 0.195,0.035 V -0.21 c 0,-0.009 0.002,-0.015 0.005,-0.02 0.003,-0.004 0.007,-0.008 0.012,-0.01 0.006,-0.003 0.011,-0.004 0.018,-0.005 0.006,0 0.013,-0.001 0.019,-0.001 0.006,0 0.012,0.001 0.019,0.001 0.006,0.001 0.011,0.003 0.016,0.005 0.005,0.002 0.009,0.006 0.012,0.011 0.003,0.004 0.004,0.011 0.004,0.019 v 0.175 H 0.967 V -0.21 c 0,-0.009 0.002,-0.015 0.005,-0.02 0.003,-0.004 0.007,-0.008 0.012,-0.01 0.006,-0.003 0.011,-0.004 0.018,-0.005 0.006,0 0.012,-0.001 0.019,-0.001 0.006,0 0.012,0.001 0.019,0.001 0.006,0.001 0.011,0.003 0.016,0.005 0.005,0.002 0.009,0.006 0.012,0.011 0.003,0.004 0.005,0.011 0.005,0.019 V 0.035 C 1.073,0.045 1.069,0.053 1.062,0.06 1.055,0.067 1.047,0.07 1.038,0.07 Z"
         style="fill:#e81224;fill-rule:nonzero"
         id="path17546" /></g></g></svg>
