<?xml version="1.0" encoding="UTF-8" standalone="no"?>
<svg
   width="16.844999"
   height="16.844999"
   viewBox="0 0 16.844999 16.844999"
   version="1.1"
   xml:space="preserve"
   style="clip-rule:evenodd;fill-rule:evenodd;stroke-linejoin:round;stroke-miterlimit:2"
   id="svg20568"
   sodipodi:docname="emojis.svg"
   xmlns:inkscape="http://www.inkscape.org/namespaces/inkscape"
   xmlns:sodipodi="http://sodipodi.sourceforge.net/DTD/sodipodi-0.dtd"
   xmlns="http://www.w3.org/2000/svg"
   xmlns:svg="http://www.w3.org/2000/svg"><defs
     id="defs20572" /><sodipodi:namedview
     id="namedview20570"
     pagecolor="#505050"
     bordercolor="#eeeeee"
     borderopacity="1"
     inkscape:pageshadow="0"
     inkscape:pageopacity="0"
     inkscape:pagecheckerboard="0" /><g
     transform="matrix(0.24,0,0,0.24,-87.70812,-851.2194)"
     id="g20566"><g
       transform="matrix(62.5,0,0,62.5,357.638,3603.81)"
       id="g17590"><path
         d="m 1.213,-0.386 h 0.035 v 0.21 H 1.213 c 0,0.025 -0.003,0.05 -0.01,0.073 C 1.197,-0.079 1.187,-0.056 1.175,-0.035 1.163,-0.014 1.149,0.005 1.131,0.022 1.114,0.04 1.095,0.055 1.073,0.067 V 0.21 H 0.967 C 0.95,0.21 0.933,0.208 0.917,0.203 0.9,0.198 0.885,0.191 0.871,0.182 0.857,0.173 0.845,0.161 0.833,0.148 0.822,0.135 0.813,0.121 0.807,0.105 H 0.566 C 0.56,0.121 0.551,0.135 0.54,0.148 0.528,0.161 0.516,0.173 0.502,0.182 0.488,0.191 0.473,0.198 0.456,0.203 0.44,0.208 0.423,0.21 0.406,0.21 H 0.3 V 0.067 C 0.278,0.055 0.259,0.04 0.242,0.022 0.224,0.005 0.21,-0.014 0.198,-0.035 0.186,-0.056 0.176,-0.079 0.17,-0.103 0.163,-0.126 0.16,-0.151 0.16,-0.176 H 0.125 v -0.21 H 1.038 V -0.562 H 0.792 v -0.134 l 0.073,-0.073 c 0.004,-0.021 0.011,-0.04 0.021,-0.058 0.011,-0.017 0.024,-0.032 0.039,-0.045 0.016,-0.013 0.033,-0.023 0.052,-0.03 0.019,-0.007 0.039,-0.011 0.061,-0.011 0.024,0 0.046,0.005 0.068,0.014 0.021,0.01 0.04,0.022 0.055,0.038 0.016,0.016 0.029,0.034 0.038,0.056 0.009,0.021 0.014,0.044 0.014,0.068 z"
         style="fill-rule:nonzero"
         id="path17580" /><path
         d="m 0.932,0 c 0,0.018 0.001,0.031 0.002,0.041 C 0.935,0.05 0.938,0.057 0.943,0.061 0.947,0.066 0.954,0.068 0.964,0.069 0.973,0.07 0.986,0.07 1.002,0.07 V 0.14 H 0.967 C 0.953,0.14 0.939,0.137 0.926,0.132 0.914,0.126 0.902,0.119 0.893,0.109 0.883,0.1 0.876,0.089 0.87,0.076 0.865,0.063 0.862,0.05 0.862,0.035 V 0 Z M 0.371,0.07 H 0.406 C 0.414,0.07 0.42,0.069 0.425,0.066 0.429,0.063 0.433,0.059 0.435,0.054 0.438,0.049 0.439,0.043 0.44,0.037 0.441,0.031 0.441,0.025 0.441,0.018 V 0 h 0.07 V 0.035 C 0.511,0.05 0.508,0.063 0.503,0.076 0.497,0.089 0.49,0.1 0.48,0.109 0.471,0.119 0.459,0.126 0.447,0.132 0.434,0.137 0.42,0.14 0.406,0.14 H 0.371 Z"
         style="fill:#757575;fill-rule:nonzero"
         id="path17582" /><path
         d="m 1.038,-0.842 c 0.014,0 0.027,0.002 0.04,0.008 0.013,0.006 0.024,0.013 0.034,0.023 0.009,0.009 0.017,0.02 0.022,0.033 0.006,0.013 0.009,0.026 0.009,0.041 v 0.561 c 0,0.03 -0.006,0.057 -0.017,0.082 C 1.115,-0.068 1.1,-0.046 1.081,-0.027 1.062,-0.008 1.04,0.007 1.014,0.019 0.989,0.03 0.961,0.035 0.932,0.035 H 0.441 C 0.412,0.035 0.384,0.03 0.359,0.019 0.333,0.007 0.311,-0.008 0.292,-0.027 0.273,-0.046 0.258,-0.068 0.247,-0.094 0.236,-0.119 0.23,-0.146 0.23,-0.176 v -0.07 l 0.035,-0.035 h 0.842 v -0.456 c 0,-0.01 -10e-4,-0.019 -0.005,-0.028 C 1.098,-0.773 1.094,-0.781 1.087,-0.787 1.081,-0.793 1.073,-0.798 1.065,-0.802 1.056,-0.805 1.047,-0.807 1.038,-0.807 c -0.01,0 -0.019,0.002 -0.028,0.005 -0.008,0.004 -0.016,0.009 -0.022,0.015 -0.006,0.006 -0.011,0.014 -0.015,0.022 -0.004,0.009 -0.006,0.018 -0.006,0.028 l 0.071,0.07 -0.026,0.018 H 0.885 l -0.023,-0.018 0.07,-0.07 c 0,-0.015 0.003,-0.029 0.008,-0.041 0.006,-0.013 0.014,-0.024 0.023,-0.034 0.01,-0.009 0.021,-0.016 0.034,-0.022 0.013,-0.006 0.026,-0.008 0.041,-0.008 z"
         style="fill:#f2f2f2;fill-rule:nonzero"
         id="path17584" /><rect
         x="0.19499999"
         y="-0.31600001"
         width="0.98199999"
         height="0.07"
         style="fill:#cccccc;fill-rule:nonzero"
         id="rect17586" /><rect
         x="0.86199999"
         y="-0.667"
         width="0.176"
         height="0.035"
         style="fill:#757575;fill-rule:nonzero"
         id="rect17588" /></g></g></svg>
