<?xml version="1.0" encoding="UTF-8" standalone="no"?>
<svg
   width="14.745"
   height="16.844999"
   viewBox="0 0 14.745 16.844999"
   version="1.1"
   xml:space="preserve"
   style="clip-rule:evenodd;fill-rule:evenodd;stroke-linejoin:round;stroke-miterlimit:2"
   id="svg20568"
   sodipodi:docname="emojis.svg"
   xmlns:inkscape="http://www.inkscape.org/namespaces/inkscape"
   xmlns:sodipodi="http://sodipodi.sourceforge.net/DTD/sodipodi-0.dtd"
   xmlns="http://www.w3.org/2000/svg"
   xmlns:svg="http://www.w3.org/2000/svg"><defs
     id="defs20572" /><sodipodi:namedview
     id="namedview20570"
     pagecolor="#505050"
     bordercolor="#eeeeee"
     borderopacity="1"
     inkscape:pageshadow="0"
     inkscape:pageopacity="0"
     inkscape:pagecheckerboard="0" /><g
     transform="matrix(0.24,0,0,0.24,-48.61884,-851.2194)"
     id="g20566"><g
       transform="matrix(62.5,0,0,62.5,194.766,3603.81)"
       id="g17568"><path
         d="M 0.515,-0.782 C 0.514,-0.786 0.513,-0.791 0.512,-0.795 c 0,-0.004 -0.001,-0.009 -0.001,-0.013 0,-0.014 0.003,-0.028 0.009,-0.041 0.005,-0.012 0.013,-0.023 0.023,-0.033 0.009,-0.009 0.02,-0.017 0.033,-0.022 0.013,-0.006 0.026,-0.009 0.041,-0.009 0.017,0 0.034,0.005 0.05,0.013 0.015,0.009 0.028,0.02 0.038,0.035 0.009,-0.015 0.022,-0.027 0.037,-0.035 0.016,-0.008 0.032,-0.013 0.05,-0.013 h 0.21 c 0.015,0 0.029,0.003 0.041,0.009 0.013,0.005 0.024,0.013 0.034,0.022 0.01,0.01 0.017,0.021 0.023,0.034 0.005,0.013 0.008,0.026 0.008,0.041 v 0.526 c 0,0.015 -0.003,0.029 -0.008,0.041 -0.006,0.013 -0.013,0.024 -0.023,0.033 -0.01,0.01 -0.021,0.017 -0.034,0.023 -0.012,0.005 -0.026,0.008 -0.041,0.008 H 0.968 c -0.01,0 -0.019,0.002 -0.028,0.006 -0.008,0.004 -0.015,0.009 -0.022,0.015 -0.006,0.006 -0.011,0.014 -0.015,0.022 -0.004,0.009 -0.006,0.018 -0.006,0.028 V 0.21 H 0.246 C 0.257,0.168 0.267,0.126 0.278,0.084 0.288,0.042 0.299,0 0.309,-0.042 0.281,-0.058 0.255,-0.076 0.233,-0.098 0.21,-0.12 0.191,-0.145 0.175,-0.171 0.159,-0.198 0.147,-0.227 0.138,-0.257 0.13,-0.288 0.125,-0.319 0.125,-0.351 v -0.035 c 0,-0.015 0.003,-0.029 0.009,-0.041 0.005,-0.013 0.013,-0.024 0.022,-0.033 0.01,-0.01 0.021,-0.017 0.033,-0.023 0.013,-0.005 0.027,-0.008 0.041,-0.008 h 0.357 z"
         style="fill-rule:nonzero"
         id="path17560" /><path
         d="m 0.441,-0.281 h 0.527 v 0.035 c -0.02,0 -0.038,0.004 -0.055,0.011 -0.017,0.008 -0.032,0.018 -0.045,0.03 -0.013,0.013 -0.023,0.028 -0.03,0.045 -0.007,0.017 -0.011,0.035 -0.011,0.055 V 0.14 H 0.336 Z"
         style="fill:#e5e5e5;fill-rule:nonzero"
         id="path17562" /><path
         d="M 0.583,-0.799 C 0.582,-0.802 0.582,-0.805 0.582,-0.808 c 0,-0.009 0.003,-0.017 0.01,-0.024 0.007,-0.007 0.015,-0.01 0.025,-0.01 0.008,0 0.015,0.002 0.021,0.007 0.007,0.005 0.011,0.012 0.013,0.019 l 0.105,0.421 0.001,0.009 v 0.035 L 0.722,-0.316 H 0.23 L 0.195,-0.351 V -0.37 c 0,-0.006 0.001,-0.012 0.001,-0.018 C 0.197,-0.394 0.198,-0.4 0.201,-0.405 0.203,-0.41 0.207,-0.414 0.212,-0.417 0.216,-0.42 0.223,-0.421 0.23,-0.421 h 0.447 z m 0.419,-0.043 c 0.01,0 0.019,0.003 0.025,0.01 0.007,0.007 0.011,0.015 0.011,0.025 v 0.035 L 1.019,-0.737 H 0.784 L 0.757,-0.772 v -0.035 c 0,-0.01 0.003,-0.018 0.01,-0.025 0.007,-0.007 0.015,-0.01 0.025,-0.01 z"
         style="fill:#cccccc;fill-rule:nonzero"
         id="path17564" /><path
         d="m 0.757,-0.772 h 0.281 v 0.491 c 0,0.01 -0.004,0.018 -0.011,0.025 -0.006,0.007 -0.015,0.01 -0.025,0.01 H 0.736 C 0.725,-0.219 0.711,-0.195 0.693,-0.174 0.675,-0.152 0.655,-0.133 0.633,-0.118 0.61,-0.103 0.585,-0.091 0.559,-0.083 0.532,-0.074 0.505,-0.07 0.476,-0.07 0.437,-0.07 0.401,-0.078 0.367,-0.093 0.333,-0.107 0.303,-0.127 0.278,-0.153 0.252,-0.178 0.232,-0.208 0.218,-0.242 0.203,-0.276 0.195,-0.312 0.195,-0.351 h 0.562 z"
         style="fill:#ffffff;fill-rule:nonzero"
         id="path17566" /></g></g></svg>
