<?xml version="1.0" encoding="UTF-8" standalone="no"?>
<svg
   width="16.844999"
   height="16.844999"
   viewBox="0 0 16.844999 16.844999"
   version="1.1"
   xml:space="preserve"
   style="clip-rule:evenodd;fill-rule:evenodd;stroke-linejoin:round;stroke-miterlimit:2"
   id="svg20568"
   sodipodi:docname="emojis.svg"
   xmlns:inkscape="http://www.inkscape.org/namespaces/inkscape"
   xmlns:sodipodi="http://sodipodi.sourceforge.net/DTD/sodipodi-0.dtd"
   xmlns="http://www.w3.org/2000/svg"
   xmlns:svg="http://www.w3.org/2000/svg"><defs
     id="defs20572" /><sodipodi:namedview
     id="namedview20570"
     pagecolor="#505050"
     bordercolor="#eeeeee"
     borderopacity="1"
     inkscape:pageshadow="0"
     inkscape:pageopacity="0"
     inkscape:pagecheckerboard="0" /><g
     transform="matrix(0.24,0,0,0.24,-224.51004,-851.2194)"
     id="g20566"><g
       transform="matrix(62.5,0,0,62.5,927.646,3603.81)"
       id="g17696"><path
         d="M 0.195,0.21 C 0.186,0.21 0.176,0.209 0.168,0.205 0.159,0.201 0.152,0.196 0.145,0.19 0.139,0.183 0.134,0.176 0.13,0.167 0.127,0.159 0.125,0.149 0.125,0.14 0.125,0.127 0.127,0.117 0.132,0.11 0.136,0.103 0.142,0.095 0.15,0.086 0.153,0.083 0.156,0.081 0.158,0.079 0.161,0.077 0.163,0.075 0.166,0.071 0.175,0.062 0.182,0.051 0.187,0.039 0.193,0.027 0.195,0.014 0.195,0 v -0.491 c 0,-0.021 0.001,-0.046 0.004,-0.075 0.002,-0.029 0.006,-0.059 0.012,-0.09 C 0.217,-0.688 0.225,-0.718 0.235,-0.749 0.245,-0.78 0.258,-0.807 0.274,-0.831 0.29,-0.856 0.308,-0.875 0.33,-0.89 0.351,-0.905 0.377,-0.913 0.406,-0.913 h 0.632 c 0.021,0 0.04,0.005 0.057,0.013 0.017,0.009 0.032,0.02 0.046,0.034 0.014,0.014 0.026,0.03 0.036,0.049 0.011,0.018 0.02,0.037 0.027,0.057 0.008,0.02 0.014,0.04 0.019,0.06 0.005,0.019 0.009,0.037 0.012,0.054 0.004,0.025 0.008,0.051 0.01,0.077 0.002,0.025 0.003,0.051 0.003,0.078 0,0.026 -10e-4,0.052 -0.003,0.077 -0.002,0.026 -0.006,0.052 -0.01,0.077 -0.003,0.017 -0.007,0.035 -0.012,0.055 -0.005,0.019 -0.011,0.039 -0.019,0.059 -0.007,0.02 -0.016,0.039 -0.027,0.057 -0.01,0.019 -0.022,0.035 -0.036,0.049 C 1.127,-0.103 1.112,-0.091 1.095,-0.083 1.078,-0.075 1.059,-0.07 1.038,-0.07 H 0.967 V 0 C 0.967,0.023 0.965,0.044 0.959,0.064 0.953,0.083 0.946,0.102 0.936,0.119 0.925,0.136 0.913,0.152 0.899,0.167 0.885,0.182 0.869,0.197 0.852,0.21 Z"
         style="fill-rule:nonzero"
         id="path17682" /><path
         d="m 0.757,-0.491 h 0.281 v 0.35 H 0.897 Z"
         style="fill:#757575;fill-rule:nonzero"
         id="path17684" /><path
         d="m 0.406,-0.842 h 0.632 v 0.351 H 0.897 L 0.782,-0.246 0.897,0 C 0.897,0.028 0.891,0.054 0.878,0.078 0.865,0.102 0.848,0.123 0.827,0.14 H 0.195 C 0.217,0.123 0.234,0.102 0.247,0.078 0.259,0.054 0.266,0.028 0.266,0 L 0.392,-0.246 0.266,-0.491 c 0,-0.022 0,-0.043 0.002,-0.064 0.001,-0.021 0.004,-0.042 0.007,-0.063 0.002,-0.01 0.004,-0.023 0.007,-0.038 C 0.285,-0.671 0.289,-0.687 0.294,-0.703 0.299,-0.72 0.305,-0.736 0.313,-0.753 0.32,-0.77 0.328,-0.784 0.337,-0.798 0.346,-0.811 0.356,-0.822 0.368,-0.83 0.379,-0.838 0.392,-0.842 0.406,-0.842 Z"
         style="fill:#ffffff;fill-rule:nonzero"
         id="path17686" /><rect
         x="0.266"
         y="-0.491"
         width="0.63099998"
         height="0.491"
         style="fill:#f2f2f2;fill-rule:nonzero"
         id="rect17688" /><path
         d="M 1.038,-0.141 C 1.024,-0.141 1.012,-0.144 1.001,-0.152 0.99,-0.159 0.98,-0.169 0.971,-0.181 0.962,-0.193 0.955,-0.207 0.948,-0.222 0.941,-0.237 0.935,-0.252 0.93,-0.267 0.925,-0.282 0.921,-0.297 0.917,-0.311 0.914,-0.325 0.911,-0.336 0.91,-0.346 0.905,-0.37 0.902,-0.394 0.9,-0.418 0.898,-0.443 0.897,-0.467 0.897,-0.491 0.897,-0.514 0.898,-0.537 0.9,-0.56 0.901,-0.582 0.904,-0.605 0.908,-0.628 0.91,-0.638 0.912,-0.65 0.916,-0.664 0.919,-0.679 0.923,-0.694 0.928,-0.71 0.933,-0.726 0.939,-0.742 0.946,-0.758 0.953,-0.773 0.961,-0.788 0.97,-0.8 0.979,-0.813 0.989,-0.823 1,-0.831 c 0.012,-0.007 0.024,-0.011 0.038,-0.011 0.013,0 0.025,0.004 0.036,0.011 0.012,0.008 0.022,0.019 0.031,0.031 0.009,0.013 0.017,0.027 0.024,0.043 0.007,0.016 0.013,0.031 0.018,0.047 0.005,0.016 0.009,0.031 0.012,0.046 0.003,0.014 0.006,0.026 0.008,0.036 0.003,0.023 0.006,0.046 0.008,0.068 0.002,0.023 0.003,0.046 0.003,0.069 0,0.024 -10e-4,0.048 -0.003,0.073 -0.002,0.024 -0.005,0.048 -0.01,0.072 -0.002,0.01 -0.004,0.021 -0.008,0.035 -0.003,0.014 -0.007,0.029 -0.012,0.044 -0.005,0.015 -0.011,0.03 -0.018,0.045 -0.007,0.015 -0.015,0.029 -0.024,0.041 -0.009,0.012 -0.019,0.022 -0.03,0.029 -0.01,0.008 -0.022,0.011 -0.035,0.011 z"
         style="fill:#cccccc;fill-rule:nonzero"
         id="path17690" /><path
         d="m 1.038,-0.614 c 0.01,0 0.019,0.005 0.025,0.015 0.007,0.01 0.013,0.022 0.017,0.036 0.003,0.013 0.006,0.027 0.008,0.041 0.002,0.013 0.002,0.024 0.002,0.031 l -0.053,0.05 -0.052,-0.05 c 0,-0.005 0,-0.012 0.001,-0.019 0,-0.008 0.002,-0.017 0.003,-0.026 0.001,-0.009 0.004,-0.018 0.006,-0.028 0.003,-0.009 0.006,-0.017 0.01,-0.025 0.004,-0.007 0.008,-0.013 0.014,-0.018 0.005,-0.005 0.011,-0.007 0.019,-0.007 z"
         style="fill:#613d30;fill-rule:nonzero"
         id="path17692" /><path
         d="m 1.09,-0.491 c 0,0.005 0,0.011 -0.001,0.019 0,0.008 -10e-4,0.016 -0.003,0.025 C 1.084,-0.438 1.082,-0.428 1.08,-0.419 1.077,-0.41 1.074,-0.402 1.07,-0.394 1.066,-0.387 1.061,-0.38 1.056,-0.376 1.051,-0.371 1.044,-0.369 1.038,-0.369 1.027,-0.369 1.018,-0.374 1.011,-0.384 1.004,-0.394 0.999,-0.406 0.995,-0.419 0.991,-0.433 0.989,-0.446 0.987,-0.46 0.986,-0.474 0.985,-0.484 0.985,-0.491 Z"
         style="fill:#8e562e;fill-rule:nonzero"
         id="path17694" /></g></g></svg>
