<?xml version="1.0" encoding="UTF-8" standalone="no"?>
<svg
   width="16.844999"
   height="16.844999"
   viewBox="0 0 16.844999 16.844999"
   version="1.1"
   xml:space="preserve"
   style="clip-rule:evenodd;fill-rule:evenodd;stroke-linejoin:round;stroke-miterlimit:2"
   id="svg20568"
   sodipodi:docname="emojis.svg"
   xmlns:inkscape="http://www.inkscape.org/namespaces/inkscape"
   xmlns:sodipodi="http://sodipodi.sourceforge.net/DTD/sodipodi-0.dtd"
   xmlns="http://www.w3.org/2000/svg"
   xmlns:svg="http://www.w3.org/2000/svg"><defs
     id="defs20572" /><sodipodi:namedview
     id="namedview20570"
     pagecolor="#505050"
     bordercolor="#eeeeee"
     borderopacity="1"
     inkscape:pageshadow="0"
     inkscape:pageopacity="0"
     inkscape:pagecheckerboard="0" /><g
     transform="matrix(0.24,0,0,0.24,-108.30396,-851.2194)"
     id="g20566"><g
       transform="matrix(62.5,0,0,62.5,443.454,3603.81)"
       id="g17600"><path
         d="m 0.758,-0.913 c 0.028,0 0.055,0.006 0.081,0.016 0.026,0.011 0.049,0.026 0.068,0.046 l 0.279,0.279 c 0.02,0.02 0.035,0.043 0.046,0.068 0.011,0.026 0.016,0.053 0.016,0.081 0,0.021 -0.003,0.042 -0.01,0.063 0.007,0.014 0.01,0.029 0.01,0.044 0,0.015 -0.003,0.029 -0.009,0.043 -0.006,0.014 -0.015,0.026 -0.027,0.036 -10e-4,0.014 -0.004,0.027 -0.01,0.038 -0.006,0.012 -0.014,0.022 -0.024,0.031 -0.009,0.008 -0.02,0.015 -0.032,0.02 -0.013,0.005 -0.026,0.007 -0.04,0.007 10e-4,0.003 10e-4,0.005 10e-4,0.008 v 0.007 c 0,0.014 -0.002,0.028 -0.006,0.042 -0.005,0.013 -0.011,0.025 -0.019,0.036 -0.008,0.01 -0.017,0.02 -0.029,0.027 -0.012,0.008 -0.025,0.014 -0.04,0.018 C 1.003,0.009 0.991,0.018 0.977,0.025 0.963,0.032 0.948,0.035 0.932,0.035 0.924,0.035 0.917,0.034 0.909,0.032 0.902,0.031 0.894,0.028 0.887,0.025 L 0.86,0.052 C 0.861,0.058 0.862,0.064 0.862,0.07 0.862,0.082 0.86,0.093 0.856,0.104 0.852,0.115 0.847,0.125 0.841,0.133 0.834,0.142 0.826,0.15 0.817,0.156 0.807,0.163 0.797,0.168 0.786,0.171 0.776,0.184 0.764,0.193 0.75,0.2 0.735,0.207 0.72,0.21 0.704,0.21 0.692,0.21 0.679,0.208 0.667,0.204 0.658,0.206 0.649,0.207 0.641,0.208 0.632,0.209 0.623,0.21 0.614,0.21 0.594,0.21 0.574,0.207 0.554,0.201 0.54,0.207 0.525,0.21 0.511,0.21 0.495,0.21 0.48,0.207 0.467,0.2 0.453,0.194 0.441,0.185 0.431,0.173 0.418,0.185 0.403,0.195 0.386,0.201 0.37,0.207 0.353,0.21 0.335,0.21 0.316,0.21 0.298,0.207 0.281,0.199 0.264,0.192 0.249,0.182 0.236,0.169 0.224,0.157 0.214,0.142 0.206,0.125 0.199,0.108 0.195,0.09 0.195,0.07 V -0.006 C 0.185,-0.01 0.175,-0.015 0.167,-0.022 0.158,-0.028 0.151,-0.036 0.145,-0.045 0.138,-0.053 0.134,-0.063 0.13,-0.073 0.127,-0.084 0.125,-0.094 0.125,-0.105 v -0.186 c 0,-0.007 0.001,-0.015 0.002,-0.023 C 0.129,-0.323 0.131,-0.331 0.134,-0.34 0.136,-0.348 0.139,-0.356 0.143,-0.364 0.147,-0.372 0.15,-0.379 0.154,-0.385 0.144,-0.401 0.137,-0.418 0.132,-0.436 0.127,-0.454 0.125,-0.473 0.125,-0.491 c 0,-0.029 0.006,-0.057 0.017,-0.082 0.011,-0.026 0.026,-0.048 0.045,-0.067 0.019,-0.019 0.041,-0.034 0.067,-0.046 0.025,-0.011 0.052,-0.016 0.081,-0.016 0.008,0 0.015,0 0.023,0.001 0.014,-0.011 0.03,-0.02 0.047,-0.027 0.017,-0.006 0.035,-0.009 0.053,-0.009 0.011,0 0.022,0.001 0.034,0.004 l 0.117,-0.118 c 0.02,-0.02 0.043,-0.035 0.068,-0.046 0.026,-0.01 0.053,-0.016 0.081,-0.016 z"
         style="fill-rule:nonzero"
         id="path17592" /><path
         d="M 0.535,0.051 C 0.519,0.051 0.503,0.049 0.488,0.045 0.472,0.042 0.457,0.036 0.442,0.03 L 0.431,0.025 C 0.429,0.024 0.429,0.023 0.429,0.023 L 0.236,-0.161 C 0.22,-0.177 0.209,-0.195 0.204,-0.216 0.198,-0.237 0.195,-0.258 0.195,-0.279 c 0,-0.02 0.004,-0.038 0.011,-0.054 0.007,-0.016 0.017,-0.031 0.03,-0.045 0.001,-0.001 0.002,-0.002 0.004,-0.004 0.002,-0.002 0.003,-0.003 0.003,-0.004 l 0.084,-0.184 0.182,-0.081 0.15,-0.15 c 0.013,-0.014 0.028,-0.024 0.045,-0.031 0.018,-0.007 0.036,-0.01 0.054,-0.01 0.019,0 0.037,0.003 0.054,0.01 0.017,0.007 0.032,0.017 0.045,0.031 l 0.16,0.159 c 0.009,0.01 0.018,0.02 0.028,0.03 0.009,0.011 0.017,0.023 0.025,0.035 0.007,0.012 0.013,0.025 0.017,0.038 0.005,0.013 0.007,0.026 0.007,0.04 0,0.018 -0.004,0.034 -0.012,0.05 -0.008,0.015 -0.018,0.028 -0.03,0.041 L 0.629,0.014 C 0.617,0.027 0.602,0.036 0.586,0.042 0.57,0.048 0.553,0.051 0.535,0.051 Z"
         style="fill:#81e6d3;fill-rule:nonzero"
         id="path17594" /><path
         d="M 0.615,0.14 C 0.593,0.14 0.574,0.136 0.559,0.129 0.544,0.121 0.53,0.111 0.517,0.1 0.504,0.089 0.491,0.076 0.479,0.063 0.466,0.05 0.452,0.038 0.436,0.027 L 0.476,0.02 0.485,0.021 c 0.002,0 0.004,0 0.006,0 0.003,0 0.004,0 0.005,0 0.018,0 0.036,-0.004 0.053,-0.011 0.017,-0.007 0.032,-0.017 0.046,-0.031 l 0.422,-0.422 c 0.013,-0.013 0.024,-0.028 0.031,-0.046 0.007,-0.017 0.01,-0.034 0.01,-0.053 0,-0.019 -0.003,-0.036 -0.011,-0.054 C 1.04,-0.613 1.03,-0.628 1.017,-0.642 l 0.12,0.12 c 0.013,0.013 0.023,0.029 0.03,0.046 0.007,0.017 0.011,0.035 0.011,0.053 0,0.019 -0.004,0.037 -0.011,0.054 -0.007,0.017 -0.017,0.032 -0.03,0.046 L 0.714,0.099 C 0.701,0.112 0.685,0.123 0.668,0.13 0.651,0.137 0.633,0.14 0.615,0.14 Z m 0.21,-0.825 C 0.818,-0.691 0.81,-0.695 0.8,-0.695 c -0.009,0 -0.018,0.004 -0.025,0.01 l -0.422,0.423 c -0.007,0.007 -0.01,0.015 -0.01,0.025 0,0.009 0.003,0.018 0.01,0.024 L 0.311,-0.254 C 0.304,-0.261 0.3,-0.27 0.3,-0.279 c 0,-0.01 0.004,-0.018 0.011,-0.025 l 0.422,-0.423 c 0.007,-0.007 0.016,-0.01 0.025,-0.01 0.01,0 0.018,0.003 0.025,0.01 z"
         style="fill:#00cea6;fill-rule:nonzero"
         id="path17596" /><path
         d="m 1.178,-0.316 c 0,0.01 -0.004,0.018 -0.011,0.025 -0.006,0.007 -0.015,0.01 -0.024,0.01 -0.01,0 -0.018,-0.003 -0.025,-0.01 -0.007,-0.007 -0.011,-0.015 -0.011,-0.025 0,-0.01 0.004,-0.018 0.011,-0.025 0.007,-0.007 0.015,-0.01 0.025,-0.01 0.009,0 0.018,0.003 0.024,0.01 0.007,0.007 0.011,0.015 0.011,0.025 z m -0.193,0.14 c 0.007,0 0.014,0.002 0.02,0.004 0.006,0.003 0.012,0.007 0.017,0.012 0.005,0.005 0.009,0.01 0.011,0.017 0.003,0.006 0.005,0.013 0.005,0.02 0,0.007 -0.002,0.014 -0.005,0.02 -0.002,0.007 -0.006,0.012 -0.011,0.017 -0.005,0.005 -0.011,0.009 -0.017,0.012 -0.006,0.002 -0.013,0.004 -0.02,0.004 -0.006,0 -0.012,-10e-4 -0.018,-0.003 0,0.01 -0.003,0.019 -0.009,0.027 -0.006,0.007 -0.015,0.011 -0.026,0.011 -0.01,0 -0.018,-0.004 -0.025,-0.01 -0.007,-0.007 -0.01,-0.016 -0.01,-0.025 0,-0.011 0.004,-0.02 0.011,-0.026 0.008,-0.006 0.017,-0.009 0.027,-0.009 -0.002,-0.006 -0.003,-0.012 -0.003,-0.018 0,-0.007 0.002,-0.014 0.004,-0.02 0.003,-0.007 0.007,-0.012 0.012,-0.017 0.005,-0.005 0.01,-0.009 0.017,-0.012 0.006,-0.002 0.013,-0.004 0.02,-0.004 z m 0.158,-0.07 c 0,0.01 -0.004,0.018 -0.011,0.025 C 1.125,-0.214 1.117,-0.21 1.107,-0.21 1.098,-0.21 1.09,-0.214 1.083,-0.221 1.076,-0.228 1.072,-0.236 1.072,-0.246 c 0,-0.009 0.004,-0.017 0.011,-0.024 0.007,-0.007 0.015,-0.011 0.024,-0.011 0.01,0 0.018,0.004 0.025,0.01 0.007,0.007 0.011,0.016 0.011,0.025 z M 0.757,0.035 c 0.009,0 0.017,0.004 0.024,0.011 0.007,0.007 0.011,0.015 0.011,0.024 0,0.01 -0.004,0.018 -0.011,0.025 C 0.774,0.102 0.766,0.105 0.757,0.105 0.75,0.105 0.744,0.103 0.739,0.1 0.739,0.111 0.736,0.121 0.73,0.128 0.724,0.136 0.715,0.14 0.704,0.14 0.694,0.14 0.686,0.137 0.679,0.13 0.672,0.123 0.669,0.115 0.669,0.105 0.669,0.096 0.672,0.087 0.679,0.081 0.686,0.074 0.695,0.07 0.704,0.07 0.711,0.07 0.717,0.072 0.722,0.075 0.722,0.064 0.725,0.055 0.73,0.047 0.736,0.039 0.745,0.035 0.757,0.035 Z m -0.211,0.07 c 0,0.01 -0.004,0.018 -0.01,0.025 C 0.529,0.137 0.521,0.14 0.511,0.14 0.501,0.14 0.493,0.137 0.486,0.13 0.479,0.123 0.476,0.114 0.476,0.105 0.476,0.096 0.479,0.087 0.486,0.081 0.493,0.074 0.501,0.07 0.511,0.07 0.52,0.07 0.528,0.074 0.535,0.081 0.542,0.087 0.546,0.096 0.546,0.105 Z M 0.195,-0.279 c 0,0.018 0.004,0.036 0.011,0.053 0.007,0.018 0.017,0.033 0.03,0.046 l 0.16,0.159 c 0.011,0.011 0.023,0.02 0.037,0.027 0.013,0.007 0.028,0.012 0.043,0.014 v 0.015 c 0,0.01 -0.003,0.018 -0.01,0.025 C 0.459,0.067 0.45,0.07 0.441,0.07 0.431,0.07 0.423,0.067 0.416,0.06 0.409,0.053 0.406,0.045 0.406,0.035 V 0.07 C 0.406,0.08 0.404,0.089 0.4,0.098 0.396,0.106 0.391,0.114 0.385,0.12 0.379,0.126 0.371,0.131 0.363,0.135 0.354,0.138 0.345,0.14 0.335,0.14 0.326,0.14 0.317,0.138 0.308,0.135 0.3,0.131 0.292,0.126 0.286,0.12 0.28,0.114 0.274,0.106 0.271,0.098 0.267,0.089 0.265,0.08 0.265,0.07 v -0.175 c 0,0.009 -0.003,0.018 -0.01,0.024 C 0.248,-0.074 0.24,-0.07 0.23,-0.07 0.221,-0.07 0.212,-0.074 0.206,-0.081 0.199,-0.088 0.195,-0.096 0.195,-0.105 Z M 0.243,-0.386 C 0.228,-0.399 0.216,-0.415 0.208,-0.433 0.199,-0.451 0.195,-0.471 0.195,-0.491 c 0,-0.02 0.004,-0.038 0.011,-0.055 0.008,-0.017 0.018,-0.032 0.03,-0.045 0.013,-0.013 0.028,-0.023 0.045,-0.03 0.017,-0.007 0.035,-0.011 0.054,-0.011 0.016,0 0.032,0.003 0.048,0.008 0.008,-0.013 0.018,-0.024 0.032,-0.032 0.013,-0.007 0.028,-0.011 0.043,-0.011 0.019,0 0.036,0.005 0.051,0.016 z m 0.338,0.23 -0.05,0.051 H 0.529 C 0.521,-0.105 0.514,-0.107 0.508,-0.11 0.502,-0.112 0.496,-0.116 0.491,-0.121 0.487,-0.126 0.483,-0.131 0.48,-0.137 0.477,-0.144 0.476,-0.151 0.476,-0.158 c 0,-0.007 0.001,-0.014 0.004,-0.021 0.003,-0.006 0.007,-0.012 0.012,-0.016 0.005,-0.005 0.01,-0.009 0.017,-0.011 0.006,-0.003 0.013,-0.004 0.02,-0.004 0.008,0 0.015,0.001 0.021,0.004 0.006,0.003 0.012,0.007 0.016,0.012 0.005,0.005 0.009,0.01 0.011,0.017 0.003,0.007 0.004,0.014 0.004,0.021 z M 0.649,-0.224 0.604,-0.178 C 0.597,-0.181 0.592,-0.185 0.587,-0.191 0.583,-0.197 0.581,-0.203 0.581,-0.21 c 0,-0.01 0.003,-0.019 0.01,-0.025 0.007,-0.007 0.015,-0.011 0.025,-0.011 0.008,0 0.014,0.002 0.02,0.006 0.006,0.004 0.01,0.01 0.013,0.016 z m -0.173,0.048 c 0,0.01 -0.003,0.018 -0.01,0.025 -0.007,0.007 -0.015,0.01 -0.025,0.01 -0.01,0 -0.018,-0.003 -0.025,-0.01 -0.007,-0.007 -0.01,-0.015 -0.01,-0.025 0,-0.009 0.003,-0.017 0.01,-0.024 0.007,-0.007 0.015,-0.01 0.025,-0.01 0.009,0 0.018,0.003 0.025,0.01 0.007,0.007 0.01,0.015 0.01,0.024 z M 0.719,-0.294 0.673,-0.248 C 0.667,-0.251 0.662,-0.255 0.657,-0.261 0.653,-0.267 0.651,-0.274 0.651,-0.281 c 0,-0.01 0.004,-0.018 0.011,-0.025 0.006,-0.006 0.015,-0.01 0.025,-0.01 0.007,0 0.013,0.002 0.019,0.006 0.006,0.004 0.011,0.01 0.013,0.016 z"
         style="fill:#f2f2f2;fill-rule:nonzero"
         id="path17598" /></g></g></svg>
