<?xml version="1.0" encoding="UTF-8" standalone="no"?>
<svg
   width="16.32"
   height="16.844999"
   viewBox="0 0 16.32 16.844999"
   version="1.1"
   xml:space="preserve"
   style="clip-rule:evenodd;fill-rule:evenodd;stroke-linejoin:round;stroke-miterlimit:2"
   id="svg20568"
   sodipodi:docname="emojis.svg"
   xmlns:inkscape="http://www.inkscape.org/namespaces/inkscape"
   xmlns:sodipodi="http://sodipodi.sourceforge.net/DTD/sodipodi-0.dtd"
   xmlns="http://www.w3.org/2000/svg"
   xmlns:svg="http://www.w3.org/2000/svg"><defs
     id="defs20572" /><sodipodi:namedview
     id="namedview20570"
     pagecolor="#505050"
     bordercolor="#eeeeee"
     borderopacity="1"
     inkscape:pageshadow="0"
     inkscape:pageopacity="0"
     inkscape:pagecheckerboard="0" /><g
     transform="matrix(0.24,0,0,0.24,-29.59788,-144.6594)"
     id="g20566"><g
       transform="matrix(62.5,0,0,62.5,115.512,659.81)"
       id="g1766"><path
         d="M 0.265,0.21 C 0.246,0.21 0.228,0.207 0.211,0.199 0.194,0.192 0.179,0.182 0.166,0.169 0.153,0.157 0.143,0.142 0.136,0.125 0.129,0.108 0.125,0.09 0.125,0.07 0.125,0.051 0.129,0.033 0.136,0.016 0.143,-0.001 0.153,-0.016 0.166,-0.029 0.179,-0.042 0.194,-0.052 0.211,-0.059 0.228,-0.067 0.246,-0.07 0.265,-0.07 H 0.33 l 0.203,-0.357 c 0.009,-0.015 0.015,-0.031 0.019,-0.047 0.005,-0.017 0.007,-0.034 0.007,-0.051 0,-0.018 -0.003,-0.037 -0.008,-0.056 l -0.1,-0.332 h 0.515 v 0.228 c 0,0.013 0.004,0.027 0.012,0.041 0.008,0.015 0.018,0.029 0.029,0.043 0.012,0.014 0.024,0.026 0.036,0.038 0.013,0.011 0.024,0.021 0.034,0.027 0.007,0.006 0.015,0.011 0.023,0.015 0.009,0.005 0.016,0.011 0.023,0.016 0.029,0.025 0.051,0.054 0.067,0.088 0.015,0.033 0.023,0.069 0.023,0.107 0,0.029 -0.004,0.055 -0.013,0.08 C 1.192,-0.205 1.18,-0.183 1.165,-0.163 1.15,-0.143 1.131,-0.125 1.11,-0.11 1.088,-0.095 1.064,-0.083 1.038,-0.075 1.02,-0.069 1.002,-0.063 0.985,-0.058 0.967,-0.052 0.95,-0.047 0.932,-0.041 0.891,-0.026 0.851,-0.009 0.813,0.01 0.775,0.029 0.738,0.051 0.702,0.075 0.684,0.088 0.665,0.101 0.647,0.114 0.628,0.127 0.61,0.14 0.591,0.152 0.582,0.158 0.573,0.164 0.564,0.171 0.555,0.177 0.546,0.183 0.536,0.187 0.521,0.195 0.505,0.201 0.49,0.205 0.474,0.209 0.458,0.21 0.44,0.21 Z"
         style="fill-rule:nonzero"
         id="path1760" /><path
         d="m 0.897,-0.685 c 0,0.02 0.004,0.039 0.013,0.059 0.009,0.02 0.021,0.039 0.034,0.057 0.014,0.018 0.029,0.035 0.046,0.051 0.016,0.015 0.032,0.028 0.047,0.039 l 0.042,0.028 c 0.011,0.007 0.02,0.016 0.028,0.027 0.008,0.011 0.015,0.023 0.02,0.035 0.006,0.013 0.01,0.026 0.013,0.039 0.003,0.014 0.005,0.027 0.005,0.039 0,0.019 -0.003,0.037 -0.009,0.055 C 1.13,-0.238 1.122,-0.221 1.111,-0.205 1.099,-0.189 1.086,-0.176 1.07,-0.166 1.054,-0.155 1.037,-0.147 1.018,-0.142 0.983,-0.13 0.951,-0.12 0.921,-0.11 0.892,-0.1 0.863,-0.089 0.835,-0.077 0.808,-0.065 0.78,-0.052 0.752,-0.037 0.725,-0.022 0.695,-0.004 0.664,0.017 0.646,0.029 0.628,0.041 0.611,0.053 0.594,0.066 0.576,0.078 0.559,0.09 0.55,0.096 0.541,0.102 0.532,0.108 0.524,0.115 0.514,0.12 0.505,0.125 0.494,0.13 0.484,0.134 0.474,0.136 0.464,0.139 0.453,0.14 0.441,0.14 H 0.265 C 0.255,0.14 0.246,0.138 0.238,0.135 0.229,0.131 0.222,0.126 0.216,0.12 0.209,0.114 0.204,0.106 0.201,0.098 0.197,0.089 0.195,0.08 0.195,0.07 0.195,0.061 0.197,0.051 0.201,0.043 0.204,0.035 0.209,0.027 0.216,0.021 0.222,0.014 0.229,0.009 0.238,0.006 0.246,0.002 0.255,0 0.265,0 h 0.068 c 0.012,0 0.023,-0.003 0.032,-0.009 0.01,-0.006 0.018,-0.014 0.024,-0.024 l 0.206,-0.36 C 0.606,-0.413 0.615,-0.434 0.621,-0.456 0.627,-0.479 0.63,-0.501 0.63,-0.524 0.63,-0.55 0.626,-0.575 0.619,-0.601 L 0.546,-0.842 h 0.351 z"
         style="fill:#ffc83d;fill-rule:nonzero"
         id="path1762" /><path
         d="m 0.739,-0.394 c 0,-0.004 0.002,-0.009 0.005,-0.012 0.004,-0.003 0.008,-0.005 0.012,-0.005 0.008,0 0.014,0.004 0.017,0.012 0.006,0.015 0.015,0.026 0.026,0.035 0.012,0.009 0.025,0.013 0.041,0.013 0.01,0 0.019,-0.002 0.028,-0.006 C 0.876,-0.36 0.884,-0.365 0.89,-0.372 0.896,-0.378 0.901,-0.386 0.905,-0.394 0.908,-0.403 0.91,-0.412 0.91,-0.421 0.91,-0.426 0.909,-0.431 0.908,-0.436 0.906,-0.44 0.906,-0.445 0.906,-0.449 c 0,-0.005 0.001,-0.009 0.005,-0.013 0.003,-0.003 0.007,-0.005 0.012,-0.005 0.005,0 0.009,0.002 0.012,0.005 0.003,0.003 0.005,0.007 0.007,0.012 0.001,0.005 0.002,0.01 0.003,0.015 0,0.005 0,0.01 0,0.013 0,0.015 -0.002,0.029 -0.008,0.041 -0.006,0.013 -0.013,0.024 -0.023,0.034 -0.009,0.01 -0.02,0.017 -0.033,0.023 -0.013,0.005 -0.027,0.008 -0.041,0.008 -0.023,0 -0.044,-0.007 -0.062,-0.02 -0.018,-0.013 -0.03,-0.031 -0.038,-0.052 0,-0.001 0,-0.002 0,-0.003 C 0.739,-0.392 0.739,-0.393 0.739,-0.394 Z"
         style="fill:#d48c00;fill-rule:nonzero"
         id="path1764" /></g></g></svg>
