<?xml version="1.0" encoding="UTF-8" standalone="no"?>
<svg
   width="16.844999"
   height="16.844999"
   viewBox="0 0 16.844999 16.844999"
   version="1.1"
   xml:space="preserve"
   style="clip-rule:evenodd;fill-rule:evenodd;stroke-linejoin:round;stroke-miterlimit:2"
   id="svg20568"
   sodipodi:docname="emojis.svg"
   xmlns:inkscape="http://www.inkscape.org/namespaces/inkscape"
   xmlns:sodipodi="http://sodipodi.sourceforge.net/DTD/sodipodi-0.dtd"
   xmlns="http://www.w3.org/2000/svg"
   xmlns:svg="http://www.w3.org/2000/svg"><defs
     id="defs20572" /><sodipodi:namedview
     id="namedview20570"
     pagecolor="#505050"
     bordercolor="#eeeeee"
     borderopacity="1"
     inkscape:pageshadow="0"
     inkscape:pageopacity="0"
     inkscape:pagecheckerboard="0" /><g
     transform="matrix(0.24,0,0,0.24,-162.72276,-851.2194)"
     id="g20566"><g
       transform="matrix(62.5,0,0,62.5,670.199,3603.81)"
       id="g17644"><path
         d="m 1.02,-0.913 c 0.031,0 0.061,0.006 0.088,0.018 0.028,0.013 0.052,0.029 0.073,0.05 0.021,0.02 0.037,0.044 0.049,0.072 0.012,0.028 0.018,0.057 0.018,0.088 0,0.031 -0.006,0.06 -0.017,0.088 -0.012,0.028 -0.028,0.052 -0.05,0.074 L 0.514,0.144 C 0.493,0.165 0.468,0.182 0.44,0.193 0.413,0.205 0.384,0.21 0.353,0.21 0.322,0.21 0.292,0.204 0.265,0.192 0.237,0.18 0.213,0.164 0.192,0.143 0.171,0.123 0.155,0.098 0.143,0.071 0.131,0.043 0.125,0.014 0.125,-0.018 c 0,-0.024 0.004,-0.048 0.012,-0.072 l 0.25,-0.751 c 0.003,-0.011 0.008,-0.02 0.015,-0.029 0.007,-0.009 0.015,-0.016 0.023,-0.023 0.009,-0.006 0.019,-0.011 0.029,-0.014 0.011,-0.004 0.021,-0.006 0.033,-0.006 0.014,0 0.028,0.003 0.041,0.009 0.012,0.005 0.024,0.013 0.033,0.022 0.01,0.01 0.017,0.021 0.023,0.033 0.006,0.013 0.008,0.027 0.008,0.041 0,0.012 -0.002,0.023 -0.006,0.034 l -0.178,0.535 c 0.023,0.006 0.045,0.015 0.065,0.027 0.02,0.013 0.038,0.028 0.053,0.046 L 0.871,-0.511 C 0.868,-0.519 0.866,-0.528 0.865,-0.536 0.863,-0.545 0.863,-0.553 0.863,-0.562 0.842,-0.562 0.822,-0.566 0.802,-0.574 0.783,-0.582 0.766,-0.593 0.751,-0.608 L 0.686,-0.673 0.859,-0.846 C 0.88,-0.867 0.905,-0.884 0.933,-0.895 0.96,-0.907 0.989,-0.913 1.02,-0.913 Z"
         style="fill-rule:nonzero"
         id="path17634" /><path
         d="M 0.336,-0.245 0.312,-0.17 C 0.308,-0.16 0.304,-0.151 0.298,-0.142 0.293,-0.133 0.286,-0.125 0.279,-0.117 0.272,-0.109 0.264,-0.102 0.256,-0.095 0.247,-0.089 0.239,-0.083 0.23,-0.079 0.226,-0.077 0.222,-0.075 0.218,-0.073 0.213,-0.071 0.208,-0.07 0.204,-0.07 l 0.051,-0.154 c 0.001,-0.002 0.004,-0.006 0.008,-0.011 0.005,-0.005 0.01,-0.011 0.016,-0.017 0.006,-0.006 0.011,-0.011 0.017,-0.015 0.005,-0.005 0.009,-0.007 0.011,-0.007 0.003,0 0.006,0.001 0.008,0.003 0.003,0.002 0.006,0.005 0.009,0.008 0.003,0.003 0.005,0.006 0.007,0.01 0.002,0.003 0.004,0.006 0.005,0.008 z"
         style="fill:#69797e;fill-rule:nonzero"
         id="path17636" /><path
         d="m 0.91,-0.451 h 0.049 v 0.05 L 0.465,0.094 C 0.45,0.109 0.433,0.121 0.414,0.128 0.394,0.136 0.374,0.14 0.353,0.14 0.331,0.14 0.311,0.136 0.292,0.128 0.273,0.119 0.256,0.108 0.242,0.094 0.227,0.079 0.216,0.063 0.208,0.044 0.199,0.025 0.195,0.004 0.195,-0.018 c 0,-0.021 0.004,-0.042 0.013,-0.061 0.008,-0.019 0.019,-0.036 0.034,-0.05 0.014,-0.015 0.031,-0.026 0.05,-0.034 0.019,-0.009 0.039,-0.013 0.061,-0.013 0.019,0 0.037,0.003 0.054,0.01 0.017,0.006 0.032,0.015 0.046,0.026 0.014,0.012 0.025,0.025 0.035,0.041 0.01,0.015 0.016,0.032 0.02,0.051 z M 0.353,0.07 C 0.365,0.07 0.376,0.068 0.387,0.063 0.398,0.059 0.407,0.053 0.415,0.045 0.423,0.037 0.43,0.027 0.434,0.017 0.439,0.006 0.441,-0.006 0.441,-0.018 0.441,-0.03 0.439,-0.041 0.434,-0.052 0.43,-0.062 0.423,-0.072 0.415,-0.08 0.407,-0.088 0.398,-0.094 0.387,-0.099 0.376,-0.103 0.365,-0.105 0.353,-0.105 c -0.012,0 -0.023,0.002 -0.034,0.006 -0.011,0.005 -0.02,0.011 -0.028,0.019 -0.008,0.008 -0.014,0.018 -0.019,0.028 -0.005,0.011 -0.007,0.022 -0.007,0.034 0,0.012 0.002,0.024 0.007,0.035 0.005,0.01 0.011,0.02 0.019,0.028 C 0.299,0.053 0.308,0.059 0.319,0.063 0.33,0.068 0.341,0.07 0.353,0.07 Z"
         style="fill:#a0aeb2;fill-rule:nonzero"
         id="path17638" /><path
         d="M 1.009,-0.45 0.96,-0.401 0.91,-0.451 0.988,-0.529 Z"
         style="fill:#4a5459;fill-rule:nonzero"
         id="path17640" /><path
         d="M 1.009,-0.45 0.958,-0.501 C 0.95,-0.509 0.944,-0.518 0.939,-0.529 0.935,-0.539 0.933,-0.55 0.933,-0.562 c 0,-0.006 0.001,-0.013 0.003,-0.021 0.002,-0.009 0.005,-0.016 0.009,-0.023 0.004,-0.008 0.009,-0.014 0.015,-0.019 0.006,-0.004 0.013,-0.007 0.02,-0.007 h 0.022 c 0.016,0 0.029,-0.003 0.04,-0.009 0.01,-0.007 0.02,-0.015 0.031,-0.026 0.009,-0.01 0.014,-0.022 0.014,-0.035 0,-0.007 -10e-4,-0.013 -0.004,-0.02 C 1.08,-0.728 1.077,-0.733 1.072,-0.738 1.068,-0.742 1.062,-0.745 1.056,-0.748 1.05,-0.751 1.044,-0.752 1.037,-0.752 c -0.013,0 -0.025,0.005 -0.035,0.015 l -0.079,0.08 C 0.915,-0.649 0.905,-0.643 0.895,-0.639 0.884,-0.634 0.873,-0.632 0.862,-0.632 0.853,-0.632 0.845,-0.633 0.838,-0.635 0.831,-0.637 0.825,-0.64 0.819,-0.644 0.813,-0.647 0.807,-0.651 0.802,-0.656 0.797,-0.662 0.792,-0.667 0.786,-0.673 l 0.122,-0.123 c 0.015,-0.015 0.032,-0.026 0.051,-0.034 0.02,-0.008 0.04,-0.012 0.061,-0.012 0.022,0 0.042,0.004 0.061,0.012 0.019,0.008 0.036,0.02 0.05,0.034 0.015,0.014 0.026,0.031 0.034,0.05 0.009,0.02 0.013,0.04 0.013,0.061 0,0.022 -0.004,0.042 -0.012,0.061 -0.008,0.019 -0.02,0.036 -0.035,0.051 z m -0.673,0.205 c -0.028,0.002 -0.055,0.009 -0.081,0.021 l 0.199,-0.594 c 0.002,-0.008 0.006,-0.013 0.012,-0.018 0.006,-0.004 0.013,-0.006 0.02,-0.006 0.01,0 0.018,0.003 0.025,0.01 0.007,0.007 0.011,0.015 0.011,0.024 0,0.002 0,0.004 -0.001,0.006 0,0.002 0,0.004 -0.001,0.006 z"
         style="fill:#bac8cc;fill-rule:nonzero"
         id="path17642" /></g></g></svg>
