<?xml version="1.0" encoding="UTF-8" standalone="no"?>
<svg
   width="16.844999"
   height="15"
   viewBox="0 0 16.844999 15"
   version="1.1"
   xml:space="preserve"
   style="clip-rule:evenodd;fill-rule:evenodd;stroke-linejoin:round;stroke-miterlimit:2"
   id="svg20568"
   sodipodi:docname="emojis.svg"
   xmlns:inkscape="http://www.inkscape.org/namespaces/inkscape"
   xmlns:sodipodi="http://sodipodi.sourceforge.net/DTD/sodipodi-0.dtd"
   xmlns="http://www.w3.org/2000/svg"
   xmlns:svg="http://www.w3.org/2000/svg"><defs
     id="defs20572" /><sodipodi:namedview
     id="namedview20570"
     pagecolor="#505050"
     bordercolor="#eeeeee"
     borderopacity="1"
     inkscape:pageshadow="0"
     inkscape:pageopacity="0"
     inkscape:pagecheckerboard="0" /><g
     transform="matrix(0.24,0,0,0.24,-128.89956,-851.7594)"
     id="g20566"><g
       transform="matrix(62.5,0,0,62.5,529.269,3603.81)"
       id="g17612"><path
         d="m 0.125,-0.025 c 0,-0.015 0.002,-0.029 0.007,-0.042 C 0.136,-0.08 0.142,-0.092 0.15,-0.103 0.158,-0.114 0.168,-0.123 0.179,-0.131 0.191,-0.139 0.203,-0.146 0.217,-0.15 0.228,-0.154 0.24,-0.158 0.251,-0.161 0.262,-0.164 0.273,-0.167 0.285,-0.171 0.328,-0.184 0.37,-0.198 0.412,-0.213 0.477,-0.237 0.539,-0.264 0.6,-0.294 0.661,-0.324 0.72,-0.358 0.777,-0.395 L 0.631,-0.469 C 0.623,-0.466 0.616,-0.463 0.608,-0.462 0.601,-0.461 0.593,-0.46 0.585,-0.46 0.576,-0.46 0.569,-0.461 0.562,-0.463 0.55,-0.467 0.537,-0.472 0.525,-0.478 0.513,-0.485 0.502,-0.491 0.49,-0.497 L 0.368,-0.561 C 0.344,-0.573 0.32,-0.585 0.296,-0.598 0.272,-0.61 0.248,-0.623 0.224,-0.636 0.207,-0.645 0.193,-0.658 0.183,-0.675 0.173,-0.691 0.167,-0.709 0.167,-0.729 c 0,-0.016 0.004,-0.031 0.011,-0.046 0.006,-0.014 0.013,-0.027 0.019,-0.039 0.007,-0.012 0.014,-0.023 0.023,-0.032 0.009,-0.01 0.019,-0.017 0.031,-0.023 0.012,-0.006 0.026,-0.008 0.043,-0.008 0.009,0 0.018,0.001 0.025,0.003 0.008,0.002 0.016,0.005 0.024,0.009 0.045,0.022 0.09,0.045 0.135,0.069 0.044,0.023 0.088,0.047 0.133,0.07 0.065,0.034 0.13,0.068 0.195,0.101 0.065,0.032 0.13,0.065 0.195,0.099 0.011,0 0.02,0.001 0.029,0.003 0.008,0.003 0.016,0.006 0.023,0.01 0.007,0.005 0.014,0.01 0.021,0.016 0.006,0.006 0.013,0.012 0.02,0.019 0.003,0.004 0.006,0.007 0.009,0.011 0.002,0.003 0.005,0.007 0.007,0.01 h 0.05 c 0.012,0 0.024,0.003 0.034,0.007 0.011,0.005 0.02,0.011 0.028,0.019 0.008,0.008 0.015,0.017 0.019,0.028 0.005,0.011 0.007,0.022 0.007,0.034 0,0.012 -0.002,0.024 -0.007,0.035 -0.004,0.01 -0.011,0.02 -0.019,0.028 -0.008,0.008 -0.017,0.014 -0.028,0.018 -0.01,0.005 -0.022,0.007 -0.034,0.007 H 1.107 C 1.089,-0.281 1.069,-0.283 1.05,-0.288 0.998,-0.241 0.945,-0.198 0.89,-0.159 0.835,-0.12 0.779,-0.084 0.72,-0.051 0.662,-0.018 0.602,0.011 0.541,0.038 0.479,0.065 0.415,0.089 0.349,0.11 0.337,0.114 0.326,0.117 0.314,0.119 0.302,0.122 0.29,0.123 0.278,0.123 0.258,0.123 0.241,0.12 0.225,0.114 0.209,0.108 0.195,0.098 0.181,0.084 0.172,0.077 0.165,0.069 0.158,0.061 0.151,0.053 0.145,0.045 0.14,0.036 0.135,0.027 0.132,0.018 0.129,0.008 0.126,-0.002 0.125,-0.013 0.125,-0.025 Z"
         style="fill-rule:nonzero"
         id="path17602" /><path
         d="m 1.03,-0.443 c 0.006,0.006 0.012,0.012 0.017,0.018 0.005,0.006 0.008,0.014 0.008,0.023 0,0.01 -0.004,0.019 -0.012,0.027 L 1.004,-0.341 C 0.911,-0.257 0.81,-0.184 0.702,-0.121 0.595,-0.059 0.481,-0.007 0.362,0.032 0.347,0.037 0.333,0.042 0.318,0.046 0.304,0.051 0.289,0.053 0.273,0.053 0.26,0.053 0.249,0.049 0.24,0.043 0.232,0.036 0.223,0.029 0.215,0.02 L 0.213,0.017 0.218,0.016 C 0.215,0.009 0.213,0.001 0.213,-0.008 c 0,-0.013 0.004,-0.026 0.012,-0.036 0.007,-0.011 0.018,-0.018 0.03,-0.022 0.017,-0.005 0.034,-0.011 0.05,-0.016 0.017,-0.004 0.034,-0.009 0.051,-0.015 0.103,-0.032 0.204,-0.072 0.3,-0.121 0.097,-0.048 0.189,-0.105 0.277,-0.169 l 0.06,-0.045 c 0.006,-0.005 0.013,-0.007 0.021,-0.007 h 0.005 c 0.002,0 0.003,0 0.005,0.001 l 0.003,-0.008 z"
         style="fill:#613d30;fill-rule:nonzero"
         id="path17604" /><path
         d="M 0.309,0.026 C 0.291,0.032 0.273,0.035 0.256,0.035 0.247,0.035 0.24,0.034 0.232,0.03 0.225,0.027 0.218,0.023 0.213,0.017 0.207,0.012 0.203,0.006 0.2,-0.002 0.197,-0.009 0.195,-0.017 0.195,-0.025 c 0,-0.014 0.004,-0.026 0.012,-0.037 0.008,-0.01 0.018,-0.018 0.031,-0.021 l 0.1,-0.031 c 0.105,-0.032 0.205,-0.073 0.301,-0.121 0.096,-0.049 0.188,-0.105 0.276,-0.17 l 0.008,-0.044 0.064,-0.006 c 0.003,-0.001 0.006,-0.002 0.01,-0.002 h 0.004 c 0.005,0 0.01,0.001 0.014,0.003 0.004,0.002 0.008,0.005 0.012,0.008 0.007,0.007 0.011,0.016 0.011,0.026 0,0.01 -0.004,0.019 -0.013,0.027 L 0.987,-0.358 C 0.893,-0.274 0.792,-0.201 0.685,-0.139 0.577,-0.076 0.464,-0.025 0.344,0.015 Z"
         style="fill:#8e562e;fill-rule:nonzero"
         id="path17606" /><path
         d="m 1.045,-0.402 c 0.013,0.007 0.026,0.011 0.039,0.013 0.013,0.002 0.026,0.003 0.04,0.003 H 1.16 c 0.005,0 0.009,0.001 0.013,0.005 0.003,0.003 0.005,0.007 0.005,0.012 0,0.005 -0.002,0.009 -0.005,0.013 -0.004,0.003 -0.008,0.005 -0.013,0.005 H 1.107 C 1.092,-0.351 1.078,-0.353 1.063,-0.357 1.049,-0.361 1.035,-0.367 1.022,-0.375 1.027,-0.379 1.032,-0.383 1.036,-0.387 1.04,-0.39 1.043,-0.395 1.045,-0.402 Z M 0.719,-0.503 C 0.709,-0.508 0.701,-0.513 0.693,-0.517 0.685,-0.521 0.677,-0.525 0.67,-0.529 0.663,-0.533 0.655,-0.537 0.647,-0.54 0.64,-0.544 0.631,-0.548 0.621,-0.553 0.614,-0.556 0.608,-0.559 0.602,-0.561 0.597,-0.563 0.591,-0.565 0.585,-0.567 L 0.549,-0.581 0.406,-0.637 C 0.402,-0.638 0.397,-0.641 0.392,-0.645 0.387,-0.649 0.383,-0.653 0.379,-0.655 0.376,-0.657 0.371,-0.661 0.364,-0.666 0.356,-0.671 0.347,-0.677 0.338,-0.684 0.328,-0.691 0.318,-0.699 0.308,-0.707 0.298,-0.714 0.288,-0.722 0.28,-0.729 0.271,-0.736 0.264,-0.743 0.258,-0.748 0.253,-0.754 0.25,-0.758 0.25,-0.761 c 0,-0.001 0,-0.002 0,-0.002 l 0.003,-0.006 c 0.002,-0.005 0.004,-0.009 0.007,-0.013 0.002,-0.005 0.005,-0.009 0.008,-0.012 0.003,-0.004 0.007,-0.007 0.011,-0.009 0.004,-0.003 0.009,-0.004 0.015,-0.004 0.005,0 0.011,0.002 0.016,0.004 0.113,0.059 0.226,0.117 0.338,0.175 0.112,0.058 0.225,0.116 0.339,0.173 -0.006,0.002 -0.012,0.005 -0.019,0.01 -0.007,0.005 -0.014,0.011 -0.021,0.017 -0.007,0.005 -0.013,0.01 -0.019,0.015 -0.006,0.005 -0.011,0.008 -0.014,0.009 z m -0.436,0.477 c 0,0.007 -0.003,0.013 -0.008,0.018 C 0.27,-0.003 0.264,0 0.256,0 0.249,0 0.243,-0.003 0.238,-0.008 0.233,-0.013 0.23,-0.019 0.23,-0.026 c 0,-0.008 0.003,-0.014 0.008,-0.019 0.005,-0.005 0.011,-0.008 0.018,-0.008 0.008,0 0.014,0.003 0.019,0.008 0.005,0.005 0.008,0.011 0.008,0.019 z m 0.719,-0.378 c 0,0.005 -0.001,0.009 -0.005,0.013 -0.003,0.003 -0.007,0.005 -0.012,0.005 -0.005,0 -0.009,-0.002 -0.013,-0.005 -0.003,-0.004 -0.005,-0.008 -0.005,-0.013 0,-0.005 0.002,-0.009 0.005,-0.012 0.004,-0.004 0.008,-0.005 0.013,-0.005 0.005,0 0.009,0.001 0.012,0.005 0.004,0.003 0.005,0.007 0.005,0.012 z"
         style="fill:#cccccc;fill-rule:nonzero"
         id="path17608" /><path
         d="M 0.632,-0.574 C 0.629,-0.569 0.627,-0.564 0.624,-0.559 0.622,-0.553 0.619,-0.549 0.616,-0.544 0.613,-0.54 0.609,-0.537 0.604,-0.534 0.6,-0.532 0.594,-0.53 0.588,-0.53 0.582,-0.53 0.577,-0.532 0.572,-0.534 L 0.256,-0.698 C 0.25,-0.701 0.246,-0.705 0.243,-0.711 0.239,-0.717 0.238,-0.723 0.238,-0.729 c 0,-0.007 0.001,-0.013 0.004,-0.018 0.003,-0.005 0.006,-0.011 0.008,-0.016 z"
         style="fill:#e5e5e5;fill-rule:nonzero"
         id="path17610" /></g></g></svg>
