<?xml version="1.0" encoding="UTF-8" standalone="no"?>
<svg
   width="12.105"
   height="16.844999"
   viewBox="0 0 12.105 16.844999"
   version="1.1"
   xml:space="preserve"
   style="clip-rule:evenodd;fill-rule:evenodd;stroke-linejoin:round;stroke-miterlimit:2"
   id="svg20568"
   sodipodi:docname="emojis.svg"
   xmlns:inkscape="http://www.inkscape.org/namespaces/inkscape"
   xmlns:sodipodi="http://sodipodi.sourceforge.net/DTD/sodipodi-0.dtd"
   xmlns="http://www.w3.org/2000/svg"
   xmlns:svg="http://www.w3.org/2000/svg"><defs
     id="defs20572" /><sodipodi:namedview
     id="namedview20570"
     pagecolor="#505050"
     bordercolor="#eeeeee"
     borderopacity="1"
     inkscape:pageshadow="0"
     inkscape:pageopacity="0"
     inkscape:pagecheckerboard="0" /><g
     transform="matrix(0.24,0,0,0.24,-265.7022,-851.2194)"
     id="g20566"><g
       transform="matrix(62.5,0,0,62.5,1099.28,3603.81)"
       id="g17728"><path
         d="M 0.441,0.21 C 0.416,0.21 0.392,0.204 0.371,0.192 0.349,0.179 0.332,0.162 0.319,0.14 H 0.125 V -0.205 L 0.16,-0.24 v -0.322 c 0,-0.028 0.004,-0.056 0.011,-0.084 0.008,-0.027 0.019,-0.052 0.032,-0.075 0.014,-0.023 0.031,-0.044 0.05,-0.064 0.019,-0.019 0.04,-0.035 0.064,-0.049 0.023,-0.014 0.048,-0.025 0.075,-0.032 0.027,-0.008 0.055,-0.011 0.084,-0.011 h 0.012 c 0.013,-0.012 0.027,-0.021 0.043,-0.027 0.016,-0.006 0.033,-0.009 0.05,-0.009 0.017,0 0.034,0.003 0.05,0.009 0.016,0.006 0.03,0.015 0.043,0.027 h 0.17 c 0.012,0 0.024,0.002 0.034,0.006 0.011,0.005 0.021,0.011 0.028,0.019 0.008,0.009 0.015,0.018 0.019,0.029 0.005,0.01 0.007,0.022 0.007,0.034 0,0.009 -0.001,0.018 -0.005,0.027 -0.003,0.009 -0.007,0.017 -0.012,0.025 0.011,0.015 0.017,0.033 0.017,0.052 0,0.011 -0.002,0.021 -0.005,0.031 -0.004,0.01 -0.009,0.019 -0.016,0.027 -0.006,0.007 -0.014,0.014 -0.023,0.019 -0.009,0.005 -0.019,0.009 -0.03,0.01 0.002,0.008 0.004,0.018 0.004,0.03 0.001,0.011 0.001,0.023 0.001,0.035 0,0.012 0,0.024 0,0.035 -0.001,0.011 -0.001,0.021 -0.001,0.03 0,0.09 0,0.18 0,0.269 0,0.089 0,0.179 0,0.269 0,0.02 -0.004,0.038 -0.011,0.055 C 0.844,0.142 0.833,0.157 0.821,0.169 0.808,0.182 0.793,0.192 0.776,0.199 0.759,0.207 0.741,0.21 0.722,0.21 Z"
         style="fill-rule:nonzero"
         id="path17706" /><rect
         x="0.546"
         y="-0.73699999"
         width="0.07"
         height="0.105"
         style="fill:#d48c00;fill-rule:nonzero"
         id="rect17708" /><path
         d="m 0.648,-0.751 0.201,0.049 c 0.004,0.001 0.007,0.003 0.009,0.007 0.003,0.003 0.004,0.007 0.004,0.01 0,0.006 -0.002,0.01 -0.006,0.013 -0.003,0.003 -0.007,0.005 -0.012,0.005 -0.002,0 -0.006,-0.001 -0.012,-0.002 C 0.826,-0.671 0.82,-0.672 0.813,-0.674 0.806,-0.675 0.799,-0.677 0.793,-0.679 0.787,-0.68 0.783,-0.681 0.781,-0.682 L 0.628,-0.72 C 0.622,-0.714 0.615,-0.71 0.607,-0.707 0.599,-0.703 0.59,-0.702 0.582,-0.702 0.569,-0.702 0.558,-0.705 0.547,-0.711 0.536,-0.718 0.527,-0.726 0.521,-0.737 H 0.476 c -0.024,0 -0.047,0.004 -0.068,0.014 -0.021,0.009 -0.04,0.022 -0.056,0.037 C 0.336,-0.67 0.323,-0.651 0.314,-0.63 0.305,-0.608 0.3,-0.586 0.3,-0.562 v 0.386 H 0.335 V 0.07 H 0.195 V -0.176 H 0.23 v -0.386 c 0,-0.024 0.004,-0.048 0.011,-0.071 0.007,-0.023 0.017,-0.045 0.03,-0.064 C 0.284,-0.717 0.3,-0.734 0.318,-0.75 0.337,-0.766 0.358,-0.778 0.38,-0.788 0.399,-0.796 0.416,-0.801 0.433,-0.803 0.45,-0.806 0.468,-0.807 0.487,-0.807 h 0.034 c 0.006,-0.011 0.015,-0.02 0.025,-0.026 0.011,-0.006 0.023,-0.009 0.035,-0.009 0.013,0 0.024,0.003 0.035,0.009 0.011,0.006 0.02,0.015 0.026,0.026 h 0.202 c 0.005,0 0.009,0.002 0.013,0.005 0.003,0.003 0.005,0.008 0.005,0.012 0,0.005 -0.002,0.009 -0.006,0.013 -0.003,0.003 -0.007,0.005 -0.012,0.005 H 0.651 c 0,0.007 -0.001,0.014 -0.003,0.021 z"
         style="fill:#757575;fill-rule:nonzero"
         id="path17710" /><path
         d="m 0.616,-0.772 c 0,0.009 -0.003,0.018 -0.01,0.024 -0.007,0.007 -0.016,0.011 -0.025,0.011 -0.009,0 -0.018,-0.004 -0.025,-0.011 -0.007,-0.006 -0.01,-0.015 -0.01,-0.024 0,-0.009 0.003,-0.018 0.01,-0.025 0.007,-0.007 0.016,-0.01 0.025,-0.01 0.01,0 0.018,0.003 0.025,0.01 0.007,0.007 0.01,0.015 0.01,0.025 z"
         style="fill:#cccccc;fill-rule:nonzero"
         id="path17712" /><path
         d="M 0.23,-0.21 H 0.3 l 0.035,0.034 h -0.14 z"
         style="fill:#a6a6a6;fill-rule:nonzero"
         id="path17714" /><path
         d="m 0.687,-0.667 c 0.014,0 0.028,0.003 0.041,0.008 0.012,0.006 0.023,0.013 0.033,0.023 0.01,0.01 0.017,0.021 0.023,0.033 0.005,0.013 0.008,0.027 0.008,0.041 V 0 L 0.581,0.096 0.371,0 v -0.562 c 0,-0.014 0.002,-0.028 0.008,-0.041 0.005,-0.012 0.013,-0.023 0.023,-0.033 0.009,-0.01 0.02,-0.017 0.033,-0.023 0.013,-0.005 0.026,-0.008 0.041,-0.008 z"
         style="fill:#e81224;fill-rule:nonzero"
         id="path17716" /><path
         d="M 0.423,0.018 C 0.418,0.018 0.414,0.016 0.411,0.012 0.407,0.009 0.406,0.005 0.406,0 v -0.562 c 0,-0.009 0.002,-0.018 0.005,-0.027 C 0.415,-0.597 0.42,-0.605 0.427,-0.611 0.433,-0.617 0.44,-0.622 0.449,-0.626 0.457,-0.63 0.466,-0.632 0.476,-0.632 h 0.052 c 0.005,0 0.009,0.002 0.013,0.005 0.003,0.004 0.005,0.008 0.005,0.013 0,0.005 -0.002,0.009 -0.005,0.012 -0.004,0.004 -0.008,0.005 -0.013,0.005 H 0.476 c -0.01,0 -0.018,0.004 -0.025,0.011 -0.007,0.006 -0.01,0.015 -0.01,0.024 V 0 C 0.441,0.005 0.439,0.009 0.436,0.012 0.432,0.016 0.428,0.018 0.423,0.018 Z"
         style="fill:#e84757;fill-rule:nonzero"
         id="path17718" /><rect
         x="0.47600001"
         y="-0.38600001"
         width="0.20999999"
         height="0.28099999"
         style="fill:#f2f2f2;fill-rule:nonzero"
         id="rect17720" /><path
         d="m 0.581,-0.351 c 0.022,0.018 0.039,0.038 0.051,0.062 0.013,0.024 0.019,0.05 0.019,0.079 0,0.009 -0.002,0.018 -0.005,0.027 C 0.642,-0.175 0.637,-0.167 0.631,-0.161 0.624,-0.155 0.617,-0.15 0.608,-0.146 0.6,-0.142 0.591,-0.141 0.581,-0.141 0.571,-0.141 0.562,-0.142 0.554,-0.146 0.545,-0.15 0.538,-0.155 0.531,-0.161 0.525,-0.167 0.52,-0.175 0.517,-0.183 0.513,-0.192 0.511,-0.201 0.511,-0.21 c 0,-0.028 0.006,-0.054 0.019,-0.079 0.013,-0.024 0.03,-0.044 0.051,-0.062 z"
         style="fill:#f7630c;fill-rule:nonzero"
         id="path17722" /><path
         d="m 0.581,-0.246 c 0.011,0.009 0.019,0.019 0.026,0.031 0.006,0.012 0.009,0.025 0.009,0.039 0,0.01 -0.003,0.018 -0.01,0.025 -0.007,0.007 -0.015,0.01 -0.025,0.01 -0.009,0 -0.018,-0.003 -0.025,-0.01 -0.007,-0.007 -0.01,-0.015 -0.01,-0.025 0,-0.013 0.003,-0.026 0.01,-0.039 0.006,-0.012 0.015,-0.022 0.025,-0.031 z"
         style="fill:#ffb900;fill-rule:nonzero"
         id="path17724" /><path
         d="m 0.792,-0.491 v 0.034 H 0.371 V -0.491 Z M 0.371,0 H 0.792 V 0.07 C 0.792,0.08 0.79,0.089 0.786,0.098 0.783,0.106 0.778,0.114 0.771,0.12 0.765,0.126 0.757,0.131 0.749,0.135 0.741,0.138 0.731,0.14 0.722,0.14 H 0.441 C 0.431,0.14 0.422,0.138 0.414,0.135 0.405,0.131 0.398,0.126 0.391,0.12 0.385,0.114 0.38,0.106 0.376,0.098 0.372,0.089 0.371,0.08 0.371,0.07 Z"
         style="fill:#af0d1a;fill-rule:nonzero"
         id="path17726" /></g></g></svg>
