<?xml version="1.0" encoding="UTF-8" standalone="no"?>
<svg
   width="15.795"
   height="16.545"
   viewBox="0 0 15.795 16.545"
   version="1.1"
   xml:space="preserve"
   style="clip-rule:evenodd;fill-rule:evenodd;stroke-linejoin:round;stroke-miterlimit:2"
   id="svg20568"
   sodipodi:docname="emojis.svg"
   xmlns:inkscape="http://www.inkscape.org/namespaces/inkscape"
   xmlns:sodipodi="http://sodipodi.sourceforge.net/DTD/sodipodi-0.dtd"
   xmlns="http://www.w3.org/2000/svg"
   xmlns:svg="http://www.w3.org/2000/svg"><defs
     id="defs20572" /><sodipodi:namedview
     id="namedview20570"
     pagecolor="#505050"
     bordercolor="#eeeeee"
     borderopacity="1"
     inkscape:pageshadow="0"
     inkscape:pageopacity="0"
     inkscape:pagecheckerboard="0" /><g
     transform="matrix(0.24,0,0,0.24,-322.7574,-851.2194)"
     id="g20566"><g
       transform="matrix(62.5,0,0,62.5,1337.01,3603.81)"
       id="g17776"><path
         d="M 0.205,-0.308 C 0.194,-0.344 0.184,-0.38 0.174,-0.415 0.164,-0.451 0.154,-0.486 0.144,-0.522 0.143,-0.524 0.142,-0.529 0.14,-0.535 0.138,-0.542 0.136,-0.549 0.133,-0.556 0.131,-0.563 0.129,-0.57 0.127,-0.576 0.126,-0.582 0.125,-0.585 0.125,-0.586 v -0.236 l 0.26,-0.087 c 0.004,-0.001 0.007,-0.002 0.01,-0.003 0.003,0 0.007,-0.001 0.01,-0.001 0.008,0 0.016,0.002 0.024,0.005 l 0.3,0.112 0.449,0.561 V 0.002 L 0.895,0.19 Z"
         style="fill-rule:nonzero"
         id="path17758" /><path
         d="m 0.195,-0.772 0.847,0.543 c 0.002,0 0.005,0.001 0.011,0.003 0.006,0.002 0.013,0.004 0.02,0.006 0.007,0.002 0.014,0.004 0.021,0.005 0.006,0.002 0.011,0.004 0.013,0.005 v 0.175 L 0.897,0.105 0.265,-0.351 C 0.264,-0.355 0.261,-0.364 0.258,-0.378 0.254,-0.392 0.249,-0.407 0.244,-0.425 L 0.212,-0.537 C 0.207,-0.554 0.203,-0.568 0.2,-0.579 0.197,-0.59 0.195,-0.596 0.195,-0.597 Z"
         style="fill:#613d30;fill-rule:nonzero"
         id="path17760" /><path
         d="m 0.265,-0.491 -0.07,-0.281 0.211,-0.07 0.281,0.105 0.42,0.527 -0.21,0.14 z"
         style="fill:#8e562e;fill-rule:nonzero"
         id="path17762" /><path
         d="m 0.512,-0.655 0.099,0.099 c 0.003,0.003 0.005,0.007 0.005,0.013 0,0.004 -0.002,0.008 -0.005,0.012 -0.004,0.003 -0.008,0.005 -0.012,0.005 -0.005,0 -0.009,-0.002 -0.013,-0.005 L 0.483,-0.634 Z"
         style="fill:#13a10e;fill-rule:nonzero"
         id="path17764" /><path
         d="M 0.634,-0.562 H 0.458 v -0.035 h 0.176 c 0.005,0 0.009,0.002 0.012,0.005 0.004,0.004 0.005,0.008 0.005,0.013 0,0.005 -0.001,0.009 -0.005,0.012 -0.003,0.004 -0.007,0.005 -0.012,0.005 z"
         style="fill:#79db75;fill-rule:nonzero"
         id="path17766" /><path
         d="m 0.546,-0.667 c 0,0.007 -0.002,0.013 -0.004,0.018 0.002,0.006 0.004,0.011 0.004,0.018 0,0.009 -0.004,0.017 -0.011,0.024 -0.007,0.007 -0.015,0.01 -0.024,0.01 -0.007,0 -0.013,-0.001 -0.018,-0.004 -0.005,0.003 -0.011,0.004 -0.017,0.004 -0.01,0 -0.018,-0.003 -0.025,-0.01 -0.007,-0.007 -0.01,-0.015 -0.01,-0.024 0,-0.007 0.001,-0.012 0.004,-0.018 -0.003,-0.005 -0.004,-0.011 -0.004,-0.018 0,-0.009 0.003,-0.017 0.01,-0.024 0.007,-0.007 0.015,-0.011 0.025,-0.011 0.006,0 0.012,0.002 0.017,0.005 0.005,-0.003 0.011,-0.005 0.018,-0.005 0.01,0 0.018,0.004 0.025,0.011 0.006,0.006 0.01,0.015 0.01,0.024 z"
         style="fill:#ee9889;fill-rule:nonzero"
         id="path17768" /><path
         d="m 0.511,-0.597 c 0,0.007 -0.002,0.013 -0.005,0.018 0.003,0.005 0.005,0.011 0.005,0.017 0,0.01 -0.004,0.019 -0.011,0.025 -0.006,0.007 -0.015,0.011 -0.024,0.011 -0.003,0 -0.006,-0.001 -0.009,-0.002 -0.003,0 -0.006,-0.002 -0.009,-0.003 -0.005,0.003 -0.011,0.005 -0.017,0.005 -0.01,0 -0.018,-0.004 -0.025,-0.011 -0.007,-0.006 -0.01,-0.015 -0.01,-0.025 0,-0.006 10e-4,-0.012 0.004,-0.017 -0.003,-0.005 -0.004,-0.011 -0.004,-0.018 0,-0.009 0.003,-0.017 0.01,-0.024 0.007,-0.007 0.015,-0.01 0.025,-0.01 0.006,0 0.012,0.001 0.017,0.004 0.006,-0.003 0.011,-0.004 0.018,-0.004 0.009,0 0.017,0.003 0.024,0.01 0.007,0.007 0.011,0.015 0.011,0.024 z"
         style="fill:#f7b189;fill-rule:nonzero"
         id="path17770" /><path
         d="m 0.493,-0.667 c 0.005,0 0.009,0.002 0.013,0.006 0.003,0.003 0.005,0.007 0.005,0.012 0,0.005 -0.002,0.009 -0.006,0.012 -0.003,0.004 -0.007,0.006 -0.012,0.006 -0.004,0 -0.008,-0.002 -0.012,-0.006 -0.004,-0.003 -0.005,-0.007 -0.005,-0.012 0,-0.004 0.001,-0.009 0.005,-0.012 0.004,-0.004 0.008,-0.006 0.012,-0.006 z m -0.035,0.07 c 0.005,0 0.009,0.002 0.012,0.006 0.004,0.003 0.006,0.007 0.006,0.012 0,0.004 -0.002,0.009 -0.006,0.012 -0.003,0.004 -0.007,0.005 -0.012,0.005 -0.004,0 -0.009,-10e-4 -0.012,-0.005 -0.003,-0.003 -0.005,-0.007 -0.005,-0.012 0,-0.005 0.002,-0.009 0.005,-0.013 0.003,-0.003 0.008,-0.005 0.012,-0.005 z"
         style="fill:#f2d6c9;fill-rule:nonzero"
         id="path17772" /><path
         d="m 0.371,-0.31 v -0.035 l 0.07,0.051 v 0.035 z m 0.35,0.218 0.071,0.051 v 0.035 L 0.721,-0.057 Z"
         style="fill:#ffd679;fill-rule:nonzero"
         id="path17774" /></g></g></svg>
