<?xml version="1.0" encoding="UTF-8" standalone="no"?>
<svg
   width="16.844999"
   height="16.305"
   viewBox="0 0 16.844999 16.305"
   version="1.1"
   xml:space="preserve"
   style="clip-rule:evenodd;fill-rule:evenodd;stroke-linejoin:round;stroke-miterlimit:2"
   id="svg20568"
   sodipodi:docname="emojis.svg"
   xmlns:inkscape="http://www.inkscape.org/namespaces/inkscape"
   xmlns:sodipodi="http://sodipodi.sourceforge.net/DTD/sodipodi-0.dtd"
   xmlns="http://www.w3.org/2000/svg"
   xmlns:svg="http://www.w3.org/2000/svg"><defs
     id="defs20572" /><sodipodi:namedview
     id="namedview20570"
     pagecolor="#505050"
     bordercolor="#eeeeee"
     borderopacity="1"
     inkscape:pageshadow="0"
     inkscape:pageopacity="0"
     inkscape:pagecheckerboard="0" /><g
     transform="matrix(0.24,0,0,0.24,-281.5662,-851.7594)"
     id="g20566"><g
       transform="matrix(62.5,0,0,62.5,1165.38,3603.81)"
       id="g17740"><path
         d="m 1.107,-0.877 c 0.019,0 0.037,0.003 0.054,0.011 0.017,0.007 0.032,0.017 0.045,0.03 0.013,0.013 0.023,0.028 0.031,0.045 0.007,0.017 0.011,0.035 0.011,0.054 0,0.018 -0.004,0.036 -0.011,0.053 C 1.23,-0.667 1.22,-0.652 1.208,-0.639 1.195,-0.626 1.181,-0.616 1.164,-0.608 1.148,-0.6 1.13,-0.596 1.112,-0.596 c -0.002,0 -0.005,0 -0.007,0 -0.002,-0.001 -0.004,-0.001 -0.006,-0.001 -0.004,0 -0.007,0.003 -0.011,0.009 -0.003,0.007 -0.006,0.014 -0.009,0.022 -0.003,0.009 -0.006,0.017 -0.008,0.024 -0.002,0.008 -0.003,0.013 -0.004,0.015 l -0.093,0.311 0.048,0.099 c 0.008,0.015 0.012,0.03 0.012,0.047 0,0.011 -0.002,0.022 -0.006,0.032 C 1.025,-0.027 1.02,-0.017 1.013,-0.009 1.007,0 1,0.008 0.991,0.015 0.982,0.022 0.972,0.027 0.961,0.03 0.965,0.043 0.967,0.057 0.967,0.07 0.967,0.09 0.964,0.108 0.956,0.125 0.949,0.141 0.938,0.156 0.926,0.169 0.913,0.182 0.898,0.192 0.881,0.199 0.864,0.207 0.846,0.21 0.827,0.21 0.807,0.21 0.789,0.207 0.772,0.199 0.755,0.192 0.74,0.182 0.728,0.169 0.715,0.157 0.705,0.142 0.698,0.125 0.69,0.108 0.687,0.09 0.687,0.07 0.687,0.058 0.688,0.047 0.691,0.035 H 0.577 C 0.58,0.047 0.581,0.058 0.581,0.07 0.581,0.09 0.577,0.108 0.57,0.125 0.563,0.142 0.553,0.157 0.54,0.169 0.527,0.182 0.512,0.192 0.495,0.199 0.478,0.207 0.46,0.21 0.441,0.21 0.422,0.21 0.404,0.207 0.387,0.199 0.37,0.192 0.355,0.182 0.342,0.169 0.329,0.156 0.319,0.141 0.312,0.125 0.304,0.108 0.3,0.09 0.3,0.07 0.3,0.058 0.302,0.047 0.305,0.035 H 0.16 v -0.07 c 0,-0.014 0.002,-0.027 0.006,-0.04 C 0.17,-0.088 0.175,-0.1 0.182,-0.111 0.189,-0.122 0.198,-0.132 0.208,-0.141 0.218,-0.149 0.229,-0.157 0.242,-0.163 0.24,-0.165 0.239,-0.168 0.238,-0.171 0.237,-0.174 0.236,-0.177 0.235,-0.18 L 0.129,-0.531 c -0.003,-0.01 -0.004,-0.02 -0.004,-0.031 0,-0.014 0.003,-0.027 0.008,-0.04 0.006,-0.013 0.013,-0.024 0.023,-0.034 0.01,-0.01 0.021,-0.017 0.034,-0.023 0.013,-0.005 0.026,-0.008 0.04,-0.008 H 0.894 C 0.913,-0.707 0.939,-0.743 0.972,-0.773 0.976,-0.788 0.982,-0.802 0.991,-0.815 1,-0.828 1.01,-0.839 1.022,-0.848 1.034,-0.857 1.047,-0.864 1.062,-0.87 1.077,-0.875 1.092,-0.877 1.107,-0.877 Z"
         style="fill-rule:nonzero"
         id="path17730" /><path
         d="m 1.178,-0.737 c 0,0.009 -0.002,0.019 -0.006,0.027 -0.004,0.009 -0.009,0.016 -0.015,0.023 -0.006,0.006 -0.014,0.011 -0.022,0.015 -0.009,0.003 -0.018,0.005 -0.028,0.005 -0.009,0 -0.018,-0.002 -0.027,-0.006 C 1.072,-0.676 1.064,-0.681 1.058,-0.688 1.052,-0.694 1.047,-0.701 1.043,-0.71 1.039,-0.718 1.038,-0.728 1.038,-0.737 c 0,-0.01 10e-4,-0.019 0.005,-0.028 0.004,-0.008 0.009,-0.016 0.015,-0.022 0.006,-0.006 0.014,-0.011 0.022,-0.015 0.009,-0.003 0.018,-0.005 0.027,-0.005 0.01,0 0.019,0.002 0.028,0.005 0.008,0.004 0.016,0.009 0.022,0.015 0.006,0.006 0.011,0.014 0.015,0.022 0.004,0.009 0.006,0.018 0.006,0.028 z"
         style="fill:#f03a17;fill-rule:nonzero"
         id="path17732" /><path
         d="M 0.441,0 C 0.451,0 0.46,0.002 0.468,0.006 0.477,0.009 0.484,0.014 0.49,0.021 0.497,0.027 0.502,0.035 0.506,0.043 0.509,0.051 0.511,0.061 0.511,0.07 0.511,0.08 0.509,0.089 0.506,0.098 0.502,0.106 0.497,0.114 0.49,0.12 0.484,0.126 0.477,0.131 0.468,0.135 0.46,0.138 0.451,0.14 0.441,0.14 0.431,0.14 0.422,0.138 0.414,0.135 0.405,0.131 0.398,0.126 0.391,0.12 0.385,0.114 0.38,0.106 0.376,0.098 0.372,0.089 0.371,0.08 0.371,0.07 0.371,0.061 0.372,0.051 0.376,0.043 0.38,0.035 0.385,0.027 0.391,0.021 0.398,0.014 0.405,0.009 0.414,0.006 0.422,0.002 0.431,0 0.441,0 Z M 0.827,0 C 0.836,0 0.846,0.002 0.854,0.006 0.862,0.009 0.87,0.014 0.876,0.021 0.883,0.027 0.888,0.035 0.891,0.043 0.895,0.051 0.897,0.061 0.897,0.07 0.897,0.08 0.895,0.089 0.891,0.098 0.888,0.106 0.883,0.114 0.876,0.12 0.87,0.126 0.862,0.131 0.854,0.135 0.846,0.138 0.836,0.14 0.827,0.14 0.817,0.14 0.808,0.138 0.799,0.135 0.791,0.131 0.783,0.126 0.777,0.12 0.771,0.114 0.766,0.106 0.762,0.098 0.759,0.089 0.757,0.08 0.757,0.07 0.757,0.061 0.759,0.051 0.762,0.043 0.766,0.035 0.771,0.027 0.777,0.021 0.783,0.014 0.791,0.009 0.799,0.006 0.808,0.002 0.817,0 0.827,0 Z"
         style="fill:#757575;fill-rule:nonzero"
         id="path17734" /><path
         d="M 0.441,0.105 C 0.434,0.105 0.428,0.103 0.423,0.1 0.417,0.096 0.413,0.092 0.41,0.086 L 0.335,-0.07 h 0.141 v 0.14 c 0,0.01 -0.003,0.018 -0.01,0.025 C 0.459,0.102 0.45,0.105 0.441,0.105 Z M 0.722,-0.07 h 0.14 V 0.07 C 0.862,0.08 0.858,0.088 0.851,0.095 0.844,0.102 0.836,0.105 0.827,0.105 0.82,0.105 0.814,0.103 0.809,0.1 0.803,0.096 0.799,0.091 0.796,0.086 Z"
         style="fill:#e5e5e5;fill-rule:nonzero"
         id="path17736" /><path
         d="m 1.107,-0.772 c 0.01,0 0.018,0.003 0.025,0.01 0.007,0.007 0.011,0.015 0.011,0.025 0,0.008 -0.002,0.015 -0.007,0.02 -0.004,0.005 -0.009,0.009 -0.017,0.013 -0.016,0.008 -0.031,0.017 -0.043,0.027 -0.013,0.01 -0.024,0.022 -0.033,0.034 -0.009,0.013 -0.017,0.026 -0.024,0.041 -0.006,0.015 -0.012,0.031 -0.018,0.048 l -0.103,0.345 c 0.002,0.004 0.005,0.01 0.009,0.017 0.004,0.008 0.009,0.016 0.013,0.025 0.005,0.01 0.01,0.02 0.015,0.03 0.005,0.01 0.01,0.019 0.014,0.028 0.004,0.009 0.008,0.017 0.011,0.024 0.002,0.007 0.004,0.012 0.004,0.015 0,0.009 -0.004,0.018 -0.011,0.025 -0.007,0.006 -0.015,0.01 -0.025,0.01 H 0.23 c 0,-0.01 0.002,-0.019 0.006,-0.028 C 0.239,-0.071 0.244,-0.078 0.251,-0.085 0.257,-0.091 0.264,-0.096 0.273,-0.1 0.281,-0.104 0.291,-0.105 0.3,-0.105 H 0.872 L 0.836,-0.176 H 0.335 C 0.327,-0.176 0.32,-0.178 0.314,-0.182 0.309,-0.187 0.305,-0.193 0.302,-0.201 0.295,-0.217 0.29,-0.234 0.285,-0.251 0.281,-0.268 0.276,-0.285 0.271,-0.302 0.269,-0.309 0.266,-0.32 0.261,-0.334 0.257,-0.348 0.252,-0.364 0.246,-0.382 0.24,-0.4 0.234,-0.419 0.229,-0.438 0.223,-0.458 0.217,-0.476 0.212,-0.493 0.207,-0.51 0.203,-0.524 0.2,-0.537 0.197,-0.55 0.195,-0.558 0.195,-0.562 0.195,-0.571 0.199,-0.58 0.206,-0.586 0.213,-0.593 0.221,-0.597 0.23,-0.597 H 0.941 C 0.952,-0.63 0.967,-0.66 0.986,-0.686 1.006,-0.711 1.031,-0.734 1.061,-0.752 1.067,-0.757 1.074,-0.761 1.083,-0.765 1.091,-0.77 1.099,-0.772 1.107,-0.772 Z M 0.687,-0.42 H 0.792 V -0.526 H 0.687 Z M 0.511,-0.526 H 0.406 v 0.106 h 0.105 z m 0.14,0 H 0.546 v 0.106 h 0.105 z m -0.245,0.28 H 0.511 V -0.351 H 0.406 Z m 0.386,0 V -0.351 H 0.687 v 0.105 z M 0.546,-0.351 v 0.105 H 0.651 V -0.351 Z M 0.371,-0.526 H 0.277 L 0.309,-0.42 H 0.371 Z M 0.888,-0.42 0.92,-0.526 H 0.827 V -0.42 Z M 0.827,-0.246 H 0.836 L 0.868,-0.351 H 0.827 Z m -0.465,0 H 0.371 V -0.351 H 0.33 Z"
         style="fill:#cccccc;fill-rule:nonzero"
         id="path17738" /></g></g></svg>
