<?xml version="1.0" encoding="UTF-8" standalone="no"?>
<svg
   width="12.105"
   height="16.844999"
   viewBox="0 0 12.105 16.844999"
   version="1.1"
   xml:space="preserve"
   style="clip-rule:evenodd;fill-rule:evenodd;stroke-linejoin:round;stroke-miterlimit:2"
   id="svg20568"
   sodipodi:docname="emojis.svg"
   xmlns:inkscape="http://www.inkscape.org/namespaces/inkscape"
   xmlns:sodipodi="http://sodipodi.sourceforge.net/DTD/sodipodi-0.dtd"
   xmlns="http://www.w3.org/2000/svg"
   xmlns:svg="http://www.w3.org/2000/svg"><defs
     id="defs20572" /><sodipodi:namedview
     id="namedview20570"
     pagecolor="#505050"
     bordercolor="#eeeeee"
     borderopacity="1"
     inkscape:pageshadow="0"
     inkscape:pageopacity="0"
     inkscape:pagecheckerboard="0" /><g
     transform="matrix(0.24,0,0,0.24,-357.6342,-851.2194)"
     id="g20566"><g
       transform="matrix(62.5,0,0,62.5,1482.33,3603.81)"
       id="g17796"><path
         d="m 0.792,-0.8 c 0.02,0.006 0.039,0.015 0.057,0.027 0.017,0.012 0.032,0.026 0.044,0.042 0.012,0.016 0.022,0.034 0.029,0.054 0.007,0.021 0.01,0.041 0.01,0.063 v 0.298 c 0,0.044 -0.005,0.087 -0.015,0.129 -0.01,0.042 -0.024,0.082 -0.042,0.12 C 0.857,-0.029 0.835,0.007 0.809,0.042 0.783,0.076 0.754,0.108 0.722,0.137 V 0.21 H 0.335 V 0.137 C 0.304,0.108 0.275,0.076 0.249,0.042 0.223,0.007 0.201,-0.029 0.182,-0.067 0.164,-0.106 0.15,-0.146 0.14,-0.188 0.13,-0.229 0.125,-0.272 0.125,-0.316 v -0.298 c 0,-0.022 0.003,-0.042 0.01,-0.063 0.007,-0.02 0.017,-0.038 0.029,-0.054 0.012,-0.016 0.027,-0.03 0.044,-0.042 0.018,-0.012 0.037,-0.021 0.058,-0.027 0,-0.016 0.002,-0.03 0.007,-0.044 0.005,-0.013 0.012,-0.025 0.021,-0.035 0.009,-0.01 0.02,-0.019 0.033,-0.025 0.013,-0.006 0.028,-0.009 0.044,-0.009 h 0.316 c 0.022,0 0.042,0.006 0.059,0.018 0.017,0.013 0.03,0.029 0.038,0.05 0.001,0.004 0.003,0.008 0.004,0.011 0.001,0.003 0.001,0.006 0.002,0.01 0,0.003 0.001,0.006 0.001,0.009 0,0.003 0,0.007 0.001,0.012 z"
         style="fill-rule:nonzero"
         id="path17786" /><path
         d="M 0.441,-0.562 H 0.371 V -0.614 C 0.371,-0.621 0.369,-0.628 0.366,-0.635 0.364,-0.641 0.36,-0.647 0.355,-0.652 0.351,-0.656 0.345,-0.66 0.338,-0.663 0.332,-0.666 0.325,-0.667 0.318,-0.667 c -0.007,0 -0.014,0.001 -0.02,0.004 -0.007,0.003 -0.012,0.007 -0.017,0.012 -0.005,0.005 -0.009,0.01 -0.012,0.016 -0.002,0.007 -0.004,0.014 -0.004,0.021 v 0.298 h -0.07 v -0.298 c 0,-0.017 0.003,-0.033 0.01,-0.048 0.006,-0.015 0.015,-0.028 0.026,-0.039 0.011,-0.011 0.024,-0.02 0.039,-0.027 0.015,-0.006 0.031,-0.009 0.048,-0.009 0.017,0 0.033,0.003 0.048,0.009 0.015,0.007 0.028,0.016 0.039,0.027 0.011,0.011 0.02,0.024 0.026,0.039 0.007,0.015 0.01,0.031 0.01,0.048 z m 0.298,-0.175 c 0.017,0 0.033,0.003 0.048,0.009 0.015,0.007 0.028,0.016 0.039,0.027 0.011,0.011 0.02,0.024 0.026,0.039 0.007,0.015 0.01,0.031 0.01,0.048 v 0.298 H 0.792 V -0.614 C 0.792,-0.621 0.791,-0.628 0.788,-0.635 0.785,-0.641 0.781,-0.646 0.776,-0.651 0.771,-0.656 0.766,-0.66 0.76,-0.663 0.753,-0.666 0.746,-0.667 0.739,-0.667 c -0.007,0 -0.014,0.001 -0.02,0.004 -0.007,0.003 -0.012,0.007 -0.017,0.011 -0.005,0.005 -0.009,0.011 -0.011,0.017 -0.003,0.007 -0.004,0.014 -0.004,0.021 v 0.052 H 0.616 v -0.052 c 0,-0.017 0.003,-0.033 0.01,-0.048 0.006,-0.015 0.015,-0.028 0.026,-0.039 0.011,-0.011 0.024,-0.02 0.039,-0.027 0.015,-0.006 0.031,-0.009 0.048,-0.009 z m -0.404,-0.07 c 0,-0.01 0.004,-0.018 0.011,-0.025 0.007,-0.007 0.015,-0.01 0.025,-0.01 h 0.316 c 0.009,0 0.018,0.003 0.024,0.01 0.007,0.007 0.011,0.015 0.011,0.025 0,0.012 -0.004,0.021 -0.013,0.026 -0.008,0.006 -0.018,0.009 -0.028,0.009 -0.005,0 -0.011,0.001 -0.016,0.004 -0.006,0.003 -0.011,0.006 -0.017,0.01 -0.005,0.004 -0.01,0.008 -0.015,0.013 -0.005,0.004 -0.009,0.008 -0.012,0.011 H 0.427 C 0.422,-0.738 0.418,-0.743 0.414,-0.747 0.41,-0.752 0.406,-0.756 0.402,-0.76 0.397,-0.763 0.393,-0.766 0.388,-0.769 0.383,-0.771 0.377,-0.772 0.371,-0.772 0.361,-0.772 0.353,-0.775 0.346,-0.782 0.339,-0.789 0.335,-0.798 0.335,-0.807 Z M 0.406,0.14 V 0.066 H 0.651 V 0.14 Z"
         style="fill:#d48c00;fill-rule:nonzero"
         id="path17788" /><path
         d="m 0.651,-0.737 c 0,0.022 0.003,0.043 0.008,0.062 0.005,0.019 0.012,0.038 0.021,0.055 0.009,0.017 0.02,0.033 0.033,0.048 0.013,0.016 0.028,0.031 0.044,0.046 0.016,0.014 0.03,0.029 0.043,0.045 0.013,0.015 0.024,0.032 0.033,0.049 0.009,0.017 0.016,0.035 0.021,0.054 0.005,0.019 0.008,0.04 0.008,0.062 0,0.042 -0.005,0.083 -0.015,0.122 -0.01,0.039 -0.025,0.076 -0.043,0.112 -0.018,0.035 -0.04,0.069 -0.066,0.1 C 0.712,0.05 0.683,0.079 0.651,0.105 H 0.406 C 0.374,0.079 0.345,0.05 0.319,0.018 0.293,-0.013 0.271,-0.047 0.253,-0.082 0.235,-0.118 0.221,-0.155 0.21,-0.194 0.2,-0.233 0.195,-0.274 0.195,-0.316 c 0,-0.022 0.003,-0.043 0.008,-0.062 0.005,-0.019 0.012,-0.037 0.021,-0.054 0.009,-0.017 0.02,-0.034 0.033,-0.049 0.013,-0.016 0.027,-0.031 0.043,-0.045 0.016,-0.015 0.031,-0.03 0.044,-0.046 0.013,-0.015 0.024,-0.031 0.033,-0.048 0.009,-0.017 0.016,-0.036 0.021,-0.055 0.005,-0.019 0.008,-0.04 0.008,-0.062 0,-0.01 -0.003,-0.018 -0.01,-0.024 C 0.39,-0.768 0.383,-0.771 0.374,-0.772 h 0.31 c -0.01,0.001 -0.018,0.004 -0.024,0.011 -0.006,0.006 -0.009,0.014 -0.009,0.024 z"
         style="fill:#ffb900;fill-rule:nonzero"
         id="path17790" /><path
         d="M 0.722,-0.281 V -0.386 H 0.546 v 0.21 H 0.3 v -0.175 h 0.106 v 0.035 H 0.335 v 0.106 h 0.176 v -0.211 h 0.246 v 0.175 H 0.651 V -0.281 Z M 0.23,-0.421 h 0.246 v 0.175 H 0.371 v -0.035 h 0.07 V -0.386 H 0.265 v 0.21 H 0.215 C 0.212,-0.187 0.209,-0.198 0.207,-0.21 H 0.23 Z m 0.61,0 c 0.005,0.011 0.009,0.023 0.013,0.035 H 0.827 v 0.21 H 0.581 v -0.175 h 0.106 v 0.035 H 0.616 v 0.106 h 0.176 v -0.211 z"
         style="fill:#d48c00;fill-rule:nonzero"
         id="path17792" /><path
         d="M 0.227,-0.141 H 0.83 C 0.828,-0.135 0.826,-0.129 0.823,-0.123 0.821,-0.117 0.819,-0.111 0.816,-0.105 H 0.241 C 0.239,-0.111 0.236,-0.117 0.234,-0.123 0.232,-0.129 0.229,-0.135 0.227,-0.141 Z m 0.566,-0.35 c 0.005,0.005 0.009,0.011 0.014,0.017 0.004,0.005 0.009,0.011 0.013,0.017 H 0.237 C 0.242,-0.463 0.246,-0.469 0.25,-0.474 0.255,-0.48 0.259,-0.486 0.264,-0.491 Z"
         style="fill:#383838;fill-rule:nonzero"
         id="path17794" /></g></g></svg>
