<?xml version="1.0" encoding="UTF-8" standalone="no"?>
<svg
   width="16.844999"
   height="16.155001"
   viewBox="0 0 16.844999 16.155001"
   version="1.1"
   xml:space="preserve"
   style="clip-rule:evenodd;fill-rule:evenodd;stroke-linejoin:round;stroke-miterlimit:2"
   id="svg20568"
   sodipodi:docname="emojis.svg"
   xmlns:inkscape="http://www.inkscape.org/namespaces/inkscape"
   xmlns:sodipodi="http://sodipodi.sourceforge.net/DTD/sodipodi-0.dtd"
   xmlns="http://www.w3.org/2000/svg"
   xmlns:svg="http://www.w3.org/2000/svg"><defs
     id="defs20572" /><sodipodi:namedview
     id="namedview20570"
     pagecolor="#505050"
     bordercolor="#eeeeee"
     borderopacity="1"
     inkscape:pageshadow="0"
     inkscape:pageopacity="0"
     inkscape:pagecheckerboard="0" /><g
     transform="matrix(0.24,0,0,0.24,-13.213584,-908.2944)"
     id="g20566"><g
       transform="matrix(62.5,0,0,62.5,47.2441,3839.06)"
       id="g17850"><path
         d="m 1.199,-0.659 c 0.016,0.026 0.029,0.053 0.037,0.082 0.008,0.028 0.012,0.058 0.012,0.088 0,0.043 -0.008,0.083 -0.024,0.122 -0.016,0.039 -0.039,0.073 -0.069,0.103 L 0.687,0.205 0.539,0.057 0.239,0.131 0.314,-0.168 C 0.289,-0.192 0.265,-0.215 0.243,-0.238 0.22,-0.26 0.2,-0.283 0.182,-0.308 0.165,-0.333 0.151,-0.36 0.141,-0.389 0.13,-0.418 0.125,-0.451 0.125,-0.489 c 0,-0.029 0.004,-0.057 0.011,-0.084 0.008,-0.028 0.018,-0.053 0.032,-0.077 0.014,-0.023 0.031,-0.045 0.05,-0.064 0.019,-0.019 0.041,-0.036 0.064,-0.05 0.024,-0.014 0.049,-0.024 0.077,-0.032 0.027,-0.007 0.055,-0.011 0.084,-0.011 0.026,0 0.049,0.002 0.071,0.007 0.022,0.005 0.043,0.012 0.063,0.022 0.02,0.01 0.038,0.021 0.057,0.035 0.018,0.014 0.035,0.03 0.053,0.047 0.017,-0.017 0.034,-0.033 0.053,-0.047 0.018,-0.014 0.036,-0.025 0.056,-0.035 0.02,-0.01 0.041,-0.017 0.063,-0.022 0.022,-0.005 0.045,-0.007 0.071,-0.007 0.012,0 0.024,0.001 0.036,0.002 0.011,0.001 0.023,0.003 0.034,0.006 l 0.073,-0.073 0.047,0.048 c 0.02,0.003 0.037,0.011 0.05,0.025 0.013,0.013 0.021,0.03 0.024,0.049 l 0.048,0.048 z"
         style="fill-rule:nonzero"
         id="path17840" /><path
         d="m 0.93,-0.737 c 0.034,0 0.066,0.007 0.096,0.02 0.03,0.013 0.057,0.03 0.079,0.053 0.022,0.022 0.04,0.049 0.053,0.079 0.013,0.03 0.02,0.062 0.02,0.096 0,0.033 -0.007,0.065 -0.019,0.095 -0.013,0.03 -0.031,0.057 -0.054,0.081 L 0.687,0.105 0.488,-0.093 C 0.486,-0.095 0.483,-0.097 0.48,-0.098 0.477,-0.1 0.475,-0.101 0.472,-0.104 0.47,-0.105 0.468,-0.108 0.468,-0.111 0.467,-0.113 0.465,-0.116 0.463,-0.118 L 0.268,-0.313 C 0.245,-0.337 0.227,-0.364 0.214,-0.394 0.202,-0.424 0.195,-0.455 0.195,-0.489 c 0,-0.034 0.007,-0.066 0.02,-0.096 0.013,-0.03 0.031,-0.057 0.053,-0.079 0.023,-0.023 0.049,-0.04 0.079,-0.053 0.03,-0.013 0.062,-0.02 0.096,-0.02 0.027,0 0.051,0.004 0.072,0.01 0.021,0.007 0.04,0.016 0.058,0.027 0.018,0.012 0.035,0.025 0.051,0.04 0.015,0.015 0.032,0.031 0.048,0.049 l 0.015,0.014 0.015,-0.016 C 0.719,-0.63 0.735,-0.646 0.751,-0.661 0.767,-0.676 0.783,-0.689 0.801,-0.7 0.818,-0.712 0.838,-0.721 0.858,-0.727 0.879,-0.734 0.903,-0.737 0.93,-0.737 Z"
         style="fill:#e81224;fill-rule:nonzero"
         id="path17842" /><path
         d="m 0.595,-0.176 c -0.015,0 -0.028,-0.005 -0.038,-0.015 L 0.382,-0.367 C 0.367,-0.381 0.356,-0.398 0.348,-0.418 0.34,-0.437 0.335,-0.457 0.335,-0.478 v -0.066 c 0,-0.007 0.002,-0.014 0.005,-0.02 0.002,-0.007 0.006,-0.013 0.011,-0.017 0.005,-0.005 0.01,-0.009 0.016,-0.012 0.007,-0.002 0.014,-0.004 0.021,-0.004 0.007,0 0.014,0.002 0.02,0.004 0.007,0.003 0.012,0.007 0.017,0.012 0.005,0.005 0.009,0.01 0.012,0.017 0.003,0.006 0.004,0.013 0.004,0.02 v 0.066 c 0,0.007 0.001,0.013 0.004,0.02 0.002,0.007 0.006,0.012 0.011,0.017 l 0.176,0.175 c 0.005,0.005 0.008,0.011 0.011,0.018 0.003,0.006 0.004,0.013 0.004,0.02 0,0.007 -0.001,0.014 -0.004,0.021 -0.003,0.006 -0.007,0.012 -0.011,0.016 -0.005,0.005 -0.01,0.008 -0.017,0.011 -0.006,0.003 -0.013,0.004 -0.02,0.004 z"
         style="fill:#ef6950;fill-rule:nonzero"
         id="path17844" /><path
         d="m 1.073,-0.772 0.07,0.07 -0.105,0.105 H 0.967 v -0.07 z M 0.436,-0.041 0.476,0 0.335,0.035 l 0.036,-0.14 0.04,0.04 0.017,-0.018 0.016,0.008 0.009,0.017 z"
         style="fill:#31d2f7;fill-rule:nonzero"
         id="path17846" /><path
         d="M 0.704,-0.316 C 0.7,-0.316 0.695,-0.318 0.692,-0.321 0.688,-0.325 0.686,-0.329 0.686,-0.333 c 0,-0.005 0.002,-0.009 0.005,-0.013 L 1.095,-0.75 c 0.003,-0.003 0.008,-0.004 0.012,-0.004 0.005,0 0.009,0.001 0.013,0.005 0.003,0.003 0.005,0.007 0.005,0.012 0,0.005 -0.002,0.009 -0.005,0.012 l -0.404,0.404 c -0.003,0.003 -0.007,0.005 -0.012,0.005 z m -0.251,0.258 -0.025,-0.025 0.035,-0.035 0.025,0.025 z"
         style="fill:#00bcf2;fill-rule:nonzero"
         id="path17848" /></g></g></svg>
