<?xml version="1.0" encoding="UTF-8" standalone="no"?>
<svg
   width="16.844999"
   height="9.4799995"
   viewBox="0 0 16.844999 9.4799995"
   version="1.1"
   xml:space="preserve"
   style="clip-rule:evenodd;fill-rule:evenodd;stroke-linejoin:round;stroke-miterlimit:2"
   id="svg20568"
   sodipodi:docname="emojis.svg"
   xmlns:inkscape="http://www.inkscape.org/namespaces/inkscape"
   xmlns:sodipodi="http://sodipodi.sourceforge.net/DTD/sodipodi-0.dtd"
   xmlns="http://www.w3.org/2000/svg"
   xmlns:svg="http://www.w3.org/2000/svg"><defs
     id="defs20572" /><sodipodi:namedview
     id="namedview20570"
     pagecolor="#505050"
     bordercolor="#eeeeee"
     borderopacity="1"
     inkscape:pageshadow="0"
     inkscape:pageopacity="0"
     inkscape:pagecheckerboard="0" /><g
     transform="matrix(0.24,0,0,0.24,-373.4982,-855.4344)"
     id="g20566"><g
       transform="matrix(62.5,0,0,62.5,1548.43,3603.81)"
       id="g17810"><path
         d="m 1.248,-0.316 c 0,0.027 -0.005,0.052 -0.015,0.075 -0.01,0.022 -0.024,0.044 -0.041,0.063 -0.017,0.02 -0.037,0.037 -0.059,0.053 C 1.11,-0.109 1.087,-0.095 1.062,-0.082 1.038,-0.07 1.014,-0.059 0.989,-0.05 0.964,-0.041 0.941,-0.034 0.918,-0.028 0.88,-0.019 0.842,-0.012 0.803,-0.007 0.765,-0.002 0.726,0 0.687,0 0.647,0 0.608,-0.002 0.57,-0.007 0.531,-0.012 0.493,-0.019 0.455,-0.028 0.432,-0.034 0.409,-0.041 0.384,-0.05 0.36,-0.059 0.335,-0.07 0.311,-0.082 0.286,-0.095 0.263,-0.109 0.24,-0.125 0.218,-0.141 0.198,-0.158 0.181,-0.178 0.164,-0.197 0.15,-0.219 0.14,-0.241 0.13,-0.264 0.125,-0.289 0.125,-0.316 0.125,-0.343 0.13,-0.367 0.14,-0.39 0.15,-0.413 0.164,-0.435 0.181,-0.454 0.198,-0.474 0.218,-0.491 0.24,-0.507 0.263,-0.523 0.286,-0.537 0.311,-0.55 0.335,-0.562 0.36,-0.573 0.384,-0.582 0.409,-0.591 0.432,-0.598 0.455,-0.604 0.493,-0.613 0.531,-0.62 0.57,-0.625 c 0.038,-0.004 0.077,-0.007 0.117,-0.007 0.039,0 0.078,0.003 0.116,0.007 0.039,0.005 0.077,0.012 0.115,0.021 0.023,0.006 0.046,0.013 0.071,0.022 0.025,0.009 0.049,0.02 0.073,0.032 0.025,0.013 0.048,0.027 0.071,0.043 0.022,0.016 0.042,0.033 0.059,0.053 0.017,0.019 0.031,0.041 0.041,0.064 0.01,0.023 0.015,0.047 0.015,0.074 z m -0.07,0 C 1.178,-0.338 1.173,-0.358 1.163,-0.377 1.153,-0.396 1.14,-0.413 1.124,-0.428 1.107,-0.444 1.089,-0.458 1.068,-0.47 1.047,-0.483 1.025,-0.493 1.003,-0.503 0.981,-0.512 0.959,-0.52 0.937,-0.527 0.915,-0.533 0.896,-0.538 0.878,-0.542 0.846,-0.549 0.815,-0.553 0.783,-0.557 0.751,-0.56 0.719,-0.562 0.687,-0.562 0.654,-0.562 0.622,-0.56 0.59,-0.557 0.558,-0.553 0.527,-0.549 0.495,-0.542 0.477,-0.538 0.457,-0.533 0.436,-0.527 0.414,-0.52 0.392,-0.512 0.37,-0.503 0.348,-0.493 0.326,-0.483 0.305,-0.47 0.284,-0.458 0.266,-0.444 0.25,-0.428 0.233,-0.413 0.22,-0.396 0.21,-0.377 0.2,-0.358 0.195,-0.338 0.195,-0.316 c 0,0.022 0.005,0.043 0.015,0.061 0.01,0.019 0.023,0.036 0.039,0.052 0.016,0.016 0.035,0.029 0.056,0.042 0.021,0.012 0.043,0.023 0.065,0.033 0.022,0.009 0.044,0.017 0.066,0.024 0.021,0.006 0.041,0.011 0.059,0.015 0.063,0.012 0.127,0.019 0.192,0.019 0.064,0 0.128,-0.007 0.191,-0.019 0.018,-0.004 0.038,-0.009 0.059,-0.015 0.022,-0.007 0.044,-0.015 0.066,-0.024 0.022,-0.01 0.044,-0.021 0.065,-0.033 0.021,-0.013 0.04,-0.026 0.056,-0.042 0.016,-0.016 0.029,-0.033 0.039,-0.052 0.01,-0.018 0.015,-0.039 0.015,-0.061 z"
         style="fill-rule:nonzero"
         id="path17798" /><path
         d="M 0.276,-0.202 C 0.278,-0.215 0.285,-0.227 0.296,-0.239 0.308,-0.25 0.322,-0.261 0.338,-0.27 0.355,-0.279 0.373,-0.288 0.393,-0.295 0.412,-0.303 0.432,-0.309 0.452,-0.315 0.471,-0.321 0.49,-0.326 0.507,-0.329 0.524,-0.333 0.539,-0.336 0.55,-0.338 0.573,-0.342 0.595,-0.345 0.618,-0.347 0.641,-0.349 0.663,-0.35 0.687,-0.35 c 0.023,0 0.046,0.001 0.069,0.003 0.023,0.003 0.045,0.006 0.068,0.01 0.011,0.002 0.024,0.005 0.041,0.009 0.018,0.004 0.036,0.009 0.056,0.015 0.02,0.005 0.04,0.012 0.06,0.02 0.021,0.007 0.039,0.016 0.056,0.025 0.017,0.01 0.03,0.02 0.041,0.031 0.011,0.011 0.017,0.023 0.019,0.035 C 1.071,-0.18 1.041,-0.162 1.008,-0.148 0.974,-0.133 0.939,-0.122 0.902,-0.113 0.865,-0.104 0.829,-0.097 0.791,-0.094 0.754,-0.09 0.719,-0.088 0.687,-0.088 0.654,-0.088 0.619,-0.09 0.582,-0.094 0.544,-0.097 0.508,-0.104 0.471,-0.113 0.434,-0.122 0.399,-0.133 0.365,-0.148 0.331,-0.162 0.302,-0.18 0.276,-0.202 Z"
         style="fill-rule:nonzero"
         id="path17800" /><path
         d="m 0.687,-0.424 c 0.021,0 0.044,0.001 0.067,0.004 0.023,0.002 0.047,0.006 0.07,0.011 0.023,0.004 0.046,0.01 0.069,0.017 0.022,0.006 0.044,0.014 0.064,0.021 0.007,0.003 0.016,0.007 0.028,0.012 0.011,0.005 0.023,0.01 0.036,0.016 0.014,0.007 0.027,0.014 0.04,0.021 0.013,0.008 0.025,0.016 0.036,0.024 0.01,0.009 0.019,0.017 0.026,0.026 0.006,0.009 0.01,0.018 0.01,0.026 0,0.004 -0.001,0.008 -0.004,0.012 -0.003,0.004 -0.006,0.008 -0.009,0.012 -0.004,0.004 -0.008,0.007 -0.012,0.011 -0.004,0.003 -0.007,0.006 -0.01,0.008 L 1.097,-0.202 C 1.071,-0.223 1.041,-0.241 1.007,-0.256 0.973,-0.271 0.938,-0.282 0.902,-0.291 0.865,-0.3 0.829,-0.306 0.792,-0.31 0.754,-0.314 0.719,-0.316 0.687,-0.316 0.654,-0.316 0.619,-0.314 0.582,-0.31 0.544,-0.306 0.508,-0.3 0.471,-0.291 0.434,-0.282 0.399,-0.271 0.365,-0.256 0.331,-0.241 0.302,-0.223 0.276,-0.202 0.264,-0.212 0.252,-0.224 0.242,-0.237 0.241,-0.238 0.241,-0.24 0.241,-0.244 c 0,-0.014 0.006,-0.028 0.017,-0.04 C 0.269,-0.297 0.283,-0.309 0.301,-0.321 0.318,-0.332 0.337,-0.342 0.359,-0.352 0.381,-0.361 0.402,-0.369 0.424,-0.377 0.445,-0.384 0.465,-0.39 0.483,-0.395 0.502,-0.4 0.517,-0.404 0.528,-0.407 0.554,-0.412 0.581,-0.417 0.607,-0.42 0.633,-0.423 0.66,-0.424 0.687,-0.424 Z"
         style="fill:#1f1f1f;fill-rule:nonzero"
         id="path17802" /><path
         d="m 0.687,-0.495 c 0.049,0 0.098,0.005 0.148,0.015 0.049,0.01 0.097,0.024 0.143,0.043 0.009,0.005 0.02,0.01 0.033,0.016 0.012,0.006 0.025,0.013 0.038,0.02 0.012,0.008 0.025,0.016 0.037,0.026 0.013,0.009 0.024,0.018 0.034,0.029 0.009,0.01 0.017,0.021 0.023,0.033 0.006,0.011 0.009,0.023 0.009,0.035 0,0.003 -10e-4,0.007 -0.002,0.011 C 1.148,-0.264 1.146,-0.26 1.145,-0.256 1.143,-0.252 1.14,-0.249 1.138,-0.245 1.135,-0.242 1.133,-0.239 1.131,-0.237 1.117,-0.256 1.099,-0.273 1.077,-0.288 1.056,-0.303 1.033,-0.316 1.007,-0.327 0.982,-0.338 0.955,-0.347 0.927,-0.354 0.899,-0.362 0.871,-0.368 0.843,-0.373 0.815,-0.378 0.787,-0.381 0.761,-0.383 0.734,-0.385 0.709,-0.386 0.687,-0.386 c -0.023,0 -0.048,0.001 -0.075,0.003 -0.026,0.002 -0.054,0.005 -0.082,0.01 -0.028,0.005 -0.056,0.011 -0.084,0.019 -0.028,0.007 -0.055,0.016 -0.08,0.027 -0.026,0.011 -0.049,0.024 -0.07,0.039 -0.022,0.015 -0.04,0.032 -0.054,0.051 C 0.24,-0.239 0.238,-0.243 0.235,-0.246 0.233,-0.25 0.23,-0.253 0.228,-0.257 0.226,-0.261 0.224,-0.265 0.223,-0.269 0.222,-0.273 0.221,-0.277 0.221,-0.28 c 0,-0.018 0.005,-0.034 0.016,-0.05 0.011,-0.016 0.024,-0.03 0.041,-0.044 0.017,-0.013 0.036,-0.025 0.058,-0.036 0.021,-0.011 0.043,-0.021 0.065,-0.03 0.021,-0.008 0.042,-0.016 0.062,-0.021 0.02,-0.006 0.037,-0.011 0.051,-0.014 0.057,-0.013 0.115,-0.02 0.173,-0.02 z"
         style="fill:#383838;fill-rule:nonzero"
         id="path17804" /><path
         d="m 0.687,-0.457 c -0.03,0 -0.06,0.002 -0.09,0.005 C 0.568,-0.45 0.538,-0.445 0.509,-0.44 0.493,-0.437 0.475,-0.433 0.457,-0.428 0.438,-0.423 0.42,-0.417 0.401,-0.41 0.382,-0.403 0.363,-0.395 0.344,-0.386 0.326,-0.377 0.309,-0.366 0.293,-0.355 0.277,-0.344 0.263,-0.331 0.25,-0.317 0.238,-0.303 0.229,-0.288 0.222,-0.272 0.216,-0.286 0.213,-0.3 0.213,-0.316 c 0,-0.02 0.005,-0.039 0.014,-0.056 0.009,-0.017 0.022,-0.033 0.037,-0.047 0.016,-0.015 0.033,-0.028 0.053,-0.039 0.02,-0.011 0.04,-0.021 0.061,-0.03 0.021,-0.009 0.042,-0.016 0.062,-0.022 0.02,-0.006 0.038,-0.011 0.055,-0.014 0.031,-0.007 0.063,-0.012 0.095,-0.015 0.032,-0.003 0.064,-0.005 0.097,-0.005 0.032,0 0.064,0.002 0.096,0.005 0.032,0.003 0.064,0.008 0.095,0.015 0.017,0.003 0.035,0.008 0.055,0.014 0.02,0.006 0.041,0.013 0.062,0.022 0.021,0.009 0.041,0.019 0.061,0.03 0.02,0.011 0.037,0.024 0.053,0.039 0.015,0.014 0.028,0.03 0.037,0.047 0.009,0.017 0.014,0.036 0.014,0.056 0,0.016 -0.003,0.03 -0.009,0.044 C 1.145,-0.288 1.135,-0.303 1.123,-0.317 1.11,-0.331 1.096,-0.344 1.08,-0.355 1.064,-0.366 1.047,-0.377 1.029,-0.386 1.01,-0.395 0.992,-0.403 0.973,-0.41 0.954,-0.417 0.935,-0.423 0.917,-0.428 0.898,-0.433 0.881,-0.437 0.864,-0.44 0.835,-0.445 0.805,-0.45 0.776,-0.452 0.746,-0.455 0.716,-0.457 0.687,-0.457 Z"
         style="fill:#757575;fill-rule:nonzero"
         id="path17806" /><path
         d="M 0.687,-0.07 C 0.664,-0.07 0.639,-0.071 0.612,-0.073 0.585,-0.075 0.558,-0.079 0.53,-0.083 0.501,-0.088 0.473,-0.094 0.445,-0.101 0.417,-0.109 0.389,-0.118 0.364,-0.129 0.338,-0.14 0.314,-0.152 0.292,-0.167 0.271,-0.181 0.252,-0.197 0.237,-0.216 0.224,-0.231 0.214,-0.247 0.207,-0.262 0.199,-0.277 0.195,-0.295 0.195,-0.316 c 0,-0.02 0.004,-0.038 0.012,-0.054 0.007,-0.016 0.017,-0.031 0.03,-0.047 0.015,-0.018 0.033,-0.034 0.055,-0.049 0.022,-0.014 0.046,-0.027 0.072,-0.037 0.025,-0.011 0.053,-0.02 0.081,-0.028 0.028,-0.007 0.056,-0.013 0.085,-0.018 0.028,-0.004 0.056,-0.008 0.083,-0.01 0.026,-0.002 0.051,-0.003 0.074,-0.003 0.022,0 0.047,0.001 0.073,0.003 0.027,0.002 0.055,0.006 0.083,0.01 0.029,0.005 0.057,0.011 0.085,0.018 0.029,0.008 0.056,0.017 0.082,0.028 0.025,0.01 0.049,0.023 0.071,0.037 0.021,0.015 0.04,0.031 0.055,0.049 0.013,0.016 0.023,0.031 0.03,0.047 0.008,0.016 0.012,0.034 0.012,0.054 0,0.02 -0.004,0.038 -0.012,0.054 -0.007,0.016 -0.017,0.031 -0.03,0.046 C 1.121,-0.197 1.102,-0.181 1.081,-0.167 1.059,-0.152 1.035,-0.14 1.009,-0.129 0.984,-0.118 0.957,-0.109 0.928,-0.102 0.9,-0.094 0.872,-0.088 0.844,-0.083 0.815,-0.079 0.788,-0.076 0.761,-0.073 0.734,-0.071 0.709,-0.07 0.687,-0.07 Z m 0,-0.456 c -0.022,0 -0.045,0.001 -0.07,0.003 -0.025,0.002 -0.051,0.005 -0.077,0.009 -0.027,0.004 -0.053,0.01 -0.08,0.016 -0.027,0.007 -0.052,0.015 -0.077,0.025 -0.024,0.01 -0.047,0.022 -0.067,0.035 -0.021,0.013 -0.038,0.028 -0.053,0.045 -0.009,0.011 -0.017,0.023 -0.023,0.036 -0.006,0.012 -0.01,0.026 -0.01,0.041 0,0.015 0.004,0.029 0.01,0.042 0.006,0.012 0.014,0.024 0.023,0.035 0.015,0.017 0.032,0.033 0.053,0.046 0.02,0.013 0.043,0.025 0.067,0.035 0.024,0.009 0.05,0.018 0.076,0.024 0.027,0.007 0.054,0.013 0.08,0.017 0.027,0.004 0.053,0.007 0.078,0.009 0.025,0.002 0.048,0.003 0.07,0.003 0.021,0 0.044,-0.001 0.069,-0.003 0.025,-0.002 0.051,-0.005 0.077,-0.01 0.027,-0.004 0.054,-0.009 0.081,-0.016 0.026,-0.007 0.052,-0.015 0.076,-0.025 0.024,-0.01 0.047,-0.022 0.067,-0.035 0.021,-0.013 0.039,-0.028 0.053,-0.045 0.009,-0.011 0.017,-0.023 0.023,-0.035 0.006,-0.013 0.01,-0.027 0.01,-0.042 0,-0.015 -0.004,-0.029 -0.01,-0.041 C 1.127,-0.37 1.119,-0.382 1.11,-0.393 1.096,-0.41 1.078,-0.425 1.057,-0.438 1.037,-0.451 1.014,-0.462 0.99,-0.472 0.966,-0.482 0.94,-0.491 0.914,-0.498 0.887,-0.504 0.86,-0.51 0.833,-0.514 0.807,-0.518 0.781,-0.521 0.756,-0.523 0.731,-0.525 0.708,-0.526 0.687,-0.526 Z"
         style="fill:#e5e5e5;fill-rule:nonzero"
         id="path17808" /></g></g></svg>
