<?xml version="1.0" encoding="UTF-8" standalone="no"?>
<svg
   width="16.844999"
   height="15.165"
   viewBox="0 0 16.844999 15.165"
   version="1.1"
   xml:space="preserve"
   style="clip-rule:evenodd;fill-rule:evenodd;stroke-linejoin:round;stroke-miterlimit:2"
   id="svg20568"
   sodipodi:docname="emojis.svg"
   xmlns:inkscape="http://www.inkscape.org/namespaces/inkscape"
   xmlns:sodipodi="http://sodipodi.sourceforge.net/DTD/sodipodi-0.dtd"
   xmlns="http://www.w3.org/2000/svg"
   xmlns:svg="http://www.w3.org/2000/svg"><defs
     id="defs20572" /><sodipodi:namedview
     id="namedview20570"
     pagecolor="#505050"
     bordercolor="#eeeeee"
     borderopacity="1"
     inkscape:pageshadow="0"
     inkscape:pageopacity="0"
     inkscape:pagecheckerboard="0" /><g
     transform="matrix(0.24,0,0,0.24,-75.0006,-908.7444)"
     id="g20566"><g
       transform="matrix(62.5,0,0,62.5,304.69,3839.06)"
       id="g17880"><path
         d="m 0.93,-0.842 c 0.029,0 0.057,0.004 0.084,0.011 0.027,0.008 0.052,0.019 0.076,0.032 0.024,0.014 0.045,0.031 0.065,0.05 0.019,0.02 0.036,0.041 0.049,0.065 0.014,0.023 0.025,0.049 0.033,0.076 0.007,0.027 0.011,0.055 0.011,0.084 0,0.021 -0.002,0.042 -0.006,0.062 -0.005,0.021 -0.011,0.041 -0.019,0.06 -0.008,0.019 -0.017,0.038 -0.029,0.055 -0.011,0.017 -0.025,0.034 -0.039,0.048 L 0.687,0.169 0.218,-0.299 C 0.204,-0.313 0.191,-0.33 0.179,-0.347 0.167,-0.364 0.158,-0.383 0.15,-0.402 0.142,-0.421 0.136,-0.441 0.131,-0.462 0.127,-0.482 0.125,-0.503 0.125,-0.524 c 0,-0.029 0.004,-0.057 0.011,-0.085 0.008,-0.027 0.019,-0.052 0.032,-0.076 0.014,-0.023 0.031,-0.044 0.05,-0.064 0.02,-0.02 0.041,-0.036 0.065,-0.05 0.023,-0.014 0.048,-0.024 0.076,-0.032 0.027,-0.007 0.055,-0.011 0.084,-0.011 0.05,0 0.094,0.009 0.134,0.029 0.039,0.02 0.076,0.047 0.11,0.082 0.033,-0.035 0.07,-0.062 0.109,-0.082 0.04,-0.02 0.084,-0.029 0.134,-0.029 z"
         style="fill-rule:nonzero"
         id="path17872" /><path
         d="m 0.93,-0.772 c 0.034,0 0.066,0.007 0.096,0.02 0.03,0.013 0.057,0.03 0.079,0.053 0.022,0.022 0.04,0.049 0.053,0.079 0.013,0.03 0.02,0.062 0.02,0.096 0,0.033 -0.007,0.065 -0.019,0.095 -0.013,0.03 -0.031,0.057 -0.054,0.08 L 0.687,0.07 0.268,-0.349 C 0.245,-0.372 0.227,-0.399 0.214,-0.429 0.202,-0.459 0.195,-0.491 0.195,-0.524 c 0,-0.034 0.007,-0.066 0.02,-0.096 0.013,-0.03 0.031,-0.057 0.053,-0.079 0.023,-0.023 0.049,-0.04 0.079,-0.053 0.03,-0.013 0.062,-0.02 0.096,-0.02 0.027,0 0.051,0.003 0.072,0.01 0.021,0.007 0.04,0.016 0.058,0.027 0.018,0.012 0.035,0.025 0.051,0.04 0.015,0.015 0.032,0.031 0.048,0.049 l 0.015,0.014 0.015,-0.016 c 0.017,-0.017 0.033,-0.033 0.049,-0.048 0.016,-0.015 0.032,-0.028 0.05,-0.04 0.017,-0.011 0.037,-0.02 0.057,-0.026 0.021,-0.007 0.045,-0.01 0.072,-0.01 z"
         style="fill:#e6808a;fill-rule:nonzero"
         id="path17874" /><path
         d="m 0.864,-0.632 c 0.024,0 0.046,0.005 0.067,0.014 0.021,0.009 0.04,0.021 0.055,0.037 0.016,0.016 0.028,0.034 0.037,0.056 0.01,0.021 0.014,0.043 0.014,0.067 0,0.023 -0.004,0.045 -0.013,0.066 -0.008,0.021 -0.021,0.04 -0.037,0.057 l -0.3,0.3 -0.301,-0.3 C 0.37,-0.352 0.357,-0.371 0.348,-0.392 0.34,-0.412 0.335,-0.435 0.335,-0.458 c 0,-0.024 0.005,-0.046 0.014,-0.067 0.009,-0.022 0.022,-0.04 0.037,-0.056 0.016,-0.016 0.035,-0.028 0.056,-0.037 0.021,-0.009 0.043,-0.014 0.067,-0.014 0.019,0 0.037,0.003 0.052,0.008 0.015,0.005 0.029,0.012 0.042,0.02 0.013,0.008 0.025,0.018 0.036,0.03 0.012,0.011 0.024,0.023 0.035,0.035 L 0.687,-0.526 0.7,-0.541 c 0.011,-0.012 0.023,-0.024 0.034,-0.035 0.012,-0.011 0.024,-0.02 0.037,-0.029 0.012,-0.008 0.026,-0.015 0.041,-0.02 0.015,-0.004 0.033,-0.007 0.052,-0.007 z"
         style="fill:#e84757;fill-rule:nonzero"
         id="path17876" /><path
         d="m 0.798,-0.491 c 0.014,0 0.026,0.002 0.038,0.008 0.012,0.005 0.023,0.012 0.032,0.021 0.009,0.009 0.016,0.019 0.021,0.031 0.005,0.012 0.008,0.025 0.008,0.039 0,0.013 -0.002,0.026 -0.007,0.038 -0.005,0.012 -0.012,0.023 -0.022,0.032 L 0.687,-0.141 0.505,-0.322 C 0.495,-0.331 0.488,-0.342 0.483,-0.354 0.479,-0.366 0.476,-0.379 0.476,-0.392 c 0,-0.014 0.003,-0.027 0.008,-0.039 0.005,-0.012 0.012,-0.022 0.021,-0.031 0.009,-0.009 0.02,-0.016 0.032,-0.021 0.012,-0.006 0.025,-0.008 0.038,-0.008 0.013,0 0.025,0.002 0.035,0.006 0.01,0.004 0.019,0.01 0.028,0.016 0.008,0.007 0.016,0.015 0.024,0.023 0.008,0.008 0.016,0.016 0.025,0.025 0.008,-0.009 0.016,-0.017 0.023,-0.025 0.008,-0.009 0.016,-0.016 0.025,-0.023 0.009,-0.006 0.018,-0.012 0.028,-0.016 0.011,-0.004 0.022,-0.006 0.035,-0.006 z"
         style="fill:#e81224;fill-rule:nonzero"
         id="path17878" /></g></g></svg>
