<?xml version="1.0" encoding="UTF-8" standalone="no"?>
<svg
   width="16.844999"
   height="15.165"
   viewBox="0 0 16.844999 15.165"
   version="1.1"
   xml:space="preserve"
   style="clip-rule:evenodd;fill-rule:evenodd;stroke-linejoin:round;stroke-miterlimit:2"
   id="svg20568"
   sodipodi:docname="emojis.svg"
   xmlns:inkscape="http://www.inkscape.org/namespaces/inkscape"
   xmlns:sodipodi="http://sodipodi.sourceforge.net/DTD/sodipodi-0.dtd"
   xmlns="http://www.w3.org/2000/svg"
   xmlns:svg="http://www.w3.org/2000/svg"><defs
     id="defs20572" /><sodipodi:namedview
     id="namedview20570"
     pagecolor="#505050"
     bordercolor="#eeeeee"
     borderopacity="1"
     inkscape:pageshadow="0"
     inkscape:pageopacity="0"
     inkscape:pagecheckerboard="0" /><g
     transform="matrix(0.24,0,0,0.24,-33.8094,-908.7444)"
     id="g20566"><g
       transform="matrix(62.5,0,0,62.5,133.06,3839.06)"
       id="g17860"><path
         d="M 0.369,-0.148 0.265,-0.097 V -0.254 C 0.257,-0.252 0.248,-0.25 0.239,-0.248 0.23,-0.246 0.222,-0.246 0.213,-0.246 0.201,-0.246 0.189,-0.248 0.178,-0.252 0.168,-0.257 0.159,-0.263 0.151,-0.271 0.143,-0.279 0.136,-0.288 0.132,-0.299 0.127,-0.31 0.125,-0.321 0.125,-0.333 v -0.191 c 0,-0.029 0.004,-0.057 0.011,-0.085 0.008,-0.027 0.019,-0.052 0.032,-0.076 0.014,-0.023 0.031,-0.044 0.05,-0.064 0.02,-0.02 0.041,-0.036 0.065,-0.05 0.023,-0.014 0.048,-0.024 0.076,-0.032 0.027,-0.007 0.055,-0.011 0.084,-0.011 0.025,0 0.049,0.002 0.071,0.007 0.022,0.005 0.043,0.013 0.063,0.022 0.02,0.01 0.038,0.021 0.057,0.035 0.018,0.014 0.035,0.029 0.053,0.047 0.016,-0.018 0.034,-0.033 0.052,-0.047 0.018,-0.014 0.038,-0.025 0.057,-0.035 0.02,-0.009 0.041,-0.017 0.063,-0.022 0.022,-0.005 0.046,-0.007 0.071,-0.007 0.029,0 0.057,0.004 0.084,0.011 0.027,0.008 0.052,0.019 0.076,0.032 0.024,0.014 0.045,0.031 0.065,0.05 0.019,0.02 0.036,0.041 0.049,0.065 0.014,0.023 0.025,0.049 0.033,0.076 0.007,0.027 0.011,0.055 0.011,0.084 0,0.043 -0.008,0.084 -0.024,0.122 -0.015,0.038 -0.039,0.073 -0.069,0.103 L 0.687,0.169 Z"
         style="fill-rule:nonzero"
         id="path17852" /><path
         d="m 0.443,-0.772 c 0.027,0 0.051,0.003 0.072,0.01 0.021,0.007 0.04,0.016 0.058,0.027 0.018,0.012 0.035,0.025 0.051,0.04 0.015,0.015 0.032,0.031 0.048,0.049 l 0.015,0.014 0.015,-0.016 c 0.017,-0.017 0.033,-0.033 0.049,-0.048 0.016,-0.015 0.032,-0.028 0.05,-0.04 0.017,-0.011 0.037,-0.02 0.057,-0.026 0.021,-0.007 0.045,-0.01 0.072,-0.01 0.034,0 0.066,0.007 0.096,0.02 0.03,0.013 0.057,0.03 0.079,0.053 0.022,0.022 0.04,0.049 0.053,0.079 0.013,0.03 0.02,0.062 0.02,0.096 0,0.033 -0.007,0.065 -0.019,0.095 -0.013,0.03 -0.031,0.057 -0.054,0.08 L 0.687,0.07 0.199,-0.417 0.202,-0.455 C 0.198,-0.462 0.196,-0.468 0.196,-0.474 0.195,-0.481 0.195,-0.487 0.195,-0.494 v -0.03 c 0,-0.034 0.007,-0.066 0.02,-0.096 0.013,-0.03 0.031,-0.057 0.053,-0.079 0.023,-0.023 0.049,-0.04 0.079,-0.053 0.03,-0.013 0.062,-0.02 0.096,-0.02 z"
         style="fill:#e81224;fill-rule:nonzero"
         id="path17854" /><path
         d="m 0.395,-0.457 h 0.773 c -0.005,0.02 -0.013,0.039 -0.023,0.057 -0.01,0.018 -0.023,0.034 -0.038,0.049 h -0.42 v 0.01 c 0,0.006 -0.001,0.012 -0.003,0.017 -0.002,0.005 -0.007,0.008 -0.015,0.008 -0.001,0 -0.001,0 -0.002,0 0,0 0,0 -0.001,0 L 0.546,-0.338 V -0.21 L 0.511,-0.228 0.476,-0.21 v -0.141 c -0.001,0 -0.002,0 -0.003,0 H 0.419 c -0.004,0 -0.009,0 -0.013,0 V -0.21 L 0.371,-0.228 0.335,-0.21 v -0.128 l -0.119,0.022 c -0.001,0 -0.001,0 -0.002,0 0,0 0,0 -0.001,0 -0.005,0 -0.009,-0.002 -0.013,-0.005 -0.003,-0.003 -0.005,-0.008 -0.005,-0.012 0,-0.005 0.002,-0.01 0.004,-0.014 0.002,-0.004 0.006,-0.007 0.01,-0.007 L 0.403,-0.39 0.401,-0.393 C 0.4,-0.398 0.398,-0.404 0.397,-0.409 0.395,-0.415 0.395,-0.42 0.395,-0.426 Z"
         style="fill:#eba300;fill-rule:nonzero"
         id="path17856" /><path
         d="m 0.669,-0.492 c 0.005,0 0.009,0.002 0.012,0.006 0.004,0.003 0.006,0.007 0.006,0.012 v 0.138 C 0.685,-0.343 0.68,-0.348 0.672,-0.351 0.662,-0.354 0.651,-0.356 0.641,-0.357 0.63,-0.359 0.619,-0.36 0.609,-0.362 0.587,-0.367 0.565,-0.371 0.543,-0.375 0.521,-0.379 0.499,-0.383 0.476,-0.386 v -0.071 z m -0.474,0.018 c 0,-0.005 0.002,-0.009 0.006,-0.012 0.003,-0.004 0.007,-0.006 0.012,-0.006 0.001,0 0.001,0 0.001,0.001 0.001,0 0.001,0 0.002,0 l 0.19,0.034 v 0.071 C 0.383,-0.383 0.361,-0.379 0.339,-0.375 0.318,-0.371 0.295,-0.367 0.273,-0.362 0.263,-0.36 0.252,-0.359 0.241,-0.358 0.23,-0.357 0.22,-0.354 0.209,-0.351 0.206,-0.349 0.203,-0.348 0.2,-0.345 0.198,-0.343 0.196,-0.34 0.195,-0.337 Z"
         style="fill:#fce100;fill-rule:nonzero"
         id="path17858" /></g></g></svg>
