<?xml version="1.0" encoding="UTF-8" standalone="no"?>
<svg
   width="16.844999"
   height="16.844999"
   viewBox="0 0 16.844999 16.844999"
   version="1.1"
   xml:space="preserve"
   style="clip-rule:evenodd;fill-rule:evenodd;stroke-linejoin:round;stroke-miterlimit:2"
   id="svg20568"
   sodipodi:docname="emojis.svg"
   xmlns:inkscape="http://www.inkscape.org/namespaces/inkscape"
   xmlns:sodipodi="http://sodipodi.sourceforge.net/DTD/sodipodi-0.dtd"
   xmlns="http://www.w3.org/2000/svg"
   xmlns:svg="http://www.w3.org/2000/svg"><defs
     id="defs20572" /><sodipodi:namedview
     id="namedview20570"
     pagecolor="#505050"
     bordercolor="#eeeeee"
     borderopacity="1"
     inkscape:pageshadow="0"
     inkscape:pageopacity="0"
     inkscape:pagecheckerboard="0" /><g
     transform="matrix(0.24,0,0,0.24,-157.38348,-907.6794)"
     id="g20566"><g
       transform="matrix(62.5,0,0,62.5,647.952,3839.06)"
       id="g17912"><path
         d="m 1.178,-0.169 c 0.01,0.002 0.02,0.007 0.028,0.014 0.009,0.007 0.016,0.015 0.023,0.024 0.006,0.009 0.011,0.019 0.014,0.029 0.003,0.011 0.005,0.021 0.005,0.032 0,0.01 -0.002,0.021 -0.005,0.031 C 1.24,-0.028 1.235,-0.018 1.229,-0.009 1.222,0 1.215,0.008 1.206,0.014 1.198,0.021 1.188,0.026 1.178,0.029 V 0.14 H 1.066 C 1.063,0.151 1.059,0.16 1.052,0.169 1.045,0.177 1.037,0.185 1.028,0.191 1.019,0.197 1.009,0.202 0.999,0.205 0.988,0.209 0.978,0.21 0.967,0.21 0.957,0.21 0.946,0.209 0.936,0.205 0.925,0.202 0.915,0.197 0.906,0.191 0.897,0.185 0.889,0.177 0.883,0.169 0.876,0.16 0.871,0.151 0.868,0.14 H 0.505 C 0.502,0.151 0.497,0.16 0.49,0.169 0.483,0.177 0.476,0.185 0.467,0.191 0.458,0.197 0.448,0.202 0.437,0.205 0.427,0.209 0.416,0.21 0.406,0.21 0.395,0.21 0.385,0.209 0.374,0.205 0.364,0.202 0.354,0.197 0.345,0.191 0.336,0.185 0.328,0.177 0.321,0.169 0.314,0.16 0.31,0.151 0.307,0.14 H 0.195 V 0.029 C 0.185,0.026 0.175,0.021 0.167,0.014 0.158,0.008 0.151,0 0.145,-0.009 0.138,-0.018 0.134,-0.028 0.13,-0.039 0.127,-0.049 0.125,-0.06 0.125,-0.07 c 0,-0.011 0.002,-0.021 0.005,-0.032 0.004,-0.01 0.008,-0.02 0.015,-0.029 0.006,-0.009 0.013,-0.017 0.022,-0.024 0.008,-0.007 0.018,-0.012 0.028,-0.014 V -0.533 C 0.185,-0.536 0.175,-0.54 0.167,-0.547 0.158,-0.554 0.151,-0.562 0.145,-0.571 0.138,-0.58 0.134,-0.59 0.13,-0.6 0.127,-0.611 0.125,-0.621 0.125,-0.632 c 0,-0.01 0.002,-0.021 0.005,-0.031 0.004,-0.011 0.008,-0.021 0.015,-0.03 0.006,-0.009 0.013,-0.016 0.022,-0.023 0.008,-0.007 0.018,-0.012 0.028,-0.015 v -0.111 h 0.112 c 0.003,-0.011 0.007,-0.02 0.014,-0.029 0.007,-0.008 0.015,-0.016 0.024,-0.022 0.009,-0.006 0.019,-0.011 0.029,-0.014 0.011,-0.004 0.021,-0.006 0.032,-0.006 0.01,0 0.021,0.002 0.031,0.006 0.011,0.003 0.021,0.008 0.03,0.014 0.009,0.006 0.016,0.014 0.023,0.022 0.007,0.009 0.012,0.018 0.015,0.029 h 0.363 c 0.003,-0.011 0.008,-0.02 0.015,-0.029 0.006,-0.008 0.014,-0.016 0.023,-0.022 0.009,-0.006 0.019,-0.011 0.03,-0.014 0.01,-0.004 0.021,-0.006 0.031,-0.006 0.011,0 0.021,0.002 0.032,0.006 0.01,0.003 0.02,0.008 0.029,0.014 0.009,0.006 0.017,0.014 0.024,0.022 0.007,0.009 0.011,0.018 0.014,0.029 h 0.112 v 0.111 c 0.01,0.003 0.02,0.008 0.028,0.015 0.009,0.007 0.016,0.014 0.023,0.023 0.006,0.009 0.011,0.019 0.014,0.03 0.003,0.01 0.005,0.021 0.005,0.031 0,0.011 -0.002,0.021 -0.005,0.032 -0.003,0.01 -0.008,0.02 -0.014,0.029 -0.007,0.009 -0.014,0.017 -0.023,0.024 -0.008,0.007 -0.018,0.011 -0.028,0.014 z"
         style="fill-rule:nonzero"
         id="path17906" /><rect
         x="0.26499999"
         y="-0.77200001"
         width="0.84200001"
         height="0.84200001"
         style="fill:#f4abba;fill-rule:nonzero"
         id="rect17908" /><path
         d="m 0.864,-0.632 c 0.024,0 0.046,0.005 0.067,0.014 0.021,0.009 0.04,0.021 0.055,0.037 0.016,0.016 0.028,0.034 0.037,0.056 0.01,0.021 0.014,0.043 0.014,0.067 0,0.023 -0.004,0.045 -0.013,0.066 -0.008,0.021 -0.021,0.04 -0.037,0.057 l -0.3,0.3 -0.301,-0.3 C 0.37,-0.352 0.357,-0.371 0.348,-0.392 0.34,-0.412 0.335,-0.435 0.335,-0.458 c 0,-0.024 0.005,-0.046 0.014,-0.067 0.009,-0.022 0.022,-0.04 0.037,-0.056 0.016,-0.016 0.035,-0.028 0.056,-0.037 0.021,-0.009 0.043,-0.014 0.067,-0.014 0.019,0 0.037,0.003 0.052,0.008 0.015,0.005 0.029,0.012 0.042,0.02 0.013,0.008 0.025,0.018 0.036,0.03 0.012,0.011 0.024,0.023 0.035,0.035 L 0.687,-0.526 0.7,-0.541 c 0.011,-0.012 0.023,-0.024 0.034,-0.035 0.012,-0.011 0.024,-0.02 0.037,-0.029 0.012,-0.008 0.026,-0.015 0.041,-0.02 0.015,-0.004 0.033,-0.007 0.052,-0.007 z M 0.967,0.14 C 0.958,0.14 0.949,0.137 0.942,0.13 0.936,0.123 0.932,0.115 0.932,0.105 V 0.035 C 0.932,0.025 0.936,0.017 0.942,0.01 0.949,0.003 0.958,0 0.967,0 c 0.01,0 0.018,0.003 0.025,0.01 0.007,0.007 0.01,0.015 0.01,0.025 v 0.07 c 0,0.01 -0.003,0.018 -0.01,0.025 C 0.985,0.137 0.977,0.14 0.967,0.14 Z m 0.176,-0.175 h -0.07 c -0.01,0 -0.018,-0.004 -0.025,-0.01 -0.007,-0.007 -0.01,-0.016 -0.01,-0.025 0,-0.01 0.003,-0.018 0.01,-0.025 0.007,-0.007 0.015,-0.01 0.025,-0.01 h 0.07 c 0.009,0 0.018,0.003 0.024,0.01 0.007,0.007 0.011,0.015 0.011,0.025 0,0.009 -0.004,0.018 -0.011,0.025 -0.006,0.006 -0.015,0.01 -0.024,0.01 z M 0.406,0.14 C 0.396,0.14 0.388,0.137 0.381,0.13 0.374,0.123 0.371,0.115 0.371,0.105 V 0.035 C 0.371,0.025 0.374,0.017 0.381,0.01 0.388,0.003 0.396,0 0.406,0 c 0.01,0 0.018,0.003 0.025,0.01 0.006,0.007 0.01,0.015 0.01,0.025 v 0.07 c 0,0.01 -0.004,0.018 -0.01,0.025 C 0.424,0.137 0.416,0.14 0.406,0.14 Z M 0.3,-0.035 H 0.23 c -0.009,0 -0.018,-0.004 -0.024,-0.01 -0.007,-0.007 -0.011,-0.016 -0.011,-0.025 0,-0.01 0.004,-0.018 0.011,-0.025 0.006,-0.007 0.015,-0.01 0.024,-0.01 H 0.3 c 0.01,0 0.018,0.003 0.025,0.01 0.007,0.007 0.01,0.015 0.01,0.025 0,0.009 -0.003,0.018 -0.01,0.025 -0.007,0.006 -0.015,0.01 -0.025,0.01 z m 0.667,-0.807 c 0.01,0 0.018,0.003 0.025,0.01 0.007,0.007 0.01,0.015 0.01,0.025 v 0.07 c 0,0.009 -0.003,0.018 -0.01,0.025 -0.007,0.006 -0.015,0.01 -0.025,0.01 -0.009,0 -0.018,-0.004 -0.025,-0.01 -0.006,-0.007 -0.01,-0.016 -0.01,-0.025 v -0.07 c 0,-0.01 0.004,-0.018 0.01,-0.025 0.007,-0.007 0.016,-0.01 0.025,-0.01 z m 0.176,0.175 c 0.009,0 0.018,0.003 0.024,0.01 0.007,0.007 0.011,0.015 0.011,0.025 0,0.01 -0.004,0.018 -0.011,0.025 -0.006,0.007 -0.015,0.01 -0.024,0.01 h -0.07 c -0.01,0 -0.018,-0.003 -0.025,-0.01 -0.007,-0.007 -0.01,-0.015 -0.01,-0.025 0,-0.01 0.003,-0.018 0.01,-0.025 0.007,-0.007 0.015,-0.01 0.025,-0.01 z M 0.406,-0.842 c 0.01,0 0.018,0.003 0.025,0.01 0.006,0.007 0.01,0.015 0.01,0.025 v 0.07 c 0,0.009 -0.004,0.018 -0.01,0.025 -0.007,0.006 -0.015,0.01 -0.025,0.01 -0.01,0 -0.018,-0.004 -0.025,-0.01 -0.007,-0.007 -0.01,-0.016 -0.01,-0.025 v -0.07 c 0,-0.01 0.003,-0.018 0.01,-0.025 0.007,-0.007 0.015,-0.01 0.025,-0.01 z M 0.3,-0.667 c 0.01,0 0.018,0.003 0.025,0.01 0.007,0.007 0.01,0.015 0.01,0.025 0,0.01 -0.003,0.018 -0.01,0.025 C 0.318,-0.6 0.31,-0.597 0.3,-0.597 H 0.23 c -0.009,0 -0.018,-0.003 -0.024,-0.01 -0.007,-0.007 -0.011,-0.015 -0.011,-0.025 0,-0.01 0.004,-0.018 0.011,-0.025 0.006,-0.007 0.015,-0.01 0.024,-0.01 z"
         style="fill:#e81224;fill-rule:nonzero"
         id="path17910" /></g></g></svg>
