<?xml version="1.0" encoding="UTF-8" standalone="no"?>
<svg
   width="12.63"
   height="15.78"
   viewBox="0 0 12.63 15.78"
   version="1.1"
   xml:space="preserve"
   style="clip-rule:evenodd;fill-rule:evenodd;stroke-linejoin:round;stroke-miterlimit:2"
   id="svg20568"
   sodipodi:docname="emojis.svg"
   xmlns:inkscape="http://www.inkscape.org/namespaces/inkscape"
   xmlns:sodipodi="http://sodipodi.sourceforge.net/DTD/sodipodi-0.dtd"
   xmlns="http://www.w3.org/2000/svg"
   xmlns:svg="http://www.w3.org/2000/svg"><defs
     id="defs20572" /><sodipodi:namedview
     id="namedview20570"
     pagecolor="#505050"
     bordercolor="#eeeeee"
     borderopacity="1"
     inkscape:pageshadow="0"
     inkscape:pageopacity="0"
     inkscape:pagecheckerboard="0" /><g
     transform="matrix(0.24,0,0,0.24,-177.97932,-908.2194)"
     id="g20566"><g
       transform="matrix(62.5,0,0,62.5,733.768,3839.06)"
       id="g17918"><path
         d="m 0.723,-0.877 c 0.034,0 0.065,0.006 0.095,0.019 0.029,0.012 0.055,0.03 0.078,0.052 0.022,0.022 0.039,0.048 0.052,0.077 0.013,0.03 0.019,0.062 0.019,0.095 0,0.032 -0.006,0.064 -0.018,0.094 -0.013,0.03 -0.03,0.056 -0.053,0.079 l -0.294,0.294 c 0.017,0.006 0.034,0.015 0.048,0.026 0.015,0.011 0.028,0.024 0.038,0.038 0.011,0.015 0.019,0.031 0.025,0.049 C 0.719,-0.037 0.722,-0.019 0.722,0 0.722,0.024 0.717,0.047 0.708,0.068 0.698,0.09 0.686,0.108 0.67,0.124 0.654,0.14 0.636,0.153 0.615,0.162 0.593,0.171 0.57,0.175 0.546,0.175 0.521,0.175 0.499,0.171 0.478,0.162 0.456,0.153 0.438,0.14 0.422,0.124 0.406,0.108 0.393,0.09 0.384,0.068 0.375,0.047 0.371,0.024 0.371,0 c 0,-0.019 0.002,-0.037 0.008,-0.055 0.006,-0.017 0.014,-0.033 0.025,-0.048 0.01,-0.015 0.023,-0.027 0.037,-0.038 0.015,-0.011 0.031,-0.02 0.05,-0.026 L 0.196,-0.461 C 0.174,-0.484 0.156,-0.51 0.144,-0.54 0.131,-0.57 0.125,-0.602 0.125,-0.634 c 0,-0.033 0.006,-0.065 0.019,-0.095 0.013,-0.029 0.031,-0.055 0.053,-0.077 0.022,-0.022 0.047,-0.039 0.077,-0.052 0.03,-0.013 0.061,-0.019 0.095,-0.019 0.016,0 0.032,0.001 0.048,0.005 0.017,0.003 0.033,0.008 0.048,0.015 0.016,0.006 0.031,0.014 0.045,0.024 0.013,0.009 0.025,0.02 0.036,0.032 0.024,-0.025 0.051,-0.043 0.081,-0.057 0.03,-0.013 0.062,-0.019 0.096,-0.019 z"
         style="fill-rule:nonzero"
         id="path17914" /><path
         d="m 0.723,-0.807 c 0.024,0 0.047,0.004 0.068,0.014 0.021,0.009 0.04,0.021 0.055,0.037 0.016,0.015 0.028,0.034 0.037,0.055 0.009,0.021 0.014,0.044 0.014,0.068 0,0.023 -0.004,0.045 -0.013,0.066 -0.009,0.021 -0.021,0.04 -0.038,0.056 l -0.3,0.301 -0.3,-0.301 C 0.229,-0.527 0.217,-0.546 0.208,-0.567 0.2,-0.588 0.195,-0.61 0.195,-0.633 0.195,-0.657 0.2,-0.68 0.209,-0.701 0.218,-0.722 0.23,-0.74 0.246,-0.756 0.262,-0.772 0.28,-0.784 0.301,-0.793 c 0.021,-0.01 0.044,-0.014 0.068,-0.014 0.019,0 0.036,0.002 0.051,0.007 0.015,0.005 0.029,0.012 0.042,0.02 0.013,0.009 0.025,0.018 0.036,0.03 0.011,0.011 0.023,0.022 0.035,0.034 l 0.013,0.014 C 0.56,-0.715 0.573,-0.729 0.585,-0.741 0.597,-0.754 0.61,-0.765 0.624,-0.775 0.637,-0.785 0.652,-0.792 0.667,-0.798 0.683,-0.804 0.702,-0.807 0.723,-0.807 Z M 0.651,0 C 0.651,0.015 0.649,0.028 0.643,0.041 0.638,0.054 0.63,0.065 0.62,0.074 0.611,0.084 0.6,0.091 0.587,0.097 0.574,0.102 0.561,0.105 0.546,0.105 0.531,0.105 0.518,0.102 0.505,0.097 0.492,0.091 0.481,0.084 0.472,0.074 0.462,0.065 0.455,0.054 0.449,0.041 0.444,0.028 0.441,0.015 0.441,0 c 0,-0.015 0.003,-0.028 0.008,-0.041 0.006,-0.013 0.013,-0.024 0.023,-0.033 0.009,-0.01 0.02,-0.018 0.033,-0.023 0.013,-0.006 0.026,-0.008 0.041,-0.008 0.015,0 0.028,0.002 0.041,0.008 0.013,0.005 0.024,0.013 0.033,0.023 0.01,0.009 0.018,0.02 0.023,0.033 0.006,0.013 0.008,0.026 0.008,0.041 z"
         style="fill:#e81224;fill-rule:nonzero"
         id="path17916" /></g></g></svg>
