<?xml version="1.0" encoding="UTF-8" standalone="no"?>
<svg
   width="16.844999"
   height="15.165"
   viewBox="0 0 16.844999 15.165"
   version="1.1"
   xml:space="preserve"
   style="clip-rule:evenodd;fill-rule:evenodd;stroke-linejoin:round;stroke-miterlimit:2"
   id="svg20568"
   sodipodi:docname="emojis.svg"
   xmlns:inkscape="http://www.inkscape.org/namespaces/inkscape"
   xmlns:sodipodi="http://sodipodi.sourceforge.net/DTD/sodipodi-0.dtd"
   xmlns="http://www.w3.org/2000/svg"
   xmlns:svg="http://www.w3.org/2000/svg"><defs
     id="defs20572" /><sodipodi:namedview
     id="namedview20570"
     pagecolor="#505050"
     bordercolor="#eeeeee"
     borderopacity="1"
     inkscape:pageshadow="0"
     inkscape:pageopacity="0"
     inkscape:pagecheckerboard="0" /><g
     transform="matrix(0.24,0,0,0.24,-338.5326,-908.7444)"
     id="g20566"><g
       transform="matrix(62.5,0,0,62.5,1402.74,3839.06)"
       id="g17982"><path
         d="m 0.125,-0.524 c 0,-0.029 0.004,-0.057 0.011,-0.085 0.008,-0.027 0.019,-0.052 0.032,-0.076 0.014,-0.023 0.031,-0.044 0.05,-0.064 0.02,-0.02 0.041,-0.036 0.065,-0.05 0.023,-0.014 0.048,-0.024 0.076,-0.032 0.027,-0.007 0.055,-0.011 0.084,-0.011 0.026,0 0.049,0.002 0.071,0.007 0.022,0.005 0.043,0.013 0.063,0.022 0.02,0.009 0.038,0.021 0.057,0.035 0.018,0.014 0.035,0.029 0.053,0.047 0.017,-0.018 0.034,-0.033 0.052,-0.047 0.018,-0.014 0.037,-0.026 0.057,-0.035 0.02,-0.009 0.041,-0.017 0.063,-0.022 0.022,-0.005 0.045,-0.007 0.071,-0.007 0.044,0 0.085,0.008 0.123,0.025 0.039,0.017 0.073,0.039 0.102,0.068 0.028,0.029 0.051,0.063 0.068,0.101 0.017,0.039 0.025,0.08 0.025,0.124 0,0.043 -0.008,0.083 -0.024,0.122 -0.016,0.038 -0.039,0.073 -0.069,0.103 L 0.687,0.169 0.218,-0.299 C 0.188,-0.329 0.165,-0.364 0.149,-0.402 0.133,-0.441 0.125,-0.481 0.125,-0.524 Z"
         style="fill-rule:nonzero"
         id="path17976" /><path
         d="m 0.93,-0.772 c 0.034,0 0.066,0.007 0.096,0.02 0.03,0.013 0.057,0.03 0.079,0.053 0.022,0.022 0.04,0.049 0.053,0.079 0.013,0.03 0.02,0.062 0.02,0.096 0,0.033 -0.007,0.065 -0.019,0.095 -0.013,0.03 -0.031,0.057 -0.054,0.08 L 0.687,0.07 0.268,-0.349 C 0.245,-0.372 0.227,-0.399 0.214,-0.429 0.202,-0.459 0.195,-0.491 0.195,-0.524 c 0,-0.034 0.007,-0.066 0.02,-0.096 0.013,-0.03 0.031,-0.057 0.053,-0.079 0.023,-0.023 0.049,-0.04 0.079,-0.053 0.03,-0.013 0.062,-0.02 0.096,-0.02 0.027,0 0.051,0.003 0.071,0.01 0.021,0.006 0.04,0.015 0.057,0.025 0.017,0.011 0.033,0.024 0.049,0.039 0.016,0.015 0.032,0.031 0.048,0.048 l 0.019,0.018 0.018,-0.018 c 0.016,-0.017 0.032,-0.033 0.048,-0.048 0.015,-0.015 0.032,-0.028 0.049,-0.039 0.017,-0.01 0.036,-0.019 0.057,-0.025 0.02,-0.007 0.044,-0.01 0.071,-0.01 z"
         style="fill:#8e562e;fill-rule:nonzero"
         id="path17978" /><path
         d="M 0.595,-0.21 C 0.58,-0.21 0.568,-0.216 0.557,-0.226 L 0.382,-0.401 C 0.367,-0.416 0.355,-0.433 0.347,-0.453 0.339,-0.472 0.335,-0.492 0.335,-0.513 v -0.066 c 0,-0.007 0.002,-0.014 0.005,-0.021 0.002,-0.006 0.006,-0.012 0.011,-0.016 0.005,-0.005 0.01,-0.009 0.016,-0.012 0.007,-0.002 0.014,-0.004 0.021,-0.004 0.007,0 0.014,0.002 0.02,0.004 0.007,0.003 0.012,0.007 0.017,0.012 0.005,0.005 0.009,0.01 0.012,0.017 0.003,0.006 0.004,0.013 0.004,0.02 v 0.066 c 0,0.007 0.001,0.013 0.004,0.02 0.002,0.006 0.006,0.012 0.011,0.017 L 0.632,-0.3 c 0.005,0.005 0.008,0.01 0.011,0.017 0.003,0.006 0.004,0.013 0.004,0.02 0,0.007 -0.001,0.014 -0.004,0.02 -0.003,0.006 -0.007,0.012 -0.011,0.017 -0.005,0.005 -0.011,0.009 -0.017,0.011 -0.006,0.003 -0.013,0.005 -0.02,0.005 z"
         style="fill:#bb9167;fill-rule:nonzero"
         id="path17980" /></g></g></svg>
