<?xml version="1.0" encoding="UTF-8" standalone="no"?>
<svg
   width="13.695"
   height="16.844999"
   viewBox="0 0 13.695 16.844999"
   version="1.1"
   xml:space="preserve"
   style="clip-rule:evenodd;fill-rule:evenodd;stroke-linejoin:round;stroke-miterlimit:2"
   id="svg20568"
   sodipodi:docname="emojis.svg"
   xmlns:inkscape="http://www.inkscape.org/namespaces/inkscape"
   xmlns:sodipodi="http://sodipodi.sourceforge.net/DTD/sodipodi-0.dtd"
   xmlns="http://www.w3.org/2000/svg"
   xmlns:svg="http://www.w3.org/2000/svg"><defs
     id="defs20572" /><sodipodi:namedview
     id="namedview20570"
     pagecolor="#505050"
     bordercolor="#eeeeee"
     borderopacity="1"
     inkscape:pageshadow="0"
     inkscape:pageopacity="0"
     inkscape:pagecheckerboard="0" /><g
     transform="matrix(0.24,0,0,0.24,-65.01036,-144.6594)"
     id="g20566"><g
       transform="matrix(62.5,0,0,62.5,263.064,659.81)"
       id="g1792"><path
         d="M 0.388,0.21 C 0.357,0.21 0.327,0.204 0.3,0.192 0.272,0.18 0.248,0.164 0.227,0.143 0.207,0.123 0.19,0.098 0.178,0.071 0.166,0.043 0.16,0.014 0.16,-0.018 v -0.43 C 0.149,-0.465 0.14,-0.484 0.134,-0.504 0.128,-0.525 0.125,-0.545 0.125,-0.566 c 0,-0.035 0.006,-0.067 0.017,-0.098 0.011,-0.031 0.026,-0.059 0.045,-0.085 0.019,-0.025 0.042,-0.048 0.068,-0.069 0.026,-0.02 0.054,-0.037 0.084,-0.051 0.029,-0.014 0.061,-0.025 0.093,-0.032 0.033,-0.008 0.065,-0.012 0.097,-0.012 0.057,0 0.111,0.01 0.159,0.03 0.049,0.02 0.095,0.049 0.138,0.087 0.034,0.029 0.063,0.061 0.089,0.095 0.025,0.033 0.045,0.071 0.061,0.114 0.009,0.004 0.018,0.01 0.025,0.016 0.008,0.007 0.014,0.015 0.02,0.023 0.005,0.008 0.009,0.017 0.012,0.027 0.003,0.01 0.005,0.02 0.005,0.03 v 0.14 c 0,0.019 -0.005,0.038 -0.015,0.054 -0.01,0.017 -0.024,0.03 -0.041,0.039 -0.009,0.025 -0.02,0.049 -0.034,0.071 -0.014,0.023 -0.03,0.043 -0.049,0.06 C 0.88,-0.11 0.858,-0.096 0.834,-0.086 0.811,-0.075 0.785,-0.07 0.757,-0.07 H 0.722 c -0.019,0 -0.037,-0.005 -0.053,-0.014 l -0.053,0.045 v 0.021 C 0.616,0.014 0.61,0.043 0.598,0.071 0.586,0.098 0.57,0.123 0.549,0.143 0.528,0.164 0.504,0.18 0.477,0.192 0.449,0.204 0.419,0.21 0.388,0.21 Z"
         style="fill-rule:nonzero"
         id="path1778" /><path
         d="m 0.529,-0.806 c 0.027,0 0.054,0.004 0.082,0.013 0.027,0.009 0.053,0.021 0.077,0.036 0.025,0.016 0.048,0.034 0.069,0.055 0.021,0.021 0.04,0.044 0.056,0.068 0.015,0.025 0.027,0.051 0.036,0.078 0.009,0.027 0.013,0.055 0.013,0.082 v 0.062 c 0,0.027 -0.003,0.054 -0.01,0.08 -0.006,0.026 -0.017,0.049 -0.031,0.07 -0.015,0.02 -0.033,0.037 -0.055,0.05 C 0.744,-0.2 0.717,-0.193 0.687,-0.193 L 0.546,-0.07 v 0.052 C 0.546,0.004 0.542,0.025 0.533,0.044 0.525,0.063 0.514,0.079 0.5,0.094 0.485,0.108 0.469,0.119 0.449,0.128 0.43,0.136 0.41,0.14 0.388,0.14 0.366,0.14 0.346,0.136 0.327,0.128 0.308,0.119 0.291,0.108 0.277,0.094 0.263,0.079 0.251,0.063 0.243,0.044 0.235,0.025 0.23,0.004 0.23,-0.018 v -0.456 c 0,-0.048 0.006,-0.092 0.019,-0.133 0.012,-0.041 0.03,-0.076 0.055,-0.105 0.024,-0.03 0.055,-0.053 0.093,-0.069 0.037,-0.017 0.081,-0.025 0.132,-0.025 z"
         style="fill:#ffc83d;fill-rule:nonzero"
         id="path1780" /><path
         d="m 0.529,-0.702 c 0.031,0 0.061,0.006 0.088,0.018 0.028,0.012 0.052,0.028 0.073,0.049 0.02,0.021 0.037,0.045 0.049,0.073 0.012,0.027 0.018,0.057 0.018,0.088 v 0.053 c 0,0.021 -0.004,0.042 -0.013,0.061 -0.008,0.019 -0.019,0.036 -0.034,0.05 -0.014,0.015 -0.031,0.026 -0.05,0.034 -0.019,0.009 -0.04,0.013 -0.061,0.013 H 0.546 c -0.01,0 -0.019,0.002 -0.027,0.005 -0.009,0.004 -0.016,0.009 -0.023,0.015 -0.006,0.006 -0.011,0.014 -0.015,0.022 -0.003,0.009 -0.005,0.018 -0.005,0.028 v 0.089 c -0.011,-0.011 -0.025,-0.02 -0.04,-0.027 -0.015,-0.006 -0.031,-0.01 -0.048,-0.01 -0.016,0 -0.032,0.004 -0.048,0.01 -0.015,0.007 -0.028,0.016 -0.04,0.027 V -0.21 L 0.366,-0.333 0.3,-0.457 v -0.017 c 0,-0.032 0.006,-0.061 0.018,-0.089 0.012,-0.028 0.029,-0.052 0.049,-0.072 0.021,-0.021 0.045,-0.037 0.073,-0.049 0.028,-0.012 0.058,-0.018 0.089,-0.018 z m 0.122,0.263 c 0.01,0 0.018,-0.003 0.025,-0.01 0.007,-0.007 0.011,-0.015 0.011,-0.025 0,-0.022 -0.005,-0.042 -0.013,-0.061 C 0.666,-0.554 0.654,-0.571 0.64,-0.585 0.626,-0.6 0.609,-0.611 0.59,-0.619 0.571,-0.628 0.551,-0.632 0.529,-0.632 c -0.01,0 -0.018,0.004 -0.025,0.01 -0.007,0.007 -0.01,0.016 -0.01,0.025 0,0.01 0.003,0.018 0.01,0.025 0.007,0.007 0.015,0.01 0.025,0.01 0.012,0 0.023,0.003 0.034,0.007 0.01,0.005 0.02,0.011 0.028,0.019 0.008,0.008 0.014,0.017 0.018,0.028 0.005,0.011 0.007,0.022 0.007,0.034 0,0.01 0.004,0.018 0.01,0.025 0.007,0.007 0.016,0.01 0.025,0.01 z"
         style="fill:#d48c00;fill-rule:nonzero"
         id="path1782" /><path
         d="m 0.3,-0.21 v -0.141 l 0.05,-0.101 c 0.013,0.003 0.026,0.009 0.037,0.017 0.011,0.007 0.02,0.016 0.028,0.027 0.008,0.011 0.014,0.022 0.019,0.035 0.004,0.013 0.006,0.026 0.006,0.04 0,0.016 -0.003,0.032 -0.009,0.047 -0.006,0.015 -0.015,0.028 -0.026,0.039 -0.011,0.011 -0.024,0.02 -0.039,0.027 -0.015,0.006 -0.031,0.01 -0.048,0.01 z"
         style="fill:#613d30;fill-rule:nonzero"
         id="path1784" /><path
         d="m 0.932,-0.526 c 0.01,0 0.018,0.003 0.025,0.01 0.007,0.007 0.01,0.015 0.01,0.025 v 0.14 c 0,0.01 -0.003,0.018 -0.01,0.025 -0.007,0.007 -0.015,0.01 -0.025,0.01 -0.01,0 -0.018,-0.003 -0.025,-0.01 C 0.9,-0.333 0.897,-0.341 0.897,-0.351 v -0.14 c 0,-0.01 0.003,-0.018 0.01,-0.025 0.007,-0.007 0.015,-0.01 0.025,-0.01 z"
         style="fill:#4a5459;fill-rule:nonzero"
         id="path1786" /><path
         d="m 0.932,-0.386 c 0,0.016 -0.001,0.034 -0.005,0.053 C 0.924,-0.315 0.92,-0.296 0.913,-0.278 0.907,-0.26 0.899,-0.243 0.889,-0.226 0.88,-0.209 0.868,-0.195 0.855,-0.182 0.842,-0.169 0.828,-0.159 0.811,-0.152 0.795,-0.144 0.777,-0.141 0.757,-0.141 H 0.722 c -0.009,0 -0.015,-0.001 -0.02,-0.005 C 0.698,-0.149 0.694,-0.153 0.692,-0.158 0.689,-0.163 0.688,-0.169 0.687,-0.175 c 0,-0.006 0,-0.012 0,-0.018 0.003,-0.003 0.006,-0.006 0.009,-0.009 0.004,-0.003 0.007,-0.005 0.01,-0.008 0.017,-0.014 0.032,-0.028 0.047,-0.041 0.015,-0.014 0.027,-0.028 0.038,-0.044 0.011,-0.015 0.02,-0.032 0.026,-0.051 0.006,-0.019 0.01,-0.041 0.01,-0.066 v -0.062 c 0,-0.042 -0.009,-0.082 -0.025,-0.119 -0.016,-0.038 -0.04,-0.071 -0.071,-0.099 v -0.046 l 0.048,-0.006 c 0.023,0.02 0.044,0.04 0.063,0.063 0.019,0.023 0.035,0.047 0.048,0.073 0.013,0.026 0.024,0.053 0.031,0.081 0.007,0.028 0.011,0.058 0.011,0.088 z"
         style="fill:#69797e;fill-rule:nonzero"
         id="path1788" /><path
         d="m 0.335,-0.316 c -0.009,0 -0.017,-0.003 -0.024,-0.01 C 0.304,-0.333 0.3,-0.342 0.3,-0.351 V -0.377 C 0.3,-0.391 0.297,-0.403 0.291,-0.414 0.285,-0.425 0.276,-0.434 0.265,-0.442 0.243,-0.458 0.226,-0.475 0.214,-0.495 0.201,-0.515 0.195,-0.539 0.195,-0.566 c 0,-0.028 0.005,-0.055 0.014,-0.079 0.01,-0.025 0.023,-0.047 0.039,-0.068 0.016,-0.02 0.035,-0.039 0.057,-0.055 0.021,-0.016 0.045,-0.029 0.07,-0.04 0.024,-0.011 0.05,-0.02 0.076,-0.025 0.027,-0.006 0.052,-0.009 0.078,-0.009 0.046,0 0.091,0.008 0.134,0.025 0.043,0.017 0.082,0.041 0.116,0.073 L 0.731,-0.692 C 0.704,-0.718 0.673,-0.738 0.638,-0.752 0.603,-0.765 0.567,-0.772 0.529,-0.772 c -0.019,0 -0.039,0.002 -0.059,0.006 -0.02,0.005 -0.04,0.011 -0.06,0.019 -0.019,0.008 -0.038,0.018 -0.056,0.03 -0.017,0.012 -0.032,0.026 -0.046,0.041 -0.013,0.015 -0.023,0.032 -0.031,0.05 -0.008,0.019 -0.012,0.038 -0.012,0.06 0,0.014 0.004,0.027 0.012,0.038 0.008,0.011 0.017,0.021 0.029,0.029 0.02,0.016 0.036,0.033 0.048,0.053 0.011,0.02 0.017,0.043 0.017,0.069 v 0.026 c 0,0.01 -0.004,0.018 -0.011,0.025 -0.006,0.007 -0.015,0.01 -0.025,0.01 z"
         style="fill:#a0aeb2;fill-rule:nonzero"
         id="path1790" /></g></g></svg>
