<?xml version="1.0" encoding="UTF-8" standalone="no"?>
<svg
   width="16.844999"
   height="13.59"
   viewBox="0 0 16.844999 13.59"
   version="1.1"
   xml:space="preserve"
   style="clip-rule:evenodd;fill-rule:evenodd;stroke-linejoin:round;stroke-miterlimit:2"
   id="svg20568"
   sodipodi:docname="emojis.svg"
   xmlns:inkscape="http://www.inkscape.org/namespaces/inkscape"
   xmlns:sodipodi="http://sodipodi.sourceforge.net/DTD/sodipodi-0.dtd"
   xmlns="http://www.w3.org/2000/svg"
   xmlns:svg="http://www.w3.org/2000/svg"><defs
     id="defs20572" /><sodipodi:namedview
     id="namedview20570"
     pagecolor="#505050"
     bordercolor="#eeeeee"
     borderopacity="1"
     inkscape:pageshadow="0"
     inkscape:pageopacity="0"
     inkscape:pagecheckerboard="0" /><g
     transform="matrix(0.24,0,0,0.24,-136.78788,-909.7944)"
     id="g20566"><g
       transform="matrix(62.5,0,0,62.5,562.137,3839.06)"
       id="g17904"><path
         d="m 1.004,-0.772 c 0.033,0 0.065,0.006 0.095,0.019 0.03,0.013 0.056,0.03 0.078,0.052 0.021,0.022 0.039,0.048 0.052,0.077 0.013,0.03 0.019,0.062 0.019,0.096 0,0.033 -0.006,0.064 -0.018,0.093 C 1.218,-0.407 1.2,-0.38 1.177,-0.356 1.158,-0.336 1.139,-0.316 1.119,-0.297 1.099,-0.278 1.08,-0.258 1.06,-0.239 1.021,-0.2 0.982,-0.161 0.944,-0.122 0.905,-0.083 0.866,-0.045 0.827,-0.006 l -0.07,-0.07 -0.211,0.21 C 0.507,0.095 0.469,0.056 0.43,0.017 0.391,-0.021 0.353,-0.06 0.313,-0.099 0.294,-0.119 0.274,-0.138 0.255,-0.157 0.235,-0.176 0.215,-0.195 0.196,-0.215 0.174,-0.239 0.156,-0.266 0.144,-0.294 0.131,-0.323 0.125,-0.354 0.125,-0.388 c 0,-0.033 0.006,-0.065 0.019,-0.094 0.013,-0.03 0.03,-0.056 0.052,-0.078 0.022,-0.022 0.048,-0.039 0.077,-0.052 0.03,-0.013 0.061,-0.019 0.095,-0.019 0.019,0 0.038,0.002 0.058,0.006 0.009,-0.022 0.021,-0.042 0.037,-0.06 0.015,-0.018 0.033,-0.034 0.052,-0.047 0.02,-0.013 0.041,-0.022 0.064,-0.029 0.023,-0.007 0.046,-0.011 0.07,-0.011 0.016,0 0.033,0.002 0.049,0.005 0.016,0.004 0.032,0.009 0.048,0.015 0.015,0.007 0.03,0.015 0.044,0.024 0.014,0.009 0.026,0.02 0.037,0.032 0.024,-0.024 0.051,-0.043 0.08,-0.056 0.03,-0.013 0.062,-0.02 0.097,-0.02 z"
         style="fill-rule:nonzero"
         id="path17898" /><path
         d="m 1.004,-0.702 c 0.024,0 0.046,0.005 0.067,0.014 0.021,0.009 0.04,0.021 0.056,0.037 0.015,0.016 0.028,0.034 0.037,0.055 0.009,0.021 0.014,0.044 0.014,0.068 0,0.023 -0.005,0.045 -0.013,0.066 -0.009,0.021 -0.021,0.04 -0.038,0.057 l -0.3,0.3 -0.3,-0.3 C 0.51,-0.422 0.498,-0.441 0.489,-0.462 0.48,-0.483 0.476,-0.505 0.476,-0.528 c 0,-0.024 0.005,-0.047 0.014,-0.068 0.009,-0.021 0.021,-0.039 0.037,-0.055 0.015,-0.016 0.034,-0.028 0.055,-0.037 0.021,-0.009 0.043,-0.014 0.067,-0.014 0.02,0 0.038,0.003 0.053,0.008 0.016,0.005 0.03,0.012 0.043,0.021 0.013,0.008 0.025,0.019 0.037,0.03 0.012,0.012 0.024,0.024 0.036,0.037 L 0.827,-0.597 0.84,-0.61 c 0.012,-0.012 0.023,-0.024 0.035,-0.035 0.011,-0.011 0.023,-0.021 0.036,-0.029 0.013,-0.009 0.027,-0.015 0.042,-0.02 0.015,-0.005 0.032,-0.008 0.051,-0.008 z"
         style="fill:#e6808a;fill-rule:nonzero"
         id="path17900" /><path
         d="m 0.723,-0.562 c 0.024,0 0.047,0.005 0.068,0.014 0.021,0.009 0.04,0.022 0.055,0.037 0.016,0.016 0.028,0.034 0.037,0.055 0.009,0.022 0.014,0.044 0.014,0.068 0,0.024 -0.004,0.046 -0.013,0.067 -0.009,0.021 -0.021,0.039 -0.038,0.056 l -0.3,0.3 -0.3,-0.3 C 0.229,-0.282 0.217,-0.3 0.208,-0.321 0.2,-0.342 0.195,-0.364 0.195,-0.388 c 0,-0.023 0.005,-0.046 0.014,-0.067 0.009,-0.021 0.021,-0.04 0.037,-0.055 0.016,-0.016 0.034,-0.029 0.055,-0.038 0.021,-0.009 0.044,-0.014 0.068,-0.014 0.019,0 0.036,0.003 0.051,0.008 0.015,0.005 0.029,0.011 0.042,0.02 0.013,0.008 0.025,0.018 0.036,0.029 0.011,0.011 0.023,0.023 0.035,0.035 l 0.013,0.013 C 0.56,-0.47 0.573,-0.483 0.585,-0.496 0.597,-0.508 0.61,-0.52 0.624,-0.529 0.637,-0.539 0.652,-0.547 0.667,-0.553 0.683,-0.559 0.702,-0.562 0.723,-0.562 Z"
         style="fill:#e81224;fill-rule:nonzero"
         id="path17902" /></g></g></svg>
