<?xml version="1.0" encoding="UTF-8" standalone="no"?>
<svg
   width="12.63"
   height="16.844999"
   viewBox="0 0 12.63 16.844999"
   version="1.1"
   xml:space="preserve"
   style="clip-rule:evenodd;fill-rule:evenodd;stroke-linejoin:round;stroke-miterlimit:2"
   id="svg20568"
   sodipodi:docname="emojis.svg"
   xmlns:inkscape="http://www.inkscape.org/namespaces/inkscape"
   xmlns:sodipodi="http://sodipodi.sourceforge.net/DTD/sodipodi-0.dtd"
   xmlns="http://www.w3.org/2000/svg"
   xmlns:svg="http://www.w3.org/2000/svg"><defs
     id="defs20572" /><sodipodi:namedview
     id="namedview20570"
     pagecolor="#505050"
     bordercolor="#eeeeee"
     borderopacity="1"
     inkscape:pageshadow="0"
     inkscape:pageopacity="0"
     inkscape:pagecheckerboard="0" /><g
     transform="matrix(0.24,0,0,0.24,-420.9174,-907.6794)"
     id="g20566"><g
       transform="matrix(62.5,0,0,62.5,1746.01,3839.06)"
       id="g18016"><path
         d="m 0.967,-0.526 v 0.316 c 0,0.038 -0.005,0.076 -0.015,0.111 C 0.942,-0.063 0.928,-0.029 0.91,0.002 0.891,0.033 0.869,0.062 0.844,0.087 0.818,0.113 0.79,0.135 0.758,0.153 0.727,0.171 0.694,0.185 0.658,0.195 0.622,0.205 0.585,0.21 0.546,0.21 0.507,0.21 0.47,0.205 0.434,0.195 0.398,0.185 0.365,0.171 0.333,0.153 0.302,0.135 0.274,0.113 0.248,0.087 0.223,0.062 0.201,0.033 0.183,0.002 0.164,-0.029 0.15,-0.063 0.14,-0.099 0.13,-0.134 0.125,-0.172 0.125,-0.21 c 0,-0.033 0.003,-0.065 0.01,-0.097 C 0.141,-0.339 0.151,-0.37 0.163,-0.4 0.176,-0.43 0.191,-0.459 0.209,-0.486 0.227,-0.513 0.248,-0.538 0.271,-0.562 H 0.23 v -0.14 c 0,-0.014 0.003,-0.027 0.007,-0.041 0.004,-0.013 0.009,-0.025 0.017,-0.037 0.007,-0.011 0.016,-0.021 0.027,-0.03 0.01,-0.009 0.022,-0.016 0.035,-0.022 0.012,-0.004 0.023,-0.007 0.034,-0.009 0.011,-0.001 0.022,-0.001 0.034,-0.001 h 0.022 v -0.071 h 0.042 c 0.017,0 0.033,0.001 0.05,0.002 0.016,0 0.032,0.002 0.048,0.006 0.035,0.006 0.067,0.018 0.097,0.034 0.03,0.017 0.057,0.037 0.081,0.061 0.024,0.024 0.044,0.051 0.061,0.081 0.016,0.031 0.028,0.063 0.035,0.097 0.003,0.015 0.005,0.03 0.006,0.046 0,0.015 0.001,0.031 0.001,0.046 v 0.024 C 0.845,-0.52 0.864,-0.523 0.882,-0.524 0.9,-0.526 0.918,-0.526 0.937,-0.526 Z"
         style="fill-rule:nonzero"
         id="path18008" /><path
         d="m 0.195,-0.21 c 0,-0.032 0.003,-0.063 0.01,-0.091 0.006,-0.029 0.015,-0.056 0.027,-0.082 0.012,-0.025 0.027,-0.05 0.044,-0.074 0.018,-0.024 0.037,-0.047 0.059,-0.069 0.023,-0.023 0.043,-0.046 0.06,-0.07 0.018,-0.024 0.032,-0.048 0.044,-0.074 0.012,-0.025 0.021,-0.052 0.028,-0.081 0.006,-0.028 0.009,-0.059 0.009,-0.091 0.039,0 0.075,0.007 0.109,0.022 0.035,0.014 0.064,0.034 0.09,0.06 0.025,0.025 0.045,0.055 0.06,0.089 0.015,0.034 0.022,0.071 0.022,0.109 v 0.176 c 0.017,-0.022 0.038,-0.039 0.062,-0.051 0.024,-0.013 0.05,-0.02 0.078,-0.02 v 0.247 c 0,0.027 -0.003,0.054 -0.01,0.081 C 0.881,-0.103 0.872,-0.078 0.86,-0.054 0.848,-0.03 0.833,-0.007 0.816,0.014 0.798,0.035 0.779,0.054 0.757,0.07 0.749,0.07 0.742,0.069 0.735,0.069 0.727,0.068 0.72,0.068 0.712,0.068 0.699,0.068 0.685,0.069 0.672,0.071 0.658,0.072 0.645,0.074 0.631,0.076 0.617,0.079 0.604,0.08 0.59,0.082 0.577,0.084 0.563,0.085 0.549,0.085 0.514,0.085 0.478,0.084 0.442,0.081 0.406,0.078 0.371,0.075 0.335,0.07 0.313,0.054 0.294,0.035 0.276,0.014 0.259,-0.007 0.244,-0.03 0.232,-0.054 0.22,-0.078 0.211,-0.103 0.205,-0.13 0.198,-0.156 0.195,-0.183 0.195,-0.21 Z M 0.3,-0.702 c 0,-0.01 0.002,-0.019 0.006,-0.027 0.004,-0.009 0.009,-0.016 0.015,-0.023 0.006,-0.006 0.014,-0.011 0.022,-0.015 0.009,-0.003 0.018,-0.005 0.028,-0.005 v 0.07 c 0,0.01 -0.002,0.019 -0.006,0.027 C 0.361,-0.666 0.356,-0.658 0.35,-0.652 0.344,-0.646 0.336,-0.641 0.328,-0.637 0.319,-0.634 0.31,-0.632 0.3,-0.632 Z"
         style="fill:#f7630c;fill-rule:nonzero"
         id="path18010" /><path
         d="m 0.543,0.117 c -0.017,0 -0.034,0 -0.051,0.002 C 0.475,0.12 0.458,0.122 0.441,0.124 0.422,0.118 0.403,0.111 0.386,0.102 0.368,0.092 0.351,0.082 0.335,0.07 v -0.105 c 0,-0.02 0.003,-0.037 0.008,-0.051 0.005,-0.015 0.012,-0.028 0.02,-0.039 0.008,-0.012 0.016,-0.023 0.025,-0.033 0.009,-0.01 0.018,-0.021 0.026,-0.033 0.007,-0.011 0.014,-0.024 0.019,-0.038 0.005,-0.015 0.008,-0.032 0.008,-0.052 0.029,0 0.056,0.006 0.082,0.017 0.025,0.011 0.048,0.026 0.067,0.045 0.019,0.019 0.034,0.041 0.045,0.067 0.011,0.025 0.016,0.053 0.016,0.082 0.015,-0.012 0.032,-0.021 0.05,-0.027 0.018,-0.006 0.037,-0.008 0.056,-0.008 V 0.07 C 0.741,0.082 0.724,0.092 0.707,0.102 0.689,0.111 0.671,0.118 0.651,0.124 0.633,0.122 0.616,0.12 0.598,0.119 0.58,0.117 0.562,0.117 0.543,0.117 Z"
         style="fill:#fce100;fill-rule:nonzero"
         id="path18012" /><path
         d="M 0.546,0.14 C 0.509,0.14 0.474,0.135 0.441,0.124 V 0.07 c 0,-0.014 0.003,-0.028 0.008,-0.041 0.006,-0.012 0.013,-0.024 0.023,-0.033 0.009,-0.01 0.02,-0.017 0.033,-0.023 0.013,-0.005 0.026,-0.008 0.041,-0.008 V 0.07 L 0.651,0.035 V 0.124 C 0.634,0.13 0.617,0.134 0.599,0.136 0.582,0.139 0.564,0.14 0.546,0.14 Z"
         style="fill:#ffffff;fill-rule:nonzero"
         id="path18014" /></g></g></svg>
