<?xml version="1.0" encoding="UTF-8" standalone="no"?>
<svg
   width="16.844999"
   height="16.32"
   viewBox="0 0 16.844999 16.32"
   version="1.1"
   xml:space="preserve"
   style="clip-rule:evenodd;fill-rule:evenodd;stroke-linejoin:round;stroke-miterlimit:2"
   id="svg20568"
   sodipodi:docname="emojis.svg"
   xmlns:inkscape="http://www.inkscape.org/namespaces/inkscape"
   xmlns:sodipodi="http://sodipodi.sourceforge.net/DTD/sodipodi-0.dtd"
   xmlns="http://www.w3.org/2000/svg"
   xmlns:svg="http://www.w3.org/2000/svg"><defs
     id="defs20572" /><sodipodi:namedview
     id="namedview20570"
     pagecolor="#505050"
     bordercolor="#eeeeee"
     borderopacity="1"
     inkscape:pageshadow="0"
     inkscape:pageopacity="0"
     inkscape:pagecheckerboard="0" /><g
     transform="matrix(0.24,0,0,0.24,-478.491,-907.6794)"
     id="g20566"><g
       transform="matrix(62.5,0,0,62.5,1985.9,3839.06)"
       id="g18042"><path
         d="m 1.248,-0.672 c 0,0.033 -0.004,0.068 -0.012,0.105 -0.008,0.036 -0.02,0.072 -0.035,0.106 -0.015,0.035 -0.034,0.067 -0.056,0.096 -0.022,0.03 -0.047,0.055 -0.074,0.075 0.011,0.01 0.02,0.022 0.027,0.036 0.007,0.013 0.01,0.028 0.01,0.044 0,0.009 -0.001,0.018 -0.004,0.026 -0.002,0.009 -0.006,0.017 -0.01,0.025 0.015,0.01 0.027,0.022 0.036,0.038 0.009,0.016 0.013,0.032 0.013,0.051 0,0.014 -0.003,0.028 -0.008,0.041 C 1.129,-0.017 1.122,-0.005 1.112,0.004 1.102,0.014 1.091,0.021 1.079,0.027 1.066,0.032 1.052,0.035 1.038,0.035 0.95,0.035 0.863,0.042 0.778,0.056 0.692,0.07 0.608,0.091 0.524,0.119 L 0.369,0.17 C 0.358,0.174 0.347,0.175 0.335,0.175 0.321,0.175 0.307,0.173 0.294,0.167 0.282,0.161 0.271,0.154 0.261,0.144 0.252,0.135 0.244,0.124 0.239,0.111 0.233,0.098 0.23,0.084 0.23,0.07 0.23,0.055 0.233,0.042 0.238,0.03 0.243,0.018 0.249,0.008 0.258,-0.001 0.267,-0.009 0.277,-0.017 0.288,-0.023 0.3,-0.029 0.312,-0.034 0.326,-0.038 0.318,-0.047 0.312,-0.057 0.307,-0.069 0.297,-0.058 0.286,-0.05 0.272,-0.044 0.259,-0.038 0.245,-0.035 0.23,-0.035 0.216,-0.035 0.202,-0.038 0.189,-0.043 0.177,-0.049 0.166,-0.057 0.156,-0.066 0.146,-0.076 0.139,-0.087 0.133,-0.1 0.128,-0.113 0.125,-0.126 0.125,-0.141 c 0,-0.011 0.002,-0.021 0.005,-0.033 L 0.252,-0.538 C 0.234,-0.548 0.221,-0.56 0.21,-0.577 0.2,-0.593 0.195,-0.611 0.195,-0.631 c 0,-0.014 0.003,-0.028 0.008,-0.041 0.006,-0.013 0.013,-0.024 0.023,-0.034 l 0.141,-0.141 c 0.02,-0.02 0.045,-0.03 0.074,-0.03 0.02,0 0.038,0.004 0.054,0.014 0.016,0.01 0.029,0.023 0.039,0.041 0.02,-0.017 0.041,-0.03 0.065,-0.04 0.024,-0.01 0.049,-0.015 0.075,-0.015 0.019,0 0.037,0.002 0.054,0.008 0.017,0.005 0.032,0.013 0.046,0.024 0.014,0.01 0.026,0.022 0.037,0.036 0.01,0.014 0.02,0.03 0.027,0.047 C 0.85,-0.781 0.864,-0.799 0.88,-0.817 0.896,-0.836 0.913,-0.852 0.931,-0.866 0.95,-0.88 0.97,-0.891 0.991,-0.9 1.013,-0.908 1.035,-0.913 1.06,-0.913 c 0.032,0 0.061,0.008 0.085,0.022 0.023,0.014 0.043,0.033 0.058,0.056 0.015,0.023 0.027,0.049 0.034,0.077 0.007,0.029 0.011,0.057 0.011,0.086 z"
         style="fill-rule:nonzero"
         id="path18038" /><path
         d="m 0.559,-0.281 c -0.015,0 -0.028,-0.002 -0.04,-0.007 C 0.508,-0.293 0.498,-0.3 0.489,-0.309 0.48,-0.317 0.473,-0.327 0.467,-0.338 0.461,-0.349 0.456,-0.361 0.452,-0.374 0.448,-0.386 0.445,-0.399 0.443,-0.412 0.442,-0.426 0.441,-0.438 0.441,-0.451 c 0,-0.024 0.002,-0.048 0.007,-0.072 0.004,-0.024 0.01,-0.047 0.018,-0.07 0.005,-0.014 0.011,-0.029 0.019,-0.045 0.007,-0.016 0.016,-0.032 0.025,-0.048 0.01,-0.016 0.021,-0.031 0.033,-0.045 0.012,-0.015 0.024,-0.028 0.038,-0.039 0.014,-0.011 0.028,-0.02 0.044,-0.027 0.016,-0.007 0.032,-0.01 0.049,-0.01 0.022,0 0.041,0.005 0.056,0.016 0.015,0.011 0.027,0.024 0.037,0.041 0.009,0.017 0.015,0.035 0.019,0.055 0.004,0.02 0.006,0.039 0.006,0.058 0,0.024 -0.002,0.048 -0.007,0.072 -0.004,0.023 -0.011,0.047 -0.018,0.07 -0.005,0.014 -0.011,0.029 -0.019,0.045 -0.007,0.016 -0.015,0.032 -0.025,0.048 -0.01,0.016 -0.02,0.031 -0.032,0.046 -0.012,0.015 -0.025,0.028 -0.039,0.039 -0.014,0.011 -0.028,0.02 -0.044,0.026 -0.015,0.007 -0.032,0.01 -0.049,0.01 z M 0.945,-0.316 C 0.93,-0.316 0.917,-0.318 0.906,-0.323 0.894,-0.329 0.884,-0.335 0.875,-0.344 0.866,-0.352 0.859,-0.362 0.853,-0.373 0.847,-0.385 0.842,-0.396 0.838,-0.409 0.834,-0.421 0.831,-0.434 0.83,-0.448 0.828,-0.461 0.827,-0.473 0.827,-0.486 c 0,-0.024 0.002,-0.048 0.007,-0.072 0.005,-0.024 0.011,-0.047 0.019,-0.07 0.004,-0.014 0.011,-0.029 0.018,-0.045 0.007,-0.016 0.016,-0.032 0.025,-0.048 0.01,-0.016 0.021,-0.031 0.033,-0.046 0.012,-0.014 0.025,-0.027 0.038,-0.038 0.014,-0.012 0.029,-0.021 0.044,-0.027 0.015,-0.007 0.032,-0.01 0.049,-0.01 0.022,0 0.041,0.005 0.056,0.016 0.015,0.01 0.027,0.024 0.036,0.04 0.009,0.017 0.016,0.035 0.02,0.055 0.004,0.02 0.006,0.039 0.006,0.058 0,0.024 -0.003,0.048 -0.007,0.072 -0.005,0.024 -0.011,0.047 -0.019,0.071 -0.005,0.014 -0.011,0.029 -0.018,0.045 -0.007,0.016 -0.016,0.032 -0.025,0.048 -0.01,0.016 -0.021,0.031 -0.033,0.046 -0.011,0.015 -0.024,0.027 -0.038,0.038 -0.014,0.012 -0.028,0.02 -0.044,0.027 -0.015,0.007 -0.032,0.01 -0.049,0.01 z M 0.23,-0.105 c -0.009,0 -0.018,-0.004 -0.024,-0.01 C 0.199,-0.122 0.195,-0.13 0.195,-0.14 c 0,-0.004 0.001,-0.008 0.002,-0.011 L 0.361,-0.642 0.325,-0.607 C 0.318,-0.6 0.31,-0.597 0.3,-0.597 c -0.009,0 -0.017,-0.003 -0.024,-0.01 -0.007,-0.007 -0.01,-0.015 -0.01,-0.025 0,-0.01 0.003,-0.018 0.01,-0.025 l 0.14,-0.14 c 0.007,-0.007 0.015,-0.01 0.025,-0.01 0.009,0 0.018,0.003 0.025,0.01 0.007,0.007 0.01,0.015 0.01,0.025 0,0.003 -0.001,0.007 -0.002,0.011 l -0.21,0.632 C 0.261,-0.122 0.257,-0.116 0.251,-0.112 0.245,-0.108 0.238,-0.105 0.23,-0.105 Z m 0.443,-0.632 c -0.01,0 -0.021,0.003 -0.031,0.008 -0.01,0.006 -0.02,0.014 -0.029,0.024 -0.01,0.009 -0.019,0.02 -0.027,0.032 C 0.577,-0.661 0.57,-0.649 0.563,-0.636 0.556,-0.624 0.55,-0.612 0.545,-0.6 0.54,-0.589 0.536,-0.579 0.533,-0.57 c -0.007,0.02 -0.012,0.039 -0.016,0.059 -0.004,0.02 -0.006,0.04 -0.006,0.06 0,0.008 0.001,0.017 0.002,0.028 0.001,0.012 0.003,0.023 0.007,0.033 0.004,0.011 0.008,0.02 0.015,0.027 0.006,0.008 0.014,0.012 0.025,0.012 0.01,0 0.02,-0.003 0.031,-0.009 0.01,-0.006 0.02,-0.013 0.029,-0.023 0.01,-0.009 0.019,-0.02 0.027,-0.032 0.008,-0.012 0.016,-0.024 0.023,-0.037 0.007,-0.012 0.013,-0.024 0.018,-0.036 0.005,-0.011 0.009,-0.021 0.012,-0.03 0.007,-0.02 0.012,-0.039 0.016,-0.059 0.004,-0.02 0.006,-0.04 0.006,-0.061 0,-0.007 -0.001,-0.017 -0.002,-0.028 C 0.719,-0.677 0.716,-0.688 0.713,-0.698 0.709,-0.709 0.704,-0.718 0.698,-0.726 0.692,-0.733 0.683,-0.737 0.673,-0.737 Z M 1.06,-0.772 c -0.011,0 -0.022,0.003 -0.032,0.009 -0.01,0.006 -0.02,0.013 -0.029,0.023 -0.009,0.009 -0.018,0.02 -0.027,0.032 -0.008,0.012 -0.016,0.024 -0.023,0.037 -0.007,0.012 -0.013,0.024 -0.018,0.036 -0.005,0.011 -0.009,0.022 -0.012,0.03 -0.007,0.02 -0.012,0.039 -0.016,0.059 -0.004,0.02 -0.006,0.041 -0.006,0.061 0,0.008 0.001,0.017 0.002,0.028 0.001,0.011 0.004,0.022 0.007,0.033 0.003,0.01 0.008,0.019 0.015,0.027 0.006,0.007 0.014,0.011 0.025,0.011 0.01,0 0.02,-0.003 0.031,-0.009 0.01,-0.006 0.019,-0.014 0.029,-0.023 0.009,-0.01 0.018,-0.021 0.027,-0.033 0.008,-0.012 0.016,-0.024 0.023,-0.036 0.006,-0.013 0.013,-0.025 0.018,-0.036 0.005,-0.012 0.009,-0.022 0.012,-0.03 0.006,-0.02 0.012,-0.04 0.016,-0.06 0.004,-0.02 0.006,-0.04 0.006,-0.061 0,-0.007 -0.001,-0.017 -0.002,-0.028 C 1.105,-0.713 1.103,-0.723 1.099,-0.734 1.096,-0.744 1.091,-0.753 1.084,-0.761 1.078,-0.768 1.07,-0.772 1.06,-0.772 Z M 0.335,0.105 C 0.326,0.105 0.317,0.102 0.311,0.095 0.304,0.088 0.301,0.08 0.301,0.07 0.301,0.063 0.303,0.056 0.307,0.05 0.311,0.044 0.317,0.039 0.325,0.037 l 0.154,-0.052 c 0.092,-0.03 0.183,-0.052 0.276,-0.068 0.092,-0.015 0.187,-0.022 0.283,-0.022 0.009,0 0.018,0.003 0.024,0.01 0.007,0.007 0.011,0.015 0.011,0.025 0,0.009 -0.004,0.018 -0.011,0.025 -0.006,0.006 -0.015,0.01 -0.024,0.01 -0.092,0 -0.182,0.007 -0.272,0.021 C 0.676,0 0.588,0.022 0.501,0.052 L 0.45,0.07 C 0.439,0.074 0.427,0.078 0.415,0.083 0.403,0.087 0.392,0.091 0.381,0.094 0.371,0.097 0.361,0.1 0.353,0.102 0.344,0.104 0.339,0.105 0.335,0.105 Z M 0.406,-0.07 c -0.01,0 -0.018,-0.004 -0.025,-0.011 -0.007,-0.007 -0.01,-0.015 -0.01,-0.024 0,-0.009 0.002,-0.016 0.008,-0.021 0.005,-0.006 0.012,-0.011 0.019,-0.014 0.008,-0.004 0.016,-0.007 0.024,-0.009 0.009,-0.002 0.016,-0.004 0.022,-0.006 0.048,-0.015 0.095,-0.028 0.14,-0.039 0.045,-0.011 0.09,-0.021 0.136,-0.028 0.045,-0.008 0.091,-0.014 0.137,-0.018 0.047,-0.004 0.095,-0.006 0.145,-0.006 0.01,0 0.019,0.004 0.025,0.011 0.007,0.006 0.011,0.015 0.011,0.025 0,0.009 -0.004,0.017 -0.011,0.024 -0.007,0.007 -0.015,0.011 -0.025,0.011 -0.091,0 -0.181,0.007 -0.271,0.021 -0.09,0.014 -0.178,0.036 -0.265,0.066 -0.004,0.001 -0.009,0.003 -0.014,0.005 -0.005,0.002 -0.01,0.004 -0.016,0.006 -0.005,0.002 -0.01,0.003 -0.016,0.005 -0.005,0.001 -0.01,0.002 -0.014,0.002 z"
         style="fill:#f03a17;fill-rule:nonzero"
         id="path18040" /></g></g></svg>
