<?xml version="1.0" encoding="UTF-8" standalone="no"?>
<svg
   width="16.844999"
   height="15.18"
   viewBox="0 0 16.844999 15.18"
   version="1.1"
   xml:space="preserve"
   style="clip-rule:evenodd;fill-rule:evenodd;stroke-linejoin:round;stroke-miterlimit:2"
   id="svg20568"
   sodipodi:docname="emojis.svg"
   xmlns:inkscape="http://www.inkscape.org/namespaces/inkscape"
   xmlns:sodipodi="http://sodipodi.sourceforge.net/DTD/sodipodi-0.dtd"
   xmlns="http://www.w3.org/2000/svg"
   xmlns:svg="http://www.w3.org/2000/svg"><defs
     id="defs20572" /><sodipodi:namedview
     id="namedview20570"
     pagecolor="#505050"
     bordercolor="#eeeeee"
     borderopacity="1"
     inkscape:pageshadow="0"
     inkscape:pageopacity="0"
     inkscape:pagecheckerboard="0" /><g
     transform="matrix(0.24,0,0,0.24,-581.4702,-909.2694)"
     id="g20566"><g
       transform="matrix(62.5,0,0,62.5,2414.98,3839.06)"
       id="g18078"><path
         d="m 1.107,-0.035 v 0.24 L 0.868,-0.035 H 0.266 c -0.02,0 -0.038,-0.004 -0.055,-0.011 C 0.194,-0.053 0.179,-0.063 0.166,-0.076 0.153,-0.089 0.143,-0.104 0.136,-0.121 0.129,-0.138 0.125,-0.156 0.125,-0.176 v -0.491 c 0,-0.019 0.004,-0.037 0.011,-0.054 0.008,-0.017 0.018,-0.032 0.031,-0.045 0.013,-0.012 0.027,-0.022 0.044,-0.03 0.017,-0.007 0.035,-0.011 0.055,-0.011 h 0.841 c 0.019,0 0.037,0.004 0.054,0.011 0.017,0.008 0.032,0.018 0.045,0.03 0.013,0.013 0.023,0.028 0.031,0.045 0.007,0.017 0.011,0.035 0.011,0.054 v 0.491 c 0,0.019 -0.004,0.037 -0.011,0.053 -0.008,0.017 -0.018,0.032 -0.031,0.045 -0.013,0.013 -0.028,0.024 -0.045,0.031 -0.017,0.008 -0.035,0.012 -0.054,0.012 z"
         style="fill-rule:nonzero"
         id="path18074" /><path
         d="m 0.266,-0.737 h 0.841 c 0.01,0 0.019,0.002 0.028,0.005 0.008,0.004 0.016,0.009 0.022,0.015 0.006,0.007 0.011,0.014 0.015,0.023 0.004,0.008 0.006,0.017 0.006,0.027 v 0.491 c 0,0.01 -0.002,0.019 -0.006,0.028 -0.004,0.008 -0.009,0.016 -0.015,0.022 -0.006,0.007 -0.014,0.012 -0.022,0.015 -0.009,0.004 -0.018,0.006 -0.028,0.006 H 1.038 v 0.14 L 0.897,-0.105 H 0.266 c -0.01,0 -0.019,-0.002 -0.028,-0.006 C 0.229,-0.114 0.222,-0.119 0.216,-0.126 0.209,-0.132 0.204,-0.14 0.201,-0.148 0.197,-0.157 0.195,-0.166 0.195,-0.176 v -0.491 c 0,-0.01 0.002,-0.019 0.006,-0.027 C 0.205,-0.703 0.21,-0.71 0.216,-0.717 0.222,-0.723 0.23,-0.728 0.238,-0.732 0.247,-0.735 0.256,-0.737 0.266,-0.737 Z"
         style="fill:#ffffff;fill-rule:nonzero"
         id="path18076" /></g></g></svg>
