<?xml version="1.0" encoding="UTF-8" standalone="no"?>
<svg
   width="15.795"
   height="15.78"
   viewBox="0 0 15.795 15.78"
   version="1.1"
   xml:space="preserve"
   style="clip-rule:evenodd;fill-rule:evenodd;stroke-linejoin:round;stroke-miterlimit:2"
   id="svg20568"
   sodipodi:docname="emojis.svg"
   xmlns:inkscape="http://www.inkscape.org/namespaces/inkscape"
   xmlns:sodipodi="http://sodipodi.sourceforge.net/DTD/sodipodi-0.dtd"
   xmlns="http://www.w3.org/2000/svg"
   xmlns:svg="http://www.w3.org/2000/svg"><defs
     id="defs20572" /><sodipodi:namedview
     id="namedview20570"
     pagecolor="#505050"
     bordercolor="#eeeeee"
     borderopacity="1"
     inkscape:pageshadow="0"
     inkscape:pageopacity="0"
     inkscape:pagecheckerboard="0" /><g
     transform="matrix(0.24,0,0,0.24,-683.4078,-908.2194)"
     id="g20566"><g
       transform="matrix(62.5,0,0,62.5,2839.72,3839.06)"
       id="g18110"><path
         d="m 0.651,-0.877 c 0.049,0 0.096,0.006 0.14,0.018 0.045,0.013 0.087,0.031 0.126,0.053 0.039,0.023 0.075,0.051 0.107,0.083 0.032,0.032 0.059,0.067 0.082,0.106 0.023,0.039 0.04,0.081 0.053,0.126 0.012,0.045 0.019,0.091 0.019,0.14 0,0.048 -0.007,0.095 -0.019,0.14 -0.013,0.045 -0.03,0.086 -0.053,0.126 C 1.083,-0.046 1.056,-0.011 1.024,0.021 0.992,0.053 0.956,0.081 0.917,0.104 0.878,0.126 0.836,0.144 0.791,0.156 0.747,0.169 0.7,0.175 0.651,0.175 0.603,0.175 0.556,0.169 0.511,0.156 0.467,0.144 0.425,0.126 0.386,0.104 0.347,0.081 0.311,0.053 0.279,0.021 0.247,-0.011 0.22,-0.046 0.197,-0.085 0.174,-0.125 0.156,-0.166 0.144,-0.211 0.131,-0.256 0.125,-0.303 0.125,-0.351 c 0,-0.049 0.006,-0.095 0.019,-0.14 0.012,-0.045 0.03,-0.087 0.053,-0.126 0.023,-0.039 0.05,-0.074 0.082,-0.106 0.032,-0.032 0.068,-0.06 0.107,-0.083 0.039,-0.022 0.081,-0.04 0.125,-0.053 0.045,-0.012 0.092,-0.018 0.14,-0.018 z"
         style="fill-rule:nonzero"
         id="path18104" /><path
         d="m 0.651,-0.772 c 0.039,0 0.076,0.005 0.112,0.015 0.036,0.01 0.07,0.024 0.101,0.043 0.031,0.018 0.06,0.04 0.085,0.065 0.026,0.026 0.048,0.054 0.066,0.086 0.018,0.031 0.033,0.064 0.043,0.1 0.01,0.036 0.015,0.073 0.015,0.112 0,0.039 -0.005,0.076 -0.015,0.112 -0.01,0.036 -0.025,0.069 -0.043,0.1 -0.018,0.032 -0.04,0.06 -0.066,0.086 C 0.924,-0.028 0.895,-0.006 0.864,0.013 0.833,0.031 0.799,0.045 0.763,0.055 0.727,0.065 0.69,0.07 0.651,0.07 0.613,0.07 0.575,0.065 0.54,0.055 0.504,0.045 0.47,0.031 0.439,0.013 0.408,-0.006 0.379,-0.028 0.354,-0.053 0.328,-0.079 0.306,-0.107 0.288,-0.139 0.27,-0.17 0.256,-0.203 0.246,-0.239 0.236,-0.275 0.23,-0.312 0.23,-0.351 c 0,-0.039 0.006,-0.076 0.016,-0.112 0.01,-0.036 0.024,-0.069 0.042,-0.1 0.018,-0.032 0.04,-0.06 0.066,-0.086 0.025,-0.025 0.054,-0.047 0.085,-0.065 0.031,-0.019 0.065,-0.033 0.101,-0.043 0.035,-0.01 0.073,-0.015 0.111,-0.015 z"
         style="fill:#ffffff;fill-rule:nonzero"
         id="path18106" /><path
         d="m 0.651,-0.807 c 0.042,0 0.083,0.005 0.122,0.016 0.039,0.011 0.075,0.026 0.109,0.046 0.033,0.02 0.064,0.044 0.092,0.071 0.028,0.028 0.051,0.059 0.071,0.093 0.02,0.033 0.035,0.07 0.046,0.109 0.011,0.038 0.016,0.079 0.016,0.121 0,0.042 -0.005,0.082 -0.016,0.121 C 1.08,-0.191 1.065,-0.155 1.045,-0.121 1.025,-0.087 1.002,-0.056 0.974,-0.029 0.946,-0.001 0.915,0.023 0.882,0.043 0.848,0.062 0.812,0.078 0.773,0.089 0.734,0.1 0.693,0.105 0.651,0.105 0.609,0.105 0.569,0.1 0.53,0.089 0.491,0.078 0.455,0.062 0.421,0.043 0.387,0.023 0.357,-0.001 0.329,-0.029 0.301,-0.056 0.277,-0.087 0.258,-0.121 0.238,-0.155 0.223,-0.191 0.212,-0.23 0.201,-0.269 0.195,-0.309 0.195,-0.351 c 0,-0.042 0.006,-0.083 0.017,-0.121 0.011,-0.039 0.026,-0.076 0.046,-0.109 0.019,-0.034 0.043,-0.065 0.071,-0.093 0.028,-0.027 0.058,-0.051 0.092,-0.071 0.034,-0.02 0.07,-0.035 0.109,-0.046 0.039,-0.011 0.079,-0.016 0.121,-0.016 z M 0.357,-0.601 C 0.331,-0.57 0.311,-0.537 0.295,-0.5 0.28,-0.464 0.271,-0.426 0.267,-0.386 H 0.406 C 0.408,-0.413 0.41,-0.439 0.413,-0.464 0.417,-0.49 0.421,-0.516 0.427,-0.541 0.414,-0.549 0.401,-0.557 0.389,-0.567 0.377,-0.577 0.366,-0.588 0.357,-0.601 Z m -0.09,0.285 c 0.004,0.04 0.013,0.078 0.028,0.114 0.016,0.037 0.036,0.07 0.062,0.101 0.009,-0.013 0.02,-0.024 0.032,-0.034 0.012,-0.01 0.025,-0.019 0.038,-0.026 C 0.421,-0.187 0.416,-0.212 0.413,-0.238 0.41,-0.264 0.408,-0.29 0.406,-0.316 Z m 0.769,-0.07 C 1.032,-0.426 1.023,-0.464 1.007,-0.5 0.992,-0.537 0.972,-0.57 0.946,-0.601 c -0.009,0.013 -0.019,0.024 -0.032,0.034 -0.012,0.01 -0.025,0.018 -0.039,0.026 0.007,0.025 0.011,0.051 0.015,0.077 0.003,0.025 0.005,0.051 0.006,0.078 z m -0.09,0.285 c 0.026,-0.031 0.046,-0.064 0.061,-0.101 0.016,-0.036 0.025,-0.074 0.029,-0.114 h -0.14 c -0.001,0.026 -0.003,0.052 -0.006,0.078 -0.003,0.026 -0.008,0.051 -0.015,0.077 0.014,0.007 0.027,0.016 0.039,0.026 0.013,0.01 0.023,0.021 0.032,0.034 z M 0.687,-0.209 c 0.02,0.001 0.041,0.003 0.062,0.006 0.02,0.004 0.04,0.008 0.061,0.015 0.004,-0.022 0.008,-0.043 0.011,-0.064 0.002,-0.021 0.004,-0.042 0.005,-0.064 H 0.687 Z M 0.616,-0.316 H 0.477 c 0.001,0.022 0.002,0.043 0.005,0.064 0.003,0.021 0.006,0.042 0.011,0.064 0.02,-0.007 0.041,-0.011 0.061,-0.015 0.021,-0.003 0.041,-0.005 0.062,-0.006 z m 0.071,-0.176 v 0.106 H 0.826 C 0.825,-0.408 0.823,-0.429 0.821,-0.45 0.818,-0.471 0.814,-0.493 0.81,-0.514 0.789,-0.507 0.769,-0.503 0.749,-0.5 0.728,-0.496 0.707,-0.494 0.687,-0.492 Z m -0.071,0 C 0.595,-0.494 0.575,-0.496 0.554,-0.5 0.534,-0.503 0.513,-0.507 0.493,-0.514 0.488,-0.493 0.485,-0.471 0.482,-0.45 0.479,-0.429 0.478,-0.408 0.477,-0.386 H 0.616 Z M 0.687,0.026 C 0.699,0.019 0.711,0.01 0.722,-0.001 0.732,-0.012 0.742,-0.024 0.751,-0.038 0.76,-0.051 0.767,-0.065 0.774,-0.079 0.78,-0.094 0.786,-0.108 0.791,-0.121 0.774,-0.126 0.756,-0.13 0.739,-0.133 0.722,-0.136 0.704,-0.138 0.687,-0.139 Z m 0,-0.589 C 0.704,-0.564 0.722,-0.566 0.739,-0.569 0.756,-0.572 0.774,-0.576 0.791,-0.582 0.786,-0.595 0.78,-0.608 0.774,-0.623 0.767,-0.637 0.76,-0.651 0.751,-0.665 0.742,-0.678 0.732,-0.69 0.722,-0.701 0.711,-0.713 0.699,-0.722 0.687,-0.728 Z M 0.616,-0.728 c -0.013,0.007 -0.025,0.016 -0.035,0.027 -0.011,0.011 -0.02,0.023 -0.029,0.037 -0.008,0.013 -0.016,0.027 -0.022,0.041 -0.007,0.015 -0.012,0.028 -0.017,0.041 0.017,0.006 0.034,0.01 0.051,0.013 0.017,0.003 0.035,0.005 0.052,0.006 z m 0,0.589 c -0.017,0.001 -0.035,0.003 -0.052,0.006 -0.017,0.003 -0.034,0.007 -0.051,0.012 0.005,0.013 0.01,0.027 0.017,0.041 0.006,0.015 0.014,0.029 0.022,0.042 0.009,0.014 0.018,0.026 0.029,0.037 0.01,0.011 0.022,0.02 0.035,0.027 z m 0.193,-0.565 c 0.01,0.015 0.018,0.03 0.025,0.045 0.008,0.016 0.015,0.032 0.02,0.048 C 0.863,-0.616 0.87,-0.621 0.878,-0.628 0.885,-0.634 0.89,-0.642 0.894,-0.651 0.881,-0.662 0.867,-0.671 0.853,-0.68 0.839,-0.689 0.824,-0.696 0.809,-0.704 Z m 0.045,0.613 C 0.849,-0.075 0.842,-0.059 0.834,-0.043 0.827,-0.028 0.819,-0.013 0.809,0.001 0.824,-0.006 0.839,-0.014 0.853,-0.022 0.867,-0.031 0.881,-0.04 0.894,-0.051 0.89,-0.06 0.885,-0.068 0.878,-0.074 0.87,-0.081 0.863,-0.086 0.854,-0.091 Z m -0.406,-0.52 c 0.006,-0.016 0.013,-0.032 0.02,-0.048 0.008,-0.015 0.016,-0.03 0.026,-0.045 -0.016,0.007 -0.03,0.015 -0.045,0.024 -0.014,0.009 -0.027,0.018 -0.04,0.029 0.004,0.008 0.009,0.016 0.016,0.023 0.007,0.006 0.015,0.012 0.023,0.017 z M 0.494,0.001 C 0.484,-0.013 0.476,-0.028 0.468,-0.043 0.461,-0.059 0.454,-0.075 0.448,-0.091 0.44,-0.086 0.432,-0.081 0.425,-0.074 0.418,-0.067 0.413,-0.06 0.409,-0.051 c 0.013,0.011 0.026,0.02 0.04,0.029 0.015,0.009 0.029,0.017 0.045,0.023 z"
         style="fill:#00bcf2;fill-rule:nonzero"
         id="path18108" /></g></g></svg>
