<?xml version="1.0" encoding="UTF-8" standalone="no"?>
<svg
   width="14.73"
   height="16.844999"
   viewBox="0 0 14.73 16.844999"
   version="1.1"
   xml:space="preserve"
   style="clip-rule:evenodd;fill-rule:evenodd;stroke-linejoin:round;stroke-miterlimit:2"
   id="svg20568"
   sodipodi:docname="emojis.svg"
   xmlns:inkscape="http://www.inkscape.org/namespaces/inkscape"
   xmlns:sodipodi="http://sodipodi.sourceforge.net/DTD/sodipodi-0.dtd"
   xmlns="http://www.w3.org/2000/svg"
   xmlns:svg="http://www.w3.org/2000/svg"><defs
     id="defs20572" /><sodipodi:namedview
     id="namedview20570"
     pagecolor="#505050"
     bordercolor="#eeeeee"
     borderopacity="1"
     inkscape:pageshadow="0"
     inkscape:pageopacity="0"
     inkscape:pagecheckerboard="0" /><g
     transform="matrix(0.24,0,0,0.24,-123.64092,-144.6594)"
     id="g20566"><g
       transform="matrix(62.5,0,0,62.5,507.358,659.81)"
       id="g1818"><path
         d="m 0.616,-0.141 c -0.01,0 -0.02,0.002 -0.028,0.007 -0.009,0.004 -0.016,0.01 -0.023,0.017 -0.006,0.007 -0.011,0.015 -0.014,0.024 -0.003,0.009 -0.005,0.019 -0.005,0.029 V 0.087 C 0.546,0.105 0.543,0.121 0.537,0.135 0.531,0.15 0.522,0.163 0.512,0.173 0.501,0.184 0.488,0.193 0.474,0.199 0.459,0.206 0.444,0.209 0.427,0.21 H 0.423 C 0.403,0.21 0.384,0.205 0.367,0.195 0.349,0.185 0.334,0.172 0.319,0.156 0.305,0.139 0.292,0.12 0.28,0.1 0.269,0.079 0.258,0.058 0.25,0.036 0.241,0.014 0.233,-0.007 0.227,-0.028 0.221,-0.048 0.216,-0.066 0.212,-0.082 0.207,-0.106 0.203,-0.13 0.2,-0.155 0.197,-0.179 0.195,-0.203 0.195,-0.228 V -0.313 C 0.181,-0.341 0.17,-0.369 0.161,-0.396 0.152,-0.423 0.145,-0.45 0.139,-0.477 0.134,-0.504 0.13,-0.532 0.128,-0.56 0.126,-0.588 0.125,-0.618 0.125,-0.649 c 0,-0.037 0.007,-0.071 0.021,-0.103 0.014,-0.032 0.032,-0.06 0.056,-0.083 0.024,-0.024 0.052,-0.043 0.084,-0.057 0.032,-0.014 0.066,-0.021 0.102,-0.021 h 0.035 c 0.018,0 0.035,0.002 0.052,0.004 0.016,0.003 0.032,0.006 0.048,0.011 0.016,0.004 0.031,0.01 0.046,0.016 0.015,0.007 0.031,0.014 0.046,0.022 0.005,0 0.01,-0.002 0.015,-0.005 0.005,-0.004 0.009,-0.007 0.014,-0.009 0.017,-0.008 0.033,-0.015 0.049,-0.02 0.016,-0.005 0.032,-0.009 0.049,-0.012 0.016,-0.002 0.032,-0.004 0.049,-0.005 0.017,-0.001 0.035,-0.002 0.053,-0.002 0.036,0 0.07,0.007 0.103,0.021 0.032,0.014 0.06,0.033 0.083,0.057 0.024,0.023 0.043,0.051 0.057,0.083 0.014,0.032 0.02,0.066 0.02,0.103 v 0.035 c 0,0.052 -0.005,0.104 -0.017,0.155 -0.012,0.05 -0.029,0.099 -0.052,0.146 v 0.085 c 0,0.02 -0.002,0.044 -0.006,0.071 C 1.029,-0.13 1.024,-0.102 1.017,-0.073 1.011,-0.043 1.002,-0.014 0.992,0.015 0.981,0.044 0.969,0.072 0.955,0.097 0.941,0.122 0.925,0.144 0.907,0.163 0.89,0.181 0.87,0.195 0.849,0.203 0.842,0.206 0.836,0.207 0.83,0.208 0.824,0.209 0.817,0.21 0.811,0.21 H 0.807 C 0.79,0.209 0.774,0.206 0.759,0.199 0.745,0.193 0.732,0.185 0.721,0.174 0.71,0.163 0.702,0.15 0.696,0.136 0.69,0.121 0.687,0.105 0.687,0.087 v -0.151 c 0,-0.02 -0.006,-0.037 -0.017,-0.05 C 0.658,-0.128 0.643,-0.136 0.624,-0.14 0.623,-0.14 0.621,-0.141 0.62,-0.141 Z"
         style="fill-rule:nonzero"
         id="path1812" /><path
         d="m 1.038,-0.614 c 0,0.037 -0.004,0.074 -0.01,0.11 -0.007,0.037 -0.017,0.072 -0.03,0.107 -0.004,0.008 -0.007,0.016 -0.01,0.024 -0.004,0.008 -0.008,0.016 -0.011,0.024 -0.002,0.003 -0.004,0.006 -0.006,0.009 -0.001,0.003 -0.003,0.006 -0.004,0.01 -0.005,0.017 -0.011,0.035 -0.016,0.053 -0.005,0.018 -0.01,0.035 -0.016,0.053 0,0.001 0,0.002 0,0.003 0,0.004 0.001,0.006 0.003,0.009 0.003,0.002 0.006,0.004 0.01,0.006 0.003,0.002 0.007,0.003 0.01,0.005 0.004,0.001 0.006,0.001 0.008,0.002 -0.002,0.041 -0.009,0.083 -0.02,0.125 -0.002,0.008 -0.005,0.019 -0.01,0.033 C 0.932,-0.027 0.927,-0.012 0.92,0.004 0.914,0.02 0.907,0.036 0.899,0.052 0.891,0.068 0.882,0.083 0.873,0.096 0.863,0.109 0.853,0.12 0.843,0.128 0.832,0.136 0.821,0.14 0.81,0.14 H 0.807 C 0.799,0.14 0.793,0.139 0.787,0.136 0.781,0.133 0.776,0.129 0.771,0.124 0.767,0.119 0.763,0.114 0.761,0.107 0.758,0.101 0.757,0.094 0.757,0.087 V -0.064 C 0.757,-0.083 0.754,-0.1 0.748,-0.117 0.741,-0.133 0.733,-0.148 0.721,-0.161 0.71,-0.175 0.697,-0.185 0.681,-0.194 0.666,-0.202 0.649,-0.208 0.63,-0.21 c -0.002,0 -0.005,0 -0.007,0 H 0.609 c -0.002,0 -0.004,0 -0.007,0 -0.019,0.002 -0.036,0.008 -0.051,0.016 -0.015,0.009 -0.029,0.019 -0.04,0.033 C 0.5,-0.148 0.492,-0.133 0.485,-0.117 0.479,-0.1 0.476,-0.083 0.476,-0.064 V 0.087 C 0.476,0.103 0.471,0.115 0.461,0.125 0.45,0.135 0.438,0.14 0.423,0.14 0.411,0.14 0.4,0.136 0.39,0.128 0.379,0.119 0.369,0.109 0.36,0.096 0.351,0.083 0.342,0.068 0.334,0.052 0.326,0.036 0.319,0.02 0.312,0.004 0.306,-0.012 0.301,-0.027 0.296,-0.041 0.292,-0.055 0.288,-0.066 0.286,-0.074 0.281,-0.095 0.276,-0.115 0.273,-0.136 0.27,-0.157 0.267,-0.178 0.266,-0.199 c 0.001,0 0.004,-0.001 0.007,-0.001 0.003,-0.001 0.007,-0.002 0.01,-0.004 0.003,-0.001 0.006,-0.003 0.009,-0.005 0.003,-0.002 0.004,-0.005 0.004,-0.007 0,-0.001 0,-0.001 0,-0.001 C 0.295,-0.218 0.295,-0.218 0.295,-0.218 0.29,-0.237 0.285,-0.255 0.281,-0.274 0.276,-0.293 0.271,-0.312 0.265,-0.33 0.264,-0.334 0.262,-0.339 0.259,-0.344 0.255,-0.349 0.253,-0.354 0.251,-0.358 0.247,-0.366 0.244,-0.374 0.241,-0.382 0.237,-0.39 0.234,-0.399 0.231,-0.407 0.207,-0.473 0.195,-0.543 0.195,-0.614 v -0.035 c 0,-0.027 0.005,-0.052 0.015,-0.076 0.011,-0.023 0.024,-0.043 0.042,-0.061 0.017,-0.017 0.038,-0.031 0.061,-0.041 0.023,-0.01 0.048,-0.015 0.075,-0.015 h 0.035 c 0.023,0 0.046,0.002 0.069,0.008 0.022,0.005 0.044,0.013 0.064,0.023 0.01,0.005 0.02,0.01 0.029,0.014 0.009,0.005 0.02,0.007 0.031,0.007 0.012,0 0.022,-0.002 0.031,-0.007 0.01,-0.004 0.02,-0.009 0.029,-0.014 0.015,-0.007 0.029,-0.013 0.042,-0.017 0.014,-0.004 0.027,-0.008 0.041,-0.01 0.013,-0.002 0.027,-0.003 0.041,-0.004 0.014,0 0.029,0 0.044,0 0.027,0 0.052,0.005 0.075,0.015 0.024,0.01 0.044,0.024 0.062,0.041 0.018,0.018 0.031,0.038 0.041,0.061 0.011,0.024 0.016,0.049 0.016,0.076 z"
         style="fill:#f2f2f2;fill-rule:nonzero"
         id="path1814" /><path
         d="M 0.616,-0.649 C 0.584,-0.649 0.553,-0.656 0.523,-0.67 0.514,-0.675 0.506,-0.679 0.498,-0.683 0.491,-0.687 0.483,-0.69 0.475,-0.693 0.468,-0.696 0.46,-0.698 0.451,-0.7 0.443,-0.701 0.434,-0.702 0.423,-0.702 c -0.009,0 -0.018,-0.004 -0.025,-0.01 -0.006,-0.007 -0.01,-0.016 -0.01,-0.025 0,-0.01 0.004,-0.018 0.011,-0.025 0.007,-0.007 0.015,-0.01 0.024,-0.01 0.018,0 0.035,0.002 0.053,0.006 0.017,0.004 0.033,0.01 0.049,0.018 0.009,0.005 0.016,0.008 0.023,0.012 0.007,0.003 0.014,0.006 0.021,0.009 0.007,0.002 0.014,0.004 0.022,0.005 0.008,0.002 0.016,0.002 0.025,0.002 0.009,0 0.017,0 0.024,-0.002 0.008,-0.001 0.015,-0.003 0.021,-0.005 0.007,-0.002 0.013,-0.005 0.019,-0.008 l 0.029,-0.014 c 0.015,-0.008 0.032,-0.014 0.049,-0.017 0.017,-0.004 0.035,-0.006 0.052,-0.006 0.009,0 0.017,0.003 0.024,0.01 0.007,0.007 0.01,0.015 0.01,0.025 0,0.009 -0.003,0.017 -0.01,0.024 -0.007,0.007 -0.015,0.011 -0.024,0.011 -0.012,0 -0.024,0.001 -0.036,0.004 -0.012,0.002 -0.023,0.006 -0.034,0.012 L 0.709,-0.67 C 0.695,-0.663 0.68,-0.658 0.664,-0.654 0.648,-0.651 0.632,-0.649 0.616,-0.649 Z m 0.351,0.32 v 0.101 c 0,0.004 0,0.008 0,0.011 0,0.004 0,0.008 -0.001,0.012 0,0.005 -0.001,0.01 -0.004,0.014 -0.002,0.005 -0.006,0.009 -0.01,0.012 -0.004,0.003 -0.008,0.006 -0.013,0.007 -0.005,0.002 -0.009,0.003 -0.014,0.003 -0.01,0 -0.018,-0.003 -0.025,-0.01 -0.007,-0.007 -0.01,-0.015 -0.01,-0.026 0,-0.007 0.003,-0.015 0.008,-0.022 0.006,-0.008 0.013,-0.016 0.019,-0.023 0.006,-0.008 0.012,-0.016 0.017,-0.025 0.002,-0.003 0.005,-0.007 0.008,-0.012 0.003,-0.006 0.006,-0.011 0.009,-0.017 0.003,-0.005 0.007,-0.01 0.009,-0.015 0.003,-0.005 0.006,-0.008 0.007,-0.01 z m -0.702,0 c 0.001,0.002 0.004,0.005 0.007,0.01 0.003,0.005 0.006,0.01 0.009,0.016 0.004,0.005 0.007,0.011 0.01,0.016 0.003,0.006 0.005,0.009 0.007,0.012 0.006,0.009 0.012,0.017 0.018,0.025 0.006,0.008 0.012,0.016 0.018,0.023 0.006,0.007 0.008,0.015 0.008,0.022 0,0.011 -0.003,0.019 -0.01,0.026 -0.007,0.007 -0.015,0.01 -0.025,0.01 -0.009,0 -0.017,-0.003 -0.024,-0.01 C 0.277,-0.185 0.271,-0.192 0.267,-0.199 0.266,-0.209 0.265,-0.219 0.265,-0.228 Z"
         style="fill:#a6a6a6;fill-rule:nonzero"
         id="path1816" /></g></g></svg>
