<?xml version="1.0" encoding="UTF-8" standalone="no"?>
<svg
   width="7.98"
   height="9.1949997"
   viewBox="0 0 7.98 9.1949997"
   version="1.1"
   xml:space="preserve"
   style="clip-rule:evenodd;fill-rule:evenodd;stroke-linejoin:round;stroke-miterlimit:2"
   id="svg20568"
   sodipodi:docname="emojis.svg"
   xmlns:inkscape="http://www.inkscape.org/namespaces/inkscape"
   xmlns:sodipodi="http://sodipodi.sourceforge.net/DTD/sodipodi-0.dtd"
   xmlns="http://www.w3.org/2000/svg"
   xmlns:svg="http://www.w3.org/2000/svg"><defs
     id="defs20572" /><sodipodi:namedview
     id="namedview20570"
     pagecolor="#505050"
     bordercolor="#eeeeee"
     borderopacity="1"
     inkscape:pageshadow="0"
     inkscape:pageopacity="0"
     inkscape:pagecheckerboard="0" /><g
     transform="matrix(0.24,0,0,0.24,-709.5162,-912.3594)"
     id="g20566"><g
       transform="matrix(62.5,0,0,62.5,2954.38,3839.06)"
       id="g18118"><path
         d="M 0.298,0.012 C 0.288,-0.027 0.273,-0.063 0.255,-0.096 0.236,-0.13 0.2,-0.182 0.146,-0.253 0.107,-0.306 0.082,-0.339 0.073,-0.353 0.058,-0.375 0.047,-0.396 0.041,-0.415 0.034,-0.434 0.031,-0.454 0.031,-0.473 c 0,-0.036 0.012,-0.067 0.036,-0.091 0.024,-0.024 0.054,-0.037 0.089,-0.037 0.036,0 0.067,0.013 0.094,0.038 0.019,0.019 0.035,0.048 0.048,0.085 0.011,-0.037 0.026,-0.065 0.045,-0.084 0.027,-0.026 0.059,-0.039 0.094,-0.039 0.035,0 0.065,0.012 0.089,0.036 0.025,0.025 0.037,0.053 0.037,0.087 0,0.029 -0.007,0.06 -0.021,0.092 -0.015,0.031 -0.042,0.073 -0.084,0.124 -0.053,0.068 -0.092,0.123 -0.116,0.166 -0.019,0.034 -0.034,0.07 -0.044,0.108 z"
         style="fill-rule:nonzero"
         id="path18116" /></g></g></svg>
