<?xml version="1.0" encoding="UTF-8" standalone="no"?>
<svg
   width="6.7199998"
   height="9.1949997"
   viewBox="0 0 6.7199998 9.1949997"
   version="1.1"
   xml:space="preserve"
   style="clip-rule:evenodd;fill-rule:evenodd;stroke-linejoin:round;stroke-miterlimit:2"
   id="svg20568"
   sodipodi:docname="emojis.svg"
   xmlns:inkscape="http://www.inkscape.org/namespaces/inkscape"
   xmlns:sodipodi="http://sodipodi.sourceforge.net/DTD/sodipodi-0.dtd"
   xmlns="http://www.w3.org/2000/svg"
   xmlns:svg="http://www.w3.org/2000/svg"><defs
     id="defs20572" /><sodipodi:namedview
     id="namedview20570"
     pagecolor="#505050"
     bordercolor="#eeeeee"
     borderopacity="1"
     inkscape:pageshadow="0"
     inkscape:pageopacity="0"
     inkscape:pagecheckerboard="0" /><g
     transform="matrix(0.24,0,0,0.24,-718.4226,-912.3594)"
     id="g20566"><g
       transform="matrix(62.5,0,0,62.5,2991.49,3839.06)"
       id="g18122"><path
         d="m 0.254,-0.601 c 0.029,0.049 0.065,0.102 0.107,0.158 0.049,0.065 0.089,0.115 0.118,0.148 C 0.455,-0.27 0.416,-0.22 0.361,-0.147 0.317,-0.088 0.282,-0.035 0.255,0.012 0.246,-0.005 0.234,-0.025 0.219,-0.047 0.192,-0.086 0.16,-0.132 0.121,-0.184 0.112,-0.195 0.082,-0.232 0.031,-0.295 c 0.033,-0.037 0.075,-0.091 0.127,-0.16 0.039,-0.052 0.071,-0.1 0.096,-0.146 z"
         style="fill-rule:nonzero"
         id="path18120" /></g></g></svg>
