<?xml version="1.0" encoding="UTF-8" standalone="no"?>
<svg
   width="12.63"
   height="16.844999"
   viewBox="0 0 12.63 16.844999"
   version="1.1"
   xml:space="preserve"
   style="clip-rule:evenodd;fill-rule:evenodd;stroke-linejoin:round;stroke-miterlimit:2"
   id="svg20568"
   sodipodi:docname="emojis.svg"
   xmlns:inkscape="http://www.inkscape.org/namespaces/inkscape"
   xmlns:sodipodi="http://sodipodi.sourceforge.net/DTD/sodipodi-0.dtd"
   xmlns="http://www.w3.org/2000/svg"
   xmlns:svg="http://www.w3.org/2000/svg"><defs
     id="defs20572" /><sodipodi:namedview
     id="namedview20570"
     pagecolor="#505050"
     bordercolor="#eeeeee"
     borderopacity="1"
     inkscape:pageshadow="0"
     inkscape:pageopacity="0"
     inkscape:pagecheckerboard="0" /><g
     transform="matrix(0.24,0,0,0.24,-770.0982,-907.6794)"
     id="g20566"><g
       transform="matrix(62.5,0,0,62.5,3200.93,3839.06)"
       id="g18172"><path
         d="M 0.967,0.07 C 0.967,0.09 0.964,0.108 0.956,0.125 0.949,0.141 0.938,0.156 0.926,0.169 0.913,0.182 0.898,0.192 0.881,0.199 0.864,0.207 0.846,0.21 0.827,0.21 H 0.265 C 0.246,0.21 0.228,0.207 0.211,0.199 0.194,0.192 0.179,0.182 0.166,0.169 0.153,0.157 0.143,0.142 0.136,0.125 0.129,0.108 0.125,0.09 0.125,0.07 v -0.842 c 0,-0.019 0.004,-0.037 0.011,-0.054 0.008,-0.017 0.018,-0.032 0.031,-0.045 0.012,-0.013 0.027,-0.023 0.044,-0.03 0.017,-0.008 0.035,-0.012 0.054,-0.012 h 0.562 c 0.019,0 0.038,0.004 0.055,0.011 0.017,0.008 0.032,0.018 0.044,0.03 0.013,0.013 0.023,0.028 0.03,0.045 0.008,0.017 0.011,0.035 0.011,0.055 z"
         style="fill-rule:nonzero"
         id="path18162" /><path
         d="M 0.897,0.07 C 0.897,0.08 0.896,0.089 0.892,0.098 0.888,0.107 0.883,0.114 0.877,0.12 0.87,0.127 0.863,0.132 0.854,0.135 0.846,0.139 0.837,0.141 0.827,0.141 H 0.266 C 0.256,0.141 0.247,0.139 0.238,0.135 0.229,0.132 0.222,0.127 0.216,0.12 0.209,0.114 0.204,0.107 0.201,0.098 0.197,0.089 0.195,0.08 0.195,0.07 v -0.842 c 0,-0.01 0.002,-0.019 0.006,-0.027 0.003,-0.009 0.008,-0.016 0.015,-0.023 0.006,-0.006 0.013,-0.011 0.022,-0.015 0.009,-0.003 0.018,-0.005 0.028,-0.005 h 0.561 c 0.01,0 0.019,0.002 0.027,0.005 0.009,0.004 0.016,0.009 0.023,0.015 0.006,0.007 0.011,0.014 0.015,0.023 0.004,0.008 0.005,0.017 0.005,0.027 z"
         style="fill:#f2f2f2;fill-rule:nonzero"
         id="path18164" /><path
         d="m 0.23,-0.176 v -0.596 c 0,-0.01 0.003,-0.018 0.01,-0.025 0.007,-0.007 0.015,-0.01 0.025,-0.01 h 0.562 c 0.009,0 0.018,0.003 0.025,0.01 0.006,0.007 0.01,0.015 0.01,0.025 v 0.526 C 0.852,-0.237 0.841,-0.229 0.828,-0.219 0.815,-0.209 0.801,-0.2 0.786,-0.19 0.771,-0.181 0.756,-0.171 0.74,-0.162 0.723,-0.153 0.707,-0.145 0.691,-0.138 0.675,-0.131 0.66,-0.126 0.645,-0.122 0.63,-0.118 0.616,-0.116 0.603,-0.116 0.575,-0.116 0.544,-0.117 0.511,-0.119 0.479,-0.121 0.446,-0.124 0.413,-0.129 0.379,-0.133 0.347,-0.14 0.316,-0.147 0.284,-0.155 0.256,-0.164 0.23,-0.176 Z"
         style="fill:#f03a17;fill-rule:nonzero"
         id="path18166" /><path
         d="m 0.23,-0.176 0.211,-0.07 c 0.034,-0.011 0.069,-0.02 0.104,-0.026 0.034,-0.006 0.07,-0.009 0.106,-0.009 0.018,0 0.036,0 0.054,0.001 0.018,0 0.036,0.002 0.054,0.004 0.018,0.002 0.035,0.006 0.053,0.011 0.017,0.004 0.034,0.011 0.05,0.019 V 0.07 c 0,0.01 -0.004,0.018 -0.011,0.025 -0.007,0.007 -0.015,0.01 -0.024,0.01 H 0.265 C 0.256,0.105 0.248,0.102 0.241,0.095 0.234,0.088 0.23,0.08 0.23,0.07 Z"
         style="fill:#2b2b2b;fill-rule:nonzero"
         id="path18168" /><path
         d="m 0.406,-0.544 c 0,-0.027 0.005,-0.052 0.015,-0.075 0.01,-0.024 0.024,-0.044 0.041,-0.062 0.018,-0.017 0.038,-0.031 0.061,-0.041 0.024,-0.01 0.049,-0.015 0.076,-0.015 0.026,0 0.051,0.005 0.075,0.015 0.023,0.01 0.044,0.024 0.061,0.041 0.018,0.018 0.032,0.038 0.042,0.062 0.01,0.023 0.015,0.048 0.015,0.075 0,0.027 -0.005,0.052 -0.015,0.075 -0.01,0.024 -0.024,0.044 -0.042,0.062 -0.017,0.017 -0.038,0.031 -0.061,0.041 -0.024,0.01 -0.049,0.015 -0.075,0.015 -0.027,0 -0.052,-0.005 -0.076,-0.015 C 0.5,-0.376 0.48,-0.39 0.462,-0.407 0.445,-0.425 0.431,-0.445 0.421,-0.469 0.411,-0.492 0.406,-0.517 0.406,-0.544 Z"
         style="fill:#f2f2f2;fill-rule:nonzero"
         id="path18170" /></g></g></svg>
