<?xml version="1.0" encoding="UTF-8" standalone="no"?>
<svg
   width="15.795"
   height="15.795"
   viewBox="0 0 15.795 15.795"
   version="1.1"
   xml:space="preserve"
   style="clip-rule:evenodd;fill-rule:evenodd;stroke-linejoin:round;stroke-miterlimit:2"
   id="svg20568"
   sodipodi:docname="emojis.svg"
   xmlns:inkscape="http://www.inkscape.org/namespaces/inkscape"
   xmlns:sodipodi="http://sodipodi.sourceforge.net/DTD/sodipodi-0.dtd"
   xmlns="http://www.w3.org/2000/svg"
   xmlns:svg="http://www.w3.org/2000/svg"><defs
     id="defs20572" /><sodipodi:namedview
     id="namedview20570"
     pagecolor="#505050"
     bordercolor="#eeeeee"
     borderopacity="1"
     inkscape:pageshadow="0"
     inkscape:pageopacity="0"
     inkscape:pagecheckerboard="0" /><g
     transform="matrix(0.24,0,0,0.24,-205.91388,-925.1898)"
     id="g20566"><g
       transform="matrix(62.5,0,0,62.5,850.162,3909.77)"
       id="g18286"><rect
         x="0.125"
         y="-0.87699997"
         width="1.053"
         height="1.053"
         style="fill-rule:nonzero"
         id="rect18280" /><rect
         x="0.19499999"
         y="-0.80699998"
         width="0.912"
         height="0.912"
         style="fill:#16c60c;fill-rule:nonzero"
         id="rect18282" /><path
         d="m 0.511,-0.099 0.596,-0.603 v 0.105 L 0.511,0 0.371,-0.141 0.195,0.035 V -0.07 l 0.176,-0.17 z m -0.14,-0.463 v -0.01 l -0.106,-0.105 0.025,-0.025 0.098,0.098 0.098,-0.098 0.025,0.025 -0.105,0.105 v 0.01 h 0.07 v 0.036 h -0.07 v 0.035 h 0.07 v 0.034 h -0.07 v 0.036 H 0.371 V -0.457 H 0.3 V -0.491 H 0.371 V -0.526 H 0.3 v -0.036 z"
         style="fill:#ffffff;fill-rule:nonzero"
         id="path18284" /></g></g></svg>
