<?xml version="1.0" encoding="UTF-8" standalone="no"?>
<svg
   width="12.63"
   height="14.73"
   viewBox="0 0 12.63 14.73"
   version="1.1"
   xml:space="preserve"
   style="clip-rule:evenodd;fill-rule:evenodd;stroke-linejoin:round;stroke-miterlimit:2"
   id="svg20568"
   sodipodi:docname="emojis.svg"
   xmlns:inkscape="http://www.inkscape.org/namespaces/inkscape"
   xmlns:sodipodi="http://sodipodi.sourceforge.net/DTD/sodipodi-0.dtd"
   xmlns="http://www.w3.org/2000/svg"
   xmlns:svg="http://www.w3.org/2000/svg"><defs
     id="defs20572" /><sodipodi:namedview
     id="namedview20570"
     pagecolor="#505050"
     bordercolor="#eeeeee"
     borderopacity="1"
     inkscape:pageshadow="0"
     inkscape:pageopacity="0"
     inkscape:pagecheckerboard="0" /><g
     transform="matrix(0.24,0,0,0.24,-68.15988,-925.7148)"
     id="g20566"><g
       transform="matrix(62.5,0,0,62.5,276.187,3909.77)"
       id="g18222"><path
         d="m 0.835,-0.599 c 0.009,0.008 0.017,0.017 0.025,0.025 0.008,0.008 0.017,0.016 0.025,0.024 0.026,0.027 0.047,0.058 0.061,0.091 0.014,0.034 0.021,0.07 0.021,0.108 0,0.038 -0.007,0.074 -0.021,0.108 C 0.932,-0.21 0.911,-0.179 0.885,-0.152 0.877,-0.144 0.868,-0.136 0.86,-0.128 0.852,-0.12 0.844,-0.111 0.835,-0.103 L 0.792,-0.146 V 0.14 H 0.623 C 0.586,0.106 0.551,0.071 0.517,0.036 0.482,0 0.447,-0.035 0.412,-0.07 H 0.23 C 0.216,-0.07 0.202,-0.073 0.189,-0.079 0.177,-0.084 0.166,-0.092 0.156,-0.101 0.146,-0.111 0.139,-0.122 0.133,-0.135 0.128,-0.147 0.125,-0.161 0.125,-0.176 v -0.35 c 0,-0.015 0.003,-0.029 0.008,-0.041 0.006,-0.013 0.013,-0.024 0.023,-0.034 0.01,-0.009 0.021,-0.017 0.033,-0.023 0.013,-0.005 0.027,-0.008 0.041,-0.008 h 0.182 c 0.035,-0.035 0.07,-0.071 0.105,-0.106 0.034,-0.035 0.069,-0.07 0.106,-0.104 h 0.169 v 0.286 z"
         style="fill-rule:nonzero"
         id="path18212" /><path
         d="m 0.651,0.07 -0.21,-0.211 -0.039,-0.222 0.039,-0.199 0.21,-0.21 0.023,0.281 c 0.002,0.023 0.005,0.047 0.007,0.07 0.003,0.023 0.005,0.046 0.005,0.07 0,0.024 -0.002,0.047 -0.005,0.07 -0.002,0.024 -0.005,0.047 -0.007,0.071 z"
         style="fill:#cccccc;fill-rule:nonzero"
         id="path18214" /><path
         d="m 0.441,-0.562 v 0.421 H 0.23 c -0.009,0 -0.018,-0.003 -0.024,-0.01 C 0.199,-0.158 0.195,-0.166 0.195,-0.176 v -0.35 c 0,-0.01 0.004,-0.018 0.011,-0.025 0.006,-0.007 0.015,-0.011 0.024,-0.011 z"
         style="fill:#757575;fill-rule:nonzero"
         id="path18216" /><rect
         x="0.65100002"
         y="-0.77200001"
         width="0.07"
         height="0.84200001"
         style="fill:#a6a6a6;fill-rule:nonzero"
         id="rect18218" /><path
         d="M 0.835,-0.202 0.786,-0.252 C 0.799,-0.265 0.809,-0.281 0.816,-0.298 0.823,-0.315 0.827,-0.333 0.827,-0.351 0.827,-0.37 0.823,-0.387 0.816,-0.405 0.809,-0.422 0.799,-0.437 0.786,-0.45 L 0.835,-0.5 c 0.021,0.021 0.036,0.043 0.047,0.068 0.01,0.025 0.015,0.052 0.015,0.081 0,0.029 -0.005,0.055 -0.015,0.08 -0.011,0.026 -0.026,0.048 -0.047,0.069 z"
         style="fill:#31d2f7;fill-rule:nonzero"
         id="path18220" /></g></g></svg>
