<?xml version="1.0" encoding="UTF-8" standalone="no"?>
<svg
   width="16.860001"
   height="14.73"
   viewBox="0 0 16.860001 14.73"
   version="1.1"
   xml:space="preserve"
   style="clip-rule:evenodd;fill-rule:evenodd;stroke-linejoin:round;stroke-miterlimit:2"
   id="svg20568"
   sodipodi:docname="emojis.svg"
   xmlns:inkscape="http://www.inkscape.org/namespaces/inkscape"
   xmlns:sodipodi="http://sodipodi.sourceforge.net/DTD/sodipodi-0.dtd"
   xmlns="http://www.w3.org/2000/svg"
   xmlns:svg="http://www.w3.org/2000/svg"><defs
     id="defs20572" /><sodipodi:namedview
     id="namedview20570"
     pagecolor="#505050"
     bordercolor="#eeeeee"
     borderopacity="1"
     inkscape:pageshadow="0"
     inkscape:pageopacity="0"
     inkscape:pagecheckerboard="0" /><g
     transform="matrix(0.24,0,0,0.24,-84.5514,-925.7148)"
     id="g20566"><g
       transform="matrix(62.5,0,0,62.5,344.485,3909.77)"
       id="g18234"><path
         d="m 1.034,-0.798 c 0.031,0.027 0.06,0.058 0.087,0.091 0.026,0.033 0.049,0.068 0.068,0.105 0.019,0.037 0.033,0.076 0.044,0.117 0.01,0.04 0.016,0.082 0.016,0.124 v 0.017 c 0,0.042 -0.005,0.084 -0.016,0.125 -0.01,0.041 -0.025,0.08 -0.044,0.117 C 1.171,-0.065 1.148,-0.029 1.122,0.004 1.095,0.038 1.066,0.068 1.034,0.096 0.994,0.055 0.954,0.014 0.913,-0.026 0.873,-0.066 0.833,-0.106 0.792,-0.146 V 0.14 H 0.623 C 0.586,0.106 0.551,0.071 0.517,0.036 0.482,0 0.447,-0.035 0.412,-0.07 H 0.23 C 0.216,-0.07 0.202,-0.073 0.189,-0.079 0.176,-0.084 0.165,-0.092 0.156,-0.101 0.146,-0.111 0.139,-0.122 0.133,-0.135 0.128,-0.147 0.125,-0.161 0.125,-0.176 v -0.35 c 0,-0.015 0.003,-0.029 0.008,-0.042 0.006,-0.012 0.013,-0.024 0.023,-0.033 0.009,-0.01 0.02,-0.017 0.033,-0.023 0.013,-0.005 0.027,-0.008 0.041,-0.008 h 0.182 c 0.035,-0.035 0.07,-0.071 0.105,-0.106 0.034,-0.035 0.069,-0.07 0.106,-0.104 h 0.169 v 0.286 c 0.041,-0.04 0.081,-0.081 0.121,-0.121 0.04,-0.04 0.08,-0.08 0.121,-0.121 z"
         style="fill-rule:nonzero"
         id="path18224" /><path
         d="m 0.651,0.07 -0.21,-0.211 -0.047,-0.222 0.047,-0.199 0.21,-0.21 0.027,0.275 c 0.002,0.024 0.005,0.046 0.008,0.069 0.003,0.023 0.005,0.046 0.005,0.069 0,0.024 -0.002,0.048 -0.005,0.072 -0.003,0.023 -0.006,0.047 -0.008,0.071 z"
         style="fill:#cccccc;fill-rule:nonzero"
         id="path18226" /><path
         d="m 0.441,-0.562 v 0.421 H 0.23 c -0.009,0 -0.018,-0.003 -0.024,-0.01 C 0.199,-0.158 0.195,-0.166 0.195,-0.176 v -0.35 c 0,-0.01 0.004,-0.018 0.011,-0.025 0.006,-0.007 0.015,-0.011 0.024,-0.011 z"
         style="fill:#757575;fill-rule:nonzero"
         id="path18228" /><rect
         x="0.65100002"
         y="-0.77200001"
         width="0.07"
         height="0.84200001"
         style="fill:#a6a6a6;fill-rule:nonzero"
         id="rect18230" /><path
         d="M 0.835,-0.202 0.786,-0.252 C 0.799,-0.265 0.809,-0.281 0.816,-0.298 0.823,-0.315 0.827,-0.333 0.827,-0.351 0.827,-0.37 0.823,-0.387 0.816,-0.405 0.809,-0.422 0.799,-0.437 0.786,-0.45 L 0.835,-0.5 c 0.021,0.021 0.036,0.043 0.047,0.068 0.01,0.025 0.015,0.052 0.015,0.081 0,0.029 -0.005,0.055 -0.015,0.08 -0.011,0.026 -0.026,0.048 -0.047,0.069 z m 0.1,0.099 -0.05,-0.049 C 0.912,-0.179 0.932,-0.209 0.946,-0.243 0.96,-0.278 0.967,-0.314 0.967,-0.351 0.967,-0.389 0.96,-0.424 0.946,-0.459 0.932,-0.493 0.912,-0.523 0.885,-0.55 l 0.05,-0.049 c 0.016,0.016 0.031,0.034 0.044,0.053 0.012,0.019 0.023,0.039 0.032,0.061 0.009,0.021 0.015,0.043 0.02,0.065 0.004,0.023 0.007,0.046 0.007,0.069 0,0.023 -0.003,0.046 -0.007,0.069 -0.005,0.022 -0.011,0.044 -0.02,0.065 -0.009,0.021 -0.02,0.042 -0.032,0.061 -0.013,0.019 -0.028,0.037 -0.044,0.053 z m 0.099,0.1 -0.05,-0.05 c 0.02,-0.02 0.038,-0.041 0.053,-0.064 0.015,-0.023 0.028,-0.048 0.039,-0.073 0.01,-0.025 0.018,-0.052 0.023,-0.079 0.006,-0.027 0.008,-0.054 0.008,-0.082 0,-0.028 -0.002,-0.055 -0.008,-0.082 C 1.094,-0.461 1.086,-0.487 1.075,-0.512 1.065,-0.538 1.052,-0.562 1.037,-0.585 1.021,-0.608 1.004,-0.629 0.984,-0.649 l 0.05,-0.049 c 0.047,0.047 0.083,0.1 0.107,0.159 0.025,0.059 0.037,0.122 0.037,0.188 0,0.032 -0.003,0.065 -0.01,0.096 -0.006,0.032 -0.015,0.063 -0.027,0.092 -0.012,0.03 -0.027,0.058 -0.045,0.085 -0.018,0.027 -0.039,0.052 -0.062,0.075 z"
         style="fill:#31d2f7;fill-rule:nonzero"
         id="path18232" /></g></g></svg>
