<?xml version="1.0" encoding="UTF-8" standalone="no"?>
<svg
   width="16.74"
   height="16.844999"
   viewBox="0 0 16.74 16.844999"
   version="1.1"
   xml:space="preserve"
   style="clip-rule:evenodd;fill-rule:evenodd;stroke-linejoin:round;stroke-miterlimit:2"
   id="svg20568"
   sodipodi:docname="emojis.svg"
   xmlns:inkscape="http://www.inkscape.org/namespaces/inkscape"
   xmlns:sodipodi="http://sodipodi.sourceforge.net/DTD/sodipodi-0.dtd"
   xmlns="http://www.w3.org/2000/svg"
   xmlns:svg="http://www.w3.org/2000/svg"><defs
     id="defs20572" /><sodipodi:namedview
     id="namedview20570"
     pagecolor="#505050"
     bordercolor="#eeeeee"
     borderopacity="1"
     inkscape:pageshadow="0"
     inkscape:pageopacity="0"
     inkscape:pagecheckerboard="0" /><g
     transform="matrix(0.24,0,0,0.24,-164.82492,-924.6498)"
     id="g20566"><g
       transform="matrix(62.5,0,0,62.5,678.958,3909.77)"
       id="g18268"><path
         d="M 0.997,0.21 C 0.963,0.21 0.931,0.204 0.902,0.191 0.872,0.178 0.846,0.161 0.824,0.139 0.802,0.117 0.785,0.091 0.772,0.061 0.759,0.031 0.752,0 0.752,-0.034 c 0,-0.033 0.007,-0.065 0.02,-0.094 0.013,-0.03 0.03,-0.056 0.052,-0.078 0.022,-0.022 0.048,-0.04 0.078,-0.053 0.029,-0.012 0.061,-0.019 0.095,-0.019 0.011,0 0.023,0.001 0.035,0.003 V -0.542 L 0.613,-0.5 v 0.466 C 0.613,0 0.607,0.031 0.594,0.061 0.581,0.091 0.564,0.117 0.542,0.139 0.519,0.161 0.493,0.178 0.464,0.191 0.434,0.204 0.403,0.21 0.369,0.21 0.347,0.21 0.325,0.208 0.304,0.202 0.283,0.196 0.264,0.188 0.246,0.177 0.228,0.166 0.211,0.154 0.197,0.139 0.182,0.124 0.169,0.108 0.158,0.09 0.148,0.072 0.14,0.052 0.134,0.031 0.128,0.01 0.125,-0.011 0.125,-0.034 c 0,-0.033 0.006,-0.065 0.019,-0.094 0.013,-0.03 0.031,-0.056 0.053,-0.078 0.022,-0.022 0.048,-0.04 0.077,-0.053 0.03,-0.012 0.062,-0.019 0.095,-0.019 0.012,0 0.023,0.001 0.035,0.003 v -0.554 l 0.837,-0.084 v 0.879 C 1.241,-0.011 1.238,0.01 1.232,0.031 1.226,0.052 1.218,0.072 1.207,0.09 1.197,0.108 1.184,0.124 1.169,0.139 1.154,0.154 1.138,0.166 1.12,0.177 1.102,0.188 1.082,0.196 1.062,0.202 1.041,0.208 1.019,0.21 0.997,0.21 Z"
         style="fill-rule:nonzero"
         id="path18264" /><path
         d="m 0.474,-0.766 0.697,-0.069 v 0.801 C 1.171,-0.01 1.166,0.013 1.157,0.034 1.148,0.055 1.136,0.074 1.12,0.09 1.104,0.105 1.086,0.118 1.064,0.127 1.043,0.136 1.021,0.141 0.997,0.141 0.972,0.141 0.95,0.136 0.929,0.127 0.908,0.118 0.889,0.105 0.873,0.09 0.858,0.074 0.845,0.055 0.836,0.034 0.827,0.013 0.822,-0.01 0.822,-0.034 c 0,-0.024 0.005,-0.046 0.014,-0.068 0.009,-0.021 0.022,-0.039 0.037,-0.055 0.016,-0.016 0.035,-0.028 0.056,-0.037 0.021,-0.009 0.043,-0.014 0.068,-0.014 0.018,0 0.037,0.003 0.055,0.009 0.018,0.006 0.034,0.015 0.049,0.027 v -0.447 l -0.558,0.056 v 0.529 C 0.543,-0.01 0.539,0.013 0.53,0.034 0.521,0.055 0.508,0.074 0.492,0.09 0.477,0.105 0.458,0.118 0.437,0.127 0.416,0.136 0.393,0.141 0.369,0.141 0.345,0.141 0.322,0.136 0.301,0.127 0.28,0.118 0.262,0.105 0.246,0.09 0.23,0.074 0.218,0.055 0.208,0.034 0.199,0.013 0.195,-0.01 0.195,-0.034 c 0,-0.024 0.004,-0.046 0.013,-0.068 0.01,-0.021 0.022,-0.039 0.038,-0.055 0.016,-0.016 0.034,-0.028 0.055,-0.037 0.021,-0.009 0.044,-0.014 0.068,-0.014 0.019,0 0.037,0.003 0.055,0.009 0.018,0.006 0.034,0.015 0.05,0.027 z"
         style="fill:#735bc1;fill-rule:nonzero"
         id="path18266" /></g></g></svg>
