<?xml version="1.0" encoding="UTF-8" standalone="no"?>
<svg
   width="16.844999"
   height="16.844999"
   viewBox="0 0 16.844999 16.844999"
   version="1.1"
   xml:space="preserve"
   style="clip-rule:evenodd;fill-rule:evenodd;stroke-linejoin:round;stroke-miterlimit:2"
   id="svg20568"
   sodipodi:docname="emojis.svg"
   xmlns:inkscape="http://www.inkscape.org/namespaces/inkscape"
   xmlns:sodipodi="http://sodipodi.sourceforge.net/DTD/sodipodi-0.dtd"
   xmlns="http://www.w3.org/2000/svg"
   xmlns:svg="http://www.w3.org/2000/svg"><defs
     id="defs20572" /><sodipodi:namedview
     id="namedview20570"
     pagecolor="#505050"
     bordercolor="#eeeeee"
     borderopacity="1"
     inkscape:pageshadow="0"
     inkscape:pageopacity="0"
     inkscape:pagecheckerboard="0" /><g
     transform="matrix(0.24,0,0,0.24,-185.31804,-924.6498)"
     id="g20566"><g
       transform="matrix(62.5,0,0,62.5,764.346,3909.77)"
       id="g18278"><path
         d="m 1.038,-0.632 h 0.21 v 0.491 c 0,0.024 -0.005,0.047 -0.014,0.068 -0.009,0.022 -0.022,0.04 -0.037,0.056 C 1.181,-0.001 1.162,0.012 1.141,0.021 1.12,0.031 1.097,0.035 1.073,0.035 1.045,0.035 1.019,0.029 0.994,0.017 0.969,0.004 0.949,-0.013 0.932,-0.035 0.916,-0.013 0.895,0.004 0.87,0.017 0.846,0.029 0.82,0.035 0.792,0.035 0.771,0.035 0.751,0.031 0.732,0.024 0.712,0.017 0.695,0.006 0.679,-0.007 0.672,0.025 0.659,0.054 0.642,0.08 0.625,0.107 0.604,0.13 0.58,0.149 0.556,0.169 0.529,0.184 0.499,0.194 0.469,0.205 0.438,0.21 0.406,0.21 0.367,0.21 0.331,0.203 0.297,0.188 0.263,0.173 0.233,0.153 0.208,0.128 0.182,0.103 0.162,0.073 0.147,0.039 0.132,0.005 0.125,-0.032 0.125,-0.07 0.125,-0.094 0.128,-0.117 0.134,-0.14 0.14,-0.163 0.149,-0.185 0.16,-0.206 0.172,-0.226 0.185,-0.245 0.201,-0.262 0.218,-0.279 0.236,-0.294 0.256,-0.307 0.226,-0.325 0.203,-0.349 0.186,-0.378 0.169,-0.407 0.16,-0.439 0.16,-0.474 c 0,-0.025 0.005,-0.048 0.014,-0.071 0.009,-0.022 0.021,-0.042 0.037,-0.059 0.015,-0.017 0.034,-0.031 0.055,-0.042 0.022,-0.011 0.045,-0.018 0.069,-0.02 v -0.247 h 0.703 z"
         style="fill-rule:nonzero"
         id="path18270" /><path
         d="m 0.406,-0.842 h 0.07 v 0.368 c 0,0.017 -0.003,0.033 -0.01,0.048 -0.006,0.015 -0.015,0.028 -0.026,0.039 -0.011,0.011 -0.024,0.02 -0.039,0.026 -0.015,0.007 -0.031,0.01 -0.048,0.01 -0.017,0 -0.033,-0.003 -0.048,-0.01 C 0.29,-0.367 0.277,-0.376 0.266,-0.387 0.255,-0.398 0.246,-0.411 0.24,-0.426 0.234,-0.441 0.23,-0.457 0.23,-0.474 c 0,-0.017 0.004,-0.033 0.01,-0.048 0.007,-0.015 0.016,-0.027 0.027,-0.039 0.011,-0.011 0.024,-0.019 0.038,-0.026 0.015,-0.006 0.031,-0.01 0.048,-0.01 0.009,0 0.018,0.001 0.027,0.003 0.009,0.003 0.017,0.005 0.026,0.009 z"
         style="fill:#b4a0ff;fill-rule:nonzero"
         id="path18272" /><path
         d="m 0.546,-0.842 h 0.421 v 0.21 H 0.616 V -0.07 C 0.616,-0.041 0.611,-0.014 0.6,0.011 0.589,0.037 0.573,0.059 0.554,0.078 0.535,0.097 0.513,0.112 0.488,0.124 0.462,0.135 0.435,0.14 0.406,0.14 0.377,0.14 0.35,0.135 0.324,0.124 0.298,0.112 0.276,0.097 0.257,0.078 0.238,0.059 0.223,0.037 0.212,0.011 0.201,-0.014 0.195,-0.041 0.195,-0.07 c 0,-0.029 0.006,-0.057 0.017,-0.082 0.011,-0.026 0.026,-0.048 0.045,-0.067 0.019,-0.019 0.041,-0.034 0.067,-0.045 0.026,-0.011 0.053,-0.017 0.082,-0.017 0.026,0 0.051,0.005 0.075,0.014 0.024,0.009 0.045,0.023 0.065,0.04 z"
         style="fill:#735bc1;fill-rule:nonzero"
         id="path18274" /><path
         d="m 0.827,-0.562 h 0.351 v 0.421 c 0,0.015 -0.003,0.029 -0.009,0.041 -0.005,0.013 -0.013,0.024 -0.022,0.034 -0.009,0.009 -0.021,0.017 -0.033,0.023 -0.013,0.005 -0.027,0.008 -0.041,0.008 -0.015,0 -0.029,-0.003 -0.041,-0.008 C 1.019,-0.049 1.008,-0.057 0.998,-0.066 0.989,-0.076 0.981,-0.087 0.976,-0.1 0.97,-0.112 0.967,-0.126 0.967,-0.141 c 0,-0.014 0.003,-0.028 0.009,-0.041 0.005,-0.012 0.013,-0.023 0.022,-0.033 0.01,-0.009 0.021,-0.017 0.034,-0.022 0.012,-0.006 0.026,-0.009 0.041,-0.009 0.011,0 0.023,0.002 0.034,0.006 v -0.181 h -0.21 v 0.28 c 0,0.015 -0.003,0.029 -0.008,0.041 -0.006,0.013 -0.013,0.024 -0.023,0.034 -0.009,0.009 -0.02,0.017 -0.033,0.023 -0.013,0.005 -0.026,0.008 -0.041,0.008 -0.015,0 -0.028,-0.003 -0.041,-0.008 C 0.738,-0.049 0.727,-0.057 0.718,-0.066 0.708,-0.076 0.7,-0.087 0.695,-0.1 0.689,-0.112 0.687,-0.126 0.687,-0.141 c 0,-0.014 0.002,-0.028 0.008,-0.041 0.005,-0.012 0.013,-0.023 0.023,-0.033 0.009,-0.009 0.02,-0.017 0.033,-0.022 0.013,-0.006 0.026,-0.009 0.041,-0.009 0.012,0 0.023,0.002 0.035,0.006 z"
         style="fill:#886ce4;fill-rule:nonzero"
         id="path18276" /></g></g></svg>
