<?xml version="1.0" encoding="UTF-8" standalone="no"?>
<svg
   width="16.845001"
   height="16.845001"
   viewBox="0 0 16.845001 16.845001"
   version="1.1"
   xml:space="preserve"
   style="clip-rule:evenodd;fill-rule:evenodd;stroke-linejoin:round;stroke-miterlimit:2"
   id="svg20568"
   sodipodi:docname="emojis.svg"
   xmlns:inkscape="http://www.inkscape.org/namespaces/inkscape"
   xmlns:sodipodi="http://sodipodi.sourceforge.net/DTD/sodipodi-0.dtd"
   xmlns="http://www.w3.org/2000/svg"
   xmlns:svg="http://www.w3.org/2000/svg"><defs
     id="defs20572" /><sodipodi:namedview
     id="namedview20570"
     pagecolor="#505050"
     bordercolor="#eeeeee"
     borderopacity="1"
     inkscape:pageshadow="0"
     inkscape:pageopacity="0"
     inkscape:pagecheckerboard="0" /><g
     transform="matrix(0.24,0,0,0.24,-323.175,-924.6498)"
     id="g20566"><g
       transform="matrix(62.5,0,0,62.5,1338.75,3909.77)"
       id="g18346"><rect
         x="0.125"
         y="-0.91299999"
         width="1.123"
         height="1.123"
         style="fill-rule:nonzero"
         id="rect18340" /><rect
         x="0.19499999"
         y="-0.84200001"
         width="0.98199999"
         height="0.98199999"
         style="fill:#0046ff;fill-rule:nonzero"
         id="rect18342" /><path
         d="M 0.669,-0.597 C 0.659,-0.597 0.65,-0.599 0.642,-0.602 0.633,-0.606 0.626,-0.611 0.619,-0.617 0.613,-0.624 0.608,-0.631 0.604,-0.64 0.601,-0.648 0.599,-0.657 0.599,-0.667 c 0,-0.01 0.002,-0.019 0.005,-0.027 0.004,-0.009 0.009,-0.016 0.015,-0.023 0.007,-0.006 0.014,-0.011 0.023,-0.015 0.008,-0.003 0.017,-0.005 0.027,-0.005 0.01,0 0.019,0.002 0.027,0.005 0.009,0.004 0.016,0.009 0.023,0.015 0.006,0.007 0.011,0.014 0.015,0.023 0.003,0.008 0.005,0.017 0.005,0.027 0,0.01 -0.002,0.019 -0.005,0.027 -0.004,0.009 -0.009,0.016 -0.015,0.023 -0.007,0.006 -0.014,0.011 -0.023,0.015 -0.008,0.003 -0.017,0.005 -0.027,0.005 z m 0.088,0.035 c 0.007,0 0.013,0.002 0.018,0.006 0.006,0.003 0.01,0.008 0.013,0.014 l 0.106,0.21 c 0.002,0.006 0.003,0.011 0.003,0.016 0,0.01 -0.003,0.018 -0.01,0.025 -0.007,0.007 -0.015,0.01 -0.025,0.01 -0.007,0 -0.013,-0.002 -0.018,-0.005 C 0.838,-0.29 0.833,-0.294 0.831,-0.3 L 0.757,-0.448 v 0.097 c 0,0.001 0.001,0.006 0.004,0.015 0.004,0.01 0.007,0.021 0.012,0.036 0.005,0.014 0.01,0.03 0.016,0.047 0.006,0.017 0.011,0.033 0.016,0.048 l 0.022,0.064 H 0.757 V 0 c 0,0.01 -0.004,0.018 -0.01,0.025 C 0.74,0.032 0.731,0.035 0.722,0.035 0.712,0.035 0.704,0.032 0.697,0.025 0.69,0.018 0.687,0.01 0.687,0 V -0.141 H 0.651 V 0 c 0,0.01 -0.003,0.018 -0.01,0.025 C 0.634,0.032 0.626,0.035 0.616,0.035 0.607,0.035 0.599,0.032 0.592,0.025 0.585,0.018 0.581,0.009 0.581,0 V -0.141 H 0.511 L 0.533,-0.205 C 0.538,-0.22 0.543,-0.236 0.549,-0.253 0.555,-0.27 0.56,-0.286 0.565,-0.3 0.569,-0.315 0.573,-0.326 0.576,-0.336 0.58,-0.345 0.581,-0.35 0.581,-0.351 V -0.448 L 0.507,-0.3 c -0.003,0.006 -0.007,0.01 -0.013,0.014 -0.005,0.003 -0.011,0.005 -0.018,0.005 -0.009,0 -0.018,-0.003 -0.025,-0.01 -0.007,-0.007 -0.01,-0.015 -0.01,-0.025 0,-0.005 0.001,-0.01 0.004,-0.016 L 0.55,-0.542 C 0.553,-0.548 0.557,-0.553 0.563,-0.556 0.568,-0.56 0.574,-0.562 0.581,-0.562 Z"
         style="fill:#ffffff;fill-rule:nonzero"
         id="path18344" /></g></g></svg>
