<?xml version="1.0" encoding="UTF-8" standalone="no"?>
<svg
   width="16.845001"
   height="16.845001"
   viewBox="0 0 16.845001 16.845001"
   version="1.1"
   xml:space="preserve"
   style="clip-rule:evenodd;fill-rule:evenodd;stroke-linejoin:round;stroke-miterlimit:2"
   id="svg20568"
   sodipodi:docname="emojis.svg"
   xmlns:inkscape="http://www.inkscape.org/namespaces/inkscape"
   xmlns:sodipodi="http://sodipodi.sourceforge.net/DTD/sodipodi-0.dtd"
   xmlns="http://www.w3.org/2000/svg"
   xmlns:svg="http://www.w3.org/2000/svg"><defs
     id="defs20572" /><sodipodi:namedview
     id="namedview20570"
     pagecolor="#505050"
     bordercolor="#eeeeee"
     borderopacity="1"
     inkscape:pageshadow="0"
     inkscape:pageopacity="0"
     inkscape:pagecheckerboard="0" /><g
     transform="matrix(0.24,0,0,0.24,-405.5574,-924.6498)"
     id="g20566"><g
       transform="matrix(62.5,0,0,62.5,1682.01,3909.77)"
       id="g18378"><rect
         x="0.125"
         y="-0.91299999"
         width="1.123"
         height="1.123"
         style="fill-rule:nonzero"
         id="rect18372" /><rect
         x="0.19499999"
         y="-0.84200001"
         width="0.98199999"
         height="0.98199999"
         style="fill:#0046ff;fill-rule:nonzero"
         id="rect18374" /><path
         d="m 0.897,-0.421 c 0.01,0 0.019,0.001 0.027,0.005 0.009,0.004 0.016,0.009 0.023,0.015 0.006,0.007 0.011,0.014 0.015,0.023 0.003,0.008 0.005,0.017 0.005,0.027 v 0.281 c 0,0.009 -0.003,0.018 -0.01,0.025 -0.007,0.006 -0.015,0.01 -0.025,0.01 H 0.651 v -0.07 H 0.897 V -0.176 H 0.651 Z m -0.246,0.149 v -0.064 l -0.08,0.08 c -0.007,0.007 -0.015,0.01 -0.025,0.01 -0.01,0 -0.018,-0.003 -0.025,-0.01 L 0.416,-0.361 c -0.007,-0.007 -0.01,-0.015 -0.01,-0.025 0,-0.01 0.003,-0.018 0.01,-0.025 0.007,-0.007 0.015,-0.01 0.025,-0.01 0.01,0 0.018,0.003 0.025,0.01 l 0.08,0.08 0.08,-0.08 c 0.007,-0.007 0.016,-0.01 0.025,-0.01 h 0.15 z m -0.14,-0.36 v 0.175 h -0.14 v -0.175 l 0.105,-0.035 v 0.035 z m 0.351,0 v 0.07 H 0.651 v -0.035 h 0.036 v -0.07 z M 0.774,-0.439 C 0.762,-0.439 0.751,-0.441 0.74,-0.446 0.729,-0.45 0.72,-0.457 0.712,-0.465 0.704,-0.473 0.698,-0.482 0.693,-0.492 0.689,-0.503 0.687,-0.514 0.687,-0.526 h 0.175 c 0,0.012 -0.002,0.023 -0.007,0.034 -0.005,0.01 -0.011,0.019 -0.019,0.027 -0.008,0.008 -0.017,0.015 -0.028,0.019 -0.01,0.005 -0.022,0.007 -0.034,0.007 z"
         style="fill:#ffffff;fill-rule:nonzero"
         id="path18376" /></g></g></svg>
