<?xml version="1.0" encoding="UTF-8" standalone="no"?>
<svg
   width="16.845001"
   height="16.845001"
   viewBox="0 0 16.845001 16.845001"
   version="1.1"
   xml:space="preserve"
   style="clip-rule:evenodd;fill-rule:evenodd;stroke-linejoin:round;stroke-miterlimit:2"
   id="svg20568"
   sodipodi:docname="emojis.svg"
   xmlns:inkscape="http://www.inkscape.org/namespaces/inkscape"
   xmlns:sodipodi="http://sodipodi.sourceforge.net/DTD/sodipodi-0.dtd"
   xmlns="http://www.w3.org/2000/svg"
   xmlns:svg="http://www.w3.org/2000/svg"><defs
     id="defs20572" /><sodipodi:namedview
     id="namedview20570"
     pagecolor="#505050"
     bordercolor="#eeeeee"
     borderopacity="1"
     inkscape:pageshadow="0"
     inkscape:pageopacity="0"
     inkscape:pagecheckerboard="0" /><g
     transform="matrix(0.24,0,0,0.24,-302.5782,-924.6498)"
     id="g20566"><g
       transform="matrix(62.5,0,0,62.5,1252.93,3909.77)"
       id="g18338"><rect
         x="0.125"
         y="-0.91299999"
         width="1.123"
         height="1.123"
         style="fill-rule:nonzero"
         id="rect18332" /><rect
         x="0.19499999"
         y="-0.84200001"
         width="0.98199999"
         height="0.98199999"
         style="fill:#0046ff;fill-rule:nonzero"
         id="rect18334" /><path
         d="m 0.757,-0.562 c 0.008,0 0.015,0.003 0.021,0.008 0.006,0.004 0.01,0.01 0.013,0.018 0.001,0.004 0.004,0.013 0.008,0.027 0.005,0.013 0.009,0.029 0.014,0.047 0.006,0.018 0.011,0.037 0.017,0.057 0.006,0.02 0.011,0.039 0.015,0.057 0.005,0.017 0.009,0.032 0.012,0.044 0.003,0.013 0.005,0.02 0.005,0.023 0,0.009 -0.004,0.017 -0.01,0.025 -0.007,0.007 -0.016,0.01 -0.025,0.01 -0.008,0 -0.015,-0.002 -0.021,-0.007 C 0.8,-0.257 0.795,-0.264 0.793,-0.271 L 0.757,-0.399 V 0 C 0.757,0.009 0.753,0.018 0.746,0.025 0.739,0.032 0.731,0.035 0.722,0.035 0.712,0.035 0.704,0.032 0.697,0.025 0.69,0.018 0.687,0.009 0.687,0 V -0.228 C 0.687,-0.233 0.685,-0.237 0.681,-0.24 0.678,-0.244 0.674,-0.246 0.669,-0.246 0.664,-0.246 0.66,-0.244 0.656,-0.24 0.653,-0.237 0.651,-0.233 0.651,-0.228 V 0 c 0,0.009 -0.003,0.018 -0.01,0.025 C 0.634,0.032 0.626,0.035 0.616,0.035 0.607,0.035 0.599,0.032 0.592,0.025 0.585,0.018 0.581,0.009 0.581,0 v -0.399 l -0.036,0.128 c -0.002,0.007 -0.007,0.014 -0.013,0.018 -0.006,0.005 -0.013,0.007 -0.021,0.007 -0.01,0 -0.018,-0.003 -0.025,-0.01 -0.007,-0.008 -0.01,-0.016 -0.01,-0.025 0,-0.003 0.002,-0.01 0.005,-0.023 0.003,-0.012 0.007,-0.027 0.011,-0.044 0.005,-0.018 0.01,-0.037 0.016,-0.057 0.006,-0.02 0.011,-0.039 0.016,-0.057 C 0.53,-0.48 0.534,-0.496 0.539,-0.509 0.543,-0.523 0.546,-0.532 0.547,-0.536 0.55,-0.544 0.554,-0.55 0.56,-0.554 0.566,-0.559 0.573,-0.562 0.581,-0.562 Z M 0.669,-0.597 C 0.659,-0.597 0.65,-0.599 0.642,-0.602 0.633,-0.606 0.626,-0.611 0.619,-0.617 0.613,-0.624 0.608,-0.631 0.604,-0.64 0.601,-0.648 0.599,-0.657 0.599,-0.667 c 0,-0.01 0.002,-0.019 0.005,-0.027 0.004,-0.009 0.009,-0.016 0.015,-0.023 0.007,-0.006 0.014,-0.011 0.023,-0.015 0.008,-0.003 0.017,-0.005 0.027,-0.005 0.01,0 0.019,0.002 0.027,0.005 0.009,0.004 0.016,0.009 0.023,0.015 0.006,0.007 0.011,0.014 0.015,0.023 0.003,0.008 0.005,0.017 0.005,0.027 0,0.01 -0.002,0.019 -0.005,0.027 -0.004,0.009 -0.009,0.016 -0.015,0.023 -0.007,0.006 -0.014,0.011 -0.023,0.015 -0.008,0.003 -0.017,0.005 -0.027,0.005 z"
         style="fill:#ffffff;fill-rule:nonzero"
         id="path18336" /></g></g></svg>
