<?xml version="1.0" encoding="UTF-8" standalone="no"?>
<svg
   width="16.845001"
   height="16.845001"
   viewBox="0 0 16.845001 16.845001"
   version="1.1"
   xml:space="preserve"
   style="clip-rule:evenodd;fill-rule:evenodd;stroke-linejoin:round;stroke-miterlimit:2"
   id="svg20568"
   sodipodi:docname="emojis.svg"
   xmlns:inkscape="http://www.inkscape.org/namespaces/inkscape"
   xmlns:sodipodi="http://sodipodi.sourceforge.net/DTD/sodipodi-0.dtd"
   xmlns="http://www.w3.org/2000/svg"
   xmlns:svg="http://www.w3.org/2000/svg"><defs
     id="defs20572" /><sodipodi:namedview
     id="namedview20570"
     pagecolor="#505050"
     bordercolor="#eeeeee"
     borderopacity="1"
     inkscape:pageshadow="0"
     inkscape:pageopacity="0"
     inkscape:pagecheckerboard="0" /><g
     transform="matrix(0.24,0,0,0.24,-426.1542,-924.6498)"
     id="g20566"><g
       transform="matrix(62.5,0,0,62.5,1767.83,3909.77)"
       id="g18386"><rect
         x="0.125"
         y="-0.91299999"
         width="1.123"
         height="1.123"
         style="fill-rule:nonzero"
         id="rect18380" /><rect
         x="0.19499999"
         y="-0.84200001"
         width="0.98199999"
         height="0.98199999"
         style="fill:#0046ff;fill-rule:nonzero"
         id="rect18382" /><path
         d="m 0.967,-0.457 c 0.01,0 0.019,0.002 0.028,0.006 0.008,0.004 0.015,0.009 0.022,0.015 0.006,0.007 0.011,0.014 0.015,0.022 0.004,0.009 0.006,0.018 0.006,0.028 v 0.281 c 0,0.009 -0.004,0.018 -0.011,0.024 C 1.021,-0.074 1.012,-0.07 1.002,-0.07 H 0.722 V -0.141 H 0.967 V -0.21 H 0.722 Z M 0.546,-0.21 c -0.01,0 -0.018,-0.004 -0.025,-0.011 -0.006,-0.007 -0.01,-0.015 -0.01,-0.025 0,-0.009 0.004,-0.018 0.01,-0.025 l 0.176,-0.175 c 0.007,-0.007 0.015,-0.011 0.025,-0.011 h 0.149 l -0.149,0.15 V -0.372 L 0.571,-0.221 C 0.564,-0.214 0.555,-0.21 0.546,-0.21 Z M 0.371,-0.351 h 0.035 v 0.21 h 0.21 v 0.036 c 0,0.009 -0.003,0.018 -0.01,0.024 C 0.599,-0.074 0.591,-0.07 0.581,-0.07 H 0.441 C 0.433,-0.07 0.426,-0.072 0.422,-0.075 0.417,-0.078 0.414,-0.082 0.411,-0.087 0.409,-0.092 0.407,-0.097 0.407,-0.104 0.406,-0.11 0.406,-0.116 0.406,-0.122 V -0.141 H 0.387 c -0.006,0 -0.012,0 -0.018,-0.001 -0.007,0 -0.012,-0.002 -0.017,-0.004 C 0.347,-0.149 0.343,-0.152 0.34,-0.157 0.337,-0.161 0.335,-0.168 0.335,-0.176 v -0.14 c 0,-0.01 0.004,-0.018 0.011,-0.025 0.007,-0.007 0.015,-0.01 0.025,-0.01 z m 0.561,-0.316 v 0.07 h -0.21 v -0.035 h 0.035 v -0.07 z M 0.844,-0.474 C 0.832,-0.474 0.821,-0.476 0.81,-0.481 0.8,-0.486 0.79,-0.492 0.782,-0.5 0.774,-0.508 0.768,-0.517 0.764,-0.528 0.759,-0.538 0.757,-0.549 0.757,-0.562 h 0.175 c 0,0.013 -0.002,0.024 -0.007,0.034 -0.004,0.011 -0.011,0.02 -0.019,0.028 -0.007,0.008 -0.017,0.014 -0.028,0.019 -0.01,0.005 -0.022,0.007 -0.034,0.007 z"
         style="fill:#ffffff;fill-rule:nonzero"
         id="path18384" /></g></g></svg>
