<?xml version="1.0" encoding="UTF-8" standalone="no"?>
<svg
   width="16.845001"
   height="16.845001"
   viewBox="0 0 16.845001 16.845001"
   version="1.1"
   xml:space="preserve"
   style="clip-rule:evenodd;fill-rule:evenodd;stroke-linejoin:round;stroke-miterlimit:2"
   id="svg20568"
   sodipodi:docname="emojis.svg"
   xmlns:inkscape="http://www.inkscape.org/namespaces/inkscape"
   xmlns:sodipodi="http://sodipodi.sourceforge.net/DTD/sodipodi-0.dtd"
   xmlns="http://www.w3.org/2000/svg"
   xmlns:svg="http://www.w3.org/2000/svg"><defs
     id="defs20572" /><sodipodi:namedview
     id="namedview20570"
     pagecolor="#505050"
     bordercolor="#eeeeee"
     borderopacity="1"
     inkscape:pageshadow="0"
     inkscape:pageopacity="0"
     inkscape:pagecheckerboard="0" /><g
     transform="matrix(0.24,0,0,0.24,-364.3662,-924.6498)"
     id="g20566"><g
       transform="matrix(62.5,0,0,62.5,1510.38,3909.77)"
       id="g18362"><rect
         x="0.125"
         y="-0.91299999"
         width="1.123"
         height="1.123"
         style="fill-rule:nonzero"
         id="rect18356" /><rect
         x="0.19499999"
         y="-0.84200001"
         width="0.98199999"
         height="0.98199999"
         style="fill:#f03a17;fill-rule:nonzero"
         id="rect18358" /><path
         d="m 0.757,-0.457 c 0.005,0 0.01,0.002 0.015,0.004 l 0.141,0.071 c 0.005,0.003 0.01,0.007 0.014,0.013 0.003,0.005 0.005,0.011 0.005,0.018 0,0.009 -0.003,0.018 -0.01,0.025 -0.007,0.007 -0.016,0.01 -0.025,0.01 -0.005,0 -0.01,-0.001 -0.016,-0.004 l -0.09,-0.045 c 0.001,0.003 0.001,0.005 0.001,0.008 v 0.041 H 0.581 v -0.031 c 0,-0.003 0,-0.006 0,-0.009 0,-0.003 0.001,-0.006 0.001,-0.009 l -0.09,0.045 c -0.006,0.003 -0.011,0.004 -0.016,0.004 -0.01,0 -0.018,-0.003 -0.025,-0.01 -0.007,-0.007 -0.01,-0.015 -0.01,-0.025 0,-0.006 0.002,-0.012 0.005,-0.018 0.004,-0.006 0.009,-0.01 0.014,-0.013 l 0.141,-0.071 c 0.005,-0.002 0.01,-0.004 0.015,-0.004 z M 0.687,-0.491 C 0.674,-0.491 0.663,-0.493 0.652,-0.498 0.642,-0.503 0.632,-0.509 0.624,-0.517 0.616,-0.525 0.61,-0.534 0.605,-0.545 0.601,-0.555 0.599,-0.567 0.599,-0.579 c 0,-0.012 0.002,-0.024 0.006,-0.034 0.005,-0.011 0.011,-0.02 0.019,-0.028 0.008,-0.008 0.018,-0.015 0.028,-0.019 0.011,-0.005 0.022,-0.007 0.035,-0.007 0.012,0 0.023,0.002 0.034,0.007 0.01,0.004 0.02,0.011 0.028,0.019 0.008,0.008 0.014,0.017 0.019,0.028 0.004,0.01 0.006,0.022 0.006,0.034 0,0.012 -0.002,0.024 -0.006,0.034 -0.005,0.011 -0.011,0.02 -0.019,0.028 -0.008,0.008 -0.018,0.014 -0.028,0.019 -0.011,0.005 -0.022,0.007 -0.034,0.007 z m -0.091,0.315 0.045,0.046 c 0.007,0.006 0.01,0.015 0.01,0.025 0,0.009 -0.003,0.018 -0.01,0.024 -0.007,0.007 -0.015,0.011 -0.025,0.011 -0.01,0 -0.018,-0.004 -0.025,-0.011 l -0.07,-0.07 c -0.006,-0.007 -0.01,-0.015 -0.01,-0.024 0,-0.01 0.004,-0.018 0.01,-0.025 l 0.053,-0.053 0.05,0.049 z M 0.799,-0.253 0.852,-0.2 c 0.006,0.007 0.01,0.015 0.01,0.025 0,0.009 -0.004,0.017 -0.01,0.024 l -0.07,0.07 c -0.007,0.007 -0.015,0.011 -0.025,0.011 -0.01,0 -0.018,-0.004 -0.025,-0.011 -0.007,-0.006 -0.01,-0.015 -0.01,-0.024 0,-0.01 0.003,-0.019 0.01,-0.025 L 0.777,-0.176 0.75,-0.204 Z"
         style="fill:#ffffff;fill-rule:nonzero"
         id="path18360" /></g></g></svg>
