<?xml version="1.0" encoding="UTF-8" standalone="no"?>
<svg
   width="16.845001"
   height="16.845001"
   viewBox="0 0 16.845001 16.845001"
   version="1.1"
   xml:space="preserve"
   style="clip-rule:evenodd;fill-rule:evenodd;stroke-linejoin:round;stroke-miterlimit:2"
   id="svg20568"
   sodipodi:docname="emojis.svg"
   xmlns:inkscape="http://www.inkscape.org/namespaces/inkscape"
   xmlns:sodipodi="http://sodipodi.sourceforge.net/DTD/sodipodi-0.dtd"
   xmlns="http://www.w3.org/2000/svg"
   xmlns:svg="http://www.w3.org/2000/svg"><defs
     id="defs20572" /><sodipodi:namedview
     id="namedview20570"
     pagecolor="#505050"
     bordercolor="#eeeeee"
     borderopacity="1"
     inkscape:pageshadow="0"
     inkscape:pageopacity="0"
     inkscape:pagecheckerboard="0" /><g
     transform="matrix(0.24,0,0,0.24,-343.7694,-924.6498)"
     id="g20566"><g
       transform="matrix(62.5,0,0,62.5,1424.56,3909.77)"
       id="g18354"><rect
         x="0.125"
         y="-0.91299999"
         width="1.123"
         height="1.123"
         style="fill-rule:nonzero"
         id="rect18348" /><rect
         x="0.19499999"
         y="-0.84200001"
         width="0.98199999"
         height="0.98199999"
         style="fill:#0046ff;fill-rule:nonzero"
         id="rect18350" /><path
         d="m 0.546,-0.562 c 0.007,0 0.014,0.003 0.02,0.007 0.007,0.004 0.011,0.01 0.014,0.017 0.001,0.005 0.004,0.013 0.008,0.025 0.004,0.012 0.009,0.026 0.014,0.042 0.006,0.015 0.011,0.032 0.017,0.049 0.006,0.017 0.011,0.033 0.016,0.048 0.005,0.015 0.009,0.028 0.012,0.039 0.003,0.01 0.004,0.017 0.004,0.02 0,0.009 -0.003,0.017 -0.01,0.024 -0.007,0.007 -0.015,0.01 -0.025,0.01 -0.007,0 -0.014,-0.002 -0.02,-0.006 C 0.59,-0.292 0.586,-0.298 0.583,-0.305 L 0.546,-0.416 V 0 c 0,0.009 -0.004,0.018 -0.01,0.025 C 0.529,0.032 0.521,0.035 0.511,0.035 0.501,0.035 0.493,0.032 0.486,0.025 0.479,0.018 0.476,0.01 0.476,0 v -0.228 c 0,-0.005 -0.002,-0.009 -0.005,-0.012 -0.003,-0.004 -0.008,-0.006 -0.013,-0.006 -0.004,0 -0.009,0.002 -0.012,0.006 -0.003,0.003 -0.005,0.007 -0.005,0.012 V 0 c 0,0.01 -0.003,0.018 -0.01,0.025 C 0.424,0.032 0.416,0.035 0.406,0.035 0.396,0.035 0.388,0.032 0.381,0.025 0.374,0.018 0.371,0.01 0.371,0 v -0.416 l -0.037,0.111 c -0.003,0.007 -0.007,0.013 -0.013,0.018 -0.006,0.004 -0.013,0.006 -0.02,0.006 -0.01,0 -0.018,-0.003 -0.025,-0.01 -0.007,-0.007 -0.01,-0.016 -0.01,-0.025 0,-0.003 0.001,-0.01 0.004,-0.02 0.003,-0.011 0.007,-0.023 0.012,-0.038 0.005,-0.015 0.01,-0.031 0.016,-0.048 0.005,-0.017 0.011,-0.034 0.016,-0.049 0.005,-0.016 0.01,-0.03 0.014,-0.041 C 0.332,-0.524 0.335,-0.533 0.337,-0.538 0.34,-0.545 0.344,-0.551 0.35,-0.555 0.356,-0.559 0.363,-0.562 0.371,-0.562 Z M 0.458,-0.597 C 0.449,-0.597 0.44,-0.598 0.431,-0.602 0.422,-0.606 0.415,-0.611 0.408,-0.617 0.402,-0.623 0.397,-0.631 0.394,-0.639 0.39,-0.648 0.388,-0.657 0.388,-0.667 c 0,-0.01 0.002,-0.019 0.006,-0.027 0.004,-0.009 0.009,-0.016 0.015,-0.023 0.006,-0.006 0.014,-0.011 0.022,-0.015 0.009,-0.003 0.018,-0.005 0.027,-0.005 0.01,0 0.019,0.002 0.028,0.005 0.008,0.004 0.016,0.009 0.022,0.015 0.006,0.007 0.011,0.014 0.015,0.023 0.004,0.008 0.006,0.017 0.006,0.027 0,0.01 -0.002,0.019 -0.006,0.027 -0.004,0.009 -0.009,0.016 -0.015,0.023 -0.006,0.006 -0.014,0.011 -0.022,0.015 -0.009,0.003 -0.018,0.005 -0.028,0.005 z m 0.457,0 c -0.01,0 -0.019,-0.002 -0.028,-0.005 C 0.879,-0.606 0.871,-0.611 0.865,-0.617 0.859,-0.624 0.854,-0.631 0.85,-0.64 0.847,-0.648 0.845,-0.657 0.845,-0.667 c 0,-0.01 0.002,-0.019 0.005,-0.027 0.004,-0.009 0.009,-0.016 0.015,-0.023 0.006,-0.006 0.014,-0.011 0.022,-0.015 0.009,-0.003 0.018,-0.005 0.028,-0.005 0.009,0 0.018,0.002 0.027,0.005 0.008,0.004 0.016,0.009 0.022,0.015 0.006,0.007 0.012,0.014 0.015,0.023 0.004,0.008 0.006,0.017 0.006,0.027 0,0.01 -0.002,0.019 -0.006,0.028 -0.003,0.008 -0.009,0.016 -0.015,0.022 -0.006,0.006 -0.014,0.011 -0.022,0.015 -0.009,0.004 -0.018,0.005 -0.027,0.005 z m 0.087,0.035 c 0.007,0 0.013,0.002 0.019,0.006 0.005,0.003 0.009,0.008 0.013,0.014 l 0.105,0.21 c 0.002,0.005 0.004,0.01 0.004,0.016 0,0.01 -0.004,0.018 -0.011,0.025 -0.007,0.007 -0.015,0.01 -0.024,0.01 -0.007,0 -0.013,-0.002 -0.019,-0.005 C 1.083,-0.29 1.079,-0.294 1.076,-0.3 L 1.002,-0.448 v 0.097 c 0,0.001 0.002,0.006 0.005,0.015 0.003,0.01 0.007,0.021 0.012,0.036 0.005,0.014 0.01,0.03 0.016,0.047 0.006,0.017 0.011,0.033 0.016,0.048 l 0.022,0.064 H 1.002 V 0 c 0,0.01 -0.003,0.018 -0.01,0.025 C 0.985,0.032 0.977,0.035 0.967,0.035 0.958,0.035 0.949,0.032 0.942,0.025 0.936,0.018 0.932,0.01 0.932,0 V -0.141 H 0.897 V 0 c 0,0.01 -0.003,0.018 -0.01,0.025 C 0.88,0.032 0.872,0.035 0.862,0.035 0.852,0.035 0.844,0.032 0.837,0.025 0.83,0.018 0.827,0.009 0.827,0 V -0.141 H 0.757 L 0.778,-0.205 C 0.784,-0.22 0.789,-0.236 0.795,-0.253 0.8,-0.27 0.806,-0.286 0.81,-0.3 0.815,-0.315 0.819,-0.326 0.822,-0.336 0.825,-0.345 0.827,-0.35 0.827,-0.351 V -0.448 L 0.753,-0.3 c -0.003,0.006 -0.007,0.011 -0.013,0.014 -0.005,0.004 -0.011,0.005 -0.018,0.005 -0.01,0 -0.018,-0.003 -0.025,-0.01 -0.007,-0.007 -0.01,-0.015 -0.01,-0.025 0,-0.005 10e-4,-0.01 0.003,-0.016 l 0.105,-0.21 C 0.798,-0.548 0.803,-0.553 0.808,-0.556 0.814,-0.56 0.82,-0.562 0.827,-0.562 Z"
         style="fill:#ffffff;fill-rule:nonzero"
         id="path18352" /></g></g></svg>
