<?xml version="1.0" encoding="UTF-8" standalone="no"?>
<svg
   width="16.845001"
   height="16.845001"
   viewBox="0 0 16.845001 16.845001"
   version="1.1"
   xml:space="preserve"
   style="clip-rule:evenodd;fill-rule:evenodd;stroke-linejoin:round;stroke-miterlimit:2"
   id="svg20568"
   sodipodi:docname="emojis.svg"
   xmlns:inkscape="http://www.inkscape.org/namespaces/inkscape"
   xmlns:sodipodi="http://sodipodi.sourceforge.net/DTD/sodipodi-0.dtd"
   xmlns="http://www.w3.org/2000/svg"
   xmlns:svg="http://www.w3.org/2000/svg"><defs
     id="defs20572" /><sodipodi:namedview
     id="namedview20570"
     pagecolor="#505050"
     bordercolor="#eeeeee"
     borderopacity="1"
     inkscape:pageshadow="0"
     inkscape:pageopacity="0"
     inkscape:pagecheckerboard="0" /><g
     transform="matrix(0.24,0,0,0.24,-467.3454,-924.6498)"
     id="g20566"><g
       transform="matrix(62.5,0,0,62.5,1939.46,3909.77)"
       id="g18402"><rect
         x="0.125"
         y="-0.91299999"
         width="1.123"
         height="1.123"
         style="fill-rule:nonzero"
         id="rect18396" /><rect
         x="0.19499999"
         y="-0.84200001"
         width="0.98199999"
         height="0.98199999"
         style="fill:#0046ff;fill-rule:nonzero"
         id="rect18398" /><path
         d="m 0.757,-0.421 c 0.009,0 0.017,0.003 0.024,0.01 0.007,0.007 0.011,0.015 0.011,0.025 v 0.07 H 0.827 V 0 H 0.546 v -0.316 h 0.035 v -0.07 c 0,-0.01 0.004,-0.018 0.011,-0.025 0.007,-0.007 0.015,-0.01 0.024,-0.01 z M 0.932,-0.597 0.897,-0.562 H 0.862 L 0.844,-0.579 0.827,-0.562 H 0.792 L 0.774,-0.579 0.757,-0.562 H 0.722 L 0.704,-0.579 0.687,-0.562 H 0.646 C 0.642,-0.551 0.636,-0.542 0.63,-0.533 0.623,-0.524 0.615,-0.517 0.607,-0.511 0.598,-0.505 0.589,-0.5 0.578,-0.496 0.568,-0.493 0.557,-0.491 0.546,-0.491 0.531,-0.491 0.518,-0.494 0.505,-0.5 0.492,-0.505 0.481,-0.513 0.472,-0.522 0.462,-0.532 0.455,-0.543 0.449,-0.556 0.444,-0.568 0.441,-0.582 0.441,-0.597 c 0,-0.014 0.003,-0.028 0.008,-0.041 0.006,-0.012 0.013,-0.024 0.023,-0.033 0.009,-0.01 0.02,-0.017 0.033,-0.023 0.013,-0.005 0.026,-0.008 0.041,-0.008 0.011,0 0.022,0.002 0.032,0.005 0.011,0.003 0.02,0.008 0.029,0.014 0.008,0.007 0.016,0.014 0.023,0.023 0.006,0.008 0.012,0.018 0.016,0.028 h 0.251 z m -0.526,0.316 c 0,-0.01 0.003,-0.018 0.01,-0.025 0.007,-0.007 0.015,-0.01 0.025,-0.01 H 0.476 V 0 H 0.441 C 0.431,0 0.423,-0.003 0.416,-0.01 0.409,-0.017 0.406,-0.025 0.406,-0.035 Z m 0.526,-0.035 c 0.01,0 0.018,0.004 0.025,0.01 0.007,0.007 0.01,0.015 0.01,0.025 v 0.246 c 0,0.01 -0.003,0.018 -0.01,0.025 C 0.95,-0.003 0.942,0 0.932,0 H 0.897 v -0.316 z m -0.175,0 v -0.07 H 0.616 v 0.07 z M 0.511,-0.562 c 0.01,0 0.018,-0.003 0.025,-0.01 0.006,-0.007 0.01,-0.015 0.01,-0.025 0,-0.009 -0.004,-0.017 -0.01,-0.024 -0.007,-0.007 -0.015,-0.011 -0.025,-0.011 -0.01,0 -0.018,0.004 -0.025,0.01 -0.007,0.007 -0.01,0.016 -0.01,0.025 0,0.01 0.003,0.018 0.01,0.025 0.007,0.007 0.015,0.01 0.025,0.01 z"
         style="fill:#ffffff;fill-rule:nonzero"
         id="path18400" /></g></g></svg>
