<?xml version="1.0" encoding="UTF-8" standalone="no"?>
<svg
   width="16.844999"
   height="16.844999"
   viewBox="0 0 16.844999 16.844999"
   version="1.1"
   xml:space="preserve"
   style="clip-rule:evenodd;fill-rule:evenodd;stroke-linejoin:round;stroke-miterlimit:2"
   id="svg20568"
   sodipodi:docname="emojis.svg"
   xmlns:inkscape="http://www.inkscape.org/namespaces/inkscape"
   xmlns:sodipodi="http://sodipodi.sourceforge.net/DTD/sodipodi-0.dtd"
   xmlns="http://www.w3.org/2000/svg"
   xmlns:svg="http://www.w3.org/2000/svg"><defs
     id="defs20572" /><sodipodi:namedview
     id="namedview20570"
     pagecolor="#505050"
     bordercolor="#eeeeee"
     borderopacity="1"
     inkscape:pageshadow="0"
     inkscape:pageopacity="0"
     inkscape:pagecheckerboard="0" /><g
     transform="matrix(0.24,0,0,0.24,-508.5366,-924.6498)"
     id="g20566"><g
       transform="matrix(62.5,0,0,62.5,2111.09,3909.77)"
       id="g18418"><path
         d="M 0.687,-0.913 1.248,-0.351 0.687,0.21 0.125,-0.351 Z"
         style="fill-rule:nonzero"
         id="path18412" /><path
         d="M 0.687,-0.807 1.143,-0.351 0.687,0.105 0.23,-0.351 Z"
         style="fill:#fce100;fill-rule:nonzero"
         id="path18414" /><path
         d="M 0.872,-0.437 0.92,-0.42 c 0.004,0.001 0.007,0.003 0.009,0.006 0.002,0.004 0.003,0.007 0.003,0.011 0,0.004 -0.002,0.008 -0.005,0.012 -0.003,0.003 -0.007,0.005 -0.012,0.005 -0.001,0 -0.003,-0.001 -0.006,-0.001 C 0.896,-0.39 0.885,-0.393 0.876,-0.396 0.868,-0.399 0.861,-0.402 0.855,-0.406 0.85,-0.409 0.844,-0.413 0.839,-0.418 0.834,-0.423 0.827,-0.43 0.819,-0.438 L 0.808,-0.451 0.792,-0.386 0.844,-0.281 H 0.822 c 0.001,0.003 0.002,0.006 0.003,0.009 0.001,0.002 0.002,0.006 0.002,0.009 v 0.07 c 0,0.004 -0.002,0.008 -0.005,0.012 C 0.818,-0.178 0.814,-0.176 0.81,-0.176 0.806,-0.176 0.802,-0.177 0.8,-0.178 0.798,-0.18 0.796,-0.183 0.794,-0.186 0.793,-0.188 0.792,-0.192 0.792,-0.195 c 0,-0.003 0,-0.007 0,-0.01 l 0.001,-0.027 c 0,-0.003 0,-0.007 0,-0.012 0,-0.004 -0.001,-0.009 -0.001,-0.013 C 0.791,-0.261 0.791,-0.266 0.79,-0.27 0.789,-0.274 0.787,-0.278 0.785,-0.281 H 0.744 l -0.023,0.092 c -0.001,0.004 -0.003,0.007 -0.006,0.01 -0.003,0.002 -0.007,0.003 -0.011,0.003 -0.005,0 -0.009,-0.001 -0.012,-0.005 -0.004,-0.003 -0.005,-0.007 -0.005,-0.012 0,-0.004 0,-0.011 0.002,-0.018 0.002,-0.008 0.004,-0.016 0.006,-0.025 0.003,-0.009 0.005,-0.017 0.007,-0.025 0.002,-0.008 0.004,-0.015 0.006,-0.02 H 0.687 l 0.042,-0.168 -0.042,0.021 v 0.059 c 0,0.005 -0.002,0.009 -0.006,0.013 -0.003,0.003 -0.007,0.005 -0.012,0.005 -0.003,0 -0.007,-0.002 -0.014,-0.005 C 0.648,-0.359 0.641,-0.362 0.633,-0.366 0.625,-0.37 0.617,-0.374 0.61,-0.378 0.603,-0.382 0.598,-0.385 0.595,-0.386 l -0.019,0.075 0.035,0.035 c 0.004,0.003 0.005,0.008 0.005,0.013 v 0.07 c 0,0.005 -0.001,0.009 -0.005,0.012 -0.003,0.004 -0.007,0.005 -0.012,0.005 -0.005,0 -0.009,-0.001 -0.013,-0.005 C 0.583,-0.184 0.581,-0.188 0.581,-0.193 V -0.256 C 0.579,-0.258 0.577,-0.26 0.574,-0.263 0.572,-0.266 0.569,-0.269 0.567,-0.271 0.564,-0.274 0.562,-0.276 0.559,-0.278 0.556,-0.279 0.553,-0.28 0.549,-0.28 c -0.004,0 -0.008,0.001 -0.012,0.003 -0.004,0.003 -0.006,0.006 -0.007,0.01 l -0.02,0.078 c -0.001,0.004 -0.003,0.007 -0.006,0.01 -0.003,0.002 -0.006,0.003 -0.01,0.003 -0.005,0 -0.009,-0.001 -0.013,-0.005 -0.003,-0.003 -0.005,-0.007 -0.005,-0.012 0,-0.008 0.002,-0.017 0.004,-0.026 0.003,-0.009 0.006,-0.018 0.008,-0.026 0.005,-0.023 0.011,-0.046 0.017,-0.068 0.007,-0.022 0.012,-0.045 0.017,-0.068 l -0.016,0.008 -0.023,0.047 c -0.003,0.007 -0.008,0.01 -0.016,0.01 -0.004,0 -0.008,-0.002 -0.012,-0.005 C 0.451,-0.325 0.45,-0.329 0.45,-0.333 c 0,-0.002 0,-0.004 0,-0.005 0.001,-0.001 0.001,-0.002 0.002,-0.003 L 0.456,-0.353 C 0.46,-0.362 0.463,-0.369 0.467,-0.376 0.47,-0.382 0.473,-0.388 0.478,-0.393 0.482,-0.398 0.487,-0.402 0.494,-0.406 0.501,-0.411 0.509,-0.415 0.521,-0.419 0.524,-0.421 0.527,-0.421 0.529,-0.421 h 0.07 c 0.002,0 0.005,0.001 0.01,0.003 0.005,0.002 0.01,0.004 0.016,0.007 0.005,0.002 0.01,0.005 0.015,0.008 0.005,0.003 0.009,0.005 0.011,0.006 v -0.042 c 0,-0.004 0.001,-0.007 0.003,-0.009 C 0.655,-0.451 0.658,-0.453 0.661,-0.455 0.664,-0.457 0.669,-0.459 0.677,-0.463 0.684,-0.467 0.692,-0.471 0.7,-0.476 0.709,-0.48 0.717,-0.483 0.724,-0.487 0.732,-0.49 0.737,-0.491 0.739,-0.491 H 0.81 c 0.004,0 0.009,0.001 0.012,0.005 z m -0.08,-0.089 c -0.009,0 -0.018,-0.004 -0.025,-0.011 -0.007,-0.007 -0.01,-0.015 -0.01,-0.025 0,-0.009 0.003,-0.018 0.01,-0.024 0.007,-0.007 0.015,-0.011 0.025,-0.011 0.009,0 0.018,0.004 0.024,0.011 0.007,0.007 0.011,0.015 0.011,0.024 0,0.01 -0.004,0.018 -0.011,0.025 -0.006,0.007 -0.015,0.011 -0.024,0.011 z m -0.211,0.069 c -0.009,0 -0.018,-0.003 -0.025,-0.01 -0.007,-0.007 -0.01,-0.015 -0.01,-0.024 0,-0.01 0.003,-0.018 0.01,-0.025 0.007,-0.007 0.016,-0.01 0.025,-0.01 0.01,0 0.018,0.003 0.025,0.01 0.007,0.007 0.01,0.015 0.01,0.025 0,0.009 -0.003,0.017 -0.01,0.024 -0.007,0.007 -0.016,0.01 -0.025,0.01 z"
         style="fill-rule:nonzero"
         id="path18416" /></g></g></svg>
