<?xml version="1.0" encoding="UTF-8" standalone="no"?>
<svg
   width="16.844999"
   height="16.844999"
   viewBox="0 0 16.844999 16.844999"
   version="1.1"
   xml:space="preserve"
   style="clip-rule:evenodd;fill-rule:evenodd;stroke-linejoin:round;stroke-miterlimit:2"
   id="svg20568"
   sodipodi:docname="emojis.svg"
   xmlns:inkscape="http://www.inkscape.org/namespaces/inkscape"
   xmlns:sodipodi="http://sodipodi.sourceforge.net/DTD/sodipodi-0.dtd"
   xmlns="http://www.w3.org/2000/svg"
   xmlns:svg="http://www.w3.org/2000/svg"><defs
     id="defs20572" /><sodipodi:namedview
     id="namedview20570"
     pagecolor="#505050"
     bordercolor="#eeeeee"
     borderopacity="1"
     inkscape:pageshadow="0"
     inkscape:pageopacity="0"
     inkscape:pagecheckerboard="0" /><g
     transform="matrix(0.24,0,0,0.24,-33.8094,-941.6202)"
     id="g20566"><g
       transform="matrix(62.5,0,0,62.5,133.06,3980.48)"
       id="g18512"><path
         d="m 1.248,-0.351 c 0,0.052 -0.007,0.101 -0.02,0.149 C 1.215,-0.154 1.196,-0.109 1.171,-0.068 1.147,-0.026 1.118,0.012 1.083,0.046 1.049,0.08 1.011,0.109 0.97,0.134 0.928,0.158 0.884,0.177 0.836,0.19 0.788,0.204 0.738,0.21 0.687,0.21 0.635,0.21 0.585,0.204 0.537,0.19 0.489,0.177 0.445,0.158 0.403,0.134 0.362,0.109 0.324,0.08 0.29,0.046 0.255,0.012 0.226,-0.026 0.202,-0.068 0.177,-0.109 0.158,-0.154 0.145,-0.202 0.132,-0.25 0.125,-0.299 0.125,-0.351 c 0,-0.052 0.007,-0.102 0.02,-0.149 0.013,-0.048 0.032,-0.093 0.057,-0.135 0.024,-0.041 0.053,-0.079 0.088,-0.113 0.034,-0.034 0.072,-0.064 0.113,-0.088 0.042,-0.024 0.086,-0.043 0.134,-0.057 0.048,-0.013 0.098,-0.02 0.15,-0.02 0.051,0 0.101,0.007 0.149,0.02 0.048,0.014 0.092,0.033 0.134,0.057 0.041,0.024 0.079,0.054 0.113,0.088 0.035,0.034 0.064,0.072 0.088,0.113 0.025,0.042 0.044,0.087 0.057,0.135 0.013,0.047 0.02,0.097 0.02,0.149 z"
         style="fill-rule:nonzero"
         id="path18506" /><path
         d="m 1.178,-0.351 c 0,0.045 -0.006,0.089 -0.018,0.131 -0.012,0.041 -0.028,0.081 -0.049,0.117 -0.022,0.036 -0.047,0.07 -0.077,0.099 C 1.004,0.026 0.971,0.052 0.935,0.073 0.898,0.094 0.859,0.111 0.817,0.123 0.775,0.134 0.732,0.14 0.687,0.14 0.641,0.14 0.598,0.134 0.556,0.123 0.514,0.111 0.475,0.094 0.438,0.073 0.402,0.052 0.369,0.026 0.339,-0.004 0.309,-0.033 0.284,-0.067 0.262,-0.103 0.241,-0.139 0.225,-0.179 0.213,-0.22 0.201,-0.262 0.195,-0.306 0.195,-0.351 c 0,-0.045 0.006,-0.089 0.018,-0.131 0.012,-0.042 0.028,-0.081 0.049,-0.117 0.022,-0.037 0.047,-0.07 0.077,-0.099 0.03,-0.03 0.063,-0.056 0.099,-0.077 0.037,-0.021 0.076,-0.038 0.118,-0.05 0.042,-0.011 0.085,-0.017 0.131,-0.017 0.045,0 0.088,0.006 0.13,0.017 0.042,0.012 0.081,0.029 0.118,0.05 0.036,0.021 0.069,0.047 0.099,0.077 0.03,0.029 0.055,0.062 0.077,0.099 0.021,0.036 0.037,0.075 0.049,0.117 0.012,0.042 0.018,0.086 0.018,0.131 z"
         style="fill:#fce100;fill-rule:nonzero"
         id="path18508" /><path
         d="M 0.634,-0.442 C 0.618,-0.432 0.605,-0.42 0.595,-0.404 0.586,-0.388 0.581,-0.37 0.581,-0.351 H 0.335 c 0,-0.031 0.005,-0.062 0.013,-0.092 0.008,-0.029 0.019,-0.057 0.035,-0.084 0.015,-0.026 0.033,-0.05 0.055,-0.072 0.021,-0.021 0.046,-0.04 0.073,-0.056 z m 0.228,-0.213 c 0.027,0.016 0.052,0.035 0.073,0.056 0.022,0.022 0.04,0.046 0.055,0.072 0.016,0.027 0.027,0.055 0.035,0.084 0.009,0.03 0.013,0.061 0.013,0.092 H 0.792 C 0.792,-0.37 0.787,-0.388 0.778,-0.404 0.768,-0.42 0.755,-0.432 0.739,-0.442 Z m -0.175,0.409 c 0.009,0 0.018,-0.001 0.027,-0.004 0.009,-0.002 0.017,-0.006 0.025,-0.01 l 0.123,0.213 C 0.835,-0.032 0.807,-0.02 0.777,-0.012 0.748,-0.004 0.717,0 0.687,0 0.656,0 0.625,-0.004 0.596,-0.012 0.566,-0.02 0.538,-0.032 0.511,-0.047 L 0.634,-0.26 c 0.008,0.004 0.016,0.008 0.025,0.01 0.009,0.003 0.018,0.004 0.028,0.004 z m 0.07,-0.105 c 0,0.01 -0.002,0.019 -0.006,0.027 -0.004,0.009 -0.009,0.016 -0.015,0.022 -0.006,0.007 -0.014,0.012 -0.022,0.016 -0.009,0.003 -0.018,0.005 -0.027,0.005 -0.01,0 -0.019,-0.002 -0.028,-0.005 C 0.651,-0.29 0.643,-0.295 0.637,-0.302 0.631,-0.308 0.626,-0.315 0.622,-0.324 0.618,-0.332 0.616,-0.341 0.616,-0.351 c 0,-0.01 0.002,-0.019 0.006,-0.027 0.004,-0.009 0.009,-0.016 0.015,-0.023 0.006,-0.006 0.014,-0.011 0.022,-0.015 0.009,-0.004 0.018,-0.005 0.028,-0.005 0.009,0 0.018,0.001 0.027,0.005 0.008,0.004 0.016,0.009 0.022,0.015 0.006,0.007 0.011,0.014 0.015,0.023 0.004,0.008 0.006,0.017 0.006,0.027 z"
         style="fill-rule:nonzero"
         id="path18510" /></g></g></svg>
