<?xml version="1.0" encoding="UTF-8" standalone="no"?>
<svg
   width="16.844999"
   height="16.844999"
   viewBox="0 0 16.844999 16.844999"
   version="1.1"
   xml:space="preserve"
   style="clip-rule:evenodd;fill-rule:evenodd;stroke-linejoin:round;stroke-miterlimit:2"
   id="svg20568"
   sodipodi:docname="emojis.svg"
   xmlns:inkscape="http://www.inkscape.org/namespaces/inkscape"
   xmlns:sodipodi="http://sodipodi.sourceforge.net/DTD/sodipodi-0.dtd"
   xmlns="http://www.w3.org/2000/svg"
   xmlns:svg="http://www.w3.org/2000/svg"><defs
     id="defs20572" /><sodipodi:namedview
     id="namedview20570"
     pagecolor="#505050"
     bordercolor="#eeeeee"
     borderopacity="1"
     inkscape:pageshadow="0"
     inkscape:pageopacity="0"
     inkscape:pagecheckerboard="0" /><g
     transform="matrix(0.24,0,0,0.24,-13.213584,-941.6202)"
     id="g20566"><g
       transform="matrix(62.5,0,0,62.5,47.2441,3980.48)"
       id="g18504"><path
         d="m 1.248,-0.351 c 0,0.052 -0.007,0.101 -0.02,0.149 C 1.215,-0.154 1.196,-0.109 1.171,-0.068 1.147,-0.026 1.118,0.012 1.083,0.046 1.049,0.08 1.011,0.109 0.97,0.134 0.928,0.158 0.884,0.177 0.836,0.19 0.788,0.204 0.738,0.21 0.687,0.21 0.635,0.21 0.585,0.204 0.537,0.19 0.489,0.177 0.445,0.158 0.403,0.134 0.362,0.109 0.324,0.08 0.29,0.046 0.255,0.012 0.226,-0.026 0.202,-0.068 0.177,-0.109 0.158,-0.154 0.145,-0.202 0.132,-0.25 0.125,-0.299 0.125,-0.351 c 0,-0.052 0.007,-0.102 0.02,-0.149 0.013,-0.048 0.032,-0.093 0.057,-0.135 0.024,-0.041 0.053,-0.079 0.088,-0.113 0.034,-0.034 0.072,-0.064 0.113,-0.088 0.042,-0.024 0.086,-0.043 0.134,-0.057 0.048,-0.013 0.098,-0.02 0.15,-0.02 0.051,0 0.101,0.007 0.149,0.02 0.048,0.014 0.092,0.033 0.134,0.057 0.041,0.024 0.079,0.054 0.113,0.088 0.035,0.034 0.064,0.072 0.088,0.113 0.025,0.042 0.044,0.087 0.057,0.135 0.013,0.047 0.02,0.097 0.02,0.149 z"
         style="fill-rule:nonzero"
         id="path18496" /><path
         d="m 1.143,-0.351 c 0,0.042 -0.006,0.082 -0.017,0.121 C 1.115,-0.191 1.1,-0.155 1.08,-0.121 1.061,-0.087 1.037,-0.056 1.009,-0.029 0.981,-0.001 0.95,0.023 0.917,0.043 0.883,0.062 0.847,0.078 0.808,0.089 0.769,0.1 0.729,0.105 0.687,0.105 0.645,0.105 0.604,0.1 0.565,0.089 0.526,0.078 0.49,0.062 0.456,0.043 0.423,0.023 0.392,-0.001 0.364,-0.029 0.336,-0.056 0.312,-0.087 0.293,-0.121 0.273,-0.155 0.258,-0.191 0.247,-0.23 0.236,-0.269 0.23,-0.309 0.23,-0.351 c 0,-0.042 0.006,-0.083 0.017,-0.121 0.011,-0.039 0.026,-0.076 0.046,-0.109 0.019,-0.034 0.043,-0.065 0.071,-0.093 0.028,-0.027 0.059,-0.051 0.092,-0.071 0.034,-0.02 0.07,-0.035 0.109,-0.046 0.039,-0.011 0.08,-0.016 0.122,-0.016 0.042,0 0.082,0.005 0.121,0.016 0.039,0.011 0.075,0.026 0.109,0.046 0.033,0.02 0.064,0.044 0.092,0.071 0.028,0.028 0.052,0.059 0.071,0.093 0.02,0.033 0.035,0.07 0.046,0.109 0.011,0.038 0.017,0.079 0.017,0.121 z"
         style="fill:#ffffff;fill-rule:nonzero"
         id="path18498" /><path
         d="m 0.659,-0.25 c 0,-0.014 0.002,-0.028 0.005,-0.041 0.004,-0.013 0.01,-0.026 0.017,-0.037 C 0.688,-0.34 0.697,-0.35 0.708,-0.358 0.719,-0.367 0.731,-0.374 0.745,-0.379 0.735,-0.384 0.725,-0.391 0.717,-0.398 0.708,-0.406 0.701,-0.414 0.695,-0.423 0.689,-0.432 0.684,-0.442 0.68,-0.453 0.677,-0.463 0.675,-0.475 0.675,-0.486 c 0,-0.021 0.004,-0.038 0.012,-0.054 0.009,-0.016 0.02,-0.029 0.034,-0.039 0.013,-0.011 0.029,-0.019 0.047,-0.025 0.017,-0.005 0.035,-0.008 0.054,-0.008 0.018,0 0.036,0.003 0.054,0.008 0.018,0.006 0.033,0.014 0.047,0.025 0.014,0.01 0.025,0.023 0.033,0.039 0.009,0.016 0.013,0.033 0.013,0.054 0,0.011 -0.002,0.023 -0.006,0.033 -0.003,0.011 -0.008,0.021 -0.014,0.03 -0.006,0.009 -0.013,0.017 -0.022,0.025 -0.008,0.007 -0.017,0.014 -0.027,0.019 0.028,0.011 0.05,0.028 0.064,0.051 0.015,0.023 0.022,0.049 0.022,0.078 0,0.024 -0.004,0.045 -0.013,0.063 -0.009,0.018 -0.021,0.033 -0.036,0.045 -0.014,0.012 -0.032,0.022 -0.052,0.028 -0.02,0.006 -0.04,0.01 -0.062,0.01 -0.022,0 -0.043,-0.004 -0.063,-0.01 C 0.741,-0.12 0.723,-0.13 0.708,-0.142 0.693,-0.154 0.681,-0.17 0.672,-0.187 0.663,-0.205 0.659,-0.226 0.659,-0.25 Z M 0.566,-0.615 v 0.503 H 0.487 V -0.518 C 0.472,-0.506 0.456,-0.497 0.438,-0.49 0.42,-0.483 0.402,-0.477 0.384,-0.472 V -0.54 C 0.41,-0.549 0.436,-0.559 0.461,-0.572 0.486,-0.584 0.51,-0.598 0.533,-0.615 Z m 0.17,0.359 c 0,0.013 0.002,0.025 0.006,0.036 0.004,0.011 0.01,0.021 0.017,0.029 0.007,0.008 0.016,0.014 0.027,0.018 0.011,0.005 0.023,0.007 0.037,0.007 0.013,0 0.025,-0.002 0.036,-0.007 0.01,-0.004 0.019,-0.011 0.027,-0.019 C 0.893,-0.2 0.899,-0.209 0.903,-0.22 0.907,-0.231 0.909,-0.243 0.909,-0.256 0.909,-0.269 0.907,-0.281 0.903,-0.292 0.899,-0.303 0.893,-0.312 0.885,-0.321 0.878,-0.329 0.869,-0.335 0.858,-0.34 0.848,-0.345 0.836,-0.347 0.823,-0.347 c -0.013,0 -0.025,0.002 -0.036,0.007 -0.01,0.005 -0.019,0.011 -0.027,0.019 -0.008,0.008 -0.013,0.018 -0.018,0.029 -0.004,0.011 -0.006,0.023 -0.006,0.036 z m 0.017,-0.222 c 0,0.009 0.002,0.019 0.005,0.027 0.004,0.009 0.009,0.017 0.015,0.024 0.006,0.006 0.013,0.011 0.022,0.015 0.008,0.004 0.017,0.006 0.027,0.006 0.01,0 0.019,-0.002 0.028,-0.006 0.008,-0.004 0.015,-0.009 0.021,-0.015 0.006,-0.007 0.011,-0.015 0.015,-0.024 0.003,-0.008 0.005,-0.018 0.005,-0.027 0,-0.01 -0.002,-0.019 -0.005,-0.028 C 0.883,-0.515 0.878,-0.523 0.872,-0.529 0.866,-0.536 0.859,-0.541 0.85,-0.545 0.842,-0.549 0.832,-0.551 0.822,-0.551 c -0.01,0 -0.02,0.002 -0.028,0.006 -0.009,0.004 -0.016,0.009 -0.022,0.016 -0.006,0.006 -0.011,0.014 -0.014,0.023 -0.003,0.008 -0.005,0.018 -0.005,0.028 z"
         style="fill-rule:nonzero"
         id="path18500" /><path
         d="m 0.687,-0.842 c 0.045,0 0.088,0.006 0.13,0.017 0.042,0.012 0.081,0.029 0.118,0.05 0.036,0.021 0.069,0.047 0.099,0.077 0.03,0.029 0.055,0.062 0.077,0.099 0.021,0.036 0.037,0.075 0.049,0.117 0.012,0.042 0.018,0.086 0.018,0.131 0,0.045 -0.006,0.089 -0.018,0.131 -0.012,0.041 -0.028,0.081 -0.049,0.117 -0.022,0.036 -0.047,0.07 -0.077,0.099 C 1.004,0.026 0.971,0.052 0.935,0.073 0.898,0.094 0.859,0.111 0.817,0.123 0.775,0.134 0.732,0.14 0.687,0.14 0.641,0.14 0.598,0.134 0.556,0.123 0.514,0.111 0.475,0.094 0.438,0.073 0.402,0.052 0.369,0.026 0.339,-0.004 0.309,-0.033 0.284,-0.067 0.262,-0.103 0.241,-0.139 0.225,-0.179 0.213,-0.22 0.201,-0.262 0.195,-0.306 0.195,-0.351 c 0,-0.045 0.006,-0.089 0.018,-0.131 0.012,-0.042 0.028,-0.081 0.049,-0.117 0.022,-0.037 0.047,-0.07 0.077,-0.099 0.03,-0.03 0.063,-0.056 0.099,-0.077 0.037,-0.021 0.076,-0.038 0.118,-0.05 0.042,-0.011 0.085,-0.017 0.131,-0.017 z m -0.422,0.491 c 0,0.039 0.005,0.076 0.015,0.112 0.01,0.036 0.025,0.069 0.043,0.1 0.018,0.032 0.04,0.06 0.066,0.086 0.025,0.025 0.054,0.047 0.085,0.066 0.031,0.018 0.065,0.032 0.101,0.042 0.036,0.01 0.073,0.015 0.112,0.015 0.05,0 0.098,-0.008 0.145,-0.025 C 0.878,0.028 0.92,0.003 0.958,-0.029 L 0.365,-0.623 C 0.332,-0.585 0.307,-0.542 0.291,-0.496 0.274,-0.45 0.265,-0.402 0.265,-0.351 Z m 0.743,0.272 C 1.041,-0.118 1.066,-0.16 1.082,-0.206 1.099,-0.252 1.107,-0.301 1.107,-0.351 1.107,-0.39 1.102,-0.427 1.092,-0.463 1.082,-0.499 1.068,-0.532 1.05,-0.563 1.032,-0.595 1.01,-0.623 0.984,-0.649 0.959,-0.674 0.93,-0.696 0.899,-0.714 0.868,-0.733 0.834,-0.747 0.798,-0.757 0.763,-0.767 0.725,-0.772 0.687,-0.772 c -0.051,0 -0.099,0.008 -0.145,0.025 -0.047,0.017 -0.089,0.042 -0.127,0.074 z"
         style="fill:#f03a17;fill-rule:nonzero"
         id="path18502" /></g></g></svg>
