<?xml version="1.0" encoding="UTF-8" standalone="no"?>
<svg
   width="5.2649999"
   height="13.83"
   viewBox="0 0 5.2649999 13.83"
   version="1.1"
   xml:space="preserve"
   style="clip-rule:evenodd;fill-rule:evenodd;stroke-linejoin:round;stroke-miterlimit:2"
   id="svg20568"
   sodipodi:docname="emojis.svg"
   xmlns:inkscape="http://www.inkscape.org/namespaces/inkscape"
   xmlns:sodipodi="http://sodipodi.sourceforge.net/DTD/sodipodi-0.dtd"
   xmlns="http://www.w3.org/2000/svg"
   xmlns:svg="http://www.w3.org/2000/svg"><defs
     id="defs20572" /><sodipodi:namedview
     id="namedview20570"
     pagecolor="#505050"
     bordercolor="#eeeeee"
     borderopacity="1"
     inkscape:pageshadow="0"
     inkscape:pageopacity="0"
     inkscape:pagecheckerboard="0" /><g
     transform="matrix(0.24,0,0,0.24,-239.00136,-944.6052)"
     id="g20566"><g
       transform="matrix(62.5,0,0,62.5,991.214,3980.48)"
       id="g18588"><path
         d="m 0.239,-0.714 h 0.022 c 0.014,0.03 0.033,0.06 0.057,0.09 0.023,0.03 0.059,0.066 0.107,0.108 v 0.039 C 0.37,-0.499 0.319,-0.531 0.273,-0.572 V 0.066 C 0.319,0.025 0.37,-0.007 0.425,-0.029 V 0.01 C 0.377,0.052 0.341,0.088 0.318,0.118 0.294,0.148 0.275,0.178 0.261,0.208 H 0.239 C 0.225,0.178 0.206,0.148 0.182,0.118 0.158,0.088 0.122,0.052 0.074,0.01 V -0.029 C 0.13,-0.007 0.181,0.025 0.226,0.066 V -0.572 C 0.181,-0.531 0.13,-0.499 0.074,-0.477 v -0.039 c 0.048,-0.042 0.084,-0.078 0.108,-0.108 0.024,-0.03 0.043,-0.06 0.057,-0.09 z"
         style="fill-rule:nonzero"
         id="path18586" /></g></g></svg>
