<?xml version="1.0" encoding="UTF-8" standalone="no"?>
<svg
   width="16.845001"
   height="16.845001"
   viewBox="0 0 16.845001 16.845001"
   version="1.1"
   xml:space="preserve"
   style="clip-rule:evenodd;fill-rule:evenodd;stroke-linejoin:round;stroke-miterlimit:2"
   id="svg20568"
   sodipodi:docname="emojis.svg"
   xmlns:inkscape="http://www.inkscape.org/namespaces/inkscape"
   xmlns:sodipodi="http://sodipodi.sourceforge.net/DTD/sodipodi-0.dtd"
   xmlns="http://www.w3.org/2000/svg"
   xmlns:svg="http://www.w3.org/2000/svg"><defs
     id="defs20572" /><sodipodi:namedview
     id="namedview20570"
     pagecolor="#505050"
     bordercolor="#eeeeee"
     borderopacity="1"
     inkscape:pageshadow="0"
     inkscape:pageopacity="0"
     inkscape:pagecheckerboard="0" /><g
     transform="matrix(0.24,0,0,0.24,-406.4358,-941.6202)"
     id="g20566"><g
       transform="matrix(62.5,0,0,62.5,1685.67,3980.48)"
       id="g18656"><rect
         x="0.125"
         y="-0.91299999"
         width="1.123"
         height="1.123"
         style="fill-rule:nonzero"
         id="rect18650" /><rect
         x="0.19499999"
         y="-0.84200001"
         width="0.98199999"
         height="0.98199999"
         style="fill:#0078d7;fill-rule:nonzero"
         id="rect18652" /><path
         d="m 1.002,-0.562 v 0.071 H 0.511 v 0.105 l -0.14,-0.14 0.14,-0.141 v 0.105 z m -0.194,0.55 v -0.221 h 0.078 c 0.018,0 0.034,0.002 0.049,0.006 0.014,0.004 0.027,0.011 0.037,0.019 0.01,0.009 0.018,0.02 0.024,0.034 0.005,0.013 0.008,0.03 0.008,0.049 0,0.017 -0.003,0.033 -0.009,0.047 -0.006,0.014 -0.014,0.026 -0.024,0.036 -0.011,0.01 -0.023,0.017 -0.038,0.022 -0.014,0.006 -0.03,0.008 -0.047,0.008 z m -0.053,0 H 0.705 C 0.688,-0.038 0.67,-0.064 0.653,-0.09 0.635,-0.116 0.619,-0.142 0.603,-0.169 c 0,0.002 0.001,0.004 0.001,0.006 v 0.151 H 0.557 V -0.233 H 0.61 c 0.017,0.025 0.034,0.051 0.051,0.076 0.017,0.024 0.033,0.05 0.048,0.076 0,-0.001 -0.001,-0.003 -0.001,-0.005 v -0.147 h 0.047 z m -0.239,0 H 0.383 v -0.221 h 0.128 v 0.041 H 0.433 v 0.048 h 0.072 v 0.041 H 0.433 v 0.051 h 0.083 z m 0.341,-0.18 v 0.14 h 0.025 c 0.022,0 0.039,-0.007 0.051,-0.02 0.012,-0.013 0.018,-0.031 0.018,-0.053 0,-0.021 -0.006,-0.038 -0.018,-0.05 C 0.92,-0.187 0.903,-0.192 0.882,-0.192 Z"
         style="fill:#ffffff;fill-rule:nonzero"
         id="path18654" /></g></g></svg>
