<?xml version="1.0" encoding="UTF-8" standalone="no"?>
<svg
   width="16.845001"
   height="16.845001"
   viewBox="0 0 16.845001 16.845001"
   version="1.1"
   xml:space="preserve"
   style="clip-rule:evenodd;fill-rule:evenodd;stroke-linejoin:round;stroke-miterlimit:2"
   id="svg20568"
   sodipodi:docname="emojis.svg"
   xmlns:inkscape="http://www.inkscape.org/namespaces/inkscape"
   xmlns:sodipodi="http://sodipodi.sourceforge.net/DTD/sodipodi-0.dtd"
   xmlns="http://www.w3.org/2000/svg"
   xmlns:svg="http://www.w3.org/2000/svg"><defs
     id="defs20572" /><sodipodi:namedview
     id="namedview20570"
     pagecolor="#505050"
     bordercolor="#eeeeee"
     borderopacity="1"
     inkscape:pageshadow="0"
     inkscape:pageopacity="0"
     inkscape:pagecheckerboard="0" /><g
     transform="matrix(0.24,0,0,0.24,-488.8182,-941.6202)"
     id="g20566"><g
       transform="matrix(62.5,0,0,62.5,2028.93,3980.48)"
       id="g18688"><rect
         x="0.125"
         y="-0.91299999"
         width="1.123"
         height="1.123"
         style="fill-rule:nonzero"
         id="rect18682" /><rect
         x="0.19499999"
         y="-0.84200001"
         width="0.98199999"
         height="0.98199999"
         style="fill:#886ce4;fill-rule:nonzero"
         id="rect18684" /><path
         d="m 0.687,-0.457 c -0.01,0 -0.019,-0.001 -0.028,-0.005 C 0.651,-0.465 0.643,-0.47 0.637,-0.477 0.631,-0.483 0.626,-0.491 0.622,-0.499 0.618,-0.507 0.616,-0.517 0.616,-0.526 c 0,-0.01 0.002,-0.019 0.006,-0.028 0.004,-0.008 0.009,-0.016 0.015,-0.022 0.006,-0.006 0.014,-0.011 0.022,-0.015 0.009,-0.004 0.018,-0.006 0.028,-0.006 0.009,0 0.018,0.002 0.027,0.006 0.008,0.004 0.016,0.009 0.022,0.015 0.006,0.006 0.011,0.014 0.015,0.022 0.004,0.009 0.006,0.018 0.006,0.028 0,0.009 -0.002,0.019 -0.006,0.027 -0.004,0.008 -0.009,0.016 -0.015,0.022 -0.006,0.007 -0.014,0.012 -0.022,0.015 -0.009,0.004 -0.018,0.005 -0.027,0.005 z m 0,-0.315 c 10e-4,0 0.003,0 0.005,0 0.002,0 0.004,0.001 0.006,0.001 l 0.316,0.106 c 0.007,0.003 0.013,0.007 0.017,0.013 0.004,0.006 0.007,0.013 0.007,0.02 0,0.01 -0.004,0.018 -0.011,0.025 -0.006,0.007 -0.015,0.01 -0.025,0.01 -0.003,0 -0.007,0 -0.011,-0.002 L 0.687,-0.7 0.382,-0.599 c -0.002,0.001 -0.004,0.002 -0.006,0.002 -0.001,0 -0.003,0 -0.005,0 -0.01,0 -0.018,-0.003 -0.025,-0.01 -0.007,-0.007 -0.011,-0.015 -0.011,-0.025 0,-0.007 0.003,-0.014 0.007,-0.02 0.004,-0.006 0.01,-0.01 0.017,-0.013 l 0.316,-0.106 c 0.002,0 0.004,-0.001 0.006,-0.001 0.002,0 0.004,0 0.006,0 z m 0.245,0.737 c 0.01,0 0.018,0.003 0.025,0.01 0.007,0.007 0.01,0.015 0.01,0.025 0,0.009 -0.003,0.018 -0.01,0.025 C 0.95,0.032 0.942,0.035 0.932,0.035 H 0.687 C 0.677,0.035 0.669,0.032 0.662,0.024 0.655,0.017 0.651,0.009 0.651,0 c 0,-0.01 0.004,-0.018 0.011,-0.025 L 0.777,-0.14 0.715,-0.326 0.632,-0.285 c -0.005,0.003 -0.011,0.004 -0.016,0.004 -0.01,0 -0.018,-0.003 -0.025,-0.01 L 0.486,-0.396 c -0.007,-0.007 -0.01,-0.016 -0.01,-0.025 0,-0.01 0.003,-0.018 0.01,-0.025 0.007,-0.007 0.015,-0.011 0.025,-0.011 0.01,0 0.018,0.004 0.025,0.011 l 0.087,0.087 0.076,-0.037 c 0.006,-0.003 0.012,-0.007 0.018,-0.01 0.006,-0.003 0.012,-0.006 0.018,-0.009 0.003,-0.001 0.007,-0.002 0.011,-0.003 0.003,-0.001 0.007,-0.001 0.011,-0.001 0.011,0 0.021,0.003 0.031,0.01 0.009,0.007 0.015,0.015 0.019,0.026 l 0.068,0.204 c 0.001,0.005 0.002,0.011 0.002,0.016 0,0.01 -0.001,0.018 -0.005,0.024 -0.004,0.006 -0.009,0.012 -0.016,0.018 l -0.085,0.086 z"
         style="fill:#ffffff;fill-rule:nonzero"
         id="path18686" /></g></g></svg>
