<?xml version="1.0" encoding="UTF-8" standalone="no"?>
<svg
   width="16.845001"
   height="16.845001"
   viewBox="0 0 16.845001 16.845001"
   version="1.1"
   xml:space="preserve"
   style="clip-rule:evenodd;fill-rule:evenodd;stroke-linejoin:round;stroke-miterlimit:2"
   id="svg20568"
   sodipodi:docname="emojis.svg"
   xmlns:inkscape="http://www.inkscape.org/namespaces/inkscape"
   xmlns:sodipodi="http://sodipodi.sourceforge.net/DTD/sodipodi-0.dtd"
   xmlns="http://www.w3.org/2000/svg"
   xmlns:svg="http://www.w3.org/2000/svg"><defs
     id="defs20572" /><sodipodi:namedview
     id="namedview20570"
     pagecolor="#505050"
     bordercolor="#eeeeee"
     borderopacity="1"
     inkscape:pageshadow="0"
     inkscape:pageopacity="0"
     inkscape:pagecheckerboard="0" /><g
     transform="matrix(0.24,0,0,0.24,-427.0326,-941.6202)"
     id="g20566"><g
       transform="matrix(62.5,0,0,62.5,1771.49,3980.48)"
       id="g18664"><rect
         x="0.125"
         y="-0.91299999"
         width="1.123"
         height="1.123"
         style="fill-rule:nonzero"
         id="rect18658" /><rect
         x="0.19499999"
         y="-0.84200001"
         width="0.98199999"
         height="0.98199999"
         style="fill:#0078d7;fill-rule:nonzero"
         id="rect18660" /><path
         d="m 1.002,-0.526 -0.14,0.14 V -0.491 H 0.511 v 0.105 l -0.14,-0.14 0.14,-0.141 v 0.105 H 0.862 V -0.667 Z M 0.507,-0.008 C 0.491,-0.008 0.476,-0.011 0.463,-0.017 0.449,-0.022 0.438,-0.03 0.429,-0.04 0.42,-0.05 0.413,-0.061 0.408,-0.075 0.403,-0.088 0.4,-0.103 0.4,-0.12 c 0,-0.017 0.003,-0.032 0.008,-0.047 0.005,-0.014 0.012,-0.026 0.022,-0.037 0.009,-0.01 0.021,-0.018 0.034,-0.024 0.014,-0.006 0.03,-0.009 0.047,-0.009 0.017,0 0.032,0.003 0.045,0.009 0.013,0.005 0.024,0.013 0.033,0.023 0.009,0.011 0.016,0.022 0.021,0.036 0.004,0.014 0.007,0.029 0.007,0.045 0,0.017 -0.003,0.032 -0.008,0.046 -0.005,0.014 -0.012,0.026 -0.021,0.037 -0.01,0.01 -0.021,0.018 -0.035,0.024 -0.013,0.006 -0.028,0.009 -0.046,0.009 z M 0.855,-0.012 H 0.805 C 0.788,-0.038 0.77,-0.064 0.752,-0.09 0.735,-0.115 0.718,-0.142 0.703,-0.169 c 0,0.006 0.001,0.012 0.001,0.018 v 0.139 H 0.656 V -0.233 H 0.71 c 0.017,0.025 0.033,0.051 0.05,0.076 0.017,0.024 0.033,0.05 0.049,0.076 C 0.808,-0.084 0.808,-0.087 0.808,-0.091 V -0.233 H 0.855 Z M 0.51,-0.194 c -0.01,0 -0.019,0.002 -0.026,0.006 -0.007,0.004 -0.013,0.01 -0.018,0.017 -0.005,0.006 -0.008,0.014 -0.01,0.023 -0.002,0.008 -0.003,0.017 -0.003,0.026 0,0.009 0.001,0.017 0.003,0.026 0.002,0.008 0.005,0.016 0.01,0.023 0.004,0.006 0.01,0.012 0.017,0.016 0.007,0.004 0.016,0.006 0.025,0.006 0.01,0 0.019,-0.002 0.026,-0.006 0.007,-0.004 0.013,-0.009 0.018,-0.016 0.004,-0.006 0.008,-0.014 0.01,-0.022 10e-4,-0.008 0.002,-0.017 0.002,-0.026 0,-0.009 0,-0.018 -0.002,-0.026 C 0.56,-0.156 0.557,-0.164 0.553,-0.171 0.549,-0.178 0.543,-0.183 0.536,-0.187 0.529,-0.192 0.52,-0.194 0.51,-0.194 Z M 0.958,-0.233 0.952,-0.081 H 0.913 L 0.907,-0.233 Z m -0.025,0.225 c -0.008,0 -0.014,-0.003 -0.02,-0.007 -0.006,-0.005 -0.009,-0.011 -0.009,-0.019 0,-0.008 0.003,-0.015 0.009,-0.019 0.006,-0.004 0.012,-0.006 0.02,-0.006 0.007,0 0.014,0.002 0.02,0.006 0.005,0.004 0.008,0.01 0.008,0.019 0,0.008 -0.003,0.014 -0.009,0.019 -0.005,0.004 -0.012,0.007 -0.019,0.007 z"
         style="fill:#ffffff;fill-rule:nonzero"
         id="path18662" /></g></g></svg>
