<?xml version="1.0" encoding="UTF-8" standalone="no"?>
<svg
   width="16.844999"
   height="13.155"
   viewBox="0 0 16.844999 13.155"
   version="1.1"
   xml:space="preserve"
   style="clip-rule:evenodd;fill-rule:evenodd;stroke-linejoin:round;stroke-miterlimit:2"
   id="svg20568"
   sodipodi:docname="emojis.svg"
   xmlns:inkscape="http://www.inkscape.org/namespaces/inkscape"
   xmlns:sodipodi="http://sodipodi.sourceforge.net/DTD/sodipodi-0.dtd"
   xmlns="http://www.w3.org/2000/svg"
   xmlns:svg="http://www.w3.org/2000/svg"><defs
     id="defs20572" /><sodipodi:namedview
     id="namedview20570"
     pagecolor="#505050"
     bordercolor="#eeeeee"
     borderopacity="1"
     inkscape:pageshadow="0"
     inkscape:pageopacity="0"
     inkscape:pagecheckerboard="0" /><g
     transform="matrix(0.24,0,0,0.24,-224.51724,-148.3494)"
     id="g20566"><g
       transform="matrix(62.5,0,0,62.5,927.676,659.81)"
       id="g1864"><path
         d="M 0.476,0.21 C 0.458,0.21 0.441,0.208 0.424,0.204 0.407,0.2 0.39,0.194 0.375,0.185 0.359,0.177 0.345,0.167 0.332,0.155 0.319,0.143 0.308,0.13 0.299,0.114 L 0.14,-0.157 C 0.136,-0.165 0.132,-0.174 0.129,-0.183 0.126,-0.192 0.125,-0.201 0.125,-0.21 c 0,-0.014 0.003,-0.026 0.008,-0.039 0.005,-0.012 0.011,-0.023 0.019,-0.033 L 0.41,-0.602 C 0.427,-0.623 0.447,-0.639 0.471,-0.65 0.494,-0.661 0.52,-0.667 0.546,-0.667 H 0.61 l 0.077,0.076 0.076,-0.076 h 0.064 c 0.026,0 0.051,0.006 0.075,0.017 0.023,0.011 0.043,0.027 0.06,0.047 l 0.258,0.321 c 0.009,0.011 0.016,0.022 0.021,0.033 0.005,0.011 0.007,0.024 0.007,0.039 0,0.009 -10e-4,0.018 -0.004,0.027 -0.003,0.009 -0.007,0.018 -0.012,0.026 L 1.072,0.117 C 1.063,0.131 1.053,0.145 1.04,0.156 1.027,0.168 1.012,0.178 0.997,0.186 0.981,0.194 0.965,0.2 0.948,0.204 0.931,0.208 0.914,0.21 0.897,0.21 Z"
         style="fill-rule:nonzero"
         id="path1856" /><path
         d="m 0.792,-0.597 h 0.009 c 0.011,0 0.022,0.001 0.032,0.001 0.009,0.001 0.018,0.002 0.027,0.005 0.009,0.002 0.017,0.006 0.025,0.012 0.008,0.005 0.015,0.012 0.023,0.021 l 0.259,0.322 c 0.004,0.005 0.006,0.009 0.008,0.012 0.002,0.003 0.003,0.008 0.003,0.014 0,0.006 -0.002,0.012 -0.006,0.017 L 1.013,0.079 C 1.008,0.089 1,0.097 0.992,0.104 0.983,0.112 0.973,0.118 0.963,0.124 0.952,0.129 0.941,0.133 0.93,0.136 0.919,0.139 0.908,0.14 0.897,0.14 H 0.476 C 0.465,0.14 0.454,0.139 0.443,0.136 0.431,0.133 0.421,0.129 0.41,0.124 0.4,0.119 0.39,0.112 0.381,0.105 0.373,0.097 0.365,0.089 0.36,0.079 L 0.201,-0.193 C 0.197,-0.198 0.195,-0.204 0.195,-0.21 c 0,-0.005 0.001,-0.009 0.003,-0.014 0.003,-0.004 0.005,-0.008 0.008,-0.011 l 0.259,-0.323 c 0.007,-0.009 0.015,-0.016 0.023,-0.021 0.008,-0.006 0.016,-0.01 0.024,-0.012 0.009,-0.003 0.018,-0.004 0.028,-0.005 0.01,0 0.02,-0.001 0.031,-0.001 h 0.01 l 0.106,0.105 z"
         style="fill:#f03a17;fill-rule:nonzero"
         id="path1858" /><path
         d="m 1.107,-0.21 -0.121,0.008 c -0.01,0.001 -0.02,0.002 -0.03,0.003 -0.01,0.001 -0.02,0.002 -0.031,0.002 H 0.434 C 0.425,-0.197 0.415,-0.198 0.406,-0.199 0.397,-0.2 0.387,-0.201 0.378,-0.202 L 0.265,-0.21 c 0.034,-0.019 0.065,-0.037 0.094,-0.054 0.03,-0.017 0.059,-0.032 0.089,-0.045 0.03,-0.013 0.061,-0.023 0.094,-0.031 0.032,-0.007 0.069,-0.011 0.109,-0.011 h 0.071 c 0.04,0 0.077,0.004 0.109,0.011 0.033,0.008 0.064,0.018 0.094,0.031 0.03,0.013 0.059,0.028 0.089,0.045 0.029,0.017 0.06,0.035 0.093,0.054 z"
         style="fill:#ffffff;fill-rule:nonzero"
         id="path1860" /><path
         d="M 1.107,-0.21 C 1.074,-0.192 1.043,-0.174 1.014,-0.157 0.984,-0.14 0.955,-0.125 0.925,-0.112 0.894,-0.099 0.863,-0.089 0.83,-0.082 0.798,-0.074 0.761,-0.07 0.722,-0.07 H 0.651 C 0.612,-0.07 0.575,-0.074 0.543,-0.082 0.51,-0.089 0.479,-0.1 0.448,-0.113 0.418,-0.125 0.389,-0.14 0.359,-0.157 0.33,-0.174 0.298,-0.192 0.265,-0.21 Z"
         style="fill:#970044;fill-rule:nonzero"
         id="path1862" /></g></g></svg>
