<?xml version="1.0" encoding="UTF-8" standalone="no"?>
<svg
   width="16.845001"
   height="16.845001"
   viewBox="0 0 16.845001 16.845001"
   version="1.1"
   xml:space="preserve"
   style="clip-rule:evenodd;fill-rule:evenodd;stroke-linejoin:round;stroke-miterlimit:2"
   id="svg20568"
   sodipodi:docname="emojis.svg"
   xmlns:inkscape="http://www.inkscape.org/namespaces/inkscape"
   xmlns:sodipodi="http://sodipodi.sourceforge.net/DTD/sodipodi-0.dtd"
   xmlns="http://www.w3.org/2000/svg"
   xmlns:svg="http://www.w3.org/2000/svg"><defs
     id="defs20572" /><sodipodi:namedview
     id="namedview20570"
     pagecolor="#505050"
     bordercolor="#eeeeee"
     borderopacity="1"
     inkscape:pageshadow="0"
     inkscape:pageopacity="0"
     inkscape:pagecheckerboard="0" /><g
     transform="matrix(0.24,0,0,0.24,-468.2238,-941.6202)"
     id="g20566"><g
       transform="matrix(62.5,0,0,62.5,1943.12,3980.48)"
       id="g18680"><rect
         x="0.125"
         y="-0.91299999"
         width="1.123"
         height="1.123"
         style="fill-rule:nonzero"
         id="rect18674" /><rect
         x="0.19499999"
         y="-0.84200001"
         width="0.98199999"
         height="0.98199999"
         style="fill:#0078d7;fill-rule:nonzero"
         id="rect18676" /><path
         d="M 0.679,-0.008 C 0.662,-0.008 0.647,-0.011 0.634,-0.017 0.621,-0.022 0.61,-0.03 0.6,-0.04 0.591,-0.05 0.584,-0.061 0.579,-0.075 0.574,-0.088 0.572,-0.103 0.572,-0.12 c 0,-0.017 0.002,-0.032 0.007,-0.047 0.005,-0.014 0.013,-0.026 0.022,-0.037 0.01,-0.01 0.021,-0.018 0.035,-0.024 0.013,-0.006 0.029,-0.009 0.047,-0.009 0.016,0 0.031,0.003 0.044,0.009 0.013,0.005 0.024,0.013 0.033,0.023 0.009,0.011 0.016,0.022 0.021,0.036 0.005,0.014 0.007,0.029 0.007,0.045 0,0.017 -0.002,0.032 -0.007,0.046 -0.005,0.014 -0.012,0.026 -0.022,0.037 -0.009,0.01 -0.021,0.018 -0.034,0.024 -0.014,0.006 -0.029,0.009 -0.046,0.009 z M 0.827,-0.526 H 0.722 v 0.21 H 0.651 v -0.21 H 0.546 l 0.141,-0.141 z m 0.05,0.438 v 0.076 H 0.828 v -0.221 h 0.078 c 0.011,0 0.022,0.001 0.033,0.004 0.01,0.002 0.019,0.006 0.026,0.011 0.008,0.006 0.014,0.013 0.018,0.022 0.004,0.009 0.006,0.02 0.006,0.033 0,0.013 -0.002,0.024 -0.007,0.033 -0.005,0.01 -0.011,0.017 -0.02,0.023 -0.008,0.006 -0.017,0.011 -0.028,0.014 -0.01,0.003 -0.021,0.005 -0.033,0.005 z M 0.557,-0.192 H 0.494 v 0.18 h -0.05 v -0.18 H 0.381 v -0.041 h 0.176 z m 0.124,-0.002 c -0.01,0 -0.019,0.002 -0.026,0.006 -0.007,0.004 -0.013,0.01 -0.018,0.017 -0.004,0.006 -0.008,0.014 -0.01,0.023 -0.002,0.008 -0.003,0.017 -0.003,0.026 0,0.009 0.001,0.017 0.003,0.026 0.002,0.008 0.006,0.016 0.01,0.023 0.004,0.006 0.01,0.012 0.017,0.016 0.007,0.004 0.016,0.006 0.026,0.006 0.01,0 0.018,-0.002 0.026,-0.006 0.007,-0.004 0.013,-0.009 0.017,-0.016 0.004,-0.006 0.008,-0.014 0.01,-0.022 0.002,-0.009 0.003,-0.017 0.003,-0.026 0,-0.009 -0.001,-0.018 -0.003,-0.026 C 0.731,-0.156 0.728,-0.164 0.724,-0.171 0.72,-0.178 0.714,-0.183 0.707,-0.187 0.7,-0.192 0.692,-0.194 0.681,-0.194 Z m 0.196,-0.001 v 0.069 h 0.02 c 0.012,0 0.021,-0.003 0.029,-0.008 0.007,-0.005 0.011,-0.014 0.011,-0.027 0,-0.012 -0.004,-0.021 -0.011,-0.026 C 0.918,-0.192 0.908,-0.195 0.897,-0.195 Z"
         style="fill:#ffffff;fill-rule:nonzero"
         id="path18678" /></g></g></svg>
