<?xml version="1.0" encoding="UTF-8" standalone="no"?>
<svg
   width="16.845001"
   height="16.845001"
   viewBox="0 0 16.845001 16.845001"
   version="1.1"
   xml:space="preserve"
   style="clip-rule:evenodd;fill-rule:evenodd;stroke-linejoin:round;stroke-miterlimit:2"
   id="svg20568"
   sodipodi:docname="emojis.svg"
   xmlns:inkscape="http://www.inkscape.org/namespaces/inkscape"
   xmlns:sodipodi="http://sodipodi.sourceforge.net/DTD/sodipodi-0.dtd"
   xmlns="http://www.w3.org/2000/svg"
   xmlns:svg="http://www.w3.org/2000/svg"><defs
     id="defs20572" /><sodipodi:namedview
     id="namedview20570"
     pagecolor="#505050"
     bordercolor="#eeeeee"
     borderopacity="1"
     inkscape:pageshadow="0"
     inkscape:pageopacity="0"
     inkscape:pagecheckerboard="0" /><g
     transform="matrix(0.24,0,0,0.24,-262.2654,-941.6202)"
     id="g20566"><g
       transform="matrix(62.5,0,0,62.5,1084.96,3980.48)"
       id="g18600"><rect
         x="0.125"
         y="-0.91299999"
         width="1.123"
         height="1.123"
         style="fill-rule:nonzero"
         id="rect18594" /><rect
         x="0.19499999"
         y="-0.84200001"
         width="0.98199999"
         height="0.98199999"
         style="fill:#0078d7;fill-rule:nonzero"
         id="rect18596" /><path
         d="m 0.757,-0.632 c 0.034,0 0.066,0.007 0.095,0.019 0.03,0.013 0.056,0.031 0.078,0.053 0.023,0.022 0.04,0.049 0.053,0.078 0.013,0.03 0.019,0.062 0.019,0.096 0,0.034 -0.006,0.065 -0.019,0.095 -0.013,0.03 -0.03,0.056 -0.053,0.078 -0.022,0.023 -0.048,0.04 -0.078,0.053 -0.029,0.013 -0.061,0.019 -0.095,0.019 H 0.476 v 0.106 l -0.141,-0.141 0.141,-0.14 v 0.106 h 0.281 c 0.024,0 0.047,-0.005 0.068,-0.014 0.021,-0.01 0.04,-0.022 0.056,-0.038 0.015,-0.016 0.028,-0.035 0.037,-0.056 0.009,-0.021 0.014,-0.044 0.014,-0.068 0,-0.024 -0.005,-0.047 -0.014,-0.068 C 0.909,-0.476 0.896,-0.494 0.881,-0.51 0.865,-0.526 0.846,-0.538 0.825,-0.548 0.804,-0.557 0.781,-0.562 0.757,-0.562 H 0.476 v -0.07 z"
         style="fill:#ffffff;fill-rule:nonzero"
         id="path18598" /></g></g></svg>
