<?xml version="1.0" encoding="UTF-8" standalone="no"?>
<svg
   width="16.845001"
   height="16.845001"
   viewBox="0 0 16.845001 16.845001"
   version="1.1"
   xml:space="preserve"
   style="clip-rule:evenodd;fill-rule:evenodd;stroke-linejoin:round;stroke-miterlimit:2"
   id="svg20568"
   sodipodi:docname="emojis.svg"
   xmlns:inkscape="http://www.inkscape.org/namespaces/inkscape"
   xmlns:sodipodi="http://sodipodi.sourceforge.net/DTD/sodipodi-0.dtd"
   xmlns="http://www.w3.org/2000/svg"
   xmlns:svg="http://www.w3.org/2000/svg"><defs
     id="defs20572" /><sodipodi:namedview
     id="namedview20570"
     pagecolor="#505050"
     bordercolor="#eeeeee"
     borderopacity="1"
     inkscape:pageshadow="0"
     inkscape:pageopacity="0"
     inkscape:pagecheckerboard="0" /><g
     transform="matrix(0.24,0,0,0.24,-509.415,-941.6202)"
     id="g20566"><g
       transform="matrix(62.5,0,0,62.5,2114.75,3980.48)"
       id="g18696"><rect
         x="0.125"
         y="-0.91299999"
         width="1.123"
         height="1.123"
         style="fill-rule:nonzero"
         id="rect18690" /><rect
         x="0.19499999"
         y="-0.84200001"
         width="0.98199999"
         height="0.98199999"
         style="fill:#886ce4;fill-rule:nonzero"
         id="rect18692" /><path
         d="m 0.896,-0.564 c 0.012,0 0.024,0.001 0.036,0.003 0.012,0.002 0.023,0.005 0.033,0.011 0.01,0.005 0.018,0.012 0.024,0.021 0.006,0.009 0.01,0.021 0.01,0.035 0,0.013 -0.003,0.026 -0.008,0.039 -0.005,0.013 -0.012,0.026 -0.02,0.039 -0.008,0.012 -0.017,0.024 -0.026,0.035 -0.01,0.011 -0.019,0.021 -0.028,0.03 0.009,0.009 0.018,0.019 0.028,0.03 0.009,0.011 0.018,0.023 0.026,0.035 0.008,0.013 0.015,0.026 0.02,0.039 0.005,0.013 0.008,0.026 0.008,0.039 0,0.014 -0.004,0.026 -0.01,0.035 -0.006,0.009 -0.014,0.016 -0.024,0.021 -0.01,0.005 -0.021,0.009 -0.033,0.011 C 0.92,-0.139 0.908,-0.138 0.896,-0.138 0.88,-0.138 0.864,-0.139 0.849,-0.141 0.833,-0.144 0.817,-0.147 0.802,-0.151 0.799,-0.143 0.796,-0.133 0.793,-0.123 0.789,-0.112 0.785,-0.101 0.78,-0.09 0.775,-0.078 0.769,-0.067 0.763,-0.057 0.757,-0.046 0.75,-0.036 0.742,-0.028 0.734,-0.019 0.725,-0.013 0.716,-0.008 0.707,-0.003 0.697,0 0.687,0 0.676,0 0.666,-0.003 0.657,-0.008 0.648,-0.013 0.639,-0.019 0.631,-0.028 0.624,-0.036 0.616,-0.046 0.61,-0.057 0.604,-0.067 0.598,-0.078 0.593,-0.09 0.588,-0.101 0.584,-0.112 0.58,-0.123 0.576,-0.133 0.574,-0.143 0.571,-0.151 0.556,-0.147 0.54,-0.144 0.524,-0.141 0.509,-0.139 0.493,-0.138 0.477,-0.138 0.465,-0.138 0.453,-0.139 0.441,-0.141 0.429,-0.143 0.418,-0.146 0.408,-0.151 0.398,-0.157 0.39,-0.164 0.384,-0.173 0.377,-0.182 0.374,-0.193 0.374,-0.208 0.374,-0.22 0.377,-0.233 0.382,-0.247 0.387,-0.26 0.394,-0.273 0.402,-0.286 0.41,-0.298 0.419,-0.31 0.428,-0.322 0.438,-0.333 0.447,-0.343 0.456,-0.351 0.447,-0.36 0.438,-0.369 0.428,-0.381 0.419,-0.392 0.41,-0.404 0.402,-0.417 0.394,-0.429 0.387,-0.442 0.382,-0.456 0.377,-0.469 0.374,-0.482 0.374,-0.495 c 0,-0.014 0.003,-0.025 0.01,-0.034 0.006,-0.009 0.014,-0.017 0.024,-0.022 0.01,-0.005 0.021,-0.009 0.033,-0.011 0.012,-10e-4 0.024,-0.002 0.036,-0.002 0.016,0 0.032,0.001 0.047,0.003 0.016,0.003 0.032,0.006 0.047,0.01 0.003,-0.008 0.005,-0.018 0.009,-0.029 0.004,-0.01 0.008,-0.021 0.013,-0.033 0.005,-0.011 0.011,-0.022 0.017,-0.033 0.006,-0.01 0.014,-0.02 0.021,-0.028 0.008,-0.009 0.017,-0.016 0.026,-0.021 0.009,-0.005 0.019,-0.007 0.03,-0.007 0.01,0 0.02,0.002 0.029,0.007 0.009,0.005 0.018,0.012 0.026,0.021 0.008,0.008 0.015,0.018 0.021,0.028 0.006,0.011 0.012,0.022 0.017,0.033 0.005,0.012 0.009,0.023 0.013,0.033 0.003,0.011 0.006,0.021 0.009,0.029 0.015,-0.004 0.031,-0.007 0.047,-0.01 0.015,-0.002 0.031,-0.003 0.047,-0.003 z m 0,0.069 c -0.013,0 -0.027,0.002 -0.04,0.004 -0.013,0.002 -0.026,0.005 -0.039,0.009 0,0 0,0.001 0,0.001 0,0.001 0,0.001 0,0.002 0.002,0.008 0.003,0.017 0.004,0.024 0.001,0.008 0.002,0.016 0.002,0.025 0.007,0.005 0.014,0.01 0.021,0.015 0.007,0.006 0.014,0.011 0.021,0.017 C 0.87,-0.403 0.876,-0.41 0.883,-0.417 0.89,-0.425 0.896,-0.433 0.903,-0.441 0.909,-0.45 0.914,-0.458 0.919,-0.467 0.924,-0.475 0.927,-0.483 0.928,-0.49 0.923,-0.492 0.918,-0.493 0.913,-0.494 c -0.006,0 -0.011,-0.001 -0.017,-0.001 z m -0.209,0.224 c 0.011,-0.007 0.023,-0.013 0.034,-0.019 0.012,-0.007 0.023,-0.014 0.035,-0.021 0,-0.007 0,-0.013 0.001,-0.02 0,-0.007 0,-0.014 0,-0.02 0,-0.007 0,-0.013 0,-0.02 C 0.756,-0.378 0.756,-0.385 0.756,-0.391 0.744,-0.398 0.733,-0.405 0.721,-0.412 0.71,-0.418 0.698,-0.425 0.687,-0.431 0.675,-0.425 0.663,-0.418 0.652,-0.412 0.64,-0.405 0.629,-0.398 0.617,-0.391 c 0,0.006 0,0.013 -0.001,0.02 0,0.007 0,0.013 0,0.02 0,0.006 0,0.013 0,0.02 0.001,0.007 0.001,0.013 0.001,0.02 0.012,0.007 0.023,0.014 0.035,0.021 0.011,0.006 0.023,0.012 0.035,0.019 z m 0,-0.359 C 0.68,-0.624 0.675,-0.617 0.67,-0.608 0.665,-0.6 0.66,-0.592 0.656,-0.583 c -0.004,0.009 -0.008,0.018 -0.01,0.027 -0.003,0.009 -0.006,0.018 -0.008,0.027 0.008,0.003 0.016,0.006 0.025,0.01 0.008,0.003 0.016,0.007 0.024,0.01 0.007,-0.003 0.015,-0.007 0.023,-0.01 0.009,-0.004 0.017,-0.007 0.025,-0.01 C 0.73,-0.547 0.724,-0.565 0.717,-0.583 0.709,-0.6 0.699,-0.616 0.687,-0.63 Z m -0.242,0.14 c 0.001,0.007 0.004,0.015 0.009,0.023 0.005,0.009 0.01,0.017 0.016,0.026 0.007,0.008 0.013,0.016 0.02,0.024 0.007,0.007 0.013,0.014 0.018,0.019 0.007,-0.006 0.014,-0.011 0.021,-0.017 0.007,-0.005 0.014,-0.01 0.021,-0.015 0,-0.009 0.001,-0.017 0.002,-0.025 0.001,-0.007 0.002,-0.016 0.004,-0.024 0,-0.001 0,-0.001 0,-0.002 0,0 0,-0.001 0,-0.001 C 0.543,-0.486 0.53,-0.489 0.517,-0.491 0.504,-0.493 0.49,-0.495 0.477,-0.495 c -0.006,0 -0.011,0.001 -0.017,0.001 -0.005,0.001 -0.01,0.002 -0.015,0.004 z m 0.032,0.282 c 0.013,0 0.027,-0.001 0.04,-0.003 0.013,-0.002 0.026,-0.005 0.039,-0.009 0,0 0,-0.001 0,-0.001 0,-0.001 0,-0.001 0,-0.002 C 0.554,-0.232 0.553,-0.24 0.552,-0.248 0.551,-0.255 0.55,-0.264 0.55,-0.272 0.543,-0.277 0.536,-0.282 0.529,-0.288 0.522,-0.293 0.515,-0.298 0.508,-0.304 0.503,-0.299 0.497,-0.293 0.49,-0.285 c -0.007,0.008 -0.013,0.016 -0.02,0.024 -0.006,0.009 -0.011,0.017 -0.016,0.026 -0.005,0.008 -0.008,0.016 -0.009,0.023 0.005,0.002 0.01,0.003 0.015,0.004 0.006,0 0.011,0 0.017,0 z m 0.21,0.136 C 0.693,-0.078 0.698,-0.086 0.703,-0.094 0.708,-0.102 0.713,-0.11 0.717,-0.119 0.721,-0.128 0.724,-0.137 0.727,-0.146 0.73,-0.156 0.733,-0.164 0.735,-0.173 0.727,-0.176 0.719,-0.179 0.711,-0.183 0.703,-0.186 0.695,-0.189 0.687,-0.193 c -0.009,0.004 -0.017,0.007 -0.025,0.01 -0.008,0.004 -0.016,0.007 -0.024,0.01 0.002,0.008 0.004,0.017 0.007,0.026 0.003,0.01 0.007,0.019 0.011,0.028 0.004,0.009 0.009,0.018 0.014,0.026 0.005,0.008 0.011,0.015 0.017,0.021 z m 0.241,-0.14 C 0.927,-0.219 0.924,-0.227 0.919,-0.235 0.914,-0.244 0.909,-0.252 0.903,-0.261 0.896,-0.269 0.89,-0.277 0.883,-0.285 0.876,-0.293 0.87,-0.299 0.865,-0.304 0.858,-0.298 0.851,-0.293 0.844,-0.288 0.837,-0.282 0.83,-0.277 0.823,-0.272 c 0,0.008 -0.001,0.017 -0.002,0.024 -0.001,0.008 -0.002,0.016 -0.004,0.025 0,0.001 0,0.001 0,0.002 0,0 0,0.001 0,0.001 0.013,0.004 0.026,0.007 0.039,0.009 0.013,0.002 0.027,0.003 0.04,0.003 0.006,0 0.011,0 0.017,0 0.005,-0.001 0.01,-0.002 0.015,-0.004 z M 0.687,-0.386 c 0.009,0 0.018,0.003 0.024,0.01 0.007,0.007 0.011,0.015 0.011,0.025 0,0.01 -0.004,0.018 -0.011,0.025 -0.006,0.007 -0.015,0.01 -0.024,0.01 -0.01,0 -0.019,-0.003 -0.025,-0.01 -0.007,-0.007 -0.011,-0.015 -0.011,-0.025 0,-0.01 0.004,-0.018 0.011,-0.025 0.006,-0.007 0.015,-0.01 0.025,-0.01 z"
         style="fill:#ffffff;fill-rule:nonzero"
         id="path18694" /></g></g></svg>
