<?xml version="1.0" encoding="UTF-8" standalone="no"?>
<svg
   width="16.845001"
   height="16.845001"
   viewBox="0 0 16.845001 16.845001"
   version="1.1"
   xml:space="preserve"
   style="clip-rule:evenodd;fill-rule:evenodd;stroke-linejoin:round;stroke-miterlimit:2"
   id="svg20568"
   sodipodi:docname="emojis.svg"
   xmlns:inkscape="http://www.inkscape.org/namespaces/inkscape"
   xmlns:sodipodi="http://sodipodi.sourceforge.net/DTD/sodipodi-0.dtd"
   xmlns="http://www.w3.org/2000/svg"
   xmlns:svg="http://www.w3.org/2000/svg"><defs
     id="defs20572" /><sodipodi:namedview
     id="namedview20570"
     pagecolor="#505050"
     bordercolor="#eeeeee"
     borderopacity="1"
     inkscape:pageshadow="0"
     inkscape:pageopacity="0"
     inkscape:pagecheckerboard="0" /><g
     transform="matrix(0.24,0,0,0.24,-571.203,-941.6202)"
     id="g20566"><g
       transform="matrix(62.5,0,0,62.5,2372.2,3980.48)"
       id="g18720"><rect
         x="0.125"
         y="-0.91299999"
         width="1.123"
         height="1.123"
         style="fill-rule:nonzero"
         id="rect18714" /><rect
         x="0.19499999"
         y="-0.84200001"
         width="0.98199999"
         height="0.98199999"
         style="fill:#886ce4;fill-rule:nonzero"
         id="rect18716" /><path
         d="m 1,-0.386 0.021,-0.001 c 0.006,0 0.012,0.001 0.018,0.002 0.007,0 0.012,0.002 0.017,0.004 0.005,0.003 0.009,0.006 0.012,0.011 0.003,0.005 0.005,0.011 0.005,0.019 0,0.008 -0.002,0.014 -0.005,0.019 -0.003,0.004 -0.008,0.008 -0.013,0.01 -0.005,0.003 -0.011,0.004 -0.017,0.005 -0.007,0.001 -0.013,0.001 -0.019,0.001 H 1 c -0.003,0.03 -0.01,0.059 -0.022,0.086 -0.011,0.027 -0.026,0.053 -0.045,0.076 l 0.022,0.021 c 0.004,0.004 0.007,0.008 0.009,0.013 0.002,0.004 0.003,0.009 0.003,0.015 0,0.009 -0.003,0.018 -0.01,0.024 C 0.95,-0.074 0.942,-0.07 0.932,-0.07 0.927,-0.07 0.922,-0.071 0.917,-0.073 0.913,-0.076 0.909,-0.078 0.905,-0.082 0.901,-0.085 0.897,-0.089 0.894,-0.093 0.89,-0.097 0.887,-0.101 0.884,-0.104 0.86,-0.086 0.835,-0.071 0.808,-0.059 0.78,-0.048 0.752,-0.041 0.722,-0.037 v 0.02 c 0,0.007 0,0.013 -0.001,0.019 C 0.72,0.009 0.719,0.014 0.716,0.019 0.714,0.024 0.71,0.028 0.705,0.031 0.701,0.034 0.694,0.035 0.687,0.035 0.678,0.035 0.672,0.034 0.667,0.031 0.663,0.027 0.659,0.023 0.657,0.018 0.655,0.013 0.653,0.007 0.652,0.001 0.652,-0.005 0.651,-0.012 0.651,-0.018 V -0.037 C 0.621,-0.041 0.593,-0.048 0.565,-0.059 0.538,-0.071 0.513,-0.086 0.489,-0.104 0.486,-0.101 0.483,-0.097 0.479,-0.093 0.476,-0.089 0.472,-0.086 0.468,-0.082 0.464,-0.079 0.46,-0.076 0.456,-0.074 0.451,-0.071 0.446,-0.07 0.441,-0.07 0.431,-0.07 0.423,-0.074 0.416,-0.081 0.409,-0.087 0.406,-0.096 0.406,-0.105 0.406,-0.111 0.407,-0.116 0.409,-0.12 0.411,-0.125 0.414,-0.129 0.418,-0.133 0.421,-0.137 0.425,-0.14 0.429,-0.144 0.433,-0.147 0.436,-0.151 0.44,-0.154 0.421,-0.177 0.406,-0.203 0.395,-0.23 0.384,-0.257 0.376,-0.286 0.373,-0.316 l -0.021,0.001 c -0.006,0 -0.013,-0.001 -0.019,-0.002 -0.006,0 -0.012,-0.002 -0.017,-0.005 C 0.312,-0.324 0.308,-0.328 0.305,-0.332 0.302,-0.337 0.3,-0.343 0.3,-0.351 0.3,-0.359 0.302,-0.366 0.305,-0.37 0.308,-0.375 0.312,-0.378 0.317,-0.381 0.323,-0.383 0.328,-0.385 0.334,-0.385 0.341,-0.386 0.347,-0.386 0.354,-0.386 H 0.373 C 0.376,-0.416 0.384,-0.445 0.395,-0.472 0.406,-0.5 0.421,-0.525 0.44,-0.548 0.436,-0.552 0.433,-0.555 0.428,-0.558 0.424,-0.562 0.421,-0.565 0.417,-0.569 0.414,-0.573 0.411,-0.577 0.409,-0.582 0.407,-0.586 0.406,-0.591 0.406,-0.597 c 0,-0.009 0.003,-0.018 0.01,-0.025 0.007,-0.006 0.015,-0.01 0.025,-0.01 0.005,0 0.01,0.001 0.015,0.004 0.004,0.002 0.008,0.005 0.012,0.008 l 0.021,0.022 c 0.024,-0.019 0.049,-0.034 0.076,-0.045 0.028,-0.011 0.056,-0.018 0.086,-0.022 v -0.02 c 0,-0.006 0,-0.013 0.001,-0.019 0.001,-0.006 0.003,-0.012 0.005,-0.017 0.002,-0.005 0.006,-0.009 0.011,-0.012 0.004,-0.003 0.011,-0.004 0.019,-0.004 0.007,0 0.014,0.001 0.018,0.005 0.005,0.003 0.009,0.007 0.011,0.012 0.003,0.005 0.004,0.011 0.005,0.018 0,0.006 0.001,0.013 0.001,0.019 v 0.018 c 0.03,0.004 0.058,0.011 0.086,0.022 0.027,0.011 0.052,0.026 0.076,0.045 0.003,-0.003 0.006,-0.007 0.01,-0.011 0.004,-0.004 0.007,-0.007 0.011,-0.011 0.004,-0.003 0.008,-0.006 0.012,-0.008 0.005,-0.003 0.01,-0.004 0.015,-0.004 0.01,0 0.018,0.004 0.025,0.01 0.007,0.007 0.01,0.016 0.01,0.025 0,0.006 -0.001,0.011 -0.003,0.015 C 0.962,-0.577 0.959,-0.573 0.955,-0.57 0.952,-0.566 0.948,-0.562 0.944,-0.559 0.94,-0.555 0.936,-0.552 0.933,-0.548 0.952,-0.525 0.967,-0.5 0.978,-0.472 0.99,-0.445 0.997,-0.416 1,-0.386 Z m -0.313,0.105 c 0.009,0 0.018,-0.002 0.027,-0.005 C 0.722,-0.29 0.73,-0.295 0.736,-0.302 0.742,-0.308 0.747,-0.315 0.751,-0.324 0.755,-0.332 0.757,-0.341 0.757,-0.351 0.757,-0.361 0.755,-0.37 0.751,-0.378 0.747,-0.387 0.742,-0.394 0.736,-0.401 0.73,-0.407 0.722,-0.412 0.714,-0.416 0.705,-0.42 0.696,-0.421 0.687,-0.421 c -0.01,0 -0.019,0.001 -0.028,0.005 -0.008,0.004 -0.016,0.009 -0.022,0.015 -0.006,0.007 -0.011,0.014 -0.015,0.023 -0.004,0.008 -0.006,0.017 -0.006,0.027 0,0.01 0.002,0.019 0.006,0.027 0.004,0.009 0.009,0.016 0.015,0.022 0.006,0.007 0.014,0.012 0.022,0.016 0.009,0.003 0.018,0.005 0.028,0.005 z M 0.651,-0.594 c -0.02,0.003 -0.04,0.008 -0.058,0.016 -0.019,0.008 -0.037,0.018 -0.053,0.03 l 0.075,0.076 C 0.626,-0.478 0.638,-0.483 0.651,-0.487 Z M 0.93,-0.386 C 0.927,-0.407 0.921,-0.426 0.914,-0.445 0.906,-0.464 0.896,-0.481 0.883,-0.498 l -0.075,0.076 c 0.006,0.011 0.011,0.023 0.014,0.036 z M 0.833,-0.548 C 0.817,-0.56 0.799,-0.57 0.781,-0.578 0.762,-0.586 0.742,-0.591 0.722,-0.594 v 0.107 c 0.013,0.004 0.025,0.009 0.036,0.015 z m 0.05,0.344 C 0.896,-0.221 0.906,-0.238 0.914,-0.257 0.921,-0.276 0.927,-0.295 0.93,-0.316 H 0.822 C 0.819,-0.303 0.814,-0.291 0.808,-0.28 Z m -0.161,0.096 c 0.02,-0.003 0.04,-0.008 0.059,-0.016 0.018,-0.008 0.036,-0.018 0.052,-0.03 L 0.758,-0.23 C 0.747,-0.224 0.735,-0.219 0.722,-0.215 Z M 0.443,-0.316 c 0.003,0.021 0.009,0.04 0.016,0.059 0.008,0.019 0.018,0.036 0.031,0.053 L 0.565,-0.28 C 0.559,-0.291 0.554,-0.303 0.551,-0.316 Z m 0.097,0.162 c 0.016,0.012 0.034,0.022 0.053,0.03 0.018,0.008 0.038,0.013 0.058,0.016 V -0.215 C 0.638,-0.219 0.626,-0.224 0.615,-0.23 Z M 0.49,-0.498 c -0.013,0.017 -0.023,0.034 -0.031,0.053 -0.007,0.019 -0.013,0.038 -0.016,0.059 h 0.108 c 0.003,-0.013 0.008,-0.025 0.014,-0.036 z"
         style="fill:#ffffff;fill-rule:nonzero"
         id="path18718" /></g></g></svg>
