<?xml version="1.0" encoding="UTF-8" standalone="no"?>
<svg
   width="16.845001"
   height="16.845001"
   viewBox="0 0 16.845001 16.845001"
   version="1.1"
   xml:space="preserve"
   style="clip-rule:evenodd;fill-rule:evenodd;stroke-linejoin:round;stroke-miterlimit:2"
   id="svg20568"
   sodipodi:docname="emojis.svg"
   xmlns:inkscape="http://www.inkscape.org/namespaces/inkscape"
   xmlns:sodipodi="http://sodipodi.sourceforge.net/DTD/sodipodi-0.dtd"
   xmlns="http://www.w3.org/2000/svg"
   xmlns:svg="http://www.w3.org/2000/svg"><defs
     id="defs20572" /><sodipodi:namedview
     id="namedview20570"
     pagecolor="#505050"
     bordercolor="#eeeeee"
     borderopacity="1"
     inkscape:pageshadow="0"
     inkscape:pageopacity="0"
     inkscape:pagecheckerboard="0" /><g
     transform="matrix(0.24,0,0,0.24,-653.5854,-941.6202)"
     id="g20566"><g
       transform="matrix(62.5,0,0,62.5,2715.46,3980.48)"
       id="g18752"><rect
         x="0.125"
         y="-0.91299999"
         width="1.123"
         height="1.123"
         style="fill-rule:nonzero"
         id="rect18746" /><rect
         x="0.19499999"
         y="-0.84200001"
         width="0.98199999"
         height="0.98199999"
         style="fill:#886ce4;fill-rule:nonzero"
         id="rect18748" /><path
         d="m 0.511,-0.351 c 0,0.034 0.007,0.066 0.02,0.096 0.012,0.03 0.03,0.056 0.052,0.078 0.022,0.022 0.048,0.039 0.078,0.052 0.03,0.013 0.062,0.02 0.096,0.02 0.033,0 0.065,-0.007 0.095,-0.02 -0.024,0.018 -0.05,0.031 -0.078,0.041 C 0.746,-0.075 0.717,-0.07 0.687,-0.07 0.648,-0.07 0.611,-0.078 0.577,-0.092 0.543,-0.107 0.513,-0.127 0.488,-0.152 0.462,-0.178 0.442,-0.208 0.428,-0.242 0.413,-0.276 0.406,-0.312 0.406,-0.351 c 0,-0.039 0.007,-0.075 0.022,-0.109 0.014,-0.035 0.034,-0.064 0.06,-0.09 0.025,-0.025 0.055,-0.045 0.089,-0.06 0.034,-0.015 0.071,-0.022 0.11,-0.022 0.03,0 0.059,0.005 0.087,0.014 0.028,0.009 0.054,0.023 0.078,0.04 -0.03,-0.012 -0.062,-0.019 -0.095,-0.019 -0.034,0 -0.066,0.007 -0.096,0.02 -0.029,0.012 -0.055,0.03 -0.078,0.052 -0.022,0.023 -0.04,0.049 -0.052,0.078 -0.013,0.03 -0.02,0.062 -0.02,0.096 z m 0.407,0.029 0.038,0.111 -0.094,-0.07 -0.093,0.07 0.037,-0.112 -0.084,-0.063 h 0.105 l 0.035,-0.105 0.035,0.105 h 0.105 z"
         style="fill:#ffffff;fill-rule:nonzero"
         id="path18750" /></g></g></svg>
