<?xml version="1.0" encoding="UTF-8" standalone="no"?>
<svg
   width="16.845001"
   height="16.845001"
   viewBox="0 0 16.845001 16.845001"
   version="1.1"
   xml:space="preserve"
   style="clip-rule:evenodd;fill-rule:evenodd;stroke-linejoin:round;stroke-miterlimit:2"
   id="svg20568"
   sodipodi:docname="emojis.svg"
   xmlns:inkscape="http://www.inkscape.org/namespaces/inkscape"
   xmlns:sodipodi="http://sodipodi.sourceforge.net/DTD/sodipodi-0.dtd"
   xmlns="http://www.w3.org/2000/svg"
   xmlns:svg="http://www.w3.org/2000/svg"><defs
     id="defs20572" /><sodipodi:namedview
     id="namedview20570"
     pagecolor="#505050"
     bordercolor="#eeeeee"
     borderopacity="1"
     inkscape:pageshadow="0"
     inkscape:pageopacity="0"
     inkscape:pagecheckerboard="0" /><g
     transform="matrix(0.24,0,0,0.24,-33.8094,-958.5906)"
     id="g20566"><g
       transform="matrix(62.5,0,0,62.5,133.06,4051.19)"
       id="g18792"><rect
         x="0.125"
         y="-0.91299999"
         width="1.123"
         height="1.123"
         style="fill-rule:nonzero"
         id="rect18786" /><rect
         x="0.19499999"
         y="-0.84200001"
         width="0.98199999"
         height="0.98199999"
         style="fill:#886ce4;fill-rule:nonzero"
         id="rect18788" /><path
         d="m 0.813,-0.491 c 0.019,0.011 0.035,0.024 0.05,0.039 0.014,0.015 0.027,0.032 0.037,0.05 0.01,0.018 0.018,0.038 0.024,0.058 0.005,0.021 0.008,0.042 0.008,0.063 0,0.034 -0.006,0.066 -0.019,0.096 C 0.9,-0.156 0.882,-0.129 0.86,-0.107 0.838,-0.085 0.812,-0.067 0.782,-0.054 0.752,-0.042 0.72,-0.035 0.687,-0.035 0.653,-0.035 0.621,-0.042 0.591,-0.054 0.561,-0.067 0.535,-0.085 0.513,-0.107 0.491,-0.129 0.473,-0.156 0.46,-0.185 0.447,-0.215 0.441,-0.247 0.441,-0.281 c 0,-0.021 0.003,-0.042 0.008,-0.063 0.006,-0.02 0.014,-0.04 0.024,-0.058 C 0.483,-0.42 0.496,-0.437 0.51,-0.452 0.525,-0.467 0.542,-0.48 0.56,-0.491 0.542,-0.502 0.525,-0.515 0.51,-0.531 0.496,-0.546 0.483,-0.563 0.473,-0.581 0.463,-0.599 0.455,-0.619 0.449,-0.639 0.444,-0.66 0.441,-0.681 0.441,-0.702 h 0.07 c 0,0.024 0.005,0.047 0.014,0.068 0.009,0.021 0.022,0.04 0.037,0.056 0.016,0.016 0.035,0.028 0.056,0.038 0.022,0.009 0.044,0.014 0.069,0.014 0.024,0 0.046,-0.005 0.068,-0.014 0.021,-0.01 0.04,-0.022 0.055,-0.038 0.016,-0.016 0.029,-0.035 0.038,-0.056 0.009,-0.021 0.014,-0.044 0.014,-0.068 h 0.07 c 0,0.021 -0.003,0.042 -0.008,0.063 -0.006,0.02 -0.014,0.04 -0.024,0.058 -0.01,0.018 -0.023,0.035 -0.037,0.05 -0.015,0.016 -0.031,0.029 -0.05,0.04 z m -0.126,0.386 c 0.024,0 0.046,-0.005 0.068,-0.014 0.021,-0.01 0.04,-0.022 0.055,-0.038 0.016,-0.016 0.029,-0.034 0.038,-0.056 0.009,-0.021 0.014,-0.044 0.014,-0.068 0,-0.024 -0.005,-0.047 -0.014,-0.068 C 0.839,-0.37 0.826,-0.389 0.81,-0.405 0.795,-0.421 0.776,-0.433 0.755,-0.443 0.733,-0.452 0.711,-0.457 0.687,-0.457 c -0.025,0 -0.047,0.005 -0.069,0.014 -0.021,0.01 -0.039,0.022 -0.055,0.038 -0.016,0.016 -0.029,0.035 -0.038,0.056 -0.009,0.021 -0.014,0.044 -0.014,0.068 0,0.024 0.005,0.047 0.014,0.068 0.009,0.022 0.022,0.04 0.037,0.056 0.016,0.016 0.035,0.029 0.056,0.038 0.022,0.009 0.044,0.014 0.069,0.014 z"
         style="fill:#ffffff;fill-rule:nonzero"
         id="path18790" /></g></g></svg>
