<?xml version="1.0" encoding="UTF-8" standalone="no"?>
<svg
   width="16.845001"
   height="16.845001"
   viewBox="0 0 16.845001 16.845001"
   version="1.1"
   xml:space="preserve"
   style="clip-rule:evenodd;fill-rule:evenodd;stroke-linejoin:round;stroke-miterlimit:2"
   id="svg20568"
   sodipodi:docname="emojis.svg"
   xmlns:inkscape="http://www.inkscape.org/namespaces/inkscape"
   xmlns:sodipodi="http://sodipodi.sourceforge.net/DTD/sodipodi-0.dtd"
   xmlns="http://www.w3.org/2000/svg"
   xmlns:svg="http://www.w3.org/2000/svg"><defs
     id="defs20572" /><sodipodi:namedview
     id="namedview20570"
     pagecolor="#505050"
     bordercolor="#eeeeee"
     borderopacity="1"
     inkscape:pageshadow="0"
     inkscape:pageopacity="0"
     inkscape:pagecheckerboard="0" /><g
     transform="matrix(0.24,0,0,0.24,-674.1798,-941.6202)"
     id="g20566"><g
       transform="matrix(62.5,0,0,62.5,2801.27,3980.48)"
       id="g18760"><rect
         x="0.125"
         y="-0.91299999"
         width="1.123"
         height="1.123"
         style="fill-rule:nonzero"
         id="rect18754" /><rect
         x="0.19499999"
         y="-0.84200001"
         width="0.98199999"
         height="0.98199999"
         style="fill:#886ce4;fill-rule:nonzero"
         id="rect18756" /><path
         d="m 0.687,-0.702 c 0.032,0 0.063,0.004 0.093,0.013 0.03,0.008 0.058,0.02 0.084,0.035 0.025,0.015 0.049,0.033 0.071,0.055 0.021,0.021 0.039,0.045 0.055,0.071 0.015,0.026 0.026,0.054 0.035,0.084 0.008,0.03 0.013,0.061 0.013,0.093 0,0.032 -0.005,0.063 -0.013,0.093 C 1.016,-0.228 1.005,-0.2 0.99,-0.174 0.974,-0.148 0.956,-0.125 0.935,-0.103 0.913,-0.082 0.889,-0.063 0.864,-0.048 0.838,-0.033 0.81,-0.021 0.78,-0.013 0.75,-0.004 0.719,0 0.687,0 0.638,0 0.593,-0.009 0.55,-0.028 0.508,-0.046 0.47,-0.071 0.438,-0.103 0.407,-0.135 0.381,-0.172 0.363,-0.215 0.345,-0.257 0.335,-0.303 0.335,-0.351 c 0,-0.032 0.005,-0.063 0.013,-0.093 0.009,-0.03 0.02,-0.058 0.036,-0.084 0.015,-0.026 0.033,-0.05 0.054,-0.071 0.022,-0.022 0.046,-0.04 0.072,-0.055 0.025,-0.015 0.053,-0.027 0.083,-0.035 0.03,-0.009 0.061,-0.013 0.094,-0.013 z m 0.221,0.523 C 0.928,-0.204 0.942,-0.231 0.952,-0.26 0.962,-0.289 0.967,-0.32 0.967,-0.351 0.967,-0.387 0.961,-0.42 0.949,-0.452 0.936,-0.484 0.919,-0.512 0.897,-0.537 0.875,-0.561 0.849,-0.582 0.819,-0.598 0.789,-0.614 0.757,-0.625 0.722,-0.629 v 0.263 z M 0.406,-0.351 c 0,0.031 0.005,0.062 0.015,0.091 0.01,0.029 0.024,0.056 0.044,0.081 l 0.186,-0.187 v -0.263 c -0.035,0.004 -0.067,0.015 -0.097,0.031 -0.03,0.016 -0.056,0.037 -0.078,0.061 -0.022,0.025 -0.039,0.053 -0.052,0.085 -0.012,0.032 -0.018,0.065 -0.018,0.101 z m 0.109,0.222 c 0.02,0.015 0.041,0.028 0.064,0.037 0.024,0.01 0.048,0.016 0.072,0.02 v -0.194 z m 0.207,0.057 c 0.024,-0.004 0.048,-0.01 0.072,-0.02 0.023,-0.009 0.045,-0.022 0.064,-0.037 L 0.722,-0.266 Z"
         style="fill:#ffffff;fill-rule:nonzero"
         id="path18758" /></g></g></svg>
