<?xml version="1.0" encoding="UTF-8" standalone="no"?>
<svg
   width="16.845001"
   height="16.845001"
   viewBox="0 0 16.845001 16.845001"
   version="1.1"
   xml:space="preserve"
   style="clip-rule:evenodd;fill-rule:evenodd;stroke-linejoin:round;stroke-miterlimit:2"
   id="svg20568"
   sodipodi:docname="emojis.svg"
   xmlns:inkscape="http://www.inkscape.org/namespaces/inkscape"
   xmlns:sodipodi="http://sodipodi.sourceforge.net/DTD/sodipodi-0.dtd"
   xmlns="http://www.w3.org/2000/svg"
   xmlns:svg="http://www.w3.org/2000/svg"><defs
     id="defs20572" /><sodipodi:namedview
     id="namedview20570"
     pagecolor="#505050"
     bordercolor="#eeeeee"
     borderopacity="1"
     inkscape:pageshadow="0"
     inkscape:pageopacity="0"
     inkscape:pagecheckerboard="0" /><g
     transform="matrix(0.24,0,0,0.24,-260.3622,-958.5906)"
     id="g20566"><g
       transform="matrix(62.5,0,0,62.5,1077.03,4051.19)"
       id="g18880"><rect
         x="0.125"
         y="-0.91299999"
         width="1.123"
         height="1.123"
         style="fill-rule:nonzero"
         id="rect18874" /><rect
         x="0.19499999"
         y="-0.84200001"
         width="0.98199999"
         height="0.98199999"
         style="fill:#886ce4;fill-rule:nonzero"
         id="rect18876" /><path
         d="M 1.028,-0.362 C 1.01,-0.343 0.99,-0.327 0.968,-0.314 0.946,-0.301 0.922,-0.292 0.897,-0.287 v 0.041 c 0,0.029 -0.006,0.057 -0.017,0.082 -0.011,0.026 -0.026,0.048 -0.045,0.067 -0.019,0.019 -0.041,0.034 -0.067,0.045 -0.025,0.011 -0.053,0.017 -0.081,0.017 -0.029,0 -0.057,-0.006 -0.082,-0.017 C 0.579,-0.063 0.557,-0.078 0.538,-0.097 0.519,-0.116 0.504,-0.138 0.493,-0.164 0.482,-0.189 0.476,-0.217 0.476,-0.246 V -0.413 C 0.46,-0.409 0.446,-0.402 0.433,-0.393 0.42,-0.384 0.408,-0.374 0.396,-0.362 L 0.345,-0.41 c 0.018,-0.019 0.038,-0.035 0.06,-0.048 0.022,-0.013 0.046,-0.022 0.071,-0.028 v -0.181 h 0.07 v 0.176 c 0.025,0.002 0.047,0.006 0.065,0.013 0.018,0.007 0.034,0.015 0.048,0.025 0.014,0.009 0.027,0.019 0.038,0.03 0.012,0.011 0.024,0.022 0.037,0.031 0.012,0.01 0.026,0.019 0.04,0.026 0.015,0.007 0.032,0.012 0.053,0.014 v -0.315 h 0.07 v 0.308 c 0.016,-0.005 0.03,-0.012 0.043,-0.02 0.014,-0.009 0.026,-0.019 0.037,-0.031 z m -0.341,0.257 c 0.019,0 0.037,-0.004 0.054,-0.011 0.017,-0.008 0.032,-0.018 0.045,-0.03 0.012,-0.013 0.022,-0.028 0.03,-0.045 0.007,-0.017 0.011,-0.035 0.011,-0.055 V -0.281 C 0.802,-0.283 0.78,-0.288 0.762,-0.295 0.744,-0.302 0.728,-0.31 0.714,-0.32 0.699,-0.329 0.687,-0.339 0.675,-0.35 0.663,-0.361 0.651,-0.372 0.638,-0.381 0.626,-0.391 0.612,-0.399 0.598,-0.406 0.583,-0.413 0.566,-0.418 0.546,-0.42 v 0.174 c 0,0.02 0.004,0.038 0.011,0.055 0.008,0.017 0.018,0.031 0.031,0.044 0.013,0.013 0.027,0.023 0.044,0.03 0.017,0.008 0.035,0.012 0.055,0.012 z"
         style="fill:#ffffff;fill-rule:nonzero"
         id="path18878" /></g></g></svg>
