<?xml version="1.0" encoding="UTF-8" standalone="no"?>
<svg
   width="16.845001"
   height="16.845001"
   viewBox="0 0 16.845001 16.845001"
   version="1.1"
   xml:space="preserve"
   style="clip-rule:evenodd;fill-rule:evenodd;stroke-linejoin:round;stroke-miterlimit:2"
   id="svg20568"
   sodipodi:docname="emojis.svg"
   xmlns:inkscape="http://www.inkscape.org/namespaces/inkscape"
   xmlns:sodipodi="http://sodipodi.sourceforge.net/DTD/sodipodi-0.dtd"
   xmlns="http://www.w3.org/2000/svg"
   xmlns:svg="http://www.w3.org/2000/svg"><defs
     id="defs20572" /><sodipodi:namedview
     id="namedview20570"
     pagecolor="#505050"
     bordercolor="#eeeeee"
     borderopacity="1"
     inkscape:pageshadow="0"
     inkscape:pageopacity="0"
     inkscape:pagecheckerboard="0" /><g
     transform="matrix(0.24,0,0,0.24,-136.78788,-958.5906)"
     id="g20566"><g
       transform="matrix(62.5,0,0,62.5,562.137,4051.19)"
       id="g18832"><rect
         x="0.125"
         y="-0.91299999"
         width="1.123"
         height="1.123"
         style="fill-rule:nonzero"
         id="rect18826" /><rect
         x="0.19499999"
         y="-0.84200001"
         width="0.98199999"
         height="0.98199999"
         style="fill:#886ce4;fill-rule:nonzero"
         id="rect18828" /><path
         d="m 0.858,-0.246 h 0.144 v 0.07 H 0.722 V -0.25 C 0.742,-0.254 0.761,-0.261 0.778,-0.272 0.795,-0.282 0.81,-0.295 0.822,-0.311 0.835,-0.326 0.844,-0.343 0.851,-0.362 0.858,-0.381 0.862,-0.401 0.862,-0.421 0.862,-0.445 0.857,-0.468 0.848,-0.49 0.839,-0.511 0.826,-0.529 0.81,-0.545 0.795,-0.561 0.776,-0.573 0.755,-0.583 0.733,-0.592 0.711,-0.597 0.687,-0.597 c -0.025,0 -0.047,0.005 -0.069,0.014 -0.021,0.01 -0.039,0.022 -0.055,0.038 -0.016,0.016 -0.029,0.034 -0.038,0.055 -0.009,0.022 -0.014,0.045 -0.014,0.069 0,0.02 0.004,0.04 0.011,0.059 0.007,0.019 0.016,0.036 0.029,0.051 0.012,0.016 0.027,0.029 0.044,0.039 0.017,0.011 0.036,0.018 0.056,0.022 v 0.074 h -0.28 v -0.07 H 0.515 C 0.491,-0.269 0.473,-0.296 0.46,-0.326 0.447,-0.356 0.441,-0.388 0.441,-0.421 c 0,-0.034 0.006,-0.066 0.019,-0.096 0.013,-0.03 0.031,-0.056 0.053,-0.078 0.022,-0.022 0.048,-0.04 0.078,-0.053 0.03,-0.013 0.062,-0.019 0.096,-0.019 0.033,0 0.065,0.006 0.095,0.019 0.03,0.013 0.056,0.031 0.078,0.053 0.022,0.022 0.04,0.048 0.053,0.078 0.013,0.03 0.019,0.062 0.019,0.096 0,0.033 -0.006,0.065 -0.019,0.095 -0.013,0.03 -0.031,0.057 -0.055,0.08 z m 0.144,0.211 H 0.371 v -0.07 h 0.631 z"
         style="fill:#ffffff;fill-rule:nonzero"
         id="path18830" /></g></g></svg>
