<?xml version="1.0" encoding="UTF-8" standalone="no"?>
<svg
   width="15.795"
   height="16.844999"
   viewBox="0 0 15.795 16.844999"
   version="1.1"
   xml:space="preserve"
   style="clip-rule:evenodd;fill-rule:evenodd;stroke-linejoin:round;stroke-miterlimit:2"
   id="svg20568"
   sodipodi:docname="emojis.svg"
   xmlns:inkscape="http://www.inkscape.org/namespaces/inkscape"
   xmlns:sodipodi="http://sodipodi.sourceforge.net/DTD/sodipodi-0.dtd"
   xmlns="http://www.w3.org/2000/svg"
   xmlns:svg="http://www.w3.org/2000/svg"><defs
     id="defs20572" /><sodipodi:namedview
     id="namedview20570"
     pagecolor="#505050"
     bordercolor="#eeeeee"
     borderopacity="1"
     inkscape:pageshadow="0"
     inkscape:pageopacity="0"
     inkscape:pagecheckerboard="0" /><g
     transform="matrix(0.24,0,0,0.24,-264.6606,-144.6594)"
     id="g20566"><g
       transform="matrix(62.5,0,0,62.5,1094.94,659.81)"
       id="g1886"><path
         d="M 0.651,0.21 C 0.616,0.21 0.581,0.206 0.547,0.198 0.513,0.191 0.481,0.179 0.45,0.164 0.42,0.149 0.392,0.131 0.365,0.11 0.338,0.089 0.315,0.065 0.294,0.038 0.273,0.012 0.255,-0.017 0.24,-0.048 0.225,-0.08 0.214,-0.113 0.206,-0.148 0.194,-0.152 0.183,-0.158 0.173,-0.166 0.163,-0.174 0.155,-0.183 0.147,-0.193 0.14,-0.203 0.135,-0.214 0.131,-0.226 0.127,-0.238 0.125,-0.25 0.125,-0.263 v -0.106 c 0,-0.013 0.002,-0.025 0.006,-0.037 0.004,-0.012 0.009,-0.023 0.016,-0.033 0.008,-0.01 0.016,-0.019 0.026,-0.027 0.01,-0.007 0.021,-0.013 0.033,-0.018 0.009,-0.04 0.023,-0.077 0.041,-0.113 0.019,-0.035 0.042,-0.068 0.068,-0.097 0.027,-0.029 0.057,-0.055 0.091,-0.077 0.034,-0.021 0.07,-0.038 0.109,-0.05 0.004,-0.014 0.009,-0.026 0.017,-0.037 0.007,-0.011 0.016,-0.021 0.027,-0.029 0.01,-0.008 0.022,-0.014 0.035,-0.019 0.012,-0.004 0.026,-0.007 0.04,-0.007 0.018,0 0.036,0.003 0.053,0.007 0.017,0.005 0.034,0.011 0.049,0.02 0.016,0.009 0.03,0.019 0.043,0.032 0.013,0.012 0.024,0.026 0.034,0.041 0.036,0.014 0.07,0.031 0.101,0.053 0.03,0.022 0.058,0.047 0.083,0.075 0.024,0.029 0.045,0.06 0.062,0.094 0.017,0.034 0.03,0.069 0.038,0.107 0.012,0.005 0.023,0.011 0.033,0.018 0.01,0.008 0.019,0.017 0.026,0.027 0.007,0.01 0.012,0.021 0.016,0.033 0.004,0.012 0.006,0.024 0.006,0.037 v 0.106 c 0,0.013 -0.002,0.025 -0.006,0.037 -0.004,0.012 -0.01,0.023 -0.017,0.033 C 1.148,-0.183 1.14,-0.174 1.13,-0.166 1.12,-0.158 1.109,-0.152 1.097,-0.148 1.086,-0.095 1.066,-0.047 1.039,-0.003 1.011,0.041 0.977,0.079 0.938,0.11 0.899,0.142 0.854,0.167 0.805,0.184 0.756,0.202 0.705,0.21 0.651,0.21 Z"
         style="fill-rule:nonzero"
         id="path1872" /><path
         d="m 1.107,-0.369 v 0.106 c 0,0.007 -10e-4,0.014 -0.004,0.02 -0.002,0.006 -0.006,0.012 -0.011,0.017 -0.005,0.005 -0.01,0.009 -0.017,0.011 -0.006,0.003 -0.013,0.005 -0.02,0.005 H 1.036 C 1.033,-0.177 1.026,-0.146 1.015,-0.115 1.004,-0.085 0.99,-0.057 0.972,-0.031 0.955,-0.006 0.935,0.018 0.911,0.039 0.888,0.06 0.863,0.078 0.835,0.093 0.808,0.108 0.778,0.12 0.748,0.128 0.717,0.136 0.685,0.14 0.651,0.14 0.618,0.14 0.586,0.136 0.555,0.128 0.524,0.12 0.495,0.108 0.468,0.093 0.44,0.078 0.415,0.06 0.391,0.039 0.368,0.018 0.348,-0.006 0.33,-0.031 0.313,-0.057 0.299,-0.085 0.288,-0.116 0.277,-0.146 0.27,-0.178 0.267,-0.21 H 0.248 C 0.241,-0.21 0.234,-0.212 0.228,-0.215 0.221,-0.217 0.216,-0.221 0.211,-0.226 0.206,-0.231 0.202,-0.237 0.199,-0.243 0.197,-0.249 0.195,-0.256 0.195,-0.263 v -0.106 c 0,-0.007 0.002,-0.014 0.004,-0.02 0.003,-0.006 0.007,-0.012 0.012,-0.017 0.005,-0.005 0.01,-0.008 0.017,-0.011 0.006,-0.003 0.013,-0.004 0.02,-0.004 H 0.267 C 0.27,-0.455 0.277,-0.486 0.288,-0.516 0.299,-0.546 0.313,-0.575 0.33,-0.601 0.348,-0.627 0.368,-0.65 0.391,-0.671 0.414,-0.692 0.44,-0.71 0.467,-0.725 0.495,-0.74 0.524,-0.752 0.555,-0.76 c 0.031,-0.008 0.063,-0.012 0.096,-0.012 0.034,0 0.066,0.004 0.097,0.012 0.031,0.008 0.06,0.02 0.088,0.035 0.027,0.015 0.053,0.033 0.076,0.054 0.023,0.021 0.043,0.044 0.06,0.07 0.018,0.026 0.032,0.055 0.043,0.085 0.011,0.03 0.018,0.061 0.021,0.095 h 0.019 c 0.007,0 0.014,0.001 0.02,0.004 0.007,0.003 0.012,0.006 0.017,0.011 0.005,0.005 0.009,0.011 0.011,0.017 0.003,0.006 0.004,0.013 0.004,0.02 z"
         style="fill:#ffc83d;fill-rule:nonzero"
         id="path1874" /><path
         d="m 0.458,-0.421 c 0.008,0 0.014,0.001 0.021,0.004 0.006,0.003 0.012,0.006 0.017,0.011 0.004,0.005 0.008,0.011 0.011,0.017 0.003,0.006 0.004,0.013 0.004,0.02 v 0.071 c 0,0.007 -0.001,0.014 -0.004,0.02 C 0.504,-0.272 0.5,-0.266 0.496,-0.261 0.491,-0.256 0.485,-0.253 0.479,-0.25 0.472,-0.247 0.466,-0.246 0.458,-0.246 0.451,-0.246 0.445,-0.247 0.438,-0.25 0.432,-0.253 0.426,-0.256 0.421,-0.261 0.417,-0.266 0.413,-0.272 0.41,-0.278 0.407,-0.284 0.406,-0.291 0.406,-0.298 v -0.071 c 0,-0.007 10e-4,-0.014 0.004,-0.02 0.003,-0.006 0.007,-0.012 0.011,-0.017 0.005,-0.005 0.011,-0.008 0.017,-0.011 0.007,-0.003 0.013,-0.004 0.02,-0.004 z m 0.386,0 c 0.007,0 0.014,0.001 0.021,0.004 0.006,0.003 0.011,0.006 0.016,0.011 0.005,0.005 0.009,0.011 0.012,0.017 0.003,0.006 0.004,0.013 0.004,0.02 v 0.071 c 0,0.007 -0.001,0.014 -0.004,0.02 C 0.89,-0.272 0.886,-0.266 0.881,-0.261 0.876,-0.256 0.871,-0.253 0.865,-0.25 0.858,-0.247 0.851,-0.246 0.844,-0.246 0.837,-0.246 0.83,-0.247 0.824,-0.25 0.818,-0.253 0.812,-0.256 0.807,-0.261 0.803,-0.266 0.799,-0.272 0.796,-0.278 0.793,-0.284 0.792,-0.291 0.792,-0.298 v -0.071 c 0,-0.007 0.001,-0.014 0.004,-0.02 0.003,-0.006 0.007,-0.012 0.011,-0.017 0.005,-0.005 0.011,-0.008 0.017,-0.011 0.006,-0.003 0.013,-0.004 0.02,-0.004 z"
         style="fill-rule:nonzero"
         id="path1876" /><path
         d="m 0.722,-0.211 c 0,0.01 -0.002,0.019 -0.006,0.027 C 0.712,-0.175 0.707,-0.168 0.701,-0.161 0.695,-0.155 0.687,-0.15 0.679,-0.146 0.67,-0.142 0.661,-0.141 0.651,-0.141 0.642,-0.141 0.632,-0.142 0.624,-0.146 0.616,-0.15 0.608,-0.155 0.602,-0.161 0.595,-0.168 0.59,-0.175 0.587,-0.184 0.583,-0.192 0.581,-0.201 0.581,-0.211 Z"
         style="fill:#f7894a;fill-rule:nonzero"
         id="path1878" /><path
         d="m 0.634,-0.562 c -0.006,0 -0.012,0 -0.018,-10e-4 C 0.61,-0.564 0.605,-0.566 0.599,-0.569 0.594,-0.572 0.59,-0.576 0.586,-0.58 0.583,-0.585 0.581,-0.59 0.581,-0.597 h 0.053 c 0.01,0 0.019,-0.001 0.027,-0.005 0.009,-0.004 0.016,-0.009 0.022,-0.015 0.007,-0.006 0.012,-0.014 0.015,-0.022 0.004,-0.009 0.006,-0.018 0.006,-0.028 0,-0.01 -0.002,-0.019 -0.006,-0.027 C 0.695,-0.703 0.69,-0.71 0.683,-0.717 0.677,-0.723 0.67,-0.728 0.661,-0.732 0.653,-0.735 0.644,-0.737 0.634,-0.737 0.627,-0.737 0.62,-0.739 0.614,-0.741 0.607,-0.744 0.602,-0.748 0.597,-0.753 0.592,-0.757 0.588,-0.763 0.585,-0.769 0.582,-0.776 0.581,-0.782 0.581,-0.79 c 0,-0.007 0.001,-0.013 0.004,-0.02 0.003,-0.006 0.007,-0.012 0.012,-0.017 0.005,-0.005 0.01,-0.008 0.017,-0.011 0.006,-0.003 0.013,-0.004 0.02,-0.004 0.019,0 0.038,0.003 0.055,0.011 0.017,0.007 0.032,0.017 0.044,0.03 0.013,0.012 0.023,0.027 0.03,0.044 0.008,0.017 0.011,0.035 0.011,0.055 0,0.019 -0.003,0.038 -0.011,0.055 -0.007,0.017 -0.017,0.032 -0.03,0.044 -0.012,0.013 -0.027,0.023 -0.044,0.03 -0.017,0.008 -0.036,0.011 -0.055,0.011 z"
         style="fill:#d48c00;fill-rule:nonzero"
         id="path1880" /><path
         d="m 0.739,-0.105 c 0.012,0 0.024,0.002 0.034,0.006 0.011,0.005 0.02,0.011 0.028,0.019 0.008,0.008 0.014,0.017 0.019,0.028 0.004,0.011 0.007,0.022 0.007,0.034 0,0.012 -0.003,0.024 -0.007,0.035 C 0.815,0.027 0.809,0.037 0.801,0.045 0.793,0.053 0.784,0.059 0.773,0.063 0.763,0.068 0.751,0.07 0.739,0.07 H 0.563 C 0.551,0.07 0.54,0.068 0.53,0.063 0.519,0.059 0.51,0.053 0.502,0.045 0.494,0.037 0.487,0.027 0.483,0.017 0.478,0.006 0.476,-0.006 0.476,-0.018 0.476,-0.03 0.478,-0.041 0.483,-0.052 0.487,-0.063 0.494,-0.072 0.502,-0.08 0.51,-0.088 0.519,-0.094 0.53,-0.099 0.54,-0.103 0.551,-0.105 0.563,-0.105 Z"
         style="fill:#00bcf2;fill-rule:nonzero"
         id="path1882" /><path
         d="M 0.669,0.035 H 0.634 C 0.618,0.035 0.605,0.03 0.596,0.021 0.586,0.011 0.581,-0.002 0.581,-0.018 v -0.035 c 0,-0.005 0.002,-0.009 0.005,-0.012 0.004,-0.004 0.008,-0.005 0.013,-0.005 0.007,0 0.012,0.002 0.014,0.008 0.003,0.005 0.004,0.011 0.004,0.017 l -0.001,0.02 c 0,0.006 0.001,0.012 0.003,0.017 C 0.621,-0.003 0.626,0 0.634,0 H 0.669 C 0.677,0 0.682,-0.003 0.684,-0.008 0.686,-0.014 0.687,-0.02 0.687,-0.026 v -0.02 c 0,-0.006 0,-0.012 0.002,-0.017 0.002,-0.005 0.007,-0.007 0.015,-0.007 0.005,0 0.009,0.001 0.013,0.005 0.003,0.003 0.005,0.007 0.005,0.012 v 0.035 c 0,0.016 -0.005,0.029 -0.015,0.039 C 0.697,0.03 0.685,0.035 0.669,0.035 Z"
         style="fill:#69eaff;fill-rule:nonzero"
         id="path1884" /></g></g></svg>
