<?xml version="1.0" encoding="UTF-8" standalone="no"?>
<svg
   width="16.845001"
   height="16.845001"
   viewBox="0 0 16.845001 16.845001"
   version="1.1"
   xml:space="preserve"
   style="clip-rule:evenodd;fill-rule:evenodd;stroke-linejoin:round;stroke-miterlimit:2"
   id="svg20568"
   sodipodi:docname="emojis.svg"
   xmlns:inkscape="http://www.inkscape.org/namespaces/inkscape"
   xmlns:sodipodi="http://sodipodi.sourceforge.net/DTD/sodipodi-0.dtd"
   xmlns="http://www.w3.org/2000/svg"
   xmlns:svg="http://www.w3.org/2000/svg"><defs
     id="defs20572" /><sodipodi:namedview
     id="namedview20570"
     pagecolor="#505050"
     bordercolor="#eeeeee"
     borderopacity="1"
     inkscape:pageshadow="0"
     inkscape:pageopacity="0"
     inkscape:pagecheckerboard="0" /><g
     transform="matrix(0.24,0,0,0.24,-75.0006,-958.5906)"
     id="g20566"><g
       transform="matrix(62.5,0,0,62.5,304.69,4051.19)"
       id="g18808"><rect
         x="0.125"
         y="-0.91299999"
         width="1.123"
         height="1.123"
         style="fill-rule:nonzero"
         id="rect18802" /><rect
         x="0.19499999"
         y="-0.84200001"
         width="0.98199999"
         height="0.98199999"
         style="fill:#886ce4;fill-rule:nonzero"
         id="rect18804" /><path
         d="m 0.897,-0.421 c 0.02,0 0.038,0.003 0.055,0.011 0.017,0.007 0.032,0.017 0.045,0.03 0.012,0.012 0.022,0.027 0.03,0.044 0.007,0.017 0.011,0.036 0.011,0.055 0,0.023 -0.004,0.043 -0.012,0.061 -0.008,0.017 -0.019,0.034 -0.033,0.051 -0.019,0.021 -0.04,0.04 -0.064,0.057 -0.024,0.016 -0.049,0.03 -0.075,0.042 -0.027,0.011 -0.055,0.02 -0.083,0.026 -0.028,0.006 -0.056,0.009 -0.084,0.009 -0.06,0 -0.116,-0.012 -0.168,-0.035 C 0.467,-0.093 0.421,-0.126 0.38,-0.169 l 0.051,-0.048 c 0.034,0.035 0.072,0.063 0.116,0.082 0.044,0.02 0.09,0.03 0.14,0.03 0.028,0 0.057,-0.004 0.085,-0.011 C 0.8,-0.123 0.827,-0.134 0.852,-0.148 0.838,-0.153 0.825,-0.16 0.813,-0.168 0.802,-0.177 0.792,-0.187 0.783,-0.199 0.775,-0.211 0.769,-0.224 0.764,-0.238 0.759,-0.251 0.757,-0.266 0.757,-0.281 0.757,-0.3 0.761,-0.318 0.768,-0.335 0.776,-0.352 0.786,-0.367 0.798,-0.38 0.811,-0.392 0.826,-0.403 0.843,-0.41 0.86,-0.418 0.878,-0.421 0.897,-0.421 Z m -0.07,0.14 c 0,0.01 0.002,0.019 0.005,0.028 0.004,0.008 0.009,0.015 0.015,0.022 0.007,0.006 0.014,0.011 0.023,0.015 0.008,0.004 0.017,0.006 0.027,0.006 0.01,0 0.019,-0.002 0.027,-0.006 C 0.933,-0.22 0.94,-0.225 0.947,-0.231 0.953,-0.238 0.958,-0.245 0.962,-0.253 0.965,-0.262 0.967,-0.271 0.967,-0.281 0.967,-0.291 0.965,-0.3 0.962,-0.308 0.958,-0.317 0.953,-0.324 0.947,-0.33 0.94,-0.337 0.933,-0.342 0.924,-0.345 0.916,-0.349 0.907,-0.351 0.897,-0.351 0.887,-0.351 0.878,-0.349 0.87,-0.345 0.861,-0.342 0.854,-0.337 0.847,-0.33 0.841,-0.324 0.836,-0.317 0.832,-0.308 0.829,-0.3 0.827,-0.291 0.827,-0.281 Z m -0.211,-0.14 c 0,0.019 -0.004,0.037 -0.011,0.054 C 0.597,-0.35 0.587,-0.335 0.575,-0.323 0.562,-0.31 0.547,-0.299 0.53,-0.292 0.513,-0.285 0.495,-0.281 0.476,-0.281 0.457,-0.281 0.438,-0.284 0.421,-0.292 0.404,-0.299 0.389,-0.309 0.376,-0.322 0.364,-0.334 0.354,-0.349 0.346,-0.366 0.339,-0.384 0.335,-0.402 0.335,-0.421 c 0,-0.023 0.004,-0.043 0.012,-0.061 0.008,-0.017 0.019,-0.035 0.033,-0.051 0.019,-0.021 0.04,-0.04 0.064,-0.057 0.024,-0.016 0.049,-0.03 0.076,-0.042 0.026,-0.011 0.054,-0.02 0.082,-0.026 0.028,-0.006 0.057,-0.009 0.085,-0.009 0.059,0 0.115,0.012 0.167,0.035 0.052,0.023 0.098,0.056 0.139,0.099 L 0.942,-0.485 C 0.908,-0.52 0.87,-0.548 0.826,-0.567 c -0.044,-0.02 -0.09,-0.03 -0.139,-0.03 -0.029,0 -0.058,0.004 -0.086,0.011 -0.028,0.007 -0.055,0.018 -0.08,0.032 0.014,0.005 0.027,0.012 0.039,0.02 0.011,0.009 0.021,0.019 0.03,0.031 0.008,0.012 0.014,0.025 0.019,0.038 0.005,0.014 0.007,0.029 0.007,0.044 z m -0.21,0 c 0,0.009 0.002,0.019 0.005,0.027 0.004,0.009 0.009,0.016 0.015,0.023 0.006,0.006 0.014,0.011 0.022,0.015 0.009,0.003 0.018,0.005 0.028,0.005 0.01,0 0.019,-0.002 0.027,-0.006 0.009,-0.003 0.016,-0.008 0.023,-0.015 0.006,-0.006 0.011,-0.014 0.015,-0.022 0.003,-0.009 0.005,-0.018 0.005,-0.027 0,-0.01 -0.002,-0.019 -0.005,-0.028 C 0.537,-0.457 0.532,-0.465 0.526,-0.471 0.519,-0.477 0.512,-0.482 0.503,-0.486 0.495,-0.489 0.486,-0.491 0.476,-0.491 c -0.01,0 -0.019,0.002 -0.027,0.005 C 0.44,-0.482 0.433,-0.477 0.427,-0.471 0.42,-0.465 0.415,-0.457 0.411,-0.449 0.408,-0.44 0.406,-0.431 0.406,-0.421 Z"
         style="fill:#ffffff;fill-rule:nonzero"
         id="path18806" /></g></g></svg>
