<?xml version="1.0" encoding="UTF-8" standalone="no"?>
<svg
   width="16.845001"
   height="16.845001"
   viewBox="0 0 16.845001 16.845001"
   version="1.1"
   xml:space="preserve"
   style="clip-rule:evenodd;fill-rule:evenodd;stroke-linejoin:round;stroke-miterlimit:2"
   id="svg20568"
   sodipodi:docname="emojis.svg"
   xmlns:inkscape="http://www.inkscape.org/namespaces/inkscape"
   xmlns:sodipodi="http://sodipodi.sourceforge.net/DTD/sodipodi-0.dtd"
   xmlns="http://www.w3.org/2000/svg"
   xmlns:svg="http://www.w3.org/2000/svg"><defs
     id="defs20572" /><sodipodi:namedview
     id="namedview20570"
     pagecolor="#505050"
     bordercolor="#eeeeee"
     borderopacity="1"
     inkscape:pageshadow="0"
     inkscape:pageopacity="0"
     inkscape:pagecheckerboard="0" /><g
     transform="matrix(0.24,0,0,0.24,-280.9566,-958.5906)"
     id="g20566"><g
       transform="matrix(62.5,0,0,62.5,1162.84,4051.19)"
       id="g18888"><rect
         x="0.125"
         y="-0.91299999"
         width="1.123"
         height="1.123"
         style="fill-rule:nonzero"
         id="rect18882" /><rect
         x="0.19499999"
         y="-0.84200001"
         width="0.98199999"
         height="0.98199999"
         style="fill:#0078d7;fill-rule:nonzero"
         id="rect18884" /><path
         d="m 0.897,-0.597 v -0.105 l 0.141,0.14 -0.141,0.141 v -0.105 c -0.02,0 -0.037,0.003 -0.052,0.01 -0.016,0.008 -0.031,0.017 -0.045,0.03 -0.002,0.001 -0.003,0.003 -0.005,0.004 -0.001,0.001 -0.002,0.002 -0.003,0.004 0,0.001 -0.004,0.005 -0.012,0.013 -0.008,0.008 -0.018,0.018 -0.031,0.031 -0.013,0.013 -0.027,0.028 -0.044,0.044 L 0.603,-0.287 C 0.586,-0.27 0.57,-0.255 0.556,-0.241 0.542,-0.227 0.53,-0.215 0.52,-0.205 0.51,-0.195 0.504,-0.189 0.501,-0.186 0.497,-0.182 0.493,-0.178 0.489,-0.173 0.486,-0.169 0.482,-0.165 0.477,-0.161 0.457,-0.144 0.435,-0.13 0.411,-0.12 0.387,-0.11 0.362,-0.105 0.335,-0.105 v -0.071 c 0.02,0 0.038,-0.003 0.053,-0.011 0.015,-0.007 0.03,-0.016 0.045,-0.029 C 0.434,-0.217 0.436,-0.219 0.437,-0.22 0.438,-0.221 0.44,-0.222 0.441,-0.224 0.444,-0.228 0.448,-0.233 0.452,-0.237 0.457,-0.241 0.461,-0.245 0.464,-0.249 L 0.521,-0.305 C 0.55,-0.335 0.58,-0.364 0.609,-0.393 0.638,-0.422 0.667,-0.451 0.697,-0.481 0.701,-0.486 0.706,-0.49 0.71,-0.495 0.715,-0.5 0.72,-0.505 0.725,-0.51 0.735,-0.519 0.747,-0.529 0.76,-0.539 0.774,-0.55 0.789,-0.559 0.805,-0.567 0.82,-0.576 0.836,-0.583 0.852,-0.588 0.868,-0.594 0.883,-0.597 0.897,-0.597 Z m 0,0.421 V -0.281 L 1.038,-0.141 0.897,0 V -0.105 C 0.883,-0.105 0.868,-0.108 0.853,-0.114 0.837,-0.119 0.822,-0.126 0.806,-0.134 0.791,-0.142 0.777,-0.151 0.763,-0.161 0.75,-0.171 0.738,-0.18 0.728,-0.189 0.717,-0.199 0.706,-0.209 0.697,-0.22 0.687,-0.231 0.676,-0.242 0.666,-0.252 l 0.049,-0.049 0.069,0.068 c 0.003,0.003 0.006,0.007 0.008,0.01 0.003,0.003 0.006,0.006 0.009,0.009 0.013,0.011 0.028,0.021 0.045,0.028 0.016,0.007 0.033,0.01 0.051,0.01 z M 0.517,-0.401 0.449,-0.469 C 0.44,-0.478 0.432,-0.485 0.424,-0.492 0.416,-0.499 0.407,-0.505 0.398,-0.51 0.389,-0.516 0.38,-0.519 0.37,-0.522 0.36,-0.525 0.348,-0.526 0.335,-0.526 v -0.071 c 0.013,0 0.026,0.002 0.039,0.004 0.013,0.003 0.026,0.007 0.038,0.011 0.012,0.005 0.024,0.011 0.036,0.018 0.011,0.007 0.021,0.015 0.031,0.024 l 0.022,0.024 0.066,0.066 z"
         style="fill:#ffffff;fill-rule:nonzero"
         id="path18886" /></g></g></svg>
