<?xml version="1.0" encoding="UTF-8" standalone="no"?>
<svg
   width="16.845001"
   height="16.845001"
   viewBox="0 0 16.845001 16.845001"
   version="1.1"
   xml:space="preserve"
   style="clip-rule:evenodd;fill-rule:evenodd;stroke-linejoin:round;stroke-miterlimit:2"
   id="svg20568"
   sodipodi:docname="emojis.svg"
   xmlns:inkscape="http://www.inkscape.org/namespaces/inkscape"
   xmlns:sodipodi="http://sodipodi.sourceforge.net/DTD/sodipodi-0.dtd"
   xmlns="http://www.w3.org/2000/svg"
   xmlns:svg="http://www.w3.org/2000/svg"><defs
     id="defs20572" /><sodipodi:namedview
     id="namedview20570"
     pagecolor="#505050"
     bordercolor="#eeeeee"
     borderopacity="1"
     inkscape:pageshadow="0"
     inkscape:pageopacity="0"
     inkscape:pagecheckerboard="0" /><g
     transform="matrix(0.24,0,0,0.24,-116.19204,-958.5906)"
     id="g20566"><g
       transform="matrix(62.5,0,0,62.5,476.321,4051.19)"
       id="g18824"><rect
         x="0.125"
         y="-0.91299999"
         width="1.123"
         height="1.123"
         style="fill-rule:nonzero"
         id="rect18818" /><rect
         x="0.19499999"
         y="-0.84200001"
         width="0.98199999"
         height="0.98199999"
         style="fill:#886ce4;fill-rule:nonzero"
         id="rect18820" /><path
         d="m 1.038,-0.351 v 0.07 c 0,0.037 -0.007,0.072 -0.021,0.105 -0.014,0.034 -0.033,0.064 -0.059,0.09 0.013,0.006 0.026,0.01 0.039,0.012 0.013,0.002 0.027,0.004 0.041,0.004 V 0 C 1.013,0 0.989,-0.003 0.965,-0.01 0.941,-0.016 0.918,-0.025 0.897,-0.038 0.875,-0.025 0.853,-0.016 0.829,-0.01 0.805,-0.003 0.781,0 0.757,0 v -0.07 c 0.027,0 0.054,-0.006 0.079,-0.016 C 0.811,-0.112 0.791,-0.142 0.777,-0.176 0.764,-0.209 0.757,-0.244 0.757,-0.281 v -0.21 C 0.757,-0.501 0.755,-0.51 0.751,-0.519 0.747,-0.527 0.742,-0.534 0.736,-0.541 0.73,-0.547 0.722,-0.552 0.714,-0.556 0.705,-0.56 0.696,-0.562 0.687,-0.562 c -0.01,0 -0.019,0.002 -0.028,0.006 -0.008,0.004 -0.016,0.009 -0.022,0.015 -0.006,0.007 -0.011,0.014 -0.015,0.022 -0.004,0.009 -0.006,0.018 -0.006,0.028 v 0.35 h -0.07 v -0.35 C 0.546,-0.501 0.544,-0.51 0.541,-0.519 0.537,-0.527 0.532,-0.534 0.526,-0.541 0.519,-0.547 0.512,-0.552 0.503,-0.556 0.495,-0.56 0.486,-0.562 0.476,-0.562 0.466,-0.562 0.457,-0.56 0.448,-0.556 0.44,-0.552 0.432,-0.547 0.426,-0.541 0.42,-0.534 0.415,-0.527 0.411,-0.519 0.408,-0.51 0.406,-0.501 0.406,-0.491 v 0.35 H 0.335 v -0.35 C 0.335,-0.501 0.334,-0.51 0.33,-0.519 0.326,-0.527 0.321,-0.534 0.315,-0.541 0.308,-0.547 0.301,-0.552 0.292,-0.556 0.284,-0.56 0.275,-0.562 0.265,-0.562 v -0.07 c 0.021,0 0.04,0.004 0.058,0.013 0.018,0.008 0.034,0.02 0.048,0.036 0.013,-0.016 0.029,-0.028 0.047,-0.036 0.018,-0.009 0.038,-0.013 0.058,-0.013 0.021,0 0.04,0.004 0.058,0.013 0.018,0.008 0.033,0.02 0.047,0.036 0.014,-0.016 0.03,-0.028 0.048,-0.036 0.018,-0.009 0.037,-0.013 0.058,-0.013 0.018,0 0.036,0.004 0.053,0.011 0.018,0.008 0.032,0.018 0.045,0.031 0.013,0.013 0.023,0.028 0.03,0.045 0.008,0.017 0.012,0.035 0.012,0.054 v 0.018 c 0.021,-0.012 0.045,-0.018 0.07,-0.018 0.019,0 0.037,0.004 0.054,0.011 0.017,0.008 0.032,0.018 0.045,0.03 0.013,0.013 0.023,0.028 0.03,0.045 0.008,0.017 0.012,0.035 0.012,0.054 z m -0.071,0.07 v -0.07 C 0.967,-0.361 0.965,-0.37 0.962,-0.378 0.958,-0.387 0.953,-0.394 0.947,-0.401 0.94,-0.407 0.933,-0.412 0.924,-0.416 0.916,-0.42 0.907,-0.421 0.897,-0.421 c -0.01,0 -0.019,0.001 -0.027,0.005 -0.009,0.004 -0.016,0.009 -0.023,0.015 -0.006,0.007 -0.011,0.014 -0.015,0.023 -0.003,0.008 -0.005,0.017 -0.005,0.027 v 0.07 c 0,0.031 0.006,0.059 0.018,0.086 0.012,0.027 0.03,0.05 0.052,0.071 0.022,-0.021 0.04,-0.044 0.052,-0.071 0.012,-0.027 0.018,-0.055 0.018,-0.086 z"
         style="fill:#ffffff;fill-rule:nonzero"
         id="path18822" /></g></g></svg>
