<?xml version="1.0" encoding="UTF-8" standalone="no"?>
<svg
   width="16.845001"
   height="16.845001"
   viewBox="0 0 16.845001 16.845001"
   version="1.1"
   xml:space="preserve"
   style="clip-rule:evenodd;fill-rule:evenodd;stroke-linejoin:round;stroke-miterlimit:2"
   id="svg20568"
   sodipodi:docname="emojis.svg"
   xmlns:inkscape="http://www.inkscape.org/namespaces/inkscape"
   xmlns:sodipodi="http://sodipodi.sourceforge.net/DTD/sodipodi-0.dtd"
   xmlns="http://www.w3.org/2000/svg"
   xmlns:svg="http://www.w3.org/2000/svg"><defs
     id="defs20572" /><sodipodi:namedview
     id="namedview20570"
     pagecolor="#505050"
     bordercolor="#eeeeee"
     borderopacity="1"
     inkscape:pageshadow="0"
     inkscape:pageopacity="0"
     inkscape:pagecheckerboard="0" /><g
     transform="matrix(0.24,0,0,0.24,-322.1502,-958.5906)"
     id="g20566"><g
       transform="matrix(62.5,0,0,62.5,1334.48,4051.19)"
       id="g18904"><rect
         x="0.125"
         y="-0.91299999"
         width="1.123"
         height="1.123"
         style="fill-rule:nonzero"
         id="rect18898" /><rect
         x="0.19499999"
         y="-0.84200001"
         width="0.98199999"
         height="0.98199999"
         style="fill:#0078d7;fill-rule:nonzero"
         id="rect18900" /><path
         d="m 0.529,-0.316 c 0.022,0 0.042,0.004 0.061,0.013 0.019,0.008 0.036,0.019 0.05,0.033 0.014,0.015 0.026,0.031 0.034,0.051 0.008,0.019 0.013,0.039 0.013,0.061 0,0.022 -0.005,0.042 -0.013,0.061 -0.008,0.02 -0.02,0.036 -0.034,0.051 C 0.626,-0.032 0.609,-0.021 0.59,-0.012 0.571,-0.004 0.551,0 0.529,0 0.507,0 0.486,-0.004 0.467,-0.012 0.448,-0.021 0.431,-0.032 0.417,-0.046 0.403,-0.061 0.391,-0.077 0.383,-0.097 0.375,-0.116 0.371,-0.136 0.371,-0.158 c 0,-0.022 0.004,-0.042 0.012,-0.061 0.008,-0.02 0.02,-0.036 0.034,-0.051 0.014,-0.014 0.031,-0.025 0.05,-0.033 0.019,-0.009 0.04,-0.013 0.062,-0.013 z M 0.443,-0.369 c -0.026,0.011 -0.05,0.026 -0.07,0.045 -0.001,-0.005 -0.002,-0.009 -0.002,-0.014 0,-0.004 0,-0.009 0,-0.013 0,-0.029 0.005,-0.056 0.016,-0.082 0.011,-0.025 0.026,-0.048 0.045,-0.067 0.019,-0.019 0.042,-0.034 0.067,-0.045 0.026,-0.011 0.053,-0.017 0.082,-0.017 h 0.211 v -0.105 l 0.14,0.141 -0.14,0.14 V -0.491 H 0.581 c -0.018,0 -0.034,0.003 -0.05,0.009 -0.016,0.006 -0.03,0.015 -0.042,0.026 -0.012,0.011 -0.022,0.024 -0.031,0.039 -0.008,0.014 -0.013,0.031 -0.015,0.048 z m 0.526,-0.095 c 0.011,0.017 0.019,0.035 0.025,0.054 0.006,0.019 0.008,0.039 0.008,0.059 0,0.029 -0.005,0.056 -0.016,0.082 -0.011,0.025 -0.026,0.048 -0.045,0.067 -0.019,0.019 -0.042,0.034 -0.067,0.045 -0.026,0.011 -0.053,0.016 -0.082,0.016 H 0.756 c 0,-0.003 0,-0.005 0.001,-0.008 0,-0.003 0,-0.006 0,-0.009 0,-0.009 -0.001,-0.018 -0.002,-0.027 C 0.754,-0.193 0.752,-0.202 0.75,-0.21 h 0.042 c 0.019,0 0.037,-0.004 0.054,-0.012 0.017,-0.007 0.032,-0.017 0.045,-0.03 0.012,-0.013 0.022,-0.028 0.03,-0.045 0.007,-0.017 0.011,-0.035 0.011,-0.054 0,-0.022 -0.005,-0.042 -0.015,-0.062 z M 0.555,-0.06 V -0.261 H 0.529 c -0.008,0.007 -0.018,0.013 -0.028,0.018 -0.01,0.005 -0.02,0.009 -0.031,0.012 v 0.036 C 0.478,-0.196 0.485,-0.198 0.492,-0.2 0.499,-0.203 0.506,-0.207 0.512,-0.212 v 0.152 z"
         style="fill:#ffffff;fill-rule:nonzero"
         id="path18902" /></g></g></svg>
