<?xml version="1.0" encoding="UTF-8" standalone="no"?>
<svg
   width="16.845001"
   height="16.845001"
   viewBox="0 0 16.845001 16.845001"
   version="1.1"
   xml:space="preserve"
   style="clip-rule:evenodd;fill-rule:evenodd;stroke-linejoin:round;stroke-miterlimit:2"
   id="svg20568"
   sodipodi:docname="emojis.svg"
   xmlns:inkscape="http://www.inkscape.org/namespaces/inkscape"
   xmlns:sodipodi="http://sodipodi.sourceforge.net/DTD/sodipodi-0.dtd"
   xmlns="http://www.w3.org/2000/svg"
   xmlns:svg="http://www.w3.org/2000/svg"><defs
     id="defs20572" /><sodipodi:namedview
     id="namedview20570"
     pagecolor="#505050"
     bordercolor="#eeeeee"
     borderopacity="1"
     inkscape:pageshadow="0"
     inkscape:pageopacity="0"
     inkscape:pagecheckerboard="0" /><g
     transform="matrix(0.24,0,0,0.24,-711.3654,-958.5906)"
     id="g20566"><g
       transform="matrix(62.5,0,0,62.5,2956.21,4051.19)"
       id="g19052"><rect
         x="0.125"
         y="-0.91299999"
         width="1.123"
         height="1.123"
         style="fill-rule:nonzero"
         id="rect19046" /><rect
         x="0.19499999"
         y="-0.84200001"
         width="0.98199999"
         height="0.98199999"
         style="fill:#0078d7;fill-rule:nonzero"
         id="rect19048" /><path
         d="m 0.616,-0.632 v 0.085 l -0.14,0.14 v 0.126 H 0.406 V -0.405 C 0.381,-0.428 0.357,-0.451 0.334,-0.475 0.311,-0.499 0.288,-0.523 0.265,-0.547 v -0.085 z m 0.422,0 V -0.07 H 0.967 v -0.562 z m -0.141,0.106 v 0.456 h -0.07 v -0.456 z m -0.14,0.105 v 0.351 h -0.07 v -0.351 z m -0.141,0.105 v 0.246 h -0.07 v -0.246 z m -0.14,0.106 v 0.14 H 0.406 V -0.21 Z M 0.35,-0.562 0.406,-0.504 v -0.058 z m 0.126,0.056 0.056,-0.056 H 0.476 Z"
         style="fill:#ffffff;fill-rule:nonzero"
         id="path19050" /></g></g></svg>
