<?xml version="1.0" encoding="UTF-8" standalone="no"?>
<svg
   width="13.695"
   height="16.844999"
   viewBox="0 0 13.695 16.844999"
   version="1.1"
   xml:space="preserve"
   style="clip-rule:evenodd;fill-rule:evenodd;stroke-linejoin:round;stroke-miterlimit:2"
   id="svg20568"
   sodipodi:docname="emojis.svg"
   xmlns:inkscape="http://www.inkscape.org/namespaces/inkscape"
   xmlns:sodipodi="http://sodipodi.sourceforge.net/DTD/sodipodi-0.dtd"
   xmlns="http://www.w3.org/2000/svg"
   xmlns:svg="http://www.w3.org/2000/svg"><defs
     id="defs20572" /><sodipodi:namedview
     id="namedview20570"
     pagecolor="#505050"
     bordercolor="#eeeeee"
     borderopacity="1"
     inkscape:pageshadow="0"
     inkscape:pageopacity="0"
     inkscape:pagecheckerboard="0" /><g
     transform="matrix(0.24,0,0,0.24,-749.4006,-958.5906)"
     id="g20566"><g
       transform="matrix(62.5,0,0,62.5,3114.69,4051.19)"
       id="g19088"><path
         d="M 0.213,0.21 C 0.201,0.21 0.189,0.208 0.178,0.204 0.168,0.199 0.159,0.193 0.151,0.185 0.143,0.177 0.136,0.168 0.132,0.157 0.127,0.146 0.125,0.135 0.125,0.123 v -0.948 c 0,-0.012 0.002,-0.023 0.007,-0.034 0.004,-0.011 0.011,-0.02 0.019,-0.028 0.008,-0.008 0.017,-0.014 0.027,-0.019 0.011,-0.004 0.023,-0.007 0.035,-0.007 h 0.491 c 0.012,0 0.024,0.003 0.034,0.007 0.011,0.005 0.02,0.011 0.028,0.019 0.008,0.008 0.015,0.017 0.019,0.028 0.005,0.011 0.007,0.022 0.007,0.034 V 0.123 C 0.792,0.135 0.79,0.146 0.785,0.157 0.781,0.168 0.774,0.177 0.766,0.185 0.758,0.193 0.749,0.199 0.738,0.204 0.728,0.208 0.716,0.21 0.704,0.21 Z"
         style="fill-rule:nonzero"
         id="path19072" /><path
         d="M 0.702,0.14 H 0.215 C 0.21,0.14 0.205,0.138 0.201,0.134 0.197,0.13 0.195,0.126 0.195,0.12 v -0.942 c 0,-0.006 0.002,-0.011 0.006,-0.014 0.004,-0.004 0.009,-0.006 0.014,-0.006 h 0.487 c 0.005,0 0.01,0.002 0.014,0.006 0.004,0.003 0.006,0.008 0.006,0.014 V 0.12 C 0.722,0.126 0.72,0.13 0.716,0.134 0.712,0.138 0.707,0.14 0.702,0.14 Z"
         style="fill:#383838;fill-rule:nonzero"
         id="path19074" /><rect
         x="0.23"
         y="-0.73699999"
         width="0.456"
         height="0.77200001"
         style="fill:#1f1f1f;fill-rule:nonzero"
         id="rect19076" /><path
         d="m 0.265,-0.281 h 0.386 v 0.176 H 0.265 Z M 0.441,-0.526 H 0.265 v -0.176 h 0.176 z m 0,0.21 H 0.265 v -0.175 h 0.176 z m 0.21,0 H 0.476 v -0.175 h 0.063 l 0.002,0.005 H 0.647 L 0.651,-0.491 Z M 0.441,0.035 H 0.265 V -0.07 h 0.176 z m 0.21,0 H 0.476 V -0.07 h 0.175 z m -0.07,-0.561 v -0.071 h 0.07 v 0.071 z m 0,-0.106 v -0.07 h 0.07 v 0.07 z m -0.035,0 h -0.07 v -0.07 h 0.07 z m 0,0.106 h -0.07 v -0.071 h 0.07 z"
         style="fill:#00bcf2;fill-rule:nonzero"
         id="path19078" /><rect
         x="0.44100001"
         y="0.07"
         width="0.035"
         height="0.035"
         style="fill:#757575;fill-rule:nonzero"
         id="rect19080" /><path
         d="M 0.546,-0.141 C 0.522,-0.141 0.499,-0.145 0.478,-0.154 0.456,-0.163 0.438,-0.176 0.422,-0.192 0.406,-0.208 0.393,-0.226 0.384,-0.248 0.375,-0.269 0.371,-0.292 0.371,-0.316 c 0,-0.024 0.004,-0.047 0.014,-0.068 0.009,-0.021 0.021,-0.04 0.037,-0.056 0.016,-0.015 0.034,-0.028 0.056,-0.037 0.021,-0.01 0.044,-0.014 0.068,-0.014 h 0.492 v 0.245 H 0.967 v 0.105 z M 0.388,-0.772 C 0.384,-0.772 0.38,-0.774 0.376,-0.777 0.372,-0.781 0.371,-0.785 0.371,-0.79 c 0,-0.004 0.001,-0.009 0.005,-0.012 0.003,-0.003 0.007,-0.005 0.012,-0.005 h 0.141 c 0.004,0 0.008,0.002 0.012,0.005 0.003,0.004 0.005,0.008 0.005,0.012 0,0.005 -0.002,0.009 -0.005,0.013 -0.004,0.003 -0.008,0.005 -0.012,0.005 z"
         style="fill-rule:nonzero"
         id="path19082" /><rect
         x="0.222"
         y="0.0020000001"
         width="0.47299999"
         height="0.050000001"
         style="fill:#383838;fill-rule:nonzero"
         id="rect19084" /><path
         d="M 0.544,-0.218 C 0.53,-0.218 0.517,-0.22 0.505,-0.225 0.493,-0.23 0.483,-0.237 0.474,-0.246 0.466,-0.255 0.46,-0.265 0.455,-0.277 0.451,-0.289 0.448,-0.303 0.448,-0.317 c 0,-0.015 0.003,-0.028 0.007,-0.041 0.005,-0.013 0.011,-0.024 0.02,-0.033 0.008,-0.01 0.018,-0.017 0.031,-0.022 0.012,-0.006 0.026,-0.008 0.041,-0.008 0.015,0 0.028,0.002 0.04,0.007 0.011,0.005 0.021,0.012 0.029,0.021 0.008,0.01 0.015,0.02 0.019,0.032 0.004,0.013 0.006,0.026 0.006,0.04 0,0.015 -0.002,0.028 -0.006,0.041 -0.005,0.013 -0.011,0.023 -0.02,0.033 -0.008,0.009 -0.018,0.016 -0.031,0.021 -0.012,0.006 -0.025,0.008 -0.04,0.008 z M 0.967,-0.382 H 0.898 v 0.049 h 0.063 v 0.035 H 0.898 v 0.077 H 0.854 v -0.197 h 0.113 z m -0.162,0 H 0.736 v 0.049 h 0.063 v 0.035 H 0.736 v 0.077 H 0.691 V -0.418 H 0.805 Z M 0.546,-0.383 c -0.009,0 -0.017,0.002 -0.023,0.005 -0.007,0.004 -0.012,0.009 -0.016,0.015 -0.004,0.006 -0.007,0.013 -0.009,0.02 -0.002,0.008 -0.003,0.016 -0.003,0.024 0,0.007 0.001,0.015 0.003,0.023 0.002,0.007 0.004,0.014 0.008,0.02 0.004,0.006 0.009,0.011 0.016,0.014 0.006,0.004 0.014,0.006 0.022,0.006 0.01,0 0.017,-0.002 0.024,-0.005 0.006,-0.004 0.011,-0.008 0.015,-0.014 0.004,-0.006 0.007,-0.012 0.009,-0.02 0.001,-0.007 0.002,-0.015 0.002,-0.023 0,-0.008 -0.001,-0.016 -0.002,-0.024 C 0.59,-0.35 0.588,-0.357 0.584,-0.363 0.58,-0.369 0.575,-0.374 0.569,-0.377 0.563,-0.381 0.555,-0.383 0.546,-0.383 Z"
         style="fill:#f2f2f2;fill-rule:nonzero"
         id="path19086" /></g></g></svg>
