<?xml version="1.0" encoding="UTF-8" standalone="no"?>
<svg
   width="13.695"
   height="16.844999"
   viewBox="0 0 13.695 16.844999"
   version="1.1"
   xml:space="preserve"
   style="clip-rule:evenodd;fill-rule:evenodd;stroke-linejoin:round;stroke-miterlimit:2"
   id="svg20568"
   sodipodi:docname="emojis.svg"
   xmlns:inkscape="http://www.inkscape.org/namespaces/inkscape"
   xmlns:sodipodi="http://sodipodi.sourceforge.net/DTD/sodipodi-0.dtd"
   xmlns="http://www.w3.org/2000/svg"
   xmlns:svg="http://www.w3.org/2000/svg"><defs
     id="defs20572" /><sodipodi:namedview
     id="namedview20570"
     pagecolor="#505050"
     bordercolor="#eeeeee"
     borderopacity="1"
     inkscape:pageshadow="0"
     inkscape:pageopacity="0"
     inkscape:pagecheckerboard="0" /><g
     transform="matrix(0.24,0,0,0.24,-731.9622,-958.5906)"
     id="g20566"><g
       transform="matrix(62.5,0,0,62.5,3042.03,4051.19)"
       id="g19070"><path
         d="m 0.965,-0.49 c 0.021,0.005 0.038,0.015 0.052,0.03 0.014,0.015 0.021,0.034 0.021,0.056 0,0.007 -0.001,0.015 -0.003,0.022 L 1,-0.242 c -0.005,0.016 -0.012,0.03 -0.023,0.041 -0.011,0.011 -0.025,0.019 -0.041,0.023 l -0.089,0.022 -0.023,0.09 C 0.819,-0.046 0.809,-0.03 0.792,-0.018 V 0.123 C 0.792,0.135 0.79,0.146 0.785,0.157 0.781,0.168 0.774,0.177 0.766,0.185 0.758,0.193 0.749,0.199 0.738,0.204 0.728,0.208 0.716,0.21 0.704,0.21 H 0.213 C 0.201,0.21 0.189,0.208 0.178,0.204 0.168,0.199 0.159,0.193 0.151,0.185 0.143,0.177 0.136,0.168 0.132,0.157 0.127,0.146 0.125,0.135 0.125,0.123 v -0.948 c 0,-0.012 0.002,-0.023 0.007,-0.034 0.004,-0.011 0.011,-0.02 0.019,-0.028 0.008,-0.008 0.017,-0.014 0.027,-0.019 0.011,-0.004 0.023,-0.007 0.035,-0.007 h 0.491 c 0.012,0 0.024,0.003 0.034,0.007 0.011,0.005 0.02,0.011 0.028,0.019 0.008,0.008 0.015,0.017 0.019,0.028 0.005,0.011 0.007,0.022 0.007,0.034 V -0.7 c 0.005,-0.001 0.011,-0.002 0.017,-0.002 0.012,0 0.024,0.002 0.034,0.007 0.011,0.004 0.02,0.011 0.028,0.018 0.008,0.008 0.015,0.018 0.019,0.029 0.005,0.01 0.007,0.022 0.007,0.034 0,0.007 -0.001,0.013 -0.002,0.019 0.01,0.002 0.02,0.005 0.029,0.011 0.009,0.005 0.016,0.011 0.023,0.019 0.006,0.007 0.011,0.016 0.015,0.026 0.003,0.009 0.005,0.019 0.005,0.03 0,0.007 0,0.014 -0.002,0.019 z"
         style="fill-rule:nonzero"
         id="path19054" /><path
         d="M 0.702,0.14 H 0.215 C 0.21,0.14 0.205,0.138 0.201,0.134 0.197,0.13 0.195,0.126 0.195,0.12 v -0.942 c 0,-0.006 0.002,-0.011 0.006,-0.014 0.004,-0.004 0.009,-0.006 0.014,-0.006 h 0.487 c 0.005,0 0.01,0.002 0.014,0.006 0.004,0.003 0.006,0.008 0.006,0.014 V 0.12 C 0.722,0.126 0.72,0.13 0.716,0.134 0.712,0.138 0.707,0.14 0.702,0.14 Z"
         style="fill:#383838;fill-rule:nonzero"
         id="path19056" /><rect
         x="0.23"
         y="-0.73699999"
         width="0.456"
         height="0.77200001"
         style="fill:#1f1f1f;fill-rule:nonzero"
         id="rect19058" /><path
         d="m 0.265,-0.281 h 0.386 v 0.176 H 0.265 Z M 0.441,-0.526 H 0.265 v -0.176 h 0.176 z m 0,0.21 H 0.265 v -0.175 h 0.176 z m 0.21,0 H 0.476 V -0.491 H 0.651 Z M 0.441,0.035 H 0.265 V -0.07 h 0.176 z m 0.21,0 H 0.476 V -0.07 h 0.175 z m -0.07,-0.561 v -0.071 h 0.07 v 0.071 z m 0,-0.106 v -0.07 h 0.07 v 0.07 z m -0.035,0 h -0.07 v -0.07 h 0.07 z m 0,0.106 h -0.07 v -0.071 h 0.07 z"
         style="fill:#00bcf2;fill-rule:nonzero"
         id="path19060" /><rect
         x="0.44100001"
         y="0.07"
         width="0.035"
         height="0.035"
         style="fill:#757575;fill-rule:nonzero"
         id="rect19062" /><path
         d="M 0.388,-0.772 C 0.384,-0.772 0.38,-0.774 0.376,-0.777 0.372,-0.781 0.371,-0.785 0.371,-0.79 c 0,-0.004 0.001,-0.009 0.005,-0.012 0.003,-0.003 0.007,-0.005 0.012,-0.005 h 0.141 c 0.004,0 0.008,0.002 0.012,0.005 0.003,0.004 0.005,0.008 0.005,0.012 0,0.005 -0.002,0.009 -0.005,0.013 -0.004,0.003 -0.008,0.005 -0.012,0.005 z"
         style="fill-rule:nonzero"
         id="path19064" /><rect
         x="0.222"
         y="0.0020000001"
         width="0.47299999"
         height="0.048999999"
         style="fill:#383838;fill-rule:nonzero"
         id="rect19066" /><path
         d="M 0.739,-0.07 C 0.734,-0.07 0.73,-0.072 0.727,-0.075 0.723,-0.079 0.722,-0.083 0.722,-0.088 c 0,-0.002 0,-0.007 0.002,-0.015 0.001,-0.007 0.003,-0.015 0.005,-0.024 0.003,-0.01 0.005,-0.02 0.008,-0.031 C 0.74,-0.169 0.743,-0.179 0.745,-0.189 0.748,-0.199 0.75,-0.208 0.752,-0.215 0.755,-0.223 0.756,-0.229 0.757,-0.232 0.759,-0.236 0.76,-0.239 0.762,-0.241 0.763,-0.243 0.766,-0.244 0.77,-0.245 l 0.13,-0.033 0.033,-0.13 c 0.001,-0.004 0.003,-0.007 0.006,-0.009 0.003,-0.003 0.007,-0.004 0.011,-0.004 0.005,0 0.009,0.001 0.012,0.005 0.004,0.004 0.005,0.008 0.005,0.012 0,0.002 0,0.007 -0.002,0.014 -0.001,0.007 -0.003,0.016 -0.006,0.025 -0.002,0.01 -0.004,0.021 -0.007,0.032 C 0.949,-0.321 0.946,-0.31 0.943,-0.3 0.941,-0.29 0.938,-0.281 0.936,-0.274 0.934,-0.266 0.933,-0.261 0.932,-0.259 0.93,-0.256 0.929,-0.253 0.927,-0.25 0.925,-0.248 0.923,-0.247 0.919,-0.246 l -0.13,0.032 -0.033,0.131 C 0.755,-0.08 0.753,-0.077 0.75,-0.074 0.747,-0.072 0.743,-0.07 0.739,-0.07 Z M 0.669,-0.175 C 0.664,-0.175 0.66,-0.177 0.657,-0.181 0.653,-0.184 0.651,-0.188 0.651,-0.193 0.651,-0.195 0.652,-0.2 0.654,-0.208 0.655,-0.215 0.657,-0.223 0.659,-0.233 0.661,-0.242 0.664,-0.253 0.667,-0.263 0.67,-0.274 0.672,-0.285 0.675,-0.294 0.677,-0.304 0.68,-0.313 0.682,-0.321 0.684,-0.329 0.686,-0.334 0.687,-0.338 0.688,-0.341 0.69,-0.344 0.691,-0.346 0.693,-0.348 0.696,-0.35 0.7,-0.351 l 0.13,-0.032 0.032,-0.13 c 0.001,-0.004 0.003,-0.007 0.007,-0.01 0.003,-0.002 0.006,-0.003 0.01,-0.003 0.005,0 0.009,0.001 0.013,0.005 0.003,0.003 0.005,0.007 0.005,0.012 0,0.002 -0.001,0.007 -0.002,0.014 -0.002,0.008 -0.004,0.016 -0.006,0.026 -0.002,0.009 -0.005,0.019 -0.007,0.03 -0.003,0.011 -0.006,0.022 -0.008,0.031 -0.003,0.01 -0.005,0.019 -0.008,0.027 -0.002,0.007 -0.003,0.013 -0.005,0.017 -0.001,0.003 -0.002,0.006 -0.004,0.008 -0.002,0.002 -0.004,0.003 -0.008,0.004 l -0.131,0.033 -0.032,0.13 c -0.001,0.004 -0.003,0.007 -0.006,0.01 -0.003,0.002 -0.007,0.004 -0.011,0.004 z m -0.07,-0.106 c -0.005,0 -0.009,-10e-4 -0.013,-0.005 -0.003,-0.003 -0.005,-0.007 -0.005,-0.012 0,-0.003 0.001,-0.008 0.002,-0.015 0.002,-0.007 0.004,-0.015 0.006,-0.025 0.002,-0.009 0.005,-0.02 0.007,-0.03 0.003,-0.011 0.006,-0.022 0.008,-0.031 0.003,-0.01 0.005,-0.019 0.008,-0.027 0.002,-0.008 0.003,-0.013 0.005,-0.017 0.001,-0.003 0.002,-0.006 0.004,-0.008 0.002,-0.002 0.004,-0.004 0.008,-0.005 L 0.76,-0.488 0.792,-0.619 c 0.001,-0.003 0.003,-0.006 0.007,-0.009 0.003,-0.003 0.006,-0.004 0.01,-0.004 0.005,0 0.009,0.002 0.012,0.006 0.004,0.003 0.006,0.007 0.006,0.012 0,0.002 -0.001,0.007 -0.003,0.014 -0.001,0.008 -0.003,0.016 -0.005,0.025 -0.002,0.01 -0.005,0.02 -0.008,0.031 -0.002,0.011 -0.005,0.021 -0.008,0.031 -0.002,0.01 -0.005,0.018 -0.007,0.026 -0.002,0.008 -0.004,0.014 -0.005,0.017 -0.001,0.004 -0.003,0.007 -0.004,0.009 -0.002,0.002 -0.005,0.003 -0.009,0.004 l -0.13,0.033 -0.032,0.13 c -0.001,0.004 -0.003,0.007 -0.007,0.01 -0.003,0.002 -0.006,0.003 -0.01,0.003 z"
         style="fill:#ffffff;fill-rule:nonzero"
         id="path19068" /></g></g></svg>
