<?xml version="1.0" encoding="UTF-8" standalone="no"?>
<svg
   width="16.845001"
   height="16.845001"
   viewBox="0 0 16.845001 16.845001"
   version="1.1"
   xml:space="preserve"
   style="clip-rule:evenodd;fill-rule:evenodd;stroke-linejoin:round;stroke-miterlimit:2"
   id="svg20568"
   sodipodi:docname="emojis.svg"
   xmlns:inkscape="http://www.inkscape.org/namespaces/inkscape"
   xmlns:sodipodi="http://sodipodi.sourceforge.net/DTD/sodipodi-0.dtd"
   xmlns="http://www.w3.org/2000/svg"
   xmlns:svg="http://www.w3.org/2000/svg"><defs
     id="defs20572" /><sodipodi:namedview
     id="namedview20570"
     pagecolor="#505050"
     bordercolor="#eeeeee"
     borderopacity="1"
     inkscape:pageshadow="0"
     inkscape:pageopacity="0"
     inkscape:pagecheckerboard="0" /><g
     transform="matrix(0.24,0,0,0.24,-610.4886,-958.5906)"
     id="g20566"><g
       transform="matrix(62.5,0,0,62.5,2535.89,4051.19)"
       id="g19016"><rect
         x="0.125"
         y="-0.91299999"
         width="1.123"
         height="1.123"
         style="fill-rule:nonzero"
         id="rect19010" /><rect
         x="0.19499999"
         y="-0.84200001"
         width="0.98199999"
         height="0.98199999"
         style="fill:#0078d7;fill-rule:nonzero"
         id="rect19012" /><path
         d="m 0.687,-0.105 c -0.034,0 -0.066,-0.007 -0.096,-0.02 C 0.561,-0.138 0.535,-0.155 0.513,-0.177 0.491,-0.199 0.473,-0.225 0.46,-0.255 0.447,-0.285 0.441,-0.317 0.441,-0.351 c 0,-0.034 0.006,-0.066 0.019,-0.096 0.013,-0.029 0.031,-0.055 0.053,-0.078 0.022,-0.022 0.048,-0.04 0.078,-0.052 0.03,-0.013 0.062,-0.02 0.096,-0.02 0.033,0 0.065,0.007 0.095,0.02 0.03,0.012 0.056,0.03 0.078,0.052 0.022,0.023 0.04,0.049 0.053,0.078 0.013,0.03 0.019,0.062 0.019,0.096 0,0.034 -0.006,0.066 -0.019,0.095 -0.013,0.03 -0.031,0.056 -0.053,0.079 -0.022,0.022 -0.048,0.039 -0.078,0.052 -0.03,0.013 -0.062,0.02 -0.095,0.02 z"
         style="fill:#ffffff;fill-rule:nonzero"
         id="path19014" /></g></g></svg>
