<?xml version="1.0" encoding="UTF-8" standalone="no"?>
<svg
   width="14.73"
   height="14.73"
   viewBox="0 0 14.73 14.73"
   version="1.1"
   xml:space="preserve"
   style="clip-rule:evenodd;fill-rule:evenodd;stroke-linejoin:round;stroke-miterlimit:2"
   id="svg20568"
   sodipodi:docname="emojis.svg"
   xmlns:inkscape="http://www.inkscape.org/namespaces/inkscape"
   xmlns:sodipodi="http://sodipodi.sourceforge.net/DTD/sodipodi-0.dtd"
   xmlns="http://www.w3.org/2000/svg"
   xmlns:svg="http://www.w3.org/2000/svg"><defs
     id="defs20572" /><sodipodi:namedview
     id="namedview20570"
     pagecolor="#505050"
     bordercolor="#eeeeee"
     borderopacity="1"
     inkscape:pageshadow="0"
     inkscape:pageopacity="0"
     inkscape:pagecheckerboard="0" /><g
     transform="matrix(0.24,0,0,0.24,-672.2766,-959.6556)"
     id="g20566"><g
       transform="matrix(62.5,0,0,62.5,2793.34,4051.19)"
       id="g19038"><path
         d="m 0.914,-0.457 h 0.088 c 0.015,0 0.029,0.003 0.041,0.009 0.013,0.005 0.024,0.013 0.034,0.022 0.009,0.01 0.017,0.021 0.022,0.034 0.006,0.013 0.008,0.026 0.008,0.041 0,0.015 -0.002,0.028 -0.008,0.041 -0.005,0.013 -0.013,0.024 -0.022,0.033 -0.01,0.01 -0.021,0.018 -0.034,0.023 -0.012,0.006 -0.026,0.008 -0.041,0.008 H 0.914 c -0.004,0.01 -0.008,0.02 -0.013,0.031 l 0.071,0.07 c 0.009,0.01 0.017,0.022 0.022,0.034 C 1,-0.098 1.002,-0.084 1.002,-0.07 1.002,-0.056 1,-0.042 0.994,-0.029 0.989,-0.017 0.981,-0.005 0.971,0.004 0.962,0.014 0.951,0.021 0.938,0.027 0.925,0.032 0.912,0.035 0.897,0.035 0.883,0.035 0.87,0.032 0.857,0.027 0.844,0.022 0.833,0.014 0.823,0.004 l -0.071,-0.07 c -0.005,0.002 -0.01,0.004 -0.015,0.006 -0.005,0.002 -0.01,0.004 -0.015,0.006 V 0.035 C 0.722,0.05 0.719,0.063 0.713,0.076 0.708,0.089 0.7,0.1 0.691,0.109 0.681,0.119 0.67,0.126 0.657,0.132 0.645,0.137 0.631,0.14 0.616,0.14 0.602,0.14 0.588,0.137 0.575,0.132 0.563,0.126 0.551,0.119 0.542,0.109 0.533,0.1 0.525,0.089 0.52,0.076 0.514,0.063 0.511,0.05 0.511,0.035 V -0.054 C 0.506,-0.056 0.501,-0.058 0.496,-0.06 0.49,-0.062 0.485,-0.064 0.48,-0.066 L 0.41,0.004 C 0.4,0.014 0.389,0.022 0.376,0.027 0.363,0.032 0.349,0.035 0.335,0.035 0.321,0.035 0.307,0.032 0.294,0.027 0.282,0.021 0.271,0.014 0.261,0.004 0.252,-0.005 0.244,-0.017 0.239,-0.029 0.233,-0.042 0.23,-0.056 0.23,-0.07 c 0,-0.029 0.011,-0.054 0.031,-0.075 l 0.071,-0.07 C 0.329,-0.22 0.327,-0.225 0.325,-0.23 0.323,-0.235 0.321,-0.24 0.319,-0.246 H 0.23 C 0.216,-0.246 0.202,-0.248 0.189,-0.254 0.177,-0.259 0.166,-0.267 0.156,-0.277 0.146,-0.286 0.139,-0.297 0.133,-0.31 0.128,-0.323 0.125,-0.336 0.125,-0.351 c 0,-0.015 0.003,-0.028 0.008,-0.041 0.006,-0.013 0.013,-0.024 0.023,-0.034 0.01,-0.009 0.021,-0.017 0.033,-0.022 0.013,-0.006 0.027,-0.009 0.041,-0.009 h 0.089 c 0.002,-0.005 0.004,-0.01 0.006,-0.015 0.002,-0.005 0.004,-0.01 0.007,-0.015 L 0.261,-0.557 C 0.251,-0.567 0.243,-0.579 0.238,-0.591 0.233,-0.604 0.23,-0.618 0.23,-0.632 c 0,-0.014 0.003,-0.028 0.009,-0.041 0.005,-0.012 0.013,-0.024 0.022,-0.033 0.01,-0.01 0.021,-0.017 0.034,-0.023 0.013,-0.006 0.026,-0.008 0.04,-0.008 0.015,0 0.028,0.002 0.041,0.008 0.013,0.005 0.024,0.013 0.034,0.023 l 0.07,0.07 c 0.005,-0.002 0.01,-0.005 0.016,-0.007 0.005,-0.002 0.01,-0.003 0.015,-0.005 v -0.089 c 0,-0.015 0.003,-0.028 0.009,-0.041 0.005,-0.013 0.013,-0.024 0.022,-0.033 0.01,-0.01 0.021,-0.017 0.034,-0.023 0.012,-0.006 0.026,-0.008 0.04,-0.008 0.014,0 0.028,0.002 0.04,0.008 0.013,0.006 0.025,0.013 0.034,0.023 0.01,0.009 0.017,0.02 0.023,0.033 0.006,0.013 0.009,0.026 0.009,0.041 v 0.089 c 0.005,0.002 0.01,0.003 0.015,0.005 0.005,0.002 0.01,0.005 0.015,0.007 l 0.071,-0.07 c 0.01,-0.01 0.021,-0.018 0.034,-0.023 0.012,-0.006 0.025,-0.008 0.04,-0.008 0.015,0 0.028,0.002 0.041,0.008 0.013,0.006 0.024,0.013 0.033,0.023 0.01,0.009 0.018,0.02 0.023,0.033 0.006,0.013 0.008,0.027 0.008,0.041 0,0.014 -0.002,0.028 -0.008,0.041 -0.005,0.013 -0.013,0.024 -0.022,0.034 l -0.071,0.07 c 0.005,0.011 0.009,0.021 0.013,0.03 z"
         style="fill-rule:nonzero"
         id="path19034" /><path
         d="m 0.616,-0.597 c 0.034,0 0.066,0.007 0.096,0.02 0.029,0.012 0.055,0.03 0.078,0.052 0.022,0.023 0.04,0.049 0.053,0.078 0.012,0.03 0.019,0.062 0.019,0.096 0,0.034 -0.007,0.066 -0.019,0.095 -0.013,0.03 -0.031,0.056 -0.053,0.079 -0.023,0.022 -0.049,0.039 -0.078,0.052 -0.03,0.013 -0.062,0.02 -0.096,0.02 -0.034,0 -0.066,-0.007 -0.095,-0.02 C 0.491,-0.138 0.465,-0.155 0.442,-0.177 0.42,-0.199 0.403,-0.225 0.39,-0.255 0.377,-0.285 0.371,-0.317 0.371,-0.351 c 0,-0.034 0.006,-0.066 0.019,-0.096 0.013,-0.029 0.03,-0.055 0.053,-0.078 0.022,-0.022 0.048,-0.04 0.078,-0.052 0.03,-0.013 0.061,-0.02 0.095,-0.02 z m 0,0.421 c 0.025,0 0.047,-0.004 0.069,-0.013 0.021,-0.01 0.04,-0.022 0.055,-0.038 0.016,-0.016 0.029,-0.035 0.038,-0.056 0.009,-0.021 0.014,-0.044 0.014,-0.068 0,-0.024 -0.005,-0.047 -0.014,-0.068 C 0.769,-0.441 0.756,-0.459 0.74,-0.475 0.724,-0.491 0.706,-0.503 0.684,-0.512 0.663,-0.522 0.64,-0.526 0.616,-0.526 c -0.024,0 -0.047,0.004 -0.068,0.014 -0.021,0.009 -0.04,0.021 -0.056,0.037 -0.015,0.016 -0.028,0.034 -0.037,0.056 -0.009,0.021 -0.014,0.044 -0.014,0.068 0,0.024 0.004,0.047 0.014,0.068 0.009,0.021 0.021,0.04 0.037,0.056 0.016,0.016 0.035,0.028 0.056,0.038 0.021,0.009 0.044,0.013 0.068,0.013 z M 0.3,-0.07 c 0,-0.01 0.004,-0.018 0.011,-0.025 L 0.346,-0.13 c 0.007,-0.007 0.015,-0.011 0.025,-0.011 0.009,0 0.018,0.004 0.025,0.011 0.006,0.006 0.01,0.015 0.01,0.025 0,0.009 -0.004,0.018 -0.01,0.024 L 0.36,-0.045 c -0.006,0.006 -0.015,0.01 -0.025,0.01 -0.009,0 -0.018,-0.004 -0.024,-0.01 C 0.304,-0.052 0.3,-0.061 0.3,-0.07 Z m 0.035,-0.597 c 0.01,0 0.019,0.003 0.025,0.01 l 0.036,0.035 c 0.006,0.007 0.01,0.016 0.01,0.025 0,0.01 -0.004,0.018 -0.01,0.025 -0.007,0.007 -0.016,0.01 -0.025,0.01 -0.01,0 -0.018,-0.003 -0.025,-0.01 L 0.311,-0.607 C 0.304,-0.614 0.3,-0.622 0.3,-0.632 c 0,-0.01 0.004,-0.018 0.011,-0.025 0.006,-0.007 0.015,-0.01 0.024,-0.01 z m 0.492,0.07 c 0,-0.009 0.003,-0.017 0.01,-0.025 l 0.035,-0.035 c 0.007,-0.007 0.015,-0.01 0.025,-0.01 0.01,0 0.018,0.003 0.025,0.01 0.007,0.007 0.01,0.015 0.01,0.025 0,0.01 -0.003,0.018 -0.01,0.025 l -0.035,0.035 c -0.007,0.007 -0.015,0.01 -0.025,0.01 -0.01,0 -0.018,-0.003 -0.025,-0.01 -0.007,-0.007 -0.01,-0.015 -0.01,-0.025 z m 0.035,0.456 c 0.01,0 0.018,0.004 0.025,0.011 l 0.035,0.035 c 0.007,0.007 0.01,0.015 0.01,0.025 0,0.009 -0.003,0.018 -0.01,0.025 -0.007,0.006 -0.015,0.01 -0.025,0.01 -0.01,0 -0.018,-0.004 -0.025,-0.01 L 0.837,-0.081 c -0.007,-0.007 -0.01,-0.015 -0.01,-0.024 0,-0.01 0.003,-0.018 0.01,-0.025 0.007,-0.007 0.015,-0.011 0.025,-0.011 z m 0.14,-0.245 c 0.01,0 0.019,0.003 0.025,0.01 0.007,0.007 0.011,0.015 0.011,0.025 0,0.01 -0.004,0.018 -0.011,0.025 -0.006,0.007 -0.015,0.01 -0.025,0.01 H 0.967 c -0.009,0 -0.018,-0.003 -0.025,-0.01 -0.006,-0.007 -0.01,-0.015 -0.01,-0.025 0,-0.01 0.004,-0.018 0.01,-0.025 0.007,-0.007 0.016,-0.01 0.025,-0.01 z m -0.386,0.351 c 0.01,0 0.018,0.003 0.025,0.01 0.007,0.007 0.01,0.015 0.01,0.025 v 0.035 c 0,0.01 -0.003,0.018 -0.01,0.025 C 0.634,0.067 0.626,0.07 0.616,0.07 0.607,0.07 0.599,0.067 0.592,0.06 0.585,0.053 0.581,0.045 0.581,0.035 V 0 c 0,-0.009 0.004,-0.018 0.011,-0.025 0.007,-0.007 0.015,-0.01 0.024,-0.01 z M 0.265,-0.386 c 0.01,0 0.018,0.003 0.025,0.01 0.007,0.007 0.01,0.015 0.01,0.025 0,0.01 -0.003,0.018 -0.01,0.025 -0.007,0.007 -0.015,0.01 -0.025,0.01 H 0.23 c -0.009,0 -0.018,-0.003 -0.024,-0.01 -0.007,-0.007 -0.011,-0.015 -0.011,-0.025 0,-0.01 0.004,-0.018 0.011,-0.025 0.006,-0.007 0.015,-0.01 0.024,-0.01 z m 0.351,-0.386 c 0.01,0 0.018,0.003 0.025,0.01 0.007,0.007 0.01,0.015 0.01,0.025 v 0.035 c 0,0.01 -0.003,0.018 -0.01,0.025 -0.007,0.007 -0.015,0.01 -0.025,0.01 -0.009,0 -0.017,-0.003 -0.024,-0.01 C 0.585,-0.684 0.581,-0.693 0.581,-0.702 v -0.035 c 0,-0.01 0.004,-0.018 0.011,-0.025 0.007,-0.007 0.015,-0.01 0.024,-0.01 z"
         style="fill:#fff100;fill-rule:nonzero"
         id="path19036" /></g></g></svg>
