<?xml version="1.0" encoding="UTF-8" standalone="no"?>
<svg
   width="16.844999"
   height="16.844999"
   viewBox="0 0 16.844999 16.844999"
   version="1.1"
   xml:space="preserve"
   style="clip-rule:evenodd;fill-rule:evenodd;stroke-linejoin:round;stroke-miterlimit:2"
   id="svg20568"
   sodipodi:docname="emojis.svg"
   xmlns:inkscape="http://www.inkscape.org/namespaces/inkscape"
   xmlns:sodipodi="http://sodipodi.sourceforge.net/DTD/sodipodi-0.dtd"
   xmlns="http://www.w3.org/2000/svg"
   xmlns:svg="http://www.w3.org/2000/svg"><defs
     id="defs20572" /><sodipodi:namedview
     id="namedview20570"
     pagecolor="#505050"
     bordercolor="#eeeeee"
     borderopacity="1"
     inkscape:pageshadow="0"
     inkscape:pageopacity="0"
     inkscape:pagecheckerboard="0" /><g
     transform="matrix(0.24,0,0,0.24,-690.7686,-958.5906)"
     id="g20566"><g
       transform="matrix(62.5,0,0,62.5,2870.39,4051.19)"
       id="g19044"><path
         d="m 0.984,-0.457 h 0.159 c 0.014,0 0.028,0.003 0.041,0.009 0.012,0.005 0.023,0.013 0.033,0.022 0.01,0.01 0.017,0.021 0.023,0.034 0.005,0.013 0.008,0.026 0.008,0.041 0,0.015 -0.003,0.028 -0.008,0.041 -0.006,0.013 -0.013,0.024 -0.023,0.033 -0.01,0.01 -0.021,0.018 -0.033,0.023 -0.013,0.006 -0.027,0.008 -0.041,0.008 H 0.984 C 0.982,-0.24 0.98,-0.235 0.978,-0.23 0.976,-0.225 0.974,-0.22 0.971,-0.215 l 0.106,0.105 c 0.01,0.01 0.017,0.022 0.023,0.034 0.005,0.013 0.007,0.027 0.007,0.041 0,0.014 -0.002,0.028 -0.008,0.04 C 1.094,0.018 1.086,0.029 1.076,0.039 1.067,0.048 1.056,0.056 1.043,0.062 1.03,0.067 1.017,0.07 1.002,0.07 0.988,0.07 0.975,0.068 0.962,0.062 0.949,0.056 0.938,0.049 0.928,0.039 L 0.822,-0.067 c -0.011,0.005 -0.021,0.01 -0.03,0.013 V 0.105 C 0.792,0.12 0.789,0.133 0.784,0.146 0.778,0.159 0.771,0.17 0.761,0.179 0.751,0.189 0.74,0.197 0.728,0.202 0.715,0.208 0.701,0.21 0.687,0.21 0.672,0.21 0.658,0.208 0.646,0.202 0.633,0.197 0.622,0.189 0.612,0.179 0.602,0.17 0.595,0.159 0.589,0.146 0.584,0.133 0.581,0.12 0.581,0.105 V -0.054 C 0.576,-0.056 0.571,-0.058 0.566,-0.06 0.561,-0.062 0.556,-0.064 0.551,-0.066 L 0.445,0.039 C 0.436,0.049 0.424,0.056 0.411,0.062 0.398,0.068 0.385,0.07 0.371,0.07 0.356,0.07 0.343,0.068 0.33,0.062 0.317,0.056 0.306,0.049 0.296,0.039 0.287,0.03 0.279,0.018 0.273,0.006 0.268,-0.007 0.265,-0.021 0.265,-0.035 0.265,-0.049 0.268,-0.063 0.273,-0.076 0.279,-0.089 0.287,-0.1 0.296,-0.11 L 0.402,-0.215 C 0.399,-0.22 0.397,-0.225 0.395,-0.23 0.393,-0.235 0.391,-0.24 0.389,-0.246 H 0.23 C 0.216,-0.246 0.202,-0.248 0.189,-0.254 0.177,-0.259 0.166,-0.267 0.156,-0.277 0.146,-0.286 0.139,-0.297 0.133,-0.31 0.128,-0.323 0.125,-0.336 0.125,-0.351 c 0,-0.015 0.003,-0.028 0.008,-0.041 0.006,-0.013 0.013,-0.024 0.023,-0.034 0.01,-0.009 0.021,-0.017 0.033,-0.022 0.013,-0.006 0.027,-0.009 0.041,-0.009 h 0.159 c 0.002,-0.005 0.004,-0.01 0.006,-0.015 0.002,-0.005 0.004,-0.01 0.007,-0.015 L 0.296,-0.592 C 0.287,-0.602 0.279,-0.613 0.273,-0.626 0.268,-0.639 0.265,-0.653 0.265,-0.667 c 0,-0.014 0.003,-0.028 0.009,-0.041 0.005,-0.012 0.013,-0.023 0.023,-0.033 0.009,-0.01 0.02,-0.017 0.033,-0.023 0.013,-0.005 0.026,-0.008 0.041,-0.008 0.014,0 0.027,0.003 0.04,0.008 0.013,0.005 0.024,0.013 0.034,0.023 l 0.106,0.105 c 0.005,-0.002 0.01,-0.005 0.015,-0.007 0.005,-0.002 0.01,-0.003 0.015,-0.005 v -0.159 c 0,-0.015 0.003,-0.028 0.008,-0.041 0.006,-0.013 0.013,-0.024 0.023,-0.034 0.01,-0.009 0.021,-0.017 0.034,-0.022 0.012,-0.006 0.026,-0.009 0.041,-0.009 0.014,0 0.028,0.003 0.041,0.009 0.012,0.005 0.023,0.013 0.033,0.022 0.01,0.01 0.017,0.021 0.023,0.034 0.005,0.013 0.008,0.026 0.008,0.041 v 0.159 c 0.005,0.002 0.01,0.003 0.015,0.005 0.005,0.002 0.01,0.005 0.015,0.007 l 0.106,-0.105 c 0.01,-0.01 0.021,-0.018 0.034,-0.023 0.013,-0.005 0.026,-0.008 0.04,-0.008 0.015,0 0.029,0.003 0.041,0.008 0.013,0.006 0.024,0.013 0.034,0.023 0.009,0.009 0.017,0.02 0.022,0.033 0.006,0.013 0.008,0.026 0.008,0.041 0,0.014 -0.002,0.028 -0.007,0.041 -0.006,0.012 -0.013,0.024 -0.023,0.034 l -0.106,0.105 c 0.003,0.005 0.005,0.01 0.007,0.015 0.002,0.005 0.004,0.01 0.006,0.015 z"
         style="fill-rule:nonzero"
         id="path19040" /><path
         d="m 0.687,-0.597 c 0.033,0 0.065,0.007 0.095,0.02 0.03,0.012 0.056,0.03 0.078,0.052 0.022,0.023 0.04,0.049 0.053,0.078 0.013,0.03 0.019,0.062 0.019,0.096 0,0.034 -0.006,0.066 -0.019,0.095 -0.013,0.03 -0.031,0.056 -0.053,0.079 -0.022,0.022 -0.048,0.039 -0.078,0.052 -0.03,0.013 -0.062,0.02 -0.095,0.02 -0.034,0 -0.066,-0.007 -0.096,-0.02 C 0.561,-0.138 0.535,-0.155 0.513,-0.177 0.491,-0.199 0.473,-0.225 0.46,-0.255 0.447,-0.285 0.441,-0.317 0.441,-0.351 c 0,-0.034 0.006,-0.066 0.019,-0.096 0.013,-0.029 0.031,-0.055 0.053,-0.078 0.022,-0.022 0.048,-0.04 0.078,-0.052 0.03,-0.013 0.062,-0.02 0.096,-0.02 z m 0,0.421 c 0.024,0 0.046,-0.004 0.068,-0.014 0.021,-0.009 0.04,-0.022 0.055,-0.037 0.016,-0.016 0.029,-0.035 0.038,-0.056 0.009,-0.021 0.014,-0.044 0.014,-0.068 0,-0.024 -0.005,-0.047 -0.014,-0.068 C 0.839,-0.441 0.826,-0.459 0.81,-0.475 0.795,-0.491 0.776,-0.503 0.755,-0.512 0.733,-0.522 0.711,-0.526 0.687,-0.526 c -0.025,0 -0.047,0.004 -0.069,0.014 -0.021,0.009 -0.039,0.021 -0.055,0.037 -0.016,0.016 -0.029,0.034 -0.038,0.056 -0.009,0.021 -0.014,0.044 -0.014,0.068 0,0.024 0.005,0.047 0.014,0.068 0.009,0.021 0.022,0.04 0.037,0.056 0.016,0.016 0.035,0.028 0.056,0.038 0.021,0.009 0.044,0.013 0.069,0.013 z m 0.456,-0.21 c 0.009,0 0.018,0.003 0.024,0.01 0.007,0.007 0.011,0.015 0.011,0.025 0,0.01 -0.004,0.018 -0.011,0.025 -0.006,0.007 -0.015,0.01 -0.024,0.01 H 1.038 c -0.01,0 -0.018,-0.003 -0.025,-0.01 -0.007,-0.007 -0.011,-0.015 -0.011,-0.025 0,-0.01 0.004,-0.018 0.011,-0.025 0.007,-0.007 0.015,-0.01 0.025,-0.01 z M 0.687,-0.842 c 0.009,0 0.018,0.003 0.024,0.01 0.007,0.007 0.011,0.015 0.011,0.025 v 0.105 c 0,0.01 -0.004,0.018 -0.011,0.025 -0.006,0.007 -0.015,0.01 -0.024,0.01 -0.01,0 -0.019,-0.003 -0.025,-0.01 C 0.655,-0.684 0.651,-0.692 0.651,-0.702 v -0.105 c 0,-0.01 0.004,-0.018 0.011,-0.025 0.006,-0.007 0.015,-0.01 0.025,-0.01 z m 0,0.807 c 0.009,0 0.018,0.003 0.024,0.01 C 0.718,-0.018 0.722,-0.01 0.722,0 V 0.105 C 0.722,0.115 0.718,0.123 0.711,0.13 0.705,0.137 0.696,0.14 0.687,0.14 0.677,0.14 0.668,0.137 0.662,0.13 0.655,0.123 0.651,0.115 0.651,0.105 V 0 c 0,-0.01 0.004,-0.018 0.011,-0.025 0.006,-0.007 0.015,-0.01 0.025,-0.01 z M 0.335,-0.386 c 0.01,0 0.019,0.003 0.025,0.01 0.007,0.007 0.011,0.015 0.011,0.025 0,0.01 -0.004,0.018 -0.011,0.025 -0.006,0.007 -0.015,0.01 -0.025,0.01 H 0.23 c -0.009,0 -0.018,-0.003 -0.024,-0.01 -0.007,-0.007 -0.011,-0.015 -0.011,-0.025 0,-0.01 0.004,-0.018 0.011,-0.025 0.006,-0.007 0.015,-0.01 0.024,-0.01 z m 0.597,0.245 c 0.01,0 0.018,0.004 0.025,0.011 l 0.07,0.07 c 0.007,0.007 0.011,0.015 0.011,0.025 0,0.01 -0.004,0.018 -0.011,0.025 C 1.021,-0.003 1.012,0 1.002,0 0.993,0 0.984,-0.003 0.978,-0.01 L 0.907,-0.081 C 0.9,-0.087 0.897,-0.096 0.897,-0.105 c 0,-0.01 0.003,-0.019 0.01,-0.025 0.007,-0.007 0.015,-0.011 0.025,-0.011 z m -0.597,0.106 c 0,-0.01 0.004,-0.018 0.011,-0.025 l 0.07,-0.07 c 0.007,-0.007 0.015,-0.011 0.025,-0.011 0.01,0 0.018,0.004 0.025,0.011 0.007,0.006 0.01,0.015 0.01,0.025 0,0.009 -0.003,0.018 -0.01,0.024 L 0.396,-0.01 C 0.389,-0.003 0.38,0 0.371,0 0.361,0 0.353,-0.003 0.346,-0.01 0.339,-0.017 0.335,-0.025 0.335,-0.035 Z m 0.562,-0.562 c 0,-0.009 0.003,-0.018 0.01,-0.025 l 0.071,-0.07 c 0.006,-0.007 0.015,-0.01 0.024,-0.01 0.01,0 0.019,0.003 0.025,0.01 0.007,0.007 0.011,0.015 0.011,0.025 0,0.01 -0.004,0.018 -0.011,0.025 l -0.07,0.07 c -0.007,0.007 -0.015,0.01 -0.025,0.01 -0.01,0 -0.018,-0.003 -0.025,-0.01 C 0.9,-0.579 0.897,-0.587 0.897,-0.597 Z M 0.371,-0.702 c 0.009,0 0.018,0.003 0.025,0.01 l 0.07,0.07 c 0.007,0.007 0.01,0.016 0.01,0.025 0,0.01 -0.003,0.018 -0.01,0.025 -0.007,0.007 -0.015,0.01 -0.025,0.01 -0.01,0 -0.018,-0.003 -0.025,-0.01 l -0.07,-0.07 C 0.339,-0.649 0.335,-0.657 0.335,-0.667 c 0,-0.01 0.004,-0.018 0.011,-0.025 0.007,-0.007 0.015,-0.01 0.025,-0.01 z"
         style="fill:#fff100;fill-rule:nonzero"
         id="path19042" /></g></g></svg>
