<?xml version="1.0" encoding="UTF-8" standalone="no"?>
<svg
   width="4.7399998"
   height="16.844999"
   viewBox="0 0 4.7399998 16.844999"
   version="1.1"
   xml:space="preserve"
   style="clip-rule:evenodd;fill-rule:evenodd;stroke-linejoin:round;stroke-miterlimit:2"
   id="svg20568"
   sodipodi:docname="emojis.svg"
   xmlns:inkscape="http://www.inkscape.org/namespaces/inkscape"
   xmlns:sodipodi="http://sodipodi.sourceforge.net/DTD/sodipodi-0.dtd"
   xmlns="http://www.w3.org/2000/svg"
   xmlns:svg="http://www.w3.org/2000/svg"><defs
     id="defs20572" /><sodipodi:namedview
     id="namedview20570"
     pagecolor="#505050"
     bordercolor="#eeeeee"
     borderopacity="1"
     inkscape:pageshadow="0"
     inkscape:pageopacity="0"
     inkscape:pagecheckerboard="0" /><g
     transform="matrix(0.24,0,0,0.24,-190.3206,-975.561)"
     id="g20566"><g
       transform="matrix(62.5,0,0,62.5,785.19,4121.9)"
       id="g19158"><path
         d="M 0.406,-0.046 C 0.418,-0.032 0.426,-0.017 0.432,0 0.438,0.017 0.441,0.035 0.441,0.053 0.441,0.075 0.437,0.095 0.428,0.114 0.42,0.133 0.409,0.15 0.395,0.164 0.38,0.178 0.363,0.19 0.344,0.198 0.325,0.206 0.305,0.21 0.283,0.21 0.261,0.21 0.24,0.206 0.221,0.198 0.202,0.19 0.186,0.178 0.171,0.164 0.157,0.15 0.146,0.133 0.137,0.114 0.129,0.095 0.125,0.075 0.125,0.053 0.125,0.035 0.128,0.017 0.134,0 0.14,-0.017 0.148,-0.032 0.16,-0.046 L 0.125,-0.913 h 0.316 z"
         style="fill-rule:nonzero"
         id="path19154" /><path
         d="M 0.335,-0.141 H 0.23 L 0.195,-0.842 H 0.371 Z M 0.371,0.053 C 0.371,0.065 0.368,0.076 0.364,0.087 0.359,0.097 0.353,0.107 0.345,0.115 0.337,0.122 0.328,0.129 0.317,0.133 0.306,0.138 0.295,0.14 0.283,0.14 0.271,0.14 0.259,0.138 0.249,0.133 0.238,0.129 0.229,0.122 0.221,0.115 0.213,0.107 0.207,0.097 0.202,0.087 0.198,0.076 0.195,0.065 0.195,0.053 0.195,0.041 0.198,0.029 0.202,0.019 0.207,0.008 0.213,-0.002 0.221,-0.01 c 0.008,-0.007 0.017,-0.014 0.028,-0.018 0.01,-0.005 0.022,-0.007 0.034,-0.007 0.012,0 0.023,0.002 0.034,0.007 0.011,0.004 0.02,0.011 0.028,0.018 0.008,0.008 0.014,0.018 0.019,0.029 0.004,0.01 0.007,0.022 0.007,0.034 z"
         style="fill:#f03a17;fill-rule:nonzero"
         id="path19156" /></g></g></svg>
