<?xml version="1.0" encoding="UTF-8" standalone="no"?>
<svg
   width="16.32"
   height="4.2150002"
   viewBox="0 0 16.32 4.2150002"
   version="1.1"
   xml:space="preserve"
   style="clip-rule:evenodd;fill-rule:evenodd;stroke-linejoin:round;stroke-miterlimit:2"
   id="svg20568"
   sodipodi:docname="emojis.svg"
   xmlns:inkscape="http://www.inkscape.org/namespaces/inkscape"
   xmlns:sodipodi="http://sodipodi.sourceforge.net/DTD/sodipodi-0.dtd"
   xmlns="http://www.w3.org/2000/svg"
   xmlns:svg="http://www.w3.org/2000/svg"><defs
     id="defs20572" /><sodipodi:namedview
     id="namedview20570"
     pagecolor="#505050"
     bordercolor="#eeeeee"
     borderopacity="1"
     inkscape:pageshadow="0"
     inkscape:pageopacity="0"
     inkscape:pagecheckerboard="0" /><g
     transform="matrix(0.24,0,0,0.24,-198.8094,-981.891)"
     id="g20566"><g
       transform="matrix(62.5,0,0,62.5,820.56,4121.9)"
       id="g19164"><path
         d="M 0.845,-0.21 C 0.834,-0.21 0.822,-0.211 0.81,-0.213 0.798,-0.215 0.786,-0.218 0.774,-0.221 0.763,-0.224 0.751,-0.229 0.74,-0.234 0.73,-0.24 0.72,-0.246 0.711,-0.252 L 0.684,-0.275 C 0.679,-0.279 0.674,-0.281 0.669,-0.281 0.666,-0.281 0.664,-0.28 0.661,-0.279 0.659,-0.278 0.657,-0.277 0.654,-0.275 0.649,-0.272 0.645,-0.268 0.64,-0.264 0.636,-0.26 0.632,-0.256 0.627,-0.252 0.608,-0.239 0.587,-0.228 0.563,-0.221 0.54,-0.214 0.516,-0.21 0.494,-0.21 0.483,-0.21 0.471,-0.211 0.459,-0.213 0.447,-0.215 0.435,-0.218 0.423,-0.221 0.412,-0.224 0.4,-0.229 0.389,-0.234 0.378,-0.24 0.369,-0.246 0.36,-0.252 L 0.333,-0.275 C 0.328,-0.279 0.323,-0.281 0.318,-0.281 0.314,-0.281 0.31,-0.279 0.304,-0.275 0.299,-0.271 0.293,-0.267 0.286,-0.263 0.278,-0.259 0.27,-0.255 0.261,-0.251 0.252,-0.247 0.242,-0.246 0.23,-0.246 0.216,-0.246 0.202,-0.248 0.189,-0.254 0.177,-0.259 0.166,-0.267 0.156,-0.277 0.146,-0.286 0.139,-0.297 0.133,-0.31 0.128,-0.323 0.125,-0.336 0.125,-0.351 c 0,-0.015 0.003,-0.029 0.009,-0.042 0.006,-0.013 0.014,-0.024 0.024,-0.035 0.01,-0.01 0.021,-0.019 0.034,-0.027 0.013,-0.008 0.027,-0.015 0.041,-0.02 0.015,-0.005 0.029,-0.009 0.044,-0.012 0.014,-0.003 0.028,-0.004 0.041,-0.004 0.011,0 0.022,0.001 0.035,0.002 0.012,0.002 0.023,0.005 0.035,0.008 0.012,0.004 0.023,0.008 0.034,0.013 0.011,0.006 0.021,0.012 0.03,0.019 l 0.027,0.022 c 0.005,0.004 0.009,0.006 0.015,0.006 0.003,0 0.005,0 0.007,-0.002 0.003,-0.001 0.005,-0.002 0.007,-0.004 l 0.028,-0.022 c 0.018,-0.014 0.039,-0.024 0.063,-0.031 0.023,-0.008 0.047,-0.011 0.07,-0.011 0.023,0 0.046,0.003 0.07,0.011 0.023,0.007 0.044,0.017 0.063,0.031 l 0.028,0.022 c 0.002,0.002 0.005,0.003 0.007,0.004 0.002,0.002 0.005,0.002 0.008,0.002 0.002,0 0.005,0 0.007,-0.002 0.002,-0.001 0.005,-0.002 0.007,-0.004 l 0.028,-0.022 c 0.019,-0.014 0.04,-0.024 0.063,-0.031 0.024,-0.008 0.047,-0.011 0.07,-0.011 0.013,0 0.027,0.001 0.041,0.004 0.015,0.003 0.029,0.007 0.043,0.012 0.015,0.006 0.028,0.012 0.042,0.02 0.013,0.008 0.024,0.017 0.034,0.028 0.01,0.01 0.018,0.022 0.024,0.035 0.006,0.013 0.009,0.026 0.009,0.041 0,0.015 -0.003,0.028 -0.008,0.041 -0.006,0.013 -0.014,0.024 -0.023,0.033 -0.01,0.01 -0.021,0.018 -0.034,0.023 -0.012,0.006 -0.026,0.008 -0.04,0.008 -0.012,0 -0.022,-0.001 -0.032,-0.005 C 1.067,-0.255 1.059,-0.259 1.052,-0.263 1.044,-0.267 1.038,-0.271 1.033,-0.275 1.028,-0.279 1.023,-0.281 1.02,-0.281 1.017,-0.281 1.015,-0.28 1.012,-0.279 1.01,-0.278 1.008,-0.277 1.005,-0.275 1,-0.272 0.996,-0.268 0.991,-0.264 0.987,-0.26 0.983,-0.256 0.978,-0.252 0.959,-0.239 0.938,-0.228 0.915,-0.221 0.891,-0.214 0.868,-0.21 0.845,-0.21 Z"
         style="fill-rule:nonzero"
         id="path19160" /><path
         d="M 0.845,-0.281 C 0.828,-0.281 0.814,-0.282 0.803,-0.286 0.791,-0.289 0.781,-0.294 0.771,-0.299 0.762,-0.304 0.753,-0.31 0.746,-0.316 0.738,-0.322 0.731,-0.328 0.723,-0.333 0.715,-0.338 0.707,-0.343 0.698,-0.346 0.69,-0.349 0.68,-0.351 0.669,-0.351 0.658,-0.351 0.648,-0.349 0.64,-0.346 0.631,-0.343 0.623,-0.338 0.615,-0.333 0.608,-0.328 0.6,-0.322 0.593,-0.316 0.585,-0.31 0.576,-0.304 0.567,-0.299 0.558,-0.294 0.547,-0.289 0.535,-0.286 0.524,-0.282 0.51,-0.281 0.494,-0.281 0.477,-0.281 0.463,-0.282 0.451,-0.286 0.44,-0.289 0.429,-0.294 0.42,-0.299 0.41,-0.304 0.402,-0.31 0.394,-0.316 0.387,-0.322 0.379,-0.328 0.372,-0.333 0.364,-0.338 0.356,-0.343 0.347,-0.346 0.339,-0.349 0.329,-0.351 0.318,-0.351 c -0.012,0 -0.022,0.002 -0.03,0.006 -0.009,0.003 -0.016,0.007 -0.023,0.012 -0.006,0.004 -0.012,0.008 -0.017,0.012 -0.006,0.003 -0.012,0.005 -0.018,0.005 -0.009,0 -0.017,-0.003 -0.024,-0.01 -0.007,-0.007 -0.011,-0.015 -0.011,-0.025 0,-0.005 0.001,-0.01 0.003,-0.014 0.001,-0.003 0.004,-0.007 0.008,-0.011 0.007,-0.007 0.015,-0.014 0.023,-0.019 0.009,-0.006 0.019,-0.011 0.028,-0.014 0.01,-0.004 0.02,-0.007 0.031,-0.009 0.01,-0.002 0.02,-0.003 0.03,-0.003 0.016,0 0.03,0.002 0.042,0.005 0.012,0.004 0.022,0.008 0.031,0.013 0.01,0.005 0.018,0.011 0.026,0.017 0.007,0.006 0.015,0.012 0.023,0.017 0.008,0.006 0.016,0.01 0.024,0.013 0.009,0.004 0.019,0.005 0.03,0.005 0.011,0 0.02,-0.001 0.029,-0.005 0.008,-0.003 0.017,-0.007 0.024,-0.013 0.008,-0.005 0.016,-0.011 0.023,-0.017 0.008,-0.006 0.016,-0.012 0.026,-0.017 0.009,-0.005 0.02,-0.009 0.031,-0.013 0.012,-0.003 0.026,-0.005 0.042,-0.005 0.016,0 0.03,0.002 0.042,0.005 0.012,0.004 0.022,0.008 0.032,0.013 0.009,0.005 0.018,0.011 0.025,0.017 0.008,0.006 0.016,0.012 0.023,0.017 0.008,0.006 0.015,0.01 0.024,0.013 0.008,0.004 0.018,0.005 0.029,0.005 0.011,0 0.021,-0.001 0.03,-0.005 0.008,-0.003 0.016,-0.007 0.024,-0.013 0.007,-0.005 0.015,-0.011 0.023,-0.017 0.007,-0.006 0.016,-0.012 0.025,-0.017 0.009,-0.005 0.02,-0.009 0.032,-0.013 0.012,-0.003 0.026,-0.005 0.042,-0.005 0.006,0 0.014,0.001 0.022,0.002 0.008,0.002 0.017,0.004 0.026,0.006 0.009,0.003 0.019,0.006 0.027,0.01 0.009,0.004 0.017,0.009 0.024,0.014 0.007,0.005 0.013,0.011 0.017,0.017 0.005,0.007 0.007,0.013 0.007,0.021 0,0.01 -0.004,0.018 -0.011,0.025 -0.007,0.007 -0.015,0.01 -0.025,0.01 -0.005,0 -0.011,-0.002 -0.016,-0.005 C 1.085,-0.325 1.079,-0.329 1.073,-0.333 1.066,-0.338 1.059,-0.342 1.05,-0.345 1.042,-0.349 1.032,-0.351 1.02,-0.351 c -0.011,0 -0.021,0.002 -0.029,0.005 -0.009,0.003 -0.017,0.008 -0.024,0.013 -0.008,0.005 -0.016,0.011 -0.023,0.017 -0.008,0.006 -0.017,0.012 -0.026,0.017 -0.009,0.005 -0.02,0.01 -0.032,0.013 -0.011,0.004 -0.025,0.005 -0.041,0.005 z"
         style="fill:#757575;fill-rule:nonzero"
         id="path19162" /></g></g></svg>
