<?xml version="1.0" encoding="UTF-8" standalone="no"?>
<svg
   width="16.845001"
   height="16.845001"
   viewBox="0 0 16.845001 16.845001"
   version="1.1"
   xml:space="preserve"
   style="clip-rule:evenodd;fill-rule:evenodd;stroke-linejoin:round;stroke-miterlimit:2"
   id="svg20568"
   sodipodi:docname="emojis.svg"
   xmlns:inkscape="http://www.inkscape.org/namespaces/inkscape"
   xmlns:sodipodi="http://sodipodi.sourceforge.net/DTD/sodipodi-0.dtd"
   xmlns="http://www.w3.org/2000/svg"
   xmlns:svg="http://www.w3.org/2000/svg"><defs
     id="defs20572" /><sodipodi:namedview
     id="namedview20570"
     pagecolor="#505050"
     bordercolor="#eeeeee"
     borderopacity="1"
     inkscape:pageshadow="0"
     inkscape:pageopacity="0"
     inkscape:pagecheckerboard="0" /><g
     transform="matrix(0.24,0,0,0.24,-107.20524,-975.561)"
     id="g20566"><g
       transform="matrix(62.5,0,0,62.5,438.876,4121.9)"
       id="g19124"><rect
         x="0.125"
         y="-0.91299999"
         width="1.123"
         height="1.123"
         style="fill-rule:nonzero"
         id="rect19118" /><rect
         x="0.19499999"
         y="-0.84200001"
         width="0.98199999"
         height="0.98199999"
         style="fill:#886ce4;fill-rule:nonzero"
         id="rect19120" /><path
         d="m 0.896,-0.526 c 0.025,0 0.048,0.004 0.069,0.013 0.021,0.009 0.04,0.022 0.056,0.038 0.016,0.016 0.029,0.034 0.038,0.056 0.009,0.021 0.014,0.044 0.014,0.068 0,0.025 -0.005,0.047 -0.014,0.068 -0.009,0.021 -0.022,0.04 -0.038,0.056 -0.016,0.016 -0.035,0.028 -0.056,0.038 -0.021,0.009 -0.044,0.013 -0.068,0.013 -0.018,0 -0.035,-0.002 -0.05,-0.007 C 0.832,-0.188 0.818,-0.195 0.804,-0.203 0.791,-0.211 0.779,-0.221 0.766,-0.231 0.754,-0.242 0.742,-0.253 0.73,-0.265 L 0.72,-0.274 0.772,-0.322 c 0.009,0.009 0.018,0.017 0.027,0.025 0.009,0.009 0.018,0.017 0.028,0.025 0.01,0.008 0.021,0.015 0.032,0.019 0.012,0.005 0.024,0.007 0.038,0.007 0.015,0 0.028,-0.002 0.041,-0.008 0.013,-0.005 0.024,-0.013 0.033,-0.023 0.01,-0.009 0.018,-0.02 0.023,-0.033 C 1,-0.323 1.002,-0.336 1.002,-0.351 1.002,-0.366 1,-0.379 0.994,-0.392 0.989,-0.405 0.981,-0.416 0.971,-0.426 0.962,-0.435 0.951,-0.443 0.938,-0.448 0.925,-0.454 0.912,-0.457 0.897,-0.457 c -0.013,0 -0.026,0.003 -0.038,0.008 -0.012,0.004 -0.022,0.011 -0.032,0.019 L 0.593,-0.22 C 0.577,-0.206 0.559,-0.195 0.539,-0.187 0.518,-0.18 0.498,-0.176 0.476,-0.176 0.452,-0.176 0.429,-0.18 0.408,-0.189 0.387,-0.199 0.368,-0.211 0.352,-0.227 0.336,-0.243 0.323,-0.262 0.314,-0.283 0.305,-0.304 0.3,-0.327 0.3,-0.351 c 0,-0.024 0.005,-0.047 0.014,-0.068 0.009,-0.022 0.022,-0.04 0.038,-0.056 0.016,-0.016 0.035,-0.029 0.056,-0.038 0.021,-0.009 0.044,-0.013 0.069,-0.013 0.022,0 0.042,0.003 0.062,0.011 0.019,0.007 0.037,0.018 0.054,0.033 0.01,0.009 0.02,0.018 0.031,0.027 0.01,0.009 0.02,0.018 0.029,0.027 L 0.601,-0.38 C 0.592,-0.389 0.583,-0.397 0.574,-0.406 0.565,-0.414 0.555,-0.422 0.546,-0.43 0.535,-0.438 0.525,-0.445 0.513,-0.449 0.502,-0.454 0.49,-0.457 0.476,-0.457 c -0.015,0 -0.028,0.003 -0.041,0.009 -0.013,0.005 -0.024,0.013 -0.033,0.022 -0.01,0.01 -0.018,0.021 -0.023,0.034 -0.006,0.013 -0.008,0.026 -0.008,0.041 0,0.015 0.002,0.028 0.008,0.041 0.005,0.013 0.013,0.024 0.023,0.033 0.009,0.01 0.02,0.018 0.033,0.023 0.013,0.006 0.026,0.008 0.041,0.008 0.013,0 0.026,-0.002 0.038,-0.007 0.012,-0.004 0.022,-0.011 0.032,-0.019 l 0.234,-0.21 c 0.017,-0.015 0.035,-0.026 0.054,-0.033 0.02,-0.008 0.041,-0.011 0.062,-0.011 z"
         style="fill:#ffffff;fill-rule:nonzero"
         id="path19122" /></g></g></svg>
