<?xml version="1.0" encoding="UTF-8" standalone="no"?>
<svg
   width="10.53"
   height="16.844999"
   viewBox="0 0 10.53 16.844999"
   version="1.1"
   xml:space="preserve"
   style="clip-rule:evenodd;fill-rule:evenodd;stroke-linejoin:round;stroke-miterlimit:2"
   id="svg20568"
   sodipodi:docname="emojis.svg"
   xmlns:inkscape="http://www.inkscape.org/namespaces/inkscape"
   xmlns:sodipodi="http://sodipodi.sourceforge.net/DTD/sodipodi-0.dtd"
   xmlns="http://www.w3.org/2000/svg"
   xmlns:svg="http://www.w3.org/2000/svg"><defs
     id="defs20572" /><sodipodi:namedview
     id="namedview20570"
     pagecolor="#505050"
     bordercolor="#eeeeee"
     borderopacity="1"
     inkscape:pageshadow="0"
     inkscape:pageopacity="0"
     inkscape:pagecheckerboard="0" /><g
     transform="matrix(0.24,0,0,0.24,-167.54964,-975.561)"
     id="g20566"><g
       transform="matrix(62.5,0,0,62.5,690.311,4121.9)"
       id="g19146"><path
         d="m 0.476,-0.913 c 0.032,0 0.063,0.005 0.093,0.013 0.03,0.009 0.058,0.02 0.084,0.035 0.026,0.016 0.05,0.034 0.071,0.055 0.021,0.022 0.04,0.046 0.055,0.071 0.015,0.026 0.027,0.054 0.035,0.084 0.009,0.03 0.013,0.061 0.013,0.093 0,0.03 -0.004,0.058 -0.01,0.084 -0.006,0.026 -0.015,0.051 -0.027,0.074 -0.012,0.023 -0.027,0.045 -0.044,0.066 -0.017,0.02 -0.036,0.041 -0.058,0.06 -0.01,0.01 -0.02,0.019 -0.028,0.029 -0.009,0.01 -0.017,0.021 -0.023,0.032 -0.006,0.011 -0.011,0.023 -0.015,0.036 -0.004,0.012 -0.006,0.026 -0.006,0.04 v 0.123 C 0.622,-0.007 0.626,0.004 0.629,0.016 0.632,0.028 0.634,0.04 0.634,0.053 0.634,0.075 0.63,0.095 0.621,0.114 0.613,0.133 0.602,0.15 0.587,0.164 0.573,0.178 0.556,0.19 0.537,0.198 0.518,0.206 0.498,0.21 0.476,0.21 0.454,0.21 0.434,0.206 0.415,0.198 0.395,0.19 0.379,0.178 0.364,0.164 0.35,0.15 0.339,0.133 0.33,0.114 0.322,0.095 0.318,0.075 0.318,0.053 0.318,0.04 0.319,0.028 0.323,0.016 0.326,0.004 0.33,-0.007 0.335,-0.018 v -0.123 c 0,-0.055 0.011,-0.109 0.031,-0.16 0.02,-0.051 0.049,-0.097 0.086,-0.138 0.009,-0.01 0.019,-0.019 0.028,-0.028 0.01,-0.009 0.02,-0.018 0.029,-0.027 0.01,-0.01 0.019,-0.02 0.026,-0.03 0.007,-0.01 0.011,-0.023 0.011,-0.038 0,-0.009 -0.002,-0.018 -0.005,-0.027 C 0.537,-0.597 0.532,-0.605 0.526,-0.611 0.519,-0.617 0.512,-0.622 0.503,-0.626 0.495,-0.63 0.486,-0.632 0.476,-0.632 0.466,-0.632 0.457,-0.63 0.449,-0.626 0.44,-0.622 0.433,-0.617 0.427,-0.611 0.42,-0.605 0.415,-0.597 0.411,-0.589 0.408,-0.58 0.406,-0.571 0.406,-0.562 v 0.071 H 0.125 v -0.071 c 0,-0.032 0.004,-0.063 0.013,-0.093 0.008,-0.03 0.02,-0.058 0.035,-0.084 C 0.188,-0.764 0.207,-0.788 0.228,-0.81 0.25,-0.831 0.273,-0.849 0.299,-0.865 0.325,-0.88 0.353,-0.891 0.383,-0.9 0.413,-0.908 0.444,-0.913 0.476,-0.913 Z"
         style="fill-rule:nonzero"
         id="path19142" /><path
         d="m 0.476,-0.842 c 0.038,0 0.075,0.007 0.109,0.022 0.034,0.015 0.064,0.035 0.089,0.06 0.026,0.026 0.046,0.055 0.061,0.09 0.014,0.034 0.022,0.07 0.022,0.108 0,0.025 -0.003,0.047 -0.008,0.068 -0.006,0.021 -0.013,0.041 -0.023,0.06 -0.01,0.018 -0.022,0.036 -0.036,0.053 -0.014,0.017 -0.029,0.033 -0.046,0.049 -0.015,0.013 -0.028,0.027 -0.04,0.041 -0.012,0.014 -0.022,0.028 -0.031,0.044 -0.009,0.015 -0.015,0.032 -0.02,0.049 -0.005,0.018 -0.007,0.037 -0.007,0.057 h -0.14 c 0,-0.032 0.003,-0.061 0.01,-0.088 0.007,-0.028 0.017,-0.054 0.03,-0.078 C 0.459,-0.331 0.474,-0.354 0.493,-0.376 0.511,-0.398 0.531,-0.419 0.554,-0.44 0.572,-0.457 0.587,-0.475 0.599,-0.494 0.61,-0.513 0.616,-0.535 0.616,-0.562 0.616,-0.581 0.612,-0.599 0.605,-0.616 0.597,-0.633 0.587,-0.648 0.575,-0.661 0.562,-0.673 0.547,-0.683 0.53,-0.691 0.513,-0.698 0.495,-0.702 0.476,-0.702 c -0.019,0 -0.038,0.004 -0.055,0.011 -0.017,0.007 -0.032,0.017 -0.045,0.03 -0.012,0.013 -0.022,0.027 -0.03,0.045 -0.007,0.017 -0.011,0.035 -0.011,0.054 h -0.14 c 0,-0.038 0.008,-0.074 0.023,-0.108 0.014,-0.035 0.034,-0.064 0.06,-0.09 0.025,-0.025 0.055,-0.045 0.089,-0.06 0.034,-0.015 0.07,-0.022 0.109,-0.022 z M 0.563,0.053 C 0.563,0.065 0.561,0.076 0.557,0.087 0.552,0.097 0.546,0.107 0.538,0.115 0.53,0.122 0.521,0.129 0.51,0.133 0.499,0.138 0.488,0.14 0.476,0.14 0.464,0.14 0.453,0.138 0.442,0.133 0.431,0.129 0.422,0.122 0.414,0.115 0.406,0.107 0.4,0.097 0.395,0.087 0.39,0.076 0.388,0.065 0.388,0.053 0.388,0.041 0.39,0.029 0.395,0.019 0.4,0.008 0.406,-0.002 0.414,-0.01 c 0.008,-0.007 0.017,-0.014 0.028,-0.018 0.01,-0.005 0.022,-0.007 0.034,-0.007 0.012,0 0.023,0.002 0.034,0.007 0.011,0.004 0.02,0.011 0.028,0.018 0.008,0.008 0.014,0.018 0.019,0.029 0.004,0.01 0.006,0.022 0.006,0.034 z"
         style="fill:#f2f2f2;fill-rule:nonzero"
         id="path19144" /></g></g></svg>
