<?xml version="1.0" encoding="UTF-8" standalone="no"?>
<svg
   width="8.4300003"
   height="16.844999"
   viewBox="0 0 8.4300003 16.844999"
   version="1.1"
   xml:space="preserve"
   style="clip-rule:evenodd;fill-rule:evenodd;stroke-linejoin:round;stroke-miterlimit:2"
   id="svg20568"
   sodipodi:docname="emojis.svg"
   xmlns:inkscape="http://www.inkscape.org/namespaces/inkscape"
   xmlns:sodipodi="http://sodipodi.sourceforge.net/DTD/sodipodi-0.dtd"
   xmlns="http://www.w3.org/2000/svg"
   xmlns:svg="http://www.w3.org/2000/svg"><defs
     id="defs20572" /><sodipodi:namedview
     id="namedview20570"
     pagecolor="#505050"
     bordercolor="#eeeeee"
     borderopacity="1"
     inkscape:pageshadow="0"
     inkscape:pageopacity="0"
     inkscape:pagecheckerboard="0" /><g
     transform="matrix(0.24,0,0,0.24,-237.89868,-975.561)"
     id="g20566"><g
       transform="matrix(62.5,0,0,62.5,983.432,4121.9)"
       id="g19180"><path
         d="M 0.265,0.21 V 0.103 C 0.244,0.09 0.224,0.075 0.207,0.057 0.189,0.04 0.175,0.021 0.163,0 0.151,-0.021 0.141,-0.044 0.135,-0.067 0.128,-0.091 0.125,-0.116 0.125,-0.141 V -0.21 H 0.348 C 0.33,-0.228 0.312,-0.246 0.294,-0.264 0.276,-0.282 0.258,-0.3 0.24,-0.318 0.233,-0.325 0.227,-0.331 0.22,-0.338 0.213,-0.344 0.206,-0.351 0.2,-0.359 0.175,-0.387 0.157,-0.418 0.144,-0.453 0.131,-0.489 0.125,-0.525 0.125,-0.562 c 0,-0.025 0.003,-0.049 0.01,-0.073 0.006,-0.024 0.016,-0.046 0.028,-0.067 0.012,-0.021 0.026,-0.04 0.044,-0.058 0.017,-0.017 0.037,-0.032 0.058,-0.045 v -0.108 h 0.281 v 0.108 c 0.021,0.013 0.041,0.028 0.058,0.045 0.018,0.018 0.032,0.037 0.045,0.058 0.012,0.021 0.021,0.043 0.028,0.067 0.006,0.024 0.01,0.048 0.01,0.073 v 0.071 H 0.464 l 0.111,0.111 c 0.016,0.016 0.031,0.034 0.045,0.052 0.014,0.018 0.026,0.037 0.035,0.057 0.01,0.02 0.018,0.041 0.023,0.063 0.006,0.021 0.009,0.044 0.009,0.067 0,0.025 -0.004,0.05 -0.01,0.074 C 0.67,-0.044 0.661,-0.021 0.649,0 0.636,0.021 0.622,0.04 0.604,0.057 0.587,0.075 0.567,0.09 0.546,0.103 V 0.21 Z"
         style="fill-rule:nonzero"
         id="path19176" /><path
         d="m 0.335,-0.562 c 0,0.011 0.002,0.02 0.004,0.028 0.002,0.008 0.005,0.015 0.01,0.022 0.004,0.006 0.009,0.013 0.015,0.019 0.005,0.006 0.011,0.012 0.018,0.019 l 0.143,0.143 c 0.013,0.013 0.025,0.027 0.037,0.041 0.011,0.015 0.02,0.03 0.028,0.046 0.008,0.015 0.015,0.032 0.019,0.049 0.005,0.017 0.007,0.035 0.007,0.054 0,0.023 -0.003,0.044 -0.01,0.065 C 0.599,-0.056 0.59,-0.037 0.577,-0.02 0.565,-0.002 0.55,0.013 0.533,0.026 0.516,0.04 0.497,0.05 0.476,0.058 V 0.14 H 0.335 V 0.058 C 0.315,0.05 0.296,0.04 0.278,0.027 0.261,0.013 0.246,-0.002 0.234,-0.019 0.222,-0.037 0.212,-0.056 0.206,-0.076 0.199,-0.097 0.195,-0.118 0.195,-0.141 h 0.14 c 0,0.01 0.002,0.019 0.006,0.028 0.004,0.008 0.009,0.016 0.015,0.022 0.007,0.006 0.014,0.011 0.022,0.015 0.009,0.004 0.018,0.006 0.028,0.006 0.01,0 0.019,-0.002 0.027,-0.006 C 0.442,-0.08 0.449,-0.085 0.455,-0.091 0.462,-0.097 0.467,-0.105 0.47,-0.113 0.474,-0.122 0.476,-0.131 0.476,-0.141 0.476,-0.149 0.475,-0.158 0.472,-0.166 0.469,-0.175 0.465,-0.183 0.46,-0.19 0.455,-0.198 0.45,-0.205 0.444,-0.212 0.438,-0.219 0.432,-0.226 0.426,-0.231 0.403,-0.255 0.381,-0.278 0.358,-0.301 0.335,-0.324 0.312,-0.347 0.288,-0.37 0.283,-0.375 0.277,-0.381 0.271,-0.386 0.266,-0.391 0.261,-0.396 0.255,-0.402 0.236,-0.424 0.221,-0.449 0.211,-0.476 0.2,-0.503 0.195,-0.532 0.195,-0.562 c 0,-0.022 0.004,-0.043 0.011,-0.064 0.006,-0.02 0.016,-0.039 0.028,-0.057 C 0.246,-0.7 0.261,-0.716 0.278,-0.729 0.296,-0.742 0.315,-0.752 0.335,-0.76 v -0.082 h 0.141 v 0.082 c 0.021,0.008 0.04,0.018 0.057,0.031 0.017,0.013 0.032,0.029 0.044,0.046 0.013,0.018 0.022,0.037 0.029,0.057 0.007,0.021 0.01,0.042 0.01,0.064 H 0.476 C 0.476,-0.571 0.474,-0.58 0.47,-0.589 0.467,-0.597 0.462,-0.605 0.455,-0.611 0.449,-0.617 0.442,-0.622 0.433,-0.626 0.425,-0.63 0.416,-0.632 0.406,-0.632 0.396,-0.632 0.387,-0.63 0.378,-0.626 0.37,-0.622 0.363,-0.617 0.356,-0.611 0.35,-0.605 0.345,-0.597 0.341,-0.589 0.337,-0.58 0.335,-0.571 0.335,-0.562 Z"
         style="fill:#16c60c;fill-rule:nonzero"
         id="path19178" /></g></g></svg>
