<?xml version="1.0" encoding="UTF-8" standalone="no"?>
<svg
   width="16.845001"
   height="16.845001"
   viewBox="0 0 16.845001 16.845001"
   version="1.1"
   xml:space="preserve"
   style="clip-rule:evenodd;fill-rule:evenodd;stroke-linejoin:round;stroke-miterlimit:2"
   id="svg20568"
   sodipodi:docname="emojis.svg"
   xmlns:inkscape="http://www.inkscape.org/namespaces/inkscape"
   xmlns:sodipodi="http://sodipodi.sourceforge.net/DTD/sodipodi-0.dtd"
   xmlns="http://www.w3.org/2000/svg"
   xmlns:svg="http://www.w3.org/2000/svg"><defs
     id="defs20572" /><sodipodi:namedview
     id="namedview20570"
     pagecolor="#505050"
     bordercolor="#eeeeee"
     borderopacity="1"
     inkscape:pageshadow="0"
     inkscape:pageopacity="0"
     inkscape:pagecheckerboard="0" /><g
     transform="matrix(0.24,0,0,0.24,-250.071,-975.561)"
     id="g20566"><g
       transform="matrix(62.5,0,0,62.5,1034.15,4121.9)"
       id="g19188"><rect
         x="0.125"
         y="-0.91299999"
         width="1.123"
         height="1.123"
         style="fill-rule:nonzero"
         id="rect19182" /><rect
         x="0.19499999"
         y="-0.84200001"
         width="0.98199999"
         height="0.98199999"
         style="fill:#886ce4;fill-rule:nonzero"
         id="rect19184" /><path
         d="m 0.625,-0.562 h 0.088 l -0.007,0.176 h 0.086 c 0.009,0 0.018,-0.004 0.024,-0.011 0.007,-0.007 0.011,-0.015 0.011,-0.024 0,-0.008 -0.002,-0.014 -0.005,-0.019 C 0.819,-0.445 0.815,-0.449 0.81,-0.451 0.805,-0.454 0.8,-0.455 0.793,-0.456 0.787,-0.457 0.78,-0.458 0.774,-0.458 l -0.03,0.001 0.003,-0.069 h 0.045 c 0.015,0 0.028,0.002 0.041,0.008 0.013,0.005 0.024,0.013 0.033,0.022 0.01,0.01 0.017,0.021 0.023,0.034 0.005,0.012 0.008,0.026 0.008,0.041 0,0.014 -0.003,0.028 -0.008,0.041 -0.006,0.012 -0.013,0.023 -0.023,0.033 -0.009,0.01 -0.02,0.017 -0.033,0.023 -0.013,0.005 -0.026,0.008 -0.041,0.008 H 0.581 c -0.009,0 -0.018,0.004 -0.025,0.011 -0.007,0.007 -0.01,0.015 -0.01,0.024 0,0.01 0.003,0.018 0.01,0.025 0.007,0.007 0.016,0.01 0.025,0.01 h 0.023 l 0.003,0.07 H 0.581 C 0.566,-0.176 0.553,-0.179 0.54,-0.184 0.527,-0.19 0.516,-0.197 0.507,-0.207 0.497,-0.216 0.49,-0.227 0.484,-0.24 0.479,-0.252 0.476,-0.266 0.476,-0.281 c 0,-0.014 0.003,-0.028 0.008,-0.041 0.006,-0.012 0.013,-0.024 0.023,-0.033 0.009,-0.01 0.02,-0.017 0.033,-0.023 0.013,-0.005 0.026,-0.008 0.041,-0.008 h 0.051 z m 0.36,-0.105 c 0.005,0 0.009,0.002 0.012,0.005 0.004,0.004 0.005,0.008 0.005,0.013 0,0.007 -0.002,0.012 -0.008,0.014 -0.005,0.003 -0.011,0.004 -0.017,0.004 L 0.964,-0.632 c 0.002,0.006 0.003,0.012 0.003,0.018 0,0.005 -0.001,0.009 -0.005,0.012 -0.003,0.004 -0.007,0.005 -0.012,0.005 -0.007,0 -0.011,-0.001 -0.013,-0.005 C 0.935,-0.606 0.933,-0.61 0.932,-0.614 0.931,-0.618 0.93,-0.622 0.927,-0.626 0.925,-0.63 0.921,-0.632 0.915,-0.632 H 0.905 C 0.895,-0.62 0.883,-0.612 0.87,-0.606 0.856,-0.6 0.842,-0.597 0.827,-0.597 H 0.511 c -0.01,0 -0.018,0.004 -0.025,0.011 -0.007,0.006 -0.01,0.015 -0.01,0.024 0,0.01 0.004,0.018 0.011,0.025 0.007,0.007 0.015,0.011 0.024,0.011 h 0.08 l 0.003,0.069 H 0.511 C 0.497,-0.457 0.483,-0.459 0.47,-0.465 0.458,-0.47 0.446,-0.478 0.437,-0.487 0.427,-0.497 0.42,-0.508 0.414,-0.521 0.409,-0.533 0.406,-0.547 0.406,-0.562 0.406,-0.576 0.409,-0.59 0.414,-0.603 0.42,-0.615 0.427,-0.626 0.437,-0.636 0.446,-0.646 0.458,-0.653 0.47,-0.659 0.483,-0.664 0.497,-0.667 0.511,-0.667 H 0.62 l -0.004,-0.07 h 0.106 l -0.004,0.07 h 0.074 c 0,-0.009 0.003,-0.018 0.01,-0.025 0.007,-0.007 0.015,-0.01 0.025,-0.01 h 0.105 c 0,0.011 -0.002,0.023 -0.006,0.035 z m -0.348,0.386 h 0.064 l -0.008,0.176 h 0.029 c 0.009,0 0.017,-0.004 0.024,-0.011 0.007,-0.007 0.011,-0.015 0.011,-0.025 0,-0.007 -0.003,-0.014 -0.007,-0.02 C 0.745,-0.167 0.738,-0.172 0.731,-0.174 l 0.003,-0.071 c 0.013,0.002 0.026,0.006 0.037,0.012 0.011,0.006 0.021,0.014 0.029,0.023 0.008,0.009 0.015,0.02 0.02,0.032 0.004,0.011 0.007,0.024 0.007,0.037 0,0.015 -0.003,0.028 -0.009,0.041 -0.005,0.013 -0.013,0.024 -0.022,0.034 -0.01,0.009 -0.021,0.017 -0.034,0.023 -0.012,0.005 -0.026,0.008 -0.04,0.008 H 0.546 c 0,-0.01 0.002,-0.019 0.006,-0.027 C 0.555,-0.071 0.56,-0.078 0.567,-0.085 0.573,-0.091 0.58,-0.096 0.589,-0.1 0.597,-0.104 0.606,-0.105 0.616,-0.105 H 0.645 Z M 0.65,0 H 0.688 L 0.687,0.035 H 0.651 Z"
         style="fill:#ffffff;fill-rule:nonzero"
         id="path19186" /></g></g></svg>
