<?xml version="1.0" encoding="UTF-8" standalone="no"?>
<svg
   width="16.844999"
   height="12.63"
   viewBox="0 0 16.844999 12.63"
   version="1.1"
   xml:space="preserve"
   style="clip-rule:evenodd;fill-rule:evenodd;stroke-linejoin:round;stroke-miterlimit:2"
   id="svg20568"
   sodipodi:docname="emojis.svg"
   xmlns:inkscape="http://www.inkscape.org/namespaces/inkscape"
   xmlns:sodipodi="http://sodipodi.sourceforge.net/DTD/sodipodi-0.dtd"
   xmlns="http://www.w3.org/2000/svg"
   xmlns:svg="http://www.w3.org/2000/svg"><defs
     id="defs20572" /><sodipodi:namedview
     id="namedview20570"
     pagecolor="#505050"
     bordercolor="#eeeeee"
     borderopacity="1"
     inkscape:pageshadow="0"
     inkscape:pageopacity="0"
     inkscape:pagecheckerboard="0" /><g
     transform="matrix(0.24,0,0,0.24,-530.4342,-977.151)"
     id="g20566"><g
       transform="matrix(62.5,0,0,62.5,2202.33,4121.9)"
       id="g19286"><path
         d="M 1.143,0.035 C 1.122,0.035 1.104,0.03 1.087,0.019 1.07,0.009 1.057,-0.006 1.048,-0.023 l -0.25,-0.501 -0.107,0.107 c -0.01,0.01 -0.021,0.017 -0.034,0.023 -0.013,0.005 -0.027,0.008 -0.041,0.008 -0.029,0 -0.053,-0.01 -0.074,-0.031 L 0.435,-0.524 0.324,-0.304 C 0.315,-0.286 0.302,-0.271 0.286,-0.261 0.269,-0.251 0.251,-0.246 0.23,-0.246 0.216,-0.246 0.202,-0.248 0.189,-0.254 0.177,-0.259 0.166,-0.267 0.156,-0.277 0.146,-0.286 0.139,-0.297 0.133,-0.31 0.128,-0.323 0.125,-0.336 0.125,-0.351 c 0,-0.016 0.004,-0.032 0.011,-0.047 l 0.176,-0.351 c 0.009,-0.019 0.022,-0.033 0.038,-0.043 0.016,-0.01 0.035,-0.015 0.056,-0.015 0.014,0 0.027,0.003 0.04,0.008 0.013,0.005 0.024,0.013 0.034,0.023 l 0.136,0.136 0.136,-0.136 c 0.01,-0.01 0.022,-0.018 0.035,-0.023 0.013,-0.005 0.026,-0.008 0.04,-0.008 0.02,0 0.038,0.005 0.055,0.015 0.017,0.011 0.03,0.025 0.039,0.043 l 0.316,0.632 c 0.007,0.015 0.011,0.03 0.011,0.047 0,0.014 -0.003,0.028 -0.008,0.041 C 1.234,-0.017 1.227,-0.005 1.217,0.004 1.207,0.014 1.196,0.021 1.184,0.027 1.171,0.032 1.157,0.035 1.143,0.035 Z"
         style="fill-rule:nonzero"
         id="path19282" /><path
         d="M 1.143,-0.035 C 1.136,-0.035 1.13,-0.037 1.124,-0.041 1.119,-0.044 1.114,-0.049 1.111,-0.055 L 0.817,-0.643 0.641,-0.467 c -0.007,0.007 -0.015,0.01 -0.025,0.01 -0.01,0 -0.018,-0.003 -0.025,-0.01 L 0.416,-0.643 0.262,-0.335 c -0.003,0.005 -0.008,0.01 -0.013,0.014 -0.006,0.003 -0.012,0.005 -0.019,0.005 -0.009,0 -0.018,-0.003 -0.024,-0.01 -0.007,-0.007 -0.011,-0.015 -0.011,-0.025 0,-0.006 0.001,-0.011 0.004,-0.016 l 0.176,-0.351 c 0.002,-0.006 0.007,-0.01 0.012,-0.014 0.006,-0.004 0.012,-0.005 0.019,-0.005 0.01,0 0.018,0.003 0.025,0.01 l 0.185,0.186 0.186,-0.186 c 0.007,-0.007 0.016,-0.01 0.026,-0.01 0.006,0 0.012,0.002 0.018,0.005 0.005,0.004 0.009,0.009 0.012,0.014 l 0.316,0.632 c 0.003,0.005 0.004,0.01 0.004,0.015 0,0.01 -0.004,0.018 -0.011,0.025 -0.006,0.007 -0.015,0.011 -0.024,0.011 z"
         style="fill:#fce100;fill-rule:nonzero"
         id="path19284" /></g></g></svg>
