<?xml version="1.0" encoding="UTF-8" standalone="no"?>
<svg
   width="15.795"
   height="14.64"
   viewBox="0 0 15.795 14.64"
   version="1.1"
   xml:space="preserve"
   style="clip-rule:evenodd;fill-rule:evenodd;stroke-linejoin:round;stroke-miterlimit:2"
   id="svg20568"
   sodipodi:docname="emojis.svg"
   xmlns:inkscape="http://www.inkscape.org/namespaces/inkscape"
   xmlns:sodipodi="http://sodipodi.sourceforge.net/DTD/sodipodi-0.dtd"
   xmlns="http://www.w3.org/2000/svg"
   xmlns:svg="http://www.w3.org/2000/svg"><defs
     id="defs20572" /><sodipodi:namedview
     id="namedview20570"
     pagecolor="#505050"
     bordercolor="#eeeeee"
     borderopacity="1"
     inkscape:pageshadow="0"
     inkscape:pageopacity="0"
     inkscape:pagecheckerboard="0" /><g
     transform="matrix(0.24,0,0,0.24,-330.7854,-977.151)"
     id="g20566"><g
       transform="matrix(62.5,0,0,62.5,1370.46,4121.9)"
       id="g19216"><path
         d="M 0.651,0.169 C 0.603,0.169 0.556,0.163 0.511,0.151 0.467,0.138 0.425,0.12 0.386,0.097 0.347,0.074 0.312,0.047 0.28,0.015 0.247,-0.017 0.22,-0.053 0.197,-0.092 0.174,-0.13 0.156,-0.172 0.144,-0.217 0.131,-0.262 0.125,-0.309 0.125,-0.357 c 0,-0.048 0.006,-0.093 0.018,-0.135 0.013,-0.042 0.03,-0.081 0.052,-0.118 0.022,-0.036 0.048,-0.071 0.079,-0.102 0.03,-0.032 0.064,-0.062 0.101,-0.091 l 0.136,0.136 0.14,-0.14 0.141,0.14 0.136,-0.136 c 0.037,0.029 0.07,0.059 0.101,0.091 0.03,0.031 0.057,0.066 0.079,0.102 0.022,0.037 0.039,0.076 0.051,0.118 0.013,0.042 0.019,0.087 0.019,0.135 0,0.049 -0.007,0.095 -0.019,0.14 C 1.146,-0.172 1.129,-0.13 1.106,-0.092 1.083,-0.053 1.055,-0.017 1.023,0.015 0.991,0.047 0.956,0.074 0.917,0.097 0.878,0.12 0.836,0.138 0.791,0.151 0.746,0.163 0.7,0.169 0.651,0.169 Z"
         style="fill-rule:nonzero"
         id="path19210" /><path
         d="m 0.932,-0.708 c 0.026,0.022 0.05,0.046 0.072,0.073 0.021,0.026 0.04,0.054 0.055,0.083 0.016,0.03 0.028,0.061 0.036,0.094 0.008,0.032 0.012,0.066 0.012,0.101 0,0.042 -0.005,0.083 -0.016,0.121 C 1.08,-0.197 1.065,-0.16 1.045,-0.127 1.025,-0.093 1.002,-0.062 0.974,-0.034 0.946,-0.007 0.915,0.017 0.882,0.037 0.848,0.057 0.812,0.072 0.773,0.083 0.734,0.094 0.693,0.099 0.651,0.099 0.609,0.099 0.569,0.094 0.53,0.083 0.491,0.072 0.455,0.057 0.421,0.037 0.387,0.017 0.357,-0.007 0.329,-0.034 0.301,-0.062 0.277,-0.093 0.258,-0.127 0.238,-0.16 0.223,-0.197 0.212,-0.236 0.201,-0.274 0.195,-0.315 0.195,-0.357 c 0,-0.035 0.004,-0.069 0.013,-0.101 0.008,-0.033 0.02,-0.064 0.035,-0.094 0.016,-0.029 0.034,-0.057 0.056,-0.083 0.021,-0.027 0.045,-0.051 0.072,-0.073 l 0.14,0.14 0.14,-0.14 0.141,0.14 z"
         style="fill:#f03a17;fill-rule:nonzero"
         id="path19212" /><path
         d="M 0.932,-0.146 H 0.371 C 0.361,-0.146 0.353,-0.15 0.346,-0.157 0.339,-0.164 0.335,-0.172 0.335,-0.182 v -0.21 c 0,-0.01 0.004,-0.018 0.011,-0.025 0.007,-0.007 0.015,-0.01 0.025,-0.01 h 0.561 c 0.01,0 0.018,0.003 0.025,0.01 0.007,0.007 0.01,0.015 0.01,0.025 v 0.21 c 0,0.01 -0.003,0.018 -0.01,0.025 -0.007,0.007 -0.015,0.011 -0.025,0.011 z"
         style="fill:#f2f2f2;fill-rule:nonzero"
         id="path19214" /></g></g></svg>
