<?xml version="1.0" encoding="UTF-8" standalone="no"?>
<svg
   width="16.665001"
   height="16.440001"
   viewBox="0 0 16.665001 16.440001"
   version="1.1"
   xml:space="preserve"
   style="clip-rule:evenodd;fill-rule:evenodd;stroke-linejoin:round;stroke-miterlimit:2"
   id="svg20568"
   sodipodi:docname="emojis.svg"
   xmlns:inkscape="http://www.inkscape.org/namespaces/inkscape"
   xmlns:sodipodi="http://sodipodi.sourceforge.net/DTD/sodipodi-0.dtd"
   xmlns="http://www.w3.org/2000/svg"
   xmlns:svg="http://www.w3.org/2000/svg"><defs
     id="defs20572" /><sodipodi:namedview
     id="namedview20570"
     pagecolor="#505050"
     bordercolor="#eeeeee"
     borderopacity="1"
     inkscape:pageshadow="0"
     inkscape:pageopacity="0"
     inkscape:pagecheckerboard="0" /><g
     transform="matrix(0.24,0,0,0.24,-310.2786,-975.966)"
     id="g20566"><g
       transform="matrix(62.5,0,0,62.5,1284.64,4121.9)"
       id="g19208"><path
         d="m 1.002,-0.746 0.24,0.24 -0.149,0.149 -0.005,-0.005 C 1.077,-0.328 1.062,-0.296 1.043,-0.266 1.024,-0.236 1.001,-0.209 0.976,-0.185 0.951,-0.16 0.922,-0.14 0.891,-0.123 0.86,-0.105 0.827,-0.092 0.792,-0.083 V 0.21 H 0.581 V -0.083 C 0.546,-0.092 0.513,-0.105 0.482,-0.123 0.451,-0.14 0.422,-0.16 0.397,-0.185 0.372,-0.209 0.349,-0.236 0.33,-0.266 0.311,-0.296 0.296,-0.328 0.285,-0.362 l -0.005,0.005 -0.149,-0.149 0.24,-0.24 0.087,0.088 0.229,-0.228 0.228,0.228 z"
         style="fill-rule:nonzero"
         id="path19204" /><path
         d="m 1.143,-0.506 -0.05,0.049 -0.055,-0.055 v 0.021 c 0,0.03 -0.004,0.059 -0.011,0.087 C 1.019,-0.376 1.009,-0.35 0.995,-0.325 0.982,-0.3 0.966,-0.277 0.947,-0.256 0.927,-0.235 0.906,-0.216 0.883,-0.2 0.86,-0.185 0.834,-0.172 0.807,-0.162 0.78,-0.152 0.751,-0.145 0.722,-0.142 V 0.14 H 0.651 V -0.142 C 0.621,-0.145 0.593,-0.152 0.566,-0.162 0.538,-0.172 0.513,-0.185 0.49,-0.2 0.467,-0.216 0.446,-0.235 0.427,-0.256 0.407,-0.277 0.391,-0.3 0.378,-0.325 0.364,-0.35 0.354,-0.376 0.346,-0.404 0.339,-0.432 0.335,-0.461 0.335,-0.491 v -0.021 l -0.055,0.055 -0.05,-0.049 0.141,-0.14 0.14,0.14 -0.05,0.049 -0.055,-0.055 v 0.021 c 0,0.035 0.006,0.068 0.019,0.1 0.012,0.032 0.029,0.06 0.051,0.085 0.022,0.025 0.048,0.046 0.078,0.062 0.03,0.017 0.063,0.027 0.097,0.031 v -0.439 l -0.055,0.055 -0.05,-0.049 0.141,-0.141 0.14,0.141 -0.05,0.049 -0.055,-0.055 v 0.439 c 0.035,-0.004 0.067,-0.014 0.097,-0.031 0.03,-0.016 0.056,-0.037 0.078,-0.062 0.022,-0.025 0.039,-0.053 0.051,-0.085 0.013,-0.032 0.019,-0.065 0.019,-0.1 v -0.021 l -0.055,0.055 -0.05,-0.049 0.14,-0.14 z"
         style="fill:#ffb900;fill-rule:nonzero"
         id="path19206" /></g></g></svg>
