<?xml version="1.0" encoding="UTF-8" standalone="no"?>
<svg
   width="16.844999"
   height="16.844999"
   viewBox="0 0 16.844999 16.844999"
   version="1.1"
   xml:space="preserve"
   style="clip-rule:evenodd;fill-rule:evenodd;stroke-linejoin:round;stroke-miterlimit:2"
   id="svg20568"
   sodipodi:docname="emojis.svg"
   xmlns:inkscape="http://www.inkscape.org/namespaces/inkscape"
   xmlns:sodipodi="http://sodipodi.sourceforge.net/DTD/sodipodi-0.dtd"
   xmlns="http://www.w3.org/2000/svg"
   xmlns:svg="http://www.w3.org/2000/svg"><defs
     id="defs20572" /><sodipodi:namedview
     id="namedview20570"
     pagecolor="#505050"
     bordercolor="#eeeeee"
     borderopacity="1"
     inkscape:pageshadow="0"
     inkscape:pageopacity="0"
     inkscape:pagecheckerboard="0" /><g
     transform="matrix(0.24,0,0,0.24,-365.6694,-975.561)"
     id="g20566"><g
       transform="matrix(62.5,0,0,62.5,1515.81,4121.9)"
       id="g19230"><path
         d="m 0.687,-0.913 c 0.051,0 0.101,0.007 0.149,0.02 0.048,0.014 0.092,0.033 0.134,0.057 0.041,0.024 0.079,0.054 0.113,0.088 0.035,0.034 0.064,0.072 0.088,0.113 0.025,0.042 0.044,0.087 0.057,0.135 0.013,0.047 0.02,0.097 0.02,0.149 0,0.052 -0.007,0.101 -0.02,0.149 C 1.215,-0.154 1.196,-0.109 1.171,-0.068 1.147,-0.026 1.118,0.012 1.083,0.046 1.049,0.08 1.011,0.109 0.97,0.134 0.928,0.158 0.884,0.177 0.836,0.19 0.788,0.204 0.738,0.21 0.687,0.21 0.635,0.21 0.585,0.204 0.537,0.19 0.489,0.177 0.445,0.158 0.403,0.134 0.362,0.109 0.324,0.08 0.29,0.046 0.255,0.012 0.226,-0.026 0.202,-0.068 0.177,-0.109 0.158,-0.154 0.145,-0.202 0.132,-0.25 0.125,-0.299 0.125,-0.351 c 0,-0.052 0.007,-0.102 0.02,-0.149 0.013,-0.048 0.032,-0.093 0.057,-0.135 0.024,-0.041 0.053,-0.079 0.088,-0.113 0.034,-0.034 0.072,-0.064 0.113,-0.088 0.042,-0.024 0.086,-0.043 0.134,-0.057 0.048,-0.013 0.098,-0.02 0.15,-0.02 z m 0,0.843 c 0.038,0 0.075,-0.008 0.109,-0.022 0.034,-0.015 0.064,-0.035 0.089,-0.06 0.026,-0.026 0.046,-0.056 0.06,-0.09 C 0.96,-0.276 0.967,-0.312 0.967,-0.351 0.967,-0.39 0.96,-0.426 0.945,-0.46 0.931,-0.495 0.911,-0.524 0.885,-0.55 0.86,-0.575 0.83,-0.595 0.796,-0.61 0.762,-0.625 0.725,-0.632 0.687,-0.632 c -0.039,0 -0.076,0.007 -0.11,0.022 -0.034,0.015 -0.064,0.035 -0.089,0.06 -0.026,0.026 -0.046,0.055 -0.06,0.09 -0.015,0.034 -0.022,0.07 -0.022,0.109 0,0.039 0.007,0.075 0.022,0.109 0.014,0.034 0.034,0.064 0.06,0.09 0.025,0.025 0.055,0.045 0.089,0.06 0.034,0.014 0.071,0.022 0.11,0.022 z"
         style="fill-rule:nonzero"
         id="path19226" /><path
         d="m 0.687,-0.842 c 0.045,0 0.088,0.006 0.13,0.017 0.042,0.012 0.081,0.029 0.118,0.05 0.036,0.021 0.069,0.047 0.099,0.077 0.03,0.029 0.055,0.062 0.077,0.099 0.021,0.036 0.037,0.075 0.049,0.117 0.012,0.042 0.018,0.086 0.018,0.131 0,0.045 -0.006,0.089 -0.018,0.131 -0.012,0.041 -0.028,0.081 -0.049,0.117 -0.022,0.036 -0.047,0.07 -0.077,0.099 C 1.004,0.026 0.971,0.052 0.935,0.073 0.898,0.094 0.859,0.111 0.817,0.123 0.775,0.134 0.732,0.14 0.687,0.14 0.641,0.14 0.598,0.134 0.556,0.123 0.514,0.111 0.475,0.094 0.438,0.073 0.402,0.052 0.369,0.026 0.339,-0.004 0.309,-0.033 0.284,-0.067 0.262,-0.103 0.241,-0.139 0.225,-0.179 0.213,-0.22 0.201,-0.262 0.195,-0.306 0.195,-0.351 c 0,-0.045 0.006,-0.089 0.018,-0.131 0.012,-0.042 0.028,-0.081 0.049,-0.117 0.022,-0.037 0.047,-0.07 0.077,-0.099 0.03,-0.03 0.063,-0.056 0.099,-0.077 0.037,-0.021 0.076,-0.038 0.118,-0.05 0.042,-0.011 0.085,-0.017 0.131,-0.017 z M 0.687,0 C 0.719,0 0.75,-0.004 0.78,-0.012 0.81,-0.021 0.838,-0.033 0.864,-0.048 0.89,-0.063 0.913,-0.081 0.935,-0.103 0.956,-0.124 0.974,-0.148 0.99,-0.174 1.005,-0.2 1.017,-0.228 1.025,-0.258 1.033,-0.288 1.038,-0.319 1.038,-0.351 1.038,-0.383 1.033,-0.414 1.025,-0.444 1.017,-0.474 1.005,-0.502 0.99,-0.528 0.974,-0.554 0.956,-0.578 0.935,-0.599 0.913,-0.621 0.89,-0.639 0.864,-0.654 0.838,-0.67 0.81,-0.681 0.78,-0.69 0.75,-0.698 0.719,-0.702 0.687,-0.702 c -0.033,0 -0.064,0.004 -0.094,0.012 -0.03,0.009 -0.058,0.02 -0.084,0.036 -0.026,0.015 -0.049,0.033 -0.071,0.055 -0.021,0.021 -0.039,0.045 -0.055,0.071 -0.015,0.026 -0.027,0.054 -0.035,0.084 -0.008,0.03 -0.013,0.061 -0.013,0.093 0,0.032 0.005,0.063 0.013,0.093 0.008,0.03 0.02,0.058 0.035,0.084 0.016,0.026 0.034,0.05 0.055,0.071 0.022,0.022 0.045,0.04 0.071,0.055 0.026,0.015 0.054,0.027 0.084,0.036 C 0.623,-0.004 0.654,0 0.687,0 Z"
         style="fill:#f03a17;fill-rule:nonzero"
         id="path19228" /></g></g></svg>
