<?xml version="1.0" encoding="UTF-8" standalone="no"?>
<svg
   width="16.74"
   height="16.844999"
   viewBox="0 0 16.74 16.844999"
   version="1.1"
   xml:space="preserve"
   style="clip-rule:evenodd;fill-rule:evenodd;stroke-linejoin:round;stroke-miterlimit:2"
   id="svg20568"
   sodipodi:docname="emojis.svg"
   xmlns:inkscape="http://www.inkscape.org/namespaces/inkscape"
   xmlns:sodipodi="http://sodipodi.sourceforge.net/DTD/sodipodi-0.dtd"
   xmlns="http://www.w3.org/2000/svg"
   xmlns:svg="http://www.w3.org/2000/svg"><defs
     id="defs20572" /><sodipodi:namedview
     id="namedview20570"
     pagecolor="#505050"
     bordercolor="#eeeeee"
     borderopacity="1"
     inkscape:pageshadow="0"
     inkscape:pageopacity="0"
     inkscape:pagecheckerboard="0" /><g
     transform="matrix(0.24,0,0,0.24,-289.6878,-975.561)"
     id="g20566"><g
       transform="matrix(62.5,0,0,62.5,1199.22,4121.9)"
       id="g19202"><path
         d="M 0.55,0.036 C 0.538,0.04 0.525,0.044 0.513,0.046 0.5,0.049 0.487,0.05 0.474,0.05 0.45,0.05 0.427,0.046 0.406,0.037 0.385,0.028 0.366,0.015 0.35,-0.001 0.335,-0.017 0.322,-0.035 0.313,-0.057 0.304,-0.078 0.299,-0.1 0.299,-0.125 c 0,-0.025 0.007,-0.049 0.02,-0.071 -0.003,0.001 -0.006,0.001 -0.009,0.002 -0.004,0 -0.007,0 -0.011,0 -0.024,0 -0.046,-0.004 -0.068,-0.014 C 0.21,-0.217 0.192,-0.229 0.176,-0.245 0.16,-0.261 0.148,-0.28 0.139,-0.301 0.13,-0.322 0.125,-0.345 0.125,-0.369 c 0,-0.029 0.006,-0.056 0.017,-0.081 0.011,-0.026 0.026,-0.048 0.045,-0.067 0.018,-0.018 0.041,-0.033 0.066,-0.044 0.025,-0.011 0.053,-0.017 0.081,-0.017 0.049,0 0.095,0.01 0.14,0.029 0,-0.033 0.004,-0.065 0.012,-0.095 0.008,-0.03 0.019,-0.059 0.033,-0.086 0.014,-0.028 0.032,-0.054 0.052,-0.078 0.02,-0.024 0.043,-0.047 0.068,-0.067 l 0.044,-0.038 0.045,0.038 c 0.024,0.02 0.047,0.043 0.067,0.067 0.02,0.025 0.037,0.051 0.051,0.078 0.015,0.027 0.026,0.056 0.034,0.086 0.008,0.031 0.012,0.062 0.013,0.095 0.044,-0.019 0.09,-0.029 0.139,-0.029 0.028,0 0.055,0.006 0.081,0.017 0.026,0.011 0.048,0.026 0.067,0.044 0.019,0.019 0.034,0.041 0.045,0.067 0.011,0.025 0.016,0.052 0.016,0.081 0,0.024 -0.004,0.047 -0.013,0.068 -0.01,0.021 -0.022,0.04 -0.038,0.056 -0.016,0.016 -0.034,0.028 -0.055,0.037 -0.021,0.01 -0.044,0.014 -0.068,0.014 -0.004,0 -0.007,0 -0.01,0 -0.004,-0.001 -0.007,-0.001 -0.01,-0.002 0.013,0.022 0.02,0.046 0.02,0.071 0,0.025 -0.005,0.047 -0.014,0.068 -0.009,0.022 -0.021,0.04 -0.037,0.056 C 1,0.015 0.982,0.028 0.96,0.037 0.939,0.046 0.917,0.05 0.893,0.05 0.879,0.05 0.866,0.049 0.854,0.046 0.841,0.044 0.828,0.04 0.816,0.036 0.811,0.056 0.805,0.073 0.797,0.089 0.789,0.104 0.779,0.118 0.768,0.132 0.757,0.145 0.745,0.157 0.732,0.169 0.719,0.181 0.705,0.193 0.69,0.205 L 0.683,0.21 0.676,0.205 C 0.661,0.193 0.647,0.181 0.634,0.169 0.621,0.157 0.609,0.145 0.598,0.132 0.587,0.118 0.577,0.104 0.569,0.089 0.561,0.073 0.555,0.056 0.55,0.036 Z"
         style="fill-rule:nonzero"
         id="path19198" /><path
         d="m 0.613,-0.229 c 0.01,0 0.018,-0.003 0.025,-0.01 0.007,-0.007 0.01,-0.015 0.01,-0.025 V -0.333 C 0.648,-0.346 0.646,-0.357 0.641,-0.367 0.635,-0.377 0.629,-0.386 0.621,-0.395 0.613,-0.403 0.605,-0.412 0.596,-0.421 0.587,-0.43 0.579,-0.44 0.571,-0.451 0.563,-0.463 0.556,-0.476 0.551,-0.49 0.546,-0.505 0.543,-0.523 0.543,-0.543 c 0,-0.028 0.004,-0.054 0.01,-0.081 0.007,-0.026 0.017,-0.05 0.029,-0.074 0.012,-0.024 0.027,-0.046 0.044,-0.067 0.017,-0.02 0.036,-0.04 0.057,-0.057 0.021,0.017 0.04,0.037 0.057,0.057 0.018,0.021 0.032,0.043 0.044,0.067 0.013,0.024 0.022,0.048 0.029,0.074 0.006,0.027 0.01,0.053 0.01,0.081 0,0.02 -0.003,0.038 -0.008,0.053 -0.005,0.014 -0.012,0.027 -0.02,0.039 -0.007,0.011 -0.016,0.021 -0.025,0.03 -0.009,0.009 -0.017,0.018 -0.025,0.026 -0.008,0.009 -0.014,0.018 -0.019,0.028 -0.006,0.01 -0.008,0.021 -0.008,0.034 v 0.069 c 0,0.01 0.003,0.018 0.01,0.025 0.007,0.007 0.015,0.01 0.025,0.01 0,-0.038 0.007,-0.075 0.022,-0.108 0.015,-0.034 0.034,-0.064 0.06,-0.089 0.025,-0.025 0.054,-0.045 0.088,-0.06 0.034,-0.014 0.07,-0.022 0.109,-0.022 0.019,0 0.037,0.004 0.054,0.011 0.017,0.007 0.032,0.017 0.044,0.03 0.013,0.012 0.023,0.027 0.03,0.044 0.008,0.017 0.011,0.035 0.011,0.054 0,0.015 -0.002,0.028 -0.008,0.041 -0.005,0.013 -0.013,0.024 -0.022,0.033 -0.01,0.01 -0.021,0.017 -0.034,0.023 -0.012,0.006 -0.026,0.008 -0.04,0.008 -0.01,0 -0.018,-0.003 -0.025,-0.01 -0.007,-0.007 -0.01,-0.015 -0.01,-0.025 0.009,0 0.017,-0.003 0.024,-0.01 0.007,-0.007 0.011,-0.015 0.011,-0.024 0,-0.01 -0.002,-0.019 -0.005,-0.028 C 1.058,-0.369 1.053,-0.377 1.047,-0.383 1.04,-0.389 1.033,-0.394 1.024,-0.398 1.016,-0.402 1.007,-0.403 0.997,-0.403 c -0.024,0 -0.047,0.004 -0.068,0.013 -0.021,0.009 -0.039,0.022 -0.055,0.038 -0.016,0.015 -0.028,0.034 -0.038,0.055 -0.009,0.021 -0.013,0.044 -0.013,0.068 0.009,0 0.017,0.003 0.024,0.01 0.007,0.007 0.01,0.016 0.01,0.025 0,0.01 -0.003,0.018 -0.01,0.025 -0.007,0.006 -0.015,0.01 -0.024,0.01 0,0.009 0.003,0.017 0.01,0.024 0.007,0.007 0.015,0.01 0.024,0.01 0.01,0 0.019,-0.001 0.027,-0.005 0.009,-0.004 0.016,-0.009 0.022,-0.015 0.007,-0.007 0.012,-0.014 0.016,-0.022 0.003,-0.009 0.005,-0.017 0.005,-0.027 0.01,0 0.019,0.002 0.028,0.006 0.008,0.003 0.015,0.008 0.022,0.014 0.006,0.006 0.011,0.014 0.015,0.022 0.003,0.009 0.005,0.018 0.005,0.027 0,0.015 -0.003,0.028 -0.008,0.041 -0.006,0.013 -0.013,0.024 -0.023,0.033 -0.009,0.01 -0.02,0.018 -0.033,0.023 C 0.92,-0.022 0.907,-0.02 0.893,-0.02 0.873,-0.02 0.855,-0.023 0.838,-0.031 0.821,-0.038 0.807,-0.048 0.794,-0.061 0.781,-0.073 0.771,-0.088 0.764,-0.105 0.757,-0.122 0.753,-0.14 0.753,-0.159 c -0.008,0 -0.014,0.001 -0.019,0.004 -0.005,0.003 -0.008,0.007 -0.011,0.011 -0.002,0.005 -0.004,0.01 -0.004,0.016 -0.001,0.006 -0.002,0.012 -0.002,0.019 v 0.01 c 0,0.003 0,0.006 0.001,0.01 0,0.009 0.002,0.016 0.006,0.021 0.004,0.005 0.008,0.01 0.012,0.015 0.004,0.004 0.008,0.009 0.012,0.013 0.003,0.005 0.005,0.012 0.005,0.02 0,0.028 -0.006,0.054 -0.019,0.078 C 0.721,0.081 0.704,0.102 0.683,0.12 0.662,0.102 0.645,0.081 0.632,0.058 0.62,0.034 0.613,0.008 0.613,-0.02 c 0,-0.008 0.002,-0.015 0.006,-0.02 0.003,-0.005 0.007,-0.01 0.012,-0.014 0.004,-0.005 0.008,-0.01 0.012,-0.015 0.004,-0.005 0.005,-0.012 0.005,-0.02 v -0.036 c 0,-0.009 -0.003,-0.017 -0.01,-0.024 -0.007,-0.007 -0.015,-0.01 -0.025,-0.01 0,0.019 -0.003,0.037 -0.011,0.054 -0.007,0.017 -0.017,0.032 -0.03,0.044 C 0.56,-0.048 0.545,-0.038 0.528,-0.031 0.511,-0.023 0.493,-0.02 0.474,-0.02 0.459,-0.02 0.446,-0.022 0.433,-0.028 0.42,-0.033 0.409,-0.041 0.4,-0.051 0.39,-0.06 0.383,-0.071 0.377,-0.084 0.372,-0.097 0.369,-0.11 0.369,-0.125 c 0,-0.009 0.002,-0.018 0.006,-0.027 0.003,-0.008 0.008,-0.016 0.014,-0.022 0.007,-0.006 0.014,-0.011 0.023,-0.014 0.008,-0.004 0.017,-0.006 0.027,-0.006 0,0.01 0.002,0.018 0.006,0.027 0.003,0.008 0.008,0.015 0.015,0.022 0.006,0.006 0.013,0.011 0.022,0.015 0.008,0.004 0.017,0.005 0.027,0.005 0.009,0 0.017,-0.003 0.024,-0.01 0.007,-0.007 0.01,-0.015 0.01,-0.024 -0.009,0 -0.017,-0.004 -0.024,-0.01 -0.007,-0.007 -0.01,-0.015 -0.01,-0.025 0,-0.009 0.003,-0.018 0.01,-0.025 0.007,-0.007 0.015,-0.01 0.024,-0.01 0,-0.024 -0.004,-0.047 -0.013,-0.068 C 0.521,-0.318 0.508,-0.337 0.492,-0.352 0.477,-0.368 0.458,-0.381 0.437,-0.39 0.416,-0.399 0.393,-0.403 0.369,-0.403 c -0.01,0 -0.019,0.001 -0.027,0.005 -0.009,0.004 -0.016,0.009 -0.022,0.015 -0.007,0.006 -0.012,0.014 -0.015,0.022 -0.004,0.009 -0.006,0.018 -0.006,0.028 0,0.009 0.004,0.017 0.011,0.024 0.007,0.007 0.015,0.01 0.024,0.01 0,0.01 -0.003,0.018 -0.01,0.025 -0.007,0.007 -0.015,0.01 -0.025,0.01 -0.014,0 -0.028,-0.002 -0.04,-0.008 C 0.246,-0.278 0.235,-0.285 0.226,-0.295 0.216,-0.304 0.209,-0.315 0.203,-0.328 0.198,-0.341 0.195,-0.354 0.195,-0.369 c 0,-0.019 0.003,-0.037 0.011,-0.054 0.007,-0.017 0.017,-0.032 0.03,-0.044 0.013,-0.013 0.027,-0.023 0.044,-0.03 0.017,-0.007 0.035,-0.011 0.054,-0.011 0.026,0 0.051,0.004 0.075,0.01 0.023,0.007 0.046,0.016 0.066,0.028 0.021,0.012 0.04,0.027 0.057,0.044 0.017,0.017 0.031,0.035 0.043,0.056 0.012,0.021 0.022,0.043 0.028,0.067 0.007,0.024 0.01,0.048 0.01,0.074 z"
         style="fill:#ffb900;fill-rule:nonzero"
         id="path19200" /></g></g></svg>
