<?xml version="1.0" encoding="UTF-8" standalone="no"?>
<svg
   width="16.845001"
   height="16.845001"
   viewBox="0 0 16.845001 16.845001"
   version="1.1"
   xml:space="preserve"
   style="clip-rule:evenodd;fill-rule:evenodd;stroke-linejoin:round;stroke-miterlimit:2"
   id="svg20568"
   sodipodi:docname="emojis.svg"
   xmlns:inkscape="http://www.inkscape.org/namespaces/inkscape"
   xmlns:sodipodi="http://sodipodi.sourceforge.net/DTD/sodipodi-0.dtd"
   xmlns="http://www.w3.org/2000/svg"
   xmlns:svg="http://www.w3.org/2000/svg"><defs
     id="defs20572" /><sodipodi:namedview
     id="namedview20570"
     pagecolor="#505050"
     bordercolor="#eeeeee"
     borderopacity="1"
     inkscape:pageshadow="0"
     inkscape:pageopacity="0"
     inkscape:pagecheckerboard="0" /><g
     transform="matrix(0.24,0,0,0.24,-160.8258,-992.5314)"
     id="g20566"><g
       transform="matrix(62.5,0,0,62.5,662.295,4192.61)"
       id="g19378"><rect
         x="0.125"
         y="-0.91299999"
         width="1.123"
         height="1.123"
         style="fill-rule:nonzero"
         id="rect19372" /><rect
         x="0.19499999"
         y="-0.84200001"
         width="0.98199999"
         height="0.98199999"
         style="fill:#0078d7;fill-rule:nonzero"
         id="rect19374" /><path
         d="M 0.819,-0.104 C 0.797,-0.104 0.777,-0.108 0.761,-0.115 0.744,-0.122 0.73,-0.132 0.718,-0.144 0.706,-0.156 0.696,-0.17 0.688,-0.186 0.68,-0.202 0.674,-0.219 0.669,-0.237 0.664,-0.256 0.661,-0.274 0.659,-0.293 0.658,-0.312 0.657,-0.33 0.657,-0.348 c 0,-0.019 0.001,-0.039 0.002,-0.06 0.002,-0.021 0.006,-0.041 0.01,-0.06 0.005,-0.02 0.012,-0.038 0.02,-0.056 0.009,-0.017 0.019,-0.032 0.032,-0.045 0.013,-0.013 0.028,-0.024 0.046,-0.031 0.018,-0.008 0.04,-0.012 0.064,-0.012 0.023,0 0.043,0.004 0.06,0.011 0.017,0.007 0.032,0.018 0.044,0.03 0.012,0.013 0.022,0.028 0.029,0.044 0.008,0.017 0.014,0.034 0.018,0.053 0.004,0.019 0.007,0.038 0.009,0.057 0.001,0.02 0.002,0.039 0.002,0.057 0,0.019 -0.001,0.038 -0.003,0.058 -0.002,0.021 -0.006,0.04 -0.011,0.059 -0.005,0.019 -0.012,0.037 -0.02,0.054 -0.008,0.017 -0.019,0.031 -0.032,0.044 -0.013,0.013 -0.028,0.023 -0.046,0.03 -0.018,0.007 -0.038,0.011 -0.062,0.011 z m 0.008,-0.444 c -0.014,0 -0.026,0.003 -0.036,0.01 -0.01,0.007 -0.018,0.016 -0.025,0.027 -0.007,0.011 -0.012,0.024 -0.016,0.038 -0.003,0.015 -0.006,0.029 -0.008,0.044 -0.002,0.014 -0.003,0.028 -0.003,0.042 -0.001,0.013 -0.001,0.025 -0.001,0.035 0,0.011 0,0.022 0.001,0.035 0,0.013 0.001,0.026 0.003,0.04 0.002,0.013 0.005,0.027 0.008,0.04 0.004,0.013 0.009,0.025 0.016,0.035 0.006,0.011 0.014,0.019 0.024,0.025 0.01,0.007 0.022,0.01 0.036,0.01 0.013,0 0.025,-0.003 0.035,-0.01 0.009,-0.006 0.017,-0.015 0.024,-0.026 0.006,-0.01 0.011,-0.023 0.015,-0.036 0.003,-0.014 0.006,-0.027 0.008,-0.041 0.002,-0.014 0.003,-0.027 0.003,-0.04 0.001,-0.013 0.001,-0.025 0.001,-0.034 0,-0.01 0,-0.021 -0.001,-0.035 C 0.911,-0.402 0.91,-0.416 0.908,-0.43 0.907,-0.444 0.904,-0.459 0.9,-0.473 0.897,-0.487 0.892,-0.5 0.885,-0.511 0.879,-0.522 0.871,-0.531 0.862,-0.538 0.852,-0.545 0.841,-0.548 0.827,-0.548 Z M 0.564,-0.615 v 0.503 H 0.485 V -0.518 C 0.469,-0.506 0.453,-0.497 0.435,-0.49 0.418,-0.483 0.4,-0.477 0.381,-0.472 V -0.54 c 0.027,-0.009 0.053,-0.019 0.078,-0.032 0.025,-0.012 0.049,-0.026 0.072,-0.043 z"
         style="fill:#ffffff;fill-rule:nonzero"
         id="path19376" /></g></g></svg>
