<?xml version="1.0" encoding="UTF-8" standalone="no"?>
<svg
   width="16.845001"
   height="16.845001"
   viewBox="0 0 16.845001 16.845001"
   version="1.1"
   xml:space="preserve"
   style="clip-rule:evenodd;fill-rule:evenodd;stroke-linejoin:round;stroke-miterlimit:2"
   id="svg20568"
   sodipodi:docname="emojis.svg"
   xmlns:inkscape="http://www.inkscape.org/namespaces/inkscape"
   xmlns:sodipodi="http://sodipodi.sourceforge.net/DTD/sodipodi-0.dtd"
   xmlns="http://www.w3.org/2000/svg"
   xmlns:svg="http://www.w3.org/2000/svg"><defs
     id="defs20572" /><sodipodi:namedview
     id="namedview20570"
     pagecolor="#505050"
     bordercolor="#eeeeee"
     borderopacity="1"
     inkscape:pageshadow="0"
     inkscape:pageopacity="0"
     inkscape:pagecheckerboard="0" /><g
     transform="matrix(0.24,0,0,0.24,-592.2222,-975.561)"
     id="g20566"><g
       transform="matrix(62.5,0,0,62.5,2459.78,4121.9)"
       id="g19310"><rect
         x="0.125"
         y="-0.91299999"
         width="1.123"
         height="1.123"
         style="fill-rule:nonzero"
         id="rect19304" /><rect
         x="0.19499999"
         y="-0.84200001"
         width="0.98199999"
         height="0.98199999"
         style="fill:#16c60c;fill-rule:nonzero"
         id="rect19306" /><path
         d="m 0.687,-0.421 c 0.009,0 0.018,0.001 0.027,0.005 0.008,0.004 0.016,0.009 0.022,0.015 0.006,0.007 0.011,0.014 0.015,0.023 0.004,0.008 0.006,0.017 0.006,0.027 0,0.01 -0.002,0.019 -0.006,0.027 -0.004,0.009 -0.009,0.016 -0.015,0.022 -0.006,0.007 -0.014,0.012 -0.022,0.016 -0.009,0.003 -0.018,0.005 -0.027,0.005 -0.01,0 -0.019,-0.002 -0.028,-0.005 C 0.651,-0.29 0.643,-0.295 0.637,-0.302 0.631,-0.308 0.626,-0.315 0.622,-0.324 0.618,-0.332 0.616,-0.341 0.616,-0.351 c 0,-0.01 0.002,-0.019 0.006,-0.027 0.004,-0.009 0.009,-0.016 0.015,-0.023 0.006,-0.006 0.014,-0.011 0.022,-0.015 0.009,-0.004 0.018,-0.005 0.028,-0.005 z M 0.722,-0.486 C 0.716,-0.488 0.71,-0.489 0.704,-0.49 0.698,-0.491 0.692,-0.491 0.687,-0.491 c -0.006,0 -0.012,0 -0.018,0.001 -0.006,0.001 -0.012,0.002 -0.018,0.004 v -0.181 c 0,-0.01 0.004,-0.018 0.011,-0.025 0.006,-0.007 0.015,-0.01 0.025,-0.01 0.009,0 0.018,0.003 0.024,0.01 0.007,0.007 0.011,0.015 0.011,0.025 z m 0.28,0.1 c 0.01,0 0.019,0.003 0.025,0.01 0.007,0.007 0.011,0.015 0.011,0.025 0,0.01 -0.004,0.018 -0.011,0.025 -0.006,0.007 -0.015,0.01 -0.025,0.01 h -0.18 c 0.001,-0.005 0.003,-0.011 0.003,-0.017 0.001,-0.006 0.002,-0.012 0.002,-0.018 0,-0.006 -0.001,-0.012 -0.002,-0.018 0,-0.006 -0.002,-0.012 -0.003,-0.017 z m -0.351,0.17 c 0.012,0.004 0.024,0.006 0.036,0.006 0.011,0 0.023,-0.002 0.035,-0.006 v 0.181 c 0,0.01 -0.004,0.018 -0.011,0.025 C 0.705,-0.003 0.696,0 0.687,0 0.677,0 0.668,-0.003 0.662,-0.01 0.655,-0.017 0.651,-0.025 0.651,-0.035 Z M 0.546,-0.351 c 0,0.012 0.002,0.023 0.005,0.035 h -0.18 c -0.01,0 -0.018,-0.003 -0.025,-0.01 -0.007,-0.007 -0.011,-0.015 -0.011,-0.025 0,-0.01 0.004,-0.018 0.011,-0.025 0.007,-0.007 0.015,-0.01 0.025,-0.01 h 0.18 C 0.548,-0.375 0.546,-0.363 0.546,-0.351 Z M 0.797,-0.437 C 0.789,-0.446 0.781,-0.454 0.772,-0.461 l 0.13,-0.131 c 0.004,-0.003 0.008,-0.005 0.013,-0.005 0.004,0 0.009,0.002 0.012,0.005 0.003,0.004 0.005,0.008 0.005,0.013 0,0.005 -0.001,0.009 -0.005,0.012 z m 0,0.171 0.13,0.131 c 0.004,0.003 0.005,0.007 0.005,0.012 0,0.005 -0.002,0.009 -0.005,0.012 -0.003,0.004 -0.008,0.006 -0.012,0.006 -0.005,0 -0.009,-0.002 -0.013,-0.005 L 0.772,-0.241 C 0.781,-0.248 0.789,-0.256 0.797,-0.266 Z M 0.458,-0.597 c 0.005,0 0.009,0.002 0.013,0.005 l 0.13,0.131 c -0.009,0.007 -0.018,0.015 -0.025,0.024 l -0.13,-0.13 C 0.443,-0.57 0.441,-0.574 0.441,-0.579 c 0,-0.005 0.002,-0.009 0.005,-0.013 0.003,-0.003 0.008,-0.005 0.012,-0.005 z m 0.118,0.331 c 0.007,0.01 0.015,0.018 0.025,0.025 l -0.13,0.131 c -0.004,0.003 -0.008,0.005 -0.013,0.005 -0.004,0 -0.009,-0.002 -0.012,-0.006 -0.003,-0.003 -0.005,-0.007 -0.005,-0.012 0,-0.005 0.002,-0.009 0.005,-0.012 z"
         style="fill:#ffffff;fill-rule:nonzero"
         id="path19308" /></g></g></svg>
