<?xml version="1.0" encoding="UTF-8" standalone="no"?>
<svg
   width="16.845001"
   height="16.845001"
   viewBox="0 0 16.845001 16.845001"
   version="1.1"
   xml:space="preserve"
   style="clip-rule:evenodd;fill-rule:evenodd;stroke-linejoin:round;stroke-miterlimit:2"
   id="svg20568"
   sodipodi:docname="emojis.svg"
   xmlns:inkscape="http://www.inkscape.org/namespaces/inkscape"
   xmlns:sodipodi="http://sodipodi.sourceforge.net/DTD/sodipodi-0.dtd"
   xmlns="http://www.w3.org/2000/svg"
   xmlns:svg="http://www.w3.org/2000/svg"><defs
     id="defs20572" /><sodipodi:namedview
     id="namedview20570"
     pagecolor="#505050"
     bordercolor="#eeeeee"
     borderopacity="1"
     inkscape:pageshadow="0"
     inkscape:pageopacity="0"
     inkscape:pagecheckerboard="0" /><g
     transform="matrix(0.24,0,0,0.24,-181.42164,-992.5314)"
     id="g20566"><g
       transform="matrix(62.5,0,0,62.5,748.111,4192.61)"
       id="g19386"><rect
         x="0.125"
         y="-0.91299999"
         width="1.123"
         height="1.123"
         style="fill-rule:nonzero"
         id="rect19380" /><rect
         x="0.19499999"
         y="-0.84200001"
         width="0.98199999"
         height="0.98199999"
         style="fill:#0078d7;fill-rule:nonzero"
         id="rect19382" /><path
         d="M 0.737,-0.019 V -0.24 h 0.079 c 0.018,0 0.035,0.002 0.049,0.006 0.014,0.004 0.027,0.01 0.037,0.019 0.01,0.009 0.018,0.02 0.024,0.033 0.005,0.014 0.008,0.03 0.008,0.05 0,0.017 -0.003,0.033 -0.009,0.047 -0.006,0.014 -0.014,0.026 -0.025,0.036 -0.01,0.009 -0.022,0.017 -0.037,0.022 -0.014,0.005 -0.03,0.008 -0.047,0.008 z m 0.028,-0.379 v -0.221 h 0.081 c 0.008,0 0.016,0.001 0.026,0.002 0.009,0.002 0.017,0.004 0.024,0.008 0.008,0.004 0.014,0.009 0.019,0.016 0.005,0.007 0.007,0.015 0.007,0.026 0,0.012 -0.004,0.023 -0.013,0.032 -0.008,0.008 -0.018,0.014 -0.03,0.017 0.015,0.003 0.027,0.008 0.037,0.017 0.01,0.009 0.015,0.022 0.015,0.037 0,0.012 -0.002,0.022 -0.007,0.03 -0.004,0.008 -0.01,0.015 -0.018,0.021 -0.007,0.005 -0.016,0.009 -0.026,0.011 -0.009,0.003 -0.019,0.004 -0.03,0.004 z m -0.115,0 H 0.596 L 0.581,-0.447 H 0.501 L 0.486,-0.398 H 0.432 l 0.081,-0.221 h 0.059 z m -0.038,0.371 c -0.01,0.005 -0.02,0.008 -0.031,0.009 -0.011,0.002 -0.022,0.003 -0.033,0.003 -0.034,0 -0.061,-0.01 -0.08,-0.029 -0.019,-0.02 -0.029,-0.047 -0.029,-0.081 0,-0.018 0.003,-0.034 0.009,-0.048 0.006,-0.015 0.014,-0.027 0.024,-0.037 0.01,-0.011 0.023,-0.019 0.037,-0.025 0.015,-0.006 0.031,-0.009 0.048,-0.009 0.01,0 0.019,0.001 0.028,0.002 0.009,0.001 0.018,0.003 0.027,0.006 v 0.048 C 0.604,-0.192 0.596,-0.196 0.587,-0.198 0.579,-0.2 0.57,-0.201 0.561,-0.201 c -0.011,0 -0.02,0.002 -0.029,0.005 -0.009,0.004 -0.016,0.009 -0.022,0.015 -0.006,0.007 -0.011,0.015 -0.014,0.024 -0.003,0.008 -0.004,0.018 -0.004,0.029 0,0.02 0.005,0.037 0.017,0.05 0.012,0.013 0.028,0.02 0.05,0.02 0.019,0 0.037,-0.005 0.053,-0.014 z M 0.787,-0.2 v 0.14 h 0.025 c 0.022,0 0.04,-0.006 0.052,-0.019 0.011,-0.014 0.017,-0.031 0.017,-0.053 0,-0.022 -0.006,-0.038 -0.018,-0.05 C 0.85,-0.194 0.833,-0.2 0.812,-0.2 Z m 0.028,-0.293 v 0.058 h 0.027 c 0.009,0 0.018,-0.002 0.025,-0.007 0.008,-0.004 0.012,-0.012 0.012,-0.023 0,-0.01 -0.004,-0.017 -0.012,-0.022 C 0.859,-0.491 0.851,-0.493 0.842,-0.493 Z m 0,-0.09 v 0.053 h 0.022 c 0.009,0 0.016,-0.002 0.023,-0.007 0.007,-0.004 0.01,-0.011 0.01,-0.021 0,-0.005 -0.001,-0.009 -0.003,-0.013 C 0.864,-0.574 0.861,-0.576 0.858,-0.578 0.854,-0.58 0.85,-0.581 0.846,-0.582 0.842,-0.582 0.838,-0.583 0.833,-0.583 Z M 0.569,-0.485 C 0.564,-0.5 0.558,-0.516 0.552,-0.532 0.546,-0.548 0.542,-0.564 0.542,-0.58 0.538,-0.563 0.534,-0.547 0.528,-0.532 0.523,-0.516 0.517,-0.501 0.512,-0.485 Z"
         style="fill:#ffffff;fill-rule:nonzero"
         id="path19384" /></g></g></svg>
