<?xml version="1.0" encoding="UTF-8" standalone="no"?>
<svg
   width="15.795"
   height="16.844999"
   viewBox="0 0 15.795 16.844999"
   version="1.1"
   xml:space="preserve"
   style="clip-rule:evenodd;fill-rule:evenodd;stroke-linejoin:round;stroke-miterlimit:2"
   id="svg20568"
   sodipodi:docname="emojis.svg"
   xmlns:inkscape="http://www.inkscape.org/namespaces/inkscape"
   xmlns:sodipodi="http://sodipodi.sourceforge.net/DTD/sodipodi-0.dtd"
   xmlns="http://www.w3.org/2000/svg"
   xmlns:svg="http://www.w3.org/2000/svg"><defs
     id="defs20572" /><sodipodi:namedview
     id="namedview20570"
     pagecolor="#505050"
     bordercolor="#eeeeee"
     borderopacity="1"
     inkscape:pageshadow="0"
     inkscape:pageopacity="0"
     inkscape:pagecheckerboard="0" /><g
     transform="matrix(0.24,0,0,0.24,-344.7654,-144.6594)"
     id="g20566"><g
       transform="matrix(62.5,0,0,62.5,1428.71,659.81)"
       id="g1936"><path
         d="m 0.687,-0.913 c 0.039,0 0.078,0.005 0.115,0.015 0.037,0.01 0.072,0.024 0.104,0.042 0.033,0.018 0.063,0.04 0.091,0.065 0.027,0.026 0.051,0.054 0.071,0.085 0.021,0.032 0.037,0.065 0.05,0.102 0.013,0.036 0.021,0.074 0.024,0.113 0.011,0.012 0.02,0.025 0.026,0.04 0.007,0.015 0.01,0.031 0.01,0.047 v 0.106 c 0,0.012 -0.002,0.024 -0.006,0.035 -0.003,0.012 -0.008,0.022 -0.015,0.032 -0.006,0.01 -0.014,0.019 -0.023,0.026 C 1.125,-0.197 1.115,-0.19 1.104,-0.186 1.099,-0.148 1.089,-0.112 1.076,-0.078 1.062,-0.043 1.045,-0.012 1.024,0.018 1.003,0.047 0.979,0.074 0.952,0.097 0.925,0.121 0.895,0.141 0.863,0.158 0.831,0.175 0.798,0.188 0.762,0.197 0.726,0.206 0.689,0.21 0.651,0.21 0.613,0.21 0.576,0.206 0.541,0.197 0.505,0.188 0.471,0.175 0.439,0.158 0.408,0.141 0.378,0.121 0.351,0.097 0.324,0.073 0.3,0.047 0.279,0.018 0.258,-0.012 0.241,-0.043 0.227,-0.078 0.213,-0.112 0.204,-0.148 0.199,-0.186 0.188,-0.19 0.178,-0.197 0.169,-0.205 0.16,-0.212 0.152,-0.221 0.146,-0.231 0.139,-0.241 0.134,-0.251 0.13,-0.263 0.127,-0.274 0.125,-0.286 0.125,-0.298 v -0.106 c 0,-0.016 0.003,-0.032 0.01,-0.047 0.006,-0.015 0.015,-0.028 0.026,-0.04 0.003,-0.039 0.011,-0.077 0.023,-0.113 0.013,-0.037 0.029,-0.07 0.05,-0.102 0.02,-0.031 0.044,-0.059 0.072,-0.085 0.027,-0.025 0.058,-0.047 0.09,-0.065 0.033,-0.018 0.068,-0.032 0.105,-0.042 0.037,-0.01 0.075,-0.015 0.115,-0.015 z"
         style="fill-rule:nonzero"
         id="path1926" /><path
         d="m 1.038,-0.457 c 0.008,0 0.016,0.001 0.025,0.003 0.008,0.001 0.016,0.004 0.022,0.008 0.007,0.004 0.012,0.009 0.016,0.016 0.004,0.007 0.006,0.015 0.006,0.026 v 0.106 c 0,0.01 -0.002,0.019 -0.006,0.026 -0.004,0.007 -0.009,0.012 -0.016,0.016 -0.006,0.004 -0.014,0.007 -0.022,0.008 -0.009,0.002 -0.017,0.002 -0.025,0.002 0,0.036 -0.005,0.07 -0.014,0.103 C 1.014,-0.11 1.001,-0.08 0.985,-0.051 0.968,-0.023 0.948,0.003 0.924,0.027 0.901,0.051 0.875,0.071 0.846,0.088 0.818,0.104 0.787,0.117 0.754,0.126 0.721,0.136 0.687,0.14 0.651,0.14 0.616,0.14 0.582,0.136 0.549,0.126 0.516,0.117 0.485,0.104 0.457,0.088 0.428,0.071 0.402,0.051 0.378,0.027 0.355,0.003 0.335,-0.023 0.318,-0.051 0.301,-0.08 0.288,-0.11 0.279,-0.143 0.27,-0.176 0.265,-0.21 0.265,-0.246 c -0.008,0 -0.017,0 -0.025,-0.002 C 0.231,-0.249 0.224,-0.252 0.217,-0.256 0.211,-0.26 0.205,-0.265 0.201,-0.272 0.197,-0.279 0.195,-0.288 0.195,-0.298 v -0.106 c 0,-0.011 0.002,-0.019 0.006,-0.026 0.004,-0.007 0.01,-0.012 0.016,-0.016 0.007,-0.004 0.014,-0.007 0.023,-0.008 0.008,-0.002 0.017,-0.003 0.025,-0.003 0,-0.036 0.005,-0.07 0.015,-0.101 0.009,-0.031 0.022,-0.06 0.04,-0.085 0.017,-0.026 0.037,-0.048 0.061,-0.068 0.024,-0.019 0.05,-0.036 0.079,-0.049 0.029,-0.014 0.059,-0.024 0.092,-0.031 0.032,-0.006 0.065,-0.01 0.099,-0.01 0.035,0 0.068,0.004 0.1,0.01 0.033,0.007 0.063,0.017 0.092,0.031 0.028,0.013 0.055,0.03 0.079,0.049 0.024,0.02 0.044,0.042 0.061,0.068 0.017,0.025 0.031,0.054 0.04,0.085 0.01,0.031 0.015,0.065 0.015,0.101 z"
         style="fill:#ffc83d;fill-rule:nonzero"
         id="path1928" /><path
         d="m 0.687,-0.842 c 0.035,0 0.069,0.004 0.102,0.013 0.033,0.01 0.064,0.022 0.092,0.039 0.029,0.017 0.055,0.037 0.079,0.061 0.023,0.023 0.043,0.049 0.06,0.078 0.017,0.028 0.03,0.059 0.039,0.092 0.009,0.033 0.014,0.067 0.014,0.102 H 1.038 c 0,0.028 -0.007,0.054 -0.019,0.079 -0.013,0.024 -0.03,0.045 -0.052,0.062 0,-0.039 -0.007,-0.075 -0.022,-0.109 C 0.931,-0.459 0.911,-0.489 0.885,-0.515 0.86,-0.54 0.83,-0.56 0.796,-0.575 0.762,-0.589 0.725,-0.597 0.687,-0.597 c 0,0.028 0.006,0.054 0.019,0.078 0.012,0.024 0.029,0.045 0.051,0.062 H 0.687 C 0.659,-0.457 0.631,-0.46 0.605,-0.467 0.579,-0.473 0.554,-0.483 0.531,-0.495 0.507,-0.507 0.485,-0.522 0.464,-0.539 0.443,-0.556 0.423,-0.576 0.406,-0.597 c 0,0.028 -0.004,0.055 -0.01,0.081 C 0.389,-0.49 0.38,-0.465 0.367,-0.441 0.355,-0.417 0.34,-0.395 0.323,-0.374 0.306,-0.353 0.286,-0.333 0.265,-0.316 v -0.105 c 0,-0.01 -0.003,-0.018 -0.01,-0.025 C 0.248,-0.453 0.24,-0.456 0.23,-0.457 0.23,-0.492 0.235,-0.526 0.244,-0.559 0.253,-0.592 0.266,-0.623 0.283,-0.651 0.3,-0.68 0.32,-0.706 0.343,-0.729 0.367,-0.753 0.393,-0.773 0.421,-0.79 0.45,-0.807 0.481,-0.819 0.514,-0.829 0.547,-0.838 0.581,-0.842 0.616,-0.842 Z"
         style="fill:#8e562e;fill-rule:nonzero"
         id="path1930" /><path
         d="m 0.458,-0.457 c 0.008,0 0.014,0.002 0.021,0.005 0.006,0.002 0.012,0.006 0.017,0.011 0.004,0.005 0.008,0.011 0.011,0.017 0.003,0.006 0.004,0.013 0.004,0.02 v 0.071 c 0,0.007 -0.001,0.013 -0.004,0.02 -0.003,0.006 -0.007,0.012 -0.011,0.017 -0.005,0.004 -0.011,0.008 -0.017,0.011 -0.007,0.003 -0.013,0.004 -0.021,0.004 -0.007,0 -0.013,-10e-4 -0.02,-0.004 C 0.432,-0.288 0.426,-0.292 0.421,-0.296 0.417,-0.301 0.413,-0.307 0.41,-0.313 0.407,-0.32 0.406,-0.326 0.406,-0.333 v -0.071 c 0,-0.007 10e-4,-0.014 0.004,-0.02 0.003,-0.006 0.007,-0.012 0.011,-0.017 0.005,-0.005 0.011,-0.009 0.017,-0.011 0.007,-0.003 0.013,-0.005 0.02,-0.005 z m 0.386,0 c 0.007,0 0.014,0.002 0.021,0.005 0.006,0.002 0.011,0.006 0.016,0.011 0.005,0.005 0.009,0.011 0.012,0.017 0.003,0.006 0.004,0.013 0.004,0.02 v 0.071 c 0,0.007 -0.001,0.013 -0.004,0.02 -0.003,0.006 -0.007,0.012 -0.012,0.017 -0.005,0.004 -0.01,0.008 -0.016,0.011 -0.007,0.003 -0.014,0.004 -0.021,0.004 -0.007,0 -0.014,-10e-4 -0.02,-0.004 C 0.818,-0.288 0.812,-0.292 0.807,-0.296 0.803,-0.301 0.799,-0.307 0.796,-0.313 0.793,-0.32 0.792,-0.326 0.792,-0.333 v -0.071 c 0,-0.007 0.001,-0.014 0.004,-0.02 0.003,-0.006 0.007,-0.012 0.011,-0.017 0.005,-0.005 0.011,-0.009 0.017,-0.011 0.006,-0.003 0.013,-0.005 0.02,-0.005 z"
         style="fill-rule:nonzero"
         id="path1932" /><path
         d="M 0.651,0.006 C 0.629,0.006 0.607,0.002 0.584,-0.005 0.562,-0.012 0.542,-0.023 0.525,-0.037 0.52,-0.04 0.517,-0.044 0.514,-0.049 0.512,-0.054 0.511,-0.059 0.511,-0.064 c 0,-0.01 0.003,-0.019 0.01,-0.025 0.008,-0.007 0.016,-0.011 0.025,-0.011 0.006,0 0.011,0.002 0.018,0.006 0.006,0.004 0.013,0.008 0.022,0.012 0.008,0.005 0.018,0.009 0.028,0.012 0.011,0.004 0.023,0.006 0.037,0.006 0.014,0 0.027,-0.002 0.037,-0.006 C 0.699,-0.073 0.709,-0.077 0.717,-0.082 0.725,-0.086 0.733,-0.09 0.739,-0.094 0.745,-0.098 0.751,-0.1 0.756,-0.1 c 0.01,0 0.018,0.004 0.025,0.011 0.007,0.006 0.011,0.015 0.011,0.025 0,0.011 -0.005,0.02 -0.014,0.027 C 0.76,-0.023 0.74,-0.012 0.718,-0.005 0.696,0.002 0.674,0.006 0.651,0.006 Z m 0.071,-0.252 c 0,0.01 -0.002,0.019 -0.006,0.028 C 0.712,-0.21 0.707,-0.202 0.701,-0.196 0.695,-0.19 0.687,-0.185 0.679,-0.181 0.67,-0.178 0.661,-0.176 0.651,-0.176 0.642,-0.176 0.632,-0.178 0.624,-0.181 0.616,-0.185 0.608,-0.19 0.602,-0.196 0.595,-0.202 0.59,-0.21 0.587,-0.218 0.583,-0.227 0.581,-0.236 0.581,-0.246 Z"
         style="fill:#f7894a;fill-rule:nonzero"
         id="path1934" /></g></g></svg>
