<?xml version="1.0" encoding="UTF-8" standalone="no"?>
<svg
   width="11.055"
   height="11.055"
   viewBox="0 0 11.055 11.055"
   version="1.1"
   xml:space="preserve"
   style="clip-rule:evenodd;fill-rule:evenodd;stroke-linejoin:round;stroke-miterlimit:2"
   id="svg20568"
   sodipodi:docname="emojis.svg"
   xmlns:inkscape="http://www.inkscape.org/namespaces/inkscape"
   xmlns:sodipodi="http://sodipodi.sourceforge.net/DTD/sodipodi-0.dtd"
   xmlns="http://www.w3.org/2000/svg"
   xmlns:svg="http://www.w3.org/2000/svg"><defs
     id="defs20572" /><sodipodi:namedview
     id="namedview20570"
     pagecolor="#505050"
     bordercolor="#eeeeee"
     borderopacity="1"
     inkscape:pageshadow="0"
     inkscape:pageopacity="0"
     inkscape:pagecheckerboard="0" /><g
     transform="matrix(0.24,0,0,0.24,-610.959,-978.336)"
     id="g20566"><g
       transform="matrix(62.5,0,0,62.5,2545.6,4121.9)"
       id="g19314"><path
         d="m 0.37,-0.728 c 0.062,0 0.122,0.016 0.181,0.048 0.059,0.031 0.105,0.077 0.138,0.136 0.033,0.059 0.049,0.12 0.049,0.185 0,0.063 -0.016,0.124 -0.048,0.183 C 0.657,-0.118 0.612,-0.072 0.553,-0.04 0.495,-0.007 0.434,0.009 0.37,0.009 0.306,0.009 0.245,-0.007 0.187,-0.04 0.128,-0.072 0.083,-0.118 0.05,-0.176 0.018,-0.235 0.001,-0.296 0.001,-0.359 c 0,-0.065 0.017,-0.126 0.05,-0.185 C 0.084,-0.603 0.13,-0.649 0.189,-0.68 0.248,-0.712 0.308,-0.728 0.37,-0.728 Z m 0,0.061 c -0.052,0 -0.102,0.013 -0.151,0.04 -0.049,0.026 -0.087,0.064 -0.115,0.114 -0.028,0.049 -0.041,0.1 -0.041,0.154 0,0.053 0.013,0.104 0.04,0.152 0.027,0.049 0.065,0.087 0.114,0.114 0.049,0.027 0.1,0.041 0.153,0.041 0.053,0 0.104,-0.014 0.153,-0.041 0.049,-0.027 0.087,-0.065 0.114,-0.114 0.027,-0.048 0.04,-0.099 0.04,-0.152 0,-0.054 -0.014,-0.105 -0.041,-0.154 C 0.608,-0.563 0.57,-0.601 0.521,-0.627 0.472,-0.654 0.422,-0.667 0.37,-0.667 Z m 0.118,0.367 0.06,0.018 c -0.009,0.04 -0.03,0.073 -0.062,0.097 -0.032,0.024 -0.07,0.037 -0.115,0.037 -0.058,0 -0.104,-0.019 -0.14,-0.056 -0.036,-0.037 -0.054,-0.089 -0.054,-0.154 0,-0.043 0.008,-0.081 0.025,-0.112 0.016,-0.032 0.039,-0.056 0.069,-0.072 0.03,-0.016 0.065,-0.024 0.104,-0.024 0.043,0 0.079,0.01 0.107,0.031 0.029,0.02 0.049,0.048 0.059,0.084 L 0.483,-0.437 C 0.473,-0.461 0.459,-0.48 0.44,-0.492 0.421,-0.505 0.398,-0.512 0.373,-0.512 c -0.038,0 -0.069,0.014 -0.093,0.04 -0.024,0.027 -0.036,0.065 -0.036,0.115 0,0.05 0.011,0.088 0.034,0.113 0.023,0.026 0.053,0.038 0.089,0.038 0.029,0 0.055,-0.008 0.077,-0.025 0.022,-0.017 0.037,-0.04 0.044,-0.069 z"
         style="fill-rule:nonzero"
         id="path19312" /></g></g></svg>
