<?xml version="1.0" encoding="UTF-8" standalone="no"?>
<svg
   width="16.845001"
   height="16.845001"
   viewBox="0 0 16.845001 16.845001"
   version="1.1"
   xml:space="preserve"
   style="clip-rule:evenodd;fill-rule:evenodd;stroke-linejoin:round;stroke-miterlimit:2"
   id="svg20568"
   sodipodi:docname="emojis.svg"
   xmlns:inkscape="http://www.inkscape.org/namespaces/inkscape"
   xmlns:sodipodi="http://sodipodi.sourceforge.net/DTD/sodipodi-0.dtd"
   xmlns="http://www.w3.org/2000/svg"
   xmlns:svg="http://www.w3.org/2000/svg"><defs
     id="defs20572" /><sodipodi:namedview
     id="namedview20570"
     pagecolor="#505050"
     bordercolor="#eeeeee"
     borderopacity="1"
     inkscape:pageshadow="0"
     inkscape:pageopacity="0"
     inkscape:pagecheckerboard="0" /><g
     transform="matrix(0.24,0,0,0.24,-202.01724,-992.5314)"
     id="g20566"><g
       transform="matrix(62.5,0,0,62.5,833.926,4192.61)"
       id="g19394"><rect
         x="0.125"
         y="-0.91299999"
         width="1.123"
         height="1.123"
         style="fill-rule:nonzero"
         id="rect19388" /><rect
         x="0.19499999"
         y="-0.84200001"
         width="0.98199999"
         height="0.98199999"
         style="fill:#0078d7;fill-rule:nonzero"
         id="rect19390" /><path
         d="M 0.883,-0.019 H 0.834 v -0.022 c -0.005,0.009 -0.013,0.016 -0.021,0.02 -0.008,0.004 -0.018,0.006 -0.028,0.006 -0.012,0 -0.022,-0.002 -0.03,-0.007 C 0.747,-0.026 0.74,-0.032 0.735,-0.039 0.729,-0.047 0.725,-0.055 0.723,-0.064 0.72,-0.074 0.719,-0.084 0.719,-0.094 c 0,-0.011 0.002,-0.022 0.005,-0.032 0.003,-0.01 0.007,-0.02 0.013,-0.028 0.006,-0.008 0.013,-0.014 0.022,-0.019 0.009,-0.005 0.02,-0.008 0.032,-0.008 0.009,0 0.017,0.002 0.025,0.005 0.007,0.003 0.013,0.009 0.018,0.017 V -0.253 H 0.883 Z M 0.787,-0.417 0.786,-0.398 H 0.738 v -0.234 h 0.048 v 0.1 C 0.792,-0.542 0.8,-0.549 0.809,-0.553 0.818,-0.557 0.828,-0.56 0.838,-0.56 c 0.012,0 0.022,0.003 0.03,0.007 0.008,0.004 0.014,0.01 0.019,0.017 0.005,0.007 0.009,0.016 0.011,0.025 0.003,0.01 0.004,0.019 0.004,0.03 0,0.011 -0.002,0.021 -0.004,0.032 -0.003,0.01 -0.007,0.019 -0.013,0.028 -0.006,0.008 -0.013,0.014 -0.022,0.019 -0.009,0.005 -0.02,0.008 -0.032,0.008 -0.009,0 -0.018,-0.002 -0.025,-0.005 C 0.799,-0.403 0.792,-0.409 0.787,-0.417 Z M 0.612,-0.398 H 0.566 v -0.023 c -0.011,0.018 -0.027,0.027 -0.048,0.027 -0.015,0 -0.026,-0.004 -0.036,-0.013 -0.009,-0.008 -0.013,-0.02 -0.013,-0.035 0,-0.014 0.003,-0.025 0.009,-0.032 0.007,-0.007 0.015,-0.013 0.024,-0.016 0.01,-0.003 0.02,-0.006 0.032,-0.007 0.011,-0.001 0.022,-0.002 0.032,-0.003 0,-0.009 -0.003,-0.016 -0.008,-0.02 -0.005,-0.005 -0.011,-0.007 -0.02,-0.007 -0.019,0 -0.037,0.006 -0.054,0.017 v -0.036 c 0.009,-0.005 0.019,-0.008 0.03,-0.01 0.01,-0.003 0.02,-0.004 0.03,-0.004 0.045,0 0.068,0.023 0.068,0.068 z M 0.609,-0.025 C 0.602,-0.021 0.595,-0.018 0.586,-0.017 0.578,-0.016 0.57,-0.015 0.562,-0.015 0.55,-0.015 0.539,-0.017 0.529,-0.021 0.519,-0.024 0.511,-0.029 0.503,-0.036 0.496,-0.043 0.491,-0.051 0.487,-0.061 0.483,-0.071 0.48,-0.082 0.48,-0.094 c 0,-0.028 0.008,-0.049 0.024,-0.064 0.016,-0.015 0.038,-0.023 0.065,-0.023 0.007,0 0.014,0.001 0.021,0.001 0.007,0.001 0.014,0.003 0.019,0.007 v 0.041 C 0.6,-0.14 0.588,-0.144 0.576,-0.144 c -0.015,0 -0.026,0.005 -0.034,0.013 -0.008,0.008 -0.012,0.019 -0.012,0.034 0,0.014 0.004,0.024 0.012,0.033 0.007,0.008 0.018,0.012 0.032,0.012 0.006,0 0.013,-0.001 0.019,-0.003 0.006,-0.003 0.011,-0.005 0.016,-0.009 z m 0.226,-0.071 v -0.012 c 0,-0.009 -0.002,-0.018 -0.008,-0.025 -0.006,-0.007 -0.014,-0.011 -0.024,-0.011 -0.006,0 -0.012,0.002 -0.016,0.005 -0.005,0.003 -0.009,0.007 -0.011,0.011 -0.003,0.005 -0.005,0.01 -0.006,0.015 -0.001,0.006 -0.001,0.012 -0.001,0.017 0,0.006 0,0.011 0.001,0.016 0.001,0.005 0.003,0.01 0.006,0.014 0.002,0.004 0.006,0.008 0.01,0.01 0.004,0.003 0.01,0.004 0.016,0.004 0.006,0 0.011,-0.002 0.015,-0.004 0.004,-0.003 0.008,-0.006 0.01,-0.01 C 0.83,-0.07 0.832,-0.075 0.833,-0.08 0.835,-0.085 0.835,-0.09 0.835,-0.096 Z M 0.786,-0.483 v 0.016 c 0,0.01 0.002,0.018 0.008,0.025 0.005,0.007 0.013,0.01 0.023,0.01 0.007,0 0.012,-0.001 0.017,-0.004 0.005,-0.003 0.008,-0.007 0.011,-0.012 0.003,-0.004 0.005,-0.01 0.006,-0.015 0.001,-0.006 0.001,-0.012 0.001,-0.018 0,-0.005 -0.001,-0.01 -0.002,-0.015 C 0.849,-0.501 0.847,-0.506 0.845,-0.51 0.842,-0.514 0.839,-0.517 0.834,-0.519 0.83,-0.521 0.825,-0.522 0.819,-0.522 0.808,-0.522 0.8,-0.518 0.794,-0.51 0.788,-0.502 0.786,-0.493 0.786,-0.483 Z m -0.22,0.021 v -0.011 c -0.005,0.001 -0.01,0.001 -0.016,0.002 -0.006,0 -0.011,0.001 -0.017,0.002 -0.005,10e-4 -0.01,0.004 -0.014,0.007 -0.003,0.003 -0.005,0.008 -0.005,0.014 0,0.006 0.002,0.011 0.006,0.014 0.005,0.004 0.01,0.005 0.015,0.005 0.01,0 0.018,-0.003 0.023,-0.009 0.005,-0.007 0.008,-0.015 0.008,-0.024 z"
         style="fill:#ffffff;fill-rule:nonzero"
         id="path19392" /></g></g></svg>
