<?xml version="1.0" encoding="UTF-8" standalone="no"?>
<svg
   width="16.845001"
   height="16.845001"
   viewBox="0 0 16.845001 16.845001"
   version="1.1"
   xml:space="preserve"
   style="clip-rule:evenodd;fill-rule:evenodd;stroke-linejoin:round;stroke-miterlimit:2"
   id="svg20568"
   sodipodi:docname="emojis.svg"
   xmlns:inkscape="http://www.inkscape.org/namespaces/inkscape"
   xmlns:sodipodi="http://sodipodi.sourceforge.net/DTD/sodipodi-0.dtd"
   xmlns="http://www.w3.org/2000/svg"
   xmlns:svg="http://www.w3.org/2000/svg"><defs
     id="defs20572" /><sodipodi:namedview
     id="namedview20570"
     pagecolor="#505050"
     bordercolor="#eeeeee"
     borderopacity="1"
     inkscape:pageshadow="0"
     inkscape:pageopacity="0"
     inkscape:pagecheckerboard="0" /><g
     transform="matrix(0.24,0,0,0.24,-346.1862,-992.5314)"
     id="g20566"><g
       transform="matrix(62.5,0,0,62.5,1434.63,4192.61)"
       id="g19450"><rect
         x="0.125"
         y="-0.91299999"
         width="1.123"
         height="1.123"
         style="fill-rule:nonzero"
         id="rect19444" /><rect
         x="0.19499999"
         y="-0.84200001"
         width="0.98199999"
         height="0.98199999"
         style="fill:#f03a17;fill-rule:nonzero"
         id="rect19446" /><path
         d="M 0.704,-0.133 C 0.682,-0.122 0.66,-0.115 0.636,-0.11 0.613,-0.106 0.59,-0.104 0.566,-0.104 0.529,-0.104 0.497,-0.11 0.468,-0.122 0.438,-0.134 0.414,-0.151 0.393,-0.173 0.373,-0.194 0.357,-0.22 0.346,-0.25 0.336,-0.28 0.33,-0.313 0.33,-0.349 c 0,-0.038 0.006,-0.073 0.018,-0.105 0.013,-0.032 0.03,-0.06 0.052,-0.083 0.022,-0.024 0.049,-0.042 0.08,-0.055 0.032,-0.013 0.067,-0.02 0.105,-0.02 0.021,0 0.041,0.002 0.061,0.004 0.02,0.003 0.039,0.008 0.058,0.016 v 0.081 C 0.687,-0.521 0.67,-0.528 0.651,-0.533 0.633,-0.538 0.614,-0.541 0.594,-0.541 c -0.027,0 -0.052,0.005 -0.074,0.015 -0.023,0.009 -0.041,0.022 -0.057,0.039 -0.015,0.016 -0.027,0.036 -0.036,0.059 -0.008,0.023 -0.012,0.048 -0.012,0.075 0,0.026 0.004,0.05 0.011,0.072 0.008,0.021 0.019,0.04 0.033,0.056 0.014,0.015 0.032,0.028 0.053,0.037 0.021,0.008 0.044,0.013 0.071,0.013 0.021,0 0.042,-0.003 0.063,-0.008 0.021,-0.005 0.04,-0.013 0.058,-0.025 z m 0.359,0.021 H 0.79 v -0.492 h 0.082 v 0.423 h 0.191 z"
         style="fill:#ffffff;fill-rule:nonzero"
         id="path19448" /></g></g></svg>
