<?xml version="1.0" encoding="UTF-8" standalone="no"?>
<svg
   width="16.845001"
   height="16.845001"
   viewBox="0 0 16.845001 16.845001"
   version="1.1"
   xml:space="preserve"
   style="clip-rule:evenodd;fill-rule:evenodd;stroke-linejoin:round;stroke-miterlimit:2"
   id="svg20568"
   sodipodi:docname="emojis.svg"
   xmlns:inkscape="http://www.inkscape.org/namespaces/inkscape"
   xmlns:sodipodi="http://sodipodi.sourceforge.net/DTD/sodipodi-0.dtd"
   xmlns="http://www.w3.org/2000/svg"
   xmlns:svg="http://www.w3.org/2000/svg"><defs
     id="defs20572" /><sodipodi:namedview
     id="namedview20570"
     pagecolor="#505050"
     bordercolor="#eeeeee"
     borderopacity="1"
     inkscape:pageshadow="0"
     inkscape:pageopacity="0"
     inkscape:pagecheckerboard="0" /><g
     transform="matrix(0.24,0,0,0.24,-325.5918,-992.5314)"
     id="g20566"><g
       transform="matrix(62.5,0,0,62.5,1348.82,4192.61)"
       id="g19442"><rect
         x="0.125"
         y="-0.91299999"
         width="1.123"
         height="1.123"
         style="fill-rule:nonzero"
         id="rect19436" /><rect
         x="0.19499999"
         y="-0.84200001"
         width="0.98199999"
         height="0.98199999"
         style="fill:#f03a17;fill-rule:nonzero"
         id="rect19438" /><path
         d="m 0.535,-0.112 v -0.492 h 0.156 c 0.017,0 0.035,0.002 0.054,0.006 0.018,0.004 0.035,0.011 0.05,0.019 0.014,0.009 0.027,0.021 0.036,0.035 0.01,0.014 0.015,0.032 0.015,0.053 0,0.029 -0.008,0.054 -0.024,0.074 -0.016,0.02 -0.038,0.034 -0.066,0.042 0.017,0.002 0.032,0.007 0.046,0.013 0.013,0.007 0.025,0.015 0.035,0.026 0.01,0.01 0.018,0.022 0.023,0.036 0.005,0.014 0.008,0.03 0.008,0.047 0,0.024 -0.005,0.045 -0.015,0.062 -0.01,0.018 -0.024,0.033 -0.041,0.044 -0.016,0.012 -0.035,0.02 -0.056,0.026 -0.02,0.006 -0.042,0.009 -0.063,0.009 z m 0.081,-0.221 v 0.156 h 0.07 c 0.013,0 0.025,-0.002 0.036,-0.005 0.012,-0.003 0.022,-0.007 0.031,-0.014 0.008,-0.006 0.015,-0.014 0.02,-0.024 0.006,-0.01 0.008,-0.022 0.008,-0.036 0,-0.016 -0.003,-0.029 -0.009,-0.039 C 0.766,-0.305 0.758,-0.312 0.748,-0.318 0.737,-0.324 0.726,-0.328 0.714,-0.33 0.701,-0.332 0.688,-0.333 0.675,-0.333 Z m 0,-0.205 v 0.14 h 0.053 c 0.012,0 0.024,-0.002 0.035,-0.005 C 0.715,-0.406 0.725,-0.41 0.733,-0.417 0.741,-0.423 0.748,-0.431 0.753,-0.44 0.758,-0.45 0.76,-0.461 0.76,-0.475 0.76,-0.488 0.758,-0.498 0.753,-0.506 0.748,-0.514 0.742,-0.521 0.734,-0.526 0.726,-0.53 0.717,-0.534 0.707,-0.535 0.697,-0.537 0.687,-0.538 0.676,-0.538 Z"
         style="fill:#ffffff;fill-rule:nonzero"
         id="path19440" /></g></g></svg>
