<?xml version="1.0" encoding="UTF-8" standalone="no"?>
<svg
   width="15.795"
   height="16.844999"
   viewBox="0 0 15.795 16.844999"
   version="1.1"
   xml:space="preserve"
   style="clip-rule:evenodd;fill-rule:evenodd;stroke-linejoin:round;stroke-miterlimit:2"
   id="svg20568"
   sodipodi:docname="emojis.svg"
   xmlns:inkscape="http://www.inkscape.org/namespaces/inkscape"
   xmlns:sodipodi="http://sodipodi.sourceforge.net/DTD/sodipodi-0.dtd"
   xmlns="http://www.w3.org/2000/svg"
   xmlns:svg="http://www.w3.org/2000/svg"><defs
     id="defs20572" /><sodipodi:namedview
     id="namedview20570"
     pagecolor="#505050"
     bordercolor="#eeeeee"
     borderopacity="1"
     inkscape:pageshadow="0"
     inkscape:pageopacity="0"
     inkscape:pagecheckerboard="0" /><g
     transform="matrix(0.24,0,0,0.24,-364.3158,-144.6594)"
     id="g20566"><g
       transform="matrix(62.5,0,0,62.5,1510.17,659.81)"
       id="g1948"><path
         d="M 0.651,0.21 C 0.613,0.21 0.576,0.206 0.541,0.197 0.505,0.188 0.471,0.175 0.439,0.158 0.408,0.141 0.378,0.121 0.351,0.097 0.324,0.073 0.3,0.047 0.279,0.018 0.258,-0.012 0.241,-0.043 0.227,-0.078 0.213,-0.112 0.204,-0.148 0.199,-0.186 0.188,-0.19 0.178,-0.197 0.169,-0.205 0.16,-0.212 0.152,-0.221 0.146,-0.231 0.139,-0.241 0.134,-0.251 0.13,-0.263 0.127,-0.274 0.125,-0.286 0.125,-0.298 v -0.106 c 0,-0.012 0.002,-0.024 0.005,-0.035 C 0.134,-0.451 0.139,-0.461 0.146,-0.471 0.152,-0.481 0.16,-0.49 0.169,-0.498 0.178,-0.505 0.188,-0.512 0.199,-0.517 0.204,-0.554 0.213,-0.59 0.227,-0.625 0.241,-0.659 0.258,-0.69 0.279,-0.72 0.3,-0.749 0.324,-0.776 0.351,-0.799 0.378,-0.823 0.408,-0.843 0.439,-0.86 c 0.032,-0.017 0.066,-0.03 0.102,-0.039 0.036,-0.009 0.073,-0.014 0.11,-0.014 0.038,0 0.075,0.005 0.111,0.014 0.036,0.009 0.069,0.022 0.101,0.039 0.032,0.017 0.062,0.037 0.089,0.06 0.027,0.024 0.051,0.051 0.072,0.08 0.021,0.029 0.038,0.061 0.052,0.095 0.013,0.035 0.023,0.071 0.028,0.108 0.022,0.01 0.04,0.026 0.053,0.046 0.014,0.02 0.021,0.042 0.021,0.067 v 0.106 c 0,0.024 -0.007,0.047 -0.021,0.067 -0.013,0.02 -0.031,0.035 -0.053,0.045 C 1.099,-0.148 1.089,-0.112 1.076,-0.078 1.062,-0.043 1.045,-0.012 1.024,0.018 1.003,0.047 0.979,0.074 0.952,0.097 0.925,0.121 0.895,0.141 0.863,0.158 0.831,0.175 0.798,0.188 0.762,0.197 0.726,0.206 0.689,0.21 0.651,0.21 Z"
         style="fill-rule:nonzero"
         id="path1938" /><path
         d="m 1.038,-0.457 h 0.004 c 0.009,0 0.017,0.001 0.025,0.003 0.008,0.002 0.015,0.005 0.021,0.01 0.006,0.004 0.01,0.009 0.014,0.016 0.004,0.007 0.005,0.015 0.005,0.024 v 0.106 c 0,0.009 -10e-4,0.018 -0.005,0.024 -0.004,0.007 -0.008,0.012 -0.015,0.016 -0.006,0.005 -0.013,0.008 -0.021,0.009 -0.007,0.002 -0.015,0.003 -0.024,0.003 H 1.038 c 0,0.036 -0.005,0.07 -0.014,0.103 C 1.014,-0.11 1.001,-0.08 0.985,-0.051 0.968,-0.023 0.948,0.003 0.924,0.027 0.901,0.051 0.875,0.071 0.846,0.088 0.818,0.104 0.787,0.117 0.754,0.126 0.721,0.136 0.687,0.14 0.651,0.14 0.616,0.14 0.582,0.136 0.549,0.126 0.516,0.117 0.485,0.104 0.457,0.088 0.428,0.071 0.402,0.051 0.378,0.027 0.355,0.003 0.335,-0.023 0.318,-0.051 0.301,-0.08 0.288,-0.11 0.279,-0.143 0.27,-0.176 0.265,-0.21 0.265,-0.246 H 0.26 C 0.251,-0.246 0.243,-0.247 0.235,-0.249 0.228,-0.25 0.221,-0.253 0.215,-0.258 0.209,-0.262 0.204,-0.267 0.201,-0.274 0.197,-0.28 0.195,-0.289 0.195,-0.298 v -0.106 c 0,-0.01 0.002,-0.018 0.006,-0.024 0.003,-0.007 0.008,-0.013 0.014,-0.017 0.006,-0.004 0.013,-0.007 0.021,-0.009 0.007,-0.002 0.015,-0.003 0.024,-0.003 H 0.265 C 0.274,-0.51 0.29,-0.557 0.311,-0.598 0.333,-0.639 0.36,-0.674 0.394,-0.701 0.427,-0.729 0.465,-0.75 0.51,-0.765 c 0.044,-0.014 0.093,-0.022 0.147,-0.022 0.054,0 0.103,0.008 0.146,0.022 0.043,0.015 0.081,0.036 0.112,0.064 0.032,0.028 0.058,0.063 0.078,0.104 0.021,0.041 0.035,0.088 0.045,0.14 z"
         style="fill:#ffc83d;fill-rule:nonzero"
         id="path1940" /><path
         d="m 0.722,-0.246 c 0,0.01 -0.002,0.019 -0.006,0.028 C 0.712,-0.21 0.707,-0.202 0.701,-0.196 0.695,-0.19 0.687,-0.185 0.679,-0.181 0.67,-0.178 0.661,-0.176 0.651,-0.176 0.642,-0.176 0.632,-0.178 0.624,-0.181 0.616,-0.185 0.608,-0.19 0.602,-0.196 0.595,-0.202 0.59,-0.21 0.587,-0.218 0.583,-0.227 0.581,-0.236 0.581,-0.246 Z"
         style="fill:#f7894a;fill-rule:nonzero"
         id="path1942" /><path
         d="m 0.844,-0.456 c 0.007,0 0.014,0.001 0.021,0.004 0.006,0.003 0.011,0.007 0.016,0.011 0.005,0.005 0.009,0.01 0.012,0.017 0.003,0.006 0.004,0.013 0.004,0.02 v 0.071 c 0,0.007 -0.001,0.014 -0.004,0.02 C 0.89,-0.306 0.886,-0.301 0.882,-0.296 0.877,-0.291 0.871,-0.288 0.865,-0.285 0.858,-0.282 0.851,-0.281 0.844,-0.281 0.837,-0.281 0.83,-0.282 0.823,-0.285 0.817,-0.288 0.812,-0.292 0.807,-0.296 0.803,-0.301 0.799,-0.307 0.796,-0.313 0.793,-0.32 0.792,-0.326 0.792,-0.333 v -0.071 c 0,-0.007 0.001,-0.014 0.004,-0.02 0.003,-0.006 0.007,-0.012 0.011,-0.017 0.005,-0.004 0.011,-0.008 0.017,-0.011 0.006,-0.003 0.013,-0.004 0.02,-0.004 z m -0.386,0 c 0.008,0 0.014,0.001 0.021,0.004 0.006,0.003 0.012,0.007 0.017,0.011 0.004,0.005 0.008,0.011 0.011,0.017 0.003,0.006 0.004,0.013 0.004,0.02 v 0.071 c 0,0.007 -0.001,0.013 -0.004,0.02 -0.003,0.006 -0.007,0.012 -0.011,0.017 -0.005,0.004 -0.011,0.008 -0.017,0.011 -0.007,0.003 -0.013,0.004 -0.021,0.004 -0.007,0 -0.014,-10e-4 -0.02,-0.004 C 0.431,-0.288 0.426,-0.291 0.421,-0.296 0.416,-0.301 0.413,-0.306 0.41,-0.313 0.407,-0.319 0.406,-0.326 0.406,-0.333 v -0.071 c 0,-0.007 10e-4,-0.014 0.004,-0.02 0.003,-0.007 0.007,-0.012 0.011,-0.017 0.005,-0.004 0.011,-0.008 0.017,-0.011 0.007,-0.003 0.013,-0.004 0.02,-0.004 z M 0.651,0.035 C 0.632,0.035 0.614,0.031 0.597,0.024 0.58,0.017 0.565,0.007 0.552,-0.006 0.54,-0.019 0.53,-0.033 0.522,-0.051 0.515,-0.068 0.511,-0.086 0.511,-0.105 h 0.281 c 0,0.019 -0.004,0.037 -0.011,0.054 -0.007,0.018 -0.017,0.032 -0.03,0.045 C 0.738,0.007 0.723,0.017 0.706,0.024 0.689,0.031 0.671,0.035 0.651,0.035 Z"
         style="fill-rule:nonzero"
         id="path1944" /><path
         d="m 0.651,-0.842 c 0.036,0 0.07,0.004 0.103,0.013 0.033,0.01 0.064,0.022 0.092,0.039 0.029,0.017 0.055,0.037 0.078,0.061 0.024,0.023 0.044,0.049 0.061,0.078 0.016,0.028 0.029,0.059 0.039,0.092 0.009,0.033 0.014,0.067 0.014,0.102 v 0.106 H 0.967 L 0.968,-0.42 C 0.968,-0.444 0.967,-0.468 0.964,-0.492 0.962,-0.516 0.957,-0.539 0.949,-0.562 H 0.687 C 0.658,-0.562 0.633,-0.567 0.61,-0.577 0.587,-0.588 0.566,-0.603 0.546,-0.623 L 0.461,-0.708 c -0.02,0.015 -0.037,0.032 -0.053,0.051 -0.015,0.019 -0.028,0.039 -0.039,0.06 -0.011,0.022 -0.019,0.044 -0.025,0.068 -0.006,0.024 -0.009,0.048 -0.009,0.072 v 0.106 h -0.07 v -0.106 c 0,-0.035 0.005,-0.069 0.014,-0.102 0.009,-0.033 0.022,-0.064 0.039,-0.092 0.017,-0.029 0.037,-0.055 0.06,-0.078 0.024,-0.024 0.05,-0.044 0.079,-0.061 0.028,-0.017 0.059,-0.029 0.092,-0.039 0.033,-0.009 0.067,-0.013 0.102,-0.013 z m 0.176,0.701 c 0.009,0 0.019,0.002 0.027,0.006 0.008,0.004 0.016,0.009 0.022,0.015 0.007,0.006 0.012,0.014 0.015,0.022 0.004,0.009 0.006,0.018 0.006,0.028 H 0.406 c 0,-0.01 0.002,-0.019 0.005,-0.028 C 0.415,-0.106 0.42,-0.114 0.427,-0.12 0.433,-0.126 0.44,-0.131 0.449,-0.135 0.457,-0.139 0.466,-0.141 0.476,-0.141 Z"
         style="fill:#8e562e;fill-rule:nonzero"
         id="path1946" /></g></g></svg>
