<?xml version="1.0" encoding="UTF-8" standalone="no"?>
<svg
   width="16.845001"
   height="16.845001"
   viewBox="0 0 16.845001 16.845001"
   version="1.1"
   xml:space="preserve"
   style="clip-rule:evenodd;fill-rule:evenodd;stroke-linejoin:round;stroke-miterlimit:2"
   id="svg20568"
   sodipodi:docname="emojis.svg"
   xmlns:inkscape="http://www.inkscape.org/namespaces/inkscape"
   xmlns:sodipodi="http://sodipodi.sourceforge.net/DTD/sodipodi-0.dtd"
   xmlns="http://www.w3.org/2000/svg"
   xmlns:svg="http://www.w3.org/2000/svg"><defs
     id="defs20572" /><sodipodi:namedview
     id="namedview20570"
     pagecolor="#505050"
     bordercolor="#eeeeee"
     borderopacity="1"
     inkscape:pageshadow="0"
     inkscape:pageopacity="0"
     inkscape:pagecheckerboard="0" /><g
     transform="matrix(0.24,0,0,0.24,-407.9742,-992.5314)"
     id="g20566"><g
       transform="matrix(62.5,0,0,62.5,1692.08,4192.61)"
       id="g19474"><rect
         x="0.125"
         y="-0.91299999"
         width="1.123"
         height="1.123"
         style="fill-rule:nonzero"
         id="rect19468" /><rect
         x="0.19499999"
         y="-0.84200001"
         width="0.98199999"
         height="0.98199999"
         style="fill:#0078d7;fill-rule:nonzero"
         id="rect19470" /><path
         d="m 0.726,-0.112 h -0.08 v -0.351 h 0.08 z M 0.687,-0.537 c -0.013,0 -0.024,-0.004 -0.034,-0.012 -0.009,-0.008 -0.014,-0.019 -0.014,-0.033 0,-0.006 0.001,-0.012 0.004,-0.018 0.003,-0.005 0.006,-0.01 0.01,-0.014 0.005,-0.004 0.01,-0.008 0.015,-0.01 0.006,-0.002 0.012,-0.003 0.019,-0.003 0.013,0 0.025,0.004 0.034,0.012 0.009,0.008 0.014,0.019 0.014,0.033 0,0.007 -0.002,0.013 -0.004,0.018 -0.003,0.006 -0.007,0.01 -0.011,0.014 -0.005,0.004 -0.01,0.007 -0.016,0.009 -0.005,0.003 -0.011,0.004 -0.017,0.004 z"
         style="fill:#ffffff;fill-rule:nonzero"
         id="path19472" /></g></g></svg>
