<?xml version="1.0" encoding="UTF-8" standalone="no"?>
<svg
   width="16.845001"
   height="16.845001"
   viewBox="0 0 16.845001 16.845001"
   version="1.1"
   xml:space="preserve"
   style="clip-rule:evenodd;fill-rule:evenodd;stroke-linejoin:round;stroke-miterlimit:2"
   id="svg20568"
   sodipodi:docname="emojis.svg"
   xmlns:inkscape="http://www.inkscape.org/namespaces/inkscape"
   xmlns:sodipodi="http://sodipodi.sourceforge.net/DTD/sodipodi-0.dtd"
   xmlns="http://www.w3.org/2000/svg"
   xmlns:svg="http://www.w3.org/2000/svg"><defs
     id="defs20572" /><sodipodi:namedview
     id="namedview20570"
     pagecolor="#505050"
     bordercolor="#eeeeee"
     borderopacity="1"
     inkscape:pageshadow="0"
     inkscape:pageopacity="0"
     inkscape:pagecheckerboard="0" /><g
     transform="matrix(0.24,0,0,0.24,-387.3798,-992.5314)"
     id="g20566"><g
       transform="matrix(62.5,0,0,62.5,1606.27,4192.61)"
       id="g19466"><rect
         x="0.125"
         y="-0.91299999"
         width="1.123"
         height="1.123"
         style="fill-rule:nonzero"
         id="rect19460" /><rect
         x="0.19499999"
         y="-0.84200001"
         width="0.98199999"
         height="0.98199999"
         style="fill:#0078d7;fill-rule:nonzero"
         id="rect19462" /><path
         d="M 0.704,-0.223 H 0.646 C 0.644,-0.227 0.64,-0.233 0.635,-0.241 0.631,-0.25 0.626,-0.259 0.62,-0.268 0.615,-0.277 0.609,-0.285 0.604,-0.292 0.598,-0.3 0.594,-0.304 0.59,-0.305 0.586,-0.307 0.582,-0.308 0.578,-0.308 l -0.01,0.001 v 0.084 h -0.05 v -0.221 h 0.079 c 0.01,0 0.02,0.001 0.03,0.003 0.01,0.002 0.018,0.005 0.026,0.009 0.007,0.005 0.013,0.011 0.018,0.019 0.004,0.008 0.007,0.018 0.007,0.03 0,0.016 -0.005,0.029 -0.014,0.039 -0.009,0.01 -0.021,0.018 -0.036,0.022 0.007,0.003 0.014,0.008 0.02,0.014 0.005,0.007 0.01,0.014 0.014,0.02 z m 0.158,0 H 0.729 v -0.221 h 0.128 v 0.041 H 0.779 v 0.049 h 0.073 v 0.041 H 0.779 v 0.05 h 0.083 z m 0.173,0 H 0.902 V -0.444 H 1.03 v 0.041 H 0.952 v 0.049 h 0.073 v 0.041 H 0.952 v 0.05 H 1.035 Z M 0.481,-0.403 H 0.403 v 0.054 h 0.072 v 0.04 H 0.403 v 0.086 h -0.05 v -0.221 h 0.128 z m 0.087,-0.003 v 0.061 H 0.59 c 0.01,0 0.018,-0.003 0.025,-0.008 0.007,-0.006 0.01,-0.014 0.01,-0.024 0,-0.012 -0.003,-0.019 -0.01,-0.023 C 0.608,-0.404 0.6,-0.406 0.59,-0.406 Z"
         style="fill:#ffffff;fill-rule:nonzero"
         id="path19464" /></g></g></svg>
