<?xml version="1.0" encoding="UTF-8" standalone="no"?>
<svg
   width="16.845001"
   height="16.845001"
   viewBox="0 0 16.845001 16.845001"
   version="1.1"
   xml:space="preserve"
   style="clip-rule:evenodd;fill-rule:evenodd;stroke-linejoin:round;stroke-miterlimit:2"
   id="svg20568"
   sodipodi:docname="emojis.svg"
   xmlns:inkscape="http://www.inkscape.org/namespaces/inkscape"
   xmlns:sodipodi="http://sodipodi.sourceforge.net/DTD/sodipodi-0.dtd"
   xmlns="http://www.w3.org/2000/svg"
   xmlns:svg="http://www.w3.org/2000/svg"><defs
     id="defs20572" /><sodipodi:namedview
     id="namedview20570"
     pagecolor="#505050"
     bordercolor="#eeeeee"
     borderopacity="1"
     inkscape:pageshadow="0"
     inkscape:pageopacity="0"
     inkscape:pagecheckerboard="0" /><g
     transform="matrix(0.24,0,0,0.24,-243.2094,-992.5314)"
     id="g20566"><g
       transform="matrix(62.5,0,0,62.5,1005.56,4192.61)"
       id="g19410"><rect
         x="0.125"
         y="-0.91299999"
         width="1.123"
         height="1.123"
         style="fill-rule:nonzero"
         id="rect19404" /><rect
         x="0.19499999"
         y="-0.84200001"
         width="0.98199999"
         height="0.98199999"
         style="fill:#0078d7;fill-rule:nonzero"
         id="rect19406" /><path
         d="M 0.915,-0.43 C 0.904,-0.43 0.894,-0.432 0.885,-0.438 0.877,-0.443 0.869,-0.449 0.862,-0.457 0.849,-0.448 0.837,-0.441 0.824,-0.437 0.812,-0.432 0.797,-0.43 0.782,-0.43 0.771,-0.43 0.761,-0.431 0.75,-0.433 0.74,-0.436 0.732,-0.44 0.724,-0.445 0.716,-0.45 0.71,-0.457 0.705,-0.466 0.701,-0.474 0.698,-0.485 0.698,-0.497 0.698,-0.505 0.7,-0.513 0.703,-0.519 0.706,-0.526 0.709,-0.532 0.714,-0.537 0.719,-0.543 0.725,-0.547 0.731,-0.551 0.738,-0.555 0.745,-0.558 0.752,-0.561 0.744,-0.566 0.738,-0.573 0.733,-0.581 0.727,-0.589 0.725,-0.598 0.725,-0.607 c 0,-0.01 0.002,-0.017 0.006,-0.024 0.004,-0.006 0.009,-0.012 0.015,-0.016 0.007,-0.004 0.014,-0.007 0.022,-0.009 0.008,-0.001 0.016,-0.002 0.024,-0.002 0.007,0 0.015,0.001 0.022,0.003 0.008,0.002 0.015,0.005 0.021,0.009 0.006,0.003 0.011,0.008 0.015,0.015 0.004,0.006 0.006,0.013 0.006,0.021 0,0.013 -0.004,0.023 -0.012,0.031 -0.007,0.008 -0.016,0.015 -0.027,0.019 0.011,0.005 0.02,0.011 0.029,0.02 0.009,0.008 0.017,0.017 0.023,0.026 0.009,-0.01 0.015,-0.021 0.018,-0.033 0.004,-0.012 0.006,-0.025 0.006,-0.038 0,-0.004 -0.001,-0.007 -0.001,-0.01 0,-0.004 -0.001,-0.007 -0.002,-0.011 h 0.041 c 0.001,0.004 0.002,0.007 0.003,0.01 0,0.004 0.001,0.007 0.001,0.011 0,0.02 -0.004,0.039 -0.012,0.055 -0.008,0.017 -0.019,0.032 -0.032,0.047 0.004,0.004 0.008,0.008 0.014,0.011 0.005,0.003 0.01,0.005 0.016,0.005 0.005,0 0.01,0 0.015,-0.001 0.005,-10e-4 0.01,-0.002 0.014,-0.005 v 0.037 C 0.938,-0.432 0.926,-0.43 0.915,-0.43 Z M 0.528,-0.111 C 0.524,-0.103 0.519,-0.095 0.512,-0.09 0.506,-0.085 0.498,-0.082 0.488,-0.082 0.48,-0.082 0.473,-0.084 0.467,-0.087 0.461,-0.09 0.456,-0.094 0.452,-0.1 0.448,-0.105 0.445,-0.111 0.444,-0.118 0.442,-0.125 0.441,-0.133 0.441,-0.14 c 0,-0.009 0.001,-0.019 0.004,-0.028 0.002,-0.009 0.006,-0.018 0.011,-0.026 0.005,-0.007 0.012,-0.014 0.019,-0.018 0.008,-0.005 0.017,-0.008 0.027,-0.008 0.007,0 0.013,0.002 0.018,0.004 0.005,0.003 0.009,0.008 0.011,0.014 l 0.002,-0.015 h 0.035 l -0.001,0.009 c -0.001,0.012 -0.003,0.025 -0.004,0.038 -10e-4,0.013 -0.002,0.026 -0.002,0.039 0,0.002 0,0.004 0,0.007 0,0.002 0.001,0.005 0.002,0.007 0.001,0.002 0.002,0.004 0.003,0.005 0.002,0.002 0.004,0.003 0.007,0.003 0.006,0 0.011,-0.003 0.015,-0.007 0.003,-0.004 0.006,-0.01 0.008,-0.016 0.002,-0.006 0.003,-0.013 0.004,-0.02 0.001,-0.006 0.001,-0.012 0.001,-0.016 0,-0.013 -0.002,-0.025 -0.006,-0.035 C 0.59,-0.214 0.584,-0.222 0.577,-0.229 0.569,-0.236 0.56,-0.242 0.549,-0.245 0.538,-0.249 0.527,-0.25 0.514,-0.25 c -0.015,0 -0.029,0.002 -0.041,0.008 -0.013,0.005 -0.023,0.013 -0.033,0.023 -0.009,0.009 -0.016,0.02 -0.021,0.033 -0.005,0.013 -0.007,0.027 -0.007,0.041 0,0.015 0.002,0.029 0.007,0.04 0.004,0.011 0.011,0.021 0.019,0.029 0.009,0.008 0.019,0.013 0.031,0.017 0.012,0.004 0.025,0.006 0.04,0.006 0.011,0 0.022,-0.001 0.032,-0.003 0.011,-0.002 0.021,-0.005 0.031,-0.01 v 0.03 C 0.562,-0.032 0.55,-0.029 0.539,-0.027 0.527,-0.026 0.516,-0.025 0.504,-0.025 0.486,-0.025 0.469,-0.028 0.453,-0.033 0.438,-0.038 0.424,-0.046 0.413,-0.057 0.401,-0.067 0.392,-0.08 0.386,-0.094 0.379,-0.109 0.376,-0.126 0.376,-0.146 c 0,-0.019 0.003,-0.037 0.01,-0.053 0.007,-0.016 0.017,-0.03 0.029,-0.042 0.012,-0.012 0.027,-0.021 0.043,-0.027 0.017,-0.007 0.035,-0.01 0.054,-0.01 0.017,0 0.033,0.002 0.048,0.007 0.015,0.004 0.028,0.011 0.039,0.02 0.012,0.009 0.021,0.02 0.027,0.034 0.007,0.013 0.01,0.029 0.01,0.047 0,0.011 -0.001,0.022 -0.004,0.033 -0.003,0.01 -0.008,0.019 -0.014,0.028 -0.006,0.008 -0.013,0.014 -0.022,0.019 -0.009,0.005 -0.02,0.008 -0.033,0.008 -0.009,0 -0.017,-0.002 -0.024,-0.007 -0.006,-0.005 -0.01,-0.012 -0.011,-0.022 z m 0.056,-0.45 h -0.05 v 0.128 H 0.483 v -0.128 h -0.05 v -0.04 h 0.151 z m 0.226,0.398 c -0.017,0 -0.029,-0.005 -0.039,-0.015 -0.009,-0.011 -0.013,-0.024 -0.013,-0.04 0,-0.018 0.005,-0.032 0.014,-0.043 0.009,-0.012 0.023,-0.017 0.042,-0.017 0.018,0 0.031,0.005 0.039,0.015 0.009,0.01 0.013,0.023 0.013,0.04 0,0.018 -0.005,0.033 -0.014,0.044 -0.009,0.01 -0.023,0.016 -0.042,0.016 z m 0.138,0.112 c -0.017,0 -0.03,-0.005 -0.039,-0.015 -0.009,-0.01 -0.013,-0.024 -0.013,-0.04 0,-0.018 0.004,-0.033 0.014,-0.044 0.009,-0.011 0.023,-0.016 0.042,-0.016 0.017,0 0.03,0.005 0.039,0.015 0.009,0.01 0.013,0.023 0.013,0.04 0,0.017 -0.005,0.032 -0.015,0.043 -0.01,0.012 -0.023,0.017 -0.041,0.017 z M 0.972,-0.275 0.828,-0.054 H 0.79 L 0.934,-0.275 Z M 0.784,-0.466 c 0.011,0 0.021,-0.002 0.03,-0.006 0.01,-0.004 0.019,-0.009 0.027,-0.016 C 0.833,-0.501 0.824,-0.511 0.814,-0.519 0.805,-0.527 0.793,-0.534 0.78,-0.541 c -0.009,0.005 -0.017,0.01 -0.023,0.016 -0.006,0.007 -0.009,0.015 -0.009,0.026 0,0.01 0.003,0.018 0.011,0.024 0.007,0.006 0.015,0.009 0.025,0.009 z M 0.433,-0.625 v -0.029 h 0.151 v 0.029 z m 0.075,0.432 c -0.006,0 -0.011,0.002 -0.015,0.006 -0.004,0.003 -0.007,0.008 -0.01,0.013 -0.002,0.006 -0.004,0.012 -0.005,0.018 -0.001,0.006 -0.001,0.011 -0.001,0.016 0,0.003 0,0.007 0.001,0.01 0,0.004 0.001,0.008 0.003,0.011 0.002,0.003 0.004,0.005 0.007,0.007 0.002,0.002 0.006,0.003 0.01,0.003 0.006,0 0.011,-0.002 0.015,-0.006 0.004,-0.004 0.008,-0.009 0.01,-0.015 0.002,-0.006 0.004,-0.012 0.005,-0.019 0,-0.006 0.001,-0.012 0.001,-0.017 0,-0.007 -0.002,-0.013 -0.005,-0.018 C 0.521,-0.19 0.515,-0.193 0.508,-0.193 Z m 0.442,0.054 c -0.009,0 -0.015,0.003 -0.018,0.01 -0.003,0.007 -0.004,0.014 -0.004,0.021 0,0.008 0.001,0.014 0.004,0.021 0.003,0.006 0.009,0.009 0.018,0.009 0.009,0 0.015,-0.003 0.018,-0.01 0.002,-0.006 0.004,-0.013 0.004,-0.021 0,-0.003 -0.001,-0.007 -0.001,-0.01 C 0.97,-0.123 0.969,-0.126 0.967,-0.129 0.965,-0.132 0.963,-0.134 0.96,-0.136 0.957,-0.138 0.954,-0.139 0.95,-0.139 Z M 0.813,-0.251 c -0.009,0 -0.015,0.003 -0.018,0.01 -0.003,0.007 -0.004,0.014 -0.004,0.021 0,0.008 0.001,0.015 0.004,0.021 0.003,0.006 0.009,0.009 0.017,0.009 0.009,0 0.015,-0.004 0.018,-0.01 0.003,-0.007 0.004,-0.014 0.004,-0.021 0,-0.008 -0.001,-0.015 -0.004,-0.021 C 0.827,-0.248 0.822,-0.251 0.813,-0.251 Z M 0.812,-0.606 C 0.812,-0.612 0.81,-0.617 0.806,-0.62 0.802,-0.624 0.798,-0.625 0.792,-0.625 c -0.006,0 -0.011,0.001 -0.016,0.005 -0.005,0.003 -0.007,0.008 -0.007,0.015 0,0.005 0.002,0.011 0.005,0.016 0.004,0.005 0.009,0.008 0.014,0.011 C 0.794,-0.58 0.8,-0.583 0.805,-0.588 0.81,-0.593 0.812,-0.599 0.812,-0.606 Z"
         style="fill:#ffffff;fill-rule:nonzero"
         id="path19408" /></g></g></svg>
