<?xml version="1.0" encoding="UTF-8" standalone="no"?>
<svg
   width="16.845001"
   height="16.845001"
   viewBox="0 0 16.845001 16.845001"
   version="1.1"
   xml:space="preserve"
   style="clip-rule:evenodd;fill-rule:evenodd;stroke-linejoin:round;stroke-miterlimit:2"
   id="svg20568"
   sodipodi:docname="emojis.svg"
   xmlns:inkscape="http://www.inkscape.org/namespaces/inkscape"
   xmlns:sodipodi="http://sodipodi.sourceforge.net/DTD/sodipodi-0.dtd"
   xmlns="http://www.w3.org/2000/svg"
   xmlns:svg="http://www.w3.org/2000/svg"><defs
     id="defs20572" /><sodipodi:namedview
     id="namedview20570"
     pagecolor="#505050"
     bordercolor="#eeeeee"
     borderopacity="1"
     inkscape:pageshadow="0"
     inkscape:pageopacity="0"
     inkscape:pagecheckerboard="0" /><g
     transform="matrix(0.24,0,0,0.24,-469.7622,-992.5314)"
     id="g20566"><g
       transform="matrix(62.5,0,0,62.5,1949.53,4192.61)"
       id="g19498"><rect
         x="0.125"
         y="-0.91299999"
         width="1.123"
         height="1.123"
         style="fill-rule:nonzero"
         id="rect19492" /><rect
         x="0.19499999"
         y="-0.84200001"
         width="0.98199999"
         height="0.98199999"
         style="fill:#0078d7;fill-rule:nonzero"
         id="rect19494" /><path
         d="M 1.055,-0.444 0.997,-0.223 H 0.941 L 0.905,-0.364 C 0.903,-0.373 0.901,-0.382 0.901,-0.389 0.896,-0.361 0.889,-0.333 0.882,-0.305 0.874,-0.278 0.866,-0.25 0.859,-0.223 H 0.801 L 0.743,-0.444 h 0.055 l 0.031,0.148 c 0.001,0.004 0.001,0.008 0.002,0.012 0,0.004 0,0.008 0.001,0.013 0,-0.005 0.001,-0.009 0.002,-0.013 0.001,-0.004 0.002,-0.009 0.003,-0.013 l 0.04,-0.147 h 0.054 l 0.036,0.149 c 0.001,0.003 0.001,0.007 0.002,0.012 0,0.004 0.001,0.008 0.001,0.012 L 0.974,-0.296 1.005,-0.444 Z M 0.54,-0.223 H 0.489 C 0.472,-0.248 0.455,-0.274 0.437,-0.301 0.419,-0.327 0.402,-0.354 0.387,-0.38 c 0,0.006 0.001,0.012 0.001,0.018 v 0.139 H 0.34 v -0.221 h 0.054 c 0.017,0.026 0.033,0.051 0.05,0.076 0.017,0.025 0.034,0.051 0.049,0.077 0,-0.004 -0.001,-0.007 -0.001,-0.01 V -0.444 H 0.54 Z m 0.184,0 H 0.591 v -0.221 h 0.128 v 0.041 H 0.641 v 0.049 h 0.072 v 0.041 H 0.641 v 0.05 h 0.083 z"
         style="fill:#ffffff;fill-rule:nonzero"
         id="path19496" /></g></g></svg>
