<?xml version="1.0" encoding="UTF-8" standalone="no"?>
<svg
   width="16.845001"
   height="16.845001"
   viewBox="0 0 16.845001 16.845001"
   version="1.1"
   xml:space="preserve"
   style="clip-rule:evenodd;fill-rule:evenodd;stroke-linejoin:round;stroke-miterlimit:2"
   id="svg20568"
   sodipodi:docname="emojis.svg"
   xmlns:inkscape="http://www.inkscape.org/namespaces/inkscape"
   xmlns:sodipodi="http://sodipodi.sourceforge.net/DTD/sodipodi-0.dtd"
   xmlns="http://www.w3.org/2000/svg"
   xmlns:svg="http://www.w3.org/2000/svg"><defs
     id="defs20572" /><sodipodi:namedview
     id="namedview20570"
     pagecolor="#505050"
     bordercolor="#eeeeee"
     borderopacity="1"
     inkscape:pageshadow="0"
     inkscape:pageopacity="0"
     inkscape:pagecheckerboard="0" /><g
     transform="matrix(0.24,0,0,0.24,-222.61308,-992.5314)"
     id="g20566"><g
       transform="matrix(62.5,0,0,62.5,919.742,4192.61)"
       id="g19402"><rect
         x="0.125"
         y="-0.91299999"
         width="1.123"
         height="1.123"
         style="fill-rule:nonzero"
         id="rect19396" /><rect
         x="0.19499999"
         y="-0.84200001"
         width="0.98199999"
         height="0.98199999"
         style="fill:#0078d7;fill-rule:nonzero"
         id="rect19398" /><path
         d="m 0.877,-0.24 v 0.139 h 0.026 v 0.037 H 0.877 v 0.045 H 0.833 V -0.064 H 0.736 V -0.103 C 0.755,-0.123 0.772,-0.145 0.789,-0.168 0.806,-0.192 0.82,-0.216 0.832,-0.24 Z M 0.796,-0.438 H 0.89 v 0.04 H 0.743 v -0.017 c 0,-0.013 0.002,-0.024 0.007,-0.034 C 0.755,-0.458 0.761,-0.467 0.768,-0.475 0.775,-0.483 0.783,-0.489 0.792,-0.496 0.8,-0.502 0.808,-0.508 0.815,-0.514 0.823,-0.52 0.829,-0.526 0.833,-0.533 0.838,-0.54 0.841,-0.547 0.841,-0.555 0.841,-0.566 0.838,-0.573 0.832,-0.577 0.825,-0.582 0.818,-0.584 0.808,-0.584 c -0.01,0 -0.02,0.002 -0.029,0.006 -0.01,0.005 -0.018,0.01 -0.026,0.016 v -0.042 c 0.01,-0.007 0.02,-0.011 0.032,-0.014 0.011,-0.004 0.022,-0.005 0.034,-0.005 0.01,0 0.019,0.001 0.028,0.004 0.008,0.002 0.016,0.006 0.022,0.012 0.007,0.005 0.012,0.011 0.016,0.019 0.003,0.008 0.005,0.017 0.005,0.028 0,0.012 -0.002,0.023 -0.007,0.032 -0.004,0.009 -0.01,0.017 -0.017,0.024 -0.007,0.008 -0.015,0.014 -0.023,0.02 -0.008,0.006 -0.015,0.011 -0.022,0.016 -0.007,0.005 -0.013,0.01 -0.018,0.015 -0.004,0.004 -0.007,0.009 -0.007,0.015 z m -0.317,0.412 v -0.043 c 0.008,0.006 0.016,0.01 0.025,0.013 0.009,0.002 0.018,0.004 0.027,0.004 0.005,0 0.01,-0.001 0.015,-0.002 C 0.55,-0.055 0.555,-0.057 0.558,-0.059 0.562,-0.062 0.565,-0.065 0.567,-0.069 0.57,-0.073 0.571,-0.077 0.571,-0.083 0.571,-0.09 0.569,-0.096 0.564,-0.101 0.56,-0.105 0.555,-0.108 0.549,-0.11 0.543,-0.112 0.536,-0.113 0.529,-0.113 0.521,-0.114 0.515,-0.114 0.509,-0.114 H 0.502 V -0.151 H 0.51 c 0.005,0 0.011,0 0.018,0 0.006,-0.001 0.012,-0.002 0.017,-0.004 0.006,-0.001 0.01,-0.004 0.014,-0.008 0.003,-0.004 0.005,-0.01 0.005,-0.017 0,-0.01 -0.003,-0.017 -0.01,-0.021 -0.006,-0.004 -0.014,-0.006 -0.023,-0.006 -0.008,0 -0.016,0.002 -0.023,0.004 -0.007,0.003 -0.014,0.006 -0.02,0.011 v -0.04 c 0.008,-0.004 0.017,-0.008 0.026,-0.009 0.009,-0.002 0.019,-0.003 0.028,-0.003 0.008,0 0.017,0.001 0.026,0.003 0.008,0.002 0.016,0.005 0.023,0.01 0.007,0.004 0.012,0.01 0.016,0.017 0.005,0.006 0.007,0.015 0.007,0.025 0,0.015 -0.004,0.027 -0.011,0.036 -0.008,0.008 -0.019,0.015 -0.033,0.018 0.014,0.003 0.027,0.008 0.036,0.017 0.009,0.008 0.014,0.02 0.014,0.036 0,0.012 -0.002,0.023 -0.007,0.031 -0.005,0.009 -0.012,0.016 -0.019,0.021 -0.008,0.005 -0.018,0.009 -0.028,0.011 -0.01,0.003 -0.02,0.004 -0.031,0.004 -0.009,0 -0.019,-0.001 -0.028,-0.002 -0.01,-0.002 -0.019,-0.005 -0.028,-0.009 z m 0.11,-0.598 v 0.226 H 0.541 V -0.569 C 0.535,-0.564 0.527,-0.559 0.519,-0.556 0.511,-0.553 0.503,-0.551 0.494,-0.55 V -0.591 C 0.506,-0.594 0.517,-0.599 0.529,-0.604 0.54,-0.61 0.55,-0.617 0.56,-0.624 Z M 0.78,-0.101 H 0.833 V -0.178 C 0.825,-0.164 0.817,-0.151 0.808,-0.138 0.799,-0.125 0.79,-0.113 0.78,-0.101 Z"
         style="fill:#ffffff;fill-rule:nonzero"
         id="path19400" /></g></g></svg>
