<?xml version="1.0" encoding="UTF-8" standalone="no"?>
<svg
   width="16.845001"
   height="16.845001"
   viewBox="0 0 16.845001 16.845001"
   version="1.1"
   xml:space="preserve"
   style="clip-rule:evenodd;fill-rule:evenodd;stroke-linejoin:round;stroke-miterlimit:2"
   id="svg20568"
   sodipodi:docname="emojis.svg"
   xmlns:inkscape="http://www.inkscape.org/namespaces/inkscape"
   xmlns:sodipodi="http://sodipodi.sourceforge.net/DTD/sodipodi-0.dtd"
   xmlns="http://www.w3.org/2000/svg"
   xmlns:svg="http://www.w3.org/2000/svg"><defs
     id="defs20572" /><sodipodi:namedview
     id="namedview20570"
     pagecolor="#505050"
     bordercolor="#eeeeee"
     borderopacity="1"
     inkscape:pageshadow="0"
     inkscape:pageopacity="0"
     inkscape:pagecheckerboard="0" /><g
     transform="matrix(0.24,0,0,0.24,-428.571,-992.5314)"
     id="g20566"><g
       transform="matrix(62.5,0,0,62.5,1777.9,4192.61)"
       id="g19482"><rect
         x="0.125"
         y="-0.91299999"
         width="1.123"
         height="1.123"
         style="fill-rule:nonzero"
         id="rect19476" /><rect
         x="0.19499999"
         y="-0.84200001"
         width="0.98199999"
         height="0.98199999"
         style="fill:#886ce4;fill-rule:nonzero"
         id="rect19478" /><path
         d="m 0.593,-0.112 v -0.492 h 0.142 c 0.04,0 0.077,0.005 0.111,0.013 0.033,0.009 0.062,0.022 0.086,0.041 0.023,0.019 0.042,0.044 0.055,0.074 0.013,0.031 0.02,0.068 0.02,0.112 0,0.041 -0.007,0.077 -0.022,0.108 -0.014,0.032 -0.034,0.058 -0.059,0.079 -0.025,0.022 -0.054,0.038 -0.088,0.049 -0.034,0.01 -0.07,0.016 -0.109,0.016 z m 0.081,-0.423 v 0.354 h 0.065 c 0.059,0 0.104,-0.016 0.135,-0.047 0.031,-0.031 0.047,-0.076 0.047,-0.134 0,-0.059 -0.015,-0.103 -0.046,-0.131 C 0.844,-0.521 0.8,-0.535 0.743,-0.535 Z M 0.481,-0.112 H 0.397 v -0.492 h 0.084 z"
         style="fill:#ffffff;fill-rule:nonzero"
         id="path19480" /></g></g></svg>
