<?xml version="1.0" encoding="UTF-8" standalone="no"?>
<svg
   width="16.845001"
   height="16.845001"
   viewBox="0 0 16.845001 16.845001"
   version="1.1"
   xml:space="preserve"
   style="clip-rule:evenodd;fill-rule:evenodd;stroke-linejoin:round;stroke-miterlimit:2"
   id="svg20568"
   sodipodi:docname="emojis.svg"
   xmlns:inkscape="http://www.inkscape.org/namespaces/inkscape"
   xmlns:sodipodi="http://sodipodi.sourceforge.net/DTD/sodipodi-0.dtd"
   xmlns="http://www.w3.org/2000/svg"
   xmlns:svg="http://www.w3.org/2000/svg"><defs
     id="defs20572" /><sodipodi:namedview
     id="namedview20570"
     pagecolor="#505050"
     bordercolor="#eeeeee"
     borderopacity="1"
     inkscape:pageshadow="0"
     inkscape:pageopacity="0"
     inkscape:pagecheckerboard="0" /><g
     transform="matrix(0.24,0,0,0.24,-572.739,-992.5314)"
     id="g20566"><g
       transform="matrix(62.5,0,0,62.5,2378.6,4192.61)"
       id="g19538"><rect
         x="0.125"
         y="-0.91299999"
         width="1.123"
         height="1.123"
         style="fill-rule:nonzero"
         id="rect19532" /><rect
         x="0.19499999"
         y="-0.84200001"
         width="0.98199999"
         height="0.98199999"
         style="fill:#f03a17;fill-rule:nonzero"
         id="rect19534" /><path
         d="M 0.824,-0.231 V -0.28 c 0.009,0.007 0.018,0.012 0.028,0.016 0.011,0.004 0.021,0.006 0.033,0.006 0.003,0 0.007,0 0.012,-0.001 0.004,0 0.008,-0.002 0.012,-0.003 C 0.913,-0.264 0.916,-0.266 0.918,-0.269 0.921,-0.272 0.922,-0.276 0.922,-0.28 0.922,-0.287 0.92,-0.292 0.915,-0.296 0.91,-0.301 0.904,-0.305 0.896,-0.308 0.889,-0.312 0.881,-0.315 0.873,-0.319 0.864,-0.323 0.856,-0.327 0.849,-0.333 0.841,-0.338 0.835,-0.345 0.83,-0.353 0.825,-0.36 0.823,-0.37 0.823,-0.382 c 0,-0.012 0.002,-0.022 0.008,-0.03 0.005,-0.009 0.012,-0.015 0.02,-0.021 0.008,-0.005 0.017,-0.009 0.028,-0.011 0.01,-0.002 0.02,-0.003 0.031,-0.003 0.009,0 0.018,0 0.028,0.001 0.009,0.001 0.018,0.003 0.027,0.007 v 0.046 C 0.958,-0.398 0.95,-0.402 0.94,-0.404 0.93,-0.407 0.921,-0.408 0.913,-0.408 c -0.004,0 -0.008,0 -0.012,0.001 -0.004,0 -0.008,0.002 -0.012,0.003 -0.004,0.002 -0.007,0.004 -0.01,0.007 -0.002,0.003 -0.004,0.007 -0.004,0.011 0,0.006 0.003,0.012 0.008,0.016 0.005,0.004 0.011,0.007 0.018,0.011 0.007,0.003 0.015,0.007 0.024,0.01 0.009,0.004 0.017,0.009 0.024,0.014 0.007,0.006 0.013,0.012 0.018,0.02 0.005,0.008 0.008,0.018 0.008,0.03 0,0.013 -0.003,0.024 -0.008,0.032 -0.005,0.009 -0.012,0.015 -0.02,0.02 C 0.939,-0.228 0.93,-0.224 0.919,-0.222 0.909,-0.22 0.898,-0.219 0.887,-0.219 0.876,-0.219 0.866,-0.22 0.855,-0.221 0.844,-0.223 0.834,-0.226 0.824,-0.231 Z M 0.686,-0.219 C 0.669,-0.219 0.654,-0.222 0.641,-0.227 0.628,-0.233 0.616,-0.24 0.607,-0.25 0.598,-0.26 0.591,-0.272 0.586,-0.285 0.581,-0.299 0.578,-0.314 0.578,-0.33 c 0,-0.017 0.003,-0.033 0.008,-0.047 0.005,-0.014 0.012,-0.027 0.021,-0.037 0.01,-0.01 0.021,-0.019 0.035,-0.024 0.014,-0.006 0.029,-0.009 0.047,-0.009 0.017,0 0.031,0.003 0.045,0.008 0.013,0.006 0.024,0.014 0.033,0.024 0.009,0.01 0.016,0.022 0.021,0.036 0.005,0.014 0.007,0.029 0.007,0.045 0,0.016 -0.003,0.031 -0.008,0.045 -0.005,0.014 -0.012,0.027 -0.021,0.037 -0.01,0.01 -0.021,0.019 -0.035,0.024 -0.013,0.006 -0.029,0.009 -0.045,0.009 z m 0.001,-0.185 c -0.01,0 -0.018,0.002 -0.025,0.006 -0.008,0.004 -0.013,0.009 -0.018,0.016 -0.005,0.007 -0.008,0.014 -0.01,0.023 -0.003,0.008 -0.004,0.017 -0.004,0.026 0,0.009 0.001,0.017 0.004,0.026 0.002,0.008 0.005,0.016 0.009,0.023 0.005,0.006 0.01,0.012 0.017,0.016 0.007,0.004 0.016,0.006 0.026,0.006 0.01,0 0.019,-0.002 0.026,-0.006 C 0.719,-0.271 0.725,-0.277 0.729,-0.283 0.734,-0.29 0.737,-0.298 0.739,-0.306 0.741,-0.315 0.742,-0.323 0.742,-0.332 0.742,-0.341 0.741,-0.35 0.74,-0.358 0.738,-0.367 0.735,-0.375 0.73,-0.381 0.726,-0.388 0.72,-0.394 0.713,-0.398 0.706,-0.402 0.698,-0.404 0.687,-0.404 Z M 0.402,-0.231 V -0.28 c 0.009,0.007 0.018,0.012 0.029,0.016 0.01,0.004 0.021,0.006 0.032,0.006 0.004,0 0.008,0 0.012,-0.001 0.004,0 0.008,-0.002 0.012,-0.003 0.004,-0.002 0.007,-0.004 0.01,-0.007 C 0.499,-0.272 0.5,-0.276 0.5,-0.28 0.5,-0.287 0.498,-0.292 0.493,-0.296 0.488,-0.301 0.482,-0.305 0.475,-0.308 0.468,-0.312 0.46,-0.315 0.451,-0.319 0.442,-0.322 0.434,-0.326 0.427,-0.332 0.42,-0.337 0.414,-0.344 0.409,-0.352 0.404,-0.36 0.401,-0.37 0.401,-0.382 c 0,-0.012 0.003,-0.022 0.008,-0.03 0.005,-0.009 0.012,-0.015 0.02,-0.021 0.009,-0.005 0.018,-0.009 0.028,-0.011 0.011,-0.002 0.021,-0.003 0.031,-0.003 0.01,0 0.019,0 0.028,0.001 0.01,0.001 0.019,0.003 0.027,0.007 v 0.046 C 0.536,-0.398 0.528,-0.402 0.519,-0.405 0.509,-0.407 0.5,-0.408 0.491,-0.408 c -0.003,0 -0.007,0 -0.012,0.001 -0.004,0 -0.008,0.002 -0.012,0.003 -0.004,0.002 -0.007,0.004 -0.009,0.007 -0.003,0.003 -0.004,0.007 -0.004,0.011 0,0.006 0.002,0.011 0.007,0.015 0.005,0.004 0.011,0.008 0.018,0.012 0.008,0.003 0.016,0.007 0.024,0.01 0.009,0.004 0.017,0.009 0.024,0.014 0.008,0.006 0.014,0.012 0.019,0.02 0.005,0.008 0.007,0.018 0.007,0.03 0,0.013 -0.002,0.024 -0.008,0.032 -0.005,0.008 -0.012,0.015 -0.02,0.02 -0.008,0.005 -0.018,0.009 -0.028,0.011 -0.01,0.002 -0.021,0.003 -0.032,0.003 -0.01,0 -0.021,-0.001 -0.032,-0.002 -0.011,-0.002 -0.021,-0.005 -0.031,-0.01 z"
         style="fill:#ffffff;fill-rule:nonzero"
         id="path19536" /></g></g></svg>
