<?xml version="1.0" encoding="UTF-8" standalone="no"?>
<svg
   width="16.845001"
   height="16.845001"
   viewBox="0 0 16.845001 16.845001"
   version="1.1"
   xml:space="preserve"
   style="clip-rule:evenodd;fill-rule:evenodd;stroke-linejoin:round;stroke-miterlimit:2"
   id="svg20568"
   sodipodi:docname="emojis.svg"
   xmlns:inkscape="http://www.inkscape.org/namespaces/inkscape"
   xmlns:sodipodi="http://sodipodi.sourceforge.net/DTD/sodipodi-0.dtd"
   xmlns="http://www.w3.org/2000/svg"
   xmlns:svg="http://www.w3.org/2000/svg"><defs
     id="defs20572" /><sodipodi:namedview
     id="namedview20570"
     pagecolor="#505050"
     bordercolor="#eeeeee"
     borderopacity="1"
     inkscape:pageshadow="0"
     inkscape:pageopacity="0"
     inkscape:pagecheckerboard="0" /><g
     transform="matrix(0.24,0,0,0.24,-716.9094,-992.5314)"
     id="g20566"><g
       transform="matrix(62.5,0,0,62.5,2979.31,4192.61)"
       id="g19594"><rect
         x="0.125"
         y="-0.91299999"
         width="1.123"
         height="1.123"
         style="fill-rule:nonzero"
         id="rect19588" /><rect
         x="0.19499999"
         y="-0.84200001"
         width="0.98199999"
         height="0.98199999"
         style="fill:#16c60c;fill-rule:nonzero"
         id="rect19590" /><path
         d="M 0.746,-0.119 0.747,-0.1 c 0,0.003 -0.001,0.006 -0.001,0.011 -0.001,0.004 -0.003,0.006 -0.007,0.006 H 0.685 c -0.005,0 -0.007,-0.002 -0.007,-0.006 0,-0.021 0.001,-0.043 0.001,-0.064 C 0.68,-0.175 0.68,-0.196 0.68,-0.218 v -0.066 c 0,-0.015 0,-0.031 -0.001,-0.046 0,-0.015 -0.001,-0.03 -0.001,-0.046 0,-0.002 0.001,-0.003 0.002,-0.005 0.001,-0.001 0.002,-0.002 0.004,-0.002 0.013,0 0.027,0 0.039,0 0.013,0.001 0.026,0.001 0.04,0.001 H 0.88 c 0.013,0 0.026,0 0.039,-0.001 0.013,0 0.026,0 0.039,0 0.005,0 0.008,0.002 0.008,0.007 0,0.014 -0.001,0.027 -0.001,0.041 -0.001,0.013 -0.001,0.027 -0.001,0.041 v 0.075 c 0,0.022 0,0.043 0.001,0.064 0,0.021 0.001,0.042 0.001,0.064 0,0.004 -0.003,0.007 -0.008,0.007 H 0.905 C 0.902,-0.084 0.899,-0.086 0.898,-0.09 0.897,-0.093 0.896,-0.097 0.896,-0.102 L 0.897,-0.119 Z M 0.578,-0.322 c 0,0.027 0,0.054 0.001,0.081 0,0.027 0,0.054 0,0.081 0,0.019 -0.002,0.034 -0.006,0.044 -0.004,0.01 -0.011,0.017 -0.019,0.022 -0.008,0.005 -0.018,0.007 -0.03,0.008 -0.011,10e-4 -0.025,0.002 -0.04,0.002 h -0.01 c -0.002,0 -0.004,-0.001 -0.005,-0.001 -0.002,0 -0.004,-10e-4 -0.007,-0.002 0,0 -0.001,-0.004 -0.003,-0.01 C 0.457,-0.103 0.455,-0.11 0.452,-0.118 0.45,-0.126 0.448,-0.134 0.445,-0.141 0.443,-0.148 0.441,-0.153 0.439,-0.155 c 0.009,0 0.018,0.001 0.027,0.001 0.009,0 0.018,0 0.027,0 0.007,0 0.012,-0.001 0.014,-0.003 0.003,-0.003 0.004,-0.008 0.004,-0.015 v -0.126 l -0.032,0.01 C 0.477,-0.287 0.475,-0.286 0.472,-0.285 0.469,-0.283 0.466,-0.282 0.463,-0.28 0.46,-0.279 0.457,-0.277 0.455,-0.276 0.452,-0.275 0.45,-0.274 0.448,-0.274 0.444,-0.274 0.441,-0.278 0.438,-0.284 0.436,-0.29 0.434,-0.298 0.432,-0.306 0.43,-0.314 0.428,-0.322 0.427,-0.33 0.426,-0.338 0.425,-0.344 0.425,-0.347 0.439,-0.349 0.454,-0.351 0.469,-0.354 0.483,-0.357 0.497,-0.361 0.511,-0.367 V -0.484 H 0.437 c -0.001,0 -0.002,0.001 -0.003,0.001 -0.004,0 -0.005,-0.002 -0.005,-0.006 v -0.05 c 0,-0.005 0.002,-0.007 0.008,-0.007 0.009,0 0.018,0 0.027,0.001 0.009,0.001 0.019,0.001 0.028,0.001 h 0.009 c 0.003,0 0.006,0 0.01,0 v -0.03 c 0,-0.016 -0.001,-0.031 -0.001,-0.047 0,-0.015 -0.002,-0.03 -0.004,-0.046 0.003,0 0.009,0 0.018,0.001 0.009,0 0.018,0.001 0.028,0.002 0.009,0.001 0.018,0.002 0.025,0.004 0.008,0.002 0.011,0.004 0.011,0.007 0,0.002 0,0.005 -0.001,0.007 -0.001,0.001 -0.002,0.003 -0.003,0.005 -0.001,0.003 -0.002,0.008 -0.003,0.013 -0.001,0.006 -0.002,0.012 -0.002,0.019 0,0.006 0,0.013 -0.001,0.021 0,0.007 0,0.014 0,0.02 v 0.024 h 0.061 c 0.001,-0.001 0.002,-0.001 0.003,-0.001 0.003,0 0.004,0.002 0.004,0.006 v 0.05 c 0,0.004 -0.002,0.007 -0.007,0.007 H 0.578 v 0.093 C 0.589,-0.392 0.6,-0.396 0.611,-0.4 0.622,-0.405 0.632,-0.409 0.643,-0.414 L 0.65,-0.417 c -0.001,0.006 -0.002,0.012 -0.002,0.018 0,0.006 -0.001,0.011 -0.001,0.017 v 0.02 c 0,0.003 0,0.005 0,0.007 -0.001,0.002 -0.002,0.003 -0.003,0.005 -0.001,0.001 -0.005,0.003 -0.011,0.006 -0.006,0.002 -0.013,0.005 -0.02,0.008 z M 0.74,-0.588 c 0.012,-0.002 0.027,-0.006 0.044,-0.01 0.018,-0.004 0.035,-0.008 0.052,-0.013 0.018,-0.006 0.034,-0.011 0.05,-0.018 0.016,-0.007 0.029,-0.014 0.039,-0.022 0.002,0.003 0.006,0.007 0.011,0.012 0.005,0.005 0.01,0.011 0.015,0.017 0.005,0.007 0.009,0.013 0.013,0.018 0.004,0.006 0.006,0.01 0.006,0.014 0,0.003 -0.002,0.004 -0.004,0.005 C 0.963,-0.584 0.96,-0.583 0.958,-0.583 0.952,-0.582 0.946,-0.581 0.941,-0.58 0.936,-0.578 0.93,-0.577 0.925,-0.575 0.894,-0.566 0.864,-0.558 0.833,-0.55 0.802,-0.542 0.771,-0.536 0.74,-0.532 v 0.024 c 0,0.013 0.005,0.021 0.015,0.026 0.002,0 0.006,0.001 0.013,0.001 0.007,0.001 0.014,0.001 0.022,0.001 0.008,0 0.016,0.001 0.023,0.001 h 0.016 c 0.004,0 0.011,-0.001 0.021,-0.001 0.009,0 0.018,0 0.028,-0.001 0.009,-0.001 0.018,-0.002 0.027,-0.003 0.008,-0.002 0.014,-0.004 0.018,-0.007 0.003,-0.002 0.006,-0.006 0.008,-0.011 0.002,-0.004 0.004,-0.009 0.005,-0.015 0.001,-0.005 0.002,-0.011 0.002,-0.016 0.001,-0.006 0.001,-0.01 0.001,-0.014 0.007,0.004 0.015,0.008 0.023,0.011 0.008,0.003 0.016,0.006 0.024,0.01 0.005,0.001 0.009,0.003 0.012,0.005 0.003,0.003 0.004,0.007 0.004,0.012 0,0.007 0,0.014 -0.002,0.021 -0.002,0.007 -0.004,0.014 -0.007,0.02 -0.003,0.007 -0.007,0.013 -0.011,0.019 -0.005,0.006 -0.01,0.011 -0.015,0.014 -0.006,0.004 -0.016,0.007 -0.029,0.009 -0.013,0.003 -0.027,0.004 -0.043,0.005 -0.015,0.001 -0.03,0.002 -0.045,0.002 -0.015,0 -0.027,0.001 -0.037,0.001 H 0.792 0.772 C 0.76,-0.418 0.749,-0.419 0.737,-0.42 0.726,-0.421 0.715,-0.424 0.706,-0.428 0.697,-0.432 0.689,-0.439 0.683,-0.447 0.677,-0.455 0.674,-0.466 0.674,-0.48 c 0,-0.016 0,-0.032 0.001,-0.048 0,-0.016 0,-0.032 0,-0.048 0,-0.014 0,-0.029 -0.001,-0.044 0,-0.015 -0.001,-0.03 -0.003,-0.045 0.003,0 0.008,0.001 0.017,0.001 0.008,0 0.017,0 0.025,0.001 0.009,0.001 0.017,0.003 0.024,0.005 0.007,0.001 0.011,0.004 0.011,0.007 0,0.002 -0.001,0.004 -0.002,0.005 0,0.002 -0.001,0.004 -0.002,0.005 -0.002,0.006 -0.003,0.011 -0.004,0.017 0,0.006 0,0.012 0,0.019 z m 0.006,0.362 v 0.05 h 0.151 v -0.05 z m 0,-0.054 H 0.897 V -0.325 H 0.746 Z"
         style="fill:#ffffff;fill-rule:nonzero"
         id="path19592" /></g></g></svg>
