<?xml version="1.0" encoding="UTF-8" standalone="no"?>
<svg
   width="16.845001"
   height="16.845001"
   viewBox="0 0 16.845001 16.845001"
   version="1.1"
   xml:space="preserve"
   style="clip-rule:evenodd;fill-rule:evenodd;stroke-linejoin:round;stroke-miterlimit:2"
   id="svg20568"
   sodipodi:docname="emojis.svg"
   xmlns:inkscape="http://www.inkscape.org/namespaces/inkscape"
   xmlns:sodipodi="http://sodipodi.sourceforge.net/DTD/sodipodi-0.dtd"
   xmlns="http://www.w3.org/2000/svg"
   xmlns:svg="http://www.w3.org/2000/svg"><defs
     id="defs20572" /><sodipodi:namedview
     id="namedview20570"
     pagecolor="#505050"
     bordercolor="#eeeeee"
     borderopacity="1"
     inkscape:pageshadow="0"
     inkscape:pageopacity="0"
     inkscape:pagecheckerboard="0" /><g
     transform="matrix(0.24,0,0,0.24,-634.527,-992.5314)"
     id="g20566"><g
       transform="matrix(62.5,0,0,62.5,2636.05,4192.61)"
       id="g19562"><rect
         x="0.125"
         y="-0.91299999"
         width="1.123"
         height="1.123"
         style="fill-rule:nonzero"
         id="rect19556" /><rect
         x="0.19499999"
         y="-0.84200001"
         width="0.98199999"
         height="0.98199999"
         style="fill:#0078d7;fill-rule:nonzero"
         id="rect19558" /><path
         d="M 0.548,-0.242 V -0.506 H 0.466 c -0.013,0 -0.026,0 -0.038,0.001 -0.013,0 -0.026,0.001 -0.039,0.002 -0.006,0 -0.013,0 -0.019,0.001 -0.006,0.001 -0.012,0.001 -0.018,0.001 -0.004,0 -0.007,-0.002 -0.009,-0.007 C 0.34,-0.512 0.339,-0.518 0.338,-0.524 0.337,-0.531 0.336,-0.538 0.336,-0.545 c 0,-0.007 0,-0.012 0,-0.017 v -0.035 c 0.021,0.002 0.043,0.003 0.064,0.003 0.021,0.001 0.042,0.001 0.063,0.001 h 0.039 c 0.021,0 0.042,0 0.063,-0.001 0.021,0 0.042,-0.001 0.063,-0.001 0.006,0 0.009,0.001 0.01,0.004 0.001,0.002 0.002,0.006 0.002,0.01 0,0.022 0,0.043 -0.001,0.063 0,0.021 -0.001,0.042 -0.001,0.063 v 0.191 c 0,0.024 0.001,0.049 0.002,0.073 0.001,0.024 0.001,0.048 0.001,0.073 0,0.003 -0.002,0.006 -0.005,0.008 -0.003,0.002 -0.008,0.003 -0.013,0.004 -0.005,0.001 -0.01,0.002 -0.017,0.002 -0.006,0 -0.011,0 -0.017,0 H 0.57 C 0.56,-0.104 0.554,-0.107 0.551,-0.112 0.548,-0.117 0.547,-0.123 0.547,-0.13 L 0.548,-0.155 H 0.47 c -0.021,0 -0.042,0.001 -0.063,0.002 -0.02,0.001 -0.041,0.002 -0.062,0.002 -0.005,0 -0.007,-0.002 -0.008,-0.004 C 0.336,-0.157 0.335,-0.16 0.334,-0.164 0.332,-0.173 0.331,-0.183 0.33,-0.193 c 0,-0.01 0,-0.02 0,-0.03 v -0.022 c 0.022,0.002 0.044,0.002 0.066,0.003 0.022,0 0.044,0 0.066,0 z m 0.382,0 V -0.506 H 0.848 c -0.013,0 -0.025,0 -0.038,0.001 -0.013,0 -0.026,0.001 -0.039,0.002 -0.006,0 -0.012,0 -0.018,0.001 C 0.747,-0.501 0.74,-0.501 0.734,-0.501 0.73,-0.501 0.727,-0.503 0.725,-0.508 0.723,-0.512 0.721,-0.517 0.72,-0.523 0.719,-0.53 0.718,-0.536 0.718,-0.542 c 0,-0.006 0,-0.011 0,-0.014 v -0.041 c 0.021,0.002 0.042,0.003 0.063,0.003 0.021,0.001 0.043,0.001 0.064,0.001 h 0.039 c 0.021,0 0.042,0 0.063,-0.001 0.021,0 0.042,-0.001 0.063,-0.001 0.005,0 0.009,0.001 0.01,0.004 10e-4,0.002 0.002,0.006 0.002,0.01 0,0.022 0,0.043 -0.001,0.063 C 1.02,-0.497 1.02,-0.476 1.02,-0.455 v 0.191 c 0,0.024 10e-4,0.049 10e-4,0.073 0.001,0.024 0.002,0.048 0.002,0.073 0,0.003 -10e-4,0.006 -0.004,0.007 -0.002,0.002 -0.005,0.003 -0.008,0.004 -0.004,0.001 -0.007,0.002 -0.01,0.002 -0.004,0 -0.007,0 -0.009,0 H 0.951 c -0.01,0 -0.016,-0.001 -0.018,-0.004 C 0.93,-0.112 0.929,-0.118 0.929,-0.128 V -0.155 H 0.852 c -0.021,0 -0.042,0.001 -0.063,0.002 -0.02,0.001 -0.041,0.002 -0.062,0.002 -0.005,0 -0.007,-0.002 -0.008,-0.004 C 0.717,-0.157 0.716,-0.16 0.716,-0.164 0.714,-0.173 0.713,-0.183 0.712,-0.193 c 0,-0.01 -0.001,-0.02 -0.001,-0.03 v -0.022 c 0.023,0.002 0.045,0.002 0.067,0.003 0.022,0 0.044,0 0.066,0 z"
         style="fill:#ffffff;fill-rule:nonzero"
         id="path19560" /></g></g></svg>
