<?xml version="1.0" encoding="UTF-8" standalone="no"?>
<svg
   width="16.845001"
   height="16.845001"
   viewBox="0 0 16.845001 16.845001"
   version="1.1"
   xml:space="preserve"
   style="clip-rule:evenodd;fill-rule:evenodd;stroke-linejoin:round;stroke-miterlimit:2"
   id="svg20568"
   sodipodi:docname="emojis.svg"
   xmlns:inkscape="http://www.inkscape.org/namespaces/inkscape"
   xmlns:sodipodi="http://sodipodi.sourceforge.net/DTD/sodipodi-0.dtd"
   xmlns="http://www.w3.org/2000/svg"
   xmlns:svg="http://www.w3.org/2000/svg"><defs
     id="defs20572" /><sodipodi:namedview
     id="namedview20570"
     pagecolor="#505050"
     bordercolor="#eeeeee"
     borderopacity="1"
     inkscape:pageshadow="0"
     inkscape:pageopacity="0"
     inkscape:pagecheckerboard="0" /><g
     transform="matrix(0.24,0,0,0.24,-613.9302,-992.5314)"
     id="g20566"><g
       transform="matrix(62.5,0,0,62.5,2550.23,4192.61)"
       id="g19554"><rect
         x="0.125"
         y="-0.91299999"
         width="1.123"
         height="1.123"
         style="fill-rule:nonzero"
         id="rect19548" /><rect
         x="0.19499999"
         y="-0.84200001"
         width="0.98199999"
         height="0.98199999"
         style="fill:#f7630c;fill-rule:nonzero"
         id="rect19550" /><path
         d="M 0.721,-0.604 0.544,-0.112 H 0.453 L 0.28,-0.604 h 0.089 l 0.121,0.373 c 0.003,0.007 0.004,0.014 0.006,0.021 0.001,0.006 0.002,0.013 0.003,0.021 0.002,-0.008 0.003,-0.015 0.005,-0.022 0.002,-0.007 0.004,-0.014 0.007,-0.02 l 0.124,-0.373 z m 0.033,0.472 v -0.084 c 0.007,0.007 0.016,0.013 0.026,0.018 0.011,0.006 0.022,0.01 0.033,0.014 0.012,0.004 0.024,0.007 0.036,0.009 0.011,0.003 0.022,0.004 0.032,0.004 0.011,0 0.022,-10e-4 0.035,-0.003 0.012,-0.001 0.023,-0.005 0.033,-0.01 0.01,-0.004 0.018,-0.011 0.024,-0.02 0.007,-0.008 0.01,-0.02 0.01,-0.034 C 0.983,-0.25 0.98,-0.261 0.973,-0.27 0.967,-0.279 0.958,-0.287 0.947,-0.294 0.937,-0.302 0.924,-0.309 0.91,-0.315 0.897,-0.322 0.882,-0.329 0.868,-0.336 0.854,-0.343 0.84,-0.35 0.826,-0.359 0.812,-0.367 0.8,-0.377 0.789,-0.388 0.778,-0.399 0.77,-0.412 0.763,-0.427 0.757,-0.441 0.753,-0.458 0.753,-0.477 0.753,-0.501 0.759,-0.522 0.77,-0.539 0.781,-0.556 0.795,-0.57 0.813,-0.581 0.83,-0.592 0.85,-0.6 0.871,-0.604 c 0.022,-0.005 0.043,-0.008 0.064,-0.008 0.018,0 0.037,0.001 0.057,0.003 0.02,0.002 0.038,0.007 0.055,0.015 v 0.08 C 1.032,-0.525 1.015,-0.533 0.996,-0.537 0.977,-0.542 0.958,-0.544 0.939,-0.544 c -0.01,0 -0.021,0.001 -0.032,0.003 -0.012,0.002 -0.023,0.005 -0.033,0.01 -0.01,0.005 -0.018,0.012 -0.025,0.02 -0.006,0.008 -0.01,0.019 -0.01,0.032 0,0.013 0.004,0.024 0.011,0.034 0.007,0.009 0.016,0.017 0.026,0.024 0.01,0.007 0.022,0.012 0.034,0.017 0.012,0.005 0.023,0.01 0.032,0.015 0.015,0.007 0.03,0.015 0.046,0.025 0.015,0.009 0.028,0.02 0.04,0.032 0.012,0.013 0.022,0.027 0.029,0.042 0.008,0.015 0.011,0.032 0.011,0.051 0,0.026 -0.005,0.048 -0.016,0.065 -0.011,0.017 -0.025,0.031 -0.043,0.042 -0.017,0.01 -0.037,0.017 -0.059,0.022 -0.022,0.004 -0.044,0.006 -0.066,0.006 -0.009,0 -0.02,-0.001 -0.031,-0.002 C 0.841,-0.107 0.829,-0.109 0.817,-0.111 0.805,-0.113 0.793,-0.116 0.782,-0.119 0.771,-0.123 0.762,-0.127 0.754,-0.132 Z"
         style="fill:#ffffff;fill-rule:nonzero"
         id="path19552" /></g></g></svg>
