<?xml version="1.0" encoding="UTF-8" standalone="no"?>
<svg
   width="16.845001"
   height="16.845001"
   viewBox="0 0 16.845001 16.845001"
   version="1.1"
   xml:space="preserve"
   style="clip-rule:evenodd;fill-rule:evenodd;stroke-linejoin:round;stroke-miterlimit:2"
   id="svg20568"
   sodipodi:docname="emojis.svg"
   xmlns:inkscape="http://www.inkscape.org/namespaces/inkscape"
   xmlns:sodipodi="http://sodipodi.sourceforge.net/DTD/sodipodi-0.dtd"
   xmlns="http://www.w3.org/2000/svg"
   xmlns:svg="http://www.w3.org/2000/svg"><defs
     id="defs20572" /><sodipodi:namedview
     id="namedview20570"
     pagecolor="#505050"
     bordercolor="#eeeeee"
     borderopacity="1"
     inkscape:pageshadow="0"
     inkscape:pageopacity="0"
     inkscape:pagecheckerboard="0" /><g
     transform="matrix(0.24,0,0,0.24,-510.9534,-992.5314)"
     id="g20566"><g
       transform="matrix(62.5,0,0,62.5,2121.16,4192.61)"
       id="g19514"><rect
         x="0.125"
         y="-0.91299999"
         width="1.123"
         height="1.123"
         style="fill-rule:nonzero"
         id="rect19508" /><rect
         x="0.19499999"
         y="-0.84200001"
         width="0.98199999"
         height="0.98199999"
         style="fill:#f03a17;fill-rule:nonzero"
         id="rect19510" /><path
         d="M 0.685,-0.104 C 0.648,-0.104 0.615,-0.11 0.586,-0.123 0.557,-0.135 0.532,-0.153 0.512,-0.175 0.492,-0.197 0.477,-0.223 0.466,-0.253 0.455,-0.284 0.45,-0.317 0.45,-0.352 c 0,-0.037 0.005,-0.072 0.016,-0.104 0.011,-0.032 0.026,-0.059 0.047,-0.082 0.02,-0.023 0.046,-0.041 0.076,-0.054 0.03,-0.013 0.064,-0.02 0.103,-0.02 0.037,0 0.069,0.007 0.098,0.019 0.028,0.013 0.052,0.03 0.072,0.053 0.02,0.022 0.035,0.048 0.045,0.078 0.01,0.03 0.015,0.063 0.015,0.098 0,0.037 -0.005,0.071 -0.015,0.103 -0.01,0.032 -0.025,0.059 -0.045,0.083 -0.02,0.023 -0.045,0.041 -0.074,0.054 -0.03,0.013 -0.064,0.02 -0.103,0.02 z m 0.003,-0.437 c -0.026,0 -0.048,0.006 -0.067,0.016 -0.019,0.011 -0.035,0.024 -0.048,0.041 -0.012,0.017 -0.021,0.037 -0.028,0.059 -0.006,0.022 -0.009,0.044 -0.009,0.068 0,0.023 0.003,0.045 0.009,0.067 0.006,0.022 0.015,0.041 0.027,0.058 0.012,0.017 0.027,0.031 0.046,0.041 0.019,0.01 0.041,0.016 0.067,0.016 0.027,0 0.05,-0.005 0.069,-0.015 0.019,-0.01 0.035,-0.023 0.047,-0.039 0.013,-0.017 0.022,-0.036 0.027,-0.058 0.006,-0.022 0.009,-0.045 0.009,-0.069 0,-0.025 -0.003,-0.048 -0.008,-0.07 C 0.823,-0.448 0.815,-0.468 0.803,-0.485 0.792,-0.502 0.776,-0.515 0.757,-0.525 0.738,-0.535 0.715,-0.541 0.688,-0.541 Z"
         style="fill:#ffffff;fill-rule:nonzero"
         id="path19512" /></g></g></svg>
