<?xml version="1.0" encoding="UTF-8" standalone="no"?>
<svg
   width="16.845001"
   height="16.845001"
   viewBox="0 0 16.845001 16.845001"
   version="1.1"
   xml:space="preserve"
   style="clip-rule:evenodd;fill-rule:evenodd;stroke-linejoin:round;stroke-miterlimit:2"
   id="svg20568"
   sodipodi:docname="emojis.svg"
   xmlns:inkscape="http://www.inkscape.org/namespaces/inkscape"
   xmlns:sodipodi="http://sodipodi.sourceforge.net/DTD/sodipodi-0.dtd"
   xmlns="http://www.w3.org/2000/svg"
   xmlns:svg="http://www.w3.org/2000/svg"><defs
     id="defs20572" /><sodipodi:namedview
     id="namedview20570"
     pagecolor="#505050"
     bordercolor="#eeeeee"
     borderopacity="1"
     inkscape:pageshadow="0"
     inkscape:pageopacity="0"
     inkscape:pagecheckerboard="0" /><g
     transform="matrix(0.24,0,0,0.24,-675.7182,-992.5314)"
     id="g20566"><g
       transform="matrix(62.5,0,0,62.5,2807.68,4192.61)"
       id="g19578"><rect
         x="0.125"
         y="-0.91299999"
         width="1.123"
         height="1.123"
         style="fill-rule:nonzero"
         id="rect19572" /><rect
         x="0.19499999"
         y="-0.84200001"
         width="0.98199999"
         height="0.98199999"
         style="fill:#f7630c;fill-rule:nonzero"
         id="rect19574" /><path
         d="M 0.82,-0.266 H 0.588 C 0.585,-0.246 0.581,-0.227 0.576,-0.21 0.571,-0.193 0.565,-0.177 0.557,-0.161 0.55,-0.146 0.541,-0.13 0.531,-0.115 0.522,-0.101 0.51,-0.086 0.497,-0.071 0.495,-0.069 0.493,-0.066 0.49,-0.063 0.488,-0.061 0.485,-0.059 0.482,-0.059 0.479,-0.059 0.476,-0.061 0.473,-0.064 0.469,-0.067 0.467,-0.07 0.465,-0.072 0.458,-0.079 0.45,-0.085 0.441,-0.09 0.433,-0.095 0.424,-0.1 0.415,-0.104 0.434,-0.123 0.451,-0.143 0.468,-0.165 0.484,-0.187 0.495,-0.211 0.503,-0.237 0.507,-0.253 0.511,-0.269 0.514,-0.286 0.516,-0.303 0.518,-0.32 0.52,-0.337 c 0.001,-0.017 0.002,-0.034 0.002,-0.051 0,-0.017 0,-0.034 0,-0.05 v -0.097 c 0,-0.015 0,-0.03 0,-0.045 -0.001,-0.014 -0.001,-0.029 -0.001,-0.044 0,-0.005 0.003,-0.008 0.008,-0.008 0.014,0 0.029,0 0.043,0.001 0.015,0.001 0.029,0.001 0.044,0.001 h 0.186 c 0.015,0 0.029,0 0.043,-0.001 0.014,-0.001 0.028,-0.001 0.043,-0.001 0.005,0 0.008,0.003 0.008,0.008 v 0.089 0.241 c 0,0.025 0,0.05 0,0.075 0.001,0.025 0.001,0.05 0.001,0.075 0,0.019 -0.003,0.035 -0.01,0.046 C 0.88,-0.087 0.871,-0.079 0.86,-0.074 0.849,-0.069 0.837,-0.066 0.823,-0.065 0.808,-0.064 0.794,-0.063 0.779,-0.063 H 0.768 c -0.004,0 -0.009,-0.001 -0.013,-0.001 -0.005,0 -0.009,-0.001 -0.013,-0.003 C 0.738,-0.079 0.734,-0.092 0.73,-0.106 0.726,-0.12 0.721,-0.132 0.714,-0.143 c 0.014,0.002 0.028,0.003 0.042,0.003 0.014,0 0.027,0 0.041,0 0.015,0 0.023,-0.007 0.023,-0.022 z m 0,-0.067 V -0.416 H 0.598 c -0.001,0.014 -0.001,0.028 -0.001,0.041 0,0.014 -0.001,0.028 -0.002,0.042 z m 0,-0.149 v -0.08 H 0.598 v 0.08 z"
         style="fill:#ffffff;fill-rule:nonzero"
         id="path19576" /></g></g></svg>
