<?xml version="1.0" encoding="UTF-8" standalone="no"?>
<svg
   width="16.845001"
   height="16.845001"
   viewBox="0 0 16.845001 16.845001"
   version="1.1"
   xml:space="preserve"
   style="clip-rule:evenodd;fill-rule:evenodd;stroke-linejoin:round;stroke-miterlimit:2"
   id="svg20568"
   sodipodi:docname="emojis.svg"
   xmlns:inkscape="http://www.inkscape.org/namespaces/inkscape"
   xmlns:sodipodi="http://sodipodi.sourceforge.net/DTD/sodipodi-0.dtd"
   xmlns="http://www.w3.org/2000/svg"
   xmlns:svg="http://www.w3.org/2000/svg"><defs
     id="defs20572" /><sodipodi:namedview
     id="namedview20570"
     pagecolor="#505050"
     bordercolor="#eeeeee"
     borderopacity="1"
     inkscape:pageshadow="0"
     inkscape:pageopacity="0"
     inkscape:pagecheckerboard="0" /><g
     transform="matrix(0.24,0,0,0.24,-552.1446,-992.5314)"
     id="g20566"><g
       transform="matrix(62.5,0,0,62.5,2292.79,4192.61)"
       id="g19530"><rect
         x="0.125"
         y="-0.91299999"
         width="1.123"
         height="1.123"
         style="fill-rule:nonzero"
         id="rect19524" /><rect
         x="0.19499999"
         y="-0.84200001"
         width="0.98199999"
         height="0.98199999"
         style="fill:#0046ff;fill-rule:nonzero"
         id="rect19526" /><path
         d="m 0.623,-0.291 v 0.179 H 0.542 v -0.492 h 0.149 c 0.024,0 0.047,0.003 0.069,0.009 0.022,0.005 0.041,0.014 0.057,0.026 0.016,0.012 0.029,0.028 0.038,0.047 0.009,0.019 0.014,0.042 0.014,0.069 0,0.026 -0.005,0.05 -0.014,0.07 -0.009,0.02 -0.022,0.037 -0.039,0.051 -0.016,0.014 -0.035,0.024 -0.057,0.031 -0.022,0.007 -0.045,0.01 -0.07,0.01 z m 0,-0.246 v 0.18 h 0.053 c 0.015,0 0.029,-0.002 0.043,-0.005 0.013,-0.003 0.024,-0.009 0.033,-0.016 0.01,-0.008 0.017,-0.018 0.023,-0.029 C 0.78,-0.419 0.783,-0.433 0.783,-0.45 0.783,-0.466 0.781,-0.479 0.776,-0.49 0.771,-0.501 0.764,-0.51 0.755,-0.517 0.746,-0.524 0.736,-0.529 0.723,-0.532 0.711,-0.535 0.697,-0.537 0.683,-0.537 Z"
         style="fill:#ffffff;fill-rule:nonzero"
         id="path19528" /></g></g></svg>
