<?xml version="1.0" encoding="UTF-8" standalone="no"?>
<svg
   width="16.845001"
   height="16.845001"
   viewBox="0 0 16.845001 16.845001"
   version="1.1"
   xml:space="preserve"
   style="clip-rule:evenodd;fill-rule:evenodd;stroke-linejoin:round;stroke-miterlimit:2"
   id="svg20568"
   sodipodi:docname="emojis.svg"
   xmlns:inkscape="http://www.inkscape.org/namespaces/inkscape"
   xmlns:sodipodi="http://sodipodi.sourceforge.net/DTD/sodipodi-0.dtd"
   xmlns="http://www.w3.org/2000/svg"
   xmlns:svg="http://www.w3.org/2000/svg"><defs
     id="defs20572" /><sodipodi:namedview
     id="namedview20570"
     pagecolor="#505050"
     bordercolor="#eeeeee"
     borderopacity="1"
     inkscape:pageshadow="0"
     inkscape:pageopacity="0"
     inkscape:pagecheckerboard="0" /><g
     transform="matrix(0.24,0,0,0.24,-75.0006,-1009.5018)"
     id="g20566"><g
       transform="matrix(62.5,0,0,62.5,304.69,4263.32)"
       id="g19650"><rect
         x="0.125"
         y="-0.91299999"
         width="1.123"
         height="1.123"
         style="fill-rule:nonzero"
         id="rect19644" /><rect
         x="0.19499999"
         y="-0.84200001"
         width="0.98199999"
         height="0.98199999"
         style="fill:#f03a17;fill-rule:nonzero"
         id="rect19646" /><path
         d="m 0.573,-0.108 0.001,0.016 c 0,0.002 0,0.005 -0.001,0.008 -0.001,0.003 -0.003,0.005 -0.007,0.005 H 0.512 c -0.005,0 -0.007,-0.002 -0.007,-0.007 0,-0.018 0,-0.035 0.001,-0.052 0.001,-0.018 0.001,-0.035 0.001,-0.053 v -0.052 c 0,-0.012 0,-0.024 0,-0.036 -0.001,-0.012 -0.001,-0.023 -0.001,-0.035 0,-0.005 0.002,-0.007 0.007,-0.007 0.013,0 0.027,0.001 0.04,0.001 0.014,0.001 0.027,0.001 0.041,0.001 h 0.19 c 0.014,0 0.027,0 0.041,-0.001 0.013,0 0.027,-0.001 0.041,-0.001 0.004,0 0.007,0.002 0.007,0.007 0,0.01 -0.001,0.02 -0.001,0.031 -0.001,0.011 -0.001,0.021 -0.001,0.032 v 0.059 c 0,0.017 0,0.034 0.001,0.051 0,0.017 0.001,0.035 0.001,0.052 0,0.003 -0.001,0.005 -0.001,0.006 -0.001,0.001 -0.003,0.001 -0.006,0.001 H 0.812 C 0.809,-0.082 0.807,-0.083 0.806,-0.086 0.805,-0.089 0.805,-0.092 0.805,-0.095 v -0.013 z m 0.235,-0.316 v 0.046 c 0,0.004 -0.002,0.006 -0.007,0.006 -0.011,0 -0.022,0 -0.033,0 C 0.757,-0.373 0.746,-0.373 0.734,-0.373 H 0.643 c -0.012,0 -0.023,0 -0.034,0.001 -0.011,0 -0.022,0 -0.033,0 -0.005,0 -0.007,-0.002 -0.007,-0.006 V -0.424 C 0.566,-0.422 0.561,-0.419 0.555,-0.414 0.548,-0.41 0.541,-0.405 0.533,-0.399 0.525,-0.394 0.516,-0.388 0.507,-0.382 0.498,-0.376 0.489,-0.371 0.481,-0.366 0.473,-0.361 0.466,-0.357 0.46,-0.354 0.454,-0.351 0.45,-0.35 0.447,-0.35 c -0.001,0 -0.002,0 -0.003,-0.002 C 0.443,-0.353 0.442,-0.354 0.441,-0.356 0.44,-0.358 0.439,-0.359 0.438,-0.361 0.437,-0.362 0.436,-0.364 0.436,-0.365 0.432,-0.372 0.427,-0.379 0.422,-0.386 0.417,-0.392 0.411,-0.398 0.404,-0.404 0.419,-0.41 0.435,-0.418 0.452,-0.427 0.469,-0.436 0.486,-0.446 0.503,-0.458 0.52,-0.469 0.536,-0.481 0.553,-0.494 0.569,-0.507 0.584,-0.52 0.598,-0.535 0.611,-0.549 0.623,-0.564 0.634,-0.58 c 0.01,-0.016 0.018,-0.032 0.023,-0.048 0.003,0.001 0.009,0.002 0.017,0.003 0.009,0.002 0.017,0.004 0.026,0.006 0.009,0.002 0.017,0.005 0.024,0.008 0.007,0.003 0.01,0.006 0.01,0.01 0,0.002 -0.001,0.004 -0.004,0.006 -0.003,0.002 -0.006,0.003 -0.007,0.004 0.033,0.042 0.071,0.078 0.114,0.107 0.043,0.028 0.09,0.052 0.141,0.07 -0.007,0.008 -0.013,0.016 -0.018,0.024 -0.005,0.008 -0.01,0.017 -0.013,0.026 0,0.002 -0.001,0.005 -0.003,0.008 C 0.942,-0.353 0.94,-0.352 0.938,-0.352 0.935,-0.352 0.93,-0.353 0.924,-0.356 0.917,-0.359 0.909,-0.363 0.901,-0.367 0.892,-0.372 0.883,-0.377 0.873,-0.383 0.863,-0.388 0.854,-0.394 0.845,-0.399 0.836,-0.405 0.829,-0.409 0.822,-0.414 0.815,-0.418 0.811,-0.422 0.808,-0.424 Z m -0.235,0.26 H 0.805 V -0.263 H 0.573 Z M 0.797,-0.432 C 0.776,-0.447 0.756,-0.464 0.738,-0.482 0.72,-0.501 0.703,-0.52 0.688,-0.542 c -0.016,0.021 -0.032,0.04 -0.05,0.059 -0.018,0.018 -0.037,0.035 -0.057,0.051 0.006,0.001 0.013,0.001 0.02,0.001 0.007,0 0.014,0 0.021,0 0.016,0 0.032,0 0.048,0.001 0.016,0 0.033,0 0.049,0 0.013,0 0.026,0 0.039,0 0.013,-0.001 0.026,-0.001 0.039,-0.002 z"
         style="fill:#ffffff;fill-rule:nonzero"
         id="path19648" /></g></g></svg>
