<?xml version="1.0" encoding="UTF-8" standalone="no"?>
<svg
   width="16.845001"
   height="16.845001"
   viewBox="0 0 16.845001 16.845001"
   version="1.1"
   xml:space="preserve"
   style="clip-rule:evenodd;fill-rule:evenodd;stroke-linejoin:round;stroke-miterlimit:2"
   id="svg20568"
   sodipodi:docname="emojis.svg"
   xmlns:inkscape="http://www.inkscape.org/namespaces/inkscape"
   xmlns:sodipodi="http://sodipodi.sourceforge.net/DTD/sodipodi-0.dtd"
   xmlns="http://www.w3.org/2000/svg"
   xmlns:svg="http://www.w3.org/2000/svg"><defs
     id="defs20572" /><sodipodi:namedview
     id="namedview20570"
     pagecolor="#505050"
     bordercolor="#eeeeee"
     borderopacity="1"
     inkscape:pageshadow="0"
     inkscape:pageopacity="0"
     inkscape:pagecheckerboard="0" /><g
     transform="matrix(0.24,0,0,0.24,-778.6974,-992.5314)"
     id="g20566"><g
       transform="matrix(62.5,0,0,62.5,3236.76,4192.61)"
       id="g19618"><rect
         x="0.125"
         y="-0.91299999"
         width="1.123"
         height="1.123"
         style="fill-rule:nonzero"
         id="rect19612" /><rect
         x="0.19499999"
         y="-0.84200001"
         width="0.98199999"
         height="0.98199999"
         style="fill:#f7630c;fill-rule:nonzero"
         id="rect19614" /><path
         d="m 0.901,-0.542 v 0.093 h 0.095 c 0,0 0.001,0 0.003,0 0.002,0 0.004,0.002 0.004,0.006 v 0.055 C 1.003,-0.383 1,-0.38 0.996,-0.38 0.98,-0.38 0.964,-0.381 0.948,-0.381 0.933,-0.382 0.917,-0.382 0.901,-0.382 v 0.101 c 0.011,0 0.022,0 0.033,-10e-4 0.011,0 0.022,-0.001 0.034,-0.001 0.005,0 0.008,0.003 0.008,0.009 v 0.049 c 0,0.005 -0.003,0.008 -0.008,0.008 -0.016,0 -0.032,0 -0.048,-0.001 -0.015,0 -0.031,0 -0.047,0 H 0.492 c -0.015,0 -0.031,0 -0.047,0 -0.015,0.001 -0.031,0.001 -0.047,0.001 -0.004,0 -0.007,-0.003 -0.007,-0.008 v -0.049 c 0,-0.006 0.003,-0.009 0.007,-0.009 H 0.47 V -0.382 H 0.366 c -0.001,0 -0.002,0 -0.004,0 -0.003,0 -0.005,-0.002 -0.005,-0.006 v -0.055 c 0,-0.005 0.003,-0.008 0.009,-0.008 0.013,0 0.026,0.001 0.039,0.002 0.012,0 0.025,0.001 0.038,0.001 h 0.014 c 0.004,0 0.008,0 0.013,-0.001 V -0.515 C 0.467,-0.513 0.464,-0.509 0.459,-0.504 0.454,-0.5 0.45,-0.495 0.445,-0.491 0.44,-0.487 0.435,-0.483 0.431,-0.48 0.427,-0.477 0.423,-0.475 0.421,-0.475 0.417,-0.479 0.413,-0.483 0.409,-0.487 0.405,-0.492 0.401,-0.496 0.396,-0.501 0.391,-0.505 0.387,-0.509 0.382,-0.513 0.378,-0.517 0.373,-0.52 0.369,-0.523 0.384,-0.533 0.399,-0.544 0.414,-0.558 0.429,-0.571 0.442,-0.586 0.455,-0.602 0.468,-0.617 0.48,-0.634 0.49,-0.651 0.5,-0.668 0.507,-0.685 0.513,-0.702 c 0.003,0.001 0.008,0.002 0.017,0.004 0.008,0.002 0.016,0.005 0.025,0.008 0.009,0.003 0.016,0.006 0.023,0.009 0.007,0.004 0.01,0.007 0.01,0.01 0,0.002 0,0.004 -0.001,0.005 -0.001,0.002 -0.002,0.003 -0.004,0.005 -0.008,0.008 -0.016,0.017 -0.021,0.026 -0.006,0.009 -0.013,0.019 -0.02,0.028 h 0.322 c 0.016,0 0.033,0 0.049,-0.001 0.016,-0.001 0.032,-0.001 0.048,-0.001 0.006,0 0.009,0.003 0.009,0.007 v 0.055 c 0,0.005 -0.003,0.007 -0.009,0.007 -0.01,0 -0.02,0 -0.03,-0.001 -0.01,0 -0.02,-0.001 -0.03,-0.001 z M 0.457,-0.2 c 0.002,0 0.006,0.002 0.013,0.004 0.006,0.003 0.013,0.006 0.02,0.01 0.007,0.003 0.013,0.006 0.018,0.01 0.006,0.003 0.009,0.005 0.009,0.006 0,0.003 -0.002,0.008 -0.006,0.016 -0.004,0.008 -0.009,0.017 -0.015,0.027 -0.006,0.01 -0.013,0.02 -0.02,0.031 -0.008,0.011 -0.015,0.021 -0.022,0.03 C 0.447,-0.057 0.441,-0.05 0.436,-0.044 0.43,-0.038 0.427,-0.035 0.424,-0.035 0.423,-0.035 0.419,-0.037 0.413,-0.041 0.406,-0.045 0.4,-0.05 0.393,-0.055 0.387,-0.06 0.381,-0.065 0.375,-0.07 0.37,-0.074 0.367,-0.077 0.367,-0.078 c 0,-0.001 0.001,-0.003 0.003,-0.005 0.002,-0.003 0.004,-0.005 0.007,-0.008 l 0.014,-0.013 c 0.012,-0.013 0.023,-0.027 0.033,-0.042 0.01,-0.016 0.02,-0.032 0.028,-0.048 0.001,-0.001 0.001,-0.002 0.002,-0.004 0,-0.001 0.001,-0.002 0.003,-0.002 z m 0.533,0.119 c 0,0.001 -0.003,0.004 -0.009,0.008 -0.005,0.004 -0.012,0.008 -0.019,0.012 -0.008,0.005 -0.015,0.009 -0.022,0.013 -0.006,0.003 -0.011,0.005 -0.013,0.005 -0.001,0 -0.003,-0.001 -0.004,-0.002 C 0.922,-0.047 0.922,-0.048 0.921,-0.049 0.91,-0.07 0.898,-0.09 0.887,-0.11 0.875,-0.129 0.862,-0.149 0.849,-0.167 0.848,-0.168 0.847,-0.169 0.847,-0.17 0.846,-0.171 0.846,-0.172 0.846,-0.173 c 0,-0.001 0.003,-0.003 0.008,-0.006 0.006,-0.003 0.012,-0.007 0.019,-0.01 0.006,-0.004 0.013,-0.007 0.019,-0.01 0.007,-0.003 0.011,-0.004 0.013,-0.004 0.001,0 0.005,0.003 0.009,0.008 0.005,0.005 0.011,0.012 0.017,0.02 0.006,0.009 0.013,0.018 0.02,0.028 0.007,0.01 0.013,0.019 0.019,0.028 0.006,0.009 0.011,0.017 0.015,0.024 0.003,0.007 0.005,0.012 0.005,0.014 z M 0.628,-0.184 c 0.003,0 0.005,0.003 0.007,0.008 0.002,0.006 0.004,0.013 0.006,0.021 0.001,0.008 0.003,0.017 0.004,0.027 0.001,0.01 0.002,0.02 0.003,0.029 0.001,0.009 0.002,0.018 0.002,0.025 0.001,0.008 0.001,0.013 0.001,0.016 0,0.003 -0.001,0.006 -0.003,0.007 -0.002,10e-4 -0.004,0.002 -0.007,0.003 -0.009,0.002 -0.019,0.003 -0.029,0.004 -0.011,0.001 -0.021,0.001 -0.03,0.001 -0.005,0 -0.007,-0.002 -0.007,-0.007 0,-0.02 -0.001,-0.039 -0.003,-0.059 -0.002,-0.019 -0.005,-0.039 -0.009,-0.058 0,-0.001 0,-0.003 0,-0.005 0,-0.003 0.003,-0.005 0.009,-0.006 0.006,-0.001 0.012,-0.003 0.02,-0.003 0.008,-0.001 0.015,-0.002 0.022,-0.002 0.007,0 0.012,-0.001 0.014,-0.001 z m 0.184,0.121 c 0,0.002 -0.004,0.004 -0.01,0.006 -0.006,0.002 -0.014,0.004 -0.022,0.006 -0.008,0.002 -0.016,0.003 -0.023,0.004 -0.008,0.002 -0.013,0.002 -0.016,0.002 -0.002,0 -0.003,-0.001 -0.003,-0.002 C 0.737,-0.048 0.737,-0.05 0.736,-0.051 0.736,-0.059 0.735,-0.067 0.734,-0.076 0.732,-0.084 0.73,-0.093 0.727,-0.102 0.724,-0.11 0.721,-0.119 0.718,-0.128 0.715,-0.137 0.713,-0.145 0.71,-0.153 0.71,-0.156 0.709,-0.158 0.709,-0.159 L 0.704,-0.171 c 0,-10e-4 0.001,-0.002 0.003,-0.003 0.001,0 0.002,-0.001 0.003,-0.001 0.003,-0.001 0.007,-0.003 0.012,-0.004 0.005,-0.002 0.011,-0.003 0.017,-0.005 0.006,-0.001 0.011,-0.002 0.016,-0.003 0.006,-0.001 0.01,-0.001 0.013,-0.001 0.002,0 0.003,0 0.004,0.001 0.001,0.001 0.002,0.003 0.002,0.004 0,0.004 0.001,0.008 0.003,0.015 0.002,0.006 0.004,0.013 0.007,0.021 l 0.018,0.048 c 0.003,0.008 0.005,0.015 0.007,0.022 0.002,0.006 0.003,0.011 0.003,0.014 z M 0.831,-0.382 H 0.775 v 0.101 h 0.056 z m -0.237,0 H 0.539 v 0.101 h 0.055 z m 0.117,0 H 0.658 v 0.101 h 0.053 z m 0.12,-0.16 H 0.775 v 0.093 h 0.056 z m -0.237,0 H 0.539 v 0.093 h 0.055 z m 0.117,0 H 0.658 v 0.093 h 0.053 z"
         style="fill:#ffffff;fill-rule:nonzero"
         id="path19616" /></g></g></svg>
