<?xml version="1.0" encoding="UTF-8" standalone="no"?>
<svg
   width="16.844999"
   height="16.844999"
   viewBox="0 0 16.844999 16.844999"
   version="1.1"
   xml:space="preserve"
   style="clip-rule:evenodd;fill-rule:evenodd;stroke-linejoin:round;stroke-miterlimit:2"
   id="svg20568"
   sodipodi:docname="emojis.svg"
   xmlns:inkscape="http://www.inkscape.org/namespaces/inkscape"
   xmlns:sodipodi="http://sodipodi.sourceforge.net/DTD/sodipodi-0.dtd"
   xmlns="http://www.w3.org/2000/svg"
   xmlns:svg="http://www.w3.org/2000/svg"><defs
     id="defs20572" /><sodipodi:namedview
     id="namedview20570"
     pagecolor="#505050"
     bordercolor="#eeeeee"
     borderopacity="1"
     inkscape:pageshadow="0"
     inkscape:pageopacity="0"
     inkscape:pagecheckerboard="0" /><g
     transform="matrix(0.24,0,0,0.24,-116.19204,-1009.5018)"
     id="g20566"><g
       transform="matrix(62.5,0,0,62.5,476.321,4263.32)"
       id="g19666"><path
         d="m 1.248,-0.351 c 0,0.052 -0.007,0.101 -0.02,0.149 C 1.215,-0.154 1.196,-0.109 1.171,-0.068 1.147,-0.026 1.118,0.012 1.083,0.046 1.049,0.08 1.011,0.109 0.97,0.134 0.928,0.158 0.884,0.177 0.836,0.19 0.788,0.204 0.738,0.21 0.687,0.21 0.635,0.21 0.585,0.204 0.537,0.19 0.489,0.177 0.445,0.158 0.403,0.134 0.362,0.109 0.324,0.08 0.29,0.046 0.255,0.012 0.226,-0.026 0.202,-0.068 0.177,-0.109 0.158,-0.154 0.145,-0.202 0.132,-0.25 0.125,-0.299 0.125,-0.351 c 0,-0.052 0.007,-0.102 0.02,-0.149 0.013,-0.048 0.032,-0.093 0.057,-0.135 0.024,-0.041 0.053,-0.079 0.088,-0.113 0.034,-0.034 0.072,-0.064 0.113,-0.088 0.042,-0.024 0.086,-0.043 0.134,-0.057 0.048,-0.013 0.098,-0.02 0.15,-0.02 0.051,0 0.101,0.007 0.149,0.02 0.048,0.014 0.092,0.033 0.134,0.057 0.041,0.024 0.079,0.054 0.113,0.088 0.035,0.034 0.064,0.072 0.088,0.113 0.025,0.042 0.044,0.087 0.057,0.135 0.013,0.047 0.02,0.097 0.02,0.149 z"
         style="fill-rule:nonzero"
         id="path19660" /><path
         d="m 1.178,-0.351 c 0,0.045 -0.006,0.089 -0.018,0.131 -0.012,0.041 -0.028,0.081 -0.049,0.117 -0.022,0.036 -0.047,0.07 -0.077,0.099 C 1.004,0.026 0.971,0.052 0.935,0.073 0.898,0.094 0.859,0.111 0.817,0.123 0.775,0.134 0.732,0.14 0.687,0.14 0.641,0.14 0.598,0.134 0.556,0.123 0.514,0.111 0.475,0.094 0.438,0.073 0.402,0.052 0.369,0.026 0.339,-0.004 0.309,-0.033 0.284,-0.067 0.262,-0.103 0.241,-0.139 0.225,-0.179 0.213,-0.22 0.201,-0.262 0.195,-0.306 0.195,-0.351 c 0,-0.045 0.006,-0.089 0.018,-0.131 0.012,-0.042 0.028,-0.081 0.049,-0.117 0.022,-0.037 0.047,-0.07 0.077,-0.099 0.03,-0.03 0.063,-0.056 0.099,-0.077 0.037,-0.021 0.076,-0.038 0.118,-0.05 0.042,-0.011 0.085,-0.017 0.131,-0.017 0.045,0 0.088,0.006 0.13,0.017 0.042,0.012 0.081,0.029 0.118,0.05 0.036,0.021 0.069,0.047 0.099,0.077 0.03,0.029 0.055,0.062 0.077,0.099 0.021,0.036 0.037,0.075 0.049,0.117 0.012,0.042 0.018,0.086 0.018,0.131 z"
         style="fill:#f03a17;fill-rule:nonzero"
         id="path19662" /><path
         d="m 0.745,-0.361 c 0,0.024 -0.002,0.047 -0.005,0.07 -0.003,0.023 -0.009,0.044 -0.018,0.065 -0.008,0.02 -0.02,0.039 -0.034,0.056 C 0.674,-0.153 0.655,-0.138 0.633,-0.126 0.632,-0.125 0.63,-0.124 0.627,-0.123 0.624,-0.121 0.622,-0.121 0.62,-0.121 0.619,-0.121 0.617,-0.122 0.613,-0.126 0.609,-0.13 0.605,-0.134 0.601,-0.139 0.596,-0.144 0.592,-0.149 0.587,-0.153 0.583,-0.157 0.58,-0.16 0.578,-0.162 0.601,-0.172 0.62,-0.184 0.634,-0.197 0.649,-0.21 0.66,-0.225 0.668,-0.241 0.677,-0.258 0.682,-0.276 0.686,-0.296 0.689,-0.315 0.691,-0.337 0.691,-0.361 0.678,-0.36 0.665,-0.36 0.652,-0.36 c -0.004,0 -0.006,-0.002 -0.006,-0.006 0,-0.01 0,-0.019 0.001,-0.028 0,-0.009 0,-0.018 0,-0.028 V -0.52 c 0,-0.009 0,-0.018 0,-0.027 -0.001,-0.009 -0.001,-0.018 -0.001,-0.027 0,-0.004 0.002,-0.006 0.006,-0.006 0.011,0 0.022,0 0.033,0.001 0.01,0 0.021,0 0.032,0 h 0.108 c 0.011,0 0.022,0 0.033,0 0.011,-0.001 0.023,-0.001 0.034,-0.001 0.004,0 0.006,0.002 0.006,0.006 0,0.009 0,0.018 0,0.027 -0.001,0.009 -0.001,0.018 -0.001,0.027 v 0.098 c 0,0.01 0,0.019 0.001,0.028 0,0.009 0,0.018 0,0.028 0,0.004 -0.002,0.006 -0.006,0.006 H 0.835 v 0.157 c 0,0.008 0.001,0.013 0.003,0.016 0.003,0.003 0.008,0.004 0.016,0.004 0.006,0 0.011,-0.003 0.015,-0.007 0.001,-0.002 0.002,-0.006 0.003,-0.013 0.001,-0.006 0.002,-0.013 0.003,-0.02 0.001,-0.008 0.001,-0.015 0.001,-0.022 0.001,-0.006 0.001,-0.011 0.001,-0.014 0.002,0.001 0.005,0.002 0.01,0.005 0.005,0.002 0.01,0.004 0.015,0.006 l 0.021,0.01 c 0.002,0.002 0.003,0.005 0.003,0.008 0,0.001 0,0.002 0,0.003 0,0.001 0,0.001 0,0.002 -0.002,0.015 -0.003,0.028 -0.005,0.039 -0.002,0.012 -0.006,0.022 -0.011,0.03 -0.005,0.007 -0.013,0.014 -0.023,0.018 -0.01,0.004 -0.023,0.006 -0.04,0.006 -0.01,0 -0.02,0 -0.028,-0.001 C 0.811,-0.134 0.804,-0.136 0.798,-0.14 0.792,-0.143 0.787,-0.149 0.784,-0.156 0.781,-0.163 0.779,-0.172 0.779,-0.184 v -0.177 z m -0.184,0.026 v 0.137 c 0,0.012 0,0.025 0.001,0.038 0,0.013 10e-4,0.025 10e-4,0.038 0,0.004 -0.003,0.007 -0.008,0.007 H 0.511 c -0.005,0 -0.007,-0.003 -0.007,-0.007 0,-0.013 0,-0.025 0.001,-0.038 0,-0.013 0,-0.026 0,-0.038 V -0.31 C 0.503,-0.308 0.5,-0.304 0.495,-0.298 0.489,-0.292 0.484,-0.286 0.478,-0.28 0.472,-0.274 0.466,-0.268 0.46,-0.263 0.455,-0.259 0.451,-0.256 0.449,-0.256 0.447,-0.256 0.446,-0.257 0.445,-0.26 0.443,-0.262 0.443,-0.264 0.442,-0.265 0.438,-0.272 0.434,-0.279 0.43,-0.286 0.426,-0.292 0.421,-0.298 0.415,-0.304 0.429,-0.313 0.443,-0.325 0.457,-0.337 0.471,-0.349 0.484,-0.362 0.496,-0.376 0.509,-0.39 0.52,-0.405 0.53,-0.421 0.54,-0.436 0.548,-0.452 0.555,-0.468 H 0.499 c -0.009,0 -0.018,0 -0.027,0 -0.009,0.001 -0.019,0.001 -0.028,0.001 -0.004,0 -0.006,-0.002 -0.006,-0.007 v -0.042 c 0,-0.005 0.002,-0.007 0.006,-0.007 0.01,0 0.021,0 0.031,0.001 0.01,0 0.02,0.001 0.03,0.001 v -0.022 c 0,-0.01 0,-0.021 -0.001,-0.032 0,-0.01 -0.001,-0.021 -0.003,-0.031 0.002,0 0.007,0 0.015,0 0.007,0 0.015,0.001 0.023,0.002 0.008,0 0.015,0.001 0.021,0.003 0.006,0.002 0.009,0.004 0.009,0.006 0,0.002 0,0.004 0,0.006 -0.001,0.001 -0.002,0.003 -0.003,0.005 -0.002,0.005 -0.003,0.011 -0.004,0.02 0,0.008 0,0.016 0,0.023 v 0.02 h 0.015 c 0.004,0 0.007,-0.001 0.01,-0.003 0.004,-0.001 0.007,-0.002 0.011,-0.002 0.002,0 0.005,0.002 0.009,0.004 0.003,0.003 0.007,0.006 0.011,0.01 0.003,0.004 0.006,0.008 0.009,0.012 0.003,0.004 0.004,0.007 0.004,0.009 0,0.003 0,0.005 -0.002,0.007 -0.002,0.001 -0.003,0.003 -0.005,0.005 -0.003,0.002 -0.007,0.008 -0.011,0.016 -0.005,0.007 -0.009,0.016 -0.014,0.025 -0.004,0.009 -0.009,0.018 -0.014,0.027 -0.004,0.009 -0.008,0.015 -0.011,0.02 0.01,0.014 0.021,0.026 0.034,0.037 0.012,0.012 0.025,0.022 0.039,0.031 -0.006,0.005 -0.011,0.011 -0.016,0.017 -0.005,0.007 -0.009,0.013 -0.013,0.019 -0.001,0.002 -0.002,0.003 -0.003,0.006 -0.002,0.002 -0.004,0.003 -0.005,0.003 -0.003,0 -0.006,-0.003 -0.011,-0.008 C 0.594,-0.291 0.589,-0.297 0.583,-0.303 0.578,-0.31 0.574,-0.316 0.569,-0.322 0.565,-0.328 0.562,-0.333 0.561,-0.335 Z M 0.703,-0.412 H 0.839 V -0.526 H 0.703 Z"
         style="fill:#ffffff;fill-rule:nonzero"
         id="path19664" /></g></g></svg>
