<?xml version="1.0" encoding="UTF-8" standalone="no"?>
<svg
   width="16.845001"
   height="16.845001"
   viewBox="0 0 16.845001 16.845001"
   version="1.1"
   xml:space="preserve"
   style="clip-rule:evenodd;fill-rule:evenodd;stroke-linejoin:round;stroke-miterlimit:2"
   id="svg20568"
   sodipodi:docname="emojis.svg"
   xmlns:inkscape="http://www.inkscape.org/namespaces/inkscape"
   xmlns:sodipodi="http://sodipodi.sourceforge.net/DTD/sodipodi-0.dtd"
   xmlns="http://www.w3.org/2000/svg"
   xmlns:svg="http://www.w3.org/2000/svg"><defs
     id="defs20572" /><sodipodi:namedview
     id="namedview20570"
     pagecolor="#505050"
     bordercolor="#eeeeee"
     borderopacity="1"
     inkscape:pageshadow="0"
     inkscape:pageopacity="0"
     inkscape:pagecheckerboard="0" /><g
     transform="matrix(0.24,0,0,0.24,-95.59644,-1009.5018)"
     id="g20566"><g
       transform="matrix(62.5,0,0,62.5,390.506,4263.32)"
       id="g19658"><rect
         x="0.125"
         y="-0.91299999"
         width="1.123"
         height="1.123"
         style="fill-rule:nonzero"
         id="rect19652" /><rect
         x="0.19499999"
         y="-0.84200001"
         width="0.98199999"
         height="0.98199999"
         style="fill:#744da9;fill-rule:nonzero"
         id="rect19654" /><path
         d="m 0.715,-0.235 v 0.089 h 0.149 c 0.013,0 0.026,-0.001 0.038,-0.001 0.013,-0.001 0.026,-0.001 0.038,-0.001 0.005,0 0.007,0.002 0.007,0.006 v 0.047 c 0,0.005 -0.002,0.007 -0.007,0.007 -0.012,0 -0.025,-0.001 -0.038,-0.001 C 0.89,-0.09 0.877,-0.09 0.864,-0.09 H 0.507 c -0.013,0 -0.026,0 -0.038,0.001 -0.013,0 -0.026,0.001 -0.038,0.001 -0.005,0 -0.007,-0.002 -0.007,-0.007 v -0.047 c 0,-0.004 0.002,-0.006 0.007,-0.006 0.012,0 0.025,0 0.038,0.001 0.012,0 0.025,0.001 0.038,0.001 H 0.649 V -0.235 H 0.575 c -0.013,0 -0.027,0 -0.041,10e-4 -0.013,0 -0.027,0.001 -0.04,0.001 -0.002,0 -0.004,-0.001 -0.005,-0.002 -0.002,0 -0.003,-0.002 -0.003,-0.004 v -0.047 c 0,-0.004 0.003,-0.006 0.008,-0.006 0.013,0 0.027,0 0.04,0 0.014,0.001 0.028,0.001 0.041,0.001 h 0.223 c 0.014,0 0.028,0 0.041,-0.001 0.014,0 0.027,0 0.041,0 0.004,0 0.007,0.002 0.007,0.006 v 0.047 c 0,0.004 -0.003,0.006 -0.007,0.006 -0.014,0 -0.027,-0.001 -0.041,-0.001 C 0.826,-0.235 0.812,-0.235 0.798,-0.235 Z M 0.649,-0.551 v -0.024 c 0,-0.007 0,-0.014 -0.001,-0.02 -0.001,-0.007 -0.002,-0.014 -0.004,-0.02 0.003,0 0.009,0 0.017,0 0.009,0 0.017,0.001 0.026,0.001 0.01,0.001 0.018,0.003 0.025,0.005 0.007,0.002 0.011,0.004 0.011,0.007 0,0.006 -0.002,0.012 -0.004,0.018 -0.002,0.006 -0.004,0.012 -0.004,0.019 v 0.014 h 0.136 c 0.013,0 0.027,-0.001 0.04,-0.001 0.013,-0.001 0.026,-0.001 0.04,-0.001 0.004,0 0.006,0.002 0.006,0.007 l -0.001,0.027 v 0.023 c 0,0.01 0,0.02 0,0.029 0.001,0.01 0.001,0.02 0.001,0.03 0,0.005 -0.002,0.007 -0.006,0.007 h -0.05 c -0.004,0 -0.006,-0.002 -0.006,-0.007 V -0.498 H 0.496 v 0.071 c 0,0.005 -0.003,0.008 -0.007,0.008 H 0.44 c -0.005,0 -0.007,-0.003 -0.007,-0.008 0,-0.011 0,-0.021 0.001,-0.032 0,-0.011 0.001,-0.021 0.001,-0.032 V -0.512 L 0.433,-0.546 c 0,-0.005 0.002,-0.007 0.007,-0.007 0.013,0 0.026,0 0.039,0.001 0.013,0 0.026,0.001 0.04,0.001 z m 0.205,0.121 c 0.007,0.004 0.014,0.007 0.021,0.01 0.007,0.003 0.014,0.005 0.021,0.007 0.003,0.001 0.007,0.002 0.011,0.003 0.004,0.001 0.006,0.004 0.006,0.008 0,0.001 0,0.003 -0.001,0.004 0,0.001 0,0.002 0,0.004 -0.003,0.017 -0.008,0.029 -0.013,0.039 -0.006,0.009 -0.013,0.016 -0.021,0.02 C 0.87,-0.33 0.86,-0.328 0.849,-0.327 0.838,-0.326 0.826,-0.325 0.812,-0.325 H 0.802 C 0.78,-0.325 0.762,-0.326 0.749,-0.328 0.736,-0.33 0.725,-0.334 0.718,-0.338 0.711,-0.343 0.706,-0.348 0.704,-0.355 0.702,-0.362 0.701,-0.37 0.701,-0.379 c 0,-0.008 0,-0.016 0.001,-0.024 0.001,-0.009 0.001,-0.018 0.001,-0.029 0,-0.007 0,-0.015 -0.001,-0.024 C 0.701,-0.464 0.7,-0.473 0.699,-0.482 c 0.002,0 0.007,0 0.015,0 0.008,0 0.016,0.001 0.024,0.002 0.008,0.001 0.016,0.002 0.022,0.004 0.007,0.002 0.01,0.004 0.01,0.007 0,0.006 -0.001,0.011 -0.003,0.016 -0.002,0.006 -0.003,0.011 -0.003,0.017 v 0.038 c 0,0.009 0.003,0.015 0.007,0.017 0.005,0.003 0.011,0.004 0.017,0.004 h 0.018 c 0.011,0 0.019,-0.001 0.026,-0.003 C 0.838,-0.381 0.843,-0.384 0.846,-0.387 0.85,-0.391 0.852,-0.396 0.853,-0.403 0.854,-0.41 0.854,-0.419 0.854,-0.43 Z M 0.589,-0.486 c 0.003,0.001 0.008,0.002 0.016,0.005 0.007,0.002 0.015,0.004 0.023,0.007 0.009,0.003 0.016,0.006 0.022,0.01 0.006,0.003 0.009,0.006 0.009,0.009 0,0.003 -0.001,0.005 -0.003,0.007 -0.001,0.001 -0.003,0.003 -0.005,0.005 -0.002,0.002 -0.004,0.006 -0.006,0.012 -0.002,0.005 -0.004,0.009 -0.005,0.013 -0.007,0.016 -0.016,0.03 -0.026,0.043 -0.01,0.012 -0.021,0.022 -0.033,0.031 -0.013,0.009 -0.026,0.016 -0.041,0.022 -0.015,0.006 -0.03,0.012 -0.046,0.017 -0.002,0 -0.004,0.001 -0.006,0.001 -0.001,0.001 -0.003,0.001 -0.006,0.001 -0.001,0 -0.004,-0.003 -0.008,-0.007 C 0.469,-0.315 0.465,-0.32 0.46,-0.326 0.456,-0.332 0.451,-0.338 0.447,-0.344 0.443,-0.35 0.439,-0.354 0.437,-0.355 0.457,-0.358 0.476,-0.363 0.494,-0.368 0.512,-0.374 0.527,-0.382 0.541,-0.392 0.555,-0.402 0.566,-0.414 0.575,-0.43 0.584,-0.445 0.588,-0.464 0.589,-0.486 Z"
         style="fill:#ffffff;fill-rule:nonzero"
         id="path19656" /></g></g></svg>
