<?xml version="1.0" encoding="UTF-8" standalone="no"?>
<svg
   width="16.845001"
   height="16.845001"
   viewBox="0 0 16.845001 16.845001"
   version="1.1"
   xml:space="preserve"
   style="clip-rule:evenodd;fill-rule:evenodd;stroke-linejoin:round;stroke-miterlimit:2"
   id="svg20568"
   sodipodi:docname="emojis.svg"
   xmlns:inkscape="http://www.inkscape.org/namespaces/inkscape"
   xmlns:sodipodi="http://sodipodi.sourceforge.net/DTD/sodipodi-0.dtd"
   xmlns="http://www.w3.org/2000/svg"
   xmlns:svg="http://www.w3.org/2000/svg"><defs
     id="defs20572" /><sodipodi:namedview
     id="namedview20570"
     pagecolor="#505050"
     bordercolor="#eeeeee"
     borderopacity="1"
     inkscape:pageshadow="0"
     inkscape:pageopacity="0"
     inkscape:pagecheckerboard="0" /><g
     transform="matrix(0.24,0,0,0.24,-157.38348,-1009.5018)"
     id="g20566"><g
       transform="matrix(62.5,0,0,62.5,647.952,4263.32)"
       id="g19682"><rect
         x="0.125"
         y="-0.91299999"
         width="1.123"
         height="1.123"
         style="fill-rule:nonzero"
         id="rect19676" /><rect
         x="0.19499999"
         y="-0.84200001"
         width="0.98199999"
         height="0.98199999"
         style="fill:#f7630c;fill-rule:nonzero"
         id="rect19678" /><path
         d="M 0.643,-0.304 H 0.616 c -0.014,0 -0.028,0 -0.043,0.001 -0.014,0 -0.028,0.001 -0.042,0.001 -0.005,0 -0.007,-0.003 -0.007,-0.007 0,-0.008 0,-0.016 0.001,-0.024 0.001,-0.007 0.001,-0.015 0.001,-0.023 v -0.058 c 0,-0.007 0,-0.015 -0.001,-0.023 -0.001,-0.007 -0.001,-0.015 -0.001,-0.022 0,-0.006 0.002,-0.008 0.007,-0.008 0.014,0 0.028,0 0.042,0.001 0.015,0 0.029,0.001 0.043,0.001 h 0.147 c 0.014,0 0.029,-0.001 0.043,-0.001 0.014,-0.001 0.028,-0.001 0.043,-0.001 0.002,0 0.003,0.001 0.004,0.002 0.001,0.002 0.001,0.004 0.001,0.006 0,0.007 0,0.015 0,0.022 -0.001,0.008 -0.001,0.016 -0.001,0.023 v 0.058 c 0,0.008 0,0.016 0.001,0.023 0,0.008 0,0.016 0,0.024 0,0.004 -0.001,0.007 -0.005,0.007 -0.015,0 -0.029,-0.001 -0.043,-0.001 C 0.792,-0.304 0.777,-0.304 0.763,-0.304 H 0.714 c -0.003,0.007 -0.006,0.015 -0.009,0.022 -0.003,0.007 -0.006,0.015 -0.01,0.022 h 0.124 c 0.015,0 0.031,-0.001 0.047,-0.001 0.015,-0.001 0.031,-0.001 0.047,-0.001 0.002,0 0.003,0.001 0.004,0.002 0.001,0.002 0.001,0.004 0.001,0.006 0,0.008 0,0.017 0,0.025 -0.001,0.008 -0.001,0.017 -0.001,0.025 v 0.048 c 0,0.016 0,0.031 0.001,0.047 0,0.015 0,0.03 0,0.046 0,0.005 -0.001,0.007 -0.005,0.007 H 0.853 C 0.849,-0.056 0.847,-0.057 0.846,-0.06 0.845,-0.063 0.845,-0.066 0.845,-0.069 L 0.846,-0.083 H 0.534 l 0.001,0.015 c 0,0.003 0,0.006 -0.001,0.01 -0.001,0.004 -0.003,0.006 -0.007,0.006 H 0.467 C 0.465,-0.052 0.463,-0.053 0.462,-0.055 0.461,-0.056 0.46,-0.058 0.46,-0.061 c 0,-0.022 0.001,-0.045 0.001,-0.067 0.001,-0.023 0.001,-0.045 0.001,-0.068 0,-0.01 0,-0.019 -0.001,-0.029 0,-0.01 -0.001,-0.02 -0.001,-0.029 0,-0.006 0.003,-0.008 0.007,-0.008 0.016,0 0.031,0 0.047,0.001 0.015,0 0.03,0.001 0.046,0.001 H 0.624 C 0.628,-0.267 0.631,-0.275 0.634,-0.282 0.637,-0.289 0.64,-0.297 0.643,-0.304 Z M 0.518,-0.565 C 0.517,-0.568 0.515,-0.573 0.51,-0.58 L 0.486,-0.625 c -0.003,-0.006 -0.005,-0.01 -0.005,-0.01 0,-0.001 0.002,-0.003 0.008,-0.005 0.005,-0.003 0.01,-0.005 0.017,-0.008 0.007,-0.003 0.013,-0.005 0.019,-0.007 0.007,-0.002 0.011,-0.003 0.013,-0.003 0.002,0 0.006,0.003 0.011,0.009 0.005,0.007 0.01,0.014 0.016,0.022 0.005,0.008 0.01,0.016 0.014,0.024 0.004,0.008 0.005,0.013 0.005,0.016 0,0.001 -0.002,0.003 -0.007,0.005 C 0.571,-0.58 0.566,-0.577 0.559,-0.575 0.553,-0.573 0.546,-0.57 0.54,-0.568 0.533,-0.566 0.529,-0.565 0.527,-0.564 h 0.26 c 0.01,-0.015 0.018,-0.03 0.026,-0.046 0.009,-0.016 0.014,-0.033 0.018,-0.05 0.003,0.001 0.008,0.002 0.016,0.004 0.008,0.002 0.017,0.004 0.026,0.007 0.008,0.002 0.016,0.005 0.023,0.008 0.007,0.002 0.01,0.005 0.01,0.008 0,0.002 -0.001,0.004 -0.002,0.007 C 0.902,-0.624 0.9,-0.621 0.898,-0.619 0.896,-0.616 0.893,-0.614 0.891,-0.612 0.889,-0.61 0.888,-0.607 0.886,-0.605 l -0.025,0.041 h 0.101 c 0.001,0 0.002,0 0.003,0 0.002,0 0.004,0.002 0.004,0.005 l -0.002,0.036 v 0.03 c 0,0.013 0,0.025 0.001,0.037 0,0.012 0.001,0.024 0.001,0.036 0,0.005 -0.003,0.007 -0.008,0.007 H 0.906 c -0.005,0 -0.008,-0.002 -0.008,-0.007 V -0.506 H 0.48 v 0.085 c 0,0.005 -0.002,0.008 -0.007,0.008 H 0.417 c -0.004,0 -0.007,-0.003 -0.007,-0.008 0,-0.012 0,-0.024 0.001,-0.036 0.001,-0.012 0.001,-0.024 0.001,-0.036 v -0.026 c 0,-0.006 0,-0.013 -0.001,-0.02 C 0.41,-0.545 0.41,-0.552 0.41,-0.559 c 0,-0.004 0.002,-0.006 0.007,-0.006 0.013,0 0.026,0 0.039,0.001 0.013,0 0.026,0.001 0.039,0.001 l 0.026,-0.001 z m 0.016,0.423 H 0.846 V -0.201 H 0.534 Z m 0.059,-0.271 v 0.056 h 0.193 v -0.056 z m 0.101,-0.252 c 0.001,0 0.003,0.002 0.006,0.005 0.002,0.004 0.005,0.008 0.008,0.013 0.003,0.005 0.006,0.01 0.009,0.016 0.004,0.006 0.006,0.012 0.009,0.018 0.003,0.006 0.005,0.011 0.006,0.015 0.002,0.004 0.003,0.008 0.003,0.009 0,0.001 -0.001,0.002 -0.004,0.003 L 0.714,-0.58 c -0.005,0.002 -0.01,0.004 -0.015,0.006 -0.005,0.002 -0.01,0.004 -0.015,0.005 -0.005,0.002 -0.009,0.003 -0.012,0.003 -0.002,0 -0.003,-0.001 -0.004,-0.003 L 0.659,-0.587 C 0.656,-0.594 0.652,-0.602 0.648,-0.61 0.644,-0.618 0.641,-0.626 0.637,-0.632 0.634,-0.639 0.633,-0.642 0.633,-0.643 0.635,-0.644 0.639,-0.646 0.645,-0.649 0.65,-0.652 0.656,-0.654 0.663,-0.656 0.669,-0.659 0.675,-0.66 0.681,-0.662 0.687,-0.664 0.691,-0.665 0.694,-0.665 Z"
         style="fill:#ffffff;fill-rule:nonzero"
         id="path19680" /></g></g></svg>
