<?xml version="1.0" encoding="UTF-8" standalone="no"?>
<svg
   width="16.844999"
   height="16.844999"
   viewBox="0 0 16.844999 16.844999"
   version="1.1"
   xml:space="preserve"
   style="clip-rule:evenodd;fill-rule:evenodd;stroke-linejoin:round;stroke-miterlimit:2"
   id="svg20568"
   sodipodi:docname="emojis.svg"
   xmlns:inkscape="http://www.inkscape.org/namespaces/inkscape"
   xmlns:sodipodi="http://sodipodi.sourceforge.net/DTD/sodipodi-0.dtd"
   xmlns="http://www.w3.org/2000/svg"
   xmlns:svg="http://www.w3.org/2000/svg"><defs
     id="defs20572" /><sodipodi:namedview
     id="namedview20570"
     pagecolor="#505050"
     bordercolor="#eeeeee"
     borderopacity="1"
     inkscape:pageshadow="0"
     inkscape:pageopacity="0"
     inkscape:pagecheckerboard="0" /><g
     transform="matrix(0.24,0,0,0.24,-136.78788,-1009.5018)"
     id="g20566"><g
       transform="matrix(62.5,0,0,62.5,562.137,4263.32)"
       id="g19674"><path
         d="m 1.248,-0.351 c 0,0.052 -0.007,0.101 -0.02,0.149 C 1.215,-0.154 1.196,-0.109 1.171,-0.068 1.147,-0.026 1.118,0.012 1.083,0.046 1.049,0.08 1.011,0.109 0.97,0.134 0.928,0.158 0.884,0.177 0.836,0.19 0.788,0.204 0.738,0.21 0.687,0.21 0.635,0.21 0.585,0.204 0.537,0.19 0.489,0.177 0.445,0.158 0.403,0.134 0.362,0.109 0.324,0.08 0.29,0.046 0.255,0.012 0.226,-0.026 0.202,-0.068 0.177,-0.109 0.158,-0.154 0.145,-0.202 0.132,-0.25 0.125,-0.299 0.125,-0.351 c 0,-0.052 0.007,-0.102 0.02,-0.149 0.013,-0.048 0.032,-0.093 0.057,-0.135 0.024,-0.041 0.053,-0.079 0.088,-0.113 0.034,-0.034 0.072,-0.064 0.113,-0.088 0.042,-0.024 0.086,-0.043 0.134,-0.057 0.048,-0.013 0.098,-0.02 0.15,-0.02 0.051,0 0.101,0.007 0.149,0.02 0.048,0.014 0.092,0.033 0.134,0.057 0.041,0.024 0.079,0.054 0.113,0.088 0.035,0.034 0.064,0.072 0.088,0.113 0.025,0.042 0.044,0.087 0.057,0.135 0.013,0.047 0.02,0.097 0.02,0.149 z"
         style="fill-rule:nonzero"
         id="path19668" /><path
         d="m 1.178,-0.351 c 0,0.045 -0.006,0.089 -0.018,0.131 -0.012,0.041 -0.028,0.081 -0.049,0.117 -0.022,0.036 -0.047,0.07 -0.077,0.099 C 1.004,0.026 0.971,0.052 0.935,0.073 0.898,0.094 0.859,0.111 0.817,0.123 0.775,0.134 0.732,0.14 0.687,0.14 0.641,0.14 0.598,0.134 0.556,0.123 0.514,0.111 0.475,0.094 0.438,0.073 0.402,0.052 0.369,0.026 0.339,-0.004 0.309,-0.033 0.284,-0.067 0.262,-0.103 0.241,-0.139 0.225,-0.179 0.213,-0.22 0.201,-0.262 0.195,-0.306 0.195,-0.351 c 0,-0.045 0.006,-0.089 0.018,-0.131 0.012,-0.042 0.028,-0.081 0.049,-0.117 0.022,-0.037 0.047,-0.07 0.077,-0.099 0.03,-0.03 0.063,-0.056 0.099,-0.077 0.037,-0.021 0.076,-0.038 0.118,-0.05 0.042,-0.011 0.085,-0.017 0.131,-0.017 0.045,0 0.088,0.006 0.13,0.017 0.042,0.012 0.081,0.029 0.118,0.05 0.036,0.021 0.069,0.047 0.099,0.077 0.03,0.029 0.055,0.062 0.077,0.099 0.021,0.036 0.037,0.075 0.049,0.117 0.012,0.042 0.018,0.086 0.018,0.131 z"
         style="fill:#f03a17;fill-rule:nonzero"
         id="path19670" /><path
         d="m 0.725,-0.252 v -0.179 c 0,-0.013 -0.001,-0.026 -0.001,-0.038 0,-0.013 -0.001,-0.026 -0.002,-0.039 0.003,0 0.008,0 0.016,0 0.008,0.001 0.016,0.001 0.024,0.002 0.009,0.001 0.016,0.002 0.023,0.004 0.006,0.001 0.009,0.003 0.009,0.006 0,0.003 0,0.005 0,0.006 -0.001,0.002 -0.001,0.004 -0.002,0.007 -0.002,0.005 -0.003,0.01 -0.003,0.015 0,0.005 0,0.01 0,0.016 V -0.31 C 0.796,-0.321 0.804,-0.335 0.812,-0.35 0.819,-0.366 0.827,-0.382 0.834,-0.4 0.842,-0.418 0.849,-0.436 0.855,-0.455 0.862,-0.474 0.868,-0.493 0.873,-0.511 0.878,-0.529 0.882,-0.547 0.885,-0.564 0.889,-0.581 0.89,-0.596 0.891,-0.61 c 0.012,0.003 0.023,0.007 0.034,0.01 0.012,0.004 0.023,0.008 0.033,0.013 0.001,0 0.003,0.002 0.006,0.004 0.003,0.003 0.005,0.005 0.005,0.008 0,0.003 -0.001,0.005 -0.003,0.008 -0.001,0.002 -0.003,0.004 -0.005,0.007 -0.003,0.004 -0.005,0.009 -0.007,0.014 -0.002,0.005 -0.004,0.011 -0.006,0.016 -0.009,0.028 -0.019,0.056 -0.03,0.084 -0.01,0.028 -0.022,0.055 -0.035,0.082 -0.012,0.026 -0.026,0.052 -0.042,0.078 -0.015,0.025 -0.033,0.049 -0.052,0.071 v 0.062 c 0,0.005 0.001,0.008 0.003,0.011 0.001,0.003 0.004,0.005 0.007,0.007 0.003,0.001 0.006,0.002 0.01,0.002 0.004,0.001 0.007,0.001 0.011,0.001 h 0.025 c 0.004,0 0.008,-0.001 0.013,-0.001 C 0.862,-0.134 0.866,-0.134 0.87,-0.135 0.874,-0.136 0.877,-0.138 0.879,-0.14 0.884,-0.143 0.887,-0.148 0.889,-0.156 0.891,-0.164 0.893,-0.173 0.894,-0.182 0.895,-0.191 0.896,-0.2 0.896,-0.209 0.897,-0.218 0.897,-0.225 0.897,-0.23 l 0.005,0.001 c 0.007,0.004 0.013,0.007 0.02,0.01 0.007,0.004 0.014,0.006 0.021,0.009 0.005,0.002 0.008,0.003 0.011,0.004 0.003,0.001 0.004,0.005 0.004,0.01 0,0.02 -0.003,0.039 -0.008,0.059 -0.005,0.017 -0.011,0.03 -0.018,0.039 -0.008,0.009 -0.017,0.016 -0.027,0.02 -0.01,0.004 -0.021,0.007 -0.034,0.007 C 0.858,-0.07 0.845,-0.069 0.83,-0.069 H 0.827 C 0.818,-0.069 0.808,-0.07 0.796,-0.07 0.784,-0.071 0.773,-0.073 0.762,-0.076 0.752,-0.079 0.743,-0.084 0.736,-0.091 0.728,-0.098 0.725,-0.108 0.725,-0.121 V -0.165 C 0.723,-0.162 0.719,-0.158 0.714,-0.153 0.708,-0.148 0.702,-0.142 0.695,-0.136 0.688,-0.13 0.68,-0.124 0.672,-0.118 0.665,-0.111 0.657,-0.105 0.65,-0.1 0.642,-0.095 0.636,-0.091 0.63,-0.087 0.624,-0.084 0.62,-0.082 0.617,-0.082 0.614,-0.082 0.612,-0.084 0.61,-0.087 0.609,-0.09 0.607,-0.092 0.606,-0.094 0.598,-0.111 0.587,-0.125 0.572,-0.137 c 0.029,-0.014 0.056,-0.031 0.083,-0.05 0.026,-0.018 0.049,-0.04 0.07,-0.065 z M 0.558,-0.423 c 0.004,0.011 0.008,0.02 0.012,0.027 0.003,0.008 0.007,0.015 0.012,0.021 0.004,0.007 0.009,0.013 0.015,0.02 0.006,0.006 0.013,0.013 0.021,0.02 -0.005,0.007 -0.01,0.015 -0.014,0.022 -0.005,0.007 -0.009,0.015 -0.013,0.023 0,0.001 -0.001,0.003 -0.003,0.007 -0.001,0.003 -0.003,0.004 -0.005,0.004 -0.001,0 -0.004,-0.002 -0.007,-0.007 C 0.573,-0.291 0.57,-0.296 0.567,-0.303 0.564,-0.309 0.561,-0.316 0.558,-0.323 0.556,-0.33 0.553,-0.336 0.552,-0.34 L 0.55,-0.344 c 0,0 0,-0.001 0,-0.001 0,-0.001 0,-0.001 -0.001,-0.002 0.001,0.048 0.002,0.095 0.003,0.142 0.001,0.047 0.002,0.094 0.002,0.142 0,0.004 -0.003,0.006 -0.007,0.006 H 0.493 c -0.002,0 -0.004,-0.001 -0.005,-0.001 -0.002,-10e-4 -0.003,-0.003 -0.003,-0.005 0,-0.045 0,-0.09 0.001,-0.135 C 0.487,-0.242 0.488,-0.287 0.489,-0.332 0.485,-0.32 0.481,-0.307 0.477,-0.294 0.472,-0.281 0.467,-0.268 0.462,-0.255 0.456,-0.242 0.45,-0.23 0.444,-0.218 0.437,-0.205 0.43,-0.194 0.423,-0.184 0.422,-0.183 0.42,-0.181 0.418,-0.179 0.417,-0.176 0.415,-0.175 0.413,-0.175 0.411,-0.175 0.41,-0.177 0.409,-0.179 L 0.395,-0.214 C 0.391,-0.223 0.387,-0.233 0.382,-0.242 0.404,-0.269 0.423,-0.297 0.438,-0.328 0.453,-0.358 0.466,-0.39 0.476,-0.423 h -0.02 c -0.009,0 -0.018,0 -0.027,0.001 -0.009,0 -0.018,0.001 -0.027,0.001 -0.004,0 -0.006,-0.002 -0.006,-0.006 v -0.051 c 0,-0.003 0.002,-0.005 0.006,-0.005 0.009,0 0.018,0 0.027,0 0.009,0.001 0.018,0.001 0.027,0.001 h 0.031 v -0.071 c -0.003,0.001 -0.007,0.002 -0.011,0.003 -0.005,0.002 -0.01,0.003 -0.016,0.004 -0.005,0.001 -0.01,0.003 -0.015,0.004 -0.005,0 -0.008,0.001 -0.011,0.001 -0.003,0 -0.005,-0.001 -0.007,-0.004 C 0.426,-0.547 0.425,-0.549 0.424,-0.552 0.424,-0.554 0.423,-0.558 0.421,-0.562 0.419,-0.566 0.417,-0.571 0.414,-0.575 0.412,-0.58 0.409,-0.584 0.406,-0.588 0.403,-0.592 0.401,-0.595 0.399,-0.597 0.411,-0.599 0.426,-0.602 0.443,-0.605 0.46,-0.608 0.478,-0.612 0.495,-0.617 c 0.018,-0.005 0.035,-0.01 0.051,-0.016 0.016,-0.006 0.029,-0.013 0.038,-0.02 0.001,0 0.001,0 0.001,0.001 0,0 0.001,0 0.001,0.001 l 0.007,0.005 c 0.003,0.004 0.007,0.007 0.011,0.011 0.005,0.005 0.009,0.009 0.012,0.013 0.004,0.004 0.007,0.008 0.01,0.011 0.002,0.004 0.003,0.007 0.003,0.009 0,0.004 -0.001,0.006 -0.004,0.007 -0.003,0.001 -0.006,0.002 -0.008,0.003 -0.011,0.003 -0.022,0.007 -0.033,0.011 -0.01,0.004 -0.021,0.008 -0.032,0.011 v 0.088 h 0.062 c 0.001,0 0.002,0 0.003,0 0.002,0 0.004,0.001 0.004,0.004 v 0.051 c 0,0.004 -0.003,0.006 -0.007,0.006 -0.009,0 -0.019,-0.001 -0.028,-0.001 C 0.577,-0.423 0.568,-0.423 0.558,-0.423 Z m 0.46,0.163 c 0,0.002 -0.003,0.004 -0.008,0.008 -0.005,0.003 -0.01,0.007 -0.017,0.01 -0.006,0.004 -0.012,0.007 -0.018,0.01 -0.006,0.003 -0.01,0.004 -0.011,0.004 -0.002,0 -0.003,0 -0.003,-0.001 -0.001,0 -0.001,-0.001 -0.002,-0.003 0,-0.006 -0.001,-0.012 -0.002,-0.02 C 0.955,-0.259 0.953,-0.267 0.951,-0.275 0.949,-0.283 0.947,-0.29 0.944,-0.298 0.942,-0.305 0.939,-0.312 0.938,-0.317 0.934,-0.329 0.93,-0.34 0.926,-0.35 0.921,-0.361 0.917,-0.372 0.914,-0.383 0.913,-0.385 0.913,-0.387 0.913,-0.388 c 0,-0.001 0.002,-0.003 0.007,-0.006 0.004,-0.003 0.01,-0.007 0.016,-0.01 0.006,-0.003 0.012,-0.007 0.018,-0.009 0.005,-0.003 0.009,-0.004 0.01,-0.004 0.001,0 0.002,0 0.003,0.002 0.001,0.001 0.001,0.002 0.002,0.003 0.002,0.005 0.005,0.012 0.008,0.02 0.003,0.008 0.007,0.016 0.01,0.026 0.004,0.01 0.008,0.02 0.011,0.03 0.004,0.01 0.007,0.02 0.01,0.03 0.003,0.01 0.005,0.019 0.007,0.027 0.002,0.008 0.003,0.014 0.003,0.019 z M 0.703,-0.404 c 0,0 0,0.001 -0.001,0.001 0,0 0,0 0,0.001 -0.002,0.013 -0.004,0.027 -0.006,0.042 -0.002,0.014 -0.005,0.029 -0.008,0.043 -0.002,0.014 -0.006,0.029 -0.011,0.042 -0.004,0.014 -0.009,0.027 -0.015,0.039 0,0 -0.001,0.001 -0.002,0.003 -0.001,0.001 -0.002,0.002 -0.003,0.002 -0.002,0 -0.005,-0.002 -0.01,-0.005 C 0.642,-0.239 0.637,-0.243 0.632,-0.247 0.626,-0.251 0.621,-0.255 0.617,-0.259 0.613,-0.262 0.611,-0.265 0.611,-0.266 c 0,-0.001 0,-0.002 0,-0.003 0.001,-0.001 0.001,-0.001 0.001,-0.002 0.01,-0.025 0.018,-0.05 0.024,-0.075 0.006,-0.026 0.011,-0.051 0.015,-0.078 0.001,-0.001 0.001,-0.002 0.001,-0.004 0.001,-0.002 0.002,-0.003 0.003,-0.003 0.002,0 0.005,0.001 0.011,0.004 0.005,0.002 0.01,0.004 0.016,0.007 0.005,0.003 0.01,0.006 0.014,0.009 0.005,0.003 0.007,0.005 0.007,0.007 z m 0.143,-0.163 c 0,0.002 -0.002,0.005 -0.006,0.01 -0.004,0.004 -0.008,0.009 -0.013,0.015 -0.005,0.005 -0.01,0.01 -0.015,0.014 -0.004,0.005 -0.008,0.008 -0.01,0.009 -0.001,0 -0.002,0 -0.002,-0.001 C 0.799,-0.521 0.799,-0.521 0.798,-0.522 0.788,-0.531 0.779,-0.539 0.77,-0.547 0.761,-0.554 0.752,-0.561 0.742,-0.567 0.733,-0.573 0.724,-0.58 0.714,-0.586 0.704,-0.592 0.694,-0.599 0.683,-0.605 0.681,-0.607 0.68,-0.608 0.68,-0.609 c 0,-0.001 0.002,-0.004 0.006,-0.009 0.004,-0.005 0.009,-0.01 0.014,-0.015 0.005,-0.005 0.01,-0.009 0.014,-0.013 0.005,-0.005 0.007,-0.007 0.008,-0.007 0.002,0 0.007,0.002 0.014,0.006 0.007,0.004 0.016,0.008 0.025,0.014 0.009,0.006 0.018,0.012 0.029,0.019 0.01,0.007 0.019,0.014 0.027,0.02 0.009,0.006 0.016,0.012 0.021,0.017 0.006,0.005 0.008,0.008 0.008,0.01 z"
         style="fill:#ffffff;fill-rule:nonzero"
         id="path19672" /></g></g></svg>
