<?xml version="1.0" encoding="UTF-8" standalone="no"?>
<svg
   width="16.845001"
   height="16.845001"
   viewBox="0 0 16.845001 16.845001"
   version="1.1"
   xml:space="preserve"
   style="clip-rule:evenodd;fill-rule:evenodd;stroke-linejoin:round;stroke-miterlimit:2"
   id="svg20568"
   sodipodi:docname="emojis.svg"
   xmlns:inkscape="http://www.inkscape.org/namespaces/inkscape"
   xmlns:sodipodi="http://sodipodi.sourceforge.net/DTD/sodipodi-0.dtd"
   xmlns="http://www.w3.org/2000/svg"
   xmlns:svg="http://www.w3.org/2000/svg"><defs
     id="defs20572" /><sodipodi:namedview
     id="namedview20570"
     pagecolor="#505050"
     bordercolor="#eeeeee"
     borderopacity="1"
     inkscape:pageshadow="0"
     inkscape:pageopacity="0"
     inkscape:pagecheckerboard="0" /><g
     transform="matrix(0.24,0,0,0.24,-54.405,-1009.5018)"
     id="g20566"><g
       transform="matrix(62.5,0,0,62.5,218.875,4263.32)"
       id="g19642"><rect
         x="0.125"
         y="-0.91299999"
         width="1.123"
         height="1.123"
         style="fill-rule:nonzero"
         id="rect19636" /><rect
         x="0.19499999"
         y="-0.84200001"
         width="0.98199999"
         height="0.98199999"
         style="fill:#f7630c;fill-rule:nonzero"
         id="rect19638" /><path
         d="M 0.648,-0.217 H 0.521 l 0.001,0.015 c 0,0.003 0,0.006 -0.001,0.01 -0.001,0.003 -0.003,0.005 -0.007,0.005 H 0.46 c -0.004,0 -0.006,-0.002 -0.006,-0.007 0,-0.023 0,-0.047 0.001,-0.07 0.001,-0.023 0.001,-0.046 0.001,-0.069 v -0.082 c 0,-0.018 0,-0.036 -0.001,-0.053 0,-0.018 0,-0.036 0,-0.053 0,-0.005 0.002,-0.007 0.006,-0.007 0.014,0 0.028,0 0.042,0.001 0.014,0 0.027,0.001 0.041,0.001 h 0.104 v -0.02 c 0,-0.012 0,-0.025 -0.001,-0.037 C 0.646,-0.595 0.645,-0.607 0.643,-0.62 l 0.024,0.001 c 0.008,0 0.016,0 0.024,0.001 0.008,0 0.015,0.002 0.022,0.003 0.006,0.001 0.009,0.004 0.009,0.007 0,0 0,0.002 -0.001,0.005 -0.001,0.003 -0.002,0.005 -0.002,0.006 -0.002,0.006 -0.003,0.014 -0.004,0.022 0,0.008 -0.001,0.017 -0.001,0.025 v 0.024 h 0.108 c 0.014,0 0.028,-0.001 0.042,-0.001 0.014,-0.001 0.028,-0.001 0.042,-0.001 0.005,0 0.007,0.002 0.007,0.007 0,0.015 0,0.031 -0.001,0.047 0,0.015 0,0.031 0,0.047 v 0.092 c 0,0.023 0,0.046 0.001,0.069 0.001,0.023 0.001,0.046 0.001,0.07 0,0.004 -0.002,0.007 -0.007,0.007 H 0.853 C 0.85,-0.189 0.848,-0.191 0.847,-0.194 0.846,-0.196 0.845,-0.2 0.845,-0.203 L 0.846,-0.217 H 0.714 v 0.039 c 0,0.019 0.001,0.038 0.001,0.057 0.001,0.019 0.001,0.038 0.001,0.057 0,0.004 -0.002,0.006 -0.006,0.006 H 0.652 c -0.004,0 -0.006,-0.002 -0.006,-0.006 0,-0.026 0,-0.051 0.001,-0.077 0.001,-0.025 0.001,-0.051 0.001,-0.076 z m 0.066,-0.128 v 0.07 h 0.132 v -0.07 z m -0.066,0 H 0.521 v 0.07 H 0.648 Z M 0.714,-0.402 H 0.846 V -0.469 H 0.714 Z m -0.066,0 V -0.469 H 0.521 v 0.067 z"
         style="fill:#ffffff;fill-rule:nonzero"
         id="path19640" /></g></g></svg>
