<?xml version="1.0" encoding="UTF-8" standalone="no"?>
<svg
   width="16.845001"
   height="16.845001"
   viewBox="0 0 16.845001 16.845001"
   version="1.1"
   xml:space="preserve"
   style="clip-rule:evenodd;fill-rule:evenodd;stroke-linejoin:round;stroke-miterlimit:2"
   id="svg20568"
   sodipodi:docname="emojis.svg"
   xmlns:inkscape="http://www.inkscape.org/namespaces/inkscape"
   xmlns:sodipodi="http://sodipodi.sourceforge.net/DTD/sodipodi-0.dtd"
   xmlns="http://www.w3.org/2000/svg"
   xmlns:svg="http://www.w3.org/2000/svg"><defs
     id="defs20572" /><sodipodi:namedview
     id="namedview20570"
     pagecolor="#505050"
     bordercolor="#eeeeee"
     borderopacity="1"
     inkscape:pageshadow="0"
     inkscape:pageopacity="0"
     inkscape:pagecheckerboard="0" /><g
     transform="matrix(0.24,0,0,0.24,-13.213584,-1009.5018)"
     id="g20566"><g
       transform="matrix(62.5,0,0,62.5,47.2441,4263.32)"
       id="g19626"><rect
         x="0.125"
         y="-0.91299999"
         width="1.123"
         height="1.123"
         style="fill-rule:nonzero"
         id="rect19620" /><rect
         x="0.19499999"
         y="-0.84200001"
         width="0.98199999"
         height="0.98199999"
         style="fill:#f03a17;fill-rule:nonzero"
         id="rect19622" /><path
         d="m 0.734,-0.206 v 0.035 c 0,0.011 0,0.023 0.001,0.034 0.001,0.011 0.001,0.023 0.001,0.034 0,0.015 -0.004,0.027 -0.01,0.035 C 0.719,-0.059 0.71,-0.053 0.7,-0.049 0.689,-0.045 0.678,-0.043 0.665,-0.042 0.653,-0.041 0.641,-0.041 0.629,-0.041 H 0.617 c -0.002,0 -0.004,0 -0.005,0 -0.002,0 -0.004,-0.001 -0.006,-0.002 0,0 -0.001,-0.003 -0.003,-0.009 C 0.6,-0.058 0.598,-0.065 0.595,-0.072 0.593,-0.079 0.59,-0.086 0.587,-0.093 0.584,-0.099 0.583,-0.104 0.582,-0.105 c 0.01,0.001 0.02,0.001 0.03,0.002 0.01,0.001 0.02,0.001 0.03,0.001 0.008,0 0.014,-0.002 0.017,-0.005 0.004,-0.004 0.006,-0.01 0.006,-0.018 V -0.206 H 0.506 c -0.014,0 -0.029,0 -0.043,0.001 -0.014,0.001 -0.028,0.001 -0.043,0.001 -0.004,0 -0.006,-0.003 -0.006,-0.008 v -0.047 c 0,-0.004 0.002,-0.007 0.006,-0.007 0.015,0 0.029,0.001 0.043,0.001 0.014,0.001 0.029,0.001 0.043,0.001 h 0.371 c 0.014,0 0.029,0 0.043,-0.001 0.014,0 0.028,-0.001 0.042,-0.001 0.005,0 0.007,0.003 0.007,0.007 v 0.049 c 0,0.003 0,0.004 -0.001,0.005 -0.001,0.001 -0.003,0.001 -0.006,0.001 -0.014,0 -0.028,0 -0.042,-0.001 C 0.906,-0.206 0.891,-0.206 0.877,-0.206 Z m 0.114,-0.269 c 0,0.016 0.001,0.031 0.002,0.046 0.001,0.015 0.001,0.03 0.001,0.046 0,0.005 -0.003,0.008 -0.008,0.008 H 0.794 c -0.005,0 -0.007,-0.003 -0.007,-0.008 0,-0.015 0,-0.03 0.001,-0.045 C 0.789,-0.443 0.789,-0.458 0.79,-0.473 0.788,-0.47 0.784,-0.465 0.78,-0.459 0.776,-0.454 0.771,-0.447 0.765,-0.44 0.759,-0.434 0.753,-0.427 0.746,-0.419 0.74,-0.412 0.733,-0.406 0.727,-0.4 0.72,-0.394 0.715,-0.389 0.709,-0.385 0.703,-0.382 0.699,-0.38 0.696,-0.38 0.693,-0.38 0.691,-0.381 0.688,-0.384 0.686,-0.387 0.684,-0.39 0.683,-0.392 0.683,-0.393 0.682,-0.396 0.679,-0.398 0.677,-0.401 0.674,-0.405 0.671,-0.408 L 0.656,-0.423 C 0.678,-0.435 0.698,-0.448 0.717,-0.464 0.736,-0.479 0.753,-0.497 0.769,-0.517 H 0.702 c -0.001,0.001 -0.003,0.002 -0.004,0.002 -0.002,0 -0.003,0 -0.003,-0.001 C 0.694,-0.517 0.694,-0.518 0.694,-0.519 v -0.045 c 0,-0.002 0.001,-0.004 0.003,-0.005 0.002,0 0.004,-0.001 0.005,-0.001 0.015,0 0.029,0.001 0.043,0.001 0.014,0.001 0.028,0.001 0.043,0.001 v -0.014 c 0,-0.009 0,-0.018 -0.001,-0.027 0,-0.009 -0.001,-0.019 -0.003,-0.028 h 0.012 c 0.004,0 0.009,0 0.016,0.001 0.006,0 0.013,0 0.02,0.001 0.006,0 0.012,0.001 0.017,0.002 0.005,0.001 0.007,0.003 0.007,0.005 0,0.002 0,0.004 -0.001,0.006 0,0.002 -0.001,0.003 -0.001,0.005 -0.002,0.005 -0.003,0.01 -0.003,0.015 -0.001,0.005 -0.001,0.01 -0.001,0.016 v 0.018 h 0.043 c 0.013,0 0.026,0 0.039,-0.001 0.012,0 0.025,-0.001 0.038,-0.001 0.002,0 0.003,0.001 0.005,0.002 0.001,0.001 0.002,0.002 0.002,0.004 v 0.042 c 0,0.002 -0.001,0.004 -0.002,0.005 -0.001,0.002 -0.003,0.002 -0.005,0.002 -0.017,0 -0.033,0 -0.05,-0.001 -0.017,0 -0.033,-0.001 -0.05,-0.001 0.018,0.019 0.039,0.035 0.062,0.048 0.022,0.013 0.046,0.024 0.07,0.034 C 1,-0.433 0.997,-0.428 0.994,-0.422 0.991,-0.416 0.987,-0.409 0.984,-0.402 0.98,-0.396 0.977,-0.389 0.974,-0.384 0.97,-0.379 0.968,-0.376 0.966,-0.376 0.964,-0.376 0.961,-0.377 0.958,-0.379 0.955,-0.381 0.953,-0.382 0.951,-0.383 0.932,-0.396 0.913,-0.41 0.896,-0.425 0.879,-0.441 0.863,-0.457 0.848,-0.475 Z M 0.583,-0.483 c 0,0.013 0.001,0.025 0.001,0.038 0,0.013 0,0.026 0.001,0.038 0.001,0.004 0.001,0.008 0.002,0.012 0,0.004 0,0.008 0,0.012 0,0.003 0,0.006 -0.001,0.007 -0.001,0.001 -0.004,0.001 -0.007,0.001 H 0.531 c -0.002,0 -0.004,0 -0.006,-0.001 C 0.524,-0.379 0.524,-0.381 0.524,-0.383 V -0.476 C 0.514,-0.457 0.501,-0.44 0.486,-0.424 0.471,-0.408 0.455,-0.394 0.438,-0.38 0.436,-0.379 0.434,-0.377 0.431,-0.375 0.428,-0.373 0.425,-0.372 0.423,-0.372 0.422,-0.372 0.42,-0.374 0.416,-0.378 0.413,-0.383 0.409,-0.388 0.405,-0.393 0.401,-0.399 0.398,-0.404 0.394,-0.41 0.39,-0.415 0.388,-0.418 0.386,-0.42 0.431,-0.445 0.47,-0.477 0.503,-0.517 H 0.416 c -0.001,0.001 -0.002,0.001 -0.003,0.001 -0.004,0 -0.006,-0.002 -0.006,-0.006 v -0.042 c 0,-0.002 0.001,-0.004 0.003,-0.005 0.002,0 0.004,-0.001 0.006,-0.001 0.012,0 0.024,0.001 0.036,0.001 0.012,0.001 0.024,0.001 0.036,0.001 h 0.037 v -0.013 c 0,-0.009 0,-0.019 -0.001,-0.028 0,-0.009 -0.001,-0.019 -0.003,-0.028 0.011,0 0.021,0 0.031,0.001 0.01,0 0.021,0.001 0.031,0.002 0.001,0.001 0.003,0.001 0.006,0.001 0.002,0.001 0.004,0.002 0.004,0.004 0,0.002 -0.001,0.004 -0.002,0.006 -0.001,0.002 -0.001,0.004 -0.002,0.006 -0.001,0.002 -0.001,0.005 -0.002,0.01 0,0.004 0,0.009 0,0.014 0,0.005 -0.001,0.01 -0.001,0.015 v 0.01 h 0.077 c 0.001,-0.001 0.002,-0.001 0.003,-0.001 0.003,0 0.004,0.002 0.004,0.005 v 0.042 c 0,0.005 -0.002,0.007 -0.007,0.007 H 0.601 c 0.01,0.011 0.022,0.02 0.035,0.028 0.013,0.009 0.027,0.016 0.04,0.024 -0.001,0.001 -0.004,0.005 -0.007,0.01 -0.003,0.005 -0.007,0.01 -0.01,0.015 -0.004,0.006 -0.007,0.011 -0.01,0.015 -0.003,0.005 -0.005,0.007 -0.006,0.007 -0.004,0 -0.009,-0.003 -0.014,-0.009 C 0.623,-0.43 0.617,-0.437 0.611,-0.445 0.605,-0.452 0.599,-0.46 0.594,-0.467 0.589,-0.474 0.585,-0.48 0.583,-0.483 Z m -0.005,0.185 c -0.015,0 -0.03,0 -0.045,0.001 -0.015,0 -0.03,0.001 -0.045,0.001 -0.001,0 -0.003,-0.001 -0.005,-0.002 -0.002,0 -0.003,-0.002 -0.003,-0.004 v -0.049 c 0,-0.002 0.001,-0.004 0.002,-0.005 0.002,-0.001 0.004,-0.001 0.006,-0.001 0.015,0 0.03,0 0.045,0.001 0.015,0 0.03,0.001 0.045,0.001 h 0.23 c 0.015,0 0.031,-0.001 0.046,-0.001 0.015,-0.001 0.03,-0.001 0.046,-0.001 0,0 0.001,0 0.002,0 0,0 0.001,0.001 0.001,0.001 0.001,0.002 0.001,0.004 0.001,0.005 v 0.049 c 0,0.002 0,0.003 -0.002,0.004 -0.001,0.001 -0.003,0.002 -0.005,0.002 -0.015,0 -0.029,-0.001 -0.044,-0.001 C 0.838,-0.298 0.823,-0.298 0.808,-0.298 Z M 0.985,-0.11 C 0.983,-0.109 0.979,-0.105 0.974,-0.098 0.969,-0.092 0.963,-0.085 0.957,-0.079 0.952,-0.072 0.946,-0.066 0.942,-0.06 0.937,-0.055 0.934,-0.052 0.934,-0.052 0.93,-0.052 0.924,-0.054 0.917,-0.059 0.909,-0.063 0.9,-0.069 0.89,-0.076 0.88,-0.083 0.869,-0.09 0.858,-0.098 0.848,-0.107 0.838,-0.115 0.828,-0.123 0.819,-0.131 0.811,-0.138 0.804,-0.145 0.797,-0.151 0.793,-0.156 0.792,-0.16 c 0.002,-0.001 0.005,-0.004 0.01,-0.008 0.005,-0.004 0.01,-0.009 0.015,-0.013 0.006,-0.004 0.011,-0.008 0.015,-0.012 0.005,-0.003 0.008,-0.005 0.01,-0.005 0.001,0 0.003,0.001 0.004,0.002 0.001,0.001 0.002,0.002 0.003,0.003 0.018,0.02 0.039,0.036 0.063,0.049 0.023,0.013 0.047,0.025 0.073,0.034 z M 0.541,-0.198 c 0.002,0.001 0.007,0.003 0.014,0.006 0.007,0.003 0.013,0.007 0.02,0.011 0.007,0.004 0.014,0.008 0.019,0.012 0.006,0.003 0.009,0.007 0.009,0.009 0,0.003 -0.001,0.005 -0.003,0.006 C 0.598,-0.153 0.596,-0.152 0.594,-0.151 0.59,-0.149 0.586,-0.146 0.583,-0.143 0.579,-0.14 0.575,-0.137 0.572,-0.133 0.556,-0.118 0.541,-0.104 0.524,-0.092 0.508,-0.081 0.49,-0.069 0.472,-0.058 0.469,-0.057 0.467,-0.055 0.464,-0.054 0.462,-0.052 0.459,-0.051 0.457,-0.051 0.454,-0.051 0.451,-0.053 0.448,-0.057 0.445,-0.061 0.443,-0.063 0.441,-0.065 0.435,-0.072 0.43,-0.078 0.424,-0.084 0.418,-0.09 0.412,-0.096 0.405,-0.101 0.417,-0.106 0.43,-0.112 0.442,-0.118 0.455,-0.125 0.467,-0.132 0.479,-0.14 0.492,-0.148 0.503,-0.157 0.513,-0.167 0.524,-0.176 0.533,-0.186 0.541,-0.198 Z"
         style="fill:#ffffff;fill-rule:nonzero"
         id="path19624" /></g></g></svg>
