<?xml version="1.0" encoding="UTF-8" standalone="no"?>
<svg
   width="16.844999"
   height="16.844999"
   viewBox="0 0 16.844999 16.844999"
   version="1.1"
   xml:space="preserve"
   style="clip-rule:evenodd;fill-rule:evenodd;stroke-linejoin:round;stroke-miterlimit:2"
   id="svg20568"
   sodipodi:docname="emojis.svg"
   xmlns:inkscape="http://www.inkscape.org/namespaces/inkscape"
   xmlns:sodipodi="http://sodipodi.sourceforge.net/DTD/sodipodi-0.dtd"
   xmlns="http://www.w3.org/2000/svg"
   xmlns:svg="http://www.w3.org/2000/svg"><defs
     id="defs20572" /><sodipodi:namedview
     id="namedview20570"
     pagecolor="#505050"
     bordercolor="#eeeeee"
     borderopacity="1"
     inkscape:pageshadow="0"
     inkscape:pageopacity="0"
     inkscape:pagecheckerboard="0" /><g
     transform="matrix(0.24,0,0,0.24,-383.8638,-144.6594)"
     id="g20566"><g
       transform="matrix(62.5,0,0,62.5,1591.62,659.81)"
       id="g1962"><path
         d="M 1.055,0.21 C 1.029,0.21 1.003,0.205 0.979,0.195 0.954,0.184 0.933,0.169 0.915,0.149 0.88,0.169 0.843,0.184 0.804,0.195 0.766,0.205 0.727,0.21 0.687,0.21 0.646,0.21 0.607,0.205 0.569,0.195 0.53,0.184 0.493,0.169 0.458,0.149 0.44,0.169 0.419,0.184 0.394,0.195 0.37,0.205 0.344,0.21 0.318,0.21 H 0.125 v -0.561 c 0,-0.052 0.007,-0.101 0.02,-0.149 0.013,-0.048 0.032,-0.093 0.057,-0.134 0.024,-0.042 0.053,-0.08 0.088,-0.114 0.034,-0.034 0.072,-0.064 0.113,-0.088 0.042,-0.024 0.087,-0.043 0.134,-0.057 0.048,-0.013 0.098,-0.02 0.15,-0.02 0.051,0 0.101,0.007 0.148,0.02 0.048,0.014 0.093,0.033 0.135,0.057 0.041,0.024 0.079,0.054 0.113,0.088 0.035,0.034 0.064,0.072 0.088,0.114 0.025,0.041 0.044,0.086 0.057,0.134 0.013,0.048 0.02,0.097 0.02,0.149 V 0.21 Z"
         style="fill-rule:nonzero"
         id="path1950" /><path
         d="m 0.687,-0.842 c 0.045,0 0.088,0.006 0.13,0.017 0.042,0.012 0.081,0.029 0.118,0.05 0.036,0.021 0.069,0.047 0.099,0.077 0.03,0.029 0.055,0.062 0.077,0.099 0.021,0.036 0.037,0.075 0.049,0.117 0.012,0.042 0.018,0.086 0.018,0.131 V 0.14 H 1.055 C 1.038,0.14 1.022,0.137 1.007,0.131 0.992,0.124 0.979,0.116 0.968,0.104 0.957,0.093 0.948,0.08 0.942,0.066 0.935,0.051 0.932,0.035 0.932,0.018 H 0.441 c 0,0.017 -0.003,0.033 -0.01,0.048 C 0.425,0.08 0.416,0.093 0.405,0.104 0.394,0.116 0.381,0.124 0.366,0.131 0.351,0.137 0.335,0.14 0.318,0.14 H 0.195 v -0.491 c 0,-0.045 0.006,-0.089 0.018,-0.131 0.012,-0.042 0.028,-0.081 0.049,-0.117 0.022,-0.037 0.047,-0.07 0.077,-0.099 0.03,-0.03 0.063,-0.056 0.099,-0.077 0.037,-0.021 0.076,-0.038 0.118,-0.05 0.042,-0.011 0.085,-0.017 0.131,-0.017 z"
         style="fill:#8e562e;fill-rule:nonzero"
         id="path1952" /><path
         d="m 0.792,-0.628 c 0.014,0.026 0.03,0.05 0.05,0.071 0.02,0.022 0.042,0.04 0.066,0.054 0.025,0.015 0.051,0.027 0.079,0.034 0.027,0.008 0.056,0.012 0.086,0.012 v 0.211 c 0,0.036 -0.005,0.07 -0.014,0.103 C 1.05,-0.11 1.037,-0.08 1.02,-0.051 1.003,-0.023 0.983,0.003 0.959,0.027 0.936,0.051 0.91,0.071 0.881,0.088 0.853,0.104 0.822,0.117 0.789,0.126 0.756,0.136 0.722,0.14 0.687,0.14 0.651,0.14 0.617,0.136 0.584,0.126 0.551,0.117 0.52,0.104 0.492,0.088 0.463,0.071 0.437,0.051 0.414,0.027 0.39,0.003 0.37,-0.023 0.353,-0.051 0.337,-0.08 0.323,-0.11 0.314,-0.143 0.305,-0.176 0.3,-0.21 0.3,-0.246 v -0.211 c 0.03,0 0.058,-0.004 0.086,-0.013 0.027,-0.009 0.053,-0.022 0.076,-0.038 0.023,-0.016 0.044,-0.036 0.062,-0.059 0.017,-0.023 0.031,-0.048 0.041,-0.076 0.009,0.023 0.022,0.044 0.037,0.062 0.016,0.019 0.033,0.035 0.053,0.048 0.02,0.013 0.042,0.023 0.065,0.031 0.023,0.007 0.047,0.01 0.072,0.01 z"
         style="fill:#ffc83d;fill-rule:nonzero"
         id="path1954" /><path
         d="m 0.494,-0.456 c 0.007,0 0.014,0.001 0.02,0.004 0.006,0.003 0.012,0.007 0.017,0.011 0.004,0.005 0.008,0.011 0.011,0.017 0.003,0.006 0.004,0.013 0.004,0.02 v 0.071 c 0,0.007 -0.001,0.013 -0.004,0.02 -0.003,0.006 -0.007,0.012 -0.011,0.017 -0.005,0.004 -0.01,0.008 -0.017,0.011 -0.006,0.003 -0.013,0.004 -0.02,0.004 -0.008,0 -0.015,-10e-4 -0.021,-0.004 C 0.467,-0.288 0.461,-0.291 0.456,-0.296 0.452,-0.301 0.448,-0.306 0.445,-0.313 0.442,-0.319 0.441,-0.326 0.441,-0.333 v -0.071 c 0,-0.007 0.001,-0.014 0.004,-0.02 0.003,-0.007 0.007,-0.012 0.012,-0.017 0.004,-0.004 0.01,-0.008 0.016,-0.011 0.007,-0.003 0.013,-0.004 0.021,-0.004 z m 0.385,0 c 0.008,0 0.014,0.001 0.021,0.004 0.006,0.003 0.012,0.007 0.017,0.011 0.004,0.005 0.008,0.01 0.011,0.017 0.003,0.006 0.004,0.013 0.004,0.02 v 0.071 c 0,0.007 -0.001,0.014 -0.004,0.02 -0.003,0.007 -0.007,0.012 -0.011,0.017 -0.005,0.005 -0.011,0.008 -0.017,0.011 -0.007,0.003 -0.013,0.004 -0.021,0.004 -0.007,0 -0.014,-10e-4 -0.02,-0.004 C 0.852,-0.288 0.847,-0.292 0.842,-0.296 0.838,-0.301 0.834,-0.307 0.831,-0.313 0.829,-0.32 0.827,-0.326 0.827,-0.333 v -0.071 c 0,-0.007 0.002,-0.014 0.004,-0.02 0.003,-0.006 0.007,-0.012 0.012,-0.017 0.004,-0.004 0.01,-0.008 0.016,-0.011 0.006,-0.003 0.013,-0.004 0.02,-0.004 z"
         style="fill-rule:nonzero"
         id="path1956" /><path
         d="m 0.757,-0.246 c 0,0.01 -0.002,0.019 -0.006,0.028 C 0.747,-0.21 0.742,-0.202 0.736,-0.196 0.73,-0.19 0.722,-0.185 0.714,-0.181 0.705,-0.178 0.696,-0.176 0.687,-0.176 0.677,-0.176 0.668,-0.178 0.659,-0.181 0.651,-0.185 0.643,-0.19 0.637,-0.196 0.631,-0.202 0.626,-0.21 0.622,-0.218 0.618,-0.227 0.616,-0.236 0.616,-0.246 Z"
         style="fill:#f7894a;fill-rule:nonzero"
         id="path1958" /><path
         d="M 0.687,0 C 0.68,0 0.673,-0.001 0.663,-0.002 0.654,-0.003 0.644,-0.005 0.634,-0.008 0.623,-0.01 0.613,-0.014 0.603,-0.018 0.592,-0.021 0.583,-0.026 0.574,-0.031 0.566,-0.036 0.559,-0.042 0.554,-0.049 0.549,-0.055 0.546,-0.062 0.546,-0.07 c 0,-0.01 0.003,-0.018 0.01,-0.025 0.007,-0.007 0.016,-0.01 0.025,-0.01 0.005,0 0.011,0.001 0.018,0.005 0.007,0.004 0.015,0.008 0.024,0.012 0.009,0.005 0.019,0.009 0.029,0.012 0.011,0.004 0.022,0.006 0.035,0.006 0.012,0 0.023,-0.002 0.034,-0.006 0.01,-0.003 0.02,-0.007 0.029,-0.012 0.009,-0.004 0.017,-0.008 0.024,-0.012 0.007,-0.004 0.013,-0.005 0.018,-0.005 0.009,0 0.018,0.003 0.025,0.01 0.007,0.007 0.01,0.015 0.01,0.025 0,0.008 -0.002,0.015 -0.008,0.021 -0.005,0.007 -0.012,0.013 -0.02,0.018 C 0.79,-0.026 0.781,-0.021 0.771,-0.018 0.76,-0.014 0.75,-0.01 0.739,-0.008 0.729,-0.005 0.719,-0.003 0.71,-0.002 0.7,-0.001 0.693,0 0.687,0 Z"
         style="fill:#f03a17;fill-rule:nonzero"
         id="path1960" /></g></g></svg>
