<?xml version="1.0" encoding="UTF-8" standalone="no"?>
<svg
   width="15.795"
   height="16.844999"
   viewBox="0 0 15.795 16.844999"
   version="1.1"
   xml:space="preserve"
   style="clip-rule:evenodd;fill-rule:evenodd;stroke-linejoin:round;stroke-miterlimit:2"
   id="svg20568"
   sodipodi:docname="emojis.svg"
   xmlns:inkscape="http://www.inkscape.org/namespaces/inkscape"
   xmlns:sodipodi="http://sodipodi.sourceforge.net/DTD/sodipodi-0.dtd"
   xmlns="http://www.w3.org/2000/svg"
   xmlns:svg="http://www.w3.org/2000/svg"><defs
     id="defs20572" /><sodipodi:namedview
     id="namedview20570"
     pagecolor="#505050"
     bordercolor="#eeeeee"
     borderopacity="1"
     inkscape:pageshadow="0"
     inkscape:pageopacity="0"
     inkscape:pagecheckerboard="0" /><g
     transform="matrix(0.24,0,0,0.24,-404.4582,-144.6594)"
     id="g20566"><g
       transform="matrix(62.5,0,0,62.5,1677.43,659.81)"
       id="g1974"><path
         d="m 1.104,-0.517 c 0.011,0.005 0.021,0.012 0.03,0.019 0.009,0.008 0.017,0.017 0.023,0.027 0.007,0.01 0.012,0.02 0.015,0.032 0.004,0.011 0.006,0.023 0.006,0.035 v 0.106 c 0,0.011 -0.002,0.023 -0.005,0.034 -0.004,0.011 -0.009,0.022 -0.015,0.031 -0.006,0.01 -0.013,0.019 -0.022,0.026 -0.008,0.008 -0.018,0.015 -0.029,0.019 v 0.047 c 0,0.033 -0.004,0.064 -0.012,0.094 C 1.087,-0.017 1.075,0.01 1.06,0.036 1.044,0.062 1.026,0.086 1.005,0.107 0.983,0.129 0.96,0.147 0.934,0.162 0.908,0.177 0.88,0.189 0.85,0.198 0.82,0.206 0.789,0.21 0.757,0.21 H 0.546 C 0.497,0.21 0.452,0.201 0.409,0.183 0.367,0.164 0.33,0.139 0.298,0.107 0.266,0.076 0.241,0.038 0.223,-0.004 0.205,-0.047 0.195,-0.092 0.195,-0.141 V -0.188 C 0.185,-0.192 0.175,-0.199 0.166,-0.207 0.158,-0.214 0.15,-0.223 0.144,-0.233 0.138,-0.242 0.134,-0.253 0.13,-0.264 0.127,-0.275 0.125,-0.287 0.125,-0.298 v -0.106 c 0,-0.012 0.002,-0.024 0.005,-0.035 C 0.134,-0.451 0.139,-0.461 0.146,-0.471 0.152,-0.481 0.16,-0.49 0.169,-0.498 0.178,-0.505 0.188,-0.512 0.199,-0.517 0.204,-0.554 0.213,-0.59 0.227,-0.625 0.241,-0.659 0.258,-0.69 0.279,-0.72 0.3,-0.749 0.324,-0.776 0.351,-0.799 0.378,-0.823 0.408,-0.843 0.439,-0.86 c 0.032,-0.017 0.066,-0.03 0.102,-0.039 0.035,-0.009 0.072,-0.014 0.11,-0.014 0.038,0 0.075,0.005 0.111,0.014 0.036,0.009 0.069,0.022 0.101,0.039 0.032,0.017 0.062,0.037 0.089,0.06 0.027,0.024 0.051,0.051 0.072,0.08 0.021,0.029 0.038,0.061 0.052,0.095 0.013,0.035 0.023,0.071 0.028,0.108 z"
         style="fill-rule:nonzero"
         id="path1964" /><path
         d="m 1.055,-0.457 c 0.007,0 0.014,0.002 0.02,0.005 0.007,0.002 0.012,0.006 0.017,0.011 0.005,0.005 0.009,0.011 0.011,0.017 0.003,0.006 0.004,0.013 0.004,0.02 v 0.106 c 0,0.007 -10e-4,0.014 -0.004,0.02 -0.002,0.006 -0.006,0.012 -0.011,0.017 -0.005,0.005 -0.01,0.008 -0.017,0.011 -0.006,0.003 -0.013,0.004 -0.02,0.004 H 1.002 c 0,0.054 -0.008,0.102 -0.024,0.145 C 0.961,-0.057 0.937,-0.02 0.907,0.01 0.877,0.041 0.84,0.065 0.796,0.082 0.753,0.099 0.705,0.107 0.651,0.107 0.598,0.107 0.55,0.099 0.506,0.082 0.463,0.065 0.426,0.041 0.396,0.01 0.365,-0.02 0.342,-0.057 0.325,-0.101 0.309,-0.144 0.3,-0.192 0.3,-0.246 H 0.248 C 0.241,-0.246 0.234,-0.247 0.228,-0.25 0.221,-0.253 0.216,-0.256 0.211,-0.261 0.206,-0.266 0.202,-0.272 0.199,-0.278 0.197,-0.284 0.195,-0.291 0.195,-0.298 v -0.106 c 0,-0.007 0.002,-0.014 0.004,-0.02 0.003,-0.006 0.007,-0.012 0.012,-0.017 0.005,-0.005 0.01,-0.009 0.017,-0.011 0.006,-0.003 0.013,-0.005 0.02,-0.005 H 0.3 c 0,-0.032 0.004,-0.063 0.013,-0.093 0.008,-0.03 0.02,-0.058 0.035,-0.084 0.015,-0.025 0.034,-0.049 0.055,-0.07 0.021,-0.022 0.045,-0.04 0.071,-0.055 0.026,-0.016 0.054,-0.027 0.084,-0.036 0.03,-0.008 0.061,-0.012 0.093,-0.012 0.033,0 0.064,0.004 0.094,0.012 0.03,0.009 0.058,0.02 0.084,0.036 0.026,0.015 0.049,0.033 0.071,0.055 0.021,0.021 0.039,0.045 0.055,0.07 0.015,0.026 0.027,0.054 0.035,0.084 0.008,0.03 0.012,0.061 0.012,0.093 z"
         style="fill:#ffc83d;fill-rule:nonzero"
         id="path1966" /><path
         d="m 1.038,-0.141 c 0,0.039 -0.008,0.076 -0.022,0.11 C 1.001,0.003 0.981,0.033 0.956,0.058 0.93,0.083 0.9,0.104 0.866,0.118 0.832,0.133 0.796,0.14 0.757,0.14 H 0.546 C 0.507,0.14 0.471,0.133 0.437,0.118 0.403,0.103 0.373,0.083 0.348,0.058 0.322,0.032 0.302,0.003 0.287,-0.031 0.273,-0.066 0.265,-0.102 0.265,-0.141 v -0.316 c 0,-0.035 0.005,-0.069 0.014,-0.102 0.009,-0.033 0.022,-0.064 0.039,-0.092 0.017,-0.029 0.037,-0.055 0.06,-0.078 0.024,-0.024 0.05,-0.044 0.079,-0.061 0.028,-0.017 0.059,-0.029 0.092,-0.039 0.033,-0.009 0.067,-0.013 0.102,-0.013 0.036,0 0.07,0.004 0.103,0.013 0.033,0.01 0.064,0.022 0.092,0.039 0.029,0.017 0.055,0.037 0.078,0.061 0.024,0.023 0.044,0.049 0.061,0.078 0.016,0.028 0.029,0.059 0.039,0.092 0.009,0.033 0.014,0.067 0.014,0.102 z M 0.967,-0.457 c 0,-0.035 -0.006,-0.07 -0.018,-0.105 H 0.687 C 0.658,-0.562 0.633,-0.567 0.61,-0.577 0.587,-0.588 0.565,-0.603 0.546,-0.623 L 0.461,-0.708 c -0.02,0.015 -0.037,0.032 -0.053,0.051 -0.015,0.019 -0.029,0.039 -0.039,0.06 -0.011,0.022 -0.019,0.044 -0.025,0.068 -0.006,0.024 -0.009,0.048 -0.009,0.072 v 0.281 c 0,0.01 0.002,0.019 0.006,0.028 0.003,0.008 0.008,0.016 0.015,0.022 0.006,0.007 0.014,0.012 0.022,0.015 0.009,0.004 0.018,0.006 0.028,0.006 0,-0.01 0.002,-0.019 0.005,-0.028 C 0.415,-0.141 0.42,-0.149 0.427,-0.155 0.433,-0.161 0.44,-0.166 0.449,-0.17 0.457,-0.174 0.466,-0.176 0.476,-0.176 h 0.351 c 0.009,0 0.019,0.002 0.027,0.006 0.008,0.004 0.016,0.009 0.022,0.015 0.007,0.006 0.012,0.014 0.015,0.022 0.004,0.009 0.006,0.018 0.006,0.028 0.01,0 0.019,-0.002 0.027,-0.006 0.009,-0.003 0.016,-0.008 0.023,-0.015 0.006,-0.006 0.011,-0.014 0.015,-0.022 0.003,-0.009 0.005,-0.018 0.005,-0.028 z"
         style="fill:#8e562e;fill-rule:nonzero"
         id="path1968" /><path
         d="m 0.792,-0.105 c 0.009,0 0.018,0.003 0.025,0.01 0.007,0.007 0.01,0.015 0.01,0.025 0,0.007 -0.002,0.013 -0.005,0.018 C 0.819,-0.047 0.814,-0.043 0.808,-0.04 0.785,-0.027 0.759,-0.017 0.732,-0.01 0.705,-0.003 0.678,0 0.651,0 0.625,0 0.598,-0.003 0.571,-0.01 0.543,-0.017 0.518,-0.027 0.495,-0.04 0.489,-0.043 0.484,-0.047 0.481,-0.052 0.477,-0.058 0.476,-0.064 0.476,-0.07 c 0,-0.01 0.003,-0.018 0.01,-0.025 0.007,-0.007 0.015,-0.01 0.025,-0.01 0.003,0 0.006,0 0.008,0.001 0.003,0.001 0.006,0.002 0.008,0.003 0.021,0.01 0.041,0.017 0.061,0.022 0.02,0.006 0.041,0.008 0.063,0.008 0.023,0 0.044,-0.002 0.064,-0.008 0.02,-0.005 0.04,-0.012 0.06,-0.022 0.003,-10e-4 0.006,-0.002 0.008,-0.003 0.003,-0.001 0.006,-0.001 0.009,-0.001 z M 0.651,-0.176 C 0.642,-0.176 0.632,-0.178 0.624,-0.181 0.616,-0.185 0.608,-0.19 0.602,-0.196 0.595,-0.202 0.59,-0.21 0.587,-0.218 0.583,-0.227 0.581,-0.236 0.581,-0.246 h 0.141 c 0,0.01 -0.002,0.019 -0.006,0.028 C 0.712,-0.21 0.707,-0.202 0.701,-0.196 0.695,-0.19 0.687,-0.185 0.679,-0.181 0.67,-0.178 0.661,-0.176 0.651,-0.176 Z"
         style="fill:#f7894a;fill-rule:nonzero"
         id="path1970" /><path
         d="m 0.458,-0.456 c 0.008,0 0.014,0.001 0.021,0.004 0.006,0.003 0.012,0.007 0.017,0.011 0.004,0.005 0.008,0.011 0.011,0.017 0.003,0.006 0.004,0.013 0.004,0.02 v 0.071 c 0,0.007 -0.001,0.013 -0.004,0.02 -0.003,0.006 -0.007,0.012 -0.011,0.017 -0.005,0.004 -0.011,0.008 -0.017,0.011 -0.007,0.003 -0.013,0.004 -0.021,0.004 -0.007,0 -0.014,-10e-4 -0.02,-0.004 C 0.431,-0.288 0.426,-0.291 0.421,-0.296 0.416,-0.301 0.413,-0.306 0.41,-0.313 0.407,-0.319 0.406,-0.326 0.406,-0.333 v -0.071 c 0,-0.007 10e-4,-0.014 0.004,-0.02 0.003,-0.007 0.007,-0.012 0.011,-0.017 0.005,-0.004 0.011,-0.008 0.017,-0.011 0.007,-0.003 0.013,-0.004 0.02,-0.004 z m 0.386,0 c 0.007,0 0.014,0.001 0.021,0.004 0.006,0.003 0.011,0.007 0.016,0.011 0.005,0.005 0.009,0.01 0.012,0.017 0.003,0.006 0.004,0.013 0.004,0.02 v 0.071 c 0,0.007 -0.001,0.014 -0.004,0.02 C 0.89,-0.306 0.886,-0.301 0.882,-0.296 0.877,-0.291 0.871,-0.288 0.865,-0.285 0.858,-0.282 0.851,-0.281 0.844,-0.281 0.837,-0.281 0.83,-0.282 0.823,-0.285 0.817,-0.288 0.812,-0.292 0.807,-0.296 0.803,-0.301 0.799,-0.307 0.796,-0.313 0.793,-0.32 0.792,-0.326 0.792,-0.333 v -0.071 c 0,-0.007 0.001,-0.014 0.004,-0.02 0.003,-0.006 0.007,-0.012 0.011,-0.017 0.005,-0.004 0.011,-0.008 0.017,-0.011 0.006,-0.003 0.013,-0.004 0.02,-0.004 z"
         style="fill-rule:nonzero"
         id="path1972" /></g></g></svg>
