<?xml version="1.0" encoding="UTF-8" standalone="no"?>
<svg
   width="16.844999"
   height="16.844999"
   viewBox="0 0 16.844999 16.844999"
   version="1.1"
   xml:space="preserve"
   style="clip-rule:evenodd;fill-rule:evenodd;stroke-linejoin:round;stroke-miterlimit:2"
   id="svg20568"
   sodipodi:docname="emojis.svg"
   xmlns:inkscape="http://www.inkscape.org/namespaces/inkscape"
   xmlns:sodipodi="http://sodipodi.sourceforge.net/DTD/sodipodi-0.dtd"
   xmlns="http://www.w3.org/2000/svg"
   xmlns:svg="http://www.w3.org/2000/svg"><defs
     id="defs20572" /><sodipodi:namedview
     id="namedview20570"
     pagecolor="#505050"
     bordercolor="#eeeeee"
     borderopacity="1"
     inkscape:pageshadow="0"
     inkscape:pageopacity="0"
     inkscape:pagecheckerboard="0" /><g
     transform="matrix(0.24,0,0,0.24,-224.67852,-1026.4722)"
     id="g20566"><g
       transform="matrix(62.5,0,0,62.5,928.348,4334.03)"
       id="g19874"><path
         d="M 0.687,-0.913 1.248,-0.351 0.687,0.21 0.125,-0.351 Z"
         style="fill-rule:nonzero"
         id="path19868" /><path
         d="m 0.932,-0.562 0.211,0.211 -0.147,0.147 c -0.01,0.01 -0.02,0.021 -0.03,0.033 -0.01,0.011 -0.022,0.022 -0.034,0.03 l -0.13,-0.13 C 0.81,-0.283 0.816,-0.295 0.82,-0.309 0.825,-0.323 0.827,-0.337 0.827,-0.351 0.827,-0.365 0.825,-0.379 0.82,-0.393 0.816,-0.407 0.81,-0.419 0.802,-0.431 Z m -0.326,0.326 c 0.012,0.008 0.025,0.015 0.038,0.019 0.014,0.004 0.028,0.007 0.043,0.007 0.014,0 0.028,-0.003 0.042,-0.007 0.013,-0.004 0.026,-0.011 0.038,-0.019 L 0.897,-0.105 0.75,0.042 C 0.74,0.052 0.73,0.063 0.72,0.074 0.71,0.086 0.699,0.096 0.687,0.105 L 0.476,-0.105 Z M 0.571,-0.431 c -0.008,0.012 -0.014,0.024 -0.019,0.038 -0.004,0.013 -0.006,0.027 -0.006,0.042 0,0.029 0.009,0.056 0.026,0.08 -0.022,0.022 -0.043,0.044 -0.065,0.066 -0.022,0.021 -0.044,0.043 -0.066,0.064 L 0.23,-0.351 0.441,-0.562 Z M 0.767,-0.466 C 0.755,-0.474 0.743,-0.481 0.729,-0.485 0.715,-0.489 0.701,-0.491 0.687,-0.491 c -0.015,0 -0.029,0.002 -0.042,0.006 -0.014,0.004 -0.027,0.011 -0.039,0.019 l -0.13,-0.131 0.211,-0.21 0.21,0.21 z"
         style="fill:#00bcf2;fill-rule:nonzero"
         id="path19870" /><path
         d="m 0.757,-0.351 c 0,0.01 -0.002,0.019 -0.006,0.027 -0.004,0.009 -0.009,0.016 -0.015,0.022 -0.006,0.007 -0.014,0.012 -0.022,0.016 -0.009,0.003 -0.018,0.005 -0.027,0.005 -0.01,0 -0.019,-0.002 -0.028,-0.005 C 0.651,-0.29 0.643,-0.295 0.637,-0.302 0.631,-0.308 0.626,-0.315 0.622,-0.324 0.618,-0.332 0.616,-0.341 0.616,-0.351 c 0,-0.01 0.002,-0.019 0.006,-0.027 0.004,-0.009 0.009,-0.016 0.015,-0.023 0.006,-0.006 0.014,-0.011 0.022,-0.015 0.009,-0.004 0.018,-0.005 0.028,-0.005 0.009,0 0.018,0.001 0.027,0.005 0.008,0.004 0.016,0.009 0.022,0.015 0.006,0.007 0.011,0.014 0.015,0.023 0.004,0.008 0.006,0.017 0.006,0.027 z"
         style="fill:#fce100;fill-rule:nonzero"
         id="path19872" /></g></g></svg>
