<?xml version="1.0" encoding="UTF-8" standalone="no"?>
<svg
   width="7.0500002"
   height="10.965"
   viewBox="0 0 7.0500002 10.965"
   version="1.1"
   xml:space="preserve"
   style="clip-rule:evenodd;fill-rule:evenodd;stroke-linejoin:round;stroke-miterlimit:2"
   id="svg20568"
   sodipodi:docname="emojis.svg"
   xmlns:inkscape="http://www.inkscape.org/namespaces/inkscape"
   xmlns:sodipodi="http://sodipodi.sourceforge.net/DTD/sodipodi-0.dtd"
   xmlns="http://www.w3.org/2000/svg"
   xmlns:svg="http://www.w3.org/2000/svg"><defs
     id="defs20572" /><sodipodi:namedview
     id="namedview20570"
     pagecolor="#505050"
     bordercolor="#eeeeee"
     borderopacity="1"
     inkscape:pageshadow="0"
     inkscape:pageopacity="0"
     inkscape:pagecheckerboard="0" /><g
     transform="matrix(0.24,0,0,0.24,-101.22888,-1044.8718)"
     id="g20566"><g
       transform="matrix(62.5,0,0,62.5,419.162,4398.57)"
       id="g20332"><path
         d="m 0.055,-0.166 0.084,-0.007 c 0.007,0.039 0.021,0.068 0.041,0.086 0.02,0.018 0.046,0.027 0.078,0.027 0.027,0 0.051,-0.006 0.071,-0.019 0.02,-0.012 0.037,-0.029 0.05,-0.049 0.013,-0.021 0.024,-0.049 0.033,-0.084 0.008,-0.035 0.013,-0.071 0.013,-0.107 0,-0.004 0,-0.01 -0.001,-0.018 -0.017,0.028 -0.041,0.051 -0.072,0.068 -0.03,0.018 -0.063,0.026 -0.099,0.026 -0.059,0 -0.109,-0.021 -0.15,-0.064 -0.041,-0.043 -0.061,-0.1 -0.061,-0.17 0,-0.073 0.021,-0.131 0.064,-0.175 0.043,-0.045 0.096,-0.067 0.161,-0.067 0.046,0 0.089,0.013 0.127,0.038 0.039,0.025 0.068,0.061 0.088,0.107 0.02,0.046 0.03,0.114 0.03,0.201 0,0.092 -0.01,0.165 -0.03,0.219 C 0.463,-0.1 0.433,-0.059 0.394,-0.03 0.355,-0.002 0.309,0.012 0.256,0.012 0.2,0.012 0.154,-0.003 0.119,-0.034 0.083,-0.066 0.062,-0.109 0.055,-0.166 Z m 0.36,-0.315 c 0,-0.051 -0.014,-0.091 -0.041,-0.121 -0.027,-0.029 -0.059,-0.044 -0.097,-0.044 -0.039,0 -0.073,0.016 -0.102,0.048 -0.029,0.032 -0.043,0.073 -0.043,0.124 0,0.045 0.014,0.082 0.041,0.111 0.028,0.028 0.062,0.043 0.102,0.043 0.041,0 0.074,-0.015 0.1,-0.043 0.026,-0.029 0.04,-0.068 0.04,-0.118 z"
         style="fill-rule:nonzero"
         id="path20330" /></g></g></svg>
