<?xml version="1.0" encoding="UTF-8" standalone="no"?>
<svg
   width="7.0949998"
   height="10.785"
   viewBox="0 0 7.0949998 10.785"
   version="1.1"
   xml:space="preserve"
   style="clip-rule:evenodd;fill-rule:evenodd;stroke-linejoin:round;stroke-miterlimit:2"
   id="svg20568"
   sodipodi:docname="emojis.svg"
   xmlns:inkscape="http://www.inkscape.org/namespaces/inkscape"
   xmlns:sodipodi="http://sodipodi.sourceforge.net/DTD/sodipodi-0.dtd"
   xmlns="http://www.w3.org/2000/svg"
   xmlns:svg="http://www.w3.org/2000/svg"><defs
     id="defs20572" /><sodipodi:namedview
     id="namedview20570"
     pagecolor="#505050"
     bordercolor="#eeeeee"
     borderopacity="1"
     inkscape:pageshadow="0"
     inkscape:pageopacity="0"
     inkscape:pagecheckerboard="0" /><g
     transform="matrix(0.24,0,0,0.24,-42.6528,-1044.8718)"
     id="g20566"><g
       transform="matrix(62.5,0,0,62.5,175.845,4398.57)"
       id="g20304"><path
         d="M 0.503,-0.084 V 0 H 0.03 c 0,-0.021 0.003,-0.042 0.011,-0.061 C 0.053,-0.093 0.072,-0.125 0.098,-0.156 0.125,-0.188 0.163,-0.224 0.213,-0.265 0.291,-0.328 0.344,-0.379 0.371,-0.416 0.398,-0.454 0.412,-0.489 0.412,-0.522 0.412,-0.557 0.4,-0.586 0.375,-0.61 0.35,-0.634 0.317,-0.646 0.277,-0.646 c -0.042,0 -0.076,0.013 -0.101,0.038 -0.026,0.025 -0.038,0.061 -0.039,0.106 l -0.09,-0.01 c 0.006,-0.067 0.029,-0.118 0.07,-0.154 0.04,-0.035 0.094,-0.053 0.162,-0.053 0.069,0 0.123,0.019 0.163,0.057 0.04,0.038 0.06,0.086 0.06,0.142 0,0.029 -0.005,0.057 -0.017,0.084 -0.012,0.028 -0.031,0.057 -0.058,0.088 -0.028,0.03 -0.073,0.072 -0.136,0.126 -0.053,0.044 -0.087,0.074 -0.102,0.09 -0.015,0.016 -0.027,0.032 -0.037,0.048 z"
         style="fill-rule:nonzero"
         id="path20302" /></g></g></svg>
