<?xml version="1.0" encoding="UTF-8" standalone="no"?>
<svg
   width="7.1100001"
   height="10.77"
   viewBox="0 0 7.1100001 10.77"
   version="1.1"
   xml:space="preserve"
   style="clip-rule:evenodd;fill-rule:evenodd;stroke-linejoin:round;stroke-miterlimit:2"
   id="svg20568"
   sodipodi:docname="emojis.svg"
   xmlns:inkscape="http://www.inkscape.org/namespaces/inkscape"
   xmlns:sodipodi="http://sodipodi.sourceforge.net/DTD/sodipodi-0.dtd"
   xmlns="http://www.w3.org/2000/svg"
   xmlns:svg="http://www.w3.org/2000/svg"><defs
     id="defs20572" /><sodipodi:namedview
     id="namedview20570"
     pagecolor="#505050"
     bordercolor="#eeeeee"
     borderopacity="1"
     inkscape:pageshadow="0"
     inkscape:pageopacity="0"
     inkscape:pagecheckerboard="0" /><g
     transform="matrix(0.24,0,0,0.24,-67.85976,-1045.0668)"
     id="g20566"><g
       transform="matrix(62.5,0,0,62.5,280.124,4398.57)"
       id="g20316"><path
         d="m 0.042,-0.188 0.092,-0.007 c 0.007,0.045 0.022,0.078 0.047,0.101 0.025,0.023 0.055,0.034 0.09,0.034 0.043,0 0.079,-0.016 0.108,-0.048 0.029,-0.032 0.044,-0.074 0.044,-0.127 0,-0.05 -0.014,-0.09 -0.042,-0.119 -0.029,-0.028 -0.065,-0.043 -0.111,-0.043 -0.028,0 -0.054,0.006 -0.077,0.019 -0.022,0.013 -0.04,0.03 -0.053,0.05 l -0.083,-0.01 0.069,-0.368 h 0.356 v 0.084 H 0.197 L 0.158,-0.43 c 0.043,-0.03 0.088,-0.045 0.135,-0.045 0.063,0 0.116,0.022 0.159,0.065 0.043,0.044 0.064,0.099 0.064,0.167 0,0.065 -0.019,0.121 -0.057,0.168 C 0.414,-0.017 0.351,0.012 0.271,0.012 0.206,0.012 0.153,-0.006 0.112,-0.042 0.071,-0.079 0.047,-0.127 0.042,-0.188 Z"
         style="fill-rule:nonzero"
         id="path20314" /></g></g></svg>
