<?xml version="1.0" encoding="UTF-8" standalone="no"?>
<svg
   width="15.795"
   height="16.844999"
   viewBox="0 0 15.795 16.844999"
   version="1.1"
   xml:space="preserve"
   style="clip-rule:evenodd;fill-rule:evenodd;stroke-linejoin:round;stroke-miterlimit:2"
   id="svg20568"
   sodipodi:docname="emojis.svg"
   xmlns:inkscape="http://www.inkscape.org/namespaces/inkscape"
   xmlns:sodipodi="http://sodipodi.sourceforge.net/DTD/sodipodi-0.dtd"
   xmlns="http://www.w3.org/2000/svg"
   xmlns:svg="http://www.w3.org/2000/svg"><defs
     id="defs20572" /><sodipodi:namedview
     id="namedview20570"
     pagecolor="#505050"
     bordercolor="#eeeeee"
     borderopacity="1"
     inkscape:pageshadow="0"
     inkscape:pageopacity="0"
     inkscape:pagecheckerboard="0" /><g
     transform="matrix(0.24,0,0,0.24,-32.76204,-1154.8842)"
     id="g20566"><g
       transform="matrix(62.5,0,0,62.5,128.696,4869.08)"
       id="g20482"><path
         d="M 0.16,0.21 V -0.704 C 0.149,-0.715 0.14,-0.729 0.134,-0.743 0.128,-0.758 0.125,-0.774 0.125,-0.79 c 0,-0.017 0.003,-0.033 0.01,-0.048 0.006,-0.015 0.014,-0.028 0.025,-0.039 0.011,-0.011 0.024,-0.02 0.039,-0.026 0.015,-0.006 0.031,-0.01 0.049,-0.01 0.016,0 0.032,0.004 0.047,0.01 0.015,0.007 0.028,0.016 0.04,0.027 0.011,0.011 0.02,0.024 0.026,0.039 0.006,0.015 0.01,0.031 0.01,0.047 v 0.007 c 0,0.002 -0.001,0.004 -0.001,0.007 l 0.76,0.253 c 0.015,0.005 0.026,0.013 0.035,0.025 0.008,0.012 0.013,0.026 0.013,0.042 0,0.016 -0.005,0.029 -0.013,0.041 -0.009,0.012 -0.02,0.02 -0.035,0.025 L 0.335,-0.125 V 0.21 Z"
         style="fill-rule:nonzero"
         id="path20476" /><path
         d="m 0.265,-0.176 c -0.003,0 -0.006,0 -0.01,-0.001 H 0.241 c -0.001,0 -0.003,0 -0.004,0.001 v -0.562 h 0.011 l 0.017,0.001 0.842,0.28 z"
         style="fill:#e81224;fill-rule:nonzero"
         id="path20478" /><path
         d="m 0.3,-0.79 c 0,0.012 -0.003,0.022 -0.009,0.031 C 0.284,-0.75 0.276,-0.744 0.265,-0.74 V 0.14 H 0.23 V -0.74 C 0.22,-0.744 0.212,-0.75 0.205,-0.759 0.199,-0.768 0.195,-0.778 0.195,-0.79 c 0,-0.007 0.002,-0.014 0.004,-0.02 0.003,-0.007 0.007,-0.012 0.012,-0.017 0.004,-0.005 0.01,-0.008 0.016,-0.011 0.007,-0.003 0.014,-0.004 0.021,-0.004 0.007,0 0.014,0.001 0.02,0.004 0.007,0.003 0.012,0.006 0.017,0.011 0.005,0.005 0.008,0.011 0.011,0.017 0.003,0.007 0.004,0.013 0.004,0.02 z"
         style="fill:#cccccc;fill-rule:nonzero"
         id="path20480" /></g></g></svg>
