<?xml version="1.0" encoding="UTF-8" standalone="no"?>
<svg
   width="15.795"
   height="16.844999"
   viewBox="0 0 15.795 16.844999"
   version="1.1"
   xml:space="preserve"
   style="clip-rule:evenodd;fill-rule:evenodd;stroke-linejoin:round;stroke-miterlimit:2"
   id="svg20568"
   sodipodi:docname="emojis.svg"
   xmlns:inkscape="http://www.inkscape.org/namespaces/inkscape"
   xmlns:sodipodi="http://sodipodi.sourceforge.net/DTD/sodipodi-0.dtd"
   xmlns="http://www.w3.org/2000/svg"
   xmlns:svg="http://www.w3.org/2000/svg"><defs
     id="defs20572" /><sodipodi:namedview
     id="namedview20570"
     pagecolor="#505050"
     bordercolor="#eeeeee"
     borderopacity="1"
     inkscape:pageshadow="0"
     inkscape:pageopacity="0"
     inkscape:pagecheckerboard="0" /><g
     transform="matrix(0.24,0,0,0.24,-13.213584,-1154.8842)"
     id="g20566"><g
       transform="matrix(62.5,0,0,62.5,47.2441,4869.08)"
       id="g20474"><path
         d="M 0.16,0.21 V -0.704 C 0.149,-0.715 0.14,-0.729 0.134,-0.743 0.128,-0.758 0.125,-0.774 0.125,-0.79 c 0,-0.016 0.003,-0.032 0.01,-0.047 0.006,-0.015 0.015,-0.028 0.026,-0.039 0.011,-0.012 0.024,-0.02 0.039,-0.027 0.015,-0.006 0.031,-0.01 0.048,-0.01 0.017,0 0.033,0.004 0.048,0.01 0.014,0.007 0.027,0.016 0.038,0.027 0.012,0.011 0.02,0.024 0.027,0.039 0.006,0.015 0.01,0.031 0.01,0.047 v 0.009 c 0.017,0.003 0.035,0.005 0.052,0.007 0.018,0.001 0.035,0.002 0.053,0.002 0.021,0 0.042,-0.001 0.063,-0.003 C 0.56,-0.777 0.581,-0.781 0.602,-0.785 0.619,-0.789 0.636,-0.794 0.653,-0.8 0.67,-0.806 0.687,-0.812 0.705,-0.817 0.736,-0.826 0.768,-0.833 0.8,-0.836 0.832,-0.84 0.864,-0.842 0.897,-0.842 c 0.028,0 0.053,0.001 0.076,0.003 0.023,0.002 0.046,0.005 0.068,0.01 0.021,0.005 0.043,0.011 0.065,0.018 0.023,0.008 0.046,0.016 0.072,0.026 v 0.643 C 1.151,-0.152 1.127,-0.162 1.105,-0.171 1.084,-0.179 1.063,-0.187 1.042,-0.192 1.021,-0.198 0.999,-0.203 0.976,-0.206 0.953,-0.209 0.927,-0.21 0.897,-0.21 c -0.032,0 -0.063,0.002 -0.094,0.006 -0.03,0.005 -0.06,0.013 -0.09,0.023 -0.039,0.015 -0.078,0.025 -0.117,0.031 -0.038,0.006 -0.078,0.009 -0.12,0.009 -0.047,0 -0.094,-0.004 -0.141,-0.013 V 0.21 Z"
         style="fill-rule:nonzero"
         id="path20466" /><path
         d="m 0.3,-0.79 c 0,0.012 -0.003,0.022 -0.009,0.031 -0.007,0.009 -0.015,0.015 -0.026,0.019 v 0.003 l 0.073,0.083 v 0.376 L 0.265,-0.246 V 0.14 H 0.23 V -0.74 C 0.22,-0.744 0.212,-0.75 0.205,-0.759 0.199,-0.768 0.195,-0.778 0.195,-0.79 c 0,-0.007 0.002,-0.014 0.004,-0.02 0.003,-0.007 0.007,-0.012 0.012,-0.017 0.004,-0.005 0.01,-0.008 0.016,-0.011 0.007,-0.003 0.014,-0.004 0.021,-0.004 0.007,0 0.014,0.001 0.02,0.004 0.007,0.003 0.012,0.006 0.017,0.011 0.005,0.005 0.008,0.011 0.011,0.017 0.003,0.007 0.004,0.013 0.004,0.02 z"
         style="fill:#cccccc;fill-rule:nonzero"
         id="path20468" /><path
         d="m 0.687,-0.737 0.02,0.032 C 0.716,-0.709 0.726,-0.711 0.734,-0.713 L 0.756,-0.758 C 0.768,-0.76 0.779,-0.763 0.791,-0.764 0.803,-0.766 0.815,-0.768 0.827,-0.769 l 0.02,0.034 c 0.005,0 0.011,-0.001 0.017,-0.002 0.005,-0.001 0.011,-0.001 0.016,-0.001 l 0.017,-0.034 c 0.023,0 0.047,0.001 0.07,0.003 l 0.016,0.032 c 0.006,0.001 0.012,0.003 0.018,0.004 0.006,0.001 0.012,0.002 0.018,0.004 l 0.019,-0.029 c 0.012,0.002 0.023,0.005 0.035,0.009 0.012,0.003 0.023,0.007 0.034,0.012 v 0.07 l -0.043,0.02 0.043,0.05 v 0.071 l -0.043,0.019 0.043,0.05 v 0.071 l -0.042,0.021 0.042,0.049 v 0.07 C 1.096,-0.25 1.084,-0.254 1.073,-0.258 1.061,-0.261 1.049,-0.264 1.037,-0.267 L 1.021,-0.295 C 1.015,-0.297 1.01,-0.298 1.004,-0.298 0.999,-0.299 0.994,-0.3 0.988,-0.3 c 0,0 0,0 -0.001,-0.001 0,0 0,0 -0.001,0 L 0.967,-0.277 C 0.956,-0.279 0.944,-0.28 0.932,-0.28 0.92,-0.281 0.909,-0.281 0.897,-0.281 0.896,-0.282 0.895,-0.285 0.893,-0.288 0.891,-0.292 0.89,-0.296 0.888,-0.3 0.886,-0.303 0.884,-0.307 0.882,-0.31 0.88,-0.312 0.878,-0.314 0.876,-0.314 c -0.005,0 -0.01,0.001 -0.015,0.002 -0.005,0.001 -0.01,0.002 -0.015,0.003 L 0.827,-0.277 C 0.815,-0.276 0.803,-0.275 0.792,-0.273 0.78,-0.271 0.768,-0.269 0.757,-0.267 L 0.732,-0.296 C 0.728,-0.295 0.723,-0.294 0.719,-0.292 0.714,-0.289 0.71,-0.287 0.705,-0.286 l -0.018,0.04 C 0.675,-0.241 0.664,-0.237 0.652,-0.234 0.64,-0.23 0.628,-0.227 0.616,-0.225 l -0.02,-0.03 -0.023,0.002 -0.027,0.039 C 0.535,-0.213 0.523,-0.212 0.511,-0.211 0.5,-0.211 0.488,-0.21 0.476,-0.21 L 0.454,-0.245 H 0.436 0.432 L 0.406,-0.214 C 0.394,-0.215 0.382,-0.217 0.37,-0.218 0.358,-0.22 0.347,-0.222 0.335,-0.225 L 0.313,-0.248 C 0.305,-0.255 0.298,-0.263 0.291,-0.272 0.284,-0.28 0.278,-0.288 0.273,-0.296 0.268,-0.304 0.265,-0.31 0.265,-0.316 v -0.07 L 0.303,-0.4 0.265,-0.456 v -0.07 L 0.301,-0.55 0.265,-0.597 v -0.07 c 0.002,-0.002 0.006,-0.006 0.013,-0.011 0.007,-0.005 0.015,-0.01 0.023,-0.016 0.008,-0.006 0.015,-0.011 0.022,-0.015 0.007,-0.005 0.011,-0.007 0.013,-0.007 0.012,0 0.023,0.002 0.035,0.005 0.011,0.003 0.023,0.004 0.035,0.005 l 0.017,0.031 c 0.004,0.001 0.009,0.002 0.015,0.002 l 0.022,0.001 0.016,-0.03 c 0.012,0 0.024,0 0.035,-0.001 0.012,0 0.024,-0.001 0.035,-0.003 l 0.018,0.032 c 0.006,-0.002 0.011,-0.002 0.017,-0.002 0.005,0 0.01,-0.001 0.016,-0.003 L 0.616,-0.716 C 0.628,-0.719 0.64,-0.722 0.652,-0.725 0.664,-0.729 0.675,-0.733 0.687,-0.737 Z"
         style="fill:#383838;fill-rule:nonzero"
         id="path20470" /><path
         d="m 0.476,-0.562 v 0.071 c 0.012,0 0.023,-0.001 0.035,-0.001 0.012,-0.001 0.023,-0.002 0.035,-0.003 v 0.07 c 0.012,-0.001 0.023,-0.003 0.035,-0.004 0.012,-0.002 0.024,-0.004 0.035,-0.007 v 0.07 C 0.628,-0.368 0.64,-0.371 0.652,-0.375 0.664,-0.378 0.675,-0.382 0.687,-0.386 v 0.07 c 0.022,-0.009 0.046,-0.016 0.07,-0.02 v 0.069 C 0.745,-0.264 0.733,-0.261 0.721,-0.258 0.709,-0.254 0.698,-0.25 0.687,-0.246 v -0.07 C 0.675,-0.311 0.664,-0.307 0.652,-0.304 0.64,-0.301 0.628,-0.298 0.616,-0.295 v -0.071 c -0.011,0.003 -0.023,0.005 -0.035,0.007 -0.012,0.001 -0.023,0.003 -0.035,0.004 v -0.07 c -0.012,0.001 -0.023,0.002 -0.035,0.003 -0.012,0 -0.023,0.001 -0.035,0.001 v -0.07 C 0.464,-0.491 0.453,-0.492 0.441,-0.492 0.429,-0.493 0.417,-0.494 0.406,-0.495 v -0.07 C 0.394,-0.567 0.382,-0.568 0.37,-0.57 0.358,-0.571 0.347,-0.574 0.335,-0.576 v -0.07 C 0.323,-0.649 0.312,-0.652 0.3,-0.655 0.288,-0.659 0.277,-0.662 0.265,-0.667 v -0.07 c 0.012,0.004 0.023,0.008 0.035,0.012 0.012,0.003 0.023,0.006 0.035,0.009 v 0.07 c 0.012,0.002 0.023,0.004 0.035,0.006 0.012,0.001 0.024,0.003 0.036,0.004 v 0.071 c 0.011,0.001 0.023,0.002 0.035,0.003 0.012,0 0.023,0 0.035,0 z m 0.631,0.246 C 1.085,-0.325 1.062,-0.332 1.038,-0.336 v -0.07 C 1.026,-0.409 1.015,-0.411 1.003,-0.413 0.991,-0.415 0.979,-0.416 0.967,-0.417 V -0.488 C 0.956,-0.489 0.944,-0.49 0.932,-0.49 0.92,-0.491 0.909,-0.491 0.897,-0.491 v -0.071 c -0.012,0 -0.023,0.001 -0.035,0.001 -0.012,0.001 -0.024,0.002 -0.035,0.003 v -0.07 C 0.815,-0.627 0.803,-0.625 0.792,-0.624 0.78,-0.622 0.768,-0.62 0.757,-0.617 v -0.07 c -0.012,0.003 -0.024,0.005 -0.036,0.009 -0.012,0.003 -0.023,0.006 -0.034,0.011 v -0.07 c 0.011,-0.005 0.022,-0.009 0.034,-0.012 0.012,-0.004 0.024,-0.007 0.036,-0.009 v 0.071 C 0.768,-0.69 0.78,-0.692 0.792,-0.694 0.803,-0.695 0.815,-0.697 0.827,-0.698 v 0.07 C 0.838,-0.629 0.85,-0.63 0.862,-0.631 0.874,-0.632 0.885,-0.632 0.897,-0.632 v 0.07 c 0.012,0 0.023,0.001 0.035,0.001 0.012,0.001 0.024,0.002 0.035,0.003 v 0.07 c 0.012,0.002 0.024,0.003 0.036,0.005 0.012,0.002 0.023,0.004 0.035,0.006 v 0.071 c 0.011,0.002 0.023,0.005 0.035,0.008 0.011,0.003 0.023,0.007 0.034,0.012 z M 0.546,-0.214 V -0.285 C 0.535,-0.283 0.523,-0.282 0.511,-0.282 0.5,-0.281 0.488,-0.281 0.476,-0.281 v -0.07 c -0.012,0 -0.023,0 -0.035,-0.001 C 0.429,-0.353 0.417,-0.354 0.406,-0.355 v -0.07 C 0.394,-0.426 0.382,-0.428 0.37,-0.429 0.358,-0.431 0.347,-0.433 0.335,-0.436 v -0.07 C 0.323,-0.509 0.312,-0.512 0.3,-0.515 0.288,-0.518 0.277,-0.522 0.265,-0.526 v -0.071 c 0.012,0.005 0.023,0.009 0.035,0.012 0.012,0.003 0.023,0.006 0.035,0.009 v 0.07 c 0.012,0.002 0.023,0.004 0.035,0.006 0.012,0.002 0.024,0.004 0.036,0.005 v 0.07 c 0.011,0.001 0.023,0.002 0.035,0.003 0.012,0 0.023,0.001 0.035,0.001 v 0.07 c 0.012,0 0.024,0 0.035,-0.001 0.012,-0.001 0.024,-0.002 0.035,-0.003 v 0.07 c 0.012,-0.001 0.023,-0.002 0.035,-0.004 0.012,-0.002 0.024,-0.004 0.035,-0.006 v 0.07 C 0.605,-0.222 0.593,-0.22 0.581,-0.218 0.569,-0.217 0.558,-0.215 0.546,-0.214 Z m 0,-0.351 C 0.558,-0.567 0.569,-0.568 0.581,-0.57 0.593,-0.571 0.605,-0.574 0.616,-0.576 v 0.07 C 0.628,-0.509 0.64,-0.512 0.652,-0.515 0.664,-0.518 0.675,-0.522 0.687,-0.526 v 0.069 c 0.011,-0.004 0.022,-0.008 0.034,-0.011 0.012,-0.003 0.024,-0.006 0.036,-0.009 v 0.071 C 0.768,-0.409 0.78,-0.411 0.792,-0.413 0.803,-0.415 0.815,-0.416 0.827,-0.417 v 0.07 C 0.838,-0.348 0.85,-0.349 0.862,-0.35 0.874,-0.351 0.885,-0.351 0.897,-0.351 v 0.07 c -0.012,0 -0.023,0 -0.035,0.001 -0.012,0 -0.024,0.001 -0.035,0.003 v -0.07 C 0.815,-0.346 0.803,-0.344 0.792,-0.343 0.78,-0.341 0.768,-0.339 0.757,-0.336 v -0.07 C 0.745,-0.404 0.733,-0.401 0.721,-0.398 0.709,-0.395 0.698,-0.391 0.687,-0.386 V -0.457 C 0.675,-0.452 0.664,-0.448 0.652,-0.445 0.64,-0.442 0.628,-0.439 0.616,-0.436 v -0.07 C 0.605,-0.504 0.593,-0.502 0.581,-0.5 0.569,-0.498 0.558,-0.496 0.546,-0.495 Z m 0.211,0.018 C 0.768,-0.549 0.78,-0.552 0.792,-0.553 0.803,-0.555 0.815,-0.557 0.827,-0.558 v 0.07 C 0.838,-0.489 0.85,-0.49 0.862,-0.49 0.874,-0.491 0.885,-0.491 0.897,-0.491 v 0.07 c 0.012,0 0.023,0 0.035,0.001 0.012,0 0.024,0.001 0.035,0.003 v 0.07 c 0.012,0.001 0.024,0.003 0.036,0.004 0.012,0.002 0.023,0.004 0.035,0.007 v 0.069 C 1.026,-0.269 1.015,-0.271 1.003,-0.273 0.991,-0.275 0.979,-0.276 0.967,-0.277 v -0.07 C 0.956,-0.348 0.944,-0.349 0.932,-0.35 0.92,-0.351 0.909,-0.351 0.897,-0.351 v -0.07 c -0.012,0 -0.023,0 -0.035,0.001 -0.012,0 -0.024,0.001 -0.035,0.003 V -0.488 C 0.815,-0.486 0.803,-0.485 0.792,-0.483 0.78,-0.481 0.768,-0.479 0.757,-0.477 Z m -0.492,0.09 c 0.012,0.005 0.023,0.009 0.035,0.012 0.012,0.003 0.023,0.006 0.035,0.009 v 0.07 c 0.012,0.003 0.023,0.005 0.035,0.007 0.012,0.001 0.024,0.003 0.036,0.004 v 0.07 c 0.011,0.002 0.023,0.003 0.035,0.003 0.012,10e-4 0.023,10e-4 0.035,10e-4 V -0.21 C 0.464,-0.21 0.453,-0.211 0.441,-0.211 0.429,-0.212 0.417,-0.213 0.406,-0.214 V -0.285 C 0.394,-0.286 0.382,-0.287 0.37,-0.289 0.358,-0.291 0.347,-0.293 0.335,-0.295 V -0.366 C 0.323,-0.368 0.312,-0.371 0.3,-0.375 0.288,-0.378 0.277,-0.382 0.265,-0.386 Z m 0.422,-0.14 C 0.675,-0.592 0.664,-0.588 0.652,-0.585 0.64,-0.582 0.628,-0.579 0.616,-0.576 v -0.07 C 0.605,-0.644 0.593,-0.642 0.581,-0.64 0.569,-0.639 0.558,-0.637 0.546,-0.636 v -0.07 C 0.558,-0.707 0.569,-0.708 0.581,-0.71 0.593,-0.712 0.605,-0.714 0.616,-0.716 v 0.07 C 0.628,-0.649 0.64,-0.652 0.652,-0.655 0.664,-0.659 0.675,-0.662 0.687,-0.667 v 0.07 c 0.022,-0.008 0.046,-0.015 0.07,-0.02 v 0.07 c -0.012,0.003 -0.024,0.006 -0.036,0.009 -0.012,0.003 -0.023,0.007 -0.034,0.012 z m 0.28,-0.031 C 0.956,-0.629 0.944,-0.63 0.932,-0.631 0.92,-0.632 0.909,-0.632 0.897,-0.632 v -0.07 c -0.012,0 -0.023,0 -0.035,0.001 -0.012,0 -0.024,0.001 -0.035,0.003 v -0.071 c 0.023,-0.002 0.047,-0.003 0.07,-0.003 v 0.07 c 0.012,0 0.023,0 0.035,0.001 0.012,0 0.024,0.001 0.035,0.003 z m 0.14,-0.039 v 0.07 C 1.085,-0.605 1.062,-0.612 1.038,-0.617 v -0.07 C 1.026,-0.69 1.015,-0.692 1.003,-0.694 0.991,-0.695 0.979,-0.697 0.967,-0.698 v -0.071 c 0.012,0.001 0.024,0.003 0.035,0.005 0.012,0.001 0.024,0.003 0.036,0.006 v 0.071 c 0.011,0.003 0.023,0.005 0.035,0.009 0.011,0.003 0.023,0.006 0.034,0.011 z m -0.561,0.102 c -0.011,0.001 -0.023,0.002 -0.035,0.003 -0.011,0 -0.023,0 -0.035,0 v -0.07 c -0.012,0 -0.023,0 -0.035,-0.001 -0.012,0 -0.024,-0.001 -0.035,-0.003 v -0.07 c 0.011,0.002 0.023,0.003 0.035,0.003 0.012,0.001 0.023,0.001 0.035,0.001 v 0.07 c 0.012,0 0.024,0 0.035,-0.001 0.012,0 0.024,-0.001 0.035,-0.003 z m 0.421,-0.063 c 0.012,0.001 0.024,0.003 0.036,0.004 0.012,0.002 0.023,0.004 0.035,0.007 v 0.07 c 0.012,0.003 0.023,0.006 0.035,0.009 0.012,0.003 0.023,0.007 0.034,0.012 v 0.069 C 1.096,-0.461 1.084,-0.465 1.073,-0.468 1.061,-0.471 1.049,-0.474 1.038,-0.477 v -0.07 C 1.026,-0.549 1.015,-0.552 1.003,-0.553 0.991,-0.555 0.979,-0.557 0.967,-0.558 Z m -0.702,0.382 v -0.07 c 0.012,0.005 0.023,0.009 0.035,0.012 0.012,0.003 0.023,0.006 0.035,0.009 v 0.07 C 0.323,-0.227 0.312,-0.23 0.3,-0.234 0.288,-0.237 0.277,-0.241 0.265,-0.246 Z"
         style="fill:#f2f2f2;fill-rule:nonzero"
         id="path20472" /></g></g></svg>
