<?xml version="1.0" encoding="UTF-8" standalone="no"?>
<svg
   width="16.32"
   height="16.305"
   viewBox="0 0 16.32 16.305"
   version="1.1"
   xml:space="preserve"
   style="clip-rule:evenodd;fill-rule:evenodd;stroke-linejoin:round;stroke-miterlimit:2"
   id="svg20568"
   sodipodi:docname="emojis.svg"
   xmlns:inkscape="http://www.inkscape.org/namespaces/inkscape"
   xmlns:sodipodi="http://sodipodi.sourceforge.net/DTD/sodipodi-0.dtd"
   xmlns="http://www.w3.org/2000/svg"
   xmlns:svg="http://www.w3.org/2000/svg"><defs
     id="defs20572" /><sodipodi:namedview
     id="namedview20570"
     pagecolor="#505050"
     bordercolor="#eeeeee"
     borderopacity="1"
     inkscape:pageshadow="0"
     inkscape:pageopacity="0"
     inkscape:pagecheckerboard="0" /><g
     transform="matrix(0.24,0,0,0.24,-131.55108,-1155.4242)"
     id="g20566"><g
       transform="matrix(62.5,0,0,62.5,540.317,4869.08)"
       id="g20532"><path
         d="m 1.213,-0.877 v 0.772 h -0.07 c -0.034,0 -0.066,0.006 -0.096,0.019 -0.03,0.013 -0.056,0.03 -0.078,0.053 C 0.947,-0.011 0.929,0.015 0.916,0.045 0.903,0.074 0.897,0.106 0.897,0.14 V 0.21 H 0.125 V 0.14 c 0,-0.07 0.007,-0.138 0.021,-0.204 0.014,-0.067 0.033,-0.13 0.059,-0.191 0.026,-0.061 0.057,-0.119 0.094,-0.173 0.037,-0.055 0.079,-0.105 0.125,-0.151 0.046,-0.046 0.096,-0.087 0.15,-0.124 0.055,-0.037 0.112,-0.069 0.173,-0.094 0.061,-0.026 0.125,-0.046 0.191,-0.06 0.066,-0.014 0.135,-0.02 0.205,-0.02 z"
         style="fill-rule:nonzero"
         id="path20518" /><path
         d="M 0.336,0.108 0.3,0.14 H 0.195 c 0,-0.087 0.012,-0.171 0.034,-0.251 0.023,-0.081 0.055,-0.156 0.096,-0.227 0.041,-0.07 0.091,-0.134 0.148,-0.191 0.058,-0.058 0.122,-0.107 0.192,-0.148 0.07,-0.042 0.145,-0.074 0.226,-0.096 0.081,-0.023 0.165,-0.034 0.252,-0.034 v 0.105 L 1.1,-0.666 c -0.073,0.005 -0.142,0.017 -0.208,0.037 -0.065,0.02 -0.125,0.046 -0.181,0.078 -0.055,0.033 -0.106,0.072 -0.15,0.117 -0.045,0.046 -0.084,0.096 -0.116,0.152 -0.032,0.055 -0.058,0.116 -0.076,0.181 -0.019,0.066 -0.03,0.135 -0.033,0.209 z"
         style="fill:#e81224;fill-rule:nonzero"
         id="path20520" /><path
         d="M 0.441,0.117 0.406,0.14 H 0.3 c 0,-0.077 0.01,-0.152 0.03,-0.223 0.02,-0.072 0.049,-0.139 0.085,-0.202 0.037,-0.062 0.081,-0.119 0.132,-0.17 0.051,-0.052 0.108,-0.096 0.171,-0.132 0.062,-0.037 0.129,-0.065 0.201,-0.085 0.072,-0.02 0.146,-0.03 0.224,-0.03 v 0.105 l -0.031,0.036 c -0.061,0 -0.119,0.008 -0.176,0.025 -0.056,0.017 -0.109,0.041 -0.159,0.071 -0.05,0.03 -0.095,0.066 -0.136,0.108 -0.041,0.042 -0.077,0.088 -0.106,0.138 -0.03,0.05 -0.053,0.104 -0.069,0.161 -0.017,0.056 -0.025,0.115 -0.025,0.175 z"
         style="fill:#f7630c;fill-rule:nonzero"
         id="path20522" /><path
         d="M 0.547,0.105 0.511,0.14 H 0.406 c 0,-0.068 0.009,-0.133 0.026,-0.195 0.018,-0.063 0.043,-0.122 0.075,-0.176 0.032,-0.055 0.07,-0.105 0.115,-0.15 0.045,-0.044 0.094,-0.083 0.149,-0.115 0.055,-0.032 0.113,-0.057 0.176,-0.074 0.063,-0.018 0.128,-0.027 0.196,-0.027 v 0.106 l -0.052,0.027 c -0.078,0.01 -0.15,0.03 -0.214,0.061 -0.065,0.031 -0.121,0.07 -0.168,0.119 -0.047,0.049 -0.085,0.106 -0.113,0.172 -0.028,0.066 -0.044,0.138 -0.049,0.217 z"
         style="fill:#ffc83d;fill-rule:nonzero"
         id="path20524" /><path
         d="M 0.652,0.112 0.616,0.14 H 0.511 c 0,-0.058 0.008,-0.114 0.023,-0.167 0.015,-0.054 0.036,-0.104 0.064,-0.151 0.027,-0.047 0.06,-0.09 0.098,-0.128 0.039,-0.039 0.081,-0.071 0.128,-0.099 0.047,-0.027 0.097,-0.048 0.151,-0.064 0.054,-0.015 0.11,-0.022 0.168,-0.022 v 0.105 l -0.048,0.035 c -0.063,0.01 -0.12,0.028 -0.17,0.055 C 0.874,-0.27 0.83,-0.237 0.793,-0.197 0.756,-0.158 0.725,-0.112 0.702,-0.059 0.678,-0.007 0.661,0.05 0.652,0.112 Z"
         style="fill:#16c60c;fill-rule:nonzero"
         id="path20526" /><path
         d="M 0.758,0.105 0.722,0.14 H 0.616 C 0.616,0.092 0.622,0.045 0.635,0 0.648,-0.044 0.665,-0.086 0.688,-0.125 0.711,-0.164 0.739,-0.2 0.771,-0.232 0.803,-0.264 0.838,-0.291 0.877,-0.314 0.916,-0.337 0.958,-0.355 1.003,-0.367 1.047,-0.38 1.094,-0.386 1.143,-0.386 v 0.105 L 1.1,-0.244 c -0.045,0.01 -0.087,0.025 -0.124,0.046 -0.037,0.021 -0.07,0.047 -0.099,0.077 -0.028,0.03 -0.052,0.064 -0.072,0.103 C 0.785,0.02 0.769,0.061 0.758,0.105 Z"
         style="fill:#0046ff;fill-rule:nonzero"
         id="path20528" /><path
         d="M 0.827,0.14 H 0.722 c 0,-0.039 0.005,-0.076 0.015,-0.112 0.01,-0.035 0.024,-0.069 0.042,-0.1 0.019,-0.031 0.04,-0.06 0.066,-0.085 0.026,-0.026 0.054,-0.048 0.085,-0.066 0.032,-0.018 0.065,-0.033 0.101,-0.043 0.036,-0.01 0.073,-0.015 0.112,-0.015 v 0.105 c -0.029,0 -0.057,0.004 -0.084,0.011 C 1.032,-0.157 1.007,-0.146 0.983,-0.133 0.96,-0.119 0.939,-0.102 0.919,-0.083 0.9,-0.064 0.884,-0.042 0.87,-0.019 0.856,0.004 0.845,0.03 0.838,0.056 0.83,0.083 0.827,0.111 0.827,0.14 Z"
         style="fill:#744da9;fill-rule:nonzero"
         id="path20530" /></g></g></svg>
