<?xml version="1.0" encoding="UTF-8" standalone="no"?>
<svg
   width="16.844999"
   height="16.844999"
   viewBox="0 0 16.844999 16.844999"
   version="1.1"
   xml:space="preserve"
   style="clip-rule:evenodd;fill-rule:evenodd;stroke-linejoin:round;stroke-miterlimit:2"
   id="svg20568"
   sodipodi:docname="emojis.svg"
   xmlns:inkscape="http://www.inkscape.org/namespaces/inkscape"
   xmlns:sodipodi="http://sodipodi.sourceforge.net/DTD/sodipodi-0.dtd"
   xmlns="http://www.w3.org/2000/svg"
   xmlns:svg="http://www.w3.org/2000/svg"><defs
     id="defs20572" /><sodipodi:namedview
     id="namedview20570"
     pagecolor="#505050"
     bordercolor="#eeeeee"
     borderopacity="1"
     inkscape:pageshadow="0"
     inkscape:pageopacity="0"
     inkscape:pagecheckerboard="0" /><g
     transform="matrix(0.24,0,0,0.24,-399.2502,-76.77852)"
     id="g20566"><g
       transform="matrix(62.5,0,0,62.5,1655.73,376.973)"
       id="g224"><path
         d="m 1.248,-0.351 c 0,0.052 -0.007,0.101 -0.02,0.149 C 1.215,-0.154 1.196,-0.109 1.171,-0.068 1.147,-0.026 1.118,0.012 1.083,0.046 1.049,0.08 1.011,0.109 0.97,0.134 0.928,0.158 0.884,0.177 0.836,0.19 0.788,0.204 0.738,0.21 0.687,0.21 0.635,0.21 0.585,0.204 0.537,0.19 0.489,0.177 0.445,0.158 0.403,0.134 0.362,0.109 0.324,0.08 0.29,0.046 0.255,0.012 0.226,-0.026 0.202,-0.068 0.177,-0.109 0.158,-0.154 0.145,-0.202 0.132,-0.25 0.125,-0.299 0.125,-0.351 c 0,-0.052 0.007,-0.102 0.02,-0.149 0.013,-0.048 0.032,-0.093 0.057,-0.135 0.024,-0.041 0.053,-0.079 0.088,-0.113 0.034,-0.034 0.072,-0.064 0.113,-0.088 0.042,-0.024 0.086,-0.043 0.134,-0.057 0.048,-0.013 0.098,-0.02 0.15,-0.02 0.051,0 0.101,0.007 0.149,0.02 0.048,0.014 0.092,0.033 0.134,0.057 0.041,0.024 0.079,0.054 0.113,0.088 0.035,0.034 0.064,0.072 0.088,0.113 0.025,0.042 0.044,0.087 0.057,0.135 0.013,0.047 0.02,0.097 0.02,0.149 z"
         style="fill-rule:nonzero"
         id="path214" /><path
         d="m 1.178,-0.351 c 0,0.045 -0.006,0.089 -0.018,0.131 -0.012,0.041 -0.028,0.081 -0.049,0.117 -0.022,0.036 -0.047,0.07 -0.077,0.099 C 1.004,0.026 0.971,0.052 0.935,0.073 0.898,0.094 0.859,0.111 0.817,0.123 0.775,0.134 0.732,0.14 0.687,0.14 0.641,0.14 0.598,0.134 0.556,0.123 0.514,0.111 0.475,0.094 0.438,0.073 0.402,0.052 0.369,0.026 0.339,-0.004 0.309,-0.033 0.284,-0.067 0.262,-0.103 0.241,-0.139 0.225,-0.179 0.213,-0.22 0.201,-0.262 0.195,-0.306 0.195,-0.351 c 0,-0.045 0.006,-0.089 0.018,-0.131 0.012,-0.042 0.028,-0.081 0.049,-0.117 0.022,-0.037 0.047,-0.07 0.077,-0.099 0.03,-0.03 0.063,-0.056 0.099,-0.077 0.037,-0.021 0.076,-0.038 0.118,-0.05 0.042,-0.011 0.085,-0.017 0.131,-0.017 0.045,0 0.088,0.006 0.13,0.017 0.042,0.012 0.081,0.029 0.118,0.05 0.036,0.021 0.069,0.047 0.099,0.077 0.03,0.029 0.055,0.062 0.077,0.099 0.021,0.036 0.037,0.075 0.049,0.117 0.012,0.042 0.018,0.086 0.018,0.131 z"
         style="fill:#ffc83d;fill-rule:nonzero"
         id="path216" /><path
         d="m 0.511,-0.491 c 0.015,0 0.029,0.003 0.041,0.008 0.013,0.006 0.024,0.013 0.033,0.023 0.01,0.009 0.017,0.02 0.023,0.033 0.005,0.012 0.008,0.026 0.008,0.041 H 0.581 c 0,-0.01 -0.003,-0.018 -0.01,-0.025 -0.007,-0.007 -0.016,-0.01 -0.025,-0.01 H 0.441 c -0.01,0 -0.018,0.003 -0.025,0.01 -0.007,0.007 -0.01,0.015 -0.01,0.025 H 0.371 c 0,-0.015 0.002,-0.029 0.008,-0.041 0.005,-0.013 0.013,-0.024 0.023,-0.033 0.009,-0.01 0.02,-0.017 0.033,-0.023 0.013,-0.005 0.026,-0.008 0.041,-0.008 z m 0.386,0 c 0.015,0 0.028,0.003 0.041,0.008 0.013,0.006 0.024,0.013 0.033,0.023 0.01,0.009 0.018,0.02 0.023,0.033 0.006,0.012 0.008,0.026 0.008,0.041 H 0.967 c 0,-0.01 -0.003,-0.018 -0.01,-0.025 C 0.95,-0.418 0.942,-0.421 0.932,-0.421 H 0.827 c -0.01,0 -0.018,0.003 -0.025,0.01 -0.007,0.007 -0.01,0.015 -0.01,0.025 H 0.757 c 0,-0.015 0.003,-0.029 0.008,-0.041 0.006,-0.013 0.013,-0.024 0.023,-0.033 0.009,-0.01 0.02,-0.017 0.033,-0.023 0.012,-0.005 0.026,-0.008 0.041,-0.008 z"
         style="fill-rule:nonzero"
         id="path218" /><path
         d="m 0.792,-0.246 c 0,0.01 -0.002,0.018 -0.005,0.027 -0.004,0.008 -0.009,0.015 -0.015,0.021 -0.006,0.007 -0.013,0.012 -0.022,0.016 -0.008,0.004 -0.016,0.006 -0.025,0.006 0.009,0.001 0.017,0.003 0.026,0.007 0.008,0.003 0.015,0.009 0.021,0.015 0.006,0.006 0.011,0.014 0.015,0.022 0.003,0.009 0.005,0.017 0.005,0.027 0,0.009 -0.002,0.018 -0.006,0.027 C 0.783,-0.07 0.778,-0.062 0.771,-0.056 0.765,-0.05 0.757,-0.045 0.749,-0.041 0.741,-0.037 0.731,-0.035 0.722,-0.035 H 0.616 C 0.611,-0.035 0.607,-0.037 0.604,-0.04 0.6,-0.044 0.599,-0.048 0.599,-0.053 0.599,-0.058 0.6,-0.062 0.604,-0.065 0.607,-0.069 0.611,-0.07 0.616,-0.07 h 0.106 c 0.009,0 0.017,-0.004 0.024,-0.011 0.007,-0.007 0.011,-0.015 0.011,-0.024 0,-0.01 -0.004,-0.018 -0.011,-0.025 C 0.739,-0.137 0.731,-0.141 0.722,-0.141 H 0.669 c -0.01,0 -0.018,-0.003 -0.025,-0.01 -0.007,-0.007 -0.01,-0.015 -0.01,-0.025 0,-0.009 0.003,-0.017 0.01,-0.024 0.007,-0.007 0.016,-0.01 0.025,-0.01 h 0.053 c 0.009,0 0.017,-0.004 0.024,-0.011 0.007,-0.007 0.011,-0.015 0.011,-0.025 0,-0.009 -0.004,-0.017 -0.011,-0.024 C 0.739,-0.277 0.731,-0.281 0.722,-0.281 H 0.616 C 0.611,-0.281 0.607,-0.282 0.604,-0.286 0.6,-0.289 0.599,-0.293 0.599,-0.298 c 0,-0.005 0.001,-0.009 0.005,-0.013 0.003,-0.003 0.007,-0.005 0.012,-0.005 h 0.106 c 0.009,0 0.019,0.002 0.027,0.006 0.008,0.003 0.016,0.008 0.022,0.015 0.007,0.006 0.012,0.014 0.015,0.022 0.004,0.009 0.006,0.018 0.006,0.027 z M 0.88,-0.631 c 0.006,0 0.013,0.001 0.023,0.002 0.009,0.001 0.019,0.003 0.029,0.005 0.011,0.003 0.021,0.006 0.031,0.01 0.011,0.004 0.02,0.008 0.029,0.013 0.008,0.005 0.015,0.011 0.02,0.018 0.005,0.006 0.008,0.013 0.008,0.021 0,0.01 -0.003,0.018 -0.01,0.025 -0.007,0.007 -0.015,0.011 -0.025,0.011 -0.005,0 -0.01,-0.002 -0.017,-0.006 C 0.961,-0.535 0.954,-0.539 0.945,-0.544 0.936,-0.548 0.926,-0.552 0.915,-0.556 0.904,-0.559 0.892,-0.561 0.879,-0.561 c -0.013,0 -0.025,0.002 -0.035,0.005 -0.011,0.004 -0.021,0.008 -0.03,0.012 -0.009,0.005 -0.017,0.009 -0.023,0.012 -0.007,0.004 -0.013,0.006 -0.017,0.006 -0.01,0 -0.018,-0.004 -0.024,-0.011 -0.007,-0.007 -0.011,-0.015 -0.011,-0.025 0,-0.007 0.003,-0.015 0.008,-0.021 0.005,-0.007 0.012,-0.013 0.021,-0.018 0.008,-0.005 0.017,-0.009 0.028,-0.013 0.01,-0.004 0.021,-0.007 0.031,-0.01 0.011,-0.002 0.02,-0.004 0.03,-0.005 0.009,-0.001 0.017,-0.002 0.023,-0.002 z m -0.386,0 c 0.006,0 0.014,0.001 0.023,0.002 0.009,0.001 0.019,0.003 0.029,0.005 0.011,0.003 0.021,0.006 0.032,0.01 0.01,0.004 0.019,0.008 0.028,0.013 0.008,0.005 0.015,0.011 0.02,0.018 0.005,0.006 0.008,0.013 0.008,0.021 0,0.01 -0.004,0.018 -0.011,0.025 -0.007,0.007 -0.015,0.011 -0.024,0.011 -0.005,0 -0.011,-0.002 -0.017,-0.006 C 0.575,-0.535 0.567,-0.539 0.559,-0.544 0.55,-0.548 0.54,-0.552 0.529,-0.556 0.518,-0.559 0.506,-0.561 0.493,-0.561 c -0.013,0 -0.025,0.002 -0.035,0.005 -0.011,0.004 -0.021,0.008 -0.03,0.012 -0.009,0.005 -0.016,0.009 -0.023,0.012 -0.007,0.004 -0.012,0.006 -0.017,0.006 -0.01,0 -0.018,-0.004 -0.025,-0.011 -0.007,-0.007 -0.01,-0.015 -0.01,-0.025 0,-0.008 0.003,-0.015 0.008,-0.021 0.005,-0.007 0.012,-0.013 0.02,-0.018 0.009,-0.005 0.018,-0.009 0.029,-0.013 0.01,-0.004 0.021,-0.007 0.031,-0.01 0.01,-0.002 0.02,-0.004 0.03,-0.005 0.009,-0.001 0.017,-0.002 0.023,-0.002 z"
         style="fill:#d48c00;fill-rule:nonzero"
         id="path220" /><path
         d="m 0.441,-0.316 c 0.015,0 0.028,0.003 0.041,0.008 0.013,0.006 0.024,0.013 0.033,0.023 0.01,0.01 0.017,0.021 0.023,0.034 0.005,0.012 0.008,0.026 0.008,0.041 0,0.014 -0.003,0.028 -0.008,0.041 -0.006,0.012 -0.013,0.023 -0.023,0.033 -0.009,0.009 -0.02,0.017 -0.033,0.022 C 0.469,-0.108 0.456,-0.105 0.441,-0.105 0.426,-0.105 0.413,-0.108 0.4,-0.114 0.387,-0.119 0.376,-0.127 0.366,-0.136 0.357,-0.146 0.349,-0.157 0.344,-0.169 0.338,-0.182 0.335,-0.196 0.335,-0.21 c 0,-0.015 0.003,-0.029 0.009,-0.041 0.005,-0.013 0.013,-0.024 0.022,-0.034 0.01,-0.01 0.021,-0.017 0.034,-0.023 0.013,-0.005 0.026,-0.008 0.041,-0.008 z m 0.491,0 c 0.015,0 0.028,0.003 0.041,0.008 0.013,0.006 0.024,0.013 0.034,0.023 0.009,0.01 0.017,0.021 0.022,0.034 0.006,0.012 0.009,0.026 0.009,0.041 0,0.014 -0.003,0.028 -0.009,0.041 -0.005,0.012 -0.013,0.023 -0.022,0.033 -0.01,0.009 -0.021,0.017 -0.034,0.022 -0.013,0.006 -0.026,0.009 -0.041,0.009 -0.015,0 -0.028,-0.003 -0.041,-0.009 C 0.878,-0.119 0.867,-0.127 0.858,-0.136 0.848,-0.146 0.84,-0.157 0.835,-0.169 0.829,-0.182 0.827,-0.196 0.827,-0.21 c 0,-0.015 0.002,-0.029 0.008,-0.041 0.005,-0.013 0.013,-0.024 0.023,-0.034 0.009,-0.01 0.02,-0.017 0.033,-0.023 0.013,-0.005 0.026,-0.008 0.041,-0.008 z"
         style="fill:#f7894a;fill-rule:nonzero"
         id="path222" /></g></g></svg>
