<?xml version="1.0" encoding="UTF-8" standalone="no"?>
<svg
   width="16.844999"
   height="16.844999"
   viewBox="0 0 16.844999 16.844999"
   version="1.1"
   xml:space="preserve"
   style="clip-rule:evenodd;fill-rule:evenodd;stroke-linejoin:round;stroke-miterlimit:2"
   id="svg20568"
   sodipodi:docname="emojis.svg"
   xmlns:inkscape="http://www.inkscape.org/namespaces/inkscape"
   xmlns:sodipodi="http://sodipodi.sourceforge.net/DTD/sodipodi-0.dtd"
   xmlns="http://www.w3.org/2000/svg"
   xmlns:svg="http://www.w3.org/2000/svg"><defs
     id="defs20572" /><sodipodi:namedview
     id="namedview20570"
     pagecolor="#505050"
     bordercolor="#eeeeee"
     borderopacity="1"
     inkscape:pageshadow="0"
     inkscape:pageopacity="0"
     inkscape:pagecheckerboard="0" /><g
     transform="matrix(0.24,0,0,0.24,-110.95524,-178.59996)"
     id="g20566"><g
       transform="matrix(62.5,0,0,62.5,454.501,801.229)"
       id="g2378"><path
         d="M 0.687,0.21 C 0.633,0.21 0.581,0.201 0.531,0.183 0.481,0.164 0.435,0.138 0.394,0.104 0.355,0.1 0.32,0.09 0.287,0.073 0.255,0.055 0.226,0.034 0.202,0.007 0.178,-0.02 0.159,-0.05 0.146,-0.085 0.132,-0.119 0.125,-0.155 0.125,-0.193 v -0.316 c 0,-0.021 0.004,-0.042 0.012,-0.061 0.009,-0.019 0.02,-0.036 0.034,-0.05 0.014,-0.015 0.031,-0.026 0.05,-0.035 0.019,-0.008 0.039,-0.012 0.061,-0.012 0.02,-0.038 0.044,-0.072 0.072,-0.102 0.029,-0.03 0.061,-0.056 0.096,-0.077 0.035,-0.022 0.072,-0.038 0.112,-0.05 0.041,-0.011 0.082,-0.017 0.125,-0.017 0.042,0 0.083,0.006 0.123,0.017 0.041,0.012 0.078,0.028 0.113,0.05 0.035,0.021 0.067,0.047 0.096,0.077 0.028,0.03 0.052,0.064 0.072,0.102 0.022,0 0.042,0.004 0.061,0.012 0.019,0.009 0.036,0.02 0.05,0.035 0.014,0.014 0.025,0.031 0.034,0.05 0.008,0.019 0.012,0.04 0.012,0.061 v 0.316 c 0,0.038 -0.007,0.074 -0.02,0.108 C 1.214,-0.05 1.195,-0.02 1.171,0.007 1.147,0.034 1.118,0.055 1.086,0.073 1.053,0.09 1.018,0.1 0.979,0.104 0.938,0.138 0.892,0.164 0.842,0.183 0.792,0.201 0.74,0.21 0.687,0.21 Z"
         style="fill-rule:nonzero"
         id="path2362" /><path
         d="m 1.178,-0.509 v 0.316 c 0,0.031 -0.006,0.061 -0.018,0.089 C 1.148,-0.077 1.132,-0.053 1.111,-0.032 1.09,-0.011 1.066,0.005 1.039,0.017 1.011,0.029 0.981,0.035 0.95,0.035 H 0.423 C 0.392,0.035 0.362,0.029 0.334,0.017 0.307,0.005 0.283,-0.011 0.262,-0.032 0.241,-0.053 0.225,-0.077 0.213,-0.104 0.201,-0.132 0.195,-0.162 0.195,-0.193 v -0.316 c 0,-0.012 0.003,-0.023 0.007,-0.034 0.005,-0.011 0.011,-0.02 0.019,-0.028 0.008,-0.008 0.017,-0.014 0.028,-0.019 0.01,-0.004 0.022,-0.007 0.034,-0.007 h 0.044 c 0.014,-0.037 0.034,-0.07 0.058,-0.101 0.024,-0.03 0.052,-0.056 0.084,-0.077 0.031,-0.021 0.066,-0.038 0.103,-0.05 0.036,-0.011 0.075,-0.017 0.115,-0.017 0.039,0 0.078,0.006 0.115,0.017 0.036,0.012 0.071,0.029 0.102,0.05 0.032,0.021 0.06,0.047 0.084,0.077 0.024,0.031 0.044,0.064 0.058,0.101 H 1.09 c 0.012,0 0.024,0.003 0.034,0.007 0.011,0.005 0.02,0.011 0.028,0.019 0.008,0.008 0.014,0.017 0.019,0.028 0.004,0.011 0.007,0.022 0.007,0.034 z"
         style="fill:#f2f2f2;fill-rule:nonzero"
         id="path2364" /><path
         d="m 0.749,-0.707 c 0.012,0.03 0.028,0.057 0.048,0.082 0.02,0.024 0.042,0.046 0.067,0.064 0.025,0.019 0.053,0.034 0.082,0.045 0.029,0.012 0.06,0.019 0.092,0.022 v 0.409 C 1.022,-0.051 1.002,-0.02 0.978,0.008 0.953,0.035 0.926,0.059 0.895,0.079 0.865,0.099 0.832,0.114 0.796,0.124 0.761,0.135 0.724,0.14 0.687,0.14 0.649,0.14 0.612,0.135 0.577,0.124 0.541,0.114 0.508,0.099 0.478,0.079 0.447,0.059 0.42,0.035 0.396,0.008 0.371,-0.02 0.351,-0.051 0.335,-0.085 v -0.406 h 0.036 c 0.045,0 0.088,-0.008 0.129,-0.025 0.042,-0.016 0.079,-0.04 0.111,-0.071 z"
         style="fill:#ffc83d;fill-rule:nonzero"
         id="path2366" /><path
         d="m 0.757,-0.246 c 0,0.01 -0.002,0.019 -0.006,0.028 C 0.747,-0.21 0.742,-0.202 0.736,-0.196 0.73,-0.19 0.722,-0.185 0.714,-0.181 0.705,-0.178 0.696,-0.176 0.687,-0.176 0.677,-0.176 0.668,-0.178 0.659,-0.181 0.651,-0.185 0.643,-0.19 0.637,-0.196 0.631,-0.202 0.626,-0.21 0.622,-0.218 0.618,-0.227 0.616,-0.236 0.616,-0.246 Z"
         style="fill:#f7894a;fill-rule:nonzero"
         id="path2368" /><path
         d="M 0.687,0 C 0.68,0 0.673,-0.001 0.663,-0.002 0.654,-0.003 0.644,-0.005 0.634,-0.008 0.623,-0.01 0.613,-0.014 0.603,-0.018 0.592,-0.021 0.583,-0.026 0.574,-0.031 0.566,-0.036 0.559,-0.042 0.554,-0.049 0.549,-0.055 0.546,-0.062 0.546,-0.07 c 0,-0.01 0.003,-0.018 0.01,-0.025 0.007,-0.007 0.016,-0.01 0.025,-0.01 0.005,0 0.011,0.001 0.018,0.005 0.007,0.004 0.015,0.008 0.024,0.012 0.009,0.005 0.019,0.009 0.029,0.012 0.011,0.004 0.022,0.006 0.035,0.006 0.012,0 0.023,-0.002 0.034,-0.006 0.01,-0.003 0.02,-0.007 0.029,-0.012 0.009,-0.004 0.017,-0.008 0.024,-0.012 0.007,-0.004 0.013,-0.005 0.018,-0.005 0.009,0 0.018,0.003 0.025,0.01 0.007,0.007 0.01,0.015 0.01,0.025 0,0.008 -0.002,0.015 -0.008,0.021 -0.005,0.007 -0.012,0.013 -0.02,0.018 C 0.79,-0.026 0.781,-0.021 0.771,-0.018 0.76,-0.014 0.75,-0.01 0.739,-0.008 0.729,-0.005 0.719,-0.003 0.71,-0.002 0.7,-0.001 0.693,0 0.687,0 Z"
         style="fill:#f03a17;fill-rule:nonzero"
         id="path2370" /><path
         d="m 0.494,-0.457 c 0.007,0 0.014,0.002 0.02,0.005 0.006,0.002 0.012,0.006 0.017,0.011 0.004,0.005 0.008,0.011 0.011,0.017 0.003,0.006 0.004,0.013 0.004,0.02 v 0.071 c 0,0.007 -0.001,0.013 -0.004,0.02 -0.003,0.006 -0.007,0.012 -0.011,0.017 -0.005,0.004 -0.011,0.008 -0.017,0.011 -0.006,0.003 -0.013,0.004 -0.02,0.004 -0.008,0 -0.014,-10e-4 -0.021,-0.004 C 0.467,-0.288 0.461,-0.292 0.457,-0.296 0.452,-0.301 0.448,-0.307 0.445,-0.313 0.442,-0.32 0.441,-0.326 0.441,-0.333 v -0.071 c 0,-0.007 0.001,-0.014 0.004,-0.02 0.003,-0.006 0.007,-0.012 0.012,-0.017 0.004,-0.005 0.01,-0.009 0.016,-0.011 0.007,-0.003 0.013,-0.005 0.021,-0.005 z m 0.385,0 c 0.008,0 0.014,0.002 0.021,0.005 0.006,0.002 0.012,0.006 0.017,0.011 0.004,0.005 0.008,0.011 0.011,0.017 0.003,0.006 0.004,0.013 0.004,0.02 v 0.071 c 0,0.007 -0.001,0.013 -0.004,0.02 -0.003,0.006 -0.007,0.012 -0.011,0.017 -0.005,0.004 -0.011,0.008 -0.017,0.011 -0.007,0.003 -0.013,0.004 -0.021,0.004 -0.007,0 -0.014,-10e-4 -0.02,-0.004 C 0.853,-0.288 0.847,-0.292 0.843,-0.296 0.838,-0.301 0.834,-0.307 0.831,-0.313 0.829,-0.32 0.827,-0.326 0.827,-0.333 v -0.071 c 0,-0.007 0.002,-0.014 0.004,-0.02 0.003,-0.006 0.007,-0.012 0.012,-0.017 0.004,-0.005 0.01,-0.009 0.016,-0.011 0.006,-0.003 0.013,-0.005 0.02,-0.005 z"
         style="fill-rule:nonzero"
         id="path2372" /><path
         d="m 1.038,-0.351 v 0.053 c 0,0.012 -0.003,0.023 -0.007,0.034 -0.005,0.01 -0.011,0.019 -0.019,0.027 -0.008,0.008 -0.017,0.015 -0.028,0.019 -0.011,0.005 -0.022,0.007 -0.034,0.007 H 0.81 C 0.798,-0.211 0.786,-0.213 0.775,-0.218 0.765,-0.222 0.755,-0.229 0.747,-0.237 0.739,-0.245 0.733,-0.254 0.729,-0.264 0.724,-0.275 0.722,-0.286 0.722,-0.298 v -0.018 c 0,-0.01 -0.004,-0.018 -0.011,-0.025 -0.006,-0.007 -0.015,-0.01 -0.024,-0.01 -0.01,0 -0.019,0.003 -0.025,0.01 -0.007,0.007 -0.011,0.015 -0.011,0.025 v 0.018 c 0,0.012 -0.002,0.023 -0.006,0.034 -0.005,0.01 -0.011,0.019 -0.019,0.027 -0.008,0.008 -0.018,0.015 -0.028,0.019 -0.011,0.005 -0.022,0.007 -0.035,0.007 H 0.423 C 0.411,-0.211 0.4,-0.213 0.389,-0.218 0.378,-0.222 0.369,-0.229 0.361,-0.237 0.353,-0.245 0.347,-0.254 0.342,-0.264 0.338,-0.275 0.335,-0.286 0.335,-0.298 v -0.053 h 0.036 c 0.001,0.005 0.004,0.012 0.007,0.02 0.003,0.009 0.007,0.017 0.012,0.025 0.005,0.008 0.01,0.016 0.016,0.022 0.005,0.006 0.011,0.009 0.017,0.009 h 0.14 c 0.009,0 0.015,-0.003 0.021,-0.009 0.006,-0.005 0.011,-0.012 0.016,-0.02 0.004,-0.008 0.009,-0.017 0.014,-0.027 0.005,-0.009 0.011,-0.018 0.017,-0.026 0.006,-0.009 0.014,-0.015 0.023,-0.021 0.009,-0.005 0.02,-0.008 0.033,-0.008 0.012,0 0.023,0.003 0.032,0.008 0.009,0.006 0.017,0.012 0.023,0.021 0.006,0.008 0.012,0.017 0.017,0.026 0.005,0.01 0.01,0.019 0.014,0.027 0.005,0.008 0.011,0.015 0.016,0.02 0.006,0.006 0.012,0.009 0.021,0.009 h 0.14 c 0.006,0 0.012,-0.003 0.018,-0.009 0.005,-0.006 0.01,-0.014 0.015,-0.022 0.004,-0.008 0.008,-0.016 0.012,-0.025 0.003,-0.008 0.006,-0.015 0.007,-0.02 z"
         style="fill:#886ce4;fill-rule:nonzero"
         id="path2374" /><path
         d="m 0.371,-0.351 h 0.255 c -0.005,0.008 -0.008,0.016 -0.009,0.023 0,0.008 -0.001,0.016 -0.001,0.025 v 0.005 c 0,0.007 -0.001,0.014 -0.004,0.02 C 0.609,-0.272 0.605,-0.266 0.601,-0.261 0.596,-0.256 0.59,-0.253 0.584,-0.25 0.577,-0.247 0.571,-0.246 0.563,-0.246 H 0.423 C 0.416,-0.246 0.409,-0.247 0.403,-0.25 0.397,-0.253 0.391,-0.256 0.386,-0.261 0.381,-0.266 0.378,-0.272 0.375,-0.278 0.372,-0.284 0.371,-0.291 0.371,-0.298 Z m 0.631,0 v 0.053 c 0,0.007 -0.001,0.014 -0.004,0.02 C 0.996,-0.272 0.992,-0.266 0.987,-0.261 0.982,-0.256 0.976,-0.253 0.97,-0.25 0.964,-0.247 0.957,-0.246 0.95,-0.246 H 0.81 C 0.801,-0.246 0.794,-0.247 0.787,-0.25 0.781,-0.253 0.775,-0.258 0.771,-0.263 0.766,-0.268 0.763,-0.274 0.76,-0.281 0.758,-0.288 0.757,-0.296 0.757,-0.304 0.757,-0.313 0.756,-0.321 0.755,-0.328 0.754,-0.335 0.751,-0.343 0.747,-0.351 Z"
         style="fill:#b3dbf2;fill-rule:nonzero"
         id="path2376" /></g></g></svg>
