<?xml version="1.0" encoding="UTF-8" standalone="no"?>
<svg
   width="13.695"
   height="16.844999"
   viewBox="0 0 13.695 16.844999"
   version="1.1"
   xml:space="preserve"
   style="clip-rule:evenodd;fill-rule:evenodd;stroke-linejoin:round;stroke-miterlimit:2"
   id="svg20568"
   sodipodi:docname="emojis.svg"
   xmlns:inkscape="http://www.inkscape.org/namespaces/inkscape"
   xmlns:sodipodi="http://sodipodi.sourceforge.net/DTD/sodipodi-0.dtd"
   xmlns="http://www.w3.org/2000/svg"
   xmlns:svg="http://www.w3.org/2000/svg"><defs
     id="defs20572" /><sodipodi:namedview
     id="namedview20570"
     pagecolor="#505050"
     bordercolor="#eeeeee"
     borderopacity="1"
     inkscape:pageshadow="0"
     inkscape:pageopacity="0"
     inkscape:pagecheckerboard="0" /><g
     transform="matrix(0.24,0,0,0.24,-131.55108,-178.59996)"
     id="g20566"><g
       transform="matrix(62.5,0,0,62.5,540.317,801.229)"
       id="g2394"><path
         d="m 0.968,-0.241 c 0.023,0.028 0.04,0.058 0.052,0.091 0.012,0.033 0.018,0.068 0.018,0.104 V 0.21 H 0.125 v -0.256 c 0,-0.036 0.006,-0.07 0.018,-0.103 0.012,-0.033 0.029,-0.064 0.052,-0.091 v -0.286 c 0,-0.036 0.004,-0.07 0.014,-0.103 0.009,-0.033 0.022,-0.064 0.039,-0.092 0.017,-0.029 0.037,-0.055 0.06,-0.078 0.024,-0.024 0.05,-0.044 0.078,-0.061 0.029,-0.016 0.06,-0.029 0.093,-0.039 0.032,-0.009 0.067,-0.014 0.102,-0.014 0.036,0 0.07,0.005 0.103,0.014 0.032,0.01 0.063,0.023 0.092,0.039 0.029,0.017 0.055,0.037 0.078,0.061 0.024,0.023 0.044,0.049 0.061,0.078 0.017,0.028 0.03,0.059 0.039,0.092 0.009,0.033 0.014,0.067 0.014,0.103 z"
         style="fill-rule:nonzero"
         id="path2380" /><path
         d="m 0.266,-0.21 v -0.316 c 0,-0.044 0.008,-0.085 0.024,-0.123 0.017,-0.038 0.039,-0.072 0.068,-0.101 0.029,-0.028 0.062,-0.051 0.1,-0.067 0.039,-0.017 0.079,-0.025 0.123,-0.025 0.044,0 0.085,0.008 0.123,0.025 0.039,0.016 0.072,0.039 0.1,0.067 0.029,0.029 0.051,0.063 0.068,0.101 0.017,0.038 0.025,0.079 0.025,0.123 v 0.316 z"
         style="fill:#8e562e;fill-rule:nonzero"
         id="path2382" /><path
         d="m 0.195,0.14 v -0.186 c 0,-0.033 0.006,-0.063 0.019,-0.092 0.012,-0.028 0.029,-0.053 0.05,-0.074 C 0.285,-0.233 0.31,-0.25 0.339,-0.262 0.368,-0.274 0.398,-0.28 0.43,-0.28 h 0.303 c 0.032,0 0.063,0.006 0.091,0.018 0.029,0.012 0.054,0.029 0.075,0.05 0.021,0.021 0.038,0.046 0.05,0.074 0.013,0.029 0.019,0.059 0.019,0.092 V 0.14 Z"
         style="fill:#886ce4;fill-rule:nonzero"
         id="path2384" /><path
         d="m 0.687,-0.246 c 0,0.003 0,0.006 -0.001,0.008 -0.001,0.003 -0.002,0.005 -0.003,0.008 L 0.612,-0.09 C 0.606,-0.077 0.596,-0.07 0.582,-0.07 0.575,-0.07 0.569,-0.072 0.563,-0.075 0.558,-0.079 0.553,-0.083 0.55,-0.089 L 0.48,-0.23 C 0.479,-0.233 0.478,-0.235 0.477,-0.238 0.476,-0.24 0.476,-0.243 0.476,-0.246 c 0,-0.009 0.004,-0.017 0.011,-0.024 0.007,-0.007 0.015,-0.011 0.024,-0.011 h 0.141 c 0.01,0 0.018,0.004 0.025,0.01 0.007,0.007 0.01,0.016 0.01,0.025 z"
         style="fill:#eba300;fill-rule:nonzero"
         id="path2386" /><path
         d="m 0.617,-0.632 c 0.009,0.019 0.021,0.038 0.036,0.055 0.014,0.017 0.031,0.032 0.05,0.044 0.019,0.013 0.039,0.023 0.06,0.031 0.021,0.007 0.042,0.011 0.064,0.011 v 0.034 c 0,0.034 -0.006,0.066 -0.019,0.096 -0.013,0.03 -0.031,0.056 -0.053,0.078 -0.022,0.022 -0.048,0.04 -0.078,0.053 -0.03,0.013 -0.062,0.02 -0.095,0.02 -0.034,0 -0.066,-0.007 -0.096,-0.02 C 0.456,-0.243 0.43,-0.261 0.408,-0.283 0.386,-0.305 0.368,-0.331 0.355,-0.361 0.342,-0.391 0.336,-0.423 0.336,-0.457 v -0.035 c 0.016,0 0.031,-0.002 0.046,-0.008 0.014,-0.005 0.028,-0.012 0.04,-0.022 0.012,-0.009 0.023,-0.02 0.032,-0.033 0.01,-0.012 0.017,-0.026 0.022,-0.041 0.006,0.013 0.015,0.025 0.025,0.034 0.01,0.009 0.022,0.016 0.034,0.021 0.013,0.006 0.026,0.009 0.039,0.011 0.014,0.003 0.028,0.004 0.043,0.004 z"
         style="fill:#ffc83d;fill-rule:nonzero"
         id="path2388" /><path
         d="m 0.476,-0.491 c 0.01,0 0.018,0.003 0.025,0.01 0.007,0.007 0.01,0.015 0.01,0.024 v 0.036 c 0,0.009 -0.003,0.018 -0.01,0.025 -0.007,0.006 -0.015,0.01 -0.025,0.01 -0.009,0 -0.018,-0.004 -0.024,-0.011 C 0.445,-0.404 0.441,-0.412 0.441,-0.421 v -0.036 c 0,-0.009 0.004,-0.017 0.011,-0.024 0.006,-0.007 0.015,-0.01 0.024,-0.01 z m 0.211,0 c 0.009,0 0.018,0.003 0.025,0.01 0.007,0.007 0.01,0.015 0.01,0.024 v 0.036 c 0,0.009 -0.003,0.017 -0.01,0.024 -0.007,0.007 -0.016,0.011 -0.025,0.011 -0.01,0 -0.018,-0.004 -0.025,-0.01 -0.007,-0.007 -0.01,-0.016 -0.01,-0.025 v -0.036 c 0,-0.009 0.003,-0.017 0.01,-0.024 0.007,-0.007 0.016,-0.01 0.025,-0.01 z"
         style="fill-rule:nonzero"
         id="path2390" /><path
         d="m 0.582,-0.351 c -0.01,0 -0.019,-0.003 -0.025,-0.01 C 0.55,-0.368 0.546,-0.376 0.546,-0.386 h 0.071 c 0,0.01 -0.004,0.018 -0.011,0.025 -0.006,0.007 -0.015,0.01 -0.024,0.01 z m 0.001,0.035 c 0.004,0 0.01,0.001 0.018,0.003 0.008,0.002 0.016,0.004 0.023,0.007 0.008,0.004 0.014,0.008 0.019,0.012 0.006,0.005 0.008,0.01 0.008,0.016 0,0.005 -0.001,0.009 -0.005,0.012 -0.003,0.003 -0.007,0.005 -0.011,0.005 -0.003,0 -0.006,-0.001 -0.009,-0.004 C 0.623,-0.267 0.62,-0.269 0.615,-0.272 0.611,-0.275 0.607,-0.277 0.601,-0.279 0.596,-0.282 0.59,-0.283 0.583,-0.283 c -0.008,0 -0.014,0.001 -0.019,0.004 -0.005,0.002 -0.01,0.004 -0.014,0.007 -0.004,0.003 -0.008,0.005 -0.011,0.007 -0.003,0.003 -0.006,0.004 -0.009,0.004 -0.004,0 -0.008,-0.002 -0.011,-0.005 -0.004,-0.003 -0.005,-0.007 -0.005,-0.012 0,-0.006 0.002,-0.011 0.008,-0.016 0.005,-0.004 0.012,-0.008 0.019,-0.012 0.008,-0.003 0.015,-0.005 0.023,-0.007 0.008,-0.002 0.014,-0.003 0.019,-0.003 z"
         style="fill:#f7894a;fill-rule:nonzero"
         id="path2392" /></g></g></svg>
