<?xml version="1.0" encoding="UTF-8" standalone="no"?>
<svg
   width="16.844999"
   height="16.844999"
   viewBox="0 0 16.844999 16.844999"
   version="1.1"
   xml:space="preserve"
   style="clip-rule:evenodd;fill-rule:evenodd;stroke-linejoin:round;stroke-miterlimit:2"
   id="svg20568"
   sodipodi:docname="emojis.svg"
   xmlns:inkscape="http://www.inkscape.org/namespaces/inkscape"
   xmlns:sodipodi="http://sodipodi.sourceforge.net/DTD/sodipodi-0.dtd"
   xmlns="http://www.w3.org/2000/svg"
   xmlns:svg="http://www.w3.org/2000/svg"><defs
     id="defs20572" /><sodipodi:namedview
     id="namedview20570"
     pagecolor="#505050"
     bordercolor="#eeeeee"
     borderopacity="1"
     inkscape:pageshadow="0"
     inkscape:pageopacity="0"
     inkscape:pagecheckerboard="0" /><g
     transform="matrix(0.24,0,0,0.24,-291.6654,-178.59996)"
     id="g20566"><g
       transform="matrix(62.5,0,0,62.5,1207.46,801.229)"
       id="g2530"><path
         d="m 0.863,-0.913 c 0.014,0 0.029,0.003 0.043,0.007 0.015,0.004 0.028,0.01 0.042,0.018 0.013,0.007 0.026,0.015 0.037,0.025 0.012,0.009 0.023,0.019 0.033,0.03 0.003,0.004 0.007,0.008 0.011,0.012 0.004,0.005 0.007,0.009 0.01,0.014 0.016,0.026 0.03,0.053 0.044,0.079 0.014,0.027 0.029,0.054 0.043,0.081 0.018,0.032 0.036,0.064 0.054,0.096 0.018,0.032 0.035,0.065 0.052,0.097 0.006,0.01 0.009,0.021 0.012,0.033 0.002,0.011 0.004,0.023 0.004,0.034 0,0.018 -0.003,0.036 -0.009,0.053 L 1.052,0.21 H 0.321 L 0.134,-0.335 C 0.128,-0.352 0.125,-0.369 0.125,-0.387 c 0,-0.01 0.001,-0.021 0.004,-0.033 0.002,-0.012 0.006,-0.023 0.01,-0.032 L 0.311,-0.77 C 0.321,-0.788 0.333,-0.805 0.346,-0.823 0.36,-0.84 0.376,-0.855 0.393,-0.868 0.41,-0.882 0.429,-0.892 0.448,-0.9 0.468,-0.909 0.489,-0.913 0.51,-0.913 h 0.106 c 0.013,0 0.026,0.003 0.038,0.007 0.012,0.005 0.023,0.012 0.033,0.02 0.009,-0.008 0.02,-0.015 0.032,-0.02 0.012,-0.004 0.025,-0.007 0.037,-0.007 z"
         style="fill-rule:nonzero"
         id="path2518" /><path
         d="m 0.336,-0.142 v -0.362 c 0,-0.002 0.001,-0.006 0.003,-0.012 0.002,-0.006 0.005,-0.013 0.007,-0.02 L 0.36,-0.569 C 0.375,-0.602 0.393,-0.633 0.415,-0.661 0.437,-0.69 0.462,-0.715 0.49,-0.737 0.518,-0.759 0.548,-0.776 0.582,-0.788 0.615,-0.801 0.65,-0.807 0.687,-0.807 c 0.037,0 0.073,0.006 0.107,0.019 0.033,0.013 0.064,0.03 0.092,0.052 0.029,0.022 0.054,0.048 0.076,0.077 0.022,0.029 0.04,0.06 0.054,0.094 10e-4,0.002 0.003,0.006 0.005,0.012 0.003,0.006 0.005,0.012 0.008,0.019 0.002,0.007 0.004,0.013 0.006,0.018 0.002,0.006 0.003,0.01 0.003,0.012 v 0.362 z"
         style="fill:#8e562e;fill-rule:nonzero"
         id="path2520" /><path
         d="M 0.371,0.14 0.201,-0.358 C 0.197,-0.367 0.196,-0.377 0.196,-0.387 c 0,-0.006 0,-0.012 0.002,-0.018 0.001,-0.006 0.003,-0.012 0.006,-0.017 l 0.169,-0.314 c 0.004,-0.003 0.009,-0.006 0.014,-0.008 0.005,-0.002 0.011,-0.003 0.017,-0.004 0.006,-0.001 0.012,-0.002 0.018,-0.003 0.006,0 0.011,0 0.016,0 0.004,0 0.01,0 0.017,0 0.008,0 0.015,0.001 0.023,0.002 0.008,0.001 0.015,0.003 0.022,0.005 0.006,0.002 0.011,0.004 0.014,0.008 -0.007,0.011 -0.014,0.026 -0.024,0.044 -0.009,0.018 -0.019,0.038 -0.03,0.06 -0.011,0.021 -0.022,0.044 -0.033,0.068 -0.01,0.023 -0.02,0.046 -0.029,0.067 -0.008,0.022 -0.016,0.042 -0.021,0.06 -0.006,0.019 -0.008,0.034 -0.008,0.045 0,0.006 0.001,0.014 0.004,0.024 0.003,0.01 0.007,0.021 0.011,0.032 0.004,0.011 0.008,0.021 0.013,0.031 0.004,0.01 0.008,0.018 0.01,0.024 0.007,0.016 0.015,0.03 0.023,0.042 0.009,0.013 0.019,0.024 0.03,0.034 0.011,0.009 0.024,0.016 0.038,0.021 0.014,0.006 0.03,0.008 0.048,0.008 h 0.281 c 0.018,0 0.034,-0.002 0.048,-0.008 0.014,-0.005 0.027,-0.012 0.038,-0.021 0.011,-0.01 0.021,-0.021 0.03,-0.034 0.008,-0.012 0.016,-0.026 0.023,-0.042 0.003,-0.006 0.006,-0.014 0.011,-0.024 0.004,-0.01 0.008,-0.021 0.012,-0.031 C 0.993,-0.347 0.997,-0.358 1,-0.368 1.003,-0.378 1.004,-0.386 1.004,-0.392 1.004,-0.403 1.002,-0.418 0.996,-0.437 0.991,-0.455 0.984,-0.475 0.975,-0.497 0.966,-0.518 0.957,-0.541 0.946,-0.564 0.935,-0.588 0.924,-0.611 0.914,-0.632 0.903,-0.654 0.893,-0.674 0.883,-0.692 0.874,-0.711 0.866,-0.725 0.86,-0.736 0.862,-0.74 0.867,-0.742 0.874,-0.744 0.88,-0.746 0.888,-0.748 0.895,-0.749 0.903,-0.75 0.91,-0.751 0.918,-0.751 c 0.007,0 0.013,0 0.018,0 0.002,0 0.007,0 0.014,0.001 0.007,0 0.013,0.001 0.02,0.002 0.007,0.002 0.014,0.003 0.02,0.005 0.006,0.002 0.009,0.004 0.01,0.007 l 0.17,0.314 c 0.003,0.005 0.005,0.011 0.006,0.017 0.001,0.006 0.002,0.012 0.002,0.018 0,0.01 -0.002,0.02 -0.005,0.029 L 1.002,0.14 Z"
         style="fill:#886ce4;fill-rule:nonzero"
         id="path2522" /><path
         d="m 0.722,-0.667 c 0.009,0.019 0.021,0.037 0.036,0.054 0.015,0.018 0.032,0.032 0.05,0.045 0.019,0.013 0.039,0.023 0.06,0.03 0.022,0.008 0.043,0.012 0.065,0.012 v 0.069 c 0,0.034 -0.007,0.066 -0.02,0.096 -0.013,0.03 -0.03,0.056 -0.052,0.078 -0.023,0.022 -0.049,0.04 -0.079,0.053 -0.03,0.013 -0.062,0.02 -0.095,0.02 -0.034,0 -0.066,-0.007 -0.096,-0.02 C 0.561,-0.243 0.535,-0.261 0.513,-0.283 0.491,-0.305 0.473,-0.331 0.46,-0.361 0.447,-0.391 0.441,-0.423 0.441,-0.457 v -0.07 c 0.016,0 0.031,-0.003 0.046,-0.008 0.014,-0.005 0.028,-0.013 0.04,-0.022 0.013,-0.009 0.024,-0.02 0.033,-0.033 0.009,-0.013 0.016,-0.026 0.021,-0.041 0.007,0.013 0.015,0.025 0.025,0.034 0.011,0.009 0.022,0.016 0.034,0.021 0.013,0.006 0.026,0.009 0.039,0.011 0.014,0.002 0.028,0.003 0.043,0.003 z m -0.07,-0.14 c 0,0.008 -0.002,0.014 -0.005,0.019 C 0.644,-0.784 0.64,-0.78 0.635,-0.778 0.63,-0.775 0.625,-0.774 0.618,-0.773 0.612,-0.772 0.606,-0.772 0.6,-0.772 H 0.582 c -0.007,0 -0.013,0.001 -0.02,0.002 -0.007,0.001 -0.014,0.003 -0.02,0.006 C 0.535,-0.761 0.53,-0.757 0.525,-0.752 0.52,-0.748 0.516,-0.743 0.514,-0.736 H 0.373 c 0.006,-0.012 0.014,-0.024 0.024,-0.037 0.01,-0.012 0.021,-0.024 0.032,-0.034 0.012,-0.01 0.025,-0.019 0.039,-0.025 0.014,-0.007 0.028,-0.01 0.042,-0.01 h 0.107 c 0.009,0 0.017,0.003 0.024,0.01 0.007,0.007 0.011,0.015 0.011,0.025 z M 0.86,-0.736 C 0.856,-0.745 0.851,-0.751 0.845,-0.756 0.838,-0.761 0.831,-0.764 0.823,-0.767 0.815,-0.769 0.807,-0.771 0.798,-0.771 0.789,-0.772 0.781,-0.772 0.773,-0.772 c -0.006,0 -0.012,0 -0.019,-0.001 C 0.748,-0.774 0.743,-0.775 0.738,-0.778 0.733,-0.78 0.729,-0.784 0.726,-0.788 0.723,-0.793 0.722,-0.799 0.722,-0.807 c 0,-0.01 0.003,-0.018 0.01,-0.025 0.007,-0.007 0.015,-0.01 0.025,-0.01 h 0.106 c 0.014,0 0.028,0.003 0.042,0.01 0.014,0.006 0.027,0.015 0.039,0.025 0.012,0.01 0.023,0.022 0.033,0.034 0.009,0.013 0.017,0.025 0.023,0.037 z m -0.103,0.56 c 0.009,0 0.017,0.004 0.024,0.011 0.007,0.007 0.011,0.015 0.011,0.024 0,0.006 -0.001,0.011 -0.004,0.016 l -0.07,0.14 C 0.715,0.021 0.711,0.026 0.705,0.03 0.7,0.033 0.693,0.035 0.687,0.035 0.68,0.035 0.674,0.033 0.668,0.03 0.663,0.026 0.658,0.021 0.655,0.016 L 0.585,-0.125 C 0.583,-0.13 0.582,-0.135 0.582,-0.141 c 0,-0.009 0.003,-0.017 0.01,-0.024 0.007,-0.007 0.015,-0.011 0.025,-0.011 z"
         style="fill:#ffc83d;fill-rule:nonzero"
         id="path2524" /><path
         d="m 0.687,-0.281 c -0.01,0 -0.019,-0.002 -0.028,-0.005 C 0.651,-0.29 0.643,-0.295 0.637,-0.302 0.631,-0.308 0.626,-0.315 0.622,-0.324 0.618,-0.332 0.616,-0.341 0.616,-0.351 h 0.141 c 0,0.01 -0.002,0.019 -0.006,0.028 -0.004,0.008 -0.009,0.016 -0.015,0.022 -0.006,0.006 -0.014,0.011 -0.022,0.015 -0.009,0.003 -0.018,0.005 -0.027,0.005 z m 0.105,-0.245 c 0.01,0 0.018,0.003 0.025,0.01 0.007,0.007 0.01,0.015 0.01,0.025 v 0.034 c 0,0.01 -0.003,0.019 -0.01,0.025 -0.007,0.007 -0.015,0.011 -0.025,0.011 -0.01,0 -0.018,-0.004 -0.025,-0.011 -0.007,-0.006 -0.01,-0.015 -0.01,-0.025 v -0.034 c 0,-0.01 0.003,-0.018 0.01,-0.025 0.007,-0.007 0.015,-0.01 0.025,-0.01 z m -0.175,0.069 c 0,0.01 -0.004,0.018 -0.011,0.025 -0.007,0.007 -0.015,0.011 -0.024,0.011 -0.01,0 -0.019,-0.004 -0.025,-0.011 C 0.55,-0.438 0.546,-0.447 0.546,-0.457 v -0.034 c 0,-0.01 0.004,-0.018 0.011,-0.025 0.006,-0.007 0.015,-0.01 0.025,-0.01 0.009,0 0.017,0.003 0.024,0.01 0.007,0.007 0.011,0.015 0.011,0.025 z"
         style="fill-rule:nonzero"
         id="path2526" /><path
         d="m 0.722,-0.421 c 0,0.009 -0.004,0.018 -0.011,0.025 -0.006,0.006 -0.015,0.01 -0.024,0.01 -0.01,0 -0.018,-0.004 -0.025,-0.011 -0.007,-0.007 -0.01,-0.015 -0.01,-0.024 z"
         style="fill:#f7894a;fill-rule:nonzero"
         id="path2528" /></g></g></svg>
