<?xml version="1.0" encoding="UTF-8" standalone="no"?>
<svg
   width="16.844999"
   height="16.844999"
   viewBox="0 0 16.844999 16.844999"
   version="1.1"
   xml:space="preserve"
   style="clip-rule:evenodd;fill-rule:evenodd;stroke-linejoin:round;stroke-miterlimit:2"
   id="svg20568"
   sodipodi:docname="emojis.svg"
   xmlns:inkscape="http://www.inkscape.org/namespaces/inkscape"
   xmlns:sodipodi="http://sodipodi.sourceforge.net/DTD/sodipodi-0.dtd"
   xmlns="http://www.w3.org/2000/svg"
   xmlns:svg="http://www.w3.org/2000/svg"><defs
     id="defs20572" /><sodipodi:namedview
     id="namedview20570"
     pagecolor="#505050"
     bordercolor="#eeeeee"
     borderopacity="1"
     inkscape:pageshadow="0"
     inkscape:pageopacity="0"
     inkscape:pagecheckerboard="0" /><g
     transform="matrix(0.24,0,0,0.24,-481.635,-76.77852)"
     id="g20566"><g
       transform="matrix(62.5,0,0,62.5,1999,376.973)"
       id="g272"><path
         d="m 1.248,-0.351 c 0,0.052 -0.007,0.101 -0.02,0.149 C 1.215,-0.154 1.196,-0.109 1.171,-0.068 1.147,-0.026 1.118,0.012 1.083,0.046 1.049,0.08 1.011,0.109 0.97,0.134 0.928,0.158 0.884,0.177 0.836,0.19 0.788,0.204 0.738,0.21 0.687,0.21 0.635,0.21 0.585,0.204 0.537,0.19 0.489,0.177 0.445,0.158 0.403,0.134 0.362,0.109 0.324,0.08 0.29,0.046 0.255,0.012 0.226,-0.026 0.202,-0.068 0.177,-0.109 0.158,-0.154 0.145,-0.202 0.132,-0.25 0.125,-0.299 0.125,-0.351 c 0,-0.052 0.007,-0.102 0.02,-0.149 0.013,-0.048 0.032,-0.093 0.057,-0.135 0.024,-0.041 0.053,-0.079 0.088,-0.113 0.034,-0.034 0.072,-0.064 0.113,-0.088 0.042,-0.024 0.086,-0.043 0.134,-0.057 0.048,-0.013 0.098,-0.02 0.15,-0.02 0.051,0 0.101,0.007 0.149,0.02 0.048,0.014 0.092,0.033 0.134,0.057 0.041,0.024 0.079,0.054 0.113,0.088 0.035,0.034 0.064,0.072 0.088,0.113 0.025,0.042 0.044,0.087 0.057,0.135 0.013,0.047 0.02,0.097 0.02,0.149 z"
         style="fill-rule:nonzero"
         id="path260" /><path
         d="m 1.178,-0.351 c 0,0.045 -0.006,0.089 -0.018,0.131 -0.012,0.041 -0.028,0.081 -0.049,0.117 -0.022,0.036 -0.047,0.07 -0.077,0.099 C 1.004,0.026 0.971,0.052 0.935,0.073 0.898,0.094 0.859,0.111 0.817,0.123 0.775,0.134 0.732,0.14 0.687,0.14 0.641,0.14 0.598,0.134 0.556,0.123 0.514,0.111 0.475,0.094 0.438,0.073 0.402,0.052 0.369,0.026 0.339,-0.004 0.309,-0.033 0.284,-0.067 0.262,-0.103 0.241,-0.139 0.225,-0.179 0.213,-0.22 0.201,-0.262 0.195,-0.306 0.195,-0.351 c 0,-0.045 0.006,-0.089 0.018,-0.131 0.012,-0.042 0.028,-0.081 0.049,-0.117 0.022,-0.037 0.047,-0.07 0.077,-0.099 0.03,-0.03 0.063,-0.056 0.099,-0.077 0.037,-0.021 0.076,-0.038 0.118,-0.05 0.042,-0.011 0.085,-0.017 0.131,-0.017 0.045,0 0.088,0.006 0.13,0.017 0.042,0.012 0.081,0.029 0.118,0.05 0.036,0.021 0.069,0.047 0.099,0.077 0.03,0.029 0.055,0.062 0.077,0.099 0.021,0.036 0.037,0.075 0.049,0.117 0.012,0.042 0.018,0.086 0.018,0.131 z"
         style="fill:#ffc83d;fill-rule:nonzero"
         id="path262" /><path
         d="M 0.687,0.035 C 0.648,0.035 0.611,0.028 0.577,0.013 0.543,-0.002 0.514,-0.022 0.488,-0.047 0.463,-0.073 0.443,-0.102 0.428,-0.136 0.413,-0.17 0.406,-0.207 0.406,-0.246 h 0.561 c 0,0.039 -0.007,0.076 -0.022,0.11 C 0.93,-0.102 0.91,-0.073 0.885,-0.047 0.859,-0.022 0.83,-0.002 0.795,0.013 0.761,0.028 0.725,0.035 0.687,0.035 Z M 0.844,-0.364 C 0.829,-0.364 0.815,-0.367 0.802,-0.373 0.788,-0.378 0.777,-0.386 0.767,-0.396 0.757,-0.407 0.749,-0.418 0.743,-0.431 0.738,-0.445 0.735,-0.459 0.735,-0.474 c 0,-0.015 0.003,-0.029 0.008,-0.043 0.006,-0.013 0.014,-0.025 0.024,-0.035 0.01,-0.009 0.021,-0.017 0.035,-0.023 0.013,-0.006 0.027,-0.008 0.042,-0.008 0.015,0 0.029,0.002 0.043,0.008 0.013,0.006 0.025,0.014 0.035,0.023 0.01,0.01 0.018,0.022 0.024,0.035 0.005,0.014 0.008,0.028 0.008,0.043 0,0.015 -0.003,0.029 -0.008,0.043 -0.006,0.013 -0.014,0.024 -0.024,0.035 -0.01,0.01 -0.022,0.018 -0.035,0.023 -0.014,0.006 -0.028,0.009 -0.043,0.009 z M 0.441,-0.457 c -0.01,0 -0.018,0.004 -0.025,0.011 -0.007,0.007 -0.01,0.015 -0.01,0.025 H 0.371 c 0,-0.015 0.002,-0.029 0.008,-0.041 0.005,-0.013 0.013,-0.024 0.023,-0.034 0.009,-0.009 0.02,-0.017 0.033,-0.022 0.013,-0.006 0.026,-0.008 0.041,-0.008 h 0.035 c 0.015,0 0.029,0.002 0.041,0.008 0.013,0.005 0.024,0.013 0.033,0.022 0.01,0.01 0.017,0.021 0.023,0.034 0.005,0.012 0.008,0.026 0.008,0.041 H 0.581 c 0,-0.01 -0.003,-0.018 -0.01,-0.025 C 0.564,-0.453 0.555,-0.457 0.546,-0.457 Z"
         style="fill-rule:nonzero"
         id="path264" /><path
         d="M 0.546,-0.21 H 0.827 V 0.035 C 0.827,0.054 0.823,0.073 0.816,0.09 0.808,0.107 0.798,0.122 0.786,0.134 0.773,0.147 0.758,0.157 0.741,0.164 0.724,0.172 0.706,0.175 0.687,0.175 0.667,0.175 0.649,0.172 0.632,0.164 0.615,0.157 0.601,0.146 0.588,0.134 0.575,0.121 0.565,0.106 0.557,0.089 0.55,0.072 0.546,0.054 0.546,0.035 Z"
         style="fill:#f03a17;fill-rule:nonzero"
         id="path266" /><rect
         x="0.66900003"
         y="-0.20999999"
         width="0.035"
         height="0.28099999"
         style="fill:#da3b01;fill-rule:nonzero"
         id="rect268" /><path
         d="m 0.844,-0.632 c 0.022,0 0.043,0.004 0.062,0.013 0.019,0.008 0.036,0.019 0.05,0.034 0.014,0.014 0.026,0.031 0.034,0.05 0.008,0.019 0.012,0.039 0.012,0.061 0,0.022 -0.004,0.042 -0.012,0.061 -0.008,0.02 -0.02,0.036 -0.034,0.051 -0.014,0.014 -0.031,0.025 -0.05,0.034 -0.019,0.008 -0.04,0.012 -0.062,0.012 -0.022,0 -0.042,-0.004 -0.061,-0.012 C 0.764,-0.337 0.747,-0.348 0.733,-0.362 0.719,-0.377 0.707,-0.393 0.699,-0.413 0.691,-0.432 0.687,-0.452 0.687,-0.474 c 0,-0.022 0.004,-0.042 0.012,-0.061 0.008,-0.019 0.02,-0.036 0.034,-0.05 0.014,-0.015 0.031,-0.026 0.05,-0.034 0.019,-0.009 0.039,-0.013 0.061,-0.013 z m 0,0.228 c 0.01,0 0.019,-0.002 0.028,-0.005 C 0.88,-0.413 0.887,-0.418 0.894,-0.424 0.9,-0.43 0.905,-0.438 0.909,-0.447 0.913,-0.455 0.915,-0.464 0.915,-0.474 0.915,-0.484 0.913,-0.493 0.909,-0.501 0.905,-0.51 0.9,-0.517 0.894,-0.524 0.887,-0.53 0.88,-0.535 0.872,-0.539 0.863,-0.542 0.854,-0.544 0.844,-0.544 c -0.01,0 -0.019,0.002 -0.027,0.005 -0.009,0.004 -0.016,0.009 -0.022,0.015 -0.007,0.007 -0.012,0.014 -0.015,0.023 -0.004,0.008 -0.006,0.017 -0.006,0.027 0,0.01 0.002,0.019 0.006,0.027 0.003,0.009 0.008,0.016 0.015,0.022 0.006,0.007 0.013,0.012 0.022,0.016 0.008,0.003 0.017,0.005 0.027,0.005 z"
         style="fill:#ffffff;fill-rule:nonzero"
         id="path270" /></g></g></svg>
