<?xml version="1.0" encoding="UTF-8" standalone="no"?>
<svg
   width="16.844999"
   height="16.305"
   viewBox="0 0 16.844999 16.305"
   version="1.1"
   xml:space="preserve"
   style="clip-rule:evenodd;fill-rule:evenodd;stroke-linejoin:round;stroke-miterlimit:2"
   id="svg20568"
   sodipodi:docname="emojis.svg"
   xmlns:inkscape="http://www.inkscape.org/namespaces/inkscape"
   xmlns:sodipodi="http://sodipodi.sourceforge.net/DTD/sodipodi-0.dtd"
   xmlns="http://www.w3.org/2000/svg"
   xmlns:svg="http://www.w3.org/2000/svg"><defs
     id="defs20572" /><sodipodi:namedview
     id="namedview20570"
     pagecolor="#505050"
     bordercolor="#eeeeee"
     borderopacity="1"
     inkscape:pageshadow="0"
     inkscape:pageopacity="0"
     inkscape:pagecheckerboard="0" /><g
     transform="matrix(0.24,0,0,0.24,-580.0062,-179.13996)"
     id="g20566"><g
       transform="matrix(62.5,0,0,62.5,2408.88,801.229)"
       id="g2748"><path
         d="m 1.002,-0.296 0.2,0.212 c 0.015,0.016 0.026,0.034 0.034,0.055 0.008,0.021 0.012,0.042 0.012,0.064 0,0.024 -0.005,0.046 -0.014,0.068 C 1.225,0.124 1.212,0.143 1.197,0.159 1.181,0.175 1.162,0.187 1.141,0.197 1.12,0.206 1.097,0.21 1.073,0.21 H 0.125 V 0.059 c 0,-0.023 0.002,-0.044 0.007,-0.066 0.005,-0.021 0.012,-0.041 0.021,-0.061 0.009,-0.02 0.02,-0.038 0.033,-0.056 0.013,-0.018 0.028,-0.034 0.045,-0.048 v -0.32 c 0,-0.035 0.005,-0.069 0.014,-0.102 0.009,-0.033 0.022,-0.063 0.039,-0.092 0.017,-0.029 0.037,-0.055 0.06,-0.078 0.024,-0.024 0.05,-0.044 0.078,-0.06 0.029,-0.017 0.06,-0.03 0.092,-0.04 0.033,-0.009 0.067,-0.013 0.103,-0.013 0.035,0 0.069,0.004 0.102,0.013 0.033,0.01 0.064,0.023 0.092,0.04 0.029,0.016 0.055,0.036 0.078,0.06 0.024,0.023 0.044,0.049 0.061,0.078 0.017,0.029 0.03,0.059 0.039,0.092 0.009,0.033 0.013,0.067 0.013,0.103 z"
         style="fill-rule:nonzero"
         id="path2732" /><path
         d="m 0.301,-0.105 v -0.387 c 0,-0.043 0.008,-0.084 0.025,-0.123 0.016,-0.038 0.039,-0.071 0.067,-0.1 0.029,-0.028 0.062,-0.051 0.101,-0.067 0.038,-0.017 0.079,-0.025 0.123,-0.025 0.043,0 0.084,0.008 0.123,0.025 0.038,0.016 0.072,0.039 0.1,0.067 0.029,0.029 0.051,0.062 0.068,0.1 0.016,0.039 0.025,0.08 0.025,0.123 v 0.386 z"
         style="fill:#8e562e;fill-rule:nonzero"
         id="path2734" /><path
         d="M 1.002,0.07 1.073,0.14 H 0.195 V 0.059 c 0,-0.033 0.006,-0.063 0.019,-0.091 0.012,-0.029 0.029,-0.054 0.05,-0.075 0.021,-0.021 0.046,-0.038 0.075,-0.05 0.028,-0.013 0.058,-0.019 0.091,-0.019 h 0.116 c 0.01,0.007 0.022,0.012 0.034,0.015 0.012,0.004 0.024,0.006 0.036,0.006 0.013,0 0.025,-0.002 0.037,-0.006 0.012,-0.003 0.023,-0.008 0.034,-0.015 h 0.315 z"
         style="fill:#886ce4;fill-rule:nonzero"
         id="path2736" /><path
         d="m 0.511,-0.632 c 0.006,0.012 0.014,0.023 0.025,0.031 0.01,0.009 0.022,0.017 0.035,0.022 0.013,0.006 0.026,0.011 0.04,0.013 0.014,0.003 0.028,0.004 0.04,0.004 h 0.211 v 0.105 c 0,0.034 -0.006,0.066 -0.019,0.096 -0.013,0.03 -0.03,0.056 -0.053,0.078 -0.022,0.022 -0.048,0.04 -0.078,0.053 -0.03,0.013 -0.061,0.02 -0.095,0.02 -0.034,0 -0.066,-0.007 -0.096,-0.02 C 0.491,-0.243 0.465,-0.26 0.443,-0.282 0.42,-0.305 0.403,-0.331 0.39,-0.361 0.377,-0.391 0.371,-0.423 0.371,-0.457 v -0.069 c 0.034,-0.001 0.063,-0.01 0.088,-0.029 0.025,-0.019 0.042,-0.044 0.052,-0.077 z m 0.176,0.456 c 0.009,0 0.017,0.004 0.024,0.011 0.007,0.007 0.011,0.015 0.011,0.024 0,0.003 -0.001,0.006 -0.002,0.008 0,0.003 -0.001,0.005 -0.003,0.008 l -0.07,0.14 C 0.644,0.021 0.64,0.026 0.635,0.03 0.629,0.033 0.623,0.035 0.616,0.035 0.61,0.035 0.604,0.033 0.598,0.03 0.592,0.026 0.588,0.021 0.585,0.016 L 0.515,-0.125 C 0.514,-0.128 0.513,-0.13 0.512,-0.133 0.511,-0.135 0.511,-0.138 0.511,-0.141 c 0,-0.009 0.003,-0.017 0.01,-0.024 0.007,-0.007 0.015,-0.011 0.025,-0.011 z"
         style="fill:#ffc83d;fill-rule:nonzero"
         id="path2738" /><path
         d="m 0.669,-0.316 c 0.005,0 0.009,0.002 0.012,0.005 0.004,0.004 0.006,0.008 0.006,0.013 0,0.005 -0.002,0.009 -0.006,0.012 -0.003,0.004 -0.007,0.005 -0.012,0.005 H 0.564 c -0.005,0 -0.009,-10e-4 -0.012,-0.005 -0.004,-0.003 -0.006,-0.007 -0.006,-0.012 0,-0.005 0.002,-0.009 0.006,-0.013 0.003,-0.003 0.007,-0.005 0.012,-0.005 z M 0.546,-0.491 v 0.008 c 0,0.007 -0.001,0.014 -0.004,0.02 -0.003,0.006 -0.006,0.012 -0.011,0.016 -0.005,0.005 -0.011,0.009 -0.017,0.012 -0.006,0.002 -0.013,0.004 -0.02,0.004 -0.008,0 -0.014,-0.002 -0.021,-0.004 C 0.467,-0.438 0.461,-0.442 0.457,-0.447 0.452,-0.451 0.448,-0.457 0.445,-0.463 0.442,-0.469 0.441,-0.476 0.441,-0.483 v -0.008 h 0.015 c 0,0.01 0.004,0.019 0.011,0.026 0.007,0.008 0.016,0.011 0.027,0.011 0.01,0 0.019,-0.003 0.026,-0.011 0.008,-0.007 0.011,-0.016 0.011,-0.026 z"
         style="fill-rule:nonzero"
         id="path2740" /><path
         d="m 0.582,-0.386 h 0.069 c 0,0.009 -0.003,0.017 -0.01,0.024 -0.007,0.007 -0.015,0.011 -0.024,0.011 -0.01,0 -0.018,-0.003 -0.025,-0.01 -0.007,-0.007 -0.01,-0.015 -0.01,-0.025 z"
         style="fill:#ef6950;fill-rule:nonzero"
         id="path2742" /><path
         d="m 0.711,-0.562 c 0.003,-0.002 0.006,-0.005 0.01,-0.01 0.004,-0.004 0.008,-0.008 0.013,-0.011 0.004,-0.004 0.008,-0.007 0.013,-0.01 0.004,-0.003 0.009,-0.004 0.013,-0.004 0.008,0 0.016,0.002 0.022,0.008 0.007,0.005 0.01,0.012 0.01,0.021 v 0.147 c 0,0.004 -0.001,0.009 -0.002,0.014 -0.001,0.004 -0.002,0.008 -0.004,0.013 -0.008,0.021 -0.018,0.038 -0.032,0.05 -0.014,0.012 -0.032,0.02 -0.055,0.023 L 0.556,-0.477 c -0.007,-0.007 -0.01,-0.015 -0.01,-0.024 0,-0.01 0.003,-0.019 0.01,-0.025 -0.006,-0.008 -0.01,-0.016 -0.01,-0.025 0,-0.005 0.001,-0.01 0.004,-0.014 0.002,-0.004 0.005,-0.008 0.008,-0.011 0.004,-0.004 0.009,-0.009 0.016,-0.015 0.007,-0.006 0.014,-0.013 0.021,-0.019 0.008,-0.006 0.016,-0.011 0.023,-0.016 0.008,-0.005 0.014,-0.007 0.019,-0.007 0.005,0 0.009,0.001 0.013,0.004 0.004,0.002 0.008,0.005 0.011,0.008 z"
         style="fill:#ffd679;fill-rule:nonzero"
         id="path2744" /><path
         d="m 0.792,-0.421 0.358,0.385 c 0.009,0.009 0.016,0.02 0.021,0.033 0.004,0.012 0.007,0.025 0.007,0.038 0,0.014 -0.003,0.028 -0.009,0.041 C 1.164,0.088 1.156,0.1 1.147,0.109 1.138,0.119 1.126,0.126 1.114,0.132 1.101,0.137 1.087,0.14 1.073,0.14 1.066,0.14 1.059,0.139 1.052,0.138 1.044,0.136 1.037,0.134 1.03,0.132 1.023,0.129 1.016,0.125 1.01,0.121 1.004,0.117 0.999,0.112 0.995,0.106 L 0.699,-0.322 Z"
         style="fill:#b4a0ff;fill-rule:nonzero"
         id="path2746" /></g></g></svg>
