<?xml version="1.0" encoding="UTF-8" standalone="no"?>
<svg
   width="16.844999"
   height="16.305"
   viewBox="0 0 16.844999 16.305"
   version="1.1"
   xml:space="preserve"
   style="clip-rule:evenodd;fill-rule:evenodd;stroke-linejoin:round;stroke-miterlimit:2"
   id="svg20568"
   sodipodi:docname="emojis.svg"
   xmlns:inkscape="http://www.inkscape.org/namespaces/inkscape"
   xmlns:sodipodi="http://sodipodi.sourceforge.net/DTD/sodipodi-0.dtd"
   xmlns="http://www.w3.org/2000/svg"
   xmlns:svg="http://www.w3.org/2000/svg"><defs
     id="defs20572" /><sodipodi:namedview
     id="namedview20570"
     pagecolor="#505050"
     bordercolor="#eeeeee"
     borderopacity="1"
     inkscape:pageshadow="0"
     inkscape:pageopacity="0"
     inkscape:pagecheckerboard="0" /><g
     transform="matrix(0.24,0,0,0.24,-641.7918,-179.13996)"
     id="g20566"><g
       transform="matrix(62.5,0,0,62.5,2666.32,801.229)"
       id="g2800"><path
         d="m 1.038,-0.632 h 0.037 c 0.009,-0.011 0.02,-0.02 0.033,-0.026 0.013,-0.006 0.027,-0.009 0.042,-0.009 0.013,0 0.026,0.003 0.038,0.008 0.012,0.005 0.022,0.012 0.031,0.021 0.009,0.009 0.016,0.019 0.021,0.031 0.005,0.012 0.008,0.025 0.008,0.038 0,0.013 -0.002,0.024 -0.006,0.033 -0.004,0.009 -0.01,0.019 -0.016,0.03 -0.008,0.01 -0.015,0.021 -0.022,0.032 -0.007,0.011 -0.014,0.022 -0.022,0.033 l 0.046,0.224 c 0.001,0.009 0.004,0.018 0.006,0.028 0.002,0.009 0.004,0.018 0.006,0.027 0.003,0.009 0.004,0.019 0.006,0.028 0.001,0.009 0.002,0.018 0.002,0.028 0,0.018 -0.004,0.036 -0.011,0.054 C 1.23,-0.035 1.22,-0.02 1.208,-0.007 1.195,0.006 1.181,0.016 1.164,0.024 1.147,0.031 1.129,0.035 1.11,0.035 1.098,0.035 1.087,0.034 1.078,0.032 1.068,0.03 1.059,0.027 1.051,0.023 1.043,0.02 1.035,0.015 1.027,0.009 1.019,0.003 1.011,-0.004 1.002,-0.012 V 0.21 H 0.371 V -0.012 C 0.362,-0.004 0.354,0.002 0.346,0.008 0.338,0.014 0.33,0.019 0.322,0.023 0.313,0.027 0.304,0.03 0.295,0.032 0.285,0.034 0.275,0.035 0.263,0.035 0.244,0.035 0.226,0.031 0.209,0.024 0.192,0.016 0.178,0.006 0.165,-0.007 0.153,-0.02 0.143,-0.035 0.136,-0.052 0.129,-0.07 0.125,-0.088 0.125,-0.106 c 0,-0.01 0.001,-0.019 0.002,-0.028 0.002,-0.01 0.003,-0.019 0.006,-0.028 0.002,-0.01 0.004,-0.019 0.006,-0.028 0.002,-0.009 0.005,-0.018 0.007,-0.027 L 0.191,-0.441 C 0.183,-0.452 0.176,-0.463 0.169,-0.474 0.162,-0.485 0.155,-0.496 0.147,-0.506 0.141,-0.517 0.135,-0.527 0.131,-0.536 0.127,-0.545 0.125,-0.556 0.125,-0.569 c 0,-0.013 0.003,-0.026 0.008,-0.038 0.005,-0.012 0.012,-0.022 0.021,-0.031 0.009,-0.009 0.019,-0.016 0.031,-0.021 0.012,-0.005 0.025,-0.008 0.038,-0.008 0.015,0 0.029,0.003 0.042,0.009 0.013,0.006 0.024,0.015 0.033,0.026 H 0.335 C 0.346,-0.67 0.363,-0.704 0.387,-0.734 0.411,-0.765 0.438,-0.79 0.47,-0.812 0.501,-0.833 0.536,-0.849 0.573,-0.861 0.61,-0.872 0.648,-0.877 0.687,-0.877 c 0.038,0 0.076,0.005 0.113,0.016 0.037,0.012 0.072,0.028 0.103,0.049 0.032,0.022 0.059,0.047 0.083,0.078 0.024,0.03 0.041,0.064 0.052,0.102 z"
         style="fill-rule:nonzero"
         id="path2786" /><path
         d="M 0.967,-0.281 H 0.406 v -0.245 c 0,-0.039 0.007,-0.076 0.022,-0.11 0.014,-0.034 0.034,-0.064 0.06,-0.089 0.025,-0.025 0.055,-0.046 0.089,-0.06 0.034,-0.015 0.071,-0.022 0.11,-0.022 0.038,0 0.075,0.007 0.109,0.022 0.034,0.014 0.064,0.035 0.089,0.06 0.026,0.025 0.046,0.055 0.06,0.089 0.015,0.034 0.022,0.071 0.022,0.11 z"
         style="fill:#8e562e;fill-rule:nonzero"
         id="path2788" /><path
         d="m 0.441,0.14 v -0.316 l -0.126,0.12 C 0.3,-0.042 0.283,-0.035 0.263,-0.035 0.254,-0.035 0.245,-0.037 0.237,-0.041 0.229,-0.045 0.222,-0.05 0.215,-0.057 0.209,-0.063 0.204,-0.071 0.201,-0.079 0.197,-0.088 0.195,-0.096 0.195,-0.105 c 0,-0.007 0.001,-0.013 0.003,-0.019 0.001,-0.005 0.003,-0.011 0.004,-0.017 l 0.063,-0.316 c 0.008,-0.006 0.017,-0.013 0.027,-0.019 0.01,-0.005 0.02,-0.008 0.031,-0.008 0.01,0 0.019,0.002 0.027,0.008 0.008,0.005 0.015,0.012 0.021,0.019 v 0.18 l 0.068,-0.054 c 0.008,-0.006 0.016,-0.011 0.023,-0.015 0.007,-0.003 0.016,-0.005 0.027,-0.005 h 0.395 c 0.011,0 0.02,0.002 0.027,0.005 0.007,0.004 0.015,0.009 0.023,0.015 l 0.068,0.054 v -0.18 c 0.007,-0.007 0.015,-0.014 0.024,-0.02 0.009,-0.005 0.019,-0.008 0.03,-0.008 0.01,0 0.02,0.003 0.028,0.008 0.009,0.006 0.017,0.013 0.023,0.02 l 0.064,0.316 c 10e-4,0.006 0.003,0.012 0.004,0.017 0.002,0.006 0.003,0.012 0.003,0.019 0,0.009 -0.002,0.017 -0.006,0.026 -0.003,0.008 -0.008,0.016 -0.014,0.022 -0.006,0.007 -0.014,0.012 -0.022,0.016 -0.008,0.004 -0.017,0.006 -0.026,0.006 -0.02,0 -0.037,-0.007 -0.052,-0.021 L 0.932,-0.176 V 0.14 Z"
         style="fill:#886ce4;fill-rule:nonzero"
         id="path2790" /><path
         d="m 0.757,-0.386 c 0.009,0 0.017,0.003 0.024,0.01 0.007,0.007 0.011,0.015 0.011,0.025 0,0.003 0,0.005 -0.001,0.008 -0.001,0.002 -0.002,0.005 -0.003,0.008 l -0.071,0.14 c -0.006,0.013 -0.016,0.019 -0.03,0.019 -0.007,0 -0.013,-0.001 -0.019,-0.005 -0.005,-0.003 -0.01,-0.008 -0.013,-0.014 l -0.07,-0.14 C 0.584,-0.338 0.583,-0.341 0.582,-0.343 0.581,-0.346 0.581,-0.348 0.581,-0.351 c 0,-0.01 0.003,-0.018 0.01,-0.025 0.007,-0.007 0.015,-0.01 0.025,-0.01 z"
         style="fill:#eba300;fill-rule:nonzero"
         id="path2792" /><path
         d="m 0.722,-0.667 c 0.007,0.017 0.016,0.032 0.029,0.046 0.012,0.013 0.026,0.024 0.042,0.033 0.016,0.008 0.033,0.015 0.051,0.02 0.018,0.004 0.035,0.006 0.053,0.006 v 0.105 c 0,0.029 -0.005,0.057 -0.016,0.082 -0.011,0.026 -0.026,0.048 -0.045,0.067 -0.019,0.02 -0.042,0.035 -0.067,0.046 -0.026,0.011 -0.053,0.016 -0.082,0.016 -0.03,0 -0.057,-0.005 -0.083,-0.016 C 0.579,-0.273 0.556,-0.288 0.537,-0.308 0.518,-0.327 0.503,-0.349 0.492,-0.375 0.482,-0.4 0.476,-0.428 0.476,-0.457 v -0.105 c 0.015,0 0.028,-0.003 0.04,-0.009 0.011,-0.006 0.021,-0.014 0.03,-0.024 0.008,-0.01 0.015,-0.022 0.021,-0.034 0.005,-0.013 0.01,-0.025 0.014,-0.038 0.007,0.011 0.016,0.021 0.027,0.03 0.01,0.009 0.022,0.016 0.034,0.022 0.013,0.006 0.026,0.011 0.039,0.014 0.014,0.003 0.027,0.004 0.041,0.004 z M 0.269,-0.562 H 0.3 c 0.01,0 0.019,0.002 0.028,0.006 0.008,0.004 0.016,0.009 0.022,0.015 0.006,0.007 0.011,0.014 0.015,0.022 0.004,0.009 0.006,0.018 0.006,0.028 v 0.034 H 0.265 L 0.203,-0.549 C 0.201,-0.553 0.198,-0.556 0.197,-0.558 0.196,-0.56 0.195,-0.564 0.195,-0.569 c 0,-0.007 0.003,-0.014 0.008,-0.019 0.006,-0.006 0.013,-0.009 0.02,-0.009 0.005,0 0.009,0.002 0.013,0.004 0.005,0.003 0.009,0.006 0.012,0.01 0.004,0.003 0.008,0.007 0.011,0.011 0.003,0.004 0.007,0.008 0.01,0.01 z M 1.15,-0.597 c 0.007,0 0.014,0.003 0.019,0.009 0.006,0.005 0.009,0.012 0.009,0.019 0,0.005 -10e-4,0.009 -0.002,0.011 -0.002,0.002 -0.003,0.005 -0.006,0.009 L 1.107,-0.457 H 1.002 v -0.034 c 0,-0.01 0.002,-0.019 0.006,-0.028 0.003,-0.008 0.008,-0.015 0.015,-0.022 0.006,-0.006 0.014,-0.011 0.022,-0.015 0.009,-0.004 0.018,-0.006 0.028,-0.006 h 0.031 c 0.003,-0.002 0.007,-0.006 0.01,-0.01 0.003,-0.004 0.007,-0.008 0.011,-0.011 0.003,-0.004 0.007,-0.007 0.012,-0.01 0.004,-0.002 0.008,-0.004 0.013,-0.004 z"
         style="fill:#ffc83d;fill-rule:nonzero"
         id="path2794" /><path
         d="m 0.687,-0.421 c -0.01,0 -0.018,-0.004 -0.025,-0.011 C 0.655,-0.438 0.651,-0.447 0.651,-0.456 h 0.071 c 0,0.009 -0.004,0.018 -0.011,0.024 -0.007,0.007 -0.015,0.011 -0.024,0.011 z"
         style="fill:#f7894a;fill-rule:nonzero"
         id="path2796" /><path
         d="m 0.581,-0.562 c 0.01,0 0.018,0.004 0.025,0.011 0.007,0.007 0.01,0.015 0.01,0.025 v 0.035 c 0,0.009 -0.003,0.017 -0.01,0.024 -0.007,0.007 -0.016,0.01 -0.025,0.01 -0.009,0 -0.018,-0.003 -0.025,-0.01 -0.007,-0.007 -0.01,-0.015 -0.01,-0.024 v -0.035 c 0,-0.01 0.003,-0.018 0.01,-0.025 0.007,-0.007 0.016,-0.011 0.025,-0.011 z m 0.211,0 c 0.009,0 0.018,0.004 0.024,0.011 0.007,0.007 0.011,0.015 0.011,0.025 v 0.035 c 0,0.009 -0.004,0.017 -0.011,0.024 -0.006,0.007 -0.015,0.01 -0.024,0.01 -0.009,0 -0.018,-0.003 -0.025,-0.01 -0.007,-0.007 -0.01,-0.015 -0.01,-0.024 v -0.035 c 0,-0.01 0.003,-0.018 0.01,-0.025 0.007,-0.007 0.015,-0.011 0.025,-0.011 z m -0.105,0.176 c 0.009,0 0.018,0.003 0.024,0.01 0.007,0.007 0.011,0.015 0.011,0.025 0,0.01 -0.004,0.018 -0.011,0.025 -0.006,0.007 -0.015,0.01 -0.024,0.01 -0.01,0 -0.019,-0.003 -0.025,-0.01 -0.007,-0.007 -0.011,-0.015 -0.011,-0.025 0,-0.01 0.004,-0.018 0.011,-0.025 0.006,-0.007 0.015,-0.01 0.025,-0.01 z"
         style="fill-rule:nonzero"
         id="path2798" /></g></g></svg>
