<?xml version="1.0" encoding="UTF-8" standalone="no"?>
<svg
   width="16.844999"
   height="16.844999"
   viewBox="0 0 16.844999 16.844999"
   version="1.1"
   xml:space="preserve"
   style="clip-rule:evenodd;fill-rule:evenodd;stroke-linejoin:round;stroke-miterlimit:2"
   id="svg20568"
   sodipodi:docname="emojis.svg"
   xmlns:inkscape="http://www.inkscape.org/namespaces/inkscape"
   xmlns:sodipodi="http://sodipodi.sourceforge.net/DTD/sodipodi-0.dtd"
   xmlns="http://www.w3.org/2000/svg"
   xmlns:svg="http://www.w3.org/2000/svg"><defs
     id="defs20572" /><sodipodi:namedview
     id="namedview20570"
     pagecolor="#505050"
     bordercolor="#eeeeee"
     borderopacity="1"
     inkscape:pageshadow="0"
     inkscape:pageopacity="0"
     inkscape:pagecheckerboard="0" /><g
     transform="matrix(0.24,0,0,0.24,-584.6118,-76.77852)"
     id="g20566"><g
       transform="matrix(62.5,0,0,62.5,2428.07,376.973)"
       id="g334"><path
         d="M 0.687,0.21 C 0.669,0.21 0.652,0.21 0.635,0.208 0.618,0.206 0.601,0.204 0.583,0.201 0.562,0.207 0.541,0.21 0.52,0.21 0.497,0.21 0.475,0.207 0.454,0.2 0.433,0.194 0.414,0.184 0.396,0.172 0.378,0.16 0.363,0.145 0.349,0.128 0.335,0.111 0.324,0.092 0.316,0.071 0.286,0.044 0.259,0.015 0.235,-0.017 0.211,-0.049 0.191,-0.083 0.175,-0.119 0.159,-0.155 0.146,-0.193 0.138,-0.232 0.129,-0.271 0.125,-0.31 0.125,-0.351 c 0,-0.052 0.007,-0.101 0.02,-0.149 0.013,-0.048 0.032,-0.093 0.057,-0.134 0.024,-0.042 0.053,-0.08 0.088,-0.114 0.034,-0.034 0.072,-0.064 0.113,-0.088 0.042,-0.024 0.087,-0.043 0.134,-0.057 0.048,-0.013 0.098,-0.02 0.15,-0.02 0.051,0 0.101,0.007 0.148,0.02 0.048,0.014 0.093,0.033 0.135,0.057 0.041,0.024 0.079,0.054 0.113,0.088 0.035,0.034 0.064,0.072 0.088,0.114 0.025,0.041 0.044,0.086 0.057,0.134 0.013,0.048 0.02,0.097 0.02,0.149 0,0.052 -0.007,0.101 -0.02,0.149 C 1.215,-0.154 1.196,-0.11 1.171,-0.068 1.147,-0.026 1.118,0.012 1.083,0.046 1.049,0.08 1.011,0.109 0.97,0.134 0.928,0.158 0.883,0.177 0.835,0.19 0.788,0.204 0.738,0.21 0.687,0.21 Z"
         style="fill-rule:nonzero"
         id="path322" /><path
         d="m 1.178,-0.351 c 0,0.045 -0.006,0.089 -0.018,0.131 -0.012,0.041 -0.028,0.081 -0.049,0.117 -0.022,0.036 -0.047,0.07 -0.077,0.099 C 1.004,0.026 0.971,0.052 0.935,0.073 0.898,0.094 0.859,0.111 0.817,0.123 0.775,0.134 0.732,0.14 0.687,0.14 0.641,0.14 0.598,0.134 0.556,0.123 0.514,0.111 0.475,0.094 0.438,0.073 0.402,0.052 0.369,0.026 0.339,-0.004 0.309,-0.033 0.284,-0.067 0.262,-0.103 0.241,-0.139 0.225,-0.179 0.213,-0.22 0.201,-0.262 0.195,-0.306 0.195,-0.351 c 0,-0.045 0.006,-0.089 0.018,-0.131 0.012,-0.042 0.028,-0.081 0.049,-0.117 0.022,-0.037 0.047,-0.07 0.077,-0.099 0.03,-0.03 0.063,-0.056 0.099,-0.077 0.037,-0.021 0.076,-0.038 0.118,-0.05 0.042,-0.011 0.085,-0.017 0.131,-0.017 0.045,0 0.088,0.006 0.13,0.017 0.042,0.012 0.081,0.029 0.118,0.05 0.036,0.021 0.069,0.047 0.099,0.077 0.03,0.029 0.055,0.062 0.077,0.099 0.021,0.036 0.037,0.075 0.049,0.117 0.012,0.042 0.018,0.086 0.018,0.131 z"
         style="fill:#ffc83d;fill-rule:nonzero"
         id="path324" /><path
         d="m 0.441,-0.351 c 0.015,0 0.028,0.003 0.041,0.008 0.013,0.006 0.024,0.013 0.033,0.023 0.01,0.01 0.017,0.021 0.023,0.033 0.005,0.013 0.008,0.027 0.008,0.041 0,0.015 -0.003,0.029 -0.008,0.041 -0.006,0.013 -0.013,0.024 -0.023,0.034 -0.009,0.009 -0.02,0.017 -0.033,0.022 C 0.469,-0.143 0.456,-0.141 0.441,-0.141 0.426,-0.141 0.413,-0.143 0.4,-0.149 0.387,-0.154 0.376,-0.162 0.366,-0.171 0.357,-0.181 0.349,-0.192 0.344,-0.205 0.338,-0.217 0.335,-0.231 0.335,-0.246 0.335,-0.26 0.338,-0.274 0.344,-0.287 0.349,-0.299 0.357,-0.31 0.366,-0.32 0.376,-0.33 0.387,-0.337 0.4,-0.343 0.413,-0.348 0.426,-0.351 0.441,-0.351 Z m 0.491,0 c 0.015,0 0.028,0.003 0.041,0.008 0.013,0.006 0.024,0.013 0.034,0.023 0.009,0.01 0.017,0.021 0.022,0.033 0.006,0.013 0.009,0.027 0.009,0.041 0,0.015 -0.003,0.029 -0.009,0.041 -0.005,0.013 -0.013,0.024 -0.022,0.034 -0.01,0.009 -0.021,0.017 -0.034,0.022 -0.013,0.006 -0.026,0.008 -0.041,0.008 -0.015,0 -0.028,-0.002 -0.041,-0.008 C 0.878,-0.154 0.867,-0.162 0.858,-0.171 0.848,-0.181 0.84,-0.192 0.835,-0.205 0.829,-0.217 0.827,-0.231 0.827,-0.246 0.827,-0.26 0.829,-0.274 0.835,-0.287 0.84,-0.299 0.848,-0.31 0.858,-0.32 0.867,-0.33 0.878,-0.337 0.891,-0.343 0.904,-0.348 0.917,-0.351 0.932,-0.351 Z"
         style="fill:#f7894a;fill-rule:nonzero"
         id="path326" /><path
         d="m 0.879,-0.526 c 0.017,0 0.033,0.003 0.048,0.009 0.015,0.007 0.028,0.015 0.039,0.026 0.011,0.011 0.02,0.024 0.027,0.039 0.006,0.015 0.009,0.031 0.009,0.048 v 0.018 H 0.967 C 0.967,-0.398 0.965,-0.41 0.96,-0.42 0.956,-0.431 0.95,-0.441 0.942,-0.448 0.934,-0.456 0.924,-0.463 0.914,-0.467 0.903,-0.472 0.891,-0.474 0.879,-0.474 c -0.012,0 -0.023,0.002 -0.034,0.007 -0.01,0.004 -0.019,0.011 -0.027,0.019 C 0.81,-0.441 0.803,-0.431 0.799,-0.42 0.794,-0.41 0.792,-0.398 0.792,-0.386 H 0.757 v -0.018 c 0,-0.017 0.003,-0.033 0.009,-0.048 0.007,-0.015 0.015,-0.028 0.026,-0.039 0.012,-0.011 0.025,-0.019 0.04,-0.026 0.015,-0.006 0.03,-0.009 0.047,-0.009 z m -0.298,0.14 C 0.581,-0.398 0.579,-0.41 0.574,-0.42 0.57,-0.431 0.563,-0.441 0.555,-0.448 0.547,-0.456 0.538,-0.463 0.528,-0.467 0.517,-0.472 0.506,-0.474 0.494,-0.474 c -0.012,0 -0.024,0.002 -0.035,0.007 -0.01,0.004 -0.02,0.011 -0.028,0.019 -0.008,0.007 -0.014,0.017 -0.018,0.028 -0.005,0.01 -0.007,0.022 -0.007,0.034 H 0.371 v -0.018 c 0,-0.017 0.003,-0.033 0.009,-0.048 0.007,-0.015 0.016,-0.028 0.027,-0.039 0.011,-0.011 0.024,-0.019 0.039,-0.026 0.015,-0.006 0.031,-0.009 0.048,-0.009 0.017,0 0.033,0.003 0.048,0.009 0.014,0.007 0.027,0.015 0.039,0.026 0.011,0.011 0.019,0.024 0.026,0.039 0.006,0.015 0.009,0.031 0.009,0.048 v 0.018 z m 0.316,0.161 c 0.009,0 0.018,0.004 0.024,0.011 0.007,0.007 0.011,0.015 0.011,0.025 0,0.006 -0.002,0.012 -0.005,0.018 -0.012,0.021 -0.027,0.04 -0.044,0.056 -0.018,0.017 -0.037,0.032 -0.058,0.043 -0.021,0.012 -0.044,0.021 -0.067,0.027 -0.024,0.007 -0.048,0.01 -0.071,0.01 -0.025,0 -0.048,-0.003 -0.072,-0.01 C 0.592,-0.051 0.569,-0.06 0.548,-0.072 0.527,-0.083 0.508,-0.098 0.49,-0.115 0.473,-0.131 0.458,-0.15 0.446,-0.171 0.443,-0.177 0.441,-0.183 0.441,-0.189 c 0,-0.01 0.003,-0.018 0.01,-0.025 0.007,-0.007 0.015,-0.011 0.025,-0.011 0.012,0 0.022,0.006 0.03,0.017 0.004,0.006 0.008,0.012 0.012,0.018 0.004,0.006 0.008,0.011 0.013,0.017 0.02,0.021 0.044,0.038 0.071,0.05 0.027,0.012 0.055,0.018 0.085,0.018 0.029,0 0.057,-0.006 0.084,-0.018 0.027,-0.012 0.05,-0.029 0.07,-0.05 0.005,-0.006 0.01,-0.011 0.013,-0.017 0.004,-0.006 0.008,-0.012 0.013,-0.018 0.008,-0.011 0.018,-0.017 0.03,-0.017 z"
         style="fill-rule:nonzero"
         id="path328" /><path
         d="m 0.779,-0.11 c 0.004,0.004 0.007,0.008 0.009,0.012 0.003,0.004 0.004,0.009 0.004,0.015 0,0.008 -0.003,0.016 -0.009,0.022 L 0.625,0.097 C 0.611,0.111 0.595,0.121 0.576,0.129 0.558,0.136 0.539,0.14 0.52,0.14 0.499,0.14 0.48,0.136 0.462,0.128 0.444,0.121 0.428,0.11 0.414,0.096 0.401,0.083 0.39,0.067 0.382,0.049 0.375,0.031 0.371,0.012 0.371,-0.009 v -0.202 c 0,-0.009 0.003,-0.018 0.01,-0.024 0.007,-0.007 0.015,-0.011 0.025,-0.011 0.009,0 0.017,0.004 0.024,0.011 0.007,0.006 0.011,0.015 0.011,0.024 v 0.07 l 0.131,-0.13 c 0.006,-0.007 0.013,-0.01 0.022,-0.01 0.006,0 0.011,0.001 0.015,0.004 0.004,0.002 0.008,0.006 0.012,0.009 l 0.002,0.024 0.024,0.003 C 0.65,-0.244 0.654,-0.248 0.658,-0.253 0.662,-0.257 0.666,-0.262 0.671,-0.266 0.675,-0.27 0.68,-0.273 0.685,-0.276 0.689,-0.279 0.694,-0.281 0.7,-0.281 c 0.004,0 0.008,0.001 0.012,0.003 0.003,0.001 0.007,0.003 0.01,0.006 0.003,0.003 0.006,0.005 0.009,0.009 0.002,0.003 0.005,0.006 0.008,0.009 l -0.001,0.023 0.028,0.003 c 0.005,0.006 0.011,0.011 0.017,0.017 0.006,0.006 0.009,0.014 0.009,0.022 0,0.005 -0.002,0.01 -0.005,0.015 -0.003,0.005 -0.006,0.01 -0.01,0.014 -0.004,0.004 -0.009,0.009 -0.013,0.013 -0.004,0.004 -0.008,0.008 -0.012,0.011 v 0.025 z"
         style="fill:#d48c00;fill-rule:nonzero"
         id="path330" /><path
         d="m 0.581,-0.089 c 0,-0.003 0.001,-0.006 0.002,-0.008 0.001,-0.003 0.003,-0.005 0.006,-0.007 l 0.15,-0.15 0.027,0.026 -0.153,0.152 C 0.609,-0.072 0.605,-0.07 0.6,-0.07 0.595,-0.07 0.59,-0.072 0.587,-0.076 0.583,-0.079 0.581,-0.083 0.581,-0.089 Z m 0.066,-0.152 -0.098,0.098 c -0.004,0.004 -0.008,0.005 -0.013,0.005 -0.006,0 -0.01,-0.001 -0.014,-0.005 -0.003,-0.004 -0.005,-0.008 -0.005,-0.013 0,-0.006 0.002,-0.011 0.007,-0.015 0.004,-0.004 0.008,-0.008 0.012,-0.012 l 0.085,-0.085 z m 0.132,0.131 -0.087,0.087 c -0.004,0.004 -0.008,0.005 -0.013,0.005 -0.005,0 -0.01,-0.001 -0.013,-0.005 C 0.662,-0.027 0.66,-0.031 0.66,-0.036 c 0,-0.003 0.001,-0.006 0.002,-0.009 0.002,-0.002 0.004,-0.005 0.006,-0.007 l 0.013,-0.013 0.071,-0.071 z"
         style="fill:#8e562e;fill-rule:nonzero"
         id="path332" /></g></g></svg>
