<?xml version="1.0" encoding="UTF-8" standalone="no"?>
<svg
   width="16.844999"
   height="16.844999"
   viewBox="0 0 16.844999 16.844999"
   version="1.1"
   xml:space="preserve"
   style="clip-rule:evenodd;fill-rule:evenodd;stroke-linejoin:round;stroke-miterlimit:2"
   id="svg20568"
   sodipodi:docname="emojis.svg"
   xmlns:inkscape="http://www.inkscape.org/namespaces/inkscape"
   xmlns:sodipodi="http://sodipodi.sourceforge.net/DTD/sodipodi-0.dtd"
   xmlns="http://www.w3.org/2000/svg"
   xmlns:svg="http://www.w3.org/2000/svg"><defs
     id="defs20572" /><sodipodi:namedview
     id="namedview20570"
     pagecolor="#505050"
     bordercolor="#eeeeee"
     borderopacity="1"
     inkscape:pageshadow="0"
     inkscape:pageopacity="0"
     inkscape:pagecheckerboard="0" /><g
     transform="matrix(0.24,0,0,0.24,-625.803,-76.77852)"
     id="g20566"><g
       transform="matrix(62.5,0,0,62.5,2599.7,376.973)"
       id="g356"><path
         d="m 0.687,-0.913 c 0.051,0 0.101,0.007 0.149,0.02 0.048,0.014 0.092,0.033 0.134,0.057 0.041,0.024 0.079,0.054 0.113,0.088 0.035,0.034 0.064,0.072 0.088,0.113 0.025,0.042 0.044,0.087 0.057,0.135 0.013,0.047 0.02,0.097 0.02,0.149 0,0.052 -0.007,0.101 -0.02,0.149 C 1.215,-0.154 1.196,-0.109 1.171,-0.068 1.147,-0.026 1.118,0.012 1.083,0.046 1.049,0.08 1.011,0.109 0.97,0.134 0.928,0.158 0.884,0.177 0.836,0.19 0.788,0.204 0.738,0.21 0.687,0.21 0.653,0.21 0.621,0.207 0.588,0.201 0.556,0.195 0.524,0.187 0.493,0.175 H 0.353 C 0.336,0.175 0.32,0.172 0.305,0.166 0.291,0.159 0.278,0.15 0.267,0.139 0.256,0.128 0.247,0.115 0.24,0.1 0.234,0.086 0.23,0.07 0.23,0.053 V -0.024 C 0.196,-0.073 0.17,-0.125 0.152,-0.179 0.134,-0.234 0.125,-0.292 0.125,-0.351 c 0,-0.052 0.007,-0.102 0.02,-0.149 0.013,-0.048 0.032,-0.093 0.057,-0.135 0.024,-0.041 0.053,-0.079 0.088,-0.113 0.034,-0.034 0.072,-0.064 0.113,-0.088 0.042,-0.024 0.086,-0.043 0.134,-0.057 0.048,-0.013 0.098,-0.02 0.15,-0.02 z"
         style="fill-rule:nonzero"
         id="path348" /><path
         d="m 1.178,-0.351 c 0,0.045 -0.006,0.089 -0.018,0.131 -0.012,0.041 -0.028,0.081 -0.049,0.117 -0.022,0.036 -0.047,0.07 -0.077,0.099 C 1.004,0.026 0.971,0.052 0.935,0.073 0.898,0.094 0.859,0.111 0.817,0.123 0.775,0.134 0.732,0.14 0.687,0.14 0.641,0.14 0.598,0.134 0.556,0.123 0.514,0.111 0.475,0.094 0.438,0.073 0.402,0.052 0.369,0.026 0.339,-0.004 0.309,-0.033 0.284,-0.067 0.262,-0.103 0.241,-0.139 0.225,-0.179 0.213,-0.22 0.201,-0.262 0.195,-0.306 0.195,-0.351 c 0,-0.045 0.006,-0.089 0.018,-0.131 0.012,-0.042 0.028,-0.081 0.049,-0.117 0.022,-0.037 0.047,-0.07 0.077,-0.099 0.03,-0.03 0.063,-0.056 0.099,-0.077 0.037,-0.021 0.076,-0.038 0.118,-0.05 0.042,-0.011 0.085,-0.017 0.131,-0.017 0.045,0 0.088,0.006 0.13,0.017 0.042,0.012 0.081,0.029 0.118,0.05 0.036,0.021 0.069,0.047 0.099,0.077 0.03,0.029 0.055,0.062 0.077,0.099 0.021,0.036 0.037,0.075 0.049,0.117 0.012,0.042 0.018,0.086 0.018,0.131 z"
         style="fill:#ffc83d;fill-rule:nonzero"
         id="path350" /><path
         d="m 0.897,-0.316 c 0.01,0 0.018,0.004 0.025,0.01 0.007,0.007 0.01,0.015 0.01,0.025 0,0.01 -0.003,0.018 -0.01,0.025 -0.007,0.007 -0.016,0.01 -0.025,0.01 H 0.792 c -0.017,0 -0.034,0.002 -0.051,0.006 -0.017,0.003 -0.034,0.009 -0.05,0.016 -0.016,0.007 -0.031,0.015 -0.045,0.026 -0.014,0.01 -0.027,0.021 -0.038,0.034 -0.005,0.007 -0.01,0.014 -0.014,0.021 -0.005,0.007 -0.01,0.013 -0.015,0.02 -0.004,0.005 -0.008,0.01 -0.013,0.013 -0.004,0.003 -0.01,0.005 -0.018,0.005 -0.009,0 -0.017,-0.004 -0.024,-0.011 -0.007,-0.007 -0.011,-0.015 -0.011,-0.025 0,-0.003 0.001,-0.006 0.001,-0.009 0.001,-0.003 0.002,-0.005 0.004,-0.008 0.013,-0.024 0.03,-0.046 0.05,-0.066 0.02,-0.019 0.042,-0.036 0.066,-0.049 0.024,-0.014 0.05,-0.025 0.077,-0.032 0.027,-0.007 0.054,-0.011 0.081,-0.011 z M 0.546,-0.439 c 0,0.007 -0.001,0.014 -0.004,0.02 C 0.539,-0.412 0.536,-0.407 0.531,-0.402 0.526,-0.397 0.52,-0.393 0.514,-0.39 0.508,-0.388 0.501,-0.386 0.494,-0.386 0.486,-0.386 0.479,-0.388 0.473,-0.39 0.467,-0.393 0.461,-0.397 0.456,-0.402 0.452,-0.406 0.448,-0.412 0.445,-0.418 0.442,-0.425 0.441,-0.431 0.441,-0.439 v -0.07 c 0,-0.007 0.001,-0.014 0.004,-0.02 0.003,-0.007 0.007,-0.012 0.011,-0.017 0.005,-0.005 0.011,-0.009 0.017,-0.011 0.006,-0.003 0.013,-0.005 0.021,-0.005 0.007,0 0.014,0.002 0.02,0.005 0.006,0.002 0.012,0.006 0.017,0.011 0.005,0.005 0.008,0.011 0.011,0.017 0.003,0.006 0.004,0.013 0.004,0.02 z M 0.81,-0.421 C 0.802,-0.421 0.795,-0.423 0.789,-0.426 0.782,-0.428 0.777,-0.432 0.772,-0.437 0.767,-0.441 0.764,-0.447 0.761,-0.453 0.758,-0.46 0.757,-0.467 0.757,-0.474 c 0,-0.007 0.001,-0.014 0.004,-0.021 0.003,-0.006 0.007,-0.012 0.011,-0.016 0.005,-0.005 0.011,-0.008 0.017,-0.011 0.007,-0.003 0.013,-0.004 0.021,-0.004 h 0.069 c 0.008,0 0.014,0.001 0.021,0.004 0.006,0.003 0.012,0.006 0.017,0.011 0.004,0.004 0.008,0.01 0.011,0.016 0.003,0.007 0.004,0.014 0.004,0.021 0,0.007 -0.001,0.014 -0.004,0.021 -0.003,0.006 -0.007,0.012 -0.011,0.016 -0.005,0.005 -0.011,0.009 -0.017,0.011 -0.007,0.003 -0.013,0.005 -0.021,0.005 z"
         style="fill-rule:nonzero"
         id="path352" /><path
         d="m 0.406,-0.176 h 0.298 c 0.007,0 0.014,0.002 0.02,0.004 0.007,0.003 0.012,0.007 0.017,0.012 0.005,0.005 0.009,0.01 0.012,0.017 0.002,0.006 0.004,0.013 0.004,0.02 0,0.007 -0.002,0.014 -0.004,0.02 -0.003,0.007 -0.007,0.012 -0.012,0.017 -0.005,0.005 -0.01,0.009 -0.017,0.012 -0.006,0.002 -0.013,0.004 -0.02,0.004 H 0.581 V 0.053 C 0.581,0.06 0.58,0.067 0.577,0.073 0.574,0.079 0.57,0.085 0.566,0.09 0.561,0.094 0.555,0.098 0.549,0.101 0.543,0.104 0.536,0.105 0.529,0.105 H 0.353 C 0.346,0.105 0.339,0.104 0.333,0.101 0.326,0.098 0.321,0.094 0.316,0.09 0.311,0.085 0.307,0.079 0.304,0.073 0.302,0.067 0.3,0.06 0.3,0.053 v -0.246 c 0,-0.008 0.002,-0.014 0.004,-0.021 0.003,-0.006 0.007,-0.012 0.012,-0.016 0.005,-0.005 0.01,-0.009 0.017,-0.011 0.006,-0.003 0.013,-0.005 0.02,-0.005 0.007,0 0.014,0.002 0.02,0.005 0.007,0.002 0.012,0.006 0.017,0.011 0.005,0.004 0.009,0.01 0.012,0.016 0.002,0.007 0.004,0.013 0.004,0.021 z m 0.386,-0.561 c 0.02,0 0.042,0.002 0.064,0.007 0.023,0.005 0.045,0.012 0.066,0.021 0.021,0.01 0.041,0.021 0.06,0.034 0.018,0.013 0.034,0.028 0.047,0.045 0.006,0.007 0.009,0.015 0.009,0.023 0,0.01 -0.004,0.018 -0.011,0.025 -0.007,0.007 -0.015,0.01 -0.025,0.01 -0.005,0 -0.01,-0.001 -0.014,-0.003 C 0.984,-0.577 0.98,-0.58 0.976,-0.583 0.961,-0.597 0.947,-0.608 0.934,-0.618 0.921,-0.629 0.907,-0.637 0.893,-0.645 0.879,-0.652 0.864,-0.657 0.847,-0.661 0.831,-0.665 0.813,-0.667 0.792,-0.667 c -0.01,0 -0.018,-0.003 -0.025,-0.01 -0.007,-0.007 -0.01,-0.015 -0.01,-0.025 0,-0.01 0.003,-0.018 0.01,-0.025 0.007,-0.007 0.016,-0.01 0.025,-0.01 z m -0.176,0.035 c 0,0.01 -0.003,0.018 -0.01,0.025 -0.007,0.007 -0.015,0.01 -0.025,0.01 -0.021,0 -0.039,0.002 -0.055,0.006 -0.016,0.003 -0.032,0.009 -0.046,0.016 -0.014,0.007 -0.028,0.016 -0.041,0.026 -0.013,0.011 -0.027,0.022 -0.042,0.036 -0.004,0.003 -0.008,0.006 -0.012,0.008 -0.004,0.002 -0.009,0.003 -0.014,0.003 -0.01,0 -0.018,-0.003 -0.025,-0.01 -0.007,-0.007 -0.011,-0.015 -0.011,-0.025 0,-0.008 0.003,-0.016 0.009,-0.023 0.013,-0.017 0.029,-0.032 0.047,-0.045 0.019,-0.013 0.039,-0.024 0.06,-0.034 0.021,-0.009 0.043,-0.016 0.066,-0.021 0.022,-0.005 0.044,-0.007 0.064,-0.007 0.009,0 0.018,0.003 0.025,0.01 0.007,0.007 0.01,0.015 0.01,0.025 z"
         style="fill:#d48c00;fill-rule:nonzero"
         id="path354" /></g></g></svg>
