<?xml version="1.0" encoding="UTF-8" standalone="no"?>
<svg
   width="16.844999"
   height="16.844999"
   viewBox="0 0 16.844999 16.844999"
   version="1.1"
   xml:space="preserve"
   style="clip-rule:evenodd;fill-rule:evenodd;stroke-linejoin:round;stroke-miterlimit:2"
   id="svg20568"
   sodipodi:docname="emojis.svg"
   xmlns:inkscape="http://www.inkscape.org/namespaces/inkscape"
   xmlns:sodipodi="http://sodipodi.sourceforge.net/DTD/sodipodi-0.dtd"
   xmlns="http://www.w3.org/2000/svg"
   xmlns:svg="http://www.w3.org/2000/svg"><defs
     id="defs20572" /><sodipodi:namedview
     id="namedview20570"
     pagecolor="#505050"
     bordercolor="#eeeeee"
     borderopacity="1"
     inkscape:pageshadow="0"
     inkscape:pageopacity="0"
     inkscape:pagecheckerboard="0" /><g
     transform="matrix(0.24,0,0,0.24,-646.3998,-76.77852)"
     id="g20566"><g
       transform="matrix(62.5,0,0,62.5,2685.52,376.973)"
       id="g366"><path
         d="m 1.196,-0.116 0.014,0.104 c 0.001,0.005 0.001,0.01 0.002,0.015 0.001,0.005 0.001,0.01 0.001,0.015 C 1.213,0.039 1.209,0.06 1.2,0.079 1.192,0.098 1.181,0.115 1.167,0.129 1.152,0.143 1.135,0.155 1.116,0.163 1.097,0.171 1.077,0.175 1.055,0.175 1.038,0.175 1.02,0.172 1.003,0.166 0.986,0.16 0.971,0.152 0.958,0.141 0.916,0.164 0.872,0.181 0.826,0.193 0.781,0.205 0.734,0.21 0.687,0.21 0.635,0.21 0.585,0.204 0.537,0.19 0.489,0.177 0.445,0.158 0.403,0.134 0.362,0.109 0.324,0.08 0.29,0.046 0.255,0.012 0.226,-0.026 0.202,-0.068 0.177,-0.109 0.158,-0.154 0.145,-0.202 0.132,-0.25 0.125,-0.299 0.125,-0.351 c 0,-0.052 0.007,-0.102 0.02,-0.149 0.013,-0.048 0.032,-0.093 0.057,-0.135 0.024,-0.041 0.053,-0.079 0.088,-0.113 0.034,-0.034 0.072,-0.064 0.113,-0.088 0.042,-0.024 0.086,-0.043 0.134,-0.057 0.048,-0.013 0.098,-0.02 0.15,-0.02 0.051,0 0.101,0.007 0.149,0.02 0.048,0.014 0.092,0.033 0.134,0.057 0.041,0.024 0.079,0.054 0.113,0.088 0.035,0.034 0.064,0.072 0.088,0.113 0.025,0.042 0.044,0.087 0.057,0.135 0.013,0.047 0.02,0.097 0.02,0.149 0,0.041 -0.004,0.081 -0.013,0.12 -0.009,0.039 -0.022,0.078 -0.039,0.115 z"
         style="fill-rule:nonzero"
         id="path358" /><path
         d="m 1.178,-0.351 c 0,0.045 -0.006,0.089 -0.018,0.131 -0.012,0.041 -0.028,0.081 -0.049,0.117 -0.022,0.036 -0.047,0.07 -0.077,0.099 C 1.004,0.026 0.971,0.052 0.935,0.073 0.898,0.094 0.859,0.111 0.817,0.123 0.775,0.134 0.732,0.14 0.687,0.14 0.641,0.14 0.598,0.134 0.556,0.123 0.514,0.111 0.475,0.094 0.438,0.073 0.402,0.052 0.369,0.026 0.339,-0.004 0.309,-0.033 0.284,-0.067 0.262,-0.103 0.241,-0.139 0.225,-0.179 0.213,-0.22 0.201,-0.262 0.195,-0.306 0.195,-0.351 c 0,-0.045 0.006,-0.089 0.018,-0.131 0.012,-0.042 0.028,-0.081 0.049,-0.117 0.022,-0.037 0.047,-0.07 0.077,-0.099 0.03,-0.03 0.063,-0.056 0.099,-0.077 0.037,-0.021 0.076,-0.038 0.118,-0.05 0.042,-0.011 0.085,-0.017 0.131,-0.017 0.045,0 0.088,0.006 0.13,0.017 0.042,0.012 0.081,0.029 0.118,0.05 0.036,0.021 0.069,0.047 0.099,0.077 0.03,0.029 0.055,0.062 0.077,0.099 0.021,0.036 0.037,0.075 0.049,0.117 0.012,0.042 0.018,0.086 0.018,0.131 z"
         style="fill:#ffc83d;fill-rule:nonzero"
         id="path360" /><path
         d="M 1.107,-0.246 1.141,0 C 1.142,0.005 1.143,0.011 1.143,0.018 1.143,0.03 1.14,0.041 1.136,0.052 1.131,0.062 1.125,0.071 1.117,0.079 1.109,0.087 1.1,0.094 1.089,0.098 1.079,0.103 1.067,0.105 1.055,0.105 1.043,0.105 1.032,0.103 1.021,0.098 1.01,0.094 1.001,0.087 0.993,0.079 0.985,0.071 0.979,0.062 0.974,0.052 0.97,0.041 0.967,0.03 0.967,0.018 0.967,0.008 0.968,0 0.97,-0.009 0.971,-0.018 0.973,-0.027 0.974,-0.036 L 0.988,-0.141 H 0.932 V -0.07 H 0.862 V -0.141 H 0.792 V -0.07 H 0.722 V -0.141 H 0.651 v 0.071 h -0.07 v -0.071 h -0.07 v 0.071 h -0.07 v -0.071 h -0.07 v -0.175 h 0.07 v 0.07 h 0.07 v -0.07 h 0.07 v 0.07 h 0.07 v -0.07 h 0.071 v 0.07 h 0.07 v -0.07 h 0.07 v 0.07 h 0.07 v -0.07 h 0.07 v 0.07 z m -0.034,0.193 v -0.07 c 0,-0.005 -0.002,-0.009 -0.005,-0.012 -0.004,-0.004 -0.008,-0.006 -0.013,-0.006 -0.005,0 -0.009,0.002 -0.012,0.006 -0.004,0.003 -0.005,0.007 -0.005,0.012 v 0.07 c 0,0.005 10e-4,0.009 0.005,0.013 0.003,0.003 0.007,0.005 0.012,0.005 0.005,0 0.009,-0.002 0.013,-0.005 0.003,-0.004 0.005,-0.008 0.005,-0.013 z"
         style="fill:#757575;fill-rule:nonzero"
         id="path362" /><path
         d="m 0.371,-0.21 h 0.631 v 0.034 H 0.371 Z M 0.494,-0.386 C 0.486,-0.386 0.479,-0.388 0.473,-0.39 0.467,-0.393 0.461,-0.397 0.456,-0.402 0.452,-0.406 0.448,-0.412 0.445,-0.418 0.442,-0.425 0.441,-0.431 0.441,-0.439 v -0.07 c 0,-0.007 0.001,-0.014 0.004,-0.02 0.003,-0.007 0.007,-0.012 0.011,-0.017 0.005,-0.005 0.011,-0.009 0.017,-0.011 0.006,-0.003 0.013,-0.005 0.021,-0.005 0.007,0 0.014,0.002 0.02,0.005 0.006,0.002 0.012,0.006 0.017,0.011 0.005,0.005 0.008,0.011 0.011,0.017 0.003,0.006 0.004,0.013 0.004,0.02 v 0.07 c 0,0.007 -0.001,0.014 -0.004,0.02 -0.003,0.007 -0.006,0.012 -0.011,0.017 -0.005,0.005 -0.011,0.009 -0.017,0.012 -0.006,0.002 -0.013,0.004 -0.02,0.004 z m 0.385,0 C 0.872,-0.386 0.865,-0.388 0.859,-0.39 0.852,-0.393 0.847,-0.397 0.842,-0.402 0.838,-0.407 0.834,-0.412 0.831,-0.419 0.829,-0.425 0.827,-0.432 0.827,-0.439 v -0.07 c 0,-0.007 0.002,-0.014 0.004,-0.02 0.003,-0.006 0.007,-0.012 0.011,-0.017 0.005,-0.005 0.01,-0.009 0.017,-0.011 0.006,-0.003 0.013,-0.005 0.02,-0.005 0.008,0 0.014,0.002 0.021,0.005 0.006,0.002 0.012,0.006 0.017,0.011 0.004,0.005 0.008,0.01 0.011,0.017 0.003,0.006 0.004,0.013 0.004,0.02 v 0.07 c 0,0.008 -0.001,0.014 -0.004,0.021 C 0.925,-0.412 0.921,-0.406 0.917,-0.402 0.912,-0.397 0.906,-0.393 0.9,-0.39 0.893,-0.388 0.887,-0.386 0.879,-0.386 Z"
         style="fill-rule:nonzero"
         id="path364" /></g></g></svg>
