<?xml version="1.0" encoding="UTF-8" standalone="no"?>
<svg
   width="13.695"
   height="16.844999"
   viewBox="0 0 13.695 16.844999"
   version="1.1"
   xml:space="preserve"
   style="clip-rule:evenodd;fill-rule:evenodd;stroke-linejoin:round;stroke-miterlimit:2"
   id="svg20568"
   sodipodi:docname="emojis.svg"
   xmlns:inkscape="http://www.inkscape.org/namespaces/inkscape"
   xmlns:sodipodi="http://sodipodi.sourceforge.net/DTD/sodipodi-0.dtd"
   xmlns="http://www.w3.org/2000/svg"
   xmlns:svg="http://www.w3.org/2000/svg"><defs
     id="defs20572" /><sodipodi:namedview
     id="namedview20570"
     pagecolor="#505050"
     bordercolor="#eeeeee"
     borderopacity="1"
     inkscape:pageshadow="0"
     inkscape:pageopacity="0"
     inkscape:pagecheckerboard="0" /><g
     transform="matrix(0.24,0,0,0.24,-216.02844,-229.5114)"
     id="g20566"><g
       transform="matrix(62.5,0,0,62.5,892.306,1013.36)"
       id="g4094"><path
         d="M 1.038,0.023 V 0.21 H 0.125 V 0.023 c 0,-0.034 0.006,-0.068 0.017,-0.1 C 0.153,-0.109 0.169,-0.138 0.189,-0.164 0.209,-0.19 0.233,-0.212 0.262,-0.231 0.29,-0.249 0.321,-0.263 0.355,-0.271 0.326,-0.301 0.304,-0.335 0.289,-0.373 0.273,-0.41 0.265,-0.45 0.265,-0.491 V -0.572 C 0.257,-0.583 0.248,-0.593 0.24,-0.603 0.231,-0.613 0.224,-0.623 0.217,-0.634 0.211,-0.644 0.205,-0.655 0.201,-0.667 0.197,-0.679 0.195,-0.692 0.195,-0.707 c 0,-0.015 0.003,-0.029 0.007,-0.043 0.005,-0.014 0.012,-0.026 0.02,-0.037 0.009,-0.012 0.019,-0.021 0.031,-0.03 0.012,-0.008 0.026,-0.014 0.04,-0.018 L 0.561,-0.91 c 0.006,-0.002 0.013,-0.003 0.02,-0.003 0.007,0 0.014,0.001 0.02,0.003 l 0.269,0.075 c 0.014,0.004 0.027,0.01 0.039,0.018 0.012,0.009 0.022,0.018 0.031,0.03 0.008,0.011 0.015,0.024 0.02,0.037 0.005,0.014 0.007,0.028 0.007,0.043 0,0.015 -0.002,0.028 -0.006,0.04 -0.004,0.011 -0.01,0.022 -0.016,0.033 -0.007,0.011 -0.015,0.021 -0.023,0.031 -0.008,0.01 -0.017,0.02 -0.025,0.031 v 0.081 c 0,0.041 -0.008,0.08 -0.023,0.118 -0.015,0.038 -0.037,0.071 -0.066,0.101 0.034,0.008 0.065,0.022 0.093,0.041 0.028,0.019 0.052,0.041 0.073,0.067 0.02,0.026 0.036,0.055 0.047,0.087 0.011,0.032 0.017,0.066 0.017,0.1 z"
         style="fill-rule:nonzero"
         id="path4070" /><path
         d="m 0.591,-0.731 c 0.025,0.001 0.049,0.004 0.072,0.008 0.024,0.004 0.045,0.011 0.065,0.02 0.019,0.01 0.036,0.023 0.051,0.039 0.015,0.017 0.026,0.039 0.034,0.065 0.004,0.011 0.007,0.023 0.01,0.036 0.002,0.013 0.004,0.025 0.004,0.037 v 0.035 c 0,0.034 -0.007,0.065 -0.02,0.095 -0.012,0.03 -0.03,0.056 -0.052,0.078 -0.023,0.023 -0.049,0.04 -0.078,0.053 -0.03,0.013 -0.062,0.019 -0.096,0.019 -0.034,0 -0.066,-0.006 -0.095,-0.019 C 0.456,-0.278 0.43,-0.295 0.407,-0.318 0.385,-0.34 0.368,-0.366 0.355,-0.396 c -0.013,-0.03 -0.02,-0.061 -0.02,-0.095 0,-0.006 0,-0.012 0,-0.018 0,-0.006 0,-0.012 0,-0.017 0.001,-0.012 0.003,-0.024 0.007,-0.037 0.003,-0.013 0.007,-0.024 0.012,-0.035 0.009,-0.025 0.022,-0.045 0.037,-0.062 0.015,-0.017 0.032,-0.031 0.052,-0.041 0.019,-0.011 0.04,-0.019 0.063,-0.023 0.023,-0.005 0.047,-0.007 0.072,-0.007 z m 0.06,0.599 H 0.511 L 0.546,-0.21 h 0.07 z"
         style="fill:#ffc83d;fill-rule:nonzero"
         id="path4072" /><path
         d="m 0.371,-0.627 v 0.101 H 0.335 v -0.071 z m 0.421,0.009 0.035,0.021 v 0.071 H 0.792 Z"
         style="fill:#8e562e;fill-rule:nonzero"
         id="path4074" /><path
         d="M 0.967,0.023 V 0.14 H 0.862 L 0.792,0.105 0.722,0.14 H 0.634 L 0.581,0.097 0.529,0.14 H 0.441 L 0.371,0.105 0.3,0.14 H 0.195 V 0.023 c 0,-0.032 0.006,-0.063 0.019,-0.091 0.012,-0.028 0.029,-0.053 0.05,-0.074 C 0.285,-0.163 0.31,-0.18 0.339,-0.192 0.368,-0.204 0.398,-0.21 0.43,-0.21 h 0.011 l 0.094,0.034 h 0.011 l 0.035,0.03 0.035,-0.03 H 0.628 L 0.722,-0.21 h 0.011 c 0.032,0 0.062,0.006 0.091,0.018 0.028,0.012 0.053,0.029 0.075,0.05 0.021,0.021 0.038,0.046 0.05,0.074 0.012,0.029 0.018,0.059 0.018,0.091 z M 0.851,-0.768 c 0.006,0.002 0.013,0.005 0.018,0.009 0.006,0.004 0.011,0.009 0.015,0.014 0.004,0.005 0.007,0.011 0.01,0.018 0.002,0.006 0.003,0.013 0.003,0.02 0,0.015 -0.005,0.028 -0.014,0.04 L 0.827,-0.597 0.796,-0.604 0.747,-0.615 C 0.74,-0.617 0.733,-0.618 0.728,-0.619 0.723,-0.621 0.721,-0.621 0.72,-0.621 H 0.418 l -0.039,0.012 -0.035,0.01 C 0.339,-0.598 0.336,-0.597 0.335,-0.597 L 0.279,-0.667 C 0.275,-0.673 0.271,-0.679 0.269,-0.685 0.266,-0.692 0.265,-0.699 0.265,-0.707 c 0,-0.007 0.001,-0.014 0.004,-0.02 0.002,-0.007 0.005,-0.013 0.009,-0.018 0.004,-0.005 0.009,-0.01 0.015,-0.014 0.005,-0.004 0.012,-0.007 0.019,-0.009 l 0.269,-0.074 z"
         style="fill:#3a96dd;fill-rule:nonzero"
         id="path4076" /><path
         d="M 0.827,-0.597 H 0.335 c 0.037,-0.023 0.076,-0.04 0.118,-0.052 0.042,-0.012 0.084,-0.018 0.128,-0.018 0.044,0 0.086,0.006 0.128,0.018 0.042,0.012 0.081,0.029 0.118,0.052 z m -0.14,0.035 c 0.009,0 0.018,0.004 0.024,0.011 0.007,0.007 0.011,0.015 0.011,0.025 v 0.035 c 0,0.009 -0.004,0.017 -0.011,0.024 -0.007,0.007 -0.015,0.01 -0.024,0.01 -0.01,0 -0.018,-0.003 -0.025,-0.01 C 0.655,-0.474 0.651,-0.482 0.651,-0.491 v -0.035 c 0,-0.01 0.004,-0.018 0.011,-0.025 0.006,-0.007 0.015,-0.011 0.025,-0.011 z m -0.176,0.071 c 0,0.009 -0.003,0.017 -0.01,0.024 -0.007,0.007 -0.015,0.01 -0.025,0.01 -0.009,0 -0.018,-0.003 -0.025,-0.01 -0.007,-0.007 -0.01,-0.015 -0.01,-0.024 v -0.035 c 0,-0.01 0.003,-0.018 0.01,-0.025 0.007,-0.007 0.015,-0.011 0.025,-0.011 0.01,0 0.018,0.004 0.025,0.011 0.007,0.007 0.01,0.015 0.01,0.025 z"
         style="fill-rule:nonzero"
         id="path4078" /><path
         d="M 0.581,-0.316 C 0.576,-0.316 0.57,-0.317 0.562,-0.319 0.554,-0.32 0.546,-0.323 0.539,-0.326 0.531,-0.33 0.525,-0.334 0.519,-0.339 0.514,-0.344 0.511,-0.349 0.511,-0.355 c 0,-0.005 0.001,-0.008 0.005,-0.012 0.003,-0.003 0.007,-0.005 0.012,-0.005 0.003,0 0.006,0.002 0.009,0.004 0.003,0.002 0.006,0.005 0.01,0.007 0.004,0.003 0.009,0.005 0.014,0.007 0.006,0.003 0.012,0.004 0.02,0.004 0.008,0 0.014,-0.001 0.02,-0.004 0.005,-0.002 0.01,-0.004 0.014,-0.007 0.004,-0.002 0.008,-0.005 0.011,-0.007 0.003,-0.002 0.006,-0.004 0.009,-0.004 0.004,0 0.008,0.002 0.011,0.005 0.004,0.004 0.005,0.007 0.005,0.012 0,0.006 -0.002,0.012 -0.008,0.016 C 0.638,-0.334 0.631,-0.33 0.624,-0.326 0.616,-0.323 0.608,-0.32 0.6,-0.319 0.592,-0.317 0.586,-0.316 0.581,-0.316 Z m 0.035,-0.141 c 0,0.01 -0.004,0.018 -0.011,0.025 -0.006,0.007 -0.015,0.011 -0.024,0.011 -0.01,0 -0.018,-0.004 -0.025,-0.011 -0.007,-0.006 -0.01,-0.015 -0.01,-0.025 z"
         style="fill:#f7894a;fill-rule:nonzero"
         id="path4080" /><path
         d="m 0.581,-0.825 c 0.007,0 0.011,0.002 0.014,0.006 0.004,0.004 0.007,0.008 0.009,0.012 0.003,0.005 0.007,0.008 0.011,0.012 0.004,0.004 0.01,0.005 0.019,0.005 h 0.017 v 0.032 c 0,0.01 -0.001,0.019 -0.005,0.028 C 0.642,-0.721 0.638,-0.713 0.631,-0.706 0.625,-0.7 0.618,-0.694 0.609,-0.69 0.601,-0.686 0.591,-0.684 0.581,-0.684 0.571,-0.684 0.562,-0.686 0.554,-0.69 0.545,-0.693 0.538,-0.699 0.531,-0.705 0.525,-0.712 0.52,-0.719 0.517,-0.728 0.513,-0.736 0.511,-0.745 0.511,-0.755 V -0.79 h 0.018 c 0.008,0 0.014,-0.001 0.018,-0.005 0.005,-0.004 0.008,-0.007 0.011,-0.012 0.003,-0.004 0.006,-0.008 0.009,-0.012 0.003,-0.004 0.008,-0.006 0.014,-0.006 z"
         style="fill:#fff100;fill-rule:nonzero"
         id="path4082" /><path
         d="M 0.592,-0.082 0.634,0.14 H 0.529 L 0.57,-0.082 0.511,-0.141 0.546,-0.176 h 0.07 l 0.035,0.035 z"
         style="fill:#0063b1;fill-rule:nonzero"
         id="path4084" /><path
         d="m 0.651,-0.246 h 0.071 l 0.035,0.036 -0.106,0.105 -0.07,-0.071 z m -0.07,0.07 -0.07,0.071 -0.105,-0.105 0.035,-0.036 h 0.07 z"
         style="fill:#83beec;fill-rule:nonzero"
         id="path4086" /><path
         d="m 0.862,-0.07 v 0.035 c 0,0.01 -0.002,0.019 -0.006,0.027 C 0.853,0.001 0.848,0.008 0.842,0.014 0.835,0.021 0.828,0.026 0.819,0.03 0.811,0.033 0.802,0.035 0.792,0.035 0.782,0.035 0.773,0.033 0.765,0.03 0.756,0.026 0.749,0.021 0.742,0.014 0.736,0.008 0.731,0.001 0.727,-0.008 0.724,-0.016 0.722,-0.025 0.722,-0.035 V -0.07 l 0.067,-0.018 z"
         style="fill:#fce100;fill-rule:nonzero"
         id="path4088" /><path
         d="M 0.441,0 V 0.035 H 0.3 V 0 Z m 0.421,-0.07 h -0.14 v -0.035 h 0.14 z"
         style="fill:#dfbe00;fill-rule:nonzero"
         id="path4090" /><path
         d="M 0.441,0.14 H 0.3 V 0.07 h 0.141 z m 0.421,0 H 0.722 V 0.07 h 0.14 z"
         style="fill:#0078d7;fill-rule:nonzero"
         id="path4092" /></g></g></svg>
