<?xml version="1.0" encoding="UTF-8" standalone="no"?>
<svg
   width="16.844999"
   height="16.844999"
   viewBox="0 0 16.844999 16.844999"
   version="1.1"
   xml:space="preserve"
   style="clip-rule:evenodd;fill-rule:evenodd;stroke-linejoin:round;stroke-miterlimit:2"
   id="svg20568"
   sodipodi:docname="emojis.svg"
   xmlns:inkscape="http://www.inkscape.org/namespaces/inkscape"
   xmlns:sodipodi="http://sodipodi.sourceforge.net/DTD/sodipodi-0.dtd"
   xmlns="http://www.w3.org/2000/svg"
   xmlns:svg="http://www.w3.org/2000/svg"><defs
     id="defs20572" /><sodipodi:namedview
     id="namedview20570"
     pagecolor="#505050"
     bordercolor="#eeeeee"
     borderopacity="1"
     inkscape:pageshadow="0"
     inkscape:pageopacity="0"
     inkscape:pagecheckerboard="0" /><g
     transform="matrix(0.24,0,0,0.24,-749.379,-76.77852)"
     id="g20566"><g
       transform="matrix(62.5,0,0,62.5,3114.6,376.973)"
       id="g410"><path
         d="m 1.248,-0.351 c 0,0.052 -0.007,0.101 -0.02,0.149 C 1.215,-0.154 1.196,-0.109 1.171,-0.068 1.147,-0.026 1.118,0.012 1.083,0.046 1.049,0.08 1.011,0.109 0.97,0.134 0.928,0.158 0.884,0.177 0.836,0.19 0.788,0.204 0.738,0.21 0.687,0.21 0.635,0.21 0.585,0.204 0.537,0.19 0.489,0.177 0.445,0.158 0.403,0.134 0.362,0.109 0.324,0.08 0.29,0.046 0.255,0.012 0.226,-0.026 0.202,-0.068 0.177,-0.109 0.158,-0.154 0.145,-0.202 0.132,-0.25 0.125,-0.299 0.125,-0.351 c 0,-0.052 0.007,-0.102 0.02,-0.149 0.013,-0.048 0.032,-0.093 0.057,-0.135 0.024,-0.041 0.053,-0.079 0.088,-0.113 0.034,-0.034 0.072,-0.064 0.113,-0.088 0.042,-0.024 0.086,-0.043 0.134,-0.057 0.048,-0.013 0.098,-0.02 0.15,-0.02 0.051,0 0.101,0.007 0.149,0.02 0.048,0.014 0.092,0.033 0.134,0.057 0.041,0.024 0.079,0.054 0.113,0.088 0.035,0.034 0.064,0.072 0.088,0.113 0.025,0.042 0.044,0.087 0.057,0.135 0.013,0.047 0.02,0.097 0.02,0.149 z"
         style="fill-rule:nonzero"
         id="path402" /><path
         d="m 1.178,-0.351 c 0,0.045 -0.006,0.089 -0.018,0.131 -0.012,0.041 -0.028,0.081 -0.049,0.117 -0.022,0.036 -0.047,0.07 -0.077,0.099 C 1.004,0.026 0.971,0.052 0.935,0.073 0.898,0.094 0.859,0.111 0.817,0.123 0.775,0.134 0.732,0.14 0.687,0.14 0.641,0.14 0.598,0.134 0.556,0.123 0.514,0.111 0.475,0.094 0.438,0.073 0.402,0.052 0.369,0.026 0.339,-0.004 0.309,-0.033 0.284,-0.067 0.262,-0.103 0.241,-0.139 0.225,-0.179 0.213,-0.22 0.201,-0.262 0.195,-0.306 0.195,-0.351 c 0,-0.045 0.006,-0.089 0.018,-0.131 0.012,-0.042 0.028,-0.081 0.049,-0.117 0.022,-0.037 0.047,-0.07 0.077,-0.099 0.03,-0.03 0.063,-0.056 0.099,-0.077 0.037,-0.021 0.076,-0.038 0.118,-0.05 0.042,-0.011 0.085,-0.017 0.131,-0.017 0.045,0 0.088,0.006 0.13,0.017 0.042,0.012 0.081,0.029 0.118,0.05 0.036,0.021 0.069,0.047 0.099,0.077 0.03,0.029 0.055,0.062 0.077,0.099 0.021,0.036 0.037,0.075 0.049,0.117 0.012,0.042 0.018,0.086 0.018,0.131 z"
         style="fill:#ffc83d;fill-rule:nonzero"
         id="path404" /><path
         d="m 0.965,-0.21 c 0.01,0 0.018,0.003 0.025,0.01 C 0.997,-0.194 1,-0.186 1,-0.176 1,-0.172 1,-0.169 0.999,-0.167 0.998,-0.164 0.997,-0.161 0.995,-0.158 0.982,-0.134 0.966,-0.112 0.946,-0.092 0.926,-0.073 0.904,-0.056 0.88,-0.042 0.856,-0.029 0.83,-0.018 0.803,-0.011 0.776,-0.004 0.749,0 0.722,0 H 0.616 C 0.606,0 0.598,-0.003 0.591,-0.01 0.584,-0.017 0.581,-0.025 0.581,-0.035 c 0,-0.01 0.003,-0.018 0.01,-0.025 0.007,-0.007 0.015,-0.01 0.025,-0.01 h 0.106 c 0.017,0 0.034,-0.002 0.051,-0.006 C 0.79,-0.08 0.806,-0.085 0.822,-0.092 0.838,-0.099 0.853,-0.108 0.867,-0.118 0.881,-0.128 0.894,-0.139 0.905,-0.152 0.911,-0.159 0.916,-0.166 0.92,-0.173 0.925,-0.18 0.929,-0.187 0.935,-0.193 0.939,-0.199 0.943,-0.203 0.948,-0.206 0.952,-0.209 0.957,-0.21 0.965,-0.21 Z M 0.879,-0.491 c 0.017,0 0.033,0.003 0.048,0.01 0.015,0.006 0.028,0.015 0.039,0.026 0.011,0.011 0.02,0.024 0.027,0.039 0.006,0.015 0.009,0.03 0.009,0.047 v 0.036 c 0,0.007 -0.001,0.014 -0.004,0.02 -0.002,0.007 -0.006,0.012 -0.011,0.017 -0.005,0.005 -0.01,0.008 -0.017,0.011 -0.006,0.003 -0.013,0.004 -0.02,0.004 -0.008,0 -0.015,-10e-4 -0.021,-0.004 C 0.923,-0.288 0.917,-0.291 0.912,-0.296 0.908,-0.301 0.904,-0.306 0.901,-0.313 0.898,-0.319 0.897,-0.326 0.897,-0.333 V -0.437 C 0.89,-0.438 0.885,-0.439 0.879,-0.439 c -0.012,0 -0.023,0.002 -0.034,0.007 -0.011,0.004 -0.02,0.011 -0.028,0.019 -0.007,0.008 -0.014,0.017 -0.018,0.028 -0.005,0.01 -0.007,0.022 -0.007,0.034 H 0.757 v -0.018 c 0,-0.017 0.003,-0.033 0.009,-0.048 0.007,-0.014 0.015,-0.027 0.026,-0.039 0.012,-0.011 0.024,-0.019 0.039,-0.026 0.015,-0.006 0.031,-0.009 0.048,-0.009 z m -0.263,0.158 c 0,0.007 -0.001,0.014 -0.004,0.02 -0.003,0.007 -0.006,0.012 -0.011,0.017 -0.005,0.005 -0.011,0.008 -0.017,0.011 -0.007,0.003 -0.013,0.004 -0.021,0.004 -0.007,0 -0.013,-10e-4 -0.02,-0.004 C 0.537,-0.288 0.531,-0.292 0.527,-0.296 0.522,-0.301 0.518,-0.307 0.515,-0.313 0.513,-0.32 0.511,-0.326 0.511,-0.333 V -0.437 C 0.505,-0.438 0.499,-0.439 0.494,-0.439 c -0.013,0 -0.024,0.002 -0.035,0.007 -0.01,0.004 -0.02,0.011 -0.028,0.019 -0.008,0.008 -0.014,0.017 -0.018,0.028 -0.005,0.01 -0.007,0.022 -0.007,0.034 H 0.371 v -0.018 c 0,-0.017 0.003,-0.033 0.009,-0.048 0.007,-0.014 0.016,-0.027 0.027,-0.039 0.011,-0.011 0.024,-0.019 0.039,-0.026 0.015,-0.006 0.031,-0.009 0.048,-0.009 0.017,0 0.032,0.003 0.047,0.01 0.015,0.006 0.028,0.015 0.039,0.026 0.011,0.011 0.02,0.024 0.026,0.039 0.007,0.015 0.01,0.03 0.01,0.047 z"
         style="fill-rule:nonzero"
         id="path406" /><path
         d="m 0.581,-0.702 c 0.01,0 0.018,0.003 0.025,0.01 0.007,0.007 0.01,0.015 0.01,0.025 0,0.01 -0.003,0.018 -0.01,0.025 -0.007,0.007 -0.015,0.01 -0.025,0.01 -0.021,0 -0.039,0.002 -0.055,0.006 C 0.51,-0.622 0.494,-0.617 0.48,-0.61 0.466,-0.603 0.452,-0.594 0.439,-0.584 0.426,-0.573 0.412,-0.562 0.397,-0.549 0.392,-0.545 0.388,-0.542 0.385,-0.54 0.382,-0.538 0.377,-0.537 0.371,-0.537 0.361,-0.537 0.353,-0.54 0.346,-0.547 0.339,-0.554 0.335,-0.562 0.335,-0.572 0.335,-0.576 0.336,-0.58 0.338,-0.584 0.34,-0.588 0.342,-0.592 0.344,-0.595 0.356,-0.612 0.372,-0.627 0.39,-0.64 0.409,-0.653 0.429,-0.664 0.451,-0.674 0.472,-0.683 0.494,-0.69 0.517,-0.695 0.539,-0.7 0.561,-0.702 0.581,-0.702 Z m 0.211,0 c 0.02,0 0.041,0.002 0.064,0.007 0.023,0.005 0.045,0.012 0.066,0.021 0.022,0.01 0.042,0.021 0.061,0.034 0.018,0.013 0.034,0.028 0.046,0.045 0.002,0.003 0.005,0.007 0.006,0.011 0.002,0.004 0.003,0.008 0.003,0.012 0,0.01 -0.004,0.018 -0.011,0.025 -0.007,0.007 -0.015,0.01 -0.025,0.01 -0.006,0 -0.011,-0.001 -0.014,-0.003 C 0.985,-0.542 0.981,-0.545 0.976,-0.549 0.961,-0.562 0.947,-0.573 0.934,-0.584 0.921,-0.594 0.907,-0.603 0.893,-0.61 0.879,-0.617 0.864,-0.622 0.847,-0.626 0.831,-0.63 0.813,-0.632 0.792,-0.632 c -0.01,0 -0.018,-0.003 -0.025,-0.01 -0.007,-0.007 -0.01,-0.015 -0.01,-0.025 0,-0.01 0.003,-0.018 0.01,-0.025 0.007,-0.007 0.015,-0.01 0.025,-0.01 z"
         style="fill:#d48c00;fill-rule:nonzero"
         id="path408" /></g></g></svg>
