<?xml version="1.0" encoding="UTF-8" standalone="no"?>
<svg
   width="16.844999"
   height="16.844999"
   viewBox="0 0 16.844999 16.844999"
   version="1.1"
   xml:space="preserve"
   style="clip-rule:evenodd;fill-rule:evenodd;stroke-linejoin:round;stroke-miterlimit:2"
   id="svg20568"
   sodipodi:docname="emojis.svg"
   xmlns:inkscape="http://www.inkscape.org/namespaces/inkscape"
   xmlns:sodipodi="http://sodipodi.sourceforge.net/DTD/sodipodi-0.dtd"
   xmlns="http://www.w3.org/2000/svg"
   xmlns:svg="http://www.w3.org/2000/svg"><defs
     id="defs20572" /><sodipodi:namedview
     id="namedview20570"
     pagecolor="#505050"
     bordercolor="#eeeeee"
     borderopacity="1"
     inkscape:pageshadow="0"
     inkscape:pageopacity="0"
     inkscape:pagecheckerboard="0" /><g
     transform="matrix(0.24,0,0,0.24,-769.9734,-76.77852)"
     id="g20566"><g
       transform="matrix(62.5,0,0,62.5,3200.41,376.973)"
       id="g420"><path
         d="m 1.248,-0.351 c 0,0.052 -0.007,0.101 -0.02,0.149 C 1.215,-0.154 1.196,-0.109 1.171,-0.068 1.147,-0.026 1.118,0.012 1.083,0.046 1.049,0.08 1.011,0.109 0.97,0.134 0.928,0.158 0.884,0.177 0.836,0.19 0.788,0.204 0.738,0.21 0.687,0.21 0.635,0.21 0.585,0.204 0.537,0.19 0.489,0.177 0.445,0.158 0.403,0.134 0.362,0.109 0.324,0.08 0.29,0.046 0.255,0.012 0.226,-0.026 0.202,-0.068 0.177,-0.109 0.158,-0.154 0.145,-0.202 0.132,-0.25 0.125,-0.299 0.125,-0.351 c 0,-0.052 0.007,-0.102 0.02,-0.149 0.013,-0.048 0.032,-0.093 0.057,-0.135 0.024,-0.041 0.053,-0.079 0.088,-0.113 0.034,-0.034 0.072,-0.064 0.113,-0.088 0.042,-0.024 0.086,-0.043 0.134,-0.057 0.048,-0.013 0.098,-0.02 0.15,-0.02 0.051,0 0.101,0.007 0.149,0.02 0.048,0.014 0.092,0.033 0.134,0.057 0.041,0.024 0.079,0.054 0.113,0.088 0.035,0.034 0.064,0.072 0.088,0.113 0.025,0.042 0.044,0.087 0.057,0.135 0.013,0.047 0.02,0.097 0.02,0.149 z"
         style="fill-rule:nonzero"
         id="path412" /><path
         d="m 1.178,-0.351 c 0,0.045 -0.006,0.089 -0.018,0.131 -0.012,0.041 -0.028,0.081 -0.049,0.117 -0.022,0.036 -0.047,0.07 -0.077,0.099 C 1.004,0.026 0.971,0.052 0.935,0.073 0.898,0.094 0.859,0.111 0.817,0.123 0.775,0.134 0.732,0.14 0.687,0.14 0.641,0.14 0.598,0.134 0.556,0.123 0.514,0.111 0.475,0.094 0.438,0.073 0.402,0.052 0.369,0.026 0.339,-0.004 0.309,-0.033 0.284,-0.067 0.262,-0.103 0.241,-0.139 0.225,-0.179 0.213,-0.22 0.201,-0.262 0.195,-0.306 0.195,-0.351 c 0,-0.045 0.006,-0.089 0.018,-0.131 0.012,-0.042 0.028,-0.081 0.049,-0.117 0.022,-0.037 0.047,-0.07 0.077,-0.099 0.03,-0.03 0.063,-0.056 0.099,-0.077 0.037,-0.021 0.076,-0.038 0.118,-0.05 0.042,-0.011 0.085,-0.017 0.131,-0.017 0.045,0 0.088,0.006 0.13,0.017 0.042,0.012 0.081,0.029 0.118,0.05 0.036,0.021 0.069,0.047 0.099,0.077 0.03,0.029 0.055,0.062 0.077,0.099 0.021,0.036 0.037,0.075 0.049,0.117 0.012,0.042 0.018,0.086 0.018,0.131 z"
         style="fill:#ffc83d;fill-rule:nonzero"
         id="path414" /><path
         d="m 0.687,-0.175 c 0.014,0 0.031,0.001 0.049,0.003 0.017,0.002 0.035,0.006 0.053,0.011 0.018,0.005 0.034,0.011 0.051,0.018 0.016,0.007 0.03,0.016 0.041,0.025 0.006,0.005 0.009,0.009 0.012,0.013 0.003,0.004 0.004,0.01 0.004,0.017 0,0.009 -0.003,0.018 -0.01,0.025 -0.007,0.006 -0.015,0.01 -0.025,0.01 -0.004,0 -0.007,-0.001 -0.01,-0.002 C 0.849,-0.056 0.846,-0.057 0.842,-0.059 L 0.835,-0.062 C 0.822,-0.069 0.81,-0.075 0.799,-0.08 0.788,-0.085 0.776,-0.09 0.765,-0.094 0.753,-0.097 0.741,-0.1 0.729,-0.102 0.716,-0.104 0.702,-0.105 0.687,-0.105 c -0.016,0 -0.03,0.001 -0.042,0.002 -0.012,0.002 -0.023,0.005 -0.034,0.009 -0.011,0.003 -0.022,0.008 -0.033,0.012 -0.011,0.005 -0.023,0.011 -0.035,0.017 l -0.012,0.006 c -0.004,0.002 -0.007,0.003 -0.01,0.004 -0.003,0.001 -0.006,0.002 -0.01,0.002 -0.01,0 -0.018,-0.004 -0.025,-0.01 -0.007,-0.007 -0.01,-0.016 -0.01,-0.025 0,-0.007 0.001,-0.013 0.004,-0.017 C 0.483,-0.109 0.486,-0.113 0.492,-0.118 0.503,-0.127 0.517,-0.136 0.533,-0.143 0.55,-0.15 0.566,-0.156 0.584,-0.161 0.602,-0.166 0.62,-0.17 0.637,-0.172 0.655,-0.174 0.672,-0.175 0.687,-0.175 Z M 0.563,-0.281 c -0.007,0 -0.014,-10e-4 -0.02,-0.004 C 0.536,-0.288 0.531,-0.292 0.526,-0.296 0.522,-0.301 0.518,-0.307 0.515,-0.313 0.513,-0.32 0.511,-0.326 0.511,-0.333 V -0.351 H 0.406 c -0.01,0 -0.018,-0.003 -0.025,-0.01 -0.007,-0.007 -0.01,-0.015 -0.01,-0.025 0,-0.01 0.003,-0.018 0.01,-0.025 0.007,-0.007 0.015,-0.01 0.025,-0.01 h 0.21 v 0.088 c 0,0.007 -0.001,0.014 -0.004,0.02 -0.003,0.007 -0.006,0.012 -0.011,0.017 -0.005,0.005 -0.011,0.008 -0.017,0.011 -0.007,0.003 -0.013,0.004 -0.021,0.004 z m 0.229,-0.14 h 0.21 v 0.088 c 0,0.007 -0.001,0.014 -0.004,0.02 -0.002,0.007 -0.006,0.012 -0.011,0.017 -0.005,0.005 -0.01,0.008 -0.017,0.011 -0.006,0.003 -0.013,0.004 -0.02,0.004 -0.008,0 -0.015,-10e-4 -0.021,-0.004 C 0.923,-0.288 0.917,-0.291 0.912,-0.296 0.908,-0.301 0.904,-0.306 0.901,-0.313 0.898,-0.319 0.897,-0.326 0.897,-0.333 V -0.351 H 0.792 c -0.01,0 -0.018,-0.003 -0.025,-0.01 -0.007,-0.007 -0.01,-0.015 -0.01,-0.025 0,-0.01 0.003,-0.018 0.01,-0.025 0.007,-0.007 0.015,-0.01 0.025,-0.01 z"
         style="fill-rule:nonzero"
         id="path416" /><path
         d="M 0.985,-0.526 C 0.98,-0.526 0.974,-0.528 0.967,-0.532 0.96,-0.535 0.951,-0.539 0.942,-0.544 0.933,-0.548 0.923,-0.552 0.912,-0.556 0.901,-0.559 0.89,-0.561 0.879,-0.561 c -0.011,0 -0.022,0.002 -0.033,0.005 -0.011,0.004 -0.021,0.008 -0.03,0.012 -0.009,0.005 -0.017,0.009 -0.025,0.012 -0.007,0.004 -0.013,0.006 -0.017,0.006 -0.01,0 -0.018,-0.004 -0.024,-0.011 -0.007,-0.007 -0.011,-0.015 -0.011,-0.025 0,-0.007 0.003,-0.015 0.008,-0.021 0.005,-0.007 0.012,-0.013 0.02,-0.018 0.009,-0.005 0.018,-0.01 0.028,-0.014 0.011,-0.003 0.021,-0.006 0.032,-0.009 0.01,-0.002 0.02,-0.004 0.029,-0.005 0.009,-0.002 0.017,-0.002 0.023,-0.002 0.007,0 0.014,0 0.024,0.002 0.009,0.001 0.019,0.003 0.029,0.005 0.011,0.003 0.021,0.006 0.031,0.009 0.011,0.004 0.02,0.009 0.029,0.014 0.008,0.005 0.015,0.011 0.02,0.018 0.005,0.006 0.008,0.013 0.008,0.021 0,0.01 -0.003,0.018 -0.01,0.025 -0.007,0.007 -0.015,0.011 -0.025,0.011 z m -0.386,0 C 0.594,-0.526 0.588,-0.528 0.581,-0.532 0.574,-0.535 0.566,-0.539 0.556,-0.544 0.547,-0.548 0.537,-0.552 0.526,-0.556 0.516,-0.559 0.505,-0.561 0.493,-0.561 c -0.011,0 -0.022,0.002 -0.033,0.005 -0.011,0.004 -0.021,0.008 -0.03,0.012 -0.009,0.005 -0.017,0.009 -0.024,0.012 -0.007,0.004 -0.013,0.006 -0.018,0.006 -0.01,0 -0.018,-0.004 -0.025,-0.011 -0.007,-0.007 -0.01,-0.015 -0.01,-0.025 0,-0.008 0.003,-0.015 0.008,-0.022 0.005,-0.006 0.012,-0.012 0.02,-0.017 0.008,-0.005 0.018,-0.01 0.028,-0.014 0.011,-0.003 0.021,-0.006 0.031,-0.009 0.011,-0.003 0.021,-0.004 0.03,-0.006 0.009,-0.001 0.017,-0.001 0.023,-0.001 0.006,0 0.014,0 0.023,0.002 0.01,0.001 0.019,0.003 0.03,0.005 0.01,0.003 0.021,0.006 0.031,0.009 0.011,0.004 0.02,0.009 0.028,0.014 0.009,0.005 0.016,0.011 0.021,0.018 0.005,0.006 0.008,0.014 0.008,0.021 0,0.01 -0.004,0.018 -0.011,0.025 -0.007,0.007 -0.015,0.011 -0.024,0.011 z"
         style="fill:#d48c00;fill-rule:nonzero"
         id="path418" /></g></g></svg>
