<?xml version="1.0" encoding="UTF-8" standalone="no"?>
<svg
   width="16.844999"
   height="16.844999"
   viewBox="0 0 16.844999 16.844999"
   version="1.1"
   xml:space="preserve"
   style="clip-rule:evenodd;fill-rule:evenodd;stroke-linejoin:round;stroke-miterlimit:2"
   id="svg20568"
   sodipodi:docname="emojis.svg"
   xmlns:inkscape="http://www.inkscape.org/namespaces/inkscape"
   xmlns:sodipodi="http://sodipodi.sourceforge.net/DTD/sodipodi-0.dtd"
   xmlns="http://www.w3.org/2000/svg"
   xmlns:svg="http://www.w3.org/2000/svg"><defs
     id="defs20572" /><sodipodi:namedview
     id="namedview20570"
     pagecolor="#505050"
     bordercolor="#eeeeee"
     borderopacity="1"
     inkscape:pageshadow="0"
     inkscape:pageopacity="0"
     inkscape:pagecheckerboard="0" /><g
     transform="matrix(0.24,0,0,0.24,-33.8094,-93.74892)"
     id="g20566"><g
       transform="matrix(62.5,0,0,62.5,133.06,447.683)"
       id="g440"><path
         d="m 1.248,-0.351 c 0,0.052 -0.007,0.101 -0.02,0.149 C 1.215,-0.154 1.196,-0.109 1.171,-0.068 1.147,-0.026 1.118,0.012 1.083,0.046 1.049,0.08 1.011,0.109 0.97,0.134 0.928,0.158 0.884,0.177 0.836,0.19 0.788,0.204 0.738,0.21 0.687,0.21 0.635,0.21 0.585,0.204 0.537,0.19 0.489,0.177 0.445,0.158 0.403,0.134 0.362,0.109 0.324,0.08 0.29,0.046 0.255,0.012 0.226,-0.026 0.202,-0.068 0.177,-0.109 0.158,-0.154 0.145,-0.202 0.132,-0.25 0.125,-0.299 0.125,-0.351 c 0,-0.052 0.007,-0.102 0.02,-0.149 0.013,-0.048 0.032,-0.093 0.057,-0.135 0.024,-0.041 0.053,-0.079 0.088,-0.113 0.034,-0.034 0.072,-0.064 0.113,-0.088 0.042,-0.024 0.086,-0.043 0.134,-0.057 0.048,-0.013 0.098,-0.02 0.15,-0.02 0.051,0 0.101,0.007 0.149,0.02 0.048,0.014 0.092,0.033 0.134,0.057 0.041,0.024 0.079,0.054 0.113,0.088 0.035,0.034 0.064,0.072 0.088,0.113 0.025,0.042 0.044,0.087 0.057,0.135 0.013,0.047 0.02,0.097 0.02,0.149 z"
         style="fill-rule:nonzero"
         id="path432" /><path
         d="m 1.178,-0.351 c 0,0.045 -0.006,0.089 -0.018,0.131 -0.012,0.041 -0.028,0.081 -0.049,0.117 -0.022,0.036 -0.047,0.07 -0.077,0.099 C 1.004,0.026 0.971,0.052 0.935,0.073 0.898,0.094 0.859,0.111 0.817,0.123 0.775,0.134 0.732,0.14 0.687,0.14 0.641,0.14 0.598,0.134 0.556,0.123 0.514,0.111 0.475,0.094 0.438,0.073 0.402,0.052 0.369,0.026 0.339,-0.004 0.309,-0.033 0.284,-0.067 0.262,-0.103 0.241,-0.139 0.225,-0.179 0.213,-0.22 0.201,-0.262 0.195,-0.306 0.195,-0.351 c 0,-0.045 0.006,-0.089 0.018,-0.131 0.012,-0.042 0.028,-0.081 0.049,-0.117 0.022,-0.037 0.047,-0.07 0.077,-0.099 0.03,-0.03 0.063,-0.056 0.099,-0.077 0.037,-0.021 0.076,-0.038 0.118,-0.05 0.042,-0.011 0.085,-0.017 0.131,-0.017 0.045,0 0.088,0.006 0.13,0.017 0.042,0.012 0.081,0.029 0.118,0.05 0.036,0.021 0.069,0.047 0.099,0.077 0.03,0.029 0.055,0.062 0.077,0.099 0.021,0.036 0.037,0.075 0.049,0.117 0.012,0.042 0.018,0.086 0.018,0.131 z"
         style="fill:#ffc83d;fill-rule:nonzero"
         id="path434" /><path
         d="m 0.915,-0.316 c 0.016,0 0.032,0.003 0.047,0.01 0.015,0.006 0.028,0.015 0.039,0.026 0.011,0.011 0.02,0.024 0.027,0.039 0.006,0.015 0.01,0.031 0.01,0.048 0,0.017 -0.004,0.033 -0.01,0.047 -0.007,0.015 -0.015,0.028 -0.027,0.04 C 0.99,-0.095 0.977,-0.087 0.962,-0.08 0.947,-0.074 0.931,-0.07 0.915,-0.07 H 0.458 C 0.442,-0.07 0.426,-0.074 0.411,-0.08 0.396,-0.087 0.383,-0.095 0.372,-0.106 0.361,-0.118 0.352,-0.131 0.345,-0.146 0.339,-0.16 0.335,-0.176 0.335,-0.193 c 0,-0.017 0.004,-0.033 0.01,-0.048 0.007,-0.015 0.016,-0.028 0.027,-0.039 0.011,-0.011 0.024,-0.02 0.039,-0.026 0.015,-0.007 0.031,-0.01 0.047,-0.01 z M 0.494,-0.421 C 0.486,-0.421 0.48,-0.423 0.473,-0.426 0.467,-0.428 0.461,-0.432 0.457,-0.437 0.452,-0.441 0.448,-0.447 0.445,-0.453 0.442,-0.459 0.441,-0.466 0.441,-0.474 v -0.07 c 0,-0.007 0.001,-0.014 0.004,-0.02 0.003,-0.007 0.007,-0.013 0.011,-0.017 0.005,-0.005 0.011,-0.009 0.017,-0.012 0.006,-0.002 0.013,-0.004 0.021,-0.004 0.007,0 0.014,0.002 0.02,0.004 0.006,0.003 0.012,0.007 0.017,0.012 0.005,0.005 0.008,0.01 0.011,0.017 0.003,0.006 0.004,0.013 0.004,0.02 v 0.07 c 0,0.008 -0.001,0.014 -0.004,0.021 -0.003,0.006 -0.006,0.012 -0.011,0.016 -0.005,0.005 -0.011,0.009 -0.017,0.011 -0.006,0.003 -0.013,0.005 -0.02,0.005 z m 0.385,0 c -0.007,0 -0.014,-0.002 -0.02,-0.005 C 0.853,-0.428 0.847,-0.432 0.843,-0.437 0.838,-0.441 0.834,-0.447 0.831,-0.453 0.829,-0.46 0.827,-0.466 0.827,-0.474 v -0.07 c 0,-0.007 0.002,-0.014 0.004,-0.02 0.003,-0.007 0.007,-0.012 0.011,-0.017 0.005,-0.005 0.01,-0.009 0.017,-0.012 0.006,-0.002 0.013,-0.004 0.02,-0.004 0.008,0 0.014,0.002 0.021,0.004 0.006,0.003 0.012,0.007 0.017,0.012 0.004,0.004 0.008,0.01 0.011,0.017 0.003,0.006 0.004,0.013 0.004,0.02 v 0.07 c 0,0.008 -0.001,0.015 -0.004,0.021 -0.003,0.006 -0.007,0.012 -0.011,0.016 -0.005,0.005 -0.011,0.009 -0.017,0.011 -0.007,0.003 -0.013,0.005 -0.021,0.005 z"
         style="fill-rule:nonzero"
         id="path436" /><path
         d="m 0.651,-0.176 h 0.071 v 0.071 H 0.651 Z m -0.105,0 h 0.07 v 0.071 H 0.546 Z M 0.651,-0.281 H 0.722 V -0.21 H 0.651 Z m -0.105,0 h 0.07 v 0.071 h -0.07 z m 0.369,0 c 0.005,0 0.011,0.001 0.017,0.002 v 0.069 h -0.07 v -0.071 z m -0.053,0.105 h 0.07 v 0.069 C 0.926,-0.106 0.92,-0.105 0.915,-0.105 H 0.862 Z m -0.421,0 h 0.07 v 0.071 H 0.458 c -0.005,0 -0.011,-0.001 -0.017,-0.002 z m 0,-0.103 C 0.447,-0.28 0.453,-0.281 0.458,-0.281 h 0.053 v 0.071 h -0.07 z m 0.316,-0.002 h 0.07 v 0.071 h -0.07 z m 0,0.105 h 0.07 v 0.071 h -0.07 z m 0.21,0 H 1 c -0.002,0.011 -0.006,0.02 -0.011,0.03 -0.006,0.009 -0.013,0.016 -0.022,0.023 z m 0,-0.087 c 0.009,0.006 0.016,0.014 0.022,0.023 0.005,0.009 0.009,0.019 0.011,0.03 H 0.967 Z m -0.561,0.14 C 0.397,-0.13 0.39,-0.137 0.385,-0.146 0.379,-0.156 0.375,-0.165 0.373,-0.176 H 0.406 Z M 0.373,-0.21 C 0.375,-0.221 0.379,-0.231 0.385,-0.24 0.39,-0.249 0.397,-0.257 0.406,-0.263 v 0.053 z"
         style="fill:#ffffff;fill-rule:nonzero"
         id="path438" /></g></g></svg>
