<?xml version="1.0" encoding="UTF-8" standalone="no"?>
<svg
   width="15.795"
   height="16.844999"
   viewBox="0 0 15.795 16.844999"
   version="1.1"
   xml:space="preserve"
   style="clip-rule:evenodd;fill-rule:evenodd;stroke-linejoin:round;stroke-miterlimit:2"
   id="svg20568"
   sodipodi:docname="emojis.svg"
   xmlns:inkscape="http://www.inkscape.org/namespaces/inkscape"
   xmlns:sodipodi="http://sodipodi.sourceforge.net/DTD/sodipodi-0.dtd"
   xmlns="http://www.w3.org/2000/svg"
   xmlns:svg="http://www.w3.org/2000/svg"><defs
     id="defs20572" /><sodipodi:namedview
     id="namedview20570"
     pagecolor="#505050"
     bordercolor="#eeeeee"
     borderopacity="1"
     inkscape:pageshadow="0"
     inkscape:pageopacity="0"
     inkscape:pagecheckerboard="0" /><g
     transform="matrix(0.24,0,0,0.24,-430.0422,-229.5114)"
     id="g20566"><g
       transform="matrix(62.5,0,0,62.5,1784.03,1013.36)"
       id="g4402"><path
         d="m 1.178,-0.913 v 0.071 c 0,0.036 -0.006,0.072 -0.019,0.106 -0.012,0.035 -0.029,0.066 -0.052,0.095 v 0.126 c 0.022,0.01 0.039,0.025 0.052,0.046 0.012,0.02 0.019,0.041 0.019,0.065 v 0.106 c 0,0.024 -0.007,0.047 -0.021,0.067 -0.013,0.02 -0.031,0.035 -0.053,0.045 C 1.099,-0.148 1.089,-0.112 1.076,-0.078 1.062,-0.043 1.045,-0.012 1.024,0.018 1.003,0.047 0.979,0.074 0.952,0.097 0.925,0.121 0.895,0.141 0.863,0.158 0.831,0.175 0.798,0.188 0.762,0.197 0.726,0.206 0.689,0.21 0.651,0.21 0.613,0.21 0.576,0.206 0.541,0.197 0.505,0.188 0.471,0.175 0.439,0.158 0.408,0.141 0.378,0.121 0.351,0.097 0.324,0.073 0.3,0.047 0.279,0.018 0.258,-0.012 0.241,-0.043 0.227,-0.078 0.213,-0.112 0.204,-0.148 0.199,-0.186 0.188,-0.19 0.178,-0.197 0.169,-0.205 0.16,-0.212 0.152,-0.221 0.146,-0.231 0.139,-0.241 0.134,-0.251 0.13,-0.263 0.127,-0.274 0.125,-0.286 0.125,-0.298 v -0.106 c 0,-0.024 0.006,-0.045 0.019,-0.065 0.013,-0.021 0.03,-0.036 0.051,-0.046 V -0.694 C 0.184,-0.704 0.176,-0.715 0.169,-0.729 0.163,-0.743 0.16,-0.757 0.16,-0.772 c 0,-0.014 0.003,-0.028 0.008,-0.041 0.006,-0.013 0.013,-0.024 0.023,-0.033 0.009,-0.01 0.021,-0.018 0.033,-0.023 0.013,-0.006 0.027,-0.008 0.041,-0.008 0.017,0 0.032,0.003 0.047,0.01 0.014,0.007 0.026,0.017 0.037,0.03 0.034,-0.025 0.07,-0.044 0.109,-0.057 0.04,-0.012 0.08,-0.019 0.123,-0.019 z"
         style="fill-rule:nonzero"
         id="path4388" /><path
         d="m 1.02,-0.457 h 0.035 c 0.007,0 0.014,0.002 0.02,0.005 0.007,0.002 0.012,0.006 0.017,0.011 0.005,0.005 0.009,0.011 0.011,0.017 0.003,0.006 0.004,0.013 0.004,0.02 v 0.106 c 0,0.009 -10e-4,0.018 -0.005,0.024 -0.004,0.007 -0.008,0.012 -0.015,0.016 -0.006,0.005 -0.013,0.008 -0.021,0.009 -0.007,0.002 -0.015,0.003 -0.024,0.003 H 1.038 c 0,0.036 -0.005,0.07 -0.014,0.103 C 1.014,-0.11 1.001,-0.08 0.985,-0.051 0.968,-0.023 0.948,0.003 0.924,0.027 0.901,0.051 0.875,0.071 0.846,0.088 0.818,0.104 0.787,0.117 0.754,0.126 0.721,0.136 0.687,0.14 0.651,0.14 0.616,0.14 0.582,0.136 0.549,0.126 0.516,0.117 0.485,0.104 0.457,0.088 0.428,0.071 0.402,0.051 0.378,0.027 0.355,0.003 0.335,-0.023 0.318,-0.051 0.301,-0.08 0.288,-0.11 0.279,-0.143 0.27,-0.176 0.265,-0.21 0.265,-0.246 H 0.26 C 0.251,-0.246 0.243,-0.247 0.235,-0.249 0.228,-0.25 0.221,-0.253 0.215,-0.258 0.209,-0.262 0.204,-0.267 0.201,-0.274 0.197,-0.28 0.195,-0.289 0.195,-0.298 v -0.106 c 0,-0.007 0.002,-0.014 0.004,-0.02 0.003,-0.006 0.007,-0.012 0.012,-0.017 0.005,-0.005 0.01,-0.009 0.017,-0.011 0.006,-0.003 0.013,-0.005 0.02,-0.005 h 0.029 c 0,-0.037 0.005,-0.07 0.014,-0.1 0.01,-0.03 0.022,-0.056 0.039,-0.079 0.016,-0.023 0.036,-0.043 0.059,-0.06 0.023,-0.016 0.049,-0.03 0.076,-0.04 0.028,-0.011 0.058,-0.019 0.089,-0.024 0.031,-0.005 0.064,-0.008 0.097,-0.008 0.05,0 0.098,0.006 0.142,0.018 0.045,0.012 0.084,0.03 0.118,0.055 0.033,0.025 0.06,0.057 0.079,0.097 0.02,0.039 0.03,0.086 0.03,0.141 z"
         style="fill:#ffc83d;fill-rule:nonzero"
         id="path4390" /><path
         d="M 0.967,-0.421 V -0.597 H 0.335 v 0.176 h -0.07 v -0.07 C 0.273,-0.497 0.28,-0.503 0.285,-0.511 0.291,-0.519 0.293,-0.528 0.293,-0.539 0.293,-0.55 0.291,-0.56 0.285,-0.57 0.279,-0.58 0.272,-0.589 0.265,-0.597 0.275,-0.633 0.29,-0.666 0.31,-0.696 0.33,-0.726 0.354,-0.752 0.381,-0.773 0.409,-0.795 0.44,-0.812 0.474,-0.824 0.507,-0.836 0.543,-0.842 0.581,-0.842 h 0.526 c 0,0.025 -0.003,0.05 -0.011,0.075 -0.008,0.025 -0.019,0.048 -0.034,0.069 -0.004,0.006 -0.008,0.011 -0.012,0.016 -0.004,0.004 -0.008,0.009 -0.012,0.015 -0.018,0.024 -0.027,0.051 -0.027,0.082 0,0.016 0.003,0.032 0.008,0.048 0.005,0.016 0.011,0.031 0.019,0.046 v 0.07 z"
         style="fill:#8e562e;fill-rule:nonzero"
         id="path4392" /><path
         d="m 1.038,-0.807 c 0.009,0 0.017,0.003 0.024,0.01 0.007,0.007 0.011,0.016 0.011,0.025 0,0.009 -0.004,0.018 -0.011,0.024 -0.007,0.007 -0.015,0.011 -0.024,0.011 v 0.246 H 0.265 V -0.737 C 0.256,-0.737 0.248,-0.741 0.241,-0.748 0.234,-0.754 0.23,-0.763 0.23,-0.772 c 0,-0.009 0.004,-0.018 0.011,-0.025 0.007,-0.007 0.015,-0.01 0.024,-0.01 0.01,0 0.018,0.003 0.025,0.01 0.007,0.007 0.01,0.015 0.01,0.025 0,0.006 -0.001,0.011 -0.004,0.015 -0.002,0.005 -0.006,0.009 -0.01,0.012 l 0.085,0.113 H 0.406 L 0.49,-0.745 C 0.486,-0.748 0.483,-0.752 0.48,-0.757 0.477,-0.761 0.476,-0.766 0.476,-0.772 c 0,-0.01 0.003,-0.018 0.01,-0.025 0.007,-0.007 0.015,-0.01 0.025,-0.01 0.01,0 0.018,0.003 0.025,0.01 0.006,0.007 0.01,0.016 0.01,0.025 0,0.006 -0.001,0.011 -0.004,0.015 -0.003,0.005 -0.006,0.009 -0.01,0.012 l 0.084,0.113 H 0.687 L 0.771,-0.745 C 0.767,-0.748 0.763,-0.752 0.761,-0.757 0.758,-0.761 0.757,-0.766 0.757,-0.772 c 0,-0.01 0.003,-0.018 0.01,-0.025 0.007,-0.007 0.015,-0.01 0.025,-0.01 0.009,0 0.018,0.003 0.024,0.01 0.007,0.007 0.011,0.016 0.011,0.025 0,0.006 -0.002,0.011 -0.004,0.015 -0.003,0.005 -0.006,0.009 -0.011,0.012 l 0.085,0.113 H 0.932 L 1.017,-0.745 C 1.012,-0.748 1.009,-0.752 1.006,-0.757 1.004,-0.761 1.002,-0.766 1.002,-0.772 c 0,-0.01 0.004,-0.018 0.011,-0.025 0.007,-0.007 0.015,-0.01 0.025,-0.01 z"
         style="fill:#fff100;fill-rule:nonzero"
         id="path4394" /><path
         d="m 0.406,-0.597 c 0.01,0 0.018,0.004 0.025,0.011 0.006,0.006 0.01,0.015 0.01,0.024 0,0.01 -0.004,0.019 -0.01,0.025 -0.007,0.007 -0.015,0.011 -0.025,0.011 -0.01,0 -0.018,-0.004 -0.025,-0.011 -0.007,-0.006 -0.01,-0.015 -0.01,-0.025 0,-0.009 0.003,-0.018 0.01,-0.024 0.007,-0.007 0.015,-0.011 0.025,-0.011 z m 0.245,0 c 0.01,0 0.018,0.004 0.025,0.011 0.007,0.006 0.011,0.015 0.011,0.024 0,0.01 -0.004,0.019 -0.011,0.025 -0.007,0.007 -0.015,0.011 -0.025,0.011 -0.009,0 -0.018,-0.004 -0.025,-0.011 -0.006,-0.006 -0.01,-0.015 -0.01,-0.025 0,-0.009 0.004,-0.018 0.01,-0.024 0.007,-0.007 0.016,-0.011 0.025,-0.011 z m 0.246,0 c 0.01,0 0.018,0.004 0.025,0.011 0.007,0.006 0.01,0.015 0.01,0.024 0,0.01 -0.003,0.019 -0.01,0.025 -0.007,0.007 -0.015,0.011 -0.025,0.011 -0.009,0 -0.018,-0.004 -0.025,-0.011 -0.007,-0.007 -0.01,-0.015 -0.01,-0.025 0,-0.009 0.003,-0.017 0.01,-0.024 0.007,-0.007 0.016,-0.011 0.025,-0.011 z"
         style="fill:#0099bc;fill-rule:nonzero"
         id="path4396" /><path
         d="M 0.651,-0.176 C 0.642,-0.176 0.632,-0.178 0.624,-0.181 0.616,-0.185 0.608,-0.19 0.602,-0.196 0.595,-0.202 0.59,-0.21 0.587,-0.218 0.583,-0.227 0.581,-0.236 0.581,-0.246 h 0.141 c 0,0.01 -0.002,0.019 -0.006,0.028 C 0.712,-0.21 0.707,-0.202 0.701,-0.196 0.695,-0.19 0.687,-0.185 0.679,-0.181 0.67,-0.178 0.661,-0.176 0.651,-0.176 Z m 0.141,0.071 c 0.009,0 0.018,0.003 0.025,0.01 0.007,0.007 0.01,0.015 0.01,0.025 0,0.008 -0.003,0.016 -0.01,0.023 C 0.81,-0.041 0.801,-0.035 0.79,-0.029 0.779,-0.024 0.767,-0.02 0.754,-0.016 0.74,-0.012 0.727,-0.009 0.714,-0.007 0.701,-0.005 0.689,-0.003 0.678,-0.002 0.667,-0.001 0.658,0 0.651,0 0.645,0 0.636,-0.001 0.625,-0.002 0.614,-0.003 0.602,-0.005 0.589,-0.007 0.576,-0.009 0.563,-0.012 0.549,-0.016 0.536,-0.02 0.523,-0.024 0.512,-0.029 0.502,-0.035 0.493,-0.041 0.486,-0.047 0.479,-0.054 0.476,-0.062 0.476,-0.07 c 0,-0.01 0.003,-0.018 0.01,-0.025 0.007,-0.007 0.015,-0.01 0.025,-0.01 0.003,0 0.006,0 0.008,0.001 0.003,0.001 0.006,0.002 0.008,0.003 0.011,0.004 0.021,0.009 0.031,0.012 0.01,0.004 0.02,0.007 0.03,0.01 0.01,0.003 0.02,0.005 0.03,0.006 0.011,0.001 0.022,0.002 0.033,0.002 0.012,0 0.023,-0.001 0.034,-0.002 0.01,-0.001 0.02,-0.003 0.03,-0.006 0.01,-0.003 0.02,-0.006 0.03,-0.01 0.009,-0.003 0.02,-0.008 0.03,-0.012 0.003,-10e-4 0.006,-0.002 0.008,-0.003 0.003,-0.001 0.006,-0.001 0.009,-0.001 z"
         style="fill:#f7894a;fill-rule:nonzero"
         id="path4398" /><path
         d="m 0.458,-0.456 c 0.008,0 0.014,0.001 0.021,0.004 0.006,0.003 0.012,0.007 0.017,0.011 0.004,0.005 0.008,0.011 0.011,0.017 0.003,0.006 0.004,0.013 0.004,0.02 v 0.071 c 0,0.007 -0.001,0.013 -0.004,0.02 -0.003,0.006 -0.007,0.012 -0.011,0.017 -0.005,0.004 -0.011,0.008 -0.017,0.011 -0.007,0.003 -0.013,0.004 -0.021,0.004 -0.007,0 -0.014,-10e-4 -0.02,-0.004 C 0.431,-0.288 0.426,-0.291 0.421,-0.296 0.416,-0.301 0.413,-0.306 0.41,-0.313 0.407,-0.319 0.406,-0.326 0.406,-0.333 v -0.071 c 0,-0.007 10e-4,-0.014 0.004,-0.02 0.003,-0.007 0.007,-0.012 0.011,-0.017 0.005,-0.004 0.011,-0.008 0.017,-0.011 0.007,-0.003 0.013,-0.004 0.02,-0.004 z m 0.386,0 c 0.007,0 0.014,0.001 0.021,0.004 0.006,0.003 0.011,0.007 0.016,0.011 0.005,0.005 0.009,0.01 0.012,0.017 0.003,0.006 0.004,0.013 0.004,0.02 v 0.071 c 0,0.007 -0.001,0.014 -0.004,0.02 C 0.89,-0.306 0.886,-0.301 0.882,-0.296 0.877,-0.291 0.871,-0.288 0.865,-0.285 0.858,-0.282 0.851,-0.281 0.844,-0.281 0.837,-0.281 0.83,-0.282 0.823,-0.285 0.817,-0.288 0.812,-0.292 0.807,-0.296 0.803,-0.301 0.799,-0.307 0.796,-0.313 0.793,-0.32 0.792,-0.326 0.792,-0.333 v -0.071 c 0,-0.007 0.001,-0.014 0.004,-0.02 0.003,-0.006 0.007,-0.012 0.011,-0.017 0.005,-0.004 0.011,-0.008 0.017,-0.011 0.006,-0.003 0.013,-0.004 0.02,-0.004 z"
         style="fill-rule:nonzero"
         id="path4400" /></g></g></svg>
