<?xml version="1.0" encoding="UTF-8" standalone="no"?>
<svg
   width="16.844999"
   height="16.844999"
   viewBox="0 0 16.844999 16.844999"
   version="1.1"
   xml:space="preserve"
   style="clip-rule:evenodd;fill-rule:evenodd;stroke-linejoin:round;stroke-miterlimit:2"
   id="svg20568"
   sodipodi:docname="emojis.svg"
   xmlns:inkscape="http://www.inkscape.org/namespaces/inkscape"
   xmlns:sodipodi="http://sodipodi.sourceforge.net/DTD/sodipodi-0.dtd"
   xmlns="http://www.w3.org/2000/svg"
   xmlns:svg="http://www.w3.org/2000/svg"><defs
     id="defs20572" /><sodipodi:namedview
     id="namedview20570"
     pagecolor="#505050"
     bordercolor="#eeeeee"
     borderopacity="1"
     inkscape:pageshadow="0"
     inkscape:pageopacity="0"
     inkscape:pagecheckerboard="0" /><g
     transform="matrix(0.24,0,0,0.24,-470.187,-229.5114)"
     id="g20566"><g
       transform="matrix(62.5,0,0,62.5,1951.3,1013.36)"
       id="g4438"><path
         d="M 0.581,0.21 C 0.533,0.21 0.487,0.201 0.445,0.183 0.402,0.164 0.365,0.139 0.333,0.107 0.302,0.076 0.276,0.038 0.258,-0.004 0.24,-0.047 0.23,-0.092 0.23,-0.141 V -0.187 C 0.209,-0.198 0.192,-0.213 0.179,-0.233 0.167,-0.253 0.16,-0.275 0.16,-0.298 V -0.341 C 0.147,-0.367 0.138,-0.394 0.133,-0.423 0.128,-0.451 0.125,-0.48 0.125,-0.509 c 0,-0.037 0.005,-0.072 0.015,-0.106 0.009,-0.035 0.023,-0.067 0.041,-0.097 0.017,-0.03 0.038,-0.057 0.063,-0.082 0.024,-0.024 0.052,-0.045 0.082,-0.063 0.03,-0.018 0.062,-0.031 0.096,-0.041 0.034,-0.01 0.07,-0.015 0.107,-0.015 h 0.315 c 0.037,0 0.073,0.005 0.108,0.015 0.034,0.009 0.066,0.023 0.096,0.041 0.03,0.017 0.057,0.038 0.082,0.063 0.024,0.024 0.045,0.052 0.063,0.081 0.017,0.03 0.031,0.062 0.041,0.097 0.009,0.034 0.014,0.07 0.014,0.107 0,0.029 -0.003,0.058 -0.008,0.086 -0.006,0.029 -0.015,0.056 -0.027,0.082 v 0.043 c 0,0.023 -0.006,0.045 -0.019,0.065 -0.013,0.02 -0.03,0.035 -0.051,0.046 v 0.046 c 0,0.033 -0.005,0.064 -0.013,0.094 C 1.122,-0.017 1.11,0.01 1.095,0.036 1.079,0.062 1.061,0.086 1.04,0.107 1.018,0.129 0.995,0.147 0.969,0.162 0.943,0.177 0.915,0.189 0.885,0.198 0.855,0.206 0.824,0.21 0.792,0.21 Z"
         style="fill-rule:nonzero"
         id="path4422" /><path
         d="m 1.178,-0.49 c 0,0.002 -10e-4,0.004 -10e-4,0.008 -0.006,0.005 -0.011,0.011 -0.015,0.016 -0.003,0.006 -0.006,0.011 -0.008,0.018 -0.002,0.006 -0.003,0.012 -0.004,0.019 -10e-4,0.006 -10e-4,0.013 -10e-4,0.021 0,0.011 10e-4,0.022 0.003,0.033 -0.002,0.004 -0.004,0.008 -0.006,0.012 -0.003,0.004 -0.005,0.008 -0.008,0.012 H 0.235 C 0.229,-0.36 0.223,-0.37 0.219,-0.38 0.214,-0.391 0.21,-0.402 0.207,-0.414 0.204,-0.426 0.202,-0.438 0.2,-0.449 0.198,-0.461 0.197,-0.472 0.196,-0.482 0.204,-0.49 0.21,-0.497 0.215,-0.505 0.219,-0.512 0.223,-0.52 0.226,-0.528 0.228,-0.536 0.23,-0.544 0.231,-0.553 0.232,-0.562 0.232,-0.571 0.232,-0.582 0.232,-0.588 0.23,-0.594 0.225,-0.599 0.22,-0.604 0.215,-0.608 0.211,-0.611 0.222,-0.646 0.238,-0.677 0.259,-0.706 0.28,-0.734 0.304,-0.758 0.332,-0.779 0.36,-0.799 0.391,-0.815 0.424,-0.826 0.458,-0.837 0.493,-0.842 0.529,-0.842 h 0.108 l 0.07,0.028 0.137,-0.028 h 0.014 c 0.012,0 0.025,0.001 0.038,0.003 0.013,0.002 0.025,0.005 0.038,0.009 0.013,0.003 0.025,0.008 0.037,0.013 0.013,0.005 0.024,0.01 0.034,0.016 0.003,0.01 0.006,0.018 0.009,0.025 0.004,0.008 0.008,0.015 0.013,0.021 0.005,0.007 0.01,0.013 0.016,0.02 0.005,0.006 0.011,0.012 0.017,0.019 0.016,0.019 0.032,0.037 0.049,0.054 0.017,0.017 0.034,0.034 0.053,0.05 0.006,0.02 0.01,0.04 0.013,0.06 0.002,0.02 0.003,0.041 0.003,0.062 z"
         style="fill:#ffffff;fill-rule:nonzero"
         id="path4424" /><path
         d="m 0.844,-0.842 h 0.014 l -0.662,0.36 c 0,-0.005 0,-0.009 0,-0.014 C 0.195,-0.5 0.195,-0.504 0.195,-0.509 c 0,-0.017 0.002,-0.035 0.004,-0.052 0.003,-0.017 0.007,-0.034 0.012,-0.05 l 0.426,-0.231 z m 0.333,0.36 C 1.175,-0.464 1.172,-0.446 1.169,-0.428 1.165,-0.41 1.159,-0.392 1.152,-0.375 L 1.143,-0.38 0.874,-0.471 0.687,-0.628 0.798,-0.688 Z M 1.005,-0.801 c 0.038,0.021 0.07,0.047 0.097,0.08 0.026,0.032 0.046,0.069 0.059,0.11 L 0.909,-0.749 Z"
         style="fill:#e5e5e5;fill-rule:nonzero"
         id="path4426" /><path
         d="M 1.035,-0.42 1.073,-0.457 H 1.09 c 0.007,0 0.014,0.002 0.021,0.005 0.006,0.002 0.011,0.006 0.016,0.011 0.005,0.005 0.009,0.011 0.011,0.017 0.003,0.006 0.005,0.013 0.005,0.02 v 0.106 c 0,0.007 -0.002,0.014 -0.005,0.02 -0.002,0.006 -0.006,0.012 -0.011,0.017 -0.005,0.005 -0.01,0.008 -0.016,0.011 -0.007,0.003 -0.014,0.004 -0.021,0.004 H 1.073 c 0,0.037 -0.005,0.071 -0.014,0.102 -0.01,0.032 -0.023,0.061 -0.04,0.087 C 1.002,-0.031 0.981,-0.008 0.958,0.012 0.934,0.033 0.908,0.05 0.879,0.064 0.85,0.078 0.82,0.089 0.787,0.096 0.755,0.103 0.721,0.107 0.687,0.107 0.652,0.107 0.618,0.103 0.586,0.096 0.553,0.089 0.523,0.078 0.494,0.064 0.465,0.05 0.439,0.033 0.416,0.012 0.392,-0.008 0.371,-0.031 0.354,-0.057 0.337,-0.083 0.324,-0.112 0.314,-0.144 0.305,-0.175 0.3,-0.209 0.3,-0.246 H 0.283 C 0.276,-0.246 0.269,-0.247 0.262,-0.25 0.256,-0.253 0.251,-0.256 0.246,-0.261 0.241,-0.266 0.237,-0.272 0.235,-0.278 0.232,-0.284 0.23,-0.291 0.23,-0.298 v -0.106 c 0,-0.007 0.002,-0.014 0.005,-0.02 0.002,-0.006 0.006,-0.012 0.011,-0.017 0.005,-0.005 0.01,-0.009 0.016,-0.011 0.007,-0.003 0.014,-0.005 0.021,-0.005 h 0.088 l 0.316,-0.171 0.315,0.171 c 0.005,0.007 0.01,0.013 0.016,0.019 0.006,0.006 0.012,0.012 0.017,0.018 z"
         style="fill:#ffc83d;fill-rule:nonzero"
         id="path4428" /><path
         d="m 1.073,-0.457 v 0.316 c 0,0.039 -0.008,0.075 -0.022,0.11 C 1.036,0.003 1.016,0.032 0.99,0.058 0.965,0.083 0.935,0.103 0.901,0.118 0.867,0.133 0.83,0.14 0.792,0.14 H 0.581 C 0.542,0.14 0.506,0.133 0.472,0.118 0.438,0.103 0.408,0.083 0.383,0.058 0.357,0.032 0.337,0.003 0.323,-0.031 0.308,-0.066 0.3,-0.102 0.3,-0.141 v -0.316 h 0.071 v 0.281 c 0,0.01 0.001,0.019 0.005,0.028 0.004,0.008 0.009,0.016 0.015,0.022 0.006,0.007 0.014,0.012 0.022,0.015 0.009,0.004 0.018,0.006 0.028,0.006 0,-0.01 0.002,-0.019 0.005,-0.028 0.004,-0.008 0.009,-0.016 0.015,-0.022 0.007,-0.006 0.014,-0.011 0.023,-0.015 0.008,-0.004 0.017,-0.006 0.027,-0.006 h 0.351 c 0.01,0 0.019,0.002 0.027,0.006 0.009,0.004 0.016,0.009 0.022,0.015 0.007,0.006 0.012,0.014 0.016,0.022 0.003,0.009 0.005,0.018 0.005,0.028 0.01,0 0.019,-0.002 0.027,-0.006 0.009,-0.003 0.016,-0.008 0.023,-0.015 0.006,-0.006 0.011,-0.014 0.015,-0.022 0.004,-0.009 0.005,-0.018 0.005,-0.028 v -0.281 z"
         style="fill:#8e562e;fill-rule:nonzero"
         id="path4430" /><path
         d="m 0.827,-0.105 c 0.01,0 0.018,0.003 0.025,0.01 0.007,0.007 0.01,0.015 0.01,0.025 0,0.008 -0.003,0.016 -0.01,0.023 -0.007,0.006 -0.016,0.012 -0.027,0.018 -0.01,0.005 -0.023,0.009 -0.036,0.013 -0.014,0.004 -0.027,0.007 -0.04,0.009 C 0.736,-0.005 0.724,-0.003 0.713,-0.002 0.702,-0.001 0.693,0 0.687,0 0.68,0 0.671,-0.001 0.66,-0.002 0.649,-0.003 0.637,-0.005 0.624,-0.007 0.611,-0.009 0.598,-0.012 0.584,-0.016 0.571,-0.02 0.559,-0.024 0.548,-0.029 0.537,-0.035 0.528,-0.041 0.521,-0.047 0.514,-0.054 0.511,-0.062 0.511,-0.07 c 0,-0.01 0.003,-0.018 0.01,-0.025 0.007,-0.007 0.015,-0.01 0.025,-0.01 0.003,0 0.006,0 0.008,0.001 0.003,0.001 0.006,0.002 0.009,0.003 0.01,0.004 0.02,0.009 0.03,0.012 0.01,0.004 0.02,0.007 0.03,0.01 0.01,0.003 0.02,0.005 0.03,0.006 0.011,0.001 0.022,0.002 0.034,0.002 0.011,0 0.022,-0.001 0.033,-0.002 0.01,-0.001 0.02,-0.003 0.03,-0.006 0.01,-0.003 0.02,-0.006 0.03,-0.01 0.01,-0.003 0.02,-0.008 0.031,-0.012 0.002,-10e-4 0.005,-0.002 0.008,-0.003 0.002,-0.001 0.005,-0.001 0.008,-0.001 z"
         style="fill:#f7894a;fill-rule:nonzero"
         id="path4432" /><path
         d="m 0.687,-0.176 c -0.01,0 -0.019,-0.002 -0.028,-0.005 C 0.651,-0.185 0.643,-0.19 0.637,-0.196 0.631,-0.202 0.626,-0.21 0.622,-0.218 0.618,-0.227 0.616,-0.236 0.616,-0.246 h 0.141 c 0,0.01 -0.002,0.019 -0.006,0.028 C 0.747,-0.21 0.742,-0.202 0.736,-0.196 0.73,-0.19 0.722,-0.185 0.714,-0.181 0.705,-0.178 0.696,-0.176 0.687,-0.176 Z"
         style="fill:#f7894a;fill-rule:nonzero"
         id="path4434" /><path
         d="m 0.494,-0.456 c 0.007,0 0.014,0.001 0.02,0.004 0.006,0.003 0.012,0.007 0.017,0.011 0.004,0.005 0.008,0.011 0.011,0.017 0.003,0.006 0.004,0.013 0.004,0.02 v 0.071 c 0,0.007 -0.001,0.013 -0.004,0.02 -0.003,0.006 -0.007,0.012 -0.011,0.017 -0.005,0.004 -0.01,0.008 -0.017,0.011 -0.006,0.003 -0.013,0.004 -0.02,0.004 -0.008,0 -0.015,-10e-4 -0.021,-0.004 C 0.467,-0.288 0.461,-0.291 0.456,-0.296 0.452,-0.301 0.448,-0.306 0.445,-0.313 0.442,-0.319 0.441,-0.326 0.441,-0.333 v -0.071 c 0,-0.007 0.001,-0.014 0.004,-0.02 0.003,-0.007 0.007,-0.012 0.012,-0.017 0.004,-0.004 0.01,-0.008 0.016,-0.011 0.007,-0.003 0.013,-0.004 0.021,-0.004 z m 0.385,0 c 0.008,0 0.014,0.001 0.021,0.004 0.006,0.003 0.012,0.007 0.017,0.011 0.004,0.005 0.008,0.01 0.011,0.017 0.003,0.006 0.004,0.013 0.004,0.02 v 0.071 c 0,0.007 -0.001,0.014 -0.004,0.02 -0.003,0.007 -0.007,0.012 -0.011,0.017 -0.005,0.005 -0.011,0.008 -0.017,0.011 -0.007,0.003 -0.013,0.004 -0.021,0.004 -0.007,0 -0.014,-10e-4 -0.02,-0.004 C 0.853,-0.288 0.847,-0.292 0.842,-0.296 0.837,-0.301 0.834,-0.307 0.831,-0.313 0.828,-0.32 0.827,-0.326 0.827,-0.333 v -0.071 c 0,-0.007 0.001,-0.014 0.004,-0.02 0.003,-0.006 0.006,-0.012 0.011,-0.017 0.005,-0.004 0.011,-0.008 0.017,-0.011 0.006,-0.003 0.013,-0.004 0.02,-0.004 z"
         style="fill-rule:nonzero"
         id="path4436" /></g></g></svg>
