<?xml version="1.0" encoding="UTF-8" standalone="no"?>
<svg
   width="13.695"
   height="16.844999"
   viewBox="0 0 13.695 16.844999"
   version="1.1"
   xml:space="preserve"
   style="clip-rule:evenodd;fill-rule:evenodd;stroke-linejoin:round;stroke-miterlimit:2"
   id="svg20568"
   sodipodi:docname="emojis.svg"
   xmlns:inkscape="http://www.inkscape.org/namespaces/inkscape"
   xmlns:sodipodi="http://sodipodi.sourceforge.net/DTD/sodipodi-0.dtd"
   xmlns="http://www.w3.org/2000/svg"
   xmlns:svg="http://www.w3.org/2000/svg"><defs
     id="defs20572" /><sodipodi:namedview
     id="namedview20570"
     pagecolor="#505050"
     bordercolor="#eeeeee"
     borderopacity="1"
     inkscape:pageshadow="0"
     inkscape:pageopacity="0"
     inkscape:pagecheckerboard="0" /><g
     transform="matrix(0.24,0,0,0.24,-551.5206,-229.5114)"
     id="g20566"><g
       transform="matrix(62.5,0,0,62.5,2290.19,1013.36)"
       id="g4510"><path
         d="m 0.967,-0.17 c 0.023,0.027 0.04,0.058 0.052,0.091 0.012,0.033 0.019,0.067 0.019,0.102 V 0.21 H 0.125 V 0.023 c 0,-0.035 0.006,-0.069 0.018,-0.102 0.012,-0.033 0.03,-0.064 0.052,-0.091 v -0.356 c 0,-0.036 0.005,-0.07 0.014,-0.103 0.009,-0.033 0.022,-0.064 0.039,-0.092 0.017,-0.029 0.037,-0.055 0.06,-0.078 0.024,-0.024 0.05,-0.044 0.078,-0.061 0.029,-0.016 0.06,-0.029 0.093,-0.039 0.032,-0.009 0.067,-0.014 0.102,-0.014 0.036,0 0.07,0.005 0.103,0.014 0.032,0.01 0.063,0.023 0.092,0.039 0.028,0.017 0.054,0.037 0.078,0.061 0.023,0.023 0.044,0.049 0.06,0.078 0.017,0.028 0.03,0.059 0.039,0.092 0.009,0.033 0.014,0.067 0.014,0.103 z"
         style="fill-rule:nonzero"
         id="path4494" /><path
         d="M 0.967,0.14 H 0.195 V 0.023 c 0,-0.032 0.006,-0.062 0.019,-0.091 0.012,-0.028 0.029,-0.053 0.05,-0.074 C 0.285,-0.163 0.31,-0.18 0.339,-0.192 0.367,-0.204 0.397,-0.21 0.43,-0.21 h 0.303 c 0.032,0 0.062,0.006 0.091,0.018 0.028,0.012 0.053,0.029 0.075,0.05 0.021,0.021 0.038,0.046 0.05,0.074 0.012,0.029 0.018,0.059 0.018,0.091 z"
         style="fill:#383838;fill-rule:nonzero"
         id="path4496" /><path
         d="M 0.664,-0.074 0.383,0.042 C 0.369,0.032 0.355,0.02 0.341,0.007 0.327,-0.007 0.315,-0.021 0.303,-0.037 0.292,-0.053 0.283,-0.07 0.276,-0.087 0.269,-0.105 0.265,-0.122 0.265,-0.141 v -0.385 c 0,-0.029 0.004,-0.057 0.011,-0.084 0.008,-0.027 0.019,-0.053 0.032,-0.076 0.014,-0.023 0.031,-0.044 0.05,-0.064 0.019,-0.019 0.04,-0.035 0.064,-0.049 0.023,-0.014 0.048,-0.025 0.075,-0.032 0.027,-0.008 0.055,-0.011 0.084,-0.011 0.044,0 0.085,0.008 0.123,0.025 0.038,0.016 0.072,0.039 0.1,0.067 0.029,0.029 0.051,0.062 0.068,0.101 0.016,0.038 0.024,0.079 0.024,0.123 V -0.4 Z"
         style="fill:#f7d7c4;fill-rule:nonzero"
         id="path4498" /><path
         d="m 0.584,-0.702 c 0.034,0 0.066,0.006 0.097,0.016 0.031,0.01 0.06,0.025 0.086,0.044 0.026,0.019 0.048,0.041 0.068,0.068 0.019,0.026 0.035,0.055 0.045,0.087 0.005,0.013 0.009,0.028 0.012,0.043 0.003,0.015 0.004,0.029 0.004,0.044 v 0.259 c 0,0.025 -0.006,0.05 -0.018,0.073 C 0.866,-0.045 0.851,-0.024 0.832,-0.005 0.813,0.015 0.792,0.032 0.77,0.047 0.747,0.062 0.725,0.073 0.704,0.082 0.685,0.089 0.664,0.095 0.644,0.099 0.623,0.103 0.602,0.105 0.581,0.105 0.546,0.105 0.511,0.099 0.477,0.088 0.444,0.077 0.412,0.062 0.383,0.042 l 0.198,-0.198 c 0.007,-0.031 0.013,-0.064 0.02,-0.099 0.006,-0.034 0.012,-0.069 0.017,-0.105 0.005,-0.035 0.009,-0.07 0.012,-0.105 0.003,-0.034 0.004,-0.067 0.004,-0.099 0,-0.005 0,-0.012 0,-0.021 0,-0.009 -0.001,-0.019 -0.002,-0.029 C 0.631,-0.624 0.63,-0.634 0.628,-0.645 0.626,-0.655 0.623,-0.665 0.619,-0.673 0.616,-0.682 0.611,-0.689 0.605,-0.694 0.599,-0.699 0.592,-0.702 0.584,-0.702 Z"
         style="fill:#d8b094;fill-rule:nonzero"
         id="path4500" /><path
         d="m 0.792,-0.492 v 0.035 c 0,0.029 -0.005,0.056 -0.016,0.082 C 0.765,-0.349 0.749,-0.326 0.729,-0.306 0.72,-0.297 0.709,-0.289 0.697,-0.28 0.685,-0.271 0.672,-0.262 0.659,-0.254 0.645,-0.246 0.632,-0.238 0.618,-0.23 0.605,-0.223 0.593,-0.216 0.582,-0.21 0.571,-0.216 0.559,-0.223 0.545,-0.231 0.531,-0.239 0.517,-0.247 0.503,-0.256 0.489,-0.265 0.476,-0.274 0.463,-0.283 0.45,-0.292 0.44,-0.3 0.432,-0.309 0.412,-0.328 0.397,-0.351 0.387,-0.376 0.376,-0.402 0.371,-0.429 0.371,-0.457 v -0.008 c 0,-0.017 0.001,-0.032 0.002,-0.047 0.001,-0.014 0.003,-0.028 0.007,-0.041 0.003,-0.014 0.009,-0.027 0.016,-0.04 0.007,-0.012 0.017,-0.025 0.028,-0.039 l 0.157,-0.035 0.157,0.035 c 0.017,0.019 0.031,0.041 0.04,0.065 0.009,0.024 0.014,0.049 0.014,0.075 z"
         style="fill:#ffc83d;fill-rule:nonzero"
         id="path4502" /><path
         d="m 0.424,-0.632 c 0.02,-0.022 0.044,-0.039 0.071,-0.051 0.027,-0.013 0.055,-0.019 0.085,-0.019 0.031,0 0.059,0.006 0.087,0.018 0.027,0.012 0.05,0.03 0.071,0.052 z m 0.158,0.386 c 0.027,0 0.053,-0.005 0.077,-0.015 0.025,-0.01 0.048,-0.024 0.067,-0.043 l -0.145,0.148 -0.15,-0.153 c 0.02,0.021 0.043,0.036 0.069,0.047 0.026,0.011 0.053,0.016 0.082,0.016 z"
         style="fill:#bb9167;fill-rule:nonzero"
         id="path4504" /><path
         d="M 0.581,-0.316 C 0.576,-0.316 0.57,-0.317 0.562,-0.319 0.554,-0.32 0.546,-0.323 0.539,-0.326 0.531,-0.33 0.525,-0.334 0.519,-0.339 0.514,-0.344 0.511,-0.349 0.511,-0.355 c 0,-0.005 0.001,-0.008 0.005,-0.012 0.003,-0.003 0.007,-0.005 0.012,-0.005 0.003,0 0.006,0.002 0.009,0.004 0.003,0.002 0.006,0.005 0.01,0.007 0.004,0.003 0.009,0.005 0.014,0.007 0.006,0.003 0.012,0.004 0.02,0.004 0.008,0 0.014,-0.001 0.02,-0.004 0.005,-0.002 0.01,-0.004 0.014,-0.007 0.004,-0.002 0.008,-0.005 0.011,-0.007 0.003,-0.002 0.006,-0.004 0.009,-0.004 0.004,0 0.008,0.002 0.011,0.005 0.004,0.004 0.005,0.007 0.005,0.012 0,0.006 -0.002,0.012 -0.008,0.016 C 0.638,-0.334 0.631,-0.33 0.624,-0.326 0.616,-0.323 0.608,-0.32 0.6,-0.319 0.592,-0.317 0.586,-0.316 0.581,-0.316 Z m 0.035,-0.141 c 0,0.01 -0.003,0.018 -0.01,0.025 -0.007,0.007 -0.015,0.011 -0.024,0.011 -0.01,0 -0.019,-0.004 -0.025,-0.011 C 0.55,-0.438 0.546,-0.447 0.546,-0.457 Z"
         style="fill:#f7894a;fill-rule:nonzero"
         id="path4506" /><path
         d="m 0.476,-0.562 c 0.01,0 0.018,0.004 0.025,0.011 0.007,0.007 0.01,0.015 0.01,0.025 v 0.035 c 0,0.009 -0.003,0.017 -0.01,0.024 -0.007,0.007 -0.015,0.01 -0.025,0.01 -0.009,0 -0.018,-0.003 -0.025,-0.01 -0.007,-0.007 -0.01,-0.015 -0.01,-0.024 v -0.035 c 0,-0.01 0.003,-0.018 0.01,-0.025 0.007,-0.007 0.015,-0.011 0.025,-0.011 z m 0.211,0 c 0.009,0 0.018,0.004 0.024,0.011 0.007,0.007 0.011,0.015 0.011,0.025 v 0.035 c 0,0.009 -0.004,0.017 -0.011,0.024 -0.007,0.007 -0.015,0.01 -0.024,0.01 -0.01,0 -0.018,-0.003 -0.025,-0.01 C 0.655,-0.474 0.651,-0.482 0.651,-0.491 v -0.035 c 0,-0.01 0.004,-0.018 0.011,-0.025 0.006,-0.007 0.015,-0.011 0.025,-0.011 z"
         style="fill-rule:nonzero"
         id="path4508" /></g></g></svg>
