<?xml version="1.0" encoding="UTF-8" standalone="no"?>
<svg
   width="9.4799995"
   height="16.844999"
   viewBox="0 0 9.4799995 16.844999"
   version="1.1"
   xml:space="preserve"
   style="clip-rule:evenodd;fill-rule:evenodd;stroke-linejoin:round;stroke-miterlimit:2"
   id="svg20568"
   sodipodi:docname="emojis.svg"
   xmlns:inkscape="http://www.inkscape.org/namespaces/inkscape"
   xmlns:sodipodi="http://sodipodi.sourceforge.net/DTD/sodipodi-0.dtd"
   xmlns="http://www.w3.org/2000/svg"
   xmlns:svg="http://www.w3.org/2000/svg"><defs
     id="defs20572" /><sodipodi:namedview
     id="namedview20570"
     pagecolor="#505050"
     bordercolor="#eeeeee"
     borderopacity="1"
     inkscape:pageshadow="0"
     inkscape:pageopacity="0"
     inkscape:pagecheckerboard="0" /><g
     transform="matrix(0.24,0,0,0.24,-679.908,-229.5114)"
     id="g20566"><g
       transform="matrix(62.5,0,0,62.5,2825.2,1013.36)"
       id="g4622"><path
         d="M 0.371,0.21 C 0.347,0.21 0.325,0.207 0.303,0.199 0.281,0.192 0.262,0.181 0.244,0.168 0.226,0.155 0.211,0.139 0.198,0.12 0.184,0.101 0.174,0.081 0.168,0.058 0.159,0.053 0.151,0.046 0.145,0.039 0.14,0.032 0.135,0.025 0.132,0.017 0.129,0.008 0.127,0 0.126,-0.01 0.125,-0.019 0.124,-0.028 0.124,-0.039 v -0.023 c 0,-0.01 0,-0.02 0.001,-0.029 0.001,-0.01 0.003,-0.019 0.006,-0.028 0.003,-0.009 0.008,-0.017 0.014,-0.025 0.005,-0.007 0.014,-0.014 0.024,-0.02 0.009,-0.032 0.026,-0.061 0.049,-0.086 0.023,-0.024 0.05,-0.042 0.082,-0.054 v -0.011 c 0,-0.016 0.001,-0.031 0.002,-0.045 0,-0.013 0.002,-0.027 0.005,-0.039 C 0.31,-0.412 0.315,-0.424 0.322,-0.436 0.329,-0.448 0.338,-0.46 0.35,-0.473 0.334,-0.486 0.321,-0.499 0.31,-0.514 0.299,-0.528 0.29,-0.543 0.284,-0.559 0.277,-0.575 0.272,-0.592 0.27,-0.61 0.267,-0.628 0.265,-0.647 0.265,-0.667 c 0,-0.034 0.007,-0.066 0.02,-0.095 0.013,-0.03 0.03,-0.056 0.053,-0.079 0.022,-0.022 0.048,-0.039 0.078,-0.052 0.03,-0.013 0.061,-0.02 0.095,-0.02 0.034,0 0.066,0.007 0.096,0.02 0.029,0.013 0.055,0.03 0.078,0.052 0.022,0.023 0.039,0.049 0.052,0.079 0.013,0.029 0.019,0.061 0.019,0.095 V 0.21 Z"
         style="fill-rule:nonzero"
         id="path4614" /><path
         d="m 0.335,-0.667 c 0,-0.024 0.005,-0.047 0.014,-0.068 0.01,-0.021 0.022,-0.04 0.038,-0.056 0.016,-0.016 0.035,-0.028 0.056,-0.037 0.021,-0.01 0.044,-0.014 0.068,-0.014 0.024,0 0.047,0.004 0.068,0.014 0.022,0.009 0.04,0.021 0.056,0.037 0.016,0.016 0.028,0.035 0.038,0.056 0.009,0.021 0.014,0.044 0.014,0.068 v 0.316 L 0.546,-0.457 V -0.5 Z"
         style="fill:#8e562e;fill-rule:nonzero"
         id="path4616" /><path
         d="M 0.371,0.14 C 0.351,0.14 0.333,0.136 0.316,0.129 0.299,0.122 0.284,0.112 0.271,0.099 0.259,0.086 0.249,0.072 0.241,0.055 0.234,0.038 0.23,0.02 0.23,0 v -0.105 c 0,-0.02 0.004,-0.038 0.011,-0.055 0.008,-0.017 0.018,-0.032 0.03,-0.045 0.013,-0.012 0.028,-0.022 0.045,-0.03 0.017,-0.007 0.035,-0.011 0.055,-0.011 v -0.105 c 0,-0.015 0.002,-0.028 0.008,-0.041 0.005,-0.013 0.013,-0.024 0.023,-0.034 0.009,-0.009 0.02,-0.017 0.033,-0.022 0.013,-0.006 0.026,-0.009 0.041,-0.009 h 0.105 c 0.015,0 0.028,0.003 0.041,0.009 0.013,0.005 0.024,0.013 0.034,0.022 0.009,0.01 0.017,0.021 0.022,0.034 0.006,0.013 0.009,0.026 0.009,0.041 V 0.14 Z"
         style="fill:#f03a17;fill-rule:nonzero"
         id="path4618" /><path
         d="m 0.651,-0.316 v 0.263 c 0,0.008 -0.001,0.015 -0.004,0.021 C 0.644,-0.026 0.641,-0.02 0.636,-0.015 0.631,-0.011 0.626,-0.007 0.619,-0.004 0.613,-0.001 0.606,0 0.599,0 H 0.388 C 0.381,0 0.374,-0.001 0.367,-0.004 0.361,-0.007 0.356,-0.011 0.351,-0.015 0.346,-0.02 0.342,-0.026 0.34,-0.032 0.337,-0.038 0.335,-0.045 0.335,-0.053 0.335,-0.06 0.337,-0.067 0.34,-0.073 0.342,-0.08 0.346,-0.085 0.351,-0.09 0.356,-0.095 0.361,-0.099 0.367,-0.101 0.374,-0.104 0.381,-0.105 0.388,-0.105 H 0.546 V -0.316 Z M 0.546,-0.731 V -0.5 C 0.537,-0.498 0.529,-0.495 0.52,-0.494 0.511,-0.492 0.502,-0.491 0.494,-0.491 0.472,-0.491 0.451,-0.495 0.432,-0.504 0.413,-0.512 0.396,-0.523 0.382,-0.538 0.368,-0.552 0.356,-0.569 0.348,-0.588 0.34,-0.607 0.335,-0.628 0.335,-0.649 v -0.018 h 0.141 c 0.01,0 0.018,-0.002 0.026,-0.005 0.009,-0.003 0.016,-0.008 0.022,-0.014 0.006,-0.005 0.011,-0.012 0.015,-0.02 0.003,-0.008 0.006,-0.016 0.007,-0.025 z M 0.213,0 C 0.208,0 0.204,-0.002 0.2,-0.005 0.197,-0.009 0.195,-0.013 0.195,-0.018 v -0.07 c 0,-0.005 0.002,-0.009 0.005,-0.012 0.004,-0.004 0.008,-0.005 0.013,-0.005 0.007,0 0.014,0.001 0.02,0.004 0.007,0.002 0.012,0.006 0.017,0.011 0.005,0.005 0.008,0.011 0.011,0.017 0.003,0.006 0.004,0.013 0.004,0.02 0,0.007 -0.001,0.014 -0.004,0.021 C 0.258,-0.026 0.255,-0.021 0.25,-0.016 0.245,-0.011 0.24,-0.007 0.233,-0.004 0.227,-0.001 0.22,0 0.213,0 Z"
         style="fill:#ffc83d;fill-rule:nonzero"
         id="path4620" /></g></g></svg>
