<?xml version="1.0" encoding="UTF-8" standalone="no"?>
<svg
   width="16.844999"
   height="16.844999"
   viewBox="0 0 16.844999 16.844999"
   version="1.1"
   xml:space="preserve"
   style="clip-rule:evenodd;fill-rule:evenodd;stroke-linejoin:round;stroke-miterlimit:2"
   id="svg20568"
   sodipodi:docname="emojis.svg"
   xmlns:inkscape="http://www.inkscape.org/namespaces/inkscape"
   xmlns:sodipodi="http://sodipodi.sourceforge.net/DTD/sodipodi-0.dtd"
   xmlns="http://www.w3.org/2000/svg"
   xmlns:svg="http://www.w3.org/2000/svg"><defs
     id="defs20572" /><sodipodi:namedview
     id="namedview20570"
     pagecolor="#505050"
     bordercolor="#eeeeee"
     borderopacity="1"
     inkscape:pageshadow="0"
     inkscape:pageopacity="0"
     inkscape:pagecheckerboard="0" /><g
     transform="matrix(0.24,0,0,0.24,-693.1494,-229.5114)"
     id="g20566"><g
       transform="matrix(62.5,0,0,62.5,2880.31,1013.36)"
       id="g4648"><path
         d="m 1.073,-0.299 c 0.015,0.008 0.028,0.018 0.04,0.03 0.011,0.013 0.02,0.027 0.027,0.042 l 0.096,0.218 c 0.004,0.01 0.007,0.02 0.009,0.03 0.002,0.011 0.003,0.022 0.003,0.032 0,0.022 -0.004,0.042 -0.012,0.061 C 1.227,0.133 1.216,0.15 1.202,0.164 1.187,0.178 1.171,0.19 1.152,0.198 1.133,0.206 1.112,0.21 1.09,0.21 H 0.283 C 0.261,0.21 0.24,0.206 0.221,0.198 0.202,0.19 0.185,0.178 0.171,0.164 0.157,0.15 0.146,0.133 0.137,0.114 0.129,0.095 0.125,0.074 0.125,0.052 0.125,0.042 0.126,0.031 0.128,0.021 0.13,0.011 0.133,0.001 0.137,-0.009 L 0.233,-0.227 C 0.24,-0.242 0.249,-0.256 0.26,-0.269 0.272,-0.281 0.285,-0.291 0.3,-0.299 V -0.527 C 0.3,-0.562 0.305,-0.596 0.314,-0.629 0.323,-0.662 0.337,-0.693 0.353,-0.721 0.37,-0.75 0.39,-0.776 0.414,-0.799 0.437,-0.823 0.463,-0.843 0.492,-0.86 0.52,-0.876 0.551,-0.889 0.584,-0.899 c 0.033,-0.009 0.067,-0.014 0.103,-0.014 0.035,0 0.069,0.005 0.102,0.014 0.033,0.01 0.064,0.023 0.092,0.039 0.029,0.017 0.055,0.037 0.078,0.061 0.024,0.023 0.044,0.049 0.061,0.078 0.017,0.028 0.03,0.059 0.039,0.092 0.009,0.033 0.014,0.067 0.014,0.102 z"
         style="fill-rule:nonzero"
         id="path4624" /><path
         d="m 0.371,-0.21 v -0.317 c 0,-0.043 0.008,-0.084 0.025,-0.123 0.016,-0.038 0.039,-0.071 0.067,-0.1 0.029,-0.029 0.062,-0.051 0.1,-0.068 0.039,-0.016 0.08,-0.024 0.124,-0.024 0.043,0 0.084,0.008 0.123,0.024 0.038,0.017 0.071,0.039 0.1,0.068 0.028,0.029 0.051,0.062 0.068,0.1 0.016,0.039 0.024,0.08 0.024,0.123 v 0.317 z"
         style="fill:#8e562e;fill-rule:nonzero"
         id="path4626" /><rect
         x="0.37099999"
         y="-0.141"
         width="0.38600001"
         height="0.211"
         style="fill:#735bc1;fill-rule:nonzero"
         id="rect4628" /><path
         d="m 0.963,-0.246 c 0.014,0 0.028,0.002 0.041,0.006 0.013,0.004 0.025,0.01 0.036,0.017 0.011,0.007 0.021,0.016 0.03,0.027 0.009,0.01 0.016,0.022 0.022,0.034 L 1.117,-0.105 1.107,0 C 1.105,0.001 1.101,0.002 1.093,0.005 1.086,0.008 1.077,0.012 1.067,0.016 L 1.004,0.04 C 0.994,0.044 0.986,0.047 0.979,0.049 0.973,0.052 0.969,0.053 0.968,0.053 0.958,0.054 0.948,0.055 0.94,0.056 c -0.008,0 -0.016,0.001 -0.024,0.001 -0.009,0 -0.017,0.001 -0.025,0.001 -0.009,0 -0.018,0 -0.028,10e-4 L 0.651,0.07 V -0.097 L 0.584,-0.233 C 0.562,-0.243 0.542,-0.256 0.525,-0.272 0.507,-0.288 0.492,-0.305 0.48,-0.324 0.468,-0.344 0.458,-0.365 0.451,-0.387 0.445,-0.41 0.441,-0.433 0.441,-0.457 v -0.035 c 0.016,0 0.031,-0.002 0.046,-0.008 0.015,-0.005 0.028,-0.012 0.041,-0.022 0.012,-0.009 0.023,-0.02 0.032,-0.033 0.009,-0.012 0.016,-0.026 0.021,-0.041 0.007,0.013 0.015,0.025 0.025,0.034 0.011,0.009 0.022,0.016 0.034,0.021 0.013,0.006 0.026,0.009 0.04,0.011 0.014,0.003 0.028,0.004 0.042,0.004 v -0.106 c 0.009,0.02 0.021,0.038 0.036,0.055 0.015,0.017 0.032,0.032 0.05,0.044 0.019,0.013 0.039,0.023 0.06,0.031 0.021,0.007 0.043,0.011 0.065,0.011 v 0.034 c 0,0.022 -0.003,0.043 -0.009,0.063 -0.005,0.021 -0.013,0.04 -0.024,0.059 -0.01,0.018 -0.023,0.035 -0.037,0.05 -0.015,0.015 -0.032,0.028 -0.05,0.039 z"
         style="fill:#ffc83d;fill-rule:nonzero"
         id="path4630" /><path
         d="M 0.31,0.095 0.495,0.014 0.518,0.018 0.528,0 0.543,-0.007 h 0.041 l 0.025,-0.029 0.015,-0.006 0.023,0.002 0.01,-0.017 c 0.003,-0.001 0.007,-0.003 0.011,-0.005 0.005,-0.003 0.01,-0.005 0.014,-0.007 0.005,-0.003 0.01,-0.004 0.015,-0.006 0.004,-0.001 0.009,-0.002 0.012,-0.002 0.008,0 0.014,0.002 0.02,0.005 0.006,0.004 0.01,0.009 0.013,0.016 l 0.037,0.012 0.07,0.123 z"
         style="fill:#f2f2f2;fill-rule:nonzero"
         id="path4632" /><path
         d="M 0.657,-0.057 0.763,0.087 0.725,0.095 0.624,-0.042 Z M 0.528,0 0.592,0.087 0.556,0.097 0.495,0.014 Z"
         style="fill:#83beec;fill-rule:nonzero"
         id="path4634" /><path
         d="M 0.609,-0.036 0.7,0.088 0.624,0.103 0.543,-0.007 Z"
         style="fill:#f4abba;fill-rule:nonzero"
         id="path4636" /><path
         d="m 0.984,-0.028 c 0.008,0 0.015,0.002 0.022,0.006 0.006,0.004 0.012,0.009 0.017,0.015 0.004,0.006 0.008,0.013 0.011,0.02 0.003,0.008 0.004,0.015 0.004,0.022 0,0.003 0,0.005 0,0.007 C 1.035,0.054 1.03,0.066 1.022,0.075 1.015,0.085 1.006,0.094 0.996,0.101 0.985,0.108 0.974,0.113 0.961,0.117 0.949,0.121 0.937,0.123 0.925,0.123 0.919,0.123 0.91,0.122 0.9,0.12 0.89,0.118 0.88,0.117 0.869,0.114 0.858,0.112 0.847,0.11 0.837,0.107 0.827,0.105 0.818,0.103 0.812,0.102 0.81,0.099 0.808,0.093 0.804,0.084 0.8,0.076 0.795,0.065 0.79,0.053 0.784,0.042 0.779,0.029 0.773,0.016 0.767,0.002 0.762,-0.01 0.757,-0.022 0.752,-0.034 0.747,-0.044 0.744,-0.053 0.741,-0.062 0.739,-0.068 0.739,-0.07 c 0,-0.01 0.004,-0.018 0.011,-0.025 0.006,-0.007 0.014,-0.01 0.024,-0.01 0.007,0 0.014,0.002 0.019,0.006 0.006,0.004 0.01,0.009 0.014,0.016 0.02,-0.013 0.041,-0.019 0.065,-0.019 0.012,0 0.023,0.002 0.035,0.006 0.012,0.003 0.022,0.008 0.032,0.014 0.01,0.007 0.019,0.014 0.026,0.023 0.008,0.01 0.014,0.02 0.019,0.031 z"
         style="fill:#e5e5e5;fill-rule:nonzero"
         id="path4638" /><path
         d="m 0.932,0 c 0.01,0 0.018,0.003 0.025,0.01 0.007,0.007 0.01,0.015 0.01,0.025 V 0.098 L 0.985,0.112 C 0.985,0.119 0.983,0.124 0.98,0.128 0.976,0.132 0.971,0.135 0.966,0.136 0.961,0.138 0.955,0.139 0.949,0.14 c -0.006,0 -0.012,0 -0.017,0 H 0.687 V 0.035 h 0.032 l 0.098,-0.098 c 0.005,-0.005 0.011,-0.007 0.018,-0.007 0.008,0 0.014,0.002 0.019,0.007 0.005,0.005 0.008,0.012 0.008,0.019 V 0 Z M 0.558,-0.178 0.584,-0.233 c 0.016,0.007 0.033,0.013 0.05,0.017 0.018,0.004 0.035,0.006 0.053,0.006 0.035,0 0.07,-0.008 0.102,-0.023 L 0.717,-0.09 C 0.715,-0.085 0.711,-0.08 0.707,-0.077 0.703,-0.076 0.7,-0.076 0.697,-0.074 0.694,-0.073 0.69,-0.072 0.687,-0.07 0.681,-0.07 0.677,-0.071 0.673,-0.073 0.669,-0.074 0.666,-0.077 0.663,-0.079 0.66,-0.082 0.658,-0.085 0.656,-0.089 L 0.647,-0.105 Z"
         style="fill:#ffb900;fill-rule:nonzero"
         id="path4640" /><path
         d="M 0.687,0.035 V 0.14 H 0.283 C 0.271,0.14 0.259,0.138 0.249,0.133 0.238,0.129 0.229,0.122 0.221,0.115 0.213,0.107 0.207,0.097 0.202,0.087 0.198,0.076 0.195,0.065 0.195,0.053 0.195,0.047 0.196,0.041 0.197,0.035 0.198,0.03 0.2,0.024 0.202,0.019 L 0.281,-0.162 C 0.287,-0.174 0.294,-0.186 0.303,-0.196 0.312,-0.206 0.322,-0.215 0.333,-0.222 0.344,-0.23 0.356,-0.235 0.369,-0.24 0.382,-0.244 0.396,-0.246 0.41,-0.246 h 0.151 c 0.004,0.003 0.007,0.005 0.011,0.007 0.004,0.002 0.008,0.004 0.012,0.006 0,0.001 0.002,0.005 0.005,0.011 0.003,0.006 0.006,0.013 0.011,0.022 0.004,0.009 0.009,0.018 0.014,0.028 0.005,0.01 0.01,0.02 0.014,0.029 0.005,0.009 0.009,0.017 0.012,0.024 0.004,0.007 0.006,0.011 0.007,0.014 H 0.433 L 0.388,0 0.425,0.036 Z M 1.171,0.019 C 1.174,0.024 1.175,0.03 1.176,0.035 1.177,0.041 1.178,0.047 1.178,0.053 1.178,0.065 1.175,0.076 1.171,0.087 1.166,0.097 1.16,0.107 1.152,0.115 1.144,0.122 1.135,0.129 1.124,0.133 1.114,0.138 1.102,0.14 1.09,0.14 H 0.934 C 0.946,0.139 0.955,0.135 0.96,0.127 0.965,0.119 0.967,0.109 0.967,0.098 0.976,0.087 0.983,0.075 0.988,0.062 0.992,0.049 0.995,0.035 0.995,0.021 0.995,0.013 0.994,0.004 0.992,-0.006 0.99,-0.016 0.987,-0.024 0.983,-0.03 c 0.013,-0.023 0.03,-0.042 0.052,-0.055 0.022,-0.014 0.046,-0.02 0.072,-0.02 h 0.01 z"
         style="fill:#886ce4;fill-rule:nonzero"
         id="path4642" /><path
         d="m 0.581,-0.491 c 0.009,0 0.018,0.003 0.025,0.01 0.007,0.007 0.01,0.015 0.01,0.024 v 0.036 c 0,0.009 -0.003,0.018 -0.01,0.025 -0.007,0.006 -0.015,0.01 -0.025,0.01 -0.009,0 -0.018,-0.004 -0.025,-0.011 -0.007,-0.007 -0.01,-0.015 -0.01,-0.024 v -0.036 c 0,-0.009 0.003,-0.017 0.01,-0.024 0.007,-0.007 0.016,-0.01 0.025,-0.01 z m 0.211,0 c 0.009,0 0.018,0.003 0.024,0.01 0.007,0.007 0.011,0.015 0.011,0.024 v 0.036 c 0,0.009 -0.004,0.017 -0.011,0.024 -0.006,0.007 -0.015,0.011 -0.024,0.011 -0.01,0 -0.018,-0.004 -0.025,-0.01 -0.007,-0.007 -0.01,-0.016 -0.01,-0.025 v -0.036 c 0,-0.009 0.003,-0.017 0.01,-0.024 0.007,-0.007 0.016,-0.01 0.025,-0.01 z"
         style="fill-rule:nonzero"
         id="path4644" /><path
         d="m 0.687,-0.351 c -0.01,0 -0.019,-0.003 -0.025,-0.01 C 0.655,-0.368 0.651,-0.376 0.651,-0.386 h 0.071 c 0,0.01 -0.004,0.018 -0.011,0.025 -0.006,0.007 -0.015,0.01 -0.024,0.01 z m 10e-4,0.09 C 0.683,-0.261 0.677,-0.262 0.669,-0.264 0.662,-0.266 0.654,-0.268 0.646,-0.272 0.639,-0.275 0.633,-0.279 0.627,-0.284 0.622,-0.288 0.619,-0.293 0.619,-0.299 c 0,-0.005 0.002,-0.009 0.005,-0.012 0.003,-0.003 0.007,-0.005 0.011,-0.005 0.003,0 0.006,0.001 0.009,0.003 0.003,0.002 0.007,0.005 0.011,0.008 0.004,0.002 0.008,0.005 0.014,0.007 0.005,0.002 0.012,0.003 0.019,0.003 0.007,0 0.014,-0.001 0.019,-0.003 0.005,-0.002 0.01,-0.005 0.014,-0.007 0.004,-0.003 0.007,-0.006 0.01,-0.008 0.003,-0.002 0.006,-0.003 0.009,-0.003 0.005,0 0.009,0.002 0.012,0.005 0.003,0.003 0.005,0.007 0.005,0.012 0,0.006 -0.003,0.011 -0.008,0.015 -0.006,0.005 -0.012,0.009 -0.02,0.012 -0.007,0.004 -0.015,0.006 -0.022,0.008 -0.008,0.002 -0.014,0.003 -0.019,0.003 z"
         style="fill:#f7894a;fill-rule:nonzero"
         id="path4646" /></g></g></svg>
