<?xml version="1.0" encoding="UTF-8" standalone="no"?>
<svg
   width="16.844999"
   height="16.844999"
   viewBox="0 0 16.844999 16.844999"
   version="1.1"
   xml:space="preserve"
   style="clip-rule:evenodd;fill-rule:evenodd;stroke-linejoin:round;stroke-miterlimit:2"
   id="svg20568"
   sodipodi:docname="emojis.svg"
   xmlns:inkscape="http://www.inkscape.org/namespaces/inkscape"
   xmlns:sodipodi="http://sodipodi.sourceforge.net/DTD/sodipodi-0.dtd"
   xmlns="http://www.w3.org/2000/svg"
   xmlns:svg="http://www.w3.org/2000/svg"><defs
     id="defs20572" /><sodipodi:namedview
     id="namedview20570"
     pagecolor="#505050"
     bordercolor="#eeeeee"
     borderopacity="1"
     inkscape:pageshadow="0"
     inkscape:pageopacity="0"
     inkscape:pagecheckerboard="0" /><g
     transform="matrix(0.24,0,0,0.24,-65.01036,-246.4818)"
     id="g20566"><g
       transform="matrix(62.5,0,0,62.5,263.064,1084.07)"
       id="g4760"><path
         d="m 1.248,-0.772 c 0,0.019 -0.004,0.037 -0.011,0.054 -0.008,0.017 -0.018,0.032 -0.031,0.045 -0.013,0.012 -0.028,0.022 -0.045,0.03 -0.017,0.007 -0.035,0.011 -0.054,0.011 v 0.012 c 0.011,0.005 0.021,0.012 0.029,0.019 0.009,0.008 0.017,0.017 0.023,0.027 0.006,0.009 0.011,0.019 0.014,0.031 0.003,0.011 0.005,0.022 0.005,0.034 0,0.019 -0.004,0.037 -0.012,0.052 0.004,0.009 0.006,0.018 0.009,0.026 0.002,0.009 0.003,0.018 0.003,0.027 v 0.106 c 0,0.016 -0.004,0.032 -0.01,0.048 -0.007,0.016 -0.016,0.029 -0.028,0.041 0.002,0.011 0.003,0.022 0.003,0.033 0,0.019 -0.003,0.038 -0.008,0.056 C 1.13,-0.102 1.122,-0.085 1.113,-0.069 1.103,-0.052 1.092,-0.038 1.078,-0.025 1.065,-0.011 1.05,0 1.033,0.009 1.028,0.033 1.019,0.056 1.006,0.076 0.993,0.096 0.978,0.114 0.959,0.128 0.941,0.143 0.92,0.155 0.898,0.163 0.875,0.171 0.851,0.175 0.827,0.175 0.809,0.175 0.792,0.173 0.776,0.169 0.758,0.183 0.738,0.193 0.717,0.2 0.696,0.207 0.674,0.21 0.651,0.21 0.629,0.21 0.607,0.207 0.586,0.2 0.564,0.193 0.545,0.183 0.526,0.169 0.51,0.173 0.494,0.175 0.476,0.175 0.451,0.175 0.428,0.171 0.405,0.163 0.382,0.155 0.362,0.143 0.344,0.128 0.325,0.114 0.31,0.096 0.297,0.076 0.284,0.056 0.275,0.033 0.27,0.009 0.253,0 0.238,-0.011 0.224,-0.025 0.211,-0.038 0.199,-0.052 0.19,-0.068 0.18,-0.084 0.173,-0.101 0.168,-0.12 0.163,-0.138 0.16,-0.157 0.16,-0.176 0.16,-0.187 0.161,-0.199 0.163,-0.21 0.151,-0.221 0.142,-0.235 0.135,-0.25 0.128,-0.266 0.125,-0.282 0.125,-0.298 v -0.106 c 0,-0.009 0.001,-0.018 0.003,-0.027 C 0.13,-0.439 0.133,-0.448 0.137,-0.457 0.129,-0.472 0.125,-0.49 0.125,-0.509 c 0,-0.014 0.002,-0.027 0.007,-0.04 0.004,-0.013 0.011,-0.025 0.019,-0.035 0.008,-0.011 0.018,-0.02 0.029,-0.027 0.012,-0.008 0.024,-0.013 0.038,-0.017 0.014,-0.042 0.035,-0.081 0.062,-0.116 0.026,-0.035 0.057,-0.065 0.092,-0.09 0.034,-0.025 0.073,-0.044 0.114,-0.058 0.042,-0.014 0.085,-0.021 0.13,-0.021 h 0.491 c 0.02,0 0.038,0.004 0.055,0.011 0.017,0.008 0.032,0.018 0.045,0.03 0.013,0.013 0.023,0.028 0.03,0.045 0.007,0.017 0.011,0.035 0.011,0.055 z"
         style="fill-rule:nonzero"
         id="path4746" /><path
         d="m 0.649,-0.5 c 0.064,0 0.127,0.004 0.19,0.012 0.063,0.008 0.126,0.017 0.188,0.027 l 0.028,0.004 c 0.016,0.003 0.028,0.008 0.038,0.016 0.01,0.008 0.014,0.02 0.014,0.037 v 0.106 c 0,0.013 -0.003,0.024 -0.011,0.032 -0.007,0.009 -0.017,0.015 -0.029,0.019 -0.002,0.001 -0.004,0.001 -0.006,0.001 -0.002,-0.001 -0.004,0 -0.006,0 L 0.94,-0.211 C 0.93,-0.2 0.918,-0.191 0.905,-0.185 0.891,-0.179 0.877,-0.176 0.862,-0.176 H 0.441 C 0.426,-0.176 0.412,-0.179 0.398,-0.185 0.385,-0.191 0.373,-0.2 0.363,-0.211 L 0.248,-0.246 c -0.002,0 -0.004,-0.001 -0.006,0 -0.002,0 -0.004,0 -0.006,-0.001 C 0.223,-0.251 0.214,-0.257 0.206,-0.265 0.199,-0.274 0.195,-0.285 0.195,-0.298 v -0.106 c 0,-0.008 0.002,-0.016 0.004,-0.022 0.003,-0.006 0.006,-0.011 0.011,-0.015 0.005,-0.004 0.01,-0.007 0.017,-0.01 0.006,-0.002 0.013,-0.004 0.021,-0.006 L 0.281,-0.462 C 0.342,-0.472 0.403,-0.481 0.464,-0.489 0.525,-0.497 0.587,-0.5 0.649,-0.5 Z"
         style="fill:#ffc83d;fill-rule:nonzero"
         id="path4748" /><path
         d="m 0.616,-0.842 h 0.491 v 0.07 H 1.038 v 0.281 H 0.265 c 0,-0.032 0.004,-0.064 0.013,-0.093 0.008,-0.03 0.02,-0.058 0.035,-0.084 0.015,-0.026 0.034,-0.05 0.055,-0.072 0.021,-0.021 0.045,-0.039 0.071,-0.054 0.026,-0.016 0.054,-0.028 0.084,-0.036 0.03,-0.008 0.061,-0.012 0.093,-0.012 z"
         style="fill:#f03a17;fill-rule:nonzero"
         id="path4750" /><path
         d="m 1.073,-0.176 c 0,0.016 -0.003,0.031 -0.008,0.046 -0.005,0.015 -0.013,0.028 -0.022,0.04 -0.009,0.012 -0.021,0.023 -0.034,0.031 -0.013,0.009 -0.027,0.015 -0.042,0.019 0,0.02 -0.004,0.039 -0.01,0.057 C 0.95,0.034 0.94,0.05 0.928,0.063 0.915,0.076 0.901,0.086 0.883,0.094 0.866,0.101 0.847,0.105 0.827,0.105 0.815,0.105 0.804,0.103 0.792,0.1 0.781,0.097 0.77,0.093 0.76,0.087 0.747,0.104 0.73,0.117 0.712,0.126 0.693,0.135 0.673,0.14 0.651,0.14 0.63,0.14 0.61,0.135 0.591,0.126 0.572,0.117 0.556,0.104 0.542,0.087 0.532,0.093 0.522,0.097 0.51,0.1 0.499,0.103 0.487,0.105 0.476,0.105 0.457,0.105 0.439,0.101 0.422,0.094 0.405,0.087 0.39,0.077 0.377,0.065 0.365,0.052 0.355,0.038 0.347,0.021 0.34,0.004 0.336,-0.014 0.336,-0.033 V -0.04 C 0.321,-0.044 0.306,-0.05 0.293,-0.059 0.28,-0.067 0.269,-0.078 0.26,-0.09 0.251,-0.102 0.243,-0.115 0.238,-0.13 0.233,-0.145 0.23,-0.16 0.23,-0.176 0.23,-0.188 0.232,-0.2 0.236,-0.212 0.239,-0.223 0.243,-0.235 0.248,-0.246 0.252,-0.257 0.256,-0.268 0.26,-0.28 0.263,-0.292 0.265,-0.304 0.265,-0.316 v -0.18 h 0.07 v 0.18 c 0,0.015 0.003,0.028 0.009,0.041 0.005,0.013 0.013,0.024 0.022,0.034 0.01,0.009 0.021,0.017 0.034,0.022 0.013,0.006 0.026,0.009 0.041,0.009 h 0.421 c 0.014,0 0.028,-0.003 0.041,-0.009 0.013,-0.005 0.024,-0.013 0.033,-0.022 0.01,-0.01 0.017,-0.021 0.023,-0.034 0.006,-0.013 0.008,-0.026 0.008,-0.041 v -0.18 h 0.071 v 0.18 c 0,0.012 10e-4,0.024 0.005,0.036 0.004,0.012 0.008,0.023 0.012,0.034 0.004,0.011 0.008,0.023 0.012,0.034 0.004,0.012 0.006,0.024 0.006,0.036 z"
         style="fill:#f2f2f2;fill-rule:nonzero"
         id="path4752" /><path
         d="m 1.055,-0.562 c 0.007,0 0.014,0.002 0.021,0.005 0.006,0.002 0.012,0.006 0.016,0.011 0.005,0.005 0.009,0.011 0.011,0.017 0.003,0.006 0.004,0.013 0.004,0.02 0,0.007 -10e-4,0.014 -0.004,0.02 -0.002,0.007 -0.006,0.012 -0.011,0.017 -0.005,0.005 -0.01,0.009 -0.017,0.011 -0.006,0.003 -0.013,0.004 -0.02,0.004 H 0.248 c -0.007,0 -0.014,-0.001 -0.02,-0.004 C 0.221,-0.463 0.216,-0.467 0.211,-0.472 0.206,-0.476 0.202,-0.482 0.199,-0.488 0.197,-0.494 0.195,-0.501 0.195,-0.509 c 0,-0.007 0.002,-0.014 0.004,-0.02 0.003,-0.007 0.007,-0.012 0.012,-0.017 0.004,-0.005 0.01,-0.009 0.016,-0.011 0.007,-0.003 0.014,-0.005 0.021,-0.005 z m 0.052,-0.28 c 0.01,0 0.019,0.002 0.028,0.005 0.008,0.004 0.016,0.009 0.022,0.015 0.006,0.007 0.011,0.014 0.015,0.023 0.004,0.008 0.006,0.017 0.006,0.027 0,0.01 -0.002,0.019 -0.006,0.027 -0.004,0.009 -0.009,0.016 -0.015,0.023 -0.006,0.006 -0.014,0.011 -0.022,0.014 -0.009,0.004 -0.018,0.006 -0.028,0.006 -0.009,0 -0.018,-0.002 -0.027,-0.006 C 1.072,-0.711 1.064,-0.716 1.058,-0.722 1.052,-0.729 1.047,-0.736 1.043,-0.745 1.039,-0.753 1.038,-0.762 1.038,-0.772 c 0,-0.01 10e-4,-0.019 0.005,-0.027 0.004,-0.009 0.009,-0.016 0.015,-0.023 0.006,-0.006 0.014,-0.011 0.022,-0.015 0.009,-0.003 0.018,-0.005 0.027,-0.005 z"
         style="fill:#ffffff;fill-rule:nonzero"
         id="path4754" /><path
         d="m 0.458,-0.457 c 0.008,0 0.014,0.002 0.021,0.005 0.006,0.002 0.012,0.006 0.017,0.011 0.004,0.005 0.008,0.011 0.011,0.017 0.003,0.006 0.004,0.013 0.004,0.02 v 0.071 c 0,0.007 -0.001,0.013 -0.004,0.02 -0.003,0.006 -0.007,0.012 -0.011,0.017 -0.005,0.004 -0.011,0.008 -0.017,0.011 -0.007,0.003 -0.013,0.004 -0.021,0.004 -0.007,0 -0.013,-10e-4 -0.02,-0.004 C 0.432,-0.288 0.426,-0.292 0.421,-0.296 0.417,-0.301 0.413,-0.307 0.41,-0.313 0.407,-0.32 0.406,-0.326 0.406,-0.333 v -0.071 c 0,-0.007 10e-4,-0.014 0.004,-0.02 0.003,-0.006 0.007,-0.012 0.011,-0.017 0.005,-0.005 0.011,-0.009 0.017,-0.011 0.007,-0.003 0.013,-0.005 0.02,-0.005 z m 0.386,0 c 0.007,0 0.014,0.002 0.021,0.005 0.006,0.002 0.011,0.006 0.016,0.011 0.005,0.005 0.009,0.011 0.012,0.017 0.003,0.006 0.004,0.013 0.004,0.02 v 0.071 c 0,0.007 -0.001,0.013 -0.004,0.02 -0.003,0.006 -0.007,0.012 -0.012,0.017 -0.005,0.004 -0.01,0.008 -0.016,0.011 -0.007,0.003 -0.014,0.004 -0.021,0.004 -0.007,0 -0.014,-10e-4 -0.02,-0.004 C 0.818,-0.288 0.812,-0.292 0.807,-0.296 0.803,-0.301 0.799,-0.307 0.796,-0.313 0.793,-0.32 0.792,-0.326 0.792,-0.333 v -0.071 c 0,-0.007 0.001,-0.014 0.004,-0.02 0.003,-0.006 0.007,-0.012 0.011,-0.017 0.005,-0.005 0.011,-0.009 0.017,-0.011 0.006,-0.003 0.013,-0.005 0.02,-0.005 z"
         style="fill-rule:nonzero"
         id="path4756" /><path
         d="M 0.651,-0.176 C 0.642,-0.176 0.632,-0.178 0.624,-0.181 0.616,-0.185 0.608,-0.19 0.602,-0.196 0.595,-0.202 0.59,-0.21 0.587,-0.218 0.583,-0.227 0.581,-0.236 0.581,-0.246 h 0.141 c 0,0.01 -0.002,0.019 -0.006,0.028 C 0.712,-0.21 0.707,-0.202 0.701,-0.196 0.695,-0.19 0.687,-0.185 0.679,-0.181 0.67,-0.178 0.661,-0.176 0.651,-0.176 Z m 0.106,0.035 c 0.01,0 0.018,0.004 0.025,0.011 0.007,0.007 0.01,0.016 0.01,0.025 0,0.008 -0.003,0.015 -0.008,0.022 -0.005,0.006 -0.012,0.012 -0.02,0.017 -0.009,0.005 -0.018,0.01 -0.029,0.014 -0.01,0.004 -0.02,0.007 -0.031,0.009 -0.01,0.003 -0.02,0.005 -0.029,0.006 -0.01,0.001 -0.017,0.002 -0.024,0.002 -0.006,0 -0.014,-10e-4 -0.023,-0.002 C 0.619,-0.038 0.609,-0.04 0.599,-0.043 0.588,-0.045 0.578,-0.048 0.567,-0.052 0.557,-0.056 0.548,-0.061 0.539,-0.066 0.531,-0.071 0.524,-0.077 0.519,-0.083 0.513,-0.09 0.511,-0.097 0.511,-0.105 c 0,-0.009 0.003,-0.018 0.01,-0.025 0.007,-0.007 0.015,-0.011 0.025,-0.011 0.005,0 0.011,0.002 0.017,0.006 0.007,0.004 0.015,0.008 0.024,0.012 0.009,0.005 0.019,0.009 0.03,0.012 0.01,0.004 0.022,0.006 0.034,0.006 0.013,0 0.024,-0.002 0.035,-0.006 0.011,-0.003 0.021,-0.007 0.03,-0.012 0.009,-0.004 0.016,-0.008 0.023,-0.012 0.007,-0.004 0.013,-0.006 0.018,-0.006 z"
         style="fill:#f7894a;fill-rule:nonzero"
         id="path4758" /></g></g></svg>
