<?xml version="1.0" encoding="UTF-8" standalone="no"?>
<svg
   width="16.844999"
   height="16.844999"
   viewBox="0 0 16.844999 16.844999"
   version="1.1"
   xml:space="preserve"
   style="clip-rule:evenodd;fill-rule:evenodd;stroke-linejoin:round;stroke-miterlimit:2"
   id="svg20568"
   sodipodi:docname="emojis.svg"
   xmlns:inkscape="http://www.inkscape.org/namespaces/inkscape"
   xmlns:sodipodi="http://sodipodi.sourceforge.net/DTD/sodipodi-0.dtd"
   xmlns="http://www.w3.org/2000/svg"
   xmlns:svg="http://www.w3.org/2000/svg"><defs
     id="defs20572" /><sodipodi:namedview
     id="namedview20570"
     pagecolor="#505050"
     bordercolor="#eeeeee"
     borderopacity="1"
     inkscape:pageshadow="0"
     inkscape:pageopacity="0"
     inkscape:pagecheckerboard="0" /><g
     transform="matrix(0.24,0,0,0.24,-85.6062,-246.4818)"
     id="g20566"><g
       transform="matrix(62.5,0,0,62.5,348.88,1084.07)"
       id="g4782"><path
         d="M 0.687,0.21 C 0.632,0.21 0.58,0.201 0.531,0.183 0.481,0.165 0.435,0.138 0.394,0.104 0.356,0.1 0.321,0.09 0.288,0.073 0.255,0.055 0.227,0.034 0.202,0.007 0.178,-0.02 0.159,-0.05 0.146,-0.085 0.132,-0.119 0.125,-0.155 0.125,-0.193 v -0.246 c 0,-0.018 0.003,-0.035 0.009,-0.051 0.005,-0.017 0.013,-0.032 0.024,-0.045 0.01,-0.014 0.023,-0.025 0.037,-0.035 0.014,-0.01 0.03,-0.017 0.047,-0.021 0.012,-0.048 0.03,-0.091 0.056,-0.13 0.026,-0.04 0.057,-0.073 0.093,-0.102 0.036,-0.028 0.077,-0.05 0.121,-0.066 0.044,-0.016 0.091,-0.024 0.139,-0.024 h 0.071 c 0.048,0 0.095,0.008 0.139,0.024 0.045,0.016 0.085,0.038 0.121,0.066 0.036,0.029 0.067,0.062 0.093,0.102 0.026,0.039 0.044,0.082 0.056,0.13 0.017,0.004 0.033,0.011 0.047,0.021 0.015,0.01 0.027,0.021 0.037,0.035 0.011,0.013 0.019,0.028 0.025,0.045 0.005,0.016 0.008,0.033 0.008,0.051 v 0.246 c 0,0.038 -0.007,0.074 -0.02,0.108 C 1.214,-0.05 1.195,-0.02 1.171,0.007 1.146,0.034 1.118,0.055 1.085,0.073 1.052,0.09 1.017,0.1 0.979,0.104 0.938,0.138 0.892,0.165 0.843,0.183 0.793,0.201 0.741,0.21 0.687,0.21 Z"
         style="fill-rule:nonzero"
         id="path4762" /><path
         d="M 1.046,-0.526 H 1.09 c 0.012,0 0.024,0.002 0.034,0.006 0.011,0.005 0.02,0.011 0.028,0.019 0.008,0.008 0.014,0.018 0.019,0.028 0.004,0.011 0.007,0.022 0.007,0.034 v 0.246 c 0,0.031 -0.006,0.061 -0.018,0.089 C 1.148,-0.077 1.132,-0.053 1.111,-0.032 1.09,-0.011 1.066,0.005 1.039,0.017 1.011,0.029 0.981,0.035 0.95,0.035 H 0.423 C 0.392,0.035 0.362,0.029 0.334,0.017 0.307,0.005 0.283,-0.011 0.262,-0.032 0.241,-0.053 0.225,-0.077 0.213,-0.104 0.201,-0.132 0.195,-0.162 0.195,-0.193 v -0.246 c 0,-0.012 0.003,-0.023 0.007,-0.034 0.005,-0.01 0.011,-0.02 0.019,-0.028 0.008,-0.008 0.017,-0.014 0.028,-0.019 0.01,-0.004 0.022,-0.006 0.034,-0.006 h 0.044 c 0.014,-0.037 0.034,-0.071 0.058,-0.101 0.024,-0.031 0.052,-0.057 0.084,-0.078 0.031,-0.021 0.066,-0.038 0.103,-0.049 0.036,-0.012 0.075,-0.018 0.115,-0.018 0.039,0 0.078,0.006 0.115,0.018 0.036,0.011 0.071,0.028 0.102,0.049 0.032,0.021 0.06,0.047 0.084,0.078 0.024,0.03 0.044,0.064 0.058,0.101 z"
         style="fill:#e5e5e5;fill-rule:nonzero"
         id="path4764" /><path
         d="m 0.722,-0.842 c 0.032,0 0.063,0.004 0.093,0.012 0.03,0.008 0.058,0.02 0.084,0.036 0.026,0.015 0.05,0.033 0.071,0.054 0.021,0.022 0.04,0.046 0.055,0.072 0.015,0.026 0.027,0.054 0.035,0.084 0.009,0.029 0.013,0.061 0.013,0.093 -0.01,0 -0.019,-0.002 -0.028,-0.006 C 1.037,-0.501 1.03,-0.506 1.023,-0.512 1.017,-0.518 1.012,-0.526 1.008,-0.534 1.004,-0.543 1.002,-0.552 1.002,-0.562 1.002,-0.571 1.001,-0.58 0.997,-0.589 0.993,-0.597 0.988,-0.605 0.982,-0.611 0.975,-0.617 0.968,-0.622 0.959,-0.626 0.951,-0.63 0.942,-0.632 0.932,-0.632 c -0.011,0 -0.02,0.002 -0.027,0.005 -0.007,0.004 -0.014,0.008 -0.02,0.013 -0.006,0.005 -0.011,0.011 -0.016,0.017 -0.005,0.007 -0.011,0.012 -0.016,0.017 -0.006,0.006 -0.013,0.01 -0.02,0.013 -0.007,0.004 -0.016,0.005 -0.027,0.005 -0.011,0 -0.02,-10e-4 -0.027,-0.005 C 0.772,-0.57 0.765,-0.574 0.76,-0.58 0.755,-0.585 0.75,-0.59 0.745,-0.597 0.741,-0.603 0.736,-0.609 0.731,-0.614 0.726,-0.619 0.72,-0.623 0.713,-0.627 0.706,-0.63 0.697,-0.632 0.687,-0.632 c -0.011,0 -0.02,0.002 -0.027,0.005 -0.007,0.004 -0.013,0.008 -0.018,0.013 -0.005,0.005 -0.01,0.011 -0.014,0.017 -0.005,0.007 -0.01,0.012 -0.015,0.017 -0.005,0.006 -0.012,0.01 -0.019,0.013 -0.007,0.004 -0.017,0.005 -0.028,0.005 -0.01,0 -0.019,-10e-4 -0.026,-0.005 C 0.532,-0.57 0.526,-0.574 0.52,-0.58 0.514,-0.585 0.509,-0.59 0.504,-0.597 0.499,-0.603 0.493,-0.609 0.487,-0.614 0.481,-0.619 0.474,-0.623 0.467,-0.627 0.46,-0.63 0.451,-0.632 0.44,-0.632 c -0.009,0 -0.018,0.002 -0.027,0.006 -0.008,0.004 -0.016,0.009 -0.022,0.015 -0.006,0.006 -0.011,0.014 -0.015,0.022 -0.004,0.009 -0.005,0.018 -0.005,0.027 0,0.01 -0.002,0.019 -0.006,0.028 C 0.361,-0.526 0.356,-0.518 0.35,-0.512 0.344,-0.506 0.336,-0.501 0.328,-0.497 0.319,-0.493 0.31,-0.491 0.3,-0.491 0.3,-0.523 0.304,-0.555 0.313,-0.584 0.321,-0.614 0.333,-0.642 0.348,-0.668 0.363,-0.694 0.382,-0.718 0.403,-0.74 0.424,-0.761 0.448,-0.779 0.474,-0.794 0.5,-0.81 0.528,-0.822 0.558,-0.83 0.588,-0.838 0.619,-0.842 0.651,-0.842 Z"
         style="fill:#f03a17;fill-rule:nonzero"
         id="path4766" /><path
         d="m 0.892,-0.624 0.084,0.005 c 0.009,0.01 0.016,0.019 0.022,0.027 0.005,0.009 0.01,0.017 0.014,0.025 0.004,0.009 0.008,0.017 0.012,0.026 0.004,0.01 0.008,0.02 0.014,0.031 v 0.425 C 1.022,-0.051 1.002,-0.02 0.978,0.008 0.953,0.035 0.926,0.059 0.895,0.079 0.865,0.099 0.832,0.114 0.796,0.124 0.761,0.135 0.724,0.14 0.687,0.14 0.649,0.14 0.612,0.135 0.577,0.124 0.541,0.114 0.508,0.099 0.478,0.079 0.447,0.059 0.42,0.035 0.396,0.008 0.371,-0.02 0.351,-0.051 0.335,-0.085 v -0.336 h 0.181 c 0.035,0 0.07,-0.006 0.104,-0.016 C 0.654,-0.448 0.685,-0.463 0.715,-0.484 0.722,-0.489 0.729,-0.495 0.736,-0.5 0.743,-0.506 0.75,-0.512 0.757,-0.517 0.769,-0.526 0.78,-0.535 0.792,-0.543 0.804,-0.551 0.815,-0.559 0.827,-0.567 0.838,-0.576 0.849,-0.584 0.86,-0.593 0.871,-0.602 0.882,-0.613 0.892,-0.624 Z"
         style="fill:#ffc83d;fill-rule:nonzero"
         id="path4768" /><path
         d="M 1.073,-0.457 C 1.058,-0.457 1.044,-0.459 1.032,-0.465 1.019,-0.47 1.008,-0.478 0.998,-0.487 0.989,-0.497 0.981,-0.508 0.976,-0.521 0.97,-0.533 0.967,-0.547 0.967,-0.562 0.967,-0.571 0.964,-0.58 0.957,-0.586 0.95,-0.593 0.942,-0.596 0.932,-0.596 0.926,-0.596 0.92,-0.594 0.915,-0.591 0.91,-0.588 0.905,-0.583 0.9,-0.578 0.895,-0.573 0.889,-0.567 0.884,-0.561 0.878,-0.555 0.871,-0.55 0.864,-0.544 0.857,-0.539 0.848,-0.535 0.839,-0.531 0.829,-0.528 0.818,-0.526 0.806,-0.526 0.792,-0.526 0.781,-0.528 0.771,-0.531 0.762,-0.535 0.754,-0.539 0.747,-0.544 0.74,-0.55 0.734,-0.555 0.729,-0.562 0.725,-0.568 0.72,-0.573 0.716,-0.579 0.711,-0.584 0.707,-0.588 0.702,-0.592 0.698,-0.595 0.692,-0.597 0.687,-0.597 0.68,-0.597 0.675,-0.595 0.671,-0.592 0.666,-0.588 0.662,-0.584 0.658,-0.579 0.653,-0.573 0.649,-0.568 0.644,-0.562 0.639,-0.555 0.633,-0.55 0.626,-0.544 0.62,-0.539 0.611,-0.535 0.602,-0.531 0.592,-0.528 0.58,-0.526 0.566,-0.526 0.553,-0.526 0.542,-0.528 0.533,-0.531 0.523,-0.535 0.515,-0.539 0.508,-0.544 0.501,-0.55 0.494,-0.555 0.489,-0.561 0.484,-0.567 0.478,-0.573 0.473,-0.578 0.468,-0.583 0.463,-0.588 0.458,-0.591 0.453,-0.594 0.447,-0.596 0.441,-0.596 c -0.01,0 -0.018,0.003 -0.025,0.01 -0.007,0.006 -0.01,0.015 -0.01,0.024 0,0.015 -0.003,0.029 -0.009,0.041 -0.005,0.013 -0.013,0.024 -0.022,0.034 -0.01,0.009 -0.021,0.017 -0.034,0.022 -0.012,0.006 -0.026,0.008 -0.041,0.008 -0.009,0 -0.017,-0.003 -0.024,-0.01 -0.007,-0.007 -0.011,-0.015 -0.011,-0.024 0,-0.01 0.004,-0.018 0.011,-0.025 0.007,-0.007 0.015,-0.01 0.024,-0.01 0.01,0 0.018,-0.004 0.025,-0.011 0.007,-0.007 0.01,-0.015 0.01,-0.025 0,-0.014 0.003,-0.028 0.009,-0.041 0.005,-0.013 0.013,-0.024 0.022,-0.033 0.01,-0.009 0.021,-0.017 0.034,-0.022 0.013,-0.005 0.026,-0.008 0.041,-0.008 0.013,0 0.024,0.002 0.033,0.005 0.01,0.004 0.018,0.008 0.026,0.013 0.007,0.005 0.014,0.011 0.019,0.017 0.006,0.006 0.011,0.011 0.016,0.016 0.005,0.005 0.01,0.01 0.015,0.013 0.005,0.004 0.011,0.005 0.016,0.005 0.007,0 0.013,-0.001 0.017,-0.005 0.005,-0.003 0.01,-0.008 0.014,-0.013 0.005,-0.005 0.01,-0.011 0.015,-0.017 0.005,-0.006 0.01,-0.012 0.017,-0.017 0.007,-0.005 0.015,-0.009 0.024,-0.013 0.009,-0.003 0.021,-0.005 0.034,-0.005 0.013,0 0.024,0.002 0.033,0.005 0.009,0.004 0.017,0.008 0.024,0.013 0.007,0.005 0.012,0.011 0.017,0.017 0.005,0.006 0.01,0.012 0.014,0.017 0.005,0.005 0.01,0.01 0.014,0.013 0.005,0.004 0.011,0.005 0.017,0.005 0.006,0 0.012,-0.001 0.017,-0.005 0.005,-0.003 0.01,-0.008 0.015,-0.013 0.005,-0.005 0.011,-0.01 0.016,-0.016 0.006,-0.006 0.013,-0.012 0.02,-0.017 0.008,-0.005 0.016,-0.009 0.025,-0.013 0.01,-0.003 0.021,-0.005 0.034,-0.005 0.014,0 0.028,0.003 0.041,0.008 0.012,0.005 0.023,0.013 0.033,0.022 0.01,0.01 0.017,0.021 0.023,0.033 0.005,0.013 0.008,0.027 0.008,0.041 0,0.01 0.003,0.018 0.01,0.025 0.007,0.007 0.015,0.011 0.025,0.011 0.009,0 0.017,0.003 0.024,0.01 0.007,0.007 0.01,0.015 0.01,0.025 0,0.009 -0.003,0.017 -0.01,0.024 -0.007,0.007 -0.015,0.01 -0.024,0.01 z"
         style="fill:#ffffff;fill-rule:nonzero"
         id="path4770" /><path
         d="m 0.494,-0.386 c 0.007,0 0.014,0.001 0.02,0.004 0.007,0.003 0.012,0.007 0.017,0.011 0.004,0.005 0.008,0.011 0.011,0.017 0.003,0.007 0.004,0.013 0.004,0.021 v 0.07 c 0,0.007 -0.001,0.014 -0.004,0.02 C 0.539,-0.237 0.535,-0.231 0.531,-0.226 0.526,-0.221 0.52,-0.217 0.514,-0.215 0.508,-0.212 0.501,-0.21 0.494,-0.21 0.486,-0.21 0.48,-0.212 0.473,-0.215 0.467,-0.217 0.461,-0.221 0.457,-0.226 0.452,-0.231 0.448,-0.237 0.445,-0.243 0.442,-0.249 0.441,-0.256 0.441,-0.263 v -0.07 c 0,-0.008 0.001,-0.014 0.004,-0.021 0.003,-0.007 0.007,-0.012 0.011,-0.017 0.005,-0.005 0.011,-0.008 0.017,-0.011 0.006,-0.003 0.013,-0.004 0.021,-0.004 z m 0.385,0 c 0.008,0 0.014,0.001 0.021,0.004 0.006,0.003 0.012,0.006 0.017,0.011 0.004,0.005 0.008,0.01 0.011,0.017 0.003,0.007 0.004,0.013 0.004,0.021 v 0.07 c 0,0.007 -0.001,0.014 -0.004,0.02 C 0.925,-0.237 0.921,-0.231 0.917,-0.226 0.912,-0.221 0.906,-0.217 0.9,-0.215 0.893,-0.212 0.887,-0.21 0.879,-0.21 0.872,-0.21 0.865,-0.212 0.859,-0.215 0.853,-0.217 0.847,-0.221 0.842,-0.226 0.837,-0.231 0.834,-0.237 0.831,-0.243 0.828,-0.249 0.827,-0.256 0.827,-0.263 v -0.07 c 0,-0.008 0.001,-0.014 0.004,-0.021 0.003,-0.006 0.006,-0.012 0.011,-0.017 0.005,-0.004 0.011,-0.008 0.017,-0.011 0.006,-0.003 0.013,-0.004 0.02,-0.004 z"
         style="fill-rule:nonzero"
         id="path4772" /><path
         d="m 0.616,-0.176 h 0.141 c 0,0.01 -0.002,0.019 -0.006,0.028 C 0.747,-0.14 0.742,-0.133 0.736,-0.126 0.73,-0.12 0.722,-0.115 0.714,-0.111 0.705,-0.107 0.696,-0.105 0.687,-0.105 0.677,-0.105 0.668,-0.107 0.659,-0.111 0.651,-0.115 0.643,-0.12 0.637,-0.126 0.631,-0.133 0.626,-0.14 0.622,-0.148 0.618,-0.157 0.616,-0.166 0.616,-0.176 Z"
         style="fill:#f7894a;fill-rule:nonzero"
         id="path4774" /><path
         d="m 0.687,-0.035 c 0.012,0 0.023,-0.002 0.034,-0.006 0.01,-0.003 0.02,-0.007 0.029,-0.011 0.009,-0.005 0.017,-0.009 0.024,-0.013 0.007,-0.003 0.013,-0.005 0.018,-0.005 0.009,0 0.018,0.003 0.025,0.01 0.007,0.007 0.01,0.015 0.01,0.025 0,0.008 -0.002,0.015 -0.008,0.021 C 0.814,-0.007 0.807,-0.001 0.799,0.004 0.79,0.009 0.781,0.014 0.771,0.018 0.76,0.021 0.75,0.025 0.739,0.027 0.729,0.03 0.719,0.032 0.71,0.033 0.7,0.035 0.693,0.035 0.687,0.035 0.68,0.035 0.673,0.035 0.663,0.033 0.654,0.032 0.644,0.03 0.634,0.027 0.623,0.025 0.613,0.021 0.603,0.018 0.592,0.014 0.583,0.009 0.574,0.004 0.566,-0.001 0.559,-0.007 0.554,-0.014 0.549,-0.02 0.546,-0.027 0.546,-0.035 c 0,-0.01 0.003,-0.018 0.01,-0.025 0.007,-0.007 0.016,-0.01 0.025,-0.01 0.005,0 0.011,0.002 0.018,0.005 0.007,0.004 0.015,0.008 0.024,0.013 0.009,0.004 0.019,0.008 0.029,0.011 0.011,0.004 0.022,0.006 0.035,0.006 z"
         style="fill:#f03a17;fill-rule:nonzero"
         id="path4776" /><path
         d="m 0.722,-0.281 h 0.28 c 10e-4,0.002 0.003,0.006 0.005,0.013 0.002,0.006 0.004,0.014 0.007,0.021 0.002,0.008 0.005,0.015 0.007,0.021 0.001,0.006 0.002,0.01 0.002,0.01 0,0.008 -0.002,0.016 -0.005,0.023 -0.004,0.007 -0.009,0.013 -0.016,0.019 -0.006,0.005 -0.013,0.009 -0.021,0.012 -0.007,0.003 -0.015,0.005 -0.023,0.005 H 0.808 C 0.799,-0.158 0.792,-0.16 0.784,-0.164 0.777,-0.167 0.771,-0.171 0.765,-0.177 0.759,-0.182 0.755,-0.188 0.751,-0.195 0.748,-0.202 0.747,-0.21 0.747,-0.218 Z m -0.366,0.06 c 0,-0.001 0.001,-0.005 0.002,-0.011 0.001,-0.005 0.003,-0.011 0.004,-0.018 0.002,-0.007 0.004,-0.013 0.005,-0.019 0.002,-0.006 0.003,-0.01 0.004,-0.012 h 0.28 l -0.024,0.057 c 0,0.008 -0.001,0.016 -0.004,0.023 -0.004,0.008 -0.008,0.015 -0.014,0.021 -0.005,0.006 -0.012,0.01 -0.019,0.014 -0.007,0.004 -0.015,0.006 -0.023,0.006 -0.024,0 -0.044,0 -0.06,0 -0.017,0 -0.031,0 -0.041,0.001 -0.011,0 -0.02,0 -0.026,0 H 0.419 c -0.002,0 -0.004,0 -0.006,-0.001 -0.002,0 -0.004,-0.001 -0.006,-0.002 -10e-4,0 -10e-4,0 -10e-4,0 0,0 0,0 -0.001,0 C 0.399,-0.164 0.392,-0.167 0.386,-0.171 0.38,-0.175 0.375,-0.179 0.371,-0.184 0.366,-0.189 0.362,-0.194 0.36,-0.201 0.357,-0.207 0.356,-0.214 0.356,-0.221 Z"
         style="fill:#b3dbf2;fill-rule:nonzero"
         id="path4778" /><path
         d="m 1.002,-0.281 h 0.036 v 0.053 c 0,0.013 -0.003,0.025 -0.007,0.036 -0.004,0.01 -0.01,0.02 -0.018,0.027 -0.008,0.008 -0.017,0.014 -0.028,0.018 -0.011,0.004 -0.023,0.006 -0.035,0.006 H 0.81 C 0.797,-0.141 0.785,-0.143 0.774,-0.147 0.764,-0.151 0.754,-0.157 0.747,-0.165 0.739,-0.172 0.733,-0.182 0.728,-0.192 0.724,-0.203 0.722,-0.215 0.722,-0.228 v -0.018 c 0,-0.009 -0.004,-0.018 -0.011,-0.025 -0.006,-0.006 -0.015,-0.01 -0.024,-0.01 -0.01,0 -0.019,0.004 -0.025,0.01 -0.007,0.007 -0.011,0.016 -0.011,0.025 v 0.018 c 0,0.013 -0.002,0.025 -0.006,0.036 -0.005,0.01 -0.011,0.02 -0.019,0.027 -0.007,0.008 -0.017,0.014 -0.027,0.018 -0.011,0.004 -0.023,0.006 -0.036,0.006 H 0.423 C 0.411,-0.141 0.399,-0.143 0.388,-0.147 0.377,-0.151 0.368,-0.157 0.36,-0.165 0.353,-0.172 0.346,-0.182 0.342,-0.192 0.338,-0.203 0.335,-0.215 0.335,-0.228 V -0.281 H 0.371 L 0.37,-0.247 c 0,0.01 0.001,0.019 0.002,0.028 0.001,0.008 0.004,0.016 0.008,0.022 0.003,0.007 0.009,0.012 0.016,0.016 0.007,0.003 0.016,0.005 0.027,0.005 h 0.14 c 0.012,0 0.022,-0.002 0.029,-0.005 0.007,-0.004 0.012,-0.009 0.016,-0.015 0.003,-0.006 0.006,-0.014 0.007,-0.022 0.001,-0.009 0.001,-0.018 0.001,-0.028 0,-0.009 0.002,-0.018 0.006,-0.027 0.004,-0.008 0.009,-0.016 0.015,-0.022 0.006,-0.007 0.014,-0.012 0.022,-0.015 0.009,-0.004 0.018,-0.006 0.028,-0.006 0.009,0 0.018,0.002 0.027,0.006 0.008,0.003 0.016,0.008 0.022,0.015 0.006,0.006 0.011,0.014 0.015,0.022 0.004,0.009 0.006,0.018 0.006,0.027 0,0.01 0,0.019 0.001,0.028 0.001,0.008 0.004,0.016 0.007,0.022 0.004,0.006 0.009,0.011 0.016,0.015 0.007,0.003 0.017,0.005 0.029,0.005 h 0.14 c 0.011,0 0.021,-0.002 0.028,-0.006 C 0.985,-0.186 0.991,-0.191 0.994,-0.198 0.998,-0.204 1,-0.212 1.001,-0.22 1.002,-0.229 1.003,-0.238 1.003,-0.247 Z"
         style="fill:#757575;fill-rule:nonzero"
         id="path4780" /></g></g></svg>
