<?xml version="1.0" encoding="UTF-8" standalone="no"?>
<svg
   width="13.695"
   height="16.844999"
   viewBox="0 0 13.695 16.844999"
   version="1.1"
   xml:space="preserve"
   style="clip-rule:evenodd;fill-rule:evenodd;stroke-linejoin:round;stroke-miterlimit:2"
   id="svg20568"
   sodipodi:docname="emojis.svg"
   xmlns:inkscape="http://www.inkscape.org/namespaces/inkscape"
   xmlns:sodipodi="http://sodipodi.sourceforge.net/DTD/sodipodi-0.dtd"
   xmlns="http://www.w3.org/2000/svg"
   xmlns:svg="http://www.w3.org/2000/svg"><defs
     id="defs20572" /><sodipodi:namedview
     id="namedview20570"
     pagecolor="#505050"
     bordercolor="#eeeeee"
     borderopacity="1"
     inkscape:pageshadow="0"
     inkscape:pageopacity="0"
     inkscape:pagecheckerboard="0" /><g
     transform="matrix(0.24,0,0,0.24,-125.75028,-246.4818)"
     id="g20566"><g
       transform="matrix(62.5,0,0,62.5,516.147,1084.07)"
       id="g4810"><path
         d="M 0.993,-0.026 C 0.999,-0.019 1.004,-0.012 1.01,-0.004 1.015,0.003 1.02,0.01 1.024,0.018 1.028,0.025 1.031,0.034 1.034,0.042 1.036,0.05 1.038,0.06 1.038,0.069 1.038,0.084 1.035,0.098 1.029,0.111 1.024,0.123 1.016,0.135 1.007,0.144 0.997,0.154 0.986,0.161 0.973,0.167 0.961,0.173 0.947,0.175 0.932,0.175 0.92,0.175 0.909,0.173 0.899,0.17 0.889,0.166 0.879,0.161 0.87,0.155 0.861,0.149 0.852,0.142 0.843,0.135 0.835,0.128 0.826,0.121 0.817,0.114 0.813,0.123 0.808,0.132 0.801,0.139 0.794,0.147 0.787,0.153 0.778,0.158 0.77,0.164 0.761,0.168 0.751,0.171 0.742,0.174 0.732,0.175 0.722,0.175 V 0.21 H 0.441 V 0.175 C 0.42,0.175 0.401,0.17 0.384,0.159 0.367,0.148 0.354,0.133 0.345,0.114 0.336,0.121 0.328,0.128 0.319,0.135 0.311,0.142 0.302,0.149 0.293,0.155 0.283,0.161 0.274,0.166 0.263,0.17 0.253,0.173 0.242,0.175 0.23,0.175 0.216,0.175 0.202,0.173 0.189,0.167 0.177,0.161 0.166,0.154 0.156,0.145 0.146,0.135 0.139,0.124 0.134,0.111 0.128,0.098 0.125,0.084 0.125,0.07 0.125,0.06 0.127,0.052 0.129,0.044 0.131,0.036 0.134,0.028 0.137,0.021 0.141,0.014 0.145,0.007 0.15,0 0.154,-0.006 0.16,-0.013 0.165,-0.02 L 0.17,-0.026 C 0.167,-0.034 0.165,-0.041 0.163,-0.048 0.161,-0.056 0.16,-0.063 0.16,-0.071 c 0,-0.022 0.007,-0.042 0.02,-0.06 L 0.247,-0.225 C 0.241,-0.234 0.237,-0.243 0.234,-0.252 0.232,-0.261 0.23,-0.271 0.23,-0.281 c 0,-0.011 0.002,-0.023 0.006,-0.033 0.004,-0.01 0.009,-0.02 0.016,-0.03 L 0.307,-0.42 C 0.303,-0.432 0.301,-0.444 0.301,-0.457 0.301,-0.469 0.303,-0.48 0.306,-0.49 0.31,-0.5 0.315,-0.51 0.322,-0.519 L 0.44,-0.685 C 0.43,-0.694 0.421,-0.704 0.415,-0.716 0.409,-0.727 0.406,-0.74 0.406,-0.755 c 0,-0.012 0.002,-0.023 0.007,-0.033 0.004,-0.011 0.01,-0.02 0.018,-0.028 0.008,-0.008 0.017,-0.014 0.027,-0.019 0.011,-0.005 0.022,-0.007 0.034,-0.007 0.005,-0.01 0.01,-0.02 0.015,-0.028 0.005,-0.009 0.012,-0.016 0.018,-0.023 0.007,-0.006 0.015,-0.011 0.024,-0.014 0.009,-0.004 0.02,-0.006 0.033,-0.006 0.012,0 0.023,0.002 0.032,0.006 0.009,0.003 0.017,0.008 0.024,0.014 0.007,0.007 0.013,0.014 0.018,0.023 0.005,0.008 0.011,0.018 0.015,0.028 0.012,0 0.023,0.002 0.034,0.007 0.01,0.005 0.019,0.011 0.027,0.019 0.008,0.008 0.014,0.017 0.018,0.028 0.005,0.01 0.007,0.021 0.007,0.033 0,0.015 -0.003,0.028 -0.009,0.039 -0.007,0.011 -0.015,0.022 -0.025,0.032 l 0.118,0.166 c 0.007,0.009 0.012,0.019 0.016,0.029 0.003,0.01 0.005,0.021 0.005,0.032 0,0.007 0,0.013 -0.001,0.019 -0.002,0.006 -0.003,0.012 -0.005,0.018 l 0.056,0.078 c 0.006,0.009 0.011,0.019 0.015,0.029 0.003,0.01 0.005,0.021 0.005,0.032 0,0.01 -0.001,0.02 -0.004,0.029 -0.002,0.009 -0.006,0.018 -0.012,0.027 l 0.067,0.094 c 0.013,0.018 0.019,0.038 0.019,0.06 0,0.008 0,0.015 -0.002,0.023 -0.002,0.007 -0.004,0.014 -0.007,0.022 z"
         style="fill-rule:nonzero"
         id="path4796" /><rect
         x="0.51099998"
         y="-0.037"
         width="0.14"
         height="0.177"
         style="fill:#ca5010;fill-rule:nonzero"
         id="rect4798" /><path
         d="M 0.9,-0.036 0.961,0.05 c 0.004,0.006 0.006,0.013 0.006,0.02 0,0.01 -0.003,0.018 -0.01,0.025 C 0.95,0.102 0.942,0.105 0.932,0.105 0.924,0.105 0.917,0.103 0.911,0.098 L 0.757,-0.022 V 0.07 c 0,0.01 -0.004,0.018 -0.01,0.025 C 0.74,0.102 0.731,0.105 0.722,0.105 0.711,0.105 0.702,0.101 0.695,0.093 L 0.582,-0.035 0.467,0.093 C 0.46,0.101 0.451,0.105 0.441,0.105 0.431,0.105 0.423,0.102 0.416,0.095 0.409,0.088 0.406,0.08 0.406,0.07 V -0.022 L 0.252,0.098 C 0.245,0.103 0.238,0.105 0.23,0.105 0.221,0.105 0.212,0.102 0.206,0.095 0.199,0.088 0.195,0.08 0.195,0.07 c 0,-0.004 0.001,-0.008 0.002,-0.01 0,-0.003 0.002,-0.007 0.005,-0.01 l 0.061,-0.086 c -0.01,0 -0.017,-0.004 -0.023,-0.01 -0.007,-0.007 -0.01,-0.015 -0.01,-0.024 0,-0.005 0.001,-0.008 0.002,-0.011 0.001,-0.003 0.002,-0.006 0.005,-0.01 l 0.111,-0.155 c -0.007,0 -0.012,0 -0.018,-0.001 C 0.325,-0.248 0.32,-0.25 0.315,-0.252 0.311,-0.255 0.307,-0.259 0.305,-0.263 0.302,-0.268 0.301,-0.274 0.301,-0.281 c 0,-0.004 0,-0.007 0.002,-0.011 0.001,-0.003 0.003,-0.007 0.005,-0.01 L 0.395,-0.423 C 0.388,-0.426 0.382,-0.43 0.378,-0.436 0.373,-0.442 0.371,-0.449 0.371,-0.457 c 0,-0.003 0,-0.007 0.002,-0.011 0.001,-0.003 0.003,-0.006 0.005,-0.009 l 0.175,-0.245 c 0.003,-0.004 0.008,-0.008 0.013,-0.011 0.005,-0.003 0.01,-0.004 0.016,-0.004 0.005,0 0.01,0.001 0.015,0.004 0.005,0.003 0.009,0.007 0.012,0.011 l 0.175,0.245 c 0,0.001 0.001,0.001 0.002,0.002 0.002,0.003 0.003,0.006 0.004,0.008 0.001,0.003 0.002,0.006 0.002,0.01 0,0.008 -0.002,0.015 -0.007,0.021 -0.005,0.006 -0.011,0.01 -0.017,0.013 l 0.086,0.121 c 0.003,0.003 0.005,0.007 0.006,0.01 0.002,0.004 0.002,0.007 0.002,0.011 0,0.007 -0.001,0.013 -0.004,0.018 -0.002,0.004 -0.006,0.008 -0.01,0.011 -0.004,0.002 -0.01,0.004 -0.015,0.005 -0.006,0.001 -0.012,0.001 -0.018,0.001 l 0.111,0.155 c 0.002,0.004 0.004,0.007 0.005,0.01 0.001,0.003 0.001,0.006 0.001,0.011 0,0.009 -0.003,0.017 -0.009,0.024 -0.006,0.006 -0.014,0.01 -0.023,0.01 z"
         style="fill:#13a10e;fill-rule:nonzero"
         id="path4800" /><path
         d="m 0.705,-0.176 c 0.007,0 0.014,0.002 0.02,0.004 0.006,0.003 0.012,0.007 0.017,0.012 0.005,0.005 0.008,0.01 0.011,0.017 0.003,0.006 0.004,0.013 0.004,0.02 0,0.007 -0.001,0.014 -0.004,0.02 C 0.75,-0.096 0.747,-0.091 0.742,-0.086 0.737,-0.081 0.731,-0.077 0.725,-0.074 0.719,-0.072 0.712,-0.07 0.705,-0.07 0.697,-0.07 0.69,-0.072 0.684,-0.074 0.677,-0.077 0.672,-0.081 0.667,-0.086 0.663,-0.09 0.659,-0.096 0.656,-0.102 0.653,-0.109 0.652,-0.116 0.652,-0.123 0.652,-0.13 0.653,-0.137 0.656,-0.143 0.659,-0.15 0.663,-0.155 0.667,-0.16 0.672,-0.165 0.678,-0.169 0.684,-0.172 0.691,-0.174 0.697,-0.176 0.705,-0.176 Z M 0.599,-0.562 c 0.007,0 0.014,0.002 0.021,0.005 0.006,0.002 0.012,0.006 0.016,0.011 0.005,0.005 0.009,0.01 0.012,0.017 0.002,0.006 0.004,0.013 0.004,0.02 0,0.008 -0.002,0.015 -0.004,0.021 -0.003,0.006 -0.007,0.012 -0.012,0.016 -0.005,0.005 -0.01,0.009 -0.017,0.011 -0.006,0.003 -0.013,0.004 -0.02,0.004 -0.007,0 -0.014,-0.001 -0.02,-0.004 C 0.573,-0.463 0.567,-0.467 0.562,-0.472 0.557,-0.477 0.553,-0.482 0.551,-0.489 0.548,-0.495 0.546,-0.502 0.546,-0.509 c 0,-0.007 0.002,-0.014 0.005,-0.02 0.002,-0.006 0.006,-0.012 0.011,-0.017 0.005,-0.005 0.011,-0.009 0.017,-0.011 0.006,-0.003 0.013,-0.005 0.02,-0.005 z"
         style="fill:#f03a17;fill-rule:nonzero"
         id="path4802" /><path
         d="m 0.669,-0.351 c 0.008,0 0.014,0.001 0.021,0.004 0.006,0.003 0.012,0.007 0.017,0.011 0.005,0.005 0.008,0.011 0.011,0.017 0.003,0.007 0.004,0.013 0.004,0.021 0,0.007 -0.001,0.014 -0.004,0.02 C 0.715,-0.272 0.711,-0.266 0.707,-0.261 0.702,-0.256 0.696,-0.253 0.69,-0.25 0.683,-0.247 0.677,-0.246 0.669,-0.246 0.662,-0.246 0.656,-0.247 0.649,-0.25 0.643,-0.253 0.637,-0.256 0.632,-0.261 0.627,-0.266 0.624,-0.272 0.621,-0.278 0.618,-0.284 0.617,-0.291 0.617,-0.298 c 0,-0.008 0.001,-0.014 0.004,-0.021 0.003,-0.006 0.006,-0.012 0.011,-0.017 0.005,-0.004 0.01,-0.008 0.017,-0.011 0.006,-0.003 0.013,-0.004 0.02,-0.004 z M 0.424,-0.21 c 0.007,0 0.014,0.001 0.02,0.004 0.006,0.002 0.012,0.006 0.017,0.011 0.005,0.005 0.009,0.01 0.011,0.017 0.003,0.006 0.005,0.013 0.005,0.02 0,0.007 -0.002,0.014 -0.005,0.02 C 0.47,-0.132 0.466,-0.126 0.461,-0.121 0.456,-0.116 0.45,-0.112 0.444,-0.11 0.438,-0.107 0.431,-0.105 0.424,-0.105 0.416,-0.105 0.409,-0.107 0.403,-0.11 0.397,-0.112 0.391,-0.116 0.386,-0.121 0.382,-0.126 0.378,-0.131 0.375,-0.137 0.372,-0.144 0.371,-0.151 0.371,-0.158 0.371,-0.165 0.372,-0.172 0.375,-0.179 0.378,-0.185 0.382,-0.191 0.387,-0.195 0.392,-0.2 0.397,-0.204 0.404,-0.206 0.41,-0.209 0.417,-0.21 0.424,-0.21 Z"
         style="fill:#fce100;fill-rule:nonzero"
         id="path4804" /><path
         d="m 0.546,-0.369 c 0,0.008 -0.001,0.014 -0.004,0.021 C 0.539,-0.342 0.536,-0.336 0.531,-0.332 0.527,-0.327 0.521,-0.323 0.515,-0.32 0.508,-0.317 0.501,-0.316 0.494,-0.316 0.487,-0.316 0.48,-0.317 0.473,-0.32 0.467,-0.323 0.462,-0.327 0.457,-0.331 0.452,-0.336 0.448,-0.342 0.446,-0.348 0.443,-0.354 0.441,-0.361 0.441,-0.369 c 0,-0.007 0.002,-0.014 0.005,-0.02 0.002,-0.006 0.006,-0.012 0.011,-0.017 0.005,-0.005 0.011,-0.008 0.017,-0.011 0.006,-0.003 0.013,-0.004 0.02,-0.004 0.007,0 0.014,0.001 0.02,0.004 0.007,0.003 0.012,0.006 0.017,0.011 0.005,0.005 0.008,0.011 0.011,0.017 0.003,0.006 0.004,0.013 0.004,0.02 z"
         style="fill:#00bcf2;fill-rule:nonzero"
         id="path4806" /><path
         d="m 0.652,-0.712 v 0.063 c 0,0.004 -0.002,0.009 -0.006,0.012 -0.003,0.003 -0.007,0.005 -0.012,0.005 -0.005,0 -0.009,-0.001 -0.012,-0.005 l -0.04,-0.04 -0.04,0.04 C 0.538,-0.633 0.534,-0.632 0.529,-0.632 0.524,-0.632 0.52,-0.634 0.517,-0.637 0.513,-0.64 0.511,-0.645 0.511,-0.649 v -0.063 l -0.03,-0.03 C 0.478,-0.745 0.477,-0.75 0.477,-0.755 c 0,-0.005 0.001,-0.009 0.005,-0.012 0.003,-0.003 0.007,-0.005 0.012,-0.005 h 0.041 l 0.031,-0.061 c 0.002,-0.003 0.004,-0.005 0.007,-0.007 0.003,-0.001 0.006,-0.002 0.009,-0.002 0.002,0 0.005,0.001 0.008,0.002 0.003,0.002 0.006,0.004 0.007,0.007 l 0.031,0.061 h 0.041 c 0.005,0 0.009,0.002 0.013,0.005 0.003,0.004 0.005,0.008 0.005,0.013 0,0.004 -0.002,0.008 -0.005,0.012 z"
         style="fill:#fff100;fill-rule:nonzero"
         id="path4808" /></g></g></svg>
