<?xml version="1.0" encoding="UTF-8" standalone="no"?>
<svg
   width="16.32"
   height="16.844999"
   viewBox="0 0 16.32 16.844999"
   version="1.1"
   xml:space="preserve"
   style="clip-rule:evenodd;fill-rule:evenodd;stroke-linejoin:round;stroke-miterlimit:2"
   id="svg20568"
   sodipodi:docname="emojis.svg"
   xmlns:inkscape="http://www.inkscape.org/namespaces/inkscape"
   xmlns:sodipodi="http://sodipodi.sourceforge.net/DTD/sodipodi-0.dtd"
   xmlns="http://www.w3.org/2000/svg"
   xmlns:svg="http://www.w3.org/2000/svg"><defs
     id="defs20572" /><sodipodi:namedview
     id="namedview20570"
     pagecolor="#505050"
     bordercolor="#eeeeee"
     borderopacity="1"
     inkscape:pageshadow="0"
     inkscape:pageopacity="0"
     inkscape:pagecheckerboard="0" /><g
     transform="matrix(0.24,0,0,0.24,-143.18916,-246.4818)"
     id="g20566"><g
       transform="matrix(62.5,0,0,62.5,588.809,1084.07)"
       id="g4830"><path
         d="m 1,-0.247 c 0.033,0.022 0.063,0.046 0.089,0.074 0.027,0.029 0.049,0.059 0.067,0.092 0.019,0.034 0.033,0.069 0.042,0.106 0.01,0.037 0.015,0.076 0.015,0.115 V 0.21 H 0.125 V 0.024 c 0,-0.036 0.006,-0.072 0.019,-0.106 0.013,-0.035 0.032,-0.066 0.056,-0.094 0.006,-0.007 0.012,-0.013 0.019,-0.019 0.007,-0.006 0.013,-0.012 0.02,-0.018 L 0.333,-0.308 C 0.322,-0.324 0.313,-0.339 0.305,-0.355 0.297,-0.371 0.291,-0.387 0.287,-0.404 0.282,-0.42 0.279,-0.438 0.277,-0.455 0.275,-0.473 0.274,-0.491 0.274,-0.51 0.263,-0.516 0.253,-0.524 0.245,-0.533 0.236,-0.542 0.229,-0.551 0.223,-0.562 0.217,-0.572 0.212,-0.584 0.209,-0.595 0.206,-0.607 0.204,-0.619 0.204,-0.632 v -0.105 h 0.103 c 0.012,-0.025 0.027,-0.049 0.047,-0.07 0.019,-0.021 0.042,-0.04 0.066,-0.055 0.024,-0.016 0.05,-0.028 0.078,-0.037 0.028,-0.009 0.055,-0.014 0.083,-0.014 0.035,0 0.068,0.005 0.1,0.014 0.031,0.009 0.062,0.024 0.091,0.044 0.025,-0.015 0.052,-0.022 0.081,-0.022 0.022,0 0.042,0.004 0.062,0.012 0.019,0.008 0.036,0.02 0.05,0.034 0.014,0.014 0.025,0.031 0.034,0.05 0.008,0.019 0.012,0.039 0.012,0.061 v 0.229 h 0.071 v 0.087 c 0,0.032 -0.008,0.061 -0.022,0.089 -0.014,0.027 -0.034,0.05 -0.06,0.068 z"
         style="fill-rule:nonzero"
         id="path4812" /><path
         d="m 1.107,0.14 h -0.14 l -0.21,-0.362 c 0.031,0 0.063,0.004 0.093,0.012 0.031,0.007 0.06,0.019 0.088,0.033 0.027,0.014 0.053,0.032 0.076,0.052 0.024,0.021 0.044,0.044 0.061,0.069 0.017,0.026 0.03,0.053 0.04,0.083 0.01,0.03 0.014,0.062 0.014,0.095 z"
         style="fill:#af0d1a;fill-rule:nonzero"
         id="path4814" /><path
         d="m 0.732,-0.21 c 0.032,0 0.064,0.006 0.094,0.019 0.012,0.018 0.022,0.035 0.03,0.052 0.008,0.016 0.014,0.033 0.019,0.05 0.005,0.017 0.008,0.035 0.01,0.053 0.002,0.019 0.003,0.039 0.003,0.06 L 0.827,0.14 H 0.335 L 0.265,0.024 c 0,-0.025 0.001,-0.046 0.003,-0.064 C 0.27,-0.058 0.273,-0.075 0.278,-0.09 0.284,-0.106 0.291,-0.122 0.3,-0.137 0.309,-0.152 0.321,-0.17 0.335,-0.191 0.35,-0.197 0.366,-0.202 0.382,-0.206 0.397,-0.209 0.414,-0.21 0.43,-0.21 Z"
         style="fill:#f2f2f2;fill-rule:nonzero"
         id="path4816" /><path
         d="m 0.793,-0.244 c 0.033,0.003 0.065,0.01 0.095,0.021 0.03,0.011 0.058,0.025 0.084,0.043 0.026,0.017 0.049,0.037 0.07,0.061 0.021,0.023 0.039,0.048 0.054,0.076 0.015,0.027 0.026,0.056 0.034,0.087 0.009,0.031 0.013,0.063 0.013,0.096 H 1.107 C 1.107,0.099 1.101,0.06 1.087,0.023 1.074,-0.014 1.055,-0.048 1.031,-0.078 1.008,-0.108 0.979,-0.134 0.946,-0.156 0.912,-0.177 0.876,-0.193 0.836,-0.202 l 0.008,0.009 -0.263,0.123 -0.263,-0.123 0.07,-0.07 0.018,0.017 h 0.351 l 0.017,-0.017 z"
         style="fill:#e81224;fill-rule:nonzero"
         id="path4818" /><path
         d="m 0.853,-0.807 c 0.012,0 0.023,0.002 0.034,0.007 0.011,0.004 0.02,0.011 0.028,0.019 0.008,0.007 0.015,0.017 0.019,0.027 0.005,0.011 0.007,0.022 0.007,0.034 v 0.229 c 0,0.01 0.002,0.019 0.006,0.027 0.003,0.009 0.008,0.016 0.015,0.022 0.006,0.007 0.013,0.012 0.022,0.015 0.008,0.004 0.017,0.006 0.027,0.006 v 0.017 c 0,0.017 -0.003,0.033 -0.01,0.048 -0.006,0.015 -0.015,0.028 -0.026,0.039 -0.011,0.011 -0.024,0.02 -0.039,0.026 -0.015,0.007 -0.031,0.01 -0.048,0.01 -0.015,0 -0.03,-0.002 -0.043,-0.008 C 0.831,-0.294 0.819,-0.302 0.808,-0.311 0.797,-0.32 0.788,-0.332 0.781,-0.344 0.774,-0.357 0.769,-0.371 0.767,-0.386 v -0.123 h -0.3 L 0.344,-0.562 c -0.01,0 -0.019,-10e-4 -0.027,-0.005 C 0.308,-0.571 0.301,-0.576 0.295,-0.582 0.288,-0.589 0.283,-0.596 0.28,-0.604 0.276,-0.613 0.274,-0.622 0.274,-0.632 v -0.035 h 0.08 c 0.008,-0.026 0.02,-0.05 0.035,-0.071 0.015,-0.022 0.033,-0.04 0.054,-0.056 0.021,-0.015 0.044,-0.027 0.069,-0.036 0.025,-0.008 0.051,-0.012 0.078,-0.012 0.035,0 0.069,0.007 0.101,0.021 0.033,0.015 0.06,0.036 0.084,0.062 0.007,-0.015 0.018,-0.027 0.032,-0.035 0.014,-0.009 0.029,-0.013 0.046,-0.013 z"
         style="fill:#8e562e;fill-rule:nonzero"
         id="path4820" /><path
         d="M 0.826,-0.421 C 0.818,-0.395 0.806,-0.372 0.791,-0.35 0.775,-0.329 0.757,-0.31 0.737,-0.295 0.716,-0.279 0.693,-0.267 0.668,-0.259 0.643,-0.25 0.617,-0.246 0.59,-0.246 0.563,-0.246 0.536,-0.25 0.511,-0.259 0.487,-0.267 0.464,-0.279 0.443,-0.295 0.422,-0.31 0.404,-0.329 0.389,-0.35 0.374,-0.372 0.362,-0.395 0.354,-0.421 l 0.212,-0.113 0.039,-0.062 c 0.021,-0.011 0.04,-0.024 0.058,-0.039 0.018,-0.015 0.035,-0.031 0.05,-0.05 l 0.088,0.088 z M 0.722,-0.21 0.581,-0.07 0.441,-0.21 Z m 0.105,0.245 0.07,-0.039 0.07,0.039 V 0.14 h -0.14 z m -0.632,0 0.07,-0.039 0.07,0.039 V 0.14 h -0.14 z"
         style="fill:#ffc83d;fill-rule:nonzero"
         id="path4822" /><path
         d="M 0.59,-0.316 C 0.585,-0.316 0.579,-0.317 0.571,-0.319 0.563,-0.32 0.555,-0.323 0.548,-0.326 0.54,-0.33 0.533,-0.334 0.528,-0.339 0.522,-0.344 0.52,-0.349 0.52,-0.355 c 0,-0.005 0.001,-0.008 0.005,-0.012 0.003,-0.003 0.007,-0.005 0.012,-0.005 0.003,0 0.006,0.002 0.009,0.004 0.003,0.002 0.006,0.005 0.01,0.007 0.004,0.003 0.009,0.005 0.014,0.007 0.005,0.003 0.012,0.004 0.02,0.004 0.008,0 0.014,-0.001 0.02,-0.004 0.005,-0.002 0.01,-0.004 0.014,-0.007 0.004,-0.002 0.007,-0.005 0.011,-0.007 0.003,-0.002 0.006,-0.004 0.009,-0.004 0.004,0 0.008,0.002 0.011,0.005 0.004,0.004 0.005,0.007 0.005,0.012 0,0.006 -0.003,0.012 -0.008,0.016 C 0.646,-0.334 0.64,-0.33 0.632,-0.326 0.625,-0.323 0.617,-0.32 0.609,-0.319 0.601,-0.317 0.595,-0.316 0.59,-0.316 Z m 0.035,-0.141 c 0,0.01 -0.003,0.019 -0.01,0.025 C 0.608,-0.425 0.6,-0.421 0.59,-0.421 0.581,-0.421 0.572,-0.425 0.565,-0.432 0.559,-0.438 0.555,-0.447 0.555,-0.457 L 0.59,-0.491 Z"
         style="fill:#f7894a;fill-rule:nonzero"
         id="path4824" /><path
         d="m 0.835,-0.597 v 0.106 c 0,0.023 -0.003,0.047 -0.009,0.07 H 0.675 C 0.669,-0.421 0.664,-0.423 0.66,-0.425 0.655,-0.427 0.651,-0.43 0.647,-0.434 0.643,-0.437 0.639,-0.441 0.635,-0.445 0.632,-0.449 0.628,-0.453 0.625,-0.457 H 0.555 C 0.551,-0.453 0.548,-0.449 0.544,-0.445 0.541,-0.441 0.537,-0.437 0.533,-0.434 0.529,-0.43 0.525,-0.427 0.52,-0.425 0.515,-0.423 0.511,-0.421 0.505,-0.421 H 0.354 C 0.351,-0.433 0.349,-0.444 0.347,-0.456 0.345,-0.468 0.344,-0.479 0.344,-0.491 v -0.071 l 0.082,0.001 h 0.021 c 0.007,0 0.013,0 0.02,-0.001 0.026,0 0.05,-0.004 0.072,-0.009 0.023,-0.005 0.045,-0.014 0.067,-0.026 z m 0.132,0.632 h -0.14 v -0.22 l 0.006,-0.003 c 0.022,0.011 0.042,0.024 0.059,0.039 0.017,0.016 0.031,0.033 0.042,0.052 0.011,0.02 0.019,0.04 0.025,0.062 0.006,0.022 0.008,0.046 0.008,0.07 z m -0.632,-0.22 v 0.22 H 0.195 V 0.024 c 0,-0.022 0.003,-0.044 0.01,-0.066 0.006,-0.021 0.015,-0.041 0.027,-0.059 0.011,-0.019 0.025,-0.035 0.042,-0.05 0.017,-0.015 0.035,-0.027 0.056,-0.037 z"
         style="fill:#3a96dd;fill-rule:nonzero"
         id="path4826" /><path
         d="m 0.66,-0.526 c 0,-0.01 0.004,-0.018 0.01,-0.025 0.007,-0.007 0.016,-0.011 0.025,-0.011 0.01,0 0.018,0.004 0.025,0.011 0.007,0.007 0.01,0.015 0.01,0.025 v 0.035 c 0,0.009 -0.003,0.017 -0.01,0.024 -0.007,0.007 -0.015,0.01 -0.025,0.01 -0.009,0 -0.017,-0.003 -0.024,-0.01 C 0.664,-0.474 0.66,-0.482 0.66,-0.491 Z M 0.485,-0.562 c 0.009,0 0.018,0.004 0.025,0.011 0.007,0.007 0.01,0.015 0.01,0.025 v 0.035 c 0,0.009 -0.003,0.017 -0.01,0.024 -0.007,0.007 -0.016,0.01 -0.025,0.01 -0.01,0 -0.018,-0.003 -0.025,-0.01 C 0.453,-0.474 0.45,-0.482 0.45,-0.491 v -0.035 c 0,-0.01 0.003,-0.018 0.01,-0.025 0.007,-0.007 0.015,-0.011 0.025,-0.011 z"
         style="fill-rule:nonzero"
         id="path4828" /></g></g></svg>
