<?xml version="1.0" encoding="UTF-8" standalone="no"?>
<svg
   width="16.844999"
   height="16.844999"
   viewBox="0 0 16.844999 16.844999"
   version="1.1"
   xml:space="preserve"
   style="clip-rule:evenodd;fill-rule:evenodd;stroke-linejoin:round;stroke-miterlimit:2"
   id="svg20568"
   sodipodi:docname="emojis.svg"
   xmlns:inkscape="http://www.inkscape.org/namespaces/inkscape"
   xmlns:sodipodi="http://sodipodi.sourceforge.net/DTD/sodipodi-0.dtd"
   xmlns="http://www.w3.org/2000/svg"
   xmlns:svg="http://www.w3.org/2000/svg"><defs
     id="defs20572" /><sodipodi:namedview
     id="namedview20570"
     pagecolor="#505050"
     bordercolor="#eeeeee"
     borderopacity="1"
     inkscape:pageshadow="0"
     inkscape:pageopacity="0"
     inkscape:pagecheckerboard="0" /><g
     transform="matrix(0.24,0,0,0.24,-116.19204,-93.74892)"
     id="g20566"><g
       transform="matrix(62.5,0,0,62.5,476.321,447.683)"
       id="g484"><path
         d="m 1.248,-0.351 c 0,0.059 -0.009,0.116 -0.027,0.172 0.009,0.017 0.016,0.034 0.02,0.053 0.005,0.018 0.007,0.036 0.007,0.056 0,0.026 -0.005,0.051 -0.015,0.075 C 1.223,0.028 1.209,0.049 1.192,0.066 1.174,0.084 1.154,0.097 1.13,0.107 1.107,0.118 1.082,0.123 1.055,0.123 1.036,0.123 1.018,0.12 1,0.115 0.953,0.147 0.903,0.171 0.851,0.187 0.798,0.202 0.743,0.21 0.687,0.21 0.635,0.21 0.585,0.204 0.537,0.19 0.489,0.177 0.445,0.158 0.403,0.134 0.362,0.109 0.324,0.08 0.29,0.046 0.255,0.012 0.226,-0.026 0.202,-0.068 0.177,-0.109 0.158,-0.154 0.145,-0.202 0.132,-0.25 0.125,-0.299 0.125,-0.351 c 0,-0.052 0.007,-0.102 0.02,-0.149 0.013,-0.048 0.032,-0.093 0.057,-0.135 0.024,-0.041 0.053,-0.079 0.088,-0.113 0.034,-0.034 0.072,-0.064 0.113,-0.088 0.042,-0.024 0.086,-0.043 0.134,-0.057 0.048,-0.013 0.098,-0.02 0.15,-0.02 0.051,0 0.101,0.007 0.149,0.02 0.048,0.014 0.092,0.033 0.134,0.057 0.041,0.024 0.079,0.054 0.113,0.088 0.035,0.034 0.064,0.072 0.088,0.113 0.025,0.042 0.044,0.087 0.057,0.135 0.013,0.047 0.02,0.097 0.02,0.149 z"
         style="fill-rule:nonzero"
         id="path474" /><path
         d="m 1.178,-0.351 c 0,0.045 -0.006,0.089 -0.018,0.131 -0.012,0.041 -0.028,0.081 -0.049,0.117 -0.022,0.036 -0.047,0.07 -0.077,0.099 C 1.004,0.026 0.971,0.052 0.935,0.073 0.898,0.094 0.859,0.111 0.817,0.123 0.775,0.134 0.732,0.14 0.687,0.14 0.641,0.14 0.598,0.134 0.556,0.123 0.514,0.111 0.475,0.094 0.438,0.073 0.402,0.052 0.369,0.026 0.339,-0.004 0.309,-0.033 0.284,-0.067 0.262,-0.103 0.241,-0.139 0.225,-0.179 0.213,-0.22 0.201,-0.262 0.195,-0.306 0.195,-0.351 c 0,-0.045 0.006,-0.089 0.018,-0.131 0.012,-0.042 0.028,-0.081 0.049,-0.117 0.022,-0.037 0.047,-0.07 0.077,-0.099 0.03,-0.03 0.063,-0.056 0.099,-0.077 0.037,-0.021 0.076,-0.038 0.118,-0.05 0.042,-0.011 0.085,-0.017 0.131,-0.017 0.045,0 0.088,0.006 0.13,0.017 0.042,0.012 0.081,0.029 0.118,0.05 0.036,0.021 0.069,0.047 0.099,0.077 0.03,0.029 0.055,0.062 0.077,0.099 0.021,0.036 0.037,0.075 0.049,0.117 0.012,0.042 0.018,0.086 0.018,0.131 z"
         style="fill:#ffc83d;fill-rule:nonzero"
         id="path476" /><path
         d="m 0.581,-0.632 c 0.01,0 0.018,0.004 0.025,0.01 0.007,0.007 0.01,0.016 0.01,0.025 0,0.01 -0.003,0.018 -0.01,0.025 -0.007,0.007 -0.015,0.01 -0.025,0.01 -0.037,0 -0.071,0.008 -0.101,0.022 -0.03,0.015 -0.058,0.035 -0.083,0.061 -0.008,0.009 -0.016,0.013 -0.026,0.013 -0.01,0 -0.018,-0.004 -0.025,-0.011 -0.007,-0.007 -0.011,-0.015 -0.011,-0.024 0,-0.009 0.003,-0.016 0.009,-0.024 0.014,-0.017 0.03,-0.032 0.049,-0.045 0.018,-0.014 0.038,-0.025 0.058,-0.034 0.021,-0.009 0.042,-0.016 0.064,-0.021 0.022,-0.004 0.044,-0.007 0.066,-0.007 z m 0.211,0 c 0.022,0 0.044,0.003 0.066,0.007 0.022,0.005 0.043,0.012 0.064,0.021 0.02,0.009 0.04,0.02 0.058,0.034 0.018,0.013 0.034,0.028 0.049,0.045 0.006,0.008 0.009,0.015 0.009,0.024 0,0.004 -0.001,0.008 -0.003,0.013 C 1.033,-0.484 1.03,-0.48 1.027,-0.477 1.024,-0.474 1.02,-0.471 1.016,-0.469 1.012,-0.467 1.007,-0.466 1.002,-0.466 0.992,-0.466 0.984,-0.47 0.976,-0.479 0.95,-0.505 0.923,-0.525 0.893,-0.54 0.863,-0.554 0.829,-0.562 0.792,-0.562 c -0.01,0 -0.018,-0.003 -0.025,-0.01 -0.007,-0.007 -0.01,-0.015 -0.01,-0.025 0,-0.009 0.003,-0.018 0.01,-0.025 0.007,-0.006 0.015,-0.01 0.025,-0.01 z"
         style="fill:#d48c00;fill-rule:nonzero"
         id="path478" /><path
         d="m 0.687,-0.176 c 0.019,0 0.04,0.003 0.061,0.009 0.02,0.007 0.039,0.016 0.056,0.028 0.017,0.011 0.031,0.026 0.042,0.044 0.01,0.017 0.016,0.037 0.016,0.06 0,0.01 -0.004,0.018 -0.01,0.025 C 0.845,-0.003 0.836,0 0.827,0 0.818,0 0.81,-0.001 0.801,-0.002 0.793,-0.004 0.784,-0.005 0.776,-0.007 0.761,-0.01 0.746,-0.013 0.731,-0.014 0.717,-0.016 0.702,-0.017 0.687,-0.017 0.671,-0.017 0.656,-0.016 0.642,-0.014 0.627,-0.013 0.612,-0.01 0.597,-0.007 0.589,-0.005 0.58,-0.004 0.572,-0.002 0.563,-0.001 0.554,0 0.546,0 0.536,0 0.528,-0.003 0.521,-0.01 0.515,-0.017 0.511,-0.026 0.511,-0.035 c 0,-0.023 0.006,-0.043 0.016,-0.06 0.011,-0.018 0.025,-0.033 0.042,-0.044 0.016,-0.012 0.035,-0.021 0.056,-0.028 0.021,-0.006 0.041,-0.009 0.062,-0.009 z M 0.616,-0.404 c 0,0.017 -0.003,0.033 -0.009,0.048 -0.007,0.015 -0.015,0.028 -0.026,0.039 -0.012,0.011 -0.025,0.02 -0.039,0.026 -0.015,0.007 -0.031,0.01 -0.048,0.01 -0.017,0 -0.033,-0.003 -0.048,-0.01 C 0.431,-0.297 0.418,-0.306 0.407,-0.317 0.396,-0.328 0.387,-0.341 0.38,-0.356 0.374,-0.371 0.371,-0.387 0.371,-0.404 v -0.017 h 0.035 c 0,0.012 0.002,0.023 0.007,0.034 0.004,0.011 0.01,0.02 0.018,0.028 0.008,0.008 0.018,0.014 0.028,0.019 0.011,0.004 0.022,0.007 0.035,0.007 0.012,0 0.023,-0.003 0.034,-0.007 0.011,-0.005 0.02,-0.011 0.028,-0.019 0.007,-0.008 0.014,-0.017 0.018,-0.028 0.005,-0.011 0.007,-0.022 0.007,-0.034 h 0.035 z m 0.386,-0.017 v 0.017 c 0,0.017 -0.003,0.033 -0.009,0.048 -0.007,0.015 -0.016,0.028 -0.027,0.039 -0.011,0.011 -0.024,0.02 -0.039,0.026 -0.015,0.007 -0.031,0.01 -0.048,0.01 -0.017,0 -0.033,-0.003 -0.048,-0.01 C 0.816,-0.297 0.804,-0.306 0.792,-0.317 0.781,-0.328 0.773,-0.341 0.766,-0.356 0.76,-0.371 0.757,-0.387 0.757,-0.404 v -0.017 h 0.035 c 0,0.012 0.002,0.023 0.007,0.034 0.004,0.011 0.011,0.02 0.018,0.028 0.008,0.008 0.017,0.014 0.028,0.019 0.011,0.004 0.022,0.007 0.034,0.007 0.012,0 0.024,-0.003 0.035,-0.007 0.01,-0.005 0.02,-0.011 0.028,-0.019 0.008,-0.008 0.014,-0.017 0.018,-0.028 0.005,-0.011 0.007,-0.022 0.007,-0.034 z"
         style="fill-rule:nonzero"
         id="path480" /><path
         d="m 1.178,-0.07 c 0,0.017 -0.003,0.033 -0.01,0.048 C 1.162,-0.007 1.153,0.006 1.142,0.017 1.131,0.028 1.118,0.036 1.103,0.043 1.088,0.049 1.072,0.053 1.055,0.053 1.038,0.053 1.022,0.049 1.007,0.043 0.992,0.036 0.979,0.028 0.968,0.017 0.957,0.006 0.948,-0.007 0.942,-0.022 0.935,-0.037 0.932,-0.053 0.932,-0.07 V -0.105 C 0.932,-0.12 0.929,-0.134 0.924,-0.146 0.918,-0.159 0.911,-0.17 0.901,-0.18 0.892,-0.19 0.88,-0.197 0.868,-0.202 0.855,-0.208 0.841,-0.21 0.827,-0.21 v -0.036 h 0.105 c 0.018,0 0.036,0.002 0.055,0.005 0.019,0.002 0.038,0.007 0.056,0.013 0.018,0.006 0.035,0.013 0.052,0.023 0.016,0.009 0.03,0.02 0.043,0.033 0.012,0.013 0.022,0.028 0.029,0.045 0.007,0.017 0.011,0.036 0.011,0.057 z"
         style="fill:#00bcf2;fill-rule:nonzero"
         id="path482" /></g></g></svg>
