<?xml version="1.0" encoding="UTF-8" standalone="no"?>
<svg
   width="16.844999"
   height="16.844999"
   viewBox="0 0 16.844999 16.844999"
   version="1.1"
   xml:space="preserve"
   style="clip-rule:evenodd;fill-rule:evenodd;stroke-linejoin:round;stroke-miterlimit:2"
   id="svg20568"
   sodipodi:docname="emojis.svg"
   xmlns:inkscape="http://www.inkscape.org/namespaces/inkscape"
   xmlns:sodipodi="http://sodipodi.sourceforge.net/DTD/sodipodi-0.dtd"
   xmlns="http://www.w3.org/2000/svg"
   xmlns:svg="http://www.w3.org/2000/svg"><defs
     id="defs20572" /><sodipodi:namedview
     id="namedview20570"
     pagecolor="#505050"
     bordercolor="#eeeeee"
     borderopacity="1"
     inkscape:pageshadow="0"
     inkscape:pageopacity="0"
     inkscape:pagecheckerboard="0" /><g
     transform="matrix(0.24,0,0,0.24,-323.8494,-246.4818)"
     id="g20566"><g
       transform="matrix(62.5,0,0,62.5,1341.56,1084.07)"
       id="g5026"><path
         d="m 1.248,-0.491 c 0,0.036 -0.003,0.071 -0.01,0.106 -0.007,0.035 -0.017,0.069 -0.03,0.102 -0.013,0.033 -0.03,0.064 -0.049,0.094 -0.019,0.03 -0.041,0.058 -0.066,0.085 0.01,0.03 0.014,0.061 0.014,0.092 V 0.21 H 0.265 C 0.246,0.21 0.228,0.206 0.211,0.198 0.194,0.19 0.179,0.179 0.166,0.166 0.153,0.152 0.143,0.137 0.136,0.119 0.129,0.102 0.125,0.084 0.125,0.065 0.125,0.046 0.128,0.028 0.135,0.011 0.142,-0.005 0.151,-0.021 0.164,-0.035 L 0.255,-0.132 C 0.213,-0.183 0.181,-0.239 0.158,-0.3 0.136,-0.362 0.125,-0.425 0.125,-0.491 v -0.141 h 0.011 c 0.035,0 0.069,0.001 0.102,0.003 0.033,0.002 0.067,0.007 0.101,0.016 0.007,-0.043 0.02,-0.083 0.041,-0.119 0.02,-0.037 0.046,-0.068 0.077,-0.095 0.031,-0.027 0.066,-0.048 0.105,-0.063 0.04,-0.015 0.081,-0.023 0.125,-0.023 0.043,0 0.084,0.008 0.123,0.023 0.04,0.015 0.075,0.036 0.106,0.063 0.031,0.027 0.057,0.058 0.077,0.095 0.021,0.036 0.034,0.076 0.041,0.119 0.047,-0.012 0.095,-0.019 0.144,-0.019 h 0.07 z"
         style="fill-rule:nonzero"
         id="path5004" /><path
         d="m 1.178,-0.526 v 0.035 c 0,0.045 -0.006,0.089 -0.018,0.13 -0.012,0.042 -0.028,0.081 -0.049,0.118 -0.022,0.036 -0.047,0.069 -0.077,0.099 -0.03,0.03 -0.063,0.056 -0.099,0.077 C 0.898,-0.046 0.859,-0.029 0.817,-0.018 0.775,-0.006 0.732,0 0.687,0 0.641,0 0.598,-0.006 0.556,-0.018 0.514,-0.029 0.475,-0.046 0.438,-0.067 0.402,-0.088 0.369,-0.114 0.339,-0.144 0.309,-0.174 0.284,-0.207 0.262,-0.243 0.241,-0.28 0.225,-0.319 0.213,-0.361 0.201,-0.402 0.195,-0.446 0.195,-0.491 v -0.035 l 0.291,0.187 0.201,0.304 0.186,-0.316 z"
         style="fill:#f2f2f2;fill-rule:nonzero"
         id="path5006" /><path
         d="m 0.687,-0.07 c 0,-0.046 0.005,-0.089 0.017,-0.131 0.012,-0.042 0.028,-0.081 0.05,-0.117 0.021,-0.037 0.047,-0.07 0.076,-0.1 0.03,-0.03 0.063,-0.055 0.1,-0.076 0.036,-0.022 0.075,-0.038 0.117,-0.05 0.042,-0.012 0.085,-0.018 0.131,-0.018 v 0.036 L 0.687,-0.035 0.195,-0.526 v -0.036 c 0.046,0 0.089,0.006 0.131,0.018 0.042,0.012 0.081,0.028 0.117,0.05 0.037,0.021 0.07,0.046 0.1,0.076 0.03,0.03 0.055,0.063 0.076,0.1 0.022,0.036 0.038,0.075 0.05,0.117 0.012,0.042 0.018,0.085 0.018,0.131 z"
         style="fill:#ffffff;fill-rule:nonzero"
         id="path5008" /><path
         d="M 0.967,-0.07 H 0.406 v -0.492 c 0,-0.038 0.007,-0.075 0.022,-0.109 0.014,-0.034 0.034,-0.064 0.06,-0.089 0.025,-0.026 0.055,-0.046 0.089,-0.06 0.034,-0.015 0.071,-0.022 0.11,-0.022 0.038,0 0.075,0.007 0.109,0.022 0.034,0.014 0.064,0.034 0.089,0.06 0.026,0.025 0.046,0.055 0.06,0.089 0.015,0.034 0.022,0.071 0.022,0.109 z"
         style="fill:#faec6e;fill-rule:nonzero"
         id="path5010" /><path
         d="M 1.038,0 0.774,0.14 H 0.441 L 0.353,0.017 0.441,-0.208 C 0.46,-0.22 0.481,-0.23 0.503,-0.236 0.525,-0.243 0.547,-0.246 0.57,-0.246 h 0.011 l 0.106,0.057 c 0.026,0.001 0.053,0.002 0.08,0.003 0.026,0.001 0.053,0.002 0.08,0.002 l 0.04,-0.011 c 0.007,-0.002 0.014,-0.004 0.02,-0.006 l 0.025,-0.007 c 0.016,0.011 0.031,0.024 0.044,0.038 0.013,0.014 0.024,0.03 0.033,0.047 0.009,0.017 0.016,0.035 0.021,0.053 0.005,0.019 0.008,0.038 0.008,0.058 z"
         style="fill:#8cbd18;fill-rule:nonzero"
         id="path5012" /><path
         d="m 0.335,-0.012 c 0,-0.02 0.003,-0.039 0.008,-0.058 C 0.348,-0.088 0.355,-0.106 0.364,-0.123 0.373,-0.14 0.384,-0.156 0.397,-0.17 0.41,-0.184 0.425,-0.197 0.441,-0.208 V 0 L 0.335,0.07 Z m 0.457,-0.234 c 0.026,0 0.051,0.003 0.073,0.008 0.022,0.006 0.045,0.016 0.067,0.03 V 0.14 H 0.774 L 0.687,-0.035 Z"
         style="fill:#13a10e;fill-rule:nonzero"
         id="path5014" /><path
         d="M 0.371,0 0.301,-0.035 0.335,-0.106 V -0.352 H 0.371 Z"
         style="fill:#ffffff;fill-rule:nonzero"
         id="path5016" /><path
         d="m 0.406,-0.296 c 0,0.004 -0.002,0.007 -0.004,0.01 -0.003,0.003 -0.006,0.004 -0.01,0.004 -0.002,0 -0.004,0 -0.006,-0.001 -0.002,0 -0.004,-0.002 -0.005,-0.003 L 0.353,-0.319 0.326,-0.286 c -0.003,0.003 -0.007,0.004 -0.011,0.004 -0.004,0 -0.007,-0.001 -0.01,-0.004 C 0.302,-0.289 0.3,-0.292 0.3,-0.296 V -0.337 L 0.27,-0.362 C 0.268,-0.363 0.267,-0.364 0.266,-0.366 c 0,-0.003 -0.001,-0.004 -0.001,-0.006 0,-0.004 0.002,-0.007 0.004,-0.011 0.003,-0.003 0.007,-0.004 0.011,-0.004 H 0.314 L 0.34,-0.432 c 0.003,-0.005 0.007,-0.007 0.013,-0.007 0.006,0 0.01,0.002 0.013,0.007 l 0.026,0.045 h 0.034 c 0.004,0 0.008,0.001 0.011,0.004 0.002,0.003 0.004,0.006 0.004,0.01 0,0.002 0,0.004 -0.001,0.006 -0.001,0.002 -0.002,0.004 -0.003,0.005 l -0.031,0.025 z"
         style="fill:#ffb900;fill-rule:nonzero"
         id="path5018" /><path
         d="m 0.722,-0.737 c 0.009,0.021 0.021,0.041 0.036,0.058 0.014,0.017 0.03,0.032 0.048,0.044 0.018,0.012 0.037,0.022 0.058,0.028 0.021,0.007 0.044,0.01 0.068,0.01 v 0.07 c 0,0.034 -0.006,0.065 -0.019,0.095 C 0.9,-0.402 0.882,-0.376 0.86,-0.353 0.838,-0.331 0.812,-0.313 0.782,-0.3 0.753,-0.287 0.721,-0.281 0.687,-0.281 0.652,-0.281 0.62,-0.287 0.591,-0.3 0.561,-0.313 0.535,-0.331 0.513,-0.353 0.491,-0.376 0.473,-0.402 0.46,-0.432 0.447,-0.462 0.441,-0.493 0.441,-0.527 v -0.07 c 0.034,0 0.064,-0.009 0.088,-0.028 0.024,-0.018 0.041,-0.044 0.051,-0.076 0.006,0.012 0.015,0.022 0.025,0.031 0.011,0.008 0.023,0.016 0.036,0.021 0.014,0.006 0.027,0.01 0.041,0.013 0.014,0.003 0.027,0.004 0.04,0.004 z M 0.441,0.14 H 0.271 C 0.26,0.14 0.25,0.138 0.241,0.134 0.232,0.13 0.224,0.125 0.217,0.118 0.21,0.111 0.205,0.103 0.201,0.094 0.197,0.085 0.195,0.075 0.195,0.065 0.195,0.056 0.197,0.046 0.2,0.037 0.204,0.028 0.209,0.02 0.215,0.013 l 0.103,-0.11 c 0.005,-0.005 0.01,-0.008 0.017,-0.009 v 0.071 h 0.071 c 0.01,0 0.019,0.003 0.025,0.009 0.007,0.007 0.01,0.015 0.01,0.026 z M 0.687,-0.035 0.581,-0.246 H 0.792 Z M 0.932,0 H 1.038 V 0.14 H 0.932 Z"
         style="fill:#ffc83d;fill-rule:nonzero"
         id="path5020" /><path
         d="m 0.581,-0.597 c 0.01,0 0.018,0.004 0.025,0.011 0.007,0.006 0.01,0.015 0.01,0.024 v 0.036 c 0,0.009 -0.003,0.017 -0.01,0.024 -0.007,0.007 -0.016,0.011 -0.025,0.011 -0.009,0 -0.018,-0.004 -0.025,-0.011 -0.007,-0.007 -0.01,-0.015 -0.01,-0.024 v -0.036 c 0,-0.009 0.003,-0.017 0.01,-0.024 0.007,-0.007 0.016,-0.011 0.025,-0.011 z m 0.211,0 c 0.009,0 0.018,0.004 0.024,0.011 0.007,0.007 0.011,0.015 0.011,0.024 v 0.036 c 0,0.009 -0.004,0.017 -0.011,0.024 -0.006,0.007 -0.015,0.011 -0.024,0.011 -0.009,0 -0.018,-0.004 -0.025,-0.011 -0.007,-0.007 -0.01,-0.015 -0.01,-0.024 v -0.036 c 0,-0.009 0.003,-0.018 0.01,-0.024 0.007,-0.007 0.015,-0.011 0.025,-0.011 z"
         style="fill-rule:nonzero"
         id="path5022" /><path
         d="m 0.687,-0.351 c -0.005,0 -0.012,-0.001 -0.02,-0.003 C 0.659,-0.356 0.652,-0.358 0.644,-0.362 0.637,-0.365 0.63,-0.369 0.625,-0.374 0.619,-0.378 0.616,-0.384 0.616,-0.39 c 0,-0.005 0.002,-0.009 0.005,-0.012 0.003,-0.003 0.007,-0.005 0.012,-0.005 0.003,0 0.006,10e-4 0.009,0.004 0.003,0.002 0.007,0.004 0.011,0.007 0.004,0.003 0.008,0.006 0.014,0.008 0.005,0.002 0.012,0.003 0.02,0.003 0.007,0 0.014,-0.001 0.019,-0.003 0.006,-0.002 0.01,-0.005 0.014,-0.008 0.004,-0.003 0.008,-0.005 0.01,-0.007 0.003,-0.003 0.006,-0.004 0.01,-0.004 0.005,0 0.009,0.002 0.012,0.005 0.003,0.003 0.005,0.007 0.005,0.012 0,0.006 -0.003,0.012 -0.008,0.016 -0.006,0.005 -0.013,0.009 -0.02,0.012 -0.007,0.004 -0.015,0.006 -0.023,0.008 -0.008,0.002 -0.015,0.003 -0.019,0.003 z m 0.035,-0.14 c 0,0.009 -0.004,0.017 -0.011,0.024 -0.007,0.007 -0.015,0.01 -0.024,0.01 -0.01,0 -0.018,-0.003 -0.025,-0.01 C 0.655,-0.474 0.651,-0.482 0.651,-0.491 Z"
         style="fill:#f7894a;fill-rule:nonzero"
         id="path5024" /></g></g></svg>
