<?xml version="1.0" encoding="UTF-8" standalone="no"?>
<svg
   width="15.615"
   height="16.844999"
   viewBox="0 0 15.615 16.844999"
   version="1.1"
   xml:space="preserve"
   style="clip-rule:evenodd;fill-rule:evenodd;stroke-linejoin:round;stroke-miterlimit:2"
   id="svg20568"
   sodipodi:docname="emojis.svg"
   xmlns:inkscape="http://www.inkscape.org/namespaces/inkscape"
   xmlns:sodipodi="http://sodipodi.sourceforge.net/DTD/sodipodi-0.dtd"
   xmlns="http://www.w3.org/2000/svg"
   xmlns:svg="http://www.w3.org/2000/svg"><defs
     id="defs20572" /><sodipodi:namedview
     id="namedview20570"
     pagecolor="#505050"
     bordercolor="#eeeeee"
     borderopacity="1"
     inkscape:pageshadow="0"
     inkscape:pageopacity="0"
     inkscape:pagecheckerboard="0" /><g
     transform="matrix(0.24,0,0,0.24,-385.635,-246.4818)"
     id="g20566"><g
       transform="matrix(62.5,0,0,62.5,1599,1084.07)"
       id="g5096"><path
         d="m 0.95,-0.24 c 0.023,0.013 0.045,0.03 0.063,0.049 0.019,0.018 0.035,0.039 0.048,0.062 0.013,0.023 0.023,0.047 0.03,0.073 0.007,0.026 0.011,0.052 0.011,0.079 V 0.21 H 0.189 V 0.023 c 0,-0.027 0.003,-0.053 0.01,-0.079 0.007,-0.026 0.018,-0.05 0.031,-0.073 0.013,-0.023 0.029,-0.044 0.048,-0.062 0.018,-0.019 0.04,-0.036 0.063,-0.049 L 0.125,-0.457 0.23,-0.562 h 0.1 v -0.035 c 0,-0.029 0.003,-0.057 0.011,-0.084 0.007,-0.027 0.018,-0.052 0.032,-0.075 0.014,-0.023 0.03,-0.045 0.049,-0.064 0.02,-0.019 0.041,-0.036 0.064,-0.049 0.023,-0.014 0.049,-0.025 0.076,-0.032 0.027,-0.008 0.055,-0.012 0.084,-0.012 0.028,0 0.056,0.004 0.083,0.012 0.027,0.007 0.052,0.018 0.076,0.032 0.023,0.013 0.044,0.03 0.064,0.049 0.019,0.019 0.035,0.041 0.049,0.064 0.014,0.024 0.025,0.049 0.032,0.076 0.008,0.026 0.011,0.054 0.011,0.083 v 0.035 h 0.1 l 0.105,0.105 z"
         style="fill-rule:nonzero"
         id="path5076" /><path
         d="m 0.82,-0.209 c 0.03,0.002 0.058,0.011 0.083,0.024 0.026,0.013 0.048,0.03 0.067,0.051 0.02,0.021 0.034,0.045 0.045,0.072 0.011,0.027 0.016,0.055 0.016,0.085 V 0.14 H 0.259 V 0.023 c 0,-0.03 0.006,-0.058 0.016,-0.085 0.011,-0.027 0.026,-0.051 0.045,-0.072 0.019,-0.021 0.042,-0.038 0.067,-0.051 0.026,-0.013 0.054,-0.022 0.084,-0.024 l -0.247,-0.248 0.035,-0.034 0.386,0.07 0.386,-0.07 0.035,0.034 z"
         style="fill:#383838;fill-rule:nonzero"
         id="path5078" /><path
         d="M 0.259,-0.491 H 1.031 L 0.75,-0.21 0.646,-0.19 0.54,-0.21 Z"
         style="fill:#e81224;fill-rule:nonzero"
         id="path5080" /><path
         d="m 0.646,-0.816 c 0.024,0 0.048,0.003 0.071,0.009 0.023,0.005 0.044,0.014 0.063,0.026 0.019,0.012 0.036,0.027 0.05,0.045 0.014,0.018 0.025,0.04 0.033,0.065 0.002,0.007 0.004,0.015 0.006,0.023 0.001,0.008 0.003,0.016 0.004,0.025 v 0.016 c 0,0.003 0,0.006 0.001,0.01 0,0.005 0.001,0.013 0.003,0.023 0.002,0.01 0.004,0.021 0.006,0.032 0.002,0.011 0.004,0.021 0.006,0.031 0.001,0.01 0.002,0.016 0.002,0.02 0,0.034 -0.006,0.065 -0.019,0.095 -0.013,0.03 -0.031,0.056 -0.053,0.078 -0.022,0.023 -0.048,0.04 -0.078,0.053 -0.03,0.013 -0.062,0.019 -0.095,0.019 C 0.612,-0.246 0.58,-0.252 0.55,-0.265 0.52,-0.278 0.494,-0.295 0.472,-0.318 0.45,-0.34 0.432,-0.366 0.419,-0.396 0.406,-0.426 0.4,-0.457 0.4,-0.491 c 0,-0.004 0.001,-0.01 0.002,-0.02 0.002,-0.01 0.004,-0.02 0.006,-0.031 0.002,-0.011 0.004,-0.022 0.006,-0.032 0.002,-0.01 0.003,-0.018 0.003,-0.023 0.001,-0.002 0.001,-0.005 0.001,-0.007 0,-0.002 0,-0.004 0,-0.006 V -0.623 C 0.419,-0.632 0.421,-0.64 0.422,-0.648 0.424,-0.656 0.426,-0.664 0.428,-0.671 0.436,-0.696 0.447,-0.718 0.461,-0.736 0.475,-0.754 0.492,-0.769 0.511,-0.781 0.53,-0.793 0.551,-0.802 0.574,-0.807 0.597,-0.813 0.621,-0.816 0.646,-0.816 Z M 0.75,-0.21 0.646,-0.105 0.54,-0.21 Z"
         style="fill:#e5e5e5;fill-rule:nonzero"
         id="path5082" /><path
         d="m 0.715,-0.105 c 0,0.009 -0.001,0.018 -0.005,0.027 -0.004,0.008 -0.009,0.016 -0.015,0.022 -0.006,0.006 -0.014,0.011 -0.022,0.015 -0.009,0.004 -0.018,0.006 -0.027,0.006 -0.01,0 -0.019,-0.002 -0.028,-0.006 C 0.609,-0.044 0.602,-0.049 0.595,-0.055 0.589,-0.062 0.584,-0.069 0.581,-0.078 0.577,-0.087 0.575,-0.096 0.575,-0.105 c 0,-0.01 0.002,-0.019 0.006,-0.028 0.004,-0.008 0.009,-0.016 0.015,-0.022 0.006,-0.006 0.014,-0.011 0.022,-0.015 0.009,-0.004 0.018,-0.006 0.028,-0.006 0.009,0 0.018,0.002 0.027,0.006 0.008,0.004 0.016,0.009 0.022,0.015 0.006,0.006 0.011,0.014 0.015,0.022 0.004,0.009 0.005,0.018 0.005,0.028 z"
         style="fill:#c19c00;fill-rule:nonzero"
         id="path5084" /><path
         d="m 0.646,-0.842 c 0.033,0 0.065,0.006 0.095,0.019 0.03,0.013 0.056,0.03 0.078,0.053 0.022,0.022 0.04,0.048 0.053,0.078 0.013,0.03 0.019,0.061 0.019,0.095 v 0.106 H 0.856 V -0.597 C 0.856,-0.606 0.854,-0.616 0.85,-0.624 0.847,-0.632 0.842,-0.64 0.835,-0.646 0.829,-0.653 0.821,-0.658 0.813,-0.661 0.805,-0.665 0.795,-0.667 0.786,-0.667 H 0.715 c -0.009,0 -0.019,0.002 -0.027,0.006 C 0.68,-0.658 0.672,-0.653 0.666,-0.646 0.659,-0.64 0.654,-0.632 0.651,-0.624 0.647,-0.616 0.646,-0.606 0.646,-0.597 0.646,-0.606 0.644,-0.616 0.64,-0.624 0.636,-0.632 0.631,-0.64 0.625,-0.646 0.618,-0.653 0.611,-0.658 0.603,-0.661 0.594,-0.665 0.585,-0.667 0.575,-0.667 h -0.07 c -0.01,0 -0.019,0.002 -0.027,0.006 -0.009,0.003 -0.016,0.008 -0.023,0.015 -0.006,0.006 -0.011,0.014 -0.015,0.022 -0.004,0.008 -0.005,0.018 -0.005,0.027 v 0.106 H 0.4 V -0.597 C 0.4,-0.631 0.406,-0.662 0.419,-0.692 0.432,-0.722 0.45,-0.748 0.472,-0.77 0.494,-0.793 0.52,-0.81 0.55,-0.823 0.58,-0.836 0.612,-0.842 0.646,-0.842 Z"
         style="fill:#383838;fill-rule:nonzero"
         id="path5086" /><path
         d="m 0.575,-0.492 c 0,0.01 -0.003,0.018 -0.01,0.025 -0.007,0.007 -0.015,0.01 -0.025,0.01 -0.01,0 -0.018,-0.003 -0.025,-0.01 -0.007,-0.007 -0.01,-0.015 -0.01,-0.025 v -0.035 c 0,-0.01 0.003,-0.018 0.01,-0.025 0.007,-0.007 0.015,-0.01 0.025,-0.01 0.01,0 0.018,0.003 0.025,0.01 0.007,0.007 0.01,0.015 0.01,0.025 z m 0.175,-0.07 c 0.01,0 0.019,0.003 0.025,0.01 0.007,0.007 0.011,0.015 0.011,0.025 v 0.035 c 0,0.01 -0.004,0.018 -0.011,0.025 -0.006,0.007 -0.015,0.01 -0.025,0.01 -0.009,0 -0.017,-0.003 -0.024,-0.01 C 0.719,-0.474 0.715,-0.482 0.715,-0.492 v -0.035 c 0,-0.009 0.004,-0.018 0.011,-0.025 0.007,-0.007 0.015,-0.01 0.024,-0.01 z"
         style="fill-rule:nonzero"
         id="path5088" /><path
         d="m 0.68,-0.457 c 0,0.01 -0.003,0.018 -0.01,0.025 -0.007,0.007 -0.016,0.011 -0.025,0.011 -0.009,0 -0.018,-0.004 -0.025,-0.011 C 0.613,-0.439 0.61,-0.447 0.61,-0.457 Z"
         style="fill:#cccccc;fill-rule:nonzero"
         id="path5090" /><path
         d="m 0.612,-0.36 c 0.01,0.007 0.021,0.01 0.033,0.01 0.012,0 0.023,-0.003 0.033,-0.01 l 0.019,0.015 -0.01,0.019 C 0.68,-0.323 0.673,-0.32 0.667,-0.319 0.66,-0.317 0.653,-0.316 0.646,-0.316 0.638,-0.316 0.631,-0.317 0.624,-0.319 0.617,-0.32 0.611,-0.323 0.604,-0.326 l -0.01,-0.021 z"
         style="fill:#e81224;fill-rule:nonzero"
         id="path5092" /><path
         d="m 0.699,-0.372 c 0.004,0 0.008,0.002 0.012,0.006 0.003,0.003 0.005,0.007 0.005,0.012 0,0.002 -0.001,0.007 -0.002,0.014 C 0.712,-0.333 0.71,-0.326 0.708,-0.319 0.707,-0.311 0.705,-0.304 0.703,-0.297 0.701,-0.29 0.699,-0.284 0.698,-0.281 L 0.678,-0.36 c 0.004,-0.002 0.007,-0.005 0.01,-0.007 0.003,-0.003 0.006,-0.005 0.011,-0.005 z m -0.107,0 c 0.004,0 0.008,0.002 0.011,0.005 0.003,0.002 0.006,0.005 0.009,0.007 l -0.02,0.079 C 0.591,-0.284 0.59,-0.29 0.588,-0.297 0.586,-0.304 0.584,-0.311 0.582,-0.319 0.58,-0.326 0.578,-0.333 0.577,-0.34 0.575,-0.347 0.575,-0.352 0.575,-0.354 c 0,-0.005 0.001,-0.009 0.005,-0.012 0.003,-0.004 0.007,-0.006 0.012,-0.006 z"
         style="fill:#ffffff;fill-rule:nonzero"
         id="path5094" /></g></g></svg>
