<?xml version="1.0" encoding="UTF-8" standalone="no"?>
<svg
   width="16.844999"
   height="16.844999"
   viewBox="0 0 16.844999 16.844999"
   version="1.1"
   xml:space="preserve"
   style="clip-rule:evenodd;fill-rule:evenodd;stroke-linejoin:round;stroke-miterlimit:2"
   id="svg20568"
   sodipodi:docname="emojis.svg"
   xmlns:inkscape="http://www.inkscape.org/namespaces/inkscape"
   xmlns:sodipodi="http://sodipodi.sourceforge.net/DTD/sodipodi-0.dtd"
   xmlns="http://www.w3.org/2000/svg"
   xmlns:svg="http://www.w3.org/2000/svg"><defs
     id="defs20572" /><sodipodi:namedview
     id="namedview20570"
     pagecolor="#505050"
     bordercolor="#eeeeee"
     borderopacity="1"
     inkscape:pageshadow="0"
     inkscape:pageopacity="0"
     inkscape:pagecheckerboard="0" /><g
     transform="matrix(0.24,0,0,0.24,-177.97932,-93.74892)"
     id="g20566"><g
       transform="matrix(62.5,0,0,62.5,733.768,447.683)"
       id="g510"><path
         d="m 0.687,-0.913 c 0.051,0 0.101,0.007 0.148,0.02 0.048,0.014 0.093,0.033 0.135,0.057 0.041,0.024 0.079,0.054 0.113,0.088 0.035,0.034 0.064,0.072 0.088,0.114 0.025,0.041 0.044,0.086 0.057,0.134 0.013,0.048 0.02,0.097 0.02,0.149 0,0.05 -0.007,0.1 -0.02,0.147 C 1.215,-0.156 1.196,-0.111 1.171,-0.068 1.146,-0.026 1.116,0.013 1.081,0.048 1.045,0.083 1.006,0.113 0.962,0.138 0.958,0.148 0.953,0.158 0.946,0.167 0.94,0.176 0.932,0.184 0.923,0.19 0.915,0.197 0.905,0.201 0.895,0.205 0.884,0.209 0.873,0.21 0.862,0.21 0.853,0.21 0.844,0.209 0.835,0.207 0.826,0.205 0.818,0.201 0.81,0.197 0.79,0.201 0.769,0.205 0.749,0.207 0.728,0.209 0.707,0.21 0.687,0.21 0.635,0.21 0.585,0.204 0.537,0.19 0.49,0.177 0.445,0.158 0.403,0.134 0.362,0.109 0.324,0.08 0.29,0.046 0.255,0.012 0.226,-0.026 0.202,-0.068 0.177,-0.11 0.158,-0.154 0.145,-0.202 0.132,-0.25 0.125,-0.3 0.125,-0.351 c 0,-0.052 0.007,-0.101 0.02,-0.149 0.013,-0.048 0.032,-0.093 0.057,-0.134 0.024,-0.042 0.053,-0.08 0.088,-0.114 0.034,-0.034 0.072,-0.064 0.113,-0.088 0.042,-0.024 0.087,-0.043 0.134,-0.057 0.048,-0.013 0.098,-0.02 0.15,-0.02 z"
         style="fill-rule:nonzero"
         id="path500" /><path
         d="m 1.178,-0.351 c 0,0.045 -0.006,0.089 -0.018,0.131 -0.012,0.041 -0.028,0.081 -0.049,0.117 -0.022,0.036 -0.047,0.07 -0.077,0.099 C 1.004,0.026 0.971,0.052 0.935,0.073 0.898,0.094 0.859,0.111 0.817,0.123 0.775,0.134 0.732,0.14 0.687,0.14 0.641,0.14 0.598,0.134 0.556,0.123 0.514,0.111 0.475,0.094 0.438,0.073 0.402,0.052 0.369,0.026 0.339,-0.004 0.309,-0.033 0.284,-0.067 0.262,-0.103 0.241,-0.139 0.225,-0.179 0.213,-0.22 0.201,-0.262 0.195,-0.306 0.195,-0.351 c 0,-0.045 0.006,-0.089 0.018,-0.131 0.012,-0.042 0.028,-0.081 0.049,-0.117 0.022,-0.037 0.047,-0.07 0.077,-0.099 0.03,-0.03 0.063,-0.056 0.099,-0.077 0.037,-0.021 0.076,-0.038 0.118,-0.05 0.042,-0.011 0.085,-0.017 0.131,-0.017 0.045,0 0.088,0.006 0.13,0.017 0.042,0.012 0.081,0.029 0.118,0.05 0.036,0.021 0.069,0.047 0.099,0.077 0.03,0.029 0.055,0.062 0.077,0.099 0.021,0.036 0.037,0.075 0.049,0.117 0.012,0.042 0.018,0.086 0.018,0.131 z"
         style="fill:#ffc83d;fill-rule:nonzero"
         id="path502" /><path
         d="m 0.511,-0.702 c 0.009,0 0.017,0.003 0.024,0.01 0.007,0.007 0.011,0.016 0.011,0.025 0,0.007 -0.002,0.013 -0.005,0.019 -0.004,0.005 -0.008,0.009 -0.015,0.012 -0.014,0.008 -0.028,0.016 -0.039,0.025 -0.012,0.008 -0.023,0.017 -0.033,0.027 -0.01,0.01 -0.019,0.021 -0.028,0.033 -0.008,0.012 -0.016,0.026 -0.024,0.04 -0.007,0.013 -0.017,0.019 -0.031,0.019 -0.01,0 -0.018,-0.003 -0.025,-0.01 -0.007,-0.006 -0.011,-0.015 -0.011,-0.025 0,-0.005 0.002,-0.01 0.004,-0.015 C 0.355,-0.576 0.377,-0.606 0.404,-0.633 0.431,-0.66 0.462,-0.682 0.495,-0.698 0.5,-0.701 0.506,-0.702 0.511,-0.702 Z m 0.316,0.07 c 0.021,0 0.043,0.003 0.066,0.007 0.022,0.005 0.043,0.012 0.064,0.021 0.02,0.009 0.04,0.02 0.058,0.034 0.019,0.013 0.035,0.028 0.049,0.045 0.006,0.008 0.009,0.015 0.009,0.024 0,0.004 -10e-4,0.008 -0.003,0.013 -0.002,0.004 -0.005,0.008 -0.008,0.011 -0.003,0.003 -0.006,0.006 -0.011,0.008 -0.004,0.002 -0.009,0.003 -0.013,0.003 -0.01,0 -0.019,-0.004 -0.027,-0.013 C 0.986,-0.505 0.958,-0.525 0.928,-0.54 0.898,-0.554 0.864,-0.562 0.827,-0.562 c -0.01,0 -0.018,-0.003 -0.025,-0.01 -0.007,-0.007 -0.01,-0.015 -0.01,-0.025 0,-0.009 0.003,-0.017 0.01,-0.024 0.007,-0.007 0.015,-0.011 0.025,-0.011 z"
         style="fill:#d48c00;fill-rule:nonzero"
         id="path504" /><path
         d="m 0.897,-0.457 c 0.015,0 0.028,0.003 0.041,0.009 0.013,0.005 0.024,0.013 0.033,0.022 0.01,0.01 0.018,0.021 0.023,0.034 0.006,0.013 0.008,0.026 0.008,0.041 H 0.967 c 0,-0.01 -0.003,-0.018 -0.01,-0.025 C 0.95,-0.383 0.942,-0.386 0.932,-0.386 H 0.827 c -0.01,0 -0.018,0.003 -0.025,0.01 -0.007,0.007 -0.01,0.015 -0.01,0.025 H 0.757 c 0,-0.015 0.003,-0.028 0.008,-0.041 0.006,-0.013 0.013,-0.024 0.023,-0.034 0.009,-0.009 0.02,-0.017 0.033,-0.022 0.012,-0.006 0.026,-0.009 0.041,-0.009 z m -0.316,0.106 c 0,-0.01 -0.003,-0.018 -0.01,-0.025 -0.007,-0.007 -0.015,-0.01 -0.025,-0.01 H 0.441 c -0.01,0 -0.018,0.003 -0.025,0.01 -0.007,0.007 -0.01,0.015 -0.01,0.025 H 0.371 c 0,-0.015 0.002,-0.028 0.008,-0.041 0.005,-0.013 0.013,-0.024 0.023,-0.034 0.009,-0.009 0.02,-0.017 0.033,-0.022 0.013,-0.006 0.026,-0.009 0.041,-0.009 h 0.035 c 0.015,0 0.029,0.003 0.041,0.009 0.013,0.005 0.024,0.013 0.033,0.022 0.01,0.01 0.017,0.021 0.023,0.034 0.005,0.013 0.008,0.026 0.008,0.041 z m 0.351,0.161 c 0,0.004 -0.001,0.007 -0.002,0.01 0,0.003 -0.002,0.006 -0.003,0.009 -0.012,0.021 -0.027,0.04 -0.044,0.056 -0.018,0.017 -0.037,0.032 -0.058,0.043 -0.021,0.012 -0.044,0.021 -0.067,0.027 -0.024,0.007 -0.048,0.01 -0.071,0.01 -0.024,0 -0.048,-0.003 -0.072,-0.01 C 0.592,-0.051 0.569,-0.06 0.548,-0.072 0.527,-0.083 0.508,-0.098 0.49,-0.115 0.472,-0.131 0.458,-0.15 0.446,-0.171 0.444,-0.174 0.443,-0.177 0.442,-0.18 0.441,-0.183 0.441,-0.186 0.441,-0.19 c 0,-0.009 0.003,-0.018 0.01,-0.024 0.007,-0.007 0.016,-0.011 0.025,-0.011 0.007,0 0.012,0.002 0.017,0.005 0.005,0.003 0.009,0.007 0.013,0.012 0.022,0.033 0.047,0.058 0.077,0.076 0.029,0.018 0.064,0.027 0.104,0.027 0.039,0 0.074,-0.009 0.103,-0.027 0.029,-0.018 0.055,-0.043 0.077,-0.076 0.003,-0.005 0.007,-0.009 0.012,-0.012 0.005,-0.003 0.01,-0.005 0.017,-0.005 0.009,0 0.018,0.004 0.025,0.011 0.007,0.006 0.011,0.015 0.011,0.024 z"
         style="fill-rule:nonzero"
         id="path506" /><path
         d="m 0.879,-0.155 c 0.005,0 0.009,0.002 0.013,0.005 0.003,0.004 0.005,0.008 0.005,0.013 v 0.242 c 0,0.01 -0.003,0.018 -0.01,0.025 C 0.88,0.137 0.872,0.14 0.862,0.14 0.852,0.14 0.844,0.137 0.837,0.13 0.83,0.123 0.827,0.114 0.827,0.105 V 0.032 C 0.816,0.028 0.808,0.022 0.802,0.013 0.795,0.004 0.792,-0.007 0.792,-0.018 v -0.065 c 0,-0.007 0.003,-0.012 0.009,-0.016 0.013,-0.007 0.024,-0.015 0.034,-0.023 0.011,-0.007 0.021,-0.017 0.032,-0.027 0.004,-0.004 0.008,-0.006 0.012,-0.006 z"
         style="fill:#00bcf2;fill-rule:nonzero"
         id="path508" /></g></g></svg>
