<?xml version="1.0" encoding="UTF-8" standalone="no"?>
<svg
   width="13.695"
   height="16.844999"
   viewBox="0 0 13.695 16.844999"
   version="1.1"
   xml:space="preserve"
   style="clip-rule:evenodd;fill-rule:evenodd;stroke-linejoin:round;stroke-miterlimit:2"
   id="svg20568"
   sodipodi:docname="emojis.svg"
   xmlns:inkscape="http://www.inkscape.org/namespaces/inkscape"
   xmlns:sodipodi="http://sodipodi.sourceforge.net/DTD/sodipodi-0.dtd"
   xmlns="http://www.w3.org/2000/svg"
   xmlns:svg="http://www.w3.org/2000/svg"><defs
     id="defs20572" /><sodipodi:namedview
     id="namedview20570"
     pagecolor="#505050"
     bordercolor="#eeeeee"
     borderopacity="1"
     inkscape:pageshadow="0"
     inkscape:pageopacity="0"
     inkscape:pagecheckerboard="0" /><g
     transform="matrix(0.24,0,0,0.24,-54.405,-263.4498)"
     id="g20566"><g
       transform="matrix(62.5,0,0,62.5,218.875,1154.77)"
       id="g5388"><path
         d="m 0.932,-0.686 c 0.012,0.025 0.021,0.051 0.026,0.078 0.006,0.027 0.009,0.055 0.009,0.083 v 0.355 c 0.023,0.027 0.04,0.058 0.052,0.091 0.012,0.033 0.019,0.067 0.019,0.102 V 0.21 H 0.125 V 0.023 c 0,-0.035 0.006,-0.069 0.018,-0.102 0.013,-0.033 0.03,-0.064 0.052,-0.091 v -0.355 c 0,-0.028 0.003,-0.056 0.009,-0.083 C 0.21,-0.635 0.219,-0.661 0.23,-0.686 V -0.729 C 0.219,-0.739 0.21,-0.75 0.204,-0.764 0.198,-0.778 0.195,-0.792 0.195,-0.807 v -0.106 h 0.772 v 0.106 c 0,0.015 -0.003,0.029 -0.009,0.043 -0.006,0.013 -0.015,0.025 -0.026,0.035 z"
         style="fill-rule:nonzero"
         id="path5370" /><path
         d="m 0.265,-0.105 v -0.42 c 0,-0.029 0.004,-0.057 0.011,-0.084 0.008,-0.027 0.019,-0.053 0.032,-0.076 0.014,-0.023 0.031,-0.045 0.05,-0.064 0.019,-0.019 0.04,-0.036 0.064,-0.05 0.023,-0.013 0.048,-0.024 0.075,-0.032 0.027,-0.007 0.055,-0.011 0.084,-0.011 0.029,0 0.057,0.004 0.084,0.011 0.027,0.008 0.052,0.019 0.075,0.032 0.024,0.014 0.045,0.031 0.064,0.05 0.019,0.019 0.036,0.041 0.05,0.064 0.014,0.023 0.024,0.049 0.032,0.076 0.007,0.027 0.011,0.055 0.011,0.084 v 0.42 z"
         style="fill:#8e562e;fill-rule:nonzero"
         id="path5372" /><path
         d="M 0.195,0.14 V 0.023 c 0,-0.032 0.006,-0.062 0.019,-0.091 0.012,-0.028 0.029,-0.053 0.05,-0.074 C 0.285,-0.163 0.31,-0.18 0.339,-0.192 0.367,-0.204 0.397,-0.21 0.43,-0.21 h 0.081 l 0.07,0.042 0.07,-0.042 h 0.082 c 0.032,0 0.062,0.006 0.091,0.018 0.028,0.012 0.053,0.029 0.075,0.05 0.021,0.021 0.038,0.046 0.05,0.074 0.012,0.029 0.018,0.059 0.018,0.091 V 0.14 Z"
         style="fill:#886ce4;fill-rule:nonzero"
         id="path5374" /><path
         d="m 0.616,-0.702 c 0.009,0.02 0.021,0.038 0.036,0.055 0.015,0.017 0.032,0.032 0.051,0.045 0.018,0.013 0.038,0.023 0.059,0.03 0.021,0.007 0.043,0.011 0.065,0.011 v 0.069 c 0,0.034 -0.007,0.066 -0.02,0.096 -0.012,0.03 -0.03,0.056 -0.052,0.078 -0.023,0.023 -0.049,0.04 -0.078,0.053 -0.03,0.013 -0.062,0.02 -0.096,0.02 -0.034,0 -0.066,-0.007 -0.096,-0.02 C 0.455,-0.278 0.429,-0.295 0.407,-0.318 0.385,-0.34 0.368,-0.366 0.355,-0.396 0.342,-0.426 0.335,-0.458 0.335,-0.492 v -0.069 c 0.035,0 0.064,-0.01 0.088,-0.028 0.025,-0.019 0.042,-0.044 0.052,-0.077 0.007,0.014 0.015,0.026 0.025,0.035 0.01,0.009 0.021,0.016 0.033,0.021 0.012,0.005 0.025,0.009 0.038,0.011 0.014,0.002 0.028,0.003 0.042,0.003 h 0.003 z m 0.035,0.492 c 0.01,0 0.018,0.003 0.025,0.01 0.007,0.007 0.011,0.015 0.011,0.025 0,0.005 -0.002,0.01 -0.004,0.015 L 0.612,-0.019 C 0.609,-0.013 0.605,-0.008 0.599,-0.005 0.594,-0.001 0.588,0 0.581,0 0.575,0 0.568,-0.001 0.563,-0.005 0.557,-0.008 0.553,-0.013 0.55,-0.019 L 0.48,-0.16 C 0.477,-0.165 0.476,-0.17 0.476,-0.175 c 0,-0.01 0.003,-0.018 0.01,-0.025 0.007,-0.007 0.015,-0.01 0.025,-0.01 z"
         style="fill:#ffc83d;fill-rule:nonzero"
         id="path5376" /><path
         d="m 0.616,-0.351 c 0,0.01 -0.003,0.018 -0.01,0.025 -0.007,0.007 -0.015,0.011 -0.025,0.011 -0.009,0 -0.018,-0.004 -0.025,-0.011 -0.007,-0.007 -0.01,-0.015 -0.01,-0.025 0,-0.009 0.003,-0.017 0.01,-0.024 0.007,-0.007 0.016,-0.011 0.025,-0.011 0.01,0 0.018,0.004 0.025,0.011 0.007,0.006 0.01,0.015 0.01,0.024 z m 0.141,-0.175 v 0.007 c 0,0.008 -0.002,0.014 -0.004,0.021 C 0.75,-0.492 0.746,-0.486 0.741,-0.481 0.736,-0.477 0.731,-0.473 0.724,-0.47 0.718,-0.467 0.711,-0.466 0.704,-0.466 0.697,-0.466 0.69,-0.467 0.683,-0.47 0.677,-0.473 0.671,-0.476 0.667,-0.481 0.662,-0.486 0.658,-0.491 0.656,-0.498 0.653,-0.504 0.651,-0.511 0.651,-0.519 v -0.007 h 0.016 c 0,0.011 0.003,0.019 0.01,0.027 0.008,0.007 0.017,0.011 0.027,0.011 0.011,0 0.019,-0.004 0.027,-0.011 0.007,-0.008 0.011,-0.016 0.011,-0.027 z m -0.299,0.038 c 0.014,0 0.024,-0.003 0.03,-0.008 0.005,-0.006 0.008,-0.016 0.008,-0.03 h 0.015 v 0.008 c 0,0.007 -0.001,0.014 -0.004,0.02 -0.003,0.007 -0.007,0.012 -0.011,0.017 -0.005,0.005 -0.011,0.009 -0.017,0.012 -0.007,0.002 -0.013,0.004 -0.021,0.004 -0.007,0 -0.013,-0.002 -0.02,-0.004 C 0.432,-0.472 0.426,-0.476 0.421,-0.481 0.417,-0.486 0.413,-0.491 0.41,-0.498 0.407,-0.504 0.406,-0.511 0.406,-0.518 v -0.008 h 0.015 c 0,0.015 0.003,0.025 0.008,0.03 0.005,0.005 0.015,0.008 0.029,0.008 z"
         style="fill-rule:nonzero"
         id="path5378" /><path
         d="m 0.616,-0.456 c 0,0.01 -0.003,0.018 -0.01,0.025 -0.007,0.007 -0.016,0.01 -0.025,0.01 -0.009,0 -0.018,-0.003 -0.025,-0.01 -0.007,-0.007 -0.01,-0.015 -0.01,-0.025 z"
         style="fill:#f7894a;fill-rule:nonzero"
         id="path5380" /><path
         d="m 0.81,-0.755 0.052,0.018 v 0.316 c 0,0.01 -0.004,0.018 -0.011,0.025 -0.007,0.006 -0.015,0.01 -0.024,0.01 -0.01,0 -0.018,-0.004 -0.025,-0.01 -0.007,-0.007 -0.01,-0.015 -0.01,-0.025 v -0.07 C 0.792,-0.501 0.79,-0.51 0.786,-0.519 0.783,-0.527 0.778,-0.534 0.771,-0.541 0.765,-0.547 0.757,-0.552 0.749,-0.556 0.741,-0.56 0.731,-0.562 0.722,-0.562 H 0.704 c -0.007,0 -0.013,0 -0.019,0 C 0.678,-0.563 0.673,-0.565 0.668,-0.567 0.663,-0.57 0.659,-0.573 0.656,-0.578 0.653,-0.583 0.651,-0.589 0.651,-0.597 c 0,-0.009 0.004,-0.018 0.011,-0.025 0.006,-0.006 0.015,-0.01 0.025,-0.01 0.009,0 0.018,-0.002 0.026,-0.005 0.009,-0.004 0.016,-0.009 0.023,-0.015 0.006,-0.006 0.011,-0.014 0.015,-0.022 0.004,-0.009 0.006,-0.018 0.006,-0.027 v -0.036 z m -0.299,0.158 c 0,0.008 -0.001,0.014 -0.004,0.019 C 0.504,-0.574 0.5,-0.57 0.495,-0.568 0.49,-0.565 0.485,-0.564 0.479,-0.563 0.472,-0.562 0.466,-0.562 0.46,-0.562 H 0.441 c -0.01,0 -0.019,0.002 -0.028,0.006 -0.008,0.003 -0.016,0.008 -0.022,0.015 -0.006,0.006 -0.011,0.014 -0.015,0.022 -0.004,0.009 -0.005,0.018 -0.005,0.028 v 0.07 c 0,0.01 -0.004,0.018 -0.011,0.025 -0.007,0.006 -0.015,0.01 -0.025,0.01 -0.009,0 -0.017,-0.004 -0.024,-0.01 C 0.304,-0.403 0.3,-0.411 0.3,-0.421 v -0.316 l 0.058,-0.013 0.048,0.013 v 0.036 c 0,0.009 0.002,0.018 0.005,0.027 0.004,0.008 0.009,0.015 0.016,0.022 0.006,0.006 0.014,0.011 0.022,0.014 0.009,0.004 0.018,0.006 0.027,0.006 0.01,0 0.018,0.003 0.025,0.01 0.007,0.007 0.01,0.015 0.01,0.025 z"
         style="fill:#eba300;fill-rule:nonzero"
         id="path5382" /><path
         d="M 0.862,-0.737 H 0.757 v -0.035 l 0.053,-0.035 0.052,0.035 z m -0.456,0 H 0.3 v -0.035 l 0.053,-0.02 0.053,0.02 z"
         style="fill:#a6a6a6;fill-rule:nonzero"
         id="path5384" /><path
         d="m 0.265,-0.842 h 0.176 v 0.035 c 0,0.009 -0.004,0.018 -0.011,0.025 -0.007,0.007 -0.015,0.01 -0.024,0.01 H 0.3 c -0.009,0 -0.017,-0.003 -0.024,-0.01 C 0.269,-0.789 0.265,-0.798 0.265,-0.807 Z m 0.632,0 v 0.035 c 0,0.009 -0.004,0.018 -0.011,0.025 -0.007,0.007 -0.015,0.01 -0.024,0.01 H 0.757 c -0.01,0 -0.018,-0.003 -0.025,-0.01 -0.007,-0.007 -0.01,-0.016 -0.01,-0.025 v -0.035 z"
         style="fill:#cccccc;fill-rule:nonzero"
         id="path5386" /></g></g></svg>
