<?xml version="1.0" encoding="UTF-8" standalone="no"?>
<svg
   width="16.844999"
   height="16.844999"
   viewBox="0 0 16.844999 16.844999"
   version="1.1"
   xml:space="preserve"
   style="clip-rule:evenodd;fill-rule:evenodd;stroke-linejoin:round;stroke-miterlimit:2"
   id="svg20568"
   sodipodi:docname="emojis.svg"
   xmlns:inkscape="http://www.inkscape.org/namespaces/inkscape"
   xmlns:sodipodi="http://sodipodi.sourceforge.net/DTD/sodipodi-0.dtd"
   xmlns="http://www.w3.org/2000/svg"
   xmlns:svg="http://www.w3.org/2000/svg"><defs
     id="defs20572" /><sodipodi:namedview
     id="namedview20570"
     pagecolor="#505050"
     bordercolor="#eeeeee"
     borderopacity="1"
     inkscape:pageshadow="0"
     inkscape:pageopacity="0"
     inkscape:pagecheckerboard="0" /><g
     transform="matrix(0.24,0,0,0.24,-106.72188,-263.4498)"
     id="g20566"><g
       transform="matrix(62.5,0,0,62.5,436.862,1154.77)"
       id="g5444"><path
         d="m 1.107,-0.667 c 0.02,0 0.038,0.004 0.055,0.011 0.017,0.008 0.032,0.018 0.045,0.03 0.013,0.013 0.023,0.028 0.03,0.045 0.007,0.017 0.011,0.035 0.011,0.055 0,0.025 -0.006,0.048 -0.019,0.07 -0.012,0.022 -0.03,0.039 -0.052,0.051 v 0.054 c 0,0.027 -0.004,0.053 -0.012,0.079 -0.008,0.026 -0.019,0.05 -0.033,0.072 -0.014,0.022 -0.032,0.041 -0.052,0.059 -0.021,0.017 -0.043,0.032 -0.068,0.042 0.017,0.04 0.026,0.08 0.026,0.122 V 0.21 H 0.125 V 0.023 c 0,-0.035 0.006,-0.069 0.018,-0.103 0.012,-0.033 0.029,-0.063 0.052,-0.09 0,-0.06 0,-0.119 0,-0.179 0,-0.059 0,-0.118 0,-0.178 0,-0.035 0.005,-0.07 0.014,-0.102 0.009,-0.033 0.022,-0.064 0.039,-0.092 0.017,-0.029 0.037,-0.055 0.06,-0.079 0.024,-0.023 0.05,-0.043 0.078,-0.06 0.029,-0.017 0.06,-0.03 0.093,-0.039 0.032,-0.009 0.067,-0.014 0.102,-0.014 0.034,0 0.067,0.005 0.099,0.013 0.032,0.009 0.062,0.021 0.091,0.037 0.028,0.017 0.054,0.036 0.078,0.059 0.024,0.023 0.045,0.049 0.063,0.078 0.018,-0.007 0.036,-0.011 0.055,-0.011 0.013,0 0.025,0.002 0.037,0.005 0.012,0.003 0.023,0.008 0.034,0.014 0.011,0.006 0.021,0.014 0.029,0.023 0.009,0.008 0.016,0.018 0.022,0.029 0.003,0 0.006,-0.001 0.009,-0.001 z"
         style="fill-rule:nonzero"
         id="path5430" /><path
         d="m 0.919,-0.388 c 0.002,0 0.004,0 0.006,0 L 0.94,-0.389 c 0.004,0 0.008,0.001 0.011,0.004 0.003,0.002 0.006,0.004 0.008,0.007 0.002,0.003 0.004,0.007 0.005,0.011 0.001,0.004 0.002,0.007 0.003,0.011 0.011,0.003 0.023,0.005 0.035,0.005 h 0.105 c 0,0.008 0,0.017 -0.002,0.026 -0.002,0.009 -0.004,0.017 -0.006,0.026 -0.01,0.035 -0.026,0.065 -0.049,0.09 -0.023,0.024 -0.052,0.042 -0.088,0.054 -0.016,0.005 -0.032,0.009 -0.048,0.01 -0.016,0.002 -0.032,0.003 -0.049,0.004 l -0.6,0.036 v -0.422 c 0,-0.043 0.008,-0.084 0.025,-0.123 0.017,-0.038 0.039,-0.071 0.068,-0.1 0.028,-0.029 0.062,-0.051 0.1,-0.068 0.038,-0.016 0.079,-0.024 0.123,-0.024 0.029,0 0.057,0.003 0.084,0.011 0.027,0.007 0.052,0.018 0.075,0.032 0.024,0.014 0.045,0.03 0.064,0.049 0.019,0.02 0.036,0.041 0.05,0.064 0.014,0.023 0.024,0.049 0.032,0.076 0.007,0.027 0.011,0.055 0.011,0.084 l -0.001,0.05 c 0,0.016 0.001,0.031 0.004,0.047 0.003,0.015 0.009,0.028 0.019,0.041 z"
         style="fill:#8e562e;fill-rule:nonzero"
         id="path5432" /><path
         d="M 0.195,0.14 V 0.023 c 0,-0.032 0.006,-0.062 0.019,-0.091 0.012,-0.028 0.029,-0.053 0.05,-0.074 C 0.285,-0.163 0.31,-0.18 0.339,-0.192 0.367,-0.204 0.397,-0.21 0.43,-0.21 h 0.081 l 0.07,0.06 0.07,-0.06 h 0.082 c 0.032,0 0.062,0.006 0.091,0.018 0.028,0.012 0.053,0.029 0.075,0.05 0.021,0.021 0.038,0.046 0.05,0.074 0.012,0.029 0.018,0.059 0.018,0.091 V 0.14 Z"
         style="fill:#886ce4;fill-rule:nonzero"
         id="path5434" /><path
         d="m 0.615,-0.702 c 0.01,0.019 0.022,0.037 0.037,0.054 0.015,0.017 0.032,0.032 0.05,0.045 0.019,0.013 0.039,0.023 0.06,0.03 0.021,0.008 0.043,0.011 0.065,0.011 v 0.071 c 0,0.034 -0.007,0.066 -0.02,0.095 -0.012,0.03 -0.03,0.056 -0.052,0.079 -0.023,0.022 -0.049,0.039 -0.078,0.052 -0.03,0.013 -0.062,0.019 -0.096,0.019 -0.034,0 -0.066,-0.006 -0.096,-0.019 C 0.455,-0.278 0.429,-0.296 0.407,-0.318 0.385,-0.34 0.368,-0.367 0.355,-0.396 0.342,-0.426 0.335,-0.458 0.335,-0.492 v -0.07 c 0.035,0 0.064,-0.01 0.088,-0.028 0.024,-0.018 0.042,-0.043 0.052,-0.076 0.006,0.014 0.015,0.025 0.025,0.034 0.01,0.009 0.022,0.016 0.034,0.021 0.013,0.005 0.026,0.009 0.039,0.011 0.014,0.002 0.028,0.003 0.042,0.003 z m 0.036,0.492 c 0.01,0 0.018,0.003 0.025,0.01 0.007,0.007 0.011,0.015 0.011,0.024 0,0.005 -0.002,0.011 -0.004,0.016 L 0.612,-0.02 C 0.609,-0.014 0.605,-0.009 0.599,-0.005 0.594,-0.002 0.588,0 0.581,0 0.575,0 0.568,-0.002 0.563,-0.005 0.557,-0.009 0.553,-0.014 0.55,-0.02 L 0.48,-0.16 C 0.477,-0.165 0.476,-0.171 0.476,-0.176 0.476,-0.185 0.48,-0.193 0.487,-0.2 0.494,-0.207 0.502,-0.21 0.511,-0.21 Z"
         style="fill:#ffc83d;fill-rule:nonzero"
         id="path5436" /><path
         d="m 0.651,-0.386 c 0,0.01 -0.002,0.019 -0.005,0.027 C 0.642,-0.35 0.637,-0.343 0.631,-0.337 0.624,-0.33 0.617,-0.325 0.608,-0.322 0.6,-0.318 0.591,-0.316 0.581,-0.316 0.571,-0.316 0.562,-0.318 0.553,-0.321 0.545,-0.325 0.537,-0.33 0.531,-0.336 0.525,-0.343 0.52,-0.35 0.516,-0.359 0.513,-0.367 0.511,-0.376 0.511,-0.386 Z m 0.036,-0.176 c 0.009,0 0.018,0.004 0.024,0.011 0.007,0.007 0.011,0.015 0.011,0.025 v 0.035 c 0,0.009 -0.004,0.017 -0.011,0.024 -0.007,0.007 -0.015,0.01 -0.024,0.01 -0.01,0 -0.018,-0.003 -0.025,-0.01 C 0.655,-0.474 0.651,-0.482 0.651,-0.491 v -0.035 c 0,-0.01 0.004,-0.018 0.011,-0.025 0.006,-0.007 0.015,-0.011 0.025,-0.011 z m -0.211,0 c 0.01,0 0.018,0.004 0.025,0.011 0.007,0.007 0.01,0.015 0.01,0.025 v 0.035 c 0,0.009 -0.003,0.017 -0.01,0.024 -0.007,0.007 -0.015,0.01 -0.025,0.01 -0.009,0 -0.018,-0.003 -0.025,-0.01 -0.007,-0.007 -0.01,-0.015 -0.01,-0.024 v -0.035 c 0,-0.01 0.003,-0.018 0.01,-0.025 0.007,-0.007 0.015,-0.011 0.025,-0.011 z"
         style="fill-rule:nonzero"
         id="path5438" /><path
         d="m 0.616,-0.457 c 0,0.01 -0.003,0.019 -0.01,0.025 -0.007,0.007 -0.015,0.011 -0.025,0.011 -0.009,0 -0.018,-0.004 -0.025,-0.011 -0.007,-0.007 -0.01,-0.015 -0.01,-0.025 z"
         style="fill:#f7894a;fill-rule:nonzero"
         id="path5440" /><path
         d="m 1.107,-0.597 c 0.01,0 0.019,0.002 0.028,0.006 0.008,0.004 0.016,0.009 0.022,0.015 0.006,0.006 0.011,0.014 0.015,0.022 0.004,0.009 0.006,0.018 0.006,0.028 0,0.009 -0.002,0.019 -0.006,0.027 -0.004,0.008 -0.009,0.016 -0.015,0.022 -0.006,0.007 -0.014,0.012 -0.022,0.015 -0.009,0.004 -0.018,0.005 -0.028,0.005 -0.019,0 -0.035,-0.006 -0.049,-0.02 l -0.091,0.091 v 0.176 c 0,0.009 -0.003,0.017 -0.01,0.024 -0.007,0.007 -0.015,0.01 -0.025,0.01 V -0.375 C 0.927,-0.38 0.923,-0.384 0.919,-0.388 L 0.932,-0.401 V -0.536 C 0.921,-0.542 0.912,-0.551 0.906,-0.562 0.9,-0.573 0.897,-0.584 0.897,-0.597 c 0,-0.009 0.002,-0.019 0.005,-0.027 0.004,-0.008 0.009,-0.016 0.015,-0.022 0.007,-0.007 0.014,-0.012 0.023,-0.015 0.008,-0.004 0.018,-0.006 0.027,-0.006 0.01,0 0.019,0.002 0.028,0.006 0.008,0.003 0.015,0.008 0.022,0.015 0.006,0.006 0.011,0.014 0.015,0.022 0.004,0.008 0.006,0.018 0.006,0.027 0,0.01 -0.002,0.019 -0.006,0.028 C 1.028,-0.56 1.023,-0.553 1.017,-0.547 1.01,-0.54 1.003,-0.535 0.995,-0.532 0.986,-0.528 0.977,-0.526 0.967,-0.526 v 0.09 L 1.04,-0.508 C 1.038,-0.515 1.038,-0.521 1.038,-0.527 c 0,-0.01 10e-4,-0.019 0.005,-0.027 0.004,-0.009 0.009,-0.016 0.015,-0.022 0.007,-0.007 0.014,-0.012 0.023,-0.015 0.008,-0.004 0.017,-0.006 0.026,-0.006 z m -0.14,-0.035 c -0.009,0 -0.018,0.004 -0.025,0.01 -0.006,0.007 -0.01,0.016 -0.01,0.025 0,0.01 0.004,0.018 0.01,0.025 0.007,0.007 0.016,0.01 0.025,0.01 0.01,0 0.018,-0.003 0.025,-0.01 0.007,-0.007 0.01,-0.015 0.01,-0.025 0,-0.009 -0.003,-0.018 -0.01,-0.025 -0.007,-0.006 -0.015,-0.01 -0.025,-0.01 z m 0.14,0.141 c 0.005,0 0.01,-0.001 0.014,-0.003 0.004,-0.002 0.008,-0.005 0.011,-0.008 0.003,-0.003 0.006,-0.007 0.008,-0.011 0.002,-0.004 0.003,-0.009 0.003,-0.013 0,-0.01 -0.004,-0.018 -0.011,-0.025 -0.007,-0.007 -0.015,-0.011 -0.025,-0.011 -0.009,0 -0.017,0.004 -0.024,0.011 -0.007,0.007 -0.01,0.015 -0.01,0.025 0,0.009 0.003,0.017 0.01,0.024 0.007,0.007 0.015,0.011 0.024,0.011 z"
         style="fill:#cccccc;fill-rule:nonzero"
         id="path5442" /></g></g></svg>
