<?xml version="1.0" encoding="UTF-8" standalone="no"?>
<svg
   width="16.844999"
   height="16.844999"
   viewBox="0 0 16.844999 16.844999"
   version="1.1"
   xml:space="preserve"
   style="clip-rule:evenodd;fill-rule:evenodd;stroke-linejoin:round;stroke-miterlimit:2"
   id="svg20568"
   sodipodi:docname="emojis.svg"
   xmlns:inkscape="http://www.inkscape.org/namespaces/inkscape"
   xmlns:sodipodi="http://sodipodi.sourceforge.net/DTD/sodipodi-0.dtd"
   xmlns="http://www.w3.org/2000/svg"
   xmlns:svg="http://www.w3.org/2000/svg"><defs
     id="defs20572" /><sodipodi:namedview
     id="namedview20570"
     pagecolor="#505050"
     bordercolor="#eeeeee"
     borderopacity="1"
     inkscape:pageshadow="0"
     inkscape:pageopacity="0"
     inkscape:pagecheckerboard="0" /><g
     transform="matrix(0.24,0,0,0.24,-280.9566,-93.74892)"
     id="g20566"><g
       transform="matrix(62.5,0,0,62.5,1162.84,447.683)"
       id="g570"><path
         d="m 1.248,-0.351 c 0,0.052 -0.007,0.101 -0.02,0.149 C 1.215,-0.154 1.196,-0.109 1.171,-0.068 1.147,-0.026 1.118,0.012 1.083,0.046 1.049,0.08 1.011,0.109 0.97,0.134 0.928,0.158 0.884,0.177 0.836,0.19 0.788,0.204 0.738,0.21 0.687,0.21 0.635,0.21 0.585,0.204 0.537,0.19 0.489,0.177 0.445,0.158 0.403,0.134 0.362,0.109 0.324,0.08 0.29,0.046 0.255,0.012 0.226,-0.026 0.202,-0.068 0.177,-0.109 0.158,-0.154 0.145,-0.202 0.132,-0.25 0.125,-0.299 0.125,-0.351 c 0,-0.052 0.007,-0.102 0.02,-0.149 0.013,-0.048 0.032,-0.093 0.057,-0.135 0.024,-0.041 0.053,-0.079 0.088,-0.113 0.034,-0.034 0.072,-0.064 0.113,-0.088 0.042,-0.024 0.086,-0.043 0.134,-0.057 0.048,-0.013 0.098,-0.02 0.15,-0.02 0.051,0 0.101,0.007 0.149,0.02 0.048,0.014 0.092,0.033 0.134,0.057 0.041,0.024 0.079,0.054 0.113,0.088 0.035,0.034 0.064,0.072 0.088,0.113 0.025,0.042 0.044,0.087 0.057,0.135 0.013,0.047 0.02,0.097 0.02,0.149 z"
         style="fill-rule:nonzero"
         id="path562" /><path
         d="m 1.178,-0.351 c 0,0.045 -0.006,0.089 -0.018,0.131 -0.012,0.041 -0.028,0.081 -0.049,0.117 -0.022,0.036 -0.047,0.07 -0.077,0.099 C 1.004,0.026 0.971,0.052 0.935,0.073 0.898,0.094 0.859,0.111 0.817,0.123 0.775,0.134 0.732,0.14 0.687,0.14 0.641,0.14 0.598,0.134 0.556,0.123 0.514,0.111 0.475,0.094 0.438,0.073 0.402,0.052 0.369,0.026 0.339,-0.004 0.309,-0.033 0.284,-0.067 0.262,-0.103 0.241,-0.139 0.225,-0.179 0.213,-0.22 0.201,-0.262 0.195,-0.306 0.195,-0.351 c 0,-0.045 0.006,-0.089 0.018,-0.131 0.012,-0.042 0.028,-0.081 0.049,-0.117 0.022,-0.037 0.047,-0.07 0.077,-0.099 0.03,-0.03 0.063,-0.056 0.099,-0.077 0.037,-0.021 0.076,-0.038 0.118,-0.05 0.042,-0.011 0.085,-0.017 0.131,-0.017 0.045,0 0.088,0.006 0.13,0.017 0.042,0.012 0.081,0.029 0.118,0.05 0.036,0.021 0.069,0.047 0.099,0.077 0.03,0.029 0.055,0.062 0.077,0.099 0.021,0.036 0.037,0.075 0.049,0.117 0.012,0.042 0.018,0.086 0.018,0.131 z"
         style="fill:#8cbd18;fill-rule:nonzero"
         id="path564" /><path
         d="m 0.265,-0.466 c 0,-0.01 0.004,-0.018 0.011,-0.025 0.007,-0.007 0.015,-0.01 0.024,-0.01 0.021,0 0.039,-0.002 0.055,-0.006 C 0.372,-0.511 0.387,-0.516 0.401,-0.523 0.416,-0.53 0.43,-0.539 0.443,-0.549 0.456,-0.56 0.47,-0.572 0.485,-0.585 0.489,-0.589 0.493,-0.592 0.496,-0.594 0.5,-0.596 0.505,-0.597 0.511,-0.597 c 0.009,0 0.017,0.004 0.025,0.011 0.007,0.006 0.01,0.015 0.01,0.024 0,0.005 0,0.009 -0.002,0.013 C 0.542,-0.546 0.54,-0.542 0.538,-0.539 0.525,-0.522 0.509,-0.507 0.491,-0.493 0.472,-0.48 0.452,-0.469 0.431,-0.459 0.41,-0.45 0.388,-0.443 0.365,-0.439 0.343,-0.434 0.321,-0.432 0.3,-0.432 0.291,-0.432 0.283,-0.435 0.276,-0.442 0.269,-0.449 0.265,-0.457 0.265,-0.466 Z m 0.597,-0.131 c 0.006,0 0.011,0.001 0.014,0.003 0.004,0.002 0.008,0.005 0.012,0.009 0.015,0.013 0.029,0.025 0.042,0.036 0.014,0.01 0.027,0.019 0.042,0.026 0.014,0.007 0.029,0.012 0.046,0.016 0.016,0.004 0.034,0.006 0.055,0.006 0.009,0 0.017,0.003 0.024,0.01 0.007,0.007 0.01,0.015 0.01,0.025 0,0.009 -0.003,0.017 -0.01,0.024 -0.007,0.007 -0.015,0.01 -0.024,0.01 -0.021,0 -0.043,-0.002 -0.065,-0.007 C 0.985,-0.443 0.963,-0.45 0.942,-0.459 0.92,-0.469 0.9,-0.48 0.882,-0.493 0.864,-0.506 0.848,-0.521 0.835,-0.539 0.833,-0.542 0.831,-0.546 0.829,-0.549 0.827,-0.553 0.827,-0.557 0.827,-0.562 c 0,-0.009 0.003,-0.018 0.01,-0.024 0.008,-0.007 0.016,-0.011 0.025,-0.011 z"
         style="fill:#107c10;fill-rule:nonzero"
         id="path566" /><path
         d="M 0.494,-0.281 C 0.486,-0.281 0.479,-0.282 0.473,-0.285 0.467,-0.288 0.461,-0.291 0.456,-0.296 0.452,-0.301 0.448,-0.306 0.445,-0.313 0.442,-0.319 0.441,-0.326 0.441,-0.333 v -0.071 c 0,-0.007 0.001,-0.014 0.004,-0.02 0.003,-0.006 0.007,-0.012 0.012,-0.017 0.004,-0.005 0.01,-0.009 0.016,-0.011 0.007,-0.003 0.013,-0.005 0.021,-0.005 0.007,0 0.014,0.002 0.02,0.005 0.006,0.002 0.012,0.006 0.017,0.011 0.004,0.005 0.008,0.011 0.011,0.017 0.003,0.006 0.004,0.013 0.004,0.02 v 0.071 c 0,0.007 -0.001,0.013 -0.004,0.02 -0.003,0.006 -0.007,0.012 -0.011,0.017 -0.005,0.004 -0.01,0.008 -0.017,0.011 -0.006,0.003 -0.013,0.004 -0.02,0.004 z m 0.385,-0.176 c 0.008,0 0.014,0.002 0.021,0.005 0.006,0.002 0.012,0.006 0.017,0.011 0.004,0.005 0.008,0.011 0.011,0.017 0.003,0.006 0.004,0.013 0.004,0.02 v 0.071 c 0,0.007 -0.001,0.014 -0.004,0.02 -0.003,0.007 -0.007,0.012 -0.011,0.017 -0.005,0.005 -0.011,0.008 -0.017,0.011 -0.007,0.003 -0.013,0.004 -0.021,0.004 -0.007,0 -0.014,-10e-4 -0.02,-0.004 C 0.853,-0.288 0.847,-0.292 0.842,-0.296 0.837,-0.301 0.834,-0.307 0.831,-0.313 0.828,-0.32 0.827,-0.326 0.827,-0.333 v -0.071 c 0,-0.007 0.001,-0.014 0.004,-0.02 0.003,-0.006 0.006,-0.012 0.011,-0.017 0.005,-0.005 0.011,-0.009 0.017,-0.011 0.006,-0.003 0.013,-0.005 0.02,-0.005 z m -0.078,0.286 c 0.005,-0.011 0.011,-0.021 0.019,-0.03 0.008,-0.01 0.017,-0.018 0.027,-0.024 0.009,-0.007 0.02,-0.012 0.032,-0.015 0.011,-0.004 0.023,-0.006 0.036,-0.006 h 0.017 v 0.036 c -0.012,0 -0.024,0.002 -0.034,0.006 -0.011,0.005 -0.02,0.011 -0.028,0.019 -0.008,0.008 -0.014,0.017 -0.019,0.028 -0.004,0.011 -0.007,0.022 -0.007,0.034 0,0.012 0.003,0.024 0.007,0.034 0.005,0.011 0.011,0.02 0.019,0.028 0.008,0.008 0.017,0.014 0.028,0.019 0.01,0.005 0.022,0.007 0.034,0.007 V 0 H 0.915 C 0.899,0 0.884,-0.003 0.87,-0.008 0.857,-0.014 0.844,-0.021 0.833,-0.031 0.823,-0.041 0.814,-0.052 0.807,-0.065 0.8,-0.078 0.795,-0.092 0.793,-0.107 0.778,-0.119 0.761,-0.127 0.743,-0.133 0.724,-0.138 0.706,-0.141 0.687,-0.141 0.667,-0.141 0.649,-0.138 0.63,-0.133 0.612,-0.127 0.595,-0.119 0.58,-0.107 0.578,-0.092 0.573,-0.078 0.566,-0.065 0.559,-0.052 0.55,-0.041 0.54,-0.031 0.529,-0.021 0.517,-0.014 0.503,-0.008 0.489,-0.003 0.474,0 0.458,0 H 0.441 v -0.035 c 0.012,0 0.023,-0.002 0.034,-0.007 0.011,-0.005 0.02,-0.011 0.028,-0.019 0.008,-0.008 0.014,-0.017 0.019,-0.028 0.005,-0.01 0.007,-0.022 0.007,-0.034 0,-0.012 -0.002,-0.023 -0.007,-0.034 C 0.517,-0.168 0.511,-0.177 0.503,-0.185 0.495,-0.193 0.486,-0.199 0.475,-0.204 0.464,-0.208 0.453,-0.21 0.441,-0.21 v -0.036 h 0.017 c 0.013,0 0.025,0.002 0.036,0.006 0.012,0.003 0.023,0.008 0.032,0.015 0.01,0.006 0.019,0.014 0.027,0.024 0.008,0.009 0.014,0.019 0.019,0.03 0.015,-0.015 0.033,-0.025 0.053,-0.031 0.02,-0.006 0.041,-0.009 0.062,-0.009 0.02,0 0.041,0.003 0.061,0.009 0.02,0.006 0.038,0.016 0.053,0.031 z"
         style="fill-rule:nonzero"
         id="path568" /></g></g></svg>
