<?xml version="1.0" encoding="UTF-8" standalone="no"?>
<svg
   width="16.844999"
   height="16.844999"
   viewBox="0 0 16.844999 16.844999"
   version="1.1"
   xml:space="preserve"
   style="clip-rule:evenodd;fill-rule:evenodd;stroke-linejoin:round;stroke-miterlimit:2"
   id="svg20568"
   sodipodi:docname="emojis.svg"
   xmlns:inkscape="http://www.inkscape.org/namespaces/inkscape"
   xmlns:sodipodi="http://sodipodi.sourceforge.net/DTD/sodipodi-0.dtd"
   xmlns="http://www.w3.org/2000/svg"
   xmlns:svg="http://www.w3.org/2000/svg"><defs
     id="defs20572" /><sodipodi:namedview
     id="namedview20570"
     pagecolor="#505050"
     bordercolor="#eeeeee"
     borderopacity="1"
     inkscape:pageshadow="0"
     inkscape:pageopacity="0"
     inkscape:pagecheckerboard="0" /><g
     transform="matrix(0.24,0,0,0.24,-301.5534,-93.74892)"
     id="g20566"><g
       transform="matrix(62.5,0,0,62.5,1248.66,447.683)"
       id="g586"><path
         d="M 1.117,0.01 C 1.135,0.018 1.15,0.031 1.161,0.049 1.172,0.066 1.177,0.085 1.177,0.105 1.177,0.119 1.175,0.133 1.169,0.146 1.164,0.159 1.156,0.17 1.147,0.179 1.138,0.189 1.126,0.197 1.114,0.202 1.101,0.208 1.087,0.21 1.073,0.21 H 0.3 C 0.286,0.21 0.272,0.208 0.259,0.202 0.247,0.197 0.236,0.189 0.226,0.179 0.217,0.17 0.209,0.159 0.204,0.146 0.198,0.133 0.195,0.12 0.195,0.105 0.195,0.084 0.201,0.066 0.212,0.048 0.223,0.031 0.238,0.018 0.256,0.01 0.214,-0.041 0.181,-0.097 0.159,-0.159 0.137,-0.221 0.125,-0.285 0.125,-0.351 c 0,-0.052 0.007,-0.101 0.021,-0.149 0.013,-0.048 0.032,-0.093 0.056,-0.134 0.025,-0.042 0.054,-0.08 0.088,-0.114 0.034,-0.034 0.072,-0.064 0.114,-0.088 0.041,-0.024 0.086,-0.043 0.133,-0.057 0.048,-0.013 0.098,-0.02 0.15,-0.02 0.051,0 0.101,0.007 0.148,0.02 0.048,0.014 0.093,0.033 0.135,0.057 0.041,0.024 0.079,0.054 0.113,0.088 0.035,0.034 0.064,0.072 0.088,0.114 0.025,0.041 0.044,0.086 0.057,0.134 0.013,0.048 0.02,0.097 0.02,0.149 0,0.066 -0.011,0.13 -0.034,0.192 -0.022,0.062 -0.055,0.118 -0.097,0.169 z"
         style="fill-rule:nonzero"
         id="path572" /><path
         d="m 1.178,-0.351 c 0,0.045 -0.006,0.089 -0.018,0.131 -0.012,0.041 -0.028,0.081 -0.049,0.117 -0.022,0.036 -0.047,0.07 -0.077,0.099 C 1.004,0.026 0.971,0.052 0.935,0.073 0.898,0.094 0.859,0.111 0.817,0.123 0.775,0.134 0.732,0.14 0.687,0.14 0.641,0.14 0.598,0.134 0.556,0.123 0.514,0.111 0.475,0.094 0.438,0.073 0.402,0.052 0.369,0.026 0.339,-0.004 0.309,-0.033 0.284,-0.067 0.262,-0.103 0.241,-0.139 0.225,-0.179 0.213,-0.22 0.201,-0.262 0.195,-0.306 0.195,-0.351 c 0,-0.045 0.006,-0.089 0.018,-0.131 0.012,-0.042 0.028,-0.081 0.049,-0.117 0.022,-0.037 0.047,-0.07 0.077,-0.099 0.03,-0.03 0.063,-0.056 0.099,-0.077 0.037,-0.021 0.076,-0.038 0.118,-0.05 0.042,-0.011 0.085,-0.017 0.131,-0.017 0.045,0 0.088,0.006 0.13,0.017 0.042,0.012 0.081,0.029 0.118,0.05 0.036,0.021 0.069,0.047 0.099,0.077 0.03,0.029 0.055,0.062 0.077,0.099 0.021,0.036 0.037,0.075 0.049,0.117 0.012,0.042 0.018,0.086 0.018,0.131 z"
         style="fill:#ffc83d;fill-rule:nonzero"
         id="path574" /><path
         d="M 0.335,-0.537 C 0.326,-0.537 0.317,-0.54 0.311,-0.547 0.304,-0.554 0.3,-0.562 0.3,-0.572 c 0,-0.01 0.004,-0.018 0.011,-0.025 0.006,-0.007 0.015,-0.01 0.024,-0.01 0.038,0 0.072,-0.007 0.102,-0.022 0.03,-0.014 0.058,-0.035 0.083,-0.061 0.008,-0.008 0.016,-0.012 0.026,-0.012 0.01,0 0.018,0.003 0.025,0.01 0.007,0.007 0.011,0.016 0.011,0.025 0,0.008 -0.004,0.016 -0.01,0.023 -0.014,0.017 -0.03,0.033 -0.049,0.046 -0.018,0.013 -0.037,0.024 -0.058,0.034 -0.02,0.009 -0.041,0.016 -0.064,0.02 -0.022,0.005 -0.044,0.007 -0.066,0.007 z m 0.703,0 C 1.016,-0.537 0.994,-0.539 0.972,-0.544 0.95,-0.548 0.928,-0.555 0.908,-0.564 0.887,-0.574 0.868,-0.585 0.849,-0.598 0.831,-0.611 0.815,-0.627 0.801,-0.644 0.795,-0.651 0.792,-0.659 0.792,-0.667 c 0,-0.009 0.003,-0.018 0.01,-0.025 0.007,-0.007 0.015,-0.01 0.025,-0.01 0.01,0 0.019,0.004 0.026,0.012 0.026,0.026 0.054,0.047 0.084,0.061 0.029,0.015 0.063,0.022 0.101,0.022 0.009,0 0.017,0.004 0.024,0.011 0.007,0.007 0.011,0.015 0.011,0.024 0,0.01 -0.004,0.018 -0.011,0.025 -0.007,0.007 -0.015,0.01 -0.024,0.01 z"
         style="fill:#d48c00;fill-rule:nonzero"
         id="path576" /><path
         d="m 0.443,-0.035 c 0.005,-0.03 0.014,-0.058 0.028,-0.084 0.015,-0.026 0.033,-0.048 0.055,-0.067 0.021,-0.019 0.046,-0.033 0.073,-0.044 0.028,-0.01 0.057,-0.016 0.088,-0.016 0.03,0 0.059,0.006 0.087,0.016 0.027,0.011 0.052,0.026 0.073,0.044 0.022,0.019 0.04,0.042 0.054,0.067 0.015,0.026 0.024,0.054 0.029,0.084 z m 0.208,-0.298 c 0,0.006 -0.001,0.012 -0.005,0.018 -0.004,0.006 -0.008,0.01 -0.014,0.013 L 0.371,-0.176 V -0.211 L 0.538,-0.333 0.371,-0.457 v -0.035 l 0.261,0.127 c 0.006,0.003 0.01,0.007 0.014,0.013 0.004,0.006 0.005,0.012 0.005,0.019 z m 0.351,-0.124 -0.167,0.124 0.167,0.122 v 0.035 L 0.741,-0.302 C 0.735,-0.305 0.731,-0.309 0.727,-0.315 0.723,-0.321 0.722,-0.327 0.722,-0.333 c 0,-0.007 0.001,-0.013 0.005,-0.019 0.004,-0.006 0.008,-0.01 0.014,-0.013 l 0.261,-0.127 z"
         style="fill-rule:nonzero"
         id="path578" /><path
         d="m 1.07,0.07 c 0.002,0 0.004,-0.001 0.006,-0.001 0.004,0 0.008,0.001 0.012,0.004 0.003,0.002 0.007,0.005 0.01,0.008 0.003,0.004 0.005,0.008 0.007,0.012 0.002,0.004 0.002,0.008 0.002,0.012 0,0.009 -0.003,0.018 -0.01,0.025 C 1.09,0.137 1.082,0.14 1.073,0.14 1.069,0.14 1.064,0.139 1.06,0.138 1.056,0.136 1.053,0.134 1.049,0.131 1.041,0.137 1.031,0.14 1.02,0.14 1.008,0.14 0.997,0.137 0.988,0.129 0.975,0.137 0.963,0.14 0.95,0.14 H 0.423 C 0.41,0.14 0.398,0.137 0.385,0.129 0.376,0.137 0.365,0.14 0.353,0.14 0.348,0.14 0.343,0.139 0.338,0.138 0.333,0.136 0.328,0.134 0.324,0.131 0.317,0.137 0.309,0.14 0.3,0.14 0.291,0.14 0.283,0.137 0.276,0.13 0.269,0.123 0.265,0.114 0.265,0.105 0.265,0.096 0.269,0.087 0.276,0.08 0.283,0.073 0.291,0.07 0.3,0.07 c 0.001,0 0.001,0 0.002,0 0,0 0.001,0 0.001,0 0.004,-0.01 0.01,-0.019 0.019,-0.025 0.009,-0.007 0.02,-0.01 0.031,-0.01 0.002,0 0.003,0 0.004,0 0.002,0 0.003,0 0.005,10e-4 C 0.368,0.025 0.377,0.016 0.388,0.01 0.399,0.003 0.411,0 0.423,0 0.429,0 0.435,0.001 0.442,0.002 0.441,-0.004 0.441,-0.011 0.441,-0.018 c 0,-0.017 0.003,-0.032 0.009,-0.047 0.007,-0.015 0.015,-0.028 0.027,-0.039 0.011,-0.012 0.024,-0.02 0.039,-0.027 0.015,-0.006 0.031,-0.01 0.047,-0.01 0.009,0 0.018,10e-4 0.026,0.003 0.007,-0.011 0.015,-0.02 0.026,-0.027 0.011,-0.007 0.023,-0.011 0.036,-0.011 h 0.071 c 0.013,0 0.025,0.004 0.036,0.011 0.011,0.007 0.02,0.016 0.026,0.027 0.008,-0.002 0.016,-0.003 0.026,-0.003 0.016,0 0.032,0.004 0.047,0.01 0.015,0.007 0.028,0.016 0.039,0.027 0.011,0.011 0.02,0.024 0.026,0.039 0.007,0.015 0.01,0.03 0.01,0.047 0,0.007 0,0.014 -0.001,0.02 C 0.938,0.001 0.944,0 0.95,0 0.962,0 0.974,0.003 0.985,0.009 0.996,0.015 1.005,0.024 1.011,0.036 1.012,0.035 1.014,0.035 1.015,0.035 c 0.001,0 0.002,0 0.004,0 0.011,0 0.022,0.003 0.031,0.01 0.009,0.006 0.016,0.015 0.02,0.025 z"
         style="fill:#107c10;fill-rule:nonzero"
         id="path580" /><path
         d="M 0.511,0.035 C 0.511,0.042 0.51,0.049 0.507,0.055 0.504,0.062 0.5,0.067 0.496,0.072 0.491,0.077 0.485,0.08 0.479,0.083 0.472,0.086 0.466,0.087 0.458,0.087 0.451,0.087 0.445,0.086 0.438,0.083 0.432,0.08 0.426,0.077 0.421,0.072 0.417,0.068 0.413,0.062 0.41,0.056 0.407,0.05 0.406,0.043 0.406,0.035 0.406,0.028 0.407,0.021 0.41,0.015 0.413,0.008 0.416,0.003 0.421,-0.002 c 0.005,-0.005 0.01,-0.009 0.017,-0.011 0.006,-0.003 0.013,-0.005 0.02,-0.005 0.008,0 0.014,0.002 0.021,0.005 0.006,0.002 0.012,0.006 0.017,0.011 C 0.5,0.003 0.504,0.009 0.507,0.015 0.51,0.021 0.511,0.028 0.511,0.035 Z M 0.599,-0.07 c 0,0.009 -0.004,0.018 -0.011,0.025 -0.006,0.006 -0.015,0.01 -0.025,0.01 -0.009,0 -0.017,-0.004 -0.024,-0.011 -0.007,-0.007 -0.01,-0.015 -0.01,-0.024 0,-0.01 0.003,-0.018 0.01,-0.025 0.007,-0.007 0.015,-0.01 0.024,-0.01 0.01,0 0.019,0.003 0.025,0.01 0.007,0.007 0.011,0.015 0.011,0.025 z m 0.245,0 c 0,0.009 -0.003,0.017 -0.01,0.024 -0.007,0.007 -0.015,0.011 -0.024,0.011 -0.01,0 -0.018,-0.004 -0.025,-0.01 -0.007,-0.007 -0.011,-0.016 -0.011,-0.025 0,-0.01 0.004,-0.018 0.011,-0.025 0.007,-0.007 0.015,-0.01 0.025,-0.01 0.009,0 0.017,0.003 0.024,0.01 0.007,0.007 0.01,0.015 0.01,0.025 z M 0.967,0.035 C 0.967,0.043 0.966,0.05 0.963,0.056 0.96,0.062 0.957,0.068 0.952,0.072 0.947,0.077 0.941,0.08 0.935,0.083 0.928,0.086 0.922,0.087 0.915,0.087 0.907,0.087 0.901,0.086 0.894,0.083 0.888,0.08 0.882,0.077 0.877,0.072 0.873,0.067 0.869,0.062 0.866,0.055 0.863,0.049 0.862,0.042 0.862,0.035 c 0,-0.007 0.001,-0.014 0.004,-0.02 0.003,-0.006 0.007,-0.012 0.011,-0.017 0.005,-0.005 0.011,-0.009 0.017,-0.011 0.007,-0.003 0.013,-0.005 0.021,-0.005 0.007,0 0.014,0.002 0.02,0.005 0.007,0.002 0.012,0.006 0.017,0.011 0.005,0.005 0.008,0.01 0.011,0.017 0.003,0.006 0.004,0.013 0.004,0.02 z M 0.722,0 C 0.722,0.009 0.718,0.018 0.711,0.025 0.704,0.032 0.696,0.035 0.687,0.035 0.677,0.035 0.669,0.032 0.662,0.025 0.655,0.018 0.651,0.009 0.651,0 c 0,-0.01 0.004,-0.018 0.011,-0.025 0.006,-0.007 0.015,-0.01 0.025,-0.01 0.009,0 0.018,0.003 0.024,0.01 C 0.718,-0.018 0.722,-0.01 0.722,0 Z"
         style="fill:#13a10e;fill-rule:nonzero"
         id="path582" /><path
         d="m 0.651,-0.123 c 0,0.005 -0.001,0.009 -0.005,0.012 -0.003,0.004 -0.007,0.006 -0.012,0.006 -0.005,0 -0.009,-0.002 -0.013,-0.006 -0.003,-0.003 -0.005,-0.007 -0.005,-0.012 0,-0.005 0.002,-0.009 0.005,-0.012 0.004,-0.004 0.008,-0.006 0.013,-0.006 0.005,0 0.009,0.002 0.012,0.006 0.004,0.003 0.005,0.007 0.005,0.012 z m 0.106,0 c 0,0.005 -0.002,0.009 -0.005,0.012 -0.004,0.004 -0.008,0.006 -0.013,0.006 -0.005,0 -0.009,-0.002 -0.012,-0.006 -0.004,-0.003 -0.005,-0.007 -0.005,-0.012 0,-0.005 0.001,-0.009 0.005,-0.012 0.003,-0.004 0.007,-0.006 0.012,-0.006 0.005,0 0.009,0.002 0.013,0.006 0.003,0.003 0.005,0.007 0.005,0.012 z m 0.035,0.21 C 0.792,0.092 0.79,0.096 0.787,0.1 0.783,0.103 0.779,0.105 0.774,0.105 0.77,0.105 0.765,0.103 0.762,0.1 0.759,0.096 0.757,0.092 0.757,0.087 0.757,0.083 0.759,0.079 0.762,0.075 0.766,0.072 0.77,0.07 0.774,0.07 c 0.005,0 0.009,0.002 0.013,0.005 0.003,0.004 0.005,0.008 0.005,0.012 z m -0.176,0 C 0.616,0.092 0.615,0.096 0.611,0.1 0.608,0.103 0.604,0.105 0.599,0.105 0.594,0.105 0.59,0.103 0.586,0.1 0.583,0.096 0.581,0.092 0.581,0.087 0.581,0.083 0.583,0.079 0.586,0.075 0.59,0.072 0.594,0.07 0.599,0.07 c 0.004,0 0.008,0.002 0.012,0.005 0.003,0.004 0.005,0.008 0.005,0.012 z"
         style="fill:#16c60c;fill-rule:nonzero"
         id="path584" /></g></g></svg>
