<?xml version="1.0" encoding="UTF-8" standalone="no"?>
<svg
   width="12.945"
   height="16.110001"
   viewBox="0 0 12.945 16.110001"
   version="1.1"
   xml:space="preserve"
   style="clip-rule:evenodd;fill-rule:evenodd;stroke-linejoin:round;stroke-miterlimit:2"
   id="svg20568"
   sodipodi:docname="emojis.svg"
   xmlns:inkscape="http://www.inkscape.org/namespaces/inkscape"
   xmlns:sodipodi="http://sodipodi.sourceforge.net/DTD/sodipodi-0.dtd"
   xmlns="http://www.w3.org/2000/svg"
   xmlns:svg="http://www.w3.org/2000/svg"><defs
     id="defs20572" /><sodipodi:namedview
     id="namedview20570"
     pagecolor="#505050"
     bordercolor="#eeeeee"
     borderopacity="1"
     inkscape:pageshadow="0"
     inkscape:pageopacity="0"
     inkscape:pagecheckerboard="0" /><g
     transform="matrix(0.24,0,0,0.24,-13.423584,-280.9602)"
     id="g20566"><g
       transform="matrix(62.5,0,0,62.5,47.2441,1225.48)"
       id="g5904"><path
         d="M 1.002,-0.176 V 0.105 H 0.932 C 0.907,0.105 0.883,0.099 0.862,0.086 0.84,0.074 0.823,0.057 0.811,0.035 H 0.669 C 0.652,0.035 0.636,0.032 0.621,0.025 0.607,0.019 0.594,0.01 0.582,-0.001 0.571,-0.012 0.562,-0.025 0.556,-0.04 0.549,-0.055 0.546,-0.07 0.546,-0.087 L 0.513,-0.08 0.397,0.197 0.139,0.089 0.147,0.069 C 0.153,0.053 0.16,0.038 0.167,0.023 0.173,0.009 0.181,-0.004 0.191,-0.016 0.2,-0.027 0.212,-0.037 0.226,-0.045 c 0.013,-0.008 0.03,-0.013 0.051,-0.016 0.012,-0.03 0.025,-0.06 0.037,-0.09 0.012,-0.03 0.025,-0.06 0.038,-0.089 0.006,-0.013 0.012,-0.023 0.02,-0.031 0.007,-0.007 0.016,-0.014 0.025,-0.019 0.009,-0.006 0.018,-0.01 0.029,-0.015 0.01,-0.004 0.021,-0.009 0.032,-0.014 L 0.455,-0.328 C 0.44,-0.32 0.424,-0.316 0.406,-0.316 0.396,-0.316 0.385,-0.317 0.375,-0.321 0.365,-0.324 0.356,-0.328 0.347,-0.333 L 0.242,-0.404 C 0.228,-0.414 0.216,-0.426 0.208,-0.442 0.199,-0.458 0.195,-0.474 0.195,-0.492 c 0,-0.015 0.003,-0.029 0.009,-0.041 0.006,-0.013 0.013,-0.024 0.023,-0.034 0.01,-0.009 0.021,-0.016 0.034,-0.022 0.013,-0.005 0.026,-0.008 0.041,-0.008 0.002,0 0.004,0 0.006,0.001 0.002,0 0.005,0 0.007,0 C 0.307,-0.613 0.303,-0.629 0.302,-0.645 0.301,-0.661 0.3,-0.678 0.3,-0.696 v -0.009 c 0,-0.024 0.005,-0.046 0.014,-0.067 0.01,-0.021 0.023,-0.04 0.039,-0.055 0.016,-0.016 0.035,-0.028 0.056,-0.037 0.021,-0.009 0.043,-0.013 0.067,-0.013 0.024,0 0.046,0.004 0.068,0.013 0.021,0.009 0.04,0.021 0.056,0.037 0.016,0.015 0.028,0.033 0.037,0.054 0.01,0.021 0.014,0.044 0.014,0.068 v 0.027 c 0,0.009 0,0.017 0,0.025 -0.001,0.008 -0.002,0.017 -0.004,0.025 0.012,0.004 0.022,0.008 0.032,0.013 0.01,0.005 0.02,0.011 0.029,0.018 h 0.034 c 0.014,0 0.026,0.001 0.038,0.003 0.012,0.003 0.024,0.007 0.035,0.015 l 0.105,0.07 c 0.015,0.01 0.027,0.023 0.035,0.038 0.008,0.016 0.012,0.032 0.012,0.05 0,0.014 -0.002,0.028 -0.008,0.041 -0.006,0.013 -0.013,0.024 -0.022,0.033 -0.01,0.01 -0.021,0.017 -0.034,0.023 -0.013,0.005 -0.027,0.008 -0.041,0.008 -0.016,0 -0.031,-0.003 -0.046,-0.011 L 0.853,-0.21 H 0.792 v 0.034 z"
         style="fill-rule:nonzero"
         id="path5892" /><path
         d="m 0.827,-0.105 c 0.006,0.003 0.011,0.008 0.015,0.014 0.004,0.007 0.006,0.014 0.006,0.021 0,0.007 -0.002,0.014 -0.006,0.02 -0.004,0.007 -0.009,0.012 -0.015,0.015 H 0.669 C 0.661,-0.035 0.655,-0.037 0.648,-0.039 0.642,-0.042 0.636,-0.046 0.632,-0.051 0.627,-0.055 0.623,-0.061 0.62,-0.067 0.618,-0.073 0.616,-0.08 0.616,-0.088 V -0.176 L 0.462,-0.141 0.4,0.008 C 0.396,0.011 0.391,0.014 0.386,0.017 0.381,0.019 0.376,0.02 0.37,0.02 0.36,0.02 0.352,0.017 0.345,0.01 0.339,0.003 0.335,-0.005 0.335,-0.015 0.335,-0.016 0.337,-0.021 0.341,-0.031 0.344,-0.04 0.349,-0.052 0.354,-0.065 0.36,-0.079 0.366,-0.094 0.373,-0.11 0.379,-0.126 0.385,-0.141 0.391,-0.155 0.397,-0.17 0.403,-0.182 0.407,-0.193 0.412,-0.204 0.415,-0.21 0.417,-0.213 0.419,-0.218 0.421,-0.222 0.424,-0.225 0.427,-0.228 0.431,-0.23 0.436,-0.232 l 0.11,-0.049 C 0.549,-0.287 0.554,-0.292 0.562,-0.296 0.569,-0.3 0.576,-0.303 0.585,-0.305 0.593,-0.308 0.602,-0.31 0.611,-0.311 c 0.008,-0.001 0.016,-0.001 0.022,-0.001 0.006,0 0.014,0 0.023,0.001 0.009,0.001 0.017,0.003 0.026,0.005 0.008,0.003 0.016,0.006 0.023,0.01 0.008,0.004 0.013,0.009 0.017,0.015 v 0.176 z"
         style="fill:#0078d7;fill-rule:nonzero"
         id="path5894" /><path
         d="m 0.616,-0.562 c 0.015,0 0.028,0.005 0.04,0.013 0.013,0.009 0.022,0.02 0.026,0.034 l 0.075,0.234 H 0.546 L 0.491,-0.436 H 0.477 C 0.476,-0.439 0.475,-0.443 0.473,-0.447 0.471,-0.451 0.469,-0.455 0.468,-0.46 0.466,-0.464 0.464,-0.468 0.463,-0.472 0.462,-0.476 0.461,-0.479 0.461,-0.481 c 0,-0.005 0.001,-0.008 0.002,-0.01 C 0.464,-0.494 0.466,-0.496 0.468,-0.498 0.469,-0.5 0.471,-0.502 0.473,-0.504 0.476,-0.506 0.477,-0.509 0.479,-0.512 0.483,-0.52 0.486,-0.527 0.49,-0.533 0.495,-0.539 0.499,-0.544 0.504,-0.548 0.51,-0.553 0.516,-0.556 0.522,-0.558 0.529,-0.56 0.537,-0.562 0.546,-0.562 Z"
         style="fill:#f03a17;fill-rule:nonzero"
         id="path5896" /><path
         d="m 0.932,-0.105 v 0.14 C 0.922,0.035 0.913,0.033 0.905,0.03 0.896,0.026 0.889,0.021 0.883,0.014 0.876,0.008 0.871,0.001 0.867,-0.008 0.864,-0.016 0.862,-0.025 0.862,-0.035 H 0.827 v -0.07 z M 0.335,-0.019 0.4,0.008 0.36,0.105 0.23,0.051 C 0.236,0.038 0.245,0.027 0.256,0.019 0.268,0.012 0.281,0.008 0.295,0.008 c 0.009,0 0.018,0.002 0.027,0.005 z"
         style="fill:#d48c00;fill-rule:nonzero"
         id="path5898" /><path
         d="M 0.57,-0.697 0.566,-0.612 C 0.556,-0.597 0.544,-0.584 0.528,-0.575 0.512,-0.566 0.495,-0.562 0.476,-0.562 0.461,-0.562 0.448,-0.564 0.435,-0.57 0.422,-0.575 0.411,-0.583 0.402,-0.593 0.392,-0.602 0.384,-0.613 0.379,-0.626 0.373,-0.639 0.371,-0.652 0.371,-0.667 v -0.035 l 0.105,-0.044 z m 0.187,0.171 c 0.007,0 0.014,0.002 0.019,0.005 l 0.105,0.071 c 0.011,0.007 0.016,0.017 0.016,0.029 0,0.009 -0.003,0.018 -0.01,0.025 -0.007,0.006 -0.015,0.01 -0.025,0.01 -0.007,0 -0.014,-0.002 -0.02,-0.006 L 0.746,-0.457 H 0.615 v -0.069 z m -0.281,0.035 c 0,0.01 0.002,0.019 0.005,0.028 0.004,0.009 0.007,0.018 0.01,0.027 l -0.066,0.044 c -0.006,0.004 -0.012,0.006 -0.019,0.006 -0.007,0 -0.014,-0.002 -0.02,-0.006 L 0.281,-0.462 C 0.27,-0.469 0.265,-0.479 0.265,-0.491 c 0,-0.01 0.004,-0.018 0.011,-0.025 0.007,-0.007 0.015,-0.01 0.024,-0.01 0.007,0 0.014,0.002 0.02,0.005 l 0.086,0.058 0.073,-0.049 c -0.002,0.007 -0.003,0.014 -0.003,0.021 z"
         style="fill:#ffc83d;fill-rule:nonzero"
         id="path5900" /><path
         d="m 0.476,-0.807 c 0.015,0 0.028,0.003 0.041,0.008 0.013,0.006 0.024,0.013 0.033,0.023 0.01,0.009 0.017,0.02 0.023,0.033 0.005,0.013 0.008,0.026 0.008,0.041 v 0.035 c 0,0.01 -0.001,0.019 -0.004,0.029 C 0.574,-0.629 0.57,-0.62 0.565,-0.612 L 0.541,-0.637 C 0.543,-0.639 0.544,-0.642 0.545,-0.645 0.546,-0.648 0.546,-0.65 0.546,-0.653 V -0.665 C 0.545,-0.669 0.545,-0.672 0.544,-0.675 0.543,-0.678 0.541,-0.68 0.539,-0.682 0.536,-0.684 0.533,-0.685 0.529,-0.685 c -0.005,0 -0.009,0.002 -0.013,0.006 -0.003,0.003 -0.005,0.007 -0.005,0.012 L 0.476,-0.702 H 0.371 c 0,-0.014 0.002,-0.028 0.008,-0.041 0.006,-0.012 0.013,-0.024 0.023,-0.033 0.01,-0.01 0.021,-0.017 0.034,-0.023 0.012,-0.005 0.026,-0.008 0.04,-0.008 z"
         style="fill:#8e562e;fill-rule:nonzero"
         id="path5902" /></g></g></svg>
