<?xml version="1.0" encoding="UTF-8" standalone="no"?>
<svg
   width="13.155"
   height="16.844999"
   viewBox="0 0 13.155 16.844999"
   version="1.1"
   xml:space="preserve"
   style="clip-rule:evenodd;fill-rule:evenodd;stroke-linejoin:round;stroke-miterlimit:2"
   id="svg20568"
   sodipodi:docname="emojis.svg"
   xmlns:inkscape="http://www.inkscape.org/namespaces/inkscape"
   xmlns:sodipodi="http://sodipodi.sourceforge.net/DTD/sodipodi-0.dtd"
   xmlns="http://www.w3.org/2000/svg"
   xmlns:svg="http://www.w3.org/2000/svg"><defs
     id="defs20572" /><sodipodi:namedview
     id="namedview20570"
     pagecolor="#505050"
     bordercolor="#eeeeee"
     borderopacity="1"
     inkscape:pageshadow="0"
     inkscape:pageopacity="0"
     inkscape:pagecheckerboard="0" /><g
     transform="matrix(0.24,0,0,0.24,-63.94836,-280.4202)"
     id="g20566"><g
       transform="matrix(62.5,0,0,62.5,258.639,1225.48)"
       id="g5944"><path
         d="M 0.754,0.21 0.704,0.136 C 0.671,0.16 0.635,0.179 0.596,0.191 0.558,0.204 0.518,0.21 0.476,0.21 H 0.125 V 0.105 C 0.125,0.073 0.129,0.046 0.137,0.023 0.146,0 0.156,-0.021 0.169,-0.038 0.181,-0.056 0.195,-0.072 0.21,-0.086 0.225,-0.1 0.238,-0.113 0.251,-0.126 0.264,-0.139 0.276,-0.152 0.285,-0.165 0.294,-0.178 0.299,-0.194 0.3,-0.21 0.286,-0.21 0.272,-0.213 0.259,-0.219 0.247,-0.224 0.236,-0.232 0.226,-0.241 0.217,-0.251 0.209,-0.262 0.204,-0.275 0.198,-0.288 0.195,-0.301 0.195,-0.316 v -0.141 c 0,-0.015 0.003,-0.029 0.008,-0.041 0.005,-0.011 0.012,-0.021 0.02,-0.029 0.008,-0.008 0.018,-0.016 0.029,-0.022 0.011,-0.007 0.023,-0.013 0.035,-0.019 L 0.3,-0.575 v -0.127 c 0,-0.007 0.001,-0.014 0.003,-0.022 0.001,-0.007 0.003,-0.014 0.006,-0.02 C 0.306,-0.752 0.304,-0.759 0.303,-0.767 0.301,-0.774 0.3,-0.782 0.3,-0.79 c 0,-0.016 0.004,-0.032 0.01,-0.047 0.007,-0.015 0.015,-0.028 0.026,-0.039 0.011,-0.012 0.025,-0.02 0.039,-0.027 0.015,-0.006 0.031,-0.01 0.048,-0.01 0.01,0 0.019,0.002 0.029,0.004 0.009,0.002 0.018,0.005 0.027,0.01 0.021,-0.009 0.043,-0.014 0.067,-0.014 0.02,0 0.038,0.003 0.054,0.009 0.015,0.005 0.03,0.013 0.043,0.022 0.013,0.009 0.026,0.02 0.038,0.032 0.012,0.012 0.024,0.024 0.038,0.038 0.01,-0.01 0.021,-0.018 0.033,-0.023 0.013,-0.005 0.026,-0.007 0.04,-0.007 0.014,0 0.028,0.002 0.041,0.008 0.012,0.006 0.023,0.013 0.033,0.023 0.01,0.009 0.017,0.02 0.023,0.033 0.005,0.013 0.008,0.026 0.008,0.041 v 0.14 c 0,0.021 -0.005,0.039 -0.015,0.056 -0.01,0.016 -0.025,0.029 -0.043,0.039 l -0.096,0.047 c 0.017,0.003 0.033,0.008 0.047,0.017 0.015,0.008 0.027,0.018 0.038,0.031 0.01,0.013 0.019,0.027 0.025,0.042 0.006,0.016 0.009,0.032 0.009,0.049 v 0.141 c 0,0.046 -0.008,0.091 -0.025,0.134 L 0.864,0 C 0.883,0 0.901,0.004 0.918,0.012 0.935,0.019 0.95,0.029 0.962,0.042 0.974,0.055 0.984,0.069 0.991,0.086 0.999,0.103 1.002,0.121 1.002,0.14 v 0.07 z"
         style="fill-rule:nonzero"
         id="path5934" /><path
         d="m 0.546,-0.842 c 0.016,0 0.032,0.003 0.047,0.011 0.014,0.007 0.027,0.017 0.037,0.03 -0.012,0.011 -0.025,0.02 -0.039,0.028 -0.015,0.008 -0.029,0.015 -0.045,0.021 v 0.261 H 0.511 v 0.034 l -0.07,0.071 c 0,0.01 -0.004,0.018 -0.01,0.025 -0.007,0.007 -0.015,0.01 -0.025,0.01 v -0.211 c -0.01,0 -0.018,-0.003 -0.025,-0.01 -0.007,-0.007 -0.01,-0.015 -0.01,-0.025 v -0.105 c 0,-0.01 0.003,-0.018 0.01,-0.025 0.007,-0.007 0.015,-0.01 0.025,-0.01 V -0.74 C 0.395,-0.744 0.387,-0.75 0.38,-0.759 0.374,-0.768 0.371,-0.778 0.371,-0.79 c 0,-0.007 0.001,-0.014 0.004,-0.02 0.003,-0.007 0.006,-0.012 0.011,-0.017 0.005,-0.005 0.01,-0.008 0.017,-0.011 0.006,-0.003 0.013,-0.004 0.02,-0.004 0.011,0 0.02,0.002 0.029,0.008 0.009,0.006 0.015,0.013 0.019,0.022 0.01,-0.009 0.021,-0.017 0.034,-0.022 0.013,-0.006 0.027,-0.008 0.041,-0.008 z m 0.105,0.14 v 0.105 C 0.642,-0.597 0.633,-0.6 0.626,-0.607 0.62,-0.614 0.616,-0.622 0.616,-0.632 v -0.07 z"
         style="fill:#8e562e;fill-rule:nonzero"
         id="path5936" /><path
         d="m 0.792,-0.772 c 0.009,0 0.018,0.003 0.024,0.01 0.007,0.007 0.011,0.015 0.011,0.025 v 0.14 c 0,0.007 -0.002,0.013 -0.005,0.019 -0.004,0.005 -0.009,0.01 -0.014,0.013 l -0.141,0.07 c -0.004,0.002 -0.008,0.003 -0.012,0.004 -0.005,0 -0.009,0.001 -0.014,0.001 L 0.616,-0.491 0.581,-0.421 H 0.476 l -0.027,-0.07 -0.114,0.056 v 0.119 c 0,0.01 -0.003,0.018 -0.01,0.025 -0.007,0.007 -0.015,0.01 -0.025,0.01 -0.009,0 -0.017,-0.003 -0.024,-0.01 C 0.269,-0.298 0.265,-0.306 0.265,-0.316 v -0.141 c 0,-0.006 0.002,-0.012 0.006,-0.018 0.003,-0.006 0.008,-0.01 0.014,-0.013 l 0.14,-0.07 C 0.43,-0.56 0.435,-0.562 0.441,-0.562 h 0.202 l 0.114,-0.056 v -0.119 c 0,-0.01 0.003,-0.018 0.01,-0.025 0.007,-0.007 0.016,-0.01 0.025,-0.01 z M 0.546,-0.597 C 0.532,-0.597 0.518,-0.599 0.505,-0.604 0.493,-0.61 0.482,-0.617 0.472,-0.626 0.462,-0.635 0.455,-0.646 0.449,-0.659 0.444,-0.671 0.441,-0.685 0.441,-0.699 v -0.039 c 0.018,0 0.036,-0.001 0.053,-0.003 0.017,-0.002 0.033,-0.005 0.048,-0.01 0.016,-0.005 0.031,-0.011 0.045,-0.02 0.015,-0.008 0.029,-0.018 0.043,-0.03 0.008,0.009 0.013,0.018 0.016,0.028 0.004,0.011 0.005,0.021 0.005,0.033 v 0.041 c 0,0.014 -0.002,0.028 -0.008,0.04 -0.006,0.013 -0.014,0.024 -0.023,0.033 -0.01,0.009 -0.021,0.016 -0.034,0.022 -0.013,0.005 -0.026,0.007 -0.04,0.007 z m 0.141,0.456 0.14,0.211 C 0.828,0.072 0.828,0.075 0.829,0.079 0.83,0.083 0.83,0.085 0.83,0.087 0.83,0.098 0.827,0.106 0.82,0.112 0.813,0.118 0.804,0.122 0.794,0.122 0.788,0.122 0.782,0.121 0.778,0.119 L 0.651,-0.07 Z"
         style="fill:#ffc83d;fill-rule:nonzero"
         id="path5938" /><path
         d="m 0.792,-0.175 c 0,0.043 -0.008,0.084 -0.025,0.123 C 0.75,-0.014 0.728,0.019 0.699,0.048 0.671,0.076 0.638,0.099 0.599,0.115 0.561,0.132 0.52,0.14 0.476,0.14 H 0.195 V 0.105 c 0,-0.022 0.004,-0.043 0.01,-0.064 0.007,-0.022 0.018,-0.04 0.034,-0.056 L 0.32,-0.096 C 0.332,-0.108 0.341,-0.119 0.347,-0.131 0.354,-0.143 0.359,-0.155 0.363,-0.167 0.366,-0.179 0.369,-0.191 0.37,-0.204 0.371,-0.217 0.371,-0.23 0.371,-0.244 v -0.054 c 0,-0.012 0.001,-0.023 0.005,-0.035 0.003,-0.011 0.008,-0.021 0.014,-0.031 0.006,-0.009 0.014,-0.018 0.022,-0.026 0.009,-0.007 0.019,-0.014 0.029,-0.019 v -0.153 h 0.035 v 0.053 c 0,0.007 0.001,0.014 0.004,0.02 0.003,0.007 0.007,0.012 0.012,0.017 0.005,0.005 0.01,0.009 0.017,0.011 0.006,0.003 0.013,0.004 0.02,0.004 0.007,0 0.014,-0.001 0.02,-0.004 0.006,-0.002 0.012,-0.006 0.017,-0.011 0.004,-0.005 0.008,-0.01 0.011,-0.017 0.003,-0.006 0.004,-0.013 0.004,-0.02 v -0.053 h 0.035 c 0.002,0.005 0.006,0.012 0.009,0.02 0.004,0.007 0.008,0.016 0.012,0.024 0.004,0.009 0.007,0.017 0.01,0.025 0.003,0.008 0.004,0.014 0.004,0.019 0,0.011 -0.003,0.022 -0.009,0.031 -0.007,0.009 -0.015,0.015 -0.026,0.019 v 0.108 l 0.056,-0.049 c 0.007,-0.007 0.015,-0.012 0.023,-0.016 0.008,-0.003 0.017,-0.005 0.027,-0.005 0.009,0 0.019,0.002 0.027,0.005 0.008,0.004 0.016,0.009 0.022,0.016 0.007,0.006 0.012,0.013 0.015,0.022 0.004,0.008 0.006,0.017 0.006,0.027 z m 0.07,0.245 c 0.01,0 0.019,0.002 0.027,0.006 C 0.898,0.079 0.905,0.084 0.911,0.091 0.918,0.097 0.923,0.104 0.927,0.113 0.93,0.121 0.932,0.13 0.932,0.14 H 0.792 L 0.778,0.119 0.827,0.07 Z"
         style="fill:#f03a17;fill-rule:nonzero"
         id="path5940" /><path
         d="M 0.371,0.14 C 0.371,0.113 0.373,0.086 0.378,0.058 0.383,0.029 0.39,0.001 0.4,-0.026 0.409,-0.053 0.42,-0.08 0.433,-0.105 0.446,-0.131 0.46,-0.154 0.476,-0.176 V 0.14 Z"
         style="fill:#af0d1a;fill-rule:nonzero"
         id="path5942" /></g></g></svg>
