<?xml version="1.0" encoding="UTF-8" standalone="no"?>
<svg
   width="6.855"
   height="16.844999"
   viewBox="0 0 6.855 16.844999"
   version="1.1"
   xml:space="preserve"
   style="clip-rule:evenodd;fill-rule:evenodd;stroke-linejoin:round;stroke-miterlimit:2"
   id="svg20568"
   sodipodi:docname="emojis.svg"
   xmlns:inkscape="http://www.inkscape.org/namespaces/inkscape"
   xmlns:sodipodi="http://sodipodi.sourceforge.net/DTD/sodipodi-0.dtd"
   xmlns="http://www.w3.org/2000/svg"
   xmlns:svg="http://www.w3.org/2000/svg"><defs
     id="defs20572" /><sodipodi:namedview
     id="namedview20570"
     pagecolor="#505050"
     bordercolor="#eeeeee"
     borderopacity="1"
     inkscape:pageshadow="0"
     inkscape:pageopacity="0"
     inkscape:pagecheckerboard="0" /><g
     transform="matrix(0.24,0,0,0.24,-94.40988,-280.4202)"
     id="g20566"><g
       transform="matrix(62.5,0,0,62.5,385.562,1225.48)"
       id="g5976"><path
         d="m 0.506,-0.615 c 0.023,0.012 0.042,0.029 0.055,0.051 0.014,0.022 0.021,0.046 0.021,0.073 v 0.21 c 0,0.023 -0.007,0.043 -0.02,0.061 -0.012,0.018 -0.029,0.031 -0.051,0.038 V 0 C 0.511,0.016 0.507,0.032 0.5,0.046 0.514,0.053 0.525,0.064 0.533,0.078 0.542,0.091 0.546,0.106 0.546,0.122 0.546,0.135 0.543,0.146 0.539,0.157 0.534,0.168 0.527,0.177 0.519,0.185 0.51,0.193 0.501,0.199 0.49,0.204 0.479,0.208 0.467,0.21 0.455,0.21 H 0.251 C 0.239,0.21 0.227,0.208 0.217,0.204 0.206,0.199 0.196,0.193 0.188,0.186 0.179,0.178 0.172,0.168 0.167,0.158 0.163,0.147 0.16,0.135 0.16,0.123 0.16,0.106 0.164,0.091 0.172,0.078 0.181,0.064 0.192,0.053 0.207,0.046 0.199,0.032 0.195,0.016 0.195,0 V -0.182 C 0.174,-0.189 0.157,-0.202 0.144,-0.22 0.131,-0.238 0.125,-0.258 0.125,-0.281 v -0.21 c 0,-0.027 0.007,-0.051 0.02,-0.073 C 0.159,-0.586 0.177,-0.603 0.201,-0.615 0.198,-0.619 0.196,-0.624 0.194,-0.627 0.192,-0.631 0.191,-0.636 0.189,-0.64 0.177,-0.645 0.166,-0.652 0.158,-0.659 0.15,-0.667 0.144,-0.676 0.139,-0.685 0.134,-0.695 0.13,-0.705 0.128,-0.717 0.126,-0.728 0.125,-0.74 0.125,-0.752 0.125,-0.76 0.126,-0.767 0.129,-0.774 0.132,-0.78 0.136,-0.786 0.141,-0.791 0.146,-0.796 0.152,-0.8 0.158,-0.803 0.165,-0.806 0.172,-0.807 0.18,-0.807 l 0.011,-0.034 c 0.003,-0.011 0.009,-0.02 0.015,-0.029 0.007,-0.009 0.015,-0.016 0.023,-0.023 0.009,-0.006 0.018,-0.011 0.029,-0.014 0.01,-0.004 0.021,-0.006 0.033,-0.006 0.01,0 0.021,0.002 0.031,0.006 0.01,0.003 0.021,0.006 0.031,0.009 0.01,-0.003 0.021,-0.006 0.031,-0.009 0.01,-0.004 0.021,-0.006 0.032,-0.006 0.011,0 0.022,0.002 0.032,0.006 0.011,0.003 0.02,0.008 0.029,0.014 0.008,0.007 0.016,0.014 0.023,0.023 0.006,0.009 0.012,0.018 0.015,0.029 l 0.011,0.034 c 0.008,0 0.015,0.001 0.022,0.004 0.006,0.003 0.012,0.007 0.017,0.012 0.005,0.005 0.009,0.011 0.012,0.017 0.003,0.007 0.004,0.014 0.004,0.022 v 0.015 c 0,0.021 -0.006,0.04 -0.017,0.058 -0.011,0.017 -0.027,0.03 -0.046,0.038 -0.004,0.009 -0.008,0.017 -0.012,0.026 z"
         style="fill-rule:nonzero"
         id="path5962" /><path
         d="m 0.458,-0.737 v 0.035 c 0,0.014 -0.002,0.028 -0.008,0.041 -0.005,0.013 -0.013,0.024 -0.023,0.033 -0.009,0.01 -0.02,0.017 -0.033,0.023 -0.013,0.006 -0.026,0.008 -0.041,0.008 -0.015,0 -0.028,-0.002 -0.041,-0.008 C 0.299,-0.611 0.288,-0.618 0.279,-0.628 0.269,-0.637 0.262,-0.648 0.256,-0.661 0.251,-0.674 0.248,-0.688 0.248,-0.702 v -0.035 z m -0.192,0.456 c 0,0.01 -0.004,0.018 -0.011,0.025 -0.007,0.007 -0.015,0.01 -0.025,0.01 -0.009,0 -0.017,-0.003 -0.024,-0.01 C 0.199,-0.263 0.195,-0.271 0.195,-0.281 L 0.23,-0.298 Z m 0.245,0 c 0,0.01 -0.003,0.018 -0.01,0.025 -0.007,0.007 -0.015,0.01 -0.025,0.01 -0.009,0 -0.018,-0.003 -0.024,-0.01 C 0.445,-0.263 0.441,-0.271 0.441,-0.281 l 0.035,-0.017 z"
         style="fill:#ffc83d;fill-rule:nonzero"
         id="path5964" /><path
         d="M 0.388,-0.667 C 0.383,-0.667 0.379,-0.669 0.376,-0.672 0.372,-0.676 0.371,-0.68 0.371,-0.685 v -0.017 l 0.035,-0.018 0.035,0.018 v 0.017 c 0,0.005 -0.002,0.009 -0.005,0.013 -0.004,0.003 -0.008,0.005 -0.013,0.005 z m -0.105,0 C 0.278,-0.667 0.274,-0.669 0.271,-0.672 0.267,-0.676 0.265,-0.68 0.265,-0.685 v -0.017 l 0.036,-0.018 0.034,0.018 v 0.017 c 0,0.005 -0.001,0.009 -0.005,0.013 -0.003,0.003 -0.007,0.005 -0.012,0.005 z"
         style="fill-rule:nonzero"
         id="path5966" /><path
         d="m 0.441,-0.562 c 0.01,0 0.019,0.002 0.028,0.006 0.008,0.004 0.016,0.009 0.022,0.015 0.006,0.007 0.011,0.014 0.015,0.022 0.003,0.009 0.005,0.018 0.005,0.028 v 0.175 C 0.5,-0.31 0.488,-0.304 0.477,-0.298 0.466,-0.291 0.454,-0.285 0.441,-0.281 0.427,-0.276 0.412,-0.271 0.397,-0.269 0.382,-0.266 0.368,-0.262 0.353,-0.259 0.336,-0.262 0.322,-0.265 0.309,-0.269 0.296,-0.272 0.284,-0.276 0.272,-0.28 0.26,-0.285 0.248,-0.289 0.236,-0.295 0.224,-0.301 0.21,-0.308 0.195,-0.316 v -0.175 c 0,-0.01 0.002,-0.019 0.006,-0.028 0.003,-0.008 0.008,-0.015 0.015,-0.022 0.006,-0.006 0.013,-0.011 0.022,-0.015 0.008,-0.004 0.017,-0.006 0.027,-0.006 z M 0.23,-0.702 c -0.009,0 -0.018,-0.004 -0.024,-0.01 C 0.199,-0.719 0.195,-0.728 0.195,-0.737 h 0.024 c 0.016,0 0.031,-0.001 0.047,-0.005 0.015,-0.003 0.03,-0.005 0.046,-0.007 C 0.318,-0.75 0.324,-0.751 0.33,-0.752 0.336,-0.753 0.341,-0.754 0.348,-0.755 0.33,-0.756 0.312,-0.759 0.295,-0.763 0.278,-0.767 0.26,-0.77 0.242,-0.772 L 0.257,-0.818 C 0.26,-0.826 0.264,-0.831 0.27,-0.836 0.276,-0.84 0.283,-0.842 0.291,-0.842 c 0.005,0 0.01,0.001 0.015,0.002 l 0.031,0.011 c 0.005,0.002 0.01,0.003 0.016,0.003 0.006,0 0.011,-0.001 0.016,-0.003 L 0.4,-0.84 c 0.005,-0.001 0.01,-0.002 0.016,-0.002 0.007,0 0.013,0.002 0.02,0.007 0.006,0.004 0.01,0.01 0.013,0.017 l 0.015,0.046 c -0.018,0.002 -0.035,0.005 -0.053,0.01 -0.017,0.004 -0.035,0.006 -0.053,0.007 0.02,0.003 0.04,0.006 0.059,0.009 0.02,0.003 0.04,0.006 0.059,0.009 0.002,0 0.004,0 0.006,0 h 0.029 c 0,0.009 -0.003,0.017 -0.01,0.024 -0.007,0.007 -0.015,0.011 -0.025,0.011 z M 0.476,0.123 C 0.476,0.127 0.474,0.132 0.471,0.135 0.468,0.138 0.463,0.14 0.458,0.14 H 0.248 C 0.243,0.14 0.239,0.138 0.236,0.135 0.232,0.132 0.23,0.127 0.23,0.123 0.23,0.118 0.232,0.114 0.236,0.11 0.239,0.107 0.243,0.105 0.248,0.105 h 0.21 c 0.005,0 0.009,0.002 0.013,0.005 0.003,0.004 0.005,0.008 0.005,0.013 z m -0.175,-0.18 0.035,0.022 V 0 C 0.336,0.009 0.332,0.018 0.325,0.025 0.318,0.032 0.31,0.035 0.301,0.035 0.291,0.035 0.283,0.032 0.276,0.025 0.269,0.018 0.266,0.009 0.266,0 v -0.035 z m 0.105,0.004 0.035,0.018 V 0 c 0,0.009 -0.003,0.018 -0.01,0.025 C 0.424,0.032 0.416,0.035 0.406,0.035 0.397,0.035 0.389,0.032 0.382,0.025 0.375,0.018 0.371,0.009 0.371,0 v -0.035 z"
         style="fill:#757575;fill-rule:nonzero"
         id="path5968" /><path
         d="M 0.354,-0.545 0.406,-0.562 0.353,-0.316 0.301,-0.562 Z M 0.266,-0.281 H 0.195 v -0.035 h 0.071 z m 0.245,0 h -0.07 v -0.035 h 0.07 z"
         style="fill:#ffffff;fill-rule:nonzero"
         id="path5970" /><path
         d="M 0.406,-0.562 0.371,-0.526 H 0.336 L 0.301,-0.562 h 0.034 l 0.018,0.01 0.018,-0.01 z"
         style="fill:#e5e5e5;fill-rule:nonzero"
         id="path5972" /><path
         d="m 0.371,-0.035 v -0.194 c 0,-0.004 -0.002,-0.008 -0.006,-0.011 -0.003,-0.004 -0.007,-0.006 -0.012,-0.006 -0.005,0 -0.009,0.002 -0.012,0.005 -0.003,0.004 -0.005,0.007 -0.005,0.012 v 0.194 h -0.07 v -0.246 h 0.175 v 0.246 z m 0.093,-0.737 0.012,0.035 H 0.23 L 0.242,-0.772 Z M 0.371,-0.404 0.353,-0.386 0.335,-0.404 0.344,-0.536 0.335,-0.544 v -0.018 h 0.036 v 0.018 l -0.009,0.008 z"
         style="fill:#383838;fill-rule:nonzero"
         id="path5974" /></g></g></svg>
