<?xml version="1.0" encoding="UTF-8" standalone="no"?>
<svg
   width="16.844999"
   height="16.844999"
   viewBox="0 0 16.844999 16.844999"
   version="1.1"
   xml:space="preserve"
   style="clip-rule:evenodd;fill-rule:evenodd;stroke-linejoin:round;stroke-miterlimit:2"
   id="svg20568"
   sodipodi:docname="emojis.svg"
   xmlns:inkscape="http://www.inkscape.org/namespaces/inkscape"
   xmlns:sodipodi="http://sodipodi.sourceforge.net/DTD/sodipodi-0.dtd"
   xmlns="http://www.w3.org/2000/svg"
   xmlns:svg="http://www.w3.org/2000/svg"><defs
     id="defs20572" /><sodipodi:namedview
     id="namedview20570"
     pagecolor="#505050"
     bordercolor="#eeeeee"
     borderopacity="1"
     inkscape:pageshadow="0"
     inkscape:pageopacity="0"
     inkscape:pagecheckerboard="0" /><g
     transform="matrix(0.24,0,0,0.24,-162.07836,-280.4202)"
     id="g20566"><g
       transform="matrix(62.5,0,0,62.5,667.514,1225.48)"
       id="g6052"><path
         d="m 1.209,-0.069 c 0.012,0.013 0.022,0.029 0.029,0.046 0.007,0.017 0.01,0.035 0.01,0.053 0,0.02 -0.004,0.038 -0.011,0.056 C 1.23,0.103 1.22,0.118 1.207,0.132 1.194,0.145 1.179,0.155 1.162,0.163 1.145,0.171 1.127,0.176 1.107,0.176 V 0.21 H 0.195 V 0.169 C 0.185,0.166 0.175,0.16 0.167,0.154 0.158,0.147 0.151,0.14 0.145,0.131 0.138,0.122 0.134,0.113 0.13,0.102 0.127,0.092 0.125,0.081 0.125,0.07 0.125,0.059 0.127,0.047 0.131,0.037 0.134,0.026 0.139,0.016 0.146,0.007 0.153,-0.001 0.16,-0.009 0.17,-0.016 0.179,-0.022 0.189,-0.027 0.2,-0.031 0.205,-0.056 0.213,-0.081 0.224,-0.105 0.235,-0.129 0.249,-0.151 0.265,-0.171 v -0.355 c 0,-0.035 0.005,-0.07 0.014,-0.102 0.009,-0.033 0.022,-0.064 0.039,-0.093 0.017,-0.028 0.037,-0.054 0.06,-0.078 0.024,-0.024 0.05,-0.044 0.079,-0.061 0.028,-0.016 0.059,-0.029 0.092,-0.039 0.033,-0.009 0.067,-0.014 0.102,-0.014 0.037,0 0.073,0.006 0.108,0.016 0.034,0.01 0.067,0.025 0.097,0.043 0.03,0.019 0.057,0.042 0.081,0.068 0.025,0.027 0.045,0.057 0.062,0.09 0.021,0.006 0.04,0.015 0.058,0.027 0.018,0.012 0.033,0.026 0.046,0.042 0.012,0.017 0.022,0.035 0.029,0.055 0.007,0.02 0.011,0.041 0.011,0.063 0,0.029 -0.007,0.056 -0.019,0.082 -0.012,0.026 -0.029,0.048 -0.051,0.067 v 0.12 l 0.034,0.035 v 0.028 z"
         style="fill-rule:nonzero"
         id="path6026" /><path
         d="m 0.335,-0.141 v -0.385 c 0,-0.029 0.004,-0.057 0.012,-0.084 0.007,-0.027 0.018,-0.052 0.032,-0.076 0.013,-0.023 0.03,-0.044 0.049,-0.064 0.019,-0.019 0.041,-0.035 0.064,-0.049 0.023,-0.014 0.048,-0.025 0.075,-0.032 0.027,-0.008 0.055,-0.011 0.084,-0.011 0.035,0 0.068,0.005 0.1,0.016 0.032,0.011 0.061,0.026 0.088,0.045 0.026,0.02 0.049,0.043 0.069,0.071 0.02,0.027 0.035,0.057 0.045,0.09 0.005,0.016 0.008,0.032 0.01,0.047 0.002,0.015 0.003,0.031 0.004,0.047 l 0.027,0.385 z"
         style="fill:#8e562e;fill-rule:nonzero"
         id="path6028" /><path
         d="M 1.002,0.14 0.985,0.13 0.967,0.14 0.919,0.141 c -0.004,0 -0.008,0 -0.012,0 C 0.904,0.141 0.9,0.14 0.897,0.14 L 0.733,0.117 C 0.725,0.116 0.718,0.115 0.711,0.113 0.705,0.112 0.699,0.11 0.692,0.109 0.686,0.108 0.68,0.107 0.673,0.106 0.667,0.105 0.66,0.105 0.651,0.105 L 0.488,0.128 C 0.48,0.129 0.472,0.131 0.466,0.132 0.459,0.134 0.453,0.135 0.447,0.136 0.441,0.137 0.434,0.138 0.428,0.139 0.421,0.14 0.414,0.14 0.406,0.14 H 0.265 V 0.023 c 0,-0.032 0.006,-0.062 0.019,-0.091 0.012,-0.028 0.029,-0.053 0.05,-0.074 C 0.355,-0.163 0.38,-0.18 0.409,-0.192 0.437,-0.204 0.468,-0.21 0.5,-0.21 h 0.303 c 0.032,0 0.063,0.006 0.091,0.018 0.029,0.012 0.054,0.029 0.075,0.05 0.021,0.021 0.038,0.046 0.05,0.074 0.012,0.029 0.019,0.059 0.019,0.091 V 0.14 Z M 0.687,-0.702 c 0.009,0.021 0.021,0.04 0.036,0.057 0.014,0.018 0.03,0.032 0.048,0.045 0.017,0.012 0.037,0.021 0.058,0.028 0.021,0.007 0.044,0.01 0.068,0.01 v 0.07 c 0,0.034 -0.006,0.066 -0.019,0.096 -0.013,0.029 -0.031,0.056 -0.053,0.078 -0.022,0.022 -0.048,0.04 -0.078,0.053 -0.029,0.013 -0.061,0.019 -0.096,0.019 -0.034,0 -0.066,-0.006 -0.096,-0.019 C 0.526,-0.278 0.5,-0.296 0.478,-0.318 0.455,-0.34 0.438,-0.367 0.425,-0.396 0.412,-0.426 0.406,-0.458 0.406,-0.492 v -0.07 c 0.034,0 0.064,-0.01 0.088,-0.028 0.024,-0.018 0.041,-0.043 0.051,-0.076 0.007,0.012 0.015,0.022 0.026,0.031 0.011,0.009 0.022,0.016 0.035,0.021 0.013,0.006 0.027,0.01 0.041,0.013 0.014,0.003 0.027,0.004 0.04,0.004 z"
         style="fill:#ffc83d;fill-rule:nonzero"
         id="path6030" /><path
         d="M 0.406,0.14 V 0.07 L 0.423,0.035 0.406,0 V -0.07 H 0.897 V 0 L 0.87,0.026 0.897,0.07 v 0.07 z"
         style="fill:#79db75;fill-rule:nonzero"
         id="path6032" /><rect
         x="0.40599999"
         y="0"
         width="0.491"
         height="0.07"
         style="fill:#00b294;fill-rule:nonzero"
         id="rect6034" /><path
         d="m 1.073,-0.509 c 0,0.024 -0.007,0.046 -0.019,0.066 -0.013,0.02 -0.03,0.035 -0.052,0.045 v 0.222 H 0.967 V -0.387 L 0.95,-0.386 v -0.246 c 0.017,0 0.033,0.003 0.048,0.01 0.015,0.006 0.028,0.015 0.039,0.026 0.011,0.011 0.019,0.024 0.026,0.039 0.006,0.015 0.01,0.031 0.01,0.048 z"
         style="fill:#a6a6a6;fill-rule:nonzero"
         id="path6036" /><path
         d="M 0.95,-0.386 C 0.939,-0.386 0.93,-0.391 0.923,-0.401 0.917,-0.411 0.911,-0.423 0.907,-0.437 0.903,-0.45 0.901,-0.464 0.899,-0.478 0.898,-0.491 0.897,-0.502 0.897,-0.509 c 0,-0.005 0,-0.011 0.001,-0.019 0.001,-0.008 0.002,-0.017 0.003,-0.026 0.002,-0.009 0.004,-0.018 0.006,-0.027 0.003,-0.01 0.006,-0.018 0.01,-0.025 0.004,-0.008 0.009,-0.014 0.014,-0.019 0.005,-0.004 0.012,-0.007 0.019,-0.007 0.007,0 0.013,0.003 0.019,0.007 0.005,0.005 0.01,0.011 0.013,0.019 0.004,0.007 0.008,0.015 0.01,0.025 0.003,0.009 0.005,0.018 0.006,0.027 0.002,0.009 0.003,0.018 0.003,0.026 0.001,0.008 0.001,0.014 0.001,0.019 0,0.007 0,0.018 -0.002,0.031 -0.001,0.014 -0.004,0.028 -0.008,0.041 -0.004,0.014 -0.009,0.026 -0.016,0.036 -0.007,0.01 -0.016,0.015 -0.026,0.015 z"
         style="fill:#757575;fill-rule:nonzero"
         id="path6038" /><path
         d="M 0.932,-0.176 0.967,-0.21 h 0.035 l 0.036,0.034 v 0.035 L 0.985,-0.12 0.932,-0.141 Z"
         style="fill:#613d30;fill-rule:nonzero"
         id="path6040" /><path
         d="M 1.093,-0.048 1.038,0.105 C 1.037,0.106 1.037,0.108 1.037,0.11 c 0,0.002 0,0.004 -10e-4,0.005 C 1.034,0.123 1.03,0.129 1.023,0.133 1.017,0.138 1.01,0.14 1.002,0.14 H 0.967 C 0.958,0.14 0.949,0.137 0.942,0.13 0.936,0.123 0.932,0.115 0.932,0.105 v -0.246 h 0.106 z"
         style="fill:#8e562e;fill-rule:nonzero"
         id="path6042" /><path
         d="m 1.038,-0.14 c 0.007,0.001 0.012,0.004 0.017,0.009 l 0.103,0.11 c 0.006,0.007 0.011,0.015 0.015,0.024 0.003,0.009 0.005,0.018 0.005,0.027 0,0.011 -0.002,0.02 -0.006,0.03 C 1.168,0.069 1.163,0.077 1.156,0.083 1.149,0.09 1.141,0.096 1.132,0.1 1.123,0.104 1.113,0.106 1.103,0.106 H 0.967 C 0.957,0.106 0.948,0.103 0.942,0.096 0.935,0.09 0.932,0.081 0.932,0.071 0.922,0.071 0.913,0.068 0.907,0.061 0.9,0.055 0.897,0.046 0.897,0.036 v -0.071 c 0,-0.01 0.003,-0.018 0.01,-0.025 0.006,-0.006 0.015,-0.009 0.025,-0.009 h 0.106 z"
         style="fill:#ffd679;fill-rule:nonzero"
         id="path6044" /><path
         d="m 0.932,-0.035 c 0.02,0 0.038,0.004 0.054,0.013 0.016,0.008 0.03,0.02 0.043,0.035 0.006,0.006 0.012,0.012 0.02,0.016 0.007,0.004 0.015,0.006 0.024,0.006 0.009,0 0.017,0.004 0.024,0.011 0.007,0.007 0.01,0.015 0.01,0.024 0,0.01 -0.003,0.018 -0.01,0.025 C 1.09,0.102 1.082,0.105 1.073,0.105 1.059,0.105 1.047,0.103 1.036,0.1 1.026,0.096 1.017,0.092 1.009,0.087 1.001,0.082 0.994,0.076 0.988,0.07 0.982,0.064 0.976,0.058 0.97,0.053 0.964,0.048 0.958,0.044 0.952,0.04 0.946,0.037 0.94,0.035 0.932,0.035 0.925,0.035 0.918,0.037 0.912,0.04 0.906,0.044 0.9,0.048 0.894,0.053 0.888,0.058 0.882,0.064 0.876,0.07 0.87,0.076 0.863,0.082 0.855,0.087 0.847,0.093 0.838,0.097 0.827,0.1 0.817,0.104 0.805,0.105 0.792,0.105 0.778,0.105 0.766,0.104 0.756,0.1 0.745,0.097 0.736,0.093 0.729,0.087 0.721,0.082 0.714,0.076 0.708,0.07 0.701,0.064 0.695,0.058 0.689,0.053 0.684,0.048 0.678,0.044 0.672,0.04 0.666,0.037 0.659,0.035 0.651,0.035 0.644,0.035 0.637,0.037 0.631,0.04 0.625,0.044 0.619,0.048 0.613,0.053 0.607,0.058 0.601,0.064 0.595,0.07 0.589,0.076 0.582,0.082 0.574,0.087 0.566,0.093 0.557,0.097 0.547,0.1 0.536,0.104 0.524,0.105 0.511,0.105 0.497,0.105 0.485,0.104 0.475,0.1 0.465,0.097 0.456,0.093 0.448,0.087 0.44,0.082 0.433,0.076 0.427,0.07 0.421,0.064 0.415,0.058 0.409,0.053 0.403,0.048 0.397,0.044 0.391,0.04 0.385,0.037 0.378,0.035 0.371,0.035 0.363,0.035 0.356,0.037 0.35,0.04 0.344,0.044 0.338,0.048 0.333,0.053 0.327,0.058 0.321,0.064 0.314,0.07 0.308,0.076 0.301,0.082 0.293,0.087 0.286,0.092 0.277,0.096 0.266,0.1 0.256,0.103 0.244,0.105 0.23,0.105 0.221,0.105 0.213,0.102 0.206,0.095 0.199,0.088 0.195,0.08 0.195,0.07 0.195,0.061 0.199,0.052 0.206,0.045 0.212,0.039 0.221,0.035 0.23,0.035 0.239,0.035 0.247,0.033 0.254,0.029 0.262,0.025 0.268,0.019 0.273,0.013 0.286,-0.002 0.301,-0.014 0.316,-0.022 0.332,-0.031 0.35,-0.035 0.371,-0.035 c 0.013,0 0.025,0.002 0.035,0.005 0.011,0.003 0.02,0.008 0.028,0.013 C 0.441,-0.012 0.448,-0.006 0.455,0 0.461,0.006 0.467,0.012 0.472,0.017 0.478,0.022 0.484,0.027 0.49,0.03 0.496,0.033 0.503,0.035 0.511,0.035 0.519,0.035 0.525,0.033 0.531,0.03 0.538,0.027 0.543,0.022 0.549,0.017 0.555,0.012 0.561,0.006 0.567,0 c 0.007,-0.006 0.014,-0.012 0.021,-0.017 0.008,-0.005 0.017,-0.01 0.027,-0.013 0.011,-0.003 0.023,-0.005 0.036,-0.005 0.014,0 0.026,0.002 0.036,0.005 0.011,0.003 0.02,0.008 0.027,0.013 C 0.722,-0.012 0.729,-0.006 0.735,0 0.742,0.006 0.747,0.012 0.753,0.017 0.759,0.022 0.765,0.027 0.771,0.03 0.777,0.033 0.784,0.035 0.792,0.035 0.799,0.035 0.806,0.033 0.812,0.03 0.818,0.027 0.824,0.022 0.83,0.017 0.836,0.012 0.842,0.006 0.848,0 0.854,-0.006 0.861,-0.012 0.869,-0.017 0.877,-0.022 0.886,-0.027 0.896,-0.03 0.906,-0.033 0.918,-0.035 0.932,-0.035 Z"
         style="fill:#f2f2f2;fill-rule:nonzero"
         id="path6046" /><path
         d="m 0.722,-0.386 c 0,0.01 -0.002,0.019 -0.006,0.027 C 0.712,-0.35 0.707,-0.343 0.701,-0.337 0.695,-0.33 0.687,-0.325 0.679,-0.322 0.67,-0.318 0.661,-0.316 0.651,-0.316 0.642,-0.316 0.632,-0.318 0.624,-0.321 0.615,-0.325 0.608,-0.33 0.601,-0.336 0.595,-0.343 0.59,-0.35 0.586,-0.359 0.583,-0.367 0.581,-0.376 0.581,-0.386 Z m 0.035,-0.176 c 0.009,0 0.017,0.004 0.024,0.011 0.007,0.007 0.011,0.015 0.011,0.025 v 0.035 c 0,0.009 -0.004,0.017 -0.011,0.024 -0.007,0.007 -0.015,0.01 -0.024,0.01 -0.01,0 -0.018,-0.003 -0.025,-0.01 -0.007,-0.007 -0.01,-0.015 -0.01,-0.024 v -0.035 c 0,-0.01 0.003,-0.018 0.01,-0.025 0.007,-0.007 0.015,-0.011 0.025,-0.011 z m -0.211,0 c 0.01,0 0.018,0.004 0.025,0.011 0.007,0.007 0.01,0.015 0.01,0.025 v 0.035 c 0,0.009 -0.003,0.017 -0.01,0.024 -0.007,0.007 -0.016,0.01 -0.025,0.01 -0.01,0 -0.018,-0.003 -0.025,-0.01 -0.006,-0.007 -0.01,-0.015 -0.01,-0.024 v -0.035 c 0,-0.01 0.004,-0.018 0.01,-0.025 0.007,-0.007 0.015,-0.011 0.025,-0.011 z"
         style="fill-rule:nonzero"
         id="path6048" /><path
         d="m 0.687,-0.457 c 0,0.01 -0.004,0.019 -0.011,0.025 -0.007,0.007 -0.015,0.011 -0.025,0.011 -0.009,0 -0.018,-0.004 -0.025,-0.011 -0.006,-0.006 -0.01,-0.015 -0.01,-0.025 z"
         style="fill:#f7894a;fill-rule:nonzero"
         id="path6050" /></g></g></svg>
