<?xml version="1.0" encoding="UTF-8" standalone="no"?>
<svg
   width="16.844999"
   height="16.844999"
   viewBox="0 0 16.844999 16.844999"
   version="1.1"
   xml:space="preserve"
   style="clip-rule:evenodd;fill-rule:evenodd;stroke-linejoin:round;stroke-miterlimit:2"
   id="svg20568"
   sodipodi:docname="emojis.svg"
   xmlns:inkscape="http://www.inkscape.org/namespaces/inkscape"
   xmlns:sodipodi="http://sodipodi.sourceforge.net/DTD/sodipodi-0.dtd"
   xmlns="http://www.w3.org/2000/svg"
   xmlns:svg="http://www.w3.org/2000/svg"><defs
     id="defs20572" /><sodipodi:namedview
     id="namedview20570"
     pagecolor="#505050"
     bordercolor="#eeeeee"
     borderopacity="1"
     inkscape:pageshadow="0"
     inkscape:pageopacity="0"
     inkscape:pagecheckerboard="0" /><g
     transform="matrix(0.24,0,0,0.24,-342.7446,-93.74892)"
     id="g20566"><g
       transform="matrix(62.5,0,0,62.5,1420.29,447.683)"
       id="g616"><path
         d="m 0.687,-0.913 c 0.051,0 0.101,0.007 0.148,0.02 0.048,0.014 0.093,0.033 0.134,0.057 0.042,0.024 0.08,0.054 0.114,0.088 0.034,0.034 0.063,0.072 0.088,0.113 0.024,0.042 0.043,0.087 0.057,0.135 0.013,0.047 0.02,0.097 0.02,0.148 0,0.031 -0.002,0.062 -0.007,0.092 0.005,0.017 0.007,0.034 0.007,0.051 0,0.03 -0.007,0.057 -0.021,0.083 C 1.213,-0.1 1.193,-0.079 1.168,-0.062 1.143,-0.02 1.113,0.018 1.078,0.052 1.043,0.085 1.005,0.114 0.963,0.137 0.922,0.161 0.877,0.179 0.831,0.192 0.784,0.204 0.736,0.21 0.687,0.21 0.635,0.21 0.585,0.204 0.537,0.19 0.49,0.177 0.445,0.158 0.403,0.134 0.362,0.109 0.324,0.08 0.29,0.046 0.255,0.012 0.226,-0.026 0.202,-0.068 0.177,-0.11 0.158,-0.154 0.145,-0.202 0.132,-0.25 0.125,-0.3 0.125,-0.351 c 0,-0.052 0.007,-0.101 0.02,-0.149 0.013,-0.048 0.032,-0.093 0.057,-0.134 0.024,-0.042 0.053,-0.08 0.088,-0.114 0.034,-0.034 0.072,-0.064 0.113,-0.088 0.042,-0.024 0.087,-0.043 0.134,-0.057 0.048,-0.013 0.098,-0.02 0.15,-0.02 z"
         style="fill-rule:nonzero"
         id="path602" /><path
         d="m 1.178,-0.351 c 0,0.045 -0.006,0.089 -0.018,0.131 -0.012,0.041 -0.028,0.081 -0.049,0.117 -0.022,0.036 -0.047,0.07 -0.077,0.099 C 1.004,0.026 0.971,0.052 0.935,0.073 0.898,0.094 0.859,0.111 0.817,0.123 0.775,0.134 0.732,0.14 0.687,0.14 0.641,0.14 0.598,0.134 0.556,0.123 0.514,0.111 0.475,0.094 0.438,0.073 0.402,0.052 0.369,0.026 0.339,-0.004 0.309,-0.033 0.284,-0.067 0.262,-0.103 0.241,-0.139 0.225,-0.179 0.213,-0.22 0.201,-0.262 0.195,-0.306 0.195,-0.351 c 0,-0.045 0.006,-0.089 0.018,-0.131 0.012,-0.042 0.028,-0.081 0.049,-0.117 0.022,-0.037 0.047,-0.07 0.077,-0.099 0.03,-0.03 0.063,-0.056 0.099,-0.077 0.037,-0.021 0.076,-0.038 0.118,-0.05 0.042,-0.011 0.085,-0.017 0.131,-0.017 0.045,0 0.088,0.006 0.13,0.017 0.042,0.012 0.081,0.029 0.118,0.05 0.036,0.021 0.069,0.047 0.099,0.077 0.03,0.029 0.055,0.062 0.077,0.099 0.021,0.036 0.037,0.075 0.049,0.117 0.012,0.042 0.018,0.086 0.018,0.131 z"
         style="fill:#f03a17;fill-rule:nonzero"
         id="path604" /><path
         d="m 0.3,-0.572 c 0,-0.01 0.004,-0.018 0.011,-0.025 0.006,-0.007 0.015,-0.01 0.024,-0.01 0.039,0 0.072,-0.007 0.102,-0.022 0.029,-0.015 0.057,-0.035 0.083,-0.061 0.008,-0.008 0.016,-0.012 0.026,-0.012 0.01,0 0.018,0.003 0.025,0.01 0.007,0.007 0.011,0.015 0.011,0.025 0,0.008 -0.004,0.016 -0.01,0.023 -0.014,0.017 -0.03,0.033 -0.049,0.046 -0.018,0.013 -0.037,0.024 -0.058,0.034 -0.02,0.009 -0.041,0.016 -0.064,0.02 -0.022,0.005 -0.044,0.007 -0.066,0.007 -0.009,0 -0.018,-0.003 -0.024,-0.01 C 0.304,-0.554 0.3,-0.562 0.3,-0.572 Z m 0.527,-0.13 c 0.01,0 0.018,0.004 0.026,0.012 0.026,0.026 0.054,0.047 0.083,0.061 0.03,0.015 0.064,0.022 0.102,0.022 0.009,0 0.017,0.004 0.024,0.011 0.007,0.007 0.011,0.015 0.011,0.024 0,0.01 -0.004,0.018 -0.011,0.025 -0.007,0.007 -0.015,0.01 -0.024,0.01 -0.022,0 -0.044,-0.002 -0.066,-0.007 C 0.95,-0.548 0.928,-0.555 0.908,-0.564 0.887,-0.574 0.868,-0.585 0.849,-0.598 0.831,-0.611 0.815,-0.627 0.801,-0.644 0.795,-0.651 0.792,-0.659 0.792,-0.667 c 0,-0.01 0.003,-0.018 0.01,-0.025 0.007,-0.007 0.015,-0.01 0.025,-0.01 z"
         style="fill:#af0d1a;fill-rule:nonzero"
         id="path606" /><path
         d="m 0.494,-0.526 c 0.007,0 0.014,0.001 0.02,0.004 0.006,0.003 0.012,0.006 0.017,0.011 0.005,0.005 0.008,0.01 0.011,0.017 0.003,0.006 0.004,0.013 0.004,0.02 v 0.07 c 0,0.007 -0.001,0.014 -0.004,0.02 -0.003,0.007 -0.006,0.012 -0.011,0.017 -0.005,0.005 -0.011,0.009 -0.017,0.012 -0.006,0.003 -0.013,0.004 -0.02,0.004 -0.008,0 -0.015,-0.001 -0.021,-0.004 C 0.467,-0.358 0.461,-0.362 0.456,-0.366 0.452,-0.371 0.448,-0.377 0.445,-0.383 0.442,-0.389 0.441,-0.396 0.441,-0.404 v -0.07 c 0,-0.007 0.001,-0.014 0.004,-0.021 0.003,-0.006 0.007,-0.012 0.012,-0.016 0.004,-0.005 0.01,-0.008 0.016,-0.011 0.007,-0.003 0.013,-0.004 0.021,-0.004 z m 0.385,0 c 0.008,0 0.014,0.001 0.021,0.004 0.006,0.003 0.012,0.006 0.017,0.011 0.004,0.004 0.008,0.01 0.011,0.016 0.003,0.007 0.004,0.014 0.004,0.021 v 0.07 c 0,0.008 -0.001,0.015 -0.004,0.021 -0.003,0.006 -0.007,0.012 -0.011,0.017 -0.005,0.004 -0.011,0.008 -0.017,0.011 -0.007,0.003 -0.013,0.004 -0.021,0.004 -0.007,0 -0.014,-0.001 -0.02,-0.004 C 0.852,-0.358 0.847,-0.362 0.842,-0.367 0.838,-0.372 0.834,-0.377 0.831,-0.384 0.829,-0.39 0.827,-0.397 0.827,-0.404 v -0.07 c 0,-0.007 0.002,-0.014 0.004,-0.02 0.003,-0.007 0.007,-0.012 0.012,-0.017 0.004,-0.005 0.01,-0.008 0.016,-0.011 0.006,-0.003 0.013,-0.004 0.02,-0.004 z m -0.035,0.245 c 0.017,0 0.033,0.003 0.048,0.01 0.015,0.006 0.028,0.015 0.039,0.026 0.011,0.011 0.02,0.024 0.027,0.039 0.006,0.015 0.009,0.031 0.009,0.048 0,0.017 -0.003,0.033 -0.009,0.048 -0.007,0.015 -0.016,0.028 -0.027,0.039 -0.011,0.011 -0.024,0.02 -0.039,0.026 -0.015,0.007 -0.031,0.01 -0.048,0.01 H 0.529 c -0.017,0 -0.033,-0.003 -0.048,-0.01 C 0.466,-0.051 0.453,-0.06 0.442,-0.071 0.431,-0.082 0.422,-0.095 0.416,-0.11 0.409,-0.125 0.406,-0.141 0.406,-0.158 c 0,-0.017 0.003,-0.033 0.01,-0.048 0.006,-0.015 0.015,-0.028 0.026,-0.039 0.011,-0.011 0.024,-0.02 0.039,-0.026 0.015,-0.007 0.031,-0.01 0.048,-0.01 z"
         style="fill-rule:nonzero"
         id="path608" /><path
         d="m 0.792,-0.176 c 0.009,0 0.018,0.004 0.024,0.011 0.007,0.007 0.011,0.015 0.011,0.024 V 0 C 0.827,0.02 0.823,0.038 0.816,0.055 0.808,0.072 0.798,0.086 0.786,0.099 0.773,0.112 0.758,0.122 0.741,0.129 0.724,0.136 0.706,0.14 0.687,0.14 0.667,0.14 0.649,0.136 0.632,0.129 0.615,0.122 0.6,0.112 0.587,0.099 0.574,0.086 0.564,0.072 0.557,0.055 0.55,0.038 0.546,0.02 0.546,0 v -0.141 c 0,-0.009 0.003,-0.017 0.01,-0.024 0.007,-0.007 0.016,-0.011 0.025,-0.011 h 0.07 l 0.036,0.029 0.035,-0.029 z"
         style="fill:#e476c1;fill-rule:nonzero"
         id="path610" /><rect
         x="0.65100002"
         y="-0.176"
         width="0.07"
         height="0.211"
         style="fill:#e43ba6;fill-rule:nonzero"
         id="rect612" /><path
         d="m 1.073,-0.421 0.089,0.155 c 0.005,0.009 0.009,0.018 0.012,0.027 0.002,0.01 0.004,0.02 0.004,0.031 0,0.014 -0.003,0.028 -0.009,0.04 -0.005,0.013 -0.013,0.024 -0.022,0.033 -0.009,0.009 -0.021,0.017 -0.033,0.022 -0.013,0.005 -0.027,0.008 -0.041,0.008 -0.015,0 -0.029,-0.003 -0.041,-0.008 C 1.019,-0.118 1.008,-0.126 0.998,-0.135 0.989,-0.144 0.981,-0.155 0.976,-0.168 0.97,-0.181 0.967,-0.194 0.967,-0.209 c 0,-0.01 0.002,-0.02 0.004,-0.03 0.003,-0.009 0.007,-0.018 0.012,-0.027 z"
         style="fill:#00bcf2;fill-rule:nonzero"
         id="path614" /></g></g></svg>
