<?xml version="1.0" encoding="UTF-8" standalone="no"?>
<svg
   width="16.844999"
   height="16.844999"
   viewBox="0 0 16.844999 16.844999"
   version="1.1"
   xml:space="preserve"
   style="clip-rule:evenodd;fill-rule:evenodd;stroke-linejoin:round;stroke-miterlimit:2"
   id="svg20568"
   sodipodi:docname="emojis.svg"
   xmlns:inkscape="http://www.inkscape.org/namespaces/inkscape"
   xmlns:sodipodi="http://sodipodi.sourceforge.net/DTD/sodipodi-0.dtd"
   xmlns="http://www.w3.org/2000/svg"
   xmlns:svg="http://www.w3.org/2000/svg"><defs
     id="defs20572" /><sodipodi:namedview
     id="namedview20570"
     pagecolor="#505050"
     bordercolor="#eeeeee"
     borderopacity="1"
     inkscape:pageshadow="0"
     inkscape:pageopacity="0"
     inkscape:pagecheckerboard="0" /><g
     transform="matrix(0.24,0,0,0.24,-299.943,-280.4202)"
     id="g20566"><g
       transform="matrix(62.5,0,0,62.5,1241.95,1225.48)"
       id="g6224"><path
         d="m 1.213,-0.597 v 0.045 c 0,0.017 -0.001,0.033 -0.003,0.05 -0.002,0.017 -0.006,0.033 -0.013,0.048 0.016,0.02 0.029,0.041 0.038,0.065 0.009,0.023 0.013,0.048 0.013,0.073 v 0.267 L 1.075,0.21 H 0.687 V 0.175 L 0.609,0.176 H 0.604 c -0.01,0 -0.021,0 -0.031,-0.001 C 0.562,0.175 0.551,0.173 0.542,0.17 0.532,0.167 0.521,0.161 0.509,0.151 0.497,0.142 0.485,0.131 0.473,0.119 0.462,0.108 0.45,0.096 0.44,0.085 0.429,0.073 0.42,0.064 0.413,0.057 L 0.363,0.106 0.261,0.004 C 0.241,-0.017 0.23,-0.042 0.23,-0.07 v -0.14 c 0,-0.014 0.003,-0.028 0.008,-0.04 0.005,-0.013 0.013,-0.024 0.022,-0.033 0.009,-0.01 0.02,-0.017 0.032,-0.023 0.012,-0.006 0.025,-0.009 0.039,-0.01 H 0.265 C 0.246,-0.316 0.228,-0.32 0.211,-0.327 0.194,-0.335 0.179,-0.345 0.167,-0.358 0.154,-0.371 0.144,-0.385 0.136,-0.402 0.129,-0.419 0.125,-0.437 0.125,-0.457 c 0,-0.001 0,-0.004 0,-0.007 0,-0.003 0.001,-0.006 0.001,-0.009 0,-0.003 0.001,-0.006 0.001,-0.009 C 0.128,-0.485 0.128,-0.487 0.129,-0.489 0.13,-0.493 0.132,-0.496 0.134,-0.499 0.137,-0.502 0.139,-0.505 0.141,-0.508 0.146,-0.516 0.152,-0.525 0.157,-0.534 0.163,-0.543 0.168,-0.553 0.172,-0.562 0.18,-0.577 0.186,-0.592 0.19,-0.608 0.195,-0.624 0.2,-0.64 0.206,-0.655 0.214,-0.678 0.227,-0.698 0.243,-0.716 0.259,-0.734 0.278,-0.748 0.3,-0.757 v -0.05 l 0.049,-0.001 c 0.021,0 0.041,0.003 0.06,0.007 0.019,0.004 0.037,0.014 0.054,0.029 h 0.019 l 0.033,-0.033 c 0.004,-0.016 0.01,-0.03 0.019,-0.043 0.009,-0.014 0.019,-0.025 0.031,-0.034 0.012,-0.01 0.025,-0.017 0.04,-0.023 0.015,-0.005 0.03,-0.008 0.046,-0.008 0.02,0 0.038,0.004 0.055,0.011 0.017,0.008 0.032,0.018 0.045,0.03 0.013,0.013 0.023,0.028 0.03,0.045 0.007,0.017 0.011,0.035 0.011,0.055 h 0.105 c 0.025,0 0.049,0.005 0.072,0.015 0.023,0.011 0.043,0.025 0.059,0.044 0.013,-0.018 0.03,-0.033 0.05,-0.043 0.021,-0.011 0.042,-0.016 0.065,-0.016 0.014,0 0.027,0.003 0.04,0.008 0.013,0.006 0.024,0.013 0.034,0.023 0.009,0.01 0.017,0.021 0.023,0.033 0.005,0.013 0.008,0.027 0.008,0.041 v 0.07 z"
         style="fill-rule:nonzero"
         id="path6206" /><path
         d="m 0.897,-0.306 0.21,0.13 -0.28,0.246 V 0.14 H 0.757 V 0.07 l 0.14,-0.187 z M 0.3,-0.21 c 0,-0.01 0.004,-0.019 0.011,-0.025 0.006,-0.007 0.015,-0.011 0.024,-0.011 h 0.211 v 0.07 H 0.371 v 0.091 L 0.413,-0.042 0.363,0.007 0.328,-0.028 C 0.322,-0.034 0.316,-0.04 0.31,-0.047 0.303,-0.053 0.3,-0.061 0.3,-0.07 Z"
         style="fill:#8e562e;fill-rule:nonzero"
         id="path6208" /><path
         d="m 0.581,-0.632 c 0,0.013 -0.002,0.025 -0.005,0.037 -0.003,0.011 -0.008,0.023 -0.014,0.033 h 0.089 c 0,0.02 -0.003,0.038 -0.011,0.055 C 0.633,-0.49 0.623,-0.475 0.61,-0.462 0.598,-0.45 0.583,-0.44 0.566,-0.432 0.549,-0.425 0.53,-0.421 0.511,-0.421 L 0.406,-0.632 H 0.272 C 0.276,-0.642 0.281,-0.652 0.288,-0.66 0.294,-0.669 0.302,-0.676 0.31,-0.683 0.319,-0.689 0.328,-0.694 0.338,-0.697 0.348,-0.7 0.359,-0.702 0.371,-0.702 h 0.14 c 0,0.012 -0.001,0.024 -0.005,0.036 -0.003,0.012 -0.008,0.023 -0.014,0.034 z m 0.562,-0.07 c 0.009,0 0.017,0.003 0.024,0.01 0.007,0.007 0.011,0.016 0.011,0.025 H 1.143 v 0.141 c 0,0.014 -0.003,0.028 -0.009,0.041 -0.005,0.012 -0.013,0.023 -0.022,0.033 -0.01,0.009 -0.021,0.017 -0.033,0.022 -0.013,0.006 -0.027,0.009 -0.041,0.009 H 0.972 C 0.986,-0.422 0.999,-0.425 1.011,-0.43 1.024,-0.436 1.034,-0.444 1.043,-0.453 1.053,-0.463 1.06,-0.474 1.065,-0.487 1.07,-0.499 1.073,-0.512 1.073,-0.526 v -0.106 c 0,-0.01 0.002,-0.019 0.005,-0.027 0.004,-0.009 0.009,-0.016 0.015,-0.022 0.006,-0.007 0.014,-0.012 0.022,-0.016 0.009,-0.003 0.018,-0.005 0.028,-0.005 z"
         style="fill:#d48c00;fill-rule:nonzero"
         id="path6210" /><path
         d="m 1.003,-0.457 h 0.035 c 0.018,0 0.036,0.004 0.054,0.012 0.017,0.007 0.032,0.017 0.044,0.03 0.013,0.013 0.023,0.028 0.031,0.045 0.007,0.017 0.011,0.035 0.011,0.054 V -0.07 L 1.038,0.14 H 0.967 l 0.14,-0.21 -0.192,-0.193 c -0.02,0.02 -0.039,0.039 -0.058,0.058 -0.018,0.019 -0.038,0.036 -0.058,0.05 -0.02,0.015 -0.042,0.027 -0.066,0.036 -0.024,0.009 -0.051,0.014 -0.082,0.014 H 0.602 L 0.525,-0.029 0.59,0.035 h 0.061 v 0.07 H 0.582 c -0.007,0 -0.012,0 -0.017,-0.001 C 0.56,0.102 0.555,0.099 0.55,0.095 L 0.451,-0.004 c -0.007,-0.007 -0.01,-0.016 -0.01,-0.025 0,-0.01 0.003,-0.018 0.01,-0.025 l 0.06,-0.06 V -0.246 L 0.406,-0.457 H 0.335 c 0,0.01 -0.001,0.019 -0.005,0.028 C 0.326,-0.42 0.321,-0.413 0.315,-0.406 0.308,-0.4 0.301,-0.395 0.292,-0.392 0.284,-0.388 0.275,-0.386 0.265,-0.386 0.255,-0.386 0.246,-0.388 0.238,-0.392 0.229,-0.396 0.222,-0.401 0.216,-0.407 0.209,-0.413 0.204,-0.421 0.201,-0.429 0.197,-0.438 0.195,-0.447 0.195,-0.457 c 0,-0.009 0.002,-0.019 0.006,-0.028 0.004,-0.009 0.01,-0.016 0.017,-0.023 L 0.25,-0.542 0.265,-0.546 0.267,-0.56 0.335,-0.632 c 0.011,-0.011 0.022,-0.02 0.036,-0.026 v -0.079 c 0.009,0 0.018,0.002 0.027,0.005 0.008,0.004 0.016,0.009 0.022,0.015 0.007,0.007 0.012,0.014 0.015,0.023 0.004,0.008 0.006,0.017 0.006,0.027 l 0.017,0.034 0.018,-0.004 0.14,0.12 c 0.012,0.01 0.023,0.021 0.035,0.031 0.011,0.01 0.023,0.02 0.036,0.029 0.009,0.008 0.019,0.015 0.029,0.021 0.01,0.006 0.019,0.012 0.029,0.019 l 0.117,0.078 z"
         style="fill:#ca5010;fill-rule:nonzero"
         id="path6212" /><path
         d="m 0.687,-0.457 0.018,-0.009 0.017,0.009 h 0.28 v 0.211 H 0.687 Z M 0.476,-0.491 h 0.17 v 0.018 L 0.615,-0.457 H 0.335 L 0.25,-0.542 0.267,-0.56 0.335,-0.491 h 0.106 v -0.176 l 0.035,0.03 z"
         style="fill:#00cea6;fill-rule:nonzero"
         id="path6214" /><path
         d="m 0.581,-0.491 c 0,-0.01 0.003,-0.018 0.01,-0.025 0.007,-0.007 0.015,-0.01 0.025,-0.01 H 0.651 L 0.69,-0.491 0.651,-0.457 H 0.616 C 0.607,-0.457 0.599,-0.46 0.592,-0.467 0.585,-0.474 0.581,-0.482 0.581,-0.491 Z m 0,-0.246 0.071,-0.039 0.07,0.039 c 0,0.009 -0.002,0.019 -0.006,0.027 -0.004,0.009 -0.009,0.016 -0.015,0.022 -0.006,0.007 -0.014,0.012 -0.022,0.015 -0.009,0.004 -0.018,0.006 -0.028,0.006 -0.009,0 -0.019,-0.002 -0.027,-0.006 C 0.616,-0.676 0.608,-0.681 0.602,-0.688 0.595,-0.694 0.59,-0.701 0.587,-0.71 0.583,-0.718 0.581,-0.728 0.581,-0.737 Z"
         style="fill:#ffc83d;fill-rule:nonzero"
         id="path6216" /><path
         d="m 0.897,-0.702 c 0.015,0 0.028,0.003 0.041,0.008 0.013,0.006 0.024,0.013 0.033,0.023 0.01,0.009 0.018,0.021 0.023,0.033 0.006,0.013 0.008,0.027 0.008,0.041 0,0.017 -0.002,0.03 -0.007,0.042 -0.006,0.011 -0.012,0.021 -0.021,0.03 -0.008,0.008 -0.018,0.016 -0.03,0.022 -0.011,0.007 -0.023,0.013 -0.035,0.02 l -0.012,0.006 v 0.02 l -0.035,0.04 -0.035,-0.04 v -0.034 c 0,-0.01 0.003,-0.018 0.01,-0.025 l 0.045,-0.046 h -0.02 l -0.057,-0.07 0.057,-0.07 z"
         style="fill:#ffffff;fill-rule:nonzero"
         id="path6218" /><path
         d="m 0.757,-0.702 h 0.105 v 0.14 H 0.757 v 0.071 c 0,0.009 -0.004,0.017 -0.011,0.024 -0.007,0.007 -0.015,0.01 -0.024,0.01 H 0.651 v -0.069 h 0.036 v -0.106 c 0,-0.01 10e-4,-0.019 0.005,-0.027 0.004,-0.009 0.009,-0.016 0.015,-0.022 0.007,-0.007 0.014,-0.012 0.022,-0.016 0.009,-0.003 0.018,-0.005 0.028,-0.005 z m -0.035,-0.07 v 0.035 H 0.546 l 0.035,-0.035 c 0,-0.01 0.002,-0.019 0.006,-0.027 0.003,-0.009 0.008,-0.016 0.015,-0.023 0.006,-0.006 0.014,-0.011 0.022,-0.015 0.008,-0.003 0.018,-0.005 0.027,-0.005 0.01,0 0.019,0.002 0.028,0.005 0.008,0.004 0.016,0.009 0.022,0.015 0.006,0.007 0.011,0.014 0.015,0.023 0.004,0.008 0.006,0.017 0.006,0.027 z"
         style="fill:#886ce4;fill-rule:nonzero"
         id="path6220" /><path
         d="m 0.827,-0.457 h 0.07 v 0.141 H 0.792 c 0,-0.009 0.003,-0.018 0.01,-0.025 0.007,-0.007 0.015,-0.01 0.025,-0.01 z m -0.474,-0.14 c 0.005,0 0.009,0.002 0.012,0.005 0.004,0.004 0.006,0.008 0.006,0.013 v 0.035 c 0,0.005 -0.002,0.009 -0.006,0.013 -0.003,0.003 -0.007,0.005 -0.012,0.005 -0.005,0 -0.009,-0.002 -0.012,-0.005 C 0.337,-0.535 0.335,-0.539 0.335,-0.544 v -0.035 c 0,-0.005 0.002,-0.009 0.006,-0.013 0.003,-0.003 0.007,-0.005 0.012,-0.005 z"
         style="fill-rule:nonzero"
         id="path6222" /></g></g></svg>
