<?xml version="1.0" encoding="UTF-8" standalone="no"?>
<svg
   width="16.844999"
   height="16.844999"
   viewBox="0 0 16.844999 16.844999"
   version="1.1"
   xml:space="preserve"
   style="clip-rule:evenodd;fill-rule:evenodd;stroke-linejoin:round;stroke-miterlimit:2"
   id="svg20568"
   sodipodi:docname="emojis.svg"
   xmlns:inkscape="http://www.inkscape.org/namespaces/inkscape"
   xmlns:sodipodi="http://sodipodi.sourceforge.net/DTD/sodipodi-0.dtd"
   xmlns="http://www.w3.org/2000/svg"
   xmlns:svg="http://www.w3.org/2000/svg"><defs
     id="defs20572" /><sodipodi:namedview
     id="namedview20570"
     pagecolor="#505050"
     bordercolor="#eeeeee"
     borderopacity="1"
     inkscape:pageshadow="0"
     inkscape:pageopacity="0"
     inkscape:pagecheckerboard="0" /><g
     transform="matrix(0.24,0,0,0.24,-363.3414,-93.74892)"
     id="g20566"><g
       transform="matrix(62.5,0,0,62.5,1506.11,447.683)"
       id="g626"><path
         d="m 0.687,-0.913 c 0.051,0 0.101,0.007 0.148,0.02 0.048,0.014 0.093,0.033 0.135,0.057 0.041,0.024 0.079,0.054 0.113,0.088 0.035,0.034 0.064,0.072 0.088,0.113 0.025,0.042 0.044,0.087 0.057,0.135 0.013,0.047 0.02,0.097 0.02,0.149 0,0.032 -0.003,0.063 -0.008,0.094 -0.005,0.031 -0.013,0.062 -0.023,0.091 -0.006,0.015 -0.012,0.03 -0.018,0.044 -0.002,0.005 -0.005,0.01 -0.007,0.014 -0.003,0.005 -0.005,0.01 -0.006,0.015 -0.004,0.012 -0.007,0.025 -0.01,0.038 C 1.173,-0.043 1.17,-0.03 1.167,-0.017 1.161,0.002 1.152,0.017 1.137,0.027 1.123,0.037 1.106,0.042 1.087,0.042 L 1.075,0.054 C 1.073,0.062 1.071,0.071 1.069,0.081 1.067,0.09 1.064,0.099 1.062,0.109 1.059,0.118 1.057,0.128 1.054,0.137 1.052,0.146 1.049,0.155 1.047,0.163 1.042,0.177 1.034,0.189 1.024,0.198 1.014,0.206 1,0.21 0.985,0.21 0.978,0.21 0.971,0.209 0.963,0.207 0.956,0.204 0.95,0.2 0.944,0.196 0.938,0.191 0.933,0.186 0.929,0.179 0.925,0.173 0.923,0.166 0.922,0.159 0.885,0.176 0.847,0.189 0.807,0.198 0.767,0.206 0.727,0.21 0.687,0.21 0.646,0.21 0.606,0.206 0.566,0.198 0.526,0.189 0.488,0.176 0.451,0.159 0.45,0.166 0.448,0.173 0.444,0.179 0.44,0.186 0.435,0.191 0.429,0.196 0.423,0.2 0.417,0.204 0.41,0.207 0.403,0.209 0.395,0.21 0.388,0.21 0.373,0.21 0.36,0.206 0.349,0.198 0.339,0.189 0.331,0.177 0.326,0.163 0.324,0.155 0.321,0.146 0.319,0.137 0.316,0.128 0.314,0.118 0.311,0.109 0.309,0.099 0.306,0.09 0.304,0.081 0.302,0.071 0.3,0.062 0.298,0.054 L 0.286,0.042 C 0.267,0.042 0.25,0.037 0.236,0.027 0.221,0.017 0.212,0.002 0.207,-0.017 0.203,-0.03 0.2,-0.043 0.197,-0.055 0.194,-0.068 0.191,-0.081 0.187,-0.093 0.186,-0.098 0.184,-0.103 0.181,-0.108 0.179,-0.112 0.176,-0.117 0.174,-0.122 0.167,-0.136 0.161,-0.151 0.156,-0.166 0.146,-0.195 0.138,-0.226 0.133,-0.257 0.128,-0.288 0.125,-0.319 0.125,-0.351 c 0,-0.052 0.007,-0.102 0.02,-0.149 0.013,-0.048 0.032,-0.093 0.057,-0.135 0.024,-0.041 0.053,-0.079 0.088,-0.113 0.034,-0.034 0.072,-0.064 0.113,-0.088 0.042,-0.024 0.087,-0.043 0.134,-0.057 0.048,-0.013 0.098,-0.02 0.15,-0.02 z"
         style="fill-rule:nonzero"
         id="path618" /><path
         d="m 1.178,-0.351 c 0,0.045 -0.006,0.089 -0.018,0.131 -0.012,0.041 -0.028,0.081 -0.049,0.117 -0.022,0.036 -0.047,0.07 -0.077,0.099 C 1.004,0.026 0.971,0.052 0.935,0.073 0.898,0.094 0.859,0.111 0.817,0.123 0.775,0.134 0.732,0.14 0.687,0.14 0.641,0.14 0.598,0.134 0.556,0.123 0.514,0.111 0.475,0.094 0.438,0.073 0.402,0.052 0.369,0.026 0.339,-0.004 0.309,-0.033 0.284,-0.067 0.262,-0.103 0.241,-0.139 0.225,-0.179 0.213,-0.22 0.201,-0.262 0.195,-0.306 0.195,-0.351 c 0,-0.045 0.006,-0.089 0.018,-0.131 0.012,-0.042 0.028,-0.081 0.049,-0.117 0.022,-0.037 0.047,-0.07 0.077,-0.099 0.03,-0.03 0.063,-0.056 0.099,-0.077 0.037,-0.021 0.076,-0.038 0.118,-0.05 0.042,-0.011 0.085,-0.017 0.131,-0.017 0.045,0 0.088,0.006 0.13,0.017 0.042,0.012 0.081,0.029 0.118,0.05 0.036,0.021 0.069,0.047 0.099,0.077 0.03,0.029 0.055,0.062 0.077,0.099 0.021,0.036 0.037,0.075 0.049,0.117 0.012,0.042 0.018,0.086 0.018,0.131 z"
         style="fill:#83beec;fill-rule:nonzero"
         id="path620" /><path
         d="m 0.441,-0.035 c 0,-0.034 0.006,-0.066 0.019,-0.096 0.013,-0.029 0.031,-0.055 0.053,-0.078 0.022,-0.022 0.048,-0.04 0.078,-0.052 0.03,-0.013 0.062,-0.02 0.096,-0.02 0.033,0 0.065,0.007 0.095,0.02 0.03,0.012 0.056,0.03 0.078,0.052 0.022,0.023 0.04,0.049 0.053,0.078 0.013,0.03 0.019,0.062 0.019,0.096 z M 0.879,-0.386 C 0.872,-0.386 0.865,-0.388 0.859,-0.39 0.853,-0.393 0.847,-0.397 0.842,-0.402 0.837,-0.407 0.834,-0.412 0.831,-0.419 0.828,-0.425 0.827,-0.432 0.827,-0.439 v -0.07 c 0,-0.007 0.001,-0.014 0.004,-0.02 0.003,-0.006 0.006,-0.012 0.011,-0.017 0.005,-0.005 0.011,-0.009 0.017,-0.011 0.006,-0.003 0.013,-0.005 0.02,-0.005 0.008,0 0.014,0.002 0.021,0.005 0.006,0.002 0.012,0.006 0.017,0.011 0.004,0.005 0.008,0.01 0.011,0.017 0.003,0.006 0.004,0.013 0.004,0.02 v 0.07 c 0,0.008 -0.001,0.014 -0.004,0.021 C 0.925,-0.412 0.921,-0.406 0.917,-0.402 0.912,-0.397 0.906,-0.393 0.9,-0.39 0.893,-0.388 0.887,-0.386 0.879,-0.386 Z m -0.385,0 C 0.486,-0.386 0.479,-0.388 0.473,-0.39 0.467,-0.393 0.461,-0.397 0.456,-0.402 0.452,-0.406 0.448,-0.412 0.445,-0.418 0.442,-0.425 0.441,-0.431 0.441,-0.439 v -0.07 c 0,-0.007 0.001,-0.014 0.004,-0.02 0.003,-0.007 0.007,-0.012 0.011,-0.017 0.005,-0.005 0.011,-0.009 0.017,-0.011 0.006,-0.003 0.013,-0.005 0.021,-0.005 0.007,0 0.014,0.002 0.02,0.005 0.007,0.002 0.012,0.006 0.017,0.011 0.004,0.005 0.008,0.011 0.011,0.017 0.003,0.006 0.004,0.013 0.004,0.02 v 0.07 c 0,0.007 -0.001,0.014 -0.004,0.02 -0.003,0.007 -0.007,0.012 -0.011,0.017 -0.005,0.005 -0.01,0.009 -0.017,0.012 -0.006,0.002 -0.013,0.004 -0.02,0.004 z"
         style="fill-rule:nonzero"
         id="path622" /><path
         d="m 1.178,-0.369 c 0,0.004 -10e-4,0.009 -0.002,0.015 -10e-4,0.007 -0.002,0.013 -0.004,0.02 L 1.163,-0.299 C 1.157,-0.272 1.15,-0.245 1.144,-0.219 1.137,-0.192 1.131,-0.165 1.125,-0.139 1.123,-0.131 1.121,-0.122 1.118,-0.113 1.116,-0.104 1.114,-0.095 1.112,-0.085 1.11,-0.076 1.108,-0.067 1.105,-0.058 1.103,-0.049 1.101,-0.041 1.099,-0.034 1.097,-0.03 1.094,-0.027 1.09,-0.027 1.086,-0.027 1.083,-0.03 1.082,-0.034 1.079,-0.041 1.077,-0.049 1.075,-0.058 1.072,-0.067 1.07,-0.076 1.068,-0.085 1.066,-0.095 1.064,-0.104 1.062,-0.113 1.06,-0.122 1.058,-0.131 1.056,-0.139 1.049,-0.165 1.043,-0.192 1.036,-0.219 1.03,-0.245 1.024,-0.272 1.017,-0.299 L 1.008,-0.334 C 1.007,-0.341 1.005,-0.347 1.004,-0.354 1.003,-0.36 1.002,-0.365 1.002,-0.369 c 0,-0.012 0.003,-0.023 0.007,-0.034 0.005,-0.011 0.011,-0.02 0.019,-0.028 0.008,-0.008 0.017,-0.014 0.028,-0.019 0.011,-0.004 0.022,-0.007 0.034,-0.007 0.012,0 0.024,0.003 0.034,0.007 0.011,0.005 0.02,0.011 0.028,0.019 0.008,0.008 0.014,0.017 0.019,0.028 0.004,0.011 0.007,0.022 0.007,0.034 z m -0.807,0 c 0,0.004 -0.001,0.009 -0.002,0.015 -0.001,0.007 -0.003,0.013 -0.004,0.02 L 0.356,-0.299 C 0.349,-0.272 0.343,-0.245 0.337,-0.219 0.33,-0.192 0.324,-0.165 0.317,-0.139 0.315,-0.131 0.313,-0.122 0.311,-0.113 0.309,-0.104 0.307,-0.095 0.305,-0.085 0.303,-0.076 0.301,-0.067 0.298,-0.058 0.296,-0.049 0.294,-0.041 0.292,-0.034 0.29,-0.03 0.287,-0.027 0.283,-0.027 0.279,-0.027 0.276,-0.03 0.274,-0.034 0.272,-0.041 0.27,-0.049 0.268,-0.058 0.265,-0.067 0.263,-0.076 0.261,-0.085 0.259,-0.095 0.257,-0.104 0.255,-0.113 0.253,-0.122 0.25,-0.131 0.249,-0.139 0.242,-0.165 0.236,-0.192 0.229,-0.219 0.223,-0.245 0.216,-0.272 0.21,-0.299 L 0.201,-0.334 C 0.2,-0.341 0.198,-0.347 0.197,-0.354 0.196,-0.36 0.195,-0.365 0.195,-0.369 c 0,-0.012 0.003,-0.023 0.007,-0.034 0.005,-0.011 0.011,-0.02 0.019,-0.028 0.008,-0.008 0.017,-0.014 0.028,-0.019 0.01,-0.004 0.022,-0.007 0.034,-0.007 0.012,0 0.023,0.003 0.034,0.007 0.011,0.005 0.02,0.011 0.028,0.019 0.008,0.008 0.014,0.017 0.019,0.028 0.004,0.011 0.007,0.022 0.007,0.034 z m 0.667,0.281 c 0,0.003 -0.001,0.007 -0.002,0.011 -0.001,0.005 -0.002,0.01 -0.003,0.014 C 1.031,-0.058 1.03,-0.053 1.029,-0.048 1.028,-0.044 1.027,-0.04 1.026,-0.037 1.019,-0.01 1.013,0.017 1.006,0.043 0.999,0.07 0.992,0.096 0.985,0.123 0.978,0.096 0.971,0.07 0.964,0.043 0.957,0.017 0.95,-0.01 0.944,-0.037 0.943,-0.04 0.942,-0.044 0.941,-0.048 0.94,-0.053 0.938,-0.058 0.937,-0.063 0.936,-0.067 0.935,-0.072 0.934,-0.077 0.933,-0.081 0.932,-0.085 0.932,-0.088 c 0,-0.007 0.002,-0.014 0.004,-0.02 0.003,-0.007 0.007,-0.012 0.012,-0.017 0.005,-0.005 0.01,-0.009 0.017,-0.011 0.006,-0.003 0.013,-0.005 0.02,-0.005 0.007,0 0.014,0.002 0.02,0.005 0.006,0.002 0.012,0.006 0.017,0.011 0.005,0.005 0.009,0.01 0.011,0.017 0.003,0.006 0.005,0.013 0.005,0.02 z m -0.597,0 c 0,0.003 -0.001,0.007 -0.002,0.011 -0.001,0.005 -0.002,0.01 -0.003,0.014 -0.001,0.005 -0.003,0.01 -0.004,0.015 C 0.431,-0.044 0.43,-0.04 0.429,-0.037 0.423,-0.01 0.416,0.017 0.409,0.043 0.402,0.07 0.395,0.096 0.388,0.123 0.381,0.096 0.374,0.07 0.367,0.043 0.36,0.017 0.354,-0.01 0.347,-0.037 0.347,-0.04 0.346,-0.044 0.344,-0.048 0.343,-0.053 0.342,-0.058 0.34,-0.063 0.339,-0.067 0.338,-0.072 0.337,-0.077 0.336,-0.081 0.335,-0.085 0.335,-0.088 c 0,-0.007 0.002,-0.014 0.005,-0.02 0.002,-0.007 0.006,-0.012 0.011,-0.017 0.005,-0.005 0.011,-0.009 0.017,-0.011 0.006,-0.003 0.013,-0.005 0.02,-0.005 0.007,0 0.014,0.002 0.02,0.005 0.007,0.002 0.012,0.006 0.017,0.011 0.005,0.005 0.009,0.01 0.012,0.017 0.003,0.006 0.004,0.013 0.004,0.02 z M 0.722,-0.141 V -0.07 H 0.651 v -0.071 z m -0.106,0 v 0.071 h -0.07 v -0.071 z m 0.211,0 V -0.07 H 0.757 V -0.141 Z M 0.722,-0.243 v 0.067 H 0.651 v -0.067 c 0.012,-0.002 0.024,-0.003 0.036,-0.003 0.011,0 0.023,0.001 0.035,0.003 z m -0.106,0.009 v 0.058 h -0.07 v -0.016 c 0.021,-0.019 0.044,-0.032 0.07,-0.042 z m 0.211,0.042 v 0.016 h -0.07 v -0.058 c 0.013,0.005 0.025,0.01 0.037,0.017 0.012,0.007 0.023,0.016 0.033,0.025 z M 0.511,-0.141 V -0.07 H 0.479 C 0.483,-0.096 0.491,-0.119 0.504,-0.141 Z M 0.894,-0.07 H 0.862 v -0.071 h 0.007 c 0.006,0.011 0.012,0.023 0.016,0.035 0.004,0.011 0.007,0.023 0.009,0.036 z"
         style="fill:#ffffff;fill-rule:nonzero"
         id="path624" /></g></g></svg>
