<?xml version="1.0" encoding="UTF-8" standalone="no"?>
<svg
   width="16.844999"
   height="16.844999"
   viewBox="0 0 16.844999 16.844999"
   version="1.1"
   xml:space="preserve"
   style="clip-rule:evenodd;fill-rule:evenodd;stroke-linejoin:round;stroke-miterlimit:2"
   id="svg20568"
   sodipodi:docname="emojis.svg"
   xmlns:inkscape="http://www.inkscape.org/namespaces/inkscape"
   xmlns:sodipodi="http://sodipodi.sourceforge.net/DTD/sodipodi-0.dtd"
   xmlns="http://www.w3.org/2000/svg"
   xmlns:svg="http://www.w3.org/2000/svg"><defs
     id="defs20572" /><sodipodi:namedview
     id="namedview20570"
     pagecolor="#505050"
     bordercolor="#eeeeee"
     borderopacity="1"
     inkscape:pageshadow="0"
     inkscape:pageopacity="0"
     inkscape:pagecheckerboard="0" /><g
     transform="matrix(0.24,0,0,0.24,-13.213584,-297.3906)"
     id="g20566"><g
       transform="matrix(62.5,0,0,62.5,47.2441,1296.19)"
       id="g6266"><path
         d="m 1.248,-0.491 c 0,0.014 -0.003,0.028 -0.008,0.041 -0.006,0.013 -0.014,0.025 -0.025,0.034 0.011,0.015 0.019,0.031 0.025,0.048 0.005,0.017 0.008,0.034 0.008,0.052 v 0.175 c 0,0.024 -0.005,0.047 -0.014,0.068 -0.009,0.022 -0.022,0.04 -0.037,0.056 C 1.181,-0.001 1.162,0.012 1.141,0.021 1.12,0.031 1.097,0.035 1.073,0.035 H 0.988 C 0.981,0.051 0.972,0.066 0.96,0.079 0.949,0.092 0.937,0.103 0.923,0.112 0.909,0.121 0.894,0.128 0.877,0.133 0.861,0.138 0.844,0.14 0.827,0.14 H 0.594 C 0.581,0.14 0.568,0.14 0.555,0.139 0.543,0.138 0.53,0.138 0.517,0.138 c -0.006,0 -0.013,0 -0.02,0 C 0.491,0.139 0.484,0.139 0.478,0.14 0.468,0.142 0.458,0.145 0.448,0.149 0.438,0.153 0.428,0.156 0.419,0.16 0.396,0.167 0.374,0.175 0.352,0.183 0.33,0.191 0.307,0.198 0.284,0.205 0.278,0.206 0.272,0.208 0.266,0.209 0.26,0.21 0.254,0.21 0.248,0.21 0.231,0.21 0.215,0.207 0.2,0.201 0.185,0.194 0.172,0.185 0.161,0.174 0.15,0.163 0.141,0.15 0.135,0.135 0.128,0.12 0.125,0.104 0.125,0.087 V 0.018 c 0,-0.011 0.001,-0.022 0.004,-0.033 0.003,-0.011 0.008,-0.021 0.013,-0.03 0.006,-0.009 0.012,-0.018 0.02,-0.026 C 0.17,-0.079 0.179,-0.085 0.189,-0.09 0.194,-0.093 0.199,-0.095 0.204,-0.097 0.209,-0.099 0.215,-0.1 0.22,-0.102 0.242,-0.109 0.264,-0.116 0.285,-0.123 0.307,-0.131 0.328,-0.138 0.35,-0.146 L 0.387,-0.219 0.373,-0.24 C 0.363,-0.23 0.352,-0.223 0.34,-0.218 0.327,-0.213 0.314,-0.21 0.3,-0.21 0.286,-0.21 0.272,-0.213 0.259,-0.219 0.247,-0.224 0.236,-0.232 0.226,-0.241 0.217,-0.251 0.209,-0.262 0.204,-0.275 0.198,-0.288 0.195,-0.301 0.195,-0.316 v -0.21 c 0,-0.015 0.003,-0.028 0.008,-0.041 0.005,-0.013 0.013,-0.024 0.023,-0.034 L 0.335,-0.71 v -0.132 h 0.062 c 0.015,-0.022 0.034,-0.04 0.057,-0.052 0.023,-0.012 0.048,-0.019 0.074,-0.019 h 0.159 v 0.036 h 0.212 l 0.141,0.21 c 0.011,0.001 0.021,0.003 0.031,0.006 0.01,0.004 0.02,0.009 0.028,0.015 0.008,0.006 0.016,0.013 0.022,0.022 0.007,0.008 0.012,0.018 0.015,0.028 0.016,0 0.03,0.002 0.043,0.007 0.014,0.005 0.026,0.013 0.036,0.022 0.01,0.009 0.018,0.02 0.024,0.033 0.006,0.012 0.009,0.027 0.009,0.043 z"
         style="fill-rule:nonzero"
         id="path6246" /><path
         d="m 1.073,-0.421 c 0.014,0 0.028,0.002 0.041,0.008 0.012,0.005 0.024,0.013 0.033,0.023 0.009,0.009 0.017,0.02 0.022,0.033 0.006,0.013 0.009,0.026 0.009,0.041 v 0.175 c 0,0.015 -0.003,0.029 -0.009,0.041 -0.005,0.013 -0.013,0.024 -0.022,0.034 -0.009,0.009 -0.021,0.017 -0.033,0.023 -0.013,0.005 -0.027,0.008 -0.041,0.008 H 0.932 c 0,0.014 -0.003,0.028 -0.008,0.041 C 0.918,0.019 0.911,0.03 0.901,0.039 0.892,0.049 0.88,0.056 0.868,0.062 0.855,0.068 0.841,0.07 0.827,0.07 H 0.406 L 0.967,-0.141 V -0.186 C 0.962,-0.183 0.956,-0.18 0.95,-0.178 0.944,-0.177 0.938,-0.176 0.932,-0.176 0.922,-0.176 0.913,-0.178 0.905,-0.181 0.896,-0.185 0.889,-0.19 0.883,-0.196 0.876,-0.202 0.871,-0.21 0.867,-0.218 0.864,-0.227 0.862,-0.236 0.862,-0.246 c 0,-0.009 0.002,-0.018 0.005,-0.027 0.004,-0.008 0.009,-0.016 0.016,-0.022 0.006,-0.007 0.013,-0.012 0.022,-0.015 0.008,-0.004 0.017,-0.006 0.027,-0.006 h 0.035 c 0,-0.015 0.003,-0.028 0.009,-0.041 0.005,-0.013 0.013,-0.024 0.022,-0.033 0.01,-0.01 0.021,-0.018 0.034,-0.023 0.012,-0.006 0.026,-0.008 0.041,-0.008 z m -0.141,0 c -0.01,0 -0.018,-0.004 -0.025,-0.011 -0.007,-0.006 -0.01,-0.015 -0.01,-0.025 0,-0.009 0.003,-0.017 0.01,-0.024 0.007,-0.007 0.016,-0.01 0.025,-0.01 0.01,0 0.018,0.003 0.025,0.01 0.007,0.007 0.01,0.015 0.01,0.024 0,0.01 -0.003,0.019 -0.01,0.025 -0.007,0.007 -0.015,0.011 -0.025,0.011 z m 0.106,-0.105 c -0.01,0 -0.018,-0.004 -0.025,-0.011 -0.007,-0.006 -0.011,-0.015 -0.011,-0.025 0,-0.009 0.004,-0.018 0.011,-0.024 0.007,-0.007 0.015,-0.011 0.025,-0.011 0.009,0 0.017,0.004 0.024,0.011 0.007,0.007 0.011,0.015 0.011,0.024 0,0.01 -0.004,0.018 -0.011,0.025 -0.007,0.007 -0.015,0.011 -0.024,0.011 z m 0.105,0.069 c -0.01,0 -0.018,-0.003 -0.025,-0.01 -0.007,-0.007 -0.011,-0.015 -0.011,-0.024 0,-0.01 0.004,-0.018 0.011,-0.025 0.007,-0.007 0.015,-0.01 0.025,-0.01 0.009,0 0.018,0.003 0.024,0.01 0.007,0.007 0.011,0.015 0.011,0.025 0,0.009 -0.004,0.017 -0.011,0.024 -0.007,0.007 -0.015,0.01 -0.024,0.01 z"
         style="fill:#ffffff;fill-rule:nonzero"
         id="path6248" /><path
         d="m 0.985,-0.281 c 0.007,0 0.014,0.002 0.02,0.004 0.006,0.003 0.012,0.007 0.017,0.012 0.005,0.005 0.009,0.01 0.011,0.017 0.003,0.006 0.005,0.013 0.005,0.02 v 0.07 c 0,0.014 -0.004,0.025 -0.012,0.033 -0.008,0.008 -0.018,0.014 -0.03,0.019 L 0.262,0.138 C 0.258,0.139 0.254,0.14 0.248,0.14 0.241,0.14 0.234,0.139 0.227,0.136 0.221,0.133 0.215,0.129 0.211,0.125 0.206,0.12 0.202,0.115 0.199,0.108 0.197,0.102 0.195,0.095 0.195,0.087 V 0.018 c 0,-0.015 0.004,-0.026 0.012,-0.034 0.008,-0.008 0.019,-0.014 0.031,-0.018 L 0.96,-0.274 C 0.965,-0.276 0.969,-0.278 0.972,-0.279 0.976,-0.28 0.98,-0.281 0.985,-0.281 Z"
         style="fill:#00cea6;fill-rule:nonzero"
         id="path6250" /><path
         d="m 0.616,-0.421 0.147,0.075 c 0.008,0.005 0.015,0.012 0.021,0.02 0.005,0.009 0.008,0.018 0.008,0.028 v 0.052 l -0.047,0.049 -0.058,-0.05 v -0.034 h -0.13 c 0.005,0.009 0.011,0.017 0.016,0.025 0.005,0.008 0.008,0.017 0.008,0.027 0,0.009 -0.002,0.017 -0.005,0.024 L 0.511,-0.07 0.459,-0.021 0.406,-0.07 v -0.015 c 0,-0.005 0,-0.009 10e-4,-0.014 0.001,-0.004 0.002,-0.008 0.004,-0.012 L 0.468,-0.225 0.406,-0.316 0.521,-0.423 Z"
         style="fill:#0078d7;fill-rule:nonzero"
         id="path6252" /><path
         d="M 0.687,-0.513 0.722,-0.496 0.751,-0.454 0.722,-0.417 0.636,-0.46 C 0.63,-0.463 0.626,-0.466 0.622,-0.471 0.618,-0.476 0.617,-0.481 0.616,-0.487 v 0.066 c -0.035,0.017 -0.07,0.035 -0.105,0.052 -0.035,0.018 -0.07,0.036 -0.105,0.053 v -0.231 l -0.071,0.07 v 0.091 L 0.301,-0.357 0.265,-0.386 v -0.14 c 0,-0.01 0.004,-0.018 0.01,-0.025 l 0.141,-0.141 c 0.007,-0.007 0.015,-0.01 0.025,-0.01 h 0.21 v 0.035 c 0.01,0 0.018,0.003 0.025,0.01 0.007,0.007 0.011,0.015 0.011,0.025 z"
         style="fill:#e5e5e5;fill-rule:nonzero"
         id="path6254" /><path
         d="M 0.932,-0.702 H 0.757 C 0.74,-0.702 0.724,-0.698 0.708,-0.69 0.692,-0.682 0.68,-0.671 0.67,-0.657 L 0.616,-0.574 C 0.607,-0.559 0.594,-0.548 0.578,-0.539 0.563,-0.531 0.546,-0.526 0.528,-0.526 0.514,-0.526 0.5,-0.529 0.487,-0.535 0.475,-0.54 0.464,-0.548 0.454,-0.557 0.445,-0.567 0.437,-0.578 0.432,-0.591 0.426,-0.604 0.423,-0.617 0.423,-0.632 c 0,-0.014 0.003,-0.028 0.009,-0.041 0.005,-0.013 0.013,-0.024 0.022,-0.033 0.01,-0.01 0.021,-0.017 0.033,-0.023 0.013,-0.006 0.027,-0.008 0.041,-0.008 0.023,0 0.044,0.007 0.063,0.021 0.005,-0.014 0.012,-0.026 0.021,-0.038 0.009,-0.011 0.019,-0.02 0.03,-0.028 0.011,-0.008 0.024,-0.014 0.037,-0.019 0.014,-0.004 0.028,-0.006 0.043,-0.006 h 0.14 z m -0.21,0.206 0.086,0.043 c 0.005,0.003 0.01,0.008 0.014,0.013 0.003,0.006 0.005,0.012 0.005,0.019 0,0.009 -0.003,0.018 -0.011,0.025 -0.007,0.006 -0.015,0.01 -0.024,0.01 -0.005,0 -0.01,-0.001 -0.017,-0.004 C 0.769,-0.392 0.763,-0.395 0.756,-0.398 0.749,-0.402 0.743,-0.405 0.737,-0.408 0.731,-0.412 0.726,-0.415 0.722,-0.417 Z m -0.457,0.18 v -0.07 h 0.07 v 0.07 c 0,0.01 -0.003,0.018 -0.01,0.025 -0.007,0.007 -0.015,0.01 -0.025,0.01 -0.009,0 -0.017,-0.003 -0.024,-0.01 C 0.269,-0.298 0.265,-0.306 0.265,-0.316 Z"
         style="fill:#f03a17;fill-rule:nonzero"
         id="path6256" /><path
         d="m 0.616,-0.842 v 0.105 l -0.08,-0.025 -0.095,0.025 v -0.018 c 0,-0.012 0.002,-0.023 0.007,-0.034 0.004,-0.01 0.011,-0.02 0.019,-0.028 0.008,-0.008 0.017,-0.014 0.027,-0.018 0.011,-0.005 0.022,-0.007 0.034,-0.007 z"
         style="fill:#0078d7;fill-rule:nonzero"
         id="path6258" /><path
         d="M 0.792,-0.176 H 0.81 c 0.006,0 0.012,0.001 0.019,0.001 0.006,0.001 0.011,0.002 0.016,0.005 0.005,0.002 0.009,0.006 0.012,0.011 0.003,0.004 0.005,0.011 0.005,0.018 v 0.036 H 0.687 V -0.246 H 0.792 Z M 0.406,-0.018 V -0.07 h 0.105 v 0.052 C 0.511,-0.01 0.51,-0.004 0.507,0.003 0.504,0.009 0.5,0.015 0.496,0.02 0.491,0.024 0.485,0.028 0.479,0.031 0.472,0.034 0.466,0.035 0.458,0.035 0.451,0.035 0.445,0.034 0.438,0.031 0.432,0.028 0.426,0.024 0.421,0.02 0.417,0.015 0.413,0.009 0.41,0.003 0.407,-0.004 0.406,-0.01 0.406,-0.018 Z m 0.105,-0.703 v -0.042 c 0.001,0 0.002,-0.001 0.006,-0.002 C 0.52,-0.766 0.524,-0.767 0.528,-0.768 0.533,-0.769 0.536,-0.77 0.54,-0.771 0.543,-0.772 0.545,-0.772 0.546,-0.772 h 0.035 l 0.035,0.035 z"
         style="fill:#383838;fill-rule:nonzero"
         id="path6260" /><path
         d="m 0.441,-0.737 h 0.175 v 0.017 c 0,0.013 -0.002,0.024 -0.007,0.035 -0.004,0.01 -0.01,0.02 -0.018,0.028 -0.008,0.008 -0.018,0.014 -0.028,0.018 -0.011,0.005 -0.023,0.007 -0.035,0.007 -0.012,0 -0.023,-0.002 -0.034,-0.007 C 0.484,-0.643 0.475,-0.649 0.467,-0.657 0.459,-0.665 0.452,-0.675 0.448,-0.686 0.443,-0.696 0.441,-0.708 0.441,-0.72 Z"
         style="fill:#ffc83d;fill-rule:nonzero"
         id="path6262" /><path
         d="m 0.406,-0.737 v -0.035 h 0.14 v 0.035 c 0,0.009 -0.004,0.017 -0.01,0.024 -0.007,0.007 -0.015,0.011 -0.025,0.011 h -0.07 c -0.01,0 -0.018,-0.004 -0.025,-0.01 -0.007,-0.007 -0.01,-0.016 -0.01,-0.025 z"
         style="fill:#69eaff;fill-rule:nonzero"
         id="path6264" /></g></g></svg>
