<?xml version="1.0" encoding="UTF-8" standalone="no"?>
<svg
   width="16.844999"
   height="10.005"
   viewBox="0 0 16.844999 10.005"
   version="1.1"
   xml:space="preserve"
   style="clip-rule:evenodd;fill-rule:evenodd;stroke-linejoin:round;stroke-miterlimit:2"
   id="svg20568"
   sodipodi:docname="emojis.svg"
   xmlns:inkscape="http://www.inkscape.org/namespaces/inkscape"
   xmlns:sodipodi="http://sodipodi.sourceforge.net/DTD/sodipodi-0.dtd"
   xmlns="http://www.w3.org/2000/svg"
   xmlns:svg="http://www.w3.org/2000/svg"><defs
     id="defs20572" /><sodipodi:namedview
     id="namedview20570"
     pagecolor="#505050"
     bordercolor="#eeeeee"
     borderopacity="1"
     inkscape:pageshadow="0"
     inkscape:pageopacity="0"
     inkscape:pagecheckerboard="0" /><g
     transform="matrix(0.24,0,0,0.24,-404.5326,-97.43892)"
     id="g20566"><g
       transform="matrix(62.5,0,0,62.5,1677.74,447.683)"
       id="g640"><path
         d="m 1.248,-0.491 v 0.35 c 0,0.015 -0.003,0.029 -0.008,0.041 -0.006,0.013 -0.013,0.024 -0.023,0.034 -0.01,0.009 -0.021,0.017 -0.033,0.023 -0.013,0.005 -0.027,0.008 -0.041,0.008 -0.012,0 -0.022,-0.002 -0.031,-0.005 C 1.102,-0.044 1.093,-0.048 1.085,-0.053 1.076,-0.058 1.068,-0.064 1.06,-0.07 1.052,-0.076 1.043,-0.082 1.034,-0.087 1.025,-0.093 1.016,-0.097 1.005,-0.1 0.995,-0.104 0.983,-0.105 0.97,-0.105 0.955,-0.105 0.941,-0.103 0.928,-0.097 0.916,-0.091 0.904,-0.084 0.892,-0.075 0.875,-0.063 0.859,-0.053 0.843,-0.044 0.828,-0.034 0.812,-0.027 0.795,-0.02 0.779,-0.014 0.762,-0.009 0.744,-0.005 0.726,-0.002 0.707,0 0.687,0 0.666,0 0.647,-0.002 0.629,-0.005 0.611,-0.009 0.594,-0.014 0.578,-0.02 0.561,-0.027 0.545,-0.034 0.53,-0.044 0.514,-0.053 0.498,-0.063 0.481,-0.075 0.469,-0.084 0.457,-0.091 0.445,-0.097 0.432,-0.103 0.418,-0.105 0.403,-0.105 0.39,-0.105 0.378,-0.104 0.368,-0.1 0.357,-0.097 0.348,-0.093 0.339,-0.087 0.33,-0.082 0.321,-0.076 0.313,-0.07 0.305,-0.064 0.297,-0.058 0.288,-0.053 0.28,-0.048 0.271,-0.044 0.261,-0.04 0.252,-0.037 0.242,-0.035 0.23,-0.035 0.216,-0.035 0.202,-0.038 0.189,-0.043 0.177,-0.049 0.166,-0.057 0.156,-0.066 0.146,-0.076 0.139,-0.087 0.133,-0.1 0.128,-0.112 0.125,-0.126 0.125,-0.141 v -0.35 c 0,-0.017 0.003,-0.032 0.01,-0.045 0.006,-0.013 0.016,-0.025 0.028,-0.036 0.016,-0.015 0.034,-0.028 0.053,-0.04 0.019,-0.012 0.039,-0.021 0.06,-0.03 0.021,-0.008 0.042,-0.014 0.064,-0.018 0.022,-0.005 0.044,-0.007 0.066,-0.007 0.02,0 0.039,0.002 0.057,0.005 0.018,0.004 0.035,0.009 0.051,0.016 0.017,0.006 0.033,0.014 0.049,0.023 0.016,0.009 0.032,0.02 0.048,0.031 0.012,0.009 0.024,0.016 0.035,0.021 0.011,0.006 0.025,0.009 0.041,0.009 0.015,0 0.028,-0.003 0.04,-0.009 0.011,-0.005 0.023,-0.012 0.035,-0.021 0.016,-0.012 0.033,-0.022 0.048,-0.031 0.016,-0.01 0.032,-0.017 0.048,-0.024 0.017,-0.006 0.034,-0.011 0.052,-0.015 0.018,-0.003 0.037,-0.005 0.057,-0.005 0.022,0 0.044,0.002 0.066,0.007 0.022,0.004 0.043,0.01 0.064,0.018 0.021,0.009 0.042,0.018 0.061,0.03 0.019,0.012 0.036,0.025 0.052,0.04 0.012,0.011 0.021,0.023 0.028,0.036 0.007,0.013 0.01,0.028 0.01,0.045 z"
         style="fill-rule:nonzero"
         id="path636" /><path
         d="M 0.687,-0.07 C 0.664,-0.07 0.645,-0.073 0.627,-0.078 0.609,-0.083 0.593,-0.09 0.578,-0.098 0.563,-0.105 0.549,-0.114 0.536,-0.123 0.523,-0.132 0.509,-0.141 0.496,-0.148 0.483,-0.156 0.469,-0.163 0.454,-0.168 0.439,-0.173 0.423,-0.176 0.406,-0.176 c -0.023,0 -0.044,0.004 -0.062,0.011 -0.019,0.008 -0.035,0.016 -0.05,0.024 -0.014,0.009 -0.027,0.017 -0.037,0.025 -0.011,0.007 -0.02,0.011 -0.027,0.011 -0.009,0 -0.017,-0.004 -0.024,-0.011 -0.007,-0.007 -0.011,-0.015 -0.011,-0.024 0,-0.006 0.002,-0.012 0.006,-0.018 0.004,-0.006 0.01,-0.012 0.016,-0.018 0.006,-0.005 0.014,-0.011 0.022,-0.016 0.008,-0.005 0.015,-0.01 0.023,-0.014 0.008,-0.005 0.016,-0.009 0.023,-0.012 0.008,-0.003 0.014,-0.006 0.019,-0.008 0.016,-0.006 0.033,-0.011 0.05,-0.014 0.017,-0.004 0.034,-0.006 0.052,-0.006 0.022,0 0.042,0.003 0.059,0.008 0.018,0.005 0.034,0.012 0.049,0.02 0.015,0.008 0.029,0.016 0.042,0.025 0.013,0.009 0.026,0.017 0.039,0.025 0.014,0.008 0.028,0.014 0.043,0.02 0.014,0.005 0.031,0.007 0.049,0.007 0.017,0 0.034,-0.002 0.048,-0.007 0.015,-0.006 0.029,-0.012 0.043,-0.02 0.013,-0.008 0.026,-0.016 0.039,-0.025 0.013,-0.009 0.027,-0.017 0.042,-0.025 0.015,-0.008 0.031,-0.015 0.049,-0.02 0.017,-0.005 0.037,-0.008 0.059,-0.008 0.018,0 0.036,0.002 0.052,0.006 0.017,0.003 0.034,0.008 0.05,0.014 0.005,0.002 0.011,0.005 0.019,0.008 0.007,0.003 0.015,0.007 0.023,0.012 0.008,0.004 0.016,0.009 0.024,0.014 0.007,0.005 0.015,0.011 0.021,0.016 0.006,0.006 0.012,0.012 0.016,0.018 0.004,0.006 0.006,0.012 0.006,0.018 0,0.009 -0.004,0.017 -0.011,0.024 -0.007,0.007 -0.015,0.011 -0.024,0.011 -0.008,0 -0.017,-0.004 -0.028,-0.011 C 1.105,-0.124 1.093,-0.132 1.079,-0.141 1.065,-0.149 1.049,-0.157 1.031,-0.165 1.012,-0.172 0.991,-0.176 0.967,-0.176 0.949,-0.176 0.933,-0.173 0.919,-0.168 0.904,-0.163 0.89,-0.156 0.877,-0.148 0.864,-0.141 0.85,-0.132 0.837,-0.123 0.824,-0.114 0.81,-0.105 0.795,-0.098 0.78,-0.09 0.764,-0.083 0.746,-0.078 0.729,-0.073 0.709,-0.07 0.687,-0.07 Z m 0,-0.176 C 0.663,-0.246 0.643,-0.248 0.625,-0.253 0.608,-0.259 0.591,-0.265 0.577,-0.273 0.562,-0.281 0.548,-0.289 0.536,-0.298 0.523,-0.307 0.51,-0.316 0.497,-0.324 0.484,-0.332 0.47,-0.338 0.455,-0.343 0.44,-0.348 0.424,-0.351 0.406,-0.351 c -0.024,0 -0.045,0.004 -0.063,0.011 -0.019,0.007 -0.035,0.015 -0.049,0.024 -0.014,0.009 -0.027,0.017 -0.037,0.024 -0.011,0.008 -0.019,0.011 -0.027,0.011 -0.009,0 -0.018,-0.003 -0.024,-0.01 -0.007,-0.007 -0.011,-0.015 -0.011,-0.025 0,-0.006 0.001,-0.011 0.004,-0.015 0.002,-0.003 0.005,-0.008 0.009,-0.012 0.011,-0.011 0.024,-0.022 0.04,-0.032 C 0.264,-0.384 0.281,-0.393 0.3,-0.4 0.318,-0.407 0.336,-0.412 0.354,-0.416 0.373,-0.42 0.39,-0.421 0.406,-0.421 c 0.023,0 0.043,0.002 0.061,0.007 0.018,0.006 0.034,0.012 0.049,0.02 0.014,0.008 0.028,0.016 0.041,0.025 0.012,0.009 0.025,0.018 0.038,0.026 0.014,0.008 0.027,0.014 0.042,0.019 0.014,0.005 0.031,0.008 0.05,0.008 0.018,0 0.034,-0.003 0.049,-0.008 0.014,-0.005 0.028,-0.011 0.042,-0.019 0.013,-0.008 0.026,-0.017 0.038,-0.026 0.013,-0.009 0.027,-0.017 0.041,-0.025 0.015,-0.008 0.031,-0.014 0.049,-0.02 0.018,-0.005 0.038,-0.007 0.061,-0.007 0.016,0 0.033,0.001 0.052,0.005 0.018,0.004 0.036,0.009 0.054,0.016 0.019,0.007 0.036,0.016 0.052,0.025 0.016,0.01 0.029,0.021 0.04,0.032 0.004,0.004 0.007,0.009 0.009,0.012 0.003,0.004 0.004,0.009 0.004,0.015 0,0.01 -0.004,0.018 -0.011,0.025 -0.006,0.007 -0.015,0.01 -0.024,0.01 -0.007,0 -0.016,-0.003 -0.026,-0.011 C 1.106,-0.299 1.094,-0.307 1.08,-0.316 1.065,-0.325 1.049,-0.333 1.03,-0.34 1.012,-0.347 0.991,-0.351 0.967,-0.351 c -0.018,0 -0.035,0.003 -0.049,0.008 -0.015,0.005 -0.029,0.011 -0.042,0.019 -0.013,0.008 -0.026,0.017 -0.039,0.026 -0.012,0.009 -0.026,0.017 -0.041,0.025 -0.014,0.008 -0.03,0.014 -0.048,0.02 -0.018,0.005 -0.038,0.007 -0.061,0.007 z m 0,-0.175 c -0.023,0 -0.042,-0.003 -0.06,-0.008 C 0.609,-0.434 0.593,-0.441 0.578,-0.449 0.564,-0.457 0.55,-0.465 0.537,-0.474 0.524,-0.483 0.51,-0.491 0.497,-0.499 0.483,-0.507 0.469,-0.513 0.455,-0.519 0.44,-0.524 0.424,-0.526 0.406,-0.526 0.382,-0.526 0.361,-0.523 0.342,-0.515 0.324,-0.508 0.308,-0.5 0.294,-0.491 0.28,-0.483 0.268,-0.475 0.258,-0.468 0.247,-0.46 0.238,-0.457 0.23,-0.457 0.221,-0.457 0.212,-0.46 0.206,-0.467 0.199,-0.473 0.195,-0.481 0.195,-0.491 c 0,-0.007 0.001,-0.012 0.003,-0.015 0.003,-0.004 0.006,-0.008 0.01,-0.013 0.011,-0.011 0.024,-0.022 0.04,-0.032 0.016,-0.009 0.033,-0.017 0.052,-0.024 0.018,-0.007 0.036,-0.012 0.054,-0.016 0.019,-0.004 0.036,-0.006 0.052,-0.006 0.022,0 0.042,0.003 0.059,0.008 0.018,0.005 0.034,0.012 0.049,0.02 0.015,0.007 0.029,0.016 0.042,0.025 0.014,0.009 0.027,0.018 0.04,0.025 0.014,0.008 0.028,0.015 0.042,0.02 0.015,0.005 0.031,0.008 0.049,0.008 0.017,0 0.033,-0.003 0.048,-0.008 0.015,-0.005 0.029,-0.012 0.042,-0.02 0.013,-0.007 0.026,-0.016 0.04,-0.025 0.013,-0.009 0.027,-0.018 0.042,-0.025 0.015,-0.008 0.031,-0.015 0.049,-0.02 0.017,-0.005 0.037,-0.008 0.059,-0.008 0.018,0 0.035,0.002 0.052,0.005 0.017,0.004 0.034,0.009 0.05,0.015 0.005,0.002 0.011,0.005 0.019,0.008 0.007,0.003 0.015,0.007 0.023,0.012 0.008,0.004 0.016,0.009 0.024,0.014 0.007,0.005 0.015,0.011 0.021,0.016 0.006,0.006 0.012,0.012 0.016,0.018 0.004,0.006 0.006,0.012 0.006,0.018 0,0.01 -0.004,0.018 -0.011,0.024 -0.006,0.007 -0.015,0.01 -0.024,0.01 -0.008,0 -0.017,-0.003 -0.028,-0.011 C 1.105,-0.475 1.093,-0.483 1.079,-0.491 1.065,-0.5 1.049,-0.508 1.031,-0.515 1.012,-0.523 0.991,-0.526 0.967,-0.526 c -0.018,0 -0.034,0.002 -0.049,0.007 -0.014,0.006 -0.028,0.012 -0.042,0.02 -0.013,0.008 -0.027,0.016 -0.04,0.025 -0.013,0.009 -0.027,0.017 -0.041,0.025 -0.015,0.008 -0.031,0.015 -0.049,0.02 -0.017,0.005 -0.037,0.008 -0.059,0.008 z"
         style="fill:#cccccc;fill-rule:nonzero"
         id="path638" /></g></g></svg>
