<?xml version="1.0" encoding="UTF-8" standalone="no"?>
<svg
   width="16.32"
   height="16.844999"
   viewBox="0 0 16.32 16.844999"
   version="1.1"
   xml:space="preserve"
   style="clip-rule:evenodd;fill-rule:evenodd;stroke-linejoin:round;stroke-miterlimit:2"
   id="svg20568"
   sodipodi:docname="emojis.svg"
   xmlns:inkscape="http://www.inkscape.org/namespaces/inkscape"
   xmlns:sodipodi="http://sodipodi.sourceforge.net/DTD/sodipodi-0.dtd"
   xmlns="http://www.w3.org/2000/svg"
   xmlns:svg="http://www.w3.org/2000/svg"><defs
     id="defs20572" /><sodipodi:namedview
     id="namedview20570"
     pagecolor="#505050"
     bordercolor="#eeeeee"
     borderopacity="1"
     inkscape:pageshadow="0"
     inkscape:pageopacity="0"
     inkscape:pagecheckerboard="0" /><g
     transform="matrix(0.24,0,0,0.24,-249.3822,-297.3906)"
     id="g20566"><g
       transform="matrix(62.5,0,0,62.5,1031.28,1296.19)"
       id="g6512"><path
         d="m 1.167,-0.867 c 0.014,0.008 0.026,0.019 0.034,0.033 0.008,0.014 0.012,0.028 0.012,0.044 v 0.246 c 0,0.016 -0.004,0.031 -0.013,0.045 C 1.192,-0.485 1.181,-0.475 1.167,-0.467 1.16,-0.453 1.149,-0.442 1.135,-0.434 1.121,-0.426 1.106,-0.421 1.09,-0.421 1.075,-0.421 1.06,-0.425 1.046,-0.433 1.032,-0.441 1.021,-0.452 1.014,-0.466 l -0.152,0.24 V 0.07 C 0.862,0.09 0.858,0.108 0.851,0.125 0.844,0.142 0.833,0.157 0.821,0.169 0.808,0.182 0.793,0.192 0.776,0.199 0.759,0.207 0.741,0.21 0.722,0.21 H 0.476 V -0.226 L 0.324,-0.466 C 0.316,-0.452 0.306,-0.441 0.292,-0.433 0.278,-0.425 0.264,-0.421 0.248,-0.421 0.232,-0.421 0.217,-0.425 0.203,-0.433 0.189,-0.441 0.178,-0.452 0.171,-0.467 0.157,-0.475 0.146,-0.485 0.137,-0.499 0.129,-0.513 0.125,-0.528 0.125,-0.544 V -0.79 c 0,-0.016 0.004,-0.03 0.012,-0.044 0.008,-0.014 0.02,-0.025 0.034,-0.033 0.007,-0.014 0.018,-0.026 0.032,-0.034 0.013,-0.008 0.028,-0.012 0.045,-0.012 0.016,0 0.031,0.004 0.045,0.013 0.014,0.008 0.024,0.019 0.032,0.033 0.009,0.006 0.017,0.011 0.023,0.018 0.006,0.007 0.011,0.014 0.014,0.022 0.003,0.008 0.006,0.017 0.007,0.026 0.001,0.009 0.002,0.019 0.002,0.029 0.02,0 0.038,0.002 0.055,0.007 0.017,0.004 0.033,0.013 0.048,0.028 h 0.39 c 0.015,-0.015 0.031,-0.024 0.048,-0.028 0.017,-0.005 0.035,-0.007 0.055,-0.007 0,-0.01 0.001,-0.02 0.002,-0.029 0.001,-0.009 0.003,-0.018 0.007,-0.026 0.003,-0.008 0.008,-0.015 0.014,-0.022 0.006,-0.007 0.014,-0.012 0.023,-0.018 0.008,-0.014 0.018,-0.026 0.032,-0.034 0.014,-0.008 0.029,-0.012 0.045,-0.012 0.016,0 0.031,0.004 0.045,0.013 0.014,0.008 0.025,0.019 0.032,0.033 z"
         style="fill-rule:nonzero"
         id="path6494" /><path
         d="m 1.125,-0.807 c 0.005,0 0.009,0.002 0.012,0.005 0.004,0.003 0.006,0.008 0.006,0.012 v 0.246 c 0,0.005 -0.002,0.009 -0.006,0.013 -0.003,0.003 -0.007,0.005 -0.012,0.005 H 1.055 C 1.05,-0.526 1.046,-0.528 1.043,-0.531 1.039,-0.535 1.038,-0.539 1.038,-0.544 V -0.79 c 0,-0.004 10e-4,-0.009 0.005,-0.012 0.003,-0.003 0.007,-0.005 0.012,-0.005 z m -0.842,0 c 0.005,0 0.009,0.002 0.012,0.005 0.004,0.003 0.005,0.008 0.005,0.012 v 0.246 c 0,0.005 -0.001,0.009 -0.005,0.013 -0.003,0.003 -0.007,0.005 -0.012,0.005 H 0.213 C 0.208,-0.526 0.204,-0.528 0.2,-0.531 0.197,-0.535 0.195,-0.539 0.195,-0.544 V -0.79 c 0,-0.004 0.002,-0.009 0.005,-0.012 0.004,-0.003 0.008,-0.005 0.013,-0.005 z"
         style="fill:#cccccc;fill-rule:nonzero"
         id="path6496" /><path
         d="m 0.406,-0.667 h 0.526 v 0.035 H 0.406 Z M 1.09,-0.842 c 0.005,0 0.009,0.002 0.012,0.005 0.004,0.004 0.005,0.008 0.005,0.012 v 0.316 c 0,0.005 -10e-4,0.009 -0.005,0.012 -0.003,0.004 -0.007,0.006 -0.012,0.006 -0.004,0 -0.008,-0.002 -0.012,-0.006 C 1.075,-0.5 1.073,-0.504 1.073,-0.509 v -0.316 c 0,-0.005 0.001,-0.009 0.005,-0.012 0.003,-0.004 0.007,-0.005 0.012,-0.005 z m -0.842,0 c 0.005,0 0.009,0.002 0.012,0.005 0.003,0.004 0.005,0.008 0.005,0.012 v 0.316 c 0,0.005 -0.002,0.009 -0.005,0.012 -0.003,0.004 -0.007,0.006 -0.012,0.006 -0.005,0 -0.009,-0.002 -0.012,-0.006 C 0.232,-0.5 0.23,-0.504 0.23,-0.509 v -0.316 c 0,-0.005 0.002,-0.009 0.006,-0.012 0.003,-0.004 0.007,-0.005 0.012,-0.005 z"
         style="fill:#757575;fill-rule:nonzero"
         id="path6498" /><path
         d="m 0.441,-0.649 c 0,0.011 -0.004,0.021 -0.011,0.031 -0.007,0.009 -0.016,0.016 -0.027,0.019 L 0.581,-0.421 0.546,-0.246 0.311,-0.619 C 0.307,-0.624 0.305,-0.628 0.303,-0.633 0.301,-0.638 0.3,-0.644 0.3,-0.649 c 0,-0.008 0.002,-0.014 0.004,-0.021 0.003,-0.006 0.007,-0.012 0.012,-0.017 0.005,-0.004 0.01,-0.008 0.017,-0.011 0.006,-0.003 0.013,-0.004 0.02,-0.004 h 0.035 c 0.007,0 0.014,0.001 0.02,0.004 0.007,0.003 0.012,0.007 0.017,0.011 0.005,0.005 0.009,0.011 0.012,0.017 0.003,0.007 0.004,0.013 0.004,0.021 z m 0.544,-0.053 c 0.007,0 0.014,0.001 0.02,0.004 0.006,0.003 0.012,0.007 0.017,0.011 0.005,0.005 0.009,0.011 0.011,0.017 0.003,0.007 0.005,0.013 0.005,0.021 0,0.005 -0.001,0.011 -0.003,0.016 -0.002,0.005 -0.004,0.009 -0.008,0.014 L 0.792,-0.246 0.757,-0.421 0.935,-0.599 C 0.924,-0.602 0.914,-0.609 0.907,-0.618 0.9,-0.628 0.897,-0.638 0.897,-0.649 c 0,-0.008 0.001,-0.014 0.004,-0.021 0.003,-0.006 0.007,-0.012 0.012,-0.017 0.004,-0.004 0.01,-0.008 0.016,-0.011 0.007,-0.003 0.014,-0.004 0.021,-0.004 z"
         style="fill:#ffc83d;fill-rule:nonzero"
         id="path6500" /><path
         d="m 0.627,-0.137 0.165,0.032 v 0.14 L 0.599,0.053 Z"
         style="fill:#0078d7;fill-rule:nonzero"
         id="path6502" /><path
         d="m 0.757,-0.421 c 0.009,0 0.017,0.003 0.024,0.01 0.007,0.007 0.011,0.015 0.011,0.025 v 0.281 H 0.581 L 0.546,-0.123 v -0.263 c 0,-0.01 0.003,-0.018 0.01,-0.025 0.007,-0.007 0.016,-0.01 0.025,-0.01 z"
         style="fill:#e81224;fill-rule:nonzero"
         id="path6504" /><path
         d="M 0.792,0.035 V 0.07 C 0.792,0.08 0.79,0.089 0.786,0.098 0.783,0.106 0.778,0.114 0.771,0.12 0.765,0.126 0.757,0.131 0.749,0.135 0.741,0.138 0.731,0.14 0.722,0.14 0.713,0.14 0.704,0.139 0.696,0.135 0.688,0.132 0.68,0.127 0.674,0.122 0.668,0.116 0.662,0.109 0.658,0.101 0.654,0.093 0.652,0.085 0.651,0.076 V 0.105 H 0.546 v -0.228 c 0,-0.007 0.001,-0.014 0.004,-0.02 0.003,-0.007 0.007,-0.012 0.012,-0.017 0.004,-0.005 0.01,-0.009 0.016,-0.012 0.007,-0.002 0.013,-0.004 0.021,-0.004 0.007,0 0.014,0.002 0.02,0.004 0.006,0.003 0.012,0.007 0.017,0.012 0.005,0.005 0.008,0.01 0.011,0.017 0.003,0.006 0.004,0.013 0.004,0.02 V 0.035 Z M 0.669,-0.46 0.757,-0.421 v 0.017 c 0,0.013 -0.002,0.024 -0.007,0.035 -0.005,0.01 -0.011,0.019 -0.019,0.027 -0.008,0.008 -0.017,0.015 -0.028,0.019 -0.011,0.005 -0.022,0.007 -0.034,0.007 -0.012,0 -0.024,-0.002 -0.034,-0.007 C 0.624,-0.327 0.615,-0.334 0.607,-0.342 0.599,-0.35 0.592,-0.359 0.588,-0.369 0.583,-0.38 0.581,-0.391 0.581,-0.404 v -0.017 z"
         style="fill:#ffc83d;fill-rule:nonzero"
         id="path6506" /><path
         d="M 0.546,0.105 C 0.546,0.098 0.547,0.091 0.55,0.085 0.553,0.078 0.557,0.073 0.562,0.068 0.566,0.063 0.572,0.06 0.578,0.057 0.585,0.054 0.591,0.053 0.599,0.053 c 0.007,0 0.014,0.001 0.02,0.004 0.006,0.003 0.012,0.006 0.017,0.011 0.005,0.004 0.008,0.01 0.011,0.016 0.003,0.007 0.004,0.014 0.004,0.021 V 0.14 H 0.546 Z"
         style="fill:#757575;fill-rule:nonzero"
         id="path6508" /><path
         d="M 0.757,-0.421 H 0.581 v -0.018 c 0,-0.012 0.002,-0.023 0.007,-0.034 0.004,-0.01 0.011,-0.02 0.019,-0.028 0.008,-0.008 0.017,-0.014 0.028,-0.019 0.011,-0.004 0.022,-0.006 0.034,-0.006 0.012,0 0.023,0.002 0.034,0.006 0.011,0.005 0.02,0.011 0.028,0.019 0.008,0.008 0.014,0.018 0.019,0.028 0.005,0.011 0.007,0.022 0.007,0.034 z"
         style="fill:#8e562e;fill-rule:nonzero"
         id="path6510" /></g></g></svg>
