<?xml version="1.0" encoding="UTF-8" standalone="no"?>
<svg
   width="16.844999"
   height="15.78"
   viewBox="0 0 16.844999 15.78"
   version="1.1"
   xml:space="preserve"
   style="clip-rule:evenodd;fill-rule:evenodd;stroke-linejoin:round;stroke-miterlimit:2"
   id="svg20568"
   sodipodi:docname="emojis.svg"
   xmlns:inkscape="http://www.inkscape.org/namespaces/inkscape"
   xmlns:sodipodi="http://sodipodi.sourceforge.net/DTD/sodipodi-0.dtd"
   xmlns="http://www.w3.org/2000/svg"
   xmlns:svg="http://www.w3.org/2000/svg"><defs
     id="defs20572" /><sodipodi:namedview
     id="namedview20570"
     pagecolor="#505050"
     bordercolor="#eeeeee"
     borderopacity="1"
     inkscape:pageshadow="0"
     inkscape:pageopacity="0"
     inkscape:pagecheckerboard="0" /><g
     transform="matrix(0.24,0,0,0.24,-289.5342,-298.4556)"
     id="g20566"><g
       transform="matrix(62.5,0,0,62.5,1198.58,1296.19)"
       id="g6556"><path
         d="m 0.985,-0.316 c 0.036,0 0.07,0.007 0.102,0.021 0.032,0.014 0.06,0.032 0.084,0.056 0.024,0.024 0.042,0.052 0.056,0.084 0.014,0.032 0.021,0.066 0.021,0.102 0,0.036 -0.007,0.07 -0.021,0.103 C 1.213,0.082 1.195,0.11 1.171,0.133 1.147,0.157 1.119,0.176 1.087,0.19 1.055,0.204 1.021,0.21 0.985,0.21 0.964,0.21 0.944,0.208 0.924,0.203 0.904,0.199 0.885,0.192 0.867,0.183 0.849,0.174 0.832,0.162 0.816,0.149 0.8,0.136 0.786,0.122 0.774,0.105 H 0.599 C 0.586,0.122 0.572,0.136 0.557,0.149 0.541,0.162 0.524,0.173 0.506,0.182 0.488,0.191 0.469,0.198 0.449,0.203 0.429,0.208 0.409,0.21 0.388,0.21 0.352,0.21 0.318,0.204 0.286,0.19 0.254,0.176 0.226,0.157 0.202,0.133 0.178,0.11 0.16,0.082 0.146,0.05 0.132,0.017 0.125,-0.017 0.125,-0.053 c 0,-0.026 0.004,-0.052 0.011,-0.076 0.008,-0.025 0.018,-0.048 0.032,-0.069 0.014,-0.021 0.031,-0.039 0.05,-0.056 0.02,-0.017 0.042,-0.03 0.066,-0.04 C 0.276,-0.308 0.271,-0.322 0.269,-0.335 0.267,-0.348 0.266,-0.363 0.266,-0.378 c 0,-0.021 0.003,-0.04 0.011,-0.055 C 0.284,-0.448 0.295,-0.463 0.31,-0.478 0.288,-0.49 0.27,-0.507 0.256,-0.528 0.242,-0.549 0.234,-0.572 0.231,-0.597 H 0.195 v -0.07 c 0,-0.024 0.005,-0.047 0.014,-0.068 0.01,-0.021 0.022,-0.04 0.038,-0.056 0.016,-0.016 0.034,-0.028 0.055,-0.037 0.022,-0.01 0.045,-0.014 0.069,-0.014 h 0.035 c 0.024,0 0.047,0.004 0.068,0.014 0.021,0.009 0.04,0.021 0.056,0.037 0.015,0.016 0.028,0.035 0.037,0.056 0.009,0.021 0.014,0.044 0.014,0.068 h 0.035 c 0.052,0 0.102,0.008 0.15,0.024 0.047,0.017 0.092,0.041 0.132,0.074 0.022,0.017 0.039,0.036 0.051,0.057 0.012,0.021 0.018,0.045 0.018,0.073 v 0.022 c 0,0.021 -0.003,0.041 -0.01,0.059 -0.008,0.019 -0.019,0.035 -0.034,0.049 0.02,-0.004 0.041,-0.007 0.062,-0.007 z"
         style="fill-rule:nonzero"
         id="path6534" /><path
         d="m 0.388,-0.246 c 0.027,0 0.052,0.005 0.075,0.016 0.024,0.01 0.044,0.023 0.062,0.041 0.017,0.017 0.031,0.038 0.041,0.061 0.01,0.024 0.015,0.049 0.015,0.075 0,0.027 -0.005,0.052 -0.015,0.075 C 0.556,0.046 0.542,0.066 0.525,0.084 0.507,0.101 0.487,0.115 0.463,0.125 0.44,0.135 0.415,0.14 0.388,0.14 0.361,0.14 0.336,0.135 0.313,0.125 0.29,0.115 0.269,0.101 0.252,0.084 0.234,0.066 0.221,0.046 0.21,0.022 0.2,-0.001 0.195,-0.026 0.195,-0.053 0.195,-0.079 0.2,-0.104 0.21,-0.128 0.221,-0.151 0.234,-0.172 0.252,-0.189 0.269,-0.207 0.29,-0.22 0.313,-0.23 0.336,-0.241 0.361,-0.246 0.388,-0.246 Z m 0.597,0 c 0.027,0 0.052,0.005 0.075,0.016 0.023,0.01 0.044,0.023 0.061,0.041 0.018,0.017 0.032,0.038 0.042,0.061 0.01,0.024 0.015,0.049 0.015,0.075 0,0.027 -0.005,0.052 -0.015,0.075 C 1.153,0.046 1.139,0.066 1.121,0.084 1.104,0.101 1.083,0.115 1.06,0.125 1.037,0.135 1.012,0.14 0.985,0.14 0.958,0.14 0.933,0.135 0.91,0.125 0.886,0.115 0.866,0.101 0.848,0.084 0.831,0.066 0.817,0.046 0.807,0.022 0.797,-0.001 0.792,-0.026 0.792,-0.053 c 0,-0.026 0.005,-0.051 0.015,-0.075 0.01,-0.023 0.024,-0.044 0.041,-0.061 C 0.866,-0.207 0.886,-0.22 0.91,-0.23 0.933,-0.241 0.958,-0.246 0.985,-0.246 Z m 0,0.336 C 1.004,0.09 1.023,0.086 1.04,0.079 1.058,0.071 1.073,0.061 1.086,0.048 1.099,0.035 1.109,0.02 1.116,0.003 1.124,-0.015 1.127,-0.033 1.127,-0.053 1.127,-0.072 1.124,-0.091 1.116,-0.108 1.109,-0.126 1.099,-0.141 1.086,-0.154 1.073,-0.166 1.058,-0.177 1.04,-0.184 1.023,-0.192 1.004,-0.195 0.985,-0.195 c -0.02,0 -0.038,0.003 -0.056,0.011 -0.017,0.007 -0.032,0.018 -0.045,0.03 -0.013,0.013 -0.023,0.028 -0.03,0.046 -0.008,0.017 -0.012,0.036 -0.012,0.055 0,0.02 0.004,0.038 0.012,0.056 0.007,0.017 0.017,0.032 0.03,0.045 0.013,0.013 0.028,0.023 0.045,0.031 0.018,0.007 0.036,0.011 0.056,0.011 z m -0.597,0 C 0.408,0.09 0.426,0.086 0.444,0.079 0.461,0.071 0.476,0.061 0.489,0.048 0.502,0.035 0.512,0.02 0.52,0.003 0.527,-0.015 0.531,-0.033 0.531,-0.053 0.531,-0.072 0.527,-0.091 0.52,-0.108 0.512,-0.126 0.502,-0.141 0.489,-0.154 0.476,-0.166 0.461,-0.177 0.444,-0.184 0.426,-0.192 0.408,-0.195 0.388,-0.195 c -0.019,0 -0.038,0.003 -0.055,0.011 -0.018,0.007 -0.033,0.018 -0.046,0.03 -0.013,0.013 -0.023,0.028 -0.03,0.046 -0.008,0.017 -0.011,0.036 -0.011,0.055 0,0.02 0.003,0.038 0.011,0.056 C 0.264,0.02 0.274,0.035 0.287,0.048 0.3,0.061 0.315,0.071 0.333,0.079 0.35,0.086 0.369,0.09 0.388,0.09 Z M 0.423,-0.281 C 0.411,-0.281 0.399,-0.283 0.389,-0.288 0.378,-0.292 0.369,-0.298 0.361,-0.306 0.353,-0.314 0.347,-0.324 0.342,-0.334 0.338,-0.345 0.335,-0.356 0.335,-0.369 c 0,-0.012 0.003,-0.023 0.007,-0.034 0.005,-0.011 0.011,-0.02 0.019,-0.028 0.008,-0.008 0.017,-0.014 0.028,-0.019 0.01,-0.004 0.022,-0.007 0.034,-0.007 h 0.071 c 0.005,0 0.009,0.002 0.012,0.006 0.004,0.003 0.005,0.007 0.005,0.012 l 0.02,0.022 -0.02,0.031 c 0,0.005 -0.001,0.009 -0.005,0.012 -0.003,0.004 -0.007,0.005 -0.012,0.005 -0.008,0 -0.013,-0.002 -0.015,-0.008 C 0.477,-0.382 0.476,-0.389 0.476,-0.395 V -0.407 L 0.448,-0.415 C 0.442,-0.416 0.436,-0.418 0.431,-0.419 0.426,-0.421 0.424,-0.421 0.423,-0.421 c -0.007,0 -0.014,0.001 -0.02,0.004 -0.006,0.003 -0.012,0.006 -0.017,0.011 -0.005,0.005 -0.008,0.011 -0.011,0.017 -0.003,0.006 -0.004,0.013 -0.004,0.02 0,0.008 0.001,0.015 0.004,0.021 0.003,0.006 0.006,0.012 0.011,0.017 0.005,0.004 0.01,0.008 0.017,0.011 0.006,0.003 0.013,0.004 0.02,0.004 0.005,0 0.009,0.002 0.013,0.005 0.003,0.004 0.005,0.008 0.005,0.013 0,0.005 -0.002,0.009 -0.005,0.012 -0.004,0.004 -0.008,0.005 -0.013,0.005 z"
         style="fill:#757575;fill-rule:nonzero"
         id="path6536" /><path
         d="m 0.388,-0.21 c 0.022,0 0.043,0.004 0.062,0.012 0.019,0.008 0.036,0.02 0.05,0.034 0.014,0.014 0.025,0.031 0.033,0.05 0.009,0.019 0.013,0.039 0.013,0.061 0,0.022 -0.004,0.043 -0.013,0.062 C 0.525,0.028 0.514,0.045 0.5,0.059 0.486,0.073 0.469,0.084 0.45,0.093 0.431,0.101 0.41,0.105 0.388,0.105 0.366,0.105 0.346,0.101 0.327,0.093 0.307,0.084 0.291,0.073 0.277,0.059 0.262,0.045 0.251,0.028 0.243,0.009 0.235,-0.01 0.23,-0.031 0.23,-0.053 c 0,-0.022 0.005,-0.042 0.013,-0.061 0.008,-0.019 0.019,-0.036 0.034,-0.05 0.014,-0.014 0.03,-0.026 0.05,-0.034 0.019,-0.008 0.039,-0.012 0.061,-0.012 z m 0,0.28 C 0.405,0.07 0.421,0.067 0.436,0.061 0.451,0.054 0.464,0.045 0.475,0.034 0.486,0.023 0.495,0.01 0.501,-0.005 0.508,-0.02 0.511,-0.036 0.511,-0.053 0.511,-0.07 0.508,-0.086 0.501,-0.101 0.495,-0.116 0.486,-0.129 0.475,-0.14 0.464,-0.151 0.451,-0.16 0.436,-0.166 0.421,-0.173 0.405,-0.176 0.388,-0.176 c -0.017,0 -0.033,0.003 -0.048,0.01 -0.015,0.006 -0.028,0.015 -0.039,0.026 -0.011,0.011 -0.02,0.024 -0.026,0.039 -0.007,0.015 -0.01,0.031 -0.01,0.048 0,0.017 0.003,0.033 0.01,0.048 C 0.281,0.01 0.29,0.023 0.301,0.034 0.312,0.045 0.325,0.054 0.34,0.061 0.355,0.067 0.371,0.07 0.388,0.07 Z m 0.597,-0.28 c 0.022,0 0.042,0.004 0.061,0.012 0.02,0.008 0.036,0.02 0.05,0.034 0.015,0.014 0.026,0.031 0.034,0.05 0.008,0.019 0.013,0.039 0.013,0.061 0,0.022 -0.005,0.043 -0.013,0.062 C 1.122,0.028 1.111,0.045 1.096,0.059 1.082,0.073 1.066,0.084 1.046,0.093 1.027,0.101 1.007,0.105 0.985,0.105 0.963,0.105 0.943,0.101 0.923,0.093 0.904,0.084 0.887,0.073 0.873,0.059 0.859,0.045 0.847,0.028 0.839,0.009 0.831,-0.01 0.827,-0.031 0.827,-0.053 c 0,-0.022 0.004,-0.042 0.012,-0.061 0.008,-0.019 0.02,-0.036 0.034,-0.05 0.014,-0.014 0.031,-0.026 0.05,-0.034 0.02,-0.008 0.04,-0.012 0.062,-0.012 z m 0,0.28 C 1.002,0.07 1.018,0.067 1.033,0.061 1.048,0.054 1.061,0.045 1.072,0.034 1.083,0.023 1.092,0.01 1.098,-0.005 1.104,-0.02 1.107,-0.036 1.107,-0.053 1.107,-0.07 1.104,-0.086 1.098,-0.101 1.092,-0.116 1.083,-0.129 1.072,-0.14 1.061,-0.151 1.048,-0.16 1.033,-0.166 1.018,-0.173 1.002,-0.176 0.985,-0.176 c -0.017,0 -0.033,0.003 -0.048,0.01 -0.015,0.006 -0.028,0.015 -0.039,0.026 -0.011,0.011 -0.02,0.024 -0.026,0.039 -0.007,0.015 -0.01,0.031 -0.01,0.048 0,0.017 0.003,0.033 0.01,0.048 0.006,0.015 0.015,0.028 0.026,0.039 0.011,0.011 0.024,0.02 0.039,0.027 0.015,0.006 0.031,0.009 0.048,0.009 z"
         style="fill:#cccccc;fill-rule:nonzero"
         id="path6538" /><path
         d="m 1.002,-0.053 c 0,0.005 -0.001,0.009 -0.005,0.012 -0.003,0.004 -0.007,0.006 -0.012,0.006 H 0.704 c -0.006,0 -0.01,-0.002 -0.014,-0.007 L 0.499,-0.297 0.405,-0.046 c -0.003,0.007 -0.009,0.011 -0.017,0.011 -0.005,0 -0.009,-0.002 -0.012,-0.005 -0.004,-0.004 -0.005,-0.008 -0.005,-0.013 0,0 0.001,-0.005 0.004,-0.013 L 0.403,-0.143 C 0.409,-0.16 0.415,-0.177 0.421,-0.194 0.428,-0.212 0.434,-0.229 0.441,-0.246 0.447,-0.263 0.453,-0.278 0.458,-0.292 0.463,-0.306 0.468,-0.317 0.471,-0.326 0.474,-0.334 0.477,-0.34 0.478,-0.341 L 0.479,-0.342 C 0.482,-0.348 0.487,-0.351 0.494,-0.351 L 0.52,-0.38 0.546,-0.351 h 0.228 c 0.006,0 0.011,0.002 0.014,0.007 l 0.211,0.281 c 0.002,0.001 0.003,0.003 0.003,0.004 0,10e-4 0,0.003 0,0.006 z M 0.95,-0.07 0.766,-0.316 H 0.529 l 0.184,0.246 z"
         style="fill:#00bcf2;fill-rule:nonzero"
         id="path6540" /><path
         d="M 0.472,-0.59 C 0.468,-0.574 0.459,-0.561 0.447,-0.55 0.435,-0.539 0.421,-0.532 0.405,-0.528 0.402,-0.532 0.399,-0.536 0.396,-0.539 0.393,-0.543 0.391,-0.547 0.388,-0.551 0.383,-0.544 0.377,-0.536 0.371,-0.528 0.361,-0.53 0.351,-0.534 0.343,-0.539 0.334,-0.545 0.326,-0.551 0.32,-0.559 0.314,-0.566 0.309,-0.575 0.306,-0.584 0.302,-0.594 0.3,-0.604 0.3,-0.614 v -0.088 l 0.158,0.024 z m 0.285,0.277 v 0.068 L 0.722,-0.21 v 0.14 L 0.689,-0.041 0.651,-0.07 v -0.193 c 0,-0.007 0.001,-0.012 0.003,-0.017 0.002,-0.005 0.005,-0.01 0.008,-0.014 0.003,-0.004 0.006,-0.008 0.01,-0.012 0.004,-0.004 0.008,-0.008 0.013,-0.012 z m -0.246,-0.144 0.035,-0.03 0.035,0.03 v 0.071 c 0,0.01 -0.003,0.018 -0.01,0.025 -0.007,0.007 -0.015,0.01 -0.025,0.01 H 0.371 c -0.01,0 -0.018,-0.003 -0.025,-0.01 -0.007,-0.007 -0.011,-0.015 -0.011,-0.025 0,-0.01 0.004,-0.018 0.011,-0.025 0.007,-0.007 0.015,-0.01 0.025,-0.01 h 0.14 z"
         style="fill:#ffc83d;fill-rule:nonzero"
         id="path6542" /><path
         d="m 0.616,-0.597 c 0.023,0 0.045,0.002 0.068,0.006 0.023,0.004 0.046,0.011 0.067,0.018 0.022,0.008 0.043,0.018 0.063,0.03 0.02,0.012 0.038,0.025 0.055,0.041 l -0.03,0.085 -0.085,0.029 -0.173,-0.086 v 0.017 h -0.07 v -0.105 c 0,-0.009 0.004,-0.017 0.01,-0.024 0.007,-0.007 0.015,-0.011 0.025,-0.011 z"
         style="fill:#f03a17;fill-rule:nonzero"
         id="path6544" /><path
         d="m 0.388,-0.737 c 0.012,0 0.024,0.002 0.034,0.007 0.011,0.004 0.02,0.01 0.028,0.018 0.008,0.008 0.015,0.018 0.019,0.028 0.005,0.011 0.007,0.023 0.007,0.035 v 0.035 c 0,0.008 -0.001,0.016 -0.004,0.025 L 0.436,-0.626 c 0.003,-0.004 0.005,-0.008 0.005,-0.013 0,-0.004 -0.002,-0.008 -0.005,-0.012 -0.004,-0.003 -0.008,-0.005 -0.013,-0.005 -0.004,0 -0.008,0.002 -0.012,0.005 l -0.04,-0.04 h -0.06 c 0.008,-0.015 0.018,-0.026 0.032,-0.034 0.014,-0.008 0.029,-0.012 0.045,-0.012 z"
         style="fill:#8e562e;fill-rule:nonzero"
         id="path6546" /><path
         d="m 0.869,-0.502 c 0.006,0.006 0.012,0.012 0.016,0.019 0.003,0.006 0.006,0.013 0.008,0.02 0.002,0.006 0.003,0.014 0.003,0.021 0.001,0.008 0.001,0.016 0.001,0.025 0,0.003 0,0.007 -0.001,0.012 -0.001,0.005 -0.002,0.009 -0.003,0.014 -0.001,0.005 -0.002,0.01 -0.004,0.014 -0.002,0.004 -0.005,0.008 -0.007,0.01 L 0.757,-0.245 0.685,-0.318 0.784,-0.417 0.779,-0.442 H 0.81 Z m -0.463,-0.2 v 0.174 c -0.005,0.001 -0.011,0.002 -0.018,0.002 -0.006,0 -0.012,-0.001 -0.017,-0.002 v -0.174 z"
         style="fill:#757575;fill-rule:nonzero"
         id="path6548" /><path
         d="m 0.406,-0.772 c 0.014,0 0.028,0.003 0.041,0.008 0.012,0.006 0.024,0.013 0.033,0.023 0.01,0.009 0.017,0.02 0.023,0.033 0.005,0.013 0.008,0.026 0.008,0.041 H 0.265 c 0,-0.015 0.003,-0.028 0.008,-0.041 0.006,-0.013 0.014,-0.024 0.023,-0.033 0.01,-0.01 0.021,-0.017 0.034,-0.023 0.012,-0.005 0.026,-0.008 0.041,-0.008 z M 0.722,-0.07 V 0.035 H 0.581 C 0.581,0.025 0.583,0.016 0.587,0.008 0.59,-0.001 0.595,-0.008 0.602,-0.014 0.608,-0.021 0.616,-0.026 0.624,-0.03 0.632,-0.033 0.642,-0.035 0.651,-0.035 V -0.07 Z"
         style="fill:#ffffff;fill-rule:nonzero"
         id="path6550" /><path
         d="M 0.81,-0.443 0.784,-0.417 0.616,-0.501 v -0.04 z"
         style="fill:#e5e5e5;fill-rule:nonzero"
         id="path6552" /><path
         d="m 0.406,-0.737 c 0.009,0 0.017,0.003 0.024,0.01 0.007,0.007 0.011,0.015 0.011,0.025 H 0.335 c 0,-0.01 0.004,-0.018 0.011,-0.025 0.007,-0.007 0.015,-0.01 0.025,-0.01 z"
         style="fill:#cccccc;fill-rule:nonzero"
         id="path6554" /></g></g></svg>
