<?xml version="1.0" encoding="UTF-8" standalone="no"?>
<svg
   width="16.844999"
   height="16.844999"
   viewBox="0 0 16.844999 16.844999"
   version="1.1"
   xml:space="preserve"
   style="clip-rule:evenodd;fill-rule:evenodd;stroke-linejoin:round;stroke-miterlimit:2"
   id="svg20568"
   sodipodi:docname="emojis.svg"
   xmlns:inkscape="http://www.inkscape.org/namespaces/inkscape"
   xmlns:sodipodi="http://sodipodi.sourceforge.net/DTD/sodipodi-0.dtd"
   xmlns="http://www.w3.org/2000/svg"
   xmlns:svg="http://www.w3.org/2000/svg"><defs
     id="defs20572" /><sodipodi:namedview
     id="namedview20570"
     pagecolor="#505050"
     bordercolor="#eeeeee"
     borderopacity="1"
     inkscape:pageshadow="0"
     inkscape:pageopacity="0"
     inkscape:pagecheckerboard="0" /><g
     transform="matrix(0.24,0,0,0.24,-371.9166,-297.3906)"
     id="g20566"><g
       transform="matrix(62.5,0,0,62.5,1541.84,1296.19)"
       id="g6652"><path
         d="m 1.248,-0.035 c 0,0.013 -0.002,0.026 -0.007,0.037 C 1.237,0.014 1.23,0.025 1.222,0.034 1.214,0.043 1.205,0.05 1.194,0.057 1.183,0.063 1.171,0.067 1.158,0.069 1.167,0.083 1.172,0.097 1.175,0.113 1.177,0.128 1.179,0.144 1.179,0.16 L 1.178,0.21 H 0.862 C 0.84,0.21 0.819,0.207 0.799,0.199 0.779,0.191 0.761,0.18 0.745,0.165 0.738,0.179 0.727,0.19 0.713,0.198 0.7,0.206 0.685,0.21 0.669,0.21 H 0.529 C 0.516,0.21 0.505,0.208 0.494,0.204 0.484,0.199 0.475,0.193 0.467,0.185 0.459,0.177 0.452,0.168 0.448,0.157 0.443,0.146 0.441,0.135 0.441,0.123 0.441,0.11 0.443,0.098 0.448,0.087 0.453,0.076 0.46,0.067 0.468,0.059 0.476,0.052 0.486,0.046 0.497,0.042 0.508,0.037 0.52,0.035 0.533,0.035 L 0.612,-0.177 0.566,-0.316 H 0.441 v -0.07 H 0.289 C 0.277,-0.377 0.266,-0.369 0.254,-0.362 0.242,-0.355 0.228,-0.351 0.213,-0.351 0.201,-0.351 0.189,-0.353 0.178,-0.358 0.168,-0.362 0.159,-0.369 0.151,-0.377 0.143,-0.385 0.136,-0.394 0.132,-0.405 0.127,-0.415 0.125,-0.427 0.125,-0.439 c 0,-0.005 0.001,-0.012 0.002,-0.02 0.002,-0.007 0.004,-0.014 0.007,-0.019 L 0.172,-0.54 c 0.011,-0.018 0.024,-0.031 0.039,-0.042 0.015,-0.01 0.033,-0.015 0.054,-0.015 h 0.363 l 0.286,-0.285 c 0.01,-0.01 0.021,-0.017 0.034,-0.023 0.013,-0.005 0.027,-0.008 0.04,-0.008 H 1.09 c 0.012,0 0.024,0.003 0.034,0.007 0.011,0.005 0.02,0.011 0.028,0.019 0.008,0.008 0.014,0.017 0.019,0.028 0.004,0.011 0.007,0.022 0.007,0.034 0,0.012 -0.003,0.024 -0.007,0.034 C 1.166,-0.78 1.16,-0.771 1.152,-0.763 1.144,-0.755 1.135,-0.749 1.124,-0.744 1.114,-0.74 1.102,-0.737 1.09,-0.737 H 1.067 l -0.158,0.158 0.049,0.05 -0.065,0.065 0.059,0.148 c 0.018,0 0.034,0.002 0.048,0.005 0.014,0.004 0.028,0.012 0.042,0.026 l 0.175,0.175 c 0.01,0.01 0.018,0.021 0.023,0.034 0.005,0.013 0.008,0.027 0.008,0.041 z"
         style="fill-rule:nonzero"
         id="path6642" /><path
         d="m 0.967,0 c 0,0.01 0.002,0.019 0.006,0.027 C 0.977,0.036 0.982,0.043 0.988,0.05 0.994,0.056 1.002,0.061 1.01,0.065 1.019,0.068 1.028,0.07 1.038,0.07 1.047,0.07 1.056,0.072 1.065,0.076 1.073,0.079 1.081,0.084 1.087,0.091 1.094,0.097 1.098,0.104 1.102,0.113 1.106,0.121 1.107,0.13 1.107,0.14 H 0.862 C 0.847,0.14 0.833,0.137 0.821,0.132 0.808,0.126 0.797,0.119 0.788,0.109 0.778,0.1 0.771,0.089 0.765,0.076 0.76,0.063 0.757,0.05 0.757,0.035 V 0 l 0.119,-0.035 z"
         style="fill:#8e562e;fill-rule:nonzero"
         id="path6644" /><path
         d="m 0.832,-0.259 c 0.006,0 0.012,0 0.018,0.002 l 0.036,0.009 c 0.006,0.002 0.012,0.002 0.018,0.002 h 0.063 c 0.01,0 0.018,0.004 0.025,0.011 l 0.175,0.175 c 0.007,0.007 0.011,0.015 0.011,0.025 0,0.01 -0.004,0.018 -0.011,0.025 C 1.161,-0.003 1.152,0 1.143,0 1.133,0 1.125,-0.003 1.118,-0.01 L 0.953,-0.176 H 0.932 C 0.93,-0.179 0.927,-0.181 0.924,-0.183 0.92,-0.185 0.916,-0.186 0.913,-0.186 0.91,-0.186 0.906,-0.185 0.903,-0.183 0.9,-0.181 0.898,-0.179 0.897,-0.176 H 0.757 L 0.651,0.105 h 0.011 c 0.006,0 0.012,0.001 0.017,0.003 0.005,0.001 0.008,0.006 0.008,0.015 0,0.004 -0.002,0.009 -0.006,0.012 C 0.678,0.138 0.674,0.14 0.669,0.14 H 0.529 C 0.524,0.14 0.52,0.138 0.516,0.135 0.513,0.132 0.511,0.127 0.511,0.123 0.511,0.118 0.513,0.114 0.516,0.11 0.52,0.107 0.524,0.105 0.529,0.105 H 0.581 L 0.687,-0.176 C 0.691,-0.18 0.696,-0.184 0.702,-0.187 0.708,-0.19 0.714,-0.191 0.72,-0.191 c 0.004,0 0.009,0.001 0.012,0.002 0.004,0.001 0.008,0.003 0.012,0.005 l 0.003,-0.092 c 0,-0.002 0.001,-0.005 0.003,-0.007 0.002,-0.002 0.005,-0.005 0.008,-0.006 0.003,-0.002 0.006,-0.004 0.009,-0.005 0.003,-0.001 0.006,-0.001 0.008,-0.001 0.002,0 0.005,0.001 0.01,0.004 0.005,0.003 0.01,0.006 0.016,0.01 0.005,0.003 0.011,0.007 0.016,0.011 z M 1.038,-0.807 0.75,-0.519 0.724,-0.561 C 0.727,-0.566 0.73,-0.571 0.733,-0.577 0.736,-0.583 0.739,-0.59 0.742,-0.596 0.745,-0.602 0.748,-0.608 0.751,-0.614 0.754,-0.62 0.757,-0.625 0.76,-0.628 0.771,-0.641 0.782,-0.652 0.793,-0.663 0.805,-0.674 0.817,-0.685 0.828,-0.696 l 0.136,-0.136 c 0.007,-0.007 0.015,-0.01 0.024,-0.01 H 1.09 c 0.005,0 0.009,0.002 0.012,0.005 0.004,0.004 0.005,0.008 0.005,0.012 0,0.005 -10e-4,0.009 -0.005,0.013 -0.003,0.003 -0.007,0.005 -0.012,0.005 z M 0.56,-0.503 0.581,-0.457 H 0.265 L 0.24,-0.436 C 0.234,-0.432 0.229,-0.429 0.225,-0.426 0.22,-0.423 0.216,-0.421 0.213,-0.421 0.208,-0.421 0.204,-0.423 0.2,-0.427 0.197,-0.43 0.195,-0.434 0.195,-0.439 c 0,-0.003 0.002,-0.007 0.005,-0.013 0.003,-0.007 0.007,-0.013 0.012,-0.02 0.004,-0.007 0.008,-0.014 0.012,-0.021 0.004,-0.006 0.007,-0.011 0.009,-0.013 0.003,-0.006 0.008,-0.011 0.014,-0.015 0.005,-0.003 0.012,-0.005 0.018,-0.005 h 0.246 z m 0.302,0.362 c 0.014,0 0.028,0.003 0.041,0.009 0.013,0.005 0.024,0.013 0.033,0.022 0.01,0.01 0.017,0.021 0.023,0.034 0.006,0.013 0.008,0.026 0.008,0.041 V 0 h -0.21 v -0.035 c 0,-0.015 0.003,-0.028 0.008,-0.041 0.006,-0.013 0.013,-0.024 0.023,-0.034 0.009,-0.009 0.02,-0.017 0.033,-0.022 0.012,-0.006 0.026,-0.009 0.041,-0.009 z"
         style="fill:#ffc83d;fill-rule:nonzero"
         id="path6646" /><path
         d="m 0.792,-0.526 0.14,0.35 H 0.897 L 0.784,-0.277 C 0.782,-0.28 0.778,-0.281 0.774,-0.281 c -0.004,0 -0.009,0.002 -0.012,0.005 -0.003,0.004 -0.005,0.008 -0.005,0.013 v 0.087 H 0.687 L 0.616,-0.386 C 0.616,-0.389 0.615,-0.391 0.613,-0.393 0.612,-0.395 0.611,-0.398 0.61,-0.4 Z"
         style="fill:#ffffff;fill-rule:nonzero"
         id="path6648" /><path
         d="M 0.687,-0.386 H 0.511 v -0.14 h 0.146 l 0.103,-0.103 0.099,0.1 -0.123,0.122 C 0.73,-0.4 0.722,-0.395 0.714,-0.392 0.705,-0.388 0.696,-0.386 0.687,-0.386 Z"
         style="fill:#f03a17;fill-rule:nonzero"
         id="path6650" /></g></g></svg>
