<?xml version="1.0" encoding="UTF-8" standalone="no"?>
<svg
   width="16.844999"
   height="12.63"
   viewBox="0 0 16.844999 12.63"
   version="1.1"
   xml:space="preserve"
   style="clip-rule:evenodd;fill-rule:evenodd;stroke-linejoin:round;stroke-miterlimit:2"
   id="svg20568"
   sodipodi:docname="emojis.svg"
   xmlns:inkscape="http://www.inkscape.org/namespaces/inkscape"
   xmlns:sodipodi="http://sodipodi.sourceforge.net/DTD/sodipodi-0.dtd"
   xmlns="http://www.w3.org/2000/svg"
   xmlns:svg="http://www.w3.org/2000/svg"><defs
     id="defs20572" /><sodipodi:namedview
     id="namedview20570"
     pagecolor="#505050"
     bordercolor="#eeeeee"
     borderopacity="1"
     inkscape:pageshadow="0"
     inkscape:pageopacity="0"
     inkscape:pagecheckerboard="0" /><g
     transform="matrix(0.24,0,0,0.24,-466.3182,-95.86392)"
     id="g20566"><g
       transform="matrix(62.5,0,0,62.5,1935.18,447.683)"
       id="g668"><path
         d="m 1.072,-0.551 c 0.022,0.012 0.044,0.026 0.065,0.041 0.022,0.016 0.041,0.034 0.057,0.053 0.016,0.02 0.029,0.041 0.039,0.065 0.01,0.023 0.015,0.049 0.015,0.076 0,0.027 -0.005,0.051 -0.014,0.074 C 1.225,-0.219 1.213,-0.198 1.197,-0.179 1.182,-0.16 1.163,-0.143 1.143,-0.127 1.122,-0.112 1.1,-0.098 1.077,-0.086 1.054,-0.073 1.031,-0.063 1.007,-0.054 0.983,-0.045 0.96,-0.037 0.938,-0.031 0.902,-0.022 0.866,-0.015 0.83,-0.01 0.794,-0.005 0.758,-0.002 0.722,0 0.722,0.009 0.72,0.018 0.716,0.027 0.712,0.035 0.707,0.043 0.701,0.049 0.695,0.056 0.687,0.061 0.679,0.065 0.67,0.068 0.661,0.07 0.651,0.07 0.636,0.07 0.622,0.066 0.609,0.056 L 0.546,0.009 0.483,0.056 C 0.471,0.066 0.457,0.07 0.441,0.07 0.431,0.07 0.422,0.068 0.414,0.065 0.405,0.061 0.398,0.056 0.391,0.049 0.385,0.043 0.38,0.035 0.376,0.027 0.372,0.018 0.371,0.009 0.371,0 0.371,-0.009 0.372,-0.017 0.374,-0.024 0.377,-0.032 0.379,-0.039 0.382,-0.047 0.352,-0.057 0.322,-0.07 0.291,-0.086 0.261,-0.102 0.233,-0.121 0.208,-0.144 0.184,-0.166 0.164,-0.191 0.148,-0.22 0.133,-0.248 0.125,-0.28 0.125,-0.316 0.125,-0.344 0.13,-0.369 0.14,-0.393 0.149,-0.416 0.163,-0.438 0.179,-0.457 0.196,-0.477 0.215,-0.494 0.237,-0.51 0.259,-0.525 0.282,-0.539 0.306,-0.552 0.33,-0.564 0.355,-0.574 0.38,-0.583 0.405,-0.592 0.429,-0.599 0.452,-0.605 0.498,-0.616 0.544,-0.624 0.591,-0.627 0.638,-0.63 0.685,-0.632 0.732,-0.632 0.737,-0.647 0.741,-0.662 0.745,-0.677 0.749,-0.693 0.754,-0.708 0.76,-0.722 0.766,-0.737 0.774,-0.75 0.785,-0.759 0.796,-0.767 0.81,-0.772 0.827,-0.772 c 0.017,0 0.031,0.004 0.042,0.013 0.011,0.009 0.019,0.021 0.025,0.037 0.006,0.014 0.01,0.029 0.014,0.045 0.005,0.015 0.009,0.03 0.013,0.045 h 0.081 c 0.016,0 0.03,0.004 0.041,0.013 0.012,0.009 0.02,0.02 0.026,0.035 0.002,0.008 0.004,0.015 0.004,0.022 0,0.002 0,0.004 0,0.006 -10e-4,0.001 -10e-4,0.003 -10e-4,0.005 z"
         style="fill-rule:nonzero"
         id="path662" /><path
         d="m 0.653,-0.561 c 0.004,0 0.007,0.001 0.01,0.002 l 0.019,0.008 c 0.003,0.002 0.006,0.002 0.009,0.002 h 0.014 c 0.02,0 0.041,0 0.062,0.001 0.021,0 0.042,0.001 0.063,0.002 0.02,0.002 0.041,0.004 0.062,0.008 0.02,0.003 0.04,0.008 0.06,0.014 0.015,0.005 0.032,0.011 0.049,0.018 0.017,0.007 0.034,0.015 0.05,0.024 0.017,0.009 0.033,0.02 0.048,0.031 0.015,0.012 0.029,0.024 0.041,0.038 0.011,0.014 0.021,0.029 0.027,0.045 0.007,0.016 0.011,0.034 0.011,0.052 0,0.022 -0.005,0.043 -0.014,0.061 -0.01,0.019 -0.022,0.036 -0.038,0.051 C 1.11,-0.188 1.092,-0.175 1.072,-0.162 1.051,-0.15 1.03,-0.139 1.009,-0.13 0.987,-0.12 0.965,-0.112 0.944,-0.106 0.923,-0.099 0.903,-0.094 0.885,-0.09 c -0.039,0.008 -0.079,0.014 -0.118,0.016 -0.04,0.003 -0.08,0.004 -0.12,0.004 -0.008,0 -0.017,0 -0.026,0 C 0.612,-0.071 0.603,-0.072 0.595,-0.074 0.591,-0.075 0.587,-0.077 0.583,-0.079 0.578,-0.081 0.574,-0.083 0.57,-0.085 0.565,-0.087 0.561,-0.089 0.557,-0.091 0.552,-0.092 0.548,-0.093 0.544,-0.093 c -0.005,0 -0.01,0.001 -0.016,0.004 -0.005,0.002 -0.01,0.003 -0.016,0.003 -0.001,0 -0.003,0 -0.004,0 C 0.49,-0.09 0.469,-0.095 0.446,-0.101 0.424,-0.108 0.401,-0.115 0.377,-0.125 0.354,-0.134 0.332,-0.145 0.31,-0.157 0.288,-0.169 0.268,-0.183 0.251,-0.199 0.235,-0.215 0.221,-0.232 0.211,-0.252 0.2,-0.271 0.195,-0.292 0.195,-0.316 c 0,-0.017 0.004,-0.034 0.011,-0.051 0.006,-0.016 0.015,-0.031 0.026,-0.045 0.014,-0.017 0.032,-0.033 0.052,-0.047 0.02,-0.014 0.042,-0.027 0.066,-0.038 0.024,-0.011 0.049,-0.02 0.076,-0.028 0.027,-0.009 0.053,-0.015 0.08,-0.02 0.026,-0.006 0.052,-0.01 0.077,-0.012 0.025,-0.003 0.049,-0.004 0.07,-0.004 z m 0.034,0.42 c 0.028,0 0.057,-0.001 0.085,-0.003 0.028,-0.003 0.057,-0.007 0.085,-0.012 0.012,-0.003 0.027,-0.006 0.044,-0.011 0.017,-0.004 0.035,-0.01 0.053,-0.016 0.019,-0.007 0.037,-0.015 0.055,-0.024 0.019,-0.009 0.035,-0.019 0.05,-0.03 0.014,-0.011 0.026,-0.023 0.035,-0.036 0.009,-0.013 0.013,-0.028 0.013,-0.043 0,-0.015 -0.004,-0.029 -0.013,-0.043 C 1.085,-0.372 1.073,-0.384 1.059,-0.395 1.044,-0.406 1.028,-0.416 1.009,-0.425 0.991,-0.434 0.973,-0.442 0.954,-0.448 0.936,-0.455 0.918,-0.461 0.901,-0.465 0.884,-0.47 0.869,-0.473 0.857,-0.476 0.829,-0.481 0.8,-0.485 0.772,-0.488 0.744,-0.49 0.715,-0.491 0.687,-0.491 0.658,-0.491 0.629,-0.49 0.601,-0.488 0.573,-0.485 0.544,-0.481 0.516,-0.476 0.504,-0.473 0.49,-0.47 0.472,-0.465 0.455,-0.461 0.438,-0.455 0.419,-0.448 0.4,-0.442 0.382,-0.434 0.364,-0.425 0.345,-0.416 0.329,-0.406 0.314,-0.395 0.3,-0.384 0.288,-0.372 0.279,-0.359 0.27,-0.345 0.265,-0.331 0.265,-0.316 c 0,0.016 0.005,0.031 0.016,0.044 0.01,0.013 0.024,0.025 0.041,0.036 0.016,0.01 0.035,0.019 0.056,0.027 0.021,0.008 0.042,0.015 0.062,0.021 0.021,0.005 0.041,0.01 0.06,0.013 0.018,0.004 0.034,0.006 0.046,0.008 v 0.016 c 0.023,0.004 0.047,0.006 0.07,0.008 0.024,0.002 0.047,0.002 0.071,0.002 z"
         style="fill:#00bcf2;fill-rule:nonzero"
         id="path664" /><path
         d="M 0.894,-0.48 0.932,-0.351 0.827,-0.43 0.722,-0.351 0.76,-0.48 0.651,-0.562 h 0.134 l 0.042,-0.14 0.042,0.14 H 1.002 Z M 0.613,-0.129 0.651,0 0.546,-0.079 0.441,0 0.479,-0.129 0.371,-0.21 h 0.133 l 0.042,-0.141 0.042,0.141 h 0.134 z"
         style="fill:#fce100;fill-rule:nonzero"
         id="path666" /></g></g></svg>
