<?xml version="1.0" encoding="UTF-8" standalone="no"?>
<svg
   width="16.844999"
   height="15.78"
   viewBox="0 0 16.844999 15.78"
   version="1.1"
   xml:space="preserve"
   style="clip-rule:evenodd;fill-rule:evenodd;stroke-linejoin:round;stroke-miterlimit:2"
   id="svg20568"
   sodipodi:docname="emojis.svg"
   xmlns:inkscape="http://www.inkscape.org/namespaces/inkscape"
   xmlns:sodipodi="http://sodipodi.sourceforge.net/DTD/sodipodi-0.dtd"
   xmlns="http://www.w3.org/2000/svg"
   xmlns:svg="http://www.w3.org/2000/svg"><defs
     id="defs20572" /><sodipodi:namedview
     id="namedview20570"
     pagecolor="#505050"
     bordercolor="#eeeeee"
     borderopacity="1"
     inkscape:pageshadow="0"
     inkscape:pageopacity="0"
     inkscape:pagecheckerboard="0" /><g
     transform="matrix(0.24,0,0,0.24,-413.1078,-298.4556)"
     id="g20566"><g
       transform="matrix(62.5,0,0,62.5,1713.47,1296.19)"
       id="g6680"><path
         d="m 0.964,-0.623 c 0.012,0.004 0.023,0.009 0.034,0.015 0.01,0.007 0.02,0.014 0.028,0.023 l 0.141,0.14 c 0.014,0.015 0.026,0.032 0.034,0.051 0.008,0.019 0.012,0.039 0.012,0.061 v 0.2 c 0,0.014 0,0.025 -0.001,0.035 0,0.01 -10e-4,0.021 -10e-4,0.031 0,0.01 10e-4,0.022 0.002,0.035 0,0 10e-4,0.003 0.002,0.009 0.002,0.005 0.003,0.011 0.005,0.019 0.003,0.007 0.005,0.015 0.008,0.024 0.002,0.008 0.005,0.017 0.007,0.024 0.002,0.008 0.004,0.015 0.006,0.021 10e-4,0.006 0.002,0.01 0.003,0.011 0.003,0.01 0.004,0.02 0.004,0.029 V 0.21 H 0.722 L 0.721,0.163 C 0.721,0.144 0.723,0.126 0.727,0.109 0.731,0.092 0.741,0.076 0.757,0.062 v -0.187 c 0,-0.012 0.001,-0.022 0.004,-0.031 C 0.764,-0.165 0.767,-0.173 0.772,-0.18 0.777,-0.187 0.782,-0.194 0.788,-0.201 0.795,-0.208 0.802,-0.215 0.809,-0.222 0.811,-0.223 0.812,-0.224 0.813,-0.226 0.814,-0.227 0.816,-0.228 0.817,-0.23 0.809,-0.224 0.799,-0.219 0.789,-0.216 0.778,-0.212 0.768,-0.21 0.757,-0.21 H 0.616 c -0.022,0 -0.042,-0.007 -0.06,-0.019 0.008,0.008 0.016,0.016 0.023,0.023 0.008,0.007 0.014,0.015 0.019,0.022 0.006,0.008 0.01,0.017 0.013,0.026 0.004,0.009 0.005,0.02 0.005,0.033 v 0.187 c 0.011,0.01 0.02,0.021 0.026,0.035 0.006,0.014 0.009,0.028 0.009,0.043 V 0.21 H 0.125 V 0.105 c 0,-0.009 0.001,-0.019 0.004,-0.029 0,-0.001 0.001,-0.005 0.003,-0.011 L 0.146,0.02 C 0.148,0.011 0.15,0.003 0.153,-0.004 0.155,-0.012 0.156,-0.018 0.158,-0.023 0.159,-0.029 0.16,-0.032 0.16,-0.032 0.161,-0.045 0.162,-0.057 0.162,-0.067 0.162,-0.077 0.161,-0.088 0.161,-0.098 0.16,-0.108 0.16,-0.119 0.16,-0.133 v -0.2 c 0,-0.022 0.004,-0.042 0.012,-0.061 0.008,-0.019 0.019,-0.036 0.035,-0.051 l 0.14,-0.14 c 0.008,-0.009 0.018,-0.016 0.028,-0.023 0.011,-0.006 0.022,-0.011 0.033,-0.015 0,-0.005 -0.001,-0.009 -0.002,-0.013 0,-0.004 0,-0.009 0,-0.013 v -0.026 c 0,-0.007 0,-0.014 0,-0.021 10e-4,-0.007 0.002,-0.013 0.003,-0.02 0.004,-0.019 0.011,-0.035 0.02,-0.051 0.01,-0.015 0.021,-0.029 0.035,-0.04 0.014,-0.011 0.029,-0.02 0.046,-0.026 0.017,-0.006 0.035,-0.009 0.053,-0.009 0.025,0 0.047,0.005 0.069,0.015 0.021,0.011 0.04,0.025 0.055,0.044 0.014,-0.019 0.033,-0.033 0.054,-0.044 0.022,-0.01 0.044,-0.015 0.069,-0.015 0.021,0 0.041,0.004 0.061,0.012 0.019,0.008 0.036,0.02 0.05,0.034 0.014,0.014 0.026,0.031 0.034,0.05 0.008,0.02 0.012,0.04 0.012,0.061 v 0.014 c 0,0.008 0,0.016 0,0.024 -0.001,0.008 -0.001,0.016 -0.003,0.024 z"
         style="fill-rule:nonzero"
         id="path6666" /><path
         d="m 0.931,-0.529 c 0.011,0 0.02,0.004 0.028,0.011 0.007,0.008 0.011,0.017 0.011,0.028 0,0.009 -0.004,0.017 -0.01,0.024 L 0.88,-0.386 0.877,-0.387 C 0.874,-0.383 0.87,-0.379 0.867,-0.375 0.863,-0.371 0.859,-0.367 0.855,-0.364 0.851,-0.36 0.846,-0.357 0.842,-0.355 0.837,-0.352 0.832,-0.351 0.827,-0.351 H 0.76 c 0.009,0.001 0.016,0.004 0.022,0.011 0.007,0.007 0.01,0.015 0.01,0.024 0,0.01 -0.004,0.018 -0.011,0.025 -0.007,0.007 -0.015,0.01 -0.024,0.01 H 0.616 C 0.612,-0.281 0.607,-0.282 0.603,-0.283 0.598,-0.285 0.595,-0.288 0.591,-0.291 L 0.496,-0.387 H 0.492 L 0.449,-0.43 C 0.445,-0.433 0.443,-0.437 0.441,-0.442 0.44,-0.446 0.439,-0.451 0.439,-0.456 c 0,-0.01 0.003,-0.019 0.01,-0.026 0.007,-0.008 0.016,-0.011 0.027,-0.011 0.01,0 0.019,0.003 0.026,0.011 l 0.038,0.037 v 0.004 l 0.091,0.09 H 0.684 C 0.674,-0.352 0.667,-0.355 0.661,-0.362 0.654,-0.369 0.651,-0.377 0.651,-0.386 c 0,-0.01 0.004,-0.018 0.011,-0.025 0.006,-0.007 0.015,-0.01 0.025,-0.01 h 0.125 l 0.021,-0.021 v -0.002 l 0.072,-0.075 c 0.004,-0.003 0.008,-0.006 0.012,-0.007 0.005,-0.002 0.01,-0.003 0.014,-0.003 z M 0.486,-0.611 C 0.486,-0.62 0.487,-0.63 0.489,-0.642 0.49,-0.654 0.493,-0.666 0.496,-0.678 0.5,-0.69 0.504,-0.701 0.51,-0.712 c 0.005,-0.01 0.011,-0.018 0.019,-0.023 0.005,-0.003 0.01,-0.006 0.016,-0.007 0.005,-0.002 0.011,-0.003 0.017,-0.003 0.008,0 0.016,0.002 0.024,0.004 0.008,0.002 0.016,0.005 0.024,0.009 0.008,0.004 0.015,0.008 0.022,0.013 0.007,0.005 0.013,0.011 0.017,0.017 0.002,0.005 0.002,0.011 0.002,0.017 v 0.036 c 0,0.012 -0.002,0.023 -0.006,0.034 -0.005,0.011 -0.011,0.02 -0.019,0.028 -0.008,0.008 -0.018,0.014 -0.028,0.019 -0.011,0.004 -0.022,0.006 -0.035,0.006 -0.016,0 -0.031,-0.004 -0.044,-0.012 C 0.505,-0.582 0.494,-0.593 0.486,-0.607 Z m 0.4,-0.002 v 0.006 C 0.879,-0.593 0.868,-0.582 0.854,-0.574 0.84,-0.566 0.826,-0.562 0.81,-0.562 0.798,-0.562 0.786,-0.564 0.775,-0.568 0.765,-0.573 0.755,-0.579 0.747,-0.587 0.739,-0.595 0.733,-0.604 0.729,-0.615 0.724,-0.626 0.722,-0.637 0.722,-0.649 v -0.036 c 0,-0.005 0,-0.011 0.001,-0.017 0.005,-0.006 0.011,-0.012 0.018,-0.017 0.007,-0.005 0.014,-0.009 0.022,-0.013 0.008,-0.004 0.016,-0.007 0.024,-0.009 0.008,-0.002 0.016,-0.004 0.024,-0.004 0.015,0 0.027,0.005 0.037,0.015 0.01,0.009 0.017,0.02 0.023,0.034 0.006,0.013 0.01,0.028 0.012,0.043 0.002,0.015 0.003,0.028 0.003,0.04 z M 0.839,-0.457 H 0.534 L 0.52,-0.526 H 0.854 Z M 0.536,-0.15 c 0.006,0.007 0.01,0.015 0.01,0.025 V 0 C 0.534,0.005 0.523,0.007 0.511,0.007 0.5,0.007 0.488,0.005 0.476,0 v -0.07 l -0.07,-0.071 c 0,-0.005 0.002,-0.011 0.008,-0.019 0.005,-0.007 0.012,-0.015 0.019,-0.023 0.008,-0.007 0.015,-0.014 0.023,-0.019 0.008,-0.006 0.015,-0.008 0.02,-0.008 z m 0.291,0.025 c 0,-0.005 0.001,-0.009 0.003,-0.014 0.002,-0.004 0.004,-0.008 0.007,-0.011 l 0.06,-0.06 c 0.006,0 0.013,0.003 0.02,0.008 0.007,0.005 0.015,0.011 0.021,0.018 0.007,0.008 0.013,0.015 0.019,0.023 0.005,0.008 0.009,0.015 0.01,0.02 L 0.897,-0.07 V 0 C 0.885,0.005 0.874,0.007 0.862,0.007 0.85,0.007 0.838,0.005 0.827,0 Z M 0.224,0 c 0,0 0.001,-0.002 0.001,-0.004 L 0.23,-0.022 v -0.119 l 0.025,-0.06 h 0.064 c 0.004,0.016 0.007,0.027 0.01,0.035 0.002,0.008 0.004,0.014 0.004,0.018 l 0.002,0.008 c 0,0.001 0,0.006 -0.002,0.013 C 0.331,-0.12 0.329,-0.112 0.326,-0.102 0.324,-0.093 0.321,-0.082 0.318,-0.071 0.315,-0.06 0.312,-0.05 0.309,-0.04 0.306,-0.03 0.303,-0.022 0.301,-0.014 0.299,-0.007 0.298,-0.002 0.297,0 0.292,0.005 0.286,0.009 0.28,0.012 0.274,0.016 0.267,0.018 0.26,0.018 0.253,0.018 0.247,0.016 0.24,0.012 0.234,0.009 0.229,0.005 0.224,0 Z m 0.901,-0.195 c 0,0.001 10e-4,0.005 0.003,0.011 0.002,0.005 0.004,0.011 0.007,0.018 0.002,0.006 0.004,0.012 0.005,0.017 0.002,0.005 0.003,0.008 0.003,0.008 0,0.002 0,0.005 0,0.007 v 0.008 c 0,0.009 0,0.021 -0.001,0.033 0,0.013 0,0.025 0,0.038 0,0.012 0,0.023 0.001,0.033 C 1.144,-0.012 1.146,-0.005 1.149,0 1.139,0.008 1.128,0.012 1.116,0.012 1.109,0.012 1.102,0.011 1.095,0.009 1.089,0.007 1.082,0.004 1.076,0 L 1.039,-0.131 C 1.038,-0.132 1.038,-0.134 1.038,-0.136 v -0.005 l 0.025,-0.054 z"
         style="fill:#ffc83d;fill-rule:nonzero"
         id="path6668" /><path
         d="m 0.81,-0.772 c 0.012,0 0.023,0.002 0.034,0.007 0.01,0.004 0.019,0.011 0.027,0.019 0.008,0.008 0.015,0.017 0.019,0.027 0.005,0.011 0.007,0.022 0.007,0.034 v 0.036 c 0,0.014 -0.004,0.028 -0.011,0.041 L 0.857,-0.637 C 0.86,-0.641 0.862,-0.645 0.862,-0.649 0.862,-0.654 0.86,-0.658 0.857,-0.662 0.853,-0.665 0.849,-0.667 0.844,-0.667 c -0.005,0 -0.009,0.002 -0.012,0.005 l -0.04,-0.04 H 0.723 C 0.725,-0.712 0.729,-0.722 0.734,-0.73 0.74,-0.739 0.746,-0.746 0.754,-0.752 0.762,-0.759 0.77,-0.763 0.78,-0.767 0.789,-0.77 0.799,-0.772 0.81,-0.772 Z m -0.247,0 c 0.011,0 0.021,0.002 0.03,0.005 0.01,0.004 0.018,0.008 0.026,0.015 0.008,0.006 0.014,0.013 0.019,0.022 0.006,0.008 0.009,0.018 0.011,0.028 H 0.581 l -0.04,0.04 C 0.537,-0.665 0.533,-0.667 0.529,-0.667 c -0.005,0 -0.009,0.002 -0.013,0.005 -0.003,0.004 -0.005,0.008 -0.005,0.013 0,0.004 0.002,0.008 0.005,0.012 L 0.487,-0.608 C 0.48,-0.621 0.476,-0.635 0.476,-0.649 v -0.036 c 0,-0.012 0.002,-0.023 0.007,-0.034 0.004,-0.01 0.011,-0.019 0.019,-0.027 C 0.51,-0.754 0.519,-0.761 0.53,-0.765 0.54,-0.77 0.551,-0.772 0.563,-0.772 Z"
         style="fill:#8e562e;fill-rule:nonzero"
         id="path6670" /><path
         d="M 1.159,0.035 C 1.16,0.039 1.162,0.044 1.164,0.051 1.166,0.057 1.168,0.064 1.17,0.071 1.172,0.078 1.174,0.084 1.176,0.09 1.177,0.097 1.178,0.101 1.178,0.105 V 0.14 H 1.073 C 1.073,0.131 1.076,0.123 1.083,0.116 1.089,0.109 1.097,0.106 1.106,0.105 L 1.086,0.035 C 1.098,0.03 1.11,0.027 1.122,0.027 c 0.013,0 0.025,0.003 0.037,0.008 z M 0.267,0.105 C 0.276,0.106 0.284,0.109 0.291,0.116 0.297,0.123 0.3,0.131 0.3,0.14 H 0.195 V 0.105 C 0.195,0.101 0.196,0.096 0.198,0.09 0.199,0.084 0.201,0.077 0.203,0.07 0.205,0.063 0.207,0.057 0.209,0.05 0.211,0.044 0.213,0.039 0.214,0.035 0.226,0.029 0.239,0.027 0.251,0.027 c 0.013,0 0.025,0.002 0.036,0.008 z m 0.56,-0.07 C 0.832,0.032 0.837,0.029 0.843,0.026 0.849,0.024 0.855,0.023 0.862,0.023 c 0.006,0 0.013,0.001 0.018,0.003 0.006,0.003 0.012,0.006 0.017,0.009 V 0.14 H 0.792 c 0,-0.009 0.003,-0.018 0.01,-0.025 0.007,-0.007 0.015,-0.01 0.025,-0.01 z m -0.281,0.07 c 0.009,0 0.018,0.003 0.025,0.01 0.007,0.007 0.01,0.016 0.01,0.025 H 0.476 V 0.035 C 0.482,0.032 0.487,0.029 0.493,0.028 0.499,0.026 0.505,0.025 0.511,0.025 c 0.007,0 0.013,10e-4 0.019,0.003 0.005,0.001 0.011,0.004 0.016,0.007 z"
         style="fill:#cccccc;fill-rule:nonzero"
         id="path6672" /><path
         d="M 0.397,-0.289 0.476,-0.21 0.406,-0.141 0.335,-0.21 v 0.069 H 0.23 v -0.192 c 0,-0.012 0.003,-0.023 0.007,-0.034 0.004,-0.011 0.011,-0.02 0.019,-0.029 l 0.14,-0.14 c 0.009,-0.008 0.018,-0.015 0.029,-0.019 0.011,-0.004 0.022,-0.007 0.033,-0.007 0.013,0 0.024,0.003 0.035,0.007 0.01,0.005 0.02,0.011 0.028,0.019 0.007,0.008 0.014,0.017 0.018,0.028 0.005,0.011 0.007,0.022 0.007,0.034 0,0.011 -0.002,0.022 -0.006,0.032 L 0.501,-0.481 C 0.498,-0.484 0.494,-0.487 0.49,-0.489 0.485,-0.49 0.481,-0.491 0.476,-0.491 c -0.01,0 -0.018,0.003 -0.025,0.01 -0.007,0.007 -0.01,0.015 -0.01,0.025 0,0.009 0.003,0.018 0.01,0.024 l 0.045,0.045 z"
         style="fill:#f03a17;fill-rule:nonzero"
         id="path6674" /><path
         d="m 0.915,-0.562 c 0.011,0 0.022,0.003 0.033,0.007 0.011,0.004 0.02,0.011 0.029,0.019 l 0.14,0.14 c 0.008,0.009 0.015,0.018 0.019,0.029 0.004,0.011 0.007,0.022 0.007,0.034 v 0.192 H 1.038 V -0.21 l -0.071,0.069 -0.07,-0.069 0.079,-0.079 -0.099,-0.098 0.08,-0.08 c 0.007,-0.007 0.01,-0.015 0.01,-0.024 0,-0.01 -0.003,-0.018 -0.01,-0.025 -0.007,-0.007 -0.015,-0.01 -0.025,-0.01 -0.01,0 -0.018,0.003 -0.025,0.01 l -0.074,0.074 c -0.004,-0.01 -0.006,-0.021 -0.006,-0.032 0,-0.012 0.002,-0.023 0.007,-0.034 0.005,-0.011 0.011,-0.02 0.019,-0.028 C 0.86,-0.544 0.87,-0.55 0.88,-0.555 0.891,-0.559 0.902,-0.562 0.915,-0.562 Z"
         style="fill:#3a96dd;fill-rule:nonzero"
         id="path6676" /><path
         d="M 1.159,0.035 H 1.086 L 1.076,0 H 1.149 Z M 0.224,0 H 0.297 L 0.287,0.035 H 0.214 Z m 0.603,0 h 0.07 V 0.035 H 0.827 Z M 0.476,0 h 0.07 v 0.035 h -0.07 z"
         style="fill:#ffffff;fill-rule:nonzero"
         id="path6678" /></g></g></svg>
