<?xml version="1.0" encoding="UTF-8" standalone="no"?>
<svg
   width="16.844999"
   height="16.844999"
   viewBox="0 0 16.844999 16.844999"
   version="1.1"
   xml:space="preserve"
   style="clip-rule:evenodd;fill-rule:evenodd;stroke-linejoin:round;stroke-miterlimit:2"
   id="svg20568"
   sodipodi:docname="emojis.svg"
   xmlns:inkscape="http://www.inkscape.org/namespaces/inkscape"
   xmlns:sodipodi="http://sodipodi.sourceforge.net/DTD/sodipodi-0.dtd"
   xmlns="http://www.w3.org/2000/svg"
   xmlns:svg="http://www.w3.org/2000/svg"><defs
     id="defs20572" /><sodipodi:namedview
     id="namedview20570"
     pagecolor="#505050"
     bordercolor="#eeeeee"
     borderopacity="1"
     inkscape:pageshadow="0"
     inkscape:pageopacity="0"
     inkscape:pagecheckerboard="0" /><g
     transform="matrix(0.24,0,0,0.24,-454.299,-297.3906)"
     id="g20566"><g
       transform="matrix(62.5,0,0,62.5,1885.1,1296.19)"
       id="g6714"><path
         d="M 1.248,-0.209 V 0.21 H 0.125 v -0.419 h 0.064 c 0.017,-0.012 0.034,-0.024 0.05,-0.036 0.017,-0.012 0.034,-0.023 0.052,-0.034 0.011,-0.02 0.021,-0.039 0.032,-0.056 0.01,-0.017 0.022,-0.032 0.035,-0.044 C 0.371,-0.391 0.387,-0.401 0.405,-0.408 0.422,-0.415 0.444,-0.419 0.47,-0.419 0.449,-0.441 0.433,-0.465 0.422,-0.493 0.411,-0.52 0.406,-0.549 0.406,-0.579 c 0,-0.035 0.008,-0.069 0.024,-0.101 0.009,-0.019 0.019,-0.039 0.029,-0.059 0.01,-0.019 0.021,-0.038 0.035,-0.054 0.022,-0.027 0.048,-0.047 0.078,-0.061 0.031,-0.015 0.063,-0.022 0.097,-0.022 0.029,0 0.056,0.005 0.081,0.015 0.025,0.01 0.049,0.024 0.07,0.043 0.009,-0.015 0.019,-0.028 0.031,-0.039 0.012,-0.012 0.025,-0.022 0.039,-0.03 0.015,-0.008 0.03,-0.015 0.046,-0.019 0.015,-0.004 0.032,-0.007 0.049,-0.007 0.015,0 0.029,0.002 0.044,0.006 0.014,0.004 0.027,0.009 0.041,0.016 0.008,-0.007 0.016,-0.012 0.025,-0.016 0.01,-0.004 0.02,-0.006 0.03,-0.006 0.012,0 0.023,0.003 0.034,0.008 0.011,0.005 0.02,0.011 0.028,0.019 0.008,0.008 0.014,0.018 0.019,0.029 0.005,0.01 0.007,0.022 0.007,0.034 v 0.298 c 0,0.015 -0.003,0.03 -0.008,0.045 -0.006,0.015 -0.014,0.027 -0.024,0.038 l -0.098,0.097 c 0.012,0.003 0.022,0.008 0.031,0.014 0.01,0.007 0.018,0.015 0.025,0.024 0.007,0.009 0.012,0.018 0.016,0.029 0.003,0.011 0.005,0.022 0.005,0.034 v 0.035 z"
         style="fill-rule:nonzero"
         id="path6698" /><path
         d="M 0.563,-0.438 C 0.55,-0.445 0.538,-0.453 0.527,-0.463 0.516,-0.473 0.507,-0.484 0.5,-0.496 0.492,-0.509 0.486,-0.522 0.482,-0.536 0.478,-0.55 0.476,-0.564 0.476,-0.58 c 0,-0.024 0.006,-0.047 0.017,-0.07 0.006,-0.012 0.011,-0.025 0.017,-0.038 0.006,-0.013 0.012,-0.025 0.02,-0.036 l 0.168,0.026 0.105,0.11 0.005,0.014 -0.033,0.065 C 0.759,-0.478 0.739,-0.456 0.713,-0.442 0.688,-0.428 0.659,-0.421 0.625,-0.421 0.618,-0.427 0.611,-0.431 0.603,-0.435 0.595,-0.438 0.587,-0.439 0.578,-0.439 c -0.005,0 -0.01,0 -0.015,0.001 z m 0.562,-0.404 c 0.005,0 0.009,0.001 0.012,0.005 0.004,0.003 0.006,0.007 0.006,0.012 v 0.298 c 0,0.007 -0.002,0.013 -0.004,0.019 -0.002,0.006 -0.006,0.012 -0.01,0.016 L 0.767,-0.13 C 0.756,-0.118 0.743,-0.108 0.729,-0.099 0.715,-0.089 0.702,-0.08 0.689,-0.07 0.68,-0.07 0.671,-0.073 0.662,-0.077 0.654,-0.082 0.647,-0.088 0.643,-0.097 L 0.616,-0.07 0.296,-0.145 0.371,-0.281 C 0.377,-0.292 0.384,-0.303 0.39,-0.312 0.397,-0.32 0.404,-0.328 0.412,-0.333 0.42,-0.339 0.429,-0.344 0.439,-0.347 0.449,-0.35 0.462,-0.351 0.476,-0.351 H 0.77 L 1.038,-0.547 V -0.702 L 1.111,-0.834 C 1.114,-0.84 1.118,-0.842 1.125,-0.842 Z"
         style="fill:#ffc83d;fill-rule:nonzero"
         id="path6700" /><path
         d="M 0.712,-0.597 0.625,-0.421 C 0.614,-0.422 0.604,-0.424 0.593,-0.427 0.583,-0.429 0.573,-0.433 0.563,-0.438 l 0.088,-0.176 z"
         style="fill:#ffffff;fill-rule:nonzero"
         id="path6702" /><path
         d="m 0.669,-0.807 c 0.022,0 0.042,0.004 0.061,0.012 0.02,0.009 0.036,0.02 0.051,0.034 0.014,0.015 0.025,0.031 0.033,0.051 0.009,0.019 0.013,0.039 0.013,0.061 0,0.014 -0.002,0.026 -0.006,0.038 -0.003,0.012 -0.008,0.024 -0.013,0.037 L 0.761,-0.6 0.709,-0.545 c -0.006,0.005 -0.011,0.01 -0.018,0.014 -0.006,0.003 -0.014,0.005 -0.022,0.005 -0.007,0 -0.014,-0.002 -0.02,-0.005 C 0.642,-0.533 0.637,-0.537 0.632,-0.542 0.627,-0.547 0.623,-0.552 0.62,-0.559 0.618,-0.565 0.616,-0.572 0.616,-0.579 V -0.678 L 0.53,-0.724 c 0.007,-0.013 0.015,-0.024 0.025,-0.035 0.01,-0.01 0.021,-0.019 0.033,-0.026 0.012,-0.007 0.025,-0.012 0.039,-0.016 0.014,-0.004 0.028,-0.006 0.042,-0.006 z"
         style="fill:#f03a17;fill-rule:nonzero"
         id="path6704" /><path
         d="m 0.195,-0.141 c 0.005,0 0.011,-0.001 0.017,-0.003 0.006,-0.002 0.011,-0.004 0.015,-0.007 L 0.398,-0.27 c 0.005,-0.003 0.009,-0.005 0.012,-0.007 0.004,-0.003 0.008,-0.004 0.013,-0.004 0.01,0 0.018,0.004 0.025,0.01 0.007,0.007 0.01,0.016 0.01,0.025 v 0.053 c 0,0.007 0.002,0.014 0.005,0.02 0.002,0.007 0.006,0.012 0.011,0.017 0.005,0.005 0.01,0.008 0.016,0.011 0.007,0.003 0.014,0.004 0.021,0.004 0.005,0 0.01,-0.001 0.016,-0.003 0.007,-0.002 0.012,-0.004 0.015,-0.007 L 0.714,-0.27 c 0.004,-0.003 0.008,-0.005 0.012,-0.007 0.004,-0.003 0.008,-0.004 0.013,-0.004 0.01,0 0.018,0.004 0.025,0.011 0.007,0.007 0.01,0.015 0.01,0.024 v 0.053 c 0,0.007 0.002,0.014 0.005,0.02 0.002,0.006 0.006,0.012 0.011,0.017 0.004,0.005 0.01,0.008 0.016,0.011 0.006,0.003 0.013,0.004 0.021,0.004 0.004,0 0.01,-0.001 0.016,-0.003 0.006,-0.002 0.011,-0.004 0.015,-0.007 L 1.03,-0.27 c 0.004,-0.003 0.008,-0.006 0.012,-0.008 0.004,-0.002 0.008,-0.003 0.013,-0.003 0.01,0 0.018,0.004 0.025,0.011 0.007,0.007 0.01,0.015 0.01,0.024 v 0.053 c 0,0.007 0.002,0.014 0.004,0.02 0.003,0.006 0.007,0.012 0.011,0.017 0.005,0.005 0.01,0.008 0.017,0.011 0.006,0.003 0.013,0.004 0.021,0.004 h 0.035 v 0.126 c 0,10e-4 -10e-4,0.005 -0.003,0.014 C 1.173,0.007 1.171,0.016 1.168,0.026 1.166,0.036 1.163,0.045 1.161,0.054 1.159,0.063 1.157,0.068 1.157,0.07 H 0.238 L 0.195,0.01 Z"
         style="fill:#00bcf2;fill-rule:nonzero"
         id="path6706" /><path
         d="M 1.09,0.035 C 1.097,0.035 1.104,0.033 1.112,0.03 1.12,0.026 1.128,0.021 1.136,0.016 1.144,0.01 1.152,0.005 1.159,0 1.166,-0.006 1.173,-0.011 1.178,-0.015 V 0.14 H 0.195 V 0.01 l 0.153,-0.106 c 0.003,-0.003 0.007,-0.005 0.01,-0.007 0.004,-0.002 0.008,-0.002 0.013,-0.002 0.009,0 0.018,0.003 0.025,0.01 0.006,0.007 0.01,0.015 0.01,0.025 v 0.052 c 0,0.008 10e-4,0.014 0.004,0.021 0.003,0.006 0.007,0.012 0.011,0.017 0.005,0.004 0.011,0.008 0.017,0.011 0.007,0.003 0.013,0.004 0.02,0.004 0.005,0 0.011,-0.001 0.017,-0.003 C 0.48,0.03 0.486,0.028 0.49,0.025 l 0.174,-0.121 c 0.003,-0.003 0.007,-0.005 0.01,-0.007 0.004,-0.002 0.008,-0.002 0.013,-0.002 0.009,0 0.018,0.003 0.024,0.01 0.007,0.007 0.011,0.015 0.011,0.025 v 0.052 c 0,0.008 0.001,0.014 0.004,0.021 0.003,0.006 0.006,0.012 0.011,0.017 0.005,0.004 0.011,0.008 0.017,0.011 0.006,0.003 0.013,0.004 0.02,0.004 0.005,0 0.01,-0.001 0.017,-0.003 C 0.797,0.03 0.802,0.028 0.806,0.025 l 0.171,-0.12 c 0.004,-0.002 0.008,-0.005 0.012,-0.007 0.004,-0.002 0.009,-0.003 0.013,-0.003 0.01,0 0.019,0.003 0.025,0.01 0.007,0.007 0.011,0.015 0.011,0.025 v 0.052 c 0,0.008 10e-4,0.014 0.004,0.021 0.003,0.006 0.006,0.012 0.011,0.017 0.005,0.004 0.011,0.008 0.017,0.011 0.006,0.003 0.013,0.004 0.02,0.004 z"
         style="fill:#69eaff;fill-rule:nonzero"
         id="path6708" /><path
         d="m 1.107,-0.72 c 0,0.016 -0.002,0.03 -0.007,0.044 -0.006,0.013 -0.013,0.026 -0.022,0.037 -0.01,0.011 -0.021,0.02 -0.034,0.027 C 1.031,-0.605 1.017,-0.6 1.002,-0.598 L 0.994,-0.607 C 0.993,-0.609 0.991,-0.611 0.989,-0.612 0.987,-0.613 0.986,-0.614 0.984,-0.614 0.982,-0.614 0.979,-0.612 0.975,-0.607 0.972,-0.603 0.969,-0.6 0.967,-0.598 0.952,-0.6 0.938,-0.605 0.925,-0.612 0.912,-0.619 0.901,-0.628 0.892,-0.639 0.883,-0.65 0.875,-0.663 0.87,-0.676 0.865,-0.69 0.862,-0.704 0.862,-0.72 c 0,-0.015 0.003,-0.03 0.008,-0.043 0.005,-0.014 0.013,-0.026 0.022,-0.037 0.01,-0.011 0.021,-0.02 0.034,-0.027 0.012,-0.007 0.026,-0.012 0.041,-0.014 l 0.009,0.007 c 0.002,0.002 0.003,0.003 0.005,0.004 0.002,0.001 0.003,0.001 0.004,0.001 0.003,0 0.006,-0.001 0.01,-0.004 0.003,-0.004 0.006,-0.006 0.007,-0.008 0.015,0.002 0.029,0.007 0.042,0.014 0.013,0.007 0.024,0.016 0.033,0.027 0.01,0.011 0.017,0.023 0.022,0.037 0.006,0.013 0.008,0.028 0.008,0.043 z"
         style="fill:#fff100;fill-rule:nonzero"
         id="path6710" /><path
         d="m 1.038,-0.737 c 0.004,0 0.009,0.001 0.012,0.005 0.003,0.003 0.005,0.007 0.005,0.012 0,0.005 -0.002,0.009 -0.005,0.013 -0.003,0.003 -0.008,0.005 -0.012,0.005 H 0.932 C 0.927,-0.702 0.923,-0.704 0.92,-0.707 0.916,-0.711 0.915,-0.715 0.915,-0.72 c 0,-0.005 0.001,-0.009 0.005,-0.012 0.003,-0.004 0.007,-0.005 0.012,-0.005 z m -0.053,0.07 c 0.005,0 0.009,0.002 0.012,0.005 0.004,0.004 0.005,0.008 0.005,0.013 v 0.051 c -0.005,0.001 -0.011,0.001 -0.017,0.001 -0.006,0 -0.012,0 -0.018,-0.001 v -0.051 c 0,-0.005 0.002,-0.009 0.005,-0.013 0.004,-0.003 0.008,-0.005 0.013,-0.005 z m 0,-0.106 C 0.98,-0.773 0.976,-0.775 0.973,-0.778 0.969,-0.781 0.967,-0.785 0.967,-0.79 v -0.051 c 0.003,-0.001 0.006,-0.001 0.009,-0.001 0.003,-0.001 0.006,-0.001 0.009,-0.001 0.003,0 0.006,0 0.009,0.001 0.003,0 0.006,0 0.008,0.001 v 0.051 c 0,0.005 -0.001,0.009 -0.005,0.012 -0.004,0.003 -0.008,0.005 -0.012,0.005 z"
         style="fill:#0063b1;fill-rule:nonzero"
         id="path6712" /></g></g></svg>
