<?xml version="1.0" encoding="UTF-8" standalone="no"?>
<svg
   width="16.844999"
   height="16.844999"
   viewBox="0 0 16.844999 16.844999"
   version="1.1"
   xml:space="preserve"
   style="clip-rule:evenodd;fill-rule:evenodd;stroke-linejoin:round;stroke-miterlimit:2"
   id="svg20568"
   sodipodi:docname="emojis.svg"
   xmlns:inkscape="http://www.inkscape.org/namespaces/inkscape"
   xmlns:sodipodi="http://sodipodi.sourceforge.net/DTD/sodipodi-0.dtd"
   xmlns="http://www.w3.org/2000/svg"
   xmlns:svg="http://www.w3.org/2000/svg"><defs
     id="defs20572" /><sodipodi:namedview
     id="namedview20570"
     pagecolor="#505050"
     bordercolor="#eeeeee"
     borderopacity="1"
     inkscape:pageshadow="0"
     inkscape:pageopacity="0"
     inkscape:pagecheckerboard="0" /><g
     transform="matrix(0.24,0,0,0.24,-495.4926,-297.3906)"
     id="g20566"><g
       transform="matrix(62.5,0,0,62.5,2056.74,1296.19)"
       id="g6750"><path
         d="m 1.248,-0.281 v 0.246 l -0.05,0.001 C 1.179,-0.034 1.161,-0.036 1.144,-0.041 1.128,-0.046 1.113,-0.055 1.1,-0.07 H 0.906 L 1.038,0.062 V 0.21 H 0.757 L 0.756,0.158 C 0.756,0.146 0.757,0.135 0.758,0.123 0.76,0.111 0.763,0.1 0.768,0.089 0.76,0.082 0.75,0.072 0.739,0.062 0.727,0.052 0.716,0.041 0.705,0.029 0.694,0.017 0.684,0.006 0.675,-0.006 0.666,-0.017 0.66,-0.028 0.656,-0.039 0.654,-0.047 0.652,-0.058 0.651,-0.071 0.65,-0.084 0.65,-0.098 0.65,-0.112 c 0,-0.016 0,-0.031 0.001,-0.047 0,-0.015 0,-0.028 0,-0.039 L 0.529,-0.32 C 0.515,-0.309 0.502,-0.3 0.488,-0.292 0.475,-0.285 0.459,-0.281 0.441,-0.281 H 0.23 C 0.216,-0.281 0.202,-0.284 0.189,-0.289 0.177,-0.295 0.166,-0.302 0.156,-0.312 0.146,-0.321 0.139,-0.333 0.133,-0.345 0.128,-0.358 0.125,-0.372 0.125,-0.386 0.125,-0.401 0.128,-0.415 0.133,-0.427 0.139,-0.44 0.146,-0.451 0.156,-0.46 0.166,-0.47 0.177,-0.477 0.189,-0.483 0.202,-0.488 0.216,-0.491 0.23,-0.491 H 0.36 C 0.348,-0.501 0.338,-0.512 0.331,-0.522 0.323,-0.532 0.317,-0.543 0.313,-0.555 0.308,-0.567 0.305,-0.579 0.303,-0.592 0.301,-0.605 0.3,-0.619 0.3,-0.635 c 0,-0.008 0,-0.015 0.001,-0.023 0,-0.008 0.001,-0.015 0.003,-0.023 0.003,-0.018 0.01,-0.035 0.019,-0.05 0.01,-0.016 0.022,-0.029 0.036,-0.04 0.013,-0.011 0.029,-0.02 0.046,-0.027 0.017,-0.006 0.035,-0.009 0.053,-0.009 0.026,0 0.049,0.005 0.071,0.016 0.022,0.011 0.04,0.027 0.055,0.047 C 0.583,-0.748 0.583,-0.753 0.582,-0.758 0.581,-0.763 0.581,-0.767 0.581,-0.772 c 0,-0.02 0.004,-0.038 0.011,-0.055 0.007,-0.017 0.017,-0.032 0.03,-0.045 0.013,-0.012 0.028,-0.022 0.045,-0.03 0.017,-0.007 0.035,-0.011 0.055,-0.011 0.019,0 0.037,0.004 0.054,0.012 0.017,0.007 0.032,0.017 0.044,0.03 0.013,0.013 0.023,0.028 0.031,0.045 0.007,0.017 0.011,0.035 0.011,0.054 v 0.14 c 0,0.015 -0.003,0.028 -0.007,0.038 C 0.85,-0.583 0.844,-0.573 0.836,-0.564 0.829,-0.555 0.82,-0.547 0.81,-0.539 0.8,-0.532 0.79,-0.524 0.78,-0.516 l 0.025,0.025 c 0.019,0.002 0.037,0.007 0.052,0.016 0.016,0.008 0.029,0.019 0.04,0.032 0.012,0.013 0.02,0.028 0.026,0.044 0.006,0.017 0.009,0.035 0.009,0.054 l 0.064,0.064 z"
         style="fill-rule:nonzero"
         id="path6734" /><path
         d="m 0.581,-0.526 c 0.009,0 0.018,0.003 0.025,0.01 0.007,0.007 0.01,0.015 0.01,0.024 0,0.012 -0.005,0.021 -0.014,0.029 l -0.14,0.105 C 0.456,-0.353 0.449,-0.351 0.441,-0.351 H 0.335 L 0.3,-0.369 0.265,-0.351 H 0.247 c -0.007,0 -0.013,0 -0.019,-0.001 C 0.222,-0.353 0.216,-0.354 0.211,-0.357 0.207,-0.359 0.203,-0.363 0.2,-0.367 0.197,-0.372 0.195,-0.378 0.195,-0.386 0.195,-0.394 0.197,-0.4 0.2,-0.405 0.203,-0.41 0.207,-0.413 0.211,-0.416 0.216,-0.418 0.222,-0.42 0.228,-0.42 0.234,-0.421 0.24,-0.421 0.247,-0.421 H 0.265 L 0.3,-0.404 0.335,-0.421 H 0.429 L 0.56,-0.52 C 0.566,-0.524 0.573,-0.526 0.581,-0.526 Z M 0.458,-0.724 c 0.009,0 0.017,0.003 0.024,0.007 0.007,0.005 0.014,0.01 0.019,0.017 0.006,0.007 0.011,0.014 0.016,0.022 0.004,0.008 0.008,0.015 0.011,0.022 0.005,0.008 0.007,0.016 0.008,0.022 0.001,0.006 0.002,0.014 0.002,0.023 0,0.007 0,0.013 -0.001,0.019 0,0.007 0,0.013 -0.001,0.02 -0.008,0.014 -0.019,0.025 -0.033,0.033 -0.013,0.008 -0.028,0.013 -0.045,0.013 -0.012,0 -0.023,-0.003 -0.034,-0.007 C 0.413,-0.538 0.404,-0.544 0.396,-0.552 0.388,-0.56 0.382,-0.569 0.377,-0.58 0.373,-0.59 0.371,-0.602 0.371,-0.614 v -0.035 c 0,-0.007 0,-0.013 0.002,-0.018 C 0.379,-0.674 0.386,-0.681 0.391,-0.688 0.397,-0.694 0.403,-0.7 0.409,-0.706 0.415,-0.711 0.422,-0.715 0.43,-0.719 0.438,-0.722 0.447,-0.724 0.458,-0.724 Z m 0.334,0.092 c 0,0.011 -0.004,0.02 -0.013,0.028 l -0.075,0.06 H 0.651 l 0.003,-0.05 0.068,-0.054 v -0.124 c 0,-0.01 0.003,-0.018 0.01,-0.025 0.007,-0.007 0.015,-0.01 0.025,-0.01 0.009,0 0.017,0.003 0.024,0.01 0.007,0.007 0.011,0.016 0.011,0.025 z m -0.07,0.422 h 0.105 v 0.14 L 0.774,-0.055 0.722,-0.07 Z M 0.827,-0.351 0.95,-0.228 0.923,-0.176 0.88,-0.158 0.827,-0.21 Z m 0.246,0.141 0.028,0.034 -0.028,0.035 H 0.967 L 0.95,-0.176 0.967,-0.21 Z M 0.792,-0.032 0.834,-0.042 0.887,0.01 0.88,0.045 0.837,0.06 0.785,0.007 Z"
         style="fill:#ffc83d;fill-rule:nonzero"
         id="path6736" /><path
         d="M 0.827,-0.05 0.834,-0.042 0.785,0.007 0.732,-0.045 C 0.725,-0.052 0.722,-0.061 0.722,-0.07 h 0.105 z m 0.14,-0.16 v 0.069 H 0.913 C 0.905,-0.141 0.899,-0.142 0.895,-0.146 0.89,-0.15 0.885,-0.154 0.88,-0.158 l 0.07,-0.07 z"
         style="fill:#757575;fill-rule:nonzero"
         id="path6738" /><path
         d="m 0.792,-0.421 c 0.01,0 0.019,0.001 0.027,0.005 0.009,0.004 0.016,0.009 0.023,0.015 0.006,0.007 0.011,0.014 0.014,0.023 0.004,0.008 0.006,0.017 0.006,0.027 v 0.175 H 0.792 L 0.774,-0.198 0.757,-0.176 H 0.722 V -0.227 L 0.537,-0.412 C 0.528,-0.42 0.522,-0.43 0.517,-0.44 0.513,-0.45 0.511,-0.462 0.511,-0.474 c 0,-0.012 0.002,-0.023 0.007,-0.034 0.004,-0.011 0.01,-0.02 0.018,-0.028 0.008,-0.008 0.018,-0.014 0.028,-0.019 0.011,-0.004 0.022,-0.007 0.035,-0.007 0.024,0 0.045,0.009 0.062,0.026 l 0.116,0.117 c 0.002,-0.001 0.005,-0.002 0.007,-0.002 0.003,0 0.005,0 0.008,0 z"
         style="fill:#e81224;fill-rule:nonzero"
         id="path6740" /><path
         d="m 0.792,-0.323 v 0.147 H 0.757 v -0.14 l -0.181,-0.181 0.025,-0.024 0.186,0.186 c 0.003,0.003 0.005,0.007 0.005,0.012 z M 0.887,0.01 0.967,0.091 V 0.14 H 0.827 C 0.827,0.128 0.83,0.117 0.838,0.108 0.846,0.098 0.855,0.092 0.867,0.089 L 0.837,0.06 Z m 0.291,-0.22 v 0.105 c -0.01,0 -0.018,-0.004 -0.025,-0.011 -0.007,-0.007 -0.01,-0.015 -0.01,-0.025 H 1.073 V -0.21 Z M 0.265,-0.421 h 0.07 v 0.07 h -0.07 z"
         style="fill:#ffffff;fill-rule:nonzero"
         id="path6742" /><path
         d="m 0.546,-0.492 c 0,-0.011 0.004,-0.02 0.013,-0.027 l 0.095,-0.075 0.05,0.05 -0.101,0.08 c -0.006,0.005 -0.014,0.007 -0.022,0.007 -0.009,0 -0.018,-0.003 -0.025,-0.01 -0.007,-0.007 -0.01,-0.015 -0.01,-0.025 z"
         style="fill:#e6808a;fill-rule:nonzero"
         id="path6744" /><path
         d="m 0.792,-0.772 c 0,0.01 -0.002,0.019 -0.006,0.027 -0.003,0.009 -0.008,0.016 -0.015,0.023 -0.006,0.006 -0.014,0.011 -0.022,0.014 -0.008,0.004 -0.018,0.006 -0.027,0.006 -0.01,0 -0.019,-0.002 -0.028,-0.006 C 0.686,-0.711 0.678,-0.716 0.672,-0.722 0.666,-0.729 0.661,-0.736 0.657,-0.745 0.653,-0.753 0.651,-0.762 0.651,-0.772 c 0,-0.01 0.002,-0.019 0.006,-0.027 0.003,-0.009 0.008,-0.016 0.015,-0.023 0.006,-0.006 0.013,-0.011 0.022,-0.015 0.009,-0.003 0.018,-0.005 0.028,-0.005 0.009,0 0.019,0.002 0.027,0.005 0.008,0.004 0.016,0.009 0.022,0.015 0.007,0.007 0.012,0.014 0.015,0.023 0.004,0.008 0.006,0.017 0.006,0.027 z"
         style="fill:#f03a17;fill-rule:nonzero"
         id="path6746" /><path
         d="m 0.458,-0.737 c 0.013,0 0.024,0.002 0.034,0.007 0.011,0.004 0.02,0.01 0.028,0.018 0.008,0.008 0.015,0.018 0.019,0.028 0.005,0.011 0.007,0.023 0.007,0.035 v 0.035 c 0,0.014 -0.004,0.028 -0.011,0.041 L 0.506,-0.602 C 0.508,-0.604 0.509,-0.606 0.51,-0.608 0.511,-0.61 0.511,-0.612 0.511,-0.614 0.511,-0.619 0.509,-0.623 0.506,-0.626 0.502,-0.63 0.498,-0.632 0.494,-0.632 c -0.005,0 -0.009,0.002 -0.013,0.006 L 0.441,-0.667 H 0.373 c 0.002,-0.01 0.005,-0.019 0.011,-0.028 0.005,-0.009 0.011,-0.016 0.019,-0.022 0.008,-0.006 0.016,-0.011 0.026,-0.015 0.009,-0.004 0.019,-0.005 0.029,-0.005 z"
         style="fill:#8e562e;fill-rule:nonzero"
         id="path6748" /></g></g></svg>
