<?xml version="1.0" encoding="UTF-8" standalone="no"?>
<svg
   width="16.844999"
   height="16.844999"
   viewBox="0 0 16.844999 16.844999"
   version="1.1"
   xml:space="preserve"
   style="clip-rule:evenodd;fill-rule:evenodd;stroke-linejoin:round;stroke-miterlimit:2"
   id="svg20568"
   sodipodi:docname="emojis.svg"
   xmlns:inkscape="http://www.inkscape.org/namespaces/inkscape"
   xmlns:sodipodi="http://sodipodi.sourceforge.net/DTD/sodipodi-0.dtd"
   xmlns="http://www.w3.org/2000/svg"
   xmlns:svg="http://www.w3.org/2000/svg"><defs
     id="defs20572" /><sodipodi:namedview
     id="namedview20570"
     pagecolor="#505050"
     bordercolor="#eeeeee"
     borderopacity="1"
     inkscape:pageshadow="0"
     inkscape:pageopacity="0"
     inkscape:pagecheckerboard="0" /><g
     transform="matrix(0.24,0,0,0.24,-486.915,-93.74892)"
     id="g20566"><g
       transform="matrix(62.5,0,0,62.5,2021,447.683)"
       id="g678"><path
         d="m 0.125,-0.351 c 0,-0.052 0.007,-0.102 0.02,-0.149 0.013,-0.048 0.032,-0.093 0.057,-0.135 0.024,-0.041 0.053,-0.079 0.088,-0.113 0.034,-0.034 0.072,-0.064 0.113,-0.088 0.042,-0.024 0.086,-0.043 0.134,-0.057 0.048,-0.013 0.098,-0.02 0.15,-0.02 0.051,0 0.101,0.007 0.149,0.02 0.048,0.014 0.092,0.033 0.134,0.057 0.041,0.024 0.079,0.054 0.113,0.088 0.035,0.034 0.064,0.072 0.088,0.113 0.025,0.042 0.044,0.087 0.057,0.135 0.013,0.047 0.02,0.097 0.02,0.149 0,0.052 -0.007,0.101 -0.02,0.149 C 1.215,-0.154 1.196,-0.109 1.171,-0.068 1.147,-0.026 1.118,0.012 1.083,0.046 1.049,0.08 1.011,0.109 0.97,0.134 0.928,0.158 0.884,0.177 0.836,0.19 0.788,0.204 0.738,0.21 0.687,0.21 0.635,0.21 0.585,0.204 0.537,0.19 0.489,0.177 0.445,0.158 0.403,0.134 0.362,0.109 0.324,0.08 0.29,0.046 0.255,0.012 0.226,-0.026 0.202,-0.068 0.177,-0.109 0.158,-0.154 0.145,-0.202 0.132,-0.25 0.125,-0.299 0.125,-0.351 Z"
         style="fill-rule:nonzero"
         id="path670" /><path
         d="m 0.195,-0.351 c 0,-0.045 0.006,-0.089 0.018,-0.131 0.012,-0.042 0.028,-0.081 0.049,-0.117 0.022,-0.037 0.047,-0.07 0.077,-0.099 0.03,-0.03 0.063,-0.056 0.099,-0.077 0.037,-0.021 0.076,-0.038 0.118,-0.05 0.042,-0.011 0.085,-0.017 0.131,-0.017 0.045,0 0.088,0.006 0.13,0.017 0.042,0.012 0.081,0.029 0.118,0.05 0.036,0.021 0.069,0.047 0.099,0.077 0.03,0.029 0.055,0.062 0.077,0.099 0.021,0.036 0.037,0.075 0.049,0.117 0.012,0.042 0.018,0.086 0.018,0.131 0,0.045 -0.006,0.089 -0.018,0.131 -0.012,0.041 -0.028,0.081 -0.049,0.117 -0.022,0.036 -0.047,0.07 -0.077,0.099 C 1.004,0.026 0.971,0.052 0.935,0.073 0.898,0.094 0.859,0.111 0.817,0.123 0.775,0.134 0.732,0.14 0.687,0.14 0.641,0.14 0.598,0.134 0.556,0.123 0.514,0.111 0.475,0.094 0.438,0.073 0.402,0.052 0.369,0.026 0.339,-0.004 0.309,-0.033 0.284,-0.067 0.262,-0.103 0.241,-0.139 0.225,-0.179 0.213,-0.22 0.201,-0.262 0.195,-0.306 0.195,-0.351 Z"
         style="fill:#ffc83d;fill-rule:nonzero"
         id="path672" /><path
         d="m 0.581,-0.737 c 0.009,0 0.018,0.003 0.025,0.01 0.007,0.007 0.01,0.015 0.01,0.025 0,0.01 -0.003,0.018 -0.01,0.025 -0.007,0.007 -0.015,0.01 -0.025,0.01 -0.028,0 -0.056,0.005 -0.082,0.014 -0.027,0.01 -0.051,0.023 -0.073,0.041 -0.005,0.005 -0.01,0.009 -0.015,0.014 -0.004,0.005 -0.009,0.01 -0.014,0.015 -0.008,0.007 -0.017,0.011 -0.026,0.011 -0.01,0 -0.018,-0.003 -0.025,-0.01 -0.007,-0.007 -0.011,-0.015 -0.011,-0.025 0,-0.008 0.003,-0.016 0.009,-0.023 0.014,-0.017 0.03,-0.032 0.049,-0.046 0.018,-0.013 0.038,-0.024 0.058,-0.033 0.021,-0.01 0.042,-0.017 0.064,-0.021 0.022,-0.005 0.044,-0.007 0.066,-0.007 z m 0.211,0 c 0.022,0 0.044,0.002 0.066,0.007 0.022,0.004 0.043,0.011 0.064,0.021 0.02,0.009 0.04,0.02 0.058,0.033 0.018,0.014 0.034,0.029 0.049,0.046 0.006,0.007 0.009,0.015 0.009,0.023 0,0.01 -0.004,0.018 -0.011,0.025 -0.006,0.007 -0.015,0.01 -0.024,0.01 -0.01,0 -0.019,-0.004 -0.027,-0.011 C 0.971,-0.588 0.966,-0.593 0.962,-0.598 0.957,-0.603 0.952,-0.607 0.947,-0.612 0.925,-0.63 0.901,-0.643 0.874,-0.653 0.848,-0.662 0.82,-0.667 0.792,-0.667 c -0.01,0 -0.018,-0.003 -0.025,-0.01 -0.007,-0.007 -0.01,-0.015 -0.01,-0.025 0,-0.01 0.003,-0.018 0.01,-0.025 0.007,-0.007 0.016,-0.01 0.025,-0.01 z"
         style="fill:#d48c00;fill-rule:nonzero"
         id="path674" /><path
         d="m 1.064,-0.439 c 0,0.025 -0.005,0.049 -0.015,0.072 -0.009,0.022 -0.023,0.041 -0.039,0.058 -0.017,0.017 -0.037,0.03 -0.059,0.04 -0.022,0.01 -0.046,0.015 -0.072,0.015 -0.02,0 -0.039,-0.004 -0.058,-0.012 C 0.803,-0.274 0.787,-0.285 0.774,-0.298 0.761,-0.312 0.75,-0.327 0.742,-0.346 0.734,-0.364 0.73,-0.383 0.73,-0.404 c 0,-0.018 0.004,-0.035 0.011,-0.051 0.007,-0.016 0.016,-0.03 0.028,-0.042 0.012,-0.012 0.026,-0.021 0.042,-0.028 0.015,-0.007 0.033,-0.01 0.051,-0.01 0.013,0 0.026,0.002 0.037,0.007 0.012,0.005 0.022,0.012 0.031,0.021 0.009,0.009 0.016,0.019 0.021,0.03 0.005,0.012 0.007,0.025 0.007,0.038 0,0.011 -0.002,0.021 -0.006,0.031 C 0.948,-0.399 0.943,-0.39 0.936,-0.383 0.928,-0.376 0.92,-0.37 0.91,-0.366 0.901,-0.362 0.891,-0.36 0.88,-0.36 0.875,-0.36 0.87,-0.361 0.864,-0.362 0.858,-0.364 0.852,-0.366 0.847,-0.369 0.841,-0.372 0.837,-0.376 0.833,-0.381 0.83,-0.385 0.828,-0.391 0.828,-0.396 c 0,-0.008 0.003,-0.014 0.008,-0.019 0.005,-0.005 0.011,-0.008 0.018,-0.008 0.004,0 0.008,0.001 0.01,0.002 0.002,0.001 0.004,0.002 0.006,0.003 0.002,0.001 0.003,0.003 0.005,0.004 0.001,0.001 0.002,0.001 0.004,0.001 0.008,0 0.014,-0.002 0.019,-0.007 0.005,-0.005 0.008,-0.011 0.008,-0.019 0,-0.012 -0.004,-0.023 -0.013,-0.031 -0.008,-0.008 -0.019,-0.012 -0.031,-0.012 -0.011,0 -0.021,0.002 -0.031,0.006 -0.009,0.004 -0.018,0.009 -0.025,0.017 -0.007,0.007 -0.013,0.015 -0.017,0.025 -0.004,0.009 -0.006,0.019 -0.006,0.03 0,0.014 0.003,0.026 0.008,0.038 0.005,0.012 0.012,0.022 0.02,0.031 0.009,0.008 0.019,0.015 0.031,0.02 0.012,0.005 0.024,0.008 0.037,0.008 0.019,0 0.036,-0.004 0.052,-0.01 0.016,-0.007 0.03,-0.017 0.042,-0.029 0.012,-0.012 0.021,-0.026 0.028,-0.042 0.007,-0.016 0.01,-0.033 0.01,-0.051 C 1.011,-0.45 1.01,-0.461 1.008,-0.472 1.006,-0.483 1.002,-0.493 0.998,-0.504 0.997,-0.507 0.996,-0.51 0.996,-0.514 c 0,-0.008 0.003,-0.014 0.008,-0.019 0.005,-0.005 0.011,-0.007 0.018,-0.007 0.011,0 0.019,0.005 0.024,0.016 0.007,0.012 0.011,0.026 0.014,0.041 0.003,0.016 0.004,0.03 0.004,0.044 z m -0.57,-0.114 c 0.02,0 0.039,0.004 0.058,0.012 0.018,0.008 0.033,0.018 0.047,0.032 0.013,0.013 0.024,0.029 0.032,0.047 0.008,0.018 0.012,0.038 0.012,0.058 0,0.018 -0.004,0.036 -0.011,0.051 -0.007,0.016 -0.016,0.03 -0.028,0.042 -0.012,0.012 -0.026,0.022 -0.042,0.029 -0.015,0.007 -0.033,0.01 -0.051,0.01 -0.013,0 -0.026,-0.002 -0.037,-0.008 C 0.462,-0.285 0.452,-0.292 0.443,-0.3 0.434,-0.309 0.427,-0.319 0.422,-0.331 0.417,-0.343 0.415,-0.355 0.415,-0.369 c 0,-0.01 0.002,-0.021 0.006,-0.03 0.004,-0.01 0.009,-0.018 0.016,-0.025 0.007,-0.007 0.016,-0.013 0.025,-0.017 0.01,-0.005 0.02,-0.007 0.031,-0.007 0.005,0 0.01,0.001 0.017,0.003 0.006,0.001 0.011,0.004 0.016,0.007 0.006,0.003 0.01,0.007 0.014,0.011 0.003,0.005 0.005,0.01 0.005,0.016 0,0.007 -0.003,0.013 -0.008,0.019 -0.005,0.005 -0.011,0.008 -0.019,0.008 -0.007,0 -0.014,-0.003 -0.018,-0.009 -0.001,0 -0.002,-0.001 -0.003,-0.001 -0.001,-0.001 -0.002,-0.001 -0.003,-0.001 -0.008,0 -0.014,0.003 -0.019,0.008 -0.005,0.005 -0.008,0.011 -0.008,0.018 0,0.013 0.005,0.023 0.013,0.032 0.008,0.008 0.019,0.012 0.031,0.012 0.011,0 0.021,-0.002 0.031,-0.006 C 0.551,-0.335 0.56,-0.341 0.567,-0.348 0.574,-0.355 0.58,-0.364 0.584,-0.373 0.588,-0.383 0.59,-0.393 0.59,-0.404 0.59,-0.417 0.587,-0.43 0.582,-0.441 0.577,-0.453 0.57,-0.463 0.562,-0.472 0.553,-0.481 0.543,-0.487 0.531,-0.492 0.52,-0.497 0.507,-0.5 0.494,-0.5 0.475,-0.5 0.458,-0.497 0.442,-0.49 0.426,-0.483 0.412,-0.474 0.4,-0.462 0.388,-0.45 0.379,-0.436 0.372,-0.42 c -0.007,0.016 -0.01,0.033 -0.01,0.051 0,0.012 0.001,0.023 0.003,0.034 0.003,0.01 0.006,0.021 0.01,0.031 0.001,0.003 0.002,0.007 0.002,0.011 0,0.007 -0.003,0.013 -0.008,0.018 -0.005,0.005 -0.011,0.008 -0.018,0.008 -0.005,0 -0.01,-0.002 -0.014,-0.004 C 0.333,-0.274 0.329,-0.278 0.327,-0.283 0.32,-0.296 0.316,-0.309 0.313,-0.325 0.31,-0.34 0.309,-0.355 0.309,-0.369 c 0,-0.025 0.005,-0.049 0.015,-0.071 0.009,-0.023 0.023,-0.042 0.039,-0.059 0.017,-0.017 0.036,-0.03 0.059,-0.039 0.022,-0.01 0.046,-0.015 0.072,-0.015 z m 0.087,0.448 c 0,-0.015 0.003,-0.029 0.008,-0.041 0.006,-0.013 0.013,-0.024 0.023,-0.034 0.01,-0.009 0.021,-0.017 0.034,-0.022 0.012,-0.006 0.026,-0.008 0.041,-0.008 0.014,0 0.028,0.002 0.041,0.008 0.012,0.005 0.023,0.013 0.033,0.022 0.01,0.01 0.017,0.021 0.023,0.034 0.005,0.012 0.008,0.026 0.008,0.041 v 0.035 c 0,0.014 -0.003,0.028 -0.008,0.041 C 0.778,-0.017 0.771,-0.005 0.761,0.004 0.751,0.014 0.74,0.021 0.728,0.027 0.715,0.032 0.701,0.035 0.687,0.035 0.672,0.035 0.658,0.032 0.646,0.027 0.633,0.021 0.622,0.014 0.612,0.004 0.602,-0.005 0.595,-0.017 0.589,-0.029 0.584,-0.042 0.581,-0.056 0.581,-0.07 Z"
         style="fill-rule:nonzero"
         id="path676" /></g></g></svg>
