<?xml version="1.0" encoding="UTF-8" standalone="no"?>
<svg
   width="14.73"
   height="16.844999"
   viewBox="0 0 14.73 16.844999"
   version="1.1"
   xml:space="preserve"
   style="clip-rule:evenodd;fill-rule:evenodd;stroke-linejoin:round;stroke-miterlimit:2"
   id="svg20568"
   sodipodi:docname="emojis.svg"
   xmlns:inkscape="http://www.inkscape.org/namespaces/inkscape"
   xmlns:sodipodi="http://sodipodi.sourceforge.net/DTD/sodipodi-0.dtd"
   xmlns="http://www.w3.org/2000/svg"
   xmlns:svg="http://www.w3.org/2000/svg"><defs
     id="defs20572" /><sodipodi:namedview
     id="namedview20570"
     pagecolor="#505050"
     bordercolor="#eeeeee"
     borderopacity="1"
     inkscape:pageshadow="0"
     inkscape:pageopacity="0"
     inkscape:pagecheckerboard="0" /><g
     transform="matrix(0.24,0,0,0.24,-557.2782,-297.3906)"
     id="g20566"><g
       transform="matrix(62.5,0,0,62.5,2314.18,1296.19)"
       id="g6806"><path
         d="m 0.646,0.21 c -0.005,0 -0.01,0 -0.015,-0.002 C 0.626,0.207 0.621,0.206 0.616,0.206 0.612,0.206 0.607,0.207 0.602,0.208 0.597,0.21 0.592,0.21 0.587,0.21 H 0.511 C 0.494,0.21 0.477,0.207 0.461,0.201 0.445,0.195 0.431,0.186 0.418,0.175 0.406,0.164 0.395,0.151 0.387,0.136 0.379,0.121 0.374,0.105 0.372,0.087 L 0.238,0.02 C 0.22,0.011 0.205,-0.001 0.192,-0.016 0.18,-0.03 0.171,-0.047 0.166,-0.067 0.155,-0.076 0.148,-0.085 0.142,-0.094 0.137,-0.104 0.133,-0.113 0.13,-0.124 0.128,-0.134 0.126,-0.144 0.126,-0.155 0.125,-0.166 0.125,-0.178 0.125,-0.19 v -0.003 c 0,-0.017 0.003,-0.032 0.009,-0.047 0.006,-0.015 0.015,-0.028 0.027,-0.04 l 0.21,-0.21 v -0.177 c 0,-0.034 0.006,-0.066 0.019,-0.095 0.013,-0.03 0.03,-0.056 0.053,-0.079 0.022,-0.022 0.048,-0.039 0.078,-0.052 0.03,-0.013 0.061,-0.02 0.095,-0.02 0.034,0 0.066,0.007 0.096,0.02 0.029,0.013 0.055,0.03 0.078,0.052 0.022,0.023 0.04,0.049 0.053,0.079 0.012,0.029 0.019,0.061 0.019,0.095 v 0.177 l 0.21,0.21 c 0.009,0.009 0.015,0.018 0.02,0.027 0.005,0.009 0.009,0.018 0.011,0.027 0.002,0.01 0.004,0.02 0.004,0.03 0,0.01 0,0.021 0,0.032 v 0.006 c 0,0.017 -0.003,0.034 -0.01,0.05 C 1.09,-0.092 1.08,-0.079 1.067,-0.067 1.061,-0.048 1.052,-0.031 1.04,-0.016 1.028,-0.001 1.013,0.011 0.995,0.02 L 0.861,0.087 C 0.859,0.105 0.854,0.121 0.845,0.136 0.837,0.151 0.827,0.164 0.814,0.175 0.802,0.186 0.788,0.195 0.772,0.201 0.756,0.207 0.739,0.21 0.722,0.21 Z"
         style="fill-rule:nonzero"
         id="path6792" /><path
         d="M 0.792,0.035 H 0.441 v -0.14 h 0.035 l 0.14,-0.071 0.141,0.071 h 0.035 z"
         style="fill:#0078d7;fill-rule:nonzero"
         id="path6794" /><path
         d="m 0.932,-0.175 c 0.01,0 0.019,0.001 0.027,0.005 0.009,0.004 0.016,0.009 0.023,0.015 0.006,0.006 0.011,0.014 0.015,0.022 0.004,0.009 0.005,0.018 0.005,0.027 0,0.014 -0.003,0.026 -0.01,0.038 -0.007,0.011 -0.017,0.02 -0.029,0.026 L 0.613,0.133 C 0.608,0.135 0.603,0.137 0.598,0.138 0.593,0.139 0.587,0.14 0.582,0.14 H 0.511 C 0.501,0.14 0.492,0.138 0.484,0.135 0.475,0.131 0.468,0.126 0.462,0.12 0.455,0.114 0.45,0.106 0.447,0.098 0.443,0.089 0.441,0.08 0.441,0.07 0.441,0.061 0.443,0.051 0.446,0.043 0.45,0.035 0.455,0.027 0.461,0.021 0.468,0.014 0.475,0.009 0.484,0.006 0.492,0.002 0.501,0 0.511,0 h 0.053 l 0.337,-0.168 c 0.01,-0.005 0.02,-0.007 0.031,-0.007 z"
         style="fill:#eba300;fill-rule:nonzero"
         id="path6796" /><path
         d="M 0.792,-0.421 H 0.441 v -0.246 c 0,-0.024 0.004,-0.047 0.014,-0.068 0.009,-0.021 0.021,-0.04 0.037,-0.056 0.016,-0.016 0.035,-0.028 0.056,-0.037 0.021,-0.01 0.044,-0.014 0.068,-0.014 0.024,0 0.047,0.004 0.068,0.013 0.022,0.01 0.04,0.022 0.056,0.038 0.016,0.016 0.029,0.034 0.038,0.056 0.009,0.021 0.014,0.044 0.014,0.068 z"
         style="fill:#8e562e;fill-rule:nonzero"
         id="path6798" /><path
         d="m 0.722,-0.491 c 0.002,0 0.005,0 0.008,0.001 0.003,0.001 0.006,0.001 0.009,0.002 0.004,0 0.008,0 0.011,0 0.003,0 0.006,0 0.009,0.001 0.003,0 0.005,0.001 0.008,0.003 0.003,0.002 0.006,0.004 0.009,0.008 l 0.246,0.246 c 0.01,0.01 0.016,0.022 0.016,0.037 v 0.035 c 0,0.007 -0.002,0.014 -0.005,0.02 C 1.031,-0.132 1.027,-0.126 1.022,-0.121 1.017,-0.116 1.011,-0.112 1.005,-0.11 0.999,-0.107 0.992,-0.105 0.985,-0.105 0.977,-0.105 0.97,-0.107 0.964,-0.11 0.958,-0.112 0.952,-0.116 0.948,-0.121 0.943,-0.126 0.939,-0.131 0.936,-0.137 0.934,-0.144 0.932,-0.151 0.932,-0.158 V -0.171 L 0.752,-0.351 0.616,-0.248 0.48,-0.351 0.305,-0.175 c 0.01,0 0.019,0.003 0.027,0.007 L 0.668,0 H 0.722 C 0.731,0 0.741,0.002 0.749,0.006 0.757,0.009 0.765,0.014 0.771,0.021 0.778,0.027 0.783,0.035 0.786,0.043 0.79,0.051 0.792,0.061 0.792,0.07 0.792,0.08 0.79,0.089 0.786,0.098 0.783,0.106 0.778,0.114 0.771,0.12 0.765,0.126 0.757,0.131 0.749,0.135 0.741,0.138 0.731,0.14 0.722,0.14 H 0.651 C 0.64,0.14 0.63,0.138 0.62,0.133 L 0.269,-0.042 C 0.257,-0.048 0.248,-0.057 0.241,-0.068 0.234,-0.079 0.23,-0.091 0.23,-0.104 V -0.108 C 0.22,-0.112 0.212,-0.118 0.205,-0.127 0.199,-0.137 0.195,-0.147 0.195,-0.158 v -0.024 c 0,-0.009 0.001,-0.017 0.003,-0.026 0.001,-0.008 0.006,-0.016 0.012,-0.022 l 0.246,-0.246 c 0.006,-0.006 0.01,-0.009 0.014,-0.01 0.004,-0.001 0.008,-0.002 0.013,-0.002 H 0.49 c 0.003,0 0.006,0 0.009,0 0.002,-0.001 0.004,-0.001 0.006,-0.002 0.002,-0.001 0.004,-0.001 0.006,-0.001 z M 0.645,-0.708 c 0.016,0.013 0.033,0.023 0.053,0.03 0.019,0.007 0.038,0.011 0.059,0.011 0,0.02 -0.004,0.038 -0.011,0.055 -0.007,0.017 -0.017,0.032 -0.03,0.045 -0.013,0.012 -0.028,0.022 -0.045,0.03 C 0.654,-0.53 0.636,-0.526 0.616,-0.526 0.597,-0.526 0.578,-0.53 0.562,-0.537 0.545,-0.545 0.53,-0.555 0.517,-0.567 0.504,-0.58 0.494,-0.595 0.487,-0.612 0.48,-0.629 0.476,-0.647 0.476,-0.667 c 0.021,0 0.04,-0.005 0.058,-0.014 0.018,-0.01 0.034,-0.023 0.047,-0.039 v 0.053 c 0.014,0 0.027,-0.004 0.038,-0.011 0.012,-0.008 0.02,-0.018 0.026,-0.03 z"
         style="fill:#ffc83d;fill-rule:nonzero"
         id="path6800" /><path
         d="m 0.757,-0.491 v 0.386 H 0.476 v -0.386 h 0.035 v 0.034 c 0,0.015 0.003,0.029 0.009,0.041 0.005,0.013 0.013,0.024 0.022,0.034 0.009,0.01 0.02,0.017 0.033,0.023 0.013,0.005 0.027,0.008 0.041,0.008 0.015,0 0.029,-0.003 0.041,-0.008 0.013,-0.006 0.024,-0.013 0.034,-0.023 0.009,-0.01 0.017,-0.021 0.022,-0.034 0.006,-0.012 0.009,-0.026 0.009,-0.041 v -0.034 z"
         style="fill:#00cea6;fill-rule:nonzero"
         id="path6802" /><path
         d="m 0.651,-0.649 c 0,-0.005 0.002,-0.009 0.005,-0.013 0.004,-0.003 0.008,-0.005 0.013,-0.005 0.005,0 0.009,0.002 0.012,0.005 0.004,0.004 0.006,0.008 0.006,0.013 0,0.004 -0.002,0.009 -0.006,0.012 -0.003,0.003 -0.007,0.005 -0.012,0.005 -0.005,0 -0.009,-0.002 -0.013,-0.005 C 0.653,-0.64 0.651,-0.645 0.651,-0.649 Z m -0.105,0 c 0,-0.005 0.002,-0.009 0.005,-0.013 0.004,-0.003 0.008,-0.005 0.012,-0.005 0.005,0 0.01,0.002 0.013,0.005 0.003,0.004 0.005,0.008 0.005,0.013 0,0.004 -0.002,0.009 -0.005,0.012 -0.003,0.003 -0.008,0.005 -0.013,0.005 -0.004,0 -0.008,-0.002 -0.012,-0.005 C 0.548,-0.641 0.546,-0.645 0.546,-0.649 Z"
         style="fill-rule:nonzero"
         id="path6804" /></g></g></svg>
