<?xml version="1.0" encoding="UTF-8" standalone="no"?>
<svg
   width="16.844999"
   height="11.58"
   viewBox="0 0 16.844999 11.58"
   version="1.1"
   xml:space="preserve"
   style="clip-rule:evenodd;fill-rule:evenodd;stroke-linejoin:round;stroke-miterlimit:2"
   id="svg20568"
   sodipodi:docname="emojis.svg"
   xmlns:inkscape="http://www.inkscape.org/namespaces/inkscape"
   xmlns:sodipodi="http://sodipodi.sourceforge.net/DTD/sodipodi-0.dtd"
   xmlns="http://www.w3.org/2000/svg"
   xmlns:svg="http://www.w3.org/2000/svg"><defs
     id="defs20572" /><sodipodi:namedview
     id="namedview20570"
     pagecolor="#505050"
     bordercolor="#eeeeee"
     borderopacity="1"
     inkscape:pageshadow="0"
     inkscape:pageopacity="0"
     inkscape:pagecheckerboard="0" /><g
     transform="matrix(0.24,0,0,0.24,-596.367,-302.6556)"
     id="g20566"><g
       transform="matrix(62.5,0,0,62.5,2477.05,1296.19)"
       id="g6842"><path
         d="M 0.365,0.21 H 0.195 V 0.14 H 0.169 L 0.125,-0.562 h 0.206 l 0.009,0.141 0.09,-0.001 c 0.009,0 0.019,0.002 0.029,0.007 0.009,0.004 0.019,0.01 0.027,0.017 0.009,0.006 0.017,0.014 0.024,0.023 0.007,0.008 0.013,0.016 0.017,0.024 h 0.511 c 0.015,0 0.029,0.003 0.043,0.009 0.013,0.006 0.025,0.015 0.035,0.027 0.014,0.001 0.027,0.004 0.038,0.01 0.012,0.006 0.022,0.014 0.031,0.023 0.009,0.01 0.016,0.021 0.021,0.033 0.004,0.012 0.007,0.025 0.007,0.039 v 0.069 H 1.248 V 0.14 H 1.213 V 0.21 H 1.043 L 0.973,0.14 H 0.435 Z"
         style="fill-rule:nonzero"
         id="path6826" /><path
         d="M 1.143,0.07 V 0.14 H 1.073 L 1.002,0.07 1.079,0.038 Z m -0.878,0 0.063,-0.02 0.078,0.02 -0.071,0.07 h -0.07 z"
         style="fill:#383838;fill-rule:nonzero"
         id="path6828" /><path
         d="m 0.406,-0.21 c 0.015,-0.01 0.028,-0.02 0.039,-0.032 0.01,-0.012 0.021,-0.025 0.031,-0.039 h 0.105 l 0.04,0.084 -0.04,0.11 H 0.429 V -0.21 Z"
         style="fill:#f4abba;fill-rule:nonzero"
         id="path6830" /><path
         d="m 1.091,-0.246 c 0.006,0 0.012,0.001 0.018,0.001 0.007,0.001 0.012,0.003 0.017,0.005 0.005,0.002 0.009,0.006 0.012,0.011 0.003,0.004 0.005,0.011 0.005,0.019 v 0.105 L 1.094,-0.082 H 0.581 v -0.199 h 0.457 c 0.009,0 0.017,0.004 0.024,0.011 0.007,0.007 0.011,0.015 0.011,0.024 z"
         style="fill:#e81224;fill-rule:nonzero"
         id="path6832" /><path
         d="m 0.476,-0.281 c 0,0.01 -0.002,0.019 -0.006,0.028 C 0.467,-0.245 0.462,-0.238 0.455,-0.231 0.449,-0.225 0.442,-0.22 0.433,-0.216 0.425,-0.212 0.416,-0.21 0.406,-0.21 0.396,-0.21 0.387,-0.212 0.38,-0.216 0.373,-0.219 0.367,-0.224 0.362,-0.23 0.358,-0.236 0.354,-0.243 0.352,-0.251 0.35,-0.259 0.349,-0.267 0.349,-0.276 c 0,-0.008 0,-0.014 0.001,-0.019 0.001,-0.006 0.002,-0.011 0.004,-0.016 0.001,-0.005 0.003,-0.01 0.006,-0.015 0.003,-0.005 0.006,-0.01 0.011,-0.016 0.011,-0.006 0.023,-0.009 0.035,-0.009 0.01,0 0.019,0.002 0.027,0.006 0.009,0.003 0.016,0.008 0.022,0.015 0.007,0.006 0.012,0.013 0.015,0.022 0.004,0.008 0.006,0.017 0.006,0.027 z"
         style="fill:#ffc83d;fill-rule:nonzero"
         id="path6834" /><path
         d="m 0.371,-0.281 0.064,0.064 C 0.424,-0.213 0.415,-0.21 0.406,-0.21 0.396,-0.21 0.387,-0.212 0.378,-0.216 0.37,-0.22 0.363,-0.225 0.356,-0.231 0.35,-0.238 0.345,-0.245 0.341,-0.253 0.337,-0.262 0.335,-0.271 0.335,-0.281 c 0,-0.012 0.004,-0.024 0.01,-0.035 0.007,-0.011 0.015,-0.019 0.026,-0.026 z"
         style="fill:#8e562e;fill-rule:nonzero"
         id="path6836" /><path
         d="m 0.265,-0.21 c 0,-0.01 0.004,-0.018 0.011,-0.025 0.007,-0.007 0.015,-0.011 0.024,-0.011 h 0.106 c 0.01,0 0.018,0.004 0.025,0.011 0.006,0.006 0.01,0.015 0.01,0.025 v 0.105 h 0.702 v 0.054 H 0.265 Z"
         style="fill:#ffffff;fill-rule:nonzero"
         id="path6838" /><path
         d="M 0.292,-0.07 H 1.178 V 0.07 H 0.23 L 0.195,-0.491 h 0.07 z"
         style="fill:#613d30;fill-rule:nonzero"
         id="path6840" /></g></g></svg>
