<?xml version="1.0" encoding="UTF-8" standalone="no"?>
<svg
   width="16.844999"
   height="13.68"
   viewBox="0 0 16.844999 13.68"
   version="1.1"
   xml:space="preserve"
   style="clip-rule:evenodd;fill-rule:evenodd;stroke-linejoin:round;stroke-miterlimit:2"
   id="svg20568"
   sodipodi:docname="emojis.svg"
   xmlns:inkscape="http://www.inkscape.org/namespaces/inkscape"
   xmlns:sodipodi="http://sodipodi.sourceforge.net/DTD/sodipodi-0.dtd"
   xmlns="http://www.w3.org/2000/svg"
   xmlns:svg="http://www.w3.org/2000/svg"><defs
     id="defs20572" /><sodipodi:namedview
     id="namedview20570"
     pagecolor="#505050"
     bordercolor="#eeeeee"
     borderopacity="1"
     inkscape:pageshadow="0"
     inkscape:pageopacity="0"
     inkscape:pagecheckerboard="0" /><g
     transform="matrix(0.24,0,0,0.24,-616.9638,-298.9806)"
     id="g20566"><g
       transform="matrix(62.5,0,0,62.5,2562.87,1296.19)"
       id="g6850"><path
         d="M 0.632,0.105 C 0.618,0.105 0.605,0.103 0.594,0.1 0.582,0.096 0.572,0.092 0.563,0.086 0.553,0.08 0.544,0.073 0.535,0.065 0.526,0.057 0.517,0.049 0.508,0.039 L 0.504,0.035 C 0.486,0.034 0.47,0.03 0.454,0.023 0.438,0.016 0.424,0.006 0.412,-0.006 L 0.238,-0.18 C 0.228,-0.19 0.22,-0.201 0.214,-0.214 0.209,-0.226 0.206,-0.239 0.206,-0.253 c 0,-0.002 0,-0.004 0,-0.007 0,-0.002 0.001,-0.004 0.001,-0.006 -0.006,-0.01 -0.01,-0.02 -0.013,-0.03 -0.003,-0.011 -0.005,-0.022 -0.005,-0.033 0,-0.018 0.005,-0.036 0.013,-0.053 C 0.193,-0.391 0.184,-0.4 0.175,-0.408 0.166,-0.416 0.157,-0.425 0.15,-0.434 0.143,-0.444 0.137,-0.454 0.132,-0.465 0.127,-0.476 0.125,-0.488 0.125,-0.502 c 0,-0.015 0.003,-0.028 0.008,-0.04 0.005,-0.012 0.013,-0.024 0.023,-0.034 L 0.34,-0.774 c 0.01,-0.011 0.021,-0.019 0.035,-0.025 0.013,-0.005 0.027,-0.008 0.041,-0.008 0.029,0 0.054,0.01 0.074,0.031 l 0.091,0.09 c 0.014,-0.017 0.03,-0.029 0.048,-0.038 0.018,-0.009 0.038,-0.013 0.06,-0.013 0.012,0 0.022,0.001 0.032,0.003 0.009,0.002 0.018,0.005 0.026,0.009 0.009,0.005 0.017,0.01 0.024,0.016 0.008,0.005 0.016,0.012 0.024,0.02 l 0.087,-0.087 c 0.01,-0.01 0.022,-0.018 0.035,-0.023 0.012,-0.006 0.026,-0.008 0.04,-0.008 0.014,0 0.027,0.002 0.04,0.008 0.013,0.005 0.025,0.013 0.034,0.023 l 0.188,0.202 c 0.019,0.021 0.029,0.045 0.029,0.072 0,0.014 -0.003,0.028 -0.008,0.041 -0.005,0.012 -0.013,0.024 -0.023,0.034 l -0.148,0.148 c 0.006,0.014 0.009,0.029 0.009,0.045 0,0.034 -0.012,0.063 -0.036,0.087 L 0.868,0.027 C 0.855,0.04 0.84,0.05 0.823,0.057 0.805,0.064 0.788,0.068 0.769,0.068 0.757,0.068 0.744,0.066 0.732,0.063 0.719,0.077 0.704,0.087 0.687,0.094 0.669,0.101 0.651,0.105 0.632,0.105 Z"
         style="fill-rule:nonzero"
         id="path6844" /><path
         d="m 0.651,-0.597 0.166,0.054 0.14,0.125 0.02,0.132 c 0.004,0.004 0.008,0.008 0.012,0.011 0.003,0.004 0.007,0.008 0.01,0.012 0.002,0.004 0.005,0.008 0.006,0.013 0.002,0.004 0.003,0.01 0.003,0.016 0,0.007 -0.001,0.013 -0.004,0.019 -0.003,0.006 -0.006,0.011 -0.01,0.016 C 0.99,-0.194 0.986,-0.19 0.981,-0.185 0.976,-0.181 0.972,-0.176 0.968,-0.172 L 0.935,-0.181 0.943,-0.147 0.868,-0.072 0.837,-0.083 0.843,-0.047 C 0.838,-0.042 0.832,-0.036 0.827,-0.031 0.822,-0.026 0.816,-0.021 0.811,-0.017 0.805,-0.012 0.799,-0.009 0.792,-0.006 0.785,-0.004 0.778,-0.002 0.769,-0.002 0.76,-0.002 0.751,-0.004 0.742,-0.008 0.733,-0.011 0.726,-0.016 0.719,-0.023 L 0.687,-0.031 0.695,0.002 C 0.685,0.011 0.676,0.019 0.667,0.026 0.658,0.032 0.646,0.035 0.632,0.035 0.613,0.035 0.597,0.028 0.583,0.015 L 0.312,-0.257 0.371,-0.316 0.206,-0.477 C 0.199,-0.484 0.195,-0.492 0.195,-0.501 c 0,-0.01 0.004,-0.018 0.011,-0.025 l 0.185,-0.201 c 0.003,-0.004 0.007,-0.006 0.012,-0.008 0.004,-0.001 0.008,-0.002 0.013,-0.002 0.01,0 0.018,0.003 0.025,0.01 l 0.17,0.17 z"
         style="fill:#ffc83d;fill-rule:nonzero"
         id="path6846" /><path
         d="m 0.868,-0.264 c 0.005,0 0.01,0.002 0.013,0.005 L 0.968,-0.172 0.943,-0.147 0.856,-0.234 C 0.852,-0.237 0.851,-0.242 0.851,-0.246 c 0,-0.005 0.001,-0.009 0.005,-0.013 0.003,-0.003 0.007,-0.005 0.012,-0.005 z m -0.117,0.118 c 0,-0.005 0.002,-0.01 0.006,-0.013 0.003,-0.003 0.007,-0.005 0.012,-0.005 0.005,0 0.009,0.002 0.012,0.005 L 0.868,-0.072 0.843,-0.047 0.757,-0.134 C 0.753,-0.138 0.751,-0.142 0.751,-0.146 Z m -0.124,0.074 c 0,-0.005 0.002,-0.009 0.005,-0.012 0.004,-0.004 0.008,-0.006 0.013,-0.006 0.005,0 0.009,0.002 0.012,0.005 L 0.719,-0.023 0.695,0.002 0.632,-0.06 C 0.629,-0.064 0.627,-0.068 0.627,-0.072 Z M 0.506,-0.175 c 0.01,0 0.02,0.001 0.029,0.005 0.009,0.003 0.017,0.008 0.024,0.014 0.007,0.006 0.012,0.013 0.016,0.022 0.004,0.009 0.006,0.018 0.006,0.029 0,0.01 -0.002,0.019 -0.006,0.027 -0.003,0.009 -0.008,0.016 -0.015,0.023 -0.006,0.006 -0.013,0.011 -0.022,0.014 -0.008,0.004 -0.017,0.006 -0.027,0.006 -0.019,0 -0.036,-0.007 -0.05,-0.021 L 0.312,-0.205 C 0.309,-0.208 0.306,-0.211 0.301,-0.215 0.297,-0.219 0.293,-0.223 0.29,-0.227 0.286,-0.231 0.283,-0.235 0.28,-0.24 0.278,-0.244 0.276,-0.249 0.276,-0.254 0.276,-0.265 0.28,-0.273 0.287,-0.28 0.279,-0.288 0.273,-0.295 0.268,-0.302 0.262,-0.308 0.26,-0.317 0.26,-0.329 c 0,-0.007 0.001,-0.014 0.004,-0.02 0.003,-0.006 0.007,-0.012 0.011,-0.017 0.005,-0.005 0.011,-0.008 0.017,-0.011 0.007,-0.003 0.013,-0.004 0.02,-0.004 0.007,0 0.014,0.001 0.02,0.004 0.007,0.002 0.012,0.006 0.017,0.01 0.005,0.005 0.009,0.01 0.012,0.016 0.003,0.006 0.004,0.013 0.004,0.019 0,0.004 0,0.006 0,0.008 0.01,0 0.02,0.002 0.028,0.006 0.009,0.004 0.016,0.01 0.021,0.016 0.006,0.007 0.01,0.015 0.013,0.024 0.003,0.009 0.005,0.018 0.005,0.028 0.023,0 0.041,0.007 0.054,0.02 0.014,0.013 0.02,0.031 0.02,0.055 z m 0.451,-0.562 c 0.01,0 0.018,0.003 0.025,0.01 l 0.185,0.201 c 0.007,0.007 0.011,0.015 0.011,0.025 0,0.009 -0.004,0.017 -0.011,0.024 l -0.19,0.191 -0.248,-0.249 -0.094,0.093 c -0.01,0.01 -0.021,0.017 -0.034,0.023 -0.013,0.005 -0.026,0.008 -0.04,0.008 -0.008,0 -0.016,-0.001 -0.026,-0.004 C 0.525,-0.417 0.516,-0.421 0.507,-0.426 0.499,-0.43 0.491,-0.436 0.485,-0.443 0.479,-0.45 0.476,-0.458 0.476,-0.466 c 0,-0.01 0.003,-0.018 0.01,-0.025 L 0.64,-0.646 c 0.006,-0.007 0.014,-0.012 0.023,-0.016 0.008,-0.003 0.017,-0.005 0.026,-0.005 0.01,0 0.019,0.002 0.028,0.005 0.008,0.004 0.016,0.009 0.022,0.016 l 0.056,0.056 0.137,-0.137 c 0.007,-0.007 0.015,-0.01 0.025,-0.01 z"
         style="fill:#eba300;fill-rule:nonzero"
         id="path6848" /></g></g></svg>
