<?xml version="1.0" encoding="UTF-8" standalone="no"?>
<svg
   width="15.675"
   height="16.844999"
   viewBox="0 0 15.675 16.844999"
   version="1.1"
   xml:space="preserve"
   style="clip-rule:evenodd;fill-rule:evenodd;stroke-linejoin:round;stroke-miterlimit:2"
   id="svg20568"
   sodipodi:docname="emojis.svg"
   xmlns:inkscape="http://www.inkscape.org/namespaces/inkscape"
   xmlns:sodipodi="http://sodipodi.sourceforge.net/DTD/sodipodi-0.dtd"
   xmlns="http://www.w3.org/2000/svg"
   xmlns:svg="http://www.w3.org/2000/svg"><defs
     id="defs20572" /><sodipodi:namedview
     id="namedview20570"
     pagecolor="#505050"
     bordercolor="#eeeeee"
     borderopacity="1"
     inkscape:pageshadow="0"
     inkscape:pageopacity="0"
     inkscape:pagecheckerboard="0" /><g
     transform="matrix(0.24,0,0,0.24,-697.1646,-297.3906)"
     id="g20566"><g
       transform="matrix(62.5,0,0,62.5,2897.04,1296.19)"
       id="g6928"><path
         d="M 1.073,0.062 C 1.084,0.072 1.092,0.084 1.098,0.097 1.104,0.111 1.107,0.125 1.107,0.14 V 0.21 H 0.687 L 0.686,0.161 C 0.686,0.143 0.688,0.125 0.692,0.108 0.696,0.091 0.706,0.076 0.722,0.062 V -0.035 H 0.624 l 0.039,-0.117 c -0.005,0.001 -0.01,0.002 -0.014,0.003 -0.005,0 -0.01,0.001 -0.015,0.001 -0.009,0 -0.018,-0.001 -0.025,-0.003 C 0.602,-0.153 0.595,-0.155 0.589,-0.158 0.582,-0.161 0.576,-0.166 0.57,-0.17 0.564,-0.175 0.559,-0.181 0.553,-0.187 0.551,-0.188 0.55,-0.19 0.549,-0.191 0.548,-0.192 0.547,-0.193 0.546,-0.195 v 0.257 c 0.011,0.01 0.02,0.021 0.026,0.035 0.006,0.014 0.009,0.028 0.009,0.043 V 0.21 H 0.16 L 0.159,0.161 C 0.159,0.143 0.161,0.125 0.166,0.108 0.17,0.091 0.18,0.076 0.195,0.062 V -0.111 C 0.185,-0.115 0.175,-0.12 0.167,-0.127 0.158,-0.133 0.151,-0.141 0.145,-0.15 0.138,-0.159 0.134,-0.168 0.13,-0.178 0.127,-0.189 0.125,-0.199 0.125,-0.21 v -0.281 c 0,-0.015 0.002,-0.029 0.007,-0.042 0.004,-0.014 0.01,-0.026 0.018,-0.038 0.008,-0.011 0.017,-0.021 0.028,-0.03 0.011,-0.009 0.024,-0.016 0.037,-0.021 -0.013,-0.025 -0.02,-0.052 -0.02,-0.08 v -0.035 c 0,-0.024 0.005,-0.047 0.014,-0.068 0.009,-0.022 0.022,-0.04 0.038,-0.056 0.016,-0.016 0.034,-0.028 0.055,-0.038 0.022,-0.009 0.045,-0.014 0.069,-0.014 0.024,0 0.046,0.005 0.068,0.014 0.021,0.01 0.04,0.022 0.055,0.038 0.016,0.016 0.029,0.034 0.038,0.056 0.009,0.021 0.014,0.044 0.014,0.068 v 0.014 c 0,0.017 -0.001,0.032 -0.002,0.046 -0.001,0.013 -0.006,0.029 -0.013,0.045 l 0.103,0.169 0.053,-0.092 v -0.147 c 0,-0.029 0.005,-0.056 0.016,-0.082 0.011,-0.025 0.026,-0.048 0.045,-0.067 0.019,-0.019 0.042,-0.034 0.067,-0.045 0.026,-0.011 0.053,-0.017 0.082,-0.017 0.029,0 0.056,0.006 0.082,0.017 0.025,0.011 0.048,0.026 0.067,0.045 0.019,0.019 0.034,0.042 0.045,0.067 0.011,0.026 0.016,0.053 0.016,0.082 v 0.118 c 0.012,0.013 0.021,0.027 0.027,0.043 0.006,0.016 0.009,0.033 0.009,0.05 v 0.281 c 0,0.018 -0.005,0.035 -0.014,0.051 L 1.17,-0.035 H 1.073 Z"
         style="fill-rule:nonzero"
         id="path6904" /><path
         d="m 0.897,-0.842 c 0.019,0 0.037,0.003 0.054,0.011 0.018,0.007 0.032,0.017 0.045,0.03 0.013,0.012 0.023,0.027 0.03,0.044 0.008,0.017 0.012,0.036 0.012,0.055 v 0.244 H 0.757 v -0.244 c 0,-0.019 0.003,-0.038 0.011,-0.055 0.007,-0.017 0.017,-0.032 0.03,-0.044 0.013,-0.013 0.027,-0.023 0.045,-0.03 0.017,-0.008 0.035,-0.011 0.054,-0.011 z m -0.526,0 c 0.014,0 0.027,0.002 0.04,0.008 0.013,0.006 0.024,0.013 0.034,0.023 0.009,0.009 0.017,0.02 0.023,0.033 0.005,0.013 0.008,0.026 0.008,0.041 v 0.008 c 0,0.004 -0.003,0.008 -0.008,0.011 -0.006,0.004 -0.013,0.007 -0.02,0.01 -0.007,0.003 -0.014,0.005 -0.021,0.007 -0.007,0.002 -0.012,0.003 -0.015,0.004 -0.007,0.001 -0.014,0.002 -0.021,0.002 -0.007,0.001 -0.014,0.001 -0.02,0.001 -0.014,0 -0.027,0.001 -0.04,0.002 -0.013,0.001 -0.026,0.002 -0.039,0.002 -0.002,0 -0.004,-0.001 -0.007,-0.001 -0.003,0 -0.006,0 -0.009,-0.001 C 0.273,-0.693 0.27,-0.694 0.268,-0.695 0.266,-0.697 0.265,-0.699 0.265,-0.702 v -0.035 c 0,-0.015 0.003,-0.029 0.008,-0.041 0.006,-0.013 0.014,-0.024 0.023,-0.034 0.01,-0.009 0.021,-0.016 0.034,-0.022 0.012,-0.006 0.026,-0.008 0.041,-0.008 z"
         style="fill:#8e562e;fill-rule:nonzero"
         id="path6906" /><path
         d="M 0.265,-0.256 C 0.27,-0.264 0.276,-0.272 0.283,-0.278 0.291,-0.284 0.3,-0.29 0.309,-0.294 c 0.009,-0.004 0.019,-0.007 0.028,-0.009 0.01,-0.002 0.02,-0.003 0.029,-0.003 0.009,0 0.02,0.001 0.03,0.003 0.01,0.003 0.021,0.006 0.03,0.01 0.01,0.005 0.019,0.01 0.028,0.016 0.008,0.006 0.016,0.013 0.022,0.021 V 0.072 C 0.473,0.08 0.468,0.086 0.461,0.091 0.455,0.096 0.447,0.099 0.439,0.099 0.436,0.099 0.433,0.098 0.429,0.096 0.425,0.095 0.421,0.093 0.418,0.091 0.414,0.088 0.411,0.085 0.409,0.082 0.407,0.079 0.406,0.076 0.406,0.072 V -0.14 c 0,-0.01 -0.004,-0.018 -0.01,-0.025 -0.007,-0.006 -0.016,-0.01 -0.025,-0.01 -0.01,0 -0.018,0.004 -0.025,0.01 C 0.339,-0.158 0.335,-0.15 0.335,-0.14 V 0.073 C 0.335,0.076 0.334,0.08 0.332,0.083 0.329,0.086 0.326,0.089 0.322,0.091 0.319,0.093 0.315,0.095 0.311,0.096 0.307,0.098 0.303,0.099 0.3,0.099 0.297,0.099 0.293,0.098 0.29,0.097 0.286,0.095 0.282,0.094 0.278,0.091 0.274,0.089 0.271,0.086 0.269,0.083 0.266,0.08 0.265,0.077 0.265,0.073 Z"
         style="fill:#d48c00;fill-rule:nonzero"
         id="path6908" /><path
         d="m 0.577,-0.421 c -0.001,0.007 -0.004,0.014 -0.01,0.018 -0.006,0.005 -0.013,0.007 -0.021,0.007 -0.004,0 -0.008,0 -0.013,-0.002 C 0.528,-0.399 0.523,-0.401 0.519,-0.404 0.514,-0.406 0.509,-0.409 0.505,-0.412 0.501,-0.415 0.498,-0.418 0.496,-0.421 l -0.02,-0.035 v 0.21 H 0.265 L 0.249,-0.265 V -0.398 C 0.247,-0.397 0.243,-0.396 0.238,-0.396 0.233,-0.395 0.23,-0.395 0.229,-0.395 0.226,-0.395 0.223,-0.396 0.219,-0.397 0.215,-0.399 0.211,-0.401 0.208,-0.403 0.204,-0.406 0.201,-0.408 0.199,-0.412 0.197,-0.415 0.195,-0.418 0.195,-0.421 v -0.07 c 0,-0.01 0.002,-0.019 0.006,-0.028 0.003,-0.008 0.008,-0.015 0.015,-0.022 0.006,-0.006 0.013,-0.011 0.022,-0.015 0.008,-0.004 0.017,-0.006 0.027,-0.006 h 0.211 c 0.007,0 0.012,0.002 0.018,0.005 0.005,0.003 0.009,0.008 0.012,0.013 z"
         style="fill:#0078d7;fill-rule:nonzero"
         id="path6910" /><rect
         x="0.26499999"
         y="-0.28099999"
         width="0.211"
         height="0.035"
         style="fill:#3a96dd;fill-rule:nonzero"
         id="rect6912" /><path
         d="m 1.002,-0.562 c 0.01,0 0.019,0.002 0.028,0.006 0.008,0.004 0.016,0.009 0.022,0.015 0.006,0.007 0.011,0.014 0.015,0.022 0.004,0.009 0.006,0.018 0.006,0.028 v 0.07 c -0.004,0.007 -0.007,0.013 -0.012,0.016 -0.005,0.003 -0.01,0.006 -0.015,0.006 -0.004,0.001 -0.009,0.002 -0.014,0.002 -0.005,0 -0.009,0 -0.012,0.001 l 0.002,0.002 -0.02,0.127 h -0.21 v -0.108 c 0,-0.014 0,-0.027 0,-0.041 0,-0.013 0,-0.026 0,-0.04 l -0.005,0.009 c -0.004,0.006 -0.008,0.013 -0.012,0.019 -0.004,0.006 -0.008,0.011 -0.013,0.016 -0.005,0.005 -0.01,0.009 -0.017,0.011 -0.006,0.003 -0.014,0.005 -0.023,0.005 -0.008,0 -0.015,-0.003 -0.021,-0.007 C 0.694,-0.407 0.691,-0.413 0.69,-0.421 L 0.761,-0.544 C 0.764,-0.549 0.769,-0.554 0.774,-0.557 0.78,-0.56 0.786,-0.561 0.792,-0.561 Z"
         style="fill:#f03a17;fill-rule:nonzero"
         id="path6914" /><rect
         x="0.792"
         y="-0.38600001"
         width="0.235"
         height="0.07"
         style="fill:#ef6950;fill-rule:nonzero"
         id="rect6916" /><path
         d="m 0.792,-0.316 h 0.241 l 0.01,0.092 c 0.001,0.009 0.002,0.017 0.002,0.024 0.001,0.006 0.002,0.014 0.003,0.023 10e-4,0.003 0.002,0.008 0.004,0.015 0.003,0.006 0.005,0.013 0.008,0.02 0.002,0.007 0.005,0.014 0.007,0.021 0.003,0.006 0.004,0.012 0.006,0.016 H 1.002 C 1,-0.098 0.995,-0.091 0.988,-0.085 c -0.006,0.007 -0.014,0.01 -0.022,0.01 -0.008,0 -0.015,-0.003 -0.021,-0.01 -0.006,-0.006 -0.01,-0.013 -0.013,-0.02 h -0.07 c -0.003,0.006 -0.008,0.012 -0.015,0.017 -0.006,0.005 -0.014,0.007 -0.021,0.007 -0.008,0 -0.015,-0.002 -0.021,-0.007 -0.006,-0.005 -0.01,-0.011 -0.013,-0.017 h -0.07 z"
         style="fill:#af0d1a;fill-rule:nonzero"
         id="path6918" /><path
         d="m 0.605,-0.234 c 0,0 -0.003,-0.005 -0.008,-0.013 C 0.592,-0.256 0.586,-0.267 0.578,-0.28 0.57,-0.293 0.562,-0.308 0.553,-0.323 L 0.496,-0.421 h 0.081 l 0.057,0.098 c 0,0.001 0.001,0.003 0.001,0.005 0.001,0.003 0.001,0.006 0.002,0.009 0,0.003 0,0.006 0,0.008 0.001,0.003 0.001,0.005 0.001,0.007 0,0.003 0,0.007 -0.001,0.012 0,0.004 -0.001,0.008 -0.002,0.011 -0.001,0.003 -0.002,0.007 -0.004,0.011 -0.002,0.004 -0.004,0.008 -0.007,0.011 -0.003,0.004 -0.006,0.008 -0.009,0.01 -0.004,0.003 -0.007,0.005 -0.01,0.005 z"
         style="fill:#eba300;fill-rule:nonzero"
         id="path6920" /><path
         d="M 0.792,0.07 C 0.795,0.064 0.799,0.059 0.806,0.055 0.812,0.052 0.818,0.05 0.825,0.05 0.832,0.05 0.839,0.052 0.846,0.055 0.853,0.059 0.859,0.064 0.862,0.07 V 0.14 H 0.757 c 0,-0.009 0.003,-0.018 0.01,-0.025 0.007,-0.007 0.016,-0.01 0.025,-0.01 z m 0.21,0.035 c 0.01,0 0.018,0.003 0.025,0.01 0.007,0.007 0.011,0.016 0.011,0.025 H 0.932 V 0.07 C 0.935,0.064 0.94,0.06 0.947,0.057 0.953,0.054 0.96,0.053 0.966,0.053 c 0.006,0 0.013,0.001 0.021,0.004 0.007,0.003 0.012,0.007 0.015,0.013 z m -0.526,0 c 0.01,0 0.018,0.003 0.025,0.01 0.007,0.007 0.01,0.016 0.01,0.025 H 0.406 V 0.07 h 0.07 z M 0.265,0.07 h 0.07 V 0.14 H 0.23 C 0.23,0.131 0.234,0.122 0.241,0.115 0.248,0.108 0.256,0.105 0.265,0.105 Z"
         style="fill:#757575;fill-rule:nonzero"
         id="path6922" /><path
         d="m 0.3,-0.737 h 0.176 v 0.035 c 0,0.014 -0.003,0.028 -0.008,0.041 -0.006,0.013 -0.013,0.024 -0.023,0.033 -0.01,0.01 -0.021,0.017 -0.033,0.023 -0.013,0.006 -0.027,0.008 -0.041,0.008 -0.015,0 -0.029,-0.002 -0.041,-0.008 C 0.317,-0.611 0.306,-0.618 0.296,-0.628 0.287,-0.637 0.279,-0.648 0.273,-0.661 0.268,-0.674 0.265,-0.688 0.265,-0.702 Z m 0.702,0.035 c 0,0.014 -0.002,0.028 -0.008,0.041 -0.005,0.013 -0.013,0.024 -0.023,0.033 -0.009,0.01 -0.02,0.017 -0.033,0.023 -0.013,0.006 -0.026,0.008 -0.041,0.008 -0.015,0 -0.028,-0.002 -0.041,-0.008 C 0.843,-0.611 0.832,-0.618 0.823,-0.628 0.813,-0.637 0.806,-0.648 0.8,-0.661 0.795,-0.674 0.792,-0.688 0.792,-0.702 0.804,-0.703 0.816,-0.706 0.826,-0.712 0.837,-0.719 0.845,-0.727 0.852,-0.737 v 0.033 c 0.012,0 0.023,-0.003 0.034,-0.009 0.011,-0.006 0.019,-0.014 0.026,-0.025 v 0.035 c 0.011,0 0.022,-0.003 0.032,-0.008 0.01,-0.005 0.018,-0.012 0.024,-0.021 0.002,0.008 0.006,0.015 0.012,0.02 0.006,0.006 0.013,0.008 0.022,0.008 0,0.001 0,0.001 0,0.001 0,0 0,0.001 0,0.001 z m -0.807,0.281 h 0.07 v 0.211 c 0,0.009 -0.003,0.017 -0.01,0.024 -0.007,0.007 -0.015,0.01 -0.025,0.01 -0.009,0 -0.017,-0.003 -0.024,-0.01 C 0.199,-0.193 0.195,-0.201 0.195,-0.21 Z m 0.404,0.168 c 0,-0.006 0.002,-0.012 0.005,-0.018 L 0.69,-0.421 H 0.771 L 0.664,-0.235 C 0.661,-0.23 0.657,-0.226 0.651,-0.223 0.645,-0.22 0.64,-0.218 0.634,-0.218 c -0.01,0 -0.018,-0.004 -0.025,-0.011 -0.006,-0.007 -0.01,-0.015 -0.01,-0.024 z m 0.474,-0.168 v 0.211 c 0,0.007 -0.003,0.014 -0.007,0.02 -0.005,0.006 -0.01,0.01 -0.018,0.013 0,-0.002 -0.002,-0.006 -0.004,-0.014 C 1.041,-0.198 1.038,-0.207 1.035,-0.217 1.032,-0.227 1.028,-0.238 1.024,-0.25 1.021,-0.261 1.017,-0.272 1.014,-0.282 L 1.002,-0.316 v -0.105 z m -0.141,0.316 h 0.07 V 0.07 h -0.07 z m -0.14,0 h 0.07 V 0.07 h -0.07 z"
         style="fill:#ffc83d;fill-rule:nonzero"
         id="path6924" /><path
         d="m 0.423,-0.702 c 0.005,0 0.009,0.002 0.013,0.005 0.003,0.003 0.005,0.008 0.005,0.012 0,0.005 -0.002,0.009 -0.005,0.013 -0.004,0.003 -0.008,0.005 -0.013,0.005 -0.005,0 -0.009,-0.002 -0.012,-0.005 -0.004,-0.004 -0.005,-0.008 -0.005,-0.013 0,-0.004 10e-4,-0.009 0.005,-0.012 0.003,-0.003 0.007,-0.005 0.012,-0.005 z m -0.105,0 c 0.005,0 0.009,0.002 0.012,0.005 0.004,0.003 0.005,0.008 0.005,0.012 0,0.005 -0.001,0.009 -0.005,0.013 -0.003,0.003 -0.007,0.005 -0.012,0.005 -0.005,0 -0.009,-0.002 -0.013,-0.005 C 0.302,-0.676 0.3,-0.68 0.3,-0.685 0.3,-0.689 0.302,-0.694 0.305,-0.697 0.309,-0.7 0.313,-0.702 0.318,-0.702 Z M 0.95,-0.704 c 0.005,0 0.009,0.002 0.012,0.006 0.004,0.003 0.005,0.007 0.005,0.012 0,0.005 -0.001,0.009 -0.005,0.012 -0.003,0.004 -0.007,0.006 -0.012,0.006 -0.005,0 -0.009,-0.002 -0.013,-0.006 -0.003,-0.003 -0.005,-0.007 -0.005,-0.012 0,-0.005 0.002,-0.009 0.005,-0.012 0.004,-0.004 0.008,-0.006 0.013,-0.006 z m -0.106,0 c 0.005,0 0.009,0.002 0.013,0.006 0.003,0.003 0.005,0.007 0.005,0.012 0,0.005 -0.002,0.009 -0.005,0.012 -0.004,0.004 -0.008,0.006 -0.013,0.006 -0.004,0 -0.008,-0.002 -0.012,-0.006 -0.004,-0.003 -0.005,-0.007 -0.005,-0.012 0,-0.005 0.001,-0.009 0.005,-0.012 0.004,-0.004 0.008,-0.006 0.012,-0.006 z"
         style="fill-rule:nonzero"
         id="path6926" /></g></g></svg>
