<?xml version="1.0" encoding="UTF-8" standalone="no"?>
<svg
   width="15.27"
   height="16.844999"
   viewBox="0 0 15.27 16.844999"
   version="1.1"
   xml:space="preserve"
   style="clip-rule:evenodd;fill-rule:evenodd;stroke-linejoin:round;stroke-miterlimit:2"
   id="svg20568"
   sodipodi:docname="emojis.svg"
   xmlns:inkscape="http://www.inkscape.org/namespaces/inkscape"
   xmlns:sodipodi="http://sodipodi.sourceforge.net/DTD/sodipodi-0.dtd"
   xmlns="http://www.w3.org/2000/svg"
   xmlns:svg="http://www.w3.org/2000/svg"><defs
     id="defs20572" /><sodipodi:namedview
     id="namedview20570"
     pagecolor="#505050"
     bordercolor="#eeeeee"
     borderopacity="1"
     inkscape:pageshadow="0"
     inkscape:pageopacity="0"
     inkscape:pagecheckerboard="0" /><g
     transform="matrix(0.24,0,0,0.24,-716.7126,-297.3906)"
     id="g20566"><g
       transform="matrix(62.5,0,0,62.5,2978.49,1296.19)"
       id="g6952"><path
         d="m 1.052,-0.622 c 0.014,0.005 0.026,0.012 0.037,0.021 0.011,0.009 0.021,0.019 0.029,0.03 0.007,0.012 0.014,0.024 0.018,0.038 0.004,0.013 0.007,0.027 0.007,0.042 v 0.281 c 0,0.011 -0.002,0.021 -0.006,0.032 -0.003,0.01 -0.008,0.019 -0.014,0.028 -0.006,0.008 -0.013,0.016 -0.022,0.023 -0.008,0.006 -0.018,0.012 -0.028,0.016 V 0.062 C 1.084,0.072 1.092,0.084 1.098,0.097 1.104,0.111 1.107,0.125 1.107,0.14 V 0.21 H 0.687 L 0.686,0.163 C 0.686,0.144 0.688,0.126 0.692,0.109 0.696,0.092 0.706,0.076 0.722,0.062 V -0.194 L 0.72,-0.191 C 0.718,-0.19 0.716,-0.188 0.714,-0.186 0.712,-0.184 0.71,-0.182 0.708,-0.18 0.698,-0.169 0.687,-0.161 0.675,-0.156 0.662,-0.151 0.649,-0.148 0.634,-0.148 0.625,-0.148 0.616,-0.149 0.609,-0.151 0.602,-0.153 0.595,-0.155 0.589,-0.158 0.582,-0.161 0.576,-0.166 0.57,-0.17 0.564,-0.175 0.559,-0.181 0.553,-0.187 0.551,-0.188 0.55,-0.19 0.549,-0.191 0.548,-0.192 0.547,-0.193 0.546,-0.195 v 0.257 c 0.011,0.01 0.02,0.021 0.026,0.035 0.006,0.014 0.009,0.028 0.009,0.043 V 0.21 H 0.16 L 0.159,0.163 C 0.159,0.144 0.161,0.126 0.166,0.109 0.17,0.092 0.18,0.076 0.195,0.062 V -0.111 C 0.185,-0.115 0.175,-0.12 0.167,-0.127 0.158,-0.133 0.151,-0.141 0.145,-0.15 0.138,-0.159 0.134,-0.168 0.13,-0.178 0.127,-0.189 0.125,-0.199 0.125,-0.21 v -0.281 c 0,-0.015 0.002,-0.029 0.007,-0.042 0.004,-0.014 0.01,-0.026 0.018,-0.038 0.008,-0.011 0.017,-0.021 0.028,-0.03 0.011,-0.009 0.024,-0.016 0.037,-0.021 -0.013,-0.025 -0.02,-0.052 -0.02,-0.08 v -0.035 c 0,-0.024 0.005,-0.047 0.014,-0.068 0.009,-0.022 0.022,-0.04 0.038,-0.056 0.016,-0.016 0.034,-0.028 0.055,-0.038 0.022,-0.009 0.045,-0.014 0.069,-0.014 0.024,0 0.046,0.005 0.068,0.014 0.021,0.01 0.04,0.022 0.055,0.038 0.016,0.016 0.029,0.034 0.038,0.056 0.009,0.021 0.014,0.044 0.014,0.068 v 0.009 c 0,0.009 0,0.017 0,0.025 -0.001,0.008 -0.001,0.016 -0.002,0.024 -0.001,0.007 -0.002,0.015 -0.004,0.023 -0.002,0.007 -0.005,0.015 -0.009,0.024 l 0.103,0.169 0.102,-0.169 C 0.731,-0.643 0.728,-0.654 0.725,-0.666 0.723,-0.678 0.722,-0.69 0.722,-0.702 v -0.035 c 0,-0.024 0.004,-0.047 0.013,-0.068 0.009,-0.022 0.022,-0.04 0.038,-0.056 0.016,-0.016 0.035,-0.028 0.056,-0.038 0.021,-0.009 0.044,-0.014 0.068,-0.014 0.024,0 0.046,0.005 0.068,0.014 0.021,0.01 0.04,0.022 0.056,0.038 0.016,0.016 0.029,0.035 0.038,0.056 0.009,0.021 0.014,0.044 0.014,0.068 v 0.036 C 1.072,-0.692 1.072,-0.683 1.07,-0.675 1.069,-0.667 1.067,-0.658 1.064,-0.65 1.061,-0.641 1.057,-0.632 1.052,-0.622 Z"
         style="fill-rule:nonzero"
         id="path6930" /><path
         d="M 0.476,-0.274 V 0.098 H 0.406 V -0.14 c 0,-0.01 -0.004,-0.018 -0.01,-0.025 -0.007,-0.006 -0.016,-0.01 -0.025,-0.01 -0.01,0 -0.018,0.004 -0.025,0.01 C 0.339,-0.158 0.335,-0.15 0.335,-0.14 V 0.098 H 0.265 V -0.21 L 0.249,-0.263 C 0.247,-0.27 0.246,-0.273 0.246,-0.274 Z"
         style="fill:#d48c00;fill-rule:nonzero"
         id="path6932" /><path
         d="m 0.476,-0.562 c 0.006,0 0.012,0.002 0.017,0.005 0.006,0.003 0.01,0.008 0.013,0.013 l 0.071,0.123 C 0.575,-0.414 0.57,-0.408 0.563,-0.405 0.556,-0.401 0.549,-0.399 0.541,-0.399 0.531,-0.399 0.523,-0.401 0.517,-0.404 0.51,-0.407 0.505,-0.411 0.5,-0.417 0.496,-0.422 0.491,-0.428 0.488,-0.435 0.484,-0.442 0.48,-0.449 0.476,-0.456 v 0.21 H 0.25 V -0.28 c 0,-0.019 -0.001,-0.037 -0.001,-0.056 0,-0.019 -0.001,-0.038 -0.001,-0.056 l 0.001,-0.002 c 0,-0.001 -0.001,-0.002 -0.003,-0.002 -0.002,-0.001 -0.005,-0.002 -0.007,-0.002 -0.003,0 -0.005,0 -0.008,0 H 0.227 C 0.224,-0.398 0.221,-0.399 0.217,-0.4 0.214,-0.401 0.21,-0.403 0.207,-0.405 0.204,-0.407 0.201,-0.409 0.199,-0.412 0.196,-0.415 0.195,-0.418 0.195,-0.421 v -0.07 c 0,-0.01 0.002,-0.019 0.006,-0.028 0.003,-0.008 0.008,-0.015 0.015,-0.022 0.006,-0.006 0.013,-0.011 0.022,-0.015 0.008,-0.004 0.017,-0.006 0.027,-0.006 z m 0.526,0.294 V 0.089 H 0.932 V -0.14 c 0,-0.01 -0.003,-0.018 -0.01,-0.025 -0.007,-0.006 -0.015,-0.01 -0.025,-0.01 -0.01,0 -0.018,0.004 -0.025,0.01 -0.007,0.007 -0.01,0.015 -0.01,0.025 v 0.229 h -0.07 v -0.357 z"
         style="fill:#0078d7;fill-rule:nonzero"
         id="path6934" /><rect
         x="0.26499999"
         y="-0.28099999"
         width="0.211"
         height="0.035"
         style="fill:#3a96dd;fill-rule:nonzero"
         id="rect6936" /><path
         d="m 1.002,-0.562 c 0.01,0 0.019,0.002 0.028,0.006 0.008,0.004 0.016,0.009 0.022,0.015 0.006,0.007 0.011,0.014 0.015,0.022 0.004,0.009 0.006,0.018 0.006,0.028 v 0.07 c -0.004,0.007 -0.009,0.013 -0.015,0.018 -0.007,0.005 -0.015,0.007 -0.022,0.007 -0.008,0 -0.015,-0.002 -0.021,-0.007 -0.006,-0.005 -0.01,-0.011 -0.013,-0.018 v 0.175 h -0.21 v -0.12 c 0,-0.015 0,-0.03 0,-0.045 0,-0.015 0,-0.03 0,-0.045 L 0.771,-0.421 C 0.77,-0.418 0.766,-0.415 0.762,-0.412 0.757,-0.409 0.752,-0.406 0.747,-0.404 0.741,-0.401 0.736,-0.399 0.73,-0.398 0.724,-0.396 0.72,-0.396 0.716,-0.396 0.709,-0.396 0.703,-0.397 0.698,-0.401 0.693,-0.404 0.69,-0.41 0.69,-0.418 V -0.421 L 0.761,-0.544 C 0.764,-0.549 0.769,-0.554 0.774,-0.557 0.78,-0.56 0.786,-0.561 0.792,-0.561 Z"
         style="fill:#f03a17;fill-rule:nonzero"
         id="path6938" /><path
         d="m 0.371,-0.842 c 0.014,0 0.027,0.002 0.04,0.008 0.013,0.006 0.024,0.013 0.034,0.023 0.009,0.009 0.017,0.02 0.023,0.033 0.005,0.013 0.008,0.026 0.008,0.041 v 0.005 c 0,0.004 -0.002,0.007 -0.007,0.01 -0.004,0.002 -0.01,0.005 -0.017,0.007 -0.007,0.002 -0.015,0.004 -0.024,0.005 -0.008,0.002 -0.016,0.003 -0.024,0.004 -0.008,0.001 -0.015,0.002 -0.021,0.002 -0.006,0.001 -0.01,0.001 -0.012,0.001 -0.016,0 -0.031,0.001 -0.047,0.002 -0.015,0.002 -0.031,0.003 -0.046,0.003 H 0.275 c -0.001,0 -0.003,0 -0.004,-0.001 -0.002,0 -0.003,0 -0.004,-0.001 -0.001,0 -0.002,-0.001 -0.002,-0.002 v -0.035 c 0,-0.015 0.003,-0.029 0.008,-0.041 0.006,-0.013 0.014,-0.024 0.023,-0.034 0.01,-0.009 0.021,-0.016 0.034,-0.022 0.012,-0.006 0.026,-0.008 0.041,-0.008 z"
         style="fill:#8e562e;fill-rule:nonzero"
         id="path6940" /><path
         d="m 0.897,-0.842 c 0.014,0 0.028,0.002 0.04,0.008 0.013,0.006 0.024,0.013 0.034,0.023 0.01,0.009 0.017,0.02 0.023,0.033 0.006,0.013 0.008,0.026 0.008,0.041 0,0.005 -0.002,0.01 -0.006,0.014 C 0.992,-0.718 0.987,-0.715 0.98,-0.711 0.974,-0.708 0.966,-0.705 0.958,-0.703 0.95,-0.7 0.942,-0.698 0.935,-0.697 0.927,-0.695 0.92,-0.694 0.913,-0.693 c -0.007,0 -0.012,0.001 -0.016,0.001 H 0.846 0.833 c -0.003,0 -0.008,0 -0.013,0 -0.005,0 -0.009,-0.001 -0.013,-0.002 -0.005,0 -0.008,-0.001 -0.011,-0.003 C 0.793,-0.698 0.792,-0.7 0.792,-0.702 v -0.035 c 0,-0.015 0.003,-0.029 0.008,-0.041 0.006,-0.013 0.013,-0.024 0.023,-0.034 0.009,-0.009 0.02,-0.016 0.033,-0.022 0.013,-0.006 0.026,-0.008 0.041,-0.008 z"
         style="fill:#613d30;fill-rule:nonzero"
         id="path6942" /><path
         d="m 0.605,-0.234 c 0,0 -0.003,-0.005 -0.008,-0.013 C 0.592,-0.256 0.586,-0.267 0.578,-0.28 0.57,-0.293 0.562,-0.308 0.553,-0.323 L 0.496,-0.421 h 0.081 l 0.057,0.098 c 0.002,0.004 0.005,0.01 0.006,0.018 0.002,0.008 0.003,0.014 0.003,0.019 0,0.013 -0.003,0.024 -0.009,0.035 -0.006,0.01 -0.016,0.016 -0.029,0.017 z"
         style="fill:#eba300;fill-rule:nonzero"
         id="path6944" /><path
         d="m 0.3,-0.737 h 0.176 v 0.035 c 0,0.014 -0.003,0.028 -0.008,0.041 -0.006,0.013 -0.013,0.024 -0.023,0.033 -0.01,0.01 -0.021,0.017 -0.033,0.023 -0.013,0.006 -0.027,0.008 -0.041,0.008 -0.015,0 -0.029,-0.002 -0.041,-0.008 C 0.317,-0.611 0.306,-0.618 0.296,-0.628 0.287,-0.637 0.279,-0.648 0.273,-0.661 0.268,-0.674 0.265,-0.688 0.265,-0.702 Z m 0.702,0.035 c 0,0.014 -0.002,0.028 -0.008,0.041 -0.005,0.013 -0.013,0.024 -0.023,0.033 -0.009,0.01 -0.02,0.017 -0.033,0.023 -0.013,0.006 -0.026,0.008 -0.041,0.008 -0.015,0 -0.028,-0.002 -0.041,-0.008 C 0.843,-0.611 0.832,-0.618 0.823,-0.628 0.813,-0.637 0.806,-0.648 0.8,-0.661 0.795,-0.674 0.792,-0.688 0.792,-0.702 l 0.035,-0.035 h 0.175 z m 0.071,0.281 v 0.211 c 0,0.009 -0.004,0.017 -0.011,0.024 -0.007,0.007 -0.015,0.01 -0.024,0.01 -0.01,0 -0.018,-0.003 -0.025,-0.01 C 1.006,-0.193 1.002,-0.201 1.002,-0.21 v -0.211 z m -0.878,0 h 0.07 v 0.211 c 0,0.009 -0.003,0.017 -0.01,0.024 -0.007,0.007 -0.015,0.01 -0.025,0.01 -0.009,0 -0.017,-0.003 -0.024,-0.01 C 0.199,-0.193 0.195,-0.201 0.195,-0.21 Z m 0.404,0.168 c 0,-0.006 0.002,-0.012 0.005,-0.018 L 0.69,-0.421 H 0.771 L 0.664,-0.235 C 0.661,-0.23 0.657,-0.226 0.651,-0.223 0.645,-0.22 0.64,-0.218 0.634,-0.218 c -0.01,0 -0.018,-0.004 -0.025,-0.011 -0.006,-0.007 -0.01,-0.015 -0.01,-0.024 z"
         style="fill:#ffc83d;fill-rule:nonzero"
         id="path6946" /><path
         d="m 0.476,0.105 c 0.01,0 0.018,0.003 0.025,0.01 0.007,0.007 0.01,0.016 0.01,0.025 H 0.406 V 0.07 h 0.07 z m 0.526,0 c 0.01,0 0.018,0.003 0.025,0.01 0.007,0.007 0.011,0.016 0.011,0.025 H 0.932 V 0.07 h 0.07 z M 0.265,0.07 h 0.07 V 0.14 H 0.23 C 0.23,0.131 0.234,0.122 0.241,0.115 0.248,0.108 0.256,0.105 0.265,0.105 Z m 0.527,0 h 0.07 V 0.14 H 0.757 c 0,-0.009 0.003,-0.018 0.01,-0.025 0.007,-0.007 0.016,-0.01 0.025,-0.01 z"
         style="fill:#757575;fill-rule:nonzero"
         id="path6948" /><path
         d="m 0.423,-0.702 c 0.005,0 0.009,0.002 0.013,0.005 0.003,0.003 0.005,0.008 0.005,0.012 0,0.005 -0.002,0.009 -0.005,0.013 -0.004,0.003 -0.008,0.005 -0.013,0.005 -0.005,0 -0.009,-0.002 -0.012,-0.005 -0.004,-0.004 -0.005,-0.008 -0.005,-0.013 0,-0.004 10e-4,-0.009 0.005,-0.012 0.003,-0.003 0.007,-0.005 0.012,-0.005 z m -0.105,0 c 0.005,0 0.009,0.002 0.012,0.005 0.004,0.003 0.005,0.008 0.005,0.012 0,0.005 -0.001,0.009 -0.005,0.013 -0.003,0.003 -0.007,0.005 -0.012,0.005 -0.005,0 -0.009,-0.002 -0.013,-0.005 C 0.302,-0.676 0.3,-0.68 0.3,-0.685 0.3,-0.689 0.302,-0.694 0.305,-0.697 0.309,-0.7 0.313,-0.702 0.318,-0.702 Z m 0.632,0 c 0.005,0 0.009,0.002 0.012,0.005 0.004,0.003 0.005,0.008 0.005,0.012 0,0.005 -0.001,0.009 -0.005,0.013 -0.003,0.003 -0.007,0.005 -0.012,0.005 -0.005,0 -0.009,-0.002 -0.013,-0.005 C 0.934,-0.676 0.932,-0.68 0.932,-0.685 0.932,-0.689 0.934,-0.694 0.937,-0.697 0.941,-0.7 0.945,-0.702 0.95,-0.702 Z m -0.106,0 c 0.005,0 0.009,0.002 0.013,0.005 0.003,0.003 0.005,0.008 0.005,0.012 0,0.005 -0.002,0.009 -0.005,0.013 -0.004,0.003 -0.008,0.005 -0.013,0.005 -0.004,0 -0.008,-0.002 -0.012,-0.005 C 0.828,-0.676 0.827,-0.68 0.827,-0.685 0.827,-0.689 0.828,-0.693 0.832,-0.697 0.836,-0.7 0.84,-0.702 0.844,-0.702 Z"
         style="fill-rule:nonzero"
         id="path6950" /></g></g></svg>
