<?xml version="1.0" encoding="UTF-8" standalone="no"?>
<svg
   width="17.370001"
   height="16.844999"
   viewBox="0 0 17.370001 16.844999"
   version="1.1"
   xml:space="preserve"
   style="clip-rule:evenodd;fill-rule:evenodd;stroke-linejoin:round;stroke-miterlimit:2"
   id="svg20568"
   sodipodi:docname="emojis.svg"
   xmlns:inkscape="http://www.inkscape.org/namespaces/inkscape"
   xmlns:sodipodi="http://sodipodi.sourceforge.net/DTD/sodipodi-0.dtd"
   xmlns="http://www.w3.org/2000/svg"
   xmlns:svg="http://www.w3.org/2000/svg"><defs
     id="defs20572" /><sodipodi:namedview
     id="namedview20570"
     pagecolor="#505050"
     bordercolor="#eeeeee"
     borderopacity="1"
     inkscape:pageshadow="0"
     inkscape:pageopacity="0"
     inkscape:pagecheckerboard="0" /><g
     transform="matrix(0.24,0,0,0.24,-735.7326,-297.3906)"
     id="g20566"><g
       transform="matrix(62.5,0,0,62.5,3057.74,1296.19)"
       id="g6984"><path
         d="m 0.967,-0.913 c 0.029,0 0.057,0.004 0.084,0.012 0.027,0.007 0.052,0.018 0.076,0.032 0.023,0.013 0.044,0.03 0.063,0.049 0.02,0.019 0.036,0.041 0.05,0.064 0.014,0.023 0.024,0.048 0.032,0.075 0.007,0.027 0.011,0.055 0.011,0.084 V 0.21 H 0.125 v -0.333 c 0,-0.021 0.003,-0.042 0.009,-0.062 0.005,-0.02 0.013,-0.039 0.024,-0.056 C 0.169,-0.258 0.181,-0.274 0.196,-0.289 0.211,-0.303 0.228,-0.315 0.247,-0.325 0.219,-0.351 0.198,-0.382 0.183,-0.417 0.169,-0.451 0.161,-0.488 0.161,-0.526 v -0.106 c 0,-0.039 0.008,-0.075 0.022,-0.109 0.015,-0.034 0.035,-0.064 0.061,-0.089 0.025,-0.025 0.055,-0.046 0.089,-0.06 0.034,-0.015 0.07,-0.023 0.109,-0.023 0.027,0 0.053,0.004 0.078,0.012 0.025,0.007 0.049,0.018 0.07,0.031 0.022,0.014 0.042,0.031 0.059,0.05 0.018,0.02 0.033,0.042 0.044,0.066 0.014,-0.025 0.031,-0.047 0.051,-0.066 0.02,-0.02 0.042,-0.036 0.065,-0.05 0.024,-0.014 0.049,-0.024 0.076,-0.032 0.026,-0.007 0.054,-0.011 0.082,-0.011 z"
         style="fill-rule:nonzero"
         id="path6954" /><path
         d="M 0.687,0.14 H 0.195 v -0.263 c 0,-0.022 0.004,-0.042 0.013,-0.061 0.008,-0.019 0.019,-0.036 0.034,-0.05 0.014,-0.015 0.031,-0.026 0.05,-0.034 0.019,-0.009 0.039,-0.013 0.061,-0.013 h 0.176 c 0.022,0 0.043,0.004 0.062,0.013 0.019,0.008 0.036,0.019 0.05,0.034 0.014,0.014 0.025,0.031 0.033,0.05 0.008,0.019 0.013,0.04 0.013,0.061 z"
         style="fill:#31d2f7;fill-rule:nonzero"
         id="path6956" /><path
         d="m 1.212,0.14 h -0.49 v -0.263 c 0,-0.022 0.004,-0.042 0.012,-0.061 0.008,-0.019 0.02,-0.036 0.034,-0.05 0.014,-0.015 0.031,-0.026 0.05,-0.034 0.019,-0.009 0.04,-0.013 0.061,-0.013 h 0.176 c 0.022,0 0.042,0.004 0.062,0.013 0.019,0.008 0.036,0.019 0.05,0.034 0.014,0.014 0.026,0.031 0.034,0.05 0.008,0.019 0.012,0.04 0.012,0.061 0,0.044 0,0.088 0,0.132 C 1.212,0.052 1.212,0.096 1.212,0.14 Z"
         style="fill:#ee3f86;fill-rule:nonzero"
         id="path6958" /><path
         d="m 0.967,-0.842 c 0.034,0 0.066,0.006 0.096,0.019 0.03,0.013 0.056,0.03 0.078,0.053 0.022,0.022 0.04,0.048 0.053,0.078 0.012,0.03 0.019,0.061 0.019,0.095 v 0.351 c -0.015,0 -0.03,-0.003 -0.044,-0.008 C 1.155,-0.26 1.142,-0.268 1.13,-0.278 1.118,-0.287 1.108,-0.298 1.099,-0.311 1.09,-0.324 1.083,-0.337 1.079,-0.351 H 0.855 c -0.004,0.014 -0.011,0.027 -0.02,0.04 -0.008,0.013 -0.019,0.024 -0.031,0.033 -0.011,0.01 -0.024,0.018 -0.039,0.024 -0.014,0.005 -0.028,0.008 -0.043,0.008 v -0.351 c 0,-0.034 0.006,-0.065 0.019,-0.095 0.013,-0.03 0.03,-0.056 0.052,-0.078 0.023,-0.023 0.049,-0.04 0.079,-0.053 0.03,-0.013 0.061,-0.019 0.095,-0.019 z"
         style="fill:#613d30;fill-rule:nonzero"
         id="path6960" /><path
         d="m 0.651,-0.526 c 0,0.029 -0.005,0.056 -0.016,0.081 C 0.624,-0.419 0.609,-0.397 0.59,-0.378 0.571,-0.359 0.548,-0.344 0.523,-0.333 0.497,-0.321 0.47,-0.316 0.441,-0.316 0.412,-0.316 0.385,-0.321 0.359,-0.333 0.334,-0.344 0.311,-0.359 0.292,-0.378 0.273,-0.397 0.258,-0.419 0.247,-0.445 0.236,-0.47 0.23,-0.497 0.23,-0.526 v -0.071 l 0.017,-0.017 c 0,-0.029 0.004,-0.055 0.011,-0.078 0.007,-0.024 0.018,-0.044 0.033,-0.061 0.014,-0.017 0.033,-0.031 0.055,-0.04 0.022,-0.009 0.048,-0.014 0.077,-0.014 h 0.035 c 0.03,0 0.056,0.005 0.078,0.014 0.022,0.009 0.04,0.023 0.055,0.04 0.014,0.017 0.025,0.037 0.032,0.061 0.007,0.023 0.011,0.049 0.011,0.078 l 0.017,0.017 z m 0.351,-0.211 c 0.007,0.017 0.017,0.032 0.029,0.045 0.013,0.014 0.027,0.025 0.043,0.033 0.016,0.009 0.033,0.016 0.051,0.02 0.017,0.005 0.035,0.007 0.053,0.007 v 0.105 c 0,0.029 -0.006,0.056 -0.017,0.082 C 1.15,-0.42 1.135,-0.397 1.116,-0.378 1.097,-0.359 1.075,-0.344 1.05,-0.333 1.024,-0.321 0.997,-0.316 0.967,-0.316 0.938,-0.316 0.911,-0.321 0.885,-0.333 0.859,-0.344 0.837,-0.359 0.818,-0.378 0.799,-0.397 0.784,-0.42 0.773,-0.445 0.762,-0.471 0.757,-0.498 0.757,-0.527 v -0.105 c 0.015,0 0.028,-0.003 0.04,-0.009 0.011,-0.006 0.021,-0.014 0.029,-0.025 0.009,-0.01 0.016,-0.021 0.021,-0.033 0.006,-0.013 0.011,-0.026 0.015,-0.038 0.007,0.011 0.016,0.021 0.027,0.03 0.01,0.008 0.022,0.016 0.035,0.022 0.012,0.006 0.025,0.01 0.039,0.013 0.014,0.003 0.027,0.005 0.039,0.005 z"
         style="fill:#ffc83d;fill-rule:nonzero"
         id="path6962" /><path
         d="m 0.441,-0.842 c 0.029,0 0.057,0.005 0.082,0.016 0.026,0.011 0.048,0.026 0.067,0.045 0.019,0.02 0.034,0.042 0.045,0.067 0.011,0.026 0.016,0.053 0.016,0.082 v 0.035 H 0.616 v -0.026 c 0,-0.008 0,-0.015 0,-0.022 C 0.615,-0.653 0.614,-0.66 0.613,-0.667 H 0.441 C 0.432,-0.667 0.423,-0.669 0.415,-0.673 0.406,-0.676 0.399,-0.681 0.393,-0.687 0.386,-0.694 0.381,-0.701 0.377,-0.709 0.373,-0.717 0.371,-0.726 0.371,-0.734 v 0.067 c -0.01,0 -0.018,-0.002 -0.027,-0.006 C 0.336,-0.676 0.328,-0.681 0.322,-0.688 0.316,-0.694 0.311,-0.701 0.307,-0.71 0.303,-0.718 0.301,-0.727 0.301,-0.736 0.292,-0.725 0.285,-0.713 0.28,-0.703 0.275,-0.692 0.272,-0.681 0.27,-0.67 c -0.003,0.011 -0.004,0.023 -0.005,0.035 0,0.011 0,0.024 0,0.038 H 0.23 v -0.035 c 0,-0.029 0.006,-0.056 0.017,-0.082 0.011,-0.025 0.026,-0.047 0.045,-0.067 0.019,-0.019 0.041,-0.034 0.067,-0.045 0.025,-0.011 0.053,-0.016 0.082,-0.016 z"
         style="fill:#613d30;fill-rule:nonzero"
         id="path6964" /><path
         d="M 0.966,-0.386 C 0.961,-0.386 0.955,-0.387 0.947,-0.389 0.939,-0.391 0.932,-0.393 0.924,-0.396 0.917,-0.4 0.91,-0.404 0.905,-0.408 0.9,-0.413 0.897,-0.418 0.897,-0.424 c 0,-0.005 0.002,-0.009 0.005,-0.012 0.003,-0.003 0.007,-0.005 0.012,-0.005 0.003,0 0.006,0.001 0.009,0.004 0.003,0.002 0.006,0.004 0.01,0.007 0.004,0.002 0.009,0.005 0.014,0.007 0.005,0.002 0.011,0.004 0.019,0.004 0.007,0 0.014,-0.002 0.019,-0.004 0.005,-0.002 0.01,-0.005 0.014,-0.007 0.003,-0.003 0.007,-0.005 0.01,-0.007 0.003,-0.003 0.006,-0.004 0.009,-0.004 0.005,0 0.009,0.002 0.012,0.005 0.003,0.003 0.005,0.007 0.005,0.012 0,0.006 -0.003,0.011 -0.008,0.016 C 1.021,-0.404 1.015,-0.4 1.007,-0.396 1,-0.393 0.992,-0.391 0.985,-0.389 0.977,-0.387 0.971,-0.386 0.966,-0.386 Z"
         style="fill:#e81224;fill-rule:nonzero"
         id="path6966" /><path
         d="M 0.437,-0.386 C 0.432,-0.386 0.425,-0.387 0.418,-0.389 0.41,-0.391 0.403,-0.393 0.395,-0.396 0.388,-0.4 0.381,-0.404 0.376,-0.408 0.37,-0.413 0.368,-0.418 0.368,-0.424 c 0,-0.005 0.001,-0.009 0.005,-0.012 0.003,-0.003 0.007,-0.005 0.011,-0.005 0.003,0 0.006,0.001 0.009,0.004 0.003,0.002 0.007,0.004 0.011,0.007 0.004,0.002 0.008,0.005 0.013,0.007 0.006,0.002 0.012,0.004 0.02,0.004 0.007,0 0.013,-0.002 0.019,-0.004 0.005,-0.002 0.01,-0.005 0.014,-0.007 0.004,-0.003 0.007,-0.005 0.01,-0.007 0.003,-0.003 0.006,-0.004 0.009,-0.004 0.004,0 0.008,0.002 0.011,0.005 0.004,0.003 0.005,0.007 0.005,0.012 0,0.006 -0.002,0.011 -0.008,0.016 -0.005,0.004 -0.011,0.008 -0.019,0.012 -0.007,0.003 -0.015,0.005 -0.023,0.007 -0.007,0.002 -0.014,0.003 -0.018,0.003 z m 0.039,-0.14 c 0,0.009 -0.003,0.017 -0.01,0.024 -0.007,0.007 -0.016,0.011 -0.025,0.011 -0.01,0 -0.018,-0.004 -0.025,-0.011 -0.007,-0.007 -0.01,-0.015 -0.01,-0.024 z m 0.491,0.035 C 0.958,-0.491 0.95,-0.495 0.943,-0.502 0.936,-0.509 0.932,-0.517 0.932,-0.526 h 0.07 c 0,0.009 -0.003,0.017 -0.01,0.024 -0.007,0.007 -0.015,0.011 -0.025,0.011 z"
         style="fill:#f7894a;fill-rule:nonzero"
         id="path6968" /><path
         d="m 0.862,-0.632 c 0.01,0 0.018,0.004 0.025,0.01 0.007,0.007 0.01,0.016 0.01,0.025 v 0.035 c 0,0.01 -0.003,0.019 -0.01,0.025 -0.007,0.007 -0.015,0.011 -0.025,0.011 -0.01,0 -0.018,-0.004 -0.025,-0.011 -0.007,-0.007 -0.01,-0.015 -0.01,-0.025 v -0.035 c 0,-0.009 0.003,-0.017 0.01,-0.024 0.007,-0.007 0.015,-0.011 0.025,-0.011 z m 0.245,0.07 c 0,0.01 -0.003,0.018 -0.01,0.025 -0.007,0.007 -0.015,0.011 -0.024,0.011 -0.01,0 -0.018,-0.004 -0.025,-0.011 -0.007,-0.006 -0.01,-0.015 -0.01,-0.025 v -0.035 c 0,-0.009 0.003,-0.018 0.01,-0.025 0.007,-0.006 0.015,-0.01 0.025,-0.01 0.009,0 0.017,0.004 0.024,0.011 0.007,0.007 0.01,0.015 0.01,0.024 z m -0.772,-0.07 c 0.01,0 0.019,0.004 0.025,0.01 0.007,0.007 0.011,0.016 0.011,0.025 v 0.035 c 0,0.01 -0.004,0.019 -0.011,0.025 C 0.354,-0.53 0.345,-0.526 0.335,-0.526 0.326,-0.526 0.317,-0.53 0.311,-0.537 0.304,-0.543 0.3,-0.552 0.3,-0.562 v -0.035 c 0,-0.009 0.004,-0.018 0.011,-0.025 0.006,-0.006 0.015,-0.01 0.024,-0.01 z m 0.211,0 c 0.01,0 0.018,0.004 0.025,0.01 0.007,0.007 0.01,0.016 0.01,0.025 v 0.035 c 0,0.01 -0.003,0.019 -0.01,0.025 -0.007,0.007 -0.015,0.011 -0.025,0.011 -0.01,0 -0.018,-0.004 -0.025,-0.011 -0.006,-0.007 -0.01,-0.015 -0.01,-0.025 v -0.035 c 0,-0.009 0.004,-0.017 0.01,-0.024 0.007,-0.007 0.015,-0.011 0.025,-0.011 z"
         style="fill-rule:nonzero"
         id="path6970" /><path
         d="m 0.919,-0.063 c 0.027,0.02 0.047,0.045 0.062,0.074 0.014,0.03 0.021,0.061 0.021,0.094 V 0.21 H 0.371 V 0.105 C 0.371,0.072 0.378,0.041 0.392,0.011 0.407,-0.018 0.427,-0.043 0.454,-0.063 0.445,-0.088 0.441,-0.114 0.441,-0.141 v -0.07 c 0,-0.034 0.006,-0.066 0.019,-0.095 0.013,-0.03 0.031,-0.056 0.053,-0.079 0.022,-0.022 0.048,-0.039 0.078,-0.052 0.03,-0.013 0.062,-0.02 0.096,-0.02 0.033,0 0.065,0.007 0.095,0.02 0.03,0.013 0.056,0.03 0.078,0.052 0.022,0.023 0.04,0.049 0.053,0.079 0.013,0.029 0.019,0.061 0.019,0.095 v 0.07 c 0,0.027 -0.004,0.053 -0.013,0.079 z"
         style="fill-rule:nonzero"
         id="path6972" /><path
         d="m 0.792,-0.035 c 0.019,0 0.037,0.004 0.054,0.011 0.018,0.007 0.032,0.017 0.045,0.03 0.013,0.013 0.023,0.027 0.03,0.045 0.007,0.017 0.011,0.035 0.011,0.054 V 0.14 H 0.441 V 0.105 C 0.441,0.086 0.445,0.068 0.452,0.051 0.459,0.033 0.469,0.019 0.482,0.006 0.495,-0.007 0.51,-0.017 0.527,-0.024 0.544,-0.031 0.562,-0.035 0.581,-0.035 Z"
         style="fill:#f7630c;fill-rule:nonzero"
         id="path6974" /><path
         d="m 0.81,-0.298 0.052,0.088 v 0.069 c 0,0.024 -0.005,0.047 -0.014,0.068 -0.009,0.022 -0.022,0.04 -0.037,0.056 C 0.795,-0.001 0.776,0.012 0.755,0.021 0.734,0.031 0.711,0.035 0.687,0.035 0.662,0.035 0.639,0.031 0.618,0.021 0.597,0.012 0.578,-0.001 0.562,-0.016 0.547,-0.032 0.534,-0.051 0.525,-0.072 0.516,-0.093 0.511,-0.116 0.511,-0.141 V -0.21 l 0.052,-0.088 z"
         style="fill:#ffc83d;fill-rule:nonzero"
         id="path6976" /><path
         d="m 0.599,-0.088 c 0.003,0 0.006,0.001 0.009,0.003 0.003,0.002 0.005,0.004 0.006,0.006 0.008,0.014 0.018,0.024 0.03,0.032 0.012,0.008 0.026,0.012 0.043,0.012 0.004,0 0.009,0.002 0.012,0.005 0.003,0.003 0.005,0.008 0.005,0.012 0,0.005 -0.002,0.009 -0.005,0.013 C 0.696,-0.002 0.691,0 0.687,0 0.665,0 0.645,-0.006 0.626,-0.017 0.608,-0.028 0.594,-0.043 0.583,-0.062 0.582,-0.065 0.581,-0.067 0.581,-0.07 c 0,-0.005 0.002,-0.009 0.005,-0.013 0.004,-0.003 0.008,-0.005 0.013,-0.005 z m 0.123,-0.053 c 0,0.01 -0.004,0.018 -0.011,0.025 -0.006,0.007 -0.015,0.011 -0.024,0.011 -0.01,0 -0.019,-0.004 -0.025,-0.011 C 0.655,-0.123 0.651,-0.131 0.651,-0.141 Z"
         style="fill:#f7894a;fill-rule:nonzero"
         id="path6978" /><path
         d="m 0.792,-0.246 c 0.009,0 0.018,0.004 0.024,0.011 0.007,0.007 0.011,0.015 0.011,0.025 v 0.034 c 0,0.01 -0.004,0.018 -0.011,0.025 -0.006,0.007 -0.015,0.01 -0.024,0.01 -0.01,0 -0.018,-0.003 -0.025,-0.01 C 0.76,-0.158 0.757,-0.166 0.757,-0.176 V -0.21 c 0,-0.01 0.003,-0.019 0.01,-0.025 0.007,-0.007 0.015,-0.011 0.025,-0.011 z m -0.211,0 c 0.01,0 0.018,0.004 0.025,0.011 0.007,0.006 0.01,0.015 0.01,0.025 v 0.034 c 0,0.01 -0.003,0.018 -0.01,0.025 -0.007,0.007 -0.015,0.01 -0.025,0.01 -0.009,0 -0.018,-0.003 -0.025,-0.01 -0.007,-0.007 -0.01,-0.015 -0.01,-0.025 V -0.21 c 0,-0.01 0.003,-0.018 0.01,-0.025 0.007,-0.007 0.016,-0.011 0.025,-0.011 z"
         style="fill-rule:nonzero"
         id="path6980" /><path
         d="m 0.687,-0.386 c 0.024,0 0.047,0.004 0.068,0.014 0.021,0.009 0.04,0.022 0.056,0.038 0.015,0.015 0.028,0.034 0.037,0.055 0.009,0.022 0.014,0.044 0.014,0.069 L 0.792,-0.281 H 0.581 l -0.07,0.071 c 0,-0.025 0.005,-0.048 0.014,-0.069 0.009,-0.021 0.022,-0.04 0.037,-0.056 0.016,-0.016 0.035,-0.028 0.056,-0.037 0.021,-0.01 0.044,-0.014 0.069,-0.014 z"
         style="fill:#8e562e;fill-rule:nonzero"
         id="path6982" /></g></g></svg>
