<?xml version="1.0" encoding="UTF-8" standalone="no"?>
<svg
   width="16.844999"
   height="16.83"
   viewBox="0 0 16.844999 16.83"
   version="1.1"
   xml:space="preserve"
   style="clip-rule:evenodd;fill-rule:evenodd;stroke-linejoin:round;stroke-miterlimit:2"
   id="svg20568"
   sodipodi:docname="emojis.svg"
   xmlns:inkscape="http://www.inkscape.org/namespaces/inkscape"
   xmlns:sodipodi="http://sodipodi.sourceforge.net/DTD/sodipodi-0.dtd"
   xmlns="http://www.w3.org/2000/svg"
   xmlns:svg="http://www.w3.org/2000/svg"><defs
     id="defs20572" /><sodipodi:namedview
     id="namedview20570"
     pagecolor="#505050"
     bordercolor="#eeeeee"
     borderopacity="1"
     inkscape:pageshadow="0"
     inkscape:pageopacity="0"
     inkscape:pagecheckerboard="0" /><g
     transform="matrix(0.24,0,0,0.24,-507.5094,-93.76392)"
     id="g20566"><g
       transform="matrix(62.5,0,0,62.5,2106.81,447.683)"
       id="g700"><path
         d="m 1.038,-0.699 c 0.016,0.006 0.033,0.013 0.05,0.021 0.016,0.008 0.032,0.017 0.047,0.027 0.014,0.01 0.028,0.022 0.04,0.035 0.011,0.014 0.021,0.029 0.029,0.046 0.014,0.035 0.025,0.07 0.033,0.107 0.007,0.037 0.011,0.074 0.011,0.112 0,0.052 -0.007,0.101 -0.02,0.149 C 1.215,-0.154 1.196,-0.11 1.171,-0.068 1.147,-0.026 1.118,0.012 1.083,0.046 1.049,0.08 1.011,0.109 0.97,0.134 0.928,0.158 0.883,0.177 0.835,0.19 0.788,0.204 0.738,0.21 0.687,0.21 0.635,0.21 0.585,0.204 0.537,0.19 0.49,0.177 0.445,0.158 0.404,0.134 0.362,0.109 0.324,0.08 0.29,0.046 0.256,0.012 0.227,-0.026 0.202,-0.068 0.178,-0.11 0.159,-0.154 0.146,-0.202 0.132,-0.25 0.125,-0.3 0.125,-0.351 0.125,-0.389 0.129,-0.426 0.136,-0.463 0.144,-0.5 0.155,-0.536 0.169,-0.57 0.177,-0.587 0.186,-0.602 0.198,-0.616 0.21,-0.629 0.224,-0.641 0.239,-0.651 0.253,-0.661 0.269,-0.67 0.286,-0.678 0.302,-0.686 0.319,-0.693 0.335,-0.699 v -0.006 c 0,-0.004 0,-0.009 0.001,-0.013 0.001,-0.005 0.001,-0.009 0.002,-0.013 0.003,-0.021 0.01,-0.041 0.02,-0.059 0.011,-0.017 0.024,-0.033 0.039,-0.046 0.016,-0.013 0.034,-0.023 0.053,-0.03 0.02,-0.008 0.04,-0.011 0.061,-0.011 0.016,-0.012 0.032,-0.02 0.051,-0.026 0.018,-0.006 0.036,-0.009 0.055,-0.009 0.012,0 0.024,0.001 0.036,0.003 0.011,0.003 0.022,0.006 0.034,0.011 0.011,-0.005 0.022,-0.008 0.033,-0.011 0.012,-0.002 0.024,-0.003 0.036,-0.003 0.019,0 0.037,0.003 0.056,0.009 0.018,0.006 0.035,0.014 0.05,0.026 0.02,0 0.04,0.003 0.059,0.01 0.02,0.007 0.037,0.017 0.053,0.03 0.016,0.013 0.029,0.028 0.04,0.045 0.011,0.018 0.018,0.037 0.021,0.058 0,0 0,0.001 0,0.001 0,0 0,0.001 0,0.002 0.001,0.004 0.001,0.008 0.002,0.013 0.001,0.005 0.001,0.01 0.001,0.014 0,0.001 0,0.002 0,0.003 0,0 0,0.001 0,0.002 z"
         style="fill-rule:nonzero"
         id="path680" /><path
         d="m 1.143,-0.523 c 0,0.024 -0.005,0.046 -0.015,0.065 -0.009,0.018 -0.022,0.034 -0.038,0.048 -0.016,0.014 -0.035,0.026 -0.057,0.036 -0.021,0.01 -0.044,0.018 -0.069,0.025 -0.024,0.006 -0.049,0.012 -0.075,0.015 -0.026,0.004 -0.051,0.007 -0.075,0.009 -0.025,0.001 -0.048,0.002 -0.07,0.003 -0.022,0 -0.041,0.001 -0.057,0.001 -0.03,0 -0.06,-0.001 -0.09,-0.003 C 0.568,-0.327 0.538,-0.33 0.509,-0.335 0.493,-0.338 0.475,-0.341 0.455,-0.345 0.435,-0.35 0.415,-0.356 0.395,-0.363 0.374,-0.37 0.354,-0.378 0.334,-0.388 0.315,-0.398 0.297,-0.409 0.282,-0.422 0.266,-0.435 0.254,-0.45 0.245,-0.467 0.235,-0.483 0.23,-0.502 0.23,-0.523 c 0,-0.015 0.006,-0.029 0.016,-0.042 0.01,-0.012 0.023,-0.024 0.04,-0.034 0.016,-0.01 0.034,-0.019 0.054,-0.026 0.02,-0.008 0.04,-0.015 0.06,-0.02 0.02,-0.006 0.038,-0.011 0.056,-0.014 0.017,-0.003 0.031,-0.006 0.042,-0.008 0.032,-0.004 0.063,-0.008 0.094,-0.01 0.032,-0.003 0.063,-0.004 0.095,-0.004 0.031,0 0.063,0.001 0.094,0.004 0.031,0.002 0.062,0.006 0.094,0.01 0.011,0.002 0.025,0.005 0.042,0.008 0.018,0.003 0.036,0.008 0.056,0.014 0.02,0.005 0.04,0.012 0.06,0.02 0.02,0.007 0.038,0.016 0.054,0.026 0.017,0.01 0.03,0.022 0.04,0.034 0.01,0.013 0.016,0.027 0.016,0.042 z"
         style="fill:#d48c00;fill-rule:nonzero"
         id="path682" /><path
         d="m 0.687,-0.321 c -0.014,0 -0.03,-0.001 -0.05,-0.001 C 0.617,-0.323 0.595,-0.324 0.572,-0.326 0.548,-0.328 0.523,-0.33 0.498,-0.334 0.472,-0.338 0.447,-0.342 0.422,-0.348 0.397,-0.354 0.374,-0.361 0.351,-0.369 0.329,-0.378 0.309,-0.388 0.292,-0.4 0.276,-0.412 0.262,-0.426 0.252,-0.441 0.242,-0.457 0.237,-0.474 0.237,-0.495 c 0,-0.013 0.006,-0.025 0.018,-0.036 0.012,-0.01 0.026,-0.02 0.045,-0.029 0.018,-0.008 0.038,-0.016 0.06,-0.023 0.022,-0.006 0.043,-0.012 0.064,-0.017 0.02,-0.005 0.039,-0.01 0.056,-0.013 0.017,-0.003 0.029,-0.006 0.037,-0.008 0.056,-0.007 0.113,-0.011 0.17,-0.011 0.028,0 0.056,0.001 0.084,0.003 0.028,0.002 0.057,0.005 0.085,0.009 0.013,0.002 0.028,0.004 0.045,0.008 0.017,0.003 0.035,0.007 0.054,0.012 0.018,0.005 0.037,0.011 0.055,0.017 0.019,0.007 0.037,0.015 0.053,0.023 0.016,0.009 0.031,0.018 0.044,0.029 0.013,0.011 0.022,0.023 0.029,0.036 v 0 c 0,0.021 -0.005,0.04 -0.015,0.056 -0.01,0.015 -0.023,0.029 -0.04,0.042 -0.017,0.012 -0.036,0.022 -0.058,0.03 -0.023,0.009 -0.046,0.016 -0.071,0.021 -0.024,0.006 -0.049,0.01 -0.075,0.013 -0.025,0.004 -0.05,0.006 -0.074,0.008 -0.024,0.001 -0.046,0.002 -0.066,0.003 -0.02,0 -0.037,0.001 -0.05,0.001 z"
         style="fill:#1f1f1f;fill-rule:nonzero"
         id="path684" /><path
         d="m 0.757,-0.482 c 0.011,0.006 0.019,0.015 0.025,0.025 0.007,0.011 0.01,0.023 0.01,0.035 0,0.01 -0.002,0.019 -0.006,0.027 -0.003,0.009 -0.008,0.016 -0.015,0.023 -0.006,0.006 -0.014,0.011 -0.022,0.015 -0.008,0.004 -0.018,0.005 -0.027,0.005 -0.012,0 -0.024,-0.003 -0.035,-0.009 -0.012,0.006 -0.024,0.009 -0.036,0.009 -0.009,0 -0.019,-0.001 -0.027,-0.005 C 0.616,-0.361 0.608,-0.366 0.602,-0.372 0.595,-0.379 0.59,-0.386 0.587,-0.395 0.583,-0.403 0.581,-0.412 0.581,-0.422 c 0,-0.012 0.003,-0.024 0.01,-0.035 0.006,-0.01 0.014,-0.019 0.025,-0.025 v -0.15 c 0,-0.01 0.004,-0.018 0.01,-0.025 0.007,-0.007 0.016,-0.01 0.025,-0.01 0.01,0 0.018,0.003 0.025,0.01 0.007,0.007 0.011,0.015 0.011,0.025 0,-0.01 0.003,-0.018 0.01,-0.025 0.007,-0.007 0.015,-0.01 0.025,-0.01 0.009,0 0.018,0.003 0.025,0.01 0.006,0.007 0.01,0.015 0.01,0.025 z"
         style="fill:#a6a6a6;fill-rule:nonzero"
         id="path686" /><path
         d="m 0.546,-0.457 c 0.01,0 0.019,0.002 0.027,0.006 0.009,0.003 0.016,0.008 0.022,0.015 0.007,0.006 0.012,0.013 0.016,0.022 0.003,0.008 0.005,0.018 0.005,0.027 0,0.01 -0.002,0.019 -0.005,0.028 -0.004,0.008 -0.009,0.016 -0.016,0.022 -0.006,0.007 -0.013,0.012 -0.022,0.015 -0.008,0.004 -0.017,0.006 -0.027,0.006 H 0.542 c -0.002,0 -0.003,-0.001 -0.005,-0.001 -0.006,0.011 -0.015,0.019 -0.026,0.026 -0.011,0.006 -0.023,0.01 -0.035,0.01 -0.01,0 -0.019,-0.002 -0.027,-0.006 C 0.44,-0.291 0.433,-0.296 0.427,-0.302 0.42,-0.308 0.415,-0.316 0.411,-0.324 0.408,-0.333 0.406,-0.342 0.406,-0.352 c 0,-0.009 0.002,-0.018 0.005,-0.027 0.004,-0.008 0.009,-0.016 0.016,-0.022 0.006,-0.006 0.013,-0.012 0.022,-0.015 0.008,-0.004 0.017,-0.006 0.027,-0.006 0.002,0 0.003,0 0.004,0 0.002,0.001 0.003,0.001 0.005,0.001 0.006,-0.011 0.015,-0.02 0.025,-0.026 0.011,-0.007 0.023,-0.01 0.036,-0.01 z m 0.342,0.036 c 0.002,0 0.004,0 0.006,-0.001 0.002,0 0.003,0 0.005,0 0.009,0 0.018,0.002 0.026,0.006 0.008,0.003 0.016,0.009 0.022,0.015 0.006,0.007 0.011,0.014 0.015,0.023 0.003,0.008 0.005,0.017 0.005,0.026 0,0.01 -0.002,0.019 -0.005,0.028 -0.004,0.008 -0.009,0.016 -0.015,0.022 -0.007,0.006 -0.014,0.011 -0.023,0.015 -0.008,0.004 -0.017,0.006 -0.027,0.006 -0.012,0 -0.024,-0.004 -0.035,-0.01 -0.011,-0.007 -0.02,-0.015 -0.026,-0.026 -0.002,0 -0.003,0.001 -0.005,0.001 -0.002,0 -0.003,0 -0.005,0 C 0.817,-0.316 0.808,-0.318 0.8,-0.322 0.791,-0.325 0.784,-0.33 0.778,-0.337 0.771,-0.343 0.766,-0.351 0.762,-0.36 0.759,-0.368 0.757,-0.377 0.757,-0.387 c 0,-0.009 0.002,-0.019 0.005,-0.027 0.004,-0.009 0.009,-0.016 0.015,-0.022 0.006,-0.007 0.014,-0.012 0.022,-0.015 0.009,-0.004 0.018,-0.006 0.028,-0.006 0.012,0 0.024,0.003 0.035,0.01 0.011,0.006 0.02,0.015 0.026,0.026 z"
         style="fill:#f2f2f2;fill-rule:nonzero"
         id="path688" /><path
         d="m 0.862,-0.808 c 0.012,0 0.024,0.003 0.036,0.007 0.012,0.004 0.022,0.01 0.032,0.018 0.01,0.008 0.018,0.017 0.024,0.028 0.006,0.01 0.01,0.022 0.012,0.035 v 0.004 c 0,0.004 -0.001,0.008 -0.002,0.012 -0.001,0.004 -0.002,0.008 -0.002,0.012 l -0.003,0.006 c -0.006,0.012 -0.011,0.023 -0.017,0.032 -0.005,0.01 -0.011,0.018 -0.018,0.024 -0.007,0.006 -0.015,0.011 -0.025,0.014 -0.009,0.004 -0.022,0.005 -0.037,0.005 -0.009,0 -0.017,-0.001 -0.025,-0.003 -0.009,0.012 -0.021,0.022 -0.035,0.028 -0.015,0.007 -0.03,0.01 -0.045,0.01 -0.013,0 -0.026,-0.002 -0.038,-0.007 -0.012,-0.005 -0.023,-0.011 -0.032,-0.02 -0.01,0.009 -0.021,0.015 -0.033,0.02 -0.012,0.005 -0.025,0.007 -0.038,0.007 -0.015,0 -0.03,-0.004 -0.044,-0.01 C 0.557,-0.593 0.545,-0.602 0.535,-0.614 0.527,-0.612 0.519,-0.611 0.511,-0.611 0.5,-0.611 0.49,-0.612 0.48,-0.614 0.471,-0.616 0.463,-0.619 0.456,-0.623 0.448,-0.628 0.442,-0.633 0.436,-0.641 0.43,-0.648 0.425,-0.657 0.42,-0.667 0.418,-0.671 0.416,-0.675 0.414,-0.679 0.412,-0.683 0.411,-0.688 0.41,-0.692 0.409,-0.695 0.408,-0.7 0.408,-0.705 L 0.407,-0.72 c 0.003,-0.013 0.007,-0.025 0.013,-0.035 0.006,-0.011 0.014,-0.02 0.023,-0.028 0.009,-0.008 0.02,-0.014 0.031,-0.018 0.012,-0.004 0.024,-0.007 0.037,-0.007 0.004,0 0.009,0.001 0.013,0.002 0.004,0.001 0.008,0.001 0.012,0.001 h 0.301 c 0.004,0 0.008,0 0.012,-0.001 0.004,-0.001 0.009,-0.002 0.013,-0.002 z"
         style="fill:#cccccc;fill-rule:nonzero"
         id="path690" /><path
         d="m 0.616,-0.772 c -0.022,0 -0.043,0.006 -0.061,0.019 -0.018,0.013 -0.03,0.03 -0.038,0.051 -0.004,-0.011 -0.006,-0.023 -0.006,-0.035 0,-0.015 0.003,-0.029 0.009,-0.041 0.005,-0.013 0.013,-0.024 0.022,-0.034 0.009,-0.009 0.021,-0.016 0.033,-0.022 0.013,-0.006 0.027,-0.008 0.041,-0.008 0.013,0 0.026,0.002 0.038,0.007 0.012,0.005 0.023,0.011 0.033,0.02 0.009,-0.009 0.02,-0.015 0.032,-0.02 0.012,-0.005 0.025,-0.007 0.038,-0.007 0.014,0 0.028,0.002 0.041,0.008 0.013,0.006 0.024,0.013 0.033,0.022 0.009,0.01 0.017,0.021 0.023,0.034 0.005,0.012 0.008,0.026 0.008,0.041 0,0.012 -0.002,0.024 -0.006,0.035 C 0.848,-0.723 0.836,-0.74 0.818,-0.753 0.8,-0.766 0.779,-0.772 0.757,-0.772 0.744,-0.772 0.731,-0.77 0.719,-0.766 0.707,-0.761 0.696,-0.755 0.687,-0.746 0.677,-0.755 0.666,-0.761 0.654,-0.766 0.642,-0.77 0.629,-0.772 0.616,-0.772 Z m 0.106,0.35 c 0.009,0 0.019,0.002 0.027,0.006 0.008,0.003 0.016,0.009 0.022,0.015 0.007,0.006 0.012,0.014 0.015,0.022 0.004,0.009 0.006,0.018 0.006,0.027 0,0.01 -0.002,0.019 -0.006,0.028 -0.003,0.008 -0.008,0.016 -0.015,0.022 -0.006,0.006 -0.014,0.011 -0.022,0.015 -0.008,0.004 -0.018,0.006 -0.027,0.006 -0.012,0 -0.024,-0.003 -0.035,-0.01 -0.012,0.007 -0.024,0.01 -0.036,0.01 -0.009,0 -0.019,-0.002 -0.027,-0.006 C 0.616,-0.291 0.608,-0.296 0.602,-0.302 0.595,-0.308 0.59,-0.316 0.587,-0.324 0.583,-0.333 0.581,-0.342 0.581,-0.352 0.581,-0.361 0.583,-0.37 0.587,-0.379 0.59,-0.387 0.595,-0.395 0.602,-0.401 0.608,-0.407 0.616,-0.413 0.624,-0.416 0.632,-0.42 0.642,-0.422 0.651,-0.422 v -0.165 l 0.035,-0.021 0.036,0.021 z"
         style="fill:#e5e5e5;fill-rule:nonzero"
         id="path692" /><path
         d="m 0.862,-0.632 c 0.013,0 0.025,-0.003 0.036,-0.007 0.012,-0.004 0.023,-0.01 0.032,-0.018 0.009,-0.008 0.017,-0.017 0.023,-0.028 0.007,-0.011 0.011,-0.023 0.013,-0.035 0.001,0.006 0.001,0.012 0.001,0.017 0,0.015 -0.002,0.029 -0.008,0.041 -0.006,0.013 -0.013,0.024 -0.023,0.034 -0.009,0.009 -0.02,0.017 -0.033,0.023 -0.013,0.005 -0.027,0.008 -0.041,0.008 -0.004,0 -0.009,0 -0.013,-0.001 C 0.845,-0.599 0.841,-0.6 0.837,-0.601 c -0.01,0.012 -0.022,0.022 -0.036,0.029 -0.014,0.007 -0.029,0.01 -0.044,0.01 -0.013,0 -0.026,-0.002 -0.038,-0.007 -0.012,-0.005 -0.023,-0.012 -0.032,-0.02 -0.01,0.008 -0.021,0.015 -0.033,0.02 -0.012,0.005 -0.025,0.007 -0.038,0.007 -0.015,0 -0.03,-0.003 -0.044,-0.01 C 0.558,-0.579 0.546,-0.589 0.536,-0.601 0.532,-0.6 0.528,-0.599 0.524,-0.598 0.52,-0.597 0.515,-0.597 0.511,-0.597 0.497,-0.597 0.483,-0.6 0.47,-0.605 0.458,-0.611 0.446,-0.619 0.437,-0.628 0.427,-0.638 0.42,-0.649 0.414,-0.662 0.409,-0.674 0.406,-0.688 0.406,-0.703 c 0,-0.005 0,-0.011 10e-4,-0.017 0.002,0.012 0.006,0.024 0.013,0.035 0.006,0.011 0.014,0.02 0.023,0.028 0.009,0.008 0.02,0.014 0.032,0.018 0.011,0.004 0.024,0.007 0.036,0.007 0.004,0 0.009,-0.001 0.013,-0.001 0.004,-0.001 0.008,-0.002 0.012,-0.003 0.01,0.012 0.022,0.022 0.036,0.029 0.014,0.006 0.029,0.01 0.044,0.01 0.013,0 0.026,-0.003 0.038,-0.007 0.012,-0.005 0.023,-0.012 0.033,-0.021 0.009,0.009 0.02,0.016 0.032,0.021 0.012,0.004 0.025,0.007 0.038,0.007 0.015,0 0.03,-0.004 0.044,-0.01 0.014,-0.007 0.026,-0.017 0.036,-0.029 0.004,0.001 0.008,0.002 0.012,0.003 0.004,0 0.009,0.001 0.013,0.001 z"
         style="fill:#757575;fill-rule:nonzero"
         id="path694" /><path
         d="m 1.143,-0.523 c 0,-0.003 -0.001,-0.005 -0.001,-0.008 0,-0.004 -10e-4,-0.006 -0.002,-0.009 0.013,0.03 0.022,0.061 0.028,0.092 0.007,0.032 0.01,0.064 0.01,0.096 0,0.046 -0.006,0.089 -0.018,0.131 -0.012,0.042 -0.028,0.081 -0.049,0.117 -0.022,0.037 -0.047,0.07 -0.077,0.1 C 1.004,0.026 0.971,0.051 0.935,0.073 0.898,0.094 0.859,0.11 0.817,0.122 0.775,0.134 0.732,0.14 0.687,0.14 0.641,0.14 0.598,0.134 0.556,0.122 0.514,0.11 0.475,0.094 0.438,0.073 0.402,0.051 0.369,0.026 0.339,-0.004 0.309,-0.034 0.284,-0.067 0.262,-0.104 0.241,-0.14 0.225,-0.179 0.213,-0.221 0.201,-0.263 0.195,-0.306 0.195,-0.352 c 0,-0.032 0.003,-0.065 0.01,-0.097 0.006,-0.032 0.016,-0.063 0.028,-0.093 -0.001,0.003 -0.002,0.006 -0.002,0.01 0,0.003 -0.001,0.006 -0.001,0.009 0,0.016 0.006,0.031 0.018,0.044 0.011,0.013 0.026,0.025 0.044,0.036 0.017,0.01 0.038,0.019 0.06,0.027 0.022,0.008 0.044,0.014 0.066,0.02 0.021,0.006 0.042,0.01 0.061,0.013 0.018,0.004 0.034,0.006 0.045,0.008 0.027,0.003 0.054,0.006 0.081,0.008 0.027,0.001 0.054,0.002 0.082,0.002 0.027,0 0.054,-0.001 0.081,-0.002 0.027,-0.002 0.054,-0.005 0.081,-0.008 0.012,-0.002 0.027,-0.004 0.046,-0.008 0.018,-0.003 0.039,-0.007 0.06,-0.013 0.022,-0.006 0.044,-0.012 0.066,-0.02 0.023,-0.008 0.043,-0.017 0.061,-0.027 0.017,-0.011 0.032,-0.023 0.043,-0.036 0.012,-0.013 0.018,-0.028 0.018,-0.044 z"
         style="fill:#ffc83d;fill-rule:nonzero"
         id="path696" /><path
         d="m 0.494,-0.316 c 0.007,0 0.014,0.001 0.02,0.004 0.007,0.003 0.012,0.007 0.017,0.012 0.004,0.005 0.008,0.01 0.011,0.017 0.003,0.006 0.004,0.013 0.004,0.02 v 0.07 c 0,0.007 -0.001,0.014 -0.004,0.02 -0.003,0.006 -0.007,0.012 -0.011,0.017 -0.005,0.005 -0.01,0.008 -0.017,0.011 -0.006,0.003 -0.013,0.004 -0.02,0.004 -0.008,0 -0.015,-0.001 -0.021,-0.004 C 0.467,-0.148 0.461,-0.151 0.456,-0.156 0.452,-0.161 0.448,-0.166 0.445,-0.173 0.442,-0.179 0.441,-0.186 0.441,-0.193 v -0.07 c 0,-0.007 0.001,-0.014 0.004,-0.021 0.003,-0.006 0.007,-0.012 0.011,-0.017 0.005,-0.004 0.011,-0.008 0.017,-0.011 0.006,-0.003 0.013,-0.004 0.021,-0.004 z m 0.385,0 c 0.008,0 0.014,0.001 0.021,0.004 0.006,0.003 0.012,0.007 0.017,0.011 0.004,0.005 0.008,0.011 0.011,0.017 0.003,0.007 0.004,0.014 0.004,0.021 v 0.07 c 0,0.007 -0.001,0.014 -0.004,0.02 -0.003,0.007 -0.007,0.012 -0.011,0.017 -0.005,0.005 -0.011,0.008 -0.017,0.011 -0.007,0.003 -0.013,0.004 -0.021,0.004 -0.007,0 -0.014,-0.001 -0.02,-0.004 C 0.853,-0.148 0.847,-0.151 0.842,-0.156 0.837,-0.161 0.834,-0.167 0.831,-0.173 0.828,-0.179 0.827,-0.186 0.827,-0.193 v -0.07 c 0,-0.007 0.001,-0.014 0.004,-0.02 0.003,-0.007 0.006,-0.012 0.011,-0.017 0.005,-0.005 0.011,-0.009 0.017,-0.012 0.006,-0.003 0.013,-0.004 0.02,-0.004 z m -0.192,0.211 c 0.014,0 0.028,0.002 0.041,0.008 0.012,0.005 0.023,0.013 0.033,0.023 0.009,0.009 0.017,0.02 0.022,0.033 C 0.789,-0.028 0.792,-0.015 0.792,0 0.792,0.015 0.789,0.028 0.783,0.041 0.778,0.054 0.77,0.065 0.761,0.074 0.751,0.084 0.74,0.091 0.728,0.097 0.715,0.102 0.701,0.105 0.687,0.105 0.672,0.105 0.658,0.102 0.646,0.097 0.633,0.091 0.622,0.084 0.612,0.074 0.602,0.065 0.595,0.054 0.589,0.041 0.584,0.028 0.581,0.015 0.581,0 c 0,-0.015 0.003,-0.028 0.008,-0.041 0.006,-0.013 0.013,-0.024 0.023,-0.033 0.01,-0.01 0.021,-0.018 0.034,-0.023 0.012,-0.006 0.026,-0.008 0.041,-0.008 z"
         style="fill-rule:nonzero"
         id="path698" /></g></g></svg>
