<?xml version="1.0" encoding="UTF-8" standalone="no"?>
<svg
   width="16.844999"
   height="14.73"
   viewBox="0 0 16.844999 14.73"
   version="1.1"
   xml:space="preserve"
   style="clip-rule:evenodd;fill-rule:evenodd;stroke-linejoin:round;stroke-miterlimit:2"
   id="svg20568"
   sodipodi:docname="emojis.svg"
   xmlns:inkscape="http://www.inkscape.org/namespaces/inkscape"
   xmlns:sodipodi="http://sodipodi.sourceforge.net/DTD/sodipodi-0.dtd"
   xmlns="http://www.w3.org/2000/svg"
   xmlns:svg="http://www.w3.org/2000/svg"><defs
     id="defs20572" /><sodipodi:namedview
     id="namedview20570"
     pagecolor="#505050"
     bordercolor="#eeeeee"
     borderopacity="1"
     inkscape:pageshadow="0"
     inkscape:pageopacity="0"
     inkscape:pagecheckerboard="0" /><g
     transform="matrix(0.24,0,0,0.24,-150.54996,-316.476)"
     id="g20566"><g
       transform="matrix(62.5,0,0,62.5,619.479,1366.9)"
       id="g7104"><path
         d="m 1.052,-0.206 c 0.029,0.006 0.055,0.017 0.079,0.032 0.024,0.015 0.045,0.033 0.062,0.054 0.017,0.021 0.031,0.045 0.04,0.072 0.01,0.026 0.015,0.054 0.015,0.083 V 0.21 H 0.125 V 0.035 C 0.125,0.006 0.13,-0.022 0.139,-0.048 0.149,-0.075 0.163,-0.099 0.18,-0.12 0.197,-0.141 0.218,-0.159 0.242,-0.174 0.266,-0.189 0.292,-0.2 0.321,-0.206 0.301,-0.223 0.284,-0.243 0.27,-0.265 0.256,-0.287 0.246,-0.311 0.239,-0.336 0.222,-0.348 0.21,-0.362 0.204,-0.379 0.198,-0.396 0.195,-0.414 0.195,-0.434 c 0,-0.01 0.001,-0.02 0.001,-0.029 0.001,-0.009 0.002,-0.018 0.005,-0.027 0.002,-0.008 0.006,-0.016 0.011,-0.023 0.004,-0.008 0.011,-0.016 0.019,-0.023 0.004,-0.034 0.013,-0.065 0.028,-0.093 0.015,-0.029 0.035,-0.054 0.058,-0.075 0.024,-0.021 0.051,-0.038 0.081,-0.05 0.03,-0.012 0.062,-0.018 0.096,-0.018 0.037,0 0.072,0.007 0.105,0.022 0.033,0.014 0.062,0.035 0.088,0.063 0.024,-0.028 0.053,-0.049 0.087,-0.063 0.033,-0.015 0.069,-0.022 0.105,-0.022 0.034,0 0.066,0.006 0.096,0.018 0.03,0.012 0.057,0.029 0.081,0.05 0.023,0.021 0.042,0.046 0.058,0.075 0.015,0.028 0.024,0.059 0.028,0.093 0.012,0.011 0.021,0.023 0.027,0.037 0.006,0.014 0.009,0.029 0.009,0.045 0,0.012 -10e-4,0.024 -10e-4,0.035 -0.001,0.011 -0.003,0.021 -0.005,0.031 -0.003,0.01 -0.007,0.019 -0.013,0.027 -0.006,0.009 -0.014,0.017 -0.025,0.025 -0.007,0.025 -0.017,0.049 -0.031,0.071 -0.014,0.022 -0.031,0.042 -0.051,0.059 z"
         style="fill-rule:nonzero"
         id="path7092" /><path
         d="m 1.002,-0.141 c 0.025,0 0.047,0.005 0.069,0.014 0.021,0.01 0.039,0.022 0.055,0.038 0.016,0.016 0.029,0.035 0.038,0.056 0.009,0.021 0.014,0.044 0.014,0.068 V 0.14 H 0.581 V -0.141 Z M 0.879,-0.21 C 0.853,-0.21 0.828,-0.215 0.804,-0.226 0.781,-0.236 0.76,-0.25 0.743,-0.267 0.726,-0.285 0.712,-0.305 0.702,-0.329 0.692,-0.352 0.687,-0.377 0.687,-0.404 v -0.105 c 0,-0.001 0,-0.003 0.002,-0.008 0.001,-0.004 0.003,-0.008 0.005,-0.013 l 0.009,-0.023 c 0.008,-0.02 0.018,-0.037 0.029,-0.051 0.011,-0.014 0.024,-0.026 0.038,-0.035 0.014,-0.009 0.03,-0.016 0.048,-0.02 0.018,-0.005 0.037,-0.007 0.059,-0.007 0.02,0 0.039,0.002 0.056,0.006 0.018,0.003 0.035,0.009 0.05,0.018 0.015,0.008 0.028,0.019 0.041,0.032 0.012,0.013 0.022,0.028 0.031,0.047 0.006,0.012 0.01,0.023 0.013,0.035 0.003,0.011 0.005,0.024 0.005,0.037 0.008,0 0.014,0.001 0.019,0.005 0.005,0.003 0.008,0.008 0.011,0.013 0.002,0.005 0.003,0.011 0.004,0.017 0.001,0.007 0.001,0.013 0.001,0.019 0,0.007 0,0.013 -0.001,0.019 -10e-4,0.006 -0.003,0.012 -0.005,0.016 -0.003,0.005 -0.006,0.008 -0.011,0.011 -0.004,0.003 -0.01,0.005 -0.018,0.005 -0.003,0.025 -0.01,0.048 -0.021,0.069 -0.011,0.022 -0.025,0.04 -0.042,0.056 -0.017,0.016 -0.037,0.028 -0.06,0.037 -0.022,0.009 -0.046,0.014 -0.071,0.014 z"
         style="fill:#383838;fill-rule:nonzero"
         id="path7094" /><path
         d="m 0.616,-0.141 c 0.025,0 0.047,0.005 0.069,0.014 0.021,0.01 0.04,0.022 0.055,0.038 0.016,0.016 0.029,0.034 0.038,0.056 0.009,0.021 0.014,0.044 0.014,0.068 V 0.14 H 0.195 V 0.035 c 0,-0.024 0.005,-0.047 0.014,-0.068 0.01,-0.021 0.022,-0.04 0.038,-0.056 0.016,-0.016 0.034,-0.028 0.055,-0.038 0.022,-0.009 0.045,-0.014 0.069,-0.014 z M 0.301,-0.386 C 0.293,-0.386 0.287,-0.388 0.282,-0.391 0.277,-0.394 0.274,-0.399 0.271,-0.404 0.269,-0.409 0.267,-0.415 0.266,-0.421 c 0,-0.006 -0.001,-0.013 -0.001,-0.019 0,-0.006 0,-0.012 0.001,-0.018 0.001,-0.006 0.002,-0.012 0.005,-0.017 0.002,-0.004 0.006,-0.008 0.01,-0.012 0.004,-0.003 0.011,-0.004 0.018,-0.004 0.006,0 0.012,-0.004 0.02,-0.012 0.008,-0.008 0.016,-0.018 0.026,-0.03 0.01,-0.012 0.02,-0.025 0.031,-0.039 0.012,-0.014 0.024,-0.027 0.036,-0.039 0.012,-0.012 0.025,-0.022 0.039,-0.03 0.013,-0.008 0.026,-0.012 0.04,-0.012 0.013,0 0.028,0.001 0.043,0.004 0.015,0.003 0.029,0.007 0.044,0.012 0.014,0.005 0.028,0.012 0.041,0.02 0.014,0.008 0.025,0.017 0.035,0.028 0.01,0.011 0.018,0.023 0.024,0.036 0.006,0.014 0.009,0.028 0.009,0.044 v 0.018 c 0.007,0 0.014,0.001 0.018,0.005 0.005,0.003 0.008,0.007 0.011,0.012 0.002,0.006 0.004,0.011 0.004,0.017 0.001,0.007 0.002,0.013 0.002,0.019 0,0.007 -0.001,0.013 -0.002,0.019 0,0.006 -0.002,0.012 -0.004,0.017 -0.003,0.005 -0.006,0.008 -0.011,0.011 -0.004,0.003 -0.011,0.005 -0.018,0.005 -0.003,0.025 -0.01,0.048 -0.021,0.069 -0.011,0.022 -0.025,0.04 -0.042,0.056 C 0.607,-0.245 0.587,-0.233 0.565,-0.224 0.542,-0.215 0.519,-0.21 0.494,-0.21 0.469,-0.21 0.445,-0.215 0.423,-0.224 0.4,-0.233 0.381,-0.245 0.363,-0.261 0.346,-0.277 0.332,-0.295 0.321,-0.317 0.31,-0.338 0.304,-0.361 0.301,-0.386 Z"
         style="fill:#757575;fill-rule:nonzero"
         id="path7096" /><path
         d="m 0.792,-0.491 c 0.009,0 0.018,0.003 0.024,0.01 0.007,0.007 0.011,0.015 0.011,0.024 v 0.036 c 0,0.009 -0.004,0.017 -0.011,0.024 -0.006,0.007 -0.015,0.011 -0.024,0.011 -0.01,0 -0.018,-0.004 -0.025,-0.01 -0.007,-0.007 -0.01,-0.016 -0.01,-0.025 v -0.036 c 0,-0.009 0.003,-0.017 0.01,-0.024 0.007,-0.007 0.016,-0.01 0.025,-0.01 z m 0.175,0 c 0.01,0 0.018,0.003 0.025,0.01 0.007,0.007 0.01,0.015 0.01,0.024 v 0.036 c 0,0.009 -0.003,0.018 -0.01,0.025 -0.007,0.006 -0.015,0.01 -0.025,0.01 -0.009,0 -0.018,-0.004 -0.025,-0.01 -0.006,-0.007 -0.01,-0.016 -0.01,-0.025 v -0.036 c 0,-0.009 0.004,-0.017 0.011,-0.024 0.007,-0.007 0.015,-0.01 0.024,-0.01 z m -0.561,0 c 0.009,0 0.017,0.003 0.024,0.01 0.007,0.007 0.011,0.015 0.011,0.024 v 0.036 c 0,0.009 -0.003,0.018 -0.01,0.025 -0.007,0.006 -0.015,0.01 -0.025,0.01 -0.01,0 -0.018,-0.004 -0.025,-0.01 -0.007,-0.007 -0.01,-0.016 -0.01,-0.025 v -0.036 c 0,-0.009 0.003,-0.017 0.01,-0.024 0.007,-0.007 0.015,-0.01 0.025,-0.01 z m 0.175,0 c 0.009,0 0.018,0.003 0.025,0.01 0.007,0.007 0.01,0.015 0.01,0.024 v 0.036 c 0,0.009 -0.003,0.018 -0.01,0.025 -0.007,0.006 -0.015,0.01 -0.025,0.01 -0.009,0 -0.018,-0.004 -0.025,-0.011 -0.007,-0.007 -0.01,-0.015 -0.01,-0.024 v -0.036 c 0,-0.009 0.003,-0.017 0.01,-0.024 0.007,-0.007 0.016,-0.01 0.025,-0.01 z"
         style="fill-rule:nonzero"
         id="path7098" /><path
         d="m 0.687,-0.527 -0.11,-0.082 c -0.036,0.038 -0.078,0.067 -0.126,0.088 -0.048,0.02 -0.098,0.03 -0.151,0.03 v -0.018 c 0,-0.026 0.005,-0.052 0.015,-0.075 0.011,-0.023 0.024,-0.044 0.042,-0.062 0.018,-0.017 0.038,-0.031 0.061,-0.041 0.024,-0.01 0.049,-0.015 0.076,-0.015 0.017,0 0.034,0.002 0.05,0.007 0.017,0.004 0.032,0.011 0.047,0.019 0.027,0.016 0.05,0.037 0.066,0.062 0.017,0.026 0.027,0.055 0.03,0.087 z"
         style="fill:#383838;fill-rule:nonzero"
         id="path7100" /><path
         d="M 1.073,-0.527 0.962,-0.61 c -0.036,0.039 -0.078,0.068 -0.126,0.088 -0.047,0.021 -0.097,0.031 -0.15,0.031 v -0.018 c 0,-0.026 0.005,-0.052 0.015,-0.075 0.01,-0.023 0.024,-0.044 0.041,-0.062 0.017,-0.017 0.038,-0.031 0.061,-0.041 0.024,-0.01 0.049,-0.015 0.075,-0.015 0.018,0 0.035,0.002 0.051,0.007 0.017,0.004 0.033,0.011 0.048,0.019 0.028,0.016 0.05,0.037 0.066,0.062 0.017,0.026 0.026,0.055 0.03,0.087 z"
         style="fill:#2b2b2b;fill-rule:nonzero"
         id="path7102" /></g></g></svg>
