<?xml version="1.0" encoding="UTF-8" standalone="no"?>
<svg
   width="16.844999"
   height="16.844999"
   viewBox="0 0 16.844999 16.844999"
   version="1.1"
   xml:space="preserve"
   style="clip-rule:evenodd;fill-rule:evenodd;stroke-linejoin:round;stroke-miterlimit:2"
   id="svg20568"
   sodipodi:docname="emojis.svg"
   xmlns:inkscape="http://www.inkscape.org/namespaces/inkscape"
   xmlns:sodipodi="http://sodipodi.sourceforge.net/DTD/sodipodi-0.dtd"
   xmlns="http://www.w3.org/2000/svg"
   xmlns:svg="http://www.w3.org/2000/svg"><defs
     id="defs20572" /><sodipodi:namedview
     id="namedview20570"
     pagecolor="#505050"
     bordercolor="#eeeeee"
     borderopacity="1"
     inkscape:pageshadow="0"
     inkscape:pageopacity="0"
     inkscape:pagecheckerboard="0" /><g
     transform="matrix(0.24,0,0,0.24,-528.1062,-93.74892)"
     id="g20566"><g
       transform="matrix(62.5,0,0,62.5,2192.63,447.683)"
       id="g712"><path
         d="m 1.107,-0.772 c 0.019,0 0.037,0.004 0.054,0.011 0.017,0.008 0.032,0.018 0.045,0.031 0.013,0.012 0.023,0.027 0.031,0.044 0.007,0.017 0.011,0.035 0.011,0.054 v 0.07 c 0,0.021 -0.003,0.04 -0.009,0.06 -0.006,0.019 -0.015,0.037 -0.026,0.055 -0.01,0.017 -0.023,0.033 -0.038,0.047 -0.014,0.015 -0.03,0.027 -0.047,0.037 0.01,0.038 0.015,0.078 0.015,0.118 0,0.042 -0.005,0.082 -0.016,0.121 C 1.116,-0.085 1.1,-0.049 1.081,-0.015 1.061,0.018 1.037,0.049 1.009,0.077 0.981,0.105 0.95,0.128 0.917,0.148 0.883,0.168 0.847,0.183 0.808,0.194 0.769,0.205 0.729,0.21 0.687,0.21 0.645,0.21 0.605,0.205 0.566,0.194 0.527,0.183 0.491,0.168 0.457,0.148 0.424,0.128 0.393,0.105 0.365,0.077 0.337,0.049 0.313,0.018 0.293,-0.015 0.274,-0.049 0.258,-0.085 0.247,-0.124 0.236,-0.163 0.231,-0.203 0.231,-0.245 c 0,-0.02 0.001,-0.04 0.004,-0.059 0.002,-0.02 0.006,-0.039 0.011,-0.058 C 0.229,-0.372 0.213,-0.385 0.198,-0.399 0.183,-0.413 0.17,-0.429 0.16,-0.447 0.149,-0.464 0.14,-0.482 0.134,-0.502 0.128,-0.521 0.125,-0.541 0.125,-0.562 v -0.07 c 0,-0.019 0.004,-0.037 0.011,-0.054 0.007,-0.017 0.017,-0.032 0.03,-0.045 0.013,-0.013 0.028,-0.023 0.045,-0.03 0.017,-0.007 0.035,-0.011 0.054,-0.011 0.023,0 0.044,0.005 0.064,0.015 0.02,0.011 0.037,0.025 0.05,0.044 0.006,-0.027 0.016,-0.053 0.029,-0.077 0.014,-0.024 0.03,-0.045 0.05,-0.063 0.02,-0.018 0.042,-0.033 0.067,-0.043 0.025,-0.011 0.051,-0.017 0.08,-0.017 0.015,0 0.03,0.003 0.044,0.008 0.014,0.005 0.026,0.013 0.038,0.024 0.011,-0.011 0.024,-0.019 0.038,-0.024 0.014,-0.005 0.028,-0.008 0.044,-0.008 0.029,0 0.055,0.006 0.08,0.016 0.025,0.011 0.047,0.025 0.067,0.043 0.02,0.018 0.036,0.039 0.049,0.063 0.014,0.024 0.023,0.05 0.029,0.077 0.014,-0.019 0.03,-0.033 0.05,-0.043 0.019,-0.01 0.041,-0.015 0.063,-0.015 z"
         style="fill-rule:nonzero"
         id="path702" /><path
         d="m 0.39,-0.491 h 0.594 c 0.03,0.034 0.052,0.073 0.067,0.115 0.015,0.042 0.022,0.086 0.022,0.131 0,0.035 -0.004,0.07 -0.014,0.102 C 1.05,-0.11 1.037,-0.079 1.02,-0.051 1.003,-0.022 0.983,0.004 0.96,0.027 0.936,0.051 0.91,0.071 0.882,0.088 0.853,0.104 0.822,0.117 0.79,0.126 0.757,0.136 0.722,0.14 0.687,0.14 0.652,0.14 0.617,0.136 0.584,0.126 0.552,0.117 0.521,0.104 0.492,0.088 0.464,0.071 0.438,0.051 0.414,0.027 0.391,0.004 0.371,-0.022 0.354,-0.051 0.337,-0.079 0.324,-0.11 0.315,-0.143 0.305,-0.175 0.301,-0.21 0.301,-0.245 0.301,-0.29 0.308,-0.334 0.323,-0.376 0.338,-0.418 0.36,-0.457 0.39,-0.491 Z"
         style="fill:#ffc83d;fill-rule:nonzero"
         id="path704" /><path
         d="m 0.687,-0.07 c 0.027,0 0.054,-0.004 0.081,-0.011 0.027,-0.007 0.052,-0.017 0.075,-0.031 L 0.869,-0.13 c 0.005,-0.003 0.01,-0.005 0.015,-0.007 0.004,-0.003 0.009,-0.004 0.013,-0.004 0.01,0 0.018,0.004 0.025,0.011 0.007,0.007 0.01,0.015 0.01,0.025 0,0.006 -0.001,0.011 -0.004,0.015 -0.002,0.004 -0.005,0.009 -0.01,0.013 -0.014,0.013 -0.03,0.024 -0.049,0.033 C 0.85,-0.034 0.83,-0.026 0.809,-0.02 0.788,-0.013 0.767,-0.008 0.746,-0.005 0.725,-0.002 0.705,0 0.687,0 0.668,0 0.649,-0.002 0.627,-0.005 0.606,-0.008 0.585,-0.013 0.564,-0.02 0.543,-0.026 0.523,-0.034 0.504,-0.044 0.485,-0.053 0.469,-0.064 0.455,-0.077 0.451,-0.081 0.447,-0.086 0.445,-0.09 0.442,-0.094 0.441,-0.099 0.441,-0.105 c 0,-0.01 0.003,-0.018 0.01,-0.025 0.007,-0.007 0.016,-0.01 0.025,-0.01 0.004,0 0.009,0.001 0.014,0.003 0.004,0.002 0.009,0.005 0.014,0.008 0.004,0.003 0.009,0.006 0.014,0.009 0.004,0.003 0.008,0.006 0.012,0.008 0.023,0.014 0.048,0.025 0.075,0.031 0.027,0.007 0.054,0.011 0.082,0.011 z m 0.14,-0.351 h 0.105 v 0.123 c 0,0.007 -0.001,0.014 -0.004,0.02 C 0.925,-0.271 0.921,-0.266 0.917,-0.261 0.912,-0.256 0.906,-0.253 0.9,-0.25 0.893,-0.247 0.887,-0.246 0.879,-0.246 0.872,-0.246 0.865,-0.247 0.859,-0.25 0.853,-0.253 0.847,-0.256 0.842,-0.261 0.837,-0.266 0.834,-0.272 0.831,-0.278 0.828,-0.284 0.827,-0.291 0.827,-0.298 Z M 0.494,-0.246 C 0.487,-0.246 0.48,-0.247 0.473,-0.25 0.467,-0.253 0.462,-0.256 0.457,-0.261 0.452,-0.266 0.448,-0.271 0.446,-0.278 0.443,-0.284 0.441,-0.291 0.441,-0.298 v -0.123 h 0.106 v 0.123 c 0,0.007 -0.002,0.014 -0.004,0.02 -0.003,0.006 -0.007,0.012 -0.012,0.017 -0.005,0.005 -0.01,0.008 -0.017,0.011 -0.006,0.003 -0.013,0.004 -0.02,0.004 z"
         style="fill-rule:nonzero"
         id="path706" /><path
         d="m 1.107,-0.702 c 0.01,0 0.019,0.002 0.028,0.005 0.008,0.004 0.016,0.009 0.022,0.016 0.006,0.006 0.011,0.013 0.015,0.022 0.004,0.008 0.006,0.017 0.006,0.027 v 0.07 c 0,0.01 -0.002,0.02 -0.004,0.03 -0.003,0.011 -0.007,0.021 -0.01,0.029 C 1.153,-0.48 1.14,-0.461 1.123,-0.446 1.106,-0.431 1.087,-0.419 1.067,-0.41 1.046,-0.401 1.025,-0.395 1.001,-0.392 0.978,-0.388 0.955,-0.386 0.932,-0.386 H 0.441 C 0.418,-0.386 0.395,-0.388 0.372,-0.392 0.348,-0.395 0.327,-0.401 0.306,-0.41 0.286,-0.419 0.267,-0.431 0.25,-0.446 0.233,-0.461 0.22,-0.48 0.209,-0.503 0.206,-0.511 0.202,-0.521 0.199,-0.531 0.197,-0.542 0.195,-0.552 0.195,-0.562 v -0.07 c 0,-0.01 0.002,-0.019 0.006,-0.027 0.003,-0.009 0.008,-0.016 0.015,-0.022 0.006,-0.007 0.013,-0.012 0.022,-0.016 0.008,-0.003 0.017,-0.005 0.027,-0.005 0.01,0 0.019,0.002 0.027,0.005 0.009,0.004 0.016,0.009 0.023,0.016 0.006,0.006 0.011,0.013 0.015,0.022 0.004,0.008 0.005,0.017 0.005,0.027 0,0.01 0.002,0.019 0.006,0.028 0.004,0.008 0.009,0.015 0.015,0.022 0.007,0.006 0.014,0.011 0.022,0.015 0.009,0.004 0.018,0.005 0.028,0.005 h 0.035 c 0.005,-0.005 0.008,-0.01 0.011,-0.017 0.003,-0.006 0.004,-0.012 0.004,-0.019 0,-0.013 -0.005,-0.025 -0.015,-0.034 0,-0.02 0.002,-0.04 0.006,-0.06 0.003,-0.019 0.009,-0.038 0.018,-0.055 0.008,-0.018 0.019,-0.033 0.032,-0.047 0.013,-0.014 0.03,-0.026 0.05,-0.035 0.009,-0.004 0.018,-0.007 0.028,-0.01 0.01,-0.002 0.02,-0.003 0.03,-0.003 0.011,0 0.019,0.001 0.025,0.005 0.006,0.003 0.011,0.008 0.014,0.013 0.003,0.005 0.005,0.011 0.007,0.017 0.002,0.006 0.004,0.012 0.006,0.017 0.003,0.005 0.006,0.009 0.01,0.013 0.005,0.003 0.011,0.005 0.02,0.005 0.008,0 0.014,-0.002 0.019,-0.005 0.004,-0.004 0.008,-0.008 0.01,-0.013 0.003,-0.005 0.005,-0.011 0.006,-0.017 0.002,-0.006 0.004,-0.012 0.008,-0.017 0.003,-0.005 0.008,-0.01 0.014,-0.013 0.006,-0.004 0.014,-0.005 0.025,-0.005 0.01,0 0.02,0.001 0.03,0.003 0.01,0.003 0.019,0.006 0.028,0.01 0.02,0.009 0.037,0.021 0.05,0.035 0.013,0.014 0.024,0.029 0.032,0.047 0.009,0.017 0.015,0.036 0.018,0.055 0.004,0.02 0.006,0.04 0.006,0.06 -0.004,0.005 -0.007,0.011 -0.01,0.017 -0.002,0.006 -0.004,0.012 -0.004,0.018 0,0.007 0.002,0.013 0.004,0.019 0.003,0.006 0.006,0.011 0.01,0.016 h 0.034 c 0.01,0 0.019,-10e-4 0.028,-0.005 0.008,-0.004 0.015,-0.009 0.022,-0.015 0.006,-0.007 0.011,-0.014 0.015,-0.022 0.004,-0.009 0.006,-0.018 0.006,-0.028 0,-0.01 10e-4,-0.019 0.005,-0.027 C 1.047,-0.668 1.052,-0.675 1.058,-0.681 1.064,-0.688 1.072,-0.693 1.08,-0.697 1.089,-0.7 1.098,-0.702 1.107,-0.702 Z"
         style="fill:#8e562e;fill-rule:nonzero"
         id="path708" /><rect
         x="0.44100001"
         y="-0.63200003"
         width="0.491"
         height="0.07"
         style="fill:#bb9167;fill-rule:nonzero"
         id="rect710" /></g></g></svg>
