<?xml version="1.0" encoding="UTF-8" standalone="no"?>
<svg
   width="15.27"
   height="16.844999"
   viewBox="0 0 15.27 16.844999"
   version="1.1"
   xml:space="preserve"
   style="clip-rule:evenodd;fill-rule:evenodd;stroke-linejoin:round;stroke-miterlimit:2"
   id="svg20568"
   sodipodi:docname="emojis.svg"
   xmlns:inkscape="http://www.inkscape.org/namespaces/inkscape"
   xmlns:sodipodi="http://sodipodi.sourceforge.net/DTD/sodipodi-0.dtd"
   xmlns="http://www.w3.org/2000/svg"
   xmlns:svg="http://www.w3.org/2000/svg"><defs
     id="defs20572" /><sodipodi:namedview
     id="namedview20570"
     pagecolor="#505050"
     bordercolor="#eeeeee"
     borderopacity="1"
     inkscape:pageshadow="0"
     inkscape:pageopacity="0"
     inkscape:pagecheckerboard="0" /><g
     transform="matrix(0.24,0,0,0.24,-75.0006,-370.8234)"
     id="g20566"><g
       transform="matrix(62.5,0,0,62.5,304.69,1602.16)"
       id="g7228"><path
         d="M 0.339,0.21 C 0.324,0.21 0.31,0.208 0.297,0.202 0.284,0.197 0.272,0.19 0.262,0.18 0.253,0.171 0.245,0.16 0.239,0.147 0.233,0.134 0.23,0.12 0.23,0.104 0.23,0.09 0.233,0.077 0.238,0.065 L 0.216,0.054 C 0.203,0.047 0.191,0.039 0.18,0.03 0.169,0.02 0.159,0.009 0.151,-0.002 0.143,-0.014 0.136,-0.027 0.132,-0.041 0.127,-0.054 0.125,-0.069 0.125,-0.083 0.125,-0.096 0.127,-0.107 0.13,-0.119 0.133,-0.13 0.138,-0.141 0.144,-0.15 0.15,-0.16 0.158,-0.169 0.166,-0.177 0.175,-0.185 0.185,-0.192 0.195,-0.197 v -0.154 c 0,-0.022 0.004,-0.044 0.011,-0.064 0.006,-0.021 0.016,-0.04 0.028,-0.057 C 0.246,-0.49 0.261,-0.505 0.278,-0.519 0.296,-0.532 0.315,-0.542 0.335,-0.55 V -0.597 C 0.325,-0.597 0.316,-0.6 0.308,-0.608 0.3,-0.615 0.296,-0.625 0.296,-0.636 c 0,-0.009 0.004,-0.018 0.011,-0.026 l 0.014,-0.016 c 0.012,-0.013 0.023,-0.026 0.034,-0.037 0.011,-0.012 0.022,-0.022 0.034,-0.032 0.012,-0.009 0.025,-0.018 0.039,-0.026 0.014,-0.008 0.03,-0.015 0.048,-0.02 v -0.014 c 0,-0.015 0.003,-0.028 0.008,-0.041 0.006,-0.013 0.013,-0.024 0.023,-0.034 0.009,-0.009 0.02,-0.017 0.033,-0.022 0.013,-0.006 0.026,-0.009 0.041,-0.009 h 0.176 c 0.019,0 0.035,0.007 0.049,0.021 l 0.282,0.282 c 0.014,0.013 0.024,0.027 0.031,0.041 0.008,0.013 0.013,0.027 0.016,0.042 0.004,0.014 0.006,0.029 0.007,0.045 0,0.016 0.001,0.032 0.001,0.05 v 0.011 c 0,0.019 -0.004,0.037 -0.011,0.055 -0.008,0.017 -0.018,0.032 -0.03,0.044 -0.013,0.013 -0.028,0.023 -0.045,0.03 -0.017,0.008 -0.035,0.011 -0.055,0.011 H 0.868 c 0.018,0.001 0.036,0.005 0.052,0.013 0.016,0.007 0.03,0.018 0.043,0.03 0.012,0.013 0.022,0.028 0.029,0.044 0.007,0.017 0.01,0.034 0.01,0.053 v 0.071 c 0,0.01 -0.001,0.02 -0.005,0.029 C 0.994,-0.032 0.989,-0.023 0.983,-0.016 0.977,-0.008 0.97,-0.002 0.961,0.004 0.953,0.009 0.944,0.013 0.934,0.015 0.923,0.027 0.91,0.037 0.896,0.044 0.882,0.051 0.868,0.058 0.854,0.065 0.859,0.077 0.862,0.09 0.862,0.104 0.862,0.12 0.859,0.134 0.853,0.147 0.848,0.16 0.84,0.171 0.83,0.18 0.82,0.19 0.808,0.197 0.795,0.202 0.782,0.208 0.768,0.21 0.753,0.21 Z"
         style="fill-rule:nonzero"
         id="path7214" /><path
         d="m 0.687,-0.842 0.028,-0.001 c 0.012,0 0.023,0.001 0.033,0.004 0.01,0.002 0.02,0.008 0.029,0.017 l 0.261,0.261 c 0.011,0.011 0.02,0.024 0.026,0.038 0.006,0.014 0.009,0.029 0.009,0.045 v 0.057 c 0,0.009 -0.002,0.018 -0.006,0.027 C 1.063,-0.386 1.058,-0.378 1.052,-0.372 1.046,-0.365 1.038,-0.36 1.03,-0.357 1.021,-0.353 1.012,-0.351 1.002,-0.351 V -0.418 C 1.002,-0.409 1,-0.4 0.996,-0.392 0.993,-0.384 0.988,-0.377 0.981,-0.371 0.975,-0.364 0.967,-0.36 0.959,-0.356 0.951,-0.353 0.942,-0.351 0.932,-0.351 v -0.067 c 0,0.009 -0.002,0.018 -0.006,0.026 -0.004,0.008 -0.009,0.015 -0.015,0.021 -0.006,0.007 -0.014,0.011 -0.022,0.015 -0.009,0.003 -0.018,0.005 -0.027,0.005 v -0.07 c -0.01,0 -0.019,0.001 -0.028,0.005 -0.008,0.004 -0.015,0.009 -0.022,0.015 -0.006,0.007 -0.011,0.014 -0.015,0.023 -0.003,0.008 -0.005,0.017 -0.005,0.027 v 0.141 h 0.035 l 0.031,0.015 0.001,0.043 -0.008,0.012 c 0.013,0.003 0.024,0.01 0.033,0.02 0.009,0.011 0.013,0.023 0.013,0.037 0,0.013 -0.002,0.026 -0.005,0.037 -0.004,0.011 -0.013,0.02 -0.026,0.026 L 0.546,0.14 0.423,0.114 0.38,0.058 0.239,-0.014 C 0.225,-0.02 0.215,-0.03 0.207,-0.042 0.199,-0.055 0.195,-0.069 0.195,-0.083 c 0,-0.008 0.002,-0.016 0.005,-0.023 0.003,-0.007 0.007,-0.013 0.012,-0.018 0.005,-0.005 0.011,-0.009 0.018,-0.012 0.007,-0.003 0.014,-0.005 0.022,-0.005 0.005,0 0.009,10e-4 0.013,0.002 v -0.212 c 0,-0.02 0.004,-0.038 0.011,-0.055 0.007,-0.017 0.017,-0.032 0.03,-0.044 0.013,-0.013 0.028,-0.023 0.045,-0.03 0.017,-0.008 0.035,-0.011 0.055,-0.011 v -0.106 c 0,-0.014 0.003,-0.027 0.009,-0.039 0.006,-0.012 0.015,-0.023 0.026,-0.031 H 0.406 c 0.02,-0.022 0.044,-0.04 0.071,-0.052 0.028,-0.012 0.057,-0.018 0.086,-0.018 0.031,0 0.06,0.006 0.087,0.018 0.028,0.012 0.051,0.029 0.072,0.052 H 0.687 c 0.011,0.008 0.019,0.019 0.025,0.031 0.007,0.012 0.01,0.025 0.01,0.039 v 0.071 h 0.21 L 0.687,-0.772 C 0.682,-0.777 0.677,-0.783 0.673,-0.789 0.668,-0.796 0.664,-0.802 0.66,-0.807 Z"
         style="fill:#f7630c;fill-rule:nonzero"
         id="path7216" /><path
         d="m 0.563,-0.702 c 0.017,0 0.033,0.003 0.048,0.009 0.015,0.007 0.028,0.015 0.039,0.026 0.011,0.012 0.02,0.025 0.027,0.039 0.006,0.015 0.01,0.031 0.01,0.048 0,0.001 -0.001,0.001 -0.002,0.001 v 0.193 C 0.681,-0.413 0.67,-0.436 0.651,-0.455 l -0.002,0.003 c 0.001,0.002 0.001,0.003 0.001,0.004 0,0.002 0.001,0.003 0.001,0.004 0.001,0.002 0.003,0.004 0.004,0.006 0.001,0.002 0.003,0.004 0.004,0.007 0.007,0.014 0.01,0.028 0.01,0.045 0,0.014 -0.003,0.028 -0.008,0.041 -0.006,0.012 -0.013,0.024 -0.023,0.033 -0.01,0.01 -0.021,0.017 -0.034,0.023 -0.012,0.005 -0.026,0.008 -0.041,0.008 -0.014,0 -0.028,-0.003 -0.041,-0.008 C 0.51,-0.295 0.499,-0.302 0.489,-0.312 0.48,-0.321 0.472,-0.333 0.467,-0.345 0.461,-0.358 0.458,-0.372 0.458,-0.386 c 0,-0.011 0.002,-0.021 0.005,-0.031 0.003,-0.01 0.007,-0.019 0.013,-0.027 L 0.478,-0.451 0.476,-0.455 c -0.009,0.01 -0.017,0.02 -0.023,0.032 -0.005,0.011 -0.009,0.024 -0.012,0.037 v -0.193 c 0,-0.017 0.003,-0.033 0.009,-0.048 0.007,-0.015 0.015,-0.028 0.027,-0.039 0.011,-0.011 0.024,-0.02 0.039,-0.026 0.015,-0.007 0.031,-0.01 0.047,-0.01 z M 0.718,0.07 H 0.74 c 0.006,0 0.012,0 0.018,10e-4 C 0.764,0.072 0.77,0.073 0.775,0.076 0.78,0.078 0.784,0.082 0.787,0.086 0.79,0.091 0.792,0.097 0.792,0.105 0.792,0.114 0.788,0.123 0.781,0.13 0.774,0.137 0.766,0.14 0.757,0.14 H 0.546 V 0.105 C 0.546,0.095 0.548,0.086 0.552,0.078 0.555,0.069 0.56,0.062 0.567,0.055 0.573,0.049 0.58,0.044 0.589,0.041 0.597,0.037 0.606,0.035 0.616,0.035 h 0.053 c 0.011,0 0.022,0.003 0.03,0.01 C 0.708,0.051 0.715,0.06 0.718,0.07 Z M 0.687,-0.807 0.704,-0.79 0.687,-0.772 H 0.581 l 0.001,0.023 c 0,0.007 -0.001,0.014 -0.003,0.02 C 0.576,-0.723 0.571,-0.72 0.563,-0.72 0.559,-0.72 0.555,-0.722 0.551,-0.725 0.548,-0.729 0.546,-0.733 0.546,-0.737 v -0.07 c 0,-0.01 0.003,-0.018 0.01,-0.025 0.007,-0.007 0.016,-0.01 0.025,-0.01 h 0.106 l 0.017,0.017 z"
         style="fill:#69797e;fill-rule:nonzero"
         id="path7218" /><path
         d="m 0.862,-0.21 c 0.01,0 0.019,0.001 0.027,0.005 0.009,0.004 0.016,0.008 0.022,0.015 0.007,0.006 0.012,0.014 0.016,0.022 0.003,0.008 0.005,0.018 0.005,0.027 v 0.071 c 0,0.005 -0.002,0.009 -0.005,0.012 -0.003,0.004 -0.008,0.005 -0.012,0.005 -0.005,0 -0.009,-0.001 -0.013,-0.005 C 0.899,-0.061 0.897,-0.065 0.897,-0.07 0.897,-0.08 0.895,-0.089 0.891,-0.098 0.888,-0.106 0.883,-0.114 0.876,-0.12 0.87,-0.126 0.862,-0.131 0.854,-0.135 0.846,-0.139 0.836,-0.141 0.827,-0.141 L 0.844,-0.158 0.827,-0.176 0.844,-0.193 0.827,-0.21 Z M 0.374,0.07 C 0.375,0.068 0.376,0.066 0.377,0.064 0.378,0.062 0.379,0.06 0.38,0.058 L 0.546,0.14 H 0.335 C 0.326,0.14 0.318,0.137 0.311,0.13 0.304,0.123 0.3,0.114 0.3,0.105 0.3,0.097 0.302,0.091 0.305,0.086 0.308,0.082 0.312,0.078 0.317,0.076 0.322,0.073 0.328,0.072 0.334,0.071 0.34,0.07 0.346,0.07 0.353,0.07 Z m 0.189,-0.561 c -0.017,0 -0.034,0.004 -0.049,0.012 -0.016,0.009 -0.028,0.02 -0.038,0.035 v -0.1 c 0,-0.007 0.001,-0.014 0.004,-0.02 0.003,-0.007 0.007,-0.013 0.011,-0.017 0.005,-0.005 0.011,-0.009 0.017,-0.012 0.006,-0.002 0.013,-0.004 0.021,-0.004 0.013,0 0.025,0.005 0.034,0.014 0.005,-0.005 0.011,-0.008 0.017,-0.011 0.006,-0.002 0.012,-0.003 0.019,-0.003 0.007,0 0.014,0.002 0.02,0.004 0.007,0.003 0.012,0.007 0.017,0.012 0.005,0.004 0.008,0.01 0.011,0.017 0.003,0.006 0.004,0.013 0.004,0.02 v 0.1 C 0.642,-0.459 0.629,-0.47 0.613,-0.479 0.598,-0.487 0.581,-0.491 0.563,-0.491 Z"
         style="fill:#4a5459;fill-rule:nonzero"
         id="path7220" /><path
         d="m 0.685,-0.386 c 0.01,0 0.019,0.003 0.026,0.01 0.007,0.006 0.011,0.015 0.011,0.025 V -0.21 H 0.406 v -0.141 c 0,-0.01 0.003,-0.018 0.01,-0.025 0.007,-0.007 0.015,-0.01 0.026,-0.01 0,0.002 -0.001,0.004 -0.001,0.007 v 0.006 c 0,0.018 0.003,0.034 0.009,0.049 0.006,0.016 0.014,0.029 0.025,0.041 0.011,0.011 0.024,0.02 0.039,0.027 0.015,0.007 0.031,0.01 0.049,0.01 0.017,0 0.033,-0.003 0.048,-0.009 0.015,-0.007 0.028,-0.016 0.039,-0.027 0.011,-0.011 0.02,-0.024 0.027,-0.039 0.006,-0.015 0.01,-0.031 0.01,-0.048 0,-0.006 -0.001,-0.011 -0.002,-0.017 z m -0.35,0.281 H 0.757 L 0.546,0 Z"
         style="fill:#ca5010;fill-rule:nonzero"
         id="path7222" /><path
         d="m 0.546,-0.439 c 0,0.005 -0.002,0.009 -0.005,0.012 -0.004,0.004 -0.008,0.006 -0.012,0.006 -0.005,0 -0.009,-0.002 -0.013,-0.006 -0.003,-0.003 -0.005,-0.007 -0.005,-0.012 0,-0.005 0.002,-0.009 0.006,-0.012 0.003,-0.004 0.007,-0.006 0.012,-0.006 0.004,0 0.008,0.002 0.012,0.006 0.003,0.003 0.005,0.007 0.005,0.012 z m 0.07,0 c 0,0.005 -0.001,0.009 -0.005,0.012 -0.003,0.004 -0.007,0.006 -0.012,0.006 -0.005,0 -0.009,-0.002 -0.013,-0.006 -0.003,-0.003 -0.005,-0.007 -0.005,-0.012 0,-0.005 0.002,-0.009 0.005,-0.012 0.004,-0.004 0.008,-0.006 0.013,-0.006 0.004,0 0.008,0.002 0.012,0.006 0.003,0.003 0.005,0.007 0.005,0.012 z"
         style="fill:#383838;fill-rule:nonzero"
         id="path7224" /><path
         d="m 0.546,-0.316 c -0.01,0 -0.018,-0.003 -0.025,-0.01 -0.006,-0.007 -0.01,-0.016 -0.01,-0.025 h 0.105 c 0,0.01 -0.003,0.018 -0.01,0.025 -0.007,0.007 -0.015,0.01 -0.025,0.01 z m 0.07,-0.21 c 0,0.005 -0.001,0.009 -0.005,0.012 C 0.608,-0.51 0.604,-0.509 0.599,-0.509 0.594,-0.509 0.59,-0.51 0.586,-0.514 0.583,-0.517 0.581,-0.521 0.581,-0.526 v -0.018 c 0,-0.005 0.002,-0.009 0.005,-0.012 0.004,-0.004 0.008,-0.006 0.013,-0.006 0.005,0 0.009,0.002 0.012,0.006 0.004,0.003 0.005,0.007 0.005,0.012 z M 0.511,-0.544 c 0,-0.005 0.002,-0.009 0.005,-0.012 0.004,-0.004 0.008,-0.006 0.013,-0.006 0.004,0 0.008,0.002 0.012,0.006 0.003,0.003 0.005,0.007 0.005,0.012 v 0.018 c 0,0.004 -0.002,0.008 -0.005,0.012 C 0.537,-0.511 0.533,-0.509 0.529,-0.509 0.524,-0.509 0.52,-0.51 0.516,-0.514 0.513,-0.517 0.511,-0.521 0.511,-0.526 Z"
         style="fill-rule:nonzero"
         id="path7226" /></g></g></svg>
