<?xml version="1.0" encoding="UTF-8" standalone="no"?>
<svg
   width="16.844999"
   height="16.844999"
   viewBox="0 0 16.844999 16.844999"
   version="1.1"
   xml:space="preserve"
   style="clip-rule:evenodd;fill-rule:evenodd;stroke-linejoin:round;stroke-miterlimit:2"
   id="svg20568"
   sodipodi:docname="emojis.svg"
   xmlns:inkscape="http://www.inkscape.org/namespaces/inkscape"
   xmlns:sodipodi="http://sodipodi.sourceforge.net/DTD/sodipodi-0.dtd"
   xmlns="http://www.w3.org/2000/svg"
   xmlns:svg="http://www.w3.org/2000/svg"><defs
     id="defs20572" /><sodipodi:namedview
     id="namedview20570"
     pagecolor="#505050"
     bordercolor="#eeeeee"
     borderopacity="1"
     inkscape:pageshadow="0"
     inkscape:pageopacity="0"
     inkscape:pagecheckerboard="0" /><g
     transform="matrix(0.24,0,0,0.24,-94.0218,-370.8234)"
     id="g20566"><g
       transform="matrix(62.5,0,0,62.5,383.945,1602.16)"
       id="g7242"><path
         d="M 1.038,0.21 C 1.018,0.21 0.999,0.208 0.98,0.202 0.962,0.197 0.945,0.189 0.928,0.18 0.912,0.17 0.898,0.158 0.884,0.144 0.871,0.13 0.86,0.114 0.851,0.097 0.844,0.114 0.835,0.13 0.824,0.144 0.813,0.158 0.8,0.17 0.786,0.179 0.772,0.189 0.756,0.197 0.739,0.202 0.722,0.208 0.705,0.21 0.687,0.21 0.668,0.21 0.651,0.208 0.634,0.202 0.617,0.197 0.601,0.189 0.587,0.179 0.573,0.17 0.56,0.158 0.549,0.144 0.538,0.13 0.529,0.114 0.522,0.097 0.513,0.114 0.502,0.13 0.489,0.144 0.475,0.158 0.461,0.17 0.445,0.18 0.428,0.189 0.411,0.197 0.393,0.202 0.374,0.208 0.355,0.21 0.335,0.21 0.306,0.21 0.279,0.205 0.254,0.194 0.228,0.183 0.206,0.168 0.187,0.149 0.168,0.13 0.153,0.107 0.142,0.082 0.131,0.056 0.125,0.029 0.125,0 c 0,-0.014 0.001,-0.028 0.004,-0.042 0.009,-0.044 0.018,-0.087 0.028,-0.13 0.01,-0.043 0.02,-0.087 0.029,-0.13 0.009,-0.044 0.019,-0.087 0.028,-0.131 0.009,-0.043 0.018,-0.086 0.029,-0.13 0.013,-0.051 0.033,-0.099 0.061,-0.141 0.028,-0.043 0.061,-0.08 0.1,-0.111 0.039,-0.031 0.082,-0.055 0.13,-0.072 0.048,-0.017 0.099,-0.026 0.153,-0.026 0.052,0 0.103,0.009 0.151,0.026 0.048,0.017 0.091,0.041 0.13,0.072 0.039,0.031 0.072,0.067 0.1,0.11 0.028,0.042 0.049,0.089 0.061,0.14 0.012,0.046 0.022,0.093 0.032,0.139 0.009,0.046 0.019,0.093 0.029,0.139 0.009,0.041 0.018,0.082 0.028,0.122 0.01,0.04 0.018,0.081 0.026,0.122 0.001,0.007 0.002,0.014 0.003,0.021 C 1.248,-0.015 1.248,-0.007 1.248,0 1.248,0.029 1.243,0.056 1.231,0.082 1.22,0.107 1.205,0.13 1.186,0.149 1.167,0.168 1.145,0.183 1.119,0.194 1.094,0.205 1.067,0.21 1.038,0.21 Z"
         style="fill-rule:nonzero"
         id="path7230" /><path
         d="m 0.195,0 c 0,-0.005 0,-0.009 0.001,-0.014 0,-0.005 0.001,-0.01 0.002,-0.014 l 0.114,-0.52 c 0.005,-0.023 0.013,-0.046 0.023,-0.068 0.01,-0.022 0.023,-0.043 0.037,-0.063 0.014,-0.02 0.03,-0.039 0.048,-0.056 0.017,-0.017 0.036,-0.032 0.056,-0.045 V 0 C 0.476,0.02 0.472,0.038 0.465,0.055 0.458,0.072 0.448,0.086 0.435,0.099 0.422,0.112 0.407,0.122 0.39,0.129 0.373,0.136 0.355,0.14 0.335,0.14 0.316,0.14 0.298,0.136 0.281,0.129 0.264,0.122 0.249,0.112 0.236,0.099 0.224,0.086 0.214,0.072 0.206,0.055 0.199,0.038 0.195,0.02 0.195,0 Z m 0.702,-0.78 c 0.02,0.013 0.039,0.028 0.056,0.045 0.018,0.017 0.034,0.036 0.048,0.056 0.014,0.02 0.027,0.041 0.037,0.063 0.01,0.022 0.018,0.045 0.023,0.068 l 0.114,0.52 C 1.177,-0.019 1.178,-0.01 1.178,0 1.178,0.019 1.174,0.037 1.167,0.054 1.159,0.072 1.149,0.086 1.137,0.099 1.124,0.112 1.109,0.122 1.092,0.129 1.075,0.136 1.057,0.14 1.038,0.14 1.018,0.14 1,0.136 0.983,0.129 0.966,0.122 0.951,0.112 0.938,0.099 0.925,0.086 0.915,0.072 0.908,0.055 0.901,0.038 0.897,0.02 0.897,0 Z"
         style="fill:#8e562e;fill-rule:nonzero"
         id="path7232" /><path
         d="M 0.792,0.035 C 0.792,0.05 0.789,0.063 0.784,0.076 0.778,0.089 0.771,0.1 0.761,0.109 0.751,0.119 0.74,0.126 0.728,0.132 0.715,0.137 0.701,0.14 0.687,0.14 0.672,0.14 0.658,0.137 0.646,0.132 0.633,0.126 0.622,0.119 0.612,0.109 0.602,0.1 0.595,0.089 0.589,0.076 0.584,0.063 0.581,0.05 0.581,0.035 v -0.176 h 0.211 z"
         style="fill:#e81224;fill-rule:nonzero"
         id="path7234" /><path
         d="m 0.722,-0.84 0.037,0.324 c 0.001,0.006 0.001,0.012 0.001,0.018 0,0.005 0.001,0.011 0.003,0.017 0.003,0.011 0.007,0.02 0.014,0.027 0.006,0.006 0.014,0.011 0.023,0.015 0.008,0.003 0.017,0.005 0.027,0.006 0.01,0 0.02,0.001 0.03,0.001 l 0.11,0.046 C 0.963,-0.382 0.959,-0.377 0.955,-0.372 0.95,-0.366 0.947,-0.36 0.943,-0.354 0.94,-0.348 0.937,-0.342 0.935,-0.335 0.933,-0.329 0.932,-0.322 0.932,-0.316 v 0.193 c 0,0.017 -0.003,0.033 -0.01,0.048 C 0.916,-0.061 0.907,-0.048 0.896,-0.036 0.885,-0.025 0.872,-0.016 0.857,-0.01 0.842,-0.003 0.826,0 0.81,0 0.793,0 0.778,-0.003 0.763,-0.009 0.749,-0.015 0.736,-0.023 0.724,-0.034 0.713,-0.045 0.704,-0.057 0.698,-0.071 0.691,-0.086 0.687,-0.101 0.687,-0.118 0.686,-0.101 0.682,-0.086 0.675,-0.072 0.668,-0.057 0.66,-0.045 0.648,-0.034 0.637,-0.024 0.625,-0.015 0.61,-0.009 0.595,-0.003 0.58,0 0.563,0 0.547,0 0.531,-0.003 0.516,-0.01 0.501,-0.016 0.488,-0.025 0.477,-0.036 0.465,-0.047 0.457,-0.06 0.45,-0.075 0.444,-0.09 0.441,-0.106 0.441,-0.123 V -0.316 C 0.441,-0.33 0.437,-0.343 0.43,-0.354 0.423,-0.365 0.415,-0.376 0.406,-0.386 0.397,-0.397 0.389,-0.407 0.382,-0.418 0.374,-0.43 0.371,-0.442 0.371,-0.457 v -0.22 c 0.018,-0.026 0.038,-0.049 0.061,-0.07 0.024,-0.02 0.049,-0.037 0.076,-0.052 0.027,-0.014 0.056,-0.025 0.086,-0.032 0.031,-0.008 0.061,-0.011 0.093,-0.011 0.005,0 0.011,0 0.017,0 0.006,0.001 0.012,0.001 0.018,0.002 z"
         style="fill:#ffffff;fill-rule:nonzero"
         id="path7236" /><path
         d="m 1.002,-0.677 v 0.22 c 0,0.007 -0.001,0.013 -0.003,0.02 C 0.997,-0.431 0.994,-0.424 0.991,-0.418 0.988,-0.412 0.984,-0.406 0.98,-0.401 0.976,-0.395 0.972,-0.39 0.967,-0.386 H 0.844 c -0.017,0 -0.033,-0.003 -0.047,-0.01 C 0.782,-0.403 0.769,-0.411 0.758,-0.422 0.747,-0.433 0.738,-0.446 0.731,-0.461 0.725,-0.476 0.722,-0.492 0.722,-0.509 V -0.84 c 0.028,0.002 0.056,0.008 0.082,0.017 0.027,0.008 0.052,0.019 0.076,0.033 0.024,0.014 0.046,0.03 0.067,0.049 0.021,0.019 0.039,0.04 0.055,0.064 z"
         style="fill:#bb9167;fill-rule:nonzero"
         id="path7238" /><path
         d="m 0.494,-0.632 c 0.007,0 0.014,0.002 0.02,0.004 0.007,0.003 0.012,0.007 0.017,0.012 0.004,0.005 0.008,0.01 0.011,0.017 0.003,0.006 0.004,0.013 0.004,0.02 v 0.07 c 0,0.007 -0.001,0.014 -0.004,0.02 -0.003,0.007 -0.007,0.012 -0.011,0.017 -0.005,0.005 -0.011,0.009 -0.017,0.011 -0.006,0.003 -0.013,0.004 -0.02,0.004 -0.008,0 -0.014,-0.001 -0.021,-0.004 C 0.467,-0.463 0.461,-0.467 0.457,-0.472 0.452,-0.476 0.448,-0.482 0.445,-0.488 0.442,-0.494 0.441,-0.501 0.441,-0.509 v -0.07 c 0,-0.007 0.001,-0.014 0.004,-0.021 0.003,-0.006 0.007,-0.012 0.011,-0.016 0.005,-0.005 0.011,-0.009 0.017,-0.012 0.006,-0.002 0.013,-0.004 0.021,-0.004 z m 0.385,0 c 0.008,0 0.014,0.002 0.021,0.004 0.006,0.003 0.012,0.007 0.017,0.012 0.004,0.004 0.008,0.01 0.011,0.016 0.003,0.007 0.004,0.014 0.004,0.021 v 0.07 c 0,0.008 -0.001,0.015 -0.004,0.021 -0.003,0.006 -0.007,0.012 -0.011,0.016 -0.005,0.005 -0.011,0.009 -0.017,0.011 -0.007,0.003 -0.013,0.004 -0.021,0.004 -0.007,0 -0.014,-0.001 -0.02,-0.004 C 0.853,-0.463 0.847,-0.467 0.842,-0.472 0.837,-0.477 0.834,-0.482 0.831,-0.489 0.828,-0.495 0.827,-0.502 0.827,-0.509 v -0.07 c 0,-0.007 0.001,-0.014 0.004,-0.02 0.003,-0.007 0.006,-0.012 0.011,-0.017 0.005,-0.005 0.011,-0.009 0.017,-0.012 0.006,-0.002 0.013,-0.004 0.02,-0.004 z m -0.192,0.456 c -0.005,0 -0.01,-0.001 -0.014,-0.002 C 0.668,-0.18 0.665,-0.182 0.662,-0.186 L 0.581,-0.281 H 0.792 L 0.711,-0.186 C 0.708,-0.182 0.705,-0.18 0.7,-0.178 0.696,-0.177 0.691,-0.176 0.687,-0.176 Z"
         style="fill-rule:nonzero"
         id="path7240" /></g></g></svg>
