<?xml version="1.0" encoding="UTF-8" standalone="no"?>
<svg
   width="16.844999"
   height="16.305"
   viewBox="0 0 16.844999 16.305"
   version="1.1"
   xml:space="preserve"
   style="clip-rule:evenodd;fill-rule:evenodd;stroke-linejoin:round;stroke-miterlimit:2"
   id="svg20568"
   sodipodi:docname="emojis.svg"
   xmlns:inkscape="http://www.inkscape.org/namespaces/inkscape"
   xmlns:sodipodi="http://sodipodi.sourceforge.net/DTD/sodipodi-0.dtd"
   xmlns="http://www.w3.org/2000/svg"
   xmlns:svg="http://www.w3.org/2000/svg"><defs
     id="defs20572" /><sodipodi:namedview
     id="namedview20570"
     pagecolor="#505050"
     bordercolor="#eeeeee"
     borderopacity="1"
     inkscape:pageshadow="0"
     inkscape:pageopacity="0"
     inkscape:pagecheckerboard="0" /><g
     transform="matrix(0.24,0,0,0.24,-195.95292,-371.3634)"
     id="g20566"><g
       transform="matrix(62.5,0,0,62.5,808.658,1602.16)"
       id="g7314"><path
         d="M 1.038,0.21 C 1.018,0.21 1,0.207 0.983,0.199 0.966,0.192 0.951,0.182 0.938,0.169 0.926,0.156 0.916,0.141 0.908,0.125 0.901,0.108 0.897,0.09 0.897,0.07 V 0.035 c 0,-0.026 0.007,-0.05 0.02,-0.073 C 0.909,-0.044 0.9,-0.051 0.89,-0.057 0.881,-0.063 0.872,-0.07 0.863,-0.076 0.854,-0.083 0.845,-0.09 0.836,-0.097 0.828,-0.104 0.82,-0.112 0.813,-0.121 0.798,-0.114 0.782,-0.11 0.766,-0.108 0.749,-0.106 0.733,-0.104 0.716,-0.104 L 0.655,-0.105 C 0.649,-0.102 0.642,-0.099 0.636,-0.096 0.63,-0.094 0.623,-0.091 0.617,-0.089 v 0.003 c 0.021,0.012 0.038,0.029 0.051,0.051 0.012,0.022 0.019,0.045 0.019,0.07 V 0.07 C 0.687,0.09 0.683,0.108 0.675,0.125 0.668,0.141 0.658,0.156 0.645,0.169 0.632,0.182 0.617,0.192 0.6,0.199 0.583,0.207 0.565,0.21 0.546,0.21 H 0.476 C 0.457,0.21 0.439,0.207 0.422,0.199 0.405,0.192 0.39,0.182 0.377,0.169 0.364,0.156 0.354,0.141 0.347,0.125 0.339,0.108 0.335,0.09 0.335,0.07 V 0.035 c 0,-0.025 0.007,-0.049 0.019,-0.07 0.013,-0.022 0.03,-0.039 0.052,-0.051 V -0.089 C 0.375,-0.1 0.347,-0.115 0.321,-0.134 0.296,-0.153 0.274,-0.175 0.256,-0.201 0.238,-0.226 0.223,-0.254 0.213,-0.284 0.202,-0.314 0.196,-0.345 0.195,-0.378 0.187,-0.385 0.181,-0.392 0.176,-0.399 0.172,-0.406 0.168,-0.414 0.166,-0.422 0.163,-0.43 0.162,-0.439 0.161,-0.448 0.16,-0.456 0.16,-0.466 0.16,-0.476 c 0,-0.006 0,-0.012 0,-0.018 C 0.161,-0.5 0.161,-0.507 0.163,-0.513 0.154,-0.524 0.148,-0.535 0.143,-0.547 0.138,-0.558 0.134,-0.569 0.131,-0.581 0.129,-0.592 0.127,-0.604 0.126,-0.617 0.125,-0.629 0.125,-0.642 0.125,-0.656 v -0.046 h 0.071 c 0,-0.003 -0.001,-0.006 -0.001,-0.009 V -0.72 c 0,-0.017 0.004,-0.033 0.01,-0.048 0.007,-0.015 0.016,-0.028 0.027,-0.039 0.011,-0.011 0.025,-0.019 0.039,-0.026 0.015,-0.006 0.032,-0.009 0.049,-0.009 0.011,-0.012 0.024,-0.02 0.039,-0.026 0.015,-0.006 0.03,-0.009 0.047,-0.009 0.016,0 0.032,0.003 0.047,0.009 0.014,0.006 0.028,0.015 0.04,0.027 l 0.23,0.221 c 0.02,0.019 0.037,0.039 0.051,0.059 0.014,0.021 0.026,0.044 0.035,0.07 H 0.862 L 0.904,-0.554 C 0.899,-0.569 0.897,-0.583 0.897,-0.597 c 0,-0.019 0.004,-0.038 0.011,-0.055 0.007,-0.017 0.017,-0.032 0.03,-0.044 0.013,-0.013 0.028,-0.023 0.045,-0.03 0.017,-0.008 0.035,-0.011 0.055,-0.011 0.019,0 0.037,0.003 0.054,0.011 0.017,0.007 0.032,0.018 0.044,0.03 0.013,0.013 0.023,0.028 0.031,0.045 0.007,0.017 0.011,0.035 0.011,0.054 0,0.018 -0.004,0.035 -0.01,0.052 -0.007,0.016 -0.016,0.03 -0.027,0.043 -0.012,0.013 -0.025,0.023 -0.041,0.031 -0.016,0.008 -0.032,0.013 -0.05,0.014 l -0.036,0.054 c 0.01,0.017 0.017,0.036 0.02,0.055 0.003,0.019 0.005,0.038 0.005,0.057 L 1.038,-0.235 1.146,-0.1 c 0.014,0.004 0.028,0.011 0.041,0.019 0.012,0.009 0.023,0.02 0.032,0.031 0.009,0.012 0.016,0.026 0.021,0.04 0.006,0.014 0.008,0.03 0.008,0.045 V 0.07 C 1.248,0.09 1.244,0.108 1.237,0.125 1.229,0.141 1.219,0.156 1.207,0.169 1.194,0.182 1.179,0.192 1.162,0.199 1.145,0.207 1.127,0.21 1.107,0.21 Z"
         style="fill-rule:nonzero"
         id="path7302" /><path
         d="m 0.967,-0.21 0.14,0.175 v 0.07 h -0.07 v -0.07 L 0.897,-0.141 C 0.889,-0.147 0.882,-0.153 0.875,-0.158 0.869,-0.164 0.863,-0.17 0.858,-0.176 0.854,-0.182 0.849,-0.189 0.845,-0.197 0.842,-0.204 0.838,-0.213 0.835,-0.223 0.824,-0.208 0.809,-0.197 0.793,-0.188 0.776,-0.18 0.758,-0.176 0.739,-0.176 H 0.616 v -0.245 h 0.246 c 0.006,0 0.011,0 0.017,0.001 0.005,0.001 0.011,0.003 0.017,0.005 l 0.127,-0.191 0.029,0.019 -0.126,0.189 c 0.01,0.007 0.018,0.016 0.024,0.024 0.006,0.008 0.01,0.017 0.012,0.027 0.003,0.009 0.004,0.019 0.005,0.029 0,0.01 0,0.021 0,0.032 z M 0.572,-0.577 c 0,0.008 -0.002,0.018 -0.007,0.028 -0.004,0.01 -0.01,0.02 -0.018,0.03 -0.008,0.011 -0.016,0.021 -0.026,0.031 -0.01,0.01 -0.02,0.019 -0.03,0.027 -0.01,0.008 -0.02,0.014 -0.031,0.019 -0.01,0.005 -0.019,0.007 -0.027,0.007 -0.008,0 -0.017,0 -0.025,-0.001 C 0.4,-0.437 0.392,-0.437 0.384,-0.438 L 0.287,-0.443 C 0.284,-0.443 0.28,-0.445 0.277,-0.448 0.273,-0.451 0.27,-0.455 0.267,-0.459 0.264,-0.463 0.262,-0.468 0.26,-0.472 0.257,-0.476 0.256,-0.48 0.256,-0.482 c 0,-0.003 0.001,-0.006 0.002,-0.008 0.001,-0.003 0.002,-0.005 0.004,-0.007 0.001,-0.002 0.003,-0.003 0.004,-0.005 0.001,-0.002 0.002,-0.003 0.002,-0.005 0,0 -0.001,-0.001 -0.001,-0.002 C 0.266,-0.509 0.266,-0.51 0.265,-0.51 0.252,-0.519 0.241,-0.529 0.231,-0.538 0.222,-0.547 0.214,-0.559 0.208,-0.574 l 0.023,-0.04 0.034,-0.018 H 0.3 C 0.31,-0.644 0.323,-0.656 0.338,-0.668 0.353,-0.68 0.367,-0.689 0.381,-0.697 l 0.093,-0.007 c 0.008,0.007 0.019,0.015 0.03,0.025 0.011,0.009 0.022,0.019 0.032,0.031 0.01,0.011 0.019,0.022 0.026,0.034 0.007,0.013 0.01,0.025 0.01,0.037 z M 0.476,0 v -0.21 h 0.07 V 0 Z"
         style="fill:#e5e5e5;fill-rule:nonzero"
         id="path7304" /><path
         d="m 0.406,-0.807 c 0.014,0 0.026,0.005 0.037,0.015 l 0.231,0.223 c 0.027,0.026 0.047,0.053 0.061,0.083 0.014,0.029 0.021,0.063 0.021,0.1 0,0.034 -0.006,0.065 -0.019,0.095 -0.013,0.03 -0.03,0.056 -0.053,0.078 -0.022,0.023 -0.048,0.04 -0.078,0.053 -0.03,0.013 -0.061,0.019 -0.095,0.019 -0.034,0 -0.066,-0.006 -0.096,-0.019 C 0.385,-0.173 0.359,-0.19 0.337,-0.212 0.315,-0.235 0.297,-0.261 0.284,-0.291 0.272,-0.32 0.265,-0.352 0.265,-0.386 V -0.51 c 0.011,0.006 0.022,0.011 0.034,0.014 0.012,0.003 0.024,0.005 0.036,0.005 h 0.106 c 0.012,0 0.023,-0.002 0.034,-0.007 0.01,-0.005 0.02,-0.011 0.028,-0.019 0.008,-0.008 0.014,-0.017 0.018,-0.028 0.005,-0.011 0.007,-0.022 0.007,-0.034 0,-0.012 -0.002,-0.024 -0.007,-0.034 C 0.517,-0.624 0.511,-0.633 0.503,-0.641 0.495,-0.649 0.485,-0.656 0.475,-0.66 0.464,-0.665 0.453,-0.667 0.441,-0.667 H 0.318 C 0.31,-0.667 0.303,-0.668 0.297,-0.671 0.291,-0.674 0.285,-0.678 0.281,-0.682 0.276,-0.687 0.272,-0.693 0.269,-0.699 0.267,-0.705 0.265,-0.712 0.265,-0.72 c 0,-0.007 0.002,-0.014 0.004,-0.02 0.003,-0.006 0.007,-0.012 0.012,-0.017 0.005,-0.004 0.01,-0.008 0.017,-0.011 0.006,-0.003 0.013,-0.004 0.02,-0.004 0.013,0 0.025,0.005 0.036,0.014 0,-0.014 0.006,-0.026 0.015,-0.035 0.01,-0.01 0.022,-0.014 0.037,-0.014 z m 0.701,0.772 c 0.01,0 0.019,0.002 0.028,0.005 0.008,0.004 0.016,0.009 0.022,0.016 0.006,0.006 0.011,0.013 0.015,0.022 0.004,0.008 0.006,0.017 0.006,0.027 V 0.07 C 1.178,0.08 1.176,0.089 1.172,0.098 1.168,0.106 1.163,0.114 1.157,0.12 1.151,0.126 1.143,0.131 1.135,0.135 1.126,0.138 1.117,0.14 1.107,0.14 H 1.037 C 1.027,0.14 1.018,0.138 1.01,0.135 1.001,0.131 0.994,0.126 0.988,0.12 0.981,0.114 0.976,0.106 0.973,0.098 0.969,0.089 0.967,0.08 0.967,0.07 V 0.035 c 0,-0.01 0.002,-0.019 0.006,-0.027 0.003,-0.009 0.008,-0.016 0.015,-0.022 0.006,-0.007 0.013,-0.012 0.022,-0.016 0.008,-0.003 0.017,-0.005 0.027,-0.005 z m -0.561,0 c 0.01,0 0.019,0.002 0.027,0.005 0.009,0.004 0.016,0.009 0.022,0.016 0.007,0.006 0.012,0.013 0.016,0.022 0.003,0.008 0.005,0.017 0.005,0.027 V 0.07 C 0.616,0.08 0.614,0.089 0.611,0.098 0.607,0.106 0.602,0.114 0.595,0.12 0.589,0.126 0.582,0.131 0.573,0.135 0.565,0.138 0.556,0.14 0.546,0.14 H 0.476 C 0.466,0.14 0.457,0.138 0.448,0.135 0.44,0.131 0.432,0.126 0.426,0.12 0.42,0.114 0.415,0.106 0.411,0.098 0.408,0.089 0.406,0.08 0.406,0.07 V 0.035 C 0.406,0.025 0.408,0.016 0.411,0.008 0.415,-0.001 0.42,-0.008 0.426,-0.014 0.432,-0.021 0.44,-0.026 0.448,-0.03 0.457,-0.033 0.466,-0.035 0.476,-0.035 Z M 1.037,-0.526 C 1.027,-0.526 1.018,-0.528 1.01,-0.532 1.001,-0.536 0.994,-0.541 0.988,-0.547 0.981,-0.553 0.976,-0.561 0.973,-0.569 0.969,-0.578 0.967,-0.587 0.967,-0.597 c 0,-0.009 0.002,-0.019 0.006,-0.027 0.003,-0.008 0.008,-0.016 0.015,-0.022 0.006,-0.007 0.013,-0.012 0.022,-0.015 0.008,-0.004 0.017,-0.006 0.027,-0.006 0.01,0 0.019,0.002 0.027,0.006 0.009,0.003 0.016,0.008 0.023,0.015 0.006,0.006 0.011,0.014 0.015,0.022 0.004,0.008 0.005,0.018 0.005,0.027 0,0.01 -10e-4,0.019 -0.005,0.028 -0.004,0.008 -0.009,0.016 -0.015,0.022 -0.007,0.006 -0.014,0.011 -0.023,0.015 -0.008,0.004 -0.017,0.006 -0.027,0.006 z M 0.208,-0.574 C 0.199,-0.593 0.195,-0.612 0.195,-0.632 h 0.07 z"
         style="fill:#757575;fill-rule:nonzero"
         id="path7306" /><path
         d="m 0.505,-0.58 0.055,0.095 c 0.006,0.011 0.009,0.023 0.009,0.035 0,0.009 -0.001,0.017 -0.005,0.025 C 0.561,-0.417 0.556,-0.41 0.55,-0.405 0.544,-0.399 0.538,-0.394 0.53,-0.391 0.522,-0.388 0.514,-0.386 0.505,-0.386 0.496,-0.386 0.488,-0.388 0.48,-0.391 0.472,-0.394 0.465,-0.399 0.459,-0.405 0.454,-0.41 0.449,-0.417 0.446,-0.425 0.442,-0.432 0.44,-0.441 0.44,-0.45 c 0,-0.012 0.004,-0.024 0.01,-0.035 z"
         style="fill:#cccccc;fill-rule:nonzero"
         id="path7308" /><path
         d="m 0.388,-0.667 c 0.005,0 0.009,0.002 0.013,0.005 0.003,0.004 0.005,0.008 0.005,0.013 v 0.035 c 0,0.005 -0.002,0.009 -0.005,0.012 -0.004,0.004 -0.008,0.005 -0.013,0.005 -0.005,0 -0.009,-0.001 -0.012,-0.005 C 0.372,-0.605 0.371,-0.609 0.371,-0.614 v -0.035 c 0,-0.005 0.001,-0.009 0.005,-0.013 0.003,-0.003 0.007,-0.005 0.012,-0.005 z"
         style="fill-rule:nonzero"
         id="path7310" /><path
         d="m 0.248,-0.522 c 0.007,0.006 0.015,0.012 0.024,0.016 0.01,0.004 0.019,0.008 0.028,0.01 v 0.039 c 0,0.01 -0.003,0.019 -0.01,0.025 -0.007,0.007 -0.015,0.011 -0.025,0.011 -0.009,0 -0.018,-0.004 -0.025,-0.011 C 0.233,-0.439 0.23,-0.447 0.23,-0.457 v -0.034 c 0,-0.006 0.002,-0.012 0.005,-0.018 0.003,-0.006 0.007,-0.011 0.013,-0.013 z"
         style="fill:#e81224;fill-rule:nonzero"
         id="path7312" /></g></g></svg>
