<?xml version="1.0" encoding="UTF-8" standalone="no"?>
<svg
   width="16.844999"
   height="16.844999"
   viewBox="0 0 16.844999 16.844999"
   version="1.1"
   xml:space="preserve"
   style="clip-rule:evenodd;fill-rule:evenodd;stroke-linejoin:round;stroke-miterlimit:2"
   id="svg20568"
   sodipodi:docname="emojis.svg"
   xmlns:inkscape="http://www.inkscape.org/namespaces/inkscape"
   xmlns:sodipodi="http://sodipodi.sourceforge.net/DTD/sodipodi-0.dtd"
   xmlns="http://www.w3.org/2000/svg"
   xmlns:svg="http://www.w3.org/2000/svg"><defs
     id="defs20572" /><sodipodi:namedview
     id="namedview20570"
     pagecolor="#505050"
     bordercolor="#eeeeee"
     borderopacity="1"
     inkscape:pageshadow="0"
     inkscape:pageopacity="0"
     inkscape:pagecheckerboard="0" /><g
     transform="matrix(0.24,0,0,0.24,-216.54852,-370.8234)"
     id="g20566"><g
       transform="matrix(62.5,0,0,62.5,894.473,1602.16)"
       id="g7326"><path
         d="M 0.687,0.21 C 0.653,0.21 0.621,0.204 0.591,0.191 0.561,0.178 0.535,0.161 0.513,0.138 0.491,0.116 0.473,0.09 0.46,0.06 0.447,0.031 0.441,-0.001 0.441,-0.035 0.441,-0.045 0.437,-0.053 0.431,-0.06 0.424,-0.067 0.416,-0.07 0.406,-0.07 H 0.148 l 0.057,-0.106 h -0.08 l 0.14,-0.283 v -0.348 c 0,-0.015 0.003,-0.028 0.008,-0.041 0.006,-0.013 0.014,-0.024 0.023,-0.034 0.01,-0.009 0.021,-0.017 0.034,-0.022 0.012,-0.006 0.026,-0.009 0.041,-0.009 0.027,0 0.05,0.01 0.071,0.028 l 0.201,0.183 h 0.086 l 0.203,-0.183 c 0.02,-0.018 0.043,-0.028 0.07,-0.028 0.015,0 0.029,0.003 0.041,0.009 0.013,0.005 0.024,0.013 0.034,0.022 0.009,0.01 0.017,0.021 0.022,0.034 0.006,0.013 0.008,0.026 0.008,0.041 v 0.348 l 0.141,0.283 H 1.168 L 1.225,-0.07 H 0.967 c -0.009,0 -0.018,0.003 -0.025,0.01 -0.006,0.007 -0.01,0.015 -0.01,0.025 0,0.034 -0.006,0.066 -0.019,0.095 C 0.9,0.09 0.882,0.116 0.86,0.138 0.838,0.161 0.812,0.178 0.782,0.191 0.752,0.204 0.72,0.21 0.687,0.21 Z"
         style="fill-rule:nonzero"
         id="path7316" /><path
         d="m 0.32,-0.371 c 0,-0.006 0.001,-0.012 0.002,-0.018 C 0.323,-0.395 0.325,-0.401 0.327,-0.406 0.329,-0.412 0.33,-0.418 0.332,-0.424 0.334,-0.43 0.335,-0.436 0.335,-0.442 0.336,-0.446 0.336,-0.451 0.336,-0.456 V -0.47 L 0.335,-0.526 0.396,-0.662 0.335,-0.798 c 0,-0.006 0.001,-0.012 0.002,-0.017 0.001,-0.005 0.003,-0.01 0.006,-0.014 0.003,-0.004 0.006,-0.007 0.011,-0.01 0.005,-0.002 0.01,-0.003 0.017,-0.003 0.004,0 0.009,0 0.012,0.002 0.004,0.001 0.007,0.004 0.011,0.007 l 0.222,0.201 h 0.14 l 0.223,-0.201 c 0.007,-0.006 0.014,-0.009 0.023,-0.009 0.013,0 0.023,0.004 0.028,0.013 0.005,0.009 0.008,0.019 0.008,0.031 l -0.055,0.136 0.055,0.136 -0.001,0.069 c 0,0.007 0.001,0.015 0.003,0.022 0.002,0.008 0.004,0.014 0.007,0.021 0.002,0.006 0.005,0.012 0.007,0.018 0.002,0.006 0.003,0.01 0.003,0.014 v 0.034 c 0,0.022 -0.004,0.042 -0.012,0.061 -0.009,0.019 -0.02,0.036 -0.034,0.05 -0.015,0.015 -0.031,0.026 -0.05,0.034 -0.019,0.008 -0.04,0.013 -0.062,0.013 H 0.478 C 0.456,-0.19 0.436,-0.195 0.417,-0.203 0.398,-0.211 0.381,-0.222 0.367,-0.237 0.352,-0.251 0.341,-0.268 0.333,-0.287 0.324,-0.306 0.32,-0.326 0.32,-0.348 Z"
         style="fill:#757575;fill-rule:nonzero"
         id="path7318" /><path
         d="M 1.143,-0.246 H 1.051 l 0.056,0.105 h -0.14 c -0.014,0 -0.028,0.003 -0.041,0.009 C 0.914,-0.127 0.902,-0.119 0.893,-0.11 0.883,-0.1 0.876,-0.089 0.87,-0.076 0.865,-0.063 0.862,-0.05 0.862,-0.035 H 0.511 C 0.511,-0.05 0.508,-0.063 0.503,-0.076 0.497,-0.089 0.49,-0.1 0.48,-0.11 0.471,-0.119 0.459,-0.127 0.447,-0.132 0.434,-0.138 0.42,-0.141 0.406,-0.141 H 0.265 L 0.322,-0.246 H 0.23 l 0.105,-0.196 v 0.072 c 0,0.022 0.005,0.042 0.013,0.061 0.008,0.02 0.02,0.036 0.034,0.051 0.014,0.014 0.031,0.025 0.05,0.034 0.019,0.008 0.04,0.012 0.062,0.012 h 0.385 c 0.022,0 0.043,-0.004 0.062,-0.012 0.019,-0.009 0.036,-0.02 0.05,-0.034 0.015,-0.015 0.026,-0.031 0.034,-0.051 0.008,-0.019 0.013,-0.039 0.013,-0.061 V -0.442 Z M 0.875,-0.638 c 0,-0.003 0,-0.007 0.001,-0.011 0.002,-0.003 0.004,-0.007 0.007,-0.009 l 0.155,-0.14 v 0.272 L 0.89,-0.611 C 0.885,-0.613 0.881,-0.617 0.879,-0.622 0.876,-0.627 0.875,-0.632 0.875,-0.638 Z m -0.54,-0.16 0.155,0.14 c 0.003,0.002 0.005,0.006 0.007,0.009 0.001,0.004 0.002,0.008 0.002,0.011 0,0.006 -0.002,0.011 -0.005,0.016 -0.003,0.005 -0.007,0.009 -0.011,0.011 l -0.148,0.085 z"
         style="fill:#cccccc;fill-rule:nonzero"
         id="path7320" /><path
         d="m 0.687,-0.386 c 0.007,0 0.014,0.002 0.019,0.006 0.006,0.005 0.01,0.01 0.013,0.017 l 0.128,0.257 c 0.005,0.01 0.009,0.022 0.011,0.034 0.003,0.013 0.004,0.025 0.004,0.037 0,0.024 -0.005,0.047 -0.014,0.068 C 0.839,0.054 0.826,0.073 0.81,0.089 0.795,0.104 0.776,0.117 0.755,0.126 0.733,0.135 0.711,0.14 0.687,0.14 0.662,0.14 0.64,0.136 0.618,0.126 0.597,0.117 0.578,0.105 0.562,0.089 0.547,0.073 0.534,0.054 0.525,0.033 0.516,0.012 0.511,-0.011 0.511,-0.035 c 0,-0.012 0.001,-0.024 0.004,-0.036 0.002,-0.013 0.006,-0.024 0.011,-0.034 l 0.129,-0.26 c 0.003,-0.007 0.007,-0.012 0.012,-0.016 0.006,-0.003 0.012,-0.005 0.02,-0.005 z"
         style="fill:#ffffff;fill-rule:nonzero"
         id="path7322" /><path
         d="m 0.494,-0.491 c 0.007,0 0.014,0.001 0.02,0.004 0.006,0.003 0.012,0.006 0.017,0.011 0.004,0.005 0.008,0.01 0.011,0.017 0.003,0.006 0.004,0.013 0.004,0.02 v 0.07 c 0,0.008 -0.001,0.014 -0.004,0.021 C 0.539,-0.342 0.535,-0.336 0.531,-0.332 0.526,-0.327 0.52,-0.323 0.514,-0.32 0.508,-0.317 0.501,-0.316 0.494,-0.316 0.486,-0.316 0.48,-0.317 0.473,-0.32 0.467,-0.323 0.461,-0.327 0.457,-0.332 0.452,-0.336 0.448,-0.342 0.445,-0.348 0.442,-0.355 0.441,-0.361 0.441,-0.369 v -0.07 c 0,-0.007 0.001,-0.014 0.004,-0.02 0.003,-0.007 0.007,-0.013 0.012,-0.017 0.004,-0.005 0.01,-0.008 0.016,-0.011 0.007,-0.003 0.013,-0.004 0.021,-0.004 z m 0.385,0 c 0.008,0 0.014,0.001 0.021,0.004 0.006,0.003 0.012,0.006 0.017,0.011 0.004,0.004 0.008,0.01 0.011,0.017 0.003,0.006 0.004,0.013 0.004,0.02 v 0.07 c 0,0.008 -0.001,0.014 -0.004,0.021 C 0.925,-0.342 0.921,-0.336 0.917,-0.332 0.912,-0.327 0.906,-0.323 0.9,-0.32 0.893,-0.317 0.887,-0.316 0.879,-0.316 0.872,-0.316 0.865,-0.317 0.859,-0.32 0.853,-0.323 0.847,-0.327 0.842,-0.332 0.837,-0.336 0.834,-0.342 0.831,-0.348 0.828,-0.355 0.827,-0.361 0.827,-0.369 v -0.07 c 0,-0.007 0.001,-0.014 0.004,-0.02 0.003,-0.007 0.006,-0.012 0.011,-0.017 0.005,-0.005 0.011,-0.008 0.017,-0.011 0.006,-0.003 0.013,-0.004 0.02,-0.004 z M 0.687,0 C 0.682,0 0.677,-0.001 0.673,-0.002 0.669,-0.004 0.665,-0.007 0.662,-0.01 L 0.581,-0.105 H 0.792 L 0.711,-0.01 C 0.708,-0.007 0.704,-0.004 0.7,-0.002 0.696,-0.001 0.691,0 0.687,0 Z"
         style="fill-rule:nonzero"
         id="path7324" /></g></g></svg>
