<?xml version="1.0" encoding="UTF-8" standalone="no"?>
<svg
   width="16.844999"
   height="12.63"
   viewBox="0 0 16.844999 12.63"
   version="1.1"
   xml:space="preserve"
   style="clip-rule:evenodd;fill-rule:evenodd;stroke-linejoin:round;stroke-miterlimit:2"
   id="svg20568"
   sodipodi:docname="emojis.svg"
   xmlns:inkscape="http://www.inkscape.org/namespaces/inkscape"
   xmlns:sodipodi="http://sodipodi.sourceforge.net/DTD/sodipodi-0.dtd"
   xmlns="http://www.w3.org/2000/svg"
   xmlns:svg="http://www.w3.org/2000/svg"><defs
     id="defs20572" /><sodipodi:namedview
     id="namedview20570"
     pagecolor="#505050"
     bordercolor="#eeeeee"
     borderopacity="1"
     inkscape:pageshadow="0"
     inkscape:pageopacity="0"
     inkscape:pagecheckerboard="0" /><g
     transform="matrix(0.24,0,0,0.24,-257.739,-372.9384)"
     id="g20566"><g
       transform="matrix(62.5,0,0,62.5,1066.1,1602.16)"
       id="g7354"><path
         d="M 1.055,0.07 C 1.035,0.07 1.017,0.064 1,0.051 L 0.928,-0.003 C 0.908,0.009 0.889,0.019 0.87,0.028 0.851,0.037 0.832,0.045 0.813,0.051 0.793,0.057 0.773,0.062 0.753,0.065 0.732,0.069 0.71,0.07 0.687,0.07 0.642,0.07 0.6,0.064 0.561,0.052 0.521,0.039 0.483,0.021 0.445,-0.003 L 0.371,0.052 C 0.355,0.064 0.337,0.07 0.318,0.07 0.307,0.07 0.297,0.069 0.288,0.065 0.278,0.061 0.27,0.056 0.262,0.05 0.254,0.044 0.248,0.036 0.243,0.027 0.237,0.019 0.234,0.009 0.232,-0.001 0.222,-0.003 0.212,-0.007 0.203,-0.012 0.194,-0.017 0.187,-0.024 0.18,-0.031 0.174,-0.039 0.169,-0.048 0.166,-0.057 0.162,-0.067 0.16,-0.077 0.16,-0.087 0.16,-0.103 0.164,-0.117 0.171,-0.13 0.178,-0.143 0.188,-0.153 0.201,-0.162 0.177,-0.183 0.158,-0.208 0.145,-0.237 0.132,-0.266 0.125,-0.296 0.125,-0.329 0.125,-0.346 0.127,-0.362 0.13,-0.376 0.133,-0.391 0.138,-0.404 0.144,-0.417 0.15,-0.431 0.157,-0.443 0.166,-0.455 0.175,-0.467 0.185,-0.479 0.196,-0.492 0.187,-0.506 0.18,-0.52 0.175,-0.533 0.17,-0.546 0.167,-0.559 0.165,-0.572 0.162,-0.585 0.161,-0.598 0.161,-0.612 0.16,-0.625 0.16,-0.64 0.16,-0.655 v -0.012 c 0,-0.014 0.003,-0.028 0.008,-0.041 0.006,-0.012 0.013,-0.023 0.023,-0.033 0.009,-0.01 0.021,-0.017 0.033,-0.023 0.013,-0.005 0.027,-0.008 0.041,-0.008 h 0.052 c 0.026,0 0.051,0.004 0.076,0.013 0.024,0.008 0.047,0.021 0.067,0.037 0.035,-0.017 0.072,-0.029 0.11,-0.038 0.038,-0.008 0.077,-0.012 0.116,-0.012 0.039,0 0.078,0.004 0.116,0.012 0.039,0.009 0.076,0.021 0.111,0.038 0.015,-0.012 0.03,-0.022 0.045,-0.028 0.014,-0.007 0.029,-0.012 0.044,-0.015 0.015,-0.003 0.03,-0.005 0.046,-0.006 0.016,-0.001 0.033,-0.001 0.051,-0.001 h 0.008 c 0.015,0 0.029,0.003 0.041,0.008 0.013,0.006 0.024,0.013 0.034,0.023 0.009,0.009 0.017,0.02 0.023,0.033 0.005,0.013 0.008,0.026 0.008,0.041 v 0.052 c 0,0.022 -0.003,0.043 -0.009,0.064 -0.007,0.021 -0.015,0.04 -0.027,0.059 0.023,0.024 0.04,0.049 0.052,0.074 0.013,0.026 0.019,0.055 0.019,0.089 0,0.032 -0.007,0.063 -0.02,0.091 -0.013,0.029 -0.032,0.054 -0.056,0.076 0.013,0.008 0.023,0.019 0.03,0.032 0.007,0.014 0.011,0.028 0.011,0.043 0,0.01 -0.002,0.02 -0.005,0.03 C 1.204,-0.048 1.199,-0.039 1.193,-0.031 1.186,-0.024 1.179,-0.017 1.17,-0.012 1.161,-0.007 1.152,-0.003 1.141,-0.001 1.139,0.009 1.136,0.018 1.13,0.027 1.125,0.036 1.119,0.043 1.111,0.05 1.103,0.056 1.095,0.061 1.085,0.065 1.076,0.069 1.066,0.07 1.055,0.07 Z"
         style="fill-rule:nonzero"
         id="path7340" /><path
         d="M 0.476,-0.457 H 0.389 C 0.367,-0.457 0.346,-0.461 0.327,-0.469 0.308,-0.477 0.291,-0.489 0.277,-0.503 0.263,-0.517 0.251,-0.534 0.243,-0.553 0.235,-0.572 0.23,-0.593 0.23,-0.615 v -0.052 c 0,-0.009 0.004,-0.018 0.01,-0.025 0.007,-0.007 0.015,-0.01 0.025,-0.01 h 0.052 c 0.022,0 0.043,0.004 0.062,0.012 0.019,0.009 0.036,0.02 0.05,0.034 0.015,0.015 0.026,0.032 0.035,0.051 0.008,0.019 0.012,0.04 0.012,0.062 z m 0.421,0 v -0.086 c 0,-0.022 0.004,-0.043 0.012,-0.062 0.009,-0.019 0.02,-0.036 0.035,-0.051 0.014,-0.014 0.031,-0.025 0.05,-0.034 0.019,-0.008 0.04,-0.012 0.062,-0.012 h 0.051 c 0.01,0 0.018,0.003 0.025,0.01 0.007,0.007 0.011,0.015 0.011,0.025 v 0.052 c 0,0.022 -0.005,0.043 -0.013,0.062 -0.008,0.019 -0.019,0.036 -0.034,0.05 -0.014,0.014 -0.031,0.026 -0.05,0.034 -0.019,0.008 -0.04,0.012 -0.062,0.012 z"
         style="fill:#e5e5e5;fill-rule:nonzero"
         id="path7342" /><path
         d="M 0.241,-0.221 C 0.226,-0.235 0.215,-0.251 0.207,-0.27 0.199,-0.289 0.195,-0.308 0.195,-0.329 c 0,-0.018 0.004,-0.036 0.01,-0.053 0.007,-0.018 0.016,-0.033 0.028,-0.047 l 0.08,-0.089 0.028,-0.074 c 0.012,-0.005 0.025,-0.009 0.038,-0.012 0.013,-0.004 0.025,-0.008 0.038,-0.013 0.003,-0.001 0.006,-0.003 0.009,-0.006 0.003,-0.002 0.006,-0.004 0.01,-0.006 0.016,-0.01 0.032,-0.02 0.049,-0.028 0.031,-0.015 0.064,-0.026 0.098,-0.034 0.034,-0.007 0.068,-0.011 0.104,-0.011 0.034,0 0.069,0.004 0.103,0.011 0.034,0.008 0.067,0.019 0.098,0.035 0.009,0.004 0.017,0.008 0.025,0.012 0.008,0.005 0.016,0.01 0.024,0.015 0.003,0.002 0.006,0.004 0.009,0.006 0.003,0.003 0.006,0.005 0.01,0.006 0.012,0.005 0.025,0.009 0.038,0.013 0.013,0.003 0.025,0.007 0.038,0.012 l 0.029,0.074 0.079,0.089 c 0.012,0.014 0.021,0.029 0.028,0.047 0.006,0.017 0.01,0.035 0.01,0.053 0,0.021 -0.004,0.04 -0.012,0.059 -0.008,0.019 -0.019,0.035 -0.034,0.049 z"
         style="fill:#a6a6a6;fill-rule:nonzero"
         id="path7344" /><path
         d="m 0.844,-0.491 c 0.022,0 0.042,0.004 0.061,0.012 0.019,0.007 0.036,0.019 0.051,0.034 l 0.135,0.135 c 0.012,0.012 0.022,0.026 0.029,0.041 0.007,0.015 0.011,0.031 0.012,0.048 -0.002,0.003 -0.006,0.006 -0.011,0.01 -0.006,0.004 -0.012,0.009 -0.019,0.014 -0.007,0.005 -0.014,0.01 -0.022,0.015 -0.008,0.005 -0.015,0.01 -0.022,0.014 C 1.052,-0.164 1.046,-0.16 1.041,-0.157 1.035,-0.154 1.032,-0.152 1.03,-0.151 H 0.915 c -0.004,0.008 -0.009,0.018 -0.015,0.03 -0.007,0.012 -0.014,0.023 -0.021,0.035 -0.008,0.012 -0.015,0.023 -0.024,0.033 -0.008,0.01 -0.015,0.017 -0.022,0.022 0,0 -0.001,0.001 -0.003,0.001 l -0.011,0.005 c -0.001,0 -0.002,0.001 -0.003,0.001 C 0.775,-0.008 0.732,0 0.687,0 0.641,0 0.598,-0.008 0.557,-0.024 0.556,-0.024 0.555,-0.025 0.554,-0.025 L 0.543,-0.03 C 0.541,-0.03 0.54,-0.031 0.54,-0.031 0.533,-0.035 0.526,-0.043 0.518,-0.053 0.51,-0.063 0.502,-0.074 0.494,-0.086 0.487,-0.098 0.48,-0.109 0.474,-0.121 0.467,-0.133 0.463,-0.143 0.459,-0.151 H 0.343 C 0.341,-0.152 0.338,-0.154 0.333,-0.157 0.328,-0.16 0.322,-0.164 0.315,-0.168 0.308,-0.173 0.301,-0.177 0.293,-0.182 0.286,-0.187 0.278,-0.192 0.271,-0.198 0.264,-0.203 0.258,-0.207 0.252,-0.211 0.247,-0.215 0.243,-0.218 0.241,-0.221 0.242,-0.238 0.246,-0.254 0.253,-0.269 0.261,-0.284 0.27,-0.298 0.282,-0.31 l 0.135,-0.135 c 0.015,-0.015 0.032,-0.027 0.051,-0.034 0.019,-0.008 0.039,-0.012 0.061,-0.012 0.017,0 0.033,0.003 0.048,0.009 0.015,0.007 0.028,0.015 0.039,0.026 0.011,0.012 0.019,0.025 0.026,0.039 0.006,0.015 0.009,0.031 0.009,0.048 v 0.123 h 0.071 v -0.123 c 0,-0.017 0.003,-0.032 0.009,-0.047 0.007,-0.015 0.016,-0.028 0.027,-0.039 0.011,-0.011 0.024,-0.02 0.039,-0.026 0.014,-0.007 0.03,-0.01 0.047,-0.01 z"
         style="fill:#ffffff;fill-rule:nonzero"
         id="path7346" /><path
         d="m 0.616,-0.333 v 0.088 c -0.015,0.002 -0.029,0.007 -0.041,0.014 -0.013,0.006 -0.024,0.015 -0.033,0.026 -0.01,0.011 -0.017,0.023 -0.023,0.036 -0.005,0.014 -0.008,0.028 -0.008,0.043 v 0.025 c 0,0.013 0.003,0.026 0.008,0.038 0.004,0.012 0.012,0.023 0.021,0.032 C 0.531,-0.035 0.521,-0.04 0.512,-0.045 0.503,-0.05 0.494,-0.056 0.485,-0.061 L 0.342,-0.152 C 0.332,-0.158 0.324,-0.167 0.319,-0.177 0.313,-0.188 0.311,-0.2 0.311,-0.211 c 0,-0.019 0.006,-0.036 0.02,-0.049 l 0.135,-0.136 c 0.009,-0.008 0.018,-0.014 0.029,-0.019 0.011,-0.004 0.022,-0.006 0.034,-0.006 0.012,0 0.023,0.002 0.034,0.006 0.01,0.005 0.02,0.011 0.028,0.019 0.008,0.008 0.014,0.018 0.018,0.028 0.005,0.011 0.007,0.022 0.007,0.035 z m 0.217,0.302 C 0.838,-0.035 0.842,-0.039 0.845,-0.044 0.849,-0.05 0.852,-0.056 0.854,-0.063 0.857,-0.069 0.859,-0.076 0.86,-0.083 0.861,-0.089 0.862,-0.095 0.862,-0.101 V -0.126 C 0.862,-0.141 0.859,-0.155 0.854,-0.169 0.848,-0.183 0.841,-0.195 0.832,-0.205 0.823,-0.216 0.811,-0.225 0.799,-0.231 0.786,-0.238 0.772,-0.243 0.757,-0.245 v -0.088 c 0,-0.013 0.002,-0.024 0.007,-0.035 0.004,-0.01 0.01,-0.02 0.018,-0.028 C 0.79,-0.404 0.8,-0.41 0.81,-0.415 c 0.011,-0.004 0.022,-0.006 0.034,-0.006 0.012,0 0.023,0.002 0.034,0.006 0.011,0.005 0.02,0.011 0.029,0.019 l 0.135,0.136 c 0.014,0.013 0.02,0.03 0.02,0.049 0,0.011 -0.002,0.023 -0.008,0.034 -0.005,0.01 -0.013,0.019 -0.023,0.025 L 0.888,-0.061 C 0.879,-0.056 0.87,-0.05 0.861,-0.045 0.852,-0.04 0.842,-0.035 0.833,-0.031 Z M 0.417,-0.617 C 0.396,-0.602 0.378,-0.587 0.362,-0.571 0.345,-0.554 0.329,-0.537 0.312,-0.518 0.298,-0.529 0.286,-0.544 0.278,-0.561 0.269,-0.578 0.265,-0.596 0.265,-0.615 v -0.052 h 0.052 c 0.02,0 0.038,0.004 0.056,0.013 0.017,0.009 0.032,0.022 0.044,0.037 z m 0.69,-0.05 v 0.052 c 0,0.019 -0.004,0.037 -0.012,0.054 C 1.087,-0.544 1.076,-0.529 1.061,-0.518 1.044,-0.537 1.028,-0.554 1.011,-0.571 0.995,-0.587 0.977,-0.602 0.956,-0.617 0.968,-0.632 0.982,-0.645 1,-0.654 1.018,-0.663 1.036,-0.667 1.056,-0.667 Z M 0.802,-0.019 0.82,-0.025 C 0.817,-0.024 0.814,-0.023 0.811,-0.022 0.808,-0.021 0.805,-0.02 0.802,-0.019 Z M 0.833,-0.031 0.82,-0.025 Z"
         style="fill:#383838;fill-rule:nonzero"
         id="path7348" /><path
         d="m 0.529,-0.386 c 0.007,0 0.014,0.001 0.02,0.004 0.007,0.003 0.012,0.007 0.017,0.011 0.004,0.005 0.008,0.011 0.011,0.017 0.003,0.007 0.004,0.013 0.004,0.021 v 0.035 c 0,0.007 -0.001,0.014 -0.004,0.02 -0.003,0.006 -0.007,0.012 -0.011,0.017 -0.005,0.005 -0.011,0.008 -0.017,0.011 -0.006,0.003 -0.013,0.004 -0.02,0.004 -0.007,0 -0.014,-0.001 -0.02,-0.004 C 0.502,-0.253 0.497,-0.256 0.492,-0.261 0.487,-0.266 0.483,-0.272 0.48,-0.278 0.477,-0.284 0.476,-0.291 0.476,-0.298 v -0.035 c 0,-0.008 0.001,-0.014 0.004,-0.021 0.003,-0.007 0.007,-0.012 0.011,-0.017 0.005,-0.005 0.011,-0.008 0.017,-0.011 0.006,-0.003 0.013,-0.004 0.021,-0.004 z m 0.315,0 c 0.007,0 0.014,0.001 0.021,0.004 0.006,0.003 0.012,0.006 0.017,0.011 0.004,0.005 0.008,0.01 0.011,0.017 0.003,0.007 0.004,0.013 0.004,0.021 v 0.035 c 0,0.007 -0.001,0.014 -0.004,0.02 C 0.89,-0.272 0.886,-0.266 0.881,-0.261 0.876,-0.256 0.871,-0.253 0.865,-0.25 0.858,-0.247 0.851,-0.246 0.844,-0.246 0.837,-0.246 0.83,-0.247 0.824,-0.25 0.818,-0.253 0.812,-0.256 0.807,-0.261 0.803,-0.266 0.799,-0.272 0.796,-0.278 0.793,-0.284 0.792,-0.291 0.792,-0.298 v -0.035 c 0,-0.008 0.001,-0.014 0.004,-0.021 0.003,-0.006 0.007,-0.012 0.011,-0.017 0.005,-0.004 0.01,-0.008 0.016,-0.011 0.007,-0.003 0.014,-0.004 0.021,-0.004 z M 0.687,-0.035 C 0.682,-0.035 0.678,-0.036 0.673,-0.038 0.668,-0.04 0.664,-0.042 0.661,-0.045 L 0.624,-0.089 c -0.005,-0.007 -0.008,-0.013 -0.008,-0.02 0,-0.009 0.003,-0.016 0.01,-0.022 0.006,-0.007 0.013,-0.01 0.022,-0.01 h 0.077 c 0.009,0 0.016,0.003 0.022,0.01 0.007,0.006 0.01,0.013 0.01,0.022 0,0.007 -0.003,0.014 -0.008,0.02 L 0.711,-0.045 C 0.709,-0.042 0.705,-0.04 0.7,-0.038 0.695,-0.036 0.691,-0.035 0.687,-0.035 Z"
         style="fill-rule:nonzero"
         id="path7350" /><path
         d="m 0.23,-0.088 c 0,-0.006 0.003,-0.01 0.007,-0.014 l 0.14,-0.105 C 0.38,-0.209 0.384,-0.21 0.388,-0.21 c 0.005,0 0.009,0.001 0.013,0.005 0.003,0.003 0.005,0.007 0.005,0.012 0,0.003 -0.001,0.005 -0.002,0.008 -0.001,0.002 -0.003,0.004 -0.005,0.006 l -0.14,0.105 C 0.256,-0.072 0.252,-0.07 0.248,-0.07 0.243,-0.07 0.239,-0.072 0.236,-0.075 0.232,-0.079 0.23,-0.083 0.23,-0.088 Z m 0.07,0.07 c 0,-0.005 0.003,-0.01 0.007,-0.013 l 0.14,-0.106 c 0.004,-0.002 0.008,-0.004 0.011,-0.004 0.005,0 0.009,0.002 0.013,0.006 0.003,0.003 0.005,0.007 0.005,0.012 0,0.005 -0.002,0.01 -0.007,0.014 l -0.14,0.105 C 0.326,-0.001 0.322,0 0.318,0 0.313,0 0.309,-0.002 0.305,-0.005 0.302,-0.009 0.3,-0.013 0.3,-0.018 Z m 0.843,-0.07 c 0,0.005 -0.002,0.009 -0.006,0.013 C 1.134,-0.072 1.13,-0.07 1.125,-0.07 1.121,-0.07 1.118,-0.072 1.114,-0.074 L 0.974,-0.179 C 0.972,-0.181 0.97,-0.183 0.969,-0.185 0.968,-0.188 0.967,-0.19 0.967,-0.193 c 0,-0.005 0.002,-0.009 0.006,-0.012 0.003,-0.004 0.007,-0.005 0.012,-0.005 0.004,0 0.008,0.001 0.011,0.003 l 0.14,0.105 c 0.004,0.004 0.007,0.008 0.007,0.014 z m -0.07,0.07 c 0,0.005 -0.002,0.009 -0.005,0.013 C 1.064,-0.002 1.06,0 1.055,0 1.051,0 1.047,-0.001 1.044,-0.004 L 0.904,-0.109 C 0.899,-0.113 0.897,-0.118 0.897,-0.123 c 0,-0.005 0.002,-0.009 0.005,-0.012 0.004,-0.004 0.008,-0.006 0.013,-0.006 0.003,0 0.007,0.002 0.011,0.004 l 0.14,0.106 c 0.002,0.001 0.004,0.003 0.005,0.006 0.001,0.002 0.002,0.004 0.002,0.007 z"
         style="fill:#757575;fill-rule:nonzero"
         id="path7352" /></g></g></svg>
