<?xml version="1.0" encoding="UTF-8" standalone="no"?>
<svg
   width="16.844999"
   height="16.844999"
   viewBox="0 0 16.844999 16.844999"
   version="1.1"
   xml:space="preserve"
   style="clip-rule:evenodd;fill-rule:evenodd;stroke-linejoin:round;stroke-miterlimit:2"
   id="svg20568"
   sodipodi:docname="emojis.svg"
   xmlns:inkscape="http://www.inkscape.org/namespaces/inkscape"
   xmlns:sodipodi="http://sodipodi.sourceforge.net/DTD/sodipodi-0.dtd"
   xmlns="http://www.w3.org/2000/svg"
   xmlns:svg="http://www.w3.org/2000/svg"><defs
     id="defs20572" /><sodipodi:namedview
     id="namedview20570"
     pagecolor="#505050"
     bordercolor="#eeeeee"
     borderopacity="1"
     inkscape:pageshadow="0"
     inkscape:pageopacity="0"
     inkscape:pagecheckerboard="0" /><g
     transform="matrix(0.24,0,0,0.24,-381.315,-370.8234)"
     id="g20566"><g
       transform="matrix(62.5,0,0,62.5,1581,1602.16)"
       id="g7434"><path
         d="m 1.038,-0.913 c 0.029,0 0.056,0.006 0.082,0.017 0.025,0.011 0.048,0.026 0.067,0.045 0.019,0.019 0.034,0.042 0.045,0.067 0.011,0.026 0.016,0.053 0.016,0.082 0,0.02 -0.002,0.038 -0.006,0.054 -0.005,0.016 -0.011,0.031 -0.019,0.045 -0.008,0.014 -0.017,0.027 -0.028,0.039 -0.011,0.013 -0.024,0.026 -0.037,0.039 0.013,0.046 0.02,0.092 0.02,0.139 0,0.068 -0.013,0.131 -0.037,0.188 -0.025,0.057 -0.06,0.11 -0.107,0.159 C 1.027,-0.032 1.02,-0.025 1.012,-0.019 1.002,0 0.99,0.017 0.976,0.032 0.962,0.047 0.946,0.06 0.928,0.071 0.924,0.091 0.917,0.11 0.906,0.126 0.895,0.143 0.882,0.158 0.867,0.17 0.852,0.183 0.835,0.192 0.816,0.199 0.797,0.206 0.777,0.21 0.757,0.21 H 0.616 C 0.595,0.21 0.576,0.207 0.557,0.2 0.538,0.193 0.521,0.183 0.506,0.171 0.49,0.159 0.478,0.144 0.467,0.127 0.456,0.11 0.449,0.091 0.444,0.071 0.427,0.06 0.411,0.047 0.396,0.032 0.382,0.017 0.37,0 0.361,-0.019 0.334,-0.041 0.311,-0.067 0.29,-0.095 0.27,-0.123 0.252,-0.153 0.238,-0.185 0.224,-0.216 0.213,-0.249 0.206,-0.283 0.198,-0.317 0.195,-0.352 0.195,-0.387 c 0,-0.046 0.006,-0.092 0.02,-0.138 C 0.201,-0.538 0.189,-0.551 0.178,-0.564 0.167,-0.576 0.157,-0.589 0.149,-0.603 0.142,-0.617 0.136,-0.632 0.131,-0.648 0.127,-0.664 0.125,-0.682 0.125,-0.702 c 0,-0.029 0.005,-0.056 0.016,-0.082 0.011,-0.025 0.026,-0.048 0.045,-0.067 0.019,-0.019 0.041,-0.034 0.067,-0.045 0.025,-0.011 0.053,-0.017 0.081,-0.017 0.021,0 0.041,0.003 0.061,0.009 0.02,0.006 0.038,0.015 0.056,0.026 h 0.471 c 0.017,-0.011 0.036,-0.02 0.056,-0.026 0.019,-0.006 0.04,-0.009 0.06,-0.009 z"
         style="fill-rule:nonzero"
         id="path7422" /><path
         d="m 0.945,-0.807 c 0.013,-0.012 0.027,-0.02 0.043,-0.026 0.016,-0.007 0.033,-0.01 0.05,-0.01 0.019,0 0.037,0.004 0.054,0.011 0.017,0.008 0.032,0.018 0.045,0.031 0.012,0.012 0.022,0.027 0.03,0.044 0.007,0.017 0.011,0.036 0.011,0.055 0,0.019 -0.004,0.037 -0.011,0.053 -0.007,0.017 -0.017,0.032 -0.03,0.046 l -0.06,0.06 c 0.02,0.051 0.03,0.103 0.03,0.158 0,0.024 -0.002,0.048 -0.006,0.071 -0.004,0.023 -0.01,0.046 -0.018,0.069 L 1.036,-0.212 1.028,-0.141 C 1.008,-0.113 0.985,-0.089 0.96,-0.067 0.935,-0.045 0.907,-0.027 0.878,-0.012 0.849,0.003 0.818,0.015 0.786,0.023 0.754,0.031 0.721,0.035 0.687,0.035 0.653,0.035 0.619,0.031 0.587,0.023 0.554,0.015 0.523,0.003 0.494,-0.012 0.465,-0.027 0.437,-0.046 0.412,-0.067 0.386,-0.089 0.364,-0.114 0.344,-0.141 L 0.338,-0.215 0.29,-0.246 C 0.282,-0.268 0.276,-0.291 0.272,-0.314 0.268,-0.338 0.266,-0.361 0.266,-0.385 c 0,-0.028 0.002,-0.054 0.007,-0.081 0.006,-0.026 0.013,-0.052 0.023,-0.077 l -0.06,-0.06 C 0.223,-0.617 0.213,-0.632 0.206,-0.649 0.198,-0.665 0.195,-0.683 0.195,-0.702 c 0,-0.019 0.003,-0.038 0.011,-0.055 0.007,-0.017 0.017,-0.032 0.03,-0.044 0.013,-0.013 0.027,-0.023 0.044,-0.031 0.017,-0.007 0.035,-0.011 0.054,-0.011 0.018,0 0.034,0.003 0.051,0.01 0.016,0.006 0.03,0.014 0.043,0.026 h 0.153 l 0.105,0.038 0.106,-0.039 z"
         style="fill:#f7630c;fill-rule:nonzero"
         id="path7424" /><path
         d="m 0.335,-0.772 c 0.014,0 0.025,0.002 0.033,0.008 0.009,0.005 0.018,0.013 0.027,0.021 L 0.327,-0.612 0.286,-0.653 c -0.014,-0.014 -0.021,-0.03 -0.021,-0.049 0,-0.01 0.002,-0.019 0.006,-0.027 C 0.274,-0.738 0.28,-0.745 0.286,-0.752 0.292,-0.758 0.3,-0.763 0.308,-0.767 0.317,-0.771 0.326,-0.772 0.335,-0.772 Z m 0.703,0 c 0.009,0 0.018,0.001 0.027,0.005 0.008,0.004 0.016,0.009 0.022,0.015 0.007,0.007 0.011,0.014 0.015,0.023 0.004,0.008 0.005,0.017 0.005,0.027 0,0.019 -0.006,0.035 -0.02,0.049 L 1.046,-0.612 0.979,-0.743 C 0.988,-0.752 0.996,-0.759 1.005,-0.764 1.013,-0.77 1.024,-0.772 1.038,-0.772 Z"
         style="fill:#da3b01;fill-rule:nonzero"
         id="path7426" /><path
         d="m 0.967,-0.597 c 0.01,0 0.019,0.002 0.028,0.005 0.008,0.004 0.015,0.009 0.022,0.016 0.006,0.006 0.011,0.013 0.015,0.022 0.004,0.008 0.006,0.017 0.006,0.027 v 0.141 c 0,0.009 -0.002,0.017 -0.006,0.026 -0.003,0.008 -0.008,0.015 -0.014,0.022 l -0.101,0.1 c 0.016,0.015 0.028,0.033 0.037,0.053 0.009,0.02 0.013,0.04 0.013,0.062 0,0.017 -0.002,0.033 -0.008,0.048 C 0.954,-0.06 0.947,-0.046 0.938,-0.033 0.928,-0.02 0.917,-0.008 0.905,0.002 0.892,0.012 0.877,0.019 0.862,0.025 v 0.01 C 0.862,0.049 0.859,0.063 0.854,0.076 0.848,0.088 0.84,0.1 0.831,0.109 0.822,0.119 0.811,0.126 0.798,0.132 0.785,0.137 0.771,0.14 0.757,0.14 H 0.616 C 0.602,0.14 0.588,0.137 0.575,0.132 0.563,0.126 0.551,0.119 0.542,0.109 0.532,0.1 0.525,0.088 0.519,0.076 0.514,0.063 0.511,0.049 0.511,0.035 V 0.025 C 0.495,0.019 0.481,0.012 0.468,0.002 0.455,-0.008 0.444,-0.02 0.435,-0.032 0.426,-0.045 0.418,-0.059 0.413,-0.075 0.408,-0.09 0.406,-0.106 0.406,-0.123 c 0,-0.022 0.004,-0.042 0.013,-0.062 0.008,-0.02 0.02,-0.038 0.036,-0.053 l -0.101,-0.1 C 0.348,-0.345 0.344,-0.352 0.34,-0.36 0.337,-0.369 0.335,-0.377 0.335,-0.386 v -0.141 c 0,-0.01 0.002,-0.019 0.006,-0.027 C 0.345,-0.563 0.35,-0.57 0.356,-0.576 0.363,-0.583 0.37,-0.588 0.378,-0.592 0.387,-0.595 0.396,-0.597 0.406,-0.597 h 0.14 v 0.386 l 0.138,0.054 0.143,-0.054 v -0.386 z"
         style="fill:#ffffff;fill-rule:nonzero"
         id="path7428" /><path
         d="m 0.792,-0.808 -0.07,0.071 h 0.14 L 0.687,-0.562 0.511,-0.737 h 0.14 L 0.581,-0.808 Z M 0.687,-0.07 C 0.68,-0.07 0.674,-0.072 0.668,-0.074 0.662,-0.076 0.657,-0.08 0.653,-0.084 L 0.546,-0.211 H 0.827 L 0.72,-0.084 C 0.716,-0.08 0.711,-0.076 0.705,-0.074 0.699,-0.072 0.693,-0.07 0.687,-0.07 Z M 1.029,-0.141 1.002,-0.246 H 1.083 C 1.07,-0.208 1.052,-0.174 1.029,-0.141 Z m -0.685,0 C 0.321,-0.174 0.303,-0.209 0.29,-0.246 h 0.08 z"
         style="fill:#383838;fill-rule:nonzero"
         id="path7430" /><path
         d="m 0.915,-0.527 c 0.007,0 0.014,0.002 0.02,0.004 0.007,0.003 0.012,0.007 0.017,0.012 0.005,0.004 0.008,0.01 0.011,0.016 0.003,0.007 0.004,0.014 0.004,0.021 v 0.07 c 0,0.008 -0.001,0.015 -0.004,0.021 -0.003,0.006 -0.006,0.012 -0.011,0.016 -0.005,0.005 -0.011,0.009 -0.017,0.011 -0.007,0.003 -0.013,0.004 -0.02,0.004 -0.008,0 -0.014,-0.001 -0.021,-0.004 C 0.888,-0.358 0.882,-0.362 0.877,-0.367 0.873,-0.371 0.869,-0.377 0.866,-0.383 0.863,-0.389 0.862,-0.396 0.862,-0.404 v -0.07 c 0,-0.007 0.001,-0.014 0.004,-0.021 0.003,-0.006 0.006,-0.012 0.011,-0.016 0.005,-0.005 0.01,-0.009 0.017,-0.012 0.006,-0.002 0.013,-0.004 0.021,-0.004 z m -0.457,0 c 0.008,0 0.014,0.002 0.021,0.004 0.007,0.003 0.012,0.007 0.017,0.012 0.004,0.005 0.008,0.01 0.011,0.017 0.002,0.006 0.004,0.013 0.004,0.02 v 0.07 c 0,0.007 -0.002,0.014 -0.004,0.02 -0.003,0.007 -0.007,0.012 -0.012,0.017 -0.004,0.005 -0.01,0.009 -0.016,0.011 -0.007,0.003 -0.013,0.004 -0.021,0.004 -0.007,0 -0.013,-0.001 -0.02,-0.004 C 0.432,-0.358 0.426,-0.362 0.421,-0.367 0.417,-0.371 0.413,-0.377 0.41,-0.383 0.407,-0.389 0.406,-0.396 0.406,-0.404 v -0.07 c 0,-0.007 10e-4,-0.014 0.004,-0.021 0.003,-0.006 0.006,-0.012 0.011,-0.016 0.005,-0.005 0.01,-0.009 0.017,-0.012 0.006,-0.002 0.013,-0.004 0.02,-0.004 z m 0.229,0.502 C 0.699,-0.01 0.713,0.002 0.729,0.012 0.746,0.021 0.763,0.028 0.782,0.032 0.769,0.044 0.754,0.053 0.738,0.06 0.721,0.066 0.704,0.07 0.687,0.07 0.669,0.07 0.652,0.067 0.635,0.06 0.619,0.054 0.604,0.044 0.591,0.032 0.61,0.028 0.627,0.022 0.644,0.012 0.661,0.002 0.675,-0.01 0.687,-0.025 Z"
         style="fill-rule:nonzero"
         id="path7432" /></g></g></svg>
