<?xml version="1.0" encoding="UTF-8" standalone="no"?>
<svg
   width="16.844999"
   height="16.844999"
   viewBox="0 0 16.844999 16.844999"
   version="1.1"
   xml:space="preserve"
   style="clip-rule:evenodd;fill-rule:evenodd;stroke-linejoin:round;stroke-miterlimit:2"
   id="svg20568"
   sodipodi:docname="emojis.svg"
   xmlns:inkscape="http://www.inkscape.org/namespaces/inkscape"
   xmlns:sodipodi="http://sodipodi.sourceforge.net/DTD/sodipodi-0.dtd"
   xmlns="http://www.w3.org/2000/svg"
   xmlns:svg="http://www.w3.org/2000/svg"><defs
     id="defs20572" /><sodipodi:namedview
     id="namedview20570"
     pagecolor="#505050"
     bordercolor="#eeeeee"
     borderopacity="1"
     inkscape:pageshadow="0"
     inkscape:pageopacity="0"
     inkscape:pagecheckerboard="0" /><g
     transform="matrix(0.24,0,0,0.24,-504.8886,-370.8234)"
     id="g20566"><g
       transform="matrix(62.5,0,0,62.5,2095.89,1602.16)"
       id="g7524"><path
         d="m 0.803,-0.873 c 0.013,0.002 0.026,0.004 0.038,0.007 0.013,0.002 0.026,0.005 0.038,0.008 0.033,0.009 0.066,0.021 0.097,0.038 0.031,0.016 0.061,0.036 0.088,0.059 0.027,0.023 0.052,0.048 0.075,0.076 0.023,0.028 0.042,0.057 0.058,0.089 0.016,0.031 0.029,0.064 0.038,0.098 0.009,0.034 0.013,0.069 0.013,0.103 V 0.21 H 0.58 L 0.686,-0.035 H 0.646 L 0.614,-0.004 C 0.61,0.027 0.601,0.055 0.587,0.081 0.573,0.108 0.555,0.13 0.533,0.149 0.511,0.169 0.487,0.184 0.459,0.194 0.431,0.205 0.402,0.21 0.371,0.21 0.337,0.21 0.305,0.204 0.275,0.191 0.245,0.178 0.219,0.161 0.197,0.139 0.175,0.117 0.157,0.09 0.144,0.061 0.131,0.031 0.125,-0.001 0.125,-0.035 c 0,-0.014 0.001,-0.026 0.002,-0.037 0.002,-0.011 0.005,-0.022 0.008,-0.032 0.003,-0.01 0.007,-0.021 0.012,-0.031 0.005,-0.01 0.011,-0.021 0.017,-0.033 L 0.416,-0.633 C 0.42,-0.642 0.425,-0.65 0.429,-0.658 0.433,-0.666 0.438,-0.673 0.443,-0.68 0.447,-0.687 0.453,-0.694 0.458,-0.701 0.464,-0.708 0.471,-0.715 0.479,-0.723 L 0.416,-0.777 c 0.02,-0.012 0.038,-0.023 0.055,-0.033 0.017,-0.011 0.035,-0.02 0.052,-0.029 0.018,-0.009 0.036,-0.016 0.055,-0.022 0.019,-0.007 0.04,-0.011 0.063,-0.014 0.01,-0.012 0.022,-0.021 0.036,-0.028 0.014,-0.006 0.029,-0.01 0.045,-0.01 0.015,0 0.03,0.004 0.045,0.011 0.015,0.007 0.027,0.017 0.036,0.029 z"
         style="fill-rule:nonzero"
         id="path7508" /><path
         d="M 1.178,-0.035 1.126,0 1.178,0.035 V 0.14 H 0.827 L 0.734,0.029 0.792,-0.105 C 0.788,-0.136 0.785,-0.167 0.781,-0.197 0.776,-0.227 0.773,-0.257 0.771,-0.288 0.763,-0.375 0.756,-0.462 0.75,-0.548 0.743,-0.634 0.737,-0.72 0.73,-0.807 c 0.033,0 0.066,0.003 0.099,0.009 0.033,0.006 0.064,0.016 0.094,0.03 l 0.017,0.057 h 0.076 c 0.015,0.013 0.03,0.027 0.043,0.04 0.013,0.014 0.026,0.029 0.038,0.045 l -0.009,0.069 c 10e-4,0 0.005,0.001 0.011,0.002 l 0.038,0.008 c 0.005,0.002 0.008,0.002 0.008,0.002 0.01,0.024 0.018,0.048 0.024,0.074 0.006,0.025 0.009,0.05 0.009,0.076 v 0.009 l -0.052,0.035 0.052,0.035 v 0.106 l -0.042,0.034 0.042,0.035 z"
         style="fill:#383838;fill-rule:nonzero"
         id="path7510" /><path
         d="M 0.687,-0.807 H 0.73 l 0.009,0.114 -0.158,0.026 C 0.581,-0.686 0.577,-0.704 0.569,-0.722 0.562,-0.739 0.55,-0.754 0.536,-0.766 0.559,-0.78 0.584,-0.79 0.608,-0.797 c 0.025,-0.007 0.051,-0.01 0.079,-0.01 z m 0.236,0.039 c 0.034,0.016 0.065,0.036 0.093,0.059 l -0.154,0.077 -0.07,-0.07 z m 0.173,0.142 c 0.01,0.012 0.018,0.025 0.027,0.039 0.008,0.013 0.015,0.027 0.022,0.042 L 1.032,-0.488 0.967,-0.562 Z m 0.082,0.31 H 1.038 L 0.985,-0.351 1.038,-0.386 h 0.14 z m 0,0.351 H 1.038 L 0.999,0 1.038,-0.035 h 0.14 z m 0,-0.176 H 1.038 L 0.999,-0.176 1.038,-0.21 h 0.14 z"
         style="fill:#a6a6a6;fill-rule:nonzero"
         id="path7512" /><path
         d="M 0.307,0 0.373,-0.312 C 0.376,-0.326 0.379,-0.34 0.381,-0.353 0.383,-0.365 0.385,-0.378 0.388,-0.39 0.39,-0.402 0.392,-0.414 0.395,-0.426 c 0.003,-0.013 0.007,-0.026 0.011,-0.041 0,-0.001 10e-4,-0.004 0.005,-0.01 C 0.414,-0.483 0.418,-0.491 0.423,-0.5 0.428,-0.509 0.434,-0.519 0.439,-0.53 0.445,-0.54 0.45,-0.55 0.456,-0.56 0.461,-0.569 0.465,-0.578 0.469,-0.584 L 0.488,-0.62 C 0.492,-0.626 0.495,-0.632 0.499,-0.637 0.502,-0.643 0.506,-0.648 0.51,-0.654 0.515,-0.659 0.52,-0.665 0.525,-0.67 0.547,-0.692 0.571,-0.708 0.599,-0.72 0.627,-0.732 0.656,-0.737 0.687,-0.737 v -0.07 c 0,-0.01 0.003,-0.018 0.01,-0.025 0.007,-0.007 0.015,-0.01 0.025,-0.01 0.005,0 0.01,0.001 0.014,0.003 0.005,0.002 0.008,0.006 0.012,0.009 l 0.084,0.09 c 0.005,0.006 0.011,0.012 0.016,0.018 0.005,0.006 0.009,0.012 0.013,0.018 0.004,0.006 0.007,0.013 0.01,0.021 0.002,0.007 0.003,0.015 0.004,0.024 l 0.02,0.013 c 0.017,0.011 0.032,0.021 0.046,0.031 0.015,0.01 0.028,0.02 0.039,0.032 0.012,0.012 0.022,0.026 0.031,0.041 0.009,0.015 0.016,0.033 0.021,0.054 l -0.205,0.102 h 0.211 v 0.07 L 0.827,-0.21 H 1.038 V 0.035 L 0.827,0.14 H 0.687 L 0.734,0.029 1.002,-0.105 H 0.616 l -0.07,0.07 z"
         style="fill:#ffffff;fill-rule:nonzero"
         id="path7514" /><path
         d="m 0.634,-0.526 c 0.007,0 0.014,0.001 0.02,0.004 0.006,0.003 0.012,0.006 0.017,0.011 0.005,0.004 0.009,0.01 0.011,0.016 0.003,0.007 0.005,0.014 0.005,0.021 v 0.07 c 0,0.008 -0.002,0.015 -0.005,0.021 -0.002,0.006 -0.006,0.012 -0.011,0.017 -0.005,0.004 -0.01,0.008 -0.017,0.011 -0.006,0.003 -0.013,0.004 -0.02,0.004 -0.007,0 -0.014,-0.001 -0.02,-0.004 C 0.607,-0.358 0.602,-0.362 0.597,-0.367 0.592,-0.372 0.588,-0.377 0.585,-0.384 0.582,-0.39 0.581,-0.397 0.581,-0.404 v -0.07 c 0,-0.007 0.001,-0.014 0.004,-0.02 0.003,-0.007 0.007,-0.012 0.012,-0.017 0.005,-0.005 0.01,-0.008 0.017,-0.011 0.006,-0.003 0.013,-0.004 0.02,-0.004 z"
         style="fill-rule:nonzero"
         id="path7516" /><path
         d="m 0.406,-0.247 0.087,0.086 c 0.017,0.016 0.03,0.036 0.039,0.058 0.009,0.022 0.014,0.044 0.014,0.068 0,0.024 -0.005,0.047 -0.014,0.068 C 0.523,0.054 0.511,0.073 0.495,0.089 0.479,0.105 0.46,0.117 0.439,0.126 0.418,0.136 0.395,0.14 0.371,0.14 0.346,0.14 0.323,0.136 0.302,0.126 0.281,0.117 0.263,0.105 0.247,0.089 0.231,0.073 0.218,0.054 0.209,0.033 0.2,0.012 0.195,-0.011 0.195,-0.035 c 0,-0.01 0.001,-0.019 0.002,-0.027 C 0.199,-0.071 0.2,-0.079 0.203,-0.086 0.205,-0.094 0.208,-0.101 0.212,-0.109 0.216,-0.116 0.22,-0.124 0.225,-0.133 l 0.181,-0.334 z"
         style="fill:#383838;fill-rule:nonzero"
         id="path7518" /><path
         d="m 0.722,-0.79 0.09,0.103 c 0.004,0.006 0.008,0.012 0.011,0.018 0.002,0.005 0.004,0.012 0.004,0.02 0,0.007 -0.002,0.014 -0.004,0.02 -0.003,0.006 -0.007,0.012 -0.012,0.017 -0.004,0.005 -0.01,0.008 -0.016,0.011 -0.007,0.003 -0.013,0.004 -0.021,0.004 -0.007,0 -0.014,-0.001 -0.02,-0.004 C 0.747,-0.604 0.742,-0.607 0.737,-0.612 0.732,-0.617 0.729,-0.622 0.726,-0.629 0.723,-0.635 0.722,-0.642 0.722,-0.649 Z"
         style="fill:#ee9889;fill-rule:nonzero"
         id="path7520" /><path
         d="m 0.358,-0.14 c 0.014,0 0.025,0.004 0.034,0.013 0.009,0.009 0.014,0.02 0.014,0.034 0,0.009 -0.003,0.017 -0.007,0.025 -0.005,0.007 -0.011,0.012 -0.02,0.017 C 0.361,-0.042 0.341,-0.034 0.322,-0.025 0.303,-0.017 0.284,-0.009 0.265,0 0.274,-0.019 0.282,-0.038 0.29,-0.057 0.298,-0.077 0.307,-0.096 0.316,-0.114 0.32,-0.123 0.326,-0.129 0.333,-0.134 0.341,-0.138 0.349,-0.14 0.358,-0.14 Z"
         style="fill-rule:nonzero"
         id="path7522" /></g></g></svg>
