<?xml version="1.0" encoding="UTF-8" standalone="no"?>
<svg
   width="16.844999"
   height="16.844999"
   viewBox="0 0 16.844999 16.844999"
   version="1.1"
   xml:space="preserve"
   style="clip-rule:evenodd;fill-rule:evenodd;stroke-linejoin:round;stroke-miterlimit:2"
   id="svg20568"
   sodipodi:docname="emojis.svg"
   xmlns:inkscape="http://www.inkscape.org/namespaces/inkscape"
   xmlns:sodipodi="http://sodipodi.sourceforge.net/DTD/sodipodi-0.dtd"
   xmlns="http://www.w3.org/2000/svg"
   xmlns:svg="http://www.w3.org/2000/svg"><defs
     id="defs20572" /><sodipodi:namedview
     id="namedview20570"
     pagecolor="#505050"
     bordercolor="#eeeeee"
     borderopacity="1"
     inkscape:pageshadow="0"
     inkscape:pageopacity="0"
     inkscape:pagecheckerboard="0" /><g
     transform="matrix(0.24,0,0,0.24,-525.483,-370.8234)"
     id="g20566"><g
       transform="matrix(62.5,0,0,62.5,2181.7,1602.16)"
       id="g7540"><path
         d="M 1.038,0.21 V 0.073 L 0.979,0.21 H 0.758 l 0.104,-0.259 v -0.056 h -0.14 v 0.064 L 0.687,-0.006 V 0.21 H 0.476 V -0.134 C 0.456,-0.145 0.438,-0.159 0.423,-0.177 0.408,-0.194 0.396,-0.213 0.387,-0.234 L 0.324,-0.386 H 0.265 C 0.246,-0.386 0.228,-0.39 0.211,-0.397 0.194,-0.405 0.179,-0.415 0.166,-0.427 0.153,-0.44 0.143,-0.455 0.136,-0.472 0.129,-0.489 0.125,-0.507 0.125,-0.526 v -0.03 L 0.249,-0.68 C 0.237,-0.703 0.23,-0.728 0.23,-0.755 c 0,-0.012 0.003,-0.023 0.007,-0.034 0.005,-0.01 0.011,-0.02 0.019,-0.028 0.008,-0.008 0.017,-0.014 0.028,-0.018 0.011,-0.005 0.022,-0.007 0.034,-0.007 0.007,0 0.013,0 0.019,0.002 0.002,-0.011 0.005,-0.02 0.011,-0.029 0.005,-0.009 0.011,-0.017 0.019,-0.023 0.008,-0.007 0.016,-0.012 0.026,-0.015 0.009,-0.004 0.02,-0.006 0.03,-0.006 0.02,0 0.038,0.006 0.053,0.018 0.008,-0.006 0.016,-0.01 0.025,-0.013 0.009,-0.003 0.018,-0.005 0.028,-0.005 0.009,0 0.018,0.002 0.027,0.005 0.009,0.003 0.018,0.007 0.025,0.013 0.008,-0.006 0.016,-0.01 0.025,-0.013 0.009,-0.003 0.018,-0.005 0.028,-0.005 0.012,0 0.023,0.003 0.034,0.007 0.011,0.005 0.02,0.011 0.028,0.019 0.008,0.008 0.014,0.017 0.019,0.028 0.004,0.011 0.007,0.022 0.007,0.034 0,0.022 -0.004,0.043 -0.013,0.062 -0.008,0.019 -0.019,0.035 -0.034,0.05 -0.014,0.014 -0.031,0.025 -0.05,0.034 -0.019,0.008 -0.04,0.012 -0.062,0.012 H 0.548 l 0.117,0.116 c 0.006,0.007 0.015,0.013 0.026,0.018 0.011,0.004 0.021,0.007 0.031,0.007 h 0.21 v -0.141 h 0.07 c 0.019,0 0.037,0.004 0.054,0.011 0.017,0.008 0.032,0.018 0.045,0.031 0.013,0.013 0.023,0.028 0.03,0.045 0.008,0.017 0.012,0.035 0.012,0.054 v 0.054 c 0.022,0.02 0.039,0.043 0.052,0.07 0.012,0.028 0.018,0.056 0.018,0.086 v 0.147 l 0.035,0.035 V 0.21 Z"
         style="fill-rule:nonzero"
         id="path7526" /><path
         d="M 1.038,-0.105 0.932,0.14 h -0.07 l 0.07,-0.175 V -0.21 h 0.106 z"
         style="fill:#8e562e;fill-rule:nonzero"
         id="path7528" /><path
         d="m 1.143,-0.141 0.035,0.036 V 0.14 H 1.107 V -0.035 L 0.967,-0.176 0.856,-0.225 H 0.702 L 0.651,-0.176 V -0.07 L 0.616,-0.035 V 0.14 H 0.546 V -0.18 C 0.533,-0.183 0.521,-0.188 0.51,-0.195 0.499,-0.201 0.49,-0.208 0.482,-0.217 0.474,-0.226 0.467,-0.235 0.46,-0.246 0.454,-0.257 0.449,-0.268 0.444,-0.281 L 0.462,-0.378 0.371,-0.457 H 0.265 C 0.253,-0.457 0.241,-0.46 0.23,-0.466 0.22,-0.472 0.211,-0.481 0.205,-0.491 L 0.217,-0.511 0.195,-0.526 0.3,-0.632 c 0.007,-0.007 0.014,-0.013 0.021,-0.017 0.006,-0.005 0.013,-0.009 0.02,-0.011 0.007,-0.003 0.015,-0.005 0.023,-0.006 0.008,-0.001 0.017,-0.001 0.027,-0.001 0.017,0 0.032,0.002 0.045,0.005 0.013,0.003 0.027,0.011 0.04,0.022 l 0.139,0.139 c 0.006,0.007 0.014,0.013 0.022,0.018 0.009,0.006 0.018,0.01 0.027,0.014 0.01,0.004 0.019,0.007 0.029,0.009 0.01,0.002 0.019,0.003 0.029,0.003 h 0.28 v -0.14 c 0.01,0 0.019,0.002 0.028,0.006 0.008,0.004 0.016,0.009 0.022,0.015 0.006,0.006 0.011,0.014 0.015,0.022 0.004,0.009 0.006,0.018 0.006,0.028 v 0.089 c 0.021,0.013 0.038,0.03 0.051,0.051 0.012,0.021 0.019,0.045 0.019,0.07 z"
         style="fill:#bb9167;fill-rule:nonzero"
         id="path7530" /><path
         d="m 0.897,-0.246 0.07,0.07 H 0.651 v -0.07 z m -0.432,-0.211 0.043,0.106 c 0,0.002 0.001,0.005 0.002,0.009 0.001,0.003 0.001,0.006 0.001,0.009 0,0.007 -0.001,0.013 -0.004,0.02 C 0.504,-0.307 0.5,-0.301 0.496,-0.296 0.491,-0.292 0.485,-0.288 0.479,-0.285 0.472,-0.282 0.466,-0.281 0.458,-0.281 H 0.444 L 0.371,-0.457 Z"
         style="fill:#f2f2f2;fill-rule:nonzero"
         id="path7532" /><path
         d="m 0.265,-0.526 c 0,0.009 -0.003,0.017 -0.01,0.024 C 0.248,-0.495 0.24,-0.491 0.23,-0.491 H 0.205 C 0.198,-0.503 0.195,-0.514 0.195,-0.526 Z"
         style="fill:#383838;fill-rule:nonzero"
         id="path7534" /><path
         d="m 0.353,-0.632 c 0.005,0 0.009,0.002 0.012,0.005 0.004,0.004 0.006,0.008 0.006,0.013 v 0.035 c 0,0.005 -0.002,0.009 -0.006,0.012 -0.003,0.004 -0.007,0.005 -0.012,0.005 -0.005,0 -0.009,-10e-4 -0.012,-0.005 C 0.337,-0.57 0.335,-0.574 0.335,-0.579 v -0.035 c 0,-0.005 0.002,-0.009 0.006,-0.013 0.003,-0.003 0.007,-0.005 0.012,-0.005 z"
         style="fill-rule:nonzero"
         id="path7536" /><path
         d="m 0.634,-0.842 c 0.005,0 0.009,0.001 0.012,0.005 0.004,0.003 0.005,0.007 0.005,0.012 0,0.012 -0.002,0.024 -0.006,0.034 C 0.64,-0.78 0.634,-0.771 0.626,-0.763 0.618,-0.755 0.608,-0.749 0.598,-0.744 0.587,-0.74 0.576,-0.737 0.563,-0.737 H 0.494 c -0.008,0 -0.014,0.001 -0.021,0.004 -0.006,0.003 -0.012,0.006 -0.016,0.011 -0.005,0.005 -0.009,0.011 -0.012,0.017 -0.003,0.007 -0.004,0.013 -0.004,0.02 v 0.053 H 0.406 V -0.667 H 0.388 C 0.376,-0.667 0.364,-0.669 0.354,-0.674 0.343,-0.678 0.334,-0.685 0.326,-0.693 0.318,-0.701 0.312,-0.71 0.307,-0.72 0.303,-0.731 0.3,-0.743 0.3,-0.755 c 0,-0.004 0.002,-0.008 0.006,-0.012 0.003,-0.003 0.007,-0.005 0.012,-0.005 0.004,0 0.008,0.002 0.012,0.005 0.004,0.004 0.005,0.008 0.005,0.012 0,0.007 0.002,0.014 0.005,0.02 0.002,0.007 0.006,0.012 0.011,0.017 0.005,0.005 0.011,0.009 0.017,0.012 0.006,0.002 0.013,0.004 0.02,0.004 h 0.018 v -0.123 c 0,-0.005 10e-4,-0.009 0.005,-0.012 0.003,-0.004 0.007,-0.005 0.012,-0.005 0.005,0 0.009,0.001 0.013,0.005 0.003,0.003 0.005,0.007 0.005,0.012 v 0.071 c 0.006,-0.005 0.011,-0.008 0.017,-0.01 0.005,-0.003 0.011,-0.005 0.016,-0.006 0.006,-0.001 0.012,-0.002 0.018,-0.002 0.006,0 0.012,0 0.019,0 v -0.053 c 0,-0.005 0.002,-0.009 0.005,-0.012 0.004,-0.004 0.008,-0.005 0.013,-0.005 0.004,0 0.008,0.002 0.012,0.005 0.003,0.004 0.005,0.008 0.005,0.012 v 0.053 h 0.017 c 0.008,0 0.014,-0.001 0.021,-0.004 0.006,-0.003 0.012,-0.007 0.017,-0.012 0.004,-0.004 0.008,-0.01 0.011,-0.016 0.003,-0.007 0.004,-0.014 0.004,-0.021 0,-0.005 0.002,-0.009 0.005,-0.012 0.004,-0.004 0.008,-0.005 0.013,-0.005 z"
         style="fill:#ffb900;fill-rule:nonzero"
         id="path7538" /></g></g></svg>
