<?xml version="1.0" encoding="UTF-8" standalone="no"?>
<svg
   width="16.844999"
   height="16.844999"
   viewBox="0 0 16.844999 16.844999"
   version="1.1"
   xml:space="preserve"
   style="clip-rule:evenodd;fill-rule:evenodd;stroke-linejoin:round;stroke-miterlimit:2"
   id="svg20568"
   sodipodi:docname="emojis.svg"
   xmlns:inkscape="http://www.inkscape.org/namespaces/inkscape"
   xmlns:sodipodi="http://sodipodi.sourceforge.net/DTD/sodipodi-0.dtd"
   xmlns="http://www.w3.org/2000/svg"
   xmlns:svg="http://www.w3.org/2000/svg"><defs
     id="defs20572" /><sodipodi:namedview
     id="namedview20570"
     pagecolor="#505050"
     bordercolor="#eeeeee"
     borderopacity="1"
     inkscape:pageshadow="0"
     inkscape:pageopacity="0"
     inkscape:pagecheckerboard="0" /><g
     transform="matrix(0.24,0,0,0.24,-589.8942,-93.74892)"
     id="g20566"><g
       transform="matrix(62.5,0,0,62.5,2450.08,447.683)"
       id="g756"><path
         d="m 1.248,-0.351 c 0,0.052 -0.007,0.101 -0.02,0.149 C 1.215,-0.154 1.196,-0.109 1.171,-0.068 1.147,-0.026 1.118,0.012 1.083,0.046 1.049,0.08 1.011,0.109 0.97,0.134 0.928,0.158 0.884,0.177 0.836,0.19 0.788,0.204 0.738,0.21 0.687,0.21 0.635,0.21 0.585,0.204 0.537,0.19 0.489,0.177 0.445,0.158 0.403,0.134 0.362,0.109 0.324,0.08 0.29,0.046 0.255,0.012 0.226,-0.026 0.202,-0.068 0.177,-0.109 0.158,-0.154 0.145,-0.202 0.132,-0.25 0.125,-0.299 0.125,-0.351 c 0,-0.052 0.007,-0.102 0.02,-0.149 0.013,-0.048 0.032,-0.093 0.057,-0.135 0.024,-0.041 0.053,-0.079 0.088,-0.113 0.034,-0.034 0.072,-0.064 0.113,-0.088 0.042,-0.024 0.086,-0.043 0.134,-0.057 0.048,-0.013 0.098,-0.02 0.15,-0.02 0.051,0 0.101,0.007 0.149,0.02 0.048,0.014 0.092,0.033 0.134,0.057 0.041,0.024 0.079,0.054 0.113,0.088 0.035,0.034 0.064,0.072 0.088,0.113 0.025,0.042 0.044,0.087 0.057,0.135 0.013,0.047 0.02,0.097 0.02,0.149 z"
         style="fill-rule:nonzero"
         id="path746" /><path
         d="m 1.178,-0.351 c 0,0.045 -0.006,0.089 -0.018,0.131 -0.012,0.041 -0.028,0.081 -0.049,0.117 -0.022,0.036 -0.047,0.07 -0.077,0.099 C 1.004,0.026 0.971,0.052 0.935,0.073 0.898,0.094 0.859,0.111 0.817,0.123 0.775,0.134 0.732,0.14 0.687,0.14 0.641,0.14 0.598,0.134 0.556,0.123 0.514,0.111 0.475,0.094 0.438,0.073 0.402,0.052 0.369,0.026 0.339,-0.004 0.309,-0.033 0.284,-0.067 0.262,-0.103 0.241,-0.139 0.225,-0.179 0.213,-0.22 0.201,-0.262 0.195,-0.306 0.195,-0.351 c 0,-0.012 0.001,-0.024 0.002,-0.035 0,-0.012 0.002,-0.024 0.003,-0.035 L 0.247,-0.474 0.228,-0.526 c 0.018,-0.048 0.042,-0.091 0.073,-0.13 0.031,-0.039 0.067,-0.072 0.107,-0.1 0.04,-0.027 0.083,-0.048 0.131,-0.064 0.047,-0.015 0.096,-0.022 0.148,-0.022 0.051,0 0.1,0.007 0.147,0.022 0.048,0.016 0.091,0.037 0.131,0.064 0.04,0.028 0.076,0.061 0.107,0.1 0.031,0.039 0.055,0.082 0.074,0.13 l -0.02,0.051 0.047,0.054 c 10e-4,0.011 0.003,0.023 0.004,0.035 0,0.011 10e-4,0.023 10e-4,0.035 z"
         style="fill:#ffc83d;fill-rule:nonzero"
         id="path748" /><path
         d="M 0.687,-0.15 C 0.688,-0.151 0.692,-0.152 0.699,-0.155 0.707,-0.158 0.715,-0.161 0.723,-0.164 0.732,-0.167 0.739,-0.17 0.746,-0.172 0.753,-0.175 0.757,-0.176 0.757,-0.176 h 0.175 c 0,0.026 -0.004,0.05 -0.011,0.073 C 0.914,-0.079 0.903,-0.057 0.89,-0.037 0.876,-0.017 0.86,0 0.84,0.016 0.821,0.031 0.8,0.044 0.776,0.053 L 0.687,0.031 0.597,0.053 C 0.573,0.044 0.552,0.031 0.533,0.016 0.514,0 0.497,-0.017 0.483,-0.037 0.47,-0.057 0.459,-0.079 0.452,-0.103 0.445,-0.126 0.441,-0.15 0.441,-0.176 h 0.175 c 0,0 0.004,0.001 0.011,0.004 0.007,0.002 0.014,0.005 0.023,0.008 0.008,0.003 0.016,0.006 0.024,0.009 0.007,0.003 0.011,0.004 0.013,0.005 z m 0.459,-0.376 c 0.006,0.017 0.012,0.034 0.016,0.051 0.005,0.018 0.008,0.036 0.011,0.054 H 1.107 c 0,0.002 0,0.005 0,0.008 v 0.008 c 0,0.026 -0.004,0.052 -0.014,0.075 -0.01,0.024 -0.024,0.044 -0.041,0.062 C 1.035,-0.25 1.014,-0.236 0.991,-0.226 0.967,-0.216 0.942,-0.21 0.915,-0.21 0.888,-0.21 0.863,-0.215 0.839,-0.226 0.816,-0.236 0.795,-0.25 0.778,-0.267 0.761,-0.285 0.747,-0.305 0.737,-0.329 0.727,-0.352 0.722,-0.377 0.722,-0.404 V -0.427 H 0.651 v 0.023 c 0,0.027 -0.005,0.052 -0.015,0.075 -0.01,0.024 -0.024,0.044 -0.041,0.062 C 0.578,-0.25 0.557,-0.236 0.534,-0.226 0.51,-0.215 0.485,-0.21 0.458,-0.21 0.432,-0.21 0.407,-0.215 0.383,-0.226 0.36,-0.236 0.339,-0.25 0.322,-0.267 0.304,-0.285 0.29,-0.305 0.28,-0.329 0.27,-0.352 0.265,-0.377 0.265,-0.404 c 0,-0.003 0,-0.006 0,-0.009 0.001,-0.003 0.001,-0.005 0.001,-0.008 H 0.2 c 0.003,-0.018 0.006,-0.036 0.011,-0.054 0.004,-0.017 0.01,-0.034 0.017,-0.051 H 0.31 c 0.018,-0.023 0.04,-0.04 0.066,-0.052 0.026,-0.013 0.054,-0.019 0.082,-0.019 0.029,0 0.057,0.006 0.083,0.019 0.025,0.012 0.047,0.029 0.066,0.052 h 0.044 v 0.005 h 0.071 v -0.005 h 0.044 c 0.019,-0.023 0.041,-0.04 0.067,-0.052 0.025,-0.013 0.053,-0.019 0.082,-0.019 0.029,0 0.056,0.006 0.082,0.019 0.026,0.012 0.048,0.029 0.066,0.052 z"
         style="fill-rule:nonzero"
         id="path750" /><path
         d="m 0.687,0.001 c 0.018,0 0.035,0.005 0.051,0.014 C 0.754,0.024 0.767,0.037 0.776,0.053 0.748,0.064 0.718,0.07 0.687,0.07 0.655,0.07 0.625,0.064 0.597,0.053 0.606,0.037 0.619,0.024 0.635,0.015 0.651,0.006 0.668,0.001 0.687,0.001 Z"
         style="fill:#f03a17;fill-rule:nonzero"
         id="path752" /><path
         d="m 0.458,-0.526 c 0.017,0 0.033,0.003 0.048,0.009 0.015,0.007 0.028,0.015 0.039,0.026 0.011,0.011 0.02,0.024 0.027,0.039 0.006,0.015 0.009,0.031 0.009,0.048 0,0.017 -0.003,0.033 -0.009,0.048 -0.007,0.015 -0.016,0.028 -0.027,0.039 -0.011,0.011 -0.024,0.02 -0.039,0.026 -0.015,0.007 -0.031,0.01 -0.048,0.01 -0.016,0 -0.032,-0.003 -0.047,-0.01 C 0.396,-0.297 0.383,-0.306 0.372,-0.317 0.361,-0.328 0.352,-0.341 0.345,-0.356 0.339,-0.371 0.335,-0.387 0.335,-0.404 c 0,-0.017 0.004,-0.033 0.01,-0.048 0.007,-0.015 0.016,-0.028 0.027,-0.039 0.011,-0.011 0.024,-0.019 0.039,-0.026 0.015,-0.006 0.031,-0.009 0.047,-0.009 z m 0.457,0 c 0.016,0 0.032,0.003 0.047,0.009 0.015,0.007 0.028,0.015 0.039,0.026 0.012,0.011 0.02,0.024 0.027,0.039 0.006,0.015 0.01,0.031 0.01,0.048 0,0.017 -0.004,0.033 -0.01,0.048 -0.007,0.015 -0.015,0.028 -0.027,0.039 -0.011,0.011 -0.024,0.02 -0.039,0.026 -0.015,0.007 -0.031,0.01 -0.047,0.01 -0.017,0 -0.033,-0.003 -0.048,-0.01 C 0.852,-0.297 0.839,-0.306 0.828,-0.317 0.817,-0.328 0.808,-0.341 0.802,-0.356 0.795,-0.371 0.792,-0.387 0.792,-0.404 c 0,-0.017 0.003,-0.033 0.01,-0.048 C 0.808,-0.467 0.817,-0.48 0.828,-0.491 0.839,-0.502 0.852,-0.51 0.867,-0.517 0.882,-0.523 0.898,-0.526 0.915,-0.526 Z M 0.757,-0.07 H 0.616 V -0.176 H 0.757 Z M 0.458,-0.351 c 0.008,0 0.014,-0.001 0.021,-0.004 C 0.485,-0.358 0.491,-0.362 0.496,-0.367 0.5,-0.372 0.504,-0.377 0.507,-0.384 0.51,-0.39 0.511,-0.397 0.511,-0.404 0.511,-0.411 0.51,-0.418 0.507,-0.424 0.504,-0.43 0.5,-0.436 0.496,-0.441 0.491,-0.446 0.485,-0.45 0.479,-0.452 0.472,-0.455 0.466,-0.457 0.458,-0.457 c -0.007,0 -0.013,0.002 -0.02,0.005 -0.006,0.002 -0.012,0.006 -0.017,0.011 -0.004,0.005 -0.008,0.011 -0.011,0.017 -0.003,0.006 -0.004,0.013 -0.004,0.02 0,0.008 10e-4,0.015 0.004,0.021 0.003,0.006 0.006,0.012 0.011,0.017 0.005,0.004 0.01,0.008 0.017,0.011 0.006,0.003 0.013,0.004 0.02,0.004 z m 0.457,0 c 0.007,0 0.014,-0.001 0.02,-0.004 0.007,-0.003 0.012,-0.007 0.017,-0.011 0.005,-0.005 0.008,-0.011 0.011,-0.017 0.003,-0.006 0.004,-0.013 0.004,-0.021 0,-0.007 -0.001,-0.014 -0.004,-0.02 C 0.96,-0.43 0.957,-0.436 0.952,-0.441 0.947,-0.446 0.941,-0.45 0.935,-0.452 0.928,-0.455 0.922,-0.457 0.915,-0.457 c -0.008,0 -0.014,0.002 -0.021,0.005 -0.006,0.002 -0.012,0.006 -0.017,0.011 -0.004,0.005 -0.008,0.011 -0.011,0.017 -0.003,0.006 -0.004,0.013 -0.004,0.02 0,0.007 0.001,0.014 0.004,0.02 0.003,0.007 0.007,0.012 0.011,0.017 0.005,0.005 0.011,0.009 0.017,0.012 0.007,0.003 0.013,0.004 0.021,0.004 z M 0.651,-0.526 h 0.071 v 0.105 H 0.651 Z"
         style="fill:#ffffff;fill-rule:nonzero"
         id="path754" /></g></g></svg>
