<?xml version="1.0" encoding="UTF-8" standalone="no"?>
<svg
   width="16.844999"
   height="12.63"
   viewBox="0 0 16.844999 12.63"
   version="1.1"
   xml:space="preserve"
   style="clip-rule:evenodd;fill-rule:evenodd;stroke-linejoin:round;stroke-miterlimit:2"
   id="svg20568"
   sodipodi:docname="emojis.svg"
   xmlns:inkscape="http://www.inkscape.org/namespaces/inkscape"
   xmlns:sodipodi="http://sodipodi.sourceforge.net/DTD/sodipodi-0.dtd"
   xmlns="http://www.w3.org/2000/svg"
   xmlns:svg="http://www.w3.org/2000/svg"><defs
     id="defs20572" /><sodipodi:namedview
     id="namedview20570"
     pagecolor="#505050"
     bordercolor="#eeeeee"
     borderopacity="1"
     inkscape:pageshadow="0"
     inkscape:pageopacity="0"
     inkscape:pagecheckerboard="0" /><g
     transform="matrix(0.24,0,0,0.24,-587.271,-375.0384)"
     id="g20566"><g
       transform="matrix(62.5,0,0,62.5,2439.15,1602.16)"
       id="g7584"><path
         d="m 0.967,-0.632 c 0.039,0 0.075,0.008 0.109,0.022 0.034,0.015 0.064,0.035 0.09,0.061 0.025,0.025 0.045,0.055 0.06,0.089 0.015,0.034 0.022,0.071 0.022,0.109 V 0.07 H 1.178 V 0.21 H 0.967 V -0.041 L 0.896,-0.112 C 0.883,-0.103 0.872,-0.095 0.861,-0.09 0.851,-0.084 0.841,-0.08 0.831,-0.077 0.82,-0.074 0.81,-0.072 0.801,-0.071 0.791,-0.07 0.78,-0.07 0.768,-0.07 H 0.722 v 0.064 L 0.687,0.029 V 0.21 H 0.476 V -0.122 L 0.386,-0.176 H 0.265 C 0.246,-0.176 0.228,-0.179 0.211,-0.187 0.194,-0.194 0.179,-0.204 0.166,-0.217 0.153,-0.229 0.143,-0.244 0.136,-0.261 0.129,-0.279 0.125,-0.297 0.125,-0.316 v -0.029 l 0.141,-0.141 c 0.001,-0.015 0.006,-0.03 0.013,-0.044 0.007,-0.013 0.016,-0.025 0.027,-0.035 0.011,-0.01 0.023,-0.017 0.038,-0.023 0.014,-0.006 0.029,-0.009 0.044,-0.009 0.01,0 0.019,0.001 0.027,0.003 0.007,0.002 0.014,0.005 0.021,0.008 0.006,0.003 0.013,0.006 0.019,0.01 0.007,0.003 0.015,0.007 0.024,0.01 0.002,-0.009 0.006,-0.018 0.011,-0.026 0.006,-0.008 0.012,-0.015 0.02,-0.021 0.007,-0.006 0.016,-0.011 0.025,-0.014 0.009,-0.003 0.019,-0.005 0.028,-0.005 0.023,0 0.042,0.007 0.059,0.022 0.014,-0.006 0.029,-0.012 0.045,-0.015 0.015,-0.004 0.03,-0.006 0.046,-0.006 0.043,0 0.085,0 0.127,-0.001 0.042,0 0.085,0 0.127,0 z"
         style="fill-rule:nonzero"
         id="path7574" /><path
         d="m 0.967,-0.562 c 0.029,0 0.057,0.006 0.082,0.017 0.026,0.011 0.048,0.026 0.067,0.045 0.019,0.019 0.034,0.042 0.045,0.067 0.011,0.026 0.017,0.053 0.017,0.082 v 0.21 l -0.035,0.03 V -0.316 L 1.107,-0.225 V 0.14 H 1.038 V -0.07 L 0.898,-0.21 C 0.892,-0.203 0.885,-0.196 0.876,-0.188 0.868,-0.18 0.859,-0.173 0.85,-0.166 0.841,-0.158 0.831,-0.152 0.821,-0.148 0.811,-0.143 0.801,-0.141 0.792,-0.141 H 0.651 v 0.106 L 0.616,0 V 0.14 H 0.546 V -0.162 L 0.406,-0.246 H 0.335 L 0.239,-0.29 0.23,-0.351 0.335,-0.457 c 0.042,-0.004 0.083,-0.01 0.124,-0.017 0.04,-0.007 0.081,-0.013 0.123,-0.017 0.008,-0.01 0.017,-0.02 0.027,-0.028 0.01,-0.009 0.021,-0.016 0.032,-0.022 0.012,-0.006 0.024,-0.011 0.037,-0.015 0.012,-0.003 0.025,-0.005 0.038,-0.005 0.042,0 0.084,0 0.126,0 0.041,0 0.083,-0.001 0.125,-0.001 z"
         style="fill:#757575;fill-rule:nonzero"
         id="path7576" /><path
         d="m 0.195,-0.316 0.035,-0.035 0.105,0.105 h -0.07 c -0.01,0 -0.019,-0.001 -0.027,-0.005 C 0.229,-0.255 0.222,-0.26 0.216,-0.266 0.209,-0.273 0.204,-0.28 0.201,-0.289 0.197,-0.297 0.195,-0.306 0.195,-0.316 Z m 0.368,-0.246 c 0.005,0 0.01,0.002 0.013,0.006 0.003,0.003 0.005,0.007 0.005,0.012 v 0.053 c 0,0.01 -0.002,0.019 -0.005,0.027 C 0.572,-0.455 0.567,-0.448 0.561,-0.442 0.554,-0.435 0.547,-0.43 0.539,-0.427 0.53,-0.423 0.521,-0.421 0.511,-0.421 H 0.388 C 0.381,-0.421 0.374,-0.423 0.367,-0.426 0.361,-0.428 0.356,-0.432 0.351,-0.437 0.346,-0.441 0.342,-0.447 0.34,-0.453 0.337,-0.46 0.335,-0.467 0.335,-0.474 c 0,-0.007 0.002,-0.014 0.005,-0.02 0.002,-0.007 0.006,-0.012 0.011,-0.017 0.005,-0.005 0.011,-0.008 0.017,-0.011 0.006,-0.003 0.013,-0.004 0.02,-0.004 0.008,0 0.016,0.002 0.024,0.005 0.008,0.004 0.017,0.008 0.025,0.012 0.008,0.005 0.017,0.009 0.026,0.012 0.009,0.004 0.018,0.006 0.028,0.006 h 0.02 c 0.009,0 0.016,-0.002 0.02,-0.005 0.005,-0.004 0.008,-0.008 0.01,-0.013 0.002,-0.005 0.003,-0.011 0.004,-0.017 0,-0.007 0.001,-0.012 0.002,-0.017 0.001,-0.006 0.002,-0.01 0.005,-0.013 0.002,-0.004 0.006,-0.006 0.011,-0.006 z"
         style="fill:#cccccc;fill-rule:nonzero"
         id="path7578" /><path
         d="m 0.353,-0.421 c 0.005,0 0.009,0.001 0.012,0.005 0.004,0.003 0.006,0.007 0.006,0.012 v 0.035 c 0,0.005 -0.002,0.009 -0.006,0.013 -0.003,0.003 -0.007,0.005 -0.012,0.005 -0.005,0 -0.009,-0.002 -0.012,-0.005 C 0.337,-0.36 0.335,-0.364 0.335,-0.369 v -0.035 c 0,-0.005 0.002,-0.009 0.006,-0.012 0.003,-0.004 0.007,-0.005 0.012,-0.005 z"
         style="fill-rule:nonzero"
         id="path7580" /><path
         d="m 1.107,-0.105 c 0,-0.01 0.004,-0.018 0.011,-0.025 0.007,-0.007 0.015,-0.011 0.025,-0.011 H 1.178 V 0 C 1.168,0 1.159,-0.002 1.15,-0.006 1.142,-0.009 1.135,-0.014 1.128,-0.021 1.122,-0.027 1.117,-0.035 1.113,-0.043 1.109,-0.051 1.107,-0.061 1.107,-0.07 Z M 0.441,-0.349 v -0.072 l 0.12,0.12 C 0.554,-0.295 0.546,-0.29 0.538,-0.286 0.529,-0.283 0.52,-0.281 0.511,-0.281 0.502,-0.281 0.493,-0.283 0.484,-0.286 0.476,-0.29 0.469,-0.295 0.462,-0.301 0.456,-0.307 0.451,-0.315 0.447,-0.323 0.443,-0.331 0.441,-0.34 0.441,-0.349 Z"
         style="fill:#383838;fill-rule:nonzero"
         id="path7582" /></g></g></svg>
