<?xml version="1.0" encoding="UTF-8" standalone="no"?>
<svg
   width="16.844999"
   height="12.63"
   viewBox="0 0 16.844999 12.63"
   version="1.1"
   xml:space="preserve"
   style="clip-rule:evenodd;fill-rule:evenodd;stroke-linejoin:round;stroke-miterlimit:2"
   id="svg20568"
   sodipodi:docname="emojis.svg"
   xmlns:inkscape="http://www.inkscape.org/namespaces/inkscape"
   xmlns:sodipodi="http://sodipodi.sourceforge.net/DTD/sodipodi-0.dtd"
   xmlns="http://www.w3.org/2000/svg"
   xmlns:svg="http://www.w3.org/2000/svg"><defs
     id="defs20572" /><sodipodi:namedview
     id="namedview20570"
     pagecolor="#505050"
     bordercolor="#eeeeee"
     borderopacity="1"
     inkscape:pageshadow="0"
     inkscape:pageopacity="0"
     inkscape:pagecheckerboard="0" /><g
     transform="matrix(0.24,0,0,0.24,-607.8678,-375.0384)"
     id="g20566"><g
       transform="matrix(62.5,0,0,62.5,2524.97,1602.16)"
       id="g7600"><path
         d="m 0.575,-0.562 h 0.392 c 0.039,0 0.076,0.008 0.11,0.022 0.034,0.015 0.064,0.035 0.089,0.061 0.025,0.025 0.045,0.055 0.06,0.089 0.015,0.034 0.022,0.07 0.022,0.109 V 0.105 H 1.178 V 0.21 H 0.758 L 0.821,0.053 C 0.802,0.044 0.786,0.032 0.771,0.017 0.756,0.002 0.745,-0.016 0.736,-0.035 H 0.722 V 0.029 L 0.687,0.064 V 0.21 H 0.476 V -0.054 C 0.462,-0.062 0.45,-0.071 0.44,-0.083 0.431,-0.094 0.423,-0.107 0.417,-0.122 L 0.36,-0.246 H 0.265 C 0.246,-0.246 0.228,-0.249 0.211,-0.257 0.194,-0.264 0.179,-0.274 0.167,-0.287 0.154,-0.3 0.144,-0.315 0.136,-0.332 0.129,-0.349 0.125,-0.367 0.125,-0.386 v -0.029 l 0.161,-0.161 c 0.019,-0.019 0.04,-0.033 0.063,-0.042 0.023,-0.009 0.047,-0.014 0.074,-0.014 0.017,0 0.032,0.002 0.046,0.005 0.013,0.003 0.026,0.007 0.038,0.013 0.011,0.006 0.023,0.013 0.034,0.022 0.011,0.009 0.022,0.019 0.034,0.03 z"
         style="fill-rule:nonzero"
         id="path7586" /><path
         d="M 0.932,-0.035 V -0.176 L 1.038,-0.105 0.932,0.14 h -0.07 z"
         style="fill:#cccccc;fill-rule:nonzero"
         id="path7588" /><path
         d="m 0.897,-0.491 0.278,0.175 c 0.002,0.012 0.003,0.024 0.003,0.035 v 0.176 L 1.143,-0.071 V -0.246 L 1.107,-0.155 V 0.14 H 1.038 V 0 L 0.792,-0.105 H 0.651 V 0 L 0.616,0.035 V 0.14 H 0.546 V -0.105 C 0.531,-0.105 0.518,-0.109 0.507,-0.117 0.496,-0.124 0.488,-0.135 0.481,-0.148 L 0.406,-0.316 H 0.335 L 0.24,-0.358 0.23,-0.421 0.335,-0.526 c 0.012,-0.012 0.026,-0.021 0.041,-0.027 0.015,-0.006 0.03,-0.009 0.047,-0.009 0.016,0 0.032,0.003 0.047,0.009 0.015,0.006 0.029,0.015 0.04,0.027 l 0.037,0.099 C 0.581,-0.434 0.614,-0.443 0.646,-0.452 0.679,-0.461 0.711,-0.47 0.744,-0.479 l 0.025,-0.007 c 0.005,-0.001 0.01,-0.002 0.014,-0.004 0.005,-0.001 0.008,-0.001 0.009,-0.001 z"
         style="fill:#ffffff;fill-rule:nonzero"
         id="path7590" /><path
         d="m 0.546,-0.491 h 0.246 v 0.175 c 0,0.01 -0.002,0.019 -0.006,0.027 C 0.783,-0.28 0.778,-0.273 0.771,-0.266 0.765,-0.26 0.757,-0.255 0.749,-0.251 0.741,-0.247 0.731,-0.246 0.722,-0.246 H 0.651 C 0.637,-0.246 0.625,-0.249 0.616,-0.255 0.608,-0.261 0.599,-0.27 0.591,-0.281 L 0.447,-0.473 C 0.443,-0.479 0.441,-0.485 0.441,-0.491 c 0,-0.008 0.001,-0.014 0.004,-0.019 0.003,-0.004 0.007,-0.008 0.012,-0.01 0.005,-0.003 0.01,-0.004 0.016,-0.005 0.006,-0.001 0.012,-0.001 0.019,-0.001 H 0.51 Z m 0.421,0 c 0.026,0 0.05,0.004 0.074,0.013 0.023,0.009 0.044,0.021 0.062,0.037 0.018,0.015 0.034,0.034 0.046,0.055 0.013,0.021 0.021,0.045 0.026,0.07 H 1.073 C 1.049,-0.316 1.026,-0.32 1.005,-0.33 0.983,-0.339 0.965,-0.351 0.949,-0.367 0.933,-0.383 0.92,-0.402 0.911,-0.423 0.902,-0.444 0.897,-0.467 0.897,-0.491 Z"
         style="fill:#383838;fill-rule:nonzero"
         id="path7592" /><path
         d="m 1.107,-0.07 c 0,-0.01 0.004,-0.018 0.011,-0.025 0.007,-0.007 0.015,-0.01 0.025,-0.01 h 0.035 v 0.14 C 1.168,0.035 1.159,0.033 1.15,0.03 1.142,0.026 1.135,0.021 1.128,0.014 1.122,0.008 1.117,0.001 1.113,-0.008 1.109,-0.016 1.107,-0.025 1.107,-0.035 Z"
         style="fill:#757575;fill-rule:nonzero"
         id="path7594" /><path
         d="m 0.353,-0.491 c 0.005,0 0.009,0.001 0.012,0.005 0.004,0.003 0.006,0.007 0.006,0.012 v 0.035 c 0,0.005 -0.002,0.009 -0.006,0.012 -0.003,0.004 -0.007,0.006 -0.012,0.006 -0.005,0 -0.009,-0.002 -0.012,-0.006 C 0.337,-0.43 0.335,-0.434 0.335,-0.439 v -0.035 c 0,-0.005 0.002,-0.009 0.006,-0.012 0.003,-0.004 0.007,-0.005 0.012,-0.005 z"
         style="fill-rule:nonzero"
         id="path7596" /><path
         d="M 1.038,-0.035 V 0 H 0.897 C 0.882,0 0.869,-0.003 0.856,-0.008 0.843,-0.014 0.832,-0.021 0.823,-0.031 0.813,-0.041 0.806,-0.052 0.8,-0.064 0.795,-0.077 0.792,-0.091 0.792,-0.105 c 0.024,0 0.048,-0.004 0.072,-0.01 0.023,-0.006 0.045,-0.016 0.066,-0.028 z M 0.511,-0.386 C 0.503,-0.386 0.494,-0.388 0.485,-0.391 0.477,-0.394 0.469,-0.399 0.463,-0.405 L 0.412,-0.457 h 0.169 c 0,0.01 -0.002,0.019 -0.005,0.028 -0.004,0.008 -0.009,0.016 -0.015,0.022 -0.007,0.006 -0.014,0.011 -0.022,0.015 -0.009,0.004 -0.018,0.006 -0.028,0.006 z m -0.316,0 0.035,-0.035 0.105,0.105 h -0.07 c -0.01,0 -0.019,-0.002 -0.027,-0.006 C 0.229,-0.325 0.222,-0.33 0.216,-0.337 0.209,-0.343 0.204,-0.35 0.201,-0.359 0.197,-0.367 0.195,-0.376 0.195,-0.386 Z"
         style="fill:#ee9889;fill-rule:nonzero"
         id="path7598" /></g></g></svg>
