<?xml version="1.0" encoding="UTF-8" standalone="no"?>
<svg
   width="16.844999"
   height="13.155"
   viewBox="0 0 16.844999 13.155"
   version="1.1"
   xml:space="preserve"
   style="clip-rule:evenodd;fill-rule:evenodd;stroke-linejoin:round;stroke-miterlimit:2"
   id="svg20568"
   sodipodi:docname="emojis.svg"
   xmlns:inkscape="http://www.inkscape.org/namespaces/inkscape"
   xmlns:sodipodi="http://sodipodi.sourceforge.net/DTD/sodipodi-0.dtd"
   xmlns="http://www.w3.org/2000/svg"
   xmlns:svg="http://www.w3.org/2000/svg"><defs
     id="defs20572" /><sodipodi:namedview
     id="namedview20570"
     pagecolor="#505050"
     bordercolor="#eeeeee"
     borderopacity="1"
     inkscape:pageshadow="0"
     inkscape:pageopacity="0"
     inkscape:pagecheckerboard="0" /><g
     transform="matrix(0.24,0,0,0.24,-690.2502,-374.5134)"
     id="g20566"><g
       transform="matrix(62.5,0,0,62.5,2868.23,1602.16)"
       id="g7650"><path
         d="m 0.687,-0.667 c 0.017,0 0.034,0.002 0.049,0.005 0.015,0.003 0.03,0.007 0.044,0.013 0.013,0.006 0.027,0.014 0.04,0.023 0.012,0.008 0.026,0.018 0.039,0.03 0.046,0.04 0.092,0.081 0.137,0.122 0.045,0.041 0.09,0.083 0.136,0.124 0.007,0.007 0.015,0.014 0.022,0.021 0.007,0.007 0.014,0.014 0.021,0.022 0.024,0.028 0.042,0.059 0.054,0.094 0.013,0.035 0.019,0.071 0.019,0.108 0,0.029 -0.004,0.056 -0.011,0.084 C 1.229,0.006 1.219,0.031 1.205,0.054 1.191,0.077 1.174,0.098 1.155,0.118 1.136,0.137 1.115,0.153 1.092,0.167 1.068,0.181 1.043,0.192 1.016,0.199 0.989,0.207 0.961,0.21 0.932,0.21 H 0.441 C 0.412,0.21 0.384,0.207 0.357,0.199 0.33,0.192 0.305,0.181 0.281,0.167 0.258,0.153 0.237,0.137 0.218,0.118 0.199,0.098 0.182,0.077 0.168,0.054 0.154,0.031 0.144,0.006 0.136,-0.021 0.129,-0.049 0.125,-0.076 0.125,-0.105 c 0,-0.049 0.01,-0.093 0.029,-0.132 0.019,-0.04 0.046,-0.076 0.081,-0.108 l 0.279,-0.251 c 0.025,-0.023 0.052,-0.04 0.079,-0.052 0.028,-0.013 0.059,-0.019 0.094,-0.019 z"
         style="fill-rule:nonzero"
         id="path7644" /><path
         d="m 0.687,-0.597 c 0.024,0 0.047,0.005 0.066,0.014 0.02,0.008 0.039,0.021 0.058,0.038 l 0.275,0.249 c 0.029,0.026 0.052,0.054 0.068,0.085 0.016,0.031 0.024,0.066 0.024,0.106 0,0.033 -0.007,0.065 -0.02,0.095 C 1.146,0.02 1.128,0.046 1.106,0.068 1.083,0.09 1.057,0.108 1.028,0.121 0.998,0.134 0.966,0.14 0.932,0.14 H 0.441 C 0.407,0.14 0.375,0.134 0.345,0.121 0.315,0.108 0.289,0.09 0.267,0.068 0.245,0.046 0.227,0.02 0.215,-0.01 0.202,-0.04 0.195,-0.072 0.195,-0.105 c 0,-0.038 0.008,-0.072 0.022,-0.103 0.015,-0.031 0.036,-0.059 0.064,-0.084 l 0.281,-0.253 c 0.019,-0.017 0.038,-0.03 0.057,-0.038 0.02,-0.009 0.042,-0.014 0.068,-0.014 z"
         style="fill:#ee9889;fill-rule:nonzero"
         id="path7646" /><path
         d="m 0.497,-0.297 c 0.018,0 0.034,0.003 0.048,0.01 0.015,0.007 0.027,0.016 0.038,0.027 0.01,0.012 0.019,0.025 0.024,0.04 0.006,0.016 0.009,0.032 0.009,0.049 V 0.035 L 0.438,-0.069 C 0.419,-0.081 0.403,-0.096 0.391,-0.114 0.379,-0.132 0.374,-0.153 0.374,-0.177 c 0,-0.016 0.003,-0.032 0.01,-0.047 0.006,-0.014 0.015,-0.027 0.027,-0.038 0.011,-0.011 0.024,-0.019 0.039,-0.026 0.015,-0.006 0.031,-0.009 0.047,-0.009 z m 0.379,0 c 0.016,0 0.032,0.003 0.047,0.009 0.015,0.007 0.028,0.015 0.039,0.026 0.012,0.011 0.021,0.024 0.028,0.038 C 0.996,-0.209 1,-0.193 1,-0.177 1,-0.153 0.994,-0.132 0.982,-0.114 0.97,-0.096 0.954,-0.081 0.935,-0.069 L 0.757,0.035 v -0.206 c 0,-0.017 0.003,-0.033 0.009,-0.049 0.005,-0.015 0.014,-0.028 0.024,-0.04 0.011,-0.011 0.023,-0.02 0.038,-0.027 0.014,-0.007 0.03,-0.01 0.048,-0.01 z"
         style="fill:#af0d1a;fill-rule:nonzero"
         id="path7648" /></g></g></svg>
