<?xml version="1.0" encoding="UTF-8" standalone="no"?>
<svg
   width="16.844999"
   height="15.78"
   viewBox="0 0 16.844999 15.78"
   version="1.1"
   xml:space="preserve"
   style="clip-rule:evenodd;fill-rule:evenodd;stroke-linejoin:round;stroke-miterlimit:2"
   id="svg20568"
   sodipodi:docname="emojis.svg"
   xmlns:inkscape="http://www.inkscape.org/namespaces/inkscape"
   xmlns:sodipodi="http://sodipodi.sourceforge.net/DTD/sodipodi-0.dtd"
   xmlns="http://www.w3.org/2000/svg"
   xmlns:svg="http://www.w3.org/2000/svg"><defs
     id="defs20572" /><sodipodi:namedview
     id="namedview20570"
     pagecolor="#505050"
     bordercolor="#eeeeee"
     borderopacity="1"
     inkscape:pageshadow="0"
     inkscape:pageopacity="0"
     inkscape:pagecheckerboard="0" /><g
     transform="matrix(0.24,0,0,0.24,-752.0358,-371.8884)"
     id="g20566"><g
       transform="matrix(62.5,0,0,62.5,3125.67,1602.16)"
       id="g7692"><path
         d="m 1.143,-0.452 c 0.016,0.016 0.028,0.032 0.038,0.049 0.009,0.016 0.016,0.033 0.021,0.05 0.005,0.017 0.008,0.035 0.01,0.053 0.001,0.018 0.002,0.036 0.002,0.055 0,0.012 0,0.025 -10e-4,0.037 0,0.012 0,0.025 0,0.039 l 0.035,0.035 V 0.21 H 1.038 V 0.073 L 0.979,0.21 H 0.758 L 0.862,-0.049 V -0.07 H 0.722 V 0.029 L 0.687,0.064 V 0.21 H 0.476 V -0.106 C 0.463,-0.116 0.452,-0.126 0.443,-0.136 0.434,-0.147 0.426,-0.157 0.419,-0.169 0.413,-0.18 0.407,-0.192 0.402,-0.205 0.397,-0.217 0.391,-0.231 0.385,-0.246 H 0.335 C 0.316,-0.246 0.298,-0.249 0.281,-0.257 0.264,-0.264 0.25,-0.274 0.237,-0.287 0.224,-0.3 0.214,-0.315 0.207,-0.332 0.199,-0.349 0.195,-0.367 0.195,-0.386 V -0.405 C 0.174,-0.418 0.156,-0.435 0.144,-0.456 0.131,-0.478 0.125,-0.501 0.125,-0.526 v -0.03 l 0.126,-0.126 c 0.015,-0.015 0.032,-0.027 0.051,-0.037 0.019,-0.01 0.039,-0.016 0.061,-0.018 0.01,-0.017 0.022,-0.032 0.037,-0.045 0.015,-0.013 0.031,-0.024 0.049,-0.033 0.018,-0.009 0.037,-0.016 0.056,-0.02 0.02,-0.005 0.039,-0.007 0.058,-0.007 0.013,0 0.024,0.002 0.035,0.007 0.01,0.004 0.02,0.01 0.028,0.018 0.008,0.008 0.014,0.018 0.019,0.028 0.004,0.011 0.006,0.022 0.006,0.034 0,0.011 -0.001,0.02 -0.005,0.03 -0.003,0.009 -0.008,0.018 -0.014,0.026 -0.006,0.007 -0.014,0.014 -0.022,0.019 -0.009,0.005 -0.018,0.009 -0.028,0.011 l 0.121,0.123 c 0.006,0.006 0.014,0.011 0.025,0.014 0.01,0.004 0.019,0.006 0.027,0.006 h 0.177 v -0.141 h 0.07 c 0.019,0 0.037,0.004 0.054,0.011 0.017,0.008 0.032,0.018 0.045,0.031 0.013,0.013 0.023,0.028 0.03,0.045 0.008,0.017 0.012,0.035 0.012,0.054 z"
         style="fill-rule:nonzero"
         id="path7680" /><path
         d="m 1.072,-0.421 c 0.022,0.016 0.04,0.037 0.052,0.061 0.012,0.025 0.019,0.051 0.019,0.079 v 0.14 l 0.035,0.036 V 0.14 H 1.107 V -0.035 L 1.038,-0.105 0.974,-0.094 0.932,-0.141 H 0.651 V 0 L 0.616,0.035 V 0.14 H 0.546 V -0.147 C 0.539,-0.15 0.533,-0.153 0.526,-0.158 0.519,-0.162 0.512,-0.167 0.505,-0.173 0.499,-0.179 0.493,-0.185 0.488,-0.191 0.483,-0.198 0.479,-0.204 0.476,-0.21 L 0.371,-0.457 H 0.335 v 0.141 C 0.326,-0.316 0.317,-0.318 0.308,-0.322 0.3,-0.325 0.292,-0.33 0.286,-0.337 0.28,-0.343 0.274,-0.35 0.271,-0.359 0.267,-0.367 0.265,-0.376 0.265,-0.386 V -0.457 C 0.253,-0.457 0.241,-0.46 0.23,-0.466 0.22,-0.472 0.211,-0.48 0.205,-0.491 L 0.224,-0.513 0.195,-0.526 0.3,-0.632 C 0.308,-0.64 0.316,-0.646 0.324,-0.651 0.332,-0.656 0.34,-0.66 0.348,-0.662 c 0.009,-0.003 0.017,-0.004 0.027,-0.005 0.009,-0.001 0.019,-0.001 0.031,-0.001 0.01,0 0.02,0 0.03,0.001 0.01,0 0.019,0.001 0.028,0.003 0.009,0.002 0.018,0.005 0.026,0.01 0.009,0.004 0.017,0.01 0.025,0.018 l 0.138,0.139 c 0.007,0.006 0.014,0.012 0.022,0.017 0.008,0.005 0.016,0.009 0.025,0.012 0.009,0.004 0.019,0.007 0.028,0.009 0.009,0.001 0.019,0.002 0.027,0.002 h 0.212 c 0.011,0 0.023,0.002 0.035,0.004 v -0.144 c 0.01,0 0.019,0.002 0.028,0.006 0.008,0.004 0.016,0.009 0.022,0.015 0.006,0.006 0.011,0.014 0.015,0.022 0.004,0.009 0.006,0.018 0.006,0.028 0,0.017 0,0.035 0,0.052 -10e-4,0.018 -10e-4,0.035 -10e-4,0.053 z"
         style="fill:#ffffff;fill-rule:nonzero"
         id="path7682" /><path
         d="M 1.002,-0.141 1.038,-0.105 0.932,0.14 h -0.07 l 0.07,-0.175 V -0.141 Z M 0.441,-0.524 v -0.073 l 0.12,0.12 C 0.554,-0.471 0.546,-0.465 0.538,-0.462 0.529,-0.458 0.52,-0.457 0.511,-0.457 0.502,-0.457 0.493,-0.458 0.484,-0.462 0.476,-0.465 0.469,-0.47 0.462,-0.477 0.456,-0.483 0.451,-0.49 0.447,-0.498 0.443,-0.506 0.441,-0.515 0.441,-0.524 Z"
         style="fill:#cccccc;fill-rule:nonzero"
         id="path7684" /><path
         d="M 0.205,-0.491 C 0.202,-0.497 0.2,-0.502 0.198,-0.508 0.196,-0.514 0.195,-0.52 0.195,-0.526 h 0.07 c 0,0.009 -0.003,0.017 -0.01,0.024 -0.007,0.007 -0.015,0.011 -0.025,0.011 z"
         style="fill:#757575;fill-rule:nonzero"
         id="path7686" /><path
         d="m 0.563,-0.772 c 0.005,0 0.009,0.002 0.013,0.005 0.003,0.004 0.005,0.008 0.005,0.012 0,0.005 -0.002,0.009 -0.005,0.013 -0.003,0.003 -0.008,0.005 -0.013,0.005 -0.005,0 -0.01,0 -0.016,0.002 -0.005,0.001 -0.01,0.003 -0.015,0.005 -0.011,0.004 -0.019,0.01 -0.027,0.017 -0.007,0.006 -0.013,0.014 -0.017,0.023 -0.004,0.008 -0.007,0.017 -0.009,0.027 -0.002,0.01 -0.003,0.02 -0.003,0.031 0,0.01 -0.003,0.018 -0.01,0.025 -0.007,0.007 -0.015,0.01 -0.025,0.01 -0.01,0 -0.018,-0.003 -0.025,-0.01 -0.007,-0.007 -0.01,-0.015 -0.01,-0.025 0,-0.036 0.009,-0.064 0.027,-0.085 0.019,-0.021 0.045,-0.037 0.078,-0.047 0.017,-0.005 0.035,-0.008 0.052,-0.008 z"
         style="fill:#ffb900;fill-rule:nonzero"
         id="path7688" /><path
         d="m 0.353,-0.632 c 0.005,0 0.009,0.002 0.012,0.005 0.004,0.004 0.006,0.008 0.006,0.013 v 0.035 c 0,0.005 -0.002,0.009 -0.006,0.012 -0.003,0.004 -0.007,0.005 -0.012,0.005 -0.005,0 -0.009,-10e-4 -0.012,-0.005 C 0.337,-0.57 0.335,-0.574 0.335,-0.579 v -0.035 c 0,-0.005 0.002,-0.009 0.006,-0.013 0.003,-0.003 0.007,-0.005 0.012,-0.005 z"
         style="fill-rule:nonzero"
         id="path7690" /></g></g></svg>
