<?xml version="1.0" encoding="UTF-8" standalone="no"?>
<svg
   width="16.844999"
   height="16.844999"
   viewBox="0 0 16.844999 16.844999"
   version="1.1"
   xml:space="preserve"
   style="clip-rule:evenodd;fill-rule:evenodd;stroke-linejoin:round;stroke-miterlimit:2"
   id="svg20568"
   sodipodi:docname="emojis.svg"
   xmlns:inkscape="http://www.inkscape.org/namespaces/inkscape"
   xmlns:sodipodi="http://sodipodi.sourceforge.net/DTD/sodipodi-0.dtd"
   xmlns="http://www.w3.org/2000/svg"
   xmlns:svg="http://www.w3.org/2000/svg"><defs
     id="defs20572" /><sodipodi:namedview
     id="namedview20570"
     pagecolor="#505050"
     bordercolor="#eeeeee"
     borderopacity="1"
     inkscape:pageshadow="0"
     inkscape:pageopacity="0"
     inkscape:pagecheckerboard="0" /><g
     transform="matrix(0.24,0,0,0.24,-772.6326,-370.8234)"
     id="g20566"><g
       transform="matrix(62.5,0,0,62.5,3211.49,1602.16)"
       id="g7702"><path
         d="m 1.176,-0.466 c 0.009,0.007 0.018,0.013 0.026,0.019 0.009,0.006 0.017,0.013 0.024,0.02 0.006,0.008 0.012,0.016 0.016,0.025 0.004,0.01 0.006,0.021 0.006,0.033 0,0.011 -0.002,0.021 -0.005,0.03 -0.004,0.01 -0.009,0.018 -0.015,0.026 -0.006,0.007 -0.014,0.014 -0.022,0.019 -0.009,0.006 -0.018,0.009 -0.028,0.011 V 0.134 L 1.102,0.21 H 0.687 V 0.14 C 0.687,0.126 0.689,0.112 0.693,0.099 0.697,0.085 0.703,0.073 0.711,0.062 0.719,0.05 0.728,0.04 0.739,0.031 0.75,0.022 0.762,0.015 0.775,0.01 l 0.052,-0.129 v -0.024 c -0.006,0.001 -0.012,0.002 -0.017,0.002 -0.006,0 -0.012,0 -0.018,0 H 0.651 V 0.134 L 0.575,0.21 H 0.371 V 0.14 C 0.371,0.115 0.377,0.091 0.389,0.07 0.402,0.048 0.419,0.031 0.441,0.019 V -0.149 L 0.354,-0.247 C 0.337,-0.266 0.323,-0.288 0.314,-0.312 0.305,-0.336 0.3,-0.361 0.3,-0.386 V -0.597 H 0.125 v -0.105 c 0,-0.024 0.005,-0.047 0.014,-0.068 0.009,-0.022 0.022,-0.04 0.038,-0.056 0.015,-0.016 0.034,-0.028 0.055,-0.038 0.021,-0.009 0.044,-0.013 0.068,-0.013 h 0.083 c 0.009,-0.008 0.018,-0.015 0.027,-0.019 0.009,-0.005 0.018,-0.009 0.027,-0.011 0.01,-0.002 0.02,-0.004 0.03,-0.005 0.009,-0.001 0.02,-0.001 0.03,-0.001 h 0.049 v 0.106 c 0.016,0.022 0.025,0.043 0.03,0.066 0.004,0.022 0.006,0.045 0.006,0.068 L 0.581,-0.612 0.678,-0.71 c 0.02,-0.02 0.043,-0.036 0.068,-0.046 0.025,-0.011 0.052,-0.016 0.081,-0.016 0.03,0 0.057,0.005 0.08,0.016 0.024,0.01 0.046,0.025 0.069,0.046 l 0.144,0.134 c 0.015,0.014 0.028,0.031 0.037,0.05 0.01,0.019 0.016,0.039 0.019,0.06 z"
         style="fill-rule:nonzero"
         id="path7694" /><path
         d="m 0.897,-0.316 h 0.141 v 0.14 L 0.862,0.14 H 0.757 C 0.757,0.13 0.759,0.121 0.762,0.113 0.766,0.104 0.771,0.097 0.777,0.091 0.783,0.084 0.791,0.079 0.799,0.076 0.808,0.072 0.817,0.07 0.827,0.07 l 0.07,-0.175 z m -0.58,-0.43 0.005,0.051 -0.072,0.028 H 0.195 l 0.051,-0.084 z"
         style="fill:#d48c00;fill-rule:nonzero"
         id="path7696" /><path
         d="m 1.178,-0.369 c 0,0.005 -0.002,0.009 -0.005,0.013 -0.004,0.003 -0.008,0.005 -0.013,0.005 H 1.107 V 0.105 L 1.073,0.14 H 0.967 C 0.967,0.13 0.969,0.121 0.973,0.113 0.977,0.104 0.982,0.097 0.988,0.091 0.994,0.084 1.002,0.079 1.01,0.076 1.019,0.072 1.028,0.07 1.038,0.07 V -0.105 L 0.932,-0.281 C 0.916,-0.258 0.895,-0.241 0.87,-0.229 0.846,-0.217 0.82,-0.21 0.792,-0.21 H 0.581 V 0.105 L 0.546,0.14 H 0.441 C 0.441,0.13 0.443,0.121 0.447,0.113 0.45,0.104 0.455,0.097 0.462,0.091 0.468,0.084 0.475,0.079 0.484,0.076 0.492,0.072 0.501,0.07 0.511,0.07 V -0.176 L 0.406,-0.293 C 0.395,-0.306 0.386,-0.32 0.38,-0.336 0.374,-0.352 0.371,-0.369 0.371,-0.386 V -0.597 C 0.371,-0.606 0.369,-0.616 0.365,-0.624 0.361,-0.632 0.356,-0.64 0.35,-0.646 0.344,-0.653 0.336,-0.658 0.328,-0.661 0.319,-0.665 0.31,-0.667 0.3,-0.667 H 0.25 L 0.294,-0.706 C 0.298,-0.709 0.3,-0.714 0.3,-0.719 0.3,-0.724 0.299,-0.728 0.295,-0.732 0.292,-0.735 0.288,-0.737 0.283,-0.737 c -0.005,0 -0.008,0.002 -0.012,0.005 l -0.076,0.065 v -0.035 c 0,-0.015 0.003,-0.028 0.009,-0.041 0.005,-0.013 0.013,-0.024 0.022,-0.033 0.01,-0.01 0.021,-0.017 0.033,-0.023 0.013,-0.005 0.027,-0.008 0.041,-0.008 h 0.116 c 0.006,-0.011 0.015,-0.019 0.025,-0.026 0.011,-0.006 0.023,-0.009 0.035,-0.009 v 0.062 c 0.011,0.01 0.02,0.022 0.026,0.035 0.006,0.014 0.009,0.028 0.009,0.043 v 0.219 c 0,0.004 0.002,0.009 0.005,0.012 0.004,0.003 0.008,0.005 0.013,0.005 0.002,0 0.005,0 0.007,-0.002 0.002,-10e-4 0.004,-0.003 0.006,-0.005 l 0.186,-0.188 c 0.013,-0.013 0.028,-0.024 0.045,-0.031 0.017,-0.007 0.035,-0.01 0.054,-0.01 0.019,0 0.037,0.003 0.053,0.011 0.017,0.007 0.032,0.017 0.046,0.03 l 0.146,0.136 c 0.014,0.012 0.023,0.027 0.028,0.044 0.005,0.017 0.007,0.034 0.007,0.051 l 0.063,0.047 c 0.005,0.004 0.008,0.009 0.008,0.014 z"
         style="fill:#ffc83d;fill-rule:nonzero"
         id="path7698" /><path
         d="m 0.388,-0.772 c 0.005,0 0.009,0.002 0.012,0.005 0.004,0.004 0.006,0.008 0.006,0.012 v 0.035 c 0,0.005 -0.002,0.009 -0.005,0.013 -0.004,0.003 -0.008,0.005 -0.013,0.005 -0.005,0 -0.009,-0.002 -0.012,-0.005 C 0.372,-0.711 0.371,-0.715 0.371,-0.72 v -0.035 c 0,-0.004 0.001,-0.008 0.005,-0.012 0.004,-0.003 0.008,-0.005 0.012,-0.005 z"
         style="fill-rule:nonzero"
         id="path7700" /></g></g></svg>
