<?xml version="1.0" encoding="UTF-8" standalone="no"?>
<svg
   width="16.844999"
   height="14.73"
   viewBox="0 0 16.844999 14.73"
   version="1.1"
   xml:space="preserve"
   style="clip-rule:evenodd;fill-rule:evenodd;stroke-linejoin:round;stroke-miterlimit:2"
   id="svg20568"
   sodipodi:docname="emojis.svg"
   xmlns:inkscape="http://www.inkscape.org/namespaces/inkscape"
   xmlns:sodipodi="http://sodipodi.sourceforge.net/DTD/sodipodi-0.dtd"
   xmlns="http://www.w3.org/2000/svg"
   xmlns:svg="http://www.w3.org/2000/svg"><defs
     id="defs20572" /><sodipodi:namedview
     id="namedview20570"
     pagecolor="#505050"
     bordercolor="#eeeeee"
     borderopacity="1"
     inkscape:pageshadow="0"
     inkscape:pageopacity="0"
     inkscape:pagecheckerboard="0" /><g
     transform="matrix(0.24,0,0,0.24,-72.89868,-389.9088)"
     id="g20566"><g
       transform="matrix(62.5,0,0,62.5,295.932,1672.87)"
       id="g7746"><path
         d="M 1.248,-0.404 V 0.21 H 1.016 L 0.946,-0.105 H 0.862 V 0.21 H 0.406 V 0.058 C 0.394,0.062 0.383,0.065 0.371,0.067 0.359,0.069 0.347,0.07 0.335,0.07 0.306,0.07 0.279,0.065 0.254,0.054 0.228,0.043 0.206,0.028 0.187,0.008 0.168,-0.011 0.153,-0.033 0.142,-0.059 0.131,-0.084 0.125,-0.112 0.125,-0.141 v -0.421 c 0,-0.024 0.005,-0.046 0.014,-0.068 0.009,-0.021 0.022,-0.04 0.038,-0.056 0.015,-0.015 0.034,-0.028 0.055,-0.037 0.021,-0.01 0.044,-0.014 0.068,-0.014 l 0.054,-0.001 c 0.008,0 0.016,0 0.024,0 0.008,0.001 0.016,0.002 0.024,0.004 0.016,-0.013 0.033,-0.022 0.052,-0.028 0.019,-0.007 0.038,-0.01 0.057,-0.01 h 0.14 c 0.026,0 0.049,0.006 0.071,0.019 0.021,0.012 0.038,0.029 0.051,0.051 H 0.95 c 0.041,0 0.079,0.008 0.116,0.023 0.036,0.016 0.068,0.037 0.095,0.064 0.027,0.027 0.048,0.059 0.064,0.095 0.015,0.037 0.023,0.075 0.023,0.116 z"
         style="fill-rule:nonzero"
         id="path7738" /><path
         d="M 1.178,-0.404 V 0.14 H 1.073 L 1.002,-0.176 H 0.792 L 0.739,-0.052 0.646,-0.042 0.581,0.035 V 0.14 H 0.476 V 0.035 c 0,-0.013 0.002,-0.026 0.006,-0.039 0.003,-0.013 0.008,-0.025 0.014,-0.037 L 0.581,-0.21 0.441,-0.351 v -0.034 l -0.156,0.16 c -0.009,0.01 -0.015,0.019 -0.017,0.029 -0.002,0.01 -0.003,0.02 -0.003,0.031 v 0.024 c 0,0.01 0.002,0.019 0.006,0.028 0.003,0.008 0.009,0.016 0.015,0.022 0.006,0.006 0.014,0.011 0.022,0.015 0.009,0.004 0.018,0.006 0.027,0.006 0.01,0 0.019,-0.002 0.028,-0.006 0.008,-0.003 0.016,-0.008 0.022,-0.015 0.006,-0.006 0.011,-0.013 0.015,-0.022 0.004,-0.009 0.006,-0.018 0.006,-0.028 v -0.035 h 0.07 v 0.035 c 0,0.02 -0.004,0.038 -0.011,0.055 -0.007,0.017 -0.017,0.032 -0.03,0.045 C 0.422,-0.028 0.407,-0.018 0.39,-0.011 0.373,-0.004 0.355,0 0.335,0 0.316,0 0.298,-0.004 0.281,-0.011 0.264,-0.018 0.249,-0.028 0.236,-0.041 0.224,-0.054 0.214,-0.069 0.206,-0.086 0.199,-0.103 0.195,-0.121 0.195,-0.141 V -0.21 L 0.214,-0.227 0.195,-0.246 V -0.281 L 0.216,-0.297 0.195,-0.316 V -0.351 L 0.216,-0.368 0.195,-0.386 v -0.176 c 0,-0.014 0.003,-0.028 0.009,-0.041 0.005,-0.012 0.013,-0.023 0.022,-0.033 0.01,-0.01 0.021,-0.017 0.033,-0.023 0.013,-0.005 0.027,-0.008 0.041,-0.008 l 0.049,-0.001 c 0.012,0 0.024,0.001 0.037,0.003 0.012,0.002 0.024,0.006 0.035,0.012 0.013,-0.015 0.026,-0.027 0.039,-0.036 0.014,-0.009 0.031,-0.013 0.051,-0.013 h 0.14 c 0.01,0 0.019,0.002 0.028,0.005 0.008,0.004 0.016,0.009 0.022,0.016 0.006,0.006 0.011,0.013 0.015,0.022 0.004,0.008 0.006,0.017 0.006,0.027 H 0.95 c 0.031,0 0.061,0.006 0.089,0.018 0.027,0.012 0.051,0.028 0.072,0.049 0.021,0.02 0.037,0.045 0.049,0.072 0.012,0.028 0.018,0.058 0.018,0.089 z"
         style="fill:#cccccc;fill-rule:nonzero"
         id="path7740" /><path
         d="m 0.722,-0.632 -0.225,0.288 c -0.007,0.009 -0.015,0.015 -0.025,0.021 -0.009,0.005 -0.02,0.007 -0.031,0.007 -0.01,0 -0.019,-0.002 -0.028,-0.005 C 0.405,-0.325 0.397,-0.33 0.391,-0.336 0.385,-0.343 0.38,-0.35 0.376,-0.359 0.372,-0.367 0.371,-0.376 0.371,-0.386 v -0.143 l 0.06,-0.065 c 0.011,-0.012 0.023,-0.021 0.036,-0.028 0.013,-0.006 0.028,-0.01 0.044,-0.01 z m 0.07,0.456 V 0.14 H 0.687 L 0.646,-0.042 0.757,-0.176 Z m -0.544,-0.21 c 0.005,0 0.009,0.002 0.012,0.005 0.003,0.004 0.005,0.008 0.005,0.012 0,0.005 -0.002,0.009 -0.005,0.013 -0.003,0.003 -0.007,0.005 -0.012,0.005 H 0.195 v -0.035 z m 0,0.07 c 0.005,0 0.009,0.002 0.012,0.005 0.003,0.004 0.005,0.008 0.005,0.013 0,0.004 -0.002,0.008 -0.005,0.012 -0.003,0.003 -0.007,0.005 -0.012,0.005 H 0.195 v -0.035 z m -0.018,0.07 c 0.005,0 0.01,0.002 0.013,0.006 0.003,0.003 0.005,0.007 0.005,0.012 0,0.005 -0.002,0.009 -0.005,0.012 C 0.24,-0.212 0.235,-0.21 0.23,-0.21 H 0.195 v -0.036 z"
         style="fill:#757575;fill-rule:nonzero"
         id="path7742" /><path
         d="m 0.283,-0.491 c 0.004,0 0.008,0.001 0.012,0.005 0.004,0.003 0.005,0.007 0.005,0.012 v 0.035 c 0,0.005 -0.001,0.009 -0.005,0.012 -0.003,0.004 -0.007,0.006 -0.012,0.006 -0.005,0 -0.009,-0.002 -0.012,-0.006 C 0.267,-0.43 0.265,-0.434 0.265,-0.439 v -0.035 c 0,-0.005 0.002,-0.009 0.006,-0.012 0.003,-0.004 0.007,-0.005 0.012,-0.005 z"
         style="fill-rule:nonzero"
         id="path7744" /></g></g></svg>
