<?xml version="1.0" encoding="UTF-8" standalone="no"?>
<svg
   width="16.844999"
   height="9.4650002"
   viewBox="0 0 16.844999 9.4650002"
   version="1.1"
   xml:space="preserve"
   style="clip-rule:evenodd;fill-rule:evenodd;stroke-linejoin:round;stroke-miterlimit:2"
   id="svg20568"
   sodipodi:docname="emojis.svg"
   xmlns:inkscape="http://www.inkscape.org/namespaces/inkscape"
   xmlns:sodipodi="http://sodipodi.sourceforge.net/DTD/sodipodi-0.dtd"
   xmlns="http://www.w3.org/2000/svg"
   xmlns:svg="http://www.w3.org/2000/svg"><defs
     id="defs20572" /><sodipodi:namedview
     id="namedview20570"
     pagecolor="#505050"
     bordercolor="#eeeeee"
     borderopacity="1"
     inkscape:pageshadow="0"
     inkscape:pageopacity="0"
     inkscape:pagecheckerboard="0" /><g
     transform="matrix(0.24,0,0,0.24,-114.09012,-395.1738)"
     id="g20566"><g
       transform="matrix(62.5,0,0,62.5,467.563,1672.87)"
       id="g7774"><path
         d="M 0.657,0.21 0.798,0.07 c -0.019,0 -0.037,0 -0.056,0 -0.018,0 -0.037,0 -0.055,0 V 0.134 L 0.61,0.21 H 0.342 L 0.457,0.095 C 0.451,0.097 0.445,0.098 0.438,0.1 0.432,0.101 0.426,0.102 0.419,0.103 0.407,0.115 0.396,0.127 0.384,0.139 0.372,0.151 0.36,0.163 0.348,0.174 0.337,0.186 0.324,0.195 0.309,0.201 0.294,0.207 0.279,0.21 0.263,0.21 0.239,0.21 0.217,0.204 0.197,0.191 0.187,0.184 0.177,0.177 0.168,0.169 0.159,0.162 0.151,0.154 0.145,0.145 0.138,0.137 0.134,0.127 0.13,0.116 0.127,0.105 0.125,0.093 0.125,0.079 0.125,0.072 0.126,0.065 0.127,0.059 0.128,0.052 0.13,0.046 0.132,0.039 0.133,0.035 0.135,0.028 0.138,0.02 0.141,0.012 0.144,0.004 0.147,-0.005 0.15,-0.013 0.153,-0.021 0.155,-0.029 0.158,-0.037 0.16,-0.042 0.16,-0.046 v -0.062 c 0,-0.012 0.002,-0.022 0.004,-0.031 0.003,-0.009 0.007,-0.017 0.012,-0.024 0.005,-0.007 0.01,-0.014 0.017,-0.021 0.006,-0.007 0.013,-0.014 0.02,-0.022 0.012,-0.012 0.024,-0.025 0.035,-0.037 0.012,-0.013 0.024,-0.025 0.037,-0.036 0.052,-0.046 0.108,-0.081 0.17,-0.105 0.062,-0.025 0.127,-0.037 0.196,-0.037 h 0.316 c 0.039,0 0.075,0.007 0.109,0.022 0.034,0.015 0.064,0.035 0.09,0.06 0.025,0.026 0.045,0.055 0.06,0.089 0.015,0.034 0.022,0.071 0.022,0.109 v 0.088 c 0,0.014 -0.003,0.027 -0.009,0.04 C 1.233,-0.001 1.224,0.009 1.213,0.018 V 0.21 Z"
         style="fill-rule:nonzero"
         id="path7762" /><path
         d="M 0.915,0.14 H 0.827 l 0.07,-0.07 v -0.123 h 0.105 v 0.106 z"
         style="fill:#69797e;fill-rule:nonzero"
         id="path7764" /><path
         d="M 0.207,0.035 0.22,-0.001 c 0.002,-0.007 0.005,-0.013 0.007,-0.02 0.002,-0.006 0.003,-0.011 0.003,-0.014 0.001,-0.002 0.001,-0.004 0.001,-0.006 0,-0.002 0,-0.005 0,-0.007 0,-0.007 0,-0.015 -0.001,-0.023 0,-0.008 -0.001,-0.015 -0.001,-0.023 0,-0.008 0.001,-0.015 0.002,-0.022 0.002,-0.007 0.005,-0.013 0.009,-0.017 0.004,-0.005 0.008,-0.009 0.012,-0.013 0.005,-0.004 0.009,-0.008 0.013,-0.012 0.011,-0.011 0.021,-0.022 0.03,-0.033 0.01,-0.011 0.02,-0.021 0.032,-0.031 0.045,-0.041 0.095,-0.073 0.15,-0.095 0.055,-0.023 0.113,-0.034 0.174,-0.034 h 0.316 c 0.029,0 0.057,0.005 0.082,0.017 0.026,0.011 0.048,0.026 0.067,0.045 0.019,0.019 0.034,0.041 0.045,0.067 0.011,0.025 0.017,0.052 0.017,0.081 v 0.088 c 0,0.005 -0.002,0.009 -0.005,0.013 C 1.169,-0.037 1.165,-0.035 1.16,-0.035 1.155,-0.035 1.151,-0.037 1.148,-0.04 1.144,-0.044 1.143,-0.048 1.143,-0.053 v -0.083 c -0.001,0.03 -0.011,0.056 -0.028,0.08 L 1.143,0 V 0.14 H 1.055 L 1.073,0.105 V 0.07 L 1.002,0 0.712,-0.048 H 0.703 c -0.003,0 -0.005,0 -0.006,0.001 -0.015,0.001 -0.03,0.005 -0.043,0.011 C 0.64,-0.03 0.628,-0.022 0.616,-0.012 V 0.105 L 0.581,0.14 H 0.511 L 0.546,0.105 V 0.035 L 0.518,-0.022 C 0.507,-0.012 0.495,-0.002 0.482,0.007 0.469,0.015 0.455,0.022 0.441,0.026 0.435,0.028 0.43,0.03 0.424,0.031 0.418,0.033 0.412,0.034 0.406,0.034 H 0.393 C 0.391,0.034 0.39,0.035 0.388,0.035 L 0.284,0.069 Z"
         style="fill:#859599;fill-rule:nonzero"
         id="path7766" /><path
         d="M 1.002,0 H 0.704 C 0.689,0 0.674,-0.001 0.66,-0.003 0.645,-0.005 0.631,-0.008 0.616,-0.012 V -0.07 H 0.932 Z M 0.388,0.035 0.298,0.125 C 0.288,0.135 0.276,0.14 0.263,0.14 0.253,0.14 0.245,0.138 0.238,0.134 0.232,0.13 0.225,0.125 0.217,0.12 0.202,0.11 0.195,0.096 0.195,0.078 0.195,0.071 0.197,0.063 0.199,0.056 0.202,0.049 0.204,0.042 0.207,0.035 Z"
         style="fill:#ee9889;fill-rule:nonzero"
         id="path7768" /><path
         d="M 0.371,-0.141 H 0.335 L 0.406,-0.21 v 0.034 c 0,0.01 -0.004,0.018 -0.01,0.025 -0.007,0.007 -0.016,0.01 -0.025,0.01 z M 0.23,0.087 C 0.23,0.092 0.229,0.096 0.225,0.1 0.222,0.103 0.217,0.105 0.213,0.105 0.208,0.105 0.204,0.103 0.2,0.1 0.197,0.096 0.195,0.092 0.195,0.087 0.195,0.083 0.197,0.079 0.201,0.075 0.204,0.072 0.208,0.07 0.213,0.07 0.217,0.07 0.222,0.072 0.225,0.075 0.229,0.079 0.23,0.083 0.23,0.087 Z"
         style="fill:#4a5459;fill-rule:nonzero"
         id="path7770" /><path
         d="m 0.265,-0.053 v -0.035 c 0,-0.004 0.002,-0.009 0.006,-0.012 0.003,-0.004 0.007,-0.005 0.012,-0.005 0.005,0 0.009,0.001 0.012,0.005 0.004,0.003 0.005,0.007 0.005,0.012 v 0.035 c 0,0.005 -0.001,0.009 -0.005,0.013 -0.003,0.003 -0.007,0.005 -0.012,0.005 -0.005,0 -0.009,-0.002 -0.012,-0.006 C 0.267,-0.044 0.265,-0.048 0.265,-0.053 Z"
         style="fill-rule:nonzero"
         id="path7772" /></g></g></svg>
