<?xml version="1.0" encoding="UTF-8" standalone="no"?>
<svg
   width="16.844999"
   height="14.73"
   viewBox="0 0 16.844999 14.73"
   version="1.1"
   xml:space="preserve"
   style="clip-rule:evenodd;fill-rule:evenodd;stroke-linejoin:round;stroke-miterlimit:2"
   id="svg20568"
   sodipodi:docname="emojis.svg"
   xmlns:inkscape="http://www.inkscape.org/namespaces/inkscape"
   xmlns:sodipodi="http://sodipodi.sourceforge.net/DTD/sodipodi-0.dtd"
   xmlns="http://www.w3.org/2000/svg"
   xmlns:svg="http://www.w3.org/2000/svg"><defs
     id="defs20572" /><sodipodi:namedview
     id="namedview20570"
     pagecolor="#505050"
     bordercolor="#eeeeee"
     borderopacity="1"
     inkscape:pageshadow="0"
     inkscape:pageopacity="0"
     inkscape:pagecheckerboard="0" /><g
     transform="matrix(0.24,0,0,0.24,-175.87716,-389.9088)"
     id="g20566"><g
       transform="matrix(62.5,0,0,62.5,725.009,1672.87)"
       id="g7808"><path
         d="m 1.248,-0.351 v 0.175 c 0,0.036 -0.005,0.07 -0.014,0.103 C 1.225,-0.04 1.212,-0.01 1.195,0.019 1.178,0.048 1.158,0.074 1.135,0.097 1.111,0.121 1.085,0.141 1.057,0.157 1.028,0.174 0.997,0.187 0.964,0.197 0.931,0.206 0.897,0.21 0.862,0.21 H 0.406 C 0.391,0.21 0.377,0.208 0.365,0.202 0.352,0.197 0.341,0.189 0.331,0.179 0.322,0.17 0.314,0.159 0.309,0.146 0.303,0.133 0.3,0.12 0.3,0.105 0.3,0.094 0.302,0.083 0.305,0.073 0.309,0.063 0.314,0.053 0.32,0.045 0.326,0.036 0.333,0.028 0.342,0.022 0.351,0.015 0.36,0.01 0.371,0.006 v -0.041 c 0,-0.018 0.003,-0.036 0.01,-0.052 C 0.387,-0.103 0.396,-0.118 0.408,-0.13 0.42,-0.143 0.433,-0.153 0.449,-0.161 0.464,-0.169 0.481,-0.174 0.5,-0.175 l 0.037,-0.086 -0.09,-0.09 H 0.371 c -0.034,0 -0.066,-0.007 -0.095,-0.02 C 0.246,-0.384 0.22,-0.401 0.198,-0.424 0.175,-0.446 0.158,-0.472 0.145,-0.502 0.132,-0.531 0.125,-0.563 0.125,-0.597 v -0.07 h 0.29 c 0.005,-0.016 0.013,-0.03 0.023,-0.043 0.01,-0.013 0.021,-0.024 0.034,-0.033 0.014,-0.009 0.028,-0.016 0.043,-0.021 0.016,-0.005 0.032,-0.008 0.048,-0.008 0.017,0 0.033,0.003 0.049,0.008 0.015,0.005 0.029,0.012 0.042,0.021 0.013,0.009 0.025,0.02 0.035,0.033 0.01,0.013 0.018,0.027 0.023,0.043 h 0.22 c 0.029,0 0.057,0.004 0.084,0.011 0.027,0.008 0.052,0.018 0.076,0.032 0.023,0.014 0.044,0.031 0.063,0.05 0.019,0.019 0.036,0.04 0.05,0.064 0.014,0.023 0.024,0.048 0.032,0.075 0.007,0.027 0.011,0.055 0.011,0.084 z"
         style="fill-rule:nonzero"
         id="path7800" /><path
         d="m 0.932,-0.597 c 0.034,0 0.066,0.007 0.096,0.02 0.029,0.012 0.055,0.03 0.078,0.052 0.022,0.023 0.04,0.049 0.052,0.078 0.013,0.03 0.02,0.062 0.02,0.096 v 0.105 c 0,0.02 -0.002,0.04 -0.005,0.059 -0.003,0.02 -0.006,0.039 -0.01,0.059 -0.01,0.001 -0.021,0.002 -0.031,0.003 C 1.121,-0.124 1.111,-0.123 1.1,-0.12 1.097,-0.119 1.093,-0.118 1.09,-0.116 1.087,-0.115 1.084,-0.114 1.081,-0.112 1.066,-0.108 1.052,-0.105 1.038,-0.105 L 0.964,-0.076 0.897,-0.105 C 0.882,-0.105 0.869,-0.108 0.856,-0.114 0.843,-0.119 0.832,-0.127 0.823,-0.136 0.813,-0.146 0.806,-0.157 0.8,-0.169 0.795,-0.182 0.792,-0.196 0.792,-0.21 V -0.246 H 0.722 L 0.687,-0.176 0.626,-0.151 0.576,-0.176 0.62,-0.277 0.476,-0.421 H 0.371 C 0.353,-0.421 0.337,-0.424 0.32,-0.429 0.304,-0.434 0.289,-0.441 0.275,-0.45 0.261,-0.459 0.249,-0.47 0.238,-0.483 0.227,-0.496 0.218,-0.51 0.211,-0.526 L 0.3,-0.597 Z"
         style="fill:#757575;fill-rule:nonzero"
         id="path7802" /><path
         d="m 1.102,-0.121 c 0.011,-0.005 0.021,-0.013 0.03,-0.021 0.009,-0.009 0.017,-0.018 0.024,-0.029 0.007,-0.01 0.012,-0.022 0.016,-0.034 0.003,-0.012 0.005,-0.024 0.006,-0.037 v 0.066 c 0,0.029 -0.004,0.057 -0.011,0.084 C 1.159,-0.065 1.148,-0.04 1.135,-0.016 1.121,0.007 1.104,0.028 1.085,0.047 1.066,0.067 1.045,0.083 1.021,0.097 0.998,0.111 0.973,0.121 0.946,0.129 0.919,0.136 0.891,0.14 0.862,0.14 H 0.406 C 0.396,0.14 0.388,0.137 0.381,0.13 0.374,0.123 0.371,0.115 0.371,0.105 0.371,0.095 0.374,0.087 0.381,0.08 0.388,0.074 0.396,0.07 0.406,0.07 H 0.862 C 0.89,0.07 0.918,0.066 0.944,0.056 0.97,0.047 0.994,0.034 1.015,0.017 1.036,0 1.054,-0.02 1.069,-0.044 1.084,-0.067 1.095,-0.093 1.102,-0.121 Z M 0.563,-0.702 c 0.013,0 0.024,0.002 0.035,0.007 0.01,0.004 0.02,0.011 0.028,0.018 0.008,0.008 0.014,0.018 0.019,0.029 0.004,0.01 0.006,0.022 0.006,0.034 0,0.012 -0.002,0.024 -0.006,0.034 -0.005,0.011 -0.011,0.02 -0.019,0.028 -0.008,0.008 -0.018,0.014 -0.028,0.019 -0.011,0.004 -0.022,0.007 -0.035,0.007 H 0.476 v -0.088 c 0,-0.012 0.002,-0.024 0.007,-0.034 C 0.487,-0.659 0.494,-0.669 0.502,-0.677 0.51,-0.684 0.519,-0.691 0.53,-0.695 0.54,-0.7 0.551,-0.702 0.563,-0.702 Z m 0.013,0.526 H 0.687 L 0.616,-0.035 H 0.441 c 0,-0.01 0.002,-0.019 0.006,-0.028 C 0.45,-0.071 0.455,-0.078 0.462,-0.085 0.468,-0.091 0.475,-0.096 0.484,-0.1 0.492,-0.104 0.501,-0.105 0.511,-0.105 h 0.035 z m 0.146,0.141 c 0,-0.01 0.002,-0.019 0.005,-0.028 0.004,-0.008 0.009,-0.015 0.015,-0.022 0.007,-0.006 0.014,-0.011 0.023,-0.015 0.008,-0.004 0.017,-0.005 0.027,-0.005 h 0.246 c 0,0.009 -0.002,0.018 -0.006,0.027 C 1.028,-0.07 1.023,-0.062 1.017,-0.056 1.01,-0.05 1.003,-0.045 0.995,-0.041 0.986,-0.037 0.977,-0.035 0.967,-0.035 Z M 0.211,-0.526 C 0.201,-0.549 0.195,-0.572 0.195,-0.597 H 0.3 c 0,0.01 -0.001,0.019 -0.005,0.028 C 0.291,-0.561 0.286,-0.553 0.28,-0.547 0.274,-0.541 0.266,-0.536 0.258,-0.532 0.249,-0.528 0.24,-0.526 0.23,-0.526 Z"
         style="fill:#ee9889;fill-rule:nonzero"
         id="path7804" /><path
         d="m 0.406,-0.597 c 0.01,0 0.018,0.004 0.025,0.011 0.006,0.006 0.01,0.015 0.01,0.024 v 0.036 c 0,0.009 -0.004,0.017 -0.011,0.024 -0.007,0.007 -0.015,0.011 -0.024,0.011 -0.01,0 -0.018,-0.004 -0.025,-0.011 -0.007,-0.007 -0.01,-0.015 -0.01,-0.024 v -0.036 c 0,-0.009 0.003,-0.018 0.01,-0.024 0.007,-0.007 0.015,-0.011 0.025,-0.011 z"
         style="fill-rule:nonzero"
         id="path7806" /></g></g></svg>
