<?xml version="1.0" encoding="UTF-8" standalone="no"?>
<svg
   width="16.844999"
   height="16.844999"
   viewBox="0 0 16.844999 16.844999"
   version="1.1"
   xml:space="preserve"
   style="clip-rule:evenodd;fill-rule:evenodd;stroke-linejoin:round;stroke-miterlimit:2"
   id="svg20568"
   sodipodi:docname="emojis.svg"
   xmlns:inkscape="http://www.inkscape.org/namespaces/inkscape"
   xmlns:sodipodi="http://sodipodi.sourceforge.net/DTD/sodipodi-0.dtd"
   xmlns="http://www.w3.org/2000/svg"
   xmlns:svg="http://www.w3.org/2000/svg"><defs
     id="defs20572" /><sodipodi:namedview
     id="namedview20570"
     pagecolor="#505050"
     bordercolor="#eeeeee"
     borderopacity="1"
     inkscape:pageshadow="0"
     inkscape:pageopacity="0"
     inkscape:pagecheckerboard="0" /><g
     transform="matrix(0.24,0,0,0.24,-196.47276,-387.7938)"
     id="g20566"><g
       transform="matrix(62.5,0,0,62.5,810.824,1672.87)"
       id="g7828"><path
         d="m 1.248,-0.685 c 0,0.023 -0.003,0.044 -0.009,0.065 -0.006,0.02 -0.015,0.04 -0.027,0.058 -0.011,0.017 -0.025,0.034 -0.041,0.048 -0.016,0.015 -0.034,0.027 -0.054,0.036 l 0.068,0.174 c 0.009,0.021 0.015,0.042 0.02,0.063 0.005,0.02 0.008,0.042 0.008,0.065 0,0.031 -0.005,0.062 -0.014,0.092 -0.008,0.03 -0.022,0.057 -0.039,0.083 0.006,0.008 0.01,0.016 0.013,0.025 0.003,0.009 0.005,0.019 0.005,0.029 0,0.013 -0.003,0.026 -0.01,0.039 C 1.162,0.104 1.154,0.114 1.143,0.123 1.143,0.135 1.14,0.146 1.136,0.157 1.131,0.168 1.125,0.177 1.117,0.185 1.109,0.193 1.1,0.199 1.089,0.204 1.079,0.208 1.067,0.21 1.055,0.21 1.035,0.21 1.017,0.204 1,0.191 L 0.934,0.138 C 0.927,0.139 0.921,0.139 0.915,0.14 c -0.006,0 -0.012,0 -0.018,0 C 0.872,0.14 0.847,0.137 0.824,0.131 0.821,0.143 0.816,0.153 0.81,0.163 0.803,0.173 0.795,0.181 0.786,0.188 0.777,0.195 0.767,0.201 0.756,0.205 0.745,0.208 0.733,0.21 0.722,0.21 H 0.651 C 0.639,0.21 0.628,0.208 0.617,0.205 0.606,0.201 0.596,0.195 0.587,0.188 0.578,0.181 0.57,0.173 0.563,0.163 0.557,0.154 0.552,0.143 0.549,0.131 0.525,0.137 0.501,0.14 0.476,0.14 c -0.006,0 -0.012,0 -0.018,0 C 0.452,0.139 0.446,0.139 0.439,0.138 L 0.373,0.191 C 0.356,0.204 0.338,0.21 0.318,0.21 0.306,0.21 0.294,0.208 0.283,0.204 0.273,0.199 0.264,0.193 0.256,0.185 0.248,0.177 0.242,0.168 0.237,0.157 0.233,0.146 0.23,0.135 0.23,0.123 0.219,0.114 0.21,0.104 0.204,0.092 0.198,0.08 0.195,0.067 0.195,0.053 0.195,0.043 0.197,0.033 0.2,0.024 0.203,0.015 0.207,0.007 0.213,-0.001 0.196,-0.027 0.183,-0.054 0.174,-0.084 0.165,-0.114 0.16,-0.145 0.16,-0.176 c 0,-0.023 0.003,-0.045 0.008,-0.065 0.005,-0.021 0.012,-0.042 0.02,-0.063 L 0.256,-0.478 C 0.236,-0.487 0.219,-0.499 0.202,-0.514 0.186,-0.528 0.172,-0.545 0.161,-0.562 0.149,-0.58 0.14,-0.6 0.134,-0.62 0.128,-0.641 0.125,-0.662 0.125,-0.685 c 0,-0.031 0.006,-0.06 0.018,-0.088 0.012,-0.028 0.028,-0.052 0.049,-0.072 0.021,-0.021 0.045,-0.037 0.073,-0.05 0.027,-0.012 0.057,-0.018 0.088,-0.018 0.019,0 0.037,0.003 0.054,0.007 0.018,0.004 0.035,0.011 0.051,0.019 0.016,0.009 0.031,0.019 0.045,0.031 0.014,0.012 0.026,0.026 0.037,0.041 0.023,-0.009 0.047,-0.016 0.072,-0.02 0.024,-0.005 0.049,-0.007 0.075,-0.007 0.051,0 0.1,0.009 0.146,0.026 0.022,-0.03 0.049,-0.054 0.082,-0.071 0.033,-0.017 0.068,-0.026 0.105,-0.026 0.031,0 0.061,0.006 0.088,0.018 0.028,0.013 0.052,0.029 0.073,0.05 0.021,0.02 0.037,0.044 0.049,0.072 0.012,0.028 0.018,0.057 0.018,0.088 z"
         style="fill-rule:nonzero"
         id="path7810" /><path
         d="M 0.616,0.105 V -0.07 h 0.141 v 0.175 c 0,0.01 -0.004,0.018 -0.01,0.025 C 0.74,0.137 0.731,0.14 0.722,0.14 H 0.651 C 0.642,0.14 0.633,0.137 0.626,0.13 0.62,0.123 0.616,0.115 0.616,0.105 Z"
         style="fill:#cccccc;fill-rule:nonzero"
         id="path7812" /><path
         d="m 0.353,-0.842 c 0.022,0 0.042,0.004 0.062,0.012 0.019,0.008 0.036,0.02 0.05,0.034 0.014,0.014 0.025,0.031 0.034,0.05 0.008,0.019 0.012,0.04 0.012,0.061 v 0.159 H 0.353 C 0.331,-0.526 0.311,-0.531 0.292,-0.539 0.273,-0.547 0.256,-0.558 0.242,-0.573 0.227,-0.587 0.216,-0.604 0.208,-0.623 0.199,-0.642 0.195,-0.663 0.195,-0.685 c 0,-0.021 0.004,-0.042 0.013,-0.061 0.008,-0.019 0.019,-0.036 0.034,-0.05 0.014,-0.014 0.031,-0.026 0.05,-0.034 0.019,-0.008 0.039,-0.012 0.061,-0.012 z m 0.667,0 c 0.022,0 0.042,0.004 0.061,0.012 0.019,0.008 0.036,0.02 0.05,0.034 0.015,0.014 0.026,0.031 0.034,0.05 0.009,0.019 0.013,0.04 0.013,0.061 0,0.022 -0.004,0.043 -0.013,0.062 -0.008,0.019 -0.019,0.036 -0.034,0.05 C 1.117,-0.558 1.1,-0.547 1.081,-0.539 1.062,-0.531 1.042,-0.526 1.02,-0.526 H 0.862 v -0.159 c 0,-0.021 0.004,-0.042 0.012,-0.061 0.009,-0.019 0.02,-0.036 0.034,-0.05 0.015,-0.014 0.031,-0.026 0.05,-0.034 0.02,-0.008 0.04,-0.012 0.062,-0.012 z"
         style="fill:#ee9889;fill-rule:nonzero"
         id="path7814" /><path
         d="m 0.353,-0.772 c 0.012,0 0.023,0.002 0.034,0.007 0.011,0.004 0.02,0.011 0.028,0.019 0.008,0.008 0.015,0.017 0.019,0.027 0.005,0.011 0.007,0.022 0.007,0.034 v 0.088 H 0.353 C 0.341,-0.597 0.329,-0.599 0.319,-0.604 0.308,-0.608 0.299,-0.614 0.291,-0.622 0.283,-0.63 0.277,-0.64 0.272,-0.65 0.267,-0.661 0.265,-0.672 0.265,-0.685 c 0,-0.012 0.002,-0.023 0.007,-0.034 0.005,-0.01 0.011,-0.019 0.019,-0.027 0.008,-0.008 0.017,-0.015 0.028,-0.019 0.011,-0.005 0.022,-0.007 0.034,-0.007 z m 0.667,0 c 0.012,0 0.023,0.002 0.034,0.007 0.011,0.004 0.02,0.011 0.028,0.019 0.008,0.008 0.014,0.017 0.019,0.027 0.004,0.011 0.006,0.022 0.006,0.034 0,0.012 -0.002,0.024 -0.006,0.035 C 1.096,-0.64 1.09,-0.63 1.082,-0.622 1.074,-0.614 1.065,-0.608 1.054,-0.604 1.043,-0.599 1.032,-0.597 1.02,-0.597 H 0.932 v -0.088 c 0,-0.012 0.002,-0.023 0.007,-0.034 0.005,-0.01 0.011,-0.019 0.019,-0.027 0.008,-0.008 0.017,-0.015 0.028,-0.019 0.011,-0.005 0.022,-0.007 0.034,-0.007 z"
         style="fill:#ef6950;fill-rule:nonzero"
         id="path7816" /><path
         d="m 0.664,-0.731 0.479,0.555 c 0,0.034 -0.007,0.066 -0.02,0.096 C 1.11,-0.051 1.093,-0.024 1.071,-0.002 1.048,0.02 1.022,0.038 0.992,0.051 0.963,0.064 0.931,0.07 0.897,0.07 0.875,0.07 0.854,0.068 0.834,0.062 0.813,0.056 0.794,0.049 0.776,0.038 0.758,0.028 0.741,0.015 0.726,0 0.711,-0.014 0.698,-0.031 0.687,-0.049 0.675,-0.031 0.662,-0.014 0.647,0 0.632,0.015 0.615,0.028 0.597,0.038 0.579,0.049 0.56,0.056 0.539,0.062 0.519,0.068 0.498,0.07 0.476,0.07 0.442,0.07 0.41,0.064 0.38,0.051 0.35,0.038 0.324,0.021 0.302,-0.002 0.28,-0.024 0.263,-0.05 0.25,-0.08 0.237,-0.11 0.23,-0.142 0.23,-0.176 0.23,-0.194 0.233,-0.211 0.237,-0.228 0.241,-0.244 0.246,-0.26 0.252,-0.277 L 0.36,-0.55 C 0.369,-0.572 0.379,-0.593 0.392,-0.613 0.405,-0.632 0.42,-0.65 0.437,-0.667 Z"
         style="fill:#ffffff;fill-rule:nonzero"
         id="path7818" /><path
         d="m 0.687,-0.772 c 0.036,0 0.071,0.005 0.104,0.016 0.033,0.01 0.064,0.025 0.092,0.044 0.028,0.02 0.053,0.043 0.075,0.07 0.022,0.027 0.04,0.058 0.054,0.091 0.019,0.043 0.037,0.087 0.054,0.131 0.017,0.044 0.034,0.088 0.05,0.132 l 0.004,0.011 c 0.007,0.017 0.012,0.034 0.016,0.05 0.004,0.015 0.007,0.033 0.007,0.051 H 0.862 C 0.838,-0.176 0.815,-0.18 0.794,-0.189 0.772,-0.199 0.754,-0.211 0.738,-0.227 0.722,-0.243 0.709,-0.262 0.7,-0.283 0.691,-0.304 0.687,-0.327 0.687,-0.351 v -0.14 C 0.687,-0.515 0.682,-0.538 0.673,-0.559 0.663,-0.581 0.651,-0.599 0.635,-0.615 0.619,-0.631 0.601,-0.644 0.579,-0.653 0.558,-0.662 0.535,-0.667 0.511,-0.667 H 0.437 c 0.033,-0.034 0.071,-0.06 0.114,-0.078 0.042,-0.018 0.088,-0.027 0.136,-0.027 z"
         style="fill:#ffb900;fill-rule:nonzero"
         id="path7820" /><path
         d="m 0.687,-0.035 c -0.005,0 -0.01,-10e-4 -0.014,-0.003 C 0.669,-0.039 0.665,-0.042 0.662,-0.045 L 0.581,-0.141 H 0.792 L 0.711,-0.045 C 0.708,-0.042 0.704,-0.039 0.7,-0.038 0.696,-0.036 0.691,-0.035 0.687,-0.035 Z"
         style="fill:#ee9889;fill-rule:nonzero"
         id="path7822" /><path
         d="m 0.915,-0.105 c 0.004,0 0.008,0.001 0.011,0.003 L 1.101,0.039 C 1.105,0.042 1.107,0.047 1.107,0.053 1.107,0.058 1.106,0.062 1.103,0.065 1.099,0.068 1.095,0.07 1.09,0.07 1.088,0.07 1.086,0.07 1.084,0.069 1.083,0.069 1.081,0.068 1.079,0.066 L 0.904,-0.074 C 0.899,-0.078 0.897,-0.082 0.897,-0.088 0.897,-0.093 0.899,-0.097 0.902,-0.1 0.906,-0.104 0.91,-0.105 0.915,-0.105 Z m -0.036,0.07 c 0.005,0 0.008,0.001 0.012,0.004 l 0.175,0.14 C 1.07,0.112 1.073,0.117 1.073,0.123 1.073,0.127 1.071,0.132 1.068,0.135 1.064,0.138 1.06,0.14 1.055,0.14 1.051,0.14 1.047,0.139 1.044,0.136 L 0.869,-0.004 C 0.864,-0.007 0.862,-0.012 0.862,-0.018 0.862,-0.022 0.864,-0.027 0.867,-0.03 0.87,-0.033 0.875,-0.035 0.879,-0.035 Z M 0.265,0.052 c 0,-0.005 0.002,-0.01 0.007,-0.013 l 0.175,-0.141 c 0.004,-0.002 0.007,-0.003 0.011,-0.003 0.005,0 0.01,0.001 0.013,0.005 0.003,0.003 0.005,0.007 0.005,0.012 0,0.006 -0.002,0.01 -0.007,0.014 L 0.294,0.066 C 0.292,0.068 0.291,0.069 0.289,0.069 0.287,0.07 0.285,0.07 0.283,0.07 0.278,0.07 0.274,0.068 0.27,0.065 0.267,0.061 0.265,0.057 0.265,0.052 Z M 0.3,0.123 C 0.3,0.117 0.303,0.112 0.307,0.109 l 0.175,-0.14 c 0.004,-0.003 0.007,-0.004 0.012,-0.004 0.005,0 0.009,0.002 0.012,0.005 0.004,0.003 0.005,0.008 0.005,0.012 0,0.006 -0.002,0.011 -0.007,0.014 L 0.329,0.136 C 0.326,0.139 0.322,0.14 0.318,0.14 0.313,0.14 0.309,0.138 0.305,0.135 0.302,0.132 0.3,0.127 0.3,0.123 Z"
         style="fill:#757575;fill-rule:nonzero"
         id="path7824" /><path
         d="m 0.494,-0.421 c 0.007,0 0.014,0.001 0.02,0.004 0.006,0.003 0.012,0.006 0.017,0.011 0.004,0.005 0.008,0.011 0.011,0.017 0.003,0.006 0.004,0.013 0.004,0.02 v 0.071 c 0,0.007 -0.001,0.014 -0.004,0.02 C 0.539,-0.272 0.535,-0.266 0.531,-0.261 0.526,-0.256 0.52,-0.253 0.514,-0.25 0.508,-0.247 0.501,-0.246 0.494,-0.246 0.486,-0.246 0.48,-0.247 0.473,-0.25 0.467,-0.253 0.461,-0.256 0.457,-0.261 0.452,-0.266 0.448,-0.272 0.445,-0.278 0.442,-0.284 0.441,-0.291 0.441,-0.298 v -0.071 c 0,-0.007 0.001,-0.014 0.004,-0.02 0.003,-0.006 0.007,-0.012 0.012,-0.017 0.004,-0.005 0.01,-0.008 0.016,-0.011 0.007,-0.003 0.013,-0.004 0.021,-0.004 z m 0.385,0 c 0.008,0 0.014,0.001 0.021,0.004 0.006,0.003 0.012,0.006 0.017,0.011 0.004,0.005 0.008,0.011 0.011,0.017 0.003,0.006 0.004,0.013 0.004,0.02 v 0.071 c 0,0.007 -0.001,0.014 -0.004,0.02 C 0.925,-0.272 0.921,-0.266 0.917,-0.261 0.912,-0.256 0.906,-0.253 0.9,-0.25 0.893,-0.247 0.887,-0.246 0.879,-0.246 0.872,-0.246 0.865,-0.247 0.859,-0.25 0.853,-0.253 0.847,-0.256 0.842,-0.261 0.837,-0.266 0.834,-0.272 0.831,-0.278 0.828,-0.284 0.827,-0.291 0.827,-0.298 v -0.071 c 0,-0.007 0.001,-0.014 0.004,-0.02 0.003,-0.006 0.006,-0.012 0.011,-0.017 0.005,-0.005 0.011,-0.008 0.017,-0.011 0.006,-0.003 0.013,-0.004 0.02,-0.004 z"
         style="fill-rule:nonzero"
         id="path7826" /></g></g></svg>
