<?xml version="1.0" encoding="UTF-8" standalone="no"?>
<svg
   width="14.73"
   height="16.860001"
   viewBox="0 0 14.73 16.860001"
   version="1.1"
   xml:space="preserve"
   style="clip-rule:evenodd;fill-rule:evenodd;stroke-linejoin:round;stroke-miterlimit:2"
   id="svg20568"
   sodipodi:docname="emojis.svg"
   xmlns:inkscape="http://www.inkscape.org/namespaces/inkscape"
   xmlns:sodipodi="http://sodipodi.sourceforge.net/DTD/sodipodi-0.dtd"
   xmlns="http://www.w3.org/2000/svg"
   xmlns:svg="http://www.w3.org/2000/svg"><defs
     id="defs20572" /><sodipodi:namedview
     id="namedview20570"
     pagecolor="#505050"
     bordercolor="#eeeeee"
     borderopacity="1"
     inkscape:pageshadow="0"
     inkscape:pageopacity="0"
     inkscape:pagecheckerboard="0" /><g
     transform="matrix(0.24,0,0,0.24,-217.0686,-387.7938)"
     id="g20566"><g
       transform="matrix(62.5,0,0,62.5,896.64,1672.87)"
       id="g7842"><path
         d="m 1.002,-0.913 c 0.015,0 0.029,0.003 0.041,0.009 0.013,0.005 0.024,0.013 0.034,0.022 0.009,0.01 0.017,0.021 0.022,0.034 0.006,0.013 0.008,0.026 0.008,0.041 v 0.016 l -0.16,0.322 c 0.009,0.023 0.015,0.045 0.017,0.066 0.002,0.021 0.003,0.043 0.003,0.065 v 0.04 c 0.016,0.012 0.031,0.026 0.044,0.042 0.013,0.016 0.024,0.033 0.033,0.051 0.009,0.018 0.016,0.037 0.021,0.057 0.005,0.02 0.008,0.04 0.008,0.06 0,0.022 -0.003,0.044 -0.008,0.064 0.013,0.01 0.023,0.022 0.031,0.033 0.008,0.012 0.011,0.026 0.011,0.044 0,0.013 -0.003,0.027 -0.009,0.039 C 1.092,0.105 1.084,0.115 1.072,0.123 1.072,0.135 1.07,0.146 1.065,0.156 1.061,0.167 1.055,0.176 1.047,0.184 1.039,0.192 1.029,0.199 1.019,0.203 1.008,0.208 0.997,0.21 0.985,0.21 0.976,0.21 0.968,0.209 0.96,0.207 0.953,0.204 0.945,0.201 0.938,0.197 0.931,0.193 0.925,0.188 0.918,0.183 L 0.893,0.162 C 0.879,0.166 0.866,0.17 0.852,0.172 0.838,0.174 0.824,0.175 0.81,0.175 0.786,0.175 0.762,0.172 0.738,0.166 0.731,0.176 0.723,0.185 0.714,0.191 0.706,0.197 0.697,0.201 0.687,0.204 0.677,0.207 0.667,0.209 0.656,0.21 0.646,0.211 0.634,0.211 0.623,0.211 H 0.62 c -0.013,0 -0.025,0 -0.036,0 C 0.572,0.21 0.561,0.208 0.551,0.206 0.54,0.203 0.53,0.198 0.521,0.192 0.512,0.186 0.503,0.177 0.495,0.166 0.471,0.172 0.447,0.175 0.423,0.175 0.409,0.175 0.395,0.174 0.381,0.172 0.367,0.17 0.353,0.166 0.339,0.162 L 0.334,0.166 C 0.328,0.172 0.322,0.177 0.315,0.182 0.309,0.188 0.302,0.192 0.295,0.197 0.288,0.201 0.281,0.204 0.273,0.207 0.265,0.209 0.257,0.21 0.248,0.21 0.236,0.21 0.224,0.208 0.214,0.204 0.203,0.199 0.194,0.193 0.186,0.185 0.178,0.177 0.172,0.168 0.167,0.157 0.162,0.146 0.16,0.135 0.16,0.123 0.149,0.114 0.14,0.104 0.134,0.092 0.128,0.08 0.125,0.067 0.125,0.052 0.125,0.035 0.129,0.021 0.136,0.009 0.144,-0.004 0.154,-0.014 0.168,-0.024 0.163,-0.044 0.16,-0.066 0.16,-0.088 c 0,-0.02 0.003,-0.041 0.007,-0.06 0.005,-0.02 0.012,-0.039 0.021,-0.057 0.009,-0.018 0.02,-0.035 0.033,-0.051 0.013,-0.016 0.028,-0.03 0.044,-0.042 v -0.04 c 0,-0.022 0.001,-0.044 0.003,-0.066 0.002,-0.021 0.008,-0.043 0.018,-0.065 L 0.125,-0.791 v -0.016 c 0,-0.015 0.003,-0.028 0.008,-0.041 0.006,-0.013 0.013,-0.024 0.023,-0.034 0.01,-0.009 0.021,-0.017 0.033,-0.022 0.013,-0.006 0.027,-0.009 0.041,-0.009 0.01,0 0.018,0.001 0.024,0.003 0.007,0.002 0.015,0.005 0.023,0.009 l 0.163,0.073 c 0.017,0.007 0.032,0.017 0.047,0.029 0.014,0.012 0.026,0.027 0.034,0.043 l 0.067,0.124 H 0.645 L 0.712,-0.758 C 0.72,-0.773 0.732,-0.787 0.747,-0.8 0.762,-0.812 0.778,-0.821 0.794,-0.829 L 0.956,-0.901 C 0.964,-0.905 0.971,-0.908 0.979,-0.91 0.986,-0.912 0.994,-0.913 1.002,-0.913 Z"
         style="fill-rule:nonzero"
         id="path7830" /><path
         d="M 0.546,0.105 V -0.07 H 0.687 V 0.105 C 0.687,0.115 0.683,0.123 0.676,0.13 0.669,0.137 0.661,0.14 0.651,0.14 H 0.581 C 0.572,0.14 0.563,0.137 0.556,0.13 0.549,0.123 0.546,0.114 0.546,0.105 Z"
         style="fill:#cccccc;fill-rule:nonzero"
         id="path7832" /><path
         d="m 0.721,-0.239 0.26,0.063 c 0.007,0.014 0.012,0.028 0.016,0.043 0.004,0.015 0.005,0.03 0.005,0.045 0,0.027 -0.005,0.052 -0.015,0.075 C 0.977,0.011 0.963,0.031 0.946,0.049 0.929,0.066 0.908,0.08 0.885,0.09 0.861,0.1 0.836,0.105 0.81,0.105 0.783,0.105 0.758,0.1 0.734,0.09 0.711,0.08 0.69,0.066 0.673,0.049 0.655,0.031 0.641,0.011 0.631,-0.013 0.621,-0.036 0.616,-0.061 0.616,-0.088 c 0,0.027 -0.005,0.052 -0.015,0.075 C 0.591,0.011 0.577,0.031 0.56,0.049 0.542,0.066 0.522,0.08 0.499,0.09 0.475,0.1 0.45,0.105 0.423,0.105 0.397,0.105 0.372,0.1 0.348,0.09 0.325,0.08 0.304,0.066 0.287,0.049 0.269,0.031 0.256,0.011 0.246,-0.013 0.236,-0.036 0.23,-0.061 0.23,-0.088 c 0,-0.031 0.008,-0.061 0.022,-0.088 l 0.26,-0.063 v -0.275 h 0.209 z"
         style="fill:#ffffff;fill-rule:nonzero"
         id="path7834" /><path
         d="m 1.038,-0.807 -0.182,0.169 0.013,0.169 c 0.019,0.031 0.028,0.064 0.028,0.1 v 0.109 c 0.018,0.01 0.034,0.022 0.048,0.036 0.015,0.014 0.027,0.03 0.036,0.048 H 0.774 C 0.762,-0.176 0.751,-0.178 0.74,-0.183 0.729,-0.187 0.72,-0.193 0.712,-0.201 0.704,-0.209 0.698,-0.219 0.693,-0.229 0.689,-0.24 0.687,-0.251 0.687,-0.263 V -0.421 C 0.687,-0.431 0.685,-0.44 0.681,-0.449 0.677,-0.457 0.672,-0.465 0.666,-0.471 0.659,-0.477 0.652,-0.482 0.644,-0.486 0.635,-0.489 0.626,-0.491 0.616,-0.491 c -0.01,0 -0.019,0.002 -0.027,0.005 -0.009,0.004 -0.016,0.009 -0.022,0.015 -0.007,0.006 -0.012,0.014 -0.015,0.022 -0.004,0.009 -0.006,0.018 -0.006,0.028 0,0.026 0,0.052 0,0.079 0,0.026 0,0.052 0,0.079 0,0.012 -0.002,0.023 -0.007,0.034 -0.004,0.01 -0.011,0.02 -0.019,0.028 -0.008,0.008 -0.017,0.014 -0.028,0.018 -0.01,0.005 -0.021,0.007 -0.034,0.007 H 0.252 C 0.261,-0.194 0.273,-0.21 0.287,-0.224 0.302,-0.238 0.318,-0.25 0.335,-0.26 v -0.109 c 0,-0.018 0.003,-0.035 0.008,-0.052 0.005,-0.017 0.012,-0.033 0.021,-0.048 V -0.643 L 0.195,-0.807 c 0,-0.01 0.004,-0.018 0.011,-0.025 0.006,-0.007 0.015,-0.01 0.024,-0.01 0.003,0 0.008,0.001 0.017,0.005 0.008,0.003 0.019,0.007 0.031,0.013 0.012,0.005 0.025,0.01 0.039,0.017 0.014,0.006 0.027,0.012 0.04,0.018 0.013,0.005 0.024,0.011 0.034,0.015 0.009,0.005 0.016,0.008 0.02,0.01 0.01,0.005 0.019,0.01 0.028,0.017 0.009,0.006 0.016,0.015 0.021,0.024 l 0.086,0.161 H 0.687 L 0.773,-0.723 C 0.778,-0.732 0.785,-0.741 0.794,-0.747 0.802,-0.754 0.812,-0.759 0.821,-0.764 0.825,-0.766 0.832,-0.769 0.842,-0.774 0.852,-0.778 0.863,-0.784 0.875,-0.79 0.888,-0.795 0.902,-0.801 0.916,-0.808 0.93,-0.814 0.943,-0.819 0.955,-0.825 0.967,-0.83 0.977,-0.834 0.986,-0.837 0.995,-0.841 1,-0.842 1.002,-0.842 c 0.01,0 0.019,0.003 0.025,0.01 0.007,0.007 0.011,0.015 0.011,0.025 z m -0.194,0.702 c 0.004,0 0.008,0.001 0.011,0.003 L 1.031,0.039 C 1.035,0.042 1.038,0.047 1.038,0.052 1.038,0.057 1.036,0.061 1.032,0.065 1.029,0.068 1.025,0.07 1.02,0.07 1.018,0.07 1.016,0.07 1.014,0.069 1.012,0.069 1.01,0.068 1.009,0.066 L 0.833,-0.074 C 0.829,-0.078 0.827,-0.082 0.827,-0.088 0.827,-0.092 0.828,-0.097 0.832,-0.1 0.836,-0.104 0.84,-0.105 0.844,-0.105 Z m -0.035,0.07 c 0.004,0 0.008,0.001 0.011,0.004 l 0.176,0.14 C 1,0.112 1.002,0.117 1.002,0.123 1.002,0.127 1.001,0.132 0.997,0.135 0.994,0.138 0.99,0.14 0.985,0.14 0.981,0.14 0.977,0.139 0.974,0.136 L 0.798,-0.004 C 0.794,-0.008 0.792,-0.013 0.792,-0.018 0.792,-0.023 0.794,-0.027 0.797,-0.03 0.8,-0.034 0.804,-0.035 0.809,-0.035 Z M 0.195,0.052 c 0,-0.006 0.002,-0.01 0.007,-0.013 l 0.175,-0.141 c 0.004,-0.002 0.007,-0.003 0.011,-0.003 0.005,0 0.009,0.001 0.012,0.005 0.004,0.003 0.006,0.008 0.006,0.012 0,0.006 -0.003,0.01 -0.007,0.014 L 0.224,0.066 C 0.221,0.068 0.22,0.069 0.219,0.069 0.217,0.07 0.215,0.07 0.213,0.07 0.208,0.07 0.204,0.068 0.2,0.065 0.197,0.061 0.195,0.057 0.195,0.052 Z M 0.23,0.123 c 0,-0.005 0.003,-0.01 0.007,-0.014 l 0.175,-0.14 c 0.003,-0.003 0.007,-0.004 0.011,-0.004 0.005,0 0.009,0.002 0.013,0.005 0.003,0.003 0.005,0.008 0.005,0.012 0,0.006 -0.002,0.011 -0.007,0.014 L 0.259,0.136 C 0.256,0.139 0.252,0.14 0.248,0.14 0.243,0.14 0.239,0.139 0.236,0.135 0.232,0.132 0.23,0.128 0.23,0.123 Z"
         style="fill:#757575;fill-rule:nonzero"
         id="path7836" /><path
         d="M 0.739,-0.559 0.808,-0.687 C 0.813,-0.697 0.82,-0.705 0.829,-0.712 0.838,-0.719 0.847,-0.725 0.856,-0.729 L 1.038,-0.807 0.869,-0.47 C 0.854,-0.493 0.835,-0.512 0.813,-0.528 0.79,-0.543 0.765,-0.553 0.739,-0.559 Z m -0.544,-0.248 0.181,0.078 c 0.01,0.004 0.019,0.01 0.028,0.017 0.009,0.007 0.016,0.015 0.021,0.025 l 0.069,0.128 C 0.467,-0.554 0.442,-0.544 0.42,-0.528 0.397,-0.513 0.379,-0.493 0.364,-0.47 Z m 0.421,0.772 C 0.612,-0.035 0.607,-0.036 0.603,-0.038 0.598,-0.039 0.595,-0.042 0.591,-0.045 L 0.511,-0.141 H 0.722 L 0.641,-0.045 C 0.638,-0.042 0.634,-0.039 0.63,-0.038 0.625,-0.036 0.621,-0.035 0.616,-0.035 Z"
         style="fill:#ee9889;fill-rule:nonzero"
         id="path7838" /><path
         d="m 0.423,-0.421 c 0.008,0 0.014,0.001 0.021,0.004 0.006,0.003 0.012,0.006 0.016,0.011 0.005,0.005 0.009,0.011 0.012,0.017 0.003,0.006 0.004,0.013 0.004,0.02 v 0.071 c 0,0.007 -0.001,0.014 -0.004,0.02 C 0.469,-0.272 0.465,-0.266 0.46,-0.261 0.456,-0.256 0.45,-0.253 0.444,-0.25 0.437,-0.247 0.431,-0.246 0.423,-0.246 0.416,-0.246 0.409,-0.247 0.403,-0.25 0.397,-0.253 0.391,-0.256 0.386,-0.261 0.381,-0.266 0.378,-0.272 0.375,-0.278 0.372,-0.284 0.371,-0.291 0.371,-0.298 v -0.071 c 0,-0.007 0.001,-0.014 0.004,-0.02 0.003,-0.006 0.006,-0.012 0.011,-0.017 0.005,-0.005 0.011,-0.008 0.017,-0.011 0.006,-0.003 0.013,-0.004 0.02,-0.004 z m 0.387,0 c 0.007,0 0.013,0.001 0.02,0.004 0.006,0.003 0.012,0.006 0.016,0.011 0.005,0.005 0.009,0.011 0.012,0.017 0.002,0.006 0.004,0.013 0.004,0.02 v 0.071 c 0,0.007 -0.002,0.014 -0.004,0.02 C 0.855,-0.272 0.851,-0.266 0.846,-0.261 0.842,-0.256 0.836,-0.253 0.83,-0.25 0.823,-0.247 0.817,-0.246 0.81,-0.246 0.802,-0.246 0.796,-0.247 0.789,-0.25 0.783,-0.253 0.777,-0.256 0.772,-0.261 0.768,-0.266 0.764,-0.272 0.761,-0.278 0.758,-0.284 0.757,-0.291 0.757,-0.298 v -0.071 c 0,-0.007 0.001,-0.014 0.004,-0.02 0.003,-0.006 0.007,-0.012 0.011,-0.017 0.005,-0.005 0.011,-0.008 0.017,-0.011 0.007,-0.003 0.013,-0.004 0.021,-0.004 z"
         style="fill-rule:nonzero"
         id="path7840" /></g></g></svg>
