<?xml version="1.0" encoding="UTF-8" standalone="no"?>
<svg
   width="16.844999"
   height="16.844999"
   viewBox="0 0 16.844999 16.844999"
   version="1.1"
   xml:space="preserve"
   style="clip-rule:evenodd;fill-rule:evenodd;stroke-linejoin:round;stroke-miterlimit:2"
   id="svg20568"
   sodipodi:docname="emojis.svg"
   xmlns:inkscape="http://www.inkscape.org/namespaces/inkscape"
   xmlns:sodipodi="http://sodipodi.sourceforge.net/DTD/sodipodi-0.dtd"
   xmlns="http://www.w3.org/2000/svg"
   xmlns:svg="http://www.w3.org/2000/svg"><defs
     id="defs20572" /><sodipodi:namedview
     id="namedview20570"
     pagecolor="#505050"
     bordercolor="#eeeeee"
     borderopacity="1"
     inkscape:pageshadow="0"
     inkscape:pageopacity="0"
     inkscape:pagecheckerboard="0" /><g
     transform="matrix(0.24,0,0,0.24,-316.371,-387.7938)"
     id="g20566"><g
       transform="matrix(62.5,0,0,62.5,1310.4,1672.87)"
       id="g7904"><path
         d="m 1.248,-0.685 c 0,0.037 -0.007,0.07 -0.022,0.099 -0.015,0.029 -0.036,0.055 -0.062,0.08 L 1.248,-0.21 H 1.14 C 1.136,-0.179 1.126,-0.148 1.108,-0.12 1.091,-0.092 1.07,-0.068 1.044,-0.049 1.031,-0.04 1.018,-0.031 1.005,-0.022 0.992,-0.014 0.979,-0.006 0.965,0.003 0.962,0.023 0.954,0.041 0.942,0.057 0.929,0.073 0.914,0.086 0.896,0.094 0.884,0.112 0.871,0.128 0.856,0.143 0.841,0.157 0.824,0.169 0.806,0.179 0.788,0.189 0.769,0.197 0.749,0.202 0.728,0.208 0.708,0.21 0.687,0.21 0.665,0.21 0.645,0.208 0.625,0.202 0.604,0.197 0.585,0.189 0.567,0.179 0.549,0.169 0.532,0.157 0.517,0.143 0.502,0.128 0.489,0.112 0.478,0.094 0.459,0.086 0.444,0.073 0.431,0.057 0.419,0.041 0.411,0.023 0.408,0.003 0.385,-0.011 0.364,-0.025 0.345,-0.038 0.326,-0.052 0.308,-0.066 0.293,-0.082 0.278,-0.098 0.265,-0.116 0.255,-0.136 0.245,-0.157 0.237,-0.181 0.233,-0.21 H 0.125 L 0.209,-0.506 C 0.183,-0.53 0.162,-0.557 0.147,-0.586 0.132,-0.615 0.125,-0.648 0.125,-0.685 c 0,-0.031 0.006,-0.06 0.018,-0.088 0.012,-0.028 0.028,-0.052 0.049,-0.072 0.021,-0.021 0.045,-0.037 0.073,-0.05 0.027,-0.012 0.057,-0.018 0.088,-0.018 0.031,0 0.06,0.006 0.088,0.018 0.028,0.011 0.052,0.028 0.074,0.049 l 0.003,0.004 H 0.855 L 0.858,-0.846 C 0.88,-0.867 0.905,-0.884 0.932,-0.895 0.96,-0.907 0.989,-0.913 1.02,-0.913 c 0.031,0 0.061,0.006 0.088,0.018 0.028,0.013 0.052,0.029 0.073,0.05 0.021,0.02 0.037,0.044 0.049,0.072 0.012,0.028 0.018,0.057 0.018,0.088 z"
         style="fill-rule:nonzero"
         id="path7892" /><path
         d="m 1.02,-0.842 c 0.021,0 0.042,0.004 0.061,0.012 0.019,0.008 0.036,0.02 0.05,0.034 0.015,0.014 0.026,0.031 0.034,0.05 0.009,0.02 0.013,0.04 0.013,0.062 0,0.017 -0.002,0.031 -0.007,0.045 -0.004,0.013 -0.01,0.025 -0.017,0.037 -0.007,0.011 -0.016,0.022 -0.025,0.032 -0.01,0.01 -0.02,0.02 -0.03,0.03 l -0.014,0.014 0.07,0.245 H 1.073 v 0.035 c 0,0.014 -0.002,0.027 -0.005,0.041 -0.003,0.013 -0.008,0.026 -0.014,0.038 -0.006,0.012 -0.014,0.024 -0.023,0.034 -0.008,0.011 -0.018,0.02 -0.03,0.028 L 0.792,0.035 H 0.581 L 0.372,-0.105 C 0.36,-0.113 0.35,-0.122 0.341,-0.133 0.333,-0.143 0.325,-0.155 0.319,-0.167 0.313,-0.179 0.308,-0.192 0.305,-0.205 0.302,-0.219 0.3,-0.232 0.3,-0.246 V -0.281 H 0.218 L 0.288,-0.526 0.274,-0.54 C 0.264,-0.55 0.254,-0.56 0.244,-0.57 0.235,-0.58 0.226,-0.591 0.219,-0.602 0.212,-0.614 0.206,-0.626 0.202,-0.639 0.197,-0.653 0.195,-0.667 0.195,-0.684 c 0,-0.022 0.004,-0.042 0.013,-0.062 0.008,-0.019 0.019,-0.036 0.034,-0.05 0.014,-0.014 0.031,-0.026 0.05,-0.034 0.019,-0.008 0.039,-0.012 0.061,-0.012 0.016,0 0.029,0.001 0.042,0.005 0.012,0.003 0.023,0.008 0.033,0.014 0.011,0.006 0.021,0.014 0.031,0.022 0.009,0.009 0.019,0.019 0.03,0.029 h 0.395 c 0.01,-0.01 0.02,-0.02 0.03,-0.029 0.009,-0.008 0.02,-0.016 0.03,-0.022 0.011,-0.006 0.022,-0.011 0.034,-0.014 0.012,-0.004 0.026,-0.005 0.042,-0.005 z"
         style="fill:#8e562e;fill-rule:nonzero"
         id="path7894" /><path
         d="m 0.687,-0.456 c 0.011,0 0.02,0.004 0.026,0.013 l 0.161,0.202 c 0.008,0.01 0.013,0.02 0.017,0.031 0.004,0.011 0.006,0.023 0.006,0.035 v 0.157 c 0,0.007 -0.001,0.014 -0.004,0.02 C 0.89,0.008 0.887,0.014 0.882,0.018 0.878,0.023 0.872,0.027 0.866,0.03 0.86,0.033 0.854,0.034 0.847,0.035 0.84,0.051 0.831,0.065 0.82,0.078 0.809,0.091 0.797,0.102 0.783,0.111 0.769,0.12 0.753,0.128 0.737,0.133 0.721,0.138 0.704,0.14 0.687,0.14 0.669,0.14 0.653,0.138 0.636,0.133 0.62,0.128 0.605,0.12 0.591,0.111 0.576,0.102 0.564,0.091 0.553,0.078 0.542,0.065 0.533,0.05 0.526,0.035 0.519,0.034 0.513,0.033 0.507,0.03 0.501,0.027 0.495,0.023 0.491,0.018 0.486,0.014 0.483,0.008 0.48,0.002 0.477,-0.004 0.476,-0.011 0.476,-0.018 v -0.157 c 0,-0.012 0.002,-0.024 0.006,-0.035 0.004,-0.011 0.01,-0.021 0.017,-0.031 L 0.66,-0.443 c 0.007,-0.009 0.015,-0.013 0.027,-0.013 z"
         style="fill:#f7b189;fill-rule:nonzero"
         id="path7896" /><path
         d="M 0.767,0.032 C 0.757,0.044 0.745,0.053 0.731,0.06 0.717,0.067 0.702,0.07 0.687,0.07 0.671,0.07 0.656,0.067 0.642,0.06 0.628,0.053 0.616,0.044 0.606,0.032 0.617,0.029 0.628,0.024 0.637,0.018 0.647,0.012 0.655,0.004 0.662,-0.004 c 0.007,-0.009 0.013,-0.018 0.017,-0.029 0.004,-0.011 0.007,-0.022 0.008,-0.033 0,0.011 0.002,0.023 0.006,0.033 0.005,0.011 0.01,0.021 0.017,0.029 0.008,0.009 0.016,0.016 0.026,0.022 0.009,0.006 0.02,0.011 0.031,0.014 z"
         style="fill:#af0d1a;fill-rule:nonzero"
         id="path7898" /><path
         d="m 0.494,-0.491 c 0.007,0 0.014,0.001 0.02,0.004 0.006,0.003 0.012,0.007 0.017,0.011 0.005,0.005 0.008,0.011 0.011,0.017 0.003,0.007 0.004,0.013 0.004,0.021 v 0.069 c 0,0.008 -0.001,0.014 -0.004,0.021 C 0.539,-0.342 0.536,-0.336 0.531,-0.332 0.526,-0.327 0.52,-0.323 0.514,-0.32 0.508,-0.317 0.501,-0.316 0.494,-0.316 0.486,-0.316 0.479,-0.317 0.473,-0.32 0.467,-0.323 0.461,-0.327 0.456,-0.331 0.452,-0.336 0.448,-0.342 0.445,-0.348 0.442,-0.354 0.441,-0.361 0.441,-0.369 v -0.069 c 0,-0.008 0.001,-0.014 0.004,-0.021 0.003,-0.006 0.007,-0.012 0.011,-0.017 0.005,-0.005 0.011,-0.008 0.017,-0.011 0.006,-0.003 0.013,-0.004 0.021,-0.004 z m 0.385,0 c 0.008,0 0.014,0.001 0.021,0.004 0.006,0.003 0.012,0.006 0.017,0.011 0.004,0.005 0.008,0.011 0.011,0.017 0.003,0.007 0.004,0.013 0.004,0.021 v 0.069 c 0,0.008 -0.001,0.015 -0.004,0.021 C 0.925,-0.342 0.921,-0.336 0.917,-0.331 0.912,-0.327 0.906,-0.323 0.9,-0.32 0.893,-0.317 0.887,-0.316 0.879,-0.316 0.872,-0.316 0.865,-0.317 0.859,-0.32 0.852,-0.323 0.847,-0.327 0.842,-0.332 0.838,-0.336 0.834,-0.342 0.831,-0.348 0.829,-0.355 0.827,-0.361 0.827,-0.369 v -0.069 c 0,-0.008 0.002,-0.014 0.004,-0.021 0.003,-0.006 0.007,-0.012 0.011,-0.017 0.005,-0.004 0.01,-0.008 0.017,-0.011 0.006,-0.003 0.013,-0.004 0.02,-0.004 z M 0.687,-0.07 C 0.682,-0.07 0.677,-0.071 0.673,-0.073 0.668,-0.074 0.665,-0.077 0.662,-0.081 L 0.581,-0.175 H 0.792 L 0.711,-0.081 C 0.708,-0.077 0.705,-0.074 0.7,-0.073 0.696,-0.071 0.691,-0.07 0.687,-0.07 Z"
         style="fill-rule:nonzero"
         id="path7900" /><path
         d="m 0.353,-0.772 c 0.011,0 0.022,0.002 0.03,0.005 0.009,0.004 0.017,0.009 0.025,0.015 0.007,0.005 0.014,0.012 0.021,0.019 0.007,0.007 0.014,0.014 0.021,0.022 L 0.326,-0.587 C 0.319,-0.594 0.311,-0.601 0.304,-0.608 0.297,-0.615 0.29,-0.622 0.284,-0.63 0.279,-0.638 0.274,-0.646 0.271,-0.655 0.267,-0.664 0.265,-0.674 0.265,-0.685 c 0,-0.012 0.002,-0.023 0.007,-0.034 0.005,-0.01 0.011,-0.02 0.019,-0.028 0.008,-0.007 0.017,-0.014 0.028,-0.018 0.01,-0.005 0.022,-0.007 0.034,-0.007 z m 0.667,0 c 0.012,0 0.023,0.002 0.034,0.007 0.011,0.004 0.02,0.011 0.028,0.018 0.008,0.008 0.015,0.018 0.019,0.028 0.005,0.011 0.007,0.022 0.007,0.034 0,0.011 -0.002,0.021 -0.005,0.03 -0.004,0.009 -0.009,0.017 -0.015,0.025 -0.005,0.008 -0.012,0.015 -0.019,0.022 -0.008,0.007 -0.015,0.014 -0.022,0.021 L 0.923,-0.711 C 0.93,-0.719 0.937,-0.726 0.944,-0.733 0.951,-0.74 0.958,-0.747 0.965,-0.752 0.973,-0.758 0.981,-0.763 0.99,-0.767 0.999,-0.77 1.009,-0.772 1.02,-0.772 Z"
         style="fill:#f7894a;fill-rule:nonzero"
         id="path7902" /></g></g></svg>
