<?xml version="1.0" encoding="UTF-8" standalone="no"?>
<svg
   width="16.860001"
   height="15.78"
   viewBox="0 0 16.860001 15.78"
   version="1.1"
   xml:space="preserve"
   style="clip-rule:evenodd;fill-rule:evenodd;stroke-linejoin:round;stroke-miterlimit:2"
   id="svg20568"
   sodipodi:docname="emojis.svg"
   xmlns:inkscape="http://www.inkscape.org/namespaces/inkscape"
   xmlns:sodipodi="http://sodipodi.sourceforge.net/DTD/sodipodi-0.dtd"
   xmlns="http://www.w3.org/2000/svg"
   xmlns:svg="http://www.w3.org/2000/svg"><defs
     id="defs20572" /><sodipodi:namedview
     id="namedview20570"
     pagecolor="#505050"
     bordercolor="#eeeeee"
     borderopacity="1"
     inkscape:pageshadow="0"
     inkscape:pageopacity="0"
     inkscape:pagecheckerboard="0" /><g
     transform="matrix(0.24,0,0,0.24,-377.6742,-388.3338)"
     id="g20566"><g
       transform="matrix(62.5,0,0,62.5,1565.83,1672.87)"
       id="g7938"><path
         d="m 0.86,-0.84 c 0.019,-0.012 0.039,-0.022 0.06,-0.028 0.021,-0.006 0.043,-0.009 0.065,-0.009 h 0.263 l 0.001,0.048 c 0,0.012 -0.001,0.023 -0.002,0.033 -0.001,0.011 -0.003,0.021 -0.005,0.031 -0.003,0.01 -0.006,0.019 -0.011,0.029 -0.005,0.009 -0.011,0.018 -0.018,0.028 v 0.059 c 0,0.033 -0.007,0.065 -0.021,0.095 -0.013,0.03 -0.033,0.056 -0.058,0.077 0.009,0.022 0.018,0.043 0.027,0.065 0.01,0.021 0.018,0.043 0.026,0.065 0.007,0.022 0.014,0.044 0.019,0.067 0.004,0.023 0.007,0.046 0.007,0.07 0,0.035 -0.005,0.069 -0.014,0.102 C 1.19,-0.075 1.177,-0.045 1.16,-0.016 1.143,0.013 1.123,0.039 1.099,0.062 1.076,0.085 1.05,0.106 1.021,0.122 0.993,0.139 0.962,0.152 0.929,0.161 0.896,0.171 0.862,0.175 0.827,0.175 H 0.546 C 0.51,0.175 0.476,0.171 0.444,0.161 0.411,0.152 0.38,0.139 0.352,0.122 0.323,0.106 0.297,0.085 0.273,0.062 0.25,0.039 0.23,0.013 0.213,-0.016 0.196,-0.045 0.183,-0.075 0.174,-0.108 0.165,-0.141 0.16,-0.175 0.16,-0.21 0.16,-0.235 0.163,-0.258 0.167,-0.281 0.172,-0.304 0.178,-0.326 0.186,-0.347 0.193,-0.369 0.201,-0.391 0.211,-0.412 0.22,-0.433 0.23,-0.455 0.239,-0.477 0.214,-0.498 0.194,-0.524 0.181,-0.554 0.167,-0.584 0.16,-0.616 0.16,-0.649 V -0.708 C 0.153,-0.718 0.147,-0.727 0.142,-0.736 0.137,-0.746 0.133,-0.755 0.131,-0.765 0.128,-0.775 0.127,-0.786 0.126,-0.796 0.125,-0.807 0.125,-0.818 0.125,-0.829 v -0.048 h 0.263 c 0.022,0 0.044,0.003 0.065,0.009 0.021,0.006 0.041,0.016 0.06,0.028 0.027,-0.012 0.055,-0.022 0.085,-0.028 0.029,-0.006 0.059,-0.009 0.089,-0.009 0.029,0 0.059,0.003 0.088,0.009 0.03,0.006 0.058,0.016 0.085,0.028 z"
         style="fill-rule:nonzero"
         id="path7926" /><path
         d="m 0.868,-0.756 c 0.005,0 0.013,0.001 0.024,0.003 0.011,0.002 0.024,0.004 0.037,0.006 0.014,0.002 0.028,0.004 0.043,0.007 0.015,0.003 0.028,0.006 0.041,0.009 0.013,0.003 0.024,0.007 0.033,0.01 0.009,0.004 0.014,0.007 0.016,0.011 0.002,0.004 0.003,0.008 0.003,0.012 0.001,0.004 0.001,0.009 0.001,0.012 0,0.031 -0.002,0.061 -0.006,0.092 -0.004,0.03 -0.009,0.06 -0.014,0.09 l 0.072,0.171 c 0.016,0.039 0.025,0.08 0.025,0.123 0,0.043 -0.009,0.084 -0.025,0.122 C 1.101,-0.049 1.079,-0.016 1.05,0.013 1.022,0.041 0.988,0.064 0.95,0.08 0.911,0.097 0.87,0.105 0.827,0.105 H 0.546 C 0.502,0.105 0.461,0.097 0.423,0.08 0.385,0.064 0.351,0.041 0.323,0.013 0.294,-0.016 0.272,-0.049 0.255,-0.088 0.239,-0.126 0.23,-0.167 0.23,-0.21 c 0,-0.023 0.003,-0.044 0.007,-0.063 0.004,-0.02 0.01,-0.04 0.019,-0.061 l 0.071,-0.17 C 0.323,-0.53 0.32,-0.557 0.317,-0.583 0.315,-0.609 0.313,-0.636 0.313,-0.663 c 0,-0.006 0.001,-0.013 0.001,-0.02 0.001,-0.007 0.002,-0.014 0.005,-0.02 0.001,-0.003 0.005,-0.006 0.011,-0.009 0.006,-0.004 0.014,-0.007 0.023,-0.01 0.009,-0.003 0.019,-0.005 0.03,-0.008 0.011,-0.003 0.021,-0.006 0.031,-0.008 0.011,-0.002 0.02,-0.005 0.028,-0.006 0.009,-0.002 0.015,-0.003 0.02,-0.004 0.001,0 0.003,0 0.008,-0.001 C 0.474,-0.75 0.479,-0.75 0.483,-0.751 0.488,-0.752 0.493,-0.753 0.497,-0.754 0.501,-0.755 0.504,-0.756 0.504,-0.756 0.512,-0.76 0.52,-0.764 0.527,-0.768 0.534,-0.772 0.542,-0.776 0.55,-0.779 0.572,-0.789 0.594,-0.796 0.617,-0.8 c 0.023,-0.005 0.046,-0.007 0.07,-0.007 0.032,0 0.063,0.004 0.094,0.013 0.03,0.008 0.059,0.021 0.087,0.038 z"
         style="fill:#cccccc;fill-rule:nonzero"
         id="path7928" /><path
         d="m 0.757,-0.279 c 0.02,0.002 0.038,0.008 0.055,0.017 0.017,0.009 0.032,0.02 0.045,0.034 0.012,0.014 0.022,0.03 0.029,0.048 0.007,0.018 0.011,0.037 0.011,0.057 0,0.022 -0.004,0.042 -0.012,0.061 -0.009,0.02 -0.02,0.036 -0.034,0.051 C 0.836,0.003 0.82,0.014 0.801,0.023 0.781,0.031 0.761,0.035 0.739,0.035 H 0.634 C 0.612,0.035 0.592,0.031 0.573,0.023 0.553,0.014 0.537,0.003 0.522,-0.011 0.508,-0.026 0.497,-0.042 0.489,-0.062 0.48,-0.081 0.476,-0.101 0.476,-0.123 c 0,-0.02 0.004,-0.039 0.011,-0.057 0.007,-0.018 0.017,-0.034 0.029,-0.048 0.013,-0.014 0.028,-0.025 0.045,-0.034 0.017,-0.009 0.035,-0.015 0.055,-0.017 v -0.283 c 0,-0.009 0.002,-0.018 0.006,-0.027 0.004,-0.008 0.009,-0.016 0.015,-0.022 0.006,-0.006 0.014,-0.011 0.022,-0.015 0.009,-0.004 0.018,-0.006 0.028,-0.006 0.009,0 0.018,0.002 0.027,0.006 0.008,0.004 0.016,0.009 0.022,0.015 0.006,0.006 0.011,0.014 0.015,0.022 0.004,0.009 0.006,0.018 0.006,0.027 z"
         style="fill:#ffffff;fill-rule:nonzero"
         id="path7930" /><path
         d="m 0.687,-0.421 c 0.014,0 0.028,0.002 0.041,0.008 0.012,0.005 0.023,0.013 0.033,0.023 0.01,0.009 0.017,0.02 0.023,0.033 0.005,0.013 0.008,0.026 0.008,0.041 v 0.112 L 0.75,-0.108 C 0.747,-0.104 0.742,-0.102 0.736,-0.1 0.73,-0.098 0.724,-0.096 0.718,-0.095 c -0.007,0.001 -0.013,0.001 -0.02,0.001 -0.006,0.001 -0.011,0.001 -0.016,0.001 -0.005,0 -0.01,0 -0.015,-0.001 -0.005,0 -0.01,0 -0.016,-0.001 C 0.646,-0.096 0.641,-0.097 0.636,-0.099 0.631,-0.1 0.627,-0.103 0.624,-0.105 L 0.581,-0.204 v -0.112 c 0,-0.015 0.003,-0.028 0.008,-0.041 C 0.595,-0.37 0.602,-0.381 0.612,-0.39 0.622,-0.4 0.633,-0.408 0.646,-0.413 0.658,-0.419 0.672,-0.421 0.687,-0.421 Z M 0.388,-0.807 c 0.022,0 0.043,0.004 0.064,0.013 0.02,0.008 0.037,0.021 0.052,0.038 -0.008,0.005 -0.017,0.011 -0.026,0.017 -0.009,0.006 -0.017,0.013 -0.024,0.02 -0.002,0.001 -0.003,0.002 -0.003,0.003 -0.001,0.001 -0.002,0.002 -0.003,0.003 l -0.097,0.041 v 0.104 L 0.327,-0.504 C 0.312,-0.51 0.299,-0.518 0.287,-0.528 0.275,-0.538 0.265,-0.549 0.257,-0.562 0.248,-0.575 0.242,-0.588 0.237,-0.603 0.233,-0.618 0.23,-0.633 0.23,-0.649 V -0.737 C 0.22,-0.746 0.212,-0.756 0.205,-0.768 0.199,-0.781 0.195,-0.793 0.195,-0.807 Z m 0.597,0 h 0.193 c 0,0.014 -0.004,0.026 -0.01,0.039 -0.007,0.012 -0.015,0.022 -0.025,0.031 v 0.088 c 0,0.016 -0.003,0.031 -0.007,0.046 -0.005,0.015 -0.011,0.028 -0.02,0.041 -0.008,0.013 -0.018,0.024 -0.03,0.034 -0.012,0.01 -0.025,0.018 -0.04,0.024 L 1.019,-0.568 1.036,-0.691 0.925,-0.713 C 0.907,-0.73 0.889,-0.744 0.869,-0.756 0.884,-0.773 0.901,-0.786 0.921,-0.794 0.942,-0.803 0.963,-0.807 0.985,-0.807 Z"
         style="fill:#757575;fill-rule:nonzero"
         id="path7932" /><path
         d="M 1.019,-0.568 C 1.013,-0.583 1.007,-0.597 1,-0.609 0.994,-0.622 0.988,-0.634 0.98,-0.646 0.973,-0.658 0.965,-0.669 0.956,-0.68 0.947,-0.691 0.937,-0.702 0.925,-0.713 0.933,-0.721 0.942,-0.727 0.953,-0.731 0.963,-0.735 0.974,-0.737 0.985,-0.737 h 0.088 v 0.088 c 0,0.017 -0.005,0.033 -0.015,0.048 -0.01,0.015 -0.023,0.025 -0.039,0.033 z m -0.665,0 C 0.338,-0.576 0.325,-0.586 0.315,-0.601 0.305,-0.616 0.3,-0.632 0.3,-0.649 v -0.088 h 0.088 c 0.012,0 0.022,0.002 0.032,0.006 0.011,0.004 0.02,0.01 0.028,0.018 C 0.437,-0.702 0.426,-0.691 0.417,-0.68 0.408,-0.669 0.4,-0.658 0.393,-0.646 0.385,-0.634 0.379,-0.622 0.373,-0.609 0.366,-0.597 0.36,-0.583 0.354,-0.568 Z"
         style="fill:#ee9889;fill-rule:nonzero"
         id="path7934" /><path
         d="m 0.458,-0.457 c 0.008,0 0.014,0.002 0.021,0.005 0.006,0.002 0.012,0.006 0.017,0.011 0.004,0.005 0.008,0.011 0.011,0.017 0.003,0.006 0.004,0.013 0.004,0.02 v 0.071 c 0,0.007 -0.001,0.013 -0.004,0.02 -0.003,0.006 -0.007,0.012 -0.011,0.017 -0.005,0.004 -0.011,0.008 -0.017,0.011 -0.007,0.003 -0.013,0.004 -0.021,0.004 -0.007,0 -0.014,-10e-4 -0.02,-0.004 C 0.431,-0.288 0.426,-0.291 0.421,-0.296 0.416,-0.301 0.413,-0.306 0.41,-0.313 0.407,-0.319 0.406,-0.326 0.406,-0.333 v -0.071 c 0,-0.007 10e-4,-0.014 0.004,-0.02 0.003,-0.006 0.007,-0.012 0.011,-0.017 0.005,-0.005 0.011,-0.009 0.017,-0.011 0.007,-0.003 0.013,-0.005 0.02,-0.005 z m 0.457,0 c 0.007,0 0.013,0.002 0.02,0.005 0.006,0.002 0.012,0.006 0.017,0.011 0.005,0.005 0.008,0.011 0.011,0.017 0.003,0.006 0.004,0.013 0.004,0.02 v 0.071 c 0,0.007 -0.001,0.014 -0.004,0.02 -0.003,0.007 -0.006,0.012 -0.011,0.017 -0.005,0.005 -0.01,0.008 -0.017,0.011 -0.006,0.003 -0.013,0.004 -0.02,0.004 -0.008,0 -0.014,-10e-4 -0.021,-0.004 C 0.888,-0.288 0.882,-0.292 0.877,-0.296 0.873,-0.301 0.869,-0.307 0.866,-0.313 0.863,-0.32 0.862,-0.326 0.862,-0.333 v -0.071 c 0,-0.007 0.001,-0.014 0.004,-0.02 0.003,-0.006 0.007,-0.012 0.011,-0.017 0.005,-0.005 0.011,-0.009 0.017,-0.011 0.007,-0.003 0.013,-0.005 0.021,-0.005 z m -0.334,0.253 0.072,0.085 c 0.005,0.004 0.01,0.008 0.015,0.01 0.006,0.002 0.012,0.004 0.019,0.004 0.006,0 0.012,-0.002 0.018,-0.004 0.005,-0.002 0.01,-0.006 0.015,-0.01 l 0.072,-0.085 v 0.028 c 0,0.015 -0.003,0.029 -0.008,0.041 C 0.778,-0.122 0.771,-0.111 0.761,-0.101 0.751,-0.092 0.74,-0.084 0.728,-0.079 0.715,-0.073 0.701,-0.07 0.687,-0.07 0.672,-0.07 0.658,-0.073 0.646,-0.079 0.633,-0.084 0.622,-0.092 0.612,-0.101 0.602,-0.111 0.595,-0.122 0.589,-0.135 0.584,-0.147 0.581,-0.161 0.581,-0.176 Z"
         style="fill-rule:nonzero"
         id="path7936" /></g></g></svg>
