<?xml version="1.0" encoding="UTF-8" standalone="no"?>
<svg
   width="16.844999"
   height="16.844999"
   viewBox="0 0 16.844999 16.844999"
   version="1.1"
   xml:space="preserve"
   style="clip-rule:evenodd;fill-rule:evenodd;stroke-linejoin:round;stroke-miterlimit:2"
   id="svg20568"
   sodipodi:docname="emojis.svg"
   xmlns:inkscape="http://www.inkscape.org/namespaces/inkscape"
   xmlns:sodipodi="http://sodipodi.sourceforge.net/DTD/sodipodi-0.dtd"
   xmlns="http://www.w3.org/2000/svg"
   xmlns:svg="http://www.w3.org/2000/svg"><defs
     id="defs20572" /><sodipodi:namedview
     id="namedview20570"
     pagecolor="#505050"
     bordercolor="#eeeeee"
     borderopacity="1"
     inkscape:pageshadow="0"
     inkscape:pageopacity="0"
     inkscape:pagecheckerboard="0" /><g
     transform="matrix(0.24,0,0,0.24,-460.0566,-387.7938)"
     id="g20566"><g
       transform="matrix(62.5,0,0,62.5,1909.09,1672.87)"
       id="g8006"><path
         d="M 0.651,0.21 V 0.105 C 0.651,0.093 0.653,0.082 0.657,0.07 H 0.618 L 0.557,0.21 H 0.335 V 0.105 C 0.335,0.094 0.337,0.083 0.341,0.073 0.344,0.063 0.349,0.053 0.355,0.044 0.361,0.036 0.369,0.028 0.377,0.021 0.386,0.015 0.395,0.01 0.406,0.006 V 0 c 0,-0.01 -0.004,-0.018 -0.01,-0.025 C 0.389,-0.032 0.38,-0.035 0.371,-0.035 H 0.265 C 0.246,-0.035 0.228,-0.039 0.211,-0.046 0.194,-0.054 0.179,-0.064 0.166,-0.077 0.153,-0.089 0.143,-0.104 0.136,-0.121 0.129,-0.138 0.125,-0.157 0.125,-0.176 v -0.029 l 0.13,-0.13 c 0.018,-0.019 0.039,-0.032 0.061,-0.04 0.023,-0.007 0.047,-0.011 0.072,-0.011 0.022,0 0.043,0.003 0.063,0.01 0.021,0.007 0.04,0.017 0.057,0.03 l 0.02,0.018 c 0.006,0.005 0.011,0.009 0.016,0.01 0.005,0.001 0.011,0.002 0.019,0.002 0.009,0 0.016,-0.001 0.023,-0.004 0.006,-0.003 0.012,-0.007 0.018,-0.013 l 0.004,-0.003 c 0.039,-0.039 0.083,-0.068 0.131,-0.089 0.049,-0.021 0.101,-0.031 0.156,-0.031 0.022,0 0.044,0.002 0.066,0.007 C 0.955,-0.462 0.945,-0.472 0.932,-0.48 0.92,-0.487 0.906,-0.491 0.891,-0.491 H 0.546 C 0.517,-0.491 0.49,-0.497 0.464,-0.508 0.439,-0.519 0.416,-0.534 0.397,-0.553 0.378,-0.572 0.363,-0.595 0.352,-0.62 0.341,-0.646 0.335,-0.673 0.335,-0.702 v -0.07 h 0.184 c 0.014,0 0.028,-0.003 0.04,-0.008 0.012,-0.006 0.023,-0.013 0.034,-0.023 0.038,-0.036 0.08,-0.063 0.124,-0.082 0.044,-0.018 0.092,-0.028 0.145,-0.028 0.035,0 0.069,0.005 0.102,0.014 0.033,0.009 0.064,0.022 0.092,0.039 0.029,0.017 0.055,0.037 0.079,0.06 0.023,0.024 0.043,0.05 0.06,0.078 0.017,0.029 0.03,0.059 0.039,0.092 0.009,0.033 0.014,0.067 0.014,0.102 0,0.046 -0.008,0.09 -0.023,0.133 -0.015,0.043 -0.038,0.081 -0.067,0.116 0.013,0.034 0.02,0.068 0.02,0.103 0,0.036 -0.006,0.071 -0.018,0.105 -0.012,0.034 -0.029,0.064 -0.053,0.092 V 0.086 L 1.046,0.21 Z"
         style="fill-rule:nonzero"
         id="path7994" /><path
         d="M 0.792,0.07 V -0.141 H 0.967 L 0.827,0.14 H 0.722 V 0.105 C 0.722,0.097 0.723,0.091 0.726,0.086 0.729,0.081 0.733,0.078 0.738,0.076 0.743,0.073 0.749,0.072 0.755,0.071 0.761,0.071 0.767,0.07 0.773,0.07 Z"
         style="fill:#383838;fill-rule:nonzero"
         id="path7996" /><path
         d="m 1.073,-0.292 c 0.023,0.036 0.034,0.075 0.034,0.116 0,0.032 -0.006,0.063 -0.018,0.092 -0.012,0.03 -0.029,0.056 -0.051,0.078 V 0.07 L 1.002,0.14 H 0.897 V 0.105 C 0.897,0.097 0.898,0.091 0.901,0.086 0.904,0.082 0.908,0.078 0.913,0.076 0.918,0.073 0.924,0.072 0.93,0.071 0.936,0.07 0.942,0.07 0.948,0.07 H 0.971 L 0.94,0 H 0.571 L 0.511,0.14 H 0.406 V 0.105 C 0.406,0.097 0.407,0.091 0.41,0.086 0.413,0.081 0.417,0.078 0.422,0.076 0.427,0.073 0.433,0.072 0.439,0.071 0.445,0.071 0.451,0.07 0.458,0.07 H 0.476 V 0 C 0.476,-0.015 0.473,-0.028 0.468,-0.041 0.462,-0.054 0.455,-0.065 0.445,-0.074 0.435,-0.084 0.424,-0.092 0.412,-0.097 0.399,-0.103 0.385,-0.105 0.371,-0.105 H 0.265 C 0.253,-0.105 0.241,-0.109 0.23,-0.115 0.22,-0.121 0.211,-0.13 0.205,-0.141 0.207,-0.143 0.21,-0.145 0.212,-0.148 0.215,-0.152 0.216,-0.155 0.216,-0.158 0.216,-0.159 0.215,-0.161 0.214,-0.162 0.212,-0.164 0.21,-0.166 0.207,-0.168 L 0.195,-0.176 C 0.2,-0.181 0.206,-0.186 0.212,-0.193 0.218,-0.199 0.224,-0.205 0.23,-0.212 0.237,-0.218 0.243,-0.225 0.249,-0.231 0.255,-0.237 0.26,-0.242 0.265,-0.246 0.267,-0.248 0.27,-0.25 0.274,-0.251 c 0.003,-0.002 0.007,-0.004 0.01,-0.006 0.004,-0.002 0.008,-0.004 0.011,-0.005 0.004,-0.002 0.007,-0.004 0.01,-0.006 0.002,-0.001 0.005,-0.003 0.007,-0.006 0.003,-0.003 0.006,-0.005 0.009,-0.007 0.008,-0.005 0.018,-0.01 0.028,-0.013 0.01,-0.003 0.02,-0.004 0.03,-0.004 0.017,0 0.032,0.001 0.043,0.005 0.012,0.003 0.022,0.008 0.031,0.013 0.009,0.005 0.016,0.011 0.023,0.017 0.007,0.006 0.014,0.012 0.021,0.017 0.008,0.005 0.017,0.009 0.026,0.013 0.009,0.003 0.021,0.005 0.035,0.005 0.02,0 0.039,-0.003 0.054,-0.01 0.015,-0.006 0.03,-0.016 0.045,-0.031 0.032,-0.032 0.069,-0.056 0.11,-0.074 0.041,-0.017 0.085,-0.026 0.13,-0.026 0.02,0 0.04,0.002 0.061,0.006 0.02,0.005 0.04,0.009 0.059,0.014 0.014,-0.022 0.021,-0.046 0.021,-0.071 0,-0.003 0,-0.005 -0.001,-0.008 0,-0.002 0,-0.004 0,-0.007 C 1.035,-0.454 1.029,-0.471 1.021,-0.486 1.013,-0.502 1.002,-0.515 0.989,-0.526 0.975,-0.537 0.96,-0.546 0.944,-0.552 0.927,-0.558 0.909,-0.562 0.891,-0.562 H 0.546 C 0.527,-0.562 0.509,-0.565 0.491,-0.573 0.474,-0.58 0.459,-0.59 0.447,-0.603 0.434,-0.616 0.424,-0.631 0.417,-0.648 0.409,-0.665 0.406,-0.683 0.406,-0.702 l 0.049,0.032 0.064,-0.032 c 0.023,0 0.045,-0.005 0.066,-0.013 0.02,-0.009 0.039,-0.022 0.057,-0.038 0.03,-0.029 0.064,-0.051 0.101,-0.066 0.037,-0.016 0.076,-0.023 0.119,-0.023 0.029,0 0.057,0.003 0.084,0.011 0.026,0.007 0.052,0.018 0.075,0.032 0.023,0.013 0.045,0.03 0.064,0.049 0.019,0.02 0.036,0.041 0.05,0.064 0.013,0.023 0.024,0.049 0.032,0.075 0.007,0.027 0.011,0.055 0.011,0.084 0,0.045 -0.009,0.088 -0.028,0.129 -0.018,0.041 -0.044,0.076 -0.077,0.106 z"
         style="fill:#474747;fill-rule:nonzero"
         id="path7998" /><path
         d="m 0.862,-0.772 c 0.033,0 0.065,0.006 0.095,0.019 0.03,0.013 0.056,0.031 0.078,0.053 0.022,0.022 0.04,0.048 0.053,0.078 0.013,0.03 0.019,0.061 0.019,0.095 0,0.019 -0.002,0.037 -0.005,0.055 C 1.095,-0.495 1.086,-0.517 1.072,-0.537 1.059,-0.556 1.042,-0.573 1.023,-0.587 1.005,-0.601 0.984,-0.612 0.961,-0.62 0.939,-0.628 0.915,-0.632 0.891,-0.632 H 0.476 c -0.01,0 -0.019,-0.002 -0.028,-0.005 C 0.44,-0.641 0.432,-0.646 0.426,-0.652 0.42,-0.658 0.415,-0.666 0.411,-0.675 0.408,-0.683 0.406,-0.692 0.406,-0.702 h 0.236 c 0.015,0 0.029,-0.003 0.042,-0.007 0.013,-0.005 0.026,-0.011 0.038,-0.02 0.022,-0.014 0.044,-0.025 0.067,-0.032 0.022,-0.007 0.047,-0.011 0.073,-0.011 z m 0.033,0.386 c 0.03,0 0.06,0.006 0.087,0.018 0.027,0.011 0.051,0.029 0.072,0.052 H 0.895 c -0.037,0 -0.071,0.007 -0.102,0.021 -0.031,0.013 -0.059,0.033 -0.086,0.058 -0.021,0.02 -0.043,0.035 -0.066,0.046 -0.022,0.01 -0.048,0.015 -0.078,0.015 -0.02,0 -0.039,-0.002 -0.057,-0.007 -0.018,-0.005 -0.035,-0.013 -0.052,-0.025 0.003,-0.006 0.004,-0.013 0.004,-0.02 0,-0.007 -0.001,-0.014 -0.004,-0.02 C 0.452,-0.255 0.448,-0.26 0.443,-0.265 0.438,-0.27 0.432,-0.274 0.426,-0.277 0.42,-0.279 0.413,-0.281 0.406,-0.281 v 0.038 C 0.399,-0.245 0.393,-0.246 0.388,-0.246 H 0.265 C 0.274,-0.254 0.282,-0.263 0.29,-0.271 0.298,-0.28 0.306,-0.287 0.315,-0.294 0.324,-0.3 0.333,-0.306 0.344,-0.31 c 0.01,-0.004 0.022,-0.006 0.035,-0.006 0.017,0 0.032,0.002 0.043,0.005 0.012,0.004 0.022,0.008 0.031,0.013 0.009,0.005 0.016,0.011 0.023,0.017 0.007,0.006 0.014,0.012 0.022,0.017 0.007,0.006 0.016,0.01 0.025,0.013 0.009,0.004 0.021,0.005 0.035,0.005 0.01,0 0.02,0 0.029,-0.002 0.009,-0.002 0.017,-0.004 0.025,-0.007 0.008,-0.004 0.015,-0.008 0.023,-0.013 0.007,-0.005 0.014,-0.011 0.022,-0.019 0.034,-0.031 0.07,-0.055 0.109,-0.073 0.039,-0.017 0.082,-0.026 0.129,-0.026 z"
         style="fill:#f2f2f2;fill-rule:nonzero"
         id="path8000" /><path
         d="m 0.353,-0.246 c 0.005,0 0.009,0.002 0.012,0.006 0.004,0.003 0.006,0.007 0.006,0.012 v 0.035 c 0,0.005 -0.002,0.009 -0.006,0.012 -0.003,0.004 -0.007,0.005 -0.012,0.005 -0.005,0 -0.009,-0.001 -0.012,-0.005 C 0.337,-0.184 0.335,-0.188 0.335,-0.193 v -0.035 c 0,-0.005 0.002,-0.009 0.006,-0.012 0.003,-0.004 0.007,-0.006 0.012,-0.006 z"
         style="fill:#cccccc;fill-rule:nonzero"
         id="path8002" /><path
         d="m 0.265,-0.176 c 0,0.01 -0.003,0.018 -0.01,0.025 -0.007,0.007 -0.015,0.01 -0.025,0.01 H 0.205 c -0.007,-0.01 -0.01,-0.022 -0.01,-0.035 z"
         style="fill:#ee9889;fill-rule:nonzero"
         id="path8004" /></g></g></svg>
