<?xml version="1.0" encoding="UTF-8" standalone="no"?>
<svg
   width="16.844999"
   height="16.844999"
   viewBox="0 0 16.844999 16.844999"
   version="1.1"
   xml:space="preserve"
   style="clip-rule:evenodd;fill-rule:evenodd;stroke-linejoin:round;stroke-miterlimit:2"
   id="svg20568"
   sodipodi:docname="emojis.svg"
   xmlns:inkscape="http://www.inkscape.org/namespaces/inkscape"
   xmlns:sodipodi="http://sodipodi.sourceforge.net/DTD/sodipodi-0.dtd"
   xmlns="http://www.w3.org/2000/svg"
   xmlns:svg="http://www.w3.org/2000/svg"><defs
     id="defs20572" /><sodipodi:namedview
     id="namedview20570"
     pagecolor="#505050"
     bordercolor="#eeeeee"
     borderopacity="1"
     inkscape:pageshadow="0"
     inkscape:pageopacity="0"
     inkscape:pagecheckerboard="0" /><g
     transform="matrix(0.24,0,0,0.24,-480.6534,-387.7938)"
     id="g20566"><g
       transform="matrix(62.5,0,0,62.5,1994.91,1672.87)"
       id="g8020"><path
         d="M 0.81,0.21 C 0.784,0.21 0.76,0.206 0.737,0.196 0.713,0.187 0.692,0.173 0.674,0.155 0.664,0.172 0.651,0.186 0.635,0.196 0.619,0.205 0.601,0.21 0.581,0.21 H 0.125 V 0.14 C 0.125,0.125 0.128,0.112 0.133,0.099 0.139,0.086 0.146,0.075 0.156,0.066 0.166,0.056 0.177,0.049 0.189,0.043 0.202,0.038 0.216,0.035 0.23,0.035 H 0.335 V -0.07 H 0.3 C 0.286,-0.07 0.272,-0.073 0.259,-0.079 0.247,-0.084 0.236,-0.092 0.226,-0.101 0.217,-0.111 0.209,-0.122 0.204,-0.135 0.198,-0.147 0.195,-0.161 0.195,-0.176 v -0.015 c 0,-0.002 0,-0.004 0,-0.006 0,-0.002 0,-0.004 0.001,-0.005 C 0.188,-0.209 0.182,-0.216 0.177,-0.223 0.172,-0.23 0.169,-0.238 0.166,-0.246 0.164,-0.253 0.162,-0.262 0.161,-0.271 c 0,-0.008 -0.001,-0.018 -0.001,-0.027 0,-0.012 0.002,-0.024 0.007,-0.034 0.004,-0.01 0.011,-0.02 0.019,-0.028 L 0.265,-0.44 V -0.598 C 0.257,-0.614 0.25,-0.629 0.244,-0.644 0.238,-0.658 0.234,-0.674 0.232,-0.692 0.216,-0.703 0.203,-0.715 0.193,-0.727 0.184,-0.74 0.176,-0.753 0.171,-0.767 0.167,-0.781 0.163,-0.795 0.162,-0.81 0.16,-0.825 0.16,-0.841 0.16,-0.857 v -0.056 h 0.088 c 0.026,0 0.051,0.007 0.074,0.019 0.023,0.012 0.042,0.03 0.057,0.052 H 0.433 C 0.443,-0.858 0.454,-0.871 0.467,-0.88 0.479,-0.89 0.492,-0.897 0.505,-0.902 0.519,-0.907 0.533,-0.91 0.548,-0.911 0.563,-0.912 0.579,-0.913 0.595,-0.913 h 0.056 v 0.088 c 0,0.027 -0.006,0.052 -0.019,0.075 -0.013,0.024 -0.03,0.043 -0.052,0.058 -0.003,0.018 -0.007,0.034 -0.013,0.049 -0.005,0.014 -0.013,0.029 -0.021,0.045 v 0.107 c 0,0.014 0.004,0.027 0.012,0.039 0.008,0.012 0.019,0.02 0.032,0.026 0.008,0.003 0.016,0.005 0.026,0.005 0.025,0 0.048,0.003 0.071,0.01 0.024,0.007 0.045,0.017 0.065,0.03 0.019,0.013 0.037,0.029 0.052,0.047 0.016,0.019 0.029,0.039 0.038,0.062 0.013,0.031 0.02,0.063 0.02,0.096 V 0 c 0,0.009 0.003,0.018 0.01,0.025 0.007,0.007 0.016,0.01 0.025,0.01 H 1.16 c 0.012,0 0.024,0.002 0.034,0.007 0.011,0.005 0.02,0.011 0.028,0.019 0.008,0.008 0.015,0.017 0.019,0.028 0.005,0.01 0.007,0.022 0.007,0.034 0,0.012 -0.002,0.023 -0.007,0.034 C 1.237,0.167 1.23,0.177 1.222,0.185 1.214,0.193 1.205,0.199 1.194,0.204 1.184,0.208 1.172,0.21 1.16,0.21 Z"
         style="fill-rule:nonzero"
         id="path8008" /><path
         d="M 0.546,-0.017 C 0.534,-0.024 0.522,-0.029 0.511,-0.034 0.499,-0.039 0.487,-0.046 0.476,-0.053 0.473,-0.052 0.469,-0.05 0.464,-0.047 0.459,-0.045 0.455,-0.044 0.452,-0.044 0.446,-0.044 0.44,-0.047 0.435,-0.053 0.43,-0.059 0.426,-0.066 0.421,-0.074 0.417,-0.082 0.414,-0.09 0.411,-0.098 0.409,-0.106 0.407,-0.113 0.406,-0.117 0.383,-0.146 0.366,-0.177 0.354,-0.21 0.341,-0.244 0.335,-0.279 0.335,-0.316 v -0.045 l -0.02,-0.008 0.02,-0.042 v -0.221 c 0.004,0.008 0.008,0.017 0.012,0.025 0.004,0.008 0.009,0.016 0.014,0.023 0.005,0.006 0.011,0.012 0.018,0.016 0.007,0.004 0.016,0.006 0.027,0.006 0.011,0 0.019,-0.002 0.026,-0.006 0.007,-0.004 0.013,-0.01 0.019,-0.016 0.005,-0.007 0.009,-0.015 0.013,-0.023 0.004,-0.008 0.008,-0.017 0.012,-0.025 v 0.141 c 0,0.009 0.001,0.018 0.003,0.028 0.002,0.009 0.004,0.018 0.008,0.026 0.005,0.013 0.013,0.025 0.022,0.036 0.008,0.01 0.019,0.019 0.03,0.026 0.011,0.008 0.023,0.014 0.036,0.018 0.014,0.004 0.027,0.006 0.041,0.006 0.012,0 0.024,0.001 0.035,0.003 0.012,0.003 0.023,0.006 0.034,0.011 0.016,0.006 0.031,0.015 0.044,0.026 0.013,0.012 0.024,0.024 0.034,0.038 0.009,0.014 0.016,0.029 0.021,0.046 0.005,0.016 0.008,0.033 0.008,0.051 v 0.053 z M 0.23,-0.825 v -0.017 l 0.067,0.037 0.038,0.068 -0.016,0.009 C 0.316,-0.728 0.313,-0.73 0.31,-0.733 0.307,-0.735 0.304,-0.737 0.3,-0.739 0.296,-0.74 0.293,-0.741 0.289,-0.742 0.285,-0.743 0.282,-0.745 0.278,-0.747 0.264,-0.754 0.252,-0.765 0.243,-0.779 0.235,-0.793 0.23,-0.808 0.23,-0.825 Z m 0.351,0 c 0,0.017 -0.004,0.032 -0.013,0.046 -0.009,0.014 -0.02,0.025 -0.035,0.032 C 0.53,-0.745 0.526,-0.743 0.522,-0.742 0.519,-0.741 0.515,-0.74 0.511,-0.739 0.508,-0.737 0.504,-0.735 0.501,-0.733 0.499,-0.73 0.495,-0.728 0.492,-0.728 L 0.476,-0.737 0.515,-0.801 0.581,-0.842 Z"
         style="fill:#eba300;fill-rule:nonzero"
         id="path8010" /><path
         d="m 0.476,-0.737 h 0.018 c 0.006,0 0.011,-0.001 0.017,-0.002 v 0.021 c 0,0.022 -0.005,0.044 -0.015,0.064 l -0.039,0.079 c -0.005,0.009 -0.012,0.017 -0.021,0.023 -0.01,0.005 -0.02,0.008 -0.03,0.008 -0.011,0 -0.021,-0.003 -0.03,-0.008 C 0.367,-0.558 0.36,-0.566 0.355,-0.575 L 0.315,-0.654 C 0.312,-0.661 0.309,-0.668 0.307,-0.675 0.305,-0.682 0.303,-0.689 0.302,-0.696 0.301,-0.702 0.301,-0.709 0.301,-0.716 0.3,-0.723 0.3,-0.731 0.3,-0.739 c 0.004,0.001 0.008,0.001 0.012,0.001 0.004,0.001 0.008,0.001 0.012,0.001 H 0.335 L 0.23,-0.842 h 0.018 c 0.01,0 0.02,0.002 0.03,0.005 0.009,0.004 0.018,0.009 0.025,0.015 0.008,0.006 0.015,0.013 0.02,0.022 0.005,0.009 0.009,0.018 0.011,0.028 l 0.072,0.05 0.07,-0.05 C 0.478,-0.782 0.482,-0.791 0.488,-0.8 0.493,-0.809 0.5,-0.816 0.508,-0.822 0.516,-0.828 0.524,-0.833 0.534,-0.837 0.543,-0.84 0.553,-0.842 0.563,-0.842 h 0.018 z m 0,0.684 V 0.105 C 0.472,0.106 0.465,0.108 0.458,0.11 0.45,0.113 0.442,0.115 0.432,0.118 0.423,0.12 0.414,0.123 0.404,0.125 0.394,0.128 0.385,0.131 0.376,0.133 0.367,0.135 0.359,0.137 0.352,0.138 0.344,0.139 0.339,0.14 0.335,0.14 H 0.265 L 0.243,0.123 0.265,0.105 h 0.141 v -0.222 c 0.01,0.013 0.02,0.024 0.032,0.035 0.012,0.01 0.025,0.02 0.038,0.029 z M 0.335,-0.411 v 0.05 l -0.07,0.07 -0.03,-0.02 z"
         style="fill:#d48c00;fill-rule:nonzero"
         id="path8012" /><path
         d="m 0.651,-0.246 h 0.018 c 0.017,0 0.033,0.004 0.048,0.01 0.015,0.006 0.028,0.015 0.039,0.026 0.011,0.011 0.02,0.024 0.026,0.039 0.007,0.015 0.01,0.031 0.01,0.048 V 0 c 0,0.015 0.003,0.028 0.008,0.041 0.006,0.013 0.013,0.024 0.023,0.033 0.009,0.01 0.02,0.017 0.033,0.023 0.013,0.005 0.026,0.008 0.041,0.008 H 1.16 c 0.005,0 0.009,0.002 0.013,0.005 0.003,0.004 0.005,0.008 0.005,0.013 0,0.004 -0.002,0.009 -0.005,0.012 C 1.169,0.138 1.165,0.14 1.16,0.14 H 0.81 C 0.793,0.14 0.777,0.137 0.762,0.131 0.748,0.125 0.734,0.116 0.722,0.104 0.706,0.089 0.689,0.074 0.671,0.06 0.654,0.046 0.636,0.033 0.616,0.021 v 0.084 c 0,0.01 -0.003,0.018 -0.01,0.025 C 0.599,0.137 0.591,0.14 0.581,0.14 H 0.406 L 0.386,0.123 0.406,0.105 h 0.14 v -0.246 c 0,-0.014 0.003,-0.028 0.008,-0.041 0.006,-0.012 0.013,-0.023 0.023,-0.033 0.01,-0.009 0.021,-0.017 0.033,-0.022 0.013,-0.006 0.027,-0.009 0.041,-0.009 z m -0.351,0.06 -0.029,-0.02 0.1,-0.1 v -0.133 c 0,-0.009 0.003,-0.018 0.01,-0.025 0.007,-0.007 0.015,-0.01 0.025,-0.01 0.009,0 0.017,0.003 0.024,0.01 0.007,0.007 0.011,0.016 0.011,0.025 v 0.106 c 0,0.004 -0.002,0.008 -0.005,0.012 z m 0.176,-0.586 v 0.035 l -0.035,0.052 v 0.071 L 0.406,-0.597 0.371,-0.614 V -0.685 L 0.335,-0.737 v -0.035 z"
         style="fill:#ffb900;fill-rule:nonzero"
         id="path8014" /><path
         d="M 0.406,0.105 V 0.14 H 0.335 c 0,-0.009 0.004,-0.018 0.011,-0.025 0.007,-0.007 0.015,-0.01 0.025,-0.01 z m -0.141,0 V 0.14 H 0.195 C 0.195,0.131 0.199,0.122 0.206,0.115 0.213,0.108 0.221,0.105 0.23,0.105 Z M 0.283,-0.21 c 0.004,0 0.008,0.001 0.012,0.005 0.004,0.003 0.005,0.007 0.005,0.012 v 0.052 c -0.009,0 -0.017,-0.003 -0.024,-0.01 C 0.269,-0.158 0.265,-0.166 0.265,-0.176 v -0.017 c 0,-0.005 0.002,-0.009 0.006,-0.012 C 0.274,-0.209 0.278,-0.21 0.283,-0.21 Z M 0.248,-0.316 c 0.005,0 0.009,0.002 0.012,0.005 0.003,0.004 0.005,0.008 0.005,0.013 v 0.052 c -0.009,0 -0.017,-0.003 -0.024,-0.01 C 0.234,-0.263 0.23,-0.271 0.23,-0.281 v -0.017 c 0,-0.005 0.002,-0.009 0.006,-0.013 0.003,-0.003 0.007,-0.005 0.012,-0.005 z m 0.193,-0.296 c 0,0.003 -0.001,0.007 -0.003,0.01 -0.001,0.004 -0.003,0.008 -0.006,0.011 -0.003,0.003 -0.006,0.006 -0.009,0.008 -0.004,0.003 -0.007,0.004 -0.01,0.004 H 0.399 C 0.395,-0.579 0.391,-0.58 0.388,-0.583 0.385,-0.585 0.382,-0.588 0.379,-0.592 0.376,-0.595 0.374,-0.599 0.373,-0.603 0.371,-0.607 0.371,-0.611 0.371,-0.614 H 0.44 c 0,0 0.001,0.001 0.001,0.001 0,0 0,0.001 0,0.001 z"
         style="fill:#8e562e;fill-rule:nonzero"
         id="path8016" /><path
         d="M 0.335,-0.685 V -0.72 c 0,-0.004 0.002,-0.008 0.006,-0.012 0.003,-0.004 0.007,-0.005 0.012,-0.005 0.005,0 0.009,0.001 0.012,0.005 0.004,0.004 0.006,0.008 0.006,0.012 v 0.035 c 0,0.005 -0.002,0.009 -0.006,0.013 -0.003,0.003 -0.007,0.005 -0.012,0.005 -0.005,0 -0.009,-0.002 -0.012,-0.005 C 0.337,-0.676 0.335,-0.68 0.335,-0.685 Z m 0.106,0 V -0.72 c 0,-0.004 0.002,-0.008 0.005,-0.012 0.004,-0.004 0.008,-0.005 0.012,-0.005 0.005,0 0.009,0.001 0.013,0.005 0.003,0.004 0.005,0.008 0.005,0.012 v 0.035 c 0,0.005 -0.002,0.009 -0.005,0.013 -0.003,0.003 -0.008,0.005 -0.013,0.005 -0.004,0 -0.009,-0.002 -0.012,-0.005 C 0.443,-0.676 0.441,-0.68 0.441,-0.685 Z"
         style="fill-rule:nonzero"
         id="path8018" /></g></g></svg>
