<?xml version="1.0" encoding="UTF-8" standalone="no"?>
<svg
   width="16.844999"
   height="16.844999"
   viewBox="0 0 16.844999 16.844999"
   version="1.1"
   xml:space="preserve"
   style="clip-rule:evenodd;fill-rule:evenodd;stroke-linejoin:round;stroke-miterlimit:2"
   id="svg20568"
   sodipodi:docname="emojis.svg"
   xmlns:inkscape="http://www.inkscape.org/namespaces/inkscape"
   xmlns:sodipodi="http://sodipodi.sourceforge.net/DTD/sodipodi-0.dtd"
   xmlns="http://www.w3.org/2000/svg"
   xmlns:svg="http://www.w3.org/2000/svg"><defs
     id="defs20572" /><sodipodi:namedview
     id="namedview20570"
     pagecolor="#505050"
     bordercolor="#eeeeee"
     borderopacity="1"
     inkscape:pageshadow="0"
     inkscape:pageopacity="0"
     inkscape:pagecheckerboard="0" /><g
     transform="matrix(0.24,0,0,0.24,-542.439,-387.7938)"
     id="g20566"><g
       transform="matrix(62.5,0,0,62.5,2252.35,1672.87)"
       id="g8062"><path
         d="m 1.125,-0.913 c 0.017,0 0.033,0.004 0.048,0.01 0.015,0.007 0.028,0.015 0.039,0.027 0.011,0.011 0.02,0.024 0.026,0.039 0.007,0.015 0.01,0.031 0.01,0.047 0,0.019 -0.004,0.037 -0.012,0.053 0.004,0.008 0.007,0.017 0.009,0.026 0.002,0.008 0.003,0.017 0.003,0.026 0,0.01 -10e-4,0.018 -0.003,0.027 -0.002,0.009 -0.005,0.018 -0.009,0.026 0.004,0.009 0.007,0.017 0.009,0.026 0.002,0.009 0.003,0.018 0.003,0.027 0,0.009 -10e-4,0.018 -0.003,0.027 -0.002,0.009 -0.005,0.017 -0.009,0.026 0.008,0.016 0.012,0.034 0.012,0.052 0,0.019 -0.004,0.037 -0.012,0.053 0.004,0.008 0.007,0.017 0.009,0.025 0.002,0.009 0.003,0.018 0.003,0.027 0,0.013 -0.002,0.025 -0.005,0.037 C 1.239,-0.321 1.234,-0.31 1.227,-0.3 1.221,-0.291 1.213,-0.282 1.203,-0.274 1.194,-0.266 1.183,-0.26 1.172,-0.255 1.165,-0.221 1.154,-0.19 1.137,-0.16 1.121,-0.131 1.1,-0.106 1.076,-0.083 1.052,-0.061 1.024,-0.043 0.994,-0.029 0.963,-0.015 0.931,-0.006 0.897,-0.002 V 0.07 H 0.8 C 0.809,0.08 0.815,0.09 0.82,0.103 0.824,0.115 0.827,0.127 0.827,0.14 V 0.21 H 0.335 L 0.334,0.162 C 0.334,0.152 0.335,0.143 0.336,0.134 0.337,0.124 0.339,0.115 0.341,0.107 0.344,0.098 0.348,0.09 0.352,0.083 0.357,0.075 0.363,0.068 0.371,0.062 0.34,0.054 0.312,0.041 0.286,0.024 0.26,0.006 0.238,-0.014 0.219,-0.039 0.201,-0.063 0.186,-0.089 0.176,-0.119 0.165,-0.148 0.16,-0.179 0.16,-0.21 v -0.176 c 0,-0.022 0.004,-0.044 0.011,-0.064 0.007,-0.021 0.018,-0.04 0.032,-0.057 L 0.197,-0.526 H 0.125 v -0.049 c 0,-0.021 0.001,-0.038 0.004,-0.052 C 0.131,-0.641 0.136,-0.654 0.142,-0.666 0.148,-0.677 0.156,-0.688 0.166,-0.699 0.175,-0.71 0.187,-0.722 0.201,-0.737 0.209,-0.758 0.222,-0.775 0.24,-0.788 0.257,-0.801 0.278,-0.807 0.3,-0.807 h 0.141 c 0.02,0 0.038,0.004 0.055,0.011 0.017,0.008 0.032,0.018 0.045,0.031 0.012,0.012 0.022,0.028 0.029,0.045 0.007,0.017 0.011,0.036 0.011,0.055 0.006,0 0.012,-0.001 0.018,-0.001 0.005,-0.001 0.011,-0.001 0.017,-0.001 0.032,0 0.063,0.006 0.094,0.017 L 0.9,-0.84 c 0.011,-0.011 0.023,-0.021 0.037,-0.03 0.013,-0.009 0.027,-0.017 0.042,-0.023 0.015,-0.006 0.03,-0.011 0.046,-0.014 0.016,-0.004 0.032,-0.006 0.048,-0.006 z"
         style="fill-rule:nonzero"
         id="path8042" /><path
         d="m 0.195,-0.597 c 0,-0.01 0.002,-0.021 0.006,-0.031 0.004,-0.01 0.01,-0.019 0.018,-0.027 l 0.046,-0.047 h 0.018 v 0.105 z"
         style="fill:#ffc83d;fill-rule:nonzero"
         id="path8044" /><path
         d="m 0.23,-0.386 c 0,-0.019 0.004,-0.035 0.011,-0.049 0.007,-0.014 0.016,-0.026 0.026,-0.037 0.01,-0.011 0.021,-0.02 0.034,-0.028 0.012,-0.009 0.023,-0.017 0.033,-0.025 0.01,-0.008 0.019,-0.016 0.026,-0.025 0.007,-0.008 0.011,-0.018 0.011,-0.029 v -0.053 l 0.14,0.037 V -0.21 H 0.23 Z m 0.035,-0.316 c 0,-0.01 0.004,-0.018 0.011,-0.025 0.007,-0.007 0.015,-0.01 0.024,-0.01 L 0.339,-0.662 0.3,-0.597 v 0.053 c 0,0.005 -0.001,0.009 -0.005,0.013 -0.003,0.003 -0.007,0.005 -0.012,0.005 -0.005,0 -0.009,-0.002 -0.012,-0.006 C 0.267,-0.535 0.265,-0.539 0.265,-0.544 Z"
         style="fill:#f03a17;fill-rule:nonzero"
         id="path8046" /><path
         d="m 0.441,-0.737 c 0.01,0 0.019,0.002 0.027,0.005 0.009,0.004 0.016,0.009 0.022,0.015 0.007,0.007 0.012,0.014 0.016,0.023 0.003,0.008 0.005,0.017 0.005,0.027 v 0.07 H 0.3 v -0.14 z"
         style="fill:#ee9889;fill-rule:nonzero"
         id="path8048" /><path
         d="m 0.655,0.105 h 0.067 c 0.009,0 0.017,0.003 0.024,0.01 0.007,0.007 0.011,0.016 0.011,0.025 H 0.406 c 0,-0.009 0.003,-0.018 0.01,-0.025 0.007,-0.007 0.015,-0.01 0.025,-0.01 h 0.075 l 0.085,-0.149 0.03,0.018 -0.075,0.131 H 0.615 L 0.7,-0.044 0.73,-0.026 Z"
         style="fill:#757575;fill-rule:nonzero"
         id="path8050" /><path
         d="M 0.651,-0.493 0.95,-0.791 c 0.002,-0.003 0.005,-0.005 0.008,-0.007 0.003,-0.003 0.006,-0.005 0.009,-0.007 l 0.034,0.037 v 0.625 l -0.034,0.049 c -0.011,0.005 -0.022,0.01 -0.032,0.013 -0.011,0.003 -0.021,0.005 -0.031,0.007 -0.01,0.001 -0.02,0.002 -0.03,0.003 -0.011,0 -0.021,10e-4 -0.032,10e-4 H 0.807 L 0.827,0 H 0.441 C 0.417,0 0.395,-0.004 0.372,-0.012 0.35,-0.02 0.329,-0.031 0.311,-0.045 L 0.325,-0.103 0.542,-0.32 0.606,-0.341 c 0,0 0.001,-0.001 0.001,-0.002 l 0.004,-0.01 C 0.612,-0.354 0.612,-0.355 0.612,-0.355 0.62,-0.378 0.626,-0.401 0.632,-0.424 0.637,-0.447 0.644,-0.47 0.651,-0.493 Z m 0.422,-0.349 h 0.034 l 0.024,0.048 v 0.445 l -0.024,0.033 c 0,0.033 -0.006,0.064 -0.018,0.093 -0.012,0.029 -0.029,0.056 -0.051,0.079 l -0.03,-0.064 v -0.585 l 0.03,-0.045 C 1.05,-0.841 1.062,-0.842 1.073,-0.842 Z"
         style="fill:#613d30;fill-rule:nonzero"
         id="path8052" /><path
         d="m 0.616,-0.597 c 0.029,0 0.056,0.006 0.082,0.017 0.026,0.011 0.048,0.026 0.067,0.045 0.019,0.019 0.034,0.041 0.045,0.067 0.011,0.026 0.017,0.053 0.017,0.082 V 0 L 0.615,-0.329 C 0.612,-0.333 0.609,-0.337 0.606,-0.341 l -0.052,0.008 -0.086,0.09 C 0.461,-0.235 0.453,-0.228 0.446,-0.22 0.439,-0.212 0.432,-0.205 0.424,-0.198 0.417,-0.191 0.408,-0.184 0.4,-0.178 0.391,-0.172 0.383,-0.165 0.375,-0.159 l -0.1,0.078 C 0.26,-0.099 0.249,-0.12 0.242,-0.142 0.234,-0.164 0.23,-0.187 0.23,-0.21 c 0,-0.028 0.006,-0.055 0.016,-0.08 0.011,-0.026 0.026,-0.048 0.046,-0.068 l 0.18,-0.18 c 0.019,-0.019 0.041,-0.033 0.066,-0.044 0.025,-0.01 0.052,-0.015 0.078,-0.015 z"
         style="fill:#8e562e;fill-rule:nonzero"
         id="path8054" /><path
         d="M 0.967,-0.094 V -0.805 C 0.978,-0.813 0.989,-0.82 1,-0.826 1.012,-0.832 1.025,-0.836 1.038,-0.838 v 0.694 c -0.021,0.02 -0.044,0.037 -0.071,0.05 z"
         style="fill:#ca5010;fill-rule:nonzero"
         id="path8056" /><path
         d="m 0.388,-0.702 c 0.005,0 0.009,0.002 0.013,0.005 0.003,0.003 0.005,0.008 0.005,0.012 v 0.036 c 0,0.004 -0.002,0.009 -0.005,0.012 -0.004,0.003 -0.008,0.005 -0.013,0.005 -0.005,0 -0.009,-0.002 -0.012,-0.005 C 0.372,-0.64 0.371,-0.645 0.371,-0.649 v -0.036 c 0,-0.004 0.001,-0.009 0.005,-0.012 0.003,-0.003 0.007,-0.005 0.012,-0.005 z"
         style="fill-rule:nonzero"
         id="path8058" /><path
         d="m 1.178,-0.685 c 0,0.015 -0.005,0.027 -0.015,0.037 -0.009,0.01 -0.021,0.016 -0.036,0.016 0.007,0 0.014,0.002 0.02,0.005 0.006,0.003 0.012,0.007 0.016,0.011 0.005,0.005 0.008,0.01 0.011,0.017 0.002,0.006 0.004,0.013 0.004,0.02 0,0.007 -0.002,0.014 -0.004,0.02 -0.003,0.006 -0.006,0.012 -0.011,0.016 -0.005,0.005 -0.01,0.009 -0.017,0.012 -0.006,0.003 -0.012,0.004 -0.019,0.005 0.007,0 0.013,0.002 0.019,0.005 0.007,0.002 0.012,0.006 0.017,0.011 0.004,0.005 0.008,0.01 0.011,0.016 0.002,0.007 0.004,0.013 0.004,0.02 0,0.015 -0.005,0.027 -0.015,0.037 -0.009,0.01 -0.021,0.015 -0.036,0.016 0.007,0 0.013,0.002 0.019,0.004 0.007,0.003 0.012,0.007 0.017,0.012 0.005,0.005 0.008,0.01 0.011,0.017 0.002,0.006 0.004,0.013 0.004,0.019 0,0.008 -0.002,0.015 -0.004,0.021 -0.003,0.006 -0.007,0.012 -0.012,0.017 -0.004,0.004 -0.01,0.008 -0.016,0.011 -0.007,0.003 -0.014,0.004 -0.021,0.004 H 1.107 v -0.526 h 0.018 c 0.007,0 0.014,0.001 0.021,0.004 0.006,0.003 0.012,0.006 0.016,0.011 0.005,0.005 0.009,0.01 0.012,0.017 0.002,0.006 0.004,0.013 0.004,0.02 0,0.008 -0.002,0.014 -0.004,0.02 -0.003,0.007 -0.006,0.012 -0.011,0.017 -0.004,0.004 -0.01,0.008 -0.016,0.011 -0.006,0.003 -0.013,0.004 -0.02,0.005 0.007,0 0.013,0.002 0.019,0.005 0.007,0.003 0.012,0.006 0.017,0.011 0.005,0.005 0.008,0.01 0.011,0.017 0.002,0.006 0.004,0.013 0.004,0.019 z m -0.608,0.31 c 0.007,0.005 0.013,0.01 0.019,0.016 0.006,0.006 0.012,0.012 0.017,0.018 L 0.311,-0.045 C 0.304,-0.051 0.298,-0.056 0.292,-0.063 0.287,-0.069 0.281,-0.075 0.276,-0.082 Z"
         style="fill:#d8b094;fill-rule:nonzero"
         id="path8060" /></g></g></svg>
