<?xml version="1.0" encoding="UTF-8" standalone="no"?>
<svg
   width="16.844999"
   height="16.844999"
   viewBox="0 0 16.844999 16.844999"
   version="1.1"
   xml:space="preserve"
   style="clip-rule:evenodd;fill-rule:evenodd;stroke-linejoin:round;stroke-miterlimit:2"
   id="svg20568"
   sodipodi:docname="emojis.svg"
   xmlns:inkscape="http://www.inkscape.org/namespaces/inkscape"
   xmlns:sodipodi="http://sodipodi.sourceforge.net/DTD/sodipodi-0.dtd"
   xmlns="http://www.w3.org/2000/svg"
   xmlns:svg="http://www.w3.org/2000/svg"><defs
     id="defs20572" /><sodipodi:namedview
     id="namedview20570"
     pagecolor="#505050"
     bordercolor="#eeeeee"
     borderopacity="1"
     inkscape:pageshadow="0"
     inkscape:pageopacity="0"
     inkscape:pagecheckerboard="0" /><g
     transform="matrix(0.24,0,0,0.24,-563.0358,-387.7938)"
     id="g20566"><g
       transform="matrix(62.5,0,0,62.5,2338.17,1672.87)"
       id="g8076"><path
         d="m 0.861,-0.652 c 0.039,0.01 0.075,0.027 0.108,0.048 0.033,0.022 0.061,0.048 0.086,0.078 0.024,0.03 0.044,0.064 0.059,0.1 0.015,0.037 0.024,0.075 0.028,0.115 l 0.106,0.106 v 0.004 c 0,0.011 0,0.02 -10e-4,0.03 0,0.009 -0.002,0.017 -0.004,0.026 -0.002,0.008 -0.006,0.016 -0.01,0.024 -0.005,0.007 -0.011,0.015 -0.019,0.023 l 0.034,0.034 v 0.029 c 0,0.014 -0.003,0.028 -0.008,0.041 C 1.234,0.019 1.227,0.03 1.217,0.039 1.207,0.049 1.196,0.056 1.184,0.062 1.171,0.068 1.157,0.07 1.143,0.07 V 0.21 H 0.439 L 0.506,0.056 C 0.491,0.043 0.479,0.03 0.471,0.016 0.462,0.003 0.455,-0.011 0.451,-0.026 0.447,-0.04 0.444,-0.055 0.442,-0.07 0.441,-0.086 0.44,-0.101 0.44,-0.118 L 0.441,-0.176 H 0.392 c -0.015,0 -0.028,0 -0.041,-0.001 C 0.338,-0.179 0.325,-0.181 0.313,-0.185 0.301,-0.189 0.289,-0.194 0.277,-0.2 0.266,-0.207 0.254,-0.215 0.243,-0.226 l -0.118,0.059 v -0.114 c 0,-0.027 0.004,-0.053 0.013,-0.078 0.008,-0.025 0.02,-0.048 0.036,-0.068 C 0.189,-0.448 0.208,-0.466 0.229,-0.481 0.25,-0.497 0.274,-0.508 0.3,-0.516 v -0.133 c 0,-0.017 0.004,-0.033 0.01,-0.048 0.007,-0.015 0.015,-0.028 0.026,-0.039 0.011,-0.011 0.025,-0.02 0.039,-0.026 0.015,-0.007 0.031,-0.01 0.048,-0.01 h 0.03 C 0.458,-0.783 0.464,-0.792 0.472,-0.801 0.48,-0.81 0.488,-0.817 0.498,-0.823 0.507,-0.829 0.518,-0.834 0.529,-0.837 0.54,-0.841 0.552,-0.842 0.563,-0.842 H 0.6 c 0.013,-0.022 0.03,-0.039 0.051,-0.052 0.022,-0.012 0.045,-0.019 0.071,-0.019 h 0.14 v 0.253 c 0,0.003 0,0.005 -0.001,0.008 z"
         style="fill-rule:nonzero"
         id="path8064" /><path
         d="m 1.178,-0.176 c 0,0.01 -0.004,0.018 -0.011,0.025 -0.006,0.007 -0.015,0.01 -0.024,0.01 h -0.07 l 0.105,0.106 c 0,0.01 -0.004,0.018 -0.011,0.025 C 1.161,-0.003 1.152,0 1.143,0 H 1.073 V 0.14 H 0.546 l 0.105,-0.245 -0.21,-0.352 v -0.097 l 0.082,-0.037 c 0.007,-0.003 0.014,-0.006 0.02,-0.01 0.007,-0.003 0.014,-0.006 0.021,-0.008 0.007,-0.003 0.014,-0.004 0.021,-0.005 0.007,0 0.014,-0.001 0.021,-0.003 l 0.084,-0.014 0.032,0.034 h 0.035 c 0.029,0 0.057,0.004 0.084,0.012 0.027,0.007 0.052,0.018 0.075,0.032 0.024,0.013 0.045,0.03 0.064,0.049 0.019,0.019 0.036,0.041 0.05,0.064 0.013,0.023 0.024,0.048 0.032,0.075 0.007,0.027 0.011,0.055 0.011,0.084 z"
         style="fill:#ffffff;fill-rule:nonzero"
         id="path8066" /><path
         d="m 0.352,-0.389 0.229,0.073 0.07,0.07 H 0.371 C 0.36,-0.246 0.349,-0.247 0.338,-0.251 0.327,-0.254 0.317,-0.259 0.307,-0.265 0.298,-0.271 0.289,-0.278 0.282,-0.287 0.275,-0.295 0.269,-0.305 0.265,-0.316 Z"
         style="fill:#d48c00;fill-rule:nonzero"
         id="path8068" /><path
         d="m 0.409,-0.481 0.005,0.003 c 0.004,0.003 0.009,0.007 0.013,0.01 0.005,0.003 0.01,0.007 0.014,0.011 l 0.14,0.141 -0.029,0.029 -0.04,-0.029 H 0.265 l -0.07,0.035 c 0,-0.024 0.005,-0.047 0.014,-0.068 0.009,-0.021 0.022,-0.04 0.038,-0.056 0.016,-0.016 0.034,-0.028 0.055,-0.038 0.022,-0.009 0.045,-0.014 0.069,-0.014 z"
         style="fill:#ffb900;fill-rule:nonzero"
         id="path8070" /><path
         d="m 0.792,-0.842 v 0.175 c 0,0.01 -0.002,0.019 -0.006,0.027 -0.003,0.009 -0.008,0.016 -0.015,0.023 -0.006,0.006 -0.014,0.011 -0.022,0.015 -0.008,0.003 -0.018,0.005 -0.027,0.005 H 0.651 c -0.01,0 -0.021,0.002 -0.033,0.004 -0.011,0.003 -0.022,0.007 -0.033,0.012 -0.011,0.004 -0.022,0.01 -0.031,0.017 -0.01,0.006 -0.019,0.013 -0.027,0.021 l -0.086,0.086 h -0.07 v -0.192 c 0,-0.008 0.001,-0.014 0.004,-0.021 0.003,-0.006 0.006,-0.012 0.011,-0.017 0.005,-0.004 0.011,-0.008 0.017,-0.011 0.006,-0.003 0.013,-0.004 0.02,-0.004 h 0.053 v 0.105 c 0.01,0 0.018,-0.003 0.025,-0.01 0.007,-0.007 0.01,-0.015 0.01,-0.025 V -0.72 c 0,-0.007 0.002,-0.014 0.004,-0.02 0.003,-0.006 0.007,-0.012 0.012,-0.017 0.004,-0.004 0.01,-0.008 0.016,-0.011 0.007,-0.003 0.013,-0.004 0.02,-0.004 h 0.053 v 0.105 c 0.01,0 0.018,-0.003 0.025,-0.01 0.007,-0.007 0.01,-0.015 0.01,-0.025 v -0.07 c 0,-0.01 0.002,-0.019 0.006,-0.027 0.003,-0.009 0.008,-0.016 0.015,-0.023 0.006,-0.006 0.013,-0.011 0.022,-0.015 0.009,-0.003 0.018,-0.005 0.028,-0.005 z m -0.035,0.754 c 0,0.017 -0.003,0.033 -0.01,0.048 C 0.741,-0.025 0.732,-0.012 0.721,-0.001 0.71,0.01 0.697,0.019 0.682,0.025 0.667,0.032 0.651,0.035 0.634,0.035 0.617,0.035 0.601,0.032 0.586,0.025 0.571,0.019 0.558,0.01 0.547,-0.001 0.536,-0.012 0.527,-0.025 0.521,-0.04 0.514,-0.055 0.511,-0.071 0.511,-0.088 v -0.228 h 0.07 l 0.141,0.14 c 0.012,0.013 0.021,0.026 0.027,0.04 0.005,0.015 0.008,0.031 0.008,0.048 z"
         style="fill:#f03a17;fill-rule:nonzero"
         id="path8072" /><path
         d="m 0.669,-0.526 c 0.007,0 0.014,0.001 0.02,0.004 0.007,0.003 0.012,0.006 0.017,0.011 0.005,0.004 0.009,0.01 0.012,0.016 0.002,0.007 0.004,0.014 0.004,0.021 v 0.07 c 0,0.008 -0.002,0.015 -0.004,0.021 -0.003,0.006 -0.007,0.012 -0.012,0.017 -0.004,0.004 -0.01,0.008 -0.017,0.011 -0.006,0.003 -0.013,0.004 -0.02,0.004 -0.008,0 -0.014,-0.001 -0.021,-0.004 C 0.642,-0.358 0.636,-0.362 0.632,-0.366 0.627,-0.371 0.623,-0.377 0.62,-0.383 0.618,-0.389 0.616,-0.396 0.616,-0.404 v -0.07 c 0,-0.007 0.002,-0.014 0.004,-0.021 0.003,-0.006 0.007,-0.012 0.012,-0.016 0.005,-0.005 0.01,-0.008 0.017,-0.011 0.006,-0.003 0.013,-0.004 0.02,-0.004 z"
         style="fill-rule:nonzero"
         id="path8074" /></g></g></svg>
