<?xml version="1.0" encoding="UTF-8" standalone="no"?>
<svg
   width="16.860001"
   height="16.844999"
   viewBox="0 0 16.860001 16.844999"
   version="1.1"
   xml:space="preserve"
   style="clip-rule:evenodd;fill-rule:evenodd;stroke-linejoin:round;stroke-miterlimit:2"
   id="svg20568"
   sodipodi:docname="emojis.svg"
   xmlns:inkscape="http://www.inkscape.org/namespaces/inkscape"
   xmlns:sodipodi="http://sodipodi.sourceforge.net/DTD/sodipodi-0.dtd"
   xmlns="http://www.w3.org/2000/svg"
   xmlns:svg="http://www.w3.org/2000/svg"><defs
     id="defs20572" /><sodipodi:namedview
     id="namedview20570"
     pagecolor="#505050"
     bordercolor="#eeeeee"
     borderopacity="1"
     inkscape:pageshadow="0"
     inkscape:pageopacity="0"
     inkscape:pagecheckerboard="0" /><g
     transform="matrix(0.24,0,0,0.24,-643.3008,-387.7938)"
     id="g20566"><g
       transform="matrix(62.5,0,0,62.5,2672.67,1672.87)"
       id="g8126"><path
         d="m 0.932,-0.625 c 0.035,0.007 0.067,0.018 0.099,0.035 0.031,0.016 0.059,0.037 0.083,0.062 l 0.103,0.103 c 0.01,0.01 0.018,0.021 0.023,0.034 0.005,0.013 0.008,0.026 0.008,0.04 v 0.07 H 1.002 c 0,0.019 0,0.036 -0.001,0.051 C 1,-0.214 0.997,-0.199 0.994,-0.185 0.99,-0.171 0.985,-0.157 0.979,-0.143 c -0.007,0.014 -0.016,0.029 -0.027,0.045 -0.015,0.02 -0.029,0.041 -0.045,0.061 -0.015,0.02 -0.03,0.04 -0.045,0.06 v 0.012 c 0.014,0 0.028,0.003 0.041,0.008 0.013,0.006 0.024,0.013 0.033,0.023 0.01,0.009 0.017,0.02 0.023,0.033 0.006,0.013 0.008,0.026 0.008,0.041 V 0.21 H 0.406 V 0.14 C 0.406,0.125 0.409,0.112 0.414,0.099 0.42,0.086 0.427,0.075 0.437,0.066 0.446,0.056 0.458,0.049 0.47,0.043 0.483,0.038 0.497,0.035 0.511,0.035 V 0.023 L 0.42,-0.099 C 0.409,-0.114 0.4,-0.129 0.394,-0.143 0.387,-0.157 0.382,-0.171 0.379,-0.185 0.375,-0.199 0.373,-0.214 0.372,-0.23 0.371,-0.245 0.371,-0.262 0.371,-0.281 H 0.125 L 0.124,-0.329 c 0,-0.008 0,-0.017 0.001,-0.026 0.001,-0.008 0.002,-0.017 0.004,-0.025 0.003,-0.008 0.006,-0.016 0.01,-0.023 0.004,-0.008 0.009,-0.015 0.016,-0.021 l 0.106,-0.107 c 0.025,-0.024 0.052,-0.044 0.083,-0.06 0.031,-0.016 0.063,-0.027 0.097,-0.034 v -0.042 c 0,-0.034 0.006,-0.066 0.019,-0.095 0.013,-0.03 0.031,-0.056 0.053,-0.079 0.022,-0.022 0.048,-0.039 0.078,-0.052 0.03,-0.013 0.062,-0.02 0.096,-0.02 0.033,0 0.065,0.007 0.095,0.02 0.03,0.013 0.056,0.03 0.078,0.052 0.022,0.023 0.04,0.049 0.053,0.079 0.013,0.029 0.019,0.061 0.019,0.095 z"
         style="fill-rule:nonzero"
         id="path8116" /><path
         d="m 0.862,-0.562 c 0.037,0 0.073,0.007 0.108,0.021 0.035,0.014 0.066,0.034 0.093,0.06 l 0.105,0.106 c 0.003,0.003 0.006,0.007 0.007,0.011 0.002,0.004 0.003,0.008 0.003,0.013 H 0.932 v 0.105 c 0,0.02 -0.003,0.038 -0.009,0.056 -0.006,0.017 -0.015,0.034 -0.027,0.049 L 0.862,-0.095 H 0.511 L 0.477,-0.141 C 0.465,-0.156 0.456,-0.172 0.45,-0.19 0.444,-0.208 0.441,-0.226 0.441,-0.246 V -0.351 H 0.195 c 0,-0.005 0.001,-0.009 0.003,-0.013 0.001,-0.004 0.004,-0.008 0.007,-0.011 l 0.106,-0.106 c 0.026,-0.026 0.057,-0.046 0.092,-0.06 0.035,-0.014 0.071,-0.021 0.108,-0.021 v -0.105 c 0,-0.024 0.005,-0.047 0.014,-0.068 0.009,-0.021 0.022,-0.04 0.038,-0.056 0.016,-0.016 0.034,-0.028 0.055,-0.037 0.022,-0.01 0.044,-0.014 0.069,-0.014 0.024,0 0.046,0.004 0.068,0.014 0.021,0.009 0.04,0.021 0.055,0.037 0.016,0.016 0.029,0.035 0.038,0.056 0.009,0.021 0.014,0.044 0.014,0.068 z"
         style="fill:#ffb900;fill-rule:nonzero"
         id="path8118" /><path
         d="m 0.687,-0.491 c 0.024,0 0.046,0.004 0.068,0.014 0.021,0.009 0.04,0.022 0.055,0.037 0.016,0.016 0.029,0.035 0.038,0.056 0.009,0.021 0.014,0.044 0.014,0.068 v 0.222 L 0.792,0 H 0.581 l -0.07,-0.094 v -0.222 c 0,-0.024 0.005,-0.047 0.014,-0.068 0.009,-0.021 0.022,-0.04 0.037,-0.056 0.016,-0.016 0.035,-0.028 0.056,-0.038 0.021,-0.009 0.044,-0.013 0.069,-0.013 z"
         style="fill:#ffd679;fill-rule:nonzero"
         id="path8120" /><path
         d="M 0.897,0.14 H 0.476 C 0.476,0.131 0.48,0.122 0.487,0.115 0.494,0.108 0.502,0.105 0.511,0.105 h 0.07 V -0.07 c 0,-0.01 0.003,-0.018 0.01,-0.025 0.007,-0.007 0.015,-0.01 0.025,-0.01 0.01,0 0.018,0.003 0.025,0.01 0.007,0.007 0.01,0.015 0.01,0.025 V 0.105 H 0.722 V -0.07 c 0,-0.01 0.003,-0.018 0.01,-0.025 0.007,-0.007 0.015,-0.01 0.025,-0.01 0.009,0 0.017,0.003 0.024,0.01 0.007,0.007 0.011,0.015 0.011,0.025 v 0.175 h 0.07 c 0.009,0 0.017,0.003 0.024,0.01 0.007,0.007 0.011,0.016 0.011,0.025 z M 0.722,-0.597 c 0.009,0 0.018,0.004 0.025,0.011 0.006,0.006 0.01,0.015 0.01,0.024 0,0.005 -0.001,0.009 -0.003,0.012 -0.001,0.004 -0.003,0.007 -0.006,0.011 L 0.687,-0.457 0.624,-0.541 C 0.622,-0.543 0.62,-0.547 0.618,-0.55 0.617,-0.554 0.616,-0.558 0.616,-0.562 c 0,-0.009 0.004,-0.018 0.01,-0.024 0.007,-0.007 0.016,-0.011 0.025,-0.011 z"
         style="fill:#f7630c;fill-rule:nonzero"
         id="path8122" /><path
         d="m 0.581,-0.702 c 0.01,0 0.018,0.003 0.025,0.01 0.007,0.007 0.01,0.015 0.01,0.025 v 0.035 c 0,0.01 -0.003,0.018 -0.01,0.025 -0.007,0.007 -0.015,0.01 -0.025,0.01 -0.009,0 -0.018,-0.003 -0.025,-0.01 -0.007,-0.007 -0.01,-0.015 -0.01,-0.025 v -0.035 c 0,-0.009 0.003,-0.018 0.01,-0.025 0.007,-0.007 0.016,-0.01 0.025,-0.01 z m 0.211,0 c 0.009,0 0.018,0.003 0.024,0.01 0.007,0.007 0.011,0.016 0.011,0.025 v 0.035 c 0,0.01 -0.004,0.018 -0.011,0.025 -0.006,0.007 -0.015,0.01 -0.024,0.01 -0.01,0 -0.018,-0.003 -0.025,-0.01 -0.007,-0.007 -0.01,-0.015 -0.01,-0.025 v -0.035 c 0,-0.01 0.003,-0.018 0.01,-0.025 0.007,-0.007 0.015,-0.01 0.025,-0.01 z"
         style="fill-rule:nonzero"
         id="path8124" /></g></g></svg>
