<?xml version="1.0" encoding="UTF-8" standalone="no"?>
<svg
   width="14.73"
   height="16.844999"
   viewBox="0 0 14.73 16.844999"
   version="1.1"
   xml:space="preserve"
   style="clip-rule:evenodd;fill-rule:evenodd;stroke-linejoin:round;stroke-miterlimit:2"
   id="svg20568"
   sodipodi:docname="emojis.svg"
   xmlns:inkscape="http://www.inkscape.org/namespaces/inkscape"
   xmlns:sodipodi="http://sodipodi.sourceforge.net/DTD/sodipodi-0.dtd"
   xmlns="http://www.w3.org/2000/svg"
   xmlns:svg="http://www.w3.org/2000/svg"><defs
     id="defs20572" /><sodipodi:namedview
     id="namedview20570"
     pagecolor="#505050"
     bordercolor="#eeeeee"
     borderopacity="1"
     inkscape:pageshadow="0"
     inkscape:pageopacity="0"
     inkscape:pagecheckerboard="0" /><g
     transform="matrix(0.24,0,0,0.24,-684.507,-387.7938)"
     id="g20566"><g
       transform="matrix(62.5,0,0,62.5,2844.3,1672.87)"
       id="g8156"><path
         d="m 1.107,-0.316 v 0.142 L 0.897,-0.265 V -0.07 C 0.897,-0.035 0.893,0 0.884,0.035 0.895,0.044 0.903,0.054 0.91,0.064 0.916,0.074 0.921,0.084 0.925,0.095 0.928,0.106 0.93,0.117 0.931,0.128 0.932,0.14 0.933,0.152 0.933,0.164 L 0.932,0.21 H 0.3 V 0.164 C 0.3,0.151 0.3,0.138 0.302,0.126 0.303,0.115 0.306,0.104 0.309,0.093 0.313,0.082 0.318,0.072 0.324,0.063 0.33,0.053 0.339,0.044 0.349,0.035 0.345,0.017 0.341,0 0.339,-0.018 0.337,-0.035 0.335,-0.053 0.335,-0.07 v -0.195 l -0.21,0.091 v -0.142 c 0,-0.026 0.005,-0.05 0.016,-0.072 0.01,-0.021 0.025,-0.041 0.044,-0.059 l 0.221,-0.215 v -0.04 H 0.23 v -0.07 c 0,-0.019 0.004,-0.037 0.012,-0.054 0.007,-0.018 0.017,-0.032 0.03,-0.045 0.013,-0.013 0.027,-0.023 0.044,-0.03 0.017,-0.008 0.035,-0.012 0.055,-0.012 h 0.245 c 0.032,0 0.061,0.006 0.087,0.018 0.026,0.012 0.048,0.028 0.066,0.049 0.019,0.02 0.033,0.044 0.043,0.072 0.01,0.027 0.015,0.056 0.015,0.087 v 0.025 l 0.221,0.215 c 0.018,0.018 0.033,0.038 0.044,0.059 0.01,0.022 0.015,0.046 0.015,0.072 z"
         style="fill-rule:nonzero"
         id="path8144" /><path
         d="m 0.3,-0.772 c 0,-0.01 0.002,-0.019 0.006,-0.027 0.004,-0.009 0.009,-0.016 0.015,-0.023 0.006,-0.006 0.014,-0.011 0.022,-0.015 0.009,-0.003 0.018,-0.005 0.028,-0.005 h 0.245 v 0.14 H 0.476 C 0.476,-0.712 0.474,-0.721 0.47,-0.729 0.467,-0.738 0.462,-0.745 0.455,-0.752 0.449,-0.758 0.442,-0.763 0.433,-0.767 0.425,-0.77 0.416,-0.772 0.406,-0.772 Z"
         style="fill:#f7630c;fill-rule:nonzero"
         id="path8146" /><path
         d="m 1.038,-0.281 -0.211,-0.09 v 0.301 c 0,0.031 -0.004,0.062 -0.013,0.093 C 0.806,0.054 0.793,0.082 0.777,0.109 L 0.753,0.127 0.707,0.105 H 0.523 L 0.477,0.125 C 0.472,0.121 0.467,0.117 0.463,0.113 0.458,0.109 0.454,0.104 0.45,0.1 0.448,0.097 0.447,0.094 0.445,0.091 0.444,0.088 0.443,0.084 0.441,0.082 0.43,0.057 0.421,0.033 0.415,0.007 0.409,-0.018 0.406,-0.044 0.406,-0.07 v -0.301 l -0.211,0.09 v -0.016 c 0,-0.011 0.001,-0.021 0.002,-0.029 0,-0.009 0.002,-0.017 0.005,-0.025 0.002,-0.007 0.006,-0.015 0.011,-0.022 0.005,-0.007 0.011,-0.015 0.019,-0.023 l 0.244,-0.236 v -0.07 c 0,-0.019 0.004,-0.038 0.011,-0.055 0.007,-0.017 0.017,-0.032 0.03,-0.044 0.013,-0.013 0.028,-0.023 0.045,-0.03 0.017,-0.008 0.035,-0.011 0.054,-0.011 0.019,0 0.038,0.003 0.055,0.011 0.017,0.007 0.032,0.018 0.044,0.03 0.013,0.013 0.023,0.028 0.031,0.045 0.007,0.017 0.011,0.035 0.011,0.054 v 0.07 L 1,-0.396 c 0.01,0.009 0.017,0.018 0.022,0.025 0.005,0.008 0.008,0.016 0.011,0.024 0.002,0.008 0.003,0.016 0.004,0.025 0,0.009 0.001,0.019 0.001,0.03 z"
         style="fill:#383838;fill-rule:nonzero"
         id="path8148" /><path
         d="m 0.563,-0.807 c 0.005,0 0.01,0.002 0.013,0.005 0.003,0.003 0.005,0.008 0.005,0.012 v 0.036 c 0,0.004 -0.002,0.008 -0.005,0.012 -0.004,0.003 -0.008,0.005 -0.013,0.005 -0.004,0 -0.008,-0.002 -0.012,-0.005 C 0.548,-0.746 0.546,-0.75 0.546,-0.754 V -0.79 c 0,-0.004 0.002,-0.008 0.005,-0.012 0.004,-0.003 0.008,-0.005 0.012,-0.005 z"
         style="fill:#cccccc;fill-rule:nonzero"
         id="path8150" /><path
         d="m 0.612,-0.521 c 0.026,0 0.048,0.005 0.066,0.014 0.018,0.009 0.033,0.021 0.045,0.037 0.011,0.015 0.02,0.033 0.026,0.053 0.005,0.021 0.008,0.043 0.008,0.066 V 0.106 C 0.755,0.107 0.751,0.108 0.745,0.11 0.739,0.112 0.733,0.115 0.725,0.117 0.717,0.12 0.709,0.122 0.701,0.125 0.693,0.128 0.685,0.13 0.678,0.132 0.671,0.135 0.665,0.136 0.66,0.138 0.655,0.139 0.652,0.14 0.651,0.14 H 0.582 c 0,0 -0.003,-0.001 -0.008,-0.002 C 0.569,0.136 0.563,0.134 0.556,0.132 L 0.509,0.115 0.476,0.104 v -0.455 c 0,-0.022 0.003,-0.042 0.008,-0.063 0.005,-0.02 0.013,-0.038 0.024,-0.054 0.011,-0.016 0.025,-0.029 0.042,-0.038 0.017,-0.01 0.038,-0.015 0.062,-0.015 z"
         style="fill:#ffffff;fill-rule:nonzero"
         id="path8152" /><path
         d="m 0.616,-0.562 c 0.019,0 0.038,0.004 0.055,0.012 0.017,0.007 0.032,0.017 0.044,0.03 0.013,0.013 0.023,0.027 0.031,0.044 0.007,0.017 0.011,0.035 0.011,0.055 v 0.064 C 0.756,-0.376 0.752,-0.393 0.744,-0.41 0.737,-0.426 0.726,-0.44 0.714,-0.452 0.701,-0.464 0.686,-0.474 0.669,-0.481 0.652,-0.488 0.635,-0.491 0.616,-0.491 c -0.018,0 -0.036,0.003 -0.053,0.01 -0.017,0.007 -0.031,0.017 -0.044,0.029 -0.013,0.012 -0.023,0.026 -0.03,0.042 -0.008,0.017 -0.012,0.034 -0.013,0.053 v -0.064 c 0,-0.02 0.004,-0.038 0.011,-0.055 0.007,-0.017 0.017,-0.032 0.03,-0.045 0.013,-0.012 0.028,-0.022 0.045,-0.03 0.017,-0.007 0.035,-0.011 0.054,-0.011 z m 0.071,-0.21 c 0.009,0 0.018,0.002 0.027,0.005 0.008,0.004 0.016,0.009 0.022,0.015 0.006,0.007 0.011,0.014 0.015,0.023 0.004,0.008 0.006,0.017 0.006,0.027 0,0.01 -0.002,0.019 -0.006,0.027 -0.004,0.009 -0.009,0.016 -0.015,0.022 -0.006,0.007 -0.014,0.012 -0.022,0.016 -0.009,0.003 -0.018,0.005 -0.027,0.005 H 0.616 v -0.07 c 0,-0.01 0.002,-0.019 0.006,-0.027 0.004,-0.009 0.009,-0.016 0.015,-0.023 0.006,-0.006 0.014,-0.011 0.022,-0.015 0.009,-0.003 0.018,-0.005 0.028,-0.005 z M 0.511,0.07 c 0.01,0 0.019,0.002 0.028,0.006 C 0.547,0.079 0.554,0.084 0.561,0.091 0.567,0.097 0.572,0.104 0.576,0.113 0.579,0.121 0.581,0.13 0.581,0.14 H 0.371 C 0.371,0.13 0.372,0.121 0.376,0.113 0.38,0.104 0.385,0.097 0.391,0.091 0.398,0.084 0.405,0.079 0.414,0.076 0.422,0.072 0.431,0.07 0.441,0.07 l 0.035,0.035 z m 0.281,0 c 0.01,0 0.019,0.002 0.027,0.006 C 0.828,0.079 0.835,0.084 0.842,0.091 0.848,0.097 0.853,0.104 0.856,0.113 0.86,0.121 0.862,0.13 0.862,0.14 H 0.651 C 0.651,0.13 0.653,0.121 0.657,0.113 0.661,0.104 0.666,0.097 0.672,0.091 0.678,0.084 0.686,0.079 0.694,0.076 0.703,0.072 0.712,0.07 0.722,0.07 l 0.035,0.035 z"
         style="fill:#ffb900;fill-rule:nonzero"
         id="path8154" /></g></g></svg>
