<?xml version="1.0" encoding="UTF-8" standalone="no"?>
<svg
   width="16.844999"
   height="15.255"
   viewBox="0 0 16.844999 15.255"
   version="1.1"
   xml:space="preserve"
   style="clip-rule:evenodd;fill-rule:evenodd;stroke-linejoin:round;stroke-miterlimit:2"
   id="svg20568"
   sodipodi:docname="emojis.svg"
   xmlns:inkscape="http://www.inkscape.org/namespaces/inkscape"
   xmlns:sodipodi="http://sodipodi.sourceforge.net/DTD/sodipodi-0.dtd"
   xmlns="http://www.w3.org/2000/svg"
   xmlns:svg="http://www.w3.org/2000/svg"><defs
     id="defs20572" /><sodipodi:namedview
     id="namedview20570"
     pagecolor="#505050"
     bordercolor="#eeeeee"
     borderopacity="1"
     inkscape:pageshadow="0"
     inkscape:pageopacity="0"
     inkscape:pagecheckerboard="0" /><g
     transform="matrix(0.24,0,0,0.24,-723.0774,-388.8588)"
     id="g20566"><g
       transform="matrix(62.5,0,0,62.5,3005.01,1672.87)"
       id="g8184"><path
         d="m 1.248,-0.351 v 0.21 c 0,0.024 -0.005,0.047 -0.014,0.068 -0.009,0.022 -0.022,0.04 -0.037,0.056 C 1.181,-0.001 1.162,0.012 1.141,0.021 1.12,0.031 1.097,0.035 1.073,0.035 h -0.03 l -0.14,-0.14 H 0.856 L 0.575,0.175 H 0.476 C 0.462,0.175 0.448,0.173 0.435,0.167 0.422,0.161 0.411,0.154 0.402,0.145 0.392,0.135 0.384,0.124 0.379,0.111 0.373,0.098 0.371,0.085 0.371,0.07 V 0.018 c 0,-0.021 0.003,-0.04 0.011,-0.059 C 0.389,-0.059 0.4,-0.075 0.413,-0.09 0.426,-0.104 0.441,-0.115 0.459,-0.124 0.477,-0.133 0.496,-0.139 0.517,-0.14 l 0.04,-0.04 C 0.545,-0.187 0.535,-0.196 0.524,-0.205 0.514,-0.214 0.505,-0.223 0.495,-0.233 L 0.376,-0.351 H 0.294 L 0.156,-0.216 C 0.152,-0.212 0.148,-0.21 0.144,-0.21 0.138,-0.21 0.134,-0.212 0.13,-0.216 0.127,-0.219 0.125,-0.224 0.125,-0.229 v -0.192 c 0,-0.029 0.006,-0.057 0.017,-0.082 0.011,-0.026 0.026,-0.048 0.045,-0.067 0.019,-0.019 0.041,-0.034 0.067,-0.045 0.025,-0.011 0.052,-0.017 0.081,-0.017 h 0.15 c 0.008,-0.031 0.02,-0.059 0.038,-0.085 0.017,-0.026 0.038,-0.048 0.062,-0.067 0.024,-0.018 0.051,-0.033 0.08,-0.043 0.029,-0.01 0.06,-0.015 0.092,-0.015 h 0.491 v 0.07 c 0,0.019 -0.002,0.037 -0.007,0.055 -0.005,0.018 -0.012,0.034 -0.021,0.05 -0.009,0.016 -0.02,0.03 -0.033,0.043 -0.013,0.013 -0.028,0.025 -0.044,0.034 -0.002,0.025 -0.009,0.047 -0.021,0.067 -0.012,0.021 -0.029,0.037 -0.051,0.048 -0.003,0.025 -0.012,0.048 -0.027,0.068 -0.015,0.02 -0.035,0.035 -0.058,0.045 l 0.01,0.011 z"
         style="fill-rule:nonzero"
         id="path8174" /><path
         d="m 1.178,-0.281 v 0.14 c 0,0.015 -0.003,0.029 -0.009,0.041 -0.005,0.013 -0.013,0.024 -0.022,0.034 -0.009,0.009 -0.021,0.017 -0.033,0.023 -0.013,0.005 -0.027,0.008 -0.041,0.008 L 0.897,-0.21 V -0.281 Z M 0.335,-0.421 0.282,-0.494 0.335,-0.562 h 0.211 l 0.062,0.241 -0.097,0.005 -0.105,-0.105 z"
         style="fill:#ffffff;fill-rule:nonzero"
         id="path8176" /><path
         d="m 1.178,-0.772 c 0,0.019 -0.004,0.037 -0.011,0.054 C 1.159,-0.7 1.149,-0.686 1.137,-0.673 1.124,-0.66 1.109,-0.65 1.092,-0.643 1.075,-0.635 1.057,-0.632 1.038,-0.632 H 0.827 c 0,0.01 0.003,0.018 0.01,0.025 0.007,0.007 0.015,0.01 0.025,0.01 h 0.211 c 0,0.01 -0.002,0.019 -0.006,0.028 -0.004,0.008 -0.009,0.016 -0.015,0.022 -0.006,0.006 -0.014,0.011 -0.022,0.015 -0.009,0.004 -0.018,0.006 -0.028,0.006 H 0.757 c 0,0.009 0.003,0.017 0.01,0.024 0.007,0.007 0.016,0.011 0.025,0.011 h 0.21 c 0,0.01 -0.001,0.019 -0.005,0.027 -0.004,0.009 -0.009,0.016 -0.015,0.022 -0.007,0.007 -0.014,0.012 -0.023,0.015 -0.008,0.004 -0.017,0.006 -0.027,0.006 H 0.827 l 0.246,0.245 H 0.827 l -0.14,0.141 H 0.574 C 0.569,-0.041 0.562,-0.046 0.554,-0.049 0.547,-0.052 0.539,-0.054 0.53,-0.054 L 0.673,-0.197 C 0.655,-0.204 0.639,-0.212 0.625,-0.219 0.611,-0.227 0.597,-0.236 0.585,-0.246 0.572,-0.256 0.56,-0.267 0.548,-0.278 0.537,-0.29 0.524,-0.302 0.511,-0.316 l 0.035,-0.035 v -0.211 c 0,-0.029 0.005,-0.056 0.016,-0.082 C 0.574,-0.669 0.589,-0.692 0.608,-0.711 0.627,-0.73 0.649,-0.745 0.675,-0.756 0.7,-0.767 0.728,-0.772 0.757,-0.772 Z"
         style="fill:#8e562e;fill-rule:nonzero"
         id="path8178" /><path
         d="m 0.195,-0.421 c 0,-0.02 0.004,-0.038 0.011,-0.055 0.008,-0.017 0.018,-0.032 0.03,-0.045 0.013,-0.012 0.028,-0.022 0.045,-0.03 0.017,-0.007 0.035,-0.011 0.054,-0.011 v 0.141 h -0.07 l -0.07,0.07 z m 0.334,0.351 c 0.012,0 0.023,0.002 0.034,0.007 0.01,0.004 0.02,0.01 0.028,0.018 0.008,0.008 0.014,0.018 0.018,0.028 0.005,0.011 0.007,0.023 0.007,0.035 V 0.035 L 0.581,0.07 V 0.018 C 0.581,0.01 0.58,0.004 0.577,-0.003 0.574,-0.009 0.57,-0.015 0.566,-0.02 0.561,-0.024 0.555,-0.028 0.549,-0.031 0.543,-0.034 0.536,-0.035 0.529,-0.035 0.521,-0.035 0.514,-0.034 0.508,-0.031 0.502,-0.028 0.496,-0.024 0.491,-0.02 0.487,-0.015 0.483,-0.009 0.48,-0.003 0.477,0.004 0.476,0.01 0.476,0.018 0.476,0.025 0.477,0.031 0.48,0.038 0.483,0.044 0.487,0.05 0.492,0.055 0.497,0.06 0.502,0.063 0.509,0.066 0.515,0.069 0.522,0.07 0.529,0.07 H 0.581 L 0.546,0.105 H 0.476 C 0.467,0.105 0.458,0.102 0.451,0.095 0.444,0.088 0.441,0.08 0.441,0.07 V 0.018 c 0,-0.012 0.002,-0.024 0.007,-0.035 0.004,-0.01 0.011,-0.02 0.019,-0.028 0.008,-0.008 0.017,-0.014 0.027,-0.018 0.011,-0.005 0.022,-0.007 0.035,-0.007 z"
         style="fill:#ffb900;fill-rule:nonzero"
         id="path8180" /><path
         d="m 0.388,-0.526 c 0.005,0 0.009,0.001 0.013,0.005 0.003,0.003 0.005,0.007 0.005,0.012 v 0.035 c 0,0.005 -0.002,0.009 -0.005,0.012 -0.004,0.004 -0.008,0.005 -0.013,0.005 -0.005,0 -0.009,-0.001 -0.012,-0.005 C 0.372,-0.465 0.371,-0.469 0.371,-0.474 v -0.035 c 0,-0.005 0.001,-0.009 0.005,-0.012 0.003,-0.004 0.007,-0.005 0.012,-0.005 z"
         style="fill-rule:nonzero"
         id="path8182" /></g></g></svg>
