<?xml version="1.0" encoding="UTF-8" standalone="no"?>
<svg
   width="16.844999"
   height="16.32"
   viewBox="0 0 16.844999 16.32"
   version="1.1"
   xml:space="preserve"
   style="clip-rule:evenodd;fill-rule:evenodd;stroke-linejoin:round;stroke-miterlimit:2"
   id="svg20568"
   sodipodi:docname="emojis.svg"
   xmlns:inkscape="http://www.inkscape.org/namespaces/inkscape"
   xmlns:sodipodi="http://sodipodi.sourceforge.net/DTD/sodipodi-0.dtd"
   xmlns="http://www.w3.org/2000/svg"
   xmlns:svg="http://www.w3.org/2000/svg"><defs
     id="defs20572" /><sodipodi:namedview
     id="namedview20570"
     pagecolor="#505050"
     bordercolor="#eeeeee"
     borderopacity="1"
     inkscape:pageshadow="0"
     inkscape:pageopacity="0"
     inkscape:pagecheckerboard="0" /><g
     transform="matrix(0.24,0,0,0.24,-783.2886,-387.7938)"
     id="g20566"><g
       transform="matrix(62.5,0,0,62.5,3255.89,1672.87)"
       id="g8232"><path
         d="m 1.143,-0.105 c 0.014,0 0.028,0.002 0.041,0.008 0.012,0.005 0.023,0.013 0.033,0.023 0.01,0.009 0.017,0.02 0.023,0.033 C 1.245,-0.028 1.248,-0.015 1.248,0 1.248,0.015 1.245,0.028 1.24,0.041 1.234,0.054 1.227,0.065 1.217,0.074 1.207,0.084 1.196,0.091 1.184,0.097 1.171,0.102 1.157,0.105 1.143,0.105 H 0.835 C 0.824,0.113 0.812,0.121 0.798,0.13 0.785,0.138 0.771,0.146 0.757,0.152 0.742,0.159 0.727,0.165 0.713,0.169 0.698,0.173 0.683,0.175 0.669,0.175 0.655,0.175 0.64,0.173 0.625,0.169 0.61,0.165 0.596,0.159 0.581,0.152 0.567,0.146 0.553,0.138 0.54,0.13 0.526,0.121 0.514,0.113 0.502,0.105 H 0.23 C 0.216,0.105 0.202,0.102 0.189,0.097 0.177,0.091 0.166,0.084 0.156,0.074 0.146,0.065 0.139,0.054 0.133,0.041 0.128,0.028 0.125,0.015 0.125,0 c 0,-0.015 0.003,-0.028 0.008,-0.041 0.006,-0.013 0.013,-0.024 0.023,-0.033 0.01,-0.01 0.021,-0.018 0.033,-0.023 0.013,-0.006 0.027,-0.008 0.041,-0.008 H 0.313 C 0.299,-0.133 0.287,-0.161 0.278,-0.19 0.27,-0.219 0.265,-0.25 0.265,-0.281 c 0,-0.04 0.006,-0.079 0.017,-0.117 0.011,-0.038 0.028,-0.073 0.051,-0.106 -0.01,-0.03 -0.015,-0.061 -0.015,-0.093 0,-0.017 0.001,-0.034 0.005,-0.051 C 0.326,-0.664 0.33,-0.681 0.336,-0.697 0.319,-0.711 0.306,-0.727 0.297,-0.746 0.287,-0.765 0.283,-0.786 0.283,-0.807 v -0.026 c 0,-0.011 0.002,-0.021 0.006,-0.031 0.004,-0.01 0.01,-0.018 0.017,-0.025 0.007,-0.007 0.016,-0.013 0.025,-0.017 0.01,-0.004 0.02,-0.007 0.031,-0.007 0.013,0 0.026,0.004 0.037,0.01 0.012,0.006 0.021,0.015 0.029,0.026 h 0.08 c 0.026,-0.012 0.052,-0.021 0.079,-0.027 0.027,-0.006 0.054,-0.009 0.082,-0.009 0.028,0 0.055,0.003 0.082,0.009 0.027,0.006 0.053,0.015 0.079,0.027 h 0.081 c 0.007,-0.011 0.017,-0.02 0.028,-0.026 0.011,-0.006 0.024,-0.01 0.037,-0.01 0.011,0 0.021,0.003 0.031,0.007 0.009,0.004 0.018,0.01 0.025,0.017 0.007,0.007 0.013,0.015 0.017,0.025 0.004,0.01 0.006,0.02 0.006,0.031 0,0.014 0,0.027 -0.002,0.04 -10e-4,0.012 -0.003,0.024 -0.007,0.035 -0.003,0.011 -0.009,0.021 -0.016,0.031 -0.007,0.011 -0.016,0.02 -0.028,0.03 0.006,0.016 0.01,0.033 0.013,0.049 0.003,0.017 0.005,0.034 0.005,0.051 0,0.032 -0.005,0.063 -0.016,0.093 0.024,0.033 0.041,0.068 0.052,0.106 0.011,0.038 0.017,0.077 0.017,0.117 0,0.031 -0.005,0.062 -0.013,0.091 -0.009,0.029 -0.021,0.057 -0.036,0.085 z"
         style="fill-rule:nonzero"
         id="path8216" /><path
         d="m 0.923,-0.493 c 0.027,0.03 0.047,0.062 0.06,0.099 0.013,0.036 0.019,0.074 0.019,0.113 0,0.023 -0.003,0.046 -0.009,0.069 -0.007,0.023 -0.016,0.045 -0.027,0.067 -0.012,0.022 -0.025,0.043 -0.04,0.064 -0.015,0.02 -0.031,0.039 -0.049,0.058 C 0.859,-0.005 0.841,0.012 0.823,0.027 0.804,0.042 0.785,0.056 0.767,0.067 0.76,0.071 0.753,0.075 0.745,0.08 0.736,0.084 0.728,0.088 0.719,0.092 0.711,0.096 0.702,0.099 0.694,0.101 0.685,0.104 0.677,0.105 0.669,0.105 0.661,0.105 0.653,0.104 0.644,0.101 0.636,0.099 0.627,0.096 0.618,0.092 0.61,0.088 0.601,0.084 0.593,0.08 0.585,0.075 0.578,0.071 0.571,0.067 0.553,0.056 0.534,0.042 0.515,0.027 0.497,0.012 0.479,-0.005 0.461,-0.023 0.443,-0.042 0.427,-0.061 0.412,-0.081 0.397,-0.102 0.383,-0.123 0.372,-0.145 0.361,-0.167 0.352,-0.189 0.345,-0.212 0.339,-0.235 0.335,-0.258 0.335,-0.281 c 0,-0.039 0.007,-0.077 0.02,-0.113 0.013,-0.037 0.033,-0.069 0.06,-0.099 C 0.406,-0.509 0.4,-0.525 0.395,-0.543 0.39,-0.561 0.388,-0.578 0.388,-0.597 c 0,-0.024 0.004,-0.048 0.011,-0.07 0.008,-0.022 0.018,-0.042 0.031,-0.06 0.013,-0.018 0.029,-0.034 0.047,-0.048 0.017,-0.015 0.037,-0.027 0.058,-0.037 0.021,-0.01 0.042,-0.017 0.065,-0.022 0.023,-0.006 0.046,-0.008 0.069,-0.008 0.023,0 0.046,0.002 0.069,0.008 0.023,0.005 0.044,0.012 0.065,0.022 0.021,0.01 0.04,0.022 0.058,0.037 0.018,0.014 0.034,0.03 0.047,0.048 0.013,0.018 0.023,0.038 0.03,0.06 0.008,0.022 0.012,0.046 0.012,0.07 0,0.019 -0.003,0.036 -0.007,0.054 -0.005,0.018 -0.011,0.034 -0.02,0.05 z"
         style="fill:#ca5010;fill-rule:nonzero"
         id="path8218" /><path
         d="m 0.897,-0.281 c 0,0.025 -0.003,0.051 -0.009,0.078 C 0.882,-0.177 0.874,-0.151 0.863,-0.126 0.851,-0.101 0.838,-0.077 0.822,-0.055 0.806,-0.033 0.788,-0.015 0.767,0 H 0.571 C 0.55,-0.015 0.532,-0.033 0.516,-0.055 0.5,-0.077 0.487,-0.101 0.475,-0.126 0.464,-0.151 0.456,-0.177 0.45,-0.203 0.444,-0.23 0.441,-0.256 0.441,-0.281 c 0,-0.024 0.003,-0.048 0.008,-0.071 0.006,-0.023 0.015,-0.045 0.028,-0.066 0.027,0.022 0.057,0.039 0.09,0.05 0.033,0.011 0.067,0.017 0.102,0.017 0.035,0 0.069,-0.006 0.102,-0.017 0.033,-0.011 0.063,-0.028 0.09,-0.05 0.013,0.021 0.022,0.043 0.027,0.066 0.006,0.023 0.009,0.047 0.009,0.071 z"
         style="fill:#f7894a;fill-rule:nonzero"
         id="path8220" /><path
         d="M 1.143,0.035 H 0.23 C 0.221,0.035 0.213,0.032 0.206,0.025 0.199,0.018 0.195,0.009 0.195,0 c 0,-0.01 0.004,-0.018 0.011,-0.025 0.006,-0.007 0.015,-0.01 0.024,-0.01 h 0.913 c 0.009,0 0.018,0.003 0.024,0.01 C 1.174,-0.018 1.178,-0.01 1.178,0 1.178,0.009 1.174,0.018 1.167,0.025 1.16,0.032 1.152,0.035 1.143,0.035 Z"
         style="fill:#613d30;fill-rule:nonzero"
         id="path8222" /><path
         d="m 0.827,-0.07 c 0.009,0 0.018,0.003 0.025,0.01 0.006,0.007 0.01,0.015 0.01,0.025 V 0 c 0,0.009 -0.004,0.018 -0.011,0.025 -0.007,0.007 -0.015,0.01 -0.024,0.01 V 0.003 C 0.826,0.012 0.822,0.019 0.816,0.026 0.809,0.032 0.801,0.035 0.792,0.035 V 0.003 C 0.791,0.012 0.788,0.019 0.781,0.026 0.774,0.032 0.766,0.035 0.757,0.035 v -0.07 c 0,-0.01 0.003,-0.018 0.01,-0.025 0.007,-0.007 0.015,-0.01 0.025,-0.01 z m -0.246,0 c 0.01,0 0.018,0.003 0.025,0.01 0.007,0.007 0.01,0.015 0.01,0.025 v 0.07 C 0.607,0.035 0.599,0.032 0.592,0.026 0.585,0.019 0.582,0.012 0.581,0.003 V 0.035 C 0.572,0.035 0.564,0.032 0.557,0.026 0.55,0.019 0.547,0.012 0.546,0.003 V 0.035 C 0.536,0.035 0.528,0.032 0.521,0.025 0.515,0.018 0.511,0.009 0.511,0 v -0.035 c 0,-0.01 0.004,-0.018 0.01,-0.025 0.007,-0.007 0.015,-0.01 0.025,-0.01 z M 0.722,-0.509 0.669,-0.404 0.616,-0.509 0.669,-0.562 Z"
         style="fill:#ffb900;fill-rule:nonzero"
         id="path8224" /><path
         d="m 0.976,-0.842 c 0.003,0 0.005,0.001 0.006,0.002 0.002,0.002 0.003,0.004 0.003,0.007 v 0.026 c 0,0.01 -0.002,0.019 -0.006,0.027 C 0.976,-0.771 0.97,-0.764 0.964,-0.758 0.958,-0.751 0.95,-0.746 0.942,-0.743 0.933,-0.739 0.924,-0.737 0.915,-0.737 H 0.799 c -0.014,0 -0.028,0.002 -0.041,0.006 -0.014,0.004 -0.026,0.01 -0.037,0.018 C 0.709,-0.705 0.699,-0.696 0.69,-0.685 0.681,-0.674 0.674,-0.662 0.669,-0.649 0.663,-0.662 0.656,-0.674 0.647,-0.685 0.639,-0.696 0.629,-0.705 0.617,-0.713 0.606,-0.721 0.593,-0.727 0.58,-0.731 0.567,-0.735 0.553,-0.737 0.539,-0.737 H 0.423 C 0.414,-0.737 0.404,-0.739 0.396,-0.743 0.388,-0.746 0.38,-0.751 0.374,-0.758 0.367,-0.764 0.362,-0.771 0.359,-0.78 0.355,-0.788 0.353,-0.797 0.353,-0.807 v -0.026 c 0,-0.003 0.001,-0.005 0.002,-0.007 0.002,-0.001 0.004,-0.002 0.007,-0.002 0.004,0 0.006,0.002 0.007,0.005 0.001,0.004 0.002,0.008 0.004,0.013 0.001,0.004 0.004,0.008 0.007,0.011 0.003,0.004 0.009,0.006 0.017,0.006 h 0.132 c 0.019,0 0.037,0.004 0.054,0.011 0.017,0.007 0.032,0.017 0.045,0.03 0.013,0.013 0.023,0.027 0.03,0.045 0.007,0.017 0.011,0.035 0.011,0.054 0,-0.02 0.004,-0.038 0.011,-0.055 0.007,-0.017 0.017,-0.031 0.03,-0.044 0.013,-0.013 0.028,-0.023 0.045,-0.03 0.017,-0.007 0.035,-0.011 0.055,-0.011 h 0.131 c 0.008,0 0.014,-0.002 0.017,-0.006 C 0.961,-0.816 0.964,-0.82 0.965,-0.824 0.967,-0.829 0.968,-0.833 0.969,-0.837 0.97,-0.84 0.972,-0.842 0.976,-0.842 Z"
         style="fill:#eba300;fill-rule:nonzero"
         id="path8226" /><path
         d="m 0.634,-0.597 c 0,0.015 -0.003,0.029 -0.009,0.041 C 0.62,-0.543 0.612,-0.532 0.603,-0.522 0.594,-0.513 0.583,-0.505 0.57,-0.5 0.557,-0.494 0.543,-0.491 0.529,-0.491 0.514,-0.491 0.5,-0.494 0.488,-0.5 0.475,-0.505 0.464,-0.513 0.454,-0.522 0.445,-0.532 0.437,-0.543 0.432,-0.556 0.426,-0.568 0.423,-0.582 0.423,-0.597 c 0,-0.014 0.003,-0.028 0.009,-0.041 0.005,-0.012 0.013,-0.024 0.022,-0.033 0.01,-0.01 0.021,-0.017 0.034,-0.023 0.012,-0.005 0.026,-0.008 0.041,-0.008 0.014,0 0.028,0.003 0.041,0.008 0.013,0.006 0.024,0.013 0.033,0.023 0.009,0.009 0.017,0.021 0.022,0.033 0.006,0.013 0.009,0.027 0.009,0.041 z m 0.281,0 c 0,0.015 -0.003,0.029 -0.009,0.041 C 0.901,-0.543 0.893,-0.532 0.884,-0.522 0.874,-0.513 0.863,-0.505 0.851,-0.5 0.838,-0.494 0.824,-0.491 0.81,-0.491 0.795,-0.491 0.781,-0.494 0.769,-0.5 0.756,-0.505 0.745,-0.513 0.735,-0.522 0.726,-0.532 0.718,-0.543 0.712,-0.556 0.707,-0.568 0.704,-0.582 0.704,-0.597 c 0,-0.014 0.003,-0.028 0.008,-0.041 0.006,-0.012 0.014,-0.024 0.023,-0.033 0.01,-0.01 0.021,-0.017 0.034,-0.023 0.012,-0.005 0.026,-0.008 0.041,-0.008 0.014,0 0.028,0.003 0.041,0.008 0.012,0.006 0.023,0.013 0.033,0.023 0.009,0.009 0.017,0.021 0.022,0.033 0.006,0.013 0.009,0.027 0.009,0.041 z"
         style="fill:#f7d7c4;fill-rule:nonzero"
         id="path8228" /><path
         d="m 0.59,-0.597 c 0,0.009 -0.002,0.017 -0.005,0.024 -0.003,0.008 -0.008,0.014 -0.013,0.02 C 0.566,-0.548 0.56,-0.543 0.552,-0.54 0.545,-0.537 0.537,-0.535 0.529,-0.535 0.52,-0.535 0.512,-0.537 0.505,-0.54 0.497,-0.543 0.491,-0.548 0.485,-0.553 0.48,-0.559 0.475,-0.565 0.472,-0.573 0.469,-0.58 0.467,-0.588 0.467,-0.597 c 0,-0.008 0.002,-0.016 0.005,-0.024 0.003,-0.007 0.008,-0.014 0.013,-0.019 0.006,-0.006 0.012,-0.01 0.02,-0.013 0.007,-0.004 0.015,-0.005 0.024,-0.005 0.008,0 0.016,0.001 0.024,0.005 0.007,0.003 0.014,0.007 0.019,0.013 0.006,0.005 0.01,0.012 0.013,0.019 0.003,0.008 0.005,0.016 0.005,0.024 z m 0.281,0 c 0,0.009 -0.002,0.017 -0.005,0.024 -0.004,0.008 -0.008,0.014 -0.013,0.02 -0.006,0.005 -0.012,0.01 -0.02,0.013 C 0.826,-0.537 0.818,-0.535 0.81,-0.535 0.801,-0.535 0.793,-0.537 0.786,-0.54 0.778,-0.543 0.772,-0.548 0.766,-0.553 0.761,-0.559 0.756,-0.565 0.753,-0.573 0.75,-0.58 0.748,-0.588 0.748,-0.597 c 0,-0.008 0.002,-0.016 0.005,-0.024 0.003,-0.007 0.008,-0.014 0.013,-0.019 0.006,-0.006 0.012,-0.01 0.02,-0.013 0.007,-0.004 0.015,-0.005 0.024,-0.005 0.008,0 0.016,0.001 0.023,0.005 0.008,0.003 0.014,0.007 0.02,0.013 0.006,0.005 0.01,0.012 0.013,0.019 0.003,0.008 0.005,0.016 0.005,0.024 z"
         style="fill-rule:nonzero"
         id="path8230" /></g></g></svg>
