<?xml version="1.0" encoding="UTF-8" standalone="no"?>
<svg
   width="10.53"
   height="16.844999"
   viewBox="0 0 10.53 16.844999"
   version="1.1"
   xml:space="preserve"
   style="clip-rule:evenodd;fill-rule:evenodd;stroke-linejoin:round;stroke-miterlimit:2"
   id="svg20568"
   sodipodi:docname="emojis.svg"
   xmlns:inkscape="http://www.inkscape.org/namespaces/inkscape"
   xmlns:sodipodi="http://sodipodi.sourceforge.net/DTD/sodipodi-0.dtd"
   xmlns="http://www.w3.org/2000/svg"
   xmlns:svg="http://www.w3.org/2000/svg"><defs
     id="defs20572" /><sodipodi:namedview
     id="namedview20570"
     pagecolor="#505050"
     bordercolor="#eeeeee"
     borderopacity="1"
     inkscape:pageshadow="0"
     inkscape:pageopacity="0"
     inkscape:pagecheckerboard="0" /><g
     transform="matrix(0.24,0,0,0.24,-13.213584,-404.7618)"
     id="g20566"><g
       transform="matrix(62.5,0,0,62.5,47.2441,1743.57)"
       id="g8246"><path
         d="M 0.827,-0.176 H 0.773 c 0.001,0.006 0.001,0.012 0.001,0.018 0,0.015 -0.002,0.028 -0.008,0.041 -0.005,0.013 -0.013,0.024 -0.023,0.033 -0.009,0.01 -0.02,0.017 -0.033,0.023 -0.013,0.005 -0.026,0.008 -0.041,0.008 -0.008,0 -0.018,-0.001 -0.027,-0.004 L 0.546,-0.024 V 0.21 H 0.335 L 0.334,0.162 C 0.334,0.153 0.335,0.145 0.335,0.137 0.336,0.129 0.337,0.121 0.339,0.113 0.341,0.105 0.344,0.098 0.348,0.091 0.352,0.083 0.357,0.076 0.363,0.07 0.349,0.069 0.336,0.065 0.324,0.06 0.313,0.054 0.302,0.046 0.293,0.036 0.285,0.027 0.278,0.016 0.273,0.004 0.268,-0.009 0.265,-0.021 0.265,-0.035 c 0,-0.02 0.002,-0.037 0.006,-0.049 0.004,-0.012 0.01,-0.022 0.019,-0.03 0.008,-0.008 0.018,-0.014 0.03,-0.019 0.013,-0.005 0.027,-0.01 0.044,-0.015 L 0.371,-0.151 V -0.21 C 0.336,-0.21 0.303,-0.217 0.273,-0.231 0.243,-0.245 0.218,-0.263 0.196,-0.286 0.174,-0.31 0.156,-0.337 0.144,-0.367 0.131,-0.398 0.125,-0.431 0.125,-0.465 c 0,-0.027 0.004,-0.053 0.012,-0.079 0.008,-0.026 0.02,-0.05 0.036,-0.072 C 0.158,-0.622 0.147,-0.632 0.138,-0.645 0.129,-0.658 0.125,-0.672 0.125,-0.688 V -0.72 c 0,-0.026 0.005,-0.051 0.015,-0.074 0.01,-0.024 0.024,-0.044 0.042,-0.062 0.017,-0.018 0.038,-0.031 0.061,-0.041 0.024,-0.011 0.049,-0.016 0.075,-0.016 h 0.024 c 0.023,0 0.045,0.005 0.066,0.014 0.02,0.009 0.038,0.021 0.053,0.036 0.016,0.016 0.028,0.033 0.037,0.054 0.009,0.02 0.013,0.042 0.013,0.066 0,0.022 -0.004,0.044 -0.012,0.064 -0.009,0.02 -0.02,0.038 -0.036,0.054 0.021,-0.005 0.042,-0.007 0.062,-0.007 0.028,0 0.055,0.004 0.081,0.013 0.026,0.008 0.051,0.019 0.073,0.034 0.022,0.015 0.043,0.033 0.061,0.053 0.018,0.02 0.034,0.043 0.046,0.067 0.013,0.024 0.023,0.049 0.03,0.076 0.007,0.027 0.011,0.054 0.011,0.081 z"
         style="fill-rule:nonzero"
         id="path8234" /><path
         d="m 0.525,-0.562 c 0.033,0 0.064,0.008 0.092,0.022 0.028,0.015 0.053,0.034 0.073,0.058 0.021,0.023 0.038,0.05 0.049,0.081 0.012,0.03 0.018,0.061 0.018,0.093 v 0.062 c -0.01,0 -0.018,-0.003 -0.024,-0.009 C 0.726,-0.261 0.722,-0.269 0.722,-0.278 v 0.032 c -0.01,0 -0.018,-0.003 -0.025,-0.01 C 0.69,-0.263 0.687,-0.271 0.687,-0.281 H 0.579 l -0.003,0.005 0.084,0.084 c 0.003,-0.001 0.006,-0.001 0.009,-0.001 0.009,0 0.018,0.003 0.025,0.01 0.007,0.007 0.01,0.015 0.01,0.025 0,0.01 -0.003,0.018 -0.01,0.025 -0.007,0.007 -0.015,0.01 -0.025,0.01 -0.009,0 -0.017,-0.003 -0.023,-0.009 L 0.371,-0.04 V 0 C 0.361,0 0.353,-0.003 0.346,-0.01 0.339,-0.017 0.335,-0.026 0.335,-0.035 v -0.017 c 0,-0.004 0.002,-0.008 0.004,-0.011 0.002,-0.003 0.005,-0.005 0.009,-0.006 L 0.635,-0.165 V -0.167 L 0.551,-0.251 C 0.548,-0.248 0.543,-0.247 0.539,-0.247 0.535,-0.247 0.531,-0.248 0.527,-0.251 0.523,-0.254 0.52,-0.257 0.516,-0.26 L 0.497,-0.281 H 0.494 l -0.001,0.014 c 0,0.003 0,0.006 -0.002,0.009 C 0.49,-0.255 0.489,-0.252 0.486,-0.25 0.484,-0.248 0.48,-0.247 0.476,-0.246 L 0.458,-0.234 0.441,-0.246 C 0.436,-0.247 0.433,-0.248 0.431,-0.25 0.428,-0.252 0.427,-0.255 0.426,-0.258 0.424,-0.261 0.424,-0.264 0.424,-0.267 L 0.423,-0.281 H 0.371 c -0.025,0 -0.049,-0.005 -0.07,-0.015 C 0.279,-0.306 0.261,-0.319 0.245,-0.336 0.229,-0.353 0.217,-0.373 0.208,-0.395 0.2,-0.418 0.195,-0.441 0.195,-0.465 0.195,-0.49 0.2,-0.515 0.21,-0.538 0.22,-0.562 0.233,-0.583 0.251,-0.6 L 0.367,-0.716 C 0.369,-0.718 0.371,-0.721 0.371,-0.725 0.371,-0.728 0.369,-0.731 0.367,-0.734 0.365,-0.736 0.362,-0.737 0.358,-0.737 L 0.329,-0.738 c -0.005,0 -0.01,0 -0.015,0.001 -0.004,0 -0.009,0.001 -0.014,0.001 L 0.278,-0.794 0.3,-0.841 c 0.003,-0.001 0.006,-0.001 0.009,-0.001 0.003,0 0.006,0 0.009,0 h 0.024 c 0.013,0 0.026,0.002 0.038,0.008 0.012,0.005 0.023,0.012 0.032,0.021 0.009,0.009 0.016,0.019 0.021,0.031 0.005,0.012 0.008,0.025 0.008,0.039 0,0.013 -0.003,0.026 -0.008,0.038 -0.005,0.012 -0.012,0.023 -0.021,0.032 l -0.131,0.131 c -0.005,0.005 -0.009,0.01 -0.011,0.016 -0.003,0.006 -0.005,0.013 -0.005,0.02 0,0.006 0.001,0.013 0.004,0.019 0.003,0.006 0.006,0.011 0.011,0.016 0.005,0.005 0.01,0.008 0.016,0.011 0.006,0.003 0.013,0.004 0.019,0.004 0.007,0 0.014,-0.002 0.02,-0.004 0.006,-0.003 0.012,-0.007 0.016,-0.012 l 0.03,-0.03 c 0.02,-0.019 0.042,-0.034 0.066,-0.044 0.025,-0.01 0.051,-0.016 0.078,-0.016 z"
         style="fill:#ef6950;fill-rule:nonzero"
         id="path8236" /><path
         d="M 0.52,-0.316 C 0.505,-0.316 0.492,-0.319 0.479,-0.324 0.466,-0.33 0.455,-0.337 0.445,-0.347 0.436,-0.356 0.428,-0.367 0.423,-0.38 0.417,-0.393 0.415,-0.407 0.415,-0.421 c 0,-0.016 0.002,-0.03 0.008,-0.043 0.006,-0.013 0.014,-0.024 0.024,-0.033 0.009,-0.01 0.021,-0.017 0.035,-0.022 0.013,-0.005 0.028,-0.007 0.043,-0.007 0.027,0 0.053,0.006 0.076,0.018 0.024,0.012 0.045,0.028 0.062,0.048 0.018,0.019 0.032,0.042 0.042,0.067 0.01,0.025 0.016,0.051 0.017,0.077 z m -0.044,0.198 c 0.006,0.003 0.01,0.007 0.013,0.013 0.003,0.005 0.005,0.011 0.005,0.017 0,0.006 -0.002,0.012 -0.005,0.017 -0.003,0.006 -0.007,0.01 -0.013,0.013 V 0.14 h -0.07 c 0,-0.009 0.003,-0.018 0.01,-0.025 0.007,-0.007 0.015,-0.01 0.025,-0.01 V -0.058 C 0.435,-0.061 0.431,-0.065 0.428,-0.07 0.425,-0.075 0.423,-0.081 0.423,-0.088 c 0,-0.006 0.002,-0.012 0.005,-0.017 0.003,-0.006 0.007,-0.01 0.013,-0.013 v -0.128 c 0.001,0 0.003,0 0.006,0.001 0.003,0 0.007,0 0.011,0 0.005,0 0.009,0 0.012,0 0.003,-0.001 0.005,-0.001 0.006,-0.001 z"
         style="fill:#ee9889;fill-rule:nonzero"
         id="path8238" /><path
         d="m 0.195,-0.72 c 0,-0.023 0.007,-0.045 0.019,-0.065 0.013,-0.02 0.03,-0.035 0.051,-0.046 l 0.022,0.054 -0.022,0.051 C 0.259,-0.723 0.253,-0.72 0.249,-0.717 0.244,-0.713 0.24,-0.71 0.236,-0.707 0.232,-0.703 0.227,-0.699 0.223,-0.695 0.219,-0.691 0.215,-0.687 0.21,-0.682 0.207,-0.68 0.205,-0.679 0.204,-0.679 0.201,-0.679 0.199,-0.68 0.198,-0.682 0.196,-0.683 0.195,-0.685 0.195,-0.688 Z"
         style="fill:#757575;fill-rule:nonzero"
         id="path8240" /><path
         d="m 0.318,-0.825 c 0.01,0 0.018,0.004 0.025,0.011 0.007,0.006 0.01,0.015 0.01,0.024 0,0.01 -0.003,0.018 -0.01,0.025 -0.007,0.007 -0.016,0.01 -0.025,0.01 H 0.3 v 0.019 c -0.012,0.002 -0.024,0.005 -0.035,0.01 V -0.831 C 0.276,-0.836 0.288,-0.839 0.3,-0.841 v 0.016 z"
         style="fill:#f2f2f2;fill-rule:nonzero"
         id="path8242" /><path
         d="m 0.335,-0.79 c 0,0.005 -0.001,0.009 -0.005,0.013 -0.004,0.003 -0.008,0.005 -0.012,0.005 -0.005,0 -0.009,-0.002 -0.012,-0.005 C 0.302,-0.781 0.3,-0.785 0.3,-0.79 c 0,-0.004 0.002,-0.009 0.005,-0.012 0.004,-0.003 0.008,-0.005 0.013,-0.005 0.005,0 0.009,0.002 0.012,0.005 0.004,0.003 0.005,0.008 0.005,0.012 z"
         style="fill-rule:nonzero"
         id="path8244" /></g></g></svg>
