<?xml version="1.0" encoding="UTF-8" standalone="no"?>
<svg
   width="14.835"
   height="16.844999"
   viewBox="0 0 14.835 16.844999"
   version="1.1"
   xml:space="preserve"
   style="clip-rule:evenodd;fill-rule:evenodd;stroke-linejoin:round;stroke-miterlimit:2"
   id="svg20568"
   sodipodi:docname="emojis.svg"
   xmlns:inkscape="http://www.inkscape.org/namespaces/inkscape"
   xmlns:sodipodi="http://sodipodi.sourceforge.net/DTD/sodipodi-0.dtd"
   xmlns="http://www.w3.org/2000/svg"
   xmlns:svg="http://www.w3.org/2000/svg"><defs
     id="defs20572" /><sodipodi:namedview
     id="namedview20570"
     pagecolor="#505050"
     bordercolor="#eeeeee"
     borderopacity="1"
     inkscape:pageshadow="0"
     inkscape:pageopacity="0"
     inkscape:pagecheckerboard="0" /><g
     transform="matrix(0.24,0,0,0.24,-48.09156,-404.7618)"
     id="g20566"><g
       transform="matrix(62.5,0,0,62.5,192.569,1743.57)"
       id="g8282"><path
         d="M 0.989,0.21 C 0.971,0.21 0.954,0.207 0.938,0.201 0.921,0.194 0.906,0.185 0.893,0.173 0.871,0.169 0.851,0.161 0.834,0.148 0.817,0.135 0.803,0.118 0.793,0.098 L 0.726,-0.035 H 0.265 v -0.07 c 0,-0.015 0.003,-0.029 0.008,-0.041 C 0.279,-0.159 0.287,-0.17 0.296,-0.18 0.306,-0.189 0.317,-0.197 0.33,-0.202 0.342,-0.208 0.356,-0.21 0.371,-0.21 H 0.405 L 0.424,-0.244 C 0.386,-0.278 0.357,-0.319 0.336,-0.365 0.314,-0.411 0.303,-0.46 0.301,-0.511 l -0.07,-0.03 C 0.215,-0.548 0.201,-0.557 0.188,-0.568 0.174,-0.579 0.163,-0.591 0.154,-0.605 0.145,-0.619 0.138,-0.635 0.133,-0.651 0.128,-0.668 0.125,-0.685 0.125,-0.702 c 0,-0.029 0.006,-0.057 0.017,-0.082 0.011,-0.026 0.026,-0.048 0.045,-0.067 0.019,-0.019 0.041,-0.034 0.067,-0.045 0.025,-0.011 0.052,-0.017 0.081,-0.017 0.014,0 0.028,0 0.041,0.001 0.014,0 0.027,0.001 0.041,0.002 0.017,0.002 0.033,0.006 0.05,0.011 0.017,0.006 0.033,0.012 0.049,0.021 0.016,0.008 0.031,0.017 0.045,0.027 0.014,0.011 0.027,0.022 0.039,0.034 l 0.138,0.137 c 0.031,0.032 0.059,0.066 0.084,0.102 0.024,0.037 0.044,0.075 0.06,0.115 0.017,0.04 0.029,0.082 0.037,0.124 0.009,0.043 0.013,0.087 0.013,0.131 V -0.2 L 1.114,0.164 C 1.104,0.169 1.095,0.175 1.084,0.18 1.074,0.185 1.064,0.19 1.054,0.195 1.044,0.199 1.033,0.203 1.022,0.206 1.011,0.209 1,0.21 0.989,0.21 Z"
         style="fill-rule:nonzero"
         id="path8264" /><path
         d="M 0.739,-0.323 0.95,0.098 C 0.94,0.103 0.93,0.105 0.918,0.105 0.905,0.105 0.893,0.101 0.881,0.094 0.87,0.087 0.861,0.078 0.855,0.066 L 0.803,-0.039 0.817,-0.064 0.786,-0.097 C 0.779,-0.105 0.773,-0.111 0.767,-0.117 0.762,-0.123 0.759,-0.127 0.758,-0.128 0.755,-0.133 0.752,-0.138 0.75,-0.142 0.748,-0.146 0.746,-0.151 0.744,-0.155 L 0.731,-0.183 0.676,-0.292 Z"
         style="fill:#af0d1a;fill-rule:nonzero"
         id="path8266" /><path
         d="m 0.844,-0.113 0.053,0.106 C 0.887,-0.002 0.877,0 0.866,0 0.853,0 0.84,-0.004 0.829,-0.011 0.817,-0.018 0.809,-0.027 0.803,-0.039 L 0.758,-0.128 c 0.007,0.007 0.015,0.013 0.024,0.017 0.01,0.004 0.019,0.006 0.03,0.006 0.01,0 0.021,-0.003 0.032,-0.008 z"
         style="fill:#0063b1;fill-rule:nonzero"
         id="path8268" /><path
         d="M 0.357,-0.723 0.214,-0.772 c 0.013,-0.022 0.03,-0.039 0.051,-0.052 0.022,-0.012 0.045,-0.018 0.07,-0.018 h 0.038 c 0.033,0 0.065,0.006 0.096,0.019 0.031,0.013 0.058,0.031 0.081,0.055 l 0.101,0.101 c 0.033,0.077 0.066,0.153 0.098,0.229 0.032,0.075 0.065,0.151 0.099,0.228 0.01,0.022 0.021,0.044 0.033,0.066 0.011,0.022 0.022,0.044 0.034,0.066 V -0.02 L 0.967,0.027 1.02,0.133 C 1.01,0.138 1,0.14 0.988,0.14 0.975,0.14 0.963,0.137 0.951,0.13 0.94,0.123 0.932,0.114 0.926,0.102 L 0.873,-0.004 0.884,-0.029 C 0.881,-0.032 0.877,-0.037 0.871,-0.042 0.866,-0.048 0.86,-0.055 0.855,-0.061 0.849,-0.068 0.844,-0.074 0.839,-0.08 0.834,-0.085 0.831,-0.09 0.829,-0.093 0.824,-0.1 0.821,-0.107 0.818,-0.112 0.816,-0.118 0.813,-0.124 0.809,-0.132 L 0.77,-0.21 H 0.713 c -0.014,0 -0.028,0 -0.042,-0.001 C 0.657,-0.212 0.644,-0.213 0.63,-0.215 0.617,-0.218 0.603,-0.221 0.589,-0.226 0.575,-0.23 0.561,-0.236 0.545,-0.244 L 0.521,-0.238 0.515,-0.261 C 0.493,-0.276 0.472,-0.293 0.455,-0.312 0.437,-0.332 0.422,-0.353 0.409,-0.375 0.397,-0.398 0.387,-0.422 0.381,-0.448 0.374,-0.474 0.371,-0.5 0.371,-0.526 l 0.011,-0.045 0.014,-0.048 z"
         style="fill:#e81224;fill-rule:nonzero"
         id="path8270" /><path
         d="m 0.845,-0.352 c 0.006,0.024 0.01,0.047 0.013,0.071 0.002,0.023 0.004,0.047 0.004,0.071 C 0.833,-0.21 0.806,-0.216 0.78,-0.227 0.754,-0.238 0.732,-0.253 0.713,-0.272 0.694,-0.291 0.679,-0.314 0.668,-0.339 0.657,-0.365 0.651,-0.392 0.651,-0.421 v -0.141 z m 0.07,0.274 0.052,0.105 C 0.958,0.032 0.947,0.035 0.936,0.035 0.923,0.035 0.91,0.031 0.899,0.024 0.888,0.017 0.879,0.008 0.873,-0.004 L 0.829,-0.093 c 0.006,0.007 0.015,0.013 0.024,0.017 0.009,0.004 0.019,0.006 0.029,0.006 0.011,0 0.021,-0.003 0.033,-0.008 z"
         style="fill:#0078d7;fill-rule:nonzero"
         id="path8272" /><path
         d="M 0.424,-0.734 0.418,-0.652 0.365,-0.604 C 0.363,-0.613 0.36,-0.623 0.356,-0.632 0.352,-0.641 0.347,-0.65 0.342,-0.658 L 0.2,-0.737 c 0,-0.001 0,-0.004 0.001,-0.007 0.002,-0.003 0.003,-0.007 0.005,-0.011 0.001,-0.003 0.003,-0.007 0.004,-0.01 0.002,-0.003 0.003,-0.005 0.004,-0.007 0.01,0 0.018,-0.001 0.024,-0.003 C 0.244,-0.776 0.249,-0.779 0.254,-0.781 0.258,-0.784 0.262,-0.787 0.265,-0.79 0.269,-0.792 0.272,-0.795 0.276,-0.798 0.28,-0.8 0.284,-0.803 0.289,-0.804 0.294,-0.806 0.3,-0.807 0.308,-0.807 h 0.063 z"
         style="fill:#f2f2f2;fill-rule:nonzero"
         id="path8274" /><path
         d="m 0.458,-0.721 c 0,0.013 -0.002,0.025 -0.008,0.036 l -0.079,0.159 v -0.019 c 0,-0.01 -0.001,-0.02 -0.001,-0.029 -0.001,-0.01 -0.002,-0.02 -0.005,-0.03 0.002,-0.004 0.005,-0.01 0.01,-0.018 C 0.379,-0.63 0.384,-0.639 0.388,-0.648 0.393,-0.657 0.397,-0.665 0.401,-0.673 0.404,-0.681 0.406,-0.687 0.406,-0.691 0.406,-0.697 0.404,-0.702 0.4,-0.707 0.396,-0.711 0.392,-0.715 0.388,-0.719 0.384,-0.724 0.38,-0.728 0.376,-0.733 0.372,-0.738 0.371,-0.744 0.371,-0.751 v -0.056 h 0.01 c 0.006,0 0.012,0.001 0.016,0.002 0.005,0.002 0.01,0.004 0.014,0.006 0.004,0.003 0.008,0.006 0.012,0.009 0.003,0.004 0.007,0.007 0.012,0.012 0.016,0.016 0.023,0.035 0.023,0.057 z"
         style="fill:#383838;fill-rule:nonzero"
         id="path8276" /><path
         d="M 0.342,-0.658 C 0.336,-0.65 0.329,-0.643 0.32,-0.639 0.311,-0.634 0.302,-0.632 0.292,-0.632 0.283,-0.632 0.276,-0.633 0.268,-0.637 0.261,-0.64 0.254,-0.644 0.249,-0.65 0.248,-0.648 0.248,-0.647 0.248,-0.645 v 0.004 c 0,0.014 0.004,0.026 0.011,0.036 C 0.24,-0.613 0.224,-0.626 0.213,-0.644 0.201,-0.662 0.195,-0.681 0.195,-0.702 c 0,-0.012 0.002,-0.023 0.005,-0.035 0.028,0.001 0.055,0.008 0.081,0.022 0.025,0.014 0.045,0.033 0.061,0.057 z m 0.244,0.517 h 0.065 c 0.01,0 0.018,0.004 0.025,0.011 0.007,0.006 0.011,0.015 0.011,0.025 H 0.335 c 0,-0.01 0.004,-0.019 0.011,-0.025 0.007,-0.007 0.015,-0.011 0.025,-0.011 h 0.075 l 0.069,-0.12 c 0.005,0.003 0.01,0.006 0.015,0.009 0.005,0.003 0.01,0.006 0.015,0.008 l -0.059,0.103 h 0.06 l 0.06,-0.105 H 0.647 Z M 0.845,-0.352 C 0.817,-0.354 0.792,-0.361 0.769,-0.373 0.745,-0.385 0.725,-0.4 0.707,-0.419 0.69,-0.438 0.676,-0.459 0.666,-0.484 0.656,-0.508 0.651,-0.534 0.651,-0.562 v -0.105 l 0.037,0.037 c 0.039,0.039 0.071,0.082 0.098,0.128 0.026,0.047 0.046,0.097 0.059,0.15 z"
         style="fill:#ffb900;fill-rule:nonzero"
         id="path8278" /><path
         d="m 0.335,-0.755 c 0,0.005 -0.001,0.009 -0.005,0.013 -0.003,0.003 -0.007,0.005 -0.012,0.005 -0.005,0 -0.009,-0.002 -0.013,-0.005 C 0.302,-0.746 0.3,-0.75 0.3,-0.755 c 0,-0.004 0.002,-0.008 0.006,-0.012 0.003,-0.003 0.007,-0.005 0.012,-0.005 0.004,0 0.008,0.002 0.012,0.005 0.004,0.004 0.005,0.008 0.005,0.012 z"
         style="fill-rule:nonzero"
         id="path8280" /></g></g></svg>
