<?xml version="1.0" encoding="UTF-8" standalone="no"?>
<svg
   width="16.844999"
   height="14.73"
   viewBox="0 0 16.844999 14.73"
   version="1.1"
   xml:space="preserve"
   style="clip-rule:evenodd;fill-rule:evenodd;stroke-linejoin:round;stroke-miterlimit:2"
   id="svg20568"
   sodipodi:docname="emojis.svg"
   xmlns:inkscape="http://www.inkscape.org/namespaces/inkscape"
   xmlns:sodipodi="http://sodipodi.sourceforge.net/DTD/sodipodi-0.dtd"
   xmlns="http://www.w3.org/2000/svg"
   xmlns:svg="http://www.w3.org/2000/svg"><defs
     id="defs20572" /><sodipodi:namedview
     id="namedview20570"
     pagecolor="#505050"
     bordercolor="#eeeeee"
     borderopacity="1"
     inkscape:pageshadow="0"
     inkscape:pageopacity="0"
     inkscape:pagecheckerboard="0" /><g
     transform="matrix(0.24,0,0,0.24,-66.68028,-405.8268)"
     id="g20566"><g
       transform="matrix(62.5,0,0,62.5,270.022,1743.57)"
       id="g8294"><path
         d="M 0.687,0.14 C 0.639,0.14 0.591,0.135 0.543,0.124 0.494,0.114 0.448,0.098 0.402,0.078 0.357,0.058 0.314,0.034 0.274,0.005 0.234,-0.024 0.199,-0.058 0.169,-0.095 0.16,-0.106 0.153,-0.116 0.147,-0.126 0.141,-0.137 0.137,-0.147 0.133,-0.157 0.13,-0.167 0.128,-0.178 0.126,-0.189 0.125,-0.201 0.125,-0.214 0.125,-0.228 c 0,-0.021 0,-0.039 0.001,-0.054 0.001,-0.016 0.003,-0.029 0.005,-0.04 0.002,-0.012 0.005,-0.022 0.01,-0.031 0.004,-0.01 0.009,-0.019 0.016,-0.029 0.006,-0.01 0.014,-0.02 0.023,-0.032 C 0.19,-0.426 0.201,-0.44 0.213,-0.457 0.205,-0.474 0.201,-0.492 0.198,-0.51 0.196,-0.527 0.195,-0.546 0.195,-0.565 v -0.049 c 0,-0.032 0.006,-0.061 0.018,-0.089 0.012,-0.028 0.028,-0.052 0.049,-0.073 0.021,-0.02 0.045,-0.037 0.072,-0.048 0.028,-0.012 0.058,-0.018 0.089,-0.018 0.023,0 0.045,0.003 0.067,0.01 0.021,0.006 0.041,0.016 0.059,0.028 0.019,0.012 0.035,0.027 0.049,0.044 0.015,0.017 0.027,0.037 0.035,0.058 H 0.74 c 0.009,-0.021 0.02,-0.041 0.035,-0.058 0.014,-0.017 0.031,-0.032 0.049,-0.044 0.018,-0.012 0.038,-0.022 0.059,-0.028 0.022,-0.007 0.044,-0.01 0.067,-0.01 0.031,0 0.061,0.006 0.089,0.018 0.027,0.011 0.051,0.028 0.072,0.048 0.021,0.021 0.037,0.045 0.049,0.073 0.012,0.028 0.018,0.057 0.018,0.089 v 0.07 c 0,0.031 -0.006,0.06 -0.018,0.087 0.011,0.014 0.021,0.028 0.031,0.041 0.011,0.013 0.02,0.027 0.029,0.041 0.008,0.014 0.015,0.028 0.02,0.044 0.005,0.015 0.008,0.032 0.008,0.05 v 0.071 c 0,0.021 -0.004,0.042 -0.012,0.063 -0.008,0.02 -0.019,0.038 -0.033,0.055 C 1.171,-0.056 1.135,-0.023 1.096,0.006 1.056,0.035 1.014,0.059 0.97,0.079 0.926,0.099 0.879,0.114 0.831,0.125 0.783,0.135 0.735,0.14 0.687,0.14 Z"
         style="fill-rule:nonzero"
         id="path8284" /><path
         d="m 1.077,-0.451 0.082,0.111 c 0.007,0.008 0.011,0.018 0.014,0.028 0.003,0.01 0.005,0.02 0.005,0.031 -0.008,0.01 -0.015,0.019 -0.022,0.03 -0.008,0.01 -0.016,0.019 -0.024,0.027 -0.003,0.003 -0.006,0.005 -0.009,0.007 L 1.112,-0.208 C 1.102,-0.201 1.093,-0.193 1.083,-0.184 1.074,-0.176 1.066,-0.167 1.057,-0.158 1.039,-0.139 1.022,-0.123 1.007,-0.11 0.991,-0.096 0.976,-0.085 0.961,-0.076 0.946,-0.067 0.93,-0.06 0.915,-0.055 0.9,-0.05 0.884,-0.045 0.866,-0.043 0.849,-0.04 0.83,-0.038 0.81,-0.037 c -0.021,0 -0.043,0.001 -0.068,0.001 H 0.684 C 0.645,-0.036 0.607,-0.037 0.572,-0.039 0.536,-0.041 0.502,-0.047 0.469,-0.056 0.435,-0.066 0.403,-0.08 0.372,-0.099 0.341,-0.118 0.311,-0.144 0.281,-0.177 0.275,-0.184 0.269,-0.191 0.264,-0.198 0.258,-0.205 0.253,-0.212 0.247,-0.219 L 0.195,-0.281 c 0,-0.01 0.002,-0.02 0.005,-0.031 0.003,-0.011 0.007,-0.02 0.013,-0.028 L 0.296,-0.451 C 0.283,-0.469 0.274,-0.487 0.271,-0.505 0.267,-0.523 0.265,-0.543 0.265,-0.565 v -0.049 c 0,-0.022 0.004,-0.042 0.013,-0.062 0.008,-0.019 0.019,-0.035 0.034,-0.05 0.014,-0.014 0.031,-0.025 0.05,-0.034 0.019,-0.008 0.04,-0.012 0.061,-0.012 0.02,0 0.039,0.004 0.057,0.011 0.018,0.007 0.034,0.017 0.048,0.029 0.014,0.013 0.025,0.028 0.034,0.045 0.01,0.017 0.015,0.035 0.018,0.055 0.001,0.004 0.003,0.008 0.005,0.013 0.002,0.005 0.005,0.009 0.008,0.014 0.003,0.004 0.007,0.008 0.01,0.011 0.004,0.003 0.008,0.004 0.013,0.004 0.004,0 0.008,-0.001 0.012,-0.004 0.004,-0.004 0.007,-0.007 0.01,-0.012 0.004,-0.004 0.006,-0.009 0.008,-0.013 0.003,-0.005 0.004,-0.009 0.005,-0.013 h 0.071 c 0.001,0.004 0.002,0.009 0.004,0.013 0.002,0.004 0.004,0.009 0.007,0.012 0.003,0.004 0.007,0.007 0.011,0.01 0.004,0.002 0.008,0.003 0.013,0.003 0.005,0 0.009,-0.001 0.013,-0.003 C 0.774,-0.6 0.777,-0.603 0.78,-0.607 0.783,-0.61 0.785,-0.615 0.787,-0.619 0.789,-0.624 0.791,-0.628 0.792,-0.632 H 0.793 C 0.796,-0.652 0.801,-0.67 0.81,-0.687 0.819,-0.704 0.831,-0.719 0.845,-0.732 0.859,-0.744 0.875,-0.754 0.893,-0.761 0.91,-0.768 0.93,-0.772 0.95,-0.772 c 0.022,0 0.042,0.004 0.061,0.012 0.019,0.009 0.036,0.02 0.05,0.034 0.014,0.015 0.026,0.031 0.034,0.05 0.008,0.02 0.012,0.04 0.012,0.062 l 0.001,0.049 c 0,0.022 -0.002,0.042 -0.006,0.06 -0.004,0.019 -0.012,0.037 -0.025,0.054 z"
         style="fill:#73aa24;fill-rule:nonzero"
         id="path8286" /><path
         d="m 0.95,-0.702 c 0.012,0 0.023,0.002 0.034,0.007 0.011,0.004 0.02,0.011 0.028,0.018 0.008,0.008 0.014,0.018 0.019,0.029 0.004,0.01 0.007,0.022 0.007,0.034 v 0.07 c 0,0.012 -0.003,0.023 -0.007,0.034 C 1.026,-0.499 1.02,-0.49 1.012,-0.482 1.004,-0.474 0.995,-0.468 0.984,-0.463 0.973,-0.459 0.962,-0.457 0.95,-0.457 0.938,-0.457 0.926,-0.459 0.916,-0.463 0.905,-0.468 0.895,-0.474 0.887,-0.482 0.879,-0.49 0.873,-0.499 0.869,-0.51 0.864,-0.521 0.862,-0.532 0.862,-0.544 v -0.07 c 0,-0.012 0.002,-0.024 0.007,-0.034 0.004,-0.011 0.01,-0.021 0.018,-0.029 C 0.895,-0.684 0.905,-0.691 0.915,-0.695 0.926,-0.7 0.937,-0.702 0.95,-0.702 Z m -0.527,0 c 0.012,0 0.024,0.002 0.035,0.007 0.01,0.004 0.02,0.011 0.028,0.018 0.008,0.008 0.014,0.018 0.018,0.029 0.005,0.01 0.007,0.022 0.007,0.034 v 0.07 c 0,0.012 -0.002,0.023 -0.007,0.034 C 0.5,-0.499 0.494,-0.49 0.486,-0.482 0.478,-0.474 0.468,-0.468 0.458,-0.463 0.447,-0.459 0.435,-0.457 0.423,-0.457 0.411,-0.457 0.4,-0.459 0.389,-0.463 0.378,-0.468 0.369,-0.474 0.361,-0.482 0.353,-0.49 0.347,-0.499 0.342,-0.51 0.338,-0.521 0.335,-0.532 0.335,-0.544 v -0.07 c 0,-0.012 0.003,-0.024 0.007,-0.034 0.005,-0.011 0.011,-0.021 0.019,-0.029 0.008,-0.007 0.017,-0.014 0.028,-0.018 0.01,-0.005 0.022,-0.007 0.034,-0.007 z"
         style="fill:#ffb900;fill-rule:nonzero"
         id="path8288" /><path
         d="m 0.95,-0.667 c 0.007,0 0.014,0.001 0.02,0.004 0.007,0.003 0.012,0.007 0.017,0.011 0.005,0.005 0.009,0.011 0.011,0.017 0.003,0.007 0.004,0.014 0.004,0.021 v 0.07 c 0,0.007 -0.001,0.014 -0.004,0.02 -0.002,0.007 -0.006,0.012 -0.011,0.017 -0.005,0.005 -0.011,0.009 -0.017,0.012 -0.006,0.002 -0.013,0.004 -0.02,0.004 -0.007,0 -0.014,-0.002 -0.021,-0.004 C 0.923,-0.498 0.917,-0.502 0.913,-0.507 0.908,-0.512 0.904,-0.517 0.901,-0.524 0.898,-0.53 0.897,-0.537 0.897,-0.544 v -0.07 c 0,-0.007 0.001,-0.014 0.004,-0.021 0.003,-0.006 0.007,-0.012 0.011,-0.017 0.005,-0.004 0.011,-0.008 0.017,-0.011 0.006,-0.003 0.013,-0.004 0.021,-0.004 z m -0.158,0.281 c 0.009,0 0.018,0.003 0.024,0.01 0.007,0.007 0.011,0.015 0.011,0.025 v 0.035 c 0,0.01 -0.004,0.018 -0.011,0.025 -0.006,0.007 -0.015,0.01 -0.024,0.01 -0.01,0 -0.018,-0.003 -0.025,-0.01 -0.007,-0.007 -0.01,-0.015 -0.01,-0.025 v -0.035 c 0,-0.01 0.003,-0.018 0.01,-0.025 0.007,-0.007 0.015,-0.01 0.025,-0.01 z M 0.423,-0.667 c 0.008,0 0.014,0.001 0.021,0.004 0.006,0.003 0.012,0.007 0.016,0.012 0.005,0.005 0.009,0.01 0.012,0.016 0.003,0.007 0.004,0.014 0.004,0.021 v 0.07 c 0,0.007 -0.001,0.014 -0.004,0.02 -0.003,0.007 -0.007,0.012 -0.012,0.017 -0.004,0.005 -0.01,0.009 -0.016,0.012 -0.007,0.002 -0.013,0.004 -0.021,0.004 -0.007,0 -0.014,-0.002 -0.02,-0.004 C 0.397,-0.498 0.391,-0.502 0.386,-0.507 0.381,-0.512 0.378,-0.517 0.375,-0.524 0.372,-0.53 0.371,-0.537 0.371,-0.544 v -0.07 c 0,-0.007 0.001,-0.014 0.004,-0.021 0.003,-0.006 0.006,-0.012 0.011,-0.017 0.005,-0.004 0.01,-0.008 0.017,-0.011 0.006,-0.003 0.013,-0.004 0.02,-0.004 z m 0.158,0.281 c 0.01,0 0.018,0.003 0.025,0.01 0.007,0.007 0.01,0.015 0.01,0.025 v 0.035 c 0,0.01 -0.003,0.018 -0.01,0.025 -0.007,0.007 -0.015,0.01 -0.025,0.01 -0.009,0 -0.018,-0.003 -0.025,-0.01 -0.007,-0.007 -0.01,-0.015 -0.01,-0.025 v -0.035 c 0,-0.01 0.003,-0.018 0.01,-0.025 0.007,-0.007 0.016,-0.01 0.025,-0.01 z"
         style="fill-rule:nonzero"
         id="path8290" /><path
         d="m 1.178,-0.281 v 0.071 c 0,0.015 -0.003,0.028 -0.009,0.04 C 1.164,-0.158 1.156,-0.147 1.146,-0.136 1.118,-0.103 1.085,-0.074 1.05,-0.048 1.015,-0.023 0.978,-0.001 0.938,0.017 0.899,0.034 0.858,0.048 0.816,0.057 0.773,0.066 0.73,0.07 0.687,0.07 0.643,0.07 0.6,0.066 0.557,0.057 0.515,0.048 0.474,0.034 0.435,0.017 0.395,-0.001 0.358,-0.023 0.323,-0.048 0.287,-0.074 0.255,-0.103 0.227,-0.136 0.217,-0.147 0.21,-0.158 0.204,-0.17 0.198,-0.182 0.195,-0.195 0.195,-0.21 v -0.071 h 0.088 c 0.013,0 0.025,0.003 0.035,0.008 0.01,0.005 0.02,0.012 0.03,0.022 l 0.119,0.12 c 0.016,0.017 0.037,0.026 0.062,0.026 h 0.315 c 0.025,0 0.046,-0.009 0.062,-0.026 l 0.119,-0.12 c 0.01,-0.01 0.02,-0.017 0.03,-0.022 0.01,-0.005 0.022,-0.008 0.035,-0.008 z m -0.562,-0.14 c -0.01,0 -0.018,-0.004 -0.025,-0.011 -0.007,-0.006 -0.01,-0.015 -0.01,-0.025 v -0.175 h 0.07 v 0.175 c 0,0.01 -0.003,0.019 -0.01,0.025 -0.007,0.007 -0.015,0.011 -0.025,0.011 z m 0.141,0 c -0.01,0 -0.018,-0.004 -0.025,-0.011 -0.007,-0.006 -0.01,-0.015 -0.01,-0.025 v -0.175 h 0.07 v 0.175 c 0,0.01 -0.004,0.018 -0.011,0.025 -0.007,0.007 -0.015,0.011 -0.024,0.011 z"
         style="fill:#bad80a;fill-rule:nonzero"
         id="path8292" /></g></g></svg>
