<?xml version="1.0" encoding="UTF-8" standalone="no"?>
<svg
   width="16.844999"
   height="13.155"
   viewBox="0 0 16.844999 13.155"
   version="1.1"
   xml:space="preserve"
   style="clip-rule:evenodd;fill-rule:evenodd;stroke-linejoin:round;stroke-miterlimit:2"
   id="svg20568"
   sodipodi:docname="emojis.svg"
   xmlns:inkscape="http://www.inkscape.org/namespaces/inkscape"
   xmlns:sodipodi="http://sodipodi.sourceforge.net/DTD/sodipodi-0.dtd"
   xmlns="http://www.w3.org/2000/svg"
   xmlns:svg="http://www.w3.org/2000/svg"><defs
     id="defs20572" /><sodipodi:namedview
     id="namedview20570"
     pagecolor="#505050"
     bordercolor="#eeeeee"
     borderopacity="1"
     inkscape:pageshadow="0"
     inkscape:pageopacity="0"
     inkscape:pagecheckerboard="0" /><g
     transform="matrix(0.24,0,0,0.24,-107.87172,-408.4518)"
     id="g20566"><g
       transform="matrix(62.5,0,0,62.5,441.653,1743.57)"
       id="g8324"><path
         d="M 1.038,0.21 C 1.023,0.21 1.009,0.208 0.997,0.202 0.984,0.197 0.973,0.189 0.963,0.179 0.954,0.17 0.946,0.159 0.94,0.146 0.935,0.133 0.932,0.12 0.932,0.105 V 0.07 H 0.651 V 0.105 C 0.651,0.12 0.649,0.133 0.643,0.146 0.638,0.159 0.63,0.17 0.62,0.179 0.611,0.189 0.6,0.197 0.587,0.202 0.574,0.208 0.561,0.21 0.546,0.21 H 0.511 C 0.498,0.21 0.486,0.208 0.473,0.203 0.461,0.199 0.45,0.192 0.441,0.184 0.433,0.19 0.425,0.196 0.417,0.199 0.41,0.203 0.402,0.205 0.394,0.207 0.386,0.209 0.378,0.21 0.37,0.21 c -0.009,0 -0.018,0 -0.027,0 H 0.335 C 0.321,0.21 0.307,0.208 0.294,0.202 0.282,0.197 0.271,0.189 0.261,0.179 0.252,0.17 0.244,0.159 0.239,0.146 0.233,0.133 0.23,0.12 0.23,0.105 V 0.018 C 0.23,0.006 0.232,-0.007 0.234,-0.02 0.236,-0.032 0.24,-0.045 0.244,-0.057 0.249,-0.069 0.254,-0.08 0.261,-0.091 0.267,-0.102 0.275,-0.112 0.283,-0.121 0.277,-0.132 0.272,-0.144 0.27,-0.156 0.267,-0.169 0.265,-0.181 0.265,-0.193 v -0.158 h -0.14 v -0.14 c 0,-0.024 0.005,-0.047 0.014,-0.068 0.009,-0.022 0.022,-0.04 0.038,-0.056 0.015,-0.016 0.034,-0.029 0.055,-0.038 0.021,-0.009 0.044,-0.014 0.068,-0.014 h 0.035 c 0.02,0 0.038,0.003 0.056,0.008 0.018,0.005 0.035,0.012 0.051,0.021 0.016,0.01 0.03,0.021 0.044,0.034 0.013,0.014 0.024,0.029 0.034,0.045 0.026,-0.012 0.053,-0.021 0.081,-0.028 0.028,-0.006 0.057,-0.01 0.086,-0.01 h 0.14 c 0.035,0 0.069,0.005 0.102,0.014 0.033,0.01 0.064,0.023 0.092,0.039 0.029,0.017 0.055,0.037 0.078,0.061 0.024,0.023 0.044,0.049 0.061,0.078 0.017,0.028 0.03,0.059 0.039,0.092 0.009,0.032 0.014,0.067 0.014,0.102 v 0.027 c 0.011,0.01 0.02,0.022 0.026,0.036 0.006,0.013 0.009,0.028 0.009,0.043 0,0.011 -0.002,0.022 -0.005,0.032 -0.004,0.011 -0.009,0.02 -0.015,0.029 -0.007,0.009 -0.014,0.017 -0.023,0.023 -0.009,0.007 -0.018,0.012 -0.029,0.016 0.001,0.006 0.002,0.013 0.002,0.021 V 0.105 C 1.178,0.119 1.175,0.133 1.169,0.146 1.164,0.158 1.156,0.169 1.147,0.179 1.137,0.189 1.126,0.196 1.113,0.202 1.101,0.208 1.087,0.21 1.073,0.21 Z"
         style="fill-rule:nonzero"
         id="path8310" /><path
         d="m 0.546,0 v -0.21 l 0.105,0.105 H 1.038 V 0 Z"
         style="fill:#d48c00;fill-rule:nonzero"
         id="path8312" /><path
         d="m 1.143,-0.211 v 0.106 H 0.651 l -0.28,-0.106 c 0,-0.044 0.008,-0.084 0.025,-0.123 0.016,-0.038 0.039,-0.071 0.067,-0.1 0.029,-0.029 0.062,-0.051 0.1,-0.068 0.039,-0.016 0.08,-0.024 0.124,-0.024 h 0.14 c 0.043,0 0.084,0.008 0.123,0.024 0.038,0.017 0.072,0.039 0.1,0.068 0.029,0.029 0.051,0.062 0.068,0.1 0.016,0.039 0.025,0.079 0.025,0.123 z"
         style="fill:#107c10;fill-rule:nonzero"
         id="path8314" /><path
         d="M 0.502,-0.283 0.679,-0.098 0.581,0 V 0.105 C 0.581,0.113 0.579,0.12 0.576,0.124 0.573,0.129 0.569,0.132 0.564,0.135 0.559,0.137 0.553,0.139 0.546,0.139 0.54,0.14 0.534,0.14 0.527,0.14 0.521,0.14 0.515,0.14 0.509,0.139 0.503,0.139 0.497,0.137 0.492,0.135 0.487,0.132 0.483,0.128 0.48,0.124 0.478,0.119 0.476,0.113 0.476,0.105 V -0.07 L 0.406,0 V 0.105 C 0.406,0.113 0.404,0.12 0.401,0.124 0.398,0.129 0.393,0.132 0.388,0.135 0.383,0.137 0.378,0.139 0.371,0.139 0.365,0.14 0.358,0.14 0.352,0.14 0.346,0.14 0.339,0.14 0.333,0.139 0.327,0.139 0.321,0.137 0.316,0.135 0.312,0.132 0.308,0.128 0.305,0.124 0.302,0.119 0.3,0.113 0.3,0.105 V 0.018 C 0.3,0.003 0.302,-0.01 0.306,-0.021 0.31,-0.033 0.315,-0.044 0.322,-0.054 0.328,-0.064 0.336,-0.073 0.344,-0.083 0.353,-0.092 0.362,-0.101 0.371,-0.11 L 0.379,-0.118 C 0.365,-0.126 0.355,-0.137 0.347,-0.15 0.339,-0.163 0.335,-0.178 0.335,-0.193 V -0.351 C 0.335,-0.361 0.334,-0.37 0.33,-0.378 0.326,-0.387 0.321,-0.394 0.315,-0.401 0.308,-0.407 0.301,-0.412 0.292,-0.416 0.284,-0.42 0.275,-0.421 0.265,-0.421 h -0.07 v -0.07 c 0,-0.015 0.003,-0.029 0.009,-0.041 0.005,-0.013 0.013,-0.024 0.022,-0.034 0.01,-0.009 0.021,-0.017 0.033,-0.022 0.013,-0.006 0.027,-0.009 0.041,-0.009 h 0.035 c 0.019,0 0.037,0.004 0.054,0.012 0.017,0.007 0.032,0.017 0.045,0.03 0.013,0.013 0.023,0.027 0.031,0.045 0.007,0.017 0.011,0.035 0.011,0.053 v 0.122 c 0,0.001 0.001,0.003 0.004,0.008 0.002,0.005 0.005,0.01 0.008,0.016 0.003,0.006 0.006,0.012 0.009,0.017 0.003,0.006 0.004,0.009 0.005,0.011 z m 0.538,0.176 c 0.009,0.009 0.018,0.018 0.026,0.027 0.008,0.009 0.016,0.018 0.022,0.028 0.006,0.01 0.01,0.02 0.014,0.031 0.004,0.012 0.005,0.025 0.005,0.039 V 0.105 C 1.107,0.114 1.104,0.123 1.097,0.13 1.09,0.137 1.082,0.14 1.073,0.14 H 1.038 C 1.028,0.14 1.02,0.137 1.013,0.13 1.006,0.123 1.002,0.115 1.002,0.105 V 0 L 0.895,-0.108 Z"
         style="fill:#bad80a;fill-rule:nonzero"
         id="path8316" /><path
         d="m 0.371,-0.562 c 0.009,0 0.018,0.004 0.025,0.011 0.006,0.007 0.01,0.015 0.01,0.025 v 0.035 c 0,0.009 -0.004,0.017 -0.011,0.024 -0.007,0.007 -0.015,0.01 -0.024,0.01 -0.01,0 -0.018,-0.003 -0.025,-0.01 C 0.339,-0.474 0.335,-0.482 0.335,-0.491 v -0.035 c 0,-0.01 0.004,-0.018 0.011,-0.025 0.007,-0.007 0.015,-0.011 0.025,-0.011 z"
         style="fill-rule:nonzero"
         id="path8318" /><path
         d="m 0.757,-0.281 c 0.009,0 0.017,0.004 0.024,0.011 0.007,0.007 0.011,0.015 0.011,0.024 v 0.142 h -0.07 v -0.142 c 0,-0.009 0.003,-0.018 0.01,-0.025 0.007,-0.006 0.015,-0.01 0.025,-0.01 z m -0.141,0 c 0.01,0 0.018,0.004 0.025,0.01 0.007,0.007 0.01,0.016 0.01,0.025 v 0.115 l -0.07,-0.045 v -0.07 c 0,-0.009 0.003,-0.018 0.01,-0.025 0.007,-0.006 0.015,-0.01 0.025,-0.01 z m 0.281,0 c 0.01,0 0.018,0.004 0.025,0.01 0.007,0.007 0.01,0.016 0.01,0.025 v 0.149 h -0.07 v -0.149 c 0,-0.009 0.003,-0.018 0.01,-0.025 0.007,-0.006 0.015,-0.01 0.025,-0.01 z m 0.141,0 c 0.009,0 0.017,0.004 0.024,0.011 0.007,0.007 0.011,0.015 0.011,0.024 v 0.149 H 1.002 v -0.149 c 0,-0.009 0.004,-0.018 0.011,-0.025 0.007,-0.006 0.015,-0.01 0.025,-0.01 z M 0.827,-0.386 c 0.009,0 0.018,0.003 0.025,0.01 0.006,0.007 0.01,0.015 0.01,0.025 0,0.01 -0.004,0.018 -0.01,0.025 -0.007,0.007 -0.016,0.01 -0.025,0.01 -0.01,0 -0.018,-0.003 -0.025,-0.01 -0.007,-0.007 -0.01,-0.016 -0.01,-0.025 0,-0.01 0.003,-0.018 0.01,-0.025 0.007,-0.007 0.015,-0.01 0.025,-0.01 z m -0.14,0 c 0.009,0 0.018,0.003 0.024,0.01 0.007,0.007 0.011,0.015 0.011,0.025 0,0.01 -0.004,0.018 -0.011,0.025 -0.006,0.007 -0.015,0.01 -0.024,0.01 -0.01,0 -0.019,-0.003 -0.025,-0.01 -0.007,-0.007 -0.011,-0.015 -0.011,-0.025 0,-0.01 0.004,-0.018 0.011,-0.025 0.006,-0.007 0.015,-0.01 0.025,-0.01 z m -0.141,0 c 0.01,0 0.018,0.003 0.025,0.01 0.007,0.007 0.01,0.015 0.01,0.025 0,0.01 -0.003,0.018 -0.01,0.025 -0.007,0.007 -0.015,0.01 -0.025,0.01 -0.01,0 -0.018,-0.003 -0.025,-0.01 -0.006,-0.007 -0.01,-0.016 -0.01,-0.025 0,-0.01 0.004,-0.018 0.01,-0.025 0.007,-0.007 0.015,-0.01 0.025,-0.01 z m 0.07,-0.035 c -0.01,0 -0.018,-0.004 -0.025,-0.011 -0.007,-0.006 -0.01,-0.015 -0.01,-0.025 0,-0.009 0.004,-0.017 0.011,-0.024 0.007,-0.007 0.015,-0.01 0.024,-0.01 0.01,0 0.018,0.003 0.025,0.01 0.007,0.007 0.01,0.015 0.01,0.024 0,0.01 -0.003,0.019 -0.01,0.025 -0.007,0.007 -0.015,0.011 -0.025,0.011 z m 0.141,0 c -0.01,0 -0.018,-0.004 -0.025,-0.011 -0.007,-0.006 -0.01,-0.015 -0.01,-0.025 0,-0.009 0.003,-0.017 0.01,-0.024 0.007,-0.007 0.015,-0.01 0.025,-0.01 0.009,0 0.017,0.003 0.024,0.01 0.007,0.007 0.011,0.015 0.011,0.024 0,0.01 -0.004,0.018 -0.011,0.025 -0.007,0.007 -0.015,0.011 -0.024,0.011 z m 0.14,0 c -0.01,0 -0.018,-0.004 -0.025,-0.011 -0.007,-0.006 -0.01,-0.015 -0.01,-0.025 0,-0.009 0.003,-0.017 0.01,-0.024 0.007,-0.007 0.016,-0.01 0.025,-0.01 0.009,0 0.018,0.003 0.025,0.01 0.007,0.007 0.01,0.015 0.01,0.024 0,0.01 -0.003,0.019 -0.01,0.025 -0.007,0.007 -0.015,0.011 -0.025,0.011 z m 0.07,0.035 c 0.01,0 0.018,0.003 0.025,0.01 0.007,0.007 0.01,0.015 0.01,0.025 0,0.01 -0.003,0.018 -0.01,0.025 -0.007,0.007 -0.015,0.01 -0.025,0.01 -0.009,0 -0.018,-0.003 -0.025,-0.01 -0.006,-0.007 -0.01,-0.015 -0.01,-0.025 0,-0.01 0.004,-0.018 0.01,-0.025 0.007,-0.007 0.016,-0.01 0.025,-0.01 z m -0.719,-0.14 c 0.005,0 0.009,0.001 0.012,0.005 0.003,0.004 0.005,0.008 0.005,0.012 0,0.005 -0.002,0.009 -0.005,0.012 -0.003,0.004 -0.007,0.006 -0.012,0.006 -0.005,0 -0.009,-0.002 -0.012,-0.006 C 0.232,-0.5 0.23,-0.504 0.23,-0.509 c 0,-0.005 0.002,-0.009 0.006,-0.012 0.003,-0.004 0.007,-0.005 0.012,-0.005 z"
         style="fill:#73aa24;fill-rule:nonzero"
         id="path8320" /><path
         d="m 0.476,-0.335 c 0.016,0.008 0.03,0.017 0.042,0.029 l 0.141,0.14 c 0.008,0.008 0.017,0.014 0.029,0.019 0.011,0.004 0.023,0.006 0.034,0.006 h 0.421 c 0.009,0 0.018,0.004 0.024,0.011 0.007,0.006 0.011,0.015 0.011,0.025 0,0.009 -0.004,0.018 -0.011,0.024 C 1.161,-0.074 1.152,-0.07 1.143,-0.07 H 0.722 C 0.701,-0.07 0.681,-0.074 0.661,-0.082 0.641,-0.09 0.624,-0.101 0.609,-0.116 L 0.476,-0.249 Z"
         style="fill:#ffb900;fill-rule:nonzero"
         id="path8322" /></g></g></svg>
