<?xml version="1.0" encoding="UTF-8" standalone="no"?>
<svg
   width="15.795"
   height="16.844999"
   viewBox="0 0 15.795 16.844999"
   version="1.1"
   xml:space="preserve"
   style="clip-rule:evenodd;fill-rule:evenodd;stroke-linejoin:round;stroke-miterlimit:2"
   id="svg20568"
   sodipodi:docname="emojis.svg"
   xmlns:inkscape="http://www.inkscape.org/namespaces/inkscape"
   xmlns:sodipodi="http://sodipodi.sourceforge.net/DTD/sodipodi-0.dtd"
   xmlns="http://www.w3.org/2000/svg"
   xmlns:svg="http://www.w3.org/2000/svg"><defs
     id="defs20572" /><sodipodi:namedview
     id="namedview20570"
     pagecolor="#505050"
     bordercolor="#eeeeee"
     borderopacity="1"
     inkscape:pageshadow="0"
     inkscape:pageopacity="0"
     inkscape:pagecheckerboard="0" /><g
     transform="matrix(0.24,0,0,0.24,-149.06316,-404.7618)"
     id="g20566"><g
       transform="matrix(62.5,0,0,62.5,613.284,1743.57)"
       id="g8348"><path
         d="M 0.125,0.21 V 0.14 C 0.125,0.119 0.128,0.098 0.134,0.078 0.14,0.058 0.149,0.04 0.161,0.023 0.172,0.006 0.186,-0.009 0.202,-0.022 0.219,-0.036 0.236,-0.047 0.256,-0.055 0.236,-0.073 0.221,-0.094 0.211,-0.118 0.201,-0.141 0.195,-0.166 0.195,-0.193 c 0,-0.03 0.006,-0.056 0.016,-0.079 0.011,-0.023 0.026,-0.043 0.044,-0.06 0.018,-0.016 0.039,-0.031 0.062,-0.042 0.024,-0.012 0.049,-0.021 0.075,-0.028 0.026,-0.007 0.052,-0.012 0.079,-0.015 0.026,-0.003 0.051,-0.004 0.075,-0.004 h 0.088 c 0.029,0 0.058,0 0.088,0 v -0.053 c 0,-0.015 -0.001,-0.03 -0.004,-0.045 C 0.716,-0.533 0.712,-0.548 0.707,-0.562 H 0.511 c -0.03,0 -0.059,-0.005 -0.085,-0.017 C 0.399,-0.59 0.376,-0.608 0.357,-0.632 H 0.248 C 0.236,-0.632 0.225,-0.634 0.214,-0.639 0.203,-0.643 0.194,-0.649 0.186,-0.657 0.178,-0.665 0.172,-0.675 0.167,-0.686 0.162,-0.696 0.16,-0.708 0.16,-0.72 c 0,-0.014 0.003,-0.028 0.01,-0.04 0.006,-0.013 0.016,-0.023 0.028,-0.032 -0.001,-0.005 -0.001,-0.011 -0.002,-0.016 0,-0.006 -0.001,-0.011 -0.001,-0.017 0,-0.012 0.003,-0.023 0.007,-0.034 0.005,-0.011 0.011,-0.02 0.019,-0.028 0.008,-0.008 0.017,-0.014 0.028,-0.019 0.01,-0.004 0.022,-0.007 0.034,-0.007 h 0.343 c 0.024,0 0.048,0.003 0.072,0.009 0.025,0.006 0.048,0.014 0.07,0.024 0.04,0.018 0.075,0.042 0.104,0.07 0.03,0.029 0.054,0.061 0.073,0.096 0.02,0.036 0.034,0.074 0.043,0.115 0.01,0.041 0.014,0.082 0.014,0.125 v 0.105 c 0.026,0.012 0.05,0.025 0.071,0.042 0.022,0.016 0.04,0.034 0.056,0.055 0.015,0.02 0.027,0.043 0.036,0.068 0.008,0.025 0.013,0.052 0.013,0.081 0,0.024 -0.003,0.049 -0.009,0.072 C 1.163,-0.027 1.154,-0.004 1.142,0.018 1.126,0.045 1.107,0.069 1.085,0.089 1.062,0.109 1.038,0.126 1.011,0.14 0.984,0.154 0.955,0.166 0.925,0.175 0.895,0.184 0.864,0.192 0.833,0.197 0.802,0.202 0.771,0.206 0.74,0.208 0.709,0.209 0.679,0.21 0.651,0.21 Z"
         style="fill-rule:nonzero"
         id="path8338" /><path
         d="M 0.297,-0.737 C 0.287,-0.75 0.279,-0.763 0.273,-0.778 0.268,-0.793 0.265,-0.809 0.265,-0.825 c 0,-0.004 0.002,-0.008 0.006,-0.012 0.003,-0.003 0.007,-0.005 0.012,-0.005 0.005,0 0.009,0.001 0.012,0.005 0.004,0.003 0.005,0.007 0.005,0.012 0,0.018 0.005,0.034 0.013,0.05 0.008,0.016 0.02,0.028 0.035,0.038 h 0.097 v 0.035 H 0.248 C 0.243,-0.702 0.239,-0.704 0.236,-0.707 0.232,-0.711 0.23,-0.715 0.23,-0.72 c 0,-0.005 0.002,-0.009 0.006,-0.012 0.003,-0.004 0.007,-0.005 0.012,-0.005 z"
         style="fill:#f7630c;fill-rule:nonzero"
         id="path8340" /><path
         d="m 0.932,-0.313 c 0.003,0.004 0.006,0.008 0.009,0.011 0.003,0.003 0.007,0.005 0.013,0.005 0.006,0 0.011,-0.004 0.013,-0.01 0.016,0.006 0.032,0.015 0.049,0.026 0.016,0.01 0.031,0.022 0.044,0.036 0.013,0.014 0.024,0.029 0.033,0.046 0.008,0.017 0.012,0.035 0.012,0.054 0,0.005 0,0.01 0,0.015 0,0.005 -10e-4,0.011 -0.002,0.016 -0.005,0.022 -0.012,0.043 -0.02,0.065 C 1.074,-0.027 1.063,-0.008 1.049,0.01 1.035,0.027 1.018,0.042 0.999,0.054 0.979,0.066 0.958,0.076 0.936,0.084 0.913,0.093 0.889,0.099 0.864,0.104 0.839,0.109 0.814,0.113 0.789,0.115 0.764,0.117 0.74,0.119 0.717,0.12 0.693,0.121 0.671,0.121 0.651,0.121 c -0.012,0 -0.024,0 -0.034,0 -0.01,0 -0.02,-0.001 -0.03,-0.001 -0.01,0 -0.02,-0.001 -0.03,-0.001 -0.01,0 -0.022,-0.001 -0.035,-0.001 H 0.265 C 0.263,0.115 0.261,0.112 0.259,0.111 0.257,0.109 0.256,0.108 0.254,0.107 0.246,0.102 0.238,0.097 0.23,0.092 0.223,0.086 0.217,0.079 0.214,0.07 0.22,0.059 0.228,0.049 0.236,0.041 0.245,0.032 0.255,0.025 0.265,0.019 0.276,0.013 0.287,0.008 0.299,0.005 0.311,0.002 0.323,0 0.335,0 H 0.651 C 0.665,0 0.682,0 0.702,-0.001 0.723,-0.002 0.745,-0.004 0.769,-0.007 0.792,-0.009 0.816,-0.014 0.839,-0.019 0.863,-0.025 0.884,-0.032 0.903,-0.041 0.922,-0.05 0.938,-0.061 0.949,-0.075 0.961,-0.088 0.967,-0.104 0.967,-0.123 0.967,-0.13 0.965,-0.136 0.962,-0.141 0.958,-0.147 0.954,-0.152 0.949,-0.156 0.949,-0.161 0.948,-0.166 0.945,-0.169 0.943,-0.173 0.94,-0.175 0.937,-0.178 0.933,-0.18 0.93,-0.182 0.925,-0.184 L 0.909,-0.189 c -0.016,0.019 -0.033,0.037 -0.053,0.053 -0.019,0.016 -0.039,0.03 -0.061,0.042 -0.022,0.011 -0.045,0.02 -0.069,0.026 -0.025,0.007 -0.049,0.01 -0.075,0.01 H 0.546 C 0.524,-0.058 0.503,-0.06 0.481,-0.063 0.459,-0.067 0.437,-0.072 0.416,-0.079 0.395,-0.086 0.375,-0.095 0.356,-0.106 0.337,-0.117 0.319,-0.129 0.303,-0.144 0.301,-0.146 0.299,-0.148 0.296,-0.15 0.294,-0.153 0.291,-0.156 0.289,-0.159 0.286,-0.162 0.284,-0.165 0.281,-0.167 0.279,-0.17 0.278,-0.173 0.278,-0.176 0.276,-0.184 0.274,-0.193 0.273,-0.202 0.272,-0.211 0.271,-0.22 0.271,-0.229 0.271,-0.23 0.272,-0.233 0.273,-0.236 0.275,-0.239 0.276,-0.243 0.279,-0.246 0.281,-0.25 0.283,-0.253 0.285,-0.257 0.287,-0.26 0.289,-0.262 0.29,-0.264 0.303,-0.282 0.32,-0.296 0.341,-0.307 0.361,-0.319 0.383,-0.327 0.407,-0.334 0.431,-0.34 0.455,-0.345 0.479,-0.347 0.503,-0.35 0.525,-0.351 0.546,-0.351 h 0.176 c 0.011,0 0.023,0 0.035,0 0.012,0.001 0.023,0.001 0.035,0.002 L 0.804,-0.433 C 0.805,-0.441 0.806,-0.448 0.808,-0.453 0.809,-0.459 0.81,-0.466 0.81,-0.474 0.81,-0.487 0.809,-0.501 0.807,-0.516 0.805,-0.532 0.801,-0.547 0.797,-0.562 0.792,-0.577 0.786,-0.59 0.778,-0.603 0.77,-0.615 0.76,-0.625 0.748,-0.632 H 0.511 C 0.486,-0.632 0.465,-0.637 0.447,-0.647 0.429,-0.657 0.415,-0.67 0.404,-0.687 0.392,-0.703 0.384,-0.722 0.379,-0.743 0.373,-0.764 0.371,-0.785 0.371,-0.807 v -0.035 h 0.25 0.006 c 0.05,0.004 0.094,0.016 0.132,0.037 0.038,0.021 0.07,0.048 0.095,0.081 0.026,0.033 0.046,0.071 0.059,0.114 0.013,0.043 0.019,0.088 0.019,0.136 v 0.162 z m -0.281,0.136 c 0.019,0 0.037,-0.002 0.055,-0.007 0.019,-0.005 0.035,-0.014 0.05,-0.025 C 0.752,-0.214 0.748,-0.219 0.743,-0.223 0.737,-0.227 0.732,-0.23 0.725,-0.232 0.719,-0.235 0.712,-0.237 0.706,-0.238 0.699,-0.239 0.693,-0.24 0.687,-0.24 H 0.546 c -0.045,0 -0.084,0.015 -0.118,0.046 0.018,0.006 0.037,0.011 0.058,0.014 0.021,0.002 0.041,0.003 0.06,0.003 z"
         style="fill:#bad80a;fill-rule:nonzero"
         id="path8342" /><path
         d="m 1.105,-0.156 c 0.001,0.006 0.002,0.011 0.002,0.017 0,0.005 0,0.01 0,0.016 0,0.038 -0.007,0.071 -0.022,0.099 C 1.071,0.003 1.051,0.027 1.027,0.046 1.003,0.066 0.975,0.082 0.944,0.094 0.912,0.106 0.88,0.116 0.846,0.123 0.812,0.129 0.778,0.134 0.745,0.136 0.711,0.139 0.68,0.14 0.651,0.14 H 0.195 C 0.195,0.128 0.197,0.116 0.2,0.104 0.203,0.092 0.208,0.081 0.214,0.07 H 0.651 C 0.678,0.07 0.707,0.069 0.738,0.067 0.769,0.065 0.801,0.062 0.832,0.056 0.864,0.05 0.895,0.042 0.926,0.032 0.956,0.021 0.984,0.008 1.008,-0.009 1.033,-0.026 1.054,-0.046 1.071,-0.07 1.088,-0.094 1.099,-0.123 1.105,-0.156 Z M 0.932,-0.32 c 0.006,0.002 0.012,0.004 0.018,0.006 0.006,0.002 0.012,0.004 0.017,0.007 v 0.042 c 0,0.01 0,0.019 0,0.028 C 0.966,-0.228 0.966,-0.219 0.964,-0.21 0.963,-0.201 0.961,-0.192 0.959,-0.184 0.956,-0.175 0.953,-0.166 0.949,-0.156 0.943,-0.161 0.937,-0.166 0.93,-0.169 0.923,-0.173 0.916,-0.176 0.909,-0.179 0.896,-0.155 0.88,-0.134 0.862,-0.116 0.844,-0.098 0.823,-0.083 0.801,-0.071 0.779,-0.059 0.755,-0.05 0.73,-0.044 0.705,-0.038 0.678,-0.035 0.651,-0.035 H 0.546 C 0.53,-0.035 0.511,-0.036 0.491,-0.038 0.471,-0.04 0.451,-0.043 0.43,-0.047 0.409,-0.052 0.389,-0.058 0.369,-0.065 0.349,-0.073 0.332,-0.083 0.316,-0.094 0.301,-0.106 0.289,-0.12 0.279,-0.136 0.27,-0.153 0.265,-0.172 0.265,-0.193 c 0,-0.012 0.002,-0.024 0.006,-0.036 0.005,0.017 0.013,0.032 0.025,0.045 0.011,0.013 0.025,0.024 0.04,0.033 0.016,0.009 0.032,0.016 0.051,0.022 0.018,0.006 0.036,0.011 0.055,0.014 0.019,0.004 0.037,0.006 0.055,0.008 0.018,0.001 0.034,0.002 0.049,0.002 h 0.105 c 0.036,0 0.071,-0.006 0.105,-0.017 0.033,-0.011 0.063,-0.027 0.089,-0.048 0.027,-0.022 0.048,-0.047 0.063,-0.078 0.016,-0.03 0.024,-0.064 0.024,-0.103 z m -0.245,0.039 c 0.017,0 0.035,0.001 0.052,0.001 0.017,0.001 0.035,0.003 0.053,0.005 -0.001,0.013 -0.005,0.026 -0.011,0.037 -0.006,0.011 -0.015,0.021 -0.025,0.03 C 0.744,-0.209 0.733,-0.21 0.721,-0.21 c -0.012,0 -0.023,0 -0.034,0 H 0.546 c -0.02,0 -0.04,0.001 -0.06,0.003 -0.02,0.003 -0.04,0.007 -0.058,0.014 v -0.012 c 0,-0.013 0.004,-0.024 0.012,-0.033 0.008,-0.01 0.019,-0.018 0.031,-0.024 0.012,-0.006 0.025,-0.011 0.039,-0.014 0.013,-0.003 0.025,-0.005 0.036,-0.005 z m 0.096,-0.351 c 0.016,0.023 0.027,0.048 0.034,0.075 0.006,0.028 0.01,0.055 0.01,0.083 v 0.127 H 0.824 c -0.005,0 -0.011,-0.001 -0.016,-0.001 -0.005,0 -0.01,-0.001 -0.016,-0.001 v -0.125 c 0,-0.028 -0.003,-0.055 -0.01,-0.083 C 0.776,-0.584 0.764,-0.609 0.748,-0.632 Z"
         style="fill:#73aa24;fill-rule:nonzero"
         id="path8344" /><path
         d="m 0.581,-0.807 c 0.01,0 0.018,0.003 0.025,0.01 0.007,0.007 0.01,0.015 0.01,0.025 v 0.035 c 0,0.009 -0.003,0.018 -0.01,0.025 -0.007,0.006 -0.015,0.01 -0.025,0.01 -0.009,0 -0.018,-0.004 -0.025,-0.011 -0.007,-0.007 -0.01,-0.015 -0.01,-0.024 v -0.035 c 0,-0.009 0.003,-0.018 0.01,-0.025 0.007,-0.007 0.016,-0.01 0.025,-0.01 z"
         style="fill-rule:nonzero"
         id="path8346" /></g></g></svg>
