<?xml version="1.0" encoding="UTF-8" standalone="no"?>
<svg
   width="16.844999"
   height="16.844999"
   viewBox="0 0 16.844999 16.844999"
   version="1.1"
   xml:space="preserve"
   style="clip-rule:evenodd;fill-rule:evenodd;stroke-linejoin:round;stroke-miterlimit:2"
   id="svg20568"
   sodipodi:docname="emojis.svg"
   xmlns:inkscape="http://www.inkscape.org/namespaces/inkscape"
   xmlns:sodipodi="http://sodipodi.sourceforge.net/DTD/sodipodi-0.dtd"
   xmlns="http://www.w3.org/2000/svg"
   xmlns:svg="http://www.w3.org/2000/svg"><defs
     id="defs20572" /><sodipodi:namedview
     id="namedview20570"
     pagecolor="#505050"
     bordercolor="#eeeeee"
     borderopacity="1"
     inkscape:pageshadow="0"
     inkscape:pageopacity="0"
     inkscape:pagecheckerboard="0" /><g
     transform="matrix(0.24,0,0,0.24,-754.659,-93.74892)"
     id="g20566"><g
       transform="matrix(62.5,0,0,62.5,3136.6,447.683)"
       id="g836"><path
         d="m 0.125,-0.351 c 0,-0.052 0.007,-0.102 0.02,-0.149 0.013,-0.048 0.032,-0.093 0.057,-0.135 0.024,-0.041 0.053,-0.079 0.088,-0.113 0.034,-0.034 0.072,-0.064 0.113,-0.088 0.042,-0.024 0.086,-0.043 0.134,-0.057 0.048,-0.013 0.098,-0.02 0.15,-0.02 0.051,0 0.101,0.007 0.149,0.02 0.048,0.014 0.092,0.033 0.134,0.057 0.041,0.024 0.079,0.054 0.113,0.088 0.035,0.034 0.064,0.072 0.088,0.113 0.025,0.042 0.044,0.087 0.057,0.135 0.013,0.047 0.02,0.097 0.02,0.149 0,0.052 -0.007,0.101 -0.02,0.149 C 1.215,-0.154 1.196,-0.109 1.171,-0.068 1.147,-0.026 1.118,0.012 1.083,0.046 1.049,0.08 1.011,0.109 0.97,0.134 0.928,0.158 0.884,0.177 0.836,0.19 0.788,0.204 0.738,0.21 0.687,0.21 0.635,0.21 0.585,0.204 0.537,0.19 0.489,0.177 0.445,0.158 0.403,0.134 0.362,0.109 0.324,0.08 0.29,0.046 0.255,0.012 0.226,-0.026 0.202,-0.068 0.177,-0.109 0.158,-0.154 0.145,-0.202 0.132,-0.25 0.125,-0.299 0.125,-0.351 Z"
         style="fill-rule:nonzero"
         id="path826" /><path
         d="m 0.195,-0.351 c 0,-0.045 0.006,-0.089 0.018,-0.131 0.012,-0.042 0.028,-0.081 0.049,-0.117 0.022,-0.037 0.047,-0.07 0.077,-0.099 0.03,-0.03 0.063,-0.056 0.099,-0.077 0.037,-0.021 0.076,-0.038 0.118,-0.05 0.042,-0.011 0.085,-0.017 0.131,-0.017 0.045,0 0.088,0.006 0.13,0.017 0.042,0.012 0.081,0.029 0.118,0.05 0.036,0.021 0.069,0.047 0.099,0.077 0.03,0.029 0.055,0.062 0.077,0.099 0.021,0.036 0.037,0.075 0.049,0.117 0.012,0.042 0.018,0.086 0.018,0.131 0,0.045 -0.006,0.089 -0.018,0.131 -0.012,0.041 -0.028,0.081 -0.049,0.117 -0.022,0.036 -0.047,0.07 -0.077,0.099 C 1.004,0.026 0.971,0.052 0.935,0.073 0.898,0.094 0.859,0.111 0.817,0.123 0.775,0.134 0.732,0.14 0.687,0.14 0.641,0.14 0.598,0.134 0.556,0.123 0.514,0.111 0.475,0.094 0.438,0.073 0.402,0.052 0.369,0.026 0.339,-0.004 0.309,-0.033 0.284,-0.067 0.262,-0.103 0.241,-0.139 0.225,-0.179 0.213,-0.22 0.201,-0.262 0.195,-0.306 0.195,-0.351 Z"
         style="fill:#ffc83d;fill-rule:nonzero"
         id="path828" /><path
         d="m 0.611,-0.404 c 0,0.016 -0.003,0.031 -0.009,0.045 -0.007,0.015 -0.015,0.027 -0.026,0.037 -0.01,0.011 -0.023,0.019 -0.037,0.026 C 0.525,-0.29 0.51,-0.287 0.494,-0.287 0.477,-0.287 0.462,-0.29 0.448,-0.296 0.434,-0.303 0.421,-0.311 0.411,-0.322 0.4,-0.332 0.392,-0.344 0.386,-0.359 0.38,-0.373 0.376,-0.388 0.376,-0.404 c 0,-0.016 0.004,-0.031 0.01,-0.046 0.006,-0.014 0.014,-0.026 0.025,-0.037 0.01,-0.011 0.023,-0.019 0.037,-0.025 0.014,-0.006 0.029,-0.009 0.046,-0.009 0.016,0 0.031,0.003 0.045,0.009 0.014,0.006 0.027,0.014 0.037,0.025 0.011,0.011 0.019,0.023 0.026,0.037 0.006,0.015 0.009,0.03 0.009,0.046 z m 0.268,-0.117 c 0.016,0 0.031,0.003 0.046,0.009 0.014,0.006 0.027,0.015 0.037,0.025 0.011,0.011 0.019,0.023 0.025,0.038 0.006,0.014 0.01,0.029 0.01,0.045 0,0.016 -0.004,0.032 -0.01,0.046 C 0.981,-0.344 0.973,-0.332 0.962,-0.321 0.952,-0.31 0.939,-0.302 0.925,-0.296 0.911,-0.29 0.896,-0.287 0.879,-0.287 0.863,-0.287 0.848,-0.29 0.834,-0.296 0.82,-0.302 0.807,-0.31 0.797,-0.321 0.786,-0.332 0.778,-0.344 0.771,-0.358 0.765,-0.372 0.762,-0.388 0.762,-0.404 c 0,-0.016 0.003,-0.031 0.009,-0.045 0.007,-0.015 0.015,-0.027 0.026,-0.038 0.01,-0.01 0.023,-0.019 0.037,-0.025 0.014,-0.006 0.029,-0.009 0.045,-0.009 z m -0.192,0.275 c 0.019,0 0.037,0.004 0.054,0.011 0.017,0.008 0.032,0.018 0.045,0.03 0.012,0.013 0.022,0.028 0.03,0.045 0.007,0.017 0.011,0.035 0.011,0.055 v 0.035 c 0,0.019 -0.004,0.038 -0.011,0.055 C 0.808,0.002 0.798,0.017 0.786,0.029 0.773,0.042 0.758,0.052 0.741,0.059 0.724,0.067 0.706,0.07 0.687,0.07 0.667,0.07 0.649,0.067 0.632,0.059 0.615,0.052 0.6,0.042 0.587,0.029 0.574,0.017 0.564,0.002 0.557,-0.015 0.55,-0.032 0.546,-0.051 0.546,-0.07 v -0.035 c 0,-0.02 0.004,-0.038 0.011,-0.055 0.007,-0.017 0.017,-0.032 0.03,-0.045 0.013,-0.012 0.028,-0.022 0.045,-0.03 0.017,-0.007 0.035,-0.011 0.055,-0.011 z"
         style="fill-rule:nonzero"
         id="path830" /><path
         d="m 0.494,-0.562 c 0.021,0 0.042,0.005 0.061,0.013 0.019,0.008 0.036,0.02 0.05,0.034 0.014,0.014 0.026,0.031 0.034,0.05 0.008,0.019 0.012,0.039 0.012,0.061 0,0.022 -0.004,0.043 -0.012,0.062 -0.008,0.019 -0.02,0.036 -0.034,0.05 -0.014,0.014 -0.031,0.026 -0.05,0.034 -0.019,0.008 -0.04,0.012 -0.061,0.012 -0.022,0 -0.043,-0.004 -0.062,-0.012 C 0.413,-0.266 0.396,-0.278 0.382,-0.292 0.368,-0.306 0.356,-0.323 0.348,-0.342 0.34,-0.361 0.335,-0.382 0.335,-0.404 c 0,-0.022 0.005,-0.042 0.013,-0.061 0.008,-0.019 0.02,-0.036 0.034,-0.05 0.014,-0.014 0.031,-0.026 0.05,-0.034 0.019,-0.008 0.04,-0.013 0.062,-0.013 z m 0,0.229 c 0.009,0 0.019,-0.002 0.027,-0.006 0.008,-0.004 0.016,-0.009 0.022,-0.015 0.007,-0.007 0.012,-0.014 0.015,-0.022 0.004,-0.009 0.005,-0.018 0.005,-0.028 0,-0.01 -10e-4,-0.019 -0.005,-0.027 C 0.555,-0.44 0.55,-0.447 0.543,-0.453 0.537,-0.46 0.529,-0.465 0.521,-0.469 0.513,-0.472 0.503,-0.474 0.494,-0.474 c -0.01,0 -0.019,0.002 -0.028,0.005 -0.008,0.004 -0.016,0.009 -0.022,0.016 -0.006,0.006 -0.011,0.013 -0.015,0.022 -0.004,0.008 -0.006,0.017 -0.006,0.027 0,0.01 0.002,0.019 0.006,0.028 0.003,0.008 0.008,0.016 0.015,0.022 0.006,0.007 0.013,0.012 0.022,0.015 0.009,0.004 0.018,0.006 0.028,0.006 z m 0.385,-0.229 c 0.022,0 0.043,0.005 0.062,0.013 0.019,0.008 0.036,0.02 0.05,0.034 0.015,0.014 0.026,0.031 0.034,0.05 0.008,0.019 0.013,0.039 0.013,0.061 0,0.022 -0.005,0.043 -0.013,0.062 -0.008,0.019 -0.019,0.036 -0.034,0.05 -0.014,0.014 -0.031,0.026 -0.05,0.034 -0.019,0.008 -0.04,0.012 -0.062,0.012 -0.021,0 -0.042,-0.004 -0.061,-0.012 C 0.799,-0.266 0.782,-0.278 0.768,-0.292 0.754,-0.306 0.742,-0.323 0.734,-0.342 0.726,-0.361 0.722,-0.382 0.722,-0.404 c 0,-0.022 0.004,-0.042 0.012,-0.061 0.008,-0.019 0.02,-0.036 0.034,-0.05 0.014,-0.014 0.031,-0.026 0.05,-0.034 0.019,-0.008 0.04,-0.013 0.061,-0.013 z m 0,0.229 c 0.01,0 0.019,-0.002 0.028,-0.006 C 0.915,-0.342 0.923,-0.347 0.929,-0.354 0.935,-0.36 0.94,-0.368 0.944,-0.376 0.948,-0.385 0.95,-0.394 0.95,-0.404 0.95,-0.414 0.948,-0.423 0.944,-0.431 0.94,-0.44 0.935,-0.447 0.929,-0.453 0.923,-0.46 0.915,-0.465 0.907,-0.469 0.898,-0.472 0.889,-0.474 0.879,-0.474 0.87,-0.474 0.861,-0.472 0.852,-0.469 0.844,-0.465 0.836,-0.46 0.83,-0.453 0.823,-0.447 0.819,-0.44 0.815,-0.431 0.811,-0.423 0.81,-0.414 0.81,-0.404 c 0,0.01 0.001,0.019 0.005,0.028 0.004,0.008 0.008,0.015 0.015,0.022 0.006,0.006 0.014,0.011 0.022,0.015 0.009,0.004 0.018,0.006 0.027,0.006 z M 0.786,-0.141 H 0.587 c 0.008,-0.021 0.021,-0.038 0.039,-0.05 0.018,-0.013 0.038,-0.019 0.061,-0.019 0.022,0 0.042,0.006 0.06,0.019 0.018,0.012 0.031,0.029 0.039,0.05 z"
         style="fill:#ffffff;fill-rule:nonzero"
         id="path832" /><path
         d="m 0.581,-0.737 c 0.009,0 0.018,0.003 0.025,0.01 0.007,0.007 0.01,0.015 0.01,0.025 0,0.01 -0.003,0.018 -0.01,0.025 -0.007,0.007 -0.015,0.01 -0.025,0.01 -0.038,0 -0.071,0.007 -0.101,0.022 -0.03,0.015 -0.057,0.035 -0.083,0.062 -0.004,0.003 -0.008,0.006 -0.012,0.008 -0.004,0.002 -0.009,0.003 -0.014,0.003 -0.01,0 -0.018,-0.003 -0.025,-0.01 -0.007,-0.007 -0.011,-0.015 -0.011,-0.025 0,-0.008 0.003,-0.016 0.009,-0.023 0.014,-0.017 0.03,-0.032 0.049,-0.046 C 0.411,-0.689 0.43,-0.7 0.451,-0.709 0.472,-0.718 0.493,-0.725 0.516,-0.73 0.538,-0.735 0.56,-0.737 0.581,-0.737 Z m 0.211,0 c 0.021,0 0.043,0.002 0.065,0.007 0.023,0.005 0.044,0.012 0.065,0.021 0.021,0.009 0.04,0.02 0.058,0.033 0.019,0.014 0.035,0.029 0.049,0.046 0.006,0.007 0.009,0.015 0.009,0.023 0,0.01 -0.004,0.018 -0.011,0.025 -0.006,0.007 -0.015,0.01 -0.025,0.01 -0.005,0 -0.01,-0.001 -0.014,-0.003 C 0.984,-0.577 0.98,-0.58 0.976,-0.583 0.963,-0.597 0.95,-0.608 0.936,-0.619 0.922,-0.629 0.908,-0.638 0.893,-0.645 0.878,-0.652 0.862,-0.658 0.845,-0.661 0.829,-0.665 0.811,-0.667 0.792,-0.667 c -0.01,0 -0.018,-0.003 -0.025,-0.01 -0.007,-0.007 -0.01,-0.015 -0.01,-0.025 0,-0.01 0.003,-0.018 0.01,-0.025 0.007,-0.007 0.016,-0.01 0.025,-0.01 z"
         style="fill:#d48c00;fill-rule:nonzero"
         id="path834" /></g></g></svg>
