<?xml version="1.0" encoding="UTF-8" standalone="no"?>
<svg
   width="16.844999"
   height="16.305"
   viewBox="0 0 16.844999 16.305"
   version="1.1"
   xml:space="preserve"
   style="clip-rule:evenodd;fill-rule:evenodd;stroke-linejoin:round;stroke-miterlimit:2"
   id="svg20568"
   sodipodi:docname="emojis.svg"
   xmlns:inkscape="http://www.inkscape.org/namespaces/inkscape"
   xmlns:sodipodi="http://sodipodi.sourceforge.net/DTD/sodipodi-0.dtd"
   xmlns="http://www.w3.org/2000/svg"
   xmlns:svg="http://www.w3.org/2000/svg"><defs
     id="defs20572" /><sodipodi:namedview
     id="namedview20570"
     pagecolor="#505050"
     bordercolor="#eeeeee"
     borderopacity="1"
     inkscape:pageshadow="0"
     inkscape:pageopacity="0"
     inkscape:pagecheckerboard="0" /><g
     transform="matrix(0.24,0,0,0.24,-168.61164,-405.3018)"
     id="g20566"><g
       transform="matrix(62.5,0,0,62.5,694.736,1743.57)"
       id="g8366"><path
         d="m 1.248,-0.632 v 0.034 c 0,0.02 0,0.039 -10e-4,0.057 -0.001,0.018 -0.003,0.035 -0.006,0.052 -0.003,0.017 -0.008,0.034 -0.014,0.051 -0.006,0.017 -0.014,0.034 -0.024,0.052 h 0.045 v 0.07 c 0,0.052 -0.006,0.101 -0.018,0.148 -0.011,0.046 -0.029,0.09 -0.052,0.131 C 1.156,0.004 1.127,0.041 1.093,0.075 1.058,0.109 1.019,0.138 0.974,0.164 0.969,0.167 0.962,0.171 0.951,0.176 0.94,0.181 0.929,0.186 0.917,0.191 0.906,0.196 0.895,0.201 0.884,0.205 0.873,0.208 0.866,0.21 0.862,0.21 H 0.195 V 0.14 C 0.195,0.105 0.199,0.072 0.208,0.041 0.216,0.01 0.228,-0.018 0.244,-0.044 0.26,-0.07 0.28,-0.093 0.303,-0.115 0.326,-0.137 0.352,-0.157 0.382,-0.176 H 0.301 c -0.02,0 -0.039,-0.003 -0.056,-0.011 C 0.228,-0.194 0.213,-0.203 0.2,-0.216 0.188,-0.228 0.178,-0.243 0.171,-0.26 0.164,-0.277 0.16,-0.296 0.16,-0.316 v -0.04 L 0.125,-0.391 v -0.171 c 0,-0.015 0.003,-0.029 0.008,-0.042 0.005,-0.013 0.013,-0.024 0.022,-0.033 0.009,-0.01 0.02,-0.017 0.033,-0.022 0.013,-0.005 0.027,-0.008 0.042,-0.008 h 0.01 c 0.011,0 0.021,0 0.03,0.001 0.01,0.001 0.018,0.002 0.027,0.004 0.009,0.003 0.017,0.006 0.025,0.011 0.008,0.005 0.015,0.011 0.023,0.019 h 0.009 c 0.006,-0.01 0.013,-0.02 0.022,-0.028 0.008,-0.008 0.018,-0.015 0.028,-0.021 0.01,-0.006 0.021,-0.011 0.033,-0.014 0.011,-0.003 0.023,-0.006 0.035,-0.007 0.004,0 0.009,-0.001 0.014,-0.001 H 0.5 l 0.043,0.001 c 0.013,-0.03 0.029,-0.056 0.049,-0.078 0.019,-0.022 0.041,-0.04 0.065,-0.054 0.025,-0.015 0.051,-0.026 0.08,-0.033 0.028,-0.007 0.059,-0.01 0.09,-0.01 h 0.245 l 10e-4,0.07 c 0,0.009 -10e-4,0.018 -10e-4,0.028 -0.001,0.01 -0.003,0.019 -0.006,0.029 -0.002,0.009 -0.006,0.018 -0.01,0.026 -0.005,0.008 -0.011,0.016 -0.018,0.022 v 0.07 z"
         style="fill-rule:nonzero"
         id="path8350" /><path
         d="m 1.178,-0.562 c 0,0.043 -0.008,0.081 -0.023,0.115 -0.015,0.034 -0.037,0.066 -0.068,0.095 -0.008,0.007 -0.015,0.014 -0.023,0.02 -0.008,0.006 -0.017,0.012 -0.026,0.016 h 0.14 c 0,0.091 -0.02,0.171 -0.059,0.241 C 1.08,-0.005 1.021,0.052 0.941,0.096 0.923,0.106 0.905,0.115 0.885,0.122 0.866,0.13 0.847,0.136 0.827,0.14 L 0.763,-0.562 Z"
         style="fill:#f7630c;fill-rule:nonzero"
         id="path8352" /><path
         d="m 0.827,-0.491 c 0.01,0.004 0.021,0.009 0.03,0.014 0.01,0.006 0.02,0.012 0.029,0.019 0.038,0.028 0.067,0.061 0.088,0.098 0.02,0.038 0.03,0.08 0.03,0.128 0,0.027 -0.002,0.054 -0.005,0.08 -0.003,0.025 -0.009,0.05 -0.016,0.074 -0.008,0.024 -0.017,0.048 -0.03,0.07 C 0.941,0.015 0.926,0.037 0.908,0.059 0.896,0.073 0.883,0.087 0.869,0.1 0.856,0.113 0.842,0.126 0.829,0.14 H 0.511 L 0.473,0.107 c 0,-0.031 0.004,-0.06 0.013,-0.085 0.009,-0.026 0.019,-0.049 0.032,-0.07 C 0.531,-0.069 0.545,-0.087 0.56,-0.103 0.575,-0.119 0.589,-0.134 0.602,-0.146 0.615,-0.158 0.625,-0.169 0.634,-0.178 0.643,-0.187 0.647,-0.194 0.647,-0.2 0.647,-0.204 0.644,-0.208 0.638,-0.212 0.633,-0.217 0.626,-0.221 0.619,-0.225 0.611,-0.229 0.604,-0.233 0.596,-0.236 0.589,-0.24 0.584,-0.243 0.581,-0.246 H 0.3 C 0.29,-0.246 0.281,-0.247 0.272,-0.251 0.264,-0.255 0.256,-0.259 0.25,-0.266 0.244,-0.272 0.239,-0.279 0.236,-0.288 0.232,-0.296 0.23,-0.306 0.23,-0.316 h 0.281 c 0,-0.016 -0.002,-0.03 -0.008,-0.043 C 0.498,-0.372 0.491,-0.382 0.482,-0.391 0.472,-0.4 0.461,-0.407 0.448,-0.412 0.436,-0.417 0.421,-0.42 0.406,-0.42 l -0.01,0.026 C 0.386,-0.398 0.376,-0.403 0.366,-0.407 0.356,-0.411 0.346,-0.415 0.335,-0.42 L 0.323,-0.396 C 0.304,-0.405 0.285,-0.412 0.266,-0.42 L 0.248,-0.392 C 0.24,-0.398 0.232,-0.404 0.223,-0.408 0.214,-0.412 0.205,-0.416 0.195,-0.42 v -0.143 c 0,-0.008 0.002,-0.014 0.005,-0.019 0.003,-0.004 0.006,-0.008 0.011,-0.01 0.005,-0.002 0.01,-0.004 0.016,-0.004 0.006,-0.001 0.012,-0.001 0.019,-0.001 0.006,0 0.013,0 0.019,0.001 0.007,0 0.013,0.001 0.018,0.004 0.005,0.002 0.009,0.005 0.012,0.01 0.004,0.005 0.005,0.011 0.005,0.02 h 0.106 c 0,-0.01 0.002,-0.018 0.005,-0.027 C 0.415,-0.597 0.42,-0.605 0.427,-0.611 0.433,-0.617 0.44,-0.622 0.449,-0.626 0.458,-0.63 0.467,-0.632 0.476,-0.632 h 0.491 c 0,0.009 -0.001,0.018 -0.002,0.026 -0.002,0.009 -0.005,0.017 -0.007,0.025 -0.012,0.031 -0.028,0.054 -0.05,0.068 -0.022,0.015 -0.049,0.022 -0.081,0.022 z"
         style="fill:#73aa24;fill-rule:nonzero"
         id="path8354" /><path
         d="M 0.827,-0.246 C 0.826,-0.232 0.822,-0.22 0.812,-0.21 0.803,-0.199 0.791,-0.189 0.776,-0.179 0.761,-0.17 0.744,-0.16 0.725,-0.15 0.706,-0.14 0.687,-0.129 0.667,-0.117 0.648,-0.105 0.629,-0.091 0.61,-0.076 0.591,-0.061 0.574,-0.043 0.56,-0.023 0.545,-0.002 0.533,0.021 0.524,0.048 0.515,0.075 0.511,0.105 0.511,0.14 c -0.003,0 -0.013,0 -0.031,0 H 0.265 c 0,-0.034 0.005,-0.065 0.014,-0.091 0.009,-0.027 0.02,-0.05 0.035,-0.07 0.015,-0.021 0.031,-0.038 0.05,-0.054 0.019,-0.015 0.038,-0.029 0.058,-0.041 0.019,-0.012 0.039,-0.023 0.057,-0.033 0.019,-0.011 0.036,-0.02 0.051,-0.03 0.015,-0.01 0.027,-0.02 0.036,-0.031 0.009,-0.01 0.014,-0.022 0.015,-0.036 z"
         style="fill:#bad80a;fill-rule:nonzero"
         id="path8356" /><path
         d="m 0.266,-0.543 c 0,0.005 -0.002,0.009 -0.006,0.012 -0.003,0.004 -0.007,0.006 -0.012,0.006 -0.005,0 -0.009,-0.002 -0.012,-0.006 C 0.232,-0.534 0.23,-0.538 0.23,-0.543 c 0,-0.005 0.002,-0.009 0.006,-0.012 0.003,-0.004 0.007,-0.006 0.012,-0.006 0.005,0 0.009,0.002 0.012,0.006 0.004,0.003 0.006,0.007 0.006,0.012 z"
         style="fill:#107c10;fill-rule:nonzero"
         id="path8358" /><path
         d="m 0.511,-0.596 c 0.01,0 0.018,0.004 0.025,0.011 0.007,0.007 0.01,0.015 0.01,0.024 v 0.036 c 0,0.009 -0.003,0.017 -0.01,0.024 -0.007,0.007 -0.015,0.011 -0.025,0.011 -0.01,0 -0.018,-0.004 -0.025,-0.01 -0.007,-0.007 -0.01,-0.016 -0.01,-0.025 v -0.036 c 0,-0.009 0.003,-0.018 0.01,-0.024 0.007,-0.007 0.015,-0.011 0.025,-0.011 z"
         style="fill-rule:nonzero"
         id="path8360" /><path
         d="M 0.266,-0.35 0.195,-0.42 h 0.071 z m 0.069,-0.07 h 0.071 v 0.07 z m 0,0.07 -0.069,-0.07 h 0.069 z"
         style="fill:#ffffff;fill-rule:nonzero"
         id="path8362" /><path
         d="m 0.581,-0.562 c 0,-0.014 0.001,-0.027 0.004,-0.041 0.002,-0.014 0.006,-0.027 0.01,-0.041 0.018,-0.055 0.047,-0.096 0.087,-0.123 0.039,-0.027 0.088,-0.04 0.145,-0.04 h 0.175 c 0,0.01 -0.001,0.02 -0.005,0.028 C 0.994,-0.77 0.989,-0.763 0.983,-0.757 0.976,-0.751 0.969,-0.746 0.96,-0.742 0.952,-0.739 0.942,-0.737 0.932,-0.737 H 0.827 c -0.004,0 -0.009,0.001 -0.013,0.002 -0.005,0.002 -0.009,0.004 -0.013,0.006 -0.009,0.005 -0.016,0.011 -0.022,0.018 -0.005,0.008 -0.01,0.016 -0.013,0.024 -0.004,0.009 -0.006,0.018 -0.007,0.028 -0.002,0.01 -0.002,0.019 -0.002,0.028 0,0.011 -0.002,0.02 -0.006,0.028 -0.003,0.009 -0.008,0.016 -0.014,0.022 -0.006,0.006 -0.014,0.011 -0.022,0.014 -0.009,0.004 -0.018,0.005 -0.028,0.005 z"
         style="fill:#ffb900;fill-rule:nonzero"
         id="path8364" /></g></g></svg>
