<?xml version="1.0" encoding="UTF-8" standalone="no"?>
<svg
   width="16.844999"
   height="15.78"
   viewBox="0 0 16.844999 15.78"
   version="1.1"
   xml:space="preserve"
   style="clip-rule:evenodd;fill-rule:evenodd;stroke-linejoin:round;stroke-miterlimit:2"
   id="svg20568"
   sodipodi:docname="emojis.svg"
   xmlns:inkscape="http://www.inkscape.org/namespaces/inkscape"
   xmlns:sodipodi="http://sodipodi.sourceforge.net/DTD/sodipodi-0.dtd"
   xmlns="http://www.w3.org/2000/svg"
   xmlns:svg="http://www.w3.org/2000/svg"><defs
     id="defs20572" /><sodipodi:namedview
     id="namedview20570"
     pagecolor="#505050"
     bordercolor="#eeeeee"
     borderopacity="1"
     inkscape:pageshadow="0"
     inkscape:pageopacity="0"
     inkscape:pagecheckerboard="0" /><g
     transform="matrix(0.24,0,0,0.24,-189.20724,-405.8268)"
     id="g20566"><g
       transform="matrix(62.5,0,0,62.5,780.551,1743.57)"
       id="g8382"><path
         d="m 1.248,-0.141 c 0,0.018 -0.003,0.035 -0.009,0.052 C 1.232,-0.073 1.223,-0.058 1.211,-0.045 1.209,-0.022 1.204,0 1.196,0.021 1.188,0.042 1.178,0.062 1.165,0.08 1.152,0.098 1.137,0.114 1.12,0.129 1.103,0.144 1.084,0.156 1.063,0.167 1.051,0.174 1.038,0.179 1.025,0.185 1.011,0.19 0.997,0.194 0.982,0.198 0.968,0.202 0.953,0.205 0.939,0.207 0.924,0.209 0.91,0.21 0.896,0.21 H 0.301 L 0.336,0.175 H 0.125 L 0.248,0.024 C 0.233,0.01 0.221,-0.006 0.21,-0.024 0.199,-0.041 0.19,-0.059 0.183,-0.079 0.176,-0.098 0.17,-0.118 0.166,-0.138 0.163,-0.158 0.161,-0.178 0.161,-0.198 0.161,-0.22 0.163,-0.242 0.167,-0.263 0.172,-0.284 0.179,-0.305 0.188,-0.324 0.197,-0.344 0.208,-0.363 0.221,-0.38 0.235,-0.397 0.25,-0.412 0.268,-0.426 0.257,-0.429 0.247,-0.434 0.238,-0.441 0.229,-0.447 0.221,-0.455 0.215,-0.464 0.209,-0.473 0.204,-0.483 0.2,-0.493 0.197,-0.504 0.195,-0.515 0.195,-0.526 v -0.141 c 0,-0.015 0.003,-0.029 0.008,-0.041 0.006,-0.013 0.013,-0.024 0.023,-0.034 0.009,-0.009 0.02,-0.017 0.033,-0.022 C 0.271,-0.769 0.285,-0.772 0.3,-0.772 H 0.438 C 0.455,-0.796 0.475,-0.813 0.5,-0.825 0.525,-0.837 0.551,-0.842 0.58,-0.842 h 0.142 v 0.105 h 0.105 v 0.175 c 0,0.016 -0.001,0.031 -0.003,0.046 -0.003,0.015 -0.006,0.03 -0.01,0.045 0.023,-0.008 0.046,-0.014 0.068,-0.017 0.022,-0.002 0.045,-0.004 0.069,-0.004 l 0.051,0.001 v 0.034 h 0.036 c 0.029,0 0.056,0.006 0.081,0.017 0.026,0.011 0.048,0.026 0.067,0.045 0.019,0.02 0.034,0.042 0.045,0.068 0.012,0.025 0.017,0.052 0.017,0.081 z"
         style="fill-rule:nonzero"
         id="path8368" /><path
         d="m 1.038,-0.386 c 0.018,0 0.036,0.004 0.054,0.011 0.017,0.007 0.032,0.018 0.044,0.031 0.013,0.012 0.023,0.027 0.031,0.044 0.007,0.018 0.011,0.036 0.011,0.054 v 0.105 c 0,0.011 -0.002,0.02 -0.005,0.029 C 1.169,-0.104 1.164,-0.096 1.158,-0.09 1.152,-0.084 1.144,-0.079 1.135,-0.075 1.127,-0.072 1.118,-0.07 1.107,-0.07 1.104,-0.074 1.099,-0.08 1.092,-0.089 1.085,-0.098 1.077,-0.108 1.068,-0.118 1.06,-0.129 1.051,-0.141 1.042,-0.153 1.032,-0.164 1.024,-0.176 1.016,-0.186 1.008,-0.197 1.002,-0.206 0.997,-0.214 0.991,-0.222 0.988,-0.228 0.988,-0.232 L 0.687,-0.246 C 0.689,-0.255 0.693,-0.265 0.698,-0.274 0.702,-0.283 0.707,-0.292 0.713,-0.3 0.739,-0.341 0.77,-0.371 0.806,-0.391 c 0.036,-0.02 0.078,-0.03 0.126,-0.03 v 0.07 c 0.007,-0.007 0.014,-0.013 0.022,-0.018 0.009,-0.004 0.017,-0.008 0.027,-0.01 0.009,-0.003 0.018,-0.005 0.028,-0.006 0.01,-0.001 0.019,-0.001 0.029,-0.001 z M 0.757,-0.562 c 0,0.045 -0.009,0.084 -0.027,0.118 -0.018,0.034 -0.046,0.062 -0.084,0.085 -0.021,0.012 -0.042,0.02 -0.064,0.026 L 0.518,-0.667 h 0.239 c 0,0.011 -0.002,0.023 -0.005,0.034 -0.003,0.011 -0.007,0.022 -0.013,0.031 -0.006,0.01 -0.014,0.018 -0.023,0.025 -0.008,0.008 -0.019,0.013 -0.03,0.015 z"
         style="fill:#f7630c;fill-rule:nonzero"
         id="path8370" /><path
         d="m 0.886,-0.315 c 0.022,0 0.044,0.002 0.065,0.007 0.021,0.004 0.042,0.011 0.061,0.021 0.019,0.009 0.037,0.021 0.053,0.035 0.016,0.014 0.03,0.031 0.041,0.051 0.011,0.019 0.02,0.04 0.027,0.063 0.006,0.023 0.01,0.045 0.01,0.068 0,0.02 -0.003,0.038 -0.008,0.055 C 1.129,0.003 1.122,0.019 1.112,0.033 1.102,0.048 1.09,0.061 1.076,0.073 1.063,0.085 1.047,0.096 1.03,0.105 1.021,0.11 1.011,0.114 1,0.119 0.989,0.123 0.977,0.127 0.966,0.13 0.954,0.133 0.942,0.136 0.93,0.137 0.918,0.139 0.907,0.14 0.896,0.14 H 0.756 C 0.761,0.13 0.767,0.121 0.774,0.113 0.781,0.104 0.79,0.097 0.799,0.091 0.808,0.084 0.818,0.079 0.828,0.076 0.839,0.072 0.849,0.07 0.861,0.07 0.876,0.07 0.891,0.068 0.906,0.062 0.92,0.057 0.934,0.05 0.946,0.041 0.957,0.031 0.967,0.02 0.975,0.007 c 0.007,-0.014 0.011,-0.028 0.011,-0.045 0,-0.002 0,-0.005 -0.001,-0.007 0,-0.003 0,-0.005 -0.001,-0.008 L 0.932,0 0.922,-0.01 0.897,0 H 0.862 L 0.851,-0.011 0.827,0 H 0.792 L 0.779,-0.01 0.792,-0.035 0.902,-0.146 C 0.892,-0.149 0.882,-0.15 0.873,-0.15 c -0.008,0 -0.016,0 -0.024,0.002 -0.008,0.001 -0.015,0.003 -0.022,0.007 L 0.722,-0.08 V 0.07 L 0.651,0.14 0.642,0.129 0.616,0.14 H 0.581 L 0.57,0.13 0.546,0.14 H 0.511 L 0.497,0.133 0.511,0.105 C 0.513,0.102 0.517,0.097 0.523,0.091 0.529,0.085 0.536,0.078 0.543,0.071 0.551,0.064 0.558,0.057 0.565,0.05 0.572,0.044 0.577,0.039 0.581,0.035 V 0 C 0.579,-0.001 0.577,-0.003 0.575,-0.005 0.573,-0.007 0.571,-0.009 0.568,-0.011 0.566,-0.013 0.564,-0.015 0.561,-0.016 0.559,-0.017 0.556,-0.018 0.554,-0.018 c -0.01,0 -0.017,10e-4 -0.021,0.003 -0.004,0.003 -0.006,0.006 -0.007,0.009 -0.002,0.004 -0.002,0.009 -0.002,0.014 0,0.005 -0.001,0.011 -0.003,0.016 L 0.441,0.105 0.432,0.095 0.406,0.105 H 0.371 L 0.361,0.093 0.335,0.105 H 0.3 L 0.287,0.095 C 0.29,0.085 0.296,0.076 0.304,0.067 0.313,0.058 0.321,0.049 0.33,0.041 0.339,0.033 0.347,0.024 0.354,0.016 0.361,0.008 0.364,0 0.364,-0.009 0.364,-0.014 0.362,-0.02 0.357,-0.025 0.352,-0.031 0.346,-0.037 0.34,-0.043 0.333,-0.049 0.327,-0.055 0.32,-0.061 0.314,-0.066 0.309,-0.072 0.306,-0.077 0.3,-0.086 0.295,-0.097 0.29,-0.108 0.284,-0.12 0.28,-0.132 0.276,-0.145 0.272,-0.157 0.269,-0.17 0.267,-0.182 0.265,-0.195 0.264,-0.207 0.264,-0.218 c 0,-0.027 0.005,-0.049 0.014,-0.067 0.01,-0.018 0.023,-0.034 0.038,-0.047 0.016,-0.013 0.034,-0.024 0.053,-0.034 0.02,-0.01 0.039,-0.02 0.059,-0.031 0.007,-0.004 0.013,-0.007 0.02,-0.011 0.006,-0.004 0.013,-0.008 0.02,-0.01 C 0.472,-0.42 0.476,-0.421 0.48,-0.423 0.484,-0.425 0.488,-0.428 0.491,-0.43 0.494,-0.433 0.497,-0.436 0.5,-0.439 0.502,-0.443 0.503,-0.447 0.503,-0.451 0.503,-0.459 0.5,-0.467 0.494,-0.474 0.487,-0.481 0.481,-0.487 0.475,-0.491 H 0.3 c -0.01,0 -0.019,-0.003 -0.025,-0.01 -0.007,-0.006 -0.01,-0.015 -0.01,-0.025 h 0.14 C 0.405,-0.536 0.403,-0.546 0.4,-0.554 0.396,-0.563 0.392,-0.57 0.385,-0.577 0.379,-0.583 0.372,-0.588 0.364,-0.591 0.355,-0.595 0.346,-0.597 0.335,-0.597 L 0.327,-0.585 0.3,-0.597 0.292,-0.583 0.265,-0.597 v -0.07 c 0,-0.01 0.003,-0.019 0.01,-0.025 0.006,-0.007 0.015,-0.01 0.025,-0.01 v 0.035 h 0.071 c 0,-0.01 0.003,-0.018 0.009,-0.025 0.006,-0.007 0.014,-0.01 0.024,-0.01 H 0.65 c 0,0.01 -0.001,0.019 -0.005,0.028 -0.003,0.009 -0.008,0.016 -0.014,0.022 -0.006,0.006 -0.013,0.011 -0.022,0.015 -0.008,0.003 -0.018,0.005 -0.028,0.005 0.011,0.009 0.021,0.02 0.03,0.032 0.009,0.012 0.016,0.025 0.022,0.039 0.006,0.014 0.01,0.028 0.013,0.043 0.003,0.015 0.004,0.03 0.004,0.044 0,0.015 -0.001,0.03 -0.003,0.045 -0.002,0.016 -0.006,0.03 -0.011,0.044 -0.005,0.014 -0.013,0.027 -0.022,0.039 -0.009,0.012 -0.02,0.022 -0.034,0.03 l -0.146,0.084 c -0.008,0.005 -0.015,0.011 -0.02,0.02 -0.004,0.008 -0.007,0.017 -0.007,0.026 0,0.008 0.002,0.014 0.004,0.021 0.003,0.006 0.007,0.012 0.012,0.016 0.005,0.005 0.01,0.009 0.017,0.012 0.006,0.002 0.013,0.004 0.02,0.004 0.005,0 0.009,-0.001 0.013,-0.002 C 0.477,-0.136 0.481,-0.138 0.485,-0.14 0.498,-0.145 0.51,-0.152 0.522,-0.159 0.534,-0.166 0.546,-0.173 0.559,-0.18 0.59,-0.196 0.621,-0.213 0.651,-0.23 0.681,-0.247 0.712,-0.264 0.744,-0.28 0.766,-0.292 0.789,-0.3 0.813,-0.306 0.837,-0.312 0.861,-0.315 0.886,-0.315 Z"
         style="fill:#73aa24;fill-rule:nonzero"
         id="path8372" /><path
         d="m 0.335,-0.597 v 0.035 L 0.3,-0.597 Z m -0.07,0 H 0.3 v 0.035 z"
         style="fill:#ffffff;fill-rule:nonzero"
         id="path8374" /><path
         d="m 0.422,-0.667 c 0.005,0 0.009,0.002 0.013,0.005 0.003,0.004 0.005,0.008 0.005,0.013 v 0.035 c 0,0.005 -0.002,0.009 -0.005,0.012 -0.004,0.004 -0.008,0.005 -0.013,0.005 -0.005,0 -0.009,-0.001 -0.012,-0.005 C 0.406,-0.605 0.405,-0.609 0.405,-0.614 v -0.035 c 0,-0.005 0.001,-0.009 0.005,-0.013 0.003,-0.003 0.007,-0.005 0.012,-0.005 z"
         style="fill-rule:nonzero"
         id="path8376" /><path
         d="m 0.476,-0.667 c 0,-0.015 0.003,-0.029 0.008,-0.042 0.005,-0.013 0.012,-0.024 0.022,-0.033 0.009,-0.01 0.02,-0.017 0.033,-0.022 0.013,-0.005 0.027,-0.008 0.043,-0.008 h 0.07 c 0,0.008 -0.002,0.014 -0.005,0.019 -0.003,0.005 -0.007,0.008 -0.012,0.01 -0.005,0.003 -0.01,0.004 -0.016,0.005 -0.006,0 -0.012,0.001 -0.018,0.001 H 0.582 c -0.01,0 -0.017,0.001 -0.021,0.005 -0.005,0.003 -0.008,0.008 -0.01,0.013 -0.002,0.005 -0.004,0.011 -0.005,0.017 -0.001,0.006 -0.002,0.012 -0.004,0.017 -0.002,0.005 -0.006,0.009 -0.01,0.013 -0.004,0.003 -0.011,0.005 -0.021,0.005 z"
         style="fill:#ffb900;fill-rule:nonzero"
         id="path8378" /><path
         d="m 0.3,-0.201 c 0,0.016 0.002,0.033 0.007,0.05 0.004,0.016 0.01,0.032 0.018,0.047 0.026,0.046 0.064,0.069 0.116,0.069 h 0.14 V 0 C 0.561,0.011 0.539,0.02 0.517,0.026 0.494,0.032 0.471,0.035 0.448,0.035 0.414,0.035 0.384,0.029 0.357,0.016 0.33,0.004 0.308,-0.013 0.289,-0.034 0.27,-0.056 0.256,-0.081 0.246,-0.109 0.236,-0.138 0.23,-0.168 0.23,-0.2 c 0,-0.029 0.004,-0.054 0.011,-0.075 0.007,-0.021 0.016,-0.039 0.028,-0.054 0.011,-0.015 0.024,-0.028 0.039,-0.039 0.015,-0.01 0.03,-0.02 0.045,-0.028 0.015,-0.008 0.03,-0.015 0.044,-0.021 0.015,-0.007 0.028,-0.013 0.04,-0.02 0.011,-0.007 0.021,-0.014 0.028,-0.023 0.007,-0.008 0.01,-0.019 0.01,-0.031 h 0.071 v 0.006 c 0,0.013 -0.002,0.024 -0.006,0.035 C 0.536,-0.44 0.531,-0.43 0.524,-0.421 0.517,-0.412 0.51,-0.404 0.501,-0.396 0.492,-0.389 0.483,-0.382 0.473,-0.375 0.466,-0.371 0.459,-0.367 0.452,-0.364 0.445,-0.361 0.438,-0.358 0.43,-0.355 0.411,-0.347 0.393,-0.339 0.377,-0.331 0.361,-0.323 0.348,-0.313 0.336,-0.301 0.325,-0.289 0.316,-0.276 0.31,-0.26 0.303,-0.244 0.3,-0.224 0.3,-0.201 Z M 0.792,0 H 0.757 L 0.792,-0.035 Z M 0.511,0.14 H 0.476 L 0.511,0.105 Z M 0.897,0 0.932,-0.035 V 0 Z M 0.862,0 H 0.827 L 0.862,-0.035 Z M 0.581,0.14 H 0.546 L 0.581,0.105 Z m 0.07,0 H 0.616 L 0.651,0.105 Z M 0.441,0.105 H 0.406 L 0.441,0.07 Z m -0.07,0 H 0.335 L 0.371,0.07 Z m -0.071,0 H 0.265 L 0.3,0.07 Z"
         style="fill:#bad80a;fill-rule:nonzero"
         id="path8380" /></g></g></svg>
