<?xml version="1.0" encoding="UTF-8" standalone="no"?>
<svg
   width="16.32"
   height="16.844999"
   viewBox="0 0 16.32 16.844999"
   version="1.1"
   xml:space="preserve"
   style="clip-rule:evenodd;fill-rule:evenodd;stroke-linejoin:round;stroke-miterlimit:2"
   id="svg20568"
   sodipodi:docname="emojis.svg"
   xmlns:inkscape="http://www.inkscape.org/namespaces/inkscape"
   xmlns:sodipodi="http://sodipodi.sourceforge.net/DTD/sodipodi-0.dtd"
   xmlns="http://www.w3.org/2000/svg"
   xmlns:svg="http://www.w3.org/2000/svg"><defs
     id="defs20572" /><sodipodi:namedview
     id="namedview20570"
     pagecolor="#505050"
     bordercolor="#eeeeee"
     borderopacity="1"
     inkscape:pageshadow="0"
     inkscape:pageopacity="0"
     inkscape:pagecheckerboard="0" /><g
     transform="matrix(0.24,0,0,0.24,-230.39868,-404.7618)"
     id="g20566"><g
       transform="matrix(62.5,0,0,62.5,952.182,1743.57)"
       id="g8408"><path
         d="m 0.492,-0.868 c 0.013,0.006 0.025,0.013 0.036,0.021 0.011,0.009 0.021,0.019 0.029,0.031 0.007,0.011 0.013,0.023 0.018,0.037 0.004,0.013 0.006,0.027 0.006,0.042 v 0.105 c 0,0.013 0.003,0.025 0.009,0.037 0.007,0.012 0.015,0.021 0.026,0.028 0.002,0.001 0.004,0.002 0.006,0.003 0.002,0.001 0.005,0.002 0.007,0.003 l 0.355,0.118 c 0.034,0.012 0.065,0.028 0.093,0.049 0.029,0.021 0.053,0.045 0.073,0.073 0.02,0.028 0.035,0.058 0.046,0.092 0.011,0.033 0.017,0.068 0.017,0.104 0,0.031 -0.004,0.061 -0.012,0.089 C 1.193,-0.007 1.182,0.019 1.167,0.044 1.152,0.069 1.135,0.092 1.115,0.112 1.094,0.132 1.072,0.15 1.047,0.165 1.022,0.179 0.995,0.191 0.967,0.198 0.938,0.206 0.908,0.21 0.877,0.21 H 0.441 V 0.14 C 0.441,0.129 0.443,0.118 0.446,0.108 0.449,0.098 0.454,0.088 0.46,0.08 0.467,0.071 0.474,0.063 0.483,0.057 0.491,0.05 0.501,0.045 0.511,0.041 V 0.015 L 0.406,-0.073 v -0.08 L 0.433,-0.225 0.415,-0.246 H 0.371 C 0.356,-0.246 0.342,-0.248 0.33,-0.254 0.317,-0.259 0.306,-0.267 0.296,-0.277 0.287,-0.286 0.279,-0.297 0.273,-0.31 0.268,-0.323 0.265,-0.336 0.265,-0.351 c 0,-0.01 0.002,-0.021 0.006,-0.032 C 0.261,-0.393 0.254,-0.404 0.249,-0.417 0.243,-0.43 0.241,-0.443 0.241,-0.457 0.241,-0.47 0.243,-0.483 0.248,-0.495 0.253,-0.507 0.26,-0.518 0.268,-0.527 0.277,-0.536 0.287,-0.544 0.298,-0.55 0.31,-0.556 0.322,-0.56 0.335,-0.561 H 0.291 c -0.01,0 -0.02,0 -0.03,-0.001 C 0.251,-0.563 0.242,-0.564 0.232,-0.567 0.223,-0.57 0.215,-0.574 0.206,-0.58 0.198,-0.585 0.19,-0.593 0.183,-0.602 0.171,-0.606 0.161,-0.612 0.152,-0.621 0.143,-0.629 0.136,-0.638 0.13,-0.649 0.13,-0.651 0.129,-0.654 0.127,-0.658 0.126,-0.662 0.125,-0.665 0.125,-0.667 v -0.105 c 0,-0.015 0.003,-0.028 0.008,-0.041 0.006,-0.013 0.013,-0.024 0.023,-0.033 0.01,-0.01 0.021,-0.018 0.033,-0.023 0.013,-0.006 0.027,-0.008 0.041,-0.008 h 0.062 c 0.01,-0.012 0.022,-0.02 0.036,-0.026 0.013,-0.007 0.028,-0.01 0.043,-0.01 h 0.005 c 0.012,0 0.023,0.001 0.034,0.001 0.011,0.001 0.021,0.002 0.03,0.005 0.01,0.003 0.019,0.008 0.028,0.014 0.008,0.006 0.016,0.014 0.024,0.025 z"
         style="fill-rule:nonzero"
         id="path8394" /><path
         d="M 0.722,-0.246 0.651,-0.105 V 0 L 0.616,0.14 H 0.581 L 0.559,0.123 0.581,0.105 V -0.018 L 0.476,-0.105 v -0.036 l 0.053,-0.14 z"
         style="fill:#8e562e;fill-rule:nonzero"
         id="path8396" /><path
         d="M 1.002,-0.035 C 1.002,-0.052 1,-0.067 0.995,-0.081 0.991,-0.095 0.984,-0.108 0.975,-0.119 0.966,-0.13 0.956,-0.14 0.943,-0.148 0.931,-0.157 0.917,-0.164 0.902,-0.169 0.896,-0.172 0.889,-0.173 0.882,-0.174 0.875,-0.175 0.868,-0.176 0.862,-0.176 H 0.704 C 0.671,-0.176 0.64,-0.181 0.61,-0.191 0.58,-0.201 0.552,-0.216 0.527,-0.234 0.502,-0.253 0.48,-0.275 0.461,-0.301 0.443,-0.326 0.429,-0.355 0.419,-0.386 0.413,-0.392 0.407,-0.399 0.402,-0.407 0.396,-0.415 0.394,-0.423 0.394,-0.432 0.394,-0.436 0.395,-0.439 0.398,-0.441 0.4,-0.443 0.404,-0.444 0.407,-0.445 0.406,-0.455 0.406,-0.464 0.406,-0.474 v -0.193 c 0.003,-0.004 0.006,-0.006 0.01,-0.008 0.004,-0.001 0.008,-0.002 0.013,-0.002 0.007,0 0.014,0.002 0.021,0.005 0.007,0.004 0.014,0.008 0.019,0.014 0.006,0.005 0.011,0.012 0.015,0.019 0.003,0.007 0.005,0.014 0.006,0.021 l 0.008,0.144 v 0.006 c 0.001,0.009 0.001,0.017 0.002,0.025 0,0.009 0.001,0.017 0.003,0.026 0.009,0.037 0.025,0.067 0.049,0.09 0.024,0.023 0.055,0.039 0.092,0.047 0.009,0.002 0.018,0.003 0.028,0.003 0.009,0.001 0.019,0.001 0.029,0.002 0.028,0.001 0.057,0.003 0.086,0.004 0.029,0.002 0.057,0.003 0.086,0.003 h 0.029 c 0.027,0 0.053,0.006 0.076,0.019 0.024,0.013 0.044,0.03 0.062,0.051 0.018,0.021 0.031,0.044 0.041,0.07 0.01,0.026 0.015,0.052 0.015,0.078 0,0.017 -0.003,0.034 -0.009,0.05 C 1.081,0.017 1.072,0.032 1.062,0.046 1.051,0.06 1.038,0.073 1.024,0.085 1.01,0.096 0.994,0.106 0.978,0.114 0.962,0.122 0.945,0.129 0.928,0.133 0.91,0.138 0.894,0.14 0.877,0.14 H 0.827 C 0.827,0.13 0.83,0.122 0.836,0.116 0.842,0.11 0.85,0.107 0.859,0.105 0.873,0.104 0.886,0.101 0.9,0.098 0.913,0.094 0.925,0.09 0.936,0.083 0.948,0.077 0.958,0.07 0.967,0.06 0.976,0.051 0.984,0.039 0.99,0.025 0.998,0.006 1.002,-0.014 1.002,-0.035 Z"
         style="fill:#f7d7c4;fill-rule:nonzero"
         id="path8398" /><path
         d="m 1.087,-0.288 c 0.018,0.024 0.032,0.049 0.041,0.077 0.01,0.028 0.015,0.056 0.015,0.086 0,0.024 -0.004,0.048 -0.01,0.071 C 1.127,-0.032 1.118,-0.011 1.106,0.009 1.095,0.028 1.081,0.046 1.065,0.062 1.049,0.079 1.031,0.093 1.011,0.104 0.992,0.115 0.971,0.124 0.948,0.131 0.925,0.137 0.902,0.14 0.877,0.14 0.904,0.14 0.93,0.135 0.954,0.125 0.977,0.115 0.998,0.102 1.016,0.084 1.033,0.067 1.047,0.047 1.057,0.023 1.068,0 1.073,-0.025 1.073,-0.053 1.073,-0.079 1.068,-0.104 1.058,-0.128 1.048,-0.151 1.034,-0.172 1.016,-0.189 0.999,-0.207 0.978,-0.22 0.955,-0.23 0.931,-0.241 0.906,-0.246 0.879,-0.246 l -0.007,0.001 -0.01,-0.001 -0.07,0.141 0.035,0.07 L 0.774,0.14 H 0.722 L 0.693,0.123 0.722,0.105 V -0.018 L 0.616,-0.105 V -0.141 L 0.658,-0.25 C 0.636,-0.255 0.616,-0.263 0.597,-0.273 0.577,-0.283 0.56,-0.296 0.545,-0.311 0.53,-0.326 0.517,-0.342 0.506,-0.361 0.495,-0.38 0.487,-0.4 0.482,-0.422 l -0.006,0.001 v 0.07 H 0.371 L 0.353,-0.338 0.335,-0.351 c 0,-0.008 0.002,-0.014 0.005,-0.019 0.003,-0.005 0.007,-0.008 0.012,-0.011 0.005,-0.002 0.01,-0.004 0.017,-0.004 0.006,-0.001 0.012,-0.002 0.019,-0.002 l 0.028,0.001 -0.07,-0.071 H 0.328 L 0.321,-0.481 c 0.007,-0.007 0.015,-0.01 0.025,-0.01 0.009,0 0.017,0.003 0.025,0.01 l 0.036,0.036 c 0.002,0.02 0.006,0.04 0.012,0.059 h 0.022 v -0.071 c 0,-0.009 0.003,-0.018 0.01,-0.024 0.007,-0.007 0.016,-0.01 0.025,-0.01 V -0.597 C 0.476,-0.606 0.474,-0.616 0.47,-0.624 0.467,-0.632 0.462,-0.64 0.455,-0.646 0.449,-0.653 0.442,-0.658 0.433,-0.661 0.425,-0.665 0.416,-0.667 0.406,-0.667 c 0,0.01 -0.004,0.018 -0.01,0.025 -0.007,0.007 -0.016,0.01 -0.025,0.01 H 0.265 c -0.01,0 -0.018,-0.003 -0.025,-0.01 C 0.234,-0.649 0.23,-0.658 0.23,-0.667 h 0.105 c 0.005,0 0.009,-0.002 0.013,-0.005 0.003,-0.004 0.005,-0.008 0.005,-0.013 0,-0.004 -0.002,-0.009 -0.005,-0.012 C 0.344,-0.7 0.34,-0.702 0.335,-0.702 L 0.327,-0.691 0.3,-0.702 0.288,-0.691 0.265,-0.702 0.256,-0.691 0.23,-0.702 0.22,-0.691 0.195,-0.702 v -0.07 c 0,-0.01 0.004,-0.018 0.011,-0.025 0.006,-0.007 0.015,-0.01 0.024,-0.01 h 0.105 c 0,-0.01 0.004,-0.018 0.011,-0.025 0.007,-0.007 0.015,-0.01 0.025,-0.01 h 0.018 c 0.006,0 0.013,0 0.019,0.001 0.006,0 0.011,0.002 0.016,0.004 0.005,0.003 0.009,0.006 0.012,0.011 0.003,0.004 0.005,0.011 0.005,0.019 0.012,0 0.024,0.003 0.035,0.009 0.01,0.006 0.019,0.015 0.025,0.026 l -0.009,0.013 0.019,0.022 v 0.035 l -0.015,0.017 0.015,0.018 v 0.035 c 0,0.019 0.003,0.037 0.01,0.054 0.007,0.017 0.016,0.033 0.028,0.046 0.003,0.003 0.007,0.006 0.012,0.01 0.004,0.004 0.008,0.007 0.009,0.009 0.001,0.001 0.002,0.003 0.002,0.004 l 0.001,0.013 c 0.001,0.002 0.001,0.003 0.002,0.005 0.001,0 0.001,0.001 0.002,0.001 0.001,0.001 0.001,0.002 0.002,0.003 0.001,0.001 0.002,0.003 0.002,0.005 0,0.002 0.002,0.003 0.005,0.004 l 0.049,-0.007 0.038,0.012 0.021,0.023 0.034,-0.001 c 0.002,0 0.004,0 0.006,0 0.002,0 0.004,0 0.006,0.001 0.006,0 0.012,0.002 0.019,0.005 0.007,0.003 0.014,0.006 0.019,0.007 l 0.028,0.025 0.04,-0.002 0.037,0.013 0.025,0.023 C 0.912,-0.38 0.916,-0.38 0.92,-0.38 c 0.004,0 0.007,0 0.01,0 0.006,0 0.012,0 0.017,0.001 0.005,0 0.011,0.001 0.015,0.003 0.005,0.001 0.01,0.003 0.016,0.006 0.006,0.002 0.012,0.005 0.019,0.008 0.001,0.005 0.003,0.009 0.006,0.013 0.002,0.004 0.006,0.006 0.012,0.006 0.002,0 0.004,0 0.006,0 0.001,0 0.003,0 0.005,-10e-4 0.014,0.009 0.026,0.018 0.036,0.029 0,0.004 10e-4,0.008 0.002,0.012 10e-4,0.003 0.002,0.006 0.003,0.008 0.002,0.002 0.004,0.004 0.007,0.005 0.003,0.002 0.007,0.002 0.013,0.002 z"
         style="fill:#bb9167;fill-rule:nonzero"
         id="path8400" /><path
         d="m 0.371,-0.807 0.017,0.017 0.018,-0.017 h 0.035 v 0.017 c 0,0.008 -0.001,0.015 -0.004,0.021 -0.003,0.007 -0.007,0.012 -0.012,0.017 -0.005,0.004 -0.01,0.008 -0.017,0.011 -0.006,0.002 -0.013,0.004 -0.02,0.004 -0.007,0 -0.014,-0.002 -0.02,-0.004 C 0.362,-0.744 0.356,-0.748 0.351,-0.752 0.346,-0.757 0.342,-0.762 0.34,-0.769 0.337,-0.775 0.335,-0.782 0.335,-0.79 v -0.017 z m 0.199,0.294 c 0.006,0.003 0.012,0.006 0.017,0.009 0.004,0.002 0.009,0.004 0.014,0.006 0.005,0.002 0.01,0.004 0.015,0.006 0.005,0.002 0.012,0.004 0.019,0.007 L 0.613,-0.44 C 0.61,-0.435 0.605,-0.43 0.6,-0.427 c -0.006,0.004 -0.012,0.006 -0.019,0.006 -0.01,0 -0.018,-0.004 -0.025,-0.011 -0.007,-0.006 -0.01,-0.015 -0.01,-0.025 0,-0.004 0.001,-0.008 0.003,-0.013 0.002,-0.006 0.004,-0.011 0.007,-0.016 0.002,-0.005 0.005,-0.01 0.008,-0.015 0.002,-0.004 0.005,-0.009 0.006,-0.012 z m 0.187,0.127 c 0,-0.004 0.001,-0.009 0.002,-0.013 0.002,-0.005 0.004,-0.009 0.006,-0.014 0.002,-0.004 0.004,-0.009 0.007,-0.013 0.002,-0.004 0.004,-0.008 0.006,-0.011 l 0.068,0.022 -0.023,0.044 C 0.82,-0.365 0.816,-0.36 0.811,-0.356 0.805,-0.353 0.799,-0.351 0.792,-0.351 0.782,-0.351 0.774,-0.354 0.767,-0.361 0.76,-0.368 0.757,-0.376 0.757,-0.386 Z M 0.651,-0.421 c 0,-0.004 0.001,-0.009 0.003,-0.013 0.001,-0.005 0.003,-0.009 0.006,-0.014 0.002,-0.004 0.004,-0.009 0.007,-0.013 0.002,-0.004 0.004,-0.008 0.006,-0.012 L 0.74,-0.45 0.718,-0.406 C 0.715,-0.4 0.71,-0.395 0.705,-0.391 0.699,-0.388 0.693,-0.386 0.687,-0.386 0.677,-0.386 0.668,-0.39 0.662,-0.396 0.655,-0.403 0.651,-0.411 0.651,-0.421 Z m 0.211,0.07 c 0,-0.004 0.001,-0.009 0.002,-0.013 0.002,-0.005 0.004,-0.009 0.006,-0.014 0.002,-0.004 0.005,-0.009 0.007,-0.013 0.003,-0.004 0.005,-0.008 0.006,-0.011 l 0.068,0.022 -0.023,0.045 c -0.003,0.006 -0.007,0.011 -0.012,0.014 -0.006,0.003 -0.012,0.005 -0.019,0.005 -0.009,0 -0.018,-0.003 -0.025,-0.01 -0.007,-0.007 -0.01,-0.016 -0.01,-0.025 z m 0.105,0.053 c 0,-0.003 0.002,-0.007 0.004,-0.013 0.003,-0.006 0.006,-0.012 0.009,-0.019 l 0.017,-0.032 c 0.011,0.006 0.021,0.012 0.03,0.018 L 1,-0.291 c -0.003,0.007 -0.008,0.01 -0.015,0.01 -0.005,0 -0.009,-10e-4 -0.012,-0.005 C 0.969,-0.289 0.967,-0.293 0.967,-0.298 Z M 0.511,-0.702 v 0.035 H 0.458 c -0.004,0 -0.009,-0.002 -0.012,-0.005 -0.003,-0.004 -0.005,-0.008 -0.005,-0.013 0,-0.004 0.002,-0.009 0.005,-0.012 0.003,-0.003 0.008,-0.005 0.012,-0.005 z m -0.01,-0.07 c 0.003,0.006 0.006,0.011 0.008,0.017 0.001,0.006 0.002,0.012 0.002,0.018 H 0.458 c -0.004,0 -0.009,-0.002 -0.012,-0.005 -0.003,-0.004 -0.005,-0.008 -0.005,-0.013 0,-0.004 0.002,-0.008 0.005,-0.012 0.004,-0.003 0.008,-0.005 0.012,-0.005 z m 0.561,0.457 c 0.004,0.004 0.008,0.009 0.013,0.013 0.004,0.005 0.008,0.01 0.012,0.014 L 1.071,-0.255 C 1.069,-0.253 1.067,-0.25 1.064,-0.249 1.061,-0.247 1.058,-0.246 1.055,-0.246 1.05,-0.246 1.046,-0.247 1.043,-0.251 1.039,-0.255 1.038,-0.259 1.038,-0.264 c 0,-0.002 10e-4,-0.006 0.003,-0.011 0.001,-0.004 0.004,-0.009 0.007,-0.015 z"
         style="fill:#8e562e;fill-rule:nonzero"
         id="path8402" /><path
         d="M 0.722,0.14 H 0.651 c 0,-0.009 0.004,-0.018 0.011,-0.025 0.007,-0.007 0.015,-0.01 0.025,-0.01 h 0.035 z m -0.141,0 h -0.07 c 0,-0.009 0.004,-0.018 0.01,-0.025 0.007,-0.007 0.015,-0.01 0.025,-0.01 h 0.035 z m -0.21,-0.456 c -0.01,0 -0.018,-0.003 -0.025,-0.01 C 0.339,-0.333 0.335,-0.341 0.335,-0.351 h 0.036 z m -0.05,-0.116 c -0.007,-0.006 -0.01,-0.015 -0.01,-0.024 0,-0.01 0.003,-0.018 0.01,-0.025 l 0.025,0.024 z M 0.23,-0.702 v 0.035 L 0.195,-0.702 Z m 0.07,0 v 0.035 L 0.265,-0.702 Z m 0.035,0 v 0.035 L 0.3,-0.702 Z m -0.07,0 v 0.035 L 0.23,-0.702 Z"
         style="fill:#ffffff;fill-rule:nonzero"
         id="path8404" /><path
         d="m 0.406,-0.807 v 0.017 c 0,0.005 -0.002,0.009 -0.006,0.013 -0.003,0.003 -0.007,0.005 -0.012,0.005 -0.004,0 -0.008,-0.002 -0.012,-0.005 C 0.372,-0.781 0.371,-0.785 0.371,-0.79 v -0.017 z m -0.141,0.052 c 0,0.005 -0.002,0.009 -0.005,0.012 -0.003,0.004 -0.007,0.006 -0.012,0.006 -0.005,0 -0.009,-0.002 -0.012,-0.005 C 0.232,-0.746 0.23,-0.75 0.23,-0.755 c 0,-0.004 0.002,-0.008 0.006,-0.012 0.003,-0.003 0.007,-0.005 0.012,-0.005 0.005,0 0.009,0.002 0.012,0.005 0.003,0.004 0.005,0.008 0.005,0.012 z"
         style="fill-rule:nonzero"
         id="path8406" /></g></g></svg>
