<?xml version="1.0" encoding="UTF-8" standalone="no"?>
<svg
   width="16.844999"
   height="16.860001"
   viewBox="0 0 16.844999 16.860001"
   version="1.1"
   xml:space="preserve"
   style="clip-rule:evenodd;fill-rule:evenodd;stroke-linejoin:round;stroke-miterlimit:2"
   id="svg20568"
   sodipodi:docname="emojis.svg"
   xmlns:inkscape="http://www.inkscape.org/namespaces/inkscape"
   xmlns:sodipodi="http://sodipodi.sourceforge.net/DTD/sodipodi-0.dtd"
   xmlns="http://www.w3.org/2000/svg"
   xmlns:svg="http://www.w3.org/2000/svg"><defs
     id="defs20572" /><sodipodi:namedview
     id="namedview20570"
     pagecolor="#505050"
     bordercolor="#eeeeee"
     borderopacity="1"
     inkscape:pageshadow="0"
     inkscape:pageopacity="0"
     inkscape:pagecheckerboard="0" /><g
     transform="matrix(0.24,0,0,0.24,-250.4742,-404.7618)"
     id="g20566"><g
       transform="matrix(62.5,0,0,62.5,1035.83,1743.57)"
       id="g8418"><path
         d="m 0.987,-0.802 c 0.038,0.007 0.072,0.019 0.104,0.038 0.032,0.019 0.06,0.042 0.083,0.07 0.023,0.028 0.041,0.059 0.054,0.094 0.013,0.034 0.02,0.071 0.02,0.109 0,0.032 0,0.064 0,0.095 0,0.032 0,0.064 0,0.096 0,0.04 -0.005,0.079 -0.014,0.117 C 1.225,-0.145 1.212,-0.11 1.194,-0.076 1.176,-0.042 1.154,-0.011 1.128,0.018 1.102,0.047 1.071,0.071 1.037,0.092 V 0.21 L 0.991,0.211 C 0.976,0.211 0.962,0.21 0.948,0.209 0.933,0.208 0.92,0.206 0.906,0.203 0.893,0.2 0.88,0.195 0.868,0.189 0.855,0.183 0.843,0.175 0.832,0.165 0.809,0.169 0.787,0.171 0.764,0.173 0.741,0.174 0.719,0.175 0.696,0.175 H 0.3 C 0.28,0.175 0.261,0.172 0.244,0.165 0.227,0.157 0.212,0.148 0.2,0.135 0.187,0.123 0.178,0.108 0.17,0.091 0.163,0.074 0.16,0.055 0.16,0.035 V -0.033 C 0.149,-0.048 0.14,-0.065 0.134,-0.084 0.128,-0.102 0.125,-0.121 0.125,-0.14 v -0.141 c 0,-0.038 0.009,-0.072 0.028,-0.1 C 0.171,-0.409 0.198,-0.43 0.235,-0.444 0.222,-0.454 0.213,-0.466 0.206,-0.48 0.198,-0.495 0.195,-0.51 0.195,-0.526 c 0,-0.024 0.004,-0.047 0.014,-0.068 0.009,-0.022 0.022,-0.04 0.038,-0.056 0.016,-0.016 0.034,-0.029 0.055,-0.038 0.022,-0.01 0.045,-0.014 0.069,-0.014 0.023,0 0.047,0.005 0.069,0.015 0.023,-0.01 0.047,-0.015 0.071,-0.015 0.024,0 0.047,0.004 0.068,0.014 0.021,0.009 0.04,0.022 0.056,0.038 0.015,0.016 0.028,0.034 0.037,0.056 0.009,0.021 0.014,0.044 0.014,0.068 0,0.013 -0.002,0.025 -0.007,0.037 -0.004,0.012 -0.011,0.023 -0.02,0.032 h 0.062 v -0.456 h 0.071 c 0.02,0 0.04,0.002 0.06,0.007 0.02,0.004 0.038,0.01 0.055,0.019 0.017,0.009 0.033,0.02 0.046,0.034 0.014,0.014 0.026,0.031 0.034,0.051 z"
         style="fill-rule:nonzero"
         id="path8410" /><path
         d="m 0.932,-0.737 c 0.033,0 0.065,0.006 0.095,0.019 0.03,0.013 0.056,0.031 0.078,0.053 0.023,0.023 0.04,0.049 0.053,0.079 0.013,0.03 0.019,0.061 0.019,0.095 0,0.032 0,0.064 0,0.096 10e-4,0.032 10e-4,0.064 10e-4,0.096 0,0.014 -10e-4,0.03 -0.002,0.045 C 1.175,-0.238 1.173,-0.223 1.168,-0.209 1.167,-0.207 1.166,-0.203 1.163,-0.198 1.16,-0.193 1.157,-0.188 1.154,-0.182 1.151,-0.176 1.148,-0.171 1.145,-0.166 1.142,-0.16 1.139,-0.157 1.138,-0.155 1.117,-0.127 1.095,-0.101 1.072,-0.077 1.049,-0.052 1.026,-0.027 1.003,-0.002 0.995,0.006 0.989,0.014 0.983,0.023 0.977,0.032 0.972,0.041 0.967,0.051 V 0.14 C 0.944,0.14 0.924,0.136 0.905,0.129 0.885,0.121 0.869,0.108 0.855,0.089 0.849,0.088 0.842,0.086 0.835,0.083 0.829,0.08 0.822,0.077 0.816,0.074 0.811,0.071 0.805,0.068 0.8,0.066 0.795,0.063 0.791,0.062 0.787,0.061 0.784,0.06 0.781,0.06 0.778,0.06 c -0.004,0 -0.007,0 -0.009,0 H 0.716 L 0.651,0.105 H 0.3 C 0.29,0.105 0.28,0.103 0.272,0.1 0.264,0.096 0.256,0.092 0.25,0.085 0.243,0.079 0.239,0.072 0.235,0.063 0.232,0.055 0.23,0.046 0.23,0.035 H 0.406 C 0.416,0.035 0.425,0.033 0.434,0.03 0.442,0.027 0.45,0.022 0.456,0.015 0.463,0.009 0.468,0.002 0.471,-0.007 0.474,-0.015 0.476,-0.025 0.476,-0.035 H 0.301 c -0.016,0 -0.03,-0.003 -0.043,-0.008 C 0.245,-0.048 0.234,-0.055 0.225,-0.065 0.216,-0.074 0.208,-0.085 0.203,-0.098 0.198,-0.111 0.195,-0.125 0.195,-0.141 v -0.14 c 0,-0.015 0.003,-0.029 0.008,-0.042 0.005,-0.013 0.013,-0.024 0.022,-0.034 0.009,-0.009 0.02,-0.016 0.033,-0.021 0.013,-0.006 0.027,-0.008 0.043,-0.008 h 0.105 c 0.003,-0.007 0.007,-0.013 0.014,-0.019 0.006,-0.006 0.014,-0.009 0.021,-0.009 0.008,0 0.015,0.003 0.021,0.009 0.007,0.006 0.011,0.012 0.014,0.019 h 0.456 c 0.014,0 0.028,-0.003 0.041,-0.009 C 0.985,-0.4 0.997,-0.408 1.006,-0.417 1.016,-0.426 1.023,-0.437 1.029,-0.45 1.034,-0.463 1.037,-0.477 1.037,-0.491 1.037,-0.506 1.034,-0.52 1.029,-0.532 1.023,-0.545 1.016,-0.556 1.006,-0.566 0.997,-0.575 0.986,-0.583 0.973,-0.588 0.96,-0.594 0.947,-0.597 0.932,-0.597 c 0,0.007 -0.001,0.013 -0.002,0.018 -0.002,0.006 -0.004,0.011 -0.006,0.017 -0.006,0.014 -0.014,0.025 -0.023,0.034 -0.01,0.009 -0.02,0.017 -0.031,0.022 -0.012,0.005 -0.024,0.009 -0.037,0.011 -0.014,0.003 -0.027,0.004 -0.041,0.004 V -0.632 L 0.827,-0.667 0.792,-0.702 v -0.14 c 0.013,0 0.026,0.001 0.04,0.003 0.013,0.002 0.026,0.006 0.037,0.012 0.012,0.005 0.023,0.013 0.032,0.022 0.01,0.009 0.017,0.02 0.023,0.033 0.002,0.006 0.004,0.011 0.005,0.017 0.002,0.006 0.003,0.012 0.003,0.018 z"
         style="fill:#00bcf2;fill-rule:nonzero"
         id="path8412" /><path
         d="M 0.476,-0.386 H 0.405 v -0.14 c 0,-0.01 -0.003,-0.018 -0.01,-0.025 -0.007,-0.007 -0.015,-0.011 -0.024,-0.011 -0.01,0 -0.018,0.004 -0.025,0.011 -0.007,0.007 -0.011,0.015 -0.011,0.025 0,0.009 -0.003,0.017 -0.01,0.024 -0.007,0.007 -0.015,0.011 -0.025,0.011 -0.009,0 -0.017,-0.004 -0.024,-0.011 -0.007,-0.007 -0.011,-0.015 -0.011,-0.024 0,-0.015 0.003,-0.029 0.008,-0.041 0.006,-0.013 0.014,-0.024 0.023,-0.034 0.01,-0.009 0.021,-0.017 0.034,-0.023 0.012,-0.005 0.026,-0.008 0.041,-0.008 0.013,0 0.025,0.003 0.037,0.007 0.012,0.005 0.023,0.012 0.032,0.021 0.01,-0.009 0.021,-0.016 0.033,-0.021 0.012,-0.004 0.025,-0.007 0.038,-0.007 0.014,0 0.028,0.003 0.041,0.008 0.012,0.006 0.024,0.014 0.033,0.023 0.01,0.01 0.017,0.021 0.023,0.034 0.005,0.012 0.008,0.026 0.008,0.041 0,0.009 -0.003,0.017 -0.01,0.024 -0.007,0.007 -0.016,0.011 -0.025,0.011 -0.009,0 -0.018,-0.004 -0.025,-0.011 -0.007,-0.007 -0.01,-0.015 -0.01,-0.024 0,-0.01 -0.004,-0.018 -0.01,-0.025 -0.007,-0.007 -0.015,-0.011 -0.025,-0.011 -0.01,0 -0.018,0.004 -0.025,0.011 -0.007,0.007 -0.01,0.015 -0.01,0.025 z m 0.351,0.281 V 0 c 0,0.016 0.002,0.032 0.007,0.047 C 0.84,0.062 0.847,0.076 0.856,0.089 0.83,0.095 0.803,0.099 0.776,0.102 0.75,0.104 0.723,0.105 0.696,0.105 H 0.651 c 0,-0.022 0.002,-0.043 0.007,-0.063 0.004,-0.02 0.011,-0.039 0.02,-0.056 0.009,-0.017 0.021,-0.033 0.036,-0.046 0.015,-0.014 0.034,-0.025 0.055,-0.033 0.009,-0.004 0.019,-0.007 0.028,-0.009 0.01,-0.002 0.02,-0.003 0.03,-0.003 z m 0.095,0 h 0.045 c 0.02,0 0.039,-0.003 0.058,-0.008 0.02,-0.004 0.038,-0.011 0.055,-0.02 0.017,-0.009 0.033,-0.02 0.048,-0.034 C 1.143,-0.18 1.157,-0.194 1.168,-0.21 1.156,-0.152 1.133,-0.1 1.099,-0.055 1.065,-0.011 1.021,0.025 0.967,0.051 V 0.021 C 0.967,0.009 0.966,-0.003 0.966,-0.014 0.965,-0.026 0.963,-0.037 0.96,-0.047 0.957,-0.058 0.952,-0.068 0.946,-0.078 0.94,-0.087 0.932,-0.097 0.922,-0.105 Z"
         style="fill:#69eaff;fill-rule:nonzero"
         id="path8414" /><path
         d="m 0.581,-0.105 c 0.009,0 0.018,0.003 0.024,0.01 0.007,0.007 0.011,0.015 0.011,0.025 v 0.035 c 0,0.01 -0.004,0.018 -0.011,0.025 C 0.599,-0.003 0.59,0 0.581,0 0.571,0 0.563,-0.003 0.556,-0.01 0.549,-0.017 0.545,-0.025 0.545,-0.035 V -0.07 c 0,-0.01 0.004,-0.018 0.011,-0.025 0.007,-0.007 0.015,-0.01 0.025,-0.01 z"
         style="fill-rule:nonzero"
         id="path8416" /></g></g></svg>
