<?xml version="1.0" encoding="UTF-8" standalone="no"?>
<svg
   width="16.860001"
   height="16.844999"
   viewBox="0 0 16.860001 16.844999"
   version="1.1"
   xml:space="preserve"
   style="clip-rule:evenodd;fill-rule:evenodd;stroke-linejoin:round;stroke-miterlimit:2"
   id="svg20568"
   sodipodi:docname="emojis.svg"
   xmlns:inkscape="http://www.inkscape.org/namespaces/inkscape"
   xmlns:sodipodi="http://sodipodi.sourceforge.net/DTD/sodipodi-0.dtd"
   xmlns="http://www.w3.org/2000/svg"
   xmlns:svg="http://www.w3.org/2000/svg"><defs
     id="defs20572" /><sodipodi:namedview
     id="namedview20570"
     pagecolor="#505050"
     bordercolor="#eeeeee"
     borderopacity="1"
     inkscape:pageshadow="0"
     inkscape:pageopacity="0"
     inkscape:pagecheckerboard="0" /><g
     transform="matrix(0.24,0,0,0.24,-271.056,-404.7618)"
     id="g20566"><g
       transform="matrix(62.5,0,0,62.5,1121.65,1743.57)"
       id="g8432"><path
         d="m 0.916,-0.805 c 0.053,0.005 0.1,0.017 0.141,0.036 0.041,0.02 0.076,0.045 0.104,0.077 0.028,0.032 0.05,0.069 0.065,0.112 0.015,0.044 0.022,0.092 0.022,0.144 v 0.015 c 0,0.017 -10e-4,0.034 -0.003,0.051 -0.003,0.017 -0.005,0.034 -0.009,0.051 -0.007,0.037 -0.017,0.074 -0.03,0.11 C 1.193,-0.174 1.177,-0.14 1.157,-0.107 1.138,-0.075 1.116,-0.045 1.09,-0.018 1.064,0.01 1.035,0.035 1.002,0.056 V 0.21 H 0.968 c -0.02,0 -0.04,0 -0.058,-0.002 C 0.892,0.207 0.874,0.204 0.857,0.199 0.84,0.194 0.825,0.186 0.81,0.176 0.795,0.167 0.781,0.153 0.768,0.136 0.741,0.139 0.713,0.14 0.686,0.14 0.625,0.14 0.568,0.134 0.514,0.122 0.461,0.11 0.411,0.091 0.366,0.065 0.321,0.039 0.281,0.006 0.246,-0.035 0.211,-0.077 0.182,-0.126 0.159,-0.185 0.154,-0.197 0.15,-0.21 0.146,-0.224 0.142,-0.238 0.138,-0.252 0.135,-0.267 0.132,-0.281 0.129,-0.295 0.128,-0.31 0.126,-0.324 0.125,-0.338 0.125,-0.351 l -0.001,-0.05 c 0,-0.009 0,-0.019 0.001,-0.028 C 0.126,-0.438 0.128,-0.447 0.13,-0.456 0.133,-0.464 0.137,-0.472 0.141,-0.48 0.146,-0.487 0.152,-0.494 0.16,-0.501 v -0.025 c 0,-0.02 0.004,-0.039 0.011,-0.056 C 0.178,-0.599 0.188,-0.614 0.2,-0.627 0.213,-0.639 0.227,-0.649 0.244,-0.656 0.261,-0.663 0.28,-0.667 0.3,-0.667 h 0.281 c 0.012,0 0.024,0.001 0.036,0.003 0.011,0.002 0.023,0.005 0.034,0.01 v -0.259 h 0.07 c 0.021,0 0.041,0.002 0.06,0.007 0.019,0.004 0.038,0.01 0.054,0.019 0.017,0.008 0.033,0.019 0.047,0.033 0.013,0.014 0.025,0.03 0.034,0.049 z m 0.015,0.348 c 0,-0.01 -0.002,-0.02 -0.005,-0.031 -0.004,-0.01 -0.01,-0.019 -0.019,-0.025 -0.015,0.026 -0.035,0.046 -0.06,0.06 -0.025,0.015 -0.052,0.024 -0.081,0.029 0.005,0.007 0.011,0.014 0.018,0.019 0.008,0.005 0.016,0.009 0.024,0.011 0.009,0.003 0.017,0.005 0.027,0.006 0.009,0.001 0.018,0.002 0.026,0.002 0.023,0 0.04,-0.006 0.052,-0.019 0.012,-0.012 0.018,-0.029 0.018,-0.052 z"
         style="fill-rule:nonzero"
         id="path8420" /><path
         d="m 0.862,-0.737 c 0.046,0 0.089,0.006 0.127,0.018 0.039,0.012 0.072,0.031 0.1,0.055 0.028,0.024 0.05,0.055 0.066,0.091 0.015,0.037 0.023,0.079 0.023,0.128 0,0.049 -0.006,0.098 -0.018,0.146 -0.011,0.048 -0.029,0.094 -0.052,0.138 -0.007,0.012 -0.013,0.023 -0.018,0.032 -0.005,0.009 -0.011,0.017 -0.018,0.024 -0.003,0.003 -0.011,0.007 -0.022,0.011 -0.011,0.005 -0.023,0.009 -0.036,0.013 -0.013,0.004 -0.026,0.007 -0.038,0.01 -0.012,0.004 -0.021,0.006 -0.027,0.007 0.002,0.005 0.003,0.01 0.004,0.016 0.001,0.005 0.001,0.01 0.001,0.016 v 0.011 L 0.932,0.016 V 0.14 C 0.914,0.14 0.898,0.138 0.885,0.135 0.872,0.131 0.861,0.126 0.852,0.12 0.843,0.115 0.836,0.108 0.831,0.102 0.825,0.095 0.82,0.088 0.817,0.082 0.813,0.076 0.811,0.071 0.809,0.067 0.807,0.063 0.805,0.06 0.804,0.06 0.796,0.056 0.789,0.052 0.781,0.049 0.774,0.045 0.766,0.042 0.759,0.038 V -0.055 C 0.756,-0.054 0.753,-0.054 0.752,-0.054 H 0.747 c -0.017,0 -0.033,0 -0.049,-0.001 C 0.682,-0.056 0.666,-0.056 0.649,-0.057 0.627,-0.058 0.607,-0.06 0.588,-0.064 0.568,-0.068 0.55,-0.074 0.533,-0.082 0.517,-0.09 0.501,-0.101 0.488,-0.115 0.474,-0.128 0.462,-0.145 0.452,-0.166 0.447,-0.176 0.443,-0.186 0.439,-0.197 0.436,-0.208 0.434,-0.219 0.434,-0.23 L 0.276,-0.48 C 0.275,-0.482 0.274,-0.484 0.274,-0.484 c 0,-0.001 0,-0.001 0,-0.001 0,-0.001 0,-0.001 -0.001,-0.002 0,0 -0.001,-0.001 -0.003,-0.003 C 0.269,-0.492 0.266,-0.494 0.262,-0.498 L 0.236,-0.521 C 0.232,-0.524 0.23,-0.526 0.23,-0.526 c 0,-0.01 0.002,-0.02 0.005,-0.028 C 0.239,-0.563 0.243,-0.571 0.25,-0.577 0.256,-0.583 0.264,-0.588 0.272,-0.592 0.28,-0.595 0.29,-0.597 0.3,-0.597 h 0.281 c 0.015,0 0.029,0.003 0.042,0.008 0.013,0.005 0.024,0.013 0.033,0.022 0.01,0.009 0.017,0.02 0.022,0.033 0.005,0.013 0.008,0.027 0.008,0.043 v 0.034 c 0,0.009 0.001,0.018 0.003,0.026 0.002,0.009 0.005,0.017 0.008,0.025 0.008,0.017 0.017,0.031 0.029,0.043 0.011,0.012 0.024,0.021 0.038,0.028 0.014,0.007 0.029,0.012 0.046,0.015 0.016,0.003 0.033,0.004 0.051,0.004 0.007,0 0.015,-0.001 0.022,-0.002 0.007,-0.001 0.015,-0.003 0.022,-0.005 0.033,-0.01 0.057,-0.026 0.073,-0.049 0.016,-0.023 0.023,-0.051 0.023,-0.085 0,-0.007 0,-0.015 -10e-4,-0.022 C 0.998,-0.486 0.996,-0.494 0.994,-0.501 0.984,-0.534 0.968,-0.558 0.946,-0.573 0.923,-0.589 0.895,-0.597 0.862,-0.597 c 0,0.006 -0.001,0.012 -0.002,0.018 -0.002,0.005 -0.004,0.011 -0.006,0.016 -0.006,0.014 -0.013,0.026 -0.022,0.035 -0.01,0.009 -0.02,0.016 -0.032,0.022 -0.012,0.005 -0.024,0.009 -0.038,0.011 -0.013,0.003 -0.027,0.004 -0.04,0.004 V -0.632 L 0.757,-0.667 0.722,-0.702 v -0.14 c 0.013,0 0.027,0.001 0.04,0.003 0.014,0.002 0.026,0.006 0.038,0.012 0.012,0.005 0.022,0.013 0.032,0.022 0.009,0.009 0.016,0.02 0.022,0.034 0.002,0.005 0.004,0.011 0.006,0.016 0.001,0.006 0.002,0.012 0.002,0.018 z"
         style="fill:#00bcf2;fill-rule:nonzero"
         id="path8422" /><path
         d="m 0.246,-0.526 h 0.23 c 0.006,0 0.012,0 0.019,0.002 0.007,0.002 0.013,0.004 0.017,0.007 0.007,0.004 0.012,0.01 0.013,0.018 0.001,0.007 0.001,0.015 0.001,0.022 l 0.001,0.05 c 0,0.01 0,0.021 -0.001,0.032 0,0.011 -0.001,0.021 -0.002,0.032 C 0.52,-0.369 0.516,-0.375 0.51,-0.382 0.504,-0.389 0.498,-0.396 0.491,-0.403 0.485,-0.409 0.478,-0.415 0.47,-0.419 0.463,-0.424 0.456,-0.426 0.449,-0.426 H 0.246 Z"
         style="fill:#ffffff;fill-rule:nonzero"
         id="path8424" /><path
         d="m 0.511,-0.518 c 0.013,0.007 0.021,0.015 0.027,0.025 0.005,0.011 0.008,0.023 0.008,0.036 v 0.176 c 0,0.011 -0.003,0.019 -0.01,0.026 -0.006,0.006 -0.014,0.009 -0.025,0.009 H 0.479 V -0.373 L 0.511,-0.386 Z M 0.23,-0.417 v -0.109 h 0.035 v 0.109 z m 0.211,-0.004 v -0.105 h 0.035 v 0.105 z m -0.07,-0.001 v -0.104 h 0.035 v 0.104 z m -0.071,0 v -0.104 h 0.035 v 0.104 z"
         style="fill:#cccccc;fill-rule:nonzero"
         id="path8426" /><path
         d="m 0.616,-0.386 c 0.009,0 0.017,0.003 0.024,0.01 0.007,0.007 0.011,0.015 0.011,0.025 v 0.035 c 0,0.01 -0.004,0.018 -0.011,0.025 -0.007,0.007 -0.015,0.01 -0.024,0.01 -0.01,0 -0.018,-0.003 -0.025,-0.01 -0.007,-0.007 -0.01,-0.015 -0.01,-0.025 v -0.035 c 0,-0.01 0.003,-0.018 0.01,-0.025 0.007,-0.007 0.015,-0.01 0.025,-0.01 z"
         style="fill-rule:nonzero"
         id="path8428" /><path
         d="M 0.791,-0.105 V 0 c 0,0.01 0.001,0.021 0.003,0.031 C 0.797,0.04 0.8,0.05 0.804,0.06 0.784,0.063 0.765,0.066 0.745,0.068 0.725,0.069 0.705,0.07 0.686,0.07 0.633,0.07 0.583,0.065 0.536,0.055 0.489,0.045 0.445,0.029 0.406,0.007 0.366,-0.015 0.331,-0.044 0.3,-0.08 0.268,-0.115 0.243,-0.159 0.223,-0.21 0.219,-0.221 0.215,-0.232 0.212,-0.243 0.208,-0.255 0.205,-0.267 0.203,-0.28 0.2,-0.292 0.198,-0.304 0.197,-0.316 0.196,-0.328 0.195,-0.34 0.195,-0.351 v -0.07 c 0,-0.011 0.003,-0.019 0.01,-0.026 0.006,-0.006 0.015,-0.01 0.025,-0.01 h 0.21 c 0.01,0 0.019,0.002 0.028,0.006 0.009,0.003 0.017,0.008 0.023,0.014 0.006,0.006 0.011,0.014 0.015,0.022 0.003,0.009 0.005,0.018 0.005,0.029 v 0.176 c 0,0.015 0.003,0.029 0.008,0.042 0.005,0.013 0.012,0.024 0.021,0.033 0.01,0.009 0.021,0.017 0.033,0.022 0.013,0.005 0.027,0.008 0.043,0.008 z m 0.096,0 H 1.072 C 1.035,-0.054 0.988,-0.014 0.932,0.016 0.932,0.004 0.931,-0.008 0.93,-0.019 0.929,-0.03 0.927,-0.041 0.924,-0.051 0.92,-0.061 0.916,-0.07 0.91,-0.08 0.904,-0.089 0.896,-0.097 0.887,-0.105 Z"
         style="fill:#69eaff;fill-rule:nonzero"
         id="path8430" /></g></g></svg>
