<?xml version="1.0" encoding="UTF-8" standalone="no"?>
<svg
   width="16.844999"
   height="12.585"
   viewBox="0 0 16.844999 12.585"
   version="1.1"
   xml:space="preserve"
   style="clip-rule:evenodd;fill-rule:evenodd;stroke-linejoin:round;stroke-miterlimit:2"
   id="svg20568"
   sodipodi:docname="emojis.svg"
   xmlns:inkscape="http://www.inkscape.org/namespaces/inkscape"
   xmlns:sodipodi="http://sodipodi.sourceforge.net/DTD/sodipodi-0.dtd"
   xmlns="http://www.w3.org/2000/svg"
   xmlns:svg="http://www.w3.org/2000/svg"><defs
     id="defs20572" /><sodipodi:namedview
     id="namedview20570"
     pagecolor="#505050"
     bordercolor="#eeeeee"
     borderopacity="1"
     inkscape:pageshadow="0"
     inkscape:pageopacity="0"
     inkscape:pagecheckerboard="0" /><g
     transform="matrix(0.24,0,0,0.24,-351.351,-407.1918)"
     id="g20566"><g
       transform="matrix(62.5,0,0,62.5,1456.15,1743.57)"
       id="g8482"><path
         d="m 1.094,-0.681 c 0.007,0.003 0.015,0.007 0.022,0.011 0.008,0.004 0.016,0.007 0.023,0.011 0.018,0.01 0.034,0.022 0.048,0.037 0.014,0.015 0.025,0.031 0.034,0.049 0.009,0.018 0.016,0.037 0.02,0.057 0.005,0.021 0.007,0.041 0.007,0.06 0,0.02 -0.002,0.04 -0.007,0.06 -0.004,0.02 -0.011,0.039 -0.02,0.057 -0.009,0.018 -0.02,0.035 -0.034,0.05 -0.014,0.015 -0.03,0.027 -0.048,0.037 L 1.094,-0.229 1.008,-0.316 H 0.967 c 0,0.019 -0.002,0.038 -0.006,0.056 -0.004,0.019 -0.009,0.037 -0.014,0.055 0.006,0.014 0.011,0.028 0.015,0.043 0.003,0.015 0.005,0.03 0.005,0.046 0,0.018 -0.002,0.036 -0.008,0.053 -0.005,0.018 -0.012,0.034 -0.021,0.05 C 0.928,0.002 0.917,0.017 0.904,0.03 0.891,0.042 0.876,0.053 0.861,0.062 L 0.814,0.088 0.747,0.02 C 0.718,0.036 0.689,0.048 0.658,0.057 0.628,0.066 0.596,0.071 0.563,0.071 0.514,0.071 0.467,0.062 0.422,0.046 0.378,0.029 0.338,0.006 0.302,-0.024 0.267,-0.054 0.237,-0.09 0.213,-0.131 0.189,-0.172 0.173,-0.217 0.165,-0.266 0.152,-0.276 0.142,-0.289 0.135,-0.303 0.128,-0.318 0.125,-0.334 0.125,-0.35 0.125,-0.369 0.13,-0.387 0.139,-0.403 0.13,-0.419 0.125,-0.437 0.125,-0.456 c 0,-0.014 0.003,-0.028 0.008,-0.041 0.006,-0.012 0.013,-0.023 0.023,-0.033 0.01,-0.01 0.021,-0.017 0.034,-0.022 0.013,-0.006 0.026,-0.009 0.041,-0.009 0.019,-0.027 0.041,-0.051 0.065,-0.073 0.025,-0.022 0.051,-0.04 0.08,-0.055 0.028,-0.015 0.058,-0.027 0.09,-0.035 0.032,-0.008 0.064,-0.012 0.097,-0.012 0.034,0 0.065,0.004 0.096,0.013 0.03,0.008 0.06,0.021 0.089,0.037 l 0.065,-0.065 c 0.007,0.003 0.015,0.007 0.023,0.011 0.007,0.003 0.015,0.007 0.022,0.011 0.026,0.014 0.047,0.032 0.064,0.056 0.017,0.024 0.029,0.05 0.036,0.077 h 0.05 z"
         style="fill-rule:nonzero"
         id="path8472" /><path
         d="m 0.897,-0.526 h 0.192 v 0.128 H 0.257 l -0.002,0.011 c 0.004,-0.002 0.006,-0.004 0.008,-0.006 0.002,-0.003 0.003,-0.006 0.003,-0.01 0,-0.006 -0.002,-0.01 -0.006,-0.013 C 0.257,-0.418 0.253,-0.42 0.248,-0.421 0.242,-0.421 0.237,-0.422 0.23,-0.423 0.224,-0.423 0.219,-0.424 0.213,-0.426 0.208,-0.428 0.204,-0.431 0.2,-0.435 0.197,-0.44 0.195,-0.446 0.195,-0.456 0.195,-0.463 0.197,-0.47 0.2,-0.474 0.203,-0.479 0.207,-0.483 0.211,-0.485 0.216,-0.488 0.222,-0.489 0.228,-0.49 0.234,-0.491 0.24,-0.491 0.247,-0.491 H 0.262 0.27 c 0.015,-0.027 0.032,-0.051 0.053,-0.073 0.021,-0.021 0.044,-0.04 0.07,-0.055 0.025,-0.015 0.052,-0.027 0.081,-0.035 0.029,-0.008 0.059,-0.012 0.089,-0.012 0.037,0 0.071,0.006 0.103,0.019 0.032,0.013 0.062,0.03 0.091,0.051 l 0.07,-0.07 c 0.012,0.006 0.022,0.015 0.031,0.025 0.009,0.011 0.016,0.022 0.022,0.035 0.006,0.013 0.01,0.026 0.013,0.04 0.003,0.014 0.004,0.027 0.004,0.04 z"
         style="fill:#8e562e;fill-rule:nonzero"
         id="path8474" /><path
         d="m 1.091,-0.421 v 0.035 H 0.967 c -0.023,0 -0.04,0.006 -0.05,0.019 -0.011,0.013 -0.018,0.031 -0.02,0.052 -0.002,0.021 -0.005,0.04 -0.009,0.059 -0.004,0.019 -0.01,0.038 -0.019,0.057 0.009,0.012 0.015,0.025 0.02,0.039 0.005,0.014 0.008,0.029 0.008,0.044 0,0.012 -0.002,0.023 -0.005,0.035 -0.004,0.011 -0.008,0.022 -0.015,0.032 -0.006,0.011 -0.014,0.02 -0.022,0.028 -0.009,0.009 -0.018,0.016 -0.028,0.022 l -0.07,-0.07 C 0.743,-0.059 0.728,-0.05 0.712,-0.042 0.697,-0.033 0.681,-0.026 0.665,-0.019 0.649,-0.013 0.633,-0.008 0.615,-0.004 0.598,-0.001 0.581,0.001 0.563,0.001 0.534,0.001 0.505,-0.003 0.478,-0.01 0.45,-0.018 0.424,-0.028 0.4,-0.042 0.376,-0.055 0.354,-0.072 0.334,-0.091 0.314,-0.11 0.297,-0.131 0.282,-0.154 0.267,-0.178 0.255,-0.203 0.246,-0.23 0.237,-0.257 0.232,-0.285 0.23,-0.315 0.22,-0.315 0.212,-0.318 0.205,-0.325 0.199,-0.331 0.195,-0.34 0.195,-0.35 0.195,-0.359 0.197,-0.366 0.2,-0.371 0.204,-0.376 0.208,-0.379 0.213,-0.381 0.219,-0.383 0.224,-0.384 0.23,-0.384 0.237,-0.385 0.242,-0.385 0.248,-0.386 0.253,-0.387 0.257,-0.389 0.26,-0.391 0.264,-0.393 0.266,-0.397 0.266,-0.403 0.266,-0.408 0.264,-0.412 0.26,-0.415 0.257,-0.418 0.253,-0.42 0.249,-0.421 Z"
         style="fill:#f7d7c4;fill-rule:nonzero"
         id="path8476" /><path
         d="m 0.476,-0.368 c 0,0.007 -0.001,0.014 -0.004,0.021 -0.003,0.006 -0.007,0.012 -0.012,0.016 -0.004,0.005 -0.01,0.009 -0.016,0.012 -0.007,0.003 -0.013,0.004 -0.021,0.004 -0.007,0 -0.014,-0.001 -0.02,-0.004 C 0.396,-0.322 0.391,-0.326 0.386,-0.33 0.381,-0.335 0.378,-0.341 0.375,-0.347 0.372,-0.353 0.371,-0.36 0.371,-0.368 v -0.07 c 0,-0.007 0.001,-0.014 0.004,-0.02 0.003,-0.007 0.006,-0.013 0.011,-0.017 0.005,-0.005 0.011,-0.008 0.017,-0.011 0.006,-0.003 0.013,-0.004 0.02,-0.004 0.008,0 0.014,0.001 0.021,0.004 0.006,0.003 0.012,0.006 0.016,0.011 0.005,0.005 0.009,0.01 0.012,0.017 0.003,0.006 0.004,0.013 0.004,0.02 z"
         style="fill-rule:nonzero"
         id="path8478" /><path
         d="m 1.107,-0.596 c 0.012,0.006 0.023,0.014 0.032,0.025 0.008,0.011 0.016,0.022 0.022,0.035 0.006,0.013 0.01,0.026 0.013,0.04 0.002,0.014 0.004,0.028 0.004,0.04 0,0.013 -0.002,0.026 -0.004,0.04 -0.003,0.014 -0.007,0.028 -0.013,0.041 -0.006,0.012 -0.014,0.024 -0.022,0.035 -0.009,0.01 -0.02,0.019 -0.032,0.025 l -0.069,-0.07 v -0.14 z m -0.35,0.211 c 0,0.011 -0.002,0.022 -0.005,0.033 -0.004,0.011 -0.009,0.021 -0.015,0.03 C 0.731,-0.313 0.724,-0.304 0.715,-0.297 0.706,-0.29 0.697,-0.284 0.687,-0.28 L 0.581,-0.35 v -0.07 l 0.106,-0.07 c 0.01,0.004 0.02,0.009 0.029,0.017 0.008,0.007 0.016,0.015 0.022,0.025 0.006,0.009 0.01,0.019 0.014,0.03 0.003,0.011 0.005,0.022 0.005,0.033 z M 0.423,-0.21 c 0.008,0 0.014,0.001 0.021,0.004 0.006,0.003 0.012,0.007 0.016,0.012 0.005,0.005 0.009,0.01 0.012,0.017 0.003,0.006 0.004,0.013 0.004,0.02 0,0.007 -0.001,0.014 -0.004,0.02 -0.003,0.006 -0.007,0.012 -0.012,0.017 -0.004,0.005 -0.01,0.009 -0.016,0.011 -0.007,0.003 -0.013,0.005 -0.021,0.005 -0.007,0 -0.014,-0.002 -0.02,-0.005 C 0.396,-0.111 0.391,-0.115 0.386,-0.12 0.381,-0.125 0.378,-0.13 0.375,-0.136 0.372,-0.143 0.371,-0.15 0.371,-0.157 c 0,-0.007 0.001,-0.014 0.004,-0.02 0.003,-0.007 0.006,-0.012 0.011,-0.017 0.005,-0.005 0.011,-0.009 0.017,-0.012 0.006,-0.003 0.013,-0.004 0.02,-0.004 z m 0.246,0 c 0.008,0 0.014,0.001 0.021,0.004 0.006,0.003 0.012,0.007 0.016,0.012 0.005,0.005 0.009,0.01 0.012,0.017 0.002,0.006 0.004,0.013 0.004,0.02 0,0.007 -0.002,0.014 -0.004,0.02 -0.003,0.006 -0.007,0.012 -0.011,0.017 -0.005,0.005 -0.011,0.009 -0.017,0.011 -0.007,0.003 -0.013,0.005 -0.021,0.005 -0.007,0 -0.014,-0.002 -0.02,-0.005 C 0.642,-0.111 0.637,-0.115 0.632,-0.12 0.627,-0.125 0.624,-0.13 0.621,-0.136 0.618,-0.143 0.617,-0.15 0.617,-0.157 c 0,-0.007 0.001,-0.014 0.004,-0.02 0.003,-0.007 0.006,-0.012 0.011,-0.017 0.005,-0.005 0.011,-0.009 0.017,-0.012 0.007,-0.003 0.013,-0.004 0.02,-0.004 z M 0.335,-0.28 c 0.01,0 0.019,0.004 0.025,0.01 0.007,0.007 0.011,0.016 0.011,0.025 0,0.01 -0.004,0.018 -0.011,0.025 -0.007,0.007 -0.015,0.01 -0.025,0.01 -0.009,0 -0.017,-0.003 -0.024,-0.01 C 0.304,-0.227 0.3,-0.235 0.3,-0.245 0.3,-0.254 0.304,-0.263 0.311,-0.27 0.317,-0.276 0.326,-0.28 0.335,-0.28 Z m 0.211,0.176 c 0.01,0 0.018,0.003 0.025,0.01 0.007,0.007 0.01,0.015 0.01,0.025 0,0.009 -0.003,0.018 -0.01,0.025 -0.007,0.006 -0.015,0.01 -0.025,0.01 -0.01,0 -0.018,-0.004 -0.025,-0.011 -0.006,-0.007 -0.01,-0.015 -0.01,-0.024 0,-0.01 0.004,-0.018 0.01,-0.025 0.007,-0.007 0.015,-0.01 0.025,-0.01 z M 0.757,-0.28 c 0.009,0 0.017,0.004 0.024,0.011 0.007,0.007 0.011,0.015 0.011,0.024 0,0.01 -0.004,0.018 -0.011,0.025 -0.007,0.007 -0.015,0.01 -0.024,0.01 -0.01,0 -0.018,-0.003 -0.025,-0.01 -0.007,-0.007 -0.01,-0.015 -0.01,-0.025 0,-0.009 0.003,-0.018 0.01,-0.025 0.007,-0.006 0.015,-0.01 0.025,-0.01 z m -0.211,0 c 0.01,0 0.018,0.004 0.025,0.01 0.007,0.007 0.01,0.016 0.01,0.025 0,0.01 -0.003,0.018 -0.01,0.025 -0.007,0.007 -0.016,0.01 -0.025,0.01 -0.01,0 -0.018,-0.003 -0.025,-0.01 -0.006,-0.007 -0.01,-0.015 -0.01,-0.025 0,-0.009 0.004,-0.017 0.01,-0.024 0.007,-0.007 0.015,-0.011 0.025,-0.011 z"
         style="fill:#bb9167;fill-rule:nonzero"
         id="path8480" /></g></g></svg>
