<?xml version="1.0" encoding="UTF-8" standalone="no"?>
<svg
   width="16.32"
   height="16.844999"
   viewBox="0 0 16.32 16.844999"
   version="1.1"
   xml:space="preserve"
   style="clip-rule:evenodd;fill-rule:evenodd;stroke-linejoin:round;stroke-miterlimit:2"
   id="svg20568"
   sodipodi:docname="emojis.svg"
   xmlns:inkscape="http://www.inkscape.org/namespaces/inkscape"
   xmlns:sodipodi="http://sodipodi.sourceforge.net/DTD/sodipodi-0.dtd"
   xmlns="http://www.w3.org/2000/svg"
   xmlns:svg="http://www.w3.org/2000/svg"><defs
     id="defs20572" /><sodipodi:namedview
     id="namedview20570"
     pagecolor="#505050"
     bordercolor="#eeeeee"
     borderopacity="1"
     inkscape:pageshadow="0"
     inkscape:pageopacity="0"
     inkscape:pagecheckerboard="0" /><g
     transform="matrix(0.24,0,0,0.24,-371.9454,-404.7618)"
     id="g20566"><g
       transform="matrix(62.5,0,0,62.5,1541.96,1743.57)"
       id="g8494"><path
         d="M 0.327,0.21 C 0.313,0.21 0.301,0.208 0.289,0.203 0.277,0.198 0.267,0.191 0.259,0.182 0.25,0.173 0.243,0.163 0.238,0.151 0.233,0.14 0.23,0.127 0.23,0.114 0.23,0.108 0.231,0.102 0.232,0.096 0.233,0.09 0.235,0.084 0.237,0.079 L 0.287,-0.049 0.168,-0.321 C 0.163,-0.332 0.16,-0.345 0.16,-0.359 c 0,-0.013 0.003,-0.026 0.008,-0.038 0.005,-0.012 0.012,-0.022 0.02,-0.031 0.009,-0.009 0.019,-0.016 0.031,-0.021 0.011,-0.005 0.024,-0.008 0.037,-0.008 0.013,0 0.025,0.003 0.037,0.008 0.013,0.005 0.023,0.012 0.032,0.021 l 0.234,0.252 C 0.574,-0.178 0.588,-0.181 0.601,-0.187 0.614,-0.192 0.626,-0.2 0.637,-0.209 0.648,-0.218 0.657,-0.229 0.665,-0.241 0.673,-0.253 0.679,-0.266 0.682,-0.28 0.668,-0.27 0.653,-0.265 0.635,-0.265 0.621,-0.265 0.608,-0.268 0.597,-0.275 0.585,-0.282 0.575,-0.291 0.565,-0.301 0.556,-0.312 0.548,-0.324 0.542,-0.338 0.535,-0.352 0.529,-0.367 0.524,-0.381 0.52,-0.396 0.516,-0.41 0.514,-0.425 0.512,-0.439 0.511,-0.451 0.511,-0.463 c 0,-0.006 0,-0.012 0,-0.017 C 0.512,-0.486 0.513,-0.492 0.513,-0.498 0.451,-0.507 0.39,-0.522 0.333,-0.545 0.275,-0.569 0.22,-0.598 0.168,-0.635 0.154,-0.645 0.144,-0.657 0.136,-0.671 0.129,-0.686 0.125,-0.701 0.125,-0.719 c 0,-0.02 0.005,-0.039 0.016,-0.055 0.01,-0.016 0.024,-0.029 0.043,-0.038 0.067,-0.034 0.137,-0.059 0.21,-0.075 0.073,-0.017 0.147,-0.026 0.222,-0.026 0.032,0 0.063,0.003 0.093,0.009 0.031,0.006 0.061,0.015 0.09,0.027 h 0.186 c 0.037,0 0.072,0.006 0.106,0.019 0.034,0.013 0.065,0.031 0.092,0.056 0.01,0.008 0.017,0.018 0.022,0.029 0.005,0.011 0.008,0.023 0.008,0.037 0,0.011 -0.002,0.022 -0.006,0.033 -0.004,0.01 -0.01,0.019 -0.017,0.026 -0.008,0.008 -0.016,0.014 -0.026,0.019 -0.01,0.005 -0.02,0.008 -0.032,0.009 -0.013,0.001 -0.024,0.004 -0.036,0.007 -0.011,0.003 -0.022,0.008 -0.034,0.015 0.015,0.032 0.027,0.066 0.034,0.1 0.008,0.035 0.011,0.07 0.011,0.106 0,0.048 -0.006,0.095 -0.018,0.14 C 1.076,-0.236 1.058,-0.194 1.036,-0.156 1.013,-0.117 0.985,-0.081 0.953,-0.049 0.921,-0.017 0.886,0.01 0.847,0.033 0.808,0.056 0.766,0.074 0.721,0.086 0.676,0.099 0.63,0.105 0.581,0.105 H 0.508 L 0.382,0.193 C 0.374,0.199 0.365,0.203 0.355,0.206 0.346,0.209 0.336,0.21 0.327,0.21 Z"
         style="fill-rule:nonzero"
         id="path8484" /><path
         d="m 0.616,-0.842 c 0.043,0 0.084,0.006 0.125,0.018 0.008,0.003 0.015,0.005 0.022,0.009 0.008,0.003 0.015,0.006 0.022,0.008 0.006,0.001 0.012,0.003 0.018,0.003 0.006,0.001 0.012,0.002 0.018,0.003 0.011,0.002 0.023,0.004 0.035,0.007 0.012,0.002 0.024,0.006 0.036,0.01 0.012,0.004 0.023,0.009 0.034,0.015 0.011,0.006 0.02,0.013 0.029,0.021 0.008,0.009 0.014,0.02 0.018,0.032 0.003,0.012 0.005,0.024 0.005,0.037 0,0.012 -0.001,0.023 -0.004,0.035 0.021,0.033 0.037,0.069 0.047,0.107 0.011,0.038 0.017,0.076 0.017,0.116 0,0.042 -0.006,0.082 -0.017,0.121 C 1.01,-0.261 0.995,-0.225 0.975,-0.191 0.955,-0.157 0.931,-0.126 0.904,-0.099 0.876,-0.071 0.845,-0.047 0.812,-0.027 0.778,-0.007 0.741,0.008 0.702,0.019 0.663,0.03 0.623,0.035 0.581,0.035 H 0.486 L 0.342,0.136 C 0.337,0.139 0.332,0.14 0.327,0.14 0.319,0.14 0.313,0.138 0.308,0.133 0.303,0.128 0.3,0.122 0.3,0.114 0.3,0.112 0.302,0.107 0.304,0.099 0.307,0.091 0.311,0.082 0.315,0.071 0.319,0.06 0.324,0.048 0.329,0.035 0.334,0.022 0.339,0.01 0.344,-0.002 0.348,-0.013 0.352,-0.024 0.356,-0.032 0.36,-0.041 0.362,-0.048 0.363,-0.051 0.362,-0.055 0.358,-0.062 0.354,-0.073 0.349,-0.083 0.343,-0.096 0.337,-0.11 0.33,-0.125 0.323,-0.141 0.315,-0.159 0.307,-0.176 0.299,-0.194 0.292,-0.212 0.284,-0.23 0.276,-0.247 0.269,-0.264 0.261,-0.281 0.254,-0.297 0.249,-0.31 0.243,-0.324 0.239,-0.335 0.235,-0.344 0.232,-0.353 0.23,-0.358 0.23,-0.36 c 0,-0.007 0.003,-0.014 0.008,-0.019 0.005,-0.005 0.011,-0.007 0.018,-0.007 0.008,0 0.015,0.003 0.02,0.008 l 0.246,0.266 0.007,0.007 c 0.001,0.001 0.004,0.002 0.01,0.003 0.006,10e-4 0.012,10e-4 0.021,0.002 0.008,0 0.017,0.001 0.026,0.001 0.01,0 0.02,0 0.029,0.001 0.009,0 0.017,0 0.025,0 h 0.035 l 0.135,-0.2 V -0.421 L 0.761,-0.493 C 0.76,-0.492 0.757,-0.492 0.753,-0.49 l -0.026,0.006 c -0.004,0.001 -0.006,0.002 -0.007,0.003 -0.01,0.007 -0.018,0.015 -0.026,0.024 -0.008,0.01 -0.015,0.02 -0.021,0.031 -0.006,0.01 -0.01,0.022 -0.015,0.033 -0.004,0.012 -0.007,0.024 -0.009,0.035 0,0 0,0.001 0,0.001 0,0 -0.001,0.001 -0.001,0.001 0,0.002 0,0.004 -0.001,0.006 -0.001,0.003 -0.001,0.005 -0.002,0.007 -0.001,0.003 -0.003,0.004 -0.004,0.006 -0.002,0.001 -0.003,0.002 -0.006,0.002 -0.003,0 -0.007,-0.002 -0.01,-0.005 C 0.622,-0.343 0.62,-0.346 0.618,-0.349 0.617,-0.349 0.617,-0.35 0.617,-0.35 0.605,-0.366 0.597,-0.384 0.591,-0.404 0.585,-0.424 0.582,-0.444 0.582,-0.464 0.582,-0.498 0.59,-0.53 0.605,-0.561 L 0.601,-0.602 0.247,-0.667 C 0.243,-0.669 0.237,-0.673 0.231,-0.676 0.225,-0.68 0.219,-0.684 0.214,-0.688 0.209,-0.692 0.204,-0.697 0.201,-0.702 0.197,-0.707 0.195,-0.713 0.195,-0.719 c 0,-0.013 0.006,-0.023 0.018,-0.03 0.031,-0.015 0.062,-0.029 0.095,-0.041 0.033,-0.011 0.067,-0.021 0.101,-0.029 0.035,-0.008 0.069,-0.014 0.104,-0.017 0.035,-0.004 0.069,-0.006 0.103,-0.006 z"
         style="fill:#69797e;fill-rule:nonzero"
         id="path8486" /><path
         d="m 0.862,-0.351 c 0,0.039 -0.008,0.075 -0.022,0.109 -0.015,0.034 -0.035,0.064 -0.06,0.09 -0.026,0.025 -0.055,0.045 -0.09,0.06 C 0.656,-0.078 0.62,-0.07 0.581,-0.07 H 0.544 C 0.542,-0.083 0.537,-0.095 0.529,-0.105 h 0.017 c 0.029,0 0.056,-0.006 0.082,-0.017 0.026,-0.011 0.048,-0.026 0.067,-0.045 0.019,-0.019 0.034,-0.041 0.045,-0.067 0.011,-0.025 0.017,-0.053 0.017,-0.082 V -0.351 C 0.757,-0.374 0.754,-0.397 0.748,-0.419 0.742,-0.441 0.733,-0.462 0.72,-0.481 0.731,-0.49 0.743,-0.498 0.755,-0.505 0.768,-0.511 0.781,-0.516 0.794,-0.52 0.779,-0.546 0.76,-0.568 0.736,-0.586 0.711,-0.604 0.685,-0.617 0.656,-0.624 c -0.01,0.009 -0.019,0.019 -0.028,0.03 -0.008,0.01 -0.016,0.021 -0.023,0.033 -0.001,0 -0.003,0 -0.005,-0.001 -0.002,0 -0.004,0 -0.005,0 C 0.569,-0.563 0.544,-0.565 0.52,-0.568 0.495,-0.571 0.47,-0.576 0.445,-0.583 L 0.431,-0.596 0.405,-0.594 0.396,-0.597 C 0.37,-0.605 0.345,-0.615 0.319,-0.627 0.294,-0.639 0.269,-0.652 0.247,-0.667 h 0.352 c 0.036,0 0.07,0.007 0.102,0.021 0.032,0.014 0.06,0.032 0.084,0.056 0.023,0.024 0.042,0.052 0.056,0.084 0.014,0.032 0.021,0.066 0.021,0.102 z"
         style="fill:#bac8cc;fill-rule:nonzero"
         id="path8488" /><path
         d="M 0.974,-0.644 C 0.951,-0.681 0.924,-0.713 0.892,-0.74 0.86,-0.768 0.825,-0.79 0.785,-0.807 h 0.2 c 0.014,0 0.027,0.001 0.041,0.004 0.014,0.002 0.027,0.006 0.04,0.011 0.013,0.004 0.026,0.01 0.038,0.018 0.012,0.007 0.022,0.015 0.032,0.024 0.003,0.002 0.004,0.004 0.005,0.006 10e-4,0.002 0.002,0.005 0.002,0.008 0,0.005 -0.002,0.009 -0.005,0.012 -0.003,0.003 -0.006,0.005 -0.011,0.005 -0.006,0.001 -0.012,0.002 -0.018,0.002 -0.006,0.001 -0.013,0.002 -0.019,0.004 -0.023,0.005 -0.044,0.013 -0.063,0.025 -0.02,0.013 -0.038,0.027 -0.053,0.044 z m -0.463,0.03 c 0,0.005 -0.001,0.009 -0.005,0.012 -0.003,0.004 -0.007,0.005 -0.012,0.005 -0.009,0 -0.017,0.002 -0.025,0.004 -0.008,0.002 -0.016,0.006 -0.024,0.01 C 0.438,-0.584 0.432,-0.586 0.425,-0.588 0.418,-0.59 0.412,-0.592 0.405,-0.594 c 0.012,-0.012 0.025,-0.022 0.04,-0.028 0.015,-0.007 0.031,-0.01 0.049,-0.01 0.005,0 0.009,0.002 0.012,0.005 0.004,0.004 0.005,0.008 0.005,0.013 z"
         style="fill:#4a5459;fill-rule:nonzero"
         id="path8490" /><path
         d="m 0.511,-0.737 c 0,0.009 -0.003,0.017 -0.01,0.024 -0.007,0.007 -0.015,0.011 -0.025,0.011 -0.01,0 -0.018,-0.004 -0.025,-0.01 -0.007,-0.007 -0.01,-0.016 -0.01,-0.025 0,-0.01 0.003,-0.018 0.01,-0.025 0.007,-0.007 0.016,-0.01 0.025,-0.01 0.01,0 0.018,0.003 0.025,0.01 0.007,0.007 0.01,0.015 0.01,0.025 z"
         style="fill-rule:nonzero"
         id="path8492" /></g></g></svg>
