<?xml version="1.0" encoding="UTF-8" standalone="no"?>
<svg
   width="15.795"
   height="16.860001"
   viewBox="0 0 15.795 16.860001"
   version="1.1"
   xml:space="preserve"
   style="clip-rule:evenodd;fill-rule:evenodd;stroke-linejoin:round;stroke-miterlimit:2"
   id="svg20568"
   sodipodi:docname="emojis.svg"
   xmlns:inkscape="http://www.inkscape.org/namespaces/inkscape"
   xmlns:sodipodi="http://sodipodi.sourceforge.net/DTD/sodipodi-0.dtd"
   xmlns="http://www.w3.org/2000/svg"
   xmlns:svg="http://www.w3.org/2000/svg"><defs
     id="defs20572" /><sodipodi:namedview
     id="namedview20570"
     pagecolor="#505050"
     bordercolor="#eeeeee"
     borderopacity="1"
     inkscape:pageshadow="0"
     inkscape:pageopacity="0"
     inkscape:pagecheckerboard="0" /><g
     transform="matrix(0.24,0,0,0.24,-393.0672,-404.7618)"
     id="g20566"><g
       transform="matrix(62.5,0,0,62.5,1627.78,1743.57)"
       id="g8504"><path
         d="M 0.827,0.21 C 0.799,0.21 0.773,0.204 0.748,0.192 0.724,0.179 0.703,0.162 0.687,0.14 0.67,0.162 0.649,0.18 0.625,0.192 0.6,0.204 0.574,0.21 0.546,0.21 H 0.476 C 0.458,0.21 0.442,0.206 0.427,0.198 0.411,0.19 0.398,0.179 0.389,0.164 0.38,0.171 0.37,0.176 0.359,0.179 0.349,0.183 0.338,0.185 0.326,0.185 0.306,0.185 0.287,0.179 0.271,0.169 0.255,0.158 0.241,0.145 0.23,0.128 0.219,0.112 0.21,0.094 0.204,0.074 0.198,0.055 0.195,0.036 0.195,0.018 c 0,-0.03 0.006,-0.057 0.018,-0.081 C 0.225,-0.087 0.241,-0.11 0.263,-0.129 0.228,-0.157 0.202,-0.19 0.185,-0.228 0.168,-0.266 0.16,-0.307 0.16,-0.351 c 0,-0.014 0.003,-0.028 0.008,-0.041 0.006,-0.013 0.013,-0.024 0.023,-0.034 0.009,-0.009 0.021,-0.017 0.033,-0.022 0.013,-0.006 0.027,-0.009 0.041,-0.009 0.012,0 0.023,0.003 0.035,0.007 V -0.458 C 0.288,-0.46 0.276,-0.464 0.265,-0.47 0.255,-0.477 0.246,-0.485 0.238,-0.494 0.23,-0.503 0.224,-0.513 0.219,-0.525 0.215,-0.537 0.213,-0.549 0.213,-0.562 c 0,-0.014 0.003,-0.028 0.008,-0.041 0.006,-0.012 0.013,-0.023 0.023,-0.033 0.009,-0.01 0.02,-0.017 0.033,-0.023 0.013,-0.005 0.026,-0.008 0.041,-0.008 0.022,0 0.044,0.004 0.065,0.011 0.021,0.008 0.04,0.019 0.058,0.033 v -0.044 c 0,-0.034 0.006,-0.066 0.019,-0.095 0.013,-0.03 0.031,-0.056 0.053,-0.079 0.022,-0.022 0.048,-0.039 0.078,-0.052 0.03,-0.013 0.062,-0.02 0.096,-0.02 0.033,0 0.065,0.007 0.095,0.02 0.03,0.013 0.056,0.03 0.078,0.052 0.022,0.023 0.04,0.049 0.053,0.079 0.013,0.029 0.019,0.061 0.019,0.095 v 0.044 c 0.017,-0.014 0.037,-0.025 0.058,-0.033 0.021,-0.007 0.043,-0.011 0.065,-0.011 0.015,0 0.028,0.003 0.041,0.008 0.013,0.006 0.024,0.013 0.033,0.023 0.01,0.01 0.017,0.021 0.023,0.033 0.005,0.013 0.008,0.027 0.008,0.041 0,0.013 -0.002,0.025 -0.006,0.037 -0.005,0.011 -0.011,0.022 -0.019,0.031 -0.008,0.009 -0.017,0.017 -0.027,0.024 -0.011,0.006 -0.023,0.01 -0.035,0.012 v 0.017 c 0.012,-0.005 0.023,-0.007 0.034,-0.007 0.015,0 0.029,0.003 0.041,0.009 0.013,0.005 0.024,0.013 0.034,0.022 0.009,0.01 0.017,0.021 0.023,0.034 0.005,0.012 0.008,0.026 0.008,0.041 0,0.021 -0.002,0.041 -0.007,0.061 -0.005,0.02 -0.012,0.039 -0.02,0.057 -0.009,0.018 -0.02,0.035 -0.033,0.051 -0.012,0.017 -0.027,0.031 -0.043,0.044 0.022,0.018 0.038,0.04 0.05,0.066 0.012,0.025 0.018,0.052 0.018,0.081 0,0.018 -0.003,0.037 -0.009,0.056 C 1.163,0.094 1.155,0.112 1.143,0.128 1.132,0.145 1.118,0.158 1.102,0.169 1.086,0.179 1.067,0.185 1.047,0.185 1.035,0.185 1.024,0.183 1.014,0.179 1.003,0.176 0.993,0.171 0.984,0.164 0.977,0.174 0.969,0.183 0.961,0.189 0.952,0.195 0.944,0.2 0.934,0.203 0.925,0.206 0.915,0.208 0.905,0.209 0.895,0.21 0.885,0.211 0.874,0.211 Z"
         style="fill-rule:nonzero"
         id="path8496" /><path
         d="m 0.936,-0.141 c -0.012,0 -0.023,0 -0.033,0 -0.011,0 -0.022,-0.001 -0.033,-0.003 C 0.86,-0.145 0.849,-0.148 0.839,-0.151 0.829,-0.155 0.819,-0.159 0.81,-0.165 c 0.008,0.014 0.017,0.024 0.026,0.032 0.01,0.008 0.02,0.014 0.031,0.018 0.011,0.005 0.022,0.007 0.033,0.008 0.011,0.001 0.023,0.002 0.035,0.002 h 0.027 c 0.01,0 0.019,0 0.029,0.001 0.009,0 0.019,0.002 0.028,0.004 0.009,0.003 0.018,0.006 0.027,0.011 0.009,0.005 0.018,0.012 0.026,0.02 0.011,0.011 0.02,0.024 0.026,0.039 0.006,0.016 0.009,0.031 0.009,0.048 0,0.007 -10e-4,0.017 -0.004,0.028 C 1.101,0.057 1.097,0.068 1.092,0.078 1.087,0.088 1.08,0.097 1.073,0.104 1.065,0.111 1.057,0.115 1.047,0.115 1.037,0.115 1.029,0.111 1.022,0.104 1.015,0.098 1.012,0.089 1.012,0.08 1.012,0.073 1.013,0.068 1.016,0.064 1.019,0.06 1.022,0.056 1.025,0.052 1.028,0.047 1.031,0.043 1.033,0.038 1.036,0.033 1.038,0.026 1.038,0.018 1.038,0.01 1.036,0.004 1.033,-0.003 1.031,-0.009 1.027,-0.015 1.022,-0.02 1.017,-0.024 1.011,-0.028 1.005,-0.031 0.999,-0.034 0.992,-0.035 0.985,-0.035 H 0.941 c -0.013,0 -0.026,0 -0.039,-10e-4 C 0.889,-0.037 0.877,-0.039 0.865,-0.042 0.852,-0.045 0.84,-0.049 0.828,-0.055 0.816,-0.061 0.804,-0.069 0.792,-0.079 v 0.114 c 0,0.01 0.003,0.018 0.01,0.025 0.007,0.007 0.015,0.01 0.025,0.01 h 0.07 c 0.009,0 0.018,0.004 0.025,0.011 0.007,0.006 0.01,0.015 0.01,0.024 0,0.01 -0.003,0.018 -0.01,0.025 C 0.915,0.137 0.907,0.14 0.897,0.14 H 0.827 C 0.812,0.14 0.798,0.137 0.786,0.132 0.773,0.126 0.762,0.119 0.752,0.109 0.743,0.1 0.736,0.089 0.73,0.076 0.724,0.063 0.722,0.05 0.722,0.035 V -0.07 c 0,-0.01 -0.004,-0.018 -0.011,-0.025 -0.006,-0.007 -0.015,-0.01 -0.024,-0.01 -0.01,0 -0.019,0.003 -0.025,0.01 -0.007,0.007 -0.011,0.015 -0.011,0.025 v 0.105 c 0,0.014 -0.002,0.028 -0.008,0.04 C 0.638,0.088 0.63,0.1 0.621,0.109 0.611,0.119 0.599,0.127 0.586,0.132 0.574,0.138 0.56,0.14 0.546,0.14 H 0.476 C 0.466,0.14 0.458,0.137 0.451,0.13 0.444,0.123 0.441,0.115 0.441,0.105 0.441,0.096 0.444,0.087 0.451,0.081 0.458,0.074 0.467,0.07 0.476,0.07 h 0.07 c 0.009,0 0.018,-0.003 0.025,-0.01 0.007,-0.007 0.01,-0.015 0.01,-0.025 v -0.114 c -0.012,0.01 -0.024,0.018 -0.036,0.024 -0.012,0.006 -0.024,0.01 -0.036,0.013 -0.013,0.003 -0.025,0.005 -0.038,0.006 -0.013,10e-4 -0.026,10e-4 -0.039,10e-4 H 0.388 c -0.007,0 -0.014,0.001 -0.02,0.004 C 0.362,-0.028 0.356,-0.024 0.351,-0.02 0.346,-0.015 0.342,-0.009 0.34,-0.003 0.337,0.004 0.335,0.01 0.335,0.018 0.335,0.026 0.337,0.033 0.34,0.038 0.342,0.043 0.345,0.047 0.348,0.052 0.351,0.056 0.354,0.06 0.357,0.064 0.36,0.068 0.361,0.073 0.361,0.08 0.361,0.089 0.358,0.098 0.351,0.104 0.344,0.111 0.336,0.115 0.326,0.115 0.316,0.115 0.308,0.111 0.3,0.104 0.293,0.097 0.286,0.088 0.281,0.078 0.276,0.068 0.272,0.057 0.269,0.046 0.267,0.035 0.265,0.025 0.265,0.018 c 0,-0.016 0.003,-0.031 0.008,-0.045 0.005,-0.013 0.012,-0.025 0.022,-0.035 0.009,-0.011 0.02,-0.02 0.033,-0.027 0.012,-0.007 0.026,-0.012 0.042,-0.015 0.001,0 0.003,-0.001 0.005,-0.001 0.001,0 0.003,0 0.004,0 l 0.056,0.001 c 0.013,0 0.025,-0.001 0.037,-0.002 0.012,-0.002 0.023,-0.005 0.034,-0.009 0.011,-0.004 0.021,-0.01 0.03,-0.018 0.01,-0.008 0.019,-0.019 0.028,-0.032 -0.016,0.008 -0.031,0.014 -0.047,0.018 -0.016,0.004 -0.032,0.006 -0.05,0.006 H 0.458 c -0.009,0 -0.018,0 -0.027,0 -0.009,0 -0.017,-0.001 -0.025,-0.002 C 0.397,-0.144 0.389,-0.145 0.38,-0.147 0.372,-0.149 0.363,-0.152 0.354,-0.156 0.335,-0.164 0.318,-0.174 0.303,-0.187 0.288,-0.2 0.275,-0.215 0.264,-0.231 0.253,-0.247 0.245,-0.265 0.239,-0.284 0.233,-0.303 0.23,-0.322 0.23,-0.342 c 0,-0.006 0.001,-0.011 0.002,-0.017 0.001,-0.005 0.003,-0.01 0.006,-0.014 0.002,-0.004 0.006,-0.007 0.011,-0.01 0.004,-0.002 0.01,-0.003 0.016,-0.003 0.01,0 0.018,0.003 0.025,0.01 0.007,0.007 0.01,0.015 0.01,0.025 v 0.009 c 0,0.018 0.004,0.035 0.011,0.051 0.006,0.016 0.016,0.03 0.028,0.042 0.012,0.012 0.026,0.021 0.042,0.028 0.016,0.007 0.033,0.011 0.051,0.011 h 0.022 c 0.009,0 0.017,-0.001 0.025,-0.001 C 0.487,-0.212 0.495,-0.213 0.504,-0.216 0.484,-0.221 0.466,-0.229 0.45,-0.24 0.434,-0.25 0.419,-0.263 0.408,-0.278 0.396,-0.293 0.387,-0.309 0.38,-0.328 0.374,-0.346 0.371,-0.366 0.371,-0.386 V -0.474 C 0.371,-0.481 0.369,-0.488 0.366,-0.495 0.364,-0.501 0.36,-0.507 0.355,-0.511 0.35,-0.516 0.344,-0.519 0.338,-0.522 0.332,-0.525 0.325,-0.526 0.318,-0.526 0.308,-0.526 0.3,-0.53 0.293,-0.537 0.286,-0.544 0.283,-0.552 0.283,-0.562 c 0,-0.009 0.003,-0.017 0.01,-0.024 0.007,-0.007 0.015,-0.011 0.025,-0.011 0.034,0 0.063,0.012 0.087,0.036 0.012,0.012 0.02,0.025 0.027,0.04 0.006,0.015 0.009,0.03 0.009,0.047 v 0.088 c 0,0.014 0.003,0.028 0.008,0.041 0.006,0.012 0.013,0.024 0.023,0.033 0.009,0.01 0.02,0.017 0.033,0.023 0.013,0.005 0.027,0.008 0.041,0.008 h 0.035 v -0.035 c -0.01,0 -0.019,-0.002 -0.027,-0.006 C 0.545,-0.325 0.538,-0.33 0.531,-0.337 0.525,-0.343 0.52,-0.35 0.517,-0.359 0.513,-0.367 0.511,-0.376 0.511,-0.386 v -0.01 c 0,-0.009 0,-0.018 0.001,-0.027 0,-0.008 0.002,-0.016 0.004,-0.024 C 0.519,-0.455 0.523,-0.462 0.528,-0.468 0.534,-0.475 0.542,-0.48 0.551,-0.485 0.538,-0.5 0.528,-0.518 0.521,-0.537 0.515,-0.556 0.511,-0.576 0.511,-0.597 v -0.07 c 0,-0.024 0.005,-0.047 0.014,-0.068 0.009,-0.021 0.022,-0.04 0.038,-0.056 0.015,-0.016 0.034,-0.028 0.055,-0.037 0.022,-0.01 0.044,-0.014 0.069,-0.014 0.024,0 0.046,0.004 0.068,0.014 0.021,0.009 0.04,0.021 0.055,0.037 0.016,0.016 0.029,0.035 0.038,0.056 0.009,0.021 0.014,0.044 0.014,0.068 v 0.048 c 0,0.012 0,0.024 -0.001,0.036 -0.001,0.011 -0.003,0.022 -0.005,0.033 -0.003,0.011 -0.007,0.022 -0.012,0.032 -0.006,0.011 -0.013,0.022 -0.022,0.033 0.012,0.006 0.022,0.015 0.029,0.026 0.007,0.011 0.011,0.024 0.011,0.038 v 0.035 c 0,0.01 -0.002,0.019 -0.006,0.027 -0.003,0.009 -0.008,0.016 -0.014,0.022 -0.007,0.007 -0.014,0.012 -0.023,0.015 -0.008,0.004 -0.017,0.006 -0.027,0.006 v 0.035 h 0.035 c 0.014,0 0.028,-0.003 0.041,-0.008 0.012,-0.006 0.024,-0.013 0.033,-0.023 0.01,-0.009 0.017,-0.021 0.023,-0.033 0.005,-0.013 0.008,-0.027 0.008,-0.041 v -0.088 c 0,-0.017 0.003,-0.032 0.009,-0.047 0.007,-0.015 0.016,-0.028 0.027,-0.04 0.024,-0.024 0.053,-0.036 0.087,-0.036 0.01,0 0.018,0.004 0.025,0.011 0.007,0.007 0.01,0.015 0.01,0.024 0,0.01 -0.003,0.018 -0.01,0.025 -0.007,0.007 -0.015,0.011 -0.025,0.011 -0.007,0 -0.014,0.001 -0.02,0.004 -0.006,0.003 -0.012,0.006 -0.017,0.011 -0.005,0.004 -0.009,0.01 -0.011,0.016 -0.003,0.007 -0.005,0.014 -0.005,0.021 v 0.088 c 0,0.02 -0.003,0.04 -0.009,0.058 -0.007,0.019 -0.016,0.035 -0.028,0.05 -0.011,0.015 -0.025,0.028 -0.042,0.038 -0.016,0.011 -0.034,0.019 -0.054,0.024 0.013,0.004 0.025,0.006 0.037,0.006 h 0.035 c 0.018,0 0.035,-0.004 0.051,-0.011 0.016,-0.007 0.03,-0.016 0.042,-0.028 0.012,-0.012 0.022,-0.026 0.028,-0.042 0.007,-0.016 0.011,-0.033 0.011,-0.051 0,-0.01 0.003,-0.018 0.01,-0.025 0.007,-0.007 0.015,-0.01 0.024,-0.01 0.01,0 0.018,0.003 0.025,0.01 0.007,0.007 0.011,0.015 0.011,0.025 0,0.028 -0.006,0.054 -0.016,0.078 -0.011,0.025 -0.025,0.046 -0.044,0.064 -0.018,0.019 -0.039,0.033 -0.063,0.044 -0.025,0.01 -0.051,0.015 -0.079,0.015 z"
         style="fill:#f7630c;fill-rule:nonzero"
         id="path8498" /><path
         d="m 0.599,-0.737 c 0.005,0 0.009,0.001 0.012,0.005 0.004,0.003 0.005,0.007 0.005,0.012 0,0.005 -0.001,0.009 -0.005,0.013 -0.003,0.003 -0.007,0.005 -0.012,0.005 -0.005,0 -0.009,-0.002 -0.013,-0.005 -0.003,-0.004 -0.005,-0.008 -0.005,-0.013 0,-0.005 0.002,-0.009 0.005,-0.012 0.004,-0.004 0.008,-0.005 0.013,-0.005 z m 0.123,-0.035 c 0.009,0 0.017,0.003 0.024,0.01 0.007,0.007 0.011,0.015 0.011,0.025 0,0.009 -0.004,0.018 -0.01,0.025 -0.007,0.006 -0.016,0.01 -0.025,0.01 -0.01,0 -0.018,-0.004 -0.025,-0.01 -0.007,-0.007 -0.01,-0.016 -0.01,-0.025 0,-0.01 0.003,-0.018 0.01,-0.025 0.007,-0.007 0.015,-0.01 0.025,-0.01 z m -0.088,0.14 c 0.005,0 0.009,0.002 0.012,0.005 0.004,0.004 0.005,0.008 0.005,0.013 0,0.005 -0.001,0.009 -0.005,0.012 -0.003,0.004 -0.007,0.005 -0.012,0.005 -0.005,0 -0.009,-0.001 -0.013,-0.005 -0.003,-0.003 -0.005,-0.007 -0.005,-0.012 0,-0.005 0.002,-0.009 0.005,-0.013 0.004,-0.003 0.008,-0.005 0.013,-0.005 z m 0.14,-0.035 c 0.005,0 0.009,0.002 0.013,0.005 0.003,0.004 0.005,0.008 0.005,0.013 0,0.004 -0.002,0.008 -0.005,0.012 -0.004,0.003 -0.008,0.005 -0.013,0.005 -0.004,0 -0.009,-0.002 -0.012,-0.005 -0.003,-0.003 -0.005,-0.008 -0.005,-0.012 0,-0.005 0.002,-0.009 0.005,-0.013 0.003,-0.003 0.008,-0.005 0.012,-0.005 z"
         style="fill:#f7b189;fill-rule:nonzero"
         id="path8500" /><path
         d="m 0.581,-0.457 c 0.009,0 0.018,0.004 0.025,0.011 0.007,0.007 0.01,0.015 0.01,0.025 v 0.035 c 0,0.01 -0.003,0.018 -0.01,0.025 -0.007,0.007 -0.015,0.01 -0.025,0.01 -0.009,0 -0.018,-0.004 -0.025,-0.011 -0.007,-0.007 -0.01,-0.015 -0.01,-0.024 v -0.035 c 0,-0.01 0.003,-0.018 0.01,-0.025 0.007,-0.007 0.016,-0.011 0.025,-0.011 z m 0.211,0 c 0.009,0 0.018,0.004 0.024,0.011 0.007,0.007 0.011,0.015 0.011,0.025 v 0.035 c 0,0.009 -0.004,0.017 -0.011,0.024 -0.006,0.007 -0.015,0.011 -0.024,0.011 -0.01,0 -0.018,-0.003 -0.025,-0.01 -0.007,-0.007 -0.01,-0.015 -0.01,-0.025 v -0.035 c 0,-0.01 0.003,-0.018 0.01,-0.025 0.007,-0.007 0.016,-0.011 0.025,-0.011 z"
         style="fill-rule:nonzero"
         id="path8502" /></g></g></svg>
