<?xml version="1.0" encoding="UTF-8" standalone="no"?>
<svg
   width="16.844999"
   height="15.78"
   viewBox="0 0 16.844999 15.78"
   version="1.1"
   xml:space="preserve"
   style="clip-rule:evenodd;fill-rule:evenodd;stroke-linejoin:round;stroke-miterlimit:2"
   id="svg20568"
   sodipodi:docname="emojis.svg"
   xmlns:inkscape="http://www.inkscape.org/namespaces/inkscape"
   xmlns:sodipodi="http://sodipodi.sourceforge.net/DTD/sodipodi-0.dtd"
   xmlns="http://www.w3.org/2000/svg"
   xmlns:svg="http://www.w3.org/2000/svg"><defs
     id="defs20572" /><sodipodi:namedview
     id="namedview20570"
     pagecolor="#505050"
     bordercolor="#eeeeee"
     borderopacity="1"
     inkscape:pageshadow="0"
     inkscape:pageopacity="0"
     inkscape:pagecheckerboard="0" /><g
     transform="matrix(0.24,0,0,0.24,-474.9246,-405.3018)"
     id="g20566"><g
       transform="matrix(62.5,0,0,62.5,1971.04,1743.57)"
       id="g8548"><path
         d="M 0.441,0.175 V 0.105 C 0.441,0.08 0.445,0.055 0.452,0.031 0.46,0.007 0.471,-0.015 0.485,-0.036 0.474,-0.037 0.463,-0.04 0.454,-0.045 0.444,-0.05 0.436,-0.056 0.429,-0.064 0.422,-0.072 0.416,-0.081 0.412,-0.091 0.408,-0.101 0.406,-0.112 0.406,-0.123 V -0.157 C 0.4,-0.15 0.394,-0.143 0.387,-0.137 0.381,-0.131 0.374,-0.126 0.367,-0.121 0.36,-0.116 0.352,-0.112 0.344,-0.11 0.337,-0.107 0.328,-0.105 0.318,-0.105 0.306,-0.105 0.294,-0.108 0.283,-0.112 0.273,-0.117 0.264,-0.123 0.256,-0.131 0.248,-0.139 0.241,-0.148 0.237,-0.159 0.232,-0.17 0.23,-0.181 0.23,-0.193 c 0,-0.01 0.001,-0.019 0.004,-0.027 0.003,-0.008 0.007,-0.016 0.012,-0.023 0.004,-0.007 0.01,-0.014 0.016,-0.02 0.006,-0.006 0.013,-0.012 0.02,-0.018 H 0.125 L 0.242,-0.392 C 0.224,-0.396 0.209,-0.403 0.195,-0.413 0.18,-0.423 0.168,-0.434 0.158,-0.448 0.147,-0.462 0.139,-0.476 0.134,-0.493 0.128,-0.509 0.125,-0.526 0.125,-0.544 c 0,-0.023 0.004,-0.044 0.013,-0.062 0.009,-0.019 0.021,-0.036 0.036,-0.053 0.031,-0.033 0.067,-0.063 0.107,-0.09 0.041,-0.027 0.083,-0.05 0.128,-0.069 0.045,-0.019 0.091,-0.033 0.139,-0.044 0.047,-0.01 0.093,-0.015 0.139,-0.015 h 0.105 c 0.061,0 0.118,0.008 0.172,0.024 0.054,0.017 0.107,0.042 0.157,0.076 0.01,0.006 0.021,0.013 0.031,0.021 0.011,0.008 0.021,0.016 0.03,0.025 0.009,0.009 0.016,0.019 0.022,0.03 0.006,0.011 0.009,0.024 0.009,0.037 0,0.011 -0.002,0.021 -0.006,0.031 -0.003,0.01 -0.009,0.019 -0.015,0.026 -0.007,0.008 -0.015,0.014 -0.024,0.02 -0.009,0.005 -0.019,0.008 -0.03,0.01 0.036,0.042 0.063,0.088 0.082,0.138 0.019,0.051 0.028,0.103 0.028,0.158 0,0.042 -0.005,0.083 -0.016,0.121 C 1.221,-0.121 1.205,-0.085 1.186,-0.051 1.166,-0.017 1.142,0.014 1.114,0.042 1.087,0.069 1.056,0.093 1.022,0.113 0.988,0.133 0.952,0.148 0.913,0.159 0.874,0.17 0.834,0.175 0.792,0.175 Z"
         style="fill-rule:nonzero"
         id="path8538" /><path
         d="m 0.792,-0.807 c 0.031,0 0.062,0.003 0.093,0.008 0.031,0.006 0.061,0.014 0.091,0.025 0.029,0.011 0.058,0.025 0.085,0.041 0.027,0.016 0.052,0.034 0.075,0.055 0.002,0.003 0.004,0.004 0.005,0.006 10e-4,0.002 0.002,0.004 0.002,0.008 0,0.005 -0.002,0.009 -0.006,0.012 C 1.134,-0.648 1.13,-0.646 1.125,-0.646 1.122,-0.646 1.12,-0.647 1.118,-0.648 1.116,-0.649 1.114,-0.65 1.112,-0.652 1.087,-0.671 1.062,-0.688 1.038,-0.703 1.013,-0.718 0.988,-0.731 0.963,-0.741 0.938,-0.751 0.911,-0.759 0.883,-0.764 0.855,-0.769 0.825,-0.772 0.792,-0.772 H 0.687 c -0.059,0 -0.114,0.008 -0.166,0.025 -0.053,0.017 -0.104,0.041 -0.153,0.071 -0.01,0.006 -0.021,0.013 -0.031,0.019 -0.01,0.006 -0.019,0.013 -0.028,0.021 l -0.063,0.055 c -0.006,0.005 -0.01,0.01 -0.012,0.017 -0.003,0.007 -0.004,0.014 -0.004,0.02 0,0.007 0.001,0.014 0.004,0.02 0.003,0.007 0.007,0.012 0.012,0.017 0.004,0.005 0.01,0.009 0.016,0.012 0.007,0.002 0.014,0.004 0.021,0.004 h 0.088 v 0.034 H 0.283 C 0.271,-0.457 0.26,-0.459 0.249,-0.464 0.239,-0.468 0.229,-0.475 0.221,-0.483 0.213,-0.491 0.207,-0.5 0.202,-0.51 0.198,-0.521 0.195,-0.532 0.195,-0.544 c 0,-0.013 0.003,-0.024 0.008,-0.035 0.005,-0.01 0.011,-0.02 0.02,-0.029 0.027,-0.03 0.059,-0.057 0.096,-0.081 0.037,-0.024 0.076,-0.045 0.117,-0.063 0.041,-0.018 0.083,-0.031 0.126,-0.041 0.042,-0.009 0.084,-0.014 0.125,-0.014 z"
         style="fill:#f7b189;fill-rule:nonzero"
         id="path8540" /><path
         d="m 0.792,-0.667 c 0.008,0 0.016,0 0.024,0.001 0.009,0 0.017,0.001 0.025,0.002 0.021,0.014 0.043,0.026 0.066,0.037 0.022,0.011 0.045,0.023 0.067,0.035 0.018,0.009 0.036,0.019 0.053,0.029 0.018,0.011 0.036,0.02 0.055,0.027 0.026,0.03 0.047,0.063 0.063,0.1 0.016,0.036 0.027,0.074 0.031,0.114 -0.006,0.005 -0.011,0.011 -0.013,0.018 -0.003,0.007 -0.004,0.015 -0.004,0.022 0,0.012 -0.002,0.023 -0.005,0.033 -0.004,0.011 -0.007,0.022 -0.009,0.033 -0.003,0.012 -0.006,0.024 -0.009,0.036 -0.002,0.012 -0.003,0.024 -0.003,0.036 0,0.013 10e-4,0.024 0.005,0.035 -0.016,0.03 -0.034,0.058 -0.056,0.083 C 1.06,-0.001 1.035,0.021 1.007,0.04 0.983,0.042 0.963,0.046 0.946,0.049 0.928,0.052 0.912,0.057 0.896,0.062 0.88,0.067 0.864,0.073 0.848,0.08 0.831,0.087 0.813,0.095 0.792,0.105 H 0.511 C 0.511,0.081 0.516,0.058 0.525,0.037 0.534,0.016 0.547,-0.003 0.563,-0.019 0.579,-0.035 0.597,-0.047 0.618,-0.056 0.64,-0.066 0.662,-0.07 0.687,-0.07 h 0.105 c 0.006,0.006 0.012,0.01 0.02,0.013 0.007,0.002 0.015,0.004 0.023,0.004 0.014,0 0.024,-0.004 0.029,-0.012 0.005,-0.008 0.008,-0.018 0.008,-0.03 0.012,-0.009 0.023,-0.019 0.032,-0.031 0.009,-0.012 0.016,-0.026 0.021,-0.04 0.017,-0.007 0.026,-0.021 0.026,-0.041 0,-0.009 -0.002,-0.019 -0.006,-0.028 C 0.941,-0.245 0.934,-0.251 0.925,-0.255 0.92,-0.27 0.913,-0.283 0.904,-0.295 0.895,-0.307 0.884,-0.318 0.872,-0.326 0.866,-0.341 0.857,-0.352 0.847,-0.36 0.836,-0.368 0.823,-0.372 0.806,-0.372 0.8,-0.372 0.793,-0.37 0.785,-0.368 L 0.74,-0.354 c -0.007,0.003 -0.014,0.004 -0.02,0.004 -0.003,0 -0.005,0 -0.009,-0.001 l -0.095,0.095 v 0.133 c 0,0.005 -0.001,0.009 -0.005,0.012 -0.003,0.004 -0.007,0.006 -0.012,0.006 -0.005,0 -0.009,-0.002 -0.013,-0.006 C 0.583,-0.114 0.581,-0.118 0.581,-0.123 v -0.14 c 0,-0.005 0.002,-0.009 0.005,-0.013 L 0.662,-0.351 H 0.606 l -0.095,0.095 v 0.133 c 0,0.005 -0.001,0.009 -0.005,0.012 -0.003,0.004 -0.007,0.006 -0.012,0.006 -0.005,0 -0.009,-0.002 -0.013,-0.006 C 0.478,-0.114 0.476,-0.118 0.476,-0.123 v -0.14 c 0,-0.005 0.002,-0.01 0.005,-0.013 L 0.557,-0.351 H 0.501 l -0.17,0.17 C 0.327,-0.177 0.323,-0.175 0.318,-0.175 0.313,-0.175 0.309,-0.177 0.306,-0.181 0.302,-0.184 0.3,-0.188 0.3,-0.193 0.3,-0.198 0.302,-0.202 0.306,-0.206 L 0.451,-0.351 H 0.3 L 0.371,-0.421 0.3,-0.491 c 0.024,-0.024 0.051,-0.046 0.081,-0.067 0.031,-0.022 0.063,-0.04 0.097,-0.057 0.034,-0.016 0.069,-0.028 0.104,-0.038 0.036,-0.009 0.071,-0.014 0.105,-0.014 z"
         style="fill:#f7630c;fill-rule:nonzero"
         id="path8542" /><path
         d="m 0.73,-0.351 0.136,-0.136 c 0.01,-0.01 0.018,-0.021 0.023,-0.034 0.005,-0.013 0.008,-0.027 0.008,-0.041 0,-0.014 -0.003,-0.027 -0.008,-0.039 C 0.884,-0.614 0.877,-0.625 0.868,-0.634 0.859,-0.644 0.848,-0.651 0.836,-0.657 0.823,-0.663 0.81,-0.666 0.796,-0.667 c 0.028,0 0.055,0.004 0.081,0.01 0.026,0.006 0.052,0.014 0.076,0.025 0.024,0.012 0.047,0.025 0.069,0.041 0.022,0.017 0.042,0.035 0.06,0.055 l -0.21,0.21 C 0.855,-0.337 0.838,-0.344 0.821,-0.347 0.804,-0.35 0.787,-0.352 0.769,-0.352 Z m 0.445,0.029 c 10e-4,0.007 0.002,0.013 0.002,0.02 0,0.007 10e-4,0.014 10e-4,0.021 0,0.03 -0.004,0.06 -0.011,0.088 -0.007,0.029 -0.017,0.057 -0.03,0.084 L 0.925,-0.166 C 0.927,-0.173 0.929,-0.181 0.93,-0.188 0.931,-0.195 0.932,-0.203 0.932,-0.21 0.932,-0.218 0.931,-0.225 0.93,-0.233 0.929,-0.24 0.927,-0.248 0.925,-0.255 Z M 0.792,-0.07 c 0.014,0 0.028,-0.002 0.042,-0.007 0.014,-0.004 0.026,-0.01 0.038,-0.019 L 1.007,0.04 C 0.975,0.061 0.941,0.077 0.904,0.088 0.868,0.099 0.83,0.105 0.792,0.105 Z"
         style="fill:#f7b189;fill-rule:nonzero"
         id="path8544" /><path
         d="m 0.494,-0.562 c 0.007,0 0.014,0.002 0.02,0.005 0.007,0.002 0.012,0.006 0.017,0.011 0.004,0.005 0.008,0.011 0.011,0.017 0.003,0.006 0.004,0.013 0.004,0.02 v 0.07 c 0,0.007 -0.001,0.014 -0.004,0.02 -0.003,0.007 -0.007,0.012 -0.011,0.017 -0.005,0.005 -0.01,0.009 -0.017,0.012 -0.006,0.002 -0.013,0.004 -0.02,0.004 -0.008,0 -0.015,-0.002 -0.021,-0.004 C 0.467,-0.393 0.461,-0.397 0.456,-0.402 0.452,-0.406 0.448,-0.412 0.445,-0.418 0.442,-0.425 0.441,-0.431 0.441,-0.439 v -0.07 c 0,-0.007 0.001,-0.014 0.004,-0.02 0.003,-0.007 0.007,-0.012 0.011,-0.017 0.005,-0.005 0.011,-0.009 0.017,-0.011 0.006,-0.003 0.013,-0.005 0.021,-0.005 z"
         style="fill-rule:nonzero"
         id="path8546" /></g></g></svg>
