<?xml version="1.0" encoding="UTF-8" standalone="no"?>
<svg
   width="16.844999"
   height="16.844999"
   viewBox="0 0 16.844999 16.844999"
   version="1.1"
   xml:space="preserve"
   style="clip-rule:evenodd;fill-rule:evenodd;stroke-linejoin:round;stroke-miterlimit:2"
   id="svg20568"
   sodipodi:docname="emojis.svg"
   xmlns:inkscape="http://www.inkscape.org/namespaces/inkscape"
   xmlns:sodipodi="http://sodipodi.sourceforge.net/DTD/sodipodi-0.dtd"
   xmlns="http://www.w3.org/2000/svg"
   xmlns:svg="http://www.w3.org/2000/svg"><defs
     id="defs20572" /><sodipodi:namedview
     id="namedview20570"
     pagecolor="#505050"
     bordercolor="#eeeeee"
     borderopacity="1"
     inkscape:pageshadow="0"
     inkscape:pageopacity="0"
     inkscape:pagecheckerboard="0" /><g
     transform="matrix(0.24,0,0,0.24,-533.0286,-404.7618)"
     id="g20566"><g
       transform="matrix(62.5,0,0,62.5,2213.14,1743.57)"
       id="g8600"><path
         d="m 0.125,-0.21 c 0,-0.039 0.005,-0.075 0.016,-0.109 0.01,-0.034 0.025,-0.065 0.044,-0.094 0.019,-0.029 0.042,-0.054 0.068,-0.077 0.026,-0.023 0.055,-0.042 0.086,-0.058 0.032,-0.016 0.065,-0.028 0.1,-0.036 0.035,-0.009 0.071,-0.013 0.107,-0.013 0.026,0 0.051,0.002 0.076,0.007 C 0.612,-0.602 0.605,-0.614 0.599,-0.625 0.594,-0.636 0.59,-0.648 0.587,-0.66 0.585,-0.672 0.583,-0.684 0.582,-0.697 0.581,-0.709 0.581,-0.723 0.581,-0.737 c 0,-0.024 0.005,-0.047 0.014,-0.068 0.009,-0.022 0.022,-0.04 0.038,-0.056 0.016,-0.016 0.034,-0.028 0.056,-0.038 0.021,-0.009 0.044,-0.014 0.068,-0.014 0.028,0 0.054,0.007 0.078,0.019 0.025,0.012 0.045,0.03 0.062,0.052 0.017,-0.022 0.037,-0.04 0.062,-0.052 0.025,-0.012 0.051,-0.019 0.079,-0.019 0.024,0 0.046,0.005 0.068,0.014 0.021,0.01 0.04,0.022 0.055,0.038 0.016,0.016 0.029,0.034 0.038,0.056 0.009,0.021 0.014,0.044 0.014,0.068 v 0.035 c 0,0.014 -0.002,0.027 -0.005,0.04 -0.004,0.014 -0.009,0.027 -0.015,0.039 -0.006,0.012 -0.014,0.023 -0.022,0.034 -0.009,0.011 -0.018,0.021 -0.028,0.03 v 0.012 c 0.016,0.007 0.03,0.016 0.043,0.027 0.013,0.011 0.024,0.024 0.033,0.038 0.009,0.014 0.016,0.029 0.021,0.045 0.006,0.017 0.008,0.034 0.008,0.051 0,0.017 -0.002,0.034 -0.008,0.051 -0.005,0.016 -0.012,0.031 -0.021,0.045 -0.009,0.014 -0.02,0.026 -0.033,0.038 -0.013,0.011 -0.027,0.02 -0.043,0.027 v 0.155 c 0,0.029 -0.004,0.057 -0.011,0.083 C 1.125,0.039 1.114,0.063 1.1,0.085 1.087,0.107 1.069,0.127 1.048,0.144 1.028,0.161 1.003,0.176 0.976,0.187 0.958,0.194 0.939,0.2 0.92,0.204 0.901,0.208 0.881,0.21 0.862,0.21 H 0.125 V 0.14 c 0,-0.001 0,-0.002 0.001,-0.004 L 0.131,0.12 C 0.139,0.099 0.148,0.079 0.158,0.06 0.168,0.041 0.181,0.024 0.197,0.008 0.174,-0.023 0.156,-0.058 0.144,-0.095 0.131,-0.133 0.125,-0.171 0.125,-0.21 Z"
         style="fill-rule:nonzero"
         id="path8588" /><path
         d="m 0.406,0 0.316,-0.297 v -0.3 C 0.712,-0.602 0.703,-0.608 0.694,-0.615 0.685,-0.622 0.678,-0.631 0.672,-0.64 0.665,-0.649 0.66,-0.659 0.657,-0.669 0.653,-0.68 0.651,-0.691 0.651,-0.702 v -0.035 c 0,-0.015 0.003,-0.029 0.009,-0.041 0.005,-0.013 0.013,-0.024 0.022,-0.034 0.01,-0.009 0.021,-0.016 0.034,-0.022 0.013,-0.006 0.026,-0.008 0.041,-0.008 0.014,0 0.028,0.002 0.041,0.008 0.013,0.006 0.024,0.013 0.033,0.022 0.009,0.01 0.017,0.021 0.023,0.034 0.005,0.012 0.008,0.026 0.008,0.041 v 0.035 c 0,0.011 -0.002,0.022 -0.006,0.032 -0.004,0.011 -0.009,0.021 -0.015,0.03 -0.006,0.009 -0.014,0.017 -0.022,0.025 -0.009,0.007 -0.018,0.013 -0.027,0.018 0,0.016 0.003,0.03 0.008,0.043 0.005,0.013 0.012,0.024 0.021,0.033 0.009,0.01 0.02,0.017 0.033,0.022 0.013,0.005 0.027,0.008 0.043,0.008 0.015,0 0.029,-0.003 0.042,-0.008 C 0.952,-0.504 0.964,-0.511 0.973,-0.521 0.982,-0.53 0.989,-0.541 0.995,-0.554 1,-0.567 1.002,-0.581 1.002,-0.597 0.993,-0.602 0.983,-0.608 0.975,-0.615 0.966,-0.622 0.959,-0.631 0.952,-0.64 0.946,-0.649 0.941,-0.659 0.937,-0.669 0.934,-0.68 0.932,-0.691 0.932,-0.702 v -0.035 c 0,-0.015 0.003,-0.029 0.008,-0.041 0.006,-0.013 0.014,-0.024 0.023,-0.034 0.01,-0.009 0.021,-0.016 0.034,-0.022 0.012,-0.006 0.026,-0.008 0.041,-0.008 0.014,0 0.028,0.002 0.041,0.008 0.012,0.006 0.023,0.013 0.033,0.022 0.009,0.01 0.017,0.021 0.022,0.034 0.006,0.012 0.009,0.026 0.009,0.041 v 0.035 c 0,0.011 -0.002,0.022 -0.006,0.032 -0.004,0.011 -0.009,0.021 -0.015,0.03 -0.007,0.009 -0.014,0.017 -0.022,0.025 -0.009,0.007 -0.018,0.013 -0.027,0.018 v 0.106 c 0.014,0 0.028,0.003 0.041,0.008 0.012,0.006 0.024,0.013 0.033,0.023 0.009,0.009 0.017,0.02 0.022,0.033 0.006,0.012 0.009,0.026 0.009,0.041 0,0.014 -0.003,0.028 -0.009,0.041 -0.005,0.012 -0.013,0.024 -0.022,0.033 -0.009,0.01 -0.021,0.017 -0.033,0.023 -0.013,0.005 -0.027,0.008 -0.041,0.008 V -0.07 C 1.073,-0.021 1.062,0.02 1.04,0.053 1.017,0.086 0.983,0.111 0.936,0.126 0.924,0.131 0.912,0.134 0.899,0.136 0.887,0.139 0.875,0.14 0.862,0.14 H 0.195 C 0.202,0.117 0.213,0.096 0.227,0.079 0.241,0.061 0.257,0.046 0.276,0.035 0.294,0.023 0.315,0.014 0.337,0.009 0.359,0.003 0.382,0 0.406,0 Z"
         style="fill:#f7b189;fill-rule:nonzero"
         id="path8590" /><path
         d="m 0.897,-0.21 h -0.14 c 0,0.04 -0.007,0.078 -0.021,0.112 C 0.722,-0.064 0.702,-0.034 0.677,-0.009 0.652,0.016 0.622,0.035 0.588,0.049 0.554,0.063 0.516,0.07 0.476,0.07 0.435,0.07 0.398,0.063 0.364,0.049 0.329,0.035 0.3,0.016 0.275,-0.009 0.25,-0.034 0.23,-0.064 0.216,-0.098 0.202,-0.132 0.195,-0.17 0.195,-0.21 0.195,-0.242 0.2,-0.272 0.209,-0.3 0.218,-0.328 0.23,-0.354 0.246,-0.377 0.262,-0.4 0.281,-0.421 0.303,-0.44 0.325,-0.458 0.349,-0.474 0.375,-0.487 0.401,-0.5 0.429,-0.509 0.458,-0.516 c 0.029,-0.007 0.058,-0.01 0.088,-0.01 0.029,0 0.058,0.003 0.087,0.01 0.029,0.007 0.056,0.017 0.082,0.03 0.026,0.014 0.05,0.03 0.072,0.048 0.023,0.019 0.042,0.04 0.058,0.063 0.016,0.024 0.029,0.049 0.039,0.077 0.009,0.027 0.013,0.057 0.013,0.088 z"
         style="fill:#613d30;fill-rule:nonzero"
         id="path8592" /><path
         d="m 0.792,-0.035 c 0.009,0 0.018,0.003 0.024,0.01 C 0.823,-0.018 0.827,-0.009 0.827,0 0.827,0.009 0.823,0.018 0.816,0.025 0.81,0.032 0.801,0.035 0.792,0.035 0.782,0.035 0.774,0.032 0.767,0.025 0.76,0.018 0.757,0.01 0.757,0 c 0,-0.01 0.003,-0.018 0.01,-0.025 0.007,-0.007 0.015,-0.01 0.025,-0.01 z M 0.915,-0.07 c 0.007,0 0.014,0.001 0.02,0.004 0.007,0.003 0.012,0.006 0.017,0.011 0.005,0.005 0.008,0.01 0.011,0.017 0.003,0.006 0.004,0.013 0.004,0.02 0,0.008 -0.001,0.014 -0.004,0.021 C 0.96,0.009 0.957,0.015 0.952,0.02 0.947,0.024 0.941,0.028 0.935,0.031 0.928,0.034 0.922,0.035 0.915,0.035 0.907,0.035 0.901,0.034 0.894,0.031 0.888,0.028 0.882,0.024 0.877,0.02 0.873,0.015 0.869,0.009 0.866,0.003 0.863,-0.004 0.862,-0.01 0.862,-0.018 c 0,-0.007 0.001,-0.013 0.004,-0.02 C 0.869,-0.044 0.873,-0.05 0.877,-0.055 0.882,-0.06 0.888,-0.063 0.894,-0.066 0.901,-0.069 0.907,-0.07 0.915,-0.07 Z m 0.017,-0.035 c -0.01,0 -0.018,-0.004 -0.025,-0.011 -0.007,-0.007 -0.01,-0.015 -0.01,-0.025 0,-0.009 0.003,-0.017 0.01,-0.024 0.007,-0.007 0.016,-0.011 0.025,-0.011 0.01,0 0.018,0.004 0.025,0.011 0.007,0.007 0.01,0.015 0.01,0.024 0,0.01 -0.003,0.018 -0.01,0.025 -0.007,0.007 -0.015,0.011 -0.025,0.011 z"
         style="fill:#f7894a;fill-rule:nonzero"
         id="path8594" /><path
         d="m 1.038,-0.772 c 0.009,0 0.017,0.003 0.024,0.01 0.007,0.007 0.011,0.015 0.011,0.025 v 0.035 c 0,0.009 -0.004,0.018 -0.011,0.025 -0.007,0.007 -0.015,0.01 -0.024,0.01 -0.01,0 -0.018,-0.003 -0.025,-0.01 C 1.006,-0.684 1.002,-0.692 1.002,-0.702 v -0.035 c 0,-0.01 0.004,-0.018 0.011,-0.025 0.007,-0.007 0.015,-0.01 0.025,-0.01 z m -0.281,0 c 0.009,0 0.017,0.003 0.024,0.01 0.007,0.007 0.011,0.015 0.011,0.025 v 0.035 c 0,0.009 -0.004,0.018 -0.011,0.025 -0.007,0.007 -0.015,0.01 -0.024,0.01 -0.01,0 -0.018,-0.003 -0.025,-0.01 -0.007,-0.007 -0.01,-0.015 -0.01,-0.025 v -0.035 c 0,-0.01 0.003,-0.018 0.01,-0.025 0.007,-0.007 0.015,-0.01 0.025,-0.01 z"
         style="fill-rule:nonzero"
         id="path8596" /><path
         d="m 0.494,-0.421 c 0.026,0 0.051,0.005 0.075,0.015 0.023,0.01 0.044,0.024 0.061,0.041 0.018,0.018 0.031,0.038 0.041,0.062 0.01,0.023 0.016,0.048 0.016,0.075 0,0.027 -0.006,0.052 -0.016,0.075 C 0.661,-0.129 0.648,-0.109 0.63,-0.092 0.613,-0.074 0.592,-0.06 0.569,-0.05 0.545,-0.04 0.52,-0.035 0.494,-0.035 0.467,-0.035 0.442,-0.04 0.418,-0.05 0.395,-0.06 0.375,-0.074 0.357,-0.092 0.339,-0.109 0.326,-0.129 0.315,-0.153 0.305,-0.176 0.3,-0.201 0.3,-0.228 c 0,-0.027 0.005,-0.052 0.015,-0.075 0.011,-0.024 0.024,-0.044 0.042,-0.062 0.018,-0.017 0.038,-0.031 0.061,-0.041 0.024,-0.01 0.049,-0.015 0.076,-0.015 z m 0,0.245 c 0.007,0 0.014,-0.001 0.02,-0.004 0.006,-0.003 0.012,-0.006 0.017,-0.011 0.004,-0.005 0.008,-0.01 0.011,-0.017 0.003,-0.006 0.004,-0.013 0.004,-0.02 0,-0.007 -0.001,-0.014 -0.004,-0.02 C 0.539,-0.255 0.535,-0.26 0.531,-0.265 0.526,-0.27 0.521,-0.274 0.514,-0.277 0.508,-0.279 0.501,-0.281 0.494,-0.281 c -0.008,0 -0.015,0.002 -0.021,0.004 -0.006,0.003 -0.012,0.007 -0.017,0.012 -0.004,0.004 -0.008,0.01 -0.011,0.016 -0.003,0.007 -0.004,0.014 -0.004,0.021 0,0.007 0.001,0.014 0.004,0.021 0.003,0.006 0.007,0.012 0.012,0.016 0.004,0.005 0.01,0.008 0.016,0.011 0.007,0.003 0.013,0.004 0.021,0.004 z"
         style="fill:#8e562e;fill-rule:nonzero"
         id="path8598" /></g></g></svg>
