<?xml version="1.0" encoding="UTF-8" standalone="no"?>
<svg
   width="16.844999"
   height="15.27"
   viewBox="0 0 16.844999 15.27"
   version="1.1"
   xml:space="preserve"
   style="clip-rule:evenodd;fill-rule:evenodd;stroke-linejoin:round;stroke-miterlimit:2"
   id="svg20568"
   sodipodi:docname="emojis.svg"
   xmlns:inkscape="http://www.inkscape.org/namespaces/inkscape"
   xmlns:sodipodi="http://sodipodi.sourceforge.net/DTD/sodipodi-0.dtd"
   xmlns="http://www.w3.org/2000/svg"
   xmlns:svg="http://www.w3.org/2000/svg"><defs
     id="defs20572" /><sodipodi:namedview
     id="namedview20570"
     pagecolor="#505050"
     bordercolor="#eeeeee"
     borderopacity="1"
     inkscape:pageshadow="0"
     inkscape:pageopacity="0"
     inkscape:pagecheckerboard="0" /><g
     transform="matrix(0.24,0,0,0.24,-553.623,-406.0818)"
     id="g20566"><g
       transform="matrix(62.5,0,0,62.5,2298.95,1743.57)"
       id="g8610"><path
         d="M 0.932,0.193 C 0.903,0.193 0.878,0.183 0.858,0.162 L 0.756,0.061 0.75,0.066 C 0.744,0.069 0.738,0.072 0.734,0.075 0.729,0.077 0.725,0.08 0.72,0.081 0.716,0.083 0.711,0.085 0.706,0.086 0.7,0.087 0.694,0.087 0.687,0.087 0.674,0.087 0.661,0.085 0.649,0.081 0.637,0.076 0.626,0.069 0.617,0.061 L 0.515,0.162 C 0.495,0.183 0.47,0.193 0.441,0.193 0.407,0.193 0.375,0.186 0.345,0.174 0.316,0.161 0.29,0.143 0.267,0.121 0.245,0.099 0.227,0.073 0.215,0.043 0.202,0.013 0.195,-0.019 0.195,-0.053 c 0,-0.021 0.003,-0.042 0.009,-0.062 0.005,-0.021 0.013,-0.04 0.024,-0.059 C 0.212,-0.181 0.198,-0.19 0.186,-0.201 0.173,-0.212 0.162,-0.225 0.153,-0.239 0.144,-0.252 0.137,-0.267 0.132,-0.283 0.127,-0.3 0.125,-0.316 0.125,-0.333 v -0.352 c 0,-0.019 0.004,-0.037 0.011,-0.054 0.007,-0.017 0.017,-0.032 0.03,-0.045 0.013,-0.012 0.028,-0.022 0.044,-0.03 0.017,-0.007 0.036,-0.011 0.055,-0.011 0.019,0 0.037,0.004 0.054,0.011 0.017,0.007 0.032,0.017 0.045,0.03 l 0.283,0.283 c 0.008,-0.004 0.016,-0.006 0.024,-0.007 0.008,0 0.016,-0.001 0.024,-0.001 0.006,0 0.011,0.001 0.016,0.003 0.006,0.001 0.011,0.003 0.015,0.005 l 0.282,-0.283 c 0.013,-0.013 0.029,-0.023 0.046,-0.03 0.017,-0.007 0.035,-0.011 0.054,-0.011 0.019,0 0.038,0.004 0.055,0.011 0.017,0.008 0.031,0.018 0.044,0.03 0.013,0.013 0.023,0.028 0.03,0.045 0.007,0.017 0.011,0.035 0.011,0.054 v 0.352 c 0,0.017 -0.002,0.033 -0.007,0.05 -0.005,0.016 -0.012,0.031 -0.021,0.044 -0.009,0.014 -0.02,0.027 -0.033,0.038 -0.012,0.011 -0.026,0.02 -0.042,0.027 0.01,0.019 0.018,0.038 0.024,0.059 0.006,0.02 0.009,0.041 0.009,0.062 0,0.034 -0.007,0.066 -0.02,0.096 C 1.146,0.073 1.128,0.099 1.106,0.121 1.083,0.143 1.057,0.161 1.028,0.174 0.998,0.186 0.966,0.193 0.932,0.193 Z"
         style="fill-rule:nonzero"
         id="path8602" /><path
         d="m 1.055,-0.14 c 0.007,0.002 0.013,0.005 0.019,0.008 0.007,0.002 0.013,0.005 0.019,0.009 0.005,0.012 0.009,0.025 0.011,0.039 L 1.036,0.048 0.907,0.112 0.862,0.067 0.847,0.008 0.827,0.032 0.687,-0.108 0.546,0.032 0.529,0.018 0.51,0.068 0.466,0.112 0.35,0.043 0.269,-0.084 C 0.271,-0.098 0.275,-0.111 0.28,-0.123 L 0.313,-0.138 C 0.311,-0.142 0.309,-0.145 0.307,-0.148 0.305,-0.152 0.303,-0.155 0.301,-0.158 0.313,-0.176 0.329,-0.19 0.348,-0.202 c 0.019,-0.012 0.039,-0.02 0.06,-0.023 0.006,-0.001 0.011,-0.002 0.017,-0.002 0.005,0 0.01,0 0.016,-0.001 0.033,-0.006 0.067,-0.013 0.099,-0.021 0.033,-0.007 0.066,-0.015 0.099,-0.022 H 0.306 c -0.001,0 -0.003,0 -0.005,0 -0.009,0 -0.016,-0.003 -0.021,-0.01 C 0.274,-0.287 0.271,-0.295 0.271,-0.303 V -0.67 L 0.3,-0.745 c 0.003,0.002 0.005,0.003 0.008,0.005 0.002,0.002 0.005,0.004 0.007,0.006 l 0.162,0.162 0.015,0.054 0.018,-0.021 0.141,0.142 v 0.123 l 0.036,-0.008 0.035,0.008 v -0.123 l 0.14,-0.141 0.022,0.017 0.013,-0.052 0.161,-0.161 C 1.06,-0.736 1.063,-0.738 1.065,-0.74 1.068,-0.742 1.07,-0.743 1.073,-0.745 l 0.031,0.011 v 0.441 l 0.007,0.001 c 0,0.009 -0.003,0.017 -0.01,0.024 -0.007,0.006 -0.015,0.01 -0.025,0.01 h -0.29 c 0.024,0.004 0.048,0.009 0.073,0.015 0.024,0.006 0.048,0.011 0.073,0.015 0.006,0.001 0.011,0.001 0.016,0.001 0.006,0 0.011,0.001 0.017,0.002 0.021,0.003 0.041,0.011 0.06,0.023 0.019,0.012 0.035,0.027 0.048,0.044 -0.003,0.004 -0.006,0.007 -0.008,0.01 -0.003,0.003 -0.006,0.006 -0.01,0.008 z"
         style="fill:#f7630c;fill-rule:nonzero"
         id="path8604" /><path
         d="m 1.108,-0.755 c 0.01,0 0.019,0.002 0.027,0.006 0.009,0.003 0.016,0.009 0.022,0.015 0.007,0.006 0.012,0.014 0.015,0.022 0.004,0.009 0.006,0.018 0.006,0.027 v 0.352 c 0,0.014 -0.003,0.028 -0.009,0.041 -0.005,0.012 -0.013,0.023 -0.022,0.033 -0.009,0.01 -0.021,0.017 -0.033,0.023 -0.013,0.005 -0.027,0.008 -0.041,0.008 H 0.781 l 0.071,0.07 h 0.22 c 0.008,0.011 0.014,0.023 0.02,0.035 H 0.887 l 0.128,0.128 0.089,-0.089 c 0.002,0.01 0.003,0.021 0.003,0.031 0,0.024 -0.004,0.047 -0.013,0.068 C 1.084,0.037 1.072,0.055 1.056,0.071 1.04,0.087 1.022,0.099 1,0.109 0.979,0.118 0.956,0.123 0.932,0.123 0.922,0.123 0.914,0.119 0.907,0.112 L 0.99,0.03 0.862,-0.098 V 0.067 L 0.827,0.032 V -0.133 L 0.753,-0.207 0.721,-0.013 C 0.719,-0.004 0.715,0.003 0.709,0.009 0.704,0.015 0.696,0.018 0.687,0.018 0.677,0.018 0.669,0.015 0.664,0.009 0.658,0.003 0.654,-0.004 0.652,-0.013 L 0.62,-0.207 0.546,-0.133 V 0.032 L 0.511,0.067 V -0.098 L 0.383,0.03 0.466,0.112 C 0.459,0.119 0.451,0.123 0.441,0.123 0.417,0.123 0.394,0.118 0.373,0.109 0.351,0.099 0.333,0.087 0.317,0.071 0.301,0.055 0.288,0.037 0.279,0.015 0.27,-0.006 0.265,-0.029 0.265,-0.053 c 0,-0.005 0,-0.011 0.001,-0.016 0.001,-0.005 0.002,-0.01 0.003,-0.015 L 0.358,0.005 0.486,-0.123 H 0.28 c 0.003,-0.006 0.006,-0.012 0.009,-0.018 0.004,-0.006 0.008,-0.012 0.012,-0.017 h 0.22 l 0.07,-0.07 H 0.3 C 0.286,-0.228 0.272,-0.231 0.259,-0.236 0.247,-0.242 0.236,-0.249 0.226,-0.259 0.217,-0.269 0.209,-0.28 0.204,-0.292 0.198,-0.305 0.195,-0.319 0.195,-0.333 v -0.352 c 0,-0.009 0.002,-0.018 0.006,-0.027 0.003,-0.008 0.008,-0.016 0.015,-0.022 0.006,-0.006 0.013,-0.012 0.022,-0.015 0.008,-0.004 0.017,-0.006 0.027,-0.006 0.006,0 0.012,0.001 0.018,0.003 0.006,0.002 0.012,0.004 0.017,0.007 v 0.141 l 0.176,0.175 v -0.144 l 0.035,0.035 v 0.144 l 0.095,0.096 h 0.01 l 0.038,-0.118 c 0.002,-0.007 0.006,-0.012 0.013,-0.017 0.006,-0.004 0.012,-0.006 0.02,-0.006 0.007,0 0.013,0.002 0.02,0.006 0.006,0.005 0.01,0.01 0.012,0.017 l 0.038,0.118 h 0.01 l 0.095,-0.096 v -0.144 l 0.035,-0.035 v 0.144 L 1.073,-0.604 V -0.745 C 1.078,-0.748 1.084,-0.75 1.09,-0.752 1.096,-0.754 1.102,-0.755 1.108,-0.755 Z M 0.335,-0.298 H 0.557 L 0.486,-0.369 H 0.3 v 0.036 c 0,0.009 0.004,0.018 0.011,0.024 0.006,0.007 0.015,0.011 0.024,0.011 z M 1.073,-0.333 V -0.369 H 0.887 l -0.071,0.071 h 0.222 c 0.009,0 0.017,-0.004 0.024,-0.011 0.007,-0.007 0.011,-0.015 0.011,-0.024 z m 0,-0.071 v -0.15 l -0.151,0.15 z M 0.3,-0.554 v 0.15 h 0.151 z"
         style="fill:#383838;fill-rule:nonzero"
         id="path8606" /><path
         d="m 0.248,-0.685 c 0.005,0 0.009,0.002 0.012,0.006 0.003,0.003 0.005,0.007 0.005,0.012 0,0.005 -0.002,0.009 -0.005,0.012 -0.003,0.004 -0.007,0.006 -0.012,0.006 -0.005,0 -0.009,-0.002 -0.012,-0.006 C 0.232,-0.658 0.23,-0.662 0.23,-0.667 c 0,-0.005 0.002,-0.009 0.006,-0.012 0.003,-0.004 0.007,-0.006 0.012,-0.006 z m 0,0.106 c 0.005,0 0.009,0.002 0.012,0.005 0.003,0.004 0.005,0.008 0.005,0.012 0,0.005 -0.002,0.009 -0.005,0.013 -0.003,0.003 -0.007,0.005 -0.012,0.005 -0.005,0 -0.009,-0.002 -0.012,-0.005 C 0.232,-0.552 0.23,-0.557 0.23,-0.562 c 0,-0.004 0.002,-0.009 0.006,-0.012 0.003,-0.003 0.007,-0.005 0.012,-0.005 z m 0,0.105 c 0.005,0 0.009,0.002 0.012,0.005 0.003,0.004 0.005,0.008 0.005,0.012 0,0.005 -0.002,0.009 -0.005,0.013 -0.003,0.003 -0.007,0.005 -0.012,0.005 -0.005,0 -0.009,-0.002 -0.012,-0.005 C 0.232,-0.448 0.23,-0.452 0.23,-0.457 c 0,-0.004 0.002,-0.008 0.006,-0.012 0.003,-0.003 0.007,-0.005 0.012,-0.005 z m 0,0.105 c 0.005,0 0.009,0.002 0.012,0.006 0.003,0.003 0.005,0.007 0.005,0.012 0,0.004 -0.002,0.009 -0.005,0.012 -0.003,0.004 -0.007,0.006 -0.012,0.006 -0.005,0 -0.009,-0.002 -0.012,-0.006 C 0.232,-0.342 0.23,-0.346 0.23,-0.351 c 0,-0.005 0.002,-0.009 0.006,-0.013 0.003,-0.003 0.007,-0.005 0.012,-0.005 z m 0.07,0.351 c 0.005,0 0.009,0.002 0.012,0.006 C 0.334,-0.009 0.335,-0.005 0.335,0 0.335,0.005 0.334,0.009 0.33,0.012 0.327,0.016 0.323,0.018 0.318,0.018 0.313,0.018 0.309,0.016 0.305,0.012 0.302,0.009 0.3,0.005 0.3,0 c 0,-0.005 0.002,-0.009 0.005,-0.012 0.004,-0.004 0.008,-0.006 0.013,-0.006 z m 0.07,0.071 c 0.005,0 0.009,0.001 0.013,0.005 C 0.404,0.061 0.406,0.065 0.406,0.07 0.406,0.075 0.404,0.079 0.4,0.082 0.397,0.086 0.393,0.087 0.388,0.087 0.384,0.087 0.38,0.086 0.376,0.082 0.372,0.079 0.371,0.075 0.371,0.07 0.371,0.065 0.372,0.061 0.376,0.058 0.379,0.054 0.383,0.053 0.388,0.053 Z m 0.737,-0.702 c -0.005,0 -0.009,-0.002 -0.012,-0.006 -0.004,-0.003 -0.006,-0.007 -0.006,-0.012 0,-0.005 0.002,-0.009 0.006,-0.012 0.003,-0.004 0.007,-0.006 0.012,-0.006 0.005,0 0.009,0.002 0.012,0.006 0.004,0.003 0.006,0.007 0.006,0.012 0,0.005 -0.002,0.009 -0.006,0.012 -0.003,0.004 -0.007,0.006 -0.012,0.006 z m 0,0.07 c 0.005,0 0.009,0.002 0.012,0.005 0.004,0.003 0.006,0.008 0.006,0.012 0,0.005 -0.002,0.01 -0.006,0.013 -0.003,0.003 -0.007,0.005 -0.012,0.005 -0.005,0 -0.009,-0.002 -0.012,-0.005 -0.004,-0.004 -0.006,-0.008 -0.006,-0.013 0,-0.004 0.002,-0.008 0.006,-0.012 0.003,-0.003 0.007,-0.005 0.012,-0.005 z m 0,0.105 c 0.005,0 0.009,0.002 0.012,0.005 0.004,0.004 0.006,0.008 0.006,0.012 0,0.005 -0.002,0.009 -0.006,0.013 -0.003,0.003 -0.007,0.005 -0.012,0.005 -0.005,0 -0.009,-0.002 -0.012,-0.005 -0.004,-0.004 -0.006,-0.008 -0.006,-0.013 0,-0.004 0.002,-0.008 0.006,-0.012 0.003,-0.003 0.007,-0.005 0.012,-0.005 z m 0,0.105 c 0.005,0 0.009,0.002 0.012,0.005 0.004,0.004 0.006,0.008 0.006,0.013 0,0.005 -0.002,0.009 -0.006,0.012 -0.003,0.004 -0.007,0.006 -0.012,0.006 -0.005,0 -0.009,-0.002 -0.012,-0.006 -0.004,-0.003 -0.006,-0.008 -0.006,-0.012 0,-0.005 0.002,-0.009 0.006,-0.012 0.003,-0.004 0.007,-0.006 0.012,-0.006 z m -0.07,0.351 c 0.005,0 0.009,0.002 0.013,0.006 C 1.071,-0.009 1.073,-0.005 1.073,0 1.073,0.005 1.071,0.009 1.068,0.012 1.064,0.016 1.06,0.018 1.055,0.018 1.05,0.018 1.046,0.016 1.043,0.012 1.039,0.009 1.038,0.005 1.038,0 c 0,-0.005 10e-4,-0.009 0.005,-0.012 0.003,-0.004 0.007,-0.006 0.012,-0.006 z m -0.07,0.071 c 0.005,0 0.009,0.001 0.012,0.005 0.004,0.003 0.005,0.007 0.005,0.012 0,0.005 -0.001,0.009 -0.005,0.012 C 0.993,0.086 0.989,0.087 0.985,0.087 0.98,0.087 0.976,0.086 0.973,0.082 0.969,0.079 0.967,0.075 0.967,0.07 0.967,0.065 0.969,0.061 0.972,0.058 0.976,0.054 0.98,0.053 0.985,0.053 Z"
         style="fill:#ffffff;fill-rule:nonzero"
         id="path8608" /></g></g></svg>
