<?xml version="1.0" encoding="UTF-8" standalone="no"?>
<svg
   width="16.844999"
   height="16.844999"
   viewBox="0 0 16.844999 16.844999"
   version="1.1"
   xml:space="preserve"
   style="clip-rule:evenodd;fill-rule:evenodd;stroke-linejoin:round;stroke-miterlimit:2"
   id="svg20568"
   sodipodi:docname="emojis.svg"
   xmlns:inkscape="http://www.inkscape.org/namespaces/inkscape"
   xmlns:sodipodi="http://sodipodi.sourceforge.net/DTD/sodipodi-0.dtd"
   xmlns="http://www.w3.org/2000/svg"
   xmlns:svg="http://www.w3.org/2000/svg"><defs
     id="defs20572" /><sodipodi:namedview
     id="namedview20570"
     pagecolor="#505050"
     bordercolor="#eeeeee"
     borderopacity="1"
     inkscape:pageshadow="0"
     inkscape:pageopacity="0"
     inkscape:pagecheckerboard="0" /><g
     transform="matrix(0.24,0,0,0.24,-13.213584,-110.71908)"
     id="g20566"><g
       transform="matrix(62.5,0,0,62.5,47.2441,518.392)"
       id="g862"><path
         d="m 1.248,-0.351 c 0,0.052 -0.007,0.101 -0.02,0.149 C 1.215,-0.154 1.196,-0.109 1.171,-0.068 1.147,-0.026 1.118,0.012 1.083,0.046 1.049,0.08 1.011,0.109 0.97,0.134 0.928,0.158 0.884,0.177 0.836,0.19 0.788,0.204 0.738,0.21 0.687,0.21 0.635,0.21 0.585,0.204 0.537,0.19 0.489,0.177 0.445,0.158 0.403,0.134 0.362,0.109 0.324,0.08 0.29,0.046 0.255,0.012 0.226,-0.026 0.202,-0.068 0.177,-0.109 0.158,-0.154 0.145,-0.202 0.132,-0.25 0.125,-0.299 0.125,-0.351 c 0,-0.052 0.007,-0.102 0.02,-0.149 0.013,-0.048 0.032,-0.093 0.057,-0.135 0.024,-0.041 0.053,-0.079 0.088,-0.113 0.034,-0.034 0.072,-0.064 0.113,-0.088 0.042,-0.024 0.086,-0.043 0.134,-0.057 0.048,-0.013 0.098,-0.02 0.15,-0.02 0.051,0 0.101,0.007 0.149,0.02 0.048,0.014 0.092,0.033 0.134,0.057 0.041,0.024 0.079,0.054 0.113,0.088 0.035,0.034 0.064,0.072 0.088,0.113 0.025,0.042 0.044,0.087 0.057,0.135 0.013,0.047 0.02,0.097 0.02,0.149 z"
         style="fill-rule:nonzero"
         id="path852" /><path
         d="m 1.178,-0.351 c 0,0.045 -0.006,0.089 -0.018,0.131 -0.012,0.041 -0.028,0.081 -0.049,0.117 -0.022,0.036 -0.047,0.07 -0.077,0.099 C 1.004,0.026 0.971,0.052 0.935,0.073 0.898,0.094 0.859,0.111 0.817,0.123 0.775,0.134 0.732,0.14 0.687,0.14 0.641,0.14 0.598,0.134 0.556,0.123 0.514,0.111 0.475,0.094 0.438,0.073 0.402,0.052 0.369,0.026 0.339,-0.004 0.309,-0.033 0.284,-0.067 0.262,-0.103 0.241,-0.139 0.225,-0.179 0.213,-0.22 0.201,-0.262 0.195,-0.306 0.195,-0.351 c 0,-0.045 0.006,-0.089 0.018,-0.131 0.012,-0.042 0.028,-0.081 0.049,-0.117 0.022,-0.037 0.047,-0.07 0.077,-0.099 0.03,-0.03 0.063,-0.056 0.099,-0.077 0.037,-0.021 0.076,-0.038 0.118,-0.05 0.042,-0.011 0.085,-0.017 0.131,-0.017 0.045,0 0.088,0.006 0.13,0.017 0.042,0.012 0.081,0.029 0.118,0.05 0.036,0.021 0.069,0.047 0.099,0.077 0.03,0.029 0.055,0.062 0.077,0.099 0.021,0.036 0.037,0.075 0.049,0.117 0.012,0.042 0.018,0.086 0.018,0.131 z"
         style="fill:#ffc83d;fill-rule:nonzero"
         id="path854" /><path
         d="m 0.546,-0.702 c 0.01,0 0.018,0.003 0.025,0.01 0.007,0.007 0.01,0.015 0.01,0.025 0,0.01 -0.003,0.018 -0.01,0.025 -0.007,0.007 -0.015,0.01 -0.025,0.01 -0.038,0 -0.071,0.007 -0.101,0.022 -0.03,0.014 -0.058,0.035 -0.083,0.061 -0.008,0.008 -0.016,0.012 -0.027,0.012 -0.009,0 -0.018,-0.003 -0.024,-0.01 C 0.304,-0.554 0.3,-0.562 0.3,-0.572 0.3,-0.58 0.303,-0.588 0.309,-0.595 0.323,-0.612 0.339,-0.627 0.357,-0.64 0.376,-0.654 0.395,-0.665 0.416,-0.674 0.437,-0.683 0.458,-0.69 0.48,-0.695 0.503,-0.7 0.524,-0.702 0.546,-0.702 Z m 0.281,0 c 0.021,0 0.043,0.002 0.065,0.007 0.023,0.005 0.044,0.012 0.065,0.021 0.02,0.009 0.04,0.02 0.058,0.033 0.019,0.014 0.035,0.029 0.049,0.046 0.006,0.007 0.009,0.015 0.009,0.023 0,0.01 -0.004,0.018 -0.01,0.025 -0.007,0.007 -0.016,0.01 -0.025,0.01 -0.01,0 -0.019,-0.004 -0.027,-0.012 C 0.986,-0.575 0.958,-0.596 0.928,-0.61 0.898,-0.625 0.864,-0.632 0.827,-0.632 c -0.01,0 -0.018,-0.003 -0.025,-0.01 -0.007,-0.007 -0.01,-0.016 -0.01,-0.025 0,-0.009 0.003,-0.018 0.01,-0.025 0.007,-0.007 0.015,-0.01 0.025,-0.01 z"
         style="fill:#d48c00;fill-rule:nonzero"
         id="path856" /><path
         d="m 0.476,-0.07 c 0,-0.013 0.005,-0.022 0.016,-0.03 0.013,-0.009 0.028,-0.018 0.044,-0.025 0.016,-0.007 0.032,-0.013 0.049,-0.018 0.016,-0.005 0.034,-0.008 0.051,-0.011 0.017,-0.002 0.034,-0.003 0.051,-0.003 0.016,0 0.033,0.001 0.05,0.003 0.017,0.003 0.035,0.006 0.051,0.011 0.017,0.005 0.033,0.011 0.049,0.018 0.016,0.007 0.031,0.016 0.044,0.025 0.011,0.008 0.016,0.017 0.016,0.03 0,0.009 -0.003,0.018 -0.01,0.025 -0.007,0.006 -0.015,0.01 -0.025,0.01 -0.004,0 -0.007,-10e-4 -0.01,-0.002 C 0.848,-0.038 0.845,-0.039 0.842,-0.041 0.817,-0.056 0.792,-0.067 0.768,-0.075 0.743,-0.083 0.716,-0.087 0.687,-0.087 c -0.015,0 -0.03,0.001 -0.043,0.003 -0.013,0.001 -0.026,0.004 -0.039,0.008 -0.012,0.004 -0.025,0.009 -0.037,0.015 -0.012,0.006 -0.025,0.012 -0.037,0.02 -0.003,0.002 -0.006,0.003 -0.01,0.004 -0.003,0.001 -0.006,0.002 -0.01,0.002 -0.01,0 -0.018,-0.004 -0.025,-0.01 -0.007,-0.007 -0.01,-0.016 -0.01,-0.025 z m 0.035,-0.492 c 0.014,0 0.028,0.003 0.041,0.007 0.014,0.004 0.026,0.01 0.037,0.017 0.011,0.008 0.021,0.017 0.03,0.028 0.009,0.01 0.016,0.022 0.022,0.035 0.001,0.002 0.002,0.005 0.003,0.008 0.001,0.003 0.002,0.007 0.003,0.01 0.001,0.004 0.002,0.007 0.002,0.01 0.001,0.003 0.001,0.006 0.001,0.008 0,0.002 0,0.006 -0.001,0.011 -0.001,0.005 -0.002,0.011 -0.003,0.017 -0.001,0.006 -0.003,0.012 -0.004,0.017 -0.001,0.006 -0.002,0.009 -0.003,0.01 -0.005,0.012 -0.013,0.023 -0.022,0.033 -0.009,0.01 -0.019,0.019 -0.03,0.027 -0.012,0.008 -0.024,0.014 -0.037,0.019 -0.013,0.004 -0.026,0.007 -0.039,0.007 -0.001,0 -0.002,-0.001 -0.005,-0.001 L 0.487,-0.305 C 0.476,-0.308 0.466,-0.312 0.456,-0.317 0.446,-0.322 0.436,-0.328 0.427,-0.334 0.418,-0.341 0.409,-0.348 0.401,-0.356 0.394,-0.365 0.387,-0.374 0.382,-0.383 0.381,-0.385 0.38,-0.388 0.379,-0.394 0.378,-0.399 0.376,-0.404 0.375,-0.41 0.375,-0.416 0.374,-0.422 0.373,-0.428 0.372,-0.433 0.372,-0.437 0.372,-0.439 c 0,-0.002 0,-0.005 0.001,-0.008 0,-0.003 0.001,-0.006 0.002,-0.01 C 0.376,-0.46 0.377,-0.464 0.378,-0.467 0.379,-0.47 0.38,-0.473 0.381,-0.475 0.387,-0.488 0.394,-0.5 0.403,-0.51 0.412,-0.521 0.422,-0.53 0.433,-0.538 0.444,-0.545 0.457,-0.551 0.47,-0.555 0.483,-0.559 0.497,-0.562 0.511,-0.562 Z m 0.351,0 c 0.014,0 0.027,0.003 0.041,0.007 0.013,0.004 0.026,0.01 0.037,0.017 0.011,0.008 0.021,0.017 0.03,0.028 0.009,0.01 0.016,0.022 0.022,0.035 0.001,0.002 0.002,0.005 0.003,0.008 0.001,0.003 0.002,0.007 0.003,0.01 C 0.999,-0.453 1,-0.45 1,-0.447 c 10e-4,0.003 10e-4,0.006 10e-4,0.008 0,0.002 0,0.006 -10e-4,0.011 -0.001,0.005 -0.002,0.011 -0.003,0.017 -0.001,0.006 -0.003,0.012 -0.004,0.017 -0.001,0.005 -0.002,0.009 -0.003,0.01 -0.006,0.012 -0.014,0.023 -0.022,0.033 -0.009,0.01 -0.02,0.019 -0.031,0.027 -0.011,0.008 -0.023,0.014 -0.036,0.019 -0.013,0.004 -0.026,0.007 -0.039,0.007 -0.001,0 -0.003,-0.001 -0.005,-0.001 L 0.837,-0.305 C 0.827,-0.308 0.817,-0.312 0.807,-0.317 0.797,-0.322 0.787,-0.328 0.778,-0.334 0.768,-0.341 0.76,-0.348 0.752,-0.356 0.745,-0.365 0.738,-0.374 0.733,-0.383 0.732,-0.385 0.731,-0.388 0.73,-0.394 0.729,-0.399 0.728,-0.404 0.727,-0.41 0.726,-0.416 0.725,-0.422 0.724,-0.428 0.723,-0.433 0.723,-0.437 0.723,-0.439 c 0,-0.002 0,-0.005 0.001,-0.008 0,-0.003 0.001,-0.006 0.002,-0.01 C 0.727,-0.46 0.728,-0.464 0.729,-0.467 0.73,-0.47 0.731,-0.473 0.732,-0.475 0.738,-0.488 0.745,-0.5 0.754,-0.51 0.763,-0.521 0.773,-0.53 0.784,-0.538 0.795,-0.545 0.807,-0.551 0.821,-0.555 0.834,-0.559 0.847,-0.562 0.862,-0.562 Z"
         style="fill-rule:nonzero"
         id="path858" /><path
         d="m 0.511,-0.316 c 0.018,0 0.035,-0.003 0.051,-0.009 0.015,-0.007 0.03,-0.015 0.042,-0.026 0.012,-0.011 0.023,-0.024 0.031,-0.039 0.008,-0.015 0.013,-0.031 0.015,-0.049 0.001,0.003 0.001,0.006 0.001,0.009 0,0.003 0,0.006 0,0.009 0,0.019 -0.003,0.037 -0.011,0.054 C 0.633,-0.35 0.623,-0.335 0.61,-0.322 0.598,-0.31 0.583,-0.299 0.566,-0.292 0.549,-0.285 0.53,-0.281 0.511,-0.281 0.492,-0.281 0.473,-0.284 0.456,-0.292 0.439,-0.299 0.424,-0.309 0.412,-0.322 0.399,-0.334 0.389,-0.349 0.382,-0.366 0.374,-0.384 0.371,-0.402 0.371,-0.421 c 0,-0.003 0,-0.006 0,-0.009 0,-0.003 0,-0.006 0.001,-0.009 0.002,0.018 0.007,0.034 0.015,0.049 0.008,0.015 0.019,0.028 0.031,0.039 0.013,0.011 0.027,0.02 0.043,0.026 0.016,0.006 0.033,0.009 0.05,0.009 z m -0.07,-0.175 c 0,-0.01 0.003,-0.018 0.01,-0.025 0.007,-0.007 0.015,-0.01 0.025,-0.01 0.01,0 0.018,0.003 0.025,0.01 0.007,0.007 0.01,0.015 0.01,0.025 0,0.009 -0.003,0.017 -0.01,0.024 -0.007,0.007 -0.015,0.01 -0.025,0.01 -0.009,0 -0.018,-0.003 -0.025,-0.01 -0.007,-0.007 -0.01,-0.015 -0.01,-0.024 z m 0.421,0.175 c 0.017,0 0.034,-0.003 0.05,-0.009 0.016,-0.006 0.03,-0.015 0.043,-0.026 0.012,-0.011 0.023,-0.024 0.031,-0.039 0.008,-0.015 0.013,-0.031 0.015,-0.049 0.001,0.003 0.001,0.006 0.001,0.009 0,0.003 0,0.006 0,0.009 0,0.019 -0.003,0.037 -0.011,0.055 -0.007,0.017 -0.017,0.032 -0.03,0.044 -0.012,0.013 -0.027,0.023 -0.044,0.03 -0.017,0.008 -0.036,0.011 -0.055,0.011 -0.02,0 -0.038,-0.003 -0.055,-0.011 C 0.79,-0.299 0.775,-0.309 0.763,-0.322 0.75,-0.334 0.74,-0.349 0.733,-0.366 0.725,-0.384 0.722,-0.402 0.722,-0.421 c 0,-0.003 0,-0.006 0,-0.009 0,-0.003 0,-0.006 0.001,-0.009 0.002,0.018 0.007,0.034 0.015,0.049 0.008,0.015 0.019,0.028 0.031,0.039 0.012,0.011 0.027,0.019 0.043,0.026 0.015,0.006 0.032,0.009 0.05,0.009 z m -0.07,-0.175 c 0,-0.01 0.003,-0.018 0.01,-0.025 0.007,-0.007 0.015,-0.01 0.025,-0.01 0.009,0 0.018,0.003 0.025,0.01 0.006,0.007 0.01,0.015 0.01,0.025 0,0.009 -0.004,0.017 -0.011,0.024 -0.007,0.007 -0.015,0.01 -0.024,0.01 -0.01,0 -0.018,-0.003 -0.025,-0.01 -0.007,-0.007 -0.01,-0.015 -0.01,-0.024 z"
         style="fill:#ffffff;fill-rule:nonzero"
         id="path860" /></g></g></svg>
