<?xml version="1.0" encoding="UTF-8" standalone="no"?>
<svg
   width="16.844999"
   height="14.205"
   viewBox="0 0 16.844999 14.205"
   version="1.1"
   xml:space="preserve"
   style="clip-rule:evenodd;fill-rule:evenodd;stroke-linejoin:round;stroke-miterlimit:2"
   id="svg20568"
   sodipodi:docname="emojis.svg"
   xmlns:inkscape="http://www.inkscape.org/namespaces/inkscape"
   xmlns:sodipodi="http://sodipodi.sourceforge.net/DTD/sodipodi-0.dtd"
   xmlns="http://www.w3.org/2000/svg"
   xmlns:svg="http://www.w3.org/2000/svg"><defs
     id="defs20572" /><sodipodi:namedview
     id="namedview20570"
     pagecolor="#505050"
     bordercolor="#eeeeee"
     borderopacity="1"
     inkscape:pageshadow="0"
     inkscape:pageopacity="0"
     inkscape:pagecheckerboard="0" /><g
     transform="matrix(0.24,0,0,0.24,-615.411,-405.3018)"
     id="g20566"><g
       transform="matrix(62.5,0,0,62.5,2556.4,1743.57)"
       id="g8656"><path
         d="m 1.121,-0.484 c 0.025,0.029 0.047,0.06 0.066,0.093 0.019,0.034 0.034,0.068 0.046,0.105 0.004,0.013 0.008,0.025 0.011,0.037 0.003,0.012 0.004,0.025 0.004,0.039 0,0.024 -0.005,0.047 -0.014,0.068 -0.009,0.021 -0.022,0.04 -0.038,0.056 -0.016,0.016 -0.035,0.028 -0.056,0.037 -0.022,0.009 -0.045,0.014 -0.069,0.014 0.001,0.006 0.001,0.011 0.001,0.017 0,0.012 -0.002,0.023 -0.007,0.034 C 1.061,0.027 1.055,0.036 1.047,0.044 1.039,0.052 1.03,0.059 1.019,0.063 1.008,0.068 0.997,0.07 0.985,0.07 0.961,0.07 0.94,0.062 0.923,0.044 L 0.817,-0.061 C 0.808,-0.07 0.801,-0.081 0.798,-0.092 0.794,-0.102 0.792,-0.115 0.792,-0.128 0.778,-0.138 0.764,-0.148 0.751,-0.16 0.738,-0.171 0.725,-0.183 0.713,-0.195 0.708,-0.194 0.704,-0.192 0.7,-0.19 0.695,-0.189 0.691,-0.187 0.687,-0.186 v 0.063 c 0,0.013 -0.004,0.026 -0.01,0.04 L 0.625,0.021 C 0.617,0.037 0.606,0.049 0.592,0.057 0.578,0.066 0.563,0.07 0.546,0.07 0.534,0.07 0.523,0.068 0.512,0.063 0.501,0.059 0.492,0.052 0.484,0.044 0.476,0.036 0.47,0.027 0.465,0.016 0.461,0.006 0.458,-0.006 0.458,-0.018 0.458,-0.027 0.46,-0.035 0.462,-0.043 0.465,-0.05 0.468,-0.058 0.473,-0.067 L 0.357,-0.009 C 0.344,-0.003 0.331,0 0.318,0 0.306,0 0.295,-0.002 0.284,-0.007 0.273,-0.011 0.264,-0.018 0.256,-0.026 0.248,-0.034 0.242,-0.043 0.237,-0.054 0.233,-0.064 0.23,-0.076 0.23,-0.088 0.23,-0.105 0.235,-0.12 0.243,-0.134 0.252,-0.148 0.264,-0.159 0.279,-0.166 L 0.371,-0.212 V -0.22 L 0.335,-0.204 0.307,-0.217 C 0.297,-0.221 0.287,-0.226 0.278,-0.232 0.268,-0.238 0.259,-0.244 0.251,-0.25 0.233,-0.263 0.216,-0.278 0.201,-0.293 0.185,-0.309 0.172,-0.327 0.161,-0.345 0.15,-0.363 0.141,-0.383 0.135,-0.404 0.128,-0.425 0.125,-0.447 0.125,-0.47 0.125,-0.495 0.129,-0.519 0.138,-0.542 0.147,-0.565 0.16,-0.586 0.177,-0.604 0.161,-0.612 0.149,-0.622 0.139,-0.637 0.13,-0.651 0.125,-0.667 0.125,-0.685 c 0,-0.012 0.002,-0.023 0.007,-0.034 0.004,-0.01 0.011,-0.019 0.019,-0.027 0.008,-0.008 0.017,-0.015 0.028,-0.019 0.01,-0.005 0.022,-0.007 0.034,-0.007 H 0.23 c 0.018,0 0.036,0.003 0.052,0.008 0.017,0.005 0.032,0.012 0.047,0.022 0.014,0.01 0.027,0.021 0.038,0.035 0.011,0.013 0.02,0.028 0.026,0.045 0.015,0.003 0.029,0.009 0.043,0.015 0.014,0.007 0.027,0.015 0.039,0.025 0.005,-0.004 0.011,-0.008 0.017,-0.012 0.006,-0.003 0.013,-0.006 0.019,-0.01 l 0.01,-0.02 C 0.538,-0.697 0.559,-0.727 0.583,-0.753 0.607,-0.779 0.634,-0.802 0.664,-0.82 0.694,-0.838 0.726,-0.853 0.76,-0.863 0.794,-0.872 0.83,-0.877 0.867,-0.877 h 0.17 c 0.011,0 0.022,0.001 0.032,0.005 0.011,0.003 0.02,0.008 0.029,0.014 0.009,0.006 0.017,0.014 0.023,0.022 0.007,0.009 0.012,0.018 0.016,0.029 0.014,0 0.028,0.002 0.041,0.008 0.014,0.005 0.025,0.012 0.035,0.021 0.01,0.009 0.017,0.02 0.023,0.033 0.006,0.013 0.009,0.026 0.009,0.041 0,0.006 0,0.012 -0.001,0.018 -0.007,0.041 -0.021,0.078 -0.042,0.113 -0.021,0.035 -0.048,0.064 -0.081,0.089 z"
         style="fill-rule:nonzero"
         id="path8638" /><path
         d="m 0.867,-0.807 h 0.17 c 0.01,0 0.018,0.003 0.025,0.01 0.007,0.006 0.011,0.014 0.011,0.024 0,0.002 0,0.004 -10e-4,0.005 -0.005,0.03 -0.015,0.058 -0.03,0.083 C 1.028,-0.66 1.01,-0.638 0.989,-0.62 0.967,-0.601 0.943,-0.587 0.916,-0.577 0.889,-0.567 0.86,-0.562 0.83,-0.562 H 0.549 l 0.035,-0.071 c 0.014,-0.027 0.03,-0.051 0.05,-0.072 0.02,-0.022 0.042,-0.04 0.067,-0.055 0.024,-0.015 0.05,-0.027 0.079,-0.035 0.028,-0.008 0.057,-0.012 0.087,-0.012 z"
         style="fill:#a6a6a6;fill-rule:nonzero"
         id="path8640" /><path
         d="m 1.178,-0.21 c 0,0.018 -0.005,0.035 -0.014,0.051 -0.009,0.016 -0.021,0.029 -0.037,0.038 L 0.777,-0.355 C 0.77,-0.34 0.76,-0.327 0.749,-0.316 0.737,-0.306 0.724,-0.297 0.71,-0.29 0.696,-0.283 0.68,-0.278 0.664,-0.275 0.648,-0.272 0.632,-0.271 0.616,-0.271 0.596,-0.271 0.578,-0.274 0.563,-0.28 0.548,-0.286 0.534,-0.294 0.521,-0.304 0.508,-0.314 0.496,-0.326 0.484,-0.338 0.472,-0.35 0.46,-0.363 0.447,-0.375 0.443,-0.39 0.441,-0.406 0.441,-0.421 c 0,-0.024 0.004,-0.047 0.014,-0.069 0.009,-0.021 0.021,-0.039 0.037,-0.055 0.016,-0.016 0.035,-0.028 0.056,-0.038 0.021,-0.009 0.044,-0.014 0.068,-0.014 0.03,0 0.058,0.007 0.083,0.021 0.026,0.014 0.048,0.034 0.064,0.058 0.005,-0.003 0.012,-0.007 0.019,-0.013 0.008,-0.005 0.016,-0.009 0.024,-0.014 0.009,-0.004 0.017,-0.008 0.025,-0.012 0.008,-0.003 0.016,-0.005 0.022,-0.005 0.025,0 0.05,0.006 0.073,0.018 0.01,0.004 0.02,0.009 0.03,0.015 0.009,0.005 0.018,0.011 0.028,0.017 0,0.006 0,0.012 0.001,0.016 0.001,0.005 0.003,0.009 0.005,0.013 0.003,0.003 0.005,0.007 0.009,0.01 0.003,0.003 0.007,0.007 0.011,0.011 0.008,0.006 0.015,0.011 0.022,0.014 0.007,0.004 0.015,0.006 0.024,0.006 h 0.003 c 0.001,0 0.003,-0.001 0.004,-0.001 0.011,0.012 0.021,0.024 0.031,0.036 0.009,0.013 0.018,0.026 0.026,0.04 -0.003,0.008 -0.005,0.016 -0.005,0.024 0,0.007 0.001,0.014 0.003,0.02 0.003,0.005 0.005,0.011 0.008,0.017 l 0.008,0.017 c 0.002,0.004 0.005,0.008 0.007,0.011 0.003,0.003 0.006,0.006 0.01,0.008 0.004,0.002 0.009,0.004 0.015,0.005 0.003,0.009 0.005,0.018 0.008,0.027 0.002,0.009 0.004,0.018 0.004,0.028 z"
         style="fill:#ffc83d;fill-rule:nonzero"
         id="path8642" /><path
         d="M 0.934,-0.314 0.87,-0.324 0.86,-0.388 0.984,-0.512 c 0.015,0.01 0.029,0.021 0.042,0.032 0.013,0.011 0.026,0.024 0.037,0.037 z M 1.075,-0.173 1.009,-0.183 1,-0.248 1.12,-0.367 c 0.009,0.016 0.018,0.033 0.026,0.05 0.007,0.017 0.014,0.034 0.02,0.052 z"
         style="fill:#383838;fill-rule:nonzero"
         id="path8644" /><path
         d="m 0.86,-0.388 v 0.058 l 0.074,0.016 0.193,0.193 C 1.11,-0.111 1.092,-0.105 1.073,-0.105 1.062,-0.105 1.052,-0.106 1.042,-0.107 1.032,-0.108 1.022,-0.109 1.012,-0.11 1.009,-0.116 1.007,-0.122 1.004,-0.128 1.001,-0.134 0.997,-0.14 0.993,-0.144 0.989,-0.149 0.985,-0.153 0.979,-0.156 0.973,-0.159 0.967,-0.16 0.96,-0.16 0.95,-0.16 0.94,-0.158 0.929,-0.155 0.918,-0.151 0.907,-0.148 0.898,-0.146 0.87,-0.16 0.843,-0.177 0.817,-0.197 0.815,-0.212 0.813,-0.225 0.81,-0.234 0.808,-0.243 0.804,-0.249 0.799,-0.254 0.793,-0.259 0.786,-0.262 0.777,-0.264 0.768,-0.266 0.756,-0.267 0.741,-0.269 L 0.729,-0.283 c -0.016,0.012 -0.034,0.022 -0.053,0.028 -0.019,0.006 -0.039,0.009 -0.06,0.009 -0.02,0 -0.039,-0.003 -0.057,-0.009 C 0.541,-0.261 0.524,-0.27 0.51,-0.282 0.495,-0.293 0.482,-0.307 0.471,-0.323 0.46,-0.339 0.452,-0.356 0.447,-0.375 0.441,-0.366 0.433,-0.357 0.425,-0.347 0.416,-0.338 0.407,-0.329 0.397,-0.321 0.388,-0.313 0.378,-0.305 0.367,-0.298 0.356,-0.291 0.346,-0.285 0.335,-0.281 0.317,-0.289 0.3,-0.299 0.283,-0.313 0.266,-0.326 0.251,-0.34 0.238,-0.357 0.225,-0.373 0.215,-0.391 0.207,-0.41 0.199,-0.43 0.195,-0.45 0.195,-0.47 0.195,-0.486 0.198,-0.5 0.203,-0.514 0.208,-0.528 0.216,-0.541 0.225,-0.552 0.234,-0.563 0.245,-0.573 0.258,-0.58 0.271,-0.588 0.285,-0.593 0.3,-0.595 0.3,-0.605 0.299,-0.614 0.295,-0.623 0.291,-0.631 0.286,-0.639 0.28,-0.646 0.274,-0.652 0.267,-0.658 0.258,-0.661 0.25,-0.665 0.241,-0.667 0.23,-0.667 H 0.213 C 0.208,-0.667 0.204,-0.669 0.2,-0.672 0.197,-0.676 0.195,-0.68 0.195,-0.685 0.195,-0.689 0.197,-0.694 0.2,-0.697 0.204,-0.7 0.208,-0.702 0.213,-0.702 H 0.23 c 0.015,0 0.029,0.003 0.041,0.008 0.013,0.006 0.024,0.013 0.034,0.023 0.009,0.009 0.017,0.021 0.022,0.034 0.006,0.012 0.008,0.026 0.008,0.04 h 0.016 c 0.017,0 0.034,0.004 0.049,0.01 0.015,0.007 0.028,0.016 0.04,0.028 0.011,0.011 0.02,0.025 0.026,0.04 0.007,0.015 0.01,0.032 0.01,0.049 0,0.012 -0.001,0.025 -0.004,0.037 0.021,0.016 0.044,0.027 0.068,0.035 0.025,0.008 0.05,0.012 0.076,0.012 0.033,0 0.064,-0.006 0.093,-0.018 0.03,-0.012 0.056,-0.029 0.079,-0.053 L 0.787,-0.461 Z"
         style="fill:#eba300;fill-rule:nonzero"
         id="path8646" /><path
         d="M 0.934,-0.314 C 0.915,-0.294 0.895,-0.274 0.875,-0.255 0.856,-0.236 0.836,-0.216 0.817,-0.197 0.803,-0.207 0.79,-0.218 0.777,-0.23 0.764,-0.243 0.752,-0.255 0.741,-0.269 L 0.86,-0.388 Z M 1.075,-0.173 1.012,-0.11 C 0.992,-0.113 0.972,-0.118 0.954,-0.124 0.935,-0.13 0.916,-0.137 0.898,-0.146 L 1,-0.248 Z"
         style="fill:#1f1f1f;fill-rule:nonzero"
         id="path8648" /><path
         d="M 0.969,-0.737 H 1.14 c 0.009,0 0.017,0.003 0.025,0.01 0.007,0.006 0.01,0.015 0.01,0.024 0,0.003 0,0.004 0,0.006 -0.006,0.03 -0.016,0.057 -0.03,0.082 C 1.13,-0.59 1.112,-0.568 1.091,-0.55 1.07,-0.531 1.046,-0.517 1.019,-0.507 0.992,-0.496 0.963,-0.491 0.932,-0.491 H 0.651 l 0.036,-0.072 c 0.013,-0.026 0.03,-0.05 0.05,-0.072 0.02,-0.022 0.042,-0.04 0.066,-0.055 0.025,-0.015 0.051,-0.027 0.079,-0.035 0.028,-0.008 0.057,-0.012 0.087,-0.012 z"
         style="fill:#e5e5e5;fill-rule:nonzero"
         id="path8650" /><path
         d="M 0.318,-0.07 C 0.313,-0.07 0.309,-0.072 0.305,-0.075 0.302,-0.079 0.3,-0.083 0.3,-0.088 0.3,-0.095 0.304,-0.1 0.31,-0.104 l 0.131,-0.065 v -0.094 c 0,-0.005 0.002,-0.01 0.005,-0.013 l 0.07,-0.07 c 0.003,-0.003 0.007,-0.005 0.012,-0.005 0.005,0 0.009,0.002 0.013,0.005 0.003,0.004 0.005,0.008 0.005,0.013 0,0.004 -0.002,0.008 -0.005,0.012 l -0.065,0.065 v 0.098 c 0,0.003 -0.001,0.006 -0.003,0.009 -0.001,0.003 -0.004,0.005 -0.007,0.007 l -0.14,0.07 C 0.323,-0.071 0.321,-0.07 0.318,-0.07 Z M 0.546,0 C 0.541,0 0.537,-0.002 0.534,-0.005 0.53,-0.009 0.528,-0.013 0.528,-0.018 0.528,-0.02 0.529,-0.023 0.532,-0.029 0.534,-0.034 0.537,-0.04 0.54,-0.048 0.544,-0.055 0.548,-0.063 0.552,-0.071 l 0.029,-0.056 v -0.206 c 0,-0.005 0.002,-0.01 0.005,-0.013 0.004,-0.003 0.008,-0.005 0.013,-0.005 0.005,0 0.009,0.002 0.012,0.005 0.004,0.003 0.005,0.008 0.005,0.013 v 0.21 c 0,0.002 -0.001,0.006 -0.003,0.011 C 0.611,-0.106 0.608,-0.1 0.604,-0.092 0.6,-0.085 0.596,-0.077 0.592,-0.068 0.588,-0.059 0.583,-0.051 0.58,-0.043 0.576,-0.036 0.572,-0.029 0.569,-0.023 0.566,-0.017 0.563,-0.012 0.562,-0.01 0.559,-0.003 0.553,0 0.546,0 Z M 0.985,0 C 0.98,0 0.976,-0.002 0.972,-0.005 L 0.867,-0.11 C 0.864,-0.114 0.862,-0.118 0.862,-0.123 v -0.133 l -0.03,-0.03 C 0.828,-0.29 0.827,-0.294 0.827,-0.298 c 0,-0.005 0.001,-0.009 0.005,-0.013 0.004,-0.003 0.008,-0.005 0.012,-0.005 0.005,0 0.01,0.002 0.013,0.005 l 0.035,0.035 c 0.003,0.003 0.005,0.008 0.005,0.013 v 0.133 l 0.1,0.1 C 1,-0.027 1.002,-0.023 1.002,-0.018 1.002,-0.013 1,-0.009 0.997,-0.005 0.993,-0.002 0.989,0 0.985,0 Z"
         style="fill:#757575;fill-rule:nonzero"
         id="path8652" /><path
         d="m 0.3,-0.526 c 0.01,0 0.018,0.003 0.025,0.01 0.007,0.007 0.01,0.015 0.01,0.025 v 0.034 c 0,0.01 -0.003,0.019 -0.01,0.025 C 0.318,-0.425 0.31,-0.421 0.3,-0.421 0.291,-0.421 0.283,-0.425 0.276,-0.432 0.269,-0.439 0.265,-0.447 0.265,-0.457 v -0.034 c 0,-0.01 0.004,-0.018 0.011,-0.025 0.007,-0.007 0.015,-0.01 0.024,-0.01 z"
         style="fill-rule:nonzero"
         id="path8654" /></g></g></svg>
