<?xml version="1.0" encoding="UTF-8" standalone="no"?>
<svg
   width="16.844999"
   height="15.255"
   viewBox="0 0 16.844999 15.255"
   version="1.1"
   xml:space="preserve"
   style="clip-rule:evenodd;fill-rule:evenodd;stroke-linejoin:round;stroke-miterlimit:2"
   id="svg20568"
   sodipodi:docname="emojis.svg"
   xmlns:inkscape="http://www.inkscape.org/namespaces/inkscape"
   xmlns:sodipodi="http://sodipodi.sourceforge.net/DTD/sodipodi-0.dtd"
   xmlns="http://www.w3.org/2000/svg"
   xmlns:svg="http://www.w3.org/2000/svg"><defs
     id="defs20572" /><sodipodi:namedview
     id="namedview20570"
     pagecolor="#505050"
     bordercolor="#eeeeee"
     borderopacity="1"
     inkscape:pageshadow="0"
     inkscape:pageopacity="0"
     inkscape:pagecheckerboard="0" /><g
     transform="matrix(0.24,0,0,0.24,-656.6022,-405.8268)"
     id="g20566"><g
       transform="matrix(62.5,0,0,62.5,2728.03,1743.57)"
       id="g8684"><path
         d="M 0.879,0.175 C 0.866,0.175 0.853,0.172 0.841,0.167 0.83,0.161 0.819,0.153 0.811,0.143 L 0.722,0.031 V 0.083 C 0.722,0.095 0.719,0.107 0.715,0.118 0.711,0.129 0.705,0.139 0.697,0.147 0.689,0.156 0.68,0.163 0.669,0.168 0.658,0.173 0.646,0.175 0.634,0.175 0.622,0.175 0.61,0.173 0.6,0.168 0.589,0.164 0.58,0.158 0.572,0.15 0.564,0.142 0.557,0.132 0.553,0.122 0.548,0.111 0.546,0.099 0.546,0.087 V 0.031 L 0.457,0.143 C 0.448,0.153 0.438,0.161 0.426,0.167 0.415,0.172 0.402,0.175 0.388,0.175 0.377,0.175 0.366,0.173 0.355,0.169 0.345,0.164 0.335,0.158 0.327,0.15 0.319,0.143 0.313,0.134 0.308,0.123 0.303,0.113 0.301,0.102 0.301,0.09 0.301,0.068 0.308,0.048 0.322,0.03 l 0.119,-0.149 v -0.03 C 0.428,-0.158 0.417,-0.168 0.406,-0.179 0.395,-0.19 0.385,-0.202 0.377,-0.215 L 0.354,-0.204 0.325,-0.217 C 0.312,-0.222 0.3,-0.229 0.288,-0.236 0.276,-0.243 0.265,-0.251 0.254,-0.259 0.236,-0.273 0.218,-0.289 0.202,-0.305 0.187,-0.322 0.173,-0.34 0.161,-0.36 0.15,-0.379 0.141,-0.4 0.135,-0.422 0.128,-0.444 0.125,-0.467 0.125,-0.491 c 0,-0.018 0.002,-0.035 0.007,-0.052 0.004,-0.016 0.01,-0.032 0.018,-0.048 0.008,-0.015 0.018,-0.029 0.03,-0.042 0.011,-0.013 0.025,-0.024 0.039,-0.034 -0.012,0 -0.025,-0.002 -0.036,-0.006 C 0.172,-0.678 0.162,-0.684 0.153,-0.691 0.144,-0.699 0.138,-0.708 0.133,-0.719 0.128,-0.73 0.125,-0.742 0.125,-0.755 c 0,-0.012 0.002,-0.023 0.007,-0.034 0.004,-0.01 0.011,-0.02 0.019,-0.028 0.008,-0.008 0.017,-0.014 0.028,-0.018 0.01,-0.005 0.022,-0.007 0.034,-0.007 H 0.23 c 0.024,0 0.046,0.003 0.067,0.011 0.021,0.007 0.041,0.017 0.059,0.03 0.017,0.014 0.033,0.029 0.046,0.048 0.013,0.018 0.023,0.038 0.03,0.06 0.025,0.008 0.049,0.021 0.07,0.037 0.021,0.017 0.038,0.037 0.051,0.061 0.009,-0.001 0.019,-0.002 0.028,-0.002 0.022,0 0.043,0.003 0.064,0.009 0.021,0.005 0.041,0.013 0.059,0.024 0.019,-0.011 0.038,-0.019 0.059,-0.024 0.021,-0.006 0.042,-0.009 0.064,-0.009 h 0.351 c 0.01,0 0.019,0.002 0.027,0.006 0.009,0.004 0.016,0.009 0.022,0.015 0.007,0.006 0.012,0.014 0.015,0.022 0.004,0.009 0.006,0.018 0.006,0.028 0,0.008 -10e-4,0.016 -0.004,0.023 -0.003,0.008 -0.007,0.015 -0.012,0.021 -0.01,0.012 -0.02,0.023 -0.03,0.034 -0.011,0.01 -0.022,0.021 -0.034,0.031 0.004,0.01 0.006,0.021 0.008,0.032 0.001,0.011 0.002,0.023 0.002,0.034 0,0.035 -0.007,0.068 -0.022,0.101 0.007,0.007 0.013,0.016 0.016,0.026 0.004,0.01 0.006,0.02 0.006,0.031 0,0.017 -0.005,0.033 -0.015,0.048 -0.009,0.015 -0.022,0.026 -0.038,0.033 -10e-4,0.011 -0.005,0.021 -0.01,0.03 -0.005,0.01 -0.011,0.018 -0.019,0.025 -0.008,0.007 -0.017,0.012 -0.027,0.016 -0.01,0.004 -0.021,0.006 -0.031,0.006 -0.013,0 -0.026,-0.003 -0.039,-0.009 L 0.876,-0.105 H 0.866 L 0.852,-0.088 0.945,0.029 C 0.952,0.038 0.957,0.047 0.961,0.057 0.965,0.067 0.967,0.078 0.967,0.088 0.967,0.1 0.965,0.112 0.96,0.122 0.955,0.133 0.949,0.142 0.941,0.15 0.933,0.158 0.924,0.164 0.913,0.168 0.903,0.173 0.891,0.175 0.879,0.175 Z"
         style="fill-rule:nonzero"
         id="path8672" /><path
         d="m 1.09,-0.21 c 0.005,0 0.009,0.001 0.012,0.005 0.004,0.003 0.005,0.007 0.005,0.012 0,0.004 -10e-4,0.008 -0.005,0.012 -0.003,0.003 -0.007,0.005 -0.012,0.005 H 0.972 l 0.073,0.037 c 0.007,0.004 0.01,0.009 0.01,0.016 0,0.005 -0.002,0.009 -0.005,0.012 -0.003,0.004 -0.008,0.006 -0.012,0.006 -0.002,0 -0.006,-0.002 -0.013,-0.005 C 1.018,-0.113 1.009,-0.117 1,-0.122 0.99,-0.127 0.979,-0.132 0.968,-0.137 0.957,-0.143 0.946,-0.149 0.936,-0.154 0.926,-0.159 0.917,-0.164 0.909,-0.168 0.901,-0.172 0.896,-0.174 0.893,-0.176 H 0.827 C 0.803,-0.176 0.78,-0.18 0.759,-0.189 0.737,-0.199 0.719,-0.211 0.703,-0.227 0.687,-0.243 0.674,-0.262 0.665,-0.283 0.656,-0.304 0.651,-0.327 0.651,-0.351 c 0,-0.006 0.001,-0.013 0.003,-0.021 0.001,-0.007 0.003,-0.015 0.005,-0.024 0.003,-0.008 0.005,-0.015 0.008,-0.023 0.003,-0.007 0.005,-0.014 0.008,-0.02 h 0.408 c 0.008,0.013 0.014,0.027 0.018,0.042 0.004,0.015 0.006,0.03 0.006,0.046 0,0.028 -0.006,0.054 -0.018,0.079 -0.012,0.024 -0.029,0.045 -0.051,0.062 z"
         style="fill:#73aa24;fill-rule:nonzero"
         id="path8674" /><path
         d="m 0.651,-0.351 c 0,-0.024 0.005,-0.047 0.014,-0.068 0.009,-0.022 0.022,-0.04 0.038,-0.056 0.016,-0.016 0.034,-0.028 0.056,-0.037 0.021,-0.01 0.044,-0.014 0.068,-0.014 h 0.351 c -0.022,0.026 -0.047,0.05 -0.075,0.072 -0.028,0.022 -0.058,0.04 -0.09,0.055 -0.032,0.015 -0.065,0.027 -0.1,0.035 -0.034,0.009 -0.069,0.013 -0.103,0.013 z"
         style="fill:#e4f577;fill-rule:nonzero"
         id="path8676" /><path
         d="m 0.897,-0.351 c 0.01,0 0.018,0.003 0.025,0.01 0.007,0.007 0.01,0.016 0.01,0.026 v 0.005 c 0,0.003 0,0.005 -0.001,0.007 0,0.002 -0.001,0.004 -0.003,0.007 L 0.762,-0.088 0.893,0.077 C 0.896,0.08 0.897,0.084 0.897,0.088 0.897,0.093 0.895,0.097 0.892,0.1 0.889,0.103 0.885,0.105 0.879,0.105 0.874,0.105 0.869,0.103 0.866,0.099 L 0.723,-0.08 C 0.722,-0.082 0.722,-0.085 0.722,-0.088 c 0,-0.002 0,-0.005 0.001,-0.008 l 0.134,-0.17 -0.175,0.059 C 0.68,-0.206 0.678,-0.205 0.676,-0.204 l -0.017,0.01 C 0.656,-0.192 0.653,-0.191 0.651,-0.19 V 0.087 C 0.651,0.092 0.65,0.096 0.646,0.1 0.643,0.103 0.639,0.105 0.634,0.105 0.629,0.105 0.625,0.103 0.621,0.1 0.618,0.096 0.616,0.092 0.616,0.087 v -0.266 c -0.011,0.002 -0.023,0.003 -0.035,0.003 -0.012,0 -0.024,-0.001 -0.035,-0.003 0,0.004 0,0.011 0,0.021 0.001,0.01 0.001,0.021 0.001,0.033 0,0.011 0,0.021 -0.001,0.031 -0.001,0.009 -0.002,0.015 -0.004,0.017 L 0.402,0.099 C 0.399,0.103 0.394,0.105 0.388,0.105 0.383,0.105 0.379,0.103 0.376,0.1 0.372,0.097 0.371,0.093 0.371,0.088 0.371,0.084 0.372,0.08 0.375,0.077 L 0.511,-0.094 V -0.19 C 0.498,-0.195 0.486,-0.202 0.475,-0.211 0.464,-0.219 0.454,-0.229 0.445,-0.24 0.437,-0.25 0.429,-0.262 0.423,-0.275 0.417,-0.288 0.413,-0.301 0.41,-0.315 0.401,-0.308 0.392,-0.302 0.382,-0.296 0.373,-0.291 0.363,-0.285 0.353,-0.281 0.333,-0.29 0.313,-0.302 0.294,-0.316 0.275,-0.33 0.258,-0.347 0.244,-0.365 0.229,-0.383 0.217,-0.403 0.208,-0.425 0.2,-0.446 0.195,-0.468 0.195,-0.491 c 0,-0.02 0.004,-0.038 0.011,-0.055 0.008,-0.017 0.018,-0.032 0.03,-0.045 0.013,-0.013 0.028,-0.023 0.045,-0.03 0.017,-0.007 0.035,-0.011 0.054,-0.011 0,-0.014 -0.002,-0.028 -0.008,-0.041 C 0.322,-0.686 0.314,-0.697 0.305,-0.706 0.295,-0.716 0.284,-0.723 0.271,-0.729 0.259,-0.735 0.245,-0.737 0.23,-0.737 H 0.213 C 0.208,-0.737 0.204,-0.739 0.2,-0.742 0.197,-0.746 0.195,-0.75 0.195,-0.755 c 0,-0.004 0.002,-0.008 0.006,-0.012 0.003,-0.003 0.007,-0.005 0.012,-0.005 H 0.23 c 0.02,0 0.038,0.004 0.055,0.011 0.017,0.007 0.032,0.017 0.045,0.03 0.012,0.013 0.022,0.028 0.03,0.045 0.007,0.017 0.011,0.035 0.011,0.054 0.017,0 0.034,0.003 0.049,0.009 0.016,0.006 0.03,0.015 0.043,0.025 0.012,0.011 0.023,0.024 0.031,0.039 0.008,0.014 0.013,0.031 0.016,0.048 0.011,-0.005 0.023,-0.009 0.035,-0.012 0.012,-0.002 0.024,-0.003 0.036,-0.003 0.024,0 0.047,0.004 0.068,0.013 0.021,0.009 0.04,0.022 0.056,0.038 0.016,0.016 0.029,0.034 0.038,0.056 0.009,0.021 0.014,0.044 0.014,0.068 0,0.008 -0.001,0.016 -0.002,0.024 -0.001,0.008 -0.003,0.015 -0.005,0.023 0.004,-0.002 0.01,-0.004 0.018,-0.006 l 0.058,-0.02 c 0.011,-0.004 0.022,-0.007 0.031,-0.011 0.01,-0.003 0.018,-0.005 0.025,-0.007 0.007,-0.002 0.012,-0.003 0.015,-0.003 z"
         style="fill:#bad80a;fill-rule:nonzero"
         id="path8678" /><path
         d="m 0.669,-0.351 c 0.005,0 0.009,0.002 0.012,0.005 0.004,0.003 0.006,0.008 0.006,0.013 0,0.004 -0.002,0.009 -0.006,0.012 -0.003,0.003 -0.007,0.005 -0.012,0.005 -0.005,0 -0.009,-0.002 -0.013,-0.005 -0.003,-0.003 -0.005,-0.008 -0.005,-0.012 0,-0.005 0.002,-0.01 0.005,-0.013 0.004,-0.003 0.008,-0.005 0.013,-0.005 z m -0.07,0.07 c 0.005,0 0.009,0.002 0.012,0.005 0.004,0.004 0.005,0.008 0.005,0.013 0,0.005 -0.001,0.009 -0.005,0.012 -0.003,0.004 -0.007,0.005 -0.012,0.005 -0.005,0 -0.009,-0.001 -0.013,-0.005 -0.003,-0.003 -0.005,-0.007 -0.005,-0.012 0,-0.005 0.002,-0.009 0.005,-0.013 0.004,-0.003 0.008,-0.005 0.013,-0.005 z m 0.07,0 c 0.005,0 0.009,0.002 0.012,0.005 0.004,0.004 0.006,0.008 0.006,0.013 0,0.005 -0.002,0.009 -0.006,0.012 -0.003,0.004 -0.007,0.005 -0.012,0.005 -0.005,0 -0.009,-0.001 -0.013,-0.005 -0.003,-0.003 -0.005,-0.007 -0.005,-0.012 0,-0.005 0.002,-0.009 0.005,-0.013 0.004,-0.003 0.008,-0.005 0.013,-0.005 z"
         style="fill:#73aa24;fill-rule:nonzero"
         id="path8680" /><path
         d="m 0.3,-0.544 c 0.01,0 0.018,0.003 0.025,0.01 0.007,0.007 0.01,0.015 0.01,0.025 v 0.035 c 0,0.01 -0.003,0.018 -0.01,0.025 -0.007,0.007 -0.015,0.01 -0.025,0.01 -0.009,0 -0.017,-0.003 -0.024,-0.01 C 0.269,-0.456 0.265,-0.465 0.265,-0.474 v -0.035 c 0,-0.009 0.004,-0.017 0.011,-0.024 C 0.283,-0.54 0.291,-0.544 0.3,-0.544 Z"
         style="fill-rule:nonzero"
         id="path8682" /></g></g></svg>
