<?xml version="1.0" encoding="UTF-8" standalone="no"?>
<svg
   width="15.795"
   height="15.78"
   viewBox="0 0 15.795 15.78"
   version="1.1"
   xml:space="preserve"
   style="clip-rule:evenodd;fill-rule:evenodd;stroke-linejoin:round;stroke-miterlimit:2"
   id="svg20568"
   sodipodi:docname="emojis.svg"
   xmlns:inkscape="http://www.inkscape.org/namespaces/inkscape"
   xmlns:sodipodi="http://sodipodi.sourceforge.net/DTD/sodipodi-0.dtd"
   xmlns="http://www.w3.org/2000/svg"
   xmlns:svg="http://www.w3.org/2000/svg"><defs
     id="defs20572" /><sodipodi:namedview
     id="namedview20570"
     pagecolor="#505050"
     bordercolor="#eeeeee"
     borderopacity="1"
     inkscape:pageshadow="0"
     inkscape:pageopacity="0"
     inkscape:pagecheckerboard="0" /><g
     transform="matrix(0.24,0,0,0.24,-677.199,-405.3018)"
     id="g20566"><g
       transform="matrix(62.5,0,0,62.5,2813.85,1743.57)"
       id="g8698"><path
         d="M 1.002,0.175 C 0.988,0.175 0.975,0.173 0.962,0.167 0.949,0.161 0.938,0.154 0.928,0.145 0.918,0.135 0.911,0.124 0.905,0.111 0.9,0.098 0.897,0.085 0.897,0.07 V 0.03 C 0.885,0.053 0.87,0.073 0.852,0.091 0.834,0.109 0.815,0.124 0.794,0.136 0.773,0.149 0.75,0.159 0.726,0.165 0.702,0.172 0.677,0.175 0.651,0.175 0.626,0.175 0.601,0.172 0.577,0.165 0.553,0.159 0.53,0.149 0.509,0.136 0.488,0.124 0.468,0.109 0.451,0.091 0.433,0.073 0.418,0.053 0.406,0.03 V 0.07 C 0.406,0.085 0.403,0.098 0.397,0.111 0.392,0.124 0.384,0.135 0.375,0.145 0.365,0.154 0.354,0.161 0.341,0.167 0.328,0.173 0.315,0.175 0.3,0.175 H 0.23 V -0.006 C 0.221,-0.003 0.212,-0.001 0.202,0 0.193,0 0.183,0.001 0.174,0.001 L 0.125,0 v -0.281 c 0,-0.016 0.004,-0.032 0.013,-0.046 0.009,-0.014 0.02,-0.025 0.035,-0.032 L 0.287,-0.416 0.221,-0.482 C 0.216,-0.486 0.212,-0.492 0.208,-0.498 0.205,-0.504 0.202,-0.51 0.2,-0.516 L 0.143,-0.688 C 0.15,-0.69 0.158,-0.693 0.166,-0.696 0.174,-0.7 0.183,-0.703 0.192,-0.706 0.2,-0.708 0.209,-0.711 0.218,-0.713 c 0.008,-0.002 0.016,-0.003 0.024,-0.003 0.02,0 0.038,0.005 0.055,0.015 0.016,0.01 0.029,0.024 0.038,0.042 v -0.218 h 0.071 c 0.014,0 0.028,0.002 0.041,0.008 0.012,0.005 0.024,0.013 0.033,0.023 0.01,0.009 0.017,0.02 0.023,0.033 0.005,0.013 0.008,0.026 0.008,0.041 V -0.76 C 0.52,-0.771 0.53,-0.779 0.54,-0.785 0.55,-0.792 0.56,-0.797 0.571,-0.8 0.582,-0.803 0.593,-0.805 0.604,-0.806 0.615,-0.807 0.627,-0.808 0.639,-0.808 l 0.048,0.001 c 0.02,0 0.039,0.004 0.057,0.012 0.018,0.008 0.034,0.02 0.048,0.035 v -0.012 c 0,-0.015 0.003,-0.028 0.008,-0.041 0.006,-0.013 0.013,-0.024 0.023,-0.033 0.009,-0.01 0.02,-0.018 0.033,-0.023 0.013,-0.006 0.027,-0.008 0.041,-0.008 h 0.07 v 0.218 c 0.01,-0.018 0.023,-0.032 0.039,-0.042 0.017,-0.01 0.035,-0.015 0.055,-0.015 0.007,0 0.016,0.001 0.024,0.003 0.009,0.002 0.018,0.005 0.026,0.007 0.009,0.003 0.018,0.006 0.026,0.01 0.008,0.003 0.016,0.006 0.024,0.008 L 1.103,-0.516 C 1.101,-0.51 1.098,-0.504 1.094,-0.498 1.091,-0.492 1.087,-0.486 1.082,-0.482 l -0.066,0.066 0.113,0.057 c 0.015,0.007 0.027,0.018 0.036,0.032 0.008,0.014 0.013,0.03 0.013,0.046 V 0 H 1.107 C 1.102,0 1.096,-0.001 1.09,-0.002 1.084,-0.003 1.078,-0.004 1.073,-0.006 v 0.181 z"
         style="fill-rule:nonzero"
         id="path8686" /><path
         d="m 0.546,-0.667 c 0,-0.01 0.002,-0.019 0.006,-0.027 C 0.555,-0.703 0.56,-0.71 0.567,-0.717 0.573,-0.723 0.58,-0.728 0.589,-0.732 0.597,-0.735 0.606,-0.737 0.616,-0.737 v 0.175 h -0.07 z m 0.141,-0.07 c 0.009,0 0.018,0.002 0.027,0.005 0.008,0.004 0.016,0.009 0.022,0.015 0.006,0.007 0.011,0.014 0.015,0.023 0.004,0.008 0.006,0.017 0.006,0.027 v 0.105 h -0.07 z"
         style="fill:#a0aeb2;fill-rule:nonzero"
         id="path8688" /><path
         d="m 0.195,-0.07 v -0.211 c 0,-0.007 0.004,-0.012 0.01,-0.015 0.003,-0.002 0.01,-0.005 0.02,-0.01 L 0.3,-0.345 c 0.015,-0.007 0.028,-0.014 0.041,-0.02 0.012,-0.006 0.023,-0.011 0.032,-0.015 0.008,-0.004 0.014,-0.006 0.015,-0.006 h 0.175 v 0.035 H 0.393 L 0.23,-0.27 v 0.165 c 0,0.009 -0.003,0.017 -0.01,0.024 -0.007,0.007 -0.015,0.011 -0.025,0.011 z m 0.912,0 C 1.098,-0.07 1.09,-0.074 1.083,-0.081 1.076,-0.088 1.073,-0.096 1.073,-0.105 V -0.27 L 0.911,-0.351 H 0.739 v -0.035 h 0.176 c 0.001,0 0.006,0.002 0.015,0.006 0.009,0.004 0.02,0.009 0.032,0.015 0.013,0.006 0.026,0.013 0.041,0.02 0.014,0.007 0.028,0.014 0.041,0.021 0.013,0.007 0.024,0.013 0.034,0.018 0.01,0.005 0.017,0.008 0.02,0.01 0.006,0.003 0.009,0.008 0.009,0.015 z M 0.3,0.105 v -0.263 c 0,-0.005 0.002,-0.009 0.006,-0.012 l 0.14,-0.141 C 0.447,-0.312 0.45,-0.314 0.455,-0.316 0.461,-0.318 0.467,-0.32 0.475,-0.323 0.482,-0.325 0.49,-0.328 0.499,-0.331 0.508,-0.334 0.516,-0.337 0.524,-0.339 0.532,-0.342 0.539,-0.344 0.545,-0.346 0.552,-0.348 0.556,-0.349 0.558,-0.35 l 0.011,0.033 -0.101,0.034 -0.133,0.132 V 0.07 c 0,0.01 -0.003,0.018 -0.01,0.025 C 0.318,0.102 0.31,0.105 0.3,0.105 Z m 0.702,0 C 0.993,0.105 0.985,0.102 0.978,0.095 0.971,0.088 0.967,0.08 0.967,0.07 V -0.151 L 0.835,-0.283 0.733,-0.317 0.745,-0.35 c 0.002,0.001 0.006,0.002 0.012,0.004 0.007,0.002 0.014,0.004 0.022,0.007 0.008,0.002 0.016,0.005 0.025,0.008 0.009,0.003 0.017,0.006 0.024,0.008 0.008,0.003 0.014,0.005 0.019,0.007 0.006,0.002 0.009,0.004 0.01,0.005 l 0.14,0.141 c 0.004,0.003 0.005,0.007 0.005,0.012 z M 0.739,-0.421 v -0.036 h 0.168 l 0.097,-0.097 0.023,-0.068 c 0.003,-0.007 0.007,-0.013 0.013,-0.017 0.006,-0.004 0.013,-0.007 0.021,-0.007 0.004,0 0.007,0.001 0.011,0.002 -0.001,0.003 -0.003,0.007 -0.005,0.014 L 1.053,-0.585 C 1.05,-0.576 1.048,-0.568 1.045,-0.561 1.042,-0.553 1.04,-0.547 1.038,-0.542 1.035,-0.536 1.034,-0.533 1.032,-0.532 L 0.927,-0.426 C 0.924,-0.423 0.92,-0.421 0.915,-0.421 Z m -0.176,0 H 0.388 c -0.005,0 -0.009,-0.002 -0.012,-0.005 L 0.271,-0.532 C 0.269,-0.533 0.267,-0.536 0.265,-0.542 0.263,-0.547 0.26,-0.553 0.258,-0.561 0.255,-0.568 0.253,-0.576 0.25,-0.585 L 0.235,-0.63 C 0.233,-0.637 0.232,-0.641 0.231,-0.644 c 0.003,-0.001 0.007,-0.002 0.011,-0.002 0.008,0 0.014,0.003 0.02,0.007 0.006,0.004 0.011,0.01 0.013,0.017 l 0.023,0.068 0.098,0.097 H 0.563 Z M 0.593,-0.457 0.488,-0.492 C 0.483,-0.494 0.48,-0.497 0.478,-0.501 0.476,-0.504 0.473,-0.509 0.469,-0.517 L 0.438,-0.578 C 0.433,-0.589 0.427,-0.6 0.422,-0.61 0.417,-0.62 0.413,-0.629 0.41,-0.636 0.407,-0.643 0.406,-0.647 0.406,-0.649 v -0.158 c 0.01,0 0.018,0.003 0.025,0.01 0.007,0.007 0.01,0.015 0.01,0.025 v 0.119 l 0.065,0.13 0.098,0.032 z m 0.116,0 -0.01,-0.034 0.098,-0.032 0.065,-0.13 v -0.119 c 0,-0.01 0.003,-0.018 0.01,-0.025 0.007,-0.007 0.015,-0.01 0.025,-0.01 v 0.158 c 0,0.002 -0.002,0.006 -0.005,0.013 -0.003,0.007 -0.007,0.016 -0.012,0.026 -0.005,0.01 -0.01,0.021 -0.016,0.032 -0.006,0.012 -0.011,0.023 -0.016,0.033 -0.006,0.01 -0.01,0.02 -0.015,0.028 -0.004,0.008 -0.007,0.013 -0.008,0.016 -0.002,0.004 -0.006,0.007 -0.01,0.009 z"
         style="fill:#69797e;fill-rule:nonzero"
         id="path8690" /><path
         d="m 0.862,-0.21 v 0.105 c 0,0.029 -0.006,0.056 -0.017,0.081 C 0.834,0.002 0.819,0.024 0.8,0.043 0.781,0.062 0.759,0.077 0.733,0.088 0.708,0.099 0.68,0.105 0.651,0.105 0.622,0.105 0.595,0.099 0.57,0.088 0.544,0.077 0.522,0.062 0.503,0.043 0.484,0.024 0.469,0.002 0.458,-0.024 0.446,-0.049 0.441,-0.076 0.441,-0.105 V -0.21 c 0,-0.031 0.006,-0.059 0.018,-0.087 0.012,-0.027 0.03,-0.05 0.052,-0.071 0,-0.011 0.001,-0.021 0.001,-0.031 0.001,-0.009 0.003,-0.019 0.005,-0.028 0.003,-0.009 0.006,-0.018 0.011,-0.026 0.004,-0.009 0.01,-0.017 0.018,-0.026 v -0.083 c 0,-0.014 0.003,-0.028 0.008,-0.041 0.006,-0.012 0.013,-0.023 0.023,-0.033 0.01,-0.01 0.021,-0.017 0.033,-0.023 0.013,-0.005 0.027,-0.008 0.041,-0.008 0.015,0 0.029,0.003 0.041,0.008 0.013,0.006 0.024,0.013 0.034,0.023 0.009,0.01 0.017,0.021 0.023,0.033 0.005,0.013 0.008,0.027 0.008,0.041 v 0.083 c 0.007,0.009 0.013,0.017 0.018,0.026 0.005,0.008 0.008,0.017 0.011,0.026 0.002,0.009 0.004,0.018 0.005,0.028 0.001,0.01 0.001,0.02 0.001,0.031 0.022,0.021 0.04,0.044 0.052,0.071 0.012,0.028 0.018,0.056 0.018,0.087 z"
         style="fill:#4a5459;fill-rule:nonzero"
         id="path8692" /><path
         d="m 0.704,-0.632 c 0.005,0 0.009,0.002 0.013,0.005 0.003,0.004 0.005,0.008 0.005,0.013 v 0.035 c 0,0.005 -0.002,0.009 -0.005,0.012 -0.004,0.004 -0.008,0.005 -0.013,0.005 -0.005,0 -0.009,-10e-4 -0.012,-0.005 C 0.688,-0.57 0.687,-0.574 0.687,-0.579 v -0.035 c 0,-0.005 10e-4,-0.009 0.005,-0.013 0.003,-0.003 0.007,-0.005 0.012,-0.005 z m -0.105,0 c 0.005,0 0.009,0.002 0.012,0.005 0.004,0.004 0.005,0.008 0.005,0.013 v 0.035 c 0,0.005 -0.001,0.009 -0.005,0.012 -0.003,0.004 -0.007,0.005 -0.012,0.005 -0.005,0 -0.009,-10e-4 -0.013,-0.005 C 0.583,-0.57 0.581,-0.574 0.581,-0.579 v -0.035 c 0,-0.005 0.002,-0.009 0.005,-0.012 0.004,-0.004 0.008,-0.006 0.013,-0.006 z"
         style="fill-rule:nonzero"
         id="path8694" /><path
         d="m 0.792,-0.21 c 0,0.019 -0.004,0.037 -0.011,0.054 C 0.773,-0.139 0.763,-0.124 0.75,-0.111 0.738,-0.099 0.723,-0.089 0.706,-0.081 0.689,-0.074 0.671,-0.07 0.651,-0.07 0.632,-0.07 0.614,-0.074 0.597,-0.081 0.58,-0.089 0.565,-0.099 0.552,-0.111 0.54,-0.124 0.53,-0.139 0.522,-0.156 0.515,-0.173 0.511,-0.191 0.511,-0.21 c 0,-0.02 0.004,-0.038 0.011,-0.055 0.008,-0.017 0.018,-0.032 0.03,-0.045 0.013,-0.013 0.028,-0.023 0.045,-0.03 0.017,-0.007 0.035,-0.011 0.054,-0.011 0.02,0 0.038,0.004 0.055,0.011 0.017,0.007 0.032,0.017 0.045,0.03 0.013,0.013 0.023,0.028 0.03,0.045 0.007,0.017 0.011,0.035 0.011,0.055 z"
         style="fill:#69797e;fill-rule:nonzero"
         id="path8696" /></g></g></svg>
