<?xml version="1.0" encoding="UTF-8" standalone="no"?>
<svg
   width="16.32"
   height="16.305"
   viewBox="0 0 16.32 16.305"
   version="1.1"
   xml:space="preserve"
   style="clip-rule:evenodd;fill-rule:evenodd;stroke-linejoin:round;stroke-miterlimit:2"
   id="svg20568"
   sodipodi:docname="emojis.svg"
   xmlns:inkscape="http://www.inkscape.org/namespaces/inkscape"
   xmlns:sodipodi="http://sodipodi.sourceforge.net/DTD/sodipodi-0.dtd"
   xmlns="http://www.w3.org/2000/svg"
   xmlns:svg="http://www.w3.org/2000/svg"><defs
     id="defs20572" /><sodipodi:namedview
     id="namedview20570"
     pagecolor="#505050"
     bordercolor="#eeeeee"
     borderopacity="1"
     inkscape:pageshadow="0"
     inkscape:pageopacity="0"
     inkscape:pagecheckerboard="0" /><g
     transform="matrix(0.24,0,0,0.24,-696.747,-405.3018)"
     id="g20566"><g
       transform="matrix(62.5,0,0,62.5,2895.3,1743.57)"
       id="g8704"><path
         d="m 1.153,-0.417 c 0.018,0.007 0.033,0.017 0.044,0.032 0.01,0.016 0.016,0.033 0.016,0.052 0,0.018 -0.006,0.035 -0.016,0.051 -0.011,0.015 -0.026,0.025 -0.044,0.032 l -0.092,0.185 0.003,0.003 c 0.006,0.005 0.012,0.011 0.017,0.017 0.005,0.006 0.01,0.011 0.014,0.017 0.004,0.006 0.007,0.013 0.009,0.02 C 1.106,0 1.107,0.008 1.107,0.018 1.107,0.03 1.105,0.041 1.101,0.052 1.096,0.063 1.09,0.072 1.082,0.08 1.074,0.087 1.065,0.094 1.054,0.098 1.043,0.103 1.032,0.105 1.02,0.105 1.01,0.105 1.002,0.104 0.994,0.102 0.987,0.099 0.98,0.096 0.973,0.092 0.967,0.088 0.961,0.083 0.955,0.077 0.949,0.071 0.943,0.065 0.937,0.059 L 0.752,0.151 C 0.746,0.169 0.735,0.183 0.72,0.194 0.705,0.205 0.688,0.21 0.669,0.21 0.65,0.21 0.633,0.205 0.618,0.194 0.603,0.183 0.592,0.169 0.586,0.151 L 0.401,0.059 0.398,0.062 C 0.392,0.068 0.386,0.073 0.381,0.079 0.375,0.084 0.369,0.088 0.363,0.092 0.357,0.096 0.35,0.099 0.343,0.102 0.336,0.104 0.327,0.105 0.318,0.105 0.306,0.105 0.294,0.103 0.283,0.098 0.273,0.094 0.264,0.087 0.256,0.08 0.248,0.072 0.241,0.063 0.237,0.052 0.232,0.041 0.23,0.03 0.23,0.018 0.23,0.008 0.231,0 0.233,-0.007 0.236,-0.014 0.239,-0.021 0.243,-0.027 0.247,-0.034 0.251,-0.039 0.256,-0.045 0.262,-0.05 0.267,-0.056 0.273,-0.062 L 0.277,-0.065 0.185,-0.25 C 0.167,-0.257 0.152,-0.267 0.141,-0.282 0.13,-0.298 0.125,-0.315 0.125,-0.333 0.125,-0.352 0.13,-0.369 0.141,-0.385 0.152,-0.4 0.167,-0.41 0.185,-0.417 L 0.277,-0.602 0.273,-0.605 C 0.267,-0.611 0.262,-0.617 0.256,-0.622 0.251,-0.628 0.247,-0.633 0.243,-0.639 0.239,-0.645 0.236,-0.652 0.234,-0.659 0.232,-0.666 0.23,-0.675 0.23,-0.684 c 0,-0.012 0.003,-0.024 0.007,-0.034 0.005,-0.011 0.011,-0.02 0.019,-0.028 0.008,-0.008 0.017,-0.015 0.027,-0.019 0.011,-0.005 0.023,-0.007 0.035,-0.007 0.009,0 0.018,0.001 0.025,0.003 0.007,0.003 0.014,0.006 0.02,0.01 0.006,0.004 0.012,0.008 0.018,0.013 0.005,0.006 0.011,0.011 0.017,0.017 l 0.003,0.003 0.185,-0.092 c 0.006,-0.018 0.017,-0.032 0.032,-0.043 0.015,-0.011 0.032,-0.016 0.051,-0.016 0.019,0 0.036,0.005 0.051,0.016 0.015,0.011 0.026,0.025 0.032,0.043 l 0.185,0.092 c 0.006,-0.006 0.012,-0.012 0.018,-0.018 0.006,-0.006 0.012,-0.01 0.018,-0.015 0.007,-0.004 0.014,-0.007 0.021,-0.009 0.008,-0.003 0.017,-0.004 0.026,-0.004 0.012,0 0.023,0.002 0.034,0.007 0.011,0.004 0.02,0.011 0.028,0.019 0.008,0.008 0.014,0.017 0.019,0.028 0.004,0.01 0.006,0.022 0.006,0.034 0,0.01 -10e-4,0.018 -0.003,0.026 -0.003,0.007 -0.006,0.014 -0.01,0.021 -0.004,0.006 -0.009,0.012 -0.015,0.018 -0.005,0.005 -0.011,0.011 -0.018,0.017 z"
         style="fill-rule:nonzero"
         id="path8700" /><path
         d="m 1.107,-0.351 h 0.011 c 0.006,0 0.012,0.001 0.017,0.003 0.005,0.001 0.008,0.006 0.008,0.015 0,0.007 -0.003,0.012 -0.008,0.014 -0.005,0.002 -0.01,0.003 -0.016,0.003 H 1.107 L 0.976,-0.052 1.032,0.005 C 1.035,0.008 1.037,0.012 1.037,0.018 1.037,0.022 1.035,0.026 1.032,0.03 1.028,0.033 1.024,0.035 1.02,0.035 1.015,0.035 1.011,0.033 1.007,0.03 L 0.951,-0.027 0.687,0.105 v 0.01 C 0.687,0.121 0.686,0.127 0.684,0.132 0.682,0.138 0.677,0.14 0.669,0.14 0.661,0.14 0.656,0.138 0.654,0.133 0.652,0.128 0.651,0.122 0.651,0.116 V 0.105 L 0.387,-0.027 0.331,0.03 C 0.327,0.033 0.323,0.035 0.318,0.035 0.313,0.035 0.309,0.033 0.306,0.03 0.302,0.026 0.3,0.022 0.3,0.018 0.3,0.013 0.302,0.008 0.306,0.005 L 0.362,-0.052 0.23,-0.316 H 0.22 c -0.006,0 -0.012,-0.001 -0.017,-0.003 -0.005,-0.001 -0.008,-0.006 -0.008,-0.014 0,-0.008 0.003,-0.013 0.008,-0.015 0.005,-0.002 0.01,-0.003 0.016,-0.003 H 0.23 L 0.362,-0.615 0.306,-0.672 C 0.302,-0.675 0.3,-0.68 0.3,-0.684 c 0,-0.005 0.002,-0.009 0.006,-0.012 0.003,-0.004 0.007,-0.006 0.012,-0.006 0.005,0 0.009,0.002 0.013,0.005 l 0.056,0.057 0.264,-0.132 v -0.01 c 0,-0.006 0.001,-0.012 0.003,-0.017 0.002,-0.006 0.007,-0.008 0.015,-0.008 0.008,0 0.013,0.002 0.015,0.007 0.002,0.005 0.003,0.011 0.003,0.017 v 0.011 L 0.951,-0.64 1.007,-0.697 C 1.011,-0.7 1.015,-0.702 1.02,-0.702 c 0.004,0 0.009,0.002 0.012,0.005 0.003,0.004 0.005,0.008 0.005,0.013 0,0.005 -0.002,0.009 -0.005,0.012 l -0.056,0.057 z m -0.456,-0.386 -0.243,0.118 0.05,0.049 0.193,-0.097 z m -0.268,0.143 -0.118,0.243 h 0.07 L 0.433,-0.545 Z M 0.687,0.07 0.929,-0.049 0.88,-0.097 0.687,0 Z M 0.954,-0.074 1.073,-0.316 H 1.002 L 0.905,-0.122 Z M 0.265,-0.316 0.385,-0.075 0.433,-0.122 0.335,-0.316 Z M 0.41,-0.05 0.651,0.07 V 0 L 0.458,-0.097 Z m 0.517,-0.567 -0.24,-0.12 v 0.07 l 0.193,0.098 z m 0.146,0.266 -0.121,-0.241 -0.046,0.047 0.096,0.194 z m -0.238,0.159 0.048,0.047 0.084,-0.171 h -0.07 z m -0.148,0.087 v 0.07 L 0.858,-0.12 0.811,-0.167 Z m -0.184,-0.37 -0.047,-0.046 -0.085,0.17 h 0.07 z m 0.148,-0.087 v -0.07 l -0.17,0.086 0.046,0.046 z m -0.124,0.395 -0.046,0.046 0.17,0.086 v -0.07 z m 0.37,-0.184 h 0.07 L 0.881,-0.521 0.835,-0.475 Z M 0.811,-0.5 0.856,-0.546 0.687,-0.632 v 0.07 z m -0.37,0.184 h -0.07 l 0.086,0.17 0.046,-0.046 z m 0.246,-0.21 v 0.15 l 0.101,-0.102 z m 0.024,0.175 H 0.862 L 0.813,-0.453 Z m 0,0.035 0.101,0.101 0.05,-0.101 z m -0.024,0.025 v 0.15 l 0.1,-0.049 z M 0.626,-0.316 h -0.15 l 0.05,0.1 z m 0.025,0.025 -0.1,0.1 0.1,0.05 z m -0.025,-0.06 -0.099,-0.1 -0.051,0.1 z m 0.025,-0.025 v -0.15 l -0.1,0.05 z"
         style="fill:#ffffff;fill-rule:nonzero"
         id="path8702" /></g></g></svg>
