<?xml version="1.0" encoding="UTF-8" standalone="no"?>
<svg
   width="16.844999"
   height="16.844999"
   viewBox="0 0 16.844999 16.844999"
   version="1.1"
   xml:space="preserve"
   style="clip-rule:evenodd;fill-rule:evenodd;stroke-linejoin:round;stroke-miterlimit:2"
   id="svg20568"
   sodipodi:docname="emojis.svg"
   xmlns:inkscape="http://www.inkscape.org/namespaces/inkscape"
   xmlns:sodipodi="http://sodipodi.sourceforge.net/DTD/sodipodi-0.dtd"
   xmlns="http://www.w3.org/2000/svg"
   xmlns:svg="http://www.w3.org/2000/svg"><defs
     id="defs20572" /><sodipodi:namedview
     id="namedview20570"
     pagecolor="#505050"
     bordercolor="#eeeeee"
     borderopacity="1"
     inkscape:pageshadow="0"
     inkscape:pageopacity="0"
     inkscape:pagecheckerboard="0" /><g
     transform="matrix(0.24,0,0,0.24,-756.9654,-404.7618)"
     id="g20566"><g
       transform="matrix(62.5,0,0,62.5,3146.21,1743.57)"
       id="g8746"><path
         d="M 0.494,0.175 C 0.485,0.186 0.475,0.195 0.462,0.201 0.45,0.207 0.437,0.21 0.423,0.21 0.411,0.21 0.399,0.208 0.389,0.204 0.378,0.199 0.369,0.193 0.361,0.185 0.353,0.177 0.347,0.167 0.342,0.157 0.338,0.146 0.335,0.135 0.335,0.123 0.328,0.128 0.32,0.132 0.311,0.135 0.301,0.139 0.292,0.14 0.283,0.14 0.271,0.14 0.259,0.138 0.249,0.133 0.238,0.129 0.229,0.122 0.221,0.115 0.213,0.107 0.207,0.097 0.202,0.087 0.198,0.076 0.195,0.065 0.195,0.053 0.195,0.043 0.197,0.034 0.2,0.025 0.203,0.016 0.207,0.007 0.213,0 0.201,0 0.189,-0.002 0.179,-0.007 0.168,-0.011 0.159,-0.018 0.151,-0.026 0.143,-0.034 0.136,-0.043 0.132,-0.053 0.127,-0.064 0.125,-0.075 0.125,-0.087 c 0,-0.014 0.003,-0.028 0.009,-0.04 C 0.14,-0.139 0.149,-0.15 0.16,-0.158 0.149,-0.167 0.14,-0.177 0.134,-0.189 0.128,-0.201 0.125,-0.214 0.125,-0.228 0.125,-0.247 0.13,-0.263 0.14,-0.278 0.151,-0.293 0.165,-0.304 0.182,-0.311 0.175,-0.319 0.17,-0.328 0.166,-0.338 0.162,-0.348 0.16,-0.358 0.16,-0.369 c 0,-0.012 0.003,-0.023 0.007,-0.034 0.005,-0.011 0.011,-0.02 0.019,-0.028 0.008,-0.008 0.018,-0.014 0.028,-0.019 0.011,-0.004 0.022,-0.007 0.034,-0.007 l 0.007,0.001 C 0.25,-0.468 0.248,-0.48 0.248,-0.492 c 0,-0.012 0.002,-0.023 0.007,-0.034 0.004,-0.011 0.011,-0.02 0.019,-0.028 0.008,-0.008 0.017,-0.014 0.028,-0.019 0.011,-0.004 0.022,-0.007 0.034,-0.007 l 0.007,0.001 C 0.338,-0.59 0.335,-0.602 0.335,-0.614 c 0,-0.012 0.003,-0.024 0.007,-0.034 0.005,-0.011 0.011,-0.021 0.019,-0.029 0.008,-0.007 0.017,-0.014 0.028,-0.018 0.011,-0.005 0.022,-0.007 0.034,-0.007 0.007,0 0.013,0.001 0.018,0.002 0.006,0.001 0.012,0.003 0.017,0.005 v -0.007 c 0,-0.012 0.002,-0.024 0.007,-0.034 0.005,-0.011 0.011,-0.02 0.019,-0.028 0.008,-0.008 0.017,-0.015 0.028,-0.019 0.011,-0.005 0.022,-0.007 0.034,-0.007 0.012,0 0.023,0.003 0.036,0.008 L 0.581,-0.79 c 0,-0.012 0.002,-0.023 0.007,-0.034 0.004,-0.011 0.011,-0.02 0.019,-0.028 0.008,-0.008 0.017,-0.014 0.028,-0.019 0.011,-0.004 0.022,-0.006 0.034,-0.006 0.011,0 0.021,0.001 0.031,0.005 0.01,0.004 0.019,0.009 0.027,0.017 0.007,-0.018 0.017,-0.032 0.032,-0.042 0.015,-0.01 0.032,-0.016 0.051,-0.016 0.014,0 0.027,0.003 0.039,0.01 0.012,0.006 0.022,0.014 0.03,0.026 0.009,-0.012 0.019,-0.02 0.032,-0.026 0.012,-0.007 0.025,-0.01 0.039,-0.01 0.012,0 0.024,0.003 0.034,0.007 0.011,0.005 0.02,0.011 0.028,0.019 0.008,0.008 0.014,0.017 0.019,0.028 0.004,0.011 0.007,0.022 0.007,0.034 0.007,-0.005 0.015,-0.01 0.024,-0.013 0.01,-0.003 0.019,-0.004 0.028,-0.004 0.012,0 0.024,0.002 0.034,0.007 0.011,0.004 0.02,0.01 0.028,0.018 0.008,0.008 0.014,0.018 0.019,0.028 0.004,0.011 0.007,0.022 0.007,0.034 0,0.01 -0.002,0.019 -0.005,0.028 -0.003,0.009 -0.007,0.017 -0.013,0.025 0.012,0 0.024,0.002 0.034,0.007 0.011,0.004 0.02,0.011 0.028,0.018 0.008,0.008 0.014,0.018 0.019,0.028 0.005,0.011 0.007,0.022 0.007,0.034 0,0.014 -0.003,0.027 -0.009,0.04 -0.006,0.012 -0.015,0.023 -0.026,0.031 0.011,0.009 0.02,0.019 0.026,0.031 0.006,0.012 0.009,0.025 0.009,0.039 0,0.018 -0.005,0.035 -0.015,0.05 -0.011,0.015 -0.025,0.026 -0.042,0.032 0.007,0.009 0.013,0.018 0.016,0.028 0.004,0.01 0.006,0.02 0.006,0.031 0,0.012 -0.002,0.023 -0.007,0.034 -0.005,0.01 -0.011,0.02 -0.019,0.028 -0.008,0.008 -0.017,0.014 -0.028,0.019 -0.011,0.004 -0.022,0.006 -0.034,0.006 -0.006,0 -0.012,0 -0.02,-0.002 0.001,0.004 0.002,0.007 0.002,0.01 0.001,0.003 0.001,0.006 0.001,0.01 0,0.012 -0.002,0.023 -0.007,0.034 -0.005,0.01 -0.011,0.02 -0.019,0.028 -0.008,0.008 -0.017,0.014 -0.028,0.019 -0.011,0.005 -0.022,0.007 -0.034,0.007 -0.004,0 -0.007,0 -0.01,-10e-4 -0.003,0 -0.006,-0.001 -0.01,-0.002 0.002,0.008 0.002,0.014 0.002,0.02 0,0.012 -0.002,0.024 -0.007,0.034 -0.004,0.011 -0.011,0.02 -0.019,0.028 -0.008,0.008 -0.017,0.014 -0.028,0.019 -0.01,0.005 -0.021,0.007 -0.033,0.007 -0.006,0 -0.013,-10e-4 -0.02,-0.003 0.001,0.008 0.002,0.015 0.002,0.021 0,0.012 -0.002,0.023 -0.007,0.034 C 0.886,0.027 0.879,0.037 0.871,0.045 0.863,0.053 0.854,0.059 0.844,0.063 0.833,0.068 0.822,0.07 0.81,0.07 0.804,0.07 0.797,0.069 0.79,0.068 0.791,0.075 0.792,0.082 0.792,0.088 0.792,0.1 0.79,0.111 0.785,0.122 0.781,0.132 0.774,0.142 0.766,0.15 0.758,0.158 0.749,0.164 0.738,0.168 0.728,0.173 0.716,0.175 0.704,0.175 0.693,0.175 0.683,0.173 0.673,0.17 0.663,0.166 0.654,0.16 0.646,0.153 0.639,0.171 0.629,0.185 0.614,0.195 0.599,0.205 0.582,0.21 0.563,0.21 0.549,0.21 0.536,0.207 0.524,0.201 0.512,0.195 0.502,0.186 0.494,0.175 Z"
         style="fill-rule:nonzero"
         id="path8736" /><path
         d="m 0.23,-0.369 c 0,-0.005 0.002,-0.009 0.005,-0.012 0.004,-0.004 0.008,-0.005 0.013,-0.005 0.002,0 0.005,0.001 0.011,0.003 0.006,0.002 0.012,0.005 0.02,0.009 0.007,0.004 0.015,0.008 0.024,0.012 0.008,0.004 0.016,0.009 0.024,0.013 l 0.034,0.017 c 0.006,0.004 0.01,0.009 0.01,0.016 0,0.005 -0.002,0.009 -0.006,0.012 C 0.362,-0.3 0.358,-0.298 0.353,-0.298 0.351,-0.298 0.347,-0.299 0.342,-0.302 0.336,-0.304 0.33,-0.307 0.322,-0.311 0.315,-0.315 0.307,-0.319 0.298,-0.323 0.289,-0.327 0.281,-0.331 0.273,-0.335 L 0.24,-0.353 C 0.233,-0.356 0.23,-0.361 0.23,-0.369 Z m 0.088,-0.122 c 0,-0.005 0.002,-0.009 0.005,-0.013 0.004,-0.003 0.008,-0.005 0.013,-0.005 0.004,0 0.007,0.001 0.01,0.003 l 0.123,0.088 c 0.005,0.004 0.007,0.009 0.007,0.014 0,0.005 -0.002,0.009 -0.005,0.013 -0.004,0.003 -0.008,0.005 -0.013,0.005 -0.003,0 -0.007,-0.001 -0.01,-0.004 L 0.325,-0.477 C 0.32,-0.481 0.318,-0.486 0.318,-0.491 Z m 0.316,0.473 c 0,-0.004 0.002,-0.009 0.005,-0.012 0.004,-0.003 0.008,-0.005 0.012,-0.005 0.008,0 0.013,0.003 0.016,0.01 L 0.685,0.008 C 0.689,0.016 0.693,0.024 0.697,0.033 0.701,0.041 0.705,0.049 0.709,0.057 0.713,0.064 0.716,0.071 0.718,0.076 0.721,0.082 0.722,0.086 0.722,0.088 0.722,0.092 0.72,0.097 0.717,0.1 0.713,0.104 0.709,0.105 0.704,0.105 0.697,0.105 0.692,0.102 0.688,0.096 L 0.671,0.062 C 0.667,0.054 0.662,0.046 0.658,0.037 0.654,0.029 0.65,0.021 0.646,0.013 0.642,0.006 0.639,-0.001 0.637,-0.006 0.635,-0.012 0.634,-0.016 0.634,-0.018 Z m 0.07,-0.105 c 0,-0.005 0.002,-0.009 0.005,-0.012 0.004,-0.004 0.008,-0.006 0.013,-0.006 0.005,0 0.009,0.002 0.013,0.007 l 0.088,0.105 c 0.001,0.002 0.002,0.004 0.003,0.006 0.001,0.002 0.001,0.003 0.001,0.005 0,0.005 -0.002,0.009 -0.005,0.013 C 0.818,-0.002 0.814,0 0.809,0 0.804,0 0.799,-0.002 0.796,-0.006 L 0.708,-0.112 C 0.705,-0.115 0.704,-0.119 0.704,-0.123 Z M 0.265,0.053 c 0,-0.005 0.002,-0.009 0.006,-0.013 l 0.105,-0.105 c 0.003,-0.003 0.007,-0.005 0.012,-0.005 0.005,0 0.009,0.002 0.012,0.005 0.004,0.004 0.005,0.008 0.005,0.012 0,0.005 -0.001,0.009 -0.005,0.012 L 0.295,0.065 C 0.292,0.069 0.288,0.07 0.283,0.07 0.278,0.07 0.274,0.069 0.271,0.065 0.267,0.061 0.265,0.057 0.265,0.053 Z M 0.362,-0.21 H 0.213 C 0.208,-0.21 0.204,-0.212 0.201,-0.216 0.197,-0.219 0.195,-0.223 0.195,-0.228 0.195,-0.233 0.197,-0.237 0.2,-0.24 0.204,-0.244 0.208,-0.246 0.213,-0.246 h 0.149 c 0.004,0 0.008,0.002 0.012,0.006 0.004,0.003 0.005,0.007 0.005,0.012 0,0.005 -0.001,0.009 -0.005,0.012 C 0.37,-0.212 0.366,-0.21 0.362,-0.21 Z m -0.167,0.122 c 0,-0.004 0.001,-0.007 0.003,-0.01 0.003,-0.003 0.005,-0.005 0.009,-0.006 l 0.057,-0.021 c 0.013,-0.004 0.024,-0.007 0.034,-0.011 0.011,-0.003 0.017,-0.005 0.02,-0.005 0.005,0 0.009,0.002 0.012,0.006 0.004,0.003 0.005,0.008 0.005,0.012 0,0.004 -0.001,0.007 -0.003,0.01 -0.002,0.003 -0.005,0.005 -0.008,0.007 l -0.058,0.02 C 0.254,-0.082 0.243,-0.078 0.232,-0.075 0.222,-0.072 0.215,-0.07 0.213,-0.07 0.208,-0.07 0.204,-0.072 0.2,-0.076 0.197,-0.079 0.195,-0.083 0.195,-0.088 Z M 0.406,0.123 C 0.406,0.12 0.407,0.113 0.411,0.103 0.414,0.093 0.418,0.081 0.422,0.069 L 0.442,0.012 C 0.443,0.008 0.445,0.005 0.448,0.003 0.451,0.001 0.454,0 0.458,0 0.463,0 0.467,0.002 0.471,0.005 0.474,0.009 0.476,0.013 0.476,0.018 0.476,0.02 0.474,0.027 0.471,0.037 0.468,0.048 0.464,0.059 0.46,0.071 L 0.44,0.128 C 0.439,0.132 0.437,0.135 0.434,0.137 0.431,0.139 0.427,0.14 0.424,0.14 0.419,0.14 0.415,0.138 0.411,0.135 0.408,0.132 0.406,0.127 0.406,0.123 Z M 0.563,0.14 C 0.559,0.14 0.555,0.138 0.551,0.135 0.548,0.131 0.546,0.127 0.546,0.123 v -0.149 c 0,-0.005 0.002,-0.009 0.005,-0.013 0.004,-0.003 0.008,-0.005 0.012,-0.005 0.005,0 0.009,0.002 0.013,0.005 0.003,0.004 0.005,0.008 0.005,0.013 V 0.123 C 0.581,0.127 0.579,0.132 0.576,0.135 0.573,0.138 0.568,0.14 0.563,0.14 Z M 0.405,-0.614 c 0,-0.005 0.002,-0.009 0.006,-0.012 0.003,-0.004 0.007,-0.005 0.012,-0.005 0.005,0 0.009,0.001 0.013,0.005 l 0.07,0.069 c 0.003,0.004 0.005,0.008 0.005,0.013 0,0.005 -0.002,0.009 -0.005,0.012 -0.004,0.004 -0.008,0.006 -0.013,0.006 -0.004,0 -0.008,-0.002 -0.012,-0.006 l -0.07,-0.07 C 0.407,-0.606 0.405,-0.61 0.405,-0.614 Z m 0.422,0.421 c 0,-0.005 0.001,-0.009 0.005,-0.012 0.004,-0.004 0.008,-0.005 0.012,-0.005 0.005,0 0.01,0.001 0.013,0.004 l 0.07,0.071 c 0.004,0.003 0.005,0.007 0.005,0.012 0,0.005 -0.002,0.009 -0.005,0.013 -0.003,0.003 -0.008,0.005 -0.012,0.005 -0.005,0 -0.009,-0.002 -0.013,-0.005 L 0.832,-0.181 C 0.828,-0.184 0.827,-0.188 0.827,-0.193 Z M 0.651,-0.79 c 0,-0.005 0.002,-0.009 0.005,-0.012 0.004,-0.003 0.008,-0.005 0.012,-0.005 0.008,0 0.013,0.003 0.017,0.01 l 0.017,0.033 c 0.004,0.008 0.009,0.016 0.013,0.025 0.004,0.008 0.008,0.016 0.012,0.024 0.004,0.007 0.007,0.014 0.009,0.019 0.002,0.006 0.003,0.01 0.003,0.012 0,0.004 -0.002,0.008 -0.005,0.012 -0.004,0.003 -0.008,0.005 -0.012,0.005 -0.007,0 -0.013,-0.003 -0.016,-0.01 L 0.688,-0.71 C 0.684,-0.718 0.68,-0.726 0.676,-0.735 0.672,-0.743 0.668,-0.751 0.664,-0.759 0.66,-0.766 0.657,-0.773 0.655,-0.779 0.653,-0.784 0.651,-0.788 0.651,-0.79 Z m -0.122,0.088 c 0,-0.005 0.002,-0.009 0.005,-0.012 0.003,-0.004 0.008,-0.006 0.012,-0.006 0.006,0 0.011,0.003 0.015,0.008 l 0.087,0.123 c 0.002,0.003 0.003,0.007 0.003,0.01 0,0.005 -0.001,0.009 -0.005,0.012 -0.004,0.004 -0.008,0.005 -0.012,0.005 -0.006,0 -0.01,-0.002 -0.014,-0.007 L 0.532,-0.692 C 0.53,-0.695 0.529,-0.698 0.529,-0.702 Z m 0.473,0.316 c 0,-0.005 0.002,-0.009 0.006,-0.012 0.003,-0.004 0.007,-0.006 0.012,-0.006 10e-4,0 0.005,0.001 0.011,0.004 0.006,0.002 0.012,0.005 0.02,0.009 0.007,0.003 0.015,0.007 0.024,0.012 0.008,0.004 0.016,0.008 0.024,0.012 l 0.034,0.018 c 0.006,0.003 0.01,0.009 0.01,0.016 0,0.005 -0.002,0.009 -0.006,0.012 C 1.134,-0.318 1.13,-0.316 1.125,-0.316 1.124,-0.316 1.12,-0.317 1.114,-0.319 1.108,-0.322 1.102,-0.325 1.094,-0.328 1.087,-0.332 1.079,-0.336 1.07,-0.34 1.062,-0.345 1.054,-0.349 1.046,-0.353 L 1.012,-0.371 C 1.006,-0.374 1.002,-0.379 1.002,-0.386 Z m -0.105,0.07 c 0,-0.005 0.002,-0.009 0.005,-0.012 0.004,-0.004 0.008,-0.005 0.013,-0.005 0.004,0 0.008,0.001 0.011,0.003 l 0.105,0.088 c 0.004,0.004 0.007,0.008 0.007,0.013 0,0.005 -0.002,0.01 -0.006,0.013 -0.003,0.004 -0.007,0.006 -0.012,0.006 -0.002,0 -0.004,-0.001 -0.006,-0.002 -0.002,0 -0.004,-0.002 -0.005,-0.003 L 0.903,-0.302 C 0.899,-0.306 0.897,-0.31 0.897,-0.316 Z m 0.07,-0.333 c 0,-0.005 0.002,-0.009 0.005,-0.013 l 0.106,-0.105 c 0.003,-0.003 0.007,-0.005 0.012,-0.005 0.005,0 0.009,0.002 0.012,0.005 0.004,0.004 0.005,0.008 0.005,0.013 0,0.004 -10e-4,0.009 -0.004,0.012 L 0.997,-0.637 C 0.993,-0.633 0.989,-0.631 0.985,-0.631 0.98,-0.631 0.976,-0.633 0.972,-0.637 0.969,-0.64 0.967,-0.645 0.967,-0.649 Z M 0.81,-0.658 C 0.805,-0.658 0.801,-0.66 0.797,-0.663 0.794,-0.667 0.792,-0.671 0.792,-0.676 v -0.149 c 0,-0.005 0.002,-0.009 0.005,-0.012 0.004,-0.004 0.008,-0.005 0.013,-0.005 0.004,0 0.008,0.002 0.012,0.005 0.003,0.004 0.005,0.008 0.005,0.012 v 0.149 c 0,0.005 -0.002,0.009 -0.005,0.012 C 0.818,-0.66 0.814,-0.658 0.81,-0.658 Z M 0.897,-0.72 c 0,-0.002 0.002,-0.009 0.005,-0.019 0.003,-0.011 0.007,-0.022 0.011,-0.034 l 0.02,-0.058 c 0.001,-0.003 0.004,-0.006 0.007,-0.008 0.003,-0.002 0.006,-0.003 0.01,-0.003 0.004,0 0.008,0.001 0.012,0.005 0.003,0.003 0.005,0.007 0.005,0.012 0,0.003 -0.001,0.009 -0.005,0.02 -0.003,0.01 -0.007,0.022 -0.011,0.034 l -0.02,0.057 C 0.93,-0.71 0.928,-0.707 0.925,-0.705 0.922,-0.703 0.919,-0.702 0.915,-0.702 0.91,-0.702 0.906,-0.704 0.902,-0.707 0.899,-0.711 0.897,-0.715 0.897,-0.72 Z m 0.141,0.14 c 0,-0.003 10e-4,-0.006 0.003,-0.009 0.002,-0.003 0.005,-0.005 0.008,-0.007 l 0.058,-0.02 C 1.119,-0.62 1.13,-0.624 1.141,-0.627 1.151,-0.63 1.158,-0.632 1.16,-0.632 c 0.005,0 0.009,0.002 0.013,0.006 0.003,0.003 0.005,0.007 0.005,0.012 0,0.003 -10e-4,0.007 -0.003,0.01 -0.003,0.003 -0.005,0.005 -0.009,0.006 l -0.057,0.02 C 1.096,-0.573 1.085,-0.57 1.075,-0.566 1.064,-0.563 1.058,-0.562 1.055,-0.562 1.05,-0.562 1.046,-0.563 1.043,-0.567 1.039,-0.57 1.038,-0.575 1.038,-0.58 Z M 1.16,-0.457 H 1.011 c -0.005,0 -0.009,-0.001 -0.012,-0.005 -0.004,-0.003 -0.005,-0.007 -0.005,-0.012 0,-0.005 0.001,-0.009 0.005,-0.012 0.004,-0.004 0.008,-0.005 0.012,-0.005 H 1.16 c 0.005,0 0.009,0.001 0.012,0.005 0.004,0.003 0.006,0.007 0.006,0.012 0,0.005 -0.002,0.009 -0.005,0.012 -0.004,0.004 -0.008,0.005 -0.013,0.005 z"
         style="fill:#0078d7;fill-rule:nonzero"
         id="path8738" /><path
         d="m 0.265,-0.181 c 0,-0.022 0.002,-0.042 0.007,-0.06 0.005,-0.018 0.011,-0.035 0.02,-0.051 C 0.3,-0.308 0.309,-0.324 0.32,-0.34 0.33,-0.355 0.341,-0.372 0.353,-0.39 0.391,-0.449 0.435,-0.503 0.485,-0.553 0.534,-0.603 0.589,-0.647 0.648,-0.685 l 0.073,-0.047 c 0.041,-0.027 0.087,-0.04 0.135,-0.04 0.035,0 0.068,0.007 0.098,0.02 0.031,0.013 0.057,0.03 0.08,0.053 0.023,0.023 0.04,0.05 0.054,0.08 0.013,0.031 0.019,0.063 0.019,0.098 0,0.04 -0.008,0.077 -0.026,0.112 -0.017,0.035 -0.042,0.064 -0.074,0.088 -0.008,0.007 -0.017,0.013 -0.026,0.02 -0.008,0.006 -0.017,0.013 -0.026,0.019 -0.034,0.026 -0.067,0.054 -0.097,0.084 -0.03,0.029 -0.059,0.061 -0.086,0.095 C 0.763,-0.091 0.753,-0.079 0.744,-0.067 0.735,-0.054 0.726,-0.042 0.717,-0.03 0.692,0.002 0.663,0.026 0.628,0.044 0.594,0.061 0.557,0.07 0.516,0.07 0.481,0.07 0.449,0.063 0.418,0.05 0.388,0.037 0.361,0.019 0.339,-0.004 0.316,-0.026 0.298,-0.053 0.285,-0.083 0.272,-0.114 0.265,-0.146 0.265,-0.181 Z"
         style="fill:#00bcf2;fill-rule:nonzero"
         id="path8740" /><path
         d="M 0.408,-0.281 C 0.43,-0.314 0.451,-0.345 0.471,-0.374 0.492,-0.403 0.514,-0.43 0.537,-0.456 0.561,-0.481 0.586,-0.505 0.613,-0.528 0.64,-0.551 0.671,-0.574 0.705,-0.597 l 0.073,-0.047 c 0.024,-0.015 0.05,-0.023 0.078,-0.023 0.02,0 0.039,0.004 0.057,0.011 0.018,0.008 0.033,0.018 0.046,0.031 0.013,0.013 0.024,0.028 0.032,0.046 0.008,0.017 0.011,0.036 0.011,0.057 0,0.023 -0.005,0.045 -0.014,0.065 -0.01,0.02 -0.025,0.037 -0.044,0.052 L 0.892,-0.366 C 0.819,-0.311 0.754,-0.248 0.696,-0.176 0.685,-0.163 0.674,-0.149 0.664,-0.135 0.653,-0.121 0.643,-0.107 0.632,-0.093 0.618,-0.075 0.601,-0.06 0.581,-0.05 0.561,-0.04 0.54,-0.035 0.516,-0.035 0.491,-0.035 0.468,-0.041 0.446,-0.053 0.424,-0.065 0.407,-0.082 0.393,-0.103 0.396,-0.106 0.4,-0.109 0.405,-0.114 0.41,-0.119 0.415,-0.124 0.421,-0.129 0.426,-0.135 0.431,-0.14 0.435,-0.145 0.438,-0.15 0.44,-0.154 0.44,-0.158 0.44,-0.163 0.439,-0.167 0.435,-0.17 0.432,-0.174 0.428,-0.175 0.423,-0.175 0.42,-0.175 0.416,-0.174 0.412,-0.171 0.407,-0.168 0.403,-0.164 0.399,-0.16 L 0.377,-0.137 C 0.373,-0.151 0.371,-0.165 0.371,-0.181 c 0,-0.011 0.001,-0.022 0.004,-0.033 0.002,-0.011 0.006,-0.022 0.011,-0.032 0.001,0 0.005,0 0.012,0 h 0.06 c 0.005,0 0.01,-0.001 0.013,-0.005 0.003,-0.003 0.005,-0.007 0.005,-0.012 0,-0.005 -0.002,-0.009 -0.005,-0.013 C 0.468,-0.279 0.463,-0.281 0.458,-0.281 Z m 0.138,0.193 v -0.07 c 0,-0.005 -0.002,-0.009 -0.005,-0.012 -0.004,-0.004 -0.008,-0.006 -0.012,-0.006 -0.005,0 -0.009,0.002 -0.012,0.006 -0.004,0.003 -0.006,0.007 -0.006,0.012 v 0.07 c 0,0.005 0.002,0.009 0.005,0.013 0.004,0.003 0.008,0.005 0.013,0.005 0.004,0 0.008,-0.002 0.012,-0.006 0.003,-0.003 0.005,-0.007 0.005,-0.012 z"
         style="fill:#69eaff;fill-rule:nonzero"
         id="path8742" /><path
         d="m 0.897,-0.579 c 0,0.007 -0.001,0.014 -0.004,0.02 -0.003,0.007 -0.007,0.012 -0.012,0.017 -0.005,0.005 -0.01,0.009 -0.016,0.011 -0.007,0.003 -0.014,0.005 -0.021,0.005 -0.007,0 -0.014,-0.002 -0.02,-0.005 C 0.818,-0.533 0.812,-0.537 0.807,-0.542 0.803,-0.547 0.799,-0.552 0.796,-0.559 0.793,-0.565 0.792,-0.572 0.792,-0.579 c 0,-0.007 0.001,-0.014 0.004,-0.02 0.003,-0.007 0.007,-0.012 0.011,-0.017 0.005,-0.005 0.01,-0.009 0.016,-0.012 0.007,-0.002 0.014,-0.004 0.021,-0.004 0.007,0 0.014,0.002 0.021,0.004 0.006,0.003 0.012,0.007 0.017,0.012 0.004,0.004 0.008,0.01 0.011,0.016 0.003,0.007 0.004,0.014 0.004,0.021 z"
         style="fill:#ffffff;fill-rule:nonzero"
         id="path8744" /></g></g></svg>
