<?xml version="1.0" encoding="UTF-8" standalone="no"?>
<svg
   width="16.844999"
   height="16.844999"
   viewBox="0 0 16.844999 16.844999"
   version="1.1"
   xml:space="preserve"
   style="clip-rule:evenodd;fill-rule:evenodd;stroke-linejoin:round;stroke-miterlimit:2"
   id="svg20568"
   sodipodi:docname="emojis.svg"
   xmlns:inkscape="http://www.inkscape.org/namespaces/inkscape"
   xmlns:sodipodi="http://sodipodi.sourceforge.net/DTD/sodipodi-0.dtd"
   xmlns="http://www.w3.org/2000/svg"
   xmlns:svg="http://www.w3.org/2000/svg"><defs
     id="defs20572" /><sodipodi:namedview
     id="namedview20570"
     pagecolor="#505050"
     bordercolor="#eeeeee"
     borderopacity="1"
     inkscape:pageshadow="0"
     inkscape:pageopacity="0"
     inkscape:pagecheckerboard="0" /><g
     transform="matrix(0.24,0,0,0.24,-777.5622,-404.7618)"
     id="g20566"><g
       transform="matrix(62.5,0,0,62.5,3232.03,1743.57)"
       id="g8764"><path
         d="m 1.248,-0.439 c 0,0.011 -0.002,0.022 -0.006,0.032 -0.003,0.01 -0.009,0.019 -0.016,0.027 L 0.862,0 V 0.21 H 0.512 V 0 L 0.149,-0.378 C 0.133,-0.396 0.125,-0.416 0.125,-0.439 c 0,-0.01 0.002,-0.02 0.005,-0.03 0.004,-0.01 0.009,-0.018 0.015,-0.026 0.007,-0.008 0.014,-0.014 0.023,-0.019 0.008,-0.005 0.018,-0.009 0.028,-0.011 V -0.667 H 0.248 C 0.243,-0.674 0.238,-0.683 0.235,-0.692 0.232,-0.701 0.23,-0.71 0.23,-0.72 c 0,-0.012 0.003,-0.023 0.007,-0.034 0.005,-0.01 0.011,-0.02 0.019,-0.027 0.008,-0.008 0.017,-0.015 0.028,-0.019 0.011,-0.005 0.022,-0.007 0.034,-0.007 h 0.011 l 0.148,0.046 v -0.116 l 0.051,-0.001 c 0.011,0 0.022,0 0.034,0.001 0.011,0.001 0.021,0.003 0.032,0.006 0.006,-0.005 0.013,-0.01 0.021,-0.015 0.007,-0.005 0.015,-0.01 0.023,-0.013 0.008,-0.004 0.016,-0.007 0.025,-0.01 0.008,-0.002 0.016,-0.004 0.024,-0.004 0.009,0 0.017,0.002 0.026,0.004 0.008,0.002 0.016,0.005 0.024,0.009 0.008,0.004 0.015,0.008 0.023,0.014 0.007,0.005 0.014,0.01 0.02,0.015 0.011,-0.003 0.022,-0.005 0.033,-0.006 0.011,-0.001 0.022,-0.001 0.034,-0.001 l 0.051,0.001 v 0.116 l 0.146,-0.046 h 0.011 c 0.012,0 0.024,0.002 0.034,0.007 0.011,0.004 0.02,0.011 0.028,0.019 0.008,0.007 0.014,0.017 0.019,0.027 0.004,0.011 0.007,0.022 0.007,0.034 0,0.01 -0.002,0.019 -0.005,0.028 -0.003,0.009 -0.007,0.018 -0.013,0.025 h 0.054 v 0.143 c 0.01,0.002 0.019,0.005 0.028,0.011 0.008,0.005 0.015,0.011 0.022,0.019 0.006,0.008 0.011,0.016 0.014,0.026 0.003,0.009 0.005,0.019 0.005,0.029 z"
         style="fill-rule:nonzero"
         id="path8748" /><path
         d="m 1.072,-0.72 c 0,0.004 -0.002,0.008 -0.006,0.013 -0.004,0.005 -0.009,0.011 -0.014,0.016 -0.005,0.006 -0.011,0.011 -0.016,0.016 -0.005,0.005 -0.009,0.008 -0.012,0.011 l -0.093,0.096 v 0.322 H 0.44 V -0.568 L 0.347,-0.664 C 0.344,-0.667 0.34,-0.67 0.335,-0.675 0.33,-0.68 0.325,-0.685 0.319,-0.691 0.314,-0.696 0.309,-0.702 0.305,-0.707 0.301,-0.712 0.299,-0.716 0.299,-0.72 c 0,-0.003 0.002,-0.007 0.005,-0.011 0.003,-0.005 0.007,-0.007 0.01,-0.007 0.001,0 0.001,0 0.002,0 0,0.001 0.001,0.001 0.001,0.001 l 0.333,0.105 h 0.071 c 0,0 0.003,-0.001 0.009,-0.003 l 0.044,-0.014 0.031,-0.01 c 0.009,-0.003 0.02,-0.007 0.033,-0.011 0.013,-0.004 0.028,-0.008 0.043,-0.013 0.016,-0.005 0.032,-0.01 0.047,-0.015 0.016,-0.006 0.032,-0.01 0.047,-0.015 0.015,-0.005 0.028,-0.009 0.04,-0.013 0.012,-0.003 0.021,-0.006 0.029,-0.008 0.007,-0.003 0.012,-0.004 0.013,-0.004 0.004,0 0.007,0.002 0.01,0.007 0.003,0.004 0.005,0.008 0.005,0.011 z"
         style="fill:#107c10;fill-rule:nonzero"
         id="path8750" /><path
         d="m 1.072,-0.457 h 0.087 c 0.005,0 0.009,0.002 0.012,0.006 0.004,0.003 0.006,0.007 0.006,0.012 0,0.005 -0.002,0.009 -0.005,0.012 l -0.38,0.392 C 0.786,-0.029 0.781,-0.022 0.776,-0.014 0.772,-0.007 0.767,0 0.761,0.007 L 0.792,0.035 V 0.14 H 0.581 V 0.035 L 0.619,0.006 C 0.612,-0.001 0.606,-0.007 0.6,-0.015 0.594,-0.022 0.588,-0.029 0.581,-0.035 L 0.199,-0.427 C 0.196,-0.43 0.194,-0.434 0.194,-0.439 c 0,-0.005 0.002,-0.009 0.006,-0.012 0.003,-0.004 0.007,-0.006 0.012,-0.006 h 0.087 l 0.387,0.211 z"
         style="fill:#13a10e;fill-rule:nonzero"
         id="path8752" /><rect
         x="0.58099997"
         y="-0.035"
         width="0.211"
         height="0.07"
         style="fill:#ffffff;fill-rule:nonzero"
         id="rect8754" /><path
         d="M 0.651,-0.562 0.582,-0.667 c 0,-0.01 -0.002,-0.02 -0.005,-0.03 -0.003,-0.009 -0.004,-0.019 -0.004,-0.03 0,-0.005 0.001,-0.011 0.002,-0.016 0.002,-0.005 0.004,-0.009 0.008,-0.014 0.003,-0.007 0.01,-0.014 0.018,-0.024 0.009,-0.01 0.018,-0.019 0.028,-0.028 0.01,-0.009 0.021,-0.017 0.031,-0.024 0.01,-0.006 0.019,-0.009 0.027,-0.009 0.007,0 0.016,0.003 0.027,0.01 0.01,0.007 0.021,0.015 0.031,0.024 0.011,0.009 0.02,0.019 0.029,0.029 0.008,0.01 0.015,0.018 0.018,0.025 0.006,0.009 0.009,0.018 0.009,0.027 0,0.011 -0.002,0.021 -0.005,0.031 -0.003,0.01 -0.005,0.02 -0.005,0.03 l -0.069,0.104 z m 0.036,0.141 c 0.007,0 0.016,0.003 0.026,0.009 0.01,0.007 0.021,0.015 0.031,0.024 0.01,0.009 0.02,0.018 0.028,0.028 0.008,0.009 0.015,0.017 0.019,0.024 0.003,0.004 0.005,0.009 0.007,0.014 0.001,0.006 0.002,0.011 0.002,0.017 0,0.01 -0.001,0.02 -0.004,0.03 -0.003,0.009 -0.004,0.019 -0.004,0.029 l -0.07,0.105 H 0.651 L 0.582,-0.248 c 0,-0.009 -0.002,-0.019 -0.004,-0.028 -0.002,-0.01 -0.003,-0.019 -0.003,-0.029 0,-0.007 0.001,-0.014 0.004,-0.02 0.002,-0.007 0.005,-0.013 0.009,-0.019 0.003,-0.005 0.009,-0.012 0.018,-0.021 0.008,-0.009 0.017,-0.018 0.027,-0.026 0.01,-0.008 0.019,-0.015 0.029,-0.021 0.009,-0.006 0.018,-0.009 0.025,-0.009 z"
         style="fill:#ee3f86;fill-rule:nonzero"
         id="path8756" /><path
         d="m 0.687,-0.597 c 0.009,0 0.018,-0.003 0.024,-0.01 0.007,-0.007 0.011,-0.015 0.011,-0.025 v -0.07 c 0,-0.015 0.002,-0.028 0.008,-0.041 0.006,-0.013 0.013,-0.024 0.022,-0.033 0.01,-0.01 0.021,-0.017 0.034,-0.023 0.012,-0.005 0.026,-0.008 0.041,-0.008 v 0.142 c 0,0.02 -0.004,0.038 -0.012,0.054 -0.007,0.017 -0.017,0.032 -0.03,0.044 -0.013,0.013 -0.027,0.023 -0.045,0.03 -0.017,0.007 -0.035,0.011 -0.053,0.011 -0.02,0 -0.038,-0.004 -0.055,-0.011 C 0.615,-0.544 0.6,-0.554 0.587,-0.566 0.575,-0.579 0.565,-0.593 0.557,-0.61 0.55,-0.627 0.546,-0.645 0.546,-0.665 v -0.142 c 0.015,0 0.028,0.003 0.041,0.008 0.013,0.006 0.024,0.013 0.033,0.023 0.01,0.009 0.018,0.02 0.023,0.033 0.006,0.013 0.008,0.026 0.008,0.041 v 0.07 c 0,0.01 0.004,0.018 0.011,0.025 0.006,0.007 0.015,0.01 0.025,0.01 z m 0,0.421 c 0.009,0 0.017,-0.003 0.024,-0.01 0.007,-0.007 0.011,-0.015 0.011,-0.024 v -0.071 c 0,-0.014 0.002,-0.028 0.008,-0.041 0.006,-0.012 0.013,-0.024 0.022,-0.033 0.01,-0.01 0.021,-0.017 0.034,-0.023 0.012,-0.005 0.026,-0.008 0.041,-0.008 v 0.142 c 0,0.02 -0.004,0.038 -0.012,0.054 -0.007,0.017 -0.017,0.032 -0.03,0.044 -0.013,0.013 -0.027,0.023 -0.045,0.03 -0.017,0.007 -0.035,0.011 -0.053,0.011 -0.02,0 -0.038,-0.004 -0.055,-0.011 C 0.615,-0.123 0.6,-0.133 0.587,-0.146 0.575,-0.158 0.565,-0.172 0.557,-0.189 0.55,-0.206 0.546,-0.224 0.546,-0.244 v -0.142 c 0.015,0 0.028,0.003 0.041,0.008 0.013,0.006 0.024,0.013 0.033,0.023 0.01,0.009 0.018,0.021 0.023,0.033 0.006,0.013 0.008,0.027 0.008,0.041 v 0.071 c 0,0.009 0.004,0.017 0.011,0.024 0.007,0.007 0.015,0.01 0.025,0.01 z"
         style="fill:#f495bf;fill-rule:nonzero"
         id="path8758" /><path
         d="m 0.967,-0.632 c 0.007,0 0.016,0.003 0.025,0.009 0.01,0.007 0.02,0.014 0.03,0.023 0.01,0.008 0.019,0.017 0.027,0.026 0.008,0.009 0.014,0.016 0.018,0.022 0.004,0.004 0.006,0.009 0.008,0.015 0.002,0.005 0.003,0.01 0.003,0.016 0,0.011 -0.002,0.022 -0.005,0.032 -0.004,0.011 -0.006,0.021 -0.006,0.032 h 0.006 l -0.071,0.106 h -0.07 l -0.07,-0.106 h 0.005 c 0,-0.011 -0.002,-0.021 -0.005,-0.032 -0.003,-0.01 -0.005,-0.02 -0.005,-0.032 0,-0.005 0.001,-0.011 0.003,-0.016 0.001,-0.005 0.004,-0.01 0.007,-0.015 0.004,-0.006 0.01,-0.013 0.018,-0.022 0.009,-0.009 0.018,-0.018 0.028,-0.026 0.009,-0.009 0.019,-0.016 0.029,-0.023 0.01,-0.006 0.018,-0.009 0.025,-0.009 z m -0.561,0 c 0.007,0 0.015,0.003 0.025,0.009 0.009,0.006 0.019,0.013 0.029,0.022 0.01,0.008 0.019,0.017 0.027,0.026 0.008,0.009 0.014,0.016 0.018,0.021 0.003,0.006 0.006,0.011 0.008,0.015 0.001,0.004 0.002,0.01 0.002,0.016 0,0.006 0,0.012 -0.002,0.017 l -0.007,0.033 c -0.002,0.005 -0.002,0.011 -0.002,0.016 h 0.007 l -0.07,0.106 H 0.371 L 0.3,-0.457 h 0.003 c 0,-0.01 -0.002,-0.02 -0.004,-0.03 -0.003,-0.01 -0.004,-0.02 -0.004,-0.031 0,-0.006 0.001,-0.012 0.003,-0.018 0.002,-0.006 0.005,-0.012 0.008,-0.017 0.004,-0.006 0.01,-0.013 0.018,-0.022 0.008,-0.009 0.017,-0.018 0.027,-0.026 0.01,-0.009 0.02,-0.016 0.03,-0.022 0.01,-0.006 0.018,-0.009 0.025,-0.009 z"
         style="fill:#ffb900;fill-rule:nonzero"
         id="path8760" /><path
         d="m 0.967,-0.386 c 0.01,0 0.018,-0.004 0.025,-0.01 0.007,-0.007 0.01,-0.016 0.01,-0.025 v -0.07 c 0,-0.015 0.003,-0.029 0.009,-0.041 0.005,-0.013 0.013,-0.024 0.022,-0.034 0.01,-0.009 0.021,-0.017 0.033,-0.022 0.013,-0.006 0.027,-0.009 0.041,-0.009 v 0.143 c 0,0.019 -0.003,0.037 -0.011,0.054 -0.007,0.017 -0.017,0.031 -0.03,0.044 -0.013,0.012 -0.028,0.022 -0.045,0.029 -0.017,0.008 -0.035,0.011 -0.054,0.011 -0.019,0 -0.037,-0.003 -0.054,-0.011 C 0.896,-0.334 0.881,-0.344 0.868,-0.356 0.855,-0.368 0.845,-0.383 0.838,-0.4 0.83,-0.417 0.827,-0.435 0.827,-0.454 v -0.143 c 0.014,0 0.028,0.003 0.041,0.009 0.012,0.005 0.024,0.013 0.033,0.022 0.01,0.01 0.017,0.021 0.023,0.034 0.005,0.012 0.008,0.026 0.008,0.041 v 0.07 c 0,0.009 0.004,0.018 0.01,0.025 0.007,0.006 0.016,0.01 0.025,0.01 z m -0.561,0 c 0.01,0 0.018,-0.004 0.025,-0.01 0.007,-0.007 0.01,-0.016 0.01,-0.025 v -0.07 c 0,-0.015 0.003,-0.029 0.008,-0.041 0.006,-0.013 0.013,-0.024 0.023,-0.034 0.009,-0.009 0.02,-0.017 0.033,-0.022 0.013,-0.006 0.026,-0.009 0.041,-0.009 v 0.143 c 0,0.019 -0.004,0.037 -0.011,0.054 -0.008,0.017 -0.018,0.031 -0.031,0.044 -0.012,0.012 -0.027,0.022 -0.044,0.029 -0.017,0.008 -0.035,0.011 -0.054,0.011 -0.019,0 -0.038,-0.003 -0.055,-0.011 C 0.334,-0.334 0.319,-0.344 0.307,-0.356 0.294,-0.368 0.284,-0.383 0.276,-0.4 0.269,-0.417 0.265,-0.435 0.265,-0.454 v -0.143 c 0.015,0 0.028,0.003 0.041,0.009 0.013,0.005 0.024,0.013 0.034,0.022 0.009,0.01 0.017,0.021 0.022,0.034 0.006,0.012 0.009,0.026 0.009,0.041 v 0.07 c 0,0.009 0.003,0.018 0.01,0.025 0.007,0.006 0.015,0.01 0.025,0.01 z"
         style="fill:#fff100;fill-rule:nonzero"
         id="path8762" /></g></g></svg>
