<?xml version="1.0" encoding="UTF-8" standalone="no"?>
<svg
   width="16.844999"
   height="17.145"
   viewBox="0 0 16.844999 17.145"
   version="1.1"
   xml:space="preserve"
   style="clip-rule:evenodd;fill-rule:evenodd;stroke-linejoin:round;stroke-miterlimit:2"
   id="svg20568"
   sodipodi:docname="emojis.svg"
   xmlns:inkscape="http://www.inkscape.org/namespaces/inkscape"
   xmlns:sodipodi="http://sodipodi.sourceforge.net/DTD/sodipodi-0.dtd"
   xmlns="http://www.w3.org/2000/svg"
   xmlns:svg="http://www.w3.org/2000/svg"><defs
     id="defs20572" /><sodipodi:namedview
     id="namedview20570"
     pagecolor="#505050"
     bordercolor="#eeeeee"
     borderopacity="1"
     inkscape:pageshadow="0"
     inkscape:pageopacity="0"
     inkscape:pagecheckerboard="0" /><g
     transform="matrix(0.24,0,0,0.24,-13.213584,-421.4322)"
     id="g20566"><g
       transform="matrix(62.5,0,0,62.5,47.2441,1814.28)"
       id="g8776"><path
         d="M 0.897,0.21 C 0.874,0.21 0.853,0.208 0.833,0.202 0.813,0.197 0.795,0.189 0.777,0.179 0.76,0.169 0.743,0.156 0.729,0.142 0.714,0.127 0.7,0.111 0.687,0.093 0.661,0.129 0.631,0.158 0.596,0.179 0.561,0.2 0.521,0.21 0.476,0.21 H 0.335 V 0.105 H 0.23 V 0.013 c 0,-0.02 0,-0.039 0.001,-0.056 0.001,-0.018 0.004,-0.035 0.008,-0.051 0.004,-0.017 0.009,-0.033 0.017,-0.049 0.007,-0.016 0.017,-0.032 0.03,-0.048 C 0.259,-0.201 0.236,-0.215 0.216,-0.234 0.196,-0.253 0.179,-0.274 0.166,-0.298 0.152,-0.322 0.142,-0.348 0.135,-0.375 0.128,-0.403 0.125,-0.43 0.125,-0.457 V -0.526 H 0.203 L 0.183,-0.587 C 0.198,-0.599 0.212,-0.61 0.226,-0.62 0.24,-0.629 0.255,-0.638 0.27,-0.645 0.285,-0.652 0.3,-0.657 0.317,-0.661 c 0.016,-0.004 0.034,-0.006 0.054,-0.006 0.023,0 0.047,0.003 0.07,0.01 v -0.045 c 0,-0.033 0.005,-0.062 0.017,-0.085 C 0.469,-0.811 0.483,-0.831 0.502,-0.848 0.52,-0.865 0.541,-0.881 0.565,-0.894 0.589,-0.907 0.614,-0.92 0.64,-0.933 l 0.047,0.069 0.045,-0.069 c 0.028,0.014 0.054,0.028 0.078,0.041 0.025,0.014 0.046,0.03 0.064,0.047 0.018,0.017 0.032,0.038 0.043,0.06 0.01,0.023 0.015,0.051 0.015,0.083 v 0.045 c 0.023,-0.007 0.046,-0.01 0.07,-0.01 0.02,0 0.038,0.002 0.054,0.006 0.017,0.004 0.032,0.009 0.047,0.016 0.015,0.008 0.029,0.016 0.043,0.026 0.014,0.009 0.029,0.02 0.044,0.032 l -0.02,0.061 h 0.078 v 0.069 c 0,0.027 -0.003,0.054 -0.01,0.082 -0.007,0.027 -0.017,0.053 -0.031,0.077 -0.013,0.024 -0.03,0.045 -0.05,0.064 -0.02,0.019 -0.043,0.033 -0.07,0.043 0.012,0.014 0.022,0.029 0.029,0.044 0.007,0.015 0.012,0.03 0.016,0.045 0.004,0.016 0.007,0.032 0.008,0.048 0.002,0.016 0.003,0.034 0.003,0.052 V 0.105 H 1.038 V 0.21 Z"
         style="fill-rule:nonzero"
         id="path8766" /><path
         d="m 1.073,-0.457 h 0.105 c 0,0.021 -0.003,0.041 -0.008,0.062 -0.004,0.021 -0.012,0.04 -0.022,0.059 -0.01,0.018 -0.023,0.035 -0.038,0.049 -0.015,0.014 -0.032,0.025 -0.052,0.032 -0.014,0.005 -0.028,0.01 -0.043,0.015 -0.014,0.004 -0.028,0.009 -0.042,0.013 0.014,0.02 0.027,0.037 0.037,0.05 0.011,0.014 0.02,0.026 0.027,0.037 0.008,0.011 0.014,0.021 0.018,0.031 0.005,0.01 0.009,0.021 0.011,0.034 0.003,0.012 0.004,0.028 0.005,0.045 0.001,0.017 0.002,0.039 0.002,0.065 H 0.967 V 0.14 H 0.897 C 0.869,0.14 0.842,0.134 0.818,0.122 0.794,0.11 0.774,0.093 0.757,0.07 L 0.687,-0.023 0.616,0.07 C 0.599,0.093 0.579,0.11 0.554,0.122 0.53,0.134 0.504,0.14 0.476,0.14 H 0.406 V 0.035 H 0.3 V 0.001 c 0,-0.013 0.001,-0.025 0.001,-0.038 0.001,-0.012 0.002,-0.024 0.005,-0.036 0.002,-0.012 0.006,-0.023 0.01,-0.035 0.005,-0.011 0.011,-0.022 0.019,-0.033 L 0.4,-0.227 C 0.386,-0.231 0.371,-0.236 0.357,-0.24 0.343,-0.245 0.329,-0.25 0.315,-0.255 0.295,-0.262 0.277,-0.273 0.262,-0.287 0.248,-0.301 0.235,-0.318 0.225,-0.336 0.215,-0.355 0.208,-0.374 0.203,-0.395 0.198,-0.416 0.195,-0.436 0.195,-0.457 H 0.3 L 0.266,-0.562 c 0.015,-0.011 0.032,-0.02 0.05,-0.026 0.018,-0.006 0.036,-0.009 0.055,-0.009 0.012,0 0.024,0.002 0.036,0.004 0.012,0.002 0.024,0.006 0.035,0.009 0.012,0.004 0.024,0.008 0.035,0.012 0.011,0.004 0.023,0.009 0.034,0.012 v -0.142 c 0,-0.018 0.002,-0.035 0.008,-0.049 0.005,-0.014 0.012,-0.027 0.022,-0.038 0.009,-0.011 0.02,-0.02 0.033,-0.029 0.013,-0.009 0.027,-0.017 0.042,-0.024 l 0.071,0.105 0.07,-0.105 c 0.015,0.008 0.029,0.016 0.042,0.024 0.012,0.009 0.024,0.019 0.033,0.03 0.009,0.011 0.016,0.024 0.022,0.038 0.005,0.014 0.008,0.03 0.008,0.048 V -0.56 C 0.873,-0.563 0.884,-0.568 0.896,-0.572 0.907,-0.576 0.918,-0.58 0.93,-0.584 0.942,-0.587 0.954,-0.591 0.966,-0.593 0.978,-0.595 0.99,-0.597 1.001,-0.597 c 0.02,0 0.038,0.003 0.056,0.009 0.018,0.006 0.035,0.015 0.05,0.026 z"
         style="fill:#f495bf;fill-rule:nonzero"
         id="path8768" /><path
         d="m 0.651,-0.316 c 0,0.008 -0.002,0.014 -0.006,0.02 -0.004,0.006 -0.009,0.01 -0.016,0.013 0.004,0.006 0.006,0.012 0.006,0.019 0,0.01 -0.003,0.018 -0.01,0.024 L 0.501,-0.116 C 0.499,-0.114 0.497,-0.113 0.495,-0.113 0.491,-0.113 0.486,-0.115 0.481,-0.118 0.475,-0.121 0.47,-0.125 0.466,-0.13 0.461,-0.135 0.457,-0.14 0.454,-0.145 0.45,-0.151 0.449,-0.155 0.449,-0.159 c 0,-0.003 0.001,-0.005 0.002,-0.007 L 0.555,-0.269 0.576,-0.281 H 0.441 C 0.438,-0.281 0.435,-0.282 0.433,-0.285 0.431,-0.288 0.43,-0.291 0.429,-0.295 0.428,-0.299 0.427,-0.303 0.427,-0.307 0.426,-0.311 0.426,-0.314 0.426,-0.316 c 0,-0.002 0,-0.005 0.001,-0.009 0,-0.004 0.001,-0.008 0.002,-0.012 0.001,-0.004 0.002,-0.007 0.004,-0.01 0.002,-0.003 0.005,-0.004 0.008,-0.004 H 0.576 L 0.555,-0.363 0.451,-0.467 C 0.45,-0.468 0.449,-0.471 0.449,-0.473 c 0,-0.004 0.001,-0.009 0.005,-0.014 0.003,-0.005 0.007,-0.01 0.012,-0.015 0.004,-0.005 0.009,-0.008 0.015,-0.012 0.005,-0.003 0.01,-0.005 0.014,-0.005 0.002,0 0.004,0.001 0.006,0.003 l 0.124,0.124 c 0.007,0.006 0.01,0.014 0.01,0.024 0,0.007 -0.002,0.014 -0.006,0.019 0.006,0.003 0.012,0.007 0.016,0.013 0.004,0.006 0.006,0.013 0.006,0.02 z m 0.145,-0.035 h 0.136 c 0.003,0 0.006,0.001 0.008,0.004 0.002,0.003 0.003,0.006 0.004,0.01 0.001,0.004 0.002,0.008 0.002,0.012 0.001,0.004 0.001,0.007 0.001,0.009 0,0.002 0,0.005 -0.001,0.009 0,0.004 -0.001,0.008 -0.002,0.012 -0.001,0.004 -0.002,0.007 -0.004,0.01 -0.002,0.003 -0.005,0.004 -0.008,0.004 H 0.796 l 0.021,0.011 0.105,0.104 c 0.002,0.002 0.002,0.004 0.002,0.007 0,0.004 -0.001,0.008 -0.005,0.014 -0.003,0.005 -0.007,0.01 -0.012,0.015 -0.004,0.005 -0.009,0.009 -0.015,0.012 -0.005,0.003 -0.01,0.005 -0.014,0.005 -0.002,0 -0.004,-0.001 -0.006,-0.003 L 0.748,-0.24 C 0.742,-0.246 0.738,-0.254 0.738,-0.264 0.738,-0.271 0.74,-0.277 0.744,-0.283 0.737,-0.286 0.732,-0.29 0.728,-0.296 0.724,-0.302 0.722,-0.308 0.722,-0.316 c 0,-0.007 0.002,-0.014 0.006,-0.02 0.004,-0.006 0.009,-0.01 0.016,-0.013 -0.004,-0.005 -0.006,-0.012 -0.006,-0.019 0,-0.01 0.004,-0.018 0.01,-0.024 l 0.124,-0.124 c 0.002,-0.002 0.004,-0.003 0.006,-0.003 0.004,0 0.009,0.002 0.014,0.005 0.005,0.004 0.01,0.008 0.015,0.012 0.005,0.005 0.009,0.01 0.012,0.015 0.004,0.005 0.005,0.01 0.005,0.014 0,0.002 0,0.005 -0.002,0.006 l -0.105,0.105 z m -0.109,0 c -0.01,0 -0.019,-0.003 -0.025,-0.01 C 0.655,-0.368 0.651,-0.376 0.651,-0.386 v -0.176 c 0,-0.003 0.002,-0.005 0.005,-0.007 0.002,-0.002 0.006,-0.004 0.01,-0.005 0.003,-0.001 0.007,-0.001 0.011,-0.002 0.004,0 0.007,0 0.01,0 0.002,0 0.005,0 0.009,0 0.004,0.001 0.008,0.001 0.012,0.002 0.003,0.001 0.007,0.003 0.01,0.005 0.002,0.002 0.004,0.004 0.004,0.007 v 0.176 c 0,0.01 -0.004,0.018 -0.011,0.025 -0.006,0.007 -0.015,0.01 -0.024,0.01 z m 0,0.07 c 0.009,0 0.018,0.004 0.024,0.01 0.007,0.007 0.011,0.016 0.011,0.025 v 0.176 c 0,0.003 -0.002,0.006 -0.004,0.008 -0.003,0.001 -0.007,0.003 -0.01,0.004 -0.004,0.001 -0.008,0.002 -0.012,0.002 -0.004,0 -0.007,0 -0.009,0 -0.003,0 -0.006,0 -0.01,0 -0.004,0 -0.008,-0.001 -0.011,-0.002 C 0.662,-0.059 0.658,-0.061 0.656,-0.062 0.653,-0.064 0.651,-0.067 0.651,-0.07 v -0.176 c 0,-0.009 0.004,-0.018 0.011,-0.025 0.006,-0.006 0.015,-0.01 0.025,-0.01 z"
         style="fill:#ffffff;fill-rule:nonzero"
         id="path8770" /><path
         d="m 0.687,-0.526 c -0.01,0 -0.019,-0.004 -0.025,-0.011 -0.007,-0.006 -0.011,-0.015 -0.011,-0.025 0,-0.009 0.004,-0.018 0.011,-0.024 0.006,-0.007 0.015,-0.011 0.025,-0.011 0.009,0 0.018,0.004 0.024,0.011 0.007,0.006 0.011,0.015 0.011,0.024 0,0.01 -0.004,0.019 -0.011,0.025 -0.006,0.007 -0.015,0.011 -0.024,0.011 z m 0,0.421 c 0.009,0 0.018,0.003 0.024,0.01 0.007,0.007 0.011,0.015 0.011,0.025 0,0.009 -0.004,0.018 -0.011,0.025 -0.006,0.006 -0.015,0.01 -0.024,0.01 -0.01,0 -0.019,-0.004 -0.025,-0.01 -0.007,-0.007 -0.011,-0.016 -0.011,-0.025 0,-0.01 0.004,-0.018 0.011,-0.025 0.006,-0.007 0.015,-0.01 0.025,-0.01 z m 0.245,-0.246 c 0.01,0 0.018,0.003 0.025,0.01 0.007,0.007 0.01,0.015 0.01,0.025 0,0.01 -0.003,0.018 -0.01,0.025 -0.007,0.007 -0.015,0.01 -0.025,0.01 -0.01,0 -0.018,-0.003 -0.025,-0.01 -0.007,-0.007 -0.01,-0.015 -0.01,-0.025 0,-0.01 0.003,-0.018 0.01,-0.025 0.007,-0.007 0.015,-0.01 0.025,-0.01 z m 0,-0.14 c 0,0.009 -0.003,0.017 -0.01,0.024 -0.007,0.007 -0.016,0.01 -0.025,0.01 -0.009,0 -0.018,-0.003 -0.025,-0.01 -0.007,-0.007 -0.01,-0.015 -0.01,-0.024 0,-0.01 0.003,-0.018 0.01,-0.025 0.007,-0.007 0.016,-0.01 0.025,-0.01 0.009,0 0.018,0.003 0.025,0.01 0.007,0.007 0.01,0.015 0.01,0.025 z m -0.456,0.175 c 0,0.01 -0.003,0.018 -0.01,0.025 -0.007,0.007 -0.015,0.01 -0.025,0.01 -0.01,0 -0.018,-0.003 -0.025,-0.01 -0.007,-0.007 -0.01,-0.015 -0.01,-0.025 0,-0.01 0.003,-0.018 0.01,-0.025 0.007,-0.007 0.015,-0.01 0.025,-0.01 0.01,0 0.018,0.003 0.025,0.01 0.007,0.007 0.01,0.015 0.01,0.025 z M 0.441,-0.491 c 0,-0.01 0.003,-0.018 0.01,-0.025 0.007,-0.007 0.015,-0.01 0.025,-0.01 0.01,0 0.018,0.003 0.025,0.01 0.007,0.007 0.01,0.015 0.01,0.025 0,0.009 -0.003,0.017 -0.01,0.024 -0.007,0.007 -0.015,0.01 -0.025,0.01 -0.009,0 -0.018,-0.003 -0.025,-0.01 -0.007,-0.007 -0.01,-0.015 -0.01,-0.024 z m 0,0.35 c 0,-0.009 0.003,-0.017 0.01,-0.024 0.007,-0.007 0.016,-0.011 0.025,-0.011 0.01,0 0.018,0.004 0.025,0.01 0.007,0.007 0.01,0.016 0.01,0.025 0,0.01 -0.003,0.018 -0.01,0.025 -0.007,0.007 -0.015,0.011 -0.025,0.011 -0.01,0 -0.018,-0.004 -0.025,-0.011 -0.007,-0.007 -0.01,-0.015 -0.01,-0.025 z m 0.421,0 c 0,-0.009 0.003,-0.018 0.01,-0.025 0.007,-0.006 0.015,-0.01 0.025,-0.01 0.009,0 0.018,0.004 0.025,0.011 0.007,0.007 0.01,0.015 0.01,0.024 0,0.01 -0.003,0.018 -0.01,0.025 -0.007,0.007 -0.016,0.011 -0.025,0.011 -0.01,0 -0.018,-0.004 -0.025,-0.011 -0.007,-0.007 -0.01,-0.015 -0.01,-0.025 z M 0.687,-0.457 c 0.019,0 0.037,0.004 0.054,0.011 0.017,0.008 0.032,0.018 0.045,0.03 0.012,0.013 0.022,0.028 0.03,0.045 0.007,0.017 0.011,0.036 0.011,0.055 0,0.02 -0.004,0.038 -0.011,0.055 -0.008,0.017 -0.018,0.032 -0.03,0.044 -0.013,0.013 -0.028,0.023 -0.045,0.03 -0.017,0.008 -0.035,0.011 -0.054,0.011 -0.02,0 -0.038,-0.003 -0.055,-0.011 C 0.615,-0.194 0.6,-0.204 0.587,-0.217 0.574,-0.229 0.564,-0.244 0.557,-0.261 0.55,-0.278 0.546,-0.296 0.546,-0.316 c 0,-0.019 0.004,-0.038 0.011,-0.055 0.007,-0.017 0.017,-0.032 0.03,-0.045 0.013,-0.012 0.028,-0.022 0.045,-0.03 0.017,-0.007 0.035,-0.011 0.055,-0.011 z"
         style="fill:#ee3f86;fill-rule:nonzero"
         id="path8772" /><path
         d="m 0.757,-0.316 c 0,0.01 -0.002,0.019 -0.006,0.027 C 0.747,-0.28 0.742,-0.273 0.736,-0.266 0.73,-0.26 0.722,-0.255 0.714,-0.251 0.705,-0.247 0.696,-0.246 0.687,-0.246 0.677,-0.246 0.668,-0.247 0.659,-0.251 0.651,-0.255 0.643,-0.26 0.637,-0.266 0.631,-0.273 0.626,-0.28 0.622,-0.289 0.618,-0.297 0.616,-0.306 0.616,-0.316 c 0,-0.01 0.002,-0.019 0.006,-0.027 0.003,-0.009 0.008,-0.016 0.014,-0.022 0.007,-0.007 0.014,-0.012 0.023,-0.016 0.009,-0.003 0.018,-0.005 0.028,-0.005 0.009,0 0.018,0.002 0.027,0.005 0.008,0.004 0.016,0.009 0.022,0.016 0.006,0.006 0.011,0.013 0.015,0.022 0.004,0.008 0.006,0.017 0.006,0.027 z"
         style="fill:#c30052;fill-rule:nonzero"
         id="path8774" /></g></g></svg>
