<?xml version="1.0" encoding="UTF-8" standalone="no"?>
<svg
   width="16.844999"
   height="17.145"
   viewBox="0 0 16.844999 17.145"
   version="1.1"
   xml:space="preserve"
   style="clip-rule:evenodd;fill-rule:evenodd;stroke-linejoin:round;stroke-miterlimit:2"
   id="svg20568"
   sodipodi:docname="emojis.svg"
   xmlns:inkscape="http://www.inkscape.org/namespaces/inkscape"
   xmlns:sodipodi="http://sodipodi.sourceforge.net/DTD/sodipodi-0.dtd"
   xmlns="http://www.w3.org/2000/svg"
   xmlns:svg="http://www.w3.org/2000/svg"><defs
     id="defs20572" /><sodipodi:namedview
     id="namedview20570"
     pagecolor="#505050"
     bordercolor="#eeeeee"
     borderopacity="1"
     inkscape:pageshadow="0"
     inkscape:pageopacity="0"
     inkscape:pagecheckerboard="0" /><g
     transform="matrix(0.24,0,0,0.24,-33.8094,-421.4322)"
     id="g20566"><g
       transform="matrix(62.5,0,0,62.5,133.06,1814.28)"
       id="g8784"><path
         d="M 0.897,0.21 C 0.878,0.21 0.859,0.208 0.841,0.204 0.822,0.199 0.805,0.193 0.788,0.185 0.772,0.193 0.756,0.199 0.739,0.204 0.721,0.208 0.704,0.21 0.687,0.21 0.669,0.21 0.652,0.208 0.635,0.204 0.617,0.199 0.601,0.193 0.585,0.185 0.569,0.193 0.551,0.199 0.532,0.204 0.514,0.208 0.495,0.21 0.476,0.21 H 0.335 V 0.105 H 0.23 V 0.017 -0.005 c 0,-0.013 0,-0.026 0.001,-0.038 C 0.209,-0.062 0.191,-0.084 0.179,-0.11 0.166,-0.136 0.16,-0.164 0.16,-0.193 0.16,-0.208 0.162,-0.222 0.165,-0.236 0.168,-0.25 0.173,-0.264 0.179,-0.277 0.166,-0.297 0.156,-0.316 0.148,-0.335 0.141,-0.354 0.135,-0.373 0.132,-0.393 0.129,-0.412 0.127,-0.432 0.126,-0.452 0.125,-0.473 0.125,-0.494 0.125,-0.517 v -0.009 h 0.078 l -0.02,-0.061 c 0.013,-0.01 0.027,-0.021 0.04,-0.031 0.014,-0.011 0.029,-0.019 0.045,-0.026 0.003,-0.025 0.011,-0.047 0.023,-0.067 0.012,-0.021 0.026,-0.038 0.044,-0.052 0.018,-0.014 0.037,-0.025 0.06,-0.032 0.022,-0.008 0.045,-0.012 0.07,-0.012 H 0.468 C 0.477,-0.821 0.487,-0.834 0.499,-0.845 0.51,-0.857 0.523,-0.867 0.536,-0.876 0.549,-0.885 0.563,-0.894 0.578,-0.901 0.592,-0.909 0.607,-0.916 0.622,-0.924 l 0.018,-0.009 0.047,0.069 0.045,-0.069 0.02,0.01 c 0.015,0.007 0.029,0.015 0.044,0.022 0.014,0.008 0.028,0.016 0.041,0.025 0.013,0.009 0.026,0.019 0.037,0.031 0.012,0.011 0.022,0.024 0.031,0.038 h 0.011 c 0.023,0 0.046,0.004 0.067,0.012 0.021,0.009 0.041,0.02 0.058,0.035 0.016,0.014 0.031,0.031 0.042,0.051 0.011,0.02 0.019,0.042 0.022,0.065 0.016,0.007 0.031,0.015 0.045,0.025 0.013,0.011 0.027,0.021 0.04,0.032 l -0.02,0.061 h 0.078 v 0.069 c 0,0.032 -0.005,0.063 -0.014,0.094 -0.01,0.031 -0.023,0.06 -0.041,0.086 0.013,0.026 0.02,0.054 0.02,0.084 0,0.029 -0.006,0.057 -0.019,0.083 -0.012,0.026 -0.03,0.048 -0.052,0.067 0.001,0.012 0.001,0.025 0.001,0.038 v 0.11 H 1.038 V 0.21 Z"
         style="fill-rule:nonzero"
         id="path8778" /><path
         d="m 1.083,-0.286 c 0.006,0.006 0.012,0.012 0.018,0.02 0.005,0.007 0.01,0.015 0.014,0.023 0.004,0.008 0.007,0.016 0.01,0.025 0.003,0.009 0.004,0.017 0.004,0.025 0,0.012 -0.002,0.024 -0.007,0.034 -0.004,0.011 -0.011,0.02 -0.018,0.028 -0.008,0.009 -0.017,0.016 -0.026,0.022 -0.01,0.007 -0.02,0.012 -0.031,0.016 0.003,0.012 0.005,0.024 0.005,0.037 10e-4,0.012 10e-4,0.025 10e-4,0.037 v 0.035 h -0.1 v 0.105 c -0.011,0 -0.022,0 -0.034,0.001 C 0.908,0.123 0.897,0.124 0.886,0.124 0.866,0.124 0.847,0.119 0.829,0.11 0.811,0.1 0.795,0.09 0.78,0.077 0.774,0.083 0.767,0.089 0.76,0.095 0.753,0.101 0.745,0.106 0.737,0.111 0.729,0.116 0.721,0.12 0.712,0.122 0.703,0.125 0.694,0.126 0.685,0.126 0.676,0.126 0.667,0.125 0.659,0.122 0.65,0.12 0.642,0.116 0.635,0.111 0.627,0.106 0.62,0.101 0.613,0.095 0.606,0.089 0.599,0.083 0.593,0.077 0.579,0.089 0.566,0.097 0.553,0.104 0.541,0.11 0.528,0.115 0.514,0.118 0.501,0.121 0.487,0.122 0.473,0.123 0.458,0.123 0.443,0.124 0.426,0.124 V 0.017 H 0.32 C 0.32,0.005 0.319,-0.006 0.319,-0.017 0.318,-0.029 0.318,-0.04 0.318,-0.051 c 0,-0.006 0,-0.013 0.001,-0.02 0,-0.006 0.001,-0.013 0.003,-0.019 C 0.3,-0.099 0.283,-0.112 0.269,-0.128 0.255,-0.145 0.249,-0.166 0.249,-0.19 0.249,-0.198 0.25,-0.207 0.251,-0.215 0.253,-0.224 0.256,-0.233 0.26,-0.241 0.264,-0.25 0.268,-0.258 0.273,-0.265 0.278,-0.273 0.284,-0.28 0.29,-0.285 0.278,-0.295 0.268,-0.305 0.259,-0.317 0.25,-0.329 0.242,-0.341 0.235,-0.354 0.228,-0.367 0.223,-0.381 0.219,-0.396 0.215,-0.41 0.213,-0.424 0.213,-0.439 h 0.11 L 0.287,-0.551 c 0.009,-0.007 0.02,-0.013 0.031,-0.019 0.011,-0.005 0.023,-0.009 0.035,-0.011 v -0.035 c 0,-0.015 0.003,-0.029 0.008,-0.041 0.005,-0.013 0.012,-0.024 0.022,-0.034 0.009,-0.009 0.02,-0.016 0.033,-0.021 0.012,-0.006 0.026,-0.008 0.042,-0.008 0.011,0 0.021,0.001 0.032,0.003 0.011,0.003 0.021,0.007 0.031,0.012 0.004,-0.029 0.014,-0.053 0.03,-0.071 0.016,-0.019 0.037,-0.034 0.062,-0.047 l 0.075,0.122 0.075,-0.12 c 0.025,0.012 0.045,0.027 0.06,0.046 0.015,0.018 0.025,0.041 0.029,0.07 0.009,-0.005 0.02,-0.008 0.03,-0.011 0.011,-0.002 0.021,-0.004 0.032,-0.004 0.016,0 0.03,0.003 0.042,0.009 0.013,0.006 0.024,0.015 0.035,0.026 0.012,0.012 0.019,0.025 0.023,0.039 0.004,0.014 0.006,0.029 0.006,0.045 v 0.02 c 0.012,0.002 0.024,0.006 0.035,0.011 0.011,0.005 0.022,0.012 0.031,0.019 L 1.048,-0.44 H 1.16 c 0,0.015 -0.002,0.03 -0.006,0.044 -0.004,0.015 -0.009,0.029 -0.016,0.042 -0.007,0.013 -0.015,0.026 -0.024,0.037 -0.009,0.012 -0.019,0.022 -0.031,0.031 z"
         style="fill:#ffffff;fill-rule:nonzero"
         id="path8780" /><path
         d="m 1.104,-0.282 c 0.013,0.012 0.022,0.025 0.029,0.041 0.006,0.015 0.01,0.031 0.01,0.048 0,0.012 -0.002,0.024 -0.006,0.036 -0.003,0.011 -0.009,0.022 -0.015,0.032 -0.007,0.01 -0.015,0.019 -0.024,0.027 -0.01,0.008 -0.02,0.014 -0.032,0.018 0.003,0.013 0.005,0.025 0.006,0.038 10e-4,0.012 10e-4,0.025 10e-4,0.037 v 0.04 H 0.967 V 0.14 L 0.918,0.141 C 0.905,0.141 0.893,0.14 0.881,0.139 0.87,0.138 0.858,0.136 0.847,0.133 0.837,0.13 0.826,0.126 0.816,0.121 0.805,0.115 0.795,0.108 0.785,0.1 0.772,0.113 0.757,0.123 0.74,0.13 0.723,0.137 0.705,0.14 0.687,0.14 0.668,0.14 0.65,0.137 0.633,0.13 0.616,0.123 0.601,0.113 0.588,0.1 0.577,0.108 0.567,0.115 0.557,0.121 0.546,0.126 0.535,0.13 0.524,0.133 0.513,0.136 0.502,0.138 0.49,0.139 0.478,0.14 0.466,0.141 0.453,0.141 L 0.406,0.14 V 0.035 H 0.3 V 0.002 C 0.3,-0.011 0.301,-0.025 0.301,-0.039 0.302,-0.052 0.304,-0.066 0.307,-0.08 0.295,-0.084 0.285,-0.09 0.275,-0.098 0.266,-0.106 0.258,-0.115 0.251,-0.125 0.245,-0.135 0.239,-0.146 0.236,-0.157 0.232,-0.169 0.23,-0.181 0.23,-0.193 0.23,-0.21 0.234,-0.226 0.24,-0.241 0.247,-0.257 0.256,-0.27 0.269,-0.282 0.256,-0.292 0.245,-0.304 0.236,-0.317 0.227,-0.331 0.22,-0.346 0.213,-0.361 0.207,-0.377 0.203,-0.392 0.2,-0.409 0.197,-0.425 0.195,-0.441 0.195,-0.457 H 0.3 L 0.266,-0.562 c 0.01,-0.007 0.021,-0.014 0.033,-0.019 0.012,-0.005 0.024,-0.009 0.036,-0.012 v -0.021 c 0,-0.017 0.004,-0.033 0.01,-0.048 0.007,-0.015 0.016,-0.028 0.027,-0.039 0.011,-0.011 0.024,-0.02 0.039,-0.027 0.015,-0.006 0.031,-0.009 0.047,-0.009 0.01,0 0.019,0.001 0.028,0.003 0.009,0.002 0.018,0.006 0.027,0.01 0.002,-0.015 0.006,-0.029 0.012,-0.041 0.006,-0.011 0.014,-0.022 0.023,-0.031 0.009,-0.01 0.02,-0.018 0.032,-0.026 0.011,-0.007 0.024,-0.014 0.036,-0.02 l 0.071,0.105 0.07,-0.105 c 0.012,0.006 0.024,0.013 0.036,0.021 0.012,0.007 0.022,0.016 0.031,0.025 0.01,0.01 0.018,0.02 0.024,0.032 0.006,0.012 0.01,0.025 0.012,0.04 0.017,-0.009 0.035,-0.013 0.055,-0.013 0.016,0 0.032,0.003 0.047,0.009 0.015,0.007 0.028,0.016 0.039,0.027 0.011,0.011 0.02,0.024 0.027,0.039 0.006,0.015 0.01,0.031 0.01,0.048 v 0.021 c 0.012,0.003 0.024,0.007 0.036,0.012 0.012,0.005 0.023,0.012 0.033,0.019 l -0.034,0.105 h 0.105 c 0,0.016 -0.002,0.032 -0.005,0.048 -0.003,0.017 -0.008,0.032 -0.014,0.048 -0.006,0.015 -0.013,0.03 -0.023,0.044 -0.009,0.013 -0.019,0.025 -0.032,0.035 z M 0.932,0 H 1.038 C 1.038,-0.018 1.037,-0.036 1.035,-0.054 1.033,-0.072 1.028,-0.089 1.019,-0.105 1.014,-0.114 1.008,-0.122 1.001,-0.13 0.995,-0.138 0.989,-0.146 0.983,-0.154 L 0.916,-0.244 1.047,-0.288 C 1.06,-0.293 1.072,-0.3 1.083,-0.309 1.093,-0.319 1.102,-0.33 1.11,-0.342 1.118,-0.354 1.124,-0.367 1.129,-0.381 1.134,-0.395 1.137,-0.408 1.14,-0.421 H 1.024 L 1.065,-0.546 C 1.056,-0.552 1.045,-0.555 1.035,-0.558 1.024,-0.56 1.013,-0.562 1.002,-0.562 c -0.015,0 -0.03,0.003 -0.044,0.008 L 0.827,-0.511 V -0.702 C 0.827,-0.725 0.822,-0.743 0.812,-0.758 0.802,-0.772 0.787,-0.785 0.768,-0.796 L 0.687,-0.667 0.605,-0.796 C 0.596,-0.79 0.587,-0.784 0.58,-0.778 0.573,-0.772 0.567,-0.765 0.562,-0.757 0.556,-0.75 0.552,-0.742 0.55,-0.733 0.547,-0.724 0.546,-0.714 0.546,-0.702 v 0.191 L 0.415,-0.554 C 0.401,-0.559 0.386,-0.562 0.371,-0.562 c -0.01,0 -0.021,0.002 -0.033,0.005 -0.011,0.003 -0.022,0.007 -0.03,0.011 0.006,0.021 0.013,0.042 0.02,0.063 0.007,0.02 0.014,0.041 0.021,0.062 H 0.233 c 0.003,0.013 0.006,0.027 0.011,0.04 0.005,0.014 0.011,0.027 0.018,0.039 0.008,0.013 0.017,0.023 0.028,0.033 0.01,0.009 0.023,0.016 0.036,0.021 l 0.132,0.044 -0.094,0.124 c -0.007,0.009 -0.012,0.019 -0.016,0.028 -0.004,0.01 -0.007,0.02 -0.008,0.03 -0.002,0.01 -0.003,0.02 -0.004,0.03 0,0.011 -0.001,0.021 -0.001,0.032 H 0.441 V 0.105 H 0.476 C 0.498,0.105 0.519,0.1 0.539,0.09 0.558,0.08 0.575,0.066 0.588,0.049 L 0.687,-0.082 0.785,0.049 C 0.798,0.066 0.815,0.08 0.834,0.09 0.854,0.1 0.875,0.105 0.897,0.105 H 0.932 Z M 0.862,-0.684 V -0.56 C 0.873,-0.563 0.885,-0.567 0.896,-0.572 0.908,-0.576 0.919,-0.58 0.931,-0.584 0.943,-0.587 0.955,-0.591 0.967,-0.593 0.978,-0.595 0.99,-0.597 1.002,-0.597 V -0.614 C 1.002,-0.626 1,-0.638 0.996,-0.648 0.991,-0.659 0.985,-0.669 0.977,-0.677 0.969,-0.684 0.959,-0.691 0.949,-0.695 0.938,-0.7 0.927,-0.702 0.915,-0.702 c -0.01,0 -0.019,0.001 -0.028,0.005 -0.009,0.003 -0.018,0.007 -0.025,0.013 z m -0.491,0.07 v 0.017 c 0.012,0 0.024,0.002 0.035,0.004 0.012,0.002 0.024,0.006 0.036,0.009 0.012,0.004 0.023,0.008 0.035,0.012 0.011,0.004 0.022,0.009 0.034,0.012 V -0.684 C 0.503,-0.69 0.495,-0.694 0.486,-0.697 0.477,-0.701 0.468,-0.702 0.458,-0.702 c -0.012,0 -0.023,0.002 -0.034,0.007 -0.011,0.004 -0.02,0.011 -0.028,0.018 -0.008,0.008 -0.014,0.018 -0.019,0.029 -0.004,0.01 -0.006,0.022 -0.006,0.034 z m -0.106,0.421 c 0,0.017 0.005,0.033 0.015,0.048 0.01,0.015 0.023,0.026 0.039,0.033 C 0.33,-0.133 0.343,-0.152 0.357,-0.171 0.372,-0.189 0.386,-0.208 0.4,-0.227 0.383,-0.232 0.366,-0.238 0.349,-0.243 0.332,-0.248 0.316,-0.255 0.299,-0.262 0.289,-0.254 0.281,-0.244 0.274,-0.232 0.268,-0.22 0.265,-0.207 0.265,-0.193 Z m 0.789,0.081 c 0.017,-0.007 0.03,-0.018 0.039,-0.033 0.01,-0.015 0.014,-0.031 0.014,-0.048 0,-0.014 -0.003,-0.027 -0.009,-0.039 -0.006,-0.012 -0.014,-0.022 -0.025,-0.03 -0.016,0.008 -0.032,0.014 -0.049,0.019 -0.017,0.005 -0.034,0.011 -0.051,0.016 0.014,0.019 0.028,0.038 0.043,0.056 0.014,0.019 0.027,0.038 0.038,0.059 z M 0.687,0.105 C 0.7,0.105 0.714,0.102 0.727,0.097 0.74,0.092 0.751,0.084 0.76,0.075 0.748,0.058 0.736,0.042 0.724,0.026 0.711,0.01 0.699,-0.007 0.687,-0.023 L 0.616,0.07 0.612,0.075 c 0.01,0.009 0.021,0.017 0.034,0.022 0.014,0.005 0.027,0.008 0.041,0.008 z m 0,-0.456 c 0.009,0 0.018,0.003 0.024,0.01 0.007,0.007 0.011,0.015 0.011,0.025 0,0.01 -0.004,0.018 -0.011,0.025 -0.006,0.007 -0.015,0.01 -0.024,0.01 -0.01,0 -0.019,-0.003 -0.025,-0.01 -0.007,-0.007 -0.011,-0.015 -0.011,-0.025 0,-0.01 0.004,-0.018 0.011,-0.025 0.006,-0.007 0.015,-0.01 0.025,-0.01 z m -0.141,0 c 0.01,0 0.018,0.003 0.025,0.01 0.007,0.007 0.01,0.015 0.01,0.025 0,0.01 -0.003,0.018 -0.01,0.025 -0.007,0.007 -0.015,0.01 -0.025,0.01 -0.01,0 -0.018,-0.003 -0.025,-0.01 -0.006,-0.007 -0.01,-0.015 -0.01,-0.025 0,-0.009 0.004,-0.018 0.01,-0.025 0.007,-0.007 0.015,-0.01 0.025,-0.01 z m 0.141,-0.14 c 0.009,0 0.017,0.003 0.024,0.01 0.007,0.007 0.011,0.015 0.011,0.024 0,0.01 -0.004,0.019 -0.011,0.025 -0.006,0.007 -0.015,0.011 -0.024,0.011 -0.01,0 -0.019,-0.004 -0.025,-0.011 -0.007,-0.006 -0.011,-0.015 -0.011,-0.025 0,-0.009 0.004,-0.017 0.011,-0.024 0.007,-0.007 0.015,-0.01 0.025,-0.01 z m 0.14,0.14 c 0.009,0 0.018,0.003 0.025,0.01 0.006,0.007 0.01,0.015 0.01,0.025 0,0.01 -0.004,0.018 -0.01,0.025 -0.007,0.007 -0.016,0.01 -0.025,0.01 -0.01,0 -0.018,-0.003 -0.025,-0.01 -0.007,-0.007 -0.01,-0.015 -0.01,-0.025 0,-0.009 0.003,-0.018 0.01,-0.025 0.007,-0.007 0.015,-0.01 0.025,-0.01 z m -0.14,0.141 c 0.009,0 0.017,0.003 0.024,0.01 0.007,0.007 0.011,0.015 0.011,0.024 0,0.01 -0.004,0.018 -0.011,0.025 -0.006,0.007 -0.015,0.01 -0.024,0.01 -0.01,0 -0.019,-0.003 -0.025,-0.01 -0.007,-0.007 -0.011,-0.015 -0.011,-0.025 0,-0.009 0.004,-0.017 0.011,-0.024 0.007,-0.007 0.015,-0.01 0.025,-0.01 z m 0.14,-0.281 c 0.009,0 0.017,0.003 0.024,0.01 0.007,0.007 0.011,0.015 0.011,0.024 0,0.01 -0.004,0.019 -0.01,0.025 -0.007,0.007 -0.016,0.011 -0.025,0.011 -0.01,0 -0.018,-0.004 -0.025,-0.011 -0.007,-0.007 -0.01,-0.015 -0.01,-0.025 0,-0.009 0.003,-0.017 0.01,-0.024 0.007,-0.007 0.015,-0.01 0.025,-0.01 z m -0.281,0 c 0.009,0 0.018,0.003 0.025,0.01 0.007,0.007 0.01,0.015 0.01,0.024 0,0.01 -0.003,0.019 -0.01,0.025 -0.007,0.007 -0.015,0.011 -0.025,0.011 -0.01,0 -0.018,-0.004 -0.025,-0.011 -0.006,-0.007 -0.01,-0.015 -0.01,-0.025 0,-0.009 0.004,-0.017 0.01,-0.024 0.007,-0.007 0.015,-0.01 0.025,-0.01 z"
         style="fill:#f03a17;fill-rule:nonzero"
         id="path8782" /></g></g></svg>
