<?xml version="1.0" encoding="UTF-8" standalone="no"?>
<svg
   width="16.844999"
   height="17.145"
   viewBox="0 0 16.844999 17.145"
   version="1.1"
   xml:space="preserve"
   style="clip-rule:evenodd;fill-rule:evenodd;stroke-linejoin:round;stroke-miterlimit:2"
   id="svg20568"
   sodipodi:docname="emojis.svg"
   xmlns:inkscape="http://www.inkscape.org/namespaces/inkscape"
   xmlns:sodipodi="http://sodipodi.sourceforge.net/DTD/sodipodi-0.dtd"
   xmlns="http://www.w3.org/2000/svg"
   xmlns:svg="http://www.w3.org/2000/svg"><defs
     id="defs20572" /><sodipodi:namedview
     id="namedview20570"
     pagecolor="#505050"
     bordercolor="#eeeeee"
     borderopacity="1"
     inkscape:pageshadow="0"
     inkscape:pageopacity="0"
     inkscape:pagecheckerboard="0" /><g
     transform="matrix(0.24,0,0,0.24,-54.405,-421.4322)"
     id="g20566"><g
       transform="matrix(62.5,0,0,62.5,218.875,1814.28)"
       id="g8796"><path
         d="M 0.897,0.21 C 0.878,0.21 0.859,0.208 0.841,0.204 0.822,0.199 0.805,0.193 0.788,0.185 0.772,0.193 0.756,0.199 0.739,0.204 0.721,0.208 0.704,0.21 0.687,0.21 0.669,0.21 0.652,0.208 0.635,0.204 0.617,0.199 0.601,0.193 0.585,0.185 0.569,0.193 0.551,0.199 0.532,0.204 0.514,0.208 0.495,0.21 0.476,0.21 H 0.335 V 0.105 H 0.231 C 0.231,0.089 0.23,0.073 0.23,0.057 0.23,0.041 0.229,0.025 0.229,0.009 0.229,0 0.23,-0.008 0.23,-0.017 c 0,-0.009 0,-0.018 0.001,-0.026 C 0.208,-0.062 0.191,-0.084 0.178,-0.11 0.166,-0.136 0.16,-0.164 0.16,-0.193 0.16,-0.208 0.162,-0.222 0.165,-0.236 0.168,-0.25 0.173,-0.264 0.179,-0.277 0.166,-0.297 0.156,-0.316 0.148,-0.334 0.141,-0.353 0.136,-0.372 0.132,-0.391 0.129,-0.41 0.127,-0.429 0.126,-0.449 0.125,-0.469 0.125,-0.49 0.125,-0.512 V -0.526 H 0.203 L 0.183,-0.587 C 0.196,-0.598 0.21,-0.608 0.224,-0.618 0.237,-0.628 0.252,-0.637 0.268,-0.644 0.271,-0.667 0.279,-0.689 0.291,-0.709 0.302,-0.729 0.316,-0.747 0.333,-0.761 0.35,-0.775 0.369,-0.787 0.39,-0.795 0.412,-0.803 0.434,-0.807 0.458,-0.807 h 0.01 c 0.009,-0.015 0.02,-0.029 0.033,-0.04 0.012,-0.012 0.026,-0.023 0.04,-0.033 0.014,-0.009 0.029,-0.018 0.044,-0.026 0.016,-0.008 0.031,-0.016 0.047,-0.023 l 0.008,-0.004 0.047,0.069 0.045,-0.069 c 0.016,0.008 0.032,0.016 0.049,0.024 0.016,0.008 0.032,0.017 0.047,0.027 0.015,0.01 0.029,0.021 0.042,0.033 0.013,0.012 0.025,0.026 0.034,0.042 h 0.011 c 0.023,0 0.046,0.004 0.068,0.012 0.021,0.008 0.041,0.02 0.058,0.034 0.016,0.014 0.031,0.032 0.042,0.052 0.011,0.02 0.019,0.042 0.022,0.065 0.016,0.007 0.031,0.016 0.044,0.026 0.014,0.01 0.027,0.02 0.041,0.031 l -0.02,0.061 h 0.078 v 0.069 c 0,0.032 -0.005,0.063 -0.014,0.094 -0.01,0.031 -0.023,0.06 -0.041,0.086 0.013,0.026 0.02,0.054 0.02,0.084 0,0.029 -0.006,0.057 -0.018,0.083 -0.013,0.026 -0.03,0.048 -0.053,0.067 0,0.003 0.001,0.007 0.001,0.01 0,0.003 0,0.006 0,0.01 0,0.022 0,0.043 0,0.064 0,0.021 -0.001,0.042 -0.001,0.064 H 1.038 V 0.21 Z"
         style="fill-rule:nonzero"
         id="path8786" /><path
         d="M 0.546,0 V -0.168 H 0.827 V 0 C 0.827,0.02 0.823,0.038 0.816,0.055 0.808,0.072 0.798,0.086 0.786,0.099 0.773,0.112 0.758,0.122 0.741,0.129 0.724,0.136 0.706,0.14 0.687,0.14 0.667,0.14 0.649,0.136 0.632,0.129 0.615,0.122 0.6,0.112 0.587,0.099 0.574,0.086 0.564,0.072 0.557,0.055 0.55,0.038 0.546,0.02 0.546,0 Z M 1.038,-0.572 C 1.032,-0.565 1.026,-0.557 1.02,-0.55 1.014,-0.542 1.008,-0.535 1.001,-0.527 0.985,-0.509 0.968,-0.492 0.95,-0.475 0.932,-0.458 0.915,-0.441 0.897,-0.423 L 0.724,-0.597 0.828,-0.701 c 0.011,-0.012 0.024,-0.02 0.039,-0.027 0.016,-0.006 0.031,-0.009 0.048,-0.009 0.016,0 0.032,0.003 0.047,0.009 0.015,0.007 0.028,0.016 0.039,0.027 0.011,0.011 0.02,0.024 0.027,0.039 0.006,0.015 0.01,0.031 0.01,0.048 z M 0.476,-0.423 C 0.451,-0.448 0.427,-0.472 0.403,-0.496 0.379,-0.519 0.356,-0.545 0.335,-0.573 v -0.041 c 0,-0.017 0.004,-0.033 0.01,-0.048 0.007,-0.015 0.016,-0.028 0.027,-0.039 0.011,-0.011 0.024,-0.02 0.039,-0.027 0.015,-0.006 0.031,-0.009 0.047,-0.009 0.017,0 0.032,0.003 0.048,0.009 0.015,0.007 0.028,0.015 0.039,0.027 l 0.104,0.104 z m 0.544,0.107 c 0.017,0 0.033,0.003 0.048,0.01 0.014,0.006 0.027,0.015 0.038,0.026 0.012,0.011 0.02,0.024 0.027,0.039 0.006,0.015 0.01,0.031 0.01,0.048 0,0.017 -0.004,0.033 -0.01,0.047 -0.006,0.015 -0.015,0.028 -0.026,0.04 C 1.096,-0.095 1.083,-0.087 1.068,-0.08 1.053,-0.074 1.037,-0.07 1.02,-0.07 H 0.873 v -0.246 z m -0.667,0 H 0.5 V -0.07 H 0.353 C 0.336,-0.07 0.32,-0.074 0.305,-0.08 0.29,-0.087 0.277,-0.095 0.266,-0.106 0.255,-0.118 0.246,-0.131 0.24,-0.146 0.234,-0.16 0.23,-0.176 0.23,-0.193 0.23,-0.21 0.234,-0.226 0.24,-0.241 0.247,-0.256 0.256,-0.269 0.267,-0.28 0.278,-0.291 0.291,-0.3 0.305,-0.306 0.32,-0.313 0.336,-0.316 0.353,-0.316 Z"
         style="fill:#f7630c;fill-rule:nonzero"
         id="path8788" /><path
         d="m 0.757,-0.842 c 0.015,0.008 0.029,0.016 0.042,0.024 0.012,0.009 0.024,0.019 0.033,0.03 0.009,0.011 0.016,0.024 0.022,0.038 0.005,0.014 0.008,0.03 0.008,0.048 v 0.142 c 0.011,-0.003 0.022,-0.007 0.034,-0.012 0.011,-0.004 0.023,-0.008 0.035,-0.012 0.012,-0.003 0.024,-0.007 0.036,-0.009 0.011,-0.002 0.023,-0.004 0.035,-0.004 0.019,0 0.037,0.003 0.055,0.009 0.018,0.006 0.035,0.015 0.05,0.026 l -0.034,0.105 h 0.105 c 0,0.021 -0.003,0.041 -0.008,0.062 -0.004,0.021 -0.012,0.04 -0.022,0.059 -0.01,0.018 -0.023,0.035 -0.038,0.049 -0.015,0.014 -0.032,0.025 -0.052,0.032 -0.014,0.005 -0.028,0.01 -0.043,0.015 -0.014,0.004 -0.028,0.009 -0.042,0.013 0.014,0.02 0.027,0.037 0.037,0.05 0.011,0.014 0.02,0.026 0.027,0.037 0.008,0.011 0.014,0.021 0.018,0.031 0.005,0.01 0.009,0.021 0.011,0.034 0.003,0.012 0.004,0.028 0.005,0.045 0.001,0.017 0.002,0.039 0.002,0.065 H 0.967 V 0.14 H 0.897 C 0.869,0.14 0.842,0.134 0.818,0.122 0.794,0.11 0.774,0.093 0.757,0.07 L 0.687,-0.023 0.616,0.07 C 0.599,0.093 0.579,0.11 0.554,0.122 0.53,0.134 0.504,0.14 0.476,0.14 H 0.406 V 0.035 H 0.3 V 0.001 c 0,-0.013 0.001,-0.025 0.001,-0.038 0.001,-0.012 0.002,-0.024 0.005,-0.036 0.002,-0.012 0.006,-0.023 0.01,-0.035 0.005,-0.011 0.011,-0.022 0.019,-0.033 L 0.4,-0.227 C 0.386,-0.231 0.371,-0.236 0.357,-0.24 0.343,-0.245 0.329,-0.25 0.315,-0.255 0.295,-0.262 0.277,-0.273 0.262,-0.287 0.248,-0.301 0.235,-0.318 0.225,-0.336 0.215,-0.355 0.208,-0.374 0.203,-0.395 0.198,-0.416 0.195,-0.436 0.195,-0.457 H 0.3 L 0.266,-0.562 c 0.015,-0.011 0.032,-0.02 0.049,-0.026 0.018,-0.006 0.037,-0.009 0.056,-0.009 0.012,0 0.024,0.001 0.035,0.004 0.012,0.002 0.024,0.005 0.036,0.009 0.012,0.004 0.023,0.008 0.035,0.012 0.011,0.004 0.022,0.009 0.034,0.012 v -0.142 c 0,-0.018 0.002,-0.035 0.008,-0.049 0.005,-0.014 0.012,-0.027 0.022,-0.038 0.009,-0.011 0.02,-0.02 0.033,-0.029 0.013,-0.009 0.027,-0.017 0.042,-0.024 l 0.071,0.105 z"
         style="fill:#ffb900;fill-rule:nonzero"
         id="path8790" /><path
         d="m 0.476,-0.421 c 0,0.009 -0.002,0.018 -0.006,0.027 -0.003,0.008 -0.008,0.016 -0.015,0.022 -0.006,0.007 -0.013,0.012 -0.022,0.015 -0.008,0.004 -0.017,0.006 -0.027,0.006 -0.01,0 -0.019,-0.002 -0.028,-0.006 C 0.37,-0.36 0.363,-0.365 0.356,-0.372 0.35,-0.378 0.345,-0.386 0.341,-0.394 0.337,-0.403 0.335,-0.412 0.335,-0.421 c 0,-0.01 0.002,-0.019 0.006,-0.028 0.004,-0.008 0.009,-0.016 0.015,-0.022 0.007,-0.006 0.014,-0.011 0.022,-0.015 0.009,-0.003 0.018,-0.005 0.028,-0.005 0.01,0 0.019,0.002 0.027,0.005 0.009,0.004 0.016,0.009 0.022,0.015 0.007,0.006 0.012,0.014 0.015,0.022 0.004,0.009 0.006,0.018 0.006,0.028 z m 0.211,-0.105 c -0.01,0 -0.019,-0.002 -0.028,-0.006 C 0.651,-0.536 0.643,-0.541 0.637,-0.547 0.631,-0.553 0.626,-0.561 0.622,-0.569 0.618,-0.578 0.616,-0.587 0.616,-0.597 c 0,-0.009 0.002,-0.019 0.006,-0.027 0.004,-0.008 0.009,-0.016 0.015,-0.022 0.006,-0.007 0.014,-0.012 0.022,-0.015 0.009,-0.004 0.018,-0.006 0.028,-0.006 0.009,0 0.018,0.002 0.027,0.006 0.008,0.003 0.016,0.008 0.022,0.015 0.006,0.006 0.011,0.014 0.015,0.022 0.004,0.008 0.006,0.018 0.006,0.027 0,0.01 -0.002,0.019 -0.006,0.028 -0.004,0.008 -0.009,0.016 -0.015,0.022 -0.006,0.006 -0.014,0.011 -0.022,0.015 -0.009,0.004 -0.018,0.006 -0.027,0.006 z m 0,0.035 c 0.024,0 0.046,0.004 0.068,0.014 0.021,0.009 0.04,0.022 0.055,0.037 0.016,0.016 0.029,0.035 0.038,0.056 0.009,0.021 0.014,0.044 0.014,0.068 0,0.024 -0.005,0.047 -0.014,0.068 -0.009,0.022 -0.022,0.04 -0.038,0.056 -0.015,0.016 -0.034,0.028 -0.055,0.037 -0.022,0.01 -0.044,0.014 -0.068,0.014 -0.025,0 -0.047,-0.004 -0.069,-0.013 C 0.597,-0.163 0.578,-0.176 0.562,-0.192 0.547,-0.208 0.534,-0.226 0.525,-0.248 0.516,-0.269 0.511,-0.292 0.511,-0.316 c 0,-0.024 0.005,-0.047 0.014,-0.068 0.009,-0.021 0.022,-0.04 0.037,-0.056 0.016,-0.016 0.035,-0.028 0.056,-0.038 0.021,-0.009 0.044,-0.013 0.069,-0.013 z m -0.211,0.35 c 0.01,0 0.019,0.002 0.027,0.006 0.009,0.004 0.016,0.009 0.023,0.015 0.006,0.006 0.011,0.014 0.015,0.022 0.003,0.009 0.005,0.018 0.005,0.028 0,0.009 -0.002,0.019 -0.005,0.027 C 0.537,-0.035 0.532,-0.027 0.526,-0.021 0.519,-0.014 0.512,-0.009 0.503,-0.006 0.495,-0.002 0.486,0 0.476,0 0.466,0 0.457,-0.002 0.449,-0.006 0.44,-0.009 0.433,-0.014 0.427,-0.021 0.42,-0.027 0.415,-0.035 0.411,-0.043 0.408,-0.051 0.406,-0.061 0.406,-0.07 0.406,-0.08 0.408,-0.089 0.411,-0.098 0.415,-0.106 0.42,-0.114 0.427,-0.12 0.433,-0.126 0.44,-0.131 0.449,-0.135 0.457,-0.139 0.466,-0.141 0.476,-0.141 Z m 0.421,0 c 0.01,0 0.019,0.002 0.027,0.006 0.009,0.004 0.016,0.009 0.023,0.015 0.006,0.006 0.011,0.014 0.015,0.022 0.003,0.009 0.005,0.018 0.005,0.028 0,0.009 -0.002,0.019 -0.005,0.027 C 0.958,-0.035 0.953,-0.027 0.947,-0.021 0.94,-0.014 0.933,-0.009 0.924,-0.006 0.916,-0.002 0.907,0 0.897,0 0.887,0 0.878,-0.002 0.87,-0.006 0.861,-0.009 0.854,-0.014 0.847,-0.021 0.841,-0.027 0.836,-0.035 0.832,-0.043 0.829,-0.051 0.827,-0.061 0.827,-0.07 c 0,-0.01 0.002,-0.019 0.005,-0.028 0.004,-0.008 0.009,-0.016 0.015,-0.022 0.007,-0.006 0.014,-0.011 0.023,-0.015 0.008,-0.004 0.017,-0.006 0.027,-0.006 z m 0.07,-0.35 c 0.01,0 0.019,0.002 0.028,0.005 0.008,0.004 0.015,0.009 0.022,0.015 0.006,0.006 0.011,0.014 0.015,0.022 0.004,0.009 0.006,0.018 0.006,0.028 0,0.009 -0.002,0.018 -0.006,0.027 C 1.028,-0.386 1.023,-0.378 1.017,-0.372 1.01,-0.365 1.003,-0.36 0.995,-0.357 0.986,-0.353 0.977,-0.351 0.967,-0.351 0.958,-0.351 0.948,-0.353 0.94,-0.357 0.931,-0.36 0.924,-0.365 0.918,-0.372 0.911,-0.378 0.906,-0.386 0.903,-0.394 0.899,-0.403 0.897,-0.412 0.897,-0.421 c 0,-0.01 0.002,-0.019 0.006,-0.028 0.003,-0.008 0.008,-0.016 0.015,-0.022 0.006,-0.006 0.013,-0.011 0.022,-0.015 0.008,-0.003 0.018,-0.005 0.027,-0.005 z"
         style="fill:#ffffff;fill-rule:nonzero"
         id="path8792" /><path
         d="m 0.687,-0.351 c -0.01,0 -0.019,-0.003 -0.025,-0.01 -0.007,-0.007 -0.011,-0.015 -0.011,-0.025 0,-0.01 0.004,-0.018 0.011,-0.025 0.006,-0.007 0.015,-0.01 0.025,-0.01 0.009,0 0.018,0.003 0.024,0.01 0.007,0.007 0.011,0.015 0.011,0.025 0,0.01 -0.004,0.018 -0.011,0.025 -0.006,0.007 -0.015,0.01 -0.024,0.01 z m 0.07,0 c 0.009,0 0.017,0.003 0.024,0.01 0.007,0.007 0.011,0.016 0.011,0.025 0,0.01 -0.004,0.018 -0.011,0.025 -0.007,0.007 -0.015,0.01 -0.024,0.01 -0.01,0 -0.018,-0.003 -0.025,-0.01 -0.007,-0.007 -0.01,-0.015 -0.01,-0.025 0,-0.01 0.003,-0.018 0.01,-0.025 0.007,-0.007 0.015,-0.01 0.025,-0.01 z m -0.141,0 c 0.01,0 0.018,0.003 0.025,0.01 0.007,0.007 0.01,0.015 0.01,0.025 0,0.01 -0.003,0.018 -0.01,0.025 -0.007,0.007 -0.015,0.01 -0.025,0.01 -0.01,0 -0.018,-0.003 -0.025,-0.01 -0.007,-0.007 -0.01,-0.015 -0.01,-0.025 0,-0.01 0.003,-0.018 0.01,-0.025 0.007,-0.007 0.015,-0.01 0.025,-0.01 z m 0.071,0.07 c 0.009,0 0.018,0.004 0.024,0.01 0.007,0.007 0.011,0.016 0.011,0.025 0,0.01 -0.004,0.018 -0.011,0.025 -0.007,0.007 -0.015,0.011 -0.024,0.011 -0.01,0 -0.018,-0.004 -0.025,-0.011 -0.007,-0.007 -0.011,-0.015 -0.011,-0.025 0,-0.009 0.004,-0.018 0.011,-0.025 0.006,-0.006 0.015,-0.01 0.025,-0.01 z"
         style="fill:#ee3f86;fill-rule:nonzero"
         id="path8794" /></g></g></svg>
