<?xml version="1.0" encoding="UTF-8" standalone="no"?>
<svg
   width="16.844999"
   height="16.844999"
   viewBox="0 0 16.844999 16.844999"
   version="1.1"
   xml:space="preserve"
   style="clip-rule:evenodd;fill-rule:evenodd;stroke-linejoin:round;stroke-miterlimit:2"
   id="svg20568"
   sodipodi:docname="emojis.svg"
   xmlns:inkscape="http://www.inkscape.org/namespaces/inkscape"
   xmlns:sodipodi="http://sodipodi.sourceforge.net/DTD/sodipodi-0.dtd"
   xmlns="http://www.w3.org/2000/svg"
   xmlns:svg="http://www.w3.org/2000/svg"><defs
     id="defs20572" /><sodipodi:namedview
     id="namedview20570"
     pagecolor="#505050"
     bordercolor="#eeeeee"
     borderopacity="1"
     inkscape:pageshadow="0"
     inkscape:pageopacity="0"
     inkscape:pagecheckerboard="0" /><g
     transform="matrix(0.24,0,0,0.24,-54.405,-110.71908)"
     id="g20566"><g
       transform="matrix(62.5,0,0,62.5,218.875,518.392)"
       id="g880"><path
         d="m 1.248,-0.351 c 0,0.052 -0.007,0.101 -0.02,0.149 C 1.215,-0.154 1.196,-0.109 1.171,-0.068 1.147,-0.026 1.118,0.012 1.083,0.046 1.049,0.08 1.011,0.109 0.97,0.134 0.928,0.158 0.884,0.177 0.836,0.19 0.788,0.204 0.738,0.21 0.687,0.21 0.635,0.21 0.585,0.204 0.537,0.19 0.489,0.177 0.445,0.158 0.403,0.134 0.362,0.109 0.324,0.08 0.29,0.046 0.255,0.012 0.226,-0.026 0.202,-0.068 0.177,-0.109 0.158,-0.154 0.145,-0.202 0.132,-0.25 0.125,-0.299 0.125,-0.351 c 0,-0.052 0.007,-0.102 0.02,-0.149 0.013,-0.048 0.032,-0.093 0.057,-0.135 0.024,-0.041 0.053,-0.079 0.088,-0.113 0.034,-0.034 0.072,-0.064 0.113,-0.088 0.042,-0.024 0.086,-0.043 0.134,-0.057 0.048,-0.013 0.098,-0.02 0.15,-0.02 0.051,0 0.101,0.007 0.149,0.02 0.048,0.014 0.092,0.033 0.134,0.057 0.041,0.024 0.079,0.054 0.113,0.088 0.035,0.034 0.064,0.072 0.088,0.113 0.025,0.042 0.044,0.087 0.057,0.135 0.013,0.047 0.02,0.097 0.02,0.149 z"
         style="fill-rule:nonzero"
         id="path872" /><path
         d="m 1.178,-0.351 c 0,0.045 -0.006,0.089 -0.018,0.131 -0.012,0.041 -0.028,0.081 -0.049,0.117 -0.022,0.036 -0.047,0.07 -0.077,0.099 C 1.004,0.026 0.971,0.052 0.935,0.073 0.898,0.094 0.859,0.111 0.817,0.123 0.775,0.134 0.732,0.14 0.687,0.14 0.641,0.14 0.598,0.134 0.556,0.123 0.514,0.111 0.475,0.094 0.438,0.073 0.402,0.052 0.369,0.026 0.339,-0.004 0.309,-0.033 0.284,-0.067 0.262,-0.103 0.241,-0.139 0.225,-0.179 0.213,-0.22 0.201,-0.262 0.195,-0.306 0.195,-0.351 c 0,-0.045 0.006,-0.089 0.018,-0.131 0.012,-0.042 0.028,-0.081 0.049,-0.117 0.022,-0.037 0.047,-0.07 0.077,-0.099 0.03,-0.03 0.063,-0.056 0.099,-0.077 0.037,-0.021 0.076,-0.038 0.118,-0.05 0.042,-0.011 0.085,-0.017 0.131,-0.017 0.045,0 0.088,0.006 0.13,0.017 0.042,0.012 0.081,0.029 0.118,0.05 0.036,0.021 0.069,0.047 0.099,0.077 0.03,0.029 0.055,0.062 0.077,0.099 0.021,0.036 0.037,0.075 0.049,0.117 0.012,0.042 0.018,0.086 0.018,0.131 z"
         style="fill:#ffc83d;fill-rule:nonzero"
         id="path874" /><path
         d="m 0.511,-0.702 c 0.009,0 0.017,0.003 0.024,0.01 0.007,0.007 0.011,0.016 0.011,0.025 0,0.007 -0.002,0.013 -0.005,0.019 -0.004,0.005 -0.009,0.009 -0.015,0.013 -0.015,0.008 -0.028,0.016 -0.04,0.024 -0.012,0.009 -0.023,0.018 -0.032,0.028 -0.01,0.009 -0.019,0.02 -0.028,0.032 -0.008,0.012 -0.016,0.025 -0.024,0.04 -0.003,0.006 -0.008,0.011 -0.013,0.015 -0.005,0.003 -0.012,0.005 -0.018,0.005 -0.01,0 -0.018,-0.004 -0.025,-0.011 -0.007,-0.007 -0.011,-0.015 -0.011,-0.025 0,-0.005 0.002,-0.01 0.004,-0.015 C 0.355,-0.576 0.377,-0.606 0.404,-0.633 0.431,-0.66 0.462,-0.682 0.495,-0.698 0.5,-0.701 0.506,-0.702 0.511,-0.702 Z m 0.526,0.175 c 0,0.01 -0.003,0.018 -0.01,0.025 -0.007,0.007 -0.015,0.011 -0.025,0.011 -0.007,0 -0.013,-0.002 -0.018,-0.006 C 0.978,-0.5 0.974,-0.505 0.971,-0.511 0.963,-0.526 0.954,-0.54 0.946,-0.551 0.938,-0.563 0.929,-0.574 0.919,-0.583 0.909,-0.593 0.898,-0.602 0.887,-0.61 0.875,-0.618 0.861,-0.627 0.846,-0.635 0.84,-0.639 0.836,-0.643 0.832,-0.648 0.828,-0.654 0.827,-0.66 0.827,-0.667 c 0,-0.009 0.003,-0.017 0.01,-0.024 0.007,-0.008 0.015,-0.011 0.025,-0.011 0.005,0 0.01,0.001 0.015,0.004 0.034,0.016 0.064,0.038 0.092,0.065 0.027,0.027 0.048,0.057 0.065,0.091 0.002,0.005 0.003,0.01 0.003,0.015 z"
         style="fill:#d48c00;fill-rule:nonzero"
         id="path876" /><path
         d="m 0.511,-0.07 c 0,-0.024 0.005,-0.047 0.014,-0.068 0.009,-0.022 0.022,-0.04 0.037,-0.056 0.016,-0.016 0.035,-0.028 0.056,-0.038 0.022,-0.009 0.044,-0.014 0.069,-0.014 0.024,0 0.046,0.005 0.068,0.014 0.021,0.01 0.04,0.022 0.055,0.038 0.016,0.016 0.029,0.034 0.038,0.056 0.009,0.021 0.014,0.044 0.014,0.068 z m 0.035,-0.334 c 0,0.007 -0.001,0.014 -0.004,0.02 -0.003,0.007 -0.006,0.012 -0.011,0.017 -0.005,0.005 -0.011,0.009 -0.017,0.012 -0.006,0.003 -0.013,0.004 -0.02,0.004 -0.008,0 -0.015,-0.001 -0.021,-0.004 C 0.467,-0.358 0.461,-0.362 0.456,-0.366 0.452,-0.371 0.448,-0.377 0.445,-0.383 0.442,-0.389 0.441,-0.396 0.441,-0.404 v -0.07 c 0,-0.007 0.001,-0.014 0.004,-0.021 0.003,-0.006 0.007,-0.012 0.012,-0.016 0.004,-0.005 0.01,-0.008 0.016,-0.011 0.007,-0.003 0.013,-0.004 0.021,-0.004 0.007,0 0.014,0.001 0.02,0.004 0.006,0.003 0.012,0.006 0.017,0.011 0.005,0.005 0.008,0.01 0.011,0.017 0.003,0.006 0.004,0.013 0.004,0.02 z m 0.333,-0.122 c 0.008,0 0.014,0.001 0.021,0.004 0.006,0.003 0.012,0.006 0.017,0.011 0.004,0.004 0.008,0.01 0.011,0.016 0.003,0.007 0.004,0.014 0.004,0.021 v 0.07 c 0,0.008 -0.001,0.015 -0.004,0.021 -0.003,0.006 -0.007,0.012 -0.011,0.017 -0.005,0.004 -0.011,0.008 -0.017,0.011 -0.007,0.003 -0.013,0.004 -0.021,0.004 -0.007,0 -0.014,-0.001 -0.02,-0.004 C 0.852,-0.358 0.847,-0.362 0.842,-0.367 0.838,-0.372 0.834,-0.377 0.831,-0.384 0.829,-0.39 0.827,-0.397 0.827,-0.404 v -0.07 c 0,-0.007 0.002,-0.014 0.004,-0.02 0.003,-0.007 0.007,-0.012 0.012,-0.017 0.004,-0.005 0.01,-0.008 0.016,-0.011 0.006,-0.003 0.013,-0.004 0.02,-0.004 z"
         style="fill-rule:nonzero"
         id="path878" /></g></g></svg>
