<?xml version="1.0" encoding="UTF-8" standalone="no"?>
<svg
   width="10.005"
   height="16.844999"
   viewBox="0 0 10.005 16.844999"
   version="1.1"
   xml:space="preserve"
   style="clip-rule:evenodd;fill-rule:evenodd;stroke-linejoin:round;stroke-miterlimit:2"
   id="svg20568"
   sodipodi:docname="emojis.svg"
   xmlns:inkscape="http://www.inkscape.org/namespaces/inkscape"
   xmlns:sodipodi="http://sodipodi.sourceforge.net/DTD/sodipodi-0.dtd"
   xmlns="http://www.w3.org/2000/svg"
   xmlns:svg="http://www.w3.org/2000/svg"><defs
     id="defs20572" /><sodipodi:namedview
     id="namedview20570"
     pagecolor="#505050"
     bordercolor="#eeeeee"
     borderopacity="1"
     inkscape:pageshadow="0"
     inkscape:pageopacity="0"
     inkscape:pagecheckerboard="0" /><g
     transform="matrix(0.24,0,0,0.24,-75.0006,-421.7322)"
     id="g20566"><g
       transform="matrix(62.5,0,0,62.5,304.69,1814.28)"
       id="g8808"><path
         d="M 0.458,0.21 C 0.443,0.21 0.428,0.208 0.414,0.202 0.4,0.197 0.388,0.189 0.377,0.179 0.366,0.17 0.357,0.158 0.35,0.145 0.343,0.132 0.338,0.118 0.336,0.103 0.33,0.104 0.323,0.105 0.317,0.105 c -0.007,0 -0.014,0 -0.021,0 H 0.283 C 0.271,0.105 0.259,0.103 0.249,0.098 0.238,0.094 0.229,0.087 0.221,0.079 0.213,0.071 0.207,0.062 0.202,0.052 0.198,0.041 0.195,0.03 0.195,0.018 c 0,-0.012 0.002,-0.023 0.007,-0.033 0.004,-0.011 0.01,-0.02 0.018,-0.028 L 0.271,-0.094 C 0.247,-0.109 0.227,-0.127 0.209,-0.147 0.191,-0.168 0.175,-0.189 0.163,-0.213 0.151,-0.236 0.141,-0.261 0.135,-0.287 0.128,-0.314 0.125,-0.341 0.125,-0.369 v -0.403 h 0.07 c 0.016,0 0.031,0.001 0.046,0.002 0.015,0.002 0.03,0.004 0.044,0.008 0.016,-0.019 0.034,-0.034 0.055,-0.047 0.02,-0.012 0.042,-0.021 0.066,-0.027 v -0.077 h 0.07 c 0.024,0 0.046,0.004 0.069,0.01 0.022,0.007 0.043,0.017 0.062,0.029 0.019,0.012 0.037,0.027 0.052,0.044 0.016,0.018 0.029,0.037 0.039,0.058 h 0.094 v 0.403 c 0,0.028 -0.003,0.054 -0.01,0.081 -0.007,0.026 -0.017,0.051 -0.029,0.074 -0.013,0.024 -0.028,0.046 -0.046,0.066 -0.018,0.021 -0.038,0.039 -0.061,0.054 0.008,0.008 0.017,0.016 0.026,0.024 0.009,0.008 0.017,0.016 0.024,0.025 0.007,0.009 0.013,0.019 0.018,0.029 0.005,0.01 0.008,0.021 0.008,0.034 0,0.012 -0.003,0.023 -0.007,0.034 C 0.71,0.062 0.704,0.071 0.696,0.079 0.688,0.087 0.679,0.094 0.668,0.098 0.657,0.103 0.646,0.105 0.634,0.105 H 0.616 c -0.006,0 -0.012,0 -0.018,-0.001 -0.006,0 -0.012,0 -0.018,-0.001 C 0.578,0.118 0.574,0.132 0.566,0.145 0.559,0.158 0.55,0.17 0.54,0.179 0.529,0.189 0.517,0.197 0.503,0.202 0.489,0.208 0.474,0.21 0.458,0.21 Z"
         style="fill-rule:nonzero"
         id="path8798" /><path
         d="M 0.406,0.087 V -0.141 H 0.511 V 0.087 C 0.511,0.095 0.51,0.101 0.507,0.108 0.504,0.114 0.5,0.12 0.496,0.125 0.491,0.129 0.485,0.133 0.479,0.136 0.472,0.139 0.466,0.14 0.458,0.14 0.451,0.14 0.444,0.139 0.438,0.136 0.431,0.133 0.426,0.129 0.421,0.125 0.416,0.12 0.413,0.115 0.41,0.108 0.407,0.102 0.406,0.095 0.406,0.087 Z"
         style="fill:#107c10;fill-rule:nonzero"
         id="path8800" /><path
         d="M 0.526,-0.115 0.647,0.006 C 0.648,0.007 0.649,0.009 0.65,0.011 0.651,0.014 0.651,0.016 0.651,0.018 0.651,0.025 0.649,0.03 0.644,0.032 0.639,0.034 0.634,0.035 0.627,0.035 0.609,0.035 0.591,0.033 0.574,0.029 0.558,0.025 0.542,0.019 0.528,0.01 0.513,0.002 0.5,-0.008 0.488,-0.021 0.477,-0.033 0.467,-0.048 0.458,-0.065 0.442,-0.032 0.42,-0.007 0.391,0.01 0.362,0.027 0.33,0.035 0.293,0.035 c -0.003,0 -0.006,0 -0.01,0 C 0.28,0.034 0.277,0.034 0.274,0.032 0.272,0.031 0.27,0.03 0.268,0.027 0.266,0.025 0.265,0.021 0.265,0.018 0.265,0.013 0.267,0.009 0.27,0.006 L 0.39,-0.115 C 0.361,-0.122 0.335,-0.134 0.311,-0.151 0.287,-0.167 0.266,-0.187 0.248,-0.211 c 0.003,-0.005 0.006,-0.01 0.01,-0.014 0.004,-0.004 0.008,-0.007 0.013,-0.011 0.013,-0.011 0.027,-0.019 0.043,-0.026 0.016,-0.007 0.032,-0.012 0.049,-0.016 0.016,-0.004 0.033,-0.006 0.05,-0.008 0.017,-0.001 0.034,-0.002 0.051,-0.002 0.015,0 0.031,0.001 0.047,0.002 0.017,0.001 0.034,0.004 0.05,0.007 0.016,0.004 0.032,0.009 0.047,0.016 0.015,0.007 0.028,0.015 0.04,0.026 0.004,0.003 0.008,0.007 0.012,0.011 0.003,0.005 0.006,0.01 0.008,0.015 -0.017,0.024 -0.038,0.044 -0.062,0.06 -0.025,0.017 -0.051,0.029 -0.08,0.036 z"
         style="fill:#13a10e;fill-rule:nonzero"
         id="path8802" /><path
         d="m 0.476,-0.772 v -0.07 c 0.024,0 0.047,0.004 0.068,0.013 0.022,0.01 0.04,0.022 0.056,0.038 0.016,0.016 0.029,0.034 0.038,0.056 0.009,0.021 0.013,0.044 0.013,0.068 v 0.413 H 0.493 L 0.276,-0.612 C 0.29,-0.635 0.302,-0.657 0.313,-0.677 0.324,-0.696 0.336,-0.713 0.35,-0.727 0.363,-0.741 0.38,-0.752 0.4,-0.76 0.419,-0.768 0.445,-0.772 0.476,-0.772 Z"
         style="fill:#af0d1a;fill-rule:nonzero"
         id="path8804" /><path
         d="m 0.722,-0.369 c 0,0.029 -0.005,0.057 -0.014,0.084 -0.009,0.026 -0.022,0.051 -0.04,0.075 H 0.248 C 0.231,-0.234 0.218,-0.259 0.209,-0.285 0.2,-0.312 0.195,-0.34 0.195,-0.369 v -0.333 c 0.032,0 0.063,0.004 0.093,0.013 0.03,0.008 0.058,0.02 0.084,0.035 0.026,0.015 0.049,0.034 0.071,0.055 0.021,0.022 0.039,0.046 0.055,0.072 0.015,0.026 0.027,0.054 0.035,0.083 0.009,0.03 0.013,0.061 0.013,0.093 v 0.035 c 0.01,0 0.018,-0.003 0.025,-0.01 0.007,-0.007 0.01,-0.015 0.01,-0.025 v -0.351 h 0.141 z"
         style="fill:#f03a17;fill-rule:nonzero"
         id="path8806" /></g></g></svg>
