<?xml version="1.0" encoding="UTF-8" standalone="no"?>
<svg
   width="13.68"
   height="16.844999"
   viewBox="0 0 13.68 16.844999"
   version="1.1"
   xml:space="preserve"
   style="clip-rule:evenodd;fill-rule:evenodd;stroke-linejoin:round;stroke-miterlimit:2"
   id="svg20568"
   sodipodi:docname="emojis.svg"
   xmlns:inkscape="http://www.inkscape.org/namespaces/inkscape"
   xmlns:sodipodi="http://sodipodi.sourceforge.net/DTD/sodipodi-0.dtd"
   xmlns="http://www.w3.org/2000/svg"
   xmlns:svg="http://www.w3.org/2000/svg"><defs
     id="defs20572" /><sodipodi:namedview
     id="namedview20570"
     pagecolor="#505050"
     bordercolor="#eeeeee"
     borderopacity="1"
     inkscape:pageshadow="0"
     inkscape:pageopacity="0"
     inkscape:pagecheckerboard="0" /><g
     transform="matrix(0.24,0,0,0.24,-206.02356,-421.7322)"
     id="g20566"><g
       transform="matrix(62.5,0,0,62.5,850.619,1814.28)"
       id="g8890"><path
         d="M 0.441,0.21 V 0.105 C 0.431,0.105 0.42,0.104 0.411,0.101 0.401,0.098 0.392,0.094 0.384,0.088 0.376,0.083 0.368,0.077 0.362,0.069 0.355,0.062 0.349,0.053 0.345,0.044 0.336,0.051 0.328,0.058 0.319,0.065 0.31,0.072 0.302,0.079 0.292,0.085 0.283,0.091 0.273,0.096 0.263,0.099 0.253,0.103 0.242,0.105 0.23,0.105 0.215,0.105 0.202,0.102 0.189,0.097 0.176,0.091 0.165,0.084 0.156,0.074 0.146,0.065 0.139,0.054 0.133,0.041 0.128,0.028 0.125,0.015 0.125,0 c 0,-0.01 0.001,-0.02 0.004,-0.029 0.003,-0.01 0.007,-0.019 0.012,-0.027 0.005,-0.009 0.01,-0.017 0.016,-0.025 0.006,-0.008 0.012,-0.016 0.018,-0.023 L 0.181,-0.112 C 0.174,-0.121 0.169,-0.131 0.166,-0.142 0.162,-0.153 0.16,-0.164 0.16,-0.175 c 0,-0.023 0.007,-0.043 0.02,-0.062 L 0.246,-0.33 C 0.235,-0.347 0.23,-0.365 0.23,-0.386 c 0,-0.012 0.002,-0.023 0.006,-0.033 0.004,-0.01 0.009,-0.02 0.015,-0.03 L 0.307,-0.526 C 0.302,-0.538 0.3,-0.55 0.3,-0.562 0.3,-0.573 0.302,-0.584 0.306,-0.594 0.31,-0.605 0.315,-0.615 0.322,-0.625 l 0.174,-0.243 c 0.01,-0.014 0.022,-0.025 0.037,-0.033 0.014,-0.008 0.03,-0.012 0.048,-0.012 0.017,0 0.033,0.004 0.048,0.013 0.015,0.008 0.028,0.019 0.038,0.033 l 0.174,0.244 c 0.007,0.009 0.012,0.019 0.015,0.029 0.004,0.01 0.006,0.021 0.006,0.032 0,0.013 -0.002,0.025 -0.007,0.036 l 0.057,0.078 c 0.006,0.009 0.011,0.019 0.015,0.03 0.003,0.01 0.005,0.021 0.005,0.032 0,0.021 -0.005,0.039 -0.016,0.056 l 0.066,0.093 c 0.013,0.019 0.02,0.039 0.02,0.062 0,0.011 -0.002,0.022 -0.005,0.033 -0.004,0.011 -0.009,0.021 -0.016,0.03 0.006,0.008 0.012,0.017 0.019,0.026 0.007,0.008 0.013,0.017 0.018,0.026 0.006,0.009 0.01,0.018 0.014,0.028 0.003,0.01 0.005,0.021 0.005,0.032 0,0.015 -0.003,0.028 -0.008,0.041 C 1.023,0.054 1.016,0.065 1.006,0.074 0.997,0.084 0.986,0.091 0.973,0.097 0.96,0.102 0.947,0.105 0.932,0.105 0.92,0.105 0.909,0.103 0.899,0.099 0.889,0.096 0.879,0.091 0.87,0.085 0.861,0.079 0.852,0.072 0.843,0.065 0.834,0.058 0.826,0.051 0.817,0.044 0.808,0.062 0.796,0.077 0.778,0.088 0.761,0.099 0.742,0.105 0.722,0.105 V 0.21 Z"
         style="fill-rule:nonzero"
         id="path8882" /><rect
         x="0.51099998"
         y="-0.141"
         width="0.141"
         height="0.28099999"
         style="fill:#ca5010;fill-rule:nonzero"
         id="rect8884" /><path
         d="m 0.691,-0.371 c 0.003,0 0.007,0.002 0.012,0.006 0.005,0.005 0.011,0.01 0.017,0.017 0.007,0.007 0.013,0.014 0.02,0.023 0.007,0.008 0.013,0.016 0.019,0.024 0.006,0.008 0.011,0.015 0.016,0.021 0.004,0.006 0.008,0.011 0.01,0.014 L 0.96,-0.021 C 0.965,-0.014 0.967,-0.007 0.967,0 0.967,0.01 0.964,0.018 0.957,0.025 0.95,0.032 0.942,0.035 0.932,0.035 0.924,0.035 0.917,0.033 0.911,0.028 L 0.756,-0.092 V 0 c 0,0.009 -0.003,0.018 -0.01,0.025 -0.007,0.007 -0.015,0.01 -0.025,0.01 -0.01,0 -0.019,-0.004 -0.026,-0.012 L 0.581,-0.105 0.467,0.023 C 0.464,0.027 0.46,0.03 0.455,0.032 0.45,0.034 0.445,0.035 0.44,0.035 0.431,0.035 0.423,0.032 0.416,0.025 0.409,0.018 0.406,0.009 0.406,0 V -0.092 L 0.251,0.028 C 0.245,0.033 0.238,0.035 0.23,0.035 0.22,0.035 0.212,0.032 0.205,0.025 0.198,0.018 0.195,0.01 0.195,0 c 0,-0.007 0.002,-0.014 0.007,-0.021 L 0.377,-0.266 C 0.379,-0.269 0.383,-0.274 0.387,-0.28 0.392,-0.286 0.398,-0.293 0.404,-0.301 0.41,-0.309 0.417,-0.317 0.423,-0.325 0.43,-0.333 0.437,-0.341 0.443,-0.348 0.45,-0.354 0.456,-0.36 0.461,-0.365 c 0.006,-0.004 0.01,-0.006 0.013,-0.006 0.017,0.009 0.035,0.018 0.052,0.027 0.018,0.009 0.036,0.018 0.053,0.027 0.002,-0.001 0.007,-0.003 0.013,-0.006 L 0.639,-0.346 C 0.648,-0.351 0.656,-0.355 0.664,-0.358 0.671,-0.362 0.677,-0.365 0.682,-0.367 0.687,-0.37 0.69,-0.371 0.691,-0.371 Z"
         style="fill:#107c10;fill-rule:nonzero"
         id="path8886" /><path
         d="m 0.814,-0.351 0.111,0.155 c 0.005,0.006 0.007,0.013 0.007,0.021 0,0.009 -0.003,0.018 -0.01,0.024 -0.007,0.007 -0.015,0.01 -0.025,0.01 -0.008,0 -0.015,-0.002 -0.022,-0.007 L 0.671,-0.307 0.614,-0.163 c -0.003,0.007 -0.007,0.012 -0.013,0.016 -0.006,0.004 -0.013,0.006 -0.02,0.006 -0.007,0 -0.014,-0.002 -0.02,-0.006 C 0.555,-0.151 0.551,-0.156 0.548,-0.163 L 0.491,-0.307 0.287,-0.148 c -0.007,0.005 -0.014,0.007 -0.022,0.007 -0.01,0 -0.018,-0.003 -0.025,-0.01 -0.007,-0.006 -0.01,-0.015 -0.01,-0.024 0,-0.008 0.002,-0.015 0.007,-0.021 l 0.11,-0.155 C 0.341,-0.351 0.336,-0.352 0.33,-0.353 0.324,-0.354 0.319,-0.355 0.315,-0.358 0.31,-0.361 0.307,-0.364 0.304,-0.369 0.302,-0.373 0.3,-0.379 0.3,-0.386 0.3,-0.393 0.303,-0.4 0.308,-0.407 L 0.395,-0.529 C 0.388,-0.531 0.382,-0.535 0.377,-0.541 0.373,-0.547 0.371,-0.554 0.371,-0.562 c 0,-0.003 0,-0.007 0.002,-0.011 0.001,-0.003 0.003,-0.006 0.005,-0.01 l 0.175,-0.244 c 0.003,-0.005 0.007,-0.008 0.012,-0.011 0.005,-0.003 0.011,-0.004 0.016,-0.004 0.006,0 0.011,0.001 0.016,0.004 0.005,0.003 0.009,0.006 0.012,0.011 l 0.175,0.244 c 0.002,0.004 0.004,0.007 0.006,0.01 0.001,0.004 0.002,0.008 0.002,0.011 0,0.008 -0.003,0.015 -0.007,0.021 -0.004,0.006 -0.01,0.01 -0.018,0.012 l 0.087,0.122 c 0.005,0.007 0.008,0.014 0.008,0.021 0,0.007 -0.001,0.013 -0.004,0.017 -0.003,0.005 -0.006,0.008 -0.011,0.011 -0.004,0.003 -0.009,0.004 -0.015,0.005 -0.005,0.001 -0.011,0.002 -0.018,0.002 z"
         style="fill:#13a10e;fill-rule:nonzero"
         id="path8888" /></g></g></svg>
