<?xml version="1.0" encoding="UTF-8" standalone="no"?>
<svg
   width="14.73"
   height="16.844999"
   viewBox="0 0 14.73 16.844999"
   version="1.1"
   xml:space="preserve"
   style="clip-rule:evenodd;fill-rule:evenodd;stroke-linejoin:round;stroke-miterlimit:2"
   id="svg20568"
   sodipodi:docname="emojis.svg"
   xmlns:inkscape="http://www.inkscape.org/namespaces/inkscape"
   xmlns:sodipodi="http://sodipodi.sourceforge.net/DTD/sodipodi-0.dtd"
   xmlns="http://www.w3.org/2000/svg"
   xmlns:svg="http://www.w3.org/2000/svg"><defs
     id="defs20572" /><sodipodi:namedview
     id="namedview20570"
     pagecolor="#505050"
     bordercolor="#eeeeee"
     borderopacity="1"
     inkscape:pageshadow="0"
     inkscape:pageopacity="0"
     inkscape:pagecheckerboard="0" /><g
     transform="matrix(0.24,0,0,0.24,-223.46268,-421.7322)"
     id="g20566"><g
       transform="matrix(62.5,0,0,62.5,923.282,1814.28)"
       id="g8900"><path
         d="M 0.476,0.21 V 0.07 H 0.423 C 0.382,0.07 0.344,0.062 0.308,0.047 0.271,0.031 0.24,0.01 0.213,-0.017 0.185,-0.045 0.164,-0.076 0.148,-0.112 0.133,-0.148 0.125,-0.187 0.125,-0.228 c 0,-0.038 0.007,-0.075 0.021,-0.11 0.014,-0.035 0.034,-0.067 0.061,-0.095 -0.008,-0.025 -0.012,-0.05 -0.012,-0.076 0,-0.031 0.006,-0.06 0.016,-0.089 0.01,-0.028 0.025,-0.054 0.043,-0.077 0.019,-0.023 0.041,-0.042 0.067,-0.058 0.025,-0.016 0.053,-0.027 0.083,-0.034 0.009,-0.021 0.02,-0.041 0.034,-0.059 0.015,-0.018 0.031,-0.033 0.05,-0.046 0.018,-0.013 0.039,-0.023 0.06,-0.03 0.022,-0.007 0.045,-0.011 0.068,-0.011 0.024,0 0.046,0.004 0.068,0.011 0.022,0.007 0.043,0.017 0.061,0.03 0.019,0.013 0.035,0.028 0.049,0.046 0.015,0.018 0.026,0.038 0.035,0.059 0.03,0.007 0.058,0.018 0.083,0.034 0.026,0.016 0.048,0.035 0.067,0.058 0.018,0.023 0.033,0.049 0.043,0.077 0.01,0.029 0.016,0.058 0.016,0.089 0,0.027 -0.004,0.052 -0.012,0.076 0.026,0.028 0.046,0.06 0.06,0.095 0.014,0.035 0.021,0.072 0.021,0.11 0,0.041 -0.007,0.08 -0.023,0.116 C 1.068,-0.076 1.047,-0.045 1.02,-0.017 0.993,0.01 0.961,0.031 0.925,0.047 0.889,0.062 0.851,0.07 0.81,0.07 H 0.757 v 0.14 z"
         style="fill-rule:nonzero"
         id="path8892" /><path
         d="m 0.942,-0.414 c 0.015,0.011 0.028,0.023 0.04,0.037 0.012,0.014 0.022,0.029 0.03,0.045 0.008,0.016 0.015,0.032 0.019,0.05 0.004,0.017 0.007,0.035 0.007,0.054 0,0.032 -0.006,0.061 -0.018,0.089 C 1.008,-0.111 0.992,-0.087 0.971,-0.067 0.95,-0.046 0.926,-0.03 0.898,-0.018 0.871,-0.006 0.841,0 0.81,0 H 0.423 C 0.392,0 0.362,-0.006 0.334,-0.018 0.307,-0.03 0.283,-0.046 0.262,-0.067 0.241,-0.087 0.225,-0.111 0.213,-0.139 0.201,-0.167 0.195,-0.196 0.195,-0.228 c 0,-0.018 0.003,-0.036 0.007,-0.054 0.004,-0.017 0.011,-0.034 0.019,-0.05 0.008,-0.016 0.018,-0.031 0.03,-0.045 0.012,-0.014 0.025,-0.026 0.04,-0.037 C 0.282,-0.428 0.276,-0.444 0.271,-0.46 0.267,-0.476 0.265,-0.492 0.265,-0.509 c 0,-0.027 0.005,-0.052 0.015,-0.076 0.01,-0.023 0.024,-0.043 0.042,-0.061 0.017,-0.017 0.037,-0.03 0.061,-0.04 0.023,-0.01 0.048,-0.015 0.075,-0.016 0.001,0 0.001,0 0.001,0 0,0 0.001,0 0.001,0 0.002,-0.02 0.008,-0.038 0.017,-0.055 0.009,-0.017 0.02,-0.032 0.034,-0.045 0.014,-0.012 0.03,-0.022 0.048,-0.03 0.018,-0.007 0.037,-0.01 0.057,-0.01 0.02,0 0.039,0.003 0.057,0.01 0.018,0.008 0.034,0.018 0.048,0.03 0.014,0.013 0.025,0.028 0.034,0.045 0.009,0.017 0.015,0.035 0.017,0.055 0.001,0 0.001,0 0.001,0 0.001,0 0.001,0 0.001,0 0.027,0 0.052,0.005 0.076,0.015 0.023,0.01 0.043,0.024 0.061,0.042 0.017,0.018 0.031,0.038 0.041,0.062 0.01,0.023 0.015,0.048 0.015,0.074 0,0.017 -0.002,0.033 -0.006,0.049 -0.004,0.016 -0.011,0.032 -0.019,0.046 z"
         style="fill:#13a10e;fill-rule:nonzero"
         id="path8894" /><rect
         x="0.546"
         y="0"
         width="0.141"
         height="0.14"
         style="fill:#ca5010;fill-rule:nonzero"
         id="rect8896" /><path
         d="m 0.581,-0.632 c 0,0.015 -0.003,0.028 -0.008,0.041 -0.006,0.013 -0.013,0.024 -0.023,0.034 -0.009,0.009 -0.02,0.017 -0.033,0.022 -0.013,0.006 -0.026,0.009 -0.041,0.009 0,-0.015 0.003,-0.029 0.008,-0.041 C 0.49,-0.58 0.497,-0.591 0.507,-0.601 0.516,-0.61 0.527,-0.618 0.54,-0.624 0.553,-0.629 0.566,-0.632 0.581,-0.632 Z m 0.07,0 c 0.015,0 0.029,0.003 0.041,0.008 0.013,0.006 0.024,0.014 0.034,0.023 0.009,0.01 0.017,0.021 0.023,0.034 0.005,0.012 0.008,0.026 0.008,0.041 -0.015,0 -0.028,-0.003 -0.041,-0.009 C 0.703,-0.54 0.692,-0.548 0.682,-0.557 0.673,-0.567 0.665,-0.578 0.66,-0.591 0.654,-0.604 0.651,-0.617 0.651,-0.632 Z m -0.175,0.527 c 0,-0.015 0.003,-0.029 0.008,-0.041 C 0.49,-0.159 0.497,-0.17 0.507,-0.18 0.516,-0.189 0.527,-0.197 0.54,-0.202 0.553,-0.208 0.566,-0.21 0.581,-0.21 c 0,0.014 -0.003,0.028 -0.008,0.041 C 0.567,-0.157 0.56,-0.146 0.55,-0.136 0.541,-0.127 0.53,-0.119 0.517,-0.114 0.504,-0.108 0.491,-0.105 0.476,-0.105 Z M 0.651,-0.21 c 0.015,0 0.029,0.002 0.041,0.008 0.013,0.005 0.024,0.013 0.034,0.022 0.009,0.01 0.017,0.021 0.023,0.034 0.005,0.012 0.008,0.026 0.008,0.041 -0.015,0 -0.028,-0.003 -0.041,-0.009 C 0.703,-0.119 0.692,-0.127 0.682,-0.136 0.673,-0.146 0.665,-0.157 0.66,-0.169 0.654,-0.182 0.651,-0.196 0.651,-0.21 Z M 0.335,-0.316 c 0,-0.015 0.003,-0.028 0.009,-0.041 C 0.349,-0.37 0.357,-0.381 0.366,-0.39 0.376,-0.4 0.387,-0.408 0.4,-0.413 0.413,-0.419 0.426,-0.421 0.441,-0.421 0.441,-0.407 0.438,-0.393 0.433,-0.38 0.427,-0.368 0.42,-0.357 0.41,-0.347 0.4,-0.337 0.389,-0.33 0.376,-0.324 0.364,-0.319 0.35,-0.316 0.335,-0.316 Z m 0.176,-0.105 c 0.015,0 0.029,0.002 0.041,0.008 0.013,0.005 0.024,0.013 0.033,0.023 0.01,0.009 0.017,0.02 0.023,0.033 0.005,0.013 0.008,0.026 0.008,0.041 -0.014,0 -0.028,-0.003 -0.041,-0.008 C 0.562,-0.33 0.551,-0.337 0.542,-0.347 0.533,-0.357 0.525,-0.368 0.52,-0.38 0.514,-0.393 0.511,-0.407 0.511,-0.421 Z m 0.281,0 c 0.015,0 0.028,0.002 0.041,0.008 0.013,0.005 0.024,0.013 0.033,0.023 0.01,0.009 0.017,0.02 0.023,0.033 0.005,0.013 0.008,0.026 0.008,0.041 -0.015,0 -0.028,-0.003 -0.041,-0.008 C 0.843,-0.33 0.832,-0.337 0.823,-0.347 0.813,-0.357 0.806,-0.368 0.8,-0.38 0.795,-0.393 0.792,-0.407 0.792,-0.421 Z"
         style="fill:#107c10;fill-rule:nonzero"
         id="path8898" /></g></g></svg>
