<?xml version="1.0" encoding="UTF-8" standalone="no"?>
<svg
   width="13.68"
   height="16.844999"
   viewBox="0 0 13.68 16.844999"
   version="1.1"
   xml:space="preserve"
   style="clip-rule:evenodd;fill-rule:evenodd;stroke-linejoin:round;stroke-miterlimit:2"
   id="svg20568"
   sodipodi:docname="emojis.svg"
   xmlns:inkscape="http://www.inkscape.org/namespaces/inkscape"
   xmlns:sodipodi="http://sodipodi.sourceforge.net/DTD/sodipodi-0.dtd"
   xmlns="http://www.w3.org/2000/svg"
   xmlns:svg="http://www.w3.org/2000/svg"><defs
     id="defs20572" /><sodipodi:namedview
     id="namedview20570"
     pagecolor="#505050"
     bordercolor="#eeeeee"
     borderopacity="1"
     inkscape:pageshadow="0"
     inkscape:pageopacity="0"
     inkscape:pagecheckerboard="0" /><g
     transform="matrix(0.24,0,0,0.24,-260.559,-421.7322)"
     id="g20566"><g
       transform="matrix(62.5,0,0,62.5,1077.85,1814.28)"
       id="g8920"><path
         d="m 0.371,0.21 v -0.227 c -0.011,-0.01 -0.02,-0.021 -0.026,-0.031 -0.006,-0.011 -0.01,-0.024 -0.01,-0.04 0,-0.01 0.002,-0.019 0.005,-0.028 0.003,-0.01 0.007,-0.018 0.014,-0.026 L 0.227,-0.232 C 0.214,-0.241 0.203,-0.251 0.195,-0.26 0.186,-0.269 0.179,-0.279 0.174,-0.29 0.169,-0.301 0.165,-0.312 0.163,-0.325 0.161,-0.337 0.16,-0.352 0.16,-0.368 0.149,-0.378 0.141,-0.389 0.135,-0.399 0.128,-0.41 0.125,-0.423 0.125,-0.439 c 0,-0.015 0.003,-0.028 0.009,-0.04 C 0.14,-0.49 0.149,-0.5 0.16,-0.509 v -0.053 c 0,-0.018 0.004,-0.036 0.011,-0.053 0.008,-0.018 0.018,-0.033 0.031,-0.045 0.012,-0.013 0.027,-0.023 0.044,-0.031 0.017,-0.007 0.035,-0.011 0.054,-0.011 0.013,0 0.026,0.002 0.038,0.005 -0.002,-0.007 -0.003,-0.014 -0.003,-0.022 0,-0.02 0.006,-0.037 0.017,-0.052 0.012,-0.016 0.026,-0.026 0.045,-0.032 0.009,-0.017 0.02,-0.032 0.033,-0.046 0.014,-0.013 0.028,-0.025 0.044,-0.034 0.016,-0.01 0.033,-0.017 0.051,-0.022 0.018,-0.005 0.037,-0.008 0.056,-0.008 0.029,0 0.056,0.006 0.082,0.017 0.025,0.011 0.048,0.026 0.067,0.045 0.019,0.019 0.034,0.042 0.045,0.067 0.011,0.026 0.017,0.053 0.017,0.082 v 0.017 c 0.011,0.009 0.02,0.019 0.026,0.031 0.006,0.013 0.009,0.026 0.009,0.04 0,0.008 -0.001,0.016 -0.003,0.023 0.012,-0.004 0.025,-0.006 0.038,-0.006 0.019,0 0.037,0.004 0.054,0.012 0.017,0.007 0.032,0.017 0.045,0.03 0.013,0.013 0.023,0.027 0.03,0.045 0.008,0.017 0.011,0.035 0.011,0.053 v 0.053 c 0.012,0.009 0.02,0.02 0.026,0.031 0.006,0.012 0.009,0.025 0.009,0.04 0,0.015 -0.003,0.028 -0.009,0.039 -0.007,0.011 -0.015,0.021 -0.026,0.032 0,0.015 -0.001,0.03 -0.003,0.042 -0.002,0.013 -0.006,0.025 -0.011,0.035 -0.005,0.011 -0.012,0.021 -0.02,0.031 -0.009,0.009 -0.019,0.018 -0.032,0.028 l -0.127,0.09 c 0.006,0.007 0.01,0.016 0.013,0.025 0.003,0.009 0.005,0.019 0.005,0.029 0,0.015 -0.003,0.028 -0.01,0.039 C 0.811,0.068 0.803,0.079 0.792,0.089 V 0.21 Z"
         style="fill-rule:nonzero"
         id="path8914" /><path
         d="m 0.862,-0.526 c 0.01,0 0.019,0.001 0.027,0.005 0.009,0.004 0.016,0.009 0.022,0.015 0.007,0.006 0.012,0.014 0.016,0.022 0.003,0.009 0.005,0.018 0.005,0.027 v 0.211 c 0,0.014 -0.003,0.026 -0.009,0.035 -0.007,0.01 -0.015,0.018 -0.026,0.026 L 0.722,-0.06 v 0.2 H 0.441 V -0.166 L 0.265,-0.291 C 0.254,-0.298 0.246,-0.307 0.24,-0.316 0.233,-0.326 0.23,-0.337 0.23,-0.351 v -0.211 c 0,-0.009 0.002,-0.018 0.006,-0.027 0.003,-0.008 0.008,-0.016 0.015,-0.022 0.006,-0.006 0.013,-0.011 0.022,-0.015 0.008,-0.004 0.018,-0.006 0.027,-0.006 0.01,0 0.019,0.002 0.028,0.006 0.008,0.004 0.016,0.009 0.022,0.015 0.006,0.006 0.011,0.014 0.015,0.022 0.004,0.009 0.006,0.018 0.006,0.027 v 0.141 c 0,0.009 0.003,0.018 0.01,0.025 0.007,0.006 0.015,0.01 0.025,0.01 0.01,0 0.018,-0.004 0.025,-0.01 0.006,-0.007 0.01,-0.016 0.01,-0.025 v -0.281 c 0,-0.019 0.004,-0.038 0.011,-0.055 0.007,-0.017 0.017,-0.032 0.03,-0.044 0.013,-0.013 0.028,-0.023 0.045,-0.03 0.017,-0.008 0.035,-0.011 0.054,-0.011 0.019,0 0.037,0.003 0.054,0.011 0.017,0.007 0.032,0.018 0.045,0.03 0.013,0.013 0.023,0.028 0.03,0.045 0.008,0.017 0.012,0.035 0.012,0.054 v 0.386 c 0,0.01 0.003,0.018 0.01,0.025 0.007,0.007 0.015,0.01 0.025,0.01 0.009,0 0.017,-0.003 0.024,-0.01 0.007,-0.007 0.011,-0.015 0.011,-0.025 v -0.141 c 0,-0.009 0.001,-0.018 0.005,-0.027 0.004,-0.008 0.009,-0.016 0.015,-0.022 0.007,-0.006 0.014,-0.011 0.022,-0.015 0.009,-0.004 0.018,-0.005 0.028,-0.005 z"
         style="fill:#bad80a;fill-rule:nonzero"
         id="path8916" /><path
         d="m 0.318,-0.421 c 0.005,0 0.009,0.001 0.012,0.005 0.004,0.003 0.005,0.007 0.005,0.012 v 0.071 c 0,0.004 -0.001,0.009 -0.005,0.012 -0.003,0.003 -0.007,0.005 -0.012,0.005 -0.005,0 -0.009,-0.002 -0.013,-0.005 C 0.302,-0.324 0.3,-0.329 0.3,-0.333 v -0.071 c 0,-0.005 0.002,-0.009 0.005,-0.012 0.004,-0.004 0.008,-0.005 0.013,-0.005 z m 0.579,-0.018 v 0.07 c 0,0.005 -0.002,0.009 -0.005,0.013 -0.004,0.003 -0.008,0.005 -0.013,0.005 -0.004,0 -0.009,-0.002 -0.012,-0.005 C 0.864,-0.36 0.862,-0.364 0.862,-0.369 v -0.07 c 0,-0.005 0.002,-0.009 0.005,-0.012 0.003,-0.004 0.008,-0.006 0.012,-0.006 0.005,0 0.009,0.002 0.013,0.006 0.003,0.003 0.005,0.007 0.005,0.012 z m -0.263,0.088 c 0.005,0 0.009,0.002 0.012,0.005 0.004,0.003 0.005,0.008 0.005,0.013 v 0.07 c 0,0.005 -0.001,0.009 -0.005,0.012 -0.003,0.004 -0.007,0.005 -0.012,0.005 -0.005,0 -0.009,-0.001 -0.013,-0.005 C 0.618,-0.254 0.616,-0.258 0.616,-0.263 v -0.07 c 0,-0.005 0.002,-0.01 0.005,-0.013 0.004,-0.003 0.008,-0.005 0.013,-0.005 z M 0.423,-0.246 C 0.418,-0.246 0.414,-0.247 0.411,-0.251 0.407,-0.254 0.406,-0.258 0.406,-0.263 v -0.07 c 0,-0.005 10e-4,-0.01 0.005,-0.013 0.003,-0.003 0.007,-0.005 0.012,-0.005 0.005,0 0.009,0.002 0.013,0.005 0.003,0.003 0.005,0.008 0.005,0.013 v 0.07 c 0,0.005 -0.002,0.009 -0.005,0.012 -0.004,0.004 -0.008,0.005 -0.013,0.005 z m 0.211,0.105 c 0.005,0 0.009,0.002 0.012,0.006 0.004,0.003 0.005,0.007 0.005,0.012 v 0.07 c 0,0.005 -0.001,0.009 -0.005,0.013 -0.003,0.003 -0.007,0.005 -0.012,0.005 -0.005,0 -0.009,-0.002 -0.013,-0.005 C 0.618,-0.044 0.616,-0.048 0.616,-0.053 v -0.07 c 0,-0.005 0.002,-0.009 0.005,-0.012 0.004,-0.004 0.008,-0.006 0.013,-0.006 z M 0.528,-0.667 c 0.005,0 0.009,0.002 0.013,0.005 0.003,0.004 0.005,0.008 0.005,0.013 v 0.07 c 0,0.005 -0.002,0.009 -0.005,0.012 -0.004,0.004 -0.008,0.005 -0.013,0.005 -0.004,0 -0.008,-10e-4 -0.012,-0.005 C 0.513,-0.57 0.511,-0.575 0.511,-0.579 v -0.07 c 0,-0.005 0.002,-0.009 0.005,-0.013 0.004,-0.003 0.008,-0.005 0.012,-0.005 z m 0,0.21 c 0.005,0 0.009,0.002 0.013,0.006 0.003,0.003 0.005,0.007 0.005,0.012 v 0.07 c 0,0.005 -0.002,0.009 -0.005,0.013 -0.004,0.003 -0.008,0.005 -0.013,0.005 -0.004,0 -0.008,-0.002 -0.012,-0.005 C 0.513,-0.36 0.511,-0.364 0.511,-0.369 v -0.07 c 0,-0.005 0.002,-0.009 0.005,-0.012 0.004,-0.004 0.008,-0.006 0.012,-0.006 z m 0.316,0.141 c 0.005,0 0.009,0.002 0.013,0.005 0.003,0.004 0.005,0.008 0.005,0.013 v 0.07 c 0,0.005 -0.002,0.009 -0.006,0.012 C 0.853,-0.212 0.849,-0.21 0.844,-0.21 0.84,-0.21 0.836,-0.212 0.832,-0.216 0.828,-0.219 0.827,-0.223 0.827,-0.228 v -0.07 c 0,-0.005 0.001,-0.009 0.005,-0.013 0.003,-0.003 0.007,-0.005 0.012,-0.005 z m -0.316,0.281 c 0.005,0 0.009,0.002 0.013,0.005 0.003,0.003 0.005,0.008 0.005,0.012 V 0.053 C 0.546,0.057 0.544,0.061 0.541,0.065 0.537,0.069 0.533,0.07 0.528,0.07 0.524,0.07 0.52,0.069 0.516,0.065 0.513,0.061 0.511,0.057 0.511,0.053 v -0.071 c 0,-0.004 0.002,-0.008 0.005,-0.012 0.004,-0.003 0.008,-0.005 0.012,-0.005 z M 0.3,-0.544 v 0.07 c 0,0.005 -0.001,0.009 -0.005,0.012 -0.003,0.004 -0.007,0.005 -0.012,0.005 -0.005,0 -0.009,-0.001 -0.013,-0.005 C 0.267,-0.465 0.265,-0.469 0.265,-0.474 v -0.07 c 0,-0.005 0.002,-0.009 0.005,-0.012 0.004,-0.004 0.008,-0.006 0.013,-0.006 0.005,0 0.009,0.002 0.012,0.006 0.004,0.003 0.005,0.007 0.005,0.012 z m 0.334,-0.018 c 0.005,0 0.009,0.002 0.012,0.006 0.004,0.003 0.005,0.007 0.005,0.012 v 0.07 c 0,0.005 -0.001,0.009 -0.005,0.012 -0.003,0.004 -0.007,0.005 -0.012,0.005 -0.005,0 -0.009,-0.001 -0.013,-0.005 C 0.618,-0.465 0.616,-0.469 0.616,-0.474 v -0.07 c 0,-0.005 0.002,-0.009 0.005,-0.012 0.004,-0.004 0.008,-0.006 0.013,-0.006 z m 0.123,0.404 c 0,0.005 -0.002,0.009 -0.005,0.012 -0.004,0.004 -0.008,0.005 -0.013,0.005 -0.005,0 -0.009,-0.001 -0.012,-0.005 C 0.723,-0.149 0.722,-0.153 0.722,-0.158 v -0.07 c 0,-0.005 0.001,-0.009 0.005,-0.012 0.003,-0.004 0.007,-0.006 0.012,-0.006 0.005,0 0.009,0.002 0.013,0.006 0.003,0.003 0.005,0.007 0.005,0.012 z M 0.634,-0.772 c 0.004,0 0.008,0.002 0.012,0.005 0.004,0.004 0.005,0.008 0.005,0.012 v 0.07 c 0,0.005 -0.001,0.009 -0.005,0.013 -0.003,0.003 -0.007,0.005 -0.012,0.005 -0.005,0 -0.009,-0.002 -0.013,-0.005 C 0.618,-0.676 0.616,-0.68 0.616,-0.685 v -0.07 c 0,-0.004 0.002,-0.008 0.006,-0.012 0.003,-0.003 0.007,-0.005 0.012,-0.005 z m -0.106,0.526 c 0.005,0 0.009,0.002 0.013,0.006 0.003,0.003 0.005,0.007 0.005,0.012 v 0.07 c 0,0.005 -0.002,0.009 -0.005,0.012 -0.004,0.004 -0.008,0.005 -0.013,0.005 -0.004,0 -0.008,-0.001 -0.012,-0.005 C 0.513,-0.15 0.511,-0.154 0.511,-0.158 v -0.07 c 0,-0.005 0.002,-0.009 0.005,-0.012 0.004,-0.004 0.008,-0.006 0.012,-0.006 z M 0.686,0.053 C 0.686,0.048 0.688,0.044 0.691,0.04 L 0.727,0.005 C 0.73,0.002 0.734,0 0.739,0 0.744,0 0.748,0.002 0.751,0.005 0.755,0.009 0.756,0.013 0.756,0.018 0.756,0.022 0.755,0.027 0.751,0.03 L 0.716,0.065 C 0.713,0.069 0.708,0.07 0.704,0.07 0.699,0.07 0.695,0.069 0.691,0.065 0.688,0.061 0.686,0.057 0.686,0.053 Z m 0,-0.422 c 0,-0.004 0.002,-0.008 0.005,-0.012 l 0.036,-0.035 c 0.003,-0.003 0.007,-0.005 0.012,-0.005 0.004,0 0.008,0.002 0.012,0.005 0.004,0.004 0.005,0.008 0.005,0.012 0,0.005 -0.001,0.01 -0.005,0.013 L 0.716,-0.356 C 0.713,-0.352 0.708,-0.351 0.704,-0.351 0.699,-0.351 0.695,-0.352 0.691,-0.356 0.688,-0.36 0.686,-0.364 0.686,-0.369 Z M 0.423,-0.526 c 0.005,0 0.009,0.001 0.013,0.005 l 0.035,0.035 c 0.003,0.003 0.005,0.007 0.005,0.012 0,0.005 -0.002,0.009 -0.006,0.013 -0.003,0.003 -0.007,0.005 -0.012,0.005 -0.005,0 -0.009,-0.002 -0.012,-0.005 L 0.411,-0.497 C 0.407,-0.5 0.405,-0.504 0.405,-0.509 c 0,-0.004 0.002,-0.008 0.006,-0.012 0.003,-0.004 0.007,-0.005 0.012,-0.005 z m -0.211,0.07 c 0.006,0 0.01,0.002 0.013,0.005 l 0.035,0.035 c 0.004,0.003 0.005,0.007 0.005,0.013 0,0.004 -0.002,0.008 -0.005,0.012 -0.004,0.003 -0.008,0.005 -0.012,0.005 -0.005,0 -0.009,-0.002 -0.013,-0.005 L 0.2,-0.426 C 0.197,-0.43 0.195,-0.434 0.195,-0.438 c 0,-0.005 0.002,-0.009 0.005,-0.013 0.004,-0.003 0.008,-0.005 0.012,-0.005 z m 0.211,-0.281 c 0.005,0 0.009,0.002 0.013,0.005 l 0.035,0.035 c 0.003,0.003 0.005,0.008 0.005,0.013 0,0.004 -0.002,0.009 -0.006,0.012 -0.003,0.004 -0.007,0.005 -0.012,0.005 -0.005,0 -0.009,-0.001 -0.012,-0.005 L 0.411,-0.707 C 0.407,-0.711 0.405,-0.715 0.405,-0.719 c 0,-0.005 0.002,-0.009 0.006,-0.012 0.003,-0.004 0.007,-0.006 0.012,-0.006 z m 0.263,0.158 c 0,-0.005 0.002,-0.009 0.005,-0.012 l 0.036,-0.035 c 0.003,-0.004 0.007,-0.005 0.012,-0.005 0.005,0 0.009,0.001 0.012,0.005 0.004,0.003 0.005,0.007 0.005,0.012 0,0.005 -0.001,0.009 -0.005,0.012 L 0.716,-0.567 C 0.713,-0.563 0.708,-0.562 0.704,-0.562 0.699,-0.562 0.695,-0.563 0.691,-0.567 0.688,-0.57 0.686,-0.575 0.686,-0.579 Z m -0.263,0.474 c 0.005,0 0.009,0.002 0.013,0.005 l 0.035,0.035 c 0.003,0.003 0.005,0.007 0.005,0.012 0,0.005 -0.002,0.009 -0.006,0.013 -0.003,0.003 -0.007,0.005 -0.012,0.005 -0.005,0 -0.009,-0.002 -0.012,-0.006 L 0.411,-0.076 C 0.407,-0.079 0.405,-0.083 0.405,-0.088 0.405,-0.092 0.407,-0.096 0.411,-0.1 0.414,-0.103 0.418,-0.105 0.423,-0.105 Z M 0.95,-0.351 c 0.005,0 0.009,0.002 0.012,0.005 0.003,0.003 0.005,0.008 0.005,0.013 0,0.004 -0.002,0.008 -0.005,0.012 L 0.927,-0.286 C 0.923,-0.283 0.919,-0.281 0.915,-0.281 0.91,-0.281 0.906,-0.283 0.902,-0.286 0.899,-0.29 0.897,-0.294 0.897,-0.298 c 0,-0.005 0.002,-0.009 0.005,-0.013 L 0.937,-0.346 C 0.941,-0.349 0.945,-0.351 0.95,-0.351 Z"
         style="fill:#13a10e;fill-rule:nonzero"
         id="path8918" /></g></g></svg>
