<?xml version="1.0" encoding="UTF-8" standalone="no"?>
<svg
   width="16.844999"
   height="15.78"
   viewBox="0 0 16.844999 15.78"
   version="1.1"
   xml:space="preserve"
   style="clip-rule:evenodd;fill-rule:evenodd;stroke-linejoin:round;stroke-miterlimit:2"
   id="svg20568"
   sodipodi:docname="emojis.svg"
   xmlns:inkscape="http://www.inkscape.org/namespaces/inkscape"
   xmlns:sodipodi="http://sodipodi.sourceforge.net/DTD/sodipodi-0.dtd"
   xmlns="http://www.w3.org/2000/svg"
   xmlns:svg="http://www.w3.org/2000/svg"><defs
     id="defs20572" /><sodipodi:namedview
     id="namedview20570"
     pagecolor="#505050"
     bordercolor="#eeeeee"
     borderopacity="1"
     inkscape:pageshadow="0"
     inkscape:pageopacity="0"
     inkscape:pagecheckerboard="0" /><g
     transform="matrix(0.24,0,0,0.24,-415.767,-422.7972)"
     id="g20566"><g
       transform="matrix(62.5,0,0,62.5,1724.55,1814.28)"
       id="g9004"><path
         d="m 0.125,0.21 v -0.28 c 0,-0.052 0.007,-0.101 0.02,-0.149 0.013,-0.048 0.032,-0.093 0.057,-0.135 0.024,-0.041 0.053,-0.079 0.088,-0.113 0.034,-0.034 0.072,-0.064 0.113,-0.088 0.042,-0.025 0.087,-0.043 0.134,-0.057 0.048,-0.013 0.098,-0.02 0.15,-0.02 h 0.131 c 0.007,-0.006 0.013,-0.014 0.018,-0.022 0.006,-0.008 0.01,-0.017 0.014,-0.026 0.004,-0.01 0.007,-0.019 0.009,-0.029 0.002,-0.01 0.003,-0.019 0.003,-0.028 0,-0.015 0.003,-0.028 0.008,-0.041 0.006,-0.013 0.014,-0.024 0.023,-0.033 0.01,-0.01 0.021,-0.017 0.034,-0.023 0.012,-0.006 0.026,-0.008 0.04,-0.008 0.014,0 0.028,0.002 0.041,0.008 0.012,0.006 0.024,0.013 0.033,0.023 0.01,0.009 0.018,0.02 0.023,0.033 0.006,0.013 0.009,0.026 0.009,0.041 0,0.023 -0.003,0.046 -0.007,0.069 -0.005,0.024 -0.012,0.046 -0.021,0.068 -0.009,0.022 -0.02,0.043 -0.033,0.063 -0.013,0.02 -0.028,0.038 -0.045,0.054 v 0.034 c 0.041,0.008 0.078,0.023 0.113,0.044 0.034,0.021 0.064,0.047 0.089,0.078 0.025,0.03 0.044,0.065 0.058,0.102 0.014,0.038 0.021,0.078 0.021,0.12 V 0.14 H 1.002 C 0.962,0.14 0.924,0.134 0.886,0.121 0.849,0.108 0.815,0.089 0.784,0.064 0.758,0.087 0.73,0.108 0.701,0.126 0.671,0.145 0.64,0.16 0.608,0.172 0.576,0.185 0.543,0.194 0.509,0.201 0.475,0.207 0.441,0.21 0.406,0.21 Z"
         style="fill-rule:nonzero"
         id="path8994" /><path
         d="m 0.897,-0.386 c 0.038,0 0.075,0.007 0.109,0.022 0.034,0.015 0.064,0.035 0.089,0.06 0.026,0.026 0.046,0.055 0.061,0.09 0.014,0.034 0.022,0.07 0.022,0.109 V 0.07 H 1.002 C 0.964,0.07 0.927,0.063 0.893,0.048 0.859,0.033 0.83,0.013 0.804,-0.012 0.779,-0.038 0.759,-0.067 0.744,-0.101 0.729,-0.135 0.722,-0.172 0.722,-0.21 v -0.176 z"
         style="fill:#ffb900;fill-rule:nonzero"
         id="path8996" /><path
         d="m 0.992,-0.141 0.111,0.111 c 0.003,0.003 0.004,0.007 0.004,0.012 0,0.005 -10e-4,0.009 -0.005,0.013 C 1.099,-0.002 1.095,0 1.09,0 1.085,0 1.081,-0.002 1.078,-0.005 L 0.967,-0.116 v 0.098 c 0,0.005 -0.001,0.009 -0.005,0.013 C 0.959,-0.002 0.955,0 0.95,0 0.945,0 0.941,-0.002 0.937,-0.005 0.934,-0.009 0.932,-0.013 0.932,-0.018 v -0.133 l -0.1,-0.1 C 0.828,-0.255 0.827,-0.259 0.827,-0.263 c 0,-0.005 0.001,-0.009 0.005,-0.012 0.004,-0.004 0.008,-0.006 0.012,-0.006 0.005,0 0.01,0.002 0.013,0.005 l 0.1,0.1 H 1.09 c 0.005,0 0.009,0.002 0.012,0.005 0.004,0.004 0.005,0.008 0.005,0.013 0,0.005 -10e-4,0.009 -0.005,0.012 -0.003,0.004 -0.007,0.005 -0.012,0.005 z"
         style="fill:#d48c00;fill-rule:nonzero"
         id="path8998" /><path
         d="m 0.687,-0.562 h 0.21 v 0.211 c 0,0.045 -0.006,0.089 -0.018,0.131 C 0.868,-0.179 0.851,-0.139 0.83,-0.103 0.809,-0.067 0.783,-0.033 0.753,-0.004 0.723,0.026 0.69,0.052 0.654,0.073 0.617,0.094 0.578,0.111 0.536,0.123 0.495,0.134 0.451,0.14 0.406,0.14 H 0.195 v -0.21 c 0,-0.046 0.006,-0.089 0.018,-0.131 0.012,-0.042 0.028,-0.081 0.049,-0.117 0.022,-0.037 0.047,-0.07 0.077,-0.1 0.03,-0.03 0.063,-0.055 0.099,-0.076 0.037,-0.022 0.076,-0.038 0.118,-0.05 0.042,-0.012 0.085,-0.018 0.131,-0.018 z"
         style="fill:#f7630c;fill-rule:nonzero"
         id="path9000" /><path
         d="m 1.002,-0.737 c 0,0.017 -0.001,0.035 -0.005,0.054 -0.004,0.018 -0.009,0.036 -0.016,0.054 -0.007,0.017 -0.016,0.034 -0.026,0.05 -0.01,0.016 -0.021,0.03 -0.033,0.042 l -0.165,0.165 v 0.196 c 0,0.01 -0.004,0.018 -0.01,0.025 -0.007,0.007 -0.016,0.01 -0.025,0.01 -0.01,0 -0.018,-0.003 -0.025,-0.01 C 0.69,-0.158 0.687,-0.166 0.687,-0.176 V -0.301 L 0.581,-0.196 V 0 c 0,0.01 -0.003,0.018 -0.01,0.025 C 0.564,0.032 0.556,0.035 0.546,0.035 0.536,0.035 0.528,0.032 0.521,0.025 0.515,0.018 0.511,0.009 0.511,0 V -0.126 L 0.36,0.025 C 0.354,0.032 0.345,0.035 0.335,0.035 0.326,0.035 0.317,0.032 0.311,0.025 0.304,0.018 0.3,0.01 0.3,0 c 0,-0.01 0.004,-0.018 0.011,-0.025 l 0.15,-0.151 H 0.335 c -0.009,0 -0.017,-0.003 -0.024,-0.01 C 0.304,-0.193 0.3,-0.201 0.3,-0.21 0.3,-0.22 0.304,-0.229 0.311,-0.235 0.317,-0.242 0.326,-0.246 0.335,-0.246 H 0.532 L 0.637,-0.351 H 0.511 c -0.01,0 -0.018,-0.003 -0.025,-0.01 -0.007,-0.007 -0.01,-0.015 -0.01,-0.025 0,-0.01 0.003,-0.018 0.01,-0.025 0.007,-0.007 0.015,-0.01 0.025,-0.01 h 0.196 l 0.165,-0.165 c 0.009,-0.01 0.017,-0.02 0.025,-0.032 0.007,-0.012 0.013,-0.025 0.019,-0.038 0.005,-0.014 0.009,-0.027 0.012,-0.041 0.003,-0.014 0.004,-0.028 0.004,-0.04 0,-0.01 0.004,-0.018 0.011,-0.025 0.007,-0.007 0.015,-0.01 0.024,-0.01 0.01,0 0.018,0.003 0.025,0.01 0.007,0.007 0.01,0.015 0.01,0.025 z"
         style="fill:#af0d1a;fill-rule:nonzero"
         id="path9002" /></g></g></svg>
