<?xml version="1.0" encoding="UTF-8" standalone="no"?>
<svg
   width="15.795"
   height="15.78"
   viewBox="0 0 15.795 15.78"
   version="1.1"
   xml:space="preserve"
   style="clip-rule:evenodd;fill-rule:evenodd;stroke-linejoin:round;stroke-miterlimit:2"
   id="svg20568"
   sodipodi:docname="emojis.svg"
   xmlns:inkscape="http://www.inkscape.org/namespaces/inkscape"
   xmlns:sodipodi="http://sodipodi.sourceforge.net/DTD/sodipodi-0.dtd"
   xmlns="http://www.w3.org/2000/svg"
   xmlns:svg="http://www.w3.org/2000/svg"><defs
     id="defs20572" /><sodipodi:namedview
     id="namedview20570"
     pagecolor="#505050"
     bordercolor="#eeeeee"
     borderopacity="1"
     inkscape:pageshadow="0"
     inkscape:pageopacity="0"
     inkscape:pagecheckerboard="0" /><g
     transform="matrix(0.24,0,0,0.24,-456.9582,-422.2722)"
     id="g20566"><g
       transform="matrix(62.5,0,0,62.5,1896.18,1814.28)"
       id="g9022"><path
         d="m 0.651,-0.877 c 0.049,0 0.096,0.006 0.14,0.018 0.045,0.013 0.087,0.031 0.126,0.053 0.039,0.023 0.075,0.051 0.107,0.083 0.032,0.032 0.059,0.067 0.082,0.106 0.023,0.039 0.04,0.081 0.053,0.126 0.012,0.045 0.019,0.091 0.019,0.14 0,0.048 -0.007,0.095 -0.019,0.14 -0.013,0.045 -0.03,0.086 -0.053,0.126 C 1.083,-0.046 1.056,-0.011 1.024,0.021 0.992,0.053 0.956,0.081 0.917,0.104 0.878,0.126 0.836,0.144 0.791,0.156 0.747,0.169 0.7,0.175 0.651,0.175 0.603,0.175 0.556,0.169 0.511,0.156 0.467,0.144 0.425,0.126 0.386,0.104 0.347,0.081 0.311,0.053 0.279,0.021 0.247,-0.011 0.22,-0.046 0.197,-0.085 0.174,-0.125 0.156,-0.166 0.144,-0.211 0.131,-0.256 0.125,-0.303 0.125,-0.351 c 0,-0.049 0.006,-0.095 0.019,-0.14 0.012,-0.045 0.03,-0.087 0.053,-0.126 0.023,-0.039 0.05,-0.074 0.082,-0.106 0.032,-0.032 0.068,-0.06 0.107,-0.083 0.039,-0.022 0.081,-0.04 0.125,-0.053 0.045,-0.012 0.092,-0.018 0.14,-0.018 z"
         style="fill-rule:nonzero"
         id="path9016" /><path
         d="m 0.801,-0.782 0.297,0.335 c 0.006,0.032 0.009,0.064 0.009,0.096 0,0.042 -0.005,0.082 -0.016,0.121 C 1.08,-0.191 1.065,-0.155 1.045,-0.121 1.025,-0.087 1.002,-0.056 0.974,-0.029 0.946,-0.001 0.915,0.023 0.882,0.043 0.848,0.062 0.812,0.078 0.773,0.089 0.734,0.1 0.693,0.105 0.651,0.105 0.609,0.105 0.569,0.1 0.53,0.089 0.491,0.078 0.455,0.062 0.421,0.043 0.387,0.023 0.357,-0.001 0.329,-0.029 0.301,-0.056 0.277,-0.087 0.258,-0.121 0.238,-0.155 0.223,-0.191 0.212,-0.23 0.201,-0.269 0.195,-0.309 0.195,-0.351 c 0,-0.042 0.006,-0.083 0.017,-0.121 0.011,-0.039 0.026,-0.076 0.046,-0.109 0.019,-0.034 0.043,-0.065 0.071,-0.093 0.028,-0.027 0.058,-0.051 0.092,-0.071 0.034,-0.02 0.07,-0.035 0.109,-0.046 0.039,-0.011 0.079,-0.016 0.121,-0.016 0.052,0 0.102,0.008 0.15,0.025 z"
         style="fill:#0078d7;fill-rule:nonzero"
         id="path9018" /><path
         d="m 0.844,-0.176 c 0.005,0 0.009,0.002 0.013,0.005 0.003,0.004 0.005,0.008 0.005,0.013 v 0.035 c 0,0.005 -0.002,0.009 -0.005,0.012 -0.004,0.004 -0.008,0.006 -0.013,0.006 -0.004,0 -0.008,-0.002 -0.012,-0.006 C 0.828,-0.114 0.827,-0.118 0.827,-0.123 v -0.035 c 0,-0.005 0.001,-0.009 0.005,-0.012 0.004,-0.004 0.008,-0.006 0.012,-0.006 z M 0.801,-0.782 c 0.038,0.013 0.073,0.031 0.105,0.053 0.032,0.022 0.061,0.047 0.087,0.076 0.025,0.029 0.047,0.061 0.065,0.095 0.018,0.035 0.031,0.072 0.04,0.111 -0.007,0.008 -0.014,0.015 -0.021,0.021 -0.007,0.007 -0.014,0.014 -0.019,0.021 -0.006,0.007 -0.011,0.015 -0.015,0.024 -0.004,0.009 -0.005,0.018 -0.005,0.029 -0.01,0 -0.018,-0.003 -0.025,-0.01 C 1.006,-0.369 1.002,-0.377 1.002,-0.387 1.002,-0.396 1.001,-0.406 0.997,-0.414 0.993,-0.423 0.988,-0.43 0.982,-0.436 0.975,-0.443 0.968,-0.448 0.959,-0.451 0.951,-0.455 0.942,-0.457 0.932,-0.457 0.923,-0.457 0.916,-0.459 0.911,-0.462 0.906,-0.466 0.901,-0.47 0.897,-0.474 0.893,-0.479 0.889,-0.483 0.884,-0.486 0.878,-0.49 0.871,-0.492 0.862,-0.492 c 0,0.01 0.003,0.018 0.01,0.025 0.007,0.007 0.016,0.01 0.025,0.01 0,0.01 -0.002,0.019 -0.005,0.027 -0.004,0.009 -0.009,0.016 -0.015,0.023 -0.007,0.006 -0.014,0.011 -0.023,0.015 -0.008,0.003 -0.017,0.005 -0.027,0.005 0,-0.009 -0.001,-0.017 -0.004,-0.024 C 0.821,-0.418 0.818,-0.425 0.813,-0.431 0.809,-0.438 0.804,-0.444 0.799,-0.449 0.794,-0.455 0.788,-0.461 0.782,-0.467 c 0.003,0.007 0.006,0.015 0.007,0.022 0.002,0.008 0.003,0.015 0.003,0.023 0,0.01 0.002,0.019 0.005,0.027 0.004,0.009 0.009,0.016 0.015,0.023 0.007,0.006 0.014,0.011 0.022,0.015 0.009,0.004 0.018,0.005 0.028,0.005 -0.022,0.018 -0.039,0.039 -0.051,0.063 -0.013,0.024 -0.019,0.05 -0.019,0.078 0,0.009 -0.002,0.015 -0.006,0.021 -0.003,0.005 -0.007,0.01 -0.012,0.014 -0.004,0.004 -0.008,0.009 -0.012,0.014 -0.003,0.006 -0.005,0.012 -0.005,0.021 0,0.015 -0.003,0.028 -0.008,0.041 -0.006,0.013 -0.014,0.024 -0.023,0.033 -0.01,0.01 -0.021,0.018 -0.034,0.023 -0.012,0.006 -0.026,0.008 -0.041,0.008 -0.008,0 -0.014,-0.001 -0.019,-0.004 -0.004,-0.003 -0.008,-0.007 -0.01,-0.012 -0.003,-0.005 -0.004,-0.01 -0.005,-0.016 0,-0.007 -0.001,-0.013 -0.001,-0.019 v -0.019 c 0,-0.008 -0.002,-0.015 -0.005,-0.02 C 0.607,-0.131 0.603,-0.136 0.598,-0.141 0.594,-0.146 0.59,-0.151 0.586,-0.156 0.583,-0.161 0.581,-0.168 0.581,-0.176 v -0.07 c 0,-0.01 -0.002,-0.019 -0.005,-0.027 C 0.572,-0.282 0.567,-0.289 0.561,-0.296 0.554,-0.302 0.547,-0.307 0.539,-0.311 0.53,-0.315 0.521,-0.316 0.511,-0.316 h -0.07 c -0.01,0 -0.019,-0.002 -0.028,-0.006 C 0.405,-0.325 0.397,-0.33 0.391,-0.337 0.385,-0.343 0.38,-0.351 0.376,-0.359 0.372,-0.368 0.371,-0.377 0.371,-0.387 v -0.035 c 0,-0.008 0.001,-0.015 0.005,-0.02 0.004,-0.006 0.008,-0.01 0.012,-0.015 0.004,-0.004 0.008,-0.009 0.012,-0.014 0.004,-0.005 0.006,-0.012 0.006,-0.021 0,-0.009 0.003,-0.018 0.01,-0.025 0.007,-0.006 0.015,-0.01 0.025,-0.01 h 0.035 c 0.008,0 0.015,-0.002 0.02,-0.005 0.005,-0.004 0.01,-0.008 0.015,-0.012 0.005,-0.005 0.01,-0.009 0.015,-0.012 0.005,-0.004 0.012,-0.006 0.02,-0.006 h 0.035 c 0.006,0 0.01,0.002 0.013,0.006 0.002,0.003 0.003,0.007 0.005,0.012 0.001,0.004 0.003,0.008 0.005,0.012 0.001,0.003 0.006,0.005 0.012,0.005 h 0.071 c 0.013,0 0.025,0.002 0.037,0.007 0.013,0.005 0.023,0.011 0.033,0.02 V -0.527 C 0.757,-0.535 0.755,-0.541 0.752,-0.546 0.75,-0.55 0.746,-0.554 0.741,-0.556 0.736,-0.559 0.73,-0.56 0.724,-0.561 0.718,-0.562 0.712,-0.562 0.706,-0.562 H 0.687 C 0.68,-0.562 0.676,-0.564 0.674,-0.567 0.672,-0.571 0.67,-0.575 0.669,-0.579 0.668,-0.584 0.666,-0.588 0.664,-0.592 0.662,-0.595 0.658,-0.597 0.651,-0.597 c -0.006,0 -0.01,0.002 -0.012,0.005 -0.002,0.004 -0.004,0.008 -0.005,0.013 -0.002,0.004 -0.003,0.008 -0.005,0.012 -0.002,0.003 -0.007,0.005 -0.013,0.005 -0.008,0 -0.015,-0.002 -0.02,-0.005 C 0.59,-0.571 0.586,-0.575 0.581,-0.579 0.577,-0.584 0.572,-0.588 0.567,-0.592 0.562,-0.595 0.555,-0.597 0.546,-0.597 c -0.008,0 -0.015,0.002 -0.02,0.005 -0.005,0.004 -0.01,0.008 -0.015,0.013 -0.005,0.004 -0.01,0.008 -0.015,0.012 -0.005,0.003 -0.012,0.005 -0.02,0.005 -0.01,0 -0.018,-0.003 -0.025,-0.01 -0.007,-0.007 -0.01,-0.015 -0.01,-0.025 0,-0.006 0.002,-0.011 0.005,-0.013 C 0.45,-0.612 0.454,-0.613 0.458,-0.615 0.463,-0.616 0.467,-0.618 0.47,-0.62 0.474,-0.622 0.476,-0.626 0.476,-0.632 0.476,-0.639 0.474,-0.643 0.47,-0.645 0.467,-0.647 0.463,-0.649 0.458,-0.65 0.454,-0.651 0.45,-0.653 0.446,-0.655 0.443,-0.657 0.441,-0.661 0.441,-0.667 c 0,-0.01 0.003,-0.019 0.01,-0.025 0.007,-0.007 0.015,-0.011 0.025,-0.011 0.005,0 0.009,0.002 0.013,0.005 0.003,0.004 0.005,0.008 0.005,0.013 0,0.005 0.001,0.009 0.005,0.012 0.003,0.004 0.007,0.006 0.012,0.006 0.009,0 0.016,0.001 0.021,0.005 0.005,0.004 0.01,0.008 0.014,0.012 0.005,0.005 0.009,0.009 0.015,0.012 0.005,0.004 0.012,0.006 0.02,0.006 0.008,0 0.015,-0.002 0.02,-0.006 0.005,-0.003 0.01,-0.007 0.015,-0.012 0.005,-0.004 0.01,-0.008 0.015,-0.012 0.005,-0.004 0.012,-0.005 0.02,-0.005 0.01,0 0.018,-0.004 0.025,-0.011 0.007,-0.007 0.011,-0.015 0.011,-0.025 0,-0.009 -0.004,-0.017 -0.011,-0.024 -0.007,-0.007 -0.015,-0.011 -0.025,-0.011 -0.005,0 -0.009,0.002 -0.012,0.005 -0.004,0.004 -0.005,0.008 -0.005,0.013 0,0.006 -0.002,0.011 -0.006,0.012 C 0.624,-0.706 0.62,-0.704 0.616,-0.703 0.612,-0.701 0.608,-0.7 0.604,-0.698 0.6,-0.695 0.599,-0.691 0.599,-0.685 c 0,0.005 -0.002,0.009 -0.005,0.012 -0.004,0.004 -0.008,0.006 -0.013,0.006 -0.009,0 -0.018,-0.004 -0.024,-0.011 -0.007,-0.007 -0.011,-0.015 -0.011,-0.025 0,-0.009 0.004,-0.017 0.011,-0.024 0.006,-0.007 0.015,-0.011 0.024,-0.011 0.009,0 0.015,-0.002 0.02,-0.005 0.005,-0.004 0.01,-0.008 0.015,-0.012 0.004,-0.005 0.009,-0.009 0.014,-0.012 0.006,-0.004 0.013,-0.005 0.021,-0.005 0.009,0 0.016,0.001 0.021,0.005 0.006,0.003 0.01,0.007 0.015,0.012 0.005,0.004 0.009,0.008 0.014,0.012 0.005,0.003 0.012,0.005 0.021,0.005 0.009,0 0.017,-0.001 0.024,-0.003 C 0.754,-0.743 0.76,-0.747 0.767,-0.751 0.773,-0.755 0.779,-0.76 0.784,-0.765 0.79,-0.77 0.795,-0.776 0.801,-0.782 Z"
         style="fill:#16c60c;fill-rule:nonzero"
         id="path9020" /></g></g></svg>
