<?xml version="1.0" encoding="UTF-8" standalone="no"?>
<svg
   width="15.795"
   height="15.78"
   viewBox="0 0 15.795 15.78"
   version="1.1"
   xml:space="preserve"
   style="clip-rule:evenodd;fill-rule:evenodd;stroke-linejoin:round;stroke-miterlimit:2"
   id="svg20568"
   sodipodi:docname="emojis.svg"
   xmlns:inkscape="http://www.inkscape.org/namespaces/inkscape"
   xmlns:sodipodi="http://sodipodi.sourceforge.net/DTD/sodipodi-0.dtd"
   xmlns="http://www.w3.org/2000/svg"
   xmlns:svg="http://www.w3.org/2000/svg"><defs
     id="defs20572" /><sodipodi:namedview
     id="namedview20570"
     pagecolor="#505050"
     bordercolor="#eeeeee"
     borderopacity="1"
     inkscape:pageshadow="0"
     inkscape:pageopacity="0"
     inkscape:pagecheckerboard="0" /><g
     transform="matrix(0.24,0,0,0.24,-476.5062,-422.2722)"
     id="g20566"><g
       transform="matrix(62.5,0,0,62.5,1977.63,1814.28)"
       id="g9030"><path
         d="m 0.651,-0.877 c 0.049,0 0.096,0.006 0.14,0.018 0.045,0.013 0.087,0.031 0.126,0.053 0.039,0.023 0.075,0.051 0.107,0.083 0.032,0.032 0.059,0.067 0.082,0.106 0.023,0.039 0.04,0.081 0.053,0.126 0.012,0.045 0.019,0.091 0.019,0.14 0,0.048 -0.007,0.095 -0.019,0.14 -0.013,0.045 -0.03,0.086 -0.053,0.126 C 1.083,-0.046 1.056,-0.011 1.024,0.021 0.992,0.053 0.956,0.081 0.917,0.104 0.878,0.126 0.836,0.144 0.791,0.156 0.747,0.169 0.7,0.175 0.651,0.175 0.603,0.175 0.556,0.169 0.511,0.156 0.467,0.144 0.425,0.126 0.386,0.104 0.347,0.081 0.311,0.053 0.279,0.021 0.247,-0.011 0.22,-0.046 0.197,-0.085 0.174,-0.125 0.156,-0.166 0.144,-0.211 0.131,-0.256 0.125,-0.303 0.125,-0.351 c 0,-0.049 0.006,-0.095 0.019,-0.14 0.012,-0.045 0.03,-0.087 0.053,-0.126 0.023,-0.039 0.05,-0.074 0.082,-0.106 0.032,-0.032 0.068,-0.06 0.107,-0.083 0.039,-0.022 0.081,-0.04 0.125,-0.053 0.045,-0.012 0.092,-0.018 0.14,-0.018 z"
         style="fill-rule:nonzero"
         id="path9024" /><path
         d="m 0.651,-0.807 c 0.031,0 0.061,0.003 0.09,0.009 0.029,0.006 0.058,0.014 0.086,0.026 0.005,0.006 0.011,0.012 0.017,0.019 0.006,0.006 0.012,0.013 0.018,0.02 0.006,0.007 0.013,0.014 0.019,0.02 0.006,0.007 0.012,0.012 0.017,0.016 0.006,0.005 0.012,0.009 0.019,0.012 0.006,0.003 0.013,0.006 0.019,0.01 l 0.075,0.043 c 0.032,0.041 0.056,0.085 0.072,0.132 0.016,0.048 0.024,0.098 0.024,0.149 0,0.042 -0.005,0.082 -0.016,0.121 C 1.08,-0.191 1.065,-0.155 1.045,-0.121 1.025,-0.087 1.002,-0.056 0.974,-0.029 0.946,-0.001 0.915,0.023 0.882,0.043 0.848,0.062 0.812,0.078 0.773,0.089 0.734,0.1 0.693,0.105 0.651,0.105 0.609,0.105 0.569,0.1 0.53,0.089 0.491,0.078 0.455,0.062 0.421,0.043 0.387,0.023 0.357,-0.001 0.329,-0.029 0.301,-0.056 0.277,-0.087 0.258,-0.121 0.238,-0.155 0.223,-0.191 0.212,-0.23 0.201,-0.269 0.195,-0.309 0.195,-0.351 0.195,-0.403 0.204,-0.452 0.22,-0.5 0.236,-0.547 0.26,-0.591 0.292,-0.632 L 0.409,-0.68 0.444,-0.758 C 0.477,-0.774 0.51,-0.787 0.545,-0.795 0.58,-0.803 0.615,-0.807 0.651,-0.807 Z"
         style="fill:#0078d7;fill-rule:nonzero"
         id="path9026" /><path
         d="m 0.745,-0.737 c -0.006,0 -0.011,0.001 -0.016,0.003 -0.005,0.003 -0.007,0.007 -0.007,0.014 0,0.008 0.003,0.013 0.008,0.015 0.006,0.002 0.012,0.003 0.019,0.003 h 0.016 c 0.003,0 0.007,0 0.01,0 0.003,0.001 0.006,0.001 0.008,0.003 0.003,0.001 0.005,0.002 0.007,0.005 0.001,0.002 0.002,0.006 0.002,0.009 0,0.005 -0.001,0.008 -0.003,0.011 -0.001,0.002 -0.004,0.004 -0.007,0.005 -0.003,0.001 -0.006,0.002 -0.009,0.002 -0.004,0 -0.007,0 -0.01,0 0.006,0.002 0.012,0.004 0.017,0.008 0.004,0.004 0.009,0.008 0.013,0.012 0.005,0.004 0.01,0.007 0.015,0.011 0.005,0.003 0.011,0.004 0.019,0.004 h 0.017 c 0.005,0 0.009,0.002 0.013,0.005 0.003,0.004 0.005,0.008 0.005,0.013 0,0.008 -0.003,0.013 -0.008,0.015 -0.005,0.001 -0.011,0.002 -0.017,0.002 h -0.01 c -0.005,0 -0.009,0.002 -0.012,0.006 -0.004,0.003 -0.005,0.007 -0.005,0.012 0,0.004 -0.002,0.009 -0.006,0.012 -0.003,0.004 -0.007,0.005 -0.012,0.005 -0.01,0 -0.018,0.004 -0.025,0.011 -0.007,0.007 -0.01,0.015 -0.01,0.025 0,0.008 -0.002,0.015 -0.006,0.02 -0.004,0.005 -0.008,0.01 -0.012,0.015 -0.004,0.005 -0.008,0.01 -0.012,0.015 -0.004,0.005 -0.005,0.011 -0.005,0.019 v 0.01 c 0,0.003 0,0.006 -0.001,0.009 0,0.003 -0.001,0.006 -0.002,0.009 -0.001,0.002 -0.003,0.004 -0.005,0.005 -0.003,0.002 -0.006,0.003 -0.01,0.003 -0.006,0 -0.011,-0.002 -0.013,-0.006 C 0.689,-0.43 0.688,-0.434 0.687,-0.439 0.685,-0.443 0.684,-0.447 0.682,-0.451 0.68,-0.455 0.675,-0.457 0.669,-0.457 H 0.616 c -0.008,0 -0.015,0.002 -0.019,0.006 -0.005,0.003 -0.008,0.007 -0.011,0.013 -0.002,0.005 -0.004,0.011 -0.004,0.017 -0.001,0.006 -0.001,0.012 -0.001,0.018 0,0.007 0,0.013 0.001,0.019 0.001,0.006 0.002,0.012 0.005,0.017 0.002,0.005 0.006,0.009 0.01,0.012 0.005,0.002 0.011,0.004 0.019,0.004 0.007,0 0.011,-0.002 0.013,-0.005 0.002,-0.004 0.003,-0.008 0.005,-0.012 0.001,-0.005 0.003,-0.009 0.005,-0.013 0.002,-0.003 0.006,-0.005 0.012,-0.005 0.007,0 0.011,0.002 0.013,0.005 0.002,0.004 0.004,0.008 0.005,0.013 0.001,0.004 0.003,0.008 0.005,0.012 0.002,0.003 0.006,0.005 0.013,0.005 0.006,0 0.01,0.002 0.012,0.006 0.002,0.003 0.004,0.007 0.005,0.012 0.001,0.004 0.003,0.008 0.005,0.012 0.002,0.003 0.006,0.005 0.013,0.005 h 0.105 c 0.009,0 0.019,0.002 0.027,0.006 0.008,0.003 0.016,0.008 0.022,0.015 0.007,0.006 0.012,0.014 0.015,0.022 0.004,0.009 0.006,0.018 0.006,0.027 0,0.01 0.003,0.018 0.01,0.025 0.007,0.007 0.016,0.011 0.025,0.011 0.01,0 0.018,0.003 0.025,0.01 0.007,0.007 0.01,0.015 0.01,0.024 0,0.016 -0.003,0.028 -0.009,0.039 -0.007,0.011 -0.015,0.021 -0.026,0.032 L 0.827,0 C 0.82,0.007 0.814,0.013 0.808,0.017 0.803,0.022 0.797,0.025 0.791,0.028 0.785,0.03 0.778,0.032 0.771,0.033 0.764,0.035 0.755,0.035 0.746,0.035 0.739,0.035 0.733,0.034 0.729,0.032 0.724,0.03 0.722,0.025 0.722,0.018 0.722,0.011 0.723,0.007 0.727,0.005 0.731,0.003 0.735,0.001 0.739,0 0.743,-0.001 0.747,-0.003 0.751,-0.005 0.755,-0.007 0.757,-0.011 0.757,-0.018 v -0.087 c 0,-0.01 -0.004,-0.019 -0.01,-0.025 C 0.74,-0.137 0.731,-0.141 0.722,-0.141 0.714,-0.141 0.708,-0.142 0.703,-0.145 0.698,-0.148 0.695,-0.152 0.692,-0.156 0.69,-0.161 0.688,-0.167 0.688,-0.173 0.687,-0.179 0.687,-0.185 0.687,-0.191 c 0,-0.01 0,-0.019 10e-4,-0.027 0,-0.008 0.002,-0.016 0.004,-0.023 0.003,-0.007 0.006,-0.014 0.011,-0.02 0.005,-0.007 0.011,-0.013 0.019,-0.02 -0.015,0 -0.028,-0.003 -0.039,-0.01 C 0.671,-0.297 0.661,-0.306 0.651,-0.316 0.645,-0.324 0.638,-0.33 0.632,-0.334 0.625,-0.339 0.619,-0.343 0.612,-0.345 0.605,-0.347 0.598,-0.349 0.59,-0.35 0.583,-0.351 0.574,-0.351 0.563,-0.351 H 0.546 c -0.01,0 -0.018,-0.004 -0.025,-0.011 -0.006,-0.007 -0.01,-0.015 -0.01,-0.024 0,-0.012 -0.001,-0.021 -0.005,-0.03 C 0.503,-0.424 0.498,-0.431 0.493,-0.438 0.488,-0.444 0.482,-0.451 0.476,-0.456 0.47,-0.462 0.464,-0.468 0.459,-0.475 0.454,-0.482 0.449,-0.489 0.446,-0.497 0.443,-0.505 0.441,-0.515 0.441,-0.526 0.441,-0.541 0.438,-0.555 0.433,-0.567 0.427,-0.58 0.42,-0.591 0.41,-0.601 0.4,-0.61 0.389,-0.618 0.376,-0.624 0.364,-0.629 0.35,-0.632 0.335,-0.632 H 0.292 c 0.021,-0.026 0.044,-0.05 0.07,-0.071 0.026,-0.021 0.054,-0.039 0.083,-0.055 l 0.031,0.021 h 0.07 c 0.007,0 0.011,0.002 0.013,0.005 0.002,0.004 0.003,0.008 0.004,0.013 0,0.004 0.002,0.008 0.004,0.011 0.002,0.004 0.007,0.006 0.014,0.006 0.005,0 0.009,-0.002 0.013,-0.005 C 0.599,-0.71 0.601,-0.715 0.601,-0.72 0.602,-0.726 0.604,-0.732 0.607,-0.738 0.61,-0.744 0.613,-0.75 0.618,-0.755 0.622,-0.76 0.627,-0.764 0.633,-0.767 0.638,-0.77 0.645,-0.772 0.651,-0.772 h 0.176 c 0.037,0.015 0.07,0.034 0.101,0.058 0.031,0.024 0.058,0.052 0.083,0.082 H 0.967 C 0.95,-0.632 0.935,-0.634 0.923,-0.64 0.91,-0.645 0.899,-0.651 0.889,-0.659 0.879,-0.667 0.87,-0.675 0.862,-0.685 0.853,-0.694 0.844,-0.702 0.834,-0.71 0.824,-0.718 0.813,-0.724 0.801,-0.729 0.788,-0.735 0.774,-0.737 0.757,-0.737 Z M 0.704,-0.702 C 0.698,-0.702 0.693,-0.7 0.691,-0.697 0.689,-0.693 0.688,-0.689 0.687,-0.684 0.685,-0.68 0.684,-0.676 0.682,-0.672 0.68,-0.669 0.675,-0.667 0.669,-0.667 L 0.646,-0.668 c -0.003,0 -0.007,0 -0.01,0.001 -0.003,0 -0.007,0.001 -0.01,0.002 -0.002,0.001 -0.005,0.003 -0.007,0.006 -0.002,0.002 -0.003,0.005 -0.003,0.01 0,0.004 0.001,0.007 0.003,0.01 0.002,0.002 0.005,0.004 0.007,0.005 0.003,0.002 0.007,0.002 0.01,0.003 0.003,0 0.007,0 0.01,0 l 0.023,-0.001 c 0.006,0 0.011,0.002 0.013,0.006 0.002,0.004 0.003,0.008 0.005,0.012 10e-4,0.004 0.002,0.008 0.004,0.012 0.002,0.004 0.007,0.005 0.013,0.005 0.008,0 0.013,-0.002 0.015,-0.007 0.002,-0.006 0.003,-0.011 0.003,-0.018 v -0.01 c 0,-0.009 0.003,-0.017 0.008,-0.024 0.006,-0.006 0.014,-0.01 0.023,-0.011 H 0.739 c -0.006,0 -0.01,-0.002 -0.012,-0.005 C 0.725,-0.676 0.723,-0.68 0.722,-0.684 0.721,-0.689 0.719,-0.693 0.717,-0.697 0.715,-0.7 0.711,-0.702 0.704,-0.702 Z m 0.056,0.035 c 0,0 0.001,0 0.002,0 z"
         style="fill:#16c60c;fill-rule:nonzero"
         id="path9028" /></g></g></svg>
