<?xml version="1.0" encoding="UTF-8" standalone="no"?>
<svg
   width="15.795"
   height="15.78"
   viewBox="0 0 15.795 15.78"
   version="1.1"
   xml:space="preserve"
   style="clip-rule:evenodd;fill-rule:evenodd;stroke-linejoin:round;stroke-miterlimit:2"
   id="svg20568"
   sodipodi:docname="emojis.svg"
   xmlns:inkscape="http://www.inkscape.org/namespaces/inkscape"
   xmlns:sodipodi="http://sodipodi.sourceforge.net/DTD/sodipodi-0.dtd"
   xmlns="http://www.w3.org/2000/svg"
   xmlns:svg="http://www.w3.org/2000/svg"><defs
     id="defs20572" /><sodipodi:namedview
     id="namedview20570"
     pagecolor="#505050"
     bordercolor="#eeeeee"
     borderopacity="1"
     inkscape:pageshadow="0"
     inkscape:pageopacity="0"
     inkscape:pagecheckerboard="0" /><g
     transform="matrix(0.24,0,0,0.24,-496.0542,-422.2722)"
     id="g20566"><g
       transform="matrix(62.5,0,0,62.5,2059.08,1814.28)"
       id="g9038"><path
         d="m 0.651,-0.877 c 0.049,0 0.096,0.006 0.14,0.018 0.045,0.013 0.087,0.031 0.126,0.053 0.039,0.023 0.075,0.051 0.107,0.083 0.032,0.032 0.059,0.067 0.082,0.106 0.023,0.039 0.04,0.081 0.053,0.126 0.012,0.045 0.019,0.091 0.019,0.14 0,0.048 -0.007,0.095 -0.019,0.14 -0.013,0.045 -0.03,0.086 -0.053,0.126 C 1.083,-0.046 1.056,-0.011 1.024,0.021 0.992,0.053 0.956,0.081 0.917,0.104 0.878,0.126 0.836,0.144 0.791,0.156 0.747,0.169 0.7,0.175 0.651,0.175 0.603,0.175 0.556,0.169 0.511,0.156 0.467,0.144 0.425,0.126 0.386,0.104 0.347,0.081 0.311,0.053 0.279,0.021 0.247,-0.011 0.22,-0.046 0.197,-0.085 0.174,-0.125 0.156,-0.166 0.144,-0.211 0.131,-0.256 0.125,-0.303 0.125,-0.351 c 0,-0.049 0.006,-0.095 0.019,-0.14 0.012,-0.045 0.03,-0.087 0.053,-0.126 0.023,-0.039 0.05,-0.074 0.082,-0.106 0.032,-0.032 0.068,-0.06 0.107,-0.083 0.039,-0.022 0.081,-0.04 0.125,-0.053 0.045,-0.012 0.092,-0.018 0.14,-0.018 z"
         style="fill-rule:nonzero"
         id="path9032" /><path
         d="m 0.651,-0.807 c 0.042,0 0.083,0.005 0.122,0.016 0.039,0.011 0.075,0.026 0.109,0.046 0.033,0.02 0.064,0.044 0.092,0.071 0.028,0.028 0.051,0.059 0.071,0.093 0.02,0.033 0.035,0.07 0.046,0.109 0.011,0.038 0.016,0.079 0.016,0.121 0,0.042 -0.005,0.082 -0.016,0.121 C 1.08,-0.191 1.065,-0.155 1.045,-0.121 1.025,-0.087 1.002,-0.056 0.974,-0.029 0.946,-0.001 0.915,0.023 0.882,0.043 0.848,0.062 0.812,0.078 0.773,0.089 0.734,0.1 0.693,0.105 0.651,0.105 0.609,0.105 0.567,0.099 0.527,0.088 0.487,0.076 0.45,0.06 0.415,0.039 0.379,0.017 0.347,-0.008 0.319,-0.039 0.29,-0.069 0.266,-0.103 0.247,-0.141 v -0.283 l 0.229,-0.348 c 0.028,-0.012 0.056,-0.02 0.086,-0.026 0.029,-0.006 0.059,-0.009 0.089,-0.009 z"
         style="fill:#0078d7;fill-rule:nonzero"
         id="path9034" /><path
         d="m 0.327,-0.176 c 0.006,0 0.008,0.003 0.008,0.009 0,0.007 -0.002,0.014 -0.007,0.019 -0.005,0.005 -0.011,0.007 -0.019,0.007 -0.006,0 -0.009,-0.003 -0.009,-0.008 0,-0.004 0.001,-0.006 0.003,-0.007 0.002,-0.001 0.004,-0.002 0.006,-0.002 0.002,-0.001 0.004,-0.002 0.006,-0.003 0.002,-0.001 0.003,-0.003 0.003,-0.006 0,-0.006 0.003,-0.009 0.009,-0.009 z M 0.722,-0.21 c 0.006,0 0.01,0.001 0.012,0.005 0.002,0.004 0.004,0.007 0.005,0.012 0.002,0.004 0.003,0.008 0.005,0.012 0.002,0.003 0.006,0.005 0.013,0.005 0.009,0 0.017,0.004 0.024,0.011 0.007,0.007 0.011,0.015 0.011,0.024 v 0.036 c 0,0.008 -0.002,0.015 -0.006,0.02 C 0.783,-0.08 0.779,-0.075 0.774,-0.07 0.77,-0.066 0.766,-0.061 0.762,-0.056 0.759,-0.05 0.757,-0.044 0.757,-0.035 0.748,-0.035 0.742,-0.037 0.736,-0.041 0.731,-0.044 0.726,-0.048 0.722,-0.052 0.717,-0.057 0.712,-0.061 0.707,-0.065 0.701,-0.068 0.695,-0.07 0.687,-0.07 H 0.668 C 0.661,-0.07 0.655,-0.071 0.649,-0.071 0.643,-0.072 0.637,-0.073 0.632,-0.076 0.627,-0.078 0.624,-0.082 0.621,-0.087 0.618,-0.091 0.616,-0.098 0.616,-0.105 c 0,-0.01 0.002,-0.019 0.006,-0.028 0.004,-0.008 0.009,-0.016 0.015,-0.022 0.006,-0.006 0.014,-0.011 0.022,-0.015 0.009,-0.004 0.018,-0.006 0.028,-0.006 0.006,0 0.01,-0.002 0.012,-0.005 C 0.701,-0.185 0.703,-0.189 0.704,-0.193 0.705,-0.198 0.707,-0.201 0.709,-0.205 0.711,-0.209 0.715,-0.21 0.722,-0.21 Z M 0.704,-0.281 c 0.008,0 0.015,0.002 0.02,0.006 0.006,0.004 0.011,0.008 0.015,0.012 0.005,0.004 0.01,0.008 0.015,0.012 0.005,0.004 0.012,0.005 0.02,0.005 0.005,0 0.009,0.002 0.013,0.006 0.003,0.003 0.005,0.007 0.005,0.012 0,0.005 -0.002,0.009 -0.005,0.012 C 0.783,-0.212 0.779,-0.21 0.774,-0.21 0.766,-0.21 0.759,-0.212 0.754,-0.216 0.749,-0.219 0.744,-0.223 0.74,-0.228 0.735,-0.232 0.73,-0.236 0.725,-0.24 0.72,-0.244 0.713,-0.246 0.704,-0.246 0.699,-0.246 0.695,-0.247 0.692,-0.251 0.688,-0.254 0.687,-0.258 0.687,-0.263 c 0,-0.005 10e-4,-0.009 0.005,-0.013 0.003,-0.003 0.007,-0.005 0.012,-0.005 z m 0.175,0.176 c 0.005,0 0.009,0.001 0.013,0.005 0.003,0.003 0.005,0.007 0.005,0.012 0,0.009 -0.002,0.015 -0.006,0.021 -0.003,0.005 -0.007,0.01 -0.012,0.014 -0.004,0.005 -0.008,0.01 -0.012,0.015 -0.003,0.006 -0.005,0.012 -0.005,0.02 0,0.005 -0.002,0.009 -0.005,0.013 C 0.853,-0.002 0.849,0 0.844,0 0.84,0 0.836,-0.002 0.832,-0.005 0.828,-0.009 0.827,-0.013 0.827,-0.018 c 0,-0.008 0.001,-0.015 0.005,-0.02 0.004,-0.005 0.008,-0.01 0.012,-0.015 0.004,-0.004 0.008,-0.009 0.012,-0.014 0.004,-0.006 0.006,-0.012 0.006,-0.021 0,-0.005 0.002,-0.009 0.005,-0.012 0.003,-0.004 0.008,-0.005 0.012,-0.005 z M 0.704,-0.421 c -0.005,0 -0.009,-0.002 -0.012,-0.006 -0.004,-0.003 -0.005,-0.007 -0.005,-0.012 0,-0.008 10e-4,-0.015 0.005,-0.02 0.003,-0.006 0.007,-0.01 0.012,-0.015 0.004,-0.004 0.008,-0.009 0.012,-0.014 0.004,-0.005 0.006,-0.012 0.006,-0.021 0,-0.005 0.001,-0.009 0.005,-0.012 0.003,-0.004 0.007,-0.005 0.012,-0.005 0.005,0 0.009,0.001 0.013,0.005 0.003,0.003 0.005,0.007 0.005,0.012 0,0.009 -0.002,0.016 -0.006,0.021 -0.004,0.005 -0.008,0.01 -0.012,0.014 -0.004,0.005 -0.008,0.009 -0.012,0.015 -0.004,0.005 -0.005,0.012 -0.005,0.02 0,0.005 -0.002,0.009 -0.005,0.012 -0.004,0.004 -0.008,0.006 -0.013,0.006 z m 0.193,-0.228 c 0,0.007 -0.003,0.012 -0.008,0.014 -0.005,0.002 -0.01,0.003 -0.016,0.003 H 0.862 c -0.01,0 -0.019,0.002 -0.028,0.006 -0.008,0.004 -0.015,0.009 -0.022,0.015 -0.006,0.006 -0.011,0.014 -0.015,0.022 -0.003,0.009 -0.005,0.018 -0.005,0.027 0,0.005 -0.002,0.01 -0.005,0.013 -0.004,0.003 -0.008,0.005 -0.013,0.005 -0.004,0 -0.009,-0.002 -0.012,-0.005 C 0.759,-0.552 0.757,-0.557 0.757,-0.562 0.757,-0.57 0.755,-0.577 0.751,-0.582 0.748,-0.587 0.743,-0.59 0.738,-0.593 0.732,-0.595 0.726,-0.596 0.719,-0.597 c -0.007,0 -0.014,-0.001 -0.02,-0.001 -0.004,0 -0.007,0.001 -0.01,0.001 -0.004,0 -0.007,0.001 -0.01,0.002 -0.003,0.002 -0.005,0.003 -0.007,0.006 -0.002,0.002 -0.003,0.006 -0.003,0.01 0,0.005 0.002,0.009 0.005,0.012 0.003,0.004 0.008,0.005 0.013,0.005 0.009,0 0.018,0.004 0.024,0.011 0.007,0.007 0.011,0.015 0.011,0.025 0,0.009 -0.004,0.017 -0.011,0.024 -0.007,0.007 -0.015,0.011 -0.024,0.011 -0.009,0 -0.015,0.001 -0.02,0.004 -0.004,0.004 -0.008,0.008 -0.01,0.012 -0.002,0.005 -0.004,0.011 -0.005,0.017 0,0.006 -0.001,0.012 -0.001,0.018 v 0.019 c 0,0.006 -0.002,0.01 -0.005,0.012 -0.004,0.002 -0.008,0.004 -0.012,0.005 -0.005,0.001 -0.009,0.003 -0.012,0.005 -0.004,0.002 -0.006,0.006 -0.006,0.013 v 0.07 c 0,0.005 -0.001,0.009 -0.005,0.013 C 0.608,-0.3 0.604,-0.298 0.599,-0.298 0.593,-0.298 0.589,-0.3 0.586,-0.303 0.584,-0.307 0.582,-0.311 0.581,-0.316 0.579,-0.322 0.578,-0.327 0.575,-0.333 0.573,-0.34 0.569,-0.346 0.563,-0.351 0.558,-0.356 0.554,-0.362 0.552,-0.368 0.549,-0.374 0.548,-0.38 0.546,-0.385 0.545,-0.391 0.543,-0.395 0.541,-0.399 0.538,-0.402 0.534,-0.404 0.529,-0.404 c -0.006,0 -0.01,0.002 -0.012,0.005 C 0.514,-0.395 0.512,-0.391 0.511,-0.385 0.51,-0.38 0.508,-0.374 0.505,-0.368 0.503,-0.362 0.499,-0.356 0.494,-0.351 0.488,-0.346 0.484,-0.34 0.482,-0.334 0.48,-0.328 0.478,-0.322 0.476,-0.317 0.475,-0.311 0.473,-0.307 0.471,-0.303 0.468,-0.3 0.464,-0.298 0.458,-0.298 0.453,-0.298 0.449,-0.3 0.447,-0.304 0.444,-0.307 0.442,-0.312 0.44,-0.317 0.439,-0.323 0.437,-0.328 0.435,-0.334 0.432,-0.34 0.429,-0.346 0.423,-0.351 0.418,-0.357 0.414,-0.362 0.412,-0.369 0.409,-0.375 0.407,-0.381 0.406,-0.386 0.404,-0.391 0.402,-0.395 0.4,-0.399 0.398,-0.402 0.394,-0.404 0.388,-0.404 c -0.005,0 -0.009,0.002 -0.012,0.005 -0.004,0.004 -0.005,0.008 -0.005,0.013 0,0.01 -0.004,0.018 -0.011,0.025 -0.006,0.007 -0.015,0.01 -0.025,0.01 -0.009,0 -0.018,-0.003 -0.024,-0.01 C 0.304,-0.368 0.3,-0.376 0.3,-0.386 c -0.009,0 -0.017,0.003 -0.024,0.01 -0.007,0.007 -0.011,0.015 -0.011,0.025 0,0.009 0.004,0.018 0.011,0.025 0.007,0.007 0.015,0.01 0.024,0.01 0.01,0 0.018,0.003 0.025,0.01 0.007,0.007 0.01,0.015 0.01,0.025 0,0.009 -0.001,0.016 -0.005,0.021 -0.004,0.005 -0.008,0.01 -0.012,0.014 -0.005,0.005 -0.009,0.01 -0.012,0.015 C 0.302,-0.225 0.3,-0.219 0.3,-0.21 v 0.018 c 0,0.011 -0.001,0.021 -0.002,0.027 C 0.296,-0.158 0.293,-0.153 0.29,-0.149 0.286,-0.146 0.28,-0.143 0.273,-0.142 0.266,-0.141 0.257,-0.141 0.247,-0.141 0.23,-0.173 0.217,-0.207 0.208,-0.243 0.2,-0.278 0.195,-0.314 0.195,-0.351 c 0,-0.048 0.007,-0.093 0.02,-0.136 0.013,-0.042 0.032,-0.081 0.056,-0.117 0.024,-0.035 0.053,-0.067 0.088,-0.095 0.034,-0.029 0.073,-0.053 0.116,-0.073 0.022,0 0.042,0.005 0.059,0.014 0.018,0.01 0.033,0.023 0.047,0.038 0.005,0.006 0.01,0.01 0.015,0.013 0.006,0.003 0.012,0.005 0.02,0.005 h 0.141 c 0.007,0 0.014,0.001 0.019,0.005 0.006,0.003 0.011,0.007 0.016,0.012 0.005,0.006 0.01,0.01 0.015,0.013 0.005,0.003 0.012,0.005 0.02,0.005 h 0.052 c 0.005,0 0.009,0.002 0.013,0.005 0.003,0.004 0.005,0.008 0.005,0.013 z m -0.21,0.31 c 0,0.006 -0.003,0.012 -0.007,0.016 -0.005,0.005 -0.01,0.007 -0.017,0.007 -0.003,0 -0.006,-0.001 -0.008,-0.003 -0.002,-0.003 -0.004,-0.005 -0.004,-0.009 0,-0.006 0.003,-0.012 0.007,-0.016 0.005,-0.005 0.01,-0.007 0.017,-0.007 0.003,0 0.006,0.001 0.008,0.003 0.002,0.003 0.004,0.005 0.004,0.009 z m -0.036,0.076 c 0,0.007 -0.001,0.014 -0.004,0.02 C 0.644,-0.237 0.641,-0.231 0.636,-0.226 0.631,-0.221 0.625,-0.217 0.619,-0.215 0.613,-0.212 0.606,-0.21 0.599,-0.21 0.591,-0.21 0.585,-0.212 0.578,-0.215 0.572,-0.217 0.566,-0.221 0.562,-0.226 0.557,-0.231 0.553,-0.237 0.55,-0.243 0.547,-0.249 0.546,-0.256 0.546,-0.263 c 0,-0.005 0.002,-0.009 0.005,-0.012 0.004,-0.004 0.008,-0.006 0.012,-0.006 0.007,0 0.011,0.002 0.013,0.006 0.002,0.004 0.004,0.008 0.005,0.012 0.001,0.004 0.003,0.008 0.005,0.012 0.002,0.004 0.006,0.005 0.013,0.005 0.006,0 0.01,-0.001 0.012,-0.005 0.002,-0.004 0.004,-0.008 0.005,-0.012 0.002,-0.004 0.003,-0.008 0.005,-0.012 0.002,-0.004 0.006,-0.006 0.013,-0.006 0.005,0 0.009,0.002 0.012,0.005 0.004,0.004 0.005,0.008 0.005,0.013 z"
         style="fill:#16c60c;fill-rule:nonzero"
         id="path9036" /></g></g></svg>
