<?xml version="1.0" encoding="UTF-8" standalone="no"?>
<svg
   width="16.844999"
   height="16.844999"
   viewBox="0 0 16.844999 16.844999"
   version="1.1"
   xml:space="preserve"
   style="clip-rule:evenodd;fill-rule:evenodd;stroke-linejoin:round;stroke-miterlimit:2"
   id="svg20568"
   sodipodi:docname="emojis.svg"
   xmlns:inkscape="http://www.inkscape.org/namespaces/inkscape"
   xmlns:sodipodi="http://sodipodi.sourceforge.net/DTD/sodipodi-0.dtd"
   xmlns="http://www.w3.org/2000/svg"
   xmlns:svg="http://www.w3.org/2000/svg"><defs
     id="defs20572" /><sodipodi:namedview
     id="namedview20570"
     pagecolor="#505050"
     bordercolor="#eeeeee"
     borderopacity="1"
     inkscape:pageshadow="0"
     inkscape:pageopacity="0"
     inkscape:pagecheckerboard="0" /><g
     transform="matrix(0.24,0,0,0.24,-577.3902,-421.7322)"
     id="g20566"><g
       transform="matrix(62.5,0,0,62.5,2397.98,1814.28)"
       id="g9082"><path
         d="M 0.687,0.21 C 0.635,0.21 0.585,0.204 0.537,0.19 0.49,0.177 0.445,0.158 0.403,0.134 0.362,0.109 0.324,0.08 0.29,0.046 0.255,0.012 0.226,-0.026 0.202,-0.068 0.177,-0.11 0.158,-0.154 0.145,-0.202 0.132,-0.25 0.125,-0.3 0.125,-0.351 c 0,-0.052 0.007,-0.101 0.02,-0.149 0.013,-0.048 0.032,-0.093 0.057,-0.134 0.024,-0.042 0.053,-0.08 0.088,-0.114 0.034,-0.034 0.072,-0.064 0.113,-0.088 0.042,-0.024 0.087,-0.043 0.134,-0.057 0.048,-0.013 0.098,-0.02 0.15,-0.02 0.051,0 0.101,0.007 0.148,0.02 0.048,0.014 0.093,0.033 0.135,0.057 0.041,0.024 0.079,0.054 0.113,0.088 0.035,0.034 0.064,0.072 0.088,0.114 0.025,0.041 0.044,0.086 0.057,0.134 0.013,0.048 0.02,0.097 0.02,0.149 0,0.052 -0.007,0.101 -0.02,0.149 C 1.215,-0.154 1.196,-0.11 1.171,-0.068 1.147,-0.026 1.118,0.012 1.083,0.046 1.049,0.08 1.011,0.109 0.97,0.134 0.928,0.158 0.883,0.177 0.835,0.19 0.788,0.204 0.738,0.21 0.687,0.21 Z"
         style="fill-rule:nonzero"
         id="path9072" /><path
         d="m 0.687,-0.842 c 0.011,0 0.023,0 0.035,0.001 0.011,0.001 0.023,0.002 0.035,0.004 -0.019,0.003 -0.035,0.01 -0.05,0.022 -0.015,0.012 -0.029,0.027 -0.04,0.044 -0.012,0.018 -0.022,0.038 -0.031,0.06 C 0.627,-0.69 0.62,-0.668 0.614,-0.646 0.608,-0.624 0.603,-0.603 0.599,-0.583 0.595,-0.562 0.592,-0.544 0.59,-0.529 0.582,-0.47 0.578,-0.41 0.578,-0.351 c 0,0.059 0.004,0.119 0.012,0.178 0.002,0.015 0.005,0.033 0.009,0.053 0.004,0.021 0.009,0.042 0.015,0.064 0.006,0.022 0.013,0.043 0.022,0.065 0.009,0.022 0.019,0.042 0.031,0.059 0.011,0.018 0.025,0.033 0.04,0.045 0.015,0.012 0.031,0.019 0.05,0.022 C 0.745,0.136 0.733,0.138 0.722,0.139 0.71,0.14 0.698,0.14 0.687,0.14 0.65,0.14 0.615,0.136 0.58,0.129 0.545,0.121 0.511,0.11 0.479,0.094 L 0.463,0.063 C 0.46,0.058 0.457,0.053 0.454,0.048 0.45,0.043 0.446,0.04 0.441,0.037 0.437,0.034 0.432,0.032 0.426,0.031 0.42,0.029 0.414,0.029 0.407,0.028 0.401,0.028 0.395,0.027 0.388,0.027 0.382,0.027 0.376,0.027 0.372,0.026 0.329,-0.01 0.293,-0.051 0.265,-0.097 0.237,-0.144 0.217,-0.194 0.206,-0.249 0.212,-0.259 0.216,-0.271 0.218,-0.283 0.219,-0.296 0.22,-0.308 0.22,-0.32 V -0.358 C 0.22,-0.375 0.219,-0.391 0.218,-0.407 0.216,-0.423 0.212,-0.438 0.206,-0.453 0.217,-0.508 0.237,-0.558 0.265,-0.605 0.293,-0.652 0.329,-0.693 0.372,-0.728 0.377,-0.729 0.383,-0.73 0.389,-0.731 0.395,-0.733 0.402,-0.734 0.408,-0.737 0.414,-0.739 0.42,-0.741 0.426,-0.744 0.432,-0.747 0.437,-0.75 0.441,-0.753 0.445,-0.756 0.448,-0.76 0.451,-0.763 0.454,-0.767 0.456,-0.771 0.459,-0.775 0.462,-0.778 0.465,-0.782 0.468,-0.786 0.47,-0.789 0.473,-0.792 0.477,-0.795 0.48,-0.798 0.483,-0.8 0.487,-0.801 0.492,-0.802 0.495,-0.804 0.499,-0.805 0.558,-0.83 0.621,-0.842 0.687,-0.842 Z"
         style="fill:#757575;fill-rule:nonzero"
         id="path9074" /><path
         d="m 0.51,-0.726 c -0.005,0.005 -0.01,0.01 -0.013,0.016 -0.004,0.006 -0.008,0.012 -0.013,0.017 -0.005,0.005 -0.01,0.009 -0.016,0.012 -0.006,0.004 -0.011,0.008 -0.016,0.013 -0.002,0 -0.004,0.001 -0.005,0.001 -0.002,0 -0.004,0 -0.006,0 -0.009,0 -0.017,-0.002 -0.025,-0.005 C 0.408,-0.675 0.401,-0.679 0.395,-0.684 0.388,-0.69 0.383,-0.696 0.379,-0.704 0.375,-0.711 0.373,-0.719 0.372,-0.728 c 0.033,-0.027 0.069,-0.05 0.107,-0.068 0.009,0.007 0.017,0.015 0.023,0.025 0.006,0.011 0.009,0.022 0.009,0.034 0,0.002 0,0.004 0,0.006 C 0.51,-0.729 0.51,-0.728 0.51,-0.726 Z m -0.058,0.692 c 0.004,0.005 0.009,0.009 0.015,0.013 0.005,0.003 0.01,0.007 0.014,0.012 0.006,0.005 0.01,0.011 0.014,0.017 0.004,0.006 0.009,0.011 0.015,0.015 0,0.002 0,0.004 0.001,0.006 0,0.002 0,0.004 0,0.006 0,0.012 -0.003,0.023 -0.009,0.033 C 0.496,0.079 0.488,0.087 0.479,0.094 0.441,0.076 0.405,0.053 0.372,0.026 0.373,0.017 0.375,0.009 0.379,0.002 c 0.004,-0.008 0.009,-0.014 0.016,-0.02 0.006,-0.005 0.013,-0.009 0.021,-0.013 0.008,-0.003 0.016,-0.004 0.025,-0.004 0.002,0 0.004,0 0.006,0 0.001,0 0.003,0 0.005,0.001 z M 0.23,-0.457 c 0.015,0 0.029,0.003 0.041,0.009 0.013,0.005 0.024,0.013 0.034,0.022 0.009,0.01 0.017,0.021 0.022,0.034 0.006,0.013 0.008,0.026 0.008,0.041 0,0.015 -0.002,0.028 -0.008,0.041 -0.005,0.013 -0.013,0.024 -0.022,0.033 -0.01,0.01 -0.021,0.018 -0.034,0.023 -0.012,0.006 -0.026,0.008 -0.041,0.008 -0.004,0 -0.008,0 -0.012,-0.001 -0.004,0 -0.008,-0.001 -0.012,-0.002 C 0.202,-0.266 0.2,-0.283 0.198,-0.3 0.196,-0.317 0.195,-0.334 0.195,-0.351 c 0,-0.017 0.001,-0.034 0.003,-0.051 0.002,-0.017 0.004,-0.034 0.008,-0.051 0.004,-0.001 0.008,-0.002 0.012,-0.003 0.004,0 0.008,-0.001 0.012,-0.001 z"
         style="fill:#383838;fill-rule:nonzero"
         id="path9076" /><path
         d="m 0.757,-0.837 c 0.005,0 0.011,0.001 0.02,0.003 0.008,0.001 0.017,0.003 0.027,0.006 0.01,0.002 0.021,0.005 0.031,0.009 0.011,0.003 0.021,0.007 0.031,0.01 0.01,0.004 0.018,0.007 0.026,0.011 0.008,0.003 0.014,0.006 0.018,0.009 0.004,0.003 0.008,0.007 0.011,0.011 0.003,0.004 0.006,0.008 0.009,0.012 0.003,0.004 0.006,0.008 0.009,0.011 0.003,0.004 0.006,0.007 0.011,0.01 0.003,0.002 0.007,0.004 0.011,0.005 0.004,0 0.008,0.001 0.012,0.001 0.004,0.001 0.008,0.002 0.012,0.003 0.004,0.001 0.008,0.002 0.012,0.005 0.007,0.004 0.015,0.01 0.022,0.018 0.008,0.008 0.015,0.015 0.021,0.022 0.02,0.02 0.037,0.041 0.051,0.062 0.015,0.021 0.028,0.043 0.038,0.065 0.011,0.023 0.02,0.047 0.027,0.071 0.007,0.025 0.013,0.051 0.018,0.079 0,0.001 0,0.002 0,0.003 v 0.003 c 0,0.01 -10e-4,0.019 -0.004,0.029 -0.003,0.009 -0.004,0.018 -0.004,0.028 0,0.01 0.001,0.019 0.004,0.028 0.003,0.009 0.004,0.019 0.004,0.029 v 0.003 c 0,0.001 0,0.002 0,0.003 C 1.169,-0.259 1.162,-0.229 1.153,-0.2 1.143,-0.17 1.132,-0.142 1.117,-0.114 1.103,-0.087 1.086,-0.061 1.067,-0.037 1.048,-0.013 1.026,0.008 1.001,0.026 1,0.028 0.997,0.028 0.993,0.028 L 0.976,0.027 C 0.972,0.027 0.968,0.029 0.965,0.032 0.962,0.035 0.959,0.039 0.956,0.044 0.954,0.049 0.951,0.054 0.948,0.058 0.946,0.063 0.943,0.067 0.94,0.069 0.936,0.073 0.93,0.078 0.92,0.082 0.911,0.087 0.901,0.092 0.889,0.097 0.878,0.102 0.865,0.106 0.852,0.111 0.839,0.115 0.826,0.119 0.814,0.123 0.802,0.127 0.791,0.129 0.781,0.132 0.771,0.134 0.763,0.135 0.757,0.135 0.751,0.135 0.745,0.134 0.739,0.133 0.733,0.132 0.727,0.13 0.721,0.128 0.642,0.11 0.572,0.075 0.51,0.023 0.508,0.016 0.505,0.01 0.5,0.006 0.495,0.001 0.49,-0.003 0.485,-0.008 0.48,-0.014 0.475,-0.019 0.47,-0.024 0.466,-0.029 0.46,-0.033 0.452,-0.034 0.414,-0.079 0.385,-0.128 0.365,-0.182 c -0.02,-0.054 -0.03,-0.11 -0.03,-0.169 0,-0.059 0.01,-0.115 0.03,-0.169 0.02,-0.054 0.049,-0.103 0.087,-0.148 0.008,-0.002 0.013,-0.005 0.018,-0.01 0.004,-0.005 0.009,-0.01 0.014,-0.015 0.005,-0.006 0.01,-0.01 0.016,-0.015 0.005,-0.004 0.008,-0.01 0.01,-0.018 0.062,-0.051 0.132,-0.086 0.211,-0.105 0.006,-0.001 0.012,-0.003 0.018,-0.004 0.006,-0.001 0.012,-0.002 0.018,-0.002 z"
         style="fill:#ffc83d;fill-rule:nonzero"
         id="path9078" /><path
         d="M 0.51,-0.726 C 0.507,-0.711 0.501,-0.698 0.49,-0.688 0.48,-0.677 0.467,-0.671 0.452,-0.668 0.47,-0.689 0.489,-0.708 0.51,-0.726 Z M 0.452,-0.034 C 0.467,-0.032 0.48,-0.025 0.49,-0.015 0.501,-0.004 0.507,0.008 0.51,0.023 0.489,0.006 0.47,-0.013 0.452,-0.034 Z m 0.721,-0.38 c 0.002,0.01 0.003,0.021 0.004,0.031 0,0.011 10e-4,0.022 10e-4,0.032 0,0.01 -10e-4,0.021 -10e-4,0.031 -0.001,0.011 -0.002,0.021 -0.004,0.032 -0.005,0.002 -0.01,0.004 -0.015,0.005 -0.005,0.002 -0.01,0.002 -0.015,0.002 -0.01,0 -0.019,-0.002 -0.028,-0.005 C 1.107,-0.29 1.099,-0.295 1.093,-0.302 1.087,-0.308 1.082,-0.315 1.078,-0.324 1.075,-0.332 1.073,-0.341 1.073,-0.351 c 0,-0.01 0.002,-0.019 0.005,-0.027 0.004,-0.009 0.009,-0.016 0.015,-0.023 0.006,-0.006 0.014,-0.011 0.022,-0.015 0.009,-0.004 0.018,-0.005 0.028,-0.005 0.005,0 0.01,0 0.015,0.002 0.005,0.001 0.01,0.003 0.015,0.005 z m -0.416,-0.06 c 0,0.017 -0.003,0.033 -0.01,0.048 -0.006,0.015 -0.015,0.028 -0.026,0.039 -0.011,0.011 -0.024,0.02 -0.039,0.026 -0.015,0.007 -0.031,0.01 -0.048,0.01 -0.017,0 -0.033,-0.003 -0.048,-0.01 C 0.571,-0.367 0.558,-0.376 0.547,-0.387 0.536,-0.398 0.527,-0.411 0.521,-0.426 0.514,-0.441 0.511,-0.457 0.511,-0.474 c 0,-0.017 0.003,-0.033 0.01,-0.048 0.007,-0.015 0.015,-0.027 0.026,-0.039 0.011,-0.011 0.024,-0.019 0.039,-0.026 0.015,-0.006 0.031,-0.01 0.048,-0.01 0.017,0 0.033,0.004 0.047,0.01 0.015,0.007 0.028,0.015 0.039,0.026 0.012,0.012 0.021,0.024 0.027,0.039 0.007,0.015 0.01,0.031 0.01,0.048 z m 0.21,0.228 c 0,0.01 -0.002,0.019 -0.005,0.028 C 0.958,-0.21 0.953,-0.202 0.947,-0.196 0.94,-0.19 0.933,-0.185 0.924,-0.181 0.916,-0.178 0.907,-0.176 0.897,-0.176 0.887,-0.176 0.878,-0.178 0.87,-0.181 0.861,-0.185 0.854,-0.19 0.847,-0.196 0.841,-0.202 0.836,-0.21 0.832,-0.218 0.829,-0.227 0.827,-0.236 0.827,-0.246 c 0,-0.009 0.002,-0.018 0.005,-0.027 0.004,-0.008 0.009,-0.016 0.015,-0.022 0.007,-0.007 0.014,-0.012 0.023,-0.015 0.008,-0.004 0.017,-0.006 0.027,-0.006 0.01,0 0.019,0.002 0.027,0.006 0.009,0.003 0.016,0.008 0.023,0.015 0.006,0.006 0.011,0.014 0.015,0.022 0.003,0.009 0.005,0.018 0.005,0.027 z m -0.351,0.053 c 0,0.007 -0.001,0.014 -0.004,0.02 -0.003,0.007 -0.006,0.012 -0.011,0.017 -0.005,0.005 -0.011,0.008 -0.017,0.011 -0.007,0.003 -0.013,0.004 -0.021,0.004 -0.007,0 -0.014,-0.001 -0.02,-0.004 C 0.536,-0.148 0.531,-0.151 0.526,-0.156 0.522,-0.161 0.518,-0.167 0.515,-0.173 0.513,-0.179 0.511,-0.186 0.511,-0.193 c 0,-0.008 0.002,-0.014 0.004,-0.021 0.003,-0.006 0.007,-0.012 0.012,-0.016 0.004,-0.005 0.01,-0.009 0.016,-0.011 0.007,-0.003 0.013,-0.005 0.02,-0.005 0.008,0 0.014,0.002 0.021,0.005 0.006,0.002 0.012,0.006 0.017,0.011 0.004,0.004 0.008,0.01 0.011,0.016 0.003,0.007 0.004,0.013 0.004,0.021 z M 0.95,-0.702 C 0.942,-0.702 0.935,-0.704 0.929,-0.706 0.923,-0.709 0.917,-0.713 0.912,-0.718 0.908,-0.722 0.904,-0.728 0.901,-0.734 0.898,-0.74 0.897,-0.747 0.897,-0.755 c 0,-0.006 0.001,-0.012 0.003,-0.018 0.003,-0.006 0.006,-0.011 0.01,-0.016 0.03,0.016 0.059,0.035 0.087,0.057 C 0.993,-0.723 0.986,-0.716 0.978,-0.71 0.969,-0.705 0.96,-0.702 0.95,-0.702 Z m 0,0.667 c 0.007,0 0.014,0.001 0.02,0.004 0.007,0.003 0.012,0.007 0.017,0.011 0.005,0.005 0.009,0.011 0.011,0.017 0.003,0.007 0.004,0.013 0.004,0.021 0,0.001 0,0.003 0,0.004 0,0.001 0,0.002 -0.001,0.004 C 0.992,0.034 0.982,0.042 0.972,0.049 0.961,0.056 0.951,0.063 0.94,0.069 0.928,0.067 0.917,0.061 0.909,0.051 0.901,0.041 0.897,0.03 0.897,0.018 0.897,0.01 0.898,0.004 0.901,-0.003 0.904,-0.009 0.908,-0.015 0.912,-0.02 0.917,-0.024 0.923,-0.028 0.929,-0.031 0.935,-0.034 0.942,-0.035 0.95,-0.035 Z"
         style="fill:#eba300;fill-rule:nonzero"
         id="path9080" /></g></g></svg>
