<?xml version="1.0" encoding="UTF-8" standalone="no"?>
<svg
   width="16.844999"
   height="16.844999"
   viewBox="0 0 16.844999 16.844999"
   version="1.1"
   xml:space="preserve"
   style="clip-rule:evenodd;fill-rule:evenodd;stroke-linejoin:round;stroke-miterlimit:2"
   id="svg20568"
   sodipodi:docname="emojis.svg"
   xmlns:inkscape="http://www.inkscape.org/namespaces/inkscape"
   xmlns:sodipodi="http://sodipodi.sourceforge.net/DTD/sodipodi-0.dtd"
   xmlns="http://www.w3.org/2000/svg"
   xmlns:svg="http://www.w3.org/2000/svg"><defs
     id="defs20572" /><sodipodi:namedview
     id="namedview20570"
     pagecolor="#505050"
     bordercolor="#eeeeee"
     borderopacity="1"
     inkscape:pageshadow="0"
     inkscape:pageopacity="0"
     inkscape:pagecheckerboard="0" /><g
     transform="matrix(0.24,0,0,0.24,-95.59644,-110.71908)"
     id="g20566"><g
       transform="matrix(62.5,0,0,62.5,390.506,518.392)"
       id="g908"><path
         d="M 0.687,0.21 C 0.635,0.21 0.585,0.204 0.537,0.191 0.489,0.177 0.442,0.158 0.398,0.131 0.378,0.137 0.357,0.14 0.335,0.14 0.306,0.14 0.279,0.135 0.253,0.124 0.228,0.114 0.205,0.099 0.186,0.08 0.167,0.062 0.152,0.04 0.141,0.014 0.13,-0.011 0.125,-0.039 0.125,-0.068 0.125,-0.087 0.127,-0.105 0.132,-0.123 0.137,-0.141 0.144,-0.158 0.153,-0.175 0.144,-0.203 0.137,-0.233 0.132,-0.262 0.127,-0.291 0.125,-0.321 0.125,-0.351 c 0,-0.052 0.007,-0.101 0.02,-0.149 0.013,-0.048 0.032,-0.093 0.057,-0.134 0.024,-0.042 0.053,-0.08 0.088,-0.114 0.034,-0.034 0.072,-0.064 0.113,-0.088 0.042,-0.024 0.087,-0.043 0.134,-0.057 0.048,-0.013 0.098,-0.02 0.15,-0.02 0.051,0 0.101,0.007 0.148,0.02 0.048,0.014 0.093,0.033 0.135,0.057 0.041,0.024 0.079,0.054 0.113,0.088 0.035,0.034 0.064,0.072 0.088,0.114 0.025,0.041 0.044,0.086 0.057,0.134 0.013,0.048 0.02,0.097 0.02,0.149 0,0.052 -0.007,0.101 -0.02,0.149 C 1.215,-0.154 1.196,-0.11 1.171,-0.068 1.147,-0.026 1.118,0.012 1.083,0.046 1.049,0.08 1.011,0.109 0.97,0.134 0.928,0.158 0.883,0.177 0.835,0.19 0.788,0.204 0.738,0.21 0.687,0.21 Z"
         style="fill-rule:nonzero"
         id="path896" /><path
         d="m 1.178,-0.351 c 0,0.045 -0.006,0.089 -0.018,0.131 -0.012,0.041 -0.028,0.081 -0.049,0.117 -0.022,0.036 -0.047,0.07 -0.077,0.099 C 1.004,0.026 0.971,0.052 0.935,0.073 0.898,0.094 0.859,0.111 0.817,0.123 0.775,0.134 0.732,0.14 0.687,0.14 0.641,0.14 0.598,0.134 0.556,0.123 0.514,0.111 0.475,0.094 0.438,0.073 0.402,0.052 0.369,0.026 0.339,-0.004 0.309,-0.033 0.284,-0.067 0.262,-0.103 0.241,-0.139 0.225,-0.179 0.213,-0.22 0.201,-0.262 0.195,-0.306 0.195,-0.351 c 0,-0.004 0.001,-0.01 0.003,-0.019 0.003,-0.009 0.005,-0.019 0.008,-0.028 0.003,-0.01 0.006,-0.019 0.009,-0.028 0.003,-0.009 0.005,-0.015 0.007,-0.019 0.02,-0.052 0.045,-0.094 0.078,-0.128 0.032,-0.033 0.068,-0.06 0.109,-0.079 0.041,-0.02 0.085,-0.033 0.133,-0.041 0.048,-0.008 0.097,-0.012 0.148,-0.012 0.04,0 0.078,0.002 0.113,0.004 0.036,0.003 0.069,0.009 0.101,0.019 0.031,0.01 0.061,0.025 0.088,0.045 0.028,0.02 0.055,0.048 0.079,0.083 0.022,0.031 0.042,0.064 0.059,0.098 0.017,0.035 0.033,0.07 0.048,0.105 z"
         style="fill:#ffc83d;fill-rule:nonzero"
         id="path898" /><path
         d="m 0.687,-0.526 c -0.091,0 -0.178,0.015 -0.262,0.044 -0.084,0.03 -0.16,0.074 -0.23,0.132 v -0.001 c 0,-0.045 0.006,-0.089 0.018,-0.131 0.012,-0.042 0.028,-0.081 0.049,-0.117 0.022,-0.037 0.047,-0.07 0.077,-0.099 0.03,-0.03 0.063,-0.056 0.099,-0.077 0.037,-0.021 0.076,-0.038 0.118,-0.05 0.042,-0.011 0.085,-0.017 0.131,-0.017 0.045,0 0.088,0.006 0.13,0.017 0.042,0.012 0.082,0.029 0.118,0.05 0.037,0.021 0.07,0.047 0.099,0.077 0.03,0.03 0.056,0.063 0.077,0.099 0.021,0.037 0.037,0.076 0.049,0.118 0.012,0.042 0.018,0.086 0.018,0.131 C 1.108,-0.408 1.032,-0.452 0.948,-0.482 0.864,-0.511 0.777,-0.526 0.687,-0.526 Z"
         style="fill:#83beec;fill-rule:nonzero"
         id="path900" /><path
         d="m 0.546,-0.692 c 0.009,0 0.018,0.004 0.025,0.01 0.007,0.007 0.011,0.015 0.011,0.025 0,0.009 -0.004,0.017 -0.01,0.024 -0.014,0.017 -0.03,0.032 -0.048,0.045 -0.018,0.013 -0.038,0.025 -0.058,0.034 -0.021,0.009 -0.042,0.016 -0.065,0.021 -0.022,0.004 -0.044,0.007 -0.066,0.007 -0.009,0 -0.017,-0.004 -0.024,-0.011 C 0.304,-0.544 0.3,-0.552 0.3,-0.562 c 0,-0.009 0.004,-0.018 0.011,-0.024 0.006,-0.007 0.015,-0.011 0.024,-0.011 0.029,0 0.056,-0.004 0.083,-0.014 C 0.444,-0.62 0.468,-0.634 0.49,-0.652 0.496,-0.656 0.501,-0.661 0.505,-0.666 0.51,-0.67 0.515,-0.675 0.52,-0.68 0.527,-0.688 0.536,-0.692 0.546,-0.692 Z m 0.526,0.13 c 0,0.01 -0.003,0.018 -0.01,0.025 -0.007,0.007 -0.015,0.011 -0.024,0.011 -0.022,0 -0.044,-0.003 -0.066,-0.007 C 0.95,-0.538 0.928,-0.545 0.907,-0.554 0.887,-0.563 0.867,-0.575 0.849,-0.588 0.83,-0.601 0.814,-0.616 0.8,-0.633 0.794,-0.641 0.792,-0.649 0.792,-0.657 c 0,-0.009 0.003,-0.017 0.01,-0.024 0.007,-0.007 0.015,-0.011 0.024,-0.011 0.01,0 0.019,0.004 0.027,0.012 0.005,0.005 0.01,0.01 0.014,0.014 0.005,0.005 0.01,0.01 0.015,0.014 0.022,0.018 0.046,0.032 0.073,0.041 0.027,0.01 0.054,0.014 0.083,0.014 0.009,0 0.017,0.004 0.024,0.011 0.007,0.007 0.01,0.015 0.01,0.024 z"
         style="fill:#0063b1;fill-rule:nonzero"
         id="path902" /><path
         d="m 0.511,0 c 0,-0.024 0.005,-0.047 0.014,-0.069 0.009,-0.021 0.022,-0.039 0.037,-0.055 0.016,-0.016 0.035,-0.029 0.056,-0.038 0.021,-0.009 0.044,-0.014 0.069,-0.014 0.024,0 0.046,0.005 0.068,0.014 0.021,0.009 0.04,0.022 0.055,0.038 0.016,0.016 0.029,0.035 0.038,0.056 0.009,0.021 0.014,0.044 0.014,0.068 z m 0.035,-0.298 c 0,0.007 -0.001,0.014 -0.004,0.02 C 0.539,-0.271 0.536,-0.266 0.531,-0.261 0.526,-0.257 0.52,-0.253 0.514,-0.25 0.508,-0.247 0.501,-0.246 0.494,-0.246 0.486,-0.246 0.48,-0.247 0.473,-0.25 0.467,-0.253 0.461,-0.257 0.457,-0.261 0.452,-0.266 0.448,-0.272 0.445,-0.278 0.442,-0.284 0.441,-0.291 0.441,-0.298 v -0.071 c 0,-0.007 0.001,-0.014 0.004,-0.02 0.003,-0.006 0.007,-0.012 0.012,-0.017 0.004,-0.005 0.01,-0.008 0.016,-0.011 0.007,-0.003 0.013,-0.004 0.021,-0.004 0.007,0 0.014,0.001 0.02,0.004 0.007,0.003 0.012,0.006 0.017,0.011 0.005,0.005 0.008,0.01 0.011,0.017 0.003,0.006 0.004,0.013 0.004,0.02 z m 0.333,-0.123 c 0.008,0 0.014,0.001 0.021,0.004 0.006,0.003 0.012,0.006 0.017,0.011 0.004,0.005 0.008,0.01 0.011,0.017 0.003,0.006 0.004,0.013 0.004,0.02 v 0.071 c 0,0.007 -0.001,0.014 -0.004,0.02 C 0.925,-0.271 0.921,-0.266 0.917,-0.261 0.912,-0.257 0.906,-0.253 0.9,-0.25 0.893,-0.247 0.887,-0.246 0.879,-0.246 0.872,-0.246 0.865,-0.247 0.859,-0.25 0.853,-0.253 0.847,-0.257 0.843,-0.261 0.838,-0.266 0.834,-0.272 0.831,-0.278 0.829,-0.284 0.827,-0.291 0.827,-0.298 v -0.071 c 0,-0.007 0.002,-0.014 0.004,-0.02 0.003,-0.006 0.007,-0.012 0.011,-0.017 0.005,-0.005 0.01,-0.008 0.017,-0.011 0.006,-0.003 0.013,-0.004 0.02,-0.004 z"
         style="fill-rule:nonzero"
         id="path904" /><path
         d="m 0.335,-0.351 0.12,0.206 c 0.006,0.012 0.011,0.024 0.015,0.037 0.004,0.013 0.006,0.026 0.006,0.04 0,0.02 -0.004,0.038 -0.011,0.055 C 0.457,0.004 0.447,0.018 0.435,0.031 0.422,0.043 0.407,0.053 0.39,0.06 0.373,0.067 0.355,0.07 0.335,0.07 0.316,0.07 0.298,0.067 0.281,0.06 0.264,0.053 0.249,0.043 0.236,0.031 0.224,0.018 0.214,0.004 0.206,-0.013 0.199,-0.03 0.195,-0.048 0.195,-0.067 c 0,-0.014 0.002,-0.027 0.006,-0.04 0.004,-0.013 0.009,-0.026 0.016,-0.038 z"
         style="fill:#00bcf2;fill-rule:nonzero"
         id="path906" /></g></g></svg>
