<?xml version="1.0" encoding="UTF-8" standalone="no"?>
<svg
   width="16.844999"
   height="16.844999"
   viewBox="0 0 16.844999 16.844999"
   version="1.1"
   xml:space="preserve"
   style="clip-rule:evenodd;fill-rule:evenodd;stroke-linejoin:round;stroke-miterlimit:2"
   id="svg20568"
   sodipodi:docname="emojis.svg"
   xmlns:inkscape="http://www.inkscape.org/namespaces/inkscape"
   xmlns:sodipodi="http://sodipodi.sourceforge.net/DTD/sodipodi-0.dtd"
   xmlns="http://www.w3.org/2000/svg"
   xmlns:svg="http://www.w3.org/2000/svg"><defs
     id="defs20572" /><sodipodi:namedview
     id="namedview20570"
     pagecolor="#505050"
     bordercolor="#eeeeee"
     borderopacity="1"
     inkscape:pageshadow="0"
     inkscape:pageopacity="0"
     inkscape:pagecheckerboard="0" /><g
     transform="matrix(0.24,0,0,0.24,-659.7726,-421.7322)"
     id="g20566"><g
       transform="matrix(62.5,0,0,62.5,2741.24,1814.28)"
       id="g9126"><path
         d="M 0.687,0.21 C 0.635,0.21 0.585,0.204 0.537,0.19 0.49,0.177 0.445,0.158 0.403,0.134 0.362,0.109 0.324,0.08 0.29,0.046 0.255,0.012 0.226,-0.026 0.202,-0.068 0.177,-0.11 0.158,-0.154 0.145,-0.202 0.132,-0.25 0.125,-0.3 0.125,-0.351 c 0,-0.052 0.007,-0.101 0.02,-0.149 0.013,-0.048 0.032,-0.093 0.057,-0.134 0.024,-0.042 0.053,-0.08 0.088,-0.114 0.034,-0.034 0.072,-0.064 0.113,-0.088 0.042,-0.024 0.087,-0.043 0.134,-0.057 0.048,-0.013 0.098,-0.02 0.15,-0.02 0.051,0 0.101,0.007 0.148,0.02 0.048,0.014 0.093,0.033 0.135,0.057 0.041,0.024 0.079,0.054 0.113,0.088 0.035,0.034 0.064,0.072 0.088,0.114 0.025,0.041 0.044,0.086 0.057,0.134 0.013,0.048 0.02,0.097 0.02,0.149 0,0.052 -0.007,0.101 -0.02,0.149 C 1.215,-0.154 1.196,-0.11 1.171,-0.068 1.147,-0.026 1.118,0.012 1.083,0.046 1.049,0.08 1.011,0.109 0.97,0.134 0.928,0.158 0.883,0.177 0.835,0.19 0.788,0.204 0.738,0.21 0.687,0.21 Z"
         style="fill-rule:nonzero"
         id="path9116" /><path
         d="m 0.687,-0.842 c 0.011,0 0.023,0 0.035,0.001 0.011,0.001 0.023,0.002 0.035,0.004 -0.019,0.003 -0.035,0.01 -0.05,0.022 -0.015,0.012 -0.029,0.027 -0.04,0.044 -0.012,0.018 -0.022,0.038 -0.031,0.06 C 0.627,-0.69 0.62,-0.668 0.614,-0.646 0.608,-0.624 0.603,-0.603 0.599,-0.583 0.595,-0.562 0.592,-0.544 0.59,-0.529 0.582,-0.47 0.578,-0.41 0.578,-0.351 c 0,0.059 0.004,0.119 0.012,0.178 0.002,0.015 0.005,0.033 0.009,0.053 0.004,0.021 0.009,0.042 0.015,0.064 0.006,0.022 0.013,0.043 0.022,0.065 0.009,0.022 0.019,0.042 0.031,0.059 0.011,0.018 0.025,0.033 0.04,0.045 0.015,0.012 0.031,0.019 0.05,0.022 C 0.745,0.136 0.733,0.138 0.722,0.139 0.71,0.14 0.698,0.14 0.687,0.14 0.65,0.14 0.615,0.136 0.58,0.129 0.545,0.121 0.511,0.11 0.479,0.094 0.472,0.083 0.463,0.075 0.453,0.068 0.442,0.061 0.432,0.055 0.421,0.049 0.413,0.045 0.404,0.041 0.396,0.038 0.387,0.034 0.379,0.03 0.372,0.026 0.366,0.023 0.361,0.019 0.356,0.014 0.351,0.009 0.346,0.004 0.342,0 L 0.341,-0.002 0.335,-0.008 C 0.302,-0.043 0.275,-0.08 0.253,-0.119 0.231,-0.159 0.215,-0.202 0.206,-0.249 0.212,-0.266 0.215,-0.282 0.217,-0.3 0.218,-0.317 0.219,-0.334 0.219,-0.351 0.219,-0.369 0.218,-0.386 0.215,-0.403 0.212,-0.419 0.209,-0.436 0.206,-0.453 0.217,-0.508 0.237,-0.558 0.265,-0.605 0.293,-0.652 0.329,-0.693 0.372,-0.728 0.376,-0.729 0.382,-0.73 0.388,-0.731 0.395,-0.733 0.401,-0.735 0.408,-0.737 0.415,-0.74 0.421,-0.742 0.427,-0.745 0.433,-0.748 0.438,-0.75 0.441,-0.753 0.445,-0.756 0.449,-0.76 0.451,-0.763 L 0.468,-0.786 C 0.471,-0.79 0.474,-0.793 0.478,-0.796 0.48,-0.798 0.484,-0.8 0.488,-0.801 0.493,-0.803 0.496,-0.804 0.5,-0.806 0.531,-0.818 0.561,-0.827 0.592,-0.833 0.622,-0.839 0.654,-0.842 0.687,-0.842 Z"
         style="fill:#ffc83d;fill-rule:nonzero"
         id="path9118" /><path
         d="m 0.51,-0.726 c -0.005,0.005 -0.01,0.01 -0.014,0.016 -0.004,0.005 -0.008,0.01 -0.013,0.015 -0.004,0.005 -0.01,0.009 -0.015,0.013 -0.006,0.004 -0.011,0.008 -0.016,0.014 -0.002,0 -0.004,0.001 -0.005,0.001 -0.002,0 -0.004,0 -0.006,0 -0.009,0 -0.017,-0.002 -0.025,-0.005 C 0.408,-0.675 0.401,-0.679 0.395,-0.684 0.388,-0.69 0.383,-0.696 0.379,-0.704 0.375,-0.711 0.373,-0.719 0.372,-0.728 c 0.033,-0.027 0.069,-0.05 0.107,-0.068 0.009,0.007 0.017,0.015 0.023,0.025 0.006,0.011 0.009,0.022 0.009,0.034 0,0.002 0,0.004 0,0.006 C 0.51,-0.729 0.51,-0.728 0.51,-0.726 Z m -0.058,0.692 c 0.004,0.004 0.009,0.008 0.015,0.011 0.005,0.003 0.01,0.007 0.014,0.011 0.006,0.006 0.011,0.012 0.014,0.018 0.004,0.007 0.009,0.013 0.015,0.017 0,0.002 0,0.004 0.001,0.006 0,0.002 0,0.004 0,0.006 0,0.012 -0.003,0.023 -0.009,0.033 C 0.496,0.079 0.488,0.087 0.479,0.094 0.441,0.076 0.405,0.053 0.372,0.026 0.373,0.017 0.375,0.009 0.379,0.002 c 0.004,-0.008 0.009,-0.014 0.016,-0.02 0.006,-0.005 0.013,-0.009 0.021,-0.013 0.008,-0.003 0.016,-0.004 0.025,-0.004 0.002,0 0.004,0 0.006,0 0.001,0 0.003,0 0.005,0.001 z M 0.23,-0.457 c 0.015,0 0.029,0.003 0.041,0.009 0.013,0.005 0.024,0.013 0.034,0.022 0.009,0.01 0.017,0.021 0.022,0.034 0.006,0.013 0.008,0.026 0.008,0.041 0,0.015 -0.002,0.028 -0.008,0.041 -0.005,0.013 -0.013,0.024 -0.022,0.033 -0.01,0.01 -0.021,0.018 -0.034,0.023 -0.012,0.006 -0.026,0.008 -0.041,0.008 -0.004,0 -0.008,0 -0.012,-0.001 -0.004,0 -0.008,-0.001 -0.012,-0.002 C 0.202,-0.266 0.2,-0.283 0.198,-0.3 0.196,-0.317 0.195,-0.334 0.195,-0.351 c 0,-0.017 0.001,-0.034 0.003,-0.051 0.002,-0.017 0.004,-0.034 0.008,-0.051 0.004,-0.001 0.008,-0.002 0.012,-0.003 0.004,0 0.008,-0.001 0.012,-0.001 z"
         style="fill:#eba300;fill-rule:nonzero"
         id="path9120" /><path
         d="m 0.757,-0.837 c 0.003,0 0.006,0 0.008,0.001 0.003,0.001 0.006,0.001 0.009,0.002 0.024,0.005 0.047,0.011 0.069,0.018 0.022,0.007 0.045,0.016 0.067,0.027 0.011,0.014 0.024,0.026 0.038,0.037 0.015,0.01 0.031,0.017 0.049,0.021 0.024,0.019 0.046,0.041 0.066,0.065 0.02,0.024 0.038,0.049 0.053,0.076 0.015,0.027 0.028,0.055 0.037,0.085 0.01,0.029 0.017,0.06 0.021,0.091 -0.004,0.012 -0.006,0.025 -0.007,0.037 0,0.012 0,0.025 0,0.038 v 0.007 c 0,0.008 0,0.016 10e-4,0.022 0.001,0.007 0.003,0.014 0.006,0.022 -0.004,0.031 -0.011,0.06 -0.02,0.09 -0.01,0.029 -0.022,0.057 -0.037,0.083 -0.014,0.027 -0.032,0.052 -0.051,0.076 -0.02,0.024 -0.041,0.045 -0.065,0.065 L 0.978,0.025 C 0.974,0.025 0.97,0.027 0.966,0.03 0.962,0.033 0.958,0.038 0.955,0.042 0.952,0.047 0.949,0.052 0.946,0.057 0.944,0.062 0.942,0.066 0.94,0.069 0.916,0.084 0.89,0.096 0.864,0.106 0.838,0.116 0.811,0.124 0.783,0.13 0.778,0.131 0.774,0.132 0.77,0.133 0.766,0.134 0.761,0.135 0.757,0.135 0.751,0.135 0.745,0.134 0.739,0.133 0.733,0.132 0.727,0.13 0.721,0.128 0.642,0.11 0.571,0.075 0.51,0.023 0.508,0.018 0.505,0.013 0.501,0.007 0.497,0.001 0.492,-0.005 0.486,-0.011 0.481,-0.016 0.475,-0.021 0.469,-0.025 0.463,-0.03 0.457,-0.033 0.452,-0.034 0.414,-0.079 0.385,-0.128 0.365,-0.182 c -0.02,-0.054 -0.03,-0.11 -0.03,-0.169 0,-0.059 0.01,-0.115 0.03,-0.169 0.02,-0.054 0.049,-0.103 0.087,-0.148 C 0.458,-0.669 0.464,-0.671 0.47,-0.675 0.477,-0.679 0.483,-0.684 0.488,-0.689 0.494,-0.695 0.499,-0.701 0.502,-0.707 0.506,-0.714 0.509,-0.72 0.51,-0.726 0.571,-0.777 0.642,-0.812 0.721,-0.831 0.727,-0.832 0.733,-0.834 0.739,-0.835 0.745,-0.836 0.751,-0.837 0.757,-0.837 Z"
         style="fill:#757575;fill-rule:nonzero"
         id="path9122" /><path
         d="M 0.51,-0.726 C 0.507,-0.711 0.501,-0.698 0.49,-0.688 0.48,-0.677 0.467,-0.671 0.452,-0.668 0.47,-0.689 0.489,-0.708 0.51,-0.726 Z M 0.452,-0.034 C 0.467,-0.032 0.48,-0.025 0.49,-0.015 0.501,-0.004 0.507,0.008 0.51,0.023 0.489,0.006 0.47,-0.013 0.452,-0.034 Z m 0.721,-0.38 c 0.002,0.01 0.003,0.021 0.004,0.031 0,0.011 10e-4,0.022 10e-4,0.032 0,0.01 -10e-4,0.021 -10e-4,0.031 -0.001,0.011 -0.002,0.021 -0.004,0.032 -0.005,0.002 -0.01,0.004 -0.015,0.005 -0.005,0.002 -0.01,0.002 -0.015,0.002 -0.01,0 -0.019,-0.002 -0.028,-0.005 C 1.107,-0.29 1.099,-0.295 1.093,-0.302 1.087,-0.308 1.082,-0.315 1.078,-0.324 1.075,-0.332 1.073,-0.341 1.073,-0.351 c 0,-0.01 0.002,-0.019 0.005,-0.027 0.004,-0.009 0.009,-0.016 0.015,-0.023 0.006,-0.006 0.014,-0.011 0.022,-0.015 0.009,-0.004 0.018,-0.005 0.028,-0.005 0.005,0 0.01,0 0.015,0.002 0.005,0.001 0.01,0.003 0.015,0.005 z m -0.416,-0.06 c 0,0.017 -0.003,0.033 -0.01,0.048 -0.006,0.015 -0.015,0.028 -0.026,0.039 -0.011,0.011 -0.024,0.02 -0.039,0.026 -0.015,0.007 -0.031,0.01 -0.048,0.01 -0.017,0 -0.033,-0.003 -0.048,-0.01 C 0.571,-0.367 0.558,-0.376 0.547,-0.387 0.536,-0.398 0.527,-0.411 0.521,-0.426 0.514,-0.441 0.511,-0.457 0.511,-0.474 c 0,-0.017 0.003,-0.033 0.01,-0.048 0.007,-0.015 0.015,-0.027 0.026,-0.039 0.011,-0.011 0.024,-0.019 0.039,-0.026 0.015,-0.006 0.031,-0.01 0.048,-0.01 0.017,0 0.033,0.004 0.047,0.01 0.015,0.007 0.028,0.015 0.039,0.026 0.012,0.012 0.021,0.024 0.027,0.039 0.007,0.015 0.01,0.031 0.01,0.048 z m 0.21,0.228 c 0,0.01 -0.002,0.019 -0.005,0.028 C 0.958,-0.21 0.953,-0.202 0.947,-0.196 0.94,-0.19 0.933,-0.185 0.924,-0.181 0.916,-0.178 0.907,-0.176 0.897,-0.176 0.887,-0.176 0.878,-0.178 0.87,-0.181 0.861,-0.185 0.854,-0.19 0.847,-0.196 0.841,-0.202 0.836,-0.21 0.832,-0.218 0.829,-0.227 0.827,-0.236 0.827,-0.246 c 0,-0.009 0.002,-0.018 0.005,-0.027 0.004,-0.008 0.009,-0.016 0.015,-0.022 0.007,-0.007 0.014,-0.012 0.023,-0.015 0.008,-0.004 0.017,-0.006 0.027,-0.006 0.01,0 0.019,0.002 0.027,0.006 0.009,0.003 0.016,0.008 0.023,0.015 0.006,0.006 0.011,0.014 0.015,0.022 0.003,0.009 0.005,0.018 0.005,0.027 z m -0.351,0.053 c 0,0.007 -0.001,0.014 -0.004,0.02 -0.003,0.007 -0.006,0.012 -0.011,0.017 -0.005,0.005 -0.011,0.008 -0.017,0.011 -0.007,0.003 -0.013,0.004 -0.021,0.004 -0.007,0 -0.014,-0.001 -0.02,-0.004 C 0.536,-0.148 0.531,-0.151 0.526,-0.156 0.522,-0.161 0.518,-0.167 0.515,-0.173 0.513,-0.179 0.511,-0.186 0.511,-0.193 c 0,-0.008 0.002,-0.014 0.004,-0.021 0.003,-0.006 0.007,-0.012 0.012,-0.016 0.004,-0.005 0.01,-0.009 0.016,-0.011 0.007,-0.003 0.013,-0.005 0.02,-0.005 0.008,0 0.014,0.002 0.021,0.005 0.006,0.002 0.012,0.006 0.017,0.011 0.004,0.004 0.008,0.01 0.011,0.016 0.003,0.007 0.004,0.013 0.004,0.021 z M 0.95,-0.702 C 0.942,-0.702 0.935,-0.704 0.929,-0.706 0.923,-0.709 0.917,-0.713 0.912,-0.718 0.908,-0.722 0.904,-0.728 0.901,-0.734 0.898,-0.74 0.897,-0.747 0.897,-0.755 c 0,-0.006 0.001,-0.012 0.003,-0.018 0.003,-0.006 0.006,-0.011 0.01,-0.016 0.03,0.016 0.059,0.035 0.087,0.057 C 0.993,-0.723 0.986,-0.716 0.978,-0.71 0.969,-0.705 0.96,-0.702 0.95,-0.702 Z m 0,0.667 c 0.007,0 0.014,0.001 0.02,0.004 0.007,0.003 0.012,0.007 0.017,0.011 0.005,0.005 0.009,0.011 0.011,0.017 0.003,0.007 0.004,0.013 0.004,0.021 0,0.001 0,0.003 0,0.004 0,0.001 0,0.002 -0.001,0.004 C 0.992,0.034 0.982,0.042 0.972,0.049 0.961,0.056 0.951,0.063 0.94,0.069 0.928,0.067 0.917,0.061 0.909,0.051 0.901,0.041 0.897,0.03 0.897,0.018 0.897,0.01 0.898,0.004 0.901,-0.003 0.904,-0.009 0.908,-0.015 0.912,-0.02 0.917,-0.024 0.923,-0.028 0.929,-0.031 0.935,-0.034 0.942,-0.035 0.95,-0.035 Z"
         style="fill:#383838;fill-rule:nonzero"
         id="path9124" /></g></g></svg>
