<?xml version="1.0" encoding="UTF-8" standalone="no"?>
<svg
   width="16.844999"
   height="16.844999"
   viewBox="0 0 16.844999 16.844999"
   version="1.1"
   xml:space="preserve"
   style="clip-rule:evenodd;fill-rule:evenodd;stroke-linejoin:round;stroke-miterlimit:2"
   id="svg20568"
   sodipodi:docname="emojis.svg"
   xmlns:inkscape="http://www.inkscape.org/namespaces/inkscape"
   xmlns:sodipodi="http://sodipodi.sourceforge.net/DTD/sodipodi-0.dtd"
   xmlns="http://www.w3.org/2000/svg"
   xmlns:svg="http://www.w3.org/2000/svg"><defs
     id="defs20572" /><sodipodi:namedview
     id="namedview20570"
     pagecolor="#505050"
     bordercolor="#eeeeee"
     borderopacity="1"
     inkscape:pageshadow="0"
     inkscape:pageopacity="0"
     inkscape:pagecheckerboard="0" /><g
     transform="matrix(0.24,0,0,0.24,-680.3694,-421.7322)"
     id="g20566"><g
       transform="matrix(62.5,0,0,62.5,2827.06,1814.28)"
       id="g9134"><path
         d="M 0.646,0.21 C 0.604,0.21 0.563,0.207 0.525,0.199 0.487,0.192 0.451,0.181 0.416,0.166 0.382,0.151 0.348,0.132 0.316,0.11 0.284,0.089 0.252,0.063 0.221,0.034 0.211,0.025 0.2,0.015 0.189,0.005 0.178,-0.005 0.168,-0.016 0.158,-0.027 0.148,-0.039 0.14,-0.051 0.134,-0.064 0.128,-0.077 0.125,-0.091 0.125,-0.106 c 0,-0.015 0.003,-0.028 0.008,-0.041 0.006,-0.013 0.013,-0.024 0.023,-0.033 0.01,-0.01 0.021,-0.017 0.033,-0.023 0.013,-0.005 0.027,-0.008 0.041,-0.008 0.008,0 0.015,0.001 0.021,0.003 0.007,0.001 0.013,0.003 0.02,0.005 0.023,0.008 0.045,0.014 0.066,0.019 0.022,0.006 0.045,0.008 0.069,0.008 0.042,0 0.082,-0.005 0.121,-0.016 C 0.566,-0.203 0.602,-0.218 0.636,-0.238 0.67,-0.258 0.7,-0.282 0.728,-0.31 0.756,-0.337 0.779,-0.368 0.799,-0.402 0.819,-0.436 0.835,-0.472 0.845,-0.511 0.856,-0.549 0.862,-0.59 0.862,-0.632 0.862,-0.656 0.859,-0.679 0.854,-0.7 0.848,-0.722 0.842,-0.744 0.835,-0.767 0.833,-0.773 0.831,-0.78 0.829,-0.786 0.827,-0.793 0.827,-0.8 0.827,-0.807 c 0,-0.015 0.002,-0.028 0.008,-0.041 0.005,-0.013 0.013,-0.024 0.023,-0.034 0.009,-0.009 0.02,-0.017 0.033,-0.022 0.013,-0.006 0.026,-0.009 0.041,-0.009 0.016,0 0.03,0.003 0.04,0.008 0.011,0.005 0.023,0.013 0.034,0.023 0.012,0.01 0.023,0.021 0.034,0.032 0.011,0.011 0.021,0.023 0.032,0.034 0.057,0.059 0.101,0.125 0.131,0.195 0.03,0.07 0.045,0.147 0.045,0.23 0,0.055 -0.007,0.109 -0.021,0.16 C 1.212,-0.18 1.192,-0.132 1.166,-0.087 1.14,-0.043 1.109,-0.002 1.072,0.034 1.035,0.071 0.995,0.102 0.95,0.128 0.906,0.154 0.858,0.175 0.806,0.189 0.755,0.203 0.702,0.21 0.646,0.21 Z"
         style="fill-rule:nonzero"
         id="path9128" /><path
         d="m 0.932,-0.842 c 0.01,0 0.018,0.003 0.025,0.01 l 0.065,0.065 c 0.051,0.051 0.089,0.108 0.116,0.172 0.026,0.064 0.04,0.132 0.04,0.204 0,0.039 -0.004,0.077 -0.013,0.115 -0.008,0.038 -0.021,0.075 -0.037,0.109 -0.016,0.035 -0.036,0.068 -0.06,0.099 -0.023,0.031 -0.05,0.059 -0.08,0.084 -0.022,0 -0.041,0.002 -0.059,0.006 C 0.911,0.026 0.895,0.032 0.88,0.04 0.865,0.048 0.851,0.058 0.838,0.071 0.825,0.083 0.813,0.099 0.801,0.118 0.776,0.125 0.75,0.131 0.725,0.135 0.699,0.138 0.673,0.14 0.646,0.14 0.575,0.14 0.507,0.127 0.443,0.1 0.379,0.074 0.321,0.035 0.271,-0.016 L 0.206,-0.081 C 0.199,-0.087 0.195,-0.096 0.195,-0.105 c 0,-0.01 0.004,-0.018 0.011,-0.025 0.006,-0.007 0.015,-0.011 0.024,-0.011 0.003,0 0.005,10e-4 0.007,10e-4 0.002,0.001 0.004,0.002 0.007,0.002 0.027,0.01 0.053,0.017 0.079,0.023 0.026,0.007 0.054,0.01 0.083,0.01 0.048,0 0.094,-0.007 0.139,-0.019 C 0.59,-0.137 0.632,-0.155 0.671,-0.177 0.71,-0.2 0.746,-0.228 0.778,-0.26 0.81,-0.292 0.837,-0.328 0.86,-0.366 0.883,-0.405 0.901,-0.447 0.913,-0.492 0.926,-0.537 0.932,-0.584 0.932,-0.632 0.932,-0.646 0.931,-0.66 0.929,-0.673 0.928,-0.687 0.925,-0.701 0.922,-0.714 0.919,-0.727 0.916,-0.741 0.912,-0.754 0.908,-0.767 0.904,-0.781 0.9,-0.794 0.898,-0.799 0.897,-0.803 0.897,-0.807 c 0,-0.01 0.004,-0.018 0.01,-0.025 0.007,-0.007 0.015,-0.01 0.025,-0.01 z"
         style="fill:#ffc83d;fill-rule:nonzero"
         id="path9130" /><path
         d="m 0.563,-0.035 c 0.008,0 0.014,0.001 0.021,0.004 0.006,0.003 0.012,0.007 0.017,0.011 0.005,0.005 0.008,0.011 0.011,0.017 0.003,0.007 0.004,0.013 0.004,0.021 0,0.007 -0.001,0.013 -0.004,0.02 C 0.609,0.044 0.605,0.05 0.601,0.055 0.596,0.06 0.59,0.063 0.584,0.066 0.577,0.069 0.571,0.07 0.563,0.07 0.556,0.07 0.55,0.069 0.543,0.066 0.537,0.063 0.531,0.06 0.527,0.055 0.522,0.05 0.518,0.044 0.515,0.038 0.513,0.031 0.511,0.025 0.511,0.018 c 0,-0.008 0.002,-0.014 0.004,-0.021 0.003,-0.006 0.007,-0.012 0.011,-0.017 0.005,-0.004 0.01,-0.008 0.017,-0.011 0.006,-0.003 0.013,-0.004 0.02,-0.004 z m 0.334,0 c 0.019,0 0.036,0.004 0.052,0.014 C 0.965,-0.012 0.978,0 0.988,0.016 0.96,0.039 0.931,0.058 0.9,0.076 0.869,0.093 0.837,0.107 0.803,0.117 0.796,0.102 0.792,0.086 0.792,0.07 0.792,0.056 0.795,0.042 0.8,0.029 0.806,0.017 0.813,0.005 0.823,-0.004 0.832,-0.014 0.843,-0.021 0.856,-0.027 0.869,-0.032 0.882,-0.035 0.897,-0.035 Z M 1.02,-0.562 C 1.013,-0.562 1.006,-0.563 0.999,-0.566 0.993,-0.568 0.987,-0.572 0.983,-0.577 0.978,-0.582 0.974,-0.587 0.971,-0.594 0.969,-0.6 0.967,-0.607 0.967,-0.614 c 0,-0.007 0.002,-0.014 0.004,-0.021 0.003,-0.006 0.007,-0.012 0.012,-0.017 0.004,-0.004 0.01,-0.008 0.016,-0.011 0.007,-0.003 0.014,-0.004 0.021,-0.004 0.007,0 0.014,0.001 0.02,0.004 0.007,0.003 0.012,0.007 0.017,0.012 0.005,0.005 0.009,0.01 0.012,0.016 0.002,0.007 0.004,0.014 0.004,0.021 0,0.007 -0.002,0.014 -0.004,0.02 -0.003,0.006 -0.007,0.012 -0.012,0.017 -0.005,0.005 -0.01,0.009 -0.017,0.011 -0.006,0.003 -0.013,0.004 -0.02,0.004 z m 0.018,0.036 c 0.009,0 0.018,0.001 0.027,0.005 0.008,0.004 0.016,0.009 0.022,0.015 0.007,0.006 0.011,0.014 0.015,0.022 0.004,0.009 0.005,0.018 0.005,0.027 0,0.01 -10e-4,0.019 -0.005,0.028 -0.004,0.008 -0.008,0.016 -0.015,0.022 -0.006,0.006 -0.014,0.011 -0.022,0.015 -0.009,0.004 -0.018,0.006 -0.027,0.006 -0.01,0 -0.019,-0.002 -0.028,-0.006 C 1.001,-0.395 0.994,-0.4 0.988,-0.406 0.981,-0.413 0.976,-0.42 0.973,-0.429 0.969,-0.438 0.967,-0.447 0.967,-0.457 0.967,-0.466 0.969,-0.475 0.973,-0.484 0.977,-0.492 0.982,-0.5 0.988,-0.506 0.994,-0.512 1.002,-0.517 1.01,-0.521 1.019,-0.525 1.028,-0.526 1.038,-0.526 Z"
         style="fill:#eba300;fill-rule:nonzero"
         id="path9132" /></g></g></svg>
