<?xml version="1.0" encoding="UTF-8" standalone="no"?>
<svg
   width="16.844999"
   height="16.844999"
   viewBox="0 0 16.844999 16.844999"
   version="1.1"
   xml:space="preserve"
   style="clip-rule:evenodd;fill-rule:evenodd;stroke-linejoin:round;stroke-miterlimit:2"
   id="svg20568"
   sodipodi:docname="emojis.svg"
   xmlns:inkscape="http://www.inkscape.org/namespaces/inkscape"
   xmlns:sodipodi="http://sodipodi.sourceforge.net/DTD/sodipodi-0.dtd"
   xmlns="http://www.w3.org/2000/svg"
   xmlns:svg="http://www.w3.org/2000/svg"><defs
     id="defs20572" /><sodipodi:namedview
     id="namedview20570"
     pagecolor="#505050"
     bordercolor="#eeeeee"
     borderopacity="1"
     inkscape:pageshadow="0"
     inkscape:pageopacity="0"
     inkscape:pagecheckerboard="0" /><g
     transform="matrix(0.24,0,0,0.24,-700.9662,-421.7322)"
     id="g20566"><g
       transform="matrix(62.5,0,0,62.5,2912.88,1814.28)"
       id="g9144"><path
         d="M 0.687,0.21 C 0.635,0.21 0.585,0.204 0.537,0.19 0.49,0.177 0.445,0.158 0.403,0.134 0.362,0.109 0.324,0.08 0.29,0.046 0.255,0.012 0.226,-0.026 0.202,-0.068 0.177,-0.11 0.158,-0.154 0.145,-0.202 0.132,-0.25 0.125,-0.3 0.125,-0.351 c 0,-0.052 0.007,-0.101 0.02,-0.149 0.013,-0.048 0.032,-0.093 0.057,-0.134 0.024,-0.042 0.053,-0.08 0.088,-0.114 0.034,-0.034 0.072,-0.064 0.113,-0.088 0.042,-0.024 0.087,-0.043 0.134,-0.057 0.048,-0.013 0.098,-0.02 0.15,-0.02 0.051,0 0.101,0.007 0.148,0.02 0.048,0.014 0.093,0.033 0.135,0.057 0.041,0.024 0.079,0.054 0.113,0.088 0.035,0.034 0.064,0.072 0.088,0.114 0.025,0.041 0.044,0.086 0.057,0.134 0.013,0.048 0.02,0.097 0.02,0.149 0,0.052 -0.007,0.101 -0.02,0.149 C 1.215,-0.154 1.196,-0.11 1.171,-0.068 1.147,-0.026 1.118,0.012 1.083,0.046 1.049,0.08 1.011,0.109 0.97,0.134 0.928,0.158 0.883,0.177 0.835,0.19 0.788,0.204 0.738,0.21 0.687,0.21 Z"
         style="fill-rule:nonzero"
         id="path9136" /><path
         d="m 1.178,-0.351 c 0,0.045 -0.006,0.089 -0.018,0.131 -0.012,0.041 -0.028,0.081 -0.049,0.117 -0.022,0.036 -0.047,0.07 -0.077,0.099 C 1.004,0.026 0.971,0.052 0.935,0.073 0.898,0.094 0.859,0.111 0.817,0.123 0.775,0.134 0.732,0.14 0.687,0.14 0.641,0.14 0.598,0.134 0.556,0.123 0.514,0.111 0.475,0.094 0.438,0.073 0.402,0.052 0.369,0.026 0.339,-0.004 0.309,-0.033 0.284,-0.067 0.262,-0.103 0.241,-0.139 0.225,-0.179 0.213,-0.22 0.201,-0.262 0.195,-0.306 0.195,-0.351 c 0,-0.045 0.006,-0.089 0.018,-0.131 0.012,-0.042 0.028,-0.081 0.049,-0.117 0.022,-0.037 0.047,-0.07 0.077,-0.099 0.03,-0.03 0.063,-0.056 0.099,-0.077 0.037,-0.021 0.076,-0.038 0.118,-0.05 0.042,-0.011 0.085,-0.017 0.131,-0.017 0.045,0 0.088,0.006 0.13,0.017 0.042,0.012 0.081,0.029 0.118,0.05 0.036,0.021 0.069,0.047 0.099,0.077 0.03,0.029 0.055,0.062 0.077,0.099 0.021,0.036 0.037,0.075 0.049,0.117 0.012,0.042 0.018,0.086 0.018,0.131 z"
         style="fill:#757575;fill-rule:nonzero"
         id="path9138" /><path
         d="m 0.687,-0.281 c -0.01,0 -0.019,-0.002 -0.028,-0.005 C 0.651,-0.29 0.643,-0.295 0.637,-0.302 0.631,-0.308 0.626,-0.315 0.622,-0.324 0.618,-0.332 0.616,-0.341 0.616,-0.351 h 0.141 c 0,0.01 -0.002,0.019 -0.006,0.027 C 0.747,-0.315 0.742,-0.308 0.736,-0.302 0.73,-0.295 0.722,-0.29 0.714,-0.286 0.705,-0.283 0.696,-0.281 0.687,-0.281 Z M 0.479,-0.796 c 0.009,0.007 0.017,0.015 0.023,0.025 0.006,0.011 0.009,0.022 0.009,0.034 0,0.009 -0.002,0.019 -0.005,0.027 C 0.502,-0.701 0.497,-0.694 0.49,-0.688 0.484,-0.681 0.477,-0.676 0.468,-0.673 0.46,-0.669 0.451,-0.667 0.441,-0.667 0.432,-0.667 0.424,-0.669 0.416,-0.672 0.408,-0.675 0.401,-0.679 0.395,-0.684 0.388,-0.69 0.383,-0.696 0.379,-0.704 0.375,-0.711 0.373,-0.719 0.372,-0.728 c 0.005,-0.01 0.011,-0.018 0.019,-0.026 0.008,-0.007 0.017,-0.014 0.026,-0.019 0.01,-0.006 0.02,-0.01 0.031,-0.014 0.01,-0.004 0.021,-0.007 0.031,-0.009 z m 0.348,0.059 c 0,-0.014 0.002,-0.027 0.008,-0.04 0.005,-0.013 0.013,-0.024 0.022,-0.034 0.018,0.005 0.035,0.01 0.053,0.017 0.017,0.006 0.034,0.014 0.049,0.024 0.014,0.01 0.027,0.02 0.038,0.032 0.011,0.013 0.022,0.025 0.034,0.037 -0.004,0.01 -0.009,0.02 -0.016,0.028 -0.007,0.009 -0.014,0.016 -0.023,0.022 -0.008,0.006 -0.018,0.011 -0.028,0.014 -0.01,0.004 -0.021,0.005 -0.032,0.005 -0.015,0 -0.028,-0.003 -0.041,-0.008 C 0.878,-0.646 0.867,-0.653 0.858,-0.663 0.848,-0.672 0.84,-0.684 0.835,-0.696 0.829,-0.709 0.827,-0.723 0.827,-0.737 Z m -0.386,0.702 c 0.01,0 0.019,0.002 0.027,0.005 0.009,0.004 0.016,0.009 0.022,0.016 0.007,0.006 0.012,0.013 0.016,0.022 0.003,0.008 0.005,0.017 0.005,0.027 0,0.012 -0.003,0.023 -0.009,0.033 C 0.496,0.079 0.488,0.087 0.479,0.094 0.464,0.09 0.452,0.087 0.443,0.083 0.434,0.079 0.426,0.075 0.419,0.07 0.411,0.065 0.404,0.059 0.397,0.052 0.39,0.045 0.382,0.036 0.372,0.026 0.373,0.017 0.375,0.009 0.379,0.002 0.383,-0.006 0.388,-0.012 0.395,-0.018 0.401,-0.023 0.408,-0.027 0.416,-0.031 0.424,-0.034 0.432,-0.035 0.441,-0.035 Z M 0.932,-0.07 c 0.011,0 0.022,0.001 0.032,0.005 0.01,0.003 0.02,0.008 0.028,0.014 0.009,0.006 0.016,0.013 0.023,0.022 0.007,0.009 0.012,0.018 0.016,0.028 C 1.009,0.027 0.984,0.05 0.954,0.07 0.924,0.089 0.892,0.102 0.857,0.109 0.848,0.099 0.84,0.088 0.835,0.075 0.829,0.062 0.827,0.049 0.827,0.035 0.827,0.021 0.829,0.007 0.835,-0.006 0.84,-0.019 0.848,-0.03 0.858,-0.039 0.867,-0.049 0.878,-0.056 0.891,-0.062 0.904,-0.068 0.917,-0.07 0.932,-0.07 Z m 0.241,-0.344 c 0.004,0.01 0.006,0.021 0.008,0.031 10e-4,0.011 0.002,0.021 0.002,0.032 0,0.022 -0.003,0.043 -0.01,0.063 -0.005,0.002 -0.01,0.004 -0.015,0.005 -0.005,0.002 -0.01,0.002 -0.015,0.002 -0.01,0 -0.019,-0.002 -0.028,-0.005 C 1.107,-0.29 1.099,-0.295 1.093,-0.302 1.087,-0.308 1.082,-0.315 1.078,-0.324 1.075,-0.332 1.073,-0.341 1.073,-0.351 c 0,-0.01 0.002,-0.019 0.005,-0.027 0.004,-0.009 0.009,-0.016 0.015,-0.023 0.006,-0.006 0.014,-0.011 0.022,-0.015 0.009,-0.004 0.018,-0.005 0.028,-0.005 0.005,0 0.01,0 0.015,0.002 0.005,0.001 0.01,0.003 0.015,0.005 z M 0.23,-0.457 c 0.015,0 0.029,0.003 0.041,0.009 0.013,0.005 0.024,0.013 0.034,0.022 0.009,0.01 0.017,0.021 0.022,0.034 0.006,0.013 0.008,0.026 0.008,0.041 0,0.015 -0.002,0.028 -0.008,0.041 -0.005,0.013 -0.013,0.024 -0.022,0.033 -0.01,0.01 -0.021,0.018 -0.034,0.023 -0.012,0.006 -0.026,0.008 -0.041,0.008 -0.004,0 -0.008,0 -0.012,-0.001 -0.004,0 -0.008,-0.001 -0.012,-0.002 C 0.201,-0.266 0.197,-0.282 0.194,-0.299 0.191,-0.316 0.19,-0.333 0.19,-0.351 c 0,-0.018 0.001,-0.035 0.004,-0.052 0.003,-0.017 0.007,-0.034 0.012,-0.05 0.004,-0.001 0.008,-0.002 0.012,-0.003 0.004,0 0.008,-0.001 0.012,-0.001 z"
         style="fill:#383838;fill-rule:nonzero"
         id="path9140" /><path
         d="M 0.494,-0.386 C 0.486,-0.386 0.479,-0.388 0.473,-0.39 0.467,-0.393 0.461,-0.397 0.456,-0.402 0.452,-0.406 0.448,-0.412 0.445,-0.418 0.442,-0.425 0.441,-0.431 0.441,-0.439 v -0.07 c 0,-0.007 0.001,-0.014 0.004,-0.02 0.003,-0.007 0.007,-0.012 0.011,-0.017 0.005,-0.005 0.011,-0.009 0.017,-0.011 0.006,-0.003 0.013,-0.005 0.021,-0.005 0.007,0 0.014,0.002 0.02,0.005 0.006,0.002 0.012,0.006 0.017,0.011 0.005,0.005 0.008,0.011 0.011,0.017 0.003,0.006 0.004,0.013 0.004,0.02 v 0.07 c 0,0.007 -0.001,0.014 -0.004,0.02 -0.003,0.007 -0.006,0.012 -0.011,0.017 -0.005,0.005 -0.011,0.009 -0.017,0.012 -0.006,0.002 -0.013,0.004 -0.02,0.004 z m 0.385,-0.176 c 0.008,0 0.014,0.002 0.021,0.005 0.006,0.002 0.012,0.006 0.017,0.011 0.004,0.005 0.008,0.01 0.011,0.017 0.003,0.006 0.004,0.013 0.004,0.02 v 0.07 c 0,0.008 -0.001,0.014 -0.004,0.021 C 0.925,-0.412 0.921,-0.406 0.917,-0.402 0.912,-0.397 0.906,-0.393 0.9,-0.39 0.893,-0.388 0.887,-0.386 0.879,-0.386 0.872,-0.386 0.865,-0.388 0.859,-0.39 0.852,-0.393 0.847,-0.397 0.842,-0.402 0.838,-0.407 0.834,-0.412 0.831,-0.419 0.829,-0.425 0.827,-0.432 0.827,-0.439 v -0.07 c 0,-0.007 0.002,-0.014 0.004,-0.02 0.003,-0.006 0.007,-0.012 0.011,-0.017 0.005,-0.005 0.01,-0.009 0.017,-0.011 0.006,-0.003 0.013,-0.005 0.02,-0.005 z m -0.192,0.421 c 0.027,0 0.054,-0.003 0.081,-0.01 0.027,-0.007 0.052,-0.017 0.075,-0.031 L 0.869,-0.2 c 0.005,-0.003 0.01,-0.006 0.015,-0.008 0.004,-0.002 0.009,-0.003 0.013,-0.003 0.01,0 0.018,0.003 0.025,0.01 0.007,0.007 0.01,0.015 0.01,0.025 0,0.006 -0.001,0.012 -0.004,0.016 -0.002,0.004 -0.005,0.008 -0.01,0.013 -0.014,0.012 -0.03,0.023 -0.049,0.033 C 0.85,-0.104 0.83,-0.096 0.809,-0.09 0.788,-0.083 0.767,-0.078 0.746,-0.075 0.725,-0.072 0.705,-0.07 0.687,-0.07 0.668,-0.07 0.649,-0.072 0.627,-0.075 0.606,-0.078 0.585,-0.083 0.564,-0.09 0.543,-0.096 0.523,-0.104 0.504,-0.114 0.485,-0.124 0.469,-0.135 0.455,-0.147 0.451,-0.152 0.447,-0.156 0.445,-0.16 0.442,-0.164 0.441,-0.17 0.441,-0.176 c 0,-0.009 0.003,-0.017 0.01,-0.024 0.007,-0.007 0.016,-0.01 0.025,-0.01 0.004,0 0.009,0.001 0.014,0.003 0.004,0.002 0.009,0.004 0.014,0.007 0.004,0.003 0.009,0.006 0.014,0.01 0.004,0.003 0.008,0.006 0.012,0.008 0.023,0.014 0.048,0.024 0.075,0.031 0.027,0.007 0.054,0.01 0.082,0.01 z"
         style="fill-rule:nonzero"
         id="path9142" /></g></g></svg>
