<?xml version="1.0" encoding="UTF-8" standalone="no"?>
<svg
   width="13.155"
   height="16.844999"
   viewBox="0 0 13.155 16.844999"
   version="1.1"
   xml:space="preserve"
   style="clip-rule:evenodd;fill-rule:evenodd;stroke-linejoin:round;stroke-miterlimit:2"
   id="svg20568"
   sodipodi:docname="emojis.svg"
   xmlns:inkscape="http://www.inkscape.org/namespaces/inkscape"
   xmlns:sodipodi="http://sodipodi.sourceforge.net/DTD/sodipodi-0.dtd"
   xmlns="http://www.w3.org/2000/svg"
   xmlns:svg="http://www.w3.org/2000/svg"><defs
     id="defs20572" /><sodipodi:namedview
     id="namedview20570"
     pagecolor="#505050"
     bordercolor="#eeeeee"
     borderopacity="1"
     inkscape:pageshadow="0"
     inkscape:pageopacity="0"
     inkscape:pagecheckerboard="0" /><g
     transform="matrix(0.24,0,0,0.24,-721.5606,-421.7322)"
     id="g20566"><g
       transform="matrix(62.5,0,0,62.5,2998.69,1814.28)"
       id="g9154"><path
         d="M 0.248,0.21 C 0.231,0.21 0.215,0.207 0.2,0.201 0.185,0.194 0.172,0.185 0.161,0.174 0.15,0.163 0.141,0.15 0.135,0.135 0.128,0.12 0.125,0.104 0.125,0.087 0.125,0.064 0.13,0.044 0.139,0.029 0.148,0.014 0.16,0.001 0.174,-0.009 0.188,-0.019 0.204,-0.028 0.222,-0.035 0.24,-0.042 0.258,-0.049 0.275,-0.057 0.319,-0.077 0.356,-0.101 0.387,-0.132 0.419,-0.162 0.442,-0.2 0.458,-0.246 H 0.423 C 0.406,-0.246 0.39,-0.249 0.375,-0.255 0.361,-0.262 0.347,-0.271 0.336,-0.282 0.325,-0.293 0.317,-0.306 0.31,-0.321 0.304,-0.336 0.3,-0.352 0.3,-0.369 0.3,-0.386 0.304,-0.402 0.31,-0.417 0.317,-0.431 0.325,-0.444 0.336,-0.456 0.347,-0.467 0.361,-0.475 0.375,-0.482 0.39,-0.488 0.406,-0.491 0.423,-0.491 H 0.442 C 0.424,-0.528 0.401,-0.558 0.374,-0.583 0.346,-0.607 0.314,-0.628 0.277,-0.644 0.259,-0.652 0.241,-0.659 0.223,-0.667 0.205,-0.674 0.189,-0.682 0.174,-0.693 0.16,-0.703 0.148,-0.716 0.139,-0.731 0.13,-0.746 0.125,-0.765 0.125,-0.79 c 0,-0.016 0.003,-0.032 0.01,-0.047 0.006,-0.015 0.015,-0.028 0.026,-0.039 0.011,-0.012 0.024,-0.02 0.039,-0.027 0.015,-0.006 0.031,-0.01 0.048,-0.01 h 0.193 c 0.051,0 0.101,0.007 0.149,0.02 0.048,0.014 0.092,0.033 0.134,0.057 0.042,0.024 0.08,0.054 0.114,0.088 0.034,0.034 0.063,0.072 0.088,0.114 0.024,0.041 0.043,0.086 0.056,0.134 0.014,0.048 0.02,0.097 0.02,0.149 0,0.052 -0.006,0.101 -0.02,0.149 C 0.969,-0.154 0.95,-0.11 0.926,-0.068 0.901,-0.026 0.872,0.012 0.838,0.046 0.804,0.08 0.766,0.109 0.724,0.134 0.682,0.158 0.638,0.177 0.59,0.19 0.542,0.204 0.492,0.21 0.441,0.21 Z"
         style="fill-rule:nonzero"
         id="path9146" /><path
         d="m 0.441,-0.842 c 0.045,0 0.089,0.006 0.131,0.017 0.041,0.012 0.081,0.029 0.117,0.05 0.036,0.021 0.07,0.047 0.099,0.077 0.03,0.029 0.056,0.062 0.077,0.099 0.021,0.036 0.038,0.075 0.05,0.117 0.011,0.042 0.017,0.086 0.017,0.131 0,0.014 -0.001,0.027 -0.002,0.039 C 0.929,-0.3 0.927,-0.288 0.925,-0.277 0.922,-0.266 0.919,-0.254 0.916,-0.243 0.912,-0.231 0.909,-0.219 0.904,-0.206 0.899,-0.19 0.894,-0.174 0.889,-0.157 0.884,-0.141 0.878,-0.126 0.87,-0.111 0.848,-0.073 0.823,-0.038 0.792,-0.007 0.761,0.024 0.727,0.051 0.69,0.073 0.652,0.095 0.613,0.111 0.57,0.123 0.528,0.134 0.485,0.14 0.441,0.14 H 0.248 C 0.241,0.14 0.234,0.139 0.227,0.136 0.221,0.133 0.215,0.129 0.211,0.125 0.206,0.12 0.202,0.115 0.199,0.108 0.197,0.102 0.195,0.095 0.195,0.087 0.195,0.075 0.199,0.065 0.205,0.057 0.212,0.05 0.22,0.044 0.23,0.038 0.242,0.032 0.254,0.027 0.266,0.022 0.279,0.017 0.291,0.013 0.303,0.007 0.348,-0.012 0.387,-0.037 0.42,-0.066 0.453,-0.095 0.481,-0.132 0.503,-0.176 l 0.055,0.001 c 0.015,0 0.029,-0.001 0.042,-0.002 0.013,-0.002 0.025,-0.005 0.036,-0.01 C 0.647,-0.193 0.657,-0.2 0.666,-0.209 0.674,-0.218 0.681,-0.23 0.687,-0.246 H 0.531 C 0.534,-0.257 0.537,-0.269 0.539,-0.28 0.541,-0.292 0.543,-0.304 0.544,-0.316 H 0.423 C 0.416,-0.316 0.409,-0.317 0.403,-0.32 0.396,-0.323 0.391,-0.327 0.386,-0.331 0.381,-0.336 0.378,-0.342 0.375,-0.348 0.372,-0.354 0.371,-0.361 0.371,-0.369 c 0,-0.007 0.001,-0.014 0.004,-0.02 0.003,-0.006 0.006,-0.012 0.011,-0.017 0.005,-0.005 0.011,-0.008 0.017,-0.011 0.006,-0.003 0.013,-0.004 0.02,-0.004 H 0.54 C 0.533,-0.455 0.523,-0.486 0.51,-0.515 0.496,-0.545 0.479,-0.571 0.458,-0.595 0.438,-0.62 0.415,-0.641 0.389,-0.661 0.363,-0.68 0.334,-0.696 0.303,-0.709 0.291,-0.715 0.279,-0.72 0.267,-0.724 0.254,-0.729 0.242,-0.734 0.23,-0.74 0.22,-0.746 0.212,-0.752 0.205,-0.76 0.199,-0.767 0.195,-0.777 0.195,-0.79 c 0,-0.007 0.002,-0.014 0.004,-0.02 0.003,-0.007 0.007,-0.012 0.012,-0.017 0.004,-0.005 0.01,-0.008 0.016,-0.011 0.007,-0.003 0.014,-0.004 0.021,-0.004 z"
         style="fill:#ffc83d;fill-rule:nonzero"
         id="path9148" /><path
         d="m 0.607,-0.737 c 0.009,0 0.017,0.001 0.024,0.005 0.008,0.003 0.014,0.007 0.02,0.013 0.005,0.005 0.01,0.012 0.013,0.019 0.003,0.008 0.005,0.016 0.005,0.024 0,0.009 -0.002,0.017 -0.005,0.024 -0.003,0.008 -0.008,0.014 -0.013,0.02 -0.006,0.005 -0.012,0.01 -0.02,0.013 -0.007,0.003 -0.015,0.005 -0.024,0.005 -0.008,0 -0.016,-0.002 -0.024,-0.005 C 0.576,-0.622 0.569,-0.627 0.564,-0.632 0.558,-0.638 0.554,-0.644 0.551,-0.652 0.548,-0.659 0.546,-0.667 0.546,-0.676 c 0,-0.008 0.002,-0.016 0.005,-0.024 0.003,-0.007 0.007,-0.014 0.013,-0.019 0.005,-0.006 0.012,-0.01 0.019,-0.013 0.008,-0.004 0.016,-0.005 0.024,-0.005 z m -0.149,-0.07 c 0.008,0 0.014,0.001 0.021,0.004 0.006,0.003 0.012,0.007 0.017,0.011 0.004,0.005 0.008,0.011 0.011,0.017 0.003,0.006 0.004,0.013 0.004,0.02 0,0.007 -0.001,0.014 -0.004,0.02 -0.003,0.007 -0.007,0.012 -0.011,0.017 -0.005,0.005 -0.011,0.009 -0.017,0.012 -0.007,0.002 -0.013,0.004 -0.021,0.004 -0.007,0 -0.014,-0.002 -0.02,-0.004 C 0.431,-0.709 0.426,-0.713 0.421,-0.718 0.416,-0.722 0.413,-0.728 0.41,-0.734 0.407,-0.74 0.406,-0.747 0.406,-0.755 c 0,-0.007 10e-4,-0.014 0.004,-0.02 0.003,-0.007 0.007,-0.012 0.011,-0.017 0.005,-0.005 0.011,-0.008 0.017,-0.011 0.007,-0.003 0.013,-0.004 0.02,-0.004 z m 0.141,0.737 c 0.007,0 0.014,0.001 0.02,0.004 0.007,0.003 0.012,0.006 0.017,0.011 0.005,0.005 0.008,0.01 0.011,0.017 0.003,0.006 0.004,0.013 0.004,0.02 0,0.008 -0.001,0.014 -0.004,0.021 C 0.644,0.009 0.641,0.015 0.636,0.02 0.631,0.024 0.625,0.028 0.619,0.031 0.613,0.034 0.606,0.035 0.599,0.035 0.591,0.035 0.585,0.034 0.578,0.031 0.572,0.028 0.566,0.024 0.562,0.02 0.557,0.015 0.553,0.009 0.55,0.003 0.547,-0.004 0.546,-0.01 0.546,-0.018 0.546,-0.025 0.547,-0.031 0.55,-0.038 0.553,-0.044 0.557,-0.05 0.562,-0.055 0.566,-0.06 0.572,-0.063 0.578,-0.066 0.585,-0.069 0.591,-0.07 0.599,-0.07 Z m 0.298,-0.246 c 0.006,0 0.011,0.001 0.017,0.002 0.005,0.001 0.011,0.002 0.016,0.004 C 0.927,-0.275 0.921,-0.24 0.91,-0.207 0.9,-0.173 0.886,-0.141 0.869,-0.11 0.857,-0.113 0.847,-0.118 0.837,-0.124 0.828,-0.131 0.82,-0.138 0.813,-0.147 0.807,-0.156 0.801,-0.166 0.798,-0.177 0.794,-0.188 0.792,-0.199 0.792,-0.21 c 0,-0.015 0.003,-0.029 0.008,-0.041 0.006,-0.013 0.013,-0.024 0.023,-0.034 0.009,-0.01 0.02,-0.017 0.033,-0.023 0.013,-0.005 0.026,-0.008 0.041,-0.008 z"
         style="fill:#eba300;fill-rule:nonzero"
         id="path9150" /><path
         d="m 0.669,-0.562 c 0.007,0 0.014,0.002 0.02,0.005 0.007,0.002 0.013,0.006 0.017,0.011 0.005,0.005 0.009,0.01 0.012,0.017 0.002,0.006 0.004,0.013 0.004,0.02 v 0.07 c 0,0.008 -0.002,0.014 -0.004,0.021 -0.003,0.006 -0.007,0.012 -0.012,0.016 -0.004,0.005 -0.01,0.009 -0.017,0.012 -0.006,0.002 -0.013,0.004 -0.02,0.004 -0.008,0 -0.014,-0.002 -0.021,-0.004 C 0.642,-0.393 0.636,-0.397 0.632,-0.402 0.627,-0.406 0.623,-0.412 0.62,-0.418 0.618,-0.425 0.616,-0.431 0.616,-0.439 v -0.07 c 0,-0.007 0.002,-0.014 0.004,-0.02 0.003,-0.007 0.007,-0.012 0.012,-0.017 0.004,-0.005 0.01,-0.009 0.016,-0.011 0.007,-0.003 0.013,-0.005 0.021,-0.005 z"
         style="fill-rule:nonzero"
         id="path9152" /></g></g></svg>
