<?xml version="1.0" encoding="UTF-8" standalone="no"?>
<svg
   width="13.155"
   height="16.844999"
   viewBox="0 0 13.155 16.844999"
   version="1.1"
   xml:space="preserve"
   style="clip-rule:evenodd;fill-rule:evenodd;stroke-linejoin:round;stroke-miterlimit:2"
   id="svg20568"
   sodipodi:docname="emojis.svg"
   xmlns:inkscape="http://www.inkscape.org/namespaces/inkscape"
   xmlns:sodipodi="http://sodipodi.sourceforge.net/DTD/sodipodi-0.dtd"
   xmlns="http://www.w3.org/2000/svg"
   xmlns:svg="http://www.w3.org/2000/svg"><defs
     id="defs20572" /><sodipodi:namedview
     id="namedview20570"
     pagecolor="#505050"
     bordercolor="#eeeeee"
     borderopacity="1"
     inkscape:pageshadow="0"
     inkscape:pageopacity="0"
     inkscape:pagecheckerboard="0" /><g
     transform="matrix(0.24,0,0,0.24,-738.4734,-421.7322)"
     id="g20566"><g
       transform="matrix(62.5,0,0,62.5,3069.16,1814.28)"
       id="g9164"><path
         d="M 0.879,0.21 H 0.687 C 0.635,0.21 0.585,0.204 0.537,0.19 0.49,0.177 0.445,0.158 0.403,0.134 0.362,0.109 0.324,0.08 0.29,0.046 0.255,0.012 0.226,-0.026 0.202,-0.068 0.177,-0.11 0.158,-0.154 0.145,-0.202 0.132,-0.25 0.125,-0.3 0.125,-0.351 c 0,-0.052 0.007,-0.101 0.02,-0.149 0.013,-0.048 0.032,-0.093 0.057,-0.134 0.024,-0.042 0.053,-0.08 0.088,-0.114 0.034,-0.034 0.072,-0.064 0.113,-0.088 0.042,-0.024 0.087,-0.043 0.134,-0.057 0.048,-0.013 0.098,-0.02 0.15,-0.02 h 0.192 c 0.017,0 0.033,0.004 0.048,0.01 0.015,0.007 0.028,0.015 0.039,0.027 0.011,0.011 0.02,0.024 0.027,0.039 0.006,0.015 0.009,0.031 0.009,0.047 0,0.016 -0.002,0.03 -0.006,0.042 -0.004,0.012 -0.01,0.022 -0.017,0.031 -0.008,0.009 -0.016,0.017 -0.026,0.024 -0.01,0.007 -0.021,0.013 -0.032,0.019 -0.011,0.005 -0.023,0.01 -0.035,0.015 -0.012,0.005 -0.024,0.01 -0.036,0.015 -0.037,0.016 -0.069,0.036 -0.097,0.061 -0.028,0.025 -0.051,0.055 -0.068,0.092 h 0.019 c 0.017,0 0.033,0.003 0.048,0.009 0.015,0.007 0.028,0.015 0.039,0.026 0.011,0.012 0.02,0.025 0.026,0.039 0.006,0.015 0.01,0.031 0.01,0.048 0,0.017 -0.004,0.033 -0.01,0.048 -0.006,0.015 -0.015,0.028 -0.026,0.039 -0.011,0.011 -0.024,0.02 -0.039,0.027 -0.015,0.006 -0.031,0.009 -0.048,0.009 H 0.669 c 0.017,0.046 0.04,0.084 0.071,0.114 0.031,0.031 0.068,0.055 0.112,0.075 0.017,0.008 0.035,0.015 0.053,0.022 0.018,0.007 0.034,0.016 0.048,0.026 C 0.968,0.002 0.98,0.014 0.989,0.03 0.998,0.045 1.002,0.064 1.002,0.087 1.002,0.104 0.999,0.12 0.993,0.135 0.986,0.15 0.977,0.163 0.966,0.174 0.955,0.185 0.942,0.194 0.927,0.201 0.912,0.207 0.896,0.21 0.879,0.21 Z"
         style="fill-rule:nonzero"
         id="path9156" /><path
         d="m 0.687,-0.842 h 0.192 c 0.008,0 0.014,0.001 0.021,0.004 0.006,0.003 0.012,0.006 0.017,0.011 0.004,0.005 0.008,0.01 0.011,0.017 0.003,0.006 0.004,0.013 0.004,0.02 0,0.013 -0.003,0.024 -0.01,0.031 -0.006,0.007 -0.015,0.013 -0.025,0.019 -0.012,0.006 -0.024,0.011 -0.036,0.016 -0.013,0.004 -0.025,0.009 -0.037,0.015 -0.031,0.013 -0.059,0.029 -0.085,0.048 -0.027,0.02 -0.05,0.041 -0.07,0.066 -0.02,0.024 -0.037,0.05 -0.051,0.08 -0.014,0.029 -0.024,0.06 -0.03,0.094 h 0.116 c 0.007,0 0.014,0.001 0.02,0.004 0.007,0.003 0.012,0.006 0.017,0.011 0.005,0.005 0.009,0.011 0.012,0.017 0.002,0.006 0.004,0.013 0.004,0.02 0,0.008 -0.002,0.014 -0.004,0.021 -0.003,0.006 -0.007,0.012 -0.012,0.016 -0.005,0.005 -0.01,0.009 -0.017,0.012 -0.006,0.003 -0.013,0.004 -0.02,0.004 H 0.583 c 0.001,0.012 0.003,0.024 0.005,0.036 0.003,0.011 0.005,0.023 0.009,0.034 H 0.441 c 0.005,0.016 0.012,0.028 0.021,0.038 0.009,0.009 0.019,0.016 0.031,0.021 0.011,0.005 0.024,0.009 0.037,0.01 0.013,0.001 0.027,0.002 0.04,0.002 l 0.055,-0.001 c 0.022,0.044 0.049,0.081 0.082,0.111 0.033,0.029 0.072,0.053 0.117,0.072 0.012,0.006 0.025,0.01 0.037,0.015 0.013,0.005 0.025,0.01 0.036,0.016 0.01,0.006 0.019,0.012 0.025,0.019 0.007,0.007 0.01,0.017 0.01,0.03 0,0.008 -0.001,0.015 -0.004,0.021 C 0.925,0.115 0.921,0.12 0.917,0.125 0.912,0.129 0.906,0.133 0.9,0.136 0.893,0.139 0.887,0.14 0.879,0.14 H 0.687 C 0.642,0.14 0.599,0.134 0.557,0.123 0.515,0.111 0.475,0.095 0.438,0.073 0.4,0.051 0.366,0.024 0.336,-0.007 0.305,-0.038 0.279,-0.073 0.257,-0.111 0.249,-0.126 0.243,-0.141 0.238,-0.157 0.233,-0.174 0.228,-0.19 0.223,-0.206 0.218,-0.22 0.214,-0.233 0.211,-0.244 0.207,-0.255 0.204,-0.266 0.202,-0.277 0.2,-0.288 0.198,-0.299 0.197,-0.31 0.196,-0.322 0.195,-0.335 0.195,-0.351 c 0,-0.045 0.006,-0.089 0.018,-0.131 0.012,-0.042 0.028,-0.081 0.049,-0.117 0.022,-0.037 0.047,-0.07 0.077,-0.099 0.03,-0.03 0.063,-0.056 0.099,-0.077 0.037,-0.021 0.076,-0.038 0.118,-0.05 0.042,-0.011 0.085,-0.017 0.131,-0.017 z"
         style="fill:#ffc83d;fill-rule:nonzero"
         id="path9158" /><path
         d="m 0.52,-0.737 c 0.008,0 0.016,0.001 0.023,0.005 0.008,0.003 0.014,0.007 0.02,0.013 0.006,0.006 0.01,0.012 0.013,0.02 0.003,0.007 0.005,0.015 0.005,0.023 0,0.009 -0.001,0.017 -0.005,0.024 -0.003,0.008 -0.007,0.014 -0.013,0.02 -0.005,0.005 -0.012,0.01 -0.019,0.013 -0.008,0.003 -0.016,0.005 -0.024,0.005 -0.008,0 -0.016,-0.002 -0.024,-0.005 C 0.489,-0.622 0.482,-0.627 0.477,-0.632 0.471,-0.638 0.467,-0.644 0.463,-0.652 0.46,-0.659 0.458,-0.667 0.458,-0.676 0.458,-0.684 0.46,-0.692 0.463,-0.7 0.467,-0.707 0.471,-0.714 0.477,-0.719 0.482,-0.725 0.489,-0.729 0.496,-0.732 0.504,-0.736 0.512,-0.737 0.52,-0.737 Z m 0.149,-0.07 c 0.007,0 0.014,0.001 0.02,0.004 0.007,0.003 0.012,0.006 0.017,0.011 0.005,0.005 0.009,0.01 0.012,0.017 0.002,0.006 0.004,0.013 0.004,0.02 0,0.008 -0.002,0.015 -0.004,0.021 -0.003,0.006 -0.007,0.012 -0.012,0.016 -0.004,0.005 -0.01,0.009 -0.017,0.012 -0.006,0.002 -0.013,0.004 -0.02,0.004 -0.008,0 -0.014,-0.002 -0.021,-0.004 C 0.642,-0.709 0.636,-0.713 0.632,-0.718 0.627,-0.722 0.623,-0.728 0.62,-0.734 0.618,-0.74 0.616,-0.747 0.616,-0.755 c 0,-0.007 0.002,-0.014 0.004,-0.02 0.003,-0.007 0.007,-0.012 0.012,-0.017 0.005,-0.005 0.01,-0.008 0.017,-0.011 0.006,-0.003 0.013,-0.004 0.02,-0.004 z m -0.14,0.737 c 0.007,0 0.014,0.001 0.02,0.004 0.007,0.003 0.012,0.006 0.017,0.011 0.004,0.005 0.008,0.011 0.011,0.017 0.003,0.007 0.004,0.013 0.004,0.02 0,0.008 -0.001,0.014 -0.004,0.021 C 0.574,0.009 0.57,0.015 0.566,0.02 0.561,0.024 0.555,0.028 0.549,0.031 0.543,0.034 0.536,0.035 0.529,0.035 0.522,0.035 0.515,0.034 0.509,0.031 0.502,0.028 0.497,0.024 0.492,0.02 0.487,0.015 0.483,0.009 0.48,0.003 0.477,-0.004 0.476,-0.01 0.476,-0.018 0.476,-0.025 0.477,-0.032 0.48,-0.038 0.483,-0.045 0.487,-0.05 0.491,-0.055 0.496,-0.06 0.502,-0.063 0.508,-0.066 0.514,-0.069 0.521,-0.07 0.529,-0.07 Z M 0.23,-0.316 c 0.015,0 0.029,0.003 0.041,0.008 0.013,0.006 0.024,0.013 0.034,0.023 0.009,0.01 0.017,0.021 0.022,0.034 0.006,0.012 0.008,0.026 0.008,0.041 0,0.011 -0.001,0.022 -0.005,0.033 -0.004,0.011 -0.009,0.021 -0.016,0.03 C 0.308,-0.138 0.299,-0.131 0.29,-0.124 0.281,-0.118 0.27,-0.113 0.259,-0.11 0.241,-0.14 0.227,-0.173 0.217,-0.206 0.207,-0.24 0.2,-0.275 0.197,-0.31 0.203,-0.312 0.208,-0.313 0.214,-0.314 0.219,-0.315 0.225,-0.316 0.23,-0.316 Z"
         style="fill:#eba300;fill-rule:nonzero"
         id="path9160" /><path
         d="m 0.458,-0.562 c 0.008,0 0.014,0.002 0.021,0.005 0.006,0.002 0.012,0.006 0.017,0.011 0.004,0.005 0.008,0.011 0.011,0.017 0.003,0.006 0.004,0.013 0.004,0.02 v 0.07 c 0,0.007 -0.001,0.014 -0.004,0.02 C 0.504,-0.412 0.5,-0.407 0.496,-0.402 0.491,-0.397 0.485,-0.393 0.479,-0.39 0.472,-0.388 0.466,-0.386 0.458,-0.386 0.451,-0.386 0.444,-0.388 0.438,-0.39 0.431,-0.393 0.426,-0.397 0.421,-0.402 0.416,-0.406 0.413,-0.412 0.41,-0.418 0.407,-0.425 0.406,-0.431 0.406,-0.439 v -0.07 c 0,-0.007 10e-4,-0.014 0.004,-0.02 0.003,-0.007 0.006,-0.012 0.011,-0.017 0.005,-0.005 0.01,-0.009 0.017,-0.011 0.006,-0.003 0.013,-0.005 0.02,-0.005 z"
         style="fill-rule:nonzero"
         id="path9162" /></g></g></svg>
