<?xml version="1.0" encoding="UTF-8" standalone="no"?>
<svg
   width="16.844999"
   height="16.844999"
   viewBox="0 0 16.844999 16.844999"
   version="1.1"
   xml:space="preserve"
   style="clip-rule:evenodd;fill-rule:evenodd;stroke-linejoin:round;stroke-miterlimit:2"
   id="svg20568"
   sodipodi:docname="emojis.svg"
   xmlns:inkscape="http://www.inkscape.org/namespaces/inkscape"
   xmlns:sodipodi="http://sodipodi.sourceforge.net/DTD/sodipodi-0.dtd"
   xmlns="http://www.w3.org/2000/svg"
   xmlns:svg="http://www.w3.org/2000/svg"><defs
     id="defs20572" /><sodipodi:namedview
     id="namedview20570"
     pagecolor="#505050"
     bordercolor="#eeeeee"
     borderopacity="1"
     inkscape:pageshadow="0"
     inkscape:pageopacity="0"
     inkscape:pagecheckerboard="0" /><g
     transform="matrix(0.24,0,0,0.24,-775.9806,-421.7322)"
     id="g20566"><g
       transform="matrix(62.5,0,0,62.5,3225.44,1814.28)"
       id="g9184"><path
         d="m 1.248,-0.351 c 0,0.052 -0.007,0.101 -0.02,0.149 C 1.215,-0.154 1.196,-0.109 1.171,-0.068 1.147,-0.026 1.118,0.012 1.083,0.046 1.049,0.08 1.011,0.109 0.97,0.134 0.928,0.158 0.884,0.177 0.836,0.19 0.788,0.204 0.738,0.21 0.687,0.21 0.635,0.21 0.585,0.204 0.537,0.19 0.489,0.177 0.445,0.158 0.403,0.134 0.362,0.109 0.324,0.08 0.29,0.046 0.255,0.012 0.226,-0.026 0.202,-0.068 0.177,-0.109 0.158,-0.154 0.145,-0.202 0.132,-0.25 0.125,-0.299 0.125,-0.351 c 0,-0.052 0.007,-0.102 0.02,-0.149 0.013,-0.048 0.032,-0.093 0.057,-0.135 0.024,-0.041 0.053,-0.079 0.088,-0.113 0.034,-0.034 0.072,-0.064 0.113,-0.088 0.042,-0.024 0.086,-0.043 0.134,-0.057 0.048,-0.013 0.098,-0.02 0.15,-0.02 0.051,0 0.101,0.007 0.149,0.02 0.048,0.014 0.092,0.033 0.134,0.057 0.041,0.024 0.079,0.054 0.113,0.088 0.035,0.034 0.064,0.072 0.088,0.113 0.025,0.042 0.044,0.087 0.057,0.135 0.013,0.047 0.02,0.097 0.02,0.149 z"
         style="fill-rule:nonzero"
         id="path9174" /><path
         d="M 0.687,0.14 C 0.667,0.14 0.649,0.139 0.631,0.137 0.614,0.135 0.597,0.132 0.58,0.128 0.563,0.125 0.546,0.12 0.529,0.114 0.512,0.108 0.495,0.101 0.478,0.094 L 0.474,0.092 C 0.465,0.087 0.457,0.082 0.449,0.076 0.441,0.07 0.432,0.065 0.424,0.059 0.415,0.054 0.407,0.049 0.398,0.044 0.39,0.039 0.381,0.034 0.374,0.028 0.352,0.011 0.332,-0.007 0.314,-0.028 0.296,-0.049 0.281,-0.071 0.267,-0.095 0.253,-0.119 0.241,-0.144 0.23,-0.169 0.22,-0.195 0.212,-0.221 0.206,-0.247 0.205,-0.249 0.205,-0.25 0.205,-0.251 0.203,-0.268 0.201,-0.285 0.2,-0.301 0.199,-0.318 0.198,-0.335 0.198,-0.352 0.198,-0.368 0.199,-0.384 0.199,-0.4 0.2,-0.416 0.202,-0.432 0.205,-0.448 0.21,-0.474 0.217,-0.501 0.228,-0.527 0.238,-0.554 0.25,-0.579 0.264,-0.603 0.278,-0.627 0.295,-0.65 0.313,-0.671 c 0.018,-0.021 0.038,-0.041 0.06,-0.058 0.008,-0.007 0.017,-0.012 0.026,-0.018 0.009,-0.005 0.018,-0.01 0.026,-0.016 0.008,-0.005 0.016,-0.01 0.024,-0.016 0.008,-0.005 0.016,-0.01 0.025,-0.015 0.014,-0.008 0.03,-0.015 0.047,-0.021 0.018,-0.006 0.037,-0.011 0.056,-0.015 0.019,-0.004 0.038,-0.007 0.057,-0.009 0.019,-0.002 0.037,-0.003 0.053,-0.003 0.028,0 0.057,0.002 0.087,0.007 0.03,0.005 0.058,0.012 0.085,0.023 0.016,0.007 0.031,0.016 0.046,0.026 0.014,0.011 0.029,0.021 0.043,0.031 0.014,0.008 0.028,0.017 0.042,0.025 0.013,0.008 0.027,0.017 0.039,0.027 l 0.002,0.001 c 0.039,0.042 0.072,0.087 0.096,0.135 0.025,0.048 0.041,0.101 0.047,0.158 0.001,0.009 0.002,0.018 0.002,0.026 l -10e-4,0.058 c 0,0.031 -0.003,0.061 -0.01,0.091 -0.008,0.029 -0.018,0.058 -0.03,0.085 C 1.122,-0.121 1.106,-0.095 1.089,-0.07 1.071,-0.045 1.051,-0.022 1.03,0 L 1.028,0.002 C 1.017,0.012 1.004,0.022 0.991,0.031 0.977,0.041 0.964,0.051 0.949,0.06 0.935,0.069 0.92,0.078 0.906,0.086 0.891,0.094 0.877,0.101 0.863,0.107 0.852,0.113 0.839,0.117 0.824,0.121 0.809,0.125 0.793,0.129 0.777,0.132 0.761,0.134 0.745,0.136 0.729,0.138 0.713,0.139 0.699,0.14 0.687,0.14 Z"
         style="fill:#ffc83d;fill-rule:nonzero"
         id="path9176" /><path
         d="m 0.616,-0.351 h 0.141 c 0,0.01 -0.002,0.019 -0.006,0.027 -0.004,0.009 -0.009,0.016 -0.015,0.022 -0.006,0.007 -0.014,0.012 -0.022,0.016 -0.009,0.003 -0.018,0.005 -0.027,0.005 -0.01,0 -0.019,-0.002 -0.028,-0.005 C 0.651,-0.29 0.643,-0.295 0.637,-0.302 0.631,-0.308 0.626,-0.315 0.622,-0.324 0.618,-0.332 0.616,-0.341 0.616,-0.351 Z"
         style="fill:#d48c00;fill-rule:nonzero"
         id="path9178" /><path
         d="m 0.441,-0.035 c 0.01,0 0.019,0.002 0.027,0.005 0.009,0.004 0.016,0.009 0.022,0.016 0.007,0.006 0.012,0.013 0.016,0.022 0.003,0.008 0.005,0.017 0.005,0.027 0,0.012 -0.003,0.023 -0.009,0.033 C 0.496,0.079 0.488,0.087 0.479,0.094 0.459,0.086 0.44,0.076 0.422,0.065 0.404,0.053 0.387,0.041 0.372,0.026 0.373,0.017 0.375,0.009 0.379,0.002 0.383,-0.006 0.388,-0.012 0.395,-0.018 0.401,-0.023 0.408,-0.027 0.416,-0.031 0.424,-0.034 0.432,-0.035 0.441,-0.035 Z M 0.932,-0.07 c 0.011,0 0.022,0.001 0.032,0.005 0.01,0.003 0.02,0.008 0.028,0.014 0.009,0.006 0.016,0.013 0.023,0.022 0.007,0.009 0.012,0.018 0.016,0.028 C 1.007,0.025 0.981,0.047 0.951,0.065 0.922,0.084 0.891,0.098 0.857,0.109 0.848,0.099 0.84,0.088 0.835,0.075 0.829,0.062 0.827,0.049 0.827,0.035 0.827,0.021 0.829,0.007 0.835,-0.006 0.84,-0.019 0.848,-0.03 0.858,-0.039 0.867,-0.049 0.878,-0.056 0.891,-0.062 0.904,-0.068 0.917,-0.07 0.932,-0.07 Z m 0.242,-0.34 c 0.001,0.01 0.003,0.021 0.004,0.031 0.001,0.011 0.001,0.021 0.001,0.032 0,0.01 0,0.021 -0.002,0.031 -0.001,0.011 -0.002,0.021 -0.004,0.032 -0.005,0.002 -0.01,0.004 -0.015,0.005 -0.005,0.001 -0.01,0.002 -0.015,0.002 -0.01,0 -0.019,-0.002 -0.028,-0.005 C 1.107,-0.286 1.099,-0.291 1.093,-0.298 1.087,-0.304 1.082,-0.311 1.078,-0.32 1.075,-0.328 1.073,-0.337 1.073,-0.347 c 0,-0.01 0.002,-0.019 0.005,-0.028 0.004,-0.008 0.009,-0.015 0.015,-0.022 0.006,-0.006 0.014,-0.011 0.022,-0.015 0.009,-0.004 0.018,-0.005 0.028,-0.005 0.005,0 0.01,0 0.016,0.001 0.005,0.002 0.01,0.004 0.015,0.006 z M 0.23,-0.453 c 0.015,0 0.029,0.003 0.041,0.009 0.013,0.005 0.024,0.013 0.034,0.022 0.009,0.01 0.017,0.021 0.022,0.034 0.006,0.013 0.008,0.026 0.008,0.041 0,0.014 -0.002,0.028 -0.008,0.041 -0.005,0.013 -0.013,0.024 -0.022,0.033 -0.01,0.01 -0.021,0.017 -0.034,0.023 -0.012,0.006 -0.026,0.008 -0.041,0.008 -0.004,0 -0.008,0 -0.012,-0.001 -0.004,0 -0.008,-0.001 -0.012,-0.002 C 0.202,-0.262 0.199,-0.279 0.196,-0.296 0.193,-0.312 0.191,-0.33 0.191,-0.347 c 0,-0.018 0.002,-0.035 0.005,-0.052 0.003,-0.016 0.006,-0.033 0.01,-0.05 0.004,-0.001 0.008,-0.002 0.012,-0.003 0.004,0 0.008,-0.001 0.012,-0.001 z m 0.597,-0.284 c 0,-0.014 0.002,-0.027 0.008,-0.04 0.005,-0.013 0.013,-0.024 0.022,-0.034 0.018,0.006 0.034,0.013 0.049,0.021 0.016,0.007 0.03,0.015 0.044,0.024 0.014,0.009 0.028,0.018 0.041,0.029 0.013,0.011 0.026,0.023 0.04,0.036 -0.004,0.01 -0.009,0.02 -0.016,0.028 -0.007,0.009 -0.014,0.016 -0.023,0.022 -0.008,0.006 -0.018,0.011 -0.028,0.014 -0.01,0.004 -0.021,0.005 -0.032,0.005 -0.015,0 -0.028,-0.003 -0.041,-0.008 C 0.878,-0.646 0.867,-0.653 0.858,-0.663 0.848,-0.672 0.84,-0.684 0.835,-0.696 0.829,-0.709 0.827,-0.723 0.827,-0.737 Z M 0.479,-0.796 c 0.009,0.007 0.017,0.015 0.023,0.025 0.006,0.011 0.009,0.022 0.009,0.034 0,0.009 -0.002,0.019 -0.005,0.027 C 0.502,-0.701 0.497,-0.694 0.49,-0.688 0.484,-0.681 0.477,-0.676 0.468,-0.673 0.46,-0.669 0.451,-0.667 0.441,-0.667 0.432,-0.667 0.424,-0.669 0.416,-0.672 0.408,-0.675 0.401,-0.679 0.395,-0.684 0.388,-0.69 0.383,-0.696 0.379,-0.704 0.375,-0.711 0.373,-0.719 0.372,-0.728 0.388,-0.742 0.405,-0.754 0.423,-0.766 0.441,-0.777 0.459,-0.787 0.479,-0.796 Z"
         style="fill:#eba300;fill-rule:nonzero"
         id="path9180" /><path
         d="M 0.494,-0.386 C 0.486,-0.386 0.479,-0.388 0.473,-0.39 0.467,-0.393 0.461,-0.397 0.456,-0.402 0.452,-0.406 0.448,-0.412 0.445,-0.418 0.442,-0.425 0.441,-0.431 0.441,-0.439 v -0.07 c 0,-0.007 0.001,-0.014 0.004,-0.02 0.003,-0.007 0.007,-0.012 0.011,-0.017 0.005,-0.005 0.011,-0.009 0.017,-0.011 0.006,-0.003 0.013,-0.005 0.021,-0.005 0.007,0 0.014,0.002 0.02,0.005 0.006,0.002 0.012,0.006 0.017,0.011 0.005,0.005 0.008,0.011 0.011,0.017 0.003,0.006 0.004,0.013 0.004,0.02 v 0.07 c 0,0.007 -0.001,0.014 -0.004,0.02 -0.003,0.007 -0.006,0.012 -0.011,0.017 -0.005,0.005 -0.011,0.009 -0.017,0.012 -0.006,0.002 -0.013,0.004 -0.02,0.004 z m 0.385,-0.176 c 0.008,0 0.014,0.002 0.021,0.005 0.006,0.002 0.012,0.006 0.017,0.011 0.004,0.005 0.008,0.01 0.011,0.017 0.003,0.006 0.004,0.013 0.004,0.02 v 0.07 c 0,0.008 -0.001,0.014 -0.004,0.021 C 0.925,-0.412 0.921,-0.406 0.917,-0.402 0.912,-0.397 0.906,-0.393 0.9,-0.39 0.893,-0.388 0.887,-0.386 0.879,-0.386 0.872,-0.386 0.865,-0.388 0.859,-0.39 0.852,-0.393 0.847,-0.397 0.842,-0.402 0.838,-0.407 0.834,-0.412 0.831,-0.419 0.829,-0.425 0.827,-0.432 0.827,-0.439 v -0.07 c 0,-0.007 0.002,-0.014 0.004,-0.02 0.003,-0.006 0.007,-0.012 0.011,-0.017 0.005,-0.005 0.01,-0.009 0.017,-0.011 0.006,-0.003 0.013,-0.005 0.02,-0.005 z m -0.192,0.421 c 0.027,0 0.054,-0.003 0.081,-0.01 0.027,-0.007 0.052,-0.017 0.075,-0.031 L 0.869,-0.2 c 0.005,-0.003 0.01,-0.006 0.015,-0.008 0.004,-0.002 0.009,-0.003 0.013,-0.003 0.01,0 0.018,0.003 0.025,0.01 0.007,0.007 0.01,0.015 0.01,0.025 0,0.006 -0.001,0.012 -0.004,0.016 -0.002,0.004 -0.005,0.008 -0.01,0.013 -0.014,0.012 -0.03,0.023 -0.049,0.033 C 0.85,-0.104 0.83,-0.096 0.809,-0.09 0.788,-0.083 0.767,-0.078 0.746,-0.075 0.725,-0.072 0.705,-0.07 0.687,-0.07 0.668,-0.07 0.649,-0.072 0.627,-0.075 0.606,-0.078 0.585,-0.083 0.564,-0.09 0.543,-0.096 0.523,-0.104 0.504,-0.114 0.485,-0.124 0.469,-0.135 0.455,-0.147 0.451,-0.152 0.447,-0.156 0.445,-0.16 0.442,-0.164 0.441,-0.17 0.441,-0.176 c 0,-0.009 0.003,-0.017 0.01,-0.024 0.007,-0.007 0.016,-0.01 0.025,-0.01 0.004,0 0.009,0.001 0.014,0.003 0.004,0.002 0.009,0.004 0.014,0.007 0.004,0.003 0.009,0.006 0.014,0.01 0.004,0.003 0.008,0.006 0.012,0.008 0.023,0.014 0.048,0.024 0.075,0.031 0.027,0.007 0.054,0.01 0.082,0.01 z"
         style="fill-rule:nonzero"
         id="path9182" /></g></g></svg>
