<?xml version="1.0" encoding="UTF-8" standalone="no"?>
<svg
   width="16.844999"
   height="16.844999"
   viewBox="0 0 16.844999 16.844999"
   version="1.1"
   xml:space="preserve"
   style="clip-rule:evenodd;fill-rule:evenodd;stroke-linejoin:round;stroke-miterlimit:2"
   id="svg20568"
   sodipodi:docname="emojis.svg"
   xmlns:inkscape="http://www.inkscape.org/namespaces/inkscape"
   xmlns:sodipodi="http://sodipodi.sourceforge.net/DTD/sodipodi-0.dtd"
   xmlns="http://www.w3.org/2000/svg"
   xmlns:svg="http://www.w3.org/2000/svg"><defs
     id="defs20572" /><sodipodi:namedview
     id="namedview20570"
     pagecolor="#505050"
     bordercolor="#eeeeee"
     borderopacity="1"
     inkscape:pageshadow="0"
     inkscape:pageopacity="0"
     inkscape:pagecheckerboard="0" /><g
     transform="matrix(0.24,0,0,0.24,-13.213584,-438.7026)"
     id="g20566"><g
       transform="matrix(62.5,0,0,62.5,47.2441,1884.99)"
       id="g9196"><path
         d="m 1.136,-0.351 0.088,0.078 c 0.008,0.007 0.013,0.014 0.018,0.024 0.004,0.009 0.006,0.019 0.006,0.029 0,0.017 -0.005,0.032 -0.016,0.045 -0.01,0.013 -0.024,0.022 -0.041,0.025 l -0.115,0.024 0.037,0.111 c 0.002,0.008 0.004,0.016 0.004,0.023 0,0.01 -0.002,0.019 -0.006,0.028 C 1.107,0.044 1.102,0.052 1.096,0.058 1.089,0.065 1.082,0.07 1.073,0.073 1.065,0.077 1.056,0.079 1.046,0.079 1.038,0.079 1.031,0.078 1.023,0.075 L 0.911,0.038 0.888,0.154 C 0.886,0.162 0.883,0.17 0.879,0.177 0.874,0.184 0.869,0.19 0.863,0.195 0.856,0.2 0.849,0.204 0.842,0.206 0.834,0.209 0.826,0.21 0.817,0.21 0.807,0.21 0.798,0.208 0.788,0.204 0.779,0.2 0.771,0.194 0.765,0.187 L 0.687,0.098 0.608,0.187 C 0.602,0.194 0.594,0.2 0.585,0.204 0.575,0.208 0.566,0.21 0.556,0.21 0.538,0.21 0.523,0.205 0.51,0.195 0.497,0.184 0.489,0.17 0.485,0.154 L 0.462,0.038 0.35,0.075 C 0.342,0.078 0.335,0.079 0.327,0.079 0.317,0.079 0.308,0.077 0.3,0.073 0.291,0.07 0.284,0.065 0.277,0.058 0.271,0.052 0.266,0.044 0.262,0.036 0.258,0.027 0.256,0.018 0.256,0.008 0.256,0.001 0.258,-0.007 0.26,-0.015 L 0.297,-0.126 0.182,-0.15 C 0.165,-0.153 0.151,-0.162 0.141,-0.175 0.13,-0.188 0.125,-0.203 0.125,-0.22 c 0,-0.01 0.002,-0.02 0.006,-0.029 0.005,-0.01 0.01,-0.017 0.018,-0.024 L 0.237,-0.351 0.149,-0.429 C 0.141,-0.436 0.136,-0.444 0.131,-0.453 0.127,-0.462 0.125,-0.472 0.125,-0.482 c 0,-0.017 0.005,-0.032 0.016,-0.045 0.01,-0.013 0.024,-0.022 0.041,-0.025 L 0.297,-0.576 0.26,-0.687 C 0.258,-0.695 0.256,-0.703 0.256,-0.71 c 0,-0.01 0.002,-0.019 0.006,-0.028 0.004,-0.008 0.009,-0.016 0.015,-0.022 0.007,-0.007 0.014,-0.012 0.023,-0.016 0.008,-0.003 0.017,-0.005 0.027,-0.005 0.008,0 0.015,0.001 0.023,0.004 l 0.112,0.037 0.023,-0.116 c 0.004,-0.017 0.012,-0.03 0.025,-0.041 0.013,-0.01 0.028,-0.016 0.046,-0.016 0.01,0 0.019,0.003 0.029,0.007 0.009,0.004 0.017,0.01 0.023,0.017 L 0.687,-0.8 0.765,-0.889 c 0.006,-0.007 0.014,-0.013 0.023,-0.017 0.01,-0.004 0.019,-0.007 0.029,-0.007 0.009,0 0.017,0.002 0.025,0.005 0.007,0.002 0.014,0.006 0.021,0.011 0.006,0.005 0.011,0.011 0.016,0.018 0.004,0.007 0.007,0.015 0.009,0.023 l 0.023,0.116 0.112,-0.037 c 0.008,-0.003 0.015,-0.004 0.023,-0.004 0.01,0 0.019,0.002 0.027,0.005 0.009,0.004 0.016,0.009 0.023,0.016 0.006,0.006 0.011,0.014 0.015,0.022 0.004,0.009 0.006,0.018 0.006,0.028 0,0.007 -0.002,0.015 -0.004,0.023 l -0.037,0.111 0.115,0.024 c 0.017,0.003 0.031,0.012 0.041,0.025 0.011,0.013 0.016,0.028 0.016,0.045 0,0.01 -0.002,0.02 -0.006,0.029 -0.005,0.009 -0.01,0.017 -0.018,0.024 z"
         style="fill-rule:nonzero"
         id="path9186" /><path
         d="M 1.029,-0.351 1.178,-0.219 0.983,-0.18 1.046,0.009 0.858,-0.054 0.818,0.14 0.687,-0.008 0.555,0.14 0.515,-0.054 0.327,0.009 0.39,-0.18 0.195,-0.219 0.344,-0.351 0.195,-0.483 0.39,-0.522 0.327,-0.711 l 0.188,0.063 0.04,-0.194 0.132,0.148 0.131,-0.148 0.04,0.194 0.188,-0.063 -0.063,0.189 0.195,0.039 z"
         style="fill:#ffb900;fill-rule:nonzero"
         id="path9188" /><path
         d="m 1.002,-0.351 c 0,0.029 -0.003,0.057 -0.011,0.084 -0.007,0.027 -0.018,0.052 -0.032,0.075 -0.014,0.024 -0.03,0.045 -0.049,0.064 -0.02,0.019 -0.041,0.036 -0.064,0.05 -0.023,0.013 -0.048,0.024 -0.075,0.032 -0.028,0.007 -0.056,0.011 -0.084,0.011 -0.029,0 -0.057,-0.004 -0.084,-0.011 C 0.576,-0.054 0.55,-0.065 0.527,-0.078 0.504,-0.092 0.483,-0.109 0.463,-0.128 0.444,-0.147 0.428,-0.168 0.414,-0.192 0.4,-0.215 0.389,-0.24 0.382,-0.267 0.374,-0.294 0.371,-0.322 0.371,-0.351 c 0,-0.029 0.003,-0.057 0.011,-0.084 0.007,-0.027 0.018,-0.052 0.032,-0.075 0.014,-0.024 0.03,-0.045 0.049,-0.064 0.02,-0.019 0.041,-0.036 0.064,-0.05 0.023,-0.014 0.049,-0.024 0.076,-0.032 0.027,-0.007 0.055,-0.011 0.084,-0.011 0.028,0 0.056,0.004 0.084,0.011 0.027,0.008 0.052,0.018 0.075,0.032 0.023,0.014 0.044,0.031 0.064,0.05 0.019,0.019 0.035,0.04 0.049,0.064 0.014,0.023 0.025,0.048 0.032,0.075 0.008,0.027 0.011,0.055 0.011,0.084 z"
         style="fill:#fce100;fill-rule:nonzero"
         id="path9190" /><path
         d="M 0.687,-0.105 C 0.664,-0.105 0.642,-0.109 0.62,-0.116 0.597,-0.123 0.578,-0.134 0.56,-0.147 0.556,-0.151 0.552,-0.155 0.55,-0.16 0.547,-0.165 0.546,-0.17 0.546,-0.175 c 0,-0.01 0.003,-0.018 0.01,-0.025 0.007,-0.007 0.016,-0.01 0.026,-0.01 0.007,0 0.014,0.002 0.02,0.006 0.026,0.019 0.054,0.028 0.085,0.028 0.015,0 0.03,-0.003 0.044,-0.007 0.013,-0.005 0.026,-0.011 0.04,-0.021 0.006,-0.004 0.013,-0.006 0.021,-0.006 0.009,0 0.018,0.003 0.024,0.01 0.007,0.006 0.011,0.014 0.011,0.024 0,0.012 -0.005,0.021 -0.014,0.029 -0.018,0.013 -0.038,0.024 -0.06,0.031 -0.022,0.007 -0.044,0.011 -0.066,0.011 z M 0.529,-0.351 C 0.521,-0.351 0.514,-0.352 0.508,-0.355 0.502,-0.358 0.496,-0.362 0.491,-0.366 0.487,-0.371 0.483,-0.377 0.48,-0.383 0.477,-0.389 0.476,-0.396 0.476,-0.404 v -0.035 c 0,-0.007 0.001,-0.014 0.004,-0.02 0.003,-0.007 0.007,-0.013 0.012,-0.017 0.005,-0.005 0.01,-0.008 0.017,-0.011 0.006,-0.003 0.013,-0.004 0.02,-0.004 0.007,0 0.014,0.001 0.02,0.004 0.006,0.003 0.012,0.006 0.017,0.011 0.004,0.005 0.008,0.01 0.011,0.017 0.003,0.006 0.004,0.013 0.004,0.02 v 0.035 c 0,0.007 -0.001,0.014 -0.004,0.02 -0.003,0.007 -0.007,0.012 -0.011,0.017 -0.005,0.005 -0.01,0.009 -0.017,0.012 -0.006,0.003 -0.013,0.004 -0.02,0.004 z m 0.315,0 C 0.837,-0.351 0.83,-0.352 0.823,-0.355 0.817,-0.358 0.812,-0.362 0.807,-0.367 0.803,-0.372 0.799,-0.377 0.796,-0.384 0.793,-0.39 0.792,-0.397 0.792,-0.404 v -0.035 c 0,-0.007 0.001,-0.014 0.004,-0.02 0.003,-0.007 0.007,-0.012 0.011,-0.017 0.005,-0.005 0.011,-0.008 0.017,-0.011 0.006,-0.003 0.013,-0.004 0.02,-0.004 0.007,0 0.014,0.001 0.021,0.004 0.006,0.003 0.011,0.006 0.016,0.011 0.005,0.004 0.009,0.01 0.012,0.017 0.003,0.006 0.004,0.013 0.004,0.02 v 0.035 c 0,0.008 -0.001,0.015 -0.004,0.021 -0.003,0.006 -0.007,0.012 -0.011,0.017 -0.005,0.004 -0.011,0.008 -0.017,0.011 -0.007,0.003 -0.014,0.004 -0.021,0.004 z"
         style="fill-rule:nonzero"
         id="path9192" /><path
         d="m 0.616,-0.351 h 0.141 c 0,0.01 -0.002,0.019 -0.006,0.028 C 0.747,-0.315 0.742,-0.307 0.736,-0.301 0.73,-0.295 0.722,-0.29 0.714,-0.286 0.705,-0.282 0.696,-0.28 0.687,-0.28 0.677,-0.28 0.668,-0.282 0.659,-0.286 0.651,-0.29 0.643,-0.295 0.637,-0.301 0.631,-0.307 0.626,-0.315 0.622,-0.323 0.618,-0.332 0.616,-0.341 0.616,-0.351 Z"
         style="fill:#ffb900;fill-rule:nonzero"
         id="path9194" /></g></g></svg>
