<?xml version="1.0" encoding="UTF-8" standalone="no"?>
<svg
   width="16.844999"
   height="10.53"
   viewBox="0 0 16.844999 10.53"
   version="1.1"
   xml:space="preserve"
   style="clip-rule:evenodd;fill-rule:evenodd;stroke-linejoin:round;stroke-miterlimit:2"
   id="svg20568"
   sodipodi:docname="emojis.svg"
   xmlns:inkscape="http://www.inkscape.org/namespaces/inkscape"
   xmlns:sodipodi="http://sodipodi.sourceforge.net/DTD/sodipodi-0.dtd"
   xmlns="http://www.w3.org/2000/svg"
   xmlns:svg="http://www.w3.org/2000/svg"><defs
     id="defs20572" /><sodipodi:namedview
     id="namedview20570"
     pagecolor="#505050"
     bordercolor="#eeeeee"
     borderopacity="1"
     inkscape:pageshadow="0"
     inkscape:pageopacity="0"
     inkscape:pagecheckerboard="0" /><g
     transform="matrix(0.24,0,0,0.24,-33.8094,-441.8676)"
     id="g20566"><g
       transform="matrix(62.5,0,0,62.5,133.06,1884.99)"
       id="g9206"><path
         d="M 0.687,0 C 0.646,0 0.607,-0.007 0.569,-0.02 0.532,-0.033 0.497,-0.053 0.466,-0.078 0.45,-0.073 0.433,-0.068 0.415,-0.063 0.397,-0.058 0.378,-0.053 0.36,-0.049 0.341,-0.045 0.322,-0.042 0.304,-0.039 0.285,-0.036 0.268,-0.035 0.251,-0.035 0.235,-0.035 0.22,-0.037 0.205,-0.041 0.19,-0.045 0.176,-0.05 0.164,-0.058 0.152,-0.066 0.143,-0.077 0.136,-0.089 0.129,-0.102 0.125,-0.117 0.125,-0.135 c 0,-0.015 0.004,-0.03 0.011,-0.044 0.008,-0.015 0.018,-0.03 0.03,-0.044 C 0.178,-0.238 0.192,-0.252 0.207,-0.265 0.222,-0.278 0.238,-0.291 0.253,-0.303 0.269,-0.314 0.284,-0.325 0.299,-0.335 0.313,-0.344 0.326,-0.352 0.336,-0.359 0.337,-0.39 0.341,-0.421 0.35,-0.45 0.359,-0.479 0.371,-0.507 0.386,-0.532 0.402,-0.558 0.42,-0.581 0.441,-0.602 0.463,-0.623 0.486,-0.641 0.512,-0.656 0.538,-0.67 0.566,-0.682 0.595,-0.69 c 0.029,-0.008 0.06,-0.012 0.092,-0.012 0.04,0 0.078,0.007 0.116,0.02 0.038,0.014 0.072,0.033 0.104,0.058 0.016,-0.005 0.033,-0.01 0.051,-0.015 0.018,-0.005 0.036,-0.01 0.055,-0.014 0.019,-0.004 0.038,-0.007 0.056,-0.01 0.019,-0.003 0.036,-0.004 0.053,-0.004 0.016,0 0.032,0.002 0.047,0.006 0.015,0.003 0.028,0.009 0.04,0.017 0.012,0.009 0.021,0.019 0.028,0.032 0.007,0.012 0.011,0.028 0.011,0.046 0,0.014 -0.004,0.029 -0.011,0.044 -0.008,0.015 -0.018,0.029 -0.03,0.043 C 1.195,-0.464 1.181,-0.45 1.166,-0.437 1.151,-0.424 1.135,-0.411 1.12,-0.399 1.104,-0.388 1.089,-0.377 1.074,-0.367 1.06,-0.358 1.048,-0.35 1.037,-0.343 1.036,-0.312 1.032,-0.281 1.023,-0.252 1.014,-0.223 1.002,-0.195 0.987,-0.17 0.971,-0.145 0.953,-0.121 0.932,-0.101 0.91,-0.08 0.887,-0.062 0.861,-0.047 0.835,-0.032 0.808,-0.02 0.778,-0.012 0.749,-0.004 0.718,0 0.687,0 Z"
         style="fill-rule:nonzero"
         id="path9198" /><path
         d="M 0.962,-0.298 C 0.956,-0.265 0.944,-0.235 0.927,-0.207 0.911,-0.179 0.89,-0.155 0.865,-0.135 0.841,-0.115 0.813,-0.099 0.783,-0.087 0.752,-0.076 0.72,-0.07 0.687,-0.07 0.662,-0.07 0.639,-0.073 0.615,-0.08 0.592,-0.086 0.57,-0.095 0.549,-0.106 L 0.415,-0.278 C 0.414,-0.279 0.412,-0.28 0.41,-0.281 0.408,-0.282 0.406,-0.283 0.403,-0.284 0.401,-0.285 0.399,-0.287 0.397,-0.288 0.395,-0.289 0.395,-0.291 0.395,-0.292 c 0,-0.005 0.001,-0.01 0.004,-0.015 0.003,-0.005 0.006,-0.01 0.008,-0.013 -10e-4,-0.01 -10e-4,-0.021 -10e-4,-0.031 0,-0.03 0.004,-0.059 0.014,-0.088 l 0.373,-0.172 c 0.019,0.008 0.036,0.017 0.052,0.028 0.016,0.011 0.031,0.024 0.045,0.039 0.003,0 0.006,0 0.009,0.001 0.003,0 0.006,0.001 0.008,0.002 0.003,0.001 0.005,0.002 0.007,0.004 0.002,0.002 0.003,0.004 0.003,0.006 0,0.003 -0.001,0.005 -0.001,0.008 -0.001,0.002 -0.002,0.005 -0.002,0.007 0,0.001 0.001,0.002 0.003,0.003 0.001,0.002 0.001,0.003 0.001,0.004 z"
         style="fill:#f7894a;fill-rule:nonzero"
         id="path9200" /><path
         d="m 0.415,-0.278 c 0.041,-0.012 0.084,-0.027 0.128,-0.043 0.044,-0.017 0.088,-0.035 0.132,-0.055 0.043,-0.02 0.086,-0.042 0.127,-0.064 0.042,-0.023 0.08,-0.046 0.116,-0.069 0.016,0.023 0.029,0.048 0.037,0.075 0.008,0.027 0.012,0.055 0.012,0.083 0,0.009 0,0.018 -0.001,0.026 C 0.965,-0.316 0.964,-0.307 0.962,-0.298 0.897,-0.26 0.829,-0.225 0.76,-0.193 0.691,-0.161 0.62,-0.132 0.549,-0.106 0.516,-0.125 0.488,-0.149 0.465,-0.179 0.441,-0.209 0.425,-0.242 0.415,-0.278 Z M 0.42,-0.439 c 0.009,-0.029 0.023,-0.055 0.04,-0.079 0.018,-0.023 0.039,-0.044 0.062,-0.061 0.023,-0.017 0.049,-0.03 0.077,-0.039 0.028,-0.009 0.057,-0.014 0.088,-0.014 0.018,0 0.036,0.002 0.054,0.005 0.018,0.004 0.035,0.009 0.052,0.016 -0.028,0.018 -0.057,0.035 -0.088,0.052 -0.03,0.016 -0.061,0.032 -0.093,0.046 C 0.58,-0.498 0.548,-0.485 0.516,-0.472 0.483,-0.46 0.451,-0.449 0.42,-0.439 Z"
         style="fill:#f7630c;fill-rule:nonzero"
         id="path9202" /><path
         d="m 0.251,-0.105 c -0.005,0 -0.01,0 -0.016,-0.001 -0.007,0 -0.013,-0.001 -0.019,-0.003 C 0.21,-0.111 0.205,-0.114 0.201,-0.118 0.197,-0.122 0.195,-0.127 0.195,-0.133 c 0,-0.01 0.005,-0.02 0.013,-0.032 0.009,-0.012 0.02,-0.024 0.033,-0.036 0.014,-0.013 0.028,-0.025 0.045,-0.038 0.016,-0.012 0.032,-0.023 0.048,-0.034 0.016,-0.011 0.03,-0.02 0.043,-0.029 0.014,-0.008 0.024,-0.014 0.031,-0.018 0.001,0.014 0.003,0.028 0.007,0.041 -0.004,0.002 -0.009,0.006 -0.016,0.011 -0.007,0.004 -0.015,0.01 -0.024,0.016 -0.008,0.006 -0.017,0.012 -0.026,0.02 -0.009,0.007 -0.017,0.014 -0.024,0.021 -0.007,0.007 -0.013,0.014 -0.018,0.02 -0.004,0.007 -0.007,0.012 -0.007,0.018 0,0.003 0.001,0.006 0.004,0.008 0.002,0.002 0.005,0.003 0.008,0.004 0.003,0.001 0.007,0.002 0.01,0.002 0.003,0.001 0.006,0.001 0.009,0.001 0.009,0 0.02,-0.001 0.031,-0.003 C 0.373,-0.163 0.385,-0.165 0.396,-0.168 0.407,-0.17 0.419,-0.173 0.429,-0.177 0.44,-0.18 0.45,-0.183 0.459,-0.186 0.499,-0.198 0.541,-0.213 0.585,-0.231 0.628,-0.249 0.672,-0.268 0.716,-0.289 0.76,-0.309 0.802,-0.331 0.844,-0.354 0.885,-0.377 0.923,-0.4 0.958,-0.423 l 0.003,-0.002 c 0.007,-0.005 0.017,-0.011 0.029,-0.02 0.013,-0.009 0.025,-0.018 0.037,-0.028 0.012,-0.01 0.023,-0.02 0.032,-0.03 0.009,-0.01 0.013,-0.018 0.013,-0.025 0,-0.004 -0.001,-0.007 -0.003,-0.009 -0.002,-0.002 -0.005,-0.004 -0.008,-0.005 -0.003,0 -0.007,-0.001 -0.01,-0.001 -0.004,-0.001 -0.007,-0.001 -0.009,-0.001 -0.009,0 -0.02,0.001 -0.031,0.003 C 1,-0.539 0.988,-0.537 0.977,-0.534 0.966,-0.532 0.954,-0.529 0.943,-0.525 0.932,-0.522 0.922,-0.519 0.914,-0.516 0.91,-0.521 0.906,-0.526 0.902,-0.531 0.898,-0.535 0.894,-0.54 0.89,-0.544 0.906,-0.55 0.924,-0.556 0.944,-0.562 c 0.02,-0.006 0.04,-0.012 0.061,-0.017 0.02,-0.005 0.041,-0.01 0.061,-0.013 0.021,-0.003 0.039,-0.005 0.056,-0.005 0.005,0 0.01,0 0.016,0.001 0.007,0 0.013,0.001 0.019,0.003 0.006,0.002 0.011,0.005 0.015,0.009 0.004,0.004 0.006,0.009 0.006,0.015 0,0.01 -0.004,0.02 -0.013,0.032 -0.008,0.012 -0.019,0.024 -0.033,0.036 -0.013,0.012 -0.028,0.025 -0.045,0.037 -0.016,0.013 -0.032,0.025 -0.048,0.035 -0.016,0.011 -0.03,0.021 -0.043,0.029 -0.013,0.008 -0.024,0.014 -0.031,0.019 -0.075,0.046 -0.153,0.087 -0.235,0.125 -0.081,0.037 -0.163,0.07 -0.247,0.098 -0.016,0.006 -0.034,0.012 -0.054,0.018 -0.02,0.006 -0.04,0.012 -0.061,0.017 -0.02,0.005 -0.041,0.009 -0.061,0.013 -0.02,0.003 -0.039,0.005 -0.056,0.005 z"
         style="fill:#ffb900;fill-rule:nonzero"
         id="path9204" /></g></g></svg>
