<?xml version="1.0" encoding="UTF-8" standalone="no"?>
<svg
   width="16.305"
   height="15.63"
   viewBox="0 0 16.305 15.63"
   version="1.1"
   xml:space="preserve"
   style="clip-rule:evenodd;fill-rule:evenodd;stroke-linejoin:round;stroke-miterlimit:2"
   id="svg20568"
   sodipodi:docname="emojis.svg"
   xmlns:inkscape="http://www.inkscape.org/namespaces/inkscape"
   xmlns:sodipodi="http://sodipodi.sourceforge.net/DTD/sodipodi-0.dtd"
   xmlns="http://www.w3.org/2000/svg"
   xmlns:svg="http://www.w3.org/2000/svg"><defs
     id="defs20572" /><sodipodi:namedview
     id="namedview20570"
     pagecolor="#505050"
     bordercolor="#eeeeee"
     borderopacity="1"
     inkscape:pageshadow="0"
     inkscape:pageopacity="0"
     inkscape:pagecheckerboard="0" /><g
     transform="matrix(0.24,0,0,0.24,-75.2706,-439.4376)"
     id="g20566"><g
       transform="matrix(62.5,0,0,62.5,304.69,1884.99)"
       id="g9220"><path
         d="m 1.23,-0.447 c 0,0.012 -0.003,0.024 -0.009,0.036 -0.005,0.011 -0.013,0.02 -0.024,0.028 l -0.24,0.175 0.091,0.282 C 1.051,0.083 1.052,0.091 1.052,0.099 1.052,0.11 1.05,0.12 1.046,0.13 1.042,0.139 1.036,0.148 1.029,0.155 1.022,0.162 1.014,0.168 1.004,0.172 0.995,0.176 0.984,0.178 0.974,0.178 0.957,0.178 0.941,0.173 0.927,0.163 L 0.687,-0.012 0.446,0.163 C 0.432,0.173 0.417,0.178 0.399,0.178 0.389,0.178 0.378,0.176 0.369,0.171 0.359,0.167 0.351,0.161 0.344,0.154 0.337,0.147 0.331,0.139 0.327,0.129 0.322,0.12 0.32,0.109 0.32,0.098 0.32,0.091 0.322,0.083 0.324,0.074 L 0.417,-0.208 0.176,-0.383 C 0.165,-0.391 0.157,-0.4 0.152,-0.411 0.146,-0.423 0.143,-0.435 0.143,-0.447 c 0,-0.011 0.002,-0.021 0.006,-0.031 0.005,-0.009 0.01,-0.018 0.018,-0.025 0.007,-0.007 0.015,-0.013 0.025,-0.017 0.009,-0.004 0.019,-0.006 0.03,-0.006 H 0.52 l 0.091,-0.283 c 0.006,-0.016 0.015,-0.03 0.029,-0.04 0.014,-0.01 0.029,-0.015 0.047,-0.015 0.017,0 0.032,0.005 0.046,0.015 0.014,0.01 0.023,0.024 0.029,0.04 l 0.092,0.283 h 0.297 c 0.011,0 0.021,0.002 0.03,0.006 0.01,0.004 0.018,0.01 0.026,0.017 0.007,0.007 0.012,0.016 0.017,0.025 0.004,0.01 0.006,0.02 0.006,0.031 z"
         style="fill-rule:nonzero"
         id="path9216" /><path
         d="m 1.159,-0.447 c 0,0.003 -0.001,0.006 -0.003,0.007 l -0.277,0.201 c -0.002,0.002 -0.004,0.004 -0.004,0.008 0,0 0.002,0.005 0.005,0.014 0.002,0.009 0.006,0.021 0.011,0.035 0.005,0.015 0.01,0.031 0.016,0.05 0.006,0.018 0.012,0.037 0.019,0.057 0.006,0.019 0.013,0.039 0.019,0.058 0.006,0.019 0.012,0.037 0.017,0.052 l 0.02,0.061 c 0,0.001 0,0.002 0,0.003 0,0.002 0,0.004 -0.002,0.006 -0.002,0.002 -0.004,0.002 -0.006,0.002 -0.003,0 -0.004,0 -0.006,-0.001 L 0.957,0.098 C 0.95,0.093 0.941,0.086 0.93,0.078 0.919,0.07 0.906,0.06 0.893,0.05 0.879,0.04 0.864,0.03 0.849,0.019 0.834,0.007 0.819,-0.003 0.804,-0.014 0.789,-0.025 0.774,-0.036 0.761,-0.046 0.747,-0.056 0.735,-0.064 0.724,-0.072 0.713,-0.08 0.705,-0.086 0.698,-0.09 0.691,-0.094 0.688,-0.097 0.687,-0.097 c -0.002,0 -0.004,0.001 -0.006,0.002 L 0.405,0.106 C 0.403,0.107 0.401,0.107 0.399,0.107 0.397,0.107 0.395,0.107 0.393,0.105 0.392,0.103 0.391,0.101 0.391,0.099 c 0,0 0.001,-0.005 0.004,-0.014 C 0.398,0.076 0.401,0.064 0.406,0.05 0.411,0.035 0.416,0.019 0.422,0 c 0.006,-0.019 0.012,-0.038 0.019,-0.057 0.006,-0.02 0.012,-0.039 0.019,-0.058 0.006,-0.02 0.012,-0.037 0.017,-0.053 0.005,-0.016 0.009,-0.029 0.013,-0.04 0.003,-0.011 0.006,-0.018 0.007,-0.021 0,-0.001 0,-0.002 0,-0.003 0,-0.003 -0.001,-0.005 -0.003,-0.007 L 0.217,-0.44 C 0.215,-0.442 0.213,-0.444 0.213,-0.447 c 0,-0.002 0.001,-0.004 0.003,-0.006 0.001,-0.002 0.004,-0.003 0.006,-0.003 h 0.342 c 0.004,0 0.007,-0.002 0.008,-0.006 l 0.106,-0.325 c 0.001,-0.004 0.004,-0.006 0.009,-0.006 0.004,0 0.007,0.002 0.008,0.006 L 0.8,-0.462 c 0.002,0.004 0.004,0.006 0.009,0.006 h 0.342 c 0.002,0 0.005,0.001 0.006,0.003 10e-4,0.002 0.002,0.004 0.002,0.006 z"
         style="fill:#ffc83d;fill-rule:nonzero"
         id="path9218" /></g></g></svg>
