<?xml version="1.0" encoding="UTF-8" standalone="no"?>
<svg
   width="16.32"
   height="16.32"
   viewBox="0 0 16.32 16.32"
   version="1.1"
   xml:space="preserve"
   style="clip-rule:evenodd;fill-rule:evenodd;stroke-linejoin:round;stroke-miterlimit:2"
   id="svg20568"
   sodipodi:docname="emojis.svg"
   xmlns:inkscape="http://www.inkscape.org/namespaces/inkscape"
   xmlns:sodipodi="http://sodipodi.sourceforge.net/DTD/sodipodi-0.dtd"
   xmlns="http://www.w3.org/2000/svg"
   xmlns:svg="http://www.w3.org/2000/svg"><defs
     id="defs20572" /><sodipodi:namedview
     id="namedview20570"
     pagecolor="#505050"
     bordercolor="#eeeeee"
     borderopacity="1"
     inkscape:pageshadow="0"
     inkscape:pageopacity="0"
     inkscape:pagecheckerboard="0" /><g
     transform="matrix(0.24,0,0,0.24,-95.59644,-438.7026)"
     id="g20566"><g
       transform="matrix(62.5,0,0,62.5,390.506,1884.99)"
       id="g9228"><path
         d="m 0.989,-0.307 0.176,0.088 c 0.015,0.008 0.027,0.019 0.035,0.033 0.009,0.014 0.013,0.029 0.013,0.047 0,0.012 -0.002,0.023 -0.007,0.033 -0.005,0.011 -0.011,0.02 -0.019,0.028 -0.009,0.008 -0.018,0.014 -0.029,0.018 -0.01,0.005 -0.021,0.007 -0.033,0.007 -0.014,0 -0.027,-0.003 -0.039,-0.009 l -0.13,-0.065 c 0.002,0.006 0.006,0.017 0.011,0.032 0.005,0.014 0.011,0.031 0.017,0.05 0.006,0.019 0.013,0.038 0.02,0.059 0.007,0.021 0.014,0.04 0.019,0.058 0.006,0.017 0.011,0.032 0.015,0.045 0.004,0.012 0.005,0.02 0.005,0.023 0,0.01 -0.003,0.018 -0.01,0.025 C 1.026,0.172 1.018,0.175 1.008,0.175 1,0.175 0.993,0.173 0.987,0.168 L 0.669,-0.069 0.351,0.168 C 0.344,0.173 0.337,0.175 0.33,0.175 0.32,0.175 0.312,0.172 0.305,0.165 0.298,0.158 0.294,0.15 0.294,0.14 0.294,0.137 0.296,0.129 0.3,0.117 0.304,0.104 0.309,0.089 0.314,0.072 0.32,0.054 0.327,0.035 0.334,0.014 0.341,-0.007 0.347,-0.026 0.354,-0.045 0.36,-0.064 0.366,-0.081 0.371,-0.095 0.376,-0.11 0.38,-0.121 0.382,-0.127 l -0.13,0.065 C 0.24,-0.056 0.227,-0.053 0.213,-0.053 0.201,-0.053 0.19,-0.055 0.179,-0.06 0.169,-0.064 0.16,-0.07 0.151,-0.078 0.143,-0.086 0.137,-0.095 0.132,-0.106 0.127,-0.116 0.125,-0.127 0.125,-0.139 0.125,-0.157 0.129,-0.172 0.137,-0.186 0.146,-0.2 0.158,-0.211 0.173,-0.219 L 0.349,-0.307 0.139,-0.463 C 0.13,-0.47 0.125,-0.479 0.125,-0.491 c 0,-0.01 0.003,-0.018 0.01,-0.025 0.007,-0.007 0.015,-0.01 0.025,-0.01 H 0.387 L 0.291,-0.623 C 0.283,-0.631 0.277,-0.64 0.272,-0.651 0.267,-0.662 0.265,-0.673 0.265,-0.685 c 0,-0.012 0.002,-0.023 0.007,-0.034 0.005,-0.01 0.011,-0.019 0.019,-0.027 0.008,-0.008 0.018,-0.015 0.028,-0.019 0.011,-0.005 0.022,-0.007 0.034,-0.007 0.012,0 0.023,0.002 0.033,0.006 0.011,0.005 0.021,0.011 0.029,0.019 l 0.13,0.13 0.091,-0.272 c 0.002,-0.007 0.007,-0.013 0.013,-0.017 0.006,-0.004 0.012,-0.007 0.02,-0.007 0.007,0 0.014,0.003 0.02,0.007 0.006,0.004 0.011,0.01 0.013,0.017 l 0.091,0.272 0.13,-0.13 c 0.008,-0.008 0.018,-0.014 0.028,-0.019 0.011,-0.004 0.022,-0.006 0.034,-0.006 0.012,0 0.023,0.002 0.034,0.007 0.01,0.004 0.02,0.011 0.028,0.019 0.008,0.008 0.014,0.017 0.019,0.027 0.004,0.011 0.007,0.022 0.007,0.034 0,0.012 -0.003,0.023 -0.007,0.034 -0.005,0.011 -0.011,0.02 -0.019,0.028 l -0.096,0.097 h 0.227 c 0.009,0 0.018,0.003 0.025,0.01 0.006,0.007 0.01,0.015 0.01,0.025 0,0.012 -0.005,0.021 -0.014,0.028 z"
         style="fill-rule:nonzero"
         id="path9222" /><path
         d="M 1.125,-0.123 C 1.124,-0.123 1.119,-0.125 1.11,-0.129 1.101,-0.133 1.091,-0.138 1.078,-0.144 1.065,-0.15 1.052,-0.156 1.037,-0.164 1.022,-0.171 1.008,-0.178 0.995,-0.185 0.982,-0.191 0.97,-0.197 0.96,-0.202 0.951,-0.207 0.944,-0.211 0.942,-0.212 0.939,-0.215 0.936,-0.217 0.935,-0.219 0.933,-0.221 0.932,-0.224 0.932,-0.228 c 0,-0.005 0.002,-0.009 0.005,-0.012 0.004,-0.004 0.008,-0.006 0.013,-0.006 0.001,0 0.006,0.002 0.015,0.006 0.009,0.004 0.02,0.009 0.033,0.015 0.012,0.007 0.026,0.013 0.041,0.02 0.015,0.008 0.029,0.014 0.042,0.021 0.013,0.007 0.024,0.013 0.034,0.018 0.01,0.005 0.016,0.008 0.018,0.01 0.003,0.002 0.006,0.004 0.007,0.006 0.002,0.002 0.003,0.006 0.003,0.01 0,0.004 -0.002,0.008 -0.006,0.012 -0.003,0.003 -0.007,0.005 -0.012,0.005 z m -0.912,0 c -0.005,0 -0.009,-0.002 -0.012,-0.005 -0.004,-0.004 -0.006,-0.008 -0.006,-0.012 0,-0.004 0.001,-0.008 0.003,-0.01 0.001,-0.002 0.004,-0.004 0.007,-0.006 0.002,-0.002 0.008,-0.005 0.018,-0.01 0.01,-0.005 0.021,-0.011 0.034,-0.018 0.013,-0.007 0.027,-0.013 0.042,-0.021 0.014,-0.007 0.028,-0.013 0.041,-0.02 0.013,-0.006 0.024,-0.011 0.033,-0.015 0.008,-0.004 0.013,-0.006 0.015,-0.006 0.005,0 0.009,0.002 0.012,0.006 0.004,0.003 0.006,0.007 0.006,0.012 0,0.004 -0.001,0.007 -0.003,0.009 -0.001,0.002 -0.004,0.004 -0.007,0.007 -0.003,0.001 -0.009,0.005 -0.019,0.01 -0.009,0.005 -0.021,0.011 -0.034,0.017 -0.013,0.007 -0.027,0.014 -0.042,0.021 -0.015,0.008 -0.029,0.014 -0.041,0.02 -0.013,0.006 -0.024,0.011 -0.032,0.015 -0.009,0.004 -0.014,0.006 -0.015,0.006 z m 0.281,-0.403 c -0.005,0 -0.009,-0.002 -0.013,-0.006 l -0.14,-0.14 C 0.337,-0.675 0.335,-0.68 0.335,-0.684 c 0,-0.005 0.002,-0.009 0.006,-0.012 0.003,-0.004 0.007,-0.006 0.012,-0.006 0.005,0 0.009,0.002 0.013,0.005 l 0.14,0.14 c 0.003,0.004 0.005,0.008 0.005,0.013 0,0.005 -0.002,0.009 -0.005,0.012 -0.004,0.004 -0.008,0.006 -0.012,0.006 z m 0.35,0 c -0.004,0 -0.008,-0.002 -0.012,-0.006 -0.004,-0.003 -0.005,-0.007 -0.005,-0.012 0,-0.005 0.001,-0.009 0.005,-0.013 l 0.14,-0.14 C 0.975,-0.7 0.98,-0.702 0.985,-0.702 c 0.004,0 0.008,0.002 0.012,0.006 0.003,0.003 0.005,0.007 0.005,0.012 0,0.005 -0.002,0.009 -0.005,0.012 l -0.14,0.14 c -0.004,0.004 -0.008,0.006 -0.013,0.006 z"
         style="fill:#00bcf2;fill-rule:nonzero"
         id="path9224" /><path
         d="m 0.669,-0.147 c -0.008,0 -0.015,0.002 -0.021,0.006 l -0.25,0.186 0.1,-0.298 C 0.499,-0.257 0.5,-0.261 0.5,-0.265 0.5,-0.276 0.495,-0.286 0.486,-0.292 L 0.266,-0.457 H 0.54 c 0.008,0 0.014,-0.002 0.021,-0.006 0.006,-0.004 0.01,-0.01 0.013,-0.017 l 0.095,-0.287 0.095,0.287 c 0.003,0.007 0.007,0.013 0.013,0.017 0.007,0.004 0.013,0.006 0.021,0.006 h 0.274 l -0.22,0.165 c -0.009,0.006 -0.014,0.016 -0.014,0.027 0,0.004 0.001,0.008 0.002,0.012 L 0.939,0.045 0.69,-0.141 C 0.684,-0.145 0.677,-0.147 0.669,-0.147 Z"
         style="fill:#fce100;fill-rule:nonzero"
         id="path9226" /></g></g></svg>
