<?xml version="1.0" encoding="UTF-8" standalone="no"?>
<svg
   width="16.844999"
   height="16.305"
   viewBox="0 0 16.844999 16.305"
   version="1.1"
   xml:space="preserve"
   style="clip-rule:evenodd;fill-rule:evenodd;stroke-linejoin:round;stroke-miterlimit:2"
   id="svg20568"
   sodipodi:docname="emojis.svg"
   xmlns:inkscape="http://www.inkscape.org/namespaces/inkscape"
   xmlns:sodipodi="http://sodipodi.sourceforge.net/DTD/sodipodi-0.dtd"
   xmlns="http://www.w3.org/2000/svg"
   xmlns:svg="http://www.w3.org/2000/svg"><defs
     id="defs20572" /><sodipodi:namedview
     id="namedview20570"
     pagecolor="#505050"
     bordercolor="#eeeeee"
     borderopacity="1"
     inkscape:pageshadow="0"
     inkscape:pageopacity="0"
     inkscape:pagecheckerboard="0" /><g
     transform="matrix(0.24,0,0,0.24,-115.67196,-439.2426)"
     id="g20566"><g
       transform="matrix(62.5,0,0,62.5,474.154,1884.99)"
       id="g9238"><path
         d="m 0.81,-0.877 c 0.012,0 0.023,0.002 0.034,0.006 0.01,0.005 0.019,0.011 0.027,0.019 0.008,0.008 0.015,0.018 0.019,0.028 0.005,0.011 0.007,0.022 0.007,0.034 v 0.123 c 0,0.027 0.004,0.052 0.012,0.077 0.009,0.024 0.02,0.047 0.035,0.068 0.015,0.02 0.033,0.038 0.054,0.053 0.021,0.016 0.044,0.028 0.069,0.036 0.016,0.005 0.032,0.008 0.048,0.009 0.015,0.001 0.031,0.002 0.048,0.004 0.012,0.001 0.023,0.003 0.034,0.008 0.01,0.004 0.019,0.01 0.027,0.018 0.007,0.007 0.013,0.016 0.017,0.027 0.005,0.01 0.007,0.021 0.007,0.034 0,0.012 -0.002,0.024 -0.007,0.034 -0.004,0.011 -0.011,0.02 -0.019,0.028 -0.008,0.008 -0.017,0.014 -0.028,0.019 -0.01,0.005 -0.022,0.007 -0.034,0.007 H 1.131 c -0.033,0 -0.064,0.007 -0.092,0.02 -0.028,0.014 -0.053,0.032 -0.074,0.054 -0.021,0.023 -0.038,0.049 -0.05,0.078 C 0.903,-0.063 0.897,-0.032 0.897,0 V 0.123 C 0.897,0.135 0.895,0.146 0.89,0.157 0.886,0.167 0.879,0.177 0.871,0.185 0.863,0.193 0.854,0.199 0.844,0.204 0.833,0.208 0.822,0.21 0.81,0.21 0.797,0.21 0.786,0.208 0.775,0.204 0.765,0.199 0.755,0.193 0.747,0.185 0.739,0.177 0.733,0.168 0.729,0.157 0.724,0.146 0.722,0.135 0.722,0.123 V 0.017 C 0.706,0.029 0.688,0.035 0.669,0.035 0.662,0.035 0.656,0.035 0.65,0.036 0.643,0.037 0.638,0.038 0.633,0.041 0.628,0.043 0.624,0.046 0.621,0.051 0.618,0.056 0.616,0.062 0.616,0.07 V 0.123 C 0.616,0.135 0.614,0.146 0.609,0.157 0.605,0.167 0.599,0.177 0.591,0.185 0.583,0.193 0.573,0.199 0.563,0.204 0.552,0.208 0.541,0.21 0.529,0.21 0.516,0.21 0.505,0.208 0.494,0.204 0.484,0.199 0.475,0.193 0.467,0.185 0.459,0.177 0.452,0.168 0.448,0.157 0.443,0.146 0.441,0.135 0.441,0.123 V 0.07 C 0.441,0.061 0.438,0.052 0.431,0.045 0.424,0.039 0.416,0.035 0.406,0.035 H 0.388 C 0.376,0.035 0.364,0.033 0.354,0.028 0.343,0.024 0.334,0.017 0.326,0.01 0.318,0.002 0.312,-0.008 0.307,-0.018 0.303,-0.029 0.3,-0.04 0.3,-0.053 c 0,-0.012 0.003,-0.023 0.007,-0.034 0.005,-0.011 0.011,-0.02 0.019,-0.028 0.008,-0.008 0.017,-0.014 0.028,-0.019 0.01,-0.004 0.022,-0.007 0.034,-0.007 h 0.018 c 0.01,0 0.018,-0.003 0.025,-0.01 0.007,-0.007 0.01,-0.015 0.01,-0.025 v -0.07 H 0.422 C 0.414,-0.235 0.404,-0.227 0.392,-0.22 0.38,-0.214 0.367,-0.21 0.353,-0.21 0.341,-0.21 0.329,-0.213 0.319,-0.217 0.308,-0.222 0.299,-0.228 0.291,-0.236 0.283,-0.244 0.277,-0.253 0.272,-0.264 0.267,-0.274 0.265,-0.286 0.265,-0.298 v -0.053 c 0,-0.01 -0.003,-0.018 -0.01,-0.025 C 0.248,-0.383 0.24,-0.386 0.23,-0.386 H 0.213 C 0.201,-0.386 0.189,-0.389 0.178,-0.393 0.168,-0.398 0.159,-0.404 0.151,-0.412 0.143,-0.42 0.136,-0.429 0.132,-0.44 0.127,-0.45 0.125,-0.462 0.125,-0.474 c 0,-0.012 0.002,-0.023 0.007,-0.034 0.004,-0.011 0.011,-0.02 0.019,-0.028 0.008,-0.008 0.017,-0.014 0.028,-0.019 0.01,-0.004 0.022,-0.007 0.034,-0.007 H 0.23 c 0.008,0 0.015,-10e-4 0.019,-0.005 C 0.254,-0.57 0.258,-0.574 0.26,-0.58 0.262,-0.585 0.264,-0.591 0.265,-0.597 0.266,-0.604 0.266,-0.61 0.266,-0.616 L 0.265,-0.649 c 0,-0.012 0.002,-0.024 0.007,-0.035 0.005,-0.01 0.011,-0.02 0.019,-0.028 0.008,-0.008 0.017,-0.014 0.028,-0.018 0.01,-0.005 0.022,-0.007 0.034,-0.007 0.012,0 0.023,0.002 0.034,0.007 0.011,0.004 0.02,0.01 0.028,0.018 0.008,0.008 0.015,0.018 0.019,0.028 0.005,0.011 0.007,0.023 0.007,0.035 v 0.052 c 0,0.01 0.003,0.018 0.01,0.025 0.007,0.007 0.015,0.01 0.025,0.01 h 0.018 c 0.012,0 0.023,0.003 0.034,0.007 0.01,0.005 0.019,0.011 0.027,0.019 0.008,0.008 0.015,0.017 0.019,0.028 0.005,0.011 0.007,0.022 0.007,0.034 0,0.011 -0.002,0.021 -0.006,0.031 0.022,-0.01 0.042,-0.022 0.06,-0.038 0.019,-0.015 0.034,-0.033 0.047,-0.052 0.012,-0.02 0.022,-0.041 0.029,-0.064 0.007,-0.022 0.011,-0.046 0.011,-0.07 V -0.79 c 0,-0.012 0.002,-0.023 0.007,-0.034 0.004,-0.01 0.01,-0.02 0.018,-0.028 0.008,-0.008 0.018,-0.014 0.028,-0.019 0.011,-0.004 0.022,-0.006 0.035,-0.006 z"
         style="fill-rule:nonzero"
         id="path9230" /><path
         d="m 0.81,-0.807 c 0.004,0 0.008,0.002 0.012,0.005 0.003,0.004 0.005,0.008 0.005,0.012 v 0.123 c 0,0.03 0.003,0.058 0.011,0.085 0.008,0.027 0.019,0.053 0.032,0.076 0.014,0.023 0.031,0.044 0.05,0.064 0.02,0.019 0.042,0.035 0.065,0.049 0.024,0.013 0.049,0.024 0.076,0.031 0.027,0.007 0.056,0.011 0.085,0.011 0.004,0 0.007,0 0.011,0 0.003,0 0.007,0.001 0.01,0.002 0.003,0.002 0.005,0.004 0.008,0.006 0.002,0.002 0.003,0.006 0.003,0.01 0,0.008 -0.003,0.013 -0.01,0.015 -0.006,0.002 -0.012,0.003 -0.02,0.003 H 1.131 c -0.028,0 -0.055,0.004 -0.081,0.012 C 1.024,-0.295 1,-0.284 0.978,-0.27 0.955,-0.256 0.935,-0.239 0.916,-0.219 0.897,-0.2 0.882,-0.178 0.868,-0.155 0.855,-0.131 0.845,-0.107 0.838,-0.08 0.83,-0.054 0.827,-0.027 0.827,0 V 0.123 C 0.827,0.127 0.825,0.131 0.822,0.135 0.818,0.138 0.814,0.14 0.81,0.14 0.805,0.14 0.801,0.138 0.797,0.135 0.794,0.132 0.792,0.127 0.792,0.123 V 0 C 0.792,-0.042 0.784,-0.082 0.768,-0.12 0.753,-0.157 0.731,-0.191 0.703,-0.219 0.676,-0.247 0.644,-0.27 0.607,-0.287 0.57,-0.304 0.53,-0.314 0.488,-0.315 H 0.47 c -0.003,0 -0.006,0 -0.009,0 C 0.457,-0.316 0.454,-0.317 0.451,-0.318 0.448,-0.319 0.446,-0.321 0.444,-0.323 0.442,-0.326 0.441,-0.329 0.441,-0.333 c 0,-0.005 0.001,-0.008 0.003,-0.011 0.003,-0.002 0.005,-0.004 0.009,-0.005 0.003,-0.001 0.006,-0.002 0.01,-0.002 h 0.013 c 0.029,0 0.057,-0.004 0.084,-0.011 0.027,-0.008 0.052,-0.018 0.075,-0.032 0.024,-0.014 0.045,-0.031 0.064,-0.05 0.019,-0.019 0.036,-0.04 0.05,-0.064 0.014,-0.023 0.024,-0.048 0.032,-0.075 0.007,-0.027 0.011,-0.055 0.011,-0.084 V -0.79 c 0,-0.004 0.002,-0.009 0.005,-0.012 0.004,-0.003 0.008,-0.005 0.013,-0.005 z"
         style="fill:#fff100;fill-rule:nonzero"
         id="path9232" /><path
         d="m 0.353,-0.667 c 0.005,0 0.009,0.002 0.012,0.005 0.004,0.004 0.006,0.008 0.006,0.013 v 0.052 c 0,0.015 0.002,0.029 0.008,0.041 0.005,0.013 0.013,0.024 0.023,0.034 0.009,0.009 0.02,0.017 0.033,0.022 0.013,0.006 0.026,0.009 0.041,0.009 h 0.018 c 0.004,0 0.008,0.001 0.012,0.005 0.003,0.003 0.005,0.007 0.005,0.012 0,0.005 -0.001,0.009 -0.005,0.012 -0.003,0.004 -0.007,0.005 -0.012,0.005 H 0.476 c -0.015,0 -0.028,0.003 -0.041,0.009 -0.013,0.005 -0.024,0.013 -0.033,0.022 -0.01,0.01 -0.018,0.021 -0.023,0.034 -0.006,0.013 -0.008,0.026 -0.008,0.041 v 0.053 c 0,0.005 -0.002,0.009 -0.006,0.012 -0.003,0.004 -0.007,0.005 -0.012,0.005 -0.005,0 -0.009,-10e-4 -0.012,-0.005 C 0.337,-0.289 0.335,-0.293 0.335,-0.298 V -0.351 C 0.335,-0.366 0.333,-0.379 0.327,-0.392 0.322,-0.405 0.314,-0.416 0.305,-0.426 0.295,-0.435 0.284,-0.443 0.271,-0.448 0.259,-0.454 0.245,-0.457 0.23,-0.457 H 0.213 C 0.208,-0.457 0.204,-0.458 0.2,-0.462 0.197,-0.465 0.195,-0.469 0.195,-0.474 c 0,-0.005 0.002,-0.009 0.006,-0.012 0.003,-0.004 0.007,-0.005 0.012,-0.005 H 0.23 c 0.015,0 0.029,-0.003 0.041,-0.009 0.013,-0.005 0.024,-0.013 0.034,-0.022 0.009,-0.01 0.017,-0.021 0.022,-0.034 0.006,-0.012 0.008,-0.026 0.008,-0.041 v -0.052 c 0,-0.005 0.002,-0.009 0.006,-0.013 0.003,-0.003 0.007,-0.005 0.012,-0.005 z"
         style="fill:#31d2f7;fill-rule:nonzero"
         id="path9234" /><path
         d="m 0.529,-0.246 c 0.004,0 0.008,0.002 0.012,0.006 0.003,0.003 0.005,0.007 0.005,0.012 v 0.052 c 0,0.015 0.003,0.029 0.008,0.041 0.006,0.013 0.013,0.024 0.023,0.034 0.01,0.009 0.021,0.017 0.033,0.022 0.013,0.006 0.027,0.009 0.041,0.009 h 0.018 c 0.005,0 0.009,0.001 0.012,0.005 0.004,0.003 0.006,0.007 0.006,0.012 0,0.005 -0.002,0.009 -0.006,0.013 -0.003,0.003 -0.007,0.005 -0.012,0.005 H 0.651 c -0.014,0 -0.028,0.003 -0.041,0.008 C 0.598,-0.021 0.587,-0.014 0.577,-0.004 0.567,0.005 0.56,0.017 0.554,0.029 0.549,0.042 0.546,0.056 0.546,0.07 V 0.123 C 0.546,0.127 0.544,0.131 0.541,0.135 0.537,0.138 0.533,0.14 0.529,0.14 0.524,0.14 0.52,0.138 0.516,0.135 0.513,0.132 0.511,0.127 0.511,0.123 V 0.07 C 0.511,0.056 0.508,0.042 0.503,0.029 0.497,0.017 0.49,0.005 0.48,-0.004 0.471,-0.014 0.459,-0.021 0.447,-0.027 0.434,-0.032 0.42,-0.035 0.406,-0.035 H 0.388 c -0.005,0 -0.009,-0.002 -0.012,-0.005 -0.004,-0.004 -0.005,-0.008 -0.005,-0.013 0,-0.005 0.001,-0.009 0.005,-0.012 0.003,-0.004 0.007,-0.005 0.012,-0.005 h 0.018 c 0.014,0 0.028,-0.003 0.041,-0.009 0.012,-0.005 0.024,-0.013 0.033,-0.022 0.01,-0.01 0.017,-0.021 0.023,-0.034 0.005,-0.012 0.008,-0.026 0.008,-0.041 v -0.052 c 0,-0.005 0.002,-0.009 0.005,-0.012 0.004,-0.004 0.008,-0.006 0.013,-0.006 z"
         style="fill:#f495bf;fill-rule:nonzero"
         id="path9236" /></g></g></svg>
