<?xml version="1.0" encoding="UTF-8" standalone="no"?>
<svg
   width="15.795"
   height="16.844999"
   viewBox="0 0 15.795 16.844999"
   version="1.1"
   xml:space="preserve"
   style="clip-rule:evenodd;fill-rule:evenodd;stroke-linejoin:round;stroke-miterlimit:2"
   id="svg20568"
   sodipodi:docname="emojis.svg"
   xmlns:inkscape="http://www.inkscape.org/namespaces/inkscape"
   xmlns:sodipodi="http://sodipodi.sourceforge.net/DTD/sodipodi-0.dtd"
   xmlns="http://www.w3.org/2000/svg"
   xmlns:svg="http://www.w3.org/2000/svg"><defs
     id="defs20572" /><sodipodi:namedview
     id="namedview20570"
     pagecolor="#505050"
     bordercolor="#eeeeee"
     borderopacity="1"
     inkscape:pageshadow="0"
     inkscape:pageopacity="0"
     inkscape:pagecheckerboard="0" /><g
     transform="matrix(0.24,0,0,0.24,-136.2678,-438.7026)"
     id="g20566"><g
       transform="matrix(62.5,0,0,62.5,559.97,1884.99)"
       id="g9252"><path
         d="m 1.058,-0.913 c 0.017,0 0.032,0.004 0.047,0.01 0.014,0.006 0.027,0.015 0.038,0.026 0.01,0.01 0.019,0.023 0.025,0.037 0.007,0.015 0.01,0.03 0.01,0.047 0,0.016 -0.003,0.032 -0.009,0.046 -0.006,0.015 -0.015,0.028 -0.026,0.039 l -0.095,0.095 c 0.016,0.011 0.029,0.025 0.037,0.041 0.009,0.016 0.014,0.034 0.014,0.054 0,0.031 -0.011,0.058 -0.034,0.08 L 0.438,0.19 C 0.431,0.196 0.424,0.201 0.415,0.205 0.407,0.209 0.398,0.21 0.388,0.21 0.375,0.21 0.362,0.207 0.351,0.2 0.34,0.193 0.331,0.184 0.325,0.172 L 0.286,0.092 C 0.27,0.095 0.255,0.097 0.241,0.1 0.226,0.103 0.211,0.105 0.195,0.105 0.186,0.105 0.176,0.103 0.168,0.1 0.16,0.096 0.152,0.091 0.146,0.085 0.139,0.078 0.134,0.071 0.131,0.062 0.127,0.054 0.125,0.045 0.125,0.035 0.125,0.026 0.127,0.017 0.13,0.008 0.134,-0.001 0.139,-0.008 0.146,-0.015 L 0.203,-0.072 0.167,-0.144 C 0.163,-0.154 0.16,-0.164 0.16,-0.176 c 0,-0.019 0.007,-0.035 0.021,-0.049 l 0.414,-0.414 c 0.018,-0.019 0.041,-0.028 0.067,-0.028 0.013,0 0.026,0.003 0.038,0.008 0.012,0.006 0.022,0.013 0.032,0.023 l 0.241,-0.241 c 0.012,-0.012 0.025,-0.021 0.039,-0.027 0.015,-0.006 0.03,-0.009 0.046,-0.009 z"
         style="fill-rule:nonzero"
         id="path9240" /><path
         d="m 0.23,-0.176 0.414,-0.413 c 0.005,-0.005 0.011,-0.008 0.018,-0.008 0.006,0 0.012,0.003 0.017,0.008 0.005,0.005 0.008,0.01 0.008,0.017 0,0.008 -0.004,0.016 -0.011,0.023 -0.008,0.008 -0.016,0.015 -0.025,0.023 -0.008,0.007 -0.016,0.015 -0.024,0.022 -0.007,0.008 -0.011,0.015 -0.011,0.023 0,0.007 0.003,0.013 0.008,0.017 0.004,0.005 0.01,0.007 0.017,0.007 0.007,0 0.013,-0.002 0.018,-0.006 l 0.364,-0.365 c 0.01,-0.009 0.021,-0.014 0.035,-0.014 0.007,0 0.013,0.001 0.019,0.004 0.006,0.002 0.012,0.006 0.016,0.01 0.004,0.005 0.008,0.01 0.011,0.016 0.002,0.006 0.003,0.013 0.003,0.02 0,0.013 -0.004,0.025 -0.014,0.034 l -0.224,0.224 c -0.005,0.005 -0.007,0.011 -0.007,0.018 0,0.007 0.002,0.013 0.007,0.017 0.005,0.005 0.011,0.008 0.018,0.008 0.008,0 0.016,-0.004 0.023,-0.011 0.007,-0.008 0.014,-0.016 0.022,-0.024 0.008,-0.009 0.016,-0.017 0.024,-0.025 0.009,-0.007 0.019,-0.011 0.029,-0.011 0.012,0 0.023,0.005 0.031,0.013 0.008,0.009 0.012,0.019 0.012,0.031 0,0.005 -0.001,0.011 -0.003,0.017 -0.002,0.005 -0.005,0.01 -0.009,0.014 L 0.388,0.14 0.335,-0.07 Z"
         style="fill:#0078d7;fill-rule:nonzero"
         id="path9242" /><path
         d="m 0.292,-0.114 c -0.005,0 -0.009,-0.002 -0.012,-0.005 -0.004,-0.004 -0.006,-0.008 -0.006,-0.013 0,-0.005 0.002,-0.009 0.005,-0.013 l 0.237,-0.236 c 0.003,-0.003 0.007,-0.005 0.012,-0.005 0.005,0 0.009,0.002 0.013,0.005 0.003,0.004 0.005,0.008 0.005,0.012 0,0.006 -0.002,0.01 -0.005,0.013 L 0.304,-0.12 C 0.301,-0.116 0.297,-0.114 0.292,-0.114 Z M 0.546,-0.421 0.572,-0.43 0.581,-0.457 0.59,-0.43 0.616,-0.421 0.59,-0.413 0.581,-0.386 0.572,-0.413 Z"
         style="fill:#b4a0ff;fill-rule:nonzero"
         id="path9244" /><path
         d="m 0.349,-0.066 c -0.005,0 -0.009,-0.002 -0.013,-0.005 -0.003,-0.003 -0.005,-0.008 -0.005,-0.012 0,-0.005 0.002,-0.009 0.005,-0.013 l 0.706,-0.706 c 0.004,-0.004 0.008,-0.005 0.013,-0.005 0.005,0 0.009,0.002 0.012,0.005 0.004,0.003 0.005,0.008 0.005,0.012 0,0.005 -0.001,0.009 -0.005,0.013 l -0.706,0.706 c -0.003,0.003 -0.007,0.005 -0.012,0.005 z"
         style="fill:#b3dbf2;fill-rule:nonzero"
         id="path9246" /><path
         d="m 0.443,-0.02 c -0.004,0 -0.008,-0.002 -0.012,-0.005 -0.004,-0.004 -0.006,-0.008 -0.006,-0.013 0,-0.004 0.002,-0.008 0.006,-0.012 l 0.331,-0.331 c 0.003,-0.003 0.007,-0.005 0.012,-0.005 0.004,0 0.009,0.002 0.012,0.005 0.004,0.004 0.006,0.008 0.006,0.012 0,0.006 -0.002,0.01 -0.005,0.013 L 0.456,-0.025 C 0.452,-0.022 0.448,-0.02 0.443,-0.02 Z M 0.792,-0.421 0.818,-0.43 0.827,-0.457 0.835,-0.43 0.862,-0.421 0.835,-0.413 0.827,-0.386 0.818,-0.413 Z"
         style="fill:#3a96dd;fill-rule:nonzero"
         id="path9248" /><path
         d="M 0.409,0.003 0.388,0.14 0.326,0.016 0.195,0.035 0.289,-0.059 0.23,-0.176 l 0.117,0.059 0.094,-0.093 -0.02,0.13 0.125,0.062 z"
         style="fill:#fce100;fill-rule:nonzero"
         id="path9250" /></g></g></svg>
