<?xml version="1.0" encoding="UTF-8" standalone="no"?>
<svg
   width="16.844999"
   height="16.844999"
   viewBox="0 0 16.844999 16.844999"
   version="1.1"
   xml:space="preserve"
   style="clip-rule:evenodd;fill-rule:evenodd;stroke-linejoin:round;stroke-miterlimit:2"
   id="svg20568"
   sodipodi:docname="emojis.svg"
   xmlns:inkscape="http://www.inkscape.org/namespaces/inkscape"
   xmlns:sodipodi="http://sodipodi.sourceforge.net/DTD/sodipodi-0.dtd"
   xmlns="http://www.w3.org/2000/svg"
   xmlns:svg="http://www.w3.org/2000/svg"><defs
     id="defs20572" /><sodipodi:namedview
     id="namedview20570"
     pagecolor="#505050"
     bordercolor="#eeeeee"
     borderopacity="1"
     inkscape:pageshadow="0"
     inkscape:pageopacity="0"
     inkscape:pagecheckerboard="0" /><g
     transform="matrix(0.24,0,0,0.24,-155.81604,-438.7026)"
     id="g20566"><g
       transform="matrix(62.5,0,0,62.5,641.421,1884.99)"
       id="g9264"><path
         d="m 1.248,-0.07 c 0,0.038 -0.007,0.075 -0.022,0.109 C 1.211,0.073 1.191,0.103 1.166,0.128 1.14,0.153 1.11,0.173 1.076,0.188 1.042,0.203 1.006,0.21 0.967,0.21 0.923,0.21 0.879,0.207 0.836,0.2 0.793,0.193 0.75,0.183 0.708,0.169 0.7,0.182 0.689,0.192 0.676,0.199 0.663,0.207 0.649,0.21 0.634,0.21 H 0.546 C 0.535,0.21 0.523,0.209 0.513,0.205 0.502,0.201 0.492,0.196 0.483,0.19 0.475,0.183 0.467,0.175 0.46,0.166 0.454,0.157 0.449,0.147 0.445,0.136 0.437,0.133 0.43,0.13 0.423,0.126 0.417,0.122 0.41,0.117 0.404,0.111 0.36,0.074 0.321,0.03 0.286,-0.02 0.251,-0.069 0.222,-0.122 0.198,-0.178 0.174,-0.234 0.156,-0.292 0.144,-0.351 0.131,-0.411 0.125,-0.469 0.125,-0.526 v -0.106 c 0,-0.038 0.007,-0.075 0.022,-0.109 0.015,-0.034 0.035,-0.064 0.061,-0.089 0.025,-0.025 0.055,-0.046 0.089,-0.06 0.034,-0.015 0.07,-0.023 0.109,-0.023 0.044,0 0.088,0.004 0.131,0.011 0.043,0.006 0.086,0.017 0.128,0.03 0.008,-0.012 0.019,-0.022 0.032,-0.03 0.013,-0.007 0.027,-0.011 0.042,-0.011 h 0.088 c 0.011,0 0.023,0.002 0.033,0.006 0.011,0.004 0.02,0.009 0.029,0.015 0.009,0.007 0.017,0.015 0.023,0.024 0.007,0.009 0.012,0.019 0.016,0.03 0.01,0.004 0.022,0.01 0.033,0.018 0.011,0.009 0.022,0.019 0.033,0.029 0.011,0.011 0.021,0.022 0.031,0.034 0.009,0.011 0.018,0.021 0.025,0.03 0.065,0.081 0.114,0.167 0.148,0.258 0.033,0.092 0.05,0.19 0.05,0.293 z"
         style="fill-rule:nonzero"
         id="path9254" /><path
         d="m 0.406,-0.842 c 0.071,0 0.139,0.009 0.205,0.027 0.066,0.019 0.128,0.045 0.185,0.078 0.057,0.034 0.109,0.074 0.156,0.121 0.047,0.047 0.087,0.099 0.12,0.156 0.034,0.057 0.06,0.118 0.078,0.184 0.019,0.066 0.028,0.134 0.028,0.206 0,0.029 -0.006,0.056 -0.017,0.081 C 1.15,0.037 1.135,0.059 1.116,0.078 1.097,0.097 1.075,0.112 1.049,0.124 1.024,0.135 0.996,0.14 0.967,0.14 0.913,0.14 0.859,0.135 0.806,0.123 0.753,0.112 0.703,0.096 0.654,0.074 0.605,0.053 0.559,0.026 0.515,-0.005 0.471,-0.037 0.431,-0.073 0.395,-0.114 c 0.01,0.016 0.022,0.031 0.033,0.046 0.012,0.015 0.024,0.029 0.037,0.043 0.006,0.005 0.012,0.011 0.018,0.017 0.006,0.005 0.012,0.011 0.017,0.017 0.008,0.008 0.011,0.017 0.011,0.026 0,0.01 -0.003,0.018 -0.01,0.025 C 0.494,0.067 0.486,0.07 0.476,0.07 0.468,0.07 0.46,0.067 0.452,0.061 0.431,0.043 0.412,0.024 0.395,0.003 0.377,-0.019 0.361,-0.04 0.345,-0.062 0.296,-0.131 0.259,-0.205 0.233,-0.282 0.208,-0.36 0.195,-0.441 0.195,-0.526 v -0.106 c 0,-0.029 0.006,-0.056 0.017,-0.082 C 0.223,-0.739 0.238,-0.761 0.257,-0.781 0.276,-0.8 0.298,-0.815 0.324,-0.826 0.35,-0.837 0.377,-0.842 0.406,-0.842 Z M 0.511,0.105 0.537,0.096 0.546,0.07 0.555,0.096 0.581,0.105 0.555,0.114 0.546,0.14 0.537,0.114 Z M 0.616,0.123 0.629,0.118 0.634,0.105 0.638,0.118 0.651,0.123 0.638,0.127 0.634,0.14 0.629,0.127 Z"
         style="fill:#0078d7;fill-rule:nonzero"
         id="path9256" /><path
         d="M 0.932,0.07 C 0.874,0.07 0.818,0.063 0.764,0.048 0.71,0.032 0.66,0.011 0.613,-0.016 0.566,-0.043 0.524,-0.076 0.485,-0.115 0.447,-0.153 0.414,-0.196 0.387,-0.243 0.359,-0.29 0.338,-0.34 0.323,-0.394 0.308,-0.447 0.3,-0.503 0.3,-0.562 c 0,-0.024 0.005,-0.046 0.014,-0.068 0.009,-0.021 0.022,-0.04 0.038,-0.056 0.016,-0.015 0.035,-0.028 0.056,-0.037 0.021,-0.01 0.044,-0.014 0.068,-0.014 0.045,0 0.089,0.006 0.131,0.017 0.042,0.012 0.081,0.029 0.117,0.05 0.037,0.021 0.07,0.047 0.099,0.077 0.03,0.03 0.056,0.063 0.077,0.099 0.021,0.037 0.038,0.076 0.05,0.118 0.011,0.042 0.017,0.085 0.017,0.13 0,0.01 -0.003,0.018 -0.01,0.025 C 0.95,-0.214 0.942,-0.21 0.932,-0.21 0.923,-0.21 0.914,-0.214 0.907,-0.221 0.9,-0.228 0.897,-0.236 0.897,-0.246 0.897,-0.284 0.892,-0.322 0.882,-0.357 0.872,-0.393 0.858,-0.427 0.839,-0.458 0.821,-0.489 0.799,-0.518 0.773,-0.543 0.748,-0.569 0.719,-0.591 0.688,-0.609 0.657,-0.628 0.624,-0.642 0.588,-0.652 0.552,-0.662 0.515,-0.667 0.476,-0.667 c -0.015,0 -0.028,0.003 -0.041,0.008 -0.013,0.006 -0.024,0.013 -0.033,0.023 -0.01,0.01 -0.018,0.021 -0.023,0.033 -0.006,0.013 -0.008,0.027 -0.008,0.041 0,0.052 0.006,0.102 0.02,0.15 0.013,0.047 0.032,0.092 0.056,0.134 0.025,0.041 0.054,0.079 0.088,0.113 0.034,0.035 0.072,0.064 0.114,0.088 0.042,0.025 0.086,0.044 0.134,0.057 C 0.831,-0.007 0.88,0 0.932,0 0.956,0 0.979,-0.005 1,-0.014 1.022,-0.023 1.04,-0.036 1.056,-0.052 1.072,-0.068 1.084,-0.086 1.094,-0.108 1.103,-0.129 1.107,-0.152 1.107,-0.176 1.107,-0.258 1.094,-0.337 1.069,-0.413 1.043,-0.489 1.004,-0.559 0.953,-0.623 0.941,-0.639 0.928,-0.654 0.914,-0.668 0.9,-0.682 0.887,-0.696 0.873,-0.711 0.869,-0.716 0.867,-0.72 0.865,-0.723 0.863,-0.727 0.862,-0.732 0.862,-0.737 c 0,-0.01 0.003,-0.018 0.01,-0.025 0.007,-0.007 0.016,-0.01 0.025,-0.01 0.005,0 0.009,0 0.013,0.002 0.004,0.002 0.008,0.004 0.011,0.007 0.021,0.018 0.04,0.037 0.057,0.058 0.018,0.021 0.034,0.043 0.05,0.065 0.05,0.07 0.087,0.143 0.112,0.22 0.025,0.077 0.038,0.158 0.038,0.244 0,0.034 -0.007,0.066 -0.02,0.096 -0.012,0.029 -0.03,0.056 -0.052,0.078 C 1.083,0.02 1.057,0.038 1.028,0.051 0.998,0.064 0.966,0.07 0.932,0.07 Z M 0.3,-0.667 0.274,-0.658 0.265,-0.632 0.256,-0.658 0.23,-0.667 0.256,-0.676 0.265,-0.702 0.274,-0.676 Z m 0.492,-0.14 0.026,-0.009 0.009,-0.026 0.008,0.026 0.027,0.009 -0.027,0.009 -0.008,0.026 -0.009,-0.026 z M 0.722,-0.825 0.735,-0.829 0.739,-0.842 0.744,-0.829 0.757,-0.825 0.744,-0.82 0.739,-0.807 0.735,-0.82 Z M 0.335,-0.755 0.322,-0.75 0.318,-0.737 0.313,-0.75 0.3,-0.755 0.313,-0.759 0.318,-0.772 0.322,-0.759 Z"
         style="fill:#3a96dd;fill-rule:nonzero"
         id="path9258" /><path
         d="m 0.476,-0.562 c 0,-0.009 0.002,-0.018 0.005,-0.027 0.004,-0.008 0.009,-0.016 0.015,-0.022 0.007,-0.006 0.014,-0.011 0.023,-0.015 0.008,-0.004 0.017,-0.006 0.027,-0.006 0.039,0 0.076,0.005 0.112,0.015 0.036,0.01 0.07,0.025 0.101,0.043 0.031,0.018 0.059,0.04 0.085,0.065 0.026,0.026 0.047,0.054 0.066,0.086 0.018,0.031 0.032,0.065 0.042,0.1 0.01,0.036 0.015,0.074 0.015,0.113 0,0.009 -0.002,0.018 -0.005,0.027 C 0.958,-0.175 0.953,-0.167 0.947,-0.161 0.94,-0.155 0.933,-0.15 0.924,-0.146 0.916,-0.142 0.907,-0.141 0.897,-0.141 0.858,-0.141 0.821,-0.146 0.785,-0.156 0.749,-0.165 0.715,-0.18 0.684,-0.198 0.653,-0.216 0.625,-0.238 0.599,-0.264 0.574,-0.289 0.552,-0.318 0.533,-0.349 0.515,-0.38 0.501,-0.413 0.491,-0.449 0.481,-0.485 0.476,-0.523 0.476,-0.562 Z M 0.862,-0.07 0.888,-0.079 0.897,-0.105 0.906,-0.079 0.932,-0.07 0.906,-0.062 0.897,-0.035 0.888,-0.062 Z M 0.792,-0.088 0.805,-0.092 0.81,-0.105 0.813,-0.092 0.827,-0.088 0.813,-0.083 0.81,-0.07 0.805,-0.083 Z"
         style="fill:#b4a0ff;fill-rule:nonzero"
         id="path9260" /><path
         d="m 0.651,-0.526 c 0.029,0 0.057,0.005 0.082,0.016 0.026,0.011 0.048,0.026 0.067,0.045 0.019,0.019 0.034,0.042 0.045,0.067 0.011,0.026 0.017,0.053 0.017,0.082 0,0.01 -0.002,0.019 -0.006,0.027 C 0.853,-0.28 0.848,-0.273 0.842,-0.266 0.835,-0.26 0.828,-0.255 0.819,-0.251 0.811,-0.247 0.802,-0.246 0.792,-0.246 0.763,-0.246 0.735,-0.251 0.71,-0.262 0.684,-0.273 0.662,-0.288 0.643,-0.307 0.624,-0.326 0.609,-0.349 0.598,-0.374 0.587,-0.4 0.581,-0.427 0.581,-0.457 0.581,-0.466 0.583,-0.475 0.587,-0.484 0.59,-0.492 0.595,-0.5 0.602,-0.506 0.608,-0.512 0.616,-0.517 0.624,-0.521 0.632,-0.525 0.642,-0.526 0.651,-0.526 Z M 0.511,-0.562 0.537,-0.57 0.546,-0.597 0.555,-0.57 0.581,-0.562 0.555,-0.553 0.546,-0.526 0.537,-0.553 Z m 0.105,-0.017 0.013,-0.004 0.005,-0.014 0.004,0.014 0.013,0.004 -0.013,0.004 -0.004,0.013 -0.005,-0.013 z"
         style="fill:#ffffff;fill-rule:nonzero"
         id="path9262" /></g></g></svg>
