<?xml version="1.0" encoding="UTF-8" standalone="no"?>
<svg
   width="15.795"
   height="10.005"
   viewBox="0 0 15.795 10.005"
   version="1.1"
   xml:space="preserve"
   style="clip-rule:evenodd;fill-rule:evenodd;stroke-linejoin:round;stroke-miterlimit:2"
   id="svg20568"
   sodipodi:docname="emojis.svg"
   xmlns:inkscape="http://www.inkscape.org/namespaces/inkscape"
   xmlns:sodipodi="http://sodipodi.sourceforge.net/DTD/sodipodi-0.dtd"
   xmlns="http://www.w3.org/2000/svg"
   xmlns:svg="http://www.w3.org/2000/svg"><defs
     id="defs20572" /><sodipodi:namedview
     id="namedview20570"
     pagecolor="#505050"
     bordercolor="#eeeeee"
     borderopacity="1"
     inkscape:pageshadow="0"
     inkscape:pageopacity="0"
     inkscape:pagecheckerboard="0" /><g
     transform="matrix(0.24,0,0,0.24,-176.41188,-442.3926)"
     id="g20566"><g
       transform="matrix(62.5,0,0,62.5,727.237,1884.99)"
       id="g9270"><path
         d="m 0.995,-0.419 c 0.026,0.003 0.05,0.011 0.073,0.023 0.022,0.013 0.041,0.028 0.057,0.047 0.017,0.018 0.03,0.04 0.039,0.063 0.009,0.024 0.014,0.049 0.014,0.076 0,0.029 -0.006,0.056 -0.017,0.081 C 1.15,-0.103 1.135,-0.081 1.116,-0.062 1.097,-0.043 1.075,-0.028 1.049,-0.017 1.024,-0.006 0.996,0 0.967,0 H 0.371 C 0.337,0 0.305,-0.006 0.275,-0.019 0.245,-0.032 0.219,-0.05 0.197,-0.072 0.175,-0.094 0.157,-0.12 0.144,-0.15 0.131,-0.18 0.125,-0.212 0.125,-0.246 c 0,-0.033 0.006,-0.065 0.019,-0.095 0.013,-0.03 0.031,-0.056 0.053,-0.078 0.022,-0.022 0.048,-0.04 0.078,-0.053 0.03,-0.013 0.062,-0.019 0.096,-0.019 0.005,0 0.01,0 0.015,0 0.006,0.001 0.011,0.001 0.016,0.002 0.014,-0.027 0.031,-0.052 0.051,-0.074 0.019,-0.022 0.042,-0.04 0.066,-0.056 0.024,-0.015 0.051,-0.027 0.079,-0.036 0.028,-0.008 0.058,-0.012 0.089,-0.012 0.037,0 0.073,0.006 0.106,0.018 0.034,0.013 0.064,0.03 0.091,0.051 0.027,0.022 0.05,0.048 0.07,0.079 0.019,0.03 0.033,0.063 0.041,0.1 z"
         style="fill-rule:nonzero"
         id="path9266" /><path
         d="m 0.932,-0.351 h 0.035 c 0.02,0 0.038,0.004 0.055,0.011 0.017,0.007 0.032,0.017 0.044,0.03 0.013,0.013 0.023,0.028 0.03,0.045 0.008,0.017 0.011,0.035 0.011,0.055 0,0.019 -0.003,0.037 -0.011,0.054 -0.007,0.017 -0.017,0.032 -0.03,0.045 -0.012,0.012 -0.027,0.022 -0.044,0.03 C 1.005,-0.074 0.986,-0.07 0.967,-0.07 H 0.371 C 0.347,-0.07 0.324,-0.075 0.302,-0.084 0.281,-0.093 0.263,-0.106 0.247,-0.122 0.231,-0.138 0.218,-0.156 0.209,-0.177 0.2,-0.199 0.195,-0.222 0.195,-0.246 c 0,-0.024 0.005,-0.046 0.014,-0.068 0.01,-0.021 0.022,-0.04 0.038,-0.056 0.016,-0.016 0.034,-0.028 0.055,-0.037 0.022,-0.01 0.045,-0.014 0.069,-0.014 0.013,0 0.026,0.001 0.039,0.004 0.013,0.003 0.025,0.007 0.037,0.013 0.006,-0.028 0.017,-0.054 0.032,-0.078 0.014,-0.023 0.033,-0.044 0.054,-0.061 0.021,-0.017 0.045,-0.03 0.071,-0.04 0.026,-0.009 0.054,-0.014 0.083,-0.014 0.033,0 0.065,0.007 0.095,0.02 0.03,0.012 0.056,0.03 0.078,0.052 0.022,0.023 0.04,0.049 0.053,0.078 0.013,0.03 0.019,0.062 0.019,0.096 z"
         style="fill:#ffffff;fill-rule:nonzero"
         id="path9268" /></g></g></svg>
