<?xml version="1.0" encoding="UTF-8" standalone="no"?>
<svg
   width="16.844999"
   height="14.205"
   viewBox="0 0 16.844999 14.205"
   version="1.1"
   xml:space="preserve"
   style="clip-rule:evenodd;fill-rule:evenodd;stroke-linejoin:round;stroke-miterlimit:2"
   id="svg20568"
   sodipodi:docname="emojis.svg"
   xmlns:inkscape="http://www.inkscape.org/namespaces/inkscape"
   xmlns:sodipodi="http://sodipodi.sourceforge.net/DTD/sodipodi-0.dtd"
   xmlns="http://www.w3.org/2000/svg"
   xmlns:svg="http://www.w3.org/2000/svg"><defs
     id="defs20572" /><sodipodi:namedview
     id="namedview20570"
     pagecolor="#505050"
     bordercolor="#eeeeee"
     borderopacity="1"
     inkscape:pageshadow="0"
     inkscape:pageopacity="0"
     inkscape:pagecheckerboard="0" /><g
     transform="matrix(0.24,0,0,0.24,-216.55596,-441.3426)"
     id="g20566"><g
       transform="matrix(62.5,0,0,62.5,894.504,1884.99)"
       id="g9290"><path
         d="m 1.248,-0.281 c 0,0.026 -0.004,0.05 -0.013,0.073 -0.009,0.024 -0.021,0.044 -0.037,0.063 -0.015,0.019 -0.034,0.034 -0.055,0.047 -0.021,0.012 -0.045,0.021 -0.07,0.025 v 0.16 C 1.073,0.104 1.069,0.12 1.063,0.135 1.056,0.15 1.048,0.163 1.037,0.174 1.026,0.185 1.013,0.194 0.998,0.201 0.983,0.207 0.967,0.21 0.95,0.21 0.933,0.21 0.917,0.207 0.902,0.201 0.887,0.194 0.873,0.185 0.862,0.173 0.85,0.185 0.837,0.194 0.822,0.201 0.807,0.207 0.791,0.21 0.774,0.21 0.761,0.21 0.749,0.208 0.737,0.204 0.724,0.2 0.713,0.195 0.703,0.187 0.693,0.18 0.684,0.171 0.676,0.161 0.668,0.151 0.662,0.14 0.658,0.127 L 0.575,0.21 H 0.423 C 0.407,0.21 0.391,0.207 0.375,0.201 0.36,0.194 0.347,0.185 0.335,0.173 0.324,0.185 0.311,0.194 0.296,0.201 0.281,0.207 0.265,0.21 0.248,0.21 0.231,0.21 0.215,0.207 0.2,0.201 0.185,0.194 0.172,0.185 0.161,0.174 0.15,0.163 0.141,0.15 0.135,0.135 0.128,0.12 0.125,0.104 0.125,0.087 0.125,0.066 0.129,0.047 0.138,0.032 0.146,0.017 0.157,0.004 0.171,-0.007 0.184,-0.017 0.199,-0.027 0.216,-0.035 0.232,-0.044 0.249,-0.052 0.266,-0.061 0.267,-0.084 0.275,-0.105 0.288,-0.124 0.273,-0.136 0.26,-0.149 0.249,-0.163 0.237,-0.177 0.228,-0.193 0.22,-0.209 0.212,-0.226 0.206,-0.243 0.202,-0.261 0.197,-0.279 0.195,-0.297 0.195,-0.316 c 0,-0.034 0.007,-0.066 0.02,-0.095 0.012,-0.03 0.03,-0.056 0.052,-0.079 0.023,-0.022 0.049,-0.039 0.078,-0.052 0.03,-0.013 0.062,-0.02 0.096,-0.02 0.005,0 0.011,0.001 0.016,0.001 0.005,0 0.01,0.001 0.016,0.001 0.013,-0.026 0.03,-0.051 0.05,-0.073 0.02,-0.022 0.042,-0.04 0.067,-0.056 0.024,-0.015 0.051,-0.027 0.079,-0.036 0.029,-0.008 0.058,-0.012 0.088,-0.012 0.037,0 0.072,0.006 0.106,0.018 0.033,0.012 0.064,0.029 0.091,0.051 0.027,0.022 0.051,0.048 0.07,0.079 0.02,0.03 0.033,0.063 0.041,0.099 0.026,0.004 0.05,0.012 0.072,0.024 0.023,0.012 0.042,0.028 0.059,0.046 0.016,0.019 0.029,0.04 0.038,0.064 0.009,0.024 0.014,0.049 0.014,0.075 z"
         style="fill-rule:nonzero"
         id="path9282" /><path
         d="m 0.364,-0.1 0.077,-0.041 v 0.088 c 0,0.008 -0.001,0.015 -0.004,0.021 C 0.434,-0.026 0.43,-0.02 0.426,-0.015 0.421,-0.011 0.415,-0.007 0.409,-0.004 0.402,-0.001 0.395,0 0.388,0 0.381,0 0.374,-0.001 0.367,-0.004 0.361,-0.007 0.356,-0.011 0.351,-0.015 0.346,-0.02 0.342,-0.026 0.34,-0.032 0.337,-0.038 0.335,-0.045 0.335,-0.053 c 0,-0.009 0.003,-0.019 0.008,-0.027 0.005,-0.008 0.012,-0.015 0.021,-0.02 z m 0.526,0 0.077,-0.041 v 0.088 c 0,0.008 -0.001,0.015 -0.004,0.021 C 0.96,-0.026 0.957,-0.02 0.952,-0.015 0.947,-0.011 0.942,-0.007 0.935,-0.004 0.929,-0.001 0.922,0 0.915,0 0.907,0 0.901,-0.001 0.894,-0.004 0.888,-0.007 0.882,-0.011 0.877,-0.016 0.873,-0.021 0.869,-0.026 0.866,-0.032 0.863,-0.039 0.862,-0.046 0.862,-0.053 0.862,-0.062 0.864,-0.072 0.87,-0.08 0.875,-0.088 0.882,-0.095 0.89,-0.1 Z M 0.897,0.087 C 0.897,0.078 0.9,0.069 0.905,0.06 0.91,0.052 0.917,0.046 0.925,0.041 L 1.002,0 V 0.087 C 1.002,0.095 1.001,0.102 0.998,0.108 0.996,0.115 0.992,0.12 0.987,0.125 0.982,0.129 0.977,0.133 0.97,0.136 0.964,0.139 0.957,0.14 0.95,0.14 0.942,0.14 0.935,0.139 0.929,0.136 0.923,0.133 0.917,0.129 0.912,0.125 0.908,0.12 0.904,0.115 0.901,0.108 0.898,0.102 0.897,0.095 0.897,0.087 Z m -0.526,0 C 0.371,0.078 0.373,0.069 0.378,0.06 0.384,0.052 0.39,0.046 0.399,0.041 L 0.476,0 V 0.087 C 0.476,0.095 0.475,0.101 0.472,0.108 0.469,0.114 0.465,0.12 0.46,0.125 0.456,0.129 0.45,0.133 0.444,0.136 0.437,0.139 0.431,0.14 0.423,0.14 0.416,0.14 0.409,0.139 0.403,0.136 0.396,0.133 0.391,0.129 0.386,0.125 0.381,0.12 0.378,0.115 0.375,0.108 0.372,0.102 0.371,0.095 0.371,0.087 Z M 0.223,0.041 0.3,0 V 0.087 C 0.3,0.095 0.299,0.101 0.296,0.108 0.293,0.114 0.29,0.12 0.285,0.125 0.281,0.129 0.275,0.133 0.269,0.136 0.262,0.139 0.255,0.14 0.248,0.14 0.241,0.14 0.234,0.139 0.227,0.136 0.221,0.133 0.215,0.129 0.211,0.125 0.206,0.12 0.202,0.115 0.199,0.108 0.197,0.102 0.195,0.095 0.195,0.087 0.195,0.078 0.198,0.069 0.203,0.06 0.208,0.052 0.215,0.046 0.223,0.041 Z M 0.722,0.087 C 0.722,0.077 0.724,0.068 0.729,0.06 0.734,0.052 0.741,0.046 0.75,0.041 L 0.827,0 V 0.087 C 0.827,0.095 0.825,0.101 0.823,0.108 0.82,0.114 0.816,0.12 0.812,0.125 0.807,0.129 0.801,0.133 0.795,0.136 0.788,0.139 0.782,0.14 0.774,0.14 0.767,0.14 0.76,0.139 0.754,0.136 0.747,0.133 0.742,0.129 0.737,0.125 0.732,0.12 0.729,0.115 0.726,0.108 0.723,0.102 0.722,0.095 0.722,0.087 Z"
         style="fill:#00bcf2;fill-rule:nonzero"
         id="path9284" /><path
         d="m 1.002,-0.421 h 0.036 c 0.019,0 0.037,0.003 0.054,0.011 0.017,0.007 0.032,0.017 0.045,0.03 0.012,0.012 0.022,0.027 0.03,0.044 0.007,0.017 0.011,0.036 0.011,0.055 0,0.019 -0.004,0.038 -0.011,0.055 -0.008,0.017 -0.018,0.032 -0.03,0.044 -0.013,0.013 -0.028,0.023 -0.045,0.03 -0.017,0.008 -0.035,0.011 -0.054,0.011 H 0.897 c -0.009,0 -0.017,0 -0.024,0 -0.007,-0.001 -0.014,-0.001 -0.022,-0.001 -0.007,0 -0.015,0 -0.024,0.001 -0.01,0.002 -0.019,0.004 -0.025,0.007 -0.007,0.003 -0.015,0.006 -0.025,0.009 L 0.678,-0.092 0.581,-0.141 H 0.441 C 0.417,-0.141 0.394,-0.145 0.373,-0.154 0.351,-0.163 0.333,-0.176 0.317,-0.192 0.301,-0.208 0.288,-0.226 0.279,-0.248 0.27,-0.269 0.265,-0.292 0.265,-0.316 c 0,-0.024 0.005,-0.047 0.014,-0.068 0.009,-0.021 0.022,-0.04 0.038,-0.056 0.015,-0.016 0.034,-0.028 0.055,-0.038 0.022,-0.009 0.045,-0.013 0.069,-0.013 0.013,0 0.026,0.001 0.039,0.004 0.013,0.003 0.025,0.007 0.037,0.013 0.006,-0.028 0.016,-0.054 0.031,-0.078 0.015,-0.024 0.033,-0.044 0.055,-0.061 0.021,-0.017 0.045,-0.03 0.071,-0.04 0.026,-0.009 0.054,-0.014 0.083,-0.014 0.034,0 0.066,0.006 0.095,0.019 0.03,0.013 0.056,0.031 0.078,0.053 0.023,0.022 0.04,0.048 0.053,0.078 0.013,0.03 0.019,0.062 0.019,0.096 z"
         style="fill:#ffffff;fill-rule:nonzero"
         id="path9286" /><path
         d="m 0.757,-0.281 -0.07,0.14 h 0.14 L 0.546,0.14 0.634,-0.035 H 0.529 l 0.122,-0.246 z"
         style="fill:#ffb900;fill-rule:nonzero"
         id="path9288" /></g></g></svg>
