<?xml version="1.0" encoding="UTF-8" standalone="no"?>
<svg
   width="16.860001"
   height="15.81"
   viewBox="0 0 16.860001 15.81"
   version="1.1"
   xml:space="preserve"
   style="clip-rule:evenodd;fill-rule:evenodd;stroke-linejoin:round;stroke-miterlimit:2"
   id="svg20568"
   sodipodi:docname="emojis.svg"
   xmlns:inkscape="http://www.inkscape.org/namespaces/inkscape"
   xmlns:sodipodi="http://sodipodi.sourceforge.net/DTD/sodipodi-0.dtd"
   xmlns="http://www.w3.org/2000/svg"
   xmlns:svg="http://www.w3.org/2000/svg"><defs
     id="defs20572" /><sodipodi:namedview
     id="namedview20570"
     pagecolor="#505050"
     bordercolor="#eeeeee"
     borderopacity="1"
     inkscape:pageshadow="0"
     inkscape:pageopacity="0"
     inkscape:pagecheckerboard="0" /><g
     transform="matrix(0.24,0,0,0.24,-237.15156,-439.2276)"
     id="g20566"><g
       transform="matrix(62.5,0,0,62.5,980.319,1884.99)"
       id="g9300"><path
         d="M 0.652,0.049 0.551,0.163 C 0.543,0.171 0.533,0.176 0.521,0.176 0.512,0.176 0.504,0.173 0.497,0.167 0.489,0.162 0.485,0.154 0.483,0.145 L 0.452,-0.005 0.405,0.011 C 0.394,0.015 0.382,0.019 0.371,0.023 0.359,0.027 0.348,0.031 0.338,0.034 0.327,0.037 0.318,0.04 0.311,0.042 0.303,0.044 0.298,0.045 0.295,0.045 0.284,0.045 0.275,0.042 0.267,0.034 0.26,0.026 0.256,0.017 0.256,0.006 0.256,0.003 0.257,-0.002 0.259,-0.01 0.261,-0.018 0.264,-0.027 0.267,-0.037 0.27,-0.048 0.274,-0.059 0.278,-0.07 0.282,-0.082 0.286,-0.093 0.289,-0.104 0.293,-0.115 0.296,-0.124 0.299,-0.133 0.302,-0.141 0.304,-0.147 0.306,-0.151 L 0.157,-0.182 C 0.147,-0.184 0.14,-0.188 0.134,-0.196 0.128,-0.203 0.125,-0.211 0.125,-0.221 c 0,-0.011 0.004,-0.021 0.013,-0.029 L 0.252,-0.351 0.138,-0.452 C 0.129,-0.46 0.125,-0.47 0.125,-0.481 c 0,-0.01 0.003,-0.018 0.009,-0.026 0.006,-0.007 0.013,-0.012 0.023,-0.014 L 0.306,-0.551 0.289,-0.598 C 0.286,-0.609 0.282,-0.621 0.278,-0.632 0.274,-0.644 0.27,-0.655 0.267,-0.665 0.264,-0.676 0.261,-0.685 0.259,-0.692 0.257,-0.7 0.256,-0.705 0.256,-0.708 c 0,-0.011 0.004,-0.02 0.011,-0.028 0.008,-0.008 0.017,-0.012 0.028,-0.012 0.003,0 0.008,0.001 0.016,0.004 0.007,0.002 0.016,0.004 0.027,0.008 0.01,0.003 0.021,0.007 0.033,0.011 l 0.063,0.021 c 0.008,0.003 0.014,0.005 0.018,0.007 l 0.031,-0.15 c 0.002,-0.009 0.006,-0.017 0.014,-0.022 0.007,-0.006 0.015,-0.009 0.024,-0.009 0.012,0 0.022,0.004 0.03,0.013 l 0.101,0.114 0.101,-0.114 c 0.008,-0.009 0.018,-0.013 0.03,-0.013 0.009,0 0.017,0.003 0.025,0.009 0.007,0.006 0.011,0.013 0.013,0.023 L 0.852,-0.697 0.9,-0.714 c 0.011,-0.003 0.022,-0.007 0.034,-0.011 0.011,-0.004 0.022,-0.008 0.033,-0.011 0.01,-0.004 0.019,-0.006 0.027,-0.008 0.007,-0.003 0.013,-0.004 0.015,-0.004 0.011,0 0.02,0.004 0.028,0.012 0.008,0.008 0.011,0.017 0.011,0.028 0,0.004 -0.001,0.011 -0.004,0.021 -0.003,0.009 -0.006,0.02 -0.01,0.031 l -0.019,0.054 c 0.031,0.017 0.057,0.039 0.078,0.066 0.021,0.027 0.035,0.058 0.043,0.092 0.017,0.006 0.033,0.015 0.046,0.026 0.014,0.011 0.026,0.024 0.036,0.038 0.01,0.014 0.017,0.03 0.022,0.047 0.006,0.017 0.009,0.034 0.009,0.052 0,0.025 -0.005,0.048 -0.015,0.07 -0.01,0.021 -0.024,0.04 -0.041,0.055 -0.017,0.016 -0.036,0.028 -0.058,0.037 -0.022,0.009 -0.046,0.014 -0.07,0.014 H 1.013 c 0.001,0.003 0.003,0.007 0.005,0.013 0.002,0.006 0.005,0.013 0.007,0.02 0.003,0.008 0.006,0.015 0.008,0.023 0.003,0.008 0.006,0.016 0.008,0.023 0.002,0.007 0.004,0.014 0.005,0.019 0.002,0.006 0.002,0.01 0.002,0.013 0,0.011 -0.003,0.02 -0.011,0.028 C 1.029,0.042 1.02,0.045 1.009,0.045 1.007,0.045 1.001,0.044 0.994,0.042 0.986,0.04 0.977,0.037 0.967,0.034 0.956,0.031 0.945,0.027 0.934,0.023 L 0.871,0.001 C 0.862,-0.001 0.856,-0.004 0.852,-0.005 L 0.821,0.145 C 0.819,0.154 0.815,0.162 0.808,0.167 0.8,0.173 0.792,0.176 0.783,0.176 0.771,0.176 0.761,0.171 0.753,0.163 Z"
         style="fill-rule:nonzero"
         id="path9292" /><path
         d="M 0.96,-0.043 0.805,-0.095 0.798,-0.091 0.765,0.07 0.656,-0.053 H 0.648 L 0.539,0.07 0.506,-0.091 0.5,-0.095 0.344,-0.043 0.396,-0.198 0.392,-0.205 0.231,-0.238 0.354,-0.347 V -0.355 L 0.231,-0.464 0.392,-0.497 0.396,-0.503 0.344,-0.659 0.5,-0.607 0.506,-0.611 0.539,-0.772 0.648,-0.649 h 0.008 l 0.109,-0.123 0.033,0.161 0.007,0.004 0.155,-0.052 -0.052,0.156 c 0.014,0.023 0.025,0.047 0.032,0.073 0.007,0.026 0.01,0.052 0.01,0.079 0,0.027 -0.003,0.053 -0.011,0.079 -0.007,0.026 -0.017,0.051 -0.031,0.074 z"
         style="fill:#ffb900;fill-rule:nonzero"
         id="path9294" /><path
         d="m 0.897,-0.351 c 0,0.034 -0.006,0.066 -0.019,0.096 -0.013,0.03 -0.03,0.056 -0.053,0.078 -0.022,0.022 -0.048,0.039 -0.078,0.052 -0.029,0.013 -0.061,0.02 -0.095,0.02 -0.034,0 -0.066,-0.007 -0.096,-0.02 C 0.526,-0.138 0.5,-0.155 0.478,-0.177 0.456,-0.199 0.438,-0.225 0.426,-0.255 c -0.013,-0.03 -0.02,-0.062 -0.02,-0.096 0,-0.034 0.007,-0.066 0.02,-0.096 0.012,-0.029 0.03,-0.055 0.052,-0.078 0.022,-0.022 0.048,-0.04 0.078,-0.052 0.03,-0.013 0.062,-0.02 0.096,-0.02 0.034,0 0.066,0.007 0.095,0.02 0.03,0.012 0.056,0.03 0.078,0.052 0.023,0.023 0.04,0.049 0.053,0.078 0.013,0.03 0.019,0.062 0.019,0.096 z"
         style="fill:#fce100;fill-rule:nonzero"
         id="path9296" /><path
         d="m 1.073,-0.386 c 0.015,0 0.029,0.003 0.041,0.008 0.013,0.006 0.024,0.013 0.033,0.023 0.01,0.009 0.017,0.021 0.023,0.033 0.005,0.013 0.008,0.027 0.008,0.041 0,0.015 -0.003,0.029 -0.008,0.041 -0.006,0.013 -0.013,0.024 -0.023,0.033 -0.009,0.01 -0.02,0.017 -0.033,0.023 -0.012,0.005 -0.026,0.008 -0.041,0.008 H 0.687 c -0.02,0 -0.038,-0.003 -0.055,-0.011 C 0.615,-0.194 0.601,-0.204 0.588,-0.217 0.575,-0.229 0.565,-0.244 0.558,-0.261 0.551,-0.278 0.547,-0.296 0.547,-0.316 c 0,-0.019 0.004,-0.038 0.011,-0.055 0.007,-0.017 0.017,-0.032 0.03,-0.045 0.013,-0.012 0.027,-0.022 0.044,-0.03 0.017,-0.007 0.035,-0.011 0.055,-0.011 0.016,0 0.031,0.003 0.046,0.009 0.007,-0.017 0.016,-0.033 0.027,-0.047 0.011,-0.014 0.024,-0.026 0.038,-0.036 0.014,-0.009 0.03,-0.017 0.047,-0.022 0.017,-0.006 0.034,-0.009 0.052,-0.009 0.025,0 0.047,0.005 0.069,0.014 0.021,0.009 0.04,0.022 0.055,0.038 0.016,0.016 0.029,0.034 0.038,0.055 0.01,0.022 0.014,0.044 0.014,0.069 z"
         style="fill:#ffffff;fill-rule:nonzero"
         id="path9298" /></g></g></svg>
