<?xml version="1.0" encoding="UTF-8" standalone="no"?>
<svg
   width="16.844999"
   height="11.595"
   viewBox="0 0 16.844999 11.595"
   version="1.1"
   xml:space="preserve"
   style="clip-rule:evenodd;fill-rule:evenodd;stroke-linejoin:round;stroke-miterlimit:2"
   id="svg20568"
   sodipodi:docname="emojis.svg"
   xmlns:inkscape="http://www.inkscape.org/namespaces/inkscape"
   xmlns:sodipodi="http://sodipodi.sourceforge.net/DTD/sodipodi-0.dtd"
   xmlns="http://www.w3.org/2000/svg"
   xmlns:svg="http://www.w3.org/2000/svg"><defs
     id="defs20572" /><sodipodi:namedview
     id="namedview20570"
     pagecolor="#505050"
     bordercolor="#eeeeee"
     borderopacity="1"
     inkscape:pageshadow="0"
     inkscape:pageopacity="0"
     inkscape:pagecheckerboard="0" /><g
     transform="matrix(0.24,0,0,0.24,-257.6598,-439.7526)"
     id="g20566"><g
       transform="matrix(62.5,0,0,62.5,1065.77,1884.99)"
       id="g9310"><path
         d="m 1.065,-0.49 c 0.026,0.004 0.05,0.012 0.072,0.024 0.023,0.012 0.042,0.028 0.059,0.046 0.016,0.019 0.029,0.04 0.038,0.064 0.009,0.023 0.014,0.048 0.014,0.075 0,0.03 -0.006,0.058 -0.018,0.083 C 1.219,-0.172 1.203,-0.15 1.183,-0.131 1.163,-0.112 1.14,-0.097 1.114,-0.086 1.087,-0.076 1.059,-0.07 1.03,-0.07 H 0.441 C 0.407,-0.07 0.375,-0.077 0.345,-0.09 0.316,-0.102 0.29,-0.12 0.267,-0.142 0.245,-0.164 0.227,-0.19 0.215,-0.22 0.202,-0.25 0.195,-0.282 0.195,-0.315 0.195,-0.317 0.192,-0.319 0.184,-0.32 0.177,-0.322 0.169,-0.324 0.16,-0.326 0.151,-0.329 0.143,-0.333 0.136,-0.338 0.129,-0.342 0.125,-0.349 0.125,-0.357 c 0,-0.007 0.001,-0.014 0.002,-0.019 0.001,-0.006 0.005,-0.012 0.011,-0.017 L 0.209,-0.457 0.138,-0.52 C 0.135,-0.522 0.132,-0.526 0.129,-0.53 0.126,-0.535 0.125,-0.539 0.125,-0.542 c 0,-0.012 0.002,-0.022 0.006,-0.03 0.005,-0.008 0.013,-0.013 0.025,-0.016 L 0.25,-0.607 C 0.248,-0.612 0.245,-0.62 0.242,-0.629 0.238,-0.639 0.235,-0.649 0.231,-0.66 0.227,-0.671 0.224,-0.681 0.221,-0.691 0.219,-0.7 0.217,-0.707 0.217,-0.711 c 0,-0.011 0.004,-0.02 0.012,-0.028 0.008,-0.007 0.017,-0.011 0.028,-0.011 0.004,0 0.01,0.001 0.02,0.004 0.01,0.003 0.02,0.006 0.031,0.01 0.01,0.003 0.021,0.007 0.03,0.01 0.01,0.004 0.017,0.007 0.022,0.008 L 0.379,-0.812 C 0.381,-0.821 0.386,-0.829 0.393,-0.834 0.4,-0.84 0.409,-0.843 0.418,-0.843 c 0.012,0 0.022,0.005 0.03,0.013 l 0.063,0.072 0.064,-0.072 c 0.008,-0.008 0.017,-0.013 0.029,-0.013 0.009,0 0.018,0.003 0.025,0.009 0.007,0.005 0.012,0.013 0.014,0.022 l 0.018,0.09 c 0.016,-0.005 0.032,-0.009 0.047,-0.011 0.016,-0.003 0.033,-0.004 0.049,-0.004 0.037,0 0.072,0.006 0.106,0.018 0.033,0.012 0.064,0.029 0.091,0.051 0.027,0.022 0.051,0.048 0.07,0.079 0.02,0.03 0.033,0.063 0.041,0.099 z"
         style="fill-rule:nonzero"
         id="path9302" /><path
         d="M 0.707,-0.457 0.792,-0.381 0.681,-0.358 0.717,-0.251 0.609,-0.287 0.586,-0.176 0.511,-0.26 0.436,-0.176 0.413,-0.287 0.306,-0.251 0.341,-0.358 0.23,-0.381 0.315,-0.457 0.23,-0.532 0.341,-0.554 0.306,-0.662 l 0.107,0.036 0.023,-0.111 0.075,0.085 0.075,-0.085 0.023,0.111 0.063,-0.021 0.009,0.093 0.111,0.022 z"
         style="fill:#ffb900;fill-rule:nonzero"
         id="path9304" /><path
         d="M 0.511,-0.316 C 0.492,-0.316 0.473,-0.32 0.456,-0.327 0.439,-0.334 0.424,-0.344 0.412,-0.357 0.399,-0.37 0.389,-0.385 0.382,-0.402 0.374,-0.419 0.371,-0.437 0.371,-0.457 c 0,-0.019 0.003,-0.037 0.011,-0.054 0.007,-0.017 0.017,-0.032 0.03,-0.045 0.013,-0.012 0.028,-0.022 0.045,-0.03 0.017,-0.007 0.035,-0.011 0.054,-0.011 0.019,0 0.038,0.004 0.055,0.011 0.017,0.008 0.032,0.018 0.044,0.03 0.013,0.013 0.023,0.028 0.03,0.045 0.008,0.017 0.011,0.035 0.011,0.054 0,0.02 -0.003,0.038 -0.011,0.055 -0.007,0.017 -0.017,0.032 -0.03,0.045 -0.012,0.012 -0.027,0.022 -0.044,0.03 -0.017,0.007 -0.036,0.011 -0.055,0.011 z"
         style="fill:#fce100;fill-rule:nonzero"
         id="path9306" /><path
         d="m 1.002,-0.421 h 0.036 c 0.019,0 0.037,0.003 0.054,0.011 0.017,0.007 0.032,0.017 0.045,0.03 0.012,0.012 0.022,0.027 0.03,0.044 0.007,0.017 0.011,0.036 0.011,0.055 0,0.019 -0.004,0.038 -0.011,0.055 -0.008,0.017 -0.018,0.032 -0.03,0.044 -0.013,0.013 -0.028,0.023 -0.045,0.03 -0.017,0.008 -0.035,0.011 -0.054,0.011 H 0.441 C 0.417,-0.141 0.394,-0.145 0.373,-0.154 0.351,-0.163 0.333,-0.176 0.317,-0.192 0.301,-0.208 0.288,-0.226 0.279,-0.248 0.27,-0.269 0.265,-0.292 0.265,-0.316 c 0,-0.024 0.005,-0.047 0.014,-0.068 0.009,-0.021 0.022,-0.04 0.038,-0.056 0.015,-0.016 0.034,-0.028 0.055,-0.038 0.022,-0.009 0.045,-0.013 0.069,-0.013 0.013,0 0.026,0.001 0.039,0.004 0.013,0.003 0.025,0.007 0.037,0.013 0.006,-0.028 0.016,-0.054 0.031,-0.078 0.015,-0.024 0.033,-0.044 0.055,-0.061 0.021,-0.017 0.045,-0.03 0.071,-0.04 0.026,-0.009 0.054,-0.014 0.083,-0.014 0.034,0 0.066,0.006 0.095,0.019 0.03,0.013 0.056,0.031 0.078,0.053 0.023,0.022 0.04,0.048 0.053,0.078 0.013,0.03 0.019,0.062 0.019,0.096 z"
         style="fill:#ffffff;fill-rule:nonzero"
         id="path9308" /></g></g></svg>
