<?xml version="1.0" encoding="UTF-8" standalone="no"?>
<svg
   width="16.844999"
   height="16.844999"
   viewBox="0 0 16.844999 16.844999"
   version="1.1"
   xml:space="preserve"
   style="clip-rule:evenodd;fill-rule:evenodd;stroke-linejoin:round;stroke-miterlimit:2"
   id="svg20568"
   sodipodi:docname="emojis.svg"
   xmlns:inkscape="http://www.inkscape.org/namespaces/inkscape"
   xmlns:sodipodi="http://sodipodi.sourceforge.net/DTD/sodipodi-0.dtd"
   xmlns="http://www.w3.org/2000/svg"
   xmlns:svg="http://www.w3.org/2000/svg"><defs
     id="defs20572" /><sodipodi:namedview
     id="namedview20570"
     pagecolor="#505050"
     bordercolor="#eeeeee"
     borderopacity="1"
     inkscape:pageshadow="0"
     inkscape:pageopacity="0"
     inkscape:pagecheckerboard="0" /><g
     transform="matrix(0.24,0,0,0.24,-278.2542,-438.7026)"
     id="g20566"><g
       transform="matrix(62.5,0,0,62.5,1151.58,1884.99)"
       id="g9322"><path
         d="m 1.065,-0.49 c 0.026,0.004 0.05,0.012 0.072,0.024 0.023,0.012 0.042,0.028 0.059,0.046 0.016,0.019 0.029,0.04 0.038,0.064 0.009,0.023 0.014,0.048 0.014,0.075 0,0.026 -0.004,0.05 -0.013,0.073 -0.009,0.023 -0.021,0.044 -0.037,0.062 -0.015,0.018 -0.034,0.033 -0.055,0.046 -0.022,0.012 -0.045,0.021 -0.07,0.026 v 0.021 c 0,0.017 -0.004,0.033 -0.01,0.048 C 1.056,0.01 1.048,0.023 1.037,0.034 1.026,0.045 1.013,0.054 0.998,0.061 0.983,0.067 0.967,0.07 0.95,0.07 0.94,0.07 0.931,0.069 0.923,0.067 0.914,0.065 0.905,0.062 0.897,0.058 V 0.087 C 0.897,0.104 0.894,0.12 0.887,0.135 0.881,0.15 0.872,0.163 0.861,0.174 0.85,0.185 0.837,0.194 0.822,0.201 0.807,0.207 0.791,0.21 0.774,0.21 0.757,0.21 0.742,0.207 0.727,0.201 0.712,0.194 0.699,0.185 0.688,0.174 0.676,0.163 0.668,0.15 0.661,0.135 0.655,0.12 0.651,0.104 0.651,0.087 V 0.078 C 0.651,0.075 0.652,0.072 0.652,0.068 0.646,0.067 0.64,0.066 0.634,0.064 0.628,0.062 0.622,0.06 0.616,0.058 V 0.087 C 0.616,0.104 0.613,0.12 0.606,0.135 0.6,0.15 0.591,0.163 0.58,0.174 0.569,0.185 0.556,0.194 0.541,0.201 0.526,0.207 0.511,0.21 0.494,0.21 0.477,0.21 0.461,0.207 0.446,0.201 0.431,0.194 0.418,0.185 0.407,0.174 0.396,0.163 0.387,0.15 0.38,0.135 0.374,0.12 0.371,0.104 0.371,0.087 c 0,-0.003 0,-0.006 0,-0.009 0,-0.003 0,-0.006 0.001,-0.01 C 0.356,0.066 0.342,0.062 0.329,0.055 0.316,0.048 0.305,0.039 0.296,0.028 0.286,0.017 0.279,0.005 0.273,-0.009 0.268,-0.023 0.265,-0.037 0.265,-0.053 c 0,-0.013 0.002,-0.025 0.006,-0.038 0.004,-0.012 0.01,-0.023 0.018,-0.034 -0.03,-0.023 -0.053,-0.051 -0.07,-0.084 -0.016,-0.033 -0.024,-0.069 -0.024,-0.107 0,-0.023 0.003,-0.046 0.01,-0.069 C 0.2,-0.386 0.192,-0.387 0.183,-0.388 0.174,-0.39 0.166,-0.392 0.157,-0.395 0.148,-0.398 0.141,-0.402 0.135,-0.407 c -0.007,-0.005 -0.01,-0.012 -0.01,-0.02 0,-0.008 0,-0.014 0.001,-0.02 0.001,-0.005 0.005,-0.01 0.012,-0.016 L 0.209,-0.526 0.138,-0.59 C 0.135,-0.592 0.132,-0.596 0.129,-0.601 0.126,-0.605 0.125,-0.609 0.125,-0.613 c 0,-0.011 0.002,-0.021 0.006,-0.029 0.005,-0.008 0.013,-0.014 0.025,-0.016 L 0.25,-0.677 C 0.248,-0.682 0.245,-0.69 0.242,-0.699 0.238,-0.709 0.235,-0.72 0.231,-0.73 0.227,-0.741 0.224,-0.751 0.221,-0.761 0.219,-0.771 0.217,-0.777 0.217,-0.781 c 0,-0.005 0.001,-0.01 0.003,-0.015 0.003,-0.005 0.006,-0.009 0.009,-0.012 0.004,-0.004 0.008,-0.007 0.013,-0.009 0.005,-0.002 0.01,-0.003 0.015,-0.003 0.004,0 0.01,0.002 0.02,0.004 0.01,0.003 0.02,0.006 0.031,0.01 0.01,0.003 0.021,0.007 0.03,0.011 0.01,0.003 0.017,0.006 0.022,0.007 L 0.379,-0.881 C 0.38,-0.885 0.381,-0.888 0.383,-0.892 0.385,-0.896 0.388,-0.899 0.391,-0.902 0.394,-0.905 0.397,-0.908 0.4,-0.91 c 0.004,-0.002 0.008,-0.003 0.012,-0.003 0.007,0 0.014,0.001 0.019,0.002 0.006,0.001 0.011,0.005 0.017,0.011 L 0.511,-0.828 0.575,-0.9 c 0.002,-0.003 0.006,-0.005 0.01,-0.008 0.005,-0.003 0.009,-0.005 0.013,-0.005 0.011,0 0.021,0.003 0.029,0.007 0.008,0.004 0.013,0.012 0.016,0.025 l 0.019,0.093 c 0.005,-0.001 0.012,-0.004 0.022,-0.007 0.01,-0.004 0.02,-0.008 0.031,-0.011 0.011,-0.004 0.021,-0.007 0.03,-0.01 0.01,-0.002 0.016,-0.004 0.02,-0.004 0.011,0 0.02,0.004 0.028,0.012 0.008,0.007 0.012,0.016 0.012,0.027 0,0.008 -0.002,0.015 -0.005,0.023 -0.003,0.008 -0.006,0.016 -0.008,0.023 0.033,0.004 0.065,0.012 0.095,0.026 0.03,0.014 0.057,0.031 0.081,0.053 0.023,0.021 0.044,0.046 0.061,0.074 0.016,0.029 0.028,0.059 0.036,0.092 z"
         style="fill-rule:nonzero"
         id="path9312" /><path
         d="m 0.364,-0.1 0.077,-0.041 v 0.088 c 0,0.008 -0.001,0.015 -0.004,0.021 C 0.434,-0.026 0.43,-0.02 0.426,-0.015 0.421,-0.011 0.415,-0.007 0.409,-0.004 0.402,-0.001 0.395,0 0.388,0 0.381,0 0.374,-0.001 0.367,-0.004 0.361,-0.007 0.356,-0.011 0.351,-0.015 0.346,-0.02 0.342,-0.026 0.34,-0.032 0.337,-0.038 0.335,-0.045 0.335,-0.053 c 0,-0.009 0.003,-0.019 0.008,-0.027 0.005,-0.008 0.012,-0.015 0.021,-0.02 z m 0.561,0 0.077,-0.041 v 0.088 c 0,0.008 -0.001,0.015 -0.004,0.021 C 0.996,-0.026 0.992,-0.02 0.987,-0.015 0.982,-0.011 0.977,-0.007 0.97,-0.004 0.964,-0.001 0.957,0 0.95,0 0.942,0 0.935,-0.001 0.929,-0.004 0.923,-0.007 0.917,-0.011 0.912,-0.015 0.908,-0.02 0.904,-0.026 0.901,-0.032 0.898,-0.038 0.897,-0.045 0.897,-0.053 0.897,-0.062 0.9,-0.072 0.905,-0.08 0.91,-0.088 0.917,-0.095 0.925,-0.1 Z m -0.28,0 0.077,-0.041 v 0.088 c 0,0.008 -0.002,0.015 -0.004,0.021 C 0.715,-0.026 0.711,-0.02 0.706,-0.015 0.702,-0.011 0.696,-0.007 0.689,-0.004 0.683,-0.001 0.676,0 0.669,0 0.661,0 0.655,-0.001 0.648,-0.004 0.642,-0.007 0.636,-0.011 0.632,-0.015 0.627,-0.02 0.623,-0.026 0.62,-0.032 0.618,-0.038 0.616,-0.045 0.616,-0.053 0.616,-0.062 0.619,-0.072 0.624,-0.08 0.629,-0.088 0.636,-0.095 0.645,-0.1 Z M 0.441,0.087 C 0.441,0.077 0.443,0.068 0.448,0.06 0.454,0.052 0.46,0.046 0.469,0.041 L 0.546,0 V 0.087 C 0.546,0.095 0.545,0.101 0.542,0.108 0.539,0.114 0.535,0.12 0.531,0.125 0.526,0.129 0.521,0.133 0.514,0.136 0.508,0.139 0.501,0.14 0.494,0.14 0.486,0.14 0.479,0.139 0.473,0.136 0.467,0.133 0.461,0.129 0.456,0.125 0.452,0.12 0.448,0.115 0.445,0.108 0.442,0.102 0.441,0.095 0.441,0.087 Z m 0.281,0 C 0.722,0.077 0.724,0.068 0.729,0.06 0.734,0.052 0.741,0.046 0.75,0.041 L 0.827,0 V 0.087 C 0.827,0.095 0.825,0.101 0.823,0.108 0.82,0.114 0.816,0.12 0.812,0.125 0.807,0.129 0.801,0.133 0.795,0.136 0.788,0.139 0.782,0.14 0.774,0.14 0.767,0.14 0.76,0.139 0.754,0.136 0.747,0.133 0.742,0.129 0.737,0.125 0.732,0.12 0.729,0.115 0.726,0.108 0.723,0.102 0.722,0.095 0.722,0.087 Z"
         style="fill:#00bcf2;fill-rule:nonzero"
         id="path9314" /><path
         d="M 0.707,-0.526 0.792,-0.451 0.681,-0.429 0.717,-0.321 0.609,-0.357 0.586,-0.246 0.511,-0.331 0.436,-0.246 0.413,-0.357 0.306,-0.321 0.341,-0.429 0.23,-0.451 0.315,-0.526 0.23,-0.602 0.341,-0.625 0.306,-0.732 l 0.107,0.036 0.023,-0.111 0.075,0.084 0.075,-0.084 0.023,0.111 0.108,-0.036 -0.036,0.107 0.111,0.023 z"
         style="fill:#ffb900;fill-rule:nonzero"
         id="path9316" /><path
         d="M 0.511,-0.386 C 0.492,-0.386 0.474,-0.39 0.457,-0.397 0.44,-0.405 0.425,-0.415 0.412,-0.427 0.399,-0.44 0.389,-0.455 0.382,-0.472 0.374,-0.489 0.371,-0.507 0.371,-0.526 c 0,-0.02 0.003,-0.038 0.011,-0.055 0.007,-0.017 0.017,-0.032 0.03,-0.045 0.012,-0.013 0.027,-0.023 0.044,-0.03 0.017,-0.007 0.036,-0.011 0.055,-0.011 0.019,0 0.038,0.004 0.055,0.011 0.017,0.008 0.032,0.018 0.044,0.031 0.013,0.012 0.023,0.027 0.03,0.044 0.008,0.017 0.011,0.035 0.011,0.055 0,0.019 -0.003,0.037 -0.011,0.054 -0.007,0.017 -0.017,0.032 -0.03,0.045 -0.012,0.012 -0.027,0.022 -0.044,0.03 -0.017,0.007 -0.036,0.011 -0.055,0.011 z"
         style="fill:#fce100;fill-rule:nonzero"
         id="path9318" /><path
         d="m 1.002,-0.421 h 0.036 c 0.019,0 0.037,0.003 0.054,0.011 0.017,0.007 0.032,0.017 0.045,0.03 0.012,0.012 0.022,0.027 0.03,0.044 0.007,0.017 0.011,0.036 0.011,0.055 0,0.019 -0.004,0.038 -0.011,0.055 -0.008,0.017 -0.018,0.032 -0.03,0.044 -0.013,0.013 -0.028,0.023 -0.045,0.03 -0.017,0.008 -0.035,0.011 -0.054,0.011 H 0.441 C 0.417,-0.141 0.394,-0.145 0.373,-0.154 0.351,-0.163 0.333,-0.176 0.317,-0.192 0.301,-0.208 0.288,-0.226 0.279,-0.248 0.27,-0.269 0.265,-0.292 0.265,-0.316 c 0,-0.024 0.005,-0.047 0.014,-0.068 0.009,-0.021 0.022,-0.04 0.038,-0.056 0.015,-0.016 0.034,-0.028 0.055,-0.038 0.022,-0.009 0.045,-0.013 0.069,-0.013 0.013,0 0.026,0.001 0.039,0.004 0.013,0.003 0.025,0.007 0.037,0.013 0.006,-0.028 0.016,-0.054 0.031,-0.078 0.015,-0.024 0.033,-0.044 0.055,-0.061 0.021,-0.017 0.045,-0.03 0.071,-0.04 0.026,-0.009 0.054,-0.014 0.083,-0.014 0.034,0 0.066,0.006 0.095,0.019 0.03,0.013 0.056,0.031 0.078,0.053 0.023,0.022 0.04,0.048 0.053,0.078 0.013,0.03 0.019,0.062 0.019,0.096 z"
         style="fill:#ffffff;fill-rule:nonzero"
         id="path9320" /></g></g></svg>
