<?xml version="1.0" encoding="UTF-8" standalone="no"?>
<svg
   width="16.844999"
   height="16.844999"
   viewBox="0 0 16.844999 16.844999"
   version="1.1"
   xml:space="preserve"
   style="clip-rule:evenodd;fill-rule:evenodd;stroke-linejoin:round;stroke-miterlimit:2"
   id="svg20568"
   sodipodi:docname="emojis.svg"
   xmlns:inkscape="http://www.inkscape.org/namespaces/inkscape"
   xmlns:sodipodi="http://sodipodi.sourceforge.net/DTD/sodipodi-0.dtd"
   xmlns="http://www.w3.org/2000/svg"
   xmlns:svg="http://www.w3.org/2000/svg"><defs
     id="defs20572" /><sodipodi:namedview
     id="namedview20570"
     pagecolor="#505050"
     bordercolor="#eeeeee"
     borderopacity="1"
     inkscape:pageshadow="0"
     inkscape:pageopacity="0"
     inkscape:pagecheckerboard="0" /><g
     transform="matrix(0.24,0,0,0.24,-136.78788,-110.71908)"
     id="g20566"><g
       transform="matrix(62.5,0,0,62.5,562.137,518.392)"
       id="g932"><path
         d="m 0.687,-0.913 c 0.051,0 0.101,0.007 0.148,0.02 0.048,0.014 0.093,0.033 0.135,0.057 0.041,0.024 0.079,0.054 0.113,0.088 0.035,0.034 0.064,0.072 0.088,0.114 0.025,0.041 0.044,0.086 0.057,0.134 0.013,0.048 0.02,0.097 0.02,0.149 0,0.052 -0.007,0.101 -0.02,0.149 C 1.215,-0.154 1.196,-0.11 1.171,-0.068 1.147,-0.026 1.118,0.012 1.083,0.046 1.049,0.08 1.011,0.109 0.97,0.134 0.928,0.158 0.883,0.177 0.835,0.19 0.788,0.204 0.738,0.21 0.687,0.21 0.649,0.21 0.612,0.207 0.575,0.199 0.538,0.192 0.503,0.181 0.468,0.167 0.462,0.164 0.457,0.162 0.453,0.16 0.449,0.158 0.444,0.156 0.438,0.153 0.433,0.15 0.428,0.148 0.424,0.145 0.42,0.143 0.416,0.14 0.41,0.138 0.404,0.135 0.399,0.134 0.395,0.134 0.39,0.133 0.385,0.132 0.38,0.13 0.359,0.122 0.341,0.112 0.328,0.1 0.314,0.087 0.301,0.072 0.289,0.054 0.287,0.051 0.285,0.048 0.284,0.045 0.283,0.042 0.282,0.039 0.28,0.037 0.229,-0.016 0.191,-0.076 0.165,-0.142 0.138,-0.208 0.125,-0.278 0.125,-0.351 c 0,-0.052 0.007,-0.101 0.02,-0.149 0.013,-0.048 0.032,-0.093 0.057,-0.134 0.024,-0.042 0.053,-0.08 0.088,-0.114 0.034,-0.034 0.072,-0.064 0.113,-0.088 0.042,-0.024 0.087,-0.043 0.134,-0.057 0.048,-0.013 0.098,-0.02 0.15,-0.02 z"
         style="fill-rule:nonzero"
         id="path922" /><path
         d="m 1.178,-0.351 c 0,0.045 -0.006,0.089 -0.018,0.131 -0.012,0.041 -0.028,0.081 -0.049,0.117 -0.022,0.036 -0.047,0.07 -0.077,0.099 C 1.004,0.026 0.971,0.052 0.935,0.073 0.898,0.094 0.859,0.111 0.817,0.123 0.775,0.134 0.732,0.14 0.687,0.14 0.641,0.14 0.598,0.134 0.556,0.123 0.514,0.111 0.475,0.094 0.438,0.073 0.402,0.052 0.369,0.026 0.339,-0.004 0.309,-0.033 0.284,-0.067 0.262,-0.103 0.241,-0.139 0.225,-0.179 0.213,-0.22 0.201,-0.262 0.195,-0.306 0.195,-0.351 c 0,-0.045 0.006,-0.089 0.018,-0.131 0.012,-0.042 0.028,-0.081 0.049,-0.117 0.022,-0.037 0.047,-0.07 0.077,-0.099 0.03,-0.03 0.063,-0.056 0.099,-0.077 0.037,-0.021 0.076,-0.038 0.118,-0.05 0.042,-0.011 0.085,-0.017 0.131,-0.017 0.045,0 0.088,0.006 0.13,0.017 0.042,0.012 0.081,0.029 0.118,0.05 0.036,0.021 0.069,0.047 0.099,0.077 0.03,0.029 0.055,0.062 0.077,0.099 0.021,0.036 0.037,0.075 0.049,0.117 0.012,0.042 0.018,0.086 0.018,0.131 z"
         style="fill:#ffc83d;fill-rule:nonzero"
         id="path924" /><path
         d="M 0.371,-0.431 C 0.366,-0.431 0.362,-0.432 0.357,-0.434 0.353,-0.436 0.349,-0.439 0.346,-0.442 0.343,-0.445 0.34,-0.449 0.338,-0.453 0.336,-0.457 0.335,-0.462 0.335,-0.467 c 0,-0.008 0.003,-0.015 0.009,-0.023 0.014,-0.017 0.03,-0.032 0.049,-0.045 0.018,-0.014 0.037,-0.025 0.058,-0.034 0.021,-0.009 0.042,-0.016 0.064,-0.021 0.022,-0.004 0.044,-0.007 0.066,-0.007 0.01,0 0.018,0.004 0.025,0.011 0.007,0.006 0.01,0.015 0.01,0.024 0,0.01 -0.003,0.018 -0.01,0.025 -0.007,0.007 -0.016,0.011 -0.025,0.011 -0.037,0 -0.071,0.007 -0.101,0.021 -0.03,0.015 -0.057,0.035 -0.083,0.062 -0.004,0.004 -0.008,0.007 -0.012,0.009 -0.004,0.002 -0.009,0.003 -0.014,0.003 z m 0.386,-0.131 c 0,-0.009 0.003,-0.018 0.01,-0.024 0.007,-0.007 0.015,-0.011 0.025,-0.011 0.022,0 0.044,0.003 0.066,0.007 0.022,0.005 0.043,0.012 0.064,0.021 0.021,0.009 0.04,0.02 0.058,0.034 0.018,0.013 0.034,0.028 0.049,0.045 0.006,0.008 0.009,0.015 0.009,0.023 0,0.005 -0.001,0.01 -0.003,0.014 -0.002,0.004 -0.005,0.008 -0.008,0.011 -0.003,0.003 -0.007,0.006 -0.011,0.008 -0.005,0.002 -0.009,0.003 -0.014,0.003 -0.005,0 -0.01,-0.001 -0.014,-0.003 C 0.984,-0.436 0.98,-0.439 0.976,-0.443 0.95,-0.47 0.923,-0.49 0.893,-0.505 0.863,-0.519 0.829,-0.526 0.792,-0.526 0.783,-0.526 0.774,-0.53 0.767,-0.537 0.76,-0.544 0.757,-0.552 0.757,-0.562 Z"
         style="fill:#d48c00;fill-rule:nonzero"
         id="path926" /><path
         d="m 0.843,-0.035 c -0.01,0 -0.018,-0.004 -0.026,-0.012 C 0.799,-0.065 0.779,-0.08 0.758,-0.09 0.737,-0.1 0.713,-0.105 0.687,-0.105 0.66,-0.105 0.636,-0.1 0.615,-0.09 0.594,-0.08 0.574,-0.065 0.556,-0.047 0.549,-0.039 0.54,-0.035 0.529,-0.035 0.525,-0.035 0.52,-0.036 0.516,-0.038 0.512,-0.04 0.508,-0.043 0.505,-0.046 0.502,-0.049 0.499,-0.053 0.497,-0.057 0.495,-0.061 0.494,-0.066 0.494,-0.071 c 0,-0.008 0.003,-0.016 0.009,-0.023 0.011,-0.013 0.024,-0.024 0.038,-0.034 0.014,-0.011 0.029,-0.019 0.045,-0.026 0.016,-0.007 0.032,-0.012 0.049,-0.016 0.017,-0.004 0.034,-0.006 0.052,-0.006 0.016,0 0.033,0.002 0.051,0.006 0.017,0.004 0.033,0.009 0.049,0.016 0.016,0.007 0.031,0.015 0.045,0.026 0.014,0.01 0.026,0.021 0.038,0.034 0.006,0.007 0.009,0.015 0.009,0.023 0,0.01 -0.004,0.018 -0.011,0.025 -0.007,0.007 -0.015,0.011 -0.025,0.011 z M 0.494,-0.421 c 0.007,0 0.014,0.001 0.02,0.004 0.007,0.003 0.012,0.006 0.017,0.011 0.004,0.005 0.008,0.011 0.011,0.017 0.003,0.006 0.004,0.013 0.004,0.02 v 0.071 c 0,0.007 -0.001,0.014 -0.004,0.02 C 0.539,-0.272 0.535,-0.266 0.531,-0.261 0.526,-0.256 0.52,-0.253 0.514,-0.25 0.508,-0.247 0.501,-0.246 0.494,-0.246 0.486,-0.246 0.48,-0.247 0.473,-0.25 0.467,-0.253 0.461,-0.256 0.457,-0.261 0.452,-0.266 0.448,-0.272 0.445,-0.278 0.442,-0.284 0.441,-0.291 0.441,-0.298 v -0.071 c 0,-0.007 0.001,-0.014 0.004,-0.02 0.003,-0.007 0.007,-0.012 0.011,-0.017 0.005,-0.005 0.011,-0.008 0.017,-0.011 0.006,-0.003 0.013,-0.004 0.021,-0.004 z m 0.385,0 c 0.008,0 0.014,0.001 0.021,0.004 0.006,0.003 0.012,0.006 0.017,0.011 0.004,0.005 0.008,0.01 0.011,0.017 0.003,0.006 0.004,0.013 0.004,0.02 v 0.071 c 0,0.007 -0.001,0.014 -0.004,0.02 C 0.925,-0.272 0.921,-0.266 0.917,-0.261 0.912,-0.256 0.906,-0.253 0.9,-0.25 0.893,-0.247 0.887,-0.246 0.879,-0.246 0.872,-0.246 0.865,-0.247 0.859,-0.25 0.853,-0.253 0.847,-0.256 0.842,-0.261 0.837,-0.266 0.834,-0.272 0.831,-0.278 0.828,-0.284 0.827,-0.291 0.827,-0.298 v -0.071 c 0,-0.007 0.001,-0.014 0.004,-0.02 0.003,-0.006 0.006,-0.012 0.011,-0.017 0.005,-0.005 0.011,-0.008 0.017,-0.011 0.006,-0.003 0.013,-0.004 0.02,-0.004 z"
         style="fill-rule:nonzero"
         id="path928" /><path
         d="m 0.441,-0.246 0.089,0.155 c 0.005,0.009 0.009,0.018 0.012,0.027 0.003,0.01 0.004,0.02 0.004,0.03 0,0.015 -0.002,0.029 -0.008,0.041 C 0.533,0.02 0.525,0.031 0.516,0.04 0.506,0.05 0.495,0.057 0.482,0.062 0.469,0.067 0.456,0.07 0.441,0.07 0.426,0.07 0.413,0.067 0.4,0.062 0.387,0.057 0.376,0.05 0.366,0.04 0.357,0.031 0.349,0.02 0.344,0.007 0.338,-0.005 0.335,-0.019 0.335,-0.034 c 0,-0.01 0.002,-0.02 0.005,-0.029 0.002,-0.01 0.006,-0.019 0.012,-0.028 z"
         style="fill:#00bcf2;fill-rule:nonzero"
         id="path930" /></g></g></svg>
