<?xml version="1.0" encoding="UTF-8" standalone="no"?>
<svg
   width="15.795"
   height="14.205"
   viewBox="0 0 15.795 14.205"
   version="1.1"
   xml:space="preserve"
   style="clip-rule:evenodd;fill-rule:evenodd;stroke-linejoin:round;stroke-miterlimit:2"
   id="svg20568"
   sodipodi:docname="emojis.svg"
   xmlns:inkscape="http://www.inkscape.org/namespaces/inkscape"
   xmlns:sodipodi="http://sodipodi.sourceforge.net/DTD/sodipodi-0.dtd"
   xmlns="http://www.w3.org/2000/svg"
   xmlns:svg="http://www.w3.org/2000/svg"><defs
     id="defs20572" /><sodipodi:namedview
     id="namedview20570"
     pagecolor="#505050"
     bordercolor="#eeeeee"
     borderopacity="1"
     inkscape:pageshadow="0"
     inkscape:pageopacity="0"
     inkscape:pagecheckerboard="0" /><g
     transform="matrix(0.24,0,0,0.24,-298.851,-441.3426)"
     id="g20566"><g
       transform="matrix(62.5,0,0,62.5,1237.4,1884.99)"
       id="g9330"><path
         d="m 1.178,-0.281 c 0,0.026 -0.005,0.05 -0.013,0.073 -0.009,0.024 -0.021,0.044 -0.037,0.063 -0.016,0.019 -0.034,0.034 -0.055,0.047 -0.022,0.012 -0.045,0.021 -0.071,0.025 v 0.02 c 0,0.017 -0.003,0.033 -0.009,0.048 C 0.986,0.01 0.977,0.023 0.966,0.034 0.955,0.045 0.942,0.054 0.927,0.061 0.912,0.067 0.896,0.07 0.879,0.07 0.87,0.07 0.861,0.069 0.852,0.067 0.843,0.065 0.835,0.062 0.827,0.058 V 0.087 C 0.827,0.104 0.823,0.12 0.817,0.135 0.811,0.15 0.802,0.163 0.791,0.174 0.78,0.185 0.767,0.194 0.752,0.201 0.737,0.207 0.721,0.21 0.704,0.21 0.687,0.21 0.671,0.207 0.656,0.201 0.641,0.194 0.628,0.185 0.617,0.174 0.606,0.163 0.597,0.15 0.591,0.135 0.584,0.12 0.581,0.104 0.581,0.087 c 0,-0.003 0,-0.006 0,-0.009 0,-0.003 0.001,-0.006 0.001,-0.01 C 0.569,0.066 0.557,0.063 0.546,0.058 V 0.087 C 0.546,0.104 0.543,0.12 0.536,0.135 0.53,0.15 0.521,0.163 0.51,0.174 0.499,0.185 0.486,0.194 0.471,0.201 0.456,0.207 0.44,0.21 0.423,0.21 0.406,0.21 0.39,0.207 0.375,0.201 0.361,0.194 0.347,0.185 0.336,0.174 0.325,0.163 0.317,0.15 0.31,0.135 0.304,0.12 0.3,0.104 0.3,0.087 0.3,0.081 0.301,0.075 0.302,0.068 0.286,0.066 0.272,0.062 0.26,0.055 0.247,0.048 0.235,0.039 0.226,0.028 0.216,0.017 0.209,0.005 0.203,-0.009 0.198,-0.023 0.195,-0.037 0.195,-0.053 0.195,-0.065 0.197,-0.078 0.201,-0.09 0.205,-0.102 0.21,-0.114 0.218,-0.124 0.203,-0.136 0.19,-0.149 0.178,-0.163 0.167,-0.177 0.157,-0.193 0.149,-0.209 0.142,-0.226 0.136,-0.243 0.131,-0.261 0.127,-0.279 0.125,-0.297 0.125,-0.316 c 0,-0.034 0.006,-0.066 0.019,-0.095 0.013,-0.03 0.031,-0.056 0.053,-0.079 0.022,-0.022 0.048,-0.039 0.078,-0.052 0.03,-0.013 0.062,-0.02 0.096,-0.02 0.005,0 0.011,0.001 0.016,0.001 0.005,0 0.01,0.001 0.016,0.001 0.013,-0.027 0.029,-0.051 0.049,-0.073 0.02,-0.022 0.043,-0.04 0.067,-0.056 0.025,-0.015 0.051,-0.027 0.08,-0.036 0.028,-0.008 0.058,-0.012 0.088,-0.012 0.037,0 0.072,0.006 0.106,0.018 0.033,0.012 0.064,0.029 0.091,0.051 0.028,0.022 0.051,0.048 0.07,0.079 0.019,0.03 0.033,0.063 0.041,0.099 0.026,0.004 0.05,0.012 0.073,0.024 0.022,0.012 0.041,0.028 0.057,0.046 0.017,0.019 0.03,0.04 0.039,0.064 0.009,0.024 0.014,0.049 0.014,0.075 z"
         style="fill-rule:nonzero"
         id="path9324" /><path
         d="m 0.293,-0.1 0.078,-0.041 v 0.088 c 0,0.008 -0.002,0.015 -0.005,0.021 C 0.364,-0.026 0.36,-0.02 0.355,-0.015 0.351,-0.011 0.345,-0.007 0.338,-0.004 0.332,-0.001 0.325,0 0.318,0 0.311,0 0.304,-0.001 0.298,-0.004 0.291,-0.007 0.286,-0.011 0.281,-0.016 0.276,-0.021 0.272,-0.026 0.269,-0.032 0.267,-0.039 0.265,-0.046 0.265,-0.053 c 0,-0.009 0.003,-0.019 0.008,-0.027 0.005,-0.008 0.012,-0.015 0.02,-0.02 z m 0.562,0 0.077,-0.041 v 0.088 c 0,0.008 -0.001,0.015 -0.004,0.021 C 0.925,-0.026 0.921,-0.02 0.917,-0.015 0.912,-0.011 0.906,-0.007 0.9,-0.004 0.893,-0.001 0.887,0 0.879,0 0.872,0 0.865,-0.001 0.859,-0.004 0.853,-0.007 0.847,-0.011 0.842,-0.016 0.837,-0.021 0.834,-0.026 0.831,-0.032 0.828,-0.039 0.827,-0.046 0.827,-0.053 0.827,-0.062 0.829,-0.072 0.834,-0.08 0.84,-0.088 0.847,-0.095 0.855,-0.1 Z m -0.281,0 0.077,-0.041 v 0.088 c 0,0.008 -0.001,0.015 -0.004,0.021 C 0.644,-0.026 0.641,-0.02 0.636,-0.015 0.631,-0.011 0.626,-0.007 0.619,-0.004 0.613,-0.001 0.606,0 0.599,0 0.591,0 0.585,-0.001 0.578,-0.004 0.572,-0.007 0.566,-0.011 0.562,-0.016 0.557,-0.021 0.553,-0.026 0.55,-0.032 0.547,-0.039 0.546,-0.046 0.546,-0.053 c 0,-0.009 0.003,-0.019 0.008,-0.027 0.005,-0.008 0.012,-0.015 0.02,-0.02 z M 0.371,0.087 C 0.371,0.078 0.373,0.069 0.378,0.06 0.384,0.052 0.39,0.046 0.399,0.041 L 0.476,0 V 0.087 C 0.476,0.095 0.475,0.101 0.472,0.108 0.469,0.114 0.465,0.12 0.46,0.125 0.456,0.129 0.45,0.133 0.444,0.136 0.437,0.139 0.431,0.14 0.423,0.14 0.416,0.14 0.409,0.139 0.403,0.136 0.396,0.133 0.391,0.129 0.386,0.125 0.381,0.12 0.378,0.115 0.375,0.108 0.372,0.102 0.371,0.095 0.371,0.087 Z m 0.28,0 C 0.651,0.078 0.654,0.069 0.659,0.06 0.664,0.052 0.671,0.046 0.68,0.041 L 0.757,0 V 0.087 C 0.757,0.095 0.755,0.101 0.753,0.108 0.75,0.114 0.746,0.12 0.741,0.125 0.736,0.129 0.731,0.133 0.724,0.136 0.718,0.139 0.711,0.14 0.704,0.14 0.697,0.14 0.69,0.139 0.683,0.136 0.677,0.133 0.671,0.129 0.667,0.125 0.662,0.12 0.658,0.115 0.656,0.108 0.653,0.102 0.651,0.095 0.651,0.087 Z"
         style="fill:#00bcf2;fill-rule:nonzero"
         id="path9326" /><path
         d="m 0.932,-0.421 h 0.035 c 0.02,0 0.038,0.003 0.055,0.011 0.017,0.007 0.032,0.017 0.044,0.03 0.013,0.012 0.023,0.027 0.03,0.044 0.008,0.017 0.011,0.036 0.011,0.055 0,0.02 -0.003,0.038 -0.011,0.055 -0.007,0.017 -0.017,0.032 -0.03,0.044 -0.012,0.013 -0.027,0.023 -0.044,0.03 -0.017,0.008 -0.035,0.011 -0.055,0.011 H 0.371 C 0.347,-0.141 0.324,-0.145 0.302,-0.154 0.281,-0.163 0.263,-0.176 0.247,-0.192 0.231,-0.208 0.218,-0.226 0.209,-0.248 0.2,-0.269 0.195,-0.292 0.195,-0.316 c 0,-0.024 0.005,-0.047 0.014,-0.068 0.009,-0.021 0.022,-0.04 0.038,-0.056 0.016,-0.015 0.034,-0.028 0.055,-0.037 0.022,-0.01 0.045,-0.014 0.069,-0.014 0.013,0 0.026,0.001 0.039,0.004 0.013,0.003 0.025,0.007 0.037,0.013 0.006,-0.028 0.016,-0.054 0.031,-0.078 0.015,-0.024 0.033,-0.044 0.054,-0.061 0.022,-0.017 0.046,-0.03 0.072,-0.04 0.026,-0.009 0.054,-0.014 0.083,-0.014 0.033,0 0.065,0.006 0.095,0.019 0.03,0.013 0.056,0.031 0.078,0.053 0.022,0.022 0.04,0.048 0.053,0.078 0.013,0.03 0.019,0.062 0.019,0.096 z"
         style="fill:#ffffff;fill-rule:nonzero"
         id="path9328" /></g></g></svg>
