<?xml version="1.0" encoding="UTF-8" standalone="no"?>
<svg
   width="15.795"
   height="14.055"
   viewBox="0 0 15.795 14.055"
   version="1.1"
   xml:space="preserve"
   style="clip-rule:evenodd;fill-rule:evenodd;stroke-linejoin:round;stroke-miterlimit:2"
   id="svg20568"
   sodipodi:docname="emojis.svg"
   xmlns:inkscape="http://www.inkscape.org/namespaces/inkscape"
   xmlns:sodipodi="http://sodipodi.sourceforge.net/DTD/sodipodi-0.dtd"
   xmlns="http://www.w3.org/2000/svg"
   xmlns:svg="http://www.w3.org/2000/svg"><defs
     id="defs20572" /><sodipodi:namedview
     id="namedview20570"
     pagecolor="#505050"
     bordercolor="#eeeeee"
     borderopacity="1"
     inkscape:pageshadow="0"
     inkscape:pageopacity="0"
     inkscape:pagecheckerboard="0" /><g
     transform="matrix(0.24,0,0,0.24,-318.399,-441.3426)"
     id="g20566"><g
       transform="matrix(62.5,0,0,62.5,1318.85,1884.99)"
       id="g9338"><path
         d="m 1.178,-0.281 c 0,0.026 -0.005,0.051 -0.014,0.074 -0.009,0.024 -0.022,0.045 -0.038,0.063 -0.015,0.019 -0.034,0.034 -0.056,0.047 -0.022,0.012 -0.046,0.02 -0.071,0.024 L 0.998,-0.07 c 0.003,0.008 0.004,0.016 0.004,0.027 0,0.009 -0.001,0.018 -0.004,0.026 C 0.994,-0.009 0.99,-0.001 0.984,0.006 0.978,0.013 0.972,0.018 0.964,0.023 0.956,0.028 0.948,0.031 0.938,0.032 0.931,0.041 0.922,0.047 0.912,0.052 0.902,0.057 0.891,0.06 0.879,0.06 0.874,0.06 0.867,0.059 0.861,0.057 L 0.857,0.07 C 0.86,0.079 0.862,0.087 0.862,0.096 0.862,0.106 0.86,0.115 0.857,0.123 0.854,0.132 0.849,0.139 0.844,0.146 0.838,0.153 0.832,0.159 0.824,0.163 0.816,0.168 0.807,0.171 0.798,0.172 0.791,0.181 0.782,0.188 0.772,0.193 0.761,0.198 0.751,0.2 0.739,0.2 0.728,0.2 0.717,0.198 0.707,0.193 0.697,0.188 0.688,0.181 0.68,0.172 0.671,0.171 0.663,0.168 0.656,0.163 0.648,0.159 0.641,0.154 0.635,0.147 0.63,0.141 0.625,0.134 0.622,0.126 0.618,0.118 0.617,0.109 0.616,0.1 0.615,0.118 0.608,0.134 0.597,0.147 0.586,0.161 0.571,0.169 0.553,0.172 0.545,0.181 0.536,0.188 0.526,0.193 0.516,0.198 0.505,0.2 0.494,0.2 0.482,0.2 0.471,0.198 0.461,0.193 0.451,0.188 0.442,0.181 0.435,0.172 0.426,0.171 0.418,0.168 0.41,0.163 0.402,0.159 0.396,0.154 0.39,0.147 0.384,0.141 0.38,0.134 0.376,0.126 0.373,0.118 0.371,0.109 0.371,0.1 0.369,0.118 0.363,0.134 0.351,0.147 0.34,0.161 0.325,0.169 0.307,0.172 0.299,0.181 0.291,0.188 0.281,0.193 0.27,0.198 0.259,0.2 0.248,0.2 0.237,0.2 0.226,0.198 0.216,0.193 0.205,0.188 0.196,0.181 0.189,0.172 0.18,0.171 0.171,0.168 0.164,0.163 0.156,0.159 0.149,0.153 0.143,0.146 0.138,0.14 0.133,0.132 0.13,0.124 0.127,0.115 0.125,0.106 0.125,0.097 c 0,-0.005 0,-0.009 0.001,-0.014 C 0.127,0.079 0.128,0.075 0.13,0.07 0.127,0.062 0.125,0.053 0.125,0.043 0.125,0.034 0.127,0.026 0.13,0.017 0.133,0.009 0.138,0.001 0.143,-0.006 0.149,-0.013 0.156,-0.018 0.164,-0.023 0.171,-0.028 0.18,-0.031 0.189,-0.032 c 0.007,-0.009 0.016,-0.015 0.027,-0.02 0.01,-0.005 0.021,-0.008 0.032,-0.008 0.007,0 0.013,0.001 0.019,0.002 L 0.27,-0.07 C 0.267,-0.077 0.266,-0.085 0.266,-0.094 0.244,-0.104 0.225,-0.117 0.208,-0.132 0.19,-0.148 0.176,-0.165 0.163,-0.185 0.151,-0.204 0.142,-0.225 0.135,-0.247 0.128,-0.269 0.125,-0.292 0.125,-0.316 c 0,-0.034 0.006,-0.066 0.019,-0.095 0.013,-0.03 0.031,-0.056 0.053,-0.079 0.022,-0.022 0.048,-0.039 0.078,-0.052 0.03,-0.013 0.062,-0.02 0.096,-0.02 0.005,0 0.011,0.001 0.016,0.001 0.005,0 0.01,0.001 0.016,0.001 0.013,-0.027 0.029,-0.051 0.049,-0.073 0.02,-0.022 0.043,-0.04 0.067,-0.056 0.025,-0.015 0.051,-0.027 0.08,-0.036 0.028,-0.008 0.058,-0.012 0.088,-0.012 0.037,0 0.072,0.006 0.106,0.018 0.033,0.012 0.064,0.029 0.091,0.051 0.028,0.022 0.051,0.048 0.07,0.079 0.019,0.03 0.033,0.063 0.041,0.099 0.026,0.004 0.05,0.012 0.073,0.024 0.022,0.012 0.041,0.028 0.057,0.046 0.017,0.019 0.03,0.04 0.039,0.064 0.009,0.024 0.014,0.049 0.014,0.075 z"
         style="fill-rule:nonzero"
         id="path9332" /><path
         d="m 0.915,-0.07 c 0.002,0.001 0.005,0.003 0.008,0.004 0.004,0.002 0.007,0.004 0.01,0.005 0.003,0.002 0.005,0.005 0.007,0.008 0.002,0.002 0.003,0.005 0.003,0.009 0,0.005 -0.002,0.009 -0.006,0.012 C 0.934,-0.028 0.93,-0.026 0.925,-0.026 0.921,-0.026 0.916,-0.028 0.91,-0.032 0.905,-0.035 0.901,-0.038 0.897,-0.04 v 0.014 c 0,0.007 -0.001,0.013 -0.003,0.018 C 0.892,-0.003 0.887,0 0.879,0 0.872,0 0.867,-0.003 0.865,-0.008 0.862,-0.013 0.861,-0.019 0.861,-0.026 L 0.862,-0.04 c -0.004,0.002 -0.008,0.005 -0.013,0.008 -0.006,0.004 -0.01,0.006 -0.015,0.006 -0.005,0 -0.009,-0.002 -0.012,-0.005 -0.004,-0.004 -0.006,-0.008 -0.006,-0.013 0,-0.004 0.001,-0.007 0.003,-0.009 C 0.821,-0.056 0.824,-0.059 0.826,-0.061 0.829,-0.062 0.832,-0.064 0.835,-0.066 0.839,-0.067 0.842,-0.069 0.844,-0.07 0.842,-0.072 0.839,-0.073 0.835,-0.075 0.832,-0.076 0.829,-0.078 0.826,-0.08 0.824,-0.082 0.821,-0.084 0.819,-0.087 0.817,-0.09 0.816,-0.093 0.816,-0.097 c 0,-0.005 0.002,-0.009 0.006,-0.012 0.003,-0.004 0.007,-0.005 0.012,-0.005 0.005,0 0.009,0.001 0.015,0.005 0.005,0.003 0.009,0.006 0.013,0.008 L 0.861,-0.115 c 0,-0.006 0.001,-0.012 0.004,-0.018 0.002,-0.005 0.007,-0.008 0.014,-0.008 0.008,0 0.013,0.003 0.015,0.008 0.002,0.006 0.003,0.012 0.003,0.018 v 0.014 c 0.004,-0.002 0.008,-0.005 0.013,-0.008 0.006,-0.004 0.011,-0.005 0.015,-0.005 0.005,0 0.009,0.001 0.012,0.005 0.004,0.003 0.006,0.007 0.006,0.012 0,0.004 -0.001,0.007 -0.003,0.01 C 0.938,-0.084 0.936,-0.082 0.933,-0.08 0.93,-0.078 0.927,-0.076 0.923,-0.075 0.92,-0.073 0.917,-0.072 0.915,-0.07 Z M 0.774,0.07 C 0.777,0.072 0.78,0.073 0.784,0.075 0.787,0.076 0.79,0.078 0.793,0.08 0.795,0.082 0.798,0.084 0.8,0.087 c 0.001,0.003 0.002,0.006 0.002,0.01 0,0.001 0,0.001 0,0.002 0,0 0,0 0,0.001 C 0.8,0.105 0.799,0.107 0.797,0.108 0.796,0.109 0.793,0.111 0.789,0.113 c -0.001,0 -0.001,0 -0.002,0.001 -0.001,0 -0.002,0 -0.002,0 C 0.779,0.114 0.775,0.112 0.77,0.109 0.765,0.106 0.761,0.103 0.757,0.101 V 0.113 C 0.757,0.12 0.756,0.126 0.754,0.132 0.752,0.137 0.747,0.14 0.739,0.14 0.735,0.14 0.731,0.139 0.728,0.136 0.726,0.134 0.723,0.13 0.722,0.126 V 0.101 C 0.717,0.103 0.713,0.106 0.708,0.109 0.704,0.112 0.699,0.114 0.693,0.114 0.69,0.114 0.687,0.113 0.685,0.112 0.682,0.11 0.68,0.108 0.678,0.105 0.678,0.104 0.677,0.103 0.677,0.102 0.677,0.101 0.676,0.1 0.676,0.099 V 0.097 C 0.676,0.093 0.677,0.09 0.678,0.087 0.68,0.084 0.682,0.082 0.685,0.08 0.688,0.078 0.691,0.076 0.694,0.075 0.698,0.073 0.701,0.072 0.704,0.07 L 0.687,0.061 C 0.684,0.059 0.681,0.057 0.679,0.054 0.677,0.052 0.676,0.049 0.676,0.045 c 0,-0.003 0,-0.006 0.001,-0.009 C 0.679,0.033 0.681,0.03 0.684,0.029 0.687,0.027 0.69,0.026 0.693,0.026 c 0.005,0 0.01,0.002 0.015,0.005 0.005,0.004 0.01,0.006 0.014,0.009 L 0.721,0.025 C 0.721,0.019 0.722,0.013 0.724,0.008 0.726,0.003 0.731,0 0.739,0 0.741,0 0.742,0 0.744,0 0.745,0.001 0.746,0.001 0.748,0.002 0.752,0.006 0.754,0.01 0.756,0.012 0.757,0.014 0.757,0.017 0.757,0.021 V 0.04 C 0.761,0.037 0.766,0.035 0.771,0.031 0.775,0.028 0.78,0.026 0.785,0.026 c 0.005,0 0.009,0.002 0.012,0.006 0.004,0.004 0.005,0.008 0.005,0.012 0,0.004 -0.001,0.007 -0.003,0.01 C 0.797,0.056 0.795,0.059 0.792,0.061 0.789,0.062 0.786,0.064 0.783,0.066 0.779,0.068 0.777,0.069 0.774,0.07 Z M 0.423,-0.07 c 0.003,0.001 0.005,0.002 0.008,0.004 0.003,0.002 0.007,0.004 0.009,0.006 0.003,0.002 0.006,0.004 0.008,0.007 0.002,0.002 0.003,0.005 0.003,0.009 0,0.006 -0.002,0.01 -0.005,0.013 -0.004,0.003 -0.009,0.005 -0.014,0.005 -0.002,0 -0.004,-0.001 -0.006,-0.002 C 0.423,-0.03 0.42,-0.031 0.418,-0.033 L 0.406,-0.04 v 0.014 c 0,0.007 -0.001,0.013 -0.003,0.018 C 0.401,-0.003 0.396,0 0.388,0 0.387,0 0.385,0 0.383,0 0.381,-0.001 0.379,-0.002 0.378,-0.003 H 0.377 C 0.374,-0.006 0.372,-0.009 0.371,-0.012 0.371,-0.016 0.37,-0.02 0.37,-0.023 L 0.371,-0.04 c -0.004,0.003 -0.009,0.005 -0.014,0.009 -0.004,0.003 -0.009,0.005 -0.014,0.005 -0.005,0 -0.01,-0.002 -0.013,-0.005 -0.004,-0.004 -0.005,-0.008 -0.005,-0.013 0,-0.004 0.001,-0.007 0.003,-0.009 C 0.33,-0.056 0.333,-0.059 0.335,-0.061 0.338,-0.063 0.341,-0.064 0.345,-0.066 0.348,-0.068 0.351,-0.069 0.353,-0.07 0.35,-0.072 0.347,-0.073 0.344,-0.075 0.341,-0.076 0.338,-0.078 0.335,-0.08 0.332,-0.082 0.33,-0.084 0.328,-0.087 0.326,-0.09 0.325,-0.093 0.325,-0.097 c 0,-0.002 0.001,-0.004 0.001,-0.006 0.001,-0.001 0.002,-0.003 0.003,-0.005 0.002,-0.002 0.004,-0.003 0.006,-0.005 0.002,-0.001 0.005,-0.001 0.008,-0.001 0.005,0 0.01,0.001 0.014,0.005 0.005,0.003 0.01,0.006 0.014,0.008 L 0.37,-0.115 c 0,-0.006 0.001,-0.012 0.003,-0.018 0.002,-0.005 0.007,-0.008 0.015,-0.008 0.008,0 0.013,0.003 0.015,0.009 0.002,0.006 0.003,0.012 0.003,0.019 v 0.012 c 10e-4,0 0.003,-10e-4 0.005,-0.003 0.002,-0.002 0.005,-0.003 0.007,-0.005 0.003,-0.001 0.006,-0.002 0.008,-0.004 0.003,-0.001 0.005,-0.001 0.007,-0.001 0.004,0 0.007,0.001 0.01,0.003 0.004,0.002 0.006,0.004 0.007,0.007 0,0.001 0,0.002 0.001,0.002 0,10e-4 0,0.002 0,0.002 0,0.005 -0.001,0.009 -0.002,0.011 C 0.448,-0.086 0.446,-0.083 0.443,-0.082 0.441,-0.08 0.438,-0.078 0.434,-0.076 0.431,-0.075 0.427,-0.073 0.423,-0.07 Z M 0.529,0.07 C 0.531,0.071 0.533,0.073 0.536,0.074 0.539,0.075 0.542,0.077 0.545,0.079 0.548,0.081 0.551,0.083 0.553,0.086 0.555,0.088 0.556,0.091 0.556,0.094 V 0.099 C 0.556,0.104 0.554,0.107 0.55,0.11 0.546,0.112 0.543,0.114 0.539,0.114 0.534,0.114 0.529,0.112 0.524,0.109 0.52,0.106 0.515,0.103 0.511,0.101 L 0.51,0.12 v 0.003 c 0,0.001 0,0.002 0.001,0.003 C 0.509,0.13 0.507,0.134 0.504,0.136 0.502,0.139 0.498,0.14 0.494,0.14 0.486,0.14 0.481,0.138 0.479,0.133 0.477,0.128 0.476,0.122 0.476,0.116 V 0.101 C 0.472,0.103 0.467,0.106 0.463,0.109 0.458,0.112 0.453,0.114 0.448,0.114 0.443,0.114 0.439,0.112 0.435,0.109 0.432,0.105 0.43,0.101 0.43,0.096 0.43,0.092 0.431,0.089 0.433,0.086 0.435,0.084 0.438,0.082 0.44,0.08 0.443,0.078 0.446,0.076 0.45,0.074 0.453,0.073 0.456,0.072 0.458,0.07 0.456,0.069 0.453,0.068 0.45,0.066 0.447,0.065 0.444,0.063 0.441,0.061 0.438,0.059 0.435,0.057 0.433,0.054 0.431,0.052 0.43,0.049 0.43,0.045 0.43,0.04 0.432,0.035 0.435,0.032 0.438,0.028 0.442,0.026 0.448,0.026 c 0.005,0 0.01,0.002 0.015,0.005 0.005,0.004 0.009,0.007 0.013,0.009 V 0.024 C 0.476,0.017 0.477,0.012 0.479,0.007 0.481,0.002 0.487,0 0.495,0 h 0.002 c 0.003,0.001 0.005,0.002 0.006,0.003 0.002,0.001 0.004,0.003 0.005,0.005 0.001,0 0.001,0 0.001,0 0,10e-4 0,10e-4 0,10e-4 0,0.001 0,0.002 0.001,0.002 0,0.001 0,0.002 0.001,0.002 V 0.04 L 0.522,0.034 C 0.524,0.032 0.526,0.031 0.528,0.03 0.53,0.029 0.531,0.028 0.531,0.028 0.535,0.027 0.537,0.026 0.54,0.026 c 0.004,0 0.008,0.002 0.011,0.005 0.004,0.004 0.006,0.008 0.006,0.012 0,0.004 -0.001,0.007 -0.003,0.009 C 0.55,0.056 0.546,0.059 0.542,0.062 0.539,0.064 0.534,0.067 0.529,0.07 Z m 0.14,-0.14 c 0.003,0.001 0.005,0.003 0.009,0.004 0.003,0.002 0.006,0.004 0.009,0.005 0.003,0.002 0.005,0.005 0.007,0.008 0.002,0.002 0.003,0.005 0.003,0.009 0,0.005 -0.002,0.009 -0.005,0.013 -0.004,0.003 -0.008,0.005 -0.013,0.005 -0.002,0 -0.004,-0.001 -0.007,-0.002 C 0.67,-0.029 0.667,-0.031 0.665,-0.032 L 0.651,-0.04 0.652,-0.026 c 0,0.007 -0.001,0.013 -0.003,0.018 C 0.647,-0.003 0.642,0 0.634,0 0.626,0 0.621,-0.003 0.619,-0.008 0.617,-0.013 0.616,-0.019 0.616,-0.026 V -0.04 c -0.003,0.002 -0.008,0.005 -0.013,0.008 -0.006,0.004 -0.01,0.006 -0.015,0.006 -0.005,0 -0.009,-0.002 -0.012,-0.005 -0.003,-0.004 -0.005,-0.008 -0.005,-0.013 0,-0.004 0.001,-0.007 0.003,-0.009 C 0.576,-0.056 0.578,-0.059 0.581,-0.061 0.584,-0.062 0.587,-0.064 0.59,-0.066 0.593,-0.067 0.596,-0.069 0.599,-0.07 0.596,-0.072 0.593,-0.073 0.59,-0.075 0.587,-0.076 0.584,-0.078 0.581,-0.08 0.578,-0.082 0.576,-0.084 0.574,-0.087 0.572,-0.09 0.571,-0.093 0.571,-0.097 c 0,-0.005 0.002,-0.009 0.005,-0.012 0.004,-0.004 0.008,-0.005 0.012,-0.005 0.005,0 0.01,0.001 0.015,0.005 0.005,0.003 0.01,0.006 0.013,0.008 v -0.014 c 0,-0.006 0.001,-0.012 0.003,-0.018 0.002,-0.005 0.007,-0.008 0.015,-0.008 0.008,0 0.013,0.003 0.015,0.008 0.002,0.006 0.003,0.012 0.003,0.018 l -0.001,0.014 c 0.004,-0.002 0.008,-0.005 0.014,-0.008 0.005,-0.004 0.01,-0.005 0.015,-0.005 0.004,0 0.008,0.001 0.012,0.005 0.003,0.003 0.005,0.007 0.005,0.012 0,0.004 -0.001,0.007 -0.003,0.01 C 0.692,-0.084 0.69,-0.082 0.687,-0.08 0.684,-0.078 0.681,-0.076 0.678,-0.075 0.674,-0.073 0.672,-0.072 0.669,-0.07 Z M 0.283,0.07 C 0.285,0.072 0.288,0.073 0.292,0.075 0.295,0.076 0.298,0.078 0.301,0.08 0.304,0.082 0.306,0.084 0.308,0.087 0.31,0.09 0.311,0.093 0.311,0.096 0.311,0.101 0.309,0.105 0.306,0.109 0.302,0.112 0.298,0.114 0.293,0.114 0.288,0.114 0.283,0.112 0.279,0.109 0.274,0.106 0.269,0.103 0.265,0.101 L 0.266,0.114 C 0.266,0.12 0.265,0.126 0.262,0.132 0.26,0.137 0.256,0.14 0.248,0.14 0.24,0.14 0.235,0.138 0.233,0.132 0.231,0.127 0.23,0.121 0.23,0.115 V 0.101 C 0.226,0.103 0.222,0.106 0.217,0.109 0.212,0.112 0.207,0.114 0.202,0.114 0.198,0.114 0.194,0.112 0.19,0.109 0.186,0.105 0.185,0.101 0.185,0.096 0.185,0.093 0.186,0.09 0.188,0.087 0.189,0.084 0.192,0.082 0.195,0.08 0.198,0.078 0.201,0.076 0.204,0.075 0.207,0.073 0.21,0.072 0.213,0.07 0.21,0.069 0.207,0.068 0.204,0.066 0.201,0.064 0.198,0.062 0.195,0.061 0.192,0.059 0.189,0.056 0.188,0.053 0.186,0.051 0.185,0.048 0.185,0.044 0.185,0.039 0.186,0.035 0.19,0.032 0.193,0.028 0.197,0.026 0.202,0.026 c 0.005,0 0.01,0.002 0.015,0.005 0.005,0.004 0.01,0.007 0.013,0.009 V 0.025 C 0.23,0.019 0.231,0.013 0.233,0.008 0.235,0.003 0.24,0 0.248,0 0.256,0 0.26,0.003 0.262,0.008 0.265,0.014 0.266,0.02 0.266,0.026 L 0.265,0.04 C 0.269,0.038 0.273,0.035 0.279,0.031 0.284,0.028 0.289,0.026 0.293,0.026 c 0.005,0 0.009,0.002 0.013,0.006 0.003,0.003 0.005,0.007 0.005,0.012 0,0.004 -0.001,0.007 -0.003,0.009 C 0.306,0.056 0.304,0.059 0.301,0.061 0.298,0.062 0.295,0.064 0.292,0.066 0.288,0.068 0.285,0.069 0.283,0.07 Z"
         style="fill:#b3dbf2;fill-rule:nonzero"
         id="path9334" /><path
         d="m 0.932,-0.421 h 0.035 c 0.02,0 0.038,0.003 0.055,0.011 0.017,0.007 0.032,0.017 0.044,0.03 0.013,0.012 0.023,0.027 0.03,0.044 0.008,0.017 0.011,0.036 0.011,0.055 0,0.02 -0.003,0.038 -0.011,0.055 -0.007,0.017 -0.017,0.032 -0.03,0.044 -0.012,0.013 -0.027,0.023 -0.044,0.03 -0.017,0.008 -0.035,0.011 -0.055,0.011 H 0.371 C 0.347,-0.141 0.324,-0.145 0.302,-0.154 0.281,-0.163 0.263,-0.176 0.247,-0.192 0.231,-0.208 0.218,-0.226 0.209,-0.248 0.2,-0.269 0.195,-0.292 0.195,-0.316 c 0,-0.024 0.005,-0.047 0.014,-0.068 0.009,-0.021 0.022,-0.04 0.038,-0.056 0.016,-0.015 0.034,-0.028 0.055,-0.037 0.022,-0.01 0.045,-0.014 0.069,-0.014 0.013,0 0.026,0.001 0.039,0.004 0.013,0.003 0.025,0.007 0.037,0.013 0.006,-0.028 0.016,-0.054 0.031,-0.078 0.015,-0.024 0.033,-0.044 0.054,-0.061 0.022,-0.017 0.046,-0.03 0.072,-0.04 0.026,-0.009 0.054,-0.014 0.083,-0.014 0.033,0 0.065,0.006 0.095,0.019 0.03,0.013 0.056,0.031 0.078,0.053 0.022,0.022 0.04,0.048 0.053,0.078 0.013,0.03 0.019,0.062 0.019,0.096 z"
         style="fill:#ffffff;fill-rule:nonzero"
         id="path9336" /></g></g></svg>
