<?xml version="1.0" encoding="UTF-8" standalone="no"?>
<svg
   width="13.695"
   height="16.844999"
   viewBox="0 0 13.695 16.844999"
   version="1.1"
   xml:space="preserve"
   style="clip-rule:evenodd;fill-rule:evenodd;stroke-linejoin:round;stroke-miterlimit:2"
   id="svg20568"
   sodipodi:docname="emojis.svg"
   xmlns:inkscape="http://www.inkscape.org/namespaces/inkscape"
   xmlns:sodipodi="http://sodipodi.sourceforge.net/DTD/sodipodi-0.dtd"
   xmlns="http://www.w3.org/2000/svg"
   xmlns:svg="http://www.w3.org/2000/svg"><defs
     id="defs20572" /><sodipodi:namedview
     id="namedview20570"
     pagecolor="#505050"
     bordercolor="#eeeeee"
     borderopacity="1"
     inkscape:pageshadow="0"
     inkscape:pageopacity="0"
     inkscape:pagecheckerboard="0" /><g
     transform="matrix(0.24,0,0,0.24,-418.2366,-438.7026)"
     id="g20566"><g
       transform="matrix(62.5,0,0,62.5,1734.84,1884.99)"
       id="g9390"><path
         d="m 0.125,-0.351 c 0,-0.052 0.007,-0.101 0.02,-0.149 0.013,-0.048 0.032,-0.093 0.057,-0.134 0.024,-0.042 0.053,-0.08 0.088,-0.114 0.034,-0.034 0.072,-0.064 0.113,-0.088 0.042,-0.024 0.087,-0.043 0.134,-0.057 0.048,-0.013 0.098,-0.02 0.15,-0.02 h 0.169 l -0.129,0.129 c 0.046,0.016 0.088,0.038 0.127,0.067 0.038,0.028 0.07,0.062 0.098,0.1 0.027,0.038 0.048,0.08 0.063,0.125 0.015,0.045 0.023,0.092 0.023,0.141 0,0.052 -0.007,0.101 -0.02,0.149 C 1.004,-0.154 0.985,-0.11 0.961,-0.068 0.937,-0.026 0.907,0.012 0.873,0.046 0.839,0.08 0.801,0.109 0.759,0.134 0.718,0.158 0.673,0.177 0.625,0.19 0.577,0.204 0.528,0.21 0.476,0.21 H 0.307 L 0.436,0.082 C 0.389,0.066 0.347,0.044 0.309,0.015 0.271,-0.014 0.238,-0.047 0.211,-0.085 0.184,-0.123 0.162,-0.165 0.147,-0.21 0.132,-0.255 0.125,-0.302 0.125,-0.351 Z"
         style="fill-rule:nonzero"
         id="path9380" /><path
         d="m 0.581,-0.737 c 0.036,0 0.07,0.004 0.103,0.013 0.032,0.009 0.063,0.022 0.092,0.039 0.029,0.017 0.055,0.037 0.078,0.061 0.024,0.023 0.044,0.049 0.061,0.078 0.017,0.029 0.029,0.06 0.039,0.092 0.009,0.033 0.013,0.067 0.013,0.103 0,0.006 -0.001,0.012 -0.004,0.017 C 0.961,-0.329 0.958,-0.323 0.957,-0.318 0.951,-0.302 0.945,-0.285 0.939,-0.269 0.934,-0.253 0.928,-0.237 0.922,-0.221 0.917,-0.205 0.91,-0.189 0.904,-0.174 0.897,-0.158 0.889,-0.142 0.881,-0.127 0.859,-0.086 0.834,-0.05 0.807,-0.018 0.779,0.014 0.749,0.041 0.716,0.063 0.682,0.086 0.646,0.103 0.606,0.116 0.566,0.129 0.523,0.137 0.476,0.14 L 0.581,0.035 C 0.546,0.035 0.511,0.031 0.479,0.021 0.446,0.012 0.415,-0.001 0.386,-0.018 0.358,-0.035 0.332,-0.055 0.308,-0.078 0.285,-0.102 0.265,-0.128 0.248,-0.156 0.231,-0.185 0.218,-0.216 0.209,-0.249 0.2,-0.281 0.195,-0.316 0.195,-0.351 0.195,-0.382 0.2,-0.412 0.208,-0.441 0.216,-0.47 0.228,-0.498 0.242,-0.524 0.257,-0.551 0.273,-0.576 0.292,-0.6 0.31,-0.624 0.33,-0.647 0.35,-0.669 0.373,-0.694 0.397,-0.718 0.422,-0.739 0.447,-0.76 0.473,-0.778 0.5,-0.793 c 0.027,-0.016 0.056,-0.028 0.087,-0.036 0.031,-0.009 0.064,-0.013 0.1,-0.013 z"
         style="fill:#0078d7;fill-rule:nonzero"
         id="path9382" /><path
         d="m 0.195,-0.351 c 0,-0.045 0.006,-0.089 0.018,-0.131 0.012,-0.042 0.028,-0.081 0.049,-0.117 0.022,-0.037 0.047,-0.07 0.077,-0.099 0.03,-0.03 0.063,-0.056 0.099,-0.077 0.037,-0.021 0.076,-0.038 0.118,-0.05 0.042,-0.011 0.085,-0.017 0.131,-0.017 -0.041,0.006 -0.079,0.017 -0.116,0.032 -0.036,0.015 -0.07,0.034 -0.101,0.057 -0.032,0.023 -0.06,0.049 -0.085,0.078 -0.025,0.03 -0.047,0.062 -0.064,0.096 -0.018,0.034 -0.032,0.071 -0.041,0.109 -0.01,0.039 -0.015,0.078 -0.015,0.119 0,0.032 0.005,0.064 0.016,0.094 0.01,0.03 0.024,0.057 0.043,0.081 0.018,0.025 0.041,0.046 0.066,0.065 0.026,0.018 0.055,0.032 0.086,0.041 -0.039,0 -0.075,-0.008 -0.109,-0.022 C 0.333,-0.107 0.303,-0.127 0.277,-0.152 0.252,-0.178 0.232,-0.208 0.217,-0.242 0.203,-0.276 0.195,-0.312 0.195,-0.351 Z m 0.772,0 c 0,0.045 -0.006,0.089 -0.017,0.131 C 0.938,-0.179 0.921,-0.139 0.9,-0.103 0.879,-0.067 0.853,-0.033 0.823,-0.004 0.794,0.026 0.761,0.052 0.724,0.073 0.688,0.094 0.649,0.111 0.607,0.123 0.565,0.134 0.521,0.14 0.476,0.14 0.516,0.134 0.555,0.123 0.591,0.108 0.628,0.093 0.662,0.074 0.693,0.051 0.724,0.028 0.752,0.002 0.777,-0.028 0.802,-0.057 0.824,-0.089 0.842,-0.123 0.859,-0.157 0.873,-0.194 0.883,-0.232 0.892,-0.271 0.897,-0.31 0.897,-0.351 0.897,-0.384 0.892,-0.415 0.882,-0.445 0.871,-0.475 0.857,-0.502 0.839,-0.527 0.82,-0.551 0.798,-0.573 0.772,-0.591 0.746,-0.609 0.718,-0.623 0.687,-0.632 c 0.038,0 0.075,0.007 0.109,0.022 0.034,0.015 0.064,0.035 0.089,0.06 0.026,0.026 0.046,0.055 0.06,0.09 0.015,0.034 0.022,0.07 0.022,0.109 z"
         style="fill:#3a96dd;fill-rule:nonzero"
         id="path9384" /><path
         d="m 0.581,-0.562 c 0.029,0 0.056,0.006 0.082,0.017 0.025,0.011 0.048,0.026 0.067,0.045 0.019,0.019 0.034,0.042 0.045,0.067 0.011,0.026 0.017,0.053 0.017,0.082 0,0.039 -0.007,0.075 -0.022,0.109 -0.015,0.034 -0.035,0.064 -0.061,0.089 -0.025,0.026 -0.055,0.046 -0.089,0.06 -0.034,0.015 -0.07,0.023 -0.109,0.023 l 0.07,-0.071 C 0.552,-0.141 0.525,-0.146 0.499,-0.157 0.474,-0.168 0.451,-0.183 0.432,-0.202 0.413,-0.221 0.398,-0.244 0.387,-0.269 0.376,-0.295 0.371,-0.322 0.371,-0.351 c 0,-0.039 0.007,-0.075 0.022,-0.109 0.014,-0.035 0.034,-0.064 0.06,-0.09 0.025,-0.025 0.055,-0.045 0.089,-0.06 0.034,-0.015 0.071,-0.022 0.109,-0.022 z"
         style="fill:#b3dbf2;fill-rule:nonzero"
         id="path9386" /><path
         d="m 0.581,-0.421 c 0.01,0 0.019,0.001 0.027,0.005 0.009,0.004 0.016,0.009 0.023,0.015 0.006,0.007 0.011,0.014 0.015,0.023 0.003,0.008 0.005,0.017 0.005,0.027 0,0.015 -0.002,0.028 -0.008,0.041 -0.005,0.013 -0.013,0.024 -0.023,0.033 -0.009,0.01 -0.02,0.018 -0.033,0.023 -0.013,0.006 -0.026,0.008 -0.041,0.008 l 0.035,-0.035 c -0.01,0 -0.019,-0.002 -0.027,-0.005 C 0.545,-0.29 0.538,-0.295 0.531,-0.302 0.525,-0.308 0.52,-0.315 0.517,-0.324 0.513,-0.332 0.511,-0.341 0.511,-0.351 c 0,-0.015 0.003,-0.028 0.009,-0.041 0.005,-0.013 0.013,-0.024 0.022,-0.034 0.009,-0.009 0.021,-0.017 0.033,-0.022 0.013,-0.006 0.027,-0.009 0.041,-0.009 z"
         style="fill:#ffffff;fill-rule:nonzero"
         id="path9388" /></g></g></svg>
