<?xml version="1.0" encoding="UTF-8" standalone="no"?>
<svg
   width="15.27"
   height="16.844999"
   viewBox="0 0 15.27 16.844999"
   version="1.1"
   xml:space="preserve"
   style="clip-rule:evenodd;fill-rule:evenodd;stroke-linejoin:round;stroke-miterlimit:2"
   id="svg20568"
   sodipodi:docname="emojis.svg"
   xmlns:inkscape="http://www.inkscape.org/namespaces/inkscape"
   xmlns:sodipodi="http://sodipodi.sourceforge.net/DTD/sodipodi-0.dtd"
   xmlns="http://www.w3.org/2000/svg"
   xmlns:svg="http://www.w3.org/2000/svg"><defs
     id="defs20572" /><sodipodi:namedview
     id="namedview20570"
     pagecolor="#505050"
     bordercolor="#eeeeee"
     borderopacity="1"
     inkscape:pageshadow="0"
     inkscape:pageopacity="0"
     inkscape:pagecheckerboard="0" /><g
     transform="matrix(0.24,0,0,0.24,-456.2694,-438.7026)"
     id="g20566"><g
       transform="matrix(62.5,0,0,62.5,1893.31,1884.99)"
       id="g9418"><path
         d="M 1.104,0.047 C 1.115,0.058 1.125,0.069 1.132,0.081 1.139,0.092 1.143,0.106 1.143,0.123 1.143,0.135 1.14,0.146 1.136,0.157 1.131,0.168 1.125,0.177 1.117,0.185 1.109,0.193 1.1,0.199 1.089,0.204 1.078,0.208 1.067,0.21 1.055,0.21 1.038,0.21 1.024,0.207 1.013,0.2 1.002,0.193 0.991,0.184 0.98,0.172 L 0.971,0.168 0.199,-0.218 C 0.186,-0.224 0.177,-0.233 0.17,-0.243 0.163,-0.254 0.16,-0.266 0.16,-0.28 0.16,-0.29 0.162,-0.299 0.166,-0.308 0.169,-0.316 0.174,-0.324 0.18,-0.33 0.187,-0.337 0.194,-0.342 0.203,-0.345 0.211,-0.349 0.22,-0.351 0.23,-0.351 c 0.01,0 0.019,-0.002 0.027,-0.005 C 0.266,-0.36 0.273,-0.365 0.28,-0.371 0.286,-0.378 0.291,-0.385 0.295,-0.394 0.298,-0.402 0.3,-0.412 0.3,-0.421 V -0.508 L 0.172,-0.636 C 0.157,-0.651 0.145,-0.669 0.137,-0.688 0.129,-0.708 0.125,-0.729 0.125,-0.75 c 0,-0.023 0.004,-0.044 0.013,-0.064 0.008,-0.019 0.02,-0.037 0.034,-0.051 0.015,-0.015 0.032,-0.026 0.052,-0.035 0.02,-0.008 0.041,-0.013 0.063,-0.013 0.026,0 0.05,0.006 0.071,0.017 0.02,0.011 0.039,0.026 0.057,0.044 0.009,0.01 0.015,0.019 0.019,0.029 0.004,0.01 0.006,0.021 0.006,0.033 0,0.012 -0.002,0.024 -0.006,0.034 -0.005,0.011 -0.011,0.02 -0.018,0.028 -0.008,0.008 -0.017,0.014 -0.028,0.019 -0.011,0.005 -0.022,0.007 -0.034,0.007 l 0.07,0.07 h 0.087 c 0.01,0 0.019,-0.002 0.027,-0.005 0.009,-0.004 0.016,-0.009 0.022,-0.015 0.007,-0.006 0.012,-0.014 0.015,-0.023 0.004,-0.008 0.006,-0.017 0.006,-0.027 0,-0.01 0.002,-0.019 0.006,-0.027 0.003,-0.009 0.008,-0.016 0.015,-0.023 0.006,-0.006 0.014,-0.011 0.022,-0.015 0.008,-0.003 0.018,-0.005 0.027,-0.005 0.014,0 0.026,0.004 0.037,0.011 0.011,0.007 0.02,0.016 0.026,0.028 z"
         style="fill-rule:nonzero"
         id="path9408" /><path
         d="M 1.055,0.14 C 1.05,0.14 1.046,0.139 1.042,0.135 L 0.222,-0.686 C 0.204,-0.703 0.195,-0.725 0.195,-0.75 c 0,-0.013 0.003,-0.025 0.007,-0.036 0.005,-0.011 0.012,-0.021 0.02,-0.029 0.008,-0.008 0.018,-0.015 0.029,-0.02 0.011,-0.005 0.023,-0.007 0.036,-0.007 0.013,0 0.025,0.002 0.035,0.007 0.011,0.005 0.021,0.011 0.03,0.02 0.004,0.003 0.008,0.007 0.012,0.011 0.004,0.004 0.007,0.009 0.007,0.014 0,0.005 -0.002,0.009 -0.006,0.013 -0.003,0.003 -0.007,0.005 -0.012,0.005 -0.004,0 -0.008,-0.002 -0.012,-0.005 C 0.337,-0.781 0.333,-0.785 0.328,-0.789 0.324,-0.794 0.318,-0.798 0.312,-0.802 0.305,-0.805 0.297,-0.807 0.287,-0.807 0.279,-0.807 0.272,-0.806 0.265,-0.803 0.258,-0.8 0.252,-0.796 0.247,-0.791 0.242,-0.785 0.238,-0.779 0.235,-0.772 0.232,-0.766 0.23,-0.758 0.23,-0.75 c 0,0.015 0.006,0.029 0.017,0.04 l 0.82,0.82 C 1.071,0.114 1.072,0.118 1.072,0.123 1.072,0.128 1.071,0.132 1.067,0.135 1.064,0.138 1.06,0.14 1.055,0.14 Z"
         style="fill:#d48c00;fill-rule:nonzero"
         id="path9410" /><path
         d="m 0.371,-0.421 c 0,0 0.001,0 0.003,0.001 0.002,0 0.003,0.001 0.003,0.001 L 1.011,0.105 H 1.002 L 0.23,-0.281 c 0.02,0 0.038,-0.004 0.055,-0.011 0.017,-0.007 0.031,-0.018 0.044,-0.03 0.013,-0.013 0.023,-0.028 0.03,-0.045 0.008,-0.017 0.012,-0.035 0.012,-0.054 z"
         style="fill:#da3b01;fill-rule:nonzero"
         id="path9412" /><path
         d="M 1.038,0.081 C 1.038,0.087 1.035,0.093 1.03,0.098 1.025,0.103 1.02,0.105 1.013,0.105 1.007,0.105 1.001,0.103 0.995,0.098 L 0.371,-0.421 c 0.019,0 0.037,-0.004 0.055,-0.011 C 0.443,-0.44 0.458,-0.45 0.47,-0.462 0.483,-0.475 0.493,-0.49 0.5,-0.507 0.508,-0.524 0.511,-0.542 0.511,-0.562 L 1.03,0.063 c 0.003,0.003 0.004,0.005 0.006,0.008 10e-4,0.003 0.002,0.006 0.002,0.01 z"
         style="fill:#f03a17;fill-rule:nonzero"
         id="path9414" /><path
         d="M 0.651,-0.702 1.038,0.07 V 0.079 L 0.514,-0.555 c 0,0 -0.001,-0.001 -0.001,-0.003 -0.001,-0.002 -0.001,-0.003 -0.002,-0.004 0.019,0 0.038,-0.003 0.055,-0.011 0.017,-0.007 0.032,-0.017 0.044,-0.03 0.013,-0.013 0.023,-0.028 0.03,-0.045 0.008,-0.017 0.011,-0.035 0.011,-0.054 z"
         style="fill:#ef6950;fill-rule:nonzero"
         id="path9416" /></g></g></svg>
