<?xml version="1.0" encoding="UTF-8" standalone="no"?>
<svg
   width="15.255"
   height="16.844999"
   viewBox="0 0 15.255 16.844999"
   version="1.1"
   xml:space="preserve"
   style="clip-rule:evenodd;fill-rule:evenodd;stroke-linejoin:round;stroke-miterlimit:2"
   id="svg20568"
   sodipodi:docname="emojis.svg"
   xmlns:inkscape="http://www.inkscape.org/namespaces/inkscape"
   xmlns:sodipodi="http://sodipodi.sourceforge.net/DTD/sodipodi-0.dtd"
   xmlns="http://www.w3.org/2000/svg"
   xmlns:svg="http://www.w3.org/2000/svg"><defs
     id="defs20572" /><sodipodi:namedview
     id="namedview20570"
     pagecolor="#505050"
     bordercolor="#eeeeee"
     borderopacity="1"
     inkscape:pageshadow="0"
     inkscape:pageopacity="0"
     inkscape:pagecheckerboard="0" /><g
     transform="matrix(0.24,0,0,0.24,-553.9902,-438.7026)"
     id="g20566"><g
       transform="matrix(62.5,0,0,62.5,2300.48,1884.99)"
       id="g9472"><path
         d="M 1.142,-0.159 1.052,-0.004 0.885,0.038 0.712,0.21 H 0.555 L 0.382,0.038 0.213,-0.007 0.125,-0.159 0.174,-0.351 0.125,-0.543 0.212,-0.695 0.382,-0.74 0.555,-0.913 h 0.157 l 0.173,0.173 0.169,0.045 0.088,0.152 -0.049,0.192 z"
         style="fill-rule:nonzero"
         id="path9468" /><path
         d="M 1.019,-0.088 0.934,-0.137 0.955,-0.053 0.887,-0.035 0.849,-0.186 0.734,-0.252 c -0.018,0.018 -0.04,0.03 -0.066,0.037 v 0.13 L 0.788,0.035 0.739,0.084 0.668,0.015 V 0.14 H 0.598 V 0.015 L 0.528,0.084 0.479,0.035 0.598,-0.085 V -0.216 C 0.586,-0.219 0.575,-0.224 0.563,-0.23 0.552,-0.237 0.543,-0.244 0.534,-0.253 L 0.418,-0.186 0.38,-0.035 0.312,-0.053 0.333,-0.137 0.248,-0.087 0.212,-0.148 0.297,-0.197 0.212,-0.218 0.23,-0.286 0.384,-0.248 0.5,-0.314 C 0.496,-0.327 0.494,-0.339 0.494,-0.351 0.494,-0.363 0.496,-0.375 0.5,-0.388 L 0.384,-0.455 0.23,-0.416 0.212,-0.484 0.297,-0.505 0.212,-0.554 l 0.035,-0.061 0.086,0.05 -0.021,-0.084 0.068,-0.018 0.038,0.151 0.116,0.067 c 0.009,-0.009 0.018,-0.016 0.029,-0.023 0.012,-0.006 0.023,-0.011 0.035,-0.014 v -0.131 l -0.119,-0.12 0.049,-0.05 0.07,0.071 v -0.126 h 0.07 v 0.126 l 0.071,-0.071 0.049,0.05 -0.12,0.12 v 0.13 c 0.026,0.007 0.048,0.019 0.066,0.037 l 0.115,-0.066 0.038,-0.151 0.068,0.018 -0.021,0.084 0.086,-0.049 0.035,0.06 -0.085,0.049 0.085,0.021 -0.018,0.068 -0.154,-0.039 -0.114,0.066 c 0.002,0.007 0.003,0.013 0.004,0.019 0.001,0.006 0.002,0.012 0.002,0.019 0,0.006 -0.001,0.013 -0.002,0.019 -0.001,0.006 -0.002,0.012 -0.004,0.019 l 0.114,0.065 0.154,-0.038 0.018,0.068 -0.085,0.021 0.085,0.049 z M 0.635,-0.281 c 0.01,0 0.019,-0.002 0.027,-0.005 0.009,-0.004 0.016,-0.009 0.022,-0.016 0.007,-0.006 0.012,-0.013 0.015,-0.022 0.004,-0.008 0.006,-0.017 0.006,-0.027 0,-0.01 -0.002,-0.019 -0.006,-0.027 C 0.696,-0.387 0.691,-0.394 0.684,-0.401 0.678,-0.407 0.671,-0.412 0.662,-0.416 0.654,-0.42 0.645,-0.421 0.635,-0.421 c -0.01,0 -0.019,0.001 -0.028,0.005 -0.008,0.004 -0.015,0.009 -0.022,0.015 -0.006,0.007 -0.011,0.014 -0.015,0.023 -0.004,0.008 -0.006,0.017 -0.006,0.027 0,0.01 0.002,0.019 0.006,0.027 0.004,0.009 0.009,0.016 0.015,0.022 0.007,0.007 0.014,0.012 0.022,0.016 0.009,0.003 0.018,0.005 0.028,0.005 z"
         style="fill:#69eaff;fill-rule:nonzero"
         id="path9470" /></g></g></svg>
