<?xml version="1.0" encoding="UTF-8" standalone="no"?>
<svg
   width="14.745"
   height="16.844999"
   viewBox="0 0 14.745 16.844999"
   version="1.1"
   xml:space="preserve"
   style="clip-rule:evenodd;fill-rule:evenodd;stroke-linejoin:round;stroke-miterlimit:2"
   id="svg20568"
   sodipodi:docname="emojis.svg"
   xmlns:inkscape="http://www.inkscape.org/namespaces/inkscape"
   xmlns:sodipodi="http://sodipodi.sourceforge.net/DTD/sodipodi-0.dtd"
   xmlns="http://www.w3.org/2000/svg"
   xmlns:svg="http://www.w3.org/2000/svg"><defs
     id="defs20572" /><sodipodi:namedview
     id="namedview20570"
     pagecolor="#505050"
     bordercolor="#eeeeee"
     borderopacity="1"
     inkscape:pageshadow="0"
     inkscape:pageopacity="0"
     inkscape:pagecheckerboard="0" /><g
     transform="matrix(0.24,0,0,0.24,-574.1022,-438.7026)"
     id="g20566"><g
       transform="matrix(62.5,0,0,62.5,2384.28,1884.99)"
       id="g9488"><path
         d="m 1.002,-0.772 c 0.015,0 0.029,0.003 0.041,0.008 0.013,0.006 0.024,0.013 0.034,0.023 0.01,0.009 0.017,0.02 0.023,0.033 0.005,0.013 0.008,0.026 0.008,0.041 0,0.011 -0.002,0.023 -0.006,0.034 -0.004,0.011 -0.009,0.021 -0.016,0.03 -0.007,0.009 -0.015,0.017 -0.025,0.024 -0.009,0.006 -0.02,0.011 -0.031,0.014 0.004,0.008 0.006,0.017 0.006,0.025 10e-4,0.009 0.002,0.018 0.002,0.026 v 0.023 h 0.035 v 0.175 H 0.986 L 0.94,-0.27 c 0.009,0.02 0.015,0.042 0.02,0.063 0.005,0.022 0.007,0.044 0.007,0.066 0,0.033 -0.004,0.064 -0.012,0.094 C 0.947,-0.017 0.935,0.011 0.919,0.037 0.904,0.063 0.886,0.086 0.865,0.108 0.843,0.129 0.819,0.147 0.793,0.163 0.767,0.178 0.74,0.19 0.71,0.198 0.68,0.206 0.649,0.21 0.616,0.21 0.584,0.21 0.553,0.206 0.523,0.198 0.493,0.19 0.465,0.178 0.439,0.163 0.413,0.147 0.39,0.129 0.368,0.108 0.347,0.086 0.329,0.063 0.313,0.037 0.298,0.011 0.286,-0.017 0.278,-0.047 0.27,-0.077 0.266,-0.108 0.266,-0.141 c 0,-0.045 0.009,-0.088 0.026,-0.129 L 0.247,-0.316 H 0.16 v -0.175 h 0.035 v -0.026 c 0,-0.009 0,-0.017 0.001,-0.025 C 0.197,-0.55 0.199,-0.558 0.203,-0.565 0.191,-0.568 0.181,-0.573 0.171,-0.579 0.162,-0.586 0.154,-0.594 0.147,-0.603 0.14,-0.612 0.135,-0.622 0.131,-0.633 0.127,-0.644 0.125,-0.656 0.125,-0.667 c 0,-0.015 0.003,-0.028 0.008,-0.041 0.006,-0.013 0.013,-0.024 0.023,-0.033 0.01,-0.01 0.021,-0.017 0.033,-0.023 0.013,-0.005 0.027,-0.008 0.041,-0.008 0.014,0 0.027,0.002 0.039,0.007 0.003,-0.011 0.008,-0.022 0.015,-0.031 0.006,-0.01 0.014,-0.018 0.023,-0.025 0.009,-0.007 0.019,-0.012 0.029,-0.016 0.011,-0.003 0.023,-0.005 0.035,-0.005 0.012,0 0.023,0.002 0.035,0.006 v -0.077 h 0.421 v 0.077 c 0.011,-0.004 0.023,-0.006 0.035,-0.006 0.025,0 0.046,0.007 0.064,0.021 0.018,0.015 0.03,0.034 0.038,0.056 0.012,-0.005 0.025,-0.007 0.038,-0.007 z"
         style="fill-rule:nonzero"
         id="path9474" /><path
         d="m 0.967,-0.421 h 0.035 v 0.035 H 0.957 L 0.854,-0.283 C 0.851,-0.283 0.848,-0.284 0.845,-0.286 0.843,-0.288 0.841,-0.291 0.839,-0.294 0.837,-0.296 0.835,-0.299 0.834,-0.302 0.833,-0.306 0.833,-0.308 0.833,-0.311 l 0.099,-0.1 V -0.457 H 0.967 Z M 0.4,-0.311 c 0,0.002 -0.001,0.003 -0.001,0.004 0,0.001 -0.001,0.002 -0.002,0.003 C 0.396,-0.302 0.396,-0.3 0.395,-0.298 0.394,-0.297 0.394,-0.295 0.393,-0.294 0.392,-0.293 0.39,-0.291 0.389,-0.29 0.387,-0.289 0.386,-0.288 0.383,-0.286 L 0.379,-0.283 0.276,-0.386 H 0.23 v -0.035 h 0.036 v -0.036 h 0.035 v 0.046 z"
         style="fill:#8e562e;fill-rule:nonzero"
         id="path9476" /><path
         d="m 0.932,-0.562 c 0.01,0 0.018,0.004 0.025,0.011 0.007,0.007 0.01,0.015 0.01,0.025 0,0.009 -0.003,0.017 -0.01,0.024 -0.007,0.007 -0.015,0.011 -0.025,0.011 -0.009,0 -0.018,-0.004 -0.025,-0.011 -0.007,-0.007 -0.01,-0.015 -0.01,-0.024 0,-0.01 0.003,-0.018 0.01,-0.025 0.007,-0.007 0.016,-0.011 0.025,-0.011 z m -0.561,-0.14 c -0.01,0 -0.018,-0.004 -0.025,-0.011 -0.007,-0.007 -0.011,-0.015 -0.011,-0.024 0,-0.01 0.004,-0.018 0.011,-0.025 0.007,-0.007 0.015,-0.01 0.025,-0.01 0.009,0 0.017,0.003 0.024,0.01 0.007,0.007 0.011,0.015 0.011,0.025 0,0.009 -0.004,0.018 -0.01,0.025 -0.007,0.006 -0.016,0.01 -0.025,0.01 z m 0.526,0.035 c 0.01,0 0.018,0.003 0.025,0.01 0.007,0.007 0.01,0.015 0.01,0.025 0,0.01 -0.003,0.018 -0.01,0.025 -0.007,0.007 -0.015,0.01 -0.025,0.01 -0.009,0 -0.018,-0.003 -0.024,-0.01 -0.007,-0.007 -0.011,-0.015 -0.011,-0.025 0,-0.009 0.004,-0.017 0.011,-0.024 0.006,-0.007 0.015,-0.011 0.024,-0.011 z m 0.105,-0.035 c 0.01,0 0.019,0.003 0.025,0.01 0.007,0.007 0.011,0.015 0.011,0.025 0,0.01 -0.004,0.018 -0.011,0.025 -0.006,0.007 -0.015,0.01 -0.025,0.01 -0.009,0 -0.018,-0.003 -0.024,-0.01 -0.007,-0.007 -0.011,-0.015 -0.011,-0.025 0,-0.01 0.004,-0.018 0.011,-0.025 0.006,-0.007 0.015,-0.01 0.024,-0.01 z M 0.897,-0.737 c 0,0.009 -0.003,0.017 -0.01,0.024 -0.007,0.007 -0.015,0.011 -0.025,0.011 -0.009,0 -0.018,-0.004 -0.025,-0.01 -0.006,-0.007 -0.01,-0.016 -0.01,-0.025 0,-0.01 0.004,-0.018 0.011,-0.025 0.007,-0.007 0.015,-0.01 0.024,-0.01 0.01,0 0.018,0.003 0.025,0.01 0.007,0.007 0.01,0.015 0.01,0.025 z m -0.562,0.07 c 0.01,0 0.019,0.003 0.025,0.01 0.007,0.007 0.011,0.015 0.011,0.025 0,0.01 -0.004,0.018 -0.011,0.025 -0.006,0.007 -0.015,0.01 -0.025,0.01 -0.009,0 -0.017,-0.003 -0.024,-0.01 -0.007,-0.007 -0.01,-0.015 -0.01,-0.025 0,-0.009 0.003,-0.017 0.01,-0.024 0.007,-0.007 0.015,-0.011 0.024,-0.011 z m -0.034,0.105 c 0.009,0 0.017,0.004 0.024,0.011 0.007,0.007 0.01,0.015 0.01,0.025 0,0.009 -0.003,0.017 -0.01,0.024 -0.007,0.007 -0.015,0.011 -0.024,0.011 -0.01,0 -0.018,-0.004 -0.025,-0.011 -0.007,-0.007 -0.01,-0.015 -0.01,-0.024 0,-0.01 0.003,-0.018 0.01,-0.025 0.007,-0.007 0.015,-0.011 0.025,-0.011 z M 0.266,-0.667 c 0,0.01 -0.004,0.018 -0.011,0.025 -0.006,0.007 -0.015,0.01 -0.025,0.01 -0.009,0 -0.018,-0.003 -0.024,-0.01 -0.007,-0.007 -0.011,-0.015 -0.011,-0.025 0,-0.01 0.004,-0.018 0.011,-0.025 0.006,-0.007 0.015,-0.01 0.024,-0.01 0.01,0 0.019,0.003 0.025,0.01 0.007,0.007 0.011,0.015 0.011,0.025 z m 0.526,0.246 C 0.763,-0.419 0.734,-0.417 0.706,-0.415 0.677,-0.413 0.649,-0.412 0.62,-0.412 0.59,-0.412 0.56,-0.413 0.53,-0.415 0.501,-0.417 0.471,-0.419 0.441,-0.421 0.429,-0.436 0.42,-0.452 0.415,-0.471 0.409,-0.489 0.406,-0.507 0.406,-0.526 c 0,-0.019 0.003,-0.038 0.009,-0.056 0.005,-0.018 0.014,-0.035 0.026,-0.05 h 0.351 c 0.012,0.015 0.02,0.032 0.026,0.05 0.006,0.018 0.009,0.037 0.009,0.056 0,0.019 -0.003,0.037 -0.009,0.055 -0.006,0.019 -0.014,0.035 -0.026,0.05 z m -0.351,0.07 c 0.031,-0.002 0.062,-0.003 0.093,-0.004 0.03,-0.002 0.061,-0.002 0.092,-0.002 0.028,0 0.056,0 0.083,0.002 0.028,0.001 0.055,0.002 0.083,0.004 0.016,0.013 0.03,0.027 0.043,0.043 0.013,0.016 0.024,0.033 0.033,0.051 0.009,0.018 0.016,0.036 0.021,0.056 0.005,0.02 0.008,0.04 0.008,0.06 0,0.039 -0.007,0.076 -0.022,0.11 C 0.86,0.003 0.84,0.033 0.815,0.058 0.79,0.083 0.76,0.104 0.726,0.118 0.691,0.133 0.655,0.14 0.616,0.14 0.577,0.14 0.541,0.133 0.507,0.118 0.473,0.103 0.443,0.083 0.418,0.058 0.393,0.032 0.372,0.003 0.358,-0.031 0.343,-0.066 0.335,-0.102 0.335,-0.141 c 0,-0.02 0.003,-0.041 0.008,-0.06 0.005,-0.02 0.012,-0.039 0.022,-0.057 0.009,-0.017 0.02,-0.034 0.033,-0.05 0.013,-0.016 0.027,-0.03 0.043,-0.043 z"
         style="fill:#ffffff;fill-rule:nonzero"
         id="path9478" /><path
         d="m 0.757,-0.667 h 0.07 v 0.035 H 0.406 v -0.035 h 0.07 v -0.175 h 0.281 z m 0,0.141 c 0,0.009 -0.004,0.017 -0.011,0.024 -0.007,0.007 -0.015,0.011 -0.024,0.011 -0.01,0 -0.018,-0.004 -0.025,-0.011 -0.007,-0.007 -0.01,-0.015 -0.01,-0.024 v -0.036 c 0,-0.009 0.003,-0.018 0.01,-0.024 0.007,-0.007 0.015,-0.011 0.025,-0.011 0.009,0 0.018,0.004 0.025,0.011 0.006,0.006 0.01,0.015 0.01,0.024 z m -0.211,0 c 0,0.009 -0.003,0.017 -0.01,0.024 -0.007,0.007 -0.015,0.011 -0.025,0.011 -0.009,0 -0.017,-0.004 -0.024,-0.011 C 0.48,-0.509 0.476,-0.517 0.476,-0.526 v -0.036 c 0,-0.009 0.003,-0.018 0.01,-0.024 0.007,-0.007 0.015,-0.011 0.025,-0.011 0.01,0 0.018,0.004 0.025,0.011 0.007,0.006 0.01,0.015 0.01,0.024 z m 0.105,0.456 c 0,0.009 -0.003,0.018 -0.01,0.025 -0.007,0.006 -0.015,0.01 -0.025,0.01 -0.009,0 -0.017,-0.004 -0.024,-0.011 -0.007,-0.007 -0.01,-0.015 -0.01,-0.024 0,-0.01 0.003,-0.018 0.01,-0.025 0.007,-0.007 0.015,-0.01 0.024,-0.01 0.01,0 0.018,0.003 0.025,0.01 0.007,0.007 0.01,0.015 0.01,0.025 z m 0,-0.14 c 0,0.009 -0.003,0.017 -0.01,0.024 -0.007,0.007 -0.015,0.01 -0.025,0.01 -0.009,0 -0.017,-0.003 -0.024,-0.01 -0.007,-0.007 -0.01,-0.015 -0.01,-0.024 0,-0.01 0.003,-0.018 0.01,-0.025 0.007,-0.007 0.015,-0.011 0.024,-0.011 0.01,0 0.018,0.004 0.025,0.011 0.007,0.006 0.01,0.015 0.01,0.025 z"
         style="fill:#383838;fill-rule:nonzero"
         id="path9480" /><rect
         x="0.47600001"
         y="-0.70200002"
         width="0.28099999"
         height="0.035"
         style="fill:#757575;fill-rule:nonzero"
         id="rect9482" /><path
         d="m 0.441,-0.421 h 0.351 v 0.07 H 0.546 v 0.105 H 0.476 V -0.351 H 0.441 Z"
         style="fill:#e81224;fill-rule:nonzero"
         id="path9484" /><path
         d="m 0.695,-0.491 c -0.004,0.002 -0.01,0.005 -0.017,0.009 -0.007,0.004 -0.015,0.008 -0.022,0.012 -0.008,0.003 -0.016,0.007 -0.023,0.009 -0.007,0.003 -0.013,0.004 -0.017,0.004 -0.009,0 -0.017,-0.003 -0.024,-0.01 -0.007,-0.007 -0.01,-0.015 -0.01,-0.024 0,-0.01 0.003,-0.018 0.01,-0.025 0.007,-0.007 0.015,-0.01 0.024,-0.01 0.004,0 0.01,0.001 0.017,0.004 0.007,0.003 0.015,0.006 0.023,0.01 0.008,0.004 0.015,0.008 0.022,0.012 0.007,0.003 0.013,0.007 0.017,0.009 z"
         style="fill:#f7630c;fill-rule:nonzero"
         id="path9486" /></g></g></svg>
