<?xml version="1.0" encoding="UTF-8" standalone="no"?>
<svg
   width="13.695"
   height="16.844999"
   viewBox="0 0 13.695 16.844999"
   version="1.1"
   xml:space="preserve"
   style="clip-rule:evenodd;fill-rule:evenodd;stroke-linejoin:round;stroke-miterlimit:2"
   id="svg20568"
   sodipodi:docname="emojis.svg"
   xmlns:inkscape="http://www.inkscape.org/namespaces/inkscape"
   xmlns:sodipodi="http://sodipodi.sourceforge.net/DTD/sodipodi-0.dtd"
   xmlns="http://www.w3.org/2000/svg"
   xmlns:svg="http://www.w3.org/2000/svg"><defs
     id="defs20572" /><sodipodi:namedview
     id="namedview20570"
     pagecolor="#505050"
     bordercolor="#eeeeee"
     borderopacity="1"
     inkscape:pageshadow="0"
     inkscape:pageopacity="0"
     inkscape:pagecheckerboard="0" /><g
     transform="matrix(0.24,0,0,0.24,-592.5966,-438.7026)"
     id="g20566"><g
       transform="matrix(62.5,0,0,62.5,2461.34,1884.99)"
       id="g9504"><path
         d="m 0.792,-0.913 v 0.176 h 0.07 v 0.211 h 0.176 v 0.21 H 0.951 L 0.905,-0.27 c 0.009,0.02 0.015,0.042 0.02,0.063 0.005,0.022 0.007,0.044 0.007,0.066 0,0.033 -0.004,0.064 -0.012,0.094 C 0.911,-0.017 0.9,0.011 0.884,0.037 0.869,0.063 0.851,0.086 0.829,0.108 0.808,0.129 0.784,0.147 0.758,0.163 0.732,0.178 0.704,0.19 0.674,0.198 0.644,0.206 0.613,0.21 0.581,0.21 0.549,0.21 0.518,0.206 0.488,0.198 0.458,0.19 0.43,0.178 0.404,0.163 0.378,0.147 0.355,0.129 0.333,0.108 0.312,0.086 0.294,0.063 0.278,0.037 0.263,0.011 0.251,-0.017 0.243,-0.047 0.235,-0.077 0.23,-0.108 0.23,-0.141 0.23,-0.186 0.239,-0.229 0.257,-0.27 L 0.211,-0.316 H 0.125 v -0.21 H 0.3 v -0.211 h 0.071 v -0.176 z"
         style="fill-rule:nonzero"
         id="path9490" /><path
         d="m 0.932,-0.421 h 0.035 v 0.035 H 0.922 L 0.818,-0.283 0.816,-0.284 C 0.813,-0.286 0.81,-0.288 0.808,-0.29 0.807,-0.291 0.805,-0.293 0.804,-0.295 0.802,-0.296 0.801,-0.299 0.801,-0.301 0.8,-0.303 0.799,-0.307 0.797,-0.311 l 0.1,-0.1 v -0.046 h 0.035 z m -0.667,0.01 0.1,0.1 c 0,0.005 -0.002,0.011 -0.006,0.017 -0.004,0.006 -0.009,0.01 -0.015,0.011 L 0.241,-0.386 H 0.195 V -0.421 H 0.23 v -0.036 h 0.035 z"
         style="fill:#8e562e;fill-rule:nonzero"
         id="path9492" /><path
         d="M 0.757,-0.421 C 0.727,-0.419 0.698,-0.417 0.669,-0.416 0.64,-0.414 0.61,-0.413 0.581,-0.413 0.551,-0.413 0.522,-0.414 0.493,-0.416 0.464,-0.417 0.435,-0.419 0.406,-0.421 0.394,-0.436 0.385,-0.452 0.379,-0.471 0.374,-0.489 0.371,-0.507 0.371,-0.526 c 0,-0.019 0.003,-0.038 0.008,-0.056 0.006,-0.018 0.015,-0.035 0.027,-0.05 h 0.351 c 0.012,0.015 0.02,0.032 0.026,0.05 0.006,0.018 0.009,0.037 0.009,0.056 0,0.019 -0.003,0.037 -0.009,0.055 -0.006,0.019 -0.014,0.035 -0.026,0.05 z m -0.351,0.07 c 0.029,-0.003 0.059,-0.005 0.088,-0.008 0.03,-0.003 0.06,-0.005 0.089,-0.005 0.03,0 0.059,0.002 0.087,0.005 0.029,0.003 0.058,0.005 0.087,0.008 0.015,0.013 0.03,0.027 0.043,0.043 0.013,0.016 0.024,0.033 0.033,0.051 0.009,0.018 0.016,0.036 0.021,0.056 0.005,0.02 0.008,0.04 0.008,0.06 0,0.039 -0.008,0.076 -0.022,0.11 C 0.825,0.003 0.805,0.033 0.78,0.058 0.754,0.083 0.725,0.104 0.69,0.118 0.656,0.133 0.62,0.14 0.581,0.14 0.542,0.14 0.506,0.133 0.472,0.118 0.438,0.103 0.408,0.083 0.383,0.058 0.357,0.032 0.337,0.003 0.323,-0.031 0.308,-0.066 0.3,-0.102 0.3,-0.141 c 0,-0.02 0.003,-0.041 0.008,-0.06 0.005,-0.02 0.012,-0.039 0.021,-0.057 0.01,-0.017 0.021,-0.034 0.034,-0.05 0.012,-0.016 0.027,-0.03 0.043,-0.043 z"
         style="fill:#ffffff;fill-rule:nonzero"
         id="path9494" /><path
         d="m 0.722,-0.667 h 0.07 v 0.035 H 0.371 v -0.035 h 0.07 v -0.175 h 0.281 z m 0,0.141 c 0,0.009 -0.004,0.017 -0.011,0.024 -0.007,0.007 -0.015,0.011 -0.024,0.011 -0.01,0 -0.018,-0.004 -0.025,-0.011 C 0.655,-0.509 0.651,-0.517 0.651,-0.526 v -0.036 c 0,-0.009 0.004,-0.018 0.011,-0.024 0.006,-0.007 0.015,-0.011 0.025,-0.011 0.009,0 0.018,0.004 0.024,0.011 0.007,0.006 0.011,0.015 0.011,0.024 z m -0.211,0 c 0,0.009 -0.003,0.017 -0.01,0.024 -0.007,0.007 -0.015,0.011 -0.025,0.011 -0.009,0 -0.018,-0.004 -0.025,-0.011 -0.007,-0.007 -0.01,-0.015 -0.01,-0.024 v -0.036 c 0,-0.009 0.003,-0.018 0.01,-0.024 0.007,-0.007 0.015,-0.011 0.025,-0.011 0.01,0 0.018,0.004 0.025,0.011 0.007,0.007 0.01,0.015 0.01,0.024 z m 0.105,0.456 c 0,0.009 -0.003,0.018 -0.01,0.025 -0.007,0.006 -0.015,0.01 -0.025,0.01 -0.009,0 -0.018,-0.004 -0.025,-0.011 -0.007,-0.007 -0.01,-0.015 -0.01,-0.024 0,-0.01 0.003,-0.018 0.01,-0.025 0.007,-0.007 0.016,-0.01 0.025,-0.01 0.01,0 0.018,0.003 0.025,0.01 0.007,0.007 0.01,0.015 0.01,0.025 z m 0,-0.14 c 0,0.009 -0.003,0.017 -0.01,0.024 -0.007,0.007 -0.016,0.01 -0.025,0.01 -0.009,0 -0.018,-0.003 -0.025,-0.01 -0.007,-0.007 -0.01,-0.015 -0.01,-0.024 0,-0.01 0.003,-0.018 0.01,-0.025 0.007,-0.007 0.016,-0.011 0.025,-0.011 0.01,0 0.018,0.004 0.025,0.011 0.007,0.006 0.01,0.015 0.01,0.025 z"
         style="fill:#383838;fill-rule:nonzero"
         id="path9496" /><rect
         x="0.44100001"
         y="-0.70200002"
         width="0.28099999"
         height="0.035"
         style="fill:#757575;fill-rule:nonzero"
         id="rect9498" /><path
         d="m 0.406,-0.421 h 0.351 v 0.07 H 0.511 v 0.105 H 0.441 V -0.351 H 0.406 Z"
         style="fill:#e81224;fill-rule:nonzero"
         id="path9500" /><path
         d="m 0.66,-0.491 c -0.004,0.002 -0.01,0.005 -0.017,0.009 -0.008,0.004 -0.015,0.008 -0.023,0.012 -0.007,0.003 -0.015,0.007 -0.022,0.009 -0.007,0.003 -0.013,0.004 -0.017,0.004 -0.009,0 -0.018,-0.003 -0.025,-0.01 -0.007,-0.007 -0.01,-0.015 -0.01,-0.024 0,-0.01 0.003,-0.018 0.01,-0.025 0.007,-0.007 0.016,-0.01 0.025,-0.01 0.004,0 0.01,0.001 0.017,0.004 0.007,0.003 0.015,0.006 0.023,0.01 0.007,0.004 0.015,0.008 0.022,0.012 0.007,0.003 0.013,0.007 0.017,0.009 z"
         style="fill:#f7630c;fill-rule:nonzero"
         id="path9502" /></g></g></svg>
