<?xml version="1.0" encoding="UTF-8" standalone="no"?>
<svg
   width="16.844999"
   height="16.844999"
   viewBox="0 0 16.844999 16.844999"
   version="1.1"
   xml:space="preserve"
   style="clip-rule:evenodd;fill-rule:evenodd;stroke-linejoin:round;stroke-miterlimit:2"
   id="svg20568"
   sodipodi:docname="emojis.svg"
   xmlns:inkscape="http://www.inkscape.org/namespaces/inkscape"
   xmlns:sodipodi="http://sodipodi.sourceforge.net/DTD/sodipodi-0.dtd"
   xmlns="http://www.w3.org/2000/svg"
   xmlns:svg="http://www.w3.org/2000/svg"><defs
     id="defs20572" /><sodipodi:namedview
     id="namedview20570"
     pagecolor="#505050"
     bordercolor="#eeeeee"
     borderopacity="1"
     inkscape:pageshadow="0"
     inkscape:pageopacity="0"
     inkscape:pagecheckerboard="0" /><g
     transform="matrix(0.24,0,0,0.24,-610.035,-438.7026)"
     id="g20566"><g
       transform="matrix(62.5,0,0,62.5,2534,1884.99)"
       id="g9518"><path
         d="m 1.116,-0.913 c 0.018,0 0.035,0.004 0.051,0.011 0.016,0.007 0.03,0.016 0.042,0.028 0.012,0.012 0.022,0.026 0.029,0.042 0.007,0.016 0.01,0.033 0.01,0.052 0,0.018 -0.003,0.035 -0.01,0.05 -0.007,0.015 -0.016,0.03 -0.029,0.043 -0.015,0.017 -0.032,0.033 -0.048,0.049 -0.016,0.016 -0.032,0.032 -0.049,0.048 0.01,0.004 0.02,0.01 0.028,0.017 0.008,0.007 0.015,0.014 0.021,0.023 0.006,0.009 0.01,0.018 0.013,0.028 0.003,0.011 0.005,0.021 0.005,0.032 0,0.014 -0.003,0.028 -0.008,0.041 -0.006,0.013 -0.013,0.024 -0.024,0.034 L 0.605,0.128 C 0.578,0.155 0.548,0.175 0.514,0.189 0.48,0.203 0.444,0.21 0.406,0.21 0.381,0.21 0.356,0.207 0.332,0.2 0.308,0.194 0.285,0.184 0.265,0.172 0.244,0.16 0.225,0.145 0.208,0.128 0.19,0.111 0.176,0.092 0.163,0.071 0.151,0.05 0.142,0.028 0.135,0.004 0.128,-0.02 0.125,-0.045 0.125,-0.071 c 0,-0.038 0.007,-0.073 0.021,-0.107 0.014,-0.034 0.035,-0.065 0.062,-0.092 l 0.611,-0.611 c 0.01,-0.01 0.022,-0.018 0.035,-0.024 0.013,-0.005 0.027,-0.008 0.041,-0.008 0.022,0 0.042,0.006 0.06,0.018 0.018,0.013 0.031,0.029 0.039,0.049 0.009,-0.009 0.018,-0.018 0.027,-0.026 0.008,-0.008 0.017,-0.015 0.026,-0.021 0.01,-0.006 0.02,-0.011 0.031,-0.014 0.011,-0.004 0.024,-0.006 0.038,-0.006 z"
         style="fill-rule:nonzero"
         id="path9506" /><path
         d="m 1.178,-0.78 c 0,0.017 -0.006,0.032 -0.018,0.044 L 0.943,-0.52 c -0.007,0.007 -0.011,0.016 -0.011,0.026 0,0.011 0.004,0.02 0.011,0.027 0.007,0.007 0.016,0.011 0.026,0.011 0.011,0 0.02,-0.004 0.028,-0.011 C 1.005,-0.474 1.012,-0.482 1.02,-0.491 1.027,-0.5 1.035,-0.508 1.042,-0.515 1.05,-0.523 1.06,-0.526 1.07,-0.526 c 0.011,0 0.02,0.003 0.027,0.01 0.007,0.008 0.01,0.016 0.01,0.027 0,0.01 -0.003,0.019 -0.01,0.026 L 0.555,0.079 C 0.535,0.098 0.512,0.114 0.487,0.124 0.461,0.135 0.434,0.14 0.406,0.14 0.376,0.14 0.349,0.135 0.323,0.124 0.298,0.113 0.276,0.098 0.257,0.079 0.238,0.06 0.223,0.038 0.212,0.012 0.201,-0.014 0.195,-0.041 0.195,-0.07 0.195,-0.098 0.201,-0.125 0.211,-0.151 0.222,-0.177 0.237,-0.2 0.257,-0.22 l 0.612,-0.612 c 0.007,-0.007 0.016,-0.01 0.026,-0.01 0.01,0 0.019,0.003 0.026,0.01 0.008,0.008 0.011,0.016 0.011,0.027 0,0.011 -0.004,0.02 -0.011,0.028 -0.007,0.007 -0.015,0.015 -0.024,0.022 -0.009,0.008 -0.017,0.015 -0.024,0.023 -0.008,0.008 -0.011,0.017 -0.011,0.028 0,0.01 0.003,0.019 0.011,0.027 0.007,0.007 0.016,0.01 0.026,0.01 0.005,0 0.01,0 0.014,-0.002 0.005,-0.002 0.009,-0.005 0.012,-0.009 l 0.147,-0.146 c 0.012,-0.012 0.026,-0.018 0.044,-0.018 0.008,0 0.016,0.001 0.024,0.005 0.007,0.003 0.014,0.007 0.019,0.013 0.006,0.006 0.011,0.012 0.014,0.02 0.003,0.007 0.005,0.015 0.005,0.024 z"
         style="fill:#0078d7;fill-rule:nonzero"
         id="path9508" /><path
         d="M 0.318,-0.105 C 0.313,-0.105 0.309,-0.107 0.306,-0.111 0.302,-0.114 0.3,-0.118 0.3,-0.123 c 0,-0.004 0.002,-0.009 0.006,-0.012 l 0.456,-0.457 c 0.003,-0.003 0.007,-0.005 0.012,-0.005 0.005,0 0.009,0.002 0.012,0.005 0.004,0.004 0.006,0.008 0.006,0.013 0,0.005 -0.002,0.009 -0.005,0.012 L 0.331,-0.11 c -0.004,0.003 -0.008,0.005 -0.013,0.005 z m 0.474,-0.527 0.026,-0.009 0.009,-0.026 0.008,0.026 0.027,0.009 -0.027,0.009 -0.008,0.026 -0.009,-0.026 z"
         style="fill:#b4a0ff;fill-rule:nonzero"
         id="path9510" /><path
         d="M 0.458,0.035 C 0.454,0.035 0.45,0.033 0.446,0.03 0.442,0.027 0.44,0.022 0.44,0.018 0.44,0.013 0.442,0.008 0.446,0.005 l 0.386,-0.386 c 0.003,-0.003 0.007,-0.005 0.012,-0.005 0.005,0 0.009,0.002 0.012,0.005 0.004,0.004 0.006,0.008 0.006,0.012 0,0.006 -0.002,0.01 -0.005,0.013 L 0.471,0.03 C 0.467,0.033 0.463,0.035 0.458,0.035 Z M 0.862,-0.421 0.888,-0.43 0.897,-0.457 0.906,-0.43 0.932,-0.421 0.906,-0.413 0.897,-0.386 0.888,-0.413 Z"
         style="fill:#3a96dd;fill-rule:nonzero"
         id="path9512" /><path
         d="m 1.055,-0.737 c 0.005,0 0.009,0.002 0.012,0.005 0.004,0.004 0.005,0.008 0.005,0.013 0,0.005 -0.001,0.009 -0.005,0.012 L 0.729,-0.369 C 0.718,-0.358 0.709,-0.347 0.7,-0.334 0.691,-0.322 0.683,-0.31 0.676,-0.296 0.652,-0.249 0.628,-0.202 0.606,-0.155 0.583,-0.107 0.56,-0.06 0.535,-0.014 0.522,0.011 0.504,0.031 0.483,0.047 0.461,0.062 0.436,0.07 0.407,0.07 0.387,0.07 0.369,0.067 0.352,0.059 0.334,0.052 0.319,0.042 0.307,0.029 0.294,0.016 0.284,0.001 0.276,-0.016 0.269,-0.033 0.265,-0.052 0.265,-0.071 c 0,-0.014 0.002,-0.027 0.006,-0.04 0.005,-0.013 0.011,-0.025 0.018,-0.036 0.008,-0.011 0.016,-0.022 0.027,-0.031 0.01,-0.009 0.021,-0.016 0.033,-0.022 L 0.631,-0.341 C 0.658,-0.354 0.682,-0.372 0.704,-0.394 L 1.042,-0.732 C 1.046,-0.735 1.05,-0.737 1.055,-0.737 Z m 0.018,-0.035 0.026,-0.009 0.008,-0.026 0.009,0.026 0.027,0.009 -0.027,0.009 -0.009,0.026 -0.008,-0.026 z"
         style="fill:#b3dbf2;fill-rule:nonzero"
         id="path9514" /><path
         d="M 0.511,-0.176 0.467,-0.042 C 0.465,-0.035 0.462,-0.03 0.458,-0.025 0.453,-0.02 0.448,-0.015 0.442,-0.011 0.436,-0.008 0.43,-0.005 0.424,-0.003 0.417,-0.001 0.41,0 0.404,0 0.395,0 0.386,-0.002 0.377,-0.005 0.369,-0.009 0.362,-0.014 0.355,-0.02 0.349,-0.026 0.344,-0.034 0.341,-0.042 0.337,-0.05 0.335,-0.059 0.335,-0.069 c 0,-0.006 0.001,-0.012 0.003,-0.019 0.002,-0.007 0.005,-0.013 0.009,-0.019 0.004,-0.005 0.008,-0.011 0.013,-0.015 0.005,-0.005 0.011,-0.008 0.017,-0.01 z"
         style="fill:#ffffff;fill-rule:nonzero"
         id="path9516" /></g></g></svg>
