<?xml version="1.0" encoding="UTF-8" standalone="no"?>
<svg
   width="10.53"
   height="16.844999"
   viewBox="0 0 10.53 16.844999"
   version="1.1"
   xml:space="preserve"
   style="clip-rule:evenodd;fill-rule:evenodd;stroke-linejoin:round;stroke-miterlimit:2"
   id="svg20568"
   sodipodi:docname="emojis.svg"
   xmlns:inkscape="http://www.inkscape.org/namespaces/inkscape"
   xmlns:sodipodi="http://sodipodi.sourceforge.net/DTD/sodipodi-0.dtd"
   xmlns="http://www.w3.org/2000/svg"
   xmlns:svg="http://www.w3.org/2000/svg"><defs
     id="defs20572" /><sodipodi:namedview
     id="namedview20570"
     pagecolor="#505050"
     bordercolor="#eeeeee"
     borderopacity="1"
     inkscape:pageshadow="0"
     inkscape:pageopacity="0"
     inkscape:pagecheckerboard="0" /><g
     transform="matrix(0.24,0,0,0.24,-647.0142,-438.7026)"
     id="g20566"><g
       transform="matrix(62.5,0,0,62.5,2688.08,1884.99)"
       id="g9534"><path
         d="m 0.476,-0.913 0.319,0.64 c 0.021,0.041 0.032,0.086 0.032,0.132 0,0.033 -0.004,0.064 -0.013,0.094 C 0.806,-0.017 0.794,0.011 0.779,0.037 0.764,0.063 0.745,0.086 0.724,0.108 0.703,0.129 0.679,0.147 0.653,0.163 0.627,0.178 0.599,0.19 0.569,0.198 0.539,0.206 0.508,0.21 0.476,0.21 0.444,0.21 0.413,0.206 0.383,0.198 0.353,0.19 0.325,0.178 0.299,0.163 0.273,0.147 0.249,0.129 0.228,0.108 0.206,0.086 0.188,0.063 0.173,0.037 0.158,0.011 0.146,-0.017 0.137,-0.047 0.129,-0.077 0.125,-0.108 0.125,-0.141 c 0,-0.046 0.01,-0.091 0.031,-0.132 z"
         style="fill-rule:nonzero"
         id="path9530" /><path
         d="m 0.476,-0.756 0.257,0.514 c 0.016,0.032 0.024,0.066 0.024,0.101 0,0.039 -0.008,0.075 -0.022,0.11 C 0.72,0.003 0.7,0.032 0.674,0.058 0.649,0.083 0.619,0.103 0.585,0.118 0.551,0.133 0.514,0.14 0.476,0.14 0.437,0.14 0.401,0.133 0.367,0.118 0.333,0.103 0.303,0.083 0.278,0.058 0.252,0.032 0.232,0.003 0.218,-0.031 0.203,-0.066 0.195,-0.102 0.195,-0.141 c 0,-0.035 0.008,-0.069 0.024,-0.101 z"
         style="fill:#00bcf2;fill-rule:nonzero"
         id="path9532" /></g></g></svg>
