<?xml version="1.0" encoding="UTF-8" standalone="no"?>
<svg
   width="16.32"
   height="16.32"
   viewBox="0 0 16.32 16.32"
   version="1.1"
   xml:space="preserve"
   style="clip-rule:evenodd;fill-rule:evenodd;stroke-linejoin:round;stroke-miterlimit:2"
   id="svg20568"
   sodipodi:docname="emojis.svg"
   xmlns:inkscape="http://www.inkscape.org/namespaces/inkscape"
   xmlns:sodipodi="http://sodipodi.sourceforge.net/DTD/sodipodi-0.dtd"
   xmlns="http://www.w3.org/2000/svg"
   xmlns:svg="http://www.w3.org/2000/svg"><defs
     id="defs20572" /><sodipodi:namedview
     id="namedview20570"
     pagecolor="#505050"
     bordercolor="#eeeeee"
     borderopacity="1"
     inkscape:pageshadow="0"
     inkscape:pageopacity="0"
     inkscape:pagecheckerboard="0" /><g
     transform="matrix(0.24,0,0,0.24,-701.4126,-438.7026)"
     id="g20566"><g
       transform="matrix(62.5,0,0,62.5,2914.74,1884.99)"
       id="g9568"><path
         d="m 0.712,-0.62 c 0.036,-0.015 0.072,-0.026 0.11,-0.034 0.038,-0.008 0.076,-0.013 0.114,-0.013 0.037,0 0.072,0.007 0.106,0.02 0.033,0.013 0.062,0.032 0.088,0.055 0.025,0.023 0.045,0.051 0.06,0.083 0.015,0.032 0.023,0.067 0.023,0.105 0,0.036 -0.007,0.07 -0.021,0.102 -0.014,0.033 -0.032,0.06 -0.056,0.084 -0.024,0.024 -0.052,0.043 -0.084,0.057 -0.032,0.013 -0.066,0.02 -0.102,0.02 -0.027,0 -0.054,-0.003 -0.08,-0.011 0.018,0.033 0.027,0.068 0.027,0.106 0,0.031 -0.006,0.06 -0.019,0.088 C 0.866,0.069 0.849,0.092 0.828,0.112 0.806,0.132 0.782,0.147 0.754,0.158 0.726,0.17 0.697,0.175 0.666,0.175 0.641,0.175 0.617,0.172 0.593,0.165 0.57,0.158 0.548,0.148 0.527,0.136 0.507,0.123 0.488,0.108 0.471,0.09 0.455,0.072 0.441,0.052 0.43,0.029 L 0.295,-0.24 C 0.293,-0.244 0.292,-0.248 0.291,-0.252 0.29,-0.256 0.289,-0.26 0.289,-0.264 c 0,-0.007 0.001,-0.014 0.004,-0.02 0.003,-0.006 0.007,-0.012 0.012,-0.017 0.005,-0.004 0.01,-0.008 0.017,-0.011 0.006,-0.003 0.013,-0.004 0.02,-0.004 l 0.139,-0.14 c -0.047,0.002 -0.092,0.01 -0.136,0.024 L 0.217,-0.39 C 0.21,-0.387 0.203,-0.386 0.195,-0.386 0.186,-0.386 0.176,-0.388 0.168,-0.392 0.159,-0.395 0.152,-0.4 0.145,-0.406 0.139,-0.413 0.134,-0.42 0.13,-0.429 0.127,-0.438 0.125,-0.447 0.125,-0.457 c 0,-0.066 0.012,-0.129 0.037,-0.189 0.025,-0.059 0.061,-0.112 0.108,-0.16 0.016,-0.016 0.032,-0.031 0.048,-0.044 0.016,-0.014 0.033,-0.025 0.05,-0.034 0.018,-0.009 0.036,-0.016 0.056,-0.021 0.02,-0.005 0.042,-0.008 0.067,-0.008 0.032,0 0.062,0.006 0.09,0.018 0.028,0.011 0.052,0.027 0.073,0.048 0.021,0.02 0.038,0.044 0.05,0.072 0.012,0.028 0.018,0.058 0.018,0.09 0,0.023 -0.003,0.044 -0.01,0.065 z"
         style="fill-rule:nonzero"
         id="path9560" /><path
         d="m 0.195,-0.457 c 0,-0.058 0.011,-0.112 0.032,-0.162 0.021,-0.049 0.052,-0.095 0.092,-0.137 0.013,-0.013 0.026,-0.025 0.039,-0.036 0.012,-0.011 0.025,-0.02 0.039,-0.027 0.014,-0.008 0.028,-0.014 0.044,-0.017 0.016,-0.004 0.033,-0.006 0.053,-0.006 0.021,0 0.042,0.004 0.061,0.012 0.019,0.008 0.036,0.02 0.05,0.034 0.014,0.014 0.026,0.031 0.034,0.05 0.008,0.019 0.012,0.04 0.012,0.061 0,0.022 -0.004,0.043 -0.012,0.062 -0.008,0.019 -0.02,0.036 -0.034,0.05 -0.014,0.015 -0.031,0.026 -0.05,0.034 -0.019,0.008 -0.04,0.013 -0.061,0.013 -0.059,0 -0.116,0.009 -0.172,0.027 z"
         style="fill:#00bcf2;fill-rule:nonzero"
         id="path9562" /><path
         d="m 1.143,-0.404 c 0,0.027 -0.005,0.052 -0.016,0.075 -0.01,0.024 -0.023,0.044 -0.041,0.062 -0.017,0.017 -0.038,0.031 -0.061,0.041 -0.024,0.01 -0.049,0.015 -0.075,0.015 -0.018,0 -0.035,-0.002 -0.052,-0.006 C 0.882,-0.221 0.866,-0.227 0.85,-0.234 0.832,-0.243 0.814,-0.252 0.796,-0.261 0.778,-0.27 0.76,-0.279 0.742,-0.289 0.7,-0.309 0.657,-0.325 0.613,-0.335 0.568,-0.346 0.522,-0.351 0.476,-0.351 l 0.085,-0.085 c 0.025,-0.025 0.053,-0.048 0.083,-0.068 0.03,-0.02 0.062,-0.037 0.095,-0.051 0.033,-0.013 0.067,-0.024 0.103,-0.031 0.035,-0.007 0.071,-0.011 0.108,-0.011 0.026,0 0.051,0.005 0.075,0.015 0.023,0.011 0.044,0.024 0.061,0.042 0.018,0.017 0.031,0.038 0.041,0.061 0.011,0.023 0.016,0.048 0.016,0.075 z"
         style="fill:#69eaff;fill-rule:nonzero"
         id="path9564" /><path
         d="m 0.475,-0.246 c 0.021,0 0.044,0.002 0.067,0.004 0.024,0.003 0.047,0.007 0.071,0.012 0.024,0.005 0.047,0.011 0.069,0.019 0.022,0.008 0.043,0.018 0.061,0.028 0.027,0.015 0.047,0.034 0.062,0.057 0.014,0.022 0.022,0.049 0.022,0.079 0,0.021 -0.004,0.041 -0.012,0.059 C 0.807,0.03 0.796,0.046 0.782,0.06 0.769,0.074 0.753,0.085 0.734,0.093 0.716,0.101 0.696,0.105 0.675,0.105 0.655,0.105 0.636,0.102 0.618,0.097 0.599,0.092 0.582,0.084 0.565,0.074 0.549,0.064 0.534,0.052 0.521,0.038 0.508,0.023 0.497,0.007 0.488,-0.01 L 0.371,-0.246 Z"
         style="fill:#31d2f7;fill-rule:nonzero"
         id="path9566" /></g></g></svg>
