<?xml version="1.0" encoding="UTF-8" standalone="no"?>
<svg
   width="16.844999"
   height="13.68"
   viewBox="0 0 16.844999 13.68"
   version="1.1"
   xml:space="preserve"
   style="clip-rule:evenodd;fill-rule:evenodd;stroke-linejoin:round;stroke-miterlimit:2"
   id="svg20568"
   sodipodi:docname="emojis.svg"
   xmlns:inkscape="http://www.inkscape.org/namespaces/inkscape"
   xmlns:sodipodi="http://sodipodi.sourceforge.net/DTD/sodipodi-0.dtd"
   xmlns="http://www.w3.org/2000/svg"
   xmlns:svg="http://www.w3.org/2000/svg"><defs
     id="defs20572" /><sodipodi:namedview
     id="namedview20570"
     pagecolor="#505050"
     bordercolor="#eeeeee"
     borderopacity="1"
     inkscape:pageshadow="0"
     inkscape:pageopacity="0"
     inkscape:pagecheckerboard="0" /><g
     transform="matrix(0.24,0,0,0.24,-721.4886,-440.2926)"
     id="g20566"><g
       transform="matrix(62.5,0,0,62.5,2998.39,1884.99)"
       id="g9574"><path
         d="m 1.176,-0.525 c 0.023,0.024 0.041,0.05 0.053,0.08 0.013,0.029 0.019,0.061 0.019,0.094 0,0.035 -0.006,0.066 -0.019,0.094 -0.012,0.028 -0.03,0.055 -0.053,0.08 C 1.172,-0.15 1.164,-0.124 1.152,-0.1 1.139,-0.076 1.124,-0.055 1.106,-0.037 1.087,-0.018 1.066,-0.003 1.042,0.009 1.019,0.021 0.993,0.029 0.966,0.033 0.942,0.056 0.916,0.074 0.886,0.086 0.857,0.099 0.825,0.105 0.792,0.105 0.758,0.105 0.726,0.099 0.696,0.086 0.666,0.073 0.64,0.055 0.618,0.033 0.596,0.011 0.578,-0.015 0.565,-0.045 0.552,-0.075 0.546,-0.107 0.546,-0.141 H 0.23 C 0.216,-0.141 0.202,-0.143 0.189,-0.149 0.177,-0.154 0.166,-0.162 0.156,-0.171 0.146,-0.181 0.139,-0.192 0.133,-0.205 0.128,-0.217 0.125,-0.231 0.125,-0.246 c 0,-0.024 0.006,-0.044 0.019,-0.061 0.013,-0.016 0.03,-0.029 0.051,-0.038 V -0.357 C 0.174,-0.366 0.157,-0.379 0.144,-0.396 0.131,-0.412 0.125,-0.432 0.125,-0.457 c 0,-0.014 0.003,-0.028 0.008,-0.041 0.006,-0.012 0.013,-0.023 0.023,-0.033 0.01,-0.009 0.021,-0.017 0.033,-0.022 0.013,-0.006 0.027,-0.009 0.041,-0.009 h 0.316 c 0,-0.033 0.006,-0.065 0.019,-0.095 0.013,-0.03 0.031,-0.056 0.053,-0.078 0.023,-0.022 0.049,-0.04 0.079,-0.053 0.029,-0.013 0.061,-0.019 0.095,-0.019 0.033,0 0.065,0.006 0.094,0.018 0.03,0.013 0.056,0.031 0.08,0.054 0.027,0.004 0.052,0.012 0.076,0.024 0.024,0.012 0.045,0.027 0.064,0.046 0.019,0.019 0.034,0.04 0.046,0.064 0.012,0.024 0.02,0.049 0.024,0.076 z"
         style="fill-rule:nonzero"
         id="path9570" /><path
         d="m 1.107,-0.491 c 0.024,0.017 0.041,0.039 0.053,0.063 0.012,0.025 0.018,0.052 0.018,0.081 0,0.013 -0.002,0.026 -0.005,0.039 -0.004,0.013 -0.009,0.025 -0.015,0.037 -0.006,0.012 -0.014,0.023 -0.023,0.033 -0.008,0.011 -0.017,0.02 -0.028,0.028 0,0.024 -0.004,0.046 -0.013,0.067 -0.01,0.022 -0.022,0.04 -0.038,0.056 C 1.04,-0.071 1.021,-0.058 1,-0.049 0.978,-0.04 0.956,-0.035 0.932,-0.035 0.916,-0.013 0.895,0.004 0.87,0.016 0.846,0.029 0.82,0.035 0.792,0.035 0.768,0.035 0.745,0.031 0.723,0.021 0.702,0.012 0.684,-0.001 0.668,-0.016 0.652,-0.032 0.639,-0.051 0.63,-0.072 0.621,-0.093 0.616,-0.116 0.616,-0.141 H 0.687 C 0.687,-0.15 0.685,-0.16 0.681,-0.168 0.677,-0.176 0.672,-0.184 0.666,-0.19 0.659,-0.197 0.652,-0.201 0.644,-0.205 0.635,-0.209 0.626,-0.21 0.616,-0.21 H 0.23 c -0.009,0 -0.017,-0.004 -0.024,-0.011 -0.007,-0.007 -0.011,-0.015 -0.011,-0.025 0,-0.009 0.004,-0.018 0.011,-0.025 0.006,-0.006 0.015,-0.01 0.024,-0.01 h 0.509 c 0.005,0 0.009,-10e-4 0.013,-0.005 0.003,-0.003 0.005,-0.007 0.005,-0.012 0,-0.005 -0.002,-0.009 -0.005,-0.013 C 0.748,-0.314 0.744,-0.316 0.739,-0.316 H 0.3 c -0.009,0 -0.017,-0.003 -0.024,-0.01 -0.007,-0.007 -0.011,-0.016 -0.011,-0.025 0,-0.01 0.004,-0.018 0.011,-0.025 0.007,-0.007 0.015,-0.01 0.024,-0.01 h 0.439 c 0.005,0 0.009,-0.002 0.013,-0.005 0.003,-0.004 0.005,-0.008 0.005,-0.013 0,-0.005 -0.002,-0.009 -0.005,-0.012 C 0.748,-0.42 0.744,-0.421 0.739,-0.421 H 0.23 c -0.009,0 -0.018,-0.004 -0.024,-0.011 -0.007,-0.006 -0.011,-0.015 -0.011,-0.025 0,-0.009 0.004,-0.017 0.011,-0.024 0.007,-0.007 0.015,-0.01 0.024,-0.01 h 0.386 c 0.01,0 0.019,-0.002 0.028,-0.006 0.008,-0.004 0.015,-0.009 0.022,-0.015 0.006,-0.006 0.011,-0.014 0.015,-0.022 0.004,-0.009 0.006,-0.018 0.006,-0.028 H 0.616 c 0,-0.024 0.005,-0.047 0.014,-0.068 0.009,-0.021 0.022,-0.04 0.038,-0.056 0.016,-0.016 0.034,-0.028 0.055,-0.037 0.022,-0.01 0.045,-0.014 0.069,-0.014 0.029,0 0.055,0.006 0.078,0.018 0.023,0.013 0.044,0.03 0.062,0.052 0.025,0.001 0.048,0.005 0.069,0.014 0.021,0.009 0.04,0.022 0.055,0.037 0.016,0.016 0.028,0.034 0.037,0.056 0.009,0.021 0.014,0.044 0.014,0.069 z"
         style="fill:#ffffff;fill-rule:nonzero"
         id="path9572" /></g></g></svg>
