<?xml version="1.0" encoding="UTF-8" standalone="no"?>
<svg
   width="16.844999"
   height="15.78"
   viewBox="0 0 16.844999 15.78"
   version="1.1"
   xml:space="preserve"
   style="clip-rule:evenodd;fill-rule:evenodd;stroke-linejoin:round;stroke-miterlimit:2"
   id="svg20568"
   sodipodi:docname="emojis.svg"
   xmlns:inkscape="http://www.inkscape.org/namespaces/inkscape"
   xmlns:sodipodi="http://sodipodi.sourceforge.net/DTD/sodipodi-0.dtd"
   xmlns="http://www.w3.org/2000/svg"
   xmlns:svg="http://www.w3.org/2000/svg"><defs
     id="defs20572" /><sodipodi:namedview
     id="namedview20570"
     pagecolor="#505050"
     bordercolor="#eeeeee"
     borderopacity="1"
     inkscape:pageshadow="0"
     inkscape:pageopacity="0"
     inkscape:pagecheckerboard="0" /><g
     transform="matrix(0.24,0,0,0.24,-13.213584,-495.705)"
     id="g20566"><g
       transform="matrix(62.5,0,0,62.5,47.2441,2120.25)"
       id="g9634"><path
         d="M 1.055,0.175 C 1.025,0.175 0.995,0.168 0.967,0.154 0.939,0.168 0.91,0.175 0.879,0.175 0.864,0.175 0.849,0.174 0.834,0.17 0.82,0.167 0.806,0.161 0.792,0.154 0.764,0.168 0.735,0.175 0.704,0.175 0.686,0.175 0.668,0.173 0.65,0.168 0.633,0.163 0.617,0.155 0.602,0.146 0.587,0.136 0.573,0.125 0.561,0.111 0.549,0.098 0.538,0.083 0.53,0.066 0.517,0.069 0.505,0.07 0.494,0.07 0.467,0.07 0.442,0.065 0.418,0.055 0.395,0.045 0.375,0.031 0.357,0.014 0.339,-0.004 0.326,-0.024 0.315,-0.048 0.305,-0.071 0.3,-0.096 0.3,-0.123 0.3,-0.132 0.301,-0.14 0.302,-0.148 0.279,-0.167 0.262,-0.189 0.249,-0.215 0.237,-0.241 0.23,-0.269 0.23,-0.298 0.23,-0.32 0.234,-0.342 0.241,-0.363 0.249,-0.384 0.259,-0.403 0.273,-0.42 0.27,-0.429 0.268,-0.438 0.267,-0.447 0.266,-0.456 0.265,-0.465 0.265,-0.475 0.243,-0.493 0.223,-0.514 0.206,-0.536 0.188,-0.559 0.174,-0.583 0.162,-0.608 0.15,-0.633 0.14,-0.66 0.134,-0.687 0.128,-0.715 0.125,-0.743 0.125,-0.772 c 0,-0.015 0.003,-0.028 0.008,-0.041 0.006,-0.013 0.013,-0.024 0.023,-0.033 0.01,-0.01 0.021,-0.018 0.033,-0.023 0.013,-0.006 0.027,-0.008 0.041,-0.008 0.015,0 0.028,0.002 0.041,0.008 0.013,0.005 0.024,0.013 0.033,0.023 0.01,0.009 0.018,0.02 0.023,0.033 0.006,0.013 0.008,0.027 0.008,0.041 0,0.022 0.005,0.044 0.013,0.065 0.008,0.02 0.02,0.039 0.036,0.055 0.012,-0.005 0.025,-0.009 0.038,-0.012 0.013,-0.002 0.026,-0.003 0.04,-0.003 0.008,-0.016 0.018,-0.03 0.03,-0.043 0.013,-0.013 0.026,-0.025 0.041,-0.034 0.015,-0.009 0.031,-0.016 0.048,-0.021 0.017,-0.005 0.035,-0.007 0.053,-0.007 0.024,0 0.048,0.005 0.071,0.013 0.022,0.009 0.043,0.022 0.06,0.039 0.026,-0.012 0.052,-0.017 0.079,-0.017 0.028,0 0.053,0.005 0.077,0.015 0.023,0.011 0.044,0.025 0.061,0.043 0.017,0.017 0.031,0.038 0.041,0.062 0.01,0.024 0.015,0.049 0.015,0.076 0.016,0.009 0.03,0.019 0.043,0.031 0.013,0.012 0.024,0.026 0.033,0.041 0.009,0.014 0.016,0.03 0.021,0.048 0.005,0.017 0.008,0.034 0.008,0.052 0,0.031 -0.007,0.06 -0.021,0.088 0.007,0.015 0.012,0.03 0.016,0.045 0.003,0.015 0.005,0.03 0.005,0.047 0.016,0.008 0.031,0.018 0.044,0.03 0.013,0.012 0.024,0.026 0.033,0.041 0.009,0.014 0.016,0.03 0.021,0.047 0.005,0.018 0.007,0.035 0.007,0.053 0,0.027 -0.005,0.052 -0.015,0.076 C 1.223,0.081 1.209,0.101 1.192,0.119 1.174,0.136 1.154,0.15 1.13,0.16 1.107,0.17 1.082,0.175 1.055,0.175 Z"
         style="fill-rule:nonzero"
         id="path9624" /><path
         d="M 0.511,-0.457 C 0.468,-0.457 0.427,-0.465 0.388,-0.481 0.35,-0.498 0.316,-0.52 0.288,-0.549 0.259,-0.577 0.236,-0.611 0.22,-0.649 0.204,-0.687 0.195,-0.728 0.195,-0.772 c 0,-0.01 0.004,-0.018 0.011,-0.025 0.006,-0.007 0.015,-0.01 0.024,-0.01 0.01,0 0.018,0.003 0.025,0.01 0.007,0.007 0.01,0.016 0.01,0.025 0,0.034 0.007,0.066 0.02,0.096 0.013,0.03 0.03,0.056 0.053,0.078 0.022,0.022 0.048,0.039 0.078,0.052 0.03,0.013 0.061,0.02 0.095,0.02 0.01,0 0.018,0.003 0.025,0.01 0.006,0.007 0.01,0.015 0.01,0.025 0,0.009 -0.004,0.017 -0.01,0.024 -0.007,0.007 -0.015,0.01 -0.025,0.01 z"
         style="fill:#13a10e;fill-rule:nonzero"
         id="path9626" /><path
         d="m 0.987,-0.076 c 0.01,0.018 0.015,0.038 0.015,0.058 0,0.017 -0.003,0.033 -0.009,0.048 C 0.986,0.045 0.977,0.058 0.966,0.069 0.955,0.08 0.942,0.089 0.927,0.095 0.912,0.102 0.896,0.105 0.879,0.105 0.862,0.105 0.846,0.102 0.831,0.095 0.816,0.089 0.803,0.08 0.792,0.068 0.781,0.08 0.767,0.089 0.752,0.095 0.737,0.102 0.721,0.105 0.704,0.105 0.687,0.105 0.671,0.102 0.656,0.095 0.641,0.089 0.628,0.08 0.617,0.069 0.606,0.058 0.597,0.045 0.591,0.03 0.584,0.015 0.581,-0.001 0.581,-0.018 c 0,-0.003 0,-0.007 0.001,-0.01 0,-0.004 0,-0.007 0.001,-0.011 C 0.572,-0.027 0.558,-0.017 0.543,-0.01 0.528,-0.003 0.511,0 0.494,0 0.477,0 0.461,-0.003 0.446,-0.01 0.431,-0.016 0.418,-0.025 0.407,-0.036 0.396,-0.047 0.387,-0.06 0.38,-0.075 0.374,-0.09 0.371,-0.106 0.371,-0.123 c 0,-0.01 0.001,-0.021 0.004,-0.031 0.002,-0.009 0.006,-0.019 0.01,-0.028 C 0.373,-0.186 0.361,-0.191 0.351,-0.199 0.341,-0.206 0.332,-0.215 0.324,-0.225 0.317,-0.236 0.311,-0.247 0.307,-0.259 0.302,-0.272 0.3,-0.285 0.3,-0.298 c 0,-0.017 0.004,-0.033 0.01,-0.048 0.007,-0.015 0.015,-0.028 0.026,-0.039 0.011,-0.011 0.025,-0.02 0.039,-0.027 0.015,-0.006 0.031,-0.009 0.048,-0.009 0.009,0 0.022,0.001 0.04,0.004 0.017,0.003 0.038,0.007 0.062,0.012 0.023,0.005 0.049,0.011 0.077,0.017 l 0.169,0.039 c 0.028,0.006 0.054,0.012 0.077,0.016 0.024,0.005 0.045,0.009 0.062,0.012 0.018,0.004 0.031,0.005 0.04,0.005 0.017,0 0.033,0.003 0.048,0.01 0.015,0.006 0.028,0.015 0.039,0.026 0.011,0.011 0.019,0.024 0.026,0.039 0.006,0.015 0.01,0.031 0.01,0.048 0,0.013 -0.002,0.026 -0.007,0.039 C 1.062,-0.142 1.056,-0.131 1.049,-0.12 1.041,-0.11 1.032,-0.101 1.021,-0.094 1.011,-0.086 1,-0.08 0.987,-0.076 Z"
         style="fill:#4e257f;fill-rule:nonzero"
         id="path9628" /><path
         d="m 0.932,-0.018 c 0,-0.017 0.003,-0.032 0.01,-0.047 0.006,-0.015 0.015,-0.028 0.026,-0.039 0.011,-0.012 0.024,-0.02 0.039,-0.027 0.015,-0.006 0.031,-0.01 0.048,-0.01 0.017,0 0.033,0.004 0.048,0.01 0.015,0.007 0.028,0.015 0.039,0.027 0.011,0.011 0.02,0.024 0.026,0.039 0.007,0.015 0.01,0.03 0.01,0.047 0,0.017 -0.003,0.033 -0.01,0.048 C 1.162,0.045 1.153,0.058 1.142,0.069 1.131,0.08 1.118,0.089 1.103,0.095 1.088,0.102 1.072,0.105 1.055,0.105 1.038,0.105 1.022,0.102 1.007,0.095 0.992,0.089 0.979,0.08 0.968,0.069 0.957,0.058 0.948,0.045 0.942,0.03 0.935,0.015 0.932,-0.001 0.932,-0.018 Z m 0.141,-0.351 c 0,0.017 -0.003,0.033 -0.01,0.048 -0.006,0.015 -0.015,0.029 -0.027,0.04 -0.012,-0.011 -0.025,-0.02 -0.04,-0.026 -0.014,-0.006 -0.03,-0.009 -0.046,-0.009 -0.013,0 -0.025,0.002 -0.038,0.006 -0.012,0.004 -0.023,0.01 -0.034,0.017 0.005,0.007 0.008,0.013 0.01,0.019 0.009,0.005 0.015,0.011 0.019,0.019 0.004,0.009 0.007,0.018 0.007,0.027 0,0.008 -0.003,0.017 -0.007,0.026 -0.005,0.009 -0.011,0.016 -0.019,0.019 -0.004,0.012 -0.011,0.023 -0.018,0.032 -0.008,0.01 -0.017,0.018 -0.027,0.025 -0.01,0.006 -0.021,0.012 -0.032,0.015 -0.012,0.004 -0.024,0.006 -0.037,0.006 -0.016,0 -0.032,-0.004 -0.047,-0.01 -0.015,-0.006 -0.029,-0.015 -0.04,-0.027 -0.012,0.012 -0.026,0.021 -0.041,0.027 -0.015,0.006 -0.031,0.01 -0.047,0.01 -0.017,0 -0.034,-0.004 -0.049,-0.01 -0.016,-0.007 -0.029,-0.017 -0.041,-0.029 -0.001,0 -0.002,0 -0.004,0 C 0.5,-0.144 0.496,-0.145 0.492,-0.148 0.488,-0.151 0.484,-0.155 0.481,-0.159 0.479,-0.163 0.476,-0.168 0.474,-0.173 0.473,-0.178 0.472,-0.183 0.472,-0.187 c 0,-0.007 0.002,-0.014 0.006,-0.02 -0.001,-0.007 -0.002,-0.014 -0.002,-0.021 0,-0.017 0.003,-0.032 0.01,-0.048 0.006,-0.015 0.015,-0.028 0.027,-0.04 C 0.507,-0.321 0.502,-0.327 0.498,-0.334 0.493,-0.34 0.49,-0.347 0.486,-0.354 0.477,-0.352 0.468,-0.351 0.458,-0.351 0.45,-0.351 0.443,-0.352 0.437,-0.353 0.433,-0.349 0.428,-0.347 0.423,-0.345 0.418,-0.344 0.412,-0.343 0.407,-0.343 0.396,-0.343 0.388,-0.346 0.383,-0.353 0.377,-0.359 0.374,-0.367 0.374,-0.376 V -0.38 c 0,-0.001 0,-0.003 0.001,-0.004 C 0.362,-0.396 0.353,-0.41 0.346,-0.425 0.339,-0.441 0.335,-0.457 0.335,-0.474 c 0,-0.017 0.004,-0.033 0.01,-0.048 0.007,-0.015 0.016,-0.027 0.027,-0.039 0.011,-0.011 0.024,-0.019 0.039,-0.026 0.015,-0.006 0.031,-0.01 0.047,-0.01 0.01,0 0.019,0.001 0.027,0.003 0.009,0.003 0.018,0.005 0.026,0.009 0.001,-0.016 0.005,-0.032 0.011,-0.046 0.007,-0.014 0.016,-0.027 0.027,-0.037 0.011,-0.011 0.024,-0.019 0.038,-0.025 0.015,-0.006 0.031,-0.009 0.047,-0.009 0.012,0 0.025,0.002 0.037,0.006 0.012,0.004 0.023,0.009 0.033,0.016 0.01,0.007 0.019,0.016 0.027,0.025 0.007,0.01 0.013,0.021 0.018,0.033 0.011,-0.014 0.025,-0.025 0.042,-0.033 0.017,-0.008 0.035,-0.012 0.053,-0.012 0.017,0 0.033,0.003 0.048,0.01 0.015,0.006 0.028,0.015 0.039,0.026 0.011,0.011 0.02,0.024 0.027,0.039 0.006,0.015 0.009,0.031 0.009,0.048 0,0.009 -0.001,0.018 -0.003,0.027 -0.002,0.009 -0.005,0.017 -0.008,0.026 0.016,0 0.031,0.004 0.045,0.011 0.015,0.007 0.027,0.016 0.038,0.027 0.01,0.011 0.019,0.023 0.025,0.038 0.006,0.015 0.009,0.03 0.009,0.046 z"
         style="fill:#5c2e91;fill-rule:nonzero"
         id="path9630" /><path
         d="m 0.616,-0.053 c 0,-0.007 0.002,-0.014 0.004,-0.02 0.003,-0.007 0.007,-0.012 0.012,-0.017 0.004,-0.005 0.01,-0.009 0.016,-0.011 0.007,-0.003 0.013,-0.004 0.021,-0.004 0.007,0 0.014,0.001 0.02,0.004 0.007,0.002 0.013,0.006 0.017,0.011 0.005,0.005 0.009,0.01 0.012,0.017 0.002,0.006 0.004,0.013 0.004,0.02 0,0.008 -0.002,0.015 -0.004,0.021 C 0.715,-0.026 0.711,-0.02 0.706,-0.015 0.702,-0.011 0.696,-0.007 0.689,-0.004 0.683,-0.001 0.676,0 0.669,0 0.661,0 0.655,-0.001 0.648,-0.004 0.642,-0.007 0.636,-0.011 0.632,-0.015 0.627,-0.02 0.623,-0.026 0.62,-0.032 0.618,-0.038 0.616,-0.045 0.616,-0.053 Z m 0.176,0 c 0,-0.007 0.001,-0.014 0.004,-0.02 0.003,-0.006 0.007,-0.012 0.011,-0.017 0.005,-0.005 0.01,-0.009 0.016,-0.011 0.007,-0.003 0.014,-0.004 0.021,-0.004 0.007,0 0.014,0.001 0.021,0.004 0.006,0.002 0.012,0.006 0.017,0.011 0.004,0.005 0.008,0.01 0.011,0.017 0.003,0.006 0.004,0.013 0.004,0.02 0,0.008 -0.001,0.015 -0.004,0.021 C 0.89,-0.026 0.886,-0.02 0.882,-0.015 0.877,-0.011 0.871,-0.007 0.865,-0.004 0.858,-0.001 0.851,0 0.844,0 0.837,0 0.83,-0.001 0.823,-0.004 0.817,-0.007 0.812,-0.011 0.807,-0.016 0.803,-0.021 0.799,-0.026 0.796,-0.032 0.793,-0.039 0.792,-0.046 0.792,-0.053 Z m 0.175,0 c 0,-0.007 0.002,-0.014 0.004,-0.02 0.003,-0.007 0.007,-0.012 0.012,-0.017 0.004,-0.005 0.01,-0.009 0.016,-0.011 0.007,-0.003 0.014,-0.004 0.021,-0.004 0.007,0 0.014,0.001 0.02,0.004 0.007,0.002 0.012,0.006 0.017,0.011 0.005,0.005 0.009,0.011 0.012,0.017 0.002,0.006 0.004,0.013 0.004,0.02 0,0.007 -0.002,0.014 -0.004,0.021 C 1.066,-0.026 1.062,-0.021 1.057,-0.016 1.052,-0.011 1.047,-0.007 1.04,-0.004 1.034,-0.001 1.027,0 1.02,0 1.013,0 1.006,-0.001 0.999,-0.004 0.993,-0.007 0.987,-0.011 0.983,-0.015 0.978,-0.02 0.974,-0.026 0.971,-0.032 0.969,-0.038 0.967,-0.045 0.967,-0.053 Z m -0.21,-0.526 c 0,-0.007 0.001,-0.014 0.004,-0.021 0.003,-0.006 0.006,-0.012 0.011,-0.016 0.005,-0.005 0.01,-0.009 0.017,-0.012 0.006,-0.002 0.013,-0.004 0.021,-0.004 0.007,0 0.014,0.002 0.02,0.004 0.007,0.003 0.012,0.007 0.017,0.012 0.004,0.005 0.008,0.01 0.011,0.017 0.002,0.006 0.004,0.013 0.004,0.02 0,0.007 -0.002,0.014 -0.004,0.02 -0.003,0.007 -0.007,0.012 -0.012,0.017 -0.004,0.005 -0.01,0.009 -0.016,0.011 -0.007,0.003 -0.013,0.005 -0.02,0.005 -0.008,0 -0.014,-0.002 -0.021,-0.005 C 0.783,-0.533 0.777,-0.537 0.772,-0.542 0.768,-0.547 0.764,-0.552 0.761,-0.559 0.758,-0.565 0.757,-0.572 0.757,-0.579 Z M 0.546,-0.614 c 0,-0.007 0.001,-0.014 0.004,-0.021 0.003,-0.006 0.007,-0.011 0.012,-0.016 0.004,-0.005 0.01,-0.009 0.016,-0.012 0.007,-0.003 0.013,-0.004 0.021,-0.004 0.007,0 0.014,0.001 0.02,0.004 0.007,0.003 0.012,0.007 0.017,0.011 0.005,0.005 0.008,0.011 0.011,0.017 0.003,0.007 0.004,0.014 0.004,0.021 0,0.007 -0.001,0.014 -0.004,0.02 -0.003,0.007 -0.006,0.012 -0.011,0.017 -0.005,0.005 -0.01,0.009 -0.017,0.011 -0.006,0.003 -0.013,0.004 -0.02,0.004 -0.008,0 -0.014,-10e-4 -0.021,-0.004 C 0.572,-0.568 0.566,-0.572 0.562,-0.577 0.557,-0.582 0.553,-0.588 0.55,-0.594 0.547,-0.6 0.546,-0.607 0.546,-0.614 Z m 0.421,0.21 c 0,0.008 -0.001,0.015 -0.004,0.021 -0.003,0.006 -0.006,0.012 -0.011,0.017 -0.005,0.004 -0.01,0.008 -0.017,0.011 -0.006,0.003 -0.013,0.004 -0.02,0.004 -0.01,0 -0.019,-0.002 -0.027,-0.007 0.006,-0.015 0.009,-0.03 0.009,-0.046 0,-0.016 -0.003,-0.031 -0.009,-0.045 0.004,-0.002 0.008,-0.004 0.013,-0.006 0.004,-0.001 0.009,-0.002 0.014,-0.002 0.007,0 0.013,0.002 0.02,0.005 0.006,0.002 0.012,0.006 0.017,0.011 0.005,0.005 0.008,0.011 0.011,0.017 0.003,0.006 0.004,0.013 0.004,0.02 z M 0.371,-0.509 c 0,-0.007 0.001,-0.014 0.004,-0.02 0.003,-0.007 0.006,-0.012 0.011,-0.017 0.005,-0.005 0.01,-0.009 0.017,-0.011 0.006,-0.003 0.013,-0.005 0.02,-0.005 0.008,0 0.014,0.002 0.021,0.005 0.006,0.002 0.012,0.006 0.016,0.011 0.005,0.005 0.009,0.011 0.012,0.017 0.003,0.006 0.004,0.013 0.004,0.02 0,0.007 -0.001,0.014 -0.004,0.02 -0.003,0.007 -0.007,0.012 -0.012,0.017 -0.004,0.005 -0.01,0.009 -0.016,0.011 -0.007,0.003 -0.013,0.004 -0.021,0.004 -0.007,0 -0.014,-0.001 -0.02,-0.004 C 0.397,-0.463 0.391,-0.467 0.386,-0.472 0.381,-0.476 0.378,-0.482 0.375,-0.488 0.372,-0.494 0.371,-0.501 0.371,-0.509 Z m 0.14,0.07 c 0,-0.007 0.002,-0.014 0.004,-0.02 0.003,-0.007 0.007,-0.012 0.012,-0.017 0.004,-0.005 0.01,-0.008 0.016,-0.011 0.007,-0.003 0.013,-0.004 0.02,-0.004 0.008,0 0.014,0.001 0.021,0.004 0.006,0.003 0.012,0.006 0.017,0.011 0.004,0.004 0.008,0.01 0.011,0.017 0.003,0.006 0.004,0.013 0.004,0.02 0,0.008 -0.001,0.014 -0.004,0.021 C 0.609,-0.412 0.606,-0.406 0.601,-0.402 0.596,-0.397 0.59,-0.393 0.584,-0.39 0.577,-0.388 0.571,-0.386 0.563,-0.386 0.556,-0.386 0.549,-0.388 0.543,-0.39 0.536,-0.393 0.531,-0.397 0.526,-0.402 0.522,-0.407 0.518,-0.412 0.515,-0.419 0.513,-0.425 0.511,-0.432 0.511,-0.439 Z m 0.176,0 c 0,-0.007 10e-4,-0.014 0.004,-0.02 0.002,-0.007 0.006,-0.013 0.011,-0.017 0.005,-0.005 0.011,-0.008 0.017,-0.011 0.006,-0.003 0.013,-0.004 0.02,-0.004 0.007,0 0.014,0.001 0.021,0.004 0.006,0.003 0.011,0.006 0.016,0.011 0.005,0.005 0.009,0.01 0.012,0.017 0.003,0.006 0.004,0.013 0.004,0.02 0,0.007 -0.001,0.014 -0.004,0.02 -0.003,0.007 -0.007,0.012 -0.012,0.017 -0.005,0.005 -0.01,0.009 -0.016,0.012 -0.007,0.002 -0.014,0.004 -0.021,0.004 -0.007,0 -0.014,-0.002 -0.02,-0.004 C 0.712,-0.393 0.707,-0.397 0.702,-0.402 0.697,-0.406 0.693,-0.412 0.691,-0.418 0.688,-0.425 0.687,-0.431 0.687,-0.439 Z m -0.176,0.176 c 0,-0.007 0.002,-0.014 0.004,-0.02 0.003,-0.007 0.007,-0.012 0.011,-0.017 0.005,-0.005 0.01,-0.009 0.017,-0.012 0.006,-0.003 0.013,-0.004 0.02,-0.004 0.008,0 0.014,0.001 0.021,0.004 0.006,0.003 0.012,0.007 0.017,0.011 0.005,0.005 0.008,0.011 0.011,0.017 0.003,0.007 0.004,0.014 0.004,0.021 0,0.007 -0.001,0.014 -0.004,0.02 C 0.609,-0.237 0.605,-0.231 0.601,-0.226 0.596,-0.221 0.59,-0.217 0.584,-0.215 0.577,-0.212 0.571,-0.21 0.563,-0.21 0.556,-0.21 0.55,-0.212 0.543,-0.215 0.537,-0.217 0.531,-0.221 0.527,-0.226 0.522,-0.231 0.518,-0.237 0.515,-0.243 0.513,-0.249 0.511,-0.256 0.511,-0.263 Z m 0.176,0 c 0,-0.007 10e-4,-0.014 0.004,-0.021 0.002,-0.006 0.006,-0.012 0.011,-0.017 0.005,-0.004 0.01,-0.008 0.017,-0.011 0.006,-0.003 0.013,-0.004 0.02,-0.004 0.007,0 0.014,0.001 0.021,0.004 0.006,0.003 0.011,0.007 0.016,0.012 0.005,0.005 0.009,0.01 0.012,0.017 0.003,0.006 0.004,0.013 0.004,0.02 0,0.007 -0.001,0.014 -0.004,0.02 C 0.785,-0.237 0.781,-0.231 0.776,-0.226 0.771,-0.221 0.766,-0.217 0.76,-0.215 0.753,-0.212 0.746,-0.21 0.739,-0.21 0.732,-0.21 0.725,-0.212 0.719,-0.215 0.713,-0.217 0.707,-0.221 0.702,-0.226 0.697,-0.231 0.693,-0.237 0.691,-0.243 0.688,-0.249 0.687,-0.256 0.687,-0.263 Z m -0.246,-0.07 c 0,0.007 -0.001,0.014 -0.004,0.02 -0.003,0.007 -0.007,0.012 -0.011,0.017 -0.005,0.005 -0.011,0.008 -0.017,0.011 -0.007,0.003 -0.014,0.004 -0.021,0.004 -0.007,0 -0.014,-10e-4 -0.021,-0.004 C 0.361,-0.288 0.356,-0.291 0.351,-0.296 0.346,-0.301 0.342,-0.306 0.34,-0.313 0.337,-0.319 0.335,-0.326 0.335,-0.333 c 0,-0.013 0.004,-0.023 0.011,-0.033 0.008,-0.009 0.017,-0.015 0.029,-0.018 0.008,0.008 0.018,0.015 0.028,0.02 0.011,0.005 0.022,0.009 0.034,0.011 0.003,0.007 0.004,0.013 0.004,0.02 z m 0.068,0.189 C 0.506,-0.133 0.5,-0.123 0.49,-0.116 0.481,-0.109 0.47,-0.105 0.458,-0.105 0.451,-0.105 0.444,-0.107 0.438,-0.11 0.431,-0.112 0.426,-0.116 0.421,-0.121 0.416,-0.126 0.413,-0.131 0.41,-0.137 0.407,-0.144 0.406,-0.151 0.406,-0.158 c 0,-0.007 10e-4,-0.014 0.004,-0.021 0.003,-0.006 0.007,-0.012 0.011,-0.016 0.005,-0.005 0.011,-0.009 0.017,-0.011 0.007,-0.003 0.013,-0.004 0.02,-0.004 0.008,0 0.014,0.001 0.02,0.003 0.002,0.012 0.006,0.023 0.011,0.034 0.005,0.01 0.012,0.02 0.02,0.029 z m 0.458,-0.084 c 0,0.007 -0.001,0.014 -0.004,0.021 -0.003,0.006 -0.006,0.012 -0.011,0.016 -0.005,0.005 -0.011,0.008 -0.017,0.011 -0.007,0.003 -0.013,0.004 -0.02,0.004 -0.01,0 -0.019,-0.002 -0.027,-0.007 0.006,-0.014 0.009,-0.029 0.009,-0.045 0,-0.016 -0.003,-0.031 -0.009,-0.046 0.008,-0.004 0.017,-0.007 0.027,-0.007 0.007,0 0.014,0.002 0.02,0.004 0.007,0.003 0.012,0.007 0.017,0.012 0.005,0.004 0.008,0.01 0.011,0.016 0.003,0.007 0.004,0.014 0.004,0.021 z"
         style="fill:#8764b8;fill-rule:nonzero"
         id="path9632" /></g></g></svg>
