<?xml version="1.0" encoding="UTF-8" standalone="no"?>
<svg
   width="16.844999"
   height="16.844999"
   viewBox="0 0 16.844999 16.844999"
   version="1.1"
   xml:space="preserve"
   style="clip-rule:evenodd;fill-rule:evenodd;stroke-linejoin:round;stroke-miterlimit:2"
   id="svg20568"
   sodipodi:docname="emojis.svg"
   xmlns:inkscape="http://www.inkscape.org/namespaces/inkscape"
   xmlns:sodipodi="http://sodipodi.sourceforge.net/DTD/sodipodi-0.dtd"
   xmlns="http://www.w3.org/2000/svg"
   xmlns:svg="http://www.w3.org/2000/svg"><defs
     id="defs20572" /><sodipodi:namedview
     id="namedview20570"
     pagecolor="#505050"
     bordercolor="#eeeeee"
     borderopacity="1"
     inkscape:pageshadow="0"
     inkscape:pageopacity="0"
     inkscape:pagecheckerboard="0" /><g
     transform="matrix(0.24,0,0,0.24,-33.8094,-495.165)"
     id="g20566"><g
       transform="matrix(62.5,0,0,62.5,133.06,2120.25)"
       id="g9644"><path
         d="M 0.801,0.21 C 0.74,0.21 0.682,0.199 0.629,0.177 0.576,0.155 0.528,0.123 0.484,0.08 L 0.414,0.009 C 0.371,-0.034 0.338,-0.082 0.316,-0.135 0.294,-0.189 0.283,-0.246 0.283,-0.307 c 0,-0.041 0.005,-0.081 0.015,-0.12 0.011,-0.038 0.027,-0.075 0.048,-0.11 -0.019,0.005 -0.038,0.008 -0.057,0.009 -0.02,0.001 -0.039,0.002 -0.059,0.002 -0.014,0 -0.028,-0.003 -0.041,-0.009 C 0.177,-0.54 0.166,-0.548 0.156,-0.557 0.146,-0.567 0.139,-0.578 0.133,-0.591 0.128,-0.604 0.125,-0.617 0.125,-0.632 c 0,-0.014 0.003,-0.028 0.008,-0.041 0.006,-0.013 0.013,-0.024 0.023,-0.033 0.01,-0.01 0.021,-0.017 0.033,-0.023 0.013,-0.006 0.027,-0.008 0.041,-0.008 h 0.036 c 0.02,0 0.038,-0.005 0.055,-0.013 C 0.337,-0.759 0.354,-0.77 0.37,-0.783 0.386,-0.796 0.403,-0.81 0.42,-0.825 0.438,-0.84 0.457,-0.854 0.479,-0.867 0.5,-0.88 0.525,-0.891 0.553,-0.9 0.581,-0.908 0.613,-0.913 0.651,-0.913 h 0.106 c 0.014,0 0.028,0.003 0.041,0.009 0.013,0.005 0.024,0.013 0.033,0.022 0.01,0.01 0.017,0.021 0.023,0.034 0.006,0.013 0.008,0.026 0.008,0.041 0,0.012 -0.002,0.024 -0.006,0.035 -0.003,0.011 -0.009,0.021 -0.017,0.031 0.041,0.01 0.078,0.024 0.112,0.044 0.034,0.019 0.066,0.044 0.096,0.073 l 0.07,0.071 c 0.043,0.043 0.076,0.091 0.098,0.145 0.022,0.053 0.033,0.11 0.033,0.171 0,0.042 -0.005,0.081 -0.016,0.119 C 1.222,-0.08 1.207,-0.044 1.187,-0.011 1.168,0.022 1.145,0.053 1.117,0.08 1.09,0.107 1.06,0.13 1.027,0.15 0.994,0.169 0.958,0.184 0.92,0.195 0.882,0.205 0.842,0.21 0.801,0.21 Z"
         style="fill-rule:nonzero"
         id="path9636" /><path
         d="m 0.757,-0.842 c 0.01,0 0.018,0.003 0.025,0.01 0.007,0.007 0.01,0.015 0.01,0.025 0,0.009 -0.004,0.018 -0.011,0.025 -0.007,0.007 -0.015,0.01 -0.024,0.01 H 0.651 c -0.021,0 -0.04,0.002 -0.056,0.006 -0.015,0.004 -0.03,0.01 -0.043,0.017 -0.014,0.008 -0.026,0.017 -0.039,0.028 -0.012,0.011 -0.026,0.023 -0.04,0.036 l 0.104,0.105 -0.05,0.049 -0.11,-0.111 c -0.014,0.009 -0.028,0.016 -0.042,0.022 -0.013,0.005 -0.027,0.01 -0.041,0.013 -0.014,0.004 -0.028,0.006 -0.043,0.008 -0.015,0.002 -0.03,0.002 -0.046,0.002 -0.006,0 -0.013,0 -0.018,-0.001 C 0.221,-0.598 0.215,-0.6 0.211,-0.602 0.206,-0.605 0.202,-0.608 0.199,-0.613 0.197,-0.618 0.195,-0.624 0.195,-0.632 c 0,-0.008 0.002,-0.014 0.005,-0.019 0.003,-0.004 0.007,-0.008 0.012,-0.01 0.005,-0.003 0.01,-0.004 0.017,-0.005 0.006,-0.001 0.012,-0.001 0.018,-0.001 h 0.021 c 0.016,0 0.031,-0.002 0.046,-0.006 0.015,-0.004 0.029,-0.009 0.043,-0.016 0.014,-0.007 0.027,-0.015 0.04,-0.024 0.012,-0.009 0.024,-0.019 0.036,-0.03 0.017,-0.016 0.033,-0.031 0.049,-0.043 0.015,-0.013 0.032,-0.023 0.049,-0.031 0.017,-0.008 0.035,-0.015 0.054,-0.019 0.02,-0.004 0.041,-0.006 0.066,-0.006 z"
         style="fill:#d48c00;fill-rule:nonzero"
         id="path9638" /><path
         d="m 0.73,-0.684 c 0.052,0 0.1,0.009 0.145,0.028 0.045,0.019 0.085,0.046 0.122,0.082 l 0.07,0.07 c 0.036,0.036 0.064,0.076 0.082,0.122 0.019,0.046 0.029,0.095 0.029,0.145 0,0.035 -0.005,0.068 -0.014,0.101 -0.009,0.032 -0.021,0.062 -0.038,0.09 C 1.11,-0.018 1.09,0.007 1.067,0.03 1.044,0.053 1.019,0.073 0.991,0.089 0.963,0.106 0.933,0.118 0.901,0.127 0.869,0.136 0.835,0.141 0.8,0.141 0.75,0.141 0.702,0.131 0.656,0.112 0.61,0.093 0.569,0.066 0.534,0.03 L 0.464,-0.041 C 0.428,-0.077 0.4,-0.118 0.381,-0.163 0.362,-0.207 0.353,-0.255 0.353,-0.307 c 0,-0.035 0.005,-0.068 0.013,-0.1 0.009,-0.032 0.022,-0.062 0.039,-0.09 0.016,-0.028 0.036,-0.054 0.059,-0.076 0.023,-0.023 0.048,-0.043 0.076,-0.06 0.028,-0.016 0.058,-0.029 0.09,-0.038 0.033,-0.009 0.066,-0.013 0.1,-0.013 z"
         style="fill:#e4f577;fill-rule:nonzero"
         id="path9640" /><path
         d="m 0.827,-0.281 c 0.01,0 0.019,0.002 0.027,0.006 0.009,0.004 0.016,0.009 0.023,0.015 0.006,0.006 0.011,0.014 0.015,0.022 0.004,0.009 0.005,0.018 0.005,0.028 0,0.009 -0.001,0.018 -0.005,0.027 C 0.888,-0.175 0.883,-0.167 0.877,-0.161 0.87,-0.155 0.863,-0.15 0.854,-0.146 0.846,-0.142 0.837,-0.141 0.827,-0.141 0.817,-0.141 0.808,-0.142 0.8,-0.146 0.791,-0.15 0.784,-0.155 0.778,-0.161 0.771,-0.167 0.766,-0.175 0.762,-0.183 0.759,-0.192 0.757,-0.201 0.757,-0.21 0.757,-0.22 0.759,-0.229 0.762,-0.238 0.766,-0.246 0.771,-0.254 0.777,-0.26 0.783,-0.266 0.791,-0.271 0.8,-0.275 0.808,-0.279 0.817,-0.281 0.827,-0.281 Z m -0.211,0.14 c 0.01,0 0.019,0.002 0.028,0.006 0.008,0.004 0.015,0.009 0.022,0.015 0.006,0.006 0.011,0.014 0.015,0.022 0.004,0.009 0.006,0.018 0.006,0.028 0,0.009 -0.002,0.019 -0.006,0.027 C 0.677,-0.035 0.672,-0.027 0.666,-0.021 0.659,-0.014 0.652,-0.009 0.644,-0.006 0.635,-0.002 0.626,0 0.616,0 0.606,0 0.597,-0.002 0.589,-0.006 0.58,-0.009 0.573,-0.014 0.567,-0.021 0.56,-0.027 0.555,-0.035 0.552,-0.043 0.548,-0.051 0.546,-0.061 0.546,-0.07 0.546,-0.08 0.548,-0.089 0.552,-0.098 0.555,-0.106 0.56,-0.114 0.567,-0.12 0.573,-0.126 0.58,-0.131 0.589,-0.135 0.597,-0.139 0.606,-0.141 0.616,-0.141 Z M 0.599,-0.21 C 0.591,-0.21 0.585,-0.212 0.578,-0.215 0.572,-0.217 0.566,-0.221 0.562,-0.226 0.557,-0.231 0.553,-0.237 0.551,-0.243 0.548,-0.249 0.546,-0.256 0.546,-0.263 c 0,-0.007 0.002,-0.014 0.005,-0.02 0.002,-0.007 0.006,-0.012 0.011,-0.017 0.004,-0.005 0.01,-0.009 0.016,-0.012 0.006,-0.003 0.013,-0.004 0.021,-0.004 0.007,0 0.014,0.001 0.02,0.004 0.007,0.003 0.012,0.007 0.017,0.011 0.005,0.005 0.008,0.011 0.011,0.017 0.003,0.007 0.004,0.014 0.004,0.021 0,0.007 -0.001,0.014 -0.004,0.02 -0.003,0.006 -0.006,0.012 -0.011,0.017 -0.005,0.005 -0.011,0.009 -0.017,0.011 -0.006,0.003 -0.013,0.005 -0.02,0.005 z m 0.211,0.175 c 0.007,0 0.013,0.001 0.02,0.004 0.006,0.003 0.012,0.007 0.017,0.011 0.005,0.005 0.008,0.011 0.011,0.017 0.003,0.007 0.004,0.013 0.004,0.021 0,0.007 -0.001,0.013 -0.004,0.02 C 0.855,0.044 0.852,0.05 0.847,0.055 0.842,0.06 0.836,0.063 0.83,0.066 0.823,0.069 0.817,0.07 0.81,0.07 0.802,0.07 0.796,0.069 0.789,0.066 0.783,0.063 0.777,0.06 0.772,0.055 0.768,0.05 0.764,0.044 0.761,0.038 0.758,0.031 0.757,0.025 0.757,0.018 0.757,0.01 0.758,0.004 0.761,-0.003 0.764,-0.009 0.767,-0.015 0.772,-0.02 0.777,-0.024 0.782,-0.028 0.789,-0.031 0.795,-0.034 0.802,-0.035 0.81,-0.035 Z m 0.175,-0.106 c 0.007,0 0.014,0.002 0.02,0.005 0.006,0.002 0.012,0.006 0.017,0.011 0.005,0.005 0.009,0.01 0.011,0.017 0.003,0.006 0.005,0.013 0.005,0.02 0,0.008 -0.002,0.015 -0.005,0.021 -0.002,0.006 -0.006,0.012 -0.011,0.016 -0.005,0.005 -0.01,0.009 -0.017,0.012 -0.006,0.002 -0.013,0.004 -0.02,0.004 -0.007,0 -0.014,-0.002 -0.02,-0.004 C 0.958,-0.042 0.953,-0.046 0.948,-0.051 0.943,-0.056 0.939,-0.061 0.936,-0.068 0.934,-0.074 0.932,-0.081 0.932,-0.088 c 0,-0.007 0.002,-0.014 0.004,-0.02 0.003,-0.007 0.007,-0.012 0.012,-0.017 0.005,-0.005 0.01,-0.009 0.017,-0.011 0.006,-0.003 0.013,-0.005 0.02,-0.005 z"
         style="fill:#8cbd18;fill-rule:nonzero"
         id="path9642" /></g></g></svg>
