<?xml version="1.0" encoding="UTF-8" standalone="no"?>
<svg
   width="14.73"
   height="16.844999"
   viewBox="0 0 14.73 16.844999"
   version="1.1"
   xml:space="preserve"
   style="clip-rule:evenodd;fill-rule:evenodd;stroke-linejoin:round;stroke-miterlimit:2"
   id="svg20568"
   sodipodi:docname="emojis.svg"
   xmlns:inkscape="http://www.inkscape.org/namespaces/inkscape"
   xmlns:sodipodi="http://sodipodi.sourceforge.net/DTD/sodipodi-0.dtd"
   xmlns="http://www.w3.org/2000/svg"
   xmlns:svg="http://www.w3.org/2000/svg"><defs
     id="defs20572" /><sodipodi:namedview
     id="namedview20570"
     pagecolor="#505050"
     bordercolor="#eeeeee"
     borderopacity="1"
     inkscape:pageshadow="0"
     inkscape:pageopacity="0"
     inkscape:pagecheckerboard="0" /><g
     transform="matrix(0.24,0,0,0.24,-75.0006,-495.165)"
     id="g20566"><g
       transform="matrix(62.5,0,0,62.5,304.69,2120.25)"
       id="g9668"><path
         d="M 0.616,0.21 C 0.571,0.21 0.527,0.205 0.486,0.193 0.444,0.181 0.405,0.165 0.368,0.143 0.332,0.122 0.299,0.096 0.269,0.066 0.239,0.036 0.213,0.003 0.192,-0.033 0.171,-0.069 0.154,-0.108 0.143,-0.15 0.131,-0.192 0.125,-0.236 0.125,-0.281 0.125,-0.311 0.128,-0.34 0.133,-0.37 0.139,-0.399 0.147,-0.428 0.157,-0.456 0.168,-0.484 0.181,-0.51 0.197,-0.536 0.212,-0.562 0.23,-0.586 0.25,-0.608 0.23,-0.621 0.213,-0.637 0.198,-0.654 0.182,-0.671 0.169,-0.69 0.158,-0.71 0.147,-0.73 0.139,-0.751 0.134,-0.773 0.128,-0.796 0.125,-0.819 0.125,-0.842 v -0.071 h 0.281 c 0.023,0 0.046,0.003 0.069,0.009 0.022,0.005 0.044,0.014 0.064,0.025 0.01,-0.01 0.022,-0.019 0.035,-0.025 0.014,-0.006 0.028,-0.009 0.042,-0.009 0.015,0 0.029,0.003 0.041,0.009 0.013,0.005 0.024,0.013 0.034,0.022 0.009,0.01 0.017,0.021 0.022,0.034 0.006,0.013 0.009,0.026 0.009,0.041 v 0.047 c 0.037,0.008 0.072,0.02 0.106,0.036 0.033,0.017 0.064,0.036 0.093,0.059 0.029,0.023 0.054,0.048 0.077,0.077 0.023,0.029 0.043,0.059 0.059,0.092 0.016,0.033 0.028,0.067 0.037,0.104 0.009,0.036 0.013,0.073 0.013,0.111 0,0.045 -0.005,0.089 -0.017,0.131 C 1.078,-0.108 1.062,-0.069 1.04,-0.033 1.019,0.003 0.993,0.036 0.963,0.066 0.933,0.096 0.9,0.122 0.864,0.143 0.828,0.165 0.789,0.181 0.747,0.193 0.705,0.205 0.661,0.21 0.616,0.21 Z"
         style="fill-rule:nonzero"
         id="path9658" /><path
         d="m 1.038,-0.281 c 0,0.039 -0.005,0.076 -0.016,0.112 C 1.012,-0.133 0.998,-0.1 0.98,-0.068 0.962,-0.037 0.94,-0.009 0.914,0.017 0.888,0.042 0.86,0.064 0.829,0.083 0.797,0.101 0.764,0.115 0.728,0.125 0.692,0.135 0.655,0.14 0.616,0.14 0.577,0.14 0.54,0.135 0.504,0.125 0.469,0.115 0.435,0.101 0.404,0.083 0.373,0.064 0.344,0.042 0.319,0.017 0.293,-0.009 0.271,-0.037 0.253,-0.068 0.235,-0.1 0.221,-0.133 0.21,-0.169 0.2,-0.205 0.195,-0.242 0.195,-0.281 c 0,-0.038 0.005,-0.076 0.015,-0.112 0.011,-0.035 0.025,-0.069 0.043,-0.1 0.018,-0.031 0.04,-0.06 0.066,-0.086 0.025,-0.025 0.054,-0.047 0.085,-0.066 0.031,-0.018 0.065,-0.032 0.1,-0.042 0.036,-0.01 0.073,-0.015 0.112,-0.015 0.039,0 0.076,0.005 0.112,0.015 0.036,0.01 0.07,0.024 0.101,0.042 0.031,0.019 0.06,0.041 0.085,0.066 0.026,0.026 0.048,0.054 0.066,0.085 0.018,0.032 0.032,0.065 0.042,0.101 0.011,0.036 0.016,0.074 0.016,0.112 z"
         style="fill:#f7630c;fill-rule:nonzero"
         id="path9660" /><path
         d="M 0.616,-0.632 H 0.406 C 0.377,-0.632 0.35,-0.637 0.324,-0.648 0.298,-0.66 0.276,-0.675 0.257,-0.694 0.238,-0.713 0.223,-0.735 0.212,-0.76 0.201,-0.786 0.195,-0.813 0.195,-0.842 h 0.211 c 0.029,0 0.056,0.005 0.082,0.016 0.025,0.011 0.047,0.026 0.066,0.045 0.019,0.02 0.035,0.042 0.046,0.067 0.011,0.026 0.016,0.053 0.016,0.082 z"
         style="fill:#13a10e;fill-rule:nonzero"
         id="path9662" /><path
         d="m 0.581,-0.597 v -0.21 c 0,-0.01 0.003,-0.018 0.01,-0.025 0.007,-0.007 0.015,-0.01 0.025,-0.01 0.01,0 0.018,0.003 0.025,0.01 0.007,0.007 0.01,0.015 0.01,0.025 v 0.21 c 0,0.01 -0.003,0.018 -0.01,0.025 -0.007,0.007 -0.015,0.01 -0.025,0.01 -0.01,0 -0.018,-0.003 -0.025,-0.01 -0.007,-0.007 -0.01,-0.015 -0.01,-0.025 z"
         style="fill:#8e562e;fill-rule:nonzero"
         id="path9664" /><path
         d="m 0.739,-0.457 c 0.007,0 0.014,0.002 0.021,0.005 0.006,0.002 0.011,0.006 0.016,0.011 0.005,0.005 0.009,0.011 0.012,0.017 0.003,0.006 0.004,0.013 0.004,0.02 0,0.007 -0.001,0.014 -0.004,0.02 -0.003,0.007 -0.007,0.012 -0.012,0.017 -0.005,0.005 -0.01,0.009 -0.016,0.012 -0.007,0.003 -0.014,0.004 -0.021,0.004 -0.007,0 -0.014,-0.001 -0.02,-0.004 C 0.712,-0.358 0.707,-0.362 0.702,-0.366 0.697,-0.371 0.693,-0.377 0.691,-0.383 0.688,-0.389 0.687,-0.396 0.687,-0.404 c 0,-0.007 10e-4,-0.014 0.004,-0.02 0.002,-0.006 0.006,-0.012 0.011,-0.017 0.005,-0.005 0.011,-0.009 0.017,-0.011 0.006,-0.003 0.013,-0.005 0.02,-0.005 z m -0.14,0.141 c 0.007,0 0.014,0.001 0.02,0.004 0.007,0.003 0.012,0.007 0.017,0.011 0.005,0.005 0.008,0.011 0.011,0.017 0.003,0.007 0.004,0.014 0.004,0.021 0,0.007 -0.001,0.014 -0.004,0.02 C 0.644,-0.237 0.641,-0.231 0.636,-0.226 0.631,-0.221 0.625,-0.217 0.619,-0.215 0.613,-0.212 0.606,-0.21 0.599,-0.21 0.591,-0.21 0.585,-0.212 0.578,-0.215 0.572,-0.217 0.566,-0.221 0.562,-0.226 0.557,-0.231 0.553,-0.237 0.55,-0.243 0.547,-0.249 0.546,-0.256 0.546,-0.263 0.546,-0.27 0.547,-0.277 0.55,-0.283 0.553,-0.29 0.557,-0.295 0.562,-0.3 0.566,-0.305 0.572,-0.309 0.578,-0.312 0.585,-0.315 0.591,-0.316 0.599,-0.316 Z m 0.28,0 c 0.008,0 0.014,0.001 0.021,0.004 0.006,0.003 0.012,0.007 0.017,0.011 0.004,0.005 0.008,0.011 0.011,0.017 0.003,0.007 0.004,0.014 0.004,0.021 0,0.007 -0.001,0.014 -0.004,0.02 C 0.925,-0.237 0.921,-0.231 0.917,-0.226 0.912,-0.221 0.906,-0.217 0.9,-0.215 0.893,-0.212 0.887,-0.21 0.879,-0.21 0.872,-0.21 0.865,-0.212 0.859,-0.215 0.853,-0.217 0.847,-0.221 0.842,-0.226 0.837,-0.231 0.834,-0.237 0.831,-0.243 0.828,-0.249 0.827,-0.256 0.827,-0.263 c 0,-0.007 0.001,-0.014 0.004,-0.02 0.003,-0.007 0.006,-0.012 0.011,-0.017 0.005,-0.005 0.011,-0.009 0.017,-0.012 0.006,-0.003 0.013,-0.004 0.02,-0.004 z m -0.14,0.14 c 0.007,0 0.014,0.002 0.021,0.004 0.006,0.003 0.011,0.007 0.016,0.012 0.005,0.005 0.009,0.01 0.012,0.017 0.003,0.006 0.004,0.013 0.004,0.02 0,0.007 -0.001,0.014 -0.004,0.02 C 0.785,-0.096 0.781,-0.091 0.776,-0.086 0.771,-0.081 0.766,-0.077 0.76,-0.074 0.753,-0.072 0.746,-0.07 0.739,-0.07 0.732,-0.07 0.725,-0.072 0.719,-0.074 0.712,-0.077 0.707,-0.081 0.702,-0.086 0.697,-0.09 0.693,-0.096 0.691,-0.102 0.688,-0.109 0.687,-0.116 0.687,-0.123 c 0,-0.007 10e-4,-0.014 0.004,-0.02 0.002,-0.007 0.006,-0.012 0.011,-0.017 0.005,-0.005 0.011,-0.009 0.017,-0.012 0.006,-0.002 0.013,-0.004 0.02,-0.004 z"
         style="fill:#da3b01;fill-rule:nonzero"
         id="path9666" /></g></g></svg>
