<?xml version="1.0" encoding="UTF-8" standalone="no"?>
<svg
   width="16.844999"
   height="16.844999"
   viewBox="0 0 16.844999 16.844999"
   version="1.1"
   xml:space="preserve"
   style="clip-rule:evenodd;fill-rule:evenodd;stroke-linejoin:round;stroke-miterlimit:2"
   id="svg20568"
   sodipodi:docname="emojis.svg"
   xmlns:inkscape="http://www.inkscape.org/namespaces/inkscape"
   xmlns:sodipodi="http://sodipodi.sourceforge.net/DTD/sodipodi-0.dtd"
   xmlns="http://www.w3.org/2000/svg"
   xmlns:svg="http://www.w3.org/2000/svg"><defs
     id="defs20572" /><sodipodi:namedview
     id="namedview20570"
     pagecolor="#505050"
     bordercolor="#eeeeee"
     borderopacity="1"
     inkscape:pageshadow="0"
     inkscape:pageopacity="0"
     inkscape:pagecheckerboard="0" /><g
     transform="matrix(0.24,0,0,0.24,-113.04276,-495.165)"
     id="g20566"><g
       transform="matrix(62.5,0,0,62.5,463.199,2120.25)"
       id="g9692"><path
         d="M 0.967,0.21 C 0.885,0.21 0.806,0.199 0.729,0.177 0.652,0.154 0.579,0.12 0.511,0.076 0.51,0.095 0.506,0.112 0.498,0.128 0.491,0.145 0.48,0.159 0.468,0.171 0.455,0.183 0.44,0.193 0.424,0.2 0.407,0.207 0.389,0.21 0.371,0.21 H 0.335 C 0.306,0.21 0.279,0.205 0.254,0.194 0.228,0.183 0.206,0.168 0.187,0.149 0.168,0.13 0.153,0.107 0.142,0.082 0.131,0.056 0.125,0.029 0.125,0 v -0.035 c 0,-0.041 0.008,-0.079 0.024,-0.116 0.016,-0.036 0.04,-0.067 0.07,-0.094 C 0.188,-0.305 0.164,-0.368 0.148,-0.433 0.133,-0.498 0.125,-0.564 0.125,-0.632 v -0.105 c 0,-0.024 0.005,-0.047 0.014,-0.068 0.009,-0.022 0.022,-0.04 0.038,-0.056 0.015,-0.016 0.034,-0.028 0.055,-0.038 0.021,-0.009 0.044,-0.014 0.068,-0.014 0.021,0 0.041,0.004 0.06,0.011 0.018,0.006 0.035,0.016 0.05,0.028 0.015,0.012 0.027,0.027 0.038,0.044 0.01,0.017 0.018,0.035 0.024,0.056 l 0.01,0.044 c 0.008,0.028 0.017,0.055 0.028,0.081 0.011,0.027 0.023,0.053 0.036,0.079 0.017,-0.014 0.033,-0.024 0.05,-0.033 0.016,-0.008 0.033,-0.014 0.05,-0.018 0.016,-0.005 0.034,-0.008 0.052,-0.009 0.019,-0.001 0.038,-0.002 0.059,-0.002 0.029,0 0.056,0.006 0.082,0.017 0.025,0.011 0.047,0.026 0.067,0.045 0.019,0.019 0.034,0.041 0.045,0.067 0.011,0.025 0.016,0.053 0.016,0.082 v 0.035 c 0,0.018 -0.003,0.035 -0.009,0.051 -0.007,0.016 -0.016,0.031 -0.028,0.043 -0.011,0.013 -0.025,0.024 -0.04,0.032 -0.016,0.007 -0.033,0.012 -0.051,0.014 0.02,0.012 0.04,0.023 0.061,0.033 0.021,0.01 0.042,0.019 0.063,0.028 0.022,0.009 0.044,0.017 0.066,0.025 0.022,0.007 0.043,0.015 0.065,0.022 0.012,0.004 0.025,0.008 0.037,0.012 0.013,0.003 0.025,0.008 0.036,0.014 0.014,0.006 0.025,0.015 0.035,0.026 0.01,0.011 0.019,0.023 0.026,0.036 0.006,0.014 0.012,0.028 0.015,0.042 0.003,0.015 0.005,0.029 0.005,0.043 0,0.024 -0.005,0.047 -0.014,0.068 C 1.225,0.125 1.212,0.143 1.197,0.159 1.181,0.175 1.162,0.187 1.141,0.197 1.12,0.206 1.097,0.21 1.073,0.21 Z"
         style="fill-rule:nonzero"
         id="path9682" /><path
         d="M 0.536,-0.45 0.581,-0.176 0.312,-0.224 C 0.274,-0.285 0.245,-0.35 0.225,-0.419 0.205,-0.488 0.195,-0.559 0.195,-0.632 v -0.105 c 0,-0.015 0.003,-0.029 0.009,-0.041 0.005,-0.013 0.013,-0.024 0.022,-0.034 0.01,-0.009 0.021,-0.016 0.033,-0.022 0.013,-0.006 0.027,-0.008 0.041,-0.008 0.027,0 0.049,0.007 0.066,0.022 0.017,0.016 0.03,0.035 0.037,0.06 0.002,0.004 0.003,0.009 0.003,0.013 10e-4,0.004 0.002,0.009 0.003,0.013 0.004,0.017 0.009,0.034 0.015,0.052 0.013,0.041 0.028,0.081 0.048,0.12 0.019,0.039 0.04,0.076 0.064,0.112 z"
         style="fill:#ffd679;fill-rule:nonzero"
         id="path9684" /><path
         d="M 0.436,-0.211 1.113,-0.02 1.178,0.035 C 1.178,0.05 1.175,0.063 1.169,0.076 1.164,0.089 1.156,0.1 1.147,0.109 1.138,0.119 1.126,0.126 1.114,0.132 1.101,0.137 1.087,0.14 1.073,0.14 H 0.967 C 0.911,0.14 0.856,0.134 0.803,0.122 0.749,0.11 0.697,0.093 0.648,0.071 0.598,0.048 0.551,0.021 0.507,-0.012 0.463,-0.045 0.422,-0.083 0.385,-0.125 Z"
         style="fill:#d48c00;fill-rule:nonzero"
         id="path9686" /><path
         d="M 1.178,0.035 H 1.073 c -0.07,0 -0.136,-0.01 -0.2,-0.03 C 0.81,-0.014 0.749,-0.044 0.691,-0.082 0.678,-0.091 0.665,-0.1 0.652,-0.109 0.64,-0.119 0.628,-0.129 0.616,-0.141 H 0.441 C 0.426,-0.141 0.413,-0.138 0.4,-0.132 0.387,-0.127 0.376,-0.119 0.366,-0.11 0.357,-0.1 0.349,-0.089 0.344,-0.076 0.338,-0.063 0.335,-0.05 0.335,-0.035 V 0.07 H 0.441 C 0.441,0.08 0.439,0.089 0.435,0.098 0.432,0.106 0.427,0.114 0.42,0.12 0.414,0.126 0.406,0.131 0.398,0.135 0.389,0.138 0.38,0.14 0.371,0.14 H 0.335 C 0.316,0.14 0.298,0.136 0.281,0.129 0.264,0.122 0.249,0.112 0.236,0.099 0.224,0.086 0.214,0.072 0.206,0.055 0.199,0.038 0.195,0.02 0.195,0 v -0.035 c 0,-0.029 0.006,-0.056 0.017,-0.082 0.011,-0.025 0.026,-0.048 0.045,-0.067 0.019,-0.019 0.041,-0.034 0.067,-0.045 0.026,-0.011 0.053,-0.017 0.082,-0.017 h 0.105 v -0.105 c 0,-0.029 0.006,-0.056 0.017,-0.082 C 0.539,-0.458 0.554,-0.481 0.573,-0.5 0.592,-0.519 0.614,-0.534 0.64,-0.545 0.665,-0.556 0.693,-0.562 0.722,-0.562 h 0.035 c 0.019,0 0.038,0.004 0.055,0.011 0.016,0.008 0.031,0.018 0.044,0.03 0.013,0.013 0.023,0.028 0.03,0.045 0.007,0.017 0.011,0.035 0.011,0.055 v 0.035 c 0,0.01 -0.002,0.019 -0.006,0.027 C 0.888,-0.35 0.883,-0.343 0.876,-0.336 0.87,-0.33 0.862,-0.325 0.854,-0.321 0.846,-0.318 0.836,-0.316 0.827,-0.316 V -0.421 H 0.722 c -0.012,0 -0.024,0.002 -0.035,0.006 -0.011,0.004 -0.021,0.009 -0.03,0.016 -0.009,0.007 -0.017,0.016 -0.023,0.026 -0.007,0.01 -0.011,0.02 -0.014,0.032 0.063,0.071 0.134,0.129 0.213,0.173 0.08,0.045 0.165,0.078 0.257,0.1 l 0.015,0.003 c 0.002,0.001 0.004,0.001 0.006,0.002 0.002,0.001 0.005,0.002 0.008,0.003 0.018,0.009 0.032,0.022 0.043,0.039 0.01,0.018 0.016,0.036 0.016,0.056 z"
         style="fill:#ffb900;fill-rule:nonzero"
         id="path9688" /><path
         d="m 1.107,0.035 c 0,0.01 -0.003,0.018 -0.01,0.025 C 1.09,0.067 1.082,0.07 1.073,0.07 1.063,0.07 1.055,0.067 1.048,0.06 1.041,0.053 1.038,0.045 1.038,0.035 1.038,0.025 1.041,0.017 1.048,0.01 1.055,0.003 1.063,0 1.073,0 1.082,0 1.09,0.003 1.097,0.01 c 0.007,0.007 0.01,0.016 0.01,0.025 z"
         style="fill:#8e562e;fill-rule:nonzero"
         id="path9690" /></g></g></svg>
