<?xml version="1.0" encoding="UTF-8" standalone="no"?>
<svg
   width="16.844999"
   height="16.844999"
   viewBox="0 0 16.844999 16.844999"
   version="1.1"
   xml:space="preserve"
   style="clip-rule:evenodd;fill-rule:evenodd;stroke-linejoin:round;stroke-miterlimit:2"
   id="svg20568"
   sodipodi:docname="emojis.svg"
   xmlns:inkscape="http://www.inkscape.org/namespaces/inkscape"
   xmlns:sodipodi="http://sodipodi.sourceforge.net/DTD/sodipodi-0.dtd"
   xmlns="http://www.w3.org/2000/svg"
   xmlns:svg="http://www.w3.org/2000/svg"><defs
     id="defs20572" /><sodipodi:namedview
     id="namedview20570"
     pagecolor="#505050"
     bordercolor="#eeeeee"
     borderopacity="1"
     inkscape:pageshadow="0"
     inkscape:pageopacity="0"
     inkscape:pagecheckerboard="0" /><g
     transform="matrix(0.24,0,0,0.24,-133.63836,-495.165)"
     id="g20566"><g
       transform="matrix(62.5,0,0,62.5,549.014,2120.25)"
       id="g9704"><path
         d="M 0.879,0.21 C 0.829,0.21 0.782,0.201 0.738,0.183 0.694,0.165 0.655,0.138 0.619,0.103 L 0.531,0.015 C 0.514,-0.003 0.499,-0.021 0.485,-0.042 0.472,-0.062 0.461,-0.083 0.451,-0.105 0.442,-0.127 0.435,-0.15 0.43,-0.174 0.426,-0.197 0.423,-0.221 0.423,-0.246 v -0.011 c 0,-0.003 0.001,-0.007 0.001,-0.011 L 0.347,-0.191 0.219,-0.318 C 0.206,-0.332 0.196,-0.347 0.189,-0.364 0.182,-0.381 0.178,-0.399 0.178,-0.417 c 0,-0.011 0.001,-0.021 0.003,-0.031 0.003,-0.01 0.006,-0.02 0.01,-0.03 C 0.171,-0.491 0.155,-0.508 0.143,-0.529 0.131,-0.55 0.125,-0.572 0.125,-0.597 v -0.061 -0.05 c 0,-0.021 0.001,-0.041 0.005,-0.06 0.003,-0.018 0.011,-0.036 0.024,-0.053 L 0.216,-0.884 C 0.229,-0.893 0.242,-0.9 0.257,-0.905 0.271,-0.91 0.287,-0.913 0.302,-0.913 h 0.139 c 0.024,0 0.046,0.006 0.066,0.017 0.02,0.011 0.037,0.027 0.051,0.046 0.022,-0.013 0.046,-0.019 0.071,-0.019 0.039,0 0.072,0.014 0.1,0.041 L 0.856,-0.7 0.77,-0.613 c 0.003,-0.001 0.007,-0.001 0.011,-0.001 0.004,0 0.007,0 0.011,0 0.05,0 0.097,0.009 0.141,0.027 0.044,0.018 0.084,0.045 0.119,0.081 l 0.088,0.088 c 0.036,0.035 0.062,0.075 0.081,0.119 0.018,0.044 0.027,0.091 0.027,0.141 0,0.034 -0.004,0.066 -0.013,0.098 C 1.226,-0.029 1.214,0 1.198,0.028 1.182,0.055 1.163,0.08 1.14,0.103 1.118,0.125 1.093,0.144 1.065,0.16 1.038,0.176 1.009,0.188 0.977,0.197 0.946,0.206 0.913,0.21 0.879,0.21 Z"
         style="fill-rule:nonzero"
         id="path9694" /><path
         d="m 1.072,-0.354 0.035,0.003 c 0.023,0.028 0.04,0.058 0.052,0.091 0.013,0.032 0.019,0.066 0.019,0.102 0,0.041 -0.008,0.079 -0.024,0.116 C 1.139,-0.006 1.117,0.026 1.09,0.053 1.063,0.08 1.032,0.101 0.995,0.117 0.959,0.132 0.92,0.14 0.879,0.14 0.844,0.14 0.81,0.134 0.777,0.122 0.744,0.11 0.714,0.092 0.687,0.07 L 0.68,0.035 0.652,0.036 C 0.64,0.024 0.628,0.012 0.616,0 0.604,-0.011 0.592,-0.023 0.581,-0.035 0.57,-0.048 0.559,-0.06 0.549,-0.074 0.539,-0.087 0.53,-0.101 0.523,-0.117 L 0.535,-0.178 0.497,-0.2 C 0.496,-0.207 0.495,-0.215 0.494,-0.223 c 0,-0.007 0,-0.015 0,-0.023 0,-0.041 0.007,-0.079 0.023,-0.115 0.016,-0.036 0.037,-0.068 0.064,-0.095 0.027,-0.027 0.059,-0.049 0.095,-0.065 0.036,-0.015 0.074,-0.023 0.116,-0.023 0.007,0 0.015,0 0.022,0.001 0.008,0 0.016,0.001 0.023,0.002 l 0.031,0.029 0.052,-0.003 c 0.016,0.007 0.03,0.016 0.043,0.026 0.014,0.01 0.027,0.02 0.039,0.032 0.012,0.011 0.024,0.023 0.036,0.035 0.012,0.012 0.024,0.024 0.035,0.036 z"
         style="fill:#ffb900;fill-rule:nonzero"
         id="path9696" /><path
         d="m 0.651,-0.333 c 0,-0.008 0.002,-0.014 0.005,-0.021 0.002,-0.006 0.006,-0.012 0.011,-0.017 0.005,-0.004 0.01,-0.008 0.017,-0.011 0.006,-0.003 0.013,-0.004 0.02,-0.004 h 0.088 l -0.141,0.14 z m 0.176,0 c 0,-0.008 0.002,-0.014 0.004,-0.021 0.003,-0.007 0.007,-0.012 0.012,-0.017 0.004,-0.005 0.01,-0.008 0.016,-0.011 0.006,-0.003 0.013,-0.004 0.021,-0.004 h 0.087 l -0.14,0.14 z m -0.176,0.175 c 0,-0.007 0.002,-0.014 0.005,-0.02 C 0.658,-0.185 0.662,-0.19 0.667,-0.195 0.672,-0.2 0.677,-0.204 0.684,-0.206 0.69,-0.209 0.697,-0.21 0.704,-0.21 h 0.088 l -0.141,0.14 z m 0.176,0 c 0,-0.007 0.002,-0.014 0.004,-0.021 C 0.834,-0.185 0.838,-0.191 0.843,-0.195 0.848,-0.2 0.853,-0.204 0.86,-0.206 0.866,-0.209 0.873,-0.21 0.88,-0.21 h 0.087 l -0.14,0.14 z M 1.055,-0.21 h 0.088 l -0.141,0.14 v -0.088 c 0,-0.007 0.002,-0.014 0.005,-0.021 C 1.009,-0.185 1.013,-0.191 1.018,-0.195 1.023,-0.2 1.029,-0.204 1.035,-0.206 1.041,-0.209 1.048,-0.21 1.055,-0.21 Z M 0.827,0.018 c 0,-0.008 0.002,-0.014 0.004,-0.021 0.003,-0.006 0.007,-0.012 0.012,-0.017 0.004,-0.004 0.01,-0.008 0.016,-0.011 0.006,-0.003 0.013,-0.004 0.021,-0.004 h 0.087 l -0.14,0.14 z m -0.176,0 c 0,-0.008 0.002,-0.014 0.005,-0.021 0.002,-0.006 0.006,-0.012 0.011,-0.017 0.005,-0.004 0.01,-0.008 0.017,-0.011 0.006,-0.003 0.013,-0.004 0.02,-0.004 H 0.792 L 0.687,0.07 C 0.674,0.059 0.662,0.048 0.651,0.036 Z m 0.422,-0.404 c 0.006,0.006 0.012,0.011 0.018,0.017 0.006,0.006 0.011,0.012 0.016,0.018 l -0.105,0.105 v -0.087 c 0,-0.008 0.002,-0.014 0.005,-0.021 0.002,-0.007 0.006,-0.012 0.011,-0.017 0.005,-0.005 0.01,-0.008 0.016,-0.011 0.007,-0.003 0.014,-0.004 0.021,-0.004 z M 0.497,-0.2 C 0.502,-0.203 0.507,-0.206 0.512,-0.208 0.517,-0.21 0.523,-0.21 0.528,-0.21 H 0.616 L 0.523,-0.117 C 0.51,-0.144 0.501,-0.172 0.497,-0.2 Z m 0.34,-0.341 c 0.015,0.003 0.029,0.006 0.043,0.01 0.014,0.004 0.027,0.01 0.04,0.016 l -0.093,0.094 v -0.088 c 0,-0.006 0.001,-0.011 0.003,-0.017 0.002,-0.005 0.004,-0.01 0.007,-0.015 z"
         style="fill:#d48c00;fill-rule:nonzero"
         id="path9698" /><path
         d="m 0.757,-0.7 -0.106,0.105 v 0.138 c 0,0.01 -0.001,0.019 -0.005,0.028 C 0.642,-0.421 0.637,-0.413 0.631,-0.407 0.625,-0.401 0.617,-0.396 0.609,-0.392 0.6,-0.388 0.591,-0.386 0.582,-0.386 H 0.443 L 0.347,-0.29 C 0.34,-0.297 0.335,-0.304 0.332,-0.313 0.328,-0.321 0.326,-0.33 0.326,-0.34 c 0,-0.009 0.002,-0.018 0.006,-0.027 0.004,-0.009 0.009,-0.016 0.015,-0.023 L 0.414,-0.457 H 0.357 l -0.088,0.089 c -0.014,-0.014 -0.02,-0.03 -0.02,-0.049 0,-0.01 0.001,-0.019 0.005,-0.028 0.003,-0.008 0.009,-0.016 0.015,-0.022 L 0.58,-0.778 c 0.013,-0.014 0.03,-0.021 0.049,-0.021 0.009,0 0.018,0.002 0.027,0.006 0.009,0.003 0.016,0.008 0.023,0.015 l -0.097,0.097 v 0.057 L 0.658,-0.7 c 0.013,-0.014 0.03,-0.021 0.049,-0.021 0.009,0 0.019,0.002 0.027,0.006 0.009,0.003 0.016,0.008 0.023,0.015 z"
         style="fill:#107c10;fill-rule:nonzero"
         id="path9700" /><path
         d="m 0.441,-0.842 c 0.01,0 0.019,0.002 0.027,0.005 0.009,0.004 0.016,0.009 0.022,0.015 0.007,0.007 0.012,0.014 0.016,0.023 0.003,0.008 0.005,0.017 0.005,0.027 v 0.175 c 0,0.01 -0.002,0.019 -0.005,0.028 C 0.502,-0.561 0.497,-0.553 0.49,-0.547 0.484,-0.541 0.477,-0.536 0.468,-0.532 0.46,-0.528 0.451,-0.526 0.441,-0.526 H 0.266 c -0.01,0 -0.019,-0.002 -0.028,-0.006 C 0.23,-0.536 0.222,-0.541 0.216,-0.547 0.21,-0.553 0.205,-0.561 0.201,-0.569 0.197,-0.578 0.195,-0.587 0.195,-0.597 h 0.11 L 0.216,-0.686 C 0.209,-0.692 0.204,-0.7 0.2,-0.709 0.197,-0.719 0.195,-0.728 0.195,-0.737 c 0,-0.009 0.002,-0.018 0.006,-0.026 0.004,-0.009 0.009,-0.016 0.015,-0.022 l 0.153,0.153 H 0.406 V -0.668 L 0.253,-0.822 c 0.014,-0.013 0.03,-0.02 0.049,-0.02 0.01,0 0.019,0.002 0.027,0.005 0.009,0.004 0.017,0.009 0.023,0.015 l 0.089,0.089 z"
         style="fill:#73aa24;fill-rule:nonzero"
         id="path9702" /></g></g></svg>
