<?xml version="1.0" encoding="UTF-8" standalone="no"?>
<svg
   width="16.844999"
   height="16.32"
   viewBox="0 0 16.844999 16.32"
   version="1.1"
   xml:space="preserve"
   style="clip-rule:evenodd;fill-rule:evenodd;stroke-linejoin:round;stroke-miterlimit:2"
   id="svg20568"
   sodipodi:docname="emojis.svg"
   xmlns:inkscape="http://www.inkscape.org/namespaces/inkscape"
   xmlns:sodipodi="http://sodipodi.sourceforge.net/DTD/sodipodi-0.dtd"
   xmlns="http://www.w3.org/2000/svg"
   xmlns:svg="http://www.w3.org/2000/svg"><defs
     id="defs20572" /><sodipodi:namedview
     id="namedview20570"
     pagecolor="#505050"
     bordercolor="#eeeeee"
     borderopacity="1"
     inkscape:pageshadow="0"
     inkscape:pageopacity="0"
     inkscape:pagecheckerboard="0" /><g
     transform="matrix(0.24,0,0,0.24,-154.2342,-495.165)"
     id="g20566"><g
       transform="matrix(62.5,0,0,62.5,634.83,2120.25)"
       id="g9716"><path
         d="M 0.862,0.175 C 0.806,0.175 0.749,0.168 0.691,0.154 0.633,0.14 0.577,0.12 0.522,0.095 0.468,0.069 0.416,0.039 0.367,0.004 0.319,-0.03 0.276,-0.068 0.239,-0.109 c -0.011,0.002 -0.021,0.003 -0.032,0.003 -0.011,0 -0.021,0.001 -0.032,0.001 h -0.05 v -0.421 c 0,-0.032 0.006,-0.062 0.018,-0.092 0.011,-0.029 0.028,-0.055 0.05,-0.078 l -0.01,-0.01 C 0.175,-0.713 0.168,-0.72 0.161,-0.727 0.154,-0.734 0.148,-0.742 0.142,-0.75 0.137,-0.758 0.133,-0.766 0.13,-0.776 0.127,-0.785 0.125,-0.795 0.125,-0.807 c 0,-0.015 0.003,-0.028 0.008,-0.041 0.006,-0.013 0.013,-0.024 0.023,-0.034 0.009,-0.009 0.02,-0.017 0.033,-0.022 0.013,-0.006 0.027,-0.009 0.041,-0.009 0.014,0 0.028,0.003 0.041,0.008 0.012,0.006 0.024,0.013 0.034,0.023 0.013,0.013 0.026,0.026 0.039,0.039 0.013,0.013 0.026,0.026 0.039,0.04 0.028,-0.013 0.058,-0.023 0.088,-0.03 0.03,-0.006 0.061,-0.009 0.092,-0.009 0.059,0 0.115,0.011 0.168,0.033 0.054,0.022 0.101,0.053 0.143,0.095 0.029,0.03 0.056,0.061 0.08,0.094 0.023,0.033 0.045,0.067 0.065,0.102 0.02,0.036 0.038,0.072 0.055,0.108 0.018,0.037 0.035,0.075 0.051,0.113 0.009,0.018 0.018,0.034 0.029,0.048 0.011,0.014 0.024,0.028 0.039,0.041 0.018,0.015 0.031,0.032 0.041,0.05 0.009,0.018 0.014,0.039 0.014,0.063 0,0.028 -0.008,0.054 -0.024,0.079 C 1.205,0.014 1.181,0.041 1.155,0.064 1.128,0.088 1.098,0.108 1.067,0.124 1.035,0.141 1.002,0.153 0.967,0.162 0.932,0.171 0.897,0.175 0.862,0.175 Z"
         style="fill-rule:nonzero"
         id="path9706" /><path
         d="m 0.303,-0.664 c 0.035,-0.035 0.075,-0.062 0.119,-0.08 0.045,-0.019 0.092,-0.028 0.141,-0.028 0.047,0 0.089,0.007 0.127,0.022 0.038,0.015 0.073,0.035 0.104,0.06 0.032,0.026 0.061,0.055 0.087,0.088 0.025,0.034 0.049,0.069 0.071,0.106 0.021,0.037 0.041,0.075 0.058,0.114 0.018,0.039 0.035,0.076 0.051,0.112 0.006,0.014 0.012,0.026 0.018,0.036 0.006,0.011 0.012,0.02 0.019,0.029 0.007,0.008 0.015,0.017 0.023,0.025 0.008,0.008 0.018,0.017 0.029,0.027 0.009,0.009 0.016,0.017 0.021,0.026 0.004,0.009 0.007,0.019 0.007,0.032 0,0.007 -10e-4,0.014 -0.003,0.02 C 1.173,-0.069 1.17,-0.062 1.166,-0.056 1.15,-0.031 1.131,-0.008 1.108,0.012 1.086,0.032 1.061,0.048 1.034,0.062 1.007,0.076 0.979,0.087 0.95,0.094 0.92,0.101 0.891,0.105 0.862,0.105 0.811,0.105 0.76,0.099 0.709,0.086 0.658,0.074 0.608,0.057 0.559,0.035 0.511,0.013 0.465,-0.014 0.421,-0.044 0.377,-0.074 0.338,-0.107 0.303,-0.143 0.296,-0.151 0.289,-0.158 0.283,-0.166 0.276,-0.173 0.27,-0.181 0.264,-0.189 Z"
         style="fill:#f7630c;fill-rule:nonzero"
         id="path9708" /><path
         d="m 0.195,-0.176 v -0.35 c 0,-0.025 0.005,-0.048 0.014,-0.069 0.009,-0.021 0.022,-0.04 0.038,-0.056 0.016,-0.015 0.034,-0.028 0.055,-0.037 0.021,-0.01 0.044,-0.014 0.069,-0.014 v 0.351 c 0,0.024 -0.005,0.047 -0.014,0.068 -0.01,0.021 -0.022,0.04 -0.038,0.056 -0.016,0.016 -0.034,0.028 -0.056,0.038 -0.021,0.009 -0.044,0.013 -0.068,0.013 z"
         style="fill:#13a10e;fill-rule:nonzero"
         id="path9710" /><path
         d="m 0.23,-0.842 c 0.01,0 0.018,0.003 0.025,0.01 l 0.141,0.14 c 0.003,0.003 0.005,0.007 0.007,0.012 0.002,0.004 0.003,0.008 0.003,0.013 0,0.01 -0.004,0.018 -0.011,0.025 -0.007,0.007 -0.015,0.01 -0.024,0.01 -0.01,0 -0.018,-0.003 -0.025,-0.01 l -0.14,-0.14 C 0.202,-0.785 0.2,-0.789 0.198,-0.794 0.196,-0.798 0.195,-0.803 0.195,-0.807 c 0,-0.01 0.004,-0.018 0.011,-0.025 0.006,-0.007 0.015,-0.01 0.024,-0.01 z"
         style="fill:#8e562e;fill-rule:nonzero"
         id="path9712" /><path
         d="M 0.844,-0.176 C 0.837,-0.176 0.83,-0.177 0.824,-0.18 0.818,-0.183 0.812,-0.186 0.807,-0.191 0.803,-0.196 0.799,-0.201 0.796,-0.208 0.793,-0.214 0.792,-0.221 0.792,-0.228 c 0,-0.007 0.001,-0.014 0.004,-0.02 0.003,-0.007 0.007,-0.012 0.011,-0.017 0.005,-0.005 0.01,-0.009 0.016,-0.012 0.007,-0.002 0.014,-0.004 0.021,-0.004 0.007,0 0.014,0.002 0.021,0.004 0.006,0.003 0.012,0.007 0.017,0.012 0.004,0.004 0.008,0.01 0.011,0.016 0.003,0.007 0.004,0.014 0.004,0.021 0,0.007 -0.001,0.014 -0.004,0.021 -0.003,0.006 -0.007,0.012 -0.012,0.016 -0.005,0.005 -0.01,0.008 -0.016,0.011 -0.007,0.003 -0.014,0.004 -0.021,0.004 z m -0.14,0.035 c 0.007,0 0.014,0.002 0.02,0.005 0.007,0.002 0.012,0.006 0.017,0.011 0.005,0.005 0.009,0.01 0.012,0.017 0.002,0.006 0.004,0.013 0.004,0.02 0,0.007 -0.002,0.014 -0.004,0.02 -0.003,0.007 -0.007,0.012 -0.012,0.017 -0.005,0.005 -0.01,0.009 -0.017,0.012 -0.006,0.002 -0.013,0.004 -0.02,0.004 -0.007,0 -0.014,-0.002 -0.021,-0.004 C 0.677,-0.042 0.671,-0.046 0.667,-0.051 0.662,-0.055 0.658,-0.061 0.656,-0.067 0.653,-0.073 0.651,-0.08 0.651,-0.088 c 0,-0.007 0.002,-0.014 0.005,-0.02 0.002,-0.007 0.006,-0.012 0.011,-0.017 0.005,-0.005 0.01,-0.009 0.017,-0.011 0.006,-0.003 0.013,-0.005 0.02,-0.005 z m 0.211,0.036 c 0.007,0 0.014,0.001 0.02,0.004 0.007,0.002 0.012,0.006 0.017,0.011 0.005,0.005 0.008,0.01 0.011,0.017 0.003,0.006 0.004,0.013 0.004,0.02 0,0.008 -0.001,0.015 -0.004,0.021 C 0.96,-0.026 0.957,-0.02 0.952,-0.015 0.947,-0.011 0.942,-0.007 0.935,-0.004 0.929,-0.001 0.922,0 0.915,0 0.907,0 0.901,-0.001 0.894,-0.004 0.888,-0.007 0.882,-0.011 0.877,-0.016 0.873,-0.021 0.869,-0.026 0.866,-0.032 0.863,-0.039 0.862,-0.046 0.862,-0.053 c 0,-0.007 0.001,-0.014 0.004,-0.02 0.003,-0.006 0.007,-0.012 0.011,-0.017 0.005,-0.005 0.011,-0.009 0.017,-0.011 0.007,-0.003 0.013,-0.004 0.021,-0.004 z"
         style="fill:#eba300;fill-rule:nonzero"
         id="path9714" /></g></g></svg>
