<?xml version="1.0" encoding="UTF-8" standalone="no"?>
<svg
   width="15.795"
   height="16.844999"
   viewBox="0 0 15.795 16.844999"
   version="1.1"
   xml:space="preserve"
   style="clip-rule:evenodd;fill-rule:evenodd;stroke-linejoin:round;stroke-miterlimit:2"
   id="svg20568"
   sodipodi:docname="emojis.svg"
   xmlns:inkscape="http://www.inkscape.org/namespaces/inkscape"
   xmlns:sodipodi="http://sodipodi.sourceforge.net/DTD/sodipodi-0.dtd"
   xmlns="http://www.w3.org/2000/svg"
   xmlns:svg="http://www.w3.org/2000/svg"><defs
     id="defs20572" /><sodipodi:namedview
     id="namedview20570"
     pagecolor="#505050"
     bordercolor="#eeeeee"
     borderopacity="1"
     inkscape:pageshadow="0"
     inkscape:pageopacity="0"
     inkscape:pagecheckerboard="0" /><g
     transform="matrix(0.24,0,0,0.24,-174.8298,-495.165)"
     id="g20566"><g
       transform="matrix(62.5,0,0,62.5,720.645,2120.25)"
       id="g9728"><path
         d="M 0.529,0.21 C 0.508,0.21 0.487,0.208 0.467,0.202 0.447,0.196 0.429,0.188 0.412,0.178 0.394,0.167 0.379,0.155 0.364,0.14 0.35,0.125 0.338,0.108 0.328,0.089 L 0.149,-0.314 C 0.141,-0.334 0.135,-0.354 0.131,-0.375 0.127,-0.396 0.125,-0.417 0.125,-0.439 c 0,-0.044 0.008,-0.085 0.024,-0.125 0.017,-0.04 0.04,-0.075 0.07,-0.106 C 0.204,-0.689 0.193,-0.707 0.185,-0.725 0.177,-0.742 0.171,-0.76 0.168,-0.778 0.164,-0.796 0.162,-0.814 0.161,-0.833 0.16,-0.852 0.16,-0.873 0.16,-0.894 v -0.019 h 0.281 c 0.023,0 0.046,0.003 0.069,0.009 0.022,0.006 0.044,0.014 0.064,0.025 0.01,-0.011 0.022,-0.019 0.035,-0.025 0.014,-0.006 0.028,-0.009 0.042,-0.009 0.015,0 0.029,0.003 0.041,0.009 0.013,0.005 0.024,0.013 0.034,0.022 0.009,0.01 0.017,0.021 0.023,0.034 0.005,0.013 0.008,0.026 0.008,0.041 v 0.047 c 0.028,-0.008 0.057,-0.012 0.087,-0.012 0.046,0 0.089,0.009 0.13,0.026 0.04,0.018 0.076,0.041 0.106,0.072 0.03,0.03 0.054,0.065 0.071,0.106 0.018,0.04 0.027,0.083 0.027,0.129 0,0.022 -0.002,0.043 -0.006,0.065 -0.004,0.022 -0.011,0.042 -0.019,0.062 L 0.977,0.084 C 0.969,0.104 0.957,0.121 0.943,0.136 0.928,0.152 0.912,0.165 0.894,0.176 0.876,0.187 0.856,0.196 0.836,0.202 0.815,0.208 0.795,0.21 0.774,0.21 0.753,0.21 0.731,0.207 0.71,0.201 0.69,0.195 0.67,0.186 0.651,0.174 0.633,0.186 0.613,0.195 0.593,0.201 0.572,0.207 0.551,0.21 0.529,0.21 Z"
         style="fill-rule:nonzero"
         id="path9718" /><path
         d="m 0.458,-0.702 c 0.037,0 0.072,0.007 0.106,0.022 0.033,0.014 0.063,0.035 0.087,0.063 0.026,-0.028 0.055,-0.049 0.088,-0.063 0.033,-0.015 0.068,-0.022 0.105,-0.022 0.036,0 0.07,0.007 0.103,0.021 0.032,0.013 0.06,0.032 0.083,0.056 0.024,0.024 0.043,0.052 0.057,0.084 0.014,0.032 0.02,0.066 0.02,0.102 0,0.017 -10e-4,0.033 -0.004,0.05 C 1.1,-0.372 1.095,-0.356 1.088,-0.34 L 0.913,0.056 C 0.908,0.069 0.9,0.08 0.89,0.091 0.88,0.101 0.868,0.11 0.855,0.117 0.843,0.124 0.829,0.13 0.815,0.134 0.801,0.138 0.788,0.14 0.774,0.14 0.75,0.14 0.727,0.135 0.706,0.125 0.684,0.114 0.666,0.099 0.651,0.081 0.636,0.099 0.618,0.114 0.597,0.124 0.576,0.135 0.553,0.14 0.529,0.14 0.515,0.14 0.502,0.138 0.488,0.134 0.473,0.13 0.46,0.124 0.448,0.117 0.435,0.11 0.424,0.101 0.413,0.091 0.403,0.08 0.395,0.069 0.39,0.056 L 0.214,-0.34 C 0.208,-0.356 0.203,-0.372 0.2,-0.389 0.197,-0.406 0.195,-0.422 0.195,-0.439 c 0,-0.036 0.007,-0.07 0.021,-0.102 0.014,-0.032 0.033,-0.06 0.056,-0.084 0.024,-0.024 0.052,-0.043 0.084,-0.056 0.032,-0.014 0.066,-0.021 0.102,-0.021 z"
         style="fill:#f03a17;fill-rule:nonzero"
         id="path9720" /><path
         d="M 0.651,-0.632 H 0.441 C 0.412,-0.632 0.385,-0.637 0.359,-0.648 0.334,-0.66 0.311,-0.675 0.292,-0.694 0.273,-0.713 0.258,-0.735 0.247,-0.76 0.236,-0.786 0.23,-0.813 0.23,-0.842 h 0.211 c 0.029,0 0.056,0.005 0.082,0.016 0.025,0.011 0.048,0.026 0.067,0.045 0.019,0.02 0.034,0.042 0.045,0.067 0.011,0.026 0.016,0.053 0.016,0.082 z"
         style="fill:#13a10e;fill-rule:nonzero"
         id="path9722" /><path
         d="m 0.616,-0.597 v -0.21 c 0,-0.01 0.004,-0.018 0.01,-0.025 0.007,-0.007 0.016,-0.01 0.025,-0.01 0.01,0 0.018,0.003 0.025,0.01 0.007,0.007 0.011,0.015 0.011,0.025 v 0.21 c 0,0.01 -0.004,0.018 -0.011,0.025 -0.007,0.007 -0.015,0.01 -0.025,0.01 -0.009,0 -0.018,-0.003 -0.025,-0.01 -0.006,-0.007 -0.01,-0.015 -0.01,-0.025 z"
         style="fill:#8e562e;fill-rule:nonzero"
         id="path9724" /><path
         d="m 0.3,-0.421 c 0,-0.02 0.004,-0.038 0.012,-0.055 0.007,-0.017 0.017,-0.031 0.03,-0.044 0.012,-0.013 0.027,-0.023 0.044,-0.03 0.018,-0.008 0.036,-0.012 0.055,-0.012 0.019,0 0.037,0.004 0.054,0.011 0.017,0.008 0.032,0.018 0.045,0.03 0.013,0.013 0.023,0.028 0.03,0.045 0.007,0.017 0.011,0.035 0.011,0.055 0,0.019 -0.004,0.037 -0.011,0.055 -0.007,0.017 -0.017,0.032 -0.03,0.044 -0.013,0.013 -0.027,0.023 -0.044,0.03 -0.017,0.008 -0.036,0.011 -0.055,0.011 -0.02,0 -0.038,-0.003 -0.055,-0.011 C 0.369,-0.299 0.354,-0.309 0.341,-0.322 0.329,-0.334 0.319,-0.349 0.311,-0.366 0.304,-0.384 0.3,-0.402 0.3,-0.421 Z"
         style="fill:#ef6950;fill-rule:nonzero"
         id="path9726" /></g></g></svg>
