<?xml version="1.0" encoding="UTF-8" standalone="no"?>
<svg
   width="16.844999"
   height="16.844999"
   viewBox="0 0 16.844999 16.844999"
   version="1.1"
   xml:space="preserve"
   style="clip-rule:evenodd;fill-rule:evenodd;stroke-linejoin:round;stroke-miterlimit:2"
   id="svg20568"
   sodipodi:docname="emojis.svg"
   xmlns:inkscape="http://www.inkscape.org/namespaces/inkscape"
   xmlns:sodipodi="http://sodipodi.sourceforge.net/DTD/sodipodi-0.dtd"
   xmlns="http://www.w3.org/2000/svg"
   xmlns:svg="http://www.w3.org/2000/svg"><defs
     id="defs20572" /><sodipodi:namedview
     id="namedview20570"
     pagecolor="#505050"
     bordercolor="#eeeeee"
     borderopacity="1"
     inkscape:pageshadow="0"
     inkscape:pageopacity="0"
     inkscape:pagecheckerboard="0" /><g
     transform="matrix(0.24,0,0,0.24,-234.52212,-495.165)"
     id="g20566"><g
       transform="matrix(62.5,0,0,62.5,969.363,2120.25)"
       id="g9762"><path
         d="m 1.101,-0.706 c 0.024,0.021 0.044,0.043 0.063,0.067 0.018,0.024 0.033,0.05 0.046,0.077 0.012,0.027 0.022,0.056 0.028,0.085 0.007,0.03 0.01,0.06 0.01,0.091 0,0.034 -0.004,0.067 -0.012,0.099 -0.007,0.032 -0.019,0.063 -0.034,0.092 -0.015,0.029 -0.033,0.056 -0.054,0.081 -0.022,0.025 -0.046,0.048 -0.073,0.068 L 0.769,0.184 C 0.757,0.193 0.744,0.199 0.729,0.204 0.715,0.208 0.701,0.21 0.687,0.21 0.672,0.21 0.657,0.208 0.643,0.203 0.628,0.199 0.615,0.192 0.604,0.183 L 0.3,-0.044 C 0.273,-0.065 0.248,-0.088 0.227,-0.113 0.205,-0.138 0.186,-0.165 0.171,-0.194 0.156,-0.223 0.145,-0.254 0.137,-0.286 0.129,-0.318 0.125,-0.352 0.125,-0.386 c 0,-0.045 0.007,-0.088 0.02,-0.13 0.013,-0.042 0.033,-0.081 0.06,-0.116 C 0.179,-0.661 0.16,-0.694 0.146,-0.73 0.132,-0.766 0.125,-0.804 0.125,-0.842 v -0.071 h 0.351 c 0.038,0 0.075,0.007 0.111,0.02 0.035,0.014 0.067,0.033 0.096,0.058 0.024,-0.025 0.051,-0.044 0.081,-0.057 0.031,-0.014 0.064,-0.021 0.098,-0.021 h 0.281 v 0.071 c 0,0.024 -0.004,0.048 -0.011,0.071 -0.007,0.024 -0.017,0.045 -0.031,0.065 z"
         style="fill-rule:nonzero"
         id="path9754" /><path
         d="m 0.546,-0.737 c 0.049,0 0.096,0.01 0.141,0.029 L 0.693,-0.71 c 0.006,-0.004 0.009,-0.006 0.01,-0.007 0.002,-0.002 0.003,-0.003 0.004,-0.003 0.001,-0.001 0.002,-0.002 0.004,-0.003 0.002,-0.001 0.005,-0.002 0.01,-0.005 0.017,-0.008 0.034,-0.013 0.052,-0.014 0.018,-0.002 0.036,-0.003 0.054,-0.003 0.012,0 0.024,0.001 0.036,0.001 0.013,0.001 0.025,0.002 0.038,0.004 0.012,0.003 0.024,0.006 0.036,0.01 0.012,0.003 0.023,0.009 0.033,0.015 0.005,0.004 0.009,0.006 0.01,0.007 0.001,0.001 0.002,0.002 0.002,0.002 0,0.002 0.001,0.003 0.004,0.006 0.003,0.002 0.006,0.003 0.007,0.005 0.004,0.003 0.008,0.005 0.013,0.007 0.004,0.003 0.009,0.005 0.013,0.008 0.006,0.004 0.012,0.008 0.018,0.013 0.006,0.004 0.012,0.009 0.018,0.014 0.019,0.016 0.037,0.035 0.052,0.055 0.015,0.02 0.028,0.042 0.039,0.065 0.01,0.023 0.018,0.046 0.023,0.071 0.006,0.025 0.009,0.05 0.009,0.076 0,0.058 -0.013,0.111 -0.038,0.159 -0.026,0.049 -0.061,0.09 -0.107,0.125 L 0.728,0.127 C 0.722,0.132 0.716,0.135 0.708,0.137 0.701,0.139 0.694,0.14 0.687,0.14 0.679,0.14 0.672,0.139 0.665,0.137 0.657,0.135 0.651,0.132 0.646,0.127 L 0.341,-0.102 C 0.295,-0.136 0.259,-0.178 0.233,-0.226 0.208,-0.274 0.195,-0.328 0.195,-0.386 c 0,-0.032 0.004,-0.064 0.013,-0.093 0.008,-0.03 0.02,-0.058 0.035,-0.084 0.015,-0.027 0.034,-0.05 0.055,-0.072 0.021,-0.021 0.045,-0.039 0.071,-0.054 0.026,-0.016 0.054,-0.028 0.084,-0.036 0.03,-0.008 0.061,-0.012 0.093,-0.012 z"
         style="fill:#f7894a;fill-rule:nonzero"
         id="path9756" /><path
         d="m 0.834,-0.167 c -0.01,0 -0.018,-0.003 -0.025,-0.01 -0.007,-0.007 -0.01,-0.016 -0.01,-0.026 0,-0.004 0.001,-0.008 0.002,-0.013 0.008,-0.021 0.015,-0.041 0.019,-0.062 0.005,-0.02 0.007,-0.042 0.007,-0.064 0,-0.03 -0.004,-0.059 -0.012,-0.087 C 0.808,-0.456 0.797,-0.482 0.783,-0.506 0.769,-0.53 0.752,-0.552 0.732,-0.572 0.712,-0.592 0.69,-0.609 0.666,-0.623 0.642,-0.637 0.617,-0.647 0.589,-0.655 0.561,-0.663 0.532,-0.667 0.502,-0.667 c -0.022,0 -0.044,0.002 -0.064,0.007 -0.021,0.004 -0.041,0.011 -0.062,0.018 -0.005,0.002 -0.009,0.003 -0.014,0.003 -0.01,0 -0.018,-0.003 -0.025,-0.01 -0.006,-0.007 -0.01,-0.015 -0.01,-0.025 0,-0.007 0.002,-0.014 0.006,-0.019 0.004,-0.005 0.009,-0.01 0.016,-0.013 0.011,-0.005 0.023,-0.01 0.036,-0.014 0.012,-0.004 0.025,-0.007 0.039,-0.009 0.013,-0.003 0.027,-0.005 0.04,-0.006 0.013,-0.002 0.026,-0.002 0.038,-0.002 0.037,0 0.072,0.004 0.105,0.014 0.034,0.009 0.065,0.023 0.095,0.04 0.029,0.017 0.056,0.037 0.079,0.061 0.024,0.025 0.045,0.051 0.062,0.08 0.017,0.029 0.03,0.061 0.04,0.094 0.009,0.034 0.014,0.069 0.014,0.106 0,0.012 -0.001,0.025 -0.002,0.038 C 0.894,-0.29 0.892,-0.277 0.89,-0.263 0.887,-0.25 0.884,-0.237 0.88,-0.224 0.876,-0.211 0.871,-0.199 0.866,-0.188 0.863,-0.182 0.859,-0.177 0.853,-0.173 0.848,-0.169 0.841,-0.167 0.834,-0.167 Z"
         style="fill:#f03a17;fill-rule:nonzero"
         id="path9758" /><path
         d="m 1.073,-0.842 c 0,0.014 -0.002,0.029 -0.006,0.043 -0.004,0.014 -0.009,0.028 -0.016,0.04 -0.007,0.013 -0.015,0.025 -0.025,0.035 -0.009,0.011 -0.02,0.021 -0.033,0.029 C 0.968,-0.709 0.941,-0.719 0.913,-0.726 0.885,-0.733 0.856,-0.737 0.827,-0.737 c -0.023,0 -0.045,0.002 -0.068,0.007 -0.022,0.004 -0.044,0.011 -0.065,0.02 0.009,0.017 0.016,0.036 0.021,0.055 0.004,0.019 0.007,0.038 0.007,0.058 H 0.441 C 0.407,-0.597 0.375,-0.603 0.345,-0.616 0.315,-0.629 0.289,-0.646 0.267,-0.668 0.245,-0.691 0.227,-0.717 0.215,-0.747 0.202,-0.777 0.195,-0.808 0.195,-0.842 h 0.281 c 0.023,0 0.045,0.003 0.066,0.009 0.022,0.006 0.042,0.014 0.06,0.026 0.019,0.011 0.036,0.025 0.051,0.041 0.016,0.016 0.029,0.034 0.039,0.054 0.006,-0.02 0.014,-0.037 0.025,-0.053 0.01,-0.016 0.023,-0.03 0.038,-0.041 0.015,-0.012 0.031,-0.02 0.05,-0.027 0.018,-0.006 0.037,-0.009 0.057,-0.009 z"
         style="fill:#13a10e;fill-rule:nonzero"
         id="path9760" /></g></g></svg>
