<?xml version="1.0" encoding="UTF-8" standalone="no"?>
<svg
   width="16.844999"
   height="16.844999"
   viewBox="0 0 16.844999 16.844999"
   version="1.1"
   xml:space="preserve"
   style="clip-rule:evenodd;fill-rule:evenodd;stroke-linejoin:round;stroke-miterlimit:2"
   id="svg20568"
   sodipodi:docname="emojis.svg"
   xmlns:inkscape="http://www.inkscape.org/namespaces/inkscape"
   xmlns:sodipodi="http://sodipodi.sourceforge.net/DTD/sodipodi-0.dtd"
   xmlns="http://www.w3.org/2000/svg"
   xmlns:svg="http://www.w3.org/2000/svg"><defs
     id="defs20572" /><sodipodi:namedview
     id="namedview20570"
     pagecolor="#505050"
     bordercolor="#eeeeee"
     borderopacity="1"
     inkscape:pageshadow="0"
     inkscape:pageopacity="0"
     inkscape:pagecheckerboard="0" /><g
     transform="matrix(0.24,0,0,0.24,-275.7126,-495.165)"
     id="g20566"><g
       transform="matrix(62.5,0,0,62.5,1140.99,2120.25)"
       id="g9784"><path
         d="M 1.002,0.21 C 0.995,0.21 0.987,0.21 0.979,0.209 0.97,0.208 0.962,0.207 0.955,0.206 L 0.497,0.099 C 0.48,0.095 0.464,0.09 0.448,0.086 0.433,0.081 0.417,0.075 0.401,0.067 0.37,0.052 0.341,0.033 0.316,0.01 0.291,-0.013 0.269,-0.039 0.251,-0.068 0.233,-0.097 0.219,-0.128 0.21,-0.161 0.2,-0.194 0.195,-0.228 0.195,-0.263 c 0,-0.03 0.004,-0.06 0.011,-0.088 H 0.125 v -0.07 c 0,-0.023 0.003,-0.044 0.01,-0.065 0.007,-0.02 0.017,-0.039 0.029,-0.057 0.012,-0.017 0.027,-0.032 0.044,-0.046 0.017,-0.013 0.036,-0.023 0.057,-0.031 v -0.152 h 0.153 c 0.007,-0.021 0.017,-0.04 0.03,-0.058 0.014,-0.017 0.029,-0.032 0.046,-0.044 0.018,-0.012 0.037,-0.022 0.058,-0.029 0.021,-0.006 0.042,-0.01 0.064,-0.01 h 0.071 v 0.081 c 0.028,-0.007 0.057,-0.01 0.087,-0.01 0.044,0 0.085,0.007 0.124,0.021 0.039,0.015 0.075,0.035 0.106,0.06 0.032,0.026 0.059,0.056 0.081,0.092 0.023,0.035 0.039,0.074 0.049,0.116 l 0.106,0.459 c 0.003,0.01 0.004,0.019 0.006,0.029 0.001,0.01 0.002,0.02 0.002,0.03 0,0.034 -0.006,0.066 -0.019,0.095 C 1.216,0.09 1.198,0.116 1.176,0.138 1.154,0.161 1.128,0.178 1.098,0.191 1.068,0.204 1.036,0.21 1.002,0.21 Z"
         style="fill-rule:nonzero"
         id="path9776" /><path
         d="m 0.774,-0.772 c 0.036,0 0.069,0.006 0.101,0.017 0.031,0.012 0.06,0.028 0.086,0.048 0.026,0.021 0.048,0.046 0.066,0.074 0.018,0.029 0.031,0.06 0.038,0.094 l 0.107,0.461 c 0.002,0.008 0.003,0.015 0.004,0.021 0.001,0.007 0.002,0.014 0.002,0.022 0,0.024 -0.005,0.047 -0.014,0.068 C 1.155,0.054 1.142,0.073 1.126,0.089 1.11,0.104 1.092,0.117 1.071,0.126 1.049,0.135 1.027,0.14 1.002,0.14 0.997,0.14 0.991,0.14 0.985,0.139 0.979,0.139 0.973,0.138 0.968,0.137 0.938,0.131 0.907,0.124 0.878,0.116 0.848,0.109 0.818,0.102 0.788,0.095 0.742,0.084 0.695,0.073 0.65,0.063 0.604,0.052 0.558,0.041 0.511,0.03 0.499,0.027 0.487,0.024 0.476,0.021 0.465,0.018 0.453,0.014 0.442,0.009 0.415,-0.003 0.391,-0.018 0.369,-0.037 0.347,-0.056 0.329,-0.077 0.313,-0.101 0.298,-0.125 0.286,-0.151 0.278,-0.178 0.269,-0.206 0.265,-0.234 0.265,-0.263 c 0,-0.034 0.006,-0.066 0.016,-0.097 0.011,-0.031 0.026,-0.059 0.046,-0.085 0.019,-0.025 0.043,-0.047 0.07,-0.065 0.027,-0.019 0.057,-0.032 0.089,-0.041 0.009,-0.033 0.023,-0.063 0.041,-0.09 0.018,-0.027 0.04,-0.05 0.066,-0.069 0.025,-0.02 0.053,-0.035 0.084,-0.046 0.031,-0.011 0.064,-0.016 0.097,-0.016 z"
         style="fill:#f03a17;fill-rule:nonzero"
         id="path9778" /><path
         d="m 0.756,-0.526 c 0.01,0 0.018,0.003 0.025,0.01 l 0.035,0.035 c 0.007,0.007 0.011,0.015 0.011,0.025 0,0.009 -0.004,0.018 -0.011,0.024 -0.007,0.007 -0.015,0.011 -0.024,0.011 -0.01,0 -0.018,-0.004 -0.025,-0.011 L 0.732,-0.467 c -0.007,-0.007 -0.01,-0.015 -0.01,-0.024 0,-0.01 0.003,-0.018 0.01,-0.025 0.007,-0.007 0.015,-0.01 0.024,-0.01 z m 0.246,0.105 c -0.009,0 -0.018,-0.004 -0.024,-0.011 L 0.942,-0.467 c -0.006,-0.007 -0.01,-0.015 -0.01,-0.024 0,-0.01 0.004,-0.018 0.011,-0.025 0.007,-0.007 0.015,-0.01 0.024,-0.01 0.01,0 0.018,0.003 0.025,0.01 l 0.035,0.035 c 0.007,0.007 0.011,0.015 0.011,0.025 0,0.009 -0.004,0.018 -0.011,0.024 -0.007,0.007 -0.015,0.011 -0.025,0.011 z m -0.035,0.105 c 0.01,0 0.018,0.004 0.025,0.01 l 0.035,0.035 c 0.007,0.007 0.011,0.016 0.011,0.025 0,0.01 -0.004,0.018 -0.011,0.025 C 1.02,-0.214 1.012,-0.21 1.002,-0.21 0.993,-0.21 0.984,-0.214 0.978,-0.221 L 0.942,-0.256 c -0.006,-0.007 -0.01,-0.015 -0.01,-0.025 0,-0.01 0.004,-0.018 0.01,-0.025 0.007,-0.006 0.016,-0.01 0.025,-0.01 z m 0,0.211 c 0.01,0 0.018,0.003 0.025,0.01 l 0.035,0.035 c 0.007,0.007 0.011,0.015 0.011,0.025 0,0.01 -0.004,0.018 -0.011,0.025 C 1.021,-0.003 1.012,0 1.002,0 0.993,0 0.984,-0.003 0.978,-0.01 L 0.942,-0.045 c -0.006,-0.007 -0.01,-0.016 -0.01,-0.025 0,-0.01 0.004,-0.018 0.01,-0.025 0.007,-0.007 0.016,-0.01 0.025,-0.01 z M 0.756,-0.316 c 0.01,0 0.018,0.004 0.025,0.01 l 0.035,0.035 c 0.007,0.007 0.011,0.016 0.011,0.025 0,0.01 -0.004,0.018 -0.011,0.025 -0.007,0.007 -0.015,0.011 -0.024,0.011 -0.01,0 -0.018,-0.004 -0.025,-0.011 L 0.732,-0.256 c -0.007,-0.007 -0.01,-0.015 -0.01,-0.025 0,-0.009 0.003,-0.017 0.01,-0.024 0.007,-0.007 0.015,-0.011 0.024,-0.011 z m 0,0.211 c 0.01,0 0.018,0.003 0.025,0.01 l 0.035,0.035 c 0.007,0.007 0.011,0.015 0.011,0.025 0,0.009 -0.004,0.018 -0.011,0.025 C 0.809,-0.003 0.801,0 0.792,0 0.782,0 0.774,-0.003 0.767,-0.01 L 0.732,-0.045 c -0.007,-0.007 -0.01,-0.016 -0.01,-0.025 0,-0.01 0.003,-0.018 0.01,-0.025 0.007,-0.007 0.015,-0.01 0.024,-0.01 z m -0.21,-0.211 c 0.01,0 0.018,0.004 0.025,0.01 l 0.035,0.035 c 0.007,0.007 0.01,0.016 0.01,0.025 0,0.01 -0.003,0.018 -0.01,0.025 -0.007,0.007 -0.016,0.011 -0.025,0.011 -0.01,0 -0.018,-0.004 -0.025,-0.011 L 0.521,-0.256 c -0.006,-0.007 -0.01,-0.015 -0.01,-0.025 0,-0.009 0.004,-0.017 0.01,-0.024 0.007,-0.007 0.015,-0.011 0.025,-0.011 z m 0,0.211 c 0.01,0 0.018,0.003 0.025,0.01 l 0.035,0.035 c 0.007,0.007 0.01,0.015 0.01,0.025 0,0.009 -0.003,0.018 -0.01,0.025 C 0.599,-0.003 0.59,0 0.581,0 0.571,0 0.563,-0.003 0.556,-0.01 L 0.521,-0.045 c -0.006,-0.007 -0.01,-0.016 -0.01,-0.025 0,-0.01 0.004,-0.018 0.01,-0.025 0.007,-0.007 0.015,-0.01 0.025,-0.01 z"
         style="fill:#af0d1a;fill-rule:nonzero"
         id="path9780" /><path
         d="m 0.616,-0.667 h 0.176 c 0,0.02 -0.004,0.038 -0.011,0.055 -0.007,0.017 -0.017,0.032 -0.03,0.045 -0.013,0.012 -0.028,0.022 -0.045,0.03 -0.017,0.007 -0.035,0.011 -0.055,0.011 h -0.14 v 0.14 c 0,0.019 -0.003,0.038 -0.011,0.055 -0.007,0.017 -0.017,0.032 -0.03,0.044 -0.012,0.013 -0.027,0.023 -0.044,0.03 -0.018,0.008 -0.036,0.011 -0.055,0.011 V -0.421 H 0.195 c 0,-0.02 0.004,-0.038 0.011,-0.055 0.008,-0.017 0.018,-0.032 0.03,-0.045 0.013,-0.012 0.028,-0.022 0.045,-0.03 0.017,-0.007 0.035,-0.011 0.054,-0.011 v -0.14 h 0.141 c 0,-0.019 0.004,-0.038 0.011,-0.055 0.007,-0.017 0.017,-0.032 0.03,-0.044 0.013,-0.013 0.028,-0.023 0.045,-0.03 0.017,-0.008 0.035,-0.011 0.054,-0.011 z"
         style="fill:#107c10;fill-rule:nonzero"
         id="path9782" /></g></g></svg>
