<?xml version="1.0" encoding="UTF-8" standalone="no"?>
<svg
   width="16.844999"
   height="15.69"
   viewBox="0 0 16.844999 15.69"
   version="1.1"
   xml:space="preserve"
   style="clip-rule:evenodd;fill-rule:evenodd;stroke-linejoin:round;stroke-miterlimit:2"
   id="svg20568"
   sodipodi:docname="emojis.svg"
   xmlns:inkscape="http://www.inkscape.org/namespaces/inkscape"
   xmlns:sodipodi="http://sodipodi.sourceforge.net/DTD/sodipodi-0.dtd"
   xmlns="http://www.w3.org/2000/svg"
   xmlns:svg="http://www.w3.org/2000/svg"><defs
     id="defs20572" /><sodipodi:namedview
     id="namedview20570"
     pagecolor="#505050"
     bordercolor="#eeeeee"
     borderopacity="1"
     inkscape:pageshadow="0"
     inkscape:pageopacity="0"
     inkscape:pagecheckerboard="0" /><g
     transform="matrix(0.24,0,0,0.24,-316.9038,-496.32)"
     id="g20566"><g
       transform="matrix(62.5,0,0,62.5,1312.62,2120.25)"
       id="g9810"><path
         d="M 0.581,0.21 C 0.539,0.21 0.499,0.205 0.46,0.194 0.421,0.183 0.385,0.168 0.351,0.148 0.317,0.128 0.286,0.104 0.259,0.077 0.231,0.049 0.207,0.018 0.187,-0.016 0.168,-0.049 0.152,-0.086 0.141,-0.125 0.13,-0.163 0.125,-0.204 0.125,-0.246 c 0,-0.039 0.005,-0.077 0.014,-0.114 0.01,-0.037 0.024,-0.072 0.042,-0.105 0.018,-0.033 0.04,-0.063 0.066,-0.091 0.026,-0.028 0.056,-0.053 0.088,-0.074 v -0.072 h 0.217 l 0.135,-0.134 0.134,0.134 h 0.217 v 0.072 c 0.032,0.021 0.062,0.046 0.088,0.074 0.026,0.028 0.048,0.058 0.066,0.091 0.018,0.033 0.032,0.068 0.042,0.105 0.009,0.037 0.014,0.075 0.014,0.114 0,0.042 -0.005,0.083 -0.016,0.121 C 1.221,-0.086 1.205,-0.049 1.186,-0.016 1.166,0.018 1.142,0.049 1.114,0.077 1.087,0.104 1.056,0.128 1.022,0.148 0.988,0.168 0.952,0.183 0.913,0.194 0.874,0.205 0.834,0.21 0.792,0.21 Z"
         style="fill-rule:nonzero"
         id="path9800" /><path
         d="m 0.792,-0.632 c 0.035,0 0.07,0.005 0.103,0.014 0.032,0.009 0.063,0.022 0.092,0.039 0.028,0.017 0.054,0.037 0.078,0.06 0.023,0.024 0.043,0.05 0.06,0.079 0.017,0.028 0.03,0.059 0.039,0.092 0.009,0.033 0.014,0.067 0.014,0.102 0,0.036 -0.005,0.07 -0.014,0.103 C 1.155,-0.11 1.142,-0.08 1.125,-0.051 1.108,-0.023 1.088,0.003 1.065,0.027 1.041,0.051 1.015,0.071 0.987,0.088 0.958,0.104 0.927,0.117 0.895,0.126 0.862,0.136 0.827,0.14 0.792,0.14 H 0.581 C 0.528,0.14 0.478,0.13 0.431,0.11 0.384,0.09 0.343,0.062 0.308,0.027 0.273,-0.008 0.246,-0.049 0.226,-0.095 0.205,-0.142 0.195,-0.192 0.195,-0.246 c 0,-0.035 0.005,-0.069 0.014,-0.102 0.009,-0.033 0.022,-0.064 0.039,-0.092 0.017,-0.029 0.037,-0.055 0.06,-0.079 0.024,-0.023 0.05,-0.043 0.078,-0.06 0.029,-0.017 0.06,-0.03 0.093,-0.039 0.032,-0.009 0.067,-0.014 0.102,-0.014 z"
         style="fill:#f03a17;fill-rule:nonzero"
         id="path9802" /><path
         d="m 0.3,-0.31 c 0,-0.019 0.004,-0.037 0.012,-0.054 0.007,-0.017 0.017,-0.032 0.03,-0.045 0.013,-0.012 0.028,-0.022 0.045,-0.03 0.017,-0.007 0.035,-0.011 0.054,-0.011 0.019,0 0.037,0.003 0.054,0.011 0.017,0.007 0.032,0.017 0.045,0.03 0.013,0.013 0.023,0.027 0.03,0.044 0.007,0.018 0.011,0.036 0.011,0.055 0,0.019 -0.004,0.038 -0.011,0.055 C 0.563,-0.238 0.553,-0.223 0.54,-0.21 0.527,-0.198 0.513,-0.188 0.496,-0.18 0.479,-0.173 0.46,-0.169 0.441,-0.169 0.421,-0.169 0.403,-0.173 0.386,-0.18 0.369,-0.188 0.354,-0.198 0.341,-0.21 0.329,-0.223 0.319,-0.238 0.311,-0.255 0.304,-0.272 0.3,-0.291 0.3,-0.31 Z"
         style="fill:#ef6950;fill-rule:nonzero"
         id="path9804" /><path
         d="m 0.967,-0.632 c 0,0.011 -0.001,0.021 -0.005,0.032 -0.003,0.01 -0.008,0.019 -0.014,0.028 -0.006,0.009 -0.013,0.016 -0.022,0.023 -0.008,0.007 -0.017,0.012 -0.028,0.016 0.01,0.01 0.017,0.021 0.022,0.033 0.005,0.013 0.008,0.026 0.008,0.04 0,0.014 -0.003,0.027 -0.008,0.04 -0.006,0.013 -0.013,0.024 -0.023,0.034 L 0.792,-0.491 0.687,-0.386 0.581,-0.491 0.476,-0.386 C 0.466,-0.396 0.459,-0.407 0.453,-0.42 0.448,-0.433 0.445,-0.446 0.445,-0.46 0.445,-0.474 0.448,-0.487 0.453,-0.5 0.458,-0.512 0.465,-0.523 0.475,-0.533 0.465,-0.537 0.455,-0.542 0.447,-0.549 0.438,-0.556 0.431,-0.563 0.425,-0.572 0.419,-0.581 0.414,-0.59 0.411,-0.6 0.407,-0.611 0.406,-0.621 0.406,-0.632 h 0.14 l 0.017,0.015 c 0.022,-0.019 0.043,-0.039 0.063,-0.059 0.02,-0.02 0.04,-0.041 0.061,-0.061 0.02,0.02 0.04,0.04 0.06,0.06 0.02,0.021 0.041,0.04 0.062,0.06 l 0.018,-0.015 z"
         style="fill:#107c10;fill-rule:nonzero"
         id="path9806" /><path
         d="m 0.546,-0.632 h 0.281 c 0,0.015 -0.003,0.028 -0.009,0.041 -0.005,0.013 -0.013,0.024 -0.022,0.034 -0.01,0.009 -0.021,0.017 -0.033,0.022 -0.013,0.006 -0.027,0.009 -0.041,0.009 H 0.651 C 0.637,-0.526 0.623,-0.529 0.61,-0.535 0.598,-0.54 0.587,-0.548 0.577,-0.557 0.567,-0.567 0.56,-0.578 0.554,-0.591 0.549,-0.604 0.546,-0.617 0.546,-0.632 Z"
         style="fill:#13a10e;fill-rule:nonzero"
         id="path9808" /></g></g></svg>
