<?xml version="1.0" encoding="UTF-8" standalone="no"?>
<svg
   width="16.844999"
   height="16.844999"
   viewBox="0 0 16.844999 16.844999"
   version="1.1"
   xml:space="preserve"
   style="clip-rule:evenodd;fill-rule:evenodd;stroke-linejoin:round;stroke-miterlimit:2"
   id="svg20568"
   sodipodi:docname="emojis.svg"
   xmlns:inkscape="http://www.inkscape.org/namespaces/inkscape"
   xmlns:sodipodi="http://sodipodi.sourceforge.net/DTD/sodipodi-0.dtd"
   xmlns="http://www.w3.org/2000/svg"
   xmlns:svg="http://www.w3.org/2000/svg"><defs
     id="defs20572" /><sodipodi:namedview
     id="namedview20570"
     pagecolor="#505050"
     bordercolor="#eeeeee"
     borderopacity="1"
     inkscape:pageshadow="0"
     inkscape:pageopacity="0"
     inkscape:pagecheckerboard="0" /><g
     transform="matrix(0.24,0,0,0.24,-337.5006,-495.165)"
     id="g20566"><g
       transform="matrix(62.5,0,0,62.5,1398.44,2120.25)"
       id="g9824"><path
         d="m 1.067,-0.846 c 0.029,0.029 0.055,0.061 0.078,0.095 0.022,0.033 0.041,0.069 0.056,0.106 0.015,0.037 0.027,0.076 0.035,0.115 0.008,0.04 0.012,0.081 0.012,0.122 0,0.057 -0.007,0.112 -0.022,0.165 C 1.211,-0.19 1.191,-0.141 1.164,-0.095 1.137,-0.05 1.105,-0.008 1.067,0.03 1.03,0.067 0.988,0.099 0.942,0.126 0.896,0.153 0.847,0.173 0.794,0.188 0.741,0.203 0.686,0.21 0.629,0.21 0.588,0.21 0.548,0.206 0.508,0.198 0.469,0.19 0.43,0.178 0.393,0.163 0.356,0.148 0.32,0.129 0.287,0.106 0.253,0.084 0.221,0.058 0.192,0.029 0.168,0.006 0.151,-0.022 0.141,-0.053 0.13,-0.084 0.125,-0.116 0.125,-0.149 c 0,-0.04 0.007,-0.082 0.02,-0.126 0.013,-0.043 0.031,-0.087 0.054,-0.13 0.023,-0.043 0.051,-0.086 0.083,-0.128 0.032,-0.042 0.066,-0.082 0.104,-0.119 0.038,-0.038 0.078,-0.072 0.12,-0.104 0.042,-0.032 0.085,-0.06 0.128,-0.083 0.043,-0.023 0.087,-0.041 0.13,-0.054 0.044,-0.013 0.086,-0.02 0.126,-0.02 0.033,0 0.065,0.006 0.095,0.016 0.031,0.01 0.058,0.028 0.082,0.051 z"
         style="fill-rule:nonzero"
         id="path9812" /><path
         d="m 1.018,-0.796 c 0.025,0.025 0.048,0.053 0.068,0.083 0.02,0.03 0.037,0.062 0.051,0.095 0.013,0.033 0.024,0.067 0.031,0.102 0.007,0.035 0.01,0.071 0.01,0.108 0,0.05 -0.006,0.099 -0.019,0.146 -0.013,0.046 -0.032,0.09 -0.056,0.13 C 1.079,-0.091 1.051,-0.054 1.017,-0.021 0.984,0.013 0.947,0.042 0.906,0.065 0.866,0.089 0.822,0.108 0.775,0.121 0.728,0.134 0.68,0.14 0.629,0.14 0.593,0.14 0.557,0.137 0.522,0.13 0.487,0.123 0.453,0.112 0.42,0.099 0.387,0.085 0.355,0.068 0.325,0.048 0.295,0.028 0.267,0.005 0.242,-0.021 Z"
         style="fill:#8e562e;fill-rule:nonzero"
         id="path9814" /><path
         d="m 0.95,-0.035 c -0.005,0 -0.009,-0.002 -0.013,-0.006 L 0.903,-0.075 C 0.899,-0.079 0.897,-0.083 0.897,-0.088 c 0,-0.004 0.002,-0.008 0.006,-0.012 0.003,-0.003 0.007,-0.005 0.012,-0.005 0.005,0 0.009,0.002 0.012,0.005 l 0.035,0.035 c 0.004,0.003 0.005,0.007 0.005,0.012 0,0.005 -0.001,0.009 -0.005,0.012 -0.003,0.004 -0.007,0.006 -0.012,0.006 z m 0.035,-0.141 c -0.005,0 -0.009,-0.001 -0.012,-0.005 L 0.937,-0.216 C 0.934,-0.219 0.932,-0.223 0.932,-0.228 c 0,-0.005 0.002,-0.009 0.005,-0.012 0.004,-0.004 0.008,-0.006 0.013,-0.006 0.005,0 0.009,0.002 0.012,0.005 l 0.036,0.035 c 0.003,0.004 0.004,0.008 0.004,0.013 0,0.005 -0.001,0.009 -0.005,0.012 -0.003,0.004 -0.007,0.005 -0.012,0.005 z M 0.705,0.105 C 0.699,0.105 0.695,0.103 0.692,0.1 L 0.657,0.065 C 0.653,0.061 0.651,0.057 0.651,0.053 0.651,0.048 0.653,0.044 0.657,0.041 0.66,0.037 0.664,0.035 0.669,0.035 c 0.005,0 0.009,0.002 0.013,0.005 L 0.717,0.075 C 0.72,0.078 0.722,0.083 0.722,0.088 0.722,0.092 0.72,0.096 0.717,0.1 0.713,0.103 0.709,0.105 0.705,0.105 Z m -0.141,0 C 0.559,0.105 0.555,0.103 0.552,0.1 L 0.517,0.065 C 0.513,0.061 0.511,0.057 0.511,0.053 0.511,0.048 0.513,0.044 0.517,0.041 0.52,0.037 0.524,0.035 0.529,0.035 c 0.005,0 0.009,0.002 0.013,0.005 L 0.577,0.075 C 0.58,0.078 0.582,0.083 0.582,0.088 0.582,0.093 0.58,0.097 0.576,0.1 0.573,0.103 0.569,0.105 0.564,0.105 Z M 0.81,0 C 0.805,0 0.801,-0.002 0.797,-0.005 L 0.762,-0.041 C 0.759,-0.044 0.757,-0.048 0.757,-0.053 c 0,-0.004 0.002,-0.008 0.005,-0.012 0.004,-0.003 0.008,-0.005 0.012,-0.005 0.006,0 0.01,0.002 0.013,0.005 l 0.035,0.035 c 0.004,0.003 0.005,0.007 0.005,0.012 0,0.005 -0.002,0.009 -0.005,0.013 C 0.818,-0.002 0.814,0 0.81,0 Z"
         style="fill:#613d30;fill-rule:nonzero"
         id="path9816" /><path
         d="M 0.369,0.025 C 0.342,0.025 0.318,0.021 0.296,0.014 0.275,0.006 0.257,-0.006 0.242,-0.021 0.227,-0.035 0.215,-0.054 0.208,-0.075 0.2,-0.097 0.196,-0.121 0.196,-0.148 c 0,-0.036 0.006,-0.073 0.018,-0.112 0.012,-0.039 0.029,-0.078 0.05,-0.117 0.022,-0.039 0.047,-0.078 0.076,-0.116 0.03,-0.038 0.062,-0.075 0.096,-0.109 0.035,-0.035 0.071,-0.066 0.109,-0.096 0.038,-0.029 0.077,-0.054 0.116,-0.076 0.04,-0.021 0.079,-0.038 0.117,-0.05 0.039,-0.012 0.076,-0.018 0.112,-0.018 0.027,0 0.052,0.004 0.073,0.011 0.021,0.008 0.04,0.02 0.055,0.035 0.015,0.015 0.026,0.033 0.034,0.054 0.008,0.021 0.011,0.046 0.011,0.073 0,0.036 -0.006,0.073 -0.018,0.112 C 1.033,-0.518 1.017,-0.479 0.995,-0.44 0.974,-0.401 0.948,-0.362 0.919,-0.324 0.89,-0.286 0.858,-0.249 0.823,-0.215 0.789,-0.18 0.752,-0.148 0.714,-0.119 0.676,-0.09 0.638,-0.064 0.598,-0.043 0.559,-0.021 0.52,-0.005 0.481,0.007 0.442,0.019 0.405,0.025 0.369,0.025 Z"
         style="fill:#f2f2f2;fill-rule:nonzero"
         id="path9818" /><path
         d="m 0.89,-0.772 c 0.035,0 0.061,0.008 0.078,0.025 0.017,0.017 0.026,0.043 0.026,0.078 0,0.023 -0.004,0.047 -0.01,0.072 C 0.977,-0.573 0.969,-0.548 0.958,-0.523 0.947,-0.499 0.934,-0.474 0.919,-0.45 0.905,-0.426 0.889,-0.403 0.873,-0.381 0.857,-0.358 0.84,-0.337 0.823,-0.318 0.806,-0.298 0.79,-0.28 0.774,-0.264 0.717,-0.206 0.653,-0.156 0.583,-0.115 0.562,-0.124 0.544,-0.137 0.528,-0.154 0.513,-0.171 0.5,-0.191 0.49,-0.212 0.481,-0.234 0.473,-0.256 0.468,-0.28 0.463,-0.304 0.461,-0.326 0.461,-0.347 c 0,-0.044 0.007,-0.086 0.022,-0.127 0.015,-0.041 0.035,-0.08 0.06,-0.115 0.011,-0.017 0.022,-0.032 0.036,-0.045 0.013,-0.013 0.028,-0.025 0.046,-0.035 0.018,-0.013 0.038,-0.025 0.06,-0.038 C 0.706,-0.719 0.728,-0.73 0.751,-0.74 0.773,-0.749 0.796,-0.757 0.82,-0.763 0.844,-0.769 0.867,-0.772 0.89,-0.772 Z"
         style="fill:#cccccc;fill-rule:nonzero"
         id="path9820" /><path
         d="m 0.529,-0.377 c 0,0.021 0.001,0.043 0.003,0.066 0.002,0.023 0.005,0.046 0.009,0.068 0.004,0.023 0.01,0.045 0.017,0.067 0.006,0.022 0.015,0.042 0.025,0.061 C 0.567,-0.106 0.55,-0.097 0.533,-0.088 0.516,-0.08 0.498,-0.072 0.48,-0.066 0.462,-0.059 0.443,-0.054 0.425,-0.05 0.406,-0.046 0.387,-0.044 0.369,-0.044 0.3,-0.044 0.266,-0.079 0.266,-0.147 0.266,-0.176 0.27,-0.206 0.28,-0.237 0.289,-0.268 0.302,-0.299 0.318,-0.329 0.334,-0.36 0.353,-0.39 0.374,-0.419 0.395,-0.449 0.417,-0.477 0.441,-0.504 0.464,-0.531 0.488,-0.555 0.512,-0.578 0.536,-0.601 0.559,-0.62 0.581,-0.637 0.572,-0.618 0.564,-0.598 0.557,-0.576 0.55,-0.555 0.545,-0.533 0.541,-0.51 0.536,-0.488 0.533,-0.466 0.531,-0.443 0.53,-0.42 0.529,-0.399 0.529,-0.377 Z"
         style="fill:#a6a6a6;fill-rule:nonzero"
         id="path9822" /></g></g></svg>
