<?xml version="1.0" encoding="UTF-8" standalone="no"?>
<svg
   width="16.844999"
   height="16.844999"
   viewBox="0 0 16.844999 16.844999"
   version="1.1"
   xml:space="preserve"
   style="clip-rule:evenodd;fill-rule:evenodd;stroke-linejoin:round;stroke-miterlimit:2"
   id="svg20568"
   sodipodi:docname="emojis.svg"
   xmlns:inkscape="http://www.inkscape.org/namespaces/inkscape"
   xmlns:sodipodi="http://sodipodi.sourceforge.net/DTD/sodipodi-0.dtd"
   xmlns="http://www.w3.org/2000/svg"
   xmlns:svg="http://www.w3.org/2000/svg"><defs
     id="defs20572" /><sodipodi:namedview
     id="namedview20570"
     pagecolor="#505050"
     bordercolor="#eeeeee"
     borderopacity="1"
     inkscape:pageshadow="0"
     inkscape:pageopacity="0"
     inkscape:pagecheckerboard="0" /><g
     transform="matrix(0.24,0,0,0.24,-358.0974,-495.165)"
     id="g20566"><g
       transform="matrix(62.5,0,0,62.5,1484.26,2120.25)"
       id="g9838"><path
         d="M 0.757,0.21 C 0.718,0.21 0.681,0.205 0.645,0.195 0.609,0.185 0.576,0.171 0.544,0.153 0.513,0.135 0.485,0.113 0.459,0.087 0.433,0.061 0.411,0.033 0.393,0.002 0.375,-0.029 0.361,-0.063 0.351,-0.099 0.34,-0.134 0.335,-0.172 0.335,-0.21 L 0.336,-0.247 C 0.336,-0.259 0.335,-0.269 0.334,-0.278 0.333,-0.286 0.331,-0.294 0.328,-0.302 0.326,-0.309 0.322,-0.317 0.318,-0.324 0.313,-0.332 0.308,-0.34 0.301,-0.35 0.288,-0.368 0.275,-0.386 0.261,-0.404 0.248,-0.422 0.234,-0.44 0.221,-0.458 0.213,-0.468 0.206,-0.478 0.199,-0.488 0.193,-0.498 0.185,-0.508 0.177,-0.517 0.174,-0.519 0.172,-0.521 0.171,-0.523 0.17,-0.525 0.169,-0.528 0.167,-0.53 0.16,-0.541 0.154,-0.552 0.149,-0.563 0.144,-0.574 0.139,-0.585 0.136,-0.595 0.132,-0.606 0.129,-0.618 0.128,-0.629 0.126,-0.641 0.125,-0.654 0.125,-0.667 c 0,-0.034 0.007,-0.065 0.02,-0.095 0.013,-0.03 0.03,-0.056 0.053,-0.078 0.022,-0.022 0.048,-0.04 0.078,-0.053 0.029,-0.013 0.061,-0.02 0.095,-0.02 0.018,0 0.038,0.003 0.058,0.008 0.02,0.005 0.038,0.012 0.054,0.021 l 0.285,0.158 c 0.024,-0.007 0.05,-0.011 0.076,-0.011 0.031,0 0.061,0.005 0.089,0.015 0.029,0.01 0.054,0.025 0.077,0.043 0.023,0.018 0.042,0.04 0.058,0.066 0.016,0.025 0.027,0.053 0.034,0.084 0.047,0.041 0.083,0.088 0.108,0.143 0.026,0.054 0.038,0.113 0.038,0.176 0,0.038 -0.005,0.076 -0.015,0.112 -0.01,0.036 -0.024,0.069 -0.043,0.1 C 1.172,0.033 1.15,0.062 1.125,0.087 1.099,0.113 1.071,0.135 1.04,0.153 1.008,0.171 0.975,0.186 0.939,0.196 0.903,0.205 0.865,0.21 0.827,0.21 Z"
         style="fill-rule:nonzero"
         id="path9826" /><path
         d="M 0.882,-0.035 C 0.866,-0.036 0.848,-0.042 0.827,-0.052 0.806,-0.063 0.783,-0.077 0.759,-0.095 0.734,-0.112 0.709,-0.132 0.683,-0.155 0.657,-0.178 0.63,-0.202 0.604,-0.227 0.578,-0.252 0.552,-0.278 0.528,-0.304 0.503,-0.33 0.479,-0.355 0.458,-0.378 0.436,-0.402 0.417,-0.424 0.399,-0.443 0.382,-0.463 0.368,-0.48 0.357,-0.493 0.353,-0.497 0.348,-0.504 0.341,-0.513 0.334,-0.521 0.327,-0.531 0.319,-0.541 0.312,-0.55 0.305,-0.559 0.299,-0.568 0.293,-0.577 0.289,-0.583 0.288,-0.587 0.284,-0.597 0.281,-0.607 0.279,-0.617 0.277,-0.628 0.275,-0.638 0.272,-0.648 0.267,-0.671 0.262,-0.694 0.257,-0.716 0.252,-0.739 0.247,-0.762 0.241,-0.785 0.258,-0.803 0.277,-0.817 0.3,-0.827 c 0.022,-0.01 0.046,-0.015 0.071,-0.015 0.014,0 0.027,0.001 0.041,0.005 0.014,0.003 0.027,0.008 0.039,0.015 l 0.551,0.307 c 0.027,0.015 0.051,0.034 0.073,0.056 0.022,0.022 0.04,0.046 0.055,0.073 0.016,0.027 0.027,0.055 0.036,0.085 0.008,0.03 0.012,0.06 0.012,0.091 0,0.011 -10e-4,0.023 -0.002,0.034 z"
         style="fill:#e4f577;fill-rule:nonzero"
         id="path9828" /><path
         d="m 0.241,-0.785 0.316,0.432 c 0.002,0.003 0.004,0.006 0.005,0.009 0.002,0.003 0.003,0.005 0.005,0.008 0.005,0.008 0.011,0.016 0.016,0.023 0.006,0.008 0.013,0.015 0.019,0.022 0.035,0.037 0.074,0.066 0.117,0.086 0.044,0.019 0.092,0.029 0.143,0.029 H 1.176 C 1.172,-0.131 1.159,-0.089 1.139,-0.051 1.119,-0.012 1.094,0.021 1.062,0.049 1.031,0.078 0.995,0.1 0.955,0.116 0.914,0.132 0.872,0.14 0.827,0.14 H 0.757 C 0.725,0.14 0.694,0.136 0.664,0.128 0.634,0.119 0.606,0.108 0.58,0.092 0.554,0.077 0.53,0.059 0.509,0.037 0.487,0.016 0.469,-0.008 0.454,-0.033 0.438,-0.059 0.427,-0.087 0.418,-0.117 0.41,-0.147 0.406,-0.178 0.406,-0.21 V -0.215 C 0.406,-0.236 0.405,-0.254 0.405,-0.269 0.404,-0.283 0.402,-0.297 0.399,-0.31 0.396,-0.323 0.39,-0.336 0.383,-0.349 0.376,-0.363 0.366,-0.378 0.353,-0.396 L 0.242,-0.549 0.228,-0.565 C 0.218,-0.58 0.21,-0.596 0.204,-0.614 0.198,-0.631 0.195,-0.649 0.195,-0.667 c 0,-0.022 0.004,-0.043 0.012,-0.063 0.008,-0.02 0.02,-0.038 0.034,-0.055 z"
         style="fill:#107c10;fill-rule:nonzero"
         id="path9830" /><path
         d="m 0.827,-0.141 c 0.009,0 0.018,0.004 0.025,0.011 0.006,0.006 0.01,0.015 0.01,0.025 0,0.009 -0.004,0.018 -0.01,0.024 -0.007,0.007 -0.016,0.011 -0.025,0.011 -0.01,0 -0.018,-0.004 -0.025,-0.011 -0.007,-0.007 -0.01,-0.015 -0.01,-0.024 0,-0.01 0.003,-0.018 0.01,-0.025 0.007,-0.007 0.015,-0.011 0.025,-0.011 z M 0.651,-0.176 c 0.01,0 0.018,0.004 0.025,0.011 0.007,0.007 0.011,0.015 0.011,0.024 0,0.01 -0.004,0.018 -0.011,0.025 -0.007,0.007 -0.015,0.011 -0.025,0.011 -0.009,0 -0.018,-0.004 -0.025,-0.011 -0.006,-0.007 -0.01,-0.015 -0.01,-0.025 0,-0.009 0.004,-0.017 0.011,-0.024 0.007,-0.007 0.015,-0.011 0.024,-0.011 z M 0.546,-0.07 c 0.01,0 0.018,0.003 0.025,0.01 0.007,0.007 0.01,0.015 0.01,0.025 0,0.01 -0.003,0.018 -0.01,0.025 C 0.564,-0.003 0.556,0 0.546,0 0.536,0 0.528,-0.003 0.521,-0.01 0.515,-0.017 0.511,-0.026 0.511,-0.035 c 0,-0.01 0.004,-0.018 0.01,-0.025 0.007,-0.007 0.015,-0.01 0.025,-0.01 z m 0.492,-0.071 c 0.009,0 0.017,0.004 0.024,0.011 0.007,0.007 0.011,0.015 0.011,0.025 0,0.009 -0.004,0.017 -0.011,0.024 -0.007,0.007 -0.015,0.011 -0.024,0.011 -0.01,0 -0.018,-0.004 -0.025,-0.011 -0.007,-0.006 -0.011,-0.015 -0.011,-0.024 0,-0.01 0.004,-0.019 0.011,-0.025 0.007,-0.007 0.015,-0.011 0.025,-0.011 z M 0.546,-0.246 c 0,0.01 -0.004,0.018 -0.01,0.025 C 0.529,-0.214 0.521,-0.21 0.511,-0.21 0.502,-0.21 0.494,-0.214 0.487,-0.221 0.48,-0.228 0.476,-0.236 0.476,-0.246 c 0,-0.009 0.003,-0.018 0.01,-0.025 0.007,-0.006 0.015,-0.01 0.025,-0.01 0.01,0 0.018,0.004 0.025,0.011 0.006,0.007 0.01,0.015 0.01,0.024 z M 0.441,-0.421 c 0.01,0 0.018,0.003 0.025,0.01 0.007,0.007 0.01,0.015 0.01,0.025 0,0.01 -0.003,0.018 -0.01,0.025 -0.007,0.007 -0.015,0.01 -0.025,0.01 -0.01,0 -0.018,-0.003 -0.025,-0.01 -0.007,-0.007 -0.01,-0.015 -0.01,-0.025 0,-0.01 0.003,-0.018 0.01,-0.025 0.007,-0.007 0.015,-0.01 0.025,-0.01 z M 0.335,-0.562 c 0.01,0 0.019,0.004 0.025,0.011 0.007,0.007 0.011,0.015 0.011,0.025 0,0.009 -0.004,0.017 -0.011,0.024 -0.007,0.007 -0.015,0.011 -0.025,0.011 -0.009,0 -0.017,-0.004 -0.024,-0.011 C 0.304,-0.509 0.3,-0.517 0.3,-0.526 c 0,-0.01 0.004,-0.018 0.011,-0.025 0.006,-0.007 0.015,-0.011 0.024,-0.011 z M 0.932,0 c 0.01,0 0.018,0.003 0.025,0.01 0.007,0.007 0.01,0.015 0.01,0.025 0,0.01 -0.003,0.018 -0.01,0.025 C 0.95,0.067 0.942,0.07 0.932,0.07 0.923,0.07 0.914,0.067 0.907,0.06 0.9,0.053 0.897,0.045 0.897,0.035 0.897,0.025 0.9,0.017 0.907,0.01 0.914,0.003 0.922,0 0.932,0 Z m -0.21,0 c 0.009,0 0.018,0.003 0.025,0.01 0.006,0.007 0.01,0.015 0.01,0.025 0,0.01 -0.004,0.018 -0.011,0.025 C 0.739,0.067 0.731,0.07 0.722,0.07 0.712,0.07 0.704,0.067 0.697,0.06 0.69,0.053 0.687,0.045 0.687,0.035 0.687,0.025 0.69,0.017 0.697,0.01 0.704,0.003 0.712,0 0.722,0 Z"
         style="fill:#13a10e;fill-rule:nonzero"
         id="path9832" /><path
         d="m 1.038,-0.474 c 0,0.027 -0.005,0.052 -0.016,0.075 -0.01,0.024 -0.023,0.044 -0.041,0.062 -0.018,0.017 -0.038,0.031 -0.062,0.041 -0.023,0.01 -0.048,0.015 -0.075,0.015 -0.026,0 -0.052,-0.005 -0.075,-0.015 C 0.746,-0.306 0.725,-0.32 0.708,-0.337 0.69,-0.355 0.677,-0.375 0.667,-0.399 0.656,-0.422 0.651,-0.447 0.651,-0.474 c 0,-0.027 0.005,-0.052 0.016,-0.075 0.01,-0.024 0.023,-0.044 0.041,-0.062 0.017,-0.017 0.038,-0.031 0.061,-0.041 0.023,-0.01 0.049,-0.015 0.075,-0.015 0.027,0 0.052,0.005 0.075,0.015 0.024,0.01 0.044,0.024 0.062,0.041 0.018,0.018 0.031,0.038 0.041,0.062 0.011,0.023 0.016,0.048 0.016,0.075 z"
         style="fill:#613d30;fill-rule:nonzero"
         id="path9834" /><path
         d="m 0.862,-0.526 c 0,0.009 -0.002,0.019 -0.006,0.027 -0.003,0.008 -0.008,0.016 -0.014,0.022 -0.007,0.007 -0.014,0.012 -0.023,0.015 -0.008,0.004 -0.017,0.005 -0.027,0.005 -0.01,0 -0.019,-0.001 -0.027,-0.005 C 0.756,-0.465 0.749,-0.47 0.742,-0.477 0.736,-0.483 0.731,-0.491 0.727,-0.499 0.724,-0.507 0.722,-0.517 0.722,-0.526 c 0,-0.01 0.001,-0.019 0.005,-0.028 0.004,-0.008 0.009,-0.016 0.015,-0.022 0.006,-0.006 0.014,-0.011 0.022,-0.015 0.009,-0.004 0.018,-0.006 0.028,-0.006 0.01,0 0.019,0.002 0.027,0.006 0.009,0.004 0.016,0.009 0.023,0.015 0.006,0.006 0.011,0.014 0.014,0.022 0.004,0.009 0.006,0.018 0.006,0.028 z"
         style="fill:#8e562e;fill-rule:nonzero"
         id="path9836" /></g></g></svg>
