<?xml version="1.0" encoding="UTF-8" standalone="no"?>
<svg
   width="16.844999"
   height="16.844999"
   viewBox="0 0 16.844999 16.844999"
   version="1.1"
   xml:space="preserve"
   style="clip-rule:evenodd;fill-rule:evenodd;stroke-linejoin:round;stroke-miterlimit:2"
   id="svg20568"
   sodipodi:docname="emojis.svg"
   xmlns:inkscape="http://www.inkscape.org/namespaces/inkscape"
   xmlns:sodipodi="http://sodipodi.sourceforge.net/DTD/sodipodi-0.dtd"
   xmlns="http://www.w3.org/2000/svg"
   xmlns:svg="http://www.w3.org/2000/svg"><defs
     id="defs20572" /><sodipodi:namedview
     id="namedview20570"
     pagecolor="#505050"
     bordercolor="#eeeeee"
     borderopacity="1"
     inkscape:pageshadow="0"
     inkscape:pageopacity="0"
     inkscape:pagecheckerboard="0" /><g
     transform="matrix(0.24,0,0,0.24,-378.6918,-495.165)"
     id="g20566"><g
       transform="matrix(62.5,0,0,62.5,1570.07,2120.25)"
       id="g9848"><path
         d="M 0.932,0.21 C 0.875,0.21 0.822,0.202 0.772,0.186 0.723,0.169 0.676,0.147 0.634,0.118 0.591,0.089 0.551,0.055 0.515,0.017 0.479,-0.022 0.445,-0.064 0.416,-0.108 0.386,-0.153 0.359,-0.199 0.335,-0.248 0.311,-0.296 0.29,-0.344 0.271,-0.391 c -0.009,0.002 -0.018,0.004 -0.028,0.005 -0.009,0 -0.018,0.001 -0.028,0.001 L 0.16,-0.386 v -0.316 c 0,-0.009 0.001,-0.017 0.002,-0.025 -0.011,-0.01 -0.02,-0.022 -0.027,-0.036 -0.007,-0.014 -0.01,-0.029 -0.01,-0.044 0,-0.015 0.003,-0.029 0.008,-0.041 0.006,-0.013 0.013,-0.024 0.023,-0.034 0.009,-0.009 0.02,-0.017 0.033,-0.022 0.013,-0.006 0.027,-0.009 0.041,-0.009 0.016,0 0.03,0.004 0.045,0.01 0.014,0.007 0.026,0.016 0.036,0.028 0.007,-0.002 0.015,-0.002 0.024,-0.002 h 0.316 v 0.07 c 0,0.018 -0.003,0.037 -0.008,0.055 -0.006,0.017 -0.015,0.034 -0.026,0.049 0.025,0.035 0.053,0.067 0.084,0.097 0.032,0.029 0.065,0.056 0.1,0.081 0.035,0.025 0.071,0.047 0.109,0.067 0.039,0.019 0.078,0.037 0.118,0.052 0.033,0.012 0.063,0.028 0.09,0.047 0.027,0.02 0.05,0.042 0.07,0.067 0.019,0.026 0.034,0.054 0.044,0.085 0.011,0.031 0.016,0.065 0.016,0.102 0,0.029 -0.004,0.056 -0.011,0.084 C 1.229,0.006 1.219,0.031 1.205,0.054 1.191,0.077 1.174,0.098 1.155,0.118 1.136,0.137 1.115,0.153 1.092,0.167 1.068,0.181 1.043,0.192 1.016,0.199 0.989,0.207 0.961,0.21 0.932,0.21 Z"
         style="fill-rule:nonzero"
         id="path9840" /><path
         d="m 0.511,-0.737 c 0.022,0.039 0.048,0.077 0.078,0.112 0.029,0.036 0.061,0.068 0.096,0.099 0.034,0.03 0.071,0.058 0.109,0.083 0.039,0.025 0.079,0.047 0.12,0.066 0.021,0.009 0.042,0.018 0.065,0.025 0.022,0.008 0.044,0.017 0.063,0.027 0.021,0.011 0.04,0.025 0.057,0.04 0.016,0.015 0.03,0.032 0.042,0.051 0.012,0.019 0.021,0.039 0.027,0.06 0.007,0.022 0.01,0.045 0.01,0.069 0,0.033 -0.007,0.065 -0.02,0.095 C 1.146,0.02 1.128,0.046 1.106,0.068 1.083,0.09 1.057,0.108 1.028,0.121 0.998,0.134 0.966,0.14 0.932,0.14 0.885,0.14 0.84,0.133 0.798,0.12 0.756,0.106 0.717,0.088 0.681,0.064 0.644,0.041 0.61,0.013 0.579,-0.019 0.548,-0.05 0.519,-0.085 0.493,-0.121 0.466,-0.158 0.442,-0.196 0.421,-0.235 0.399,-0.275 0.38,-0.314 0.363,-0.354 0.361,-0.358 0.358,-0.365 0.354,-0.374 0.351,-0.383 0.346,-0.394 0.342,-0.405 0.337,-0.417 0.332,-0.429 0.327,-0.442 0.322,-0.455 0.318,-0.467 0.314,-0.479 0.31,-0.49 0.307,-0.5 0.304,-0.509 0.302,-0.517 0.3,-0.523 0.3,-0.526 v -0.211 z"
         style="fill:#5e4a9d;fill-rule:nonzero"
         id="path9842" /><path
         d="M 0.975,-0.204 C 0.97,-0.204 0.964,-0.205 0.957,-0.208 0.949,-0.21 0.941,-0.213 0.933,-0.216 L 0.892,-0.234 C 0.872,-0.242 0.851,-0.252 0.828,-0.264 0.806,-0.275 0.783,-0.287 0.76,-0.301 0.738,-0.314 0.715,-0.328 0.692,-0.343 0.669,-0.358 0.647,-0.373 0.626,-0.389 0.605,-0.405 0.586,-0.422 0.568,-0.438 0.55,-0.455 0.534,-0.472 0.521,-0.489 0.518,-0.493 0.516,-0.497 0.514,-0.501 0.512,-0.505 0.511,-0.509 0.511,-0.514 c 0,-0.009 0.003,-0.017 0.01,-0.024 0.007,-0.007 0.015,-0.011 0.025,-0.011 0.005,0 0.01,0.001 0.014,0.003 0.003,0.002 0.007,0.005 0.011,0.008 0.01,0.009 0.019,0.017 0.027,0.026 0.008,0.009 0.017,0.018 0.027,0.026 0.038,0.035 0.078,0.066 0.121,0.094 0.042,0.028 0.086,0.053 0.133,0.076 0.011,0.005 0.023,0.01 0.035,0.015 0.011,0.006 0.023,0.01 0.035,0.015 0.006,0.003 0.012,0.005 0.018,0.007 0.006,0.002 0.012,0.004 0.018,0.007 0.008,0.003 0.014,0.007 0.018,0.012 0.005,0.005 0.007,0.012 0.007,0.021 0,0.01 -0.004,0.018 -0.01,0.025 -0.007,0.006 -0.015,0.01 -0.025,0.01 z"
         style="fill:#886ce4;fill-rule:nonzero"
         id="path9844" /><path
         d="m 0.335,-0.807 h 0.246 c 0,0.015 -0.003,0.028 -0.008,0.041 C 0.567,-0.753 0.56,-0.742 0.55,-0.733 0.541,-0.723 0.53,-0.716 0.517,-0.71 0.504,-0.705 0.491,-0.702 0.476,-0.702 H 0.441 c 0,0.014 -0.003,0.028 -0.008,0.041 C 0.427,-0.648 0.42,-0.637 0.41,-0.628 0.4,-0.618 0.389,-0.611 0.376,-0.605 0.364,-0.599 0.35,-0.597 0.335,-0.597 v 0.035 c 0,0.015 -0.002,0.029 -0.008,0.041 -0.005,0.013 -0.013,0.024 -0.022,0.034 -0.01,0.009 -0.021,0.017 -0.034,0.022 -0.012,0.006 -0.026,0.008 -0.041,0.008 V -0.702 C 0.23,-0.71 0.231,-0.718 0.233,-0.725 0.235,-0.733 0.237,-0.74 0.241,-0.747 0.237,-0.751 0.233,-0.755 0.228,-0.76 0.222,-0.764 0.217,-0.769 0.213,-0.774 0.208,-0.78 0.204,-0.785 0.2,-0.791 0.197,-0.796 0.195,-0.802 0.195,-0.807 c 0,-0.01 0.004,-0.018 0.011,-0.025 0.006,-0.007 0.015,-0.01 0.024,-0.01 0.01,0 0.018,0.003 0.025,0.01 l 0.036,0.035 C 0.298,-0.8 0.305,-0.803 0.313,-0.804 0.32,-0.806 0.328,-0.807 0.335,-0.807 Z"
         style="fill:#8cbd18;fill-rule:nonzero"
         id="path9846" /></g></g></svg>
