<?xml version="1.0" encoding="UTF-8" standalone="no"?>
<svg
   width="16.844999"
   height="16.844999"
   viewBox="0 0 16.844999 16.844999"
   version="1.1"
   xml:space="preserve"
   style="clip-rule:evenodd;fill-rule:evenodd;stroke-linejoin:round;stroke-miterlimit:2"
   id="svg20568"
   sodipodi:docname="emojis.svg"
   xmlns:inkscape="http://www.inkscape.org/namespaces/inkscape"
   xmlns:sodipodi="http://sodipodi.sourceforge.net/DTD/sodipodi-0.dtd"
   xmlns="http://www.w3.org/2000/svg"
   xmlns:svg="http://www.w3.org/2000/svg"><defs
     id="defs20572" /><sodipodi:namedview
     id="namedview20570"
     pagecolor="#505050"
     bordercolor="#eeeeee"
     borderopacity="1"
     inkscape:pageshadow="0"
     inkscape:pageopacity="0"
     inkscape:pagecheckerboard="0" /><g
     transform="matrix(0.24,0,0,0.24,-399.2886,-495.165)"
     id="g20566"><g
       transform="matrix(62.5,0,0,62.5,1655.89,2120.25)"
       id="g9856"><path
         d="M 0.545,0.21 C 0.506,0.21 0.469,0.205 0.433,0.196 0.397,0.186 0.364,0.172 0.333,0.153 0.302,0.135 0.273,0.113 0.248,0.088 0.222,0.062 0.2,0.034 0.182,0.003 0.164,-0.028 0.15,-0.062 0.14,-0.098 0.13,-0.133 0.125,-0.171 0.125,-0.209 c 0,-0.028 0.003,-0.055 0.008,-0.082 0.005,-0.027 0.013,-0.054 0.024,-0.079 0.01,-0.026 0.023,-0.05 0.038,-0.073 0.016,-0.023 0.033,-0.045 0.053,-0.064 0.015,-0.015 0.032,-0.028 0.049,-0.04 0.017,-0.012 0.035,-0.023 0.053,-0.034 0.011,-0.007 0.022,-0.013 0.033,-0.02 0.011,-0.007 0.021,-0.014 0.03,-0.024 0.01,-0.009 0.018,-0.019 0.024,-0.031 0.007,-0.011 0.014,-0.022 0.021,-0.033 0.01,-0.018 0.021,-0.036 0.033,-0.053 0.012,-0.017 0.025,-0.033 0.04,-0.048 0.019,-0.019 0.04,-0.037 0.063,-0.052 0.023,-0.016 0.048,-0.028 0.073,-0.039 0.026,-0.01 0.052,-0.018 0.079,-0.024 0.028,-0.005 0.055,-0.008 0.082,-0.008 0.039,0 0.076,0.005 0.112,0.015 0.036,0.01 0.069,0.024 0.1,0.043 0.031,0.018 0.06,0.04 0.085,0.065 0.026,0.026 0.048,0.054 0.066,0.085 0.018,0.031 0.032,0.065 0.042,0.101 0.01,0.035 0.015,0.073 0.015,0.111 0,0.057 -0.011,0.11 -0.032,0.161 -0.021,0.052 -0.051,0.097 -0.091,0.137 L 0.842,0.087 C 0.803,0.127 0.757,0.158 0.706,0.179 0.655,0.2 0.601,0.21 0.545,0.21 Z"
         style="fill-rule:nonzero"
         id="path9850" /><path
         d="M 0.551,0.103 C 0.528,0.103 0.506,0.101 0.485,0.095 0.463,0.09 0.443,0.083 0.423,0.074 0.403,0.065 0.384,0.054 0.366,0.041 0.348,0.028 0.331,0.013 0.315,-0.003 0.3,-0.018 0.286,-0.032 0.275,-0.045 0.264,-0.059 0.254,-0.073 0.245,-0.087 0.237,-0.101 0.229,-0.117 0.223,-0.133 0.217,-0.149 0.211,-0.167 0.206,-0.188 0.204,-0.194 0.202,-0.202 0.199,-0.209 0.197,-0.217 0.196,-0.224 0.196,-0.231 c 0,-0.005 0,-0.01 0.001,-0.015 0,-0.005 0.001,-0.01 0.002,-0.015 0,-0.001 0,-0.001 0,-0.001 0.001,0 0.001,0 0.001,-0.001 0,-0.017 0.003,-0.034 0.008,-0.052 0.006,-0.018 0.014,-0.036 0.023,-0.053 0.01,-0.017 0.02,-0.034 0.032,-0.049 0.011,-0.015 0.023,-0.029 0.035,-0.04 C 0.313,-0.473 0.33,-0.486 0.349,-0.498 0.367,-0.51 0.386,-0.521 0.405,-0.532 0.411,-0.535 0.419,-0.539 0.427,-0.543 0.436,-0.546 0.445,-0.55 0.454,-0.554 0.462,-0.558 0.471,-0.562 0.478,-0.566 0.486,-0.571 0.492,-0.575 0.497,-0.58 0.5,-0.583 0.503,-0.586 0.506,-0.59 c 0.002,-0.004 0.003,-0.009 0.003,-0.014 0,-0.004 0,-0.008 -0.001,-0.012 -0.002,-0.004 -0.003,-0.009 -0.005,-0.012 0.012,-0.02 0.024,-0.039 0.036,-0.058 0.012,-0.019 0.026,-0.037 0.042,-0.054 0.032,-0.033 0.07,-0.058 0.113,-0.076 0.043,-0.017 0.087,-0.026 0.134,-0.026 0.029,0 0.057,0.003 0.085,0.01 0.027,0.007 0.053,0.017 0.077,0.029 0.024,0.013 0.047,0.028 0.067,0.046 0.021,0.018 0.039,0.039 0.055,0.061 0.016,0.022 0.03,0.047 0.04,0.073 0.011,0.026 0.019,0.053 0.023,0.082 -0.008,0.025 -0.014,0.049 -0.019,0.072 -0.005,0.022 -0.011,0.044 -0.018,0.065 -0.007,0.021 -0.016,0.041 -0.027,0.061 -0.011,0.02 -0.026,0.039 -0.047,0.059 L 0.775,0.004 C 0.745,0.035 0.711,0.059 0.673,0.076 0.635,0.094 0.595,0.103 0.551,0.103 Z"
         style="fill:#bb9167;fill-rule:nonzero"
         id="path9852" /><path
         d="M 0.545,0.14 C 0.513,0.14 0.482,0.136 0.452,0.128 0.422,0.119 0.394,0.108 0.368,0.093 0.343,0.077 0.319,0.059 0.298,0.038 0.276,0.017 0.258,-0.007 0.243,-0.033 0.228,-0.059 0.216,-0.087 0.208,-0.116 0.199,-0.146 0.195,-0.177 0.195,-0.209 V -0.22 c 0,-0.004 0,-0.007 0.001,-0.011 0.016,0.03 0.037,0.058 0.061,0.082 0.024,0.024 0.05,0.045 0.079,0.062 0.029,0.017 0.06,0.03 0.093,0.039 0.033,0.009 0.067,0.014 0.101,0.014 0.051,0 0.1,-0.01 0.147,-0.029 0.047,-0.02 0.088,-0.047 0.124,-0.083 l 0.309,-0.31 c 0.025,-0.025 0.047,-0.053 0.065,-0.085 10e-4,0.008 0.002,0.016 0.002,0.024 10e-4,0.008 10e-4,0.016 10e-4,0.024 0,0.047 -0.009,0.092 -0.026,0.134 -0.018,0.042 -0.043,0.08 -0.077,0.114 L 0.792,0.038 C 0.76,0.07 0.722,0.096 0.679,0.114 0.636,0.131 0.591,0.14 0.545,0.14 Z m 0.159,-0.668 c -0.003,0 -0.005,0 -0.007,-0.001 -0.003,0 -0.005,-0.001 -0.008,-0.002 C 0.666,-0.541 0.642,-0.548 0.62,-0.553 0.597,-0.559 0.573,-0.562 0.547,-0.562 c -0.049,0 -0.096,0.01 -0.142,0.03 0.011,-0.007 0.021,-0.013 0.031,-0.02 0.009,-0.007 0.017,-0.014 0.025,-0.021 0.008,-0.008 0.015,-0.016 0.022,-0.025 0.007,-0.009 0.014,-0.019 0.02,-0.03 0.008,-0.001 0.016,-0.002 0.023,-0.002 0.008,-0.001 0.016,-0.001 0.023,-0.001 0.013,0 0.027,0.001 0.042,0.002 0.015,0.002 0.03,0.004 0.045,0.007 0.015,0.003 0.03,0.007 0.044,0.011 0.014,0.005 0.027,0.01 0.038,0.016 0.007,0.004 0.012,0.008 0.016,0.013 0.003,0.005 0.005,0.012 0.005,0.019 0,0.009 -0.003,0.018 -0.01,0.025 -0.007,0.007 -0.015,0.01 -0.025,0.01 z m 0.063,0.299 C 0.76,-0.229 0.753,-0.23 0.748,-0.234 0.742,-0.238 0.738,-0.243 0.735,-0.25 0.73,-0.259 0.726,-0.267 0.722,-0.275 0.717,-0.282 0.713,-0.29 0.708,-0.296 0.704,-0.303 0.698,-0.31 0.693,-0.317 0.687,-0.324 0.681,-0.331 0.674,-0.339 0.667,-0.346 0.664,-0.355 0.664,-0.364 c 0,-0.01 0.003,-0.018 0.01,-0.025 0.007,-0.007 0.015,-0.01 0.025,-0.01 0.009,0 0.018,0.003 0.025,0.01 0.004,0.004 0.008,0.008 0.014,0.014 0.005,0.007 0.01,0.014 0.016,0.021 0.006,0.007 0.012,0.016 0.017,0.024 0.006,0.009 0.011,0.017 0.016,0.025 0.004,0.008 0.008,0.016 0.011,0.023 0.002,0.007 0.004,0.013 0.004,0.018 0,0.01 -0.004,0.018 -0.01,0.025 -0.007,0.007 -0.015,0.01 -0.025,0.01 z M 0.406,-0.351 c 0,0.01 -0.004,0.018 -0.01,0.025 -0.007,0.007 -0.016,0.01 -0.025,0.01 -0.01,0 -0.018,-0.003 -0.025,-0.01 -0.007,-0.007 -0.011,-0.015 -0.011,-0.025 0,-0.01 0.004,-0.018 0.011,-0.025 0.007,-0.007 0.015,-0.01 0.025,-0.01 0.009,0 0.018,0.003 0.025,0.01 0.006,0.007 0.01,0.015 0.01,0.025 z m 0.14,0.175 c 0,0.01 -0.004,0.018 -0.01,0.025 -0.007,0.007 -0.015,0.01 -0.025,0.01 -0.01,0 -0.018,-0.003 -0.025,-0.01 -0.007,-0.007 -0.01,-0.015 -0.01,-0.025 0,-0.009 0.004,-0.017 0.011,-0.024 0.007,-0.007 0.015,-0.01 0.024,-0.01 0.01,0 0.018,0.003 0.025,0.01 0.006,0.007 0.01,0.015 0.01,0.024 z m 0.492,-0.456 c 0,0.01 -0.004,0.018 -0.011,0.025 -0.006,0.007 -0.015,0.01 -0.025,0.01 -0.009,0 -0.018,-0.003 -0.024,-0.01 -0.007,-0.007 -0.011,-0.015 -0.011,-0.025 0,-0.01 0.004,-0.018 0.011,-0.025 0.006,-0.007 0.015,-0.01 0.024,-0.01 0.01,0 0.019,0.003 0.025,0.01 0.007,0.007 0.011,0.015 0.011,0.025 z m -0.246,-0.07 c 0,0.009 -0.004,0.018 -0.011,0.025 -0.007,0.007 -0.015,0.01 -0.024,0.01 -0.01,0 -0.018,-0.003 -0.025,-0.01 -0.007,-0.007 -0.01,-0.015 -0.01,-0.025 0,-0.01 0.003,-0.018 0.01,-0.025 0.007,-0.007 0.015,-0.01 0.025,-0.01 0.009,0 0.017,0.003 0.024,0.01 0.007,0.007 0.011,0.015 0.011,0.025 z m 0.175,0.281 c 0,0.009 -0.003,0.018 -0.01,0.025 -0.007,0.006 -0.015,0.01 -0.025,0.01 -0.01,0 -0.018,-0.004 -0.025,-0.01 -0.007,-0.007 -0.01,-0.016 -0.01,-0.025 0,-0.01 0.003,-0.018 0.01,-0.025 0.007,-0.007 0.016,-0.011 0.025,-0.011 0.01,0 0.018,0.004 0.025,0.011 0.007,0.007 0.01,0.015 0.01,0.025 z"
         style="fill:#8e562e;fill-rule:nonzero"
         id="path9854" /></g></g></svg>
