<?xml version="1.0" encoding="UTF-8" standalone="no"?>
<svg
   width="16.844999"
   height="16.844999"
   viewBox="0 0 16.844999 16.844999"
   version="1.1"
   xml:space="preserve"
   style="clip-rule:evenodd;fill-rule:evenodd;stroke-linejoin:round;stroke-miterlimit:2"
   id="svg20568"
   sodipodi:docname="emojis.svg"
   xmlns:inkscape="http://www.inkscape.org/namespaces/inkscape"
   xmlns:sodipodi="http://sodipodi.sourceforge.net/DTD/sodipodi-0.dtd"
   xmlns="http://www.w3.org/2000/svg"
   xmlns:svg="http://www.w3.org/2000/svg"><defs
     id="defs20572" /><sodipodi:namedview
     id="namedview20570"
     pagecolor="#505050"
     bordercolor="#eeeeee"
     borderopacity="1"
     inkscape:pageshadow="0"
     inkscape:pageopacity="0"
     inkscape:pagecheckerboard="0" /><g
     transform="matrix(0.24,0,0,0.24,-460.5558,-495.165)"
     id="g20566"><g
       transform="matrix(62.5,0,0,62.5,1911.17,2120.25)"
       id="g9888"><path
         d="M 0.668,0.21 C 0.612,0.21 0.558,0.203 0.506,0.187 0.454,0.171 0.405,0.149 0.36,0.12 0.315,0.092 0.274,0.057 0.237,0.016 0.201,-0.025 0.17,-0.07 0.146,-0.12 0.14,-0.132 0.136,-0.143 0.131,-0.155 0.127,-0.166 0.125,-0.178 0.125,-0.191 c 0,-0.019 0.004,-0.036 0.011,-0.053 0.007,-0.016 0.017,-0.031 0.029,-0.043 0.012,-0.012 0.027,-0.022 0.043,-0.029 0.017,-0.008 0.034,-0.011 0.053,-0.011 0.018,0 0.034,0.003 0.047,0.008 0.013,0.006 0.025,0.013 0.037,0.022 0.012,0.009 0.023,0.018 0.035,0.028 0.011,0.01 0.023,0.019 0.037,0.028 0.014,0.009 0.03,0.016 0.048,0.022 0.017,0.006 0.039,0.009 0.063,0.009 0.032,0 0.062,-0.006 0.088,-0.018 0.027,-0.011 0.051,-0.027 0.071,-0.047 0.02,-0.02 0.036,-0.044 0.048,-0.071 0.012,-0.027 0.019,-0.056 0.021,-0.087 0.001,-0.004 0.001,-0.009 0.001,-0.013 V -0.458 L 0.756,-0.526 c 0,-0.035 0.006,-0.068 0.02,-0.098 C 0.789,-0.655 0.808,-0.682 0.833,-0.706 0.822,-0.709 0.812,-0.714 0.802,-0.72 0.793,-0.727 0.785,-0.734 0.778,-0.743 0.771,-0.752 0.766,-0.762 0.762,-0.773 0.758,-0.784 0.756,-0.795 0.756,-0.807 c 0,-0.014 0.003,-0.028 0.009,-0.041 0.005,-0.013 0.013,-0.024 0.022,-0.034 0.01,-0.009 0.021,-0.017 0.034,-0.022 0.012,-0.006 0.026,-0.009 0.04,-0.009 0.026,0 0.05,0.004 0.074,0.012 0.023,0.007 0.045,0.018 0.065,0.031 0.02,0.014 0.038,0.031 0.053,0.05 0.016,0.019 0.028,0.041 0.037,0.065 0.024,0.009 0.046,0.021 0.065,0.036 0.019,0.016 0.036,0.034 0.05,0.054 0.013,0.02 0.024,0.042 0.031,0.065 0.008,0.024 0.012,0.048 0.012,0.074 v 0.157 c 0,0.054 -0.007,0.105 -0.021,0.154 C 1.213,-0.166 1.194,-0.12 1.168,-0.077 1.143,-0.034 1.113,0.005 1.078,0.041 1.043,0.076 1.003,0.106 0.96,0.131 0.917,0.156 0.871,0.176 0.822,0.19 0.773,0.204 0.722,0.21 0.668,0.21 Z"
         style="fill-rule:nonzero"
         id="path9880" /><path
         d="m 1.002,-0.667 0.176,0.176 v 0.122 c 0,0.047 -0.006,0.092 -0.018,0.136 C 1.148,-0.19 1.131,-0.15 1.108,-0.112 1.086,-0.074 1.06,-0.04 1.029,-0.009 0.998,0.022 0.964,0.049 0.926,0.071 0.888,0.093 0.847,0.11 0.804,0.122 0.761,0.134 0.716,0.14 0.669,0.14 0.618,0.14 0.57,0.133 0.525,0.12 0.479,0.106 0.437,0.087 0.397,0.062 0.358,0.037 0.323,0.007 0.291,-0.029 0.26,-0.065 0.232,-0.105 0.21,-0.15 0.207,-0.156 0.204,-0.162 0.201,-0.17 0.197,-0.177 0.196,-0.184 0.196,-0.191 c 0,-0.009 0.002,-0.018 0.005,-0.026 0.003,-0.008 0.008,-0.015 0.014,-0.021 0.006,-0.006 0.013,-0.011 0.021,-0.014 0.008,-0.004 0.016,-0.005 0.026,-0.005 0.01,0 0.019,0.001 0.026,0.005 0.006,0.003 0.014,0.008 0.021,0.015 0.003,0.003 0.006,0.006 0.008,0.008 l 0.014,0.013 c 0.002,0.002 0.005,0.005 0.009,0.008 0.028,0.022 0.058,0.039 0.088,0.051 0.031,0.011 0.064,0.016 0.101,0.016 0.041,0 0.079,-0.007 0.116,-0.023 0.036,-0.016 0.068,-0.037 0.095,-0.064 0.026,-0.027 0.048,-0.059 0.063,-0.095 0.016,-0.036 0.024,-0.075 0.024,-0.116 v -0.053 z"
         style="fill:#f03a17;fill-rule:nonzero"
         id="path9882" /><path
         d="m 1.034,-0.699 c 0.021,0.004 0.04,0.011 0.057,0.022 0.018,0.011 0.033,0.024 0.046,0.039 0.012,0.015 0.022,0.032 0.03,0.052 0.007,0.019 0.01,0.039 0.01,0.06 v 0.035 H 1.166 C 1.16,-0.491 1.154,-0.492 1.149,-0.493 1.144,-0.494 1.139,-0.497 1.135,-0.501 L 1.073,-0.562 1.002,-0.491 0.932,-0.562 0.87,-0.501 C 0.865,-0.497 0.861,-0.494 0.856,-0.493 0.852,-0.491 0.847,-0.491 0.841,-0.491 H 0.827 v -0.035 c 0,-0.021 0.003,-0.04 0.01,-0.059 C 0.843,-0.604 0.853,-0.62 0.865,-0.635 0.877,-0.651 0.891,-0.664 0.908,-0.674 0.924,-0.685 0.943,-0.693 0.962,-0.697 0.959,-0.708 0.954,-0.718 0.947,-0.728 0.941,-0.737 0.933,-0.745 0.924,-0.751 0.916,-0.758 0.906,-0.763 0.895,-0.767 0.885,-0.77 0.874,-0.772 0.862,-0.772 c -0.01,0 -0.018,-0.003 -0.025,-0.01 -0.007,-0.007 -0.01,-0.016 -0.01,-0.025 0,-0.01 0.003,-0.018 0.01,-0.025 0.007,-0.007 0.015,-0.01 0.025,-0.01 0.021,0 0.041,0.003 0.06,0.01 0.019,0.008 0.036,0.018 0.052,0.03 0.015,0.013 0.028,0.028 0.038,0.046 0.011,0.017 0.018,0.036 0.022,0.057 z"
         style="fill:#13a10e;fill-rule:nonzero"
         id="path9884" /><path
         d="m 0.686,-0.032 c -0.01,0 -0.019,-0.003 -0.025,-0.01 C 0.654,-0.049 0.65,-0.058 0.65,-0.067 c 0,-0.008 0.003,-0.015 0.008,-0.021 0.006,-0.005 0.012,-0.01 0.02,-0.015 0.007,-0.004 0.015,-0.008 0.023,-0.012 0.008,-0.003 0.015,-0.007 0.021,-0.01 0.036,-0.023 0.066,-0.05 0.092,-0.082 C 0.84,-0.238 0.86,-0.274 0.875,-0.313 0.877,-0.32 0.879,-0.327 0.881,-0.335 0.882,-0.342 0.885,-0.349 0.887,-0.356 0.89,-0.365 0.894,-0.371 0.9,-0.376 c 0.005,-0.005 0.013,-0.008 0.021,-0.008 0.01,0 0.019,0.004 0.026,0.011 0.007,0.007 0.01,0.015 0.01,0.025 0,0.001 0,0.004 -0.001,0.007 -0.008,0.034 -0.02,0.067 -0.036,0.098 -0.016,0.031 -0.034,0.059 -0.056,0.086 -0.022,0.026 -0.047,0.05 -0.074,0.071 -0.028,0.02 -0.058,0.038 -0.091,0.051 -0.004,0.002 -0.009,0.003 -0.013,0.003 z"
         style="fill:#ef6950;fill-rule:nonzero"
         id="path9886" /></g></g></svg>
