<?xml version="1.0" encoding="UTF-8" standalone="no"?>
<svg
   width="16.844999"
   height="16.83"
   viewBox="0 0 16.844999 16.83"
   version="1.1"
   xml:space="preserve"
   style="clip-rule:evenodd;fill-rule:evenodd;stroke-linejoin:round;stroke-miterlimit:2"
   id="svg20568"
   sodipodi:docname="emojis.svg"
   xmlns:inkscape="http://www.inkscape.org/namespaces/inkscape"
   xmlns:sodipodi="http://sodipodi.sourceforge.net/DTD/sodipodi-0.dtd"
   xmlns="http://www.w3.org/2000/svg"
   xmlns:svg="http://www.w3.org/2000/svg"><defs
     id="defs20572" /><sodipodi:namedview
     id="namedview20570"
     pagecolor="#505050"
     bordercolor="#eeeeee"
     borderopacity="1"
     inkscape:pageshadow="0"
     inkscape:pageopacity="0"
     inkscape:pagecheckerboard="0" /><g
     transform="matrix(0.24,0,0,0.24,-501.747,-495.18)"
     id="g20566"><g
       transform="matrix(62.5,0,0,62.5,2082.8,2120.25)"
       id="g9912"><path
         d="M 0.388,0.21 C 0.352,0.21 0.317,0.204 0.285,0.19 0.253,0.176 0.225,0.157 0.202,0.133 0.178,0.109 0.159,0.081 0.146,0.049 0.132,0.017 0.125,-0.017 0.125,-0.054 c 0,-0.037 0.008,-0.073 0.023,-0.107 0.015,-0.034 0.037,-0.063 0.065,-0.088 L 0.48,-0.486 C 0.482,-0.493 0.484,-0.5 0.486,-0.507 0.489,-0.513 0.492,-0.52 0.495,-0.526 0.482,-0.549 0.476,-0.572 0.476,-0.597 c 0,-0.019 0.003,-0.037 0.011,-0.054 0.007,-0.017 0.017,-0.032 0.03,-0.045 0.012,-0.012 0.027,-0.023 0.044,-0.03 0.017,-0.007 0.036,-0.011 0.055,-0.011 0,-0.019 0.003,-0.038 0.011,-0.055 0.007,-0.017 0.018,-0.032 0.03,-0.044 0.013,-0.013 0.028,-0.023 0.045,-0.03 0.017,-0.008 0.035,-0.011 0.054,-0.011 0.023,0 0.045,0.005 0.066,0.016 0.008,-0.008 0.016,-0.015 0.024,-0.021 0.008,-0.006 0.016,-0.012 0.025,-0.016 0.008,-0.005 0.018,-0.008 0.027,-0.01 0.01,-0.003 0.021,-0.004 0.033,-0.004 0.013,0 0.025,0.002 0.037,0.005 0.012,0.003 0.024,0.008 0.034,0.014 0.011,0.006 0.021,0.014 0.029,0.023 0.009,0.009 0.017,0.019 0.023,0.03 0.016,0.002 0.031,0.006 0.045,0.013 0.014,0.007 0.027,0.016 0.037,0.027 0.011,0.01 0.02,0.023 0.027,0.037 0.007,0.014 0.012,0.029 0.014,0.045 0.022,0.012 0.04,0.029 0.052,0.051 0.013,0.022 0.019,0.046 0.019,0.071 0,0.023 -0.005,0.044 -0.014,0.061 -0.009,0.017 -0.021,0.033 -0.038,0.049 0.011,0.021 0.017,0.043 0.017,0.066 0,0.019 -0.004,0.037 -0.011,0.054 -0.008,0.017 -0.018,0.032 -0.031,0.044 -0.012,0.013 -0.027,0.023 -0.044,0.03 -0.017,0.008 -0.035,0.011 -0.054,0.011 0,0.02 -0.004,0.038 -0.011,0.055 -0.008,0.017 -0.018,0.032 -0.031,0.044 -0.012,0.013 -0.027,0.023 -0.044,0.03 -0.018,0.008 -0.036,0.011 -0.054,0.011 -0.025,0 -0.049,-0.006 -0.071,-0.019 -0.007,0.003 -0.013,0.007 -0.02,0.009 -0.006,0.003 -0.013,0.005 -0.02,0.007 L 0.585,0.122 C 0.56,0.15 0.53,0.172 0.496,0.187 0.462,0.203 0.426,0.21 0.388,0.21 Z"
         style="fill-rule:nonzero"
         id="path9902" /><path
         d="m 0.921,-0.576 0.004,0.004 c 0.005,0.007 0.011,0.013 0.016,0.02 0.005,0.007 0.01,0.014 0.016,0.021 0.001,0.003 0.003,0.006 0.004,0.011 0.001,0.005 0.002,0.011 0.003,0.017 0.001,0.005 0.002,0.011 0.003,0.017 0,0.005 0,0.009 0,0.012 0,0.02 -0.003,0.038 -0.01,0.056 C 0.95,-0.4 0.94,-0.383 0.928,-0.369 L 0.532,0.075 C 0.514,0.096 0.492,0.112 0.467,0.123 0.443,0.135 0.416,0.14 0.388,0.14 0.37,0.14 0.354,0.138 0.337,0.134 0.32,0.129 0.305,0.123 0.29,0.114 L 0.257,0.07 0.273,0.048 C 0.277,0.042 0.281,0.036 0.285,0.03 L 0.307,0 c 0.002,-0.004 0.004,-0.006 0.004,-0.006 z"
         style="fill:#16c60c;fill-rule:nonzero"
         id="path9904" /><path
         d="M 0.912,-0.586 0.521,-0.164 C 0.496,-0.138 0.472,-0.112 0.448,-0.086 0.424,-0.061 0.399,-0.036 0.375,-0.01 0.37,-0.006 0.366,-0.001 0.363,0.004 0.359,0.008 0.354,0.013 0.349,0.016 0.337,0.025 0.324,0.033 0.311,0.041 0.297,0.048 0.284,0.056 0.271,0.064 0.273,0.073 0.276,0.081 0.28,0.09 0.283,0.098 0.287,0.106 0.292,0.114 0.276,0.105 0.263,0.095 0.251,0.083 0.239,0.071 0.229,0.058 0.221,0.043 0.213,0.029 0.206,0.014 0.202,-0.002 0.198,-0.019 0.195,-0.035 0.195,-0.053 c 0,-0.028 0.006,-0.055 0.017,-0.079 0.011,-0.025 0.027,-0.046 0.048,-0.065 l 0.445,-0.395 c 0.014,-0.013 0.031,-0.023 0.049,-0.03 0.018,-0.006 0.036,-0.01 0.056,-0.01 0.004,0 0.011,0.002 0.021,0.006 0.009,0.004 0.018,0.008 0.029,0.013 0.01,0.005 0.02,0.011 0.029,0.016 0.01,0.005 0.017,0.008 0.023,0.011 z"
         style="fill:#e5e5e5;fill-rule:nonzero"
         id="path9906" /><path
         d="m 1.178,-0.597 c 0,0.01 -10e-4,0.018 -0.005,0.025 -0.003,0.008 -0.007,0.014 -0.012,0.02 -0.005,0.007 -0.01,0.012 -0.016,0.017 -0.006,0.006 -0.011,0.01 -0.016,0.015 -0.005,0.005 -0.009,0.009 -0.012,0.014 -0.004,0.005 -0.005,0.009 -0.005,0.014 0,0.005 10e-4,0.009 0.005,0.013 0.003,0.005 0.006,0.009 0.01,0.015 0.004,0.005 0.007,0.011 0.011,0.018 0.003,0.007 0.005,0.015 0.005,0.025 0,0.01 -0.002,0.019 -0.006,0.027 C 1.133,-0.385 1.128,-0.378 1.122,-0.372 1.115,-0.365 1.108,-0.361 1.1,-0.357 1.091,-0.353 1.082,-0.352 1.073,-0.352 1.062,-0.352 1.054,-0.353 1.047,-0.356 1.04,-0.36 1.035,-0.363 1.03,-0.367 1.025,-0.371 1.02,-0.374 1.016,-0.377 1.012,-0.381 1.007,-0.382 1.002,-0.382 c -0.004,0 -0.007,0.001 -0.011,0.003 -0.003,0.002 -0.007,0.004 -0.01,0.007 -0.002,0.003 -0.005,0.006 -0.007,0.01 -0.001,0.004 -0.002,0.007 -0.002,0.011 0,0.005 0.001,0.009 0.004,0.014 0.003,0.004 0.007,0.009 0.011,0.014 0.004,0.005 0.007,0.011 0.01,0.018 C 1,-0.298 1.002,-0.29 1.002,-0.28 1.002,-0.271 1,-0.261 0.996,-0.253 0.993,-0.245 0.988,-0.238 0.981,-0.231 0.975,-0.225 0.967,-0.22 0.959,-0.216 0.951,-0.213 0.942,-0.211 0.932,-0.211 0.922,-0.211 0.913,-0.213 0.906,-0.216 0.9,-0.219 0.894,-0.223 0.889,-0.226 0.884,-0.23 0.88,-0.234 0.876,-0.237 0.872,-0.24 0.867,-0.242 0.862,-0.242 0.857,-0.242 0.852,-0.24 0.848,-0.237 0.844,-0.234 0.839,-0.23 0.833,-0.226 0.828,-0.222 0.822,-0.219 0.815,-0.215 0.808,-0.212 0.8,-0.21 0.79,-0.21 0.781,-0.21 0.772,-0.212 0.763,-0.216 0.755,-0.22 0.748,-0.226 0.742,-0.232 0.736,-0.239 0.731,-0.246 0.727,-0.255 0.723,-0.263 0.722,-0.272 0.722,-0.281 c 0,-0.009 0.001,-0.016 0.003,-0.022 0.002,-0.007 0.005,-0.013 0.009,-0.018 0.004,-0.005 0.008,-0.01 0.013,-0.015 0.005,-0.005 0.01,-0.01 0.016,-0.016 L 0.686,-0.428 C 0.681,-0.423 0.675,-0.417 0.67,-0.413 0.666,-0.408 0.66,-0.403 0.655,-0.4 0.65,-0.396 0.644,-0.393 0.638,-0.391 0.632,-0.388 0.624,-0.387 0.616,-0.387 0.606,-0.387 0.597,-0.389 0.589,-0.393 0.58,-0.396 0.573,-0.401 0.567,-0.407 0.561,-0.413 0.556,-0.421 0.552,-0.429 0.549,-0.437 0.547,-0.446 0.547,-0.456 c 0,-0.01 0.001,-0.019 0.005,-0.026 0.003,-0.007 0.006,-0.013 0.01,-0.018 0.003,-0.005 0.006,-0.01 0.01,-0.014 0.003,-0.004 0.004,-0.009 0.004,-0.014 0,-0.005 -0.001,-0.009 -0.004,-0.013 C 0.568,-0.545 0.565,-0.55 0.561,-0.555 0.557,-0.56 0.554,-0.565 0.551,-0.572 0.547,-0.579 0.546,-0.587 0.546,-0.598 c 0,-0.009 0.002,-0.018 0.005,-0.027 0.004,-0.008 0.009,-0.015 0.015,-0.022 0.006,-0.006 0.013,-0.011 0.022,-0.015 0.008,-0.004 0.017,-0.005 0.027,-0.005 0.01,0 0.018,0.001 0.025,0.004 0.006,0.003 0.013,0.007 0.018,0.011 0.005,0.004 0.01,0.007 0.014,0.01 0.005,0.003 0.009,0.005 0.014,0.005 0.004,0 0.007,-0.001 0.011,-0.003 0.004,-0.002 0.007,-0.004 0.01,-0.007 0.003,-0.003 0.005,-0.006 0.007,-0.01 0.002,-0.003 0.003,-0.007 0.003,-0.01 0,-0.006 -0.002,-0.01 -0.005,-0.015 C 0.709,-0.686 0.705,-0.69 0.701,-0.695 0.698,-0.7 0.694,-0.706 0.691,-0.713 0.688,-0.719 0.686,-0.728 0.686,-0.738 c 0,-0.01 0.002,-0.019 0.005,-0.027 0.004,-0.009 0.009,-0.016 0.015,-0.022 0.007,-0.007 0.014,-0.012 0.022,-0.015 0.009,-0.004 0.018,-0.006 0.027,-0.006 0.01,0 0.019,0.002 0.026,0.005 0.007,0.003 0.013,0.007 0.018,0.01 0.005,0.004 0.01,0.008 0.014,0.011 0.004,0.003 0.009,0.005 0.013,0.005 0.008,0 0.015,-0.004 0.021,-0.011 0.007,-0.006 0.014,-0.014 0.022,-0.022 0.008,-0.009 0.017,-0.016 0.027,-0.023 0.01,-0.007 0.022,-0.01 0.036,-0.01 0.009,0 0.018,0.002 0.027,0.005 0.008,0.004 0.015,0.009 0.022,0.015 0.006,0.006 0.011,0.014 0.015,0.022 0.003,0.008 0.005,0.017 0.005,0.027 0,0.002 0,0.005 0,0.007 0,0.002 -10e-4,0.004 -10e-4,0.006 0.011,-0.007 0.024,-0.011 0.038,-0.011 0.009,0 0.018,0.002 0.027,0.006 0.008,0.003 0.016,0.008 0.022,0.015 0.007,0.006 0.011,0.014 0.015,0.022 0.004,0.008 0.005,0.018 0.005,0.027 0,0.013 -0.003,0.025 -0.009,0.036 0.002,0 0.003,0 0.005,0 0.002,0 0.004,-0.001 0.006,-0.001 0.009,0 0.018,0.002 0.027,0.006 0.008,0.003 0.016,0.008 0.022,0.015 0.006,0.006 0.011,0.014 0.015,0.022 0.003,0.008 0.005,0.018 0.005,0.027 z"
         style="fill:#13a10e;fill-rule:nonzero"
         id="path9908" /><path
         d="m 0.971,-0.562 h 0.084 c 0.005,0 0.009,0.002 0.012,0.006 0.004,0.003 0.006,0.007 0.006,0.012 0,0.005 -0.002,0.009 -0.006,0.012 -0.003,0.004 -0.007,0.006 -0.012,0.006 H 0.936 l -0.044,0.044 h 0.084 c 0.007,0 0.013,0.002 0.019,0.007 C 1,-0.47 1.002,-0.464 1.002,-0.457 1.002,-0.449 1,-0.443 0.995,-0.438 0.99,-0.433 0.984,-0.43 0.976,-0.43 H 0.839 l -0.044,0.044 h 0.067 c 0.01,0 0.018,0.003 0.025,0.01 0.007,0.007 0.01,0.015 0.01,0.025 0,0.01 -0.003,0.018 -0.01,0.025 -0.007,0.007 -0.015,0.01 -0.025,0.01 H 0.731 c -0.006,0.011 -0.009,0.023 -0.009,0.035 v 0.005 L 0.462,0.005 C 0.443,0.026 0.421,0.042 0.397,0.053 0.373,0.065 0.347,0.07 0.318,0.07 0.302,0.07 0.286,0.068 0.271,0.064 0.267,0.049 0.265,0.034 0.265,0.018 c 0,-0.029 0.006,-0.056 0.017,-0.08 0.011,-0.024 0.027,-0.046 0.048,-0.065 l 0.282,-0.26 h 0.005 c 0.012,0 0.024,-0.003 0.034,-0.009 v -0.13 c 0,-0.01 0.004,-0.018 0.011,-0.025 0.006,-0.007 0.015,-0.011 0.025,-0.011 0.009,0 0.018,0.004 0.024,0.011 0.007,0.007 0.011,0.015 0.011,0.025 v 0.065 l 0.044,-0.044 v -0.136 c 0,-0.007 0.002,-0.013 0.007,-0.018 0.005,-0.005 0.012,-0.008 0.019,-0.008 0.007,0 0.014,0.003 0.019,0.008 0.004,0.005 0.007,0.011 0.007,0.018 v 0.083 L 0.862,-0.602 V -0.72 c 0,-0.004 0.002,-0.008 0.005,-0.012 0.004,-0.004 0.008,-0.005 0.012,-0.005 0.005,0 0.009,0.001 0.013,0.005 0.003,0.004 0.005,0.008 0.005,0.012 v 0.083 l 0.051,-0.05 c 0.005,-0.005 0.01,-0.009 0.017,-0.011 0.006,-0.003 0.013,-0.004 0.02,-0.004 0.007,0 0.014,0.001 0.02,0.004 0.006,0.003 0.012,0.007 0.017,0.011 0.004,0.005 0.008,0.01 0.011,0.017 0.003,0.006 0.004,0.013 0.004,0.02 0,0.007 -10e-4,0.014 -0.004,0.02 -0.002,0.007 -0.006,0.012 -0.011,0.017 z"
         style="fill:#79db75;fill-rule:nonzero"
         id="path9910" /></g></g></svg>
