<?xml version="1.0" encoding="UTF-8" standalone="no"?>
<svg
   width="16.844999"
   height="16.844999"
   viewBox="0 0 16.844999 16.844999"
   version="1.1"
   xml:space="preserve"
   style="clip-rule:evenodd;fill-rule:evenodd;stroke-linejoin:round;stroke-miterlimit:2"
   id="svg20568"
   sodipodi:docname="emojis.svg"
   xmlns:inkscape="http://www.inkscape.org/namespaces/inkscape"
   xmlns:sodipodi="http://sodipodi.sourceforge.net/DTD/sodipodi-0.dtd"
   xmlns="http://www.w3.org/2000/svg"
   xmlns:svg="http://www.w3.org/2000/svg"><defs
     id="defs20572" /><sodipodi:namedview
     id="namedview20570"
     pagecolor="#505050"
     bordercolor="#eeeeee"
     borderopacity="1"
     inkscape:pageshadow="0"
     inkscape:pageopacity="0"
     inkscape:pagecheckerboard="0" /><g
     transform="matrix(0.24,0,0,0.24,-239.76636,-110.71908)"
     id="g20566"><g
       transform="matrix(62.5,0,0,62.5,991.214,518.392)"
       id="g994"><path
         d="m 1.248,-0.351 c 0,0.052 -0.007,0.101 -0.02,0.149 C 1.215,-0.154 1.196,-0.109 1.171,-0.068 1.147,-0.026 1.118,0.012 1.083,0.046 1.049,0.08 1.011,0.109 0.97,0.134 0.928,0.158 0.884,0.177 0.836,0.19 0.788,0.204 0.738,0.21 0.687,0.21 0.635,0.21 0.585,0.204 0.537,0.19 0.489,0.177 0.445,0.158 0.403,0.134 0.362,0.109 0.324,0.08 0.29,0.046 0.255,0.012 0.226,-0.026 0.202,-0.068 0.177,-0.109 0.158,-0.154 0.145,-0.202 0.132,-0.25 0.125,-0.299 0.125,-0.351 c 0,-0.052 0.007,-0.102 0.02,-0.149 0.013,-0.048 0.032,-0.093 0.057,-0.135 0.024,-0.041 0.053,-0.079 0.088,-0.113 0.034,-0.034 0.072,-0.064 0.113,-0.088 0.042,-0.024 0.086,-0.043 0.134,-0.057 0.048,-0.013 0.098,-0.02 0.15,-0.02 0.051,0 0.101,0.007 0.149,0.02 0.048,0.014 0.092,0.033 0.134,0.057 0.041,0.024 0.079,0.054 0.113,0.088 0.035,0.034 0.064,0.072 0.088,0.113 0.025,0.042 0.044,0.087 0.057,0.135 0.013,0.047 0.02,0.097 0.02,0.149 z"
         style="fill-rule:nonzero"
         id="path986" /><path
         d="m 1.178,-0.351 c 0,0.045 -0.006,0.089 -0.018,0.131 -0.012,0.041 -0.028,0.081 -0.049,0.117 -0.022,0.036 -0.047,0.07 -0.077,0.099 C 1.004,0.026 0.971,0.052 0.935,0.073 0.898,0.094 0.859,0.111 0.817,0.123 0.775,0.134 0.732,0.14 0.687,0.14 0.641,0.14 0.598,0.134 0.556,0.123 0.514,0.111 0.475,0.094 0.438,0.073 0.402,0.052 0.369,0.026 0.339,-0.004 0.309,-0.033 0.284,-0.067 0.262,-0.103 0.241,-0.139 0.225,-0.179 0.213,-0.22 0.201,-0.262 0.195,-0.306 0.195,-0.351 c 0,-0.045 0.006,-0.089 0.018,-0.131 0.012,-0.042 0.028,-0.081 0.049,-0.117 0.022,-0.037 0.047,-0.07 0.077,-0.099 0.03,-0.03 0.063,-0.056 0.099,-0.077 0.037,-0.021 0.076,-0.038 0.118,-0.05 0.042,-0.011 0.085,-0.017 0.131,-0.017 0.045,0 0.088,0.006 0.13,0.017 0.042,0.012 0.081,0.029 0.118,0.05 0.036,0.021 0.069,0.047 0.099,0.077 0.03,0.029 0.055,0.062 0.077,0.099 0.021,0.036 0.037,0.075 0.049,0.117 0.012,0.042 0.018,0.086 0.018,0.131 z"
         style="fill:#ffc83d;fill-rule:nonzero"
         id="path988" /><path
         d="m 0.476,-0.088 c 0,-0.007 0.001,-0.013 0.004,-0.017 0.003,-0.004 0.007,-0.008 0.012,-0.013 0.011,-0.009 0.024,-0.018 0.041,-0.025 0.016,-0.007 0.033,-0.013 0.051,-0.018 0.018,-0.005 0.036,-0.009 0.054,-0.011 0.018,-0.002 0.034,-0.003 0.049,-0.003 0.014,0 0.03,0.001 0.048,0.003 0.018,0.002 0.036,0.006 0.054,0.011 0.018,0.005 0.035,0.011 0.051,0.018 0.016,0.007 0.03,0.016 0.041,0.025 0.005,0.005 0.009,0.009 0.012,0.013 0.003,0.004 0.004,0.01 0.004,0.017 0,0.009 -0.003,0.018 -0.01,0.025 -0.007,0.006 -0.015,0.01 -0.025,0.01 -0.004,0 -0.007,-0.001 -0.01,-0.002 C 0.849,-0.056 0.846,-0.057 0.842,-0.059 L 0.835,-0.063 C 0.822,-0.069 0.81,-0.075 0.799,-0.081 0.788,-0.086 0.776,-0.09 0.765,-0.094 0.753,-0.098 0.741,-0.101 0.729,-0.103 0.716,-0.104 0.702,-0.105 0.687,-0.105 c -0.017,0 -0.032,0.001 -0.045,0.003 -0.013,0.002 -0.025,0.005 -0.037,0.01 -0.011,0.004 -0.023,0.009 -0.035,0.014 -0.011,0.006 -0.025,0.012 -0.039,0.019 -0.003,0.002 -0.007,0.003 -0.01,0.004 -0.003,0.001 -0.006,0.002 -0.01,0.002 -0.009,0 -0.017,-0.004 -0.024,-0.011 C 0.48,-0.071 0.476,-0.079 0.476,-0.088 Z m 0.14,-0.298 c 0,0.014 -0.003,0.028 -0.008,0.041 -0.006,0.012 -0.013,0.024 -0.023,0.033 -0.009,0.01 -0.02,0.017 -0.033,0.023 -0.012,0.005 -0.026,0.008 -0.041,0.008 H 0.476 C 0.461,-0.281 0.448,-0.284 0.435,-0.289 0.422,-0.295 0.411,-0.302 0.402,-0.312 0.392,-0.321 0.384,-0.333 0.379,-0.345 0.373,-0.358 0.371,-0.372 0.371,-0.386 h 0.035 c 0,0.01 0.003,0.018 0.01,0.025 0.007,0.007 0.015,0.01 0.025,0.01 h 0.105 c 0.01,0 0.018,-0.003 0.025,-0.01 0.007,-0.007 0.01,-0.015 0.01,-0.025 z m 0.351,0 h 0.035 c 0,0.014 -0.002,0.028 -0.008,0.041 -0.005,0.012 -0.013,0.024 -0.023,0.033 -0.009,0.01 -0.02,0.017 -0.033,0.023 -0.013,0.005 -0.026,0.008 -0.041,0.008 H 0.862 C 0.847,-0.281 0.833,-0.284 0.821,-0.289 0.808,-0.295 0.797,-0.302 0.788,-0.312 0.778,-0.321 0.771,-0.333 0.765,-0.345 0.76,-0.358 0.757,-0.372 0.757,-0.386 h 0.035 c 0,0.009 0.003,0.017 0.01,0.024 0.007,0.007 0.015,0.011 0.025,0.011 h 0.105 c 0.01,0 0.018,-0.003 0.025,-0.01 0.007,-0.007 0.01,-0.015 0.01,-0.025 z"
         style="fill-rule:nonzero"
         id="path990" /><path
         d="m 0.406,-0.491 c 0,-0.01 0.003,-0.018 0.01,-0.025 l 0.141,-0.141 c 0.006,-0.007 0.015,-0.01 0.024,-0.01 0.009,0 0.018,0.004 0.025,0.011 0.007,0.007 0.01,0.015 0.01,0.024 0,0.01 -0.003,0.018 -0.01,0.025 l -0.14,0.14 c -0.007,0.007 -0.015,0.01 -0.025,0.01 -0.01,0 -0.018,-0.003 -0.025,-0.01 -0.007,-0.007 -0.01,-0.015 -0.01,-0.024 z m 0.386,-0.176 c 0.009,0 0.018,0.003 0.024,0.01 l 0.141,0.141 c 0.007,0.007 0.01,0.015 0.01,0.025 0,0.009 -0.003,0.017 -0.01,0.024 -0.007,0.007 -0.015,0.01 -0.025,0.01 -0.01,0 -0.018,-0.003 -0.025,-0.01 l -0.14,-0.14 c -0.007,-0.007 -0.01,-0.015 -0.01,-0.025 0,-0.009 0.003,-0.017 0.01,-0.024 0.007,-0.007 0.015,-0.011 0.025,-0.011 z"
         style="fill:#d48c00;fill-rule:nonzero"
         id="path992" /></g></g></svg>
