<?xml version="1.0" encoding="UTF-8" standalone="no"?>
<svg
   width="16.32"
   height="16.844999"
   viewBox="0 0 16.32 16.844999"
   version="1.1"
   xml:space="preserve"
   style="clip-rule:evenodd;fill-rule:evenodd;stroke-linejoin:round;stroke-miterlimit:2"
   id="svg20568"
   sodipodi:docname="emojis.svg"
   xmlns:inkscape="http://www.inkscape.org/namespaces/inkscape"
   xmlns:sodipodi="http://sodipodi.sourceforge.net/DTD/sodipodi-0.dtd"
   xmlns="http://www.w3.org/2000/svg"
   xmlns:svg="http://www.w3.org/2000/svg"><defs
     id="defs20572" /><sodipodi:namedview
     id="namedview20570"
     pagecolor="#505050"
     bordercolor="#eeeeee"
     borderopacity="1"
     inkscape:pageshadow="0"
     inkscape:pageopacity="0"
     inkscape:pagecheckerboard="0" /><g
     transform="matrix(0.24,0,0,0.24,-560.9046,-495.165)"
     id="g20566"><g
       transform="matrix(62.5,0,0,62.5,2329.29,2120.25)"
       id="g9950"><path
         d="M 0.81,0.21 C 0.789,0.21 0.77,0.206 0.752,0.196 0.738,0.206 0.722,0.21 0.704,0.21 0.698,0.21 0.692,0.21 0.686,0.208 0.68,0.207 0.674,0.205 0.669,0.203 0.663,0.205 0.658,0.207 0.652,0.208 0.646,0.21 0.64,0.21 0.634,0.21 0.616,0.21 0.6,0.206 0.586,0.196 0.568,0.206 0.549,0.21 0.529,0.21 0.516,0.21 0.504,0.208 0.493,0.203 0.482,0.198 0.473,0.192 0.465,0.183 0.458,0.175 0.451,0.165 0.447,0.154 0.443,0.143 0.441,0.131 0.441,0.119 0.394,0.104 0.352,0.082 0.313,0.053 0.274,0.025 0.241,-0.009 0.213,-0.047 0.185,-0.085 0.164,-0.127 0.148,-0.172 0.133,-0.218 0.125,-0.265 0.125,-0.314 c 0,-0.044 0.006,-0.087 0.019,-0.129 0.012,-0.042 0.03,-0.081 0.054,-0.117 0.023,-0.036 0.051,-0.069 0.083,-0.097 0.033,-0.029 0.07,-0.053 0.11,-0.071 l 0.12,-0.054 v -0.131 h 0.316 v 0.131 l 0.119,0.054 c 0.041,0.019 0.077,0.042 0.11,0.071 0.033,0.028 0.061,0.061 0.084,0.097 0.024,0.036 0.042,0.075 0.054,0.116 0.013,0.042 0.019,0.085 0.019,0.13 0,0.049 -0.008,0.096 -0.023,0.142 -0.016,0.045 -0.037,0.087 -0.065,0.125 -0.028,0.038 -0.061,0.072 -0.1,0.1 C 0.986,0.082 0.944,0.104 0.897,0.119 0.897,0.131 0.895,0.143 0.891,0.154 0.886,0.165 0.88,0.175 0.873,0.183 0.865,0.192 0.856,0.198 0.845,0.203 0.834,0.208 0.823,0.21 0.81,0.21 Z"
         style="fill-rule:nonzero"
         id="path9938" /><path
         d="M 0.529,0.14 C 0.524,0.14 0.52,0.138 0.516,0.135 0.513,0.132 0.511,0.127 0.511,0.123 0.511,0.116 0.513,0.112 0.517,0.11 0.52,0.108 0.524,0.106 0.529,0.105 0.533,0.104 0.537,0.102 0.541,0.1 0.544,0.098 0.546,0.094 0.546,0.087 V 0.018 C 0.546,0.013 0.548,0.009 0.551,0.005 0.555,0.002 0.559,0 0.563,0 0.568,0 0.573,0.002 0.576,0.005 0.579,0.009 0.581,0.013 0.581,0.018 V 0.087 C 0.581,0.095 0.58,0.101 0.577,0.108 0.574,0.114 0.57,0.12 0.566,0.125 0.561,0.129 0.556,0.133 0.549,0.136 0.543,0.139 0.536,0.14 0.529,0.14 Z m 0.281,0 C 0.802,0.14 0.795,0.139 0.789,0.136 0.782,0.133 0.777,0.129 0.772,0.125 0.767,0.12 0.764,0.115 0.761,0.108 0.758,0.102 0.757,0.095 0.757,0.087 V 0.018 C 0.757,0.013 0.759,0.009 0.762,0.005 0.765,0.002 0.77,0 0.774,0 0.779,0 0.783,0.002 0.787,0.005 0.79,0.009 0.792,0.013 0.792,0.018 v 0.069 c 0,0.007 0.002,0.011 0.005,0.013 0.004,0.002 0.008,0.004 0.012,0.005 0.005,0.001 0.009,0.003 0.012,0.005 0.004,0.002 0.006,0.006 0.006,0.013 0,0.004 -0.002,0.008 -0.005,0.012 C 0.818,0.138 0.814,0.14 0.81,0.14 Z m -0.176,0 C 0.629,0.14 0.625,0.138 0.621,0.135 0.618,0.132 0.616,0.127 0.616,0.123 V 0.052 C 0.616,0.048 0.618,0.044 0.622,0.04 0.625,0.036 0.629,0.035 0.634,0.035 0.638,0.035 0.642,0.036 0.646,0.04 0.65,0.044 0.651,0.048 0.651,0.052 V 0.123 C 0.651,0.127 0.65,0.132 0.646,0.135 0.643,0.138 0.639,0.14 0.634,0.14 Z m 0.07,0 C 0.699,0.14 0.695,0.138 0.692,0.135 0.688,0.132 0.687,0.127 0.687,0.123 V 0.052 C 0.687,0.048 0.688,0.044 0.692,0.04 0.695,0.036 0.7,0.035 0.704,0.035 0.709,0.035 0.713,0.036 0.716,0.04 0.72,0.044 0.722,0.048 0.722,0.052 V 0.123 C 0.722,0.127 0.72,0.132 0.717,0.135 0.713,0.138 0.709,0.14 0.704,0.14 Z"
         style="fill:#d8b094;fill-rule:nonzero"
         id="path9940" /><path
         d="m 0.74,-0.826 v 0.06 c 0,0.007 0.002,0.013 0.006,0.018 0.004,0.005 0.009,0.01 0.015,0.013 0.006,0.004 0.013,0.007 0.02,0.009 0.006,0.003 0.012,0.005 0.017,0.008 l 0.119,0.054 c 0.035,0.016 0.066,0.036 0.093,0.06 0.028,0.024 0.052,0.051 0.072,0.082 0.019,0.03 0.034,0.063 0.045,0.098 0.01,0.036 0.016,0.072 0.016,0.11 0,0.044 -0.008,0.086 -0.022,0.126 -0.014,0.04 -0.034,0.076 -0.059,0.109 C 1.037,-0.046 1.006,-0.018 0.971,0.006 0.936,0.03 0.897,0.047 0.854,0.058 0.839,0.055 0.823,0.051 0.807,0.049 0.79,0.046 0.774,0.044 0.758,0.044 H 0.58 C 0.563,0.044 0.547,0.046 0.531,0.049 0.514,0.051 0.498,0.054 0.482,0.058 0.44,0.047 0.401,0.029 0.366,0.006 0.331,-0.018 0.301,-0.046 0.275,-0.079 0.25,-0.112 0.23,-0.148 0.216,-0.188 0.202,-0.229 0.195,-0.27 0.195,-0.314 c 0,-0.038 0.006,-0.074 0.016,-0.11 0.011,-0.035 0.026,-0.068 0.045,-0.098 0.02,-0.031 0.044,-0.058 0.071,-0.082 0.028,-0.024 0.059,-0.044 0.093,-0.06 l 0.12,-0.054 c 0.005,-0.003 0.011,-0.005 0.018,-0.008 0.007,-0.003 0.013,-0.006 0.019,-0.01 0.006,-0.003 0.012,-0.008 0.016,-0.013 0.004,-0.005 0.006,-0.011 0.006,-0.018 v -0.06 z"
         style="fill:#ffb900;fill-rule:nonzero"
         id="path9942" /><path
         d="m 0.757,-0.842 v 0.06 c 0,0.014 0.004,0.027 0.011,0.038 0.008,0.011 0.017,0.019 0.03,0.026 0.002,0.001 0.005,0.003 0.008,0.004 0.003,0.001 0.006,0.002 0.009,0.004 0.007,0.004 0.014,0.009 0.021,0.014 0.007,0.005 0.014,0.01 0.02,0.015 0.029,0.02 0.052,0.045 0.071,0.073 0.019,0.029 0.034,0.06 0.045,0.093 0.011,0.033 0.019,0.067 0.024,0.102 C 1,-0.378 1.002,-0.344 1.002,-0.312 1.002,-0.279 1,-0.246 0.994,-0.211 0.989,-0.177 0.98,-0.143 0.968,-0.11 0.957,-0.077 0.941,-0.046 0.923,-0.017 0.904,0.012 0.882,0.037 0.855,0.058 0.823,0.066 0.791,0.07 0.758,0.07 H 0.695 L 0.669,0.049 0.643,0.07 H 0.623 C 0.599,0.07 0.575,0.07 0.552,0.069 0.53,0.068 0.506,0.064 0.482,0.058 0.456,0.037 0.434,0.012 0.415,-0.017 0.396,-0.046 0.381,-0.077 0.37,-0.11 0.358,-0.143 0.349,-0.177 0.344,-0.211 0.338,-0.246 0.335,-0.279 0.335,-0.312 c 0,-0.032 0.003,-0.066 0.007,-0.101 0.005,-0.035 0.013,-0.069 0.024,-0.102 0.011,-0.033 0.026,-0.064 0.045,-0.093 0.019,-0.028 0.042,-0.053 0.07,-0.073 0.007,-0.005 0.014,-0.01 0.021,-0.015 0.007,-0.005 0.014,-0.01 0.021,-0.014 0.003,-0.002 0.005,-0.003 0.008,-0.004 0.004,-0.001 0.006,-0.003 0.009,-0.004 0.012,-0.007 0.022,-0.015 0.03,-0.026 0.007,-0.011 0.011,-0.024 0.011,-0.038 v -0.06 z"
         style="fill:#d48c00;fill-rule:nonzero"
         id="path9944" /><path
         d="m 0.371,-0.312 c 0,-0.029 0.002,-0.06 0.006,-0.092 0.004,-0.032 0.011,-0.064 0.021,-0.095 0.01,-0.031 0.023,-0.059 0.04,-0.086 0.017,-0.027 0.038,-0.049 0.063,-0.067 l 0.081,-0.057 c 0.002,-0.002 0.004,-0.004 0.007,-0.007 l 0.014,-0.018 c 0.002,-0.002 0.003,-0.003 0.004,-0.003 0.003,0 0.004,0.001 0.004,0.004 0,0 -0.002,0.003 -0.005,0.008 -0.002,0.004 -0.006,0.01 -0.009,0.015 -0.004,0.006 -0.007,0.011 -0.011,0.016 -0.003,0.005 -0.005,0.009 -0.005,0.01 -0.01,0.015 -0.018,0.033 -0.025,0.052 -0.007,0.02 -0.014,0.04 -0.019,0.062 -0.005,0.022 -0.009,0.044 -0.012,0.067 -0.004,0.023 -0.006,0.046 -0.008,0.068 -0.002,0.023 -0.004,0.045 -0.005,0.066 0,0.021 -0.001,0.04 -0.001,0.057 0,0.017 0.001,0.037 0.001,0.058 0.001,0.022 0.003,0.044 0.005,0.067 0.002,0.024 0.005,0.047 0.008,0.071 0.004,0.024 0.008,0.048 0.014,0.07 0.005,0.023 0.012,0.044 0.019,0.063 0.008,0.02 0.016,0.037 0.026,0.051 C 0.557,0.064 0.533,0.053 0.512,0.037 0.49,0.021 0.471,0.002 0.455,-0.021 0.439,-0.043 0.425,-0.067 0.414,-0.093 0.403,-0.119 0.394,-0.144 0.388,-0.167 0.376,-0.214 0.371,-0.262 0.371,-0.312 Z m 0.382,0.38 C 0.764,0.054 0.772,0.037 0.78,0.017 0.787,-0.002 0.794,-0.023 0.799,-0.046 0.804,-0.068 0.809,-0.092 0.812,-0.116 0.816,-0.14 0.819,-0.163 0.821,-0.187 0.823,-0.21 0.825,-0.232 0.825,-0.254 0.826,-0.275 0.827,-0.295 0.827,-0.312 0.827,-0.329 0.826,-0.348 0.825,-0.369 0.825,-0.39 0.823,-0.412 0.821,-0.435 0.819,-0.457 0.817,-0.48 0.813,-0.503 0.81,-0.526 0.806,-0.548 0.801,-0.57 0.795,-0.592 0.789,-0.612 0.782,-0.632 0.775,-0.651 0.767,-0.669 0.757,-0.684 0.757,-0.685 0.755,-0.689 0.751,-0.694 0.748,-0.699 0.745,-0.704 0.741,-0.71 0.738,-0.715 0.734,-0.721 0.731,-0.725 0.729,-0.73 0.727,-0.733 0.727,-0.733 c 0,-0.003 0.001,-0.004 0.004,-0.004 0.001,0 0.002,0.001 0.004,0.003 l 0.014,0.018 c 0.003,0.003 0.005,0.005 0.007,0.007 l 0.08,0.057 c 0.026,0.018 0.047,0.04 0.064,0.067 0.017,0.027 0.03,0.055 0.04,0.086 0.01,0.031 0.017,0.063 0.021,0.095 0.004,0.032 0.006,0.063 0.006,0.092 0,0.05 -0.006,0.098 -0.017,0.145 -0.006,0.023 -0.015,0.048 -0.026,0.074 -0.011,0.026 -0.025,0.05 -0.041,0.072 C 0.867,0.002 0.848,0.021 0.826,0.037 0.805,0.053 0.78,0.064 0.753,0.068 Z"
         style="fill:#ffc83d;fill-rule:nonzero"
         id="path9946" /><path
         d="M 0.695,0.07 H 0.643 C 0.639,0.07 0.636,0.069 0.633,0.068 0.629,0.066 0.627,0.064 0.624,0.061 0.621,0.058 0.618,0.056 0.616,0.052 0.614,0.049 0.612,0.047 0.61,0.044 0.602,0.03 0.594,0.014 0.587,-0.004 0.581,-0.023 0.575,-0.043 0.571,-0.064 0.566,-0.085 0.562,-0.107 0.559,-0.129 0.555,-0.152 0.553,-0.174 0.551,-0.196 0.549,-0.217 0.548,-0.238 0.547,-0.258 0.546,-0.278 0.546,-0.296 0.546,-0.312 c 0,-0.015 0,-0.033 0.001,-0.053 0.001,-0.02 0.002,-0.041 0.004,-0.063 0.002,-0.021 0.004,-0.043 0.008,-0.065 0.003,-0.023 0.007,-0.044 0.012,-0.065 0.004,-0.021 0.01,-0.041 0.017,-0.059 0.006,-0.018 0.014,-0.035 0.022,-0.049 l 0.036,-0.056 c 0.003,-0.005 0.006,-0.009 0.009,-0.011 0.004,-0.003 0.008,-0.004 0.015,-0.004 0.005,0 0.01,0.001 0.013,0.004 0.004,0.003 0.007,0.007 0.009,0.011 l 0.036,0.056 c 0.008,0.014 0.016,0.031 0.022,0.049 0.007,0.018 0.013,0.038 0.017,0.059 0.005,0.021 0.009,0.042 0.012,0.065 0.003,0.022 0.006,0.044 0.008,0.065 0.002,0.022 0.003,0.043 0.004,0.063 0.001,0.02 0.001,0.038 0.001,0.053 0,0.016 0,0.034 -0.001,0.054 -0.001,0.02 -0.002,0.041 -0.004,0.062 -0.002,0.022 -0.004,0.044 -0.008,0.067 -0.003,0.022 -0.007,0.044 -0.012,0.065 -0.004,0.021 -0.01,0.041 -0.017,0.06 C 0.744,0.014 0.736,0.03 0.728,0.044 0.726,0.047 0.724,0.049 0.722,0.052 0.719,0.056 0.717,0.058 0.714,0.061 0.711,0.064 0.708,0.066 0.705,0.068 0.702,0.069 0.699,0.07 0.695,0.07 Z"
         style="fill:#ffd679;fill-rule:nonzero"
         id="path9948" /></g></g></svg>
