<?xml version="1.0" encoding="UTF-8" standalone="no"?>
<svg
   width="16.844999"
   height="16.844999"
   viewBox="0 0 16.844999 16.844999"
   version="1.1"
   xml:space="preserve"
   style="clip-rule:evenodd;fill-rule:evenodd;stroke-linejoin:round;stroke-miterlimit:2"
   id="svg20568"
   sodipodi:docname="emojis.svg"
   xmlns:inkscape="http://www.inkscape.org/namespaces/inkscape"
   xmlns:sodipodi="http://sodipodi.sourceforge.net/DTD/sodipodi-0.dtd"
   xmlns="http://www.w3.org/2000/svg"
   xmlns:svg="http://www.w3.org/2000/svg"><defs
     id="defs20572" /><sodipodi:namedview
     id="namedview20570"
     pagecolor="#505050"
     bordercolor="#eeeeee"
     borderopacity="1"
     inkscape:pageshadow="0"
     inkscape:pageopacity="0"
     inkscape:pagecheckerboard="0" /><g
     transform="matrix(0.24,0,0,0.24,-580.9806,-495.165)"
     id="g20566"><g
       transform="matrix(62.5,0,0,62.5,2412.94,2120.25)"
       id="g9960"><path
         d="M 0.546,0.21 C 0.527,0.21 0.509,0.207 0.491,0.199 0.474,0.192 0.459,0.182 0.447,0.169 0.434,0.157 0.424,0.142 0.417,0.125 0.409,0.108 0.406,0.09 0.406,0.07 c 0,-0.007 0,-0.014 0.002,-0.021 C 0.409,0.042 0.411,0.035 0.413,0.028 L 0.489,-0.246 H 0.265 C 0.246,-0.246 0.228,-0.249 0.211,-0.257 0.194,-0.264 0.179,-0.274 0.167,-0.287 0.154,-0.3 0.144,-0.315 0.136,-0.332 0.129,-0.349 0.125,-0.367 0.125,-0.386 v -0.035 c 0,-0.045 0.006,-0.089 0.018,-0.131 0.011,-0.041 0.028,-0.08 0.049,-0.117 0.021,-0.036 0.047,-0.07 0.077,-0.1 0.03,-0.03 0.063,-0.055 0.1,-0.076 0.036,-0.022 0.075,-0.038 0.117,-0.05 0.042,-0.012 0.085,-0.018 0.13,-0.018 h 0.141 c 0.038,0 0.075,0.005 0.111,0.013 0.037,0.009 0.071,0.021 0.104,0.037 0.033,0.017 0.064,0.036 0.092,0.059 0.029,0.023 0.054,0.048 0.077,0.077 0.023,0.028 0.042,0.059 0.059,0.093 0.016,0.033 0.028,0.069 0.036,0.106 0.006,0.024 0.009,0.047 0.01,0.071 0.001,0.023 0.002,0.047 0.002,0.071 0,0.019 -0.004,0.038 -0.011,0.055 -0.007,0.017 -0.017,0.032 -0.03,0.044 -0.013,0.013 -0.028,0.023 -0.045,0.03 -0.017,0.008 -0.035,0.011 -0.055,0.011 H 0.884 L 0.961,0.03 C 0.963,0.037 0.964,0.043 0.966,0.05 0.967,0.057 0.967,0.063 0.967,0.07 0.967,0.09 0.964,0.108 0.956,0.125 0.949,0.141 0.938,0.156 0.926,0.169 0.913,0.182 0.898,0.192 0.881,0.199 0.864,0.207 0.846,0.21 0.827,0.21 Z"
         style="fill-rule:nonzero"
         id="path9952" /><path
         d="M 0.792,-0.316 0.894,0.049 C 0.895,0.053 0.895,0.056 0.896,0.06 0.897,0.063 0.897,0.067 0.897,0.07 0.897,0.08 0.895,0.089 0.891,0.098 0.888,0.106 0.883,0.114 0.876,0.12 0.87,0.126 0.862,0.131 0.854,0.135 0.846,0.138 0.836,0.14 0.827,0.14 H 0.546 C 0.536,0.14 0.527,0.138 0.519,0.135 0.51,0.131 0.503,0.126 0.496,0.12 0.49,0.114 0.485,0.106 0.481,0.098 0.478,0.089 0.476,0.08 0.476,0.07 c 0,-0.003 0,-0.007 0.001,-0.01 C 0.478,0.056 0.479,0.053 0.479,0.049 L 0.581,-0.316 0.69,-0.379 Z"
         style="fill:#f7d7c4;fill-rule:nonzero"
         id="path9954" /><path
         d="M 1.167,-0.513 1.048,-0.44 0.987,-0.316 H 0.386 L 0.341,-0.464 0.206,-0.513 C 0.212,-0.541 0.221,-0.568 0.233,-0.594 0.245,-0.621 0.259,-0.646 0.276,-0.669 L 0.42,-0.708 0.5,-0.826 c 0.019,-0.005 0.038,-0.009 0.058,-0.012 0.019,-0.003 0.039,-0.004 0.058,-0.004 h 0.141 c 0.019,0 0.039,0.001 0.058,0.004 0.02,0.003 0.039,0.007 0.058,0.012 l 0.065,0.119 0.159,0.038 c 0.017,0.023 0.031,0.048 0.043,0.075 0.012,0.026 0.021,0.053 0.027,0.081 z"
         style="fill:#f03a17;fill-rule:nonzero"
         id="path9956" /><path
         d="m 1.097,-0.669 c -0.013,0.012 -0.028,0.021 -0.044,0.027 -0.016,0.007 -0.033,0.01 -0.051,0.01 -0.019,0 -0.037,-0.004 -0.054,-0.011 C 0.931,-0.651 0.916,-0.661 0.904,-0.673 0.891,-0.686 0.881,-0.701 0.873,-0.718 0.866,-0.735 0.862,-0.753 0.862,-0.772 c 0,-0.018 0.003,-0.036 0.011,-0.054 0.045,0.013 0.087,0.033 0.125,0.059 0.038,0.027 0.071,0.06 0.099,0.098 z m 0.07,0.156 c 0.007,0.03 0.011,0.061 0.011,0.092 v 0.035 c 0,0.01 -0.002,0.019 -0.006,0.027 C 1.169,-0.35 1.164,-0.343 1.157,-0.337 1.151,-0.33 1.144,-0.325 1.135,-0.322 1.127,-0.318 1.118,-0.316 1.108,-0.316 H 0.987 C 0.98,-0.326 0.975,-0.338 0.972,-0.35 0.969,-0.362 0.967,-0.374 0.967,-0.386 c 0,-0.019 0.004,-0.038 0.011,-0.055 0.008,-0.017 0.018,-0.032 0.03,-0.044 0.013,-0.013 0.028,-0.023 0.045,-0.03 0.017,-0.008 0.035,-0.011 0.054,-0.011 0.011,0 0.021,0.001 0.031,0.003 0.01,0.002 0.02,0.005 0.029,0.01 z M 0.266,-0.526 c 0.019,0 0.037,0.003 0.054,0.011 0.017,0.007 0.032,0.017 0.045,0.03 0.012,0.012 0.022,0.027 0.03,0.044 0.007,0.017 0.011,0.036 0.011,0.055 0,0.012 -0.002,0.024 -0.005,0.036 -0.003,0.012 -0.008,0.024 -0.015,0.034 h -0.12 c -0.01,0 -0.019,-0.002 -0.028,-0.005 C 0.229,-0.325 0.222,-0.33 0.216,-0.336 0.209,-0.343 0.204,-0.35 0.201,-0.359 0.197,-0.367 0.195,-0.376 0.195,-0.386 v -0.035 c 0,-0.031 0.004,-0.062 0.011,-0.092 0.009,-0.005 0.019,-0.008 0.029,-0.01 0.01,-0.002 0.02,-0.003 0.031,-0.003 z m 0.01,-0.143 c 0.028,-0.038 0.061,-0.07 0.099,-0.097 0.038,-0.027 0.08,-0.047 0.125,-0.06 0.008,0.018 0.011,0.036 0.011,0.054 0,0.019 -0.004,0.037 -0.011,0.054 -0.007,0.017 -0.018,0.032 -0.031,0.045 -0.012,0.012 -0.027,0.022 -0.044,0.03 -0.018,0.007 -0.036,0.011 -0.054,0.011 -0.018,0 -0.035,-0.003 -0.051,-0.01 C 0.304,-0.648 0.289,-0.657 0.276,-0.669 Z m 0.411,-0.033 c 0.019,0 0.037,0.004 0.054,0.011 0.017,0.007 0.032,0.017 0.045,0.03 0.012,0.013 0.022,0.027 0.03,0.045 0.007,0.017 0.011,0.035 0.011,0.054 0,0.02 -0.004,0.038 -0.011,0.055 -0.008,0.017 -0.018,0.032 -0.03,0.045 -0.013,0.012 -0.028,0.022 -0.045,0.03 -0.017,0.007 -0.035,0.011 -0.054,0.011 -0.02,0 -0.038,-0.004 -0.055,-0.011 C 0.615,-0.44 0.6,-0.45 0.587,-0.462 0.574,-0.475 0.564,-0.49 0.557,-0.507 0.55,-0.524 0.546,-0.542 0.546,-0.562 c 0,-0.019 0.004,-0.037 0.011,-0.054 0.007,-0.018 0.017,-0.032 0.03,-0.045 0.013,-0.013 0.028,-0.023 0.045,-0.03 0.017,-0.007 0.035,-0.011 0.055,-0.011 z"
         style="fill:#f495bf;fill-rule:nonzero"
         id="path9958" /></g></g></svg>
