<?xml version="1.0" encoding="UTF-8" standalone="no"?>
<svg
   width="16.844999"
   height="13.68"
   viewBox="0 0 16.844999 13.68"
   version="1.1"
   xml:space="preserve"
   style="clip-rule:evenodd;fill-rule:evenodd;stroke-linejoin:round;stroke-miterlimit:2"
   id="svg20568"
   sodipodi:docname="emojis.svg"
   xmlns:inkscape="http://www.inkscape.org/namespaces/inkscape"
   xmlns:sodipodi="http://sodipodi.sourceforge.net/DTD/sodipodi-0.dtd"
   xmlns="http://www.w3.org/2000/svg"
   xmlns:svg="http://www.w3.org/2000/svg"><defs
     id="defs20572" /><sodipodi:namedview
     id="namedview20570"
     pagecolor="#505050"
     bordercolor="#eeeeee"
     borderopacity="1"
     inkscape:pageshadow="0"
     inkscape:pageopacity="0"
     inkscape:pagecheckerboard="0" /><g
     transform="matrix(0.24,0,0,0.24,-642.7662,-496.755)"
     id="g20566"><g
       transform="matrix(62.5,0,0,62.5,2670.38,2120.25)"
       id="g9992"><path
         d="m 1.002,-0.807 c 0.034,0 0.066,0.006 0.096,0.019 0.03,0.013 0.056,0.031 0.078,0.053 0.022,0.022 0.04,0.048 0.053,0.078 0.013,0.03 0.019,0.062 0.019,0.095 0,0.023 -0.003,0.044 -0.009,0.066 -0.006,0.021 -0.015,0.041 -0.026,0.06 v 0.366 c 0,0.024 -0.005,0.046 -0.014,0.068 C 1.19,0.019 1.177,0.038 1.161,0.053 1.146,0.069 1.127,0.082 1.106,0.091 1.084,0.1 1.062,0.105 1.038,0.105 H 0.335 C 0.311,0.105 0.289,0.1 0.267,0.091 0.246,0.082 0.227,0.07 0.211,0.054 0.195,0.038 0.183,0.019 0.174,-0.002 0.165,-0.024 0.16,-0.046 0.16,-0.07 V -0.436 C 0.149,-0.455 0.14,-0.475 0.134,-0.496 0.128,-0.518 0.125,-0.539 0.125,-0.562 c 0,-0.033 0.006,-0.065 0.019,-0.095 0.013,-0.03 0.031,-0.056 0.053,-0.078 0.022,-0.022 0.048,-0.04 0.078,-0.053 0.03,-0.013 0.062,-0.019 0.096,-0.019 z"
         style="fill-rule:nonzero"
         id="path9984" /><path
         d="m 1.178,-0.562 c 0,0.019 -0.003,0.038 -0.009,0.055 -0.006,0.018 -0.015,0.035 -0.026,0.049 v 0.388 c 0,0.014 -0.003,0.028 -0.009,0.041 C 1.129,-0.017 1.121,-0.005 1.112,0.004 1.102,0.014 1.091,0.021 1.079,0.027 1.066,0.032 1.052,0.035 1.038,0.035 H 0.335 C 0.321,0.035 0.307,0.032 0.294,0.027 0.282,0.021 0.271,0.014 0.261,0.004 0.252,-0.005 0.244,-0.017 0.239,-0.029 0.233,-0.042 0.23,-0.056 0.23,-0.07 V -0.458 C 0.219,-0.472 0.21,-0.489 0.204,-0.507 0.198,-0.524 0.195,-0.543 0.195,-0.562 c 0,-0.024 0.005,-0.046 0.014,-0.068 0.01,-0.021 0.022,-0.04 0.038,-0.056 0.016,-0.015 0.034,-0.028 0.055,-0.037 0.022,-0.01 0.045,-0.014 0.069,-0.014 h 0.631 c 0.025,0 0.047,0.004 0.069,0.014 0.021,0.009 0.039,0.022 0.055,0.037 0.016,0.016 0.029,0.035 0.038,0.056 0.009,0.022 0.014,0.044 0.014,0.068 z"
         style="fill:#eba300;fill-rule:nonzero"
         id="path9986" /><path
         d="m 0.647,-0.562 h 0.531 c 0,0.019 -0.003,0.038 -0.009,0.055 -0.006,0.018 -0.015,0.035 -0.026,0.049 H 0.612 V -0.47 c 0.011,-0.012 0.02,-0.027 0.026,-0.042 0.006,-0.016 0.009,-0.033 0.009,-0.05 z"
         style="fill:#d48c00;fill-rule:nonzero"
         id="path9988" /><path
         d="m 0.581,-0.702 c 0.02,0 0.038,0.004 0.055,0.011 0.017,0.007 0.032,0.017 0.045,0.03 0.012,0.013 0.022,0.027 0.03,0.045 0.007,0.017 0.011,0.035 0.011,0.054 0,0.017 -0.003,0.034 -0.01,0.05 -0.006,0.015 -0.014,0.03 -0.025,0.042 v 0.4 c 0,0.009 -0.002,0.019 -0.006,0.027 C 0.677,-0.034 0.672,-0.027 0.666,-0.02 0.659,-0.014 0.652,-0.009 0.644,-0.005 0.635,-0.002 0.626,0 0.616,0 H 0.335 C 0.326,0 0.317,-0.002 0.308,-0.006 0.3,-0.009 0.292,-0.014 0.286,-0.021 0.28,-0.027 0.274,-0.035 0.271,-0.043 0.267,-0.051 0.265,-0.061 0.265,-0.07 v -0.4 C 0.254,-0.482 0.246,-0.497 0.24,-0.512 0.233,-0.528 0.23,-0.545 0.23,-0.562 c 0,-0.019 0.004,-0.037 0.011,-0.054 0.008,-0.018 0.018,-0.032 0.03,-0.045 0.013,-0.013 0.028,-0.023 0.045,-0.03 0.017,-0.007 0.035,-0.011 0.055,-0.011 z m -0.263,0.667 c 0.005,0 0.009,-0.002 0.012,-0.005 0.004,-0.004 0.005,-0.008 0.005,-0.013 0,-0.005 -0.001,-0.009 -0.005,-0.012 C 0.327,-0.069 0.323,-0.07 0.318,-0.07 0.313,-0.07 0.309,-0.069 0.305,-0.065 0.302,-0.062 0.3,-0.058 0.3,-0.053 c 0,0.005 0.002,0.009 0.005,0.013 0.004,0.003 0.008,0.005 0.013,0.005 z m 0,-0.07 c 0.005,0 0.009,-0.002 0.012,-0.006 0.004,-0.003 0.005,-0.007 0.005,-0.012 0,-0.005 -0.001,-0.009 -0.005,-0.012 -0.003,-0.004 -0.007,-0.006 -0.012,-0.006 -0.005,0 -0.009,0.002 -0.013,0.006 -0.003,0.003 -0.005,0.007 -0.005,0.012 0,0.005 0.002,0.009 0.005,0.012 0.004,0.004 0.008,0.006 0.013,0.006 z m 0.07,0.07 c 0.005,0 0.009,-0.002 0.013,-0.005 0.003,-0.004 0.005,-0.008 0.005,-0.013 0,-0.005 -0.002,-0.009 -0.005,-0.012 C 0.397,-0.069 0.393,-0.07 0.388,-0.07 c -0.005,0 -0.009,0.001 -0.012,0.005 -0.004,0.003 -0.005,0.007 -0.005,0.012 0,0.005 0.001,0.009 0.005,0.013 0.003,0.003 0.007,0.005 0.012,0.005 z"
         style="fill:#ffd679;fill-rule:nonzero"
         id="path9990" /></g></g></svg>
